<?xml version="1.0" encoding="utf-8" standalone="no"?>
<!DOCTYPE svg PUBLIC "-//W3C//DTD SVG 1.1//EN"
  "http://www.w3.org/Graphics/SVG/1.1/DTD/svg11.dtd">
<svg xmlns:xlink="http://www.w3.org/1999/xlink" width="460.8pt" height="345.6pt" viewBox="0 0 460.8 345.6" xmlns="http://www.w3.org/2000/svg" version="1.1">
 <metadata>
  <rdf:RDF xmlns:dc="http://purl.org/dc/elements/1.1/" xmlns:cc="http://creativecommons.org/ns#" xmlns:rdf="http://www.w3.org/1999/02/22-rdf-syntax-ns#">
   <cc:Work>
    <dc:type rdf:resource="http://purl.org/dc/dcmitype/StillImage"/>
    <dc:date>2025-09-22T15:39:39.603183</dc:date>
    <dc:format>image/svg+xml</dc:format>
    <dc:creator>
     <cc:Agent>
      <dc:title>Matplotlib v3.10.0, https://matplotlib.org/</dc:title>
     </cc:Agent>
    </dc:creator>
   </cc:Work>
  </rdf:RDF>
 </metadata>
 <defs>
  <style type="text/css">*{stroke-linejoin: round; stroke-linecap: butt}</style>
 </defs>
 <g id="figure_1">
  <g id="patch_1">
   <path d="M 0 345.6 
L 460.8 345.6 
L 460.8 0 
L 0 0 
z
" style="fill: #ffffff"/>
  </g>
  <g id="axes_1">
   <g id="patch_2">
    <path d="M 47.81 303.64 
L 450 303.64 
L 450 25.44 
L 47.81 25.44 
z
" style="fill: #ffffff"/>
   </g>
   <g id="matplotlib.axis_1">
    <g id="xtick_1">
     <g id="line2d_1">
      <path d="M 66.091364 303.64 
L 66.091364 25.44 
" clip-path="url(#pfbdb355f44)" style="fill: none; stroke: #b0b0b0; stroke-opacity: 0.3; stroke-width: 0.8; stroke-linecap: square"/>
     </g>
     <g id="line2d_2">
      <defs>
       <path id="m6d29c8868e" d="M 0 0 
L 0 3.5 
" style="stroke: #000000; stroke-width: 0.8"/>
      </defs>
      <g>
       <use xlink:href="#m6d29c8868e" x="66.091364" y="303.64" style="stroke: #000000; stroke-width: 0.8"/>
      </g>
     </g>
     <g id="text_1">
      <!-- 0 -->
      <g transform="translate(62.910114 318.238437) scale(0.1 -0.1)">
       <defs>
        <path id="DejaVuSans-30" d="M 2034 4250 
Q 1547 4250 1301 3770 
Q 1056 3291 1056 2328 
Q 1056 1369 1301 889 
Q 1547 409 2034 409 
Q 2525 409 2770 889 
Q 3016 1369 3016 2328 
Q 3016 3291 2770 3770 
Q 2525 4250 2034 4250 
z
M 2034 4750 
Q 2819 4750 3233 4129 
Q 3647 3509 3647 2328 
Q 3647 1150 3233 529 
Q 2819 -91 2034 -91 
Q 1250 -91 836 529 
Q 422 1150 422 2328 
Q 422 3509 836 4129 
Q 1250 4750 2034 4750 
z
" transform="scale(0.015625)"/>
       </defs>
       <use xlink:href="#DejaVuSans-30"/>
      </g>
     </g>
    </g>
    <g id="xtick_2">
     <g id="line2d_3">
      <path d="M 114.841667 303.64 
L 114.841667 25.44 
" clip-path="url(#pfbdb355f44)" style="fill: none; stroke: #b0b0b0; stroke-opacity: 0.3; stroke-width: 0.8; stroke-linecap: square"/>
     </g>
     <g id="line2d_4">
      <g>
       <use xlink:href="#m6d29c8868e" x="114.841667" y="303.64" style="stroke: #000000; stroke-width: 0.8"/>
      </g>
     </g>
     <g id="text_2">
      <!-- 2 -->
      <g transform="translate(111.660417 318.238437) scale(0.1 -0.1)">
       <defs>
        <path id="DejaVuSans-32" d="M 1228 531 
L 3431 531 
L 3431 0 
L 469 0 
L 469 531 
Q 828 903 1448 1529 
Q 2069 2156 2228 2338 
Q 2531 2678 2651 2914 
Q 2772 3150 2772 3378 
Q 2772 3750 2511 3984 
Q 2250 4219 1831 4219 
Q 1534 4219 1204 4116 
Q 875 4013 500 3803 
L 500 4441 
Q 881 4594 1212 4672 
Q 1544 4750 1819 4750 
Q 2544 4750 2975 4387 
Q 3406 4025 3406 3419 
Q 3406 3131 3298 2873 
Q 3191 2616 2906 2266 
Q 2828 2175 2409 1742 
Q 1991 1309 1228 531 
z
" transform="scale(0.015625)"/>
       </defs>
       <use xlink:href="#DejaVuSans-32"/>
      </g>
     </g>
    </g>
    <g id="xtick_3">
     <g id="line2d_5">
      <path d="M 163.59197 303.64 
L 163.59197 25.44 
" clip-path="url(#pfbdb355f44)" style="fill: none; stroke: #b0b0b0; stroke-opacity: 0.3; stroke-width: 0.8; stroke-linecap: square"/>
     </g>
     <g id="line2d_6">
      <g>
       <use xlink:href="#m6d29c8868e" x="163.59197" y="303.64" style="stroke: #000000; stroke-width: 0.8"/>
      </g>
     </g>
     <g id="text_3">
      <!-- 4 -->
      <g transform="translate(160.41072 318.238437) scale(0.1 -0.1)">
       <defs>
        <path id="DejaVuSans-34" d="M 2419 4116 
L 825 1625 
L 2419 1625 
L 2419 4116 
z
M 2253 4666 
L 3047 4666 
L 3047 1625 
L 3713 1625 
L 3713 1100 
L 3047 1100 
L 3047 0 
L 2419 0 
L 2419 1100 
L 313 1100 
L 313 1709 
L 2253 4666 
z
" transform="scale(0.015625)"/>
       </defs>
       <use xlink:href="#DejaVuSans-34"/>
      </g>
     </g>
    </g>
    <g id="xtick_4">
     <g id="line2d_7">
      <path d="M 212.342273 303.64 
L 212.342273 25.44 
" clip-path="url(#pfbdb355f44)" style="fill: none; stroke: #b0b0b0; stroke-opacity: 0.3; stroke-width: 0.8; stroke-linecap: square"/>
     </g>
     <g id="line2d_8">
      <g>
       <use xlink:href="#m6d29c8868e" x="212.342273" y="303.64" style="stroke: #000000; stroke-width: 0.8"/>
      </g>
     </g>
     <g id="text_4">
      <!-- 6 -->
      <g transform="translate(209.161023 318.238437) scale(0.1 -0.1)">
       <defs>
        <path id="DejaVuSans-36" d="M 2113 2584 
Q 1688 2584 1439 2293 
Q 1191 2003 1191 1497 
Q 1191 994 1439 701 
Q 1688 409 2113 409 
Q 2538 409 2786 701 
Q 3034 994 3034 1497 
Q 3034 2003 2786 2293 
Q 2538 2584 2113 2584 
z
M 3366 4563 
L 3366 3988 
Q 3128 4100 2886 4159 
Q 2644 4219 2406 4219 
Q 1781 4219 1451 3797 
Q 1122 3375 1075 2522 
Q 1259 2794 1537 2939 
Q 1816 3084 2150 3084 
Q 2853 3084 3261 2657 
Q 3669 2231 3669 1497 
Q 3669 778 3244 343 
Q 2819 -91 2113 -91 
Q 1303 -91 875 529 
Q 447 1150 447 2328 
Q 447 3434 972 4092 
Q 1497 4750 2381 4750 
Q 2619 4750 2861 4703 
Q 3103 4656 3366 4563 
z
" transform="scale(0.015625)"/>
       </defs>
       <use xlink:href="#DejaVuSans-36"/>
      </g>
     </g>
    </g>
    <g id="xtick_5">
     <g id="line2d_9">
      <path d="M 261.092576 303.64 
L 261.092576 25.44 
" clip-path="url(#pfbdb355f44)" style="fill: none; stroke: #b0b0b0; stroke-opacity: 0.3; stroke-width: 0.8; stroke-linecap: square"/>
     </g>
     <g id="line2d_10">
      <g>
       <use xlink:href="#m6d29c8868e" x="261.092576" y="303.64" style="stroke: #000000; stroke-width: 0.8"/>
      </g>
     </g>
     <g id="text_5">
      <!-- 8 -->
      <g transform="translate(257.911326 318.238437) scale(0.1 -0.1)">
       <defs>
        <path id="DejaVuSans-38" d="M 2034 2216 
Q 1584 2216 1326 1975 
Q 1069 1734 1069 1313 
Q 1069 891 1326 650 
Q 1584 409 2034 409 
Q 2484 409 2743 651 
Q 3003 894 3003 1313 
Q 3003 1734 2745 1975 
Q 2488 2216 2034 2216 
z
M 1403 2484 
Q 997 2584 770 2862 
Q 544 3141 544 3541 
Q 544 4100 942 4425 
Q 1341 4750 2034 4750 
Q 2731 4750 3128 4425 
Q 3525 4100 3525 3541 
Q 3525 3141 3298 2862 
Q 3072 2584 2669 2484 
Q 3125 2378 3379 2068 
Q 3634 1759 3634 1313 
Q 3634 634 3220 271 
Q 2806 -91 2034 -91 
Q 1263 -91 848 271 
Q 434 634 434 1313 
Q 434 1759 690 2068 
Q 947 2378 1403 2484 
z
M 1172 3481 
Q 1172 3119 1398 2916 
Q 1625 2713 2034 2713 
Q 2441 2713 2670 2916 
Q 2900 3119 2900 3481 
Q 2900 3844 2670 4047 
Q 2441 4250 2034 4250 
Q 1625 4250 1398 4047 
Q 1172 3844 1172 3481 
z
" transform="scale(0.015625)"/>
       </defs>
       <use xlink:href="#DejaVuSans-38"/>
      </g>
     </g>
    </g>
    <g id="xtick_6">
     <g id="line2d_11">
      <path d="M 309.842879 303.64 
L 309.842879 25.44 
" clip-path="url(#pfbdb355f44)" style="fill: none; stroke: #b0b0b0; stroke-opacity: 0.3; stroke-width: 0.8; stroke-linecap: square"/>
     </g>
     <g id="line2d_12">
      <g>
       <use xlink:href="#m6d29c8868e" x="309.842879" y="303.64" style="stroke: #000000; stroke-width: 0.8"/>
      </g>
     </g>
     <g id="text_6">
      <!-- 10 -->
      <g transform="translate(303.480379 318.238437) scale(0.1 -0.1)">
       <defs>
        <path id="DejaVuSans-31" d="M 794 531 
L 1825 531 
L 1825 4091 
L 703 3866 
L 703 4441 
L 1819 4666 
L 2450 4666 
L 2450 531 
L 3481 531 
L 3481 0 
L 794 0 
L 794 531 
z
" transform="scale(0.015625)"/>
       </defs>
       <use xlink:href="#DejaVuSans-31"/>
       <use xlink:href="#DejaVuSans-30" transform="translate(63.623047 0)"/>
      </g>
     </g>
    </g>
    <g id="xtick_7">
     <g id="line2d_13">
      <path d="M 358.593182 303.64 
L 358.593182 25.44 
" clip-path="url(#pfbdb355f44)" style="fill: none; stroke: #b0b0b0; stroke-opacity: 0.3; stroke-width: 0.8; stroke-linecap: square"/>
     </g>
     <g id="line2d_14">
      <g>
       <use xlink:href="#m6d29c8868e" x="358.593182" y="303.64" style="stroke: #000000; stroke-width: 0.8"/>
      </g>
     </g>
     <g id="text_7">
      <!-- 12 -->
      <g transform="translate(352.230682 318.238437) scale(0.1 -0.1)">
       <use xlink:href="#DejaVuSans-31"/>
       <use xlink:href="#DejaVuSans-32" transform="translate(63.623047 0)"/>
      </g>
     </g>
    </g>
    <g id="xtick_8">
     <g id="line2d_15">
      <path d="M 407.343485 303.64 
L 407.343485 25.44 
" clip-path="url(#pfbdb355f44)" style="fill: none; stroke: #b0b0b0; stroke-opacity: 0.3; stroke-width: 0.8; stroke-linecap: square"/>
     </g>
     <g id="line2d_16">
      <g>
       <use xlink:href="#m6d29c8868e" x="407.343485" y="303.64" style="stroke: #000000; stroke-width: 0.8"/>
      </g>
     </g>
     <g id="text_8">
      <!-- 14 -->
      <g transform="translate(400.980985 318.238437) scale(0.1 -0.1)">
       <use xlink:href="#DejaVuSans-31"/>
       <use xlink:href="#DejaVuSans-34" transform="translate(63.623047 0)"/>
      </g>
     </g>
    </g>
    <g id="text_9">
     <!-- Time (minutes) -->
     <g transform="translate(210.9425 331.916562) scale(0.1 -0.1)">
      <defs>
       <path id="DejaVuSans-54" d="M -19 4666 
L 3928 4666 
L 3928 4134 
L 2272 4134 
L 2272 0 
L 1638 0 
L 1638 4134 
L -19 4134 
L -19 4666 
z
" transform="scale(0.015625)"/>
       <path id="DejaVuSans-69" d="M 603 3500 
L 1178 3500 
L 1178 0 
L 603 0 
L 603 3500 
z
M 603 4863 
L 1178 4863 
L 1178 4134 
L 603 4134 
L 603 4863 
z
" transform="scale(0.015625)"/>
       <path id="DejaVuSans-6d" d="M 3328 2828 
Q 3544 3216 3844 3400 
Q 4144 3584 4550 3584 
Q 5097 3584 5394 3201 
Q 5691 2819 5691 2113 
L 5691 0 
L 5113 0 
L 5113 2094 
Q 5113 2597 4934 2840 
Q 4756 3084 4391 3084 
Q 3944 3084 3684 2787 
Q 3425 2491 3425 1978 
L 3425 0 
L 2847 0 
L 2847 2094 
Q 2847 2600 2669 2842 
Q 2491 3084 2119 3084 
Q 1678 3084 1418 2786 
Q 1159 2488 1159 1978 
L 1159 0 
L 581 0 
L 581 3500 
L 1159 3500 
L 1159 2956 
Q 1356 3278 1631 3431 
Q 1906 3584 2284 3584 
Q 2666 3584 2933 3390 
Q 3200 3197 3328 2828 
z
" transform="scale(0.015625)"/>
       <path id="DejaVuSans-65" d="M 3597 1894 
L 3597 1613 
L 953 1613 
Q 991 1019 1311 708 
Q 1631 397 2203 397 
Q 2534 397 2845 478 
Q 3156 559 3463 722 
L 3463 178 
Q 3153 47 2828 -22 
Q 2503 -91 2169 -91 
Q 1331 -91 842 396 
Q 353 884 353 1716 
Q 353 2575 817 3079 
Q 1281 3584 2069 3584 
Q 2775 3584 3186 3129 
Q 3597 2675 3597 1894 
z
M 3022 2063 
Q 3016 2534 2758 2815 
Q 2500 3097 2075 3097 
Q 1594 3097 1305 2825 
Q 1016 2553 972 2059 
L 3022 2063 
z
" transform="scale(0.015625)"/>
       <path id="DejaVuSans-20" transform="scale(0.015625)"/>
       <path id="DejaVuSans-28" d="M 1984 4856 
Q 1566 4138 1362 3434 
Q 1159 2731 1159 2009 
Q 1159 1288 1364 580 
Q 1569 -128 1984 -844 
L 1484 -844 
Q 1016 -109 783 600 
Q 550 1309 550 2009 
Q 550 2706 781 3412 
Q 1013 4119 1484 4856 
L 1984 4856 
z
" transform="scale(0.015625)"/>
       <path id="DejaVuSans-6e" d="M 3513 2113 
L 3513 0 
L 2938 0 
L 2938 2094 
Q 2938 2591 2744 2837 
Q 2550 3084 2163 3084 
Q 1697 3084 1428 2787 
Q 1159 2491 1159 1978 
L 1159 0 
L 581 0 
L 581 3500 
L 1159 3500 
L 1159 2956 
Q 1366 3272 1645 3428 
Q 1925 3584 2291 3584 
Q 2894 3584 3203 3211 
Q 3513 2838 3513 2113 
z
" transform="scale(0.015625)"/>
       <path id="DejaVuSans-75" d="M 544 1381 
L 544 3500 
L 1119 3500 
L 1119 1403 
Q 1119 906 1312 657 
Q 1506 409 1894 409 
Q 2359 409 2629 706 
Q 2900 1003 2900 1516 
L 2900 3500 
L 3475 3500 
L 3475 0 
L 2900 0 
L 2900 538 
Q 2691 219 2414 64 
Q 2138 -91 1772 -91 
Q 1169 -91 856 284 
Q 544 659 544 1381 
z
M 1991 3584 
L 1991 3584 
z
" transform="scale(0.015625)"/>
       <path id="DejaVuSans-74" d="M 1172 4494 
L 1172 3500 
L 2356 3500 
L 2356 3053 
L 1172 3053 
L 1172 1153 
Q 1172 725 1289 603 
Q 1406 481 1766 481 
L 2356 481 
L 2356 0 
L 1766 0 
Q 1100 0 847 248 
Q 594 497 594 1153 
L 594 3053 
L 172 3053 
L 172 3500 
L 594 3500 
L 594 4494 
L 1172 4494 
z
" transform="scale(0.015625)"/>
       <path id="DejaVuSans-73" d="M 2834 3397 
L 2834 2853 
Q 2591 2978 2328 3040 
Q 2066 3103 1784 3103 
Q 1356 3103 1142 2972 
Q 928 2841 928 2578 
Q 928 2378 1081 2264 
Q 1234 2150 1697 2047 
L 1894 2003 
Q 2506 1872 2764 1633 
Q 3022 1394 3022 966 
Q 3022 478 2636 193 
Q 2250 -91 1575 -91 
Q 1294 -91 989 -36 
Q 684 19 347 128 
L 347 722 
Q 666 556 975 473 
Q 1284 391 1588 391 
Q 1994 391 2212 530 
Q 2431 669 2431 922 
Q 2431 1156 2273 1281 
Q 2116 1406 1581 1522 
L 1381 1569 
Q 847 1681 609 1914 
Q 372 2147 372 2553 
Q 372 3047 722 3315 
Q 1072 3584 1716 3584 
Q 2034 3584 2315 3537 
Q 2597 3491 2834 3397 
z
" transform="scale(0.015625)"/>
       <path id="DejaVuSans-29" d="M 513 4856 
L 1013 4856 
Q 1481 4119 1714 3412 
Q 1947 2706 1947 2009 
Q 1947 1309 1714 600 
Q 1481 -109 1013 -844 
L 513 -844 
Q 928 -128 1133 580 
Q 1338 1288 1338 2009 
Q 1338 2731 1133 3434 
Q 928 4138 513 4856 
z
" transform="scale(0.015625)"/>
      </defs>
      <use xlink:href="#DejaVuSans-54"/>
      <use xlink:href="#DejaVuSans-69" transform="translate(57.958984 0)"/>
      <use xlink:href="#DejaVuSans-6d" transform="translate(85.742188 0)"/>
      <use xlink:href="#DejaVuSans-65" transform="translate(183.154297 0)"/>
      <use xlink:href="#DejaVuSans-20" transform="translate(244.677734 0)"/>
      <use xlink:href="#DejaVuSans-28" transform="translate(276.464844 0)"/>
      <use xlink:href="#DejaVuSans-6d" transform="translate(315.478516 0)"/>
      <use xlink:href="#DejaVuSans-69" transform="translate(412.890625 0)"/>
      <use xlink:href="#DejaVuSans-6e" transform="translate(440.673828 0)"/>
      <use xlink:href="#DejaVuSans-75" transform="translate(504.052734 0)"/>
      <use xlink:href="#DejaVuSans-74" transform="translate(567.431641 0)"/>
      <use xlink:href="#DejaVuSans-65" transform="translate(606.640625 0)"/>
      <use xlink:href="#DejaVuSans-73" transform="translate(668.164062 0)"/>
      <use xlink:href="#DejaVuSans-29" transform="translate(720.263672 0)"/>
     </g>
    </g>
   </g>
   <g id="matplotlib.axis_2">
    <g id="ytick_1">
     <g id="line2d_17">
      <path d="M 47.81 289.95741 
L 450 289.95741 
" clip-path="url(#pfbdb355f44)" style="fill: none; stroke: #b0b0b0; stroke-opacity: 0.3; stroke-width: 0.8; stroke-linecap: square"/>
     </g>
     <g id="line2d_18">
      <defs>
       <path id="mdb795b3847" d="M 0 0 
L -3.5 0 
" style="stroke: #000000; stroke-width: 0.8"/>
      </defs>
      <g>
       <use xlink:href="#mdb795b3847" x="47.81" y="289.95741" style="stroke: #000000; stroke-width: 0.8"/>
      </g>
     </g>
     <g id="text_10">
      <!-- 0.0 -->
      <g transform="translate(24.906875 293.756629) scale(0.1 -0.1)">
       <defs>
        <path id="DejaVuSans-2e" d="M 684 794 
L 1344 794 
L 1344 0 
L 684 0 
L 684 794 
z
" transform="scale(0.015625)"/>
       </defs>
       <use xlink:href="#DejaVuSans-30"/>
       <use xlink:href="#DejaVuSans-2e" transform="translate(63.623047 0)"/>
       <use xlink:href="#DejaVuSans-30" transform="translate(95.410156 0)"/>
      </g>
     </g>
    </g>
    <g id="ytick_2">
     <g id="line2d_19">
      <path d="M 47.81 240.390576 
L 450 240.390576 
" clip-path="url(#pfbdb355f44)" style="fill: none; stroke: #b0b0b0; stroke-opacity: 0.3; stroke-width: 0.8; stroke-linecap: square"/>
     </g>
     <g id="line2d_20">
      <g>
       <use xlink:href="#mdb795b3847" x="47.81" y="240.390576" style="stroke: #000000; stroke-width: 0.8"/>
      </g>
     </g>
     <g id="text_11">
      <!-- 0.1 -->
      <g transform="translate(24.906875 244.189795) scale(0.1 -0.1)">
       <use xlink:href="#DejaVuSans-30"/>
       <use xlink:href="#DejaVuSans-2e" transform="translate(63.623047 0)"/>
       <use xlink:href="#DejaVuSans-31" transform="translate(95.410156 0)"/>
      </g>
     </g>
    </g>
    <g id="ytick_3">
     <g id="line2d_21">
      <path d="M 47.81 190.823742 
L 450 190.823742 
" clip-path="url(#pfbdb355f44)" style="fill: none; stroke: #b0b0b0; stroke-opacity: 0.3; stroke-width: 0.8; stroke-linecap: square"/>
     </g>
     <g id="line2d_22">
      <g>
       <use xlink:href="#mdb795b3847" x="47.81" y="190.823742" style="stroke: #000000; stroke-width: 0.8"/>
      </g>
     </g>
     <g id="text_12">
      <!-- 0.2 -->
      <g transform="translate(24.906875 194.622961) scale(0.1 -0.1)">
       <use xlink:href="#DejaVuSans-30"/>
       <use xlink:href="#DejaVuSans-2e" transform="translate(63.623047 0)"/>
       <use xlink:href="#DejaVuSans-32" transform="translate(95.410156 0)"/>
      </g>
     </g>
    </g>
    <g id="ytick_4">
     <g id="line2d_23">
      <path d="M 47.81 141.256907 
L 450 141.256907 
" clip-path="url(#pfbdb355f44)" style="fill: none; stroke: #b0b0b0; stroke-opacity: 0.3; stroke-width: 0.8; stroke-linecap: square"/>
     </g>
     <g id="line2d_24">
      <g>
       <use xlink:href="#mdb795b3847" x="47.81" y="141.256907" style="stroke: #000000; stroke-width: 0.8"/>
      </g>
     </g>
     <g id="text_13">
      <!-- 0.3 -->
      <g transform="translate(24.906875 145.056126) scale(0.1 -0.1)">
       <defs>
        <path id="DejaVuSans-33" d="M 2597 2516 
Q 3050 2419 3304 2112 
Q 3559 1806 3559 1356 
Q 3559 666 3084 287 
Q 2609 -91 1734 -91 
Q 1441 -91 1130 -33 
Q 819 25 488 141 
L 488 750 
Q 750 597 1062 519 
Q 1375 441 1716 441 
Q 2309 441 2620 675 
Q 2931 909 2931 1356 
Q 2931 1769 2642 2001 
Q 2353 2234 1838 2234 
L 1294 2234 
L 1294 2753 
L 1863 2753 
Q 2328 2753 2575 2939 
Q 2822 3125 2822 3475 
Q 2822 3834 2567 4026 
Q 2313 4219 1838 4219 
Q 1578 4219 1281 4162 
Q 984 4106 628 3988 
L 628 4550 
Q 988 4650 1302 4700 
Q 1616 4750 1894 4750 
Q 2613 4750 3031 4423 
Q 3450 4097 3450 3541 
Q 3450 3153 3228 2886 
Q 3006 2619 2597 2516 
z
" transform="scale(0.015625)"/>
       </defs>
       <use xlink:href="#DejaVuSans-30"/>
       <use xlink:href="#DejaVuSans-2e" transform="translate(63.623047 0)"/>
       <use xlink:href="#DejaVuSans-33" transform="translate(95.410156 0)"/>
      </g>
     </g>
    </g>
    <g id="ytick_5">
     <g id="line2d_25">
      <path d="M 47.81 91.690073 
L 450 91.690073 
" clip-path="url(#pfbdb355f44)" style="fill: none; stroke: #b0b0b0; stroke-opacity: 0.3; stroke-width: 0.8; stroke-linecap: square"/>
     </g>
     <g id="line2d_26">
      <g>
       <use xlink:href="#mdb795b3847" x="47.81" y="91.690073" style="stroke: #000000; stroke-width: 0.8"/>
      </g>
     </g>
     <g id="text_14">
      <!-- 0.4 -->
      <g transform="translate(24.906875 95.489292) scale(0.1 -0.1)">
       <use xlink:href="#DejaVuSans-30"/>
       <use xlink:href="#DejaVuSans-2e" transform="translate(63.623047 0)"/>
       <use xlink:href="#DejaVuSans-34" transform="translate(95.410156 0)"/>
      </g>
     </g>
    </g>
    <g id="ytick_6">
     <g id="line2d_27">
      <path d="M 47.81 42.123239 
L 450 42.123239 
" clip-path="url(#pfbdb355f44)" style="fill: none; stroke: #b0b0b0; stroke-opacity: 0.3; stroke-width: 0.8; stroke-linecap: square"/>
     </g>
     <g id="line2d_28">
      <g>
       <use xlink:href="#mdb795b3847" x="47.81" y="42.123239" style="stroke: #000000; stroke-width: 0.8"/>
      </g>
     </g>
     <g id="text_15">
      <!-- 0.5 -->
      <g transform="translate(24.906875 45.922458) scale(0.1 -0.1)">
       <defs>
        <path id="DejaVuSans-35" d="M 691 4666 
L 3169 4666 
L 3169 4134 
L 1269 4134 
L 1269 2991 
Q 1406 3038 1543 3061 
Q 1681 3084 1819 3084 
Q 2600 3084 3056 2656 
Q 3513 2228 3513 1497 
Q 3513 744 3044 326 
Q 2575 -91 1722 -91 
Q 1428 -91 1123 -41 
Q 819 9 494 109 
L 494 744 
Q 775 591 1075 516 
Q 1375 441 1709 441 
Q 2250 441 2565 725 
Q 2881 1009 2881 1497 
Q 2881 1984 2565 2268 
Q 2250 2553 1709 2553 
Q 1456 2553 1204 2497 
Q 953 2441 691 2322 
L 691 4666 
z
" transform="scale(0.015625)"/>
       </defs>
       <use xlink:href="#DejaVuSans-30"/>
       <use xlink:href="#DejaVuSans-2e" transform="translate(63.623047 0)"/>
       <use xlink:href="#DejaVuSans-35" transform="translate(95.410156 0)"/>
      </g>
     </g>
    </g>
    <g id="text_16">
     <!-- EDA signals (μS) -->
     <g transform="translate(18.827188 205.711875) rotate(-90) scale(0.1 -0.1)">
      <defs>
       <path id="DejaVuSans-45" d="M 628 4666 
L 3578 4666 
L 3578 4134 
L 1259 4134 
L 1259 2753 
L 3481 2753 
L 3481 2222 
L 1259 2222 
L 1259 531 
L 3634 531 
L 3634 0 
L 628 0 
L 628 4666 
z
" transform="scale(0.015625)"/>
       <path id="DejaVuSans-44" d="M 1259 4147 
L 1259 519 
L 2022 519 
Q 2988 519 3436 956 
Q 3884 1394 3884 2338 
Q 3884 3275 3436 3711 
Q 2988 4147 2022 4147 
L 1259 4147 
z
M 628 4666 
L 1925 4666 
Q 3281 4666 3915 4102 
Q 4550 3538 4550 2338 
Q 4550 1131 3912 565 
Q 3275 0 1925 0 
L 628 0 
L 628 4666 
z
" transform="scale(0.015625)"/>
       <path id="DejaVuSans-41" d="M 2188 4044 
L 1331 1722 
L 3047 1722 
L 2188 4044 
z
M 1831 4666 
L 2547 4666 
L 4325 0 
L 3669 0 
L 3244 1197 
L 1141 1197 
L 716 0 
L 50 0 
L 1831 4666 
z
" transform="scale(0.015625)"/>
       <path id="DejaVuSans-67" d="M 2906 1791 
Q 2906 2416 2648 2759 
Q 2391 3103 1925 3103 
Q 1463 3103 1205 2759 
Q 947 2416 947 1791 
Q 947 1169 1205 825 
Q 1463 481 1925 481 
Q 2391 481 2648 825 
Q 2906 1169 2906 1791 
z
M 3481 434 
Q 3481 -459 3084 -895 
Q 2688 -1331 1869 -1331 
Q 1566 -1331 1297 -1286 
Q 1028 -1241 775 -1147 
L 775 -588 
Q 1028 -725 1275 -790 
Q 1522 -856 1778 -856 
Q 2344 -856 2625 -561 
Q 2906 -266 2906 331 
L 2906 616 
Q 2728 306 2450 153 
Q 2172 0 1784 0 
Q 1141 0 747 490 
Q 353 981 353 1791 
Q 353 2603 747 3093 
Q 1141 3584 1784 3584 
Q 2172 3584 2450 3431 
Q 2728 3278 2906 2969 
L 2906 3500 
L 3481 3500 
L 3481 434 
z
" transform="scale(0.015625)"/>
       <path id="DejaVuSans-61" d="M 2194 1759 
Q 1497 1759 1228 1600 
Q 959 1441 959 1056 
Q 959 750 1161 570 
Q 1363 391 1709 391 
Q 2188 391 2477 730 
Q 2766 1069 2766 1631 
L 2766 1759 
L 2194 1759 
z
M 3341 1997 
L 3341 0 
L 2766 0 
L 2766 531 
Q 2569 213 2275 61 
Q 1981 -91 1556 -91 
Q 1019 -91 701 211 
Q 384 513 384 1019 
Q 384 1609 779 1909 
Q 1175 2209 1959 2209 
L 2766 2209 
L 2766 2266 
Q 2766 2663 2505 2880 
Q 2244 3097 1772 3097 
Q 1472 3097 1187 3025 
Q 903 2953 641 2809 
L 641 3341 
Q 956 3463 1253 3523 
Q 1550 3584 1831 3584 
Q 2591 3584 2966 3190 
Q 3341 2797 3341 1997 
z
" transform="scale(0.015625)"/>
       <path id="DejaVuSans-6c" d="M 603 4863 
L 1178 4863 
L 1178 0 
L 603 0 
L 603 4863 
z
" transform="scale(0.015625)"/>
       <path id="DejaVuSans-3bc" d="M 544 -1331 
L 544 3500 
L 1119 3500 
L 1119 1325 
Q 1119 872 1334 640 
Q 1550 409 1972 409 
Q 2434 409 2667 671 
Q 2900 934 2900 1459 
L 2900 3500 
L 3475 3500 
L 3475 806 
Q 3475 619 3529 530 
Q 3584 441 3700 441 
Q 3728 441 3778 458 
Q 3828 475 3916 513 
L 3916 50 
Q 3788 -22 3673 -56 
Q 3559 -91 3450 -91 
Q 3234 -91 3106 31 
Q 2978 153 2931 403 
Q 2775 156 2548 32 
Q 2322 -91 2016 -91 
Q 1697 -91 1473 31 
Q 1250 153 1119 397 
L 1119 -1331 
L 544 -1331 
z
" transform="scale(0.015625)"/>
       <path id="DejaVuSans-53" d="M 3425 4513 
L 3425 3897 
Q 3066 4069 2747 4153 
Q 2428 4238 2131 4238 
Q 1616 4238 1336 4038 
Q 1056 3838 1056 3469 
Q 1056 3159 1242 3001 
Q 1428 2844 1947 2747 
L 2328 2669 
Q 3034 2534 3370 2195 
Q 3706 1856 3706 1288 
Q 3706 609 3251 259 
Q 2797 -91 1919 -91 
Q 1588 -91 1214 -16 
Q 841 59 441 206 
L 441 856 
Q 825 641 1194 531 
Q 1563 422 1919 422 
Q 2459 422 2753 634 
Q 3047 847 3047 1241 
Q 3047 1584 2836 1778 
Q 2625 1972 2144 2069 
L 1759 2144 
Q 1053 2284 737 2584 
Q 422 2884 422 3419 
Q 422 4038 858 4394 
Q 1294 4750 2059 4750 
Q 2388 4750 2728 4690 
Q 3069 4631 3425 4513 
z
" transform="scale(0.015625)"/>
      </defs>
      <use xlink:href="#DejaVuSans-45"/>
      <use xlink:href="#DejaVuSans-44" transform="translate(63.183594 0)"/>
      <use xlink:href="#DejaVuSans-41" transform="translate(138.435547 0)"/>
      <use xlink:href="#DejaVuSans-20" transform="translate(206.84375 0)"/>
      <use xlink:href="#DejaVuSans-73" transform="translate(238.630859 0)"/>
      <use xlink:href="#DejaVuSans-69" transform="translate(290.730469 0)"/>
      <use xlink:href="#DejaVuSans-67" transform="translate(318.513672 0)"/>
      <use xlink:href="#DejaVuSans-6e" transform="translate(381.990234 0)"/>
      <use xlink:href="#DejaVuSans-61" transform="translate(445.369141 0)"/>
      <use xlink:href="#DejaVuSans-6c" transform="translate(506.648438 0)"/>
      <use xlink:href="#DejaVuSans-73" transform="translate(534.431641 0)"/>
      <use xlink:href="#DejaVuSans-20" transform="translate(586.53125 0)"/>
      <use xlink:href="#DejaVuSans-28" transform="translate(618.318359 0)"/>
      <use xlink:href="#DejaVuSans-3bc" transform="translate(657.332031 0)"/>
      <use xlink:href="#DejaVuSans-53" transform="translate(720.955078 0)"/>
      <use xlink:href="#DejaVuSans-29" transform="translate(784.431641 0)"/>
     </g>
    </g>
   </g>
   <g id="line2d_29">
    <path d="M 66.091364 123.84583 
L 67.209179 134.105471 
L 67.717277 137.076514 
L 68.123755 138.414343 
L 68.428614 138.884371 
L 68.733473 139.012595 
L 69.139951 138.877554 
L 69.749669 138.627905 
L 70.054528 138.68913 
L 70.359386 138.940551 
L 70.765865 139.574726 
L 71.375582 141.005639 
L 72.899876 144.762943 
L 73.611213 145.911422 
L 74.42417 146.822301 
L 75.745224 147.913959 
L 76.964659 148.668131 
L 77.879236 148.988955 
L 78.793812 149.077141 
L 79.708388 148.932054 
L 81.74078 148.44627 
L 82.350497 148.631335 
L 83.061835 149.124337 
L 84.07803 150.178681 
L 85.297466 151.42212 
L 85.703944 151.540768 
L 86.008803 151.398138 
L 86.313661 150.981893 
L 86.72014 149.897928 
L 87.126618 148.127423 
L 87.736336 144.201251 
L 88.650912 136.412086 
L 89.768727 127.227366 
L 90.480064 123.204784 
L 91.089782 121.077109 
L 91.699499 119.80357 
L 92.715695 117.918026 
L 93.223793 116.340119 
L 93.833511 113.526638 
L 94.748087 107.912535 
L 95.662663 102.756972 
L 96.170761 101.00355 
L 96.57724 100.32125 
L 96.882098 100.196603 
L 97.186957 100.344524 
L 97.593435 100.848238 
L 98.609631 102.682932 
L 99.320968 103.70021 
L 99.829066 104.0383 
L 100.235545 104.030998 
L 100.642023 103.793568 
L 101.251741 103.132268 
L 102.979274 101.08378 
L 104.097089 100.199934 
L 105.316524 99.508708 
L 109.584547 97.700243 
L 110.499123 97.544665 
L 111.31208 97.658302 
L 113.852569 98.33046 
L 114.970385 98.100307 
L 115.884961 98.015576 
L 116.596298 98.168261 
L 117.714114 98.678443 
L 119.949745 99.695704 
L 121.880517 100.387642 
L 122.896713 100.504754 
L 125.030724 100.653426 
L 125.9453 100.976124 
L 126.859876 101.520384 
L 128.079311 102.535938 
L 130.111703 104.233356 
L 133.566769 106.746981 
L 134.887824 107.92414 
L 135.192683 107.968521 
L 135.497541 107.799354 
L 135.8024 107.350473 
L 136.208878 106.236732 
L 136.716976 104.003662 
L 137.631553 98.575503 
L 138.444509 94.378976 
L 138.952607 92.852772 
L 139.359086 92.29851 
L 139.663944 92.214421 
L 139.968803 92.35182 
L 140.476901 92.916935 
L 141.289858 94.251136 
L 143.017391 97.594317 
L 144.643304 100.660242 
L 146.878935 104.437674 
L 148.301609 107.058593 
L 149.317805 108.443593 
L 150.334001 109.519356 
L 151.045338 109.992853 
L 151.655056 110.1279 
L 152.264773 110.027699 
L 154.093926 109.511921 
L 154.703643 109.62795 
L 155.5166 110.04467 
L 156.634415 110.916058 
L 158.361948 112.572798 
L 160.800818 115.253582 
L 162.325112 116.809554 
L 163.239688 117.438107 
L 164.255884 117.855267 
L 165.780178 118.221397 
L 166.389896 118.170677 
L 166.897994 117.877992 
L 167.406092 117.255244 
L 168.015809 116.047999 
L 170.048201 111.447953 
L 170.556299 110.947242 
L 171.064397 110.75918 
L 171.674114 110.816714 
L 172.995169 111.290124 
L 174.824321 112.071296 
L 179.803681 114.847978 
L 181.023116 115.740674 
L 182.140932 116.863002 
L 184.478182 119.346891 
L 186.104095 120.607269 
L 187.120291 121.541907 
L 187.831628 122.505538 
L 188.441346 123.679769 
L 189.051063 125.376273 
L 189.559161 127.430592 
L 190.067259 130.336352 
L 190.676977 135.208949 
L 191.489934 143.769814 
L 192.810988 157.614124 
L 193.420706 161.881752 
L 194.030423 164.628306 
L 194.538521 166.05389 
L 195.046619 166.926028 
L 195.453097 167.281987 
L 195.757956 167.33711 
L 196.062815 167.183038 
L 196.367674 166.789097 
L 196.774152 165.844472 
L 197.28225 163.954311 
L 197.993587 160.164634 
L 200.127598 147.86192 
L 201.143794 143.816153 
L 202.363229 139.953352 
L 204.090762 135.305876 
L 205.411817 132.326418 
L 206.428013 130.543475 
L 207.342589 129.385581 
L 208.155546 128.71566 
L 209.273361 128.130725 
L 210.899275 127.501395 
L 211.610612 127.441321 
L 212.321949 127.614188 
L 212.931666 127.978753 
L 213.643003 128.696307 
L 214.659199 130.151691 
L 215.472156 131.166828 
L 215.980254 131.488749 
L 216.488352 131.564423 
L 217.707787 131.602961 
L 218.215885 131.902823 
L 218.825602 132.529398 
L 219.841798 133.957103 
L 220.959614 135.917149 
L 222.483907 138.668461 
L 222.992005 139.11433 
L 223.398484 139.200588 
L 223.804962 139.076792 
L 224.516299 138.569319 
L 225.430875 137.96554 
L 225.938973 137.856228 
L 226.447071 137.944498 
L 227.056789 138.270261 
L 228.174604 139.193242 
L 230.613474 141.212191 
L 232.849105 142.835394 
L 234.27178 143.560827 
L 235.694454 144.329769 
L 237.015508 145.357351 
L 239.0479 146.956103 
L 240.064096 147.471119 
L 241.181911 147.767539 
L 244.02726 148.196174 
L 244.636977 147.961837 
L 245.246695 147.464963 
L 246.059652 146.469808 
L 247.787185 144.263911 
L 248.600141 143.657814 
L 249.413098 143.347835 
L 250.327674 143.241346 
L 251.34387 143.345896 
L 253.376262 143.871225 
L 255.611893 144.581784 
L 256.628089 144.839479 
L 257.237806 144.78233 
L 257.745904 144.499956 
L 258.254002 143.917596 
L 258.7621 142.980436 
L 259.473437 141.10763 
L 261.30259 135.877782 
L 261.912307 134.89468 
L 262.420405 134.454136 
L 262.928503 134.293449 
L 263.53822 134.34962 
L 268.6192 135.75215 
L 269.432157 136.352054 
L 270.346733 137.328735 
L 272.480744 139.763397 
L 273.192081 140.161168 
L 274.005038 140.307901 
L 274.817995 140.452436 
L 275.326093 140.778352 
L 275.732571 141.286889 
L 276.240669 142.336812 
L 276.850386 144.273942 
L 277.764963 148.20685 
L 278.882778 152.873035 
L 279.695735 155.27062 
L 280.711931 157.437117 
L 282.337844 160.42371 
L 282.744322 160.815507 
L 283.049181 160.873942 
L 283.35404 160.68943 
L 283.760518 160.048555 
L 284.268616 158.691512 
L 285.284812 155.053205 
L 286.199388 152.071945 
L 286.707486 150.971689 
L 287.113965 150.525028 
L 287.418823 150.47885 
L 287.723682 150.677946 
L 288.13016 151.268995 
L 290.060933 154.699263 
L 290.569031 154.946086 
L 291.178748 154.961507 
L 292.194944 154.703408 
L 294.837053 153.881399 
L 295.54839 154.026276 
L 296.869445 154.446486 
L 297.174304 154.311697 
L 297.479162 153.973437 
L 297.885641 153.128905 
L 298.393739 151.388917 
L 299.105076 147.933668 
L 300.42613 141.290526 
L 301.137468 138.886631 
L 301.747185 137.536665 
L 302.458522 136.510046 
L 303.373098 135.627632 
L 304.999012 134.448859 
L 309.063795 131.831213 
L 310.48647 131.328991 
L 312.010763 130.762899 
L 312.620481 130.3059 
L 313.230198 129.591034 
L 314.246394 127.964367 
L 316.177166 124.533675 
L 316.685264 122.727792 
L 317.193362 119.956857 
L 317.80308 115.291641 
L 319.937091 97.386977 
L 320.648428 93.892532 
L 321.969483 88.820413 
L 322.68082 86.617241 
L 323.188918 85.676142 
L 323.595396 85.401373 
L 323.900255 85.451183 
L 324.306733 85.772062 
L 326.542364 88.060304 
L 327.863419 88.625253 
L 328.574756 89.104467 
L 329.489332 90.101471 
L 329.99743 90.520364 
L 330.302289 90.545684 
L 330.607148 90.310865 
L 330.912006 89.764486 
L 331.318485 88.521009 
L 331.928202 85.677444 
L 333.147637 78.333169 
L 334.062214 73.528995 
L 334.671931 71.500112 
L 335.078409 70.782796 
L 335.484888 70.507135 
L 335.891366 70.51935 
L 336.602703 70.600587 
L 336.907562 70.430213 
L 337.212421 70.036047 
L 337.618899 69.088572 
L 338.126997 67.17048 
L 338.736715 63.842994 
L 339.549671 58.026788 
L 341.886922 40.095602 
L 342.2934 38.622982 
L 342.598259 38.13277 
L 342.801498 38.093491 
L 343.004737 38.265297 
L 343.309596 38.860724 
L 343.817694 40.473797 
L 345.341988 45.723381 
L 345.951705 47.033868 
L 346.459803 47.714448 
L 346.866282 47.984332 
L 347.27276 47.997911 
L 347.679238 47.749388 
L 348.187336 47.091299 
L 348.898673 45.674378 
L 350.727826 41.715277 
L 351.235924 41.196141 
L 351.540783 41.116536 
L 351.845641 41.223672 
L 352.25212 41.642687 
L 352.760218 42.526809 
L 353.776413 44.87364 
L 355.097468 47.775558 
L 356.113664 49.497472 
L 357.333099 51.090658 
L 359.263871 53.622678 
L 360.381687 54.912497 
L 362.414078 56.961786 
L 362.922176 57.979197 
L 363.430274 59.557782 
L 363.938372 61.958664 
L 364.54809 66.208991 
L 365.259427 73.047866 
L 368.206395 104.324905 
L 369.120971 110.433396 
L 369.832308 113.816672 
L 370.238786 114.907743 
L 370.543645 115.155767 
L 370.746884 115.009127 
L 371.051743 114.304362 
L 371.458221 112.532062 
L 372.169559 108.033085 
L 373.084135 102.548653 
L 374.30357 95.969036 
L 374.811668 91.40347 
L 375.523005 82.595737 
L 376.74244 67.021003 
L 377.352158 61.902027 
L 377.860255 59.286281 
L 378.368353 57.816753 
L 378.876451 57.037913 
L 379.791028 55.917643 
L 380.197506 55.01638 
L 380.705604 53.200949 
L 381.315321 49.91649 
L 383.042854 39.341098 
L 383.449333 38.333504 
L 383.652572 38.216062 
L 383.855811 38.377506 
L 384.16067 39.16403 
L 384.567148 41.249589 
L 385.075246 45.476398 
L 385.684964 52.589012 
L 386.802779 68.822037 
L 390.257845 119.670293 
L 391.172421 130.069581 
L 391.883758 136.03124 
L 392.493476 139.321897 
L 392.899954 140.544158 
L 393.306433 141.080357 
L 393.611291 141.123542 
L 394.01777 140.855797 
L 395.745303 139.199511 
L 396.253401 139.169804 
L 396.659879 139.353029 
L 397.066357 139.745924 
L 397.574455 140.601013 
L 398.082553 141.955939 
L 398.692271 144.319347 
L 399.606847 149.003333 
L 400.623043 153.920105 
L 401.131141 155.448056 
L 401.537619 156.075906 
L 401.842478 156.228314 
L 402.147337 156.164358 
L 402.655435 155.762002 
L 403.77325 154.777366 
L 404.789446 154.309143 
L 405.704022 153.763478 
L 406.923457 152.973066 
L 407.533175 152.882166 
L 408.142892 153.036656 
L 409.565566 153.492661 
L 410.175284 153.371638 
L 410.785002 152.980472 
L 411.699578 152.036386 
L 412.410915 151.413721 
L 412.817393 151.343304 
L 413.122252 151.527419 
L 413.427111 151.979761 
L 413.833589 153.103724 
L 414.240067 154.952369 
L 414.748165 158.459683 
L 415.357883 164.463059 
L 416.882177 180.942045 
L 417.288655 182.789912 
L 417.491894 183.037993 
L 417.695133 182.850287 
L 417.999992 181.859385 
L 418.50809 178.975891 
L 419.321047 174.355965 
L 419.727525 173.223549 
L 419.930764 173.045047 
L 420.134003 173.110449 
L 420.438862 173.600758 
L 420.94696 175.123837 
L 422.064776 178.681985 
L 422.471254 179.279107 
L 422.776113 179.360279 
L 423.080971 179.120751 
L 423.48745 178.349976 
L 424.097167 176.506173 
L 425.214983 172.984397 
L 425.723081 172.087653 
L 426.129559 171.795865 
L 426.536037 171.80446 
L 427.755472 172.135001 
L 428.161951 171.896013 
L 428.670049 171.242831 
L 429.584625 169.508289 
L 430.397582 168.11312 
L 431.007299 167.435191 
L 431.617017 167.057227 
L 431.718636 167.016272 
L 431.718636 167.016272 
" clip-path="url(#pfbdb355f44)" style="fill: none; stroke-dasharray: 1.85,0.8; stroke-dashoffset: 0; stroke: #1f77b4; stroke-width: 0.5"/>
   </g>
   <g id="line2d_30">
    <path d="M 66.091364 127.168066 
L 67.00594 132.068944 
L 67.920516 135.767769 
L 68.835092 138.513109 
L 69.749669 140.553528 
L 70.765865 142.288712 
L 71.9853 143.915779 
L 73.712833 145.780142 
L 76.659801 148.68746 
L 77.472757 149.145643 
L 78.184094 149.285192 
L 78.793812 149.173569 
L 79.708388 148.748332 
L 80.927823 148.205517 
L 81.537541 148.161067 
L 82.045639 148.333569 
L 82.553737 148.754501 
L 83.265074 149.694768 
L 84.484509 151.331394 
L 84.992607 151.668198 
L 85.399085 151.660156 
L 85.703944 151.448485 
L 86.110422 150.838573 
L 86.516901 149.793021 
L 87.024998 147.848664 
L 87.736336 144.174391 
L 88.854151 137.030864 
L 90.683304 125.338583 
L 91.59788 120.935499 
L 92.614076 117.153828 
L 93.731891 113.931107 
L 95.256185 110.306701 
L 96.780479 107.188159 
L 97.898294 105.378704 
L 98.812871 104.295152 
L 99.727447 103.576305 
L 100.946882 102.952061 
L 102.674415 102.079668 
L 103.690611 101.273158 
L 106.840818 98.567697 
L 107.755394 98.172113 
L 108.87321 97.955193 
L 110.499123 97.91628 
L 114.868765 98.055942 
L 116.393059 98.427905 
L 126.961496 101.775095 
L 128.587409 102.559951 
L 129.603605 103.311619 
L 130.518182 104.286328 
L 131.432758 105.636023 
L 133.26191 108.551967 
L 133.770008 108.987835 
L 134.176487 109.103377 
L 134.582965 108.96201 
L 134.989443 108.51789 
L 135.395922 107.727057 
L 136.005639 105.940288 
L 136.920216 102.400909 
L 138.546129 95.971745 
L 139.155846 94.310564 
L 139.663944 93.508961 
L 140.070423 93.245965 
L 140.476901 93.274058 
L 140.883379 93.551547 
L 141.391477 94.185607 
L 142.102814 95.463473 
L 145.862739 102.956172 
L 148.09837 106.51573 
L 149.521044 108.459229 
L 150.53724 109.484675 
L 151.350197 109.986694 
L 152.061534 110.150937 
L 152.97611 110.08777 
L 155.008502 109.822886 
L 155.719839 110.008653 
L 156.431176 110.44274 
L 157.345752 111.287549 
L 158.768427 112.976429 
L 161.004058 115.625148 
L 162.325112 116.853342 
L 163.442928 117.606789 
L 164.357504 117.983454 
L 165.170461 118.091504 
L 165.881798 117.974257 
L 166.593135 117.627899 
L 167.304472 117.02242 
L 168.015809 116.129821 
L 169.133624 114.29431 
L 170.657918 111.813473 
L 171.369255 111.016035 
L 171.877353 110.698872 
L 172.385451 110.622992 
L 172.995169 110.793798 
L 173.706506 111.24998 
L 176.450235 113.289866 
L 177.56805 113.555091 
L 178.889105 113.895982 
L 179.600442 114.300021 
L 180.311779 114.978523 
L 181.327975 116.338896 
L 183.055508 118.700135 
L 183.766845 119.31767 
L 184.376562 119.542877 
L 186.205715 119.873584 
L 186.713813 120.389093 
L 187.221911 121.305624 
L 187.730009 122.739336 
L 188.339726 125.298274 
L 189.051063 129.401448 
L 190.067259 136.711818 
L 193.014227 158.876355 
L 193.928804 163.671281 
L 194.640141 166.217726 
L 195.148239 167.294316 
L 195.554717 167.660574 
L 195.859576 167.624794 
L 196.164435 167.307381 
L 196.570913 166.439026 
L 197.079011 164.730761 
L 197.790348 161.443462 
L 199.009783 154.463365 
L 200.432457 146.55667 
L 201.347033 142.70957 
L 202.26161 139.743181 
L 203.277806 137.162644 
L 204.903719 133.748203 
L 206.529632 130.728191 
L 207.647448 129.097567 
L 208.460405 128.249255 
L 209.273361 127.730944 
L 209.984698 127.522246 
L 210.797655 127.522828 
L 211.712231 127.774167 
L 212.830047 128.351445 
L 214.151101 129.302087 
L 215.878634 130.836752 
L 218.927222 133.888376 
L 221.77257 137.061662 
L 223.195245 138.491632 
L 224.109821 139.143409 
L 224.922778 139.457081 
L 225.837354 139.524159 
L 228.479463 139.493938 
L 229.1908 139.798594 
L 230.105376 140.455204 
L 231.832909 142.063325 
L 233.153964 143.154555 
L 234.475019 143.912821 
L 237.218748 145.370514 
L 241.283531 148.044374 
L 242.198107 148.243732 
L 243.112684 148.208942 
L 244.02726 147.929184 
L 244.941836 147.393636 
L 245.958032 146.516076 
L 249.209859 143.486726 
L 250.124435 143.07249 
L 250.937392 142.944476 
L 251.750348 143.041875 
L 252.563305 143.36406 
L 253.477881 143.990484 
L 255.408654 145.454723 
L 256.018371 145.625563 
L 256.526469 145.552251 
L 257.034567 145.230125 
L 257.542665 144.618966 
L 258.254002 143.348935 
L 259.371817 140.77629 
L 260.997731 137.065525 
L 261.709068 135.920097 
L 262.420405 135.156019 
L 263.131742 134.70857 
L 263.843079 134.512312 
L 264.656036 134.511654 
L 265.875471 134.759151 
L 267.196526 135.234175 
L 268.51758 135.951677 
L 269.838635 136.945808 
L 275.630951 142.035599 
L 276.240669 143.0433 
L 276.850386 144.446403 
L 277.561723 146.717455 
L 278.4763 150.621003 
L 280.407072 159.208381 
L 281.016789 161.044087 
L 281.524887 161.937549 
L 281.829746 162.140817 
L 282.134605 162.110689 
L 282.541083 161.759024 
L 283.049181 160.918283 
L 283.760518 159.239942 
L 285.488051 154.908201 
L 286.097769 154.023478 
L 286.605867 153.634931 
L 287.113965 153.498471 
L 287.723682 153.581761 
L 288.638258 153.99286 
L 289.857693 154.5236 
L 290.67065 154.602994 
L 291.890085 154.463002 
L 293.312759 154.337633 
L 294.125716 154.485385 
L 295.65001 154.839598 
L 296.259727 154.696891 
L 296.767825 154.329543 
L 297.275923 153.666825 
L 297.784021 152.64355 
L 298.393739 150.894602 
L 299.308315 147.505692 
L 301.645565 138.460167 
L 302.356903 136.680752 
L 302.96662 135.669887 
L 303.576338 135.024301 
L 304.287675 134.593095 
L 305.50711 134.20006 
L 306.421686 133.778315 
L 307.539501 132.963907 
L 309.571893 131.432952 
L 310.38485 131.084472 
L 312.92534 130.289948 
L 313.535057 129.76562 
L 314.144775 128.963855 
L 314.856112 127.598538 
L 315.567449 125.722036 
L 316.380406 122.893452 
L 317.193362 119.270496 
L 318.107939 114.161011 
L 319.327374 105.821883 
L 321.156526 93.308283 
L 321.969483 89.122116 
L 322.5792 86.989779 
L 323.087298 85.896783 
L 323.493777 85.415872 
L 323.900255 85.242282 
L 324.306733 85.336832 
L 324.713212 85.660345 
L 325.322929 86.489212 
L 326.135886 88.030061 
L 328.066658 91.858684 
L 328.676376 92.536151 
L 329.082854 92.707884 
L 329.387713 92.657216 
L 329.794191 92.313685 
L 330.200669 91.61283 
L 330.708767 90.18416 
L 331.420104 87.33926 
L 332.741159 80.785791 
L 333.858974 75.64395 
L 334.570312 73.369719 
L 335.180029 72.203789 
L 335.891366 71.36397 
L 336.805942 70.328098 
L 337.31404 69.412183 
L 337.822138 68.019309 
L 338.330236 65.964901 
L 338.939954 62.439101 
L 339.95615 54.828138 
L 341.480443 43.518341 
L 342.090161 40.432111 
L 342.496639 39.189931 
L 342.801498 38.767284 
L 343.004737 38.711547 
L 343.309596 38.924913 
L 343.716074 39.675407 
L 344.224172 41.173154 
L 345.443607 45.802904 
L 346.154944 48.05946 
L 346.561423 48.847215 
L 346.866282 49.109237 
L 347.17114 49.107201 
L 347.475999 48.876947 
L 347.882477 48.276881 
L 348.492195 46.921352 
L 350.524587 41.907063 
L 351.032685 41.373147 
L 351.439163 41.268004 
L 351.845641 41.41343 
L 352.353739 41.89745 
L 352.963457 42.836727 
L 353.878033 44.747495 
L 356.825001 51.338296 
L 357.739577 52.779704 
L 358.450914 53.536756 
L 359.060632 53.880999 
L 360.991404 54.587364 
L 361.499502 55.237282 
L 362.0076 56.307959 
L 362.515698 57.917022 
L 363.125415 60.717082 
L 363.836752 65.17119 
L 364.852948 73.223336 
L 366.478862 88.328356 
L 368.206395 103.913368 
L 369.120971 110.308546 
L 369.730689 113.325167 
L 370.238786 114.87324 
L 370.543645 115.318393 
L 370.746884 115.395094 
L 370.950124 115.285365 
L 371.254982 114.762509 
L 371.661461 113.455287 
L 372.169559 110.982633 
L 372.880896 106.308556 
L 374.100331 96.442669 
L 375.624625 84.362442 
L 377.047299 75.137558 
L 381.823419 46.836873 
L 382.433137 44.904173 
L 382.839615 44.231624 
L 383.144474 44.103313 
L 383.347713 44.212907 
L 383.652572 44.671607 
L 384.05905 45.824629 
L 384.567148 48.119005 
L 385.176866 52.092217 
L 385.888203 58.357997 
L 386.701159 67.589276 
L 387.717355 82.048577 
L 390.664323 126.909143 
L 391.37566 133.865406 
L 391.985378 137.592174 
L 392.493476 139.373161 
L 392.899954 140.119654 
L 393.306433 140.408627 
L 393.712911 140.374302 
L 394.322628 140.010242 
L 395.033966 139.652177 
L 395.338824 139.688479 
L 395.745303 140.022367 
L 396.253401 140.85408 
L 396.863118 142.33333 
L 397.777694 145.191397 
L 399.810086 151.70296 
L 400.724662 153.731826 
L 401.537619 155.001448 
L 402.248956 155.736168 
L 402.960293 156.150512 
L 403.570011 156.272918 
L 404.281348 156.174831 
L 405.094305 155.802746 
L 406.110501 155.053713 
L 408.041273 153.248533 
L 408.955849 152.582341 
L 409.565566 152.42123 
L 410.073664 152.546577 
L 410.480143 152.859318 
L 410.988241 153.565452 
L 411.496339 154.676958 
L 412.106056 156.606279 
L 412.919013 160.034352 
L 414.138448 166.317813 
L 416.374079 177.930534 
L 417.390275 181.948881 
L 418.203231 184.269111 
L 418.812949 185.387716 
L 419.321047 185.861172 
L 419.727525 185.912953 
L 420.134003 185.663748 
L 420.642101 184.985636 
L 421.251819 183.754513 
L 422.268015 181.099073 
L 423.792309 177.113901 
L 424.605265 175.633111 
L 425.418222 174.585029 
L 426.739277 173.318331 
L 427.857092 172.149479 
L 428.771668 170.839883 
L 431.718636 166.264508 
L 431.718636 166.264508 
" clip-path="url(#pfbdb355f44)" style="fill: none; stroke: #ff7f0e; stroke-width: 0.5; stroke-linecap: square"/>
   </g>
   <g id="line2d_31">
    <path d="M 66.091364 289.95741 
L 66.192983 289.95741 
L 66.294603 286.017042 
L 66.599462 290.023061 
L 66.802701 290.797364 
L 67.00594 290.994545 
L 67.310799 290.891368 
L 68.428614 290.24339 
L 69.139951 289.918783 
L 69.749669 288.338366 
L 70.156147 287.71373 
L 70.461006 287.515994 
L 70.867484 287.530843 
L 71.172343 287.949675 
L 71.88368 289.009919 
L 72.493398 289.500815 
L 73.204735 289.766261 
L 74.32255 289.909099 
L 77.066279 289.955707 
L 83.265074 289.884477 
L 83.671552 289.665113 
L 84.28127 289.746884 
L 85.602324 289.911661 
L 87.837955 289.954359 
L 88.041194 289.695394 
L 89.260629 287.082518 
L 89.667108 286.650648 
L 90.175206 286.577283 
L 90.581684 287.452981 
L 91.191402 288.671775 
L 91.699499 289.257484 
L 92.309217 289.625151 
L 93.122174 289.835137 
L 93.833511 289.906399 
L 93.93513 289.79983 
L 94.443228 287.953939 
L 95.561044 283.849163 
L 95.967522 283.073553 
L 96.272381 282.88028 
L 96.57724 283.017874 
L 96.882098 283.444863 
L 97.491816 284.989142 
L 98.203153 287.589072 
L 98.711251 288.664411 
L 99.219349 289.261544 
L 99.829066 289.628336 
L 100.642023 289.836433 
L 101.963078 289.932846 
L 102.267936 289.759655 
L 102.979274 289.486553 
L 103.588991 289.488763 
L 104.910046 289.846396 
L 106.535959 289.942289 
L 113.75095 289.957391 
L 131.229519 289.921375 
L 133.160291 288.205303 
L 133.46515 288.062142 
L 133.770008 288.367953 
L 134.582965 289.286325 
L 135.192683 289.635156 
L 136.005639 289.838453 
L 137.326694 289.933546 
L 137.529933 289.628675 
L 138.038031 288.735547 
L 138.444509 288.338952 
L 138.749368 288.204343 
L 139.054227 288.476593 
L 139.867184 289.329539 
L 140.476901 289.655755 
L 141.391477 289.859122 
L 143.11901 289.945679 
L 152.163154 289.957354 
L 168.320668 289.909258 
L 169.133624 289.170802 
L 169.743342 288.929875 
L 171.674114 289.828898 
L 173.096788 289.935055 
L 178.177768 289.957332 
L 181.429594 289.892737 
L 182.242551 289.572474 
L 182.750649 289.476948 
L 184.681421 289.898408 
L 187.120291 289.954459 
L 187.730009 289.87706 
L 188.339726 288.419079 
L 189.96564 284.009326 
L 190.270499 283.749869 
L 190.473738 283.757402 
L 190.880216 284.10048 
L 191.286694 285.673307 
L 191.896412 287.768533 
L 192.40451 288.766874 
L 192.912608 289.317411 
L 193.522325 289.654869 
L 194.436902 289.859273 
L 196.164435 289.945674 
L 198.196826 289.928679 
L 198.603305 289.744688 
L 199.416261 289.835086 
L 201.042175 289.939844 
L 204.802099 289.917734 
L 205.411817 289.891521 
L 208.968502 289.956378 
L 216.99645 289.877943 
L 217.606167 289.304777 
L 218.215885 289.01762 
L 218.927222 288.985991 
L 219.3337 289.209442 
L 220.146657 289.650911 
L 221.061233 289.856423 
L 222.687147 289.943742 
L 224.21144 289.89352 
L 224.922778 289.060748 
L 225.532495 288.663509 
L 226.142213 288.589295 
L 226.447071 288.743808 
L 227.463267 289.541249 
L 228.276224 289.802252 
L 229.597279 289.926837 
L 233.560442 289.957121 
L 253.985979 289.884964 
L 254.900556 289.433622 
L 255.611893 289.328423 
L 257.034567 289.820993 
L 258.457241 289.933575 
L 260.692872 289.938381 
L 261.709068 289.486583 
L 262.420405 289.685979 
L 263.436601 289.875105 
L 265.367373 289.94972 
L 274.208277 289.933697 
L 275.224473 289.416618 
L 277.968202 289.931559 
L 279.289256 289.930434 
L 279.492496 289.603265 
L 280.610311 287.602387 
L 281.118409 287.109439 
L 281.321648 287.189175 
L 281.931366 288.324396 
L 282.541083 289.149329 
L 283.150801 289.571776 
L 283.963757 289.815293 
L 285.284812 289.928912 
L 285.488051 289.678289 
L 286.707486 287.644526 
L 287.113965 287.29056 
L 287.520443 287.227975 
L 287.723682 287.284847 
L 288.13016 287.97893 
L 288.739878 288.942067 
L 289.349595 289.468893 
L 290.060933 289.75298 
L 291.178748 289.90575 
L 293.719238 289.954389 
L 294.024096 289.81127 
L 294.837053 289.44278 
L 297.377543 289.926232 
L 299.105076 289.89404 
L 299.816413 288.969027 
L 300.324511 288.606711 
L 300.62937 288.77403 
L 301.543946 289.50288 
L 302.255283 289.764896 
L 303.373098 289.908633 
L 306.116827 289.95567 
L 313.026959 289.90499 
L 313.839916 289.569209 
L 315.872308 289.915455 
L 317.599841 289.952291 
L 317.70146 289.846498 
L 319.124134 286.154773 
L 319.428993 285.927993 
L 319.632232 285.950502 
L 320.038711 286.324207 
L 321.156526 288.811706 
L 321.664624 289.33781 
L 322.274342 289.663923 
L 323.188918 289.862158 
L 324.916451 289.946053 
L 326.237505 289.897638 
L 328.371517 286.93544 
L 328.879615 286.925543 
L 329.387713 287.956737 
L 329.99743 288.953115 
L 330.607148 289.476577 
L 331.318485 289.756448 
L 332.4363 289.906634 
L 333.046018 289.91373 
L 333.452496 289.469558 
L 334.163833 288.832236 
L 334.773551 288.598776 
L 335.484888 289.230752 
L 336.196225 289.641968 
L 337.110801 289.854272 
L 338.736715 289.943455 
L 340.464248 289.892298 
L 341.683683 289.112135 
L 343.411216 289.824651 
L 344.83389 289.934284 
L 345.850086 289.908909 
L 346.561423 289.225382 
L 346.866282 289.106223 
L 347.27276 289.294208 
L 348.187336 289.715569 
L 349.203532 289.887272 
L 351.337543 289.952314 
L 356.012044 289.891626 
L 357.231479 289.196896 
L 357.739577 289.078729 
L 359.263871 289.782797 
L 360.483306 289.918266 
L 362.210839 289.952535 
L 362.414078 289.681051 
L 363.430274 287.336848 
L 364.039992 286.1782 
L 364.44647 285.846323 
L 364.751329 285.894094 
L 365.056188 286.064436 
L 365.462666 287.081545 
L 366.072383 288.482685 
L 366.580481 289.154711 
L 367.190199 289.576391 
L 368.003156 289.817195 
L 369.32421 289.929835 
L 370.746884 289.890724 
L 371.356602 288.818637 
L 372.169559 287.142854 
L 372.372798 287.291513 
L 373.693852 289.286035 
L 374.30357 289.638004 
L 375.116527 289.839686 
L 375.218146 289.61628 
L 376.234342 282.970731 
L 376.84406 279.894736 
L 377.250538 278.945838 
L 377.453777 278.830222 
L 377.657016 278.941588 
L 377.961875 279.486127 
L 378.469973 281.047759 
L 379.689408 287.437127 
L 380.197506 288.597045 
L 380.705604 289.227802 
L 381.315321 289.612773 
L 381.823419 289.772925 
L 381.925039 289.647485 
L 383.652572 283.807406 
L 384.05905 283.266031 
L 384.363909 283.236776 
L 384.567148 283.399222 
L 384.973627 284.037837 
L 386.091442 288.089766 
L 386.59954 288.947373 
L 387.107638 289.415376 
L 387.818975 289.731432 
L 388.631932 289.82998 
L 390.257845 288.10729 
L 390.765943 287.939207 
L 391.37566 288.760749 
L 391.985378 289.364691 
L 392.696715 289.707581 
L 393.712911 289.885757 
L 395.338824 289.94526 
L 395.542064 289.737766 
L 396.558259 288.014151 
L 397.574455 286.349494 
L 397.980934 286.024424 
L 398.387412 285.964693 
L 398.489032 285.936159 
L 398.692271 286.228941 
L 399.810086 288.784746 
L 400.318184 289.323311 
L 400.927902 289.657073 
L 401.842478 289.85994 
L 402.757054 289.866063 
L 403.468391 288.984981 
L 403.976489 288.680426 
L 404.586207 288.595243 
L 406.415359 288.722721 
L 407.533175 289.57383 
L 408.346131 289.814665 
L 409.667186 289.929294 
L 410.785002 289.933403 
L 410.988241 289.493416 
L 411.597958 287.456568 
L 412.614154 282.950396 
L 413.427111 279.706262 
L 413.833589 278.696944 
L 414.138448 278.361762 
L 414.341687 278.381122 
L 414.544926 278.615029 
L 414.849785 279.067248 
L 415.154644 281.048428 
L 415.865981 285.78087 
L 416.374079 287.682628 
L 416.882177 288.734044 
L 417.390275 289.302008 
L 417.796753 289.488431 
L 417.999992 288.342877 
L 419.422666 278.336776 
L 419.727525 277.572831 
L 419.930764 277.482222 
L 420.134003 277.707441 
L 420.438862 278.559929 
L 420.94696 280.926785 
L 421.759917 286.085163 
L 422.268015 287.849753 
L 422.776113 288.824146 
L 423.284211 289.350316 
L 423.893928 289.670751 
L 424.402026 289.74255 
L 425.519842 288.165339 
L 425.92632 288.047468 
L 426.434418 288.681739 
L 427.044135 289.315066 
L 427.653853 289.649652 
L 428.568429 289.857209 
L 430.194343 289.943861 
L 431.718636 289.955324 
L 431.718636 289.955324 
" clip-path="url(#pfbdb355f44)" style="fill: none; stroke: #2ca02c; stroke-width: 0.5; stroke-linecap: square"/>
   </g>
   <g id="patch_3">
    <path d="M 47.81 303.64 
L 47.81 25.44 
" style="fill: none; stroke: #000000; stroke-width: 0.8; stroke-linejoin: miter; stroke-linecap: square"/>
   </g>
   <g id="patch_4">
    <path d="M 450 303.64 
L 450 25.44 
" style="fill: none; stroke: #000000; stroke-width: 0.8; stroke-linejoin: miter; stroke-linecap: square"/>
   </g>
   <g id="patch_5">
    <path d="M 47.81 303.64 
L 450 303.64 
" style="fill: none; stroke: #000000; stroke-width: 0.8; stroke-linejoin: miter; stroke-linecap: square"/>
   </g>
   <g id="patch_6">
    <path d="M 47.81 25.44 
L 450 25.44 
" style="fill: none; stroke: #000000; stroke-width: 0.8; stroke-linejoin: miter; stroke-linecap: square"/>
   </g>
   <g id="text_17">
    <!-- cvxEDA (σ=3.4s  data_2_E4) -->
    <g transform="translate(163.25125 19.44) scale(0.12 -0.12)">
     <defs>
      <path id="DejaVuSans-63" d="M 3122 3366 
L 3122 2828 
Q 2878 2963 2633 3030 
Q 2388 3097 2138 3097 
Q 1578 3097 1268 2742 
Q 959 2388 959 1747 
Q 959 1106 1268 751 
Q 1578 397 2138 397 
Q 2388 397 2633 464 
Q 2878 531 3122 666 
L 3122 134 
Q 2881 22 2623 -34 
Q 2366 -91 2075 -91 
Q 1284 -91 818 406 
Q 353 903 353 1747 
Q 353 2603 823 3093 
Q 1294 3584 2113 3584 
Q 2378 3584 2631 3529 
Q 2884 3475 3122 3366 
z
" transform="scale(0.015625)"/>
      <path id="DejaVuSans-76" d="M 191 3500 
L 800 3500 
L 1894 563 
L 2988 3500 
L 3597 3500 
L 2284 0 
L 1503 0 
L 191 3500 
z
" transform="scale(0.015625)"/>
      <path id="DejaVuSans-78" d="M 3513 3500 
L 2247 1797 
L 3578 0 
L 2900 0 
L 1881 1375 
L 863 0 
L 184 0 
L 1544 1831 
L 300 3500 
L 978 3500 
L 1906 2253 
L 2834 3500 
L 3513 3500 
z
" transform="scale(0.015625)"/>
      <path id="DejaVuSans-3c3" d="M 1959 3044 
Q 1484 3044 1228 2700 
Q 959 2341 959 1747 
Q 959 1119 1226 758 
Q 1494 397 1959 397 
Q 2419 397 2687 759 
Q 2956 1122 2956 1747 
Q 2956 2319 2688 2700 
Q 2441 3044 1959 3044 
z
M 1959 3500 
L 3869 3500 
L 3869 2925 
L 3225 2925 
Q 3566 2438 3566 1747 
Q 3566 888 3138 400 
Q 2709 -91 1959 -91 
Q 1206 -91 781 400 
Q 353 888 353 1747 
Q 353 2613 781 3097 
Q 1134 3500 1959 3500 
z
" transform="scale(0.015625)"/>
      <path id="DejaVuSans-3d" d="M 678 2906 
L 4684 2906 
L 4684 2381 
L 678 2381 
L 678 2906 
z
M 678 1631 
L 4684 1631 
L 4684 1100 
L 678 1100 
L 678 1631 
z
" transform="scale(0.015625)"/>
      <path id="DejaVuSans-64" d="M 2906 2969 
L 2906 4863 
L 3481 4863 
L 3481 0 
L 2906 0 
L 2906 525 
Q 2725 213 2448 61 
Q 2172 -91 1784 -91 
Q 1150 -91 751 415 
Q 353 922 353 1747 
Q 353 2572 751 3078 
Q 1150 3584 1784 3584 
Q 2172 3584 2448 3432 
Q 2725 3281 2906 2969 
z
M 947 1747 
Q 947 1113 1208 752 
Q 1469 391 1925 391 
Q 2381 391 2643 752 
Q 2906 1113 2906 1747 
Q 2906 2381 2643 2742 
Q 2381 3103 1925 3103 
Q 1469 3103 1208 2742 
Q 947 2381 947 1747 
z
" transform="scale(0.015625)"/>
      <path id="DejaVuSans-5f" d="M 3263 -1063 
L 3263 -1509 
L -63 -1509 
L -63 -1063 
L 3263 -1063 
z
" transform="scale(0.015625)"/>
     </defs>
     <use xlink:href="#DejaVuSans-63"/>
     <use xlink:href="#DejaVuSans-76" transform="translate(54.980469 0)"/>
     <use xlink:href="#DejaVuSans-78" transform="translate(114.160156 0)"/>
     <use xlink:href="#DejaVuSans-45" transform="translate(173.339844 0)"/>
     <use xlink:href="#DejaVuSans-44" transform="translate(236.523438 0)"/>
     <use xlink:href="#DejaVuSans-41" transform="translate(311.775391 0)"/>
     <use xlink:href="#DejaVuSans-20" transform="translate(380.183594 0)"/>
     <use xlink:href="#DejaVuSans-28" transform="translate(411.970703 0)"/>
     <use xlink:href="#DejaVuSans-3c3" transform="translate(450.984375 0)"/>
     <use xlink:href="#DejaVuSans-3d" transform="translate(514.363281 0)"/>
     <use xlink:href="#DejaVuSans-33" transform="translate(598.152344 0)"/>
     <use xlink:href="#DejaVuSans-2e" transform="translate(661.775391 0)"/>
     <use xlink:href="#DejaVuSans-34" transform="translate(693.5625 0)"/>
     <use xlink:href="#DejaVuSans-73" transform="translate(757.185547 0)"/>
     <use xlink:href="#DejaVuSans-20" transform="translate(809.285156 0)"/>
     <use xlink:href="#DejaVuSans-20" transform="translate(841.072266 0)"/>
     <use xlink:href="#DejaVuSans-64" transform="translate(872.859375 0)"/>
     <use xlink:href="#DejaVuSans-61" transform="translate(936.335938 0)"/>
     <use xlink:href="#DejaVuSans-74" transform="translate(997.615234 0)"/>
     <use xlink:href="#DejaVuSans-61" transform="translate(1036.824219 0)"/>
     <use xlink:href="#DejaVuSans-5f" transform="translate(1098.103516 0)"/>
     <use xlink:href="#DejaVuSans-32" transform="translate(1148.103516 0)"/>
     <use xlink:href="#DejaVuSans-5f" transform="translate(1211.726562 0)"/>
     <use xlink:href="#DejaVuSans-45" transform="translate(1261.726562 0)"/>
     <use xlink:href="#DejaVuSans-34" transform="translate(1324.910156 0)"/>
     <use xlink:href="#DejaVuSans-29" transform="translate(1388.533203 0)"/>
    </g>
   </g>
   <g id="legend_1">
    <g id="patch_7">
     <path d="M 54.81 77.474375 
L 147.71625 77.474375 
Q 149.71625 77.474375 149.71625 75.474375 
L 149.71625 32.44 
Q 149.71625 30.44 147.71625 30.44 
L 54.81 30.44 
Q 52.81 30.44 52.81 32.44 
L 52.81 75.474375 
Q 52.81 77.474375 54.81 77.474375 
z
" style="fill: #ffffff; opacity: 0.8; stroke: #cccccc; stroke-linejoin: miter"/>
    </g>
    <g id="line2d_32">
     <path d="M 56.81 38.538437 
L 66.81 38.538437 
L 76.81 38.538437 
" style="fill: none; stroke-dasharray: 1.85,0.8; stroke-dashoffset: 0; stroke: #1f77b4; stroke-width: 0.5"/>
    </g>
    <g id="text_18">
     <!-- Filtered EDA -->
     <g transform="translate(84.81 42.038437) scale(0.1 -0.1)">
      <defs>
       <path id="DejaVuSans-46" d="M 628 4666 
L 3309 4666 
L 3309 4134 
L 1259 4134 
L 1259 2759 
L 3109 2759 
L 3109 2228 
L 1259 2228 
L 1259 0 
L 628 0 
L 628 4666 
z
" transform="scale(0.015625)"/>
       <path id="DejaVuSans-72" d="M 2631 2963 
Q 2534 3019 2420 3045 
Q 2306 3072 2169 3072 
Q 1681 3072 1420 2755 
Q 1159 2438 1159 1844 
L 1159 0 
L 581 0 
L 581 3500 
L 1159 3500 
L 1159 2956 
Q 1341 3275 1631 3429 
Q 1922 3584 2338 3584 
Q 2397 3584 2469 3576 
Q 2541 3569 2628 3553 
L 2631 2963 
z
" transform="scale(0.015625)"/>
      </defs>
      <use xlink:href="#DejaVuSans-46"/>
      <use xlink:href="#DejaVuSans-69" transform="translate(50.269531 0)"/>
      <use xlink:href="#DejaVuSans-6c" transform="translate(78.052734 0)"/>
      <use xlink:href="#DejaVuSans-74" transform="translate(105.835938 0)"/>
      <use xlink:href="#DejaVuSans-65" transform="translate(145.044922 0)"/>
      <use xlink:href="#DejaVuSans-72" transform="translate(206.568359 0)"/>
      <use xlink:href="#DejaVuSans-65" transform="translate(245.431641 0)"/>
      <use xlink:href="#DejaVuSans-64" transform="translate(306.955078 0)"/>
      <use xlink:href="#DejaVuSans-20" transform="translate(370.431641 0)"/>
      <use xlink:href="#DejaVuSans-45" transform="translate(402.21875 0)"/>
      <use xlink:href="#DejaVuSans-44" transform="translate(465.402344 0)"/>
      <use xlink:href="#DejaVuSans-41" transform="translate(540.654297 0)"/>
     </g>
    </g>
    <g id="line2d_33">
     <path d="M 56.81 53.216562 
L 66.81 53.216562 
L 76.81 53.216562 
" style="fill: none; stroke: #ff7f0e; stroke-width: 0.5; stroke-linecap: square"/>
    </g>
    <g id="text_19">
     <!-- Tonic -->
     <g transform="translate(84.81 56.716562) scale(0.1 -0.1)">
      <defs>
       <path id="DejaVuSans-6f" d="M 1959 3097 
Q 1497 3097 1228 2736 
Q 959 2375 959 1747 
Q 959 1119 1226 758 
Q 1494 397 1959 397 
Q 2419 397 2687 759 
Q 2956 1122 2956 1747 
Q 2956 2369 2687 2733 
Q 2419 3097 1959 3097 
z
M 1959 3584 
Q 2709 3584 3137 3096 
Q 3566 2609 3566 1747 
Q 3566 888 3137 398 
Q 2709 -91 1959 -91 
Q 1206 -91 779 398 
Q 353 888 353 1747 
Q 353 2609 779 3096 
Q 1206 3584 1959 3584 
z
" transform="scale(0.015625)"/>
      </defs>
      <use xlink:href="#DejaVuSans-54"/>
      <use xlink:href="#DejaVuSans-6f" transform="translate(44.083984 0)"/>
      <use xlink:href="#DejaVuSans-6e" transform="translate(105.265625 0)"/>
      <use xlink:href="#DejaVuSans-69" transform="translate(168.644531 0)"/>
      <use xlink:href="#DejaVuSans-63" transform="translate(196.427734 0)"/>
     </g>
    </g>
    <g id="line2d_34">
     <path d="M 56.81 67.894687 
L 66.81 67.894687 
L 76.81 67.894687 
" style="fill: none; stroke: #2ca02c; stroke-width: 0.5; stroke-linecap: square"/>
    </g>
    <g id="text_20">
     <!-- Phasic -->
     <g transform="translate(84.81 71.394687) scale(0.1 -0.1)">
      <defs>
       <path id="DejaVuSans-50" d="M 1259 4147 
L 1259 2394 
L 2053 2394 
Q 2494 2394 2734 2622 
Q 2975 2850 2975 3272 
Q 2975 3691 2734 3919 
Q 2494 4147 2053 4147 
L 1259 4147 
z
M 628 4666 
L 2053 4666 
Q 2838 4666 3239 4311 
Q 3641 3956 3641 3272 
Q 3641 2581 3239 2228 
Q 2838 1875 2053 1875 
L 1259 1875 
L 1259 0 
L 628 0 
L 628 4666 
z
" transform="scale(0.015625)"/>
       <path id="DejaVuSans-68" d="M 3513 2113 
L 3513 0 
L 2938 0 
L 2938 2094 
Q 2938 2591 2744 2837 
Q 2550 3084 2163 3084 
Q 1697 3084 1428 2787 
Q 1159 2491 1159 1978 
L 1159 0 
L 581 0 
L 581 4863 
L 1159 4863 
L 1159 2956 
Q 1366 3272 1645 3428 
Q 1925 3584 2291 3584 
Q 2894 3584 3203 3211 
Q 3513 2838 3513 2113 
z
" transform="scale(0.015625)"/>
      </defs>
      <use xlink:href="#DejaVuSans-50"/>
      <use xlink:href="#DejaVuSans-68" transform="translate(60.302734 0)"/>
      <use xlink:href="#DejaVuSans-61" transform="translate(123.681641 0)"/>
      <use xlink:href="#DejaVuSans-73" transform="translate(184.960938 0)"/>
      <use xlink:href="#DejaVuSans-69" transform="translate(237.060547 0)"/>
      <use xlink:href="#DejaVuSans-63" transform="translate(264.84375 0)"/>
     </g>
    </g>
   </g>
  </g>
 </g>
 <defs>
  <clipPath id="pfbdb355f44">
   <rect x="47.81" y="25.44" width="402.19" height="278.2"/>
  </clipPath>
 </defs>
</svg>
