<?xml version="1.0" encoding="utf-8" standalone="no"?>
<!DOCTYPE svg PUBLIC "-//W3C//DTD SVG 1.1//EN"
  "http://www.w3.org/Graphics/SVG/1.1/DTD/svg11.dtd">
<svg xmlns:xlink="http://www.w3.org/1999/xlink" width="460.8pt" height="345.6pt" viewBox="0 0 460.8 345.6" xmlns="http://www.w3.org/2000/svg" version="1.1">
 <metadata>
  <rdf:RDF xmlns:dc="http://purl.org/dc/elements/1.1/" xmlns:cc="http://creativecommons.org/ns#" xmlns:rdf="http://www.w3.org/1999/02/22-rdf-syntax-ns#">
   <cc:Work>
    <dc:type rdf:resource="http://purl.org/dc/dcmitype/StillImage"/>
    <dc:date>2025-09-22T15:39:43.518299</dc:date>
    <dc:format>image/svg+xml</dc:format>
    <dc:creator>
     <cc:Agent>
      <dc:title>Matplotlib v3.10.0, https://matplotlib.org/</dc:title>
     </cc:Agent>
    </dc:creator>
   </cc:Work>
  </rdf:RDF>
 </metadata>
 <defs>
  <style type="text/css">*{stroke-linejoin: round; stroke-linecap: butt}</style>
 </defs>
 <g id="figure_1">
  <g id="patch_1">
   <path d="M 0 345.6 
L 460.8 345.6 
L 460.8 0 
L 0 0 
z
" style="fill: #ffffff"/>
  </g>
  <g id="axes_1">
   <g id="patch_2">
    <path d="M 47.81 303.64 
L 450 303.64 
L 450 25.44 
L 47.81 25.44 
z
" style="fill: #ffffff"/>
   </g>
   <g id="matplotlib.axis_1">
    <g id="xtick_1">
     <g id="line2d_1">
      <path d="M 66.091364 303.64 
L 66.091364 25.44 
" clip-path="url(#p3ee7298371)" style="fill: none; stroke: #b0b0b0; stroke-opacity: 0.3; stroke-width: 0.8; stroke-linecap: square"/>
     </g>
     <g id="line2d_2">
      <defs>
       <path id="md10669cc8a" d="M 0 0 
L 0 3.5 
" style="stroke: #000000; stroke-width: 0.8"/>
      </defs>
      <g>
       <use xlink:href="#md10669cc8a" x="66.091364" y="303.64" style="stroke: #000000; stroke-width: 0.8"/>
      </g>
     </g>
     <g id="text_1">
      <!-- 0 -->
      <g transform="translate(62.910114 318.238437) scale(0.1 -0.1)">
       <defs>
        <path id="DejaVuSans-30" d="M 2034 4250 
Q 1547 4250 1301 3770 
Q 1056 3291 1056 2328 
Q 1056 1369 1301 889 
Q 1547 409 2034 409 
Q 2525 409 2770 889 
Q 3016 1369 3016 2328 
Q 3016 3291 2770 3770 
Q 2525 4250 2034 4250 
z
M 2034 4750 
Q 2819 4750 3233 4129 
Q 3647 3509 3647 2328 
Q 3647 1150 3233 529 
Q 2819 -91 2034 -91 
Q 1250 -91 836 529 
Q 422 1150 422 2328 
Q 422 3509 836 4129 
Q 1250 4750 2034 4750 
z
" transform="scale(0.015625)"/>
       </defs>
       <use xlink:href="#DejaVuSans-30"/>
      </g>
     </g>
    </g>
    <g id="xtick_2">
     <g id="line2d_3">
      <path d="M 114.841667 303.64 
L 114.841667 25.44 
" clip-path="url(#p3ee7298371)" style="fill: none; stroke: #b0b0b0; stroke-opacity: 0.3; stroke-width: 0.8; stroke-linecap: square"/>
     </g>
     <g id="line2d_4">
      <g>
       <use xlink:href="#md10669cc8a" x="114.841667" y="303.64" style="stroke: #000000; stroke-width: 0.8"/>
      </g>
     </g>
     <g id="text_2">
      <!-- 2 -->
      <g transform="translate(111.660417 318.238437) scale(0.1 -0.1)">
       <defs>
        <path id="DejaVuSans-32" d="M 1228 531 
L 3431 531 
L 3431 0 
L 469 0 
L 469 531 
Q 828 903 1448 1529 
Q 2069 2156 2228 2338 
Q 2531 2678 2651 2914 
Q 2772 3150 2772 3378 
Q 2772 3750 2511 3984 
Q 2250 4219 1831 4219 
Q 1534 4219 1204 4116 
Q 875 4013 500 3803 
L 500 4441 
Q 881 4594 1212 4672 
Q 1544 4750 1819 4750 
Q 2544 4750 2975 4387 
Q 3406 4025 3406 3419 
Q 3406 3131 3298 2873 
Q 3191 2616 2906 2266 
Q 2828 2175 2409 1742 
Q 1991 1309 1228 531 
z
" transform="scale(0.015625)"/>
       </defs>
       <use xlink:href="#DejaVuSans-32"/>
      </g>
     </g>
    </g>
    <g id="xtick_3">
     <g id="line2d_5">
      <path d="M 163.59197 303.64 
L 163.59197 25.44 
" clip-path="url(#p3ee7298371)" style="fill: none; stroke: #b0b0b0; stroke-opacity: 0.3; stroke-width: 0.8; stroke-linecap: square"/>
     </g>
     <g id="line2d_6">
      <g>
       <use xlink:href="#md10669cc8a" x="163.59197" y="303.64" style="stroke: #000000; stroke-width: 0.8"/>
      </g>
     </g>
     <g id="text_3">
      <!-- 4 -->
      <g transform="translate(160.41072 318.238437) scale(0.1 -0.1)">
       <defs>
        <path id="DejaVuSans-34" d="M 2419 4116 
L 825 1625 
L 2419 1625 
L 2419 4116 
z
M 2253 4666 
L 3047 4666 
L 3047 1625 
L 3713 1625 
L 3713 1100 
L 3047 1100 
L 3047 0 
L 2419 0 
L 2419 1100 
L 313 1100 
L 313 1709 
L 2253 4666 
z
" transform="scale(0.015625)"/>
       </defs>
       <use xlink:href="#DejaVuSans-34"/>
      </g>
     </g>
    </g>
    <g id="xtick_4">
     <g id="line2d_7">
      <path d="M 212.342273 303.64 
L 212.342273 25.44 
" clip-path="url(#p3ee7298371)" style="fill: none; stroke: #b0b0b0; stroke-opacity: 0.3; stroke-width: 0.8; stroke-linecap: square"/>
     </g>
     <g id="line2d_8">
      <g>
       <use xlink:href="#md10669cc8a" x="212.342273" y="303.64" style="stroke: #000000; stroke-width: 0.8"/>
      </g>
     </g>
     <g id="text_4">
      <!-- 6 -->
      <g transform="translate(209.161023 318.238437) scale(0.1 -0.1)">
       <defs>
        <path id="DejaVuSans-36" d="M 2113 2584 
Q 1688 2584 1439 2293 
Q 1191 2003 1191 1497 
Q 1191 994 1439 701 
Q 1688 409 2113 409 
Q 2538 409 2786 701 
Q 3034 994 3034 1497 
Q 3034 2003 2786 2293 
Q 2538 2584 2113 2584 
z
M 3366 4563 
L 3366 3988 
Q 3128 4100 2886 4159 
Q 2644 4219 2406 4219 
Q 1781 4219 1451 3797 
Q 1122 3375 1075 2522 
Q 1259 2794 1537 2939 
Q 1816 3084 2150 3084 
Q 2853 3084 3261 2657 
Q 3669 2231 3669 1497 
Q 3669 778 3244 343 
Q 2819 -91 2113 -91 
Q 1303 -91 875 529 
Q 447 1150 447 2328 
Q 447 3434 972 4092 
Q 1497 4750 2381 4750 
Q 2619 4750 2861 4703 
Q 3103 4656 3366 4563 
z
" transform="scale(0.015625)"/>
       </defs>
       <use xlink:href="#DejaVuSans-36"/>
      </g>
     </g>
    </g>
    <g id="xtick_5">
     <g id="line2d_9">
      <path d="M 261.092576 303.64 
L 261.092576 25.44 
" clip-path="url(#p3ee7298371)" style="fill: none; stroke: #b0b0b0; stroke-opacity: 0.3; stroke-width: 0.8; stroke-linecap: square"/>
     </g>
     <g id="line2d_10">
      <g>
       <use xlink:href="#md10669cc8a" x="261.092576" y="303.64" style="stroke: #000000; stroke-width: 0.8"/>
      </g>
     </g>
     <g id="text_5">
      <!-- 8 -->
      <g transform="translate(257.911326 318.238437) scale(0.1 -0.1)">
       <defs>
        <path id="DejaVuSans-38" d="M 2034 2216 
Q 1584 2216 1326 1975 
Q 1069 1734 1069 1313 
Q 1069 891 1326 650 
Q 1584 409 2034 409 
Q 2484 409 2743 651 
Q 3003 894 3003 1313 
Q 3003 1734 2745 1975 
Q 2488 2216 2034 2216 
z
M 1403 2484 
Q 997 2584 770 2862 
Q 544 3141 544 3541 
Q 544 4100 942 4425 
Q 1341 4750 2034 4750 
Q 2731 4750 3128 4425 
Q 3525 4100 3525 3541 
Q 3525 3141 3298 2862 
Q 3072 2584 2669 2484 
Q 3125 2378 3379 2068 
Q 3634 1759 3634 1313 
Q 3634 634 3220 271 
Q 2806 -91 2034 -91 
Q 1263 -91 848 271 
Q 434 634 434 1313 
Q 434 1759 690 2068 
Q 947 2378 1403 2484 
z
M 1172 3481 
Q 1172 3119 1398 2916 
Q 1625 2713 2034 2713 
Q 2441 2713 2670 2916 
Q 2900 3119 2900 3481 
Q 2900 3844 2670 4047 
Q 2441 4250 2034 4250 
Q 1625 4250 1398 4047 
Q 1172 3844 1172 3481 
z
" transform="scale(0.015625)"/>
       </defs>
       <use xlink:href="#DejaVuSans-38"/>
      </g>
     </g>
    </g>
    <g id="xtick_6">
     <g id="line2d_11">
      <path d="M 309.842879 303.64 
L 309.842879 25.44 
" clip-path="url(#p3ee7298371)" style="fill: none; stroke: #b0b0b0; stroke-opacity: 0.3; stroke-width: 0.8; stroke-linecap: square"/>
     </g>
     <g id="line2d_12">
      <g>
       <use xlink:href="#md10669cc8a" x="309.842879" y="303.64" style="stroke: #000000; stroke-width: 0.8"/>
      </g>
     </g>
     <g id="text_6">
      <!-- 10 -->
      <g transform="translate(303.480379 318.238437) scale(0.1 -0.1)">
       <defs>
        <path id="DejaVuSans-31" d="M 794 531 
L 1825 531 
L 1825 4091 
L 703 3866 
L 703 4441 
L 1819 4666 
L 2450 4666 
L 2450 531 
L 3481 531 
L 3481 0 
L 794 0 
L 794 531 
z
" transform="scale(0.015625)"/>
       </defs>
       <use xlink:href="#DejaVuSans-31"/>
       <use xlink:href="#DejaVuSans-30" transform="translate(63.623047 0)"/>
      </g>
     </g>
    </g>
    <g id="xtick_7">
     <g id="line2d_13">
      <path d="M 358.593182 303.64 
L 358.593182 25.44 
" clip-path="url(#p3ee7298371)" style="fill: none; stroke: #b0b0b0; stroke-opacity: 0.3; stroke-width: 0.8; stroke-linecap: square"/>
     </g>
     <g id="line2d_14">
      <g>
       <use xlink:href="#md10669cc8a" x="358.593182" y="303.64" style="stroke: #000000; stroke-width: 0.8"/>
      </g>
     </g>
     <g id="text_7">
      <!-- 12 -->
      <g transform="translate(352.230682 318.238437) scale(0.1 -0.1)">
       <use xlink:href="#DejaVuSans-31"/>
       <use xlink:href="#DejaVuSans-32" transform="translate(63.623047 0)"/>
      </g>
     </g>
    </g>
    <g id="xtick_8">
     <g id="line2d_15">
      <path d="M 407.343485 303.64 
L 407.343485 25.44 
" clip-path="url(#p3ee7298371)" style="fill: none; stroke: #b0b0b0; stroke-opacity: 0.3; stroke-width: 0.8; stroke-linecap: square"/>
     </g>
     <g id="line2d_16">
      <g>
       <use xlink:href="#md10669cc8a" x="407.343485" y="303.64" style="stroke: #000000; stroke-width: 0.8"/>
      </g>
     </g>
     <g id="text_8">
      <!-- 14 -->
      <g transform="translate(400.980985 318.238437) scale(0.1 -0.1)">
       <use xlink:href="#DejaVuSans-31"/>
       <use xlink:href="#DejaVuSans-34" transform="translate(63.623047 0)"/>
      </g>
     </g>
    </g>
    <g id="text_9">
     <!-- Time (minutes) -->
     <g transform="translate(210.9425 331.916562) scale(0.1 -0.1)">
      <defs>
       <path id="DejaVuSans-54" d="M -19 4666 
L 3928 4666 
L 3928 4134 
L 2272 4134 
L 2272 0 
L 1638 0 
L 1638 4134 
L -19 4134 
L -19 4666 
z
" transform="scale(0.015625)"/>
       <path id="DejaVuSans-69" d="M 603 3500 
L 1178 3500 
L 1178 0 
L 603 0 
L 603 3500 
z
M 603 4863 
L 1178 4863 
L 1178 4134 
L 603 4134 
L 603 4863 
z
" transform="scale(0.015625)"/>
       <path id="DejaVuSans-6d" d="M 3328 2828 
Q 3544 3216 3844 3400 
Q 4144 3584 4550 3584 
Q 5097 3584 5394 3201 
Q 5691 2819 5691 2113 
L 5691 0 
L 5113 0 
L 5113 2094 
Q 5113 2597 4934 2840 
Q 4756 3084 4391 3084 
Q 3944 3084 3684 2787 
Q 3425 2491 3425 1978 
L 3425 0 
L 2847 0 
L 2847 2094 
Q 2847 2600 2669 2842 
Q 2491 3084 2119 3084 
Q 1678 3084 1418 2786 
Q 1159 2488 1159 1978 
L 1159 0 
L 581 0 
L 581 3500 
L 1159 3500 
L 1159 2956 
Q 1356 3278 1631 3431 
Q 1906 3584 2284 3584 
Q 2666 3584 2933 3390 
Q 3200 3197 3328 2828 
z
" transform="scale(0.015625)"/>
       <path id="DejaVuSans-65" d="M 3597 1894 
L 3597 1613 
L 953 1613 
Q 991 1019 1311 708 
Q 1631 397 2203 397 
Q 2534 397 2845 478 
Q 3156 559 3463 722 
L 3463 178 
Q 3153 47 2828 -22 
Q 2503 -91 2169 -91 
Q 1331 -91 842 396 
Q 353 884 353 1716 
Q 353 2575 817 3079 
Q 1281 3584 2069 3584 
Q 2775 3584 3186 3129 
Q 3597 2675 3597 1894 
z
M 3022 2063 
Q 3016 2534 2758 2815 
Q 2500 3097 2075 3097 
Q 1594 3097 1305 2825 
Q 1016 2553 972 2059 
L 3022 2063 
z
" transform="scale(0.015625)"/>
       <path id="DejaVuSans-20" transform="scale(0.015625)"/>
       <path id="DejaVuSans-28" d="M 1984 4856 
Q 1566 4138 1362 3434 
Q 1159 2731 1159 2009 
Q 1159 1288 1364 580 
Q 1569 -128 1984 -844 
L 1484 -844 
Q 1016 -109 783 600 
Q 550 1309 550 2009 
Q 550 2706 781 3412 
Q 1013 4119 1484 4856 
L 1984 4856 
z
" transform="scale(0.015625)"/>
       <path id="DejaVuSans-6e" d="M 3513 2113 
L 3513 0 
L 2938 0 
L 2938 2094 
Q 2938 2591 2744 2837 
Q 2550 3084 2163 3084 
Q 1697 3084 1428 2787 
Q 1159 2491 1159 1978 
L 1159 0 
L 581 0 
L 581 3500 
L 1159 3500 
L 1159 2956 
Q 1366 3272 1645 3428 
Q 1925 3584 2291 3584 
Q 2894 3584 3203 3211 
Q 3513 2838 3513 2113 
z
" transform="scale(0.015625)"/>
       <path id="DejaVuSans-75" d="M 544 1381 
L 544 3500 
L 1119 3500 
L 1119 1403 
Q 1119 906 1312 657 
Q 1506 409 1894 409 
Q 2359 409 2629 706 
Q 2900 1003 2900 1516 
L 2900 3500 
L 3475 3500 
L 3475 0 
L 2900 0 
L 2900 538 
Q 2691 219 2414 64 
Q 2138 -91 1772 -91 
Q 1169 -91 856 284 
Q 544 659 544 1381 
z
M 1991 3584 
L 1991 3584 
z
" transform="scale(0.015625)"/>
       <path id="DejaVuSans-74" d="M 1172 4494 
L 1172 3500 
L 2356 3500 
L 2356 3053 
L 1172 3053 
L 1172 1153 
Q 1172 725 1289 603 
Q 1406 481 1766 481 
L 2356 481 
L 2356 0 
L 1766 0 
Q 1100 0 847 248 
Q 594 497 594 1153 
L 594 3053 
L 172 3053 
L 172 3500 
L 594 3500 
L 594 4494 
L 1172 4494 
z
" transform="scale(0.015625)"/>
       <path id="DejaVuSans-73" d="M 2834 3397 
L 2834 2853 
Q 2591 2978 2328 3040 
Q 2066 3103 1784 3103 
Q 1356 3103 1142 2972 
Q 928 2841 928 2578 
Q 928 2378 1081 2264 
Q 1234 2150 1697 2047 
L 1894 2003 
Q 2506 1872 2764 1633 
Q 3022 1394 3022 966 
Q 3022 478 2636 193 
Q 2250 -91 1575 -91 
Q 1294 -91 989 -36 
Q 684 19 347 128 
L 347 722 
Q 666 556 975 473 
Q 1284 391 1588 391 
Q 1994 391 2212 530 
Q 2431 669 2431 922 
Q 2431 1156 2273 1281 
Q 2116 1406 1581 1522 
L 1381 1569 
Q 847 1681 609 1914 
Q 372 2147 372 2553 
Q 372 3047 722 3315 
Q 1072 3584 1716 3584 
Q 2034 3584 2315 3537 
Q 2597 3491 2834 3397 
z
" transform="scale(0.015625)"/>
       <path id="DejaVuSans-29" d="M 513 4856 
L 1013 4856 
Q 1481 4119 1714 3412 
Q 1947 2706 1947 2009 
Q 1947 1309 1714 600 
Q 1481 -109 1013 -844 
L 513 -844 
Q 928 -128 1133 580 
Q 1338 1288 1338 2009 
Q 1338 2731 1133 3434 
Q 928 4138 513 4856 
z
" transform="scale(0.015625)"/>
      </defs>
      <use xlink:href="#DejaVuSans-54"/>
      <use xlink:href="#DejaVuSans-69" transform="translate(57.958984 0)"/>
      <use xlink:href="#DejaVuSans-6d" transform="translate(85.742188 0)"/>
      <use xlink:href="#DejaVuSans-65" transform="translate(183.154297 0)"/>
      <use xlink:href="#DejaVuSans-20" transform="translate(244.677734 0)"/>
      <use xlink:href="#DejaVuSans-28" transform="translate(276.464844 0)"/>
      <use xlink:href="#DejaVuSans-6d" transform="translate(315.478516 0)"/>
      <use xlink:href="#DejaVuSans-69" transform="translate(412.890625 0)"/>
      <use xlink:href="#DejaVuSans-6e" transform="translate(440.673828 0)"/>
      <use xlink:href="#DejaVuSans-75" transform="translate(504.052734 0)"/>
      <use xlink:href="#DejaVuSans-74" transform="translate(567.431641 0)"/>
      <use xlink:href="#DejaVuSans-65" transform="translate(606.640625 0)"/>
      <use xlink:href="#DejaVuSans-73" transform="translate(668.164062 0)"/>
      <use xlink:href="#DejaVuSans-29" transform="translate(720.263672 0)"/>
     </g>
    </g>
   </g>
   <g id="matplotlib.axis_2">
    <g id="ytick_1">
     <g id="line2d_17">
      <path d="M 47.81 290.713152 
L 450 290.713152 
" clip-path="url(#p3ee7298371)" style="fill: none; stroke: #b0b0b0; stroke-opacity: 0.3; stroke-width: 0.8; stroke-linecap: square"/>
     </g>
     <g id="line2d_18">
      <defs>
       <path id="m1844c905d8" d="M 0 0 
L -3.5 0 
" style="stroke: #000000; stroke-width: 0.8"/>
      </defs>
      <g>
       <use xlink:href="#m1844c905d8" x="47.81" y="290.713152" style="stroke: #000000; stroke-width: 0.8"/>
      </g>
     </g>
     <g id="text_10">
      <!-- 0.0 -->
      <g transform="translate(24.906875 294.512371) scale(0.1 -0.1)">
       <defs>
        <path id="DejaVuSans-2e" d="M 684 794 
L 1344 794 
L 1344 0 
L 684 0 
L 684 794 
z
" transform="scale(0.015625)"/>
       </defs>
       <use xlink:href="#DejaVuSans-30"/>
       <use xlink:href="#DejaVuSans-2e" transform="translate(63.623047 0)"/>
       <use xlink:href="#DejaVuSans-30" transform="translate(95.410156 0)"/>
      </g>
     </g>
    </g>
    <g id="ytick_2">
     <g id="line2d_19">
      <path d="M 47.81 240.677986 
L 450 240.677986 
" clip-path="url(#p3ee7298371)" style="fill: none; stroke: #b0b0b0; stroke-opacity: 0.3; stroke-width: 0.8; stroke-linecap: square"/>
     </g>
     <g id="line2d_20">
      <g>
       <use xlink:href="#m1844c905d8" x="47.81" y="240.677986" style="stroke: #000000; stroke-width: 0.8"/>
      </g>
     </g>
     <g id="text_11">
      <!-- 0.1 -->
      <g transform="translate(24.906875 244.477205) scale(0.1 -0.1)">
       <use xlink:href="#DejaVuSans-30"/>
       <use xlink:href="#DejaVuSans-2e" transform="translate(63.623047 0)"/>
       <use xlink:href="#DejaVuSans-31" transform="translate(95.410156 0)"/>
      </g>
     </g>
    </g>
    <g id="ytick_3">
     <g id="line2d_21">
      <path d="M 47.81 190.642821 
L 450 190.642821 
" clip-path="url(#p3ee7298371)" style="fill: none; stroke: #b0b0b0; stroke-opacity: 0.3; stroke-width: 0.8; stroke-linecap: square"/>
     </g>
     <g id="line2d_22">
      <g>
       <use xlink:href="#m1844c905d8" x="47.81" y="190.642821" style="stroke: #000000; stroke-width: 0.8"/>
      </g>
     </g>
     <g id="text_12">
      <!-- 0.2 -->
      <g transform="translate(24.906875 194.442039) scale(0.1 -0.1)">
       <use xlink:href="#DejaVuSans-30"/>
       <use xlink:href="#DejaVuSans-2e" transform="translate(63.623047 0)"/>
       <use xlink:href="#DejaVuSans-32" transform="translate(95.410156 0)"/>
      </g>
     </g>
    </g>
    <g id="ytick_4">
     <g id="line2d_23">
      <path d="M 47.81 140.607655 
L 450 140.607655 
" clip-path="url(#p3ee7298371)" style="fill: none; stroke: #b0b0b0; stroke-opacity: 0.3; stroke-width: 0.8; stroke-linecap: square"/>
     </g>
     <g id="line2d_24">
      <g>
       <use xlink:href="#m1844c905d8" x="47.81" y="140.607655" style="stroke: #000000; stroke-width: 0.8"/>
      </g>
     </g>
     <g id="text_13">
      <!-- 0.3 -->
      <g transform="translate(24.906875 144.406874) scale(0.1 -0.1)">
       <defs>
        <path id="DejaVuSans-33" d="M 2597 2516 
Q 3050 2419 3304 2112 
Q 3559 1806 3559 1356 
Q 3559 666 3084 287 
Q 2609 -91 1734 -91 
Q 1441 -91 1130 -33 
Q 819 25 488 141 
L 488 750 
Q 750 597 1062 519 
Q 1375 441 1716 441 
Q 2309 441 2620 675 
Q 2931 909 2931 1356 
Q 2931 1769 2642 2001 
Q 2353 2234 1838 2234 
L 1294 2234 
L 1294 2753 
L 1863 2753 
Q 2328 2753 2575 2939 
Q 2822 3125 2822 3475 
Q 2822 3834 2567 4026 
Q 2313 4219 1838 4219 
Q 1578 4219 1281 4162 
Q 984 4106 628 3988 
L 628 4550 
Q 988 4650 1302 4700 
Q 1616 4750 1894 4750 
Q 2613 4750 3031 4423 
Q 3450 4097 3450 3541 
Q 3450 3153 3228 2886 
Q 3006 2619 2597 2516 
z
" transform="scale(0.015625)"/>
       </defs>
       <use xlink:href="#DejaVuSans-30"/>
       <use xlink:href="#DejaVuSans-2e" transform="translate(63.623047 0)"/>
       <use xlink:href="#DejaVuSans-33" transform="translate(95.410156 0)"/>
      </g>
     </g>
    </g>
    <g id="ytick_5">
     <g id="line2d_25">
      <path d="M 47.81 90.572489 
L 450 90.572489 
" clip-path="url(#p3ee7298371)" style="fill: none; stroke: #b0b0b0; stroke-opacity: 0.3; stroke-width: 0.8; stroke-linecap: square"/>
     </g>
     <g id="line2d_26">
      <g>
       <use xlink:href="#m1844c905d8" x="47.81" y="90.572489" style="stroke: #000000; stroke-width: 0.8"/>
      </g>
     </g>
     <g id="text_14">
      <!-- 0.4 -->
      <g transform="translate(24.906875 94.371708) scale(0.1 -0.1)">
       <use xlink:href="#DejaVuSans-30"/>
       <use xlink:href="#DejaVuSans-2e" transform="translate(63.623047 0)"/>
       <use xlink:href="#DejaVuSans-34" transform="translate(95.410156 0)"/>
      </g>
     </g>
    </g>
    <g id="ytick_6">
     <g id="line2d_27">
      <path d="M 47.81 40.537324 
L 450 40.537324 
" clip-path="url(#p3ee7298371)" style="fill: none; stroke: #b0b0b0; stroke-opacity: 0.3; stroke-width: 0.8; stroke-linecap: square"/>
     </g>
     <g id="line2d_28">
      <g>
       <use xlink:href="#m1844c905d8" x="47.81" y="40.537324" style="stroke: #000000; stroke-width: 0.8"/>
      </g>
     </g>
     <g id="text_15">
      <!-- 0.5 -->
      <g transform="translate(24.906875 44.336542) scale(0.1 -0.1)">
       <defs>
        <path id="DejaVuSans-35" d="M 691 4666 
L 3169 4666 
L 3169 4134 
L 1269 4134 
L 1269 2991 
Q 1406 3038 1543 3061 
Q 1681 3084 1819 3084 
Q 2600 3084 3056 2656 
Q 3513 2228 3513 1497 
Q 3513 744 3044 326 
Q 2575 -91 1722 -91 
Q 1428 -91 1123 -41 
Q 819 9 494 109 
L 494 744 
Q 775 591 1075 516 
Q 1375 441 1709 441 
Q 2250 441 2565 725 
Q 2881 1009 2881 1497 
Q 2881 1984 2565 2268 
Q 2250 2553 1709 2553 
Q 1456 2553 1204 2497 
Q 953 2441 691 2322 
L 691 4666 
z
" transform="scale(0.015625)"/>
       </defs>
       <use xlink:href="#DejaVuSans-30"/>
       <use xlink:href="#DejaVuSans-2e" transform="translate(63.623047 0)"/>
       <use xlink:href="#DejaVuSans-35" transform="translate(95.410156 0)"/>
      </g>
     </g>
    </g>
    <g id="text_16">
     <!-- EDA signals (μS) -->
     <g transform="translate(18.827188 205.711875) rotate(-90) scale(0.1 -0.1)">
      <defs>
       <path id="DejaVuSans-45" d="M 628 4666 
L 3578 4666 
L 3578 4134 
L 1259 4134 
L 1259 2753 
L 3481 2753 
L 3481 2222 
L 1259 2222 
L 1259 531 
L 3634 531 
L 3634 0 
L 628 0 
L 628 4666 
z
" transform="scale(0.015625)"/>
       <path id="DejaVuSans-44" d="M 1259 4147 
L 1259 519 
L 2022 519 
Q 2988 519 3436 956 
Q 3884 1394 3884 2338 
Q 3884 3275 3436 3711 
Q 2988 4147 2022 4147 
L 1259 4147 
z
M 628 4666 
L 1925 4666 
Q 3281 4666 3915 4102 
Q 4550 3538 4550 2338 
Q 4550 1131 3912 565 
Q 3275 0 1925 0 
L 628 0 
L 628 4666 
z
" transform="scale(0.015625)"/>
       <path id="DejaVuSans-41" d="M 2188 4044 
L 1331 1722 
L 3047 1722 
L 2188 4044 
z
M 1831 4666 
L 2547 4666 
L 4325 0 
L 3669 0 
L 3244 1197 
L 1141 1197 
L 716 0 
L 50 0 
L 1831 4666 
z
" transform="scale(0.015625)"/>
       <path id="DejaVuSans-67" d="M 2906 1791 
Q 2906 2416 2648 2759 
Q 2391 3103 1925 3103 
Q 1463 3103 1205 2759 
Q 947 2416 947 1791 
Q 947 1169 1205 825 
Q 1463 481 1925 481 
Q 2391 481 2648 825 
Q 2906 1169 2906 1791 
z
M 3481 434 
Q 3481 -459 3084 -895 
Q 2688 -1331 1869 -1331 
Q 1566 -1331 1297 -1286 
Q 1028 -1241 775 -1147 
L 775 -588 
Q 1028 -725 1275 -790 
Q 1522 -856 1778 -856 
Q 2344 -856 2625 -561 
Q 2906 -266 2906 331 
L 2906 616 
Q 2728 306 2450 153 
Q 2172 0 1784 0 
Q 1141 0 747 490 
Q 353 981 353 1791 
Q 353 2603 747 3093 
Q 1141 3584 1784 3584 
Q 2172 3584 2450 3431 
Q 2728 3278 2906 2969 
L 2906 3500 
L 3481 3500 
L 3481 434 
z
" transform="scale(0.015625)"/>
       <path id="DejaVuSans-61" d="M 2194 1759 
Q 1497 1759 1228 1600 
Q 959 1441 959 1056 
Q 959 750 1161 570 
Q 1363 391 1709 391 
Q 2188 391 2477 730 
Q 2766 1069 2766 1631 
L 2766 1759 
L 2194 1759 
z
M 3341 1997 
L 3341 0 
L 2766 0 
L 2766 531 
Q 2569 213 2275 61 
Q 1981 -91 1556 -91 
Q 1019 -91 701 211 
Q 384 513 384 1019 
Q 384 1609 779 1909 
Q 1175 2209 1959 2209 
L 2766 2209 
L 2766 2266 
Q 2766 2663 2505 2880 
Q 2244 3097 1772 3097 
Q 1472 3097 1187 3025 
Q 903 2953 641 2809 
L 641 3341 
Q 956 3463 1253 3523 
Q 1550 3584 1831 3584 
Q 2591 3584 2966 3190 
Q 3341 2797 3341 1997 
z
" transform="scale(0.015625)"/>
       <path id="DejaVuSans-6c" d="M 603 4863 
L 1178 4863 
L 1178 0 
L 603 0 
L 603 4863 
z
" transform="scale(0.015625)"/>
       <path id="DejaVuSans-3bc" d="M 544 -1331 
L 544 3500 
L 1119 3500 
L 1119 1325 
Q 1119 872 1334 640 
Q 1550 409 1972 409 
Q 2434 409 2667 671 
Q 2900 934 2900 1459 
L 2900 3500 
L 3475 3500 
L 3475 806 
Q 3475 619 3529 530 
Q 3584 441 3700 441 
Q 3728 441 3778 458 
Q 3828 475 3916 513 
L 3916 50 
Q 3788 -22 3673 -56 
Q 3559 -91 3450 -91 
Q 3234 -91 3106 31 
Q 2978 153 2931 403 
Q 2775 156 2548 32 
Q 2322 -91 2016 -91 
Q 1697 -91 1473 31 
Q 1250 153 1119 397 
L 1119 -1331 
L 544 -1331 
z
" transform="scale(0.015625)"/>
       <path id="DejaVuSans-53" d="M 3425 4513 
L 3425 3897 
Q 3066 4069 2747 4153 
Q 2428 4238 2131 4238 
Q 1616 4238 1336 4038 
Q 1056 3838 1056 3469 
Q 1056 3159 1242 3001 
Q 1428 2844 1947 2747 
L 2328 2669 
Q 3034 2534 3370 2195 
Q 3706 1856 3706 1288 
Q 3706 609 3251 259 
Q 2797 -91 1919 -91 
Q 1588 -91 1214 -16 
Q 841 59 441 206 
L 441 856 
Q 825 641 1194 531 
Q 1563 422 1919 422 
Q 2459 422 2753 634 
Q 3047 847 3047 1241 
Q 3047 1584 2836 1778 
Q 2625 1972 2144 2069 
L 1759 2144 
Q 1053 2284 737 2584 
Q 422 2884 422 3419 
Q 422 4038 858 4394 
Q 1294 4750 2059 4750 
Q 2388 4750 2728 4690 
Q 3069 4631 3425 4513 
z
" transform="scale(0.015625)"/>
      </defs>
      <use xlink:href="#DejaVuSans-45"/>
      <use xlink:href="#DejaVuSans-44" transform="translate(63.183594 0)"/>
      <use xlink:href="#DejaVuSans-41" transform="translate(138.435547 0)"/>
      <use xlink:href="#DejaVuSans-20" transform="translate(206.84375 0)"/>
      <use xlink:href="#DejaVuSans-73" transform="translate(238.630859 0)"/>
      <use xlink:href="#DejaVuSans-69" transform="translate(290.730469 0)"/>
      <use xlink:href="#DejaVuSans-67" transform="translate(318.513672 0)"/>
      <use xlink:href="#DejaVuSans-6e" transform="translate(381.990234 0)"/>
      <use xlink:href="#DejaVuSans-61" transform="translate(445.369141 0)"/>
      <use xlink:href="#DejaVuSans-6c" transform="translate(506.648438 0)"/>
      <use xlink:href="#DejaVuSans-73" transform="translate(534.431641 0)"/>
      <use xlink:href="#DejaVuSans-20" transform="translate(586.53125 0)"/>
      <use xlink:href="#DejaVuSans-28" transform="translate(618.318359 0)"/>
      <use xlink:href="#DejaVuSans-3bc" transform="translate(657.332031 0)"/>
      <use xlink:href="#DejaVuSans-53" transform="translate(720.955078 0)"/>
      <use xlink:href="#DejaVuSans-29" transform="translate(784.431641 0)"/>
     </g>
    </g>
   </g>
   <g id="line2d_29">
    <path d="M 66.091364 123.208927 
L 67.310799 132.498491 
L 67.920516 135.5235 
L 68.428614 137.010874 
L 68.936712 137.770401 
L 69.54643 138.199401 
L 70.257767 138.736893 
L 70.765865 139.413081 
L 71.477202 140.785115 
L 73.407974 144.761292 
L 74.32255 145.986342 
L 75.338746 146.950721 
L 76.558181 147.788026 
L 77.574377 148.230355 
L 78.488953 148.397014 
L 79.505149 148.332566 
L 81.63916 148.043318 
L 82.350497 148.252617 
L 83.061835 148.699008 
L 85.195846 150.321179 
L 85.602324 150.235151 
L 85.907183 149.95325 
L 86.313661 149.207894 
L 86.72014 147.96821 
L 87.228238 145.667291 
L 87.939575 141.16433 
L 90.480064 123.450745 
L 91.191402 120.658581 
L 92.105978 118.128975 
L 92.918935 115.756817 
L 93.630272 112.912153 
L 94.646467 107.694927 
L 95.662663 102.824695 
L 96.272381 100.969919 
L 96.678859 100.312003 
L 96.983718 100.106855 
L 97.288577 100.114549 
L 97.695055 100.381582 
L 98.406392 101.233462 
L 99.320968 102.275674 
L 99.829066 102.558702 
L 100.337164 102.562657 
L 100.845262 102.310492 
L 101.556599 101.663585 
L 103.690611 99.537214 
L 104.910046 98.72853 
L 106.43434 98.015573 
L 109.889405 96.663402 
L 110.803982 96.615547 
L 111.820178 96.811673 
L 113.446091 97.167136 
L 114.563906 97.128577 
L 115.986581 97.090214 
L 116.901157 97.308631 
L 118.425451 97.968867 
L 120.96594 99.029721 
L 122.286995 99.362068 
L 125.843681 99.993685 
L 126.859876 100.578112 
L 128.180931 101.623174 
L 130.518182 103.484675 
L 133.36353 105.604291 
L 134.379726 106.308617 
L 134.786204 106.376818 
L 135.192683 106.19665 
L 135.599161 105.680194 
L 136.005639 104.765368 
L 136.513737 103.049377 
L 137.326694 99.339382 
L 138.444509 94.355308 
L 138.952607 92.888683 
L 139.359086 92.200636 
L 139.765564 91.92064 
L 140.070423 91.940907 
L 140.476901 92.210994 
L 141.086619 92.978564 
L 142.102814 94.748807 
L 145.6595 101.281459 
L 149.317805 107.363857 
L 150.232381 108.308602 
L 150.943718 108.777964 
L 151.655056 108.981275 
L 152.468012 108.93912 
L 154.195545 108.735493 
L 154.906882 108.910076 
L 155.719839 109.338252 
L 156.837655 110.208777 
L 158.463568 111.78499 
L 162.83321 116.206007 
L 163.849406 116.768423 
L 164.967221 117.12526 
L 165.780178 117.172458 
L 166.389896 116.980709 
L 166.897994 116.592584 
L 167.507711 115.799904 
L 168.320668 114.258669 
L 169.844962 111.238281 
L 170.454679 110.502112 
L 171.064397 110.127416 
L 171.674114 110.043437 
L 172.487071 110.200561 
L 174.011365 110.786806 
L 176.145376 111.862678 
L 179.295583 113.650361 
L 180.819877 114.75712 
L 182.140932 116.024591 
L 184.88466 118.788069 
L 186.917052 120.663899 
L 187.628389 121.674087 
L 188.238107 122.911417 
L 188.847824 124.695816 
L 189.457542 127.280412 
L 190.067259 130.908176 
L 190.778596 136.564352 
L 192.30289 151.358278 
L 193.217467 158.758781 
L 193.928804 162.66043 
L 194.538521 164.750564 
L 195.046619 165.734552 
L 195.453097 166.073641 
L 195.757956 166.071651 
L 196.062815 165.8452 
L 196.469293 165.183021 
L 196.977391 163.769839 
L 197.587109 161.279205 
L 198.501685 156.431043 
L 200.229218 147.244051 
L 201.245414 143.101478 
L 202.464849 139.120434 
L 203.989143 134.962834 
L 205.310197 131.956847 
L 206.326393 130.133302 
L 207.240969 128.913444 
L 208.155546 128.071131 
L 209.171742 127.448217 
L 210.391177 126.955934 
L 211.305753 126.810239 
L 212.01709 126.915315 
L 212.728427 127.26658 
L 213.439764 127.877775 
L 214.659199 129.302655 
L 215.573776 130.215826 
L 216.285113 130.619758 
L 218.317504 131.498865 
L 219.028842 132.229062 
L 219.943418 133.521297 
L 222.687147 137.783644 
L 223.195245 138.084752 
L 223.703343 138.13893 
L 224.31306 137.964125 
L 225.735734 137.434758 
L 226.345452 137.460921 
L 227.056789 137.741859 
L 227.971365 138.379183 
L 232.747486 142.089374 
L 234.779877 143.215799 
L 236.202552 144.130108 
L 239.860857 146.714017 
L 241.080292 147.127776 
L 242.909444 147.48009 
L 243.824021 147.459748 
L 244.535358 147.202266 
L 245.246695 146.675363 
L 246.161271 145.67475 
L 247.888804 143.718429 
L 248.701761 143.132762 
L 249.514718 142.808966 
L 250.429294 142.694104 
L 251.547109 142.802219 
L 253.376262 143.253459 
L 256.526469 144.039119 
L 257.136187 143.90301 
L 257.644284 143.572028 
L 258.152382 142.988031 
L 258.7621 141.921268 
L 259.575057 139.967742 
L 261.30259 135.619113 
L 262.013927 134.509344 
L 262.623644 133.987163 
L 263.233362 133.789902 
L 263.944699 133.825743 
L 265.875471 134.297408 
L 268.009482 134.869289 
L 268.924059 135.383874 
L 269.838635 136.171447 
L 271.566168 138.078305 
L 272.582364 138.990588 
L 273.39532 139.437247 
L 274.919614 140.177396 
L 275.427712 140.739272 
L 275.93581 141.626509 
L 276.545528 143.190888 
L 277.358484 146.028213 
L 279.390876 153.551423 
L 280.305452 155.944807 
L 281.321648 158.02013 
L 282.032985 159.106487 
L 282.541083 159.551301 
L 282.947562 159.615107 
L 283.25242 159.460919 
L 283.658899 158.971986 
L 284.166997 157.937096 
L 284.979953 155.613023 
L 286.199388 152.131767 
L 286.707486 151.207639 
L 287.113965 150.815991 
L 287.520443 150.749375 
L 287.926921 150.9789 
L 288.435019 151.576831 
L 290.060933 153.783946 
L 290.67065 154.162818 
L 291.280368 154.272295 
L 292.093324 154.155736 
L 294.938673 153.498026 
L 296.666206 153.485481 
L 297.072684 153.173827 
L 297.479162 152.58733 
L 297.98726 151.391842 
L 298.596978 149.281432 
L 299.714793 144.289083 
L 300.730989 140.106433 
L 301.442326 137.989087 
L 302.153663 136.53461 
L 302.865001 135.550305 
L 303.779577 134.663994 
L 305.40549 133.461717 
L 308.555697 131.399012 
L 309.978372 130.77046 
L 311.807524 129.980994 
L 312.620481 129.334378 
L 313.433438 128.373312 
L 314.551253 126.653147 
L 315.465829 124.87385 
L 316.075547 123.179195 
L 316.685264 120.706038 
L 317.294982 117.229258 
L 318.107939 111.190724 
L 319.835471 97.879273 
L 320.648428 93.339047 
L 321.563004 89.469265 
L 322.375961 86.883958 
L 322.985679 85.587342 
L 323.493777 85.011731 
L 323.900255 84.873794 
L 324.306733 84.97336 
L 324.916451 85.410564 
L 326.745603 86.922182 
L 329.794191 88.726408 
L 330.200669 88.593429 
L 330.607148 88.124971 
L 331.013626 87.254656 
L 331.521724 85.578257 
L 332.233061 82.312934 
L 334.163833 72.744162 
L 334.773551 70.909937 
L 335.281649 69.978405 
L 335.891366 69.356123 
L 336.704323 68.632166 
L 337.212421 67.782655 
L 337.720519 66.374802 
L 338.330236 63.815433 
L 339.041573 59.669546 
L 340.159389 51.443987 
L 341.378824 42.71943 
L 341.988541 39.749373 
L 342.39502 38.581392 
L 342.699878 38.159274 
L 343.004737 38.106832 
L 343.309596 38.38104 
L 343.716074 39.147961 
L 344.427411 41.115161 
L 345.545227 44.16853 
L 346.154944 45.274397 
L 346.663042 45.793277 
L 347.069521 45.93459 
L 347.475999 45.836534 
L 347.882477 45.513978 
L 348.492195 44.672889 
L 349.406771 42.917741 
L 350.524587 40.890704 
L 351.032685 40.347727 
L 351.439163 40.17526 
L 351.845641 40.257075 
L 352.25212 40.585768 
L 352.760218 41.294164 
L 353.573174 42.87737 
L 355.605566 47.018358 
L 356.825001 48.892504 
L 359.365491 52.209095 
L 360.889784 53.899326 
L 361.90598 55.132138 
L 362.515698 56.274123 
L 363.023796 57.693462 
L 363.531894 59.728149 
L 364.141611 63.195951 
L 364.852948 68.783666 
L 365.767525 77.960048 
L 367.799916 99.04925 
L 368.714493 106.070767 
L 369.42583 109.954248 
L 369.933928 111.678105 
L 370.340406 112.300428 
L 370.543645 112.337523 
L 370.746884 112.188829 
L 371.051743 111.627649 
L 371.458221 110.311567 
L 372.067939 107.446696 
L 373.388994 99.819672 
L 374.20195 94.140839 
L 374.913287 87.623526 
L 376.234342 72.700712 
L 377.047299 64.704861 
L 377.657016 60.455905 
L 378.266734 57.689466 
L 378.876451 55.942837 
L 380.197506 52.657978 
L 380.807223 50.291674 
L 381.62018 46.115521 
L 382.737996 40.496842 
L 383.144474 39.294036 
L 383.449333 38.8986 
L 383.652572 38.914301 
L 383.855811 39.170913 
L 384.16067 40.028321 
L 384.567148 42.071416 
L 385.075246 46.022368 
L 385.786583 53.779367 
L 386.802779 67.740139 
L 390.562704 121.496196 
L 391.47728 130.664697 
L 392.188617 135.59219 
L 392.696715 137.854732 
L 393.204813 139.153415 
L 393.611291 139.622884 
L 394.01777 139.718294 
L 394.525868 139.523007 
L 395.745303 138.893603 
L 396.253401 138.933512 
L 396.659879 139.182868 
L 397.167977 139.819293 
L 397.676075 140.867207 
L 398.285792 142.70601 
L 399.098749 146.013247 
L 400.623043 152.510855 
L 401.23276 154.144169 
L 401.740858 154.872134 
L 402.147337 155.087059 
L 402.553815 155.058921 
L 403.163533 154.757965 
L 406.415359 152.829331 
L 407.228316 152.566219 
L 407.939653 152.557422 
L 409.870425 152.700456 
L 410.581762 152.40026 
L 412.309295 151.418557 
L 412.715774 151.553007 
L 413.020632 151.881171 
L 413.427111 152.717198 
L 413.833589 154.109319 
L 414.341687 156.752898 
L 414.951405 161.266619 
L 416.983796 178.237349 
L 417.390275 179.557553 
L 417.695133 179.821351 
L 417.898373 179.683823 
L 418.203231 179.094735 
L 418.812949 177.128931 
L 419.524286 174.999285 
L 419.930764 174.414073 
L 420.235623 174.353393 
L 420.540482 174.589305 
L 420.94696 175.251787 
L 422.268015 177.759063 
L 422.674493 177.991575 
L 422.979352 177.903682 
L 423.38583 177.449295 
L 423.893928 176.446011 
L 425.621461 172.543343 
L 426.129559 171.981116 
L 426.637657 171.712507 
L 428.060331 171.179675 
L 428.670049 170.54978 
L 429.584625 169.186278 
L 430.70244 167.613585 
L 431.413778 166.973326 
L 431.718636 166.789503 
L 431.718636 166.789503 
" clip-path="url(#p3ee7298371)" style="fill: none; stroke-dasharray: 1.85,0.8; stroke-dashoffset: 0; stroke: #1f77b4; stroke-width: 0.5"/>
   </g>
   <g id="line2d_30">
    <path d="M 66.091364 125.976124 
L 67.00594 130.727465 
L 67.920516 134.283867 
L 68.835092 136.930483 
L 69.851288 139.150963 
L 71.172343 141.470918 
L 72.696637 143.696201 
L 74.42417 145.820167 
L 75.948464 147.390546 
L 76.964659 148.132891 
L 77.777616 148.467468 
L 78.488953 148.52527 
L 79.30191 148.346689 
L 81.232682 147.829844 
L 81.8424 147.922462 
L 82.452117 148.26546 
L 83.265074 149.090862 
L 84.28127 150.117785 
L 84.789368 150.369785 
L 85.195846 150.343007 
L 85.602324 150.050658 
L 86.008803 149.434983 
L 86.516901 148.122723 
L 87.126618 145.71105 
L 87.939575 141.39894 
L 89.362249 132.308236 
L 90.784923 123.653682 
L 91.801119 118.835523 
L 92.817315 115.016589 
L 93.93513 111.64698 
L 95.357805 108.094385 
L 96.57724 105.563278 
L 97.593435 103.906491 
L 98.508012 102.832222 
L 99.320968 102.236262 
L 100.235545 101.86108 
L 102.776034 101.017117 
L 103.690611 100.32539 
L 107.247296 97.318385 
L 108.161873 97.019477 
L 109.279688 96.895012 
L 113.64933 96.886109 
L 115.173624 97.059441 
L 116.799537 97.509414 
L 121.270799 98.886621 
L 124.421006 99.79828 
L 126.961496 100.796538 
L 128.689029 101.677042 
L 129.806844 102.512114 
L 130.82304 103.579988 
L 131.940856 105.152092 
L 133.058671 106.627491 
L 133.668389 107.095397 
L 134.074867 107.187788 
L 134.481345 107.057905 
L 134.887824 106.665773 
L 135.294302 105.971418 
L 135.90402 104.370031 
L 136.818596 101.138109 
L 138.647748 94.516494 
L 139.257466 93.100959 
L 139.765564 92.472229 
L 140.172042 92.308435 
L 140.578521 92.405471 
L 141.086619 92.836362 
L 141.696336 93.710715 
L 142.610912 95.489067 
L 145.049782 100.446809 
L 146.980555 103.7676 
L 148.809707 106.493653 
L 149.927523 107.815321 
L 150.842099 108.590139 
L 151.655056 108.984846 
L 152.468012 109.105631 
L 153.789067 109.013824 
L 154.906882 109.00085 
L 155.618219 109.182204 
L 156.431176 109.651704 
L 157.345752 110.452492 
L 158.666807 111.929642 
L 161.512155 115.200149 
L 162.731591 116.247999 
L 163.646167 116.781026 
L 164.459124 117.027109 
L 165.27208 117.030789 
L 165.983417 116.815848 
L 166.694754 116.380047 
L 167.507711 115.590435 
L 168.422287 114.324595 
L 170.962777 110.502081 
L 171.674114 109.921603 
L 172.182212 109.768947 
L 172.79193 109.852442 
L 173.503267 110.22221 
L 174.621082 111.119276 
L 175.942137 112.114412 
L 176.856713 112.482053 
L 179.295583 113.265965 
L 180.00692 113.814865 
L 180.819877 114.747983 
L 183.563606 118.183728 
L 184.173323 118.535294 
L 184.98628 118.698789 
L 185.799237 118.896649 
L 186.307335 119.232432 
L 186.815433 119.85974 
L 187.32353 120.885532 
L 187.831628 122.41677 
L 188.441346 125.054335 
L 189.254303 129.797122 
L 190.372118 137.813536 
L 192.912608 156.459398 
L 193.827184 161.46035 
L 194.538521 164.261609 
L 195.046619 165.563411 
L 195.453097 166.132348 
L 195.757956 166.260215 
L 196.062815 166.115359 
L 196.367674 165.684566 
L 196.774152 164.692633 
L 197.38387 162.459778 
L 198.196826 158.47917 
L 201.042175 143.521968 
L 202.058371 139.941168 
L 203.074566 137.148183 
L 204.497241 133.959613 
L 206.224774 130.569783 
L 207.342589 128.817341 
L 208.257165 127.768256 
L 209.070122 127.186987 
L 209.781459 126.931557 
L 210.594416 126.882557 
L 211.508992 127.075381 
L 212.626808 127.564047 
L 214.049482 128.447743 
L 215.573776 129.665513 
L 217.402928 131.434389 
L 220.451516 134.779272 
L 222.585527 136.981425 
L 223.703343 137.842645 
L 224.617919 138.292893 
L 225.532495 138.481053 
L 228.682702 138.841441 
L 229.495659 139.318845 
L 230.613474 140.254285 
L 233.255584 142.565294 
L 234.678258 143.377237 
L 237.218748 144.774786 
L 240.978672 147.273504 
L 241.893249 147.522163 
L 242.807825 147.544195 
L 243.722401 147.335429 
L 244.636977 146.891695 
L 245.653173 146.127045 
L 247.583945 144.286335 
L 248.905 143.186574 
L 249.819576 142.698182 
L 250.734153 142.469004 
L 251.547109 142.478562 
L 252.461686 142.724365 
L 253.376262 143.212511 
L 255.510273 144.489957 
L 256.119991 144.55934 
L 256.628089 144.41469 
L 257.136187 144.039565 
L 257.745904 143.252257 
L 258.558861 141.761079 
L 261.709068 135.390462 
L 262.522025 134.521612 
L 263.233362 134.063664 
L 264.046318 133.822472 
L 264.859275 133.814745 
L 265.875471 134.029856 
L 267.094906 134.527283 
L 268.51758 135.372358 
L 270.245113 136.671724 
L 274.513136 140.293885 
L 275.326093 141.221923 
L 276.03743 142.346721 
L 276.748767 143.887322 
L 277.460104 145.961982 
L 278.37468 149.448507 
L 280.407072 157.549598 
L 281.118409 159.417319 
L 281.626507 160.138667 
L 282.032985 160.293764 
L 282.337844 160.193503 
L 282.744322 159.817831 
L 283.35404 158.854259 
L 284.370236 156.667573 
L 285.488051 154.371239 
L 286.097769 153.560074 
L 286.707486 153.10375 
L 287.317204 152.92793 
L 288.028541 152.978157 
L 289.146356 153.340115 
L 290.365791 153.678911 
L 291.788466 153.812247 
L 294.125716 154.019229 
L 295.243532 154.115639 
L 295.853249 153.965727 
L 296.462967 153.561058 
L 296.971064 152.966091 
L 297.580782 151.867082 
L 298.1905 150.276665 
L 299.105076 147.13996 
L 301.747185 137.508748 
L 302.458522 135.901571 
L 303.169859 134.859417 
L 303.881196 134.22959 
L 304.694153 133.818799 
L 306.421686 133.043964 
L 307.641121 132.110387 
L 309.470274 130.725861 
L 310.28323 130.368361 
L 312.82372 129.568284 
L 313.433438 129.001948 
L 314.043155 128.124052 
L 314.652873 126.866164 
L 315.36421 124.898337 
L 316.177166 121.98378 
L 317.091743 117.847672 
L 318.107939 112.175476 
L 319.530613 102.720668 
L 321.156526 92.331268 
L 321.969483 88.397489 
L 322.5792 86.362235 
L 323.087298 85.283221 
L 323.595396 84.691568 
L 324.001875 84.522097 
L 324.408353 84.583881 
L 324.916451 84.931703 
L 325.526168 85.653539 
L 326.542364 87.280824 
L 327.863419 89.351086 
L 328.473136 89.958231 
L 328.981234 90.163432 
L 329.387713 90.076455 
L 329.794191 89.724429 
L 330.200669 89.068754 
L 330.708767 87.779479 
L 331.420104 85.248678 
L 332.639539 79.861001 
L 333.960594 74.279111 
L 334.671931 72.128397 
L 335.383268 70.682687 
L 337.212421 67.454387 
L 337.822138 65.651684 
L 338.431856 63.058345 
L 339.143193 58.86006 
L 341.988541 40.328469 
L 342.496639 38.732998 
L 342.801498 38.273249 
L 343.106357 38.160446 
L 343.411216 38.346637 
L 343.817694 38.977123 
L 344.427411 40.51105 
L 346.358184 45.947905 
L 346.764662 46.417902 
L 347.069521 46.506198 
L 347.374379 46.398467 
L 347.780858 46.00009 
L 348.390575 44.996485 
L 350.727826 40.581264 
L 351.134304 40.331196 
L 351.540783 40.304565 
L 351.947261 40.477056 
L 352.455359 40.935647 
L 353.166696 41.94613 
L 354.081272 43.685495 
L 357.434719 50.514649 
L 358.247675 51.599313 
L 358.857393 52.119717 
L 359.56873 52.433105 
L 360.584926 52.872457 
L 361.093024 53.337244 
L 361.601122 54.116222 
L 362.10922 55.322477 
L 362.617317 57.069099 
L 363.227035 60.020501 
L 364.039992 65.309233 
L 365.056188 73.522591 
L 367.291818 94.098099 
L 368.511253 104.173345 
L 369.32421 109.260084 
L 369.933928 111.814944 
L 370.340406 112.784773 
L 370.645265 113.076555 
L 370.848504 113.046988 
L 371.153363 112.646943 
L 371.559841 111.484805 
L 372.067939 109.160913 
L 372.779276 104.627803 
L 373.897092 95.662466 
L 375.726244 80.871367 
L 377.148918 71.469478 
L 381.010463 48.363822 
L 381.823419 44.864337 
L 382.331517 43.441078 
L 382.737996 42.833811 
L 383.042854 42.732882 
L 383.347713 42.966377 
L 383.652572 43.541068 
L 384.05905 44.827525 
L 384.567148 47.251299 
L 385.176866 51.318904 
L 385.888203 57.60087 
L 386.701159 66.711406 
L 387.717355 80.788277 
L 390.765943 125.429086 
L 391.47728 132.027148 
L 392.086998 135.65628 
L 392.595096 137.507157 
L 393.103193 138.536726 
L 393.509672 138.923655 
L 393.91615 139.050001 
L 395.440444 139.213889 
L 395.846922 139.662958 
L 396.45664 140.744839 
L 397.269596 142.757587 
L 398.79389 147.335789 
L 400.013325 150.694011 
L 401.029521 152.843095 
L 401.944097 154.250595 
L 402.757054 155.076471 
L 403.468391 155.466442 
L 404.078109 155.556351 
L 404.789446 155.412657 
L 405.602403 154.983585 
L 406.618598 154.162385 
L 409.260708 151.84118 
L 409.768806 151.73911 
L 410.276904 151.888559 
L 410.683382 152.22922 
L 411.19148 152.981429 
L 411.699578 154.151852 
L 412.309295 156.127337 
L 413.223872 159.979814 
L 415.053024 169.061909 
L 416.272459 174.558979 
L 417.288655 178.123351 
L 418.101612 180.201558 
L 418.711329 181.263633 
L 419.219427 181.799971 
L 419.625906 181.9886 
L 420.032384 181.956603 
L 420.540482 181.63631 
L 421.150199 180.921167 
L 421.963156 179.578922 
L 424.503646 175.091782 
L 425.621461 173.785326 
L 428.26357 170.907718 
L 431.718636 166.2755 
L 431.718636 166.2755 
" clip-path="url(#p3ee7298371)" style="fill: none; stroke: #ff7f0e; stroke-width: 0.5; stroke-linecap: square"/>
   </g>
   <g id="line2d_31">
    <path d="M 66.091364 290.713152 
L 66.192983 290.713152 
L 66.294603 287.528018 
L 66.599462 290.129201 
L 66.90432 290.855089 
L 67.209179 290.994524 
L 67.920516 290.890434 
L 69.34319 290.746214 
L 69.54643 290.68314 
L 70.156147 289.932376 
L 70.664245 289.618126 
L 70.867484 289.593047 
L 71.375582 289.948498 
L 72.086919 290.369987 
L 72.899876 290.585229 
L 74.32255 290.690907 
L 79.403529 290.713087 
L 88.041194 290.657865 
L 89.362249 288.959275 
L 89.870347 288.714099 
L 90.175206 289.050544 
L 90.988162 290.014633 
L 91.59788 290.377917 
L 92.410837 290.589423 
L 93.833511 290.691639 
L 94.03675 290.593637 
L 95.865903 286.139909 
L 96.272381 285.84569 
L 96.57724 285.890326 
L 97.085338 286.362462 
L 97.288577 286.712828 
L 98.304773 289.305338 
L 98.812871 289.950017 
L 99.422588 290.351403 
L 100.235545 290.580079 
L 101.658219 290.690049 
L 102.267936 290.634574 
L 102.877654 290.321778 
L 103.487372 290.210756 
L 105.824622 290.674467 
L 109.076449 290.71242 
L 131.534377 290.666195 
L 132.550573 289.93322 
L 133.160291 289.667872 
L 133.46515 289.81138 
L 134.481345 290.408934 
L 135.395922 290.613145 
L 137.123455 290.701204 
L 137.834792 290.678912 
L 138.546129 290.191602 
L 139.054227 290.322206 
L 140.070423 290.588411 
L 141.594717 290.693857 
L 147.387033 290.713107 
L 168.625527 290.623283 
L 169.336864 290.26235 
L 169.844962 290.364148 
L 170.962777 290.613846 
L 172.69031 290.701208 
L 181.429594 290.712672 
L 181.937692 290.543399 
L 182.750649 290.357247 
L 184.783041 290.675028 
L 187.730009 290.711959 
L 187.933248 290.469557 
L 188.847824 288.442366 
L 189.660781 286.822039 
L 190.067259 286.415358 
L 190.372118 286.352957 
L 190.880216 286.663612 
L 191.489934 288.335903 
L 191.998031 289.386327 
L 192.506129 289.994416 
L 193.115847 290.372527 
L 193.928804 290.587857 
L 195.351478 290.691399 
L 200.635696 290.713089 
L 217.301309 290.627884 
L 218.012646 290.213522 
L 218.825602 290.011353 
L 219.43532 290.273679 
L 220.349896 290.560741 
L 221.670951 290.682942 
L 224.41468 290.700727 
L 224.922778 290.325884 
L 225.634115 289.980039 
L 226.243832 289.954117 
L 227.564887 290.526436 
L 228.682702 290.665587 
L 231.528051 290.711704 
L 254.392458 290.665354 
L 255.205414 290.457168 
L 258.152382 290.703783 
L 261.30259 290.644061 
L 261.709068 290.568025 
L 267.094906 290.712851 
L 274.513136 290.61164 
L 274.817995 290.494269 
L 275.630951 290.586181 
L 277.256865 290.694903 
L 279.492496 290.689315 
L 279.898974 290.216285 
L 280.610311 289.477111 
L 281.118409 289.230398 
L 281.829746 289.923573 
L 282.439464 290.325932 
L 283.25242 290.569421 
L 284.573475 290.684851 
L 285.488051 290.671004 
L 285.996149 289.969142 
L 286.707486 289.124628 
L 287.215584 288.843677 
L 287.723682 288.868908 
L 289.349595 290.382916 
L 290.162552 290.59122 
L 291.686846 290.694473 
L 293.922477 290.639659 
L 294.532194 290.466611 
L 297.275923 290.70175 
L 299.511554 290.678179 
L 300.222891 290.342551 
L 302.661761 290.6881 
L 307.336262 290.713025 
L 312.7221 290.615014 
L 313.230198 290.447052 
L 317.498221 290.711099 
L 317.80308 290.634551 
L 318.920895 288.660597 
L 319.327374 288.293399 
L 319.733852 288.232975 
L 320.14033 288.40577 
L 321.461385 290.128555 
L 322.071102 290.434977 
L 322.985679 290.622756 
L 324.814831 290.703639 
L 326.440745 290.649105 
L 327.66018 289.399762 
L 328.168278 289.111161 
L 328.676376 289.063404 
L 330.200669 290.382013 
L 331.013626 290.590751 
L 332.53792 290.694394 
L 333.452496 290.61965 
L 334.062214 290.227478 
L 334.671931 290.060915 
L 336.501084 290.622767 
L 338.330236 290.703608 
L 340.565867 290.652204 
L 341.073965 290.441504 
L 342.39502 290.633848 
L 344.427411 290.706551 
L 346.256564 290.632737 
L 346.663042 290.513356 
L 352.760218 290.712966 
L 356.418523 290.646975 
L 357.434719 290.172105 
L 357.841197 290.247504 
L 359.060632 290.591022 
L 360.584926 290.694289 
L 362.515698 290.642994 
L 364.039992 288.244638 
L 364.44647 287.995485 
L 364.852948 287.987293 
L 365.056188 288.091553 
L 366.580481 290.187218 
L 367.291818 290.492896 
L 368.308014 290.650066 
L 370.137167 290.696216 
L 370.442026 290.434324 
L 371.76308 289.288223 
L 372.169559 289.626447 
L 372.880896 290.212813 
L 373.592233 290.50099 
L 374.710048 290.659385 
L 375.218146 290.638984 
L 375.421385 289.974014 
L 377.047299 283.626587 
L 377.352158 283.179078 
L 377.657016 283.101642 
L 377.961875 283.384881 
L 378.469973 284.489952 
L 379.384549 288.283946 
L 379.892647 289.393207 
L 380.400745 290.003798 
L 381.010463 290.37786 
L 381.823419 290.589888 
L 382.026658 290.596864 
L 382.229898 290.148379 
L 383.550952 286.586051 
L 383.957431 285.963151 
L 384.262289 285.772938 
L 384.567148 285.839755 
L 385.075246 286.448871 
L 386.091442 289.222524 
L 386.59954 289.905444 
L 387.209257 290.330324 
L 388.022214 290.572328 
L 389.03841 290.670478 
L 389.241649 290.500823 
L 389.952986 289.791055 
L 390.664323 289.308322 
L 390.969182 289.478406 
L 391.985378 290.292057 
L 392.798335 290.556225 
L 394.01777 290.678115 
L 395.542064 290.661279 
L 396.35502 289.462565 
L 397.269596 288.2581 
L 397.777694 287.923206 
L 398.285792 287.854737 
L 398.489032 288.028529 
L 399.708467 289.955586 
L 400.318184 290.352071 
L 401.131141 290.580129 
L 402.553815 290.690055 
L 402.960293 290.666211 
L 404.281348 289.526394 
L 404.992685 289.32362 
L 405.805642 289.33992 
L 406.31374 289.473471 
L 407.329936 290.285451 
L 408.142892 290.553627 
L 409.362327 290.677532 
L 410.886621 290.685026 
L 411.08986 290.281548 
L 411.801197 288.15744 
L 413.427111 282.800683 
L 413.833589 282.204021 
L 414.138448 282.141385 
L 414.341687 282.291783 
L 414.748165 282.896349 
L 416.17084 288.946219 
L 416.678938 289.762322 
L 417.187035 290.203663 
L 417.898373 290.500828 
L 417.999992 290.470283 
L 418.203231 289.703173 
L 419.422666 284.330293 
L 419.829145 283.52718 
L 420.032384 283.423036 
L 420.235623 283.514284 
L 420.540482 283.963474 
L 420.743721 284.326717 
L 421.251819 286.530725 
L 421.759917 288.350161 
L 422.268015 289.428618 
L 422.776113 290.022736 
L 423.38583 290.386796 
L 424.198787 290.593178 
L 424.706885 290.599822 
L 425.418222 289.885989 
L 425.92632 289.683893 
L 426.434418 290.011097 
L 427.145755 290.39815 
L 428.060331 290.609489 
L 429.686245 290.69912 
L 431.718636 290.71199 
L 431.718636 290.71199 
" clip-path="url(#p3ee7298371)" style="fill: none; stroke: #2ca02c; stroke-width: 0.5; stroke-linecap: square"/>
   </g>
   <g id="patch_3">
    <path d="M 47.81 303.64 
L 47.81 25.44 
" style="fill: none; stroke: #000000; stroke-width: 0.8; stroke-linejoin: miter; stroke-linecap: square"/>
   </g>
   <g id="patch_4">
    <path d="M 450 303.64 
L 450 25.44 
" style="fill: none; stroke: #000000; stroke-width: 0.8; stroke-linejoin: miter; stroke-linecap: square"/>
   </g>
   <g id="patch_5">
    <path d="M 47.81 303.64 
L 450 303.64 
" style="fill: none; stroke: #000000; stroke-width: 0.8; stroke-linejoin: miter; stroke-linecap: square"/>
   </g>
   <g id="patch_6">
    <path d="M 47.81 25.44 
L 450 25.44 
" style="fill: none; stroke: #000000; stroke-width: 0.8; stroke-linejoin: miter; stroke-linecap: square"/>
   </g>
   <g id="text_17">
    <!-- cvxEDA (σ=4.0s  data_2_E4) -->
    <g transform="translate(163.25125 19.44) scale(0.12 -0.12)">
     <defs>
      <path id="DejaVuSans-63" d="M 3122 3366 
L 3122 2828 
Q 2878 2963 2633 3030 
Q 2388 3097 2138 3097 
Q 1578 3097 1268 2742 
Q 959 2388 959 1747 
Q 959 1106 1268 751 
Q 1578 397 2138 397 
Q 2388 397 2633 464 
Q 2878 531 3122 666 
L 3122 134 
Q 2881 22 2623 -34 
Q 2366 -91 2075 -91 
Q 1284 -91 818 406 
Q 353 903 353 1747 
Q 353 2603 823 3093 
Q 1294 3584 2113 3584 
Q 2378 3584 2631 3529 
Q 2884 3475 3122 3366 
z
" transform="scale(0.015625)"/>
      <path id="DejaVuSans-76" d="M 191 3500 
L 800 3500 
L 1894 563 
L 2988 3500 
L 3597 3500 
L 2284 0 
L 1503 0 
L 191 3500 
z
" transform="scale(0.015625)"/>
      <path id="DejaVuSans-78" d="M 3513 3500 
L 2247 1797 
L 3578 0 
L 2900 0 
L 1881 1375 
L 863 0 
L 184 0 
L 1544 1831 
L 300 3500 
L 978 3500 
L 1906 2253 
L 2834 3500 
L 3513 3500 
z
" transform="scale(0.015625)"/>
      <path id="DejaVuSans-3c3" d="M 1959 3044 
Q 1484 3044 1228 2700 
Q 959 2341 959 1747 
Q 959 1119 1226 758 
Q 1494 397 1959 397 
Q 2419 397 2687 759 
Q 2956 1122 2956 1747 
Q 2956 2319 2688 2700 
Q 2441 3044 1959 3044 
z
M 1959 3500 
L 3869 3500 
L 3869 2925 
L 3225 2925 
Q 3566 2438 3566 1747 
Q 3566 888 3138 400 
Q 2709 -91 1959 -91 
Q 1206 -91 781 400 
Q 353 888 353 1747 
Q 353 2613 781 3097 
Q 1134 3500 1959 3500 
z
" transform="scale(0.015625)"/>
      <path id="DejaVuSans-3d" d="M 678 2906 
L 4684 2906 
L 4684 2381 
L 678 2381 
L 678 2906 
z
M 678 1631 
L 4684 1631 
L 4684 1100 
L 678 1100 
L 678 1631 
z
" transform="scale(0.015625)"/>
      <path id="DejaVuSans-64" d="M 2906 2969 
L 2906 4863 
L 3481 4863 
L 3481 0 
L 2906 0 
L 2906 525 
Q 2725 213 2448 61 
Q 2172 -91 1784 -91 
Q 1150 -91 751 415 
Q 353 922 353 1747 
Q 353 2572 751 3078 
Q 1150 3584 1784 3584 
Q 2172 3584 2448 3432 
Q 2725 3281 2906 2969 
z
M 947 1747 
Q 947 1113 1208 752 
Q 1469 391 1925 391 
Q 2381 391 2643 752 
Q 2906 1113 2906 1747 
Q 2906 2381 2643 2742 
Q 2381 3103 1925 3103 
Q 1469 3103 1208 2742 
Q 947 2381 947 1747 
z
" transform="scale(0.015625)"/>
      <path id="DejaVuSans-5f" d="M 3263 -1063 
L 3263 -1509 
L -63 -1509 
L -63 -1063 
L 3263 -1063 
z
" transform="scale(0.015625)"/>
     </defs>
     <use xlink:href="#DejaVuSans-63"/>
     <use xlink:href="#DejaVuSans-76" transform="translate(54.980469 0)"/>
     <use xlink:href="#DejaVuSans-78" transform="translate(114.160156 0)"/>
     <use xlink:href="#DejaVuSans-45" transform="translate(173.339844 0)"/>
     <use xlink:href="#DejaVuSans-44" transform="translate(236.523438 0)"/>
     <use xlink:href="#DejaVuSans-41" transform="translate(311.775391 0)"/>
     <use xlink:href="#DejaVuSans-20" transform="translate(380.183594 0)"/>
     <use xlink:href="#DejaVuSans-28" transform="translate(411.970703 0)"/>
     <use xlink:href="#DejaVuSans-3c3" transform="translate(450.984375 0)"/>
     <use xlink:href="#DejaVuSans-3d" transform="translate(514.363281 0)"/>
     <use xlink:href="#DejaVuSans-34" transform="translate(598.152344 0)"/>
     <use xlink:href="#DejaVuSans-2e" transform="translate(661.775391 0)"/>
     <use xlink:href="#DejaVuSans-30" transform="translate(693.5625 0)"/>
     <use xlink:href="#DejaVuSans-73" transform="translate(757.185547 0)"/>
     <use xlink:href="#DejaVuSans-20" transform="translate(809.285156 0)"/>
     <use xlink:href="#DejaVuSans-20" transform="translate(841.072266 0)"/>
     <use xlink:href="#DejaVuSans-64" transform="translate(872.859375 0)"/>
     <use xlink:href="#DejaVuSans-61" transform="translate(936.335938 0)"/>
     <use xlink:href="#DejaVuSans-74" transform="translate(997.615234 0)"/>
     <use xlink:href="#DejaVuSans-61" transform="translate(1036.824219 0)"/>
     <use xlink:href="#DejaVuSans-5f" transform="translate(1098.103516 0)"/>
     <use xlink:href="#DejaVuSans-32" transform="translate(1148.103516 0)"/>
     <use xlink:href="#DejaVuSans-5f" transform="translate(1211.726562 0)"/>
     <use xlink:href="#DejaVuSans-45" transform="translate(1261.726562 0)"/>
     <use xlink:href="#DejaVuSans-34" transform="translate(1324.910156 0)"/>
     <use xlink:href="#DejaVuSans-29" transform="translate(1388.533203 0)"/>
    </g>
   </g>
   <g id="legend_1">
    <g id="patch_7">
     <path d="M 54.81 77.474375 
L 147.71625 77.474375 
Q 149.71625 77.474375 149.71625 75.474375 
L 149.71625 32.44 
Q 149.71625 30.44 147.71625 30.44 
L 54.81 30.44 
Q 52.81 30.44 52.81 32.44 
L 52.81 75.474375 
Q 52.81 77.474375 54.81 77.474375 
z
" style="fill: #ffffff; opacity: 0.8; stroke: #cccccc; stroke-linejoin: miter"/>
    </g>
    <g id="line2d_32">
     <path d="M 56.81 38.538437 
L 66.81 38.538437 
L 76.81 38.538437 
" style="fill: none; stroke-dasharray: 1.85,0.8; stroke-dashoffset: 0; stroke: #1f77b4; stroke-width: 0.5"/>
    </g>
    <g id="text_18">
     <!-- Filtered EDA -->
     <g transform="translate(84.81 42.038437) scale(0.1 -0.1)">
      <defs>
       <path id="DejaVuSans-46" d="M 628 4666 
L 3309 4666 
L 3309 4134 
L 1259 4134 
L 1259 2759 
L 3109 2759 
L 3109 2228 
L 1259 2228 
L 1259 0 
L 628 0 
L 628 4666 
z
" transform="scale(0.015625)"/>
       <path id="DejaVuSans-72" d="M 2631 2963 
Q 2534 3019 2420 3045 
Q 2306 3072 2169 3072 
Q 1681 3072 1420 2755 
Q 1159 2438 1159 1844 
L 1159 0 
L 581 0 
L 581 3500 
L 1159 3500 
L 1159 2956 
Q 1341 3275 1631 3429 
Q 1922 3584 2338 3584 
Q 2397 3584 2469 3576 
Q 2541 3569 2628 3553 
L 2631 2963 
z
" transform="scale(0.015625)"/>
      </defs>
      <use xlink:href="#DejaVuSans-46"/>
      <use xlink:href="#DejaVuSans-69" transform="translate(50.269531 0)"/>
      <use xlink:href="#DejaVuSans-6c" transform="translate(78.052734 0)"/>
      <use xlink:href="#DejaVuSans-74" transform="translate(105.835938 0)"/>
      <use xlink:href="#DejaVuSans-65" transform="translate(145.044922 0)"/>
      <use xlink:href="#DejaVuSans-72" transform="translate(206.568359 0)"/>
      <use xlink:href="#DejaVuSans-65" transform="translate(245.431641 0)"/>
      <use xlink:href="#DejaVuSans-64" transform="translate(306.955078 0)"/>
      <use xlink:href="#DejaVuSans-20" transform="translate(370.431641 0)"/>
      <use xlink:href="#DejaVuSans-45" transform="translate(402.21875 0)"/>
      <use xlink:href="#DejaVuSans-44" transform="translate(465.402344 0)"/>
      <use xlink:href="#DejaVuSans-41" transform="translate(540.654297 0)"/>
     </g>
    </g>
    <g id="line2d_33">
     <path d="M 56.81 53.216562 
L 66.81 53.216562 
L 76.81 53.216562 
" style="fill: none; stroke: #ff7f0e; stroke-width: 0.5; stroke-linecap: square"/>
    </g>
    <g id="text_19">
     <!-- Tonic -->
     <g transform="translate(84.81 56.716562) scale(0.1 -0.1)">
      <defs>
       <path id="DejaVuSans-6f" d="M 1959 3097 
Q 1497 3097 1228 2736 
Q 959 2375 959 1747 
Q 959 1119 1226 758 
Q 1494 397 1959 397 
Q 2419 397 2687 759 
Q 2956 1122 2956 1747 
Q 2956 2369 2687 2733 
Q 2419 3097 1959 3097 
z
M 1959 3584 
Q 2709 3584 3137 3096 
Q 3566 2609 3566 1747 
Q 3566 888 3137 398 
Q 2709 -91 1959 -91 
Q 1206 -91 779 398 
Q 353 888 353 1747 
Q 353 2609 779 3096 
Q 1206 3584 1959 3584 
z
" transform="scale(0.015625)"/>
      </defs>
      <use xlink:href="#DejaVuSans-54"/>
      <use xlink:href="#DejaVuSans-6f" transform="translate(44.083984 0)"/>
      <use xlink:href="#DejaVuSans-6e" transform="translate(105.265625 0)"/>
      <use xlink:href="#DejaVuSans-69" transform="translate(168.644531 0)"/>
      <use xlink:href="#DejaVuSans-63" transform="translate(196.427734 0)"/>
     </g>
    </g>
    <g id="line2d_34">
     <path d="M 56.81 67.894687 
L 66.81 67.894687 
L 76.81 67.894687 
" style="fill: none; stroke: #2ca02c; stroke-width: 0.5; stroke-linecap: square"/>
    </g>
    <g id="text_20">
     <!-- Phasic -->
     <g transform="translate(84.81 71.394687) scale(0.1 -0.1)">
      <defs>
       <path id="DejaVuSans-50" d="M 1259 4147 
L 1259 2394 
L 2053 2394 
Q 2494 2394 2734 2622 
Q 2975 2850 2975 3272 
Q 2975 3691 2734 3919 
Q 2494 4147 2053 4147 
L 1259 4147 
z
M 628 4666 
L 2053 4666 
Q 2838 4666 3239 4311 
Q 3641 3956 3641 3272 
Q 3641 2581 3239 2228 
Q 2838 1875 2053 1875 
L 1259 1875 
L 1259 0 
L 628 0 
L 628 4666 
z
" transform="scale(0.015625)"/>
       <path id="DejaVuSans-68" d="M 3513 2113 
L 3513 0 
L 2938 0 
L 2938 2094 
Q 2938 2591 2744 2837 
Q 2550 3084 2163 3084 
Q 1697 3084 1428 2787 
Q 1159 2491 1159 1978 
L 1159 0 
L 581 0 
L 581 4863 
L 1159 4863 
L 1159 2956 
Q 1366 3272 1645 3428 
Q 1925 3584 2291 3584 
Q 2894 3584 3203 3211 
Q 3513 2838 3513 2113 
z
" transform="scale(0.015625)"/>
      </defs>
      <use xlink:href="#DejaVuSans-50"/>
      <use xlink:href="#DejaVuSans-68" transform="translate(60.302734 0)"/>
      <use xlink:href="#DejaVuSans-61" transform="translate(123.681641 0)"/>
      <use xlink:href="#DejaVuSans-73" transform="translate(184.960938 0)"/>
      <use xlink:href="#DejaVuSans-69" transform="translate(237.060547 0)"/>
      <use xlink:href="#DejaVuSans-63" transform="translate(264.84375 0)"/>
     </g>
    </g>
   </g>
  </g>
 </g>
 <defs>
  <clipPath id="p3ee7298371">
   <rect x="47.81" y="25.44" width="402.19" height="278.2"/>
  </clipPath>
 </defs>
</svg>
