<?xml version="1.0" encoding="utf-8" standalone="no"?>
<!DOCTYPE svg PUBLIC "-//W3C//DTD SVG 1.1//EN"
  "http://www.w3.org/Graphics/SVG/1.1/DTD/svg11.dtd">
<svg xmlns:xlink="http://www.w3.org/1999/xlink" width="460.8pt" height="345.6pt" viewBox="0 0 460.8 345.6" xmlns="http://www.w3.org/2000/svg" version="1.1">
 <metadata>
  <rdf:RDF xmlns:dc="http://purl.org/dc/elements/1.1/" xmlns:cc="http://creativecommons.org/ns#" xmlns:rdf="http://www.w3.org/1999/02/22-rdf-syntax-ns#">
   <cc:Work>
    <dc:type rdf:resource="http://purl.org/dc/dcmitype/StillImage"/>
    <dc:date>2025-09-22T15:39:25.111275</dc:date>
    <dc:format>image/svg+xml</dc:format>
    <dc:creator>
     <cc:Agent>
      <dc:title>Matplotlib v3.10.0, https://matplotlib.org/</dc:title>
     </cc:Agent>
    </dc:creator>
   </cc:Work>
  </rdf:RDF>
 </metadata>
 <defs>
  <style type="text/css">*{stroke-linejoin: round; stroke-linecap: butt}</style>
 </defs>
 <g id="figure_1">
  <g id="patch_1">
   <path d="M 0 345.6 
L 460.8 345.6 
L 460.8 0 
L 0 0 
z
" style="fill: #ffffff"/>
  </g>
  <g id="axes_1">
   <g id="patch_2">
    <path d="M 47.81 303.64 
L 450 303.64 
L 450 25.44 
L 47.81 25.44 
z
" style="fill: #ffffff"/>
   </g>
   <g id="matplotlib.axis_1">
    <g id="xtick_1">
     <g id="line2d_1">
      <path d="M 66.091364 303.64 
L 66.091364 25.44 
" clip-path="url(#pc91f10ea7e)" style="fill: none; stroke: #b0b0b0; stroke-opacity: 0.3; stroke-width: 0.8; stroke-linecap: square"/>
     </g>
     <g id="line2d_2">
      <defs>
       <path id="m311bfaf125" d="M 0 0 
L 0 3.5 
" style="stroke: #000000; stroke-width: 0.8"/>
      </defs>
      <g>
       <use xlink:href="#m311bfaf125" x="66.091364" y="303.64" style="stroke: #000000; stroke-width: 0.8"/>
      </g>
     </g>
     <g id="text_1">
      <!-- 0 -->
      <g transform="translate(62.910114 318.238437) scale(0.1 -0.1)">
       <defs>
        <path id="DejaVuSans-30" d="M 2034 4250 
Q 1547 4250 1301 3770 
Q 1056 3291 1056 2328 
Q 1056 1369 1301 889 
Q 1547 409 2034 409 
Q 2525 409 2770 889 
Q 3016 1369 3016 2328 
Q 3016 3291 2770 3770 
Q 2525 4250 2034 4250 
z
M 2034 4750 
Q 2819 4750 3233 4129 
Q 3647 3509 3647 2328 
Q 3647 1150 3233 529 
Q 2819 -91 2034 -91 
Q 1250 -91 836 529 
Q 422 1150 422 2328 
Q 422 3509 836 4129 
Q 1250 4750 2034 4750 
z
" transform="scale(0.015625)"/>
       </defs>
       <use xlink:href="#DejaVuSans-30"/>
      </g>
     </g>
    </g>
    <g id="xtick_2">
     <g id="line2d_3">
      <path d="M 114.841667 303.64 
L 114.841667 25.44 
" clip-path="url(#pc91f10ea7e)" style="fill: none; stroke: #b0b0b0; stroke-opacity: 0.3; stroke-width: 0.8; stroke-linecap: square"/>
     </g>
     <g id="line2d_4">
      <g>
       <use xlink:href="#m311bfaf125" x="114.841667" y="303.64" style="stroke: #000000; stroke-width: 0.8"/>
      </g>
     </g>
     <g id="text_2">
      <!-- 2 -->
      <g transform="translate(111.660417 318.238437) scale(0.1 -0.1)">
       <defs>
        <path id="DejaVuSans-32" d="M 1228 531 
L 3431 531 
L 3431 0 
L 469 0 
L 469 531 
Q 828 903 1448 1529 
Q 2069 2156 2228 2338 
Q 2531 2678 2651 2914 
Q 2772 3150 2772 3378 
Q 2772 3750 2511 3984 
Q 2250 4219 1831 4219 
Q 1534 4219 1204 4116 
Q 875 4013 500 3803 
L 500 4441 
Q 881 4594 1212 4672 
Q 1544 4750 1819 4750 
Q 2544 4750 2975 4387 
Q 3406 4025 3406 3419 
Q 3406 3131 3298 2873 
Q 3191 2616 2906 2266 
Q 2828 2175 2409 1742 
Q 1991 1309 1228 531 
z
" transform="scale(0.015625)"/>
       </defs>
       <use xlink:href="#DejaVuSans-32"/>
      </g>
     </g>
    </g>
    <g id="xtick_3">
     <g id="line2d_5">
      <path d="M 163.59197 303.64 
L 163.59197 25.44 
" clip-path="url(#pc91f10ea7e)" style="fill: none; stroke: #b0b0b0; stroke-opacity: 0.3; stroke-width: 0.8; stroke-linecap: square"/>
     </g>
     <g id="line2d_6">
      <g>
       <use xlink:href="#m311bfaf125" x="163.59197" y="303.64" style="stroke: #000000; stroke-width: 0.8"/>
      </g>
     </g>
     <g id="text_3">
      <!-- 4 -->
      <g transform="translate(160.41072 318.238437) scale(0.1 -0.1)">
       <defs>
        <path id="DejaVuSans-34" d="M 2419 4116 
L 825 1625 
L 2419 1625 
L 2419 4116 
z
M 2253 4666 
L 3047 4666 
L 3047 1625 
L 3713 1625 
L 3713 1100 
L 3047 1100 
L 3047 0 
L 2419 0 
L 2419 1100 
L 313 1100 
L 313 1709 
L 2253 4666 
z
" transform="scale(0.015625)"/>
       </defs>
       <use xlink:href="#DejaVuSans-34"/>
      </g>
     </g>
    </g>
    <g id="xtick_4">
     <g id="line2d_7">
      <path d="M 212.342273 303.64 
L 212.342273 25.44 
" clip-path="url(#pc91f10ea7e)" style="fill: none; stroke: #b0b0b0; stroke-opacity: 0.3; stroke-width: 0.8; stroke-linecap: square"/>
     </g>
     <g id="line2d_8">
      <g>
       <use xlink:href="#m311bfaf125" x="212.342273" y="303.64" style="stroke: #000000; stroke-width: 0.8"/>
      </g>
     </g>
     <g id="text_4">
      <!-- 6 -->
      <g transform="translate(209.161023 318.238437) scale(0.1 -0.1)">
       <defs>
        <path id="DejaVuSans-36" d="M 2113 2584 
Q 1688 2584 1439 2293 
Q 1191 2003 1191 1497 
Q 1191 994 1439 701 
Q 1688 409 2113 409 
Q 2538 409 2786 701 
Q 3034 994 3034 1497 
Q 3034 2003 2786 2293 
Q 2538 2584 2113 2584 
z
M 3366 4563 
L 3366 3988 
Q 3128 4100 2886 4159 
Q 2644 4219 2406 4219 
Q 1781 4219 1451 3797 
Q 1122 3375 1075 2522 
Q 1259 2794 1537 2939 
Q 1816 3084 2150 3084 
Q 2853 3084 3261 2657 
Q 3669 2231 3669 1497 
Q 3669 778 3244 343 
Q 2819 -91 2113 -91 
Q 1303 -91 875 529 
Q 447 1150 447 2328 
Q 447 3434 972 4092 
Q 1497 4750 2381 4750 
Q 2619 4750 2861 4703 
Q 3103 4656 3366 4563 
z
" transform="scale(0.015625)"/>
       </defs>
       <use xlink:href="#DejaVuSans-36"/>
      </g>
     </g>
    </g>
    <g id="xtick_5">
     <g id="line2d_9">
      <path d="M 261.092576 303.64 
L 261.092576 25.44 
" clip-path="url(#pc91f10ea7e)" style="fill: none; stroke: #b0b0b0; stroke-opacity: 0.3; stroke-width: 0.8; stroke-linecap: square"/>
     </g>
     <g id="line2d_10">
      <g>
       <use xlink:href="#m311bfaf125" x="261.092576" y="303.64" style="stroke: #000000; stroke-width: 0.8"/>
      </g>
     </g>
     <g id="text_5">
      <!-- 8 -->
      <g transform="translate(257.911326 318.238437) scale(0.1 -0.1)">
       <defs>
        <path id="DejaVuSans-38" d="M 2034 2216 
Q 1584 2216 1326 1975 
Q 1069 1734 1069 1313 
Q 1069 891 1326 650 
Q 1584 409 2034 409 
Q 2484 409 2743 651 
Q 3003 894 3003 1313 
Q 3003 1734 2745 1975 
Q 2488 2216 2034 2216 
z
M 1403 2484 
Q 997 2584 770 2862 
Q 544 3141 544 3541 
Q 544 4100 942 4425 
Q 1341 4750 2034 4750 
Q 2731 4750 3128 4425 
Q 3525 4100 3525 3541 
Q 3525 3141 3298 2862 
Q 3072 2584 2669 2484 
Q 3125 2378 3379 2068 
Q 3634 1759 3634 1313 
Q 3634 634 3220 271 
Q 2806 -91 2034 -91 
Q 1263 -91 848 271 
Q 434 634 434 1313 
Q 434 1759 690 2068 
Q 947 2378 1403 2484 
z
M 1172 3481 
Q 1172 3119 1398 2916 
Q 1625 2713 2034 2713 
Q 2441 2713 2670 2916 
Q 2900 3119 2900 3481 
Q 2900 3844 2670 4047 
Q 2441 4250 2034 4250 
Q 1625 4250 1398 4047 
Q 1172 3844 1172 3481 
z
" transform="scale(0.015625)"/>
       </defs>
       <use xlink:href="#DejaVuSans-38"/>
      </g>
     </g>
    </g>
    <g id="xtick_6">
     <g id="line2d_11">
      <path d="M 309.842879 303.64 
L 309.842879 25.44 
" clip-path="url(#pc91f10ea7e)" style="fill: none; stroke: #b0b0b0; stroke-opacity: 0.3; stroke-width: 0.8; stroke-linecap: square"/>
     </g>
     <g id="line2d_12">
      <g>
       <use xlink:href="#m311bfaf125" x="309.842879" y="303.64" style="stroke: #000000; stroke-width: 0.8"/>
      </g>
     </g>
     <g id="text_6">
      <!-- 10 -->
      <g transform="translate(303.480379 318.238437) scale(0.1 -0.1)">
       <defs>
        <path id="DejaVuSans-31" d="M 794 531 
L 1825 531 
L 1825 4091 
L 703 3866 
L 703 4441 
L 1819 4666 
L 2450 4666 
L 2450 531 
L 3481 531 
L 3481 0 
L 794 0 
L 794 531 
z
" transform="scale(0.015625)"/>
       </defs>
       <use xlink:href="#DejaVuSans-31"/>
       <use xlink:href="#DejaVuSans-30" transform="translate(63.623047 0)"/>
      </g>
     </g>
    </g>
    <g id="xtick_7">
     <g id="line2d_13">
      <path d="M 358.593182 303.64 
L 358.593182 25.44 
" clip-path="url(#pc91f10ea7e)" style="fill: none; stroke: #b0b0b0; stroke-opacity: 0.3; stroke-width: 0.8; stroke-linecap: square"/>
     </g>
     <g id="line2d_14">
      <g>
       <use xlink:href="#m311bfaf125" x="358.593182" y="303.64" style="stroke: #000000; stroke-width: 0.8"/>
      </g>
     </g>
     <g id="text_7">
      <!-- 12 -->
      <g transform="translate(352.230682 318.238437) scale(0.1 -0.1)">
       <use xlink:href="#DejaVuSans-31"/>
       <use xlink:href="#DejaVuSans-32" transform="translate(63.623047 0)"/>
      </g>
     </g>
    </g>
    <g id="xtick_8">
     <g id="line2d_15">
      <path d="M 407.343485 303.64 
L 407.343485 25.44 
" clip-path="url(#pc91f10ea7e)" style="fill: none; stroke: #b0b0b0; stroke-opacity: 0.3; stroke-width: 0.8; stroke-linecap: square"/>
     </g>
     <g id="line2d_16">
      <g>
       <use xlink:href="#m311bfaf125" x="407.343485" y="303.64" style="stroke: #000000; stroke-width: 0.8"/>
      </g>
     </g>
     <g id="text_8">
      <!-- 14 -->
      <g transform="translate(400.980985 318.238437) scale(0.1 -0.1)">
       <use xlink:href="#DejaVuSans-31"/>
       <use xlink:href="#DejaVuSans-34" transform="translate(63.623047 0)"/>
      </g>
     </g>
    </g>
    <g id="text_9">
     <!-- Time (minutes) -->
     <g transform="translate(210.9425 331.916562) scale(0.1 -0.1)">
      <defs>
       <path id="DejaVuSans-54" d="M -19 4666 
L 3928 4666 
L 3928 4134 
L 2272 4134 
L 2272 0 
L 1638 0 
L 1638 4134 
L -19 4134 
L -19 4666 
z
" transform="scale(0.015625)"/>
       <path id="DejaVuSans-69" d="M 603 3500 
L 1178 3500 
L 1178 0 
L 603 0 
L 603 3500 
z
M 603 4863 
L 1178 4863 
L 1178 4134 
L 603 4134 
L 603 4863 
z
" transform="scale(0.015625)"/>
       <path id="DejaVuSans-6d" d="M 3328 2828 
Q 3544 3216 3844 3400 
Q 4144 3584 4550 3584 
Q 5097 3584 5394 3201 
Q 5691 2819 5691 2113 
L 5691 0 
L 5113 0 
L 5113 2094 
Q 5113 2597 4934 2840 
Q 4756 3084 4391 3084 
Q 3944 3084 3684 2787 
Q 3425 2491 3425 1978 
L 3425 0 
L 2847 0 
L 2847 2094 
Q 2847 2600 2669 2842 
Q 2491 3084 2119 3084 
Q 1678 3084 1418 2786 
Q 1159 2488 1159 1978 
L 1159 0 
L 581 0 
L 581 3500 
L 1159 3500 
L 1159 2956 
Q 1356 3278 1631 3431 
Q 1906 3584 2284 3584 
Q 2666 3584 2933 3390 
Q 3200 3197 3328 2828 
z
" transform="scale(0.015625)"/>
       <path id="DejaVuSans-65" d="M 3597 1894 
L 3597 1613 
L 953 1613 
Q 991 1019 1311 708 
Q 1631 397 2203 397 
Q 2534 397 2845 478 
Q 3156 559 3463 722 
L 3463 178 
Q 3153 47 2828 -22 
Q 2503 -91 2169 -91 
Q 1331 -91 842 396 
Q 353 884 353 1716 
Q 353 2575 817 3079 
Q 1281 3584 2069 3584 
Q 2775 3584 3186 3129 
Q 3597 2675 3597 1894 
z
M 3022 2063 
Q 3016 2534 2758 2815 
Q 2500 3097 2075 3097 
Q 1594 3097 1305 2825 
Q 1016 2553 972 2059 
L 3022 2063 
z
" transform="scale(0.015625)"/>
       <path id="DejaVuSans-20" transform="scale(0.015625)"/>
       <path id="DejaVuSans-28" d="M 1984 4856 
Q 1566 4138 1362 3434 
Q 1159 2731 1159 2009 
Q 1159 1288 1364 580 
Q 1569 -128 1984 -844 
L 1484 -844 
Q 1016 -109 783 600 
Q 550 1309 550 2009 
Q 550 2706 781 3412 
Q 1013 4119 1484 4856 
L 1984 4856 
z
" transform="scale(0.015625)"/>
       <path id="DejaVuSans-6e" d="M 3513 2113 
L 3513 0 
L 2938 0 
L 2938 2094 
Q 2938 2591 2744 2837 
Q 2550 3084 2163 3084 
Q 1697 3084 1428 2787 
Q 1159 2491 1159 1978 
L 1159 0 
L 581 0 
L 581 3500 
L 1159 3500 
L 1159 2956 
Q 1366 3272 1645 3428 
Q 1925 3584 2291 3584 
Q 2894 3584 3203 3211 
Q 3513 2838 3513 2113 
z
" transform="scale(0.015625)"/>
       <path id="DejaVuSans-75" d="M 544 1381 
L 544 3500 
L 1119 3500 
L 1119 1403 
Q 1119 906 1312 657 
Q 1506 409 1894 409 
Q 2359 409 2629 706 
Q 2900 1003 2900 1516 
L 2900 3500 
L 3475 3500 
L 3475 0 
L 2900 0 
L 2900 538 
Q 2691 219 2414 64 
Q 2138 -91 1772 -91 
Q 1169 -91 856 284 
Q 544 659 544 1381 
z
M 1991 3584 
L 1991 3584 
z
" transform="scale(0.015625)"/>
       <path id="DejaVuSans-74" d="M 1172 4494 
L 1172 3500 
L 2356 3500 
L 2356 3053 
L 1172 3053 
L 1172 1153 
Q 1172 725 1289 603 
Q 1406 481 1766 481 
L 2356 481 
L 2356 0 
L 1766 0 
Q 1100 0 847 248 
Q 594 497 594 1153 
L 594 3053 
L 172 3053 
L 172 3500 
L 594 3500 
L 594 4494 
L 1172 4494 
z
" transform="scale(0.015625)"/>
       <path id="DejaVuSans-73" d="M 2834 3397 
L 2834 2853 
Q 2591 2978 2328 3040 
Q 2066 3103 1784 3103 
Q 1356 3103 1142 2972 
Q 928 2841 928 2578 
Q 928 2378 1081 2264 
Q 1234 2150 1697 2047 
L 1894 2003 
Q 2506 1872 2764 1633 
Q 3022 1394 3022 966 
Q 3022 478 2636 193 
Q 2250 -91 1575 -91 
Q 1294 -91 989 -36 
Q 684 19 347 128 
L 347 722 
Q 666 556 975 473 
Q 1284 391 1588 391 
Q 1994 391 2212 530 
Q 2431 669 2431 922 
Q 2431 1156 2273 1281 
Q 2116 1406 1581 1522 
L 1381 1569 
Q 847 1681 609 1914 
Q 372 2147 372 2553 
Q 372 3047 722 3315 
Q 1072 3584 1716 3584 
Q 2034 3584 2315 3537 
Q 2597 3491 2834 3397 
z
" transform="scale(0.015625)"/>
       <path id="DejaVuSans-29" d="M 513 4856 
L 1013 4856 
Q 1481 4119 1714 3412 
Q 1947 2706 1947 2009 
Q 1947 1309 1714 600 
Q 1481 -109 1013 -844 
L 513 -844 
Q 928 -128 1133 580 
Q 1338 1288 1338 2009 
Q 1338 2731 1133 3434 
Q 928 4138 513 4856 
z
" transform="scale(0.015625)"/>
      </defs>
      <use xlink:href="#DejaVuSans-54"/>
      <use xlink:href="#DejaVuSans-69" transform="translate(57.958984 0)"/>
      <use xlink:href="#DejaVuSans-6d" transform="translate(85.742188 0)"/>
      <use xlink:href="#DejaVuSans-65" transform="translate(183.154297 0)"/>
      <use xlink:href="#DejaVuSans-20" transform="translate(244.677734 0)"/>
      <use xlink:href="#DejaVuSans-28" transform="translate(276.464844 0)"/>
      <use xlink:href="#DejaVuSans-6d" transform="translate(315.478516 0)"/>
      <use xlink:href="#DejaVuSans-69" transform="translate(412.890625 0)"/>
      <use xlink:href="#DejaVuSans-6e" transform="translate(440.673828 0)"/>
      <use xlink:href="#DejaVuSans-75" transform="translate(504.052734 0)"/>
      <use xlink:href="#DejaVuSans-74" transform="translate(567.431641 0)"/>
      <use xlink:href="#DejaVuSans-65" transform="translate(606.640625 0)"/>
      <use xlink:href="#DejaVuSans-73" transform="translate(668.164062 0)"/>
      <use xlink:href="#DejaVuSans-29" transform="translate(720.263672 0)"/>
     </g>
    </g>
   </g>
   <g id="matplotlib.axis_2">
    <g id="ytick_1">
     <g id="line2d_17">
      <path d="M 47.81 281.706381 
L 450 281.706381 
" clip-path="url(#pc91f10ea7e)" style="fill: none; stroke: #b0b0b0; stroke-opacity: 0.3; stroke-width: 0.8; stroke-linecap: square"/>
     </g>
     <g id="line2d_18">
      <defs>
       <path id="m69e009d6d7" d="M 0 0 
L -3.5 0 
" style="stroke: #000000; stroke-width: 0.8"/>
      </defs>
      <g>
       <use xlink:href="#m69e009d6d7" x="47.81" y="281.706381" style="stroke: #000000; stroke-width: 0.8"/>
      </g>
     </g>
     <g id="text_10">
      <!-- 0.0 -->
      <g transform="translate(24.906875 285.5056) scale(0.1 -0.1)">
       <defs>
        <path id="DejaVuSans-2e" d="M 684 794 
L 1344 794 
L 1344 0 
L 684 0 
L 684 794 
z
" transform="scale(0.015625)"/>
       </defs>
       <use xlink:href="#DejaVuSans-30"/>
       <use xlink:href="#DejaVuSans-2e" transform="translate(63.623047 0)"/>
       <use xlink:href="#DejaVuSans-30" transform="translate(95.410156 0)"/>
      </g>
     </g>
    </g>
    <g id="ytick_2">
     <g id="line2d_19">
      <path d="M 47.81 235.992098 
L 450 235.992098 
" clip-path="url(#pc91f10ea7e)" style="fill: none; stroke: #b0b0b0; stroke-opacity: 0.3; stroke-width: 0.8; stroke-linecap: square"/>
     </g>
     <g id="line2d_20">
      <g>
       <use xlink:href="#m69e009d6d7" x="47.81" y="235.992098" style="stroke: #000000; stroke-width: 0.8"/>
      </g>
     </g>
     <g id="text_11">
      <!-- 0.1 -->
      <g transform="translate(24.906875 239.791317) scale(0.1 -0.1)">
       <use xlink:href="#DejaVuSans-30"/>
       <use xlink:href="#DejaVuSans-2e" transform="translate(63.623047 0)"/>
       <use xlink:href="#DejaVuSans-31" transform="translate(95.410156 0)"/>
      </g>
     </g>
    </g>
    <g id="ytick_3">
     <g id="line2d_21">
      <path d="M 47.81 190.277815 
L 450 190.277815 
" clip-path="url(#pc91f10ea7e)" style="fill: none; stroke: #b0b0b0; stroke-opacity: 0.3; stroke-width: 0.8; stroke-linecap: square"/>
     </g>
     <g id="line2d_22">
      <g>
       <use xlink:href="#m69e009d6d7" x="47.81" y="190.277815" style="stroke: #000000; stroke-width: 0.8"/>
      </g>
     </g>
     <g id="text_12">
      <!-- 0.2 -->
      <g transform="translate(24.906875 194.077034) scale(0.1 -0.1)">
       <use xlink:href="#DejaVuSans-30"/>
       <use xlink:href="#DejaVuSans-2e" transform="translate(63.623047 0)"/>
       <use xlink:href="#DejaVuSans-32" transform="translate(95.410156 0)"/>
      </g>
     </g>
    </g>
    <g id="ytick_4">
     <g id="line2d_23">
      <path d="M 47.81 144.563532 
L 450 144.563532 
" clip-path="url(#pc91f10ea7e)" style="fill: none; stroke: #b0b0b0; stroke-opacity: 0.3; stroke-width: 0.8; stroke-linecap: square"/>
     </g>
     <g id="line2d_24">
      <g>
       <use xlink:href="#m69e009d6d7" x="47.81" y="144.563532" style="stroke: #000000; stroke-width: 0.8"/>
      </g>
     </g>
     <g id="text_13">
      <!-- 0.3 -->
      <g transform="translate(24.906875 148.36275) scale(0.1 -0.1)">
       <defs>
        <path id="DejaVuSans-33" d="M 2597 2516 
Q 3050 2419 3304 2112 
Q 3559 1806 3559 1356 
Q 3559 666 3084 287 
Q 2609 -91 1734 -91 
Q 1441 -91 1130 -33 
Q 819 25 488 141 
L 488 750 
Q 750 597 1062 519 
Q 1375 441 1716 441 
Q 2309 441 2620 675 
Q 2931 909 2931 1356 
Q 2931 1769 2642 2001 
Q 2353 2234 1838 2234 
L 1294 2234 
L 1294 2753 
L 1863 2753 
Q 2328 2753 2575 2939 
Q 2822 3125 2822 3475 
Q 2822 3834 2567 4026 
Q 2313 4219 1838 4219 
Q 1578 4219 1281 4162 
Q 984 4106 628 3988 
L 628 4550 
Q 988 4650 1302 4700 
Q 1616 4750 1894 4750 
Q 2613 4750 3031 4423 
Q 3450 4097 3450 3541 
Q 3450 3153 3228 2886 
Q 3006 2619 2597 2516 
z
" transform="scale(0.015625)"/>
       </defs>
       <use xlink:href="#DejaVuSans-30"/>
       <use xlink:href="#DejaVuSans-2e" transform="translate(63.623047 0)"/>
       <use xlink:href="#DejaVuSans-33" transform="translate(95.410156 0)"/>
      </g>
     </g>
    </g>
    <g id="ytick_5">
     <g id="line2d_25">
      <path d="M 47.81 98.849249 
L 450 98.849249 
" clip-path="url(#pc91f10ea7e)" style="fill: none; stroke: #b0b0b0; stroke-opacity: 0.3; stroke-width: 0.8; stroke-linecap: square"/>
     </g>
     <g id="line2d_26">
      <g>
       <use xlink:href="#m69e009d6d7" x="47.81" y="98.849249" style="stroke: #000000; stroke-width: 0.8"/>
      </g>
     </g>
     <g id="text_14">
      <!-- 0.4 -->
      <g transform="translate(24.906875 102.648467) scale(0.1 -0.1)">
       <use xlink:href="#DejaVuSans-30"/>
       <use xlink:href="#DejaVuSans-2e" transform="translate(63.623047 0)"/>
       <use xlink:href="#DejaVuSans-34" transform="translate(95.410156 0)"/>
      </g>
     </g>
    </g>
    <g id="ytick_6">
     <g id="line2d_27">
      <path d="M 47.81 53.134965 
L 450 53.134965 
" clip-path="url(#pc91f10ea7e)" style="fill: none; stroke: #b0b0b0; stroke-opacity: 0.3; stroke-width: 0.8; stroke-linecap: square"/>
     </g>
     <g id="line2d_28">
      <g>
       <use xlink:href="#m69e009d6d7" x="47.81" y="53.134965" style="stroke: #000000; stroke-width: 0.8"/>
      </g>
     </g>
     <g id="text_15">
      <!-- 0.5 -->
      <g transform="translate(24.906875 56.934184) scale(0.1 -0.1)">
       <defs>
        <path id="DejaVuSans-35" d="M 691 4666 
L 3169 4666 
L 3169 4134 
L 1269 4134 
L 1269 2991 
Q 1406 3038 1543 3061 
Q 1681 3084 1819 3084 
Q 2600 3084 3056 2656 
Q 3513 2228 3513 1497 
Q 3513 744 3044 326 
Q 2575 -91 1722 -91 
Q 1428 -91 1123 -41 
Q 819 9 494 109 
L 494 744 
Q 775 591 1075 516 
Q 1375 441 1709 441 
Q 2250 441 2565 725 
Q 2881 1009 2881 1497 
Q 2881 1984 2565 2268 
Q 2250 2553 1709 2553 
Q 1456 2553 1204 2497 
Q 953 2441 691 2322 
L 691 4666 
z
" transform="scale(0.015625)"/>
       </defs>
       <use xlink:href="#DejaVuSans-30"/>
       <use xlink:href="#DejaVuSans-2e" transform="translate(63.623047 0)"/>
       <use xlink:href="#DejaVuSans-35" transform="translate(95.410156 0)"/>
      </g>
     </g>
    </g>
    <g id="text_16">
     <!-- EDA signals (μS) -->
     <g transform="translate(18.827188 205.711875) rotate(-90) scale(0.1 -0.1)">
      <defs>
       <path id="DejaVuSans-45" d="M 628 4666 
L 3578 4666 
L 3578 4134 
L 1259 4134 
L 1259 2753 
L 3481 2753 
L 3481 2222 
L 1259 2222 
L 1259 531 
L 3634 531 
L 3634 0 
L 628 0 
L 628 4666 
z
" transform="scale(0.015625)"/>
       <path id="DejaVuSans-44" d="M 1259 4147 
L 1259 519 
L 2022 519 
Q 2988 519 3436 956 
Q 3884 1394 3884 2338 
Q 3884 3275 3436 3711 
Q 2988 4147 2022 4147 
L 1259 4147 
z
M 628 4666 
L 1925 4666 
Q 3281 4666 3915 4102 
Q 4550 3538 4550 2338 
Q 4550 1131 3912 565 
Q 3275 0 1925 0 
L 628 0 
L 628 4666 
z
" transform="scale(0.015625)"/>
       <path id="DejaVuSans-41" d="M 2188 4044 
L 1331 1722 
L 3047 1722 
L 2188 4044 
z
M 1831 4666 
L 2547 4666 
L 4325 0 
L 3669 0 
L 3244 1197 
L 1141 1197 
L 716 0 
L 50 0 
L 1831 4666 
z
" transform="scale(0.015625)"/>
       <path id="DejaVuSans-67" d="M 2906 1791 
Q 2906 2416 2648 2759 
Q 2391 3103 1925 3103 
Q 1463 3103 1205 2759 
Q 947 2416 947 1791 
Q 947 1169 1205 825 
Q 1463 481 1925 481 
Q 2391 481 2648 825 
Q 2906 1169 2906 1791 
z
M 3481 434 
Q 3481 -459 3084 -895 
Q 2688 -1331 1869 -1331 
Q 1566 -1331 1297 -1286 
Q 1028 -1241 775 -1147 
L 775 -588 
Q 1028 -725 1275 -790 
Q 1522 -856 1778 -856 
Q 2344 -856 2625 -561 
Q 2906 -266 2906 331 
L 2906 616 
Q 2728 306 2450 153 
Q 2172 0 1784 0 
Q 1141 0 747 490 
Q 353 981 353 1791 
Q 353 2603 747 3093 
Q 1141 3584 1784 3584 
Q 2172 3584 2450 3431 
Q 2728 3278 2906 2969 
L 2906 3500 
L 3481 3500 
L 3481 434 
z
" transform="scale(0.015625)"/>
       <path id="DejaVuSans-61" d="M 2194 1759 
Q 1497 1759 1228 1600 
Q 959 1441 959 1056 
Q 959 750 1161 570 
Q 1363 391 1709 391 
Q 2188 391 2477 730 
Q 2766 1069 2766 1631 
L 2766 1759 
L 2194 1759 
z
M 3341 1997 
L 3341 0 
L 2766 0 
L 2766 531 
Q 2569 213 2275 61 
Q 1981 -91 1556 -91 
Q 1019 -91 701 211 
Q 384 513 384 1019 
Q 384 1609 779 1909 
Q 1175 2209 1959 2209 
L 2766 2209 
L 2766 2266 
Q 2766 2663 2505 2880 
Q 2244 3097 1772 3097 
Q 1472 3097 1187 3025 
Q 903 2953 641 2809 
L 641 3341 
Q 956 3463 1253 3523 
Q 1550 3584 1831 3584 
Q 2591 3584 2966 3190 
Q 3341 2797 3341 1997 
z
" transform="scale(0.015625)"/>
       <path id="DejaVuSans-6c" d="M 603 4863 
L 1178 4863 
L 1178 0 
L 603 0 
L 603 4863 
z
" transform="scale(0.015625)"/>
       <path id="DejaVuSans-3bc" d="M 544 -1331 
L 544 3500 
L 1119 3500 
L 1119 1325 
Q 1119 872 1334 640 
Q 1550 409 1972 409 
Q 2434 409 2667 671 
Q 2900 934 2900 1459 
L 2900 3500 
L 3475 3500 
L 3475 806 
Q 3475 619 3529 530 
Q 3584 441 3700 441 
Q 3728 441 3778 458 
Q 3828 475 3916 513 
L 3916 50 
Q 3788 -22 3673 -56 
Q 3559 -91 3450 -91 
Q 3234 -91 3106 31 
Q 2978 153 2931 403 
Q 2775 156 2548 32 
Q 2322 -91 2016 -91 
Q 1697 -91 1473 31 
Q 1250 153 1119 397 
L 1119 -1331 
L 544 -1331 
z
" transform="scale(0.015625)"/>
       <path id="DejaVuSans-53" d="M 3425 4513 
L 3425 3897 
Q 3066 4069 2747 4153 
Q 2428 4238 2131 4238 
Q 1616 4238 1336 4038 
Q 1056 3838 1056 3469 
Q 1056 3159 1242 3001 
Q 1428 2844 1947 2747 
L 2328 2669 
Q 3034 2534 3370 2195 
Q 3706 1856 3706 1288 
Q 3706 609 3251 259 
Q 2797 -91 1919 -91 
Q 1588 -91 1214 -16 
Q 841 59 441 206 
L 441 856 
Q 825 641 1194 531 
Q 1563 422 1919 422 
Q 2459 422 2753 634 
Q 3047 847 3047 1241 
Q 3047 1584 2836 1778 
Q 2625 1972 2144 2069 
L 1759 2144 
Q 1053 2284 737 2584 
Q 422 2884 422 3419 
Q 422 4038 858 4394 
Q 1294 4750 2059 4750 
Q 2388 4750 2728 4690 
Q 3069 4631 3425 4513 
z
" transform="scale(0.015625)"/>
      </defs>
      <use xlink:href="#DejaVuSans-45"/>
      <use xlink:href="#DejaVuSans-44" transform="translate(63.183594 0)"/>
      <use xlink:href="#DejaVuSans-41" transform="translate(138.435547 0)"/>
      <use xlink:href="#DejaVuSans-20" transform="translate(206.84375 0)"/>
      <use xlink:href="#DejaVuSans-73" transform="translate(238.630859 0)"/>
      <use xlink:href="#DejaVuSans-69" transform="translate(290.730469 0)"/>
      <use xlink:href="#DejaVuSans-67" transform="translate(318.513672 0)"/>
      <use xlink:href="#DejaVuSans-6e" transform="translate(381.990234 0)"/>
      <use xlink:href="#DejaVuSans-61" transform="translate(445.369141 0)"/>
      <use xlink:href="#DejaVuSans-6c" transform="translate(506.648438 0)"/>
      <use xlink:href="#DejaVuSans-73" transform="translate(534.431641 0)"/>
      <use xlink:href="#DejaVuSans-20" transform="translate(586.53125 0)"/>
      <use xlink:href="#DejaVuSans-28" transform="translate(618.318359 0)"/>
      <use xlink:href="#DejaVuSans-3bc" transform="translate(657.332031 0)"/>
      <use xlink:href="#DejaVuSans-53" transform="translate(720.955078 0)"/>
      <use xlink:href="#DejaVuSans-29" transform="translate(784.431641 0)"/>
     </g>
    </g>
   </g>
   <g id="line2d_29">
    <path d="M 66.091364 124.512049 
L 67.00594 144.959549 
L 67.310799 147.338049 
L 67.615657 148.135839 
L 67.818897 148.135719 
L 68.022136 147.775389 
L 68.326995 146.580335 
L 68.835092 143.302333 
L 69.54643 138.808838 
L 69.851288 138.042483 
L 69.952908 138.018613 
L 70.156147 138.315299 
L 70.461006 139.494202 
L 71.9853 147.255493 
L 72.391778 147.998018 
L 73.814452 149.578748 
L 74.220931 149.768205 
L 74.932268 149.933242 
L 75.440366 150.412582 
L 76.456561 151.442874 
L 77.066279 151.723749 
L 77.980855 151.951234 
L 78.997051 151.831236 
L 79.810008 152.145647 
L 80.114867 152.03654 
L 80.521345 151.630212 
L 81.63916 150.189496 
L 81.944019 150.262962 
L 82.350497 150.696657 
L 84.07803 152.853116 
L 84.687748 153.282093 
L 85.399085 153.730087 
L 85.703944 154.324268 
L 86.110422 155.899092 
L 86.72014 158.347016 
L 86.923379 158.416325 
L 87.126618 157.705581 
L 87.431477 154.755566 
L 88.346053 142.665699 
L 88.752531 139.567467 
L 89.260629 132.614968 
L 89.667108 127.845783 
L 90.073586 125.522107 
L 90.480064 124.452617 
L 90.886543 123.925067 
L 91.191402 123.823941 
L 91.59788 123.947269 
L 92.105978 124.330598 
L 92.512456 124.974924 
L 92.918935 125.601692 
L 93.122174 125.564367 
L 93.325413 125.146352 
L 93.630272 123.831385 
L 94.13837 120.409922 
L 94.646467 115.594024 
L 95.865903 101.891443 
L 96.069142 101.544241 
L 96.272381 101.861067 
L 96.57724 103.115354 
L 97.491816 107.412138 
L 97.898294 108.418245 
L 98.304773 108.920753 
L 99.01611 109.622462 
L 99.320968 110.395726 
L 100.235545 113.273271 
L 100.438784 112.989211 
L 100.743643 111.771669 
L 101.759839 106.488606 
L 101.861458 106.555537 
L 102.064697 107.127769 
L 102.572795 108.759139 
L 102.674415 108.768572 
L 102.877654 108.413594 
L 103.690611 106.256488 
L 103.89385 106.266126 
L 104.503567 106.662966 
L 104.706807 106.533812 
L 105.621383 105.534731 
L 106.027861 105.6034 
L 106.739198 105.717325 
L 107.552155 105.611461 
L 107.958633 105.244392 
L 108.77159 104.278474 
L 109.076449 104.234796 
L 109.991025 104.353133 
L 110.397503 103.996305 
L 110.905601 103.594067 
L 111.21046 103.641793 
L 111.616938 104.011281 
L 112.937993 105.474338 
L 113.344471 105.526987 
L 114.360667 105.298437 
L 114.767146 104.841322 
L 115.478483 103.901609 
L 115.783342 103.874545 
L 116.18982 104.192325 
L 117.104396 105.053523 
L 118.73031 105.892319 
L 119.441647 106.021179 
L 120.356223 106.240283 
L 120.864321 106.537734 
L 121.778897 107.183066 
L 122.591854 107.262659 
L 123.099952 107.111637 
L 124.014528 106.679865 
L 124.522626 106.804594 
L 126.148539 107.32045 
L 126.758257 107.395505 
L 127.164735 107.761842 
L 128.282551 109.148913 
L 129.095507 109.728576 
L 130.213323 110.748979 
L 132.245715 111.538196 
L 133.770008 112.721061 
L 134.684585 113.139494 
L 134.989443 113.461507 
L 135.294302 114.265141 
L 135.599161 115.897285 
L 136.208878 119.409092 
L 136.310498 119.437104 
L 136.513737 118.663861 
L 136.818596 115.496364 
L 137.428313 105.010965 
L 137.936411 97.642605 
L 138.24127 95.715391 
L 138.444509 95.420077 
L 138.647748 95.658909 
L 139.155846 97.154703 
L 139.765564 98.633666 
L 142.102814 102.414254 
L 142.712532 103.359166 
L 143.525489 104.937258 
L 144.033587 106.667459 
L 144.643304 108.681694 
L 144.846543 108.883449 
L 145.049782 108.77074 
L 145.456261 107.967491 
L 145.862739 107.357441 
L 146.065978 107.360379 
L 146.269217 107.604632 
L 146.574076 108.490594 
L 146.980555 110.726165 
L 147.488653 113.727859 
L 147.691892 114.234043 
L 147.793511 114.278332 
L 147.99675 114.026593 
L 148.504848 112.989227 
L 148.708088 112.959576 
L 149.012946 113.33784 
L 149.622664 114.692805 
L 150.130762 115.679044 
L 150.435621 115.847605 
L 150.842099 116.056423 
L 151.756675 117.002264 
L 152.061534 116.652218 
L 153.07773 114.946524 
L 153.484208 114.697943 
L 153.992306 114.671592 
L 154.500404 114.859977 
L 155.41498 115.553249 
L 157.040894 116.774319 
L 157.548992 117.24865 
L 158.463568 118.185791 
L 159.276525 118.9231 
L 163.036449 123.079139 
L 163.341308 123.083503 
L 164.357504 122.776482 
L 164.763982 123.13974 
L 165.170461 123.491493 
L 165.475319 123.467485 
L 166.288276 122.942713 
L 166.491515 123.216813 
L 166.897994 124.377165 
L 167.304472 125.302222 
L 167.507711 125.242195 
L 167.71095 124.724837 
L 168.015809 123.179381 
L 168.930385 117.725552 
L 169.336864 116.50871 
L 169.743342 115.865813 
L 170.14982 115.642582 
L 170.861157 115.524799 
L 171.166016 115.690467 
L 171.572495 116.232371 
L 172.182212 117.055836 
L 172.58869 117.226798 
L 173.096788 117.128416 
L 174.214604 116.879594 
L 174.519463 117.050269 
L 174.925941 117.539373 
L 175.637278 118.427857 
L 176.043756 118.5729 
L 177.161572 118.555115 
L 177.56805 118.630672 
L 177.974529 118.971882 
L 178.889105 119.900831 
L 179.498822 120.136103 
L 180.718257 120.487355 
L 181.429594 121.067852 
L 182.242551 121.923861 
L 183.563606 123.843143 
L 184.173323 124.145802 
L 185.697617 125.354035 
L 186.815433 125.690596 
L 187.52677 126.312071 
L 188.339726 127.313773 
L 188.746205 128.101391 
L 189.254303 129.683444 
L 189.660781 130.821232 
L 189.96564 131.134261 
L 190.372118 131.254145 
L 190.575357 131.584087 
L 190.778596 132.405995 
L 190.981836 134.030423 
L 191.286694 138.646046 
L 191.794792 151.754369 
L 192.30289 163.426516 
L 192.607749 166.442309 
L 192.810988 167.0219 
L 193.014227 166.956727 
L 193.623945 166.279315 
L 193.827184 166.382112 
L 194.132043 166.871936 
L 194.84338 168.769205 
L 195.351478 169.715122 
L 195.757956 169.976773 
L 196.774152 170.320176 
L 197.079011 170.352794 
L 197.28225 170.028214 
L 197.485489 169.194283 
L 197.790348 166.694464 
L 198.400065 158.603891 
L 198.908163 153.215147 
L 199.213022 151.737438 
L 199.416261 151.404327 
L 200.025979 151.098988 
L 200.330838 150.101133 
L 201.448653 145.028433 
L 202.058371 143.913094 
L 202.668088 142.633187 
L 204.192382 138.530472 
L 204.802099 136.921024 
L 205.310197 136.173704 
L 206.021534 135.150736 
L 207.13935 133.246709 
L 207.850687 132.602431 
L 208.257165 132.531006 
L 208.968502 132.670525 
L 209.57822 132.850345 
L 209.883079 132.640976 
L 210.391177 131.799766 
L 210.899275 131.116708 
L 211.204133 131.055885 
L 211.508992 131.259542 
L 212.220329 131.85319 
L 213.236525 132.155453 
L 214.151101 132.267463 
L 214.45596 132.807567 
L 214.760819 133.930024 
L 215.777015 138.621111 
L 215.878634 138.673062 
L 216.081874 138.390035 
L 216.386732 137.163729 
L 217.199689 133.196753 
L 217.402928 133.022605 
L 217.606167 133.334223 
L 218.215885 135.437078 
L 218.723983 136.642144 
L 219.232081 137.335618 
L 219.943418 137.888963 
L 221.061233 138.876915 
L 221.467712 139.385766 
L 221.77257 140.301809 
L 222.179049 142.658746 
L 222.687147 145.751576 
L 222.890386 146.15467 
L 222.992005 146.093 
L 223.195245 145.475813 
L 224.008201 141.625346 
L 224.21144 141.576268 
L 224.719538 141.919231 
L 224.922778 141.679775 
L 225.634115 140.311762 
L 225.837354 140.294728 
L 226.142213 140.545117 
L 228.479463 143.057052 
L 231.324812 144.982164 
L 232.137768 145.674589 
L 232.950725 146.306016 
L 233.865301 146.696427 
L 234.475019 146.682201 
L 234.983117 146.718551 
L 235.491215 146.971414 
L 236.304171 147.677532 
L 238.336563 149.480005 
L 239.555998 150.302196 
L 241.080292 150.853937 
L 241.48677 150.675638 
L 242.198107 150.26566 
L 242.502966 150.342146 
L 242.909444 150.698169 
L 243.92564 151.699144 
L 244.332119 151.771383 
L 244.636977 151.642927 
L 245.043456 151.192942 
L 246.669369 148.523216 
L 247.583945 146.704189 
L 247.990424 146.421724 
L 248.498522 146.471156 
L 249.209859 146.52338 
L 249.819576 146.34122 
L 250.530913 146.060432 
L 251.039011 146.194503 
L 253.071403 147.012302 
L 254.290838 147.096307 
L 255.205414 147.337177 
L 257.136187 148.306217 
L 258.558861 148.134403 
L 258.863719 147.909108 
L 259.168578 147.351134 
L 259.473437 146.220056 
L 259.879915 143.634092 
L 260.591252 138.952685 
L 260.794492 138.491056 
L 260.997731 138.420783 
L 261.404209 138.538308 
L 261.607448 138.361762 
L 262.522025 137.084123 
L 262.826883 137.290554 
L 264.351177 138.849887 
L 264.656036 138.901929 
L 265.672232 138.694814 
L 266.485188 139.074937 
L 267.196526 139.025 
L 268.111102 138.894192 
L 268.720819 139.235424 
L 269.737015 139.855423 
L 270.549972 141.053498 
L 272.277505 143.389852 
L 273.49694 144.740123 
L 273.700179 144.675285 
L 273.903418 144.392412 
L 274.309897 143.224399 
L 274.716375 142.231862 
L 274.919614 142.274886 
L 275.122853 142.748143 
L 275.732571 144.671082 
L 275.83419 144.709068 
L 276.03743 144.412775 
L 276.647147 142.660348 
L 276.748767 142.679286 
L 276.952006 143.294959 
L 277.256865 145.77489 
L 278.273061 156.729115 
L 278.577919 157.4652 
L 278.781158 157.429113 
L 279.492496 156.814544 
L 279.695735 157.091183 
L 280.000594 158.075047 
L 280.610311 160.208747 
L 280.81355 160.412115 
L 281.016789 160.3792 
L 281.423268 159.997555 
L 281.829746 159.582107 
L 282.032985 159.68824 
L 282.236224 160.385621 
L 282.541083 162.915734 
L 283.150801 168.988271 
L 283.35404 169.279045 
L 283.557279 168.309466 
L 283.963757 163.794375 
L 284.471855 158.462297 
L 284.776714 156.998286 
L 285.081573 156.383987 
L 286.301008 154.851752 
L 286.605867 153.639275 
L 287.012345 150.574382 
L 287.520443 146.619689 
L 287.622063 146.39213 
L 287.723682 146.493714 
L 287.926921 147.784261 
L 288.3334 153.721636 
L 288.739878 159.038862 
L 288.943117 159.922897 
L 289.044737 159.941373 
L 289.247976 159.447304 
L 289.857693 157.62246 
L 290.264172 157.267854 
L 290.873889 157.123018 
L 291.788466 157.171777 
L 292.499803 157.125691 
L 293.10952 156.845761 
L 293.922477 156.123335 
L 294.532194 155.714852 
L 294.938673 155.69436 
L 296.361347 156.106643 
L 296.666206 156.295207 
L 296.971064 156.813018 
L 297.275923 157.949802 
L 297.98726 161.197551 
L 298.08888 161.117645 
L 298.292119 160.166025 
L 298.596978 156.951853 
L 299.511554 146.067566 
L 299.918032 143.752816 
L 300.42613 142.191315 
L 300.934228 141.359854 
L 301.848805 140.496727 
L 303.169859 139.327809 
L 304.592533 138.539812 
L 305.303871 137.960255 
L 306.218447 137.613518 
L 306.929784 137.327847 
L 307.437882 136.764288 
L 308.149219 135.903245 
L 308.555697 135.712239 
L 309.368654 135.724353 
L 310.181611 135.63923 
L 310.689709 135.27738 
L 311.197807 134.940514 
L 311.604285 134.953216 
L 312.620481 135.234767 
L 313.331818 135.143365 
L 313.535057 134.887859 
L 313.839916 133.993155 
L 314.348014 131.340588 
L 314.754492 129.596955 
L 314.957731 129.249061 
L 315.16097 129.23939 
L 315.465829 129.618078 
L 316.786884 131.803121 
L 316.990123 131.755446 
L 317.193362 131.268669 
L 317.498221 129.482311 
L 317.80308 126.205238 
L 318.209558 119.231169 
L 319.022515 104.309321 
L 319.428993 101.077468 
L 319.733852 100.187975 
L 320.038711 99.866057 
L 320.343569 99.824956 
L 320.546809 100.058281 
L 320.851667 101.002872 
L 321.258146 102.577519 
L 321.359765 102.680189 
L 321.461385 102.537192 
L 321.664624 101.35276 
L 321.969483 97.473748 
L 322.5792 89.475168 
L 322.782439 88.536604 
L 322.985679 88.37825 
L 323.188918 88.69238 
L 323.595396 90.015956 
L 324.103494 92.628685 
L 324.713212 95.696956 
L 324.916451 95.965538 
L 325.11969 95.833795 
L 325.729407 95.091416 
L 326.034266 95.093459 
L 326.440745 95.32588 
L 327.761799 96.519693 
L 328.066658 96.419674 
L 328.371517 95.993497 
L 329.286093 94.273251 
L 329.489332 94.570084 
L 329.692571 95.518506 
L 329.99743 98.353135 
L 330.607148 104.931212 
L 330.810387 105.340063 
L 331.013626 104.366009 
L 331.318485 100.798975 
L 332.029822 91.180397 
L 332.334681 89.225331 
L 332.639539 88.411591 
L 333.147637 87.618788 
L 333.350876 86.846052 
L 333.655735 84.509966 
L 334.671931 74.114033 
L 334.773551 74.042524 
L 334.97679 74.499484 
L 335.383268 76.764756 
L 336.094605 80.845798 
L 336.501084 81.970189 
L 336.704323 82.1084 
L 336.907562 82.008994 
L 337.41566 81.268434 
L 337.822138 80.534218 
L 338.126997 79.391732 
L 338.635095 75.993687 
L 339.448052 69.49256 
L 340.261008 61.695116 
L 340.464248 61.180718 
L 340.769106 60.936678 
L 340.972345 60.173856 
L 341.175585 58.206976 
L 341.480443 52.614569 
L 342.090161 39.69249 
L 342.2934 38.124084 
L 342.39502 38.085455 
L 342.598259 39.309239 
L 343.004737 44.885355 
L 343.614455 52.856971 
L 343.919314 54.647202 
L 344.224172 55.33509 
L 345.037129 56.451834 
L 345.545227 57.770037 
L 346.053325 58.906076 
L 346.358184 59.028563 
L 346.764662 58.960903 
L 346.967901 59.174999 
L 347.27276 59.979927 
L 347.679238 61.060367 
L 347.780858 61.111692 
L 347.882477 61.023064 
L 348.085717 60.395547 
L 348.492195 57.771239 
L 348.898673 55.242793 
L 349.203532 54.539695 
L 349.406771 54.590747 
L 349.914869 54.969823 
L 350.118108 54.717687 
L 350.422967 53.6729 
L 351.540783 48.489417 
L 351.642402 48.495154 
L 351.845641 48.925151 
L 352.1505 50.421104 
L 352.861837 54.216039 
L 353.268315 55.205743 
L 354.69099 57.703246 
L 356.012044 60.481591 
L 356.418523 60.584172 
L 356.723381 60.700133 
L 357.12986 61.204712 
L 357.637958 61.789948 
L 358.044436 61.89689 
L 358.450914 62.063986 
L 358.755773 62.481718 
L 359.263871 63.748949 
L 360.076828 65.904939 
L 360.381687 66.133708 
L 360.584926 65.996519 
L 360.991404 65.261727 
L 361.296263 64.805669 
L 361.499502 64.761353 
L 361.702741 64.957396 
L 362.10922 65.843089 
L 362.718937 67.202436 
L 363.023796 67.477087 
L 363.328655 67.475069 
L 363.836752 67.445637 
L 364.141611 67.741628 
L 364.44647 68.45208 
L 364.751329 69.982393 
L 365.056188 73.383203 
L 365.361046 79.83983 
L 365.970764 94.771326 
L 366.174003 95.97624 
L 366.275623 95.719904 
L 366.682101 93.80458 
L 366.783721 94.266896 
L 366.98696 97.163971 
L 367.901536 115.791831 
L 368.003156 115.937653 
L 368.206395 115.347346 
L 368.714493 113.107148 
L 368.917732 112.977152 
L 369.120971 113.401379 
L 369.42583 115.020578 
L 369.832308 119.134122 
L 370.848504 131.575672 
L 370.950124 131.810364 
L 371.051743 131.737071 
L 371.254982 130.628424 
L 371.559841 126.474738 
L 371.966319 116.764172 
L 372.677657 99.192322 
L 372.982515 96.19693 
L 373.084135 96.078253 
L 373.185754 96.42994 
L 373.388994 98.556993 
L 373.693852 104.923988 
L 374.405189 121.215406 
L 374.506809 121.522022 
L 374.608429 120.904752 
L 374.811668 116.791329 
L 375.218146 100.198559 
L 375.726244 80.647935 
L 376.132722 73.403667 
L 376.539201 70.211368 
L 377.148918 67.124269 
L 377.453777 66.254793 
L 377.657016 66.046083 
L 377.961875 66.093367 
L 378.368353 66.195602 
L 378.978071 66.162489 
L 379.28293 66.442529 
L 380.197506 67.600275 
L 380.705604 67.629731 
L 381.010463 67.494094 
L 381.213702 66.976172 
L 381.416941 65.674301 
L 381.7218 61.618534 
L 382.737996 44.415047 
L 382.941235 43.739317 
L 383.042854 43.707877 
L 383.246094 44.016223 
L 384.363909 46.627725 
L 384.973627 47.751526 
L 385.176866 48.571866 
L 385.380105 50.223108 
L 385.684964 55.490152 
L 386.802779 82.54865 
L 387.514116 88.750669 
L 388.022214 90.413631 
L 388.225453 92.459355 
L 388.631932 100.319655 
L 389.546508 119.899244 
L 390.054606 125.775566 
L 391.5789 139.393175 
L 392.290237 149.870139 
L 392.493476 150.531043 
L 392.595096 150.327029 
L 392.899954 148.490295 
L 393.306433 146.044777 
L 393.712911 144.95104 
L 394.221009 143.970211 
L 394.729107 142.33975 
L 395.135585 141.10439 
L 395.338824 140.894796 
L 395.542064 141.090774 
L 395.948542 142.28224 
L 396.253401 142.991678 
L 396.45664 143.086084 
L 396.659879 142.906686 
L 397.371216 142.030111 
L 397.676075 142.122164 
L 397.980934 142.540362 
L 398.387412 143.626194 
L 398.89551 145.797446 
L 399.301988 148.402032 
L 401.131141 162.624295 
L 401.33438 163.037213 
L 401.436 163.016007 
L 401.639239 162.49909 
L 401.944097 160.769495 
L 402.655435 156.490563 
L 403.061913 155.362192 
L 403.265152 155.15589 
L 403.468391 155.222449 
L 403.77325 155.802849 
L 404.586207 157.886623 
L 404.789446 157.996923 
L 404.992685 157.861073 
L 405.399163 157.112816 
L 407.025077 153.902577 
L 407.329936 153.695434 
L 407.533175 153.840304 
L 407.838034 154.400655 
L 408.854229 156.671255 
L 409.159088 156.871526 
L 409.463947 156.735283 
L 410.480143 155.705253 
L 410.785002 155.854006 
L 411.293099 156.166681 
L 411.496339 156.003072 
L 411.801197 155.217425 
L 412.919013 151.152845 
L 413.122252 151.078787 
L 413.325491 151.283508 
L 413.63035 152.017388 
L 414.341687 154.662138 
L 415.662742 160.239623 
L 415.865981 162.066163 
L 416.06922 165.492951 
L 416.374079 175.459038 
L 417.187035 210.684876 
L 417.288655 211.144349 
L 417.390275 210.21588 
L 417.593514 204.865408 
L 418.50809 172.528812 
L 418.914568 166.516804 
L 419.219427 164.307936 
L 419.422666 163.815806 
L 419.524286 163.873062 
L 419.727525 164.624095 
L 420.032384 167.39881 
L 421.04858 179.34415 
L 421.150199 179.471282 
L 421.353439 179.240521 
L 421.759917 178.572473 
L 421.861536 178.674729 
L 422.064776 179.466769 
L 422.369634 182.165311 
L 422.776113 185.966478 
L 422.877732 186.275552 
L 422.979352 186.195517 
L 423.182591 184.950757 
L 424.097167 176.382593 
L 425.8247 168.749497 
L 425.92632 168.735402 
L 426.129559 169.219483 
L 426.536037 171.485166 
L 427.044135 173.950673 
L 427.857092 176.824753 
L 427.958712 176.808098 
L 428.161951 176.113813 
L 428.974908 171.394661 
L 429.483005 170.331284 
L 430.295962 167.867106 
L 430.499201 167.778963 
L 430.80406 167.933947 
L 431.413778 168.317239 
L 431.718636 168.293113 
L 431.718636 168.293113 
" clip-path="url(#pc91f10ea7e)" style="fill: none; stroke-dasharray: 1.85,0.8; stroke-dashoffset: 0; stroke: #1f77b4; stroke-width: 0.5"/>
   </g>
   <g id="line2d_30">
    <path d="M 66.091364 130.184758 
L 67.615657 139.979646 
L 68.631853 145.263535 
L 69.44481 148.412472 
L 70.054528 149.992321 
L 70.562625 150.731225 
L 70.969104 150.983916 
L 71.375582 150.998235 
L 71.88368 150.768755 
L 72.696637 150.095308 
L 73.611213 149.392463 
L 74.119311 149.25827 
L 74.525789 149.37345 
L 75.033887 149.775484 
L 75.745224 150.654797 
L 77.371138 152.784214 
L 77.879236 153.1223 
L 78.285714 153.169879 
L 78.692192 152.985624 
L 79.30191 152.382716 
L 81.131062 150.251369 
L 81.537541 150.125202 
L 81.944019 150.264902 
L 82.350497 150.734863 
L 82.858595 151.829963 
L 83.671552 154.322565 
L 84.890987 158.032423 
L 85.399085 158.952455 
L 85.703944 159.188774 
L 86.008803 159.130971 
L 86.313661 158.732128 
L 86.72014 157.602948 
L 87.228238 155.318661 
L 87.939575 150.898159 
L 89.362249 140.091791 
L 90.480064 132.425961 
L 91.191402 128.994231 
L 91.902739 126.61804 
L 92.614076 124.991251 
L 93.528652 123.50815 
L 94.748087 121.547241 
L 95.764283 119.287735 
L 98.304773 113.374943 
L 99.01611 112.317837 
L 99.727447 111.639506 
L 100.540404 111.168251 
L 102.674415 110.113982 
L 103.487372 109.304078 
L 104.808426 107.588979 
L 106.33272 105.694687 
L 107.145677 105.023208 
L 107.958633 104.659279 
L 108.87321 104.525034 
L 110.092645 104.612823 
L 112.937993 104.888458 
L 115.580102 105.162262 
L 118.018972 105.690189 
L 123.201571 107.089805 
L 129.095507 109.062832 
L 129.705225 109.662757 
L 130.314942 110.560725 
L 130.92466 111.831072 
L 131.635997 113.852376 
L 133.770008 120.394151 
L 134.278106 121.211027 
L 134.684585 121.446094 
L 134.989443 121.328533 
L 135.294302 120.923538 
L 135.70078 119.934912 
L 136.310498 117.678517 
L 137.225074 113.196821 
L 138.850988 105.087984 
L 139.460705 103.024456 
L 139.968803 101.97015 
L 140.375281 101.517847 
L 140.78176 101.370143 
L 141.188238 101.48727 
L 141.696336 101.945515 
L 142.306054 102.85024 
L 143.322249 104.870345 
L 146.777315 112.049959 
L 147.895131 113.831717 
L 148.911327 115.044632 
L 149.825903 115.79356 
L 150.63886 116.180647 
L 151.350197 116.300062 
L 152.163154 116.196279 
L 153.585828 115.714219 
L 154.602024 115.464128 
L 155.313361 115.493508 
L 155.923078 115.72482 
L 156.634415 116.227583 
L 157.650611 117.25093 
L 161.004058 120.91316 
L 162.731591 122.271356 
L 165.068841 123.823594 
L 165.881798 124.096558 
L 166.491515 124.095343 
L 167.101233 123.862236 
L 167.71095 123.347405 
L 168.422287 122.365497 
L 169.540103 120.328528 
L 170.962777 117.808212 
L 171.674114 116.975429 
L 172.182212 116.677681 
L 172.69031 116.616602 
L 173.300028 116.786142 
L 174.112984 117.284085 
L 176.043756 118.597459 
L 176.958333 118.838023 
L 178.889105 119.227452 
L 179.600442 119.650253 
L 180.311779 120.378141 
L 181.327975 121.833714 
L 182.852269 124.006043 
L 183.563606 124.630146 
L 184.071704 124.797519 
L 184.681421 124.694496 
L 185.799237 124.431288 
L 186.205715 124.570358 
L 186.612193 124.959443 
L 187.018672 125.677366 
L 187.52677 127.157276 
L 188.034868 129.428099 
L 188.644585 133.3141 
L 189.559161 140.929528 
L 192.40451 166.321638 
L 193.115847 170.427401 
L 193.725564 172.910378 
L 194.233662 174.255174 
L 194.640141 174.860347 
L 194.944999 175.041287 
L 195.249858 174.98943 
L 195.554717 174.705813 
L 195.961195 173.968936 
L 196.469293 172.478442 
L 197.079011 169.957522 
L 197.993587 165.105294 
L 201.042175 147.924653 
L 202.058371 144.003686 
L 203.074566 140.975186 
L 204.090762 138.626168 
L 205.208578 136.589254 
L 206.326393 134.982297 
L 207.545828 133.600116 
L 208.968502 132.314099 
L 209.984698 131.649344 
L 210.696035 131.40843 
L 211.305753 131.400556 
L 211.91547 131.615318 
L 212.525188 132.089941 
L 213.236525 132.971027 
L 214.45596 134.926902 
L 215.777015 136.932521 
L 216.488352 137.641388 
L 217.098069 137.930146 
L 217.809406 138.002974 
L 219.43532 138.051572 
L 220.045037 138.368269 
L 220.553135 138.888735 
L 221.162853 139.878082 
L 222.077429 141.856658 
L 223.703343 145.407313 
L 224.31306 146.277148 
L 224.821158 146.639472 
L 225.227636 146.673105 
L 225.735734 146.456905 
L 226.345452 145.924596 
L 228.682702 143.55195 
L 229.1908 143.455704 
L 229.698898 143.568838 
L 230.410235 143.995582 
L 231.426431 144.929882 
L 233.052344 146.419505 
L 234.06854 146.982539 
L 235.999312 147.695529 
L 237.117128 148.250258 
L 238.438183 149.207521 
L 240.775433 150.934287 
L 241.791629 151.380602 
L 242.706205 151.535101 
L 243.519162 151.456049 
L 244.332119 151.156093 
L 245.145075 150.618897 
L 246.161271 149.652366 
L 249.108239 146.649071 
L 249.921196 146.19543 
L 250.734153 145.994984 
L 251.44549 146.032429 
L 252.156827 146.273104 
L 252.969783 146.802631 
L 253.985979 147.802995 
L 255.408654 149.192651 
L 256.018371 149.527909 
L 256.526469 149.590041 
L 257.034567 149.397686 
L 257.542665 148.906889 
L 258.152382 147.971658 
L 259.066959 146.094238 
L 261.30259 141.291783 
L 262.115546 140.194464 
L 262.928503 139.496731 
L 263.74146 139.096903 
L 264.757656 138.861146 
L 266.688428 138.695751 
L 267.704624 138.830743 
L 268.51758 139.161944 
L 269.228917 139.670994 
L 270.041874 140.536309 
L 272.887222 143.851312 
L 273.49694 144.130214 
L 274.208277 144.169484 
L 275.021234 144.246702 
L 275.529332 144.546375 
L 275.93581 145.035467 
L 276.443908 146.071872 
L 276.952006 147.706488 
L 277.460104 150.074253 
L 278.171441 154.686518 
L 280.711931 172.905474 
L 281.220029 174.716726 
L 281.524887 175.202029 
L 281.728126 175.240845 
L 281.931366 175.064673 
L 282.236224 174.440499 
L 282.642703 173.040078 
L 283.25242 170.042721 
L 285.488051 157.953896 
L 285.89453 156.923127 
L 286.301008 156.457003 
L 286.605867 156.417096 
L 286.910725 156.595209 
L 287.317204 157.098062 
L 288.028541 158.423799 
L 289.146356 160.505607 
L 289.552835 160.914391 
L 289.857693 161.002204 
L 290.162552 160.901358 
L 290.569031 160.525663 
L 291.178748 159.590703 
L 293.10952 156.259385 
L 293.515999 155.983999 
L 293.820857 155.976544 
L 294.227336 156.241276 
L 294.735434 156.902491 
L 296.869445 160.159271 
L 297.174304 160.238062 
L 297.479162 160.115562 
L 297.784021 159.756879 
L 298.1905 158.876448 
L 298.698597 157.221016 
L 299.511554 153.661011 
L 301.950424 142.215926 
L 302.560142 140.506554 
L 303.169859 139.373445 
L 303.779577 138.685453 
L 304.389294 138.311433 
L 305.303871 138.052218 
L 306.320066 137.716324 
L 307.336262 137.083155 
L 309.876752 135.349674 
L 310.791328 135.077354 
L 312.010763 134.98816 
L 313.738296 134.858302 
L 314.551253 134.576865 
L 315.16097 134.146491 
L 315.770688 133.417065 
L 316.380406 132.28793 
L 316.990123 130.658432 
L 317.599841 128.427916 
L 318.311178 124.933371 
L 319.225754 119.134726 
L 321.969483 100.752512 
L 322.68082 97.702057 
L 323.290537 95.99971 
L 323.798635 95.178508 
L 324.205114 94.887079 
L 324.611592 94.900918 
L 325.01807 95.201887 
L 325.526168 95.954241 
L 326.135886 97.361982 
L 326.948843 99.938751 
L 328.574756 105.267636 
L 329.184473 106.472947 
L 329.590952 106.812079 
L 329.895811 106.763788 
L 330.200669 106.417305 
L 330.607148 105.443197 
L 331.115246 103.492863 
L 331.826583 99.780378 
L 334.265453 86.040304 
L 334.87517 84.20511 
L 335.383268 83.309503 
L 335.992986 82.693692 
L 337.110801 81.759289 
L 337.618899 80.944787 
L 338.126997 79.604479 
L 338.635095 77.540368 
L 339.346432 73.464988 
L 342.090161 56.266321 
L 342.598259 54.86215 
L 342.903118 54.522876 
L 343.207976 54.516511 
L 343.512835 54.79253 
L 343.919314 55.512491 
L 344.529031 57.103313 
L 346.053325 61.306391 
L 346.459803 61.889164 
L 346.764662 62.036594 
L 347.069521 61.932986 
L 347.475999 61.462295 
L 347.984097 60.451259 
L 348.797054 58.222729 
L 350.219728 54.235055 
L 350.829445 53.185693 
L 351.235924 52.849339 
L 351.642402 52.779949 
L 352.04888 52.949612 
L 352.556978 53.455343 
L 353.166696 54.420952 
L 353.979653 56.16252 
L 355.503946 60.101188 
L 356.825001 63.298066 
L 357.637958 64.745217 
L 358.247675 65.4131 
L 358.654154 65.609588 
L 359.060632 65.583202 
L 359.670349 65.25276 
L 360.686545 64.668586 
L 361.093024 64.682982 
L 361.499502 64.972724 
L 361.90598 65.626877 
L 362.312459 66.734503 
L 362.820557 68.892417 
L 363.430274 72.746496 
L 364.243231 79.63388 
L 365.462666 92.207913 
L 367.393438 112.111921 
L 368.511253 121.164053 
L 369.42583 126.935197 
L 370.238786 130.78056 
L 370.950124 133.121018 
L 371.458221 134.183942 
L 371.8647 134.632459 
L 372.169559 134.714228 
L 372.474417 134.563307 
L 372.779276 134.166698 
L 373.185754 133.233232 
L 373.693852 131.372732 
L 374.30357 128.043308 
L 374.913287 123.419125 
L 375.726244 115.202006 
L 377.047299 98.915945 
L 378.571593 80.800992 
L 379.384549 73.697671 
L 379.994267 70.043883 
L 380.603984 67.644412 
L 381.112082 66.461161 
L 381.518561 65.966946 
L 381.925039 65.811741 
L 382.331517 65.937287 
L 382.839615 66.400275 
L 383.550952 67.436293 
L 384.16067 68.751638 
L 384.770387 70.713265 
L 385.380105 73.565871 
L 385.989822 77.554153 
L 386.701159 83.968969 
L 387.412497 92.646638 
L 388.428692 108.454384 
L 390.257845 137.337228 
L 390.969182 145.221832 
L 391.47728 148.685169 
L 391.883758 150.047092 
L 392.188617 150.375205 
L 392.391856 150.314184 
L 392.696715 149.8702 
L 393.103193 148.761416 
L 393.814531 146.003439 
L 394.729107 142.541055 
L 395.135585 141.614735 
L 395.440444 141.355497 
L 395.643683 141.419429 
L 395.948542 141.837815 
L 396.35502 142.918045 
L 396.964738 145.411415 
L 397.980934 150.884374 
L 399.200369 157.290751 
L 399.810086 159.498814 
L 400.318184 160.683128 
L 400.826282 161.362641 
L 401.23276 161.601568 
L 401.639239 161.618179 
L 402.147337 161.394528 
L 402.858674 160.781909 
L 405.297544 158.445733 
L 407.228316 156.992615 
L 408.854229 155.980004 
L 409.667186 155.71329 
L 410.378523 155.724324 
L 410.988241 155.972528 
L 411.597958 156.488876 
L 412.106056 157.180226 
L 412.614154 158.262799 
L 413.122252 159.910188 
L 413.63035 162.295984 
L 414.240067 166.378053 
L 414.849785 172.073367 
L 415.561122 181.157049 
L 416.374079 194.963798 
L 418.406471 231.161095 
L 419.016188 237.806971 
L 419.422666 240.098071 
L 419.625906 240.474678 
L 419.727525 240.45221 
L 419.930764 239.97055 
L 420.235623 238.246231 
L 420.642101 234.32902 
L 421.251819 225.765674 
L 422.268015 207.526175 
L 423.48745 186.483605 
L 424.097167 179.295273 
L 424.605265 175.592294 
L 425.011744 173.872871 
L 425.418222 173.047292 
L 425.723081 172.897522 
L 426.02794 173.058802 
L 426.434418 173.615675 
L 427.857092 175.956913 
L 428.161951 176.011194 
L 428.46681 175.830304 
L 428.873288 175.273389 
L 429.381386 174.166437 
L 430.194343 171.762206 
L 431.718636 166.882333 
L 431.718636 166.882333 
" clip-path="url(#pc91f10ea7e)" style="fill: none; stroke: #ff7f0e; stroke-width: 0.5; stroke-linecap: square"/>
   </g>
   <g id="line2d_31">
    <path d="M 66.091364 281.706381 
L 66.192983 281.706381 
L 66.294603 275.73993 
L 66.599462 289.346503 
L 66.802701 290.994545 
L 66.90432 290.929126 
L 67.10756 290.017515 
L 68.022136 284.936046 
L 68.428614 283.54243 
L 68.835092 279.147263 
L 69.54643 272.071055 
L 69.851288 270.481929 
L 70.054528 270.106097 
L 70.156147 270.121022 
L 70.359386 270.509413 
L 70.664245 271.788373 
L 72.086919 279.025695 
L 72.595017 280.250794 
L 73.103115 280.924292 
L 73.712833 281.336734 
L 74.525789 281.57051 
L 75.948464 281.682798 
L 76.659801 281.598447 
L 77.472757 280.991424 
L 78.082475 280.793022 
L 79.505149 281.504532 
L 80.622965 281.655043 
L 82.655356 281.701937 
L 82.858595 281.542806 
L 83.468313 280.479593 
L 84.890987 277.323371 
L 85.094226 276.666736 
L 85.195846 276.680425 
L 85.399085 277.155869 
L 86.313661 279.929337 
L 86.821759 280.740767 
L 87.329857 281.18744 
L 87.533096 281.300761 
L 87.634716 280.88746 
L 88.041194 277.267892 
L 88.244434 276.707013 
L 88.447673 276.805938 
L 88.650912 276.894196 
L 88.854151 276.373342 
L 89.260629 273.730772 
L 89.565488 272.220166 
L 89.768727 271.988655 
L 89.971966 272.280883 
L 90.581684 274.270901 
L 90.988162 276.214827 
L 91.59788 278.890612 
L 92.105978 280.173784 
L 92.614076 280.882324 
L 93.223793 281.316806 
L 93.731891 281.497918 
L 93.833511 281.42966 
L 94.03675 280.406819 
L 94.544848 276.765015 
L 95.154565 270.224802 
L 95.662663 265.501344 
L 95.865903 264.839322 
L 95.967522 264.821959 
L 96.170761 265.33747 
L 96.47562 267.099629 
L 97.695055 275.403675 
L 98.406392 278.181646 
L 98.91449 279.736514 
L 99.422588 280.638906 
L 99.930686 281.133174 
L 100.540404 281.435514 
L 100.845262 281.520249 
L 100.946882 281.41805 
L 101.251741 279.650656 
L 101.556599 278.069954 
L 101.658219 278.037195 
L 101.861458 278.342766 
L 102.776034 280.375864 
L 102.877654 280.43187 
L 103.182513 279.730097 
L 103.487372 279.154874 
L 103.690611 279.221012 
L 104.300328 280.237564 
L 104.706807 280.698198 
L 105.519763 281.282645 
L 106.33272 281.547723 
L 107.552155 281.670931 
L 110.092645 281.666254 
L 110.397503 281.25734 
L 110.600743 281.037874 
L 110.905601 281.062731 
L 112.429895 281.581282 
L 113.852569 281.68455 
L 114.868765 281.627396 
L 115.478483 280.694309 
L 115.681722 280.688371 
L 116.393059 281.153967 
L 117.104396 281.466074 
L 118.120592 281.636996 
L 120.254603 281.701352 
L 123.50643 281.661318 
L 124.014528 281.315823 
L 124.522626 281.274886 
L 126.656637 281.492607 
L 127.774453 281.649992 
L 130.314942 281.703883 
L 130.619801 281.660192 
L 131.026279 280.831569 
L 131.940856 278.458377 
L 133.058671 275.735516 
L 133.973248 274.000325 
L 134.582965 273.232286 
L 134.786204 273.964159 
L 135.8024 278.999906 
L 136.310498 280.239862 
L 136.818596 280.91891 
L 136.920216 280.893898 
L 137.123455 278.832929 
L 137.834792 270.775489 
L 138.038031 269.873615 
L 138.139651 269.75114 
L 138.24127 269.839883 
L 138.444509 270.528162 
L 138.952607 273.781229 
L 139.562325 277.568999 
L 140.070423 279.446348 
L 140.578521 280.489879 
L 141.086619 281.05448 
L 141.696336 281.398535 
L 142.610912 281.606548 
L 144.338445 281.694478 
L 145.151402 281.661167 
L 145.354641 280.929042 
L 145.862739 278.807121 
L 146.065978 278.633245 
L 146.370837 279.12363 
L 147.183794 280.614596 
L 147.793511 281.182037 
L 148.09837 281.345127 
L 148.19999 281.253434 
L 148.606468 280.200606 
L 148.809707 280.250042 
L 150.334001 281.413578 
L 151.248577 281.610856 
L 152.468012 281.672723 
L 152.671251 281.432548 
L 153.07773 281.009813 
L 153.280969 280.919356 
L 153.687447 281.07793 
L 154.602024 281.475077 
L 155.618219 281.639239 
L 157.85385 281.702081 
L 163.849406 281.680702 
L 164.357504 281.397362 
L 168.117429 281.580131 
L 169.133624 277.914994 
L 169.438483 277.761555 
L 169.743342 277.916446 
L 170.25144 278.569725 
L 171.166016 280.490577 
L 171.674114 281.046112 
L 172.283832 281.393203 
L 173.096788 281.591152 
L 174.112984 281.626192 
L 180.718257 281.555568 
L 181.632834 280.934665 
L 182.242551 280.680494 
L 182.54741 280.812349 
L 183.563606 281.402577 
L 184.478182 281.606446 
L 186.205715 281.694449 
L 187.32353 281.620026 
L 187.730009 280.554092 
L 188.238107 278.562002 
L 189.457542 272.316739 
L 189.96564 268.385541 
L 190.880216 260.833204 
L 191.083455 262.439842 
L 192.099651 274.899521 
L 192.607749 278.015774 
L 192.912608 279.163318 
L 193.014227 279.090272 
L 193.522325 276.100107 
L 193.928804 274.964501 
L 194.132043 274.820992 
L 194.335282 274.906413 
L 194.640141 275.344082 
L 195.554717 277.204742 
L 196.367674 279.780184 
L 196.875772 280.658185 
L 197.38387 281.142814 
L 197.891968 281.404451 
L 197.993587 281.127211 
L 198.806544 275.571224 
L 198.908163 275.530012 
L 199.111403 276.057907 
L 200.127598 279.729783 
L 200.534077 280.470937 
L 201.753512 281.329164 
L 202.566468 281.565627 
L 203.887523 281.678639 
L 206.123154 281.6863 
L 207.03773 281.29059 
L 208.562024 281.626965 
L 210.492796 281.698958 
L 212.830047 281.615794 
L 213.439764 280.90513 
L 213.744623 280.196027 
L 213.947862 280.186272 
L 214.45596 280.681854 
L 215.167297 281.248169 
L 215.878634 281.513058 
L 216.285113 281.588957 
L 216.386732 281.481225 
L 216.691591 279.65739 
L 217.199689 277.129206 
L 217.301309 276.966012 
L 217.402928 277.034606 
L 217.707787 277.856438 
L 218.419124 279.893798 
L 218.927222 280.71853 
L 219.43532 281.175005 
L 220.146657 281.484537 
L 222.077429 281.660638 
L 223.296864 281.696092 
L 223.398484 281.463061 
L 224.008201 277.721813 
L 224.21144 277.40328 
L 224.821158 277.182178 
L 225.634115 275.77992 
L 225.837354 275.896753 
L 226.243832 276.617257 
L 227.158408 278.885176 
L 227.768126 280.289015 
L 228.276224 280.93811 
L 228.885941 281.342203 
L 229.698898 281.572414 
L 231.121572 281.683139 
L 234.17016 281.678968 
L 234.678258 281.459529 
L 240.673813 281.706099 
L 241.181911 281.676764 
L 241.58839 281.269181 
L 241.893249 280.903683 
L 242.198107 280.965303 
L 243.417542 281.502708 
L 244.535358 281.654404 
L 246.36451 281.674475 
L 246.872608 281.185392 
L 247.482326 280.669663 
L 248.092043 281.073623 
L 248.80338 281.427402 
L 249.717957 281.614884 
L 251.547109 281.696741 
L 253.579501 281.629205 
L 254.595697 280.678336 
L 255.205414 280.291567 
L 255.815132 280.252479 
L 256.018371 280.292262 
L 257.644284 281.452847 
L 258.66048 281.633475 
L 259.778296 281.687879 
L 259.879915 281.458728 
L 260.489633 278.509121 
L 260.692872 278.226287 
L 260.896111 278.390195 
L 261.607448 279.521262 
L 261.912307 279.350977 
L 262.318785 279.087435 
L 262.623644 279.532644 
L 263.334981 280.678726 
L 263.944699 281.211022 
L 264.656036 281.49899 
L 265.773851 281.653966 
L 268.415961 281.70433 
L 274.106657 281.639645 
L 274.614755 280.347485 
L 274.817995 280.414283 
L 275.93581 281.289474 
L 276.03743 281.221979 
L 276.240669 279.980911 
L 276.443908 278.619956 
L 276.647147 278.389586 
L 276.850386 278.68017 
L 277.866582 280.650008 
L 278.37468 281.134022 
L 278.577919 281.259778 
L 278.679539 280.943776 
L 279.695735 272.50516 
L 280.102213 271.050282 
L 280.711931 269.430015 
L 281.423268 266.918584 
L 281.524887 266.769137 
L 281.728126 265.70866 
L 281.829746 265.892244 
L 282.134605 268.618096 
L 282.845942 275.529097 
L 283.35404 278.338643 
L 283.862138 279.894692 
L 283.963757 279.861522 
L 284.471855 277.614243 
L 284.573475 277.623862 
L 284.776714 278.008515 
L 285.69129 280.261573 
L 285.996149 280.661066 
L 286.199388 280.551861 
L 286.402627 280.109758 
L 286.707486 278.551795 
L 287.113965 274.888358 
L 287.418823 271.303835 
L 287.520443 271.182549 
L 287.723682 272.032461 
L 288.739878 278.303041 
L 289.247976 279.861566 
L 289.349595 280.041706 
L 289.451215 279.926932 
L 289.756074 278.794202 
L 290.060933 278.418531 
L 290.467411 278.440018 
L 290.67065 278.726368 
L 291.686846 280.666157 
L 292.296563 281.20848 
L 293.007901 281.4983 
L 294.125716 281.653725 
L 294.328955 281.452817 
L 295.243532 279.987117 
L 296.056488 278.667753 
L 296.259727 278.287468 
L 296.462967 278.508347 
L 297.682402 280.807745 
L 298.292119 281.278129 
L 298.495358 281.372561 
L 298.596978 281.191406 
L 299.613174 274.181559 
L 299.816413 274.051677 
L 300.019652 274.227417 
L 300.324511 274.873028 
L 300.934228 276.93765 
L 301.543946 279.229138 
L 302.052044 280.354524 
L 302.560142 280.978935 
L 303.169859 281.362387 
L 303.982816 281.579921 
L 305.40549 281.684432 
L 307.742741 281.635149 
L 313.738296 281.52992 
L 314.144775 279.723082 
L 314.754492 277.011244 
L 314.957731 276.798507 
L 315.26259 277.610829 
L 315.973927 279.764262 
L 316.482025 280.646863 
L 316.990123 281.136297 
L 317.599841 281.436792 
L 317.70146 281.338738 
L 317.904699 279.653083 
L 318.412797 272.617901 
L 318.920895 266.422061 
L 319.225754 265.174696 
L 319.327374 265.167016 
L 319.530613 265.655398 
L 320.038711 268.341169 
L 320.953287 276.460585 
L 321.461385 278.854803 
L 321.766244 279.740347 
L 321.867863 279.624505 
L 322.68082 272.940002 
L 322.782439 272.961058 
L 322.985679 273.785653 
L 323.900255 278.61212 
L 324.408353 280.024969 
L 324.916451 280.802755 
L 325.424549 281.222346 
L 325.526168 281.208298 
L 326.034266 279.987823 
L 327.66018 276.039471 
L 328.269897 273.733263 
L 329.184473 269.223855 
L 329.286093 269.403488 
L 329.590952 271.566657 
L 330.302289 276.932278 
L 330.810387 279.104526 
L 331.216865 280.121313 
L 331.318485 280.0675 
L 331.623344 277.20661 
L 332.029822 274.585343 
L 332.233061 274.360039 
L 332.4363 274.760157 
L 332.842779 276.570204 
L 333.249257 278.169105 
L 333.452496 278.280355 
L 333.655735 277.651121 
L 333.960594 275.411104 
L 334.468692 271.435804 
L 334.570312 271.115686 
L 334.671931 271.296366 
L 334.97679 273.159861 
L 335.688127 277.691439 
L 336.196225 279.518965 
L 336.704323 280.529894 
L 337.212421 281.076077 
L 337.822138 281.408753 
L 338.228617 281.489554 
L 338.431856 280.99774 
L 338.838334 280.027808 
L 339.346432 279.049066 
L 339.75291 277.207999 
L 339.95615 276.423052 
L 340.057769 276.46551 
L 340.362628 277.347611 
L 341.073965 279.611398 
L 341.175585 279.329855 
L 341.480443 275.464491 
L 342.191781 264.474928 
L 342.39502 265.834816 
L 343.411216 276.111127 
L 343.919314 278.673075 
L 344.427411 280.077364 
L 344.630651 280.347938 
L 345.341988 279.62546 
L 346.053325 279.607036 
L 346.459803 279.044445 
L 346.764662 279.470182 
L 347.577619 280.761328 
L 348.187336 281.252506 
L 348.288956 281.260832 
L 348.492195 280.498542 
L 348.695434 279.829083 
L 348.898673 279.78967 
L 349.305152 280.265055 
L 350.016489 281.046262 
L 350.524587 281.347979 
L 350.626206 281.183357 
L 351.337543 278.023916 
L 351.540783 278.267012 
L 352.760218 280.741436 
L 353.369935 281.246557 
L 354.081272 281.514423 
L 355.097468 281.631261 
L 355.707186 281.444675 
L 356.012044 281.059099 
L 357.02824 279.332916 
L 357.841197 278.870705 
L 358.146056 278.387725 
L 358.349295 278.634072 
L 359.46711 280.74165 
L 360.076828 281.245657 
L 360.788165 281.513948 
L 361.90598 281.65763 
L 362.312459 281.623775 
L 362.617317 281.108871 
L 362.922176 279.969125 
L 363.328655 277.448457 
L 364.751329 266.826118 
L 364.852948 267.113319 
L 365.157807 269.764833 
L 365.869144 276.107272 
L 366.174003 277.473532 
L 366.377242 274.295431 
L 366.580481 271.894594 
L 366.682101 271.805679 
L 366.88534 272.629734 
L 367.901536 278.522069 
L 368.104775 279.13336 
L 368.206395 278.627708 
L 368.714493 272.514424 
L 369.120971 270.166658 
L 369.32421 269.624122 
L 369.527449 270.647831 
L 370.543645 277.833361 
L 371.051743 279.607516 
L 371.153363 279.613703 
L 371.356602 277.530047 
L 371.661461 271.972084 
L 372.880896 244.608492 
L 372.982515 243.563311 
L 373.084135 243.695811 
L 373.287374 247.319733 
L 374.20195 268.289406 
L 374.710048 274.416324 
L 374.811668 274.352223 
L 375.116527 265.347155 
L 375.624625 249.268032 
L 375.929483 245.357933 
L 376.132722 244.959947 
L 376.335962 245.612413 
L 376.84406 249.004253 
L 377.453777 254.485173 
L 379.486169 276.196053 
L 379.994267 278.719425 
L 380.502365 280.102319 
L 381.010463 280.847406 
L 381.416941 281.18551 
L 381.518561 280.701397 
L 381.823419 275.898857 
L 382.636376 260.958146 
L 382.941235 259.20332 
L 383.144474 259.006187 
L 383.449333 259.281818 
L 383.855811 259.602269 
L 384.16067 259.514071 
L 384.567148 258.974629 
L 384.973627 257.999289 
L 385.176866 257.280429 
L 385.380105 259.517658 
L 386.294681 273.01149 
L 386.802779 276.980489 
L 387.209257 278.640955 
L 387.412497 277.554644 
L 387.717355 274.237012 
L 388.123834 269.807277 
L 388.327073 269.222279 
L 388.428692 269.403833 
L 388.631932 270.452355 
L 389.241649 274.46504 
L 389.444888 274.924946 
L 389.546508 274.923149 
L 389.749747 274.516267 
L 390.156225 272.65316 
L 390.867563 268.974242 
L 390.969182 269.144265 
L 391.274041 271.337531 
L 391.985378 276.820179 
L 392.493476 279.043104 
L 392.899954 280.083831 
L 393.103193 280.276368 
L 393.408052 280.47334 
L 394.322628 281.237121 
L 395.033966 281.507792 
L 396.151781 281.656065 
L 396.45664 281.662799 
L 396.558259 281.424913 
L 398.082553 273.279122 
L 398.489032 272.244884 
L 398.692271 271.978084 
L 398.79389 271.963619 
L 398.997129 271.675963 
L 399.098749 271.858017 
L 399.403608 273.63381 
L 400.114945 277.9176 
L 400.623043 279.642456 
L 401.131141 280.596358 
L 401.639239 281.111691 
L 401.842478 281.243237 
L 401.944097 281.140849 
L 402.858674 277.014782 
L 403.163533 276.637251 
L 403.265152 276.690439 
L 403.570011 277.549124 
L 404.281348 279.742652 
L 404.789446 280.63565 
L 405.195924 280.985648 
L 406.618598 279.3286 
L 406.923457 278.686296 
L 407.126696 278.883351 
L 408.346131 280.913678 
L 408.955849 281.328624 
L 409.768806 281.56722 
L 411.08986 281.678995 
L 411.496339 281.60019 
L 411.801197 280.478635 
L 412.410915 276.758178 
L 413.020632 273.539828 
L 413.52873 271.962684 
L 414.138448 270.250904 
L 414.544926 268.451397 
L 415.053024 265.122637 
L 415.459503 261.68925 
L 415.764361 257.728605 
L 415.9676 259.555121 
L 417.085416 274.765977 
L 417.390275 276.621185 
L 417.491894 274.355387 
L 418.50809 222.021744 
L 418.914568 211.561336 
L 419.321047 206.241427 
L 419.524286 205.506595 
L 419.625906 205.652803 
L 419.829145 207.035021 
L 420.134003 211.771341 
L 421.455058 238.759527 
L 421.658297 240.968189 
L 422.064776 251.784905 
L 422.674493 266.395458 
L 423.182591 273.376213 
L 423.690689 277.22792 
L 424.198787 279.307347 
L 424.706885 280.422664 
L 425.011744 280.697697 
L 425.316602 279.690302 
L 425.723081 278.017097 
L 425.92632 278.25328 
L 427.145755 280.735446 
L 427.755472 281.243663 
L 428.161951 281.425354 
L 428.26357 281.33593 
L 428.974908 278.296232 
L 429.483005 278.424568 
L 429.686245 277.98938 
L 429.787864 278.004391 
L 430.092723 278.610158 
L 430.80406 280.236271 
L 431.312158 280.904221 
L 431.718636 281.217545 
L 431.718636 281.217545 
" clip-path="url(#pc91f10ea7e)" style="fill: none; stroke: #2ca02c; stroke-width: 0.5; stroke-linecap: square"/>
   </g>
   <g id="patch_3">
    <path d="M 47.81 303.64 
L 47.81 25.44 
" style="fill: none; stroke: #000000; stroke-width: 0.8; stroke-linejoin: miter; stroke-linecap: square"/>
   </g>
   <g id="patch_4">
    <path d="M 450 303.64 
L 450 25.44 
" style="fill: none; stroke: #000000; stroke-width: 0.8; stroke-linejoin: miter; stroke-linecap: square"/>
   </g>
   <g id="patch_5">
    <path d="M 47.81 303.64 
L 450 303.64 
" style="fill: none; stroke: #000000; stroke-width: 0.8; stroke-linejoin: miter; stroke-linecap: square"/>
   </g>
   <g id="patch_6">
    <path d="M 47.81 25.44 
L 450 25.44 
" style="fill: none; stroke: #000000; stroke-width: 0.8; stroke-linejoin: miter; stroke-linecap: square"/>
   </g>
   <g id="text_17">
    <!-- cvxEDA (σ=1.2s  data_2_E4) -->
    <g transform="translate(163.25125 19.44) scale(0.12 -0.12)">
     <defs>
      <path id="DejaVuSans-63" d="M 3122 3366 
L 3122 2828 
Q 2878 2963 2633 3030 
Q 2388 3097 2138 3097 
Q 1578 3097 1268 2742 
Q 959 2388 959 1747 
Q 959 1106 1268 751 
Q 1578 397 2138 397 
Q 2388 397 2633 464 
Q 2878 531 3122 666 
L 3122 134 
Q 2881 22 2623 -34 
Q 2366 -91 2075 -91 
Q 1284 -91 818 406 
Q 353 903 353 1747 
Q 353 2603 823 3093 
Q 1294 3584 2113 3584 
Q 2378 3584 2631 3529 
Q 2884 3475 3122 3366 
z
" transform="scale(0.015625)"/>
      <path id="DejaVuSans-76" d="M 191 3500 
L 800 3500 
L 1894 563 
L 2988 3500 
L 3597 3500 
L 2284 0 
L 1503 0 
L 191 3500 
z
" transform="scale(0.015625)"/>
      <path id="DejaVuSans-78" d="M 3513 3500 
L 2247 1797 
L 3578 0 
L 2900 0 
L 1881 1375 
L 863 0 
L 184 0 
L 1544 1831 
L 300 3500 
L 978 3500 
L 1906 2253 
L 2834 3500 
L 3513 3500 
z
" transform="scale(0.015625)"/>
      <path id="DejaVuSans-3c3" d="M 1959 3044 
Q 1484 3044 1228 2700 
Q 959 2341 959 1747 
Q 959 1119 1226 758 
Q 1494 397 1959 397 
Q 2419 397 2687 759 
Q 2956 1122 2956 1747 
Q 2956 2319 2688 2700 
Q 2441 3044 1959 3044 
z
M 1959 3500 
L 3869 3500 
L 3869 2925 
L 3225 2925 
Q 3566 2438 3566 1747 
Q 3566 888 3138 400 
Q 2709 -91 1959 -91 
Q 1206 -91 781 400 
Q 353 888 353 1747 
Q 353 2613 781 3097 
Q 1134 3500 1959 3500 
z
" transform="scale(0.015625)"/>
      <path id="DejaVuSans-3d" d="M 678 2906 
L 4684 2906 
L 4684 2381 
L 678 2381 
L 678 2906 
z
M 678 1631 
L 4684 1631 
L 4684 1100 
L 678 1100 
L 678 1631 
z
" transform="scale(0.015625)"/>
      <path id="DejaVuSans-64" d="M 2906 2969 
L 2906 4863 
L 3481 4863 
L 3481 0 
L 2906 0 
L 2906 525 
Q 2725 213 2448 61 
Q 2172 -91 1784 -91 
Q 1150 -91 751 415 
Q 353 922 353 1747 
Q 353 2572 751 3078 
Q 1150 3584 1784 3584 
Q 2172 3584 2448 3432 
Q 2725 3281 2906 2969 
z
M 947 1747 
Q 947 1113 1208 752 
Q 1469 391 1925 391 
Q 2381 391 2643 752 
Q 2906 1113 2906 1747 
Q 2906 2381 2643 2742 
Q 2381 3103 1925 3103 
Q 1469 3103 1208 2742 
Q 947 2381 947 1747 
z
" transform="scale(0.015625)"/>
      <path id="DejaVuSans-5f" d="M 3263 -1063 
L 3263 -1509 
L -63 -1509 
L -63 -1063 
L 3263 -1063 
z
" transform="scale(0.015625)"/>
     </defs>
     <use xlink:href="#DejaVuSans-63"/>
     <use xlink:href="#DejaVuSans-76" transform="translate(54.980469 0)"/>
     <use xlink:href="#DejaVuSans-78" transform="translate(114.160156 0)"/>
     <use xlink:href="#DejaVuSans-45" transform="translate(173.339844 0)"/>
     <use xlink:href="#DejaVuSans-44" transform="translate(236.523438 0)"/>
     <use xlink:href="#DejaVuSans-41" transform="translate(311.775391 0)"/>
     <use xlink:href="#DejaVuSans-20" transform="translate(380.183594 0)"/>
     <use xlink:href="#DejaVuSans-28" transform="translate(411.970703 0)"/>
     <use xlink:href="#DejaVuSans-3c3" transform="translate(450.984375 0)"/>
     <use xlink:href="#DejaVuSans-3d" transform="translate(514.363281 0)"/>
     <use xlink:href="#DejaVuSans-31" transform="translate(598.152344 0)"/>
     <use xlink:href="#DejaVuSans-2e" transform="translate(661.775391 0)"/>
     <use xlink:href="#DejaVuSans-32" transform="translate(693.5625 0)"/>
     <use xlink:href="#DejaVuSans-73" transform="translate(757.185547 0)"/>
     <use xlink:href="#DejaVuSans-20" transform="translate(809.285156 0)"/>
     <use xlink:href="#DejaVuSans-20" transform="translate(841.072266 0)"/>
     <use xlink:href="#DejaVuSans-64" transform="translate(872.859375 0)"/>
     <use xlink:href="#DejaVuSans-61" transform="translate(936.335938 0)"/>
     <use xlink:href="#DejaVuSans-74" transform="translate(997.615234 0)"/>
     <use xlink:href="#DejaVuSans-61" transform="translate(1036.824219 0)"/>
     <use xlink:href="#DejaVuSans-5f" transform="translate(1098.103516 0)"/>
     <use xlink:href="#DejaVuSans-32" transform="translate(1148.103516 0)"/>
     <use xlink:href="#DejaVuSans-5f" transform="translate(1211.726562 0)"/>
     <use xlink:href="#DejaVuSans-45" transform="translate(1261.726562 0)"/>
     <use xlink:href="#DejaVuSans-34" transform="translate(1324.910156 0)"/>
     <use xlink:href="#DejaVuSans-29" transform="translate(1388.533203 0)"/>
    </g>
   </g>
   <g id="legend_1">
    <g id="patch_7">
     <path d="M 54.81 77.474375 
L 147.71625 77.474375 
Q 149.71625 77.474375 149.71625 75.474375 
L 149.71625 32.44 
Q 149.71625 30.44 147.71625 30.44 
L 54.81 30.44 
Q 52.81 30.44 52.81 32.44 
L 52.81 75.474375 
Q 52.81 77.474375 54.81 77.474375 
z
" style="fill: #ffffff; opacity: 0.8; stroke: #cccccc; stroke-linejoin: miter"/>
    </g>
    <g id="line2d_32">
     <path d="M 56.81 38.538437 
L 66.81 38.538437 
L 76.81 38.538437 
" style="fill: none; stroke-dasharray: 1.85,0.8; stroke-dashoffset: 0; stroke: #1f77b4; stroke-width: 0.5"/>
    </g>
    <g id="text_18">
     <!-- Filtered EDA -->
     <g transform="translate(84.81 42.038437) scale(0.1 -0.1)">
      <defs>
       <path id="DejaVuSans-46" d="M 628 4666 
L 3309 4666 
L 3309 4134 
L 1259 4134 
L 1259 2759 
L 3109 2759 
L 3109 2228 
L 1259 2228 
L 1259 0 
L 628 0 
L 628 4666 
z
" transform="scale(0.015625)"/>
       <path id="DejaVuSans-72" d="M 2631 2963 
Q 2534 3019 2420 3045 
Q 2306 3072 2169 3072 
Q 1681 3072 1420 2755 
Q 1159 2438 1159 1844 
L 1159 0 
L 581 0 
L 581 3500 
L 1159 3500 
L 1159 2956 
Q 1341 3275 1631 3429 
Q 1922 3584 2338 3584 
Q 2397 3584 2469 3576 
Q 2541 3569 2628 3553 
L 2631 2963 
z
" transform="scale(0.015625)"/>
      </defs>
      <use xlink:href="#DejaVuSans-46"/>
      <use xlink:href="#DejaVuSans-69" transform="translate(50.269531 0)"/>
      <use xlink:href="#DejaVuSans-6c" transform="translate(78.052734 0)"/>
      <use xlink:href="#DejaVuSans-74" transform="translate(105.835938 0)"/>
      <use xlink:href="#DejaVuSans-65" transform="translate(145.044922 0)"/>
      <use xlink:href="#DejaVuSans-72" transform="translate(206.568359 0)"/>
      <use xlink:href="#DejaVuSans-65" transform="translate(245.431641 0)"/>
      <use xlink:href="#DejaVuSans-64" transform="translate(306.955078 0)"/>
      <use xlink:href="#DejaVuSans-20" transform="translate(370.431641 0)"/>
      <use xlink:href="#DejaVuSans-45" transform="translate(402.21875 0)"/>
      <use xlink:href="#DejaVuSans-44" transform="translate(465.402344 0)"/>
      <use xlink:href="#DejaVuSans-41" transform="translate(540.654297 0)"/>
     </g>
    </g>
    <g id="line2d_33">
     <path d="M 56.81 53.216562 
L 66.81 53.216562 
L 76.81 53.216562 
" style="fill: none; stroke: #ff7f0e; stroke-width: 0.5; stroke-linecap: square"/>
    </g>
    <g id="text_19">
     <!-- Tonic -->
     <g transform="translate(84.81 56.716562) scale(0.1 -0.1)">
      <defs>
       <path id="DejaVuSans-6f" d="M 1959 3097 
Q 1497 3097 1228 2736 
Q 959 2375 959 1747 
Q 959 1119 1226 758 
Q 1494 397 1959 397 
Q 2419 397 2687 759 
Q 2956 1122 2956 1747 
Q 2956 2369 2687 2733 
Q 2419 3097 1959 3097 
z
M 1959 3584 
Q 2709 3584 3137 3096 
Q 3566 2609 3566 1747 
Q 3566 888 3137 398 
Q 2709 -91 1959 -91 
Q 1206 -91 779 398 
Q 353 888 353 1747 
Q 353 2609 779 3096 
Q 1206 3584 1959 3584 
z
" transform="scale(0.015625)"/>
      </defs>
      <use xlink:href="#DejaVuSans-54"/>
      <use xlink:href="#DejaVuSans-6f" transform="translate(44.083984 0)"/>
      <use xlink:href="#DejaVuSans-6e" transform="translate(105.265625 0)"/>
      <use xlink:href="#DejaVuSans-69" transform="translate(168.644531 0)"/>
      <use xlink:href="#DejaVuSans-63" transform="translate(196.427734 0)"/>
     </g>
    </g>
    <g id="line2d_34">
     <path d="M 56.81 67.894687 
L 66.81 67.894687 
L 76.81 67.894687 
" style="fill: none; stroke: #2ca02c; stroke-width: 0.5; stroke-linecap: square"/>
    </g>
    <g id="text_20">
     <!-- Phasic -->
     <g transform="translate(84.81 71.394687) scale(0.1 -0.1)">
      <defs>
       <path id="DejaVuSans-50" d="M 1259 4147 
L 1259 2394 
L 2053 2394 
Q 2494 2394 2734 2622 
Q 2975 2850 2975 3272 
Q 2975 3691 2734 3919 
Q 2494 4147 2053 4147 
L 1259 4147 
z
M 628 4666 
L 2053 4666 
Q 2838 4666 3239 4311 
Q 3641 3956 3641 3272 
Q 3641 2581 3239 2228 
Q 2838 1875 2053 1875 
L 1259 1875 
L 1259 0 
L 628 0 
L 628 4666 
z
" transform="scale(0.015625)"/>
       <path id="DejaVuSans-68" d="M 3513 2113 
L 3513 0 
L 2938 0 
L 2938 2094 
Q 2938 2591 2744 2837 
Q 2550 3084 2163 3084 
Q 1697 3084 1428 2787 
Q 1159 2491 1159 1978 
L 1159 0 
L 581 0 
L 581 4863 
L 1159 4863 
L 1159 2956 
Q 1366 3272 1645 3428 
Q 1925 3584 2291 3584 
Q 2894 3584 3203 3211 
Q 3513 2838 3513 2113 
z
" transform="scale(0.015625)"/>
      </defs>
      <use xlink:href="#DejaVuSans-50"/>
      <use xlink:href="#DejaVuSans-68" transform="translate(60.302734 0)"/>
      <use xlink:href="#DejaVuSans-61" transform="translate(123.681641 0)"/>
      <use xlink:href="#DejaVuSans-73" transform="translate(184.960938 0)"/>
      <use xlink:href="#DejaVuSans-69" transform="translate(237.060547 0)"/>
      <use xlink:href="#DejaVuSans-63" transform="translate(264.84375 0)"/>
     </g>
    </g>
   </g>
  </g>
 </g>
 <defs>
  <clipPath id="pc91f10ea7e">
   <rect x="47.81" y="25.44" width="402.19" height="278.2"/>
  </clipPath>
 </defs>
</svg>
