<?xml version="1.0" encoding="utf-8" standalone="no"?>
<!DOCTYPE svg PUBLIC "-//W3C//DTD SVG 1.1//EN"
  "http://www.w3.org/Graphics/SVG/1.1/DTD/svg11.dtd">
<svg xmlns:xlink="http://www.w3.org/1999/xlink" width="460.8pt" height="345.6pt" viewBox="0 0 460.8 345.6" xmlns="http://www.w3.org/2000/svg" version="1.1">
 <metadata>
  <rdf:RDF xmlns:dc="http://purl.org/dc/elements/1.1/" xmlns:cc="http://creativecommons.org/ns#" xmlns:rdf="http://www.w3.org/1999/02/22-rdf-syntax-ns#">
   <cc:Work>
    <dc:type rdf:resource="http://purl.org/dc/dcmitype/StillImage"/>
    <dc:date>2025-09-22T15:39:35.736022</dc:date>
    <dc:format>image/svg+xml</dc:format>
    <dc:creator>
     <cc:Agent>
      <dc:title>Matplotlib v3.10.0, https://matplotlib.org/</dc:title>
     </cc:Agent>
    </dc:creator>
   </cc:Work>
  </rdf:RDF>
 </metadata>
 <defs>
  <style type="text/css">*{stroke-linejoin: round; stroke-linecap: butt}</style>
 </defs>
 <g id="figure_1">
  <g id="patch_1">
   <path d="M 0 345.6 
L 460.8 345.6 
L 460.8 0 
L 0 0 
z
" style="fill: #ffffff"/>
  </g>
  <g id="axes_1">
   <g id="patch_2">
    <path d="M 47.81 303.64 
L 450 303.64 
L 450 25.44 
L 47.81 25.44 
z
" style="fill: #ffffff"/>
   </g>
   <g id="matplotlib.axis_1">
    <g id="xtick_1">
     <g id="line2d_1">
      <path d="M 66.091364 303.64 
L 66.091364 25.44 
" clip-path="url(#p7d66f60a06)" style="fill: none; stroke: #b0b0b0; stroke-opacity: 0.3; stroke-width: 0.8; stroke-linecap: square"/>
     </g>
     <g id="line2d_2">
      <defs>
       <path id="m64fad49c3a" d="M 0 0 
L 0 3.5 
" style="stroke: #000000; stroke-width: 0.8"/>
      </defs>
      <g>
       <use xlink:href="#m64fad49c3a" x="66.091364" y="303.64" style="stroke: #000000; stroke-width: 0.8"/>
      </g>
     </g>
     <g id="text_1">
      <!-- 0 -->
      <g transform="translate(62.910114 318.238437) scale(0.1 -0.1)">
       <defs>
        <path id="DejaVuSans-30" d="M 2034 4250 
Q 1547 4250 1301 3770 
Q 1056 3291 1056 2328 
Q 1056 1369 1301 889 
Q 1547 409 2034 409 
Q 2525 409 2770 889 
Q 3016 1369 3016 2328 
Q 3016 3291 2770 3770 
Q 2525 4250 2034 4250 
z
M 2034 4750 
Q 2819 4750 3233 4129 
Q 3647 3509 3647 2328 
Q 3647 1150 3233 529 
Q 2819 -91 2034 -91 
Q 1250 -91 836 529 
Q 422 1150 422 2328 
Q 422 3509 836 4129 
Q 1250 4750 2034 4750 
z
" transform="scale(0.015625)"/>
       </defs>
       <use xlink:href="#DejaVuSans-30"/>
      </g>
     </g>
    </g>
    <g id="xtick_2">
     <g id="line2d_3">
      <path d="M 114.841667 303.64 
L 114.841667 25.44 
" clip-path="url(#p7d66f60a06)" style="fill: none; stroke: #b0b0b0; stroke-opacity: 0.3; stroke-width: 0.8; stroke-linecap: square"/>
     </g>
     <g id="line2d_4">
      <g>
       <use xlink:href="#m64fad49c3a" x="114.841667" y="303.64" style="stroke: #000000; stroke-width: 0.8"/>
      </g>
     </g>
     <g id="text_2">
      <!-- 2 -->
      <g transform="translate(111.660417 318.238437) scale(0.1 -0.1)">
       <defs>
        <path id="DejaVuSans-32" d="M 1228 531 
L 3431 531 
L 3431 0 
L 469 0 
L 469 531 
Q 828 903 1448 1529 
Q 2069 2156 2228 2338 
Q 2531 2678 2651 2914 
Q 2772 3150 2772 3378 
Q 2772 3750 2511 3984 
Q 2250 4219 1831 4219 
Q 1534 4219 1204 4116 
Q 875 4013 500 3803 
L 500 4441 
Q 881 4594 1212 4672 
Q 1544 4750 1819 4750 
Q 2544 4750 2975 4387 
Q 3406 4025 3406 3419 
Q 3406 3131 3298 2873 
Q 3191 2616 2906 2266 
Q 2828 2175 2409 1742 
Q 1991 1309 1228 531 
z
" transform="scale(0.015625)"/>
       </defs>
       <use xlink:href="#DejaVuSans-32"/>
      </g>
     </g>
    </g>
    <g id="xtick_3">
     <g id="line2d_5">
      <path d="M 163.59197 303.64 
L 163.59197 25.44 
" clip-path="url(#p7d66f60a06)" style="fill: none; stroke: #b0b0b0; stroke-opacity: 0.3; stroke-width: 0.8; stroke-linecap: square"/>
     </g>
     <g id="line2d_6">
      <g>
       <use xlink:href="#m64fad49c3a" x="163.59197" y="303.64" style="stroke: #000000; stroke-width: 0.8"/>
      </g>
     </g>
     <g id="text_3">
      <!-- 4 -->
      <g transform="translate(160.41072 318.238437) scale(0.1 -0.1)">
       <defs>
        <path id="DejaVuSans-34" d="M 2419 4116 
L 825 1625 
L 2419 1625 
L 2419 4116 
z
M 2253 4666 
L 3047 4666 
L 3047 1625 
L 3713 1625 
L 3713 1100 
L 3047 1100 
L 3047 0 
L 2419 0 
L 2419 1100 
L 313 1100 
L 313 1709 
L 2253 4666 
z
" transform="scale(0.015625)"/>
       </defs>
       <use xlink:href="#DejaVuSans-34"/>
      </g>
     </g>
    </g>
    <g id="xtick_4">
     <g id="line2d_7">
      <path d="M 212.342273 303.64 
L 212.342273 25.44 
" clip-path="url(#p7d66f60a06)" style="fill: none; stroke: #b0b0b0; stroke-opacity: 0.3; stroke-width: 0.8; stroke-linecap: square"/>
     </g>
     <g id="line2d_8">
      <g>
       <use xlink:href="#m64fad49c3a" x="212.342273" y="303.64" style="stroke: #000000; stroke-width: 0.8"/>
      </g>
     </g>
     <g id="text_4">
      <!-- 6 -->
      <g transform="translate(209.161023 318.238437) scale(0.1 -0.1)">
       <defs>
        <path id="DejaVuSans-36" d="M 2113 2584 
Q 1688 2584 1439 2293 
Q 1191 2003 1191 1497 
Q 1191 994 1439 701 
Q 1688 409 2113 409 
Q 2538 409 2786 701 
Q 3034 994 3034 1497 
Q 3034 2003 2786 2293 
Q 2538 2584 2113 2584 
z
M 3366 4563 
L 3366 3988 
Q 3128 4100 2886 4159 
Q 2644 4219 2406 4219 
Q 1781 4219 1451 3797 
Q 1122 3375 1075 2522 
Q 1259 2794 1537 2939 
Q 1816 3084 2150 3084 
Q 2853 3084 3261 2657 
Q 3669 2231 3669 1497 
Q 3669 778 3244 343 
Q 2819 -91 2113 -91 
Q 1303 -91 875 529 
Q 447 1150 447 2328 
Q 447 3434 972 4092 
Q 1497 4750 2381 4750 
Q 2619 4750 2861 4703 
Q 3103 4656 3366 4563 
z
" transform="scale(0.015625)"/>
       </defs>
       <use xlink:href="#DejaVuSans-36"/>
      </g>
     </g>
    </g>
    <g id="xtick_5">
     <g id="line2d_9">
      <path d="M 261.092576 303.64 
L 261.092576 25.44 
" clip-path="url(#p7d66f60a06)" style="fill: none; stroke: #b0b0b0; stroke-opacity: 0.3; stroke-width: 0.8; stroke-linecap: square"/>
     </g>
     <g id="line2d_10">
      <g>
       <use xlink:href="#m64fad49c3a" x="261.092576" y="303.64" style="stroke: #000000; stroke-width: 0.8"/>
      </g>
     </g>
     <g id="text_5">
      <!-- 8 -->
      <g transform="translate(257.911326 318.238437) scale(0.1 -0.1)">
       <defs>
        <path id="DejaVuSans-38" d="M 2034 2216 
Q 1584 2216 1326 1975 
Q 1069 1734 1069 1313 
Q 1069 891 1326 650 
Q 1584 409 2034 409 
Q 2484 409 2743 651 
Q 3003 894 3003 1313 
Q 3003 1734 2745 1975 
Q 2488 2216 2034 2216 
z
M 1403 2484 
Q 997 2584 770 2862 
Q 544 3141 544 3541 
Q 544 4100 942 4425 
Q 1341 4750 2034 4750 
Q 2731 4750 3128 4425 
Q 3525 4100 3525 3541 
Q 3525 3141 3298 2862 
Q 3072 2584 2669 2484 
Q 3125 2378 3379 2068 
Q 3634 1759 3634 1313 
Q 3634 634 3220 271 
Q 2806 -91 2034 -91 
Q 1263 -91 848 271 
Q 434 634 434 1313 
Q 434 1759 690 2068 
Q 947 2378 1403 2484 
z
M 1172 3481 
Q 1172 3119 1398 2916 
Q 1625 2713 2034 2713 
Q 2441 2713 2670 2916 
Q 2900 3119 2900 3481 
Q 2900 3844 2670 4047 
Q 2441 4250 2034 4250 
Q 1625 4250 1398 4047 
Q 1172 3844 1172 3481 
z
" transform="scale(0.015625)"/>
       </defs>
       <use xlink:href="#DejaVuSans-38"/>
      </g>
     </g>
    </g>
    <g id="xtick_6">
     <g id="line2d_11">
      <path d="M 309.842879 303.64 
L 309.842879 25.44 
" clip-path="url(#p7d66f60a06)" style="fill: none; stroke: #b0b0b0; stroke-opacity: 0.3; stroke-width: 0.8; stroke-linecap: square"/>
     </g>
     <g id="line2d_12">
      <g>
       <use xlink:href="#m64fad49c3a" x="309.842879" y="303.64" style="stroke: #000000; stroke-width: 0.8"/>
      </g>
     </g>
     <g id="text_6">
      <!-- 10 -->
      <g transform="translate(303.480379 318.238437) scale(0.1 -0.1)">
       <defs>
        <path id="DejaVuSans-31" d="M 794 531 
L 1825 531 
L 1825 4091 
L 703 3866 
L 703 4441 
L 1819 4666 
L 2450 4666 
L 2450 531 
L 3481 531 
L 3481 0 
L 794 0 
L 794 531 
z
" transform="scale(0.015625)"/>
       </defs>
       <use xlink:href="#DejaVuSans-31"/>
       <use xlink:href="#DejaVuSans-30" transform="translate(63.623047 0)"/>
      </g>
     </g>
    </g>
    <g id="xtick_7">
     <g id="line2d_13">
      <path d="M 358.593182 303.64 
L 358.593182 25.44 
" clip-path="url(#p7d66f60a06)" style="fill: none; stroke: #b0b0b0; stroke-opacity: 0.3; stroke-width: 0.8; stroke-linecap: square"/>
     </g>
     <g id="line2d_14">
      <g>
       <use xlink:href="#m64fad49c3a" x="358.593182" y="303.64" style="stroke: #000000; stroke-width: 0.8"/>
      </g>
     </g>
     <g id="text_7">
      <!-- 12 -->
      <g transform="translate(352.230682 318.238437) scale(0.1 -0.1)">
       <use xlink:href="#DejaVuSans-31"/>
       <use xlink:href="#DejaVuSans-32" transform="translate(63.623047 0)"/>
      </g>
     </g>
    </g>
    <g id="xtick_8">
     <g id="line2d_15">
      <path d="M 407.343485 303.64 
L 407.343485 25.44 
" clip-path="url(#p7d66f60a06)" style="fill: none; stroke: #b0b0b0; stroke-opacity: 0.3; stroke-width: 0.8; stroke-linecap: square"/>
     </g>
     <g id="line2d_16">
      <g>
       <use xlink:href="#m64fad49c3a" x="407.343485" y="303.64" style="stroke: #000000; stroke-width: 0.8"/>
      </g>
     </g>
     <g id="text_8">
      <!-- 14 -->
      <g transform="translate(400.980985 318.238437) scale(0.1 -0.1)">
       <use xlink:href="#DejaVuSans-31"/>
       <use xlink:href="#DejaVuSans-34" transform="translate(63.623047 0)"/>
      </g>
     </g>
    </g>
    <g id="text_9">
     <!-- Time (minutes) -->
     <g transform="translate(210.9425 331.916562) scale(0.1 -0.1)">
      <defs>
       <path id="DejaVuSans-54" d="M -19 4666 
L 3928 4666 
L 3928 4134 
L 2272 4134 
L 2272 0 
L 1638 0 
L 1638 4134 
L -19 4134 
L -19 4666 
z
" transform="scale(0.015625)"/>
       <path id="DejaVuSans-69" d="M 603 3500 
L 1178 3500 
L 1178 0 
L 603 0 
L 603 3500 
z
M 603 4863 
L 1178 4863 
L 1178 4134 
L 603 4134 
L 603 4863 
z
" transform="scale(0.015625)"/>
       <path id="DejaVuSans-6d" d="M 3328 2828 
Q 3544 3216 3844 3400 
Q 4144 3584 4550 3584 
Q 5097 3584 5394 3201 
Q 5691 2819 5691 2113 
L 5691 0 
L 5113 0 
L 5113 2094 
Q 5113 2597 4934 2840 
Q 4756 3084 4391 3084 
Q 3944 3084 3684 2787 
Q 3425 2491 3425 1978 
L 3425 0 
L 2847 0 
L 2847 2094 
Q 2847 2600 2669 2842 
Q 2491 3084 2119 3084 
Q 1678 3084 1418 2786 
Q 1159 2488 1159 1978 
L 1159 0 
L 581 0 
L 581 3500 
L 1159 3500 
L 1159 2956 
Q 1356 3278 1631 3431 
Q 1906 3584 2284 3584 
Q 2666 3584 2933 3390 
Q 3200 3197 3328 2828 
z
" transform="scale(0.015625)"/>
       <path id="DejaVuSans-65" d="M 3597 1894 
L 3597 1613 
L 953 1613 
Q 991 1019 1311 708 
Q 1631 397 2203 397 
Q 2534 397 2845 478 
Q 3156 559 3463 722 
L 3463 178 
Q 3153 47 2828 -22 
Q 2503 -91 2169 -91 
Q 1331 -91 842 396 
Q 353 884 353 1716 
Q 353 2575 817 3079 
Q 1281 3584 2069 3584 
Q 2775 3584 3186 3129 
Q 3597 2675 3597 1894 
z
M 3022 2063 
Q 3016 2534 2758 2815 
Q 2500 3097 2075 3097 
Q 1594 3097 1305 2825 
Q 1016 2553 972 2059 
L 3022 2063 
z
" transform="scale(0.015625)"/>
       <path id="DejaVuSans-20" transform="scale(0.015625)"/>
       <path id="DejaVuSans-28" d="M 1984 4856 
Q 1566 4138 1362 3434 
Q 1159 2731 1159 2009 
Q 1159 1288 1364 580 
Q 1569 -128 1984 -844 
L 1484 -844 
Q 1016 -109 783 600 
Q 550 1309 550 2009 
Q 550 2706 781 3412 
Q 1013 4119 1484 4856 
L 1984 4856 
z
" transform="scale(0.015625)"/>
       <path id="DejaVuSans-6e" d="M 3513 2113 
L 3513 0 
L 2938 0 
L 2938 2094 
Q 2938 2591 2744 2837 
Q 2550 3084 2163 3084 
Q 1697 3084 1428 2787 
Q 1159 2491 1159 1978 
L 1159 0 
L 581 0 
L 581 3500 
L 1159 3500 
L 1159 2956 
Q 1366 3272 1645 3428 
Q 1925 3584 2291 3584 
Q 2894 3584 3203 3211 
Q 3513 2838 3513 2113 
z
" transform="scale(0.015625)"/>
       <path id="DejaVuSans-75" d="M 544 1381 
L 544 3500 
L 1119 3500 
L 1119 1403 
Q 1119 906 1312 657 
Q 1506 409 1894 409 
Q 2359 409 2629 706 
Q 2900 1003 2900 1516 
L 2900 3500 
L 3475 3500 
L 3475 0 
L 2900 0 
L 2900 538 
Q 2691 219 2414 64 
Q 2138 -91 1772 -91 
Q 1169 -91 856 284 
Q 544 659 544 1381 
z
M 1991 3584 
L 1991 3584 
z
" transform="scale(0.015625)"/>
       <path id="DejaVuSans-74" d="M 1172 4494 
L 1172 3500 
L 2356 3500 
L 2356 3053 
L 1172 3053 
L 1172 1153 
Q 1172 725 1289 603 
Q 1406 481 1766 481 
L 2356 481 
L 2356 0 
L 1766 0 
Q 1100 0 847 248 
Q 594 497 594 1153 
L 594 3053 
L 172 3053 
L 172 3500 
L 594 3500 
L 594 4494 
L 1172 4494 
z
" transform="scale(0.015625)"/>
       <path id="DejaVuSans-73" d="M 2834 3397 
L 2834 2853 
Q 2591 2978 2328 3040 
Q 2066 3103 1784 3103 
Q 1356 3103 1142 2972 
Q 928 2841 928 2578 
Q 928 2378 1081 2264 
Q 1234 2150 1697 2047 
L 1894 2003 
Q 2506 1872 2764 1633 
Q 3022 1394 3022 966 
Q 3022 478 2636 193 
Q 2250 -91 1575 -91 
Q 1294 -91 989 -36 
Q 684 19 347 128 
L 347 722 
Q 666 556 975 473 
Q 1284 391 1588 391 
Q 1994 391 2212 530 
Q 2431 669 2431 922 
Q 2431 1156 2273 1281 
Q 2116 1406 1581 1522 
L 1381 1569 
Q 847 1681 609 1914 
Q 372 2147 372 2553 
Q 372 3047 722 3315 
Q 1072 3584 1716 3584 
Q 2034 3584 2315 3537 
Q 2597 3491 2834 3397 
z
" transform="scale(0.015625)"/>
       <path id="DejaVuSans-29" d="M 513 4856 
L 1013 4856 
Q 1481 4119 1714 3412 
Q 1947 2706 1947 2009 
Q 1947 1309 1714 600 
Q 1481 -109 1013 -844 
L 513 -844 
Q 928 -128 1133 580 
Q 1338 1288 1338 2009 
Q 1338 2731 1133 3434 
Q 928 4138 513 4856 
z
" transform="scale(0.015625)"/>
      </defs>
      <use xlink:href="#DejaVuSans-54"/>
      <use xlink:href="#DejaVuSans-69" transform="translate(57.958984 0)"/>
      <use xlink:href="#DejaVuSans-6d" transform="translate(85.742188 0)"/>
      <use xlink:href="#DejaVuSans-65" transform="translate(183.154297 0)"/>
      <use xlink:href="#DejaVuSans-20" transform="translate(244.677734 0)"/>
      <use xlink:href="#DejaVuSans-28" transform="translate(276.464844 0)"/>
      <use xlink:href="#DejaVuSans-6d" transform="translate(315.478516 0)"/>
      <use xlink:href="#DejaVuSans-69" transform="translate(412.890625 0)"/>
      <use xlink:href="#DejaVuSans-6e" transform="translate(440.673828 0)"/>
      <use xlink:href="#DejaVuSans-75" transform="translate(504.052734 0)"/>
      <use xlink:href="#DejaVuSans-74" transform="translate(567.431641 0)"/>
      <use xlink:href="#DejaVuSans-65" transform="translate(606.640625 0)"/>
      <use xlink:href="#DejaVuSans-73" transform="translate(668.164062 0)"/>
      <use xlink:href="#DejaVuSans-29" transform="translate(720.263672 0)"/>
     </g>
    </g>
   </g>
   <g id="matplotlib.axis_2">
    <g id="ytick_1">
     <g id="line2d_17">
      <path d="M 47.81 288.794797 
L 450 288.794797 
" clip-path="url(#p7d66f60a06)" style="fill: none; stroke: #b0b0b0; stroke-opacity: 0.3; stroke-width: 0.8; stroke-linecap: square"/>
     </g>
     <g id="line2d_18">
      <defs>
       <path id="m4763f564bc" d="M 0 0 
L -3.5 0 
" style="stroke: #000000; stroke-width: 0.8"/>
      </defs>
      <g>
       <use xlink:href="#m4763f564bc" x="47.81" y="288.794797" style="stroke: #000000; stroke-width: 0.8"/>
      </g>
     </g>
     <g id="text_10">
      <!-- 0.0 -->
      <g transform="translate(24.906875 292.594016) scale(0.1 -0.1)">
       <defs>
        <path id="DejaVuSans-2e" d="M 684 794 
L 1344 794 
L 1344 0 
L 684 0 
L 684 794 
z
" transform="scale(0.015625)"/>
       </defs>
       <use xlink:href="#DejaVuSans-30"/>
       <use xlink:href="#DejaVuSans-2e" transform="translate(63.623047 0)"/>
       <use xlink:href="#DejaVuSans-30" transform="translate(95.410156 0)"/>
      </g>
     </g>
    </g>
    <g id="ytick_2">
     <g id="line2d_19">
      <path d="M 47.81 239.853764 
L 450 239.853764 
" clip-path="url(#p7d66f60a06)" style="fill: none; stroke: #b0b0b0; stroke-opacity: 0.3; stroke-width: 0.8; stroke-linecap: square"/>
     </g>
     <g id="line2d_20">
      <g>
       <use xlink:href="#m4763f564bc" x="47.81" y="239.853764" style="stroke: #000000; stroke-width: 0.8"/>
      </g>
     </g>
     <g id="text_11">
      <!-- 0.1 -->
      <g transform="translate(24.906875 243.652982) scale(0.1 -0.1)">
       <use xlink:href="#DejaVuSans-30"/>
       <use xlink:href="#DejaVuSans-2e" transform="translate(63.623047 0)"/>
       <use xlink:href="#DejaVuSans-31" transform="translate(95.410156 0)"/>
      </g>
     </g>
    </g>
    <g id="ytick_3">
     <g id="line2d_21">
      <path d="M 47.81 190.91273 
L 450 190.91273 
" clip-path="url(#p7d66f60a06)" style="fill: none; stroke: #b0b0b0; stroke-opacity: 0.3; stroke-width: 0.8; stroke-linecap: square"/>
     </g>
     <g id="line2d_22">
      <g>
       <use xlink:href="#m4763f564bc" x="47.81" y="190.91273" style="stroke: #000000; stroke-width: 0.8"/>
      </g>
     </g>
     <g id="text_12">
      <!-- 0.2 -->
      <g transform="translate(24.906875 194.711949) scale(0.1 -0.1)">
       <use xlink:href="#DejaVuSans-30"/>
       <use xlink:href="#DejaVuSans-2e" transform="translate(63.623047 0)"/>
       <use xlink:href="#DejaVuSans-32" transform="translate(95.410156 0)"/>
      </g>
     </g>
    </g>
    <g id="ytick_4">
     <g id="line2d_23">
      <path d="M 47.81 141.971697 
L 450 141.971697 
" clip-path="url(#p7d66f60a06)" style="fill: none; stroke: #b0b0b0; stroke-opacity: 0.3; stroke-width: 0.8; stroke-linecap: square"/>
     </g>
     <g id="line2d_24">
      <g>
       <use xlink:href="#m4763f564bc" x="47.81" y="141.971697" style="stroke: #000000; stroke-width: 0.8"/>
      </g>
     </g>
     <g id="text_13">
      <!-- 0.3 -->
      <g transform="translate(24.906875 145.770916) scale(0.1 -0.1)">
       <defs>
        <path id="DejaVuSans-33" d="M 2597 2516 
Q 3050 2419 3304 2112 
Q 3559 1806 3559 1356 
Q 3559 666 3084 287 
Q 2609 -91 1734 -91 
Q 1441 -91 1130 -33 
Q 819 25 488 141 
L 488 750 
Q 750 597 1062 519 
Q 1375 441 1716 441 
Q 2309 441 2620 675 
Q 2931 909 2931 1356 
Q 2931 1769 2642 2001 
Q 2353 2234 1838 2234 
L 1294 2234 
L 1294 2753 
L 1863 2753 
Q 2328 2753 2575 2939 
Q 2822 3125 2822 3475 
Q 2822 3834 2567 4026 
Q 2313 4219 1838 4219 
Q 1578 4219 1281 4162 
Q 984 4106 628 3988 
L 628 4550 
Q 988 4650 1302 4700 
Q 1616 4750 1894 4750 
Q 2613 4750 3031 4423 
Q 3450 4097 3450 3541 
Q 3450 3153 3228 2886 
Q 3006 2619 2597 2516 
z
" transform="scale(0.015625)"/>
       </defs>
       <use xlink:href="#DejaVuSans-30"/>
       <use xlink:href="#DejaVuSans-2e" transform="translate(63.623047 0)"/>
       <use xlink:href="#DejaVuSans-33" transform="translate(95.410156 0)"/>
      </g>
     </g>
    </g>
    <g id="ytick_5">
     <g id="line2d_25">
      <path d="M 47.81 93.030664 
L 450 93.030664 
" clip-path="url(#p7d66f60a06)" style="fill: none; stroke: #b0b0b0; stroke-opacity: 0.3; stroke-width: 0.8; stroke-linecap: square"/>
     </g>
     <g id="line2d_26">
      <g>
       <use xlink:href="#m4763f564bc" x="47.81" y="93.030664" style="stroke: #000000; stroke-width: 0.8"/>
      </g>
     </g>
     <g id="text_14">
      <!-- 0.4 -->
      <g transform="translate(24.906875 96.829882) scale(0.1 -0.1)">
       <use xlink:href="#DejaVuSans-30"/>
       <use xlink:href="#DejaVuSans-2e" transform="translate(63.623047 0)"/>
       <use xlink:href="#DejaVuSans-34" transform="translate(95.410156 0)"/>
      </g>
     </g>
    </g>
    <g id="ytick_6">
     <g id="line2d_27">
      <path d="M 47.81 44.08963 
L 450 44.08963 
" clip-path="url(#p7d66f60a06)" style="fill: none; stroke: #b0b0b0; stroke-opacity: 0.3; stroke-width: 0.8; stroke-linecap: square"/>
     </g>
     <g id="line2d_28">
      <g>
       <use xlink:href="#m4763f564bc" x="47.81" y="44.08963" style="stroke: #000000; stroke-width: 0.8"/>
      </g>
     </g>
     <g id="text_15">
      <!-- 0.5 -->
      <g transform="translate(24.906875 47.888849) scale(0.1 -0.1)">
       <defs>
        <path id="DejaVuSans-35" d="M 691 4666 
L 3169 4666 
L 3169 4134 
L 1269 4134 
L 1269 2991 
Q 1406 3038 1543 3061 
Q 1681 3084 1819 3084 
Q 2600 3084 3056 2656 
Q 3513 2228 3513 1497 
Q 3513 744 3044 326 
Q 2575 -91 1722 -91 
Q 1428 -91 1123 -41 
Q 819 9 494 109 
L 494 744 
Q 775 591 1075 516 
Q 1375 441 1709 441 
Q 2250 441 2565 725 
Q 2881 1009 2881 1497 
Q 2881 1984 2565 2268 
Q 2250 2553 1709 2553 
Q 1456 2553 1204 2497 
Q 953 2441 691 2322 
L 691 4666 
z
" transform="scale(0.015625)"/>
       </defs>
       <use xlink:href="#DejaVuSans-30"/>
       <use xlink:href="#DejaVuSans-2e" transform="translate(63.623047 0)"/>
       <use xlink:href="#DejaVuSans-35" transform="translate(95.410156 0)"/>
      </g>
     </g>
    </g>
    <g id="text_16">
     <!-- EDA signals (μS) -->
     <g transform="translate(18.827188 205.711875) rotate(-90) scale(0.1 -0.1)">
      <defs>
       <path id="DejaVuSans-45" d="M 628 4666 
L 3578 4666 
L 3578 4134 
L 1259 4134 
L 1259 2753 
L 3481 2753 
L 3481 2222 
L 1259 2222 
L 1259 531 
L 3634 531 
L 3634 0 
L 628 0 
L 628 4666 
z
" transform="scale(0.015625)"/>
       <path id="DejaVuSans-44" d="M 1259 4147 
L 1259 519 
L 2022 519 
Q 2988 519 3436 956 
Q 3884 1394 3884 2338 
Q 3884 3275 3436 3711 
Q 2988 4147 2022 4147 
L 1259 4147 
z
M 628 4666 
L 1925 4666 
Q 3281 4666 3915 4102 
Q 4550 3538 4550 2338 
Q 4550 1131 3912 565 
Q 3275 0 1925 0 
L 628 0 
L 628 4666 
z
" transform="scale(0.015625)"/>
       <path id="DejaVuSans-41" d="M 2188 4044 
L 1331 1722 
L 3047 1722 
L 2188 4044 
z
M 1831 4666 
L 2547 4666 
L 4325 0 
L 3669 0 
L 3244 1197 
L 1141 1197 
L 716 0 
L 50 0 
L 1831 4666 
z
" transform="scale(0.015625)"/>
       <path id="DejaVuSans-67" d="M 2906 1791 
Q 2906 2416 2648 2759 
Q 2391 3103 1925 3103 
Q 1463 3103 1205 2759 
Q 947 2416 947 1791 
Q 947 1169 1205 825 
Q 1463 481 1925 481 
Q 2391 481 2648 825 
Q 2906 1169 2906 1791 
z
M 3481 434 
Q 3481 -459 3084 -895 
Q 2688 -1331 1869 -1331 
Q 1566 -1331 1297 -1286 
Q 1028 -1241 775 -1147 
L 775 -588 
Q 1028 -725 1275 -790 
Q 1522 -856 1778 -856 
Q 2344 -856 2625 -561 
Q 2906 -266 2906 331 
L 2906 616 
Q 2728 306 2450 153 
Q 2172 0 1784 0 
Q 1141 0 747 490 
Q 353 981 353 1791 
Q 353 2603 747 3093 
Q 1141 3584 1784 3584 
Q 2172 3584 2450 3431 
Q 2728 3278 2906 2969 
L 2906 3500 
L 3481 3500 
L 3481 434 
z
" transform="scale(0.015625)"/>
       <path id="DejaVuSans-61" d="M 2194 1759 
Q 1497 1759 1228 1600 
Q 959 1441 959 1056 
Q 959 750 1161 570 
Q 1363 391 1709 391 
Q 2188 391 2477 730 
Q 2766 1069 2766 1631 
L 2766 1759 
L 2194 1759 
z
M 3341 1997 
L 3341 0 
L 2766 0 
L 2766 531 
Q 2569 213 2275 61 
Q 1981 -91 1556 -91 
Q 1019 -91 701 211 
Q 384 513 384 1019 
Q 384 1609 779 1909 
Q 1175 2209 1959 2209 
L 2766 2209 
L 2766 2266 
Q 2766 2663 2505 2880 
Q 2244 3097 1772 3097 
Q 1472 3097 1187 3025 
Q 903 2953 641 2809 
L 641 3341 
Q 956 3463 1253 3523 
Q 1550 3584 1831 3584 
Q 2591 3584 2966 3190 
Q 3341 2797 3341 1997 
z
" transform="scale(0.015625)"/>
       <path id="DejaVuSans-6c" d="M 603 4863 
L 1178 4863 
L 1178 0 
L 603 0 
L 603 4863 
z
" transform="scale(0.015625)"/>
       <path id="DejaVuSans-3bc" d="M 544 -1331 
L 544 3500 
L 1119 3500 
L 1119 1325 
Q 1119 872 1334 640 
Q 1550 409 1972 409 
Q 2434 409 2667 671 
Q 2900 934 2900 1459 
L 2900 3500 
L 3475 3500 
L 3475 806 
Q 3475 619 3529 530 
Q 3584 441 3700 441 
Q 3728 441 3778 458 
Q 3828 475 3916 513 
L 3916 50 
Q 3788 -22 3673 -56 
Q 3559 -91 3450 -91 
Q 3234 -91 3106 31 
Q 2978 153 2931 403 
Q 2775 156 2548 32 
Q 2322 -91 2016 -91 
Q 1697 -91 1473 31 
Q 1250 153 1119 397 
L 1119 -1331 
L 544 -1331 
z
" transform="scale(0.015625)"/>
       <path id="DejaVuSans-53" d="M 3425 4513 
L 3425 3897 
Q 3066 4069 2747 4153 
Q 2428 4238 2131 4238 
Q 1616 4238 1336 4038 
Q 1056 3838 1056 3469 
Q 1056 3159 1242 3001 
Q 1428 2844 1947 2747 
L 2328 2669 
Q 3034 2534 3370 2195 
Q 3706 1856 3706 1288 
Q 3706 609 3251 259 
Q 2797 -91 1919 -91 
Q 1588 -91 1214 -16 
Q 841 59 441 206 
L 441 856 
Q 825 641 1194 531 
Q 1563 422 1919 422 
Q 2459 422 2753 634 
Q 3047 847 3047 1241 
Q 3047 1584 2836 1778 
Q 2625 1972 2144 2069 
L 1759 2144 
Q 1053 2284 737 2584 
Q 422 2884 422 3419 
Q 422 4038 858 4394 
Q 1294 4750 2059 4750 
Q 2388 4750 2728 4690 
Q 3069 4631 3425 4513 
z
" transform="scale(0.015625)"/>
      </defs>
      <use xlink:href="#DejaVuSans-45"/>
      <use xlink:href="#DejaVuSans-44" transform="translate(63.183594 0)"/>
      <use xlink:href="#DejaVuSans-41" transform="translate(138.435547 0)"/>
      <use xlink:href="#DejaVuSans-20" transform="translate(206.84375 0)"/>
      <use xlink:href="#DejaVuSans-73" transform="translate(238.630859 0)"/>
      <use xlink:href="#DejaVuSans-69" transform="translate(290.730469 0)"/>
      <use xlink:href="#DejaVuSans-67" transform="translate(318.513672 0)"/>
      <use xlink:href="#DejaVuSans-6e" transform="translate(381.990234 0)"/>
      <use xlink:href="#DejaVuSans-61" transform="translate(445.369141 0)"/>
      <use xlink:href="#DejaVuSans-6c" transform="translate(506.648438 0)"/>
      <use xlink:href="#DejaVuSans-73" transform="translate(534.431641 0)"/>
      <use xlink:href="#DejaVuSans-20" transform="translate(586.53125 0)"/>
      <use xlink:href="#DejaVuSans-28" transform="translate(618.318359 0)"/>
      <use xlink:href="#DejaVuSans-3bc" transform="translate(657.332031 0)"/>
      <use xlink:href="#DejaVuSans-53" transform="translate(720.955078 0)"/>
      <use xlink:href="#DejaVuSans-29" transform="translate(784.431641 0)"/>
     </g>
    </g>
   </g>
   <g id="line2d_29">
    <path d="M 66.091364 124.377019 
L 67.209179 136.862417 
L 67.717277 139.961586 
L 68.022136 140.784492 
L 68.225375 140.954997 
L 68.428614 140.880524 
L 68.733473 140.441897 
L 69.749669 138.625054 
L 70.054528 138.569177 
L 70.359386 138.854881 
L 70.765865 139.708421 
L 71.477202 141.944046 
L 72.391778 144.684525 
L 73.103115 146.097011 
L 73.814452 146.989859 
L 74.932268 147.941158 
L 76.86304 149.32901 
L 77.777616 149.666099 
L 78.793812 149.777694 
L 79.606769 149.671757 
L 80.419725 149.326326 
L 81.435921 148.873669 
L 81.944019 148.877171 
L 82.452117 149.104535 
L 83.163454 149.717136 
L 84.484509 151.23155 
L 85.907183 152.878254 
L 86.212042 152.856698 
L 86.516901 152.476011 
L 86.821759 151.632607 
L 87.228238 149.686085 
L 87.736336 145.976451 
L 88.650912 137.106066 
L 89.667108 127.736074 
L 90.276825 123.899266 
L 90.784923 121.948942 
L 91.191402 121.077615 
L 91.59788 120.626448 
L 92.614076 119.837827 
L 93.020554 119.022421 
L 93.427032 117.613107 
L 93.93513 114.897916 
L 94.748087 108.900988 
L 95.561044 103.191417 
L 96.069142 101.055375 
L 96.374 100.463525 
L 96.678859 100.344154 
L 96.983718 100.601436 
L 97.390196 101.326837 
L 99.320968 105.331783 
L 99.727447 105.720044 
L 100.032306 105.797834 
L 100.337164 105.674315 
L 100.743643 105.227671 
L 102.776034 102.392133 
L 104.300328 101.24629 
L 105.418144 100.649922 
L 106.840818 100.197901 
L 107.857014 99.750251 
L 109.686166 98.853395 
L 110.600743 98.68206 
L 111.21046 98.770045 
L 111.921797 99.100824 
L 113.141232 99.707636 
L 113.75095 99.740165 
L 114.462287 99.518349 
L 115.580102 99.125474 
L 116.18982 99.171787 
L 116.901157 99.476516 
L 119.136788 100.609787 
L 122.490234 101.783396 
L 123.709669 101.708069 
L 124.725865 101.749314 
L 125.742061 102.031519 
L 126.656637 102.508141 
L 127.571214 103.247007 
L 130.111703 105.466108 
L 133.668389 107.900644 
L 134.481345 108.877839 
L 135.294302 109.863202 
L 135.599161 109.928872 
L 135.8024 109.77532 
L 136.107259 109.15617 
L 136.513737 107.494092 
L 137.021835 104.172706 
L 138.34289 94.765891 
L 138.749368 93.308964 
L 139.054227 92.787979 
L 139.359086 92.669752 
L 139.663944 92.84858 
L 140.172042 93.536626 
L 141.899575 96.629992 
L 143.22063 99.264764 
L 144.541685 101.898293 
L 145.354641 102.936363 
L 146.065978 103.894723 
L 146.777315 105.332946 
L 147.99675 107.920446 
L 148.809707 109.015045 
L 150.842099 111.22839 
L 151.350197 111.45798 
L 151.858295 111.437353 
L 152.468012 111.144161 
L 153.687447 110.482821 
L 154.297165 110.463212 
L 154.906882 110.685295 
L 155.821459 111.303379 
L 157.447372 112.722969 
L 159.479764 114.812279 
L 162.83321 118.334722 
L 163.646167 118.719646 
L 166.186656 119.418912 
L 166.694754 119.42493 
L 167.101233 119.191704 
L 167.507711 118.635724 
L 168.015809 117.448851 
L 169.946581 112.183293 
L 170.454679 111.684119 
L 170.861157 111.574714 
L 171.369255 111.685824 
L 175.535658 113.561381 
L 176.755093 114.170474 
L 178.076148 114.838671 
L 181.327975 116.953649 
L 182.344171 118.085778 
L 184.071704 120.04425 
L 185.189519 120.947193 
L 187.221911 122.444739 
L 187.933248 123.368992 
L 188.644585 124.688761 
L 189.254303 126.262171 
L 189.762401 128.170958 
L 190.270499 131.095004 
L 190.778596 135.493051 
L 191.489934 144.082625 
L 192.607749 157.943276 
L 193.217467 162.663747 
L 193.725564 164.955606 
L 194.233662 166.34534 
L 194.944999 167.606541 
L 195.554717 168.26726 
L 195.961195 168.390308 
L 196.266054 168.232133 
L 196.570913 167.792775 
L 196.977391 166.675217 
L 197.485489 164.337044 
L 198.196826 159.646578 
L 199.416261 151.483228 
L 200.229218 147.662875 
L 201.347033 143.621504 
L 202.566468 140.037694 
L 204.802099 134.301736 
L 205.919915 132.076078 
L 206.936111 130.529633 
L 207.647448 129.798364 
L 208.358785 129.37486 
L 211.508992 128.176183 
L 212.220329 128.31645 
L 212.931666 128.669667 
L 213.541384 129.208421 
L 214.151101 130.094724 
L 215.675395 132.633745 
L 216.081874 132.755653 
L 216.488352 132.587523 
L 217.402928 132.047199 
L 217.809406 132.116217 
L 218.215885 132.441901 
L 218.927222 133.385591 
L 220.959614 136.539564 
L 222.077429 139.120862 
L 222.687147 140.180864 
L 223.093625 140.453452 
L 223.398484 140.413123 
L 223.804962 140.104862 
L 225.532495 138.415839 
L 226.040593 138.351916 
L 226.548691 138.533674 
L 227.260028 139.080734 
L 229.902137 141.38274 
L 233.255584 143.817519 
L 234.576638 144.35545 
L 235.592834 144.863901 
L 236.60903 145.64791 
L 239.14952 147.734317 
L 240.165716 148.228283 
L 241.080292 148.41306 
L 242.604586 148.6479 
L 244.02726 149.03414 
L 244.535358 148.900561 
L 245.043456 148.52751 
L 245.653173 147.795999 
L 248.092043 144.495387 
L 248.80338 144.119897 
L 249.717957 143.906769 
L 250.734153 143.87715 
L 251.750348 144.096713 
L 257.237806 145.698403 
L 257.745904 145.538304 
L 258.152382 145.195644 
L 258.558861 144.589856 
L 259.066959 143.393915 
L 259.778296 141.007218 
L 260.997731 136.881602 
L 261.607448 135.637599 
L 262.115546 135.075021 
L 262.623644 134.862202 
L 263.131742 134.908472 
L 264.046318 135.30354 
L 265.164134 135.710723 
L 266.688428 135.95905 
L 268.212721 136.229429 
L 268.924059 136.588897 
L 269.635396 137.191162 
L 270.549972 138.285578 
L 272.480744 140.703553 
L 273.090462 141.072851 
L 273.59856 141.133382 
L 275.224473 141.031079 
L 275.630951 141.321788 
L 276.03743 141.894263 
L 276.443908 142.856645 
L 276.952006 144.723897 
L 277.764963 148.890555 
L 278.679539 153.269065 
L 279.289256 155.187427 
L 280.000594 156.698038 
L 281.931366 160.373484 
L 282.744322 162.070246 
L 283.049181 162.325494 
L 283.25242 162.294262 
L 283.557279 161.911458 
L 283.963757 160.81579 
L 284.675094 157.943813 
L 285.79291 153.519483 
L 286.605867 151.031749 
L 287.012345 150.258273 
L 287.317204 150.04749 
L 287.520443 150.118503 
L 287.825302 150.546904 
L 288.23178 151.611526 
L 289.349595 154.918118 
L 289.756074 155.500375 
L 290.162552 155.718172 
L 290.67065 155.694004 
L 292.601422 155.148522 
L 295.040292 154.264491 
L 295.54839 154.400438 
L 296.158108 154.818749 
L 297.072684 155.558209 
L 297.377543 155.549113 
L 297.682402 155.239085 
L 297.98726 154.541808 
L 298.393739 152.955032 
L 299.003456 149.436299 
L 300.222891 142.144596 
L 300.832609 139.855516 
L 301.442326 138.448553 
L 302.052044 137.565283 
L 302.96662 136.679015 
L 304.592533 135.509302 
L 309.165415 132.57181 
L 311.096187 131.992155 
L 312.417242 131.567635 
L 312.92534 131.127158 
L 313.433438 130.385832 
L 315.36421 127.077058 
L 316.177166 126.274726 
L 316.482025 125.655416 
L 316.888503 124.198451 
L 317.294982 121.793823 
L 317.80308 117.389665 
L 319.733852 98.599499 
L 320.24195 96.235677 
L 322.274342 88.724013 
L 322.884059 86.608613 
L 323.290537 85.979353 
L 323.595396 85.958312 
L 323.900255 86.251343 
L 324.509972 87.330804 
L 325.322929 88.661049 
L 325.932647 89.225117 
L 326.745603 89.643777 
L 327.66018 89.871196 
L 328.473136 90.088863 
L 328.879615 90.454643 
L 329.387713 91.296524 
L 330.200669 92.818766 
L 330.505528 92.978197 
L 330.708767 92.841169 
L 331.013626 92.215465 
L 331.420104 90.615102 
L 332.029822 87.0411 
L 334.163833 73.699178 
L 334.671931 71.938117 
L 334.97679 71.439177 
L 335.281649 71.343572 
L 335.586507 71.565993 
L 336.805942 72.921964 
L 337.110801 72.777653 
L 337.41566 72.299956 
L 337.822138 71.113962 
L 338.330236 68.773165 
L 339.041573 64.164171 
L 340.159389 55.06702 
L 341.988541 39.708027 
L 342.39502 38.292465 
L 342.598259 38.1084 
L 342.801498 38.260932 
L 343.106357 39.03287 
L 343.614455 41.254736 
L 344.73227 46.320668 
L 345.341988 48.10884 
L 346.053325 49.498751 
L 346.663042 50.226022 
L 347.069521 50.428203 
L 347.374379 50.390423 
L 347.780858 50.054344 
L 348.288956 49.196653 
L 349.101912 47.212146 
L 350.727826 43.215894 
L 351.235924 42.497284 
L 351.540783 42.368307 
L 351.845641 42.503108 
L 352.25212 43.067917 
L 352.861837 44.480826 
L 354.58937 48.776898 
L 355.707186 50.89845 
L 356.621762 52.151931 
L 358.857393 54.88467 
L 360.076828 56.584568 
L 360.788165 57.148853 
L 362.0076 57.97629 
L 362.617317 58.681214 
L 363.125415 59.557626 
L 363.531894 60.635024 
L 363.938372 62.296804 
L 364.44647 65.553454 
L 365.056188 71.390578 
L 366.174003 85.232325 
L 367.393438 99.408125 
L 368.206395 106.315964 
L 369.120971 111.931806 
L 370.238786 117.747165 
L 370.543645 118.442231 
L 370.746884 118.46408 
L 370.950124 118.078477 
L 371.254982 116.710429 
L 371.661461 113.606632 
L 372.880896 103.308625 
L 373.287374 101.953953 
L 373.795472 101.289258 
L 374.100331 100.610387 
L 374.405189 99.12601 
L 374.811668 95.404317 
L 375.319766 88.108427 
L 376.64082 67.522597 
L 377.148918 62.905588 
L 377.657016 60.287002 
L 378.063495 59.215197 
L 378.469973 58.721659 
L 378.876451 58.563301 
L 379.791028 58.376598 
L 380.095886 58.036828 
L 380.400745 57.381671 
L 380.807223 55.854906 
L 381.315321 52.76036 
L 382.229898 45.062105 
L 382.941235 40.031283 
L 383.347713 38.485099 
L 383.652572 38.085455 
L 383.855811 38.188674 
L 384.05905 38.590166 
L 384.363909 39.76353 
L 384.770387 42.440903 
L 385.278485 47.629943 
L 385.989822 57.759941 
L 388.123834 89.903905 
L 390.867563 128.763236 
L 391.782139 137.531535 
L 392.290237 140.802776 
L 392.696715 142.316515 
L 393.001574 142.81427 
L 393.204813 142.883438 
L 393.509672 142.679408 
L 393.91615 142.038335 
L 395.033966 140.092002 
L 395.542064 139.681334 
L 396.050161 139.5911 
L 396.558259 139.721234 
L 397.066357 140.049181 
L 397.472836 140.536264 
L 397.879314 141.340836 
L 398.387412 142.954477 
L 398.997129 145.878347 
L 401.029521 156.945913 
L 401.33438 157.516166 
L 401.639239 157.66545 
L 401.944097 157.464241 
L 402.452195 156.661811 
L 403.265152 155.388287 
L 403.67163 155.103376 
L 404.179728 155.032198 
L 404.992685 154.950349 
L 405.500783 154.622186 
L 407.228316 153.155644 
L 407.634794 153.205789 
L 408.244512 153.578535 
L 409.159088 154.18578 
L 409.667186 154.284934 
L 410.175284 154.173396 
L 410.683382 153.859543 
L 411.293099 153.201171 
L 412.817393 151.239578 
L 413.122252 151.235774 
L 413.427111 151.502211 
L 413.73197 152.082862 
L 414.138448 153.427115 
L 414.544926 155.574045 
L 415.053024 159.747966 
L 415.561122 165.916798 
L 417.085416 186.553421 
L 417.288655 187.385066 
L 417.390275 187.509737 
L 417.491894 187.441944 
L 417.695133 186.758515 
L 417.999992 184.571334 
L 419.422666 171.735386 
L 419.727525 171.088344 
L 419.930764 171.174265 
L 420.235623 171.924878 
L 420.743721 174.189377 
L 421.759917 178.974455 
L 422.268015 180.406243 
L 422.572874 180.787483 
L 422.776113 180.814326 
L 422.979352 180.652224 
L 423.284211 180.063851 
L 423.690689 178.726337 
L 425.519842 171.789873 
L 425.8247 171.44453 
L 426.129559 171.420179 
L 426.434418 171.658733 
L 427.755472 173.091446 
L 428.060331 172.95455 
L 428.46681 172.387602 
L 429.076527 170.981086 
L 430.092723 168.621132 
L 430.70244 167.788474 
L 431.210538 167.437209 
L 431.718636 167.279543 
L 431.718636 167.279543 
" clip-path="url(#p7d66f60a06)" style="fill: none; stroke-dasharray: 1.85,0.8; stroke-dashoffset: 0; stroke: #1f77b4; stroke-width: 0.5"/>
   </g>
   <g id="line2d_30">
    <path d="M 66.091364 128.305985 
L 67.10756 133.974623 
L 68.022136 137.873748 
L 68.936712 140.794861 
L 69.749669 142.696131 
L 70.562625 144.05745 
L 71.375582 145.003554 
L 72.391778 145.815033 
L 74.627409 147.428274 
L 77.269518 149.828024 
L 77.879236 150.058235 
L 78.387334 150.059537 
L 78.997051 149.825839 
L 80.216486 149.016346 
L 81.029443 148.60934 
L 81.537541 148.559656 
L 82.045639 148.750954 
L 82.553737 149.251093 
L 83.265074 150.400853 
L 84.687748 152.799365 
L 85.195846 153.200489 
L 85.500705 153.221888 
L 85.805563 153.039753 
L 86.110422 152.622113 
L 86.516901 151.643657 
L 87.024998 149.722749 
L 87.736336 145.994969 
L 88.854151 138.662055 
L 90.581684 127.342792 
L 91.49626 122.920835 
L 92.410837 119.592662 
L 93.427032 116.778612 
L 94.951326 113.351683 
L 96.983718 109.17151 
L 98.203153 107.123153 
L 99.219349 105.842577 
L 100.337164 104.834253 
L 102.369556 103.419253 
L 103.79223 102.250415 
L 106.2311 100.194164 
L 107.247296 99.629489 
L 108.263492 99.311111 
L 109.584547 99.151598 
L 112.328276 99.139922 
L 114.462287 99.295335 
L 116.0882 99.639526 
L 119.238407 100.613971 
L 127.571214 103.213095 
L 128.790649 103.843152 
L 129.705225 104.588534 
L 130.518182 105.554663 
L 131.331138 106.89254 
L 133.566769 110.947944 
L 134.074867 111.33023 
L 134.481345 111.34213 
L 134.786204 111.145706 
L 135.192683 110.568588 
L 135.70078 109.309029 
L 136.412118 106.772369 
L 139.155846 95.974764 
L 139.663944 95.075645 
L 140.070423 94.750553 
L 140.476901 94.72892 
L 140.883379 94.967412 
L 141.391477 95.565311 
L 142.102814 96.810299 
L 145.964359 104.384874 
L 148.403229 108.234188 
L 149.724283 109.985691 
L 150.63886 110.858895 
L 151.350197 111.266478 
L 151.959914 111.393695 
L 152.772871 111.317323 
L 155.211741 110.88745 
L 155.821459 111.079245 
L 156.532796 111.549433 
L 157.447372 112.44774 
L 158.971666 114.327739 
L 160.699199 116.372557 
L 162.121873 117.712474 
L 163.341308 118.57793 
L 164.459124 119.109913 
L 165.27208 119.274066 
L 165.983417 119.206381 
L 166.694754 118.895917 
L 167.406092 118.299194 
L 168.117429 117.378478 
L 169.235244 115.467784 
L 170.759538 112.90184 
L 171.470875 112.099218 
L 171.978973 111.799775 
L 172.487071 111.747002 
L 173.096788 111.943676 
L 173.909745 112.505924 
L 176.145376 114.24632 
L 177.059952 114.513743 
L 178.990724 114.949761 
L 179.702061 115.387907 
L 180.413399 116.124246 
L 181.531214 117.708737 
L 182.953888 119.699562 
L 183.665225 120.355159 
L 184.173323 120.577055 
L 184.88466 120.595227 
L 185.799237 120.603831 
L 186.307335 120.844585 
L 186.713813 121.265729 
L 187.221911 122.182042 
L 187.730009 123.647344 
L 188.238107 125.783593 
L 188.949444 129.894681 
L 189.96564 137.370449 
L 192.912608 160.193132 
L 193.725564 164.58803 
L 194.436902 167.314015 
L 194.944999 168.531371 
L 195.351478 169.024174 
L 195.656337 169.094238 
L 195.961195 168.894049 
L 196.266054 168.411454 
L 196.672532 167.340329 
L 197.28225 164.966203 
L 198.095207 160.765281 
L 200.940555 144.996988 
L 201.855131 141.626586 
L 202.871327 138.758088 
L 204.090762 136.051492 
L 206.021534 132.354104 
L 207.240969 130.45021 
L 208.257165 129.267909 
L 209.070122 128.64984 
L 209.883079 128.318594 
L 210.696035 128.248357 
L 211.508992 128.413317 
L 212.423568 128.847891 
L 213.439764 129.589084 
L 214.964058 131.015903 
L 217.809406 133.719645 
L 219.943418 135.727172 
L 221.264472 137.295099 
L 223.398484 139.879445 
L 224.21144 140.536274 
L 224.922778 140.828999 
L 225.634115 140.859844 
L 226.650311 140.643569 
L 228.072985 140.344108 
L 228.784322 140.422404 
L 229.495659 140.746451 
L 230.410235 141.434429 
L 233.763682 144.24631 
L 235.491215 145.077937 
L 237.015508 145.885793 
L 238.641422 147.070395 
L 240.470574 148.346796 
L 241.48677 148.800914 
L 242.401346 148.976898 
L 243.315923 148.913899 
L 244.128879 148.64344 
L 244.941836 148.158617 
L 245.958032 147.266276 
L 249.311478 144.057736 
L 250.124435 143.683047 
L 250.937392 143.55004 
L 251.750348 143.665437 
L 252.563305 144.035963 
L 253.376262 144.666509 
L 255.611893 146.621186 
L 256.22161 146.768257 
L 256.729708 146.629813 
L 257.237806 146.194754 
L 257.847524 145.260705 
L 258.66048 143.503891 
L 261.404209 137.059469 
L 262.115546 136.14102 
L 262.826883 135.600574 
L 263.53822 135.354903 
L 264.351177 135.32832 
L 265.672232 135.55737 
L 267.298145 136.00917 
L 268.415961 136.534552 
L 269.432157 137.252604 
L 270.651592 138.427678 
L 272.887222 140.615427 
L 273.801799 141.183314 
L 275.122853 141.924472 
L 275.732571 142.556041 
L 276.342288 143.556643 
L 276.952006 145.060337 
L 277.561723 147.201183 
L 278.37468 151.035964 
L 280.610311 162.130906 
L 281.220029 163.885123 
L 281.626507 164.453091 
L 281.931366 164.527281 
L 282.236224 164.333964 
L 282.642703 163.724101 
L 283.150801 162.519342 
L 284.065377 159.630481 
L 285.284812 155.836011 
L 285.89453 154.621801 
L 286.402627 154.093764 
L 286.910725 153.920895 
L 287.418823 154.017997 
L 288.13016 154.445274 
L 289.654454 155.493248 
L 290.264172 155.598661 
L 290.975509 155.479328 
L 293.617618 154.757624 
L 294.227336 154.957387 
L 296.056488 155.747018 
L 296.564586 155.652402 
L 296.971064 155.372155 
L 297.479162 154.697271 
L 297.98726 153.586769 
L 298.698597 151.323999 
L 299.714793 147.199365 
L 301.442326 140.109165 
L 302.153663 138.008343 
L 302.763381 136.782072 
L 303.373098 135.982031 
L 303.982816 135.499179 
L 304.795773 135.160315 
L 306.320066 134.629384 
L 307.336262 133.954754 
L 309.876752 132.146933 
L 310.791328 131.832137 
L 312.82372 131.251025 
L 313.535057 130.773354 
L 314.246394 130.000247 
L 314.957731 128.837319 
L 315.669068 127.190629 
L 316.380406 124.966279 
L 317.193362 121.596371 
L 318.006319 117.20916 
L 319.022515 110.258902 
L 321.461385 92.826166 
L 322.172722 89.333563 
L 322.782439 87.427728 
L 323.290537 86.5599 
L 323.697016 86.277049 
L 324.001875 86.276851 
L 324.408353 86.524894 
L 324.916451 87.173906 
L 325.627788 88.565655 
L 326.745603 91.381413 
L 327.965038 94.288292 
L 328.574756 95.247315 
L 328.981234 95.582082 
L 329.286093 95.635569 
L 329.590952 95.494852 
L 329.895811 95.137568 
L 330.302289 94.285662 
L 330.810387 92.588661 
L 331.521724 89.308362 
L 334.265453 75.536533 
L 334.773551 74.286753 
L 335.281649 73.584998 
L 335.891366 73.159184 
L 336.805942 72.586766 
L 337.212421 72.070573 
L 337.618899 71.235078 
L 338.126997 69.571564 
L 338.635095 67.020734 
L 339.346432 62.029761 
L 341.886922 42.541166 
L 342.39502 40.596881 
L 342.699878 40.061272 
L 342.903118 39.96943 
L 343.106357 40.067254 
L 343.411216 40.52739 
L 343.817694 41.624589 
L 344.427411 43.993203 
L 346.154944 51.169521 
L 346.561423 52.046024 
L 346.866282 52.313716 
L 347.17114 52.269241 
L 347.475999 51.955391 
L 347.882477 51.191862 
L 348.492195 49.513186 
L 350.524587 43.415744 
L 350.931065 42.855374 
L 351.337543 42.64647 
L 351.744022 42.746572 
L 352.1505 43.113223 
L 352.658598 43.881687 
L 353.369935 45.387878 
L 355.097468 49.832938 
L 356.316903 52.596334 
L 357.333099 54.371477 
L 358.146056 55.342077 
L 358.755773 55.759221 
L 359.365491 55.913368 
L 360.584926 56.134301 
L 361.093024 56.499698 
L 361.601122 57.199027 
L 362.10922 58.350341 
L 362.617317 60.071689 
L 363.227035 63.038096 
L 363.938372 67.668861 
L 364.954568 75.924398 
L 366.783721 93.168447 
L 368.308014 106.784784 
L 369.222591 113.098814 
L 369.832308 116.052144 
L 370.340406 117.548993 
L 370.645265 117.966254 
L 370.848504 118.026194 
L 371.051743 117.901533 
L 371.356602 117.374906 
L 371.76308 116.099798 
L 372.271178 113.715945 
L 372.982515 109.229552 
L 374.20195 99.745561 
L 375.929483 86.510706 
L 377.758636 74.609564 
L 381.7218 50.278222 
L 382.331517 48.109174 
L 382.737996 47.231889 
L 383.042854 46.920939 
L 383.347713 46.938259 
L 383.652572 47.293956 
L 384.05905 48.293114 
L 384.567148 50.382805 
L 385.176866 54.118327 
L 385.888203 60.160842 
L 386.701159 69.274534 
L 387.615736 82.297404 
L 390.867563 132.229044 
L 391.47728 137.576053 
L 391.985378 140.301581 
L 392.391856 141.539484 
L 392.798335 142.107172 
L 393.103193 142.186167 
L 393.408052 142.040439 
L 393.91615 141.475427 
L 394.932346 140.225072 
L 395.237205 140.101473 
L 395.542064 140.206513 
L 395.948542 140.707432 
L 396.45664 141.819824 
L 397.167977 144.05158 
L 398.692271 149.937046 
L 399.606847 153.029581 
L 400.318184 154.756447 
L 401.029521 155.933326 
L 401.639239 156.568518 
L 402.248956 156.91517 
L 402.858674 157.026605 
L 403.570011 156.930461 
L 404.484587 156.55488 
L 405.602403 155.818779 
L 407.431555 154.283159 
L 408.65099 153.357603 
L 409.260708 153.148107 
L 409.768806 153.203572 
L 410.276904 153.532081 
L 410.785002 154.193551 
L 411.293099 155.247899 
L 411.902817 157.111723 
L 412.614154 160.078177 
L 413.63035 165.407807 
L 417.593514 187.607426 
L 418.304851 190.012784 
L 418.812949 191.130592 
L 419.219427 191.607133 
L 419.524286 191.695712 
L 419.829145 191.535892 
L 420.235623 190.943328 
L 420.743721 189.692101 
L 421.455058 187.243964 
L 424.097167 177.254084 
L 424.808504 175.805854 
L 425.519842 174.885731 
L 426.434418 174.134417 
L 427.653853 173.154654 
L 428.36519 172.227794 
L 429.279766 170.623451 
L 431.718636 166.103681 
L 431.718636 166.103681 
" clip-path="url(#p7d66f60a06)" style="fill: none; stroke: #ff7f0e; stroke-width: 0.5; stroke-linecap: square"/>
   </g>
   <g id="line2d_31">
    <path d="M 66.091364 288.794797 
L 66.192983 288.794797 
L 66.294603 284.030697 
L 66.599462 289.853399 
L 66.802701 290.851331 
L 67.00594 290.994545 
L 67.310799 290.651951 
L 68.123755 289.581933 
L 68.835092 288.887962 
L 69.44481 286.03955 
L 69.952908 284.563288 
L 70.257767 284.214954 
L 70.461006 284.206371 
L 70.765865 284.467903 
L 70.969104 284.730887 
L 72.391778 287.880264 
L 73.001496 288.36035 
L 73.712833 288.613582 
L 74.830648 288.749031 
L 77.675997 288.79331 
L 82.960215 288.75786 
L 84.28127 287.825027 
L 84.890987 288.203497 
L 85.602324 288.534147 
L 86.61852 288.719347 
L 87.837955 288.736365 
L 88.041194 288.187111 
L 89.362249 284.209934 
L 89.768727 283.723073 
L 89.971966 283.68243 
L 90.378445 283.866813 
L 90.784923 285.172382 
L 91.394641 286.940636 
L 91.902739 287.785944 
L 92.410837 288.252406 
L 93.122174 288.568525 
L 93.833511 288.679075 
L 93.93513 288.462488 
L 94.951326 283.064973 
L 95.561044 280.249631 
L 95.967522 279.280907 
L 96.170761 279.133303 
L 96.374 279.206983 
L 96.678859 279.688487 
L 97.085338 280.87068 
L 97.796675 283.83547 
L 98.406392 286.284649 
L 98.91449 287.432123 
L 99.422588 288.062682 
L 100.032306 288.448778 
L 100.845262 288.667609 
L 101.861458 288.728229 
L 102.471176 288.421773 
L 103.182513 288.354665 
L 106.637579 288.785782 
L 115.376863 288.779677 
L 115.986581 288.649882 
L 119.543266 288.792297 
L 124.421006 288.710306 
L 125.335583 288.630199 
L 127.266355 288.776566 
L 131.026279 288.757327 
L 131.635997 287.967336 
L 132.855432 286.386015 
L 133.36353 286.018578 
L 133.566769 285.875289 
L 133.770008 285.833759 
L 134.074867 286.355267 
L 134.786204 287.646411 
L 135.294302 288.168948 
L 135.90402 288.497602 
L 136.818596 288.69827 
L 137.123455 288.681922 
L 137.326694 288.055691 
L 138.038031 285.822575 
L 138.34289 285.341441 
L 138.647748 285.237096 
L 138.850988 285.308827 
L 139.257466 286.20589 
L 139.867184 287.464652 
L 140.375281 288.07051 
L 140.984999 288.450951 
L 141.797956 288.668254 
L 143.22063 288.772834 
L 145.151402 288.766568 
L 145.55788 288.584046 
L 146.370837 288.673061 
L 147.99675 288.777306 
L 152.671251 288.776138 
L 153.280969 288.575246 
L 156.634415 288.789862 
L 168.117429 288.794534 
L 168.320668 288.571443 
L 169.133624 287.407393 
L 169.743342 286.976439 
L 169.946581 287.085757 
L 171.267636 288.367736 
L 171.978973 288.615467 
L 173.198408 288.754776 
L 176.348615 288.793838 
L 181.226355 288.708802 
L 181.937692 288.37318 
L 182.64903 288.204133 
L 183.665225 288.562967 
L 184.681421 288.72677 
L 186.815433 288.789861 
L 187.628389 288.718859 
L 188.136487 287.500328 
L 188.847824 285.012878 
L 189.96564 280.91526 
L 190.372118 280.249138 
L 190.778596 280.279856 
L 190.981836 281.07528 
L 191.896412 285.776092 
L 192.40451 287.154314 
L 192.912608 287.913146 
L 193.522325 288.378057 
L 194.233662 288.621108 
L 194.436902 288.523906 
L 194.74176 288.255339 
L 195.148239 288.328956 
L 196.367674 288.672485 
L 197.891968 288.775833 
L 198.095207 288.719265 
L 198.908163 287.675161 
L 199.213022 287.773153 
L 200.330838 288.479606 
L 201.245414 288.69129 
L 202.871327 288.78079 
L 205.005339 288.717854 
L 205.513437 288.667442 
L 208.765263 288.791699 
L 212.01709 288.700568 
L 212.626808 288.694849 
L 215.065678 288.788942 
L 216.691591 288.773533 
L 216.99645 288.313392 
L 217.606167 287.602946 
L 218.012646 287.447772 
L 218.520744 287.556235 
L 219.43532 288.061325 
L 220.146657 288.463909 
L 221.061233 288.685791 
L 222.687147 288.780044 
L 223.906582 288.744289 
L 225.329256 286.737563 
L 225.735734 286.606556 
L 226.243832 286.713627 
L 226.447071 286.829121 
L 227.768126 288.29851 
L 228.479463 288.586329 
L 229.597279 288.742073 
L 232.239388 288.792736 
L 246.770989 288.744044 
L 247.279087 288.554446 
L 253.579501 288.794195 
L 253.88436 288.604897 
L 255.103795 287.845755 
L 255.713512 287.690107 
L 256.22161 288.043537 
L 256.932947 288.457984 
L 257.745904 288.669269 
L 259.168578 288.772972 
L 260.388013 288.744479 
L 260.997731 288.19231 
L 261.607448 287.956471 
L 261.912307 287.985823 
L 263.334981 288.616319 
L 264.554416 288.754731 
L 267.704624 288.793932 
L 274.208277 288.74365 
L 275.326093 288.004461 
L 275.630951 288.061719 
L 276.952006 288.6161 
L 278.171441 288.754639 
L 279.086017 288.780246 
L 279.187637 288.658141 
L 280.508691 284.923341 
L 281.016789 284.138422 
L 281.220029 283.983422 
L 281.423268 283.932137 
L 281.728126 284.767292 
L 282.439464 286.8931 
L 282.947562 287.757959 
L 283.455659 288.237017 
L 284.065377 288.531058 
L 284.979953 288.709213 
L 285.284812 288.672898 
L 286.097769 287.230039 
L 287.113965 285.31104 
L 287.520443 285.052938 
L 287.723682 285.259816 
L 288.943117 287.791336 
L 289.552835 288.316407 
L 290.264172 288.595071 
L 291.381987 288.744349 
L 293.820857 288.792048 
L 294.024096 288.707319 
L 295.040292 287.889738 
L 295.345151 287.961953 
L 296.564586 288.566304 
L 297.580782 288.728734 
L 298.800217 288.774269 
L 299.003456 288.371639 
L 299.613174 286.939476 
L 300.019652 286.368533 
L 300.42613 286.177116 
L 300.62937 286.316719 
L 301.950424 288.170998 
L 302.560142 288.498025 
L 303.474718 288.698364 
L 305.202251 288.783285 
L 313.230198 288.783297 
L 313.535057 288.523109 
L 314.348014 287.830671 
L 315.059351 288.272552 
L 315.770688 288.567684 
L 316.786884 288.729234 
L 317.599841 288.755059 
L 317.70146 288.549294 
L 318.920895 283.272193 
L 319.225754 282.653502 
L 319.428993 282.544137 
L 319.733852 282.681972 
L 320.038711 283.800176 
L 320.750048 286.454978 
L 321.258146 287.520522 
L 321.766244 288.109513 
L 322.375961 288.470794 
L 323.188918 288.675675 
L 324.713212 288.776562 
L 326.034266 288.784252 
L 326.237505 288.458355 
L 328.168278 284.396567 
L 328.574756 284.011453 
L 328.777995 283.903387 
L 328.879615 283.844046 
L 329.082854 284.203197 
L 330.200669 287.350258 
L 330.708767 288.013677 
L 331.318485 288.424823 
L 332.131441 288.658721 
L 332.842779 288.67465 
L 334.570312 286.504444 
L 334.773551 286.472594 
L 335.180029 287.056056 
L 335.789747 287.898836 
L 336.399464 288.363335 
L 337.110801 288.614203 
L 338.228617 288.74915 
L 340.464248 288.777468 
L 340.769106 288.50634 
L 341.277204 287.730307 
L 341.886922 286.714991 
L 342.090161 286.858748 
L 343.309596 288.25348 
L 344.020933 288.567071 
L 345.037129 288.729503 
L 345.545227 288.674857 
L 346.154944 287.577571 
L 346.561423 287.186974 
L 346.866282 287.145457 
L 347.27276 287.307247 
L 348.390575 288.330608 
L 349.101912 288.599088 
L 350.219728 288.745255 
L 352.963457 288.79309 
L 355.707186 288.710398 
L 357.333099 287.662341 
L 357.739577 287.523545 
L 358.349295 288.026379 
L 359.060632 288.456632 
L 359.873589 288.669202 
L 361.296263 288.772971 
L 362.10922 288.769829 
L 362.312459 288.426573 
L 362.922176 286.830114 
L 364.141611 283.335514 
L 364.44647 283.057351 
L 364.649709 283.090766 
L 365.056188 283.567104 
L 366.275623 287.324496 
L 366.783721 288.001329 
L 367.393438 288.419223 
L 368.206395 288.656686 
L 369.527449 288.767614 
L 371.051743 288.790392 
L 371.153363 288.629811 
L 371.661461 286.230671 
L 372.474417 282.1544 
L 372.576037 282.127537 
L 372.779276 282.714514 
L 373.795472 286.673371 
L 374.30357 287.645418 
L 374.811668 288.17764 
L 375.014907 288.313938 
L 375.116527 288.027383 
L 375.827864 281.286701 
L 376.437581 276.045774 
L 376.84406 274.093565 
L 377.148918 273.546946 
L 377.352158 273.579765 
L 377.555397 273.889071 
L 377.860255 274.782165 
L 378.469973 277.428814 
L 379.892647 286.229005 
L 380.400745 287.414119 
L 380.908843 288.054986 
L 381.518561 288.445432 
L 381.62018 288.486458 
L 381.7218 288.327943 
L 382.636376 283.578098 
L 383.246094 280.966118 
L 383.754191 279.707852 
L 384.05905 279.392498 
L 384.262289 279.371147 
L 384.567148 279.660836 
L 384.872007 280.098056 
L 385.176866 281.712099 
L 385.888203 285.483173 
L 386.396301 286.99178 
L 386.904399 287.825253 
L 387.412497 288.275392 
L 388.022214 288.549385 
L 388.123834 288.485614 
L 388.733551 287.411051 
L 389.444888 286.628215 
L 390.664323 285.4358 
L 390.867563 285.625589 
L 392.086998 287.896358 
L 392.696715 288.366499 
L 393.408052 288.615988 
L 394.627487 288.754935 
L 395.440444 288.69744 
L 396.050161 287.797075 
L 396.761499 286.224404 
L 397.879314 283.690972 
L 398.285792 283.292456 
L 398.79389 283.421855 
L 399.301988 285.274588 
L 399.911706 287.030997 
L 400.419804 287.839278 
L 400.927902 288.281754 
L 401.639239 288.580868 
L 402.452195 288.704051 
L 402.655435 288.378034 
L 403.163533 287.588 
L 403.570011 287.316025 
L 403.976489 287.338254 
L 405.500783 287.823434 
L 406.21212 287.594752 
L 406.415359 287.515445 
L 406.720218 287.709709 
L 407.634794 288.385815 
L 408.447751 288.642105 
L 409.768806 288.764706 
L 410.683382 288.78491 
L 410.785002 288.67949 
L 411.293099 287.0504 
L 411.902817 284.278037 
L 413.73197 275.186694 
L 414.138448 274.1357 
L 414.443307 273.813115 
L 414.646546 273.870609 
L 415.053024 274.470066 
L 415.357883 277.079045 
L 416.06922 283.303262 
L 416.577318 285.80386 
L 417.085416 287.186298 
L 417.593514 287.933048 
L 417.695133 287.762649 
L 417.999992 284.579653 
L 419.219427 270.217676 
L 419.524286 268.810177 
L 419.727525 268.567181 
L 419.930764 268.843991 
L 420.235623 270.079787 
L 420.743721 273.615285 
L 421.150199 277.042631 
L 421.861536 283.315655 
L 422.369634 285.812909 
L 422.877732 287.191534 
L 423.38583 287.935934 
L 423.995548 288.389253 
L 424.198787 288.478784 
L 424.300407 288.397459 
L 425.113363 286.501803 
L 425.519842 286.015944 
L 425.723081 285.81774 
L 425.92632 285.970083 
L 427.247375 288.082139 
L 427.857092 288.455731 
L 428.670049 288.669937 
L 430.092723 288.773111 
L 431.718636 288.791857 
L 431.718636 288.791857 
" clip-path="url(#p7d66f60a06)" style="fill: none; stroke: #2ca02c; stroke-width: 0.5; stroke-linecap: square"/>
   </g>
   <g id="patch_3">
    <path d="M 47.81 303.64 
L 47.81 25.44 
" style="fill: none; stroke: #000000; stroke-width: 0.8; stroke-linejoin: miter; stroke-linecap: square"/>
   </g>
   <g id="patch_4">
    <path d="M 450 303.64 
L 450 25.44 
" style="fill: none; stroke: #000000; stroke-width: 0.8; stroke-linejoin: miter; stroke-linecap: square"/>
   </g>
   <g id="patch_5">
    <path d="M 47.81 303.64 
L 450 303.64 
" style="fill: none; stroke: #000000; stroke-width: 0.8; stroke-linejoin: miter; stroke-linecap: square"/>
   </g>
   <g id="patch_6">
    <path d="M 47.81 25.44 
L 450 25.44 
" style="fill: none; stroke: #000000; stroke-width: 0.8; stroke-linejoin: miter; stroke-linecap: square"/>
   </g>
   <g id="text_17">
    <!-- cvxEDA (σ=2.8s  data_2_E4) -->
    <g transform="translate(163.25125 19.44) scale(0.12 -0.12)">
     <defs>
      <path id="DejaVuSans-63" d="M 3122 3366 
L 3122 2828 
Q 2878 2963 2633 3030 
Q 2388 3097 2138 3097 
Q 1578 3097 1268 2742 
Q 959 2388 959 1747 
Q 959 1106 1268 751 
Q 1578 397 2138 397 
Q 2388 397 2633 464 
Q 2878 531 3122 666 
L 3122 134 
Q 2881 22 2623 -34 
Q 2366 -91 2075 -91 
Q 1284 -91 818 406 
Q 353 903 353 1747 
Q 353 2603 823 3093 
Q 1294 3584 2113 3584 
Q 2378 3584 2631 3529 
Q 2884 3475 3122 3366 
z
" transform="scale(0.015625)"/>
      <path id="DejaVuSans-76" d="M 191 3500 
L 800 3500 
L 1894 563 
L 2988 3500 
L 3597 3500 
L 2284 0 
L 1503 0 
L 191 3500 
z
" transform="scale(0.015625)"/>
      <path id="DejaVuSans-78" d="M 3513 3500 
L 2247 1797 
L 3578 0 
L 2900 0 
L 1881 1375 
L 863 0 
L 184 0 
L 1544 1831 
L 300 3500 
L 978 3500 
L 1906 2253 
L 2834 3500 
L 3513 3500 
z
" transform="scale(0.015625)"/>
      <path id="DejaVuSans-3c3" d="M 1959 3044 
Q 1484 3044 1228 2700 
Q 959 2341 959 1747 
Q 959 1119 1226 758 
Q 1494 397 1959 397 
Q 2419 397 2687 759 
Q 2956 1122 2956 1747 
Q 2956 2319 2688 2700 
Q 2441 3044 1959 3044 
z
M 1959 3500 
L 3869 3500 
L 3869 2925 
L 3225 2925 
Q 3566 2438 3566 1747 
Q 3566 888 3138 400 
Q 2709 -91 1959 -91 
Q 1206 -91 781 400 
Q 353 888 353 1747 
Q 353 2613 781 3097 
Q 1134 3500 1959 3500 
z
" transform="scale(0.015625)"/>
      <path id="DejaVuSans-3d" d="M 678 2906 
L 4684 2906 
L 4684 2381 
L 678 2381 
L 678 2906 
z
M 678 1631 
L 4684 1631 
L 4684 1100 
L 678 1100 
L 678 1631 
z
" transform="scale(0.015625)"/>
      <path id="DejaVuSans-64" d="M 2906 2969 
L 2906 4863 
L 3481 4863 
L 3481 0 
L 2906 0 
L 2906 525 
Q 2725 213 2448 61 
Q 2172 -91 1784 -91 
Q 1150 -91 751 415 
Q 353 922 353 1747 
Q 353 2572 751 3078 
Q 1150 3584 1784 3584 
Q 2172 3584 2448 3432 
Q 2725 3281 2906 2969 
z
M 947 1747 
Q 947 1113 1208 752 
Q 1469 391 1925 391 
Q 2381 391 2643 752 
Q 2906 1113 2906 1747 
Q 2906 2381 2643 2742 
Q 2381 3103 1925 3103 
Q 1469 3103 1208 2742 
Q 947 2381 947 1747 
z
" transform="scale(0.015625)"/>
      <path id="DejaVuSans-5f" d="M 3263 -1063 
L 3263 -1509 
L -63 -1509 
L -63 -1063 
L 3263 -1063 
z
" transform="scale(0.015625)"/>
     </defs>
     <use xlink:href="#DejaVuSans-63"/>
     <use xlink:href="#DejaVuSans-76" transform="translate(54.980469 0)"/>
     <use xlink:href="#DejaVuSans-78" transform="translate(114.160156 0)"/>
     <use xlink:href="#DejaVuSans-45" transform="translate(173.339844 0)"/>
     <use xlink:href="#DejaVuSans-44" transform="translate(236.523438 0)"/>
     <use xlink:href="#DejaVuSans-41" transform="translate(311.775391 0)"/>
     <use xlink:href="#DejaVuSans-20" transform="translate(380.183594 0)"/>
     <use xlink:href="#DejaVuSans-28" transform="translate(411.970703 0)"/>
     <use xlink:href="#DejaVuSans-3c3" transform="translate(450.984375 0)"/>
     <use xlink:href="#DejaVuSans-3d" transform="translate(514.363281 0)"/>
     <use xlink:href="#DejaVuSans-32" transform="translate(598.152344 0)"/>
     <use xlink:href="#DejaVuSans-2e" transform="translate(661.775391 0)"/>
     <use xlink:href="#DejaVuSans-38" transform="translate(693.5625 0)"/>
     <use xlink:href="#DejaVuSans-73" transform="translate(757.185547 0)"/>
     <use xlink:href="#DejaVuSans-20" transform="translate(809.285156 0)"/>
     <use xlink:href="#DejaVuSans-20" transform="translate(841.072266 0)"/>
     <use xlink:href="#DejaVuSans-64" transform="translate(872.859375 0)"/>
     <use xlink:href="#DejaVuSans-61" transform="translate(936.335938 0)"/>
     <use xlink:href="#DejaVuSans-74" transform="translate(997.615234 0)"/>
     <use xlink:href="#DejaVuSans-61" transform="translate(1036.824219 0)"/>
     <use xlink:href="#DejaVuSans-5f" transform="translate(1098.103516 0)"/>
     <use xlink:href="#DejaVuSans-32" transform="translate(1148.103516 0)"/>
     <use xlink:href="#DejaVuSans-5f" transform="translate(1211.726562 0)"/>
     <use xlink:href="#DejaVuSans-45" transform="translate(1261.726562 0)"/>
     <use xlink:href="#DejaVuSans-34" transform="translate(1324.910156 0)"/>
     <use xlink:href="#DejaVuSans-29" transform="translate(1388.533203 0)"/>
    </g>
   </g>
   <g id="legend_1">
    <g id="patch_7">
     <path d="M 54.81 77.474375 
L 147.71625 77.474375 
Q 149.71625 77.474375 149.71625 75.474375 
L 149.71625 32.44 
Q 149.71625 30.44 147.71625 30.44 
L 54.81 30.44 
Q 52.81 30.44 52.81 32.44 
L 52.81 75.474375 
Q 52.81 77.474375 54.81 77.474375 
z
" style="fill: #ffffff; opacity: 0.8; stroke: #cccccc; stroke-linejoin: miter"/>
    </g>
    <g id="line2d_32">
     <path d="M 56.81 38.538437 
L 66.81 38.538437 
L 76.81 38.538437 
" style="fill: none; stroke-dasharray: 1.85,0.8; stroke-dashoffset: 0; stroke: #1f77b4; stroke-width: 0.5"/>
    </g>
    <g id="text_18">
     <!-- Filtered EDA -->
     <g transform="translate(84.81 42.038437) scale(0.1 -0.1)">
      <defs>
       <path id="DejaVuSans-46" d="M 628 4666 
L 3309 4666 
L 3309 4134 
L 1259 4134 
L 1259 2759 
L 3109 2759 
L 3109 2228 
L 1259 2228 
L 1259 0 
L 628 0 
L 628 4666 
z
" transform="scale(0.015625)"/>
       <path id="DejaVuSans-72" d="M 2631 2963 
Q 2534 3019 2420 3045 
Q 2306 3072 2169 3072 
Q 1681 3072 1420 2755 
Q 1159 2438 1159 1844 
L 1159 0 
L 581 0 
L 581 3500 
L 1159 3500 
L 1159 2956 
Q 1341 3275 1631 3429 
Q 1922 3584 2338 3584 
Q 2397 3584 2469 3576 
Q 2541 3569 2628 3553 
L 2631 2963 
z
" transform="scale(0.015625)"/>
      </defs>
      <use xlink:href="#DejaVuSans-46"/>
      <use xlink:href="#DejaVuSans-69" transform="translate(50.269531 0)"/>
      <use xlink:href="#DejaVuSans-6c" transform="translate(78.052734 0)"/>
      <use xlink:href="#DejaVuSans-74" transform="translate(105.835938 0)"/>
      <use xlink:href="#DejaVuSans-65" transform="translate(145.044922 0)"/>
      <use xlink:href="#DejaVuSans-72" transform="translate(206.568359 0)"/>
      <use xlink:href="#DejaVuSans-65" transform="translate(245.431641 0)"/>
      <use xlink:href="#DejaVuSans-64" transform="translate(306.955078 0)"/>
      <use xlink:href="#DejaVuSans-20" transform="translate(370.431641 0)"/>
      <use xlink:href="#DejaVuSans-45" transform="translate(402.21875 0)"/>
      <use xlink:href="#DejaVuSans-44" transform="translate(465.402344 0)"/>
      <use xlink:href="#DejaVuSans-41" transform="translate(540.654297 0)"/>
     </g>
    </g>
    <g id="line2d_33">
     <path d="M 56.81 53.216562 
L 66.81 53.216562 
L 76.81 53.216562 
" style="fill: none; stroke: #ff7f0e; stroke-width: 0.5; stroke-linecap: square"/>
    </g>
    <g id="text_19">
     <!-- Tonic -->
     <g transform="translate(84.81 56.716562) scale(0.1 -0.1)">
      <defs>
       <path id="DejaVuSans-6f" d="M 1959 3097 
Q 1497 3097 1228 2736 
Q 959 2375 959 1747 
Q 959 1119 1226 758 
Q 1494 397 1959 397 
Q 2419 397 2687 759 
Q 2956 1122 2956 1747 
Q 2956 2369 2687 2733 
Q 2419 3097 1959 3097 
z
M 1959 3584 
Q 2709 3584 3137 3096 
Q 3566 2609 3566 1747 
Q 3566 888 3137 398 
Q 2709 -91 1959 -91 
Q 1206 -91 779 398 
Q 353 888 353 1747 
Q 353 2609 779 3096 
Q 1206 3584 1959 3584 
z
" transform="scale(0.015625)"/>
      </defs>
      <use xlink:href="#DejaVuSans-54"/>
      <use xlink:href="#DejaVuSans-6f" transform="translate(44.083984 0)"/>
      <use xlink:href="#DejaVuSans-6e" transform="translate(105.265625 0)"/>
      <use xlink:href="#DejaVuSans-69" transform="translate(168.644531 0)"/>
      <use xlink:href="#DejaVuSans-63" transform="translate(196.427734 0)"/>
     </g>
    </g>
    <g id="line2d_34">
     <path d="M 56.81 67.894687 
L 66.81 67.894687 
L 76.81 67.894687 
" style="fill: none; stroke: #2ca02c; stroke-width: 0.5; stroke-linecap: square"/>
    </g>
    <g id="text_20">
     <!-- Phasic -->
     <g transform="translate(84.81 71.394687) scale(0.1 -0.1)">
      <defs>
       <path id="DejaVuSans-50" d="M 1259 4147 
L 1259 2394 
L 2053 2394 
Q 2494 2394 2734 2622 
Q 2975 2850 2975 3272 
Q 2975 3691 2734 3919 
Q 2494 4147 2053 4147 
L 1259 4147 
z
M 628 4666 
L 2053 4666 
Q 2838 4666 3239 4311 
Q 3641 3956 3641 3272 
Q 3641 2581 3239 2228 
Q 2838 1875 2053 1875 
L 1259 1875 
L 1259 0 
L 628 0 
L 628 4666 
z
" transform="scale(0.015625)"/>
       <path id="DejaVuSans-68" d="M 3513 2113 
L 3513 0 
L 2938 0 
L 2938 2094 
Q 2938 2591 2744 2837 
Q 2550 3084 2163 3084 
Q 1697 3084 1428 2787 
Q 1159 2491 1159 1978 
L 1159 0 
L 581 0 
L 581 4863 
L 1159 4863 
L 1159 2956 
Q 1366 3272 1645 3428 
Q 1925 3584 2291 3584 
Q 2894 3584 3203 3211 
Q 3513 2838 3513 2113 
z
" transform="scale(0.015625)"/>
      </defs>
      <use xlink:href="#DejaVuSans-50"/>
      <use xlink:href="#DejaVuSans-68" transform="translate(60.302734 0)"/>
      <use xlink:href="#DejaVuSans-61" transform="translate(123.681641 0)"/>
      <use xlink:href="#DejaVuSans-73" transform="translate(184.960938 0)"/>
      <use xlink:href="#DejaVuSans-69" transform="translate(237.060547 0)"/>
      <use xlink:href="#DejaVuSans-63" transform="translate(264.84375 0)"/>
     </g>
    </g>
   </g>
  </g>
 </g>
 <defs>
  <clipPath id="p7d66f60a06">
   <rect x="47.81" y="25.44" width="402.19" height="278.2"/>
  </clipPath>
 </defs>
</svg>
