<?xml version="1.0" encoding="utf-8" standalone="no"?>
<!DOCTYPE svg PUBLIC "-//W3C//DTD SVG 1.1//EN"
  "http://www.w3.org/Graphics/SVG/1.1/DTD/svg11.dtd">
<svg xmlns:xlink="http://www.w3.org/1999/xlink" width="460.8pt" height="345.6pt" viewBox="0 0 460.8 345.6" xmlns="http://www.w3.org/2000/svg" version="1.1">
 <metadata>
  <rdf:RDF xmlns:dc="http://purl.org/dc/elements/1.1/" xmlns:cc="http://creativecommons.org/ns#" xmlns:rdf="http://www.w3.org/1999/02/22-rdf-syntax-ns#">
   <cc:Work>
    <dc:type rdf:resource="http://purl.org/dc/dcmitype/StillImage"/>
    <dc:date>2025-09-22T14:18:49.706458</dc:date>
    <dc:format>image/svg+xml</dc:format>
    <dc:creator>
     <cc:Agent>
      <dc:title>Matplotlib v3.10.0, https://matplotlib.org/</dc:title>
     </cc:Agent>
    </dc:creator>
   </cc:Work>
  </rdf:RDF>
 </metadata>
 <defs>
  <style type="text/css">*{stroke-linejoin: round; stroke-linecap: butt}</style>
 </defs>
 <g id="figure_1">
  <g id="patch_1">
   <path d="M 0 345.6 
L 460.8 345.6 
L 460.8 0 
L 0 0 
z
" style="fill: #ffffff"/>
  </g>
  <g id="axes_1">
   <g id="patch_2">
    <path d="M 47.81 303.64 
L 450 303.64 
L 450 25.44 
L 47.81 25.44 
z
" style="fill: #ffffff"/>
   </g>
   <g id="matplotlib.axis_1">
    <g id="xtick_1">
     <g id="line2d_1">
      <path d="M 66.091364 303.64 
L 66.091364 25.44 
" clip-path="url(#pd6c076fe15)" style="fill: none; stroke: #b0b0b0; stroke-opacity: 0.3; stroke-width: 0.8; stroke-linecap: square"/>
     </g>
     <g id="line2d_2">
      <defs>
       <path id="m194ade70cb" d="M 0 0 
L 0 3.5 
" style="stroke: #000000; stroke-width: 0.8"/>
      </defs>
      <g>
       <use xlink:href="#m194ade70cb" x="66.091364" y="303.64" style="stroke: #000000; stroke-width: 0.8"/>
      </g>
     </g>
     <g id="text_1">
      <!-- 0 -->
      <g transform="translate(62.910114 318.238437) scale(0.1 -0.1)">
       <defs>
        <path id="DejaVuSans-30" d="M 2034 4250 
Q 1547 4250 1301 3770 
Q 1056 3291 1056 2328 
Q 1056 1369 1301 889 
Q 1547 409 2034 409 
Q 2525 409 2770 889 
Q 3016 1369 3016 2328 
Q 3016 3291 2770 3770 
Q 2525 4250 2034 4250 
z
M 2034 4750 
Q 2819 4750 3233 4129 
Q 3647 3509 3647 2328 
Q 3647 1150 3233 529 
Q 2819 -91 2034 -91 
Q 1250 -91 836 529 
Q 422 1150 422 2328 
Q 422 3509 836 4129 
Q 1250 4750 2034 4750 
z
" transform="scale(0.015625)"/>
       </defs>
       <use xlink:href="#DejaVuSans-30"/>
      </g>
     </g>
    </g>
    <g id="xtick_2">
     <g id="line2d_3">
      <path d="M 114.841667 303.64 
L 114.841667 25.44 
" clip-path="url(#pd6c076fe15)" style="fill: none; stroke: #b0b0b0; stroke-opacity: 0.3; stroke-width: 0.8; stroke-linecap: square"/>
     </g>
     <g id="line2d_4">
      <g>
       <use xlink:href="#m194ade70cb" x="114.841667" y="303.64" style="stroke: #000000; stroke-width: 0.8"/>
      </g>
     </g>
     <g id="text_2">
      <!-- 2 -->
      <g transform="translate(111.660417 318.238437) scale(0.1 -0.1)">
       <defs>
        <path id="DejaVuSans-32" d="M 1228 531 
L 3431 531 
L 3431 0 
L 469 0 
L 469 531 
Q 828 903 1448 1529 
Q 2069 2156 2228 2338 
Q 2531 2678 2651 2914 
Q 2772 3150 2772 3378 
Q 2772 3750 2511 3984 
Q 2250 4219 1831 4219 
Q 1534 4219 1204 4116 
Q 875 4013 500 3803 
L 500 4441 
Q 881 4594 1212 4672 
Q 1544 4750 1819 4750 
Q 2544 4750 2975 4387 
Q 3406 4025 3406 3419 
Q 3406 3131 3298 2873 
Q 3191 2616 2906 2266 
Q 2828 2175 2409 1742 
Q 1991 1309 1228 531 
z
" transform="scale(0.015625)"/>
       </defs>
       <use xlink:href="#DejaVuSans-32"/>
      </g>
     </g>
    </g>
    <g id="xtick_3">
     <g id="line2d_5">
      <path d="M 163.59197 303.64 
L 163.59197 25.44 
" clip-path="url(#pd6c076fe15)" style="fill: none; stroke: #b0b0b0; stroke-opacity: 0.3; stroke-width: 0.8; stroke-linecap: square"/>
     </g>
     <g id="line2d_6">
      <g>
       <use xlink:href="#m194ade70cb" x="163.59197" y="303.64" style="stroke: #000000; stroke-width: 0.8"/>
      </g>
     </g>
     <g id="text_3">
      <!-- 4 -->
      <g transform="translate(160.41072 318.238437) scale(0.1 -0.1)">
       <defs>
        <path id="DejaVuSans-34" d="M 2419 4116 
L 825 1625 
L 2419 1625 
L 2419 4116 
z
M 2253 4666 
L 3047 4666 
L 3047 1625 
L 3713 1625 
L 3713 1100 
L 3047 1100 
L 3047 0 
L 2419 0 
L 2419 1100 
L 313 1100 
L 313 1709 
L 2253 4666 
z
" transform="scale(0.015625)"/>
       </defs>
       <use xlink:href="#DejaVuSans-34"/>
      </g>
     </g>
    </g>
    <g id="xtick_4">
     <g id="line2d_7">
      <path d="M 212.342273 303.64 
L 212.342273 25.44 
" clip-path="url(#pd6c076fe15)" style="fill: none; stroke: #b0b0b0; stroke-opacity: 0.3; stroke-width: 0.8; stroke-linecap: square"/>
     </g>
     <g id="line2d_8">
      <g>
       <use xlink:href="#m194ade70cb" x="212.342273" y="303.64" style="stroke: #000000; stroke-width: 0.8"/>
      </g>
     </g>
     <g id="text_4">
      <!-- 6 -->
      <g transform="translate(209.161023 318.238437) scale(0.1 -0.1)">
       <defs>
        <path id="DejaVuSans-36" d="M 2113 2584 
Q 1688 2584 1439 2293 
Q 1191 2003 1191 1497 
Q 1191 994 1439 701 
Q 1688 409 2113 409 
Q 2538 409 2786 701 
Q 3034 994 3034 1497 
Q 3034 2003 2786 2293 
Q 2538 2584 2113 2584 
z
M 3366 4563 
L 3366 3988 
Q 3128 4100 2886 4159 
Q 2644 4219 2406 4219 
Q 1781 4219 1451 3797 
Q 1122 3375 1075 2522 
Q 1259 2794 1537 2939 
Q 1816 3084 2150 3084 
Q 2853 3084 3261 2657 
Q 3669 2231 3669 1497 
Q 3669 778 3244 343 
Q 2819 -91 2113 -91 
Q 1303 -91 875 529 
Q 447 1150 447 2328 
Q 447 3434 972 4092 
Q 1497 4750 2381 4750 
Q 2619 4750 2861 4703 
Q 3103 4656 3366 4563 
z
" transform="scale(0.015625)"/>
       </defs>
       <use xlink:href="#DejaVuSans-36"/>
      </g>
     </g>
    </g>
    <g id="xtick_5">
     <g id="line2d_9">
      <path d="M 261.092576 303.64 
L 261.092576 25.44 
" clip-path="url(#pd6c076fe15)" style="fill: none; stroke: #b0b0b0; stroke-opacity: 0.3; stroke-width: 0.8; stroke-linecap: square"/>
     </g>
     <g id="line2d_10">
      <g>
       <use xlink:href="#m194ade70cb" x="261.092576" y="303.64" style="stroke: #000000; stroke-width: 0.8"/>
      </g>
     </g>
     <g id="text_5">
      <!-- 8 -->
      <g transform="translate(257.911326 318.238437) scale(0.1 -0.1)">
       <defs>
        <path id="DejaVuSans-38" d="M 2034 2216 
Q 1584 2216 1326 1975 
Q 1069 1734 1069 1313 
Q 1069 891 1326 650 
Q 1584 409 2034 409 
Q 2484 409 2743 651 
Q 3003 894 3003 1313 
Q 3003 1734 2745 1975 
Q 2488 2216 2034 2216 
z
M 1403 2484 
Q 997 2584 770 2862 
Q 544 3141 544 3541 
Q 544 4100 942 4425 
Q 1341 4750 2034 4750 
Q 2731 4750 3128 4425 
Q 3525 4100 3525 3541 
Q 3525 3141 3298 2862 
Q 3072 2584 2669 2484 
Q 3125 2378 3379 2068 
Q 3634 1759 3634 1313 
Q 3634 634 3220 271 
Q 2806 -91 2034 -91 
Q 1263 -91 848 271 
Q 434 634 434 1313 
Q 434 1759 690 2068 
Q 947 2378 1403 2484 
z
M 1172 3481 
Q 1172 3119 1398 2916 
Q 1625 2713 2034 2713 
Q 2441 2713 2670 2916 
Q 2900 3119 2900 3481 
Q 2900 3844 2670 4047 
Q 2441 4250 2034 4250 
Q 1625 4250 1398 4047 
Q 1172 3844 1172 3481 
z
" transform="scale(0.015625)"/>
       </defs>
       <use xlink:href="#DejaVuSans-38"/>
      </g>
     </g>
    </g>
    <g id="xtick_6">
     <g id="line2d_11">
      <path d="M 309.842879 303.64 
L 309.842879 25.44 
" clip-path="url(#pd6c076fe15)" style="fill: none; stroke: #b0b0b0; stroke-opacity: 0.3; stroke-width: 0.8; stroke-linecap: square"/>
     </g>
     <g id="line2d_12">
      <g>
       <use xlink:href="#m194ade70cb" x="309.842879" y="303.64" style="stroke: #000000; stroke-width: 0.8"/>
      </g>
     </g>
     <g id="text_6">
      <!-- 10 -->
      <g transform="translate(303.480379 318.238437) scale(0.1 -0.1)">
       <defs>
        <path id="DejaVuSans-31" d="M 794 531 
L 1825 531 
L 1825 4091 
L 703 3866 
L 703 4441 
L 1819 4666 
L 2450 4666 
L 2450 531 
L 3481 531 
L 3481 0 
L 794 0 
L 794 531 
z
" transform="scale(0.015625)"/>
       </defs>
       <use xlink:href="#DejaVuSans-31"/>
       <use xlink:href="#DejaVuSans-30" transform="translate(63.623047 0)"/>
      </g>
     </g>
    </g>
    <g id="xtick_7">
     <g id="line2d_13">
      <path d="M 358.593182 303.64 
L 358.593182 25.44 
" clip-path="url(#pd6c076fe15)" style="fill: none; stroke: #b0b0b0; stroke-opacity: 0.3; stroke-width: 0.8; stroke-linecap: square"/>
     </g>
     <g id="line2d_14">
      <g>
       <use xlink:href="#m194ade70cb" x="358.593182" y="303.64" style="stroke: #000000; stroke-width: 0.8"/>
      </g>
     </g>
     <g id="text_7">
      <!-- 12 -->
      <g transform="translate(352.230682 318.238437) scale(0.1 -0.1)">
       <use xlink:href="#DejaVuSans-31"/>
       <use xlink:href="#DejaVuSans-32" transform="translate(63.623047 0)"/>
      </g>
     </g>
    </g>
    <g id="xtick_8">
     <g id="line2d_15">
      <path d="M 407.343485 303.64 
L 407.343485 25.44 
" clip-path="url(#pd6c076fe15)" style="fill: none; stroke: #b0b0b0; stroke-opacity: 0.3; stroke-width: 0.8; stroke-linecap: square"/>
     </g>
     <g id="line2d_16">
      <g>
       <use xlink:href="#m194ade70cb" x="407.343485" y="303.64" style="stroke: #000000; stroke-width: 0.8"/>
      </g>
     </g>
     <g id="text_8">
      <!-- 14 -->
      <g transform="translate(400.980985 318.238437) scale(0.1 -0.1)">
       <use xlink:href="#DejaVuSans-31"/>
       <use xlink:href="#DejaVuSans-34" transform="translate(63.623047 0)"/>
      </g>
     </g>
    </g>
    <g id="text_9">
     <!-- Time (minutes) -->
     <g transform="translate(210.9425 331.916562) scale(0.1 -0.1)">
      <defs>
       <path id="DejaVuSans-54" d="M -19 4666 
L 3928 4666 
L 3928 4134 
L 2272 4134 
L 2272 0 
L 1638 0 
L 1638 4134 
L -19 4134 
L -19 4666 
z
" transform="scale(0.015625)"/>
       <path id="DejaVuSans-69" d="M 603 3500 
L 1178 3500 
L 1178 0 
L 603 0 
L 603 3500 
z
M 603 4863 
L 1178 4863 
L 1178 4134 
L 603 4134 
L 603 4863 
z
" transform="scale(0.015625)"/>
       <path id="DejaVuSans-6d" d="M 3328 2828 
Q 3544 3216 3844 3400 
Q 4144 3584 4550 3584 
Q 5097 3584 5394 3201 
Q 5691 2819 5691 2113 
L 5691 0 
L 5113 0 
L 5113 2094 
Q 5113 2597 4934 2840 
Q 4756 3084 4391 3084 
Q 3944 3084 3684 2787 
Q 3425 2491 3425 1978 
L 3425 0 
L 2847 0 
L 2847 2094 
Q 2847 2600 2669 2842 
Q 2491 3084 2119 3084 
Q 1678 3084 1418 2786 
Q 1159 2488 1159 1978 
L 1159 0 
L 581 0 
L 581 3500 
L 1159 3500 
L 1159 2956 
Q 1356 3278 1631 3431 
Q 1906 3584 2284 3584 
Q 2666 3584 2933 3390 
Q 3200 3197 3328 2828 
z
" transform="scale(0.015625)"/>
       <path id="DejaVuSans-65" d="M 3597 1894 
L 3597 1613 
L 953 1613 
Q 991 1019 1311 708 
Q 1631 397 2203 397 
Q 2534 397 2845 478 
Q 3156 559 3463 722 
L 3463 178 
Q 3153 47 2828 -22 
Q 2503 -91 2169 -91 
Q 1331 -91 842 396 
Q 353 884 353 1716 
Q 353 2575 817 3079 
Q 1281 3584 2069 3584 
Q 2775 3584 3186 3129 
Q 3597 2675 3597 1894 
z
M 3022 2063 
Q 3016 2534 2758 2815 
Q 2500 3097 2075 3097 
Q 1594 3097 1305 2825 
Q 1016 2553 972 2059 
L 3022 2063 
z
" transform="scale(0.015625)"/>
       <path id="DejaVuSans-20" transform="scale(0.015625)"/>
       <path id="DejaVuSans-28" d="M 1984 4856 
Q 1566 4138 1362 3434 
Q 1159 2731 1159 2009 
Q 1159 1288 1364 580 
Q 1569 -128 1984 -844 
L 1484 -844 
Q 1016 -109 783 600 
Q 550 1309 550 2009 
Q 550 2706 781 3412 
Q 1013 4119 1484 4856 
L 1984 4856 
z
" transform="scale(0.015625)"/>
       <path id="DejaVuSans-6e" d="M 3513 2113 
L 3513 0 
L 2938 0 
L 2938 2094 
Q 2938 2591 2744 2837 
Q 2550 3084 2163 3084 
Q 1697 3084 1428 2787 
Q 1159 2491 1159 1978 
L 1159 0 
L 581 0 
L 581 3500 
L 1159 3500 
L 1159 2956 
Q 1366 3272 1645 3428 
Q 1925 3584 2291 3584 
Q 2894 3584 3203 3211 
Q 3513 2838 3513 2113 
z
" transform="scale(0.015625)"/>
       <path id="DejaVuSans-75" d="M 544 1381 
L 544 3500 
L 1119 3500 
L 1119 1403 
Q 1119 906 1312 657 
Q 1506 409 1894 409 
Q 2359 409 2629 706 
Q 2900 1003 2900 1516 
L 2900 3500 
L 3475 3500 
L 3475 0 
L 2900 0 
L 2900 538 
Q 2691 219 2414 64 
Q 2138 -91 1772 -91 
Q 1169 -91 856 284 
Q 544 659 544 1381 
z
M 1991 3584 
L 1991 3584 
z
" transform="scale(0.015625)"/>
       <path id="DejaVuSans-74" d="M 1172 4494 
L 1172 3500 
L 2356 3500 
L 2356 3053 
L 1172 3053 
L 1172 1153 
Q 1172 725 1289 603 
Q 1406 481 1766 481 
L 2356 481 
L 2356 0 
L 1766 0 
Q 1100 0 847 248 
Q 594 497 594 1153 
L 594 3053 
L 172 3053 
L 172 3500 
L 594 3500 
L 594 4494 
L 1172 4494 
z
" transform="scale(0.015625)"/>
       <path id="DejaVuSans-73" d="M 2834 3397 
L 2834 2853 
Q 2591 2978 2328 3040 
Q 2066 3103 1784 3103 
Q 1356 3103 1142 2972 
Q 928 2841 928 2578 
Q 928 2378 1081 2264 
Q 1234 2150 1697 2047 
L 1894 2003 
Q 2506 1872 2764 1633 
Q 3022 1394 3022 966 
Q 3022 478 2636 193 
Q 2250 -91 1575 -91 
Q 1294 -91 989 -36 
Q 684 19 347 128 
L 347 722 
Q 666 556 975 473 
Q 1284 391 1588 391 
Q 1994 391 2212 530 
Q 2431 669 2431 922 
Q 2431 1156 2273 1281 
Q 2116 1406 1581 1522 
L 1381 1569 
Q 847 1681 609 1914 
Q 372 2147 372 2553 
Q 372 3047 722 3315 
Q 1072 3584 1716 3584 
Q 2034 3584 2315 3537 
Q 2597 3491 2834 3397 
z
" transform="scale(0.015625)"/>
       <path id="DejaVuSans-29" d="M 513 4856 
L 1013 4856 
Q 1481 4119 1714 3412 
Q 1947 2706 1947 2009 
Q 1947 1309 1714 600 
Q 1481 -109 1013 -844 
L 513 -844 
Q 928 -128 1133 580 
Q 1338 1288 1338 2009 
Q 1338 2731 1133 3434 
Q 928 4138 513 4856 
z
" transform="scale(0.015625)"/>
      </defs>
      <use xlink:href="#DejaVuSans-54"/>
      <use xlink:href="#DejaVuSans-69" transform="translate(57.958984 0)"/>
      <use xlink:href="#DejaVuSans-6d" transform="translate(85.742188 0)"/>
      <use xlink:href="#DejaVuSans-65" transform="translate(183.154297 0)"/>
      <use xlink:href="#DejaVuSans-20" transform="translate(244.677734 0)"/>
      <use xlink:href="#DejaVuSans-28" transform="translate(276.464844 0)"/>
      <use xlink:href="#DejaVuSans-6d" transform="translate(315.478516 0)"/>
      <use xlink:href="#DejaVuSans-69" transform="translate(412.890625 0)"/>
      <use xlink:href="#DejaVuSans-6e" transform="translate(440.673828 0)"/>
      <use xlink:href="#DejaVuSans-75" transform="translate(504.052734 0)"/>
      <use xlink:href="#DejaVuSans-74" transform="translate(567.431641 0)"/>
      <use xlink:href="#DejaVuSans-65" transform="translate(606.640625 0)"/>
      <use xlink:href="#DejaVuSans-73" transform="translate(668.164062 0)"/>
      <use xlink:href="#DejaVuSans-29" transform="translate(720.263672 0)"/>
     </g>
    </g>
   </g>
   <g id="matplotlib.axis_2">
    <g id="ytick_1">
     <g id="line2d_17">
      <path d="M 47.81 284.444296 
L 450 284.444296 
" clip-path="url(#pd6c076fe15)" style="fill: none; stroke: #b0b0b0; stroke-opacity: 0.3; stroke-width: 0.8; stroke-linecap: square"/>
     </g>
     <g id="line2d_18">
      <defs>
       <path id="m1aa56fc94d" d="M 0 0 
L -3.5 0 
" style="stroke: #000000; stroke-width: 0.8"/>
      </defs>
      <g>
       <use xlink:href="#m1aa56fc94d" x="47.81" y="284.444296" style="stroke: #000000; stroke-width: 0.8"/>
      </g>
     </g>
     <g id="text_10">
      <!-- 0.0 -->
      <g transform="translate(24.906875 288.243514) scale(0.1 -0.1)">
       <defs>
        <path id="DejaVuSans-2e" d="M 684 794 
L 1344 794 
L 1344 0 
L 684 0 
L 684 794 
z
" transform="scale(0.015625)"/>
       </defs>
       <use xlink:href="#DejaVuSans-30"/>
       <use xlink:href="#DejaVuSans-2e" transform="translate(63.623047 0)"/>
       <use xlink:href="#DejaVuSans-30" transform="translate(95.410156 0)"/>
      </g>
     </g>
    </g>
    <g id="ytick_2">
     <g id="line2d_19">
      <path d="M 47.81 237.583349 
L 450 237.583349 
" clip-path="url(#pd6c076fe15)" style="fill: none; stroke: #b0b0b0; stroke-opacity: 0.3; stroke-width: 0.8; stroke-linecap: square"/>
     </g>
     <g id="line2d_20">
      <g>
       <use xlink:href="#m1aa56fc94d" x="47.81" y="237.583349" style="stroke: #000000; stroke-width: 0.8"/>
      </g>
     </g>
     <g id="text_11">
      <!-- 0.1 -->
      <g transform="translate(24.906875 241.382568) scale(0.1 -0.1)">
       <use xlink:href="#DejaVuSans-30"/>
       <use xlink:href="#DejaVuSans-2e" transform="translate(63.623047 0)"/>
       <use xlink:href="#DejaVuSans-31" transform="translate(95.410156 0)"/>
      </g>
     </g>
    </g>
    <g id="ytick_3">
     <g id="line2d_21">
      <path d="M 47.81 190.722403 
L 450 190.722403 
" clip-path="url(#pd6c076fe15)" style="fill: none; stroke: #b0b0b0; stroke-opacity: 0.3; stroke-width: 0.8; stroke-linecap: square"/>
     </g>
     <g id="line2d_22">
      <g>
       <use xlink:href="#m1aa56fc94d" x="47.81" y="190.722403" style="stroke: #000000; stroke-width: 0.8"/>
      </g>
     </g>
     <g id="text_12">
      <!-- 0.2 -->
      <g transform="translate(24.906875 194.521622) scale(0.1 -0.1)">
       <use xlink:href="#DejaVuSans-30"/>
       <use xlink:href="#DejaVuSans-2e" transform="translate(63.623047 0)"/>
       <use xlink:href="#DejaVuSans-32" transform="translate(95.410156 0)"/>
      </g>
     </g>
    </g>
    <g id="ytick_4">
     <g id="line2d_23">
      <path d="M 47.81 143.861457 
L 450 143.861457 
" clip-path="url(#pd6c076fe15)" style="fill: none; stroke: #b0b0b0; stroke-opacity: 0.3; stroke-width: 0.8; stroke-linecap: square"/>
     </g>
     <g id="line2d_24">
      <g>
       <use xlink:href="#m1aa56fc94d" x="47.81" y="143.861457" style="stroke: #000000; stroke-width: 0.8"/>
      </g>
     </g>
     <g id="text_13">
      <!-- 0.3 -->
      <g transform="translate(24.906875 147.660676) scale(0.1 -0.1)">
       <defs>
        <path id="DejaVuSans-33" d="M 2597 2516 
Q 3050 2419 3304 2112 
Q 3559 1806 3559 1356 
Q 3559 666 3084 287 
Q 2609 -91 1734 -91 
Q 1441 -91 1130 -33 
Q 819 25 488 141 
L 488 750 
Q 750 597 1062 519 
Q 1375 441 1716 441 
Q 2309 441 2620 675 
Q 2931 909 2931 1356 
Q 2931 1769 2642 2001 
Q 2353 2234 1838 2234 
L 1294 2234 
L 1294 2753 
L 1863 2753 
Q 2328 2753 2575 2939 
Q 2822 3125 2822 3475 
Q 2822 3834 2567 4026 
Q 2313 4219 1838 4219 
Q 1578 4219 1281 4162 
Q 984 4106 628 3988 
L 628 4550 
Q 988 4650 1302 4700 
Q 1616 4750 1894 4750 
Q 2613 4750 3031 4423 
Q 3450 4097 3450 3541 
Q 3450 3153 3228 2886 
Q 3006 2619 2597 2516 
z
" transform="scale(0.015625)"/>
       </defs>
       <use xlink:href="#DejaVuSans-30"/>
       <use xlink:href="#DejaVuSans-2e" transform="translate(63.623047 0)"/>
       <use xlink:href="#DejaVuSans-33" transform="translate(95.410156 0)"/>
      </g>
     </g>
    </g>
    <g id="ytick_5">
     <g id="line2d_25">
      <path d="M 47.81 97.000511 
L 450 97.000511 
" clip-path="url(#pd6c076fe15)" style="fill: none; stroke: #b0b0b0; stroke-opacity: 0.3; stroke-width: 0.8; stroke-linecap: square"/>
     </g>
     <g id="line2d_26">
      <g>
       <use xlink:href="#m1aa56fc94d" x="47.81" y="97.000511" style="stroke: #000000; stroke-width: 0.8"/>
      </g>
     </g>
     <g id="text_14">
      <!-- 0.4 -->
      <g transform="translate(24.906875 100.79973) scale(0.1 -0.1)">
       <use xlink:href="#DejaVuSans-30"/>
       <use xlink:href="#DejaVuSans-2e" transform="translate(63.623047 0)"/>
       <use xlink:href="#DejaVuSans-34" transform="translate(95.410156 0)"/>
      </g>
     </g>
    </g>
    <g id="ytick_6">
     <g id="line2d_27">
      <path d="M 47.81 50.139565 
L 450 50.139565 
" clip-path="url(#pd6c076fe15)" style="fill: none; stroke: #b0b0b0; stroke-opacity: 0.3; stroke-width: 0.8; stroke-linecap: square"/>
     </g>
     <g id="line2d_28">
      <g>
       <use xlink:href="#m1aa56fc94d" x="47.81" y="50.139565" style="stroke: #000000; stroke-width: 0.8"/>
      </g>
     </g>
     <g id="text_15">
      <!-- 0.5 -->
      <g transform="translate(24.906875 53.938784) scale(0.1 -0.1)">
       <defs>
        <path id="DejaVuSans-35" d="M 691 4666 
L 3169 4666 
L 3169 4134 
L 1269 4134 
L 1269 2991 
Q 1406 3038 1543 3061 
Q 1681 3084 1819 3084 
Q 2600 3084 3056 2656 
Q 3513 2228 3513 1497 
Q 3513 744 3044 326 
Q 2575 -91 1722 -91 
Q 1428 -91 1123 -41 
Q 819 9 494 109 
L 494 744 
Q 775 591 1075 516 
Q 1375 441 1709 441 
Q 2250 441 2565 725 
Q 2881 1009 2881 1497 
Q 2881 1984 2565 2268 
Q 2250 2553 1709 2553 
Q 1456 2553 1204 2497 
Q 953 2441 691 2322 
L 691 4666 
z
" transform="scale(0.015625)"/>
       </defs>
       <use xlink:href="#DejaVuSans-30"/>
       <use xlink:href="#DejaVuSans-2e" transform="translate(63.623047 0)"/>
       <use xlink:href="#DejaVuSans-35" transform="translate(95.410156 0)"/>
      </g>
     </g>
    </g>
    <g id="text_16">
     <!-- Gaussian filtered EDA (μS) -->
     <g transform="translate(18.827188 230.613437) rotate(-90) scale(0.1 -0.1)">
      <defs>
       <path id="DejaVuSans-47" d="M 3809 666 
L 3809 1919 
L 2778 1919 
L 2778 2438 
L 4434 2438 
L 4434 434 
Q 4069 175 3628 42 
Q 3188 -91 2688 -91 
Q 1594 -91 976 548 
Q 359 1188 359 2328 
Q 359 3472 976 4111 
Q 1594 4750 2688 4750 
Q 3144 4750 3555 4637 
Q 3966 4525 4313 4306 
L 4313 3634 
Q 3963 3931 3569 4081 
Q 3175 4231 2741 4231 
Q 1884 4231 1454 3753 
Q 1025 3275 1025 2328 
Q 1025 1384 1454 906 
Q 1884 428 2741 428 
Q 3075 428 3337 486 
Q 3600 544 3809 666 
z
" transform="scale(0.015625)"/>
       <path id="DejaVuSans-61" d="M 2194 1759 
Q 1497 1759 1228 1600 
Q 959 1441 959 1056 
Q 959 750 1161 570 
Q 1363 391 1709 391 
Q 2188 391 2477 730 
Q 2766 1069 2766 1631 
L 2766 1759 
L 2194 1759 
z
M 3341 1997 
L 3341 0 
L 2766 0 
L 2766 531 
Q 2569 213 2275 61 
Q 1981 -91 1556 -91 
Q 1019 -91 701 211 
Q 384 513 384 1019 
Q 384 1609 779 1909 
Q 1175 2209 1959 2209 
L 2766 2209 
L 2766 2266 
Q 2766 2663 2505 2880 
Q 2244 3097 1772 3097 
Q 1472 3097 1187 3025 
Q 903 2953 641 2809 
L 641 3341 
Q 956 3463 1253 3523 
Q 1550 3584 1831 3584 
Q 2591 3584 2966 3190 
Q 3341 2797 3341 1997 
z
" transform="scale(0.015625)"/>
       <path id="DejaVuSans-66" d="M 2375 4863 
L 2375 4384 
L 1825 4384 
Q 1516 4384 1395 4259 
Q 1275 4134 1275 3809 
L 1275 3500 
L 2222 3500 
L 2222 3053 
L 1275 3053 
L 1275 0 
L 697 0 
L 697 3053 
L 147 3053 
L 147 3500 
L 697 3500 
L 697 3744 
Q 697 4328 969 4595 
Q 1241 4863 1831 4863 
L 2375 4863 
z
" transform="scale(0.015625)"/>
       <path id="DejaVuSans-6c" d="M 603 4863 
L 1178 4863 
L 1178 0 
L 603 0 
L 603 4863 
z
" transform="scale(0.015625)"/>
       <path id="DejaVuSans-72" d="M 2631 2963 
Q 2534 3019 2420 3045 
Q 2306 3072 2169 3072 
Q 1681 3072 1420 2755 
Q 1159 2438 1159 1844 
L 1159 0 
L 581 0 
L 581 3500 
L 1159 3500 
L 1159 2956 
Q 1341 3275 1631 3429 
Q 1922 3584 2338 3584 
Q 2397 3584 2469 3576 
Q 2541 3569 2628 3553 
L 2631 2963 
z
" transform="scale(0.015625)"/>
       <path id="DejaVuSans-64" d="M 2906 2969 
L 2906 4863 
L 3481 4863 
L 3481 0 
L 2906 0 
L 2906 525 
Q 2725 213 2448 61 
Q 2172 -91 1784 -91 
Q 1150 -91 751 415 
Q 353 922 353 1747 
Q 353 2572 751 3078 
Q 1150 3584 1784 3584 
Q 2172 3584 2448 3432 
Q 2725 3281 2906 2969 
z
M 947 1747 
Q 947 1113 1208 752 
Q 1469 391 1925 391 
Q 2381 391 2643 752 
Q 2906 1113 2906 1747 
Q 2906 2381 2643 2742 
Q 2381 3103 1925 3103 
Q 1469 3103 1208 2742 
Q 947 2381 947 1747 
z
" transform="scale(0.015625)"/>
       <path id="DejaVuSans-45" d="M 628 4666 
L 3578 4666 
L 3578 4134 
L 1259 4134 
L 1259 2753 
L 3481 2753 
L 3481 2222 
L 1259 2222 
L 1259 531 
L 3634 531 
L 3634 0 
L 628 0 
L 628 4666 
z
" transform="scale(0.015625)"/>
       <path id="DejaVuSans-44" d="M 1259 4147 
L 1259 519 
L 2022 519 
Q 2988 519 3436 956 
Q 3884 1394 3884 2338 
Q 3884 3275 3436 3711 
Q 2988 4147 2022 4147 
L 1259 4147 
z
M 628 4666 
L 1925 4666 
Q 3281 4666 3915 4102 
Q 4550 3538 4550 2338 
Q 4550 1131 3912 565 
Q 3275 0 1925 0 
L 628 0 
L 628 4666 
z
" transform="scale(0.015625)"/>
       <path id="DejaVuSans-41" d="M 2188 4044 
L 1331 1722 
L 3047 1722 
L 2188 4044 
z
M 1831 4666 
L 2547 4666 
L 4325 0 
L 3669 0 
L 3244 1197 
L 1141 1197 
L 716 0 
L 50 0 
L 1831 4666 
z
" transform="scale(0.015625)"/>
       <path id="DejaVuSans-3bc" d="M 544 -1331 
L 544 3500 
L 1119 3500 
L 1119 1325 
Q 1119 872 1334 640 
Q 1550 409 1972 409 
Q 2434 409 2667 671 
Q 2900 934 2900 1459 
L 2900 3500 
L 3475 3500 
L 3475 806 
Q 3475 619 3529 530 
Q 3584 441 3700 441 
Q 3728 441 3778 458 
Q 3828 475 3916 513 
L 3916 50 
Q 3788 -22 3673 -56 
Q 3559 -91 3450 -91 
Q 3234 -91 3106 31 
Q 2978 153 2931 403 
Q 2775 156 2548 32 
Q 2322 -91 2016 -91 
Q 1697 -91 1473 31 
Q 1250 153 1119 397 
L 1119 -1331 
L 544 -1331 
z
" transform="scale(0.015625)"/>
       <path id="DejaVuSans-53" d="M 3425 4513 
L 3425 3897 
Q 3066 4069 2747 4153 
Q 2428 4238 2131 4238 
Q 1616 4238 1336 4038 
Q 1056 3838 1056 3469 
Q 1056 3159 1242 3001 
Q 1428 2844 1947 2747 
L 2328 2669 
Q 3034 2534 3370 2195 
Q 3706 1856 3706 1288 
Q 3706 609 3251 259 
Q 2797 -91 1919 -91 
Q 1588 -91 1214 -16 
Q 841 59 441 206 
L 441 856 
Q 825 641 1194 531 
Q 1563 422 1919 422 
Q 2459 422 2753 634 
Q 3047 847 3047 1241 
Q 3047 1584 2836 1778 
Q 2625 1972 2144 2069 
L 1759 2144 
Q 1053 2284 737 2584 
Q 422 2884 422 3419 
Q 422 4038 858 4394 
Q 1294 4750 2059 4750 
Q 2388 4750 2728 4690 
Q 3069 4631 3425 4513 
z
" transform="scale(0.015625)"/>
      </defs>
      <use xlink:href="#DejaVuSans-47"/>
      <use xlink:href="#DejaVuSans-61" transform="translate(77.490234 0)"/>
      <use xlink:href="#DejaVuSans-75" transform="translate(138.769531 0)"/>
      <use xlink:href="#DejaVuSans-73" transform="translate(202.148438 0)"/>
      <use xlink:href="#DejaVuSans-73" transform="translate(254.248047 0)"/>
      <use xlink:href="#DejaVuSans-69" transform="translate(306.347656 0)"/>
      <use xlink:href="#DejaVuSans-61" transform="translate(334.130859 0)"/>
      <use xlink:href="#DejaVuSans-6e" transform="translate(395.410156 0)"/>
      <use xlink:href="#DejaVuSans-20" transform="translate(458.789062 0)"/>
      <use xlink:href="#DejaVuSans-66" transform="translate(490.576172 0)"/>
      <use xlink:href="#DejaVuSans-69" transform="translate(525.78125 0)"/>
      <use xlink:href="#DejaVuSans-6c" transform="translate(553.564453 0)"/>
      <use xlink:href="#DejaVuSans-74" transform="translate(581.347656 0)"/>
      <use xlink:href="#DejaVuSans-65" transform="translate(620.556641 0)"/>
      <use xlink:href="#DejaVuSans-72" transform="translate(682.080078 0)"/>
      <use xlink:href="#DejaVuSans-65" transform="translate(720.943359 0)"/>
      <use xlink:href="#DejaVuSans-64" transform="translate(782.466797 0)"/>
      <use xlink:href="#DejaVuSans-20" transform="translate(845.943359 0)"/>
      <use xlink:href="#DejaVuSans-45" transform="translate(877.730469 0)"/>
      <use xlink:href="#DejaVuSans-44" transform="translate(940.914062 0)"/>
      <use xlink:href="#DejaVuSans-41" transform="translate(1016.166016 0)"/>
      <use xlink:href="#DejaVuSans-20" transform="translate(1084.574219 0)"/>
      <use xlink:href="#DejaVuSans-28" transform="translate(1116.361328 0)"/>
      <use xlink:href="#DejaVuSans-3bc" transform="translate(1155.375 0)"/>
      <use xlink:href="#DejaVuSans-53" transform="translate(1218.998047 0)"/>
      <use xlink:href="#DejaVuSans-29" transform="translate(1282.474609 0)"/>
     </g>
    </g>
   </g>
   <g id="line2d_29">
    <path d="M 66.091364 124.876785 
L 67.10756 143.229588 
L 67.412418 145.65554 
L 67.717277 146.56924 
L 67.920516 146.531556 
L 68.123755 146.090352 
L 68.530234 144.309788 
L 69.648049 138.464506 
L 69.851288 138.124421 
L 70.054528 138.151475 
L 70.257767 138.532457 
L 70.562625 139.654061 
L 72.086919 146.557923 
L 72.595017 147.53311 
L 73.407974 148.517621 
L 74.017691 149.026808 
L 75.440366 149.894411 
L 76.659801 150.978017 
L 77.472757 151.310764 
L 78.184094 151.353946 
L 78.997051 151.376556 
L 79.810008 151.48874 
L 80.216486 151.294223 
L 80.724584 150.753536 
L 81.435921 149.969699 
L 81.74078 149.868885 
L 82.045639 149.967659 
L 82.553737 150.458964 
L 84.382889 152.557225 
L 85.297466 153.40285 
L 85.703944 154.264006 
L 86.61852 156.787773 
L 86.72014 156.806672 
L 86.923379 156.458648 
L 87.126618 155.510864 
L 87.431477 152.956648 
L 89.260629 132.053532 
L 89.870347 126.290967 
L 90.276825 124.222853 
L 90.683304 123.211345 
L 91.089782 122.815917 
L 91.394641 122.776739 
L 91.801119 122.967307 
L 92.410837 123.597264 
L 92.817315 123.886511 
L 93.020554 123.802571 
L 93.223793 123.478503 
L 93.528652 122.466682 
L 93.93513 120.130569 
L 94.443228 115.755416 
L 95.865903 101.671362 
L 96.069142 101.121011 
L 96.272381 101.095188 
L 96.47562 101.490407 
L 96.882098 103.009247 
L 97.695055 106.053926 
L 98.203153 107.084677 
L 99.117729 108.586535 
L 100.133925 110.888466 
L 100.337164 110.795658 
L 100.540404 110.380331 
L 100.946882 108.773889 
L 101.556599 106.25868 
L 101.861458 105.850065 
L 102.064697 105.92669 
L 102.674415 106.399627 
L 102.877654 106.264246 
L 103.385752 105.424293 
L 103.79223 104.93295 
L 104.198709 104.814938 
L 104.706807 104.666359 
L 105.926242 103.959841 
L 107.450535 103.858472 
L 107.958633 103.469077 
L 108.87321 102.693027 
L 109.381308 102.616833 
L 109.991025 102.508897 
L 111.108841 102.067535 
L 111.515319 102.288695 
L 112.226656 103.052929 
L 112.836373 103.605853 
L 113.344471 103.775096 
L 113.954189 103.691783 
L 114.462287 103.382068 
L 115.681722 102.35872 
L 116.0882 102.48841 
L 118.73031 104.181232 
L 120.96594 104.994553 
L 121.880517 105.504068 
L 122.490234 105.571419 
L 123.099952 105.419605 
L 124.014528 105.122575 
L 124.624246 105.210774 
L 126.859876 105.968594 
L 127.367974 106.479453 
L 128.48579 107.673506 
L 130.619801 109.282017 
L 131.839236 109.770466 
L 132.652193 110.390706 
L 133.668389 111.14206 
L 134.582965 111.738753 
L 134.887824 112.212278 
L 135.294302 113.402469 
L 136.107259 116.27066 
L 136.208878 116.267399 
L 136.412118 115.749161 
L 136.716976 113.562218 
L 137.123455 108.423368 
L 137.936411 97.473539 
L 138.34289 94.93067 
L 138.546129 94.518662 
L 138.749368 94.528379 
L 139.054227 95.023539 
L 140.578521 98.203764 
L 141.797956 100.279946 
L 142.915771 102.041093 
L 143.525489 103.452192 
L 144.744924 106.657445 
L 145.049782 106.744895 
L 145.456261 106.421862 
L 145.862739 106.167843 
L 146.065978 106.260796 
L 146.370837 106.809096 
L 146.777315 108.306801 
L 147.590272 111.680549 
L 147.895131 112.093311 
L 148.19999 112.047513 
L 148.606468 111.877058 
L 148.911327 112.012264 
L 149.317805 112.598909 
L 150.232381 114.155197 
L 151.146958 115.041923 
L 151.553436 115.28019 
L 151.858295 115.211011 
L 152.264773 114.769312 
L 153.179349 113.559217 
L 153.687447 113.3064 
L 154.195545 113.34608 
L 154.805263 113.660192 
L 156.126317 114.724429 
L 157.85385 116.21125 
L 161.817014 120.447117 
L 162.83321 121.564687 
L 163.239688 121.714688 
L 163.951026 121.627885 
L 164.357504 121.682038 
L 165.475319 122.066642 
L 166.085037 121.995119 
L 166.389896 122.214985 
L 167.304472 123.372168 
L 167.507711 123.195545 
L 167.81257 122.36858 
L 168.320668 119.866957 
L 169.032005 116.386019 
L 169.540103 114.993719 
L 169.946581 114.455386 
L 170.35306 114.231582 
L 170.759538 114.220628 
L 171.166016 114.434236 
L 171.775734 115.094501 
L 172.385451 115.636352 
L 172.79193 115.736597 
L 173.503267 115.614903 
L 174.112984 115.594858 
L 174.519463 115.804405 
L 175.12918 116.436874 
L 175.738898 117.000263 
L 176.246996 117.186186 
L 177.66967 117.462664 
L 178.381007 118.083969 
L 179.092344 118.622762 
L 179.905301 118.906992 
L 180.718257 119.242114 
L 181.429594 119.80063 
L 182.140932 120.613197 
L 183.665225 122.626329 
L 186.002476 124.229778 
L 186.815433 124.58364 
L 187.52677 125.197367 
L 188.238107 126.141205 
L 188.746205 127.180927 
L 189.96564 129.981623 
L 190.372118 130.886159 
L 190.676977 132.382092 
L 190.981836 135.28492 
L 191.388314 141.925528 
L 192.506129 163.153191 
L 192.810988 165.39569 
L 193.115847 166.222736 
L 193.420706 166.395912 
L 193.827184 166.581812 
L 194.132043 166.987281 
L 194.84338 168.528619 
L 195.351478 169.424174 
L 195.859576 169.862108 
L 196.469293 170.064333 
L 196.774152 170.004404 
L 196.977391 169.780415 
L 197.28225 168.922454 
L 197.587109 167.172218 
L 197.993587 163.380678 
L 199.009783 153.226851 
L 199.416261 151.442608 
L 200.534077 148.255245 
L 201.448653 144.62742 
L 202.15999 142.950643 
L 203.176186 140.529327 
L 205.208578 135.455543 
L 207.444209 132.009534 
L 207.952307 131.674535 
L 208.460405 131.599431 
L 209.67984 131.595568 
L 210.086318 131.217631 
L 210.899275 130.318001 
L 211.204133 130.236103 
L 211.610612 130.380016 
L 212.830047 131.012499 
L 213.947862 131.385042 
L 214.252721 131.818872 
L 214.659199 132.962789 
L 215.777015 136.817811 
L 215.980254 136.802906 
L 216.183493 136.453858 
L 216.589971 135.050593 
L 217.098069 133.276746 
L 217.402928 132.887849 
L 217.606167 132.989908 
L 217.911026 133.556182 
L 219.028842 136.079324 
L 219.638559 136.770742 
L 221.061233 138.173146 
L 221.467712 139.011354 
L 221.87419 140.496359 
L 222.687147 143.99235 
L 222.890386 144.269823 
L 223.093625 144.153719 
L 223.398484 143.393211 
L 224.109821 141.37036 
L 224.516299 140.963163 
L 225.024397 140.507622 
L 225.735734 139.808497 
L 226.040593 139.828283 
L 226.447071 140.130913 
L 227.666506 141.52458 
L 228.581083 142.365307 
L 233.560442 145.904932 
L 234.27178 146.039547 
L 235.084736 146.178118 
L 235.694454 146.530607 
L 236.812269 147.536824 
L 238.641422 149.130434 
L 239.657618 149.762657 
L 240.775433 150.182122 
L 241.283531 150.147731 
L 242.401346 149.898323 
L 242.807825 150.130485 
L 244.128879 151.099821 
L 244.535358 151.015996 
L 244.941836 150.670399 
L 245.653173 149.656564 
L 246.770989 147.66312 
L 247.583945 146.259864 
L 247.990424 145.926901 
L 248.498522 145.831762 
L 249.514718 145.759103 
L 250.734153 145.502431 
L 251.44549 145.724918 
L 253.071403 146.338838 
L 254.900556 146.624779 
L 255.713512 147.052479 
L 256.729708 147.587382 
L 257.441045 147.660539 
L 258.254002 147.527721 
L 258.66048 147.23677 
L 258.965339 146.733455 
L 259.270198 145.833751 
L 259.676676 143.912471 
L 260.692872 138.589145 
L 261.09935 137.781322 
L 262.318785 136.561719 
L 262.623644 136.493635 
L 263.030123 136.706378 
L 264.554416 137.908783 
L 265.265753 137.876413 
L 265.875471 137.987387 
L 266.790047 138.194324 
L 268.415961 138.244745 
L 269.330537 138.762769 
L 269.940254 139.387933 
L 271.159689 141.164925 
L 272.582364 143.053416 
L 273.192081 143.653579 
L 273.49694 143.702918 
L 273.801799 143.470953 
L 274.817995 142.143226 
L 275.021234 142.279391 
L 275.83419 143.273853 
L 276.139049 143.129381 
L 276.443908 142.938623 
L 276.647147 143.076939 
L 276.850386 143.6236 
L 277.155245 145.378631 
L 277.764963 151.139958 
L 278.273061 155.09627 
L 278.577919 156.244466 
L 278.882778 156.653157 
L 279.594115 157.051812 
L 280.000594 157.913594 
L 280.711931 159.547935 
L 281.016789 159.770827 
L 281.728126 159.835233 
L 281.931366 160.177774 
L 282.236224 161.347146 
L 282.845942 165.420776 
L 283.150801 166.822457 
L 283.35404 166.948527 
L 283.557279 166.335093 
L 283.862138 164.28481 
L 284.776714 157.42033 
L 285.183192 156.122638 
L 286.301008 153.818394 
L 286.707486 151.883342 
L 287.418823 148.175904 
L 287.622063 148.059729 
L 287.825302 148.708057 
L 288.13016 150.997518 
L 288.841498 157.305033 
L 289.146356 158.265437 
L 289.349595 158.297025 
L 289.654454 157.885441 
L 290.264172 157.04321 
L 290.77227 156.799758 
L 291.585226 156.761628 
L 292.499803 156.681892 
L 293.10952 156.391536 
L 294.735434 155.354586 
L 295.345151 155.410959 
L 296.158108 155.699009 
L 296.564586 156.068541 
L 296.869445 156.640058 
L 297.377543 158.233666 
L 297.784021 159.274624 
L 297.885641 159.321656 
L 297.98726 159.238374 
L 298.1905 158.625031 
L 298.495358 156.568611 
L 300.019652 143.129582 
L 300.52775 141.46012 
L 301.035848 140.561906 
L 301.848805 139.680963 
L 303.06824 138.610386 
L 306.320066 136.692117 
L 306.929784 136.337934 
L 307.641121 135.604708 
L 308.352458 134.974716 
L 308.860556 134.817718 
L 310.28323 134.581591 
L 311.401046 134.086832 
L 312.010763 134.169711 
L 312.7221 134.245824 
L 313.128579 134.069155 
L 313.433438 133.663313 
L 313.839916 132.561222 
L 314.957731 128.797405 
L 315.26259 128.641597 
L 315.567449 128.867664 
L 316.685264 130.187567 
L 316.888503 130.004279 
L 317.091743 129.469557 
L 317.396601 127.786245 
L 317.80308 123.554161 
L 318.412797 113.67686 
L 319.124134 103.074512 
L 319.530613 99.918897 
L 319.835471 98.807648 
L 320.14033 98.430687 
L 320.343569 98.480075 
L 320.648428 98.878094 
L 321.054907 99.478388 
L 321.258146 99.412647 
L 321.461385 98.84341 
L 321.766244 96.866205 
L 322.884059 87.635399 
L 323.087298 87.346339 
L 323.290537 87.50864 
L 323.595396 88.361658 
L 324.306733 91.570694 
L 324.713212 92.994771 
L 325.01807 93.463609 
L 325.322929 93.507192 
L 326.034266 93.317907 
L 326.440745 93.504533 
L 327.66018 94.39426 
L 327.965038 94.31186 
L 328.371517 93.876532 
L 328.981234 93.096478 
L 329.184473 93.139401 
L 329.387713 93.518955 
L 329.692571 94.873903 
L 330.708767 101.177707 
L 330.810387 101.142655 
L 331.013626 100.431882 
L 331.318485 97.981926 
L 332.334681 88.149666 
L 332.842779 85.951288 
L 333.249257 84.207145 
L 333.655735 81.300005 
L 334.570312 73.738783 
L 334.773551 73.195569 
L 334.87517 73.148902 
L 335.078409 73.451763 
L 335.383268 74.62137 
L 336.297845 78.687518 
L 336.602703 79.269574 
L 336.907562 79.384008 
L 337.212421 79.133694 
L 337.618899 78.347666 
L 338.025377 76.935975 
L 338.533475 74.08155 
L 339.244813 68.45767 
L 340.261008 59.913421 
L 340.972345 55.313544 
L 341.378824 50.142756 
L 342.191781 38.80998 
L 342.39502 38.085455 
L 342.496639 38.174425 
L 342.699878 39.155191 
L 343.106357 43.196126 
L 343.716074 49.370439 
L 344.122553 51.599489 
L 344.529031 52.70308 
L 346.256564 55.963362 
L 347.069521 56.820661 
L 347.577619 57.42913 
L 347.780858 57.361448 
L 347.984097 56.988668 
L 348.288956 55.879667 
L 349.101912 52.480753 
L 349.406771 51.971259 
L 350.016489 51.336046 
L 350.321347 50.55114 
L 350.931065 48.005651 
L 351.337543 46.647646 
L 351.540783 46.403619 
L 351.744022 46.524118 
L 352.04888 47.333505 
L 353.471555 52.484151 
L 356.215283 57.647679 
L 358.450914 59.512452 
L 358.857393 60.152445 
L 359.56873 61.864284 
L 360.076828 62.844712 
L 360.381687 63.045433 
L 360.686545 62.939544 
L 361.397882 62.462576 
L 361.702741 62.621052 
L 362.10922 63.237899 
L 362.820557 64.430726 
L 363.227035 64.741045 
L 363.836752 65.094978 
L 364.141611 65.64674 
L 364.44647 66.869087 
L 364.751329 69.248385 
L 365.157807 74.909078 
L 366.174003 91.260824 
L 366.88534 96.93374 
L 367.393438 104.940008 
L 367.799916 110.530605 
L 368.104775 112.409915 
L 368.308014 112.70819 
L 368.612873 112.544713 
L 368.816112 112.507939 
L 369.019351 112.800218 
L 369.222591 113.543611 
L 369.527449 115.58615 
L 370.035547 120.991505 
L 370.645265 127.222744 
L 370.848504 128.092721 
L 370.950124 128.167636 
L 371.051743 127.976679 
L 371.254982 126.755428 
L 371.559841 122.851655 
L 372.067939 112.349666 
L 372.677657 100.496848 
L 372.982515 98.103392 
L 373.084135 98.040893 
L 373.185754 98.355467 
L 373.388994 100.05179 
L 373.795472 106.476892 
L 374.20195 112.722266 
L 374.405189 113.844141 
L 374.506809 113.6296 
L 374.710048 111.493125 
L 375.014907 104.404585 
L 376.132722 73.247644 
L 376.539201 68.486059 
L 376.945679 65.860302 
L 377.352158 64.357098 
L 377.758636 63.671663 
L 378.165114 63.502199 
L 378.774832 63.580433 
L 379.18131 63.831305 
L 380.400745 64.827426 
L 380.603984 64.738069 
L 380.807223 64.443941 
L 381.010463 63.823027 
L 381.315321 61.95418 
L 381.7218 57.259456 
L 382.737996 43.283467 
L 383.042854 41.788304 
L 383.246094 41.522429 
L 383.449333 41.636365 
L 383.855811 42.380684 
L 384.668768 44.32837 
L 384.973627 45.7666 
L 385.278485 48.498546 
L 385.684964 55.149566 
L 387.006018 81.482809 
L 387.514116 86.012727 
L 388.022214 90.209293 
L 388.428692 95.803653 
L 390.156225 124.922102 
L 391.680519 140.491021 
L 392.188617 146.145786 
L 392.493476 147.716185 
L 392.696715 147.843938 
L 392.899954 147.418826 
L 394.627487 141.968621 
L 395.135585 140.901368 
L 395.338824 140.769182 
L 395.542064 140.840602 
L 395.948542 141.37943 
L 396.35502 141.852596 
L 396.659879 141.891215 
L 397.574455 141.61385 
L 397.879314 141.945512 
L 398.285792 142.908665 
L 398.692271 144.511548 
L 399.200369 147.539916 
L 400.013325 154.298862 
L 400.724662 159.63938 
L 401.131141 161.349761 
L 401.33438 161.626352 
L 401.537619 161.474281 
L 401.842478 160.532478 
L 403.061913 155.494312 
L 403.366772 155.264138 
L 403.570011 155.38007 
L 403.976489 156.049605 
L 404.586207 157.078577 
L 404.891065 157.172358 
L 405.195924 156.935538 
L 405.704022 156.110547 
L 407.025077 153.772555 
L 407.329936 153.646524 
L 407.634794 153.853077 
L 408.041273 154.535693 
L 408.854229 155.986273 
L 409.159088 156.180528 
L 409.463947 156.132244 
L 410.785002 155.482595 
L 411.19148 155.416385 
L 411.496339 155.07785 
L 411.902817 154.063832 
L 412.817393 151.331697 
L 413.122252 151.114934 
L 413.325491 151.253308 
L 413.63035 151.834323 
L 414.138448 153.473532 
L 415.053024 157.300623 
L 415.459503 159.922456 
L 415.764361 163.525246 
L 416.06922 169.771025 
L 416.577318 186.356495 
L 417.085416 201.035977 
L 417.288655 202.805176 
L 417.390275 202.554356 
L 417.593514 199.962664 
L 417.999992 189.336831 
L 418.60971 173.277462 
L 419.016188 167.437255 
L 419.321047 165.639607 
L 419.422666 165.483227 
L 419.524286 165.53533 
L 419.727525 166.230558 
L 420.032384 168.540286 
L 421.04858 177.949535 
L 421.353439 178.918991 
L 421.861536 180.015 
L 422.268015 181.909268 
L 422.776113 184.179886 
L 422.877732 184.283649 
L 422.979352 184.216408 
L 423.182591 183.573833 
L 423.589069 180.846861 
L 424.300407 175.907795 
L 425.316602 171.07388 
L 425.723081 169.896439 
L 425.92632 169.801531 
L 426.129559 170.083842 
L 426.434418 171.082144 
L 427.552233 175.472892 
L 427.755472 175.731123 
L 427.958712 175.636454 
L 428.161951 175.17559 
L 428.670049 173.058602 
L 429.381386 170.427794 
L 430.092723 168.517219 
L 430.499201 167.99952 
L 430.80406 167.937031 
L 431.718636 168.112717 
L 431.718636 168.112717 
" clip-path="url(#pd6c076fe15)" style="fill: none; stroke-dasharray: 1.85,0.8; stroke-dashoffset: 0; stroke: #1f77b4; stroke-width: 0.5"/>
   </g>
   <g id="line2d_30">
    <path d="M 66.091364 130.200526 
L 67.412418 138.475198 
L 68.428614 143.53118 
L 69.241571 146.577226 
L 69.952908 148.408954 
L 70.461006 149.196764 
L 70.969104 149.58751 
L 71.477202 149.671992 
L 72.086919 149.498317 
L 73.916072 148.709935 
L 74.42417 148.826504 
L 74.932268 149.187914 
L 75.745224 150.094221 
L 77.269518 151.88867 
L 77.879236 152.265531 
L 78.285714 152.305735 
L 78.692192 152.145959 
L 79.30191 151.625718 
L 81.131062 149.806494 
L 81.537541 149.708418 
L 81.944019 149.842857 
L 82.350497 150.265738 
L 82.858595 151.23624 
L 83.671552 153.417782 
L 84.789368 156.366761 
L 85.297466 157.184793 
L 85.602324 157.399419 
L 85.907183 157.355026 
L 86.212042 157.00917 
L 86.516901 156.319409 
L 86.923379 154.856008 
L 87.533096 151.702127 
L 88.447673 145.522919 
L 90.480064 131.178817 
L 91.191402 127.704053 
L 91.902739 125.194165 
L 92.715695 123.175316 
L 93.630272 121.525721 
L 95.052946 119.033573 
L 96.57724 115.681212 
L 98.304773 112.002327 
L 99.219349 110.527141 
L 100.235545 109.319561 
L 101.556599 108.140345 
L 103.588991 106.359186 
L 106.2311 103.930991 
L 107.247296 103.319474 
L 108.263492 102.970954 
L 109.482927 102.811494 
L 111.108841 102.850506 
L 113.75095 103.136984 
L 116.697918 103.690327 
L 120.762701 104.709872 
L 125.335583 106.080262 
L 128.689029 107.210152 
L 129.400366 107.754377 
L 130.111703 108.604324 
L 130.82304 109.856886 
L 131.534377 111.595473 
L 133.770008 117.504957 
L 134.278106 118.130503 
L 134.582965 118.250376 
L 134.887824 118.143484 
L 135.192683 117.781053 
L 135.599161 116.875549 
L 136.208878 114.770095 
L 137.123455 110.543039 
L 138.749368 102.821377 
L 139.359086 100.834323 
L 139.867184 99.838138 
L 140.273662 99.436081 
L 140.68014 99.338988 
L 141.086619 99.50435 
L 141.594717 100.015369 
L 142.306054 101.150072 
L 143.728728 104.047164 
L 145.862739 108.179358 
L 147.590272 111.067709 
L 148.911327 112.886651 
L 149.927523 113.934823 
L 150.740479 114.486628 
L 151.451816 114.721001 
L 152.163154 114.712457 
L 153.179349 114.439547 
L 154.703643 114.036469 
L 155.41498 114.089696 
L 156.024698 114.353407 
L 156.837655 114.988496 
L 157.95547 116.210509 
L 160.597579 119.251678 
L 162.121873 120.550882 
L 163.951026 121.805088 
L 165.170461 122.42859 
L 165.983417 122.583662 
L 166.593135 122.489012 
L 167.202852 122.164662 
L 167.81257 121.566615 
L 168.523907 120.52252 
L 169.946581 117.910855 
L 171.064397 116.087385 
L 171.674114 115.435598 
L 172.182212 115.167203 
L 172.69031 115.133394 
L 173.300028 115.332837 
L 174.112984 115.865728 
L 176.043756 117.238447 
L 176.958333 117.49525 
L 178.990724 117.942645 
L 179.702061 118.402022 
L 180.413399 119.171168 
L 181.531214 120.80864 
L 182.852269 122.685059 
L 183.563606 123.338646 
L 184.071704 123.538383 
L 184.681421 123.48381 
L 185.799237 123.284264 
L 186.205715 123.421392 
L 186.612193 123.786942 
L 187.018672 124.454548 
L 187.52677 125.826001 
L 188.034868 127.928289 
L 188.644585 131.528118 
L 189.457542 137.75545 
L 191.286694 154.177575 
L 192.40451 163.060083 
L 193.217467 167.902269 
L 193.928804 170.894633 
L 194.436902 172.288463 
L 194.84338 172.941829 
L 195.148239 173.155726 
L 195.453097 173.128082 
L 195.757956 172.854522 
L 196.164435 172.099679 
L 196.672532 170.538986 
L 197.38387 167.410351 
L 198.400065 161.689965 
L 200.635696 148.74861 
L 201.651892 144.493619 
L 202.668088 141.243595 
L 203.684284 138.728987 
L 204.903719 136.311577 
L 206.224774 134.18077 
L 207.444209 132.627086 
L 208.663644 131.443266 
L 209.67984 130.759471 
L 210.492796 130.472319 
L 211.204133 130.4525 
L 211.813851 130.633608 
L 212.423568 131.019429 
L 213.134906 131.732815 
L 214.252721 133.212559 
L 215.980254 135.482702 
L 216.793211 136.166862 
L 217.606167 136.529242 
L 219.638559 137.259813 
L 220.248277 137.770523 
L 220.857994 138.559944 
L 221.77257 140.199539 
L 223.703343 143.842137 
L 224.41468 144.670155 
L 224.922778 144.928276 
L 225.430875 144.910121 
L 226.040593 144.616508 
L 226.955169 143.861138 
L 228.174604 142.873536 
L 228.784322 142.64846 
L 229.29242 142.681154 
L 229.902137 142.943947 
L 230.715094 143.564423 
L 233.560442 146.03116 
L 234.779877 146.583625 
L 236.913889 147.512442 
L 238.133324 148.370233 
L 240.877053 150.384751 
L 241.893249 150.789278 
L 242.807825 150.901989 
L 243.620781 150.784692 
L 244.433738 150.44739 
L 245.246695 149.87625 
L 246.36451 148.777389 
L 248.905 146.147042 
L 249.819576 145.573537 
L 250.632533 145.330705 
L 251.34387 145.335481 
L 252.055207 145.552567 
L 252.766544 145.991069 
L 253.579501 146.765027 
L 255.510273 148.7739 
L 256.119991 149.069291 
L 256.628089 149.061053 
L 257.034567 148.845372 
L 257.542665 148.275437 
L 258.152382 147.210369 
L 259.066959 145.102059 
L 261.09935 140.244555 
L 261.810688 139.135943 
L 262.522025 138.429731 
L 263.233362 138.037239 
L 264.046318 137.859062 
L 265.367373 137.855264 
L 267.399765 137.992052 
L 268.314341 138.30086 
L 269.127298 138.823848 
L 269.940254 139.639861 
L 272.887222 142.966788 
L 273.49694 143.213903 
L 274.208277 143.209378 
L 275.021234 143.211354 
L 275.529332 143.441232 
L 275.93581 143.857584 
L 276.342288 144.552485 
L 276.850386 145.913969 
L 277.358484 147.944103 
L 277.968202 151.381055 
L 279.086017 159.404032 
L 280.305452 167.785432 
L 280.91517 170.691367 
L 281.321648 171.83262 
L 281.626507 172.171306 
L 281.829746 172.135759 
L 282.134605 171.73094 
L 282.541083 170.629427 
L 283.150801 168.065506 
L 284.268616 161.994333 
L 285.183192 157.460324 
L 285.69129 155.765314 
L 286.097769 155.003991 
L 286.504247 154.703989 
L 286.809106 154.730209 
L 287.215584 155.031438 
L 287.825302 155.87989 
L 289.451215 158.428014 
L 289.857693 158.668233 
L 290.264172 158.649824 
L 290.77227 158.343071 
L 291.483607 157.574718 
L 292.906281 155.936796 
L 293.414379 155.669689 
L 293.820857 155.693977 
L 294.227336 155.950553 
L 294.837053 156.636523 
L 296.361347 158.537326 
L 296.869445 158.769389 
L 297.174304 158.714481 
L 297.479162 158.47889 
L 297.885641 157.83411 
L 298.393739 156.477928 
L 299.105076 153.785573 
L 300.324511 148.049301 
L 301.543946 142.583548 
L 302.255283 140.281828 
L 302.865001 138.957945 
L 303.474718 138.108823 
L 304.084436 137.611569 
L 304.795773 137.312206 
L 306.523306 136.70985 
L 307.742741 135.869005 
L 309.673513 134.522538 
L 310.588089 134.181405 
L 311.807524 134.016784 
L 313.433438 133.790707 
L 314.246394 133.455181 
L 314.957731 132.904066 
L 315.567449 132.119122 
L 316.177166 130.939135 
L 316.786884 129.263188 
L 317.498221 126.546442 
L 318.209558 122.857023 
L 319.124134 116.716544 
L 321.867863 97.328377 
L 322.5792 94.249989 
L 323.087298 92.86489 
L 323.595396 92.089502 
L 324.001875 91.86507 
L 324.306733 91.906118 
L 324.713212 92.213665 
L 325.22131 92.958217 
L 325.831027 94.295165 
L 326.745603 96.964754 
L 328.269897 101.527396 
L 328.879615 102.694305 
L 329.286093 103.077775 
L 329.590952 103.107632 
L 329.895811 102.883168 
L 330.200669 102.374326 
L 330.607148 101.212901 
L 331.216865 98.578799 
L 332.131441 93.357353 
L 333.757355 83.872058 
L 334.367072 81.423337 
L 334.87517 80.199962 
L 335.383268 79.569951 
L 335.891366 79.304811 
L 337.009182 78.879838 
L 337.41566 78.413692 
L 337.822138 77.596121 
L 338.228617 76.310138 
L 338.736715 73.882356 
L 339.448052 69.157634 
L 341.886922 51.558091 
L 342.39502 49.644303 
L 342.699878 49.079592 
L 343.004737 48.950177 
L 343.309596 49.194937 
L 343.716074 49.997697 
L 344.325792 51.928441 
L 346.154944 58.388618 
L 346.561423 59.030652 
L 346.866282 59.140032 
L 347.17114 58.952671 
L 347.577619 58.314105 
L 348.085717 57.031608 
L 349.000293 53.957151 
L 350.118108 50.292984 
L 350.626206 49.181781 
L 351.032685 48.707119 
L 351.439163 48.585153 
L 351.845641 48.772017 
L 352.25212 49.223847 
L 352.861837 50.302449 
L 353.674794 52.25856 
L 356.316903 59.006486 
L 357.231479 60.658522 
L 357.942816 61.546486 
L 358.552534 61.978754 
L 359.060632 62.081691 
L 359.873589 61.942978 
L 360.584926 61.870915 
L 361.093024 62.051953 
L 361.499502 62.43437 
L 361.90598 63.098813 
L 362.414078 64.425577 
L 362.922176 66.422881 
L 363.531894 69.780588 
L 364.34485 75.629817 
L 365.462666 85.505972 
L 369.222591 120.360054 
L 370.035547 125.316323 
L 370.645265 127.800583 
L 371.051743 128.763397 
L 371.356602 129.095264 
L 371.661461 129.104628 
L 371.966319 128.80553 
L 372.372798 127.951177 
L 372.880896 126.197903 
L 373.490613 123.174639 
L 374.30357 117.768009 
L 375.319766 109.1754 
L 376.945679 92.97396 
L 378.571593 77.353386 
L 379.486169 70.378473 
L 380.299126 65.730336 
L 381.010463 62.813198 
L 381.62018 61.125347 
L 382.128278 60.266543 
L 382.534756 59.924267 
L 382.941235 59.877855 
L 383.347713 60.118461 
L 383.754191 60.666231 
L 384.16067 61.570303 
L 384.668768 63.277724 
L 385.278485 66.302474 
L 385.888203 70.551387 
L 386.59954 77.281114 
L 387.310877 86.175438 
L 388.327073 102.273045 
L 390.257845 133.639991 
L 390.969182 141.863786 
L 391.47728 145.626496 
L 391.883758 147.265496 
L 392.188617 147.816986 
L 392.391856 147.909827 
L 392.595096 147.812633 
L 392.899954 147.366436 
L 393.408052 146.034692 
L 395.033966 141.127235 
L 395.338824 140.825968 
L 395.542064 140.840583 
L 395.846922 141.170558 
L 396.253401 142.112274 
L 396.761499 143.938771 
L 397.574455 147.84776 
L 399.301988 156.478426 
L 399.911706 158.433757 
L 400.419804 159.469649 
L 400.927902 160.053468 
L 401.33438 160.250169 
L 401.842478 160.227024 
L 402.452195 159.91299 
L 403.570011 158.976264 
L 405.195924 157.750302 
L 409.260708 155.06772 
L 409.870425 155.026372 
L 410.378523 155.240149 
L 410.886621 155.738643 
L 411.394719 156.577214 
L 412.004437 158.108845 
L 412.614154 160.283786 
L 413.325491 163.718813 
L 414.138448 168.95112 
L 414.951405 175.720693 
L 415.865981 185.357245 
L 418.406471 214.308531 
L 418.914568 217.64107 
L 419.321047 219.103451 
L 419.524286 219.367231 
L 419.727525 219.287309 
L 419.930764 218.846397 
L 420.235623 217.561472 
L 420.642101 214.842704 
L 421.251819 209.100239 
L 422.369634 195.854258 
L 423.48745 183.350915 
L 424.097167 178.616493 
L 424.605265 176.127015 
L 425.113363 174.712996 
L 425.519842 174.188827 
L 425.92632 174.066181 
L 426.332798 174.217604 
L 427.755472 175.065764 
L 428.060331 174.959225 
L 428.46681 174.553507 
L 428.974908 173.69494 
L 429.686245 172.016986 
L 431.718636 166.477635 
L 431.718636 166.477635 
" clip-path="url(#pd6c076fe15)" style="fill: none; stroke: #ff7f0e; stroke-width: 0.5; stroke-linecap: square"/>
   </g>
   <g id="line2d_31">
    <path d="M 66.091364 284.444296 
L 66.192983 284.444296 
L 66.294603 278.186542 
L 66.599462 289.412357 
L 66.802701 290.948806 
L 66.90432 290.994545 
L 67.10756 290.436645 
L 68.123755 286.541915 
L 68.428614 285.826863 
L 68.631853 284.084615 
L 69.44481 276.694425 
L 69.851288 274.657972 
L 70.054528 274.281504 
L 70.257767 274.330718 
L 70.461006 274.755215 
L 70.867484 276.393128 
L 72.086919 281.964622 
L 72.595017 283.100351 
L 73.103115 283.722598 
L 73.712833 284.103257 
L 74.525789 284.318947 
L 75.948464 284.422547 
L 76.86304 284.338583 
L 77.777616 283.854833 
L 78.692192 284.183131 
L 79.708388 284.367119 
L 81.74078 284.43795 
L 82.858595 284.345945 
L 83.569933 283.347304 
L 84.789368 281.062465 
L 84.992607 280.876834 
L 85.297466 281.453395 
L 86.008803 283.022264 
L 86.516901 283.668222 
L 87.126618 284.075596 
L 87.634716 284.171404 
L 87.837955 283.151595 
L 88.346053 280.78439 
L 89.768727 276.022293 
L 89.971966 276.030273 
L 90.175206 276.328979 
L 90.683304 277.786064 
L 91.59788 281.857988 
L 92.105978 283.039521 
L 92.614076 283.689441 
L 93.223793 284.087511 
L 93.833511 284.221553 
L 94.03675 283.240476 
L 94.544848 279.42515 
L 95.764283 269.37265 
L 95.967522 268.992453 
L 96.069142 269.015755 
L 96.272381 269.451197 
L 96.57724 270.856192 
L 98.203153 279.896441 
L 98.711251 281.876216 
L 99.219349 283.048491 
L 99.727447 283.69411 
L 100.337164 284.089695 
L 101.048501 284.280697 
L 101.150121 284.113058 
L 101.556599 282.800968 
L 101.759839 282.766079 
L 102.166317 283.1821 
L 102.877654 283.866085 
L 103.080893 283.866581 
L 103.588991 283.505373 
L 104.097089 283.789384 
L 104.910046 284.182514 
L 105.926242 284.368428 
L 107.958633 284.438072 
L 110.092645 284.38487 
L 110.499123 284.139285 
L 111.21046 284.252969 
L 112.531515 284.403834 
L 114.767146 284.441328 
L 114.970385 284.243228 
L 115.478483 283.689044 
L 115.681722 283.587652 
L 116.0882 283.753999 
L 117.002777 284.189368 
L 118.018972 284.370268 
L 120.051364 284.43822 
L 123.60805 284.409605 
L 124.217767 284.128168 
L 124.929104 284.08834 
L 126.250159 284.228012 
L 127.469594 284.393034 
L 130.111703 284.4423 
L 130.721421 284.388445 
L 131.229519 283.420486 
L 133.46515 278.83409 
L 133.973248 278.218846 
L 134.074867 278.18109 
L 134.379726 277.787728 
L 134.582965 278.385149 
L 135.599161 282.334425 
L 136.107259 283.301311 
L 136.615357 283.8306 
L 136.920216 284.022307 
L 137.021835 283.65587 
L 137.834792 276.276222 
L 138.139651 275.145498 
L 138.34289 275.12472 
L 138.546129 275.615255 
L 138.850988 276.892271 
L 139.663944 281.169063 
L 140.172042 282.65949 
L 140.68014 283.484284 
L 141.188238 283.929957 
L 141.899575 284.229991 
L 142.915771 284.382976 
L 145.151402 284.440266 
L 145.253022 284.321865 
L 145.862739 282.634963 
L 146.065978 282.685205 
L 147.691892 284.13016 
L 148.403229 284.270594 
L 148.809707 284.099563 
L 149.724283 284.283531 
L 151.045338 284.411451 
L 152.569632 284.404517 
L 153.280969 283.771348 
L 153.687447 283.890853 
L 154.703643 284.26194 
L 155.923078 284.403153 
L 159.073285 284.443418 
L 168.117429 284.419437 
L 168.320668 283.752456 
L 168.828766 281.960589 
L 169.235244 281.199881 
L 169.540103 281.050067 
L 169.946581 281.185951 
L 170.14982 281.475528 
L 171.166016 283.409448 
L 171.775734 283.949015 
L 172.487071 284.237316 
L 173.604886 284.392003 
L 176.246996 284.442246 
L 180.718257 284.402187 
L 181.531214 283.822586 
L 182.140932 283.609458 
L 182.64903 283.674047 
L 183.970084 284.255599 
L 185.0879 284.39624 
L 187.32353 284.44106 
L 187.52677 284.105557 
L 188.034868 282.629647 
L 188.746205 279.684815 
L 189.457542 275.988947 
L 190.778596 267.691533 
L 190.880216 267.926155 
L 191.185075 270.822896 
L 191.896412 278.028845 
L 192.40451 280.947758 
L 192.912608 282.563501 
L 193.217467 283.035622 
L 193.420706 282.244249 
L 193.928804 280.525394 
L 194.233662 280.099921 
L 194.538521 280.081232 
L 195.046619 280.433769 
L 195.249858 280.799013 
L 196.266054 283.176887 
L 196.774152 283.757759 
L 197.38387 284.118934 
L 197.891968 284.270064 
L 197.993587 284.059726 
L 198.704924 280.512283 
L 198.908163 279.934637 
L 199.009783 279.963006 
L 199.314642 280.708068 
L 200.025979 282.673464 
L 200.534077 283.478287 
L 201.143794 283.985423 
L 201.855131 284.252898 
L 202.972947 284.395967 
L 205.411817 284.425414 
L 206.224774 284.332626 
L 206.631252 284.198414 
L 212.626808 284.443745 
L 212.830047 284.351719 
L 213.744623 283.657027 
L 215.268917 284.28917 
L 216.386732 284.404867 
L 216.488352 284.227657 
L 217.199689 281.428099 
L 217.504548 281.078011 
L 217.707787 281.343665 
L 218.825602 283.475769 
L 219.43532 283.981858 
L 220.146657 284.251112 
L 221.264472 284.395481 
L 223.398484 284.44074 
L 223.500103 284.251332 
L 224.109821 281.728808 
L 224.516299 280.950054 
L 225.532495 279.779331 
L 225.837354 279.781746 
L 226.142213 280.066283 
L 226.75193 281.121127 
L 227.564887 283.020582 
L 228.072985 283.669436 
L 228.682702 284.076503 
L 229.495659 284.308952 
L 230.918333 284.420817 
L 234.17016 284.415941 
L 234.678258 284.306758 
L 239.555998 284.4438 
L 241.181911 284.374758 
L 241.994868 283.871436 
L 244.128879 284.388431 
L 246.262891 284.440006 
L 246.56775 284.239762 
L 247.482326 283.595051 
L 248.295282 284.031044 
L 249.108239 284.286822 
L 250.429294 284.413158 
L 253.477881 284.427671 
L 253.88436 284.034453 
L 254.900556 283.115615 
L 255.408654 282.90093 
L 256.018371 282.872025 
L 256.526469 283.387554 
L 257.136187 283.911357 
L 257.847524 284.218686 
L 258.863719 284.379532 
L 259.879915 284.35568 
L 260.794492 282.1897 
L 261.09935 282.269575 
L 261.810688 282.650272 
L 262.420405 282.781233 
L 263.436601 283.868636 
L 264.147938 284.20108 
L 265.164134 284.374504 
L 267.298145 284.439245 
L 274.106657 284.430974 
L 274.309897 284.124054 
L 274.513136 283.847652 
L 274.817995 283.833583 
L 275.93581 284.115739 
L 276.342288 283.135205 
L 276.545528 283.17437 
L 278.171441 284.218009 
L 278.679539 284.322775 
L 278.781158 284.142127 
L 280.305452 275.68006 
L 281.626507 271.878907 
L 281.728126 272.01154 
L 282.032985 274.141026 
L 282.744322 279.577785 
L 283.25242 281.790882 
L 283.760518 283.016846 
L 284.166997 283.523092 
L 284.370236 283.183899 
L 284.573475 282.964748 
L 284.878334 283.139878 
L 285.89453 283.998656 
L 286.097769 284.095004 
L 286.199388 284.018564 
L 286.504247 282.996497 
L 287.012345 279.950524 
L 287.418823 277.359927 
L 287.520443 277.459289 
L 287.825302 278.684401 
L 288.536639 281.731527 
L 289.044737 282.965789 
L 289.552835 283.648994 
L 289.756074 283.751456 
L 290.365791 283.090733 
L 290.873889 283.528788 
L 291.585226 284.034454 
L 292.398183 284.291597 
L 293.719238 284.414208 
L 294.227336 284.341516 
L 295.040292 283.176747 
L 296.056488 282.062139 
L 296.361347 282.482498 
L 297.072684 283.521027 
L 297.682402 283.999573 
L 298.393739 284.258139 
L 298.596978 284.299162 
L 298.698597 284.005152 
L 299.308315 279.906991 
L 299.714793 278.51592 
L 299.918032 278.320219 
L 300.121272 278.399259 
L 300.42613 278.897449 
L 300.730989 279.618777 
L 301.645565 282.575031 
L 302.153663 283.429201 
L 302.661761 283.898868 
L 303.373098 284.216806 
L 304.389294 284.379196 
L 306.624925 284.440118 
L 313.535057 284.397508 
L 313.839916 283.640438 
L 314.856112 280.519367 
L 315.059351 280.793767 
L 316.177166 283.292481 
L 316.685264 283.821384 
L 317.294982 284.149244 
L 317.599841 284.241462 
L 317.70146 283.962807 
L 318.107939 280.239347 
L 318.920895 272.069506 
L 319.225754 270.849572 
L 319.327374 270.719817 
L 319.530613 271.019218 
L 319.632232 271.11386 
L 319.733852 271.388631 
L 320.038711 273.781207 
L 320.750048 279.450222 
L 321.258146 281.724614 
L 321.766244 282.981715 
L 321.867863 283.126002 
L 321.969483 282.93797 
L 322.68082 278.995382 
L 322.782439 278.935623 
L 322.985679 279.384119 
L 324.001875 282.665407 
L 324.509972 283.480078 
L 325.01807 283.926496 
L 325.627788 284.194414 
L 325.729407 284.082458 
L 326.440745 282.225395 
L 327.761799 278.956491 
L 328.879615 275.150811 
L 329.082854 274.460501 
L 329.286093 275.188179 
L 330.403908 281.533453 
L 330.912006 282.87032 
L 331.420104 283.59965 
L 331.521724 283.498865 
L 332.131441 280.917411 
L 332.334681 280.78579 
L 332.53792 281.018776 
L 333.249257 282.390826 
L 333.452496 282.232607 
L 333.655735 281.66279 
L 334.163833 279.089156 
L 334.570312 277.317815 
L 334.671931 277.332116 
L 334.87517 277.999989 
L 335.789747 281.925695 
L 336.297845 283.07565 
L 336.805942 283.70875 
L 337.41566 284.09662 
L 338.126997 284.299422 
L 338.330236 284.216196 
L 339.85453 281.541035 
L 340.057769 281.577879 
L 340.464248 282.330202 
L 340.870726 282.942483 
L 341.073965 282.475635 
L 341.378824 280.435509 
L 342.191781 272.974477 
L 342.39502 273.886558 
L 343.411216 280.724846 
L 343.919314 282.427981 
L 344.427411 283.361467 
L 344.935509 283.84139 
L 345.037129 283.765761 
L 345.545227 282.938984 
L 346.459803 281.869682 
L 346.663042 282.08091 
L 347.679238 283.614024 
L 348.187336 283.968722 
L 348.695434 284.000306 
L 350.016489 284.339417 
L 350.727826 284.400293 
L 350.829445 284.283242 
L 351.235924 282.961553 
L 351.439163 282.951892 
L 351.947261 283.438407 
L 352.658598 283.994417 
L 353.369935 284.254489 
L 354.487751 284.396234 
L 355.300707 284.34617 
L 355.808805 284.048696 
L 356.418523 283.321245 
L 357.02824 282.710302 
L 358.044436 282.174368 
L 358.450914 282.749235 
L 359.060632 283.571689 
L 359.670349 284.024173 
L 360.381687 284.268461 
L 361.601122 284.405075 
L 362.210839 284.345362 
L 362.515698 283.959515 
L 362.820557 283.198971 
L 363.227035 281.495412 
L 364.54809 274.603902 
L 364.649709 274.769336 
L 364.954568 276.498377 
L 365.665905 280.710716 
L 366.174003 282.410101 
L 366.682101 283.350175 
L 367.190199 283.858112 
L 367.799916 284.167509 
L 368.206395 284.276496 
L 368.308014 284.168333 
L 368.511253 282.549623 
L 369.019351 278.557799 
L 369.222591 277.687315 
L 369.32421 277.77446 
L 369.629069 278.935353 
L 370.340406 281.847281 
L 370.848504 283.028685 
L 371.051743 283.338697 
L 371.153363 283.25075 
L 371.356602 281.335319 
L 371.76308 274.760922 
L 372.677657 258.370975 
L 372.880896 256.261724 
L 372.982515 256.467838 
L 373.185754 259.240579 
L 374.100331 274.653289 
L 374.608429 279.126195 
L 374.811668 280.129369 
L 374.913287 279.342973 
L 376.031103 257.431119 
L 376.335962 256.021427 
L 376.437581 255.97289 
L 376.64082 256.326497 
L 376.945679 257.61962 
L 377.453777 261.015915 
L 378.673212 271.722019 
L 379.384549 278.412948 
L 379.892647 281.154039 
L 380.400745 282.673968 
L 380.908843 283.495732 
L 381.416941 283.892583 
L 381.518561 283.41332 
L 382.128278 275.319409 
L 382.636376 268.984885 
L 382.941235 266.976027 
L 383.246094 266.22369 
L 383.449333 266.144388 
L 384.16067 266.204007 
L 384.872007 265.743502 
L 385.075246 265.482689 
L 385.278485 267.252402 
L 386.193062 277.720845 
L 386.701159 280.79049 
L 387.209257 282.480612 
L 387.310877 282.6962 
L 387.412497 282.475554 
L 388.123834 277.243162 
L 388.327073 276.612797 
L 388.530312 276.586417 
L 388.733551 277.040719 
L 389.343269 278.899604 
L 389.546508 279.01909 
L 389.749747 278.765913 
L 390.054606 277.826207 
L 390.867563 274.753675 
L 391.070802 275.530455 
L 392.086998 281.306228 
L 392.595096 282.743219 
L 393.103193 283.530771 
L 393.712911 284.012599 
L 394.424248 284.264471 
L 395.542064 284.398892 
L 396.253401 284.374163 
L 396.45664 283.858362 
L 396.863118 282.153617 
L 398.082553 276.516155 
L 398.489032 275.646356 
L 398.692271 275.509097 
L 398.997129 275.431393 
L 399.200369 276.311917 
L 400.114945 281.279851 
L 400.623043 282.72527 
L 401.131141 283.520542 
L 401.639239 283.949526 
L 402.045717 284.057235 
L 402.350576 282.74521 
L 402.858674 281.074381 
L 403.163533 280.722822 
L 403.265152 280.696923 
L 403.468391 280.99818 
L 404.484587 283.231374 
L 404.992685 283.786762 
L 405.195924 283.902936 
L 405.500783 283.666525 
L 406.516979 282.430502 
L 406.821838 281.946283 
L 407.025077 282.09196 
L 408.244512 283.778748 
L 408.854229 284.127045 
L 409.667186 284.327417 
L 410.886621 284.418059 
L 411.08986 284.163204 
L 411.394719 283.383462 
L 411.801197 281.574734 
L 412.512534 276.881249 
L 413.223872 272.724283 
L 413.935209 269.975103 
L 414.748165 266.774243 
L 415.459503 262.921713 
L 415.561122 263.006928 
L 415.764361 265.060951 
L 416.678938 276.885456 
L 417.187035 280.337409 
L 417.390275 281.238538 
L 417.491894 280.836848 
L 417.796753 271.367058 
L 418.711329 239.661926 
L 419.117808 232.822129 
L 419.422666 230.937922 
L 419.524286 230.901968 
L 419.727525 231.677094 
L 420.032384 234.774581 
L 420.642101 244.915841 
L 421.353439 255.665478 
L 421.658297 259.489257 
L 422.572874 274.782988 
L 423.080971 279.198035 
L 423.589069 281.625444 
L 424.097167 282.934533 
L 424.300407 283.189331 
L 424.706885 282.83633 
L 425.011744 282.240883 
L 425.723081 280.392328 
L 425.8247 280.498144 
L 426.231179 281.53623 
L 426.840896 282.954404 
L 427.348994 283.633493 
L 427.958712 284.059454 
L 428.36519 284.210732 
L 428.46681 284.134495 
L 429.076527 282.659217 
L 429.584625 282.155592 
L 429.889484 282.522964 
L 430.70244 283.632638 
L 431.312158 284.054519 
L 431.718636 284.207234 
L 431.718636 284.207234 
" clip-path="url(#pd6c076fe15)" style="fill: none; stroke: #2ca02c; stroke-width: 0.5; stroke-linecap: square"/>
   </g>
   <g id="patch_3">
    <path d="M 47.81 303.64 
L 47.81 25.44 
" style="fill: none; stroke: #000000; stroke-width: 0.8; stroke-linejoin: miter; stroke-linecap: square"/>
   </g>
   <g id="patch_4">
    <path d="M 450 303.64 
L 450 25.44 
" style="fill: none; stroke: #000000; stroke-width: 0.8; stroke-linejoin: miter; stroke-linecap: square"/>
   </g>
   <g id="patch_5">
    <path d="M 47.81 303.64 
L 450 303.64 
" style="fill: none; stroke: #000000; stroke-width: 0.8; stroke-linejoin: miter; stroke-linecap: square"/>
   </g>
   <g id="patch_6">
    <path d="M 47.81 25.44 
L 450 25.44 
" style="fill: none; stroke: #000000; stroke-width: 0.8; stroke-linejoin: miter; stroke-linecap: square"/>
   </g>
   <g id="text_17">
    <!-- data_2_E4 Separated EDA plot -->
    <g transform="translate(157.349688 19.44) scale(0.12 -0.12)">
     <defs>
      <path id="DejaVuSans-5f" d="M 3263 -1063 
L 3263 -1509 
L -63 -1509 
L -63 -1063 
L 3263 -1063 
z
" transform="scale(0.015625)"/>
      <path id="DejaVuSans-70" d="M 1159 525 
L 1159 -1331 
L 581 -1331 
L 581 3500 
L 1159 3500 
L 1159 2969 
Q 1341 3281 1617 3432 
Q 1894 3584 2278 3584 
Q 2916 3584 3314 3078 
Q 3713 2572 3713 1747 
Q 3713 922 3314 415 
Q 2916 -91 2278 -91 
Q 1894 -91 1617 61 
Q 1341 213 1159 525 
z
M 3116 1747 
Q 3116 2381 2855 2742 
Q 2594 3103 2138 3103 
Q 1681 3103 1420 2742 
Q 1159 2381 1159 1747 
Q 1159 1113 1420 752 
Q 1681 391 2138 391 
Q 2594 391 2855 752 
Q 3116 1113 3116 1747 
z
" transform="scale(0.015625)"/>
      <path id="DejaVuSans-6f" d="M 1959 3097 
Q 1497 3097 1228 2736 
Q 959 2375 959 1747 
Q 959 1119 1226 758 
Q 1494 397 1959 397 
Q 2419 397 2687 759 
Q 2956 1122 2956 1747 
Q 2956 2369 2687 2733 
Q 2419 3097 1959 3097 
z
M 1959 3584 
Q 2709 3584 3137 3096 
Q 3566 2609 3566 1747 
Q 3566 888 3137 398 
Q 2709 -91 1959 -91 
Q 1206 -91 779 398 
Q 353 888 353 1747 
Q 353 2609 779 3096 
Q 1206 3584 1959 3584 
z
" transform="scale(0.015625)"/>
     </defs>
     <use xlink:href="#DejaVuSans-64"/>
     <use xlink:href="#DejaVuSans-61" transform="translate(63.476562 0)"/>
     <use xlink:href="#DejaVuSans-74" transform="translate(124.755859 0)"/>
     <use xlink:href="#DejaVuSans-61" transform="translate(163.964844 0)"/>
     <use xlink:href="#DejaVuSans-5f" transform="translate(225.244141 0)"/>
     <use xlink:href="#DejaVuSans-32" transform="translate(275.244141 0)"/>
     <use xlink:href="#DejaVuSans-5f" transform="translate(338.867188 0)"/>
     <use xlink:href="#DejaVuSans-45" transform="translate(388.867188 0)"/>
     <use xlink:href="#DejaVuSans-34" transform="translate(452.050781 0)"/>
     <use xlink:href="#DejaVuSans-20" transform="translate(515.673828 0)"/>
     <use xlink:href="#DejaVuSans-53" transform="translate(547.460938 0)"/>
     <use xlink:href="#DejaVuSans-65" transform="translate(610.9375 0)"/>
     <use xlink:href="#DejaVuSans-70" transform="translate(672.460938 0)"/>
     <use xlink:href="#DejaVuSans-61" transform="translate(735.9375 0)"/>
     <use xlink:href="#DejaVuSans-72" transform="translate(797.216797 0)"/>
     <use xlink:href="#DejaVuSans-61" transform="translate(838.330078 0)"/>
     <use xlink:href="#DejaVuSans-74" transform="translate(899.609375 0)"/>
     <use xlink:href="#DejaVuSans-65" transform="translate(938.818359 0)"/>
     <use xlink:href="#DejaVuSans-64" transform="translate(1000.341797 0)"/>
     <use xlink:href="#DejaVuSans-20" transform="translate(1063.818359 0)"/>
     <use xlink:href="#DejaVuSans-45" transform="translate(1095.605469 0)"/>
     <use xlink:href="#DejaVuSans-44" transform="translate(1158.789062 0)"/>
     <use xlink:href="#DejaVuSans-41" transform="translate(1234.041016 0)"/>
     <use xlink:href="#DejaVuSans-20" transform="translate(1302.449219 0)"/>
     <use xlink:href="#DejaVuSans-70" transform="translate(1334.236328 0)"/>
     <use xlink:href="#DejaVuSans-6c" transform="translate(1397.712891 0)"/>
     <use xlink:href="#DejaVuSans-6f" transform="translate(1425.496094 0)"/>
     <use xlink:href="#DejaVuSans-74" transform="translate(1486.677734 0)"/>
    </g>
   </g>
   <g id="legend_1">
    <g id="patch_7">
     <path d="M 54.81 77.474375 
L 147.71625 77.474375 
Q 149.71625 77.474375 149.71625 75.474375 
L 149.71625 32.44 
Q 149.71625 30.44 147.71625 30.44 
L 54.81 30.44 
Q 52.81 30.44 52.81 32.44 
L 52.81 75.474375 
Q 52.81 77.474375 54.81 77.474375 
z
" style="fill: #ffffff; opacity: 0.8; stroke: #cccccc; stroke-linejoin: miter"/>
    </g>
    <g id="line2d_32">
     <path d="M 56.81 38.538437 
L 66.81 38.538437 
L 76.81 38.538437 
" style="fill: none; stroke-dasharray: 1.85,0.8; stroke-dashoffset: 0; stroke: #1f77b4; stroke-width: 0.5"/>
    </g>
    <g id="text_18">
     <!-- Filtered EDA -->
     <g transform="translate(84.81 42.038437) scale(0.1 -0.1)">
      <defs>
       <path id="DejaVuSans-46" d="M 628 4666 
L 3309 4666 
L 3309 4134 
L 1259 4134 
L 1259 2759 
L 3109 2759 
L 3109 2228 
L 1259 2228 
L 1259 0 
L 628 0 
L 628 4666 
z
" transform="scale(0.015625)"/>
      </defs>
      <use xlink:href="#DejaVuSans-46"/>
      <use xlink:href="#DejaVuSans-69" transform="translate(50.269531 0)"/>
      <use xlink:href="#DejaVuSans-6c" transform="translate(78.052734 0)"/>
      <use xlink:href="#DejaVuSans-74" transform="translate(105.835938 0)"/>
      <use xlink:href="#DejaVuSans-65" transform="translate(145.044922 0)"/>
      <use xlink:href="#DejaVuSans-72" transform="translate(206.568359 0)"/>
      <use xlink:href="#DejaVuSans-65" transform="translate(245.431641 0)"/>
      <use xlink:href="#DejaVuSans-64" transform="translate(306.955078 0)"/>
      <use xlink:href="#DejaVuSans-20" transform="translate(370.431641 0)"/>
      <use xlink:href="#DejaVuSans-45" transform="translate(402.21875 0)"/>
      <use xlink:href="#DejaVuSans-44" transform="translate(465.402344 0)"/>
      <use xlink:href="#DejaVuSans-41" transform="translate(540.654297 0)"/>
     </g>
    </g>
    <g id="line2d_33">
     <path d="M 56.81 53.216562 
L 66.81 53.216562 
L 76.81 53.216562 
" style="fill: none; stroke: #ff7f0e; stroke-width: 0.5; stroke-linecap: square"/>
    </g>
    <g id="text_19">
     <!-- Tonic -->
     <g transform="translate(84.81 56.716562) scale(0.1 -0.1)">
      <defs>
       <path id="DejaVuSans-63" d="M 3122 3366 
L 3122 2828 
Q 2878 2963 2633 3030 
Q 2388 3097 2138 3097 
Q 1578 3097 1268 2742 
Q 959 2388 959 1747 
Q 959 1106 1268 751 
Q 1578 397 2138 397 
Q 2388 397 2633 464 
Q 2878 531 3122 666 
L 3122 134 
Q 2881 22 2623 -34 
Q 2366 -91 2075 -91 
Q 1284 -91 818 406 
Q 353 903 353 1747 
Q 353 2603 823 3093 
Q 1294 3584 2113 3584 
Q 2378 3584 2631 3529 
Q 2884 3475 3122 3366 
z
" transform="scale(0.015625)"/>
      </defs>
      <use xlink:href="#DejaVuSans-54"/>
      <use xlink:href="#DejaVuSans-6f" transform="translate(44.083984 0)"/>
      <use xlink:href="#DejaVuSans-6e" transform="translate(105.265625 0)"/>
      <use xlink:href="#DejaVuSans-69" transform="translate(168.644531 0)"/>
      <use xlink:href="#DejaVuSans-63" transform="translate(196.427734 0)"/>
     </g>
    </g>
    <g id="line2d_34">
     <path d="M 56.81 67.894687 
L 66.81 67.894687 
L 76.81 67.894687 
" style="fill: none; stroke: #2ca02c; stroke-width: 0.5; stroke-linecap: square"/>
    </g>
    <g id="text_20">
     <!-- Phasic -->
     <g transform="translate(84.81 71.394687) scale(0.1 -0.1)">
      <defs>
       <path id="DejaVuSans-50" d="M 1259 4147 
L 1259 2394 
L 2053 2394 
Q 2494 2394 2734 2622 
Q 2975 2850 2975 3272 
Q 2975 3691 2734 3919 
Q 2494 4147 2053 4147 
L 1259 4147 
z
M 628 4666 
L 2053 4666 
Q 2838 4666 3239 4311 
Q 3641 3956 3641 3272 
Q 3641 2581 3239 2228 
Q 2838 1875 2053 1875 
L 1259 1875 
L 1259 0 
L 628 0 
L 628 4666 
z
" transform="scale(0.015625)"/>
       <path id="DejaVuSans-68" d="M 3513 2113 
L 3513 0 
L 2938 0 
L 2938 2094 
Q 2938 2591 2744 2837 
Q 2550 3084 2163 3084 
Q 1697 3084 1428 2787 
Q 1159 2491 1159 1978 
L 1159 0 
L 581 0 
L 581 4863 
L 1159 4863 
L 1159 2956 
Q 1366 3272 1645 3428 
Q 1925 3584 2291 3584 
Q 2894 3584 3203 3211 
Q 3513 2838 3513 2113 
z
" transform="scale(0.015625)"/>
      </defs>
      <use xlink:href="#DejaVuSans-50"/>
      <use xlink:href="#DejaVuSans-68" transform="translate(60.302734 0)"/>
      <use xlink:href="#DejaVuSans-61" transform="translate(123.681641 0)"/>
      <use xlink:href="#DejaVuSans-73" transform="translate(184.960938 0)"/>
      <use xlink:href="#DejaVuSans-69" transform="translate(237.060547 0)"/>
      <use xlink:href="#DejaVuSans-63" transform="translate(264.84375 0)"/>
     </g>
    </g>
   </g>
  </g>
 </g>
 <defs>
  <clipPath id="pd6c076fe15">
   <rect x="47.81" y="25.44" width="402.19" height="278.2"/>
  </clipPath>
 </defs>
</svg>
