<?xml version="1.0" encoding="utf-8" standalone="no"?>
<!DOCTYPE svg PUBLIC "-//W3C//DTD SVG 1.1//EN"
  "http://www.w3.org/Graphics/SVG/1.1/DTD/svg11.dtd">
<svg xmlns:xlink="http://www.w3.org/1999/xlink" width="460.8pt" height="345.6pt" viewBox="0 0 460.8 345.6" xmlns="http://www.w3.org/2000/svg" version="1.1">
 <metadata>
  <rdf:RDF xmlns:dc="http://purl.org/dc/elements/1.1/" xmlns:cc="http://creativecommons.org/ns#" xmlns:rdf="http://www.w3.org/1999/02/22-rdf-syntax-ns#">
   <cc:Work>
    <dc:type rdf:resource="http://purl.org/dc/dcmitype/StillImage"/>
    <dc:date>2025-09-22T15:39:26.011789</dc:date>
    <dc:format>image/svg+xml</dc:format>
    <dc:creator>
     <cc:Agent>
      <dc:title>Matplotlib v3.10.0, https://matplotlib.org/</dc:title>
     </cc:Agent>
    </dc:creator>
   </cc:Work>
  </rdf:RDF>
 </metadata>
 <defs>
  <style type="text/css">*{stroke-linejoin: round; stroke-linecap: butt}</style>
 </defs>
 <g id="figure_1">
  <g id="patch_1">
   <path d="M 0 345.6 
L 460.8 345.6 
L 460.8 0 
L 0 0 
z
" style="fill: #ffffff"/>
  </g>
  <g id="axes_1">
   <g id="patch_2">
    <path d="M 38.27 303.64 
L 450 303.64 
L 450 25.44 
L 38.27 25.44 
z
" style="fill: #ffffff"/>
   </g>
   <g id="matplotlib.axis_1">
    <g id="xtick_1">
     <g id="line2d_1">
      <path d="M 56.985 303.64 
L 56.985 25.44 
" clip-path="url(#p67f4fddeed)" style="fill: none; stroke: #b0b0b0; stroke-opacity: 0.3; stroke-width: 0.8; stroke-linecap: square"/>
     </g>
     <g id="line2d_2">
      <defs>
       <path id="m22076b491c" d="M 0 0 
L 0 3.5 
" style="stroke: #000000; stroke-width: 0.8"/>
      </defs>
      <g>
       <use xlink:href="#m22076b491c" x="56.985" y="303.64" style="stroke: #000000; stroke-width: 0.8"/>
      </g>
     </g>
     <g id="text_1">
      <!-- 0 -->
      <g transform="translate(53.80375 318.238437) scale(0.1 -0.1)">
       <defs>
        <path id="DejaVuSans-30" d="M 2034 4250 
Q 1547 4250 1301 3770 
Q 1056 3291 1056 2328 
Q 1056 1369 1301 889 
Q 1547 409 2034 409 
Q 2525 409 2770 889 
Q 3016 1369 3016 2328 
Q 3016 3291 2770 3770 
Q 2525 4250 2034 4250 
z
M 2034 4750 
Q 2819 4750 3233 4129 
Q 3647 3509 3647 2328 
Q 3647 1150 3233 529 
Q 2819 -91 2034 -91 
Q 1250 -91 836 529 
Q 422 1150 422 2328 
Q 422 3509 836 4129 
Q 1250 4750 2034 4750 
z
" transform="scale(0.015625)"/>
       </defs>
       <use xlink:href="#DejaVuSans-30"/>
      </g>
     </g>
    </g>
    <g id="xtick_2">
     <g id="line2d_3">
      <path d="M 106.891667 303.64 
L 106.891667 25.44 
" clip-path="url(#p67f4fddeed)" style="fill: none; stroke: #b0b0b0; stroke-opacity: 0.3; stroke-width: 0.8; stroke-linecap: square"/>
     </g>
     <g id="line2d_4">
      <g>
       <use xlink:href="#m22076b491c" x="106.891667" y="303.64" style="stroke: #000000; stroke-width: 0.8"/>
      </g>
     </g>
     <g id="text_2">
      <!-- 2 -->
      <g transform="translate(103.710417 318.238437) scale(0.1 -0.1)">
       <defs>
        <path id="DejaVuSans-32" d="M 1228 531 
L 3431 531 
L 3431 0 
L 469 0 
L 469 531 
Q 828 903 1448 1529 
Q 2069 2156 2228 2338 
Q 2531 2678 2651 2914 
Q 2772 3150 2772 3378 
Q 2772 3750 2511 3984 
Q 2250 4219 1831 4219 
Q 1534 4219 1204 4116 
Q 875 4013 500 3803 
L 500 4441 
Q 881 4594 1212 4672 
Q 1544 4750 1819 4750 
Q 2544 4750 2975 4387 
Q 3406 4025 3406 3419 
Q 3406 3131 3298 2873 
Q 3191 2616 2906 2266 
Q 2828 2175 2409 1742 
Q 1991 1309 1228 531 
z
" transform="scale(0.015625)"/>
       </defs>
       <use xlink:href="#DejaVuSans-32"/>
      </g>
     </g>
    </g>
    <g id="xtick_3">
     <g id="line2d_5">
      <path d="M 156.798333 303.64 
L 156.798333 25.44 
" clip-path="url(#p67f4fddeed)" style="fill: none; stroke: #b0b0b0; stroke-opacity: 0.3; stroke-width: 0.8; stroke-linecap: square"/>
     </g>
     <g id="line2d_6">
      <g>
       <use xlink:href="#m22076b491c" x="156.798333" y="303.64" style="stroke: #000000; stroke-width: 0.8"/>
      </g>
     </g>
     <g id="text_3">
      <!-- 4 -->
      <g transform="translate(153.617083 318.238437) scale(0.1 -0.1)">
       <defs>
        <path id="DejaVuSans-34" d="M 2419 4116 
L 825 1625 
L 2419 1625 
L 2419 4116 
z
M 2253 4666 
L 3047 4666 
L 3047 1625 
L 3713 1625 
L 3713 1100 
L 3047 1100 
L 3047 0 
L 2419 0 
L 2419 1100 
L 313 1100 
L 313 1709 
L 2253 4666 
z
" transform="scale(0.015625)"/>
       </defs>
       <use xlink:href="#DejaVuSans-34"/>
      </g>
     </g>
    </g>
    <g id="xtick_4">
     <g id="line2d_7">
      <path d="M 206.705 303.64 
L 206.705 25.44 
" clip-path="url(#p67f4fddeed)" style="fill: none; stroke: #b0b0b0; stroke-opacity: 0.3; stroke-width: 0.8; stroke-linecap: square"/>
     </g>
     <g id="line2d_8">
      <g>
       <use xlink:href="#m22076b491c" x="206.705" y="303.64" style="stroke: #000000; stroke-width: 0.8"/>
      </g>
     </g>
     <g id="text_4">
      <!-- 6 -->
      <g transform="translate(203.52375 318.238437) scale(0.1 -0.1)">
       <defs>
        <path id="DejaVuSans-36" d="M 2113 2584 
Q 1688 2584 1439 2293 
Q 1191 2003 1191 1497 
Q 1191 994 1439 701 
Q 1688 409 2113 409 
Q 2538 409 2786 701 
Q 3034 994 3034 1497 
Q 3034 2003 2786 2293 
Q 2538 2584 2113 2584 
z
M 3366 4563 
L 3366 3988 
Q 3128 4100 2886 4159 
Q 2644 4219 2406 4219 
Q 1781 4219 1451 3797 
Q 1122 3375 1075 2522 
Q 1259 2794 1537 2939 
Q 1816 3084 2150 3084 
Q 2853 3084 3261 2657 
Q 3669 2231 3669 1497 
Q 3669 778 3244 343 
Q 2819 -91 2113 -91 
Q 1303 -91 875 529 
Q 447 1150 447 2328 
Q 447 3434 972 4092 
Q 1497 4750 2381 4750 
Q 2619 4750 2861 4703 
Q 3103 4656 3366 4563 
z
" transform="scale(0.015625)"/>
       </defs>
       <use xlink:href="#DejaVuSans-36"/>
      </g>
     </g>
    </g>
    <g id="xtick_5">
     <g id="line2d_9">
      <path d="M 256.611667 303.64 
L 256.611667 25.44 
" clip-path="url(#p67f4fddeed)" style="fill: none; stroke: #b0b0b0; stroke-opacity: 0.3; stroke-width: 0.8; stroke-linecap: square"/>
     </g>
     <g id="line2d_10">
      <g>
       <use xlink:href="#m22076b491c" x="256.611667" y="303.64" style="stroke: #000000; stroke-width: 0.8"/>
      </g>
     </g>
     <g id="text_5">
      <!-- 8 -->
      <g transform="translate(253.430417 318.238437) scale(0.1 -0.1)">
       <defs>
        <path id="DejaVuSans-38" d="M 2034 2216 
Q 1584 2216 1326 1975 
Q 1069 1734 1069 1313 
Q 1069 891 1326 650 
Q 1584 409 2034 409 
Q 2484 409 2743 651 
Q 3003 894 3003 1313 
Q 3003 1734 2745 1975 
Q 2488 2216 2034 2216 
z
M 1403 2484 
Q 997 2584 770 2862 
Q 544 3141 544 3541 
Q 544 4100 942 4425 
Q 1341 4750 2034 4750 
Q 2731 4750 3128 4425 
Q 3525 4100 3525 3541 
Q 3525 3141 3298 2862 
Q 3072 2584 2669 2484 
Q 3125 2378 3379 2068 
Q 3634 1759 3634 1313 
Q 3634 634 3220 271 
Q 2806 -91 2034 -91 
Q 1263 -91 848 271 
Q 434 634 434 1313 
Q 434 1759 690 2068 
Q 947 2378 1403 2484 
z
M 1172 3481 
Q 1172 3119 1398 2916 
Q 1625 2713 2034 2713 
Q 2441 2713 2670 2916 
Q 2900 3119 2900 3481 
Q 2900 3844 2670 4047 
Q 2441 4250 2034 4250 
Q 1625 4250 1398 4047 
Q 1172 3844 1172 3481 
z
" transform="scale(0.015625)"/>
       </defs>
       <use xlink:href="#DejaVuSans-38"/>
      </g>
     </g>
    </g>
    <g id="xtick_6">
     <g id="line2d_11">
      <path d="M 306.518333 303.64 
L 306.518333 25.44 
" clip-path="url(#p67f4fddeed)" style="fill: none; stroke: #b0b0b0; stroke-opacity: 0.3; stroke-width: 0.8; stroke-linecap: square"/>
     </g>
     <g id="line2d_12">
      <g>
       <use xlink:href="#m22076b491c" x="306.518333" y="303.64" style="stroke: #000000; stroke-width: 0.8"/>
      </g>
     </g>
     <g id="text_6">
      <!-- 10 -->
      <g transform="translate(300.155833 318.238437) scale(0.1 -0.1)">
       <defs>
        <path id="DejaVuSans-31" d="M 794 531 
L 1825 531 
L 1825 4091 
L 703 3866 
L 703 4441 
L 1819 4666 
L 2450 4666 
L 2450 531 
L 3481 531 
L 3481 0 
L 794 0 
L 794 531 
z
" transform="scale(0.015625)"/>
       </defs>
       <use xlink:href="#DejaVuSans-31"/>
       <use xlink:href="#DejaVuSans-30" transform="translate(63.623047 0)"/>
      </g>
     </g>
    </g>
    <g id="xtick_7">
     <g id="line2d_13">
      <path d="M 356.425 303.64 
L 356.425 25.44 
" clip-path="url(#p67f4fddeed)" style="fill: none; stroke: #b0b0b0; stroke-opacity: 0.3; stroke-width: 0.8; stroke-linecap: square"/>
     </g>
     <g id="line2d_14">
      <g>
       <use xlink:href="#m22076b491c" x="356.425" y="303.64" style="stroke: #000000; stroke-width: 0.8"/>
      </g>
     </g>
     <g id="text_7">
      <!-- 12 -->
      <g transform="translate(350.0625 318.238437) scale(0.1 -0.1)">
       <use xlink:href="#DejaVuSans-31"/>
       <use xlink:href="#DejaVuSans-32" transform="translate(63.623047 0)"/>
      </g>
     </g>
    </g>
    <g id="xtick_8">
     <g id="line2d_15">
      <path d="M 406.331667 303.64 
L 406.331667 25.44 
" clip-path="url(#p67f4fddeed)" style="fill: none; stroke: #b0b0b0; stroke-opacity: 0.3; stroke-width: 0.8; stroke-linecap: square"/>
     </g>
     <g id="line2d_16">
      <g>
       <use xlink:href="#m22076b491c" x="406.331667" y="303.64" style="stroke: #000000; stroke-width: 0.8"/>
      </g>
     </g>
     <g id="text_8">
      <!-- 14 -->
      <g transform="translate(399.969167 318.238437) scale(0.1 -0.1)">
       <use xlink:href="#DejaVuSans-31"/>
       <use xlink:href="#DejaVuSans-34" transform="translate(63.623047 0)"/>
      </g>
     </g>
    </g>
    <g id="text_9">
     <!-- Time (minutes) -->
     <g transform="translate(206.1725 331.916562) scale(0.1 -0.1)">
      <defs>
       <path id="DejaVuSans-54" d="M -19 4666 
L 3928 4666 
L 3928 4134 
L 2272 4134 
L 2272 0 
L 1638 0 
L 1638 4134 
L -19 4134 
L -19 4666 
z
" transform="scale(0.015625)"/>
       <path id="DejaVuSans-69" d="M 603 3500 
L 1178 3500 
L 1178 0 
L 603 0 
L 603 3500 
z
M 603 4863 
L 1178 4863 
L 1178 4134 
L 603 4134 
L 603 4863 
z
" transform="scale(0.015625)"/>
       <path id="DejaVuSans-6d" d="M 3328 2828 
Q 3544 3216 3844 3400 
Q 4144 3584 4550 3584 
Q 5097 3584 5394 3201 
Q 5691 2819 5691 2113 
L 5691 0 
L 5113 0 
L 5113 2094 
Q 5113 2597 4934 2840 
Q 4756 3084 4391 3084 
Q 3944 3084 3684 2787 
Q 3425 2491 3425 1978 
L 3425 0 
L 2847 0 
L 2847 2094 
Q 2847 2600 2669 2842 
Q 2491 3084 2119 3084 
Q 1678 3084 1418 2786 
Q 1159 2488 1159 1978 
L 1159 0 
L 581 0 
L 581 3500 
L 1159 3500 
L 1159 2956 
Q 1356 3278 1631 3431 
Q 1906 3584 2284 3584 
Q 2666 3584 2933 3390 
Q 3200 3197 3328 2828 
z
" transform="scale(0.015625)"/>
       <path id="DejaVuSans-65" d="M 3597 1894 
L 3597 1613 
L 953 1613 
Q 991 1019 1311 708 
Q 1631 397 2203 397 
Q 2534 397 2845 478 
Q 3156 559 3463 722 
L 3463 178 
Q 3153 47 2828 -22 
Q 2503 -91 2169 -91 
Q 1331 -91 842 396 
Q 353 884 353 1716 
Q 353 2575 817 3079 
Q 1281 3584 2069 3584 
Q 2775 3584 3186 3129 
Q 3597 2675 3597 1894 
z
M 3022 2063 
Q 3016 2534 2758 2815 
Q 2500 3097 2075 3097 
Q 1594 3097 1305 2825 
Q 1016 2553 972 2059 
L 3022 2063 
z
" transform="scale(0.015625)"/>
       <path id="DejaVuSans-20" transform="scale(0.015625)"/>
       <path id="DejaVuSans-28" d="M 1984 4856 
Q 1566 4138 1362 3434 
Q 1159 2731 1159 2009 
Q 1159 1288 1364 580 
Q 1569 -128 1984 -844 
L 1484 -844 
Q 1016 -109 783 600 
Q 550 1309 550 2009 
Q 550 2706 781 3412 
Q 1013 4119 1484 4856 
L 1984 4856 
z
" transform="scale(0.015625)"/>
       <path id="DejaVuSans-6e" d="M 3513 2113 
L 3513 0 
L 2938 0 
L 2938 2094 
Q 2938 2591 2744 2837 
Q 2550 3084 2163 3084 
Q 1697 3084 1428 2787 
Q 1159 2491 1159 1978 
L 1159 0 
L 581 0 
L 581 3500 
L 1159 3500 
L 1159 2956 
Q 1366 3272 1645 3428 
Q 1925 3584 2291 3584 
Q 2894 3584 3203 3211 
Q 3513 2838 3513 2113 
z
" transform="scale(0.015625)"/>
       <path id="DejaVuSans-75" d="M 544 1381 
L 544 3500 
L 1119 3500 
L 1119 1403 
Q 1119 906 1312 657 
Q 1506 409 1894 409 
Q 2359 409 2629 706 
Q 2900 1003 2900 1516 
L 2900 3500 
L 3475 3500 
L 3475 0 
L 2900 0 
L 2900 538 
Q 2691 219 2414 64 
Q 2138 -91 1772 -91 
Q 1169 -91 856 284 
Q 544 659 544 1381 
z
M 1991 3584 
L 1991 3584 
z
" transform="scale(0.015625)"/>
       <path id="DejaVuSans-74" d="M 1172 4494 
L 1172 3500 
L 2356 3500 
L 2356 3053 
L 1172 3053 
L 1172 1153 
Q 1172 725 1289 603 
Q 1406 481 1766 481 
L 2356 481 
L 2356 0 
L 1766 0 
Q 1100 0 847 248 
Q 594 497 594 1153 
L 594 3053 
L 172 3053 
L 172 3500 
L 594 3500 
L 594 4494 
L 1172 4494 
z
" transform="scale(0.015625)"/>
       <path id="DejaVuSans-73" d="M 2834 3397 
L 2834 2853 
Q 2591 2978 2328 3040 
Q 2066 3103 1784 3103 
Q 1356 3103 1142 2972 
Q 928 2841 928 2578 
Q 928 2378 1081 2264 
Q 1234 2150 1697 2047 
L 1894 2003 
Q 2506 1872 2764 1633 
Q 3022 1394 3022 966 
Q 3022 478 2636 193 
Q 2250 -91 1575 -91 
Q 1294 -91 989 -36 
Q 684 19 347 128 
L 347 722 
Q 666 556 975 473 
Q 1284 391 1588 391 
Q 1994 391 2212 530 
Q 2431 669 2431 922 
Q 2431 1156 2273 1281 
Q 2116 1406 1581 1522 
L 1381 1569 
Q 847 1681 609 1914 
Q 372 2147 372 2553 
Q 372 3047 722 3315 
Q 1072 3584 1716 3584 
Q 2034 3584 2315 3537 
Q 2597 3491 2834 3397 
z
" transform="scale(0.015625)"/>
       <path id="DejaVuSans-29" d="M 513 4856 
L 1013 4856 
Q 1481 4119 1714 3412 
Q 1947 2706 1947 2009 
Q 1947 1309 1714 600 
Q 1481 -109 1013 -844 
L 513 -844 
Q 928 -128 1133 580 
Q 1338 1288 1338 2009 
Q 1338 2731 1133 3434 
Q 928 4138 513 4856 
z
" transform="scale(0.015625)"/>
      </defs>
      <use xlink:href="#DejaVuSans-54"/>
      <use xlink:href="#DejaVuSans-69" transform="translate(57.958984 0)"/>
      <use xlink:href="#DejaVuSans-6d" transform="translate(85.742188 0)"/>
      <use xlink:href="#DejaVuSans-65" transform="translate(183.154297 0)"/>
      <use xlink:href="#DejaVuSans-20" transform="translate(244.677734 0)"/>
      <use xlink:href="#DejaVuSans-28" transform="translate(276.464844 0)"/>
      <use xlink:href="#DejaVuSans-6d" transform="translate(315.478516 0)"/>
      <use xlink:href="#DejaVuSans-69" transform="translate(412.890625 0)"/>
      <use xlink:href="#DejaVuSans-6e" transform="translate(440.673828 0)"/>
      <use xlink:href="#DejaVuSans-75" transform="translate(504.052734 0)"/>
      <use xlink:href="#DejaVuSans-74" transform="translate(567.431641 0)"/>
      <use xlink:href="#DejaVuSans-65" transform="translate(606.640625 0)"/>
      <use xlink:href="#DejaVuSans-73" transform="translate(668.164062 0)"/>
      <use xlink:href="#DejaVuSans-29" transform="translate(720.263672 0)"/>
     </g>
    </g>
   </g>
   <g id="matplotlib.axis_2">
    <g id="ytick_1">
     <g id="line2d_17">
      <path d="M 38.27 271.939477 
L 450 271.939477 
" clip-path="url(#p67f4fddeed)" style="fill: none; stroke: #b0b0b0; stroke-opacity: 0.3; stroke-width: 0.8; stroke-linecap: square"/>
     </g>
     <g id="line2d_18">
      <defs>
       <path id="m1e289cd5a2" d="M 0 0 
L -3.5 0 
" style="stroke: #000000; stroke-width: 0.8"/>
      </defs>
      <g>
       <use xlink:href="#m1e289cd5a2" x="38.27" y="271.939477" style="stroke: #000000; stroke-width: 0.8"/>
      </g>
     </g>
     <g id="text_10">
      <!-- 0 -->
      <g transform="translate(24.9075 275.738696) scale(0.1 -0.1)">
       <use xlink:href="#DejaVuSans-30"/>
      </g>
     </g>
    </g>
    <g id="ytick_2">
     <g id="line2d_19">
      <path d="M 38.27 211.188481 
L 450 211.188481 
" clip-path="url(#p67f4fddeed)" style="fill: none; stroke: #b0b0b0; stroke-opacity: 0.3; stroke-width: 0.8; stroke-linecap: square"/>
     </g>
     <g id="line2d_20">
      <g>
       <use xlink:href="#m1e289cd5a2" x="38.27" y="211.188481" style="stroke: #000000; stroke-width: 0.8"/>
      </g>
     </g>
     <g id="text_11">
      <!-- 2 -->
      <g transform="translate(24.9075 214.987699) scale(0.1 -0.1)">
       <use xlink:href="#DejaVuSans-32"/>
      </g>
     </g>
    </g>
    <g id="ytick_3">
     <g id="line2d_21">
      <path d="M 38.27 150.437484 
L 450 150.437484 
" clip-path="url(#p67f4fddeed)" style="fill: none; stroke: #b0b0b0; stroke-opacity: 0.3; stroke-width: 0.8; stroke-linecap: square"/>
     </g>
     <g id="line2d_22">
      <g>
       <use xlink:href="#m1e289cd5a2" x="38.27" y="150.437484" style="stroke: #000000; stroke-width: 0.8"/>
      </g>
     </g>
     <g id="text_12">
      <!-- 4 -->
      <g transform="translate(24.9075 154.236703) scale(0.1 -0.1)">
       <use xlink:href="#DejaVuSans-34"/>
      </g>
     </g>
    </g>
    <g id="ytick_4">
     <g id="line2d_23">
      <path d="M 38.27 89.686488 
L 450 89.686488 
" clip-path="url(#p67f4fddeed)" style="fill: none; stroke: #b0b0b0; stroke-opacity: 0.3; stroke-width: 0.8; stroke-linecap: square"/>
     </g>
     <g id="line2d_24">
      <g>
       <use xlink:href="#m1e289cd5a2" x="38.27" y="89.686488" style="stroke: #000000; stroke-width: 0.8"/>
      </g>
     </g>
     <g id="text_13">
      <!-- 6 -->
      <g transform="translate(24.9075 93.485706) scale(0.1 -0.1)">
       <use xlink:href="#DejaVuSans-36"/>
      </g>
     </g>
    </g>
    <g id="ytick_5">
     <g id="line2d_25">
      <path d="M 38.27 28.935491 
L 450 28.935491 
" clip-path="url(#p67f4fddeed)" style="fill: none; stroke: #b0b0b0; stroke-opacity: 0.3; stroke-width: 0.8; stroke-linecap: square"/>
     </g>
     <g id="line2d_26">
      <g>
       <use xlink:href="#m1e289cd5a2" x="38.27" y="28.935491" style="stroke: #000000; stroke-width: 0.8"/>
      </g>
     </g>
     <g id="text_14">
      <!-- 8 -->
      <g transform="translate(24.9075 32.73471) scale(0.1 -0.1)">
       <use xlink:href="#DejaVuSans-38"/>
      </g>
     </g>
    </g>
    <g id="text_15">
     <!-- EDA signals (μS) -->
     <g transform="translate(18.827813 205.711875) rotate(-90) scale(0.1 -0.1)">
      <defs>
       <path id="DejaVuSans-45" d="M 628 4666 
L 3578 4666 
L 3578 4134 
L 1259 4134 
L 1259 2753 
L 3481 2753 
L 3481 2222 
L 1259 2222 
L 1259 531 
L 3634 531 
L 3634 0 
L 628 0 
L 628 4666 
z
" transform="scale(0.015625)"/>
       <path id="DejaVuSans-44" d="M 1259 4147 
L 1259 519 
L 2022 519 
Q 2988 519 3436 956 
Q 3884 1394 3884 2338 
Q 3884 3275 3436 3711 
Q 2988 4147 2022 4147 
L 1259 4147 
z
M 628 4666 
L 1925 4666 
Q 3281 4666 3915 4102 
Q 4550 3538 4550 2338 
Q 4550 1131 3912 565 
Q 3275 0 1925 0 
L 628 0 
L 628 4666 
z
" transform="scale(0.015625)"/>
       <path id="DejaVuSans-41" d="M 2188 4044 
L 1331 1722 
L 3047 1722 
L 2188 4044 
z
M 1831 4666 
L 2547 4666 
L 4325 0 
L 3669 0 
L 3244 1197 
L 1141 1197 
L 716 0 
L 50 0 
L 1831 4666 
z
" transform="scale(0.015625)"/>
       <path id="DejaVuSans-67" d="M 2906 1791 
Q 2906 2416 2648 2759 
Q 2391 3103 1925 3103 
Q 1463 3103 1205 2759 
Q 947 2416 947 1791 
Q 947 1169 1205 825 
Q 1463 481 1925 481 
Q 2391 481 2648 825 
Q 2906 1169 2906 1791 
z
M 3481 434 
Q 3481 -459 3084 -895 
Q 2688 -1331 1869 -1331 
Q 1566 -1331 1297 -1286 
Q 1028 -1241 775 -1147 
L 775 -588 
Q 1028 -725 1275 -790 
Q 1522 -856 1778 -856 
Q 2344 -856 2625 -561 
Q 2906 -266 2906 331 
L 2906 616 
Q 2728 306 2450 153 
Q 2172 0 1784 0 
Q 1141 0 747 490 
Q 353 981 353 1791 
Q 353 2603 747 3093 
Q 1141 3584 1784 3584 
Q 2172 3584 2450 3431 
Q 2728 3278 2906 2969 
L 2906 3500 
L 3481 3500 
L 3481 434 
z
" transform="scale(0.015625)"/>
       <path id="DejaVuSans-61" d="M 2194 1759 
Q 1497 1759 1228 1600 
Q 959 1441 959 1056 
Q 959 750 1161 570 
Q 1363 391 1709 391 
Q 2188 391 2477 730 
Q 2766 1069 2766 1631 
L 2766 1759 
L 2194 1759 
z
M 3341 1997 
L 3341 0 
L 2766 0 
L 2766 531 
Q 2569 213 2275 61 
Q 1981 -91 1556 -91 
Q 1019 -91 701 211 
Q 384 513 384 1019 
Q 384 1609 779 1909 
Q 1175 2209 1959 2209 
L 2766 2209 
L 2766 2266 
Q 2766 2663 2505 2880 
Q 2244 3097 1772 3097 
Q 1472 3097 1187 3025 
Q 903 2953 641 2809 
L 641 3341 
Q 956 3463 1253 3523 
Q 1550 3584 1831 3584 
Q 2591 3584 2966 3190 
Q 3341 2797 3341 1997 
z
" transform="scale(0.015625)"/>
       <path id="DejaVuSans-6c" d="M 603 4863 
L 1178 4863 
L 1178 0 
L 603 0 
L 603 4863 
z
" transform="scale(0.015625)"/>
       <path id="DejaVuSans-3bc" d="M 544 -1331 
L 544 3500 
L 1119 3500 
L 1119 1325 
Q 1119 872 1334 640 
Q 1550 409 1972 409 
Q 2434 409 2667 671 
Q 2900 934 2900 1459 
L 2900 3500 
L 3475 3500 
L 3475 806 
Q 3475 619 3529 530 
Q 3584 441 3700 441 
Q 3728 441 3778 458 
Q 3828 475 3916 513 
L 3916 50 
Q 3788 -22 3673 -56 
Q 3559 -91 3450 -91 
Q 3234 -91 3106 31 
Q 2978 153 2931 403 
Q 2775 156 2548 32 
Q 2322 -91 2016 -91 
Q 1697 -91 1473 31 
Q 1250 153 1119 397 
L 1119 -1331 
L 544 -1331 
z
" transform="scale(0.015625)"/>
       <path id="DejaVuSans-53" d="M 3425 4513 
L 3425 3897 
Q 3066 4069 2747 4153 
Q 2428 4238 2131 4238 
Q 1616 4238 1336 4038 
Q 1056 3838 1056 3469 
Q 1056 3159 1242 3001 
Q 1428 2844 1947 2747 
L 2328 2669 
Q 3034 2534 3370 2195 
Q 3706 1856 3706 1288 
Q 3706 609 3251 259 
Q 2797 -91 1919 -91 
Q 1588 -91 1214 -16 
Q 841 59 441 206 
L 441 856 
Q 825 641 1194 531 
Q 1563 422 1919 422 
Q 2459 422 2753 634 
Q 3047 847 3047 1241 
Q 3047 1584 2836 1778 
Q 2625 1972 2144 2069 
L 1759 2144 
Q 1053 2284 737 2584 
Q 422 2884 422 3419 
Q 422 4038 858 4394 
Q 1294 4750 2059 4750 
Q 2388 4750 2728 4690 
Q 3069 4631 3425 4513 
z
" transform="scale(0.015625)"/>
      </defs>
      <use xlink:href="#DejaVuSans-45"/>
      <use xlink:href="#DejaVuSans-44" transform="translate(63.183594 0)"/>
      <use xlink:href="#DejaVuSans-41" transform="translate(138.435547 0)"/>
      <use xlink:href="#DejaVuSans-20" transform="translate(206.84375 0)"/>
      <use xlink:href="#DejaVuSans-73" transform="translate(238.630859 0)"/>
      <use xlink:href="#DejaVuSans-69" transform="translate(290.730469 0)"/>
      <use xlink:href="#DejaVuSans-67" transform="translate(318.513672 0)"/>
      <use xlink:href="#DejaVuSans-6e" transform="translate(381.990234 0)"/>
      <use xlink:href="#DejaVuSans-61" transform="translate(445.369141 0)"/>
      <use xlink:href="#DejaVuSans-6c" transform="translate(506.648438 0)"/>
      <use xlink:href="#DejaVuSans-73" transform="translate(534.431641 0)"/>
      <use xlink:href="#DejaVuSans-20" transform="translate(586.53125 0)"/>
      <use xlink:href="#DejaVuSans-28" transform="translate(618.318359 0)"/>
      <use xlink:href="#DejaVuSans-3bc" transform="translate(657.332031 0)"/>
      <use xlink:href="#DejaVuSans-53" transform="translate(720.955078 0)"/>
      <use xlink:href="#DejaVuSans-29" transform="translate(784.431641 0)"/>
     </g>
    </g>
   </g>
   <g id="line2d_27">
    <path d="M 56.985 197.267736 
L 57.29709 197.406634 
L 57.71321 197.864645 
L 59.27366 199.842003 
L 59.68978 200.080506 
L 60.00187 200.034002 
L 60.313961 199.688455 
L 60.626051 198.88125 
L 60.938141 197.315361 
L 61.250231 194.538429 
L 61.666351 188.327785 
L 62.602621 172.063743 
L 62.810681 171.094664 
L 62.914711 171.109475 
L 63.122771 171.937566 
L 63.538891 175.313365 
L 64.163071 180.119757 
L 64.475161 181.352208 
L 64.787251 181.728298 
L 65.099341 181.615205 
L 65.515461 181.447003 
L 66.035611 181.384085 
L 66.243671 181.013803 
L 66.451732 180.173489 
L 66.763822 177.906231 
L 67.388002 172.695882 
L 67.596062 172.043683 
L 67.700092 172.01079 
L 67.908152 172.440971 
L 68.324272 174.384612 
L 68.948452 177.155293 
L 69.364572 178.205167 
L 69.676662 178.508694 
L 69.884722 178.464181 
L 70.092782 178.212146 
L 70.404872 177.404741 
L 70.925022 175.077595 
L 71.341142 173.721714 
L 71.549202 173.707183 
L 71.757262 174.094573 
L 73.005623 177.247815 
L 73.525773 178.102848 
L 74.045923 178.512498 
L 75.086223 179.100574 
L 75.294283 178.975154 
L 75.502343 178.437831 
L 75.814433 176.488461 
L 76.334583 172.434039 
L 76.438613 172.235352 
L 76.542643 172.413368 
L 76.750703 173.913481 
L 77.478913 181.312401 
L 77.582943 181.102085 
L 77.791003 179.287791 
L 78.207123 171.880156 
L 78.727273 163.033467 
L 79.039364 160.846731 
L 79.351454 160.285818 
L 79.663544 159.726789 
L 80.287724 158.082393 
L 80.495784 158.061484 
L 81.223994 158.502406 
L 81.432054 158.291242 
L 81.640114 157.786997 
L 81.952204 156.23708 
L 82.680414 151.496897 
L 82.784444 151.368438 
L 82.888474 151.470824 
L 83.096534 152.305363 
L 84.448924 160.239443 
L 84.761014 160.690319 
L 84.969074 160.717575 
L 85.177135 160.506544 
L 85.489225 159.719744 
L 85.905345 157.895495 
L 86.321465 155.126172 
L 86.737585 150.678654 
L 87.361765 143.42615 
L 87.569825 142.62921 
L 87.673855 142.694296 
L 87.881915 143.657219 
L 88.298035 147.538603 
L 88.922215 152.877785 
L 89.442365 155.229322 
L 90.066545 157.003642 
L 90.482665 157.611274 
L 90.690725 157.547463 
L 90.898785 157.081382 
L 91.210875 155.331912 
L 91.522966 152.019469 
L 92.563266 137.987528 
L 92.771326 137.748738 
L 93.083416 138.203115 
L 93.187446 138.077605 
L 93.395506 136.830894 
L 93.707596 132.574352 
L 94.123716 127.043755 
L 94.331776 126.406547 
L 94.435806 126.729858 
L 94.643866 128.402131 
L 95.996256 142.875069 
L 96.308346 143.57757 
L 97.036556 143.904541 
L 97.348646 144.104353 
L 97.556707 143.831807 
L 98.492977 141.553826 
L 98.701037 141.591536 
L 99.637307 142.163148 
L 100.053427 141.899203 
L 100.781637 141.46929 
L 101.613877 141.114414 
L 101.821937 141.334184 
L 102.134027 142.240809 
L 102.654177 144.201975 
L 102.758207 144.230677 
L 102.862237 144.007131 
L 103.070297 142.70867 
L 103.382387 138.854119 
L 103.902538 129.197824 
L 104.838808 109.451416 
L 105.046868 108.705855 
L 105.254928 109.296734 
L 105.879108 112.653415 
L 106.087168 114.866815 
L 106.399258 121.219472 
L 107.335528 144.531402 
L 107.647618 146.835119 
L 108.375828 149.382217 
L 108.479858 149.502001 
L 108.583888 149.362728 
L 108.791948 148.063095 
L 109.104038 143.451393 
L 110.352399 120.331924 
L 110.456429 119.954318 
L 110.560459 120.004659 
L 110.768519 121.29491 
L 111.184639 126.861911 
L 111.704789 133.552869 
L 112.224939 137.317511 
L 113.057179 142.878735 
L 113.681359 146.690552 
L 113.993449 147.397163 
L 114.097479 147.388955 
L 114.305539 147.023052 
L 115.033749 144.816715 
L 115.137779 144.950869 
L 115.345839 145.925993 
L 115.657929 149.068716 
L 116.49017 158.546269 
L 116.80226 159.866629 
L 117.42644 161.780262 
L 118.46674 166.063531 
L 118.77883 166.382825 
L 118.98689 166.30944 
L 120.33928 164.981432 
L 120.54734 164.1525 
L 120.85943 161.609432 
L 121.27555 155.494799 
L 122.00376 144.068112 
L 122.41988 140.592663 
L 122.731971 139.393571 
L 122.940031 139.318367 
L 123.252121 139.977223 
L 123.460181 140.187887 
L 123.564211 139.920501 
L 123.772271 138.073494 
L 124.084361 130.893887 
L 125.124661 96.657978 
L 125.228691 96.297264 
L 125.332721 96.729063 
L 125.540781 99.614008 
L 126.164961 115.210775 
L 126.581081 122.685283 
L 126.893171 124.719728 
L 126.997201 124.736942 
L 127.205261 123.865279 
L 127.517351 120.688645 
L 128.141531 113.881005 
L 128.349591 113.465161 
L 128.557651 114.006808 
L 128.869742 115.79993 
L 129.285862 119.743305 
L 130.014072 128.755149 
L 130.118102 129.146227 
L 130.222132 129.116092 
L 130.430192 127.773798 
L 130.846312 121.520859 
L 131.158402 117.451559 
L 131.262432 116.927781 
L 131.366462 116.956361 
L 131.574522 118.682012 
L 131.886612 124.451499 
L 132.718852 141.267431 
L 133.030942 144.46788 
L 133.239002 145.384984 
L 133.447062 145.513884 
L 133.759152 144.981735 
L 134.071242 144.513955 
L 134.799452 143.993477 
L 135.111543 143.138145 
L 135.423633 141.201332 
L 135.735723 137.338423 
L 136.567963 124.533835 
L 136.776023 124.117702 
L 136.984083 125.075879 
L 138.128413 133.464129 
L 138.544533 134.444126 
L 139.168713 135.296501 
L 139.688863 135.696788 
L 139.896923 135.671652 
L 140.104983 135.456791 
L 140.417073 134.653511 
L 140.729163 133.024101 
L 141.145283 129.151624 
L 141.665434 123.940459 
L 141.873494 123.203316 
L 141.977524 123.265133 
L 142.185584 124.160831 
L 143.329914 131.739521 
L 144.058124 133.601346 
L 144.162154 133.67513 
L 144.266184 133.589618 
L 144.474244 132.70389 
L 144.682304 130.52836 
L 145.098424 122.357271 
L 145.514544 114.199577 
L 145.722604 112.67146 
L 145.826634 112.755995 
L 146.034694 114.433911 
L 146.554844 122.848743 
L 146.970964 128.28769 
L 147.387084 130.898305 
L 147.699175 131.670469 
L 148.115295 132.096538 
L 149.363655 132.862909 
L 149.571715 132.689378 
L 149.779775 132.0892 
L 149.987835 130.791272 
L 150.299925 127.025487 
L 150.716045 118.645745 
L 151.444255 103.292947 
L 151.756345 100.968272 
L 151.860375 101.093521 
L 152.068435 102.668515 
L 152.380525 107.612947 
L 153.004705 117.891221 
L 153.212765 118.960377 
L 153.316795 118.974836 
L 153.524855 118.300115 
L 153.940976 116.660185 
L 154.045006 116.612044 
L 154.149036 116.779628 
L 154.357096 117.750422 
L 154.773216 121.508275 
L 155.397396 127.481522 
L 155.605456 128.424409 
L 155.709486 128.510054 
L 155.813516 128.292219 
L 156.021576 126.921938 
L 156.853816 118.834142 
L 156.957846 118.939099 
L 157.165906 120.139649 
L 157.790086 127.060312 
L 158.206206 130.522195 
L 158.622326 132.317825 
L 158.934416 132.854102 
L 159.142476 132.900714 
L 159.350536 132.737041 
L 160.598897 130.833002 
L 160.910987 129.958109 
L 161.327107 127.905284 
L 161.951287 124.751293 
L 162.159347 124.34387 
L 162.367407 124.366203 
L 162.679497 124.994788 
L 163.511737 127.023457 
L 164.031887 127.557484 
L 164.448007 127.709162 
L 164.760097 127.574497 
L 164.968157 127.232846 
L 165.176217 126.518105 
L 165.488307 124.255126 
L 165.800397 119.863597 
L 166.840698 100.359026 
L 166.944728 100.424293 
L 167.152788 102.339662 
L 167.568908 110.752765 
L 168.089058 120.822046 
L 168.505178 125.075871 
L 169.233388 129.506058 
L 169.961598 133.051593 
L 170.273688 133.671103 
L 170.377718 133.619186 
L 170.585778 132.998588 
L 170.897868 130.618283 
L 171.834138 121.483992 
L 171.938168 121.398547 
L 172.146228 121.744833 
L 172.458319 122.267844 
L 172.562349 122.08374 
L 172.770409 120.830589 
L 173.082499 116.911367 
L 173.602649 110.280992 
L 173.810709 109.531548 
L 173.914739 109.659216 
L 174.122799 110.703026 
L 174.746979 114.700815 
L 174.851009 114.692922 
L 175.059069 113.6497 
L 175.371159 109.784507 
L 175.891309 103.081475 
L 176.099369 102.634279 
L 176.307429 103.797393 
L 176.723549 109.023321 
L 177.347729 116.557532 
L 177.867879 120.142717 
L 178.388029 122.376155 
L 178.70012 123.111058 
L 178.90818 123.157969 
L 179.11624 122.642186 
L 179.3243 121.364323 
L 179.63639 117.770092 
L 180.15654 108.246343 
L 180.67669 99.142861 
L 180.88475 97.449562 
L 180.98878 97.250518 
L 181.09281 97.501643 
L 181.30087 99.228896 
L 182.75729 117.008427 
L 183.38147 121.206823 
L 183.69356 122.30082 
L 183.90162 122.545698 
L 184.10968 122.402833 
L 184.31774 121.849542 
L 184.62983 119.965904 
L 184.941921 116.139823 
L 185.878191 101.483367 
L 185.982221 101.38811 
L 186.190281 102.427687 
L 186.710431 108.40885 
L 187.126551 111.981295 
L 188.062821 116.989856 
L 188.791031 123.192803 
L 189.103121 124.277638 
L 189.311181 124.459056 
L 189.519241 124.337112 
L 189.831331 123.806477 
L 190.663571 121.768299 
L 191.703872 119.108376 
L 192.015962 118.853109 
L 192.536112 118.814339 
L 193.160292 118.784214 
L 193.576412 118.49423 
L 194.408652 117.705282 
L 194.824772 117.701316 
L 195.240892 117.700999 
L 195.552982 117.459357 
L 195.865072 116.875139 
L 196.177162 115.786648 
L 196.697312 112.826304 
L 197.113432 110.725298 
L 197.321492 110.257259 
L 197.529553 110.219281 
L 197.737613 110.508174 
L 198.673883 112.378014 
L 198.985973 112.446891 
L 199.506123 112.353196 
L 199.714183 112.568555 
L 200.338363 113.536172 
L 200.546423 113.22321 
L 200.858513 111.780315 
L 201.586723 107.571756 
L 201.898813 106.877047 
L 202.210903 106.71394 
L 202.731053 106.55249 
L 203.043143 106.158024 
L 204.603594 103.103535 
L 205.539864 100.190125 
L 205.747924 100.130556 
L 205.955984 100.396458 
L 206.268074 101.276707 
L 207.204344 104.239689 
L 207.516434 104.589027 
L 207.724494 104.463191 
L 207.932554 103.759763 
L 208.140614 102.032698 
L 208.452704 96.557616 
L 209.493004 72.725063 
L 209.597034 72.903939 
L 209.805094 74.861581 
L 210.949425 90.508586 
L 211.261515 91.657828 
L 211.469575 91.814589 
L 211.677635 91.638268 
L 212.197785 90.971398 
L 212.405845 91.059708 
L 212.717935 91.639335 
L 213.342115 92.915008 
L 214.174355 94.247622 
L 215.110625 95.930196 
L 215.422715 96.20285 
L 215.630775 96.143857 
L 215.838835 95.72495 
L 216.046895 94.790302 
L 216.358986 92.296559 
L 217.295256 83.451958 
L 217.607346 82.507325 
L 217.711376 82.482705 
L 217.919436 82.864878 
L 218.231526 84.465195 
L 219.479886 93.300667 
L 219.687946 93.544819 
L 219.896006 93.305949 
L 220.208096 92.265104 
L 220.728246 90.492277 
L 220.936306 90.382182 
L 221.144366 90.696794 
L 221.560486 92.088573 
L 222.184666 94.065542 
L 222.704817 94.963636 
L 223.016907 95.236143 
L 223.224967 95.239167 
L 223.433027 95.011338 
L 223.745117 94.128328 
L 224.785417 89.405794 
L 225.409597 86.224493 
L 225.929747 83.89582 
L 226.241837 83.424921 
L 226.449897 83.472098 
L 226.761987 83.854477 
L 227.698257 85.559415 
L 228.634528 87.641067 
L 228.842588 87.62595 
L 229.050648 87.384374 
L 229.362738 86.620095 
L 229.674828 85.00337 
L 229.986918 81.854568 
L 230.819158 71.833411 
L 230.923188 71.663656 
L 231.027218 71.844766 
L 231.235278 73.092173 
L 232.379608 82.585555 
L 232.483638 82.512941 
L 232.691698 81.413108 
L 233.003788 77.485786 
L 233.523938 70.190277 
L 233.731998 69.478607 
L 233.836028 69.793867 
L 234.044088 71.578646 
L 235.292449 86.729313 
L 235.812599 88.928716 
L 236.228719 91.27371 
L 236.540809 92.922281 
L 236.644839 93.084062 
L 236.748869 92.953313 
L 236.956929 91.798028 
L 237.789169 84.645413 
L 237.997229 84.236086 
L 238.205289 84.354953 
L 238.517379 85.139396 
L 239.349619 88.336766 
L 240.389919 91.937285 
L 241.63828 95.148244 
L 241.95037 95.547851 
L 242.15843 95.50585 
L 242.36649 95.041673 
L 242.67858 93.25227 
L 243.51082 86.617564 
L 243.61485 86.516155 
L 243.71888 86.670737 
L 243.92694 87.654153 
L 244.44709 92.147325 
L 245.07127 96.940821 
L 245.48739 98.688006 
L 245.79948 99.259555 
L 246.00754 99.363094 
L 246.2156 99.284718 
L 246.52769 98.865109 
L 247.567991 96.850419 
L 247.776051 96.826741 
L 248.088141 97.087918 
L 248.920381 98.048973 
L 249.128441 97.686271 
L 249.336501 96.557269 
L 249.648591 92.705243 
L 250.688891 75.33288 
L 250.792921 75.612579 
L 251.000981 77.455703 
L 252.249341 92.629813 
L 252.769491 95.443623 
L 253.289641 97.015259 
L 253.809792 97.901186 
L 254.329942 98.445887 
L 254.642032 98.577259 
L 254.850092 98.524368 
L 255.162182 98.129539 
L 255.578302 97.01675 
L 256.098452 95.683637 
L 256.410542 95.443109 
L 256.722632 95.550384 
L 257.554872 95.976205 
L 257.970992 96.239403 
L 258.387112 96.882212 
L 259.947563 99.934267 
L 261.820103 101.602478 
L 262.132193 101.655925 
L 262.340253 101.364944 
L 262.548313 100.573837 
L 262.860403 97.913906 
L 263.276523 91.045152 
L 264.004733 78.086131 
L 264.420853 75.079346 
L 264.836973 73.36804 
L 264.941003 73.328345 
L 265.045033 73.653161 
L 265.253093 75.791546 
L 265.565183 82.847217 
L 266.189364 97.953703 
L 266.501454 100.999011 
L 267.229664 104.752841 
L 267.437724 105.155446 
L 267.541754 105.085959 
L 267.749814 104.411386 
L 268.269964 101.972485 
L 268.373994 101.909977 
L 268.478024 102.109044 
L 268.686084 103.307483 
L 269.102204 108.150848 
L 269.622354 117.374363 
L 270.142504 131.995687 
L 270.870714 159.603389 
L 271.286834 186.282289 
L 272.223105 257.141302 
L 272.535195 266.564055 
L 272.847285 269.934964 
L 273.055345 270.299567 
L 273.159375 270.056443 
L 273.367435 268.559159 
L 273.575495 265.079378 
L 273.887585 253.798769 
L 274.199675 232.842437 
L 275.552065 124.316773 
L 275.864155 118.579029 
L 276.176245 116.989191 
L 276.696395 116.081351 
L 277.008485 114.6284 
L 277.528635 110.579197 
L 278.360875 104.495152 
L 279.297146 98.161374 
L 279.401176 98.204561 
L 279.609236 99.168871 
L 279.921326 102.406582 
L 280.857596 113.299744 
L 281.377746 116.536938 
L 281.897896 118.323864 
L 282.418046 119.311625 
L 283.250286 120.33085 
L 283.562376 120.500123 
L 283.770436 120.423303 
L 284.082526 119.964859 
L 284.706707 118.901083 
L 284.914767 118.894633 
L 285.330887 119.245951 
L 285.955067 119.667493 
L 287.515517 120.559164 
L 288.971937 120.769537 
L 289.284027 120.512172 
L 289.596117 119.977353 
L 290.116267 118.513001 
L 290.532387 117.487848 
L 290.740447 117.304598 
L 290.948508 117.384748 
L 291.260598 117.862422 
L 291.988808 119.127878 
L 292.925078 120.074589 
L 293.341198 120.278112 
L 293.549258 120.199083 
L 293.757318 119.909641 
L 293.965378 119.274979 
L 294.277468 117.245387 
L 294.693588 111.956152 
L 295.421798 102.092028 
L 295.629858 101.098414 
L 295.837918 100.899629 
L 296.254038 101.046261 
L 296.462098 100.542451 
L 296.774188 98.78617 
L 297.190309 96.308958 
L 297.398369 95.90314 
L 297.502399 95.986105 
L 297.710459 96.647804 
L 298.438669 100.002655 
L 298.542699 100.091259 
L 298.646729 100.001719 
L 298.854789 99.237276 
L 299.166879 96.464105 
L 299.478969 91.392004 
L 300.623299 67.659784 
L 300.831359 66.954445 
L 301.247479 66.412118 
L 301.559569 65.797188 
L 301.663599 65.814386 
L 301.871659 66.590103 
L 302.183749 69.785076 
L 302.807929 77.100451 
L 302.911959 77.423122 
L 303.015989 77.321676 
L 303.224049 75.771582 
L 303.53614 70.451887 
L 304.16032 58.902453 
L 304.36838 58.202025 
L 304.57644 59.468644 
L 305.09659 66.600056 
L 305.61674 72.375168 
L 306.24092 76.582808 
L 306.65704 78.135426 
L 306.8651 78.388123 
L 307.07316 78.243372 
L 307.38525 77.422235 
L 307.80137 76.26185 
L 308.00943 76.175421 
L 308.21749 76.540517 
L 308.9457 78.697412 
L 309.04973 78.573855 
L 309.25779 77.52912 
L 309.56988 73.587802 
L 310.506151 58.234158 
L 311.026301 54.512567 
L 311.338391 49.102205 
L 311.858541 40.144985 
L 311.962571 39.982146 
L 312.066601 40.623938 
L 312.274661 44.173622 
L 313.523021 73.917905 
L 313.939141 76.990186 
L 314.563321 80.016876 
L 314.771381 80.260828 
L 314.875411 80.024013 
L 315.083471 78.550228 
L 315.395561 73.468747 
L 316.123772 58.813419 
L 316.227802 58.323732 
L 316.331832 58.459535 
L 316.539892 60.41243 
L 317.060042 70.228345 
L 317.580192 78.519948 
L 318.100342 83.226015 
L 319.556762 92.51238 
L 319.660792 92.557509 
L 319.868852 92.057984 
L 320.284972 89.49866 
L 320.597062 87.840746 
L 320.805122 87.668062 
L 321.013182 88.484399 
L 321.325272 91.249764 
L 322.157513 99.318573 
L 322.573633 101.463337 
L 322.989753 102.600582 
L 323.301843 102.923444 
L 324.030053 103.439542 
L 324.446173 103.758205 
L 324.654233 103.614532 
L 324.862293 102.940177 
L 325.070353 101.439276 
L 325.486473 95.815985 
L 325.902593 90.387332 
L 326.006623 89.913383 
L 326.110653 89.995683 
L 326.318713 92.03513 
L 326.630803 99.65787 
L 327.463043 125.16678 
L 327.671103 127.15285 
L 327.775133 127.360906 
L 327.879163 127.182454 
L 328.503344 124.954098 
L 328.711404 125.685583 
L 329.647674 131.153207 
L 329.855734 130.44384 
L 330.792004 124.89514 
L 331.000064 125.220633 
L 331.624244 127.606354 
L 332.144394 129.078957 
L 333.496784 131.766046 
L 333.808874 132.006288 
L 334.120964 131.905604 
L 334.433054 131.735958 
L 334.641115 131.858658 
L 334.849175 132.412025 
L 335.057235 133.63603 
L 335.369325 137.301413 
L 336.201565 151.280635 
L 336.305595 150.955167 
L 336.513655 147.624542 
L 336.929775 133.238074 
L 337.553955 111.610013 
L 337.866045 105.98634 
L 338.074105 104.542809 
L 338.178135 104.444651 
L 338.386195 105.225185 
L 339.218435 110.701573 
L 339.322465 110.778127 
L 339.530525 110.441568 
L 339.842615 109.112587 
L 340.466795 106.326457 
L 340.674855 106.225257 
L 340.882916 106.787325 
L 341.195006 108.664451 
L 342.131276 115.052131 
L 342.651426 116.993572 
L 344.419936 121.686648 
L 344.523966 121.556416 
L 344.732026 120.335304 
L 344.940086 117.417192 
L 345.252176 109.634707 
L 346.084416 85.30969 
L 346.396506 81.853073 
L 346.604566 81.527079 
L 346.812626 82.265625 
L 347.436807 86.590435 
L 348.581137 93.83208 
L 348.997257 95.522982 
L 349.205317 95.856171 
L 349.413377 95.850165 
L 349.621437 95.522969 
L 349.933527 94.322563 
L 350.245617 91.919156 
L 351.389947 80.666175 
L 351.493977 80.710432 
L 351.702037 81.411991 
L 352.222187 84.875026 
L 352.638307 87.185191 
L 352.950397 88.007751 
L 353.366518 88.819305 
L 353.574578 89.953391 
L 353.886668 93.414763 
L 354.406818 100.309289 
L 354.510848 100.778396 
L 354.614878 100.702542 
L 354.822938 98.874751 
L 355.135028 92.919323 
L 356.175328 70.724464 
L 356.487418 68.196348 
L 356.591448 68.145338 
L 356.799508 69.037893 
L 357.423688 72.870491 
L 357.527718 72.856889 
L 357.735778 72.212777 
L 358.255928 70.039994 
L 358.463988 69.941314 
L 359.088168 70.435487 
L 359.504288 70.11304 
L 359.712349 70.553465 
L 360.024439 72.563761 
L 360.544589 78.134157 
L 361.376829 89.674291 
L 362.105039 98.450457 
L 362.833249 104.429536 
L 363.977579 111.810035 
L 364.185639 112.664618 
L 364.289669 112.777181 
L 364.393699 112.609814 
L 364.601759 111.36736 
L 365.538029 102.619666 
L 365.642059 102.523992 
L 365.85012 102.743199 
L 366.16221 103.127698 
L 366.26624 103.049151 
L 366.4743 102.408316 
L 366.78639 100.3409 
L 367.5146 95.075826 
L 367.72266 94.560081 
L 367.93072 94.58164 
L 368.34684 95.115609 
L 368.45087 95.022076 
L 368.65893 94.171995 
L 368.97102 90.857528 
L 369.49117 81.290942 
L 369.90729 74.645431 
L 370.11535 73.095602 
L 370.21938 72.835718 
L 370.32341 72.892485 
L 370.53147 73.793911 
L 370.94759 77.364086 
L 371.57177 82.445599 
L 372.195951 85.438127 
L 372.716101 87.003013 
L 373.132221 87.559888 
L 373.444311 87.625093 
L 373.652371 87.458066 
L 373.860431 87.001325 
L 374.172521 85.469305 
L 375.212821 78.472094 
L 375.316851 78.646916 
L 375.524911 79.636443 
L 376.045061 84.16621 
L 376.565211 88.254934 
L 376.981331 90.085091 
L 377.293421 90.688718 
L 377.501481 90.710571 
L 377.709541 90.378654 
L 378.021631 89.185733 
L 379.061932 84.158914 
L 379.165962 84.124091 
L 379.374022 84.412303 
L 380.310292 86.790491 
L 380.622382 86.698377 
L 380.934472 86.583361 
L 381.142532 86.687206 
L 381.558652 87.305185 
L 381.870742 87.619771 
L 382.078802 87.389625 
L 382.286862 86.577712 
L 382.598952 84.065917 
L 383.431192 75.563315 
L 383.639252 75.164061 
L 383.847312 75.687779 
L 384.159402 77.60412 
L 385.199703 84.804609 
L 385.407763 85.379313 
L 385.511793 85.348574 
L 385.719853 84.402091 
L 386.031943 80.43814 
L 387.176273 61.044443 
L 387.280303 60.984601 
L 387.384333 61.450408 
L 387.592393 63.983187 
L 388.008513 73.814038 
L 388.528663 84.913353 
L 388.736723 86.183855 
L 388.840753 85.999067 
L 389.048813 84.172983 
L 389.881053 72.645049 
L 389.985083 72.634124 
L 390.193143 74.073862 
L 390.609263 80.707699 
L 391.233444 90.14937 
L 391.753594 94.254645 
L 392.169714 96.252833 
L 392.377774 96.731566 
L 392.481804 96.780579 
L 392.689864 96.457292 
L 393.001954 95.096292 
L 393.522104 92.61641 
L 393.730164 92.224493 
L 393.938224 92.233264 
L 394.250314 92.715774 
L 394.874494 93.812869 
L 395.290614 94.1259 
L 395.706734 94.160389 
L 396.330914 93.937605 
L 396.851064 93.599773 
L 397.163155 93.197422 
L 397.475245 92.484549 
L 397.787335 91.281593 
L 398.099425 89.214887 
L 398.515545 84.291335 
L 399.243755 74.258548 
L 399.451815 73.393886 
L 399.555845 73.413276 
L 399.763905 74.151006 
L 400.700175 79.117746 
L 401.012265 79.5306 
L 401.220325 79.467839 
L 401.532415 78.996344 
L 402.156595 77.914723 
L 402.468685 77.80764 
L 402.884805 77.74383 
L 403.092865 77.511215 
L 403.404956 76.686602 
L 403.717046 74.975348 
L 404.029136 71.653277 
L 404.341226 65.772527 
L 405.173466 46.284091 
L 405.381526 45.516406 
L 405.589586 47.063646 
L 406.629886 60.484596 
L 406.837946 60.788373 
L 407.046006 60.289315 
L 407.358096 58.234098 
L 407.670186 54.424492 
L 408.398396 43.856046 
L 408.502426 43.748901 
L 408.606456 44.285435 
L 408.814516 47.202012 
L 409.750787 65.641079 
L 409.854817 65.949425 
L 409.958847 65.785022 
L 410.166907 64.184457 
L 410.583027 57.50937 
L 411.103177 49.473468 
L 411.311237 48.261025 
L 411.415267 48.13588 
L 411.623327 48.553785 
L 411.935417 49.464403 
L 412.039447 49.457448 
L 412.247507 48.550461 
L 412.559597 44.87434 
L 413.079747 38.349358 
L 413.183777 38.085455 
L 413.287807 38.32925 
L 413.495867 40.217038 
L 414.120047 50.683059 
L 414.744227 58.708646 
L 415.160347 61.590661 
L 415.264377 61.79085 
L 415.368407 61.731205 
L 415.576467 60.871585 
L 416.200648 56.916566 
L 416.304678 56.820944 
L 416.408708 56.957298 
L 416.720798 58.276262 
L 417.240948 60.418393 
L 417.553038 61.644652 
L 417.865128 64.025995 
L 418.697368 71.906969 
L 419.009458 72.91465 
L 419.217518 73.1366 
L 419.425578 73.08033 
L 419.633638 72.681352 
L 419.945728 71.366182 
L 420.881998 66.719229 
L 421.298118 65.109111 
L 421.610208 62.981285 
L 422.026329 58.105558 
L 422.546479 52.207561 
L 422.754539 51.595183 
L 422.858569 51.77184 
L 423.066629 52.928251 
L 424.419019 64.979702 
L 424.835139 71.030375 
L 425.251259 76.305455 
L 425.355289 76.44666 
L 425.459319 75.855833 
L 425.667379 72.415906 
L 426.395589 54.524071 
L 426.499619 54.065641 
L 426.603649 54.401697 
L 426.811709 57.07656 
L 427.956039 78.503392 
L 428.26813 79.901607 
L 428.37216 79.844614 
L 428.58022 78.888056 
L 428.89231 75.187672 
L 429.72455 62.057488 
L 429.82858 61.962135 
L 429.93261 62.405146 
L 430.14067 64.673563 
L 431.285 81.075496 
L 431.285 81.075496 
" clip-path="url(#p67f4fddeed)" style="fill: none; stroke-dasharray: 1.85,0.8; stroke-dashoffset: 0; stroke: #1f77b4; stroke-width: 0.5"/>
   </g>
   <g id="line2d_28">
    <path d="M 56.985 196.884968 
L 57.60918 199.306815 
L 58.12933 200.567648 
L 58.54545 201.127207 
L 58.96157 201.323479 
L 59.27366 201.252221 
L 59.68978 200.892524 
L 60.209931 200.064137 
L 60.834111 198.600035 
L 61.666351 196.035261 
L 63.226801 190.279347 
L 64.579191 185.56035 
L 65.411431 183.366447 
L 66.139641 182.086563 
L 66.867852 181.281248 
L 67.700092 180.73275 
L 69.676662 179.638446 
L 71.965322 177.770276 
L 72.485472 177.75034 
L 72.901593 177.959248 
L 73.317713 178.411623 
L 73.837863 179.378574 
L 74.566073 181.367976 
L 76.126523 185.843483 
L 76.646673 186.692692 
L 76.958763 186.903441 
L 77.270853 186.838258 
L 77.582943 186.454723 
L 77.895033 185.710414 
L 78.415183 183.679905 
L 79.143394 179.597225 
L 81.848174 162.938765 
L 82.368324 161.448922 
L 82.784444 160.867364 
L 83.096534 160.728833 
L 83.408624 160.803718 
L 83.824744 161.170678 
L 84.448924 162.112799 
L 86.009375 164.700014 
L 86.425495 165.012913 
L 86.841615 165.079895 
L 87.257735 164.927164 
L 87.777885 164.467194 
L 88.402065 163.588164 
L 89.234305 162.006305 
L 90.898785 158.211818 
L 93.499536 152.426088 
L 94.955956 149.677744 
L 96.516406 147.221265 
L 99.325217 143.328665 
L 100.157457 142.445624 
L 100.677607 142.15578 
L 101.093727 142.130661 
L 101.509847 142.331207 
L 101.925967 142.79608 
L 102.446117 143.807778 
L 102.966267 145.366126 
L 103.694477 148.346039 
L 105.671048 156.934474 
L 106.191198 158.279019 
L 106.607318 158.798975 
L 106.815378 158.836929 
L 107.023438 158.709024 
L 107.335528 158.213721 
L 107.751648 157.071237 
L 108.375828 154.585572 
L 110.872549 143.573833 
L 111.288669 142.843955 
L 111.600759 142.668653 
L 111.912849 142.786299 
L 112.224939 143.171792 
L 112.641059 144.059051 
L 113.265239 146.068948 
L 114.097479 149.703934 
L 115.657929 157.911575 
L 116.90629 164.033817 
L 117.6345 166.728375 
L 118.15465 168.036567 
L 118.57077 168.624838 
L 118.88286 168.760041 
L 119.19495 168.605337 
L 119.50704 168.135867 
L 119.92316 167.021466 
L 120.44331 164.954597 
L 121.17152 161.091451 
L 122.41988 153.01137 
L 123.876301 143.831087 
L 124.812571 139.363378 
L 125.540781 136.930447 
L 126.060931 135.823631 
L 126.477051 135.350056 
L 126.789141 135.249698 
L 127.101231 135.378159 
L 127.413321 135.744801 
L 127.829441 136.620338 
L 128.349591 138.300627 
L 129.181832 141.90501 
L 131.054372 150.360743 
L 131.678552 152.086487 
L 132.094672 152.644607 
L 132.406762 152.728564 
L 132.718852 152.557375 
L 133.134972 151.984191 
L 133.655122 150.813563 
L 134.383332 148.57635 
L 136.776023 140.717833 
L 137.608263 138.934366 
L 138.440503 137.625222 
L 139.376773 136.583008 
L 140.417073 135.77703 
L 141.561404 135.166646 
L 142.497674 134.908673 
L 143.329914 134.893681 
L 144.162154 135.10721 
L 144.994394 135.55737 
L 146.554844 136.451466 
L 147.179024 136.551651 
L 147.699175 136.414717 
L 148.219325 136.016954 
L 148.739475 135.303023 
L 149.467685 133.818018 
L 151.860375 128.396841 
L 152.380525 127.819965 
L 152.796645 127.680466 
L 153.212765 127.85331 
L 153.628885 128.29138 
L 154.253066 129.327713 
L 155.293366 131.616414 
L 156.541726 134.250269 
L 157.165906 135.100421 
L 157.686056 135.474329 
L 158.206206 135.573019 
L 158.726356 135.426685 
L 159.350536 134.970166 
L 160.078747 134.116181 
L 161.015017 132.637182 
L 163.095617 129.134255 
L 163.719797 128.54616 
L 164.135917 128.392916 
L 164.552037 128.475587 
L 164.968157 128.832622 
L 165.384277 129.500511 
L 166.008457 131.013096 
L 168.401148 137.529058 
L 168.817268 137.970042 
L 169.129358 138.023275 
L 169.441448 137.797816 
L 169.857568 137.056641 
L 170.377718 135.547706 
L 171.105928 132.675539 
L 173.290559 123.471385 
L 173.810709 122.186767 
L 174.330859 121.461863 
L 174.746979 121.221122 
L 175.163099 121.227872 
L 175.683249 121.508403 
L 176.411459 122.234584 
L 178.075939 124.027122 
L 178.80415 124.434473 
L 179.63639 124.638902 
L 180.67669 124.634373 
L 183.69356 124.442825 
L 184.73386 124.668086 
L 185.670131 125.102225 
L 186.606401 125.793457 
L 188.166851 126.975758 
L 188.791031 127.190801 
L 189.311181 127.155435 
L 189.831331 126.86794 
L 190.351481 126.275942 
L 190.975661 125.178754 
L 192.015962 122.789245 
L 193.576412 119.239438 
L 194.200592 118.284347 
L 194.720742 117.843332 
L 195.240892 117.690994 
L 195.865072 117.766324 
L 197.737613 118.223639 
L 198.257763 118.024053 
L 198.777913 117.524741 
L 199.402093 116.545888 
L 200.338363 114.573512 
L 202.314933 110.270326 
L 203.043143 109.276455 
L 203.771354 108.70998 
L 204.707624 108.326664 
L 205.851954 107.865719 
L 206.476134 107.385836 
L 207.100314 106.603788 
L 207.932554 105.096556 
L 209.388974 101.829116 
L 210.637335 99.204838 
L 211.469575 97.950017 
L 212.197785 97.236971 
L 212.925995 96.810653 
L 213.758235 96.583034 
L 214.902565 96.533877 
L 220.208096 96.546543 
L 221.768546 96.324356 
L 222.912877 95.945359 
L 223.953177 95.374047 
L 224.993477 94.542605 
L 226.033777 93.420266 
L 227.074077 91.97675 
L 228.218407 90.000877 
L 229.778858 87.343519 
L 230.507068 86.548692 
L 231.027218 86.293597 
L 231.443338 86.326581 
L 231.859458 86.60602 
L 232.379608 87.304273 
L 233.107818 88.755053 
L 235.500509 93.978429 
L 236.020659 94.510495 
L 236.436779 94.651284 
L 236.852899 94.585415 
L 237.477079 94.217508 
L 239.349619 92.880969 
L 239.765739 92.883791 
L 240.181859 93.112898 
L 240.702009 93.742555 
L 241.43022 95.102307 
L 244.135 100.723206 
L 244.65515 101.141262 
L 245.1753 101.237763 
L 245.69545 101.081985 
L 246.42366 100.571971 
L 248.608291 98.78992 
L 249.232471 98.65059 
L 250.064711 98.72159 
L 252.873521 99.264357 
L 253.913822 99.000125 
L 255.266212 98.661311 
L 255.994422 98.706045 
L 256.618602 98.97959 
L 257.242782 99.525942 
L 258.283082 100.825069 
L 259.531442 102.338248 
L 260.155623 102.795123 
L 260.675773 102.905677 
L 261.091893 102.768893 
L 261.716073 102.247865 
L 263.068463 100.977534 
L 263.484583 100.869804 
L 263.796673 100.962939 
L 264.108763 101.242227 
L 264.524883 101.961842 
L 264.941003 103.150782 
L 265.461153 105.427438 
L 265.981304 108.81564 
L 266.501454 113.595111 
L 267.125634 121.560797 
L 267.749814 132.416068 
L 268.478024 149.377517 
L 269.206234 171.697471 
L 270.246534 212.079242 
L 271.598924 263.814343 
L 272.223105 280.884362 
L 272.639225 288.062 
L 272.951315 290.700786 
L 273.159375 290.975672 
L 273.367435 289.952715 
L 273.679525 285.883563 
L 274.095645 276.265991 
L 274.719825 254.755478 
L 275.656095 212.794412 
L 277.112515 147.128345 
L 277.736695 127.288857 
L 278.256845 116.738679 
L 278.672966 111.687171 
L 279.089086 109.149994 
L 279.297146 108.680687 
L 279.505206 108.667653 
L 279.713266 109.053454 
L 280.025356 110.254328 
L 280.545506 113.436272 
L 282.001926 123.228514 
L 282.522076 124.989327 
L 282.938196 125.69833 
L 283.250286 125.888756 
L 283.562376 125.834331 
L 283.978496 125.455109 
L 284.498646 124.631387 
L 286.267157 121.482406 
L 286.891337 120.976402 
L 287.515517 120.787713 
L 288.139697 120.835498 
L 289.075967 121.173732 
L 290.636417 121.781541 
L 291.468658 121.836871 
L 292.092838 121.678276 
L 292.717018 121.30586 
L 293.341198 120.681541 
L 293.965378 119.767237 
L 294.693588 118.289208 
L 295.525828 116.071618 
L 296.566128 112.598326 
L 297.814489 107.563411 
L 299.478969 99.789287 
L 301.559569 90.247567 
L 302.599869 86.486356 
L 303.43211 84.258558 
L 304.26435 82.65472 
L 305.09659 81.560005 
L 305.92883 80.859581 
L 306.8651 80.40018 
L 307.80137 80.187308 
L 308.63361 80.213053 
L 309.46585 80.459355 
L 310.298091 80.943722 
L 311.130331 81.683038 
L 312.170631 82.937907 
L 313.627051 85.101246 
L 320.284972 95.859802 
L 321.013182 97.700342 
L 321.741392 100.242064 
L 322.469603 103.740164 
L 323.197813 108.449844 
L 324.030053 115.471073 
L 326.318713 135.92909 
L 326.942893 139.451578 
L 327.359013 140.812877 
L 327.671103 141.215394 
L 327.879163 141.199765 
L 328.191253 140.819545 
L 328.607374 139.791891 
L 329.335584 137.18309 
L 330.271854 133.973778 
L 330.687974 133.199325 
L 330.896034 133.066316 
L 331.104094 133.139683 
L 331.312154 133.4471 
L 331.624244 134.407605 
L 332.040364 136.684739 
L 332.664544 141.72495 
L 334.849175 161.12135 
L 335.265295 162.727667 
L 335.473355 163.02962 
L 335.681415 162.947932 
L 335.889475 162.445475 
L 336.201565 160.917575 
L 336.617685 157.643236 
L 337.241865 150.724699 
L 338.594255 132.16266 
L 339.530525 121.026003 
L 340.050675 117.005359 
L 340.466795 115.266727 
L 340.778885 114.713211 
L 340.986946 114.647419 
L 341.195006 114.790513 
L 341.507096 115.333648 
L 342.027246 116.874219 
L 343.587696 122.110063 
L 343.899786 122.5206 
L 344.107846 122.556078 
L 344.315906 122.373244 
L 344.627996 121.719407 
L 345.044116 120.237229 
L 345.668296 117.009807 
L 346.812626 109.49295 
L 347.852927 103.071408 
L 348.477107 100.413059 
L 348.997257 99.148594 
L 349.413377 98.680288 
L 349.725467 98.60034 
L 350.037557 98.720329 
L 350.453677 99.140635 
L 351.077857 100.187705 
L 353.678608 105.248863 
L 354.302788 105.820412 
L 354.822938 105.990646 
L 355.239058 105.900517 
L 355.655178 105.5892 
L 356.175328 104.860857 
L 356.695478 103.721941 
L 357.423688 101.519432 
L 359.088168 96.291597 
L 359.608319 95.33884 
L 359.920409 95.067056 
L 360.232499 95.069754 
L 360.544589 95.387496 
L 360.856679 96.060848 
L 361.272799 97.504486 
L 361.896979 100.542575 
L 364.185639 112.855524 
L 364.601759 113.977856 
L 364.913849 114.353642 
L 365.121909 114.35101 
L 365.329969 114.15455 
L 365.642059 113.529853 
L 366.05818 112.161126 
L 366.68236 109.20818 
L 367.72266 102.905584 
L 369.07505 94.891505 
L 369.80326 91.864338 
L 370.42744 90.090436 
L 371.05162 88.969172 
L 371.57177 88.461538 
L 372.091921 88.280436 
L 372.612071 88.368282 
L 373.236251 88.747627 
L 374.068491 89.561903 
L 376.565211 92.258973 
L 377.189391 92.56291 
L 377.709541 92.584739 
L 378.229691 92.394678 
L 378.853872 91.938344 
L 379.686112 91.04799 
L 382.911042 87.246225 
L 383.535222 86.933291 
L 384.055372 86.887745 
L 384.575523 87.075929 
L 385.095673 87.533531 
L 385.615823 88.296236 
L 386.240003 89.643419 
L 387.176273 92.29304 
L 389.152843 98.053153 
L 389.777023 99.267291 
L 390.297173 99.858978 
L 390.713293 100.062973 
L 391.129414 100.061406 
L 391.649564 99.817997 
L 392.273744 99.252368 
L 393.210014 98.064207 
L 394.978524 95.778527 
L 397.683305 92.528556 
L 398.723605 90.809064 
L 399.763905 88.63698 
L 400.908235 85.709328 
L 402.156595 81.857502 
L 405.173466 72.017875 
L 405.797646 70.93753 
L 406.213766 70.587528 
L 406.525856 70.552343 
L 406.837946 70.725497 
L 407.254066 71.231062 
L 407.878246 72.404797 
L 409.750787 76.230266 
L 410.166907 76.595094 
L 410.478997 76.636308 
L 410.791087 76.438337 
L 411.207207 75.798088 
L 411.727357 74.52772 
L 412.663627 71.516699 
L 413.807957 68.006944 
L 414.328107 66.995424 
L 414.744227 66.636802 
L 415.056317 66.693211 
L 415.368407 67.020201 
L 415.784528 67.799663 
L 416.408708 69.489183 
L 418.281248 74.959219 
L 418.697368 75.575201 
L 419.009458 75.748929 
L 419.321548 75.639957 
L 419.737668 75.120581 
L 420.257818 74.039287 
L 422.130359 69.672398 
L 422.546479 69.34532 
L 422.858569 69.417962 
L 423.170659 69.819508 
L 423.586779 70.916167 
L 424.106929 73.048254 
L 424.939169 77.651273 
L 426.915739 89.19062 
L 427.539919 91.425776 
L 427.956039 92.26721 
L 428.37216 92.654462 
L 428.68425 92.688508 
L 429.10037 92.447594 
L 429.62052 91.783708 
L 430.34873 90.419548 
L 431.285 88.465797 
L 431.285 88.465797 
" clip-path="url(#p67f4fddeed)" style="fill: none; stroke: #ff7f0e; stroke-width: 0.5; stroke-linecap: square"/>
   </g>
   <g id="line2d_29">
    <path d="M 56.985 271.939477 
L 57.08903 271.939477 
L 57.71321 270.213945 
L 58.0253 269.891556 
L 58.33739 269.800796 
L 58.75351 269.947443 
L 60.00187 271.378111 
L 60.626051 271.662457 
L 60.730081 271.565519 
L 61.042171 270.491963 
L 61.354261 268.158772 
L 61.770381 262.632754 
L 62.498591 252.004871 
L 62.706651 251.117447 
L 62.810681 251.193943 
L 63.018741 252.288741 
L 63.330831 255.564839 
L 64.059041 264.153004 
L 64.579191 267.689912 
L 64.995311 269.237624 
L 65.827551 270.791413 
L 66.139641 271.109748 
L 66.243671 271.0321 
L 66.451732 270.441262 
L 66.763822 268.490479 
L 67.388002 263.749243 
L 67.596062 263.216094 
L 67.700092 263.234805 
L 67.908152 263.718777 
L 69.260542 269.84637 
L 69.780692 270.811301 
L 69.988752 270.980682 
L 70.196812 270.802581 
L 70.508902 270.127192 
L 71.341142 267.508618 
L 71.445172 267.564603 
L 71.757262 268.324632 
L 72.485472 270.234956 
L 73.005623 271.010298 
L 73.421743 271.352789 
L 73.629803 271.230269 
L 74.045923 270.582904 
L 74.878163 268.662992 
L 75.294283 267.306625 
L 75.606373 265.369099 
L 76.438613 257.678161 
L 76.646673 258.860701 
L 77.582943 266.530321 
L 77.686973 266.167858 
L 77.999063 262.559444 
L 78.727273 252.916454 
L 78.935334 252.394463 
L 79.143394 252.926378 
L 80.599814 260.390023 
L 81.328024 265.06767 
L 81.640114 265.950167 
L 81.744144 265.995577 
L 81.952204 265.629227 
L 82.264294 264.170415 
L 82.680414 262.342069 
L 82.784444 262.338013 
L 82.992504 263.21694 
L 83.928774 268.521237 
L 84.448924 270.050966 
L 84.656984 270.061869 
L 84.865044 269.819964 
L 85.177135 269.016427 
L 85.593255 267.146308 
L 86.217435 263.014282 
L 86.633555 258.846458 
L 87.361765 250.526548 
L 87.569825 249.903113 
L 87.673855 250.071644 
L 87.881915 251.272145 
L 88.402065 256.974026 
L 89.026245 262.955732 
L 89.962515 268.436068 
L 90.482665 270.035601 
L 90.898785 270.761955 
L 91.002815 270.675388 
L 91.210875 269.799284 
L 91.522966 267.213473 
L 92.563266 255.526264 
L 92.667296 255.508894 
L 92.875356 256.12961 
L 93.187446 256.960737 
L 93.291476 256.738842 
L 93.499536 255.201926 
L 94.227746 247.469126 
L 94.331776 247.568173 
L 94.539836 248.902252 
L 94.851926 253.112743 
L 95.580136 263.118738 
L 96.100286 267.135578 
L 96.412376 268.206915 
L 96.828496 268.88659 
L 97.348646 270.027973 
L 97.556707 270.043393 
L 97.868797 269.507303 
L 98.284917 268.897605 
L 98.492977 269.094019 
L 99.741337 271.139781 
L 100.053427 271.330093 
L 100.885667 271.256171 
L 101.197757 271.012438 
L 101.509847 270.710305 
L 101.821937 270.873826 
L 102.654177 271.480889 
L 102.758207 271.449193 
L 102.966267 270.083475 
L 103.278357 265.751484 
L 103.798508 254.56025 
L 104.942838 226.688926 
L 105.150898 225.832751 
L 105.254928 225.822623 
L 105.671048 226.42582 
L 105.879108 227.048046 
L 106.191198 229.940574 
L 106.503288 237.855718 
L 107.127468 254.038445 
L 107.543588 260.576823 
L 108.583888 267.658039 
L 108.687918 267.766958 
L 108.895978 266.73199 
L 109.208068 262.826234 
L 110.248369 247.46847 
L 110.456429 247.078689 
L 110.664489 248.242919 
L 110.976579 252.508354 
L 111.704789 262.800258 
L 112.120909 265.560793 
L 113.057179 269.470872 
L 113.577329 270.598987 
L 113.785389 270.761649 
L 113.993449 270.148871 
L 114.305539 268.249441 
L 115.137779 261.747564 
L 115.241809 261.4663 
L 115.345839 261.598508 
L 115.657929 263.394982 
L 116.38614 267.910484 
L 116.5942 268.451166 
L 116.80226 268.239652 
L 117.21838 267.651047 
L 117.42644 267.687897 
L 117.73853 268.191396 
L 118.36271 269.396844 
L 118.6748 269.587034 
L 118.88286 269.586675 
L 119.09092 269.368172 
L 119.29898 269.500143 
L 120.65137 271.324125 
L 120.7554 271.195854 
L 120.96346 270.016133 
L 121.37958 265.778651 
L 121.89973 260.770921 
L 122.21182 259.60162 
L 122.41988 259.538006 
L 122.627941 259.968818 
L 122.836001 261.038293 
L 123.564211 266.269211 
L 123.668241 266.197947 
L 123.876301 264.433247 
L 124.188391 257.075962 
L 125.020631 231.235607 
L 125.228691 230.392672 
L 125.332721 230.967405 
L 125.540781 234.737506 
L 126.477051 257.368506 
L 126.789141 261.114245 
L 126.997201 261.388854 
L 127.205261 260.351738 
L 127.517351 256.724519 
L 128.141531 248.279428 
L 128.453621 246.898762 
L 128.661681 246.915304 
L 128.869742 247.297269 
L 129.077802 248.029043 
L 129.389892 250.157205 
L 129.910042 254.502876 
L 130.014072 254.775943 
L 130.118102 254.673463 
L 130.326162 253.215669 
L 130.638252 248.187748 
L 131.158402 238.701412 
L 131.366462 237.5709 
L 131.470492 237.914779 
L 131.678552 239.958629 
L 133.030942 263.814399 
L 133.343032 265.941796 
L 133.655122 266.339872 
L 133.967212 266.661546 
L 134.383332 267.749289 
L 134.903482 269.000299 
L 135.111543 269.108843 
L 135.319603 268.745568 
L 135.527663 267.618311 
L 135.839753 264.129817 
L 136.463933 255.763459 
L 136.671993 255.083551 
L 136.776023 255.269176 
L 136.984083 256.894419 
L 137.920353 266.083735 
L 138.336473 268.213733 
L 138.856623 269.850963 
L 139.376773 270.806689 
L 139.896923 271.330987 
L 140.104983 271.417638 
L 140.313043 271.106226 
L 140.625133 269.994177 
L 140.937223 267.817141 
L 141.873494 259.990007 
L 141.977524 260.126701 
L 142.289614 262.162295 
L 143.017824 267.324761 
L 143.537974 269.390409 
L 144.058124 270.492297 
L 144.162154 270.525804 
L 144.266184 270.397011 
L 144.474244 269.410957 
L 144.682304 267.120188 
L 145.098424 258.689016 
L 145.514544 250.251802 
L 145.722604 248.553596 
L 145.826634 248.445609 
L 146.034694 250.313967 
L 147.074994 264.320899 
L 147.387084 266.334797 
L 147.803205 267.416727 
L 148.531415 268.750451 
L 149.259625 270.435418 
L 149.675745 271.012223 
L 149.779775 270.976579 
L 149.987835 270.195261 
L 150.195895 268.474874 
L 150.507985 263.944422 
L 151.548285 245.126583 
L 151.756345 244.389858 
L 151.860375 244.514018 
L 152.068435 246.547112 
L 153.108735 262.757264 
L 153.212765 263.088935 
L 153.316795 262.975574 
L 153.524855 262.090497 
L 154.045006 259.619803 
L 154.149036 259.622968 
L 154.357096 260.107862 
L 154.669186 262.313249 
L 155.397396 267.441125 
L 155.605456 268.063055 
L 155.709486 267.886985 
L 155.917546 266.682186 
L 156.229636 262.832621 
L 156.749786 256.487011 
L 156.957846 255.914255 
L 157.061876 256.271368 
L 157.373966 259.174514 
L 158.102176 265.969726 
L 158.622326 268.689072 
L 158.934416 269.506083 
L 159.246506 269.73356 
L 159.558596 269.622635 
L 160.078747 269.390865 
L 160.702927 269.393175 
L 160.910987 269.097964 
L 161.223077 268.185571 
L 161.951287 265.779381 
L 162.159347 265.672431 
L 162.367407 266.124483 
L 163.511737 270.109191 
L 164.031887 270.949716 
L 164.343977 271.241095 
L 164.552037 271.178751 
L 164.760097 270.915342 
L 164.968157 270.358604 
L 165.280247 268.608528 
L 165.592337 265.069653 
L 166.008457 256.568236 
L 166.736668 239.672114 
L 166.944728 238.526559 
L 167.048758 238.883091 
L 167.256818 241.191521 
L 168.401148 258.681212 
L 169.857568 267.57227 
L 170.377718 269.553034 
L 170.585778 270.056856 
L 170.689808 270.002274 
L 171.001898 268.310783 
L 171.626078 263.931862 
L 171.730108 263.939878 
L 171.938168 264.683232 
L 172.666379 267.890576 
L 172.874439 266.813247 
L 173.810709 259.290423 
L 174.018769 260.2165 
L 174.746979 265.43348 
L 174.851009 265.452274 
L 175.059069 264.403436 
L 175.371159 260.434756 
L 175.891309 253.351107 
L 176.099369 252.72212 
L 176.203399 252.945314 
L 176.411459 254.573122 
L 177.451759 265.86119 
L 177.971909 268.645666 
L 178.492059 270.170765 
L 178.80415 270.694325 
L 178.90818 270.654314 
L 179.11624 270.061645 
L 179.3243 268.733103 
L 179.63639 265.089377 
L 180.15654 255.541156 
L 180.67669 246.466687 
L 180.88475 244.794865 
L 180.98878 244.608145 
L 181.09281 244.871997 
L 181.30087 246.626456 
L 182.86132 265.57503 
L 183.38147 268.458633 
L 183.79759 269.816912 
L 184.00565 270.007672 
L 184.21371 269.614941 
L 184.42177 268.77117 
L 184.73386 266.23049 
L 185.045951 261.543318 
L 185.774161 248.832917 
L 185.982221 248.041017 
L 186.086251 248.301543 
L 186.294311 249.837052 
L 187.126551 257.707965 
L 187.542671 259.063981 
L 187.750731 259.845069 
L 189.103121 268.88657 
L 189.311181 269.271921 
L 189.623271 269.135852 
L 191.391782 267.376669 
L 191.599842 267.429295 
L 191.911932 267.8259 
L 192.328052 268.75407 
L 193.056262 270.45225 
L 193.576412 271.12988 
L 194.200592 271.555109 
L 195.032832 271.797985 
L 195.448952 271.826738 
L 195.657012 271.546665 
L 195.969102 270.738622 
L 196.385222 268.745125 
L 197.217462 264.187108 
L 197.425523 263.914126 
L 197.633583 264.055335 
L 197.945673 264.761693 
L 198.777913 266.870509 
L 199.090003 267.179286 
L 199.298063 267.579748 
L 200.338363 270.411493 
L 200.650453 270.866441 
L 200.754483 270.772862 
L 201.586723 267.833413 
L 201.794783 267.731047 
L 202.002843 267.904093 
L 202.835083 268.901617 
L 203.043143 268.839746 
L 203.355233 268.482244 
L 204.083444 267.581212 
L 204.395534 267.180342 
L 204.707624 266.390973 
L 205.435834 264.226744 
L 205.643894 264.095009 
L 205.851954 264.332539 
L 206.060014 264.781645 
L 207.516434 270.320577 
L 207.828524 270.802122 
L 207.932554 270.651316 
L 208.140614 269.330212 
L 208.452704 264.539511 
L 209.388974 243.318997 
L 209.493004 243.093255 
L 209.597034 243.432427 
L 209.805094 245.973897 
L 210.741365 261.736256 
L 211.053455 264.475862 
L 211.365545 265.662998 
L 211.573605 265.887241 
L 211.781665 265.832892 
L 212.093755 265.670543 
L 212.301815 265.777135 
L 212.613905 266.400535 
L 213.342115 268.203368 
L 214.382415 270.190632 
L 214.902565 270.970457 
L 215.526745 271.476778 
L 215.630775 271.515658 
L 215.734805 271.410621 
L 215.942865 270.726711 
L 216.254956 268.654917 
L 217.503316 258.04283 
L 217.711376 257.846925 
L 217.919436 258.242799 
L 218.127496 259.076646 
L 218.543616 262.537857 
L 219.167796 267.137227 
L 219.583916 268.874244 
L 219.791976 268.86876 
L 220.000036 268.427785 
L 220.832276 265.850602 
L 221.040336 265.964928 
L 221.248396 266.500668 
L 222.288696 270.045178 
L 222.808847 270.913234 
L 223.328997 271.358708 
L 223.537057 271.113365 
L 223.849147 270.216942 
L 225.929747 262.307837 
L 226.137807 262.167701 
L 226.345867 262.355732 
L 226.657957 263.065353 
L 227.490197 265.733804 
L 228.322437 269.248278 
L 228.842588 270.472923 
L 229.154678 270.847695 
L 229.362738 270.609058 
L 229.570798 269.995758 
L 229.778858 268.759691 
L 230.090948 265.455108 
L 230.715128 257.908723 
L 230.923188 257.261132 
L 231.027218 257.417588 
L 231.235278 258.8658 
L 232.171548 266.856837 
L 232.379608 267.233622 
L 232.483638 266.986584 
L 232.691698 265.497773 
L 233.003788 260.921581 
L 233.523938 252.416217 
L 233.731998 251.198188 
L 233.836028 251.258542 
L 234.044088 252.534573 
L 234.564238 258.876598 
L 235.084389 263.912275 
L 235.396479 265.297468 
L 235.604539 265.939101 
L 236.540809 269.601615 
L 236.748869 270.103628 
L 236.852899 269.953251 
L 237.269019 266.228504 
L 237.685139 263.011345 
L 237.893199 262.450418 
L 237.997229 262.412501 
L 238.205289 262.713992 
L 238.621409 264.195814 
L 239.973799 269.643664 
L 240.493949 270.691908 
L 241.014099 271.268953 
L 241.53425 271.565834 
L 241.74231 271.485279 
L 241.95037 271.225855 
L 242.15843 270.690625 
L 242.47052 269.04072 
L 242.88664 264.85242 
L 243.40679 259.354967 
L 243.61485 258.511864 
L 243.71888 258.492171 
L 243.92694 259.10484 
L 244.23903 261.403258 
L 244.96724 266.990015 
L 245.48739 269.242915 
L 245.90351 270.295609 
L 246.11157 270.481612 
L 246.42366 270.427053 
L 246.73575 270.089105 
L 247.359931 269.318811 
L 247.567991 269.262483 
L 247.880081 269.696936 
L 248.608291 270.873693 
L 249.024411 271.215697 
L 249.232471 270.543842 
L 249.440531 268.901059 
L 249.752621 264.081034 
L 250.584861 248.674494 
L 250.688891 248.405341 
L 250.792921 248.651568 
L 251.000981 250.430234 
L 252.249341 265.312015 
L 252.769491 268.140087 
L 253.289641 269.862764 
L 253.809792 270.821426 
L 254.329942 271.340287 
L 254.954122 271.651861 
L 255.058152 271.595741 
L 255.474272 270.642139 
L 256.202482 268.740536 
L 256.514572 268.495026 
L 257.346812 268.2217 
L 258.075022 267.770812 
L 258.387112 267.876062 
L 258.907262 268.409952 
L 259.531442 269.014941 
L 260.259653 269.332997 
L 260.675773 269.590653 
L 261.820103 271.204393 
L 262.340253 271.542033 
L 262.444283 271.506397 
L 262.652343 270.585845 
L 262.964433 267.464302 
L 263.380553 259.989055 
L 264.004733 248.917653 
L 264.420853 245.294386 
L 264.941003 242.165316 
L 265.045033 242.026343 
L 265.149063 242.275303 
L 265.357123 244.994608 
L 266.189364 259.411254 
L 266.397424 259.682935 
L 266.605484 258.836136 
L 267.021604 255.745989 
L 267.333694 252.163024 
L 267.749814 243.954571 
L 269.102204 211.958591 
L 269.934444 198.0715 
L 270.350564 194.679906 
L 270.662654 193.347941 
L 270.766684 193.489633 
L 270.974744 195.077105 
L 271.182804 201.114845 
L 272.223105 246.961218 
L 272.431165 251.437164 
L 272.639225 252.034449 
L 272.743255 252.036786 
L 273.471465 250.162734 
L 273.679525 248.340762 
L 273.887585 244.132368 
L 274.199675 231.589878 
L 275.239975 177.643816 
L 275.344005 176.782147 
L 275.448035 177.10724 
L 275.656095 180.867069 
L 276.072215 196.417116 
L 277.112515 238.768775 
L 277.632665 251.629086 
L 278.152815 259.405041 
L 278.464906 261.830086 
L 278.672966 262.356555 
L 278.776996 262.337961 
L 279.089086 261.718347 
L 279.297146 261.250804 
L 279.401176 261.453333 
L 279.713266 263.354168 
L 280.441476 267.912791 
L 280.857596 269.443818 
L 280.961626 269.566001 
L 281.273716 269.131867 
L 282.522076 266.428791 
L 282.834166 266.25023 
L 283.146256 266.331743 
L 283.874466 266.693677 
L 284.602676 266.507924 
L 284.810737 266.803441 
L 285.330887 268.220306 
L 286.267157 270.457826 
L 286.787307 271.132763 
L 287.411487 271.556497 
L 288.243727 271.798406 
L 288.659847 271.792445 
L 289.075967 271.494315 
L 289.388057 271.008949 
L 289.804177 269.907466 
L 290.532387 267.688852 
L 290.740447 267.460273 
L 290.948508 267.509706 
L 291.260598 267.971422 
L 292.612988 270.494347 
L 293.133138 271.14148 
L 293.757318 271.558869 
L 293.861348 271.602916 
L 293.965378 271.491043 
L 294.173438 270.662099 
L 294.485528 268.151865 
L 295.525828 257.36183 
L 295.629858 257.299003 
L 295.837918 257.751222 
L 296.358068 259.476167 
L 296.462098 259.524086 
L 296.670158 259.217343 
L 297.086278 258.134219 
L 297.294339 258.09489 
L 297.398369 258.395332 
L 297.710459 260.89537 
L 298.438669 266.771876 
L 298.750759 268.312374 
L 298.854789 268.44 
L 299.062849 267.778604 
L 299.270909 266.209138 
L 299.582999 261.819219 
L 300.519269 245.592938 
L 300.727329 245.292586 
L 301.039419 246.241341 
L 301.767629 248.409836 
L 302.079719 252.572126 
L 302.807929 262.827542 
L 303.015989 264.030753 
L 303.120019 263.703096 
L 303.328079 261.801057 
L 303.7442 254.226044 
L 304.16032 248.036367 
L 304.26435 247.58712 
L 304.36838 247.668906 
L 304.57644 249.237511 
L 306.03286 266.629073 
L 306.55301 269.075573 
L 306.8651 269.926202 
L 306.96913 269.969861 
L 307.17719 269.689619 
L 307.9054 267.911983 
L 308.11346 268.245402 
L 308.9457 270.29328 
L 309.04973 270.245195 
L 309.25779 269.10988 
L 309.56988 265.03998 
L 310.506151 249.089688 
L 311.026301 244.895411 
L 311.338391 239.147513 
L 311.858541 229.600343 
L 311.962571 229.245871 
L 312.066601 229.517514 
L 312.274661 233.239789 
L 313.314961 258.432496 
L 313.627051 261.718227 
L 314.043171 263.772155 
L 314.563321 265.371288 
L 314.667351 265.424954 
L 314.771381 265.280613 
L 314.979441 264.156662 
L 315.187501 261.594291 
L 315.603621 252.314786 
L 316.019742 242.975657 
L 316.227802 241.060636 
L 316.331832 241.036339 
L 316.539892 242.669515 
L 316.956012 249.762976 
L 317.476162 258.018174 
L 317.892282 261.812016 
L 318.724522 266.60433 
L 319.244672 268.949081 
L 319.556762 269.863956 
L 319.660792 269.883678 
L 319.868852 268.986701 
L 320.284972 265.600804 
L 320.701092 262.679462 
L 320.805122 262.358834 
L 320.909152 262.467259 
L 321.221242 264.098166 
L 321.949452 268.238099 
L 322.261543 269.282514 
L 322.365573 269.32307 
L 322.573633 269.091847 
L 322.885723 268.094896 
L 323.301843 265.645715 
L 324.342143 257.27326 
L 324.862293 251.487981 
L 325.278413 243.58975 
L 326.006623 228.226302 
L 326.214683 227.5042 
L 326.318713 227.866916 
L 326.526773 231.3121 
L 327.567073 257.25035 
L 327.775133 258.07277 
L 327.879163 257.952812 
L 328.399314 256.331241 
L 328.607374 257.553922 
L 329.647674 266.864738 
L 329.751704 267.24973 
L 329.855734 267.171153 
L 330.063794 266.377188 
L 330.583944 263.889381 
L 330.792004 263.745602 
L 331.000064 264.104106 
L 331.520214 265.163262 
L 331.728274 265.043527 
L 331.936334 264.513046 
L 332.352454 262.464242 
L 333.080664 257.23388 
L 334.016934 248.987628 
L 334.641115 243.937719 
L 334.849175 243.27339 
L 335.057235 243.171537 
L 335.161265 243.774368 
L 335.473355 248.947955 
L 336.201565 261.174689 
L 336.409625 262.415664 
L 336.721715 256.613263 
L 337.449925 238.305081 
L 337.762015 235.54974 
L 337.866045 235.597253 
L 338.074105 237.085369 
L 338.386195 242.153436 
L 339.322465 259.58832 
L 339.634555 261.972459 
L 339.946645 262.878228 
L 340.154705 262.976951 
L 340.466795 263.027679 
L 340.674855 263.277573 
L 340.882916 264.139755 
L 341.819186 268.910917 
L 342.131276 269.772354 
L 342.339336 269.878432 
L 342.547396 269.814768 
L 343.067546 269.285273 
L 343.275606 269.035226 
L 343.483666 269.227634 
L 344.627996 271.080347 
L 344.732026 270.876349 
L 344.940086 268.702979 
L 345.252176 262.320556 
L 346.084416 242.86122 
L 346.292476 241.497683 
L 346.396506 241.487811 
L 346.604566 242.577893 
L 347.020686 247.445388 
L 348.165017 261.885437 
L 348.685167 266.338656 
L 349.205317 268.899955 
L 349.413377 269.124477 
L 349.621437 268.881423 
L 349.829497 268.175717 
L 350.141587 266.033471 
L 350.557707 260.893723 
L 351.181887 252.888531 
L 351.389947 251.789032 
L 351.598007 251.636442 
L 351.806067 252.187262 
L 352.742337 255.720667 
L 352.950397 255.782592 
L 353.158457 255.837241 
L 353.366518 255.607361 
L 353.574578 257.103675 
L 354.510848 266.126058 
L 354.614878 266.569041 
L 354.718908 266.106249 
L 355.030998 261.186281 
L 356.175328 237.821248 
L 356.383388 236.14545 
L 356.487418 235.925813 
L 356.591448 236.118876 
L 356.799508 237.552327 
L 357.423688 243.309163 
L 357.631748 243.760603 
L 357.839808 243.557385 
L 358.151898 243.208304 
L 358.359958 243.526058 
L 359.296228 246.32284 
L 359.504288 246.588179 
L 359.712349 247.291894 
L 360.024439 249.485828 
L 360.856679 258.093713 
L 361.480859 264.695339 
L 362.001009 267.980719 
L 362.521159 269.808226 
L 362.833249 270.302452 
L 363.873549 271.370324 
L 364.289669 271.503392 
L 364.497729 270.3272 
L 364.913849 265.420056 
L 365.329969 261.280348 
L 365.538029 260.799699 
L 365.642059 260.950871 
L 365.95415 262.331239 
L 366.37027 263.97056 
L 366.57833 264.040246 
L 366.78639 263.657684 
L 367.30654 262.474652 
L 367.41057 262.451625 
L 367.61863 263.301585 
L 368.5549 268.546856 
L 368.65893 268.896905 
L 368.76296 268.830706 
L 368.97102 267.39167 
L 369.28311 263.461568 
L 369.90729 255.084375 
L 370.11535 254.162647 
L 370.21938 254.191832 
L 370.42744 255.099 
L 370.84356 259.067945 
L 371.46774 265.21107 
L 371.98789 268.263177 
L 372.508041 269.960482 
L 372.924161 270.737668 
L 373.132221 270.851884 
L 373.444311 270.657713 
L 373.652371 270.294402 
L 373.964461 269.129329 
L 374.276551 266.860175 
L 375.108791 259.693569 
L 375.316851 259.511633 
L 375.420881 259.726805 
L 375.732971 261.871399 
L 376.461181 267.198339 
L 376.981331 269.355497 
L 377.293421 270.077433 
L 377.501481 270.06207 
L 377.709541 269.750193 
L 378.021631 268.650621 
L 378.957902 264.439425 
L 379.061932 264.375737 
L 379.269992 264.646055 
L 379.582082 265.82937 
L 380.206262 268.287447 
L 380.414322 268.65388 
L 380.622382 268.722196 
L 380.934472 269.280835 
L 381.662682 270.685756 
L 382.078802 271.166613 
L 382.182832 271.125379 
L 382.390892 270.184166 
L 382.702982 267.480821 
L 383.431192 260.557269 
L 383.639252 260.215784 
L 383.847312 260.734863 
L 384.159402 262.700328 
L 384.887613 267.587112 
L 385.303733 269.256842 
L 385.407763 269.389463 
L 385.511793 269.186011 
L 385.719853 267.870027 
L 386.031943 263.250311 
L 387.176273 240.716966 
L 387.384333 240.258398 
L 387.488363 240.945092 
L 387.800453 246.665308 
L 388.528663 260.113328 
L 388.736723 261.143875 
L 388.944783 259.722647 
L 389.256873 254.607647 
L 389.777023 245.854182 
L 389.985083 245.034426 
L 390.193143 246.238036 
L 390.505233 250.856867 
L 391.233444 262.035631 
L 391.753594 266.543649 
L 392.273744 269.037337 
L 392.585834 269.783858 
L 392.793894 269.426621 
L 393.210014 267.847323 
L 393.522104 266.944249 
L 393.730164 266.839458 
L 393.938224 267.125967 
L 394.354344 268.381088 
L 394.978524 270.113365 
L 395.498674 270.945324 
L 396.018824 271.404878 
L 396.747034 271.716418 
L 397.371215 271.768915 
L 397.683305 271.185711 
L 397.995395 269.933318 
L 398.307485 267.499102 
L 398.827635 260.702153 
L 399.243755 256.436226 
L 399.451815 256.015133 
L 399.659875 256.767425 
L 400.075995 260.190968 
L 400.700175 264.791437 
L 401.116295 266.372674 
L 401.532415 267.088978 
L 401.948535 267.570212 
L 403.092865 270.564875 
L 403.508986 271.084509 
L 403.613016 270.98253 
L 403.821076 270.090106 
L 404.029136 268.352252 
L 404.341226 263.480366 
L 405.173466 246.218665 
L 405.277496 245.750168 
L 405.381526 245.875262 
L 405.589586 247.797544 
L 406.525856 261.38404 
L 406.733916 262.060916 
L 406.837946 262.02001 
L 407.046006 261.303011 
L 407.358096 258.794992 
L 407.774216 252.525319 
L 408.398396 242.190157 
L 408.502426 241.591235 
L 408.606456 242.008849 
L 408.918546 247.249009 
L 409.646757 260.308292 
L 409.854817 261.575618 
L 409.958847 261.276125 
L 410.166907 259.540476 
L 410.583027 252.86682 
L 411.103177 245.437484 
L 411.311237 244.638376 
L 411.415267 244.751117 
L 411.623327 245.697023 
L 412.039447 247.826115 
L 412.143477 247.866604 
L 412.247507 247.591655 
L 412.455567 246.089973 
L 413.079747 240.187329 
L 413.183777 240.249895 
L 413.391837 241.859082 
L 413.703927 247.159332 
L 414.432137 260.254624 
L 414.952287 265.56991 
L 415.160347 266.776846 
L 415.264377 266.864402 
L 415.368407 266.669096 
L 415.576467 265.462894 
L 416.304678 259.602994 
L 416.512738 259.433973 
L 417.240948 260.223153 
L 417.553038 260.314417 
L 417.865128 262.313732 
L 418.593338 267.395176 
L 419.009458 269.099255 
L 419.321548 269.462907 
L 419.529608 269.458897 
L 419.737668 269.170669 
L 420.153788 267.846432 
L 420.569908 266.632767 
L 420.881998 266.259347 
L 421.194088 265.951542 
L 421.402148 265.418133 
L 421.714238 263.555716 
L 422.234389 257.704162 
L 422.546479 254.820008 
L 422.754539 254.193098 
L 422.858569 254.312658 
L 423.066629 255.241067 
L 423.898869 260.324112 
L 424.106929 260.722776 
L 424.419019 262.789244 
L 425.147229 267.656942 
L 425.355289 268.136181 
L 425.563349 264.880229 
L 425.979469 251.312429 
L 426.395589 239.917696 
L 426.603649 238.681547 
L 426.707679 239.194194 
L 427.019769 243.782539 
L 427.747979 256.320663 
L 428.060069 258.782272 
L 428.26813 259.263218 
L 428.37216 259.14871 
L 428.58022 258.147866 
L 428.89231 254.538255 
L 429.72455 242.450884 
L 429.82858 242.37724 
L 429.93261 242.885255 
L 430.2447 248.008085 
L 430.97291 260.67572 
L 431.285 264.094343 
L 431.285 264.094343 
" clip-path="url(#p67f4fddeed)" style="fill: none; stroke: #2ca02c; stroke-width: 0.5; stroke-linecap: square"/>
   </g>
   <g id="patch_3">
    <path d="M 38.27 303.64 
L 38.27 25.44 
" style="fill: none; stroke: #000000; stroke-width: 0.8; stroke-linejoin: miter; stroke-linecap: square"/>
   </g>
   <g id="patch_4">
    <path d="M 450 303.64 
L 450 25.44 
" style="fill: none; stroke: #000000; stroke-width: 0.8; stroke-linejoin: miter; stroke-linecap: square"/>
   </g>
   <g id="patch_5">
    <path d="M 38.27 303.64 
L 450 303.64 
" style="fill: none; stroke: #000000; stroke-width: 0.8; stroke-linejoin: miter; stroke-linecap: square"/>
   </g>
   <g id="patch_6">
    <path d="M 38.27 25.44 
L 450 25.44 
" style="fill: none; stroke: #000000; stroke-width: 0.8; stroke-linejoin: miter; stroke-linecap: square"/>
   </g>
   <g id="text_16">
    <!-- cvxEDA (σ=1.2s  data_8_E4) -->
    <g transform="translate(158.48125 19.44) scale(0.12 -0.12)">
     <defs>
      <path id="DejaVuSans-63" d="M 3122 3366 
L 3122 2828 
Q 2878 2963 2633 3030 
Q 2388 3097 2138 3097 
Q 1578 3097 1268 2742 
Q 959 2388 959 1747 
Q 959 1106 1268 751 
Q 1578 397 2138 397 
Q 2388 397 2633 464 
Q 2878 531 3122 666 
L 3122 134 
Q 2881 22 2623 -34 
Q 2366 -91 2075 -91 
Q 1284 -91 818 406 
Q 353 903 353 1747 
Q 353 2603 823 3093 
Q 1294 3584 2113 3584 
Q 2378 3584 2631 3529 
Q 2884 3475 3122 3366 
z
" transform="scale(0.015625)"/>
      <path id="DejaVuSans-76" d="M 191 3500 
L 800 3500 
L 1894 563 
L 2988 3500 
L 3597 3500 
L 2284 0 
L 1503 0 
L 191 3500 
z
" transform="scale(0.015625)"/>
      <path id="DejaVuSans-78" d="M 3513 3500 
L 2247 1797 
L 3578 0 
L 2900 0 
L 1881 1375 
L 863 0 
L 184 0 
L 1544 1831 
L 300 3500 
L 978 3500 
L 1906 2253 
L 2834 3500 
L 3513 3500 
z
" transform="scale(0.015625)"/>
      <path id="DejaVuSans-3c3" d="M 1959 3044 
Q 1484 3044 1228 2700 
Q 959 2341 959 1747 
Q 959 1119 1226 758 
Q 1494 397 1959 397 
Q 2419 397 2687 759 
Q 2956 1122 2956 1747 
Q 2956 2319 2688 2700 
Q 2441 3044 1959 3044 
z
M 1959 3500 
L 3869 3500 
L 3869 2925 
L 3225 2925 
Q 3566 2438 3566 1747 
Q 3566 888 3138 400 
Q 2709 -91 1959 -91 
Q 1206 -91 781 400 
Q 353 888 353 1747 
Q 353 2613 781 3097 
Q 1134 3500 1959 3500 
z
" transform="scale(0.015625)"/>
      <path id="DejaVuSans-3d" d="M 678 2906 
L 4684 2906 
L 4684 2381 
L 678 2381 
L 678 2906 
z
M 678 1631 
L 4684 1631 
L 4684 1100 
L 678 1100 
L 678 1631 
z
" transform="scale(0.015625)"/>
      <path id="DejaVuSans-2e" d="M 684 794 
L 1344 794 
L 1344 0 
L 684 0 
L 684 794 
z
" transform="scale(0.015625)"/>
      <path id="DejaVuSans-64" d="M 2906 2969 
L 2906 4863 
L 3481 4863 
L 3481 0 
L 2906 0 
L 2906 525 
Q 2725 213 2448 61 
Q 2172 -91 1784 -91 
Q 1150 -91 751 415 
Q 353 922 353 1747 
Q 353 2572 751 3078 
Q 1150 3584 1784 3584 
Q 2172 3584 2448 3432 
Q 2725 3281 2906 2969 
z
M 947 1747 
Q 947 1113 1208 752 
Q 1469 391 1925 391 
Q 2381 391 2643 752 
Q 2906 1113 2906 1747 
Q 2906 2381 2643 2742 
Q 2381 3103 1925 3103 
Q 1469 3103 1208 2742 
Q 947 2381 947 1747 
z
" transform="scale(0.015625)"/>
      <path id="DejaVuSans-5f" d="M 3263 -1063 
L 3263 -1509 
L -63 -1509 
L -63 -1063 
L 3263 -1063 
z
" transform="scale(0.015625)"/>
     </defs>
     <use xlink:href="#DejaVuSans-63"/>
     <use xlink:href="#DejaVuSans-76" transform="translate(54.980469 0)"/>
     <use xlink:href="#DejaVuSans-78" transform="translate(114.160156 0)"/>
     <use xlink:href="#DejaVuSans-45" transform="translate(173.339844 0)"/>
     <use xlink:href="#DejaVuSans-44" transform="translate(236.523438 0)"/>
     <use xlink:href="#DejaVuSans-41" transform="translate(311.775391 0)"/>
     <use xlink:href="#DejaVuSans-20" transform="translate(380.183594 0)"/>
     <use xlink:href="#DejaVuSans-28" transform="translate(411.970703 0)"/>
     <use xlink:href="#DejaVuSans-3c3" transform="translate(450.984375 0)"/>
     <use xlink:href="#DejaVuSans-3d" transform="translate(514.363281 0)"/>
     <use xlink:href="#DejaVuSans-31" transform="translate(598.152344 0)"/>
     <use xlink:href="#DejaVuSans-2e" transform="translate(661.775391 0)"/>
     <use xlink:href="#DejaVuSans-32" transform="translate(693.5625 0)"/>
     <use xlink:href="#DejaVuSans-73" transform="translate(757.185547 0)"/>
     <use xlink:href="#DejaVuSans-20" transform="translate(809.285156 0)"/>
     <use xlink:href="#DejaVuSans-20" transform="translate(841.072266 0)"/>
     <use xlink:href="#DejaVuSans-64" transform="translate(872.859375 0)"/>
     <use xlink:href="#DejaVuSans-61" transform="translate(936.335938 0)"/>
     <use xlink:href="#DejaVuSans-74" transform="translate(997.615234 0)"/>
     <use xlink:href="#DejaVuSans-61" transform="translate(1036.824219 0)"/>
     <use xlink:href="#DejaVuSans-5f" transform="translate(1098.103516 0)"/>
     <use xlink:href="#DejaVuSans-38" transform="translate(1148.103516 0)"/>
     <use xlink:href="#DejaVuSans-5f" transform="translate(1211.726562 0)"/>
     <use xlink:href="#DejaVuSans-45" transform="translate(1261.726562 0)"/>
     <use xlink:href="#DejaVuSans-34" transform="translate(1324.910156 0)"/>
     <use xlink:href="#DejaVuSans-29" transform="translate(1388.533203 0)"/>
    </g>
   </g>
   <g id="legend_1">
    <g id="patch_7">
     <path d="M 45.27 77.474375 
L 138.17625 77.474375 
Q 140.17625 77.474375 140.17625 75.474375 
L 140.17625 32.44 
Q 140.17625 30.44 138.17625 30.44 
L 45.27 30.44 
Q 43.27 30.44 43.27 32.44 
L 43.27 75.474375 
Q 43.27 77.474375 45.27 77.474375 
z
" style="fill: #ffffff; opacity: 0.8; stroke: #cccccc; stroke-linejoin: miter"/>
    </g>
    <g id="line2d_30">
     <path d="M 47.27 38.538437 
L 57.27 38.538437 
L 67.27 38.538437 
" style="fill: none; stroke-dasharray: 1.85,0.8; stroke-dashoffset: 0; stroke: #1f77b4; stroke-width: 0.5"/>
    </g>
    <g id="text_17">
     <!-- Filtered EDA -->
     <g transform="translate(75.27 42.038437) scale(0.1 -0.1)">
      <defs>
       <path id="DejaVuSans-46" d="M 628 4666 
L 3309 4666 
L 3309 4134 
L 1259 4134 
L 1259 2759 
L 3109 2759 
L 3109 2228 
L 1259 2228 
L 1259 0 
L 628 0 
L 628 4666 
z
" transform="scale(0.015625)"/>
       <path id="DejaVuSans-72" d="M 2631 2963 
Q 2534 3019 2420 3045 
Q 2306 3072 2169 3072 
Q 1681 3072 1420 2755 
Q 1159 2438 1159 1844 
L 1159 0 
L 581 0 
L 581 3500 
L 1159 3500 
L 1159 2956 
Q 1341 3275 1631 3429 
Q 1922 3584 2338 3584 
Q 2397 3584 2469 3576 
Q 2541 3569 2628 3553 
L 2631 2963 
z
" transform="scale(0.015625)"/>
      </defs>
      <use xlink:href="#DejaVuSans-46"/>
      <use xlink:href="#DejaVuSans-69" transform="translate(50.269531 0)"/>
      <use xlink:href="#DejaVuSans-6c" transform="translate(78.052734 0)"/>
      <use xlink:href="#DejaVuSans-74" transform="translate(105.835938 0)"/>
      <use xlink:href="#DejaVuSans-65" transform="translate(145.044922 0)"/>
      <use xlink:href="#DejaVuSans-72" transform="translate(206.568359 0)"/>
      <use xlink:href="#DejaVuSans-65" transform="translate(245.431641 0)"/>
      <use xlink:href="#DejaVuSans-64" transform="translate(306.955078 0)"/>
      <use xlink:href="#DejaVuSans-20" transform="translate(370.431641 0)"/>
      <use xlink:href="#DejaVuSans-45" transform="translate(402.21875 0)"/>
      <use xlink:href="#DejaVuSans-44" transform="translate(465.402344 0)"/>
      <use xlink:href="#DejaVuSans-41" transform="translate(540.654297 0)"/>
     </g>
    </g>
    <g id="line2d_31">
     <path d="M 47.27 53.216562 
L 57.27 53.216562 
L 67.27 53.216562 
" style="fill: none; stroke: #ff7f0e; stroke-width: 0.5; stroke-linecap: square"/>
    </g>
    <g id="text_18">
     <!-- Tonic -->
     <g transform="translate(75.27 56.716562) scale(0.1 -0.1)">
      <defs>
       <path id="DejaVuSans-6f" d="M 1959 3097 
Q 1497 3097 1228 2736 
Q 959 2375 959 1747 
Q 959 1119 1226 758 
Q 1494 397 1959 397 
Q 2419 397 2687 759 
Q 2956 1122 2956 1747 
Q 2956 2369 2687 2733 
Q 2419 3097 1959 3097 
z
M 1959 3584 
Q 2709 3584 3137 3096 
Q 3566 2609 3566 1747 
Q 3566 888 3137 398 
Q 2709 -91 1959 -91 
Q 1206 -91 779 398 
Q 353 888 353 1747 
Q 353 2609 779 3096 
Q 1206 3584 1959 3584 
z
" transform="scale(0.015625)"/>
      </defs>
      <use xlink:href="#DejaVuSans-54"/>
      <use xlink:href="#DejaVuSans-6f" transform="translate(44.083984 0)"/>
      <use xlink:href="#DejaVuSans-6e" transform="translate(105.265625 0)"/>
      <use xlink:href="#DejaVuSans-69" transform="translate(168.644531 0)"/>
      <use xlink:href="#DejaVuSans-63" transform="translate(196.427734 0)"/>
     </g>
    </g>
    <g id="line2d_32">
     <path d="M 47.27 67.894687 
L 57.27 67.894687 
L 67.27 67.894687 
" style="fill: none; stroke: #2ca02c; stroke-width: 0.5; stroke-linecap: square"/>
    </g>
    <g id="text_19">
     <!-- Phasic -->
     <g transform="translate(75.27 71.394687) scale(0.1 -0.1)">
      <defs>
       <path id="DejaVuSans-50" d="M 1259 4147 
L 1259 2394 
L 2053 2394 
Q 2494 2394 2734 2622 
Q 2975 2850 2975 3272 
Q 2975 3691 2734 3919 
Q 2494 4147 2053 4147 
L 1259 4147 
z
M 628 4666 
L 2053 4666 
Q 2838 4666 3239 4311 
Q 3641 3956 3641 3272 
Q 3641 2581 3239 2228 
Q 2838 1875 2053 1875 
L 1259 1875 
L 1259 0 
L 628 0 
L 628 4666 
z
" transform="scale(0.015625)"/>
       <path id="DejaVuSans-68" d="M 3513 2113 
L 3513 0 
L 2938 0 
L 2938 2094 
Q 2938 2591 2744 2837 
Q 2550 3084 2163 3084 
Q 1697 3084 1428 2787 
Q 1159 2491 1159 1978 
L 1159 0 
L 581 0 
L 581 4863 
L 1159 4863 
L 1159 2956 
Q 1366 3272 1645 3428 
Q 1925 3584 2291 3584 
Q 2894 3584 3203 3211 
Q 3513 2838 3513 2113 
z
" transform="scale(0.015625)"/>
      </defs>
      <use xlink:href="#DejaVuSans-50"/>
      <use xlink:href="#DejaVuSans-68" transform="translate(60.302734 0)"/>
      <use xlink:href="#DejaVuSans-61" transform="translate(123.681641 0)"/>
      <use xlink:href="#DejaVuSans-73" transform="translate(184.960938 0)"/>
      <use xlink:href="#DejaVuSans-69" transform="translate(237.060547 0)"/>
      <use xlink:href="#DejaVuSans-63" transform="translate(264.84375 0)"/>
     </g>
    </g>
   </g>
  </g>
 </g>
 <defs>
  <clipPath id="p67f4fddeed">
   <rect x="38.27" y="25.44" width="411.73" height="278.2"/>
  </clipPath>
 </defs>
</svg>
