<?xml version="1.0" encoding="utf-8" standalone="no"?>
<!DOCTYPE svg PUBLIC "-//W3C//DTD SVG 1.1//EN"
  "http://www.w3.org/Graphics/SVG/1.1/DTD/svg11.dtd">
<svg xmlns:xlink="http://www.w3.org/1999/xlink" width="460.8pt" height="345.6pt" viewBox="0 0 460.8 345.6" xmlns="http://www.w3.org/2000/svg" version="1.1">
 <metadata>
  <rdf:RDF xmlns:dc="http://purl.org/dc/elements/1.1/" xmlns:cc="http://creativecommons.org/ns#" xmlns:rdf="http://www.w3.org/1999/02/22-rdf-syntax-ns#">
   <cc:Work>
    <dc:type rdf:resource="http://purl.org/dc/dcmitype/StillImage"/>
    <dc:date>2025-09-22T15:39:40.498961</dc:date>
    <dc:format>image/svg+xml</dc:format>
    <dc:creator>
     <cc:Agent>
      <dc:title>Matplotlib v3.10.0, https://matplotlib.org/</dc:title>
     </cc:Agent>
    </dc:creator>
   </cc:Work>
  </rdf:RDF>
 </metadata>
 <defs>
  <style type="text/css">*{stroke-linejoin: round; stroke-linecap: butt}</style>
 </defs>
 <g id="figure_1">
  <g id="patch_1">
   <path d="M 0 345.6 
L 460.8 345.6 
L 460.8 0 
L 0 0 
z
" style="fill: #ffffff"/>
  </g>
  <g id="axes_1">
   <g id="patch_2">
    <path d="M 38.27 303.64 
L 450 303.64 
L 450 25.44 
L 38.27 25.44 
z
" style="fill: #ffffff"/>
   </g>
   <g id="matplotlib.axis_1">
    <g id="xtick_1">
     <g id="line2d_1">
      <path d="M 56.985 303.64 
L 56.985 25.44 
" clip-path="url(#p6529de8e90)" style="fill: none; stroke: #b0b0b0; stroke-opacity: 0.3; stroke-width: 0.8; stroke-linecap: square"/>
     </g>
     <g id="line2d_2">
      <defs>
       <path id="m09dad3b101" d="M 0 0 
L 0 3.5 
" style="stroke: #000000; stroke-width: 0.8"/>
      </defs>
      <g>
       <use xlink:href="#m09dad3b101" x="56.985" y="303.64" style="stroke: #000000; stroke-width: 0.8"/>
      </g>
     </g>
     <g id="text_1">
      <!-- 0 -->
      <g transform="translate(53.80375 318.238437) scale(0.1 -0.1)">
       <defs>
        <path id="DejaVuSans-30" d="M 2034 4250 
Q 1547 4250 1301 3770 
Q 1056 3291 1056 2328 
Q 1056 1369 1301 889 
Q 1547 409 2034 409 
Q 2525 409 2770 889 
Q 3016 1369 3016 2328 
Q 3016 3291 2770 3770 
Q 2525 4250 2034 4250 
z
M 2034 4750 
Q 2819 4750 3233 4129 
Q 3647 3509 3647 2328 
Q 3647 1150 3233 529 
Q 2819 -91 2034 -91 
Q 1250 -91 836 529 
Q 422 1150 422 2328 
Q 422 3509 836 4129 
Q 1250 4750 2034 4750 
z
" transform="scale(0.015625)"/>
       </defs>
       <use xlink:href="#DejaVuSans-30"/>
      </g>
     </g>
    </g>
    <g id="xtick_2">
     <g id="line2d_3">
      <path d="M 106.891667 303.64 
L 106.891667 25.44 
" clip-path="url(#p6529de8e90)" style="fill: none; stroke: #b0b0b0; stroke-opacity: 0.3; stroke-width: 0.8; stroke-linecap: square"/>
     </g>
     <g id="line2d_4">
      <g>
       <use xlink:href="#m09dad3b101" x="106.891667" y="303.64" style="stroke: #000000; stroke-width: 0.8"/>
      </g>
     </g>
     <g id="text_2">
      <!-- 2 -->
      <g transform="translate(103.710417 318.238437) scale(0.1 -0.1)">
       <defs>
        <path id="DejaVuSans-32" d="M 1228 531 
L 3431 531 
L 3431 0 
L 469 0 
L 469 531 
Q 828 903 1448 1529 
Q 2069 2156 2228 2338 
Q 2531 2678 2651 2914 
Q 2772 3150 2772 3378 
Q 2772 3750 2511 3984 
Q 2250 4219 1831 4219 
Q 1534 4219 1204 4116 
Q 875 4013 500 3803 
L 500 4441 
Q 881 4594 1212 4672 
Q 1544 4750 1819 4750 
Q 2544 4750 2975 4387 
Q 3406 4025 3406 3419 
Q 3406 3131 3298 2873 
Q 3191 2616 2906 2266 
Q 2828 2175 2409 1742 
Q 1991 1309 1228 531 
z
" transform="scale(0.015625)"/>
       </defs>
       <use xlink:href="#DejaVuSans-32"/>
      </g>
     </g>
    </g>
    <g id="xtick_3">
     <g id="line2d_5">
      <path d="M 156.798333 303.64 
L 156.798333 25.44 
" clip-path="url(#p6529de8e90)" style="fill: none; stroke: #b0b0b0; stroke-opacity: 0.3; stroke-width: 0.8; stroke-linecap: square"/>
     </g>
     <g id="line2d_6">
      <g>
       <use xlink:href="#m09dad3b101" x="156.798333" y="303.64" style="stroke: #000000; stroke-width: 0.8"/>
      </g>
     </g>
     <g id="text_3">
      <!-- 4 -->
      <g transform="translate(153.617083 318.238437) scale(0.1 -0.1)">
       <defs>
        <path id="DejaVuSans-34" d="M 2419 4116 
L 825 1625 
L 2419 1625 
L 2419 4116 
z
M 2253 4666 
L 3047 4666 
L 3047 1625 
L 3713 1625 
L 3713 1100 
L 3047 1100 
L 3047 0 
L 2419 0 
L 2419 1100 
L 313 1100 
L 313 1709 
L 2253 4666 
z
" transform="scale(0.015625)"/>
       </defs>
       <use xlink:href="#DejaVuSans-34"/>
      </g>
     </g>
    </g>
    <g id="xtick_4">
     <g id="line2d_7">
      <path d="M 206.705 303.64 
L 206.705 25.44 
" clip-path="url(#p6529de8e90)" style="fill: none; stroke: #b0b0b0; stroke-opacity: 0.3; stroke-width: 0.8; stroke-linecap: square"/>
     </g>
     <g id="line2d_8">
      <g>
       <use xlink:href="#m09dad3b101" x="206.705" y="303.64" style="stroke: #000000; stroke-width: 0.8"/>
      </g>
     </g>
     <g id="text_4">
      <!-- 6 -->
      <g transform="translate(203.52375 318.238437) scale(0.1 -0.1)">
       <defs>
        <path id="DejaVuSans-36" d="M 2113 2584 
Q 1688 2584 1439 2293 
Q 1191 2003 1191 1497 
Q 1191 994 1439 701 
Q 1688 409 2113 409 
Q 2538 409 2786 701 
Q 3034 994 3034 1497 
Q 3034 2003 2786 2293 
Q 2538 2584 2113 2584 
z
M 3366 4563 
L 3366 3988 
Q 3128 4100 2886 4159 
Q 2644 4219 2406 4219 
Q 1781 4219 1451 3797 
Q 1122 3375 1075 2522 
Q 1259 2794 1537 2939 
Q 1816 3084 2150 3084 
Q 2853 3084 3261 2657 
Q 3669 2231 3669 1497 
Q 3669 778 3244 343 
Q 2819 -91 2113 -91 
Q 1303 -91 875 529 
Q 447 1150 447 2328 
Q 447 3434 972 4092 
Q 1497 4750 2381 4750 
Q 2619 4750 2861 4703 
Q 3103 4656 3366 4563 
z
" transform="scale(0.015625)"/>
       </defs>
       <use xlink:href="#DejaVuSans-36"/>
      </g>
     </g>
    </g>
    <g id="xtick_5">
     <g id="line2d_9">
      <path d="M 256.611667 303.64 
L 256.611667 25.44 
" clip-path="url(#p6529de8e90)" style="fill: none; stroke: #b0b0b0; stroke-opacity: 0.3; stroke-width: 0.8; stroke-linecap: square"/>
     </g>
     <g id="line2d_10">
      <g>
       <use xlink:href="#m09dad3b101" x="256.611667" y="303.64" style="stroke: #000000; stroke-width: 0.8"/>
      </g>
     </g>
     <g id="text_5">
      <!-- 8 -->
      <g transform="translate(253.430417 318.238437) scale(0.1 -0.1)">
       <defs>
        <path id="DejaVuSans-38" d="M 2034 2216 
Q 1584 2216 1326 1975 
Q 1069 1734 1069 1313 
Q 1069 891 1326 650 
Q 1584 409 2034 409 
Q 2484 409 2743 651 
Q 3003 894 3003 1313 
Q 3003 1734 2745 1975 
Q 2488 2216 2034 2216 
z
M 1403 2484 
Q 997 2584 770 2862 
Q 544 3141 544 3541 
Q 544 4100 942 4425 
Q 1341 4750 2034 4750 
Q 2731 4750 3128 4425 
Q 3525 4100 3525 3541 
Q 3525 3141 3298 2862 
Q 3072 2584 2669 2484 
Q 3125 2378 3379 2068 
Q 3634 1759 3634 1313 
Q 3634 634 3220 271 
Q 2806 -91 2034 -91 
Q 1263 -91 848 271 
Q 434 634 434 1313 
Q 434 1759 690 2068 
Q 947 2378 1403 2484 
z
M 1172 3481 
Q 1172 3119 1398 2916 
Q 1625 2713 2034 2713 
Q 2441 2713 2670 2916 
Q 2900 3119 2900 3481 
Q 2900 3844 2670 4047 
Q 2441 4250 2034 4250 
Q 1625 4250 1398 4047 
Q 1172 3844 1172 3481 
z
" transform="scale(0.015625)"/>
       </defs>
       <use xlink:href="#DejaVuSans-38"/>
      </g>
     </g>
    </g>
    <g id="xtick_6">
     <g id="line2d_11">
      <path d="M 306.518333 303.64 
L 306.518333 25.44 
" clip-path="url(#p6529de8e90)" style="fill: none; stroke: #b0b0b0; stroke-opacity: 0.3; stroke-width: 0.8; stroke-linecap: square"/>
     </g>
     <g id="line2d_12">
      <g>
       <use xlink:href="#m09dad3b101" x="306.518333" y="303.64" style="stroke: #000000; stroke-width: 0.8"/>
      </g>
     </g>
     <g id="text_6">
      <!-- 10 -->
      <g transform="translate(300.155833 318.238437) scale(0.1 -0.1)">
       <defs>
        <path id="DejaVuSans-31" d="M 794 531 
L 1825 531 
L 1825 4091 
L 703 3866 
L 703 4441 
L 1819 4666 
L 2450 4666 
L 2450 531 
L 3481 531 
L 3481 0 
L 794 0 
L 794 531 
z
" transform="scale(0.015625)"/>
       </defs>
       <use xlink:href="#DejaVuSans-31"/>
       <use xlink:href="#DejaVuSans-30" transform="translate(63.623047 0)"/>
      </g>
     </g>
    </g>
    <g id="xtick_7">
     <g id="line2d_13">
      <path d="M 356.425 303.64 
L 356.425 25.44 
" clip-path="url(#p6529de8e90)" style="fill: none; stroke: #b0b0b0; stroke-opacity: 0.3; stroke-width: 0.8; stroke-linecap: square"/>
     </g>
     <g id="line2d_14">
      <g>
       <use xlink:href="#m09dad3b101" x="356.425" y="303.64" style="stroke: #000000; stroke-width: 0.8"/>
      </g>
     </g>
     <g id="text_7">
      <!-- 12 -->
      <g transform="translate(350.0625 318.238437) scale(0.1 -0.1)">
       <use xlink:href="#DejaVuSans-31"/>
       <use xlink:href="#DejaVuSans-32" transform="translate(63.623047 0)"/>
      </g>
     </g>
    </g>
    <g id="xtick_8">
     <g id="line2d_15">
      <path d="M 406.331667 303.64 
L 406.331667 25.44 
" clip-path="url(#p6529de8e90)" style="fill: none; stroke: #b0b0b0; stroke-opacity: 0.3; stroke-width: 0.8; stroke-linecap: square"/>
     </g>
     <g id="line2d_16">
      <g>
       <use xlink:href="#m09dad3b101" x="406.331667" y="303.64" style="stroke: #000000; stroke-width: 0.8"/>
      </g>
     </g>
     <g id="text_8">
      <!-- 14 -->
      <g transform="translate(399.969167 318.238437) scale(0.1 -0.1)">
       <use xlink:href="#DejaVuSans-31"/>
       <use xlink:href="#DejaVuSans-34" transform="translate(63.623047 0)"/>
      </g>
     </g>
    </g>
    <g id="text_9">
     <!-- Time (minutes) -->
     <g transform="translate(206.1725 331.916562) scale(0.1 -0.1)">
      <defs>
       <path id="DejaVuSans-54" d="M -19 4666 
L 3928 4666 
L 3928 4134 
L 2272 4134 
L 2272 0 
L 1638 0 
L 1638 4134 
L -19 4134 
L -19 4666 
z
" transform="scale(0.015625)"/>
       <path id="DejaVuSans-69" d="M 603 3500 
L 1178 3500 
L 1178 0 
L 603 0 
L 603 3500 
z
M 603 4863 
L 1178 4863 
L 1178 4134 
L 603 4134 
L 603 4863 
z
" transform="scale(0.015625)"/>
       <path id="DejaVuSans-6d" d="M 3328 2828 
Q 3544 3216 3844 3400 
Q 4144 3584 4550 3584 
Q 5097 3584 5394 3201 
Q 5691 2819 5691 2113 
L 5691 0 
L 5113 0 
L 5113 2094 
Q 5113 2597 4934 2840 
Q 4756 3084 4391 3084 
Q 3944 3084 3684 2787 
Q 3425 2491 3425 1978 
L 3425 0 
L 2847 0 
L 2847 2094 
Q 2847 2600 2669 2842 
Q 2491 3084 2119 3084 
Q 1678 3084 1418 2786 
Q 1159 2488 1159 1978 
L 1159 0 
L 581 0 
L 581 3500 
L 1159 3500 
L 1159 2956 
Q 1356 3278 1631 3431 
Q 1906 3584 2284 3584 
Q 2666 3584 2933 3390 
Q 3200 3197 3328 2828 
z
" transform="scale(0.015625)"/>
       <path id="DejaVuSans-65" d="M 3597 1894 
L 3597 1613 
L 953 1613 
Q 991 1019 1311 708 
Q 1631 397 2203 397 
Q 2534 397 2845 478 
Q 3156 559 3463 722 
L 3463 178 
Q 3153 47 2828 -22 
Q 2503 -91 2169 -91 
Q 1331 -91 842 396 
Q 353 884 353 1716 
Q 353 2575 817 3079 
Q 1281 3584 2069 3584 
Q 2775 3584 3186 3129 
Q 3597 2675 3597 1894 
z
M 3022 2063 
Q 3016 2534 2758 2815 
Q 2500 3097 2075 3097 
Q 1594 3097 1305 2825 
Q 1016 2553 972 2059 
L 3022 2063 
z
" transform="scale(0.015625)"/>
       <path id="DejaVuSans-20" transform="scale(0.015625)"/>
       <path id="DejaVuSans-28" d="M 1984 4856 
Q 1566 4138 1362 3434 
Q 1159 2731 1159 2009 
Q 1159 1288 1364 580 
Q 1569 -128 1984 -844 
L 1484 -844 
Q 1016 -109 783 600 
Q 550 1309 550 2009 
Q 550 2706 781 3412 
Q 1013 4119 1484 4856 
L 1984 4856 
z
" transform="scale(0.015625)"/>
       <path id="DejaVuSans-6e" d="M 3513 2113 
L 3513 0 
L 2938 0 
L 2938 2094 
Q 2938 2591 2744 2837 
Q 2550 3084 2163 3084 
Q 1697 3084 1428 2787 
Q 1159 2491 1159 1978 
L 1159 0 
L 581 0 
L 581 3500 
L 1159 3500 
L 1159 2956 
Q 1366 3272 1645 3428 
Q 1925 3584 2291 3584 
Q 2894 3584 3203 3211 
Q 3513 2838 3513 2113 
z
" transform="scale(0.015625)"/>
       <path id="DejaVuSans-75" d="M 544 1381 
L 544 3500 
L 1119 3500 
L 1119 1403 
Q 1119 906 1312 657 
Q 1506 409 1894 409 
Q 2359 409 2629 706 
Q 2900 1003 2900 1516 
L 2900 3500 
L 3475 3500 
L 3475 0 
L 2900 0 
L 2900 538 
Q 2691 219 2414 64 
Q 2138 -91 1772 -91 
Q 1169 -91 856 284 
Q 544 659 544 1381 
z
M 1991 3584 
L 1991 3584 
z
" transform="scale(0.015625)"/>
       <path id="DejaVuSans-74" d="M 1172 4494 
L 1172 3500 
L 2356 3500 
L 2356 3053 
L 1172 3053 
L 1172 1153 
Q 1172 725 1289 603 
Q 1406 481 1766 481 
L 2356 481 
L 2356 0 
L 1766 0 
Q 1100 0 847 248 
Q 594 497 594 1153 
L 594 3053 
L 172 3053 
L 172 3500 
L 594 3500 
L 594 4494 
L 1172 4494 
z
" transform="scale(0.015625)"/>
       <path id="DejaVuSans-73" d="M 2834 3397 
L 2834 2853 
Q 2591 2978 2328 3040 
Q 2066 3103 1784 3103 
Q 1356 3103 1142 2972 
Q 928 2841 928 2578 
Q 928 2378 1081 2264 
Q 1234 2150 1697 2047 
L 1894 2003 
Q 2506 1872 2764 1633 
Q 3022 1394 3022 966 
Q 3022 478 2636 193 
Q 2250 -91 1575 -91 
Q 1294 -91 989 -36 
Q 684 19 347 128 
L 347 722 
Q 666 556 975 473 
Q 1284 391 1588 391 
Q 1994 391 2212 530 
Q 2431 669 2431 922 
Q 2431 1156 2273 1281 
Q 2116 1406 1581 1522 
L 1381 1569 
Q 847 1681 609 1914 
Q 372 2147 372 2553 
Q 372 3047 722 3315 
Q 1072 3584 1716 3584 
Q 2034 3584 2315 3537 
Q 2597 3491 2834 3397 
z
" transform="scale(0.015625)"/>
       <path id="DejaVuSans-29" d="M 513 4856 
L 1013 4856 
Q 1481 4119 1714 3412 
Q 1947 2706 1947 2009 
Q 1947 1309 1714 600 
Q 1481 -109 1013 -844 
L 513 -844 
Q 928 -128 1133 580 
Q 1338 1288 1338 2009 
Q 1338 2731 1133 3434 
Q 928 4138 513 4856 
z
" transform="scale(0.015625)"/>
      </defs>
      <use xlink:href="#DejaVuSans-54"/>
      <use xlink:href="#DejaVuSans-69" transform="translate(57.958984 0)"/>
      <use xlink:href="#DejaVuSans-6d" transform="translate(85.742188 0)"/>
      <use xlink:href="#DejaVuSans-65" transform="translate(183.154297 0)"/>
      <use xlink:href="#DejaVuSans-20" transform="translate(244.677734 0)"/>
      <use xlink:href="#DejaVuSans-28" transform="translate(276.464844 0)"/>
      <use xlink:href="#DejaVuSans-6d" transform="translate(315.478516 0)"/>
      <use xlink:href="#DejaVuSans-69" transform="translate(412.890625 0)"/>
      <use xlink:href="#DejaVuSans-6e" transform="translate(440.673828 0)"/>
      <use xlink:href="#DejaVuSans-75" transform="translate(504.052734 0)"/>
      <use xlink:href="#DejaVuSans-74" transform="translate(567.431641 0)"/>
      <use xlink:href="#DejaVuSans-65" transform="translate(606.640625 0)"/>
      <use xlink:href="#DejaVuSans-73" transform="translate(668.164062 0)"/>
      <use xlink:href="#DejaVuSans-29" transform="translate(720.263672 0)"/>
     </g>
    </g>
   </g>
   <g id="matplotlib.axis_2">
    <g id="ytick_1">
     <g id="line2d_17">
      <path d="M 38.27 290.994545 
L 450 290.994545 
" clip-path="url(#p6529de8e90)" style="fill: none; stroke: #b0b0b0; stroke-opacity: 0.3; stroke-width: 0.8; stroke-linecap: square"/>
     </g>
     <g id="line2d_18">
      <defs>
       <path id="m10ffa8d19b" d="M 0 0 
L -3.5 0 
" style="stroke: #000000; stroke-width: 0.8"/>
      </defs>
      <g>
       <use xlink:href="#m10ffa8d19b" x="38.27" y="290.994545" style="stroke: #000000; stroke-width: 0.8"/>
      </g>
     </g>
     <g id="text_10">
      <!-- 0 -->
      <g transform="translate(24.9075 294.793764) scale(0.1 -0.1)">
       <use xlink:href="#DejaVuSans-30"/>
      </g>
     </g>
    </g>
    <g id="ytick_2">
     <g id="line2d_19">
      <path d="M 38.27 256.708478 
L 450 256.708478 
" clip-path="url(#p6529de8e90)" style="fill: none; stroke: #b0b0b0; stroke-opacity: 0.3; stroke-width: 0.8; stroke-linecap: square"/>
     </g>
     <g id="line2d_20">
      <g>
       <use xlink:href="#m10ffa8d19b" x="38.27" y="256.708478" style="stroke: #000000; stroke-width: 0.8"/>
      </g>
     </g>
     <g id="text_11">
      <!-- 1 -->
      <g transform="translate(24.9075 260.507697) scale(0.1 -0.1)">
       <use xlink:href="#DejaVuSans-31"/>
      </g>
     </g>
    </g>
    <g id="ytick_3">
     <g id="line2d_21">
      <path d="M 38.27 222.422411 
L 450 222.422411 
" clip-path="url(#p6529de8e90)" style="fill: none; stroke: #b0b0b0; stroke-opacity: 0.3; stroke-width: 0.8; stroke-linecap: square"/>
     </g>
     <g id="line2d_22">
      <g>
       <use xlink:href="#m10ffa8d19b" x="38.27" y="222.422411" style="stroke: #000000; stroke-width: 0.8"/>
      </g>
     </g>
     <g id="text_12">
      <!-- 2 -->
      <g transform="translate(24.9075 226.221629) scale(0.1 -0.1)">
       <use xlink:href="#DejaVuSans-32"/>
      </g>
     </g>
    </g>
    <g id="ytick_4">
     <g id="line2d_23">
      <path d="M 38.27 188.136343 
L 450 188.136343 
" clip-path="url(#p6529de8e90)" style="fill: none; stroke: #b0b0b0; stroke-opacity: 0.3; stroke-width: 0.8; stroke-linecap: square"/>
     </g>
     <g id="line2d_24">
      <g>
       <use xlink:href="#m10ffa8d19b" x="38.27" y="188.136343" style="stroke: #000000; stroke-width: 0.8"/>
      </g>
     </g>
     <g id="text_13">
      <!-- 3 -->
      <g transform="translate(24.9075 191.935562) scale(0.1 -0.1)">
       <defs>
        <path id="DejaVuSans-33" d="M 2597 2516 
Q 3050 2419 3304 2112 
Q 3559 1806 3559 1356 
Q 3559 666 3084 287 
Q 2609 -91 1734 -91 
Q 1441 -91 1130 -33 
Q 819 25 488 141 
L 488 750 
Q 750 597 1062 519 
Q 1375 441 1716 441 
Q 2309 441 2620 675 
Q 2931 909 2931 1356 
Q 2931 1769 2642 2001 
Q 2353 2234 1838 2234 
L 1294 2234 
L 1294 2753 
L 1863 2753 
Q 2328 2753 2575 2939 
Q 2822 3125 2822 3475 
Q 2822 3834 2567 4026 
Q 2313 4219 1838 4219 
Q 1578 4219 1281 4162 
Q 984 4106 628 3988 
L 628 4550 
Q 988 4650 1302 4700 
Q 1616 4750 1894 4750 
Q 2613 4750 3031 4423 
Q 3450 4097 3450 3541 
Q 3450 3153 3228 2886 
Q 3006 2619 2597 2516 
z
" transform="scale(0.015625)"/>
       </defs>
       <use xlink:href="#DejaVuSans-33"/>
      </g>
     </g>
    </g>
    <g id="ytick_5">
     <g id="line2d_25">
      <path d="M 38.27 153.850276 
L 450 153.850276 
" clip-path="url(#p6529de8e90)" style="fill: none; stroke: #b0b0b0; stroke-opacity: 0.3; stroke-width: 0.8; stroke-linecap: square"/>
     </g>
     <g id="line2d_26">
      <g>
       <use xlink:href="#m10ffa8d19b" x="38.27" y="153.850276" style="stroke: #000000; stroke-width: 0.8"/>
      </g>
     </g>
     <g id="text_14">
      <!-- 4 -->
      <g transform="translate(24.9075 157.649494) scale(0.1 -0.1)">
       <use xlink:href="#DejaVuSans-34"/>
      </g>
     </g>
    </g>
    <g id="ytick_6">
     <g id="line2d_27">
      <path d="M 38.27 119.564208 
L 450 119.564208 
" clip-path="url(#p6529de8e90)" style="fill: none; stroke: #b0b0b0; stroke-opacity: 0.3; stroke-width: 0.8; stroke-linecap: square"/>
     </g>
     <g id="line2d_28">
      <g>
       <use xlink:href="#m10ffa8d19b" x="38.27" y="119.564208" style="stroke: #000000; stroke-width: 0.8"/>
      </g>
     </g>
     <g id="text_15">
      <!-- 5 -->
      <g transform="translate(24.9075 123.363427) scale(0.1 -0.1)">
       <defs>
        <path id="DejaVuSans-35" d="M 691 4666 
L 3169 4666 
L 3169 4134 
L 1269 4134 
L 1269 2991 
Q 1406 3038 1543 3061 
Q 1681 3084 1819 3084 
Q 2600 3084 3056 2656 
Q 3513 2228 3513 1497 
Q 3513 744 3044 326 
Q 2575 -91 1722 -91 
Q 1428 -91 1123 -41 
Q 819 9 494 109 
L 494 744 
Q 775 591 1075 516 
Q 1375 441 1709 441 
Q 2250 441 2565 725 
Q 2881 1009 2881 1497 
Q 2881 1984 2565 2268 
Q 2250 2553 1709 2553 
Q 1456 2553 1204 2497 
Q 953 2441 691 2322 
L 691 4666 
z
" transform="scale(0.015625)"/>
       </defs>
       <use xlink:href="#DejaVuSans-35"/>
      </g>
     </g>
    </g>
    <g id="ytick_7">
     <g id="line2d_29">
      <path d="M 38.27 85.278141 
L 450 85.278141 
" clip-path="url(#p6529de8e90)" style="fill: none; stroke: #b0b0b0; stroke-opacity: 0.3; stroke-width: 0.8; stroke-linecap: square"/>
     </g>
     <g id="line2d_30">
      <g>
       <use xlink:href="#m10ffa8d19b" x="38.27" y="85.278141" style="stroke: #000000; stroke-width: 0.8"/>
      </g>
     </g>
     <g id="text_16">
      <!-- 6 -->
      <g transform="translate(24.9075 89.077359) scale(0.1 -0.1)">
       <use xlink:href="#DejaVuSans-36"/>
      </g>
     </g>
    </g>
    <g id="ytick_8">
     <g id="line2d_31">
      <path d="M 38.27 50.992073 
L 450 50.992073 
" clip-path="url(#p6529de8e90)" style="fill: none; stroke: #b0b0b0; stroke-opacity: 0.3; stroke-width: 0.8; stroke-linecap: square"/>
     </g>
     <g id="line2d_32">
      <g>
       <use xlink:href="#m10ffa8d19b" x="38.27" y="50.992073" style="stroke: #000000; stroke-width: 0.8"/>
      </g>
     </g>
     <g id="text_17">
      <!-- 7 -->
      <g transform="translate(24.9075 54.791292) scale(0.1 -0.1)">
       <defs>
        <path id="DejaVuSans-37" d="M 525 4666 
L 3525 4666 
L 3525 4397 
L 1831 0 
L 1172 0 
L 2766 4134 
L 525 4134 
L 525 4666 
z
" transform="scale(0.015625)"/>
       </defs>
       <use xlink:href="#DejaVuSans-37"/>
      </g>
     </g>
    </g>
    <g id="text_18">
     <!-- EDA signals (μS) -->
     <g transform="translate(18.827813 205.711875) rotate(-90) scale(0.1 -0.1)">
      <defs>
       <path id="DejaVuSans-45" d="M 628 4666 
L 3578 4666 
L 3578 4134 
L 1259 4134 
L 1259 2753 
L 3481 2753 
L 3481 2222 
L 1259 2222 
L 1259 531 
L 3634 531 
L 3634 0 
L 628 0 
L 628 4666 
z
" transform="scale(0.015625)"/>
       <path id="DejaVuSans-44" d="M 1259 4147 
L 1259 519 
L 2022 519 
Q 2988 519 3436 956 
Q 3884 1394 3884 2338 
Q 3884 3275 3436 3711 
Q 2988 4147 2022 4147 
L 1259 4147 
z
M 628 4666 
L 1925 4666 
Q 3281 4666 3915 4102 
Q 4550 3538 4550 2338 
Q 4550 1131 3912 565 
Q 3275 0 1925 0 
L 628 0 
L 628 4666 
z
" transform="scale(0.015625)"/>
       <path id="DejaVuSans-41" d="M 2188 4044 
L 1331 1722 
L 3047 1722 
L 2188 4044 
z
M 1831 4666 
L 2547 4666 
L 4325 0 
L 3669 0 
L 3244 1197 
L 1141 1197 
L 716 0 
L 50 0 
L 1831 4666 
z
" transform="scale(0.015625)"/>
       <path id="DejaVuSans-67" d="M 2906 1791 
Q 2906 2416 2648 2759 
Q 2391 3103 1925 3103 
Q 1463 3103 1205 2759 
Q 947 2416 947 1791 
Q 947 1169 1205 825 
Q 1463 481 1925 481 
Q 2391 481 2648 825 
Q 2906 1169 2906 1791 
z
M 3481 434 
Q 3481 -459 3084 -895 
Q 2688 -1331 1869 -1331 
Q 1566 -1331 1297 -1286 
Q 1028 -1241 775 -1147 
L 775 -588 
Q 1028 -725 1275 -790 
Q 1522 -856 1778 -856 
Q 2344 -856 2625 -561 
Q 2906 -266 2906 331 
L 2906 616 
Q 2728 306 2450 153 
Q 2172 0 1784 0 
Q 1141 0 747 490 
Q 353 981 353 1791 
Q 353 2603 747 3093 
Q 1141 3584 1784 3584 
Q 2172 3584 2450 3431 
Q 2728 3278 2906 2969 
L 2906 3500 
L 3481 3500 
L 3481 434 
z
" transform="scale(0.015625)"/>
       <path id="DejaVuSans-61" d="M 2194 1759 
Q 1497 1759 1228 1600 
Q 959 1441 959 1056 
Q 959 750 1161 570 
Q 1363 391 1709 391 
Q 2188 391 2477 730 
Q 2766 1069 2766 1631 
L 2766 1759 
L 2194 1759 
z
M 3341 1997 
L 3341 0 
L 2766 0 
L 2766 531 
Q 2569 213 2275 61 
Q 1981 -91 1556 -91 
Q 1019 -91 701 211 
Q 384 513 384 1019 
Q 384 1609 779 1909 
Q 1175 2209 1959 2209 
L 2766 2209 
L 2766 2266 
Q 2766 2663 2505 2880 
Q 2244 3097 1772 3097 
Q 1472 3097 1187 3025 
Q 903 2953 641 2809 
L 641 3341 
Q 956 3463 1253 3523 
Q 1550 3584 1831 3584 
Q 2591 3584 2966 3190 
Q 3341 2797 3341 1997 
z
" transform="scale(0.015625)"/>
       <path id="DejaVuSans-6c" d="M 603 4863 
L 1178 4863 
L 1178 0 
L 603 0 
L 603 4863 
z
" transform="scale(0.015625)"/>
       <path id="DejaVuSans-3bc" d="M 544 -1331 
L 544 3500 
L 1119 3500 
L 1119 1325 
Q 1119 872 1334 640 
Q 1550 409 1972 409 
Q 2434 409 2667 671 
Q 2900 934 2900 1459 
L 2900 3500 
L 3475 3500 
L 3475 806 
Q 3475 619 3529 530 
Q 3584 441 3700 441 
Q 3728 441 3778 458 
Q 3828 475 3916 513 
L 3916 50 
Q 3788 -22 3673 -56 
Q 3559 -91 3450 -91 
Q 3234 -91 3106 31 
Q 2978 153 2931 403 
Q 2775 156 2548 32 
Q 2322 -91 2016 -91 
Q 1697 -91 1473 31 
Q 1250 153 1119 397 
L 1119 -1331 
L 544 -1331 
z
" transform="scale(0.015625)"/>
       <path id="DejaVuSans-53" d="M 3425 4513 
L 3425 3897 
Q 3066 4069 2747 4153 
Q 2428 4238 2131 4238 
Q 1616 4238 1336 4038 
Q 1056 3838 1056 3469 
Q 1056 3159 1242 3001 
Q 1428 2844 1947 2747 
L 2328 2669 
Q 3034 2534 3370 2195 
Q 3706 1856 3706 1288 
Q 3706 609 3251 259 
Q 2797 -91 1919 -91 
Q 1588 -91 1214 -16 
Q 841 59 441 206 
L 441 856 
Q 825 641 1194 531 
Q 1563 422 1919 422 
Q 2459 422 2753 634 
Q 3047 847 3047 1241 
Q 3047 1584 2836 1778 
Q 2625 1972 2144 2069 
L 1759 2144 
Q 1053 2284 737 2584 
Q 422 2884 422 3419 
Q 422 4038 858 4394 
Q 1294 4750 2059 4750 
Q 2388 4750 2728 4690 
Q 3069 4631 3425 4513 
z
" transform="scale(0.015625)"/>
      </defs>
      <use xlink:href="#DejaVuSans-45"/>
      <use xlink:href="#DejaVuSans-44" transform="translate(63.183594 0)"/>
      <use xlink:href="#DejaVuSans-41" transform="translate(138.435547 0)"/>
      <use xlink:href="#DejaVuSans-20" transform="translate(206.84375 0)"/>
      <use xlink:href="#DejaVuSans-73" transform="translate(238.630859 0)"/>
      <use xlink:href="#DejaVuSans-69" transform="translate(290.730469 0)"/>
      <use xlink:href="#DejaVuSans-67" transform="translate(318.513672 0)"/>
      <use xlink:href="#DejaVuSans-6e" transform="translate(381.990234 0)"/>
      <use xlink:href="#DejaVuSans-61" transform="translate(445.369141 0)"/>
      <use xlink:href="#DejaVuSans-6c" transform="translate(506.648438 0)"/>
      <use xlink:href="#DejaVuSans-73" transform="translate(534.431641 0)"/>
      <use xlink:href="#DejaVuSans-20" transform="translate(586.53125 0)"/>
      <use xlink:href="#DejaVuSans-28" transform="translate(618.318359 0)"/>
      <use xlink:href="#DejaVuSans-3bc" transform="translate(657.332031 0)"/>
      <use xlink:href="#DejaVuSans-53" transform="translate(720.955078 0)"/>
      <use xlink:href="#DejaVuSans-29" transform="translate(784.431641 0)"/>
     </g>
    </g>
   </g>
   <g id="line2d_33">
    <path d="M 56.985 207.338271 
L 58.64948 208.048849 
L 58.96157 207.939281 
L 59.27366 207.630257 
L 59.68978 206.803261 
L 60.105901 205.390025 
L 60.626051 202.712942 
L 61.354261 197.55365 
L 62.498591 189.330088 
L 63.018741 187.032108 
L 63.434861 186.093243 
L 63.746951 185.842443 
L 64.059041 185.870373 
L 65.411431 186.421446 
L 65.827551 186.089153 
L 66.347702 185.286899 
L 67.596062 183.143974 
L 68.012182 182.819665 
L 68.428302 182.746905 
L 69.052482 182.921562 
L 69.780692 183.106408 
L 70.404872 183.020338 
L 71.549202 182.765842 
L 72.069352 182.927695 
L 72.693533 183.39649 
L 73.837863 184.340144 
L 74.358013 184.471516 
L 74.774133 184.37357 
L 75.294283 184.015252 
L 75.918463 183.291239 
L 76.542643 182.191555 
L 77.062793 180.798772 
L 77.582943 178.785049 
L 78.311153 174.932575 
L 79.871604 166.231289 
L 80.599814 163.522397 
L 81.328024 161.653275 
L 81.952204 160.60504 
L 82.368324 160.231934 
L 82.784444 160.156068 
L 83.200564 160.358209 
L 84.552954 161.366182 
L 84.865044 161.211671 
L 85.177135 160.785194 
L 85.593255 159.789639 
L 86.321465 157.223934 
L 87.153705 154.454788 
L 87.569825 153.737908 
L 87.881915 153.605119 
L 88.194005 153.805807 
L 88.610125 154.47582 
L 89.650425 156.458104 
L 89.962515 156.619988 
L 90.170575 156.521519 
L 90.482665 156.022367 
L 90.898785 154.673786 
L 91.418936 151.985841 
L 92.355206 145.515254 
L 93.291476 139.614125 
L 93.811626 137.644565 
L 94.123716 137.076134 
L 94.331776 136.96135 
L 94.539836 137.048856 
L 94.851926 137.520926 
L 95.268046 138.645356 
L 96.932526 143.810262 
L 97.452676 144.501343 
L 97.868797 144.71232 
L 98.388947 144.699272 
L 99.429247 144.347449 
L 100.885667 143.747489 
L 101.301787 143.330513 
L 101.717907 142.571662 
L 102.134027 141.285078 
L 102.654177 138.698205 
L 103.278357 134.110626 
L 104.630748 123.297259 
L 105.046868 121.827389 
L 105.254928 121.681718 
L 105.462988 121.953078 
L 105.775078 123.120608 
L 106.191198 125.899928 
L 107.959708 139.859741 
L 108.271798 140.522739 
L 108.479858 140.5212 
L 108.687918 140.193645 
L 109.000008 139.195432 
L 109.728218 135.678349 
L 110.248369 133.538704 
L 110.560459 132.858212 
L 110.768519 132.723821 
L 110.976579 132.854829 
L 111.288669 133.527231 
L 111.704789 135.174274 
L 112.432999 139.253741 
L 113.681359 146.174592 
L 116.178079 158.480912 
L 117.42644 165.152882 
L 118.05062 167.433561 
L 118.46674 168.340138 
L 118.77883 168.643822 
L 118.98689 168.64979 
L 119.19495 168.487972 
L 119.50704 167.914498 
L 119.92316 166.503853 
L 120.44331 163.699803 
L 121.06749 158.977272 
L 122.00376 149.983661 
L 123.252121 135.706442 
L 124.708541 118.754388 
L 125.228691 115.137923 
L 125.644811 113.762649 
L 125.852871 113.544099 
L 126.060931 113.583879 
L 126.373021 114.007926 
L 126.997201 115.477541 
L 127.933471 117.536907 
L 129.077802 119.90059 
L 130.014072 122.451342 
L 130.742282 124.969933 
L 131.366462 127.959867 
L 132.094672 132.65373 
L 133.239002 140.130076 
L 133.655122 141.771853 
L 133.967212 142.39878 
L 134.175272 142.514079 
L 134.383332 142.393083 
L 134.695422 141.803601 
L 135.111543 140.395011 
L 136.880053 133.371311 
L 137.192143 132.945375 
L 137.504233 132.842677 
L 137.816323 132.998078 
L 138.440503 133.698026 
L 138.960653 134.193149 
L 139.272743 134.282238 
L 139.584833 134.160034 
L 140.000953 133.658408 
L 140.521103 132.600744 
L 141.665434 130.132671 
L 142.185584 129.596022 
L 142.705734 129.422564 
L 143.329914 129.197976 
L 143.746034 128.719087 
L 144.162154 127.862622 
L 145.618574 124.302818 
L 145.930664 124.198914 
L 146.138724 124.347442 
L 146.450814 124.878761 
L 146.970964 126.375602 
L 147.907235 129.248445 
L 148.219325 129.742969 
L 148.427385 129.850156 
L 148.635445 129.754095 
L 148.947535 129.198498 
L 149.363655 127.668411 
L 149.883805 124.608385 
L 151.652315 112.857097 
L 151.964405 112.072802 
L 152.172465 111.880034 
L 152.380525 111.937416 
L 152.692615 112.437673 
L 153.108735 113.700088 
L 154.045006 117.635021 
L 154.981276 121.158466 
L 155.605456 122.759824 
L 156.645756 124.646739 
L 157.373966 126.274344 
L 159.038446 130.526563 
L 159.454566 130.951487 
L 159.766656 130.997577 
L 160.078747 130.824492 
L 160.494867 130.314085 
L 161.327107 128.797943 
L 162.159347 127.438439 
L 162.887557 126.703365 
L 163.615767 125.946083 
L 164.031887 125.157918 
L 164.448007 123.914126 
L 164.968157 121.65127 
L 166.424578 114.545713 
L 166.736668 113.984667 
L 166.944728 113.960176 
L 167.152788 114.227453 
L 167.464878 115.154001 
L 167.880998 117.211184 
L 169.649508 127.262623 
L 169.961598 127.9337 
L 170.169658 128.103886 
L 170.377718 128.057611 
L 170.689808 127.609316 
L 171.105928 126.4017 
L 171.730108 123.657754 
L 174.122799 111.989027 
L 174.746979 110.116631 
L 175.267129 109.203566 
L 175.579219 109.015128 
L 175.891309 109.138889 
L 176.203399 109.587373 
L 176.619519 110.645929 
L 178.179969 115.313562 
L 178.388029 115.427562 
L 178.596089 115.328626 
L 178.90818 114.77688 
L 179.3243 113.375406 
L 180.78072 107.461978 
L 181.09281 107.136054 
L 181.30087 107.223253 
L 181.61296 107.790232 
L 182.02908 109.204923 
L 183.38147 114.435052 
L 183.69356 114.840193 
L 183.90162 114.84893 
L 184.10968 114.654385 
L 184.42177 114.027073 
L 185.045951 112.029392 
L 185.670131 110.137955 
L 185.982221 109.621103 
L 186.190281 109.506101 
L 186.398341 109.590357 
L 186.710431 110.087623 
L 187.126551 111.362746 
L 187.854761 114.632317 
L 188.791031 118.763322 
L 189.311181 120.249016 
L 189.727301 120.888613 
L 190.039391 121.066861 
L 190.351481 121.02735 
L 190.767601 120.721276 
L 191.599842 119.693024 
L 192.744172 118.353172 
L 194.824772 116.203177 
L 195.552982 114.947295 
L 197.529553 111.215038 
L 198.049703 110.763197 
L 198.673883 110.521318 
L 199.506123 110.237781 
L 200.026273 109.803634 
L 200.546423 109.066901 
L 201.274633 107.597822 
L 203.979414 101.673782 
L 204.915684 100.146741 
L 205.955984 98.963078 
L 206.476134 98.186714 
L 206.892254 97.148982 
L 207.308374 95.546362 
L 207.828524 92.667613 
L 209.493004 82.375838 
L 209.805094 81.569942 
L 210.117185 81.31184 
L 210.325245 81.417119 
L 210.637335 81.913735 
L 211.157485 83.318292 
L 212.509875 87.184461 
L 213.238085 88.584631 
L 213.862265 89.402497 
L 214.278385 89.697203 
L 214.590475 89.738358 
L 214.902565 89.591277 
L 215.318685 89.068461 
L 215.838835 87.913302 
L 217.503316 83.681776 
L 217.815406 83.466741 
L 218.127496 83.527757 
L 218.439586 83.831334 
L 218.959736 84.704282 
L 220.312126 87.165484 
L 221.144366 88.168583 
L 221.976606 88.883146 
L 222.496757 89.062534 
L 222.912877 88.937904 
L 223.328997 88.507784 
L 223.849147 87.520748 
L 224.577357 85.493721 
L 225.825717 81.950978 
L 226.345867 81.048029 
L 226.866017 80.576028 
L 227.490197 80.360202 
L 228.010347 80.145287 
L 228.426467 79.734942 
L 228.842588 79.000228 
L 229.362738 77.614587 
L 231.027218 72.639259 
L 231.547368 71.855 
L 232.067518 71.437208 
L 232.587668 71.275586 
L 233.003788 71.364734 
L 233.315878 71.630721 
L 233.731998 72.355417 
L 234.148118 73.569297 
L 234.772298 76.181044 
L 235.916629 81.204044 
L 236.436779 82.556647 
L 236.852899 83.079771 
L 237.269019 83.227434 
L 238.413349 83.312264 
L 238.829469 83.706164 
L 239.349619 84.578474 
L 241.22216 88.264011 
L 241.63828 88.515386 
L 242.0544 88.490882 
L 243.40679 88.061688 
L 243.71888 88.288497 
L 244.135 88.907478 
L 244.75918 90.369028 
L 245.90351 93.098706 
L 246.42366 93.734072 
L 246.83978 93.867525 
L 247.15187 93.745993 
L 247.567991 93.28046 
L 247.984111 92.442002 
L 248.504261 90.825307 
L 249.232471 87.632196 
L 250.168741 83.49581 
L 250.584861 82.479114 
L 250.896951 82.263864 
L 251.105011 82.398207 
L 251.417101 82.993996 
L 251.833221 84.394292 
L 253.809792 92.28687 
L 254.329942 93.174832 
L 254.746062 93.483516 
L 255.162182 93.52717 
L 255.786362 93.31855 
L 256.722632 93.02323 
L 257.242782 93.108727 
L 257.762932 93.434145 
L 258.387112 94.100163 
L 260.259653 96.350254 
L 260.675773 96.430683 
L 260.987863 96.245167 
L 261.299953 95.787156 
L 261.716073 94.666576 
L 262.236223 92.363377 
L 262.964433 87.747583 
L 263.900703 81.898347 
L 264.316823 80.529153 
L 264.524883 80.302685 
L 264.732943 80.410325 
L 264.941003 80.854249 
L 265.253093 82.113092 
L 265.773243 85.481545 
L 267.229664 97.665704 
L 268.165934 106.294475 
L 268.686084 113.243437 
L 269.206234 123.238675 
L 269.830414 140.489984 
L 270.558624 167.934542 
L 272.223105 234.004741 
L 272.639225 242.089972 
L 272.847285 243.836978 
L 272.951315 244.096794 
L 273.055345 243.941227 
L 273.263405 242.386513 
L 273.575495 237.050323 
L 273.991615 224.982677 
L 274.719825 194.963448 
L 275.864155 147.117789 
L 276.488335 128.934854 
L 277.112515 117.019047 
L 277.632665 110.689174 
L 278.152815 106.648879 
L 278.568936 104.708257 
L 278.881026 103.929786 
L 279.193116 103.70555 
L 279.401176 103.850286 
L 279.713266 104.473981 
L 280.129386 105.949312 
L 280.857596 109.605518 
L 281.897896 114.775725 
L 282.522076 116.896341 
L 283.042226 118.00442 
L 283.562376 118.625095 
L 284.082526 118.916231 
L 285.018797 119.099023 
L 286.163127 119.385689 
L 287.619547 119.78499 
L 288.243727 119.724861 
L 288.867907 119.450522 
L 291.156568 118.123904 
L 292.196868 117.880912 
L 292.612988 117.495981 
L 293.029108 116.738307 
L 293.445228 115.497939 
L 293.965378 113.210613 
L 294.693588 108.892887 
L 296.254038 99.423432 
L 297.086278 95.929321 
L 298.022549 92.08376 
L 298.646729 88.315155 
L 299.374939 82.14863 
L 300.831359 68.958839 
L 301.351509 66.031286 
L 301.871659 64.266302 
L 302.495839 63.057911 
L 303.7442 61.316821 
L 304.16032 61.109264 
L 304.47241 61.260867 
L 304.7845 61.725053 
L 305.20062 62.810113 
L 306.03286 65.899451 
L 306.76107 68.295182 
L 307.17719 69.086346 
L 307.48928 69.309611 
L 307.69734 69.26269 
L 308.00943 68.876757 
L 308.32152 68.089039 
L 308.73764 66.382876 
L 309.25779 63.216895 
L 310.194061 55.600048 
L 310.922271 50.229574 
L 311.338391 48.461221 
L 311.546451 48.087704 
L 311.754511 48.086916 
L 311.962571 48.46119 
L 312.274661 49.684029 
L 312.794811 53.103404 
L 314.043171 62.258597 
L 314.459291 63.86567 
L 314.771381 64.43577 
L 315.083471 64.579662 
L 315.603621 64.387594 
L 315.915712 64.369123 
L 316.123772 64.519762 
L 316.435862 65.094242 
L 316.851982 66.609419 
L 317.372132 69.612781 
L 319.452732 83.202607 
L 320.284972 86.412581 
L 321.533332 91.144008 
L 322.781693 96.06192 
L 323.301843 97.353206 
L 323.717963 97.898694 
L 324.134083 98.079944 
L 324.966323 98.245814 
L 325.278413 98.669552 
L 325.590503 99.517816 
L 326.006623 101.474203 
L 326.526773 105.280593 
L 327.567073 115.389051 
L 328.399314 122.328148 
L 328.919464 125.149401 
L 329.439614 126.832503 
L 329.855734 127.564378 
L 330.375884 128.03883 
L 331.416184 128.80831 
L 332.040364 129.644484 
L 332.768574 131.035054 
L 333.600814 133.096435 
L 334.953205 136.616264 
L 335.265295 136.881546 
L 335.473355 136.785001 
L 335.681415 136.420139 
L 335.993505 135.302892 
L 336.409625 132.698853 
L 337.033805 126.801519 
L 338.386195 113.177769 
L 338.906345 110.031685 
L 339.322465 108.559104 
L 339.738585 107.865615 
L 340.050675 107.761504 
L 340.362765 107.952862 
L 340.778885 108.594652 
L 341.299036 109.88786 
L 342.859486 114.23652 
L 343.171576 114.468955 
L 343.379636 114.369021 
L 343.587696 114.030304 
L 343.899786 113.023428 
L 344.315906 110.691338 
L 344.836056 106.292749 
L 346.708596 88.445307 
L 347.124717 86.721071 
L 347.436807 86.127206 
L 347.748897 86.002986 
L 348.060987 86.186354 
L 348.893227 86.897213 
L 349.205317 86.86933 
L 349.517407 86.574631 
L 349.933527 85.787688 
L 351.493977 82.226269 
L 351.806067 82.122778 
L 352.118157 82.328971 
L 352.534277 83.006274 
L 353.678608 85.175476 
L 353.886668 85.22347 
L 354.094728 85.06598 
L 354.406818 84.395531 
L 354.822938 82.663911 
L 355.343088 79.359992 
L 356.903538 68.508169 
L 357.423688 66.498835 
L 357.839808 65.658602 
L 358.151898 65.44887 
L 358.359958 65.502877 
L 358.672048 65.876893 
L 358.984138 66.616113 
L 359.400258 68.207023 
L 359.920409 71.218687 
L 360.544589 76.255071 
L 361.688919 87.859596 
L 362.729219 97.542116 
L 363.353399 101.50443 
L 363.769519 103.117965 
L 364.081609 103.768095 
L 364.393699 103.960186 
L 364.601759 103.854913 
L 364.913849 103.390244 
L 365.329969 102.30312 
L 365.95415 99.985529 
L 366.99445 95.113287 
L 368.03475 89.138875 
L 369.90729 77.616919 
L 370.32341 76.281997 
L 370.6355 75.805226 
L 370.84356 75.729499 
L 371.05162 75.827378 
L 371.36371 76.24003 
L 371.98789 77.597628 
L 372.716101 79.051396 
L 373.132221 79.461539 
L 373.444311 79.533373 
L 373.860431 79.381864 
L 374.900731 78.849332 
L 375.212821 78.948992 
L 375.628941 79.371962 
L 376.253121 80.478883 
L 377.085361 81.975428 
L 377.501481 82.383252 
L 377.917601 82.490142 
L 378.333722 82.352991 
L 381.038502 80.701885 
L 381.558652 79.936263 
L 382.182832 78.537264 
L 383.535222 75.294553 
L 384.263432 74.232876 
L 384.887613 73.270612 
L 385.407763 72.017164 
L 386.968213 67.55669 
L 387.280303 67.386313 
L 387.488363 67.496241 
L 387.800453 67.971559 
L 388.320603 69.38983 
L 389.360903 73.202459 
L 390.297173 77.383319 
L 392.377774 87.791297 
L 392.897924 89.000348 
L 393.314044 89.486216 
L 393.730164 89.684183 
L 394.354344 89.715354 
L 395.186584 89.549642 
L 395.706734 89.2351 
L 396.122854 88.732459 
L 396.538974 87.902216 
L 397.059125 86.295059 
L 397.683305 83.516893 
L 399.555845 74.255799 
L 400.075995 72.949373 
L 400.596145 72.266808 
L 401.740475 71.182619 
L 402.156595 70.28476 
L 402.572715 68.84692 
L 403.092865 66.151846 
L 403.821076 60.853559 
L 405.173466 50.607462 
L 405.693616 48.204521 
L 406.213766 46.801299 
L 406.733916 46.019569 
L 407.462126 45.366923 
L 407.982276 45.181629 
L 408.398396 45.299045 
L 408.918546 45.742447 
L 409.542727 46.240133 
L 409.854817 46.22044 
L 410.166907 45.903202 
L 410.583027 44.969297 
L 411.103177 43.120423 
L 412.247507 38.83103 
L 412.663627 38.139979 
L 412.871687 38.085455 
L 413.079747 38.237909 
L 413.391837 38.846534 
L 413.807957 40.27973 
L 414.640197 44.3411 
L 415.680497 49.096752 
L 418.697368 60.28407 
L 419.113488 61.092271 
L 419.425578 61.291253 
L 419.633638 61.215173 
L 419.945728 60.789345 
L 420.361848 59.688457 
L 420.986028 57.202349 
L 422.130359 52.559302 
L 422.546479 51.733759 
L 422.858569 51.603321 
L 423.066629 51.755584 
L 423.378719 52.311254 
L 423.898869 53.873027 
L 424.939169 57.23052 
L 425.459319 58.220021 
L 426.811709 60.259399 
L 427.747979 62.735132 
L 428.37216 64.050859 
L 428.89231 64.669086 
L 429.62052 65.457884 
L 430.03664 66.323694 
L 430.55679 68.056264 
L 431.285 71.306929 
L 431.285 71.306929 
" clip-path="url(#p6529de8e90)" style="fill: none; stroke-dasharray: 1.85,0.8; stroke-dashoffset: 0; stroke: #1f77b4; stroke-width: 0.5"/>
   </g>
   <g id="line2d_34">
    <path d="M 56.985 207.000616 
L 57.50515 209.000147 
L 57.92127 209.76957 
L 58.23336 209.922776 
L 58.54545 209.755833 
L 58.85754 209.307585 
L 59.37769 208.040884 
L 60.105901 205.478419 
L 63.330831 193.031479 
L 64.579191 189.428998 
L 65.619491 187.030279 
L 66.555762 185.355173 
L 67.388002 184.252274 
L 68.220242 183.513116 
L 68.948452 183.165012 
L 69.572632 183.088686 
L 70.300842 183.2361 
L 71.341142 183.723796 
L 73.109653 184.596723 
L 73.837863 184.714445 
L 74.462043 184.600218 
L 75.086223 184.232697 
L 75.710403 183.560544 
L 76.334583 182.532424 
L 76.958763 181.097002 
L 77.686973 178.839068 
L 78.519213 175.456431 
L 81.432054 162.821061 
L 82.056234 161.317142 
L 82.576384 160.668221 
L 82.992504 160.490915 
L 83.408624 160.56121 
L 83.928774 160.918165 
L 84.656984 161.738467 
L 86.113405 163.467464 
L 86.737585 163.828622 
L 87.257735 163.858155 
L 87.777885 163.617251 
L 88.298035 163.08371 
L 88.818185 162.235329 
L 89.442365 160.770425 
L 90.170575 158.396776 
L 91.002815 154.808042 
L 93.499536 143.411087 
L 94.123716 141.738161 
L 94.539836 141.147561 
L 94.851926 141.008212 
L 95.164016 141.096172 
L 95.580136 141.50595 
L 96.100286 142.370436 
L 97.244616 144.882017 
L 98.076857 146.439231 
L 98.597007 146.956913 
L 98.909097 147.024284 
L 99.325217 146.849002 
L 99.845367 146.283108 
L 100.573577 145.040823 
L 102.654177 141.135242 
L 103.174327 140.650169 
L 103.694477 140.452583 
L 104.214628 140.484289 
L 104.838808 140.743064 
L 105.983138 141.52366 
L 107.023438 142.137172 
L 107.855678 142.329639 
L 110.664489 142.650864 
L 111.288669 143.056255 
L 111.912849 143.716669 
L 112.537029 144.681816 
L 113.265239 146.258343 
L 113.993449 148.394153 
L 114.825689 151.619733 
L 115.657929 155.773895 
L 117.6345 166.199777 
L 118.25868 168.231894 
L 118.6748 168.913673 
L 118.98689 168.992414 
L 119.19495 168.812772 
L 119.50704 168.160256 
L 119.92316 166.573777 
L 120.44331 163.597656 
L 121.17152 157.99088 
L 122.41988 146.153422 
L 123.980331 131.623954 
L 124.916601 124.935613 
L 125.644811 121.101508 
L 126.268991 118.873947 
L 126.789141 117.825484 
L 127.101231 117.5697 
L 127.413321 117.606134 
L 127.725411 117.944806 
L 128.141531 118.86637 
L 128.661681 120.664853 
L 129.389892 124.081446 
L 131.054372 133.465682 
L 131.990642 138.056504 
L 132.718852 140.603214 
L 133.343032 142.080818 
L 133.863182 142.86313 
L 134.383332 143.276263 
L 134.799452 143.365547 
L 135.215573 143.260705 
L 135.735723 142.885201 
L 136.359903 142.124398 
L 137.192143 140.689309 
L 138.336473 138.193946 
L 141.145283 131.865808 
L 142.081554 130.357789 
L 142.809764 129.544669 
L 143.433944 129.147185 
L 143.954094 129.055339 
L 144.474244 129.203923 
L 145.098424 129.674932 
L 147.074994 131.44128 
L 147.491115 131.507594 
L 147.907235 131.351445 
L 148.323355 130.921196 
L 148.739475 130.16724 
L 149.363655 128.478281 
L 150.403955 124.821118 
L 151.652315 120.55351 
L 152.276495 119.087202 
L 152.692615 118.536726 
L 153.004705 118.395368 
L 153.316795 118.473414 
L 153.732916 118.876815 
L 154.253066 119.781238 
L 154.981276 121.59303 
L 157.790086 129.2801 
L 158.518296 130.409515 
L 159.142476 130.994119 
L 159.662626 131.200928 
L 160.182777 131.144809 
L 160.702927 130.81821 
L 161.223077 130.214459 
L 161.951287 128.99117 
L 163.823827 125.636969 
L 164.343977 125.122926 
L 164.760097 124.975139 
L 165.072187 125.052379 
L 165.488307 125.439799 
L 166.008457 126.311117 
L 166.944728 128.480137 
L 168.089058 131.008433 
L 168.609208 131.687037 
L 169.025328 131.864783 
L 169.337418 131.731422 
L 169.649508 131.341098 
L 170.065628 130.461937 
L 170.689808 128.531806 
L 171.626078 124.778313 
L 173.290559 118.063243 
L 173.914739 116.339852 
L 174.538919 115.224678 
L 175.059069 114.690867 
L 175.579219 114.456383 
L 176.099369 114.464774 
L 176.723549 114.71595 
L 177.659819 115.382654 
L 179.84445 116.995206 
L 180.67669 117.331514 
L 181.4049 117.383584 
L 182.02908 117.198527 
L 182.86132 116.656603 
L 184.62983 115.403492 
L 185.254011 115.269903 
L 185.774161 115.404592 
L 186.294311 115.822242 
L 186.918491 116.660029 
L 187.958791 118.503056 
L 189.207151 120.631979 
L 189.831331 121.327236 
L 190.351481 121.579437 
L 190.767601 121.544007 
L 191.287752 121.247721 
L 191.911932 120.599608 
L 192.848202 119.239084 
L 194.824772 116.230372 
L 196.073132 114.873948 
L 198.361793 112.501698 
L 199.402093 111.027093 
L 200.962543 108.372854 
L 206.476134 98.256432 
L 207.620464 95.211086 
L 209.493004 90.149395 
L 210.325245 88.555588 
L 210.845395 87.944793 
L 211.261515 87.719538 
L 211.677635 87.712084 
L 212.197785 87.943925 
L 212.925995 88.569052 
L 214.694505 90.22988 
L 215.214655 90.401708 
L 215.734805 90.320369 
L 216.358986 89.961953 
L 217.295256 89.118034 
L 218.647646 87.923951 
L 219.271826 87.651341 
L 219.791976 87.65099 
L 220.416156 87.875732 
L 221.352426 88.481875 
L 222.704817 89.359301 
L 223.328997 89.538587 
L 223.849147 89.489908 
L 224.369297 89.244705 
L 224.993477 88.694165 
L 225.721687 87.70332 
L 226.553927 86.118735 
L 227.490197 83.770366 
L 228.738558 79.884067 
L 230.090948 75.830696 
L 230.819158 74.25514 
L 231.339308 73.570532 
L 231.755428 73.35668 
L 232.067518 73.415336 
L 232.483638 73.760283 
L 233.003788 74.549292 
L 233.731998 76.145478 
L 236.644839 83.185701 
L 237.477079 84.308635 
L 238.621409 85.43898 
L 240.077829 86.889665 
L 241.11813 88.342001 
L 244.03097 92.690064 
L 244.86321 93.42987 
L 245.69545 93.848929 
L 246.52769 94.023816 
L 247.672021 94.00703 
L 252.873521 93.593173 
L 254.121882 93.71308 
L 255.058152 94.035848 
L 255.890392 94.582647 
L 256.618602 95.320756 
L 257.554872 96.630238 
L 258.699202 98.168782 
L 259.323382 98.63861 
L 259.739503 98.699073 
L 260.155623 98.499783 
L 260.571743 97.991412 
L 260.987863 97.124636 
L 261.612043 95.181962 
L 264.108763 86.390897 
L 264.524883 85.835103 
L 264.836973 85.771366 
L 265.149063 86.060782 
L 265.461153 86.74812 
L 265.877273 88.35908 
L 266.293394 90.858567 
L 266.813544 95.389978 
L 267.437724 103.157984 
L 268.061904 113.797813 
L 268.790114 130.306285 
L 269.622354 155.138281 
L 272.119074 235.411922 
L 272.639225 244.543349 
L 272.951315 247.513332 
L 273.159375 248.284906 
L 273.263405 248.27882 
L 273.471465 247.433986 
L 273.783555 244.151951 
L 274.199675 236.501275 
L 274.823855 219.513414 
L 275.760125 186.579805 
L 277.216545 135.595906 
L 277.840725 120.485888 
L 278.360875 112.381834 
L 278.881026 107.715878 
L 279.297146 106.022341 
L 279.505206 105.741071 
L 279.713266 105.781408 
L 279.921326 106.101811 
L 280.233416 107.016662 
L 280.753566 109.353209 
L 282.105956 115.984352 
L 282.730136 117.822304 
L 283.250286 118.783158 
L 283.770436 119.334004 
L 284.290586 119.576914 
L 284.914767 119.605644 
L 286.579247 119.516147 
L 287.931637 119.847677 
L 289.284027 120.107125 
L 290.012237 120.046018 
L 290.740447 119.751017 
L 291.468658 119.169465 
L 292.196868 118.25329 
L 292.925078 116.954418 
L 293.757318 114.939717 
L 294.589558 112.291323 
L 295.525828 108.488341 
L 296.462098 103.763541 
L 297.502399 97.370726 
L 298.646729 88.874222 
L 301.143449 69.365677 
L 301.871659 65.490612 
L 302.391809 63.730656 
L 302.807929 63.04961 
L 303.120019 62.939681 
L 303.43211 63.119407 
L 303.84823 63.725715 
L 304.47241 65.187186 
L 306.24092 69.76197 
L 306.65704 70.25203 
L 306.96913 70.333785 
L 307.28122 70.186296 
L 307.69734 69.687039 
L 308.21749 68.680781 
L 309.15376 66.236785 
L 310.506151 62.759586 
L 311.130331 61.785817 
L 311.546451 61.468045 
L 311.962571 61.399713 
L 312.378691 61.564808 
L 312.898841 62.07503 
L 313.523021 63.091658 
L 314.251231 64.766935 
L 315.187501 67.562812 
L 316.435862 72.097623 
L 320.597062 87.898387 
L 322.157513 93.654535 
L 323.197813 98.32184 
L 324.342143 104.606924 
L 327.046923 119.936447 
L 327.879163 123.321211 
L 328.711404 125.792844 
L 329.647674 127.890194 
L 331.624244 132.069619 
L 334.016934 138.136341 
L 334.433054 138.519746 
L 334.745145 138.538435 
L 335.057235 138.287163 
L 335.369325 137.730379 
L 335.785445 136.451307 
L 336.305595 133.944615 
L 337.033805 129.180064 
L 339.322465 113.143737 
L 339.842615 111.066931 
L 340.258735 110.239888 
L 340.570825 110.079541 
L 340.882916 110.237363 
L 341.299036 110.824413 
L 342.027246 112.431943 
L 342.859486 114.20991 
L 343.275606 114.689845 
L 343.587696 114.737735 
L 343.899786 114.442085 
L 344.211876 113.734443 
L 344.627996 112.131749 
L 345.252176 108.621444 
L 346.292476 101.135921 
L 347.540837 92.493218 
L 348.165017 89.553619 
L 348.581137 88.449009 
L 348.893227 88.063385 
L 349.205317 87.994282 
L 349.517407 88.184956 
L 349.933527 88.745208 
L 350.765767 90.410527 
L 351.598007 91.90556 
L 352.014127 92.252954 
L 352.326217 92.228109 
L 352.638307 91.899229 
L 353.054427 91.002801 
L 353.574578 89.284347 
L 354.406818 85.604879 
L 356.383388 76.475065 
L 357.007568 74.727392 
L 357.423688 74.06146 
L 357.839808 73.794635 
L 358.151898 73.85588 
L 358.463988 74.140722 
L 358.880108 74.867661 
L 359.400258 76.33297 
L 360.024439 78.90538 
L 360.752649 83.025012 
L 361.688919 89.832213 
L 363.353399 102.041974 
L 363.977579 105.21528 
L 364.393699 106.538713 
L 364.705789 107.019293 
L 364.913849 107.06418 
L 365.121909 106.873443 
L 365.433999 106.178831 
L 365.85012 104.590267 
L 366.4743 101.097885 
L 367.5146 93.589973 
L 368.86699 84.121926 
L 369.49117 81.143743 
L 370.01132 79.534946 
L 370.53147 78.595643 
L 370.94759 78.246419 
L 371.36371 78.188845 
L 371.77983 78.362108 
L 372.404011 78.921799 
L 374.796701 81.444879 
L 375.837001 82.13025 
L 376.877301 82.541347 
L 377.813571 82.673734 
L 378.645812 82.577806 
L 379.374022 82.291778 
L 380.102232 81.784281 
L 380.830442 81.02396 
L 381.662682 79.805218 
L 382.702982 77.78964 
L 385.303733 72.510886 
L 386.031943 71.548397 
L 386.656123 71.07371 
L 387.176273 70.970003 
L 387.592393 71.102216 
L 388.008513 71.444292 
L 388.528663 72.193159 
L 389.048813 73.330284 
L 389.672993 75.254537 
L 390.401203 78.312219 
L 391.961654 86.300686 
L 392.897924 90.538099 
L 393.522104 92.527463 
L 393.938224 93.312309 
L 394.250314 93.558163 
L 394.562404 93.513278 
L 394.874494 93.209678 
L 395.290614 92.457782 
L 395.914794 90.740346 
L 396.851064 87.344649 
L 398.411515 81.632595 
L 399.347785 79.146708 
L 401.324355 74.18147 
L 402.052565 71.582078 
L 402.780775 68.148043 
L 403.925106 61.425058 
L 405.589586 51.645706 
L 406.317796 48.4559 
L 406.941976 46.677489 
L 407.462126 45.861438 
L 407.878246 45.558222 
L 408.294366 45.498412 
L 408.814516 45.671195 
L 409.750787 46.308021 
L 410.478997 46.712027 
L 410.999147 46.75482 
L 411.623327 46.535407 
L 413.183777 45.811814 
L 413.703927 45.872982 
L 414.120047 46.149716 
L 414.536167 46.686207 
L 415.056317 47.80058 
L 415.680497 49.759161 
L 416.824828 54.289597 
L 418.073188 58.967426 
L 418.697368 60.556652 
L 419.113488 61.156909 
L 419.425578 61.333622 
L 419.737668 61.30445 
L 420.153788 60.99924 
L 420.673938 60.293767 
L 421.714238 58.352096 
L 422.650509 56.790323 
L 423.170659 56.322405 
L 423.586779 56.261547 
L 424.002899 56.466042 
L 424.523049 57.042205 
L 425.147229 58.114705 
L 426.083499 60.260186 
L 428.99634 67.363873 
L 430.14067 69.431879 
L 431.07694 70.690993 
L 431.285 70.911853 
L 431.285 70.911853 
" clip-path="url(#p6529de8e90)" style="fill: none; stroke: #ff7f0e; stroke-width: 0.5; stroke-linecap: square"/>
   </g>
   <g id="line2d_35">
    <path d="M 56.985 290.994545 
L 57.08903 290.994545 
L 57.71321 289.28093 
L 58.0253 289.026054 
L 58.23336 289.048741 
L 58.75351 289.699228 
L 59.37769 290.342856 
L 60.00187 290.682352 
L 60.417991 290.730158 
L 60.834111 289.947427 
L 61.354261 288.314534 
L 62.394561 284.721842 
L 62.810681 284.059355 
L 63.018741 283.997003 
L 63.226801 284.116936 
L 63.538891 284.609904 
L 64.059041 286.00823 
L 64.995311 289.065074 
L 65.515461 289.946834 
L 66.035611 290.431578 
L 66.451732 290.597071 
L 67.804122 290.1071 
L 68.532332 290.510854 
L 69.364572 290.808356 
L 70.196812 290.892792 
L 71.133082 290.202246 
L 71.757262 289.860542 
L 72.277412 289.830441 
L 72.901593 290.081304 
L 73.837863 290.648149 
L 74.670103 290.865107 
L 76.126523 290.972 
L 77.166823 290.95211 
L 77.686973 290.478392 
L 78.415183 289.413491 
L 79.143394 288.416211 
L 79.559514 288.154466 
L 79.975634 288.191398 
L 80.391754 288.483404 
L 82.680414 290.61885 
L 83.512654 290.855096 
L 84.448924 290.900591 
L 84.761014 290.436821 
L 85.177135 289.385454 
L 85.801315 286.981993 
L 87.049675 281.860071 
L 87.465795 281.080669 
L 87.673855 280.981879 
L 87.881915 281.08583 
L 88.194005 281.606736 
L 88.610125 282.874955 
L 89.338335 286.073482 
L 89.962515 288.505602 
L 90.482665 289.643578 
L 91.002815 290.268714 
L 91.210875 290.382482 
L 91.522966 290.083939 
L 92.043116 289.099326 
L 93.187446 286.627517 
L 93.603566 286.22577 
L 93.915656 286.217539 
L 94.227746 286.463298 
L 94.747896 287.259869 
L 95.996256 289.942399 
L 96.516406 290.426687 
L 96.932526 290.63089 
L 97.244616 290.421867 
L 97.764767 289.764029 
L 98.597007 288.703823 
L 99.013127 288.508985 
L 99.429247 288.604541 
L 99.741337 288.797114 
L 101.093727 290.439871 
L 101.821937 290.761448 
L 102.029997 290.579641 
L 102.342087 289.830346 
L 102.758207 288.042233 
L 103.278357 284.53669 
L 104.838808 272.64959 
L 105.150898 271.78492 
L 105.358958 271.706763 
L 105.567018 272.038093 
L 105.879108 273.261121 
L 106.399258 276.826475 
L 107.023438 282.670023 
L 107.543588 286.346751 
L 108.063738 288.476599 
L 108.375828 289.203777 
L 108.479858 289.191525 
L 108.791948 288.58012 
L 109.208068 286.940912 
L 110.352399 281.741322 
L 110.664489 281.122604 
L 110.872549 281.01101 
L 111.080609 281.138157 
L 111.392699 281.735063 
L 111.808819 283.119423 
L 113.473299 289.313699 
L 113.993449 290.088395 
L 114.513599 290.508704 
L 115.137779 290.75927 
L 117.21838 290.870121 
L 118.25868 290.740114 
L 118.77883 290.687254 
L 120.85943 290.961798 
L 121.69167 290.914306 
L 122.31585 290.475192 
L 122.731971 289.913176 
L 123.148091 288.989872 
L 123.668241 287.258845 
L 124.708541 283.511611 
L 125.020631 283.040025 
L 125.228691 283.016554 
L 125.436751 283.234739 
L 125.748841 283.962661 
L 126.060931 285.099649 
L 126.789141 288.177203 
L 127.309291 289.455842 
L 127.829441 290.166232 
L 128.037501 290.162558 
L 128.453621 289.678221 
L 129.077802 288.402566 
L 131.054372 283.89188 
L 131.366462 283.84658 
L 131.678552 284.174964 
L 132.094672 285.121793 
L 133.239002 289.133958 
L 133.759152 289.988128 
L 134.175272 290.352445 
L 134.383332 290.129521 
L 134.695422 289.456253 
L 135.215573 287.715137 
L 136.255873 283.980701 
L 136.671993 283.228238 
L 136.984083 283.120828 
L 137.192143 283.271922 
L 137.504233 283.802697 
L 138.024383 285.294065 
L 139.480803 289.669356 
L 140.000953 290.280885 
L 140.417073 290.533598 
L 141.041253 290.310959 
L 141.561404 290.159838 
L 142.289614 290.53563 
L 143.121854 290.817668 
L 143.642004 290.81948 
L 144.058124 290.05963 
L 144.578274 288.465294 
L 145.618574 285.115451 
L 145.930664 284.681368 
L 146.138724 284.616745 
L 146.346784 284.732522 
L 146.658874 285.219816 
L 147.179024 286.643025 
L 147.907235 288.952825 
L 148.427385 289.88236 
L 148.947535 290.396347 
L 149.155595 290.464287 
L 149.467685 290.020615 
L 149.883805 288.899092 
L 150.716045 285.662929 
L 151.236195 283.966571 
L 151.548285 283.408892 
L 151.756345 283.280054 
L 151.964405 283.351472 
L 152.276495 283.807263 
L 152.692615 284.919278 
L 154.253066 289.634085 
L 154.773216 290.261611 
L 155.293366 290.560253 
L 155.709486 290.225737 
L 157.061876 288.835454 
L 157.373966 288.868361 
L 157.686056 289.044778 
L 158.934416 290.44339 
L 159.662626 290.762421 
L 159.974717 290.721564 
L 160.702927 290.169467 
L 161.327107 289.74932 
L 161.847257 289.695831 
L 163.511737 290.762423 
L 164.031887 290.795159 
L 164.343977 290.168624 
L 164.760097 288.685538 
L 165.280247 285.808311 
L 166.632638 277.406492 
L 166.944728 276.495634 
L 167.152788 276.251 
L 167.360848 276.301613 
L 167.568908 276.634158 
L 167.880998 277.598848 
L 168.401148 280.102781 
L 169.961598 288.252378 
L 170.481748 289.510014 
L 171.001898 290.197608 
L 171.418018 290.483754 
L 171.730108 290.344065 
L 172.250258 289.853778 
L 173.186529 288.597908 
L 175.267129 285.654519 
L 175.579219 285.574338 
L 175.891309 285.721856 
L 176.203399 286.124509 
L 176.515489 286.710935 
L 177.451759 289.32224 
L 177.971909 290.085851 
L 178.388029 290.43055 
L 178.492059 290.385907 
L 178.80415 289.733754 
L 179.22027 288.198478 
L 180.88475 280.936746 
L 181.09281 280.758746 
L 181.30087 280.846819 
L 181.50893 281.193977 
L 181.92505 282.547694 
L 182.23714 284.031649 
L 182.96535 287.702734 
L 183.4855 289.199469 
L 184.00565 290.003809 
L 184.21371 289.87601 
L 184.5258 289.308812 
L 185.045951 287.761947 
L 185.878191 285.301579 
L 186.294311 284.716557 
L 186.606401 284.686666 
L 186.918491 285.00204 
L 187.334611 285.869956 
L 187.854761 287.389689 
L 188.478941 289.142691 
L 188.999091 289.986204 
L 189.519241 290.452285 
L 189.935361 290.642426 
L 190.455511 290.400211 
L 191.703872 289.725846 
L 192.224022 289.742171 
L 192.640142 289.903526 
L 193.680442 290.618809 
L 194.512682 290.854394 
L 195.136862 290.873186 
L 195.761042 290.356625 
L 197.217462 288.882603 
L 197.633583 288.77804 
L 198.049703 288.9032 
L 198.465823 289.212219 
L 199.506123 290.379417 
L 200.130303 290.700314 
L 200.962543 290.885779 
L 201.274633 290.8009 
L 204.291504 289.520831 
L 204.811654 289.576784 
L 205.331804 290.032866 
L 206.060014 290.563684 
L 206.788224 290.812669 
L 207.100314 290.795402 
L 207.516434 290.014366 
L 207.932554 288.688715 
L 209.388974 283.391529 
L 209.701064 283.100722 
L 209.909125 283.169867 
L 210.221215 283.637415 
L 210.637335 284.782837 
L 212.093755 289.325168 
L 212.613905 290.090184 
L 213.238085 290.565923 
L 213.966295 290.815629 
L 214.278385 290.776267 
L 214.798535 290.39487 
L 215.318685 289.679514 
L 215.942865 288.416578 
L 216.983166 286.220918 
L 217.399286 285.815953 
L 217.711376 285.814568 
L 218.023466 286.07901 
L 218.439586 286.776558 
L 220.104066 290.115354 
L 220.728246 290.576403 
L 221.456456 290.820057 
L 222.288696 290.910921 
L 222.808847 290.607368 
L 223.328997 289.984821 
L 223.953177 288.828118 
L 225.513627 285.691855 
L 225.929747 285.397792 
L 226.241837 285.439068 
L 226.553927 285.708716 
L 226.970047 286.395879 
L 227.386167 287.340024 
L 228.114377 289.256919 
L 228.634528 290.046216 
L 229.154678 290.484209 
L 229.674828 290.657942 
L 230.715128 289.912451 
L 232.275578 288.806612 
L 233.627968 287.254218 
L 233.940058 287.243611 
L 234.252148 287.466982 
L 234.564238 287.858179 
L 235.604539 289.889482 
L 236.124689 290.395466 
L 236.644839 290.672054 
L 236.852899 290.59381 
L 237.477079 289.927112 
L 238.205289 289.176203 
L 238.621409 289.049181 
L 239.037529 289.180555 
L 240.597979 290.628869 
L 241.22216 290.782398 
L 241.63828 290.36498 
L 242.15843 289.45884 
L 243.30276 287.276988 
L 243.71888 286.981968 
L 244.03097 287.046138 
L 244.34306 287.349915 
L 244.75918 288.024414 
L 245.59142 289.727283 
L 246.11157 290.30512 
L 246.73575 290.667321 
L 247.15187 290.729453 
L 247.567991 290.278922 
L 247.984111 289.483851 
L 248.504261 287.930337 
L 249.232471 284.823191 
L 250.168741 280.784208 
L 250.584861 279.804352 
L 250.896951 279.613474 
L 251.105011 279.762396 
L 251.417101 280.377665 
L 251.833221 281.797423 
L 252.769491 286.152243 
L 253.289641 288.248907 
L 253.809792 289.500464 
L 254.329942 290.19124 
L 254.850092 290.562224 
L 255.058152 290.516463 
L 255.578302 290.07933 
L 256.618602 288.727936 
L 257.554872 287.661102 
L 258.075022 287.359122 
L 258.595172 287.329254 
L 259.115322 287.577957 
L 259.739503 288.191366 
L 260.051593 288.651024 
L 260.779803 289.879933 
L 261.403983 290.456763 
L 262.028163 290.739305 
L 262.236223 290.608803 
L 262.652343 289.792894 
L 263.276523 287.887924 
L 264.004733 285.865283 
L 264.316823 285.491775 
L 264.524883 285.479357 
L 264.836973 285.803197 
L 265.045033 286.265546 
L 266.085334 289.343779 
L 266.605484 290.057517 
L 266.813544 289.821516 
L 267.125634 288.883272 
L 267.541754 286.578004 
L 268.165934 281.435279 
L 269.310264 271.619275 
L 269.726384 269.567959 
L 269.934444 269.176205 
L 270.038474 269.16177 
L 270.246534 269.526761 
L 270.558624 271.045407 
L 270.974744 274.573233 
L 271.806984 283.91058 
L 272.327135 287.136341 
L 272.639225 288.333354 
L 272.743255 288.418628 
L 272.951315 287.596148 
L 273.263405 285.125252 
L 273.783555 278.516564 
L 275.239975 257.101422 
L 275.552065 255.401294 
L 275.760125 255.241357 
L 275.968185 255.861723 
L 276.280275 258.13785 
L 276.800425 264.634474 
L 277.944755 280.467552 
L 278.568936 285.646086 
L 279.089086 288.088752 
L 279.609236 289.432988 
L 280.129386 290.158143 
L 280.753566 290.5996 
L 281.273716 290.710224 
L 282.105956 290.613318 
L 283.354316 290.51845 
L 284.602676 290.418471 
L 287.307457 290.963285 
L 288.035667 290.908334 
L 288.867907 290.401907 
L 290.116267 289.548474 
L 290.636417 289.480433 
L 290.948508 289.536297 
L 292.717018 290.763323 
L 293.341198 290.84742 
L 293.653288 290.471661 
L 294.173438 289.40203 
L 295.733888 285.717178 
L 296.045978 285.514055 
L 296.358068 285.606387 
L 296.670158 285.990198 
L 297.190309 287.153129 
L 297.918519 289.17745 
L 298.438669 290.003568 
L 298.958819 290.461325 
L 299.166879 290.513587 
L 299.582999 290.024163 
L 300.623299 288.598307 
L 300.935389 288.541392 
L 301.143449 288.686618 
L 302.391809 290.342053 
L 302.807929 290.548599 
L 303.120019 290.195955 
L 303.64017 289.062566 
L 304.57644 286.923742 
L 304.99256 286.558317 
L 305.30465 286.604265 
L 305.61674 286.889688 
L 306.13689 287.68544 
L 307.17719 289.827469 
L 307.69734 290.361815 
L 308.21749 290.654634 
L 308.42555 290.565085 
L 308.73764 290.013101 
L 309.15376 288.71437 
L 309.673911 286.23743 
L 311.130331 278.416849 
L 311.442421 277.721233 
L 311.650481 277.62798 
L 311.858541 277.849486 
L 312.170631 278.75581 
L 312.586751 280.784398 
L 313.835111 288.107098 
L 314.355261 289.43593 
L 314.563321 289.504467 
L 314.875411 288.977212 
L 315.291531 287.632281 
L 316.227802 284.380047 
L 316.539892 283.903811 
L 316.747952 283.84294 
L 316.956012 283.98608 
L 317.268102 284.544499 
L 317.788252 286.061464 
L 318.724522 289.082895 
L 319.244672 289.956378 
L 319.764822 290.436636 
L 320.180942 290.579177 
L 321.117212 290.80446 
L 322.365573 290.950575 
L 322.677663 290.884332 
L 323.093783 290.1211 
L 323.509903 288.768933 
L 324.134083 285.701287 
L 325.382443 279.084481 
L 325.798563 278.100896 
L 326.006623 278.006036 
L 326.214683 278.187803 
L 326.526773 278.954455 
L 326.942893 280.727851 
L 328.503344 288.631245 
L 329.023494 289.720446 
L 329.543644 290.311365 
L 329.751704 290.344074 
L 330.271854 289.865983 
L 331.832304 287.714164 
L 332.664544 286.796741 
L 333.080664 286.57977 
L 333.392754 286.586372 
L 333.704844 286.776036 
L 334.120964 287.285312 
L 335.265295 289.819607 
L 335.785445 290.359006 
L 336.201565 290.605125 
L 336.305595 290.558748 
L 336.721715 289.64136 
L 337.449925 287.155996 
L 337.970075 285.691861 
L 338.282165 285.262399 
L 338.490225 285.199222 
L 338.698285 285.308568 
L 339.010375 285.750703 
L 339.634555 287.220958 
L 340.362765 288.798033 
L 341.195006 290.048379 
L 341.819186 290.539134 
L 342.547396 290.803938 
L 343.171576 290.870534 
L 343.483666 290.491315 
L 343.899786 289.596821 
L 344.419936 287.929655 
L 345.252176 284.335705 
L 345.876356 281.941167 
L 346.188446 281.296689 
L 346.396506 281.158441 
L 346.604566 281.274136 
L 346.916656 281.925534 
L 347.332777 283.49481 
L 348.165017 287.735418 
L 348.685167 289.218141 
L 349.101287 289.897898 
L 349.205317 289.909184 
L 349.517407 289.408083 
L 349.933527 288.058486 
L 350.869797 283.679734 
L 351.389947 281.739307 
L 351.702037 281.110714 
L 351.910097 280.971456 
L 352.118157 281.070715 
L 352.430247 281.65857 
L 352.846367 283.110221 
L 353.990698 288.496266 
L 354.510848 289.643186 
L 354.926968 290.093322 
L 355.239058 289.648906 
L 355.759208 288.219768 
L 357.111598 284.065737 
L 357.631748 283.133755 
L 358.151898 282.608634 
L 358.568018 282.442952 
L 358.984138 282.520473 
L 359.400258 282.889584 
L 359.816379 283.59132 
L 360.336529 284.910658 
L 362.001009 289.683892 
L 362.521159 290.288171 
L 363.041309 290.61579 
L 363.249369 290.592159 
L 363.665489 290.025097 
L 364.289669 288.683692 
L 365.017879 287.18138 
L 365.433999 286.801569 
L 365.746089 286.791775 
L 366.05818 287.004772 
L 366.57833 287.745523 
L 367.61863 289.860114 
L 368.13878 290.379867 
L 368.65893 290.634354 
L 368.97102 290.370565 
L 369.49117 289.534899 
L 370.11535 288.570323 
L 370.42744 288.353221 
L 370.73953 288.371971 
L 370.94759 288.489482 
L 371.57177 289.517261 
L 372.195951 290.263554 
L 372.820131 290.645664 
L 373.132221 290.703791 
L 373.652371 290.12412 
L 375.004761 288.274404 
L 375.316851 288.217412 
L 375.732971 288.432172 
L 376.045061 288.888651 
L 376.773271 290.004562 
L 377.397451 290.517751 
L 378.125661 290.785842 
L 378.541782 290.640581 
L 379.374022 290.365048 
L 379.790142 290.473047 
L 380.830442 290.822174 
L 381.766712 290.915667 
L 382.807012 290.34481 
L 383.119102 290.246622 
L 383.743282 290.527178 
L 384.575523 290.811365 
L 385.199703 290.893617 
L 385.407763 290.681437 
L 385.823883 289.928439 
L 386.968213 287.59509 
L 387.280303 287.417645 
L 387.592393 287.529024 
L 388.008513 288.034242 
L 389.256873 289.892539 
L 390.089113 290.53786 
L 390.817324 290.801234 
L 391.961654 290.943172 
L 392.169714 290.772392 
L 392.689864 289.921094 
L 394.042254 287.310675 
L 394.354344 287.15742 
L 394.666434 287.256378 
L 395.082554 287.683707 
L 395.498674 288.532984 
L 396.122854 289.729297 
L 396.643004 290.305531 
L 397.267185 290.667357 
L 397.475245 290.653854 
L 397.891365 290.084897 
L 398.411515 288.933505 
L 399.347785 286.860474 
L 399.763905 286.483892 
L 400.075995 286.509532 
L 400.388085 286.781627 
L 400.908235 287.606115 
L 401.948535 289.805062 
L 402.468685 290.349842 
L 403.092865 290.688798 
L 403.300926 290.588746 
L 403.717046 289.994561 
L 404.965406 287.834302 
L 405.277496 287.759408 
L 405.589586 287.968295 
L 406.005706 288.591235 
L 406.733916 289.855777 
L 407.254066 290.373218 
L 407.878246 290.699191 
L 408.814516 290.898557 
L 409.750787 290.946716 
L 409.958847 290.714856 
L 410.374967 289.850337 
L 410.999147 287.794376 
L 412.143477 283.880019 
L 412.559597 283.239014 
L 412.767657 283.176818 
L 412.975717 283.29698 
L 413.287807 283.808269 
L 413.807957 285.331788 
L 414.744227 288.795733 
L 415.264377 289.800256 
L 415.784528 290.348997 
L 415.992588 290.353182 
L 417.449008 289.861228 
L 419.217518 290.814905 
L 419.737668 290.833809 
L 420.153788 290.324956 
L 420.673938 289.259215 
L 422.026329 286.117647 
L 422.338419 285.838041 
L 422.650509 285.868666 
L 422.962599 286.21926 
L 423.274689 286.779674 
L 424.314989 289.516097 
L 424.835139 290.193262 
L 425.355289 290.526191 
L 425.667379 290.268176 
L 426.707679 289.167943 
L 427.123799 289.078478 
L 428.26813 289.106684 
L 428.68425 288.766814 
L 429.62052 287.862306 
L 429.82858 287.85233 
L 430.14067 288.418808 
L 430.86888 289.785608 
L 431.285 290.249767 
L 431.285 290.249767 
" clip-path="url(#p6529de8e90)" style="fill: none; stroke: #2ca02c; stroke-width: 0.5; stroke-linecap: square"/>
   </g>
   <g id="patch_3">
    <path d="M 38.27 303.64 
L 38.27 25.44 
" style="fill: none; stroke: #000000; stroke-width: 0.8; stroke-linejoin: miter; stroke-linecap: square"/>
   </g>
   <g id="patch_4">
    <path d="M 450 303.64 
L 450 25.44 
" style="fill: none; stroke: #000000; stroke-width: 0.8; stroke-linejoin: miter; stroke-linecap: square"/>
   </g>
   <g id="patch_5">
    <path d="M 38.27 303.64 
L 450 303.64 
" style="fill: none; stroke: #000000; stroke-width: 0.8; stroke-linejoin: miter; stroke-linecap: square"/>
   </g>
   <g id="patch_6">
    <path d="M 38.27 25.44 
L 450 25.44 
" style="fill: none; stroke: #000000; stroke-width: 0.8; stroke-linejoin: miter; stroke-linecap: square"/>
   </g>
   <g id="text_19">
    <!-- cvxEDA (σ=3.4s  data_8_E4) -->
    <g transform="translate(158.48125 19.44) scale(0.12 -0.12)">
     <defs>
      <path id="DejaVuSans-63" d="M 3122 3366 
L 3122 2828 
Q 2878 2963 2633 3030 
Q 2388 3097 2138 3097 
Q 1578 3097 1268 2742 
Q 959 2388 959 1747 
Q 959 1106 1268 751 
Q 1578 397 2138 397 
Q 2388 397 2633 464 
Q 2878 531 3122 666 
L 3122 134 
Q 2881 22 2623 -34 
Q 2366 -91 2075 -91 
Q 1284 -91 818 406 
Q 353 903 353 1747 
Q 353 2603 823 3093 
Q 1294 3584 2113 3584 
Q 2378 3584 2631 3529 
Q 2884 3475 3122 3366 
z
" transform="scale(0.015625)"/>
      <path id="DejaVuSans-76" d="M 191 3500 
L 800 3500 
L 1894 563 
L 2988 3500 
L 3597 3500 
L 2284 0 
L 1503 0 
L 191 3500 
z
" transform="scale(0.015625)"/>
      <path id="DejaVuSans-78" d="M 3513 3500 
L 2247 1797 
L 3578 0 
L 2900 0 
L 1881 1375 
L 863 0 
L 184 0 
L 1544 1831 
L 300 3500 
L 978 3500 
L 1906 2253 
L 2834 3500 
L 3513 3500 
z
" transform="scale(0.015625)"/>
      <path id="DejaVuSans-3c3" d="M 1959 3044 
Q 1484 3044 1228 2700 
Q 959 2341 959 1747 
Q 959 1119 1226 758 
Q 1494 397 1959 397 
Q 2419 397 2687 759 
Q 2956 1122 2956 1747 
Q 2956 2319 2688 2700 
Q 2441 3044 1959 3044 
z
M 1959 3500 
L 3869 3500 
L 3869 2925 
L 3225 2925 
Q 3566 2438 3566 1747 
Q 3566 888 3138 400 
Q 2709 -91 1959 -91 
Q 1206 -91 781 400 
Q 353 888 353 1747 
Q 353 2613 781 3097 
Q 1134 3500 1959 3500 
z
" transform="scale(0.015625)"/>
      <path id="DejaVuSans-3d" d="M 678 2906 
L 4684 2906 
L 4684 2381 
L 678 2381 
L 678 2906 
z
M 678 1631 
L 4684 1631 
L 4684 1100 
L 678 1100 
L 678 1631 
z
" transform="scale(0.015625)"/>
      <path id="DejaVuSans-2e" d="M 684 794 
L 1344 794 
L 1344 0 
L 684 0 
L 684 794 
z
" transform="scale(0.015625)"/>
      <path id="DejaVuSans-64" d="M 2906 2969 
L 2906 4863 
L 3481 4863 
L 3481 0 
L 2906 0 
L 2906 525 
Q 2725 213 2448 61 
Q 2172 -91 1784 -91 
Q 1150 -91 751 415 
Q 353 922 353 1747 
Q 353 2572 751 3078 
Q 1150 3584 1784 3584 
Q 2172 3584 2448 3432 
Q 2725 3281 2906 2969 
z
M 947 1747 
Q 947 1113 1208 752 
Q 1469 391 1925 391 
Q 2381 391 2643 752 
Q 2906 1113 2906 1747 
Q 2906 2381 2643 2742 
Q 2381 3103 1925 3103 
Q 1469 3103 1208 2742 
Q 947 2381 947 1747 
z
" transform="scale(0.015625)"/>
      <path id="DejaVuSans-5f" d="M 3263 -1063 
L 3263 -1509 
L -63 -1509 
L -63 -1063 
L 3263 -1063 
z
" transform="scale(0.015625)"/>
     </defs>
     <use xlink:href="#DejaVuSans-63"/>
     <use xlink:href="#DejaVuSans-76" transform="translate(54.980469 0)"/>
     <use xlink:href="#DejaVuSans-78" transform="translate(114.160156 0)"/>
     <use xlink:href="#DejaVuSans-45" transform="translate(173.339844 0)"/>
     <use xlink:href="#DejaVuSans-44" transform="translate(236.523438 0)"/>
     <use xlink:href="#DejaVuSans-41" transform="translate(311.775391 0)"/>
     <use xlink:href="#DejaVuSans-20" transform="translate(380.183594 0)"/>
     <use xlink:href="#DejaVuSans-28" transform="translate(411.970703 0)"/>
     <use xlink:href="#DejaVuSans-3c3" transform="translate(450.984375 0)"/>
     <use xlink:href="#DejaVuSans-3d" transform="translate(514.363281 0)"/>
     <use xlink:href="#DejaVuSans-33" transform="translate(598.152344 0)"/>
     <use xlink:href="#DejaVuSans-2e" transform="translate(661.775391 0)"/>
     <use xlink:href="#DejaVuSans-34" transform="translate(693.5625 0)"/>
     <use xlink:href="#DejaVuSans-73" transform="translate(757.185547 0)"/>
     <use xlink:href="#DejaVuSans-20" transform="translate(809.285156 0)"/>
     <use xlink:href="#DejaVuSans-20" transform="translate(841.072266 0)"/>
     <use xlink:href="#DejaVuSans-64" transform="translate(872.859375 0)"/>
     <use xlink:href="#DejaVuSans-61" transform="translate(936.335938 0)"/>
     <use xlink:href="#DejaVuSans-74" transform="translate(997.615234 0)"/>
     <use xlink:href="#DejaVuSans-61" transform="translate(1036.824219 0)"/>
     <use xlink:href="#DejaVuSans-5f" transform="translate(1098.103516 0)"/>
     <use xlink:href="#DejaVuSans-38" transform="translate(1148.103516 0)"/>
     <use xlink:href="#DejaVuSans-5f" transform="translate(1211.726562 0)"/>
     <use xlink:href="#DejaVuSans-45" transform="translate(1261.726562 0)"/>
     <use xlink:href="#DejaVuSans-34" transform="translate(1324.910156 0)"/>
     <use xlink:href="#DejaVuSans-29" transform="translate(1388.533203 0)"/>
    </g>
   </g>
   <g id="legend_1">
    <g id="patch_7">
     <path d="M 45.27 77.474375 
L 138.17625 77.474375 
Q 140.17625 77.474375 140.17625 75.474375 
L 140.17625 32.44 
Q 140.17625 30.44 138.17625 30.44 
L 45.27 30.44 
Q 43.27 30.44 43.27 32.44 
L 43.27 75.474375 
Q 43.27 77.474375 45.27 77.474375 
z
" style="fill: #ffffff; opacity: 0.8; stroke: #cccccc; stroke-linejoin: miter"/>
    </g>
    <g id="line2d_36">
     <path d="M 47.27 38.538437 
L 57.27 38.538437 
L 67.27 38.538437 
" style="fill: none; stroke-dasharray: 1.85,0.8; stroke-dashoffset: 0; stroke: #1f77b4; stroke-width: 0.5"/>
    </g>
    <g id="text_20">
     <!-- Filtered EDA -->
     <g transform="translate(75.27 42.038437) scale(0.1 -0.1)">
      <defs>
       <path id="DejaVuSans-46" d="M 628 4666 
L 3309 4666 
L 3309 4134 
L 1259 4134 
L 1259 2759 
L 3109 2759 
L 3109 2228 
L 1259 2228 
L 1259 0 
L 628 0 
L 628 4666 
z
" transform="scale(0.015625)"/>
       <path id="DejaVuSans-72" d="M 2631 2963 
Q 2534 3019 2420 3045 
Q 2306 3072 2169 3072 
Q 1681 3072 1420 2755 
Q 1159 2438 1159 1844 
L 1159 0 
L 581 0 
L 581 3500 
L 1159 3500 
L 1159 2956 
Q 1341 3275 1631 3429 
Q 1922 3584 2338 3584 
Q 2397 3584 2469 3576 
Q 2541 3569 2628 3553 
L 2631 2963 
z
" transform="scale(0.015625)"/>
      </defs>
      <use xlink:href="#DejaVuSans-46"/>
      <use xlink:href="#DejaVuSans-69" transform="translate(50.269531 0)"/>
      <use xlink:href="#DejaVuSans-6c" transform="translate(78.052734 0)"/>
      <use xlink:href="#DejaVuSans-74" transform="translate(105.835938 0)"/>
      <use xlink:href="#DejaVuSans-65" transform="translate(145.044922 0)"/>
      <use xlink:href="#DejaVuSans-72" transform="translate(206.568359 0)"/>
      <use xlink:href="#DejaVuSans-65" transform="translate(245.431641 0)"/>
      <use xlink:href="#DejaVuSans-64" transform="translate(306.955078 0)"/>
      <use xlink:href="#DejaVuSans-20" transform="translate(370.431641 0)"/>
      <use xlink:href="#DejaVuSans-45" transform="translate(402.21875 0)"/>
      <use xlink:href="#DejaVuSans-44" transform="translate(465.402344 0)"/>
      <use xlink:href="#DejaVuSans-41" transform="translate(540.654297 0)"/>
     </g>
    </g>
    <g id="line2d_37">
     <path d="M 47.27 53.216562 
L 57.27 53.216562 
L 67.27 53.216562 
" style="fill: none; stroke: #ff7f0e; stroke-width: 0.5; stroke-linecap: square"/>
    </g>
    <g id="text_21">
     <!-- Tonic -->
     <g transform="translate(75.27 56.716562) scale(0.1 -0.1)">
      <defs>
       <path id="DejaVuSans-6f" d="M 1959 3097 
Q 1497 3097 1228 2736 
Q 959 2375 959 1747 
Q 959 1119 1226 758 
Q 1494 397 1959 397 
Q 2419 397 2687 759 
Q 2956 1122 2956 1747 
Q 2956 2369 2687 2733 
Q 2419 3097 1959 3097 
z
M 1959 3584 
Q 2709 3584 3137 3096 
Q 3566 2609 3566 1747 
Q 3566 888 3137 398 
Q 2709 -91 1959 -91 
Q 1206 -91 779 398 
Q 353 888 353 1747 
Q 353 2609 779 3096 
Q 1206 3584 1959 3584 
z
" transform="scale(0.015625)"/>
      </defs>
      <use xlink:href="#DejaVuSans-54"/>
      <use xlink:href="#DejaVuSans-6f" transform="translate(44.083984 0)"/>
      <use xlink:href="#DejaVuSans-6e" transform="translate(105.265625 0)"/>
      <use xlink:href="#DejaVuSans-69" transform="translate(168.644531 0)"/>
      <use xlink:href="#DejaVuSans-63" transform="translate(196.427734 0)"/>
     </g>
    </g>
    <g id="line2d_38">
     <path d="M 47.27 67.894687 
L 57.27 67.894687 
L 67.27 67.894687 
" style="fill: none; stroke: #2ca02c; stroke-width: 0.5; stroke-linecap: square"/>
    </g>
    <g id="text_22">
     <!-- Phasic -->
     <g transform="translate(75.27 71.394687) scale(0.1 -0.1)">
      <defs>
       <path id="DejaVuSans-50" d="M 1259 4147 
L 1259 2394 
L 2053 2394 
Q 2494 2394 2734 2622 
Q 2975 2850 2975 3272 
Q 2975 3691 2734 3919 
Q 2494 4147 2053 4147 
L 1259 4147 
z
M 628 4666 
L 2053 4666 
Q 2838 4666 3239 4311 
Q 3641 3956 3641 3272 
Q 3641 2581 3239 2228 
Q 2838 1875 2053 1875 
L 1259 1875 
L 1259 0 
L 628 0 
L 628 4666 
z
" transform="scale(0.015625)"/>
       <path id="DejaVuSans-68" d="M 3513 2113 
L 3513 0 
L 2938 0 
L 2938 2094 
Q 2938 2591 2744 2837 
Q 2550 3084 2163 3084 
Q 1697 3084 1428 2787 
Q 1159 2491 1159 1978 
L 1159 0 
L 581 0 
L 581 4863 
L 1159 4863 
L 1159 2956 
Q 1366 3272 1645 3428 
Q 1925 3584 2291 3584 
Q 2894 3584 3203 3211 
Q 3513 2838 3513 2113 
z
" transform="scale(0.015625)"/>
      </defs>
      <use xlink:href="#DejaVuSans-50"/>
      <use xlink:href="#DejaVuSans-68" transform="translate(60.302734 0)"/>
      <use xlink:href="#DejaVuSans-61" transform="translate(123.681641 0)"/>
      <use xlink:href="#DejaVuSans-73" transform="translate(184.960938 0)"/>
      <use xlink:href="#DejaVuSans-69" transform="translate(237.060547 0)"/>
      <use xlink:href="#DejaVuSans-63" transform="translate(264.84375 0)"/>
     </g>
    </g>
   </g>
  </g>
 </g>
 <defs>
  <clipPath id="p6529de8e90">
   <rect x="38.27" y="25.44" width="411.73" height="278.2"/>
  </clipPath>
 </defs>
</svg>
