<?xml version="1.0" encoding="utf-8" standalone="no"?>
<!DOCTYPE svg PUBLIC "-//W3C//DTD SVG 1.1//EN"
  "http://www.w3.org/Graphics/SVG/1.1/DTD/svg11.dtd">
<svg xmlns:xlink="http://www.w3.org/1999/xlink" width="460.8pt" height="345.6pt" viewBox="0 0 460.8 345.6" xmlns="http://www.w3.org/2000/svg" version="1.1">
 <metadata>
  <rdf:RDF xmlns:dc="http://purl.org/dc/elements/1.1/" xmlns:cc="http://creativecommons.org/ns#" xmlns:rdf="http://www.w3.org/1999/02/22-rdf-syntax-ns#">
   <cc:Work>
    <dc:type rdf:resource="http://purl.org/dc/dcmitype/StillImage"/>
    <dc:date>2025-09-22T15:39:35.156033</dc:date>
    <dc:format>image/svg+xml</dc:format>
    <dc:creator>
     <cc:Agent>
      <dc:title>Matplotlib v3.10.0, https://matplotlib.org/</dc:title>
     </cc:Agent>
    </dc:creator>
   </cc:Work>
  </rdf:RDF>
 </metadata>
 <defs>
  <style type="text/css">*{stroke-linejoin: round; stroke-linecap: butt}</style>
 </defs>
 <g id="figure_1">
  <g id="patch_1">
   <path d="M 0 345.6 
L 460.8 345.6 
L 460.8 0 
L 0 0 
z
" style="fill: #ffffff"/>
  </g>
  <g id="axes_1">
   <g id="patch_2">
    <path d="M 38.27 303.64 
L 450 303.64 
L 450 25.44 
L 38.27 25.44 
z
" style="fill: #ffffff"/>
   </g>
   <g id="matplotlib.axis_1">
    <g id="xtick_1">
     <g id="line2d_1">
      <path d="M 56.985 303.64 
L 56.985 25.44 
" clip-path="url(#pf980e26d6d)" style="fill: none; stroke: #b0b0b0; stroke-opacity: 0.3; stroke-width: 0.8; stroke-linecap: square"/>
     </g>
     <g id="line2d_2">
      <defs>
       <path id="m1746970f9b" d="M 0 0 
L 0 3.5 
" style="stroke: #000000; stroke-width: 0.8"/>
      </defs>
      <g>
       <use xlink:href="#m1746970f9b" x="56.985" y="303.64" style="stroke: #000000; stroke-width: 0.8"/>
      </g>
     </g>
     <g id="text_1">
      <!-- 0 -->
      <g transform="translate(53.80375 318.238437) scale(0.1 -0.1)">
       <defs>
        <path id="DejaVuSans-30" d="M 2034 4250 
Q 1547 4250 1301 3770 
Q 1056 3291 1056 2328 
Q 1056 1369 1301 889 
Q 1547 409 2034 409 
Q 2525 409 2770 889 
Q 3016 1369 3016 2328 
Q 3016 3291 2770 3770 
Q 2525 4250 2034 4250 
z
M 2034 4750 
Q 2819 4750 3233 4129 
Q 3647 3509 3647 2328 
Q 3647 1150 3233 529 
Q 2819 -91 2034 -91 
Q 1250 -91 836 529 
Q 422 1150 422 2328 
Q 422 3509 836 4129 
Q 1250 4750 2034 4750 
z
" transform="scale(0.015625)"/>
       </defs>
       <use xlink:href="#DejaVuSans-30"/>
      </g>
     </g>
    </g>
    <g id="xtick_2">
     <g id="line2d_3">
      <path d="M 106.891667 303.64 
L 106.891667 25.44 
" clip-path="url(#pf980e26d6d)" style="fill: none; stroke: #b0b0b0; stroke-opacity: 0.3; stroke-width: 0.8; stroke-linecap: square"/>
     </g>
     <g id="line2d_4">
      <g>
       <use xlink:href="#m1746970f9b" x="106.891667" y="303.64" style="stroke: #000000; stroke-width: 0.8"/>
      </g>
     </g>
     <g id="text_2">
      <!-- 2 -->
      <g transform="translate(103.710417 318.238437) scale(0.1 -0.1)">
       <defs>
        <path id="DejaVuSans-32" d="M 1228 531 
L 3431 531 
L 3431 0 
L 469 0 
L 469 531 
Q 828 903 1448 1529 
Q 2069 2156 2228 2338 
Q 2531 2678 2651 2914 
Q 2772 3150 2772 3378 
Q 2772 3750 2511 3984 
Q 2250 4219 1831 4219 
Q 1534 4219 1204 4116 
Q 875 4013 500 3803 
L 500 4441 
Q 881 4594 1212 4672 
Q 1544 4750 1819 4750 
Q 2544 4750 2975 4387 
Q 3406 4025 3406 3419 
Q 3406 3131 3298 2873 
Q 3191 2616 2906 2266 
Q 2828 2175 2409 1742 
Q 1991 1309 1228 531 
z
" transform="scale(0.015625)"/>
       </defs>
       <use xlink:href="#DejaVuSans-32"/>
      </g>
     </g>
    </g>
    <g id="xtick_3">
     <g id="line2d_5">
      <path d="M 156.798333 303.64 
L 156.798333 25.44 
" clip-path="url(#pf980e26d6d)" style="fill: none; stroke: #b0b0b0; stroke-opacity: 0.3; stroke-width: 0.8; stroke-linecap: square"/>
     </g>
     <g id="line2d_6">
      <g>
       <use xlink:href="#m1746970f9b" x="156.798333" y="303.64" style="stroke: #000000; stroke-width: 0.8"/>
      </g>
     </g>
     <g id="text_3">
      <!-- 4 -->
      <g transform="translate(153.617083 318.238437) scale(0.1 -0.1)">
       <defs>
        <path id="DejaVuSans-34" d="M 2419 4116 
L 825 1625 
L 2419 1625 
L 2419 4116 
z
M 2253 4666 
L 3047 4666 
L 3047 1625 
L 3713 1625 
L 3713 1100 
L 3047 1100 
L 3047 0 
L 2419 0 
L 2419 1100 
L 313 1100 
L 313 1709 
L 2253 4666 
z
" transform="scale(0.015625)"/>
       </defs>
       <use xlink:href="#DejaVuSans-34"/>
      </g>
     </g>
    </g>
    <g id="xtick_4">
     <g id="line2d_7">
      <path d="M 206.705 303.64 
L 206.705 25.44 
" clip-path="url(#pf980e26d6d)" style="fill: none; stroke: #b0b0b0; stroke-opacity: 0.3; stroke-width: 0.8; stroke-linecap: square"/>
     </g>
     <g id="line2d_8">
      <g>
       <use xlink:href="#m1746970f9b" x="206.705" y="303.64" style="stroke: #000000; stroke-width: 0.8"/>
      </g>
     </g>
     <g id="text_4">
      <!-- 6 -->
      <g transform="translate(203.52375 318.238437) scale(0.1 -0.1)">
       <defs>
        <path id="DejaVuSans-36" d="M 2113 2584 
Q 1688 2584 1439 2293 
Q 1191 2003 1191 1497 
Q 1191 994 1439 701 
Q 1688 409 2113 409 
Q 2538 409 2786 701 
Q 3034 994 3034 1497 
Q 3034 2003 2786 2293 
Q 2538 2584 2113 2584 
z
M 3366 4563 
L 3366 3988 
Q 3128 4100 2886 4159 
Q 2644 4219 2406 4219 
Q 1781 4219 1451 3797 
Q 1122 3375 1075 2522 
Q 1259 2794 1537 2939 
Q 1816 3084 2150 3084 
Q 2853 3084 3261 2657 
Q 3669 2231 3669 1497 
Q 3669 778 3244 343 
Q 2819 -91 2113 -91 
Q 1303 -91 875 529 
Q 447 1150 447 2328 
Q 447 3434 972 4092 
Q 1497 4750 2381 4750 
Q 2619 4750 2861 4703 
Q 3103 4656 3366 4563 
z
" transform="scale(0.015625)"/>
       </defs>
       <use xlink:href="#DejaVuSans-36"/>
      </g>
     </g>
    </g>
    <g id="xtick_5">
     <g id="line2d_9">
      <path d="M 256.611667 303.64 
L 256.611667 25.44 
" clip-path="url(#pf980e26d6d)" style="fill: none; stroke: #b0b0b0; stroke-opacity: 0.3; stroke-width: 0.8; stroke-linecap: square"/>
     </g>
     <g id="line2d_10">
      <g>
       <use xlink:href="#m1746970f9b" x="256.611667" y="303.64" style="stroke: #000000; stroke-width: 0.8"/>
      </g>
     </g>
     <g id="text_5">
      <!-- 8 -->
      <g transform="translate(253.430417 318.238437) scale(0.1 -0.1)">
       <defs>
        <path id="DejaVuSans-38" d="M 2034 2216 
Q 1584 2216 1326 1975 
Q 1069 1734 1069 1313 
Q 1069 891 1326 650 
Q 1584 409 2034 409 
Q 2484 409 2743 651 
Q 3003 894 3003 1313 
Q 3003 1734 2745 1975 
Q 2488 2216 2034 2216 
z
M 1403 2484 
Q 997 2584 770 2862 
Q 544 3141 544 3541 
Q 544 4100 942 4425 
Q 1341 4750 2034 4750 
Q 2731 4750 3128 4425 
Q 3525 4100 3525 3541 
Q 3525 3141 3298 2862 
Q 3072 2584 2669 2484 
Q 3125 2378 3379 2068 
Q 3634 1759 3634 1313 
Q 3634 634 3220 271 
Q 2806 -91 2034 -91 
Q 1263 -91 848 271 
Q 434 634 434 1313 
Q 434 1759 690 2068 
Q 947 2378 1403 2484 
z
M 1172 3481 
Q 1172 3119 1398 2916 
Q 1625 2713 2034 2713 
Q 2441 2713 2670 2916 
Q 2900 3119 2900 3481 
Q 2900 3844 2670 4047 
Q 2441 4250 2034 4250 
Q 1625 4250 1398 4047 
Q 1172 3844 1172 3481 
z
" transform="scale(0.015625)"/>
       </defs>
       <use xlink:href="#DejaVuSans-38"/>
      </g>
     </g>
    </g>
    <g id="xtick_6">
     <g id="line2d_11">
      <path d="M 306.518333 303.64 
L 306.518333 25.44 
" clip-path="url(#pf980e26d6d)" style="fill: none; stroke: #b0b0b0; stroke-opacity: 0.3; stroke-width: 0.8; stroke-linecap: square"/>
     </g>
     <g id="line2d_12">
      <g>
       <use xlink:href="#m1746970f9b" x="306.518333" y="303.64" style="stroke: #000000; stroke-width: 0.8"/>
      </g>
     </g>
     <g id="text_6">
      <!-- 10 -->
      <g transform="translate(300.155833 318.238437) scale(0.1 -0.1)">
       <defs>
        <path id="DejaVuSans-31" d="M 794 531 
L 1825 531 
L 1825 4091 
L 703 3866 
L 703 4441 
L 1819 4666 
L 2450 4666 
L 2450 531 
L 3481 531 
L 3481 0 
L 794 0 
L 794 531 
z
" transform="scale(0.015625)"/>
       </defs>
       <use xlink:href="#DejaVuSans-31"/>
       <use xlink:href="#DejaVuSans-30" transform="translate(63.623047 0)"/>
      </g>
     </g>
    </g>
    <g id="xtick_7">
     <g id="line2d_13">
      <path d="M 356.425 303.64 
L 356.425 25.44 
" clip-path="url(#pf980e26d6d)" style="fill: none; stroke: #b0b0b0; stroke-opacity: 0.3; stroke-width: 0.8; stroke-linecap: square"/>
     </g>
     <g id="line2d_14">
      <g>
       <use xlink:href="#m1746970f9b" x="356.425" y="303.64" style="stroke: #000000; stroke-width: 0.8"/>
      </g>
     </g>
     <g id="text_7">
      <!-- 12 -->
      <g transform="translate(350.0625 318.238437) scale(0.1 -0.1)">
       <use xlink:href="#DejaVuSans-31"/>
       <use xlink:href="#DejaVuSans-32" transform="translate(63.623047 0)"/>
      </g>
     </g>
    </g>
    <g id="xtick_8">
     <g id="line2d_15">
      <path d="M 406.331667 303.64 
L 406.331667 25.44 
" clip-path="url(#pf980e26d6d)" style="fill: none; stroke: #b0b0b0; stroke-opacity: 0.3; stroke-width: 0.8; stroke-linecap: square"/>
     </g>
     <g id="line2d_16">
      <g>
       <use xlink:href="#m1746970f9b" x="406.331667" y="303.64" style="stroke: #000000; stroke-width: 0.8"/>
      </g>
     </g>
     <g id="text_8">
      <!-- 14 -->
      <g transform="translate(399.969167 318.238437) scale(0.1 -0.1)">
       <use xlink:href="#DejaVuSans-31"/>
       <use xlink:href="#DejaVuSans-34" transform="translate(63.623047 0)"/>
      </g>
     </g>
    </g>
    <g id="text_9">
     <!-- Time (minutes) -->
     <g transform="translate(206.1725 331.916562) scale(0.1 -0.1)">
      <defs>
       <path id="DejaVuSans-54" d="M -19 4666 
L 3928 4666 
L 3928 4134 
L 2272 4134 
L 2272 0 
L 1638 0 
L 1638 4134 
L -19 4134 
L -19 4666 
z
" transform="scale(0.015625)"/>
       <path id="DejaVuSans-69" d="M 603 3500 
L 1178 3500 
L 1178 0 
L 603 0 
L 603 3500 
z
M 603 4863 
L 1178 4863 
L 1178 4134 
L 603 4134 
L 603 4863 
z
" transform="scale(0.015625)"/>
       <path id="DejaVuSans-6d" d="M 3328 2828 
Q 3544 3216 3844 3400 
Q 4144 3584 4550 3584 
Q 5097 3584 5394 3201 
Q 5691 2819 5691 2113 
L 5691 0 
L 5113 0 
L 5113 2094 
Q 5113 2597 4934 2840 
Q 4756 3084 4391 3084 
Q 3944 3084 3684 2787 
Q 3425 2491 3425 1978 
L 3425 0 
L 2847 0 
L 2847 2094 
Q 2847 2600 2669 2842 
Q 2491 3084 2119 3084 
Q 1678 3084 1418 2786 
Q 1159 2488 1159 1978 
L 1159 0 
L 581 0 
L 581 3500 
L 1159 3500 
L 1159 2956 
Q 1356 3278 1631 3431 
Q 1906 3584 2284 3584 
Q 2666 3584 2933 3390 
Q 3200 3197 3328 2828 
z
" transform="scale(0.015625)"/>
       <path id="DejaVuSans-65" d="M 3597 1894 
L 3597 1613 
L 953 1613 
Q 991 1019 1311 708 
Q 1631 397 2203 397 
Q 2534 397 2845 478 
Q 3156 559 3463 722 
L 3463 178 
Q 3153 47 2828 -22 
Q 2503 -91 2169 -91 
Q 1331 -91 842 396 
Q 353 884 353 1716 
Q 353 2575 817 3079 
Q 1281 3584 2069 3584 
Q 2775 3584 3186 3129 
Q 3597 2675 3597 1894 
z
M 3022 2063 
Q 3016 2534 2758 2815 
Q 2500 3097 2075 3097 
Q 1594 3097 1305 2825 
Q 1016 2553 972 2059 
L 3022 2063 
z
" transform="scale(0.015625)"/>
       <path id="DejaVuSans-20" transform="scale(0.015625)"/>
       <path id="DejaVuSans-28" d="M 1984 4856 
Q 1566 4138 1362 3434 
Q 1159 2731 1159 2009 
Q 1159 1288 1364 580 
Q 1569 -128 1984 -844 
L 1484 -844 
Q 1016 -109 783 600 
Q 550 1309 550 2009 
Q 550 2706 781 3412 
Q 1013 4119 1484 4856 
L 1984 4856 
z
" transform="scale(0.015625)"/>
       <path id="DejaVuSans-6e" d="M 3513 2113 
L 3513 0 
L 2938 0 
L 2938 2094 
Q 2938 2591 2744 2837 
Q 2550 3084 2163 3084 
Q 1697 3084 1428 2787 
Q 1159 2491 1159 1978 
L 1159 0 
L 581 0 
L 581 3500 
L 1159 3500 
L 1159 2956 
Q 1366 3272 1645 3428 
Q 1925 3584 2291 3584 
Q 2894 3584 3203 3211 
Q 3513 2838 3513 2113 
z
" transform="scale(0.015625)"/>
       <path id="DejaVuSans-75" d="M 544 1381 
L 544 3500 
L 1119 3500 
L 1119 1403 
Q 1119 906 1312 657 
Q 1506 409 1894 409 
Q 2359 409 2629 706 
Q 2900 1003 2900 1516 
L 2900 3500 
L 3475 3500 
L 3475 0 
L 2900 0 
L 2900 538 
Q 2691 219 2414 64 
Q 2138 -91 1772 -91 
Q 1169 -91 856 284 
Q 544 659 544 1381 
z
M 1991 3584 
L 1991 3584 
z
" transform="scale(0.015625)"/>
       <path id="DejaVuSans-74" d="M 1172 4494 
L 1172 3500 
L 2356 3500 
L 2356 3053 
L 1172 3053 
L 1172 1153 
Q 1172 725 1289 603 
Q 1406 481 1766 481 
L 2356 481 
L 2356 0 
L 1766 0 
Q 1100 0 847 248 
Q 594 497 594 1153 
L 594 3053 
L 172 3053 
L 172 3500 
L 594 3500 
L 594 4494 
L 1172 4494 
z
" transform="scale(0.015625)"/>
       <path id="DejaVuSans-73" d="M 2834 3397 
L 2834 2853 
Q 2591 2978 2328 3040 
Q 2066 3103 1784 3103 
Q 1356 3103 1142 2972 
Q 928 2841 928 2578 
Q 928 2378 1081 2264 
Q 1234 2150 1697 2047 
L 1894 2003 
Q 2506 1872 2764 1633 
Q 3022 1394 3022 966 
Q 3022 478 2636 193 
Q 2250 -91 1575 -91 
Q 1294 -91 989 -36 
Q 684 19 347 128 
L 347 722 
Q 666 556 975 473 
Q 1284 391 1588 391 
Q 1994 391 2212 530 
Q 2431 669 2431 922 
Q 2431 1156 2273 1281 
Q 2116 1406 1581 1522 
L 1381 1569 
Q 847 1681 609 1914 
Q 372 2147 372 2553 
Q 372 3047 722 3315 
Q 1072 3584 1716 3584 
Q 2034 3584 2315 3537 
Q 2597 3491 2834 3397 
z
" transform="scale(0.015625)"/>
       <path id="DejaVuSans-29" d="M 513 4856 
L 1013 4856 
Q 1481 4119 1714 3412 
Q 1947 2706 1947 2009 
Q 1947 1309 1714 600 
Q 1481 -109 1013 -844 
L 513 -844 
Q 928 -128 1133 580 
Q 1338 1288 1338 2009 
Q 1338 2731 1133 3434 
Q 928 4138 513 4856 
z
" transform="scale(0.015625)"/>
      </defs>
      <use xlink:href="#DejaVuSans-54"/>
      <use xlink:href="#DejaVuSans-69" transform="translate(57.958984 0)"/>
      <use xlink:href="#DejaVuSans-6d" transform="translate(85.742188 0)"/>
      <use xlink:href="#DejaVuSans-65" transform="translate(183.154297 0)"/>
      <use xlink:href="#DejaVuSans-20" transform="translate(244.677734 0)"/>
      <use xlink:href="#DejaVuSans-28" transform="translate(276.464844 0)"/>
      <use xlink:href="#DejaVuSans-6d" transform="translate(315.478516 0)"/>
      <use xlink:href="#DejaVuSans-69" transform="translate(412.890625 0)"/>
      <use xlink:href="#DejaVuSans-6e" transform="translate(440.673828 0)"/>
      <use xlink:href="#DejaVuSans-75" transform="translate(504.052734 0)"/>
      <use xlink:href="#DejaVuSans-74" transform="translate(567.431641 0)"/>
      <use xlink:href="#DejaVuSans-65" transform="translate(606.640625 0)"/>
      <use xlink:href="#DejaVuSans-73" transform="translate(668.164062 0)"/>
      <use xlink:href="#DejaVuSans-29" transform="translate(720.263672 0)"/>
     </g>
    </g>
   </g>
   <g id="matplotlib.axis_2">
    <g id="ytick_1">
     <g id="line2d_17">
      <path d="M 38.27 290.495997 
L 450 290.495997 
" clip-path="url(#pf980e26d6d)" style="fill: none; stroke: #b0b0b0; stroke-opacity: 0.3; stroke-width: 0.8; stroke-linecap: square"/>
     </g>
     <g id="line2d_18">
      <defs>
       <path id="mea04f79810" d="M 0 0 
L -3.5 0 
" style="stroke: #000000; stroke-width: 0.8"/>
      </defs>
      <g>
       <use xlink:href="#mea04f79810" x="38.27" y="290.495997" style="stroke: #000000; stroke-width: 0.8"/>
      </g>
     </g>
     <g id="text_10">
      <!-- 0 -->
      <g transform="translate(24.9075 294.295216) scale(0.1 -0.1)">
       <use xlink:href="#DejaVuSans-30"/>
      </g>
     </g>
    </g>
    <g id="ytick_2">
     <g id="line2d_19">
      <path d="M 38.27 252.407048 
L 450 252.407048 
" clip-path="url(#pf980e26d6d)" style="fill: none; stroke: #b0b0b0; stroke-opacity: 0.3; stroke-width: 0.8; stroke-linecap: square"/>
     </g>
     <g id="line2d_20">
      <g>
       <use xlink:href="#mea04f79810" x="38.27" y="252.407048" style="stroke: #000000; stroke-width: 0.8"/>
      </g>
     </g>
     <g id="text_11">
      <!-- 1 -->
      <g transform="translate(24.9075 256.206267) scale(0.1 -0.1)">
       <use xlink:href="#DejaVuSans-31"/>
      </g>
     </g>
    </g>
    <g id="ytick_3">
     <g id="line2d_21">
      <path d="M 38.27 214.3181 
L 450 214.3181 
" clip-path="url(#pf980e26d6d)" style="fill: none; stroke: #b0b0b0; stroke-opacity: 0.3; stroke-width: 0.8; stroke-linecap: square"/>
     </g>
     <g id="line2d_22">
      <g>
       <use xlink:href="#mea04f79810" x="38.27" y="214.3181" style="stroke: #000000; stroke-width: 0.8"/>
      </g>
     </g>
     <g id="text_12">
      <!-- 2 -->
      <g transform="translate(24.9075 218.117319) scale(0.1 -0.1)">
       <use xlink:href="#DejaVuSans-32"/>
      </g>
     </g>
    </g>
    <g id="ytick_4">
     <g id="line2d_23">
      <path d="M 38.27 176.229151 
L 450 176.229151 
" clip-path="url(#pf980e26d6d)" style="fill: none; stroke: #b0b0b0; stroke-opacity: 0.3; stroke-width: 0.8; stroke-linecap: square"/>
     </g>
     <g id="line2d_24">
      <g>
       <use xlink:href="#mea04f79810" x="38.27" y="176.229151" style="stroke: #000000; stroke-width: 0.8"/>
      </g>
     </g>
     <g id="text_13">
      <!-- 3 -->
      <g transform="translate(24.9075 180.02837) scale(0.1 -0.1)">
       <defs>
        <path id="DejaVuSans-33" d="M 2597 2516 
Q 3050 2419 3304 2112 
Q 3559 1806 3559 1356 
Q 3559 666 3084 287 
Q 2609 -91 1734 -91 
Q 1441 -91 1130 -33 
Q 819 25 488 141 
L 488 750 
Q 750 597 1062 519 
Q 1375 441 1716 441 
Q 2309 441 2620 675 
Q 2931 909 2931 1356 
Q 2931 1769 2642 2001 
Q 2353 2234 1838 2234 
L 1294 2234 
L 1294 2753 
L 1863 2753 
Q 2328 2753 2575 2939 
Q 2822 3125 2822 3475 
Q 2822 3834 2567 4026 
Q 2313 4219 1838 4219 
Q 1578 4219 1281 4162 
Q 984 4106 628 3988 
L 628 4550 
Q 988 4650 1302 4700 
Q 1616 4750 1894 4750 
Q 2613 4750 3031 4423 
Q 3450 4097 3450 3541 
Q 3450 3153 3228 2886 
Q 3006 2619 2597 2516 
z
" transform="scale(0.015625)"/>
       </defs>
       <use xlink:href="#DejaVuSans-33"/>
      </g>
     </g>
    </g>
    <g id="ytick_5">
     <g id="line2d_25">
      <path d="M 38.27 138.140203 
L 450 138.140203 
" clip-path="url(#pf980e26d6d)" style="fill: none; stroke: #b0b0b0; stroke-opacity: 0.3; stroke-width: 0.8; stroke-linecap: square"/>
     </g>
     <g id="line2d_26">
      <g>
       <use xlink:href="#mea04f79810" x="38.27" y="138.140203" style="stroke: #000000; stroke-width: 0.8"/>
      </g>
     </g>
     <g id="text_14">
      <!-- 4 -->
      <g transform="translate(24.9075 141.939422) scale(0.1 -0.1)">
       <use xlink:href="#DejaVuSans-34"/>
      </g>
     </g>
    </g>
    <g id="ytick_6">
     <g id="line2d_27">
      <path d="M 38.27 100.051254 
L 450 100.051254 
" clip-path="url(#pf980e26d6d)" style="fill: none; stroke: #b0b0b0; stroke-opacity: 0.3; stroke-width: 0.8; stroke-linecap: square"/>
     </g>
     <g id="line2d_28">
      <g>
       <use xlink:href="#mea04f79810" x="38.27" y="100.051254" style="stroke: #000000; stroke-width: 0.8"/>
      </g>
     </g>
     <g id="text_15">
      <!-- 5 -->
      <g transform="translate(24.9075 103.850473) scale(0.1 -0.1)">
       <defs>
        <path id="DejaVuSans-35" d="M 691 4666 
L 3169 4666 
L 3169 4134 
L 1269 4134 
L 1269 2991 
Q 1406 3038 1543 3061 
Q 1681 3084 1819 3084 
Q 2600 3084 3056 2656 
Q 3513 2228 3513 1497 
Q 3513 744 3044 326 
Q 2575 -91 1722 -91 
Q 1428 -91 1123 -41 
Q 819 9 494 109 
L 494 744 
Q 775 591 1075 516 
Q 1375 441 1709 441 
Q 2250 441 2565 725 
Q 2881 1009 2881 1497 
Q 2881 1984 2565 2268 
Q 2250 2553 1709 2553 
Q 1456 2553 1204 2497 
Q 953 2441 691 2322 
L 691 4666 
z
" transform="scale(0.015625)"/>
       </defs>
       <use xlink:href="#DejaVuSans-35"/>
      </g>
     </g>
    </g>
    <g id="ytick_7">
     <g id="line2d_29">
      <path d="M 38.27 61.962306 
L 450 61.962306 
" clip-path="url(#pf980e26d6d)" style="fill: none; stroke: #b0b0b0; stroke-opacity: 0.3; stroke-width: 0.8; stroke-linecap: square"/>
     </g>
     <g id="line2d_30">
      <g>
       <use xlink:href="#mea04f79810" x="38.27" y="61.962306" style="stroke: #000000; stroke-width: 0.8"/>
      </g>
     </g>
     <g id="text_16">
      <!-- 6 -->
      <g transform="translate(24.9075 65.761525) scale(0.1 -0.1)">
       <use xlink:href="#DejaVuSans-36"/>
      </g>
     </g>
    </g>
    <g id="text_17">
     <!-- EDA signals (μS) -->
     <g transform="translate(18.827813 205.711875) rotate(-90) scale(0.1 -0.1)">
      <defs>
       <path id="DejaVuSans-45" d="M 628 4666 
L 3578 4666 
L 3578 4134 
L 1259 4134 
L 1259 2753 
L 3481 2753 
L 3481 2222 
L 1259 2222 
L 1259 531 
L 3634 531 
L 3634 0 
L 628 0 
L 628 4666 
z
" transform="scale(0.015625)"/>
       <path id="DejaVuSans-44" d="M 1259 4147 
L 1259 519 
L 2022 519 
Q 2988 519 3436 956 
Q 3884 1394 3884 2338 
Q 3884 3275 3436 3711 
Q 2988 4147 2022 4147 
L 1259 4147 
z
M 628 4666 
L 1925 4666 
Q 3281 4666 3915 4102 
Q 4550 3538 4550 2338 
Q 4550 1131 3912 565 
Q 3275 0 1925 0 
L 628 0 
L 628 4666 
z
" transform="scale(0.015625)"/>
       <path id="DejaVuSans-41" d="M 2188 4044 
L 1331 1722 
L 3047 1722 
L 2188 4044 
z
M 1831 4666 
L 2547 4666 
L 4325 0 
L 3669 0 
L 3244 1197 
L 1141 1197 
L 716 0 
L 50 0 
L 1831 4666 
z
" transform="scale(0.015625)"/>
       <path id="DejaVuSans-67" d="M 2906 1791 
Q 2906 2416 2648 2759 
Q 2391 3103 1925 3103 
Q 1463 3103 1205 2759 
Q 947 2416 947 1791 
Q 947 1169 1205 825 
Q 1463 481 1925 481 
Q 2391 481 2648 825 
Q 2906 1169 2906 1791 
z
M 3481 434 
Q 3481 -459 3084 -895 
Q 2688 -1331 1869 -1331 
Q 1566 -1331 1297 -1286 
Q 1028 -1241 775 -1147 
L 775 -588 
Q 1028 -725 1275 -790 
Q 1522 -856 1778 -856 
Q 2344 -856 2625 -561 
Q 2906 -266 2906 331 
L 2906 616 
Q 2728 306 2450 153 
Q 2172 0 1784 0 
Q 1141 0 747 490 
Q 353 981 353 1791 
Q 353 2603 747 3093 
Q 1141 3584 1784 3584 
Q 2172 3584 2450 3431 
Q 2728 3278 2906 2969 
L 2906 3500 
L 3481 3500 
L 3481 434 
z
" transform="scale(0.015625)"/>
       <path id="DejaVuSans-61" d="M 2194 1759 
Q 1497 1759 1228 1600 
Q 959 1441 959 1056 
Q 959 750 1161 570 
Q 1363 391 1709 391 
Q 2188 391 2477 730 
Q 2766 1069 2766 1631 
L 2766 1759 
L 2194 1759 
z
M 3341 1997 
L 3341 0 
L 2766 0 
L 2766 531 
Q 2569 213 2275 61 
Q 1981 -91 1556 -91 
Q 1019 -91 701 211 
Q 384 513 384 1019 
Q 384 1609 779 1909 
Q 1175 2209 1959 2209 
L 2766 2209 
L 2766 2266 
Q 2766 2663 2505 2880 
Q 2244 3097 1772 3097 
Q 1472 3097 1187 3025 
Q 903 2953 641 2809 
L 641 3341 
Q 956 3463 1253 3523 
Q 1550 3584 1831 3584 
Q 2591 3584 2966 3190 
Q 3341 2797 3341 1997 
z
" transform="scale(0.015625)"/>
       <path id="DejaVuSans-6c" d="M 603 4863 
L 1178 4863 
L 1178 0 
L 603 0 
L 603 4863 
z
" transform="scale(0.015625)"/>
       <path id="DejaVuSans-3bc" d="M 544 -1331 
L 544 3500 
L 1119 3500 
L 1119 1325 
Q 1119 872 1334 640 
Q 1550 409 1972 409 
Q 2434 409 2667 671 
Q 2900 934 2900 1459 
L 2900 3500 
L 3475 3500 
L 3475 806 
Q 3475 619 3529 530 
Q 3584 441 3700 441 
Q 3728 441 3778 458 
Q 3828 475 3916 513 
L 3916 50 
Q 3788 -22 3673 -56 
Q 3559 -91 3450 -91 
Q 3234 -91 3106 31 
Q 2978 153 2931 403 
Q 2775 156 2548 32 
Q 2322 -91 2016 -91 
Q 1697 -91 1473 31 
Q 1250 153 1119 397 
L 1119 -1331 
L 544 -1331 
z
" transform="scale(0.015625)"/>
       <path id="DejaVuSans-53" d="M 3425 4513 
L 3425 3897 
Q 3066 4069 2747 4153 
Q 2428 4238 2131 4238 
Q 1616 4238 1336 4038 
Q 1056 3838 1056 3469 
Q 1056 3159 1242 3001 
Q 1428 2844 1947 2747 
L 2328 2669 
Q 3034 2534 3370 2195 
Q 3706 1856 3706 1288 
Q 3706 609 3251 259 
Q 2797 -91 1919 -91 
Q 1588 -91 1214 -16 
Q 841 59 441 206 
L 441 856 
Q 825 641 1194 531 
Q 1563 422 1919 422 
Q 2459 422 2753 634 
Q 3047 847 3047 1241 
Q 3047 1584 2836 1778 
Q 2625 1972 2144 2069 
L 1759 2144 
Q 1053 2284 737 2584 
Q 422 2884 422 3419 
Q 422 4038 858 4394 
Q 1294 4750 2059 4750 
Q 2388 4750 2728 4690 
Q 3069 4631 3425 4513 
z
" transform="scale(0.015625)"/>
      </defs>
      <use xlink:href="#DejaVuSans-45"/>
      <use xlink:href="#DejaVuSans-44" transform="translate(63.183594 0)"/>
      <use xlink:href="#DejaVuSans-41" transform="translate(138.435547 0)"/>
      <use xlink:href="#DejaVuSans-20" transform="translate(206.84375 0)"/>
      <use xlink:href="#DejaVuSans-73" transform="translate(238.630859 0)"/>
      <use xlink:href="#DejaVuSans-69" transform="translate(290.730469 0)"/>
      <use xlink:href="#DejaVuSans-67" transform="translate(318.513672 0)"/>
      <use xlink:href="#DejaVuSans-6e" transform="translate(381.990234 0)"/>
      <use xlink:href="#DejaVuSans-61" transform="translate(445.369141 0)"/>
      <use xlink:href="#DejaVuSans-6c" transform="translate(506.648438 0)"/>
      <use xlink:href="#DejaVuSans-73" transform="translate(534.431641 0)"/>
      <use xlink:href="#DejaVuSans-20" transform="translate(586.53125 0)"/>
      <use xlink:href="#DejaVuSans-28" transform="translate(618.318359 0)"/>
      <use xlink:href="#DejaVuSans-3bc" transform="translate(657.332031 0)"/>
      <use xlink:href="#DejaVuSans-53" transform="translate(720.955078 0)"/>
      <use xlink:href="#DejaVuSans-29" transform="translate(784.431641 0)"/>
     </g>
    </g>
   </g>
   <g id="line2d_31">
    <path d="M 56.985 92.786162 
L 57.50515 94.942091 
L 58.44142 100.156308 
L 59.48172 105.56527 
L 60.105901 107.824217 
L 60.730081 109.30989 
L 61.666351 110.789004 
L 62.394561 112.178068 
L 63.642921 115.330957 
L 64.579191 117.33558 
L 65.515461 118.786611 
L 66.659792 120.142432 
L 67.283972 120.586131 
L 67.804122 120.711426 
L 69.572632 120.821258 
L 70.196812 121.327117 
L 72.173382 123.178214 
L 73.941893 124.243196 
L 74.462043 124.406726 
L 74.878163 124.293858 
L 75.190253 123.953694 
L 75.502343 123.307271 
L 75.918463 121.877626 
L 76.438613 119.216625 
L 78.103093 109.956505 
L 78.831304 107.56849 
L 79.351454 106.503809 
L 79.663544 106.212596 
L 79.871604 106.202832 
L 80.079664 106.357577 
L 80.391754 106.911879 
L 80.807874 108.232619 
L 81.328024 110.676003 
L 82.160264 115.823942 
L 83.304594 123.023554 
L 83.720714 124.403701 
L 83.928774 124.615766 
L 84.136834 124.472513 
L 84.344894 123.977123 
L 84.656984 122.644974 
L 85.281165 118.636174 
L 86.425495 111.192198 
L 87.985945 103.040173 
L 88.506095 101.167379 
L 88.818185 100.628532 
L 89.026245 100.589412 
L 89.234305 100.837257 
L 89.546395 101.778626 
L 89.962515 104.084078 
L 90.586695 109.307278 
L 91.522966 117.264806 
L 91.835056 118.599974 
L 92.043116 118.85124 
L 92.147146 118.763881 
L 92.355206 118.149424 
L 92.667296 116.166925 
L 93.187446 110.714238 
L 94.019686 101.519659 
L 94.435806 99.040969 
L 94.747896 98.412835 
L 94.955956 98.488603 
L 95.268046 99.120656 
L 97.036556 103.92722 
L 98.180887 106.49744 
L 98.909097 107.909909 
L 99.325217 108.285668 
L 99.637307 108.301949 
L 100.053427 108.013576 
L 100.677607 107.496689 
L 100.885667 107.588853 
L 101.093727 107.990678 
L 101.405817 109.444393 
L 101.717907 112.255306 
L 102.134027 118.477353 
L 102.758207 132.333892 
L 103.798508 155.93132 
L 104.318658 162.926129 
L 104.734778 165.920566 
L 105.046868 166.90615 
L 105.254928 167.003624 
L 105.462988 166.626716 
L 105.671048 165.719451 
L 105.983138 163.206089 
L 106.399258 157.381546 
L 106.919408 146.063824 
L 107.959708 116.067542 
L 108.687918 97.722667 
L 109.208068 89.089594 
L 109.624188 85.255026 
L 109.936278 84.034526 
L 110.144339 83.887832 
L 110.352399 84.168232 
L 110.664489 85.15591 
L 112.849119 94.375078 
L 113.265239 98.237369 
L 113.889419 106.452333 
L 114.929719 120.27014 
L 115.345839 123.471547 
L 115.657929 124.587574 
L 115.865989 124.703199 
L 116.074049 124.331534 
L 116.38614 122.926951 
L 116.80226 119.729129 
L 118.46674 105.083211 
L 118.6748 104.640285 
L 118.77883 104.602907 
L 118.98689 104.881534 
L 119.29898 106.071816 
L 119.92316 109.999986 
L 120.44331 112.918166 
L 120.7554 113.793273 
L 120.96346 113.891462 
L 121.17152 113.58803 
L 121.48361 112.44464 
L 122.00376 109.32732 
L 122.627941 105.704911 
L 122.940031 104.751182 
L 123.148091 104.5532 
L 123.356151 104.696204 
L 123.668241 105.436799 
L 124.812571 108.927397 
L 125.020631 108.911046 
L 125.228691 108.529888 
L 125.540781 107.214312 
L 125.956901 104.10167 
L 127.517351 90.193004 
L 127.725411 89.894665 
L 127.829441 89.953408 
L 128.037501 90.44758 
L 128.453621 92.538485 
L 129.181832 96.631071 
L 129.493922 97.458823 
L 129.701982 97.566724 
L 129.910042 97.345759 
L 130.222132 96.547556 
L 131.054372 94.173487 
L 131.262432 94.104395 
L 131.470492 94.403729 
L 131.782582 95.602846 
L 132.198702 98.495597 
L 133.863182 112.292016 
L 134.279302 113.697676 
L 134.695422 114.409292 
L 135.319603 114.980127 
L 136.151843 115.490189 
L 137.192143 115.906313 
L 137.504233 116.498533 
L 137.816323 117.703941 
L 138.128413 119.796748 
L 138.544533 124.376891 
L 139.064683 133.359058 
L 139.792893 150.986699 
L 140.833193 176.079505 
L 141.249314 181.51155 
L 141.457374 182.612892 
L 141.561404 182.732922 
L 141.665434 182.566709 
L 141.873494 181.404129 
L 142.185584 177.796401 
L 142.705734 168.284546 
L 143.954094 143.715708 
L 144.578274 135.785177 
L 145.202454 130.796033 
L 145.722604 128.20905 
L 146.242754 126.633578 
L 146.658874 125.990326 
L 146.970964 125.881071 
L 147.179024 126.022393 
L 147.491115 126.654567 
L 147.803205 127.973081 
L 148.115295 130.227922 
L 148.531415 135.072951 
L 149.051565 144.205138 
L 150.716045 176.986932 
L 151.340225 183.883344 
L 152.068435 189.336707 
L 152.484555 191.252618 
L 152.796645 191.78889 
L 153.004705 191.60621 
L 153.212765 190.952165 
L 153.524855 189.087828 
L 153.940976 185.125888 
L 154.565156 176.833981 
L 155.397396 162.610342 
L 157.894116 116.268179 
L 158.414266 111.856017 
L 158.830386 110.115048 
L 159.142476 109.705202 
L 159.350536 109.779578 
L 159.662626 110.285467 
L 160.286807 112.043757 
L 161.015017 113.887166 
L 161.431137 114.34152 
L 161.743227 114.319214 
L 162.055317 113.990086 
L 162.471437 113.139225 
L 163.615767 110.454633 
L 163.823827 110.480494 
L 164.031887 110.872125 
L 164.343977 112.3224 
L 164.656067 114.991228 
L 165.072187 120.586446 
L 165.696367 132.839302 
L 167.152788 163.676966 
L 167.464878 166.241959 
L 167.568908 166.508974 
L 167.672938 166.469596 
L 167.880998 165.486384 
L 168.193088 161.981443 
L 168.817268 150.770459 
L 169.441448 140.746181 
L 169.857568 137.219287 
L 170.169658 136.178409 
L 170.377718 135.998688 
L 171.105928 135.961366 
L 171.313988 135.554863 
L 171.626078 134.339962 
L 172.042198 131.618487 
L 173.082499 122.330581 
L 173.706679 117.974594 
L 174.122799 116.354036 
L 174.434889 115.838871 
L 174.642949 115.784298 
L 174.955039 116.034234 
L 175.475189 116.940498 
L 176.307429 118.341315 
L 176.827579 118.77956 
L 177.347729 118.910908 
L 177.971909 118.805357 
L 178.596089 118.48707 
L 179.22027 117.911249 
L 180.05251 116.746915 
L 180.67669 116.010985 
L 180.98878 115.881241 
L 181.30087 115.954403 
L 181.71699 116.307106 
L 182.96535 117.531799 
L 183.58953 118.110237 
L 184.83789 119.487085 
L 185.045951 119.336931 
L 185.358041 118.649592 
L 185.670131 117.340125 
L 186.190281 113.909121 
L 187.334611 105.501999 
L 187.750731 103.979822 
L 188.062821 103.598589 
L 188.270881 103.657146 
L 188.582971 104.100791 
L 189.103121 105.410136 
L 190.039391 108.502357 
L 192.119992 115.740733 
L 194.200592 122.0361 
L 194.512682 122.238332 
L 194.824772 122.10105 
L 195.136862 121.653754 
L 195.657012 120.409504 
L 196.801342 117.494445 
L 197.217462 116.96269 
L 197.633583 116.807777 
L 198.049703 116.950879 
L 199.298063 117.629445 
L 199.610153 117.510513 
L 200.026273 117.044358 
L 200.546423 116.035372 
L 201.482693 114.110264 
L 201.898813 113.688379 
L 202.418963 113.540428 
L 202.939113 113.357323 
L 203.251203 112.996237 
L 203.667324 112.101451 
L 204.499564 109.442937 
L 205.123744 107.782095 
L 205.643894 107.001008 
L 206.892254 105.559029 
L 207.620464 103.987376 
L 208.452704 102.322832 
L 209.076884 101.615375 
L 210.117185 100.923004 
L 210.845395 100.309175 
L 211.261515 99.686654 
L 211.677635 98.634709 
L 212.093755 96.963188 
L 212.717935 93.264037 
L 213.654205 87.453979 
L 214.070325 86.134424 
L 214.278385 85.905899 
L 214.486445 85.949831 
L 214.798535 86.44375 
L 215.318685 87.991117 
L 216.775106 92.753535 
L 217.399286 94.122159 
L 217.919436 94.759317 
L 218.231526 94.864416 
L 218.543616 94.736543 
L 218.959736 94.209782 
L 219.479886 93.103483 
L 220.832276 89.478045 
L 221.352426 87.475033 
L 221.872576 84.486666 
L 223.328997 75.171846 
L 223.641087 74.52784 
L 223.849147 74.452984 
L 224.057207 74.605594 
L 224.473327 75.32535 
L 225.305567 76.833779 
L 225.825717 77.318428 
L 226.449897 77.572211 
L 226.866017 77.546988 
L 227.282137 77.287097 
L 227.906317 76.522223 
L 228.322437 76.124303 
L 228.530497 76.117641 
L 228.738558 76.31639 
L 229.050648 77.100116 
L 229.466768 79.163552 
L 229.986918 83.200224 
L 232.379608 105.916328 
L 234.252148 122.811243 
L 234.876329 126.366523 
L 235.292449 127.645777 
L 235.604539 127.991308 
L 235.812599 127.924822 
L 236.020659 127.61471 
L 236.332749 126.667383 
L 236.748869 124.416852 
L 237.269019 119.866794 
L 237.893199 112.113037 
L 239.557679 90.075059 
L 240.181859 84.373398 
L 240.597979 81.989635 
L 240.910069 81.237882 
L 241.11813 81.29273 
L 241.32619 81.788827 
L 241.63828 83.264421 
L 242.26246 87.795548 
L 242.99067 92.753752 
L 243.40679 94.339008 
L 243.71888 94.777128 
L 243.92694 94.725042 
L 244.23903 94.203519 
L 244.75918 92.586218 
L 245.38336 90.777694 
L 245.69545 90.465698 
L 245.90351 90.569293 
L 246.2156 91.19412 
L 246.63172 92.740913 
L 248.088141 98.923876 
L 248.504261 99.662957 
L 248.816351 99.771853 
L 249.024411 99.625145 
L 249.336501 99.071763 
L 249.752621 97.708251 
L 250.272771 95.012938 
L 251.000981 89.738958 
L 251.833221 83.888248 
L 252.249341 82.40443 
L 252.457401 82.19312 
L 252.665461 82.326015 
L 252.977551 83.059693 
L 254.329942 87.403583 
L 254.642032 87.642451 
L 254.954122 87.59338 
L 256.202482 86.945103 
L 256.514572 87.096217 
L 256.930692 87.590427 
L 257.450842 88.60274 
L 258.699202 91.245384 
L 259.323382 91.958102 
L 260.883833 93.344528 
L 261.716073 94.113323 
L 262.132193 94.171079 
L 262.444283 93.956455 
L 262.756373 93.454354 
L 263.172493 92.246384 
L 263.692643 89.805032 
L 265.253093 81.363032 
L 265.565183 80.900956 
L 265.773243 80.901984 
L 266.085334 81.23518 
L 266.709514 82.083459 
L 266.917574 82.114452 
L 267.125634 81.919533 
L 267.437724 81.169449 
L 267.957874 78.975011 
L 268.582054 76.327876 
L 268.894144 75.694923 
L 269.102204 75.648895 
L 269.310264 75.905625 
L 269.622354 76.780004 
L 270.246534 79.506427 
L 271.078774 82.881663 
L 271.702954 84.543507 
L 272.743255 86.546062 
L 273.887585 88.328614 
L 277.008485 92.272624 
L 277.424605 92.424416 
L 277.840725 92.350432 
L 278.256845 92.040981 
L 278.672966 91.475263 
L 279.193116 90.323568 
L 279.713266 88.489833 
L 280.233416 85.689726 
L 280.857596 80.797533 
L 282.105956 70.288962 
L 282.418046 69.2007 
L 282.626106 69.021325 
L 282.834166 69.252271 
L 283.146256 70.222042 
L 284.706707 76.469127 
L 285.018797 76.837131 
L 285.330887 76.9142 
L 285.747007 76.704698 
L 286.891337 75.86926 
L 287.307457 75.961243 
L 288.451787 76.598095 
L 288.763877 76.374891 
L 289.179997 75.664996 
L 290.220297 73.536215 
L 290.532387 73.420311 
L 290.844477 73.67589 
L 291.260598 74.469529 
L 291.988808 75.983092 
L 292.196868 76.136303 
L 292.404928 76.047039 
L 292.612988 75.656726 
L 292.925078 74.397619 
L 293.341198 71.284637 
L 293.861348 65.048665 
L 295.733888 39.320032 
L 296.045978 38.188131 
L 296.254038 38.107271 
L 296.462098 38.483467 
L 296.774188 39.707286 
L 297.398369 43.420103 
L 298.438669 49.511938 
L 299.478969 55.12717 
L 299.999119 59.72987 
L 300.727329 68.931725 
L 301.871659 83.878444 
L 302.495839 89.115554 
L 303.015989 91.570044 
L 303.43211 92.572884 
L 303.84823 93.032984 
L 304.36838 93.212316 
L 304.88853 93.169037 
L 305.30465 92.963365 
L 305.72077 92.521608 
L 306.24092 91.544327 
L 306.8651 89.798216 
L 308.32152 85.477911 
L 308.73764 84.87092 
L 309.04973 84.764738 
L 309.36182 84.981734 
L 309.777941 85.711001 
L 311.026301 88.42646 
L 311.442421 88.703473 
L 311.858541 88.630199 
L 312.690781 88.10328 
L 313.210931 87.630967 
L 313.523021 87.089095 
L 313.835111 86.15693 
L 314.251231 84.0435 
L 314.667351 80.727075 
L 315.187501 74.828203 
L 315.915712 63.765054 
L 317.164072 44.110517 
L 317.580192 40.909962 
L 317.788252 40.384957 
L 317.892282 40.394769 
L 318.100342 40.927115 
L 318.412432 42.826217 
L 319.036612 48.883551 
L 319.764822 55.363359 
L 320.180942 57.13573 
L 320.389002 57.360286 
L 320.597062 57.175901 
L 320.909152 56.299247 
L 321.741392 53.316559 
L 321.949452 53.077551 
L 322.157513 53.18575 
L 322.365573 53.641342 
L 322.781693 55.408386 
L 324.446173 65.035506 
L 325.070353 69.275121 
L 325.694533 75.196184 
L 326.422743 84.458458 
L 328.503344 112.440452 
L 330.271854 131.767487 
L 330.896034 136.486223 
L 331.312154 138.351907 
L 331.728274 139.277575 
L 332.040364 139.513758 
L 332.352454 139.499221 
L 332.872604 139.194677 
L 334.120964 138.361971 
L 334.745145 138.271603 
L 335.577385 138.445902 
L 337.137835 138.963573 
L 337.970075 139.537546 
L 339.738585 140.8373 
L 340.362765 141.038127 
L 340.986946 141.012826 
L 342.755456 140.651181 
L 343.275606 140.927636 
L 343.899786 141.547903 
L 344.940086 142.929897 
L 345.772326 144.419137 
L 346.812626 146.358009 
L 347.228747 146.688804 
L 347.540837 146.676555 
L 347.852927 146.449436 
L 348.269047 145.851153 
L 348.789197 144.66964 
L 349.413377 142.618777 
L 350.661737 138.086487 
L 350.973827 137.576975 
L 351.181887 137.486044 
L 351.389947 137.595526 
L 351.702037 138.094075 
L 352.222187 139.511098 
L 353.262487 142.380685 
L 353.886668 143.43263 
L 354.406818 143.974745 
L 354.822938 144.12513 
L 355.135028 143.947046 
L 355.447118 143.377292 
L 355.759208 142.270415 
L 356.175328 139.74637 
L 356.695478 134.791243 
L 358.255928 117.563479 
L 358.568018 116.177479 
L 358.776078 115.822997 
L 358.984138 115.874159 
L 359.192198 116.259768 
L 359.608319 117.684654 
L 360.544589 121.089216 
L 360.856679 121.616641 
L 361.064739 121.724216 
L 361.272799 121.631931 
L 361.584889 121.131694 
L 362.001009 119.868279 
L 362.729219 116.615565 
L 363.561459 113.069783 
L 363.977579 112.112538 
L 364.289669 111.932625 
L 364.497729 112.088126 
L 364.809819 112.724691 
L 365.225939 114.236245 
L 365.95415 118.037896 
L 366.99445 123.470925 
L 367.61863 125.688583 
L 368.24281 127.102405 
L 369.17908 128.550691 
L 370.01132 129.578272 
L 370.42744 129.752423 
L 370.73953 129.592231 
L 371.05162 129.133973 
L 371.46774 128.096607 
L 372.612071 124.97455 
L 372.924161 124.728401 
L 373.132221 124.77927 
L 373.444311 125.147786 
L 373.964461 126.315294 
L 375.628941 130.507543 
L 376.461181 131.91008 
L 377.397451 133.040755 
L 378.957902 134.431463 
L 379.894172 135.128077 
L 380.310292 135.218962 
L 380.622382 135.117907 
L 381.038502 134.700549 
L 381.454622 133.944323 
L 382.078802 132.311383 
L 383.431192 128.678683 
L 384.783583 125.746514 
L 385.199703 123.860377 
L 385.719853 120.262213 
L 387.280303 107.966157 
L 387.592393 107.035476 
L 387.800453 106.841192 
L 388.008513 106.957422 
L 388.320603 107.608914 
L 388.840753 109.468982 
L 389.985083 113.665387 
L 390.817324 115.764004 
L 392.273744 118.810957 
L 392.897924 119.70065 
L 393.626134 120.320559 
L 394.354344 120.986579 
L 394.978524 121.950609 
L 397.059125 125.656426 
L 397.891365 126.432212 
L 400.804205 128.567697 
L 403.821076 130.46957 
L 405.173466 131.627186 
L 405.797646 131.926018 
L 406.317796 131.934699 
L 406.733916 131.686242 
L 407.150036 131.140414 
L 407.670186 130.032831 
L 409.022576 126.805405 
L 409.334666 126.547348 
L 409.646757 126.591167 
L 409.958847 126.91216 
L 410.478997 127.856794 
L 411.311237 129.347848 
L 411.727357 129.641607 
L 412.039447 129.604498 
L 412.455567 129.283834 
L 413.599897 128.165703 
L 414.224077 127.980483 
L 414.848257 127.767223 
L 415.264377 127.317544 
L 415.784528 126.290072 
L 416.824828 123.986439 
L 417.136918 123.700068 
L 417.449008 123.705468 
L 417.761098 123.981764 
L 418.281248 124.872378 
L 419.633638 127.432294 
L 420.153788 127.936641 
L 420.881998 128.288225 
L 421.610208 128.712273 
L 422.234389 129.39123 
L 424.106929 131.743738 
L 424.523049 131.903462 
L 424.939169 131.833859 
L 425.355289 131.531565 
L 425.979469 130.750393 
L 426.811709 129.735962 
L 427.227829 129.554638 
L 427.539919 129.619023 
L 427.956039 129.94171 
L 428.68425 130.883115 
L 430.66082 133.555213 
L 431.285 134.1836 
L 431.285 134.1836 
" clip-path="url(#pf980e26d6d)" style="fill: none; stroke-dasharray: 1.85,0.8; stroke-dashoffset: 0; stroke: #1f77b4; stroke-width: 0.5"/>
   </g>
   <g id="line2d_32">
    <path d="M 56.985 93.553799 
L 57.40112 94.648023 
L 57.92127 96.741769 
L 58.64948 100.660223 
L 61.354261 116.374956 
L 61.978441 118.405724 
L 62.602621 119.694526 
L 63.122771 120.312942 
L 63.642921 120.612327 
L 64.267101 120.676051 
L 65.307401 120.465384 
L 66.243671 120.371023 
L 67.075912 120.492968 
L 67.908152 120.858084 
L 68.636362 121.414364 
L 69.468602 122.363403 
L 70.508902 123.979648 
L 71.861292 126.02843 
L 72.485472 126.639368 
L 73.005623 126.861378 
L 73.421743 126.799659 
L 73.837863 126.48702 
L 74.358013 125.761664 
L 75.086223 124.307042 
L 77.270853 119.593396 
L 77.791003 118.99603 
L 78.207123 118.80131 
L 78.623243 118.84059 
L 79.143394 119.166227 
L 79.767574 119.87369 
L 80.703844 121.340251 
L 82.472354 124.176193 
L 83.304594 125.068628 
L 84.032804 125.524143 
L 84.656984 125.642099 
L 85.177135 125.529651 
L 85.697285 125.210582 
L 86.321465 124.535856 
L 87.153705 123.220864 
L 89.130275 119.933028 
L 89.754455 119.368011 
L 90.170575 119.239723 
L 90.586695 119.349949 
L 91.106845 119.75665 
L 92.875356 121.405783 
L 93.291476 121.411482 
L 93.603566 121.218137 
L 94.019686 120.634497 
L 94.435806 119.607197 
L 94.955956 117.657552 
L 96.100286 112.118165 
L 96.932526 108.606363 
L 97.452676 107.315233 
L 97.764767 107.042301 
L 97.972827 107.113173 
L 98.180887 107.410813 
L 98.492977 108.328419 
L 98.909097 110.519852 
L 99.429247 114.677472 
L 100.157457 122.51329 
L 101.509847 140.244424 
L 102.758207 155.762468 
L 103.486417 162.534763 
L 104.110598 166.48716 
L 104.526718 168.052829 
L 104.838808 168.617823 
L 105.046868 168.688573 
L 105.254928 168.504769 
L 105.567018 167.733351 
L 105.983138 165.735254 
L 106.399258 162.567358 
L 106.919408 156.859824 
L 107.647618 145.725838 
L 110.456429 97.998251 
L 110.976579 93.81808 
L 111.288669 92.737502 
L 111.496729 92.616853 
L 111.704789 92.927338 
L 112.016879 94.110214 
L 112.432999 96.807113 
L 113.057179 102.574188 
L 115.033749 122.49867 
L 115.449869 124.705461 
L 115.761959 125.582162 
L 116.074049 125.879197 
L 116.28211 125.79646 
L 116.5942 125.313129 
L 117.01032 124.12815 
L 117.73853 121.124155 
L 118.98689 115.925486 
L 119.40301 114.938329 
L 119.7151 114.627043 
L 120.02719 114.649857 
L 120.33928 114.945391 
L 120.85943 115.877285 
L 122.627941 119.610949 
L 122.940031 119.792182 
L 123.252121 119.673262 
L 123.564211 119.19281 
L 123.980331 117.930156 
L 124.500481 115.525518 
L 125.332721 110.466376 
L 126.893171 100.774584 
L 127.517351 98.265259 
L 127.933471 97.417174 
L 128.245561 97.24936 
L 128.557651 97.433811 
L 128.869742 97.923974 
L 129.389892 99.293833 
L 130.118102 102.010696 
L 131.990642 109.398235 
L 132.718852 111.156734 
L 133.759152 113.632179 
L 134.279302 115.488459 
L 134.799452 118.141803 
L 135.319603 121.880733 
L 135.943783 128.20666 
L 136.671993 138.511605 
L 138.024383 162.125226 
L 139.168713 180.394778 
L 139.792893 187.359748 
L 140.209013 190.184391 
L 140.521103 191.171861 
L 140.729163 191.315578 
L 140.937223 191.080578 
L 141.249314 190.07979 
L 141.665434 187.683593 
L 142.289614 182.273093 
L 143.225884 171.580638 
L 144.890364 152.191127 
L 145.618574 146.030992 
L 146.242754 142.469902 
L 146.658874 141.124572 
L 146.970964 140.714745 
L 147.179024 140.746325 
L 147.387084 141.033865 
L 147.699175 141.967825 
L 148.115295 144.205927 
L 148.635445 148.716038 
L 149.259625 156.479451 
L 151.860375 192.309905 
L 152.276495 194.915983 
L 152.588585 195.700659 
L 152.692615 195.710629 
L 152.900675 195.331037 
L 153.212765 193.834905 
L 153.628885 190.31199 
L 154.149036 183.885046 
L 154.981276 170.342008 
L 157.269936 130.862018 
L 157.998146 122.581213 
L 158.622326 117.585176 
L 159.142476 114.848705 
L 159.558596 113.563417 
L 159.870686 113.112684 
L 160.078747 113.051579 
L 160.286807 113.178862 
L 160.598897 113.717164 
L 161.015017 115.069305 
L 161.535167 117.727501 
L 162.263377 122.965578 
L 163.199647 131.590419 
L 166.632638 165.398944 
L 167.256818 169.168993 
L 167.776968 171.129724 
L 168.089058 171.703392 
L 168.297118 171.80866 
L 168.505178 171.677613 
L 168.817268 171.010629 
L 169.129358 169.741674 
L 169.545478 167.045691 
L 170.169658 161.061263 
L 171.105928 149.264002 
L 172.874439 126.364149 
L 173.498619 120.780412 
L 174.018769 117.938801 
L 174.434889 116.745195 
L 174.746979 116.375662 
L 175.059069 116.382316 
L 175.371159 116.698208 
L 175.787279 117.484717 
L 176.619519 119.715156 
L 177.451759 121.764186 
L 177.867879 122.32754 
L 178.179969 122.48235 
L 178.492059 122.439171 
L 178.90818 122.126181 
L 179.42833 121.425822 
L 180.46863 119.529729 
L 181.30087 118.159055 
L 181.82102 117.649032 
L 182.23714 117.527412 
L 182.65326 117.625586 
L 183.27744 118.055911 
L 185.045951 119.497887 
L 185.462071 119.536585 
L 185.878191 119.337865 
L 186.294311 118.851038 
L 186.918491 117.664347 
L 188.166851 114.561984 
L 188.999091 112.754099 
L 189.519241 112.042574 
L 189.935361 111.822828 
L 190.247451 111.910361 
L 190.559541 112.225388 
L 190.975661 112.947487 
L 191.599842 114.523402 
L 192.848202 118.507901 
L 193.784472 121.21403 
L 194.408652 122.402367 
L 194.824772 122.807356 
L 195.240892 122.932136 
L 195.657012 122.818963 
L 196.177162 122.40725 
L 196.905372 121.474291 
L 199.298063 118.05581 
L 200.962543 116.493183 
L 202.002843 115.351551 
L 202.835083 114.092894 
L 203.875384 112.011545 
L 206.788224 105.82981 
L 207.724494 104.544076 
L 210.533305 101.14403 
L 211.261515 99.696931 
L 212.509875 96.574219 
L 213.758235 93.655666 
L 214.382415 92.64995 
L 214.902565 92.190027 
L 215.318685 92.13063 
L 215.734805 92.335349 
L 216.358986 92.983543 
L 218.023466 94.997055 
L 218.439586 95.175154 
L 218.751676 95.132768 
L 219.063766 94.905804 
L 219.479886 94.26584 
L 220.000036 92.941344 
L 220.728246 90.361286 
L 223.641087 79.117664 
L 224.161237 78.143079 
L 224.681387 77.610488 
L 225.097507 77.474068 
L 225.513627 77.571525 
L 226.033777 77.989058 
L 226.657957 78.867663 
L 227.386167 80.320392 
L 228.322437 82.72985 
L 229.154678 85.5173 
L 229.986918 89.154584 
L 230.819158 93.87476 
L 231.651398 99.910889 
L 232.691698 109.298963 
L 234.148118 122.128103 
L 234.772298 125.973737 
L 235.188419 127.575873 
L 235.500509 128.155813 
L 235.708569 128.207901 
L 235.916629 127.968397 
L 236.228719 127.041429 
L 236.644839 124.872651 
L 237.269019 120.065277 
L 238.309319 109.732827 
L 239.557679 97.719981 
L 240.181859 93.595558 
L 240.702009 91.65433 
L 241.11813 90.972843 
L 241.43022 90.893161 
L 241.74231 91.128324 
L 242.15843 91.846145 
L 242.78261 93.551024 
L 244.96724 100.201262 
L 245.59142 101.224332 
L 246.2156 101.81847 
L 246.73575 102.016653 
L 247.255901 101.971185 
L 247.776051 101.706714 
L 248.400231 101.134963 
L 249.128441 100.169965 
L 250.064711 98.553257 
L 251.417101 95.718114 
L 254.225912 89.650901 
L 255.058152 88.451152 
L 255.682332 87.942259 
L 256.098452 87.834177 
L 256.514572 87.939055 
L 256.930692 88.279702 
L 257.450842 89.010539 
L 258.283082 90.643619 
L 260.051593 94.244376 
L 260.675773 94.965509 
L 261.091893 95.13877 
L 261.508013 95.046571 
L 261.924133 94.718989 
L 262.444283 94.026344 
L 263.172493 92.637961 
L 264.212793 90.113058 
L 266.397424 84.679744 
L 267.333694 82.937375 
L 268.061904 82.015197 
L 268.582054 81.645179 
L 269.102204 81.553992 
L 269.518324 81.701899 
L 270.038474 82.145938 
L 270.662654 82.996717 
L 271.494894 84.536994 
L 272.951315 87.807232 
L 274.511765 91.131266 
L 275.344005 92.462017 
L 276.072215 93.221573 
L 276.592365 93.474741 
L 277.008485 93.475799 
L 277.424605 93.277651 
L 277.944755 92.729337 
L 278.568936 91.682567 
L 279.401176 89.800573 
L 281.169686 85.029996 
L 282.314016 82.269166 
L 283.354316 80.314601 
L 284.394616 78.846869 
L 285.330887 77.901096 
L 286.267157 77.273099 
L 287.203427 76.923071 
L 288.139697 76.80717 
L 289.179997 76.899401 
L 291.572688 77.253825 
L 291.988808 76.993624 
L 292.404928 76.507461 
L 292.925078 75.503065 
L 293.445228 73.963454 
L 294.069408 71.266955 
L 294.797618 66.851195 
L 296.878218 53.274596 
L 297.398369 51.436718 
L 297.710459 50.931587 
L 297.918519 50.888295 
L 298.126579 51.104671 
L 298.438669 51.962801 
L 298.854789 54.095471 
L 299.374939 58.06495 
L 300.207179 66.453892 
L 302.183749 87.375578 
L 302.807929 91.564418 
L 303.328079 93.638663 
L 303.7442 94.517051 
L 304.05629 94.793591 
L 304.36838 94.794874 
L 304.68047 94.568045 
L 305.20062 93.811135 
L 306.24092 91.662353 
L 306.96913 90.407574 
L 307.59331 89.775621 
L 308.21749 89.466858 
L 308.9457 89.384085 
L 311.234361 89.380271 
L 311.858541 89.051618 
L 312.482721 88.4965 
L 313.210931 87.528848 
L 313.939141 86.178262 
L 314.771381 84.114243 
L 315.707651 81.07997 
L 316.851982 76.54254 
L 319.036612 66.705538 
L 320.389002 61.03276 
L 321.117212 58.837573 
L 321.637362 57.894129 
L 321.949452 57.639379 
L 322.261543 57.651939 
L 322.573633 57.959483 
L 322.885723 58.589686 
L 323.301843 59.979699 
L 323.821993 62.651021 
L 324.446173 67.087612 
L 325.278413 74.711506 
L 326.422743 87.448073 
L 330.063794 129.804458 
L 330.896034 136.569737 
L 331.520214 140.199943 
L 332.040364 142.118978 
L 332.456484 142.982391 
L 332.872604 143.347494 
L 333.184694 143.349204 
L 333.600814 143.061855 
L 334.120964 142.365524 
L 336.097535 139.32957 
L 336.617685 139.103271 
L 337.137835 139.134561 
L 337.762015 139.420151 
L 338.802315 140.204804 
L 339.842615 140.922387 
L 340.570825 141.137226 
L 341.507096 141.143115 
L 342.755456 141.147897 
L 343.379636 141.343213 
L 344.003816 141.782251 
L 344.627996 142.53156 
L 345.564266 144.062701 
L 347.124717 146.639755 
L 347.748897 147.308153 
L 348.269047 147.566512 
L 348.685167 147.536848 
L 349.205317 147.24576 
L 349.933527 146.504334 
L 352.118157 143.967504 
L 352.638307 143.740645 
L 353.158457 143.745298 
L 354.094728 144.040794 
L 354.926968 144.225372 
L 355.447118 144.117976 
L 355.863238 143.829323 
L 356.279358 143.306517 
L 356.799508 142.249382 
L 357.423688 140.382067 
L 358.255928 137.124882 
L 359.816379 129.880637 
L 361.168769 124.004882 
L 362.105039 120.892163 
L 362.833249 119.174909 
L 363.457429 118.267666 
L 363.873549 117.981975 
L 364.289669 117.971066 
L 364.705789 118.251625 
L 365.121909 118.839081 
L 365.746089 120.231631 
L 366.68236 123.046828 
L 368.34684 128.132483 
L 368.97102 129.382742 
L 369.38714 129.850896 
L 369.80326 130.035064 
L 370.21938 129.989862 
L 370.73953 129.694012 
L 371.6758 128.81388 
L 372.612071 128.016773 
L 373.132221 127.838798 
L 373.548341 127.919362 
L 374.068491 128.293261 
L 374.692671 129.059281 
L 375.628941 130.63013 
L 377.605511 134.086391 
L 378.333722 134.9212 
L 378.957902 135.359538 
L 379.582082 135.522785 
L 380.102232 135.435561 
L 380.622382 135.13414 
L 381.246562 134.474872 
L 381.870742 133.475426 
L 382.702982 131.664926 
L 383.847312 128.55858 
L 387.072243 119.408337 
L 388.008513 117.529796 
L 388.736723 116.53082 
L 389.256873 116.115885 
L 389.777023 115.984246 
L 390.193143 116.10061 
L 390.713293 116.501047 
L 391.337474 117.283371 
L 392.273744 118.877329 
L 394.770464 123.373232 
L 395.810764 124.673858 
L 397.059125 125.862561 
L 398.827635 127.191257 
L 405.277496 131.612331 
L 406.317796 132.027765 
L 407.254066 132.163834 
L 408.190336 132.073466 
L 409.230636 131.741595 
L 410.374967 131.139761 
L 411.831387 130.10285 
L 415.264377 127.543157 
L 416.408708 127.021858 
L 417.344978 126.839975 
L 418.177218 126.910638 
L 418.905428 127.183282 
L 419.737668 127.754624 
L 420.881998 128.854549 
L 423.170659 131.134683 
L 424.106929 131.736908 
L 425.251259 132.195562 
L 427.019769 132.606456 
L 429.51649 133.240482 
L 431.285 133.688856 
L 431.285 133.688856 
" clip-path="url(#pf980e26d6d)" style="fill: none; stroke: #ff7f0e; stroke-width: 0.5; stroke-linecap: square"/>
   </g>
   <g id="line2d_33">
    <path d="M 56.985 290.495997 
L 57.08903 290.495997 
L 57.19306 289.621509 
L 57.50515 290.783842 
L 57.81724 290.994545 
L 58.33739 290.870874 
L 59.37769 290.415336 
L 60.00187 288.810629 
L 61.666351 283.815718 
L 62.082471 283.372291 
L 62.394561 283.359651 
L 62.706651 283.593817 
L 63.122771 284.201946 
L 64.059041 286.138108 
L 65.411431 288.792278 
L 66.035611 289.650546 
L 66.659792 290.092213 
L 67.388002 290.32725 
L 67.908152 290.375122 
L 68.532332 289.84075 
L 69.884722 288.590591 
L 71.133082 287.836533 
L 72.277412 287.294962 
L 72.797563 287.284451 
L 73.317713 287.53448 
L 73.525773 287.748203 
L 74.670103 289.629583 
L 75.294283 290.082086 
L 75.814433 290.209993 
L 76.126523 289.572556 
L 76.646673 287.765469 
L 78.727273 279.485975 
L 79.455484 277.409099 
L 79.871604 276.704629 
L 80.183694 276.535207 
L 80.391754 276.614544 
L 80.703844 277.022985 
L 81.119964 278.066557 
L 81.640114 280.039271 
L 82.368324 283.895939 
L 82.992504 287.128417 
L 83.512654 288.664834 
L 84.032804 289.50439 
L 84.136834 289.464103 
L 84.448924 288.499265 
L 84.969074 285.703809 
L 86.217435 278.249123 
L 87.049675 274.903243 
L 88.089975 271.580294 
L 88.506095 270.863175 
L 88.714155 270.768622 
L 88.922215 270.89347 
L 89.234305 271.544734 
L 89.546395 272.78435 
L 90.066545 276.054411 
L 90.482665 279.723842 
L 91.106845 284.941952 
L 91.626996 287.469593 
L 92.043116 288.559062 
L 92.147146 288.411849 
L 92.459236 286.97227 
L 92.875356 283.348535 
L 94.123716 270.818313 
L 94.435806 269.953275 
L 94.539836 269.968158 
L 94.747896 270.418093 
L 95.059986 271.963279 
L 95.684166 276.765899 
L 96.724466 284.580895 
L 97.244616 287.202572 
L 97.764767 288.713175 
L 98.284917 289.538092 
L 98.388947 289.546512 
L 98.597007 289.138416 
L 98.909097 287.910901 
L 99.325217 285.069991 
L 99.845367 279.795658 
L 101.509847 260.490278 
L 101.717907 259.74671 
L 101.821937 259.655889 
L 101.925967 259.763443 
L 102.134027 260.569349 
L 102.446117 263.173047 
L 102.966267 270.050091 
L 103.798508 281.775501 
L 104.318658 285.752056 
L 104.838808 287.94561 
L 105.254928 288.947442 
L 105.462988 289.091253 
L 105.671048 288.900527 
L 105.879108 288.387527 
L 106.191198 286.881996 
L 106.607318 283.356563 
L 107.231498 275.610856 
L 108.063738 265.388474 
L 108.479858 262.468617 
L 108.687918 261.850714 
L 108.791948 261.768681 
L 108.895978 261.838511 
L 109.104038 262.431369 
L 109.416128 264.383679 
L 109.936278 269.884391 
L 111.184639 284.622844 
L 111.600759 286.830608 
L 111.808819 287.02038 
L 112.016879 286.803492 
L 112.432999 285.643896 
L 112.953149 284.208672 
L 113.161209 283.981175 
L 113.369269 284.03338 
L 113.577329 284.277607 
L 113.889419 285.325113 
L 114.617629 288.048688 
L 115.137779 289.161183 
L 115.553899 289.682337 
L 115.657929 289.733066 
L 115.865989 289.477499 
L 116.178079 288.626376 
L 116.5942 286.698158 
L 118.15465 277.94274 
L 118.36271 277.713883 
L 118.57077 277.89969 
L 118.88286 278.905992 
L 119.19495 280.787969 
L 119.92316 285.869224 
L 120.44331 287.970014 
L 120.7554 288.648163 
L 120.96346 288.297496 
L 121.27555 286.958265 
L 121.7957 283.073695 
L 122.627941 276.613663 
L 122.940031 275.478826 
L 123.148091 275.324151 
L 123.356151 275.662717 
L 123.668241 277.023022 
L 123.980331 279.119765 
L 124.812571 285.629938 
L 125.332721 287.848029 
L 125.644811 288.646213 
L 125.748841 288.685071 
L 126.060931 287.99372 
L 126.477051 286.144859 
L 127.205261 282.849927 
L 127.413321 282.486008 
L 127.621381 282.514327 
L 127.829441 282.861461 
L 128.141531 284.20121 
L 128.869742 287.53118 
L 129.285862 288.557377 
L 129.493922 288.339552 
L 129.701982 287.712409 
L 130.118102 285.36947 
L 131.262432 277.769333 
L 131.574522 277.175012 
L 131.782582 277.357083 
L 132.094672 278.402511 
L 132.406762 280.502557 
L 133.134972 285.783429 
L 133.655122 287.927063 
L 134.071242 288.903917 
L 134.175272 288.910089 
L 134.487362 288.199467 
L 134.903482 286.356792 
L 135.423633 282.795047 
L 135.943783 277.711898 
L 136.567963 269.23889 
L 138.128413 246.357745 
L 138.440503 244.226294 
L 138.648563 243.680187 
L 138.752593 243.69088 
L 138.960653 244.302957 
L 139.272743 246.681599 
L 139.688863 252.342704 
L 140.313043 264.82868 
L 140.937223 277.248041 
L 141.457374 283.275714 
L 141.873494 285.853589 
L 141.977524 285.738555 
L 142.185584 285.023041 
L 142.601704 281.979251 
L 143.642004 273.083631 
L 144.058124 271.353142 
L 144.370214 270.897309 
L 144.578274 270.916099 
L 144.890364 271.311359 
L 145.410514 272.552519 
L 146.346784 274.890148 
L 146.866934 275.606169 
L 147.387084 275.863953 
L 147.803205 276.074321 
L 148.115295 276.53816 
L 148.427385 277.498081 
L 148.843505 279.591602 
L 149.779775 286.276428 
L 150.299925 288.204736 
L 150.612015 288.899602 
L 150.716045 288.919771 
L 151.132165 287.96931 
L 151.860375 286.217372 
L 152.172465 286.017885 
L 152.380525 286.107106 
L 152.692615 286.521546 
L 154.461126 289.708748 
L 155.085306 290.121133 
L 155.605456 290.230174 
L 155.917546 289.640748 
L 156.437696 287.936429 
L 157.582026 283.704632 
L 157.894116 283.187329 
L 158.102176 283.094775 
L 158.310236 283.207759 
L 158.622326 283.746109 
L 158.934416 284.578563 
L 159.974717 288.432051 
L 160.494867 289.377696 
L 160.806957 289.669681 
L 161.015017 289.332623 
L 161.327107 288.254687 
L 161.743227 285.778259 
L 162.263377 281.169986 
L 163.095617 271.378361 
L 163.927857 261.981073 
L 164.343977 259.216967 
L 164.552037 258.621263 
L 164.656067 258.544482 
L 164.760097 258.619159 
L 164.968157 259.228451 
L 165.280247 261.276869 
L 165.696367 265.688881 
L 166.112487 272.162271 
L 166.736668 281.089624 
L 167.256818 285.375531 
L 167.568908 286.616012 
L 167.776968 285.499408 
L 168.089058 282.211992 
L 169.441448 263.437755 
L 169.649508 262.964691 
L 169.753538 263.085387 
L 169.961598 263.985371 
L 170.273688 266.687039 
L 171.105928 277.21357 
L 171.730108 283.616014 
L 172.250258 286.677662 
L 172.666379 287.938998 
L 173.082499 288.584045 
L 173.498619 288.899773 
L 173.810709 289.115352 
L 174.746979 289.968732 
L 175.475189 290.272729 
L 176.099369 290.329357 
L 176.619519 289.450849 
L 177.867879 287.030066 
L 178.283999 286.7044 
L 178.80415 286.618787 
L 179.63639 286.805413 
L 180.3646 287.115889 
L 180.88475 287.593498 
L 182.23714 289.758808 
L 182.86132 290.14503 
L 183.69356 290.366511 
L 184.941921 290.461252 
L 185.149981 290.165668 
L 185.462071 289.264351 
L 185.878191 287.31245 
L 187.334611 279.344779 
L 187.646701 278.882918 
L 187.854761 278.952644 
L 188.166851 279.55756 
L 188.582971 281.0376 
L 190.351481 288.257332 
L 190.871631 289.280595 
L 191.391782 289.842904 
L 191.911932 290.128335 
L 192.536112 290.199382 
L 193.784472 290.420486 
L 194.304622 290.414355 
L 194.720742 289.968826 
L 195.240892 289.033502 
L 196.489252 286.606655 
L 196.801342 286.388372 
L 197.113432 286.4211 
L 197.425523 286.702488 
L 197.737613 287.140841 
L 198.777913 289.317697 
L 199.298063 289.857287 
L 199.922243 290.192768 
L 200.130303 290.144971 
L 200.754483 289.391256 
L 201.378663 288.712551 
L 201.794783 288.641995 
L 202.210903 289.106631 
L 202.939113 289.860316 
L 203.563293 290.183698 
L 203.771354 290.092738 
L 205.019714 289.071061 
L 205.331804 289.296427 
L 206.164044 289.988246 
L 206.892254 290.280309 
L 207.204344 290.256395 
L 208.660764 289.028053 
L 209.076884 289.046463 
L 209.701064 289.3586 
L 210.533305 290.014899 
L 211.261515 290.291763 
L 211.781665 290.344098 
L 212.093755 289.831557 
L 212.509875 288.570274 
L 213.862265 283.712607 
L 214.070325 283.554534 
L 214.278385 283.638613 
L 214.590475 284.163204 
L 215.214655 286.018197 
L 216.150926 288.744847 
L 216.671076 289.544204 
L 217.191226 289.98438 
L 217.919436 290.282161 
L 218.231526 290.270984 
L 218.855706 289.817413 
L 219.479886 289.359616 
L 219.896006 289.303037 
L 221.456456 290.196457 
L 221.768546 289.762927 
L 222.184666 288.639642 
L 223.016907 286.10129 
L 223.328997 285.757175 
L 223.641087 285.869247 
L 223.849147 286.306356 
L 224.785417 288.859375 
L 225.305567 289.606588 
L 225.825717 290.015777 
L 226.033777 289.967875 
L 226.449897 289.558045 
L 226.866017 288.82618 
L 227.386167 287.38162 
L 228.842588 282.642756 
L 229.050648 282.492131 
L 229.258708 282.58369 
L 229.570798 283.158829 
L 230.090948 284.980855 
L 230.819158 287.888212 
L 231.339308 289.073823 
L 231.859458 289.730748 
L 232.379608 290.078197 
L 233.836028 290.367691 
L 234.876329 290.408382 
L 235.500509 290.395566 
L 237.164989 290.454773 
L 237.373049 290.118066 
L 237.789169 288.950954 
L 239.765739 282.330119 
L 240.493949 280.69492 
L 240.806039 280.480757 
L 241.014099 280.650154 
L 241.32619 281.400408 
L 241.53425 282.199568 
L 242.57455 287.575563 
L 243.0947 288.912798 
L 243.30276 289.232969 
L 243.40679 289.219656 
L 243.71888 288.560521 
L 244.135 286.852805 
L 245.59142 279.80487 
L 245.79948 279.536923 
L 246.00754 279.571362 
L 246.2156 279.895245 
L 246.52769 280.849323 
L 247.15187 283.723805 
L 247.880081 287.291444 
L 248.400231 288.748223 
L 248.920381 289.555549 
L 249.232471 289.805788 
L 249.440531 289.642066 
L 249.752621 289.095256 
L 250.168741 287.803584 
L 250.688891 285.371668 
L 251.833221 279.627873 
L 252.145311 279.096685 
L 252.353371 279.179534 
L 252.561431 279.616944 
L 252.977551 281.321554 
L 254.121882 287.602534 
L 254.642032 288.931133 
L 255.162182 289.634165 
L 255.578302 289.662378 
L 256.514572 289.665945 
L 257.034722 289.913395 
L 257.866962 290.261858 
L 258.491142 290.322712 
L 258.907262 290.029713 
L 260.363683 288.647626 
L 260.779803 288.687645 
L 262.236223 290.087543 
L 262.964433 290.323726 
L 263.172493 290.128923 
L 263.588613 289.207985 
L 264.212793 287.002255 
L 264.836973 284.95083 
L 265.149063 284.513233 
L 265.357123 284.532951 
L 265.669213 284.998481 
L 266.085334 286.4785 
L 266.709514 288.443715 
L 267.125634 289.168844 
L 267.333694 289.058613 
L 267.645784 288.42657 
L 268.269964 286.193456 
L 268.686084 284.962213 
L 268.998174 284.605902 
L 269.206234 284.690968 
L 269.518324 285.188867 
L 270.870714 289.152327 
L 271.390864 289.771825 
L 271.911014 290.080813 
L 272.535195 289.851089 
L 273.575495 289.191905 
L 274.823855 288.354122 
L 275.344005 288.277461 
L 275.864155 288.444446 
L 276.696395 289.025692 
L 277.944755 290.082686 
L 278.776996 290.342349 
L 279.401176 290.395852 
L 279.713266 290.012082 
L 280.025356 289.302992 
L 280.441476 287.742937 
L 280.961626 284.77344 
L 282.001926 278.422822 
L 282.314016 277.704943 
L 282.522076 277.739356 
L 282.730136 278.181193 
L 283.042226 279.503414 
L 283.666406 283.495636 
L 284.290586 286.955748 
L 284.810737 288.574368 
L 285.330887 289.46307 
L 285.642977 289.643339 
L 286.163127 289.517494 
L 286.787307 289.33576 
L 287.099397 289.490112 
L 288.139697 290.155226 
L 288.555817 290.252443 
L 288.867907 289.907818 
L 289.284027 289.032014 
L 290.220297 286.893246 
L 290.532387 286.696221 
L 290.740447 286.692847 
L 290.948508 287.042607 
L 291.988808 289.296368 
L 292.508958 289.846061 
L 292.717018 289.891964 
L 293.029108 289.059403 
L 293.341198 287.484397 
L 293.757318 284.265566 
L 295.317768 270.183072 
L 295.525828 269.625664 
L 295.629858 269.555932 
L 295.733888 269.62578 
L 295.941948 270.175441 
L 296.254038 271.913278 
L 296.878218 277.435606 
L 297.606429 284.260435 
L 298.126579 287.090792 
L 298.438669 288.071852 
L 298.646729 288.142337 
L 298.854789 287.948107 
L 299.270909 287.103171 
L 299.791059 286.164011 
L 299.999119 286.053343 
L 300.311209 286.213632 
L 300.623299 286.927268 
L 301.351509 288.804753 
L 301.871659 289.573334 
L 302.391809 289.961291 
L 302.807929 289.729164 
L 303.95226 288.882244 
L 304.26435 288.857312 
L 304.68047 289.251223 
L 305.40868 289.923563 
L 306.13689 290.253142 
L 306.44898 290.289669 
L 306.76107 289.935161 
L 307.28122 288.919251 
L 308.52958 286.23011 
L 308.84167 285.936106 
L 309.15376 285.925751 
L 309.46585 286.215694 
L 309.881971 286.974106 
L 310.818241 289.134457 
L 311.338391 289.75657 
L 311.962571 290.145001 
L 312.794811 290.366669 
L 313.731081 290.419867 
L 313.939141 290.069527 
L 314.251231 289.089955 
L 314.667351 286.841794 
L 315.187501 282.490968 
L 315.915712 273.971428 
L 317.060042 260.187089 
L 317.372132 258.407731 
L 317.580192 258.081233 
L 317.684222 258.196081 
L 317.892282 258.978394 
L 318.204372 261.434511 
L 318.724522 268.003608 
L 319.972882 284.086842 
L 320.493032 287.035025 
L 320.701092 287.493266 
L 320.909152 287.448157 
L 321.221242 286.961465 
L 321.741392 286.056607 
L 321.949452 285.958301 
L 322.261543 286.201789 
L 322.677663 287.347086 
L 323.301843 288.885274 
L 323.717963 289.406164 
L 324.030053 289.206371 
L 324.446173 288.467209 
L 325.278413 286.839341 
L 325.590503 286.617653 
L 325.798563 286.64845 
L 326.110653 286.92437 
L 326.422743 287.577587 
L 327.150953 289.128446 
L 327.671103 289.751071 
L 328.191253 290.069103 
L 328.607374 289.920749 
L 328.919464 289.919404 
L 330.687974 290.406435 
L 330.896034 290.407107 
L 331.104094 290.135146 
L 331.624244 288.974748 
L 332.560514 286.807055 
L 332.976634 286.263196 
L 333.392754 286.068895 
L 333.704844 286.145132 
L 334.120964 286.515635 
L 334.745145 287.502499 
L 335.993505 289.650659 
L 336.617685 290.092918 
L 337.345895 290.327598 
L 338.594255 290.458252 
L 340.570825 290.436829 
L 341.507096 290.22864 
L 342.547396 289.997756 
L 343.067546 290.12048 
L 344.211876 290.389349 
L 345.876356 290.481238 
L 347.228747 290.443739 
L 347.748897 289.758468 
L 348.581137 288.156195 
L 349.413377 286.07184 
L 350.453677 283.323107 
L 350.765767 282.958254 
L 350.973827 282.936888 
L 351.181887 283.107729 
L 351.493977 283.707985 
L 352.014127 285.326481 
L 352.950397 288.50186 
L 353.470548 289.413367 
L 353.990698 289.914278 
L 354.614878 290.220953 
L 355.030998 290.317902 
L 355.239058 290.136191 
L 355.551148 289.528369 
L 355.863238 288.448776 
L 356.279358 286.124044 
L 356.903538 280.882465 
L 357.839808 272.663444 
L 358.151898 271.208833 
L 358.359958 270.830948 
L 358.463988 270.829532 
L 358.672048 271.192152 
L 358.984138 272.568899 
L 359.504288 276.449869 
L 360.856679 286.772927 
L 361.376829 288.486402 
L 361.792949 289.247136 
L 362.001009 289.194978 
L 362.313099 288.763083 
L 362.833249 287.458298 
L 363.769519 284.987522 
L 364.185639 284.510123 
L 364.497729 284.533903 
L 364.809819 284.876546 
L 365.329969 285.938705 
L 366.57833 289.207546 
L 367.09848 289.800454 
L 367.61863 290.107926 
L 367.93072 289.972655 
L 368.97102 289.356132 
L 369.28311 289.517058 
L 370.21938 290.124087 
L 370.94759 290.308172 
L 371.25968 289.9556 
L 371.77983 288.931561 
L 372.508041 287.578267 
L 372.820131 287.373739 
L 373.132221 287.46369 
L 373.444311 287.753701 
L 374.692671 289.720713 
L 375.316851 290.126357 
L 376.045061 290.340242 
L 376.357151 290.282142 
L 378.541782 289.490094 
L 378.853872 289.540178 
L 380.414322 290.306434 
L 381.246562 290.404555 
L 381.766712 290.038042 
L 382.807012 289.259507 
L 383.015072 289.266639 
L 383.639252 289.757314 
L 384.367462 290.171216 
L 384.991643 290.290134 
L 385.199703 289.876364 
L 385.511793 288.807835 
L 386.031943 286.005392 
L 387.072243 280.124182 
L 387.384333 279.371176 
L 387.592393 279.263814 
L 387.800453 279.466039 
L 388.112543 280.277527 
L 388.632693 282.529196 
L 389.672993 287.249981 
L 390.193143 288.703055 
L 390.713293 289.527632 
L 391.233444 289.976469 
L 391.961654 290.279315 
L 392.585834 290.357172 
L 393.105984 289.939949 
L 394.354344 288.757909 
L 394.770464 288.732284 
L 395.290614 288.997602 
L 396.955094 290.22446 
L 397.891365 290.407176 
L 399.763905 290.486322 
L 401.636445 290.408732 
L 403.196895 290.190657 
L 404.965406 290.450026 
L 406.317796 290.430211 
L 406.837946 289.965637 
L 407.358096 289.104445 
L 408.190336 287.079438 
L 408.814516 285.752174 
L 409.126606 285.420802 
L 409.438696 285.398052 
L 409.750787 285.696046 
L 410.166907 286.468774 
L 411.103177 288.93102 
L 411.623327 289.645873 
L 412.247507 290.092523 
L 412.559597 290.175593 
L 413.391837 289.980088 
L 415.056317 290.403271 
L 415.264377 290.295603 
L 415.680497 289.728403 
L 417.032888 287.410562 
L 417.344978 287.349551 
L 417.761098 287.617455 
L 418.177218 288.349545 
L 418.801398 289.39136 
L 419.321548 289.894243 
L 419.945728 290.210122 
L 420.361848 290.263716 
L 421.818268 289.572484 
L 422.234389 289.618227 
L 423.690809 290.301265 
L 424.627079 290.428615 
L 424.939169 290.256958 
L 425.459319 289.686785 
L 427.123799 287.462695 
L 427.539919 287.417848 
L 427.956039 287.639584 
L 428.78828 288.474631 
L 429.82858 289.787128 
L 430.45276 290.156552 
L 431.285 290.370721 
L 431.285 290.370721 
" clip-path="url(#pf980e26d6d)" style="fill: none; stroke: #2ca02c; stroke-width: 0.5; stroke-linecap: square"/>
   </g>
   <g id="patch_3">
    <path d="M 38.27 303.64 
L 38.27 25.44 
" style="fill: none; stroke: #000000; stroke-width: 0.8; stroke-linejoin: miter; stroke-linecap: square"/>
   </g>
   <g id="patch_4">
    <path d="M 450 303.64 
L 450 25.44 
" style="fill: none; stroke: #000000; stroke-width: 0.8; stroke-linejoin: miter; stroke-linecap: square"/>
   </g>
   <g id="patch_5">
    <path d="M 38.27 303.64 
L 450 303.64 
" style="fill: none; stroke: #000000; stroke-width: 0.8; stroke-linejoin: miter; stroke-linecap: square"/>
   </g>
   <g id="patch_6">
    <path d="M 38.27 25.44 
L 450 25.44 
" style="fill: none; stroke: #000000; stroke-width: 0.8; stroke-linejoin: miter; stroke-linecap: square"/>
   </g>
   <g id="text_18">
    <!-- cvxEDA (σ=2.6s  data_7_E4) -->
    <g transform="translate(158.48125 19.44) scale(0.12 -0.12)">
     <defs>
      <path id="DejaVuSans-63" d="M 3122 3366 
L 3122 2828 
Q 2878 2963 2633 3030 
Q 2388 3097 2138 3097 
Q 1578 3097 1268 2742 
Q 959 2388 959 1747 
Q 959 1106 1268 751 
Q 1578 397 2138 397 
Q 2388 397 2633 464 
Q 2878 531 3122 666 
L 3122 134 
Q 2881 22 2623 -34 
Q 2366 -91 2075 -91 
Q 1284 -91 818 406 
Q 353 903 353 1747 
Q 353 2603 823 3093 
Q 1294 3584 2113 3584 
Q 2378 3584 2631 3529 
Q 2884 3475 3122 3366 
z
" transform="scale(0.015625)"/>
      <path id="DejaVuSans-76" d="M 191 3500 
L 800 3500 
L 1894 563 
L 2988 3500 
L 3597 3500 
L 2284 0 
L 1503 0 
L 191 3500 
z
" transform="scale(0.015625)"/>
      <path id="DejaVuSans-78" d="M 3513 3500 
L 2247 1797 
L 3578 0 
L 2900 0 
L 1881 1375 
L 863 0 
L 184 0 
L 1544 1831 
L 300 3500 
L 978 3500 
L 1906 2253 
L 2834 3500 
L 3513 3500 
z
" transform="scale(0.015625)"/>
      <path id="DejaVuSans-3c3" d="M 1959 3044 
Q 1484 3044 1228 2700 
Q 959 2341 959 1747 
Q 959 1119 1226 758 
Q 1494 397 1959 397 
Q 2419 397 2687 759 
Q 2956 1122 2956 1747 
Q 2956 2319 2688 2700 
Q 2441 3044 1959 3044 
z
M 1959 3500 
L 3869 3500 
L 3869 2925 
L 3225 2925 
Q 3566 2438 3566 1747 
Q 3566 888 3138 400 
Q 2709 -91 1959 -91 
Q 1206 -91 781 400 
Q 353 888 353 1747 
Q 353 2613 781 3097 
Q 1134 3500 1959 3500 
z
" transform="scale(0.015625)"/>
      <path id="DejaVuSans-3d" d="M 678 2906 
L 4684 2906 
L 4684 2381 
L 678 2381 
L 678 2906 
z
M 678 1631 
L 4684 1631 
L 4684 1100 
L 678 1100 
L 678 1631 
z
" transform="scale(0.015625)"/>
      <path id="DejaVuSans-2e" d="M 684 794 
L 1344 794 
L 1344 0 
L 684 0 
L 684 794 
z
" transform="scale(0.015625)"/>
      <path id="DejaVuSans-64" d="M 2906 2969 
L 2906 4863 
L 3481 4863 
L 3481 0 
L 2906 0 
L 2906 525 
Q 2725 213 2448 61 
Q 2172 -91 1784 -91 
Q 1150 -91 751 415 
Q 353 922 353 1747 
Q 353 2572 751 3078 
Q 1150 3584 1784 3584 
Q 2172 3584 2448 3432 
Q 2725 3281 2906 2969 
z
M 947 1747 
Q 947 1113 1208 752 
Q 1469 391 1925 391 
Q 2381 391 2643 752 
Q 2906 1113 2906 1747 
Q 2906 2381 2643 2742 
Q 2381 3103 1925 3103 
Q 1469 3103 1208 2742 
Q 947 2381 947 1747 
z
" transform="scale(0.015625)"/>
      <path id="DejaVuSans-5f" d="M 3263 -1063 
L 3263 -1509 
L -63 -1509 
L -63 -1063 
L 3263 -1063 
z
" transform="scale(0.015625)"/>
      <path id="DejaVuSans-37" d="M 525 4666 
L 3525 4666 
L 3525 4397 
L 1831 0 
L 1172 0 
L 2766 4134 
L 525 4134 
L 525 4666 
z
" transform="scale(0.015625)"/>
     </defs>
     <use xlink:href="#DejaVuSans-63"/>
     <use xlink:href="#DejaVuSans-76" transform="translate(54.980469 0)"/>
     <use xlink:href="#DejaVuSans-78" transform="translate(114.160156 0)"/>
     <use xlink:href="#DejaVuSans-45" transform="translate(173.339844 0)"/>
     <use xlink:href="#DejaVuSans-44" transform="translate(236.523438 0)"/>
     <use xlink:href="#DejaVuSans-41" transform="translate(311.775391 0)"/>
     <use xlink:href="#DejaVuSans-20" transform="translate(380.183594 0)"/>
     <use xlink:href="#DejaVuSans-28" transform="translate(411.970703 0)"/>
     <use xlink:href="#DejaVuSans-3c3" transform="translate(450.984375 0)"/>
     <use xlink:href="#DejaVuSans-3d" transform="translate(514.363281 0)"/>
     <use xlink:href="#DejaVuSans-32" transform="translate(598.152344 0)"/>
     <use xlink:href="#DejaVuSans-2e" transform="translate(661.775391 0)"/>
     <use xlink:href="#DejaVuSans-36" transform="translate(693.5625 0)"/>
     <use xlink:href="#DejaVuSans-73" transform="translate(757.185547 0)"/>
     <use xlink:href="#DejaVuSans-20" transform="translate(809.285156 0)"/>
     <use xlink:href="#DejaVuSans-20" transform="translate(841.072266 0)"/>
     <use xlink:href="#DejaVuSans-64" transform="translate(872.859375 0)"/>
     <use xlink:href="#DejaVuSans-61" transform="translate(936.335938 0)"/>
     <use xlink:href="#DejaVuSans-74" transform="translate(997.615234 0)"/>
     <use xlink:href="#DejaVuSans-61" transform="translate(1036.824219 0)"/>
     <use xlink:href="#DejaVuSans-5f" transform="translate(1098.103516 0)"/>
     <use xlink:href="#DejaVuSans-37" transform="translate(1148.103516 0)"/>
     <use xlink:href="#DejaVuSans-5f" transform="translate(1211.726562 0)"/>
     <use xlink:href="#DejaVuSans-45" transform="translate(1261.726562 0)"/>
     <use xlink:href="#DejaVuSans-34" transform="translate(1324.910156 0)"/>
     <use xlink:href="#DejaVuSans-29" transform="translate(1388.533203 0)"/>
    </g>
   </g>
   <g id="legend_1">
    <g id="patch_7">
     <path d="M 350.09375 77.474375 
L 443 77.474375 
Q 445 77.474375 445 75.474375 
L 445 32.44 
Q 445 30.44 443 30.44 
L 350.09375 30.44 
Q 348.09375 30.44 348.09375 32.44 
L 348.09375 75.474375 
Q 348.09375 77.474375 350.09375 77.474375 
z
" style="fill: #ffffff; opacity: 0.8; stroke: #cccccc; stroke-linejoin: miter"/>
    </g>
    <g id="line2d_34">
     <path d="M 352.09375 38.538437 
L 362.09375 38.538437 
L 372.09375 38.538437 
" style="fill: none; stroke-dasharray: 1.85,0.8; stroke-dashoffset: 0; stroke: #1f77b4; stroke-width: 0.5"/>
    </g>
    <g id="text_19">
     <!-- Filtered EDA -->
     <g transform="translate(380.09375 42.038437) scale(0.1 -0.1)">
      <defs>
       <path id="DejaVuSans-46" d="M 628 4666 
L 3309 4666 
L 3309 4134 
L 1259 4134 
L 1259 2759 
L 3109 2759 
L 3109 2228 
L 1259 2228 
L 1259 0 
L 628 0 
L 628 4666 
z
" transform="scale(0.015625)"/>
       <path id="DejaVuSans-72" d="M 2631 2963 
Q 2534 3019 2420 3045 
Q 2306 3072 2169 3072 
Q 1681 3072 1420 2755 
Q 1159 2438 1159 1844 
L 1159 0 
L 581 0 
L 581 3500 
L 1159 3500 
L 1159 2956 
Q 1341 3275 1631 3429 
Q 1922 3584 2338 3584 
Q 2397 3584 2469 3576 
Q 2541 3569 2628 3553 
L 2631 2963 
z
" transform="scale(0.015625)"/>
      </defs>
      <use xlink:href="#DejaVuSans-46"/>
      <use xlink:href="#DejaVuSans-69" transform="translate(50.269531 0)"/>
      <use xlink:href="#DejaVuSans-6c" transform="translate(78.052734 0)"/>
      <use xlink:href="#DejaVuSans-74" transform="translate(105.835938 0)"/>
      <use xlink:href="#DejaVuSans-65" transform="translate(145.044922 0)"/>
      <use xlink:href="#DejaVuSans-72" transform="translate(206.568359 0)"/>
      <use xlink:href="#DejaVuSans-65" transform="translate(245.431641 0)"/>
      <use xlink:href="#DejaVuSans-64" transform="translate(306.955078 0)"/>
      <use xlink:href="#DejaVuSans-20" transform="translate(370.431641 0)"/>
      <use xlink:href="#DejaVuSans-45" transform="translate(402.21875 0)"/>
      <use xlink:href="#DejaVuSans-44" transform="translate(465.402344 0)"/>
      <use xlink:href="#DejaVuSans-41" transform="translate(540.654297 0)"/>
     </g>
    </g>
    <g id="line2d_35">
     <path d="M 352.09375 53.216562 
L 362.09375 53.216562 
L 372.09375 53.216562 
" style="fill: none; stroke: #ff7f0e; stroke-width: 0.5; stroke-linecap: square"/>
    </g>
    <g id="text_20">
     <!-- Tonic -->
     <g transform="translate(380.09375 56.716562) scale(0.1 -0.1)">
      <defs>
       <path id="DejaVuSans-6f" d="M 1959 3097 
Q 1497 3097 1228 2736 
Q 959 2375 959 1747 
Q 959 1119 1226 758 
Q 1494 397 1959 397 
Q 2419 397 2687 759 
Q 2956 1122 2956 1747 
Q 2956 2369 2687 2733 
Q 2419 3097 1959 3097 
z
M 1959 3584 
Q 2709 3584 3137 3096 
Q 3566 2609 3566 1747 
Q 3566 888 3137 398 
Q 2709 -91 1959 -91 
Q 1206 -91 779 398 
Q 353 888 353 1747 
Q 353 2609 779 3096 
Q 1206 3584 1959 3584 
z
" transform="scale(0.015625)"/>
      </defs>
      <use xlink:href="#DejaVuSans-54"/>
      <use xlink:href="#DejaVuSans-6f" transform="translate(44.083984 0)"/>
      <use xlink:href="#DejaVuSans-6e" transform="translate(105.265625 0)"/>
      <use xlink:href="#DejaVuSans-69" transform="translate(168.644531 0)"/>
      <use xlink:href="#DejaVuSans-63" transform="translate(196.427734 0)"/>
     </g>
    </g>
    <g id="line2d_36">
     <path d="M 352.09375 67.894687 
L 362.09375 67.894687 
L 372.09375 67.894687 
" style="fill: none; stroke: #2ca02c; stroke-width: 0.5; stroke-linecap: square"/>
    </g>
    <g id="text_21">
     <!-- Phasic -->
     <g transform="translate(380.09375 71.394687) scale(0.1 -0.1)">
      <defs>
       <path id="DejaVuSans-50" d="M 1259 4147 
L 1259 2394 
L 2053 2394 
Q 2494 2394 2734 2622 
Q 2975 2850 2975 3272 
Q 2975 3691 2734 3919 
Q 2494 4147 2053 4147 
L 1259 4147 
z
M 628 4666 
L 2053 4666 
Q 2838 4666 3239 4311 
Q 3641 3956 3641 3272 
Q 3641 2581 3239 2228 
Q 2838 1875 2053 1875 
L 1259 1875 
L 1259 0 
L 628 0 
L 628 4666 
z
" transform="scale(0.015625)"/>
       <path id="DejaVuSans-68" d="M 3513 2113 
L 3513 0 
L 2938 0 
L 2938 2094 
Q 2938 2591 2744 2837 
Q 2550 3084 2163 3084 
Q 1697 3084 1428 2787 
Q 1159 2491 1159 1978 
L 1159 0 
L 581 0 
L 581 4863 
L 1159 4863 
L 1159 2956 
Q 1366 3272 1645 3428 
Q 1925 3584 2291 3584 
Q 2894 3584 3203 3211 
Q 3513 2838 3513 2113 
z
" transform="scale(0.015625)"/>
      </defs>
      <use xlink:href="#DejaVuSans-50"/>
      <use xlink:href="#DejaVuSans-68" transform="translate(60.302734 0)"/>
      <use xlink:href="#DejaVuSans-61" transform="translate(123.681641 0)"/>
      <use xlink:href="#DejaVuSans-73" transform="translate(184.960938 0)"/>
      <use xlink:href="#DejaVuSans-69" transform="translate(237.060547 0)"/>
      <use xlink:href="#DejaVuSans-63" transform="translate(264.84375 0)"/>
     </g>
    </g>
   </g>
  </g>
 </g>
 <defs>
  <clipPath id="pf980e26d6d">
   <rect x="38.27" y="25.44" width="411.73" height="278.2"/>
  </clipPath>
 </defs>
</svg>
