<?xml version="1.0" encoding="utf-8" standalone="no"?>
<!DOCTYPE svg PUBLIC "-//W3C//DTD SVG 1.1//EN"
  "http://www.w3.org/Graphics/SVG/1.1/DTD/svg11.dtd">
<svg xmlns:xlink="http://www.w3.org/1999/xlink" width="460.8pt" height="345.6pt" viewBox="0 0 460.8 345.6" xmlns="http://www.w3.org/2000/svg" version="1.1">
 <metadata>
  <rdf:RDF xmlns:dc="http://purl.org/dc/elements/1.1/" xmlns:cc="http://creativecommons.org/ns#" xmlns:rdf="http://www.w3.org/1999/02/22-rdf-syntax-ns#">
   <cc:Work>
    <dc:type rdf:resource="http://purl.org/dc/dcmitype/StillImage"/>
    <dc:date>2025-09-22T15:39:27.196182</dc:date>
    <dc:format>image/svg+xml</dc:format>
    <dc:creator>
     <cc:Agent>
      <dc:title>Matplotlib v3.10.0, https://matplotlib.org/</dc:title>
     </cc:Agent>
    </dc:creator>
   </cc:Work>
  </rdf:RDF>
 </metadata>
 <defs>
  <style type="text/css">*{stroke-linejoin: round; stroke-linecap: butt}</style>
 </defs>
 <g id="figure_1">
  <g id="patch_1">
   <path d="M 0 345.6 
L 460.8 345.6 
L 460.8 0 
L 0 0 
z
" style="fill: #ffffff"/>
  </g>
  <g id="axes_1">
   <g id="patch_2">
    <path d="M 38.27 303.64 
L 450 303.64 
L 450 25.44 
L 38.27 25.44 
z
" style="fill: #ffffff"/>
   </g>
   <g id="matplotlib.axis_1">
    <g id="xtick_1">
     <g id="line2d_1">
      <path d="M 56.985 303.64 
L 56.985 25.44 
" clip-path="url(#p7acb8a673f)" style="fill: none; stroke: #b0b0b0; stroke-opacity: 0.3; stroke-width: 0.8; stroke-linecap: square"/>
     </g>
     <g id="line2d_2">
      <defs>
       <path id="m60e52deca8" d="M 0 0 
L 0 3.5 
" style="stroke: #000000; stroke-width: 0.8"/>
      </defs>
      <g>
       <use xlink:href="#m60e52deca8" x="56.985" y="303.64" style="stroke: #000000; stroke-width: 0.8"/>
      </g>
     </g>
     <g id="text_1">
      <!-- 0 -->
      <g transform="translate(53.80375 318.238437) scale(0.1 -0.1)">
       <defs>
        <path id="DejaVuSans-30" d="M 2034 4250 
Q 1547 4250 1301 3770 
Q 1056 3291 1056 2328 
Q 1056 1369 1301 889 
Q 1547 409 2034 409 
Q 2525 409 2770 889 
Q 3016 1369 3016 2328 
Q 3016 3291 2770 3770 
Q 2525 4250 2034 4250 
z
M 2034 4750 
Q 2819 4750 3233 4129 
Q 3647 3509 3647 2328 
Q 3647 1150 3233 529 
Q 2819 -91 2034 -91 
Q 1250 -91 836 529 
Q 422 1150 422 2328 
Q 422 3509 836 4129 
Q 1250 4750 2034 4750 
z
" transform="scale(0.015625)"/>
       </defs>
       <use xlink:href="#DejaVuSans-30"/>
      </g>
     </g>
    </g>
    <g id="xtick_2">
     <g id="line2d_3">
      <path d="M 106.891667 303.64 
L 106.891667 25.44 
" clip-path="url(#p7acb8a673f)" style="fill: none; stroke: #b0b0b0; stroke-opacity: 0.3; stroke-width: 0.8; stroke-linecap: square"/>
     </g>
     <g id="line2d_4">
      <g>
       <use xlink:href="#m60e52deca8" x="106.891667" y="303.64" style="stroke: #000000; stroke-width: 0.8"/>
      </g>
     </g>
     <g id="text_2">
      <!-- 2 -->
      <g transform="translate(103.710417 318.238437) scale(0.1 -0.1)">
       <defs>
        <path id="DejaVuSans-32" d="M 1228 531 
L 3431 531 
L 3431 0 
L 469 0 
L 469 531 
Q 828 903 1448 1529 
Q 2069 2156 2228 2338 
Q 2531 2678 2651 2914 
Q 2772 3150 2772 3378 
Q 2772 3750 2511 3984 
Q 2250 4219 1831 4219 
Q 1534 4219 1204 4116 
Q 875 4013 500 3803 
L 500 4441 
Q 881 4594 1212 4672 
Q 1544 4750 1819 4750 
Q 2544 4750 2975 4387 
Q 3406 4025 3406 3419 
Q 3406 3131 3298 2873 
Q 3191 2616 2906 2266 
Q 2828 2175 2409 1742 
Q 1991 1309 1228 531 
z
" transform="scale(0.015625)"/>
       </defs>
       <use xlink:href="#DejaVuSans-32"/>
      </g>
     </g>
    </g>
    <g id="xtick_3">
     <g id="line2d_5">
      <path d="M 156.798333 303.64 
L 156.798333 25.44 
" clip-path="url(#p7acb8a673f)" style="fill: none; stroke: #b0b0b0; stroke-opacity: 0.3; stroke-width: 0.8; stroke-linecap: square"/>
     </g>
     <g id="line2d_6">
      <g>
       <use xlink:href="#m60e52deca8" x="156.798333" y="303.64" style="stroke: #000000; stroke-width: 0.8"/>
      </g>
     </g>
     <g id="text_3">
      <!-- 4 -->
      <g transform="translate(153.617083 318.238437) scale(0.1 -0.1)">
       <defs>
        <path id="DejaVuSans-34" d="M 2419 4116 
L 825 1625 
L 2419 1625 
L 2419 4116 
z
M 2253 4666 
L 3047 4666 
L 3047 1625 
L 3713 1625 
L 3713 1100 
L 3047 1100 
L 3047 0 
L 2419 0 
L 2419 1100 
L 313 1100 
L 313 1709 
L 2253 4666 
z
" transform="scale(0.015625)"/>
       </defs>
       <use xlink:href="#DejaVuSans-34"/>
      </g>
     </g>
    </g>
    <g id="xtick_4">
     <g id="line2d_7">
      <path d="M 206.705 303.64 
L 206.705 25.44 
" clip-path="url(#p7acb8a673f)" style="fill: none; stroke: #b0b0b0; stroke-opacity: 0.3; stroke-width: 0.8; stroke-linecap: square"/>
     </g>
     <g id="line2d_8">
      <g>
       <use xlink:href="#m60e52deca8" x="206.705" y="303.64" style="stroke: #000000; stroke-width: 0.8"/>
      </g>
     </g>
     <g id="text_4">
      <!-- 6 -->
      <g transform="translate(203.52375 318.238437) scale(0.1 -0.1)">
       <defs>
        <path id="DejaVuSans-36" d="M 2113 2584 
Q 1688 2584 1439 2293 
Q 1191 2003 1191 1497 
Q 1191 994 1439 701 
Q 1688 409 2113 409 
Q 2538 409 2786 701 
Q 3034 994 3034 1497 
Q 3034 2003 2786 2293 
Q 2538 2584 2113 2584 
z
M 3366 4563 
L 3366 3988 
Q 3128 4100 2886 4159 
Q 2644 4219 2406 4219 
Q 1781 4219 1451 3797 
Q 1122 3375 1075 2522 
Q 1259 2794 1537 2939 
Q 1816 3084 2150 3084 
Q 2853 3084 3261 2657 
Q 3669 2231 3669 1497 
Q 3669 778 3244 343 
Q 2819 -91 2113 -91 
Q 1303 -91 875 529 
Q 447 1150 447 2328 
Q 447 3434 972 4092 
Q 1497 4750 2381 4750 
Q 2619 4750 2861 4703 
Q 3103 4656 3366 4563 
z
" transform="scale(0.015625)"/>
       </defs>
       <use xlink:href="#DejaVuSans-36"/>
      </g>
     </g>
    </g>
    <g id="xtick_5">
     <g id="line2d_9">
      <path d="M 256.611667 303.64 
L 256.611667 25.44 
" clip-path="url(#p7acb8a673f)" style="fill: none; stroke: #b0b0b0; stroke-opacity: 0.3; stroke-width: 0.8; stroke-linecap: square"/>
     </g>
     <g id="line2d_10">
      <g>
       <use xlink:href="#m60e52deca8" x="256.611667" y="303.64" style="stroke: #000000; stroke-width: 0.8"/>
      </g>
     </g>
     <g id="text_5">
      <!-- 8 -->
      <g transform="translate(253.430417 318.238437) scale(0.1 -0.1)">
       <defs>
        <path id="DejaVuSans-38" d="M 2034 2216 
Q 1584 2216 1326 1975 
Q 1069 1734 1069 1313 
Q 1069 891 1326 650 
Q 1584 409 2034 409 
Q 2484 409 2743 651 
Q 3003 894 3003 1313 
Q 3003 1734 2745 1975 
Q 2488 2216 2034 2216 
z
M 1403 2484 
Q 997 2584 770 2862 
Q 544 3141 544 3541 
Q 544 4100 942 4425 
Q 1341 4750 2034 4750 
Q 2731 4750 3128 4425 
Q 3525 4100 3525 3541 
Q 3525 3141 3298 2862 
Q 3072 2584 2669 2484 
Q 3125 2378 3379 2068 
Q 3634 1759 3634 1313 
Q 3634 634 3220 271 
Q 2806 -91 2034 -91 
Q 1263 -91 848 271 
Q 434 634 434 1313 
Q 434 1759 690 2068 
Q 947 2378 1403 2484 
z
M 1172 3481 
Q 1172 3119 1398 2916 
Q 1625 2713 2034 2713 
Q 2441 2713 2670 2916 
Q 2900 3119 2900 3481 
Q 2900 3844 2670 4047 
Q 2441 4250 2034 4250 
Q 1625 4250 1398 4047 
Q 1172 3844 1172 3481 
z
" transform="scale(0.015625)"/>
       </defs>
       <use xlink:href="#DejaVuSans-38"/>
      </g>
     </g>
    </g>
    <g id="xtick_6">
     <g id="line2d_11">
      <path d="M 306.518333 303.64 
L 306.518333 25.44 
" clip-path="url(#p7acb8a673f)" style="fill: none; stroke: #b0b0b0; stroke-opacity: 0.3; stroke-width: 0.8; stroke-linecap: square"/>
     </g>
     <g id="line2d_12">
      <g>
       <use xlink:href="#m60e52deca8" x="306.518333" y="303.64" style="stroke: #000000; stroke-width: 0.8"/>
      </g>
     </g>
     <g id="text_6">
      <!-- 10 -->
      <g transform="translate(300.155833 318.238437) scale(0.1 -0.1)">
       <defs>
        <path id="DejaVuSans-31" d="M 794 531 
L 1825 531 
L 1825 4091 
L 703 3866 
L 703 4441 
L 1819 4666 
L 2450 4666 
L 2450 531 
L 3481 531 
L 3481 0 
L 794 0 
L 794 531 
z
" transform="scale(0.015625)"/>
       </defs>
       <use xlink:href="#DejaVuSans-31"/>
       <use xlink:href="#DejaVuSans-30" transform="translate(63.623047 0)"/>
      </g>
     </g>
    </g>
    <g id="xtick_7">
     <g id="line2d_13">
      <path d="M 356.425 303.64 
L 356.425 25.44 
" clip-path="url(#p7acb8a673f)" style="fill: none; stroke: #b0b0b0; stroke-opacity: 0.3; stroke-width: 0.8; stroke-linecap: square"/>
     </g>
     <g id="line2d_14">
      <g>
       <use xlink:href="#m60e52deca8" x="356.425" y="303.64" style="stroke: #000000; stroke-width: 0.8"/>
      </g>
     </g>
     <g id="text_7">
      <!-- 12 -->
      <g transform="translate(350.0625 318.238437) scale(0.1 -0.1)">
       <use xlink:href="#DejaVuSans-31"/>
       <use xlink:href="#DejaVuSans-32" transform="translate(63.623047 0)"/>
      </g>
     </g>
    </g>
    <g id="xtick_8">
     <g id="line2d_15">
      <path d="M 406.331667 303.64 
L 406.331667 25.44 
" clip-path="url(#p7acb8a673f)" style="fill: none; stroke: #b0b0b0; stroke-opacity: 0.3; stroke-width: 0.8; stroke-linecap: square"/>
     </g>
     <g id="line2d_16">
      <g>
       <use xlink:href="#m60e52deca8" x="406.331667" y="303.64" style="stroke: #000000; stroke-width: 0.8"/>
      </g>
     </g>
     <g id="text_8">
      <!-- 14 -->
      <g transform="translate(399.969167 318.238437) scale(0.1 -0.1)">
       <use xlink:href="#DejaVuSans-31"/>
       <use xlink:href="#DejaVuSans-34" transform="translate(63.623047 0)"/>
      </g>
     </g>
    </g>
    <g id="text_9">
     <!-- Time (minutes) -->
     <g transform="translate(206.1725 331.916562) scale(0.1 -0.1)">
      <defs>
       <path id="DejaVuSans-54" d="M -19 4666 
L 3928 4666 
L 3928 4134 
L 2272 4134 
L 2272 0 
L 1638 0 
L 1638 4134 
L -19 4134 
L -19 4666 
z
" transform="scale(0.015625)"/>
       <path id="DejaVuSans-69" d="M 603 3500 
L 1178 3500 
L 1178 0 
L 603 0 
L 603 3500 
z
M 603 4863 
L 1178 4863 
L 1178 4134 
L 603 4134 
L 603 4863 
z
" transform="scale(0.015625)"/>
       <path id="DejaVuSans-6d" d="M 3328 2828 
Q 3544 3216 3844 3400 
Q 4144 3584 4550 3584 
Q 5097 3584 5394 3201 
Q 5691 2819 5691 2113 
L 5691 0 
L 5113 0 
L 5113 2094 
Q 5113 2597 4934 2840 
Q 4756 3084 4391 3084 
Q 3944 3084 3684 2787 
Q 3425 2491 3425 1978 
L 3425 0 
L 2847 0 
L 2847 2094 
Q 2847 2600 2669 2842 
Q 2491 3084 2119 3084 
Q 1678 3084 1418 2786 
Q 1159 2488 1159 1978 
L 1159 0 
L 581 0 
L 581 3500 
L 1159 3500 
L 1159 2956 
Q 1356 3278 1631 3431 
Q 1906 3584 2284 3584 
Q 2666 3584 2933 3390 
Q 3200 3197 3328 2828 
z
" transform="scale(0.015625)"/>
       <path id="DejaVuSans-65" d="M 3597 1894 
L 3597 1613 
L 953 1613 
Q 991 1019 1311 708 
Q 1631 397 2203 397 
Q 2534 397 2845 478 
Q 3156 559 3463 722 
L 3463 178 
Q 3153 47 2828 -22 
Q 2503 -91 2169 -91 
Q 1331 -91 842 396 
Q 353 884 353 1716 
Q 353 2575 817 3079 
Q 1281 3584 2069 3584 
Q 2775 3584 3186 3129 
Q 3597 2675 3597 1894 
z
M 3022 2063 
Q 3016 2534 2758 2815 
Q 2500 3097 2075 3097 
Q 1594 3097 1305 2825 
Q 1016 2553 972 2059 
L 3022 2063 
z
" transform="scale(0.015625)"/>
       <path id="DejaVuSans-20" transform="scale(0.015625)"/>
       <path id="DejaVuSans-28" d="M 1984 4856 
Q 1566 4138 1362 3434 
Q 1159 2731 1159 2009 
Q 1159 1288 1364 580 
Q 1569 -128 1984 -844 
L 1484 -844 
Q 1016 -109 783 600 
Q 550 1309 550 2009 
Q 550 2706 781 3412 
Q 1013 4119 1484 4856 
L 1984 4856 
z
" transform="scale(0.015625)"/>
       <path id="DejaVuSans-6e" d="M 3513 2113 
L 3513 0 
L 2938 0 
L 2938 2094 
Q 2938 2591 2744 2837 
Q 2550 3084 2163 3084 
Q 1697 3084 1428 2787 
Q 1159 2491 1159 1978 
L 1159 0 
L 581 0 
L 581 3500 
L 1159 3500 
L 1159 2956 
Q 1366 3272 1645 3428 
Q 1925 3584 2291 3584 
Q 2894 3584 3203 3211 
Q 3513 2838 3513 2113 
z
" transform="scale(0.015625)"/>
       <path id="DejaVuSans-75" d="M 544 1381 
L 544 3500 
L 1119 3500 
L 1119 1403 
Q 1119 906 1312 657 
Q 1506 409 1894 409 
Q 2359 409 2629 706 
Q 2900 1003 2900 1516 
L 2900 3500 
L 3475 3500 
L 3475 0 
L 2900 0 
L 2900 538 
Q 2691 219 2414 64 
Q 2138 -91 1772 -91 
Q 1169 -91 856 284 
Q 544 659 544 1381 
z
M 1991 3584 
L 1991 3584 
z
" transform="scale(0.015625)"/>
       <path id="DejaVuSans-74" d="M 1172 4494 
L 1172 3500 
L 2356 3500 
L 2356 3053 
L 1172 3053 
L 1172 1153 
Q 1172 725 1289 603 
Q 1406 481 1766 481 
L 2356 481 
L 2356 0 
L 1766 0 
Q 1100 0 847 248 
Q 594 497 594 1153 
L 594 3053 
L 172 3053 
L 172 3500 
L 594 3500 
L 594 4494 
L 1172 4494 
z
" transform="scale(0.015625)"/>
       <path id="DejaVuSans-73" d="M 2834 3397 
L 2834 2853 
Q 2591 2978 2328 3040 
Q 2066 3103 1784 3103 
Q 1356 3103 1142 2972 
Q 928 2841 928 2578 
Q 928 2378 1081 2264 
Q 1234 2150 1697 2047 
L 1894 2003 
Q 2506 1872 2764 1633 
Q 3022 1394 3022 966 
Q 3022 478 2636 193 
Q 2250 -91 1575 -91 
Q 1294 -91 989 -36 
Q 684 19 347 128 
L 347 722 
Q 666 556 975 473 
Q 1284 391 1588 391 
Q 1994 391 2212 530 
Q 2431 669 2431 922 
Q 2431 1156 2273 1281 
Q 2116 1406 1581 1522 
L 1381 1569 
Q 847 1681 609 1914 
Q 372 2147 372 2553 
Q 372 3047 722 3315 
Q 1072 3584 1716 3584 
Q 2034 3584 2315 3537 
Q 2597 3491 2834 3397 
z
" transform="scale(0.015625)"/>
       <path id="DejaVuSans-29" d="M 513 4856 
L 1013 4856 
Q 1481 4119 1714 3412 
Q 1947 2706 1947 2009 
Q 1947 1309 1714 600 
Q 1481 -109 1013 -844 
L 513 -844 
Q 928 -128 1133 580 
Q 1338 1288 1338 2009 
Q 1338 2731 1133 3434 
Q 928 4138 513 4856 
z
" transform="scale(0.015625)"/>
      </defs>
      <use xlink:href="#DejaVuSans-54"/>
      <use xlink:href="#DejaVuSans-69" transform="translate(57.958984 0)"/>
      <use xlink:href="#DejaVuSans-6d" transform="translate(85.742188 0)"/>
      <use xlink:href="#DejaVuSans-65" transform="translate(183.154297 0)"/>
      <use xlink:href="#DejaVuSans-20" transform="translate(244.677734 0)"/>
      <use xlink:href="#DejaVuSans-28" transform="translate(276.464844 0)"/>
      <use xlink:href="#DejaVuSans-6d" transform="translate(315.478516 0)"/>
      <use xlink:href="#DejaVuSans-69" transform="translate(412.890625 0)"/>
      <use xlink:href="#DejaVuSans-6e" transform="translate(440.673828 0)"/>
      <use xlink:href="#DejaVuSans-75" transform="translate(504.052734 0)"/>
      <use xlink:href="#DejaVuSans-74" transform="translate(567.431641 0)"/>
      <use xlink:href="#DejaVuSans-65" transform="translate(606.640625 0)"/>
      <use xlink:href="#DejaVuSans-73" transform="translate(668.164062 0)"/>
      <use xlink:href="#DejaVuSans-29" transform="translate(720.263672 0)"/>
     </g>
    </g>
   </g>
   <g id="matplotlib.axis_2">
    <g id="ytick_1">
     <g id="line2d_17">
      <path d="M 38.27 290.368743 
L 450 290.368743 
" clip-path="url(#p7acb8a673f)" style="fill: none; stroke: #b0b0b0; stroke-opacity: 0.3; stroke-width: 0.8; stroke-linecap: square"/>
     </g>
     <g id="line2d_18">
      <defs>
       <path id="mb6aa03f910" d="M 0 0 
L -3.5 0 
" style="stroke: #000000; stroke-width: 0.8"/>
      </defs>
      <g>
       <use xlink:href="#mb6aa03f910" x="38.27" y="290.368743" style="stroke: #000000; stroke-width: 0.8"/>
      </g>
     </g>
     <g id="text_10">
      <!-- 0 -->
      <g transform="translate(24.9075 294.167962) scale(0.1 -0.1)">
       <use xlink:href="#DejaVuSans-30"/>
      </g>
     </g>
    </g>
    <g id="ytick_2">
     <g id="line2d_19">
      <path d="M 38.27 253.698053 
L 450 253.698053 
" clip-path="url(#p7acb8a673f)" style="fill: none; stroke: #b0b0b0; stroke-opacity: 0.3; stroke-width: 0.8; stroke-linecap: square"/>
     </g>
     <g id="line2d_20">
      <g>
       <use xlink:href="#mb6aa03f910" x="38.27" y="253.698053" style="stroke: #000000; stroke-width: 0.8"/>
      </g>
     </g>
     <g id="text_11">
      <!-- 1 -->
      <g transform="translate(24.9075 257.497272) scale(0.1 -0.1)">
       <use xlink:href="#DejaVuSans-31"/>
      </g>
     </g>
    </g>
    <g id="ytick_3">
     <g id="line2d_21">
      <path d="M 38.27 217.027363 
L 450 217.027363 
" clip-path="url(#p7acb8a673f)" style="fill: none; stroke: #b0b0b0; stroke-opacity: 0.3; stroke-width: 0.8; stroke-linecap: square"/>
     </g>
     <g id="line2d_22">
      <g>
       <use xlink:href="#mb6aa03f910" x="38.27" y="217.027363" style="stroke: #000000; stroke-width: 0.8"/>
      </g>
     </g>
     <g id="text_12">
      <!-- 2 -->
      <g transform="translate(24.9075 220.826582) scale(0.1 -0.1)">
       <use xlink:href="#DejaVuSans-32"/>
      </g>
     </g>
    </g>
    <g id="ytick_4">
     <g id="line2d_23">
      <path d="M 38.27 180.356673 
L 450 180.356673 
" clip-path="url(#p7acb8a673f)" style="fill: none; stroke: #b0b0b0; stroke-opacity: 0.3; stroke-width: 0.8; stroke-linecap: square"/>
     </g>
     <g id="line2d_24">
      <g>
       <use xlink:href="#mb6aa03f910" x="38.27" y="180.356673" style="stroke: #000000; stroke-width: 0.8"/>
      </g>
     </g>
     <g id="text_13">
      <!-- 3 -->
      <g transform="translate(24.9075 184.155892) scale(0.1 -0.1)">
       <defs>
        <path id="DejaVuSans-33" d="M 2597 2516 
Q 3050 2419 3304 2112 
Q 3559 1806 3559 1356 
Q 3559 666 3084 287 
Q 2609 -91 1734 -91 
Q 1441 -91 1130 -33 
Q 819 25 488 141 
L 488 750 
Q 750 597 1062 519 
Q 1375 441 1716 441 
Q 2309 441 2620 675 
Q 2931 909 2931 1356 
Q 2931 1769 2642 2001 
Q 2353 2234 1838 2234 
L 1294 2234 
L 1294 2753 
L 1863 2753 
Q 2328 2753 2575 2939 
Q 2822 3125 2822 3475 
Q 2822 3834 2567 4026 
Q 2313 4219 1838 4219 
Q 1578 4219 1281 4162 
Q 984 4106 628 3988 
L 628 4550 
Q 988 4650 1302 4700 
Q 1616 4750 1894 4750 
Q 2613 4750 3031 4423 
Q 3450 4097 3450 3541 
Q 3450 3153 3228 2886 
Q 3006 2619 2597 2516 
z
" transform="scale(0.015625)"/>
       </defs>
       <use xlink:href="#DejaVuSans-33"/>
      </g>
     </g>
    </g>
    <g id="ytick_5">
     <g id="line2d_25">
      <path d="M 38.27 143.685983 
L 450 143.685983 
" clip-path="url(#p7acb8a673f)" style="fill: none; stroke: #b0b0b0; stroke-opacity: 0.3; stroke-width: 0.8; stroke-linecap: square"/>
     </g>
     <g id="line2d_26">
      <g>
       <use xlink:href="#mb6aa03f910" x="38.27" y="143.685983" style="stroke: #000000; stroke-width: 0.8"/>
      </g>
     </g>
     <g id="text_14">
      <!-- 4 -->
      <g transform="translate(24.9075 147.485202) scale(0.1 -0.1)">
       <use xlink:href="#DejaVuSans-34"/>
      </g>
     </g>
    </g>
    <g id="ytick_6">
     <g id="line2d_27">
      <path d="M 38.27 107.015293 
L 450 107.015293 
" clip-path="url(#p7acb8a673f)" style="fill: none; stroke: #b0b0b0; stroke-opacity: 0.3; stroke-width: 0.8; stroke-linecap: square"/>
     </g>
     <g id="line2d_28">
      <g>
       <use xlink:href="#mb6aa03f910" x="38.27" y="107.015293" style="stroke: #000000; stroke-width: 0.8"/>
      </g>
     </g>
     <g id="text_15">
      <!-- 5 -->
      <g transform="translate(24.9075 110.814512) scale(0.1 -0.1)">
       <defs>
        <path id="DejaVuSans-35" d="M 691 4666 
L 3169 4666 
L 3169 4134 
L 1269 4134 
L 1269 2991 
Q 1406 3038 1543 3061 
Q 1681 3084 1819 3084 
Q 2600 3084 3056 2656 
Q 3513 2228 3513 1497 
Q 3513 744 3044 326 
Q 2575 -91 1722 -91 
Q 1428 -91 1123 -41 
Q 819 9 494 109 
L 494 744 
Q 775 591 1075 516 
Q 1375 441 1709 441 
Q 2250 441 2565 725 
Q 2881 1009 2881 1497 
Q 2881 1984 2565 2268 
Q 2250 2553 1709 2553 
Q 1456 2553 1204 2497 
Q 953 2441 691 2322 
L 691 4666 
z
" transform="scale(0.015625)"/>
       </defs>
       <use xlink:href="#DejaVuSans-35"/>
      </g>
     </g>
    </g>
    <g id="ytick_7">
     <g id="line2d_29">
      <path d="M 38.27 70.344603 
L 450 70.344603 
" clip-path="url(#p7acb8a673f)" style="fill: none; stroke: #b0b0b0; stroke-opacity: 0.3; stroke-width: 0.8; stroke-linecap: square"/>
     </g>
     <g id="line2d_30">
      <g>
       <use xlink:href="#mb6aa03f910" x="38.27" y="70.344603" style="stroke: #000000; stroke-width: 0.8"/>
      </g>
     </g>
     <g id="text_16">
      <!-- 6 -->
      <g transform="translate(24.9075 74.143822) scale(0.1 -0.1)">
       <use xlink:href="#DejaVuSans-36"/>
      </g>
     </g>
    </g>
    <g id="ytick_8">
     <g id="line2d_31">
      <path d="M 38.27 33.673913 
L 450 33.673913 
" clip-path="url(#p7acb8a673f)" style="fill: none; stroke: #b0b0b0; stroke-opacity: 0.3; stroke-width: 0.8; stroke-linecap: square"/>
     </g>
     <g id="line2d_32">
      <g>
       <use xlink:href="#mb6aa03f910" x="38.27" y="33.673913" style="stroke: #000000; stroke-width: 0.8"/>
      </g>
     </g>
     <g id="text_17">
      <!-- 7 -->
      <g transform="translate(24.9075 37.473132) scale(0.1 -0.1)">
       <defs>
        <path id="DejaVuSans-37" d="M 525 4666 
L 3525 4666 
L 3525 4397 
L 1831 0 
L 1172 0 
L 2766 4134 
L 525 4134 
L 525 4666 
z
" transform="scale(0.015625)"/>
       </defs>
       <use xlink:href="#DejaVuSans-37"/>
      </g>
     </g>
    </g>
    <g id="text_18">
     <!-- EDA signals (μS) -->
     <g transform="translate(18.827813 205.711875) rotate(-90) scale(0.1 -0.1)">
      <defs>
       <path id="DejaVuSans-45" d="M 628 4666 
L 3578 4666 
L 3578 4134 
L 1259 4134 
L 1259 2753 
L 3481 2753 
L 3481 2222 
L 1259 2222 
L 1259 531 
L 3634 531 
L 3634 0 
L 628 0 
L 628 4666 
z
" transform="scale(0.015625)"/>
       <path id="DejaVuSans-44" d="M 1259 4147 
L 1259 519 
L 2022 519 
Q 2988 519 3436 956 
Q 3884 1394 3884 2338 
Q 3884 3275 3436 3711 
Q 2988 4147 2022 4147 
L 1259 4147 
z
M 628 4666 
L 1925 4666 
Q 3281 4666 3915 4102 
Q 4550 3538 4550 2338 
Q 4550 1131 3912 565 
Q 3275 0 1925 0 
L 628 0 
L 628 4666 
z
" transform="scale(0.015625)"/>
       <path id="DejaVuSans-41" d="M 2188 4044 
L 1331 1722 
L 3047 1722 
L 2188 4044 
z
M 1831 4666 
L 2547 4666 
L 4325 0 
L 3669 0 
L 3244 1197 
L 1141 1197 
L 716 0 
L 50 0 
L 1831 4666 
z
" transform="scale(0.015625)"/>
       <path id="DejaVuSans-67" d="M 2906 1791 
Q 2906 2416 2648 2759 
Q 2391 3103 1925 3103 
Q 1463 3103 1205 2759 
Q 947 2416 947 1791 
Q 947 1169 1205 825 
Q 1463 481 1925 481 
Q 2391 481 2648 825 
Q 2906 1169 2906 1791 
z
M 3481 434 
Q 3481 -459 3084 -895 
Q 2688 -1331 1869 -1331 
Q 1566 -1331 1297 -1286 
Q 1028 -1241 775 -1147 
L 775 -588 
Q 1028 -725 1275 -790 
Q 1522 -856 1778 -856 
Q 2344 -856 2625 -561 
Q 2906 -266 2906 331 
L 2906 616 
Q 2728 306 2450 153 
Q 2172 0 1784 0 
Q 1141 0 747 490 
Q 353 981 353 1791 
Q 353 2603 747 3093 
Q 1141 3584 1784 3584 
Q 2172 3584 2450 3431 
Q 2728 3278 2906 2969 
L 2906 3500 
L 3481 3500 
L 3481 434 
z
" transform="scale(0.015625)"/>
       <path id="DejaVuSans-61" d="M 2194 1759 
Q 1497 1759 1228 1600 
Q 959 1441 959 1056 
Q 959 750 1161 570 
Q 1363 391 1709 391 
Q 2188 391 2477 730 
Q 2766 1069 2766 1631 
L 2766 1759 
L 2194 1759 
z
M 3341 1997 
L 3341 0 
L 2766 0 
L 2766 531 
Q 2569 213 2275 61 
Q 1981 -91 1556 -91 
Q 1019 -91 701 211 
Q 384 513 384 1019 
Q 384 1609 779 1909 
Q 1175 2209 1959 2209 
L 2766 2209 
L 2766 2266 
Q 2766 2663 2505 2880 
Q 2244 3097 1772 3097 
Q 1472 3097 1187 3025 
Q 903 2953 641 2809 
L 641 3341 
Q 956 3463 1253 3523 
Q 1550 3584 1831 3584 
Q 2591 3584 2966 3190 
Q 3341 2797 3341 1997 
z
" transform="scale(0.015625)"/>
       <path id="DejaVuSans-6c" d="M 603 4863 
L 1178 4863 
L 1178 0 
L 603 0 
L 603 4863 
z
" transform="scale(0.015625)"/>
       <path id="DejaVuSans-3bc" d="M 544 -1331 
L 544 3500 
L 1119 3500 
L 1119 1325 
Q 1119 872 1334 640 
Q 1550 409 1972 409 
Q 2434 409 2667 671 
Q 2900 934 2900 1459 
L 2900 3500 
L 3475 3500 
L 3475 806 
Q 3475 619 3529 530 
Q 3584 441 3700 441 
Q 3728 441 3778 458 
Q 3828 475 3916 513 
L 3916 50 
Q 3788 -22 3673 -56 
Q 3559 -91 3450 -91 
Q 3234 -91 3106 31 
Q 2978 153 2931 403 
Q 2775 156 2548 32 
Q 2322 -91 2016 -91 
Q 1697 -91 1473 31 
Q 1250 153 1119 397 
L 1119 -1331 
L 544 -1331 
z
" transform="scale(0.015625)"/>
       <path id="DejaVuSans-53" d="M 3425 4513 
L 3425 3897 
Q 3066 4069 2747 4153 
Q 2428 4238 2131 4238 
Q 1616 4238 1336 4038 
Q 1056 3838 1056 3469 
Q 1056 3159 1242 3001 
Q 1428 2844 1947 2747 
L 2328 2669 
Q 3034 2534 3370 2195 
Q 3706 1856 3706 1288 
Q 3706 609 3251 259 
Q 2797 -91 1919 -91 
Q 1588 -91 1214 -16 
Q 841 59 441 206 
L 441 856 
Q 825 641 1194 531 
Q 1563 422 1919 422 
Q 2459 422 2753 634 
Q 3047 847 3047 1241 
Q 3047 1584 2836 1778 
Q 2625 1972 2144 2069 
L 1759 2144 
Q 1053 2284 737 2584 
Q 422 2884 422 3419 
Q 422 4038 858 4394 
Q 1294 4750 2059 4750 
Q 2388 4750 2728 4690 
Q 3069 4631 3425 4513 
z
" transform="scale(0.015625)"/>
      </defs>
      <use xlink:href="#DejaVuSans-45"/>
      <use xlink:href="#DejaVuSans-44" transform="translate(63.183594 0)"/>
      <use xlink:href="#DejaVuSans-41" transform="translate(138.435547 0)"/>
      <use xlink:href="#DejaVuSans-20" transform="translate(206.84375 0)"/>
      <use xlink:href="#DejaVuSans-73" transform="translate(238.630859 0)"/>
      <use xlink:href="#DejaVuSans-69" transform="translate(290.730469 0)"/>
      <use xlink:href="#DejaVuSans-67" transform="translate(318.513672 0)"/>
      <use xlink:href="#DejaVuSans-6e" transform="translate(381.990234 0)"/>
      <use xlink:href="#DejaVuSans-61" transform="translate(445.369141 0)"/>
      <use xlink:href="#DejaVuSans-6c" transform="translate(506.648438 0)"/>
      <use xlink:href="#DejaVuSans-73" transform="translate(534.431641 0)"/>
      <use xlink:href="#DejaVuSans-20" transform="translate(586.53125 0)"/>
      <use xlink:href="#DejaVuSans-28" transform="translate(618.318359 0)"/>
      <use xlink:href="#DejaVuSans-3bc" transform="translate(657.332031 0)"/>
      <use xlink:href="#DejaVuSans-53" transform="translate(720.955078 0)"/>
      <use xlink:href="#DejaVuSans-29" transform="translate(784.431641 0)"/>
     </g>
    </g>
   </g>
   <g id="line2d_33">
    <path d="M 56.985 98.219895 
L 57.29709 99.346009 
L 57.71321 101.992592 
L 58.96157 110.896092 
L 59.68978 113.903671 
L 60.522021 116.567834 
L 60.834111 116.98628 
L 61.042171 116.996168 
L 61.770381 116.602158 
L 61.978441 116.854431 
L 62.290531 117.693958 
L 63.642921 122.063997 
L 64.475161 123.861727 
L 65.099341 124.628785 
L 66.035611 125.689559 
L 67.388002 127.397232 
L 67.700092 127.457957 
L 68.012182 127.271874 
L 69.052482 126.267736 
L 69.364572 126.335092 
L 69.780692 126.730253 
L 71.757262 129.194554 
L 74.045923 130.421911 
L 75.606373 131.257173 
L 75.814433 130.924547 
L 76.022493 130.210622 
L 76.334583 128.213596 
L 76.854733 122.696116 
L 77.374883 117.579633 
L 77.686973 116.199166 
L 77.895033 115.922691 
L 78.415183 115.678716 
L 78.623243 115.207121 
L 79.039364 113.437514 
L 79.559514 111.155166 
L 79.871604 110.665438 
L 80.079664 110.827512 
L 80.391754 111.693509 
L 80.911904 114.155099 
L 82.160264 121.64828 
L 82.888474 126.843974 
L 84.032804 136.43366 
L 84.136834 136.421817 
L 84.344894 135.504267 
L 84.656984 132.061156 
L 85.489225 121.041126 
L 85.801315 119.499732 
L 86.633555 116.900948 
L 87.673855 111.512189 
L 88.818185 104.528281 
L 89.026245 104.344031 
L 89.234305 104.561542 
L 89.546395 105.471814 
L 89.962515 107.719343 
L 90.378635 111.615117 
L 91.002815 120.549188 
L 91.626996 128.90892 
L 92.043116 131.922918 
L 92.251176 132.440157 
L 92.355206 132.386481 
L 92.563266 131.475664 
L 92.771326 129.217911 
L 93.083416 122.908576 
L 94.019686 99.569582 
L 94.227746 98.291994 
L 94.331776 98.31719 
L 94.539836 99.366618 
L 95.164016 105.481324 
L 95.684166 109.207092 
L 95.996256 110.241942 
L 96.204316 110.480542 
L 96.412376 110.440784 
L 97.036556 109.924891 
L 97.244616 110.08737 
L 97.556707 110.883448 
L 98.909097 115.707519 
L 99.221187 115.99525 
L 99.533277 116.008334 
L 99.949397 115.797025 
L 100.261487 115.470168 
L 100.573577 114.73591 
L 100.885667 113.251008 
L 101.613877 108.715488 
L 101.717907 108.678843 
L 101.821937 109.020265 
L 102.029997 111.12328 
L 102.342087 118.477936 
L 102.862237 140.167501 
L 103.486417 165.177888 
L 103.798508 171.312816 
L 104.006568 172.975655 
L 104.214628 173.272787 
L 104.422688 172.788876 
L 104.838808 171.508933 
L 104.942838 171.417809 
L 105.046868 171.495991 
L 105.254928 172.242423 
L 105.671048 175.599559 
L 105.983138 177.352073 
L 106.087168 177.197063 
L 106.295228 175.269483 
L 106.607318 168.219365 
L 107.231498 145.751378 
L 108.375828 105.273738 
L 108.895978 93.2834 
L 109.312098 88.447487 
L 109.728218 86.104509 
L 109.936278 85.65128 
L 110.040309 85.686308 
L 110.248369 86.438003 
L 110.560459 89.414777 
L 111.496729 100.669173 
L 111.600759 100.846065 
L 111.704789 100.708388 
L 111.912849 99.62879 
L 112.641059 94.687478 
L 112.745089 94.732422 
L 112.953149 95.715869 
L 113.265239 99.341297 
L 113.681359 107.409246 
L 114.721659 129.07988 
L 115.137779 133.544867 
L 115.449869 135.293772 
L 115.657929 135.728298 
L 115.761959 135.729632 
L 115.970019 135.327537 
L 116.28211 133.83998 
L 116.69823 130.387021 
L 117.11435 125.043058 
L 118.46674 104.959211 
L 118.6748 104.138641 
L 118.77883 104.188746 
L 118.98689 105.242083 
L 119.29898 108.877089 
L 120.33928 123.078727 
L 120.65137 124.739048 
L 120.96346 125.284015 
L 121.06749 125.246407 
L 121.27555 124.783782 
L 121.48361 123.646369 
L 121.7957 120.264804 
L 122.836001 104.904996 
L 122.940031 104.739134 
L 123.044061 104.941676 
L 123.252121 106.268344 
L 124.604511 118.209234 
L 124.916601 119.076866 
L 125.124661 119.26072 
L 125.332721 119.093437 
L 125.540781 118.530616 
L 125.852871 116.801157 
L 126.164961 113.6008 
L 126.581081 105.960261 
L 127.413321 87.503914 
L 127.621381 86.677827 
L 127.725411 87.140332 
L 127.933471 89.564076 
L 129.181832 109.671443 
L 129.389892 110.396622 
L 129.493922 110.400634 
L 129.701982 109.714936 
L 130.014072 107.211834 
L 130.950342 98.113583 
L 131.366462 96.078711 
L 131.574522 95.910945 
L 131.782582 96.706684 
L 132.094672 100.032436 
L 132.822882 113.027422 
L 133.343032 120.085361 
L 133.655122 122.27297 
L 133.863182 122.824539 
L 133.967212 122.836902 
L 134.175272 122.397632 
L 135.007513 119.366099 
L 135.215573 119.820554 
L 135.631693 122.186021 
L 135.943783 123.503719 
L 136.047813 123.607516 
L 136.151843 123.532918 
L 136.359903 122.975306 
L 136.880053 121.458882 
L 137.088113 121.392634 
L 137.504233 121.450928 
L 137.712293 121.160176 
L 138.128413 120.454668 
L 138.232443 120.557088 
L 138.440503 121.530606 
L 138.648563 123.819278 
L 138.960653 129.884702 
L 139.584833 147.958102 
L 141.457374 203.047474 
L 141.561404 203.093495 
L 141.769464 200.990387 
L 142.081554 193.500888 
L 143.537974 151.138289 
L 144.162154 142.028144 
L 144.682304 137.589259 
L 145.202454 135.091451 
L 146.346784 131.029051 
L 146.658874 130.67326 
L 146.866934 130.743947 
L 147.283054 131.305733 
L 147.595145 131.602272 
L 147.803205 131.5111 
L 148.323355 130.767264 
L 148.427385 130.933795 
L 148.635445 132.305966 
L 148.843505 135.693062 
L 149.155595 145.221362 
L 150.091865 179.610112 
L 150.403955 184.06259 
L 150.716045 185.934839 
L 151.132165 187.003503 
L 151.444255 187.887796 
L 151.756345 189.664541 
L 152.068435 192.871363 
L 152.900675 202.687467 
L 153.004705 202.86754 
L 153.108735 202.642301 
L 153.316795 201.003408 
L 153.732916 194.307107 
L 154.461126 182.40746 
L 155.397396 171.036818 
L 155.917546 159.250779 
L 157.061876 130.854189 
L 157.686056 120.918536 
L 158.206206 115.417108 
L 158.518296 113.711593 
L 158.726356 113.259469 
L 158.934416 113.252081 
L 159.142476 113.581913 
L 159.454566 114.561109 
L 159.870686 116.642922 
L 160.702927 121.175897 
L 161.015017 121.94934 
L 161.327107 122.196037 
L 161.639197 122.10341 
L 162.055317 121.630225 
L 162.471437 120.766211 
L 162.887557 119.287524 
L 163.407707 116.365244 
L 164.031887 112.798694 
L 164.239947 112.248491 
L 164.343977 112.213263 
L 164.448007 112.385053 
L 164.656067 113.505521 
L 164.968157 117.636239 
L 165.384277 127.782916 
L 166.216518 149.632678 
L 166.736668 162.53746 
L 167.672938 193.35394 
L 167.776968 193.093416 
L 167.985028 188.665294 
L 168.297118 174.377944 
L 168.921298 143.333453 
L 169.233388 135.828236 
L 169.441448 133.967878 
L 169.545478 133.761606 
L 169.649508 133.936244 
L 169.857568 135.160434 
L 170.273688 139.585289 
L 170.897868 145.911946 
L 171.105928 146.82961 
L 171.209958 146.954435 
L 171.313988 146.836654 
L 171.522048 145.851107 
L 171.834138 142.656042 
L 173.186529 125.722762 
L 173.914739 119.634643 
L 174.122799 118.963906 
L 174.226829 118.893529 
L 174.434889 119.235165 
L 174.746979 120.58552 
L 175.475189 124.029378 
L 175.891309 124.987464 
L 176.307429 125.349909 
L 176.827579 125.427174 
L 177.763849 125.280763 
L 178.596089 124.919465 
L 179.74042 124.2421 
L 180.05251 123.543141 
L 180.57266 121.474494 
L 180.98878 120.188789 
L 181.19684 120.164143 
L 181.4049 120.670775 
L 181.82102 122.890163 
L 182.23714 124.962538 
L 182.4452 125.244191 
L 182.65326 124.920964 
L 183.38147 122.682572 
L 183.58953 122.762867 
L 183.90162 123.561803 
L 184.42177 125.827051 
L 185.149981 128.932852 
L 185.358041 129.039965 
L 185.566101 128.477361 
L 185.878191 126.243291 
L 186.294311 121.116068 
L 187.230581 108.576227 
L 187.542671 106.65701 
L 187.750731 106.43442 
L 187.958791 106.980678 
L 188.374911 109.440695 
L 188.895061 112.391075 
L 189.207151 113.214071 
L 189.415211 113.367479 
L 189.935361 113.440882 
L 190.143421 113.945221 
L 190.455511 115.729294 
L 191.287752 121.614496 
L 191.495812 121.690092 
L 192.119992 120.677774 
L 192.328052 121.108928 
L 192.640142 122.687187 
L 193.576412 128.096115 
L 194.096562 129.630562 
L 194.408652 130.085339 
L 194.616712 130.159484 
L 194.824772 130.00141 
L 195.136862 129.258033 
L 195.552982 127.447722 
L 196.385222 123.769262 
L 196.905372 122.436713 
L 197.217462 122.050817 
L 197.425523 122.028123 
L 197.737613 122.335829 
L 199.298063 124.733471 
L 199.714183 124.857865 
L 200.026273 124.659415 
L 200.338363 124.013107 
L 200.754483 122.264802 
L 201.482693 118.725406 
L 201.690753 118.341995 
L 201.898813 118.368069 
L 202.106873 118.748181 
L 202.522993 120.157608 
L 203.043143 121.854278 
L 203.251203 122.018103 
L 203.459263 121.653215 
L 203.771354 120.042074 
L 204.707624 113.602012 
L 205.019714 112.884073 
L 205.227774 112.785792 
L 205.539864 112.976864 
L 206.580164 114.039052 
L 206.788224 113.905856 
L 206.996284 113.487984 
L 207.308374 112.262334 
L 208.140614 108.246897 
L 208.348674 107.968062 
L 208.556734 108.039135 
L 209.284944 108.721239 
L 209.597034 108.452743 
L 210.325245 107.542501 
L 210.741365 107.421485 
L 211.573605 107.302505 
L 211.885695 107.016809 
L 212.197785 106.306693 
L 212.509875 104.683648 
L 212.821965 101.630887 
L 213.862265 88.85782 
L 213.966295 88.630836 
L 214.070325 88.684371 
L 214.278385 89.494321 
L 215.422715 96.281188 
L 217.607346 102.283 
L 218.231526 103.098121 
L 218.543616 103.206488 
L 218.751676 103.075611 
L 219.063766 102.45552 
L 219.479886 100.780042 
L 220.208096 97.488968 
L 220.520186 96.940233 
L 220.728246 96.911594 
L 221.144366 97.26272 
L 221.352426 97.369732 
L 221.560486 97.182297 
L 221.768546 96.46203 
L 222.080636 93.89048 
L 222.496757 87.506699 
L 223.120937 78.005998 
L 223.328997 76.974559 
L 223.433027 76.971432 
L 223.641087 77.834985 
L 224.161237 82.44591 
L 224.577357 85.328201 
L 224.889447 86.047696 
L 225.097507 85.923441 
L 225.929747 84.581966 
L 226.137807 84.73938 
L 226.553927 85.579446 
L 227.074077 86.510818 
L 227.282137 86.566956 
L 227.490197 86.358326 
L 227.802287 85.480863 
L 228.218407 83.370303 
L 228.738558 80.737687 
L 228.946618 80.381254 
L 229.050648 80.452624 
L 229.258708 81.16938 
L 229.570798 83.73428 
L 230.090948 91.047076 
L 230.715128 99.538343 
L 231.131248 102.413454 
L 231.651398 105.051938 
L 232.067518 108.828919 
L 233.211848 120.562156 
L 233.940058 127.403903 
L 234.668268 134.224369 
L 234.980359 135.518283 
L 235.188419 135.826355 
L 235.396479 135.831893 
L 235.708569 135.54301 
L 236.436779 134.504027 
L 236.748869 133.681652 
L 237.060959 132.130723 
L 237.373049 129.337366 
L 237.789169 122.949549 
L 239.037529 100.156489 
L 239.453649 97.879128 
L 239.765739 96.029374 
L 240.077829 92.601064 
L 240.910069 81.339847 
L 241.014099 81.070627 
L 241.11813 81.232489 
L 241.32619 82.776578 
L 241.74231 89.107619 
L 242.36649 98.527454 
L 242.78261 101.888194 
L 243.19873 103.633202 
L 243.61485 104.662504 
L 243.82291 104.903959 
L 244.03097 104.824205 
L 244.23903 104.281689 
L 244.55112 102.391231 
L 245.69545 93.304665 
L 245.79948 93.404507 
L 246.00754 94.220467 
L 246.42366 97.474354 
L 247.255901 104.120064 
L 247.776051 106.488459 
L 248.296201 107.854388 
L 248.712321 108.402136 
L 248.920381 108.450159 
L 249.128441 108.29103 
L 249.440531 107.57461 
L 249.856651 105.763199 
L 250.896951 100.007341 
L 251.209041 96.762421 
L 252.249341 83.352932 
L 252.353371 83.323798 
L 252.561431 84.285888 
L 252.977551 88.806773 
L 253.601732 95.505526 
L 253.913822 97.206579 
L 254.121882 97.629851 
L 254.225912 97.634187 
L 254.433972 97.26784 
L 254.850092 95.568117 
L 255.266212 94.053472 
L 255.474272 93.762818 
L 255.682332 93.741662 
L 256.202482 93.838491 
L 256.722632 93.624643 
L 256.930692 93.80582 
L 257.242782 94.59629 
L 258.699202 99.639972 
L 259.011292 99.80254 
L 259.323382 99.569226 
L 259.843533 99.051292 
L 260.051593 99.070554 
L 260.363683 99.433742 
L 261.924133 102.16446 
L 262.236223 102.290995 
L 262.548313 102.167478 
L 262.964433 101.644028 
L 263.380553 100.770572 
L 263.692643 99.626627 
L 264.004733 97.513457 
L 264.420853 92.690468 
L 265.045033 85.044546 
L 265.253093 83.976733 
L 265.357123 83.83958 
L 265.461153 83.953716 
L 265.669213 84.823382 
L 266.189364 88.926524 
L 266.709514 92.598552 
L 267.021604 93.714172 
L 267.229664 93.797835 
L 267.437724 93.189082 
L 267.749814 90.708852 
L 268.269964 83.23911 
L 268.686084 78.307045 
L 268.894144 77.55986 
L 268.998174 77.685831 
L 269.206234 78.808662 
L 269.726384 84.274514 
L 270.246534 88.990391 
L 270.662654 90.80224 
L 270.974744 91.343857 
L 271.911014 92.494895 
L 272.847285 94.207949 
L 273.679525 95.891907 
L 274.095645 96.203792 
L 274.719825 96.44285 
L 275.135945 96.963261 
L 277.216545 100.341674 
L 277.528635 100.324596 
L 277.944755 99.939393 
L 278.568936 99.405232 
L 278.985056 99.055426 
L 279.297146 98.451882 
L 279.713266 97.015829 
L 280.857596 91.883675 
L 281.169686 88.446923 
L 281.585806 80.683989 
L 282.105956 71.045594 
L 282.314016 69.439314 
L 282.418046 69.302145 
L 282.522076 69.590205 
L 282.730136 71.245529 
L 283.978496 85.090576 
L 284.290586 85.748545 
L 284.498646 85.732291 
L 285.122827 85.366033 
L 285.747007 85.315993 
L 285.955067 85.010637 
L 286.267157 84.13146 
L 286.891337 82.15176 
L 287.099397 81.9854 
L 287.307457 82.220721 
L 287.619547 83.235972 
L 288.451787 86.590873 
L 288.659847 86.807535 
L 288.867907 86.573267 
L 289.075967 85.854328 
L 289.492087 83.172471 
L 290.116267 78.879933 
L 290.324327 78.328072 
L 290.428357 78.292421 
L 290.636417 78.671223 
L 290.948508 80.073834 
L 292.092838 85.948318 
L 292.508958 86.996273 
L 292.717018 87.107427 
L 292.925078 86.791997 
L 293.133138 85.913219 
L 293.445228 83.329077 
L 293.861348 77.623543 
L 294.485528 65.374528 
L 295.629858 39.338893 
L 295.733888 38.933845 
L 295.837918 39.046909 
L 296.045978 40.572025 
L 296.878218 49.724158 
L 297.606429 53.208469 
L 298.646729 61.985767 
L 298.750759 61.827296 
L 299.062849 60.37044 
L 299.374939 59.06673 
L 299.478969 59.018438 
L 299.582999 59.249178 
L 299.791059 60.623456 
L 300.103149 64.786478 
L 301.975689 95.9345 
L 302.391809 99.038137 
L 302.807929 100.613671 
L 303.120019 101.034832 
L 303.328079 101.02607 
L 303.64017 100.711279 
L 304.16032 100.132152 
L 304.36838 100.12549 
L 304.68047 100.385737 
L 305.20062 100.894298 
L 305.51271 100.873599 
L 305.8248 100.590626 
L 306.24092 99.874422 
L 306.55301 98.929088 
L 307.07316 96.457964 
L 307.59331 94.312593 
L 308.63361 91.306894 
L 309.04973 90.043432 
L 309.25779 90.002767 
L 309.46585 90.475398 
L 309.777941 91.972076 
L 310.714211 97.056278 
L 311.026301 97.748295 
L 311.234361 97.813749 
L 311.442421 97.561712 
L 311.754511 96.689816 
L 312.378691 94.692399 
L 312.586751 94.462793 
L 312.794811 94.55374 
L 313.106901 95.161856 
L 313.731081 96.592722 
L 313.939141 96.631048 
L 314.147201 96.193768 
L 314.355261 95.120319 
L 314.667351 92.113457 
L 316.123772 71.896643 
L 316.539892 62.876741 
L 317.476162 38.956032 
L 317.684222 38.085455 
L 317.788252 38.508525 
L 317.996312 40.784999 
L 318.516462 50.670073 
L 319.140642 61.075786 
L 319.868852 68.988624 
L 320.284972 72.268085 
L 320.493032 72.770906 
L 320.597062 72.521615 
L 320.805122 70.803183 
L 321.117212 65.405271 
L 321.637362 55.588246 
L 321.845422 54.122647 
L 321.949452 54.110359 
L 322.157513 55.326329 
L 322.573633 60.668735 
L 323.197813 68.798466 
L 323.509903 70.744202 
L 323.717963 71.090352 
L 324.238113 71.079163 
L 324.446173 71.697787 
L 324.862293 74.241857 
L 325.902593 82.137677 
L 326.318713 88.518078 
L 327.359013 106.675245 
L 328.399314 118.606277 
L 329.751704 132.209814 
L 330.687974 144.660565 
L 331.000064 146.424239 
L 331.208124 146.801482 
L 331.416184 146.696374 
L 331.728274 146.027633 
L 332.248424 144.946336 
L 332.560514 144.78708 
L 333.184694 144.741271 
L 333.496784 144.318568 
L 334.224994 143.176031 
L 334.433054 143.137427 
L 334.745145 143.372485 
L 335.577385 144.339197 
L 335.889475 144.296273 
L 336.721715 143.982634 
L 337.137835 144.165739 
L 337.762015 144.791388 
L 338.698285 145.684803 
L 340.154705 146.690279 
L 340.674855 146.834153 
L 341.090976 146.730316 
L 341.611126 146.323344 
L 342.443366 145.59672 
L 342.859486 145.549941 
L 343.171576 145.719526 
L 343.587696 146.262915 
L 344.732026 148.200019 
L 345.148146 148.244515 
L 345.460236 148.301496 
L 345.668296 148.534847 
L 345.980386 149.39177 
L 346.500536 151.985792 
L 346.916656 153.572563 
L 347.124717 153.709612 
L 347.332777 153.412799 
L 348.269047 151.248739 
L 348.997257 150.497148 
L 349.309347 149.667096 
L 349.725467 147.792779 
L 350.245617 144.17016 
L 350.869797 140.047877 
L 351.077857 139.642784 
L 351.181887 139.700049 
L 351.389947 140.301481 
L 351.806067 142.804814 
L 352.430247 146.662872 
L 352.846367 148.068315 
L 353.158457 148.521385 
L 353.574578 148.661954 
L 353.990698 148.797953 
L 354.302788 149.146134 
L 355.447118 150.884962 
L 355.655178 150.814496 
L 355.863238 150.48383 
L 356.175328 149.335466 
L 356.487418 147.102283 
L 356.799508 143.369135 
L 357.215628 135.624765 
L 358.047868 118.342943 
L 358.359958 116.034462 
L 358.463988 115.951822 
L 358.672048 116.608157 
L 359.088168 119.826825 
L 359.920409 126.570639 
L 360.440559 129.070444 
L 360.752649 129.778627 
L 360.960709 129.938989 
L 361.168769 129.881893 
L 361.480859 129.427861 
L 361.792949 128.515347 
L 362.209069 126.495022 
L 363.977579 116.117222 
L 364.185639 115.806463 
L 364.393699 115.890314 
L 364.601759 116.34044 
L 365.017879 118.06209 
L 365.642059 121.992266 
L 366.89042 130.434889 
L 367.41057 132.299737 
L 367.82669 133.127145 
L 368.24281 133.470409 
L 368.97102 133.798712 
L 369.38714 134.474567 
L 370.84356 137.349348 
L 371.05162 137.293645 
L 371.25968 136.832547 
L 371.57177 135.19469 
L 372.612071 127.999013 
L 372.716101 127.907777 
L 372.820131 127.965086 
L 373.028191 128.439919 
L 373.548341 130.612415 
L 374.380581 133.837447 
L 375.004761 135.469299 
L 375.837001 136.909839 
L 377.293421 138.938471 
L 377.813571 139.233983 
L 378.541782 139.60992 
L 379.165962 140.255577 
L 380.414322 141.58261 
L 380.726412 141.702906 
L 380.934472 141.639758 
L 381.246562 141.221686 
L 381.558652 140.343755 
L 383.431192 133.781534 
L 383.847312 132.876896 
L 384.055372 132.768039 
L 384.263432 132.953199 
L 384.991643 134.161445 
L 385.199703 133.6832 
L 385.511793 131.604267 
L 386.031943 125.333893 
L 387.176273 110.180073 
L 387.488363 108.901052 
L 387.592393 108.929556 
L 387.800453 109.561847 
L 388.216573 112.247305 
L 389.048813 117.825206 
L 389.568963 119.904052 
L 389.985083 120.849758 
L 390.713293 121.79265 
L 391.129414 122.541234 
L 391.961654 124.741376 
L 392.689864 126.451631 
L 393.001954 126.860388 
L 393.210014 126.914109 
L 393.522104 126.656799 
L 394.042254 126.047785 
L 394.250314 126.079807 
L 394.458374 126.354781 
L 394.874494 127.435946 
L 395.810764 129.96913 
L 396.643004 131.575044 
L 397.163155 132.181923 
L 397.579275 132.354934 
L 398.307485 132.497833 
L 398.723605 132.914111 
L 399.451815 133.731707 
L 400.180025 134.099681 
L 401.012265 134.632032 
L 401.844505 135.119981 
L 402.468685 135.21081 
L 402.988835 135.320526 
L 403.404956 135.66809 
L 404.133166 136.708023 
L 404.653316 137.293563 
L 405.173466 137.529457 
L 405.797646 137.827286 
L 406.629886 138.368496 
L 406.941976 138.269273 
L 407.254066 137.827013 
L 407.670186 136.711352 
L 408.294366 134.197913 
L 409.126606 130.650851 
L 409.334666 130.417697 
L 409.542727 130.587165 
L 409.854817 131.428012 
L 411.415267 136.713031 
L 411.727357 137.148726 
L 411.935417 137.059492 
L 412.143477 136.620921 
L 413.183777 133.506806 
L 413.495867 133.393116 
L 414.224077 133.526041 
L 414.536167 133.907962 
L 415.264377 135.189875 
L 415.472437 134.894537 
L 415.784528 133.527956 
L 416.720798 128.277254 
L 416.928858 127.903419 
L 417.136918 127.877063 
L 417.344978 128.133127 
L 417.761098 129.171658 
L 419.321548 133.589907 
L 419.737668 134.268775 
L 420.049758 134.474267 
L 420.361848 134.406045 
L 421.298118 133.829145 
L 421.610208 134.002359 
L 422.026329 134.577925 
L 423.898869 137.801982 
L 424.419019 138.214033 
L 424.835139 138.282003 
L 425.251259 138.081626 
L 425.667379 137.568455 
L 426.083499 136.640037 
L 427.019769 134.184251 
L 427.227829 134.118112 
L 427.435889 134.313107 
L 427.852009 135.222145 
L 428.47619 136.625794 
L 428.99634 137.258134 
L 429.82858 138.185017 
L 431.285 140.200469 
L 431.285 140.200469 
" clip-path="url(#p7acb8a673f)" style="fill: none; stroke-dasharray: 1.85,0.8; stroke-dashoffset: 0; stroke: #1f77b4; stroke-width: 0.5"/>
   </g>
   <g id="line2d_34">
    <path d="M 56.985 99.095563 
L 57.29709 99.988405 
L 57.71321 101.876026 
L 58.33739 105.86991 
L 59.48172 115.146195 
L 60.730081 124.748619 
L 61.354261 128.020457 
L 61.874411 129.643467 
L 62.290531 130.325551 
L 62.602621 130.537147 
L 62.914711 130.534171 
L 63.330831 130.262596 
L 63.850981 129.62067 
L 65.515461 127.291567 
L 66.035611 127.024349 
L 66.555762 127.013455 
L 67.179942 127.268975 
L 67.908152 127.829219 
L 70.925022 130.455127 
L 72.069352 130.972272 
L 73.213683 131.237357 
L 74.358013 131.284581 
L 75.398313 131.108803 
L 76.334583 130.717158 
L 77.166823 130.14324 
L 78.103093 129.203182 
L 79.663544 127.548905 
L 80.183694 127.30137 
L 80.599814 127.314244 
L 81.015934 127.563456 
L 81.432054 128.094117 
L 81.952204 129.221958 
L 82.576384 131.296713 
L 83.616684 135.804974 
L 84.969074 141.499161 
L 85.593255 143.251882 
L 86.009375 143.88729 
L 86.321465 144.019966 
L 86.633555 143.865554 
L 87.049675 143.285522 
L 87.569825 142.098867 
L 88.506095 139.257087 
L 89.546395 136.214898 
L 90.066545 135.204985 
L 90.482665 134.816012 
L 90.794755 134.774581 
L 91.210875 134.963837 
L 91.939086 135.643354 
L 92.667296 136.235913 
L 93.083416 136.297395 
L 93.395506 136.122864 
L 93.707596 135.705103 
L 94.123716 134.685559 
L 94.539836 133.031597 
L 95.164016 129.407288 
L 97.140586 116.729452 
L 97.556707 115.397487 
L 97.868797 115.024933 
L 98.076857 115.127808 
L 98.284917 115.544624 
L 98.597007 116.820261 
L 99.013127 119.809064 
L 99.533277 125.326781 
L 100.365517 137.120421 
L 102.966267 177.066871 
L 103.590447 182.918221 
L 104.110598 186.066629 
L 104.526718 187.424896 
L 104.838808 187.752851 
L 105.046868 187.637631 
L 105.254928 187.252255 
L 105.567018 186.161899 
L 105.983138 183.737998 
L 106.503288 179.119457 
L 107.127468 171.19807 
L 107.959708 157.312358 
L 110.040309 120.955526 
L 110.664489 113.858773 
L 111.080609 111.070184 
L 111.392699 110.180052 
L 111.600759 110.121921 
L 111.808819 110.447919 
L 112.120909 111.57446 
L 112.537029 114.068132 
L 113.161209 119.319228 
L 115.033749 136.422291 
L 115.553899 138.934926 
L 115.970019 139.823803 
L 116.178079 139.948207 
L 116.38614 139.886234 
L 116.69823 139.48808 
L 117.11435 138.493743 
L 117.73853 136.337902 
L 119.19495 131.040187 
L 119.61107 130.182035 
L 120.02719 129.775582 
L 120.44331 129.718761 
L 120.85943 129.905314 
L 122.523911 130.960081 
L 122.836001 130.850039 
L 123.148091 130.533215 
L 123.564211 129.71164 
L 124.084361 127.968639 
L 124.812571 124.571159 
L 126.685111 115.393961 
L 127.205261 113.929995 
L 127.517351 113.494768 
L 127.725411 113.423987 
L 127.933471 113.543779 
L 128.245561 114.04904 
L 128.661681 115.234601 
L 129.285862 117.813135 
L 131.470492 127.713942 
L 131.886612 128.575128 
L 132.198702 128.80603 
L 132.510792 128.753339 
L 132.926912 128.413754 
L 133.759152 127.694787 
L 134.071242 127.715236 
L 134.383332 128.048534 
L 134.695422 128.794088 
L 135.111543 130.601259 
L 135.527663 133.553684 
L 136.047813 139.213696 
L 136.671993 149.163837 
L 137.608263 168.334773 
L 139.272743 202.651187 
L 139.896923 211.523403 
L 140.313043 215.191769 
L 140.625133 216.593884 
L 140.833193 216.935019 
L 141.041253 216.840732 
L 141.249314 216.344846 
L 141.561404 214.922016 
L 141.977524 211.935021 
L 142.601704 205.66872 
L 143.850064 190.055933 
L 144.890364 178.181915 
L 145.618574 172.107967 
L 146.242754 168.660789 
L 146.658874 167.363855 
L 146.970964 166.956564 
L 147.179024 166.967395 
L 147.387084 167.212275 
L 147.699175 168.033736 
L 148.115295 170.013478 
L 148.635445 173.988305 
L 149.259625 180.774023 
L 151.652315 208.998805 
L 152.068435 211.299943 
L 152.380525 211.994516 
L 152.484555 212.002977 
L 152.692615 211.655346 
L 153.004705 210.186863 
L 153.420825 206.635935 
L 153.940976 200.070719 
L 154.773216 186.071113 
L 157.269936 141.019507 
L 157.998146 132.676043 
L 158.622326 127.66701 
L 159.142476 124.881199 
L 159.662626 123.258681 
L 159.974717 122.804989 
L 160.286807 122.71669 
L 160.598897 122.973762 
L 160.910987 123.556182 
L 161.327107 124.807636 
L 161.847257 127.12678 
L 162.471437 131.034864 
L 163.199647 137.175418 
L 164.031887 146.324089 
L 164.968157 159.400119 
L 166.216518 180.765419 
L 167.464878 200.818035 
L 168.089058 207.835446 
L 168.505178 210.715295 
L 168.817268 211.718808 
L 169.025328 211.767205 
L 169.233388 211.275586 
L 169.545478 209.455036 
L 169.961598 205.14954 
L 170.585778 195.493926 
L 171.522048 176.536388 
L 173.082499 144.461979 
L 173.706679 135.463413 
L 174.226829 130.632784 
L 174.746979 127.857698 
L 175.163099 126.838235 
L 175.475189 126.634298 
L 175.683249 126.715431 
L 175.995339 127.096246 
L 176.515489 128.20018 
L 177.659819 130.839799 
L 178.075939 131.25103 
L 178.388029 131.31418 
L 178.80415 131.129838 
L 179.3243 130.570364 
L 180.15654 129.250469 
L 181.19684 127.651624 
L 181.71699 127.201022 
L 182.13311 127.129466 
L 182.54923 127.300462 
L 183.06938 127.76178 
L 185.254011 130.084788 
L 185.670131 130.118301 
L 186.086251 129.8726 
L 186.502371 129.328178 
L 187.126551 128.094598 
L 189.415211 123.01871 
L 189.831331 122.631882 
L 190.143421 122.565177 
L 190.455511 122.714805 
L 190.871631 123.210694 
L 191.391782 124.201861 
L 192.328052 126.584516 
L 193.576412 129.684201 
L 194.096562 130.519879 
L 194.512682 130.850333 
L 194.928802 130.864116 
L 195.344922 130.613591 
L 195.865072 130.011603 
L 196.697312 128.63128 
L 198.153733 126.158053 
L 198.777913 125.545492 
L 199.298063 125.322809 
L 199.922243 125.285946 
L 201.690753 125.365794 
L 202.210903 125.109046 
L 202.731053 124.579364 
L 203.355233 123.537294 
L 204.187474 121.632703 
L 207.308374 113.922537 
L 208.244644 112.570359 
L 211.053455 108.939061 
L 212.093755 106.813647 
L 213.862265 103.149926 
L 214.590475 102.121864 
L 215.110625 101.711164 
L 215.526745 101.614836 
L 216.046895 101.735474 
L 216.775106 102.19694 
L 218.335556 103.291788 
L 218.855706 103.372676 
L 219.271826 103.233946 
L 219.687946 102.876857 
L 220.208096 102.148299 
L 220.936306 100.694852 
L 221.976606 98.000872 
L 224.993477 89.730072 
L 225.721687 88.502833 
L 226.241837 88.007004 
L 226.657957 87.885507 
L 227.074077 88.042332 
L 227.490197 88.508617 
L 227.906317 89.312858 
L 228.426467 90.795085 
L 229.050648 93.244685 
L 229.778858 96.980361 
L 230.715128 103.081032 
L 231.755428 111.429222 
L 234.356178 133.499766 
L 234.980359 136.593548 
L 235.396479 137.700534 
L 235.708569 137.935179 
L 235.916629 137.777022 
L 236.228719 137.046502 
L 236.644839 135.259835 
L 237.269019 131.21633 
L 238.205289 123.32578 
L 239.661709 111.221666 
L 240.285889 107.778976 
L 240.806039 106.136562 
L 241.22216 105.510317 
L 241.53425 105.376723 
L 241.84634 105.484735 
L 242.26246 105.932293 
L 242.88664 107.0527 
L 244.55112 110.319735 
L 245.1753 110.90877 
L 245.69545 111.111165 
L 246.2156 111.096553 
L 246.83978 110.852286 
L 247.672021 110.262171 
L 249.752621 108.375794 
L 251.105011 106.898563 
L 252.145311 105.445718 
L 253.185611 103.610149 
L 255.162182 100.013743 
L 255.890392 99.141179 
L 256.410542 98.806721 
L 256.826662 98.755681 
L 257.242782 98.906876 
L 257.762932 99.325565 
L 258.595172 100.342772 
L 260.259653 102.503422 
L 260.883833 102.945941 
L 261.403983 103.026523 
L 261.924133 102.864638 
L 262.548313 102.40969 
L 263.380553 101.480358 
L 267.333694 96.538943 
L 268.582054 95.531093 
L 269.726384 94.868927 
L 270.662654 94.561865 
L 271.390864 94.52855 
L 272.119074 94.721036 
L 272.847285 95.181299 
L 273.575495 95.950673 
L 274.615795 97.486835 
L 276.072215 99.626927 
L 276.696395 100.225517 
L 277.216545 100.458074 
L 277.632665 100.42261 
L 278.048785 100.174183 
L 278.568936 99.60633 
L 279.297146 98.44099 
L 280.441476 96.109461 
L 282.001926 92.995522 
L 282.938196 91.616736 
L 283.978496 90.492314 
L 285.018797 89.695406 
L 286.267157 89.025065 
L 287.515517 88.590498 
L 288.555817 88.450976 
L 289.492087 88.535237 
L 290.428357 88.841025 
L 291.364628 89.106533 
L 291.884778 89.020642 
L 292.300898 88.741921 
L 292.717018 88.218764 
L 293.237168 87.139852 
L 293.757318 85.491559 
L 294.381498 82.618773 
L 295.317768 76.83114 
L 296.670158 68.622189 
L 297.190309 66.54118 
L 297.606429 65.642188 
L 297.814489 65.503847 
L 298.022549 65.600039 
L 298.230609 65.951085 
L 298.542699 66.994204 
L 298.958819 69.278756 
L 299.582999 74.203045 
L 300.623299 84.68994 
L 301.975689 97.94017 
L 302.599869 102.13949 
L 303.120019 104.185285 
L 303.53614 104.982726 
L 303.84823 105.169512 
L 304.16032 105.059641 
L 304.57644 104.53861 
L 305.09659 103.453031 
L 307.07316 98.866634 
L 307.59331 98.364013 
L 308.11346 98.166663 
L 308.63361 98.203457 
L 309.36182 98.512897 
L 311.130331 99.397026 
L 311.754511 99.417012 
L 312.378691 99.216595 
L 313.002871 98.779136 
L 313.627051 98.088002 
L 314.355261 96.938867 
L 315.187501 95.141486 
L 316.123772 92.525133 
L 317.372132 88.336902 
L 320.805122 76.389681 
L 321.429302 75.147646 
L 321.845422 74.703529 
L 322.157513 74.610065 
L 322.469603 74.747096 
L 322.781693 75.137215 
L 323.197813 76.090116 
L 323.717963 78.037334 
L 324.342143 81.432435 
L 325.070353 86.680057 
L 326.006623 95.129057 
L 327.254983 108.62909 
L 330.271854 142.645389 
L 331.000064 148.304832 
L 331.624244 151.539921 
L 332.040364 152.729692 
L 332.352454 153.155869 
L 332.664544 153.236658 
L 332.976634 153.020811 
L 333.392754 152.355845 
L 334.016934 150.784908 
L 335.889475 145.58317 
L 336.409625 144.92218 
L 336.825745 144.698377 
L 337.241865 144.693479 
L 337.762015 144.921791 
L 338.594255 145.607062 
L 339.738585 146.562965 
L 340.362765 146.784354 
L 341.090976 146.752392 
L 342.755456 146.521421 
L 343.275606 146.68576 
L 343.795756 147.087233 
L 344.315906 147.796253 
L 345.044116 149.278189 
L 347.644867 155.155876 
L 348.165017 155.662889 
L 348.581137 155.74316 
L 348.997257 155.550771 
L 349.517407 155.009052 
L 350.245617 153.877187 
L 352.014127 150.97691 
L 352.534277 150.53127 
L 353.054427 150.401035 
L 353.678608 150.532925 
L 355.343088 151.066258 
L 355.759208 150.94426 
L 356.175328 150.610611 
L 356.591448 150.010552 
L 357.111598 148.833474 
L 357.839808 146.508417 
L 358.880108 142.251037 
L 361.584889 130.674393 
L 362.417129 128.153548 
L 363.145339 126.627084 
L 363.665489 125.990348 
L 364.081609 125.784529 
L 364.393699 125.820988 
L 364.809819 126.140829 
L 365.225939 126.784413 
L 365.85012 128.26354 
L 366.78639 131.198004 
L 368.34684 136.144181 
L 368.97102 137.493376 
L 369.49117 138.115633 
L 369.90729 138.299195 
L 370.32341 138.256879 
L 370.84356 137.961511 
L 371.6758 137.155708 
L 372.924161 135.94898 
L 373.444311 135.718832 
L 373.964461 135.732533 
L 374.588641 136.021556 
L 375.316851 136.649239 
L 376.357151 137.884883 
L 378.437752 140.423773 
L 379.374022 141.205824 
L 380.102232 141.557821 
L 380.726412 141.640126 
L 381.350592 141.487266 
L 381.974772 141.070328 
L 382.598952 140.385465 
L 383.327162 139.264117 
L 384.159402 137.581611 
L 385.199703 134.920074 
L 386.448063 131.014547 
L 388.216573 125.497578 
L 388.944783 123.851758 
L 389.464933 123.079771 
L 389.881053 122.763951 
L 390.297173 122.74636 
L 390.713293 122.996193 
L 391.233444 123.617721 
L 391.961654 124.91157 
L 394.770464 130.493918 
L 395.602704 131.414958 
L 396.538974 132.110363 
L 397.995395 132.855424 
L 399.555845 133.735223 
L 401.740475 135.252057 
L 405.069436 137.570277 
L 406.317796 138.161454 
L 407.462126 138.450504 
L 408.606456 138.508 
L 409.958847 138.338152 
L 411.519297 137.909854 
L 413.079747 137.267202 
L 414.640197 136.385339 
L 417.657068 134.515596 
L 418.385278 134.358001 
L 419.009458 134.411847 
L 419.737668 134.725896 
L 420.673938 135.426374 
L 423.690809 137.955595 
L 424.731109 138.356715 
L 426.083499 138.603821 
L 428.58022 139.020512 
L 431.285 139.703934 
L 431.285 139.703934 
" clip-path="url(#p7acb8a673f)" style="fill: none; stroke: #ff7f0e; stroke-width: 0.5; stroke-linecap: square"/>
   </g>
   <g id="line2d_35">
    <path d="M 56.985 290.368743 
L 57.08903 290.368743 
L 57.19306 288.962587 
L 57.50515 290.656918 
L 57.71321 290.949923 
L 58.0253 290.974231 
L 58.85754 290.653545 
L 58.96157 290.509105 
L 59.48172 288.37195 
L 61.874411 277.44266 
L 62.082471 277.424214 
L 62.290531 277.759719 
L 62.706651 279.064311 
L 64.995311 287.043325 
L 66.243671 289.415688 
L 66.867852 289.914082 
L 67.596062 290.178662 
L 67.804122 290.08874 
L 68.324272 289.072927 
L 68.948452 287.826602 
L 69.364572 287.454128 
L 69.676662 287.439018 
L 70.092782 287.671876 
L 71.445172 288.654371 
L 72.069352 288.743942 
L 72.797563 288.81469 
L 73.525773 289.176583 
L 74.566073 289.955523 
L 75.398313 290.214517 
L 75.814433 290.273265 
L 75.918463 290.122984 
L 76.230553 288.634356 
L 76.646673 284.977708 
L 77.374883 278.008965 
L 77.686973 276.929129 
L 77.895033 276.87459 
L 78.415183 277.235203 
L 78.623243 277.010493 
L 78.935334 276.111711 
L 79.663544 273.737296 
L 79.871604 273.637068 
L 80.079664 273.889025 
L 80.391754 274.803718 
L 81.119964 278.046887 
L 82.056234 281.880921 
L 82.784444 284.552622 
L 83.408624 287.36142 
L 83.928774 288.729089 
L 84.032804 288.919255 
L 84.136834 288.707437 
L 84.448924 285.495588 
L 85.073105 274.250576 
L 85.489225 268.412021 
L 85.801315 266.260918 
L 86.321465 264.520275 
L 88.089975 258.308392 
L 88.506095 256.810626 
L 88.714155 256.590962 
L 88.922215 256.827043 
L 89.234305 257.924539 
L 89.754455 261.072683 
L 90.170575 264.749472 
L 90.690725 271.548922 
L 91.314906 280.523558 
L 91.835056 284.98871 
L 92.251176 286.889562 
L 92.355206 286.746046 
L 92.563266 285.688426 
L 92.771326 283.333071 
L 93.083416 277.001645 
L 94.019686 254.965468 
L 94.227746 254.347145 
L 94.435806 255.581074 
L 94.851926 261.346188 
L 95.788196 274.990783 
L 96.308346 279.472413 
L 96.828496 282.073756 
L 98.180887 288.256244 
L 98.492977 288.811413 
L 98.701037 288.264168 
L 99.013127 286.424554 
L 99.429247 282.331949 
L 100.053427 273.735591 
L 100.677607 262.587537 
L 101.925967 237.434339 
L 102.029997 237.114391 
L 102.134027 237.397857 
L 102.342087 239.574736 
L 102.550147 244.63155 
L 103.486417 272.610198 
L 103.798508 277.413945 
L 104.006568 277.790892 
L 104.110598 277.592515 
L 104.526718 275.399589 
L 104.838808 274.120784 
L 104.942838 273.863212 
L 105.046868 274.070057 
L 105.358958 276.899739 
L 106.087168 284.017225 
L 106.191198 284.644596 
L 106.295228 284.561251 
L 106.503288 282.338743 
L 106.919408 273.891222 
L 107.855678 253.669049 
L 108.375828 246.054607 
L 108.687918 243.880832 
L 108.791948 243.695055 
L 108.895978 243.787042 
L 109.104038 244.725622 
L 109.520158 248.577995 
L 110.144339 256.671555 
L 110.456429 262.904971 
L 111.184639 277.504154 
L 111.496729 281.02449 
L 111.600759 281.106076 
L 111.704789 280.849333 
L 111.912849 279.268922 
L 112.849119 268.944261 
L 113.057179 268.679522 
L 113.265239 269.410656 
L 113.473299 270.906368 
L 114.721659 284.864887 
L 115.137779 286.903274 
L 115.449869 287.125957 
L 115.657929 286.87737 
L 115.970019 285.895261 
L 116.38614 283.640872 
L 116.90629 279.306719 
L 117.53047 271.375071 
L 118.15465 263.796797 
L 118.46674 261.878485 
L 118.57077 261.726825 
L 118.6748 261.829428 
L 118.88286 262.962589 
L 119.09092 265.144815 
L 120.23525 282.412681 
L 120.65137 285.363115 
L 120.85943 285.690076 
L 120.96346 285.702693 
L 121.17152 285.338546 
L 121.37958 284.386352 
L 121.69167 281.439738 
L 122.10779 274.506882 
L 122.627941 265.845939 
L 122.836001 264.446101 
L 122.940031 264.361027 
L 123.044061 264.668136 
L 123.252121 266.284994 
L 123.876301 274.693947 
L 124.500481 282.21689 
L 125.020631 285.919186 
L 125.540781 287.974141 
L 125.748841 288.324138 
L 125.956901 287.7609 
L 126.164961 286.434604 
L 126.477051 282.467976 
L 126.997201 271.288613 
L 127.413321 264.290036 
L 127.621381 263.622719 
L 127.725411 263.987595 
L 127.933471 266.503868 
L 128.869742 281.05728 
L 129.077802 282.469611 
L 129.285862 282.733455 
L 129.493922 281.980129 
L 129.806012 279.060127 
L 130.430192 269.493963 
L 131.054372 261.535687 
L 131.470492 258.572219 
L 131.678552 258.34528 
L 131.782582 258.671891 
L 132.094672 261.474502 
L 132.510792 269.326669 
L 133.134972 279.635272 
L 133.655122 284.532656 
L 133.863182 285.588644 
L 133.967212 285.545741 
L 134.175272 285.010712 
L 134.591392 282.36006 
L 135.111543 279.293462 
L 135.839753 276.946035 
L 136.151843 273.279152 
L 136.776023 260.910991 
L 138.648563 223.328303 
L 138.856623 222.879299 
L 139.064683 223.915364 
L 139.376773 227.535564 
L 140.000953 238.723855 
L 140.313043 245.899138 
L 141.145283 271.079223 
L 141.561404 278.31528 
L 141.665434 278.622791 
L 141.873494 276.568152 
L 142.289614 268.165335 
L 143.017824 252.725406 
L 143.433944 248.127194 
L 143.746034 246.606046 
L 143.954094 246.224228 
L 144.162154 246.243159 
L 144.370214 246.613568 
L 144.682304 247.696252 
L 145.722604 252.052839 
L 146.242754 253.002376 
L 147.387084 254.623694 
L 147.595145 254.293299 
L 147.803205 253.466328 
L 148.219325 250.520135 
L 148.531415 248.748041 
L 148.739475 248.806073 
L 148.843505 249.604495 
L 149.155595 257.006729 
L 149.883805 274.724836 
L 150.195895 278.993851 
L 150.299925 279.002594 
L 150.507985 278.252014 
L 151.132165 273.032206 
L 151.548285 270.524729 
L 151.652315 270.318016 
L 151.756345 270.369471 
L 151.964405 271.036999 
L 152.276495 274.47987 
L 153.004705 282.899488 
L 153.212765 283.786532 
L 153.316795 283.708058 
L 153.524855 282.932854 
L 154.149036 280.053379 
L 154.357096 280.796604 
L 155.501426 287.350501 
L 155.605456 287.412491 
L 155.917546 285.828024 
L 157.165906 276.883312 
L 157.686056 275.400878 
L 157.998146 274.975106 
L 158.206206 275.013061 
L 158.414266 275.399222 
L 158.726356 276.643678 
L 159.350536 280.422486 
L 160.078747 285.605308 
L 160.598897 287.766405 
L 160.910987 288.539414 
L 161.015017 288.548106 
L 161.327107 287.783085 
L 161.743227 285.815557 
L 162.263377 282.052793 
L 162.783527 276.666461 
L 163.407707 267.508889 
L 164.552037 249.97472 
L 164.760097 248.68539 
L 164.864127 248.492866 
L 164.968157 248.628061 
L 165.176217 249.831142 
L 166.216518 259.365938 
L 166.320548 259.335279 
L 166.424578 259.469283 
L 166.632638 262.188056 
L 167.568908 279.280606 
L 167.672938 280.064639 
L 167.776968 278.918861 
L 168.089058 267.256237 
L 169.025328 218.750112 
L 169.337418 214.207035 
L 169.441448 214.151352 
L 169.649508 215.759019 
L 169.961598 221.336854 
L 170.689808 241.043029 
L 171.313988 256.207825 
L 171.730108 262.31873 
L 172.250258 266.336226 
L 172.978469 271.88345 
L 173.498619 275.057266 
L 174.122799 277.851807 
L 175.163099 285.96265 
L 175.683249 287.980241 
L 175.891309 288.429623 
L 176.099369 288.329446 
L 176.411459 287.829746 
L 177.243699 285.747451 
L 177.867879 284.544985 
L 178.283999 284.159229 
L 178.70012 284.054165 
L 179.11624 284.236825 
L 179.74042 284.68466 
L 179.94848 284.617689 
L 180.26057 284.125501 
L 180.98878 282.520658 
L 181.09281 282.618883 
L 181.4049 283.964152 
L 182.13311 287.348477 
L 182.4452 288.264212 
L 182.54923 288.28714 
L 182.96535 286.502606 
L 183.38147 284.944157 
L 183.58953 284.784931 
L 183.79759 284.868672 
L 184.10968 285.844924 
L 184.83789 288.241197 
L 185.358041 289.209002 
L 185.462071 289.139008 
L 185.774161 287.480481 
L 186.190281 283.193006 
L 187.230581 271.112237 
L 187.542671 269.948495 
L 187.646701 269.9913 
L 187.854761 270.698051 
L 188.166851 272.937246 
L 188.999091 279.466451 
L 189.311181 280.548979 
L 189.623271 280.950325 
L 189.831331 281.026432 
L 189.935361 281.063278 
L 190.143421 281.882171 
L 191.183722 287.40755 
L 191.391782 287.895586 
L 191.599842 287.21301 
L 192.224022 284.841754 
L 192.328052 284.874626 
L 192.536112 285.411561 
L 193.472382 288.439775 
L 193.992532 289.320676 
L 194.408652 289.679875 
L 194.720742 289.610119 
L 195.032832 289.141895 
L 195.448952 287.834566 
L 196.177162 285.36543 
L 196.593282 284.721466 
L 196.905372 284.579245 
L 197.113432 284.660042 
L 197.425523 285.072038 
L 197.737613 286.012044 
L 198.465823 288.319646 
L 198.985973 289.252121 
L 199.506123 289.768047 
L 199.818213 289.929901 
L 200.026273 289.753301 
L 200.338363 289.067886 
L 200.754483 287.258081 
L 201.482693 283.70828 
L 201.690753 283.376712 
L 201.898813 283.39025 
L 202.106873 283.979065 
L 203.147173 288.12982 
L 203.459263 288.708134 
L 203.667324 288.214327 
L 204.083444 286.09299 
L 204.499564 284.148937 
L 204.707624 283.737096 
L 204.915684 283.737552 
L 205.227774 284.279431 
L 205.747924 286.369503 
L 206.268074 288.107653 
L 206.788224 289.13928 
L 206.996284 289.365767 
L 207.100314 289.275707 
L 207.412404 288.361364 
L 208.036584 286.094748 
L 208.244644 285.878119 
L 208.452704 286.042611 
L 208.868824 287.007679 
L 209.284944 287.743937 
L 209.597034 287.831385 
L 210.221215 287.731731 
L 210.429275 287.928021 
L 211.573605 289.60229 
L 212.197785 290.002462 
L 212.301815 289.931018 
L 212.509875 289.178889 
L 212.821965 286.814622 
L 213.862265 276.098935 
L 213.966295 276.045948 
L 214.174355 276.724408 
L 214.590475 279.98315 
L 215.110625 283.794097 
L 215.526745 285.358688 
L 216.879136 288.877584 
L 217.399286 289.560181 
L 218.023466 289.985362 
L 218.647646 290.16984 
L 218.855706 289.946978 
L 219.167796 289.223867 
L 219.791976 286.824313 
L 220.208096 285.73136 
L 220.416156 285.662476 
L 220.624216 285.900297 
L 221.248396 287.744636 
L 221.560486 288.432538 
L 221.664516 288.429112 
L 221.872576 287.923832 
L 222.080636 286.576543 
L 222.392727 282.930379 
L 223.120937 273.755512 
L 223.328997 273.195125 
L 223.433027 273.481854 
L 223.745117 276.497317 
L 224.473327 283.850212 
L 224.889447 286.352212 
L 225.097507 286.796671 
L 225.305567 286.775298 
L 225.721687 286.578841 
L 225.929747 286.705182 
L 226.241837 287.30304 
L 226.866017 288.702089 
L 227.074077 288.85906 
L 227.282137 288.723185 
L 227.490197 288.240869 
L 227.802287 286.792818 
L 228.322437 282.694375 
L 228.946618 277.98779 
L 229.154678 277.38378 
L 229.362738 277.384397 
L 229.466768 277.679083 
L 229.778858 280.036529 
L 230.507068 285.538361 
L 230.819158 286.949986 
L 230.923188 287.037002 
L 231.235278 286.226341 
L 231.651398 284.919009 
L 231.859458 284.75805 
L 232.067518 284.996542 
L 232.795728 286.402623 
L 233.003788 286.379599 
L 233.211848 286.215693 
L 233.419908 286.074013 
L 233.627968 286.46667 
L 234.564238 288.839309 
L 234.980359 289.324375 
L 235.500509 288.325365 
L 235.812599 287.871994 
L 236.020659 288.052047 
L 237.164989 289.639302 
L 237.269019 289.608236 
L 237.477079 288.83259 
L 237.789169 286.346106 
L 238.933499 274.618093 
L 239.037529 274.558539 
L 239.245589 274.934991 
L 239.661709 275.947738 
L 239.765739 275.881324 
L 239.973799 275.042555 
L 240.285889 272.030575 
L 240.806039 266.271571 
L 241.014099 265.741708 
L 241.11813 265.879635 
L 241.32619 267.710457 
L 242.47052 283.258006 
L 242.88664 285.786123 
L 243.19873 286.302449 
L 243.51082 286.436996 
L 243.71888 286.3419 
L 243.92694 286.013143 
L 244.135 285.327146 
L 244.44709 283.380153 
L 244.96724 277.86505 
L 245.48739 273.121854 
L 245.69545 272.584867 
L 245.79948 272.671505 
L 246.00754 273.48599 
L 246.42366 276.827051 
L 247.255901 283.955264 
L 247.776051 286.804419 
L 248.296201 288.440328 
L 248.816351 289.333683 
L 249.232471 289.652814 
L 249.544561 289.019723 
L 250.064711 286.989898 
L 250.896951 283.247653 
L 251.209041 280.386009 
L 252.249341 268.46339 
L 252.353371 268.613246 
L 252.561431 269.787914 
L 253.185611 278.322264 
L 253.705762 283.648565 
L 254.121882 286.19475 
L 254.329942 286.486948 
L 254.538002 286.287184 
L 255.370242 284.534554 
L 255.578302 284.654146 
L 256.202482 285.323511 
L 256.930692 285.35419 
L 257.138752 285.836668 
L 258.075022 288.602022 
L 258.595172 289.408645 
L 258.803232 289.519011 
L 259.115322 289.079742 
L 260.051593 287.174263 
L 260.259653 287.160457 
L 260.571743 287.43063 
L 260.987863 288.206562 
L 261.612043 289.261334 
L 262.132193 289.76607 
L 262.756373 290.082161 
L 262.964433 290.057075 
L 263.380553 289.681193 
L 263.692643 288.949709 
L 264.004733 287.269148 
L 264.420853 283.039374 
L 265.045033 276.27367 
L 265.253093 275.481952 
L 265.357123 275.503003 
L 265.565183 276.100128 
L 265.877273 278.751716 
L 266.605484 284.937904 
L 267.125634 287.411001 
L 267.229664 287.580473 
L 267.437724 287.131282 
L 267.645784 285.881608 
L 267.957874 282.430871 
L 268.686084 273.242669 
L 268.894144 272.636823 
L 268.998174 272.800353 
L 269.206234 274.007653 
L 270.454594 285.75723 
L 270.766684 286.88076 
L 271.182804 287.428907 
L 272.015044 288.345991 
L 273.055345 289.666568 
L 273.679525 290.03263 
L 273.991615 290.03955 
L 274.927885 289.066412 
L 275.344005 289.090505 
L 275.968185 289.420328 
L 276.800425 289.975322 
L 277.528635 290.191374 
L 278.256845 290.155196 
L 279.401176 290.277553 
L 279.609236 289.972083 
L 280.753566 287.565226 
L 280.961626 286.362798 
L 281.273716 282.849126 
L 282.314016 267.353358 
L 282.418046 267.337887 
L 282.522076 267.64803 
L 282.730136 269.816734 
L 283.666406 282.350682 
L 284.082526 285.38719 
L 284.290586 285.911993 
L 284.498646 286.065595 
L 285.122827 286.127575 
L 285.747007 286.431332 
L 285.955067 286.230737 
L 286.267157 285.498121 
L 286.891337 283.767175 
L 287.099397 283.630591 
L 287.203427 283.682425 
L 287.411487 284.315273 
L 288.347757 288.004754 
L 288.659847 288.703566 
L 288.763877 288.712461 
L 288.971937 288.200924 
L 289.284027 286.577346 
L 290.324327 279.920897 
L 290.428357 279.841817 
L 290.636417 280.137329 
L 290.948508 281.411538 
L 292.404928 288.327759 
L 292.925078 289.265535 
L 293.029108 289.219889 
L 293.237168 288.473309 
L 293.549258 286.291438 
L 294.069408 280.226914 
L 294.589558 271.788683 
L 295.525828 255.221549 
L 295.629858 254.961603 
L 295.733888 255.23704 
L 295.941948 257.259212 
L 297.086278 274.115846 
L 297.502399 277.142915 
L 298.230609 284.027252 
L 298.438669 285.274427 
L 298.542699 285.320055 
L 298.750759 284.200334 
L 299.166879 279.454734 
L 299.582999 275.43728 
L 299.791059 274.875091 
L 299.895089 274.995584 
L 300.103149 275.931792 
L 300.415239 278.477104 
L 301.143449 284.752907 
L 301.663599 287.306781 
L 302.079719 288.477533 
L 302.287779 288.543676 
L 302.599869 288.239885 
L 303.120019 287.240923 
L 303.95226 285.523944 
L 304.16032 285.459966 
L 304.36838 285.620108 
L 304.7845 286.874591 
L 305.40868 288.579487 
L 305.92883 289.39506 
L 306.34495 289.763698 
L 306.44898 289.730113 
L 306.76107 289.086643 
L 307.80137 285.945542 
L 308.21749 285.067187 
L 308.73764 283.061495 
L 309.04973 282.077359 
L 309.25779 281.950102 
L 309.36182 282.003619 
L 309.56988 282.629021 
L 310.714211 287.939472 
L 311.130331 288.813373 
L 311.338391 288.68821 
L 311.650481 287.994548 
L 312.482721 285.684826 
L 312.586751 285.679994 
L 312.794811 286.106286 
L 313.835111 288.886421 
L 314.147201 289.25729 
L 314.355261 288.565278 
L 314.667351 286.178957 
L 316.227802 268.272708 
L 316.643922 259.45413 
L 317.372132 242.334374 
L 317.580192 241.027958 
L 317.684222 241.26753 
L 317.892282 243.379496 
L 318.308402 251.932221 
L 319.140642 269.520029 
L 319.868852 280.395555 
L 320.389002 284.921166 
L 320.597062 285.93462 
L 320.701092 285.641205 
L 320.909152 283.586655 
L 321.845422 269.810899 
L 321.949452 269.853132 
L 322.157513 271.071349 
L 322.573633 276.291765 
L 323.197813 283.097481 
L 323.405873 283.925415 
L 323.509903 283.979663 
L 323.717963 283.44503 
L 324.550203 279.797446 
L 324.862293 279.581513 
L 325.174383 279.292719 
L 325.798563 278.255412 
L 325.902593 278.280726 
L 326.110653 279.276898 
L 327.150953 286.473678 
L 327.463043 287.342629 
L 327.775133 287.401207 
L 328.087223 287.234749 
L 328.399314 286.708782 
L 328.919464 285.008939 
L 329.335584 283.999128 
L 329.543644 284.488924 
L 330.583944 288.291163 
L 330.896034 288.780385 
L 331.104094 288.111051 
L 331.520214 285.789161 
L 332.144394 282.567226 
L 332.456484 281.973668 
L 332.664544 281.952068 
L 333.080664 282.306797 
L 333.600814 282.620388 
L 333.912904 282.848618 
L 334.224994 283.396094 
L 334.433054 283.950122 
L 335.577385 288.334477 
L 336.097535 289.259798 
L 336.721715 289.699549 
L 337.449925 290.069436 
L 338.386195 290.270208 
L 339.738585 290.314518 
L 341.299036 290.278864 
L 342.859486 289.38149 
L 343.483666 289.765755 
L 344.211876 290.102763 
L 344.627996 290.149225 
L 344.940086 289.608871 
L 345.668296 288.141266 
L 345.980386 288.486067 
L 346.812626 289.570211 
L 347.124717 289.755807 
L 347.332777 289.128652 
L 348.165017 286.091652 
L 348.477107 285.72685 
L 348.997257 285.337735 
L 349.309347 284.798343 
L 349.725467 283.463915 
L 350.245617 280.683746 
L 350.765767 277.940459 
L 350.973827 277.576228 
L 351.181887 277.851321 
L 351.389947 278.777757 
L 352.534277 286.704899 
L 353.054427 288.373421 
L 353.262487 288.563758 
L 353.678608 288.52711 
L 353.886668 288.454563 
L 354.198758 288.741253 
L 355.030998 289.67603 
L 355.655178 290.035646 
L 355.863238 290.008186 
L 356.175328 289.118885 
L 356.487418 287.304029 
L 356.799508 284.165697 
L 357.215628 277.470522 
L 358.047868 263.005761 
L 358.255928 261.93039 
L 358.359958 261.943415 
L 358.568018 262.940612 
L 358.880108 266.168422 
L 360.336529 283.550475 
L 360.856679 286.658391 
L 361.376829 288.373791 
L 361.688919 288.941577 
L 361.896979 288.844864 
L 362.105039 288.466254 
L 362.417129 287.411887 
L 364.081609 280.520156 
L 364.289669 280.400987 
L 364.497729 280.593536 
L 364.809819 281.33997 
L 365.329969 283.185806 
L 366.37027 287.852699 
L 366.89042 289.005188 
L 367.30654 289.455842 
L 367.61863 289.182829 
L 368.03475 288.46308 
L 368.86699 286.78076 
L 369.07505 286.659544 
L 369.38714 286.795703 
L 369.5952 287.12863 
L 370.53147 289.101065 
L 371.05162 289.679672 
L 371.15565 289.75549 
L 371.25968 289.661798 
L 371.57177 288.322457 
L 372.612071 282.198599 
L 372.716101 282.195251 
L 372.924161 282.591296 
L 373.340281 284.295229 
L 374.068491 287.460087 
L 374.588641 288.779624 
L 375.108791 289.513275 
L 375.732971 289.964062 
L 376.461181 290.199851 
L 377.189391 290.262217 
L 377.709541 289.963175 
L 378.437752 289.500708 
L 378.853872 289.464726 
L 380.934472 290.268132 
L 381.142532 290.23397 
L 381.454622 289.642619 
L 382.078802 287.595147 
L 382.598952 286.2044 
L 383.223132 285.334839 
L 383.743282 284.812421 
L 383.951342 285.204333 
L 385.095673 288.740291 
L 385.303733 288.931149 
L 385.511793 287.979569 
L 385.927913 284.433625 
L 387.176273 271.966625 
L 387.384333 271.548853 
L 387.488363 271.681981 
L 387.696423 272.578746 
L 388.112543 276.10028 
L 389.048813 284.59715 
L 389.568963 287.221214 
L 390.089113 288.66488 
L 390.401203 288.98656 
L 390.817324 289.298551 
L 391.545534 289.872726 
L 392.273744 290.158115 
L 392.897924 290.206908 
L 393.210014 289.652813 
L 393.730164 287.994732 
L 394.146284 286.882694 
L 394.354344 286.691066 
L 394.562404 286.760361 
L 394.874494 287.198609 
L 396.122854 289.241248 
L 396.747034 289.820041 
L 397.371215 290.105874 
L 397.579275 290.099448 
L 397.995395 289.928005 
L 398.827635 290.142254 
L 399.971965 290.30867 
L 401.324355 290.288314 
L 401.948535 290.139507 
L 402.780775 289.601361 
L 403.092865 289.51987 
L 403.821076 289.903916 
L 404.653316 290.189629 
L 405.901676 290.328071 
L 406.941976 290.309898 
L 407.254066 289.803005 
L 407.670186 288.625757 
L 408.294366 286.076401 
L 409.126606 282.572436 
L 409.334666 282.365117 
L 409.542727 282.567165 
L 409.854817 283.470857 
L 410.270937 285.145301 
L 410.895117 287.649823 
L 411.415267 288.884379 
L 411.935417 289.569697 
L 412.039447 289.551808 
L 412.351537 288.705955 
L 412.975717 286.874339 
L 413.287807 286.663535 
L 413.599897 286.778918 
L 414.224077 287.331812 
L 415.160347 289.195398 
L 415.472437 289.457434 
L 415.680497 288.810288 
L 416.096618 286.500356 
L 416.616768 283.961563 
L 416.928858 283.443051 
L 417.136918 283.527448 
L 417.449008 284.13702 
L 418.073188 286.118786 
L 418.801398 288.390184 
L 419.321548 289.292138 
L 419.841698 289.789815 
L 420.153788 289.879039 
L 420.569908 289.303232 
L 421.298118 288.221644 
L 421.610208 288.09675 
L 421.922298 288.202677 
L 422.442449 288.707078 
L 423.274689 289.670851 
L 423.898869 290.033743 
L 424.731109 290.244797 
L 425.043199 290.175946 
L 425.459319 289.746724 
L 425.875439 288.975728 
L 426.395589 287.442989 
L 426.915739 286.005495 
L 427.123799 285.775897 
L 427.331859 285.813392 
L 427.643949 286.28529 
L 428.58022 288.154689 
L 428.99634 288.470022 
L 429.30843 288.782373 
L 430.14067 289.700324 
L 430.76485 290.047815 
L 431.285 290.196405 
L 431.285 290.196405 
" clip-path="url(#p7acb8a673f)" style="fill: none; stroke: #2ca02c; stroke-width: 0.5; stroke-linecap: square"/>
   </g>
   <g id="patch_3">
    <path d="M 38.27 303.64 
L 38.27 25.44 
" style="fill: none; stroke: #000000; stroke-width: 0.8; stroke-linejoin: miter; stroke-linecap: square"/>
   </g>
   <g id="patch_4">
    <path d="M 450 303.64 
L 450 25.44 
" style="fill: none; stroke: #000000; stroke-width: 0.8; stroke-linejoin: miter; stroke-linecap: square"/>
   </g>
   <g id="patch_5">
    <path d="M 38.27 303.64 
L 450 303.64 
" style="fill: none; stroke: #000000; stroke-width: 0.8; stroke-linejoin: miter; stroke-linecap: square"/>
   </g>
   <g id="patch_6">
    <path d="M 38.27 25.44 
L 450 25.44 
" style="fill: none; stroke: #000000; stroke-width: 0.8; stroke-linejoin: miter; stroke-linecap: square"/>
   </g>
   <g id="text_19">
    <!-- cvxEDA (σ=1.4s  data_7_E4) -->
    <g transform="translate(158.48125 19.44) scale(0.12 -0.12)">
     <defs>
      <path id="DejaVuSans-63" d="M 3122 3366 
L 3122 2828 
Q 2878 2963 2633 3030 
Q 2388 3097 2138 3097 
Q 1578 3097 1268 2742 
Q 959 2388 959 1747 
Q 959 1106 1268 751 
Q 1578 397 2138 397 
Q 2388 397 2633 464 
Q 2878 531 3122 666 
L 3122 134 
Q 2881 22 2623 -34 
Q 2366 -91 2075 -91 
Q 1284 -91 818 406 
Q 353 903 353 1747 
Q 353 2603 823 3093 
Q 1294 3584 2113 3584 
Q 2378 3584 2631 3529 
Q 2884 3475 3122 3366 
z
" transform="scale(0.015625)"/>
      <path id="DejaVuSans-76" d="M 191 3500 
L 800 3500 
L 1894 563 
L 2988 3500 
L 3597 3500 
L 2284 0 
L 1503 0 
L 191 3500 
z
" transform="scale(0.015625)"/>
      <path id="DejaVuSans-78" d="M 3513 3500 
L 2247 1797 
L 3578 0 
L 2900 0 
L 1881 1375 
L 863 0 
L 184 0 
L 1544 1831 
L 300 3500 
L 978 3500 
L 1906 2253 
L 2834 3500 
L 3513 3500 
z
" transform="scale(0.015625)"/>
      <path id="DejaVuSans-3c3" d="M 1959 3044 
Q 1484 3044 1228 2700 
Q 959 2341 959 1747 
Q 959 1119 1226 758 
Q 1494 397 1959 397 
Q 2419 397 2687 759 
Q 2956 1122 2956 1747 
Q 2956 2319 2688 2700 
Q 2441 3044 1959 3044 
z
M 1959 3500 
L 3869 3500 
L 3869 2925 
L 3225 2925 
Q 3566 2438 3566 1747 
Q 3566 888 3138 400 
Q 2709 -91 1959 -91 
Q 1206 -91 781 400 
Q 353 888 353 1747 
Q 353 2613 781 3097 
Q 1134 3500 1959 3500 
z
" transform="scale(0.015625)"/>
      <path id="DejaVuSans-3d" d="M 678 2906 
L 4684 2906 
L 4684 2381 
L 678 2381 
L 678 2906 
z
M 678 1631 
L 4684 1631 
L 4684 1100 
L 678 1100 
L 678 1631 
z
" transform="scale(0.015625)"/>
      <path id="DejaVuSans-2e" d="M 684 794 
L 1344 794 
L 1344 0 
L 684 0 
L 684 794 
z
" transform="scale(0.015625)"/>
      <path id="DejaVuSans-64" d="M 2906 2969 
L 2906 4863 
L 3481 4863 
L 3481 0 
L 2906 0 
L 2906 525 
Q 2725 213 2448 61 
Q 2172 -91 1784 -91 
Q 1150 -91 751 415 
Q 353 922 353 1747 
Q 353 2572 751 3078 
Q 1150 3584 1784 3584 
Q 2172 3584 2448 3432 
Q 2725 3281 2906 2969 
z
M 947 1747 
Q 947 1113 1208 752 
Q 1469 391 1925 391 
Q 2381 391 2643 752 
Q 2906 1113 2906 1747 
Q 2906 2381 2643 2742 
Q 2381 3103 1925 3103 
Q 1469 3103 1208 2742 
Q 947 2381 947 1747 
z
" transform="scale(0.015625)"/>
      <path id="DejaVuSans-5f" d="M 3263 -1063 
L 3263 -1509 
L -63 -1509 
L -63 -1063 
L 3263 -1063 
z
" transform="scale(0.015625)"/>
     </defs>
     <use xlink:href="#DejaVuSans-63"/>
     <use xlink:href="#DejaVuSans-76" transform="translate(54.980469 0)"/>
     <use xlink:href="#DejaVuSans-78" transform="translate(114.160156 0)"/>
     <use xlink:href="#DejaVuSans-45" transform="translate(173.339844 0)"/>
     <use xlink:href="#DejaVuSans-44" transform="translate(236.523438 0)"/>
     <use xlink:href="#DejaVuSans-41" transform="translate(311.775391 0)"/>
     <use xlink:href="#DejaVuSans-20" transform="translate(380.183594 0)"/>
     <use xlink:href="#DejaVuSans-28" transform="translate(411.970703 0)"/>
     <use xlink:href="#DejaVuSans-3c3" transform="translate(450.984375 0)"/>
     <use xlink:href="#DejaVuSans-3d" transform="translate(514.363281 0)"/>
     <use xlink:href="#DejaVuSans-31" transform="translate(598.152344 0)"/>
     <use xlink:href="#DejaVuSans-2e" transform="translate(661.775391 0)"/>
     <use xlink:href="#DejaVuSans-34" transform="translate(693.5625 0)"/>
     <use xlink:href="#DejaVuSans-73" transform="translate(757.185547 0)"/>
     <use xlink:href="#DejaVuSans-20" transform="translate(809.285156 0)"/>
     <use xlink:href="#DejaVuSans-20" transform="translate(841.072266 0)"/>
     <use xlink:href="#DejaVuSans-64" transform="translate(872.859375 0)"/>
     <use xlink:href="#DejaVuSans-61" transform="translate(936.335938 0)"/>
     <use xlink:href="#DejaVuSans-74" transform="translate(997.615234 0)"/>
     <use xlink:href="#DejaVuSans-61" transform="translate(1036.824219 0)"/>
     <use xlink:href="#DejaVuSans-5f" transform="translate(1098.103516 0)"/>
     <use xlink:href="#DejaVuSans-37" transform="translate(1148.103516 0)"/>
     <use xlink:href="#DejaVuSans-5f" transform="translate(1211.726562 0)"/>
     <use xlink:href="#DejaVuSans-45" transform="translate(1261.726562 0)"/>
     <use xlink:href="#DejaVuSans-34" transform="translate(1324.910156 0)"/>
     <use xlink:href="#DejaVuSans-29" transform="translate(1388.533203 0)"/>
    </g>
   </g>
   <g id="legend_1">
    <g id="patch_7">
     <path d="M 350.09375 77.474375 
L 443 77.474375 
Q 445 77.474375 445 75.474375 
L 445 32.44 
Q 445 30.44 443 30.44 
L 350.09375 30.44 
Q 348.09375 30.44 348.09375 32.44 
L 348.09375 75.474375 
Q 348.09375 77.474375 350.09375 77.474375 
z
" style="fill: #ffffff; opacity: 0.8; stroke: #cccccc; stroke-linejoin: miter"/>
    </g>
    <g id="line2d_36">
     <path d="M 352.09375 38.538437 
L 362.09375 38.538437 
L 372.09375 38.538437 
" style="fill: none; stroke-dasharray: 1.85,0.8; stroke-dashoffset: 0; stroke: #1f77b4; stroke-width: 0.5"/>
    </g>
    <g id="text_20">
     <!-- Filtered EDA -->
     <g transform="translate(380.09375 42.038437) scale(0.1 -0.1)">
      <defs>
       <path id="DejaVuSans-46" d="M 628 4666 
L 3309 4666 
L 3309 4134 
L 1259 4134 
L 1259 2759 
L 3109 2759 
L 3109 2228 
L 1259 2228 
L 1259 0 
L 628 0 
L 628 4666 
z
" transform="scale(0.015625)"/>
       <path id="DejaVuSans-72" d="M 2631 2963 
Q 2534 3019 2420 3045 
Q 2306 3072 2169 3072 
Q 1681 3072 1420 2755 
Q 1159 2438 1159 1844 
L 1159 0 
L 581 0 
L 581 3500 
L 1159 3500 
L 1159 2956 
Q 1341 3275 1631 3429 
Q 1922 3584 2338 3584 
Q 2397 3584 2469 3576 
Q 2541 3569 2628 3553 
L 2631 2963 
z
" transform="scale(0.015625)"/>
      </defs>
      <use xlink:href="#DejaVuSans-46"/>
      <use xlink:href="#DejaVuSans-69" transform="translate(50.269531 0)"/>
      <use xlink:href="#DejaVuSans-6c" transform="translate(78.052734 0)"/>
      <use xlink:href="#DejaVuSans-74" transform="translate(105.835938 0)"/>
      <use xlink:href="#DejaVuSans-65" transform="translate(145.044922 0)"/>
      <use xlink:href="#DejaVuSans-72" transform="translate(206.568359 0)"/>
      <use xlink:href="#DejaVuSans-65" transform="translate(245.431641 0)"/>
      <use xlink:href="#DejaVuSans-64" transform="translate(306.955078 0)"/>
      <use xlink:href="#DejaVuSans-20" transform="translate(370.431641 0)"/>
      <use xlink:href="#DejaVuSans-45" transform="translate(402.21875 0)"/>
      <use xlink:href="#DejaVuSans-44" transform="translate(465.402344 0)"/>
      <use xlink:href="#DejaVuSans-41" transform="translate(540.654297 0)"/>
     </g>
    </g>
    <g id="line2d_37">
     <path d="M 352.09375 53.216562 
L 362.09375 53.216562 
L 372.09375 53.216562 
" style="fill: none; stroke: #ff7f0e; stroke-width: 0.5; stroke-linecap: square"/>
    </g>
    <g id="text_21">
     <!-- Tonic -->
     <g transform="translate(380.09375 56.716562) scale(0.1 -0.1)">
      <defs>
       <path id="DejaVuSans-6f" d="M 1959 3097 
Q 1497 3097 1228 2736 
Q 959 2375 959 1747 
Q 959 1119 1226 758 
Q 1494 397 1959 397 
Q 2419 397 2687 759 
Q 2956 1122 2956 1747 
Q 2956 2369 2687 2733 
Q 2419 3097 1959 3097 
z
M 1959 3584 
Q 2709 3584 3137 3096 
Q 3566 2609 3566 1747 
Q 3566 888 3137 398 
Q 2709 -91 1959 -91 
Q 1206 -91 779 398 
Q 353 888 353 1747 
Q 353 2609 779 3096 
Q 1206 3584 1959 3584 
z
" transform="scale(0.015625)"/>
      </defs>
      <use xlink:href="#DejaVuSans-54"/>
      <use xlink:href="#DejaVuSans-6f" transform="translate(44.083984 0)"/>
      <use xlink:href="#DejaVuSans-6e" transform="translate(105.265625 0)"/>
      <use xlink:href="#DejaVuSans-69" transform="translate(168.644531 0)"/>
      <use xlink:href="#DejaVuSans-63" transform="translate(196.427734 0)"/>
     </g>
    </g>
    <g id="line2d_38">
     <path d="M 352.09375 67.894687 
L 362.09375 67.894687 
L 372.09375 67.894687 
" style="fill: none; stroke: #2ca02c; stroke-width: 0.5; stroke-linecap: square"/>
    </g>
    <g id="text_22">
     <!-- Phasic -->
     <g transform="translate(380.09375 71.394687) scale(0.1 -0.1)">
      <defs>
       <path id="DejaVuSans-50" d="M 1259 4147 
L 1259 2394 
L 2053 2394 
Q 2494 2394 2734 2622 
Q 2975 2850 2975 3272 
Q 2975 3691 2734 3919 
Q 2494 4147 2053 4147 
L 1259 4147 
z
M 628 4666 
L 2053 4666 
Q 2838 4666 3239 4311 
Q 3641 3956 3641 3272 
Q 3641 2581 3239 2228 
Q 2838 1875 2053 1875 
L 1259 1875 
L 1259 0 
L 628 0 
L 628 4666 
z
" transform="scale(0.015625)"/>
       <path id="DejaVuSans-68" d="M 3513 2113 
L 3513 0 
L 2938 0 
L 2938 2094 
Q 2938 2591 2744 2837 
Q 2550 3084 2163 3084 
Q 1697 3084 1428 2787 
Q 1159 2491 1159 1978 
L 1159 0 
L 581 0 
L 581 4863 
L 1159 4863 
L 1159 2956 
Q 1366 3272 1645 3428 
Q 1925 3584 2291 3584 
Q 2894 3584 3203 3211 
Q 3513 2838 3513 2113 
z
" transform="scale(0.015625)"/>
      </defs>
      <use xlink:href="#DejaVuSans-50"/>
      <use xlink:href="#DejaVuSans-68" transform="translate(60.302734 0)"/>
      <use xlink:href="#DejaVuSans-61" transform="translate(123.681641 0)"/>
      <use xlink:href="#DejaVuSans-73" transform="translate(184.960938 0)"/>
      <use xlink:href="#DejaVuSans-69" transform="translate(237.060547 0)"/>
      <use xlink:href="#DejaVuSans-63" transform="translate(264.84375 0)"/>
     </g>
    </g>
   </g>
  </g>
 </g>
 <defs>
  <clipPath id="p7acb8a673f">
   <rect x="38.27" y="25.44" width="411.73" height="278.2"/>
  </clipPath>
 </defs>
</svg>
