<?xml version="1.0" encoding="utf-8" standalone="no"?>
<!DOCTYPE svg PUBLIC "-//W3C//DTD SVG 1.1//EN"
  "http://www.w3.org/Graphics/SVG/1.1/DTD/svg11.dtd">
<svg xmlns:xlink="http://www.w3.org/1999/xlink" width="460.8pt" height="345.6pt" viewBox="0 0 460.8 345.6" xmlns="http://www.w3.org/2000/svg" version="1.1">
 <metadata>
  <rdf:RDF xmlns:dc="http://purl.org/dc/elements/1.1/" xmlns:cc="http://creativecommons.org/ns#" xmlns:rdf="http://www.w3.org/1999/02/22-rdf-syntax-ns#">
   <cc:Work>
    <dc:type rdf:resource="http://purl.org/dc/dcmitype/StillImage"/>
    <dc:date>2025-09-22T15:39:21.891157</dc:date>
    <dc:format>image/svg+xml</dc:format>
    <dc:creator>
     <cc:Agent>
      <dc:title>Matplotlib v3.10.0, https://matplotlib.org/</dc:title>
     </cc:Agent>
    </dc:creator>
   </cc:Work>
  </rdf:RDF>
 </metadata>
 <defs>
  <style type="text/css">*{stroke-linejoin: round; stroke-linecap: butt}</style>
 </defs>
 <g id="figure_1">
  <g id="patch_1">
   <path d="M 0 345.6 
L 460.8 345.6 
L 460.8 0 
L 0 0 
z
" style="fill: #ffffff"/>
  </g>
  <g id="axes_1">
   <g id="patch_2">
    <path d="M 38.27 303.64 
L 450 303.64 
L 450 25.44 
L 38.27 25.44 
z
" style="fill: #ffffff"/>
   </g>
   <g id="matplotlib.axis_1">
    <g id="xtick_1">
     <g id="line2d_1">
      <path d="M 56.985 303.64 
L 56.985 25.44 
" clip-path="url(#p9d84ed5f1e)" style="fill: none; stroke: #b0b0b0; stroke-opacity: 0.3; stroke-width: 0.8; stroke-linecap: square"/>
     </g>
     <g id="line2d_2">
      <defs>
       <path id="m238a7f796a" d="M 0 0 
L 0 3.5 
" style="stroke: #000000; stroke-width: 0.8"/>
      </defs>
      <g>
       <use xlink:href="#m238a7f796a" x="56.985" y="303.64" style="stroke: #000000; stroke-width: 0.8"/>
      </g>
     </g>
     <g id="text_1">
      <!-- 0 -->
      <g transform="translate(53.80375 318.238437) scale(0.1 -0.1)">
       <defs>
        <path id="DejaVuSans-30" d="M 2034 4250 
Q 1547 4250 1301 3770 
Q 1056 3291 1056 2328 
Q 1056 1369 1301 889 
Q 1547 409 2034 409 
Q 2525 409 2770 889 
Q 3016 1369 3016 2328 
Q 3016 3291 2770 3770 
Q 2525 4250 2034 4250 
z
M 2034 4750 
Q 2819 4750 3233 4129 
Q 3647 3509 3647 2328 
Q 3647 1150 3233 529 
Q 2819 -91 2034 -91 
Q 1250 -91 836 529 
Q 422 1150 422 2328 
Q 422 3509 836 4129 
Q 1250 4750 2034 4750 
z
" transform="scale(0.015625)"/>
       </defs>
       <use xlink:href="#DejaVuSans-30"/>
      </g>
     </g>
    </g>
    <g id="xtick_2">
     <g id="line2d_3">
      <path d="M 106.891667 303.64 
L 106.891667 25.44 
" clip-path="url(#p9d84ed5f1e)" style="fill: none; stroke: #b0b0b0; stroke-opacity: 0.3; stroke-width: 0.8; stroke-linecap: square"/>
     </g>
     <g id="line2d_4">
      <g>
       <use xlink:href="#m238a7f796a" x="106.891667" y="303.64" style="stroke: #000000; stroke-width: 0.8"/>
      </g>
     </g>
     <g id="text_2">
      <!-- 2 -->
      <g transform="translate(103.710417 318.238437) scale(0.1 -0.1)">
       <defs>
        <path id="DejaVuSans-32" d="M 1228 531 
L 3431 531 
L 3431 0 
L 469 0 
L 469 531 
Q 828 903 1448 1529 
Q 2069 2156 2228 2338 
Q 2531 2678 2651 2914 
Q 2772 3150 2772 3378 
Q 2772 3750 2511 3984 
Q 2250 4219 1831 4219 
Q 1534 4219 1204 4116 
Q 875 4013 500 3803 
L 500 4441 
Q 881 4594 1212 4672 
Q 1544 4750 1819 4750 
Q 2544 4750 2975 4387 
Q 3406 4025 3406 3419 
Q 3406 3131 3298 2873 
Q 3191 2616 2906 2266 
Q 2828 2175 2409 1742 
Q 1991 1309 1228 531 
z
" transform="scale(0.015625)"/>
       </defs>
       <use xlink:href="#DejaVuSans-32"/>
      </g>
     </g>
    </g>
    <g id="xtick_3">
     <g id="line2d_5">
      <path d="M 156.798333 303.64 
L 156.798333 25.44 
" clip-path="url(#p9d84ed5f1e)" style="fill: none; stroke: #b0b0b0; stroke-opacity: 0.3; stroke-width: 0.8; stroke-linecap: square"/>
     </g>
     <g id="line2d_6">
      <g>
       <use xlink:href="#m238a7f796a" x="156.798333" y="303.64" style="stroke: #000000; stroke-width: 0.8"/>
      </g>
     </g>
     <g id="text_3">
      <!-- 4 -->
      <g transform="translate(153.617083 318.238437) scale(0.1 -0.1)">
       <defs>
        <path id="DejaVuSans-34" d="M 2419 4116 
L 825 1625 
L 2419 1625 
L 2419 4116 
z
M 2253 4666 
L 3047 4666 
L 3047 1625 
L 3713 1625 
L 3713 1100 
L 3047 1100 
L 3047 0 
L 2419 0 
L 2419 1100 
L 313 1100 
L 313 1709 
L 2253 4666 
z
" transform="scale(0.015625)"/>
       </defs>
       <use xlink:href="#DejaVuSans-34"/>
      </g>
     </g>
    </g>
    <g id="xtick_4">
     <g id="line2d_7">
      <path d="M 206.705 303.64 
L 206.705 25.44 
" clip-path="url(#p9d84ed5f1e)" style="fill: none; stroke: #b0b0b0; stroke-opacity: 0.3; stroke-width: 0.8; stroke-linecap: square"/>
     </g>
     <g id="line2d_8">
      <g>
       <use xlink:href="#m238a7f796a" x="206.705" y="303.64" style="stroke: #000000; stroke-width: 0.8"/>
      </g>
     </g>
     <g id="text_4">
      <!-- 6 -->
      <g transform="translate(203.52375 318.238437) scale(0.1 -0.1)">
       <defs>
        <path id="DejaVuSans-36" d="M 2113 2584 
Q 1688 2584 1439 2293 
Q 1191 2003 1191 1497 
Q 1191 994 1439 701 
Q 1688 409 2113 409 
Q 2538 409 2786 701 
Q 3034 994 3034 1497 
Q 3034 2003 2786 2293 
Q 2538 2584 2113 2584 
z
M 3366 4563 
L 3366 3988 
Q 3128 4100 2886 4159 
Q 2644 4219 2406 4219 
Q 1781 4219 1451 3797 
Q 1122 3375 1075 2522 
Q 1259 2794 1537 2939 
Q 1816 3084 2150 3084 
Q 2853 3084 3261 2657 
Q 3669 2231 3669 1497 
Q 3669 778 3244 343 
Q 2819 -91 2113 -91 
Q 1303 -91 875 529 
Q 447 1150 447 2328 
Q 447 3434 972 4092 
Q 1497 4750 2381 4750 
Q 2619 4750 2861 4703 
Q 3103 4656 3366 4563 
z
" transform="scale(0.015625)"/>
       </defs>
       <use xlink:href="#DejaVuSans-36"/>
      </g>
     </g>
    </g>
    <g id="xtick_5">
     <g id="line2d_9">
      <path d="M 256.611667 303.64 
L 256.611667 25.44 
" clip-path="url(#p9d84ed5f1e)" style="fill: none; stroke: #b0b0b0; stroke-opacity: 0.3; stroke-width: 0.8; stroke-linecap: square"/>
     </g>
     <g id="line2d_10">
      <g>
       <use xlink:href="#m238a7f796a" x="256.611667" y="303.64" style="stroke: #000000; stroke-width: 0.8"/>
      </g>
     </g>
     <g id="text_5">
      <!-- 8 -->
      <g transform="translate(253.430417 318.238437) scale(0.1 -0.1)">
       <defs>
        <path id="DejaVuSans-38" d="M 2034 2216 
Q 1584 2216 1326 1975 
Q 1069 1734 1069 1313 
Q 1069 891 1326 650 
Q 1584 409 2034 409 
Q 2484 409 2743 651 
Q 3003 894 3003 1313 
Q 3003 1734 2745 1975 
Q 2488 2216 2034 2216 
z
M 1403 2484 
Q 997 2584 770 2862 
Q 544 3141 544 3541 
Q 544 4100 942 4425 
Q 1341 4750 2034 4750 
Q 2731 4750 3128 4425 
Q 3525 4100 3525 3541 
Q 3525 3141 3298 2862 
Q 3072 2584 2669 2484 
Q 3125 2378 3379 2068 
Q 3634 1759 3634 1313 
Q 3634 634 3220 271 
Q 2806 -91 2034 -91 
Q 1263 -91 848 271 
Q 434 634 434 1313 
Q 434 1759 690 2068 
Q 947 2378 1403 2484 
z
M 1172 3481 
Q 1172 3119 1398 2916 
Q 1625 2713 2034 2713 
Q 2441 2713 2670 2916 
Q 2900 3119 2900 3481 
Q 2900 3844 2670 4047 
Q 2441 4250 2034 4250 
Q 1625 4250 1398 4047 
Q 1172 3844 1172 3481 
z
" transform="scale(0.015625)"/>
       </defs>
       <use xlink:href="#DejaVuSans-38"/>
      </g>
     </g>
    </g>
    <g id="xtick_6">
     <g id="line2d_11">
      <path d="M 306.518333 303.64 
L 306.518333 25.44 
" clip-path="url(#p9d84ed5f1e)" style="fill: none; stroke: #b0b0b0; stroke-opacity: 0.3; stroke-width: 0.8; stroke-linecap: square"/>
     </g>
     <g id="line2d_12">
      <g>
       <use xlink:href="#m238a7f796a" x="306.518333" y="303.64" style="stroke: #000000; stroke-width: 0.8"/>
      </g>
     </g>
     <g id="text_6">
      <!-- 10 -->
      <g transform="translate(300.155833 318.238437) scale(0.1 -0.1)">
       <defs>
        <path id="DejaVuSans-31" d="M 794 531 
L 1825 531 
L 1825 4091 
L 703 3866 
L 703 4441 
L 1819 4666 
L 2450 4666 
L 2450 531 
L 3481 531 
L 3481 0 
L 794 0 
L 794 531 
z
" transform="scale(0.015625)"/>
       </defs>
       <use xlink:href="#DejaVuSans-31"/>
       <use xlink:href="#DejaVuSans-30" transform="translate(63.623047 0)"/>
      </g>
     </g>
    </g>
    <g id="xtick_7">
     <g id="line2d_13">
      <path d="M 356.425 303.64 
L 356.425 25.44 
" clip-path="url(#p9d84ed5f1e)" style="fill: none; stroke: #b0b0b0; stroke-opacity: 0.3; stroke-width: 0.8; stroke-linecap: square"/>
     </g>
     <g id="line2d_14">
      <g>
       <use xlink:href="#m238a7f796a" x="356.425" y="303.64" style="stroke: #000000; stroke-width: 0.8"/>
      </g>
     </g>
     <g id="text_7">
      <!-- 12 -->
      <g transform="translate(350.0625 318.238437) scale(0.1 -0.1)">
       <use xlink:href="#DejaVuSans-31"/>
       <use xlink:href="#DejaVuSans-32" transform="translate(63.623047 0)"/>
      </g>
     </g>
    </g>
    <g id="xtick_8">
     <g id="line2d_15">
      <path d="M 406.331667 303.64 
L 406.331667 25.44 
" clip-path="url(#p9d84ed5f1e)" style="fill: none; stroke: #b0b0b0; stroke-opacity: 0.3; stroke-width: 0.8; stroke-linecap: square"/>
     </g>
     <g id="line2d_16">
      <g>
       <use xlink:href="#m238a7f796a" x="406.331667" y="303.64" style="stroke: #000000; stroke-width: 0.8"/>
      </g>
     </g>
     <g id="text_8">
      <!-- 14 -->
      <g transform="translate(399.969167 318.238437) scale(0.1 -0.1)">
       <use xlink:href="#DejaVuSans-31"/>
       <use xlink:href="#DejaVuSans-34" transform="translate(63.623047 0)"/>
      </g>
     </g>
    </g>
    <g id="text_9">
     <!-- Time (minutes) -->
     <g transform="translate(206.1725 331.916562) scale(0.1 -0.1)">
      <defs>
       <path id="DejaVuSans-54" d="M -19 4666 
L 3928 4666 
L 3928 4134 
L 2272 4134 
L 2272 0 
L 1638 0 
L 1638 4134 
L -19 4134 
L -19 4666 
z
" transform="scale(0.015625)"/>
       <path id="DejaVuSans-69" d="M 603 3500 
L 1178 3500 
L 1178 0 
L 603 0 
L 603 3500 
z
M 603 4863 
L 1178 4863 
L 1178 4134 
L 603 4134 
L 603 4863 
z
" transform="scale(0.015625)"/>
       <path id="DejaVuSans-6d" d="M 3328 2828 
Q 3544 3216 3844 3400 
Q 4144 3584 4550 3584 
Q 5097 3584 5394 3201 
Q 5691 2819 5691 2113 
L 5691 0 
L 5113 0 
L 5113 2094 
Q 5113 2597 4934 2840 
Q 4756 3084 4391 3084 
Q 3944 3084 3684 2787 
Q 3425 2491 3425 1978 
L 3425 0 
L 2847 0 
L 2847 2094 
Q 2847 2600 2669 2842 
Q 2491 3084 2119 3084 
Q 1678 3084 1418 2786 
Q 1159 2488 1159 1978 
L 1159 0 
L 581 0 
L 581 3500 
L 1159 3500 
L 1159 2956 
Q 1356 3278 1631 3431 
Q 1906 3584 2284 3584 
Q 2666 3584 2933 3390 
Q 3200 3197 3328 2828 
z
" transform="scale(0.015625)"/>
       <path id="DejaVuSans-65" d="M 3597 1894 
L 3597 1613 
L 953 1613 
Q 991 1019 1311 708 
Q 1631 397 2203 397 
Q 2534 397 2845 478 
Q 3156 559 3463 722 
L 3463 178 
Q 3153 47 2828 -22 
Q 2503 -91 2169 -91 
Q 1331 -91 842 396 
Q 353 884 353 1716 
Q 353 2575 817 3079 
Q 1281 3584 2069 3584 
Q 2775 3584 3186 3129 
Q 3597 2675 3597 1894 
z
M 3022 2063 
Q 3016 2534 2758 2815 
Q 2500 3097 2075 3097 
Q 1594 3097 1305 2825 
Q 1016 2553 972 2059 
L 3022 2063 
z
" transform="scale(0.015625)"/>
       <path id="DejaVuSans-20" transform="scale(0.015625)"/>
       <path id="DejaVuSans-28" d="M 1984 4856 
Q 1566 4138 1362 3434 
Q 1159 2731 1159 2009 
Q 1159 1288 1364 580 
Q 1569 -128 1984 -844 
L 1484 -844 
Q 1016 -109 783 600 
Q 550 1309 550 2009 
Q 550 2706 781 3412 
Q 1013 4119 1484 4856 
L 1984 4856 
z
" transform="scale(0.015625)"/>
       <path id="DejaVuSans-6e" d="M 3513 2113 
L 3513 0 
L 2938 0 
L 2938 2094 
Q 2938 2591 2744 2837 
Q 2550 3084 2163 3084 
Q 1697 3084 1428 2787 
Q 1159 2491 1159 1978 
L 1159 0 
L 581 0 
L 581 3500 
L 1159 3500 
L 1159 2956 
Q 1366 3272 1645 3428 
Q 1925 3584 2291 3584 
Q 2894 3584 3203 3211 
Q 3513 2838 3513 2113 
z
" transform="scale(0.015625)"/>
       <path id="DejaVuSans-75" d="M 544 1381 
L 544 3500 
L 1119 3500 
L 1119 1403 
Q 1119 906 1312 657 
Q 1506 409 1894 409 
Q 2359 409 2629 706 
Q 2900 1003 2900 1516 
L 2900 3500 
L 3475 3500 
L 3475 0 
L 2900 0 
L 2900 538 
Q 2691 219 2414 64 
Q 2138 -91 1772 -91 
Q 1169 -91 856 284 
Q 544 659 544 1381 
z
M 1991 3584 
L 1991 3584 
z
" transform="scale(0.015625)"/>
       <path id="DejaVuSans-74" d="M 1172 4494 
L 1172 3500 
L 2356 3500 
L 2356 3053 
L 1172 3053 
L 1172 1153 
Q 1172 725 1289 603 
Q 1406 481 1766 481 
L 2356 481 
L 2356 0 
L 1766 0 
Q 1100 0 847 248 
Q 594 497 594 1153 
L 594 3053 
L 172 3053 
L 172 3500 
L 594 3500 
L 594 4494 
L 1172 4494 
z
" transform="scale(0.015625)"/>
       <path id="DejaVuSans-73" d="M 2834 3397 
L 2834 2853 
Q 2591 2978 2328 3040 
Q 2066 3103 1784 3103 
Q 1356 3103 1142 2972 
Q 928 2841 928 2578 
Q 928 2378 1081 2264 
Q 1234 2150 1697 2047 
L 1894 2003 
Q 2506 1872 2764 1633 
Q 3022 1394 3022 966 
Q 3022 478 2636 193 
Q 2250 -91 1575 -91 
Q 1294 -91 989 -36 
Q 684 19 347 128 
L 347 722 
Q 666 556 975 473 
Q 1284 391 1588 391 
Q 1994 391 2212 530 
Q 2431 669 2431 922 
Q 2431 1156 2273 1281 
Q 2116 1406 1581 1522 
L 1381 1569 
Q 847 1681 609 1914 
Q 372 2147 372 2553 
Q 372 3047 722 3315 
Q 1072 3584 1716 3584 
Q 2034 3584 2315 3537 
Q 2597 3491 2834 3397 
z
" transform="scale(0.015625)"/>
       <path id="DejaVuSans-29" d="M 513 4856 
L 1013 4856 
Q 1481 4119 1714 3412 
Q 1947 2706 1947 2009 
Q 1947 1309 1714 600 
Q 1481 -109 1013 -844 
L 513 -844 
Q 928 -128 1133 580 
Q 1338 1288 1338 2009 
Q 1338 2731 1133 3434 
Q 928 4138 513 4856 
z
" transform="scale(0.015625)"/>
      </defs>
      <use xlink:href="#DejaVuSans-54"/>
      <use xlink:href="#DejaVuSans-69" transform="translate(57.958984 0)"/>
      <use xlink:href="#DejaVuSans-6d" transform="translate(85.742188 0)"/>
      <use xlink:href="#DejaVuSans-65" transform="translate(183.154297 0)"/>
      <use xlink:href="#DejaVuSans-20" transform="translate(244.677734 0)"/>
      <use xlink:href="#DejaVuSans-28" transform="translate(276.464844 0)"/>
      <use xlink:href="#DejaVuSans-6d" transform="translate(315.478516 0)"/>
      <use xlink:href="#DejaVuSans-69" transform="translate(412.890625 0)"/>
      <use xlink:href="#DejaVuSans-6e" transform="translate(440.673828 0)"/>
      <use xlink:href="#DejaVuSans-75" transform="translate(504.052734 0)"/>
      <use xlink:href="#DejaVuSans-74" transform="translate(567.431641 0)"/>
      <use xlink:href="#DejaVuSans-65" transform="translate(606.640625 0)"/>
      <use xlink:href="#DejaVuSans-73" transform="translate(668.164062 0)"/>
      <use xlink:href="#DejaVuSans-29" transform="translate(720.263672 0)"/>
     </g>
    </g>
   </g>
   <g id="matplotlib.axis_2">
    <g id="ytick_1">
     <g id="line2d_17">
      <path d="M 38.27 283.069727 
L 450 283.069727 
" clip-path="url(#p9d84ed5f1e)" style="fill: none; stroke: #b0b0b0; stroke-opacity: 0.3; stroke-width: 0.8; stroke-linecap: square"/>
     </g>
     <g id="line2d_18">
      <defs>
       <path id="m0f81979219" d="M 0 0 
L -3.5 0 
" style="stroke: #000000; stroke-width: 0.8"/>
      </defs>
      <g>
       <use xlink:href="#m0f81979219" x="38.27" y="283.069727" style="stroke: #000000; stroke-width: 0.8"/>
      </g>
     </g>
     <g id="text_10">
      <!-- 0 -->
      <g transform="translate(24.9075 286.868946) scale(0.1 -0.1)">
       <use xlink:href="#DejaVuSans-30"/>
      </g>
     </g>
    </g>
    <g id="ytick_2">
     <g id="line2d_19">
      <path d="M 38.27 249.026969 
L 450 249.026969 
" clip-path="url(#p9d84ed5f1e)" style="fill: none; stroke: #b0b0b0; stroke-opacity: 0.3; stroke-width: 0.8; stroke-linecap: square"/>
     </g>
     <g id="line2d_20">
      <g>
       <use xlink:href="#m0f81979219" x="38.27" y="249.026969" style="stroke: #000000; stroke-width: 0.8"/>
      </g>
     </g>
     <g id="text_11">
      <!-- 1 -->
      <g transform="translate(24.9075 252.826188) scale(0.1 -0.1)">
       <use xlink:href="#DejaVuSans-31"/>
      </g>
     </g>
    </g>
    <g id="ytick_3">
     <g id="line2d_21">
      <path d="M 38.27 214.984211 
L 450 214.984211 
" clip-path="url(#p9d84ed5f1e)" style="fill: none; stroke: #b0b0b0; stroke-opacity: 0.3; stroke-width: 0.8; stroke-linecap: square"/>
     </g>
     <g id="line2d_22">
      <g>
       <use xlink:href="#m0f81979219" x="38.27" y="214.984211" style="stroke: #000000; stroke-width: 0.8"/>
      </g>
     </g>
     <g id="text_12">
      <!-- 2 -->
      <g transform="translate(24.9075 218.78343) scale(0.1 -0.1)">
       <use xlink:href="#DejaVuSans-32"/>
      </g>
     </g>
    </g>
    <g id="ytick_4">
     <g id="line2d_23">
      <path d="M 38.27 180.941453 
L 450 180.941453 
" clip-path="url(#p9d84ed5f1e)" style="fill: none; stroke: #b0b0b0; stroke-opacity: 0.3; stroke-width: 0.8; stroke-linecap: square"/>
     </g>
     <g id="line2d_24">
      <g>
       <use xlink:href="#m0f81979219" x="38.27" y="180.941453" style="stroke: #000000; stroke-width: 0.8"/>
      </g>
     </g>
     <g id="text_13">
      <!-- 3 -->
      <g transform="translate(24.9075 184.740672) scale(0.1 -0.1)">
       <defs>
        <path id="DejaVuSans-33" d="M 2597 2516 
Q 3050 2419 3304 2112 
Q 3559 1806 3559 1356 
Q 3559 666 3084 287 
Q 2609 -91 1734 -91 
Q 1441 -91 1130 -33 
Q 819 25 488 141 
L 488 750 
Q 750 597 1062 519 
Q 1375 441 1716 441 
Q 2309 441 2620 675 
Q 2931 909 2931 1356 
Q 2931 1769 2642 2001 
Q 2353 2234 1838 2234 
L 1294 2234 
L 1294 2753 
L 1863 2753 
Q 2328 2753 2575 2939 
Q 2822 3125 2822 3475 
Q 2822 3834 2567 4026 
Q 2313 4219 1838 4219 
Q 1578 4219 1281 4162 
Q 984 4106 628 3988 
L 628 4550 
Q 988 4650 1302 4700 
Q 1616 4750 1894 4750 
Q 2613 4750 3031 4423 
Q 3450 4097 3450 3541 
Q 3450 3153 3228 2886 
Q 3006 2619 2597 2516 
z
" transform="scale(0.015625)"/>
       </defs>
       <use xlink:href="#DejaVuSans-33"/>
      </g>
     </g>
    </g>
    <g id="ytick_5">
     <g id="line2d_25">
      <path d="M 38.27 146.898695 
L 450 146.898695 
" clip-path="url(#p9d84ed5f1e)" style="fill: none; stroke: #b0b0b0; stroke-opacity: 0.3; stroke-width: 0.8; stroke-linecap: square"/>
     </g>
     <g id="line2d_26">
      <g>
       <use xlink:href="#m0f81979219" x="38.27" y="146.898695" style="stroke: #000000; stroke-width: 0.8"/>
      </g>
     </g>
     <g id="text_14">
      <!-- 4 -->
      <g transform="translate(24.9075 150.697914) scale(0.1 -0.1)">
       <use xlink:href="#DejaVuSans-34"/>
      </g>
     </g>
    </g>
    <g id="ytick_6">
     <g id="line2d_27">
      <path d="M 38.27 112.855937 
L 450 112.855937 
" clip-path="url(#p9d84ed5f1e)" style="fill: none; stroke: #b0b0b0; stroke-opacity: 0.3; stroke-width: 0.8; stroke-linecap: square"/>
     </g>
     <g id="line2d_28">
      <g>
       <use xlink:href="#m0f81979219" x="38.27" y="112.855937" style="stroke: #000000; stroke-width: 0.8"/>
      </g>
     </g>
     <g id="text_15">
      <!-- 5 -->
      <g transform="translate(24.9075 116.655156) scale(0.1 -0.1)">
       <defs>
        <path id="DejaVuSans-35" d="M 691 4666 
L 3169 4666 
L 3169 4134 
L 1269 4134 
L 1269 2991 
Q 1406 3038 1543 3061 
Q 1681 3084 1819 3084 
Q 2600 3084 3056 2656 
Q 3513 2228 3513 1497 
Q 3513 744 3044 326 
Q 2575 -91 1722 -91 
Q 1428 -91 1123 -41 
Q 819 9 494 109 
L 494 744 
Q 775 591 1075 516 
Q 1375 441 1709 441 
Q 2250 441 2565 725 
Q 2881 1009 2881 1497 
Q 2881 1984 2565 2268 
Q 2250 2553 1709 2553 
Q 1456 2553 1204 2497 
Q 953 2441 691 2322 
L 691 4666 
z
" transform="scale(0.015625)"/>
       </defs>
       <use xlink:href="#DejaVuSans-35"/>
      </g>
     </g>
    </g>
    <g id="ytick_7">
     <g id="line2d_29">
      <path d="M 38.27 78.813179 
L 450 78.813179 
" clip-path="url(#p9d84ed5f1e)" style="fill: none; stroke: #b0b0b0; stroke-opacity: 0.3; stroke-width: 0.8; stroke-linecap: square"/>
     </g>
     <g id="line2d_30">
      <g>
       <use xlink:href="#m0f81979219" x="38.27" y="78.813179" style="stroke: #000000; stroke-width: 0.8"/>
      </g>
     </g>
     <g id="text_16">
      <!-- 6 -->
      <g transform="translate(24.9075 82.612398) scale(0.1 -0.1)">
       <use xlink:href="#DejaVuSans-36"/>
      </g>
     </g>
    </g>
    <g id="ytick_8">
     <g id="line2d_31">
      <path d="M 38.27 44.770421 
L 450 44.770421 
" clip-path="url(#p9d84ed5f1e)" style="fill: none; stroke: #b0b0b0; stroke-opacity: 0.3; stroke-width: 0.8; stroke-linecap: square"/>
     </g>
     <g id="line2d_32">
      <g>
       <use xlink:href="#m0f81979219" x="38.27" y="44.770421" style="stroke: #000000; stroke-width: 0.8"/>
      </g>
     </g>
     <g id="text_17">
      <!-- 7 -->
      <g transform="translate(24.9075 48.56964) scale(0.1 -0.1)">
       <defs>
        <path id="DejaVuSans-37" d="M 525 4666 
L 3525 4666 
L 3525 4397 
L 1831 0 
L 1172 0 
L 2766 4134 
L 525 4134 
L 525 4666 
z
" transform="scale(0.015625)"/>
       </defs>
       <use xlink:href="#DejaVuSans-37"/>
      </g>
     </g>
    </g>
    <g id="text_18">
     <!-- EDA signals (μS) -->
     <g transform="translate(18.827813 205.711875) rotate(-90) scale(0.1 -0.1)">
      <defs>
       <path id="DejaVuSans-45" d="M 628 4666 
L 3578 4666 
L 3578 4134 
L 1259 4134 
L 1259 2753 
L 3481 2753 
L 3481 2222 
L 1259 2222 
L 1259 531 
L 3634 531 
L 3634 0 
L 628 0 
L 628 4666 
z
" transform="scale(0.015625)"/>
       <path id="DejaVuSans-44" d="M 1259 4147 
L 1259 519 
L 2022 519 
Q 2988 519 3436 956 
Q 3884 1394 3884 2338 
Q 3884 3275 3436 3711 
Q 2988 4147 2022 4147 
L 1259 4147 
z
M 628 4666 
L 1925 4666 
Q 3281 4666 3915 4102 
Q 4550 3538 4550 2338 
Q 4550 1131 3912 565 
Q 3275 0 1925 0 
L 628 0 
L 628 4666 
z
" transform="scale(0.015625)"/>
       <path id="DejaVuSans-41" d="M 2188 4044 
L 1331 1722 
L 3047 1722 
L 2188 4044 
z
M 1831 4666 
L 2547 4666 
L 4325 0 
L 3669 0 
L 3244 1197 
L 1141 1197 
L 716 0 
L 50 0 
L 1831 4666 
z
" transform="scale(0.015625)"/>
       <path id="DejaVuSans-67" d="M 2906 1791 
Q 2906 2416 2648 2759 
Q 2391 3103 1925 3103 
Q 1463 3103 1205 2759 
Q 947 2416 947 1791 
Q 947 1169 1205 825 
Q 1463 481 1925 481 
Q 2391 481 2648 825 
Q 2906 1169 2906 1791 
z
M 3481 434 
Q 3481 -459 3084 -895 
Q 2688 -1331 1869 -1331 
Q 1566 -1331 1297 -1286 
Q 1028 -1241 775 -1147 
L 775 -588 
Q 1028 -725 1275 -790 
Q 1522 -856 1778 -856 
Q 2344 -856 2625 -561 
Q 2906 -266 2906 331 
L 2906 616 
Q 2728 306 2450 153 
Q 2172 0 1784 0 
Q 1141 0 747 490 
Q 353 981 353 1791 
Q 353 2603 747 3093 
Q 1141 3584 1784 3584 
Q 2172 3584 2450 3431 
Q 2728 3278 2906 2969 
L 2906 3500 
L 3481 3500 
L 3481 434 
z
" transform="scale(0.015625)"/>
       <path id="DejaVuSans-61" d="M 2194 1759 
Q 1497 1759 1228 1600 
Q 959 1441 959 1056 
Q 959 750 1161 570 
Q 1363 391 1709 391 
Q 2188 391 2477 730 
Q 2766 1069 2766 1631 
L 2766 1759 
L 2194 1759 
z
M 3341 1997 
L 3341 0 
L 2766 0 
L 2766 531 
Q 2569 213 2275 61 
Q 1981 -91 1556 -91 
Q 1019 -91 701 211 
Q 384 513 384 1019 
Q 384 1609 779 1909 
Q 1175 2209 1959 2209 
L 2766 2209 
L 2766 2266 
Q 2766 2663 2505 2880 
Q 2244 3097 1772 3097 
Q 1472 3097 1187 3025 
Q 903 2953 641 2809 
L 641 3341 
Q 956 3463 1253 3523 
Q 1550 3584 1831 3584 
Q 2591 3584 2966 3190 
Q 3341 2797 3341 1997 
z
" transform="scale(0.015625)"/>
       <path id="DejaVuSans-6c" d="M 603 4863 
L 1178 4863 
L 1178 0 
L 603 0 
L 603 4863 
z
" transform="scale(0.015625)"/>
       <path id="DejaVuSans-3bc" d="M 544 -1331 
L 544 3500 
L 1119 3500 
L 1119 1325 
Q 1119 872 1334 640 
Q 1550 409 1972 409 
Q 2434 409 2667 671 
Q 2900 934 2900 1459 
L 2900 3500 
L 3475 3500 
L 3475 806 
Q 3475 619 3529 530 
Q 3584 441 3700 441 
Q 3728 441 3778 458 
Q 3828 475 3916 513 
L 3916 50 
Q 3788 -22 3673 -56 
Q 3559 -91 3450 -91 
Q 3234 -91 3106 31 
Q 2978 153 2931 403 
Q 2775 156 2548 32 
Q 2322 -91 2016 -91 
Q 1697 -91 1473 31 
Q 1250 153 1119 397 
L 1119 -1331 
L 544 -1331 
z
" transform="scale(0.015625)"/>
       <path id="DejaVuSans-53" d="M 3425 4513 
L 3425 3897 
Q 3066 4069 2747 4153 
Q 2428 4238 2131 4238 
Q 1616 4238 1336 4038 
Q 1056 3838 1056 3469 
Q 1056 3159 1242 3001 
Q 1428 2844 1947 2747 
L 2328 2669 
Q 3034 2534 3370 2195 
Q 3706 1856 3706 1288 
Q 3706 609 3251 259 
Q 2797 -91 1919 -91 
Q 1588 -91 1214 -16 
Q 841 59 441 206 
L 441 856 
Q 825 641 1194 531 
Q 1563 422 1919 422 
Q 2459 422 2753 634 
Q 3047 847 3047 1241 
Q 3047 1584 2836 1778 
Q 2625 1972 2144 2069 
L 1759 2144 
Q 1053 2284 737 2584 
Q 422 2884 422 3419 
Q 422 4038 858 4394 
Q 1294 4750 2059 4750 
Q 2388 4750 2728 4690 
Q 3069 4631 3425 4513 
z
" transform="scale(0.015625)"/>
      </defs>
      <use xlink:href="#DejaVuSans-45"/>
      <use xlink:href="#DejaVuSans-44" transform="translate(63.183594 0)"/>
      <use xlink:href="#DejaVuSans-41" transform="translate(138.435547 0)"/>
      <use xlink:href="#DejaVuSans-20" transform="translate(206.84375 0)"/>
      <use xlink:href="#DejaVuSans-73" transform="translate(238.630859 0)"/>
      <use xlink:href="#DejaVuSans-69" transform="translate(290.730469 0)"/>
      <use xlink:href="#DejaVuSans-67" transform="translate(318.513672 0)"/>
      <use xlink:href="#DejaVuSans-6e" transform="translate(381.990234 0)"/>
      <use xlink:href="#DejaVuSans-61" transform="translate(445.369141 0)"/>
      <use xlink:href="#DejaVuSans-6c" transform="translate(506.648438 0)"/>
      <use xlink:href="#DejaVuSans-73" transform="translate(534.431641 0)"/>
      <use xlink:href="#DejaVuSans-20" transform="translate(586.53125 0)"/>
      <use xlink:href="#DejaVuSans-28" transform="translate(618.318359 0)"/>
      <use xlink:href="#DejaVuSans-3bc" transform="translate(657.332031 0)"/>
      <use xlink:href="#DejaVuSans-53" transform="translate(720.955078 0)"/>
      <use xlink:href="#DejaVuSans-29" transform="translate(784.431641 0)"/>
     </g>
    </g>
   </g>
   <g id="line2d_33">
    <path d="M 56.985 103.690541 
L 57.08903 103.600695 
L 57.19306 103.661399 
L 57.40112 104.524309 
L 57.81724 108.717174 
L 58.33739 113.620021 
L 58.85754 116.502168 
L 59.48172 118.632757 
L 60.105901 120.474269 
L 60.730081 123.182846 
L 60.834111 123.198623 
L 61.146201 122.68901 
L 61.354261 122.155149 
L 61.874411 119.969456 
L 62.082471 120.87398 
L 62.706651 124.839951 
L 63.122771 125.649247 
L 63.434861 126.20111 
L 64.579191 128.905935 
L 64.891281 129.151092 
L 65.515461 129.441908 
L 66.035611 130.143491 
L 67.388002 132.057681 
L 67.700092 132.330533 
L 67.908152 132.288389 
L 68.116212 131.931497 
L 68.740392 130.393497 
L 68.948452 130.361884 
L 69.572632 130.690134 
L 69.884722 131.10933 
L 70.925022 132.861662 
L 71.861292 133.66431 
L 72.277412 133.603191 
L 72.693533 133.594941 
L 73.109653 133.942026 
L 73.733833 134.471728 
L 74.358013 134.707682 
L 74.670103 134.820657 
L 75.086223 135.300189 
L 75.710403 136.016378 
L 75.918463 136.07281 
L 76.126523 135.795389 
L 76.334583 134.915829 
L 76.542643 133.070717 
L 76.854733 127.753109 
L 77.270853 119.787711 
L 77.478913 118.531534 
L 77.582943 118.690904 
L 77.895033 120.722635 
L 78.207123 122.431016 
L 78.415183 122.564383 
L 78.623243 121.982763 
L 78.935334 120.053111 
L 79.559514 115.07057 
L 79.767574 114.632522 
L 79.871604 114.684191 
L 80.079664 115.236326 
L 80.703844 118.318135 
L 81.640114 123.411944 
L 82.368324 127.7108 
L 82.888474 129.81 
L 83.200564 132.781397 
L 84.136834 144.783228 
L 84.240864 145.057972 
L 84.344894 144.823531 
L 84.552954 142.442892 
L 84.865044 133.484456 
L 85.281165 121.769336 
L 85.385195 121.205961 
L 85.489225 121.504706 
L 86.113405 125.669851 
L 86.217435 125.58804 
L 86.425495 124.507808 
L 87.049675 118.95877 
L 87.257735 119.161003 
L 87.465795 119.273398 
L 87.673855 118.721273 
L 87.881915 117.207497 
L 88.714155 108.355613 
L 88.818185 108.464051 
L 89.130275 109.838417 
L 89.442365 110.888057 
L 89.858485 111.855569 
L 90.274605 114.00388 
L 90.482665 115.941151 
L 90.794755 121.446711 
L 91.418936 133.058987 
L 91.835056 136.806344 
L 92.043116 137.36089 
L 92.355206 137.588658 
L 92.563266 138.391718 
L 92.875356 140.066803 
L 92.979386 139.400343 
L 93.187446 133.318434 
L 93.915656 96.044293 
L 94.019686 96.315891 
L 94.331776 101.279887 
L 94.955956 110.57229 
L 95.476106 115.114 
L 95.788196 116.568997 
L 96.100286 117.010006 
L 96.308346 117.084558 
L 96.412376 116.995722 
L 96.620436 116.292758 
L 97.140586 113.911775 
L 97.244616 114.016139 
L 97.452676 114.902403 
L 98.388947 120.337488 
L 98.805067 121.307447 
L 99.117157 121.601104 
L 99.325217 121.626013 
L 99.533277 121.465096 
L 100.157457 120.66023 
L 100.365517 120.885248 
L 100.677607 121.375722 
L 100.781637 121.326345 
L 100.885667 121.012023 
L 101.093727 119.276423 
L 101.925967 108.401193 
L 102.029997 108.322921 
L 102.134027 108.822789 
L 102.342087 112.977255 
L 102.654177 129.615172 
L 103.382387 174.061952 
L 103.590447 178.390142 
L 103.798508 179.163748 
L 103.902538 178.796603 
L 104.110598 176.855432 
L 104.526718 172.546523 
L 104.734778 172.06933 
L 104.942838 171.699407 
L 105.150898 170.347359 
L 105.462988 168.256238 
L 105.567018 169.539286 
L 105.775078 177.350271 
L 106.087168 191.652747 
L 106.191198 192.787369 
L 106.295228 190.950956 
L 106.607318 172.73349 
L 106.919408 157.449243 
L 107.751648 129.967821 
L 108.271798 113.559019 
L 109.000008 92.317294 
L 109.104038 92.864144 
L 109.520158 97.454912 
L 109.624188 96.574363 
L 110.144339 87.201278 
L 110.248369 87.594865 
L 110.456429 90.969974 
L 111.496729 112.817226 
L 111.600759 113.514475 
L 111.704789 113.440761 
L 111.912849 110.363163 
L 112.537029 95.669429 
L 112.641059 96.0373 
L 113.369269 104.235596 
L 113.681359 110.203179 
L 114.617629 134.879225 
L 115.033749 137.168141 
L 115.553899 142.122092 
L 115.657929 142.253459 
L 115.865989 141.276303 
L 116.5942 136.257148 
L 117.01032 134.181171 
L 117.21838 130.83549 
L 117.84256 116.577167 
L 118.05062 115.357621 
L 118.25868 111.983613 
L 118.6748 104.389355 
L 118.77883 104.128345 
L 118.88286 104.646214 
L 119.09092 107.760972 
L 120.02719 127.604762 
L 120.33928 130.294252 
L 120.54734 130.73517 
L 120.7554 130.321584 
L 120.96346 129.866689 
L 121.06749 129.850535 
L 121.27555 130.301185 
L 121.58764 131.33177 
L 121.69167 131.34862 
L 121.7957 130.870435 
L 122.00376 127.314609 
L 122.41988 110.110018 
L 122.731971 102.60567 
L 122.836001 102.764767 
L 123.044061 105.913344 
L 123.668241 118.143005 
L 124.084361 121.906314 
L 124.500481 123.574389 
L 125.332721 125.734533 
L 125.436751 125.664851 
L 125.644811 124.5773 
L 126.164961 120.719378 
L 126.373021 120.574848 
L 126.477051 120.23182 
L 126.581081 119.125145 
L 126.789141 112.876541 
L 127.413321 81.64037 
L 127.517351 81.185298 
L 127.725411 85.249912 
L 128.557651 111.549208 
L 128.973772 116.350916 
L 129.389892 118.463221 
L 129.597952 118.927264 
L 129.701982 118.923375 
L 129.806012 118.62714 
L 130.014072 116.443292 
L 130.326162 107.880483 
L 130.534222 102.936975 
L 130.638252 102.266504 
L 130.742282 102.760868 
L 131.158402 106.908742 
L 131.262432 105.812143 
L 131.782582 94.997811 
L 131.990642 99.349524 
L 132.510792 114.553797 
L 133.134972 124.675471 
L 133.759152 129.811193 
L 133.967212 129.951146 
L 134.175272 129.424248 
L 134.383332 127.844286 
L 135.111543 119.975916 
L 135.215573 120.236653 
L 135.423633 122.443395 
L 135.735723 131.089507 
L 135.943783 136.057856 
L 136.047813 135.905061 
L 136.255873 130.400095 
L 136.567963 122.418533 
L 136.671993 121.971313 
L 136.776023 122.434333 
L 137.504233 128.877109 
L 137.608263 129.019044 
L 137.712293 128.788375 
L 137.920353 126.815957 
L 138.440503 119.466795 
L 138.544533 119.955777 
L 138.752593 124.121726 
L 140.313043 170.111299 
L 140.833193 184.250472 
L 141.457374 219.856728 
L 141.665434 212.480466 
L 142.081554 192.792448 
L 142.497674 181.961217 
L 143.017824 159.545548 
L 143.329914 155.726459 
L 143.642004 151.884794 
L 144.266184 142.424366 
L 144.682304 140.323371 
L 145.098424 138.979903 
L 145.618574 138.046721 
L 145.930664 136.260405 
L 146.346784 133.907011 
L 146.554844 133.687598 
L 146.762904 133.976609 
L 147.283054 135.507215 
L 147.803205 137.009626 
L 148.011265 137.084898 
L 148.115295 136.901388 
L 148.323355 135.627884 
L 148.531415 132.322796 
L 148.843505 125.959128 
L 148.947535 126.042417 
L 149.051565 128.714813 
L 149.259625 143.183209 
L 149.779775 187.156423 
L 149.883805 188.701127 
L 149.987835 188.055087 
L 150.299925 183.92962 
L 150.403955 184.313437 
L 150.820075 187.830735 
L 151.028135 187.258943 
L 151.236195 186.83393 
L 151.444255 186.993263 
L 151.860375 187.398132 
L 151.964405 187.75302 
L 152.172465 189.88996 
L 152.484555 198.500655 
L 152.900675 209.36364 
L 153.004705 209.8621 
L 153.108735 209.411745 
L 153.316795 205.926291 
L 154.253066 182.208629 
L 154.565156 180.196949 
L 154.981276 178.868655 
L 155.189336 178.791371 
L 155.293366 178.384923 
L 155.501426 175.135915 
L 157.061876 133.153887 
L 157.477996 128.139887 
L 157.790086 124.270238 
L 158.310236 117.135266 
L 158.518296 116.820785 
L 158.726356 117.444839 
L 159.142476 118.872945 
L 159.454566 119.163391 
L 159.662626 119.452193 
L 159.870686 120.517308 
L 160.286807 125.112234 
L 160.598897 127.417238 
L 160.702927 127.516475 
L 161.223077 127.039547 
L 161.743227 127.233913 
L 161.951287 126.841862 
L 162.367407 125.909438 
L 162.783527 125.677652 
L 162.991587 124.87067 
L 163.615767 120.150372 
L 164.135917 116.344188 
L 164.343977 116.205576 
L 164.448007 116.223819 
L 164.552037 116.068724 
L 164.864127 114.660589 
L 164.968157 115.011733 
L 165.176217 119.739034 
L 166.112487 157.460486 
L 166.216518 158.053162 
L 166.320548 157.40206 
L 166.736668 150.134262 
L 166.840698 151.125179 
L 167.048758 162.816149 
L 167.672938 222.051525 
L 167.776968 221.685503 
L 167.985028 210.40575 
L 168.921298 133.62704 
L 169.025328 133.201554 
L 169.233388 133.778289 
L 169.857568 136.174521 
L 170.065628 138.926343 
L 170.689808 149.627024 
L 171.209958 152.667139 
L 171.418018 153.372723 
L 171.522048 153.258082 
L 171.730108 151.322326 
L 172.042198 143.735424 
L 172.458319 134.126938 
L 172.666379 132.644456 
L 172.770409 132.593699 
L 173.082499 132.993393 
L 173.186529 132.540136 
L 173.394589 129.841446 
L 173.914739 120.712388 
L 174.018769 120.309139 
L 174.122799 120.445164 
L 174.330859 121.806206 
L 175.059069 127.827085 
L 175.475189 129.45654 
L 175.787279 129.859912 
L 176.203399 130.039953 
L 178.388029 129.699179 
L 178.70012 129.443354 
L 179.11624 129.006972 
L 179.3243 128.985199 
L 179.53236 129.146863 
L 179.94848 129.633868 
L 180.05251 129.562992 
L 180.26057 128.813385 
L 180.57266 126.083326 
L 180.98878 123.02551 
L 181.19684 122.868159 
L 181.4049 123.444034 
L 181.61296 124.694275 
L 181.92505 128.348678 
L 182.34117 133.797576 
L 182.4452 134.121523 
L 182.54923 133.723916 
L 182.75729 130.877197 
L 183.17341 124.010891 
L 183.27744 123.723687 
L 183.38147 124.207091 
L 183.90162 129.125658 
L 184.00565 129.085307 
L 184.21371 128.673399 
L 184.31774 128.721218 
L 184.5258 129.759218 
L 185.254011 135.379122 
L 185.462071 135.651148 
L 185.566101 135.58517 
L 185.774161 134.722958 
L 185.982221 132.257862 
L 186.814461 118.749109 
L 187.126551 113.793159 
L 187.438641 108.955059 
L 187.646701 108.277183 
L 187.854761 109.694232 
L 188.687001 118.231883 
L 189.103121 119.602333 
L 189.311181 119.895478 
L 189.415211 119.879686 
L 189.623271 119.375094 
L 190.247451 116.264915 
L 190.351481 116.571696 
L 190.559541 118.924051 
L 191.287752 132.504186 
L 191.391782 132.15938 
L 191.599842 127.976161 
L 191.911932 121.264446 
L 192.015962 120.967541 
L 192.224022 122.547061 
L 192.952232 130.275886 
L 193.368352 132.205584 
L 193.888502 133.768916 
L 194.408652 134.65221 
L 194.928802 135.140023 
L 195.032832 135.066652 
L 195.240892 134.445781 
L 195.552982 132.096317 
L 195.969102 128.707464 
L 196.177162 128.230405 
L 196.489252 128.381514 
L 196.697312 127.859239 
L 197.217462 125.682439 
L 197.321492 125.678837 
L 197.529553 126.141315 
L 198.153733 127.919541 
L 198.673883 128.984213 
L 199.090003 129.246049 
L 200.026273 129.690268 
L 200.338363 129.641186 
L 200.546423 129.343987 
L 200.754483 128.309819 
L 201.586723 121.495108 
L 201.690753 121.574585 
L 201.898813 122.247086 
L 203.251203 128.75352 
L 203.459263 129.765663 
L 203.563293 129.606583 
L 203.771354 127.499429 
L 204.395534 117.961445 
L 204.603594 117.758151 
L 204.811654 117.796642 
L 205.123744 117.588905 
L 205.331804 117.832805 
L 205.955984 118.914838 
L 206.996284 120.241942 
L 207.100314 120.190968 
L 207.308374 119.486564 
L 207.516434 117.589993 
L 208.036584 111.77854 
L 208.140614 111.515414 
L 208.244644 111.612257 
L 208.452704 112.53998 
L 208.972854 115.465052 
L 209.180914 115.796315 
L 209.284944 115.652794 
L 209.597034 114.304124 
L 209.909125 113.189697 
L 210.117185 112.976625 
L 210.429275 113.02284 
L 211.261515 113.385748 
L 211.677635 113.210174 
L 212.405845 112.785112 
L 212.613905 112.711924 
L 212.717935 112.474479 
L 212.925995 110.707389 
L 213.134055 106.137584 
L 213.654205 91.167133 
L 213.862265 89.94294 
L 214.070325 91.749894 
L 214.902565 102.956725 
L 215.110625 103.536538 
L 215.318685 103.145215 
L 215.526745 102.653476 
L 215.630775 102.634854 
L 215.838835 103.179391 
L 216.775106 107.205813 
L 217.191226 107.858764 
L 217.711376 108.662253 
L 218.335556 109.59966 
L 218.751676 109.761843 
L 219.063766 109.675833 
L 219.271826 109.252586 
L 219.479886 108.07679 
L 220.208096 102.471092 
L 220.312126 102.431582 
L 220.624216 102.850314 
L 221.248396 104.085438 
L 221.872576 105.310043 
L 221.976606 105.27103 
L 222.080636 105.007386 
L 222.288696 103.094389 
L 222.496757 97.966066 
L 223.120937 78.376524 
L 223.224967 78.116911 
L 223.433027 80.096221 
L 224.265267 92.778158 
L 224.681387 95.30643 
L 224.889447 95.492773 
L 225.097507 94.591155 
L 225.721687 90.568556 
L 225.825717 90.530342 
L 226.033777 90.984634 
L 226.970047 94.403628 
L 227.178107 94.594637 
L 227.490197 94.465173 
L 227.802287 94.126416 
L 228.010347 93.362865 
L 228.322437 90.630292 
L 228.842588 85.735404 
L 228.946618 85.471417 
L 229.050648 85.512034 
L 229.258708 86.295758 
L 229.570798 88.557086 
L 229.882888 93.081926 
L 230.715128 109.267514 
L 230.923188 110.578307 
L 231.027218 110.659554 
L 231.131248 110.304604 
L 231.547368 107.18737 
L 231.651398 107.359891 
L 231.859458 109.746617 
L 232.587668 121.651715 
L 233.003788 124.930201 
L 233.315878 126.023585 
L 233.523938 126.16528 
L 233.627968 126.471184 
L 233.836028 128.520893 
L 234.564238 139.817793 
L 234.980359 140.759302 
L 235.084389 140.700649 
L 236.020659 138.729808 
L 236.228719 138.64219 
L 236.644839 138.610698 
L 236.852899 138.31475 
L 237.164989 137.166772 
L 237.477079 135.122155 
L 237.789169 131.293496 
L 238.101259 123.77712 
L 238.725439 103.914564 
L 238.933499 102.783071 
L 239.141559 103.608932 
L 239.557679 105.542584 
L 239.765739 105.757103 
L 239.869769 105.716971 
L 239.973799 105.463159 
L 240.077829 104.750709 
L 240.285889 100.721541 
L 240.910069 79.502675 
L 241.014099 79.437732 
L 241.22216 82.898866 
L 242.0544 103.877074 
L 242.47052 108.347433 
L 242.67858 109.045035 
L 243.0947 109.337883 
L 243.51082 110.673646 
L 244.135 112.272914 
L 244.34306 112.358382 
L 244.44709 112.099304 
L 244.65515 110.576321 
L 244.96724 105.185779 
L 245.38336 96.959285 
L 245.59142 95.894637 
L 245.69545 96.18068 
L 245.90351 97.835315 
L 247.04784 109.877469 
L 247.567991 112.151785 
L 248.088141 113.505442 
L 248.712321 114.486498 
L 249.024411 114.824441 
L 249.232471 114.772607 
L 249.440531 114.516426 
L 249.648591 113.892687 
L 249.856651 112.463068 
L 250.480831 107.308478 
L 250.584861 107.22961 
L 250.792921 107.821028 
L 251.105011 108.832308 
L 251.209041 108.463783 
L 251.417101 105.309272 
L 251.833221 89.919716 
L 252.145311 82.966841 
L 252.249341 83.136449 
L 252.457401 86.227417 
L 253.185611 100.27199 
L 253.601732 103.786243 
L 254.121882 105.832125 
L 254.329942 106.183556 
L 254.433972 106.045439 
L 254.642032 104.691794 
L 255.266212 98.048829 
L 255.370242 98.175215 
L 255.578302 99.506688 
L 255.994422 102.471327 
L 256.098452 102.521442 
L 256.306512 101.490755 
L 256.722632 98.695878 
L 256.826662 98.629918 
L 257.034722 99.319561 
L 258.075022 104.866659 
L 258.907262 107.088846 
L 259.115322 107.108519 
L 259.323382 106.490666 
L 259.843533 104.332129 
L 259.947563 104.326517 
L 260.155623 104.772802 
L 260.987863 107.259265 
L 262.132193 108.828755 
L 262.444283 108.875308 
L 262.652343 108.708024 
L 262.964433 108.027015 
L 263.484583 106.81359 
L 263.692643 106.818825 
L 264.004733 106.985879 
L 264.108763 106.682956 
L 264.316823 104.485976 
L 264.628913 96.440141 
L 265.045033 87.153497 
L 265.149063 86.563841 
L 265.253093 86.630361 
L 265.461153 88.208105 
L 266.501454 99.4036 
L 266.917574 101.368681 
L 267.333694 102.284782 
L 267.541754 102.417932 
L 267.645784 102.327725 
L 267.749814 101.980265 
L 267.957874 99.667734 
L 268.269964 90.31367 
L 268.686084 78.769997 
L 268.790114 78.434206 
L 268.894144 79.113531 
L 269.206234 84.544468 
L 269.726384 93.145816 
L 270.246534 97.848438 
L 270.558624 99.00101 
L 270.662654 99.000709 
L 270.870714 98.583252 
L 271.182804 97.905864 
L 271.286834 97.905221 
L 271.494894 98.317758 
L 272.015044 99.890587 
L 272.223105 99.984555 
L 272.535195 99.986144 
L 272.743255 100.329738 
L 273.887585 103.353726 
L 274.095645 103.222109 
L 274.615795 102.33941 
L 274.823855 102.635156 
L 275.968185 105.0435 
L 277.008485 106.781655 
L 277.320575 107.631551 
L 277.424605 107.641892 
L 277.632665 107.121723 
L 278.048785 105.681414 
L 278.256845 105.493871 
L 278.464906 105.576904 
L 279.089086 105.999812 
L 279.297146 105.879602 
L 279.505206 105.373175 
L 279.817296 103.341205 
L 280.233416 100.450526 
L 280.441476 100.076987 
L 280.649536 100.29698 
L 281.065656 101.223703 
L 281.169686 101.047624 
L 281.273716 100.299236 
L 281.481776 95.911869 
L 282.209986 68.889456 
L 282.314016 69.012618 
L 282.522076 72.291945 
L 283.354316 89.712677 
L 283.770436 93.841567 
L 283.978496 94.676036 
L 284.082526 94.752476 
L 284.290586 94.370207 
L 285.018797 91.646194 
L 285.226857 92.214972 
L 285.747007 93.942217 
L 285.851037 93.925034 
L 286.059097 93.298718 
L 286.579247 90.383762 
L 286.995367 87.612813 
L 287.099397 87.539167 
L 287.307457 88.225114 
L 288.659847 95.601721 
L 288.763877 95.700808 
L 288.867907 95.641653 
L 289.075967 94.995234 
L 289.388057 92.847041 
L 289.804177 87.710557 
L 290.220297 83.095557 
L 290.324327 82.961033 
L 290.428357 83.287435 
L 290.740447 85.944999 
L 291.260598 90.107999 
L 291.884778 92.881858 
L 292.508958 94.912169 
L 293.029108 95.667886 
L 293.133138 95.662625 
L 293.237168 95.480611 
L 293.445228 94.202468 
L 293.653288 91.10593 
L 294.381498 77.24656 
L 294.589558 76.488565 
L 294.693588 75.43289 
L 294.901648 69.32845 
L 295.525828 39.085303 
L 295.629858 38.662457 
L 295.837918 41.657194 
L 296.358068 57.681027 
L 296.670158 65.243069 
L 296.774188 65.757642 
L 296.878218 64.98264 
L 297.398369 56.084903 
L 297.502399 56.313196 
L 297.710459 59.404559 
L 298.542699 77.678646 
L 298.646729 77.482687 
L 298.854789 74.157372 
L 299.374939 62.926297 
L 299.478969 62.717881 
L 299.687029 64.051282 
L 299.999119 68.603555 
L 301.143449 92.069794 
L 301.871659 103.404022 
L 302.287779 106.118105 
L 302.703899 107.33945 
L 303.120019 108.040146 
L 303.328079 108.117794 
L 303.53614 107.829431 
L 303.84823 106.478298 
L 304.16032 105.296263 
L 304.26435 105.270082 
L 304.47241 105.762722 
L 305.09659 107.846505 
L 305.30465 108.016175 
L 305.51271 107.740721 
L 306.03286 106.23036 
L 306.13689 106.253077 
L 306.55301 106.923525 
L 306.65704 106.741674 
L 306.8651 105.325186 
L 307.48928 99.233424 
L 307.59331 99.280762 
L 307.80137 100.129621 
L 308.11346 101.545734 
L 308.21749 101.629605 
L 308.32152 101.37662 
L 308.52958 99.797629 
L 309.04973 94.441597 
L 309.15376 94.205905 
L 309.25779 94.378271 
L 309.46585 95.682733 
L 310.402121 103.194299 
L 310.818241 104.758057 
L 311.130331 105.226637 
L 311.338391 105.36 
L 311.442421 105.332583 
L 311.650481 104.830302 
L 311.962571 102.508242 
L 312.274661 100.137475 
L 312.482721 99.656466 
L 312.586751 99.708027 
L 312.794811 100.227888 
L 313.835111 104.121349 
L 314.147201 104.443817 
L 314.355261 104.438512 
L 314.459291 104.254812 
L 314.667351 102.930468 
L 314.875411 99.375481 
L 315.603621 82.165877 
L 315.707651 82.423578 
L 316.123772 85.592029 
L 316.227802 84.872519 
L 316.435862 81.113942 
L 316.747952 70.379859 
L 317.476162 38.117888 
L 317.580192 38.085455 
L 317.788252 41.46823 
L 318.828552 68.230542 
L 319.556762 74.925051 
L 320.180942 79.81454 
L 320.493032 84.562283 
L 320.805122 90.272866 
L 320.909152 90.308005 
L 321.013182 87.74812 
L 321.325272 65.416649 
L 321.533332 52.944713 
L 321.637362 51.126827 
L 321.741392 51.976892 
L 322.573633 70.838625 
L 322.885723 72.724455 
L 323.093783 76.939366 
L 323.509903 86.381246 
L 323.613933 85.537466 
L 324.134083 74.048667 
L 324.342143 76.519581 
L 324.654233 80.526124 
L 324.966323 83.981999 
L 325.278413 87.571901 
L 325.382443 87.434791 
L 325.798563 85.352368 
L 325.902593 85.635341 
L 326.110653 87.54697 
L 326.318713 91.987729 
L 326.942893 111.11375 
L 327.150953 111.781852 
L 327.254983 111.869692 
L 327.463043 112.735604 
L 327.775133 116.502708 
L 328.399314 125.200666 
L 328.711404 126.801506 
L 329.023494 127.791477 
L 329.439614 130.579311 
L 329.751704 134.043707 
L 330.687974 150.580704 
L 331.000064 151.362892 
L 331.104094 151.384138 
L 331.312154 151.068685 
L 331.624244 149.8103 
L 332.144394 146.817427 
L 332.248424 146.769224 
L 332.456484 147.312437 
L 332.768574 148.000704 
L 332.976634 148.23018 
L 333.288724 149.571981 
L 333.392754 149.392424 
L 333.912904 145.288248 
L 334.329024 146.61311 
L 334.745145 145.394158 
L 334.953205 146.379528 
L 335.265295 148.367902 
L 335.473355 148.539253 
L 335.785445 147.682477 
L 336.097535 147.042342 
L 336.409625 147.019928 
L 337.137835 147.114323 
L 337.553955 147.650455 
L 338.178135 148.486766 
L 340.882916 150.035259 
L 341.195006 149.874844 
L 341.819186 149.221322 
L 342.027246 149.071145 
L 342.547396 148.074497 
L 342.651426 148.171944 
L 343.067546 148.831322 
L 343.483666 148.453625 
L 343.691726 148.844663 
L 344.419936 151.474923 
L 344.627996 151.593396 
L 344.940086 151.469315 
L 345.252176 151.000223 
L 345.564266 150.613446 
L 345.876356 150.587026 
L 345.980386 150.667094 
L 346.188446 151.353912 
L 346.396506 153.237379 
L 346.916656 159.501652 
L 347.020686 159.440138 
L 347.228747 157.756081 
L 347.644867 154.026171 
L 347.852927 153.273623 
L 348.060987 153.2048 
L 348.373077 153.809907 
L 348.581137 154.135558 
L 348.789197 154.093484 
L 349.101287 153.790794 
L 349.309347 153.177272 
L 350.349647 147.550869 
L 350.973827 139.649808 
L 351.077857 139.622993 
L 351.285917 140.879309 
L 352.222187 149.698088 
L 352.638307 151.135619 
L 353.054427 151.9898 
L 353.262487 152.009912 
L 353.574578 151.442251 
L 353.886668 151.012846 
L 354.094728 151.125267 
L 354.406818 151.80924 
L 355.135028 153.735264 
L 355.447118 154.155052 
L 355.655178 154.215521 
L 355.863238 154.057819 
L 356.175328 153.443881 
L 356.383388 152.669863 
L 356.695478 150.122765 
L 357.215628 143.472724 
L 357.527718 133.558185 
L 357.943838 117.595437 
L 358.151898 115.169602 
L 358.255928 115.455554 
L 358.568018 119.02 
L 359.296228 127.32872 
L 359.816379 130.738676 
L 360.440559 134.496566 
L 360.648619 134.800003 
L 361.168769 134.484633 
L 361.376829 134.325845 
L 361.688919 133.693435 
L 362.105039 132.644641 
L 362.313099 131.390579 
L 363.145339 124.51026 
L 363.457429 123.771646 
L 363.665489 122.31479 
L 364.081609 118.919613 
L 364.185639 118.85305 
L 364.393699 119.649474 
L 365.017879 122.919813 
L 365.329969 123.926742 
L 365.642059 126.23161 
L 366.37027 132.317895 
L 366.78639 134.957191 
L 367.20251 136.128321 
L 368.13878 137.970063 
L 368.24281 137.986775 
L 368.45087 137.661541 
L 368.86699 136.78801 
L 369.07505 137.180271 
L 369.90729 139.637786 
L 370.73953 141.139688 
L 371.36371 142.62468 
L 371.46774 142.465421 
L 371.6758 140.937614 
L 371.98789 135.32117 
L 372.299981 130.055574 
L 372.508041 129.08272 
L 372.612071 129.314036 
L 372.924161 131.513717 
L 373.340281 134.401557 
L 374.484611 138.439029 
L 374.900731 139.278811 
L 376.981331 142.421876 
L 377.293421 142.830119 
L 377.605511 142.809332 
L 378.021631 142.753902 
L 378.541782 142.888374 
L 378.853872 143.30098 
L 379.374022 143.99108 
L 379.894172 144.501603 
L 380.518352 145.16067 
L 381.142532 145.505259 
L 381.350592 145.310519 
L 381.558652 144.739945 
L 381.870742 142.924327 
L 382.390892 139.682484 
L 382.598952 139.280296 
L 382.807012 139.282983 
L 383.015072 139.435184 
L 383.119102 139.369317 
L 383.327162 138.589249 
L 383.847312 135.517005 
L 384.055372 135.399962 
L 384.263432 135.80998 
L 384.575523 136.923427 
L 384.887613 139.14009 
L 385.199703 142.012209 
L 385.303733 141.931454 
L 385.511793 139.012527 
L 386.031943 128.320158 
L 386.240003 127.617368 
L 386.344033 127.412646 
L 386.448063 126.652947 
L 386.656123 122.598331 
L 387.072243 112.370535 
L 387.280303 110.64729 
L 387.384333 110.651714 
L 387.592393 111.81186 
L 388.840753 122.422236 
L 389.360903 124.729178 
L 389.881053 125.906487 
L 390.193143 126.306073 
L 390.401203 126.312906 
L 390.713293 126.171872 
L 390.921354 126.336232 
L 391.233444 127.162708 
L 391.961654 129.509556 
L 392.897924 131.577877 
L 393.210014 132.668552 
L 393.314044 132.661338 
L 393.522104 131.785078 
L 393.938224 129.619675 
L 394.146284 129.175416 
L 394.250314 129.134563 
L 394.354344 129.287559 
L 394.562404 130.31027 
L 394.978524 132.642933 
L 395.498674 133.627331 
L 396.538974 135.640658 
L 397.059125 136.41802 
L 397.371215 136.554709 
L 397.891365 136.525182 
L 398.411515 135.816329 
L 398.619575 136.305333 
L 399.035695 137.845799 
L 399.243755 137.898858 
L 399.555845 137.703126 
L 400.596145 138.093513 
L 401.012265 138.629445 
L 401.844505 139.023266 
L 402.156595 139.404036 
L 402.260625 139.380296 
L 402.780775 138.657655 
L 403.092865 139.037096 
L 403.404956 139.291935 
L 403.613016 139.41231 
L 403.925106 140.112669 
L 404.341226 140.947805 
L 404.861376 141.397844 
L 405.069436 141.222572 
L 405.381526 140.932549 
L 405.589586 141.085646 
L 406.317796 141.898257 
L 407.046006 142.504475 
L 407.254066 142.280437 
L 407.462126 141.527471 
L 407.982276 139.317492 
L 408.294366 138.924196 
L 408.502426 138.063735 
L 408.814516 135.233251 
L 409.126606 132.557842 
L 409.230636 132.250253 
L 409.334666 132.333091 
L 409.542727 133.475188 
L 409.958847 136.139333 
L 410.895117 139.176457 
L 411.311237 140.101726 
L 411.519297 140.532152 
L 411.727357 141.810187 
L 411.935417 143.360783 
L 412.039447 143.482865 
L 412.247507 141.600008 
L 412.663627 136.730084 
L 412.871687 136.455449 
L 413.391837 137.188065 
L 413.911987 138.035752 
L 414.120047 137.477692 
L 414.432137 136.235912 
L 414.536167 136.211291 
L 414.744227 136.999246 
L 415.056317 139.747004 
L 415.368407 142.182446 
L 415.472437 142.108749 
L 415.680497 140.250377 
L 416.200648 133.509371 
L 416.512738 131.933942 
L 416.824828 131.187484 
L 417.032888 131.106371 
L 417.240948 131.481771 
L 417.761098 133.465464 
L 418.177218 134.774007 
L 418.593338 135.703471 
L 419.217518 137.511077 
L 419.841698 138.663773 
L 420.153788 138.873776 
L 420.361848 138.760333 
L 420.673938 138.066824 
L 421.090058 137.209672 
L 421.298118 137.258044 
L 422.026329 138.206835 
L 422.442449 139.199215 
L 422.962599 140.308719 
L 423.898869 141.580939 
L 424.210959 141.900368 
L 425.043199 142.064816 
L 425.979469 141.161787 
L 426.187529 140.774312 
L 426.499619 139.270376 
L 426.915739 136.90454 
L 427.123799 136.648395 
L 427.331859 137.094238 
L 428.37216 140.660444 
L 428.68425 140.913357 
L 429.2044 140.938398 
L 429.62052 141.372949 
L 431.285 143.868016 
L 431.285 143.868016 
" clip-path="url(#p9d84ed5f1e)" style="fill: none; stroke-dasharray: 1.85,0.8; stroke-dashoffset: 0; stroke: #1f77b4; stroke-width: 0.5"/>
   </g>
   <g id="line2d_34">
    <path d="M 56.985 104.534076 
L 57.29709 105.347906 
L 57.71321 107.392992 
L 58.33739 112.058506 
L 59.37769 122.211461 
L 60.626051 133.965333 
L 61.250231 137.886178 
L 61.666351 139.370275 
L 61.978441 139.946547 
L 62.290531 140.125873 
L 62.602621 139.965109 
L 63.018741 139.319991 
L 63.538891 138.010805 
L 65.515461 132.418986 
L 65.931581 131.923783 
L 66.347702 131.724324 
L 66.763822 131.769481 
L 67.283972 132.092029 
L 68.012182 132.861375 
L 69.468602 134.494528 
L 70.092782 134.842315 
L 70.820992 134.958103 
L 71.757262 134.840267 
L 73.213683 134.64646 
L 73.941893 134.808805 
L 74.982193 135.361258 
L 76.022493 135.863324 
L 76.646673 135.936146 
L 77.166823 135.77146 
L 77.686973 135.336432 
L 78.207123 134.588093 
L 80.287724 131.190158 
L 80.703844 131.058829 
L 81.015934 131.207744 
L 81.328024 131.609197 
L 81.744144 132.600257 
L 82.160264 134.18777 
L 82.784444 137.590294 
L 83.824744 144.802999 
L 85.073105 153.239794 
L 85.697285 156.238722 
L 86.113405 157.457485 
L 86.425495 157.876196 
L 86.633555 157.932777 
L 86.945645 157.721143 
L 87.257735 157.198504 
L 87.777885 155.773213 
L 88.506095 153.005946 
L 90.066545 146.815895 
L 90.586695 145.50012 
L 91.106845 144.695192 
L 91.731026 144.13765 
L 92.771326 143.337923 
L 93.291476 142.595415 
L 93.811626 141.36838 
L 94.331776 139.464748 
L 94.955956 136.11175 
L 97.140586 123.18698 
L 97.556707 122.173272 
L 97.764767 122.013474 
L 97.972827 122.119274 
L 98.180887 122.516344 
L 98.492977 123.714232 
L 98.909097 126.545538 
L 99.429247 131.929792 
L 100.157457 142.235613 
L 101.197757 160.677711 
L 103.590447 204.461954 
L 104.422688 215.274577 
L 105.046868 220.536466 
L 105.462988 222.382473 
L 105.671048 222.745714 
L 105.879108 222.708588 
L 106.087168 222.250698 
L 106.399258 220.730316 
L 106.815378 217.040114 
L 107.335528 209.619555 
L 108.063738 195.091893 
L 110.768519 136.281268 
L 111.288669 130.844012 
L 111.600759 129.20605 
L 111.912849 128.634797 
L 112.120909 128.776498 
L 112.328969 129.287174 
L 112.641059 130.653038 
L 113.161209 134.178686 
L 114.097479 142.583506 
L 115.033749 150.371267 
L 115.553899 153.049966 
L 115.970019 154.118143 
L 116.28211 154.373957 
L 116.49017 154.315193 
L 116.80226 153.92358 
L 117.21838 152.919991 
L 117.84256 150.646158 
L 120.44331 139.978456 
L 121.37958 137.629368 
L 122.731971 134.935689 
L 123.980331 132.305071 
L 125.540781 128.897977 
L 126.164961 128.02689 
L 126.581081 127.740045 
L 126.893171 127.716811 
L 127.205261 127.88286 
L 127.621381 128.437274 
L 128.037501 129.410274 
L 128.661681 131.501305 
L 130.846312 139.520055 
L 131.262432 140.241849 
L 131.574522 140.437798 
L 131.782582 140.376983 
L 132.094672 139.968996 
L 132.510792 138.954408 
L 133.759152 135.463639 
L 134.071242 135.137744 
L 134.279302 135.17154 
L 134.487362 135.448861 
L 134.799452 136.401467 
L 135.111543 138.107758 
L 135.527663 141.76859 
L 136.047813 148.983286 
L 136.671993 161.845589 
L 137.608263 186.988425 
L 139.480803 238.492952 
L 140.104983 250.144069 
L 140.625133 255.899548 
L 141.041253 257.999719 
L 141.249314 258.329933 
L 141.457374 258.235928 
L 141.665434 257.759472 
L 141.977524 256.419064 
L 142.497674 252.864539 
L 143.329914 245.19199 
L 144.474244 235.017479 
L 145.098424 231.532528 
L 145.618574 229.872124 
L 146.034694 229.285571 
L 146.346784 229.244613 
L 146.658874 229.521519 
L 147.074994 230.34769 
L 147.595145 232.042506 
L 148.219325 234.914814 
L 149.155595 240.494782 
L 150.195895 246.541199 
L 150.716045 248.562726 
L 151.028135 249.228258 
L 151.236195 249.39136 
L 151.444255 249.300587 
L 151.652315 248.930733 
L 151.964405 247.79754 
L 152.380525 245.074589 
L 152.796645 240.781626 
L 153.420825 231.382692 
L 154.253066 214.73493 
L 157.373966 147.481498 
L 158.102176 138.131188 
L 158.726356 132.757892 
L 159.246506 130.107096 
L 159.558596 129.301794 
L 159.766656 129.088499 
L 159.974717 129.132056 
L 160.182777 129.430746 
L 160.494867 130.353391 
L 160.910987 132.460495 
L 161.431137 136.483737 
L 162.055317 143.306055 
L 162.783527 153.939969 
L 163.615767 169.503964 
L 164.552037 191.193509 
L 165.696367 223.290803 
L 167.360848 270.12311 
L 167.985028 282.580456 
L 168.505178 289.04225 
L 168.817268 290.803533 
L 169.025328 290.975446 
L 169.233388 290.277948 
L 169.545478 287.491596 
L 169.961598 280.740697 
L 170.481748 268.280912 
L 171.313988 241.860231 
L 173.602649 164.740832 
L 174.226829 151.450528 
L 174.851009 142.400438 
L 175.371159 137.555484 
L 175.891309 134.698185 
L 176.307429 133.551157 
L 176.619519 133.209042 
L 176.931609 133.206668 
L 177.243699 133.45008 
L 177.867879 134.301672 
L 181.19684 139.144764 
L 181.92505 139.707583 
L 182.54923 139.932182 
L 183.38147 139.974249 
L 185.462071 139.918904 
L 186.086251 140.171389 
L 186.814461 140.737292 
L 188.166851 142.164638 
L 189.207151 143.137153 
L 189.831331 143.483348 
L 190.351481 143.559688 
L 190.871631 143.418509 
L 191.495812 142.983452 
L 192.224022 142.147344 
L 193.056262 140.816579 
L 194.096562 138.693933 
L 197.529553 131.13182 
L 198.153733 130.42333 
L 198.673883 130.15775 
L 199.194033 130.187634 
L 199.818213 130.507976 
L 200.858513 131.378097 
L 201.794783 132.070858 
L 202.314933 132.242023 
L 202.731053 132.20089 
L 203.251203 131.893194 
L 203.875384 131.190669 
L 204.603594 129.993275 
L 205.643894 127.772122 
L 207.932554 122.099932 
L 209.805094 117.803311 
L 211.053455 115.472856 
L 212.093755 113.97831 
L 213.134055 112.841136 
L 214.278385 111.913009 
L 215.630775 111.120031 
L 217.087196 110.522371 
L 218.647646 110.135333 
L 221.144366 109.610352 
L 221.768546 109.150429 
L 222.392727 108.396757 
L 223.016907 107.267558 
L 223.641087 105.682739 
L 224.681387 102.281871 
L 225.825717 98.767001 
L 226.449897 97.551599 
L 226.866017 97.200153 
L 227.178107 97.237124 
L 227.490197 97.571057 
L 227.802287 98.235055 
L 228.218407 99.623254 
L 228.842588 102.653724 
L 229.674828 108.129812 
L 230.819158 117.471272 
L 233.523938 140.37543 
L 234.252148 144.617101 
L 234.772298 146.616808 
L 235.188419 147.463751 
L 235.500509 147.600843 
L 235.708569 147.433979 
L 236.020659 146.768216 
L 236.436779 145.127505 
L 237.060959 141.388288 
L 237.997229 134.045099 
L 239.453649 122.641194 
L 240.077829 119.309497 
L 240.493949 117.989198 
L 240.910069 117.337198 
L 241.22216 117.2165 
L 241.53425 117.356737 
L 241.95037 117.864442 
L 242.57455 119.075995 
L 243.92694 121.825392 
L 244.34306 122.229843 
L 244.65515 122.296633 
L 245.07127 122.107059 
L 245.59142 121.5061 
L 246.31963 120.193875 
L 248.400231 116.099168 
L 248.920381 115.584925 
L 249.544561 115.29513 
L 250.272771 115.234791 
L 251.625161 115.200226 
L 252.145311 114.975412 
L 252.665461 114.511265 
L 253.289641 113.599064 
L 254.225912 111.769398 
L 255.786362 108.677789 
L 256.410542 107.842236 
L 256.930692 107.477068 
L 257.346812 107.419731 
L 257.866962 107.582542 
L 258.595172 108.111449 
L 260.571743 109.759077 
L 261.091893 109.866698 
L 261.612043 109.743825 
L 262.236223 109.353051 
L 263.172493 108.438258 
L 265.253093 106.264185 
L 266.085334 105.767573 
L 267.125634 105.410531 
L 269.726384 104.650188 
L 271.911014 103.734543 
L 272.639225 103.705611 
L 273.263405 103.90073 
L 273.887585 104.34197 
L 274.823855 105.332894 
L 276.592365 107.265077 
L 277.216545 107.648386 
L 277.736695 107.738829 
L 278.256845 107.60424 
L 278.881026 107.200481 
L 279.713266 106.369604 
L 282.730136 103.045897 
L 284.290586 101.958944 
L 285.955067 100.746453 
L 287.515517 99.247429 
L 289.075967 97.838372 
L 290.012237 97.282694 
L 290.844477 97.052206 
L 292.612988 96.663103 
L 293.341198 96.205382 
L 293.965378 95.528109 
L 294.589558 94.516397 
L 296.566128 90.944789 
L 297.086278 90.549822 
L 297.398369 90.536851 
L 297.710459 90.727033 
L 298.022549 91.149123 
L 298.438669 92.122357 
L 298.958819 94.000668 
L 299.687029 97.529299 
L 302.079719 110.015771 
L 302.599869 111.594033 
L 303.015989 112.308897 
L 303.43211 112.593384 
L 303.7442 112.566373 
L 304.16032 112.265936 
L 304.68047 111.563747 
L 305.61674 109.798157 
L 306.65704 107.910205 
L 307.28122 107.201786 
L 307.9054 106.829373 
L 308.52958 106.720821 
L 309.25779 106.831423 
L 310.610181 107.338376 
L 311.650481 107.614883 
L 312.378691 107.568289 
L 313.002871 107.284878 
L 313.627051 106.711113 
L 314.251231 105.784836 
L 314.875411 104.44389 
L 315.603621 102.318207 
L 318.100342 94.423026 
L 318.620492 93.547339 
L 319.036612 93.239724 
L 319.348702 93.279364 
L 319.660792 93.552127 
L 320.076912 94.246538 
L 320.597062 95.584537 
L 321.325272 98.181878 
L 322.365573 102.931672 
L 324.654233 114.92962 
L 326.110653 123.513224 
L 327.359013 132.262928 
L 329.023494 146.002568 
L 330.167824 154.615235 
L 330.896034 158.713748 
L 331.416184 160.651643 
L 331.832304 161.472931 
L 332.144394 161.657141 
L 332.456484 161.51782 
L 332.768574 161.098632 
L 333.288724 159.896647 
L 334.016934 157.496449 
L 335.785445 151.371759 
L 336.409625 150.145078 
L 336.929775 149.582827 
L 337.449925 149.346395 
L 337.970075 149.349205 
L 338.802315 149.635235 
L 339.946645 150.015281 
L 340.674855 149.947565 
L 342.131276 149.701419 
L 342.651426 149.855593 
L 343.171576 150.272172 
L 343.691726 151.035526 
L 344.211876 152.230025 
L 344.940086 154.623866 
L 347.540837 164.036611 
L 348.060987 164.905794 
L 348.373077 165.097456 
L 348.685167 165.025082 
L 348.997257 164.720089 
L 349.413377 164.010251 
L 350.037557 162.459258 
L 352.534277 155.549899 
L 353.054427 154.95443 
L 353.574578 154.701343 
L 354.198758 154.681852 
L 355.551148 154.761704 
L 356.071298 154.493818 
L 356.487418 154.034274 
L 357.007568 153.068758 
L 357.631748 151.378547 
L 358.463988 148.435475 
L 359.920409 142.250844 
L 361.584889 135.383895 
L 362.521159 132.418634 
L 363.145339 131.028561 
L 363.665489 130.317714 
L 364.081609 130.08565 
L 364.393699 130.128341 
L 364.705789 130.371366 
L 365.121909 131.027972 
L 365.642059 132.337931 
L 366.4743 135.209661 
L 368.5549 142.806212 
L 369.07505 143.959165 
L 369.49117 144.475199 
L 369.90729 144.661118 
L 370.32341 144.573161 
L 370.84356 144.163756 
L 371.57177 143.228437 
L 373.132221 141.106383 
L 373.652371 140.746749 
L 374.172521 140.629835 
L 374.796701 140.753 
L 375.524911 141.171644 
L 376.565211 142.072561 
L 378.437752 143.707996 
L 382.807012 146.842716 
L 383.431192 147.077342 
L 383.951342 147.04195 
L 384.367462 146.812869 
L 384.887613 146.217667 
L 385.407763 145.21497 
L 385.927913 143.737629 
L 386.656123 140.945905 
L 389.360903 129.708054 
L 389.881053 128.586325 
L 390.297173 128.164724 
L 390.609263 128.106874 
L 390.921354 128.242398 
L 391.337474 128.68024 
L 391.961654 129.766396 
L 392.897924 131.961784 
L 394.250314 135.084742 
L 395.082554 136.381338 
L 395.810764 137.137225 
L 396.643004 137.671972 
L 397.579275 137.991759 
L 401.428385 138.977712 
L 402.364655 139.565644 
L 403.508986 140.588027 
L 405.173466 142.068554 
L 406.005706 142.499347 
L 406.629886 142.572093 
L 407.254066 142.407517 
L 408.398396 141.803166 
L 409.334666 141.402149 
L 409.958847 141.373906 
L 410.478997 141.58692 
L 410.999147 142.075766 
L 411.727357 143.155698 
L 413.911987 146.742397 
L 414.432137 147.134908 
L 414.848257 147.185645 
L 415.264377 146.965419 
L 415.784528 146.362882 
L 416.512738 145.08127 
L 419.009458 140.251154 
L 419.529608 139.807396 
L 420.049758 139.636211 
L 420.569908 139.685872 
L 421.194088 139.964154 
L 422.234389 140.726373 
L 423.586779 141.68219 
L 424.627079 142.094035 
L 425.979469 142.351332 
L 428.58022 142.787611 
L 431.285 143.456159 
L 431.285 143.456159 
" clip-path="url(#p9d84ed5f1e)" style="fill: none; stroke: #ff7f0e; stroke-width: 0.5; stroke-linecap: square"/>
   </g>
   <g id="line2d_35">
    <path d="M 56.985 283.069727 
L 57.08903 283.069727 
L 57.19306 280.604245 
L 57.50515 283.262215 
L 57.71321 283.756242 
L 57.92127 283.864899 
L 58.33739 283.711806 
L 58.64948 283.545907 
L 58.75351 283.277561 
L 59.48172 278.443583 
L 60.209931 273.618265 
L 60.730081 271.525726 
L 61.562321 265.116299 
L 61.874411 263.258703 
L 61.978441 263.405777 
L 62.290531 265.478804 
L 62.706651 268.084853 
L 63.746951 272.797857 
L 64.579191 277.28061 
L 65.099341 278.999089 
L 66.243671 281.78737 
L 66.763822 282.376242 
L 67.388002 282.741222 
L 67.804122 282.812405 
L 68.012182 282.378042 
L 68.948452 279.459631 
L 69.468602 279.207752 
L 69.676662 279.248667 
L 69.988752 279.587281 
L 71.133082 281.211875 
L 71.965322 281.967967 
L 72.797563 282.166193 
L 73.629803 282.69662 
L 74.253983 282.84046 
L 76.022493 283.036131 
L 76.126523 282.971202 
L 76.334583 282.069 
L 76.542643 280.216595 
L 76.854733 274.946114 
L 77.270853 267.169755 
L 77.478913 266.074324 
L 77.582943 266.334666 
L 77.895033 268.739896 
L 78.207123 270.933715 
L 78.415183 271.434318 
L 78.519213 271.409337 
L 78.727273 270.946399 
L 79.039364 269.185503 
L 79.455484 266.403503 
L 79.663544 265.930666 
L 79.767574 265.960134 
L 79.975634 266.497244 
L 80.495784 269.269941 
L 81.119964 272.155843 
L 82.056234 275.479421 
L 82.264294 275.672486 
L 82.472354 275.459332 
L 82.784444 274.526619 
L 82.888474 274.697651 
L 83.200564 276.226063 
L 83.928774 279.862867 
L 84.136834 280.548163 
L 84.240864 280.354855 
L 84.448924 277.806645 
L 84.761014 268.840133 
L 85.281165 250.487653 
L 85.489225 249.217525 
L 85.697285 250.173115 
L 86.009375 251.34423 
L 86.113405 251.302771 
L 86.321465 250.519626 
L 86.633555 247.356858 
L 86.945645 244.564888 
L 87.049675 244.470596 
L 87.257735 245.053362 
L 87.569825 245.773864 
L 87.673855 245.70728 
L 87.881915 244.87673 
L 88.298035 240.752797 
L 88.506095 239.280375 
L 88.610125 239.10313 
L 88.714155 239.318417 
L 88.922215 240.67226 
L 89.546395 245.507329 
L 90.066545 249.050738 
L 90.482665 253.307915 
L 91.522966 272.592054 
L 91.939086 276.294367 
L 92.251176 276.842516 
L 92.875356 279.507155 
L 92.979386 279.362183 
L 93.187446 273.60281 
L 93.915656 238.080291 
L 94.019686 238.713481 
L 94.331776 244.903023 
L 95.059986 259.309095 
L 95.684166 267.978203 
L 96.204316 272.249213 
L 96.516406 273.75979 
L 96.724466 273.874345 
L 96.932526 273.37578 
L 97.036556 273.554073 
L 97.348646 275.272629 
L 98.076857 279.410964 
L 98.388947 280.231383 
L 98.597007 279.720425 
L 98.909097 277.985735 
L 99.325217 274.012213 
L 99.845367 266.537217 
L 100.989697 246.675592 
L 101.613877 225.465949 
L 102.029997 214.633286 
L 102.238057 212.244949 
L 102.342087 212.908796 
L 102.550147 220.005125 
L 103.382387 255.476245 
L 103.486417 257.287727 
L 103.590447 256.994942 
L 103.798508 254.781348 
L 104.214628 245.678138 
L 104.630748 237.973106 
L 105.150898 232.56339 
L 105.358958 228.450244 
L 105.462988 229.311483 
L 105.775078 238.851812 
L 106.191198 253.299028 
L 106.295228 253.050557 
L 107.127468 221.690867 
L 107.543588 215.336725 
L 108.063738 207.164508 
L 108.375828 205.516231 
L 108.791948 200.330585 
L 108.895978 200.783826 
L 109.104038 205.699407 
L 109.624188 221.743379 
L 109.728218 222.132963 
L 109.936278 221.694137 
L 110.040309 222.124213 
L 110.248369 225.760371 
L 110.768519 245.617783 
L 111.288669 261.92084 
L 111.600759 267.407252 
L 111.704789 267.619826 
L 111.808819 266.792308 
L 112.016879 261.893248 
L 112.432999 249.721267 
L 112.641059 248.476927 
L 113.265239 251.01054 
L 113.369269 251.008108 
L 113.577329 253.406975 
L 114.513599 270.743677 
L 114.617629 270.761518 
L 114.929719 269.818744 
L 115.033749 269.890394 
L 115.241809 270.848782 
L 115.553899 272.163785 
L 115.657929 271.942312 
L 115.865989 270.433344 
L 116.38614 266.222117 
L 116.80226 264.502711 
L 117.01032 263.78761 
L 117.21838 261.005431 
L 117.73853 249.482618 
L 117.94659 248.954681 
L 118.05062 248.697905 
L 118.25868 246.264601 
L 118.57077 241.187018 
L 118.77883 240.657829 
L 118.88286 241.594306 
L 119.19495 249.26915 
L 119.92316 267.259551 
L 120.33928 273.135516 
L 120.54734 274.135095 
L 120.7554 274.286623 
L 120.96346 274.361993 
L 121.17152 275.001584 
L 121.69167 277.4833 
L 121.7957 277.202544 
L 122.00376 274.07289 
L 122.41988 257.729852 
L 122.627941 251.386549 
L 122.731971 250.744581 
L 122.836001 251.50219 
L 123.148091 257.395485 
L 123.772271 269.563515 
L 124.188391 273.758388 
L 124.708541 276.53335 
L 125.436751 279.68515 
L 125.540781 279.466391 
L 125.748841 278.169137 
L 126.060931 276.018929 
L 126.268991 275.789924 
L 126.373021 275.808186 
L 126.477051 275.541602 
L 126.581081 274.473367 
L 126.789141 268.265782 
L 127.413321 236.222737 
L 127.517351 236.228132 
L 127.725411 240.540656 
L 128.557651 263.586577 
L 128.869742 266.26789 
L 129.181832 267.138666 
L 129.389892 267.117412 
L 129.597952 266.727294 
L 129.806012 265.591649 
L 130.014072 262.605471 
L 130.638252 246.364778 
L 130.742282 246.581236 
L 131.158402 249.909861 
L 131.366462 246.143878 
L 131.678552 237.680768 
L 131.782582 238.275017 
L 132.094672 246.082005 
L 132.822882 265.635803 
L 133.343032 273.566803 
L 133.759152 277.28019 
L 133.967212 277.842413 
L 134.071242 277.731131 
L 134.279302 276.715359 
L 134.591392 272.429258 
L 135.111543 264.732693 
L 135.215573 264.244845 
L 135.319603 264.615933 
L 135.631693 267.978061 
L 135.943783 271.56589 
L 136.047813 270.17565 
L 136.880053 239.56852 
L 137.296173 232.813503 
L 137.712293 221.858883 
L 138.232443 199.108459 
L 138.544533 188.703314 
L 138.752593 187.035173 
L 138.960653 188.224317 
L 139.376773 191.348535 
L 140.000953 198.642725 
L 140.104983 198.760089 
L 140.521103 201.117583 
L 140.729163 208.362518 
L 141.457374 244.333417 
L 141.561404 242.584066 
L 142.081554 220.075307 
L 142.393644 215.353769 
L 142.705734 203.379492 
L 143.017824 194.409136 
L 143.225884 193.506527 
L 143.433944 193.667108 
L 143.537974 193.428025 
L 143.746034 191.936164 
L 144.058124 189.318692 
L 144.266184 188.946912 
L 144.578274 189.536497 
L 145.514544 191.324571 
L 145.618574 191.265181 
L 145.826634 190.569835 
L 146.450814 187.506348 
L 146.658874 187.356105 
L 147.074994 187.579504 
L 147.491115 187.664415 
L 147.699175 187.451465 
L 147.907235 186.825821 
L 148.115295 185.617203 
L 148.323355 183.238937 
L 148.635445 175.968398 
L 148.843505 169.110562 
L 148.947535 169.404081 
L 149.155595 180.141218 
L 149.883805 227.250555 
L 150.403955 219.956631 
L 150.820075 222.091624 
L 151.236195 220.537144 
L 151.340225 220.580877 
L 151.652315 221.352654 
L 151.860375 222.234163 
L 152.068435 224.134892 
L 152.276495 229.577847 
L 153.004705 254.965652 
L 153.212765 256.316643 
L 153.316795 255.837426 
L 153.628885 251.789091 
L 153.940976 249.078362 
L 154.045006 249.081216 
L 154.253066 250.537891 
L 154.461126 253.497611 
L 155.397396 271.38752 
L 155.501426 272.409664 
L 155.605456 272.245067 
L 156.021576 268.732611 
L 156.229636 267.134088 
L 156.645756 263.825529 
L 157.061876 263.723994 
L 157.165906 263.772351 
L 157.373966 264.646162 
L 157.686056 265.898882 
L 157.894116 265.087822 
L 158.206206 263.902973 
L 158.310236 264.153543 
L 158.518296 265.628706 
L 159.246506 272.062998 
L 159.454566 272.483877 
L 159.766656 274.377877 
L 160.494867 278.986221 
L 160.702927 279.424109 
L 161.639197 271.860253 
L 162.055317 266.339782 
L 162.991587 250.466882 
L 163.719797 230.627949 
L 164.864127 198.378795 
L 165.072187 194.641413 
L 165.176217 194.811502 
L 165.384277 198.26977 
L 165.800397 205.65775 
L 165.904427 206.242058 
L 166.008457 206.077246 
L 166.216518 202.28572 
L 166.528608 188.841857 
L 166.736668 177.394382 
L 166.840698 177.493472 
L 167.048758 187.297917 
L 167.672938 227.919 
L 167.776968 226.085034 
L 167.985028 211.009328 
L 168.817268 127.545747 
L 169.025328 125.312109 
L 169.233388 126.586746 
L 169.649508 132.061221 
L 169.961598 139.654465 
L 170.585778 166.324073 
L 171.730108 207.460345 
L 172.042198 211.295175 
L 172.250258 213.131432 
L 172.458319 216.750064 
L 172.874439 229.724034 
L 173.290559 241.389322 
L 173.498619 243.410993 
L 173.810709 245.029001 
L 174.018769 247.901496 
L 175.163099 271.918268 
L 175.683249 277.037566 
L 176.099369 279.104175 
L 176.411459 279.699695 
L 176.723549 279.879329 
L 177.035639 279.795784 
L 177.451759 279.286578 
L 178.388029 277.682337 
L 178.80415 276.627742 
L 179.3243 275.467049 
L 179.63639 275.278949 
L 179.84445 275.249291 
L 180.05251 274.930873 
L 180.26057 273.886983 
L 180.67669 269.575933 
L 180.98878 267.177197 
L 181.19684 266.796539 
L 181.30087 266.697116 
L 181.4049 266.967198 
L 181.71699 269.838828 
L 182.4452 276.851174 
L 182.54923 276.887664 
L 182.75729 273.990049 
L 183.17341 267.092242 
L 183.27744 267.066841 
L 183.4855 268.513687 
L 183.90162 272.370107 
L 184.00565 272.245989 
L 184.21371 271.73944 
L 184.42177 272.699435 
L 185.358041 278.801583 
L 185.462071 278.819159 
L 185.566101 278.723501 
L 185.670131 278.427624 
L 185.878191 276.753993 
L 186.190281 271.076096 
L 186.606401 263.51933 
L 187.022521 257.870138 
L 187.438641 250.674382 
L 187.646701 249.770393 
L 187.750731 250.151046 
L 188.062821 253.279108 
L 188.582971 258.128552 
L 188.895061 259.26695 
L 189.207151 259.743059 
L 189.311181 259.778677 
L 189.519241 259.472032 
L 189.831331 257.839982 
L 190.247451 255.356948 
L 190.455511 257.619967 
L 191.391782 272.13229 
L 191.599842 268.156037 
L 191.911932 261.800992 
L 192.015962 261.654229 
L 192.224022 263.478775 
L 192.952232 272.364198 
L 193.472382 275.639041 
L 194.200592 279.068746 
L 194.720742 280.824916 
L 195.136862 281.674712 
L 195.240892 281.603906 
L 195.448952 280.677061 
L 195.969102 277.597659 
L 196.073132 277.486256 
L 196.281192 277.88678 
L 196.593282 278.501872 
L 196.801342 278.076437 
L 197.113432 277.107594 
L 197.217462 277.20851 
L 197.529553 278.256761 
L 198.257763 280.808422 
L 198.777913 281.837655 
L 199.090003 282.184652 
L 199.714183 282.302614 
L 200.130303 282.032914 
L 200.442393 281.630659 
L 200.650453 280.847578 
L 200.962543 277.902936 
L 201.378663 273.39839 
L 201.586723 272.636268 
L 201.690753 272.652575 
L 201.898813 273.219445 
L 202.731053 276.978202 
L 203.355233 279.933227 
L 203.563293 280.603195 
L 203.667324 280.443742 
L 203.875384 277.551952 
L 204.291504 271.168874 
L 204.499564 270.647709 
L 205.331804 272.436265 
L 206.788224 278.212841 
L 207.100314 279.106976 
L 207.204344 279.148993 
L 207.308374 278.920972 
L 207.516434 277.540596 
L 208.036584 273.035798 
L 208.244644 273.78467 
L 209.284944 279.722203 
L 209.388974 279.755993 
L 209.805094 278.727841 
L 210.013155 278.75719 
L 210.325245 279.306422 
L 211.365545 281.473127 
L 211.781665 281.837355 
L 212.301815 282.181302 
L 212.613905 282.416783 
L 212.717935 282.317425 
L 212.821965 281.812985 
L 213.030025 278.952245 
L 213.758235 260.745429 
L 213.862265 260.970258 
L 214.174355 264.742839 
L 214.902565 274.407968 
L 215.110625 275.228546 
L 215.318685 274.966188 
L 215.526745 274.576959 
L 215.630775 274.600904 
L 215.838835 275.261472 
L 216.775106 279.674386 
L 217.919436 281.84314 
L 218.439586 282.400983 
L 218.959736 282.709626 
L 219.063766 282.695478 
L 219.271826 282.297629 
L 219.479886 281.144578 
L 220.208096 275.633487 
L 220.312126 275.614235 
L 220.624216 276.11274 
L 221.248396 277.625599 
L 221.872576 279.350868 
L 221.976606 279.428377 
L 222.080636 279.280192 
L 222.184666 278.764062 
L 222.392727 275.6929 
L 222.808847 261.128954 
L 223.120937 254.180505 
L 223.224967 254.454756 
L 223.433027 257.352379 
L 224.369297 273.104354 
L 224.785417 276.695116 
L 224.993477 277.042923 
L 225.201537 276.33119 
L 225.617657 274.573568 
L 225.721687 274.564577 
L 225.929747 275.337421 
L 226.866017 280.036911 
L 227.074077 280.434926 
L 227.282137 280.365007 
L 227.594227 279.721908 
L 227.802287 278.980839 
L 228.010347 277.592407 
L 228.322437 273.666464 
L 228.946618 265.297791 
L 229.258708 264.171055 
L 229.362738 264.154588 
L 229.466768 263.981382 
L 229.570798 264.027198 
L 229.778858 265.707367 
L 230.715128 275.859665 
L 230.819158 275.712966 
L 231.027218 274.457131 
L 231.339308 269.566138 
L 231.651398 265.544306 
L 231.755428 265.507485 
L 231.963488 267.006499 
L 232.379608 270.795337 
L 232.587668 271.583512 
L 232.795728 271.708588 
L 233.003788 271.467715 
L 233.211848 270.836103 
L 233.523938 268.607507 
L 233.627968 268.830538 
L 233.940058 271.351642 
L 234.564238 276.758212 
L 234.668268 276.975197 
L 235.084389 276.464429 
L 235.604539 274.96593 
L 235.812599 274.863174 
L 236.020659 275.051821 
L 236.332749 276.133459 
L 237.164989 279.607296 
L 237.373049 279.920126 
L 237.477079 279.920187 
L 237.581109 279.74077 
L 237.789169 278.608376 
L 237.997229 275.904769 
L 238.309319 267.750274 
L 238.621409 259.995668 
L 238.829469 258.916762 
L 239.037529 260.59565 
L 239.661709 267.422271 
L 239.973799 268.794725 
L 240.077829 268.527752 
L 240.285889 265.238153 
L 240.910069 245.012905 
L 241.014099 245.566765 
L 241.32619 252.168036 
L 242.0544 268.522188 
L 242.36649 272.080504 
L 242.57455 272.833672 
L 242.67858 272.821998 
L 243.19873 272.21887 
L 244.23903 273.317822 
L 244.34306 273.219263 
L 244.55112 272.324511 
L 244.75918 270.004914 
L 245.59142 257.479178 
L 245.79948 258.776023 
L 246.2156 264.357694 
L 246.83978 272.48537 
L 247.359931 276.500642 
L 247.984111 279.747989 
L 248.504261 281.266797 
L 249.024411 282.101108 
L 249.336501 282.376291 
L 249.440531 282.296351 
L 249.648591 281.711805 
L 249.856651 280.309928 
L 250.480831 275.153965 
L 250.584861 275.070795 
L 250.792921 275.647302 
L 251.105011 276.658071 
L 251.209041 276.295048 
L 251.417101 273.164854 
L 251.833221 257.890627 
L 252.145311 250.957909 
L 252.249341 251.528353 
L 252.561431 257.201175 
L 253.289641 270.880571 
L 253.705762 274.569486 
L 254.225912 277.398115 
L 254.433972 277.804588 
L 254.538002 277.551572 
L 254.746062 275.86844 
L 255.162182 271.665772 
L 255.266212 271.797079 
L 255.578302 273.740628 
L 256.098452 277.32913 
L 256.202482 277.230571 
L 256.722632 274.112606 
L 256.826662 274.229482 
L 257.138752 275.769686 
L 257.866962 279.628643 
L 258.283082 280.719741 
L 258.803232 281.700675 
L 259.011292 281.756701 
L 259.219352 281.272085 
L 259.947563 278.0526 
L 260.155623 278.343498 
L 261.091893 280.655706 
L 261.820103 281.941996 
L 262.340253 282.455783 
L 262.756373 282.690272 
L 262.860403 282.652353 
L 263.276523 281.946257 
L 263.588613 282.042201 
L 264.108763 282.360465 
L 264.212793 281.770019 
L 264.420853 278.415084 
L 265.045033 263.818511 
L 265.149063 263.296823 
L 265.253093 263.399646 
L 265.461153 265.245048 
L 266.397424 276.102278 
L 266.813544 278.583323 
L 267.229664 279.845154 
L 267.541754 280.195625 
L 267.645784 280.129506 
L 267.749814 279.806491 
L 267.957874 277.542617 
L 268.269964 268.244606 
L 268.686084 256.634995 
L 268.790114 256.704933 
L 268.998174 259.19721 
L 269.934444 273.746392 
L 270.350564 277.168337 
L 270.558624 277.850396 
L 270.662654 277.900806 
L 270.870714 277.580567 
L 271.182804 277.038963 
L 271.286834 277.076712 
L 271.494894 277.567801 
L 272.015044 279.261342 
L 272.223105 279.375671 
L 272.431165 279.279452 
L 272.639225 279.614782 
L 273.679525 281.8648 
L 273.887585 282.086916 
L 273.991615 282.007698 
L 274.303705 281.085607 
L 274.615795 280.336841 
L 274.823855 280.392812 
L 275.864155 281.418826 
L 276.384305 281.661316 
L 277.320575 282.530169 
L 277.528635 282.646248 
L 277.632665 282.508753 
L 278.048785 281.078186 
L 278.256845 281.00168 
L 278.568936 281.349706 
L 279.193116 282.13609 
L 279.401176 282.073559 
L 279.609236 281.472668 
L 280.337446 277.635545 
L 280.441476 277.664451 
L 280.649536 278.181852 
L 281.065656 279.579949 
L 281.169686 279.557784 
L 281.273716 278.917127 
L 281.481776 274.782605 
L 282.209986 248.347326 
L 282.314016 248.969275 
L 282.626106 255.108398 
L 283.354316 269.943696 
L 283.770436 274.628417 
L 283.978496 275.60526 
L 284.186556 275.705769 
L 284.394616 275.159249 
L 284.914767 273.187696 
L 285.018797 273.266824 
L 285.226857 273.983978 
L 285.747007 276.111831 
L 285.851037 276.180504 
L 286.059097 275.733891 
L 286.475217 273.944895 
L 286.995367 270.934521 
L 287.099397 270.916358 
L 287.307457 271.865456 
L 288.347757 279.116081 
L 288.763877 280.643431 
L 288.867907 280.757621 
L 289.075967 280.240551 
L 289.388057 278.321047 
L 289.700147 274.891385 
L 290.220297 268.966654 
L 290.324327 268.844063 
L 290.532387 270.01634 
L 291.364628 276.716823 
L 292.092838 280.029912 
L 292.612988 281.409231 
L 293.133138 282.17587 
L 293.237168 282.239883 
L 293.341198 281.937417 
L 293.549258 279.992125 
L 293.861348 273.655263 
L 294.277468 265.970558 
L 294.485528 265.290696 
L 294.589558 265.06162 
L 294.693588 264.204338 
L 294.901648 258.506067 
L 295.525828 229.518979 
L 295.629858 229.303444 
L 295.837918 232.69297 
L 296.358068 249.533074 
L 296.670158 257.497831 
L 296.774188 258.119357 
L 296.878218 257.40209 
L 297.398369 248.345031 
L 297.502399 248.757403 
L 297.814489 254.687976 
L 298.438669 267.825297 
L 298.542699 268.378207 
L 298.646729 267.75252 
L 298.854789 263.662687 
L 299.374939 250.093087 
L 299.582999 249.260668 
L 299.791059 250.229606 
L 299.999119 252.458736 
L 300.831359 266.507585 
L 302.079719 278.147424 
L 302.391809 278.552455 
L 303.224049 278.70131 
L 303.43211 278.527092 
L 303.64017 277.979583 
L 304.16032 276.107649 
L 304.36838 276.716601 
L 305.30465 280.568394 
L 305.51271 280.826247 
L 305.8248 280.41709 
L 306.03286 280.646118 
L 306.65704 281.713488 
L 306.76107 281.530061 
L 306.96913 279.705054 
L 307.38525 275.492024 
L 307.48928 275.313787 
L 307.69734 275.85373 
L 308.21749 277.980541 
L 308.32152 277.730003 
L 308.52958 276.165857 
L 309.04973 270.677567 
L 309.15376 270.393193 
L 309.25779 270.670179 
L 309.56988 272.961192 
L 310.298091 278.34048 
L 310.818241 280.441228 
L 311.130331 280.806678 
L 311.338391 280.886801 
L 311.442421 280.838257 
L 311.650481 280.306599 
L 311.962571 277.971042 
L 312.274661 275.637735 
L 312.482721 275.149232 
L 312.586751 275.219638 
L 312.898841 276.548634 
L 313.627051 279.985375 
L 314.147201 281.38765 
L 314.459291 281.908652 
L 314.563321 281.753121 
L 314.771381 279.884595 
L 315.083471 272.738644 
L 315.499591 263.267343 
L 315.603621 263.127105 
L 315.811681 264.824671 
L 316.123772 268.175962 
L 316.227802 267.755006 
L 316.435862 264.740032 
L 316.747952 255.091616 
L 317.476162 225.183413 
L 317.580192 225.449887 
L 317.788252 229.396735 
L 318.828552 257.976108 
L 319.348702 263.043406 
L 319.764822 265.638464 
L 319.972882 266.809768 
L 320.909152 276.351733 
L 321.013182 274.13411 
L 321.637362 234.806488 
L 321.741392 235.166013 
L 322.053482 242.773738 
L 322.365573 248.730298 
L 322.573633 249.938358 
L 322.677663 249.924766 
L 322.781693 249.75404 
L 322.885723 250.165393 
L 323.197813 255.8708 
L 323.509903 260.676221 
L 323.717963 256.331124 
L 324.134083 245.014238 
L 324.238113 245.30257 
L 324.654233 248.690773 
L 324.862293 249.508091 
L 325.278413 252.217432 
L 325.486473 250.215295 
L 325.798563 246.967583 
L 326.006623 246.136397 
L 326.214683 248.89399 
L 326.942893 265.020489 
L 327.046923 264.844037 
L 327.463043 262.762863 
L 327.567073 262.859873 
L 327.775133 264.025894 
L 328.191253 267.119156 
L 328.399314 267.517228 
L 328.503344 267.373022 
L 328.711404 266.488574 
L 329.127524 264.586954 
L 329.335584 264.258252 
L 329.439614 263.964854 
L 329.543644 264.195587 
L 329.855734 267.462313 
L 330.583944 275.675173 
L 330.687974 276.078034 
L 331.000064 275.297519 
L 331.416184 273.190288 
L 332.248424 268.215195 
L 332.456484 268.884445 
L 332.872604 270.23609 
L 333.080664 271.295818 
L 333.288724 272.753777 
L 333.392754 272.876755 
L 333.496784 272.387846 
L 333.808874 270.315712 
L 334.016934 271.311587 
L 334.329024 273.138295 
L 334.433054 273.159553 
L 334.537084 273.359255 
L 334.849175 275.133537 
L 335.577385 279.325496 
L 335.681415 279.518748 
L 335.993505 279.371722 
L 336.201565 279.607797 
L 336.721715 280.312513 
L 337.241865 280.897852 
L 338.074105 282.116105 
L 338.386195 282.217192 
L 338.906345 282.260212 
L 340.466795 282.90973 
L 341.299036 282.99645 
L 342.027246 282.466644 
L 342.235306 281.973193 
L 342.443366 281.491989 
L 342.651426 281.470501 
L 343.067546 281.780949 
L 343.587696 280.943591 
L 344.003816 281.471078 
L 344.315906 281.843729 
L 344.523966 281.483118 
L 344.940086 279.934959 
L 345.980386 274.879003 
L 346.188446 275.535027 
L 347.020686 279.586963 
L 347.124717 279.075146 
L 347.644867 272.860014 
L 347.956957 271.475224 
L 348.165017 271.444999 
L 348.789197 272.236923 
L 349.205317 272.25023 
L 349.413377 271.738734 
L 349.725467 270.948261 
L 350.037557 270.715006 
L 350.245617 269.940109 
L 350.557707 266.60992 
L 350.869797 263.342623 
L 350.973827 263.004446 
L 351.077857 263.41364 
L 351.389947 267.01088 
L 352.118157 275.547166 
L 352.534277 278.39909 
L 353.054427 280.125722 
L 353.262487 280.280229 
L 353.470548 280.02658 
L 353.886668 279.36042 
L 354.094728 279.610011 
L 355.239058 281.974911 
L 355.759208 282.477426 
L 355.967268 282.424526 
L 356.279358 281.913072 
L 356.487418 281.091258 
L 356.903538 277.572367 
L 357.215628 273.999151 
L 357.423688 268.767138 
L 358.047868 248.916676 
L 358.151898 248.644965 
L 358.359958 250.633438 
L 359.608319 268.969448 
L 360.336529 276.475942 
L 360.856679 279.479631 
L 361.376829 281.139131 
L 361.896979 282.020851 
L 362.105039 282.113837 
L 362.209069 281.919147 
L 362.417129 280.822342 
L 363.041309 276.750692 
L 363.249369 276.526311 
L 363.353399 276.49338 
L 363.457429 276.313545 
L 363.665489 275.08769 
L 364.081609 271.924158 
L 364.185639 271.86603 
L 364.393699 272.613432 
L 364.913849 275.043438 
L 365.329969 275.608593 
L 366.57833 280.962578 
L 366.89042 281.553994 
L 366.99445 281.499504 
L 368.24281 279.189376 
L 368.97102 276.232433 
L 369.17908 276.491473 
L 370.6355 279.869596 
L 371.25968 281.45849 
L 371.46774 281.805781 
L 371.57177 281.748876 
L 371.77983 279.571623 
L 372.404011 270.336946 
L 372.508041 270.337805 
L 372.716101 271.509307 
L 373.444311 277.031633 
L 373.964461 278.972765 
L 374.588641 280.991455 
L 375.004761 281.674892 
L 376.357151 282.604773 
L 377.189391 282.890639 
L 377.605511 282.878134 
L 378.125661 282.373914 
L 378.437752 282.225364 
L 378.957902 282.47662 
L 379.790142 282.832154 
L 380.830442 283.000766 
L 381.142532 282.985838 
L 381.350592 282.636774 
L 381.558652 281.906457 
L 381.870742 279.843084 
L 382.390892 276.200333 
L 382.702982 275.546031 
L 383.119102 275.468634 
L 383.327162 274.624466 
L 383.847312 271.530314 
L 384.055372 271.474109 
L 384.159402 271.527168 
L 384.367462 272.385354 
L 385.303733 278.802131 
L 385.407763 278.706332 
L 385.719853 272.62321 
L 386.031943 268.034228 
L 386.135973 267.836706 
L 386.344033 268.275123 
L 386.448063 267.935638 
L 386.656123 264.744786 
L 387.072243 256.351838 
L 387.280303 255.580294 
L 387.488363 256.972641 
L 388.008513 264.300394 
L 388.632693 272.088375 
L 389.256873 277.460693 
L 389.777023 280.018931 
L 390.193143 281.177753 
L 390.297173 281.282513 
L 390.609263 281.12603 
L 390.921354 281.433326 
L 391.753594 282.377248 
L 392.273744 282.66473 
L 392.793894 282.713707 
L 393.210014 282.828628 
L 393.314044 282.718293 
L 393.522104 281.352895 
L 394.042254 277.734385 
L 394.250314 277.13 
L 394.458374 277.52095 
L 395.082554 279.531677 
L 395.290614 279.571051 
L 396.851064 281.483625 
L 397.163155 281.711456 
L 397.787335 281.654238 
L 398.203455 281.084518 
L 398.515545 281.393703 
L 399.347785 282.3593 
L 399.763905 282.512911 
L 400.075995 282.517847 
L 400.492115 282.59134 
L 401.532415 282.877905 
L 402.260625 282.945416 
L 402.468685 282.452351 
L 402.780775 281.855026 
L 403.092865 281.921765 
L 403.717046 282.052648 
L 404.653316 282.684619 
L 404.861376 282.655803 
L 405.069436 282.297738 
L 405.277496 281.90389 
L 405.485556 281.867488 
L 405.901676 282.160029 
L 406.629886 282.652081 
L 407.254066 282.869175 
L 407.358096 282.721979 
L 407.982276 280.369358 
L 408.294366 280.151678 
L 408.502426 279.404143 
L 408.814516 276.731615 
L 409.126606 274.071031 
L 409.230636 273.964906 
L 409.438696 274.699018 
L 410.270937 278.816832 
L 410.791087 280.084324 
L 411.311237 280.985044 
L 411.935417 282.002885 
L 412.039447 282.123445 
L 412.143477 281.897399 
L 412.871687 274.324914 
L 413.287807 274.197811 
L 413.495867 274.265767 
L 413.807957 274.486117 
L 413.911987 274.388073 
L 414.120047 273.635701 
L 414.432137 272.018652 
L 414.536167 272.193174 
L 414.848257 274.123705 
L 415.472437 278.240847 
L 415.576467 277.978987 
L 416.304678 270.432381 
L 416.616768 269.841912 
L 416.824828 269.845424 
L 417.032888 270.213937 
L 417.344978 271.602866 
L 418.385278 277.12024 
L 419.113488 280.242974 
L 419.633638 281.527151 
L 420.153788 282.239526 
L 420.257818 282.297701 
L 420.465878 282.016968 
L 421.194088 280.320169 
L 421.402148 280.374954 
L 422.234389 281.049282 
L 422.962599 282.112421 
L 423.586779 282.608017 
L 424.314989 282.876361 
L 425.043199 282.9527 
L 425.667379 282.206742 
L 426.083499 281.7431 
L 426.291559 281.103127 
L 427.123799 277.240166 
L 427.331859 277.662858 
L 428.37216 281.013121 
L 428.58022 281.190207 
L 428.89231 281.118081 
L 429.10037 280.994657 
L 429.30843 281.144562 
L 430.45276 282.46381 
L 431.07694 282.780309 
L 431.285 282.844062 
L 431.285 282.844062 
" clip-path="url(#p9d84ed5f1e)" style="fill: none; stroke: #2ca02c; stroke-width: 0.5; stroke-linecap: square"/>
   </g>
   <g id="patch_3">
    <path d="M 38.27 303.64 
L 38.27 25.44 
" style="fill: none; stroke: #000000; stroke-width: 0.8; stroke-linejoin: miter; stroke-linecap: square"/>
   </g>
   <g id="patch_4">
    <path d="M 450 303.64 
L 450 25.44 
" style="fill: none; stroke: #000000; stroke-width: 0.8; stroke-linejoin: miter; stroke-linecap: square"/>
   </g>
   <g id="patch_5">
    <path d="M 38.27 303.64 
L 450 303.64 
" style="fill: none; stroke: #000000; stroke-width: 0.8; stroke-linejoin: miter; stroke-linecap: square"/>
   </g>
   <g id="patch_6">
    <path d="M 38.27 25.44 
L 450 25.44 
" style="fill: none; stroke: #000000; stroke-width: 0.8; stroke-linejoin: miter; stroke-linecap: square"/>
   </g>
   <g id="text_19">
    <!-- cvxEDA (σ=0.6s  data_7_E4) -->
    <g transform="translate(158.48125 19.44) scale(0.12 -0.12)">
     <defs>
      <path id="DejaVuSans-63" d="M 3122 3366 
L 3122 2828 
Q 2878 2963 2633 3030 
Q 2388 3097 2138 3097 
Q 1578 3097 1268 2742 
Q 959 2388 959 1747 
Q 959 1106 1268 751 
Q 1578 397 2138 397 
Q 2388 397 2633 464 
Q 2878 531 3122 666 
L 3122 134 
Q 2881 22 2623 -34 
Q 2366 -91 2075 -91 
Q 1284 -91 818 406 
Q 353 903 353 1747 
Q 353 2603 823 3093 
Q 1294 3584 2113 3584 
Q 2378 3584 2631 3529 
Q 2884 3475 3122 3366 
z
" transform="scale(0.015625)"/>
      <path id="DejaVuSans-76" d="M 191 3500 
L 800 3500 
L 1894 563 
L 2988 3500 
L 3597 3500 
L 2284 0 
L 1503 0 
L 191 3500 
z
" transform="scale(0.015625)"/>
      <path id="DejaVuSans-78" d="M 3513 3500 
L 2247 1797 
L 3578 0 
L 2900 0 
L 1881 1375 
L 863 0 
L 184 0 
L 1544 1831 
L 300 3500 
L 978 3500 
L 1906 2253 
L 2834 3500 
L 3513 3500 
z
" transform="scale(0.015625)"/>
      <path id="DejaVuSans-3c3" d="M 1959 3044 
Q 1484 3044 1228 2700 
Q 959 2341 959 1747 
Q 959 1119 1226 758 
Q 1494 397 1959 397 
Q 2419 397 2687 759 
Q 2956 1122 2956 1747 
Q 2956 2319 2688 2700 
Q 2441 3044 1959 3044 
z
M 1959 3500 
L 3869 3500 
L 3869 2925 
L 3225 2925 
Q 3566 2438 3566 1747 
Q 3566 888 3138 400 
Q 2709 -91 1959 -91 
Q 1206 -91 781 400 
Q 353 888 353 1747 
Q 353 2613 781 3097 
Q 1134 3500 1959 3500 
z
" transform="scale(0.015625)"/>
      <path id="DejaVuSans-3d" d="M 678 2906 
L 4684 2906 
L 4684 2381 
L 678 2381 
L 678 2906 
z
M 678 1631 
L 4684 1631 
L 4684 1100 
L 678 1100 
L 678 1631 
z
" transform="scale(0.015625)"/>
      <path id="DejaVuSans-2e" d="M 684 794 
L 1344 794 
L 1344 0 
L 684 0 
L 684 794 
z
" transform="scale(0.015625)"/>
      <path id="DejaVuSans-64" d="M 2906 2969 
L 2906 4863 
L 3481 4863 
L 3481 0 
L 2906 0 
L 2906 525 
Q 2725 213 2448 61 
Q 2172 -91 1784 -91 
Q 1150 -91 751 415 
Q 353 922 353 1747 
Q 353 2572 751 3078 
Q 1150 3584 1784 3584 
Q 2172 3584 2448 3432 
Q 2725 3281 2906 2969 
z
M 947 1747 
Q 947 1113 1208 752 
Q 1469 391 1925 391 
Q 2381 391 2643 752 
Q 2906 1113 2906 1747 
Q 2906 2381 2643 2742 
Q 2381 3103 1925 3103 
Q 1469 3103 1208 2742 
Q 947 2381 947 1747 
z
" transform="scale(0.015625)"/>
      <path id="DejaVuSans-5f" d="M 3263 -1063 
L 3263 -1509 
L -63 -1509 
L -63 -1063 
L 3263 -1063 
z
" transform="scale(0.015625)"/>
     </defs>
     <use xlink:href="#DejaVuSans-63"/>
     <use xlink:href="#DejaVuSans-76" transform="translate(54.980469 0)"/>
     <use xlink:href="#DejaVuSans-78" transform="translate(114.160156 0)"/>
     <use xlink:href="#DejaVuSans-45" transform="translate(173.339844 0)"/>
     <use xlink:href="#DejaVuSans-44" transform="translate(236.523438 0)"/>
     <use xlink:href="#DejaVuSans-41" transform="translate(311.775391 0)"/>
     <use xlink:href="#DejaVuSans-20" transform="translate(380.183594 0)"/>
     <use xlink:href="#DejaVuSans-28" transform="translate(411.970703 0)"/>
     <use xlink:href="#DejaVuSans-3c3" transform="translate(450.984375 0)"/>
     <use xlink:href="#DejaVuSans-3d" transform="translate(514.363281 0)"/>
     <use xlink:href="#DejaVuSans-30" transform="translate(598.152344 0)"/>
     <use xlink:href="#DejaVuSans-2e" transform="translate(661.775391 0)"/>
     <use xlink:href="#DejaVuSans-36" transform="translate(693.5625 0)"/>
     <use xlink:href="#DejaVuSans-73" transform="translate(757.185547 0)"/>
     <use xlink:href="#DejaVuSans-20" transform="translate(809.285156 0)"/>
     <use xlink:href="#DejaVuSans-20" transform="translate(841.072266 0)"/>
     <use xlink:href="#DejaVuSans-64" transform="translate(872.859375 0)"/>
     <use xlink:href="#DejaVuSans-61" transform="translate(936.335938 0)"/>
     <use xlink:href="#DejaVuSans-74" transform="translate(997.615234 0)"/>
     <use xlink:href="#DejaVuSans-61" transform="translate(1036.824219 0)"/>
     <use xlink:href="#DejaVuSans-5f" transform="translate(1098.103516 0)"/>
     <use xlink:href="#DejaVuSans-37" transform="translate(1148.103516 0)"/>
     <use xlink:href="#DejaVuSans-5f" transform="translate(1211.726562 0)"/>
     <use xlink:href="#DejaVuSans-45" transform="translate(1261.726562 0)"/>
     <use xlink:href="#DejaVuSans-34" transform="translate(1324.910156 0)"/>
     <use xlink:href="#DejaVuSans-29" transform="translate(1388.533203 0)"/>
    </g>
   </g>
   <g id="legend_1">
    <g id="patch_7">
     <path d="M 350.09375 77.474375 
L 443 77.474375 
Q 445 77.474375 445 75.474375 
L 445 32.44 
Q 445 30.44 443 30.44 
L 350.09375 30.44 
Q 348.09375 30.44 348.09375 32.44 
L 348.09375 75.474375 
Q 348.09375 77.474375 350.09375 77.474375 
z
" style="fill: #ffffff; opacity: 0.8; stroke: #cccccc; stroke-linejoin: miter"/>
    </g>
    <g id="line2d_36">
     <path d="M 352.09375 38.538437 
L 362.09375 38.538437 
L 372.09375 38.538437 
" style="fill: none; stroke-dasharray: 1.85,0.8; stroke-dashoffset: 0; stroke: #1f77b4; stroke-width: 0.5"/>
    </g>
    <g id="text_20">
     <!-- Filtered EDA -->
     <g transform="translate(380.09375 42.038437) scale(0.1 -0.1)">
      <defs>
       <path id="DejaVuSans-46" d="M 628 4666 
L 3309 4666 
L 3309 4134 
L 1259 4134 
L 1259 2759 
L 3109 2759 
L 3109 2228 
L 1259 2228 
L 1259 0 
L 628 0 
L 628 4666 
z
" transform="scale(0.015625)"/>
       <path id="DejaVuSans-72" d="M 2631 2963 
Q 2534 3019 2420 3045 
Q 2306 3072 2169 3072 
Q 1681 3072 1420 2755 
Q 1159 2438 1159 1844 
L 1159 0 
L 581 0 
L 581 3500 
L 1159 3500 
L 1159 2956 
Q 1341 3275 1631 3429 
Q 1922 3584 2338 3584 
Q 2397 3584 2469 3576 
Q 2541 3569 2628 3553 
L 2631 2963 
z
" transform="scale(0.015625)"/>
      </defs>
      <use xlink:href="#DejaVuSans-46"/>
      <use xlink:href="#DejaVuSans-69" transform="translate(50.269531 0)"/>
      <use xlink:href="#DejaVuSans-6c" transform="translate(78.052734 0)"/>
      <use xlink:href="#DejaVuSans-74" transform="translate(105.835938 0)"/>
      <use xlink:href="#DejaVuSans-65" transform="translate(145.044922 0)"/>
      <use xlink:href="#DejaVuSans-72" transform="translate(206.568359 0)"/>
      <use xlink:href="#DejaVuSans-65" transform="translate(245.431641 0)"/>
      <use xlink:href="#DejaVuSans-64" transform="translate(306.955078 0)"/>
      <use xlink:href="#DejaVuSans-20" transform="translate(370.431641 0)"/>
      <use xlink:href="#DejaVuSans-45" transform="translate(402.21875 0)"/>
      <use xlink:href="#DejaVuSans-44" transform="translate(465.402344 0)"/>
      <use xlink:href="#DejaVuSans-41" transform="translate(540.654297 0)"/>
     </g>
    </g>
    <g id="line2d_37">
     <path d="M 352.09375 53.216562 
L 362.09375 53.216562 
L 372.09375 53.216562 
" style="fill: none; stroke: #ff7f0e; stroke-width: 0.5; stroke-linecap: square"/>
    </g>
    <g id="text_21">
     <!-- Tonic -->
     <g transform="translate(380.09375 56.716562) scale(0.1 -0.1)">
      <defs>
       <path id="DejaVuSans-6f" d="M 1959 3097 
Q 1497 3097 1228 2736 
Q 959 2375 959 1747 
Q 959 1119 1226 758 
Q 1494 397 1959 397 
Q 2419 397 2687 759 
Q 2956 1122 2956 1747 
Q 2956 2369 2687 2733 
Q 2419 3097 1959 3097 
z
M 1959 3584 
Q 2709 3584 3137 3096 
Q 3566 2609 3566 1747 
Q 3566 888 3137 398 
Q 2709 -91 1959 -91 
Q 1206 -91 779 398 
Q 353 888 353 1747 
Q 353 2609 779 3096 
Q 1206 3584 1959 3584 
z
" transform="scale(0.015625)"/>
      </defs>
      <use xlink:href="#DejaVuSans-54"/>
      <use xlink:href="#DejaVuSans-6f" transform="translate(44.083984 0)"/>
      <use xlink:href="#DejaVuSans-6e" transform="translate(105.265625 0)"/>
      <use xlink:href="#DejaVuSans-69" transform="translate(168.644531 0)"/>
      <use xlink:href="#DejaVuSans-63" transform="translate(196.427734 0)"/>
     </g>
    </g>
    <g id="line2d_38">
     <path d="M 352.09375 67.894687 
L 362.09375 67.894687 
L 372.09375 67.894687 
" style="fill: none; stroke: #2ca02c; stroke-width: 0.5; stroke-linecap: square"/>
    </g>
    <g id="text_22">
     <!-- Phasic -->
     <g transform="translate(380.09375 71.394687) scale(0.1 -0.1)">
      <defs>
       <path id="DejaVuSans-50" d="M 1259 4147 
L 1259 2394 
L 2053 2394 
Q 2494 2394 2734 2622 
Q 2975 2850 2975 3272 
Q 2975 3691 2734 3919 
Q 2494 4147 2053 4147 
L 1259 4147 
z
M 628 4666 
L 2053 4666 
Q 2838 4666 3239 4311 
Q 3641 3956 3641 3272 
Q 3641 2581 3239 2228 
Q 2838 1875 2053 1875 
L 1259 1875 
L 1259 0 
L 628 0 
L 628 4666 
z
" transform="scale(0.015625)"/>
       <path id="DejaVuSans-68" d="M 3513 2113 
L 3513 0 
L 2938 0 
L 2938 2094 
Q 2938 2591 2744 2837 
Q 2550 3084 2163 3084 
Q 1697 3084 1428 2787 
Q 1159 2491 1159 1978 
L 1159 0 
L 581 0 
L 581 4863 
L 1159 4863 
L 1159 2956 
Q 1366 3272 1645 3428 
Q 1925 3584 2291 3584 
Q 2894 3584 3203 3211 
Q 3513 2838 3513 2113 
z
" transform="scale(0.015625)"/>
      </defs>
      <use xlink:href="#DejaVuSans-50"/>
      <use xlink:href="#DejaVuSans-68" transform="translate(60.302734 0)"/>
      <use xlink:href="#DejaVuSans-61" transform="translate(123.681641 0)"/>
      <use xlink:href="#DejaVuSans-73" transform="translate(184.960938 0)"/>
      <use xlink:href="#DejaVuSans-69" transform="translate(237.060547 0)"/>
      <use xlink:href="#DejaVuSans-63" transform="translate(264.84375 0)"/>
     </g>
    </g>
   </g>
  </g>
 </g>
 <defs>
  <clipPath id="p9d84ed5f1e">
   <rect x="38.27" y="25.44" width="411.73" height="278.2"/>
  </clipPath>
 </defs>
</svg>
