<?xml version="1.0" encoding="utf-8" standalone="no"?>
<!DOCTYPE svg PUBLIC "-//W3C//DTD SVG 1.1//EN"
  "http://www.w3.org/Graphics/SVG/1.1/DTD/svg11.dtd">
<svg xmlns:xlink="http://www.w3.org/1999/xlink" width="460.8pt" height="345.6pt" viewBox="0 0 460.8 345.6" xmlns="http://www.w3.org/2000/svg" version="1.1">
 <metadata>
  <rdf:RDF xmlns:dc="http://purl.org/dc/elements/1.1/" xmlns:cc="http://creativecommons.org/ns#" xmlns:rdf="http://www.w3.org/1999/02/22-rdf-syntax-ns#">
   <cc:Work>
    <dc:type rdf:resource="http://purl.org/dc/dcmitype/StillImage"/>
    <dc:date>2025-09-22T14:19:03.934897</dc:date>
    <dc:format>image/svg+xml</dc:format>
    <dc:creator>
     <cc:Agent>
      <dc:title>Matplotlib v3.10.0, https://matplotlib.org/</dc:title>
     </cc:Agent>
    </dc:creator>
   </cc:Work>
  </rdf:RDF>
 </metadata>
 <defs>
  <style type="text/css">*{stroke-linejoin: round; stroke-linecap: butt}</style>
 </defs>
 <g id="figure_1">
  <g id="patch_1">
   <path d="M 0 345.6 
L 460.8 345.6 
L 460.8 0 
L 0 0 
z
" style="fill: #ffffff"/>
  </g>
  <g id="axes_1">
   <g id="patch_2">
    <path d="M 38.27 303.64 
L 450 303.64 
L 450 25.44 
L 38.27 25.44 
z
" style="fill: #ffffff"/>
   </g>
   <g id="matplotlib.axis_1">
    <g id="xtick_1">
     <g id="line2d_1">
      <path d="M 56.985 303.64 
L 56.985 25.44 
" clip-path="url(#p9b70a0ed89)" style="fill: none; stroke: #b0b0b0; stroke-opacity: 0.3; stroke-width: 0.8; stroke-linecap: square"/>
     </g>
     <g id="line2d_2">
      <defs>
       <path id="m98b0c5687c" d="M 0 0 
L 0 3.5 
" style="stroke: #000000; stroke-width: 0.8"/>
      </defs>
      <g>
       <use xlink:href="#m98b0c5687c" x="56.985" y="303.64" style="stroke: #000000; stroke-width: 0.8"/>
      </g>
     </g>
     <g id="text_1">
      <!-- 0 -->
      <g transform="translate(53.80375 318.238437) scale(0.1 -0.1)">
       <defs>
        <path id="DejaVuSans-30" d="M 2034 4250 
Q 1547 4250 1301 3770 
Q 1056 3291 1056 2328 
Q 1056 1369 1301 889 
Q 1547 409 2034 409 
Q 2525 409 2770 889 
Q 3016 1369 3016 2328 
Q 3016 3291 2770 3770 
Q 2525 4250 2034 4250 
z
M 2034 4750 
Q 2819 4750 3233 4129 
Q 3647 3509 3647 2328 
Q 3647 1150 3233 529 
Q 2819 -91 2034 -91 
Q 1250 -91 836 529 
Q 422 1150 422 2328 
Q 422 3509 836 4129 
Q 1250 4750 2034 4750 
z
" transform="scale(0.015625)"/>
       </defs>
       <use xlink:href="#DejaVuSans-30"/>
      </g>
     </g>
    </g>
    <g id="xtick_2">
     <g id="line2d_3">
      <path d="M 106.891667 303.64 
L 106.891667 25.44 
" clip-path="url(#p9b70a0ed89)" style="fill: none; stroke: #b0b0b0; stroke-opacity: 0.3; stroke-width: 0.8; stroke-linecap: square"/>
     </g>
     <g id="line2d_4">
      <g>
       <use xlink:href="#m98b0c5687c" x="106.891667" y="303.64" style="stroke: #000000; stroke-width: 0.8"/>
      </g>
     </g>
     <g id="text_2">
      <!-- 2 -->
      <g transform="translate(103.710417 318.238437) scale(0.1 -0.1)">
       <defs>
        <path id="DejaVuSans-32" d="M 1228 531 
L 3431 531 
L 3431 0 
L 469 0 
L 469 531 
Q 828 903 1448 1529 
Q 2069 2156 2228 2338 
Q 2531 2678 2651 2914 
Q 2772 3150 2772 3378 
Q 2772 3750 2511 3984 
Q 2250 4219 1831 4219 
Q 1534 4219 1204 4116 
Q 875 4013 500 3803 
L 500 4441 
Q 881 4594 1212 4672 
Q 1544 4750 1819 4750 
Q 2544 4750 2975 4387 
Q 3406 4025 3406 3419 
Q 3406 3131 3298 2873 
Q 3191 2616 2906 2266 
Q 2828 2175 2409 1742 
Q 1991 1309 1228 531 
z
" transform="scale(0.015625)"/>
       </defs>
       <use xlink:href="#DejaVuSans-32"/>
      </g>
     </g>
    </g>
    <g id="xtick_3">
     <g id="line2d_5">
      <path d="M 156.798333 303.64 
L 156.798333 25.44 
" clip-path="url(#p9b70a0ed89)" style="fill: none; stroke: #b0b0b0; stroke-opacity: 0.3; stroke-width: 0.8; stroke-linecap: square"/>
     </g>
     <g id="line2d_6">
      <g>
       <use xlink:href="#m98b0c5687c" x="156.798333" y="303.64" style="stroke: #000000; stroke-width: 0.8"/>
      </g>
     </g>
     <g id="text_3">
      <!-- 4 -->
      <g transform="translate(153.617083 318.238437) scale(0.1 -0.1)">
       <defs>
        <path id="DejaVuSans-34" d="M 2419 4116 
L 825 1625 
L 2419 1625 
L 2419 4116 
z
M 2253 4666 
L 3047 4666 
L 3047 1625 
L 3713 1625 
L 3713 1100 
L 3047 1100 
L 3047 0 
L 2419 0 
L 2419 1100 
L 313 1100 
L 313 1709 
L 2253 4666 
z
" transform="scale(0.015625)"/>
       </defs>
       <use xlink:href="#DejaVuSans-34"/>
      </g>
     </g>
    </g>
    <g id="xtick_4">
     <g id="line2d_7">
      <path d="M 206.705 303.64 
L 206.705 25.44 
" clip-path="url(#p9b70a0ed89)" style="fill: none; stroke: #b0b0b0; stroke-opacity: 0.3; stroke-width: 0.8; stroke-linecap: square"/>
     </g>
     <g id="line2d_8">
      <g>
       <use xlink:href="#m98b0c5687c" x="206.705" y="303.64" style="stroke: #000000; stroke-width: 0.8"/>
      </g>
     </g>
     <g id="text_4">
      <!-- 6 -->
      <g transform="translate(203.52375 318.238437) scale(0.1 -0.1)">
       <defs>
        <path id="DejaVuSans-36" d="M 2113 2584 
Q 1688 2584 1439 2293 
Q 1191 2003 1191 1497 
Q 1191 994 1439 701 
Q 1688 409 2113 409 
Q 2538 409 2786 701 
Q 3034 994 3034 1497 
Q 3034 2003 2786 2293 
Q 2538 2584 2113 2584 
z
M 3366 4563 
L 3366 3988 
Q 3128 4100 2886 4159 
Q 2644 4219 2406 4219 
Q 1781 4219 1451 3797 
Q 1122 3375 1075 2522 
Q 1259 2794 1537 2939 
Q 1816 3084 2150 3084 
Q 2853 3084 3261 2657 
Q 3669 2231 3669 1497 
Q 3669 778 3244 343 
Q 2819 -91 2113 -91 
Q 1303 -91 875 529 
Q 447 1150 447 2328 
Q 447 3434 972 4092 
Q 1497 4750 2381 4750 
Q 2619 4750 2861 4703 
Q 3103 4656 3366 4563 
z
" transform="scale(0.015625)"/>
       </defs>
       <use xlink:href="#DejaVuSans-36"/>
      </g>
     </g>
    </g>
    <g id="xtick_5">
     <g id="line2d_9">
      <path d="M 256.611667 303.64 
L 256.611667 25.44 
" clip-path="url(#p9b70a0ed89)" style="fill: none; stroke: #b0b0b0; stroke-opacity: 0.3; stroke-width: 0.8; stroke-linecap: square"/>
     </g>
     <g id="line2d_10">
      <g>
       <use xlink:href="#m98b0c5687c" x="256.611667" y="303.64" style="stroke: #000000; stroke-width: 0.8"/>
      </g>
     </g>
     <g id="text_5">
      <!-- 8 -->
      <g transform="translate(253.430417 318.238437) scale(0.1 -0.1)">
       <defs>
        <path id="DejaVuSans-38" d="M 2034 2216 
Q 1584 2216 1326 1975 
Q 1069 1734 1069 1313 
Q 1069 891 1326 650 
Q 1584 409 2034 409 
Q 2484 409 2743 651 
Q 3003 894 3003 1313 
Q 3003 1734 2745 1975 
Q 2488 2216 2034 2216 
z
M 1403 2484 
Q 997 2584 770 2862 
Q 544 3141 544 3541 
Q 544 4100 942 4425 
Q 1341 4750 2034 4750 
Q 2731 4750 3128 4425 
Q 3525 4100 3525 3541 
Q 3525 3141 3298 2862 
Q 3072 2584 2669 2484 
Q 3125 2378 3379 2068 
Q 3634 1759 3634 1313 
Q 3634 634 3220 271 
Q 2806 -91 2034 -91 
Q 1263 -91 848 271 
Q 434 634 434 1313 
Q 434 1759 690 2068 
Q 947 2378 1403 2484 
z
M 1172 3481 
Q 1172 3119 1398 2916 
Q 1625 2713 2034 2713 
Q 2441 2713 2670 2916 
Q 2900 3119 2900 3481 
Q 2900 3844 2670 4047 
Q 2441 4250 2034 4250 
Q 1625 4250 1398 4047 
Q 1172 3844 1172 3481 
z
" transform="scale(0.015625)"/>
       </defs>
       <use xlink:href="#DejaVuSans-38"/>
      </g>
     </g>
    </g>
    <g id="xtick_6">
     <g id="line2d_11">
      <path d="M 306.518333 303.64 
L 306.518333 25.44 
" clip-path="url(#p9b70a0ed89)" style="fill: none; stroke: #b0b0b0; stroke-opacity: 0.3; stroke-width: 0.8; stroke-linecap: square"/>
     </g>
     <g id="line2d_12">
      <g>
       <use xlink:href="#m98b0c5687c" x="306.518333" y="303.64" style="stroke: #000000; stroke-width: 0.8"/>
      </g>
     </g>
     <g id="text_6">
      <!-- 10 -->
      <g transform="translate(300.155833 318.238437) scale(0.1 -0.1)">
       <defs>
        <path id="DejaVuSans-31" d="M 794 531 
L 1825 531 
L 1825 4091 
L 703 3866 
L 703 4441 
L 1819 4666 
L 2450 4666 
L 2450 531 
L 3481 531 
L 3481 0 
L 794 0 
L 794 531 
z
" transform="scale(0.015625)"/>
       </defs>
       <use xlink:href="#DejaVuSans-31"/>
       <use xlink:href="#DejaVuSans-30" transform="translate(63.623047 0)"/>
      </g>
     </g>
    </g>
    <g id="xtick_7">
     <g id="line2d_13">
      <path d="M 356.425 303.64 
L 356.425 25.44 
" clip-path="url(#p9b70a0ed89)" style="fill: none; stroke: #b0b0b0; stroke-opacity: 0.3; stroke-width: 0.8; stroke-linecap: square"/>
     </g>
     <g id="line2d_14">
      <g>
       <use xlink:href="#m98b0c5687c" x="356.425" y="303.64" style="stroke: #000000; stroke-width: 0.8"/>
      </g>
     </g>
     <g id="text_7">
      <!-- 12 -->
      <g transform="translate(350.0625 318.238437) scale(0.1 -0.1)">
       <use xlink:href="#DejaVuSans-31"/>
       <use xlink:href="#DejaVuSans-32" transform="translate(63.623047 0)"/>
      </g>
     </g>
    </g>
    <g id="xtick_8">
     <g id="line2d_15">
      <path d="M 406.331667 303.64 
L 406.331667 25.44 
" clip-path="url(#p9b70a0ed89)" style="fill: none; stroke: #b0b0b0; stroke-opacity: 0.3; stroke-width: 0.8; stroke-linecap: square"/>
     </g>
     <g id="line2d_16">
      <g>
       <use xlink:href="#m98b0c5687c" x="406.331667" y="303.64" style="stroke: #000000; stroke-width: 0.8"/>
      </g>
     </g>
     <g id="text_8">
      <!-- 14 -->
      <g transform="translate(399.969167 318.238437) scale(0.1 -0.1)">
       <use xlink:href="#DejaVuSans-31"/>
       <use xlink:href="#DejaVuSans-34" transform="translate(63.623047 0)"/>
      </g>
     </g>
    </g>
    <g id="text_9">
     <!-- Time (minutes) -->
     <g transform="translate(206.1725 331.916562) scale(0.1 -0.1)">
      <defs>
       <path id="DejaVuSans-54" d="M -19 4666 
L 3928 4666 
L 3928 4134 
L 2272 4134 
L 2272 0 
L 1638 0 
L 1638 4134 
L -19 4134 
L -19 4666 
z
" transform="scale(0.015625)"/>
       <path id="DejaVuSans-69" d="M 603 3500 
L 1178 3500 
L 1178 0 
L 603 0 
L 603 3500 
z
M 603 4863 
L 1178 4863 
L 1178 4134 
L 603 4134 
L 603 4863 
z
" transform="scale(0.015625)"/>
       <path id="DejaVuSans-6d" d="M 3328 2828 
Q 3544 3216 3844 3400 
Q 4144 3584 4550 3584 
Q 5097 3584 5394 3201 
Q 5691 2819 5691 2113 
L 5691 0 
L 5113 0 
L 5113 2094 
Q 5113 2597 4934 2840 
Q 4756 3084 4391 3084 
Q 3944 3084 3684 2787 
Q 3425 2491 3425 1978 
L 3425 0 
L 2847 0 
L 2847 2094 
Q 2847 2600 2669 2842 
Q 2491 3084 2119 3084 
Q 1678 3084 1418 2786 
Q 1159 2488 1159 1978 
L 1159 0 
L 581 0 
L 581 3500 
L 1159 3500 
L 1159 2956 
Q 1356 3278 1631 3431 
Q 1906 3584 2284 3584 
Q 2666 3584 2933 3390 
Q 3200 3197 3328 2828 
z
" transform="scale(0.015625)"/>
       <path id="DejaVuSans-65" d="M 3597 1894 
L 3597 1613 
L 953 1613 
Q 991 1019 1311 708 
Q 1631 397 2203 397 
Q 2534 397 2845 478 
Q 3156 559 3463 722 
L 3463 178 
Q 3153 47 2828 -22 
Q 2503 -91 2169 -91 
Q 1331 -91 842 396 
Q 353 884 353 1716 
Q 353 2575 817 3079 
Q 1281 3584 2069 3584 
Q 2775 3584 3186 3129 
Q 3597 2675 3597 1894 
z
M 3022 2063 
Q 3016 2534 2758 2815 
Q 2500 3097 2075 3097 
Q 1594 3097 1305 2825 
Q 1016 2553 972 2059 
L 3022 2063 
z
" transform="scale(0.015625)"/>
       <path id="DejaVuSans-20" transform="scale(0.015625)"/>
       <path id="DejaVuSans-28" d="M 1984 4856 
Q 1566 4138 1362 3434 
Q 1159 2731 1159 2009 
Q 1159 1288 1364 580 
Q 1569 -128 1984 -844 
L 1484 -844 
Q 1016 -109 783 600 
Q 550 1309 550 2009 
Q 550 2706 781 3412 
Q 1013 4119 1484 4856 
L 1984 4856 
z
" transform="scale(0.015625)"/>
       <path id="DejaVuSans-6e" d="M 3513 2113 
L 3513 0 
L 2938 0 
L 2938 2094 
Q 2938 2591 2744 2837 
Q 2550 3084 2163 3084 
Q 1697 3084 1428 2787 
Q 1159 2491 1159 1978 
L 1159 0 
L 581 0 
L 581 3500 
L 1159 3500 
L 1159 2956 
Q 1366 3272 1645 3428 
Q 1925 3584 2291 3584 
Q 2894 3584 3203 3211 
Q 3513 2838 3513 2113 
z
" transform="scale(0.015625)"/>
       <path id="DejaVuSans-75" d="M 544 1381 
L 544 3500 
L 1119 3500 
L 1119 1403 
Q 1119 906 1312 657 
Q 1506 409 1894 409 
Q 2359 409 2629 706 
Q 2900 1003 2900 1516 
L 2900 3500 
L 3475 3500 
L 3475 0 
L 2900 0 
L 2900 538 
Q 2691 219 2414 64 
Q 2138 -91 1772 -91 
Q 1169 -91 856 284 
Q 544 659 544 1381 
z
M 1991 3584 
L 1991 3584 
z
" transform="scale(0.015625)"/>
       <path id="DejaVuSans-74" d="M 1172 4494 
L 1172 3500 
L 2356 3500 
L 2356 3053 
L 1172 3053 
L 1172 1153 
Q 1172 725 1289 603 
Q 1406 481 1766 481 
L 2356 481 
L 2356 0 
L 1766 0 
Q 1100 0 847 248 
Q 594 497 594 1153 
L 594 3053 
L 172 3053 
L 172 3500 
L 594 3500 
L 594 4494 
L 1172 4494 
z
" transform="scale(0.015625)"/>
       <path id="DejaVuSans-73" d="M 2834 3397 
L 2834 2853 
Q 2591 2978 2328 3040 
Q 2066 3103 1784 3103 
Q 1356 3103 1142 2972 
Q 928 2841 928 2578 
Q 928 2378 1081 2264 
Q 1234 2150 1697 2047 
L 1894 2003 
Q 2506 1872 2764 1633 
Q 3022 1394 3022 966 
Q 3022 478 2636 193 
Q 2250 -91 1575 -91 
Q 1294 -91 989 -36 
Q 684 19 347 128 
L 347 722 
Q 666 556 975 473 
Q 1284 391 1588 391 
Q 1994 391 2212 530 
Q 2431 669 2431 922 
Q 2431 1156 2273 1281 
Q 2116 1406 1581 1522 
L 1381 1569 
Q 847 1681 609 1914 
Q 372 2147 372 2553 
Q 372 3047 722 3315 
Q 1072 3584 1716 3584 
Q 2034 3584 2315 3537 
Q 2597 3491 2834 3397 
z
" transform="scale(0.015625)"/>
       <path id="DejaVuSans-29" d="M 513 4856 
L 1013 4856 
Q 1481 4119 1714 3412 
Q 1947 2706 1947 2009 
Q 1947 1309 1714 600 
Q 1481 -109 1013 -844 
L 513 -844 
Q 928 -128 1133 580 
Q 1338 1288 1338 2009 
Q 1338 2731 1133 3434 
Q 928 4138 513 4856 
z
" transform="scale(0.015625)"/>
      </defs>
      <use xlink:href="#DejaVuSans-54"/>
      <use xlink:href="#DejaVuSans-69" transform="translate(57.958984 0)"/>
      <use xlink:href="#DejaVuSans-6d" transform="translate(85.742188 0)"/>
      <use xlink:href="#DejaVuSans-65" transform="translate(183.154297 0)"/>
      <use xlink:href="#DejaVuSans-20" transform="translate(244.677734 0)"/>
      <use xlink:href="#DejaVuSans-28" transform="translate(276.464844 0)"/>
      <use xlink:href="#DejaVuSans-6d" transform="translate(315.478516 0)"/>
      <use xlink:href="#DejaVuSans-69" transform="translate(412.890625 0)"/>
      <use xlink:href="#DejaVuSans-6e" transform="translate(440.673828 0)"/>
      <use xlink:href="#DejaVuSans-75" transform="translate(504.052734 0)"/>
      <use xlink:href="#DejaVuSans-74" transform="translate(567.431641 0)"/>
      <use xlink:href="#DejaVuSans-65" transform="translate(606.640625 0)"/>
      <use xlink:href="#DejaVuSans-73" transform="translate(668.164062 0)"/>
      <use xlink:href="#DejaVuSans-29" transform="translate(720.263672 0)"/>
     </g>
    </g>
   </g>
   <g id="matplotlib.axis_2">
    <g id="ytick_1">
     <g id="line2d_17">
      <path d="M 38.27 290.570629 
L 450 290.570629 
" clip-path="url(#p9b70a0ed89)" style="fill: none; stroke: #b0b0b0; stroke-opacity: 0.3; stroke-width: 0.8; stroke-linecap: square"/>
     </g>
     <g id="line2d_18">
      <defs>
       <path id="m221c889fa3" d="M 0 0 
L -3.5 0 
" style="stroke: #000000; stroke-width: 0.8"/>
      </defs>
      <g>
       <use xlink:href="#m221c889fa3" x="38.27" y="290.570629" style="stroke: #000000; stroke-width: 0.8"/>
      </g>
     </g>
     <g id="text_10">
      <!-- 0 -->
      <g transform="translate(24.9075 294.369847) scale(0.1 -0.1)">
       <use xlink:href="#DejaVuSans-30"/>
      </g>
     </g>
    </g>
    <g id="ytick_2">
     <g id="line2d_19">
      <path d="M 38.27 251.684089 
L 450 251.684089 
" clip-path="url(#p9b70a0ed89)" style="fill: none; stroke: #b0b0b0; stroke-opacity: 0.3; stroke-width: 0.8; stroke-linecap: square"/>
     </g>
     <g id="line2d_20">
      <g>
       <use xlink:href="#m221c889fa3" x="38.27" y="251.684089" style="stroke: #000000; stroke-width: 0.8"/>
      </g>
     </g>
     <g id="text_11">
      <!-- 1 -->
      <g transform="translate(24.9075 255.483308) scale(0.1 -0.1)">
       <use xlink:href="#DejaVuSans-31"/>
      </g>
     </g>
    </g>
    <g id="ytick_3">
     <g id="line2d_21">
      <path d="M 38.27 212.79755 
L 450 212.79755 
" clip-path="url(#p9b70a0ed89)" style="fill: none; stroke: #b0b0b0; stroke-opacity: 0.3; stroke-width: 0.8; stroke-linecap: square"/>
     </g>
     <g id="line2d_22">
      <g>
       <use xlink:href="#m221c889fa3" x="38.27" y="212.79755" style="stroke: #000000; stroke-width: 0.8"/>
      </g>
     </g>
     <g id="text_12">
      <!-- 2 -->
      <g transform="translate(24.9075 216.596768) scale(0.1 -0.1)">
       <use xlink:href="#DejaVuSans-32"/>
      </g>
     </g>
    </g>
    <g id="ytick_4">
     <g id="line2d_23">
      <path d="M 38.27 173.91101 
L 450 173.91101 
" clip-path="url(#p9b70a0ed89)" style="fill: none; stroke: #b0b0b0; stroke-opacity: 0.3; stroke-width: 0.8; stroke-linecap: square"/>
     </g>
     <g id="line2d_24">
      <g>
       <use xlink:href="#m221c889fa3" x="38.27" y="173.91101" style="stroke: #000000; stroke-width: 0.8"/>
      </g>
     </g>
     <g id="text_13">
      <!-- 3 -->
      <g transform="translate(24.9075 177.710229) scale(0.1 -0.1)">
       <defs>
        <path id="DejaVuSans-33" d="M 2597 2516 
Q 3050 2419 3304 2112 
Q 3559 1806 3559 1356 
Q 3559 666 3084 287 
Q 2609 -91 1734 -91 
Q 1441 -91 1130 -33 
Q 819 25 488 141 
L 488 750 
Q 750 597 1062 519 
Q 1375 441 1716 441 
Q 2309 441 2620 675 
Q 2931 909 2931 1356 
Q 2931 1769 2642 2001 
Q 2353 2234 1838 2234 
L 1294 2234 
L 1294 2753 
L 1863 2753 
Q 2328 2753 2575 2939 
Q 2822 3125 2822 3475 
Q 2822 3834 2567 4026 
Q 2313 4219 1838 4219 
Q 1578 4219 1281 4162 
Q 984 4106 628 3988 
L 628 4550 
Q 988 4650 1302 4700 
Q 1616 4750 1894 4750 
Q 2613 4750 3031 4423 
Q 3450 4097 3450 3541 
Q 3450 3153 3228 2886 
Q 3006 2619 2597 2516 
z
" transform="scale(0.015625)"/>
       </defs>
       <use xlink:href="#DejaVuSans-33"/>
      </g>
     </g>
    </g>
    <g id="ytick_5">
     <g id="line2d_25">
      <path d="M 38.27 135.024471 
L 450 135.024471 
" clip-path="url(#p9b70a0ed89)" style="fill: none; stroke: #b0b0b0; stroke-opacity: 0.3; stroke-width: 0.8; stroke-linecap: square"/>
     </g>
     <g id="line2d_26">
      <g>
       <use xlink:href="#m221c889fa3" x="38.27" y="135.024471" style="stroke: #000000; stroke-width: 0.8"/>
      </g>
     </g>
     <g id="text_14">
      <!-- 4 -->
      <g transform="translate(24.9075 138.82369) scale(0.1 -0.1)">
       <use xlink:href="#DejaVuSans-34"/>
      </g>
     </g>
    </g>
    <g id="ytick_6">
     <g id="line2d_27">
      <path d="M 38.27 96.137931 
L 450 96.137931 
" clip-path="url(#p9b70a0ed89)" style="fill: none; stroke: #b0b0b0; stroke-opacity: 0.3; stroke-width: 0.8; stroke-linecap: square"/>
     </g>
     <g id="line2d_28">
      <g>
       <use xlink:href="#m221c889fa3" x="38.27" y="96.137931" style="stroke: #000000; stroke-width: 0.8"/>
      </g>
     </g>
     <g id="text_15">
      <!-- 5 -->
      <g transform="translate(24.9075 99.93715) scale(0.1 -0.1)">
       <defs>
        <path id="DejaVuSans-35" d="M 691 4666 
L 3169 4666 
L 3169 4134 
L 1269 4134 
L 1269 2991 
Q 1406 3038 1543 3061 
Q 1681 3084 1819 3084 
Q 2600 3084 3056 2656 
Q 3513 2228 3513 1497 
Q 3513 744 3044 326 
Q 2575 -91 1722 -91 
Q 1428 -91 1123 -41 
Q 819 9 494 109 
L 494 744 
Q 775 591 1075 516 
Q 1375 441 1709 441 
Q 2250 441 2565 725 
Q 2881 1009 2881 1497 
Q 2881 1984 2565 2268 
Q 2250 2553 1709 2553 
Q 1456 2553 1204 2497 
Q 953 2441 691 2322 
L 691 4666 
z
" transform="scale(0.015625)"/>
       </defs>
       <use xlink:href="#DejaVuSans-35"/>
      </g>
     </g>
    </g>
    <g id="ytick_7">
     <g id="line2d_29">
      <path d="M 38.27 57.251392 
L 450 57.251392 
" clip-path="url(#p9b70a0ed89)" style="fill: none; stroke: #b0b0b0; stroke-opacity: 0.3; stroke-width: 0.8; stroke-linecap: square"/>
     </g>
     <g id="line2d_30">
      <g>
       <use xlink:href="#m221c889fa3" x="38.27" y="57.251392" style="stroke: #000000; stroke-width: 0.8"/>
      </g>
     </g>
     <g id="text_16">
      <!-- 6 -->
      <g transform="translate(24.9075 61.050611) scale(0.1 -0.1)">
       <use xlink:href="#DejaVuSans-36"/>
      </g>
     </g>
    </g>
    <g id="text_17">
     <!-- Gaussian filtered EDA (μS) -->
     <g transform="translate(18.827813 230.613437) rotate(-90) scale(0.1 -0.1)">
      <defs>
       <path id="DejaVuSans-47" d="M 3809 666 
L 3809 1919 
L 2778 1919 
L 2778 2438 
L 4434 2438 
L 4434 434 
Q 4069 175 3628 42 
Q 3188 -91 2688 -91 
Q 1594 -91 976 548 
Q 359 1188 359 2328 
Q 359 3472 976 4111 
Q 1594 4750 2688 4750 
Q 3144 4750 3555 4637 
Q 3966 4525 4313 4306 
L 4313 3634 
Q 3963 3931 3569 4081 
Q 3175 4231 2741 4231 
Q 1884 4231 1454 3753 
Q 1025 3275 1025 2328 
Q 1025 1384 1454 906 
Q 1884 428 2741 428 
Q 3075 428 3337 486 
Q 3600 544 3809 666 
z
" transform="scale(0.015625)"/>
       <path id="DejaVuSans-61" d="M 2194 1759 
Q 1497 1759 1228 1600 
Q 959 1441 959 1056 
Q 959 750 1161 570 
Q 1363 391 1709 391 
Q 2188 391 2477 730 
Q 2766 1069 2766 1631 
L 2766 1759 
L 2194 1759 
z
M 3341 1997 
L 3341 0 
L 2766 0 
L 2766 531 
Q 2569 213 2275 61 
Q 1981 -91 1556 -91 
Q 1019 -91 701 211 
Q 384 513 384 1019 
Q 384 1609 779 1909 
Q 1175 2209 1959 2209 
L 2766 2209 
L 2766 2266 
Q 2766 2663 2505 2880 
Q 2244 3097 1772 3097 
Q 1472 3097 1187 3025 
Q 903 2953 641 2809 
L 641 3341 
Q 956 3463 1253 3523 
Q 1550 3584 1831 3584 
Q 2591 3584 2966 3190 
Q 3341 2797 3341 1997 
z
" transform="scale(0.015625)"/>
       <path id="DejaVuSans-66" d="M 2375 4863 
L 2375 4384 
L 1825 4384 
Q 1516 4384 1395 4259 
Q 1275 4134 1275 3809 
L 1275 3500 
L 2222 3500 
L 2222 3053 
L 1275 3053 
L 1275 0 
L 697 0 
L 697 3053 
L 147 3053 
L 147 3500 
L 697 3500 
L 697 3744 
Q 697 4328 969 4595 
Q 1241 4863 1831 4863 
L 2375 4863 
z
" transform="scale(0.015625)"/>
       <path id="DejaVuSans-6c" d="M 603 4863 
L 1178 4863 
L 1178 0 
L 603 0 
L 603 4863 
z
" transform="scale(0.015625)"/>
       <path id="DejaVuSans-72" d="M 2631 2963 
Q 2534 3019 2420 3045 
Q 2306 3072 2169 3072 
Q 1681 3072 1420 2755 
Q 1159 2438 1159 1844 
L 1159 0 
L 581 0 
L 581 3500 
L 1159 3500 
L 1159 2956 
Q 1341 3275 1631 3429 
Q 1922 3584 2338 3584 
Q 2397 3584 2469 3576 
Q 2541 3569 2628 3553 
L 2631 2963 
z
" transform="scale(0.015625)"/>
       <path id="DejaVuSans-64" d="M 2906 2969 
L 2906 4863 
L 3481 4863 
L 3481 0 
L 2906 0 
L 2906 525 
Q 2725 213 2448 61 
Q 2172 -91 1784 -91 
Q 1150 -91 751 415 
Q 353 922 353 1747 
Q 353 2572 751 3078 
Q 1150 3584 1784 3584 
Q 2172 3584 2448 3432 
Q 2725 3281 2906 2969 
z
M 947 1747 
Q 947 1113 1208 752 
Q 1469 391 1925 391 
Q 2381 391 2643 752 
Q 2906 1113 2906 1747 
Q 2906 2381 2643 2742 
Q 2381 3103 1925 3103 
Q 1469 3103 1208 2742 
Q 947 2381 947 1747 
z
" transform="scale(0.015625)"/>
       <path id="DejaVuSans-45" d="M 628 4666 
L 3578 4666 
L 3578 4134 
L 1259 4134 
L 1259 2753 
L 3481 2753 
L 3481 2222 
L 1259 2222 
L 1259 531 
L 3634 531 
L 3634 0 
L 628 0 
L 628 4666 
z
" transform="scale(0.015625)"/>
       <path id="DejaVuSans-44" d="M 1259 4147 
L 1259 519 
L 2022 519 
Q 2988 519 3436 956 
Q 3884 1394 3884 2338 
Q 3884 3275 3436 3711 
Q 2988 4147 2022 4147 
L 1259 4147 
z
M 628 4666 
L 1925 4666 
Q 3281 4666 3915 4102 
Q 4550 3538 4550 2338 
Q 4550 1131 3912 565 
Q 3275 0 1925 0 
L 628 0 
L 628 4666 
z
" transform="scale(0.015625)"/>
       <path id="DejaVuSans-41" d="M 2188 4044 
L 1331 1722 
L 3047 1722 
L 2188 4044 
z
M 1831 4666 
L 2547 4666 
L 4325 0 
L 3669 0 
L 3244 1197 
L 1141 1197 
L 716 0 
L 50 0 
L 1831 4666 
z
" transform="scale(0.015625)"/>
       <path id="DejaVuSans-3bc" d="M 544 -1331 
L 544 3500 
L 1119 3500 
L 1119 1325 
Q 1119 872 1334 640 
Q 1550 409 1972 409 
Q 2434 409 2667 671 
Q 2900 934 2900 1459 
L 2900 3500 
L 3475 3500 
L 3475 806 
Q 3475 619 3529 530 
Q 3584 441 3700 441 
Q 3728 441 3778 458 
Q 3828 475 3916 513 
L 3916 50 
Q 3788 -22 3673 -56 
Q 3559 -91 3450 -91 
Q 3234 -91 3106 31 
Q 2978 153 2931 403 
Q 2775 156 2548 32 
Q 2322 -91 2016 -91 
Q 1697 -91 1473 31 
Q 1250 153 1119 397 
L 1119 -1331 
L 544 -1331 
z
" transform="scale(0.015625)"/>
       <path id="DejaVuSans-53" d="M 3425 4513 
L 3425 3897 
Q 3066 4069 2747 4153 
Q 2428 4238 2131 4238 
Q 1616 4238 1336 4038 
Q 1056 3838 1056 3469 
Q 1056 3159 1242 3001 
Q 1428 2844 1947 2747 
L 2328 2669 
Q 3034 2534 3370 2195 
Q 3706 1856 3706 1288 
Q 3706 609 3251 259 
Q 2797 -91 1919 -91 
Q 1588 -91 1214 -16 
Q 841 59 441 206 
L 441 856 
Q 825 641 1194 531 
Q 1563 422 1919 422 
Q 2459 422 2753 634 
Q 3047 847 3047 1241 
Q 3047 1584 2836 1778 
Q 2625 1972 2144 2069 
L 1759 2144 
Q 1053 2284 737 2584 
Q 422 2884 422 3419 
Q 422 4038 858 4394 
Q 1294 4750 2059 4750 
Q 2388 4750 2728 4690 
Q 3069 4631 3425 4513 
z
" transform="scale(0.015625)"/>
      </defs>
      <use xlink:href="#DejaVuSans-47"/>
      <use xlink:href="#DejaVuSans-61" transform="translate(77.490234 0)"/>
      <use xlink:href="#DejaVuSans-75" transform="translate(138.769531 0)"/>
      <use xlink:href="#DejaVuSans-73" transform="translate(202.148438 0)"/>
      <use xlink:href="#DejaVuSans-73" transform="translate(254.248047 0)"/>
      <use xlink:href="#DejaVuSans-69" transform="translate(306.347656 0)"/>
      <use xlink:href="#DejaVuSans-61" transform="translate(334.130859 0)"/>
      <use xlink:href="#DejaVuSans-6e" transform="translate(395.410156 0)"/>
      <use xlink:href="#DejaVuSans-20" transform="translate(458.789062 0)"/>
      <use xlink:href="#DejaVuSans-66" transform="translate(490.576172 0)"/>
      <use xlink:href="#DejaVuSans-69" transform="translate(525.78125 0)"/>
      <use xlink:href="#DejaVuSans-6c" transform="translate(553.564453 0)"/>
      <use xlink:href="#DejaVuSans-74" transform="translate(581.347656 0)"/>
      <use xlink:href="#DejaVuSans-65" transform="translate(620.556641 0)"/>
      <use xlink:href="#DejaVuSans-72" transform="translate(682.080078 0)"/>
      <use xlink:href="#DejaVuSans-65" transform="translate(720.943359 0)"/>
      <use xlink:href="#DejaVuSans-64" transform="translate(782.466797 0)"/>
      <use xlink:href="#DejaVuSans-20" transform="translate(845.943359 0)"/>
      <use xlink:href="#DejaVuSans-45" transform="translate(877.730469 0)"/>
      <use xlink:href="#DejaVuSans-44" transform="translate(940.914062 0)"/>
      <use xlink:href="#DejaVuSans-41" transform="translate(1016.166016 0)"/>
      <use xlink:href="#DejaVuSans-20" transform="translate(1084.574219 0)"/>
      <use xlink:href="#DejaVuSans-28" transform="translate(1116.361328 0)"/>
      <use xlink:href="#DejaVuSans-3bc" transform="translate(1155.375 0)"/>
      <use xlink:href="#DejaVuSans-53" transform="translate(1218.998047 0)"/>
      <use xlink:href="#DejaVuSans-29" transform="translate(1282.474609 0)"/>
     </g>
    </g>
   </g>
   <g id="line2d_31">
    <path d="M 56.985 90.157025 
L 57.71321 92.908388 
L 60.417991 104.028516 
L 61.354261 106.469258 
L 63.955011 112.197241 
L 65.099341 114.338035 
L 66.035611 115.646595 
L 66.867852 116.446523 
L 67.700092 116.934044 
L 70.300842 118.146224 
L 73.213683 120.202478 
L 73.837863 120.286606 
L 74.253983 120.139634 
L 74.670103 119.760711 
L 75.086223 119.093385 
L 75.606373 117.800865 
L 76.230553 115.600947 
L 77.478913 110.075446 
L 78.415183 106.490163 
L 78.935334 105.191908 
L 79.351454 104.626782 
L 79.663544 104.509318 
L 79.975634 104.666965 
L 80.287724 105.102195 
L 80.703844 106.098995 
L 81.328024 108.36625 
L 83.408624 116.880413 
L 83.720714 117.330788 
L 83.928774 117.416291 
L 84.136834 117.324692 
L 84.448924 116.860787 
L 84.865044 115.683952 
L 85.489225 112.99721 
L 87.881915 101.431228 
L 88.298035 100.434411 
L 88.610125 100.076424 
L 88.818185 100.043216 
L 89.026245 100.181106 
L 89.338335 100.707745 
L 89.754455 101.959923 
L 90.482665 105.158677 
L 91.314906 108.605761 
L 91.731026 109.455148 
L 91.939086 109.552385 
L 92.147146 109.414078 
L 92.459236 108.772039 
L 92.875356 107.206157 
L 93.707596 102.785328 
L 94.435806 99.391044 
L 94.851926 98.222307 
L 95.164016 97.772116 
L 95.476106 97.657859 
L 95.788196 97.824172 
L 96.204316 98.365663 
L 96.932526 99.777535 
L 98.388947 102.617269 
L 100.261487 105.747832 
L 100.677607 107.350261 
L 101.093727 109.84366 
L 101.613877 114.538999 
L 102.238057 122.557073 
L 104.422688 153.480768 
L 104.838808 155.779507 
L 105.046868 156.189361 
L 105.150898 156.200953 
L 105.358958 155.830624 
L 105.671048 154.284937 
L 106.087168 150.410812 
L 106.607318 142.911952 
L 107.335528 128.764612 
L 108.895978 97.652245 
L 109.520158 89.767614 
L 110.040309 85.970963 
L 110.456429 84.566721 
L 110.664489 84.325578 
L 110.872549 84.34742 
L 111.080609 84.600994 
L 111.392699 85.358044 
L 111.808819 86.971401 
L 112.328969 89.844129 
L 113.057179 95.334836 
L 115.241809 113.722692 
L 115.657929 115.115289 
L 115.865989 115.378005 
L 116.074049 115.35651 
L 116.28211 115.068034 
L 116.5942 114.196143 
L 117.11435 111.904699 
L 118.25868 106.547067 
L 118.6748 105.503923 
L 118.98689 105.174006 
L 119.29898 105.190812 
L 119.7151 105.595923 
L 120.65137 106.701858 
L 120.96346 106.756579 
L 121.27555 106.57199 
L 121.69167 105.993928 
L 123.356151 103.194835 
L 124.084361 102.791503 
L 124.500481 102.461185 
L 124.916601 101.782944 
L 125.332721 100.607554 
L 125.852871 98.428913 
L 127.413321 91.186339 
L 127.829441 90.30752 
L 128.141531 90.06115 
L 128.453621 90.10686 
L 128.869742 90.465122 
L 130.326162 91.964208 
L 130.846312 92.564348 
L 131.262432 93.390168 
L 131.782582 95.079232 
L 132.406762 98.074333 
L 134.279302 107.922623 
L 134.903482 109.840509 
L 135.631693 111.287213 
L 136.463933 112.846158 
L 136.880053 114.067593 
L 137.296173 115.915058 
L 137.816323 119.494197 
L 138.336473 124.839722 
L 138.960653 133.668824 
L 140.937223 164.652869 
L 141.353344 167.432391 
L 141.561404 167.956897 
L 141.665434 167.998513 
L 141.873494 167.648767 
L 142.185584 166.10276 
L 142.601704 162.412784 
L 143.329914 153.136145 
L 144.578274 136.895862 
L 145.202454 131.170306 
L 145.722604 127.973824 
L 146.138724 126.443059 
L 146.450814 125.898978 
L 146.658874 125.833728 
L 146.866934 126.016899 
L 147.179024 126.782478 
L 147.595145 128.782124 
L 148.011265 131.964231 
L 148.635445 138.912824 
L 149.467685 151.222284 
L 150.924105 172.907188 
L 151.548285 179.325524 
L 152.068435 182.698546 
L 152.380525 183.782242 
L 152.588585 184.096011 
L 152.796645 184.075798 
L 153.004705 183.717803 
L 153.316795 182.545603 
L 153.732916 179.815425 
L 154.253066 174.63645 
L 154.981276 164.593027 
L 156.125606 144.903438 
L 157.373966 124.440195 
L 158.102176 115.970218 
L 158.622326 112.019856 
L 159.142476 109.721887 
L 159.558596 108.859003 
L 159.870686 108.632389 
L 160.182777 108.649412 
L 160.806957 109.017657 
L 161.431137 109.337688 
L 161.951287 109.376424 
L 162.783527 109.377253 
L 163.095617 109.634996 
L 163.407707 110.216323 
L 163.719797 111.2477 
L 164.135917 113.51446 
L 164.656067 118.007849 
L 165.280247 125.745426 
L 166.944728 148.495466 
L 167.360848 151.355865 
L 167.672938 152.219165 
L 167.880998 152.187451 
L 168.089058 151.706529 
L 168.401148 150.26195 
L 168.921298 146.528033 
L 170.377718 135.424573 
L 171.522048 129.333342 
L 172.770409 122.169874 
L 173.706679 117.234892 
L 174.226829 115.396983 
L 174.642949 114.503935 
L 175.059069 114.074798 
L 175.475189 114.000856 
L 175.995339 114.20777 
L 177.243699 114.845928 
L 177.867879 114.864863 
L 178.492059 114.634296 
L 179.3243 114.052567 
L 180.46863 113.250395 
L 181.09281 113.086444 
L 181.61296 113.162898 
L 182.23714 113.475943 
L 183.79759 114.434457 
L 184.21371 114.392109 
L 184.5258 114.164377 
L 184.941921 113.528089 
L 185.358041 112.467509 
L 185.982221 110.143568 
L 187.646701 103.413219 
L 188.062821 102.614161 
L 188.374911 102.371508 
L 188.687001 102.423699 
L 188.999091 102.741334 
L 189.415211 103.507047 
L 190.039391 105.173218 
L 191.391782 109.659931 
L 192.952232 114.598134 
L 193.680442 116.244951 
L 194.200592 116.927592 
L 194.616712 117.122827 
L 195.032832 117.013719 
L 195.448952 116.650674 
L 196.281192 115.512623 
L 197.217462 114.345819 
L 197.841643 113.907066 
L 198.881943 113.543097 
L 199.610153 113.152006 
L 200.338363 112.449508 
L 201.898813 110.439348 
L 203.147173 108.657744 
L 204.083444 106.865854 
L 206.164044 102.710972 
L 208.452704 98.916312 
L 210.949425 95.174803 
L 211.573605 93.450056 
L 212.405845 90.35225 
L 213.550175 86.025919 
L 214.070325 84.81496 
L 214.486445 84.387876 
L 214.798535 84.387954 
L 215.110625 84.633558 
L 215.526745 85.263178 
L 216.358986 87.049748 
L 217.191226 88.692368 
L 217.711376 89.321154 
L 218.127496 89.524188 
L 218.543616 89.440545 
L 218.959736 89.071534 
L 219.479886 88.227712 
L 220.104066 86.687303 
L 220.832276 84.18626 
L 221.768546 80.021004 
L 223.016907 74.488694 
L 223.641087 72.753409 
L 224.057207 72.136713 
L 224.473327 71.89982 
L 224.889447 71.93723 
L 225.721687 72.351281 
L 226.553927 72.662758 
L 227.698257 72.968623 
L 228.114377 73.368948 
L 228.530497 74.137267 
L 228.946618 75.394754 
L 229.466768 77.760181 
L 230.090948 81.74169 
L 231.027218 89.451768 
L 234.044088 115.685065 
L 234.668268 119.039278 
L 235.084389 120.39911 
L 235.396479 120.88211 
L 235.604539 120.928317 
L 235.812599 120.744613 
L 236.124689 120.027351 
L 236.540809 118.242497 
L 237.060959 114.742294 
L 237.789169 107.902399 
L 239.869769 86.531905 
L 240.389919 83.450757 
L 240.806039 82.094207 
L 241.11813 81.721663 
L 241.32619 81.755996 
L 241.63828 82.172975 
L 242.0544 83.243813 
L 243.61485 87.833284 
L 244.03097 88.32441 
L 244.44709 88.477502 
L 245.69545 88.561699 
L 246.11157 88.984382 
L 246.63172 89.918241 
L 248.192171 93.217277 
L 248.504261 93.444669 
L 248.816351 93.400173 
L 249.128441 93.059807 
L 249.544561 92.141231 
L 250.064711 90.323612 
L 251.105011 85.503448 
L 251.833221 82.568408 
L 252.353371 81.300925 
L 252.769491 80.87078 
L 253.081581 80.849949 
L 253.497702 81.115932 
L 255.682332 83.125022 
L 256.618602 83.808124 
L 257.346812 84.669998 
L 260.155623 88.459085 
L 260.883833 88.983897 
L 261.403983 89.109654 
L 261.820103 88.976514 
L 262.236223 88.567316 
L 262.652343 87.836816 
L 263.172493 86.464331 
L 264.004733 83.497435 
L 265.149063 79.543203 
L 265.773243 78.12231 
L 266.605484 76.851313 
L 267.853844 74.928218 
L 268.478024 74.106368 
L 268.894144 73.880064 
L 269.206234 73.950725 
L 269.518324 74.242591 
L 269.934444 74.949237 
L 270.662654 76.786921 
L 272.327135 81.184731 
L 273.367435 83.181628 
L 274.719825 85.225862 
L 275.968185 86.770067 
L 276.696395 87.361949 
L 277.216545 87.52007 
L 277.632665 87.425036 
L 278.048785 87.083969 
L 278.464906 86.449092 
L 278.985056 85.170888 
L 279.505206 83.290541 
L 280.233416 79.670707 
L 282.001926 70.018158 
L 282.418046 68.79572 
L 282.730136 68.314869 
L 283.042226 68.189213 
L 283.354316 68.364942 
L 283.770436 68.931046 
L 285.226857 71.276825 
L 285.747007 71.652003 
L 286.371187 71.799332 
L 287.307457 71.744844 
L 288.139697 71.524123 
L 288.867907 71.110409 
L 290.324327 70.174647 
L 291.572688 69.665561 
L 291.884778 69.24006 
L 292.300898 68.196796 
L 292.717018 66.43305 
L 293.237168 63.057304 
L 293.965378 56.379014 
L 295.421798 42.248524 
L 295.941948 39.323023 
L 296.358068 38.228031 
L 296.566128 38.085455 
L 296.774188 38.190263 
L 297.086278 38.758978 
L 297.502399 40.147312 
L 298.126579 43.203149 
L 298.958819 48.595507 
L 299.791059 55.514933 
L 300.935389 67.236735 
L 302.079719 78.456665 
L 302.807929 83.523268 
L 303.43211 86.266105 
L 303.95226 87.562463 
L 304.36838 88.079851 
L 304.7845 88.228712 
L 305.20062 88.075698 
L 305.61674 87.669819 
L 306.24092 86.675458 
L 307.28122 84.438092 
L 308.11346 82.82748 
L 308.63361 82.218475 
L 309.04973 82.02445 
L 309.46585 82.083571 
L 309.986001 82.431774 
L 311.442421 83.593189 
L 311.858541 83.610983 
L 312.274661 83.370033 
L 312.690781 82.801282 
L 313.106901 81.814511 
L 313.523021 80.298723 
L 314.043171 77.485526 
L 314.667351 72.568629 
L 315.395561 64.849307 
L 317.060042 46.435769 
L 317.580192 43.335823 
L 317.892282 42.451725 
L 318.100342 42.258565 
L 318.308402 42.353087 
L 318.620492 42.949484 
L 319.140642 44.742312 
L 320.180942 48.523035 
L 320.701092 49.579627 
L 321.221242 50.127473 
L 321.949452 50.824257 
L 322.365573 51.578992 
L 322.885723 53.121466 
L 323.509903 55.902228 
L 324.238113 60.333465 
L 325.070353 66.96016 
L 325.902593 75.406292 
L 327.150953 90.761957 
L 329.127524 115.08038 
L 330.167824 125.179148 
L 330.896034 130.291905 
L 331.520214 133.177547 
L 332.040364 134.603244 
L 332.456484 135.228992 
L 332.872604 135.523603 
L 333.392754 135.602806 
L 335.889475 135.540362 
L 336.929775 135.930522 
L 338.282165 136.721551 
L 339.738585 137.517242 
L 340.674855 137.749439 
L 342.859486 138.078597 
L 343.587696 138.560979 
L 344.315906 139.324537 
L 345.460236 140.909733 
L 346.396506 142.109933 
L 346.916656 142.491356 
L 347.332777 142.55602 
L 347.748897 142.367202 
L 348.165017 141.914011 
L 348.685167 141.007373 
L 349.621437 138.805251 
L 350.453677 137.048143 
L 350.973827 136.450298 
L 351.285917 136.3405 
L 351.598007 136.418152 
L 352.014127 136.777816 
L 352.638307 137.683174 
L 353.678608 139.201404 
L 354.094728 139.467227 
L 354.406818 139.431244 
L 354.718908 139.140009 
L 355.030998 138.548365 
L 355.447118 137.229661 
L 355.967268 134.67938 
L 356.695478 129.65577 
L 358.151898 119.078183 
L 358.672048 116.840579 
L 359.088168 115.888674 
L 359.400258 115.599747 
L 359.712349 115.581362 
L 360.232499 115.86367 
L 360.752649 116.119994 
L 361.064739 116.103778 
L 361.376829 115.903052 
L 361.792949 115.332754 
L 362.417129 113.96069 
L 363.561459 111.336433 
L 363.977579 110.892214 
L 364.289669 110.858661 
L 364.601759 111.10337 
L 365.017879 111.852405 
L 365.538029 113.368687 
L 366.4743 117.001671 
L 367.61863 121.240817 
L 368.34684 123.202972 
L 368.97102 124.371274 
L 369.49117 124.987505 
L 370.01132 125.26283 
L 370.42744 125.227232 
L 370.84356 124.975482 
L 371.46774 124.298807 
L 372.508041 123.157048 
L 372.924161 122.996015 
L 373.340281 123.099742 
L 373.756401 123.468401 
L 374.380581 124.41694 
L 377.189391 129.341981 
L 378.229691 130.461404 
L 379.061932 131.075293 
L 379.686112 131.291034 
L 380.206262 131.231043 
L 380.726412 130.896022 
L 381.246562 130.265222 
L 381.974772 128.941725 
L 383.015072 126.472839 
L 383.951342 123.757227 
L 384.679553 120.977649 
L 385.511793 116.768684 
L 387.072243 108.428842 
L 387.592393 106.849155 
L 388.008513 106.289091 
L 388.320603 106.265421 
L 388.632693 106.536188 
L 389.048813 107.25267 
L 389.777023 109.061933 
L 391.441504 113.26893 
L 392.481804 115.214387 
L 393.730164 116.996972 
L 395.290614 119.268443 
L 397.163155 122.076218 
L 398.203455 123.206498 
L 399.555845 124.327777 
L 401.428385 125.581684 
L 403.717046 127.134146 
L 404.965406 127.929088 
L 405.589586 128.091831 
L 406.109736 128.009687 
L 406.629886 127.686991 
L 407.254066 126.992846 
L 409.126606 124.609811 
L 409.542727 124.456176 
L 409.958847 124.49865 
L 410.583027 124.824948 
L 411.727357 125.471695 
L 412.351537 125.515234 
L 412.975717 125.316114 
L 413.807957 124.808302 
L 414.744227 123.983761 
L 415.888558 122.613564 
L 416.720798 121.757139 
L 417.240948 121.532963 
L 417.657068 121.584895 
L 418.177218 121.922383 
L 418.905428 122.734672 
L 420.569908 124.672595 
L 423.898869 127.768369 
L 424.523049 127.967152 
L 425.043199 127.916803 
L 425.771409 127.59542 
L 426.915739 127.068899 
L 427.435889 127.059018 
L 427.956039 127.259715 
L 428.58022 127.751655 
L 429.62052 128.922337 
L 431.07694 130.505706 
L 431.285 130.682593 
L 431.285 130.682593 
" clip-path="url(#p9b70a0ed89)" style="fill: none; stroke-dasharray: 1.85,0.8; stroke-dashoffset: 0; stroke: #1f77b4; stroke-width: 0.5"/>
   </g>
   <g id="line2d_32">
    <path d="M 56.985 90.840617 
L 57.40112 91.779282 
L 58.0253 93.873166 
L 58.85754 97.570169 
L 61.458291 109.809211 
L 62.186501 111.991943 
L 62.914711 113.545897 
L 63.642921 114.599921 
L 64.371131 115.282862 
L 65.307401 115.823026 
L 68.324272 117.303347 
L 69.156512 118.078775 
L 69.988752 119.173819 
L 71.965322 121.934004 
L 72.589503 122.365369 
L 73.005623 122.420934 
L 73.421743 122.246627 
L 73.837863 121.806004 
L 74.358013 120.901202 
L 75.190253 118.896992 
L 77.166823 113.861518 
L 77.791003 112.935518 
L 78.207123 112.654542 
L 78.623243 112.624569 
L 79.039364 112.805673 
L 79.559514 113.268061 
L 80.391754 114.369502 
L 82.160264 116.862876 
L 82.888474 117.465328 
L 83.512654 117.719327 
L 84.136834 117.732217 
L 84.761014 117.505039 
L 85.385195 117.038831 
L 86.113405 116.194199 
L 87.049675 114.688966 
L 89.234305 110.96904 
L 89.962515 110.214646 
L 90.482665 109.973415 
L 91.002815 109.978477 
L 91.835056 110.262689 
L 92.771326 110.545332 
L 93.291476 110.482568 
L 93.707596 110.233982 
L 94.123716 109.754277 
L 94.643866 108.75521 
L 95.372076 106.737285 
L 96.620436 103.227408 
L 97.140586 102.368708 
L 97.452676 102.170453 
L 97.764767 102.270351 
L 98.076857 102.717845 
L 98.388947 103.562376 
L 98.805067 105.387668 
L 99.325217 108.758794 
L 100.053427 115.075941 
L 101.197757 127.26044 
L 102.966267 146.001619 
L 103.798508 152.500669 
L 104.422688 155.739571 
L 104.838808 156.956434 
L 105.150898 157.31227 
L 105.358958 157.263889 
L 105.567018 156.974295 
L 105.879108 156.063768 
L 106.295228 153.903663 
L 106.815378 149.560328 
L 107.439558 141.837671 
L 108.375828 126.76906 
L 110.040309 99.691002 
L 110.664489 92.752905 
L 111.080609 89.943783 
L 111.392699 88.974167 
L 111.600759 88.83567 
L 111.808819 89.061883 
L 112.120909 90.006997 
L 112.537029 92.210669 
L 113.161209 96.958291 
L 115.137779 113.171213 
L 115.553899 114.857433 
L 115.865989 115.508919 
L 116.178079 115.707972 
L 116.38614 115.621833 
L 116.69823 115.213126 
L 117.11435 114.248864 
L 117.84256 111.846351 
L 118.98689 108.002445 
L 119.50704 106.975264 
L 119.81913 106.719016 
L 120.13122 106.695678 
L 120.54734 106.948092 
L 121.17152 107.714843 
L 122.31585 109.225434 
L 122.731971 109.453914 
L 123.044061 109.406641 
L 123.356151 109.12133 
L 123.668241 108.552403 
L 124.084361 107.342379 
L 124.708541 104.775927 
L 125.852871 98.865563 
L 126.997201 93.356894 
L 127.621381 91.348168 
L 128.037501 90.631712 
L 128.349591 90.42883 
L 128.661681 90.481937 
L 128.973772 90.763413 
L 129.389892 91.446212 
L 130.014072 92.996347 
L 130.950342 96.067568 
L 134.175272 107.854711 
L 134.903482 112.122121 
L 135.631693 117.900147 
L 136.359903 125.611045 
L 137.504233 140.797058 
L 139.064683 161.130597 
L 139.792893 167.883775 
L 140.313043 170.816636 
L 140.625133 171.689056 
L 140.833193 171.924214 
L 141.041253 171.902558 
L 141.249314 171.641531 
L 141.561404 170.83933 
L 141.977524 169.09474 
L 142.601704 165.314905 
L 143.537974 157.960661 
L 145.410514 142.93884 
L 146.138724 138.898807 
L 146.658874 137.149346 
L 146.970964 136.656831 
L 147.179024 136.589154 
L 147.387084 136.745978 
L 147.699175 137.432092 
L 148.011265 138.700322 
L 148.427385 141.376649 
L 148.947535 146.392153 
L 149.779775 157.182148 
L 151.444255 179.62161 
L 152.068435 185.0068 
L 152.484555 186.805617 
L 152.692615 187.046721 
L 152.900675 186.804522 
L 153.212765 185.592228 
L 153.628885 182.570195 
L 154.149036 176.917474 
L 154.981276 164.796248 
L 157.477996 125.757567 
L 158.310236 117.381615 
L 158.934416 113.009756 
L 159.454566 110.591261 
L 159.870686 109.444693 
L 160.182777 109.038312 
L 160.390837 108.98113 
L 160.598897 109.093549 
L 160.910987 109.577572 
L 161.327107 110.800617 
L 161.847257 113.16215 
L 162.575467 117.72056 
L 163.615767 125.926088 
L 166.112487 146.269898 
L 166.944728 151.060968 
L 167.568908 153.453363 
L 167.985028 154.357834 
L 168.297118 154.628727 
L 168.505178 154.60047 
L 168.817268 154.225037 
L 169.129358 153.42623 
L 169.545478 151.659837 
L 170.065628 148.412508 
L 170.897868 141.512443 
L 173.290559 120.261437 
L 173.914739 116.911323 
L 174.434889 115.190079 
L 174.851009 114.392813 
L 175.267129 114.016082 
L 175.683249 113.9724 
L 176.099369 114.174279 
L 176.827579 114.8553 
L 177.763849 115.687645 
L 178.283999 115.856413 
L 178.90818 115.794573 
L 179.63639 115.470625 
L 181.92505 114.223433 
L 182.65326 114.186143 
L 184.73386 114.254151 
L 185.358041 113.960427 
L 185.878191 113.484167 
L 186.502371 112.58026 
L 187.646701 110.393894 
L 188.687001 108.584368 
L 189.311181 107.933143 
L 189.727301 107.789008 
L 190.039391 107.870353 
L 190.455511 108.266099 
L 190.975661 109.171522 
L 191.703872 110.982123 
L 193.992532 117.18621 
L 194.512682 117.942461 
L 194.928802 118.23861 
L 195.344922 118.294444 
L 195.761042 118.145633 
L 196.281192 117.726182 
L 197.009402 116.828049 
L 199.818213 113.008488 
L 202.106873 110.374121 
L 203.043143 108.902443 
L 204.395534 106.266501 
L 206.788224 101.557799 
L 207.932554 99.861607 
L 210.013155 96.898096 
L 210.949425 95.098383 
L 212.093755 92.275656 
L 213.550175 88.737267 
L 214.278385 87.490231 
L 214.798535 86.978235 
L 215.214655 86.857037 
L 215.630775 87.00158 
L 216.150926 87.458307 
L 218.231526 89.689545 
L 218.647646 89.702154 
L 218.959736 89.512625 
L 219.375856 88.938043 
L 219.896006 87.682517 
L 220.624216 85.160591 
L 221.976606 79.368539 
L 223.120937 74.924542 
L 223.745117 73.262936 
L 224.265267 72.414181 
L 224.681387 72.061731 
L 225.097507 71.978425 
L 225.513627 72.144762 
L 226.033777 72.674035 
L 226.657957 73.7302 
L 227.386167 75.459731 
L 228.322437 78.340344 
L 229.258708 82.032261 
L 230.194978 86.714014 
L 231.131248 92.564685 
L 232.171548 100.629382 
L 234.044088 115.797988 
L 234.668268 119.260505 
L 235.084389 120.708747 
L 235.396479 121.241631 
L 235.604539 121.299869 
L 235.812599 121.099624 
L 236.124689 120.280828 
L 236.540809 118.292659 
L 237.164989 113.796054 
L 238.101259 104.980939 
L 239.557679 91.198407 
L 240.181859 87.079522 
L 240.702009 85.019012 
L 241.11813 84.178727 
L 241.43022 83.954089 
L 241.74231 84.030068 
L 242.0544 84.364345 
L 242.47052 85.1387 
L 243.0947 86.800735 
L 245.1753 92.779769 
L 245.90351 94.099887 
L 246.52769 94.82398 
L 247.04784 95.123979 
L 247.463961 95.156589 
L 247.880081 94.998082 
L 248.400231 94.521664 
L 249.024411 93.548554 
L 249.856651 91.740295 
L 252.873521 84.560741 
L 253.601732 83.612137 
L 254.225912 83.148809 
L 254.746062 83.002068 
L 255.266212 83.067066 
L 255.786362 83.338301 
L 256.410542 83.928272 
L 257.138752 84.963823 
L 258.595172 87.608005 
L 259.635472 89.242562 
L 260.259653 89.840799 
L 260.675773 90.00224 
L 261.091893 89.931116 
L 261.508013 89.62287 
L 262.028163 88.945832 
L 262.756373 87.552579 
L 263.692643 85.220845 
L 266.813544 76.949224 
L 267.645784 75.536032 
L 268.269964 74.910436 
L 268.686084 74.741613 
L 269.102204 74.797163 
L 269.518324 75.095771 
L 270.038474 75.785317 
L 270.766684 77.227351 
L 271.702954 79.642643 
L 274.407735 86.963871 
L 275.239975 88.462672 
L 275.864155 89.163309 
L 276.384305 89.414415 
L 276.800425 89.368817 
L 277.216545 89.082033 
L 277.632665 88.533673 
L 278.152815 87.48539 
L 278.881026 85.490406 
L 280.129386 81.288416 
L 281.585806 76.563299 
L 282.418046 74.607695 
L 283.146256 73.411209 
L 283.874466 72.620819 
L 284.602676 72.16564 
L 285.330887 71.97479 
L 286.163127 71.989272 
L 289.179997 72.306618 
L 289.908207 71.999509 
L 290.532387 71.485104 
L 291.156568 70.6799 
L 291.780748 69.526545 
L 292.508958 67.664422 
L 293.237168 65.159285 
L 294.069408 61.392076 
L 295.109708 55.400779 
L 296.358068 48.483946 
L 296.982248 46.150515 
L 297.398369 45.306465 
L 297.710459 45.138491 
L 297.918519 45.278129 
L 298.230609 45.90523 
L 298.646729 47.586415 
L 299.166879 50.901142 
L 299.895089 57.192498 
L 302.599869 82.526845 
L 303.224049 85.62177 
L 303.7442 87.167968 
L 304.16032 87.850633 
L 304.57644 88.134417 
L 304.99256 88.105928 
L 305.51271 87.763122 
L 307.48928 86.08421 
L 308.32152 85.871153 
L 310.402121 85.494701 
L 311.026301 85.116517 
L 311.650481 84.497137 
L 312.378691 83.421118 
L 313.106901 81.91216 
L 313.939141 79.587002 
L 314.771381 76.542545 
L 315.707651 72.20534 
L 319.244672 54.597434 
L 319.972882 52.44439 
L 320.493032 51.480522 
L 320.909152 51.091177 
L 321.221242 51.038192 
L 321.533332 51.201751 
L 321.949452 51.774828 
L 322.365573 52.776434 
L 322.885723 54.668984 
L 323.509903 57.942481 
L 324.238113 63.1105 
L 325.174383 71.485152 
L 326.526773 85.901016 
L 329.855734 122.396558 
L 330.792004 130.010952 
L 331.520214 134.319753 
L 332.040364 136.36389 
L 332.560514 137.608213 
L 332.976634 138.125589 
L 333.392754 138.298715 
L 333.808874 138.202094 
L 334.329024 137.815484 
L 336.201565 136.131761 
L 336.721715 136.051105 
L 337.345895 136.17826 
L 338.178135 136.608918 
L 340.674855 138.091478 
L 343.795756 139.231483 
L 344.627996 139.956621 
L 346.292476 141.858805 
L 347.332777 142.842491 
L 347.956957 143.178249 
L 348.477107 143.24579 
L 349.101287 143.063784 
L 349.829497 142.58159 
L 351.077857 141.418198 
L 352.326217 140.360921 
L 353.158457 139.969499 
L 354.614878 139.362351 
L 355.239058 138.829134 
L 355.863238 137.963107 
L 356.487418 136.647269 
L 357.111598 134.788945 
L 358.047868 131.175399 
L 361.480859 116.897567 
L 362.313099 114.789919 
L 362.937279 113.752855 
L 363.457429 113.271835 
L 363.873549 113.15191 
L 364.289669 113.278282 
L 364.705789 113.660955 
L 365.225939 114.510822 
L 365.95415 116.276056 
L 367.30654 120.388016 
L 368.34684 123.278076 
L 368.97102 124.490472 
L 369.49117 125.049295 
L 369.90729 125.21979 
L 370.42744 125.168105 
L 371.05162 124.844835 
L 372.716101 123.809889 
L 373.236251 123.798946 
L 373.652371 124.000451 
L 374.172521 124.49024 
L 374.900731 125.513777 
L 376.149091 127.752738 
L 377.501481 130.046369 
L 378.229691 130.901698 
L 378.853872 131.357016 
L 379.478052 131.53277 
L 379.998202 131.449878 
L 380.518352 131.144964 
L 381.142532 130.468156 
L 381.766712 129.43197 
L 382.598952 127.530511 
L 383.743282 124.261922 
L 386.552093 115.973693 
L 387.488363 113.949358 
L 388.216573 112.800045 
L 388.840753 112.162337 
L 389.360903 111.905494 
L 389.777023 111.895892 
L 390.297173 112.141732 
L 390.921354 112.769563 
L 391.649564 113.850475 
L 392.897924 116.192122 
L 394.458374 119.063681 
L 395.602704 120.666459 
L 396.851064 122.022015 
L 398.619575 123.560551 
L 401.428385 125.700865 
L 403.925106 127.340487 
L 405.173466 127.899323 
L 406.109736 128.095866 
L 406.941976 128.061033 
L 407.878246 127.79679 
L 409.230636 127.147996 
L 412.247507 125.615699 
L 415.576467 124.060964 
L 417.032888 123.390202 
L 417.865128 123.215021 
L 418.593338 123.27365 
L 419.217518 123.528091 
L 419.945728 124.064402 
L 421.090058 125.228669 
L 422.962599 127.148266 
L 423.794839 127.681311 
L 424.731109 128.009663 
L 426.187529 128.234959 
L 427.643949 128.528071 
L 428.89231 129.044354 
L 431.285 130.218708 
L 431.285 130.218708 
" clip-path="url(#p9b70a0ed89)" style="fill: none; stroke: #ff7f0e; stroke-width: 0.5; stroke-linecap: square"/>
   </g>
   <g id="line2d_33">
    <path d="M 56.985 290.570629 
L 57.08903 290.570629 
L 57.19306 289.861887 
L 57.50515 290.823271 
L 57.81724 290.994545 
L 58.44142 290.857593 
L 59.58575 290.517074 
L 60.313961 289.382195 
L 61.458291 287.494018 
L 61.978441 287.023559 
L 62.394561 286.879823 
L 62.810681 286.936046 
L 63.330831 287.245828 
L 64.059041 287.979457 
L 65.931581 290.046238 
L 66.659792 290.34997 
L 67.700092 290.507316 
L 68.324272 290.460957 
L 69.260542 289.918652 
L 71.861292 288.154171 
L 72.485472 288.105935 
L 73.005623 288.296446 
L 73.421743 288.597306 
L 74.462043 289.886367 
L 75.086223 290.243235 
L 75.918463 290.445892 
L 76.126523 290.275449 
L 76.646673 289.437597 
L 77.270853 287.929781 
L 79.559514 281.844754 
L 79.975634 281.483428 
L 80.287724 281.4804 
L 80.599814 281.718675 
L 81.015934 282.403486 
L 81.536084 283.78562 
L 82.264294 286.492463 
L 82.784444 288.26005 
L 83.304594 289.313568 
L 83.824744 289.894799 
L 84.240864 290.095831 
L 84.552954 289.611972 
L 85.073105 288.184063 
L 85.905345 284.961864 
L 87.049675 280.685619 
L 87.673855 279.162793 
L 88.089975 278.663144 
L 88.402065 278.623276 
L 88.714155 278.9039 
L 89.026245 279.519927 
L 89.442365 280.846457 
L 90.066545 283.689127 
L 90.794755 287.339206 
L 91.314906 288.810182 
L 91.835056 289.623763 
L 92.043116 289.755943 
L 92.251176 289.423645 
L 92.563266 288.531554 
L 93.083416 286.252756 
L 94.123716 281.51288 
L 94.539836 280.639664 
L 94.747896 280.546283 
L 94.955956 280.675014 
L 95.268046 281.243164 
L 95.684166 282.549999 
L 96.620436 286.661047 
L 97.140586 288.397451 
L 97.660737 289.394817 
L 98.180887 289.898574 
L 98.388947 289.645723 
L 98.701037 288.832635 
L 99.117157 286.974299 
L 99.741337 282.977918 
L 100.989697 274.782128 
L 101.405817 273.431615 
L 101.613877 273.195689 
L 101.821937 273.275227 
L 102.029997 273.670494 
L 102.342087 274.820943 
L 102.862237 277.917688 
L 103.278357 281.164183 
L 103.902538 285.722885 
L 104.422688 287.92935 
L 104.942838 289.149993 
L 105.150898 289.433526 
L 105.254928 289.382967 
L 105.567018 288.555046 
L 105.983138 286.5353 
L 106.607318 281.980064 
L 107.751648 273.228048 
L 108.271798 270.880876 
L 108.583888 270.333643 
L 108.791948 270.376312 
L 109.000008 270.751908 
L 109.312098 271.917978 
L 109.728218 274.446573 
L 110.560459 281.374006 
L 111.184639 285.898152 
L 111.704789 288.032133 
L 112.224939 289.206418 
L 112.641059 289.693277 
L 113.993449 290.254203 
L 114.929719 290.465086 
L 115.865989 290.469355 
L 116.28211 289.976848 
L 116.80226 288.959221 
L 117.73853 287.084564 
L 118.05062 286.823869 
L 118.25868 286.810101 
L 118.6748 287.149456 
L 119.92316 289.609018 
L 120.54734 290.112307 
L 120.7554 290.169112 
L 121.06749 289.750294 
L 121.48361 288.744256 
L 122.836001 284.929324 
L 123.148091 284.644077 
L 123.356151 284.667646 
L 123.668241 285.041113 
L 124.084361 286.03538 
L 124.916601 288.627168 
L 125.436751 289.51286 
L 125.956901 290.001855 
L 126.373021 290.189066 
L 127.413321 289.869605 
L 127.829441 289.996871 
L 128.869742 290.381087 
L 129.181832 290.360648 
L 129.493922 290.119919 
L 129.910042 289.495028 
L 131.470492 286.646252 
L 131.678552 286.620065 
L 131.990642 286.772255 
L 132.406762 287.750825 
L 133.030942 289.122064 
L 133.551092 289.78188 
L 134.175272 290.195886 
L 134.279302 290.147545 
L 134.695422 289.113751 
L 135.111543 287.312063 
L 135.631693 283.981383 
L 136.359903 277.591722 
L 137.608263 266.210762 
L 138.024383 263.971476 
L 138.336473 263.196739 
L 138.544533 263.163997 
L 138.752593 263.531679 
L 139.064683 264.822915 
L 139.480803 267.794015 
L 140.209013 275.347522 
L 140.937223 283.421244 
L 141.457374 286.675664 
L 141.977524 288.475741 
L 142.185584 288.7612 
L 142.497674 288.060234 
L 142.913794 286.30105 
L 144.474244 278.640122 
L 144.890364 277.702669 
L 145.202454 277.402719 
L 145.514544 277.408166 
L 145.826634 277.670037 
L 146.242754 278.333874 
L 146.866934 279.840947 
L 147.595145 282.235935 
L 149.467685 288.930221 
L 149.987835 289.68572 
L 150.612015 290.151785 
L 150.820075 290.21485 
L 151.132165 289.892589 
L 151.756345 288.832749 
L 152.380525 287.864204 
L 152.692615 287.674884 
L 153.004705 287.789652 
L 153.212765 287.99149 
L 154.461126 289.845889 
L 155.085306 290.225223 
L 155.709486 290.362022 
L 156.229636 289.862216 
L 156.853816 288.920108 
L 157.686056 287.611389 
L 158.102176 287.366829 
L 158.414266 287.453981 
L 158.622326 287.562386 
L 159.038446 288.331521 
L 159.662626 289.419258 
L 160.182777 289.943573 
L 160.702927 290.233292 
L 160.806957 290.228673 
L 161.015017 289.919531 
L 161.327107 289.097975 
L 161.743227 287.355811 
L 162.367407 283.627257 
L 163.719797 275.030792 
L 164.135917 273.704108 
L 164.343977 273.46439 
L 164.552037 273.536135 
L 164.760097 273.926498 
L 165.072187 275.099197 
L 165.592337 278.216524 
L 166.632638 286.227865 
L 167.152788 288.216705 
L 167.568908 289.122455 
L 167.672938 289.113536 
L 167.985028 288.242631 
L 168.505178 285.615427 
L 169.441448 280.595902 
L 169.753538 279.794186 
L 169.961598 279.601695 
L 170.169658 279.676478 
L 170.481748 280.237895 
L 170.897868 281.624464 
L 172.666379 288.42827 
L 173.186529 289.401008 
L 173.706679 289.941103 
L 174.330859 290.272867 
L 175.267129 290.474003 
L 176.619519 290.537142 
L 177.243699 290.159192 
L 178.492059 289.364861 
L 179.53236 288.9521 
L 180.26057 288.876482 
L 180.88475 289.029265 
L 181.61296 289.445113 
L 182.4452 290.09413 
L 183.17341 290.36841 
L 184.31774 290.519246 
L 184.5258 290.469684 
L 185.045951 289.758283 
L 185.566101 288.576476 
L 187.334611 283.930387 
L 187.750731 283.567304 
L 188.062821 283.608017 
L 188.374911 283.908122 
L 188.791031 284.65063 
L 189.623271 286.783115 
L 190.663571 289.247507 
L 191.183722 289.853681 
L 191.807902 290.230802 
L 192.640142 290.445576 
L 193.264322 290.471783 
L 194.096562 290.051911 
L 195.240892 289.152826 
L 196.281192 288.381022 
L 196.801342 288.282562 
L 197.217462 288.40967 
L 197.841643 288.927108 
L 198.673883 289.876058 
L 199.298063 290.237042 
L 200.130303 290.44745 
L 200.962543 290.488809 
L 201.898813 290.378189 
L 204.915684 290.534793 
L 207.620464 290.531612 
L 208.660764 290.321922 
L 211.469575 290.501467 
L 211.989725 290.040278 
L 212.717935 289.003578 
L 213.550175 287.883223 
L 213.966295 287.634768 
L 214.278385 287.64338 
L 214.694505 287.901162 
L 215.318685 288.636309 
L 216.046895 289.656165 
L 216.671076 290.129813 
L 217.399286 290.386048 
L 218.127496 290.475025 
L 219.479886 290.084263 
L 220.208096 290.28904 
L 221.248396 290.473184 
L 221.872576 290.294313 
L 223.224967 289.773106 
L 223.537057 289.852139 
L 224.785417 290.375775 
L 225.825717 290.51414 
L 226.033777 290.424919 
L 226.553927 289.732858 
L 227.178107 288.450166 
L 228.426467 285.790742 
L 228.842588 285.344222 
L 229.154678 285.250459 
L 229.466768 285.373802 
L 229.882888 285.849325 
L 230.507068 287.022092 
L 231.963488 289.767878 
L 232.587668 290.189203 
L 233.419908 290.430152 
L 234.252148 290.452135 
L 235.708569 290.303978 
L 237.060959 290.51073 
L 237.685139 290.498153 
L 238.309319 289.89296 
L 239.765739 288.274841 
L 240.389919 287.935823 
L 240.806039 287.944528 
L 241.22216 288.221152 
L 242.36649 289.836642 
L 242.99067 290.220155 
L 243.40679 290.279822 
L 243.82291 289.626049 
L 244.44709 288.092665 
L 245.38336 285.818706 
L 245.79948 285.291643 
L 246.11157 285.19463 
L 246.42366 285.361165 
L 246.83978 285.94311 
L 247.463961 287.371253 
L 248.088141 288.909353 
L 248.608291 289.664118 
L 249.232471 290.139944 
L 249.544561 290.251971 
L 249.856651 289.983525 
L 250.376801 289.130228 
L 251.729191 286.586725 
L 252.145311 286.347655 
L 252.457401 286.435132 
L 252.873521 286.872154 
L 253.497702 288.029462 
L 254.121882 289.257655 
L 254.642032 289.854875 
L 255.266212 290.230683 
L 255.994422 290.410274 
L 257.346812 289.949061 
L 259.531442 289.292693 
L 260.259653 289.301098 
L 260.571743 289.398429 
L 261.820103 290.243901 
L 262.652343 290.449269 
L 263.172493 290.480744 
L 263.692643 290.052071 
L 264.732943 289.132323 
L 265.149063 289.038577 
L 265.565183 289.159544 
L 266.189364 289.726541 
L 266.813544 290.151743 
L 267.437724 290.36071 
L 267.853844 290.241568 
L 269.206234 289.672157 
L 269.518324 289.760255 
L 270.662654 290.322144 
L 271.702954 290.498572 
L 272.119074 290.484465 
L 272.847285 289.894604 
L 274.615795 288.284616 
L 275.239975 288.050948 
L 275.760125 288.065688 
L 276.384305 288.332735 
L 277.008485 288.804488 
L 278.048785 289.959113 
L 278.672966 290.278061 
L 279.401176 290.448168 
L 279.609236 290.335834 
L 280.025356 289.75031 
L 280.545506 288.606512 
L 282.001926 285.11172 
L 282.314016 284.818141 
L 282.626106 284.80811 
L 282.938196 285.080362 
L 283.354316 285.810877 
L 284.186556 287.962395 
L 284.706707 289.102384 
L 285.226857 289.773297 
L 285.851037 290.192407 
L 286.475217 290.365052 
L 287.515517 290.048094 
L 288.659847 289.468096 
L 289.596117 289.001519 
L 290.116267 288.961648 
L 290.428357 289.178567 
L 291.364628 290.039738 
L 292.092838 290.345895 
L 292.508958 290.360927 
L 292.925078 289.51651 
L 293.341198 288.078568 
L 294.069408 284.502575 
L 294.901648 280.607595 
L 295.317768 279.475116 
L 295.629858 279.164982 
L 295.837918 279.23592 
L 296.150008 279.749371 
L 296.566128 281.096848 
L 297.294339 284.536885 
L 297.918519 287.446724 
L 298.438669 288.866998 
L 298.958819 289.653998 
L 299.270909 289.901274 
L 300.207179 289.887383 
L 300.935389 290.018957 
L 302.287779 290.327235 
L 303.7442 290.522338 
L 305.72077 290.556795 
L 306.13689 290.338681 
L 306.65704 289.818816 
L 307.38525 288.676461 
L 308.32152 287.260943 
L 308.84167 286.869805 
L 309.25779 286.847079 
L 309.673911 287.075637 
L 310.194061 287.640212 
L 312.066601 290.070401 
L 312.794811 290.361161 
L 313.210931 290.417214 
L 313.523021 290.059583 
L 313.939141 289.14536 
L 314.355261 287.677067 
L 314.875411 285.043677 
L 315.707651 279.50167 
L 316.643922 273.574023 
L 317.060042 272.057343 
L 317.372132 271.643266 
L 317.580192 271.748745 
L 317.788252 272.16226 
L 318.100342 273.32904 
L 318.620492 276.455101 
L 320.180942 287.096087 
L 320.701092 288.691653 
L 321.221242 289.562229 
L 321.533332 289.773032 
L 322.053482 289.588848 
L 323.301843 288.735047 
L 324.238113 287.81752 
L 325.070353 287.080037 
L 325.486473 286.932638 
L 325.902593 287.003399 
L 326.318713 287.291481 
L 326.942893 288.022741 
L 328.399314 289.897759 
L 329.023494 290.249268 
L 329.855734 290.452147 
L 330.479914 290.487203 
L 331.000064 290.060751 
L 333.080664 287.980015 
L 333.600814 287.900305 
L 334.120964 288.097603 
L 334.745145 288.635996 
L 335.369325 289.365961 
L 335.993505 289.966719 
L 336.617685 290.281549 
L 337.553955 290.476509 
L 339.218435 290.548782 
L 341.403066 290.086354 
L 342.651426 289.928755 
L 343.587696 290.056617 
L 344.836056 290.432068 
L 346.292476 290.546312 
L 347.124717 290.468617 
L 347.748897 289.86753 
L 348.477107 288.759448 
L 350.245617 285.7896 
L 350.661737 285.519864 
L 350.973827 285.52529 
L 351.285917 285.716892 
L 351.702037 286.240303 
L 352.326217 287.411506 
L 353.158457 289.230039 
L 353.678608 289.841728 
L 354.302788 290.224747 
L 354.822938 290.349869 
L 355.135028 289.935376 
L 355.551148 288.948966 
L 356.071298 287.067905 
L 357.943838 279.271053 
L 358.255928 278.852073 
L 358.463988 278.826324 
L 358.672048 279.007178 
L 358.984138 279.647738 
L 359.400258 281.090818 
L 360.128469 284.537397 
L 360.752649 287.448784 
L 361.272799 288.868326 
L 361.792949 289.654801 
L 362.313099 290.033339 
L 362.729219 289.71148 
L 364.289669 288.174918 
L 364.705789 288.180455 
L 365.225939 288.476205 
L 365.85012 289.137338 
L 366.57833 289.916609 
L 367.20251 290.257108 
L 368.03475 290.454867 
L 369.49117 290.540769 
L 371.15565 290.490445 
L 372.924161 289.817106 
L 373.548341 289.928682 
L 374.692671 290.379038 
L 375.837001 290.521673 
L 376.773271 290.490024 
L 378.021631 290.169659 
L 378.853872 290.184665 
L 382.286862 290.561225 
L 384.367462 290.540236 
L 384.783583 290.090539 
L 385.303733 289.093726 
L 386.031943 287.034924 
L 386.968213 284.442726 
L 387.384333 283.815388 
L 387.696423 283.664739 
L 388.008513 283.79738 
L 388.320603 284.189602 
L 388.840753 285.283551 
L 390.609263 289.479992 
L 391.129414 289.982315 
L 391.753594 290.29218 
L 392.481804 290.435141 
L 393.210014 290.081313 
L 394.250314 289.57533 
L 394.874494 289.517367 
L 395.602704 289.698225 
L 397.891365 290.481753 
L 399.763905 290.561123 
L 401.428385 290.47536 
L 402.884805 290.44385 
L 404.861376 290.557229 
L 406.109736 290.510079 
L 406.837946 290.00738 
L 407.774216 289.001755 
L 408.606456 288.199353 
L 409.126606 287.999893 
L 409.542727 288.07506 
L 410.062877 288.442807 
L 410.478997 288.911697 
L 411.207207 289.796339 
L 411.831387 290.198127 
L 412.663627 290.43303 
L 413.703927 290.490092 
L 414.744227 290.078106 
L 415.784528 289.386971 
L 416.720798 288.846312 
L 417.240948 288.800638 
L 417.865128 289.041255 
L 418.385278 289.548875 
L 419.009458 290.056045 
L 419.737668 290.352836 
L 420.777968 290.508007 
L 421.506178 290.463649 
L 422.442449 290.44148 
L 424.419019 290.55681 
L 424.939169 290.480127 
L 425.771409 290.005747 
L 427.019769 289.281168 
L 427.643949 289.180542 
L 428.37216 289.327511 
L 428.68425 289.512893 
L 429.62052 290.171092 
L 430.45276 290.421422 
L 431.285 290.515653 
L 431.285 290.515653 
" clip-path="url(#p9b70a0ed89)" style="fill: none; stroke: #2ca02c; stroke-width: 0.5; stroke-linecap: square"/>
   </g>
   <g id="patch_3">
    <path d="M 38.27 303.64 
L 38.27 25.44 
" style="fill: none; stroke: #000000; stroke-width: 0.8; stroke-linejoin: miter; stroke-linecap: square"/>
   </g>
   <g id="patch_4">
    <path d="M 450 303.64 
L 450 25.44 
" style="fill: none; stroke: #000000; stroke-width: 0.8; stroke-linejoin: miter; stroke-linecap: square"/>
   </g>
   <g id="patch_5">
    <path d="M 38.27 303.64 
L 450 303.64 
" style="fill: none; stroke: #000000; stroke-width: 0.8; stroke-linejoin: miter; stroke-linecap: square"/>
   </g>
   <g id="patch_6">
    <path d="M 38.27 25.44 
L 450 25.44 
" style="fill: none; stroke: #000000; stroke-width: 0.8; stroke-linejoin: miter; stroke-linecap: square"/>
   </g>
   <g id="text_18">
    <!-- data_7_E4 Separated EDA plot -->
    <g transform="translate(152.579688 19.44) scale(0.12 -0.12)">
     <defs>
      <path id="DejaVuSans-5f" d="M 3263 -1063 
L 3263 -1509 
L -63 -1509 
L -63 -1063 
L 3263 -1063 
z
" transform="scale(0.015625)"/>
      <path id="DejaVuSans-37" d="M 525 4666 
L 3525 4666 
L 3525 4397 
L 1831 0 
L 1172 0 
L 2766 4134 
L 525 4134 
L 525 4666 
z
" transform="scale(0.015625)"/>
      <path id="DejaVuSans-70" d="M 1159 525 
L 1159 -1331 
L 581 -1331 
L 581 3500 
L 1159 3500 
L 1159 2969 
Q 1341 3281 1617 3432 
Q 1894 3584 2278 3584 
Q 2916 3584 3314 3078 
Q 3713 2572 3713 1747 
Q 3713 922 3314 415 
Q 2916 -91 2278 -91 
Q 1894 -91 1617 61 
Q 1341 213 1159 525 
z
M 3116 1747 
Q 3116 2381 2855 2742 
Q 2594 3103 2138 3103 
Q 1681 3103 1420 2742 
Q 1159 2381 1159 1747 
Q 1159 1113 1420 752 
Q 1681 391 2138 391 
Q 2594 391 2855 752 
Q 3116 1113 3116 1747 
z
" transform="scale(0.015625)"/>
      <path id="DejaVuSans-6f" d="M 1959 3097 
Q 1497 3097 1228 2736 
Q 959 2375 959 1747 
Q 959 1119 1226 758 
Q 1494 397 1959 397 
Q 2419 397 2687 759 
Q 2956 1122 2956 1747 
Q 2956 2369 2687 2733 
Q 2419 3097 1959 3097 
z
M 1959 3584 
Q 2709 3584 3137 3096 
Q 3566 2609 3566 1747 
Q 3566 888 3137 398 
Q 2709 -91 1959 -91 
Q 1206 -91 779 398 
Q 353 888 353 1747 
Q 353 2609 779 3096 
Q 1206 3584 1959 3584 
z
" transform="scale(0.015625)"/>
     </defs>
     <use xlink:href="#DejaVuSans-64"/>
     <use xlink:href="#DejaVuSans-61" transform="translate(63.476562 0)"/>
     <use xlink:href="#DejaVuSans-74" transform="translate(124.755859 0)"/>
     <use xlink:href="#DejaVuSans-61" transform="translate(163.964844 0)"/>
     <use xlink:href="#DejaVuSans-5f" transform="translate(225.244141 0)"/>
     <use xlink:href="#DejaVuSans-37" transform="translate(275.244141 0)"/>
     <use xlink:href="#DejaVuSans-5f" transform="translate(338.867188 0)"/>
     <use xlink:href="#DejaVuSans-45" transform="translate(388.867188 0)"/>
     <use xlink:href="#DejaVuSans-34" transform="translate(452.050781 0)"/>
     <use xlink:href="#DejaVuSans-20" transform="translate(515.673828 0)"/>
     <use xlink:href="#DejaVuSans-53" transform="translate(547.460938 0)"/>
     <use xlink:href="#DejaVuSans-65" transform="translate(610.9375 0)"/>
     <use xlink:href="#DejaVuSans-70" transform="translate(672.460938 0)"/>
     <use xlink:href="#DejaVuSans-61" transform="translate(735.9375 0)"/>
     <use xlink:href="#DejaVuSans-72" transform="translate(797.216797 0)"/>
     <use xlink:href="#DejaVuSans-61" transform="translate(838.330078 0)"/>
     <use xlink:href="#DejaVuSans-74" transform="translate(899.609375 0)"/>
     <use xlink:href="#DejaVuSans-65" transform="translate(938.818359 0)"/>
     <use xlink:href="#DejaVuSans-64" transform="translate(1000.341797 0)"/>
     <use xlink:href="#DejaVuSans-20" transform="translate(1063.818359 0)"/>
     <use xlink:href="#DejaVuSans-45" transform="translate(1095.605469 0)"/>
     <use xlink:href="#DejaVuSans-44" transform="translate(1158.789062 0)"/>
     <use xlink:href="#DejaVuSans-41" transform="translate(1234.041016 0)"/>
     <use xlink:href="#DejaVuSans-20" transform="translate(1302.449219 0)"/>
     <use xlink:href="#DejaVuSans-70" transform="translate(1334.236328 0)"/>
     <use xlink:href="#DejaVuSans-6c" transform="translate(1397.712891 0)"/>
     <use xlink:href="#DejaVuSans-6f" transform="translate(1425.496094 0)"/>
     <use xlink:href="#DejaVuSans-74" transform="translate(1486.677734 0)"/>
    </g>
   </g>
   <g id="legend_1">
    <g id="patch_7">
     <path d="M 350.09375 77.474375 
L 443 77.474375 
Q 445 77.474375 445 75.474375 
L 445 32.44 
Q 445 30.44 443 30.44 
L 350.09375 30.44 
Q 348.09375 30.44 348.09375 32.44 
L 348.09375 75.474375 
Q 348.09375 77.474375 350.09375 77.474375 
z
" style="fill: #ffffff; opacity: 0.8; stroke: #cccccc; stroke-linejoin: miter"/>
    </g>
    <g id="line2d_34">
     <path d="M 352.09375 38.538437 
L 362.09375 38.538437 
L 372.09375 38.538437 
" style="fill: none; stroke-dasharray: 1.85,0.8; stroke-dashoffset: 0; stroke: #1f77b4; stroke-width: 0.5"/>
    </g>
    <g id="text_19">
     <!-- Filtered EDA -->
     <g transform="translate(380.09375 42.038437) scale(0.1 -0.1)">
      <defs>
       <path id="DejaVuSans-46" d="M 628 4666 
L 3309 4666 
L 3309 4134 
L 1259 4134 
L 1259 2759 
L 3109 2759 
L 3109 2228 
L 1259 2228 
L 1259 0 
L 628 0 
L 628 4666 
z
" transform="scale(0.015625)"/>
      </defs>
      <use xlink:href="#DejaVuSans-46"/>
      <use xlink:href="#DejaVuSans-69" transform="translate(50.269531 0)"/>
      <use xlink:href="#DejaVuSans-6c" transform="translate(78.052734 0)"/>
      <use xlink:href="#DejaVuSans-74" transform="translate(105.835938 0)"/>
      <use xlink:href="#DejaVuSans-65" transform="translate(145.044922 0)"/>
      <use xlink:href="#DejaVuSans-72" transform="translate(206.568359 0)"/>
      <use xlink:href="#DejaVuSans-65" transform="translate(245.431641 0)"/>
      <use xlink:href="#DejaVuSans-64" transform="translate(306.955078 0)"/>
      <use xlink:href="#DejaVuSans-20" transform="translate(370.431641 0)"/>
      <use xlink:href="#DejaVuSans-45" transform="translate(402.21875 0)"/>
      <use xlink:href="#DejaVuSans-44" transform="translate(465.402344 0)"/>
      <use xlink:href="#DejaVuSans-41" transform="translate(540.654297 0)"/>
     </g>
    </g>
    <g id="line2d_35">
     <path d="M 352.09375 53.216562 
L 362.09375 53.216562 
L 372.09375 53.216562 
" style="fill: none; stroke: #ff7f0e; stroke-width: 0.5; stroke-linecap: square"/>
    </g>
    <g id="text_20">
     <!-- Tonic -->
     <g transform="translate(380.09375 56.716562) scale(0.1 -0.1)">
      <defs>
       <path id="DejaVuSans-63" d="M 3122 3366 
L 3122 2828 
Q 2878 2963 2633 3030 
Q 2388 3097 2138 3097 
Q 1578 3097 1268 2742 
Q 959 2388 959 1747 
Q 959 1106 1268 751 
Q 1578 397 2138 397 
Q 2388 397 2633 464 
Q 2878 531 3122 666 
L 3122 134 
Q 2881 22 2623 -34 
Q 2366 -91 2075 -91 
Q 1284 -91 818 406 
Q 353 903 353 1747 
Q 353 2603 823 3093 
Q 1294 3584 2113 3584 
Q 2378 3584 2631 3529 
Q 2884 3475 3122 3366 
z
" transform="scale(0.015625)"/>
      </defs>
      <use xlink:href="#DejaVuSans-54"/>
      <use xlink:href="#DejaVuSans-6f" transform="translate(44.083984 0)"/>
      <use xlink:href="#DejaVuSans-6e" transform="translate(105.265625 0)"/>
      <use xlink:href="#DejaVuSans-69" transform="translate(168.644531 0)"/>
      <use xlink:href="#DejaVuSans-63" transform="translate(196.427734 0)"/>
     </g>
    </g>
    <g id="line2d_36">
     <path d="M 352.09375 67.894687 
L 362.09375 67.894687 
L 372.09375 67.894687 
" style="fill: none; stroke: #2ca02c; stroke-width: 0.5; stroke-linecap: square"/>
    </g>
    <g id="text_21">
     <!-- Phasic -->
     <g transform="translate(380.09375 71.394687) scale(0.1 -0.1)">
      <defs>
       <path id="DejaVuSans-50" d="M 1259 4147 
L 1259 2394 
L 2053 2394 
Q 2494 2394 2734 2622 
Q 2975 2850 2975 3272 
Q 2975 3691 2734 3919 
Q 2494 4147 2053 4147 
L 1259 4147 
z
M 628 4666 
L 2053 4666 
Q 2838 4666 3239 4311 
Q 3641 3956 3641 3272 
Q 3641 2581 3239 2228 
Q 2838 1875 2053 1875 
L 1259 1875 
L 1259 0 
L 628 0 
L 628 4666 
z
" transform="scale(0.015625)"/>
       <path id="DejaVuSans-68" d="M 3513 2113 
L 3513 0 
L 2938 0 
L 2938 2094 
Q 2938 2591 2744 2837 
Q 2550 3084 2163 3084 
Q 1697 3084 1428 2787 
Q 1159 2491 1159 1978 
L 1159 0 
L 581 0 
L 581 4863 
L 1159 4863 
L 1159 2956 
Q 1366 3272 1645 3428 
Q 1925 3584 2291 3584 
Q 2894 3584 3203 3211 
Q 3513 2838 3513 2113 
z
" transform="scale(0.015625)"/>
      </defs>
      <use xlink:href="#DejaVuSans-50"/>
      <use xlink:href="#DejaVuSans-68" transform="translate(60.302734 0)"/>
      <use xlink:href="#DejaVuSans-61" transform="translate(123.681641 0)"/>
      <use xlink:href="#DejaVuSans-73" transform="translate(184.960938 0)"/>
      <use xlink:href="#DejaVuSans-69" transform="translate(237.060547 0)"/>
      <use xlink:href="#DejaVuSans-63" transform="translate(264.84375 0)"/>
     </g>
    </g>
   </g>
  </g>
 </g>
 <defs>
  <clipPath id="p9b70a0ed89">
   <rect x="38.27" y="25.44" width="411.73" height="278.2"/>
  </clipPath>
 </defs>
</svg>
