<?xml version="1.0" encoding="utf-8" standalone="no"?>
<!DOCTYPE svg PUBLIC "-//W3C//DTD SVG 1.1//EN"
  "http://www.w3.org/Graphics/SVG/1.1/DTD/svg11.dtd">
<svg xmlns:xlink="http://www.w3.org/1999/xlink" width="460.8pt" height="345.6pt" viewBox="0 0 460.8 345.6" xmlns="http://www.w3.org/2000/svg" version="1.1">
 <metadata>
  <rdf:RDF xmlns:dc="http://purl.org/dc/elements/1.1/" xmlns:cc="http://creativecommons.org/ns#" xmlns:rdf="http://www.w3.org/1999/02/22-rdf-syntax-ns#">
   <cc:Work>
    <dc:type rdf:resource="http://purl.org/dc/dcmitype/StillImage"/>
    <dc:date>2025-09-22T15:39:28.448434</dc:date>
    <dc:format>image/svg+xml</dc:format>
    <dc:creator>
     <cc:Agent>
      <dc:title>Matplotlib v3.10.0, https://matplotlib.org/</dc:title>
     </cc:Agent>
    </dc:creator>
   </cc:Work>
  </rdf:RDF>
 </metadata>
 <defs>
  <style type="text/css">*{stroke-linejoin: round; stroke-linecap: butt}</style>
 </defs>
 <g id="figure_1">
  <g id="patch_1">
   <path d="M 0 345.6 
L 460.8 345.6 
L 460.8 0 
L 0 0 
z
" style="fill: #ffffff"/>
  </g>
  <g id="axes_1">
   <g id="patch_2">
    <path d="M 38.27 303.64 
L 450 303.64 
L 450 25.44 
L 38.27 25.44 
z
" style="fill: #ffffff"/>
   </g>
   <g id="matplotlib.axis_1">
    <g id="xtick_1">
     <g id="line2d_1">
      <path d="M 56.985 303.64 
L 56.985 25.44 
" clip-path="url(#p1cdff9f450)" style="fill: none; stroke: #b0b0b0; stroke-opacity: 0.3; stroke-width: 0.8; stroke-linecap: square"/>
     </g>
     <g id="line2d_2">
      <defs>
       <path id="m79c6cef59b" d="M 0 0 
L 0 3.5 
" style="stroke: #000000; stroke-width: 0.8"/>
      </defs>
      <g>
       <use xlink:href="#m79c6cef59b" x="56.985" y="303.64" style="stroke: #000000; stroke-width: 0.8"/>
      </g>
     </g>
     <g id="text_1">
      <!-- 0 -->
      <g transform="translate(53.80375 318.238437) scale(0.1 -0.1)">
       <defs>
        <path id="DejaVuSans-30" d="M 2034 4250 
Q 1547 4250 1301 3770 
Q 1056 3291 1056 2328 
Q 1056 1369 1301 889 
Q 1547 409 2034 409 
Q 2525 409 2770 889 
Q 3016 1369 3016 2328 
Q 3016 3291 2770 3770 
Q 2525 4250 2034 4250 
z
M 2034 4750 
Q 2819 4750 3233 4129 
Q 3647 3509 3647 2328 
Q 3647 1150 3233 529 
Q 2819 -91 2034 -91 
Q 1250 -91 836 529 
Q 422 1150 422 2328 
Q 422 3509 836 4129 
Q 1250 4750 2034 4750 
z
" transform="scale(0.015625)"/>
       </defs>
       <use xlink:href="#DejaVuSans-30"/>
      </g>
     </g>
    </g>
    <g id="xtick_2">
     <g id="line2d_3">
      <path d="M 106.891667 303.64 
L 106.891667 25.44 
" clip-path="url(#p1cdff9f450)" style="fill: none; stroke: #b0b0b0; stroke-opacity: 0.3; stroke-width: 0.8; stroke-linecap: square"/>
     </g>
     <g id="line2d_4">
      <g>
       <use xlink:href="#m79c6cef59b" x="106.891667" y="303.64" style="stroke: #000000; stroke-width: 0.8"/>
      </g>
     </g>
     <g id="text_2">
      <!-- 2 -->
      <g transform="translate(103.710417 318.238437) scale(0.1 -0.1)">
       <defs>
        <path id="DejaVuSans-32" d="M 1228 531 
L 3431 531 
L 3431 0 
L 469 0 
L 469 531 
Q 828 903 1448 1529 
Q 2069 2156 2228 2338 
Q 2531 2678 2651 2914 
Q 2772 3150 2772 3378 
Q 2772 3750 2511 3984 
Q 2250 4219 1831 4219 
Q 1534 4219 1204 4116 
Q 875 4013 500 3803 
L 500 4441 
Q 881 4594 1212 4672 
Q 1544 4750 1819 4750 
Q 2544 4750 2975 4387 
Q 3406 4025 3406 3419 
Q 3406 3131 3298 2873 
Q 3191 2616 2906 2266 
Q 2828 2175 2409 1742 
Q 1991 1309 1228 531 
z
" transform="scale(0.015625)"/>
       </defs>
       <use xlink:href="#DejaVuSans-32"/>
      </g>
     </g>
    </g>
    <g id="xtick_3">
     <g id="line2d_5">
      <path d="M 156.798333 303.64 
L 156.798333 25.44 
" clip-path="url(#p1cdff9f450)" style="fill: none; stroke: #b0b0b0; stroke-opacity: 0.3; stroke-width: 0.8; stroke-linecap: square"/>
     </g>
     <g id="line2d_6">
      <g>
       <use xlink:href="#m79c6cef59b" x="156.798333" y="303.64" style="stroke: #000000; stroke-width: 0.8"/>
      </g>
     </g>
     <g id="text_3">
      <!-- 4 -->
      <g transform="translate(153.617083 318.238437) scale(0.1 -0.1)">
       <defs>
        <path id="DejaVuSans-34" d="M 2419 4116 
L 825 1625 
L 2419 1625 
L 2419 4116 
z
M 2253 4666 
L 3047 4666 
L 3047 1625 
L 3713 1625 
L 3713 1100 
L 3047 1100 
L 3047 0 
L 2419 0 
L 2419 1100 
L 313 1100 
L 313 1709 
L 2253 4666 
z
" transform="scale(0.015625)"/>
       </defs>
       <use xlink:href="#DejaVuSans-34"/>
      </g>
     </g>
    </g>
    <g id="xtick_4">
     <g id="line2d_7">
      <path d="M 206.705 303.64 
L 206.705 25.44 
" clip-path="url(#p1cdff9f450)" style="fill: none; stroke: #b0b0b0; stroke-opacity: 0.3; stroke-width: 0.8; stroke-linecap: square"/>
     </g>
     <g id="line2d_8">
      <g>
       <use xlink:href="#m79c6cef59b" x="206.705" y="303.64" style="stroke: #000000; stroke-width: 0.8"/>
      </g>
     </g>
     <g id="text_4">
      <!-- 6 -->
      <g transform="translate(203.52375 318.238437) scale(0.1 -0.1)">
       <defs>
        <path id="DejaVuSans-36" d="M 2113 2584 
Q 1688 2584 1439 2293 
Q 1191 2003 1191 1497 
Q 1191 994 1439 701 
Q 1688 409 2113 409 
Q 2538 409 2786 701 
Q 3034 994 3034 1497 
Q 3034 2003 2786 2293 
Q 2538 2584 2113 2584 
z
M 3366 4563 
L 3366 3988 
Q 3128 4100 2886 4159 
Q 2644 4219 2406 4219 
Q 1781 4219 1451 3797 
Q 1122 3375 1075 2522 
Q 1259 2794 1537 2939 
Q 1816 3084 2150 3084 
Q 2853 3084 3261 2657 
Q 3669 2231 3669 1497 
Q 3669 778 3244 343 
Q 2819 -91 2113 -91 
Q 1303 -91 875 529 
Q 447 1150 447 2328 
Q 447 3434 972 4092 
Q 1497 4750 2381 4750 
Q 2619 4750 2861 4703 
Q 3103 4656 3366 4563 
z
" transform="scale(0.015625)"/>
       </defs>
       <use xlink:href="#DejaVuSans-36"/>
      </g>
     </g>
    </g>
    <g id="xtick_5">
     <g id="line2d_9">
      <path d="M 256.611667 303.64 
L 256.611667 25.44 
" clip-path="url(#p1cdff9f450)" style="fill: none; stroke: #b0b0b0; stroke-opacity: 0.3; stroke-width: 0.8; stroke-linecap: square"/>
     </g>
     <g id="line2d_10">
      <g>
       <use xlink:href="#m79c6cef59b" x="256.611667" y="303.64" style="stroke: #000000; stroke-width: 0.8"/>
      </g>
     </g>
     <g id="text_5">
      <!-- 8 -->
      <g transform="translate(253.430417 318.238437) scale(0.1 -0.1)">
       <defs>
        <path id="DejaVuSans-38" d="M 2034 2216 
Q 1584 2216 1326 1975 
Q 1069 1734 1069 1313 
Q 1069 891 1326 650 
Q 1584 409 2034 409 
Q 2484 409 2743 651 
Q 3003 894 3003 1313 
Q 3003 1734 2745 1975 
Q 2488 2216 2034 2216 
z
M 1403 2484 
Q 997 2584 770 2862 
Q 544 3141 544 3541 
Q 544 4100 942 4425 
Q 1341 4750 2034 4750 
Q 2731 4750 3128 4425 
Q 3525 4100 3525 3541 
Q 3525 3141 3298 2862 
Q 3072 2584 2669 2484 
Q 3125 2378 3379 2068 
Q 3634 1759 3634 1313 
Q 3634 634 3220 271 
Q 2806 -91 2034 -91 
Q 1263 -91 848 271 
Q 434 634 434 1313 
Q 434 1759 690 2068 
Q 947 2378 1403 2484 
z
M 1172 3481 
Q 1172 3119 1398 2916 
Q 1625 2713 2034 2713 
Q 2441 2713 2670 2916 
Q 2900 3119 2900 3481 
Q 2900 3844 2670 4047 
Q 2441 4250 2034 4250 
Q 1625 4250 1398 4047 
Q 1172 3844 1172 3481 
z
" transform="scale(0.015625)"/>
       </defs>
       <use xlink:href="#DejaVuSans-38"/>
      </g>
     </g>
    </g>
    <g id="xtick_6">
     <g id="line2d_11">
      <path d="M 306.518333 303.64 
L 306.518333 25.44 
" clip-path="url(#p1cdff9f450)" style="fill: none; stroke: #b0b0b0; stroke-opacity: 0.3; stroke-width: 0.8; stroke-linecap: square"/>
     </g>
     <g id="line2d_12">
      <g>
       <use xlink:href="#m79c6cef59b" x="306.518333" y="303.64" style="stroke: #000000; stroke-width: 0.8"/>
      </g>
     </g>
     <g id="text_6">
      <!-- 10 -->
      <g transform="translate(300.155833 318.238437) scale(0.1 -0.1)">
       <defs>
        <path id="DejaVuSans-31" d="M 794 531 
L 1825 531 
L 1825 4091 
L 703 3866 
L 703 4441 
L 1819 4666 
L 2450 4666 
L 2450 531 
L 3481 531 
L 3481 0 
L 794 0 
L 794 531 
z
" transform="scale(0.015625)"/>
       </defs>
       <use xlink:href="#DejaVuSans-31"/>
       <use xlink:href="#DejaVuSans-30" transform="translate(63.623047 0)"/>
      </g>
     </g>
    </g>
    <g id="xtick_7">
     <g id="line2d_13">
      <path d="M 356.425 303.64 
L 356.425 25.44 
" clip-path="url(#p1cdff9f450)" style="fill: none; stroke: #b0b0b0; stroke-opacity: 0.3; stroke-width: 0.8; stroke-linecap: square"/>
     </g>
     <g id="line2d_14">
      <g>
       <use xlink:href="#m79c6cef59b" x="356.425" y="303.64" style="stroke: #000000; stroke-width: 0.8"/>
      </g>
     </g>
     <g id="text_7">
      <!-- 12 -->
      <g transform="translate(350.0625 318.238437) scale(0.1 -0.1)">
       <use xlink:href="#DejaVuSans-31"/>
       <use xlink:href="#DejaVuSans-32" transform="translate(63.623047 0)"/>
      </g>
     </g>
    </g>
    <g id="xtick_8">
     <g id="line2d_15">
      <path d="M 406.331667 303.64 
L 406.331667 25.44 
" clip-path="url(#p1cdff9f450)" style="fill: none; stroke: #b0b0b0; stroke-opacity: 0.3; stroke-width: 0.8; stroke-linecap: square"/>
     </g>
     <g id="line2d_16">
      <g>
       <use xlink:href="#m79c6cef59b" x="406.331667" y="303.64" style="stroke: #000000; stroke-width: 0.8"/>
      </g>
     </g>
     <g id="text_8">
      <!-- 14 -->
      <g transform="translate(399.969167 318.238437) scale(0.1 -0.1)">
       <use xlink:href="#DejaVuSans-31"/>
       <use xlink:href="#DejaVuSans-34" transform="translate(63.623047 0)"/>
      </g>
     </g>
    </g>
    <g id="text_9">
     <!-- Time (minutes) -->
     <g transform="translate(206.1725 331.916562) scale(0.1 -0.1)">
      <defs>
       <path id="DejaVuSans-54" d="M -19 4666 
L 3928 4666 
L 3928 4134 
L 2272 4134 
L 2272 0 
L 1638 0 
L 1638 4134 
L -19 4134 
L -19 4666 
z
" transform="scale(0.015625)"/>
       <path id="DejaVuSans-69" d="M 603 3500 
L 1178 3500 
L 1178 0 
L 603 0 
L 603 3500 
z
M 603 4863 
L 1178 4863 
L 1178 4134 
L 603 4134 
L 603 4863 
z
" transform="scale(0.015625)"/>
       <path id="DejaVuSans-6d" d="M 3328 2828 
Q 3544 3216 3844 3400 
Q 4144 3584 4550 3584 
Q 5097 3584 5394 3201 
Q 5691 2819 5691 2113 
L 5691 0 
L 5113 0 
L 5113 2094 
Q 5113 2597 4934 2840 
Q 4756 3084 4391 3084 
Q 3944 3084 3684 2787 
Q 3425 2491 3425 1978 
L 3425 0 
L 2847 0 
L 2847 2094 
Q 2847 2600 2669 2842 
Q 2491 3084 2119 3084 
Q 1678 3084 1418 2786 
Q 1159 2488 1159 1978 
L 1159 0 
L 581 0 
L 581 3500 
L 1159 3500 
L 1159 2956 
Q 1356 3278 1631 3431 
Q 1906 3584 2284 3584 
Q 2666 3584 2933 3390 
Q 3200 3197 3328 2828 
z
" transform="scale(0.015625)"/>
       <path id="DejaVuSans-65" d="M 3597 1894 
L 3597 1613 
L 953 1613 
Q 991 1019 1311 708 
Q 1631 397 2203 397 
Q 2534 397 2845 478 
Q 3156 559 3463 722 
L 3463 178 
Q 3153 47 2828 -22 
Q 2503 -91 2169 -91 
Q 1331 -91 842 396 
Q 353 884 353 1716 
Q 353 2575 817 3079 
Q 1281 3584 2069 3584 
Q 2775 3584 3186 3129 
Q 3597 2675 3597 1894 
z
M 3022 2063 
Q 3016 2534 2758 2815 
Q 2500 3097 2075 3097 
Q 1594 3097 1305 2825 
Q 1016 2553 972 2059 
L 3022 2063 
z
" transform="scale(0.015625)"/>
       <path id="DejaVuSans-20" transform="scale(0.015625)"/>
       <path id="DejaVuSans-28" d="M 1984 4856 
Q 1566 4138 1362 3434 
Q 1159 2731 1159 2009 
Q 1159 1288 1364 580 
Q 1569 -128 1984 -844 
L 1484 -844 
Q 1016 -109 783 600 
Q 550 1309 550 2009 
Q 550 2706 781 3412 
Q 1013 4119 1484 4856 
L 1984 4856 
z
" transform="scale(0.015625)"/>
       <path id="DejaVuSans-6e" d="M 3513 2113 
L 3513 0 
L 2938 0 
L 2938 2094 
Q 2938 2591 2744 2837 
Q 2550 3084 2163 3084 
Q 1697 3084 1428 2787 
Q 1159 2491 1159 1978 
L 1159 0 
L 581 0 
L 581 3500 
L 1159 3500 
L 1159 2956 
Q 1366 3272 1645 3428 
Q 1925 3584 2291 3584 
Q 2894 3584 3203 3211 
Q 3513 2838 3513 2113 
z
" transform="scale(0.015625)"/>
       <path id="DejaVuSans-75" d="M 544 1381 
L 544 3500 
L 1119 3500 
L 1119 1403 
Q 1119 906 1312 657 
Q 1506 409 1894 409 
Q 2359 409 2629 706 
Q 2900 1003 2900 1516 
L 2900 3500 
L 3475 3500 
L 3475 0 
L 2900 0 
L 2900 538 
Q 2691 219 2414 64 
Q 2138 -91 1772 -91 
Q 1169 -91 856 284 
Q 544 659 544 1381 
z
M 1991 3584 
L 1991 3584 
z
" transform="scale(0.015625)"/>
       <path id="DejaVuSans-74" d="M 1172 4494 
L 1172 3500 
L 2356 3500 
L 2356 3053 
L 1172 3053 
L 1172 1153 
Q 1172 725 1289 603 
Q 1406 481 1766 481 
L 2356 481 
L 2356 0 
L 1766 0 
Q 1100 0 847 248 
Q 594 497 594 1153 
L 594 3053 
L 172 3053 
L 172 3500 
L 594 3500 
L 594 4494 
L 1172 4494 
z
" transform="scale(0.015625)"/>
       <path id="DejaVuSans-73" d="M 2834 3397 
L 2834 2853 
Q 2591 2978 2328 3040 
Q 2066 3103 1784 3103 
Q 1356 3103 1142 2972 
Q 928 2841 928 2578 
Q 928 2378 1081 2264 
Q 1234 2150 1697 2047 
L 1894 2003 
Q 2506 1872 2764 1633 
Q 3022 1394 3022 966 
Q 3022 478 2636 193 
Q 2250 -91 1575 -91 
Q 1294 -91 989 -36 
Q 684 19 347 128 
L 347 722 
Q 666 556 975 473 
Q 1284 391 1588 391 
Q 1994 391 2212 530 
Q 2431 669 2431 922 
Q 2431 1156 2273 1281 
Q 2116 1406 1581 1522 
L 1381 1569 
Q 847 1681 609 1914 
Q 372 2147 372 2553 
Q 372 3047 722 3315 
Q 1072 3584 1716 3584 
Q 2034 3584 2315 3537 
Q 2597 3491 2834 3397 
z
" transform="scale(0.015625)"/>
       <path id="DejaVuSans-29" d="M 513 4856 
L 1013 4856 
Q 1481 4119 1714 3412 
Q 1947 2706 1947 2009 
Q 1947 1309 1714 600 
Q 1481 -109 1013 -844 
L 513 -844 
Q 928 -128 1133 580 
Q 1338 1288 1338 2009 
Q 1338 2731 1133 3434 
Q 928 4138 513 4856 
z
" transform="scale(0.015625)"/>
      </defs>
      <use xlink:href="#DejaVuSans-54"/>
      <use xlink:href="#DejaVuSans-69" transform="translate(57.958984 0)"/>
      <use xlink:href="#DejaVuSans-6d" transform="translate(85.742188 0)"/>
      <use xlink:href="#DejaVuSans-65" transform="translate(183.154297 0)"/>
      <use xlink:href="#DejaVuSans-20" transform="translate(244.677734 0)"/>
      <use xlink:href="#DejaVuSans-28" transform="translate(276.464844 0)"/>
      <use xlink:href="#DejaVuSans-6d" transform="translate(315.478516 0)"/>
      <use xlink:href="#DejaVuSans-69" transform="translate(412.890625 0)"/>
      <use xlink:href="#DejaVuSans-6e" transform="translate(440.673828 0)"/>
      <use xlink:href="#DejaVuSans-75" transform="translate(504.052734 0)"/>
      <use xlink:href="#DejaVuSans-74" transform="translate(567.431641 0)"/>
      <use xlink:href="#DejaVuSans-65" transform="translate(606.640625 0)"/>
      <use xlink:href="#DejaVuSans-73" transform="translate(668.164062 0)"/>
      <use xlink:href="#DejaVuSans-29" transform="translate(720.263672 0)"/>
     </g>
    </g>
   </g>
   <g id="matplotlib.axis_2">
    <g id="ytick_1">
     <g id="line2d_17">
      <path d="M 38.27 290.388143 
L 450 290.388143 
" clip-path="url(#p1cdff9f450)" style="fill: none; stroke: #b0b0b0; stroke-opacity: 0.3; stroke-width: 0.8; stroke-linecap: square"/>
     </g>
     <g id="line2d_18">
      <defs>
       <path id="md4f490e77a" d="M 0 0 
L -3.5 0 
" style="stroke: #000000; stroke-width: 0.8"/>
      </defs>
      <g>
       <use xlink:href="#md4f490e77a" x="38.27" y="290.388143" style="stroke: #000000; stroke-width: 0.8"/>
      </g>
     </g>
     <g id="text_10">
      <!-- 0 -->
      <g transform="translate(24.9075 294.187361) scale(0.1 -0.1)">
       <use xlink:href="#DejaVuSans-30"/>
      </g>
     </g>
    </g>
    <g id="ytick_2">
     <g id="line2d_19">
      <path d="M 38.27 253.358796 
L 450 253.358796 
" clip-path="url(#p1cdff9f450)" style="fill: none; stroke: #b0b0b0; stroke-opacity: 0.3; stroke-width: 0.8; stroke-linecap: square"/>
     </g>
     <g id="line2d_20">
      <g>
       <use xlink:href="#md4f490e77a" x="38.27" y="253.358796" style="stroke: #000000; stroke-width: 0.8"/>
      </g>
     </g>
     <g id="text_11">
      <!-- 1 -->
      <g transform="translate(24.9075 257.158015) scale(0.1 -0.1)">
       <use xlink:href="#DejaVuSans-31"/>
      </g>
     </g>
    </g>
    <g id="ytick_3">
     <g id="line2d_21">
      <path d="M 38.27 216.329449 
L 450 216.329449 
" clip-path="url(#p1cdff9f450)" style="fill: none; stroke: #b0b0b0; stroke-opacity: 0.3; stroke-width: 0.8; stroke-linecap: square"/>
     </g>
     <g id="line2d_22">
      <g>
       <use xlink:href="#md4f490e77a" x="38.27" y="216.329449" style="stroke: #000000; stroke-width: 0.8"/>
      </g>
     </g>
     <g id="text_12">
      <!-- 2 -->
      <g transform="translate(24.9075 220.128668) scale(0.1 -0.1)">
       <use xlink:href="#DejaVuSans-32"/>
      </g>
     </g>
    </g>
    <g id="ytick_4">
     <g id="line2d_23">
      <path d="M 38.27 179.300102 
L 450 179.300102 
" clip-path="url(#p1cdff9f450)" style="fill: none; stroke: #b0b0b0; stroke-opacity: 0.3; stroke-width: 0.8; stroke-linecap: square"/>
     </g>
     <g id="line2d_24">
      <g>
       <use xlink:href="#md4f490e77a" x="38.27" y="179.300102" style="stroke: #000000; stroke-width: 0.8"/>
      </g>
     </g>
     <g id="text_13">
      <!-- 3 -->
      <g transform="translate(24.9075 183.099321) scale(0.1 -0.1)">
       <defs>
        <path id="DejaVuSans-33" d="M 2597 2516 
Q 3050 2419 3304 2112 
Q 3559 1806 3559 1356 
Q 3559 666 3084 287 
Q 2609 -91 1734 -91 
Q 1441 -91 1130 -33 
Q 819 25 488 141 
L 488 750 
Q 750 597 1062 519 
Q 1375 441 1716 441 
Q 2309 441 2620 675 
Q 2931 909 2931 1356 
Q 2931 1769 2642 2001 
Q 2353 2234 1838 2234 
L 1294 2234 
L 1294 2753 
L 1863 2753 
Q 2328 2753 2575 2939 
Q 2822 3125 2822 3475 
Q 2822 3834 2567 4026 
Q 2313 4219 1838 4219 
Q 1578 4219 1281 4162 
Q 984 4106 628 3988 
L 628 4550 
Q 988 4650 1302 4700 
Q 1616 4750 1894 4750 
Q 2613 4750 3031 4423 
Q 3450 4097 3450 3541 
Q 3450 3153 3228 2886 
Q 3006 2619 2597 2516 
z
" transform="scale(0.015625)"/>
       </defs>
       <use xlink:href="#DejaVuSans-33"/>
      </g>
     </g>
    </g>
    <g id="ytick_5">
     <g id="line2d_25">
      <path d="M 38.27 142.270755 
L 450 142.270755 
" clip-path="url(#p1cdff9f450)" style="fill: none; stroke: #b0b0b0; stroke-opacity: 0.3; stroke-width: 0.8; stroke-linecap: square"/>
     </g>
     <g id="line2d_26">
      <g>
       <use xlink:href="#md4f490e77a" x="38.27" y="142.270755" style="stroke: #000000; stroke-width: 0.8"/>
      </g>
     </g>
     <g id="text_14">
      <!-- 4 -->
      <g transform="translate(24.9075 146.069974) scale(0.1 -0.1)">
       <use xlink:href="#DejaVuSans-34"/>
      </g>
     </g>
    </g>
    <g id="ytick_6">
     <g id="line2d_27">
      <path d="M 38.27 105.241408 
L 450 105.241408 
" clip-path="url(#p1cdff9f450)" style="fill: none; stroke: #b0b0b0; stroke-opacity: 0.3; stroke-width: 0.8; stroke-linecap: square"/>
     </g>
     <g id="line2d_28">
      <g>
       <use xlink:href="#md4f490e77a" x="38.27" y="105.241408" style="stroke: #000000; stroke-width: 0.8"/>
      </g>
     </g>
     <g id="text_15">
      <!-- 5 -->
      <g transform="translate(24.9075 109.040627) scale(0.1 -0.1)">
       <defs>
        <path id="DejaVuSans-35" d="M 691 4666 
L 3169 4666 
L 3169 4134 
L 1269 4134 
L 1269 2991 
Q 1406 3038 1543 3061 
Q 1681 3084 1819 3084 
Q 2600 3084 3056 2656 
Q 3513 2228 3513 1497 
Q 3513 744 3044 326 
Q 2575 -91 1722 -91 
Q 1428 -91 1123 -41 
Q 819 9 494 109 
L 494 744 
Q 775 591 1075 516 
Q 1375 441 1709 441 
Q 2250 441 2565 725 
Q 2881 1009 2881 1497 
Q 2881 1984 2565 2268 
Q 2250 2553 1709 2553 
Q 1456 2553 1204 2497 
Q 953 2441 691 2322 
L 691 4666 
z
" transform="scale(0.015625)"/>
       </defs>
       <use xlink:href="#DejaVuSans-35"/>
      </g>
     </g>
    </g>
    <g id="ytick_7">
     <g id="line2d_29">
      <path d="M 38.27 68.212062 
L 450 68.212062 
" clip-path="url(#p1cdff9f450)" style="fill: none; stroke: #b0b0b0; stroke-opacity: 0.3; stroke-width: 0.8; stroke-linecap: square"/>
     </g>
     <g id="line2d_30">
      <g>
       <use xlink:href="#md4f490e77a" x="38.27" y="68.212062" style="stroke: #000000; stroke-width: 0.8"/>
      </g>
     </g>
     <g id="text_16">
      <!-- 6 -->
      <g transform="translate(24.9075 72.01128) scale(0.1 -0.1)">
       <use xlink:href="#DejaVuSans-36"/>
      </g>
     </g>
    </g>
    <g id="ytick_8">
     <g id="line2d_31">
      <path d="M 38.27 31.182715 
L 450 31.182715 
" clip-path="url(#p1cdff9f450)" style="fill: none; stroke: #b0b0b0; stroke-opacity: 0.3; stroke-width: 0.8; stroke-linecap: square"/>
     </g>
     <g id="line2d_32">
      <g>
       <use xlink:href="#md4f490e77a" x="38.27" y="31.182715" style="stroke: #000000; stroke-width: 0.8"/>
      </g>
     </g>
     <g id="text_17">
      <!-- 7 -->
      <g transform="translate(24.9075 34.981934) scale(0.1 -0.1)">
       <defs>
        <path id="DejaVuSans-37" d="M 525 4666 
L 3525 4666 
L 3525 4397 
L 1831 0 
L 1172 0 
L 2766 4134 
L 525 4134 
L 525 4666 
z
" transform="scale(0.015625)"/>
       </defs>
       <use xlink:href="#DejaVuSans-37"/>
      </g>
     </g>
    </g>
    <g id="text_18">
     <!-- EDA signals (μS) -->
     <g transform="translate(18.827813 205.711875) rotate(-90) scale(0.1 -0.1)">
      <defs>
       <path id="DejaVuSans-45" d="M 628 4666 
L 3578 4666 
L 3578 4134 
L 1259 4134 
L 1259 2753 
L 3481 2753 
L 3481 2222 
L 1259 2222 
L 1259 531 
L 3634 531 
L 3634 0 
L 628 0 
L 628 4666 
z
" transform="scale(0.015625)"/>
       <path id="DejaVuSans-44" d="M 1259 4147 
L 1259 519 
L 2022 519 
Q 2988 519 3436 956 
Q 3884 1394 3884 2338 
Q 3884 3275 3436 3711 
Q 2988 4147 2022 4147 
L 1259 4147 
z
M 628 4666 
L 1925 4666 
Q 3281 4666 3915 4102 
Q 4550 3538 4550 2338 
Q 4550 1131 3912 565 
Q 3275 0 1925 0 
L 628 0 
L 628 4666 
z
" transform="scale(0.015625)"/>
       <path id="DejaVuSans-41" d="M 2188 4044 
L 1331 1722 
L 3047 1722 
L 2188 4044 
z
M 1831 4666 
L 2547 4666 
L 4325 0 
L 3669 0 
L 3244 1197 
L 1141 1197 
L 716 0 
L 50 0 
L 1831 4666 
z
" transform="scale(0.015625)"/>
       <path id="DejaVuSans-67" d="M 2906 1791 
Q 2906 2416 2648 2759 
Q 2391 3103 1925 3103 
Q 1463 3103 1205 2759 
Q 947 2416 947 1791 
Q 947 1169 1205 825 
Q 1463 481 1925 481 
Q 2391 481 2648 825 
Q 2906 1169 2906 1791 
z
M 3481 434 
Q 3481 -459 3084 -895 
Q 2688 -1331 1869 -1331 
Q 1566 -1331 1297 -1286 
Q 1028 -1241 775 -1147 
L 775 -588 
Q 1028 -725 1275 -790 
Q 1522 -856 1778 -856 
Q 2344 -856 2625 -561 
Q 2906 -266 2906 331 
L 2906 616 
Q 2728 306 2450 153 
Q 2172 0 1784 0 
Q 1141 0 747 490 
Q 353 981 353 1791 
Q 353 2603 747 3093 
Q 1141 3584 1784 3584 
Q 2172 3584 2450 3431 
Q 2728 3278 2906 2969 
L 2906 3500 
L 3481 3500 
L 3481 434 
z
" transform="scale(0.015625)"/>
       <path id="DejaVuSans-61" d="M 2194 1759 
Q 1497 1759 1228 1600 
Q 959 1441 959 1056 
Q 959 750 1161 570 
Q 1363 391 1709 391 
Q 2188 391 2477 730 
Q 2766 1069 2766 1631 
L 2766 1759 
L 2194 1759 
z
M 3341 1997 
L 3341 0 
L 2766 0 
L 2766 531 
Q 2569 213 2275 61 
Q 1981 -91 1556 -91 
Q 1019 -91 701 211 
Q 384 513 384 1019 
Q 384 1609 779 1909 
Q 1175 2209 1959 2209 
L 2766 2209 
L 2766 2266 
Q 2766 2663 2505 2880 
Q 2244 3097 1772 3097 
Q 1472 3097 1187 3025 
Q 903 2953 641 2809 
L 641 3341 
Q 956 3463 1253 3523 
Q 1550 3584 1831 3584 
Q 2591 3584 2966 3190 
Q 3341 2797 3341 1997 
z
" transform="scale(0.015625)"/>
       <path id="DejaVuSans-6c" d="M 603 4863 
L 1178 4863 
L 1178 0 
L 603 0 
L 603 4863 
z
" transform="scale(0.015625)"/>
       <path id="DejaVuSans-3bc" d="M 544 -1331 
L 544 3500 
L 1119 3500 
L 1119 1325 
Q 1119 872 1334 640 
Q 1550 409 1972 409 
Q 2434 409 2667 671 
Q 2900 934 2900 1459 
L 2900 3500 
L 3475 3500 
L 3475 806 
Q 3475 619 3529 530 
Q 3584 441 3700 441 
Q 3728 441 3778 458 
Q 3828 475 3916 513 
L 3916 50 
Q 3788 -22 3673 -56 
Q 3559 -91 3450 -91 
Q 3234 -91 3106 31 
Q 2978 153 2931 403 
Q 2775 156 2548 32 
Q 2322 -91 2016 -91 
Q 1697 -91 1473 31 
Q 1250 153 1119 397 
L 1119 -1331 
L 544 -1331 
z
" transform="scale(0.015625)"/>
       <path id="DejaVuSans-53" d="M 3425 4513 
L 3425 3897 
Q 3066 4069 2747 4153 
Q 2428 4238 2131 4238 
Q 1616 4238 1336 4038 
Q 1056 3838 1056 3469 
Q 1056 3159 1242 3001 
Q 1428 2844 1947 2747 
L 2328 2669 
Q 3034 2534 3370 2195 
Q 3706 1856 3706 1288 
Q 3706 609 3251 259 
Q 2797 -91 1919 -91 
Q 1588 -91 1214 -16 
Q 841 59 441 206 
L 441 856 
Q 825 641 1194 531 
Q 1563 422 1919 422 
Q 2459 422 2753 634 
Q 3047 847 3047 1241 
Q 3047 1584 2836 1778 
Q 2625 1972 2144 2069 
L 1759 2144 
Q 1053 2284 737 2584 
Q 422 2884 422 3419 
Q 422 4038 858 4394 
Q 1294 4750 2059 4750 
Q 2388 4750 2728 4690 
Q 3069 4631 3425 4513 
z
" transform="scale(0.015625)"/>
      </defs>
      <use xlink:href="#DejaVuSans-45"/>
      <use xlink:href="#DejaVuSans-44" transform="translate(63.183594 0)"/>
      <use xlink:href="#DejaVuSans-41" transform="translate(138.435547 0)"/>
      <use xlink:href="#DejaVuSans-20" transform="translate(206.84375 0)"/>
      <use xlink:href="#DejaVuSans-73" transform="translate(238.630859 0)"/>
      <use xlink:href="#DejaVuSans-69" transform="translate(290.730469 0)"/>
      <use xlink:href="#DejaVuSans-67" transform="translate(318.513672 0)"/>
      <use xlink:href="#DejaVuSans-6e" transform="translate(381.990234 0)"/>
      <use xlink:href="#DejaVuSans-61" transform="translate(445.369141 0)"/>
      <use xlink:href="#DejaVuSans-6c" transform="translate(506.648438 0)"/>
      <use xlink:href="#DejaVuSans-73" transform="translate(534.431641 0)"/>
      <use xlink:href="#DejaVuSans-20" transform="translate(586.53125 0)"/>
      <use xlink:href="#DejaVuSans-28" transform="translate(618.318359 0)"/>
      <use xlink:href="#DejaVuSans-3bc" transform="translate(657.332031 0)"/>
      <use xlink:href="#DejaVuSans-53" transform="translate(720.955078 0)"/>
      <use xlink:href="#DejaVuSans-29" transform="translate(784.431641 0)"/>
     </g>
    </g>
   </g>
   <g id="line2d_33">
    <path d="M 56.985 96.69096 
L 57.29709 97.873608 
L 57.71321 100.379573 
L 59.0656 109.5116 
L 59.79381 112.535983 
L 60.417991 114.454848 
L 60.834111 115.084597 
L 61.146201 115.156682 
L 61.666351 115.113173 
L 61.874411 115.288438 
L 62.186501 115.896917 
L 62.810681 117.904572 
L 63.642921 120.397042 
L 64.371131 122.002286 
L 64.995311 122.894649 
L 66.451732 124.697823 
L 67.179942 125.577732 
L 67.596062 125.768483 
L 67.908152 125.679452 
L 68.428302 125.214094 
L 68.948452 124.823593 
L 69.260542 124.814685 
L 69.572632 125.000024 
L 70.092782 125.629182 
L 71.341142 127.289893 
L 71.965322 127.706142 
L 73.421743 128.455152 
L 75.294283 129.618628 
L 75.502343 129.524578 
L 75.710403 129.207052 
L 76.022493 128.11578 
L 76.334583 126.109513 
L 77.062793 119.092921 
L 77.478913 115.947976 
L 77.791003 114.736228 
L 78.207123 114.046467 
L 78.519213 113.481695 
L 78.935334 112.108389 
L 79.663544 109.574824 
L 79.871604 109.366735 
L 80.079664 109.489677 
L 80.391754 110.242761 
L 80.807874 112.024127 
L 81.640114 116.804582 
L 82.680414 123.773623 
L 83.928774 133.58629 
L 84.032804 133.732065 
L 84.136834 133.649723 
L 84.344894 132.773126 
L 84.656984 129.869151 
L 85.593255 119.434282 
L 86.009375 117.404866 
L 86.841615 114.153069 
L 87.569825 110.256587 
L 88.714155 103.515949 
L 89.026245 103.019545 
L 89.234305 103.171027 
L 89.442365 103.676652 
L 89.754455 105.069572 
L 90.170575 108.220825 
L 90.690725 114.385789 
L 91.731026 127.629273 
L 92.043116 129.502817 
L 92.251176 129.798439 
L 92.355206 129.59782 
L 92.563266 128.381153 
L 92.875356 124.267232 
L 93.395506 112.349359 
L 93.915656 101.177648 
L 94.227746 98.313369 
L 94.331776 98.089832 
L 94.435806 98.18141 
L 94.643866 99.113256 
L 95.268046 104.2709 
L 95.788196 107.442183 
L 96.100286 108.293745 
L 96.412376 108.517736 
L 97.140586 108.525618 
L 97.452676 109.094256 
L 97.868797 110.508332 
L 98.701037 113.415526 
L 99.117157 114.08457 
L 99.429247 114.232949 
L 99.741337 114.161117 
L 100.053427 113.890444 
L 100.365517 113.31654 
L 100.677607 112.253384 
L 101.613877 108.386442 
L 101.717907 108.683457 
L 101.925967 110.379506 
L 102.238057 116.264522 
L 102.654177 130.201058 
L 103.590447 164.189431 
L 103.902538 169.319502 
L 104.214628 171.178792 
L 104.422688 171.302708 
L 104.942838 170.96646 
L 105.150898 171.403573 
L 105.567018 173.423697 
L 105.879108 174.479677 
L 105.983138 174.362764 
L 106.191198 173.024845 
L 106.503288 167.797175 
L 106.919408 155.577205 
L 108.687918 96.648992 
L 109.104038 89.52537 
L 109.520158 85.73304 
L 109.832248 84.603119 
L 109.936278 84.555423 
L 110.040309 84.68907 
L 110.248369 85.534974 
L 110.560459 88.199551 
L 111.392699 97.032544 
L 111.600759 97.704257 
L 111.704789 97.691619 
L 111.912849 97.080284 
L 112.641059 94.017165 
L 112.745089 94.151381 
L 112.953149 95.171832 
L 113.265239 98.618351 
L 113.785389 108.357259 
L 114.721659 126.68825 
L 115.137779 131.290437 
L 115.449869 133.09283 
L 115.657929 133.560937 
L 115.761959 133.586093 
L 115.970019 133.240952 
L 116.28211 131.802746 
L 116.69823 128.27829 
L 117.21838 121.425566 
L 118.36271 105.101895 
L 118.6748 103.735009 
L 118.77883 103.800272 
L 118.98689 104.723358 
L 119.29898 107.809599 
L 120.44331 121.463963 
L 120.7554 122.836877 
L 120.96346 123.076684 
L 121.06749 122.989408 
L 121.27555 122.360424 
L 121.58764 120.124233 
L 122.00376 114.74624 
L 122.627941 106.087394 
L 122.940031 104.51607 
L 123.044061 104.569671 
L 123.252121 105.434275 
L 123.668241 109.037545 
L 124.292421 114.481488 
L 124.708541 116.519718 
L 125.020631 117.139598 
L 125.228691 117.106649 
L 125.436751 116.674057 
L 125.748841 115.122319 
L 126.060931 112.168999 
L 126.477051 105.495445 
L 127.413321 87.952582 
L 127.621381 87.163639 
L 127.725411 87.440851 
L 127.933471 89.197027 
L 128.349591 95.750472 
L 128.973772 105.123477 
L 129.285862 107.2759 
L 129.493922 107.579763 
L 129.701982 107.039001 
L 130.014072 104.961736 
L 131.158402 95.590802 
L 131.366462 95.011868 
L 131.470492 94.970559 
L 131.574522 95.122772 
L 131.782582 96.074426 
L 132.094672 99.174535 
L 132.718852 109.1272 
L 133.343032 117.608827 
L 133.655122 119.800776 
L 133.863182 120.424881 
L 134.071242 120.453861 
L 134.279302 120.034398 
L 134.903482 118.440873 
L 135.007513 118.43514 
L 135.215573 118.768973 
L 136.151843 121.344252 
L 136.359903 121.113178 
L 137.088113 119.904331 
L 137.920353 119.386038 
L 138.128413 119.634502 
L 138.336473 120.54571 
L 138.648563 123.781836 
L 139.064683 132.034631 
L 139.792893 153.184968 
L 141.249314 196.933166 
L 141.457374 198.911953 
L 141.561404 198.993445 
L 141.665434 198.464341 
L 141.873494 195.701907 
L 142.289614 185.145026 
L 143.433944 152.648113 
L 143.954094 143.760308 
L 144.474244 138.064868 
L 144.994394 134.667127 
L 145.722604 131.60041 
L 146.346784 129.750996 
L 146.658874 129.392225 
L 146.866934 129.38993 
L 147.803205 129.808732 
L 148.115295 129.819229 
L 148.323355 130.31819 
L 148.531415 131.762993 
L 148.843505 136.731498 
L 149.259625 149.154837 
L 150.091865 176.461635 
L 150.507985 182.764435 
L 150.924105 185.321725 
L 151.548285 187.929663 
L 151.964405 191.320197 
L 152.900675 200.218889 
L 153.004705 200.305708 
L 153.108735 200.078936 
L 153.316795 198.699488 
L 153.732916 193.105424 
L 154.669186 179.223584 
L 155.293366 170.783232 
L 155.813516 160.093748 
L 157.373966 124.34543 
L 157.998146 116.174501 
L 158.414266 113.080258 
L 158.726356 112.077965 
L 158.934416 111.96361 
L 159.142476 112.213189 
L 159.454566 113.13174 
L 159.974717 115.658169 
L 160.702927 119.225538 
L 161.119047 120.206633 
L 161.431137 120.404578 
L 161.743227 120.269165 
L 162.055317 119.875792 
L 162.471437 118.941435 
L 162.887557 117.406837 
L 163.615767 113.465112 
L 164.031887 111.646835 
L 164.239947 111.381432 
L 164.343977 111.505827 
L 164.552037 112.415729 
L 164.864127 115.788076 
L 165.280247 124.165091 
L 166.840698 166.189893 
L 167.464878 185.061218 
L 167.672938 187.059201 
L 167.776968 186.665359 
L 167.985028 182.998782 
L 168.297118 171.649791 
L 169.025328 141.77999 
L 169.337418 135.654879 
L 169.545478 134.136256 
L 169.649508 133.997664 
L 169.753538 134.193596 
L 169.961598 135.354368 
L 171.105928 144.393879 
L 171.209958 144.466758 
L 171.313988 144.326056 
L 171.522048 143.401387 
L 171.834138 140.583069 
L 173.602649 120.578557 
L 174.018769 118.308745 
L 174.226829 117.956987 
L 174.330859 117.983554 
L 174.538919 118.385898 
L 174.955039 120.048781 
L 175.579219 122.506403 
L 175.995339 123.368538 
L 176.411459 123.720936 
L 176.931609 123.80756 
L 177.763849 123.668183 
L 178.70012 123.271082 
L 179.42833 122.844086 
L 179.74042 122.437474 
L 180.15654 121.39917 
L 180.88475 119.177529 
L 181.09281 119.019709 
L 181.30087 119.255659 
L 181.61296 120.285629 
L 182.23714 122.774568 
L 182.4452 123.036911 
L 182.65326 122.901004 
L 183.4855 121.50319 
L 183.69356 121.712922 
L 184.00565 122.554551 
L 185.254011 126.816825 
L 185.462071 126.474604 
L 185.670131 125.51254 
L 185.982221 122.902929 
L 186.606401 114.925568 
L 187.230581 107.637106 
L 187.542671 105.830683 
L 187.750731 105.511754 
L 187.958791 105.834542 
L 188.270881 107.159379 
L 188.999091 110.655486 
L 189.311181 111.352732 
L 190.039391 112.431155 
L 190.351481 113.811576 
L 191.391782 119.464921 
L 191.599842 119.59026 
L 192.015962 119.497603 
L 192.224022 119.753192 
L 192.536112 120.814753 
L 193.992532 127.652755 
L 194.408652 128.301575 
L 194.616712 128.33579 
L 194.824772 128.146598 
L 195.136862 127.425207 
L 195.657012 125.327263 
L 196.489252 121.980103 
L 196.905372 120.992443 
L 197.217462 120.639928 
L 197.425523 120.609731 
L 197.737613 120.848497 
L 198.257763 121.696693 
L 198.985973 122.793124 
L 199.402093 123.10071 
L 199.714183 123.109633 
L 200.026273 122.822697 
L 200.338363 122.119401 
L 200.754483 120.498181 
L 201.482693 117.487301 
L 201.794783 117.077469 
L 202.002843 117.211385 
L 202.314933 117.891925 
L 203.043143 119.784618 
L 203.251203 119.807218 
L 203.459263 119.401298 
L 203.771354 117.988709 
L 204.811654 111.984057 
L 205.123744 111.380357 
L 205.331804 111.291783 
L 205.643894 111.453147 
L 206.476134 112.113639 
L 206.684194 112.010771 
L 206.892254 111.685686 
L 207.204344 110.734969 
L 208.244644 106.704414 
L 208.452704 106.505751 
L 208.764794 106.576944 
L 209.284944 106.776195 
L 209.597034 106.596678 
L 210.637335 105.713869 
L 211.573605 105.418789 
L 211.885695 104.992111 
L 212.197785 104.034066 
L 212.509875 102.173866 
L 212.925995 97.938709 
L 213.758235 88.652005 
L 213.966295 87.871305 
L 214.070325 87.809128 
L 214.278385 88.25436 
L 214.694505 90.51218 
L 215.318685 93.843148 
L 216.150926 96.608425 
L 217.191226 99.600985 
L 217.815406 100.72649 
L 218.231526 101.155584 
L 218.543616 101.189175 
L 218.751676 101.008082 
L 219.063766 100.35905 
L 219.479886 98.827926 
L 220.208096 95.938418 
L 220.520186 95.354682 
L 220.832276 95.221092 
L 221.248396 95.216958 
L 221.456456 94.953406 
L 221.664516 94.270567 
L 221.976606 92.103872 
L 222.392727 86.920775 
L 223.120937 77.374699 
L 223.328997 76.347566 
L 223.433027 76.228388 
L 223.537057 76.353351 
L 223.745117 77.211362 
L 224.785417 83.384998 
L 224.993477 83.627603 
L 225.201537 83.549936 
L 225.929747 82.864497 
L 226.137807 82.972898 
L 226.553927 83.591564 
L 227.074077 84.286609 
L 227.282137 84.283889 
L 227.490197 84.039323 
L 227.802287 83.183664 
L 228.946618 79.1335 
L 229.154678 79.575571 
L 229.466768 81.5238 
L 229.882888 86.246563 
L 230.819158 97.996967 
L 231.443338 102.278899 
L 231.963488 106.347618 
L 234.668268 132.150768 
L 234.980359 133.532213 
L 235.292449 134.07217 
L 235.500509 134.09988 
L 235.812599 133.860078 
L 236.228719 133.25425 
L 236.540809 132.522252 
L 236.852899 131.26566 
L 237.164989 129.08368 
L 237.581109 124.079327 
L 238.205289 112.391336 
L 238.829469 101.491096 
L 239.245589 97.375084 
L 239.973799 91.288376 
L 240.910069 81.057635 
L 241.014099 80.858683 
L 241.11813 80.985871 
L 241.32619 82.184686 
L 241.63828 85.830832 
L 242.57455 98.012739 
L 242.99067 100.735517 
L 243.40679 102.199701 
L 243.71888 102.685115 
L 243.92694 102.648053 
L 244.135 102.227462 
L 244.44709 100.746474 
L 244.96724 96.468065 
L 245.48739 92.821548 
L 245.69545 92.381138 
L 245.79948 92.433016 
L 246.00754 93.047394 
L 246.31963 94.958535 
L 247.463961 103.178351 
L 247.984111 105.191725 
L 248.400231 106.11795 
L 248.712321 106.439515 
L 248.920381 106.441982 
L 249.128441 106.24155 
L 249.440531 105.520559 
L 249.856651 103.857913 
L 250.584861 99.918839 
L 251.000981 96.553383 
L 251.521131 90.023091 
L 252.041281 83.919751 
L 252.249341 82.911105 
L 252.353371 82.824628 
L 252.457401 83.012103 
L 252.665461 84.113322 
L 253.185611 89.200116 
L 253.705762 93.681961 
L 254.017852 94.969955 
L 254.225912 95.189499 
L 254.433972 94.968318 
L 254.746062 94.085112 
L 255.370242 92.282656 
L 255.682332 91.969516 
L 256.306512 91.866064 
L 256.618602 91.890079 
L 256.930692 92.193123 
L 257.242782 92.928844 
L 257.866962 95.257143 
L 258.491142 97.212487 
L 258.803232 97.671778 
L 259.115322 97.753942 
L 259.635472 97.446777 
L 259.947563 97.375772 
L 260.259653 97.586667 
L 260.675773 98.254457 
L 261.612043 99.92401 
L 262.028163 100.293667 
L 262.340253 100.327105 
L 262.652343 100.129457 
L 263.068463 99.500944 
L 263.380553 98.668569 
L 263.692643 97.27614 
L 264.108763 94.034276 
L 265.253093 83.115312 
L 265.461153 82.952844 
L 265.669213 83.536267 
L 266.085334 86.126549 
L 266.709514 90.205578 
L 267.021604 91.134117 
L 267.125634 91.179149 
L 267.229664 91.069519 
L 267.437724 90.343017 
L 267.749814 87.936708 
L 268.790114 77.128574 
L 268.998174 76.941267 
L 269.206234 77.712074 
L 269.622354 81.128897 
L 270.350564 87.161679 
L 270.766684 88.82873 
L 271.182804 89.601013 
L 272.223105 91.124816 
L 273.263405 93.201815 
L 273.783555 94.010911 
L 274.303705 94.383915 
L 274.823855 94.759748 
L 275.344005 95.497683 
L 277.008485 98.222229 
L 277.320575 98.384141 
L 277.632665 98.315937 
L 278.256845 97.810825 
L 278.985056 97.044998 
L 279.401176 96.104476 
L 280.025356 93.836434 
L 280.545506 91.424997 
L 280.857596 89.134412 
L 281.273716 83.935115 
L 282.209986 69.738643 
L 282.418046 68.984238 
L 282.522076 69.111668 
L 282.730136 70.254366 
L 283.146256 74.753104 
L 283.770436 81.233541 
L 284.082526 82.863464 
L 284.394616 83.493702 
L 284.706707 83.558766 
L 285.642977 83.221764 
L 285.955067 82.786564 
L 286.475217 81.426312 
L 286.891337 80.50679 
L 287.099397 80.401688 
L 287.307457 80.60828 
L 287.619547 81.442763 
L 288.451787 84.187555 
L 288.659847 84.318795 
L 288.867907 84.052445 
L 289.179997 82.892102 
L 290.324327 76.966165 
L 290.532387 76.977648 
L 290.740447 77.451333 
L 291.156568 79.316261 
L 292.092838 83.746242 
L 292.404928 84.517226 
L 292.612988 84.675925 
L 292.821048 84.447382 
L 293.029108 83.732799 
L 293.341198 81.576925 
L 293.757318 76.566714 
L 294.277468 67.193988 
L 295.629858 39.168673 
L 295.837918 38.567672 
L 295.941948 38.817644 
L 296.150008 40.156068 
L 297.190309 48.70989 
L 297.710459 52.372081 
L 298.438669 58.233852 
L 298.646729 58.774072 
L 298.750759 58.791686 
L 298.958819 58.467825 
L 299.270909 57.830822 
L 299.374939 57.798915 
L 299.478969 57.938338 
L 299.687029 58.857478 
L 299.999119 61.981099 
L 300.519269 70.634618 
L 301.559569 88.60385 
L 302.079719 94.471968 
L 302.495839 97.280564 
L 302.911959 98.665235 
L 303.224049 98.990572 
L 303.53614 98.905652 
L 304.26435 98.430869 
L 304.57644 98.525732 
L 305.30465 98.94465 
L 305.61674 98.838565 
L 305.92883 98.479307 
L 306.34495 97.552002 
L 306.8651 95.577292 
L 307.69734 92.272918 
L 309.04973 88.589251 
L 309.25779 88.612983 
L 309.46585 89.027543 
L 309.777941 90.284321 
L 310.818241 95.140649 
L 311.130331 95.585787 
L 311.338391 95.520718 
L 311.650481 94.963053 
L 312.482721 92.980918 
L 312.690781 92.901091 
L 312.898841 93.054072 
L 313.418991 93.982765 
L 313.731081 94.329595 
L 313.939141 94.185226 
L 314.147201 93.579126 
L 314.459291 91.583869 
L 314.875411 86.918825 
L 316.123772 68.775697 
L 316.643922 57.041475 
L 317.372132 40.239379 
L 317.580192 38.334837 
L 317.684222 38.085455 
L 317.788252 38.291439 
L 317.996312 39.914895 
L 318.412432 46.312219 
L 319.244672 59.758699 
L 319.868852 66.502716 
L 320.284972 69.048621 
L 320.389002 69.211346 
L 320.493032 69.113415 
L 320.701092 68.044064 
L 321.013182 64.339883 
L 321.741392 54.312215 
L 321.949452 53.689682 
L 322.053482 53.896258 
L 322.261543 55.198372 
L 322.781693 61.272443 
L 323.301843 66.653319 
L 323.613933 68.238798 
L 323.926023 68.8806 
L 324.238113 69.420074 
L 324.550203 70.525376 
L 325.070353 73.644243 
L 325.694533 78.588599 
L 326.110653 83.723427 
L 328.191253 114.609702 
L 329.959764 133.835332 
L 330.687974 142.476217 
L 331.000064 144.321611 
L 331.312154 144.947573 
L 331.520214 144.870746 
L 331.936334 144.197441 
L 332.352454 143.617322 
L 332.768574 143.404531 
L 333.184694 143.190591 
L 333.600814 142.678801 
L 334.224994 141.93501 
L 334.537084 141.920289 
L 334.953205 142.267922 
L 335.577385 142.800765 
L 335.993505 142.795226 
L 336.721715 142.647583 
L 337.137835 142.817137 
L 337.762015 143.38718 
L 338.906345 144.446539 
L 340.050675 145.223924 
L 340.570825 145.386746 
L 340.986946 145.329557 
L 341.507096 145.002988 
L 342.547396 144.244178 
L 342.963516 144.28855 
L 343.379636 144.656199 
L 343.899786 145.518023 
L 344.523966 146.527507 
L 344.940086 146.825837 
L 345.460236 147.130662 
L 345.772326 147.687863 
L 346.188446 149.134204 
L 346.812626 151.547524 
L 347.020686 151.891684 
L 347.228747 151.900115 
L 347.540837 151.429777 
L 348.373077 149.874616 
L 348.997257 148.943956 
L 349.413377 147.656948 
L 349.829497 145.538766 
L 350.973827 139.040559 
L 351.181887 138.969155 
L 351.389947 139.425379 
L 351.702037 140.86877 
L 352.638307 145.822103 
L 353.054427 146.843454 
L 353.470548 147.23707 
L 354.094728 147.633915 
L 354.614878 148.363751 
L 355.239058 149.229396 
L 355.447118 149.292511 
L 355.655178 149.145038 
L 355.863238 148.719579 
L 356.175328 147.38389 
L 356.487418 144.926157 
L 356.903538 139.407948 
L 357.631748 124.983188 
L 358.151898 117.106119 
L 358.463988 115.577343 
L 358.568018 115.601069 
L 358.776078 116.282971 
L 359.192198 119.180896 
L 360.024439 125.330243 
L 360.440559 127.196034 
L 360.752649 127.933559 
L 360.960709 128.121499 
L 361.168769 128.082817 
L 361.376829 127.828607 
L 361.688919 127.049092 
L 362.105039 125.264998 
L 362.833249 120.681153 
L 363.665489 115.850262 
L 364.081609 114.661872 
L 364.289669 114.551578 
L 364.497729 114.780778 
L 364.809819 115.699055 
L 365.225939 117.759269 
L 365.95415 122.730351 
L 366.78639 128.152491 
L 367.30654 130.29234 
L 367.72266 131.2966 
L 368.13878 131.812864 
L 369.17908 132.687533 
L 369.80326 133.92041 
L 370.53147 135.34278 
L 370.84356 135.542478 
L 371.05162 135.351183 
L 371.25968 134.803389 
L 371.57177 133.254968 
L 372.612071 127.120982 
L 372.820131 126.971541 
L 373.028191 127.257867 
L 373.444311 128.64354 
L 374.588641 132.86089 
L 375.212821 134.335067 
L 376.149091 135.905247 
L 377.189391 137.31846 
L 377.813571 137.762468 
L 378.645812 138.28542 
L 379.478052 139.175117 
L 380.310292 140.002635 
L 380.726412 140.119771 
L 381.038502 139.899039 
L 381.350592 139.311886 
L 381.766712 137.97573 
L 383.119102 133.198056 
L 383.743282 131.757571 
L 384.055372 131.547932 
L 384.263432 131.656618 
L 384.783583 132.164052 
L 384.991643 132.009475 
L 385.199703 131.380338 
L 385.511793 129.355907 
L 385.927913 124.840114 
L 387.176273 109.402254 
L 387.488363 108.125026 
L 387.592393 108.075025 
L 387.800453 108.474172 
L 388.112543 110.000137 
L 389.360903 117.342233 
L 389.881053 118.884016 
L 390.505233 119.917454 
L 391.129414 121.006842 
L 391.961654 123.113783 
L 392.689864 124.732352 
L 393.001954 125.08248 
L 393.314044 125.118783 
L 394.250314 124.747283 
L 394.562404 125.177418 
L 395.082554 126.488462 
L 396.018824 128.833801 
L 396.747034 130.125526 
L 397.267185 130.646208 
L 397.787335 130.845485 
L 398.307485 131.054392 
L 398.827635 131.539623 
L 399.659875 132.314938 
L 402.052565 133.647615 
L 403.092865 133.95931 
L 403.613016 134.48473 
L 404.757346 135.826347 
L 406.317796 136.70314 
L 406.733916 136.75537 
L 407.046006 136.510717 
L 407.358096 135.95341 
L 407.774216 134.737622 
L 408.502426 131.687013 
L 409.022576 129.748415 
L 409.334666 129.311317 
L 409.542727 129.417283 
L 409.854817 130.080217 
L 410.583027 132.61288 
L 411.311237 134.805643 
L 411.623327 135.274538 
L 411.831387 135.299113 
L 412.039447 135.061412 
L 412.455567 133.975343 
L 413.079747 132.34676 
L 413.391837 132.014223 
L 413.807957 131.94242 
L 414.224077 132.145988 
L 414.640197 132.682561 
L 415.056317 133.224497 
L 415.264377 133.212161 
L 415.472437 132.864633 
L 415.784528 131.682407 
L 416.824828 126.894039 
L 417.032888 126.649868 
L 417.240948 126.695583 
L 417.553038 127.184358 
L 418.177218 128.906402 
L 419.217518 131.759832 
L 419.737668 132.623026 
L 420.049758 132.830915 
L 420.361848 132.810603 
L 421.402148 132.474949 
L 421.714238 132.713896 
L 422.234389 133.504171 
L 423.690809 136.035226 
L 424.314989 136.621007 
L 424.731109 136.741828 
L 425.147229 136.598112 
L 425.563349 136.141455 
L 425.979469 135.319723 
L 427.019769 132.961914 
L 427.227829 132.894224 
L 427.435889 133.033404 
L 427.852009 133.760271 
L 428.68425 135.369121 
L 431.285 138.693514 
L 431.285 138.693514 
" clip-path="url(#p1cdff9f450)" style="fill: none; stroke-dasharray: 1.85,0.8; stroke-dashoffset: 0; stroke: #1f77b4; stroke-width: 0.5"/>
   </g>
   <g id="line2d_34">
    <path d="M 56.985 97.553223 
L 57.29709 98.425178 
L 57.81724 100.789772 
L 58.54545 105.519921 
L 61.250231 124.805255 
L 61.770381 126.640845 
L 62.290531 127.66774 
L 62.706651 128.012987 
L 63.122771 128.022369 
L 63.538891 127.776642 
L 64.163071 127.106377 
L 65.411431 125.679167 
L 65.931581 125.407522 
L 66.451732 125.357545 
L 67.075912 125.540686 
L 67.804122 126.012795 
L 68.844422 126.986816 
L 71.133082 129.199116 
L 72.173382 129.882723 
L 73.005623 130.176605 
L 73.733833 130.200553 
L 74.462043 129.988715 
L 75.294283 129.512327 
L 76.438613 128.584257 
L 79.039364 126.351723 
L 79.663544 126.117672 
L 80.183694 126.133987 
L 80.703844 126.394292 
L 81.223994 126.947196 
L 81.744144 127.841303 
L 82.368324 129.418013 
L 83.304594 132.509158 
L 84.761014 137.317966 
L 85.385195 138.731739 
L 85.801315 139.279981 
L 86.113405 139.433391 
L 86.425495 139.342193 
L 86.841615 138.887298 
L 87.361765 137.903515 
L 88.194005 135.764476 
L 89.442365 132.590911 
L 89.962515 131.755148 
L 90.378635 131.461299 
L 90.690725 131.484927 
L 91.106845 131.764606 
L 91.835056 132.623235 
L 92.667296 133.517281 
L 93.083416 133.664363 
L 93.395506 133.551906 
L 93.707596 133.196194 
L 94.123716 132.26214 
L 94.539836 130.700336 
L 95.164016 127.225557 
L 97.244616 114.450942 
L 97.660737 113.316763 
L 97.868797 113.105022 
L 98.076857 113.166641 
L 98.284917 113.528967 
L 98.597007 114.696105 
L 99.013127 117.488513 
L 99.533277 122.691341 
L 100.261487 132.335993 
L 103.174327 174.116248 
L 103.798508 179.032789 
L 104.318658 181.449189 
L 104.630748 182.141498 
L 104.838808 182.280218 
L 105.046868 182.156663 
L 105.358958 181.472022 
L 105.671048 180.177873 
L 106.087168 177.48411 
L 106.607318 172.522046 
L 107.231498 164.178758 
L 108.167768 148.016898 
L 109.936278 117.042508 
L 110.560459 109.592394 
L 110.976579 106.520603 
L 111.288669 105.425654 
L 111.496729 105.267885 
L 111.704789 105.522009 
L 112.016879 106.589495 
L 112.432999 109.087509 
L 113.057179 114.498614 
L 115.137779 134.180843 
L 115.553899 136.092948 
L 115.865989 136.828208 
L 116.178079 137.047536 
L 116.38614 136.94404 
L 116.69823 136.469596 
L 117.11435 135.357443 
L 117.84256 132.589802 
L 118.98689 128.138524 
L 119.50704 126.922977 
L 119.81913 126.599445 
L 120.13122 126.53783 
L 120.44331 126.686137 
L 120.96346 127.258574 
L 122.41988 129.14604 
L 122.731971 129.244937 
L 123.044061 129.120438 
L 123.356151 128.720546 
L 123.772271 127.6733 
L 124.292421 125.584069 
L 125.124661 121.097985 
L 126.685111 112.564998 
L 127.205261 110.749529 
L 127.621381 109.995893 
L 127.829441 109.902154 
L 128.037501 110.003255 
L 128.349591 110.48051 
L 128.765712 111.629306 
L 129.389892 114.155534 
L 131.574522 123.936345 
L 131.990642 124.792187 
L 132.302732 125.057705 
L 132.614822 125.090496 
L 133.239002 124.834741 
L 133.655122 124.728618 
L 133.967212 124.841589 
L 134.279302 125.224293 
L 134.591392 125.970943 
L 135.007513 127.695446 
L 135.423633 130.457765 
L 135.943783 135.7103 
L 136.567963 145.042155 
L 137.504233 163.412284 
L 139.272743 198.683108 
L 139.896923 207.01911 
L 140.313043 210.334976 
L 140.625133 211.480792 
L 140.833193 211.655625 
L 141.041253 211.39904 
L 141.353344 210.279907 
L 141.769464 207.596294 
L 142.393644 201.572379 
L 143.329914 189.863617 
L 144.786334 171.879776 
L 145.514544 165.442401 
L 146.138724 161.72618 
L 146.554844 160.268217 
L 146.866934 159.748396 
L 147.074994 159.687677 
L 147.283054 159.863497 
L 147.595145 160.58551 
L 148.011265 162.439106 
L 148.427385 165.360402 
L 149.051565 171.745087 
L 150.091865 185.516794 
L 151.236195 199.962857 
L 151.860375 205.226124 
L 152.276495 207.005551 
L 152.484555 207.25586 
L 152.588585 207.20358 
L 152.796645 206.719027 
L 153.108735 205.064964 
L 153.524855 201.329741 
L 154.149036 193.070997 
L 155.085306 176.753307 
L 157.061876 141.243608 
L 157.790086 132.232568 
L 158.518296 125.930694 
L 159.142476 122.50749 
L 159.558596 121.162386 
L 159.974717 120.515825 
L 160.286807 120.462984 
L 160.598897 120.759974 
L 161.015017 121.668216 
L 161.535167 123.575649 
L 162.159347 126.96067 
L 162.887557 132.376823 
L 163.719797 140.432966 
L 164.656067 151.776227 
L 165.800397 168.617405 
L 167.256818 189.868778 
L 167.985028 197.314822 
L 168.401148 199.882775 
L 168.713238 200.807115 
L 168.921298 200.886226 
L 169.129358 200.498215 
L 169.441448 198.970167 
L 169.857568 195.19538 
L 170.377718 188.188969 
L 171.209958 173.411289 
L 173.186529 136.689795 
L 173.810709 129.398209 
L 174.330859 125.817855 
L 174.746979 124.309454 
L 175.059069 123.830114 
L 175.267129 123.771378 
L 175.475189 123.89042 
L 175.787279 124.344408 
L 176.307429 125.614936 
L 177.659819 129.214559 
L 178.075939 129.629449 
L 178.388029 129.658792 
L 178.70012 129.486001 
L 179.11624 129.002514 
L 179.74042 127.905788 
L 181.4049 124.806471 
L 181.82102 124.447554 
L 182.23714 124.399137 
L 182.65326 124.615218 
L 183.27744 125.281945 
L 185.045951 127.47659 
L 185.462071 127.64463 
L 185.774161 127.591574 
L 186.086251 127.352159 
L 186.502371 126.739443 
L 187.126551 125.35107 
L 189.415211 119.647699 
L 189.831331 119.217297 
L 190.143421 119.146905 
L 190.455511 119.321006 
L 190.871631 119.889478 
L 191.391782 121.024999 
L 192.328052 123.773187 
L 193.680442 127.688121 
L 194.200592 128.656421 
L 194.616712 129.055074 
L 195.032832 129.125464 
L 195.448952 128.92219 
L 195.969102 128.36644 
L 196.697312 127.216398 
L 198.465823 124.299009 
L 199.090003 123.765915 
L 199.818213 123.480857 
L 201.898813 122.955932 
L 202.418963 122.507979 
L 202.939113 121.793806 
L 203.667324 120.372215 
L 204.811654 117.533195 
L 206.580164 113.127362 
L 207.412404 111.634342 
L 208.348674 110.417265 
L 210.533305 107.812464 
L 211.365545 106.300314 
L 212.821965 102.97119 
L 213.966295 100.616342 
L 214.590475 99.737461 
L 215.110625 99.34193 
L 215.526745 99.284682 
L 216.046895 99.479131 
L 216.775106 100.064277 
L 218.127496 101.231422 
L 218.647646 101.400748 
L 219.063766 101.316166 
L 219.479886 100.980568 
L 220.000036 100.202249 
L 220.624216 98.837722 
L 221.560486 96.178417 
L 224.265267 88.046889 
L 225.097507 86.405521 
L 225.721687 85.630864 
L 226.241837 85.334645 
L 226.657957 85.352426 
L 227.074077 85.616765 
L 227.490197 86.146225 
L 228.010347 87.206319 
L 228.634528 89.073989 
L 229.362738 92.075785 
L 230.194978 96.594093 
L 231.131248 103.067792 
L 232.171548 111.970603 
L 234.148118 129.462998 
L 234.772298 133.230318 
L 235.292449 135.11148 
L 235.604539 135.566042 
L 235.812599 135.550971 
L 236.020659 135.260564 
L 236.332749 134.322527 
L 236.748869 132.262381 
L 237.373049 127.835189 
L 238.517379 117.553153 
L 239.661709 107.922037 
L 240.285889 104.393917 
L 240.806039 102.749441 
L 241.22216 102.160915 
L 241.53425 102.075245 
L 241.84634 102.245631 
L 242.26246 102.795133 
L 242.88664 104.098385 
L 244.55112 107.907829 
L 245.1753 108.67735 
L 245.69545 109.010034 
L 246.2156 109.103191 
L 246.83978 108.952927 
L 247.567991 108.500259 
L 248.608291 107.535502 
L 249.960681 105.990749 
L 251.313071 104.087342 
L 252.561431 101.944037 
L 255.162182 97.193993 
L 255.890392 96.417482 
L 256.410542 96.166075 
L 256.826662 96.187109 
L 257.346812 96.497712 
L 257.970992 97.188201 
L 259.115322 98.909556 
L 260.155623 100.372767 
L 260.779803 100.923931 
L 261.299953 101.081062 
L 261.820103 100.967282 
L 262.340253 100.625651 
L 263.068463 99.846564 
L 264.108763 98.339541 
L 266.605484 94.591653 
L 267.853844 93.176228 
L 268.894144 92.336716 
L 269.726384 91.929202 
L 270.454594 91.788418 
L 271.182804 91.866617 
L 271.911014 92.180549 
L 272.639225 92.746963 
L 273.367435 93.58261 
L 274.407735 95.185848 
L 275.968185 97.588249 
L 276.696395 98.296557 
L 277.216545 98.50628 
L 277.632665 98.4482 
L 278.048785 98.174197 
L 278.568936 97.569223 
L 279.297146 96.339567 
L 280.441476 93.86861 
L 282.209986 90.073944 
L 283.250286 88.402982 
L 284.290586 87.156467 
L 285.226857 86.359547 
L 286.163127 85.835843 
L 287.099397 85.5586 
L 288.035667 85.511373 
L 288.971937 85.678573 
L 290.012237 86.096882 
L 291.260598 86.650626 
L 291.780748 86.619955 
L 292.196868 86.37533 
L 292.612988 85.874882 
L 293.133138 84.804932 
L 293.653288 83.13994 
L 294.277468 80.20371 
L 295.109708 74.81876 
L 296.670158 64.428226 
L 297.190309 62.146967 
L 297.606429 61.138655 
L 297.814489 60.966478 
L 298.022549 61.044592 
L 298.230609 61.394721 
L 298.542699 62.47135 
L 298.958819 64.861678 
L 299.582999 70.050294 
L 300.623299 81.155856 
L 301.975689 95.262373 
L 302.599869 99.769659 
L 303.120019 101.996814 
L 303.53614 102.894197 
L 303.84823 103.13292 
L 304.16032 103.057627 
L 304.47241 102.720742 
L 304.99256 101.720347 
L 305.92883 99.230229 
L 306.76107 97.24094 
L 307.28122 96.479287 
L 307.80137 96.069048 
L 308.32152 95.937744 
L 308.9457 96.046324 
L 309.881971 96.492656 
L 310.922271 96.928491 
L 311.546451 96.956446 
L 312.170631 96.763967 
L 312.794811 96.336694 
L 313.523021 95.522295 
L 314.251231 94.345962 
L 315.083471 92.529141 
L 316.019742 89.889267 
L 317.268102 85.624959 
L 319.556762 76.77817 
L 320.701092 72.832932 
L 321.325272 71.332456 
L 321.845422 70.619868 
L 322.157513 70.478791 
L 322.469603 70.583094 
L 322.781693 70.957749 
L 323.197813 71.920999 
L 323.717963 73.936826 
L 324.342143 77.484328 
L 325.070353 82.974861 
L 326.006623 91.77827 
L 327.359013 106.924444 
L 330.063794 138.00311 
L 330.896034 144.904448 
L 331.520214 148.46018 
L 331.936334 149.90068 
L 332.352454 150.632451 
L 332.664544 150.783074 
L 332.976634 150.644504 
L 333.392754 150.090978 
L 333.912904 148.962791 
L 336.097535 143.664677 
L 336.617685 143.245621 
L 337.033805 143.171842 
L 337.553955 143.33155 
L 338.282165 143.865617 
L 339.946645 145.221457 
L 340.570825 145.367024 
L 341.403066 145.283642 
L 342.651426 145.123159 
L 343.275606 145.278613 
L 343.795756 145.641546 
L 344.315906 146.287024 
L 345.044116 147.640832 
L 347.644867 152.995312 
L 348.165017 153.444028 
L 348.581137 153.501275 
L 348.997257 153.306309 
L 349.517407 152.785478 
L 350.349647 151.54605 
L 351.910097 149.155522 
L 352.430247 148.710549 
L 352.950397 148.574352 
L 353.470548 148.673836 
L 355.447118 149.333074 
L 355.863238 149.164671 
L 356.279358 148.767358 
L 356.695478 148.086886 
L 357.215628 146.809909 
L 357.943838 144.370308 
L 358.984138 140.007351 
L 361.376829 129.622373 
L 362.313099 126.655336 
L 363.041309 125.049566 
L 363.561459 124.343837 
L 363.977579 124.073818 
L 364.393699 124.087165 
L 364.809819 124.403756 
L 365.225939 125.038179 
L 365.85012 126.493772 
L 366.78639 129.378879 
L 368.34684 134.238897 
L 368.97102 135.564023 
L 369.49117 136.174995 
L 369.90729 136.355696 
L 370.32341 136.315834 
L 370.84356 136.030767 
L 371.6758 135.257445 
L 372.820131 134.199112 
L 373.340281 133.965877 
L 373.860431 133.983537 
L 374.380581 134.221707 
L 375.108791 134.846817 
L 376.045061 135.983697 
L 378.437752 139.037089 
L 379.269992 139.722493 
L 379.998202 140.049487 
L 380.622382 140.084509 
L 381.142532 139.914977 
L 381.766712 139.444157 
L 382.390892 138.673704 
L 383.119102 137.432607 
L 384.055372 135.369022 
L 385.199703 132.270158 
L 388.632693 122.378108 
L 389.256873 121.392692 
L 389.777023 120.975458 
L 390.193143 120.948969 
L 390.609263 121.180434 
L 391.129414 121.770307 
L 391.857624 123.014234 
L 393.210014 125.92737 
L 394.250314 127.968821 
L 395.082554 129.140624 
L 396.018824 130.053879 
L 397.059125 130.746754 
L 400.284055 132.671429 
L 406.005706 136.520896 
L 407.150036 136.893318 
L 408.294366 137.015697 
L 409.438696 136.901971 
L 410.583027 136.567394 
L 411.935417 135.918122 
L 413.703927 134.796737 
L 416.720798 132.861715 
L 417.657068 132.547426 
L 418.385278 132.503754 
L 419.113488 132.684461 
L 419.841698 133.104225 
L 420.881998 133.987127 
L 423.274689 136.144012 
L 424.210959 136.638024 
L 425.355289 136.973115 
L 431.285 138.181581 
L 431.285 138.181581 
" clip-path="url(#p1cdff9f450)" style="fill: none; stroke: #ff7f0e; stroke-width: 0.5; stroke-linecap: square"/>
   </g>
   <g id="line2d_35">
    <path d="M 56.985 290.388143 
L 57.08903 290.388143 
L 57.19306 289.12107 
L 57.50515 290.691806 
L 57.71321 290.958609 
L 58.0253 290.973113 
L 58.96157 290.622275 
L 59.16963 290.07572 
L 60.105901 286.269208 
L 61.250231 280.740651 
L 61.666351 279.180652 
L 61.978441 278.716447 
L 62.186501 278.788353 
L 62.498591 279.361128 
L 63.122771 281.314614 
L 64.787251 286.736971 
L 65.619491 288.565636 
L 66.139641 289.374722 
L 66.659792 289.839762 
L 67.388002 290.158821 
L 67.700092 290.213779 
L 67.908152 289.991487 
L 68.532332 288.850837 
L 69.156512 287.895062 
L 69.572632 287.666462 
L 69.988752 287.727114 
L 71.653232 288.366581 
L 73.005623 288.414667 
L 73.629803 288.785381 
L 74.670103 289.836648 
L 75.398313 290.155215 
L 75.814433 290.194485 
L 76.022493 289.573539 
L 76.334583 287.84296 
L 76.958763 282.405373 
L 77.478913 278.741475 
L 77.791003 277.819232 
L 78.103093 277.550187 
L 78.415183 277.336406 
L 78.727273 276.744285 
L 79.871604 273.679606 
L 80.079664 273.787814 
L 80.391754 274.447592 
L 80.911904 276.394432 
L 83.824744 288.619731 
L 84.032804 288.96265 
L 84.136834 288.711889 
L 84.448924 285.999985 
L 85.073105 276.880796 
L 85.593255 270.794054 
L 86.009375 268.407181 
L 86.841615 265.676908 
L 87.881915 262.019385 
L 88.506095 259.83954 
L 88.714155 259.591261 
L 88.922215 259.705996 
L 89.130275 260.182387 
L 89.442365 261.495881 
L 89.858485 264.233814 
L 90.378635 269.239434 
L 90.898785 276.540025 
L 91.418936 282.564517 
L 91.939086 286.135224 
L 92.251176 287.129515 
L 92.459236 286.189905 
L 92.667296 284.213068 
L 92.979386 279.044603 
L 94.019686 257.703414 
L 94.227746 256.788931 
L 94.331776 256.934625 
L 94.539836 258.251493 
L 94.955956 263.494643 
L 95.892226 275.931622 
L 96.412376 280.126698 
L 97.452676 285.941047 
L 97.972827 287.930648 
L 98.388947 288.885517 
L 98.492977 289.004161 
L 98.597007 288.886254 
L 98.909097 287.571836 
L 99.325217 284.215177 
L 99.845367 277.957933 
L 100.469547 267.994582 
L 101.925967 242.481986 
L 102.029997 242.40434 
L 102.134027 242.843154 
L 102.446117 246.848383 
L 103.798508 279.248635 
L 104.006568 280.458538 
L 104.214628 280.513093 
L 104.838808 278.892134 
L 104.942838 278.96832 
L 105.150898 280.09238 
L 106.087168 286.385287 
L 106.191198 286.715088 
L 106.295228 286.46351 
L 106.503288 284.549672 
L 106.919408 277.314268 
L 108.063738 254.592475 
L 108.479858 249.879589 
L 108.791948 248.580804 
L 108.895978 248.610383 
L 109.104038 249.30835 
L 109.416128 251.651662 
L 109.936278 257.931877 
L 110.456429 267.185496 
L 111.080609 278.378604 
L 111.496729 282.681572 
L 111.600759 282.762765 
L 111.704789 282.570536 
L 111.912849 281.335479 
L 112.432999 275.719802 
L 112.849119 272.412747 
L 113.057179 271.975304 
L 113.161209 272.103897 
L 113.473299 273.546458 
L 113.993449 279.377543 
L 114.513599 284.16992 
L 115.033749 287.00826 
L 115.345839 287.77888 
L 115.553899 287.718142 
L 115.761959 287.353589 
L 116.074049 286.263849 
L 116.49017 283.852113 
L 117.01032 279.193941 
L 118.36271 265.100013 
L 118.57077 264.761496 
L 118.6748 264.942369 
L 118.88286 266.097015 
L 119.09092 267.9637 
L 120.33928 284.061075 
L 120.7554 286.287069 
L 120.96346 286.224888 
L 121.17152 285.605931 
L 121.48361 283.436341 
L 121.89973 278.079198 
L 122.731971 266.441049 
L 122.940031 265.73722 
L 123.044061 265.859813 
L 123.252121 266.956696 
L 123.668241 271.4545 
L 124.708541 283.544502 
L 125.228691 286.671247 
L 125.644811 288.103292 
L 125.748841 288.146412 
L 125.956901 287.51652 
L 126.164961 286.128427 
L 126.477051 282.403874 
L 127.517351 267.621011 
L 127.621381 267.605234 
L 127.725411 267.870408 
L 127.933471 269.661694 
L 128.973772 283.067934 
L 129.181832 283.960804 
L 129.285862 283.998483 
L 129.389892 283.797477 
L 129.597952 282.682258 
L 129.910042 279.514668 
L 131.262432 262.698106 
L 131.470492 261.749697 
L 131.574522 261.594351 
L 131.678552 261.69572 
L 131.886612 262.670859 
L 132.198702 265.84745 
L 133.343032 282.679657 
L 133.759152 285.670445 
L 133.967212 286.080123 
L 134.175272 285.641127 
L 134.591392 283.498603 
L 135.215573 280.246744 
L 135.631693 278.419495 
L 135.943783 275.916156 
L 136.359903 269.937152 
L 137.296173 251.130043 
L 138.440503 228.507578 
L 138.752593 226.390163 
L 138.856623 226.35735 
L 139.064683 227.251488 
L 139.376773 230.602368 
L 139.896923 239.898619 
L 140.313043 250.184907 
L 141.041253 271.249184 
L 141.561404 279.941175 
L 141.665434 280.574279 
L 141.873494 279.355403 
L 142.185584 274.838945 
L 143.225884 256.490783 
L 143.642004 253.350441 
L 143.954094 252.552279 
L 144.162154 252.570987 
L 144.370214 252.930729 
L 144.786334 254.352756 
L 145.722604 258.002872 
L 146.242754 259.097496 
L 146.970964 260.165365 
L 147.179024 260.271758 
L 147.387084 260.134963 
L 147.595145 259.66522 
L 147.907235 258.313829 
L 148.427385 255.931177 
L 148.531415 255.910323 
L 148.739475 256.534116 
L 148.947535 259.122468 
L 149.987835 279.33565 
L 150.299925 282.346174 
L 150.403955 282.273266 
L 150.612015 281.510898 
L 151.652315 275.227826 
L 151.756345 275.275467 
L 151.964405 275.813478 
L 152.276495 278.460464 
L 153.004705 284.795116 
L 153.212765 285.684503 
L 153.316795 285.709064 
L 153.524855 285.339631 
L 154.149036 283.534463 
L 154.357096 284.10415 
L 155.397396 288.18325 
L 155.605456 288.479806 
L 155.813516 287.733818 
L 156.229636 284.90595 
L 157.061876 279.068829 
L 157.582026 277.079207 
L 157.894116 276.497625 
L 158.102176 276.407966 
L 158.310236 276.603931 
L 158.622326 277.46787 
L 159.142476 280.022819 
L 160.390837 287.457958 
L 160.910987 288.791717 
L 161.015017 288.817513 
L 161.327107 288.084821 
L 161.743227 286.108245 
L 162.263377 282.24574 
L 162.783527 276.756309 
L 163.511737 266.224769 
L 164.343977 254.182637 
L 164.656067 251.889141 
L 164.864127 251.585944 
L 165.072187 252.325739 
L 165.384277 255.002308 
L 166.632638 269.379766 
L 167.256818 279.422507 
L 167.568908 282.737701 
L 167.672938 282.924563 
L 167.880998 279.234099 
L 168.193088 267.661237 
L 169.025328 231.439615 
L 169.337418 226.455126 
L 169.441448 226.109452 
L 169.545478 226.345805 
L 169.753538 228.296743 
L 170.065628 233.955556 
L 171.626078 267.874885 
L 172.042198 271.588468 
L 172.978469 276.944361 
L 173.498619 279.209494 
L 174.122799 281.433233 
L 175.059069 286.890193 
L 175.579219 288.487365 
L 175.891309 289.033389 
L 175.995339 289.003831 
L 176.411459 288.214441 
L 177.971909 284.441726 
L 178.388029 284.174819 
L 178.70012 284.195973 
L 179.11624 284.470644 
L 179.74042 284.943112 
L 180.05251 284.858099 
L 180.46863 284.345222 
L 180.88475 283.907531 
L 180.98878 283.918746 
L 181.19684 284.524409 
L 182.13311 288.095659 
L 182.54923 288.871696 
L 182.75729 288.41791 
L 183.58953 286.219242 
L 183.69356 286.183034 
L 183.90162 286.534256 
L 184.941921 289.036501 
L 185.358041 289.481323 
L 185.566101 288.832152 
L 185.878191 286.796348 
L 186.398341 281.277431 
L 187.126551 273.631704 
L 187.438641 272.147117 
L 187.646701 272.055403 
L 187.854761 272.662468 
L 188.166851 274.583183 
L 189.103121 281.183164 
L 189.519241 282.491831 
L 190.039391 283.755801 
L 190.975661 287.819413 
L 191.391782 288.772998 
L 191.495812 288.718191 
L 192.328052 286.586663 
L 192.536112 286.845107 
L 193.680442 289.267799 
L 194.200592 289.781831 
L 194.408652 289.814261 
L 194.720742 289.579598 
L 195.032832 289.007868 
L 195.552982 287.374617 
L 196.281192 285.167054 
L 196.697312 284.612222 
L 197.009402 284.591344 
L 197.321492 284.936226 
L 197.633583 285.571599 
L 198.673883 288.687778 
L 199.194033 289.466243 
L 199.714183 289.892921 
L 199.922243 289.925666 
L 200.234333 289.410218 
L 200.650453 288.016841 
L 201.482693 284.725966 
L 201.690753 284.482968 
L 201.898813 284.474213 
L 202.106873 285.044753 
L 203.043143 288.305923 
L 203.459263 288.994478 
L 203.667324 288.59166 
L 204.083444 286.954816 
L 204.603594 285.107663 
L 204.811654 284.858879 
L 205.019714 284.925305 
L 205.227774 285.236391 
L 206.580164 289.080989 
L 206.996284 289.516809 
L 207.204344 289.180326 
L 207.620464 287.941944 
L 208.036584 286.807846 
L 208.244644 286.578308 
L 208.452704 286.61694 
L 208.764794 287.030301 
L 209.284944 287.790193 
L 209.701064 287.980617 
L 210.221215 288.030667 
L 210.533305 288.430679 
L 211.261515 289.462505 
L 211.885695 289.941922 
L 212.197785 290.003739 
L 212.405845 289.378829 
L 212.717935 287.49709 
L 213.238085 282.29058 
L 213.654205 278.598713 
L 213.862265 277.763856 
L 213.966295 277.665562 
L 214.070325 277.776208 
L 214.278385 278.536596 
L 214.798535 282.032796 
L 215.318685 284.969473 
L 215.838835 286.621901 
L 216.775106 288.934299 
L 217.295256 289.598826 
L 217.919436 290.013767 
L 218.543616 290.196339 
L 218.751676 290.016964 
L 219.063766 289.453223 
L 219.687946 287.604133 
L 220.104066 286.652273 
L 220.312126 286.515564 
L 220.520186 286.661064 
L 221.040336 287.939761 
L 221.560486 288.912777 
L 221.768546 288.603362 
L 221.976606 287.656093 
L 222.288696 284.982769 
L 223.120937 276.596995 
L 223.328997 276.132761 
L 223.433027 276.22772 
L 223.641087 277.555229 
L 224.577357 285.371779 
L 225.097507 287.604139 
L 225.305567 287.743357 
L 225.929747 287.803865 
L 226.241837 288.166996 
L 226.866017 289.052575 
L 227.074077 289.080778 
L 227.282137 288.847516 
L 227.594227 287.907644 
L 228.010347 285.531929 
L 228.946618 279.295208 
L 229.154678 278.862662 
L 229.362738 278.941317 
L 229.570798 279.830726 
L 230.611098 286.661171 
L 230.923188 287.739555 
L 231.027218 287.790786 
L 231.339308 287.336434 
L 231.755428 286.715472 
L 231.963488 286.699102 
L 232.275578 287.025331 
L 232.795728 287.598718 
L 233.107818 287.628909 
L 233.315878 287.509912 
L 233.523938 287.737673 
L 234.668268 289.560422 
L 234.980359 289.780098 
L 235.188419 289.531235 
L 235.812599 288.752015 
L 236.228719 289.144269 
L 236.956929 289.816087 
L 237.164989 289.938906 
L 237.269019 289.837596 
L 237.477079 289.008373 
L 237.789169 286.736777 
L 238.829469 277.211382 
L 239.037529 276.708525 
L 239.245589 276.694045 
L 239.557679 276.880741 
L 239.765739 276.619778 
L 239.973799 275.756203 
L 240.389919 272.375544 
L 240.806039 269.233194 
L 241.014099 268.890574 
L 241.22216 269.566638 
L 241.43022 271.549952 
L 242.36649 283.037076 
L 242.88664 286.393852 
L 243.0947 287.002557 
L 243.40679 287.209941 
L 243.61485 287.071898 
L 243.82291 286.685341 
L 244.135 285.498592 
L 244.55112 282.531799 
L 245.48739 274.324684 
L 245.69545 273.782087 
L 245.79948 273.797311 
L 246.00754 274.366176 
L 246.31963 276.272176 
L 247.672021 286.218053 
L 248.192171 288.120297 
L 248.712321 289.16904 
L 249.128441 289.637591 
L 249.232471 289.623626 
L 249.544561 289.083488 
L 250.064711 287.38794 
L 250.688891 284.607708 
L 251.105011 281.446166 
L 252.249341 270.79671 
L 252.353371 270.918853 
L 252.561431 271.796138 
L 252.873521 275.177551 
L 253.601732 283.25713 
L 254.121882 286.504094 
L 254.329942 287.027005 
L 254.538002 286.986446 
L 254.954122 286.289396 
L 255.370242 285.764607 
L 255.682332 285.786896 
L 256.514572 286.120735 
L 256.930692 286.319438 
L 257.242782 287.00889 
L 257.970992 288.789946 
L 258.491142 289.516532 
L 258.803232 289.677338 
L 259.115322 289.257174 
L 260.051593 287.573202 
L 260.363683 287.540025 
L 260.675773 287.775792 
L 262.028163 289.728817 
L 262.652343 290.074391 
L 262.964433 290.136752 
L 263.276523 289.830981 
L 263.588613 289.100158 
L 263.900703 287.623262 
L 264.316823 284.196458 
L 265.045033 277.668008 
L 265.253093 277.004849 
L 265.357123 276.990954 
L 265.565183 277.445091 
L 265.773243 278.739634 
L 266.709514 285.867731 
L 267.125634 287.582376 
L 267.229664 287.673806 
L 267.437724 287.148504 
L 267.749814 285.070814 
L 268.790114 275.133658 
L 268.894144 274.978539 
L 268.998174 275.095538 
L 269.206234 275.877396 
L 269.622354 279.753225 
L 270.246534 284.950492 
L 270.766684 287.417908 
L 271.078774 288.016041 
L 271.598924 288.544231 
L 272.015044 288.949235 
L 272.743255 289.714903 
L 273.367435 290.064112 
L 273.887585 290.179742 
L 274.303705 289.781032 
L 274.927885 289.238471 
L 275.344005 289.196719 
L 275.864155 289.402734 
L 276.800425 290.012539 
L 277.632665 290.24766 
L 278.985056 290.360367 
L 279.505206 290.278262 
L 280.129386 289.239248 
L 280.545506 288.206032 
L 280.857596 286.633669 
L 281.169686 283.69557 
L 281.793866 274.447397 
L 282.209986 270.07895 
L 282.418046 269.707603 
L 282.626106 270.472877 
L 282.938196 274.038013 
L 283.666406 282.707263 
L 284.186556 286.203366 
L 284.498646 287.0083 
L 284.914767 287.315505 
L 285.642977 287.537548 
L 285.851037 287.398855 
L 286.163127 286.882937 
L 286.891337 285.319238 
L 287.099397 285.203683 
L 287.203427 285.264312 
L 287.515517 286.14864 
L 288.243727 288.387487 
L 288.659847 289.107762 
L 288.763877 289.037306 
L 288.971937 288.497004 
L 289.284027 286.961627 
L 290.220297 281.352878 
L 290.428357 280.999827 
L 290.532387 281.015456 
L 290.740447 281.387075 
L 291.052538 282.525099 
L 292.092838 287.623209 
L 292.612988 288.889408 
L 292.925078 289.263217 
L 293.133138 288.767963 
L 293.445228 287.077942 
L 293.861348 283.083255 
L 294.381498 275.73905 
L 295.421798 259.186911 
L 295.629858 258.476015 
L 295.733888 258.717417 
L 295.941948 260.309305 
L 296.358068 266.341857 
L 296.982248 274.978328 
L 298.230609 285.69301 
L 298.438669 286.588414 
L 298.542699 286.545928 
L 298.750759 285.667226 
L 299.166879 281.995316 
L 299.582999 278.64321 
L 299.791059 277.980879 
L 299.895089 277.957078 
L 300.103149 278.458589 
L 300.311209 279.54354 
L 301.351509 286.595039 
L 301.871659 288.332711 
L 302.079719 288.734661 
L 302.287779 288.72714 
L 302.599869 288.387672 
L 303.120019 287.352022 
L 303.84823 285.922708 
L 304.05629 285.789962 
L 304.36838 285.934386 
L 304.68047 286.70199 
L 305.40868 288.648292 
L 305.92883 289.439575 
L 306.34495 289.793905 
L 306.55301 289.61092 
L 306.8651 288.929952 
L 309.04973 282.915191 
L 309.25779 282.862435 
L 309.46585 283.090974 
L 309.777941 284.36607 
L 310.506151 287.550539 
L 311.026301 288.841401 
L 311.234361 289.045694 
L 311.546451 288.655855 
L 312.482721 286.714666 
L 312.690781 286.953819 
L 313.939141 289.423579 
L 314.043171 289.534647 
L 314.147201 289.468546 
L 314.355261 288.663937 
L 314.667351 286.409719 
L 315.395561 278.284718 
L 316.227802 267.981083 
L 316.747952 257.197061 
L 317.268102 246.645975 
L 317.476162 244.61092 
L 317.580192 244.280253 
L 317.684222 244.423755 
L 317.892282 246.049221 
L 318.204372 251.101688 
L 319.660792 278.824363 
L 320.180942 284.064159 
L 320.493032 285.970316 
L 320.597062 286.050394 
L 320.805122 284.930277 
L 321.117212 281.357371 
L 321.637362 274.715646 
L 321.845422 273.61064 
L 321.949452 273.561299 
L 322.157513 274.283617 
L 322.469603 277.304514 
L 323.197813 284.27704 
L 323.405873 285.113693 
L 323.613933 285.190375 
L 323.821993 284.688868 
L 324.758263 281.58752 
L 325.590503 280.363418 
L 325.798563 280.410381 
L 325.902593 280.50676 
L 326.110653 281.286564 
L 327.150953 287.179449 
L 327.567073 288.34593 
L 327.879163 288.354489 
L 328.191253 288.014841 
L 328.607374 287.082925 
L 329.231554 285.591924 
L 329.335584 285.630537 
L 329.647674 286.43135 
L 330.375884 288.515411 
L 330.792004 289.233183 
L 330.896034 289.309194 
L 331.000064 289.154071 
L 331.416184 287.376312 
L 332.144394 283.92109 
L 332.456484 283.230706 
L 332.768574 283.048782 
L 333.184694 283.187103 
L 333.808874 283.560819 
L 334.120964 283.996168 
L 334.537084 285.052863 
L 335.473355 288.325821 
L 335.993505 289.26834 
L 336.513655 289.783005 
L 337.137835 290.100611 
L 338.074105 290.294716 
L 339.842615 290.373397 
L 341.195006 290.319196 
L 341.923216 289.862823 
L 342.651426 289.478403 
L 342.963516 289.57513 
L 344.107846 290.140178 
L 344.627996 290.218127 
L 344.940086 289.809487 
L 345.564266 288.890947 
L 345.876356 289.107127 
L 346.812626 289.902813 
L 347.124717 290.050273 
L 347.228747 289.955145 
L 348.373077 286.77776 
L 349.309347 285.438824 
L 349.725467 284.046441 
L 350.973827 278.946556 
L 351.077857 279.017429 
L 351.389947 279.893236 
L 352.846367 288.016617 
L 353.262487 288.896375 
L 353.574578 288.98759 
L 353.886668 288.999739 
L 355.551148 290.140095 
L 355.759208 290.144508 
L 355.967268 289.696492 
L 356.279358 288.350092 
L 356.591448 285.925844 
L 357.007568 280.647798 
L 358.151898 263.95364 
L 358.359958 263.499813 
L 358.463988 263.705942 
L 358.672048 264.869284 
L 359.088168 269.225647 
L 360.336529 283.510901 
L 360.856679 286.642189 
L 361.376829 288.373525 
L 361.688919 288.930264 
L 361.896979 288.809979 
L 362.209069 288.169367 
L 362.625189 286.607901 
L 363.873549 281.402354 
L 364.185639 280.930841 
L 364.393699 280.948657 
L 364.601759 281.220778 
L 364.913849 282.012067 
L 365.433999 283.98176 
L 366.16221 287.31926 
L 366.68236 288.711516 
L 367.20251 289.485531 
L 367.41057 289.567371 
L 367.82669 289.103222 
L 369.07505 287.226432 
L 369.38714 287.321516 
L 369.80326 288.12438 
L 370.42744 289.227589 
L 370.94759 289.756425 
L 371.15565 289.779202 
L 371.46774 288.805839 
L 371.98789 285.77592 
L 372.404011 283.648591 
L 372.612071 283.180623 
L 372.820131 283.184416 
L 373.028191 283.592342 
L 373.444311 285.092521 
L 374.172521 287.891851 
L 374.692671 289.027422 
L 375.212821 289.656155 
L 375.837001 290.041991 
L 376.669241 290.250832 
L 377.189391 290.17487 
L 377.813571 289.822514 
L 378.437752 289.494721 
L 378.957902 289.503443 
L 380.310292 290.170532 
L 381.038502 290.296472 
L 381.246562 290.104864 
L 381.662682 289.224682 
L 382.702982 286.68308 
L 383.223132 286.081389 
L 383.639252 285.871575 
L 383.847312 286.234251 
L 384.887613 288.925977 
L 385.199703 289.373669 
L 385.303733 289.307998 
L 385.615823 287.791393 
L 386.031943 284.176952 
L 387.072243 274.176795 
L 387.280303 273.391754 
L 387.384333 273.273461 
L 387.488363 273.340042 
L 387.696423 273.99857 
L 388.008513 276.025073 
L 389.360903 286.438032 
L 389.881053 288.25198 
L 390.297173 289.027314 
L 391.545534 289.990292 
L 392.377774 290.24 
L 392.793894 290.271838 
L 393.105984 289.841102 
L 393.626134 288.517698 
L 394.146284 287.309342 
L 394.458374 287.10343 
L 394.666434 287.203976 
L 395.082554 287.760384 
L 396.330914 289.586292 
L 396.955094 290.004307 
L 397.579275 290.170101 
L 397.995395 290.078384 
L 401.012265 290.347655 
L 401.844505 290.199415 
L 403.196895 289.674082 
L 404.757346 290.248267 
L 406.109736 290.360396 
L 406.837946 290.306966 
L 407.150036 289.879104 
L 407.566156 288.853367 
L 408.190336 286.480089 
L 409.022576 283.189939 
L 409.334666 282.800507 
L 409.542727 282.948722 
L 409.854817 283.675983 
L 410.166907 284.796572 
L 410.895117 287.724946 
L 411.415267 288.934328 
L 411.935417 289.605659 
L 412.039447 289.612465 
L 412.351537 289.032705 
L 412.975717 287.662381 
L 413.287807 287.425057 
L 413.599897 287.492805 
L 413.911987 287.685831 
L 415.264377 289.704543 
L 415.368407 289.782195 
L 415.472437 289.721115 
L 415.784528 288.719043 
L 416.720798 284.684426 
L 417.032888 284.33076 
L 417.240948 284.449734 
L 417.553038 285.027483 
L 418.177218 286.886257 
L 418.801398 288.606087 
L 419.321548 289.419647 
L 419.841698 289.86758 
L 420.153788 289.92488 
L 420.673938 289.265773 
L 421.298118 288.4644 
L 421.610208 288.325282 
L 421.922298 288.393798 
L 422.442449 288.829259 
L 423.274689 289.731931 
L 423.898869 290.073111 
L 424.731109 290.271645 
L 424.939169 290.246224 
L 425.355289 289.850073 
L 425.771409 289.139275 
L 426.395589 287.4899 
L 426.915739 286.276146 
L 427.227829 286.049577 
L 427.435889 286.154509 
L 427.747979 286.605926 
L 428.78828 288.347333 
L 429.2044 288.724406 
L 430.03664 289.683933 
L 430.66082 290.049876 
L 431.285 290.227811 
L 431.285 290.227811 
" clip-path="url(#p1cdff9f450)" style="fill: none; stroke: #2ca02c; stroke-width: 0.5; stroke-linecap: square"/>
   </g>
   <g id="patch_3">
    <path d="M 38.27 303.64 
L 38.27 25.44 
" style="fill: none; stroke: #000000; stroke-width: 0.8; stroke-linejoin: miter; stroke-linecap: square"/>
   </g>
   <g id="patch_4">
    <path d="M 450 303.64 
L 450 25.44 
" style="fill: none; stroke: #000000; stroke-width: 0.8; stroke-linejoin: miter; stroke-linecap: square"/>
   </g>
   <g id="patch_5">
    <path d="M 38.27 303.64 
L 450 303.64 
" style="fill: none; stroke: #000000; stroke-width: 0.8; stroke-linejoin: miter; stroke-linecap: square"/>
   </g>
   <g id="patch_6">
    <path d="M 38.27 25.44 
L 450 25.44 
" style="fill: none; stroke: #000000; stroke-width: 0.8; stroke-linejoin: miter; stroke-linecap: square"/>
   </g>
   <g id="text_19">
    <!-- cvxEDA (σ=1.6s  data_7_E4) -->
    <g transform="translate(158.48125 19.44) scale(0.12 -0.12)">
     <defs>
      <path id="DejaVuSans-63" d="M 3122 3366 
L 3122 2828 
Q 2878 2963 2633 3030 
Q 2388 3097 2138 3097 
Q 1578 3097 1268 2742 
Q 959 2388 959 1747 
Q 959 1106 1268 751 
Q 1578 397 2138 397 
Q 2388 397 2633 464 
Q 2878 531 3122 666 
L 3122 134 
Q 2881 22 2623 -34 
Q 2366 -91 2075 -91 
Q 1284 -91 818 406 
Q 353 903 353 1747 
Q 353 2603 823 3093 
Q 1294 3584 2113 3584 
Q 2378 3584 2631 3529 
Q 2884 3475 3122 3366 
z
" transform="scale(0.015625)"/>
      <path id="DejaVuSans-76" d="M 191 3500 
L 800 3500 
L 1894 563 
L 2988 3500 
L 3597 3500 
L 2284 0 
L 1503 0 
L 191 3500 
z
" transform="scale(0.015625)"/>
      <path id="DejaVuSans-78" d="M 3513 3500 
L 2247 1797 
L 3578 0 
L 2900 0 
L 1881 1375 
L 863 0 
L 184 0 
L 1544 1831 
L 300 3500 
L 978 3500 
L 1906 2253 
L 2834 3500 
L 3513 3500 
z
" transform="scale(0.015625)"/>
      <path id="DejaVuSans-3c3" d="M 1959 3044 
Q 1484 3044 1228 2700 
Q 959 2341 959 1747 
Q 959 1119 1226 758 
Q 1494 397 1959 397 
Q 2419 397 2687 759 
Q 2956 1122 2956 1747 
Q 2956 2319 2688 2700 
Q 2441 3044 1959 3044 
z
M 1959 3500 
L 3869 3500 
L 3869 2925 
L 3225 2925 
Q 3566 2438 3566 1747 
Q 3566 888 3138 400 
Q 2709 -91 1959 -91 
Q 1206 -91 781 400 
Q 353 888 353 1747 
Q 353 2613 781 3097 
Q 1134 3500 1959 3500 
z
" transform="scale(0.015625)"/>
      <path id="DejaVuSans-3d" d="M 678 2906 
L 4684 2906 
L 4684 2381 
L 678 2381 
L 678 2906 
z
M 678 1631 
L 4684 1631 
L 4684 1100 
L 678 1100 
L 678 1631 
z
" transform="scale(0.015625)"/>
      <path id="DejaVuSans-2e" d="M 684 794 
L 1344 794 
L 1344 0 
L 684 0 
L 684 794 
z
" transform="scale(0.015625)"/>
      <path id="DejaVuSans-64" d="M 2906 2969 
L 2906 4863 
L 3481 4863 
L 3481 0 
L 2906 0 
L 2906 525 
Q 2725 213 2448 61 
Q 2172 -91 1784 -91 
Q 1150 -91 751 415 
Q 353 922 353 1747 
Q 353 2572 751 3078 
Q 1150 3584 1784 3584 
Q 2172 3584 2448 3432 
Q 2725 3281 2906 2969 
z
M 947 1747 
Q 947 1113 1208 752 
Q 1469 391 1925 391 
Q 2381 391 2643 752 
Q 2906 1113 2906 1747 
Q 2906 2381 2643 2742 
Q 2381 3103 1925 3103 
Q 1469 3103 1208 2742 
Q 947 2381 947 1747 
z
" transform="scale(0.015625)"/>
      <path id="DejaVuSans-5f" d="M 3263 -1063 
L 3263 -1509 
L -63 -1509 
L -63 -1063 
L 3263 -1063 
z
" transform="scale(0.015625)"/>
     </defs>
     <use xlink:href="#DejaVuSans-63"/>
     <use xlink:href="#DejaVuSans-76" transform="translate(54.980469 0)"/>
     <use xlink:href="#DejaVuSans-78" transform="translate(114.160156 0)"/>
     <use xlink:href="#DejaVuSans-45" transform="translate(173.339844 0)"/>
     <use xlink:href="#DejaVuSans-44" transform="translate(236.523438 0)"/>
     <use xlink:href="#DejaVuSans-41" transform="translate(311.775391 0)"/>
     <use xlink:href="#DejaVuSans-20" transform="translate(380.183594 0)"/>
     <use xlink:href="#DejaVuSans-28" transform="translate(411.970703 0)"/>
     <use xlink:href="#DejaVuSans-3c3" transform="translate(450.984375 0)"/>
     <use xlink:href="#DejaVuSans-3d" transform="translate(514.363281 0)"/>
     <use xlink:href="#DejaVuSans-31" transform="translate(598.152344 0)"/>
     <use xlink:href="#DejaVuSans-2e" transform="translate(661.775391 0)"/>
     <use xlink:href="#DejaVuSans-36" transform="translate(693.5625 0)"/>
     <use xlink:href="#DejaVuSans-73" transform="translate(757.185547 0)"/>
     <use xlink:href="#DejaVuSans-20" transform="translate(809.285156 0)"/>
     <use xlink:href="#DejaVuSans-20" transform="translate(841.072266 0)"/>
     <use xlink:href="#DejaVuSans-64" transform="translate(872.859375 0)"/>
     <use xlink:href="#DejaVuSans-61" transform="translate(936.335938 0)"/>
     <use xlink:href="#DejaVuSans-74" transform="translate(997.615234 0)"/>
     <use xlink:href="#DejaVuSans-61" transform="translate(1036.824219 0)"/>
     <use xlink:href="#DejaVuSans-5f" transform="translate(1098.103516 0)"/>
     <use xlink:href="#DejaVuSans-37" transform="translate(1148.103516 0)"/>
     <use xlink:href="#DejaVuSans-5f" transform="translate(1211.726562 0)"/>
     <use xlink:href="#DejaVuSans-45" transform="translate(1261.726562 0)"/>
     <use xlink:href="#DejaVuSans-34" transform="translate(1324.910156 0)"/>
     <use xlink:href="#DejaVuSans-29" transform="translate(1388.533203 0)"/>
    </g>
   </g>
   <g id="legend_1">
    <g id="patch_7">
     <path d="M 350.09375 77.474375 
L 443 77.474375 
Q 445 77.474375 445 75.474375 
L 445 32.44 
Q 445 30.44 443 30.44 
L 350.09375 30.44 
Q 348.09375 30.44 348.09375 32.44 
L 348.09375 75.474375 
Q 348.09375 77.474375 350.09375 77.474375 
z
" style="fill: #ffffff; opacity: 0.8; stroke: #cccccc; stroke-linejoin: miter"/>
    </g>
    <g id="line2d_36">
     <path d="M 352.09375 38.538437 
L 362.09375 38.538437 
L 372.09375 38.538437 
" style="fill: none; stroke-dasharray: 1.85,0.8; stroke-dashoffset: 0; stroke: #1f77b4; stroke-width: 0.5"/>
    </g>
    <g id="text_20">
     <!-- Filtered EDA -->
     <g transform="translate(380.09375 42.038437) scale(0.1 -0.1)">
      <defs>
       <path id="DejaVuSans-46" d="M 628 4666 
L 3309 4666 
L 3309 4134 
L 1259 4134 
L 1259 2759 
L 3109 2759 
L 3109 2228 
L 1259 2228 
L 1259 0 
L 628 0 
L 628 4666 
z
" transform="scale(0.015625)"/>
       <path id="DejaVuSans-72" d="M 2631 2963 
Q 2534 3019 2420 3045 
Q 2306 3072 2169 3072 
Q 1681 3072 1420 2755 
Q 1159 2438 1159 1844 
L 1159 0 
L 581 0 
L 581 3500 
L 1159 3500 
L 1159 2956 
Q 1341 3275 1631 3429 
Q 1922 3584 2338 3584 
Q 2397 3584 2469 3576 
Q 2541 3569 2628 3553 
L 2631 2963 
z
" transform="scale(0.015625)"/>
      </defs>
      <use xlink:href="#DejaVuSans-46"/>
      <use xlink:href="#DejaVuSans-69" transform="translate(50.269531 0)"/>
      <use xlink:href="#DejaVuSans-6c" transform="translate(78.052734 0)"/>
      <use xlink:href="#DejaVuSans-74" transform="translate(105.835938 0)"/>
      <use xlink:href="#DejaVuSans-65" transform="translate(145.044922 0)"/>
      <use xlink:href="#DejaVuSans-72" transform="translate(206.568359 0)"/>
      <use xlink:href="#DejaVuSans-65" transform="translate(245.431641 0)"/>
      <use xlink:href="#DejaVuSans-64" transform="translate(306.955078 0)"/>
      <use xlink:href="#DejaVuSans-20" transform="translate(370.431641 0)"/>
      <use xlink:href="#DejaVuSans-45" transform="translate(402.21875 0)"/>
      <use xlink:href="#DejaVuSans-44" transform="translate(465.402344 0)"/>
      <use xlink:href="#DejaVuSans-41" transform="translate(540.654297 0)"/>
     </g>
    </g>
    <g id="line2d_37">
     <path d="M 352.09375 53.216562 
L 362.09375 53.216562 
L 372.09375 53.216562 
" style="fill: none; stroke: #ff7f0e; stroke-width: 0.5; stroke-linecap: square"/>
    </g>
    <g id="text_21">
     <!-- Tonic -->
     <g transform="translate(380.09375 56.716562) scale(0.1 -0.1)">
      <defs>
       <path id="DejaVuSans-6f" d="M 1959 3097 
Q 1497 3097 1228 2736 
Q 959 2375 959 1747 
Q 959 1119 1226 758 
Q 1494 397 1959 397 
Q 2419 397 2687 759 
Q 2956 1122 2956 1747 
Q 2956 2369 2687 2733 
Q 2419 3097 1959 3097 
z
M 1959 3584 
Q 2709 3584 3137 3096 
Q 3566 2609 3566 1747 
Q 3566 888 3137 398 
Q 2709 -91 1959 -91 
Q 1206 -91 779 398 
Q 353 888 353 1747 
Q 353 2609 779 3096 
Q 1206 3584 1959 3584 
z
" transform="scale(0.015625)"/>
      </defs>
      <use xlink:href="#DejaVuSans-54"/>
      <use xlink:href="#DejaVuSans-6f" transform="translate(44.083984 0)"/>
      <use xlink:href="#DejaVuSans-6e" transform="translate(105.265625 0)"/>
      <use xlink:href="#DejaVuSans-69" transform="translate(168.644531 0)"/>
      <use xlink:href="#DejaVuSans-63" transform="translate(196.427734 0)"/>
     </g>
    </g>
    <g id="line2d_38">
     <path d="M 352.09375 67.894687 
L 362.09375 67.894687 
L 372.09375 67.894687 
" style="fill: none; stroke: #2ca02c; stroke-width: 0.5; stroke-linecap: square"/>
    </g>
    <g id="text_22">
     <!-- Phasic -->
     <g transform="translate(380.09375 71.394687) scale(0.1 -0.1)">
      <defs>
       <path id="DejaVuSans-50" d="M 1259 4147 
L 1259 2394 
L 2053 2394 
Q 2494 2394 2734 2622 
Q 2975 2850 2975 3272 
Q 2975 3691 2734 3919 
Q 2494 4147 2053 4147 
L 1259 4147 
z
M 628 4666 
L 2053 4666 
Q 2838 4666 3239 4311 
Q 3641 3956 3641 3272 
Q 3641 2581 3239 2228 
Q 2838 1875 2053 1875 
L 1259 1875 
L 1259 0 
L 628 0 
L 628 4666 
z
" transform="scale(0.015625)"/>
       <path id="DejaVuSans-68" d="M 3513 2113 
L 3513 0 
L 2938 0 
L 2938 2094 
Q 2938 2591 2744 2837 
Q 2550 3084 2163 3084 
Q 1697 3084 1428 2787 
Q 1159 2491 1159 1978 
L 1159 0 
L 581 0 
L 581 4863 
L 1159 4863 
L 1159 2956 
Q 1366 3272 1645 3428 
Q 1925 3584 2291 3584 
Q 2894 3584 3203 3211 
Q 3513 2838 3513 2113 
z
" transform="scale(0.015625)"/>
      </defs>
      <use xlink:href="#DejaVuSans-50"/>
      <use xlink:href="#DejaVuSans-68" transform="translate(60.302734 0)"/>
      <use xlink:href="#DejaVuSans-61" transform="translate(123.681641 0)"/>
      <use xlink:href="#DejaVuSans-73" transform="translate(184.960938 0)"/>
      <use xlink:href="#DejaVuSans-69" transform="translate(237.060547 0)"/>
      <use xlink:href="#DejaVuSans-63" transform="translate(264.84375 0)"/>
     </g>
    </g>
   </g>
  </g>
 </g>
 <defs>
  <clipPath id="p1cdff9f450">
   <rect x="38.27" y="25.44" width="411.73" height="278.2"/>
  </clipPath>
 </defs>
</svg>
