<?xml version="1.0" encoding="utf-8" standalone="no"?>
<!DOCTYPE svg PUBLIC "-//W3C//DTD SVG 1.1//EN"
  "http://www.w3.org/Graphics/SVG/1.1/DTD/svg11.dtd">
<svg xmlns:xlink="http://www.w3.org/1999/xlink" width="460.8pt" height="345.6pt" viewBox="0 0 460.8 345.6" xmlns="http://www.w3.org/2000/svg" version="1.1">
 <metadata>
  <rdf:RDF xmlns:dc="http://purl.org/dc/elements/1.1/" xmlns:cc="http://creativecommons.org/ns#" xmlns:rdf="http://www.w3.org/1999/02/22-rdf-syntax-ns#">
   <cc:Work>
    <dc:type rdf:resource="http://purl.org/dc/dcmitype/StillImage"/>
    <dc:date>2025-09-22T14:19:01.228587</dc:date>
    <dc:format>image/svg+xml</dc:format>
    <dc:creator>
     <cc:Agent>
      <dc:title>Matplotlib v3.10.0, https://matplotlib.org/</dc:title>
     </cc:Agent>
    </dc:creator>
   </cc:Work>
  </rdf:RDF>
 </metadata>
 <defs>
  <style type="text/css">*{stroke-linejoin: round; stroke-linecap: butt}</style>
 </defs>
 <g id="figure_1">
  <g id="patch_1">
   <path d="M 0 345.6 
L 460.8 345.6 
L 460.8 0 
L 0 0 
z
" style="fill: #ffffff"/>
  </g>
  <g id="axes_1">
   <g id="patch_2">
    <path d="M 38.27 303.64 
L 450 303.64 
L 450 25.44 
L 38.27 25.44 
z
" style="fill: #ffffff"/>
   </g>
   <g id="matplotlib.axis_1">
    <g id="xtick_1">
     <g id="line2d_1">
      <path d="M 56.985 303.64 
L 56.985 25.44 
" clip-path="url(#p0ebaeb9919)" style="fill: none; stroke: #b0b0b0; stroke-opacity: 0.3; stroke-width: 0.8; stroke-linecap: square"/>
     </g>
     <g id="line2d_2">
      <defs>
       <path id="mf0e9c0ae3f" d="M 0 0 
L 0 3.5 
" style="stroke: #000000; stroke-width: 0.8"/>
      </defs>
      <g>
       <use xlink:href="#mf0e9c0ae3f" x="56.985" y="303.64" style="stroke: #000000; stroke-width: 0.8"/>
      </g>
     </g>
     <g id="text_1">
      <!-- 0 -->
      <g transform="translate(53.80375 318.238437) scale(0.1 -0.1)">
       <defs>
        <path id="DejaVuSans-30" d="M 2034 4250 
Q 1547 4250 1301 3770 
Q 1056 3291 1056 2328 
Q 1056 1369 1301 889 
Q 1547 409 2034 409 
Q 2525 409 2770 889 
Q 3016 1369 3016 2328 
Q 3016 3291 2770 3770 
Q 2525 4250 2034 4250 
z
M 2034 4750 
Q 2819 4750 3233 4129 
Q 3647 3509 3647 2328 
Q 3647 1150 3233 529 
Q 2819 -91 2034 -91 
Q 1250 -91 836 529 
Q 422 1150 422 2328 
Q 422 3509 836 4129 
Q 1250 4750 2034 4750 
z
" transform="scale(0.015625)"/>
       </defs>
       <use xlink:href="#DejaVuSans-30"/>
      </g>
     </g>
    </g>
    <g id="xtick_2">
     <g id="line2d_3">
      <path d="M 106.891667 303.64 
L 106.891667 25.44 
" clip-path="url(#p0ebaeb9919)" style="fill: none; stroke: #b0b0b0; stroke-opacity: 0.3; stroke-width: 0.8; stroke-linecap: square"/>
     </g>
     <g id="line2d_4">
      <g>
       <use xlink:href="#mf0e9c0ae3f" x="106.891667" y="303.64" style="stroke: #000000; stroke-width: 0.8"/>
      </g>
     </g>
     <g id="text_2">
      <!-- 2 -->
      <g transform="translate(103.710417 318.238437) scale(0.1 -0.1)">
       <defs>
        <path id="DejaVuSans-32" d="M 1228 531 
L 3431 531 
L 3431 0 
L 469 0 
L 469 531 
Q 828 903 1448 1529 
Q 2069 2156 2228 2338 
Q 2531 2678 2651 2914 
Q 2772 3150 2772 3378 
Q 2772 3750 2511 3984 
Q 2250 4219 1831 4219 
Q 1534 4219 1204 4116 
Q 875 4013 500 3803 
L 500 4441 
Q 881 4594 1212 4672 
Q 1544 4750 1819 4750 
Q 2544 4750 2975 4387 
Q 3406 4025 3406 3419 
Q 3406 3131 3298 2873 
Q 3191 2616 2906 2266 
Q 2828 2175 2409 1742 
Q 1991 1309 1228 531 
z
" transform="scale(0.015625)"/>
       </defs>
       <use xlink:href="#DejaVuSans-32"/>
      </g>
     </g>
    </g>
    <g id="xtick_3">
     <g id="line2d_5">
      <path d="M 156.798333 303.64 
L 156.798333 25.44 
" clip-path="url(#p0ebaeb9919)" style="fill: none; stroke: #b0b0b0; stroke-opacity: 0.3; stroke-width: 0.8; stroke-linecap: square"/>
     </g>
     <g id="line2d_6">
      <g>
       <use xlink:href="#mf0e9c0ae3f" x="156.798333" y="303.64" style="stroke: #000000; stroke-width: 0.8"/>
      </g>
     </g>
     <g id="text_3">
      <!-- 4 -->
      <g transform="translate(153.617083 318.238437) scale(0.1 -0.1)">
       <defs>
        <path id="DejaVuSans-34" d="M 2419 4116 
L 825 1625 
L 2419 1625 
L 2419 4116 
z
M 2253 4666 
L 3047 4666 
L 3047 1625 
L 3713 1625 
L 3713 1100 
L 3047 1100 
L 3047 0 
L 2419 0 
L 2419 1100 
L 313 1100 
L 313 1709 
L 2253 4666 
z
" transform="scale(0.015625)"/>
       </defs>
       <use xlink:href="#DejaVuSans-34"/>
      </g>
     </g>
    </g>
    <g id="xtick_4">
     <g id="line2d_7">
      <path d="M 206.705 303.64 
L 206.705 25.44 
" clip-path="url(#p0ebaeb9919)" style="fill: none; stroke: #b0b0b0; stroke-opacity: 0.3; stroke-width: 0.8; stroke-linecap: square"/>
     </g>
     <g id="line2d_8">
      <g>
       <use xlink:href="#mf0e9c0ae3f" x="206.705" y="303.64" style="stroke: #000000; stroke-width: 0.8"/>
      </g>
     </g>
     <g id="text_4">
      <!-- 6 -->
      <g transform="translate(203.52375 318.238437) scale(0.1 -0.1)">
       <defs>
        <path id="DejaVuSans-36" d="M 2113 2584 
Q 1688 2584 1439 2293 
Q 1191 2003 1191 1497 
Q 1191 994 1439 701 
Q 1688 409 2113 409 
Q 2538 409 2786 701 
Q 3034 994 3034 1497 
Q 3034 2003 2786 2293 
Q 2538 2584 2113 2584 
z
M 3366 4563 
L 3366 3988 
Q 3128 4100 2886 4159 
Q 2644 4219 2406 4219 
Q 1781 4219 1451 3797 
Q 1122 3375 1075 2522 
Q 1259 2794 1537 2939 
Q 1816 3084 2150 3084 
Q 2853 3084 3261 2657 
Q 3669 2231 3669 1497 
Q 3669 778 3244 343 
Q 2819 -91 2113 -91 
Q 1303 -91 875 529 
Q 447 1150 447 2328 
Q 447 3434 972 4092 
Q 1497 4750 2381 4750 
Q 2619 4750 2861 4703 
Q 3103 4656 3366 4563 
z
" transform="scale(0.015625)"/>
       </defs>
       <use xlink:href="#DejaVuSans-36"/>
      </g>
     </g>
    </g>
    <g id="xtick_5">
     <g id="line2d_9">
      <path d="M 256.611667 303.64 
L 256.611667 25.44 
" clip-path="url(#p0ebaeb9919)" style="fill: none; stroke: #b0b0b0; stroke-opacity: 0.3; stroke-width: 0.8; stroke-linecap: square"/>
     </g>
     <g id="line2d_10">
      <g>
       <use xlink:href="#mf0e9c0ae3f" x="256.611667" y="303.64" style="stroke: #000000; stroke-width: 0.8"/>
      </g>
     </g>
     <g id="text_5">
      <!-- 8 -->
      <g transform="translate(253.430417 318.238437) scale(0.1 -0.1)">
       <defs>
        <path id="DejaVuSans-38" d="M 2034 2216 
Q 1584 2216 1326 1975 
Q 1069 1734 1069 1313 
Q 1069 891 1326 650 
Q 1584 409 2034 409 
Q 2484 409 2743 651 
Q 3003 894 3003 1313 
Q 3003 1734 2745 1975 
Q 2488 2216 2034 2216 
z
M 1403 2484 
Q 997 2584 770 2862 
Q 544 3141 544 3541 
Q 544 4100 942 4425 
Q 1341 4750 2034 4750 
Q 2731 4750 3128 4425 
Q 3525 4100 3525 3541 
Q 3525 3141 3298 2862 
Q 3072 2584 2669 2484 
Q 3125 2378 3379 2068 
Q 3634 1759 3634 1313 
Q 3634 634 3220 271 
Q 2806 -91 2034 -91 
Q 1263 -91 848 271 
Q 434 634 434 1313 
Q 434 1759 690 2068 
Q 947 2378 1403 2484 
z
M 1172 3481 
Q 1172 3119 1398 2916 
Q 1625 2713 2034 2713 
Q 2441 2713 2670 2916 
Q 2900 3119 2900 3481 
Q 2900 3844 2670 4047 
Q 2441 4250 2034 4250 
Q 1625 4250 1398 4047 
Q 1172 3844 1172 3481 
z
" transform="scale(0.015625)"/>
       </defs>
       <use xlink:href="#DejaVuSans-38"/>
      </g>
     </g>
    </g>
    <g id="xtick_6">
     <g id="line2d_11">
      <path d="M 306.518333 303.64 
L 306.518333 25.44 
" clip-path="url(#p0ebaeb9919)" style="fill: none; stroke: #b0b0b0; stroke-opacity: 0.3; stroke-width: 0.8; stroke-linecap: square"/>
     </g>
     <g id="line2d_12">
      <g>
       <use xlink:href="#mf0e9c0ae3f" x="306.518333" y="303.64" style="stroke: #000000; stroke-width: 0.8"/>
      </g>
     </g>
     <g id="text_6">
      <!-- 10 -->
      <g transform="translate(300.155833 318.238437) scale(0.1 -0.1)">
       <defs>
        <path id="DejaVuSans-31" d="M 794 531 
L 1825 531 
L 1825 4091 
L 703 3866 
L 703 4441 
L 1819 4666 
L 2450 4666 
L 2450 531 
L 3481 531 
L 3481 0 
L 794 0 
L 794 531 
z
" transform="scale(0.015625)"/>
       </defs>
       <use xlink:href="#DejaVuSans-31"/>
       <use xlink:href="#DejaVuSans-30" transform="translate(63.623047 0)"/>
      </g>
     </g>
    </g>
    <g id="xtick_7">
     <g id="line2d_13">
      <path d="M 356.425 303.64 
L 356.425 25.44 
" clip-path="url(#p0ebaeb9919)" style="fill: none; stroke: #b0b0b0; stroke-opacity: 0.3; stroke-width: 0.8; stroke-linecap: square"/>
     </g>
     <g id="line2d_14">
      <g>
       <use xlink:href="#mf0e9c0ae3f" x="356.425" y="303.64" style="stroke: #000000; stroke-width: 0.8"/>
      </g>
     </g>
     <g id="text_7">
      <!-- 12 -->
      <g transform="translate(350.0625 318.238437) scale(0.1 -0.1)">
       <use xlink:href="#DejaVuSans-31"/>
       <use xlink:href="#DejaVuSans-32" transform="translate(63.623047 0)"/>
      </g>
     </g>
    </g>
    <g id="xtick_8">
     <g id="line2d_15">
      <path d="M 406.331667 303.64 
L 406.331667 25.44 
" clip-path="url(#p0ebaeb9919)" style="fill: none; stroke: #b0b0b0; stroke-opacity: 0.3; stroke-width: 0.8; stroke-linecap: square"/>
     </g>
     <g id="line2d_16">
      <g>
       <use xlink:href="#mf0e9c0ae3f" x="406.331667" y="303.64" style="stroke: #000000; stroke-width: 0.8"/>
      </g>
     </g>
     <g id="text_8">
      <!-- 14 -->
      <g transform="translate(399.969167 318.238437) scale(0.1 -0.1)">
       <use xlink:href="#DejaVuSans-31"/>
       <use xlink:href="#DejaVuSans-34" transform="translate(63.623047 0)"/>
      </g>
     </g>
    </g>
    <g id="text_9">
     <!-- Time (minutes) -->
     <g transform="translate(206.1725 331.916562) scale(0.1 -0.1)">
      <defs>
       <path id="DejaVuSans-54" d="M -19 4666 
L 3928 4666 
L 3928 4134 
L 2272 4134 
L 2272 0 
L 1638 0 
L 1638 4134 
L -19 4134 
L -19 4666 
z
" transform="scale(0.015625)"/>
       <path id="DejaVuSans-69" d="M 603 3500 
L 1178 3500 
L 1178 0 
L 603 0 
L 603 3500 
z
M 603 4863 
L 1178 4863 
L 1178 4134 
L 603 4134 
L 603 4863 
z
" transform="scale(0.015625)"/>
       <path id="DejaVuSans-6d" d="M 3328 2828 
Q 3544 3216 3844 3400 
Q 4144 3584 4550 3584 
Q 5097 3584 5394 3201 
Q 5691 2819 5691 2113 
L 5691 0 
L 5113 0 
L 5113 2094 
Q 5113 2597 4934 2840 
Q 4756 3084 4391 3084 
Q 3944 3084 3684 2787 
Q 3425 2491 3425 1978 
L 3425 0 
L 2847 0 
L 2847 2094 
Q 2847 2600 2669 2842 
Q 2491 3084 2119 3084 
Q 1678 3084 1418 2786 
Q 1159 2488 1159 1978 
L 1159 0 
L 581 0 
L 581 3500 
L 1159 3500 
L 1159 2956 
Q 1356 3278 1631 3431 
Q 1906 3584 2284 3584 
Q 2666 3584 2933 3390 
Q 3200 3197 3328 2828 
z
" transform="scale(0.015625)"/>
       <path id="DejaVuSans-65" d="M 3597 1894 
L 3597 1613 
L 953 1613 
Q 991 1019 1311 708 
Q 1631 397 2203 397 
Q 2534 397 2845 478 
Q 3156 559 3463 722 
L 3463 178 
Q 3153 47 2828 -22 
Q 2503 -91 2169 -91 
Q 1331 -91 842 396 
Q 353 884 353 1716 
Q 353 2575 817 3079 
Q 1281 3584 2069 3584 
Q 2775 3584 3186 3129 
Q 3597 2675 3597 1894 
z
M 3022 2063 
Q 3016 2534 2758 2815 
Q 2500 3097 2075 3097 
Q 1594 3097 1305 2825 
Q 1016 2553 972 2059 
L 3022 2063 
z
" transform="scale(0.015625)"/>
       <path id="DejaVuSans-20" transform="scale(0.015625)"/>
       <path id="DejaVuSans-28" d="M 1984 4856 
Q 1566 4138 1362 3434 
Q 1159 2731 1159 2009 
Q 1159 1288 1364 580 
Q 1569 -128 1984 -844 
L 1484 -844 
Q 1016 -109 783 600 
Q 550 1309 550 2009 
Q 550 2706 781 3412 
Q 1013 4119 1484 4856 
L 1984 4856 
z
" transform="scale(0.015625)"/>
       <path id="DejaVuSans-6e" d="M 3513 2113 
L 3513 0 
L 2938 0 
L 2938 2094 
Q 2938 2591 2744 2837 
Q 2550 3084 2163 3084 
Q 1697 3084 1428 2787 
Q 1159 2491 1159 1978 
L 1159 0 
L 581 0 
L 581 3500 
L 1159 3500 
L 1159 2956 
Q 1366 3272 1645 3428 
Q 1925 3584 2291 3584 
Q 2894 3584 3203 3211 
Q 3513 2838 3513 2113 
z
" transform="scale(0.015625)"/>
       <path id="DejaVuSans-75" d="M 544 1381 
L 544 3500 
L 1119 3500 
L 1119 1403 
Q 1119 906 1312 657 
Q 1506 409 1894 409 
Q 2359 409 2629 706 
Q 2900 1003 2900 1516 
L 2900 3500 
L 3475 3500 
L 3475 0 
L 2900 0 
L 2900 538 
Q 2691 219 2414 64 
Q 2138 -91 1772 -91 
Q 1169 -91 856 284 
Q 544 659 544 1381 
z
M 1991 3584 
L 1991 3584 
z
" transform="scale(0.015625)"/>
       <path id="DejaVuSans-74" d="M 1172 4494 
L 1172 3500 
L 2356 3500 
L 2356 3053 
L 1172 3053 
L 1172 1153 
Q 1172 725 1289 603 
Q 1406 481 1766 481 
L 2356 481 
L 2356 0 
L 1766 0 
Q 1100 0 847 248 
Q 594 497 594 1153 
L 594 3053 
L 172 3053 
L 172 3500 
L 594 3500 
L 594 4494 
L 1172 4494 
z
" transform="scale(0.015625)"/>
       <path id="DejaVuSans-73" d="M 2834 3397 
L 2834 2853 
Q 2591 2978 2328 3040 
Q 2066 3103 1784 3103 
Q 1356 3103 1142 2972 
Q 928 2841 928 2578 
Q 928 2378 1081 2264 
Q 1234 2150 1697 2047 
L 1894 2003 
Q 2506 1872 2764 1633 
Q 3022 1394 3022 966 
Q 3022 478 2636 193 
Q 2250 -91 1575 -91 
Q 1294 -91 989 -36 
Q 684 19 347 128 
L 347 722 
Q 666 556 975 473 
Q 1284 391 1588 391 
Q 1994 391 2212 530 
Q 2431 669 2431 922 
Q 2431 1156 2273 1281 
Q 2116 1406 1581 1522 
L 1381 1569 
Q 847 1681 609 1914 
Q 372 2147 372 2553 
Q 372 3047 722 3315 
Q 1072 3584 1716 3584 
Q 2034 3584 2315 3537 
Q 2597 3491 2834 3397 
z
" transform="scale(0.015625)"/>
       <path id="DejaVuSans-29" d="M 513 4856 
L 1013 4856 
Q 1481 4119 1714 3412 
Q 1947 2706 1947 2009 
Q 1947 1309 1714 600 
Q 1481 -109 1013 -844 
L 513 -844 
Q 928 -128 1133 580 
Q 1338 1288 1338 2009 
Q 1338 2731 1133 3434 
Q 928 4138 513 4856 
z
" transform="scale(0.015625)"/>
      </defs>
      <use xlink:href="#DejaVuSans-54"/>
      <use xlink:href="#DejaVuSans-69" transform="translate(57.958984 0)"/>
      <use xlink:href="#DejaVuSans-6d" transform="translate(85.742188 0)"/>
      <use xlink:href="#DejaVuSans-65" transform="translate(183.154297 0)"/>
      <use xlink:href="#DejaVuSans-20" transform="translate(244.677734 0)"/>
      <use xlink:href="#DejaVuSans-28" transform="translate(276.464844 0)"/>
      <use xlink:href="#DejaVuSans-6d" transform="translate(315.478516 0)"/>
      <use xlink:href="#DejaVuSans-69" transform="translate(412.890625 0)"/>
      <use xlink:href="#DejaVuSans-6e" transform="translate(440.673828 0)"/>
      <use xlink:href="#DejaVuSans-75" transform="translate(504.052734 0)"/>
      <use xlink:href="#DejaVuSans-74" transform="translate(567.431641 0)"/>
      <use xlink:href="#DejaVuSans-65" transform="translate(606.640625 0)"/>
      <use xlink:href="#DejaVuSans-73" transform="translate(668.164062 0)"/>
      <use xlink:href="#DejaVuSans-29" transform="translate(720.263672 0)"/>
     </g>
    </g>
   </g>
   <g id="matplotlib.axis_2">
    <g id="ytick_1">
     <g id="line2d_17">
      <path d="M 38.27 290.544992 
L 450 290.544992 
" clip-path="url(#p0ebaeb9919)" style="fill: none; stroke: #b0b0b0; stroke-opacity: 0.3; stroke-width: 0.8; stroke-linecap: square"/>
     </g>
     <g id="line2d_18">
      <defs>
       <path id="ma432adff78" d="M 0 0 
L -3.5 0 
" style="stroke: #000000; stroke-width: 0.8"/>
      </defs>
      <g>
       <use xlink:href="#ma432adff78" x="38.27" y="290.544992" style="stroke: #000000; stroke-width: 0.8"/>
      </g>
     </g>
     <g id="text_10">
      <!-- 0 -->
      <g transform="translate(24.9075 294.344211) scale(0.1 -0.1)">
       <use xlink:href="#DejaVuSans-30"/>
      </g>
     </g>
    </g>
    <g id="ytick_2">
     <g id="line2d_19">
      <path d="M 38.27 251.900683 
L 450 251.900683 
" clip-path="url(#p0ebaeb9919)" style="fill: none; stroke: #b0b0b0; stroke-opacity: 0.3; stroke-width: 0.8; stroke-linecap: square"/>
     </g>
     <g id="line2d_20">
      <g>
       <use xlink:href="#ma432adff78" x="38.27" y="251.900683" style="stroke: #000000; stroke-width: 0.8"/>
      </g>
     </g>
     <g id="text_11">
      <!-- 1 -->
      <g transform="translate(24.9075 255.699901) scale(0.1 -0.1)">
       <use xlink:href="#DejaVuSans-31"/>
      </g>
     </g>
    </g>
    <g id="ytick_3">
     <g id="line2d_21">
      <path d="M 38.27 213.256373 
L 450 213.256373 
" clip-path="url(#p0ebaeb9919)" style="fill: none; stroke: #b0b0b0; stroke-opacity: 0.3; stroke-width: 0.8; stroke-linecap: square"/>
     </g>
     <g id="line2d_22">
      <g>
       <use xlink:href="#ma432adff78" x="38.27" y="213.256373" style="stroke: #000000; stroke-width: 0.8"/>
      </g>
     </g>
     <g id="text_12">
      <!-- 2 -->
      <g transform="translate(24.9075 217.055592) scale(0.1 -0.1)">
       <use xlink:href="#DejaVuSans-32"/>
      </g>
     </g>
    </g>
    <g id="ytick_4">
     <g id="line2d_23">
      <path d="M 38.27 174.612064 
L 450 174.612064 
" clip-path="url(#p0ebaeb9919)" style="fill: none; stroke: #b0b0b0; stroke-opacity: 0.3; stroke-width: 0.8; stroke-linecap: square"/>
     </g>
     <g id="line2d_24">
      <g>
       <use xlink:href="#ma432adff78" x="38.27" y="174.612064" style="stroke: #000000; stroke-width: 0.8"/>
      </g>
     </g>
     <g id="text_13">
      <!-- 3 -->
      <g transform="translate(24.9075 178.411282) scale(0.1 -0.1)">
       <defs>
        <path id="DejaVuSans-33" d="M 2597 2516 
Q 3050 2419 3304 2112 
Q 3559 1806 3559 1356 
Q 3559 666 3084 287 
Q 2609 -91 1734 -91 
Q 1441 -91 1130 -33 
Q 819 25 488 141 
L 488 750 
Q 750 597 1062 519 
Q 1375 441 1716 441 
Q 2309 441 2620 675 
Q 2931 909 2931 1356 
Q 2931 1769 2642 2001 
Q 2353 2234 1838 2234 
L 1294 2234 
L 1294 2753 
L 1863 2753 
Q 2328 2753 2575 2939 
Q 2822 3125 2822 3475 
Q 2822 3834 2567 4026 
Q 2313 4219 1838 4219 
Q 1578 4219 1281 4162 
Q 984 4106 628 3988 
L 628 4550 
Q 988 4650 1302 4700 
Q 1616 4750 1894 4750 
Q 2613 4750 3031 4423 
Q 3450 4097 3450 3541 
Q 3450 3153 3228 2886 
Q 3006 2619 2597 2516 
z
" transform="scale(0.015625)"/>
       </defs>
       <use xlink:href="#DejaVuSans-33"/>
      </g>
     </g>
    </g>
    <g id="ytick_5">
     <g id="line2d_25">
      <path d="M 38.27 135.967754 
L 450 135.967754 
" clip-path="url(#p0ebaeb9919)" style="fill: none; stroke: #b0b0b0; stroke-opacity: 0.3; stroke-width: 0.8; stroke-linecap: square"/>
     </g>
     <g id="line2d_26">
      <g>
       <use xlink:href="#ma432adff78" x="38.27" y="135.967754" style="stroke: #000000; stroke-width: 0.8"/>
      </g>
     </g>
     <g id="text_14">
      <!-- 4 -->
      <g transform="translate(24.9075 139.766973) scale(0.1 -0.1)">
       <use xlink:href="#DejaVuSans-34"/>
      </g>
     </g>
    </g>
    <g id="ytick_6">
     <g id="line2d_27">
      <path d="M 38.27 97.323445 
L 450 97.323445 
" clip-path="url(#p0ebaeb9919)" style="fill: none; stroke: #b0b0b0; stroke-opacity: 0.3; stroke-width: 0.8; stroke-linecap: square"/>
     </g>
     <g id="line2d_28">
      <g>
       <use xlink:href="#ma432adff78" x="38.27" y="97.323445" style="stroke: #000000; stroke-width: 0.8"/>
      </g>
     </g>
     <g id="text_15">
      <!-- 5 -->
      <g transform="translate(24.9075 101.122663) scale(0.1 -0.1)">
       <defs>
        <path id="DejaVuSans-35" d="M 691 4666 
L 3169 4666 
L 3169 4134 
L 1269 4134 
L 1269 2991 
Q 1406 3038 1543 3061 
Q 1681 3084 1819 3084 
Q 2600 3084 3056 2656 
Q 3513 2228 3513 1497 
Q 3513 744 3044 326 
Q 2575 -91 1722 -91 
Q 1428 -91 1123 -41 
Q 819 9 494 109 
L 494 744 
Q 775 591 1075 516 
Q 1375 441 1709 441 
Q 2250 441 2565 725 
Q 2881 1009 2881 1497 
Q 2881 1984 2565 2268 
Q 2250 2553 1709 2553 
Q 1456 2553 1204 2497 
Q 953 2441 691 2322 
L 691 4666 
z
" transform="scale(0.015625)"/>
       </defs>
       <use xlink:href="#DejaVuSans-35"/>
      </g>
     </g>
    </g>
    <g id="ytick_7">
     <g id="line2d_29">
      <path d="M 38.27 58.679135 
L 450 58.679135 
" clip-path="url(#p0ebaeb9919)" style="fill: none; stroke: #b0b0b0; stroke-opacity: 0.3; stroke-width: 0.8; stroke-linecap: square"/>
     </g>
     <g id="line2d_30">
      <g>
       <use xlink:href="#ma432adff78" x="38.27" y="58.679135" style="stroke: #000000; stroke-width: 0.8"/>
      </g>
     </g>
     <g id="text_16">
      <!-- 6 -->
      <g transform="translate(24.9075 62.478354) scale(0.1 -0.1)">
       <use xlink:href="#DejaVuSans-36"/>
      </g>
     </g>
    </g>
    <g id="text_17">
     <!-- Gaussian filtered EDA (μS) -->
     <g transform="translate(18.827813 230.613437) rotate(-90) scale(0.1 -0.1)">
      <defs>
       <path id="DejaVuSans-47" d="M 3809 666 
L 3809 1919 
L 2778 1919 
L 2778 2438 
L 4434 2438 
L 4434 434 
Q 4069 175 3628 42 
Q 3188 -91 2688 -91 
Q 1594 -91 976 548 
Q 359 1188 359 2328 
Q 359 3472 976 4111 
Q 1594 4750 2688 4750 
Q 3144 4750 3555 4637 
Q 3966 4525 4313 4306 
L 4313 3634 
Q 3963 3931 3569 4081 
Q 3175 4231 2741 4231 
Q 1884 4231 1454 3753 
Q 1025 3275 1025 2328 
Q 1025 1384 1454 906 
Q 1884 428 2741 428 
Q 3075 428 3337 486 
Q 3600 544 3809 666 
z
" transform="scale(0.015625)"/>
       <path id="DejaVuSans-61" d="M 2194 1759 
Q 1497 1759 1228 1600 
Q 959 1441 959 1056 
Q 959 750 1161 570 
Q 1363 391 1709 391 
Q 2188 391 2477 730 
Q 2766 1069 2766 1631 
L 2766 1759 
L 2194 1759 
z
M 3341 1997 
L 3341 0 
L 2766 0 
L 2766 531 
Q 2569 213 2275 61 
Q 1981 -91 1556 -91 
Q 1019 -91 701 211 
Q 384 513 384 1019 
Q 384 1609 779 1909 
Q 1175 2209 1959 2209 
L 2766 2209 
L 2766 2266 
Q 2766 2663 2505 2880 
Q 2244 3097 1772 3097 
Q 1472 3097 1187 3025 
Q 903 2953 641 2809 
L 641 3341 
Q 956 3463 1253 3523 
Q 1550 3584 1831 3584 
Q 2591 3584 2966 3190 
Q 3341 2797 3341 1997 
z
" transform="scale(0.015625)"/>
       <path id="DejaVuSans-66" d="M 2375 4863 
L 2375 4384 
L 1825 4384 
Q 1516 4384 1395 4259 
Q 1275 4134 1275 3809 
L 1275 3500 
L 2222 3500 
L 2222 3053 
L 1275 3053 
L 1275 0 
L 697 0 
L 697 3053 
L 147 3053 
L 147 3500 
L 697 3500 
L 697 3744 
Q 697 4328 969 4595 
Q 1241 4863 1831 4863 
L 2375 4863 
z
" transform="scale(0.015625)"/>
       <path id="DejaVuSans-6c" d="M 603 4863 
L 1178 4863 
L 1178 0 
L 603 0 
L 603 4863 
z
" transform="scale(0.015625)"/>
       <path id="DejaVuSans-72" d="M 2631 2963 
Q 2534 3019 2420 3045 
Q 2306 3072 2169 3072 
Q 1681 3072 1420 2755 
Q 1159 2438 1159 1844 
L 1159 0 
L 581 0 
L 581 3500 
L 1159 3500 
L 1159 2956 
Q 1341 3275 1631 3429 
Q 1922 3584 2338 3584 
Q 2397 3584 2469 3576 
Q 2541 3569 2628 3553 
L 2631 2963 
z
" transform="scale(0.015625)"/>
       <path id="DejaVuSans-64" d="M 2906 2969 
L 2906 4863 
L 3481 4863 
L 3481 0 
L 2906 0 
L 2906 525 
Q 2725 213 2448 61 
Q 2172 -91 1784 -91 
Q 1150 -91 751 415 
Q 353 922 353 1747 
Q 353 2572 751 3078 
Q 1150 3584 1784 3584 
Q 2172 3584 2448 3432 
Q 2725 3281 2906 2969 
z
M 947 1747 
Q 947 1113 1208 752 
Q 1469 391 1925 391 
Q 2381 391 2643 752 
Q 2906 1113 2906 1747 
Q 2906 2381 2643 2742 
Q 2381 3103 1925 3103 
Q 1469 3103 1208 2742 
Q 947 2381 947 1747 
z
" transform="scale(0.015625)"/>
       <path id="DejaVuSans-45" d="M 628 4666 
L 3578 4666 
L 3578 4134 
L 1259 4134 
L 1259 2753 
L 3481 2753 
L 3481 2222 
L 1259 2222 
L 1259 531 
L 3634 531 
L 3634 0 
L 628 0 
L 628 4666 
z
" transform="scale(0.015625)"/>
       <path id="DejaVuSans-44" d="M 1259 4147 
L 1259 519 
L 2022 519 
Q 2988 519 3436 956 
Q 3884 1394 3884 2338 
Q 3884 3275 3436 3711 
Q 2988 4147 2022 4147 
L 1259 4147 
z
M 628 4666 
L 1925 4666 
Q 3281 4666 3915 4102 
Q 4550 3538 4550 2338 
Q 4550 1131 3912 565 
Q 3275 0 1925 0 
L 628 0 
L 628 4666 
z
" transform="scale(0.015625)"/>
       <path id="DejaVuSans-41" d="M 2188 4044 
L 1331 1722 
L 3047 1722 
L 2188 4044 
z
M 1831 4666 
L 2547 4666 
L 4325 0 
L 3669 0 
L 3244 1197 
L 1141 1197 
L 716 0 
L 50 0 
L 1831 4666 
z
" transform="scale(0.015625)"/>
       <path id="DejaVuSans-3bc" d="M 544 -1331 
L 544 3500 
L 1119 3500 
L 1119 1325 
Q 1119 872 1334 640 
Q 1550 409 1972 409 
Q 2434 409 2667 671 
Q 2900 934 2900 1459 
L 2900 3500 
L 3475 3500 
L 3475 806 
Q 3475 619 3529 530 
Q 3584 441 3700 441 
Q 3728 441 3778 458 
Q 3828 475 3916 513 
L 3916 50 
Q 3788 -22 3673 -56 
Q 3559 -91 3450 -91 
Q 3234 -91 3106 31 
Q 2978 153 2931 403 
Q 2775 156 2548 32 
Q 2322 -91 2016 -91 
Q 1697 -91 1473 31 
Q 1250 153 1119 397 
L 1119 -1331 
L 544 -1331 
z
" transform="scale(0.015625)"/>
       <path id="DejaVuSans-53" d="M 3425 4513 
L 3425 3897 
Q 3066 4069 2747 4153 
Q 2428 4238 2131 4238 
Q 1616 4238 1336 4038 
Q 1056 3838 1056 3469 
Q 1056 3159 1242 3001 
Q 1428 2844 1947 2747 
L 2328 2669 
Q 3034 2534 3370 2195 
Q 3706 1856 3706 1288 
Q 3706 609 3251 259 
Q 2797 -91 1919 -91 
Q 1588 -91 1214 -16 
Q 841 59 441 206 
L 441 856 
Q 825 641 1194 531 
Q 1563 422 1919 422 
Q 2459 422 2753 634 
Q 3047 847 3047 1241 
Q 3047 1584 2836 1778 
Q 2625 1972 2144 2069 
L 1759 2144 
Q 1053 2284 737 2584 
Q 422 2884 422 3419 
Q 422 4038 858 4394 
Q 1294 4750 2059 4750 
Q 2388 4750 2728 4690 
Q 3069 4631 3425 4513 
z
" transform="scale(0.015625)"/>
      </defs>
      <use xlink:href="#DejaVuSans-47"/>
      <use xlink:href="#DejaVuSans-61" transform="translate(77.490234 0)"/>
      <use xlink:href="#DejaVuSans-75" transform="translate(138.769531 0)"/>
      <use xlink:href="#DejaVuSans-73" transform="translate(202.148438 0)"/>
      <use xlink:href="#DejaVuSans-73" transform="translate(254.248047 0)"/>
      <use xlink:href="#DejaVuSans-69" transform="translate(306.347656 0)"/>
      <use xlink:href="#DejaVuSans-61" transform="translate(334.130859 0)"/>
      <use xlink:href="#DejaVuSans-6e" transform="translate(395.410156 0)"/>
      <use xlink:href="#DejaVuSans-20" transform="translate(458.789062 0)"/>
      <use xlink:href="#DejaVuSans-66" transform="translate(490.576172 0)"/>
      <use xlink:href="#DejaVuSans-69" transform="translate(525.78125 0)"/>
      <use xlink:href="#DejaVuSans-6c" transform="translate(553.564453 0)"/>
      <use xlink:href="#DejaVuSans-74" transform="translate(581.347656 0)"/>
      <use xlink:href="#DejaVuSans-65" transform="translate(620.556641 0)"/>
      <use xlink:href="#DejaVuSans-72" transform="translate(682.080078 0)"/>
      <use xlink:href="#DejaVuSans-65" transform="translate(720.943359 0)"/>
      <use xlink:href="#DejaVuSans-64" transform="translate(782.466797 0)"/>
      <use xlink:href="#DejaVuSans-20" transform="translate(845.943359 0)"/>
      <use xlink:href="#DejaVuSans-45" transform="translate(877.730469 0)"/>
      <use xlink:href="#DejaVuSans-44" transform="translate(940.914062 0)"/>
      <use xlink:href="#DejaVuSans-41" transform="translate(1016.166016 0)"/>
      <use xlink:href="#DejaVuSans-20" transform="translate(1084.574219 0)"/>
      <use xlink:href="#DejaVuSans-28" transform="translate(1116.361328 0)"/>
      <use xlink:href="#DejaVuSans-3bc" transform="translate(1155.375 0)"/>
      <use xlink:href="#DejaVuSans-53" transform="translate(1218.998047 0)"/>
      <use xlink:href="#DejaVuSans-29" transform="translate(1282.474609 0)"/>
     </g>
    </g>
   </g>
   <g id="line2d_31">
    <path d="M 56.985 90.949153 
L 57.71321 93.842151 
L 60.209931 104.825559 
L 61.042171 107.00141 
L 64.683221 114.813429 
L 65.619491 116.306414 
L 66.451732 117.276997 
L 67.179942 117.832942 
L 67.908152 118.131283 
L 69.676662 118.702648 
L 70.508902 119.307743 
L 72.797563 121.130022 
L 73.629803 121.514852 
L 74.149953 121.537899 
L 74.566073 121.329447 
L 74.982193 120.827166 
L 75.398313 119.956967 
L 75.918463 118.30396 
L 76.646673 115.099273 
L 78.311153 107.447145 
L 78.935334 105.694591 
L 79.351454 105.066499 
L 79.663544 104.915162 
L 79.975634 105.057235 
L 80.287724 105.501948 
L 80.703844 106.560192 
L 81.223994 108.561688 
L 82.056234 112.826511 
L 83.096534 117.948414 
L 83.512654 119.162265 
L 83.824744 119.565373 
L 84.032804 119.56772 
L 84.240864 119.354592 
L 84.552954 118.649601 
L 84.969074 117.088337 
L 85.697285 113.254758 
L 87.465795 103.546458 
L 88.089975 101.215439 
L 88.506095 100.333932 
L 88.818185 100.135849 
L 89.026245 100.25233 
L 89.338335 100.817572 
L 89.754455 102.277582 
L 90.378635 105.628314 
L 91.314906 110.841448 
L 91.731026 112.057576 
L 91.939086 112.233944 
L 92.147146 112.092746 
L 92.355206 111.63302 
L 92.667296 110.389482 
L 93.187446 107.211064 
L 94.331776 99.917709 
L 94.747896 98.521159 
L 95.059986 98.054671 
L 95.268046 97.989709 
L 95.580136 98.190077 
L 95.996256 98.844598 
L 96.932526 100.93754 
L 98.180887 103.585574 
L 98.909097 104.671267 
L 99.637307 105.330412 
L 100.157457 105.873601 
L 100.469547 106.488963 
L 100.781637 107.526817 
L 101.197757 109.874311 
L 101.613877 113.636487 
L 102.134027 120.505012 
L 102.966267 135.126011 
L 104.006568 152.467833 
L 104.526718 157.837112 
L 104.838808 159.577965 
L 105.046868 160.074746 
L 105.150898 160.118382 
L 105.358958 159.789034 
L 105.567018 158.897358 
L 105.879108 156.498036 
L 106.295228 151.353002 
L 106.919408 139.930828 
L 109.208068 91.880416 
L 109.728218 86.759355 
L 110.144339 84.702175 
L 110.456429 84.139444 
L 110.664489 84.13617 
L 110.872549 84.371831 
L 111.184639 85.078629 
L 111.704789 86.957615 
L 112.328969 90.226033 
L 112.953149 94.843146 
L 113.785389 103.134263 
L 114.929719 114.516107 
L 115.449869 117.466321 
L 115.761959 118.201747 
L 115.970019 118.244549 
L 116.178079 117.944405 
L 116.49017 116.915609 
L 117.01032 114.043002 
L 118.25868 106.543737 
L 118.6748 105.419612 
L 118.88286 105.234254 
L 119.09092 105.283756 
L 119.40301 105.72538 
L 120.02719 107.306746 
L 120.54734 108.423322 
L 120.85943 108.682333 
L 121.06749 108.63687 
L 121.37958 108.246913 
L 121.7957 107.249389 
L 122.940031 104.253513 
L 123.252121 103.929999 
L 123.564211 103.870494 
L 124.084361 104.105031 
L 124.500481 104.204897 
L 124.812571 103.984063 
L 125.124661 103.372002 
L 125.540781 101.852291 
L 126.060931 98.949352 
L 127.205261 92.04959 
L 127.621381 90.730005 
L 127.933471 90.373321 
L 128.141531 90.409952 
L 128.453621 90.781412 
L 129.806012 92.999676 
L 130.222132 93.114253 
L 130.846312 93.234716 
L 131.158402 93.583067 
L 131.470492 94.28753 
L 131.886612 95.872075 
L 132.510792 99.456071 
L 133.967212 108.416513 
L 134.591392 110.669449 
L 135.111543 111.786554 
L 135.735723 112.593226 
L 136.567963 113.613318 
L 136.984083 114.551593 
L 137.400203 116.154981 
L 137.816323 118.76226 
L 138.336473 123.891144 
L 138.960653 133.112266 
L 139.896923 151.363858 
L 140.729163 166.137929 
L 141.145283 170.663334 
L 141.457374 172.271804 
L 141.665434 172.437338 
L 141.873494 171.889992 
L 142.185584 169.832237 
L 142.601704 165.184949 
L 143.433944 152.448603 
L 144.370214 138.883001 
L 144.994394 132.426857 
L 145.618574 128.201983 
L 146.138724 126.186526 
L 146.450814 125.593459 
L 146.658874 125.463135 
L 146.866934 125.5587 
L 147.074994 125.899517 
L 147.387084 126.920116 
L 147.803205 129.355762 
L 148.323355 134.314706 
L 148.947535 142.973644 
L 151.340225 179.767409 
L 151.860375 183.999437 
L 152.276495 186.016692 
L 152.588585 186.67926 
L 152.796645 186.694487 
L 153.004705 186.357273 
L 153.316795 185.179261 
L 153.732916 182.362765 
L 154.253066 176.961123 
L 154.981276 166.448371 
L 156.125606 145.66782 
L 157.373966 123.967526 
L 157.998146 116.274543 
L 158.518296 112.074542 
L 158.934416 110.112935 
L 159.246506 109.345326 
L 159.558596 109.061168 
L 159.870686 109.136311 
L 160.286807 109.572401 
L 161.223077 110.662751 
L 161.639197 110.789327 
L 162.055317 110.630792 
L 163.095617 109.931124 
L 163.303677 110.019951 
L 163.511737 110.294012 
L 163.823827 111.161503 
L 164.135917 112.71268 
L 164.552037 116.040817 
L 165.072187 122.337482 
L 165.904427 136.125128 
L 166.840698 150.985858 
L 167.256818 154.875892 
L 167.568908 156.15002 
L 167.672938 156.24789 
L 167.776968 156.186126 
L 167.985028 155.607888 
L 168.297118 153.745731 
L 168.817268 148.877903 
L 169.857568 138.858942 
L 170.481748 135.139423 
L 172.250258 126.539388 
L 173.810709 117.050687 
L 174.330859 115.368697 
L 174.746979 114.74043 
L 175.059069 114.614974 
L 175.371159 114.705304 
L 175.891309 115.123733 
L 176.931609 115.974774 
L 177.451759 116.132723 
L 177.971909 116.079748 
L 178.596089 115.770231 
L 179.42833 115.0541 
L 180.46863 114.157712 
L 180.98878 113.96651 
L 181.50893 114.027268 
L 182.13311 114.37929 
L 183.38147 115.471955 
L 184.00565 115.876376 
L 184.42177 115.874348 
L 184.73386 115.624126 
L 185.045951 115.094594 
L 185.462071 113.895314 
L 185.982221 111.646638 
L 187.646701 103.719606 
L 188.062821 102.887332 
L 188.374911 102.702169 
L 188.687001 102.85897 
L 188.999091 103.304322 
L 189.519241 104.523074 
L 190.351481 107.16712 
L 193.160292 116.487593 
L 193.784472 117.919031 
L 194.200592 118.483273 
L 194.512682 118.658613 
L 194.824772 118.617337 
L 195.240892 118.25882 
L 195.865072 117.273278 
L 197.009402 115.394854 
L 197.529553 114.943649 
L 198.049703 114.772705 
L 199.402093 114.560137 
L 199.922243 114.151106 
L 200.650453 113.213572 
L 202.106873 111.271419 
L 203.147173 109.938975 
L 203.875384 108.529073 
L 205.851954 104.335997 
L 209.076884 99.160758 
L 210.741365 97.140834 
L 211.261515 96.003111 
L 211.781665 94.35558 
L 212.509875 91.235083 
L 213.654205 86.300831 
L 214.070325 85.267629 
L 214.382415 84.903114 
L 214.694505 84.889558 
L 215.006595 85.188 
L 215.422715 85.959082 
L 216.358986 88.384405 
L 217.191226 90.263487 
L 217.711376 90.963239 
L 218.127496 91.185311 
L 218.439586 91.144169 
L 218.855706 90.819776 
L 219.375856 90.022478 
L 220.000036 88.571129 
L 220.728246 86.214673 
L 221.456456 83.030785 
L 223.328997 74.10815 
L 223.745117 73.18501 
L 224.057207 72.861243 
L 224.369297 72.800407 
L 224.785417 73.001821 
L 226.345867 74.093277 
L 226.970047 74.095928 
L 227.906317 74.032824 
L 228.218407 74.239854 
L 228.530497 74.695856 
L 228.946618 75.815437 
L 229.362738 77.613684 
L 229.986918 81.567939 
L 230.819158 88.537228 
L 234.252148 118.881386 
L 234.876329 121.992183 
L 235.292449 123.085652 
L 235.604539 123.31602 
L 235.812599 123.169682 
L 236.124689 122.481925 
L 236.540809 120.67157 
L 237.060959 117.003432 
L 237.685139 110.828393 
L 240.077829 84.933785 
L 240.597979 82.346203 
L 240.910069 81.6719 
L 241.11813 81.584728 
L 241.32619 81.767879 
L 241.63828 82.485069 
L 242.15843 84.50786 
L 243.19873 88.845092 
L 243.61485 89.805475 
L 243.92694 90.122626 
L 244.23903 90.138521 
L 244.65515 89.846558 
L 245.38336 89.263861 
L 245.69545 89.270957 
L 246.00754 89.530081 
L 246.42366 90.278483 
L 247.04784 92.032003 
L 247.984111 94.682229 
L 248.400231 95.323072 
L 248.712321 95.454216 
L 249.024411 95.247817 
L 249.336501 94.69019 
L 249.752621 93.413635 
L 250.376801 90.537496 
L 251.937251 82.684997 
L 252.353371 81.697564 
L 252.665461 81.421165 
L 252.977551 81.49653 
L 253.393671 81.990106 
L 254.746062 83.959655 
L 255.266212 84.248209 
L 256.410542 84.701389 
L 256.930692 85.212618 
L 257.658902 86.305917 
L 259.219352 88.765305 
L 260.259653 89.879466 
L 261.091893 90.515415 
L 261.612043 90.659123 
L 262.028163 90.503438 
L 262.444283 90.009669 
L 262.860403 89.113031 
L 263.380553 87.419539 
L 264.524883 82.521667 
L 265.149063 80.335674 
L 265.669213 79.217355 
L 266.189364 78.61378 
L 267.021604 77.764767 
L 267.541754 76.850971 
L 268.686084 74.70547 
L 268.998174 74.543076 
L 269.310264 74.684941 
L 269.622354 75.127907 
L 270.142504 76.401161 
L 272.327135 82.625469 
L 273.367435 84.53154 
L 274.823855 86.653269 
L 276.280275 88.458392 
L 276.904455 88.936606 
L 277.424605 89.056047 
L 277.840725 88.910345 
L 278.256845 88.503463 
L 278.672966 87.784965 
L 279.193116 86.358254 
L 279.713266 84.241655 
L 280.337446 80.755897 
L 282.105956 69.946118 
L 282.522076 68.846876 
L 282.834166 68.59967 
L 283.042226 68.684705 
L 283.354316 69.115228 
L 283.978496 70.594394 
L 284.810737 72.449027 
L 285.330887 73.048457 
L 285.747007 73.223842 
L 286.371187 73.203191 
L 288.555817 72.800823 
L 289.179997 72.253842 
L 290.116267 71.403182 
L 290.532387 71.280495 
L 291.052538 71.383198 
L 291.676718 71.486643 
L 291.988808 71.267801 
L 292.300898 70.691575 
L 292.612988 69.636209 
L 293.029108 67.333575 
L 293.549258 62.94412 
L 294.381498 53.383342 
L 295.317768 43.050896 
L 295.837918 39.513087 
L 296.150008 38.422221 
L 296.358068 38.11851 
L 296.566128 38.126351 
L 296.774188 38.41135 
L 297.086278 39.269534 
L 297.606429 41.503342 
L 298.542699 46.784962 
L 299.374939 52.652887 
L 300.103149 59.368125 
L 302.599869 84.604955 
L 303.120019 87.275935 
L 303.64017 88.876839 
L 304.05629 89.560936 
L 304.47241 89.852462 
L 304.88853 89.841007 
L 305.30465 89.574573 
L 305.8248 88.914086 
L 306.44898 87.692615 
L 308.52958 83.155752 
L 308.9457 82.889762 
L 309.25779 82.913136 
L 309.673911 83.2027 
L 310.402121 84.115967 
L 311.130331 84.952947 
L 311.650481 85.222949 
L 312.066601 85.182932 
L 312.482721 84.888858 
L 312.898841 84.283042 
L 313.314961 83.25309 
L 313.731081 81.640408 
L 314.251231 78.551469 
L 314.771381 74.066404 
L 315.499591 65.558442 
L 317.060042 46.075019 
L 317.476162 43.165532 
L 317.788252 42.073074 
L 317.996312 41.867185 
L 318.204372 42.048533 
L 318.516462 42.939038 
L 319.036612 45.503662 
L 319.972882 50.203523 
L 320.389002 51.312706 
L 320.701092 51.675429 
L 321.013182 51.741869 
L 321.845422 51.657682 
L 322.157513 51.949035 
L 322.469603 52.556816 
L 322.885723 53.877734 
L 323.509903 56.780752 
L 324.342143 61.903189 
L 325.174383 68.558521 
L 326.006623 77.283505 
L 327.254983 93.329419 
L 329.023494 115.454353 
L 330.063794 126.095143 
L 330.792004 131.604358 
L 331.416184 134.644304 
L 331.936334 136.039783 
L 332.352454 136.568867 
L 332.768574 136.739935 
L 333.288724 136.671771 
L 334.849175 136.283028 
L 335.681415 136.36964 
L 336.721715 136.718252 
L 337.762015 137.300683 
L 339.842615 138.567232 
L 340.674855 138.741719 
L 342.963516 138.912941 
L 343.587696 139.339611 
L 344.315906 140.12745 
L 345.252176 141.495219 
L 346.604566 143.464768 
L 347.124717 143.817516 
L 347.540837 143.800008 
L 347.956957 143.479837 
L 348.373077 142.855878 
L 348.997257 141.42749 
L 350.661737 137.175756 
L 351.077857 136.766974 
L 351.389947 136.748052 
L 351.702037 136.963408 
L 352.118157 137.546117 
L 353.158457 139.613277 
L 353.782638 140.612438 
L 354.198758 140.958044 
L 354.510848 140.974099 
L 354.822938 140.722173 
L 355.135028 140.142124 
L 355.551148 138.759548 
L 356.071298 135.936785 
L 356.695478 131.074578 
L 358.151898 118.945236 
L 358.672048 116.646985 
L 358.984138 116.015066 
L 359.296228 115.869452 
L 359.608319 116.089559 
L 360.232499 117.030806 
L 360.752649 117.656981 
L 361.064739 117.750679 
L 361.376829 117.572135 
L 361.688919 117.11701 
L 362.209069 115.83958 
L 363.769519 111.47846 
L 364.081609 111.178429 
L 364.393699 111.20893 
L 364.705789 111.580756 
L 365.121909 112.573204 
L 365.746089 114.881671 
L 367.72266 122.916951 
L 368.45087 124.738248 
L 369.17908 125.950558 
L 369.69923 126.469207 
L 370.11535 126.634024 
L 370.53147 126.535189 
L 370.94759 126.163779 
L 371.57177 125.216601 
L 372.508041 123.80739 
L 372.924161 123.566754 
L 373.236251 123.618648 
L 373.652371 123.992074 
L 374.172521 124.847582 
L 376.877301 130.017678 
L 377.917601 131.21018 
L 378.957902 132.099532 
L 379.686112 132.463436 
L 380.206262 132.467805 
L 380.622382 132.252093 
L 381.142532 131.669141 
L 381.766712 130.538888 
L 382.807012 128.06026 
L 384.159402 124.41829 
L 384.783583 122.04778 
L 385.407763 118.790534 
L 387.384333 107.477948 
L 387.800453 106.601082 
L 388.112543 106.457667 
L 388.424633 106.701101 
L 388.840753 107.486778 
L 389.568963 109.529338 
L 390.921354 113.303663 
L 391.961654 115.519306 
L 392.897924 117.001457 
L 395.498674 120.627017 
L 396.955094 122.931399 
L 397.891365 123.988247 
L 399.243755 125.126195 
L 401.012265 126.338324 
L 403.508986 127.96243 
L 405.173466 129.140177 
L 405.797646 129.287913 
L 406.317796 129.149565 
L 406.837946 128.716955 
L 407.462126 127.822914 
L 409.022576 125.356197 
L 409.438696 125.137639 
L 409.854817 125.197125 
L 410.374967 125.577033 
L 411.623327 126.646569 
L 412.143477 126.731202 
L 412.663627 126.574042 
L 413.703927 125.937214 
L 414.744227 125.113441 
L 415.472437 124.216172 
L 416.824828 122.413385 
L 417.240948 122.212142 
L 417.657068 122.285929 
L 418.073188 122.613903 
L 418.801398 123.5762 
L 420.049758 125.235876 
L 421.090058 126.163177 
L 422.234389 127.251744 
L 423.898869 128.937229 
L 424.419019 129.149869 
L 424.939169 129.113755 
L 425.563349 128.78156 
L 427.019769 127.84132 
L 427.539919 127.853121 
L 428.060069 128.129688 
L 428.68425 128.737153 
L 431.285 131.751167 
L 431.285 131.751167 
" clip-path="url(#p0ebaeb9919)" style="fill: none; stroke-dasharray: 1.85,0.8; stroke-dashoffset: 0; stroke: #1f77b4; stroke-width: 0.5"/>
   </g>
   <g id="line2d_32">
    <path d="M 56.985 91.659161 
L 57.40112 92.643588 
L 58.0253 94.880989 
L 58.85754 98.860053 
L 61.354261 111.486616 
L 62.082471 113.78758 
L 62.810681 115.34912 
L 63.434861 116.21929 
L 64.059041 116.762621 
L 64.787251 117.116671 
L 66.451732 117.553913 
L 67.596062 117.983334 
L 68.428302 118.520259 
L 69.260542 119.348124 
L 70.092782 120.529623 
L 71.965322 123.315973 
L 72.589503 123.810844 
L 73.005623 123.905058 
L 73.421743 123.764643 
L 73.837863 123.351656 
L 74.358013 122.472706 
L 75.190253 120.496397 
L 77.166823 115.523529 
L 77.686973 114.741969 
L 78.103093 114.424073 
L 78.519213 114.373814 
L 78.935334 114.550007 
L 79.455484 115.025952 
L 80.183694 116.025439 
L 82.368324 119.28141 
L 83.096534 119.849432 
L 83.720714 120.0637 
L 84.344894 120.02832 
L 84.969074 119.745178 
L 85.593255 119.216163 
L 86.321465 118.291211 
L 87.361765 116.534464 
L 89.026245 113.73229 
L 89.754455 112.938209 
L 90.274605 112.667458 
L 90.794755 112.684696 
L 91.418936 112.964157 
L 92.771326 113.652179 
L 93.291476 113.624065 
L 93.707596 113.366117 
L 94.123716 112.836702 
L 94.643866 111.70868 
L 95.372076 109.396349 
L 96.724466 104.975684 
L 97.244616 103.990955 
L 97.556707 103.760998 
L 97.764767 103.791806 
L 98.076857 104.154679 
L 98.388947 104.946139 
L 98.805067 106.758439 
L 99.325217 110.205999 
L 100.053427 116.771728 
L 101.197757 129.57146 
L 102.966267 149.404287 
L 103.798508 156.311517 
L 104.422688 159.765291 
L 104.838808 161.07043 
L 105.150898 161.459245 
L 105.358958 161.41559 
L 105.567018 161.116017 
L 105.879108 160.161269 
L 106.295228 157.883571 
L 106.815378 153.290382 
L 107.439558 145.109797 
L 108.375828 129.144312 
L 110.040309 100.54015 
L 110.664489 93.280182 
L 111.080609 90.390278 
L 111.392699 89.442714 
L 111.600759 89.35526 
L 111.808819 89.658156 
L 112.120909 90.759932 
L 112.537029 93.234766 
L 113.161209 98.474765 
L 115.033749 115.46297 
L 115.449869 117.521649 
L 115.865989 118.532945 
L 116.178079 118.70366 
L 116.38614 118.578316 
L 116.69823 118.085875 
L 117.11435 116.975067 
L 117.84256 114.269902 
L 118.98689 110.032727 
L 119.50704 108.945005 
L 119.81913 108.703859 
L 120.13122 108.72882 
L 120.54734 109.086433 
L 121.17152 110.068217 
L 122.31585 111.999401 
L 122.731971 112.340507 
L 123.044061 112.34896 
L 123.356151 112.087769 
L 123.668241 111.505087 
L 124.084361 110.216223 
L 124.708541 107.430537 
L 125.852871 100.954519 
L 126.997201 94.928833 
L 127.621381 92.768403 
L 128.037501 92.032435 
L 128.349591 91.856791 
L 128.661681 91.966656 
L 128.973772 92.328675 
L 129.389892 93.145954 
L 130.014072 94.928248 
L 131.158402 99.121258 
L 132.406762 103.469299 
L 133.655122 107.616895 
L 134.383332 110.943544 
L 135.007513 114.834056 
L 135.631693 120.039448 
L 136.359903 128.203593 
L 137.400203 143.033591 
L 139.064683 166.670747 
L 139.792893 173.873899 
L 140.313043 176.868358 
L 140.625133 177.655295 
L 140.833193 177.786886 
L 141.041253 177.628065 
L 141.353344 176.890339 
L 141.769464 175.082381 
L 142.289614 171.729201 
L 143.121854 164.595711 
L 145.514544 142.775989 
L 146.138724 139.095938 
L 146.658874 137.212357 
L 146.970964 136.693042 
L 147.179024 136.62949 
L 147.387084 136.807824 
L 147.699175 137.558412 
L 148.011265 138.92923 
L 148.427385 141.800591 
L 148.947535 147.1489 
L 149.779775 158.609033 
L 151.444255 182.373784 
L 152.068435 188.06474 
L 152.484555 189.960591 
L 152.692615 190.211404 
L 152.900675 189.950621 
L 153.212765 188.66165 
L 153.628885 185.459118 
L 154.149036 179.482499 
L 154.981276 166.705958 
L 157.373966 127.397401 
L 158.102176 119.527119 
L 158.726356 114.708503 
L 159.246506 112.008884 
L 159.662626 110.686979 
L 159.974717 110.173283 
L 160.286807 110.061231 
L 160.494867 110.20618 
L 160.806957 110.747853 
L 161.223077 112.063243 
L 161.743227 114.578586 
L 162.471437 119.418181 
L 163.511737 128.135262 
L 166.112487 150.752187 
L 166.944728 155.792985 
L 167.568908 158.254155 
L 167.985028 159.134617 
L 168.297118 159.34574 
L 168.505178 159.25607 
L 168.817268 158.753936 
L 169.129358 157.784242 
L 169.545478 155.716488 
L 170.169658 151.11526 
L 171.105928 141.992491 
L 172.978469 123.042736 
L 173.602649 118.677824 
L 174.122799 116.356697 
L 174.538919 115.258316 
L 174.955039 114.717748 
L 175.267129 114.613734 
L 175.579219 114.717698 
L 175.995339 115.10147 
L 176.723549 116.14554 
L 177.555789 117.281118 
L 178.075939 117.618839 
L 178.492059 117.651042 
L 179.01221 117.459506 
L 179.74042 116.898794 
L 181.61296 115.29704 
L 182.13311 115.166044 
L 182.75729 115.256277 
L 185.045951 115.914135 
L 185.566101 115.697891 
L 186.086251 115.189084 
L 186.710431 114.174021 
L 187.958791 111.534774 
L 188.895061 109.817956 
L 189.415211 109.245185 
L 189.831331 109.083949 
L 190.143421 109.175549 
L 190.559541 109.609078 
L 191.079691 110.572839 
L 191.807902 112.471253 
L 193.992532 118.570057 
L 194.512682 119.35238 
L 194.928802 119.65574 
L 195.344922 119.708679 
L 195.761042 119.548995 
L 196.281192 119.107977 
L 197.009402 118.17221 
L 199.506123 114.642499 
L 202.314933 111.417651 
L 203.251203 109.835395 
L 204.707624 106.833488 
L 206.580164 103.075998 
L 207.620464 101.521674 
L 210.429275 97.70466 
L 211.261515 95.96414 
L 213.030025 91.4229 
L 213.966295 89.437116 
L 214.590475 88.602282 
L 215.006595 88.34965 
L 215.422715 88.383841 
L 215.838835 88.667698 
L 216.463016 89.399884 
L 217.919436 91.244416 
L 218.335556 91.473736 
L 218.751676 91.435211 
L 219.063766 91.18607 
L 219.479886 90.503297 
L 220.000036 89.106338 
L 220.728246 86.404072 
L 223.537057 75.10943 
L 224.057207 74.080068 
L 224.577357 73.537175 
L 224.993477 73.421594 
L 225.409597 73.563309 
L 225.825717 73.938302 
L 226.345867 74.698498 
L 227.074077 76.222753 
L 228.010347 78.789215 
L 228.946618 82.028438 
L 229.882888 86.18576 
L 230.819158 91.521157 
L 231.755428 98.294605 
L 234.668268 121.349966 
L 235.188419 123.182478 
L 235.500509 123.605123 
L 235.708569 123.56498 
L 235.916629 123.244978 
L 236.228719 122.221084 
L 236.644839 119.962776 
L 237.269019 115.088781 
L 238.309319 104.754359 
L 239.557679 92.754149 
L 240.181859 88.574703 
L 240.702009 86.537721 
L 241.11813 85.756529 
L 241.43022 85.594446 
L 241.74231 85.744854 
L 242.15843 86.352512 
L 242.67858 87.614047 
L 243.61485 90.650538 
L 244.75918 94.180958 
L 245.48739 95.771073 
L 246.11157 96.701116 
L 246.63172 97.169143 
L 247.15187 97.356656 
L 247.567991 97.303805 
L 248.088141 96.983053 
L 248.608291 96.378552 
L 249.336501 95.108196 
L 250.376801 92.719861 
L 252.769491 87.020154 
L 253.601732 85.693228 
L 254.329942 84.943406 
L 254.954122 84.623726 
L 255.474272 84.595695 
L 255.994422 84.792928 
L 256.514572 85.223451 
L 257.138752 86.052185 
L 258.075022 87.735121 
L 259.635472 90.546035 
L 260.259653 91.263103 
L 260.779803 91.527991 
L 261.195923 91.468019 
L 261.612043 91.169666 
L 262.132193 90.504206 
L 262.860403 89.124638 
L 263.796673 86.803784 
L 267.021604 78.280662 
L 267.749814 77.074073 
L 268.269964 76.536237 
L 268.686084 76.336352 
L 269.102204 76.367234 
L 269.518324 76.649251 
L 270.038474 77.328731 
L 270.662654 78.536268 
L 271.598924 80.911422 
L 274.511765 88.748928 
L 275.239975 90.017334 
L 275.864155 90.714943 
L 276.384305 90.973898 
L 276.800425 90.944045 
L 277.216545 90.683479 
L 277.632665 90.173712 
L 278.152815 89.191296 
L 278.881026 87.311674 
L 280.129386 83.327683 
L 281.585806 78.795692 
L 282.418046 76.876424 
L 283.250286 75.512112 
L 284.082526 74.592757 
L 284.914767 74.00836 
L 285.955067 73.581321 
L 287.411487 73.243806 
L 290.324327 72.64107 
L 291.052538 72.277194 
L 291.676718 71.693654 
L 292.196868 70.920454 
L 292.821048 69.540229 
L 293.445228 67.548581 
L 294.069408 64.820662 
L 294.901648 59.98489 
L 296.566128 49.924436 
L 297.190309 47.552401 
L 297.606429 46.798432 
L 297.814489 46.725457 
L 298.022549 46.879953 
L 298.334639 47.578887 
L 298.750759 49.427598 
L 299.270909 52.990154 
L 299.999119 59.649332 
L 302.495839 84.036951 
L 303.120019 87.372133 
L 303.64017 89.003648 
L 304.05629 89.69246 
L 304.47241 89.937276 
L 304.7845 89.887218 
L 305.20062 89.585852 
L 305.92883 88.682528 
L 306.8651 87.535571 
L 307.48928 87.118978 
L 308.21749 86.921471 
L 309.36182 86.917782 
L 310.402121 86.842388 
L 311.026301 86.589373 
L 311.650481 86.097232 
L 312.274661 85.338579 
L 313.002871 84.084004 
L 313.731081 82.394527 
L 314.563321 79.88133 
L 315.499591 76.254399 
L 316.851982 69.89963 
L 319.244672 58.50118 
L 320.180942 55.106245 
L 320.805122 53.547977 
L 321.325272 52.817193 
L 321.637362 52.668304 
L 321.949452 52.761246 
L 322.261543 53.116187 
L 322.677663 54.031847 
L 323.093783 55.49693 
L 323.613933 58.16671 
L 324.342143 63.377087 
L 325.278413 72.09669 
L 326.526773 86.072813 
L 329.647674 122.083335 
L 330.583944 130.338085 
L 331.312154 135.145929 
L 331.936334 137.886733 
L 332.456484 139.205401 
L 332.872604 139.736629 
L 333.288724 139.889327 
L 333.704844 139.743788 
L 334.224994 139.264796 
L 336.201565 137.087609 
L 336.721715 136.97524 
L 337.345895 137.096182 
L 338.074105 137.481149 
L 340.466795 138.958613 
L 341.611126 139.193617 
L 342.963516 139.492664 
L 343.691726 139.863242 
L 344.419936 140.499599 
L 345.356206 141.668733 
L 347.124717 143.930314 
L 347.852927 144.481914 
L 348.373077 144.614829 
L 348.893227 144.500096 
L 349.517407 144.104612 
L 350.453677 143.190829 
L 352.014127 141.640124 
L 352.638307 141.298508 
L 353.366518 141.167014 
L 354.718908 140.996108 
L 355.239058 140.713926 
L 355.759208 140.187896 
L 356.279358 139.337413 
L 356.799508 138.083227 
L 357.527718 135.653107 
L 358.568018 131.246161 
L 361.168769 119.778273 
L 362.001009 117.182788 
L 362.729219 115.577908 
L 363.249369 114.851562 
L 363.665489 114.541361 
L 364.081609 114.485572 
L 364.497729 114.696782 
L 364.913849 115.187575 
L 365.433999 116.190643 
L 366.16221 118.137841 
L 368.65893 125.420362 
L 369.17908 126.23677 
L 369.5952 126.564879 
L 370.01132 126.648812 
L 370.53147 126.490933 
L 371.25968 125.964474 
L 372.612071 124.936695 
L 373.132221 124.833978 
L 373.548341 124.972562 
L 374.068491 125.414645 
L 374.692671 126.254555 
L 375.732971 128.116324 
L 377.501481 131.30739 
L 378.229691 132.177603 
L 378.853872 132.630038 
L 379.374022 132.787105 
L 379.894172 132.733677 
L 380.414322 132.45988 
L 381.038502 131.826534 
L 381.662682 130.844578 
L 382.390892 129.273001 
L 383.431192 126.451432 
L 386.864183 116.617399 
L 387.800453 114.80428 
L 388.528663 113.83728 
L 389.152843 113.366508 
L 389.672993 113.255208 
L 390.089113 113.365096 
L 390.609263 113.739936 
L 391.233444 114.475419 
L 392.169714 115.98938 
L 395.082554 121.064113 
L 396.330914 122.57533 
L 397.683305 123.862065 
L 399.763905 125.493825 
L 403.717046 128.237536 
L 405.069436 128.983633 
L 406.109736 129.317941 
L 406.941976 129.371298 
L 407.878246 129.200418 
L 409.022576 128.743551 
L 410.791087 127.749067 
L 416.304678 124.577882 
L 417.344978 124.251373 
L 418.177218 124.227981 
L 418.905428 124.440508 
L 419.633638 124.905989 
L 420.673938 125.897032 
L 423.170659 128.457126 
L 424.002899 128.95646 
L 425.043199 129.307804 
L 428.99634 130.316962 
L 431.285 131.279701 
L 431.285 131.279701 
" clip-path="url(#p0ebaeb9919)" style="fill: none; stroke: #ff7f0e; stroke-width: 0.5; stroke-linecap: square"/>
   </g>
   <g id="line2d_33">
    <path d="M 56.985 290.544992 
L 57.08903 290.544992 
L 57.19306 289.792951 
L 57.50515 290.81281 
L 57.81724 290.994545 
L 58.33739 290.881003 
L 59.48172 290.543279 
L 60.209931 289.191827 
L 61.562321 286.448842 
L 62.082471 285.965328 
L 62.498591 285.887154 
L 62.914711 286.060827 
L 63.434861 286.554999 
L 64.371131 287.844499 
L 65.723521 289.713163 
L 66.347702 290.145417 
L 67.179942 290.397467 
L 68.116212 290.469324 
L 69.052482 289.877825 
L 71.861292 287.836151 
L 72.485472 287.742776 
L 73.005623 287.917742 
L 73.525773 288.377002 
L 74.358013 289.614827 
L 74.982193 290.097502 
L 75.710403 290.357698 
L 75.918463 290.353459 
L 76.230553 289.925569 
L 76.750703 288.766109 
L 77.582943 286.173499 
L 79.143394 281.18068 
L 79.663544 280.204553 
L 80.079664 279.874472 
L 80.391754 279.930897 
L 80.703844 280.261167 
L 81.119964 281.12004 
L 81.640114 282.794894 
L 82.160264 284.987229 
L 82.784444 287.667806 
L 83.304594 288.975957 
L 83.824744 289.700845 
L 84.136834 289.946653 
L 84.240864 289.891691 
L 84.656984 288.969132 
L 85.177135 287.072166 
L 87.361765 278.056337 
L 87.881915 276.855755 
L 88.298035 276.402614 
L 88.506095 276.389222 
L 88.714155 276.537937 
L 89.026245 277.089347 
L 89.442365 278.454124 
L 90.066545 281.584024 
L 90.898785 286.677692 
L 91.418936 288.43861 
L 91.939086 289.412112 
L 92.043116 289.433375 
L 92.251176 289.010226 
L 92.563266 287.847648 
L 93.083416 284.821907 
L 94.019686 279.104426 
L 94.435806 277.82583 
L 94.643866 277.64562 
L 94.851926 277.767975 
L 95.164016 278.456206 
L 95.580136 280.100967 
L 96.412376 284.543199 
L 97.036556 287.49616 
L 97.556707 288.888656 
L 98.076857 289.654853 
L 98.284917 289.725268 
L 98.597007 289.097806 
L 99.013127 287.363764 
L 99.533277 283.917269 
L 101.301787 270.436268 
L 101.613877 269.696277 
L 101.821937 269.708519 
L 102.029997 270.134841 
L 102.342087 271.511235 
L 102.862237 275.350731 
L 103.382387 280.369314 
L 103.902538 284.754246 
L 104.422688 287.390628 
L 104.942838 288.848513 
L 105.150898 289.184976 
L 105.254928 289.145142 
L 105.567018 288.351968 
L 105.983138 286.283807 
L 106.503288 282.276154 
L 108.063738 268.952383 
L 108.479858 267.395267 
L 108.687918 267.197809 
L 108.895978 267.415163 
L 109.208068 268.513351 
L 109.624188 271.269088 
L 110.352399 278.328365 
L 110.976579 284.222336 
L 111.496729 287.097207 
L 112.016879 288.6771 
L 112.224939 288.884532 
L 112.537029 288.932764 
L 113.473299 288.838809 
L 113.889419 289.274021 
L 114.617629 289.964949 
L 115.345839 290.299383 
L 115.761959 290.380705 
L 115.970019 290.17025 
L 116.38614 289.320386 
L 117.01032 287.318319 
L 117.73853 285.092691 
L 118.05062 284.610255 
L 118.25868 284.527336 
L 118.46674 284.646581 
L 118.77883 285.119234 
L 119.40301 287.364345 
L 119.92316 288.77019 
L 120.44331 289.58364 
L 120.7554 289.82881 
L 120.96346 289.544764 
L 121.27555 288.727302 
L 121.7957 286.602771 
L 122.627941 283.14042 
L 122.940031 282.449008 
L 123.148091 282.281951 
L 123.356151 282.368661 
L 123.564211 282.702944 
L 123.980331 283.987758 
L 124.916601 288.010205 
L 125.436751 289.168706 
L 125.956901 289.788622 
L 126.164961 289.690591 
L 126.789141 288.920394 
L 127.205261 288.532546 
L 127.517351 288.488407 
L 127.725411 288.571376 
L 128.349591 289.37495 
L 128.973772 289.965389 
L 129.285862 290.07454 
L 129.597952 289.725102 
L 130.014072 288.726741 
L 131.366462 284.667599 
L 131.678552 284.48955 
L 131.990642 284.754179 
L 132.198702 285.228162 
L 133.239002 288.676702 
L 133.759152 289.532332 
L 134.175272 289.924741 
L 134.279302 289.882368 
L 134.591392 289.127923 
L 135.007513 287.341287 
L 135.527663 283.864447 
L 136.151843 277.983376 
L 137.920353 259.263414 
L 138.336473 257.417273 
L 138.544533 257.194795 
L 138.752593 257.475724 
L 138.960653 258.265585 
L 139.272743 260.366445 
L 139.792893 265.956455 
L 141.353344 285.062057 
L 141.873494 287.591483 
L 142.081554 288.076172 
L 142.289614 287.681308 
L 142.601704 286.498943 
L 143.225884 282.759935 
L 144.058124 278.122887 
L 144.474244 276.808563 
L 144.786334 276.323016 
L 145.098424 276.22254 
L 145.410514 276.431888 
L 145.826634 277.046449 
L 146.658874 278.819485 
L 147.595145 281.302101 
L 148.427385 284.257983 
L 149.467685 288.327171 
L 149.987835 289.34261 
L 150.507985 289.899237 
L 150.820075 290.029303 
L 151.236195 289.380839 
L 152.484555 287.150341 
L 152.796645 287.117662 
L 153.212765 287.530669 
L 154.461126 289.695855 
L 155.085306 290.140274 
L 155.605456 290.299055 
L 155.917546 290.020979 
L 156.437696 289.190601 
L 157.894116 286.40295 
L 158.206206 286.318554 
L 158.518296 286.522167 
L 158.726356 286.749226 
L 160.182777 289.683474 
L 160.702927 290.081261 
L 160.806957 290.077803 
L 161.015017 289.735388 
L 161.327107 288.798295 
L 161.743227 286.764362 
L 162.367407 282.301649 
L 163.927857 270.219877 
L 164.239947 269.133107 
L 164.448007 268.86769 
L 164.656067 269.001693 
L 164.864127 269.544957 
L 165.176217 271.107491 
L 165.696367 275.246795 
L 166.632638 284.599222 
L 167.152788 287.315352 
L 167.568908 288.453849 
L 167.776968 287.972119 
L 168.089058 286.429686 
L 168.713238 281.553658 
L 169.337418 277.134822 
L 169.649508 276.032081 
L 169.857568 275.814727 
L 170.065628 276.001065 
L 170.377718 276.948089 
L 170.897868 279.754968 
L 172.042198 286.462124 
L 172.562349 288.290423 
L 173.082499 289.327436 
L 173.602649 289.891709 
L 174.226829 290.236268 
L 175.059069 290.431499 
L 176.411459 290.505371 
L 176.827579 290.18018 
L 178.283999 288.866072 
L 179.11624 288.52198 
L 179.94848 288.422809 
L 180.57266 288.578768 
L 181.30087 289.046424 
L 182.75729 290.207113 
L 183.58953 290.419905 
L 184.5258 290.472451 
L 184.83789 290.115605 
L 185.254011 289.277483 
L 185.774161 287.668424 
L 187.230581 282.658811 
L 187.646701 282.080799 
L 187.958791 282.065643 
L 188.270881 282.397044 
L 188.687001 283.289184 
L 189.415211 285.569484 
L 190.559541 288.899384 
L 191.079691 289.652365 
L 191.703872 290.121756 
L 192.432082 290.368521 
L 193.368352 290.478427 
L 193.888502 290.300545 
L 194.512682 289.875012 
L 195.240892 289.110737 
L 196.281192 287.971211 
L 196.697312 287.77513 
L 197.113432 287.8308 
L 197.529553 288.11131 
L 197.841643 288.513635 
L 198.569853 289.581443 
L 199.194033 290.080286 
L 199.922243 290.350389 
L 200.546423 290.393695 
L 201.586723 290.05926 
L 202.002843 290.121868 
L 203.251203 290.433332 
L 204.083444 290.462312 
L 204.915684 290.333297 
L 207.204344 290.527357 
L 207.620464 290.404437 
L 208.868824 289.976375 
L 209.388974 290.122589 
L 210.429275 290.410504 
L 211.469575 290.500957 
L 211.781665 290.257322 
L 212.197785 289.662008 
L 213.030025 287.927388 
L 213.654205 286.849923 
L 214.070325 286.571248 
L 214.382415 286.646814 
L 214.798535 287.082679 
L 215.526745 288.385214 
L 216.150926 289.446056 
L 216.671076 289.947765 
L 217.295256 290.261633 
L 218.023466 290.406737 
L 219.583916 289.89086 
L 221.352426 290.425225 
L 221.768546 290.205924 
L 223.433027 288.985786 
L 223.641087 289.045943 
L 225.201537 290.245296 
L 225.929747 290.409022 
L 226.137807 290.238443 
L 226.553927 289.608752 
L 227.178107 288.146599 
L 228.426467 284.947883 
L 228.842588 284.415362 
L 229.154678 284.331751 
L 229.466768 284.533207 
L 229.882888 285.198015 
L 230.611098 287.020537 
L 231.339308 288.898696 
L 231.859458 289.648772 
L 232.483638 290.119542 
L 233.211848 290.367483 
L 234.044088 290.426884 
L 235.812599 290.387263 
L 237.269019 290.515708 
L 237.477079 290.473886 
L 237.997229 289.79699 
L 239.037529 287.85214 
L 239.765739 286.703952 
L 240.389919 286.127362 
L 240.702009 286.079533 
L 241.014099 286.28233 
L 241.32619 286.677522 
L 242.57455 289.456152 
L 243.0947 289.95734 
L 243.40679 290.052376 
L 243.82291 289.260492 
L 244.34306 287.630022 
L 245.38336 284.255495 
L 245.79948 283.610342 
L 246.11157 283.543262 
L 246.42366 283.832301 
L 246.83978 284.685273 
L 247.567991 286.998121 
L 248.192171 288.757339 
L 248.712321 289.575366 
L 249.232471 290.024138 
L 249.440531 290.097615 
L 249.752621 289.770309 
L 250.168741 288.936365 
L 250.896951 286.809086 
L 251.625161 284.882684 
L 252.041281 284.380308 
L 252.249341 284.357319 
L 252.561431 284.611978 
L 252.977551 285.430923 
L 253.393671 286.59833 
L 254.121882 288.707545 
L 254.642032 289.545195 
L 255.162182 290.007446 
L 255.786362 290.277313 
L 256.618602 290.104788 
L 259.219352 289.442996 
L 260.051593 289.181371 
L 260.571743 289.231658 
L 262.132193 290.282547 
L 262.964433 290.44784 
L 263.172493 290.332307 
L 263.692643 289.641455 
L 264.732943 288.108031 
L 265.045033 287.940894 
L 265.357123 287.999274 
L 265.669213 288.247549 
L 266.917574 289.898416 
L 267.333694 290.122559 
L 267.645784 289.986532 
L 268.269964 289.34728 
L 268.894144 288.812949 
L 269.310264 288.748934 
L 269.518324 288.851345 
L 270.870714 290.120303 
L 271.598924 290.366612 
L 272.015044 290.406553 
L 272.639225 289.898389 
L 274.615795 287.980223 
L 275.239975 287.764084 
L 275.760125 287.819978 
L 276.384305 288.154116 
L 277.008485 288.684401 
L 278.048785 289.902401 
L 278.672966 290.237614 
L 279.401176 290.413895 
L 279.609236 290.242041 
L 280.025356 289.51504 
L 280.545506 288.023406 
L 282.105956 282.989639 
L 282.418046 282.730485 
L 282.626106 282.792136 
L 282.938196 283.222768 
L 283.354316 284.307767 
L 284.914767 289.115207 
L 285.434917 289.774069 
L 286.059097 290.180139 
L 286.683277 290.336641 
L 288.347757 290.399461 
L 288.867907 290.127906 
L 290.220297 289.201582 
L 290.428357 289.254385 
L 291.988808 290.287191 
L 292.508958 290.32806 
L 292.821048 289.650757 
L 293.237168 288.054755 
L 293.757318 285.054099 
L 295.005678 277.333377 
L 295.421798 276.128784 
L 295.629858 275.964407 
L 295.837918 276.10733 
L 296.150008 276.874333 
L 296.566128 278.770306 
L 297.398369 284.119155 
L 297.918519 286.921075 
L 298.438669 288.576014 
L 298.854789 289.328195 
L 299.166879 289.41875 
L 300.519269 289.357435 
L 301.663599 290.175996 
L 302.495839 290.407591 
L 303.43211 290.451802 
L 306.24092 290.464083 
L 306.76107 289.883687 
L 307.48928 288.551351 
L 308.32152 287.072287 
L 308.73764 286.650873 
L 309.15376 286.543718 
L 309.56988 286.753215 
L 310.090031 287.364905 
L 311.962571 289.979241 
L 312.690781 290.30783 
L 313.314961 290.400886 
L 313.627051 290.013568 
L 314.043171 288.986942 
L 314.459291 287.267978 
L 314.979441 284.070164 
L 315.707651 278.011309 
L 316.747952 269.366993 
L 317.164072 267.424635 
L 317.372132 267.006461 
L 317.580192 266.998617 
L 317.788252 267.40955 
L 318.100342 268.777679 
L 318.516462 271.785555 
L 320.284972 286.73785 
L 320.805122 288.492306 
L 321.325272 289.414658 
L 321.741392 289.518048 
L 322.573633 289.649041 
L 323.405873 289.817289 
L 323.821993 289.626887 
L 324.342143 289.094872 
L 325.382443 287.927042 
L 325.798563 287.795166 
L 326.214683 287.941435 
L 326.734833 288.429423 
L 328.191253 290.007907 
L 328.919464 290.318798 
L 329.959764 290.480106 
L 330.583944 290.47554 
L 331.104094 289.953913 
L 333.184694 287.386566 
L 333.600814 287.332929 
L 334.016934 287.508152 
L 334.537084 287.996829 
L 336.305595 290.057109 
L 337.033805 290.340374 
L 338.178135 290.493232 
L 339.634555 290.474371 
L 343.067546 290.004145 
L 343.795756 290.193026 
L 344.836056 290.435432 
L 346.500536 290.530043 
L 347.124717 290.458786 
L 347.644867 289.955121 
L 348.269047 288.999176 
L 349.205317 287.09264 
L 350.141587 285.274767 
L 350.557707 284.833909 
L 350.869797 284.749315 
L 351.181887 284.899324 
L 351.598007 285.446582 
L 352.222187 286.757503 
L 353.158457 289.071161 
L 353.678608 289.744346 
L 354.302788 290.165182 
L 354.822938 290.318104 
L 355.030998 290.090514 
L 355.343088 289.48136 
L 355.759208 288.159811 
L 356.279358 285.703659 
L 357.943838 276.868331 
L 358.255928 276.279979 
L 358.463988 276.225847 
L 358.672048 276.447549 
L 358.984138 277.268385 
L 359.400258 279.122469 
L 360.232499 284.186628 
L 360.752649 286.943489 
L 361.272799 288.585768 
L 361.792949 289.491691 
L 362.105039 289.784414 
L 362.417129 289.587837 
L 362.937279 288.847877 
L 363.873549 287.431499 
L 364.289669 287.172431 
L 364.601759 287.195615 
L 365.017879 287.487068 
L 365.642059 288.331919 
L 366.37027 289.505405 
L 366.99445 290.044366 
L 367.72266 290.335402 
L 368.24281 290.379419 
L 368.86699 290.287989 
L 370.94759 290.506175 
L 371.36371 290.261782 
L 372.716101 289.318188 
L 373.236251 289.322595 
L 373.548341 289.469751 
L 374.588641 290.177551 
L 375.420881 290.408022 
L 376.461181 290.464167 
L 378.021631 289.914935 
L 378.749842 289.927421 
L 381.246562 290.502274 
L 381.974772 290.424719 
L 384.679553 290.439497 
L 385.095673 289.738537 
L 385.615823 288.255773 
L 387.280303 282.651698 
L 387.592393 282.352126 
L 387.800453 282.365568 
L 388.112543 282.688201 
L 388.528663 283.586239 
L 389.464933 286.485752 
L 390.193143 288.612052 
L 390.713293 289.489839 
L 391.233444 289.977143 
L 391.857624 290.27644 
L 392.481804 290.402779 
L 393.001954 290.160785 
L 394.458374 289.399035 
L 394.978524 289.409686 
L 395.706734 289.674261 
L 397.163155 290.35178 
L 398.307485 290.495799 
L 400.908235 290.534591 
L 403.300926 290.446268 
L 405.277496 290.535139 
L 406.109736 290.492357 
L 406.733916 290.019119 
L 407.358096 289.241574 
L 408.814516 287.294545 
L 409.230636 287.141126 
L 409.542727 287.22229 
L 409.958847 287.580621 
L 410.583027 288.522296 
L 411.207207 289.505513 
L 411.831387 290.044701 
L 412.559597 290.335604 
L 413.599897 290.484315 
L 414.328107 290.407769 
L 414.952287 290.173284 
L 415.576467 289.698106 
L 416.928858 288.558121 
L 417.344978 288.522936 
L 417.865128 288.751286 
L 419.425578 290.184851 
L 420.257818 290.411838 
L 420.881998 290.440065 
L 422.026329 290.196293 
L 423.066629 290.401088 
L 424.523049 290.519089 
L 424.835139 290.455141 
L 425.563349 289.936728 
L 427.019769 288.752095 
L 427.539919 288.637455 
L 428.060069 288.749148 
L 428.68425 289.100126 
L 429.72455 290.044923 
L 430.45276 290.333709 
L 431.285 290.467124 
L 431.285 290.467124 
" clip-path="url(#p0ebaeb9919)" style="fill: none; stroke: #2ca02c; stroke-width: 0.5; stroke-linecap: square"/>
   </g>
   <g id="patch_3">
    <path d="M 38.27 303.64 
L 38.27 25.44 
" style="fill: none; stroke: #000000; stroke-width: 0.8; stroke-linejoin: miter; stroke-linecap: square"/>
   </g>
   <g id="patch_4">
    <path d="M 450 303.64 
L 450 25.44 
" style="fill: none; stroke: #000000; stroke-width: 0.8; stroke-linejoin: miter; stroke-linecap: square"/>
   </g>
   <g id="patch_5">
    <path d="M 38.27 303.64 
L 450 303.64 
" style="fill: none; stroke: #000000; stroke-width: 0.8; stroke-linejoin: miter; stroke-linecap: square"/>
   </g>
   <g id="patch_6">
    <path d="M 38.27 25.44 
L 450 25.44 
" style="fill: none; stroke: #000000; stroke-width: 0.8; stroke-linejoin: miter; stroke-linecap: square"/>
   </g>
   <g id="text_18">
    <!-- data_7_E4 Separated EDA plot -->
    <g transform="translate(152.579688 19.44) scale(0.12 -0.12)">
     <defs>
      <path id="DejaVuSans-5f" d="M 3263 -1063 
L 3263 -1509 
L -63 -1509 
L -63 -1063 
L 3263 -1063 
z
" transform="scale(0.015625)"/>
      <path id="DejaVuSans-37" d="M 525 4666 
L 3525 4666 
L 3525 4397 
L 1831 0 
L 1172 0 
L 2766 4134 
L 525 4134 
L 525 4666 
z
" transform="scale(0.015625)"/>
      <path id="DejaVuSans-70" d="M 1159 525 
L 1159 -1331 
L 581 -1331 
L 581 3500 
L 1159 3500 
L 1159 2969 
Q 1341 3281 1617 3432 
Q 1894 3584 2278 3584 
Q 2916 3584 3314 3078 
Q 3713 2572 3713 1747 
Q 3713 922 3314 415 
Q 2916 -91 2278 -91 
Q 1894 -91 1617 61 
Q 1341 213 1159 525 
z
M 3116 1747 
Q 3116 2381 2855 2742 
Q 2594 3103 2138 3103 
Q 1681 3103 1420 2742 
Q 1159 2381 1159 1747 
Q 1159 1113 1420 752 
Q 1681 391 2138 391 
Q 2594 391 2855 752 
Q 3116 1113 3116 1747 
z
" transform="scale(0.015625)"/>
      <path id="DejaVuSans-6f" d="M 1959 3097 
Q 1497 3097 1228 2736 
Q 959 2375 959 1747 
Q 959 1119 1226 758 
Q 1494 397 1959 397 
Q 2419 397 2687 759 
Q 2956 1122 2956 1747 
Q 2956 2369 2687 2733 
Q 2419 3097 1959 3097 
z
M 1959 3584 
Q 2709 3584 3137 3096 
Q 3566 2609 3566 1747 
Q 3566 888 3137 398 
Q 2709 -91 1959 -91 
Q 1206 -91 779 398 
Q 353 888 353 1747 
Q 353 2609 779 3096 
Q 1206 3584 1959 3584 
z
" transform="scale(0.015625)"/>
     </defs>
     <use xlink:href="#DejaVuSans-64"/>
     <use xlink:href="#DejaVuSans-61" transform="translate(63.476562 0)"/>
     <use xlink:href="#DejaVuSans-74" transform="translate(124.755859 0)"/>
     <use xlink:href="#DejaVuSans-61" transform="translate(163.964844 0)"/>
     <use xlink:href="#DejaVuSans-5f" transform="translate(225.244141 0)"/>
     <use xlink:href="#DejaVuSans-37" transform="translate(275.244141 0)"/>
     <use xlink:href="#DejaVuSans-5f" transform="translate(338.867188 0)"/>
     <use xlink:href="#DejaVuSans-45" transform="translate(388.867188 0)"/>
     <use xlink:href="#DejaVuSans-34" transform="translate(452.050781 0)"/>
     <use xlink:href="#DejaVuSans-20" transform="translate(515.673828 0)"/>
     <use xlink:href="#DejaVuSans-53" transform="translate(547.460938 0)"/>
     <use xlink:href="#DejaVuSans-65" transform="translate(610.9375 0)"/>
     <use xlink:href="#DejaVuSans-70" transform="translate(672.460938 0)"/>
     <use xlink:href="#DejaVuSans-61" transform="translate(735.9375 0)"/>
     <use xlink:href="#DejaVuSans-72" transform="translate(797.216797 0)"/>
     <use xlink:href="#DejaVuSans-61" transform="translate(838.330078 0)"/>
     <use xlink:href="#DejaVuSans-74" transform="translate(899.609375 0)"/>
     <use xlink:href="#DejaVuSans-65" transform="translate(938.818359 0)"/>
     <use xlink:href="#DejaVuSans-64" transform="translate(1000.341797 0)"/>
     <use xlink:href="#DejaVuSans-20" transform="translate(1063.818359 0)"/>
     <use xlink:href="#DejaVuSans-45" transform="translate(1095.605469 0)"/>
     <use xlink:href="#DejaVuSans-44" transform="translate(1158.789062 0)"/>
     <use xlink:href="#DejaVuSans-41" transform="translate(1234.041016 0)"/>
     <use xlink:href="#DejaVuSans-20" transform="translate(1302.449219 0)"/>
     <use xlink:href="#DejaVuSans-70" transform="translate(1334.236328 0)"/>
     <use xlink:href="#DejaVuSans-6c" transform="translate(1397.712891 0)"/>
     <use xlink:href="#DejaVuSans-6f" transform="translate(1425.496094 0)"/>
     <use xlink:href="#DejaVuSans-74" transform="translate(1486.677734 0)"/>
    </g>
   </g>
   <g id="legend_1">
    <g id="patch_7">
     <path d="M 350.09375 77.474375 
L 443 77.474375 
Q 445 77.474375 445 75.474375 
L 445 32.44 
Q 445 30.44 443 30.44 
L 350.09375 30.44 
Q 348.09375 30.44 348.09375 32.44 
L 348.09375 75.474375 
Q 348.09375 77.474375 350.09375 77.474375 
z
" style="fill: #ffffff; opacity: 0.8; stroke: #cccccc; stroke-linejoin: miter"/>
    </g>
    <g id="line2d_34">
     <path d="M 352.09375 38.538437 
L 362.09375 38.538437 
L 372.09375 38.538437 
" style="fill: none; stroke-dasharray: 1.85,0.8; stroke-dashoffset: 0; stroke: #1f77b4; stroke-width: 0.5"/>
    </g>
    <g id="text_19">
     <!-- Filtered EDA -->
     <g transform="translate(380.09375 42.038437) scale(0.1 -0.1)">
      <defs>
       <path id="DejaVuSans-46" d="M 628 4666 
L 3309 4666 
L 3309 4134 
L 1259 4134 
L 1259 2759 
L 3109 2759 
L 3109 2228 
L 1259 2228 
L 1259 0 
L 628 0 
L 628 4666 
z
" transform="scale(0.015625)"/>
      </defs>
      <use xlink:href="#DejaVuSans-46"/>
      <use xlink:href="#DejaVuSans-69" transform="translate(50.269531 0)"/>
      <use xlink:href="#DejaVuSans-6c" transform="translate(78.052734 0)"/>
      <use xlink:href="#DejaVuSans-74" transform="translate(105.835938 0)"/>
      <use xlink:href="#DejaVuSans-65" transform="translate(145.044922 0)"/>
      <use xlink:href="#DejaVuSans-72" transform="translate(206.568359 0)"/>
      <use xlink:href="#DejaVuSans-65" transform="translate(245.431641 0)"/>
      <use xlink:href="#DejaVuSans-64" transform="translate(306.955078 0)"/>
      <use xlink:href="#DejaVuSans-20" transform="translate(370.431641 0)"/>
      <use xlink:href="#DejaVuSans-45" transform="translate(402.21875 0)"/>
      <use xlink:href="#DejaVuSans-44" transform="translate(465.402344 0)"/>
      <use xlink:href="#DejaVuSans-41" transform="translate(540.654297 0)"/>
     </g>
    </g>
    <g id="line2d_35">
     <path d="M 352.09375 53.216562 
L 362.09375 53.216562 
L 372.09375 53.216562 
" style="fill: none; stroke: #ff7f0e; stroke-width: 0.5; stroke-linecap: square"/>
    </g>
    <g id="text_20">
     <!-- Tonic -->
     <g transform="translate(380.09375 56.716562) scale(0.1 -0.1)">
      <defs>
       <path id="DejaVuSans-63" d="M 3122 3366 
L 3122 2828 
Q 2878 2963 2633 3030 
Q 2388 3097 2138 3097 
Q 1578 3097 1268 2742 
Q 959 2388 959 1747 
Q 959 1106 1268 751 
Q 1578 397 2138 397 
Q 2388 397 2633 464 
Q 2878 531 3122 666 
L 3122 134 
Q 2881 22 2623 -34 
Q 2366 -91 2075 -91 
Q 1284 -91 818 406 
Q 353 903 353 1747 
Q 353 2603 823 3093 
Q 1294 3584 2113 3584 
Q 2378 3584 2631 3529 
Q 2884 3475 3122 3366 
z
" transform="scale(0.015625)"/>
      </defs>
      <use xlink:href="#DejaVuSans-54"/>
      <use xlink:href="#DejaVuSans-6f" transform="translate(44.083984 0)"/>
      <use xlink:href="#DejaVuSans-6e" transform="translate(105.265625 0)"/>
      <use xlink:href="#DejaVuSans-69" transform="translate(168.644531 0)"/>
      <use xlink:href="#DejaVuSans-63" transform="translate(196.427734 0)"/>
     </g>
    </g>
    <g id="line2d_36">
     <path d="M 352.09375 67.894687 
L 362.09375 67.894687 
L 372.09375 67.894687 
" style="fill: none; stroke: #2ca02c; stroke-width: 0.5; stroke-linecap: square"/>
    </g>
    <g id="text_21">
     <!-- Phasic -->
     <g transform="translate(380.09375 71.394687) scale(0.1 -0.1)">
      <defs>
       <path id="DejaVuSans-50" d="M 1259 4147 
L 1259 2394 
L 2053 2394 
Q 2494 2394 2734 2622 
Q 2975 2850 2975 3272 
Q 2975 3691 2734 3919 
Q 2494 4147 2053 4147 
L 1259 4147 
z
M 628 4666 
L 2053 4666 
Q 2838 4666 3239 4311 
Q 3641 3956 3641 3272 
Q 3641 2581 3239 2228 
Q 2838 1875 2053 1875 
L 1259 1875 
L 1259 0 
L 628 0 
L 628 4666 
z
" transform="scale(0.015625)"/>
       <path id="DejaVuSans-68" d="M 3513 2113 
L 3513 0 
L 2938 0 
L 2938 2094 
Q 2938 2591 2744 2837 
Q 2550 3084 2163 3084 
Q 1697 3084 1428 2787 
Q 1159 2491 1159 1978 
L 1159 0 
L 581 0 
L 581 4863 
L 1159 4863 
L 1159 2956 
Q 1366 3272 1645 3428 
Q 1925 3584 2291 3584 
Q 2894 3584 3203 3211 
Q 3513 2838 3513 2113 
z
" transform="scale(0.015625)"/>
      </defs>
      <use xlink:href="#DejaVuSans-50"/>
      <use xlink:href="#DejaVuSans-68" transform="translate(60.302734 0)"/>
      <use xlink:href="#DejaVuSans-61" transform="translate(123.681641 0)"/>
      <use xlink:href="#DejaVuSans-73" transform="translate(184.960938 0)"/>
      <use xlink:href="#DejaVuSans-69" transform="translate(237.060547 0)"/>
      <use xlink:href="#DejaVuSans-63" transform="translate(264.84375 0)"/>
     </g>
    </g>
   </g>
  </g>
 </g>
 <defs>
  <clipPath id="p0ebaeb9919">
   <rect x="38.27" y="25.44" width="411.73" height="278.2"/>
  </clipPath>
 </defs>
</svg>
