<?xml version="1.0" encoding="utf-8" standalone="no"?>
<!DOCTYPE svg PUBLIC "-//W3C//DTD SVG 1.1//EN"
  "http://www.w3.org/Graphics/SVG/1.1/DTD/svg11.dtd">
<svg xmlns:xlink="http://www.w3.org/1999/xlink" width="460.8pt" height="345.6pt" viewBox="0 0 460.8 345.6" xmlns="http://www.w3.org/2000/svg" version="1.1">
 <metadata>
  <rdf:RDF xmlns:dc="http://purl.org/dc/elements/1.1/" xmlns:cc="http://creativecommons.org/ns#" xmlns:rdf="http://www.w3.org/1999/02/22-rdf-syntax-ns#">
   <cc:Work>
    <dc:type rdf:resource="http://purl.org/dc/dcmitype/StillImage"/>
    <dc:date>2025-09-22T14:19:01.088326</dc:date>
    <dc:format>image/svg+xml</dc:format>
    <dc:creator>
     <cc:Agent>
      <dc:title>Matplotlib v3.10.0, https://matplotlib.org/</dc:title>
     </cc:Agent>
    </dc:creator>
   </cc:Work>
  </rdf:RDF>
 </metadata>
 <defs>
  <style type="text/css">*{stroke-linejoin: round; stroke-linecap: butt}</style>
 </defs>
 <g id="figure_1">
  <g id="patch_1">
   <path d="M 0 345.6 
L 460.8 345.6 
L 460.8 0 
L 0 0 
z
" style="fill: #ffffff"/>
  </g>
  <g id="axes_1">
   <g id="patch_2">
    <path d="M 38.27 303.64 
L 450 303.64 
L 450 25.44 
L 38.27 25.44 
z
" style="fill: #ffffff"/>
   </g>
   <g id="matplotlib.axis_1">
    <g id="xtick_1">
     <g id="line2d_1">
      <path d="M 56.985 303.64 
L 56.985 25.44 
" clip-path="url(#pb5746f64ed)" style="fill: none; stroke: #b0b0b0; stroke-opacity: 0.3; stroke-width: 0.8; stroke-linecap: square"/>
     </g>
     <g id="line2d_2">
      <defs>
       <path id="m895fdcbb36" d="M 0 0 
L 0 3.5 
" style="stroke: #000000; stroke-width: 0.8"/>
      </defs>
      <g>
       <use xlink:href="#m895fdcbb36" x="56.985" y="303.64" style="stroke: #000000; stroke-width: 0.8"/>
      </g>
     </g>
     <g id="text_1">
      <!-- 0 -->
      <g transform="translate(53.80375 318.238437) scale(0.1 -0.1)">
       <defs>
        <path id="DejaVuSans-30" d="M 2034 4250 
Q 1547 4250 1301 3770 
Q 1056 3291 1056 2328 
Q 1056 1369 1301 889 
Q 1547 409 2034 409 
Q 2525 409 2770 889 
Q 3016 1369 3016 2328 
Q 3016 3291 2770 3770 
Q 2525 4250 2034 4250 
z
M 2034 4750 
Q 2819 4750 3233 4129 
Q 3647 3509 3647 2328 
Q 3647 1150 3233 529 
Q 2819 -91 2034 -91 
Q 1250 -91 836 529 
Q 422 1150 422 2328 
Q 422 3509 836 4129 
Q 1250 4750 2034 4750 
z
" transform="scale(0.015625)"/>
       </defs>
       <use xlink:href="#DejaVuSans-30"/>
      </g>
     </g>
    </g>
    <g id="xtick_2">
     <g id="line2d_3">
      <path d="M 106.891667 303.64 
L 106.891667 25.44 
" clip-path="url(#pb5746f64ed)" style="fill: none; stroke: #b0b0b0; stroke-opacity: 0.3; stroke-width: 0.8; stroke-linecap: square"/>
     </g>
     <g id="line2d_4">
      <g>
       <use xlink:href="#m895fdcbb36" x="106.891667" y="303.64" style="stroke: #000000; stroke-width: 0.8"/>
      </g>
     </g>
     <g id="text_2">
      <!-- 2 -->
      <g transform="translate(103.710417 318.238437) scale(0.1 -0.1)">
       <defs>
        <path id="DejaVuSans-32" d="M 1228 531 
L 3431 531 
L 3431 0 
L 469 0 
L 469 531 
Q 828 903 1448 1529 
Q 2069 2156 2228 2338 
Q 2531 2678 2651 2914 
Q 2772 3150 2772 3378 
Q 2772 3750 2511 3984 
Q 2250 4219 1831 4219 
Q 1534 4219 1204 4116 
Q 875 4013 500 3803 
L 500 4441 
Q 881 4594 1212 4672 
Q 1544 4750 1819 4750 
Q 2544 4750 2975 4387 
Q 3406 4025 3406 3419 
Q 3406 3131 3298 2873 
Q 3191 2616 2906 2266 
Q 2828 2175 2409 1742 
Q 1991 1309 1228 531 
z
" transform="scale(0.015625)"/>
       </defs>
       <use xlink:href="#DejaVuSans-32"/>
      </g>
     </g>
    </g>
    <g id="xtick_3">
     <g id="line2d_5">
      <path d="M 156.798333 303.64 
L 156.798333 25.44 
" clip-path="url(#pb5746f64ed)" style="fill: none; stroke: #b0b0b0; stroke-opacity: 0.3; stroke-width: 0.8; stroke-linecap: square"/>
     </g>
     <g id="line2d_6">
      <g>
       <use xlink:href="#m895fdcbb36" x="156.798333" y="303.64" style="stroke: #000000; stroke-width: 0.8"/>
      </g>
     </g>
     <g id="text_3">
      <!-- 4 -->
      <g transform="translate(153.617083 318.238437) scale(0.1 -0.1)">
       <defs>
        <path id="DejaVuSans-34" d="M 2419 4116 
L 825 1625 
L 2419 1625 
L 2419 4116 
z
M 2253 4666 
L 3047 4666 
L 3047 1625 
L 3713 1625 
L 3713 1100 
L 3047 1100 
L 3047 0 
L 2419 0 
L 2419 1100 
L 313 1100 
L 313 1709 
L 2253 4666 
z
" transform="scale(0.015625)"/>
       </defs>
       <use xlink:href="#DejaVuSans-34"/>
      </g>
     </g>
    </g>
    <g id="xtick_4">
     <g id="line2d_7">
      <path d="M 206.705 303.64 
L 206.705 25.44 
" clip-path="url(#pb5746f64ed)" style="fill: none; stroke: #b0b0b0; stroke-opacity: 0.3; stroke-width: 0.8; stroke-linecap: square"/>
     </g>
     <g id="line2d_8">
      <g>
       <use xlink:href="#m895fdcbb36" x="206.705" y="303.64" style="stroke: #000000; stroke-width: 0.8"/>
      </g>
     </g>
     <g id="text_4">
      <!-- 6 -->
      <g transform="translate(203.52375 318.238437) scale(0.1 -0.1)">
       <defs>
        <path id="DejaVuSans-36" d="M 2113 2584 
Q 1688 2584 1439 2293 
Q 1191 2003 1191 1497 
Q 1191 994 1439 701 
Q 1688 409 2113 409 
Q 2538 409 2786 701 
Q 3034 994 3034 1497 
Q 3034 2003 2786 2293 
Q 2538 2584 2113 2584 
z
M 3366 4563 
L 3366 3988 
Q 3128 4100 2886 4159 
Q 2644 4219 2406 4219 
Q 1781 4219 1451 3797 
Q 1122 3375 1075 2522 
Q 1259 2794 1537 2939 
Q 1816 3084 2150 3084 
Q 2853 3084 3261 2657 
Q 3669 2231 3669 1497 
Q 3669 778 3244 343 
Q 2819 -91 2113 -91 
Q 1303 -91 875 529 
Q 447 1150 447 2328 
Q 447 3434 972 4092 
Q 1497 4750 2381 4750 
Q 2619 4750 2861 4703 
Q 3103 4656 3366 4563 
z
" transform="scale(0.015625)"/>
       </defs>
       <use xlink:href="#DejaVuSans-36"/>
      </g>
     </g>
    </g>
    <g id="xtick_5">
     <g id="line2d_9">
      <path d="M 256.611667 303.64 
L 256.611667 25.44 
" clip-path="url(#pb5746f64ed)" style="fill: none; stroke: #b0b0b0; stroke-opacity: 0.3; stroke-width: 0.8; stroke-linecap: square"/>
     </g>
     <g id="line2d_10">
      <g>
       <use xlink:href="#m895fdcbb36" x="256.611667" y="303.64" style="stroke: #000000; stroke-width: 0.8"/>
      </g>
     </g>
     <g id="text_5">
      <!-- 8 -->
      <g transform="translate(253.430417 318.238437) scale(0.1 -0.1)">
       <defs>
        <path id="DejaVuSans-38" d="M 2034 2216 
Q 1584 2216 1326 1975 
Q 1069 1734 1069 1313 
Q 1069 891 1326 650 
Q 1584 409 2034 409 
Q 2484 409 2743 651 
Q 3003 894 3003 1313 
Q 3003 1734 2745 1975 
Q 2488 2216 2034 2216 
z
M 1403 2484 
Q 997 2584 770 2862 
Q 544 3141 544 3541 
Q 544 4100 942 4425 
Q 1341 4750 2034 4750 
Q 2731 4750 3128 4425 
Q 3525 4100 3525 3541 
Q 3525 3141 3298 2862 
Q 3072 2584 2669 2484 
Q 3125 2378 3379 2068 
Q 3634 1759 3634 1313 
Q 3634 634 3220 271 
Q 2806 -91 2034 -91 
Q 1263 -91 848 271 
Q 434 634 434 1313 
Q 434 1759 690 2068 
Q 947 2378 1403 2484 
z
M 1172 3481 
Q 1172 3119 1398 2916 
Q 1625 2713 2034 2713 
Q 2441 2713 2670 2916 
Q 2900 3119 2900 3481 
Q 2900 3844 2670 4047 
Q 2441 4250 2034 4250 
Q 1625 4250 1398 4047 
Q 1172 3844 1172 3481 
z
" transform="scale(0.015625)"/>
       </defs>
       <use xlink:href="#DejaVuSans-38"/>
      </g>
     </g>
    </g>
    <g id="xtick_6">
     <g id="line2d_11">
      <path d="M 306.518333 303.64 
L 306.518333 25.44 
" clip-path="url(#pb5746f64ed)" style="fill: none; stroke: #b0b0b0; stroke-opacity: 0.3; stroke-width: 0.8; stroke-linecap: square"/>
     </g>
     <g id="line2d_12">
      <g>
       <use xlink:href="#m895fdcbb36" x="306.518333" y="303.64" style="stroke: #000000; stroke-width: 0.8"/>
      </g>
     </g>
     <g id="text_6">
      <!-- 10 -->
      <g transform="translate(300.155833 318.238437) scale(0.1 -0.1)">
       <defs>
        <path id="DejaVuSans-31" d="M 794 531 
L 1825 531 
L 1825 4091 
L 703 3866 
L 703 4441 
L 1819 4666 
L 2450 4666 
L 2450 531 
L 3481 531 
L 3481 0 
L 794 0 
L 794 531 
z
" transform="scale(0.015625)"/>
       </defs>
       <use xlink:href="#DejaVuSans-31"/>
       <use xlink:href="#DejaVuSans-30" transform="translate(63.623047 0)"/>
      </g>
     </g>
    </g>
    <g id="xtick_7">
     <g id="line2d_13">
      <path d="M 356.425 303.64 
L 356.425 25.44 
" clip-path="url(#pb5746f64ed)" style="fill: none; stroke: #b0b0b0; stroke-opacity: 0.3; stroke-width: 0.8; stroke-linecap: square"/>
     </g>
     <g id="line2d_14">
      <g>
       <use xlink:href="#m895fdcbb36" x="356.425" y="303.64" style="stroke: #000000; stroke-width: 0.8"/>
      </g>
     </g>
     <g id="text_7">
      <!-- 12 -->
      <g transform="translate(350.0625 318.238437) scale(0.1 -0.1)">
       <use xlink:href="#DejaVuSans-31"/>
       <use xlink:href="#DejaVuSans-32" transform="translate(63.623047 0)"/>
      </g>
     </g>
    </g>
    <g id="xtick_8">
     <g id="line2d_15">
      <path d="M 406.331667 303.64 
L 406.331667 25.44 
" clip-path="url(#pb5746f64ed)" style="fill: none; stroke: #b0b0b0; stroke-opacity: 0.3; stroke-width: 0.8; stroke-linecap: square"/>
     </g>
     <g id="line2d_16">
      <g>
       <use xlink:href="#m895fdcbb36" x="406.331667" y="303.64" style="stroke: #000000; stroke-width: 0.8"/>
      </g>
     </g>
     <g id="text_8">
      <!-- 14 -->
      <g transform="translate(399.969167 318.238437) scale(0.1 -0.1)">
       <use xlink:href="#DejaVuSans-31"/>
       <use xlink:href="#DejaVuSans-34" transform="translate(63.623047 0)"/>
      </g>
     </g>
    </g>
    <g id="text_9">
     <!-- Time (minutes) -->
     <g transform="translate(206.1725 331.916562) scale(0.1 -0.1)">
      <defs>
       <path id="DejaVuSans-54" d="M -19 4666 
L 3928 4666 
L 3928 4134 
L 2272 4134 
L 2272 0 
L 1638 0 
L 1638 4134 
L -19 4134 
L -19 4666 
z
" transform="scale(0.015625)"/>
       <path id="DejaVuSans-69" d="M 603 3500 
L 1178 3500 
L 1178 0 
L 603 0 
L 603 3500 
z
M 603 4863 
L 1178 4863 
L 1178 4134 
L 603 4134 
L 603 4863 
z
" transform="scale(0.015625)"/>
       <path id="DejaVuSans-6d" d="M 3328 2828 
Q 3544 3216 3844 3400 
Q 4144 3584 4550 3584 
Q 5097 3584 5394 3201 
Q 5691 2819 5691 2113 
L 5691 0 
L 5113 0 
L 5113 2094 
Q 5113 2597 4934 2840 
Q 4756 3084 4391 3084 
Q 3944 3084 3684 2787 
Q 3425 2491 3425 1978 
L 3425 0 
L 2847 0 
L 2847 2094 
Q 2847 2600 2669 2842 
Q 2491 3084 2119 3084 
Q 1678 3084 1418 2786 
Q 1159 2488 1159 1978 
L 1159 0 
L 581 0 
L 581 3500 
L 1159 3500 
L 1159 2956 
Q 1356 3278 1631 3431 
Q 1906 3584 2284 3584 
Q 2666 3584 2933 3390 
Q 3200 3197 3328 2828 
z
" transform="scale(0.015625)"/>
       <path id="DejaVuSans-65" d="M 3597 1894 
L 3597 1613 
L 953 1613 
Q 991 1019 1311 708 
Q 1631 397 2203 397 
Q 2534 397 2845 478 
Q 3156 559 3463 722 
L 3463 178 
Q 3153 47 2828 -22 
Q 2503 -91 2169 -91 
Q 1331 -91 842 396 
Q 353 884 353 1716 
Q 353 2575 817 3079 
Q 1281 3584 2069 3584 
Q 2775 3584 3186 3129 
Q 3597 2675 3597 1894 
z
M 3022 2063 
Q 3016 2534 2758 2815 
Q 2500 3097 2075 3097 
Q 1594 3097 1305 2825 
Q 1016 2553 972 2059 
L 3022 2063 
z
" transform="scale(0.015625)"/>
       <path id="DejaVuSans-20" transform="scale(0.015625)"/>
       <path id="DejaVuSans-28" d="M 1984 4856 
Q 1566 4138 1362 3434 
Q 1159 2731 1159 2009 
Q 1159 1288 1364 580 
Q 1569 -128 1984 -844 
L 1484 -844 
Q 1016 -109 783 600 
Q 550 1309 550 2009 
Q 550 2706 781 3412 
Q 1013 4119 1484 4856 
L 1984 4856 
z
" transform="scale(0.015625)"/>
       <path id="DejaVuSans-6e" d="M 3513 2113 
L 3513 0 
L 2938 0 
L 2938 2094 
Q 2938 2591 2744 2837 
Q 2550 3084 2163 3084 
Q 1697 3084 1428 2787 
Q 1159 2491 1159 1978 
L 1159 0 
L 581 0 
L 581 3500 
L 1159 3500 
L 1159 2956 
Q 1366 3272 1645 3428 
Q 1925 3584 2291 3584 
Q 2894 3584 3203 3211 
Q 3513 2838 3513 2113 
z
" transform="scale(0.015625)"/>
       <path id="DejaVuSans-75" d="M 544 1381 
L 544 3500 
L 1119 3500 
L 1119 1403 
Q 1119 906 1312 657 
Q 1506 409 1894 409 
Q 2359 409 2629 706 
Q 2900 1003 2900 1516 
L 2900 3500 
L 3475 3500 
L 3475 0 
L 2900 0 
L 2900 538 
Q 2691 219 2414 64 
Q 2138 -91 1772 -91 
Q 1169 -91 856 284 
Q 544 659 544 1381 
z
M 1991 3584 
L 1991 3584 
z
" transform="scale(0.015625)"/>
       <path id="DejaVuSans-74" d="M 1172 4494 
L 1172 3500 
L 2356 3500 
L 2356 3053 
L 1172 3053 
L 1172 1153 
Q 1172 725 1289 603 
Q 1406 481 1766 481 
L 2356 481 
L 2356 0 
L 1766 0 
Q 1100 0 847 248 
Q 594 497 594 1153 
L 594 3053 
L 172 3053 
L 172 3500 
L 594 3500 
L 594 4494 
L 1172 4494 
z
" transform="scale(0.015625)"/>
       <path id="DejaVuSans-73" d="M 2834 3397 
L 2834 2853 
Q 2591 2978 2328 3040 
Q 2066 3103 1784 3103 
Q 1356 3103 1142 2972 
Q 928 2841 928 2578 
Q 928 2378 1081 2264 
Q 1234 2150 1697 2047 
L 1894 2003 
Q 2506 1872 2764 1633 
Q 3022 1394 3022 966 
Q 3022 478 2636 193 
Q 2250 -91 1575 -91 
Q 1294 -91 989 -36 
Q 684 19 347 128 
L 347 722 
Q 666 556 975 473 
Q 1284 391 1588 391 
Q 1994 391 2212 530 
Q 2431 669 2431 922 
Q 2431 1156 2273 1281 
Q 2116 1406 1581 1522 
L 1381 1569 
Q 847 1681 609 1914 
Q 372 2147 372 2553 
Q 372 3047 722 3315 
Q 1072 3584 1716 3584 
Q 2034 3584 2315 3537 
Q 2597 3491 2834 3397 
z
" transform="scale(0.015625)"/>
       <path id="DejaVuSans-29" d="M 513 4856 
L 1013 4856 
Q 1481 4119 1714 3412 
Q 1947 2706 1947 2009 
Q 1947 1309 1714 600 
Q 1481 -109 1013 -844 
L 513 -844 
Q 928 -128 1133 580 
Q 1338 1288 1338 2009 
Q 1338 2731 1133 3434 
Q 928 4138 513 4856 
z
" transform="scale(0.015625)"/>
      </defs>
      <use xlink:href="#DejaVuSans-54"/>
      <use xlink:href="#DejaVuSans-69" transform="translate(57.958984 0)"/>
      <use xlink:href="#DejaVuSans-6d" transform="translate(85.742188 0)"/>
      <use xlink:href="#DejaVuSans-65" transform="translate(183.154297 0)"/>
      <use xlink:href="#DejaVuSans-20" transform="translate(244.677734 0)"/>
      <use xlink:href="#DejaVuSans-28" transform="translate(276.464844 0)"/>
      <use xlink:href="#DejaVuSans-6d" transform="translate(315.478516 0)"/>
      <use xlink:href="#DejaVuSans-69" transform="translate(412.890625 0)"/>
      <use xlink:href="#DejaVuSans-6e" transform="translate(440.673828 0)"/>
      <use xlink:href="#DejaVuSans-75" transform="translate(504.052734 0)"/>
      <use xlink:href="#DejaVuSans-74" transform="translate(567.431641 0)"/>
      <use xlink:href="#DejaVuSans-65" transform="translate(606.640625 0)"/>
      <use xlink:href="#DejaVuSans-73" transform="translate(668.164062 0)"/>
      <use xlink:href="#DejaVuSans-29" transform="translate(720.263672 0)"/>
     </g>
    </g>
   </g>
   <g id="matplotlib.axis_2">
    <g id="ytick_1">
     <g id="line2d_17">
      <path d="M 38.27 287.722213 
L 450 287.722213 
" clip-path="url(#pb5746f64ed)" style="fill: none; stroke: #b0b0b0; stroke-opacity: 0.3; stroke-width: 0.8; stroke-linecap: square"/>
     </g>
     <g id="line2d_18">
      <defs>
       <path id="m7fcdf35468" d="M 0 0 
L -3.5 0 
" style="stroke: #000000; stroke-width: 0.8"/>
      </defs>
      <g>
       <use xlink:href="#m7fcdf35468" x="38.27" y="287.722213" style="stroke: #000000; stroke-width: 0.8"/>
      </g>
     </g>
     <g id="text_10">
      <!-- 0 -->
      <g transform="translate(24.9075 291.521432) scale(0.1 -0.1)">
       <use xlink:href="#DejaVuSans-30"/>
      </g>
     </g>
    </g>
    <g id="ytick_2">
     <g id="line2d_19">
      <path d="M 38.27 237.530368 
L 450 237.530368 
" clip-path="url(#pb5746f64ed)" style="fill: none; stroke: #b0b0b0; stroke-opacity: 0.3; stroke-width: 0.8; stroke-linecap: square"/>
     </g>
     <g id="line2d_20">
      <g>
       <use xlink:href="#m7fcdf35468" x="38.27" y="237.530368" style="stroke: #000000; stroke-width: 0.8"/>
      </g>
     </g>
     <g id="text_11">
      <!-- 1 -->
      <g transform="translate(24.9075 241.329587) scale(0.1 -0.1)">
       <use xlink:href="#DejaVuSans-31"/>
      </g>
     </g>
    </g>
    <g id="ytick_3">
     <g id="line2d_21">
      <path d="M 38.27 187.338523 
L 450 187.338523 
" clip-path="url(#pb5746f64ed)" style="fill: none; stroke: #b0b0b0; stroke-opacity: 0.3; stroke-width: 0.8; stroke-linecap: square"/>
     </g>
     <g id="line2d_22">
      <g>
       <use xlink:href="#m7fcdf35468" x="38.27" y="187.338523" style="stroke: #000000; stroke-width: 0.8"/>
      </g>
     </g>
     <g id="text_12">
      <!-- 2 -->
      <g transform="translate(24.9075 191.137742) scale(0.1 -0.1)">
       <use xlink:href="#DejaVuSans-32"/>
      </g>
     </g>
    </g>
    <g id="ytick_4">
     <g id="line2d_23">
      <path d="M 38.27 137.146678 
L 450 137.146678 
" clip-path="url(#pb5746f64ed)" style="fill: none; stroke: #b0b0b0; stroke-opacity: 0.3; stroke-width: 0.8; stroke-linecap: square"/>
     </g>
     <g id="line2d_24">
      <g>
       <use xlink:href="#m7fcdf35468" x="38.27" y="137.146678" style="stroke: #000000; stroke-width: 0.8"/>
      </g>
     </g>
     <g id="text_13">
      <!-- 3 -->
      <g transform="translate(24.9075 140.945897) scale(0.1 -0.1)">
       <defs>
        <path id="DejaVuSans-33" d="M 2597 2516 
Q 3050 2419 3304 2112 
Q 3559 1806 3559 1356 
Q 3559 666 3084 287 
Q 2609 -91 1734 -91 
Q 1441 -91 1130 -33 
Q 819 25 488 141 
L 488 750 
Q 750 597 1062 519 
Q 1375 441 1716 441 
Q 2309 441 2620 675 
Q 2931 909 2931 1356 
Q 2931 1769 2642 2001 
Q 2353 2234 1838 2234 
L 1294 2234 
L 1294 2753 
L 1863 2753 
Q 2328 2753 2575 2939 
Q 2822 3125 2822 3475 
Q 2822 3834 2567 4026 
Q 2313 4219 1838 4219 
Q 1578 4219 1281 4162 
Q 984 4106 628 3988 
L 628 4550 
Q 988 4650 1302 4700 
Q 1616 4750 1894 4750 
Q 2613 4750 3031 4423 
Q 3450 4097 3450 3541 
Q 3450 3153 3228 2886 
Q 3006 2619 2597 2516 
z
" transform="scale(0.015625)"/>
       </defs>
       <use xlink:href="#DejaVuSans-33"/>
      </g>
     </g>
    </g>
    <g id="ytick_5">
     <g id="line2d_25">
      <path d="M 38.27 86.954833 
L 450 86.954833 
" clip-path="url(#pb5746f64ed)" style="fill: none; stroke: #b0b0b0; stroke-opacity: 0.3; stroke-width: 0.8; stroke-linecap: square"/>
     </g>
     <g id="line2d_26">
      <g>
       <use xlink:href="#m7fcdf35468" x="38.27" y="86.954833" style="stroke: #000000; stroke-width: 0.8"/>
      </g>
     </g>
     <g id="text_14">
      <!-- 4 -->
      <g transform="translate(24.9075 90.754052) scale(0.1 -0.1)">
       <use xlink:href="#DejaVuSans-34"/>
      </g>
     </g>
    </g>
    <g id="ytick_6">
     <g id="line2d_27">
      <path d="M 38.27 36.762988 
L 450 36.762988 
" clip-path="url(#pb5746f64ed)" style="fill: none; stroke: #b0b0b0; stroke-opacity: 0.3; stroke-width: 0.8; stroke-linecap: square"/>
     </g>
     <g id="line2d_28">
      <g>
       <use xlink:href="#m7fcdf35468" x="38.27" y="36.762988" style="stroke: #000000; stroke-width: 0.8"/>
      </g>
     </g>
     <g id="text_15">
      <!-- 5 -->
      <g transform="translate(24.9075 40.562207) scale(0.1 -0.1)">
       <defs>
        <path id="DejaVuSans-35" d="M 691 4666 
L 3169 4666 
L 3169 4134 
L 1269 4134 
L 1269 2991 
Q 1406 3038 1543 3061 
Q 1681 3084 1819 3084 
Q 2600 3084 3056 2656 
Q 3513 2228 3513 1497 
Q 3513 744 3044 326 
Q 2575 -91 1722 -91 
Q 1428 -91 1123 -41 
Q 819 9 494 109 
L 494 744 
Q 775 591 1075 516 
Q 1375 441 1709 441 
Q 2250 441 2565 725 
Q 2881 1009 2881 1497 
Q 2881 1984 2565 2268 
Q 2250 2553 1709 2553 
Q 1456 2553 1204 2497 
Q 953 2441 691 2322 
L 691 4666 
z
" transform="scale(0.015625)"/>
       </defs>
       <use xlink:href="#DejaVuSans-35"/>
      </g>
     </g>
    </g>
    <g id="text_16">
     <!-- Gaussian filtered EDA (μS) -->
     <g transform="translate(18.827813 230.613437) rotate(-90) scale(0.1 -0.1)">
      <defs>
       <path id="DejaVuSans-47" d="M 3809 666 
L 3809 1919 
L 2778 1919 
L 2778 2438 
L 4434 2438 
L 4434 434 
Q 4069 175 3628 42 
Q 3188 -91 2688 -91 
Q 1594 -91 976 548 
Q 359 1188 359 2328 
Q 359 3472 976 4111 
Q 1594 4750 2688 4750 
Q 3144 4750 3555 4637 
Q 3966 4525 4313 4306 
L 4313 3634 
Q 3963 3931 3569 4081 
Q 3175 4231 2741 4231 
Q 1884 4231 1454 3753 
Q 1025 3275 1025 2328 
Q 1025 1384 1454 906 
Q 1884 428 2741 428 
Q 3075 428 3337 486 
Q 3600 544 3809 666 
z
" transform="scale(0.015625)"/>
       <path id="DejaVuSans-61" d="M 2194 1759 
Q 1497 1759 1228 1600 
Q 959 1441 959 1056 
Q 959 750 1161 570 
Q 1363 391 1709 391 
Q 2188 391 2477 730 
Q 2766 1069 2766 1631 
L 2766 1759 
L 2194 1759 
z
M 3341 1997 
L 3341 0 
L 2766 0 
L 2766 531 
Q 2569 213 2275 61 
Q 1981 -91 1556 -91 
Q 1019 -91 701 211 
Q 384 513 384 1019 
Q 384 1609 779 1909 
Q 1175 2209 1959 2209 
L 2766 2209 
L 2766 2266 
Q 2766 2663 2505 2880 
Q 2244 3097 1772 3097 
Q 1472 3097 1187 3025 
Q 903 2953 641 2809 
L 641 3341 
Q 956 3463 1253 3523 
Q 1550 3584 1831 3584 
Q 2591 3584 2966 3190 
Q 3341 2797 3341 1997 
z
" transform="scale(0.015625)"/>
       <path id="DejaVuSans-66" d="M 2375 4863 
L 2375 4384 
L 1825 4384 
Q 1516 4384 1395 4259 
Q 1275 4134 1275 3809 
L 1275 3500 
L 2222 3500 
L 2222 3053 
L 1275 3053 
L 1275 0 
L 697 0 
L 697 3053 
L 147 3053 
L 147 3500 
L 697 3500 
L 697 3744 
Q 697 4328 969 4595 
Q 1241 4863 1831 4863 
L 2375 4863 
z
" transform="scale(0.015625)"/>
       <path id="DejaVuSans-6c" d="M 603 4863 
L 1178 4863 
L 1178 0 
L 603 0 
L 603 4863 
z
" transform="scale(0.015625)"/>
       <path id="DejaVuSans-72" d="M 2631 2963 
Q 2534 3019 2420 3045 
Q 2306 3072 2169 3072 
Q 1681 3072 1420 2755 
Q 1159 2438 1159 1844 
L 1159 0 
L 581 0 
L 581 3500 
L 1159 3500 
L 1159 2956 
Q 1341 3275 1631 3429 
Q 1922 3584 2338 3584 
Q 2397 3584 2469 3576 
Q 2541 3569 2628 3553 
L 2631 2963 
z
" transform="scale(0.015625)"/>
       <path id="DejaVuSans-64" d="M 2906 2969 
L 2906 4863 
L 3481 4863 
L 3481 0 
L 2906 0 
L 2906 525 
Q 2725 213 2448 61 
Q 2172 -91 1784 -91 
Q 1150 -91 751 415 
Q 353 922 353 1747 
Q 353 2572 751 3078 
Q 1150 3584 1784 3584 
Q 2172 3584 2448 3432 
Q 2725 3281 2906 2969 
z
M 947 1747 
Q 947 1113 1208 752 
Q 1469 391 1925 391 
Q 2381 391 2643 752 
Q 2906 1113 2906 1747 
Q 2906 2381 2643 2742 
Q 2381 3103 1925 3103 
Q 1469 3103 1208 2742 
Q 947 2381 947 1747 
z
" transform="scale(0.015625)"/>
       <path id="DejaVuSans-45" d="M 628 4666 
L 3578 4666 
L 3578 4134 
L 1259 4134 
L 1259 2753 
L 3481 2753 
L 3481 2222 
L 1259 2222 
L 1259 531 
L 3634 531 
L 3634 0 
L 628 0 
L 628 4666 
z
" transform="scale(0.015625)"/>
       <path id="DejaVuSans-44" d="M 1259 4147 
L 1259 519 
L 2022 519 
Q 2988 519 3436 956 
Q 3884 1394 3884 2338 
Q 3884 3275 3436 3711 
Q 2988 4147 2022 4147 
L 1259 4147 
z
M 628 4666 
L 1925 4666 
Q 3281 4666 3915 4102 
Q 4550 3538 4550 2338 
Q 4550 1131 3912 565 
Q 3275 0 1925 0 
L 628 0 
L 628 4666 
z
" transform="scale(0.015625)"/>
       <path id="DejaVuSans-41" d="M 2188 4044 
L 1331 1722 
L 3047 1722 
L 2188 4044 
z
M 1831 4666 
L 2547 4666 
L 4325 0 
L 3669 0 
L 3244 1197 
L 1141 1197 
L 716 0 
L 50 0 
L 1831 4666 
z
" transform="scale(0.015625)"/>
       <path id="DejaVuSans-3bc" d="M 544 -1331 
L 544 3500 
L 1119 3500 
L 1119 1325 
Q 1119 872 1334 640 
Q 1550 409 1972 409 
Q 2434 409 2667 671 
Q 2900 934 2900 1459 
L 2900 3500 
L 3475 3500 
L 3475 806 
Q 3475 619 3529 530 
Q 3584 441 3700 441 
Q 3728 441 3778 458 
Q 3828 475 3916 513 
L 3916 50 
Q 3788 -22 3673 -56 
Q 3559 -91 3450 -91 
Q 3234 -91 3106 31 
Q 2978 153 2931 403 
Q 2775 156 2548 32 
Q 2322 -91 2016 -91 
Q 1697 -91 1473 31 
Q 1250 153 1119 397 
L 1119 -1331 
L 544 -1331 
z
" transform="scale(0.015625)"/>
       <path id="DejaVuSans-53" d="M 3425 4513 
L 3425 3897 
Q 3066 4069 2747 4153 
Q 2428 4238 2131 4238 
Q 1616 4238 1336 4038 
Q 1056 3838 1056 3469 
Q 1056 3159 1242 3001 
Q 1428 2844 1947 2747 
L 2328 2669 
Q 3034 2534 3370 2195 
Q 3706 1856 3706 1288 
Q 3706 609 3251 259 
Q 2797 -91 1919 -91 
Q 1588 -91 1214 -16 
Q 841 59 441 206 
L 441 856 
Q 825 641 1194 531 
Q 1563 422 1919 422 
Q 2459 422 2753 634 
Q 3047 847 3047 1241 
Q 3047 1584 2836 1778 
Q 2625 1972 2144 2069 
L 1759 2144 
Q 1053 2284 737 2584 
Q 422 2884 422 3419 
Q 422 4038 858 4394 
Q 1294 4750 2059 4750 
Q 2388 4750 2728 4690 
Q 3069 4631 3425 4513 
z
" transform="scale(0.015625)"/>
      </defs>
      <use xlink:href="#DejaVuSans-47"/>
      <use xlink:href="#DejaVuSans-61" transform="translate(77.490234 0)"/>
      <use xlink:href="#DejaVuSans-75" transform="translate(138.769531 0)"/>
      <use xlink:href="#DejaVuSans-73" transform="translate(202.148438 0)"/>
      <use xlink:href="#DejaVuSans-73" transform="translate(254.248047 0)"/>
      <use xlink:href="#DejaVuSans-69" transform="translate(306.347656 0)"/>
      <use xlink:href="#DejaVuSans-61" transform="translate(334.130859 0)"/>
      <use xlink:href="#DejaVuSans-6e" transform="translate(395.410156 0)"/>
      <use xlink:href="#DejaVuSans-20" transform="translate(458.789062 0)"/>
      <use xlink:href="#DejaVuSans-66" transform="translate(490.576172 0)"/>
      <use xlink:href="#DejaVuSans-69" transform="translate(525.78125 0)"/>
      <use xlink:href="#DejaVuSans-6c" transform="translate(553.564453 0)"/>
      <use xlink:href="#DejaVuSans-74" transform="translate(581.347656 0)"/>
      <use xlink:href="#DejaVuSans-65" transform="translate(620.556641 0)"/>
      <use xlink:href="#DejaVuSans-72" transform="translate(682.080078 0)"/>
      <use xlink:href="#DejaVuSans-65" transform="translate(720.943359 0)"/>
      <use xlink:href="#DejaVuSans-64" transform="translate(782.466797 0)"/>
      <use xlink:href="#DejaVuSans-20" transform="translate(845.943359 0)"/>
      <use xlink:href="#DejaVuSans-45" transform="translate(877.730469 0)"/>
      <use xlink:href="#DejaVuSans-44" transform="translate(940.914062 0)"/>
      <use xlink:href="#DejaVuSans-41" transform="translate(1016.166016 0)"/>
      <use xlink:href="#DejaVuSans-20" transform="translate(1084.574219 0)"/>
      <use xlink:href="#DejaVuSans-28" transform="translate(1116.361328 0)"/>
      <use xlink:href="#DejaVuSans-3bc" transform="translate(1155.375 0)"/>
      <use xlink:href="#DejaVuSans-53" transform="translate(1218.998047 0)"/>
      <use xlink:href="#DejaVuSans-29" transform="translate(1282.474609 0)"/>
     </g>
    </g>
   </g>
   <g id="line2d_29">
    <path d="M 56.985 101.761368 
L 57.50515 100.584306 
L 58.12933 98.472886 
L 58.85754 95.089969 
L 60.00187 88.501027 
L 61.250231 81.505919 
L 61.874411 79.032223 
L 62.394561 77.778282 
L 62.810681 77.292788 
L 63.226801 77.178712 
L 63.642921 77.316622 
L 64.579191 77.971506 
L 66.763822 79.668724 
L 67.804122 81.039411 
L 68.636362 82.027769 
L 69.260542 82.438535 
L 70.716962 83.028556 
L 71.133082 83.667153 
L 71.549202 84.7786 
L 72.069352 86.959125 
L 72.693533 90.755245 
L 73.525773 97.385246 
L 75.502343 113.649874 
L 76.334583 118.332032 
L 77.270853 122.246304 
L 78.519213 127.526814 
L 79.663544 133.635473 
L 81.119964 141.183962 
L 82.576384 147.241236 
L 84.865044 156.078153 
L 85.489225 157.724734 
L 86.009375 158.533696 
L 86.321465 158.724747 
L 86.633555 158.687383 
L 87.049675 158.314834 
L 87.673855 157.302773 
L 88.402065 156.155055 
L 88.818185 155.855555 
L 89.130275 155.877247 
L 89.442365 156.109892 
L 89.962515 156.867682 
L 91.314906 159.09855 
L 91.731026 159.385826 
L 92.147146 159.442409 
L 92.771326 159.27073 
L 94.331776 158.614878 
L 94.643866 158.174518 
L 94.955956 157.408261 
L 95.372076 155.687533 
L 95.788196 152.998802 
L 96.412376 147.149383 
L 98.076857 130.057993 
L 98.492977 128.382234 
L 98.701037 128.166826 
L 98.909097 128.356808 
L 99.221187 129.335847 
L 99.637307 131.690179 
L 100.469547 138.276877 
L 101.509847 146.19651 
L 102.238057 150.260593 
L 102.966267 153.142574 
L 103.694477 155.187941 
L 105.046868 158.114095 
L 107.855678 164.070598 
L 108.479858 164.657283 
L 109.000008 164.858982 
L 109.624188 164.867068 
L 111.600759 164.723614 
L 112.745089 164.979504 
L 114.305539 165.579602 
L 115.657929 166.326789 
L 116.90629 167.281463 
L 123.044061 172.414201 
L 124.604511 173.323843 
L 127.309291 174.823371 
L 128.557651 175.869563 
L 130.638252 177.663432 
L 131.574522 178.149179 
L 133.655122 179.089103 
L 134.487362 179.816962 
L 135.527663 181.049381 
L 138.440503 184.665565 
L 140.729163 187.010848 
L 142.601704 188.656475 
L 145.514544 191.056665 
L 146.866934 192.620581 
L 148.427385 194.401602 
L 149.571715 195.340045 
L 151.444255 196.829385 
L 153.420825 198.456797 
L 157.686056 201.252376 
L 167.256818 207.439972 
L 170.273688 209.252216 
L 174.434889 211.720357 
L 177.971909 213.695011 
L 179.42833 214.289489 
L 181.19684 214.723288 
L 184.42177 215.524126 
L 186.918491 216.515628 
L 193.056262 218.981697 
L 196.073132 220.484901 
L 198.465823 221.889572 
L 202.210903 224.157859 
L 208.244644 227.211619 
L 216.463016 230.938873 
L 220.936306 233.410425 
L 224.889447 235.09065 
L 228.634528 236.534964 
L 235.188419 238.74893 
L 236.748869 238.88941 
L 238.309319 239.05924 
L 239.245589 239.393534 
L 240.597979 240.159977 
L 244.135 242.278756 
L 245.48739 242.680291 
L 253.081581 244.412375 
L 260.051593 245.604219 
L 260.779803 245.368226 
L 261.508013 244.876587 
L 263.484583 243.332807 
L 264.108763 243.190522 
L 264.836973 243.260005 
L 266.085334 243.658573 
L 267.957874 244.223629 
L 269.102204 244.326395 
L 270.558624 244.183915 
L 271.911014 244.12042 
L 273.471465 244.323851 
L 278.256845 245.192747 
L 281.793866 245.806908 
L 282.938196 245.825587 
L 283.770436 245.632816 
L 284.810737 245.123515 
L 286.059097 244.539444 
L 286.787307 244.483505 
L 287.619547 244.697161 
L 291.676718 246.144435 
L 293.133138 246.414712 
L 294.173438 246.400156 
L 295.421798 246.143819 
L 297.086278 245.802448 
L 298.022549 245.841026 
L 299.270909 246.150159 
L 302.703899 247.110676 
L 304.26435 247.315537 
L 305.92883 247.2879 
L 307.48928 247.035745 
L 308.63361 246.625714 
L 309.673911 245.98689 
L 311.026301 245.136182 
L 311.754511 244.930916 
L 314.043171 244.536381 
L 315.291531 243.772055 
L 316.331832 243.249435 
L 317.476162 242.956304 
L 318.724522 242.599492 
L 319.452732 242.158781 
L 320.076912 241.504822 
L 320.597062 240.654222 
L 321.221242 239.132077 
L 321.845422 236.985769 
L 322.677663 233.27339 
L 326.942893 211.730366 
L 327.567073 206.551671 
L 328.295283 198.558643 
L 329.439614 182.884062 
L 330.792004 164.874418 
L 331.832304 154.012481 
L 332.976634 144.298618 
L 333.600814 140.520529 
L 334.016934 139.047279 
L 334.329024 138.574931 
L 334.537084 138.551975 
L 334.745145 138.736945 
L 335.057235 139.324702 
L 336.201565 141.943771 
L 336.409625 141.993342 
L 336.617685 141.780861 
L 336.929775 140.894148 
L 337.241865 139.26316 
L 337.657985 135.919761 
L 338.282165 128.804414 
L 340.154705 105.664142 
L 341.090976 98.039792 
L 341.923216 90.699097 
L 342.755456 81.042511 
L 344.211876 63.849232 
L 344.940086 57.86515 
L 345.564266 54.454727 
L 346.084416 52.728947 
L 346.500536 51.981356 
L 346.916656 51.687934 
L 347.332777 51.725371 
L 347.852927 52.046651 
L 349.205317 53.26962 
L 349.933527 54.175034 
L 350.661737 55.455785 
L 352.638307 59.613931 
L 353.262487 61.397413 
L 353.886668 63.975955 
L 354.614878 68.055955 
L 356.695478 80.36541 
L 357.527718 83.766583 
L 358.047868 85.17384 
L 358.463988 85.821531 
L 358.880108 86.074466 
L 359.296228 86.041646 
L 360.336529 85.572633 
L 362.105039 84.899761 
L 362.521159 85.04161 
L 362.937279 85.500497 
L 363.457429 86.502762 
L 364.497729 88.701421 
L 364.913849 89.062255 
L 365.225939 89.019447 
L 365.538029 88.714395 
L 365.95415 87.96509 
L 366.68236 86.052379 
L 367.61863 82.914527 
L 368.45087 79.29274 
L 370.32341 70.670111 
L 372.508041 63.20164 
L 372.924161 62.496399 
L 373.132221 62.428044 
L 373.340281 62.573854 
L 373.652371 63.192426 
L 374.068491 64.654115 
L 375.628941 71.038896 
L 376.149091 72.017552 
L 377.501481 73.939077 
L 377.917601 75.240178 
L 378.437752 77.734773 
L 379.061932 82.083015 
L 379.998202 90.566587 
L 380.934472 98.605809 
L 381.454622 101.381055 
L 381.766712 102.10918 
L 381.974772 102.13989 
L 382.182832 101.785205 
L 382.494922 100.518355 
L 382.911042 97.509756 
L 383.431192 91.942454 
L 384.367462 78.960092 
L 385.823883 58.91827 
L 386.656123 50.419184 
L 387.176273 46.857577 
L 387.592393 45.153556 
L 387.904483 44.549505 
L 388.112543 44.441809 
L 388.320603 44.537133 
L 388.632693 44.971941 
L 389.672993 46.776274 
L 389.881053 46.810985 
L 390.089113 46.653398 
L 390.401203 46.041268 
L 390.817324 44.600405 
L 392.273744 38.623633 
L 392.585834 38.14793 
L 392.793894 38.085455 
L 393.001954 38.225526 
L 393.314044 38.793069 
L 393.730164 40.134112 
L 394.354344 43.122603 
L 395.186584 48.354799 
L 396.747034 58.344381 
L 397.267185 60.371054 
L 397.787335 61.549838 
L 398.411515 62.344189 
L 399.035695 63.238552 
L 399.555845 64.423808 
L 401.220325 68.746477 
L 401.636445 69.101265 
L 401.948535 69.110868 
L 402.364655 68.887097 
L 403.092865 68.46751 
L 403.404956 68.550383 
L 403.717046 68.920112 
L 404.133166 69.937101 
L 404.653316 72.012947 
L 406.629886 81.064779 
L 407.150036 82.167659 
L 407.670186 82.765203 
L 408.190336 83.034162 
L 408.710486 83.047082 
L 409.230636 82.800694 
L 409.958847 82.125178 
L 410.583027 81.624908 
L 410.895117 81.566255 
L 411.207207 81.704059 
L 411.519297 82.066687 
L 411.935417 82.910972 
L 412.455567 84.505922 
L 413.183777 87.566109 
L 415.472437 98.131854 
L 415.888558 98.900842 
L 416.200648 99.140738 
L 416.616768 99.13836 
L 417.553038 98.942547 
L 417.865128 99.134259 
L 418.281248 99.704046 
L 418.801398 100.858569 
L 421.298118 107.099631 
L 422.754539 110.361885 
L 423.898869 112.833763 
L 424.419019 113.511429 
L 424.835139 113.716497 
L 425.147229 113.647282 
L 425.563349 113.257842 
L 426.083499 112.366084 
L 427.539919 109.484147 
L 427.956039 109.17746 
L 428.26813 109.185319 
L 428.68425 109.473625 
L 429.41246 110.395188 
L 430.14067 111.179874 
L 430.55679 111.359944 
L 430.97291 111.322541 
L 431.285 111.178193 
L 431.285 111.178193 
" clip-path="url(#pb5746f64ed)" style="fill: none; stroke-dasharray: 1.85,0.8; stroke-dashoffset: 0; stroke: #1f77b4; stroke-width: 0.5"/>
   </g>
   <g id="line2d_30">
    <path d="M 56.985 103.251398 
L 57.50515 98.429285 
L 58.0253 95.639419 
L 58.44142 94.580114 
L 58.75351 94.324331 
L 59.0656 94.42649 
L 59.48172 94.958043 
L 60.938141 97.324939 
L 61.250231 97.317043 
L 61.562321 96.970776 
L 61.978441 96.051417 
L 62.498591 94.314442 
L 63.330831 90.660666 
L 64.995311 83.171027 
L 65.619491 81.374794 
L 66.139641 80.544013 
L 66.555762 80.273327 
L 66.971882 80.316786 
L 67.388002 80.641143 
L 67.908152 81.390945 
L 68.532332 82.710042 
L 69.468602 85.31263 
L 70.716962 89.525265 
L 71.965322 94.581567 
L 73.213683 100.592619 
L 74.566073 108.251868 
L 78.103093 128.932415 
L 79.455484 134.99011 
L 83.824744 152.499525 
L 84.865044 156.050937 
L 85.593255 157.845944 
L 86.113405 158.655335 
L 86.529525 158.97969 
L 86.945645 159.058974 
L 87.465795 158.902297 
L 88.298035 158.328985 
L 89.234305 157.720586 
L 89.754455 157.633209 
L 90.170575 157.790615 
L 90.586695 158.20397 
L 91.210875 159.193672 
L 92.667296 161.650152 
L 93.083416 161.98409 
L 93.395506 162.023684 
L 93.707596 161.840274 
L 94.019686 161.395821 
L 94.435806 160.331401 
L 94.955956 158.1872 
L 95.684166 154.067225 
L 97.868797 140.869352 
L 98.388947 139.086862 
L 98.701037 138.519096 
L 99.013127 138.361735 
L 99.221187 138.466103 
L 99.533277 138.905382 
L 99.949397 139.953341 
L 100.573577 142.313094 
L 101.509847 146.958624 
L 103.174327 155.289208 
L 104.006568 158.322643 
L 104.838808 160.596975 
L 105.671048 162.237856 
L 106.503288 163.370936 
L 107.335528 164.120793 
L 108.167768 164.5856 
L 109.104038 164.857092 
L 110.352399 164.973161 
L 112.745089 165.16101 
L 114.097479 165.518697 
L 115.241809 166.055362 
L 116.38614 166.842492 
L 118.15465 168.375118 
L 121.17152 171.004479 
L 123.356151 172.576025 
L 126.268991 174.335817 
L 128.245561 175.6708 
L 131.158402 178.02226 
L 133.551092 179.786636 
L 135.423633 181.269533 
L 136.671993 182.542892 
L 141.249314 187.59685 
L 145.514544 191.144761 
L 150.299925 196.077176 
L 152.380525 197.68469 
L 155.813516 200.010875 
L 168.817268 208.400385 
L 177.867879 213.659581 
L 179.53236 214.257113 
L 188.062821 216.903848 
L 193.784472 219.297704 
L 196.177162 220.547454 
L 200.130303 222.917927 
L 203.563293 224.879498 
L 208.140614 227.137313 
L 211.989725 228.887278 
L 215.318685 230.379785 
L 218.231526 232.034291 
L 220.624216 233.274864 
L 223.849147 234.63762 
L 230.923188 237.390133 
L 234.252148 238.46249 
L 236.540809 238.970738 
L 239.141559 239.524369 
L 240.389919 240.03503 
L 241.95037 240.968116 
L 244.34306 242.400268 
L 245.69545 242.902449 
L 247.463961 243.298473 
L 255.682332 244.904805 
L 259.531442 245.534644 
L 260.571743 245.435515 
L 261.508013 245.136496 
L 263.276523 244.260504 
L 264.524883 243.748769 
L 265.357123 243.613458 
L 266.293394 243.694056 
L 267.749814 244.088866 
L 269.414294 244.501545 
L 270.662654 244.551433 
L 275.135945 244.494158 
L 276.904455 244.869169 
L 281.273716 245.974919 
L 282.314016 245.880133 
L 283.770436 245.470925 
L 285.642977 244.956045 
L 286.683277 244.898377 
L 287.931637 245.064072 
L 289.804177 245.574758 
L 292.404928 246.251783 
L 293.861348 246.393234 
L 295.109708 246.292581 
L 298.230609 245.92366 
L 299.374939 246.108047 
L 301.143449 246.675071 
L 303.015989 247.209721 
L 304.36838 247.353264 
L 305.8248 247.285012 
L 307.38525 246.987595 
L 309.15376 246.418433 
L 311.338391 245.465398 
L 313.418991 244.594829 
L 314.459291 244.38162 
L 315.395561 244.410803 
L 317.372132 244.622632 
L 317.996312 244.449864 
L 318.620492 244.036411 
L 319.244672 243.309319 
L 319.972882 242.019385 
L 320.805122 240.062226 
L 322.053482 236.465391 
L 324.446173 228.692381 
L 325.278413 225.197514 
L 326.006623 221.171541 
L 326.734833 215.87012 
L 327.463043 208.938148 
L 328.399314 197.461474 
L 331.416184 158.224145 
L 332.040364 153.216142 
L 332.664544 149.843745 
L 333.288724 147.736436 
L 333.808874 146.676494 
L 334.433054 145.915658 
L 335.681415 144.630781 
L 336.201565 143.636745 
L 336.721715 142.17911 
L 337.345895 139.744918 
L 338.074105 135.847159 
L 338.802315 130.674518 
L 339.634555 123.019149 
L 340.570825 112.012244 
L 342.443366 86.145824 
L 343.691726 70.599279 
L 344.523966 62.937049 
L 345.252176 58.353098 
L 345.876356 55.745237 
L 346.396506 54.338557 
L 346.916656 53.495312 
L 347.436807 53.090422 
L 347.956957 52.998806 
L 348.581137 53.131507 
L 349.205317 53.465483 
L 349.829497 54.061734 
L 350.453677 54.98649 
L 351.077857 56.305981 
L 351.806067 58.432643 
L 352.534277 61.291896 
L 353.470548 66.006496 
L 356.279358 80.925379 
L 357.007568 83.379752 
L 357.631748 84.76485 
L 358.255928 85.644556 
L 358.880108 86.173529 
L 359.920409 86.695803 
L 360.752649 87.202632 
L 361.480859 87.949858 
L 363.457429 90.151435 
L 363.977579 90.393045 
L 364.393699 90.382074 
L 364.809819 90.147058 
L 365.225939 89.653098 
L 365.746089 88.686554 
L 366.4743 86.785972 
L 367.41057 83.638438 
L 369.17908 76.663527 
L 370.6355 71.245446 
L 371.57177 68.541428 
L 372.299981 67.111044 
L 372.820131 66.543952 
L 373.236251 66.406114 
L 373.548341 66.504168 
L 373.964461 66.909483 
L 374.380581 67.630753 
L 374.900731 68.980224 
L 375.524911 71.262536 
L 376.253121 74.849303 
L 377.085361 80.182418 
L 378.125661 88.592668 
L 379.686112 101.277821 
L 380.310292 104.839716 
L 380.726412 106.339878 
L 381.038502 106.898255 
L 381.246562 106.965134 
L 381.454622 106.765629 
L 381.766712 105.930638 
L 382.182832 103.876412 
L 382.702982 100.046683 
L 383.535222 91.821864 
L 386.135973 63.971426 
L 386.968213 58.367918 
L 387.696423 54.82085 
L 388.528663 51.855988 
L 389.568963 49.032025 
L 391.649564 44.024868 
L 392.273744 43.138644 
L 392.689864 42.874181 
L 393.001954 42.885615 
L 393.314044 43.10221 
L 393.730164 43.749574 
L 394.146284 44.856304 
L 394.666434 46.886283 
L 395.498674 51.215839 
L 397.995395 65.124504 
L 398.619575 67.14293 
L 399.139725 68.164334 
L 399.659875 68.740955 
L 400.284055 69.054092 
L 401.740475 69.558485 
L 402.260625 70.130347 
L 402.780775 71.123744 
L 403.508986 73.121897 
L 405.069436 78.377992 
L 406.005706 81.108359 
L 406.629886 82.324394 
L 407.150036 82.861994 
L 407.670186 83.069188 
L 408.294366 83.055196 
L 409.438696 82.961411 
L 409.958847 83.178819 
L 410.374967 83.588065 
L 410.791087 84.274838 
L 411.415267 85.853846 
L 412.247507 88.679669 
L 414.536167 96.854865 
L 415.160347 98.217051 
L 415.784528 99.019592 
L 416.408708 99.452589 
L 418.177218 100.401767 
L 418.697368 101.072525 
L 419.217518 102.125215 
L 419.945728 104.233989 
L 422.858569 113.534164 
L 423.378719 114.219806 
L 423.794839 114.402252 
L 424.210959 114.336334 
L 424.835139 113.94008 
L 426.083499 113.029143 
L 426.499619 112.972521 
L 426.915739 113.167643 
L 427.331859 113.691449 
L 427.852009 114.880104 
L 428.47619 116.954022 
L 429.51649 121.378748 
L 431.285 128.966355 
L 431.285 128.966355 
" clip-path="url(#pb5746f64ed)" style="fill: none; stroke: #ff7f0e; stroke-width: 0.5; stroke-linecap: square"/>
   </g>
   <g id="line2d_31">
    <path d="M 56.985 287.722213 
L 57.08903 287.722213 
L 57.19306 287.108742 
L 57.40112 290.090833 
L 57.60918 290.948897 
L 57.71321 290.994545 
L 57.92127 290.737974 
L 58.75351 289.000984 
L 59.0656 287.300823 
L 59.79381 281.976345 
L 60.938141 273.502518 
L 61.458291 271.204353 
L 61.770381 270.556014 
L 61.978441 270.42242 
L 62.186501 270.517147 
L 62.498591 271.055198 
L 62.914711 272.404186 
L 63.538891 275.357358 
L 65.203371 283.668757 
L 65.827551 285.666926 
L 66.347702 286.606035 
L 66.867852 287.122445 
L 67.492032 287.438693 
L 68.012182 287.494759 
L 68.428302 287.109898 
L 68.948452 286.234817 
L 69.572632 284.656622 
L 71.237112 280.126237 
L 71.653232 279.662624 
L 71.965322 279.621191 
L 72.277412 279.849692 
L 72.693533 280.543437 
L 73.317713 282.220906 
L 73.837863 283.972351 
L 74.462043 285.817908 
L 74.982193 286.687718 
L 75.502343 287.16628 
L 75.918463 287.367148 
L 76.126523 287.228735 
L 76.646673 286.533793 
L 77.895033 284.587119 
L 78.311153 284.358964 
L 78.623243 284.397268 
L 79.039364 284.704638 
L 79.663544 285.54503 
L 80.391754 286.69169 
L 81.015934 287.225351 
L 81.744144 287.51413 
L 82.472354 287.584224 
L 83.408624 287.547033 
L 85.177135 287.697836 
L 86.321465 287.626363 
L 86.945645 287.132512 
L 88.402065 285.660297 
L 88.818185 285.626145 
L 89.026245 285.764845 
L 90.274605 287.173033 
L 91.002815 287.491087 
L 91.314906 287.47689 
L 91.835056 286.816386 
L 93.083416 284.925231 
L 93.395506 284.790223 
L 93.811626 284.920298 
L 95.268046 287.087763 
L 95.788196 287.329849 
L 95.996256 286.95891 
L 96.308346 286.004639 
L 96.828496 283.563646 
L 97.868797 278.369722 
L 98.284917 277.402564 
L 98.492977 277.283996 
L 98.701037 277.400891 
L 99.013127 277.987362 
L 99.429247 279.417904 
L 100.157457 282.920031 
L 100.677607 285.018923 
L 101.197757 286.254215 
L 101.717907 286.933412 
L 102.134027 287.208293 
L 102.550147 286.93323 
L 103.486417 285.895384 
L 104.318658 285.07411 
L 104.838808 284.824903 
L 105.254928 284.835465 
L 105.671048 285.038739 
L 106.295228 285.610056 
L 107.751648 287.247122 
L 108.479858 287.522965 
L 109.624188 287.671329 
L 110.248369 287.554985 
L 111.288669 287.444494 
L 112.537029 287.555058 
L 114.097479 287.693848 
L 118.46674 287.721805 
L 125.852871 287.612444 
L 127.309291 287.596956 
L 129.285862 287.709007 
L 131.262432 287.661545 
L 133.551092 286.98369 
L 134.383332 287.052171 
L 134.903482 287.237919 
L 135.839753 287.548891 
L 137.088113 287.683108 
L 139.064683 287.670263 
L 140.417073 287.602114 
L 142.705734 287.713023 
L 149.363655 287.690605 
L 150.716045 287.53317 
L 154.253066 287.718385 
L 175.787279 287.697451 
L 178.388029 287.71918 
L 212.301815 287.721562 
L 236.748869 287.635986 
L 238.517379 287.518386 
L 240.806039 287.705572 
L 244.65515 287.673251 
L 246.42366 287.582758 
L 248.816351 287.712482 
L 259.843533 287.72215 
L 261.091893 287.644566 
L 263.588613 286.937424 
L 264.316823 287.154058 
L 265.253093 287.516309 
L 266.397424 287.669525 
L 268.686084 287.709836 
L 271.286834 287.354625 
L 272.223105 287.489241 
L 273.471465 287.665914 
L 276.072215 287.71968 
L 278.568936 287.621415 
L 280.649536 287.46089 
L 283.354316 287.708502 
L 285.122827 287.63607 
L 286.475217 287.334991 
L 287.411487 287.408292 
L 288.867907 287.656967 
L 291.156568 287.717962 
L 295.629858 287.633654 
L 297.086278 287.606483 
L 299.166879 287.711464 
L 308.84167 287.721175 
L 309.46585 287.587945 
L 310.922271 287.256645 
L 314.043171 287.706674 
L 314.563321 287.620914 
L 317.164072 286.134154 
L 317.892282 286.126394 
L 318.724522 286.387816 
L 319.972882 287.349114 
L 320.805122 287.583636 
L 321.845422 287.64103 
L 322.365573 287.019751 
L 323.093783 285.766227 
L 324.342143 283.538774 
L 324.758263 283.155428 
L 325.174383 283.072024 
L 325.590503 283.29581 
L 326.110653 283.939315 
L 326.838863 285.256585 
L 327.463043 286.446348 
L 327.983193 287.026487 
L 328.607374 287.391763 
L 329.439614 287.60053 
L 330.896034 287.692295 
L 331.416184 287.607276 
L 331.728274 287.26016 
L 332.144394 286.346133 
L 332.768574 284.206961 
L 333.704844 280.96843 
L 334.016934 280.423351 
L 334.224994 280.298453 
L 334.433054 280.377087 
L 334.641115 280.649597 
L 335.057235 281.660049 
L 336.097535 285.606513 
L 336.617685 286.575906 
L 337.033805 287.02486 
L 337.137835 287.004716 
L 337.449925 286.248237 
L 337.866045 284.457709 
L 339.530525 275.960033 
L 339.738585 275.726426 
L 339.946645 275.811259 
L 340.154705 276.212834 
L 340.466795 277.339195 
L 341.090976 280.844978 
L 341.715156 284.206423 
L 342.235306 285.809734 
L 342.755456 286.694029 
L 343.067546 286.916077 
L 343.587696 286.643316 
L 345.460236 285.310187 
L 345.980386 285.33958 
L 346.500536 285.605615 
L 347.436807 286.425321 
L 348.581137 287.319143 
L 349.413377 287.57215 
L 350.765767 287.692593 
L 351.285917 287.657137 
L 351.806067 287.144009 
L 352.326217 286.265499 
L 353.782638 283.492156 
L 354.198758 283.238318 
L 354.510848 283.263582 
L 354.926968 283.523822 
L 355.655178 284.302949 
L 356.591448 285.548796 
L 357.319658 286.708257 
L 357.943838 287.234461 
L 358.672048 287.518081 
L 359.088168 287.549049 
L 360.232499 286.518845 
L 361.064739 285.519139 
L 362.417129 283.623677 
L 362.729219 283.508231 
L 363.041309 283.618587 
L 363.457429 284.105116 
L 364.081609 285.322808 
L 364.705789 286.494087 
L 365.225939 287.053961 
L 365.85012 287.405019 
L 366.68236 287.60545 
L 368.03475 287.69645 
L 368.34684 287.529307 
L 368.97102 286.945341 
L 369.69923 286.307913 
L 370.21938 286.124846 
L 371.15565 285.910256 
L 371.57177 285.525693 
L 372.299981 284.418805 
L 372.820131 283.818801 
L 373.028191 283.753343 
L 373.444311 283.975574 
L 374.796701 286.76994 
L 375.420881 287.268948 
L 375.524911 287.248278 
L 375.837001 286.582534 
L 376.253121 285.055498 
L 376.981331 281.283856 
L 378.125661 275.275248 
L 378.645812 273.672012 
L 378.957902 273.272252 
L 379.165962 273.257833 
L 379.374022 273.443528 
L 379.686112 274.077842 
L 380.102232 275.497485 
L 380.934472 279.495045 
L 381.974772 284.855884 
L 382.494922 286.169369 
L 383.015072 286.888398 
L 383.223132 286.999218 
L 383.535222 286.573668 
L 384.055372 285.351506 
L 385.927913 279.763891 
L 386.656123 277.921734 
L 387.072243 277.406466 
L 387.280303 277.371924 
L 387.488363 277.508177 
L 387.800453 278.045203 
L 388.216573 279.368303 
L 388.632693 281.195897 
L 389.360903 284.651315 
L 389.881053 286.048723 
L 390.401203 286.821943 
L 390.609263 286.798182 
L 390.921354 286.32405 
L 391.545534 284.767558 
L 392.169714 283.38401 
L 392.585834 282.988994 
L 392.897924 283.023602 
L 393.210014 283.305973 
L 393.730164 284.138565 
L 395.290614 286.808446 
L 395.914794 287.285224 
L 396.538974 287.515067 
L 396.747034 287.384489 
L 397.163155 286.694027 
L 397.787335 285.061785 
L 398.411515 283.52065 
L 398.827635 283.026431 
L 399.139725 283.028454 
L 399.451815 283.33537 
L 399.659875 283.673676 
L 400.804205 286.44198 
L 401.324355 287.029761 
L 401.740475 287.289469 
L 401.948535 287.119374 
L 402.364655 286.347787 
L 403.925106 282.634537 
L 404.237196 282.505443 
L 404.549286 282.676879 
L 404.965406 283.289747 
L 406.941976 286.906624 
L 407.566156 287.332963 
L 408.398396 287.578739 
L 409.230636 287.622431 
L 409.750787 287.031398 
L 410.374967 285.914977 
L 411.727357 283.352203 
L 412.247507 282.874538 
L 412.663627 282.783497 
L 413.079747 282.959103 
L 413.495867 283.400285 
L 414.120047 284.509908 
L 414.848257 286.192528 
L 415.368407 286.887188 
L 415.992588 287.325451 
L 416.408708 287.46187 
L 416.824828 287.184511 
L 417.553038 286.738433 
L 417.761098 286.715632 
L 418.281248 287.030861 
L 419.009458 287.411428 
L 419.841698 287.592044 
L 420.153788 287.380083 
L 420.673938 286.753334 
L 422.026329 284.941748 
L 422.442449 284.744055 
L 422.754539 284.779199 
L 423.170659 285.0393 
L 424.627079 287.115999 
L 425.251259 287.43419 
L 425.771409 287.514653 
L 426.187529 286.90517 
L 426.707679 285.706628 
L 427.539919 283.138871 
L 429.41246 277.241549 
L 430.34873 273.878077 
L 431.18097 270.220889 
L 431.285 270.611342 
" clip-path="url(#pb5746f64ed)" style="fill: none; stroke: #2ca02c; stroke-width: 0.5; stroke-linecap: square"/>
   </g>
   <g id="patch_3">
    <path d="M 38.27 303.64 
L 38.27 25.44 
" style="fill: none; stroke: #000000; stroke-width: 0.8; stroke-linejoin: miter; stroke-linecap: square"/>
   </g>
   <g id="patch_4">
    <path d="M 450 303.64 
L 450 25.44 
" style="fill: none; stroke: #000000; stroke-width: 0.8; stroke-linejoin: miter; stroke-linecap: square"/>
   </g>
   <g id="patch_5">
    <path d="M 38.27 303.64 
L 450 303.64 
" style="fill: none; stroke: #000000; stroke-width: 0.8; stroke-linejoin: miter; stroke-linecap: square"/>
   </g>
   <g id="patch_6">
    <path d="M 38.27 25.44 
L 450 25.44 
" style="fill: none; stroke: #000000; stroke-width: 0.8; stroke-linejoin: miter; stroke-linecap: square"/>
   </g>
   <g id="text_17">
    <!-- data_6_E4 Separated EDA plot -->
    <g transform="translate(152.579688 19.44) scale(0.12 -0.12)">
     <defs>
      <path id="DejaVuSans-5f" d="M 3263 -1063 
L 3263 -1509 
L -63 -1509 
L -63 -1063 
L 3263 -1063 
z
" transform="scale(0.015625)"/>
      <path id="DejaVuSans-70" d="M 1159 525 
L 1159 -1331 
L 581 -1331 
L 581 3500 
L 1159 3500 
L 1159 2969 
Q 1341 3281 1617 3432 
Q 1894 3584 2278 3584 
Q 2916 3584 3314 3078 
Q 3713 2572 3713 1747 
Q 3713 922 3314 415 
Q 2916 -91 2278 -91 
Q 1894 -91 1617 61 
Q 1341 213 1159 525 
z
M 3116 1747 
Q 3116 2381 2855 2742 
Q 2594 3103 2138 3103 
Q 1681 3103 1420 2742 
Q 1159 2381 1159 1747 
Q 1159 1113 1420 752 
Q 1681 391 2138 391 
Q 2594 391 2855 752 
Q 3116 1113 3116 1747 
z
" transform="scale(0.015625)"/>
      <path id="DejaVuSans-6f" d="M 1959 3097 
Q 1497 3097 1228 2736 
Q 959 2375 959 1747 
Q 959 1119 1226 758 
Q 1494 397 1959 397 
Q 2419 397 2687 759 
Q 2956 1122 2956 1747 
Q 2956 2369 2687 2733 
Q 2419 3097 1959 3097 
z
M 1959 3584 
Q 2709 3584 3137 3096 
Q 3566 2609 3566 1747 
Q 3566 888 3137 398 
Q 2709 -91 1959 -91 
Q 1206 -91 779 398 
Q 353 888 353 1747 
Q 353 2609 779 3096 
Q 1206 3584 1959 3584 
z
" transform="scale(0.015625)"/>
     </defs>
     <use xlink:href="#DejaVuSans-64"/>
     <use xlink:href="#DejaVuSans-61" transform="translate(63.476562 0)"/>
     <use xlink:href="#DejaVuSans-74" transform="translate(124.755859 0)"/>
     <use xlink:href="#DejaVuSans-61" transform="translate(163.964844 0)"/>
     <use xlink:href="#DejaVuSans-5f" transform="translate(225.244141 0)"/>
     <use xlink:href="#DejaVuSans-36" transform="translate(275.244141 0)"/>
     <use xlink:href="#DejaVuSans-5f" transform="translate(338.867188 0)"/>
     <use xlink:href="#DejaVuSans-45" transform="translate(388.867188 0)"/>
     <use xlink:href="#DejaVuSans-34" transform="translate(452.050781 0)"/>
     <use xlink:href="#DejaVuSans-20" transform="translate(515.673828 0)"/>
     <use xlink:href="#DejaVuSans-53" transform="translate(547.460938 0)"/>
     <use xlink:href="#DejaVuSans-65" transform="translate(610.9375 0)"/>
     <use xlink:href="#DejaVuSans-70" transform="translate(672.460938 0)"/>
     <use xlink:href="#DejaVuSans-61" transform="translate(735.9375 0)"/>
     <use xlink:href="#DejaVuSans-72" transform="translate(797.216797 0)"/>
     <use xlink:href="#DejaVuSans-61" transform="translate(838.330078 0)"/>
     <use xlink:href="#DejaVuSans-74" transform="translate(899.609375 0)"/>
     <use xlink:href="#DejaVuSans-65" transform="translate(938.818359 0)"/>
     <use xlink:href="#DejaVuSans-64" transform="translate(1000.341797 0)"/>
     <use xlink:href="#DejaVuSans-20" transform="translate(1063.818359 0)"/>
     <use xlink:href="#DejaVuSans-45" transform="translate(1095.605469 0)"/>
     <use xlink:href="#DejaVuSans-44" transform="translate(1158.789062 0)"/>
     <use xlink:href="#DejaVuSans-41" transform="translate(1234.041016 0)"/>
     <use xlink:href="#DejaVuSans-20" transform="translate(1302.449219 0)"/>
     <use xlink:href="#DejaVuSans-70" transform="translate(1334.236328 0)"/>
     <use xlink:href="#DejaVuSans-6c" transform="translate(1397.712891 0)"/>
     <use xlink:href="#DejaVuSans-6f" transform="translate(1425.496094 0)"/>
     <use xlink:href="#DejaVuSans-74" transform="translate(1486.677734 0)"/>
    </g>
   </g>
   <g id="legend_1">
    <g id="patch_7">
     <path d="M 350.09375 188.057187 
L 443 188.057187 
Q 445 188.057187 445 186.057187 
L 445 143.022812 
Q 445 141.022812 443 141.022812 
L 350.09375 141.022812 
Q 348.09375 141.022812 348.09375 143.022812 
L 348.09375 186.057187 
Q 348.09375 188.057187 350.09375 188.057187 
z
" style="fill: #ffffff; opacity: 0.8; stroke: #cccccc; stroke-linejoin: miter"/>
    </g>
    <g id="line2d_32">
     <path d="M 352.09375 149.12125 
L 362.09375 149.12125 
L 372.09375 149.12125 
" style="fill: none; stroke-dasharray: 1.85,0.8; stroke-dashoffset: 0; stroke: #1f77b4; stroke-width: 0.5"/>
    </g>
    <g id="text_18">
     <!-- Filtered EDA -->
     <g transform="translate(380.09375 152.62125) scale(0.1 -0.1)">
      <defs>
       <path id="DejaVuSans-46" d="M 628 4666 
L 3309 4666 
L 3309 4134 
L 1259 4134 
L 1259 2759 
L 3109 2759 
L 3109 2228 
L 1259 2228 
L 1259 0 
L 628 0 
L 628 4666 
z
" transform="scale(0.015625)"/>
      </defs>
      <use xlink:href="#DejaVuSans-46"/>
      <use xlink:href="#DejaVuSans-69" transform="translate(50.269531 0)"/>
      <use xlink:href="#DejaVuSans-6c" transform="translate(78.052734 0)"/>
      <use xlink:href="#DejaVuSans-74" transform="translate(105.835938 0)"/>
      <use xlink:href="#DejaVuSans-65" transform="translate(145.044922 0)"/>
      <use xlink:href="#DejaVuSans-72" transform="translate(206.568359 0)"/>
      <use xlink:href="#DejaVuSans-65" transform="translate(245.431641 0)"/>
      <use xlink:href="#DejaVuSans-64" transform="translate(306.955078 0)"/>
      <use xlink:href="#DejaVuSans-20" transform="translate(370.431641 0)"/>
      <use xlink:href="#DejaVuSans-45" transform="translate(402.21875 0)"/>
      <use xlink:href="#DejaVuSans-44" transform="translate(465.402344 0)"/>
      <use xlink:href="#DejaVuSans-41" transform="translate(540.654297 0)"/>
     </g>
    </g>
    <g id="line2d_33">
     <path d="M 352.09375 163.799375 
L 362.09375 163.799375 
L 372.09375 163.799375 
" style="fill: none; stroke: #ff7f0e; stroke-width: 0.5; stroke-linecap: square"/>
    </g>
    <g id="text_19">
     <!-- Tonic -->
     <g transform="translate(380.09375 167.299375) scale(0.1 -0.1)">
      <defs>
       <path id="DejaVuSans-63" d="M 3122 3366 
L 3122 2828 
Q 2878 2963 2633 3030 
Q 2388 3097 2138 3097 
Q 1578 3097 1268 2742 
Q 959 2388 959 1747 
Q 959 1106 1268 751 
Q 1578 397 2138 397 
Q 2388 397 2633 464 
Q 2878 531 3122 666 
L 3122 134 
Q 2881 22 2623 -34 
Q 2366 -91 2075 -91 
Q 1284 -91 818 406 
Q 353 903 353 1747 
Q 353 2603 823 3093 
Q 1294 3584 2113 3584 
Q 2378 3584 2631 3529 
Q 2884 3475 3122 3366 
z
" transform="scale(0.015625)"/>
      </defs>
      <use xlink:href="#DejaVuSans-54"/>
      <use xlink:href="#DejaVuSans-6f" transform="translate(44.083984 0)"/>
      <use xlink:href="#DejaVuSans-6e" transform="translate(105.265625 0)"/>
      <use xlink:href="#DejaVuSans-69" transform="translate(168.644531 0)"/>
      <use xlink:href="#DejaVuSans-63" transform="translate(196.427734 0)"/>
     </g>
    </g>
    <g id="line2d_34">
     <path d="M 352.09375 178.4775 
L 362.09375 178.4775 
L 372.09375 178.4775 
" style="fill: none; stroke: #2ca02c; stroke-width: 0.5; stroke-linecap: square"/>
    </g>
    <g id="text_20">
     <!-- Phasic -->
     <g transform="translate(380.09375 181.9775) scale(0.1 -0.1)">
      <defs>
       <path id="DejaVuSans-50" d="M 1259 4147 
L 1259 2394 
L 2053 2394 
Q 2494 2394 2734 2622 
Q 2975 2850 2975 3272 
Q 2975 3691 2734 3919 
Q 2494 4147 2053 4147 
L 1259 4147 
z
M 628 4666 
L 2053 4666 
Q 2838 4666 3239 4311 
Q 3641 3956 3641 3272 
Q 3641 2581 3239 2228 
Q 2838 1875 2053 1875 
L 1259 1875 
L 1259 0 
L 628 0 
L 628 4666 
z
" transform="scale(0.015625)"/>
       <path id="DejaVuSans-68" d="M 3513 2113 
L 3513 0 
L 2938 0 
L 2938 2094 
Q 2938 2591 2744 2837 
Q 2550 3084 2163 3084 
Q 1697 3084 1428 2787 
Q 1159 2491 1159 1978 
L 1159 0 
L 581 0 
L 581 4863 
L 1159 4863 
L 1159 2956 
Q 1366 3272 1645 3428 
Q 1925 3584 2291 3584 
Q 2894 3584 3203 3211 
Q 3513 2838 3513 2113 
z
" transform="scale(0.015625)"/>
      </defs>
      <use xlink:href="#DejaVuSans-50"/>
      <use xlink:href="#DejaVuSans-68" transform="translate(60.302734 0)"/>
      <use xlink:href="#DejaVuSans-61" transform="translate(123.681641 0)"/>
      <use xlink:href="#DejaVuSans-73" transform="translate(184.960938 0)"/>
      <use xlink:href="#DejaVuSans-69" transform="translate(237.060547 0)"/>
      <use xlink:href="#DejaVuSans-63" transform="translate(264.84375 0)"/>
     </g>
    </g>
   </g>
  </g>
 </g>
 <defs>
  <clipPath id="pb5746f64ed">
   <rect x="38.27" y="25.44" width="411.73" height="278.2"/>
  </clipPath>
 </defs>
</svg>
