<?xml version="1.0" encoding="utf-8" standalone="no"?>
<!DOCTYPE svg PUBLIC "-//W3C//DTD SVG 1.1//EN"
  "http://www.w3.org/Graphics/SVG/1.1/DTD/svg11.dtd">
<svg xmlns:xlink="http://www.w3.org/1999/xlink" width="460.8pt" height="345.6pt" viewBox="0 0 460.8 345.6" xmlns="http://www.w3.org/2000/svg" version="1.1">
 <metadata>
  <rdf:RDF xmlns:dc="http://purl.org/dc/elements/1.1/" xmlns:cc="http://creativecommons.org/ns#" xmlns:rdf="http://www.w3.org/1999/02/22-rdf-syntax-ns#">
   <cc:Work>
    <dc:type rdf:resource="http://purl.org/dc/dcmitype/StillImage"/>
    <dc:date>2025-09-22T15:39:36.281323</dc:date>
    <dc:format>image/svg+xml</dc:format>
    <dc:creator>
     <cc:Agent>
      <dc:title>Matplotlib v3.10.0, https://matplotlib.org/</dc:title>
     </cc:Agent>
    </dc:creator>
   </cc:Work>
  </rdf:RDF>
 </metadata>
 <defs>
  <style type="text/css">*{stroke-linejoin: round; stroke-linecap: butt}</style>
 </defs>
 <g id="figure_1">
  <g id="patch_1">
   <path d="M 0 345.6 
L 460.8 345.6 
L 460.8 0 
L 0 0 
z
" style="fill: #ffffff"/>
  </g>
  <g id="axes_1">
   <g id="patch_2">
    <path d="M 38.27 303.64 
L 450 303.64 
L 450 25.44 
L 38.27 25.44 
z
" style="fill: #ffffff"/>
   </g>
   <g id="matplotlib.axis_1">
    <g id="xtick_1">
     <g id="line2d_1">
      <path d="M 56.985 303.64 
L 56.985 25.44 
" clip-path="url(#pcb73470484)" style="fill: none; stroke: #b0b0b0; stroke-opacity: 0.3; stroke-width: 0.8; stroke-linecap: square"/>
     </g>
     <g id="line2d_2">
      <defs>
       <path id="m84a5985733" d="M 0 0 
L 0 3.5 
" style="stroke: #000000; stroke-width: 0.8"/>
      </defs>
      <g>
       <use xlink:href="#m84a5985733" x="56.985" y="303.64" style="stroke: #000000; stroke-width: 0.8"/>
      </g>
     </g>
     <g id="text_1">
      <!-- 0 -->
      <g transform="translate(53.80375 318.238437) scale(0.1 -0.1)">
       <defs>
        <path id="DejaVuSans-30" d="M 2034 4250 
Q 1547 4250 1301 3770 
Q 1056 3291 1056 2328 
Q 1056 1369 1301 889 
Q 1547 409 2034 409 
Q 2525 409 2770 889 
Q 3016 1369 3016 2328 
Q 3016 3291 2770 3770 
Q 2525 4250 2034 4250 
z
M 2034 4750 
Q 2819 4750 3233 4129 
Q 3647 3509 3647 2328 
Q 3647 1150 3233 529 
Q 2819 -91 2034 -91 
Q 1250 -91 836 529 
Q 422 1150 422 2328 
Q 422 3509 836 4129 
Q 1250 4750 2034 4750 
z
" transform="scale(0.015625)"/>
       </defs>
       <use xlink:href="#DejaVuSans-30"/>
      </g>
     </g>
    </g>
    <g id="xtick_2">
     <g id="line2d_3">
      <path d="M 106.891667 303.64 
L 106.891667 25.44 
" clip-path="url(#pcb73470484)" style="fill: none; stroke: #b0b0b0; stroke-opacity: 0.3; stroke-width: 0.8; stroke-linecap: square"/>
     </g>
     <g id="line2d_4">
      <g>
       <use xlink:href="#m84a5985733" x="106.891667" y="303.64" style="stroke: #000000; stroke-width: 0.8"/>
      </g>
     </g>
     <g id="text_2">
      <!-- 2 -->
      <g transform="translate(103.710417 318.238437) scale(0.1 -0.1)">
       <defs>
        <path id="DejaVuSans-32" d="M 1228 531 
L 3431 531 
L 3431 0 
L 469 0 
L 469 531 
Q 828 903 1448 1529 
Q 2069 2156 2228 2338 
Q 2531 2678 2651 2914 
Q 2772 3150 2772 3378 
Q 2772 3750 2511 3984 
Q 2250 4219 1831 4219 
Q 1534 4219 1204 4116 
Q 875 4013 500 3803 
L 500 4441 
Q 881 4594 1212 4672 
Q 1544 4750 1819 4750 
Q 2544 4750 2975 4387 
Q 3406 4025 3406 3419 
Q 3406 3131 3298 2873 
Q 3191 2616 2906 2266 
Q 2828 2175 2409 1742 
Q 1991 1309 1228 531 
z
" transform="scale(0.015625)"/>
       </defs>
       <use xlink:href="#DejaVuSans-32"/>
      </g>
     </g>
    </g>
    <g id="xtick_3">
     <g id="line2d_5">
      <path d="M 156.798333 303.64 
L 156.798333 25.44 
" clip-path="url(#pcb73470484)" style="fill: none; stroke: #b0b0b0; stroke-opacity: 0.3; stroke-width: 0.8; stroke-linecap: square"/>
     </g>
     <g id="line2d_6">
      <g>
       <use xlink:href="#m84a5985733" x="156.798333" y="303.64" style="stroke: #000000; stroke-width: 0.8"/>
      </g>
     </g>
     <g id="text_3">
      <!-- 4 -->
      <g transform="translate(153.617083 318.238437) scale(0.1 -0.1)">
       <defs>
        <path id="DejaVuSans-34" d="M 2419 4116 
L 825 1625 
L 2419 1625 
L 2419 4116 
z
M 2253 4666 
L 3047 4666 
L 3047 1625 
L 3713 1625 
L 3713 1100 
L 3047 1100 
L 3047 0 
L 2419 0 
L 2419 1100 
L 313 1100 
L 313 1709 
L 2253 4666 
z
" transform="scale(0.015625)"/>
       </defs>
       <use xlink:href="#DejaVuSans-34"/>
      </g>
     </g>
    </g>
    <g id="xtick_4">
     <g id="line2d_7">
      <path d="M 206.705 303.64 
L 206.705 25.44 
" clip-path="url(#pcb73470484)" style="fill: none; stroke: #b0b0b0; stroke-opacity: 0.3; stroke-width: 0.8; stroke-linecap: square"/>
     </g>
     <g id="line2d_8">
      <g>
       <use xlink:href="#m84a5985733" x="206.705" y="303.64" style="stroke: #000000; stroke-width: 0.8"/>
      </g>
     </g>
     <g id="text_4">
      <!-- 6 -->
      <g transform="translate(203.52375 318.238437) scale(0.1 -0.1)">
       <defs>
        <path id="DejaVuSans-36" d="M 2113 2584 
Q 1688 2584 1439 2293 
Q 1191 2003 1191 1497 
Q 1191 994 1439 701 
Q 1688 409 2113 409 
Q 2538 409 2786 701 
Q 3034 994 3034 1497 
Q 3034 2003 2786 2293 
Q 2538 2584 2113 2584 
z
M 3366 4563 
L 3366 3988 
Q 3128 4100 2886 4159 
Q 2644 4219 2406 4219 
Q 1781 4219 1451 3797 
Q 1122 3375 1075 2522 
Q 1259 2794 1537 2939 
Q 1816 3084 2150 3084 
Q 2853 3084 3261 2657 
Q 3669 2231 3669 1497 
Q 3669 778 3244 343 
Q 2819 -91 2113 -91 
Q 1303 -91 875 529 
Q 447 1150 447 2328 
Q 447 3434 972 4092 
Q 1497 4750 2381 4750 
Q 2619 4750 2861 4703 
Q 3103 4656 3366 4563 
z
" transform="scale(0.015625)"/>
       </defs>
       <use xlink:href="#DejaVuSans-36"/>
      </g>
     </g>
    </g>
    <g id="xtick_5">
     <g id="line2d_9">
      <path d="M 256.611667 303.64 
L 256.611667 25.44 
" clip-path="url(#pcb73470484)" style="fill: none; stroke: #b0b0b0; stroke-opacity: 0.3; stroke-width: 0.8; stroke-linecap: square"/>
     </g>
     <g id="line2d_10">
      <g>
       <use xlink:href="#m84a5985733" x="256.611667" y="303.64" style="stroke: #000000; stroke-width: 0.8"/>
      </g>
     </g>
     <g id="text_5">
      <!-- 8 -->
      <g transform="translate(253.430417 318.238437) scale(0.1 -0.1)">
       <defs>
        <path id="DejaVuSans-38" d="M 2034 2216 
Q 1584 2216 1326 1975 
Q 1069 1734 1069 1313 
Q 1069 891 1326 650 
Q 1584 409 2034 409 
Q 2484 409 2743 651 
Q 3003 894 3003 1313 
Q 3003 1734 2745 1975 
Q 2488 2216 2034 2216 
z
M 1403 2484 
Q 997 2584 770 2862 
Q 544 3141 544 3541 
Q 544 4100 942 4425 
Q 1341 4750 2034 4750 
Q 2731 4750 3128 4425 
Q 3525 4100 3525 3541 
Q 3525 3141 3298 2862 
Q 3072 2584 2669 2484 
Q 3125 2378 3379 2068 
Q 3634 1759 3634 1313 
Q 3634 634 3220 271 
Q 2806 -91 2034 -91 
Q 1263 -91 848 271 
Q 434 634 434 1313 
Q 434 1759 690 2068 
Q 947 2378 1403 2484 
z
M 1172 3481 
Q 1172 3119 1398 2916 
Q 1625 2713 2034 2713 
Q 2441 2713 2670 2916 
Q 2900 3119 2900 3481 
Q 2900 3844 2670 4047 
Q 2441 4250 2034 4250 
Q 1625 4250 1398 4047 
Q 1172 3844 1172 3481 
z
" transform="scale(0.015625)"/>
       </defs>
       <use xlink:href="#DejaVuSans-38"/>
      </g>
     </g>
    </g>
    <g id="xtick_6">
     <g id="line2d_11">
      <path d="M 306.518333 303.64 
L 306.518333 25.44 
" clip-path="url(#pcb73470484)" style="fill: none; stroke: #b0b0b0; stroke-opacity: 0.3; stroke-width: 0.8; stroke-linecap: square"/>
     </g>
     <g id="line2d_12">
      <g>
       <use xlink:href="#m84a5985733" x="306.518333" y="303.64" style="stroke: #000000; stroke-width: 0.8"/>
      </g>
     </g>
     <g id="text_6">
      <!-- 10 -->
      <g transform="translate(300.155833 318.238437) scale(0.1 -0.1)">
       <defs>
        <path id="DejaVuSans-31" d="M 794 531 
L 1825 531 
L 1825 4091 
L 703 3866 
L 703 4441 
L 1819 4666 
L 2450 4666 
L 2450 531 
L 3481 531 
L 3481 0 
L 794 0 
L 794 531 
z
" transform="scale(0.015625)"/>
       </defs>
       <use xlink:href="#DejaVuSans-31"/>
       <use xlink:href="#DejaVuSans-30" transform="translate(63.623047 0)"/>
      </g>
     </g>
    </g>
    <g id="xtick_7">
     <g id="line2d_13">
      <path d="M 356.425 303.64 
L 356.425 25.44 
" clip-path="url(#pcb73470484)" style="fill: none; stroke: #b0b0b0; stroke-opacity: 0.3; stroke-width: 0.8; stroke-linecap: square"/>
     </g>
     <g id="line2d_14">
      <g>
       <use xlink:href="#m84a5985733" x="356.425" y="303.64" style="stroke: #000000; stroke-width: 0.8"/>
      </g>
     </g>
     <g id="text_7">
      <!-- 12 -->
      <g transform="translate(350.0625 318.238437) scale(0.1 -0.1)">
       <use xlink:href="#DejaVuSans-31"/>
       <use xlink:href="#DejaVuSans-32" transform="translate(63.623047 0)"/>
      </g>
     </g>
    </g>
    <g id="xtick_8">
     <g id="line2d_15">
      <path d="M 406.331667 303.64 
L 406.331667 25.44 
" clip-path="url(#pcb73470484)" style="fill: none; stroke: #b0b0b0; stroke-opacity: 0.3; stroke-width: 0.8; stroke-linecap: square"/>
     </g>
     <g id="line2d_16">
      <g>
       <use xlink:href="#m84a5985733" x="406.331667" y="303.64" style="stroke: #000000; stroke-width: 0.8"/>
      </g>
     </g>
     <g id="text_8">
      <!-- 14 -->
      <g transform="translate(399.969167 318.238437) scale(0.1 -0.1)">
       <use xlink:href="#DejaVuSans-31"/>
       <use xlink:href="#DejaVuSans-34" transform="translate(63.623047 0)"/>
      </g>
     </g>
    </g>
    <g id="text_9">
     <!-- Time (minutes) -->
     <g transform="translate(206.1725 331.916562) scale(0.1 -0.1)">
      <defs>
       <path id="DejaVuSans-54" d="M -19 4666 
L 3928 4666 
L 3928 4134 
L 2272 4134 
L 2272 0 
L 1638 0 
L 1638 4134 
L -19 4134 
L -19 4666 
z
" transform="scale(0.015625)"/>
       <path id="DejaVuSans-69" d="M 603 3500 
L 1178 3500 
L 1178 0 
L 603 0 
L 603 3500 
z
M 603 4863 
L 1178 4863 
L 1178 4134 
L 603 4134 
L 603 4863 
z
" transform="scale(0.015625)"/>
       <path id="DejaVuSans-6d" d="M 3328 2828 
Q 3544 3216 3844 3400 
Q 4144 3584 4550 3584 
Q 5097 3584 5394 3201 
Q 5691 2819 5691 2113 
L 5691 0 
L 5113 0 
L 5113 2094 
Q 5113 2597 4934 2840 
Q 4756 3084 4391 3084 
Q 3944 3084 3684 2787 
Q 3425 2491 3425 1978 
L 3425 0 
L 2847 0 
L 2847 2094 
Q 2847 2600 2669 2842 
Q 2491 3084 2119 3084 
Q 1678 3084 1418 2786 
Q 1159 2488 1159 1978 
L 1159 0 
L 581 0 
L 581 3500 
L 1159 3500 
L 1159 2956 
Q 1356 3278 1631 3431 
Q 1906 3584 2284 3584 
Q 2666 3584 2933 3390 
Q 3200 3197 3328 2828 
z
" transform="scale(0.015625)"/>
       <path id="DejaVuSans-65" d="M 3597 1894 
L 3597 1613 
L 953 1613 
Q 991 1019 1311 708 
Q 1631 397 2203 397 
Q 2534 397 2845 478 
Q 3156 559 3463 722 
L 3463 178 
Q 3153 47 2828 -22 
Q 2503 -91 2169 -91 
Q 1331 -91 842 396 
Q 353 884 353 1716 
Q 353 2575 817 3079 
Q 1281 3584 2069 3584 
Q 2775 3584 3186 3129 
Q 3597 2675 3597 1894 
z
M 3022 2063 
Q 3016 2534 2758 2815 
Q 2500 3097 2075 3097 
Q 1594 3097 1305 2825 
Q 1016 2553 972 2059 
L 3022 2063 
z
" transform="scale(0.015625)"/>
       <path id="DejaVuSans-20" transform="scale(0.015625)"/>
       <path id="DejaVuSans-28" d="M 1984 4856 
Q 1566 4138 1362 3434 
Q 1159 2731 1159 2009 
Q 1159 1288 1364 580 
Q 1569 -128 1984 -844 
L 1484 -844 
Q 1016 -109 783 600 
Q 550 1309 550 2009 
Q 550 2706 781 3412 
Q 1013 4119 1484 4856 
L 1984 4856 
z
" transform="scale(0.015625)"/>
       <path id="DejaVuSans-6e" d="M 3513 2113 
L 3513 0 
L 2938 0 
L 2938 2094 
Q 2938 2591 2744 2837 
Q 2550 3084 2163 3084 
Q 1697 3084 1428 2787 
Q 1159 2491 1159 1978 
L 1159 0 
L 581 0 
L 581 3500 
L 1159 3500 
L 1159 2956 
Q 1366 3272 1645 3428 
Q 1925 3584 2291 3584 
Q 2894 3584 3203 3211 
Q 3513 2838 3513 2113 
z
" transform="scale(0.015625)"/>
       <path id="DejaVuSans-75" d="M 544 1381 
L 544 3500 
L 1119 3500 
L 1119 1403 
Q 1119 906 1312 657 
Q 1506 409 1894 409 
Q 2359 409 2629 706 
Q 2900 1003 2900 1516 
L 2900 3500 
L 3475 3500 
L 3475 0 
L 2900 0 
L 2900 538 
Q 2691 219 2414 64 
Q 2138 -91 1772 -91 
Q 1169 -91 856 284 
Q 544 659 544 1381 
z
M 1991 3584 
L 1991 3584 
z
" transform="scale(0.015625)"/>
       <path id="DejaVuSans-74" d="M 1172 4494 
L 1172 3500 
L 2356 3500 
L 2356 3053 
L 1172 3053 
L 1172 1153 
Q 1172 725 1289 603 
Q 1406 481 1766 481 
L 2356 481 
L 2356 0 
L 1766 0 
Q 1100 0 847 248 
Q 594 497 594 1153 
L 594 3053 
L 172 3053 
L 172 3500 
L 594 3500 
L 594 4494 
L 1172 4494 
z
" transform="scale(0.015625)"/>
       <path id="DejaVuSans-73" d="M 2834 3397 
L 2834 2853 
Q 2591 2978 2328 3040 
Q 2066 3103 1784 3103 
Q 1356 3103 1142 2972 
Q 928 2841 928 2578 
Q 928 2378 1081 2264 
Q 1234 2150 1697 2047 
L 1894 2003 
Q 2506 1872 2764 1633 
Q 3022 1394 3022 966 
Q 3022 478 2636 193 
Q 2250 -91 1575 -91 
Q 1294 -91 989 -36 
Q 684 19 347 128 
L 347 722 
Q 666 556 975 473 
Q 1284 391 1588 391 
Q 1994 391 2212 530 
Q 2431 669 2431 922 
Q 2431 1156 2273 1281 
Q 2116 1406 1581 1522 
L 1381 1569 
Q 847 1681 609 1914 
Q 372 2147 372 2553 
Q 372 3047 722 3315 
Q 1072 3584 1716 3584 
Q 2034 3584 2315 3537 
Q 2597 3491 2834 3397 
z
" transform="scale(0.015625)"/>
       <path id="DejaVuSans-29" d="M 513 4856 
L 1013 4856 
Q 1481 4119 1714 3412 
Q 1947 2706 1947 2009 
Q 1947 1309 1714 600 
Q 1481 -109 1013 -844 
L 513 -844 
Q 928 -128 1133 580 
Q 1338 1288 1338 2009 
Q 1338 2731 1133 3434 
Q 928 4138 513 4856 
z
" transform="scale(0.015625)"/>
      </defs>
      <use xlink:href="#DejaVuSans-54"/>
      <use xlink:href="#DejaVuSans-69" transform="translate(57.958984 0)"/>
      <use xlink:href="#DejaVuSans-6d" transform="translate(85.742188 0)"/>
      <use xlink:href="#DejaVuSans-65" transform="translate(183.154297 0)"/>
      <use xlink:href="#DejaVuSans-20" transform="translate(244.677734 0)"/>
      <use xlink:href="#DejaVuSans-28" transform="translate(276.464844 0)"/>
      <use xlink:href="#DejaVuSans-6d" transform="translate(315.478516 0)"/>
      <use xlink:href="#DejaVuSans-69" transform="translate(412.890625 0)"/>
      <use xlink:href="#DejaVuSans-6e" transform="translate(440.673828 0)"/>
      <use xlink:href="#DejaVuSans-75" transform="translate(504.052734 0)"/>
      <use xlink:href="#DejaVuSans-74" transform="translate(567.431641 0)"/>
      <use xlink:href="#DejaVuSans-65" transform="translate(606.640625 0)"/>
      <use xlink:href="#DejaVuSans-73" transform="translate(668.164062 0)"/>
      <use xlink:href="#DejaVuSans-29" transform="translate(720.263672 0)"/>
     </g>
    </g>
   </g>
   <g id="matplotlib.axis_2">
    <g id="ytick_1">
     <g id="line2d_17">
      <path d="M 38.27 287.591851 
L 450 287.591851 
" clip-path="url(#pcb73470484)" style="fill: none; stroke: #b0b0b0; stroke-opacity: 0.3; stroke-width: 0.8; stroke-linecap: square"/>
     </g>
     <g id="line2d_18">
      <defs>
       <path id="me8cc29ef96" d="M 0 0 
L -3.5 0 
" style="stroke: #000000; stroke-width: 0.8"/>
      </defs>
      <g>
       <use xlink:href="#me8cc29ef96" x="38.27" y="287.591851" style="stroke: #000000; stroke-width: 0.8"/>
      </g>
     </g>
     <g id="text_10">
      <!-- 0 -->
      <g transform="translate(24.9075 291.39107) scale(0.1 -0.1)">
       <use xlink:href="#DejaVuSans-30"/>
      </g>
     </g>
    </g>
    <g id="ytick_2">
     <g id="line2d_19">
      <path d="M 38.27 237.786319 
L 450 237.786319 
" clip-path="url(#pcb73470484)" style="fill: none; stroke: #b0b0b0; stroke-opacity: 0.3; stroke-width: 0.8; stroke-linecap: square"/>
     </g>
     <g id="line2d_20">
      <g>
       <use xlink:href="#me8cc29ef96" x="38.27" y="237.786319" style="stroke: #000000; stroke-width: 0.8"/>
      </g>
     </g>
     <g id="text_11">
      <!-- 1 -->
      <g transform="translate(24.9075 241.585538) scale(0.1 -0.1)">
       <use xlink:href="#DejaVuSans-31"/>
      </g>
     </g>
    </g>
    <g id="ytick_3">
     <g id="line2d_21">
      <path d="M 38.27 187.980788 
L 450 187.980788 
" clip-path="url(#pcb73470484)" style="fill: none; stroke: #b0b0b0; stroke-opacity: 0.3; stroke-width: 0.8; stroke-linecap: square"/>
     </g>
     <g id="line2d_22">
      <g>
       <use xlink:href="#me8cc29ef96" x="38.27" y="187.980788" style="stroke: #000000; stroke-width: 0.8"/>
      </g>
     </g>
     <g id="text_12">
      <!-- 2 -->
      <g transform="translate(24.9075 191.780007) scale(0.1 -0.1)">
       <use xlink:href="#DejaVuSans-32"/>
      </g>
     </g>
    </g>
    <g id="ytick_4">
     <g id="line2d_23">
      <path d="M 38.27 138.175256 
L 450 138.175256 
" clip-path="url(#pcb73470484)" style="fill: none; stroke: #b0b0b0; stroke-opacity: 0.3; stroke-width: 0.8; stroke-linecap: square"/>
     </g>
     <g id="line2d_24">
      <g>
       <use xlink:href="#me8cc29ef96" x="38.27" y="138.175256" style="stroke: #000000; stroke-width: 0.8"/>
      </g>
     </g>
     <g id="text_13">
      <!-- 3 -->
      <g transform="translate(24.9075 141.974475) scale(0.1 -0.1)">
       <defs>
        <path id="DejaVuSans-33" d="M 2597 2516 
Q 3050 2419 3304 2112 
Q 3559 1806 3559 1356 
Q 3559 666 3084 287 
Q 2609 -91 1734 -91 
Q 1441 -91 1130 -33 
Q 819 25 488 141 
L 488 750 
Q 750 597 1062 519 
Q 1375 441 1716 441 
Q 2309 441 2620 675 
Q 2931 909 2931 1356 
Q 2931 1769 2642 2001 
Q 2353 2234 1838 2234 
L 1294 2234 
L 1294 2753 
L 1863 2753 
Q 2328 2753 2575 2939 
Q 2822 3125 2822 3475 
Q 2822 3834 2567 4026 
Q 2313 4219 1838 4219 
Q 1578 4219 1281 4162 
Q 984 4106 628 3988 
L 628 4550 
Q 988 4650 1302 4700 
Q 1616 4750 1894 4750 
Q 2613 4750 3031 4423 
Q 3450 4097 3450 3541 
Q 3450 3153 3228 2886 
Q 3006 2619 2597 2516 
z
" transform="scale(0.015625)"/>
       </defs>
       <use xlink:href="#DejaVuSans-33"/>
      </g>
     </g>
    </g>
    <g id="ytick_5">
     <g id="line2d_25">
      <path d="M 38.27 88.369725 
L 450 88.369725 
" clip-path="url(#pcb73470484)" style="fill: none; stroke: #b0b0b0; stroke-opacity: 0.3; stroke-width: 0.8; stroke-linecap: square"/>
     </g>
     <g id="line2d_26">
      <g>
       <use xlink:href="#me8cc29ef96" x="38.27" y="88.369725" style="stroke: #000000; stroke-width: 0.8"/>
      </g>
     </g>
     <g id="text_14">
      <!-- 4 -->
      <g transform="translate(24.9075 92.168944) scale(0.1 -0.1)">
       <use xlink:href="#DejaVuSans-34"/>
      </g>
     </g>
    </g>
    <g id="ytick_6">
     <g id="line2d_27">
      <path d="M 38.27 38.564194 
L 450 38.564194 
" clip-path="url(#pcb73470484)" style="fill: none; stroke: #b0b0b0; stroke-opacity: 0.3; stroke-width: 0.8; stroke-linecap: square"/>
     </g>
     <g id="line2d_28">
      <g>
       <use xlink:href="#me8cc29ef96" x="38.27" y="38.564194" style="stroke: #000000; stroke-width: 0.8"/>
      </g>
     </g>
     <g id="text_15">
      <!-- 5 -->
      <g transform="translate(24.9075 42.363412) scale(0.1 -0.1)">
       <defs>
        <path id="DejaVuSans-35" d="M 691 4666 
L 3169 4666 
L 3169 4134 
L 1269 4134 
L 1269 2991 
Q 1406 3038 1543 3061 
Q 1681 3084 1819 3084 
Q 2600 3084 3056 2656 
Q 3513 2228 3513 1497 
Q 3513 744 3044 326 
Q 2575 -91 1722 -91 
Q 1428 -91 1123 -41 
Q 819 9 494 109 
L 494 744 
Q 775 591 1075 516 
Q 1375 441 1709 441 
Q 2250 441 2565 725 
Q 2881 1009 2881 1497 
Q 2881 1984 2565 2268 
Q 2250 2553 1709 2553 
Q 1456 2553 1204 2497 
Q 953 2441 691 2322 
L 691 4666 
z
" transform="scale(0.015625)"/>
       </defs>
       <use xlink:href="#DejaVuSans-35"/>
      </g>
     </g>
    </g>
    <g id="text_16">
     <!-- EDA signals (μS) -->
     <g transform="translate(18.827813 205.711875) rotate(-90) scale(0.1 -0.1)">
      <defs>
       <path id="DejaVuSans-45" d="M 628 4666 
L 3578 4666 
L 3578 4134 
L 1259 4134 
L 1259 2753 
L 3481 2753 
L 3481 2222 
L 1259 2222 
L 1259 531 
L 3634 531 
L 3634 0 
L 628 0 
L 628 4666 
z
" transform="scale(0.015625)"/>
       <path id="DejaVuSans-44" d="M 1259 4147 
L 1259 519 
L 2022 519 
Q 2988 519 3436 956 
Q 3884 1394 3884 2338 
Q 3884 3275 3436 3711 
Q 2988 4147 2022 4147 
L 1259 4147 
z
M 628 4666 
L 1925 4666 
Q 3281 4666 3915 4102 
Q 4550 3538 4550 2338 
Q 4550 1131 3912 565 
Q 3275 0 1925 0 
L 628 0 
L 628 4666 
z
" transform="scale(0.015625)"/>
       <path id="DejaVuSans-41" d="M 2188 4044 
L 1331 1722 
L 3047 1722 
L 2188 4044 
z
M 1831 4666 
L 2547 4666 
L 4325 0 
L 3669 0 
L 3244 1197 
L 1141 1197 
L 716 0 
L 50 0 
L 1831 4666 
z
" transform="scale(0.015625)"/>
       <path id="DejaVuSans-67" d="M 2906 1791 
Q 2906 2416 2648 2759 
Q 2391 3103 1925 3103 
Q 1463 3103 1205 2759 
Q 947 2416 947 1791 
Q 947 1169 1205 825 
Q 1463 481 1925 481 
Q 2391 481 2648 825 
Q 2906 1169 2906 1791 
z
M 3481 434 
Q 3481 -459 3084 -895 
Q 2688 -1331 1869 -1331 
Q 1566 -1331 1297 -1286 
Q 1028 -1241 775 -1147 
L 775 -588 
Q 1028 -725 1275 -790 
Q 1522 -856 1778 -856 
Q 2344 -856 2625 -561 
Q 2906 -266 2906 331 
L 2906 616 
Q 2728 306 2450 153 
Q 2172 0 1784 0 
Q 1141 0 747 490 
Q 353 981 353 1791 
Q 353 2603 747 3093 
Q 1141 3584 1784 3584 
Q 2172 3584 2450 3431 
Q 2728 3278 2906 2969 
L 2906 3500 
L 3481 3500 
L 3481 434 
z
" transform="scale(0.015625)"/>
       <path id="DejaVuSans-61" d="M 2194 1759 
Q 1497 1759 1228 1600 
Q 959 1441 959 1056 
Q 959 750 1161 570 
Q 1363 391 1709 391 
Q 2188 391 2477 730 
Q 2766 1069 2766 1631 
L 2766 1759 
L 2194 1759 
z
M 3341 1997 
L 3341 0 
L 2766 0 
L 2766 531 
Q 2569 213 2275 61 
Q 1981 -91 1556 -91 
Q 1019 -91 701 211 
Q 384 513 384 1019 
Q 384 1609 779 1909 
Q 1175 2209 1959 2209 
L 2766 2209 
L 2766 2266 
Q 2766 2663 2505 2880 
Q 2244 3097 1772 3097 
Q 1472 3097 1187 3025 
Q 903 2953 641 2809 
L 641 3341 
Q 956 3463 1253 3523 
Q 1550 3584 1831 3584 
Q 2591 3584 2966 3190 
Q 3341 2797 3341 1997 
z
" transform="scale(0.015625)"/>
       <path id="DejaVuSans-6c" d="M 603 4863 
L 1178 4863 
L 1178 0 
L 603 0 
L 603 4863 
z
" transform="scale(0.015625)"/>
       <path id="DejaVuSans-3bc" d="M 544 -1331 
L 544 3500 
L 1119 3500 
L 1119 1325 
Q 1119 872 1334 640 
Q 1550 409 1972 409 
Q 2434 409 2667 671 
Q 2900 934 2900 1459 
L 2900 3500 
L 3475 3500 
L 3475 806 
Q 3475 619 3529 530 
Q 3584 441 3700 441 
Q 3728 441 3778 458 
Q 3828 475 3916 513 
L 3916 50 
Q 3788 -22 3673 -56 
Q 3559 -91 3450 -91 
Q 3234 -91 3106 31 
Q 2978 153 2931 403 
Q 2775 156 2548 32 
Q 2322 -91 2016 -91 
Q 1697 -91 1473 31 
Q 1250 153 1119 397 
L 1119 -1331 
L 544 -1331 
z
" transform="scale(0.015625)"/>
       <path id="DejaVuSans-53" d="M 3425 4513 
L 3425 3897 
Q 3066 4069 2747 4153 
Q 2428 4238 2131 4238 
Q 1616 4238 1336 4038 
Q 1056 3838 1056 3469 
Q 1056 3159 1242 3001 
Q 1428 2844 1947 2747 
L 2328 2669 
Q 3034 2534 3370 2195 
Q 3706 1856 3706 1288 
Q 3706 609 3251 259 
Q 2797 -91 1919 -91 
Q 1588 -91 1214 -16 
Q 841 59 441 206 
L 441 856 
Q 825 641 1194 531 
Q 1563 422 1919 422 
Q 2459 422 2753 634 
Q 3047 847 3047 1241 
Q 3047 1584 2836 1778 
Q 2625 1972 2144 2069 
L 1759 2144 
Q 1053 2284 737 2584 
Q 422 2884 422 3419 
Q 422 4038 858 4394 
Q 1294 4750 2059 4750 
Q 2388 4750 2728 4690 
Q 3069 4631 3425 4513 
z
" transform="scale(0.015625)"/>
      </defs>
      <use xlink:href="#DejaVuSans-45"/>
      <use xlink:href="#DejaVuSans-44" transform="translate(63.183594 0)"/>
      <use xlink:href="#DejaVuSans-41" transform="translate(138.435547 0)"/>
      <use xlink:href="#DejaVuSans-20" transform="translate(206.84375 0)"/>
      <use xlink:href="#DejaVuSans-73" transform="translate(238.630859 0)"/>
      <use xlink:href="#DejaVuSans-69" transform="translate(290.730469 0)"/>
      <use xlink:href="#DejaVuSans-67" transform="translate(318.513672 0)"/>
      <use xlink:href="#DejaVuSans-6e" transform="translate(381.990234 0)"/>
      <use xlink:href="#DejaVuSans-61" transform="translate(445.369141 0)"/>
      <use xlink:href="#DejaVuSans-6c" transform="translate(506.648438 0)"/>
      <use xlink:href="#DejaVuSans-73" transform="translate(534.431641 0)"/>
      <use xlink:href="#DejaVuSans-20" transform="translate(586.53125 0)"/>
      <use xlink:href="#DejaVuSans-28" transform="translate(618.318359 0)"/>
      <use xlink:href="#DejaVuSans-3bc" transform="translate(657.332031 0)"/>
      <use xlink:href="#DejaVuSans-53" transform="translate(720.955078 0)"/>
      <use xlink:href="#DejaVuSans-29" transform="translate(784.431641 0)"/>
     </g>
    </g>
   </g>
   <g id="line2d_29">
    <path d="M 56.985 103.637161 
L 57.40112 102.860928 
L 57.92127 101.30203 
L 58.54545 98.547003 
L 59.48172 93.20703 
L 61.666351 80.226693 
L 62.186501 78.621466 
L 62.498591 78.160043 
L 62.810681 78.026 
L 63.122771 78.140188 
L 63.642921 78.636875 
L 64.683221 79.655062 
L 65.411431 80.014611 
L 66.243671 80.418292 
L 66.763822 80.914089 
L 67.388002 81.828781 
L 68.740392 83.932213 
L 69.156512 84.205609 
L 69.572632 84.216256 
L 70.196812 83.922362 
L 70.612932 83.789914 
L 70.925022 83.895624 
L 71.237112 84.286023 
L 71.549202 85.035026 
L 71.965322 86.658495 
L 72.485472 89.686646 
L 73.213683 95.478769 
L 75.710403 117.05068 
L 76.334583 120.152273 
L 77.166823 123.03966 
L 78.103093 126.273159 
L 78.831304 129.764599 
L 81.536084 144.199832 
L 83.408624 151.562083 
L 84.865044 157.355447 
L 85.593255 159.46898 
L 86.113405 160.340603 
L 86.425495 160.49294 
L 86.737585 160.324837 
L 87.049675 159.842456 
L 87.569825 158.511181 
L 88.402065 156.293018 
L 88.714155 155.873008 
L 89.026245 155.805374 
L 89.338335 156.090151 
L 89.754455 156.917045 
L 91.314906 160.592653 
L 91.626996 160.803766 
L 91.939086 160.77577 
L 92.355206 160.46226 
L 93.187446 159.714135 
L 93.603566 159.662284 
L 94.123716 159.923783 
L 94.539836 160.109288 
L 94.851926 159.981836 
L 95.164016 159.412293 
L 95.476106 158.214586 
L 95.892226 155.392465 
L 96.412376 149.750694 
L 98.180887 126.958243 
L 98.492977 125.753826 
L 98.701037 125.705931 
L 98.909097 126.223567 
L 99.221187 127.910764 
L 99.741337 132.383597 
L 101.197757 145.948022 
L 101.925967 150.448616 
L 102.654177 153.555561 
L 103.382387 155.665432 
L 104.214628 157.30778 
L 105.358958 159.49957 
L 106.399258 162.170666 
L 107.335528 164.433812 
L 107.959708 165.413677 
L 108.479858 165.821398 
L 109.000008 165.90743 
L 109.624188 165.748931 
L 110.768519 165.425134 
L 111.600759 165.467242 
L 112.849119 165.794811 
L 114.617629 166.499034 
L 115.865989 167.206447 
L 117.01032 168.136882 
L 120.96346 171.601632 
L 122.731971 172.99461 
L 124.292421 173.944159 
L 127.725411 175.809667 
L 128.973772 176.983692 
L 130.534222 178.422467 
L 131.366462 178.868285 
L 132.510792 179.150154 
L 133.343032 179.464124 
L 134.071242 179.983758 
L 134.903482 180.872713 
L 136.463933 183.002658 
L 137.920353 184.780286 
L 140.000953 186.955889 
L 142.393644 189.168023 
L 145.826634 191.922288 
L 146.970964 193.344244 
L 148.323355 195.01154 
L 149.155595 195.67254 
L 151.028135 196.984695 
L 153.524855 199.126061 
L 157.373966 201.587019 
L 164.656067 206.31257 
L 166.840698 207.662202 
L 169.753538 209.442254 
L 174.122799 211.998584 
L 177.763849 214.05378 
L 179.11624 214.672409 
L 180.3646 214.982602 
L 184.10968 215.808403 
L 185.462071 216.340868 
L 187.750731 217.244191 
L 190.975661 218.463752 
L 195.032832 220.327454 
L 198.049703 221.99109 
L 202.418963 224.637604 
L 209.284944 227.983723 
L 211.261515 228.888178 
L 213.654205 229.970707 
L 216.358986 231.148379 
L 217.919436 232.162284 
L 219.479886 233.120874 
L 220.936306 233.69637 
L 223.120937 234.601593 
L 226.553927 236.033365 
L 230.194978 237.340298 
L 235.396479 239.062814 
L 236.852899 239.143758 
L 238.309319 239.211766 
L 239.141559 239.509177 
L 240.389919 240.254972 
L 244.23903 242.606713 
L 245.48739 242.894847 
L 247.15187 243.323149 
L 249.544561 243.97429 
L 254.121882 244.80939 
L 258.075022 245.610665 
L 259.843533 245.938002 
L 260.571743 245.842831 
L 261.195923 245.494633 
L 261.924133 244.761177 
L 263.068463 243.552193 
L 263.588613 243.283189 
L 264.108763 243.230687 
L 264.836973 243.396399 
L 268.582054 244.580956 
L 269.518324 244.560037 
L 272.223105 244.301681 
L 277.840725 245.310581 
L 281.689836 246.010892 
L 282.938196 246.110677 
L 283.770436 245.944112 
L 284.498646 245.566727 
L 286.267157 244.497586 
L 286.787307 244.512714 
L 287.515517 244.798015 
L 289.388057 245.637129 
L 292.196868 246.490961 
L 293.445228 246.684949 
L 294.381498 246.623023 
L 295.629858 246.277136 
L 297.086278 245.910015 
L 297.918519 245.938315 
L 298.958819 246.224565 
L 301.767629 247.08355 
L 303.64017 247.480123 
L 305.20062 247.531925 
L 306.76107 247.396432 
L 308.32152 247.034174 
L 309.15376 246.627035 
L 310.090031 245.854951 
L 311.026301 245.156839 
L 311.650481 244.996424 
L 312.378691 245.079207 
L 313.314961 245.155852 
L 313.939141 244.93899 
L 314.771381 244.326438 
L 315.811681 243.571668 
L 316.539892 243.302214 
L 317.788252 243.144959 
L 318.724522 242.925989 
L 319.556762 242.492782 
L 320.180942 241.936817 
L 320.701092 241.174969 
L 321.221242 239.966407 
L 321.845422 237.780817 
L 322.677663 233.806256 
L 325.070353 221.664765 
L 326.838863 214.01826 
L 327.359013 210.349414 
L 327.983193 204.190218 
L 328.711404 194.614601 
L 331.000064 162.314252 
L 332.040364 152.827815 
L 333.704844 139.047422 
L 334.120964 137.610097 
L 334.329024 137.446577 
L 334.537084 137.640973 
L 334.849175 138.513165 
L 335.369325 140.965942 
L 336.097535 144.418453 
L 336.409625 145.186478 
L 336.617685 145.297495 
L 336.825745 145.02745 
L 337.033805 144.336686 
L 337.345895 142.459634 
L 337.762015 138.388926 
L 338.386195 129.551656 
L 339.738585 109.140124 
L 340.258735 104.362796 
L 340.778885 101.417798 
L 341.507096 97.544897 
L 341.923216 93.934869 
L 342.547396 86.004098 
L 344.003816 66.12003 
L 344.732026 59.638298 
L 345.356206 55.813711 
L 345.876356 53.811426 
L 346.292476 52.968614 
L 346.604566 52.722209 
L 346.916656 52.742315 
L 347.332777 53.066114 
L 348.893227 54.643366 
L 349.621437 55.107547 
L 350.037557 55.637114 
L 350.557707 56.68338 
L 352.118157 60.167779 
L 353.158457 61.917557 
L 353.574578 63.205415 
L 354.094728 65.735146 
L 354.822938 70.745343 
L 355.967268 78.529201 
L 357.007568 83.624298 
L 357.839808 87.027784 
L 358.255928 88.015658 
L 358.568018 88.270588 
L 358.776078 88.221306 
L 359.088168 87.908858 
L 359.920409 86.924416 
L 360.336529 86.848798 
L 361.168769 86.887222 
L 361.584889 86.520137 
L 362.417129 85.619476 
L 362.625189 85.640733 
L 362.833249 85.837943 
L 363.145339 86.477199 
L 363.665489 88.254739 
L 364.497729 91.115432 
L 364.809819 91.595569 
L 365.017879 91.655215 
L 365.225939 91.509974 
L 365.538029 90.957326 
L 366.16221 89.136225 
L 367.41057 85.471701 
L 368.03475 83.315633 
L 368.65893 80.097513 
L 369.90729 73.024417 
L 370.42744 71.454105 
L 371.36371 69.190629 
L 371.88386 66.924416 
L 372.820131 62.46165 
L 373.132221 61.903756 
L 373.340281 61.996347 
L 373.548341 62.484144 
L 373.860431 63.901727 
L 374.484611 68.242829 
L 375.108791 72.202012 
L 375.524911 73.628448 
L 375.837001 74.043161 
L 376.149091 74.084066 
L 376.981331 73.922776 
L 377.293421 74.160462 
L 377.605511 74.672239 
L 378.021631 75.87027 
L 378.437752 77.797958 
L 378.957902 81.427173 
L 379.686112 88.559879 
L 381.038502 102.501515 
L 381.558652 105.73514 
L 381.870742 106.562987 
L 382.078802 106.549682 
L 382.286862 106.045536 
L 382.598952 104.345486 
L 383.015072 100.422554 
L 383.639252 91.901613 
L 385.927913 58.190581 
L 386.760153 49.529082 
L 387.280303 45.921254 
L 387.696423 44.42815 
L 387.904483 44.199381 
L 388.112543 44.311517 
L 388.424633 45.053904 
L 388.944783 47.312526 
L 389.568963 49.957072 
L 389.881053 50.5077 
L 390.089113 50.439905 
L 390.297173 50.001362 
L 390.609263 48.693605 
L 391.129414 45.294587 
L 391.961654 39.802613 
L 392.377774 38.363712 
L 392.585834 38.102683 
L 392.793894 38.139989 
L 393.001954 38.447382 
L 393.314044 39.324963 
L 393.834194 41.527876 
L 394.666434 46.085515 
L 395.498674 52.01984 
L 396.747034 61.352606 
L 397.163155 63.092285 
L 397.475245 63.737308 
L 397.787335 63.915908 
L 398.203455 63.753121 
L 398.619575 63.622976 
L 398.931665 63.824249 
L 399.243755 64.400433 
L 399.659875 65.737787 
L 401.116295 71.14922 
L 401.428385 71.547449 
L 401.636445 71.597701 
L 401.948535 71.382146 
L 402.364655 70.686925 
L 403.196895 69.096556 
L 403.508986 68.928259 
L 403.717046 69.067492 
L 404.029136 69.721701 
L 404.445256 71.446742 
L 405.069436 75.407583 
L 406.005706 81.379948 
L 406.525856 83.284274 
L 406.941976 84.003113 
L 407.358096 84.296397 
L 408.918546 84.856227 
L 409.230636 84.692011 
L 409.646757 84.157386 
L 410.895117 82.205183 
L 411.207207 82.251097 
L 411.519297 82.635584 
L 411.935417 83.61697 
L 412.559597 85.789302 
L 413.391837 89.556574 
L 414.328107 95.037551 
L 415.160347 99.695748 
L 415.576467 101.056672 
L 415.888558 101.468453 
L 416.096618 101.465651 
L 416.408708 101.131908 
L 417.553038 99.410519 
L 417.761098 99.446662 
L 418.073188 99.813424 
L 418.489308 100.816062 
L 419.425578 104.041554 
L 420.153788 106.160487 
L 420.881998 107.595548 
L 422.026329 109.727008 
L 422.962599 112.120133 
L 424.002899 114.688375 
L 424.523049 115.44784 
L 424.835139 115.63335 
L 425.147229 115.584832 
L 425.459319 115.289285 
L 425.875439 114.52019 
L 426.499619 112.749826 
L 427.435889 110.10764 
L 427.852009 109.584279 
L 428.164099 109.581907 
L 428.47619 109.892928 
L 428.99634 110.891013 
L 429.93261 112.734346 
L 430.34873 113.076412 
L 430.66082 113.085964 
L 431.07694 112.830547 
L 431.285 112.624741 
L 431.285 112.624741 
" clip-path="url(#pcb73470484)" style="fill: none; stroke-dasharray: 1.85,0.8; stroke-dashoffset: 0; stroke: #1f77b4; stroke-width: 0.5"/>
   </g>
   <g id="line2d_30">
    <path d="M 56.985 105.133245 
L 57.50515 100.339161 
L 58.0253 97.53815 
L 58.44142 96.445503 
L 58.75351 96.152352 
L 59.0656 96.207896 
L 59.48172 96.665008 
L 60.938141 98.700423 
L 61.146201 98.682243 
L 61.458291 98.36836 
L 61.874411 97.471503 
L 62.394561 95.73371 
L 63.226801 92.025755 
L 64.891281 84.320887 
L 65.515461 82.444961 
L 66.035611 81.598117 
L 66.451732 81.346646 
L 66.763822 81.380641 
L 67.179942 81.691105 
L 67.700092 82.449787 
L 68.324272 83.80199 
L 69.260542 86.456394 
L 70.716962 91.343183 
L 71.965322 96.3132 
L 73.109653 101.763157 
L 74.253983 108.272227 
L 78.207123 131.968192 
L 79.351454 136.722372 
L 85.385195 158.92367 
L 86.009375 160.128464 
L 86.425495 160.55042 
L 86.841615 160.691514 
L 87.257735 160.615076 
L 87.881915 160.231082 
L 89.338335 159.186458 
L 89.754455 159.134758 
L 90.170575 159.308836 
L 90.586695 159.762341 
L 91.210875 160.856994 
L 92.875356 164.025042 
L 93.291476 164.377695 
L 93.603566 164.411689 
L 93.915656 164.205197 
L 94.227746 163.719593 
L 94.643866 162.574642 
L 95.164016 160.395457 
L 95.996256 155.767293 
L 97.764767 145.574689 
L 98.388947 143.306226 
L 98.805067 142.540552 
L 99.117157 142.390578 
L 99.429247 142.565836 
L 99.741337 143.029774 
L 100.157457 144.034242 
L 100.781637 146.191851 
L 101.821937 150.801627 
L 103.278357 157.13952 
L 104.214628 160.207668 
L 105.150898 162.507734 
L 105.983138 163.98158 
L 106.711348 164.883463 
L 107.439558 165.469904 
L 108.167768 165.797958 
L 109.000008 165.938829 
L 110.248369 165.884341 
L 112.016879 165.810707 
L 113.265239 165.999033 
L 114.409569 166.389416 
L 115.553899 167.016906 
L 116.90629 168.043881 
L 119.50704 170.392246 
L 121.7957 172.28702 
L 123.668241 173.564987 
L 128.557651 176.623752 
L 133.551092 180.624851 
L 135.423633 182.022516 
L 136.567963 183.151018 
L 138.440503 185.401885 
L 140.209013 187.404484 
L 141.457374 188.461082 
L 144.994394 191.216149 
L 146.762904 193.16209 
L 149.155595 195.750601 
L 150.820075 197.180173 
L 153.004705 198.74058 
L 162.263377 204.789495 
L 168.921298 208.94952 
L 178.283999 214.315883 
L 180.05251 214.863044 
L 185.358041 216.329435 
L 188.791031 217.608699 
L 193.992532 219.783748 
L 196.489252 221.102165 
L 200.754483 223.667562 
L 203.771354 225.350571 
L 209.701064 228.235058 
L 212.717935 229.5199 
L 215.318685 230.685713 
L 217.919436 232.176591 
L 220.312126 233.448611 
L 223.120937 234.627485 
L 231.547368 237.86006 
L 234.876329 238.911503 
L 236.852899 239.29743 
L 239.141559 239.749073 
L 240.285889 240.201038 
L 241.63828 241.005911 
L 244.34306 242.688776 
L 245.59142 243.150804 
L 247.255901 243.506016 
L 251.417101 244.307713 
L 255.162182 244.982365 
L 257.970992 245.591737 
L 259.531442 245.830953 
L 260.571743 245.765903 
L 261.508013 245.474045 
L 262.964433 244.729707 
L 264.420853 244.049284 
L 265.253093 243.87205 
L 266.189364 243.923883 
L 267.437724 244.246897 
L 269.414294 244.769308 
L 270.662654 244.814349 
L 275.239975 244.711916 
L 276.904455 245.06007 
L 279.401176 245.857666 
L 280.857596 246.187309 
L 281.897896 246.207151 
L 283.042226 245.983944 
L 286.267157 245.190975 
L 287.411487 245.238074 
L 288.867907 245.527577 
L 293.445228 246.623737 
L 294.693588 246.591227 
L 296.878218 246.205656 
L 298.230609 246.109905 
L 299.270909 246.266438 
L 300.831359 246.762002 
L 302.911959 247.399881 
L 304.26435 247.556933 
L 305.72077 247.503879 
L 307.38525 247.217595 
L 309.25779 246.664482 
L 311.338391 245.810138 
L 313.523021 244.932806 
L 314.563321 244.739868 
L 315.499591 244.783893 
L 317.372132 244.981153 
L 318.100342 244.784636 
L 318.724522 244.3662 
L 319.348702 243.645062 
L 320.076912 242.398878 
L 321.013182 240.291384 
L 322.365573 236.626975 
L 324.654233 229.804427 
L 325.382443 226.79289 
L 326.110653 222.72978 
L 326.838863 217.223168 
L 327.567073 209.881125 
L 328.503344 197.722484 
L 331.208124 160.59229 
L 331.936334 154.187989 
L 332.560514 150.71486 
L 333.080664 148.964942 
L 333.600814 148.00977 
L 334.016934 147.663137 
L 334.537084 147.558334 
L 335.681415 147.531986 
L 336.097535 147.228466 
L 336.513655 146.636653 
L 337.033805 145.42905 
L 337.553955 143.626932 
L 338.178135 140.56695 
L 338.802315 136.39733 
L 339.530525 129.945818 
L 340.362765 120.240586 
L 341.507096 103.785827 
L 343.483666 75.115927 
L 344.315906 66.109066 
L 345.044116 60.680362 
L 345.668296 57.601728 
L 346.188446 55.948813 
L 346.708596 54.965835 
L 347.124717 54.561191 
L 347.540837 54.412821 
L 348.060987 54.470957 
L 348.893227 54.829455 
L 349.621437 55.408723 
L 350.245617 56.207066 
L 350.869797 57.372182 
L 351.493977 58.987597 
L 352.222187 61.552806 
L 353.054427 65.494906 
L 354.406818 73.324797 
L 355.863238 81.471298 
L 356.695478 84.940901 
L 357.319658 86.676339 
L 357.943838 87.790483 
L 358.568018 88.451212 
L 359.296228 88.872962 
L 360.648619 89.534454 
L 361.272799 90.141271 
L 363.769519 92.915998 
L 364.185639 93.004111 
L 364.601759 92.870073 
L 365.017879 92.470683 
L 365.538029 91.5764 
L 366.16221 90.010316 
L 366.99445 87.291306 
L 368.5549 81.216491 
L 370.11535 75.473596 
L 371.05162 72.776978 
L 371.77983 71.242477 
L 372.404011 70.404535 
L 372.924161 70.092079 
L 373.340281 70.121514 
L 373.756401 70.418363 
L 374.172521 70.996834 
L 374.692671 72.137096 
L 375.316851 74.15305 
L 375.941031 76.919759 
L 376.669241 81.158952 
L 377.501481 87.4285 
L 380.310292 110.601348 
L 380.726412 112.198254 
L 381.038502 112.764228 
L 381.246562 112.800301 
L 381.454622 112.538222 
L 381.766712 111.544874 
L 382.182832 109.170756 
L 382.702982 104.811191 
L 383.535222 95.584947 
L 385.823883 68.54851 
L 386.552093 63.131316 
L 387.176273 59.913021 
L 387.904483 57.347676 
L 388.736723 55.329023 
L 389.985083 52.442633 
L 391.025384 49.105612 
L 392.065684 45.934981 
L 392.689864 44.701055 
L 393.105984 44.345608 
L 393.418074 44.388663 
L 393.730164 44.739571 
L 394.042254 45.436534 
L 394.458374 46.936095 
L 395.082554 50.187599 
L 396.018824 56.468733 
L 397.683305 67.680864 
L 398.307485 70.542879 
L 398.827635 71.997468 
L 399.243755 72.647865 
L 399.659875 72.944976 
L 400.075995 72.983838 
L 400.700175 72.765808 
L 401.532415 72.458244 
L 401.948535 72.511072 
L 402.364655 72.828357 
L 402.780775 73.479565 
L 403.404956 74.980361 
L 404.341226 77.952272 
L 405.901676 82.897924 
L 406.525856 84.198243 
L 407.046006 84.773521 
L 407.566156 84.973842 
L 408.190336 84.909714 
L 409.438696 84.680761 
L 409.854817 84.828513 
L 410.270937 85.203712 
L 410.687057 85.875606 
L 411.207207 87.194061 
L 411.935417 89.732832 
L 414.744227 100.387314 
L 415.264377 101.363049 
L 415.784528 101.893971 
L 416.304678 102.115131 
L 417.136918 102.161762 
L 417.865128 102.270523 
L 418.385278 102.603122 
L 418.801398 103.125867 
L 419.321548 104.20464 
L 420.049758 106.420615 
L 422.754539 115.629924 
L 423.274689 116.446561 
L 423.690809 116.685246 
L 424.106929 116.627984 
L 424.627079 116.266851 
L 426.395589 114.737111 
L 426.811709 114.782073 
L 427.123799 115.026104 
L 427.539919 115.696129 
L 428.060069 117.077955 
L 428.78828 119.781702 
L 430.14067 125.962695 
L 431.285 130.832919 
L 431.285 130.832919 
" clip-path="url(#pcb73470484)" style="fill: none; stroke: #ff7f0e; stroke-width: 0.5; stroke-linecap: square"/>
   </g>
   <g id="line2d_31">
    <path d="M 56.985 287.591851 
L 57.08903 287.591851 
L 57.19306 287.006044 
L 57.40112 290.073367 
L 57.60918 290.950808 
L 57.71321 290.994545 
L 57.92127 290.72413 
L 58.75351 288.892921 
L 59.16963 286.420842 
L 60.105901 279.175831 
L 61.042171 272.298324 
L 61.458291 270.406221 
L 61.770381 269.702388 
L 61.978441 269.585662 
L 62.186501 269.744755 
L 62.498591 270.461724 
L 62.914711 272.155656 
L 63.746951 276.919087 
L 64.787251 282.616589 
L 65.411431 284.985997 
L 65.931581 286.167366 
L 66.451732 286.824904 
L 67.075912 287.229089 
L 67.908152 287.458211 
L 68.116212 287.410118 
L 68.532332 286.983725 
L 68.948452 286.214579 
L 69.468602 284.748654 
L 70.404872 281.22557 
L 71.133082 278.837864 
L 71.549202 278.100734 
L 71.861292 277.942827 
L 72.173382 278.130645 
L 72.485472 278.639153 
L 73.005623 280.068244 
L 73.733833 282.843397 
L 74.358013 285.152642 
L 74.878163 286.26371 
L 75.398313 286.877618 
L 75.710403 287.08397 
L 75.918463 286.928816 
L 76.334583 286.230024 
L 77.166823 284.099099 
L 77.791003 282.754004 
L 78.207123 282.363224 
L 78.519213 282.397924 
L 78.831304 282.706062 
L 79.351454 283.652902 
L 80.495784 286.358093 
L 81.015934 286.924812 
L 81.640114 287.275757 
L 81.952204 287.297567 
L 82.992504 287.085407 
L 83.720714 287.214795 
L 84.865044 287.484646 
L 86.321465 287.572832 
L 86.529525 287.490521 
L 86.945645 286.967671 
L 87.569825 285.680606 
L 88.298035 284.237215 
L 88.610125 283.969614 
L 88.922215 284.003983 
L 89.130275 284.153372 
L 89.650425 285.321295 
L 90.274605 286.451862 
L 90.794755 286.973992 
L 91.210875 287.202757 
L 91.418936 287.025752 
L 91.835056 286.258256 
L 93.291476 282.920602 
L 93.499536 282.845133 
L 93.811626 282.97486 
L 94.019686 283.418468 
L 94.955956 285.964809 
L 95.476106 286.707832 
L 95.788196 286.861474 
L 96.100286 285.902002 
L 96.516406 283.437065 
L 97.244616 276.964067 
L 97.868797 271.993598 
L 98.180887 270.651965 
L 98.388947 270.318972 
L 98.597007 270.439446 
L 98.805067 270.979948 
L 99.117157 272.4716 
L 99.741337 276.903942 
L 100.573577 283.011005 
L 101.093727 285.098606 
L 101.613877 286.251256 
L 102.029997 286.776771 
L 102.238057 286.800301 
L 102.758207 286.464071 
L 103.590447 285.499897 
L 104.526718 284.417885 
L 104.942838 284.183384 
L 105.358958 284.1981 
L 105.775078 284.472753 
L 106.295228 285.065507 
L 107.439558 286.793973 
L 108.063738 287.210682 
L 108.895978 287.451294 
L 109.520158 287.469558 
L 110.560459 287.223366 
L 111.496729 287.270922 
L 113.681359 287.560929 
L 117.73853 287.591483 
L 125.956901 287.483179 
L 127.413321 287.457797 
L 129.285862 287.575733 
L 131.158402 287.532526 
L 133.551092 286.584891 
L 134.279302 286.673683 
L 134.799452 286.869776 
L 135.735723 287.324135 
L 136.671993 287.50372 
L 138.440503 287.57489 
L 140.521103 287.415761 
L 142.185584 287.564486 
L 144.682304 287.544152 
L 146.034694 287.481639 
L 148.115295 287.581552 
L 149.259625 287.511764 
L 150.507985 287.236164 
L 151.028135 287.288067 
L 152.380525 287.522181 
L 154.565156 287.586584 
L 174.955039 287.590432 
L 181.50893 287.591451 
L 236.748869 287.485729 
L 238.517379 287.298045 
L 240.597979 287.560575 
L 244.23903 287.586654 
L 246.63172 287.410653 
L 248.296201 287.563888 
L 252.665461 287.591463 
L 261.195923 287.52178 
L 262.132193 286.960159 
L 262.964433 286.526173 
L 263.484583 286.486528 
L 264.108763 286.676815 
L 265.253093 287.309835 
L 266.189364 287.499216 
L 267.957874 287.580732 
L 269.102204 287.497644 
L 271.286834 287.109787 
L 272.119074 287.243798 
L 273.263405 287.494033 
L 275.031915 287.580055 
L 278.360875 287.523362 
L 280.753566 287.294139 
L 283.458346 287.576156 
L 284.810737 287.522427 
L 286.163127 286.945046 
L 286.787307 286.948343 
L 287.411487 287.147804 
L 288.347757 287.433614 
L 289.700147 287.560305 
L 293.653288 287.59149 
L 295.421798 287.489722 
L 297.086278 287.362811 
L 299.062849 287.565185 
L 303.53614 287.589964 
L 309.25779 287.512746 
L 311.234361 286.832961 
L 312.898841 287.458747 
L 314.251231 287.563476 
L 314.563321 287.377811 
L 316.747952 285.905556 
L 317.476162 285.832296 
L 318.308402 286.000464 
L 318.932582 286.325856 
L 319.764822 287.054897 
L 320.493032 287.363937 
L 321.533332 287.526288 
L 321.741392 287.459696 
L 322.365573 286.397349 
L 323.301843 284.11797 
L 324.238113 281.899636 
L 324.758263 281.209676 
L 325.070353 281.097751 
L 325.382443 281.23834 
L 325.694533 281.62404 
L 326.214683 282.710569 
L 326.630803 283.87384 
L 327.254983 285.656217 
L 327.775133 286.535093 
L 328.295283 287.023116 
L 328.919464 287.322779 
L 329.127524 287.309753 
L 330.063794 286.588987 
L 330.375884 286.647184 
L 331.624244 287.329215 
L 331.832304 287.319061 
L 332.144394 286.698517 
L 332.560514 285.08095 
L 334.120964 277.613064 
L 334.329024 277.499383 
L 334.537084 277.705408 
L 334.849175 278.529571 
L 335.057235 279.327012 
L 336.097535 284.679341 
L 336.617685 286.012936 
L 337.033805 286.525356 
L 337.241865 286.034502 
L 337.553955 284.637601 
L 338.074105 280.768739 
L 339.322465 270.202064 
L 339.634555 269.117462 
L 339.842615 269.018771 
L 340.050675 269.45082 
L 340.362765 271.051146 
L 340.778885 274.499215 
L 341.507096 281.380535 
L 342.027246 284.203061 
L 342.443366 285.512531 
L 342.651426 285.620892 
L 342.963516 285.399842 
L 343.795756 284.663006 
L 344.419936 284.553085 
L 345.668296 284.502493 
L 346.084416 284.7117 
L 346.708596 285.330692 
L 347.956957 286.955563 
L 348.581137 287.288543 
L 349.101287 287.397257 
L 349.621437 287.369061 
L 351.493977 287.562233 
L 351.702037 287.411169 
L 352.118157 286.653706 
L 352.742337 284.823761 
L 353.574578 282.44165 
L 353.886668 282.003844 
L 354.198758 281.911075 
L 354.510848 282.131096 
L 355.030998 282.91854 
L 355.759208 283.980913 
L 356.383388 284.486945 
L 356.591448 284.693414 
L 357.839808 286.778079 
L 358.463988 287.204023 
L 358.776078 287.254284 
L 359.400258 286.176025 
L 359.920409 285.419593 
L 360.440559 285.098392 
L 360.960709 284.764468 
L 361.376829 284.10084 
L 362.729219 281.331174 
L 362.937279 281.38287 
L 363.249369 281.823584 
L 363.457429 282.313637 
L 364.601759 285.938391 
L 365.121909 286.697894 
L 365.538029 287.010381 
L 366.4743 286.749673 
L 367.82669 287.383852 
L 368.34684 287.422818 
L 368.76296 286.69519 
L 369.80326 284.561067 
L 370.11535 284.435201 
L 370.42744 284.580693 
L 371.05162 284.959097 
L 371.25968 284.872766 
L 371.57177 284.38904 
L 371.98789 283.094913 
L 372.924161 279.717144 
L 373.132221 279.444281 
L 373.340281 279.516973 
L 373.444311 279.565756 
L 373.652371 280.123236 
L 374.796701 285.234072 
L 375.316851 286.316654 
L 375.420881 286.402754 
L 375.628941 285.998534 
L 375.941031 284.78991 
L 376.565211 281.069865 
L 378.229691 270.355389 
L 378.645812 268.810077 
L 378.957902 268.300448 
L 379.165962 268.299418 
L 379.374022 268.5664 
L 379.686112 269.43091 
L 380.102232 271.303981 
L 380.934472 276.506408 
L 381.974772 283.688129 
L 382.494922 285.47568 
L 382.911042 286.304433 
L 383.119102 286.356065 
L 383.535222 285.508636 
L 384.471492 282.573938 
L 387.384333 273.9745 
L 387.592393 273.975043 
L 387.800453 274.239962 
L 388.112543 275.150203 
L 388.528663 277.166751 
L 389.568963 283.907213 
L 390.089113 285.594004 
L 390.401203 286.107085 
L 390.609263 285.811261 
L 390.921354 284.944314 
L 392.065684 281.020044 
L 392.377774 280.758451 
L 392.585834 280.871006 
L 392.897924 281.415653 
L 393.522104 283.273739 
L 394.146284 284.982445 
L 394.666434 285.800865 
L 395.394644 286.759381 
L 396.018824 287.191621 
L 396.643004 287.385676 
L 396.851064 287.074469 
L 397.163155 286.177453 
L 397.683305 283.839917 
L 398.515545 280.02673 
L 398.827635 279.343238 
L 399.035695 279.222548 
L 399.243755 279.376867 
L 399.555845 280.065717 
L 399.867935 281.213309 
L 400.700175 284.864495 
L 401.220325 286.107774 
L 401.636445 286.687973 
L 401.740475 286.726224 
L 401.948535 286.491483 
L 402.260625 285.796097 
L 402.780775 283.942778 
L 403.613016 281.006366 
L 403.925106 280.500591 
L 404.133166 280.437295 
L 404.341226 280.60035 
L 404.653316 281.240263 
L 405.069436 282.626179 
L 405.797646 285.260143 
L 406.317796 286.321527 
L 406.837946 286.885041 
L 407.566156 287.137478 
L 408.502426 287.432565 
L 409.334666 287.515091 
L 409.542727 287.242545 
L 409.958847 286.306194 
L 411.623327 281.891392 
L 412.143477 281.329146 
L 412.663627 281.099602 
L 413.079747 281.146722 
L 413.391837 281.375755 
L 413.807957 282.018772 
L 414.016017 282.446937 
L 415.264377 286.143857 
L 415.784528 286.81038 
L 416.096618 287.015227 
L 416.304678 286.78312 
L 416.928858 285.616525 
L 417.449008 284.896993 
L 417.761098 284.811865 
L 417.969158 284.927127 
L 419.529608 287.056983 
L 419.945728 287.203128 
L 420.361848 286.709563 
L 420.986028 285.49052 
L 421.818268 283.928706 
L 422.234389 283.530032 
L 422.546479 283.467254 
L 422.858569 283.617652 
L 423.274689 284.091207 
L 424.523049 286.601625 
L 425.043199 287.057345 
L 425.667379 287.336388 
L 425.875439 287.127979 
L 426.291559 286.252171 
L 426.915739 284.216908 
L 428.26813 279.503879 
L 429.2044 277.38661 
L 429.82858 275.713323 
L 430.45276 273.333783 
L 431.18097 269.714663 
L 431.285 270.075672 
L 431.285 270.075672 
" clip-path="url(#pcb73470484)" style="fill: none; stroke: #2ca02c; stroke-width: 0.5; stroke-linecap: square"/>
   </g>
   <g id="patch_3">
    <path d="M 38.27 303.64 
L 38.27 25.44 
" style="fill: none; stroke: #000000; stroke-width: 0.8; stroke-linejoin: miter; stroke-linecap: square"/>
   </g>
   <g id="patch_4">
    <path d="M 450 303.64 
L 450 25.44 
" style="fill: none; stroke: #000000; stroke-width: 0.8; stroke-linejoin: miter; stroke-linecap: square"/>
   </g>
   <g id="patch_5">
    <path d="M 38.27 303.64 
L 450 303.64 
" style="fill: none; stroke: #000000; stroke-width: 0.8; stroke-linejoin: miter; stroke-linecap: square"/>
   </g>
   <g id="patch_6">
    <path d="M 38.27 25.44 
L 450 25.44 
" style="fill: none; stroke: #000000; stroke-width: 0.8; stroke-linejoin: miter; stroke-linecap: square"/>
   </g>
   <g id="text_17">
    <!-- cvxEDA (σ=2.8s  data_6_E4) -->
    <g transform="translate(158.48125 19.44) scale(0.12 -0.12)">
     <defs>
      <path id="DejaVuSans-63" d="M 3122 3366 
L 3122 2828 
Q 2878 2963 2633 3030 
Q 2388 3097 2138 3097 
Q 1578 3097 1268 2742 
Q 959 2388 959 1747 
Q 959 1106 1268 751 
Q 1578 397 2138 397 
Q 2388 397 2633 464 
Q 2878 531 3122 666 
L 3122 134 
Q 2881 22 2623 -34 
Q 2366 -91 2075 -91 
Q 1284 -91 818 406 
Q 353 903 353 1747 
Q 353 2603 823 3093 
Q 1294 3584 2113 3584 
Q 2378 3584 2631 3529 
Q 2884 3475 3122 3366 
z
" transform="scale(0.015625)"/>
      <path id="DejaVuSans-76" d="M 191 3500 
L 800 3500 
L 1894 563 
L 2988 3500 
L 3597 3500 
L 2284 0 
L 1503 0 
L 191 3500 
z
" transform="scale(0.015625)"/>
      <path id="DejaVuSans-78" d="M 3513 3500 
L 2247 1797 
L 3578 0 
L 2900 0 
L 1881 1375 
L 863 0 
L 184 0 
L 1544 1831 
L 300 3500 
L 978 3500 
L 1906 2253 
L 2834 3500 
L 3513 3500 
z
" transform="scale(0.015625)"/>
      <path id="DejaVuSans-3c3" d="M 1959 3044 
Q 1484 3044 1228 2700 
Q 959 2341 959 1747 
Q 959 1119 1226 758 
Q 1494 397 1959 397 
Q 2419 397 2687 759 
Q 2956 1122 2956 1747 
Q 2956 2319 2688 2700 
Q 2441 3044 1959 3044 
z
M 1959 3500 
L 3869 3500 
L 3869 2925 
L 3225 2925 
Q 3566 2438 3566 1747 
Q 3566 888 3138 400 
Q 2709 -91 1959 -91 
Q 1206 -91 781 400 
Q 353 888 353 1747 
Q 353 2613 781 3097 
Q 1134 3500 1959 3500 
z
" transform="scale(0.015625)"/>
      <path id="DejaVuSans-3d" d="M 678 2906 
L 4684 2906 
L 4684 2381 
L 678 2381 
L 678 2906 
z
M 678 1631 
L 4684 1631 
L 4684 1100 
L 678 1100 
L 678 1631 
z
" transform="scale(0.015625)"/>
      <path id="DejaVuSans-2e" d="M 684 794 
L 1344 794 
L 1344 0 
L 684 0 
L 684 794 
z
" transform="scale(0.015625)"/>
      <path id="DejaVuSans-64" d="M 2906 2969 
L 2906 4863 
L 3481 4863 
L 3481 0 
L 2906 0 
L 2906 525 
Q 2725 213 2448 61 
Q 2172 -91 1784 -91 
Q 1150 -91 751 415 
Q 353 922 353 1747 
Q 353 2572 751 3078 
Q 1150 3584 1784 3584 
Q 2172 3584 2448 3432 
Q 2725 3281 2906 2969 
z
M 947 1747 
Q 947 1113 1208 752 
Q 1469 391 1925 391 
Q 2381 391 2643 752 
Q 2906 1113 2906 1747 
Q 2906 2381 2643 2742 
Q 2381 3103 1925 3103 
Q 1469 3103 1208 2742 
Q 947 2381 947 1747 
z
" transform="scale(0.015625)"/>
      <path id="DejaVuSans-5f" d="M 3263 -1063 
L 3263 -1509 
L -63 -1509 
L -63 -1063 
L 3263 -1063 
z
" transform="scale(0.015625)"/>
     </defs>
     <use xlink:href="#DejaVuSans-63"/>
     <use xlink:href="#DejaVuSans-76" transform="translate(54.980469 0)"/>
     <use xlink:href="#DejaVuSans-78" transform="translate(114.160156 0)"/>
     <use xlink:href="#DejaVuSans-45" transform="translate(173.339844 0)"/>
     <use xlink:href="#DejaVuSans-44" transform="translate(236.523438 0)"/>
     <use xlink:href="#DejaVuSans-41" transform="translate(311.775391 0)"/>
     <use xlink:href="#DejaVuSans-20" transform="translate(380.183594 0)"/>
     <use xlink:href="#DejaVuSans-28" transform="translate(411.970703 0)"/>
     <use xlink:href="#DejaVuSans-3c3" transform="translate(450.984375 0)"/>
     <use xlink:href="#DejaVuSans-3d" transform="translate(514.363281 0)"/>
     <use xlink:href="#DejaVuSans-32" transform="translate(598.152344 0)"/>
     <use xlink:href="#DejaVuSans-2e" transform="translate(661.775391 0)"/>
     <use xlink:href="#DejaVuSans-38" transform="translate(693.5625 0)"/>
     <use xlink:href="#DejaVuSans-73" transform="translate(757.185547 0)"/>
     <use xlink:href="#DejaVuSans-20" transform="translate(809.285156 0)"/>
     <use xlink:href="#DejaVuSans-20" transform="translate(841.072266 0)"/>
     <use xlink:href="#DejaVuSans-64" transform="translate(872.859375 0)"/>
     <use xlink:href="#DejaVuSans-61" transform="translate(936.335938 0)"/>
     <use xlink:href="#DejaVuSans-74" transform="translate(997.615234 0)"/>
     <use xlink:href="#DejaVuSans-61" transform="translate(1036.824219 0)"/>
     <use xlink:href="#DejaVuSans-5f" transform="translate(1098.103516 0)"/>
     <use xlink:href="#DejaVuSans-36" transform="translate(1148.103516 0)"/>
     <use xlink:href="#DejaVuSans-5f" transform="translate(1211.726562 0)"/>
     <use xlink:href="#DejaVuSans-45" transform="translate(1261.726562 0)"/>
     <use xlink:href="#DejaVuSans-34" transform="translate(1324.910156 0)"/>
     <use xlink:href="#DejaVuSans-29" transform="translate(1388.533203 0)"/>
    </g>
   </g>
   <g id="legend_1">
    <g id="patch_7">
     <path d="M 45.27 77.474375 
L 138.17625 77.474375 
Q 140.17625 77.474375 140.17625 75.474375 
L 140.17625 32.44 
Q 140.17625 30.44 138.17625 30.44 
L 45.27 30.44 
Q 43.27 30.44 43.27 32.44 
L 43.27 75.474375 
Q 43.27 77.474375 45.27 77.474375 
z
" style="fill: #ffffff; opacity: 0.8; stroke: #cccccc; stroke-linejoin: miter"/>
    </g>
    <g id="line2d_32">
     <path d="M 47.27 38.538437 
L 57.27 38.538437 
L 67.27 38.538437 
" style="fill: none; stroke-dasharray: 1.85,0.8; stroke-dashoffset: 0; stroke: #1f77b4; stroke-width: 0.5"/>
    </g>
    <g id="text_18">
     <!-- Filtered EDA -->
     <g transform="translate(75.27 42.038437) scale(0.1 -0.1)">
      <defs>
       <path id="DejaVuSans-46" d="M 628 4666 
L 3309 4666 
L 3309 4134 
L 1259 4134 
L 1259 2759 
L 3109 2759 
L 3109 2228 
L 1259 2228 
L 1259 0 
L 628 0 
L 628 4666 
z
" transform="scale(0.015625)"/>
       <path id="DejaVuSans-72" d="M 2631 2963 
Q 2534 3019 2420 3045 
Q 2306 3072 2169 3072 
Q 1681 3072 1420 2755 
Q 1159 2438 1159 1844 
L 1159 0 
L 581 0 
L 581 3500 
L 1159 3500 
L 1159 2956 
Q 1341 3275 1631 3429 
Q 1922 3584 2338 3584 
Q 2397 3584 2469 3576 
Q 2541 3569 2628 3553 
L 2631 2963 
z
" transform="scale(0.015625)"/>
      </defs>
      <use xlink:href="#DejaVuSans-46"/>
      <use xlink:href="#DejaVuSans-69" transform="translate(50.269531 0)"/>
      <use xlink:href="#DejaVuSans-6c" transform="translate(78.052734 0)"/>
      <use xlink:href="#DejaVuSans-74" transform="translate(105.835938 0)"/>
      <use xlink:href="#DejaVuSans-65" transform="translate(145.044922 0)"/>
      <use xlink:href="#DejaVuSans-72" transform="translate(206.568359 0)"/>
      <use xlink:href="#DejaVuSans-65" transform="translate(245.431641 0)"/>
      <use xlink:href="#DejaVuSans-64" transform="translate(306.955078 0)"/>
      <use xlink:href="#DejaVuSans-20" transform="translate(370.431641 0)"/>
      <use xlink:href="#DejaVuSans-45" transform="translate(402.21875 0)"/>
      <use xlink:href="#DejaVuSans-44" transform="translate(465.402344 0)"/>
      <use xlink:href="#DejaVuSans-41" transform="translate(540.654297 0)"/>
     </g>
    </g>
    <g id="line2d_33">
     <path d="M 47.27 53.216562 
L 57.27 53.216562 
L 67.27 53.216562 
" style="fill: none; stroke: #ff7f0e; stroke-width: 0.5; stroke-linecap: square"/>
    </g>
    <g id="text_19">
     <!-- Tonic -->
     <g transform="translate(75.27 56.716562) scale(0.1 -0.1)">
      <defs>
       <path id="DejaVuSans-6f" d="M 1959 3097 
Q 1497 3097 1228 2736 
Q 959 2375 959 1747 
Q 959 1119 1226 758 
Q 1494 397 1959 397 
Q 2419 397 2687 759 
Q 2956 1122 2956 1747 
Q 2956 2369 2687 2733 
Q 2419 3097 1959 3097 
z
M 1959 3584 
Q 2709 3584 3137 3096 
Q 3566 2609 3566 1747 
Q 3566 888 3137 398 
Q 2709 -91 1959 -91 
Q 1206 -91 779 398 
Q 353 888 353 1747 
Q 353 2609 779 3096 
Q 1206 3584 1959 3584 
z
" transform="scale(0.015625)"/>
      </defs>
      <use xlink:href="#DejaVuSans-54"/>
      <use xlink:href="#DejaVuSans-6f" transform="translate(44.083984 0)"/>
      <use xlink:href="#DejaVuSans-6e" transform="translate(105.265625 0)"/>
      <use xlink:href="#DejaVuSans-69" transform="translate(168.644531 0)"/>
      <use xlink:href="#DejaVuSans-63" transform="translate(196.427734 0)"/>
     </g>
    </g>
    <g id="line2d_34">
     <path d="M 47.27 67.894687 
L 57.27 67.894687 
L 67.27 67.894687 
" style="fill: none; stroke: #2ca02c; stroke-width: 0.5; stroke-linecap: square"/>
    </g>
    <g id="text_20">
     <!-- Phasic -->
     <g transform="translate(75.27 71.394687) scale(0.1 -0.1)">
      <defs>
       <path id="DejaVuSans-50" d="M 1259 4147 
L 1259 2394 
L 2053 2394 
Q 2494 2394 2734 2622 
Q 2975 2850 2975 3272 
Q 2975 3691 2734 3919 
Q 2494 4147 2053 4147 
L 1259 4147 
z
M 628 4666 
L 2053 4666 
Q 2838 4666 3239 4311 
Q 3641 3956 3641 3272 
Q 3641 2581 3239 2228 
Q 2838 1875 2053 1875 
L 1259 1875 
L 1259 0 
L 628 0 
L 628 4666 
z
" transform="scale(0.015625)"/>
       <path id="DejaVuSans-68" d="M 3513 2113 
L 3513 0 
L 2938 0 
L 2938 2094 
Q 2938 2591 2744 2837 
Q 2550 3084 2163 3084 
Q 1697 3084 1428 2787 
Q 1159 2491 1159 1978 
L 1159 0 
L 581 0 
L 581 4863 
L 1159 4863 
L 1159 2956 
Q 1366 3272 1645 3428 
Q 1925 3584 2291 3584 
Q 2894 3584 3203 3211 
Q 3513 2838 3513 2113 
z
" transform="scale(0.015625)"/>
      </defs>
      <use xlink:href="#DejaVuSans-50"/>
      <use xlink:href="#DejaVuSans-68" transform="translate(60.302734 0)"/>
      <use xlink:href="#DejaVuSans-61" transform="translate(123.681641 0)"/>
      <use xlink:href="#DejaVuSans-73" transform="translate(184.960938 0)"/>
      <use xlink:href="#DejaVuSans-69" transform="translate(237.060547 0)"/>
      <use xlink:href="#DejaVuSans-63" transform="translate(264.84375 0)"/>
     </g>
    </g>
   </g>
  </g>
 </g>
 <defs>
  <clipPath id="pcb73470484">
   <rect x="38.27" y="25.44" width="411.73" height="278.2"/>
  </clipPath>
 </defs>
</svg>
