<?xml version="1.0" encoding="utf-8" standalone="no"?>
<!DOCTYPE svg PUBLIC "-//W3C//DTD SVG 1.1//EN"
  "http://www.w3.org/Graphics/SVG/1.1/DTD/svg11.dtd">
<svg xmlns:xlink="http://www.w3.org/1999/xlink" width="460.8pt" height="345.6pt" viewBox="0 0 460.8 345.6" xmlns="http://www.w3.org/2000/svg" version="1.1">
 <metadata>
  <rdf:RDF xmlns:dc="http://purl.org/dc/elements/1.1/" xmlns:cc="http://creativecommons.org/ns#" xmlns:rdf="http://www.w3.org/1999/02/22-rdf-syntax-ns#">
   <cc:Work>
    <dc:type rdf:resource="http://purl.org/dc/dcmitype/StillImage"/>
    <dc:date>2025-09-22T14:18:51.586814</dc:date>
    <dc:format>image/svg+xml</dc:format>
    <dc:creator>
     <cc:Agent>
      <dc:title>Matplotlib v3.10.0, https://matplotlib.org/</dc:title>
     </cc:Agent>
    </dc:creator>
   </cc:Work>
  </rdf:RDF>
 </metadata>
 <defs>
  <style type="text/css">*{stroke-linejoin: round; stroke-linecap: butt}</style>
 </defs>
 <g id="figure_1">
  <g id="patch_1">
   <path d="M 0 345.6 
L 460.8 345.6 
L 460.8 0 
L 0 0 
z
" style="fill: #ffffff"/>
  </g>
  <g id="axes_1">
   <g id="patch_2">
    <path d="M 38.27 303.64 
L 450 303.64 
L 450 25.44 
L 38.27 25.44 
z
" style="fill: #ffffff"/>
   </g>
   <g id="matplotlib.axis_1">
    <g id="xtick_1">
     <g id="line2d_1">
      <path d="M 56.985 303.64 
L 56.985 25.44 
" clip-path="url(#p8672be23ff)" style="fill: none; stroke: #b0b0b0; stroke-opacity: 0.3; stroke-width: 0.8; stroke-linecap: square"/>
     </g>
     <g id="line2d_2">
      <defs>
       <path id="m98e78c0258" d="M 0 0 
L 0 3.5 
" style="stroke: #000000; stroke-width: 0.8"/>
      </defs>
      <g>
       <use xlink:href="#m98e78c0258" x="56.985" y="303.64" style="stroke: #000000; stroke-width: 0.8"/>
      </g>
     </g>
     <g id="text_1">
      <!-- 0 -->
      <g transform="translate(53.80375 318.238437) scale(0.1 -0.1)">
       <defs>
        <path id="DejaVuSans-30" d="M 2034 4250 
Q 1547 4250 1301 3770 
Q 1056 3291 1056 2328 
Q 1056 1369 1301 889 
Q 1547 409 2034 409 
Q 2525 409 2770 889 
Q 3016 1369 3016 2328 
Q 3016 3291 2770 3770 
Q 2525 4250 2034 4250 
z
M 2034 4750 
Q 2819 4750 3233 4129 
Q 3647 3509 3647 2328 
Q 3647 1150 3233 529 
Q 2819 -91 2034 -91 
Q 1250 -91 836 529 
Q 422 1150 422 2328 
Q 422 3509 836 4129 
Q 1250 4750 2034 4750 
z
" transform="scale(0.015625)"/>
       </defs>
       <use xlink:href="#DejaVuSans-30"/>
      </g>
     </g>
    </g>
    <g id="xtick_2">
     <g id="line2d_3">
      <path d="M 106.891667 303.64 
L 106.891667 25.44 
" clip-path="url(#p8672be23ff)" style="fill: none; stroke: #b0b0b0; stroke-opacity: 0.3; stroke-width: 0.8; stroke-linecap: square"/>
     </g>
     <g id="line2d_4">
      <g>
       <use xlink:href="#m98e78c0258" x="106.891667" y="303.64" style="stroke: #000000; stroke-width: 0.8"/>
      </g>
     </g>
     <g id="text_2">
      <!-- 2 -->
      <g transform="translate(103.710417 318.238437) scale(0.1 -0.1)">
       <defs>
        <path id="DejaVuSans-32" d="M 1228 531 
L 3431 531 
L 3431 0 
L 469 0 
L 469 531 
Q 828 903 1448 1529 
Q 2069 2156 2228 2338 
Q 2531 2678 2651 2914 
Q 2772 3150 2772 3378 
Q 2772 3750 2511 3984 
Q 2250 4219 1831 4219 
Q 1534 4219 1204 4116 
Q 875 4013 500 3803 
L 500 4441 
Q 881 4594 1212 4672 
Q 1544 4750 1819 4750 
Q 2544 4750 2975 4387 
Q 3406 4025 3406 3419 
Q 3406 3131 3298 2873 
Q 3191 2616 2906 2266 
Q 2828 2175 2409 1742 
Q 1991 1309 1228 531 
z
" transform="scale(0.015625)"/>
       </defs>
       <use xlink:href="#DejaVuSans-32"/>
      </g>
     </g>
    </g>
    <g id="xtick_3">
     <g id="line2d_5">
      <path d="M 156.798333 303.64 
L 156.798333 25.44 
" clip-path="url(#p8672be23ff)" style="fill: none; stroke: #b0b0b0; stroke-opacity: 0.3; stroke-width: 0.8; stroke-linecap: square"/>
     </g>
     <g id="line2d_6">
      <g>
       <use xlink:href="#m98e78c0258" x="156.798333" y="303.64" style="stroke: #000000; stroke-width: 0.8"/>
      </g>
     </g>
     <g id="text_3">
      <!-- 4 -->
      <g transform="translate(153.617083 318.238437) scale(0.1 -0.1)">
       <defs>
        <path id="DejaVuSans-34" d="M 2419 4116 
L 825 1625 
L 2419 1625 
L 2419 4116 
z
M 2253 4666 
L 3047 4666 
L 3047 1625 
L 3713 1625 
L 3713 1100 
L 3047 1100 
L 3047 0 
L 2419 0 
L 2419 1100 
L 313 1100 
L 313 1709 
L 2253 4666 
z
" transform="scale(0.015625)"/>
       </defs>
       <use xlink:href="#DejaVuSans-34"/>
      </g>
     </g>
    </g>
    <g id="xtick_4">
     <g id="line2d_7">
      <path d="M 206.705 303.64 
L 206.705 25.44 
" clip-path="url(#p8672be23ff)" style="fill: none; stroke: #b0b0b0; stroke-opacity: 0.3; stroke-width: 0.8; stroke-linecap: square"/>
     </g>
     <g id="line2d_8">
      <g>
       <use xlink:href="#m98e78c0258" x="206.705" y="303.64" style="stroke: #000000; stroke-width: 0.8"/>
      </g>
     </g>
     <g id="text_4">
      <!-- 6 -->
      <g transform="translate(203.52375 318.238437) scale(0.1 -0.1)">
       <defs>
        <path id="DejaVuSans-36" d="M 2113 2584 
Q 1688 2584 1439 2293 
Q 1191 2003 1191 1497 
Q 1191 994 1439 701 
Q 1688 409 2113 409 
Q 2538 409 2786 701 
Q 3034 994 3034 1497 
Q 3034 2003 2786 2293 
Q 2538 2584 2113 2584 
z
M 3366 4563 
L 3366 3988 
Q 3128 4100 2886 4159 
Q 2644 4219 2406 4219 
Q 1781 4219 1451 3797 
Q 1122 3375 1075 2522 
Q 1259 2794 1537 2939 
Q 1816 3084 2150 3084 
Q 2853 3084 3261 2657 
Q 3669 2231 3669 1497 
Q 3669 778 3244 343 
Q 2819 -91 2113 -91 
Q 1303 -91 875 529 
Q 447 1150 447 2328 
Q 447 3434 972 4092 
Q 1497 4750 2381 4750 
Q 2619 4750 2861 4703 
Q 3103 4656 3366 4563 
z
" transform="scale(0.015625)"/>
       </defs>
       <use xlink:href="#DejaVuSans-36"/>
      </g>
     </g>
    </g>
    <g id="xtick_5">
     <g id="line2d_9">
      <path d="M 256.611667 303.64 
L 256.611667 25.44 
" clip-path="url(#p8672be23ff)" style="fill: none; stroke: #b0b0b0; stroke-opacity: 0.3; stroke-width: 0.8; stroke-linecap: square"/>
     </g>
     <g id="line2d_10">
      <g>
       <use xlink:href="#m98e78c0258" x="256.611667" y="303.64" style="stroke: #000000; stroke-width: 0.8"/>
      </g>
     </g>
     <g id="text_5">
      <!-- 8 -->
      <g transform="translate(253.430417 318.238437) scale(0.1 -0.1)">
       <defs>
        <path id="DejaVuSans-38" d="M 2034 2216 
Q 1584 2216 1326 1975 
Q 1069 1734 1069 1313 
Q 1069 891 1326 650 
Q 1584 409 2034 409 
Q 2484 409 2743 651 
Q 3003 894 3003 1313 
Q 3003 1734 2745 1975 
Q 2488 2216 2034 2216 
z
M 1403 2484 
Q 997 2584 770 2862 
Q 544 3141 544 3541 
Q 544 4100 942 4425 
Q 1341 4750 2034 4750 
Q 2731 4750 3128 4425 
Q 3525 4100 3525 3541 
Q 3525 3141 3298 2862 
Q 3072 2584 2669 2484 
Q 3125 2378 3379 2068 
Q 3634 1759 3634 1313 
Q 3634 634 3220 271 
Q 2806 -91 2034 -91 
Q 1263 -91 848 271 
Q 434 634 434 1313 
Q 434 1759 690 2068 
Q 947 2378 1403 2484 
z
M 1172 3481 
Q 1172 3119 1398 2916 
Q 1625 2713 2034 2713 
Q 2441 2713 2670 2916 
Q 2900 3119 2900 3481 
Q 2900 3844 2670 4047 
Q 2441 4250 2034 4250 
Q 1625 4250 1398 4047 
Q 1172 3844 1172 3481 
z
" transform="scale(0.015625)"/>
       </defs>
       <use xlink:href="#DejaVuSans-38"/>
      </g>
     </g>
    </g>
    <g id="xtick_6">
     <g id="line2d_11">
      <path d="M 306.518333 303.64 
L 306.518333 25.44 
" clip-path="url(#p8672be23ff)" style="fill: none; stroke: #b0b0b0; stroke-opacity: 0.3; stroke-width: 0.8; stroke-linecap: square"/>
     </g>
     <g id="line2d_12">
      <g>
       <use xlink:href="#m98e78c0258" x="306.518333" y="303.64" style="stroke: #000000; stroke-width: 0.8"/>
      </g>
     </g>
     <g id="text_6">
      <!-- 10 -->
      <g transform="translate(300.155833 318.238437) scale(0.1 -0.1)">
       <defs>
        <path id="DejaVuSans-31" d="M 794 531 
L 1825 531 
L 1825 4091 
L 703 3866 
L 703 4441 
L 1819 4666 
L 2450 4666 
L 2450 531 
L 3481 531 
L 3481 0 
L 794 0 
L 794 531 
z
" transform="scale(0.015625)"/>
       </defs>
       <use xlink:href="#DejaVuSans-31"/>
       <use xlink:href="#DejaVuSans-30" transform="translate(63.623047 0)"/>
      </g>
     </g>
    </g>
    <g id="xtick_7">
     <g id="line2d_13">
      <path d="M 356.425 303.64 
L 356.425 25.44 
" clip-path="url(#p8672be23ff)" style="fill: none; stroke: #b0b0b0; stroke-opacity: 0.3; stroke-width: 0.8; stroke-linecap: square"/>
     </g>
     <g id="line2d_14">
      <g>
       <use xlink:href="#m98e78c0258" x="356.425" y="303.64" style="stroke: #000000; stroke-width: 0.8"/>
      </g>
     </g>
     <g id="text_7">
      <!-- 12 -->
      <g transform="translate(350.0625 318.238437) scale(0.1 -0.1)">
       <use xlink:href="#DejaVuSans-31"/>
       <use xlink:href="#DejaVuSans-32" transform="translate(63.623047 0)"/>
      </g>
     </g>
    </g>
    <g id="xtick_8">
     <g id="line2d_15">
      <path d="M 406.331667 303.64 
L 406.331667 25.44 
" clip-path="url(#p8672be23ff)" style="fill: none; stroke: #b0b0b0; stroke-opacity: 0.3; stroke-width: 0.8; stroke-linecap: square"/>
     </g>
     <g id="line2d_16">
      <g>
       <use xlink:href="#m98e78c0258" x="406.331667" y="303.64" style="stroke: #000000; stroke-width: 0.8"/>
      </g>
     </g>
     <g id="text_8">
      <!-- 14 -->
      <g transform="translate(399.969167 318.238437) scale(0.1 -0.1)">
       <use xlink:href="#DejaVuSans-31"/>
       <use xlink:href="#DejaVuSans-34" transform="translate(63.623047 0)"/>
      </g>
     </g>
    </g>
    <g id="text_9">
     <!-- Time (minutes) -->
     <g transform="translate(206.1725 331.916562) scale(0.1 -0.1)">
      <defs>
       <path id="DejaVuSans-54" d="M -19 4666 
L 3928 4666 
L 3928 4134 
L 2272 4134 
L 2272 0 
L 1638 0 
L 1638 4134 
L -19 4134 
L -19 4666 
z
" transform="scale(0.015625)"/>
       <path id="DejaVuSans-69" d="M 603 3500 
L 1178 3500 
L 1178 0 
L 603 0 
L 603 3500 
z
M 603 4863 
L 1178 4863 
L 1178 4134 
L 603 4134 
L 603 4863 
z
" transform="scale(0.015625)"/>
       <path id="DejaVuSans-6d" d="M 3328 2828 
Q 3544 3216 3844 3400 
Q 4144 3584 4550 3584 
Q 5097 3584 5394 3201 
Q 5691 2819 5691 2113 
L 5691 0 
L 5113 0 
L 5113 2094 
Q 5113 2597 4934 2840 
Q 4756 3084 4391 3084 
Q 3944 3084 3684 2787 
Q 3425 2491 3425 1978 
L 3425 0 
L 2847 0 
L 2847 2094 
Q 2847 2600 2669 2842 
Q 2491 3084 2119 3084 
Q 1678 3084 1418 2786 
Q 1159 2488 1159 1978 
L 1159 0 
L 581 0 
L 581 3500 
L 1159 3500 
L 1159 2956 
Q 1356 3278 1631 3431 
Q 1906 3584 2284 3584 
Q 2666 3584 2933 3390 
Q 3200 3197 3328 2828 
z
" transform="scale(0.015625)"/>
       <path id="DejaVuSans-65" d="M 3597 1894 
L 3597 1613 
L 953 1613 
Q 991 1019 1311 708 
Q 1631 397 2203 397 
Q 2534 397 2845 478 
Q 3156 559 3463 722 
L 3463 178 
Q 3153 47 2828 -22 
Q 2503 -91 2169 -91 
Q 1331 -91 842 396 
Q 353 884 353 1716 
Q 353 2575 817 3079 
Q 1281 3584 2069 3584 
Q 2775 3584 3186 3129 
Q 3597 2675 3597 1894 
z
M 3022 2063 
Q 3016 2534 2758 2815 
Q 2500 3097 2075 3097 
Q 1594 3097 1305 2825 
Q 1016 2553 972 2059 
L 3022 2063 
z
" transform="scale(0.015625)"/>
       <path id="DejaVuSans-20" transform="scale(0.015625)"/>
       <path id="DejaVuSans-28" d="M 1984 4856 
Q 1566 4138 1362 3434 
Q 1159 2731 1159 2009 
Q 1159 1288 1364 580 
Q 1569 -128 1984 -844 
L 1484 -844 
Q 1016 -109 783 600 
Q 550 1309 550 2009 
Q 550 2706 781 3412 
Q 1013 4119 1484 4856 
L 1984 4856 
z
" transform="scale(0.015625)"/>
       <path id="DejaVuSans-6e" d="M 3513 2113 
L 3513 0 
L 2938 0 
L 2938 2094 
Q 2938 2591 2744 2837 
Q 2550 3084 2163 3084 
Q 1697 3084 1428 2787 
Q 1159 2491 1159 1978 
L 1159 0 
L 581 0 
L 581 3500 
L 1159 3500 
L 1159 2956 
Q 1366 3272 1645 3428 
Q 1925 3584 2291 3584 
Q 2894 3584 3203 3211 
Q 3513 2838 3513 2113 
z
" transform="scale(0.015625)"/>
       <path id="DejaVuSans-75" d="M 544 1381 
L 544 3500 
L 1119 3500 
L 1119 1403 
Q 1119 906 1312 657 
Q 1506 409 1894 409 
Q 2359 409 2629 706 
Q 2900 1003 2900 1516 
L 2900 3500 
L 3475 3500 
L 3475 0 
L 2900 0 
L 2900 538 
Q 2691 219 2414 64 
Q 2138 -91 1772 -91 
Q 1169 -91 856 284 
Q 544 659 544 1381 
z
M 1991 3584 
L 1991 3584 
z
" transform="scale(0.015625)"/>
       <path id="DejaVuSans-74" d="M 1172 4494 
L 1172 3500 
L 2356 3500 
L 2356 3053 
L 1172 3053 
L 1172 1153 
Q 1172 725 1289 603 
Q 1406 481 1766 481 
L 2356 481 
L 2356 0 
L 1766 0 
Q 1100 0 847 248 
Q 594 497 594 1153 
L 594 3053 
L 172 3053 
L 172 3500 
L 594 3500 
L 594 4494 
L 1172 4494 
z
" transform="scale(0.015625)"/>
       <path id="DejaVuSans-73" d="M 2834 3397 
L 2834 2853 
Q 2591 2978 2328 3040 
Q 2066 3103 1784 3103 
Q 1356 3103 1142 2972 
Q 928 2841 928 2578 
Q 928 2378 1081 2264 
Q 1234 2150 1697 2047 
L 1894 2003 
Q 2506 1872 2764 1633 
Q 3022 1394 3022 966 
Q 3022 478 2636 193 
Q 2250 -91 1575 -91 
Q 1294 -91 989 -36 
Q 684 19 347 128 
L 347 722 
Q 666 556 975 473 
Q 1284 391 1588 391 
Q 1994 391 2212 530 
Q 2431 669 2431 922 
Q 2431 1156 2273 1281 
Q 2116 1406 1581 1522 
L 1381 1569 
Q 847 1681 609 1914 
Q 372 2147 372 2553 
Q 372 3047 722 3315 
Q 1072 3584 1716 3584 
Q 2034 3584 2315 3537 
Q 2597 3491 2834 3397 
z
" transform="scale(0.015625)"/>
       <path id="DejaVuSans-29" d="M 513 4856 
L 1013 4856 
Q 1481 4119 1714 3412 
Q 1947 2706 1947 2009 
Q 1947 1309 1714 600 
Q 1481 -109 1013 -844 
L 513 -844 
Q 928 -128 1133 580 
Q 1338 1288 1338 2009 
Q 1338 2731 1133 3434 
Q 928 4138 513 4856 
z
" transform="scale(0.015625)"/>
      </defs>
      <use xlink:href="#DejaVuSans-54"/>
      <use xlink:href="#DejaVuSans-69" transform="translate(57.958984 0)"/>
      <use xlink:href="#DejaVuSans-6d" transform="translate(85.742188 0)"/>
      <use xlink:href="#DejaVuSans-65" transform="translate(183.154297 0)"/>
      <use xlink:href="#DejaVuSans-20" transform="translate(244.677734 0)"/>
      <use xlink:href="#DejaVuSans-28" transform="translate(276.464844 0)"/>
      <use xlink:href="#DejaVuSans-6d" transform="translate(315.478516 0)"/>
      <use xlink:href="#DejaVuSans-69" transform="translate(412.890625 0)"/>
      <use xlink:href="#DejaVuSans-6e" transform="translate(440.673828 0)"/>
      <use xlink:href="#DejaVuSans-75" transform="translate(504.052734 0)"/>
      <use xlink:href="#DejaVuSans-74" transform="translate(567.431641 0)"/>
      <use xlink:href="#DejaVuSans-65" transform="translate(606.640625 0)"/>
      <use xlink:href="#DejaVuSans-73" transform="translate(668.164062 0)"/>
      <use xlink:href="#DejaVuSans-29" transform="translate(720.263672 0)"/>
     </g>
    </g>
   </g>
   <g id="matplotlib.axis_2">
    <g id="ytick_1">
     <g id="line2d_17">
      <path d="M 38.27 287.035159 
L 450 287.035159 
" clip-path="url(#p8672be23ff)" style="fill: none; stroke: #b0b0b0; stroke-opacity: 0.3; stroke-width: 0.8; stroke-linecap: square"/>
     </g>
     <g id="line2d_18">
      <defs>
       <path id="m6f655d0688" d="M 0 0 
L -3.5 0 
" style="stroke: #000000; stroke-width: 0.8"/>
      </defs>
      <g>
       <use xlink:href="#m6f655d0688" x="38.27" y="287.035159" style="stroke: #000000; stroke-width: 0.8"/>
      </g>
     </g>
     <g id="text_10">
      <!-- 0 -->
      <g transform="translate(24.9075 290.834378) scale(0.1 -0.1)">
       <use xlink:href="#DejaVuSans-30"/>
      </g>
     </g>
    </g>
    <g id="ytick_2">
     <g id="line2d_19">
      <path d="M 38.27 238.124218 
L 450 238.124218 
" clip-path="url(#p8672be23ff)" style="fill: none; stroke: #b0b0b0; stroke-opacity: 0.3; stroke-width: 0.8; stroke-linecap: square"/>
     </g>
     <g id="line2d_20">
      <g>
       <use xlink:href="#m6f655d0688" x="38.27" y="238.124218" style="stroke: #000000; stroke-width: 0.8"/>
      </g>
     </g>
     <g id="text_11">
      <!-- 1 -->
      <g transform="translate(24.9075 241.923437) scale(0.1 -0.1)">
       <use xlink:href="#DejaVuSans-31"/>
      </g>
     </g>
    </g>
    <g id="ytick_3">
     <g id="line2d_21">
      <path d="M 38.27 189.213277 
L 450 189.213277 
" clip-path="url(#p8672be23ff)" style="fill: none; stroke: #b0b0b0; stroke-opacity: 0.3; stroke-width: 0.8; stroke-linecap: square"/>
     </g>
     <g id="line2d_22">
      <g>
       <use xlink:href="#m6f655d0688" x="38.27" y="189.213277" style="stroke: #000000; stroke-width: 0.8"/>
      </g>
     </g>
     <g id="text_12">
      <!-- 2 -->
      <g transform="translate(24.9075 193.012496) scale(0.1 -0.1)">
       <use xlink:href="#DejaVuSans-32"/>
      </g>
     </g>
    </g>
    <g id="ytick_4">
     <g id="line2d_23">
      <path d="M 38.27 140.302336 
L 450 140.302336 
" clip-path="url(#p8672be23ff)" style="fill: none; stroke: #b0b0b0; stroke-opacity: 0.3; stroke-width: 0.8; stroke-linecap: square"/>
     </g>
     <g id="line2d_24">
      <g>
       <use xlink:href="#m6f655d0688" x="38.27" y="140.302336" style="stroke: #000000; stroke-width: 0.8"/>
      </g>
     </g>
     <g id="text_13">
      <!-- 3 -->
      <g transform="translate(24.9075 144.101555) scale(0.1 -0.1)">
       <defs>
        <path id="DejaVuSans-33" d="M 2597 2516 
Q 3050 2419 3304 2112 
Q 3559 1806 3559 1356 
Q 3559 666 3084 287 
Q 2609 -91 1734 -91 
Q 1441 -91 1130 -33 
Q 819 25 488 141 
L 488 750 
Q 750 597 1062 519 
Q 1375 441 1716 441 
Q 2309 441 2620 675 
Q 2931 909 2931 1356 
Q 2931 1769 2642 2001 
Q 2353 2234 1838 2234 
L 1294 2234 
L 1294 2753 
L 1863 2753 
Q 2328 2753 2575 2939 
Q 2822 3125 2822 3475 
Q 2822 3834 2567 4026 
Q 2313 4219 1838 4219 
Q 1578 4219 1281 4162 
Q 984 4106 628 3988 
L 628 4550 
Q 988 4650 1302 4700 
Q 1616 4750 1894 4750 
Q 2613 4750 3031 4423 
Q 3450 4097 3450 3541 
Q 3450 3153 3228 2886 
Q 3006 2619 2597 2516 
z
" transform="scale(0.015625)"/>
       </defs>
       <use xlink:href="#DejaVuSans-33"/>
      </g>
     </g>
    </g>
    <g id="ytick_5">
     <g id="line2d_25">
      <path d="M 38.27 91.391396 
L 450 91.391396 
" clip-path="url(#p8672be23ff)" style="fill: none; stroke: #b0b0b0; stroke-opacity: 0.3; stroke-width: 0.8; stroke-linecap: square"/>
     </g>
     <g id="line2d_26">
      <g>
       <use xlink:href="#m6f655d0688" x="38.27" y="91.391396" style="stroke: #000000; stroke-width: 0.8"/>
      </g>
     </g>
     <g id="text_14">
      <!-- 4 -->
      <g transform="translate(24.9075 95.190614) scale(0.1 -0.1)">
       <use xlink:href="#DejaVuSans-34"/>
      </g>
     </g>
    </g>
    <g id="ytick_6">
     <g id="line2d_27">
      <path d="M 38.27 42.480455 
L 450 42.480455 
" clip-path="url(#p8672be23ff)" style="fill: none; stroke: #b0b0b0; stroke-opacity: 0.3; stroke-width: 0.8; stroke-linecap: square"/>
     </g>
     <g id="line2d_28">
      <g>
       <use xlink:href="#m6f655d0688" x="38.27" y="42.480455" style="stroke: #000000; stroke-width: 0.8"/>
      </g>
     </g>
     <g id="text_15">
      <!-- 5 -->
      <g transform="translate(24.9075 46.279673) scale(0.1 -0.1)">
       <defs>
        <path id="DejaVuSans-35" d="M 691 4666 
L 3169 4666 
L 3169 4134 
L 1269 4134 
L 1269 2991 
Q 1406 3038 1543 3061 
Q 1681 3084 1819 3084 
Q 2600 3084 3056 2656 
Q 3513 2228 3513 1497 
Q 3513 744 3044 326 
Q 2575 -91 1722 -91 
Q 1428 -91 1123 -41 
Q 819 9 494 109 
L 494 744 
Q 775 591 1075 516 
Q 1375 441 1709 441 
Q 2250 441 2565 725 
Q 2881 1009 2881 1497 
Q 2881 1984 2565 2268 
Q 2250 2553 1709 2553 
Q 1456 2553 1204 2497 
Q 953 2441 691 2322 
L 691 4666 
z
" transform="scale(0.015625)"/>
       </defs>
       <use xlink:href="#DejaVuSans-35"/>
      </g>
     </g>
    </g>
    <g id="text_16">
     <!-- Gaussian filtered EDA (μS) -->
     <g transform="translate(18.827813 230.613437) rotate(-90) scale(0.1 -0.1)">
      <defs>
       <path id="DejaVuSans-47" d="M 3809 666 
L 3809 1919 
L 2778 1919 
L 2778 2438 
L 4434 2438 
L 4434 434 
Q 4069 175 3628 42 
Q 3188 -91 2688 -91 
Q 1594 -91 976 548 
Q 359 1188 359 2328 
Q 359 3472 976 4111 
Q 1594 4750 2688 4750 
Q 3144 4750 3555 4637 
Q 3966 4525 4313 4306 
L 4313 3634 
Q 3963 3931 3569 4081 
Q 3175 4231 2741 4231 
Q 1884 4231 1454 3753 
Q 1025 3275 1025 2328 
Q 1025 1384 1454 906 
Q 1884 428 2741 428 
Q 3075 428 3337 486 
Q 3600 544 3809 666 
z
" transform="scale(0.015625)"/>
       <path id="DejaVuSans-61" d="M 2194 1759 
Q 1497 1759 1228 1600 
Q 959 1441 959 1056 
Q 959 750 1161 570 
Q 1363 391 1709 391 
Q 2188 391 2477 730 
Q 2766 1069 2766 1631 
L 2766 1759 
L 2194 1759 
z
M 3341 1997 
L 3341 0 
L 2766 0 
L 2766 531 
Q 2569 213 2275 61 
Q 1981 -91 1556 -91 
Q 1019 -91 701 211 
Q 384 513 384 1019 
Q 384 1609 779 1909 
Q 1175 2209 1959 2209 
L 2766 2209 
L 2766 2266 
Q 2766 2663 2505 2880 
Q 2244 3097 1772 3097 
Q 1472 3097 1187 3025 
Q 903 2953 641 2809 
L 641 3341 
Q 956 3463 1253 3523 
Q 1550 3584 1831 3584 
Q 2591 3584 2966 3190 
Q 3341 2797 3341 1997 
z
" transform="scale(0.015625)"/>
       <path id="DejaVuSans-66" d="M 2375 4863 
L 2375 4384 
L 1825 4384 
Q 1516 4384 1395 4259 
Q 1275 4134 1275 3809 
L 1275 3500 
L 2222 3500 
L 2222 3053 
L 1275 3053 
L 1275 0 
L 697 0 
L 697 3053 
L 147 3053 
L 147 3500 
L 697 3500 
L 697 3744 
Q 697 4328 969 4595 
Q 1241 4863 1831 4863 
L 2375 4863 
z
" transform="scale(0.015625)"/>
       <path id="DejaVuSans-6c" d="M 603 4863 
L 1178 4863 
L 1178 0 
L 603 0 
L 603 4863 
z
" transform="scale(0.015625)"/>
       <path id="DejaVuSans-72" d="M 2631 2963 
Q 2534 3019 2420 3045 
Q 2306 3072 2169 3072 
Q 1681 3072 1420 2755 
Q 1159 2438 1159 1844 
L 1159 0 
L 581 0 
L 581 3500 
L 1159 3500 
L 1159 2956 
Q 1341 3275 1631 3429 
Q 1922 3584 2338 3584 
Q 2397 3584 2469 3576 
Q 2541 3569 2628 3553 
L 2631 2963 
z
" transform="scale(0.015625)"/>
       <path id="DejaVuSans-64" d="M 2906 2969 
L 2906 4863 
L 3481 4863 
L 3481 0 
L 2906 0 
L 2906 525 
Q 2725 213 2448 61 
Q 2172 -91 1784 -91 
Q 1150 -91 751 415 
Q 353 922 353 1747 
Q 353 2572 751 3078 
Q 1150 3584 1784 3584 
Q 2172 3584 2448 3432 
Q 2725 3281 2906 2969 
z
M 947 1747 
Q 947 1113 1208 752 
Q 1469 391 1925 391 
Q 2381 391 2643 752 
Q 2906 1113 2906 1747 
Q 2906 2381 2643 2742 
Q 2381 3103 1925 3103 
Q 1469 3103 1208 2742 
Q 947 2381 947 1747 
z
" transform="scale(0.015625)"/>
       <path id="DejaVuSans-45" d="M 628 4666 
L 3578 4666 
L 3578 4134 
L 1259 4134 
L 1259 2753 
L 3481 2753 
L 3481 2222 
L 1259 2222 
L 1259 531 
L 3634 531 
L 3634 0 
L 628 0 
L 628 4666 
z
" transform="scale(0.015625)"/>
       <path id="DejaVuSans-44" d="M 1259 4147 
L 1259 519 
L 2022 519 
Q 2988 519 3436 956 
Q 3884 1394 3884 2338 
Q 3884 3275 3436 3711 
Q 2988 4147 2022 4147 
L 1259 4147 
z
M 628 4666 
L 1925 4666 
Q 3281 4666 3915 4102 
Q 4550 3538 4550 2338 
Q 4550 1131 3912 565 
Q 3275 0 1925 0 
L 628 0 
L 628 4666 
z
" transform="scale(0.015625)"/>
       <path id="DejaVuSans-41" d="M 2188 4044 
L 1331 1722 
L 3047 1722 
L 2188 4044 
z
M 1831 4666 
L 2547 4666 
L 4325 0 
L 3669 0 
L 3244 1197 
L 1141 1197 
L 716 0 
L 50 0 
L 1831 4666 
z
" transform="scale(0.015625)"/>
       <path id="DejaVuSans-3bc" d="M 544 -1331 
L 544 3500 
L 1119 3500 
L 1119 1325 
Q 1119 872 1334 640 
Q 1550 409 1972 409 
Q 2434 409 2667 671 
Q 2900 934 2900 1459 
L 2900 3500 
L 3475 3500 
L 3475 806 
Q 3475 619 3529 530 
Q 3584 441 3700 441 
Q 3728 441 3778 458 
Q 3828 475 3916 513 
L 3916 50 
Q 3788 -22 3673 -56 
Q 3559 -91 3450 -91 
Q 3234 -91 3106 31 
Q 2978 153 2931 403 
Q 2775 156 2548 32 
Q 2322 -91 2016 -91 
Q 1697 -91 1473 31 
Q 1250 153 1119 397 
L 1119 -1331 
L 544 -1331 
z
" transform="scale(0.015625)"/>
       <path id="DejaVuSans-53" d="M 3425 4513 
L 3425 3897 
Q 3066 4069 2747 4153 
Q 2428 4238 2131 4238 
Q 1616 4238 1336 4038 
Q 1056 3838 1056 3469 
Q 1056 3159 1242 3001 
Q 1428 2844 1947 2747 
L 2328 2669 
Q 3034 2534 3370 2195 
Q 3706 1856 3706 1288 
Q 3706 609 3251 259 
Q 2797 -91 1919 -91 
Q 1588 -91 1214 -16 
Q 841 59 441 206 
L 441 856 
Q 825 641 1194 531 
Q 1563 422 1919 422 
Q 2459 422 2753 634 
Q 3047 847 3047 1241 
Q 3047 1584 2836 1778 
Q 2625 1972 2144 2069 
L 1759 2144 
Q 1053 2284 737 2584 
Q 422 2884 422 3419 
Q 422 4038 858 4394 
Q 1294 4750 2059 4750 
Q 2388 4750 2728 4690 
Q 3069 4631 3425 4513 
z
" transform="scale(0.015625)"/>
      </defs>
      <use xlink:href="#DejaVuSans-47"/>
      <use xlink:href="#DejaVuSans-61" transform="translate(77.490234 0)"/>
      <use xlink:href="#DejaVuSans-75" transform="translate(138.769531 0)"/>
      <use xlink:href="#DejaVuSans-73" transform="translate(202.148438 0)"/>
      <use xlink:href="#DejaVuSans-73" transform="translate(254.248047 0)"/>
      <use xlink:href="#DejaVuSans-69" transform="translate(306.347656 0)"/>
      <use xlink:href="#DejaVuSans-61" transform="translate(334.130859 0)"/>
      <use xlink:href="#DejaVuSans-6e" transform="translate(395.410156 0)"/>
      <use xlink:href="#DejaVuSans-20" transform="translate(458.789062 0)"/>
      <use xlink:href="#DejaVuSans-66" transform="translate(490.576172 0)"/>
      <use xlink:href="#DejaVuSans-69" transform="translate(525.78125 0)"/>
      <use xlink:href="#DejaVuSans-6c" transform="translate(553.564453 0)"/>
      <use xlink:href="#DejaVuSans-74" transform="translate(581.347656 0)"/>
      <use xlink:href="#DejaVuSans-65" transform="translate(620.556641 0)"/>
      <use xlink:href="#DejaVuSans-72" transform="translate(682.080078 0)"/>
      <use xlink:href="#DejaVuSans-65" transform="translate(720.943359 0)"/>
      <use xlink:href="#DejaVuSans-64" transform="translate(782.466797 0)"/>
      <use xlink:href="#DejaVuSans-20" transform="translate(845.943359 0)"/>
      <use xlink:href="#DejaVuSans-45" transform="translate(877.730469 0)"/>
      <use xlink:href="#DejaVuSans-44" transform="translate(940.914062 0)"/>
      <use xlink:href="#DejaVuSans-41" transform="translate(1016.166016 0)"/>
      <use xlink:href="#DejaVuSans-20" transform="translate(1084.574219 0)"/>
      <use xlink:href="#DejaVuSans-28" transform="translate(1116.361328 0)"/>
      <use xlink:href="#DejaVuSans-3bc" transform="translate(1155.375 0)"/>
      <use xlink:href="#DejaVuSans-53" transform="translate(1218.998047 0)"/>
      <use xlink:href="#DejaVuSans-29" transform="translate(1282.474609 0)"/>
     </g>
    </g>
   </g>
   <g id="line2d_29">
    <path d="M 56.985 107.100355 
L 57.29709 106.885964 
L 57.60918 106.407005 
L 57.92127 105.512329 
L 58.33739 103.518584 
L 60.834111 87.707188 
L 61.666351 81.277131 
L 61.978441 80.041235 
L 62.186501 79.693998 
L 62.394561 79.668922 
L 62.706651 80.054773 
L 64.267101 82.884956 
L 64.787251 83.284117 
L 65.203371 83.346635 
L 66.451732 83.184205 
L 66.867852 83.659441 
L 67.388002 84.680438 
L 68.948452 88.036476 
L 69.260542 88.227942 
L 69.572632 88.11853 
L 69.884722 87.707601 
L 70.508902 86.301598 
L 70.925022 85.532356 
L 71.133082 85.424369 
L 71.341142 85.587863 
L 71.653232 86.405025 
L 72.069352 88.477244 
L 72.797563 93.766065 
L 73.629803 101.578239 
L 75.294283 118.380454 
L 75.918463 122.092254 
L 76.438613 124.00469 
L 76.958763 125.072878 
L 77.686973 126.375526 
L 78.103093 127.632287 
L 78.623243 129.947274 
L 79.247424 133.844878 
L 80.703844 143.853819 
L 81.223994 145.791112 
L 81.952204 147.430987 
L 82.368324 148.569051 
L 82.888474 150.792135 
L 84.240864 157.287546 
L 86.113405 163.375847 
L 86.425495 163.873645 
L 86.633555 163.94773 
L 86.841615 163.770225 
L 87.153705 162.968571 
L 87.569825 160.92355 
L 88.506095 155.783123 
L 88.714155 155.398019 
L 88.922215 155.411892 
L 89.130275 155.776481 
L 89.546395 157.208237 
L 91.002815 162.98196 
L 91.418936 163.879395 
L 91.626996 164.026307 
L 91.835056 163.927571 
L 92.147146 163.320667 
L 93.395506 159.956888 
L 93.603566 160.07763 
L 93.915656 160.710592 
L 95.059986 163.82903 
L 95.268046 163.861995 
L 95.476106 163.560676 
L 95.684166 162.856449 
L 95.996256 160.876223 
L 96.412376 156.078261 
L 96.932526 146.150317 
L 97.972827 123.626771 
L 98.284917 120.867746 
L 98.492977 120.584913 
L 98.701037 121.420531 
L 99.013127 124.293389 
L 99.741337 134.37056 
L 100.573577 144.595799 
L 101.197757 149.471212 
L 101.925967 153.223268 
L 102.758207 156.438939 
L 103.382387 158.104217 
L 103.902538 158.883464 
L 105.046868 160.076843 
L 105.567018 161.289574 
L 106.503288 164.291904 
L 107.335528 166.685413 
L 107.855678 167.577278 
L 108.271798 167.927969 
L 108.687918 167.998792 
L 109.104038 167.830843 
L 109.936278 167.119255 
L 110.456429 166.831699 
L 110.872549 166.834346 
L 113.369269 167.576893 
L 116.38614 169.090959 
L 117.42644 170.106806 
L 118.57077 171.179999 
L 120.44331 172.671812 
L 122.00376 174.026995 
L 123.668241 175.132288 
L 124.708541 175.688034 
L 126.685111 176.494277 
L 127.725411 177.130286 
L 128.661681 178.059761 
L 130.638252 180.086928 
L 131.262432 180.464167 
L 131.782582 180.523944 
L 132.926912 180.432591 
L 133.447062 180.713083 
L 134.695422 181.77668 
L 135.319603 182.628585 
L 136.671993 184.72178 
L 139.376773 187.638954 
L 141.665434 189.856231 
L 142.601704 190.623241 
L 145.098424 192.303989 
L 146.450814 193.642944 
L 147.179024 194.725247 
L 148.219325 196.333217 
L 148.739475 196.703418 
L 150.612015 197.569515 
L 151.444255 198.351859 
L 152.900675 199.931966 
L 153.628885 200.240192 
L 154.565156 200.701024 
L 162.575467 205.993865 
L 163.823827 206.794018 
L 166.320548 208.193021 
L 168.401148 209.520834 
L 171.001898 210.938891 
L 172.458319 211.78921 
L 175.475189 213.576039 
L 179.74042 215.680616 
L 181.61296 215.975554 
L 182.75729 216.26934 
L 184.31774 216.521695 
L 185.670131 217.174374 
L 187.022521 217.726254 
L 190.559541 218.953763 
L 195.344922 221.140284 
L 198.049703 222.585263 
L 201.274633 224.63654 
L 203.355233 225.665621 
L 205.331804 226.657422 
L 207.828524 227.939078 
L 209.076884 228.418227 
L 210.429275 228.938063 
L 213.446145 230.387117 
L 216.671076 231.730141 
L 217.815406 232.50836 
L 219.167796 233.494495 
L 220.104066 233.845201 
L 222.080636 234.520275 
L 226.553927 236.395179 
L 229.050648 237.28936 
L 232.275578 238.423123 
L 234.564238 239.284065 
L 236.436779 239.522922 
L 237.269019 239.462603 
L 238.309319 239.325017 
L 238.829469 239.495588 
L 239.661709 240.068685 
L 241.014099 240.953263 
L 242.36649 241.772581 
L 243.82291 242.865819 
L 244.55112 243.036618 
L 246.31963 243.267366 
L 250.792921 244.454372 
L 256.826662 245.50435 
L 260.467713 246.318683 
L 260.987863 246.240502 
L 261.403983 245.935146 
L 261.820103 245.344457 
L 263.068463 243.282475 
L 263.484583 243.111523 
L 264.004733 243.229633 
L 267.333694 244.5706 
L 268.582054 244.90565 
L 269.414294 244.884242 
L 270.454594 244.604265 
L 271.494894 244.316496 
L 272.119074 244.391372 
L 273.991615 244.883087 
L 275.656095 245.003973 
L 282.938196 246.450262 
L 283.562376 246.371584 
L 284.602676 245.90626 
L 285.122827 245.41467 
L 286.163127 244.20895 
L 286.475217 244.209303 
L 286.891337 244.494485 
L 287.931637 245.327786 
L 288.867907 245.690463 
L 292.925078 246.868709 
L 293.965378 246.980124 
L 294.693588 246.822055 
L 297.398369 245.912047 
L 298.022549 246.016454 
L 301.975689 247.304807 
L 303.7442 247.725862 
L 305.92883 247.71569 
L 306.76107 247.618934 
L 308.52958 247.261154 
L 309.15376 247.105082 
L 309.56988 246.770172 
L 310.194061 245.899738 
L 310.818241 245.069121 
L 311.234361 244.835345 
L 311.650481 244.883117 
L 312.378691 245.297067 
L 313.210931 245.689587 
L 313.627051 245.681657 
L 314.043171 245.435405 
L 314.563321 244.803723 
L 315.395561 243.789604 
L 315.915712 243.521111 
L 316.747952 243.40604 
L 318.828552 243.30257 
L 319.556762 242.824933 
L 320.493032 242.281891 
L 320.909152 241.939177 
L 321.221242 241.391248 
L 321.637362 240.039264 
L 322.157513 237.385632 
L 324.550203 223.981446 
L 325.174383 221.27544 
L 325.902593 219.141419 
L 326.734833 216.811299 
L 327.150953 214.902757 
L 327.567073 211.879272 
L 328.087223 206.202123 
L 328.815434 195.453987 
L 331.000064 161.287729 
L 331.416184 158.590343 
L 332.248424 155.088786 
L 332.560514 152.133068 
L 333.184694 143.068978 
L 333.704844 136.563986 
L 334.016934 134.851132 
L 334.120964 134.705132 
L 334.224994 134.76101 
L 334.433054 135.418483 
L 334.745145 137.465481 
L 336.305595 149.814304 
L 336.721715 151.137695 
L 336.929775 151.247421 
L 337.137835 150.843556 
L 337.345895 149.794128 
L 337.657985 146.779577 
L 338.074105 140.043667 
L 339.946645 104.617922 
L 340.258735 102.158758 
L 340.466795 101.623493 
L 340.570825 101.687926 
L 340.778885 102.385052 
L 341.507096 105.882916 
L 341.611126 105.743778 
L 341.819186 104.517227 
L 342.131276 100.176404 
L 342.651426 88.202162 
L 343.275606 74.532378 
L 343.691726 69.596456 
L 344.211876 66.456449 
L 344.627996 63.515076 
L 345.564266 56.081536 
L 345.876356 55.350208 
L 346.084416 55.348334 
L 346.708596 55.759186 
L 347.228747 55.721597 
L 347.436807 55.986716 
L 347.748897 56.95555 
L 348.373077 59.289175 
L 348.581137 59.4386 
L 348.789197 59.156986 
L 349.517407 57.433943 
L 349.725467 57.484276 
L 350.037557 58.104778 
L 350.765767 60.53437 
L 351.910097 64.399284 
L 352.222187 64.61128 
L 352.534277 64.44346 
L 353.054427 64.104665 
L 353.262487 64.157129 
L 353.470548 64.393026 
L 353.782638 65.213695 
L 354.094728 66.794549 
L 354.510848 70.319048 
L 355.759208 82.832371 
L 356.071298 83.807584 
L 356.383388 84.041777 
L 356.591448 84.167715 
L 356.799508 84.547306 
L 357.111598 85.920906 
L 357.527718 89.196469 
L 358.151898 94.098063 
L 358.359958 94.757427 
L 358.463988 94.811445 
L 358.568018 94.675917 
L 358.776078 93.869047 
L 359.192198 90.793614 
L 359.712349 87.399616 
L 359.920409 87.088551 
L 360.024439 87.214703 
L 360.232499 87.972915 
L 361.168769 92.744668 
L 361.272799 92.681638 
L 361.480859 92.011291 
L 361.896979 89.141694 
L 362.417129 85.893639 
L 362.625189 85.543354 
L 362.729219 85.613335 
L 362.937279 86.190935 
L 363.353399 88.556709 
L 364.705789 97.555903 
L 364.913849 97.830459 
L 365.017879 97.737673 
L 365.225939 97.108354 
L 365.642059 94.598418 
L 366.26624 90.807536 
L 366.68236 89.495171 
L 367.09848 88.89373 
L 367.5146 88.686288 
L 367.93072 88.514412 
L 368.13878 88.187559 
L 368.34684 87.504561 
L 368.65893 85.536194 
L 369.07505 81.060483 
L 369.80326 72.88187 
L 370.01132 72.030575 
L 370.11535 71.9671 
L 370.32341 72.488196 
L 371.15565 76.325524 
L 371.25968 76.238094 
L 371.46774 75.496121 
L 371.77983 73.244905 
L 372.508041 65.69206 
L 373.132221 60.097136 
L 373.340281 59.472395 
L 373.444311 59.541398 
L 373.652371 60.532847 
L 373.964461 64.091066 
L 375.108791 80.834884 
L 375.316851 81.264998 
L 375.524911 80.708572 
L 375.941031 78.011399 
L 376.357151 75.761298 
L 376.565211 75.399095 
L 376.773271 75.546819 
L 377.189391 76.655214 
L 377.605511 77.54132 
L 377.917601 77.712242 
L 378.229691 77.863248 
L 378.437752 78.279429 
L 378.749842 79.802309 
L 379.165962 83.808289 
L 380.102232 96.957062 
L 380.830442 105.088429 
L 381.870742 113.943771 
L 382.182832 115.097947 
L 382.286862 115.04766 
L 382.494922 114.146453 
L 382.807012 110.762669 
L 383.327162 101.393974 
L 384.367462 82.647238 
L 385.615823 64.38218 
L 387.072243 48.242285 
L 387.488363 45.066414 
L 387.800453 43.998606 
L 388.008513 43.980368 
L 388.216573 44.502738 
L 388.528663 46.256307 
L 388.944783 50.266242 
L 389.777023 59.218121 
L 389.985083 59.86518 
L 390.089113 59.787889 
L 390.297173 58.855055 
L 390.609263 55.897421 
L 392.065684 39.466842 
L 392.377774 38.192933 
L 392.481804 38.085455 
L 392.585834 38.142407 
L 392.793894 38.727883 
L 393.105984 40.568632 
L 394.042254 47.024945 
L 394.458374 48.290549 
L 394.874494 49.469947 
L 395.186584 51.190964 
L 395.602704 55.106205 
L 396.851064 68.862004 
L 397.163155 70.189472 
L 397.371215 70.348571 
L 397.579275 69.959432 
L 397.891365 68.571981 
L 398.619575 64.809677 
L 398.827635 64.445375 
L 398.931665 64.452412 
L 399.139725 64.849216 
L 399.451815 66.303569 
L 400.075995 71.040628 
L 400.700175 75.345019 
L 401.012265 76.452996 
L 401.220325 76.750943 
L 401.428385 76.758439 
L 401.740475 76.391821 
L 402.156595 75.467474 
L 402.572715 74.044597 
L 403.717046 69.392109 
L 403.821076 69.3789 
L 404.029136 69.749907 
L 404.341226 71.290752 
L 404.757346 74.843943 
L 406.109736 88.152099 
L 406.421826 89.017504 
L 406.525856 89.024805 
L 406.733916 88.698314 
L 407.670186 86.322674 
L 407.878246 86.46966 
L 408.190336 87.21449 
L 408.918546 89.354513 
L 409.126606 89.551037 
L 409.334666 89.431508 
L 409.542727 88.979505 
L 409.854817 87.739379 
L 410.791087 83.3024 
L 410.999147 83.030972 
L 411.207207 83.183527 
L 411.519297 84.109448 
L 413.287807 91.234555 
L 413.703927 92.885965 
L 414.120047 95.525045 
L 414.848257 102.259215 
L 415.368407 106.429387 
L 415.680497 107.538166 
L 415.784528 107.60518 
L 415.888558 107.519559 
L 416.096618 106.924042 
L 416.512738 104.527477 
L 417.136918 100.779837 
L 417.449008 99.933385 
L 417.657068 99.864324 
L 417.865128 100.159288 
L 418.177218 101.162468 
L 418.697368 103.786863 
L 419.633638 108.490094 
L 420.049758 109.558192 
L 420.465878 110.018162 
L 421.298118 110.628606 
L 421.818268 111.4289 
L 422.338419 112.656713 
L 423.170659 115.37787 
L 424.002899 117.92129 
L 424.523049 118.881546 
L 424.939169 119.190898 
L 425.251259 119.139464 
L 425.563349 118.82778 
L 425.875439 118.214161 
L 426.291559 116.828216 
L 426.915739 113.628541 
L 427.539919 110.677091 
L 427.852009 110.10451 
L 428.060069 110.168535 
L 428.26813 110.561153 
L 428.68425 112.049585 
L 429.72455 116.144435 
L 430.03664 116.725652 
L 430.34873 116.871235 
L 430.55679 116.737024 
L 430.86888 116.257059 
L 431.285 115.335757 
L 431.285 115.335757 
" clip-path="url(#p8672be23ff)" style="fill: none; stroke-dasharray: 1.85,0.8; stroke-dashoffset: 0; stroke: #1f77b4; stroke-width: 0.5"/>
   </g>
   <g id="line2d_30">
    <path d="M 56.985 108.614961 
L 57.50515 103.917696 
L 58.0253 101.130223 
L 58.44142 99.99785 
L 58.75351 99.650118 
L 59.0656 99.633199 
L 59.37769 99.857912 
L 60.00187 100.675525 
L 60.626051 101.389532 
L 60.938141 101.484737 
L 61.250231 101.286506 
L 61.562321 100.756013 
L 61.978441 99.604853 
L 62.602621 97.152254 
L 63.850981 91.006068 
L 64.891281 86.398924 
L 65.411431 84.855513 
L 65.827551 84.13368 
L 66.243671 83.833929 
L 66.555762 83.857556 
L 66.971882 84.182243 
L 67.492032 84.992546 
L 68.116212 86.435731 
L 69.052482 89.229831 
L 71.029052 95.970309 
L 72.173382 100.611016 
L 73.213683 105.751306 
L 74.253983 112.066087 
L 77.895033 135.698542 
L 78.727273 139.200218 
L 79.767574 142.548637 
L 82.160264 149.705839 
L 83.512654 155.178316 
L 84.865044 160.404381 
L 85.593255 162.488889 
L 86.113405 163.461447 
L 86.529525 163.869903 
L 86.945645 163.995084 
L 87.361765 163.902999 
L 87.985945 163.501893 
L 89.338335 162.526784 
L 89.754455 162.466404 
L 90.170575 162.634318 
L 90.586695 163.087147 
L 91.210875 164.204463 
L 93.187446 168.190909 
L 93.603566 168.5321 
L 93.915656 168.554611 
L 94.227746 168.337618 
L 94.539836 167.845609 
L 94.955956 166.758304 
L 95.580136 164.400181 
L 96.620436 159.373155 
L 97.972827 153.070663 
L 98.597007 151.120704 
L 99.013127 150.375762 
L 99.429247 150.060738 
L 99.741337 150.076636 
L 100.157457 150.394101 
L 100.677607 151.197024 
L 101.301787 152.627707 
L 102.342087 155.708848 
L 104.526718 162.353781 
L 105.671048 165.132339 
L 106.503288 166.636902 
L 107.231498 167.503762 
L 107.855678 167.91129 
L 108.479858 168.073064 
L 109.208068 168.037065 
L 110.456429 167.695377 
L 111.704789 167.432603 
L 112.745089 167.4628 
L 113.785389 167.714955 
L 114.929719 168.234387 
L 116.178079 169.066299 
L 117.84256 170.469077 
L 121.69167 173.797254 
L 123.460181 174.990971 
L 125.436751 176.011623 
L 127.205261 176.99722 
L 128.453621 177.956386 
L 130.742282 180.109111 
L 132.302732 181.41226 
L 136.463933 184.481273 
L 138.024383 186.291583 
L 140.104983 188.661497 
L 141.249314 189.615452 
L 144.890364 192.3469 
L 146.450814 194.113486 
L 148.947535 196.950509 
L 150.403955 198.21086 
L 152.172465 199.430377 
L 156.229636 201.841836 
L 159.454566 203.918553 
L 164.343977 207.047583 
L 170.169658 210.513385 
L 174.018769 212.715706 
L 177.347729 214.760829 
L 178.70012 215.296476 
L 180.57266 215.763937 
L 183.58953 216.511332 
L 187.022521 217.666093 
L 192.015962 219.567066 
L 194.824772 220.847211 
L 197.633583 222.390751 
L 204.395534 226.237885 
L 212.197785 229.842678 
L 215.110625 231.040954 
L 217.087196 232.161901 
L 219.896006 233.742001 
L 222.080636 234.651421 
L 233.731998 238.943382 
L 235.708569 239.473711 
L 237.893199 239.785453 
L 239.349619 240.10218 
L 240.389919 240.536759 
L 241.74231 241.383593 
L 244.23903 242.996198 
L 245.38336 243.430453 
L 246.83978 243.73043 
L 250.688891 244.407396 
L 253.601732 244.936537 
L 256.722632 245.457814 
L 259.947563 246.203902 
L 260.883833 246.107195 
L 261.820103 245.751782 
L 265.149063 244.18836 
L 265.981304 244.183641 
L 267.125634 244.434646 
L 269.622354 245.085892 
L 270.870714 245.095557 
L 275.031915 244.917728 
L 276.696395 245.203019 
L 278.672966 245.787576 
L 280.753566 246.356507 
L 281.897896 246.443189 
L 283.146256 246.283914 
L 286.891337 245.616004 
L 288.347757 245.716613 
L 290.012237 246.059084 
L 293.549258 246.901599 
L 294.693588 246.880924 
L 296.358068 246.5654 
L 297.918519 246.336897 
L 298.958819 246.414971 
L 300.207179 246.754828 
L 303.120019 247.641578 
L 304.47241 247.749501 
L 306.13689 247.640539 
L 308.21749 247.269902 
L 310.506151 246.639252 
L 318.516462 243.946433 
L 319.452732 243.242094 
L 320.389002 242.244993 
L 321.429302 240.77498 
L 322.469603 238.907513 
L 323.613933 236.370572 
L 324.446173 234.00719 
L 325.174383 231.204119 
L 325.902593 227.387346 
L 326.630803 222.244164 
L 327.359013 215.461867 
L 328.191253 205.48527 
L 330.167824 177.777499 
L 331.208124 165.133574 
L 331.936334 158.743196 
L 332.560514 155.160156 
L 333.080664 153.288556 
L 333.600814 152.232164 
L 334.016934 151.849409 
L 334.433054 151.774803 
L 334.953205 151.970264 
L 336.409625 152.72354 
L 336.825745 152.622181 
L 337.241865 152.241826 
L 337.657985 151.508994 
L 338.074105 150.350202 
L 338.594255 148.190759 
L 339.114405 145.107416 
L 339.738585 139.985779 
L 340.466795 131.810471 
L 341.507096 117.015505 
L 343.899786 81.838544 
L 344.627996 74.280153 
L 345.356206 68.861003 
L 345.980386 65.637289 
L 346.604566 63.476233 
L 347.228747 62.141673 
L 347.748897 61.490511 
L 348.373077 61.057824 
L 348.997257 60.863864 
L 349.517407 60.918426 
L 350.037557 61.217467 
L 350.557707 61.805931 
L 351.077857 62.728761 
L 351.702037 64.340801 
L 352.326217 66.57671 
L 353.054427 70.030894 
L 354.198758 76.720496 
L 356.279358 89.030487 
L 357.111598 92.626874 
L 357.839808 94.911298 
L 358.568018 96.568635 
L 359.400258 97.918537 
L 360.544589 99.287215 
L 362.521159 101.347268 
L 363.145339 101.645386 
L 363.665489 101.631619 
L 364.081609 101.405427 
L 364.497729 100.95441 
L 365.017879 100.027292 
L 365.642059 98.374747 
L 366.57833 95.126366 
L 368.97102 86.429773 
L 369.69923 84.744408 
L 370.32341 83.808469 
L 370.94759 83.275835 
L 371.46774 83.094789 
L 372.091921 83.138596 
L 372.820131 83.470354 
L 373.652371 84.108274 
L 374.276551 84.832459 
L 374.900731 85.946942 
L 375.524911 87.619594 
L 376.149091 90.018287 
L 376.773271 93.310892 
L 377.501481 98.506026 
L 378.541782 108.094437 
L 379.790142 119.225364 
L 380.414322 123.038986 
L 380.830442 124.467437 
L 381.142532 124.809648 
L 381.350592 124.643014 
L 381.558652 124.130962 
L 381.870742 122.687979 
L 382.286862 119.647867 
L 382.911042 113.201949 
L 383.951342 99.505841 
L 385.407763 80.668816 
L 386.031943 75.026521 
L 386.656123 71.370432 
L 387.176273 69.490433 
L 387.696423 68.354839 
L 388.320603 67.557266 
L 389.256873 66.449465 
L 389.672993 65.600628 
L 390.193143 63.929496 
L 390.921354 60.608745 
L 392.585834 52.616312 
L 393.105984 51.123799 
L 393.418074 50.677435 
L 393.626134 50.605093 
L 393.834194 50.73427 
L 394.146284 51.345876 
L 394.562404 52.937171 
L 395.082554 55.938934 
L 395.914794 62.280148 
L 397.683305 76.258681 
L 398.307485 79.415306 
L 398.723605 80.609796 
L 399.139725 81.177184 
L 399.451815 81.26931 
L 399.763905 81.13653 
L 400.180025 80.704326 
L 401.844505 78.548496 
L 402.156595 78.51159 
L 402.468685 78.724602 
L 402.884805 79.421534 
L 403.404956 80.829063 
L 404.237196 83.879335 
L 405.901676 90.14712 
L 406.421826 91.391363 
L 406.837946 91.928994 
L 407.254066 92.087742 
L 407.670186 91.961636 
L 408.294366 91.444064 
L 409.438696 90.433228 
L 409.854817 90.354305 
L 410.166907 90.488702 
L 410.478997 90.833108 
L 410.895117 91.684593 
L 411.415267 93.356846 
L 412.247507 97.004205 
L 414.328107 106.73789 
L 414.952287 108.504189 
L 415.368407 109.142596 
L 415.784528 109.418706 
L 416.200648 109.417514 
L 416.720798 109.155551 
L 418.177218 108.236523 
L 418.593338 108.290263 
L 419.009458 108.640412 
L 419.425578 109.346608 
L 420.049758 110.951977 
L 421.090058 114.439763 
L 422.338419 118.477485 
L 422.962599 119.82735 
L 423.378719 120.304902 
L 423.794839 120.435765 
L 424.210959 120.301836 
L 424.835139 119.789143 
L 426.083499 118.686041 
L 426.499619 118.604875 
L 426.811709 118.725743 
L 427.123799 119.041966 
L 427.539919 119.826526 
L 428.060069 121.378161 
L 428.78828 124.354475 
L 430.2447 131.599314 
L 431.285 136.347806 
L 431.285 136.347806 
" clip-path="url(#p8672be23ff)" style="fill: none; stroke: #ff7f0e; stroke-width: 0.5; stroke-linecap: square"/>
   </g>
   <g id="line2d_31">
    <path d="M 56.985 287.035159 
L 57.08903 287.035159 
L 57.19306 286.484592 
L 57.40112 289.969288 
L 57.60918 290.953036 
L 57.71321 290.994545 
L 57.92127 290.670777 
L 58.64948 288.777889 
L 59.0656 286.028864 
L 61.666351 267.830096 
L 61.874411 267.485093 
L 61.978441 267.501661 
L 62.186501 267.88906 
L 62.498591 269.20873 
L 63.122771 273.315533 
L 64.371131 281.602134 
L 64.891281 283.989973 
L 65.411431 285.383548 
L 65.931581 286.115906 
L 66.763822 286.65355 
L 67.596062 286.892484 
L 68.428302 286.943747 
L 68.740392 286.586838 
L 69.156512 285.694391 
L 69.572632 284.248339 
L 70.196812 281.097311 
L 71.133082 276.130514 
L 71.445172 275.287384 
L 71.653232 275.07569 
L 71.861292 275.125641 
L 72.173382 275.586888 
L 72.693533 276.943034 
L 73.421743 279.481791 
L 74.566073 284.650081 
L 75.086223 285.745232 
L 75.502343 286.17471 
L 75.814433 285.75959 
L 76.230553 284.660754 
L 76.854733 282.105569 
L 77.686973 278.780613 
L 78.103093 278.031725 
L 78.311153 277.954361 
L 78.519213 278.07142 
L 78.831304 278.600076 
L 79.247424 279.855451 
L 80.391754 284.768268 
L 80.911904 285.809153 
L 81.328024 286.214796 
L 81.848174 285.673883 
L 82.368324 285.142599 
L 82.680414 285.134862 
L 82.992504 285.392693 
L 83.824744 286.231507 
L 84.136834 286.247712 
L 84.865044 286.02688 
L 86.529525 286.856127 
L 86.841615 286.84412 
L 87.153705 286.063976 
L 87.569825 284.193173 
L 88.402065 280.034209 
L 88.714155 279.563789 
L 88.922215 279.727036 
L 89.234305 280.502663 
L 90.586695 285.387937 
L 91.106845 286.147569 
L 91.418936 286.308402 
L 91.731026 285.719448 
L 92.147146 284.082888 
L 93.187446 278.988973 
L 93.395506 278.619314 
L 93.603566 278.606425 
L 93.915656 279.136848 
L 94.227746 280.509119 
L 94.955956 283.957977 
L 95.476106 285.357753 
L 95.788196 285.858957 
L 95.892226 285.784989 
L 96.204316 284.413306 
L 96.516406 281.599096 
L 96.932526 275.422002 
L 97.972827 257.621443 
L 98.284917 255.950934 
L 98.388947 255.973642 
L 98.597007 256.818919 
L 98.909097 259.708444 
L 99.637307 269.80989 
L 100.365517 278.940416 
L 100.885667 282.624767 
L 101.405817 284.663017 
L 101.925967 285.764256 
L 102.446117 286.354535 
L 102.758207 286.463249 
L 103.070297 286.402407 
L 103.486417 286.041958 
L 104.006568 285.163074 
L 104.838808 283.632448 
L 105.150898 283.383913 
L 105.462988 283.389638 
L 105.775078 283.618568 
L 106.295228 284.347068 
L 107.127468 285.886278 
L 107.647618 286.410026 
L 108.271798 286.738447 
L 109.000008 286.889541 
L 109.624188 286.518144 
L 110.248369 286.214389 
L 110.664489 286.234601 
L 112.537029 286.923105 
L 114.097479 287.017905 
L 115.657929 286.940639 
L 116.90629 286.996429 
L 119.09092 287.00118 
L 119.92316 286.910687 
L 122.731971 287.029707 
L 125.852871 286.939436 
L 128.037501 286.911811 
L 129.701982 287.017413 
L 131.262432 286.948776 
L 131.886612 286.474071 
L 132.822882 285.702845 
L 133.343032 285.603305 
L 134.591392 285.794669 
L 135.111543 286.19785 
L 135.839753 286.660509 
L 136.671993 286.89557 
L 137.816323 286.984664 
L 140.729163 286.800256 
L 141.977524 286.978418 
L 143.746034 287.001935 
L 146.346784 286.611603 
L 148.115295 286.970399 
L 148.843505 286.970969 
L 149.779775 286.414886 
L 150.403955 286.271824 
L 151.028135 286.327727 
L 152.276495 286.843405 
L 153.420825 286.986156 
L 154.045006 286.913427 
L 154.773216 286.940234 
L 156.957846 287.027472 
L 164.968157 286.988734 
L 165.904427 286.981755 
L 169.129358 287.033859 
L 175.683249 286.943577 
L 176.931609 286.892242 
L 178.90818 287.019579 
L 183.06938 287.00049 
L 184.10968 286.850177 
L 186.710431 287.024574 
L 196.489252 287.03277 
L 198.881943 287.030853 
L 209.076884 286.982205 
L 210.221215 286.874137 
L 212.509875 287.02235 
L 215.422715 286.959848 
L 216.879136 286.902966 
L 218.959736 287.022408 
L 220.936306 286.947807 
L 222.080636 286.952604 
L 224.369297 287.029345 
L 236.332749 287.0007 
L 237.269019 286.825482 
L 238.413349 286.532397 
L 240.597979 286.986143 
L 243.40679 287.033434 
L 244.65515 286.928144 
L 245.69545 286.681329 
L 246.52769 286.731525 
L 247.880081 286.966118 
L 250.064711 287.030096 
L 261.508013 286.993991 
L 262.132193 286.231972 
L 262.756373 285.456374 
L 263.172493 285.275339 
L 263.588613 285.410592 
L 264.316823 286.038903 
L 265.045033 286.588626 
L 265.773243 286.846671 
L 266.917574 286.987425 
L 268.998174 287.000769 
L 271.702954 286.350942 
L 273.471465 286.928627 
L 275.135945 287.020672 
L 278.568936 286.975555 
L 280.753566 286.749558 
L 281.377746 286.829608 
L 282.730136 286.990474 
L 284.706707 286.986703 
L 285.226857 286.546349 
L 286.059097 285.660996 
L 286.371187 285.60424 
L 286.683277 285.776089 
L 287.723577 286.604619 
L 288.451787 286.853361 
L 289.596117 286.98908 
L 292.508958 287.033731 
L 295.005678 286.929375 
L 296.670158 286.638721 
L 297.502399 286.651316 
L 298.750759 286.936197 
L 300.519269 287.023237 
L 309.36182 287.03199 
L 309.673911 286.819267 
L 310.402121 285.974854 
L 310.922271 285.544095 
L 311.338391 285.493974 
L 311.754511 285.874031 
L 312.482721 286.50297 
L 313.210931 286.809661 
L 314.147201 286.961683 
L 314.355261 286.85078 
L 315.395561 285.829398 
L 315.915712 285.683141 
L 316.643922 285.75448 
L 317.476162 286.044882 
L 319.348702 286.806394 
L 320.493032 286.975836 
L 321.429302 287.015791 
L 321.533332 286.920625 
L 321.949452 285.716538 
L 323.926023 278.94324 
L 324.550203 277.389516 
L 324.862293 277.057608 
L 325.070353 277.063416 
L 325.382443 277.41875 
L 325.694533 278.144234 
L 326.214683 280.012064 
L 327.046923 284.001187 
L 327.567073 285.382493 
L 328.087223 286.146315 
L 328.295283 286.323595 
L 328.503344 286.147814 
L 328.919464 285.367051 
L 329.543644 283.498163 
L 330.375884 280.940022 
L 330.687974 280.554377 
L 330.792004 280.518377 
L 331.000064 281.037308 
L 332.040364 284.922366 
L 332.248424 285.330513 
L 332.352454 285.184855 
L 332.664544 283.196827 
L 333.184694 277.115141 
L 333.704844 271.526939 
L 334.016934 270.067152 
L 334.120964 269.964647 
L 334.224994 270.046839 
L 334.433054 270.708509 
L 334.849175 273.478153 
L 336.201565 283.53109 
L 336.721715 285.145591 
L 337.033805 285.67881 
L 337.137835 285.559264 
L 337.345895 284.764936 
L 337.657985 282.336309 
L 338.074105 276.759348 
L 339.322465 257.444107 
L 339.738585 254.279598 
L 339.946645 253.784004 
L 340.050675 253.891124 
L 340.258735 254.853108 
L 340.570825 258.080591 
L 341.819186 278.877321 
L 342.027246 280.139183 
L 342.235306 279.510136 
L 342.547396 277.074677 
L 343.171576 271.919749 
L 343.379636 271.467043 
L 343.483666 271.552843 
L 343.691726 272.249975 
L 344.523966 276.210195 
L 344.732026 276.281062 
L 345.044116 275.819658 
L 345.356206 275.40387 
L 345.564266 275.493085 
L 345.772326 275.961474 
L 346.292476 278.149579 
L 346.708596 279.624392 
L 347.436807 281.361906 
L 348.165017 284.32285 
L 348.581137 285.360327 
L 348.685167 285.464338 
L 348.893227 285.075445 
L 349.517407 283.582737 
L 349.725467 283.525254 
L 349.933527 283.747271 
L 351.181887 286.107299 
L 351.702037 286.534321 
L 351.806067 286.571553 
L 351.910097 286.470704 
L 352.222187 285.521073 
L 352.742337 282.882555 
L 353.574578 278.72325 
L 353.886668 277.909134 
L 354.094728 277.783654 
L 354.302788 278.053132 
L 354.614878 279.169878 
L 355.551148 283.552734 
L 355.759208 283.647093 
L 355.967268 283.257994 
L 356.383388 281.563574 
L 356.799508 280.03084 
L 356.903538 279.987611 
L 357.111598 280.593658 
L 358.151898 284.782413 
L 358.463988 285.415878 
L 358.568018 285.220748 
L 358.880108 283.175506 
L 359.816379 275.762313 
L 360.024439 275.581132 
L 360.232499 276.101492 
L 361.168769 279.808241 
L 361.376829 279.257903 
L 361.688919 277.218688 
L 362.417129 271.687054 
L 362.625189 271.190206 
L 362.729219 271.201883 
L 362.937279 271.680543 
L 363.249369 273.28864 
L 363.665489 276.32508 
L 364.393699 282.01824 
L 364.913849 284.302953 
L 365.121909 284.764599 
L 365.329969 284.395674 
L 366.37027 281.547734 
L 366.68236 281.762528 
L 366.89042 282.266411 
L 367.82669 285.174923 
L 368.34684 286.024375 
L 368.45087 286.007887 
L 368.65893 285.237957 
L 368.97102 282.978068 
L 369.90729 275.01733 
L 370.01132 274.873224 
L 370.11535 274.960363 
L 370.32341 275.745416 
L 371.15565 280.213321 
L 371.25968 280.162653 
L 371.46774 279.467126 
L 371.77983 277.225035 
L 372.508041 269.460168 
L 373.132221 263.477631 
L 373.340281 262.687084 
L 373.444311 262.707399 
L 373.652371 263.251568 
L 373.860431 265.487963 
L 374.796701 278.615179 
L 375.212821 281.548698 
L 375.316851 281.343303 
L 375.524911 280.157128 
L 376.045061 274.806909 
L 376.565211 270.36097 
L 377.085361 268.065942 
L 377.501481 265.955298 
L 378.021631 261.687767 
L 378.541782 257.622514 
L 378.853872 256.559454 
L 378.957902 256.51094 
L 379.165962 256.857805 
L 379.478052 258.292938 
L 380.310292 264.144909 
L 381.246562 271.170959 
L 382.078802 280.232944 
L 382.598952 283.332724 
L 382.702982 283.611323 
L 382.807012 283.447624 
L 383.119102 281.855427 
L 383.847312 277.476849 
L 384.263432 276.22251 
L 385.303733 273.686124 
L 386.031943 271.631189 
L 386.448063 269.642752 
L 387.592393 263.100631 
L 387.800453 262.871631 
L 388.008513 263.136558 
L 388.320603 264.463125 
L 388.736723 267.866895 
L 389.777023 280.336505 
L 390.193143 282.64594 
L 390.401203 282.021964 
L 390.713293 280.073406 
L 391.649564 273.205465 
L 391.961654 271.952262 
L 392.169714 271.637833 
L 392.273744 271.667171 
L 392.481804 272.140976 
L 392.793894 273.826493 
L 394.042254 283.008766 
L 394.250314 283.162945 
L 394.458374 282.894928 
L 395.186584 281.489946 
L 395.394644 281.934995 
L 396.434944 285.239852 
L 396.747034 285.789564 
L 396.851064 285.783211 
L 397.059125 285.138817 
L 397.371215 283.254127 
L 397.891365 278.153877 
L 398.515545 272.132321 
L 398.827635 270.704215 
L 399.035695 270.564952 
L 399.243755 271.056167 
L 399.555845 272.717564 
L 399.971965 276.49892 
L 400.596145 281.639901 
L 401.116295 284.099342 
L 401.428385 284.932253 
L 401.636445 284.930671 
L 401.844505 284.716334 
L 402.156595 284.02136 
L 402.468685 282.797658 
L 402.884805 280.239389 
L 403.717046 274.568831 
L 404.029136 273.759947 
L 404.133166 273.733406 
L 404.341226 274.052385 
L 404.653316 275.269677 
L 404.965406 277.353676 
L 405.693616 282.478356 
L 406.213766 284.551796 
L 406.317796 284.742324 
L 406.421826 284.697892 
L 406.629886 284.267016 
L 407.566156 281.351035 
L 407.670186 281.317295 
L 407.878246 281.810239 
L 408.918546 285.208322 
L 409.334666 285.914886 
L 409.438696 285.903172 
L 409.750787 284.938275 
L 410.270937 281.980169 
L 410.895117 278.49488 
L 411.207207 277.631555 
L 411.415267 277.430395 
L 411.727357 277.498259 
L 412.247507 277.715247 
L 412.559597 277.48691 
L 412.975717 276.726408 
L 413.495867 275.808146 
L 413.703927 275.759576 
L 413.911987 276.048948 
L 414.120047 276.48314 
L 414.432137 278.384932 
L 415.160347 282.975009 
L 415.680497 284.823373 
L 415.888558 285.142007 
L 416.096618 284.547161 
L 416.512738 282.305428 
L 417.136918 279.004698 
L 417.449008 278.39609 
L 417.657068 278.468829 
L 417.969158 279.158995 
L 418.281248 280.493227 
L 419.009458 283.938046 
L 419.529608 285.345913 
L 419.841698 285.818447 
L 420.049758 285.667789 
L 420.361848 285.075778 
L 421.818268 281.559865 
L 422.130359 281.280973 
L 422.442449 281.273816 
L 422.754539 281.555912 
L 423.170659 282.288654 
L 423.482749 283.162191 
L 424.210959 285.222206 
L 424.731109 286.047925 
L 425.251259 286.504253 
L 425.667379 286.710928 
L 425.771409 286.659703 
L 426.083499 285.990668 
L 426.499619 284.340317 
L 427.123799 280.505478 
L 427.747979 276.894126 
L 428.164099 275.639366 
L 428.47619 275.296406 
L 429.41246 274.860893 
L 429.72455 274.253059 
L 430.14067 272.811988 
L 430.66082 270.070882 
L 431.18097 266.47727 
L 431.285 266.738764 
L 431.285 266.738764 
" clip-path="url(#p8672be23ff)" style="fill: none; stroke: #2ca02c; stroke-width: 0.5; stroke-linecap: square"/>
   </g>
   <g id="patch_3">
    <path d="M 38.27 303.64 
L 38.27 25.44 
" style="fill: none; stroke: #000000; stroke-width: 0.8; stroke-linejoin: miter; stroke-linecap: square"/>
   </g>
   <g id="patch_4">
    <path d="M 450 303.64 
L 450 25.44 
" style="fill: none; stroke: #000000; stroke-width: 0.8; stroke-linejoin: miter; stroke-linecap: square"/>
   </g>
   <g id="patch_5">
    <path d="M 38.27 303.64 
L 450 303.64 
" style="fill: none; stroke: #000000; stroke-width: 0.8; stroke-linejoin: miter; stroke-linecap: square"/>
   </g>
   <g id="patch_6">
    <path d="M 38.27 25.44 
L 450 25.44 
" style="fill: none; stroke: #000000; stroke-width: 0.8; stroke-linejoin: miter; stroke-linecap: square"/>
   </g>
   <g id="text_17">
    <!-- data_6_E4 Separated EDA plot -->
    <g transform="translate(152.579688 19.44) scale(0.12 -0.12)">
     <defs>
      <path id="DejaVuSans-5f" d="M 3263 -1063 
L 3263 -1509 
L -63 -1509 
L -63 -1063 
L 3263 -1063 
z
" transform="scale(0.015625)"/>
      <path id="DejaVuSans-70" d="M 1159 525 
L 1159 -1331 
L 581 -1331 
L 581 3500 
L 1159 3500 
L 1159 2969 
Q 1341 3281 1617 3432 
Q 1894 3584 2278 3584 
Q 2916 3584 3314 3078 
Q 3713 2572 3713 1747 
Q 3713 922 3314 415 
Q 2916 -91 2278 -91 
Q 1894 -91 1617 61 
Q 1341 213 1159 525 
z
M 3116 1747 
Q 3116 2381 2855 2742 
Q 2594 3103 2138 3103 
Q 1681 3103 1420 2742 
Q 1159 2381 1159 1747 
Q 1159 1113 1420 752 
Q 1681 391 2138 391 
Q 2594 391 2855 752 
Q 3116 1113 3116 1747 
z
" transform="scale(0.015625)"/>
      <path id="DejaVuSans-6f" d="M 1959 3097 
Q 1497 3097 1228 2736 
Q 959 2375 959 1747 
Q 959 1119 1226 758 
Q 1494 397 1959 397 
Q 2419 397 2687 759 
Q 2956 1122 2956 1747 
Q 2956 2369 2687 2733 
Q 2419 3097 1959 3097 
z
M 1959 3584 
Q 2709 3584 3137 3096 
Q 3566 2609 3566 1747 
Q 3566 888 3137 398 
Q 2709 -91 1959 -91 
Q 1206 -91 779 398 
Q 353 888 353 1747 
Q 353 2609 779 3096 
Q 1206 3584 1959 3584 
z
" transform="scale(0.015625)"/>
     </defs>
     <use xlink:href="#DejaVuSans-64"/>
     <use xlink:href="#DejaVuSans-61" transform="translate(63.476562 0)"/>
     <use xlink:href="#DejaVuSans-74" transform="translate(124.755859 0)"/>
     <use xlink:href="#DejaVuSans-61" transform="translate(163.964844 0)"/>
     <use xlink:href="#DejaVuSans-5f" transform="translate(225.244141 0)"/>
     <use xlink:href="#DejaVuSans-36" transform="translate(275.244141 0)"/>
     <use xlink:href="#DejaVuSans-5f" transform="translate(338.867188 0)"/>
     <use xlink:href="#DejaVuSans-45" transform="translate(388.867188 0)"/>
     <use xlink:href="#DejaVuSans-34" transform="translate(452.050781 0)"/>
     <use xlink:href="#DejaVuSans-20" transform="translate(515.673828 0)"/>
     <use xlink:href="#DejaVuSans-53" transform="translate(547.460938 0)"/>
     <use xlink:href="#DejaVuSans-65" transform="translate(610.9375 0)"/>
     <use xlink:href="#DejaVuSans-70" transform="translate(672.460938 0)"/>
     <use xlink:href="#DejaVuSans-61" transform="translate(735.9375 0)"/>
     <use xlink:href="#DejaVuSans-72" transform="translate(797.216797 0)"/>
     <use xlink:href="#DejaVuSans-61" transform="translate(838.330078 0)"/>
     <use xlink:href="#DejaVuSans-74" transform="translate(899.609375 0)"/>
     <use xlink:href="#DejaVuSans-65" transform="translate(938.818359 0)"/>
     <use xlink:href="#DejaVuSans-64" transform="translate(1000.341797 0)"/>
     <use xlink:href="#DejaVuSans-20" transform="translate(1063.818359 0)"/>
     <use xlink:href="#DejaVuSans-45" transform="translate(1095.605469 0)"/>
     <use xlink:href="#DejaVuSans-44" transform="translate(1158.789062 0)"/>
     <use xlink:href="#DejaVuSans-41" transform="translate(1234.041016 0)"/>
     <use xlink:href="#DejaVuSans-20" transform="translate(1302.449219 0)"/>
     <use xlink:href="#DejaVuSans-70" transform="translate(1334.236328 0)"/>
     <use xlink:href="#DejaVuSans-6c" transform="translate(1397.712891 0)"/>
     <use xlink:href="#DejaVuSans-6f" transform="translate(1425.496094 0)"/>
     <use xlink:href="#DejaVuSans-74" transform="translate(1486.677734 0)"/>
    </g>
   </g>
   <g id="legend_1">
    <g id="patch_7">
     <path d="M 45.27 77.474375 
L 138.17625 77.474375 
Q 140.17625 77.474375 140.17625 75.474375 
L 140.17625 32.44 
Q 140.17625 30.44 138.17625 30.44 
L 45.27 30.44 
Q 43.27 30.44 43.27 32.44 
L 43.27 75.474375 
Q 43.27 77.474375 45.27 77.474375 
z
" style="fill: #ffffff; opacity: 0.8; stroke: #cccccc; stroke-linejoin: miter"/>
    </g>
    <g id="line2d_32">
     <path d="M 47.27 38.538437 
L 57.27 38.538437 
L 67.27 38.538437 
" style="fill: none; stroke-dasharray: 1.85,0.8; stroke-dashoffset: 0; stroke: #1f77b4; stroke-width: 0.5"/>
    </g>
    <g id="text_18">
     <!-- Filtered EDA -->
     <g transform="translate(75.27 42.038437) scale(0.1 -0.1)">
      <defs>
       <path id="DejaVuSans-46" d="M 628 4666 
L 3309 4666 
L 3309 4134 
L 1259 4134 
L 1259 2759 
L 3109 2759 
L 3109 2228 
L 1259 2228 
L 1259 0 
L 628 0 
L 628 4666 
z
" transform="scale(0.015625)"/>
      </defs>
      <use xlink:href="#DejaVuSans-46"/>
      <use xlink:href="#DejaVuSans-69" transform="translate(50.269531 0)"/>
      <use xlink:href="#DejaVuSans-6c" transform="translate(78.052734 0)"/>
      <use xlink:href="#DejaVuSans-74" transform="translate(105.835938 0)"/>
      <use xlink:href="#DejaVuSans-65" transform="translate(145.044922 0)"/>
      <use xlink:href="#DejaVuSans-72" transform="translate(206.568359 0)"/>
      <use xlink:href="#DejaVuSans-65" transform="translate(245.431641 0)"/>
      <use xlink:href="#DejaVuSans-64" transform="translate(306.955078 0)"/>
      <use xlink:href="#DejaVuSans-20" transform="translate(370.431641 0)"/>
      <use xlink:href="#DejaVuSans-45" transform="translate(402.21875 0)"/>
      <use xlink:href="#DejaVuSans-44" transform="translate(465.402344 0)"/>
      <use xlink:href="#DejaVuSans-41" transform="translate(540.654297 0)"/>
     </g>
    </g>
    <g id="line2d_33">
     <path d="M 47.27 53.216562 
L 57.27 53.216562 
L 67.27 53.216562 
" style="fill: none; stroke: #ff7f0e; stroke-width: 0.5; stroke-linecap: square"/>
    </g>
    <g id="text_19">
     <!-- Tonic -->
     <g transform="translate(75.27 56.716562) scale(0.1 -0.1)">
      <defs>
       <path id="DejaVuSans-63" d="M 3122 3366 
L 3122 2828 
Q 2878 2963 2633 3030 
Q 2388 3097 2138 3097 
Q 1578 3097 1268 2742 
Q 959 2388 959 1747 
Q 959 1106 1268 751 
Q 1578 397 2138 397 
Q 2388 397 2633 464 
Q 2878 531 3122 666 
L 3122 134 
Q 2881 22 2623 -34 
Q 2366 -91 2075 -91 
Q 1284 -91 818 406 
Q 353 903 353 1747 
Q 353 2603 823 3093 
Q 1294 3584 2113 3584 
Q 2378 3584 2631 3529 
Q 2884 3475 3122 3366 
z
" transform="scale(0.015625)"/>
      </defs>
      <use xlink:href="#DejaVuSans-54"/>
      <use xlink:href="#DejaVuSans-6f" transform="translate(44.083984 0)"/>
      <use xlink:href="#DejaVuSans-6e" transform="translate(105.265625 0)"/>
      <use xlink:href="#DejaVuSans-69" transform="translate(168.644531 0)"/>
      <use xlink:href="#DejaVuSans-63" transform="translate(196.427734 0)"/>
     </g>
    </g>
    <g id="line2d_34">
     <path d="M 47.27 67.894687 
L 57.27 67.894687 
L 67.27 67.894687 
" style="fill: none; stroke: #2ca02c; stroke-width: 0.5; stroke-linecap: square"/>
    </g>
    <g id="text_20">
     <!-- Phasic -->
     <g transform="translate(75.27 71.394687) scale(0.1 -0.1)">
      <defs>
       <path id="DejaVuSans-50" d="M 1259 4147 
L 1259 2394 
L 2053 2394 
Q 2494 2394 2734 2622 
Q 2975 2850 2975 3272 
Q 2975 3691 2734 3919 
Q 2494 4147 2053 4147 
L 1259 4147 
z
M 628 4666 
L 2053 4666 
Q 2838 4666 3239 4311 
Q 3641 3956 3641 3272 
Q 3641 2581 3239 2228 
Q 2838 1875 2053 1875 
L 1259 1875 
L 1259 0 
L 628 0 
L 628 4666 
z
" transform="scale(0.015625)"/>
       <path id="DejaVuSans-68" d="M 3513 2113 
L 3513 0 
L 2938 0 
L 2938 2094 
Q 2938 2591 2744 2837 
Q 2550 3084 2163 3084 
Q 1697 3084 1428 2787 
Q 1159 2491 1159 1978 
L 1159 0 
L 581 0 
L 581 4863 
L 1159 4863 
L 1159 2956 
Q 1366 3272 1645 3428 
Q 1925 3584 2291 3584 
Q 2894 3584 3203 3211 
Q 3513 2838 3513 2113 
z
" transform="scale(0.015625)"/>
      </defs>
      <use xlink:href="#DejaVuSans-50"/>
      <use xlink:href="#DejaVuSans-68" transform="translate(60.302734 0)"/>
      <use xlink:href="#DejaVuSans-61" transform="translate(123.681641 0)"/>
      <use xlink:href="#DejaVuSans-73" transform="translate(184.960938 0)"/>
      <use xlink:href="#DejaVuSans-69" transform="translate(237.060547 0)"/>
      <use xlink:href="#DejaVuSans-63" transform="translate(264.84375 0)"/>
     </g>
    </g>
   </g>
  </g>
 </g>
 <defs>
  <clipPath id="p8672be23ff">
   <rect x="38.27" y="25.44" width="411.73" height="278.2"/>
  </clipPath>
 </defs>
</svg>
