<?xml version="1.0" encoding="utf-8" standalone="no"?>
<!DOCTYPE svg PUBLIC "-//W3C//DTD SVG 1.1//EN"
  "http://www.w3.org/Graphics/SVG/1.1/DTD/svg11.dtd">
<svg xmlns:xlink="http://www.w3.org/1999/xlink" width="460.8pt" height="345.6pt" viewBox="0 0 460.8 345.6" xmlns="http://www.w3.org/2000/svg" version="1.1">
 <metadata>
  <rdf:RDF xmlns:dc="http://purl.org/dc/elements/1.1/" xmlns:cc="http://creativecommons.org/ns#" xmlns:rdf="http://www.w3.org/1999/02/22-rdf-syntax-ns#">
   <cc:Work>
    <dc:type rdf:resource="http://purl.org/dc/dcmitype/StillImage"/>
    <dc:date>2025-09-22T15:39:41.471283</dc:date>
    <dc:format>image/svg+xml</dc:format>
    <dc:creator>
     <cc:Agent>
      <dc:title>Matplotlib v3.10.0, https://matplotlib.org/</dc:title>
     </cc:Agent>
    </dc:creator>
   </cc:Work>
  </rdf:RDF>
 </metadata>
 <defs>
  <style type="text/css">*{stroke-linejoin: round; stroke-linecap: butt}</style>
 </defs>
 <g id="figure_1">
  <g id="patch_1">
   <path d="M 0 345.6 
L 460.8 345.6 
L 460.8 0 
L 0 0 
z
" style="fill: #ffffff"/>
  </g>
  <g id="axes_1">
   <g id="patch_2">
    <path d="M 38.27 303.64 
L 450 303.64 
L 450 25.44 
L 38.27 25.44 
z
" style="fill: #ffffff"/>
   </g>
   <g id="matplotlib.axis_1">
    <g id="xtick_1">
     <g id="line2d_1">
      <path d="M 56.985 303.64 
L 56.985 25.44 
" clip-path="url(#p4aa78c5fbc)" style="fill: none; stroke: #b0b0b0; stroke-opacity: 0.3; stroke-width: 0.8; stroke-linecap: square"/>
     </g>
     <g id="line2d_2">
      <defs>
       <path id="mb0b7422b08" d="M 0 0 
L 0 3.5 
" style="stroke: #000000; stroke-width: 0.8"/>
      </defs>
      <g>
       <use xlink:href="#mb0b7422b08" x="56.985" y="303.64" style="stroke: #000000; stroke-width: 0.8"/>
      </g>
     </g>
     <g id="text_1">
      <!-- 0 -->
      <g transform="translate(53.80375 318.238437) scale(0.1 -0.1)">
       <defs>
        <path id="DejaVuSans-30" d="M 2034 4250 
Q 1547 4250 1301 3770 
Q 1056 3291 1056 2328 
Q 1056 1369 1301 889 
Q 1547 409 2034 409 
Q 2525 409 2770 889 
Q 3016 1369 3016 2328 
Q 3016 3291 2770 3770 
Q 2525 4250 2034 4250 
z
M 2034 4750 
Q 2819 4750 3233 4129 
Q 3647 3509 3647 2328 
Q 3647 1150 3233 529 
Q 2819 -91 2034 -91 
Q 1250 -91 836 529 
Q 422 1150 422 2328 
Q 422 3509 836 4129 
Q 1250 4750 2034 4750 
z
" transform="scale(0.015625)"/>
       </defs>
       <use xlink:href="#DejaVuSans-30"/>
      </g>
     </g>
    </g>
    <g id="xtick_2">
     <g id="line2d_3">
      <path d="M 106.891667 303.64 
L 106.891667 25.44 
" clip-path="url(#p4aa78c5fbc)" style="fill: none; stroke: #b0b0b0; stroke-opacity: 0.3; stroke-width: 0.8; stroke-linecap: square"/>
     </g>
     <g id="line2d_4">
      <g>
       <use xlink:href="#mb0b7422b08" x="106.891667" y="303.64" style="stroke: #000000; stroke-width: 0.8"/>
      </g>
     </g>
     <g id="text_2">
      <!-- 2 -->
      <g transform="translate(103.710417 318.238437) scale(0.1 -0.1)">
       <defs>
        <path id="DejaVuSans-32" d="M 1228 531 
L 3431 531 
L 3431 0 
L 469 0 
L 469 531 
Q 828 903 1448 1529 
Q 2069 2156 2228 2338 
Q 2531 2678 2651 2914 
Q 2772 3150 2772 3378 
Q 2772 3750 2511 3984 
Q 2250 4219 1831 4219 
Q 1534 4219 1204 4116 
Q 875 4013 500 3803 
L 500 4441 
Q 881 4594 1212 4672 
Q 1544 4750 1819 4750 
Q 2544 4750 2975 4387 
Q 3406 4025 3406 3419 
Q 3406 3131 3298 2873 
Q 3191 2616 2906 2266 
Q 2828 2175 2409 1742 
Q 1991 1309 1228 531 
z
" transform="scale(0.015625)"/>
       </defs>
       <use xlink:href="#DejaVuSans-32"/>
      </g>
     </g>
    </g>
    <g id="xtick_3">
     <g id="line2d_5">
      <path d="M 156.798333 303.64 
L 156.798333 25.44 
" clip-path="url(#p4aa78c5fbc)" style="fill: none; stroke: #b0b0b0; stroke-opacity: 0.3; stroke-width: 0.8; stroke-linecap: square"/>
     </g>
     <g id="line2d_6">
      <g>
       <use xlink:href="#mb0b7422b08" x="156.798333" y="303.64" style="stroke: #000000; stroke-width: 0.8"/>
      </g>
     </g>
     <g id="text_3">
      <!-- 4 -->
      <g transform="translate(153.617083 318.238437) scale(0.1 -0.1)">
       <defs>
        <path id="DejaVuSans-34" d="M 2419 4116 
L 825 1625 
L 2419 1625 
L 2419 4116 
z
M 2253 4666 
L 3047 4666 
L 3047 1625 
L 3713 1625 
L 3713 1100 
L 3047 1100 
L 3047 0 
L 2419 0 
L 2419 1100 
L 313 1100 
L 313 1709 
L 2253 4666 
z
" transform="scale(0.015625)"/>
       </defs>
       <use xlink:href="#DejaVuSans-34"/>
      </g>
     </g>
    </g>
    <g id="xtick_4">
     <g id="line2d_7">
      <path d="M 206.705 303.64 
L 206.705 25.44 
" clip-path="url(#p4aa78c5fbc)" style="fill: none; stroke: #b0b0b0; stroke-opacity: 0.3; stroke-width: 0.8; stroke-linecap: square"/>
     </g>
     <g id="line2d_8">
      <g>
       <use xlink:href="#mb0b7422b08" x="206.705" y="303.64" style="stroke: #000000; stroke-width: 0.8"/>
      </g>
     </g>
     <g id="text_4">
      <!-- 6 -->
      <g transform="translate(203.52375 318.238437) scale(0.1 -0.1)">
       <defs>
        <path id="DejaVuSans-36" d="M 2113 2584 
Q 1688 2584 1439 2293 
Q 1191 2003 1191 1497 
Q 1191 994 1439 701 
Q 1688 409 2113 409 
Q 2538 409 2786 701 
Q 3034 994 3034 1497 
Q 3034 2003 2786 2293 
Q 2538 2584 2113 2584 
z
M 3366 4563 
L 3366 3988 
Q 3128 4100 2886 4159 
Q 2644 4219 2406 4219 
Q 1781 4219 1451 3797 
Q 1122 3375 1075 2522 
Q 1259 2794 1537 2939 
Q 1816 3084 2150 3084 
Q 2853 3084 3261 2657 
Q 3669 2231 3669 1497 
Q 3669 778 3244 343 
Q 2819 -91 2113 -91 
Q 1303 -91 875 529 
Q 447 1150 447 2328 
Q 447 3434 972 4092 
Q 1497 4750 2381 4750 
Q 2619 4750 2861 4703 
Q 3103 4656 3366 4563 
z
" transform="scale(0.015625)"/>
       </defs>
       <use xlink:href="#DejaVuSans-36"/>
      </g>
     </g>
    </g>
    <g id="xtick_5">
     <g id="line2d_9">
      <path d="M 256.611667 303.64 
L 256.611667 25.44 
" clip-path="url(#p4aa78c5fbc)" style="fill: none; stroke: #b0b0b0; stroke-opacity: 0.3; stroke-width: 0.8; stroke-linecap: square"/>
     </g>
     <g id="line2d_10">
      <g>
       <use xlink:href="#mb0b7422b08" x="256.611667" y="303.64" style="stroke: #000000; stroke-width: 0.8"/>
      </g>
     </g>
     <g id="text_5">
      <!-- 8 -->
      <g transform="translate(253.430417 318.238437) scale(0.1 -0.1)">
       <defs>
        <path id="DejaVuSans-38" d="M 2034 2216 
Q 1584 2216 1326 1975 
Q 1069 1734 1069 1313 
Q 1069 891 1326 650 
Q 1584 409 2034 409 
Q 2484 409 2743 651 
Q 3003 894 3003 1313 
Q 3003 1734 2745 1975 
Q 2488 2216 2034 2216 
z
M 1403 2484 
Q 997 2584 770 2862 
Q 544 3141 544 3541 
Q 544 4100 942 4425 
Q 1341 4750 2034 4750 
Q 2731 4750 3128 4425 
Q 3525 4100 3525 3541 
Q 3525 3141 3298 2862 
Q 3072 2584 2669 2484 
Q 3125 2378 3379 2068 
Q 3634 1759 3634 1313 
Q 3634 634 3220 271 
Q 2806 -91 2034 -91 
Q 1263 -91 848 271 
Q 434 634 434 1313 
Q 434 1759 690 2068 
Q 947 2378 1403 2484 
z
M 1172 3481 
Q 1172 3119 1398 2916 
Q 1625 2713 2034 2713 
Q 2441 2713 2670 2916 
Q 2900 3119 2900 3481 
Q 2900 3844 2670 4047 
Q 2441 4250 2034 4250 
Q 1625 4250 1398 4047 
Q 1172 3844 1172 3481 
z
" transform="scale(0.015625)"/>
       </defs>
       <use xlink:href="#DejaVuSans-38"/>
      </g>
     </g>
    </g>
    <g id="xtick_6">
     <g id="line2d_11">
      <path d="M 306.518333 303.64 
L 306.518333 25.44 
" clip-path="url(#p4aa78c5fbc)" style="fill: none; stroke: #b0b0b0; stroke-opacity: 0.3; stroke-width: 0.8; stroke-linecap: square"/>
     </g>
     <g id="line2d_12">
      <g>
       <use xlink:href="#mb0b7422b08" x="306.518333" y="303.64" style="stroke: #000000; stroke-width: 0.8"/>
      </g>
     </g>
     <g id="text_6">
      <!-- 10 -->
      <g transform="translate(300.155833 318.238437) scale(0.1 -0.1)">
       <defs>
        <path id="DejaVuSans-31" d="M 794 531 
L 1825 531 
L 1825 4091 
L 703 3866 
L 703 4441 
L 1819 4666 
L 2450 4666 
L 2450 531 
L 3481 531 
L 3481 0 
L 794 0 
L 794 531 
z
" transform="scale(0.015625)"/>
       </defs>
       <use xlink:href="#DejaVuSans-31"/>
       <use xlink:href="#DejaVuSans-30" transform="translate(63.623047 0)"/>
      </g>
     </g>
    </g>
    <g id="xtick_7">
     <g id="line2d_13">
      <path d="M 356.425 303.64 
L 356.425 25.44 
" clip-path="url(#p4aa78c5fbc)" style="fill: none; stroke: #b0b0b0; stroke-opacity: 0.3; stroke-width: 0.8; stroke-linecap: square"/>
     </g>
     <g id="line2d_14">
      <g>
       <use xlink:href="#mb0b7422b08" x="356.425" y="303.64" style="stroke: #000000; stroke-width: 0.8"/>
      </g>
     </g>
     <g id="text_7">
      <!-- 12 -->
      <g transform="translate(350.0625 318.238437) scale(0.1 -0.1)">
       <use xlink:href="#DejaVuSans-31"/>
       <use xlink:href="#DejaVuSans-32" transform="translate(63.623047 0)"/>
      </g>
     </g>
    </g>
    <g id="xtick_8">
     <g id="line2d_15">
      <path d="M 406.331667 303.64 
L 406.331667 25.44 
" clip-path="url(#p4aa78c5fbc)" style="fill: none; stroke: #b0b0b0; stroke-opacity: 0.3; stroke-width: 0.8; stroke-linecap: square"/>
     </g>
     <g id="line2d_16">
      <g>
       <use xlink:href="#mb0b7422b08" x="406.331667" y="303.64" style="stroke: #000000; stroke-width: 0.8"/>
      </g>
     </g>
     <g id="text_8">
      <!-- 14 -->
      <g transform="translate(399.969167 318.238437) scale(0.1 -0.1)">
       <use xlink:href="#DejaVuSans-31"/>
       <use xlink:href="#DejaVuSans-34" transform="translate(63.623047 0)"/>
      </g>
     </g>
    </g>
    <g id="text_9">
     <!-- Time (minutes) -->
     <g transform="translate(206.1725 331.916562) scale(0.1 -0.1)">
      <defs>
       <path id="DejaVuSans-54" d="M -19 4666 
L 3928 4666 
L 3928 4134 
L 2272 4134 
L 2272 0 
L 1638 0 
L 1638 4134 
L -19 4134 
L -19 4666 
z
" transform="scale(0.015625)"/>
       <path id="DejaVuSans-69" d="M 603 3500 
L 1178 3500 
L 1178 0 
L 603 0 
L 603 3500 
z
M 603 4863 
L 1178 4863 
L 1178 4134 
L 603 4134 
L 603 4863 
z
" transform="scale(0.015625)"/>
       <path id="DejaVuSans-6d" d="M 3328 2828 
Q 3544 3216 3844 3400 
Q 4144 3584 4550 3584 
Q 5097 3584 5394 3201 
Q 5691 2819 5691 2113 
L 5691 0 
L 5113 0 
L 5113 2094 
Q 5113 2597 4934 2840 
Q 4756 3084 4391 3084 
Q 3944 3084 3684 2787 
Q 3425 2491 3425 1978 
L 3425 0 
L 2847 0 
L 2847 2094 
Q 2847 2600 2669 2842 
Q 2491 3084 2119 3084 
Q 1678 3084 1418 2786 
Q 1159 2488 1159 1978 
L 1159 0 
L 581 0 
L 581 3500 
L 1159 3500 
L 1159 2956 
Q 1356 3278 1631 3431 
Q 1906 3584 2284 3584 
Q 2666 3584 2933 3390 
Q 3200 3197 3328 2828 
z
" transform="scale(0.015625)"/>
       <path id="DejaVuSans-65" d="M 3597 1894 
L 3597 1613 
L 953 1613 
Q 991 1019 1311 708 
Q 1631 397 2203 397 
Q 2534 397 2845 478 
Q 3156 559 3463 722 
L 3463 178 
Q 3153 47 2828 -22 
Q 2503 -91 2169 -91 
Q 1331 -91 842 396 
Q 353 884 353 1716 
Q 353 2575 817 3079 
Q 1281 3584 2069 3584 
Q 2775 3584 3186 3129 
Q 3597 2675 3597 1894 
z
M 3022 2063 
Q 3016 2534 2758 2815 
Q 2500 3097 2075 3097 
Q 1594 3097 1305 2825 
Q 1016 2553 972 2059 
L 3022 2063 
z
" transform="scale(0.015625)"/>
       <path id="DejaVuSans-20" transform="scale(0.015625)"/>
       <path id="DejaVuSans-28" d="M 1984 4856 
Q 1566 4138 1362 3434 
Q 1159 2731 1159 2009 
Q 1159 1288 1364 580 
Q 1569 -128 1984 -844 
L 1484 -844 
Q 1016 -109 783 600 
Q 550 1309 550 2009 
Q 550 2706 781 3412 
Q 1013 4119 1484 4856 
L 1984 4856 
z
" transform="scale(0.015625)"/>
       <path id="DejaVuSans-6e" d="M 3513 2113 
L 3513 0 
L 2938 0 
L 2938 2094 
Q 2938 2591 2744 2837 
Q 2550 3084 2163 3084 
Q 1697 3084 1428 2787 
Q 1159 2491 1159 1978 
L 1159 0 
L 581 0 
L 581 3500 
L 1159 3500 
L 1159 2956 
Q 1366 3272 1645 3428 
Q 1925 3584 2291 3584 
Q 2894 3584 3203 3211 
Q 3513 2838 3513 2113 
z
" transform="scale(0.015625)"/>
       <path id="DejaVuSans-75" d="M 544 1381 
L 544 3500 
L 1119 3500 
L 1119 1403 
Q 1119 906 1312 657 
Q 1506 409 1894 409 
Q 2359 409 2629 706 
Q 2900 1003 2900 1516 
L 2900 3500 
L 3475 3500 
L 3475 0 
L 2900 0 
L 2900 538 
Q 2691 219 2414 64 
Q 2138 -91 1772 -91 
Q 1169 -91 856 284 
Q 544 659 544 1381 
z
M 1991 3584 
L 1991 3584 
z
" transform="scale(0.015625)"/>
       <path id="DejaVuSans-74" d="M 1172 4494 
L 1172 3500 
L 2356 3500 
L 2356 3053 
L 1172 3053 
L 1172 1153 
Q 1172 725 1289 603 
Q 1406 481 1766 481 
L 2356 481 
L 2356 0 
L 1766 0 
Q 1100 0 847 248 
Q 594 497 594 1153 
L 594 3053 
L 172 3053 
L 172 3500 
L 594 3500 
L 594 4494 
L 1172 4494 
z
" transform="scale(0.015625)"/>
       <path id="DejaVuSans-73" d="M 2834 3397 
L 2834 2853 
Q 2591 2978 2328 3040 
Q 2066 3103 1784 3103 
Q 1356 3103 1142 2972 
Q 928 2841 928 2578 
Q 928 2378 1081 2264 
Q 1234 2150 1697 2047 
L 1894 2003 
Q 2506 1872 2764 1633 
Q 3022 1394 3022 966 
Q 3022 478 2636 193 
Q 2250 -91 1575 -91 
Q 1294 -91 989 -36 
Q 684 19 347 128 
L 347 722 
Q 666 556 975 473 
Q 1284 391 1588 391 
Q 1994 391 2212 530 
Q 2431 669 2431 922 
Q 2431 1156 2273 1281 
Q 2116 1406 1581 1522 
L 1381 1569 
Q 847 1681 609 1914 
Q 372 2147 372 2553 
Q 372 3047 722 3315 
Q 1072 3584 1716 3584 
Q 2034 3584 2315 3537 
Q 2597 3491 2834 3397 
z
" transform="scale(0.015625)"/>
       <path id="DejaVuSans-29" d="M 513 4856 
L 1013 4856 
Q 1481 4119 1714 3412 
Q 1947 2706 1947 2009 
Q 1947 1309 1714 600 
Q 1481 -109 1013 -844 
L 513 -844 
Q 928 -128 1133 580 
Q 1338 1288 1338 2009 
Q 1338 2731 1133 3434 
Q 928 4138 513 4856 
z
" transform="scale(0.015625)"/>
      </defs>
      <use xlink:href="#DejaVuSans-54"/>
      <use xlink:href="#DejaVuSans-69" transform="translate(57.958984 0)"/>
      <use xlink:href="#DejaVuSans-6d" transform="translate(85.742188 0)"/>
      <use xlink:href="#DejaVuSans-65" transform="translate(183.154297 0)"/>
      <use xlink:href="#DejaVuSans-20" transform="translate(244.677734 0)"/>
      <use xlink:href="#DejaVuSans-28" transform="translate(276.464844 0)"/>
      <use xlink:href="#DejaVuSans-6d" transform="translate(315.478516 0)"/>
      <use xlink:href="#DejaVuSans-69" transform="translate(412.890625 0)"/>
      <use xlink:href="#DejaVuSans-6e" transform="translate(440.673828 0)"/>
      <use xlink:href="#DejaVuSans-75" transform="translate(504.052734 0)"/>
      <use xlink:href="#DejaVuSans-74" transform="translate(567.431641 0)"/>
      <use xlink:href="#DejaVuSans-65" transform="translate(606.640625 0)"/>
      <use xlink:href="#DejaVuSans-73" transform="translate(668.164062 0)"/>
      <use xlink:href="#DejaVuSans-29" transform="translate(720.263672 0)"/>
     </g>
    </g>
   </g>
   <g id="matplotlib.axis_2">
    <g id="ytick_1">
     <g id="line2d_17">
      <path d="M 38.27 287.750859 
L 450 287.750859 
" clip-path="url(#p4aa78c5fbc)" style="fill: none; stroke: #b0b0b0; stroke-opacity: 0.3; stroke-width: 0.8; stroke-linecap: square"/>
     </g>
     <g id="line2d_18">
      <defs>
       <path id="m2dcfbe830c" d="M 0 0 
L -3.5 0 
" style="stroke: #000000; stroke-width: 0.8"/>
      </defs>
      <g>
       <use xlink:href="#m2dcfbe830c" x="38.27" y="287.750859" style="stroke: #000000; stroke-width: 0.8"/>
      </g>
     </g>
     <g id="text_10">
      <!-- 0 -->
      <g transform="translate(24.9075 291.550077) scale(0.1 -0.1)">
       <use xlink:href="#DejaVuSans-30"/>
      </g>
     </g>
    </g>
    <g id="ytick_2">
     <g id="line2d_19">
      <path d="M 38.27 237.444195 
L 450 237.444195 
" clip-path="url(#p4aa78c5fbc)" style="fill: none; stroke: #b0b0b0; stroke-opacity: 0.3; stroke-width: 0.8; stroke-linecap: square"/>
     </g>
     <g id="line2d_20">
      <g>
       <use xlink:href="#m2dcfbe830c" x="38.27" y="237.444195" style="stroke: #000000; stroke-width: 0.8"/>
      </g>
     </g>
     <g id="text_11">
      <!-- 1 -->
      <g transform="translate(24.9075 241.243413) scale(0.1 -0.1)">
       <use xlink:href="#DejaVuSans-31"/>
      </g>
     </g>
    </g>
    <g id="ytick_3">
     <g id="line2d_21">
      <path d="M 38.27 187.13753 
L 450 187.13753 
" clip-path="url(#p4aa78c5fbc)" style="fill: none; stroke: #b0b0b0; stroke-opacity: 0.3; stroke-width: 0.8; stroke-linecap: square"/>
     </g>
     <g id="line2d_22">
      <g>
       <use xlink:href="#m2dcfbe830c" x="38.27" y="187.13753" style="stroke: #000000; stroke-width: 0.8"/>
      </g>
     </g>
     <g id="text_12">
      <!-- 2 -->
      <g transform="translate(24.9075 190.936749) scale(0.1 -0.1)">
       <use xlink:href="#DejaVuSans-32"/>
      </g>
     </g>
    </g>
    <g id="ytick_4">
     <g id="line2d_23">
      <path d="M 38.27 136.830866 
L 450 136.830866 
" clip-path="url(#p4aa78c5fbc)" style="fill: none; stroke: #b0b0b0; stroke-opacity: 0.3; stroke-width: 0.8; stroke-linecap: square"/>
     </g>
     <g id="line2d_24">
      <g>
       <use xlink:href="#m2dcfbe830c" x="38.27" y="136.830866" style="stroke: #000000; stroke-width: 0.8"/>
      </g>
     </g>
     <g id="text_13">
      <!-- 3 -->
      <g transform="translate(24.9075 140.630085) scale(0.1 -0.1)">
       <defs>
        <path id="DejaVuSans-33" d="M 2597 2516 
Q 3050 2419 3304 2112 
Q 3559 1806 3559 1356 
Q 3559 666 3084 287 
Q 2609 -91 1734 -91 
Q 1441 -91 1130 -33 
Q 819 25 488 141 
L 488 750 
Q 750 597 1062 519 
Q 1375 441 1716 441 
Q 2309 441 2620 675 
Q 2931 909 2931 1356 
Q 2931 1769 2642 2001 
Q 2353 2234 1838 2234 
L 1294 2234 
L 1294 2753 
L 1863 2753 
Q 2328 2753 2575 2939 
Q 2822 3125 2822 3475 
Q 2822 3834 2567 4026 
Q 2313 4219 1838 4219 
Q 1578 4219 1281 4162 
Q 984 4106 628 3988 
L 628 4550 
Q 988 4650 1302 4700 
Q 1616 4750 1894 4750 
Q 2613 4750 3031 4423 
Q 3450 4097 3450 3541 
Q 3450 3153 3228 2886 
Q 3006 2619 2597 2516 
z
" transform="scale(0.015625)"/>
       </defs>
       <use xlink:href="#DejaVuSans-33"/>
      </g>
     </g>
    </g>
    <g id="ytick_5">
     <g id="line2d_25">
      <path d="M 38.27 86.524202 
L 450 86.524202 
" clip-path="url(#p4aa78c5fbc)" style="fill: none; stroke: #b0b0b0; stroke-opacity: 0.3; stroke-width: 0.8; stroke-linecap: square"/>
     </g>
     <g id="line2d_26">
      <g>
       <use xlink:href="#m2dcfbe830c" x="38.27" y="86.524202" style="stroke: #000000; stroke-width: 0.8"/>
      </g>
     </g>
     <g id="text_14">
      <!-- 4 -->
      <g transform="translate(24.9075 90.323421) scale(0.1 -0.1)">
       <use xlink:href="#DejaVuSans-34"/>
      </g>
     </g>
    </g>
    <g id="ytick_6">
     <g id="line2d_27">
      <path d="M 38.27 36.217538 
L 450 36.217538 
" clip-path="url(#p4aa78c5fbc)" style="fill: none; stroke: #b0b0b0; stroke-opacity: 0.3; stroke-width: 0.8; stroke-linecap: square"/>
     </g>
     <g id="line2d_28">
      <g>
       <use xlink:href="#m2dcfbe830c" x="38.27" y="36.217538" style="stroke: #000000; stroke-width: 0.8"/>
      </g>
     </g>
     <g id="text_15">
      <!-- 5 -->
      <g transform="translate(24.9075 40.016756) scale(0.1 -0.1)">
       <defs>
        <path id="DejaVuSans-35" d="M 691 4666 
L 3169 4666 
L 3169 4134 
L 1269 4134 
L 1269 2991 
Q 1406 3038 1543 3061 
Q 1681 3084 1819 3084 
Q 2600 3084 3056 2656 
Q 3513 2228 3513 1497 
Q 3513 744 3044 326 
Q 2575 -91 1722 -91 
Q 1428 -91 1123 -41 
Q 819 9 494 109 
L 494 744 
Q 775 591 1075 516 
Q 1375 441 1709 441 
Q 2250 441 2565 725 
Q 2881 1009 2881 1497 
Q 2881 1984 2565 2268 
Q 2250 2553 1709 2553 
Q 1456 2553 1204 2497 
Q 953 2441 691 2322 
L 691 4666 
z
" transform="scale(0.015625)"/>
       </defs>
       <use xlink:href="#DejaVuSans-35"/>
      </g>
     </g>
    </g>
    <g id="text_16">
     <!-- EDA signals (μS) -->
     <g transform="translate(18.827813 205.711875) rotate(-90) scale(0.1 -0.1)">
      <defs>
       <path id="DejaVuSans-45" d="M 628 4666 
L 3578 4666 
L 3578 4134 
L 1259 4134 
L 1259 2753 
L 3481 2753 
L 3481 2222 
L 1259 2222 
L 1259 531 
L 3634 531 
L 3634 0 
L 628 0 
L 628 4666 
z
" transform="scale(0.015625)"/>
       <path id="DejaVuSans-44" d="M 1259 4147 
L 1259 519 
L 2022 519 
Q 2988 519 3436 956 
Q 3884 1394 3884 2338 
Q 3884 3275 3436 3711 
Q 2988 4147 2022 4147 
L 1259 4147 
z
M 628 4666 
L 1925 4666 
Q 3281 4666 3915 4102 
Q 4550 3538 4550 2338 
Q 4550 1131 3912 565 
Q 3275 0 1925 0 
L 628 0 
L 628 4666 
z
" transform="scale(0.015625)"/>
       <path id="DejaVuSans-41" d="M 2188 4044 
L 1331 1722 
L 3047 1722 
L 2188 4044 
z
M 1831 4666 
L 2547 4666 
L 4325 0 
L 3669 0 
L 3244 1197 
L 1141 1197 
L 716 0 
L 50 0 
L 1831 4666 
z
" transform="scale(0.015625)"/>
       <path id="DejaVuSans-67" d="M 2906 1791 
Q 2906 2416 2648 2759 
Q 2391 3103 1925 3103 
Q 1463 3103 1205 2759 
Q 947 2416 947 1791 
Q 947 1169 1205 825 
Q 1463 481 1925 481 
Q 2391 481 2648 825 
Q 2906 1169 2906 1791 
z
M 3481 434 
Q 3481 -459 3084 -895 
Q 2688 -1331 1869 -1331 
Q 1566 -1331 1297 -1286 
Q 1028 -1241 775 -1147 
L 775 -588 
Q 1028 -725 1275 -790 
Q 1522 -856 1778 -856 
Q 2344 -856 2625 -561 
Q 2906 -266 2906 331 
L 2906 616 
Q 2728 306 2450 153 
Q 2172 0 1784 0 
Q 1141 0 747 490 
Q 353 981 353 1791 
Q 353 2603 747 3093 
Q 1141 3584 1784 3584 
Q 2172 3584 2450 3431 
Q 2728 3278 2906 2969 
L 2906 3500 
L 3481 3500 
L 3481 434 
z
" transform="scale(0.015625)"/>
       <path id="DejaVuSans-61" d="M 2194 1759 
Q 1497 1759 1228 1600 
Q 959 1441 959 1056 
Q 959 750 1161 570 
Q 1363 391 1709 391 
Q 2188 391 2477 730 
Q 2766 1069 2766 1631 
L 2766 1759 
L 2194 1759 
z
M 3341 1997 
L 3341 0 
L 2766 0 
L 2766 531 
Q 2569 213 2275 61 
Q 1981 -91 1556 -91 
Q 1019 -91 701 211 
Q 384 513 384 1019 
Q 384 1609 779 1909 
Q 1175 2209 1959 2209 
L 2766 2209 
L 2766 2266 
Q 2766 2663 2505 2880 
Q 2244 3097 1772 3097 
Q 1472 3097 1187 3025 
Q 903 2953 641 2809 
L 641 3341 
Q 956 3463 1253 3523 
Q 1550 3584 1831 3584 
Q 2591 3584 2966 3190 
Q 3341 2797 3341 1997 
z
" transform="scale(0.015625)"/>
       <path id="DejaVuSans-6c" d="M 603 4863 
L 1178 4863 
L 1178 0 
L 603 0 
L 603 4863 
z
" transform="scale(0.015625)"/>
       <path id="DejaVuSans-3bc" d="M 544 -1331 
L 544 3500 
L 1119 3500 
L 1119 1325 
Q 1119 872 1334 640 
Q 1550 409 1972 409 
Q 2434 409 2667 671 
Q 2900 934 2900 1459 
L 2900 3500 
L 3475 3500 
L 3475 806 
Q 3475 619 3529 530 
Q 3584 441 3700 441 
Q 3728 441 3778 458 
Q 3828 475 3916 513 
L 3916 50 
Q 3788 -22 3673 -56 
Q 3559 -91 3450 -91 
Q 3234 -91 3106 31 
Q 2978 153 2931 403 
Q 2775 156 2548 32 
Q 2322 -91 2016 -91 
Q 1697 -91 1473 31 
Q 1250 153 1119 397 
L 1119 -1331 
L 544 -1331 
z
" transform="scale(0.015625)"/>
       <path id="DejaVuSans-53" d="M 3425 4513 
L 3425 3897 
Q 3066 4069 2747 4153 
Q 2428 4238 2131 4238 
Q 1616 4238 1336 4038 
Q 1056 3838 1056 3469 
Q 1056 3159 1242 3001 
Q 1428 2844 1947 2747 
L 2328 2669 
Q 3034 2534 3370 2195 
Q 3706 1856 3706 1288 
Q 3706 609 3251 259 
Q 2797 -91 1919 -91 
Q 1588 -91 1214 -16 
Q 841 59 441 206 
L 441 856 
Q 825 641 1194 531 
Q 1563 422 1919 422 
Q 2459 422 2753 634 
Q 3047 847 3047 1241 
Q 3047 1584 2836 1778 
Q 2625 1972 2144 2069 
L 1759 2144 
Q 1053 2284 737 2584 
Q 422 2884 422 3419 
Q 422 4038 858 4394 
Q 1294 4750 2059 4750 
Q 2388 4750 2728 4690 
Q 3069 4631 3425 4513 
z
" transform="scale(0.015625)"/>
      </defs>
      <use xlink:href="#DejaVuSans-45"/>
      <use xlink:href="#DejaVuSans-44" transform="translate(63.183594 0)"/>
      <use xlink:href="#DejaVuSans-41" transform="translate(138.435547 0)"/>
      <use xlink:href="#DejaVuSans-20" transform="translate(206.84375 0)"/>
      <use xlink:href="#DejaVuSans-73" transform="translate(238.630859 0)"/>
      <use xlink:href="#DejaVuSans-69" transform="translate(290.730469 0)"/>
      <use xlink:href="#DejaVuSans-67" transform="translate(318.513672 0)"/>
      <use xlink:href="#DejaVuSans-6e" transform="translate(381.990234 0)"/>
      <use xlink:href="#DejaVuSans-61" transform="translate(445.369141 0)"/>
      <use xlink:href="#DejaVuSans-6c" transform="translate(506.648438 0)"/>
      <use xlink:href="#DejaVuSans-73" transform="translate(534.431641 0)"/>
      <use xlink:href="#DejaVuSans-20" transform="translate(586.53125 0)"/>
      <use xlink:href="#DejaVuSans-28" transform="translate(618.318359 0)"/>
      <use xlink:href="#DejaVuSans-3bc" transform="translate(657.332031 0)"/>
      <use xlink:href="#DejaVuSans-53" transform="translate(720.955078 0)"/>
      <use xlink:href="#DejaVuSans-29" transform="translate(784.431641 0)"/>
     </g>
    </g>
   </g>
   <g id="line2d_29">
    <path d="M 56.985 101.164242 
L 57.50515 99.952295 
L 58.12933 97.842423 
L 58.85754 94.516284 
L 60.105901 87.469481 
L 61.250231 81.31459 
L 61.874411 78.906424 
L 62.394561 77.636535 
L 62.810681 77.094642 
L 63.226801 76.902469 
L 63.642921 76.961497 
L 64.371131 77.371699 
L 66.347702 78.843562 
L 67.283972 79.901733 
L 68.636362 81.49749 
L 69.364572 81.977281 
L 70.508902 82.585676 
L 70.925022 83.138252 
L 71.341142 84.076958 
L 71.861292 85.941759 
L 72.485472 89.287482 
L 73.213683 94.540693 
L 75.918463 115.56016 
L 76.750703 119.698564 
L 79.143394 130.4921 
L 81.432054 142.180565 
L 83.408624 150.325806 
L 84.761014 155.326251 
L 85.489225 157.224623 
L 86.009375 157.996445 
L 86.425495 158.204019 
L 86.737585 158.124364 
L 87.153705 157.7536 
L 88.818185 155.829143 
L 89.130275 155.848555 
L 89.546395 156.146893 
L 90.066545 156.85286 
L 91.314906 158.673512 
L 91.835056 159.012508 
L 92.355206 159.068284 
L 93.187446 158.857411 
L 93.915656 158.509916 
L 94.331776 158.07773 
L 94.747896 157.244888 
L 95.164016 155.788041 
L 95.580136 153.523869 
L 96.100286 149.466172 
L 97.036556 139.806368 
L 97.868797 132.060945 
L 98.284917 129.766891 
L 98.597007 128.985368 
L 98.805067 128.926015 
L 99.013127 129.221023 
L 99.325217 130.264634 
L 99.741337 132.559261 
L 100.573577 138.770332 
L 101.717907 146.9063 
L 102.446117 150.658097 
L 103.174327 153.351311 
L 104.006568 155.5725 
L 107.127468 162.521809 
L 107.855678 163.691268 
L 108.479858 164.291188 
L 109.104038 164.548545 
L 109.832248 164.568318 
L 111.600759 164.49686 
L 112.745089 164.741993 
L 114.201509 165.29459 
L 115.553899 166.030438 
L 116.90629 167.046512 
L 123.356151 172.368581 
L 125.124661 173.349551 
L 127.101231 174.468568 
L 128.349591 175.464775 
L 130.742282 177.472363 
L 131.782582 177.995032 
L 133.447062 178.77199 
L 134.279302 179.435715 
L 135.319603 180.588624 
L 139.272743 185.341058 
L 141.561404 187.574311 
L 143.433944 189.090328 
L 145.202454 190.576254 
L 146.554844 192.057943 
L 148.635445 194.378988 
L 150.091865 195.546558 
L 152.068435 197.199055 
L 153.732916 198.482009 
L 164.343977 205.469878 
L 177.867879 213.492007 
L 179.3243 214.101964 
L 180.98878 214.538325 
L 184.5258 215.434401 
L 188.791031 217.069541 
L 191.911932 218.341799 
L 195.240892 219.924625 
L 197.945673 221.444495 
L 202.939113 224.416199 
L 209.388974 227.596235 
L 216.046895 230.61939 
L 217.815406 231.687368 
L 219.687946 232.771 
L 221.872576 233.694147 
L 229.570798 236.77684 
L 235.188419 238.652254 
L 236.852899 238.812777 
L 238.309319 239.004236 
L 239.349619 239.384443 
L 240.702009 240.151745 
L 244.03097 242.139494 
L 245.38336 242.576264 
L 251.521131 244.058083 
L 260.051593 245.487271 
L 260.779803 245.242326 
L 261.612043 244.688995 
L 263.380553 243.371308 
L 264.108763 243.175687 
L 264.836973 243.220128 
L 265.981304 243.551016 
L 268.061904 244.151667 
L 269.206234 244.234391 
L 273.263405 244.220763 
L 277.736695 245.013604 
L 281.481776 245.692223 
L 282.730136 245.746061 
L 283.666406 245.565361 
L 284.706707 245.106816 
L 286.059097 244.523123 
L 286.787307 244.465608 
L 287.619547 244.650587 
L 292.612988 246.266594 
L 293.757318 246.34224 
L 294.901648 246.194028 
L 297.398369 245.752925 
L 298.438669 245.872122 
L 300.103149 246.344075 
L 302.703899 247.036853 
L 304.26435 247.240473 
L 305.8248 247.222027 
L 307.28122 247.004387 
L 308.42555 246.627992 
L 309.46585 246.049394 
L 311.130331 245.071613 
L 311.962571 244.863965 
L 313.835111 244.520057 
L 314.875411 243.965933 
L 316.331832 243.205764 
L 317.580192 242.85585 
L 318.724522 242.479117 
L 319.452732 242.00067 
L 320.076912 241.299976 
L 320.701092 240.189181 
L 321.325272 238.543076 
L 322.053482 235.889917 
L 323.093783 231.045439 
L 326.942893 211.184004 
L 327.671103 204.905757 
L 328.503344 195.400909 
L 331.832304 153.941145 
L 332.872604 145.123723 
L 333.496784 141.287257 
L 334.016934 139.378303 
L 334.329024 138.868785 
L 334.537084 138.782276 
L 334.745145 138.874436 
L 335.057235 139.276645 
L 336.097535 141.018621 
L 336.305595 141.050571 
L 336.513655 140.864239 
L 336.825745 140.098391 
L 337.137835 138.678521 
L 337.553955 135.728887 
L 338.178135 129.313629 
L 340.570825 101.907608 
L 342.131276 87.678611 
L 343.483666 71.668163 
L 344.419936 61.912209 
L 345.148146 56.537679 
L 345.772326 53.569983 
L 346.292476 52.133994 
L 346.708596 51.54901 
L 347.124717 51.351223 
L 347.540837 51.426666 
L 348.165017 51.827162 
L 349.205317 52.811689 
L 350.037557 53.913644 
L 350.973827 55.614854 
L 352.534277 58.987079 
L 353.262487 61.149652 
L 353.886668 63.752995 
L 354.718908 68.334605 
L 356.695478 79.734852 
L 357.527718 83.071581 
L 358.151898 84.655273 
L 358.568018 85.235171 
L 358.984138 85.482465 
L 359.400258 85.49055 
L 360.128469 85.235455 
L 361.792949 84.605151 
L 362.209069 84.642347 
L 362.625189 84.900038 
L 363.041309 85.418393 
L 363.769519 86.779894 
L 364.497729 88.016282 
L 364.913849 88.320939 
L 365.225939 88.284199 
L 365.538029 88.015997 
L 365.95415 87.339377 
L 366.57833 85.811722 
L 367.41057 83.117356 
L 368.34684 79.23236 
L 370.53147 69.528669 
L 372.195951 63.846813 
L 372.716101 62.730753 
L 373.028191 62.488426 
L 373.236251 62.544699 
L 373.548341 62.966595 
L 373.964461 64.097663 
L 374.796701 67.409878 
L 375.524911 69.994817 
L 376.149091 71.388369 
L 377.501481 73.807641 
L 378.021631 75.630539 
L 378.541782 78.352611 
L 379.165962 82.820175 
L 381.246562 99.289945 
L 381.662682 100.588459 
L 381.870742 100.749408 
L 382.078802 100.557655 
L 382.286862 100.003291 
L 382.598952 98.493186 
L 383.015072 95.284631 
L 383.639252 88.379039 
L 384.887613 71.064815 
L 386.031943 56.499638 
L 386.760153 49.714882 
L 387.280303 46.515349 
L 387.696423 45.034063 
L 388.008513 44.520076 
L 388.320603 44.43902 
L 388.632693 44.676899 
L 389.672993 45.828647 
L 389.881053 45.801816 
L 390.193143 45.469908 
L 390.609263 44.476745 
L 391.233444 42.142844 
L 392.065684 39.075916 
L 392.481804 38.248053 
L 392.793894 38.085455 
L 393.001954 38.206617 
L 393.314044 38.722544 
L 393.730164 39.978707 
L 394.250314 42.305714 
L 395.082554 47.244564 
L 396.747034 57.477353 
L 397.371215 59.835392 
L 397.891365 61.043575 
L 399.659875 64.340084 
L 401.116295 67.856687 
L 401.532415 68.320015 
L 401.948535 68.4574 
L 402.468685 68.333696 
L 402.988835 68.220266 
L 403.300926 68.329392 
L 403.613016 68.666128 
L 404.029136 69.549119 
L 404.549286 71.356642 
L 405.485556 75.779053 
L 406.317796 79.346824 
L 406.941976 81.099688 
L 407.462126 81.953553 
L 407.982276 82.390913 
L 408.502426 82.51745 
L 409.022576 82.385597 
L 409.646757 81.967441 
L 410.478997 81.39211 
L 410.895117 81.356313 
L 411.207207 81.529149 
L 411.623327 82.077328 
L 412.143477 83.295683 
L 412.767657 85.475724 
L 413.599897 89.289356 
L 415.056317 96.090047 
L 415.576467 97.608522 
L 415.992588 98.297564 
L 416.408708 98.588116 
L 416.928858 98.635467 
L 417.553038 98.735358 
L 417.969158 99.071958 
L 418.385278 99.698336 
L 419.009458 101.094301 
L 421.298118 106.716301 
L 424.106929 112.606413 
L 424.627079 113.062748 
L 425.043199 113.090535 
L 425.459319 112.806572 
L 425.979469 112.071162 
L 427.747979 109.140863 
L 428.164099 109.005412 
L 428.58022 109.159597 
L 429.10037 109.638183 
L 430.14067 110.667723 
L 430.66082 110.856282 
L 431.18097 110.76716 
L 431.285 110.722077 
L 431.285 110.722077 
" clip-path="url(#p4aa78c5fbc)" style="fill: none; stroke-dasharray: 1.85,0.8; stroke-dashoffset: 0; stroke: #1f77b4; stroke-width: 0.5"/>
   </g>
   <g id="line2d_30">
    <path d="M 56.985 102.653525 
L 57.50515 97.821673 
L 58.0253 95.033637 
L 58.44142 93.983035 
L 58.75351 93.737456 
L 59.0656 93.852581 
L 59.48172 94.405112 
L 60.938141 96.867168 
L 61.250231 96.881743 
L 61.562321 96.557896 
L 61.978441 95.667722 
L 62.498591 93.964873 
L 63.330831 90.356274 
L 64.995311 82.897125 
L 65.619491 81.082987 
L 66.139641 80.224623 
L 66.555762 79.925768 
L 66.971882 79.937386 
L 67.388002 80.227842 
L 67.908152 80.934835 
L 68.532332 82.206088 
L 69.364572 84.443367 
L 70.508902 88.189528 
L 71.757262 93.103468 
L 73.005623 98.950497 
L 74.358013 106.396601 
L 78.415183 129.74374 
L 79.871604 136.140762 
L 84.240864 153.602315 
L 85.177135 156.423906 
L 85.801315 157.718937 
L 86.321465 158.344684 
L 86.737585 158.546604 
L 87.153705 158.539624 
L 87.777885 158.259788 
L 89.546395 157.248832 
L 89.962515 157.294369 
L 90.378635 157.564365 
L 90.898785 158.223855 
L 92.875356 161.172852 
L 93.291476 161.291095 
L 93.603566 161.139582 
L 93.915656 160.740826 
L 94.331776 159.760204 
L 94.851926 157.724284 
L 95.580136 153.681868 
L 97.972827 139.33393 
L 98.492977 137.769228 
L 98.805067 137.361969 
L 99.013127 137.318338 
L 99.325217 137.562916 
L 99.637307 138.141384 
L 100.157457 139.730925 
L 100.885667 142.935938 
L 103.798508 157.108175 
L 104.630748 159.58851 
L 105.462988 161.392714 
L 106.295228 162.65682 
L 107.127468 163.516719 
L 107.959708 164.085552 
L 108.895978 164.462777 
L 110.040309 164.673768 
L 113.577329 165.133649 
L 114.825689 165.602717 
L 115.970019 166.293645 
L 117.42644 167.475777 
L 121.89973 171.311643 
L 124.084361 172.792507 
L 128.557651 175.687242 
L 135.735723 181.331905 
L 137.088113 182.800396 
L 140.625133 186.836072 
L 142.185584 188.106098 
L 144.578274 190.023259 
L 146.242754 191.740982 
L 149.467685 195.131908 
L 151.444255 196.788183 
L 154.149036 198.726389 
L 162.471437 204.241535 
L 168.817268 208.24532 
L 177.867879 213.503945 
L 179.53236 214.107622 
L 183.17341 215.09135 
L 186.294311 216.091604 
L 190.039391 217.57466 
L 194.408652 219.477409 
L 197.009402 220.906729 
L 205.019714 225.500511 
L 211.365545 228.515472 
L 215.630775 230.444757 
L 222.080636 233.816953 
L 228.114377 236.247221 
L 232.483638 237.83895 
L 235.188419 238.602614 
L 240.181859 239.859579 
L 241.63828 240.686389 
L 244.44709 242.349137 
L 245.79948 242.837283 
L 247.672021 243.254385 
L 256.722632 245.046343 
L 259.115322 245.421513 
L 260.259653 245.376871 
L 261.299953 245.103974 
L 262.756373 244.421375 
L 264.420853 243.692015 
L 265.357123 243.531009 
L 266.293394 243.611205 
L 267.749814 243.999217 
L 269.414294 244.405615 
L 270.662654 244.457637 
L 275.031915 244.410166 
L 276.800425 244.774285 
L 281.273716 245.879158 
L 282.314016 245.781499 
L 283.770436 245.375009 
L 285.642977 244.869586 
L 286.683277 244.817371 
L 287.931637 244.988101 
L 289.908207 245.532318 
L 292.300898 246.150356 
L 293.757318 246.306814 
L 295.005678 246.226756 
L 298.334639 245.870349 
L 299.478969 246.07372 
L 301.455539 246.71171 
L 303.120019 247.152361 
L 304.47241 247.27982 
L 305.92883 247.19592 
L 307.48928 246.878031 
L 309.25779 246.282925 
L 311.546451 245.260629 
L 313.418991 244.486316 
L 314.563321 244.256931 
L 315.499591 244.29538 
L 317.268102 244.459202 
L 317.996312 244.256533 
L 318.620492 243.827491 
L 319.244672 243.086815 
L 319.972882 241.782914 
L 320.805122 239.804968 
L 321.949452 236.474028 
L 324.030053 229.596062 
L 324.966323 225.907508 
L 325.798563 221.616493 
L 326.526773 216.675797 
L 327.254983 210.282041 
L 328.087223 200.882672 
L 329.647674 179.820582 
L 331.000064 162.743553 
L 331.728274 155.799702 
L 332.352454 151.630325 
L 332.976634 148.834475 
L 333.600814 147.053227 
L 334.224994 145.927655 
L 335.889475 143.402043 
L 336.513655 141.683187 
L 337.137835 139.275247 
L 337.866045 135.493838 
L 338.594255 130.550756 
L 339.426495 123.324509 
L 340.362765 112.991083 
L 341.819186 93.701632 
L 343.483666 72.45684 
L 344.315906 64.371055 
L 345.044116 59.349486 
L 345.668296 56.379805 
L 346.292476 54.430208 
L 346.812626 53.440025 
L 347.332777 52.902794 
L 347.852927 52.702405 
L 348.477107 52.744298 
L 349.101287 53.002523 
L 349.725467 53.525432 
L 350.349647 54.373462 
L 350.973827 55.607052 
L 351.702037 57.614175 
L 352.430247 60.324324 
L 353.366518 64.852732 
L 356.383388 80.518549 
L 357.111598 82.845545 
L 357.735778 84.171068 
L 358.359958 85.03207 
L 359.088168 85.64451 
L 361.168769 87.065449 
L 363.665489 89.659128 
L 364.185639 89.774508 
L 364.601759 89.64628 
L 365.017879 89.281748 
L 365.538029 88.472933 
L 366.16221 87.049797 
L 366.99445 84.540987 
L 368.24281 79.927299 
L 370.84356 70.110255 
L 371.6758 67.797355 
L 372.299981 66.572687 
L 372.820131 65.964682 
L 373.236251 65.788936 
L 373.548341 65.855624 
L 373.964461 66.215048 
L 374.380581 66.885503 
L 374.900731 68.16409 
L 375.524911 70.349783 
L 376.253121 73.806647 
L 377.085361 78.966727 
L 378.125661 87.124957 
L 379.686112 99.471474 
L 380.310292 102.960994 
L 380.830442 104.690733 
L 381.142532 105.086243 
L 381.350592 105.044121 
L 381.558652 104.735993 
L 381.870742 103.754676 
L 382.286862 101.574141 
L 382.911042 96.777201 
L 383.847312 87.274854 
L 385.927913 65.162102 
L 386.760153 59.003809 
L 387.592393 54.498277 
L 388.424633 51.208571 
L 389.360903 48.416911 
L 391.025384 44.297438 
L 391.753594 42.983525 
L 392.273744 42.420503 
L 392.689864 42.263463 
L 393.001954 42.346609 
L 393.314044 42.623253 
L 393.730164 43.326208 
L 394.250314 44.803589 
L 394.874494 47.404126 
L 395.810764 52.399717 
L 397.683305 62.657295 
L 398.411515 65.381424 
L 399.035695 66.801601 
L 399.555845 67.493244 
L 400.180025 67.940696 
L 401.844505 68.852993 
L 402.364655 69.579055 
L 402.884805 70.715063 
L 403.717046 73.182002 
L 406.109736 80.777734 
L 406.733916 81.893622 
L 407.254066 82.363926 
L 407.774216 82.53076 
L 408.502426 82.484139 
L 409.438696 82.430174 
L 409.958847 82.639494 
L 410.374967 83.034227 
L 410.791087 83.697881 
L 411.415267 85.226691 
L 412.247507 87.970161 
L 414.640197 96.26736 
L 415.264377 97.554318 
L 415.888558 98.33998 
L 416.616768 98.867786 
L 417.969158 99.703023 
L 418.489308 100.295568 
L 419.009458 101.203147 
L 419.633638 102.795242 
L 420.673938 106.234474 
L 422.234389 111.368002 
L 422.858569 112.785629 
L 423.378719 113.461932 
L 423.794839 113.654704 
L 424.210959 113.612116 
L 424.835139 113.268977 
L 426.083499 112.494059 
L 426.499619 112.481099 
L 426.915739 112.714273 
L 427.331859 113.267655 
L 427.852009 114.478346 
L 428.47619 116.559316 
L 429.51649 120.961501 
L 431.285 128.469738 
L 431.285 128.469738 
" clip-path="url(#p4aa78c5fbc)" style="fill: none; stroke: #ff7f0e; stroke-width: 0.5; stroke-linecap: square"/>
   </g>
   <g id="line2d_31">
    <path d="M 56.985 287.750859 
L 57.08903 287.750859 
L 57.19306 287.130564 
L 57.40112 290.094407 
L 57.60918 290.948424 
L 57.71321 290.994545 
L 57.92127 290.741068 
L 58.75351 289.026253 
L 59.0656 287.351798 
L 59.79381 282.08588 
L 60.938141 273.742044 
L 61.458291 271.49247 
L 61.770381 270.85204 
L 61.978441 270.711336 
L 62.186501 270.788301 
L 62.498591 271.280724 
L 62.914711 272.541677 
L 63.538891 275.345246 
L 65.307401 283.929089 
L 65.827551 285.587226 
L 66.347702 286.573979 
L 66.867852 287.118169 
L 67.492032 287.451722 
L 67.908152 287.546236 
L 68.324272 287.234749 
L 68.844422 286.46629 
L 69.468602 285.049632 
L 71.237112 280.634937 
L 71.653232 280.219014 
L 71.965322 280.185955 
L 72.277412 280.399728 
L 72.693533 281.042198 
L 73.317713 282.600179 
L 73.837863 284.216846 
L 74.462043 285.952487 
L 74.982193 286.7735 
L 75.502343 287.225561 
L 76.022493 287.436792 
L 76.438613 287.061562 
L 77.270853 285.847511 
L 77.895033 285.086705 
L 78.311153 284.867423 
L 78.727273 284.918177 
L 79.143394 285.210081 
L 79.767574 285.947378 
L 80.495784 286.904063 
L 81.119964 287.343073 
L 81.848174 287.580114 
L 82.680414 287.643843 
L 83.408624 287.66192 
L 85.697285 287.744385 
L 86.217435 287.674036 
L 86.945645 287.187918 
L 88.298035 286.065631 
L 88.714155 286.009567 
L 88.922215 286.096378 
L 90.378635 287.381031 
L 91.106845 287.595625 
L 91.314906 287.55278 
L 91.939086 286.826377 
L 92.979386 285.475201 
L 93.395506 285.299768 
L 93.811626 285.433533 
L 95.164016 287.169166 
L 95.788196 287.450577 
L 95.996256 287.158917 
L 96.412376 286.017366 
L 97.036556 283.401324 
L 97.868797 280.081546 
L 98.284917 279.276725 
L 98.492977 279.165898 
L 98.701037 279.241717 
L 99.013127 279.684528 
L 99.429247 280.818829 
L 100.053427 283.266474 
L 100.677607 285.47637 
L 101.197757 286.515579 
L 101.717907 287.087074 
L 102.134027 287.325753 
L 102.446117 287.147282 
L 103.174327 286.4107 
L 104.214628 285.389047 
L 104.734778 285.123386 
L 105.254928 285.118193 
L 105.775078 285.382431 
L 106.399258 285.947877 
L 107.335528 287.050441 
L 107.959708 287.414664 
L 108.791948 287.626741 
L 109.936278 287.680179 
L 111.184639 287.485443 
L 112.432999 287.537971 
L 114.305539 287.723041 
L 118.6748 287.749973 
L 126.477051 287.604339 
L 127.517351 287.655815 
L 129.597952 287.742464 
L 131.366462 287.672851 
L 133.655122 287.091795 
L 134.591392 287.198324 
L 136.047813 287.630697 
L 137.608263 287.732276 
L 139.584833 287.663727 
L 140.729163 287.675241 
L 143.121854 287.746143 
L 149.779775 287.67703 
L 150.924105 287.624551 
L 153.212765 287.741124 
L 164.239947 287.750721 
L 237.060959 287.63851 
L 238.517379 287.573554 
L 240.806039 287.736568 
L 244.75918 287.700075 
L 246.52769 287.643205 
L 248.816351 287.742794 
L 260.779803 287.745804 
L 261.508013 287.53154 
L 263.068463 287.056033 
L 263.900703 287.090515 
L 266.501454 287.710394 
L 268.790114 287.722335 
L 270.766684 287.425914 
L 271.911014 287.47829 
L 273.367435 287.695124 
L 275.968185 287.748342 
L 278.568936 287.654956 
L 280.649536 287.515553 
L 282.938196 287.731241 
L 285.226857 287.671971 
L 286.579247 287.426916 
L 287.515517 287.492508 
L 289.075967 287.703858 
L 291.988808 287.749367 
L 296.045978 287.645242 
L 297.398369 287.687315 
L 299.895089 287.747498 
L 309.25779 287.68011 
L 310.922271 287.381411 
L 313.106901 287.715547 
L 314.563321 287.678868 
L 315.915712 286.804379 
L 316.851982 286.346259 
L 317.580192 286.232678 
L 318.308402 286.35818 
L 318.828552 286.604925 
L 319.764822 287.317466 
L 320.493032 287.567548 
L 321.637362 287.704353 
L 321.949452 287.628579 
L 322.677663 286.739099 
L 324.654233 283.852069 
L 325.070353 283.718946 
L 325.486473 283.854648 
L 326.006623 284.354247 
L 326.734833 285.410649 
L 327.463043 286.642342 
L 328.087223 287.216349 
L 328.815434 287.527045 
L 329.855734 287.686394 
L 330.687974 287.640963 
L 331.208124 287.492442 
L 331.624244 287.087893 
L 332.040364 286.263757 
L 332.664544 284.390513 
L 333.600814 281.530523 
L 334.016934 280.908018 
L 334.224994 280.841519 
L 334.433054 280.95111 
L 334.641115 281.227397 
L 335.057235 282.175988 
L 336.097535 285.807976 
L 336.617685 286.698269 
L 337.137835 287.150899 
L 337.345895 286.824429 
L 337.762015 285.506829 
L 338.386195 282.483236 
L 339.218435 278.617684 
L 339.634555 277.69565 
L 339.842615 277.61226 
L 340.050675 277.796511 
L 340.362765 278.540047 
L 340.882916 280.623121 
L 341.715156 284.655744 
L 342.235306 286.063973 
L 342.755456 286.843442 
L 343.171576 287.138141 
L 343.691726 286.845692 
L 344.732026 285.853524 
L 345.356206 285.443198 
L 345.876356 285.367785 
L 346.396506 285.536833 
L 347.124717 286.062434 
L 348.789197 287.349624 
L 349.621437 287.601254 
L 350.973827 287.721198 
L 351.285917 287.64544 
L 351.806067 287.162197 
L 352.430247 286.189208 
L 353.678608 284.039226 
L 354.094728 283.715146 
L 354.510848 283.672597 
L 354.926968 283.868051 
L 355.551148 284.443055 
L 356.487418 285.596594 
L 357.215628 286.729369 
L 357.839808 287.25823 
L 358.568018 287.544559 
L 359.192198 287.587193 
L 360.024439 286.893324 
L 360.960709 285.798954 
L 362.313099 284.04114 
L 362.729219 283.887852 
L 363.041309 283.987867 
L 363.457429 284.396437 
L 364.081609 285.374556 
L 364.913849 286.746219 
L 365.538029 287.268321 
L 366.26624 287.548992 
L 367.41057 287.699778 
L 368.03475 287.671302 
L 368.76296 287.181258 
L 369.80326 286.414853 
L 370.6355 286.145822 
L 371.25968 285.84952 
L 371.88386 285.243939 
L 372.612071 284.513483 
L 372.924161 284.412878 
L 373.340281 284.568524 
L 373.756401 285.409159 
L 374.380581 286.551756 
L 374.900731 287.098358 
L 375.420881 287.399944 
L 375.524911 287.404572 
L 375.732971 287.082006 
L 376.149091 285.918079 
L 376.773271 283.24261 
L 378.333722 276.049947 
L 378.749842 275.111536 
L 379.061932 274.87024 
L 379.269992 274.936893 
L 379.582082 275.365229 
L 379.998202 276.485283 
L 380.622382 279.015837 
L 382.078802 285.478061 
L 382.598952 286.522855 
L 383.119102 287.091939 
L 383.327162 287.082571 
L 383.743282 286.4096 
L 384.367462 284.823645 
L 386.552093 278.808387 
L 386.968213 278.299914 
L 387.280303 278.275228 
L 387.592393 278.59876 
L 388.008513 279.570714 
L 388.528663 281.447957 
L 389.360903 285.033072 
L 389.881053 286.270692 
L 390.401203 286.954746 
L 390.609263 287.033299 
L 391.025384 286.471143 
L 392.585834 283.654551 
L 392.897924 283.606684 
L 393.210014 283.780863 
L 393.730164 284.433675 
L 395.498674 287.083914 
L 396.122854 287.433592 
L 396.643004 287.536455 
L 397.059125 287.031596 
L 397.579275 285.989109 
L 398.411515 284.280816 
L 398.827635 283.911378 
L 399.139725 283.934134 
L 399.555845 284.307658 
L 400.180025 285.727864 
L 400.700175 286.621571 
L 401.220325 287.139079 
L 401.740475 287.419814 
L 401.948535 287.270526 
L 402.364655 286.574057 
L 404.029136 283.099024 
L 404.341226 283.018158 
L 404.653316 283.184714 
L 405.069436 283.713001 
L 407.254066 287.105097 
L 407.878246 287.443472 
L 408.814516 287.650908 
L 409.230636 287.650908 
L 409.750787 287.141513 
L 410.374967 286.185948 
L 411.831387 283.753736 
L 412.351537 283.374466 
L 412.767657 283.354387 
L 413.183777 283.59028 
L 413.703927 284.221182 
L 414.120047 284.917487 
L 414.952287 286.55077 
L 415.472437 287.098474 
L 416.096618 287.441289 
L 416.616768 287.552814 
L 417.657068 287.103596 
L 418.281248 287.338045 
L 419.217518 287.607126 
L 419.841698 287.658922 
L 420.361848 287.25198 
L 421.194088 286.204065 
L 421.922298 285.387224 
L 422.442449 285.134858 
L 422.858569 285.220594 
L 423.066629 285.292087 
L 423.482749 285.914666 
L 424.106929 286.805529 
L 424.731109 287.295701 
L 425.459319 287.560312 
L 425.771409 287.571368 
L 426.187529 287.000562 
L 426.707679 285.879502 
L 427.539919 283.420331 
L 430.45276 273.431287 
L 431.18097 270.277328 
L 431.285 270.677704 
L 431.285 270.677704 
" clip-path="url(#p4aa78c5fbc)" style="fill: none; stroke: #2ca02c; stroke-width: 0.5; stroke-linecap: square"/>
   </g>
   <g id="patch_3">
    <path d="M 38.27 303.64 
L 38.27 25.44 
" style="fill: none; stroke: #000000; stroke-width: 0.8; stroke-linejoin: miter; stroke-linecap: square"/>
   </g>
   <g id="patch_4">
    <path d="M 450 303.64 
L 450 25.44 
" style="fill: none; stroke: #000000; stroke-width: 0.8; stroke-linejoin: miter; stroke-linecap: square"/>
   </g>
   <g id="patch_5">
    <path d="M 38.27 303.64 
L 450 303.64 
" style="fill: none; stroke: #000000; stroke-width: 0.8; stroke-linejoin: miter; stroke-linecap: square"/>
   </g>
   <g id="patch_6">
    <path d="M 38.27 25.44 
L 450 25.44 
" style="fill: none; stroke: #000000; stroke-width: 0.8; stroke-linejoin: miter; stroke-linecap: square"/>
   </g>
   <g id="text_17">
    <!-- cvxEDA (σ=3.6s  data_6_E4) -->
    <g transform="translate(158.48125 19.44) scale(0.12 -0.12)">
     <defs>
      <path id="DejaVuSans-63" d="M 3122 3366 
L 3122 2828 
Q 2878 2963 2633 3030 
Q 2388 3097 2138 3097 
Q 1578 3097 1268 2742 
Q 959 2388 959 1747 
Q 959 1106 1268 751 
Q 1578 397 2138 397 
Q 2388 397 2633 464 
Q 2878 531 3122 666 
L 3122 134 
Q 2881 22 2623 -34 
Q 2366 -91 2075 -91 
Q 1284 -91 818 406 
Q 353 903 353 1747 
Q 353 2603 823 3093 
Q 1294 3584 2113 3584 
Q 2378 3584 2631 3529 
Q 2884 3475 3122 3366 
z
" transform="scale(0.015625)"/>
      <path id="DejaVuSans-76" d="M 191 3500 
L 800 3500 
L 1894 563 
L 2988 3500 
L 3597 3500 
L 2284 0 
L 1503 0 
L 191 3500 
z
" transform="scale(0.015625)"/>
      <path id="DejaVuSans-78" d="M 3513 3500 
L 2247 1797 
L 3578 0 
L 2900 0 
L 1881 1375 
L 863 0 
L 184 0 
L 1544 1831 
L 300 3500 
L 978 3500 
L 1906 2253 
L 2834 3500 
L 3513 3500 
z
" transform="scale(0.015625)"/>
      <path id="DejaVuSans-3c3" d="M 1959 3044 
Q 1484 3044 1228 2700 
Q 959 2341 959 1747 
Q 959 1119 1226 758 
Q 1494 397 1959 397 
Q 2419 397 2687 759 
Q 2956 1122 2956 1747 
Q 2956 2319 2688 2700 
Q 2441 3044 1959 3044 
z
M 1959 3500 
L 3869 3500 
L 3869 2925 
L 3225 2925 
Q 3566 2438 3566 1747 
Q 3566 888 3138 400 
Q 2709 -91 1959 -91 
Q 1206 -91 781 400 
Q 353 888 353 1747 
Q 353 2613 781 3097 
Q 1134 3500 1959 3500 
z
" transform="scale(0.015625)"/>
      <path id="DejaVuSans-3d" d="M 678 2906 
L 4684 2906 
L 4684 2381 
L 678 2381 
L 678 2906 
z
M 678 1631 
L 4684 1631 
L 4684 1100 
L 678 1100 
L 678 1631 
z
" transform="scale(0.015625)"/>
      <path id="DejaVuSans-2e" d="M 684 794 
L 1344 794 
L 1344 0 
L 684 0 
L 684 794 
z
" transform="scale(0.015625)"/>
      <path id="DejaVuSans-64" d="M 2906 2969 
L 2906 4863 
L 3481 4863 
L 3481 0 
L 2906 0 
L 2906 525 
Q 2725 213 2448 61 
Q 2172 -91 1784 -91 
Q 1150 -91 751 415 
Q 353 922 353 1747 
Q 353 2572 751 3078 
Q 1150 3584 1784 3584 
Q 2172 3584 2448 3432 
Q 2725 3281 2906 2969 
z
M 947 1747 
Q 947 1113 1208 752 
Q 1469 391 1925 391 
Q 2381 391 2643 752 
Q 2906 1113 2906 1747 
Q 2906 2381 2643 2742 
Q 2381 3103 1925 3103 
Q 1469 3103 1208 2742 
Q 947 2381 947 1747 
z
" transform="scale(0.015625)"/>
      <path id="DejaVuSans-5f" d="M 3263 -1063 
L 3263 -1509 
L -63 -1509 
L -63 -1063 
L 3263 -1063 
z
" transform="scale(0.015625)"/>
     </defs>
     <use xlink:href="#DejaVuSans-63"/>
     <use xlink:href="#DejaVuSans-76" transform="translate(54.980469 0)"/>
     <use xlink:href="#DejaVuSans-78" transform="translate(114.160156 0)"/>
     <use xlink:href="#DejaVuSans-45" transform="translate(173.339844 0)"/>
     <use xlink:href="#DejaVuSans-44" transform="translate(236.523438 0)"/>
     <use xlink:href="#DejaVuSans-41" transform="translate(311.775391 0)"/>
     <use xlink:href="#DejaVuSans-20" transform="translate(380.183594 0)"/>
     <use xlink:href="#DejaVuSans-28" transform="translate(411.970703 0)"/>
     <use xlink:href="#DejaVuSans-3c3" transform="translate(450.984375 0)"/>
     <use xlink:href="#DejaVuSans-3d" transform="translate(514.363281 0)"/>
     <use xlink:href="#DejaVuSans-33" transform="translate(598.152344 0)"/>
     <use xlink:href="#DejaVuSans-2e" transform="translate(661.775391 0)"/>
     <use xlink:href="#DejaVuSans-36" transform="translate(693.5625 0)"/>
     <use xlink:href="#DejaVuSans-73" transform="translate(757.185547 0)"/>
     <use xlink:href="#DejaVuSans-20" transform="translate(809.285156 0)"/>
     <use xlink:href="#DejaVuSans-20" transform="translate(841.072266 0)"/>
     <use xlink:href="#DejaVuSans-64" transform="translate(872.859375 0)"/>
     <use xlink:href="#DejaVuSans-61" transform="translate(936.335938 0)"/>
     <use xlink:href="#DejaVuSans-74" transform="translate(997.615234 0)"/>
     <use xlink:href="#DejaVuSans-61" transform="translate(1036.824219 0)"/>
     <use xlink:href="#DejaVuSans-5f" transform="translate(1098.103516 0)"/>
     <use xlink:href="#DejaVuSans-36" transform="translate(1148.103516 0)"/>
     <use xlink:href="#DejaVuSans-5f" transform="translate(1211.726562 0)"/>
     <use xlink:href="#DejaVuSans-45" transform="translate(1261.726562 0)"/>
     <use xlink:href="#DejaVuSans-34" transform="translate(1324.910156 0)"/>
     <use xlink:href="#DejaVuSans-29" transform="translate(1388.533203 0)"/>
    </g>
   </g>
   <g id="legend_1">
    <g id="patch_7">
     <path d="M 350.09375 188.057187 
L 443 188.057187 
Q 445 188.057187 445 186.057187 
L 445 143.022812 
Q 445 141.022812 443 141.022812 
L 350.09375 141.022812 
Q 348.09375 141.022812 348.09375 143.022812 
L 348.09375 186.057187 
Q 348.09375 188.057187 350.09375 188.057187 
z
" style="fill: #ffffff; opacity: 0.8; stroke: #cccccc; stroke-linejoin: miter"/>
    </g>
    <g id="line2d_32">
     <path d="M 352.09375 149.12125 
L 362.09375 149.12125 
L 372.09375 149.12125 
" style="fill: none; stroke-dasharray: 1.85,0.8; stroke-dashoffset: 0; stroke: #1f77b4; stroke-width: 0.5"/>
    </g>
    <g id="text_18">
     <!-- Filtered EDA -->
     <g transform="translate(380.09375 152.62125) scale(0.1 -0.1)">
      <defs>
       <path id="DejaVuSans-46" d="M 628 4666 
L 3309 4666 
L 3309 4134 
L 1259 4134 
L 1259 2759 
L 3109 2759 
L 3109 2228 
L 1259 2228 
L 1259 0 
L 628 0 
L 628 4666 
z
" transform="scale(0.015625)"/>
       <path id="DejaVuSans-72" d="M 2631 2963 
Q 2534 3019 2420 3045 
Q 2306 3072 2169 3072 
Q 1681 3072 1420 2755 
Q 1159 2438 1159 1844 
L 1159 0 
L 581 0 
L 581 3500 
L 1159 3500 
L 1159 2956 
Q 1341 3275 1631 3429 
Q 1922 3584 2338 3584 
Q 2397 3584 2469 3576 
Q 2541 3569 2628 3553 
L 2631 2963 
z
" transform="scale(0.015625)"/>
      </defs>
      <use xlink:href="#DejaVuSans-46"/>
      <use xlink:href="#DejaVuSans-69" transform="translate(50.269531 0)"/>
      <use xlink:href="#DejaVuSans-6c" transform="translate(78.052734 0)"/>
      <use xlink:href="#DejaVuSans-74" transform="translate(105.835938 0)"/>
      <use xlink:href="#DejaVuSans-65" transform="translate(145.044922 0)"/>
      <use xlink:href="#DejaVuSans-72" transform="translate(206.568359 0)"/>
      <use xlink:href="#DejaVuSans-65" transform="translate(245.431641 0)"/>
      <use xlink:href="#DejaVuSans-64" transform="translate(306.955078 0)"/>
      <use xlink:href="#DejaVuSans-20" transform="translate(370.431641 0)"/>
      <use xlink:href="#DejaVuSans-45" transform="translate(402.21875 0)"/>
      <use xlink:href="#DejaVuSans-44" transform="translate(465.402344 0)"/>
      <use xlink:href="#DejaVuSans-41" transform="translate(540.654297 0)"/>
     </g>
    </g>
    <g id="line2d_33">
     <path d="M 352.09375 163.799375 
L 362.09375 163.799375 
L 372.09375 163.799375 
" style="fill: none; stroke: #ff7f0e; stroke-width: 0.5; stroke-linecap: square"/>
    </g>
    <g id="text_19">
     <!-- Tonic -->
     <g transform="translate(380.09375 167.299375) scale(0.1 -0.1)">
      <defs>
       <path id="DejaVuSans-6f" d="M 1959 3097 
Q 1497 3097 1228 2736 
Q 959 2375 959 1747 
Q 959 1119 1226 758 
Q 1494 397 1959 397 
Q 2419 397 2687 759 
Q 2956 1122 2956 1747 
Q 2956 2369 2687 2733 
Q 2419 3097 1959 3097 
z
M 1959 3584 
Q 2709 3584 3137 3096 
Q 3566 2609 3566 1747 
Q 3566 888 3137 398 
Q 2709 -91 1959 -91 
Q 1206 -91 779 398 
Q 353 888 353 1747 
Q 353 2609 779 3096 
Q 1206 3584 1959 3584 
z
" transform="scale(0.015625)"/>
      </defs>
      <use xlink:href="#DejaVuSans-54"/>
      <use xlink:href="#DejaVuSans-6f" transform="translate(44.083984 0)"/>
      <use xlink:href="#DejaVuSans-6e" transform="translate(105.265625 0)"/>
      <use xlink:href="#DejaVuSans-69" transform="translate(168.644531 0)"/>
      <use xlink:href="#DejaVuSans-63" transform="translate(196.427734 0)"/>
     </g>
    </g>
    <g id="line2d_34">
     <path d="M 352.09375 178.4775 
L 362.09375 178.4775 
L 372.09375 178.4775 
" style="fill: none; stroke: #2ca02c; stroke-width: 0.5; stroke-linecap: square"/>
    </g>
    <g id="text_20">
     <!-- Phasic -->
     <g transform="translate(380.09375 181.9775) scale(0.1 -0.1)">
      <defs>
       <path id="DejaVuSans-50" d="M 1259 4147 
L 1259 2394 
L 2053 2394 
Q 2494 2394 2734 2622 
Q 2975 2850 2975 3272 
Q 2975 3691 2734 3919 
Q 2494 4147 2053 4147 
L 1259 4147 
z
M 628 4666 
L 2053 4666 
Q 2838 4666 3239 4311 
Q 3641 3956 3641 3272 
Q 3641 2581 3239 2228 
Q 2838 1875 2053 1875 
L 1259 1875 
L 1259 0 
L 628 0 
L 628 4666 
z
" transform="scale(0.015625)"/>
       <path id="DejaVuSans-68" d="M 3513 2113 
L 3513 0 
L 2938 0 
L 2938 2094 
Q 2938 2591 2744 2837 
Q 2550 3084 2163 3084 
Q 1697 3084 1428 2787 
Q 1159 2491 1159 1978 
L 1159 0 
L 581 0 
L 581 4863 
L 1159 4863 
L 1159 2956 
Q 1366 3272 1645 3428 
Q 1925 3584 2291 3584 
Q 2894 3584 3203 3211 
Q 3513 2838 3513 2113 
z
" transform="scale(0.015625)"/>
      </defs>
      <use xlink:href="#DejaVuSans-50"/>
      <use xlink:href="#DejaVuSans-68" transform="translate(60.302734 0)"/>
      <use xlink:href="#DejaVuSans-61" transform="translate(123.681641 0)"/>
      <use xlink:href="#DejaVuSans-73" transform="translate(184.960938 0)"/>
      <use xlink:href="#DejaVuSans-69" transform="translate(237.060547 0)"/>
      <use xlink:href="#DejaVuSans-63" transform="translate(264.84375 0)"/>
     </g>
    </g>
   </g>
  </g>
 </g>
 <defs>
  <clipPath id="p4aa78c5fbc">
   <rect x="38.27" y="25.44" width="411.73" height="278.2"/>
  </clipPath>
 </defs>
</svg>
