<?xml version="1.0" encoding="utf-8" standalone="no"?>
<!DOCTYPE svg PUBLIC "-//W3C//DTD SVG 1.1//EN"
  "http://www.w3.org/Graphics/SVG/1.1/DTD/svg11.dtd">
<svg xmlns:xlink="http://www.w3.org/1999/xlink" width="460.8pt" height="345.6pt" viewBox="0 0 460.8 345.6" xmlns="http://www.w3.org/2000/svg" version="1.1">
 <metadata>
  <rdf:RDF xmlns:dc="http://purl.org/dc/elements/1.1/" xmlns:cc="http://creativecommons.org/ns#" xmlns:rdf="http://www.w3.org/1999/02/22-rdf-syntax-ns#">
   <cc:Work>
    <dc:type rdf:resource="http://purl.org/dc/dcmitype/StillImage"/>
    <dc:date>2025-09-22T14:18:55.733712</dc:date>
    <dc:format>image/svg+xml</dc:format>
    <dc:creator>
     <cc:Agent>
      <dc:title>Matplotlib v3.10.0, https://matplotlib.org/</dc:title>
     </cc:Agent>
    </dc:creator>
   </cc:Work>
  </rdf:RDF>
 </metadata>
 <defs>
  <style type="text/css">*{stroke-linejoin: round; stroke-linecap: butt}</style>
 </defs>
 <g id="figure_1">
  <g id="patch_1">
   <path d="M 0 345.6 
L 460.8 345.6 
L 460.8 0 
L 0 0 
z
" style="fill: #ffffff"/>
  </g>
  <g id="axes_1">
   <g id="patch_2">
    <path d="M 38.27 303.64 
L 450 303.64 
L 450 25.44 
L 38.27 25.44 
z
" style="fill: #ffffff"/>
   </g>
   <g id="matplotlib.axis_1">
    <g id="xtick_1">
     <g id="line2d_1">
      <path d="M 56.985 303.64 
L 56.985 25.44 
" clip-path="url(#p36d34eb204)" style="fill: none; stroke: #b0b0b0; stroke-opacity: 0.3; stroke-width: 0.8; stroke-linecap: square"/>
     </g>
     <g id="line2d_2">
      <defs>
       <path id="maf02eb3def" d="M 0 0 
L 0 3.5 
" style="stroke: #000000; stroke-width: 0.8"/>
      </defs>
      <g>
       <use xlink:href="#maf02eb3def" x="56.985" y="303.64" style="stroke: #000000; stroke-width: 0.8"/>
      </g>
     </g>
     <g id="text_1">
      <!-- 0 -->
      <g transform="translate(53.80375 318.238437) scale(0.1 -0.1)">
       <defs>
        <path id="DejaVuSans-30" d="M 2034 4250 
Q 1547 4250 1301 3770 
Q 1056 3291 1056 2328 
Q 1056 1369 1301 889 
Q 1547 409 2034 409 
Q 2525 409 2770 889 
Q 3016 1369 3016 2328 
Q 3016 3291 2770 3770 
Q 2525 4250 2034 4250 
z
M 2034 4750 
Q 2819 4750 3233 4129 
Q 3647 3509 3647 2328 
Q 3647 1150 3233 529 
Q 2819 -91 2034 -91 
Q 1250 -91 836 529 
Q 422 1150 422 2328 
Q 422 3509 836 4129 
Q 1250 4750 2034 4750 
z
" transform="scale(0.015625)"/>
       </defs>
       <use xlink:href="#DejaVuSans-30"/>
      </g>
     </g>
    </g>
    <g id="xtick_2">
     <g id="line2d_3">
      <path d="M 106.891667 303.64 
L 106.891667 25.44 
" clip-path="url(#p36d34eb204)" style="fill: none; stroke: #b0b0b0; stroke-opacity: 0.3; stroke-width: 0.8; stroke-linecap: square"/>
     </g>
     <g id="line2d_4">
      <g>
       <use xlink:href="#maf02eb3def" x="106.891667" y="303.64" style="stroke: #000000; stroke-width: 0.8"/>
      </g>
     </g>
     <g id="text_2">
      <!-- 2 -->
      <g transform="translate(103.710417 318.238437) scale(0.1 -0.1)">
       <defs>
        <path id="DejaVuSans-32" d="M 1228 531 
L 3431 531 
L 3431 0 
L 469 0 
L 469 531 
Q 828 903 1448 1529 
Q 2069 2156 2228 2338 
Q 2531 2678 2651 2914 
Q 2772 3150 2772 3378 
Q 2772 3750 2511 3984 
Q 2250 4219 1831 4219 
Q 1534 4219 1204 4116 
Q 875 4013 500 3803 
L 500 4441 
Q 881 4594 1212 4672 
Q 1544 4750 1819 4750 
Q 2544 4750 2975 4387 
Q 3406 4025 3406 3419 
Q 3406 3131 3298 2873 
Q 3191 2616 2906 2266 
Q 2828 2175 2409 1742 
Q 1991 1309 1228 531 
z
" transform="scale(0.015625)"/>
       </defs>
       <use xlink:href="#DejaVuSans-32"/>
      </g>
     </g>
    </g>
    <g id="xtick_3">
     <g id="line2d_5">
      <path d="M 156.798333 303.64 
L 156.798333 25.44 
" clip-path="url(#p36d34eb204)" style="fill: none; stroke: #b0b0b0; stroke-opacity: 0.3; stroke-width: 0.8; stroke-linecap: square"/>
     </g>
     <g id="line2d_6">
      <g>
       <use xlink:href="#maf02eb3def" x="156.798333" y="303.64" style="stroke: #000000; stroke-width: 0.8"/>
      </g>
     </g>
     <g id="text_3">
      <!-- 4 -->
      <g transform="translate(153.617083 318.238437) scale(0.1 -0.1)">
       <defs>
        <path id="DejaVuSans-34" d="M 2419 4116 
L 825 1625 
L 2419 1625 
L 2419 4116 
z
M 2253 4666 
L 3047 4666 
L 3047 1625 
L 3713 1625 
L 3713 1100 
L 3047 1100 
L 3047 0 
L 2419 0 
L 2419 1100 
L 313 1100 
L 313 1709 
L 2253 4666 
z
" transform="scale(0.015625)"/>
       </defs>
       <use xlink:href="#DejaVuSans-34"/>
      </g>
     </g>
    </g>
    <g id="xtick_4">
     <g id="line2d_7">
      <path d="M 206.705 303.64 
L 206.705 25.44 
" clip-path="url(#p36d34eb204)" style="fill: none; stroke: #b0b0b0; stroke-opacity: 0.3; stroke-width: 0.8; stroke-linecap: square"/>
     </g>
     <g id="line2d_8">
      <g>
       <use xlink:href="#maf02eb3def" x="206.705" y="303.64" style="stroke: #000000; stroke-width: 0.8"/>
      </g>
     </g>
     <g id="text_4">
      <!-- 6 -->
      <g transform="translate(203.52375 318.238437) scale(0.1 -0.1)">
       <defs>
        <path id="DejaVuSans-36" d="M 2113 2584 
Q 1688 2584 1439 2293 
Q 1191 2003 1191 1497 
Q 1191 994 1439 701 
Q 1688 409 2113 409 
Q 2538 409 2786 701 
Q 3034 994 3034 1497 
Q 3034 2003 2786 2293 
Q 2538 2584 2113 2584 
z
M 3366 4563 
L 3366 3988 
Q 3128 4100 2886 4159 
Q 2644 4219 2406 4219 
Q 1781 4219 1451 3797 
Q 1122 3375 1075 2522 
Q 1259 2794 1537 2939 
Q 1816 3084 2150 3084 
Q 2853 3084 3261 2657 
Q 3669 2231 3669 1497 
Q 3669 778 3244 343 
Q 2819 -91 2113 -91 
Q 1303 -91 875 529 
Q 447 1150 447 2328 
Q 447 3434 972 4092 
Q 1497 4750 2381 4750 
Q 2619 4750 2861 4703 
Q 3103 4656 3366 4563 
z
" transform="scale(0.015625)"/>
       </defs>
       <use xlink:href="#DejaVuSans-36"/>
      </g>
     </g>
    </g>
    <g id="xtick_5">
     <g id="line2d_9">
      <path d="M 256.611667 303.64 
L 256.611667 25.44 
" clip-path="url(#p36d34eb204)" style="fill: none; stroke: #b0b0b0; stroke-opacity: 0.3; stroke-width: 0.8; stroke-linecap: square"/>
     </g>
     <g id="line2d_10">
      <g>
       <use xlink:href="#maf02eb3def" x="256.611667" y="303.64" style="stroke: #000000; stroke-width: 0.8"/>
      </g>
     </g>
     <g id="text_5">
      <!-- 8 -->
      <g transform="translate(253.430417 318.238437) scale(0.1 -0.1)">
       <defs>
        <path id="DejaVuSans-38" d="M 2034 2216 
Q 1584 2216 1326 1975 
Q 1069 1734 1069 1313 
Q 1069 891 1326 650 
Q 1584 409 2034 409 
Q 2484 409 2743 651 
Q 3003 894 3003 1313 
Q 3003 1734 2745 1975 
Q 2488 2216 2034 2216 
z
M 1403 2484 
Q 997 2584 770 2862 
Q 544 3141 544 3541 
Q 544 4100 942 4425 
Q 1341 4750 2034 4750 
Q 2731 4750 3128 4425 
Q 3525 4100 3525 3541 
Q 3525 3141 3298 2862 
Q 3072 2584 2669 2484 
Q 3125 2378 3379 2068 
Q 3634 1759 3634 1313 
Q 3634 634 3220 271 
Q 2806 -91 2034 -91 
Q 1263 -91 848 271 
Q 434 634 434 1313 
Q 434 1759 690 2068 
Q 947 2378 1403 2484 
z
M 1172 3481 
Q 1172 3119 1398 2916 
Q 1625 2713 2034 2713 
Q 2441 2713 2670 2916 
Q 2900 3119 2900 3481 
Q 2900 3844 2670 4047 
Q 2441 4250 2034 4250 
Q 1625 4250 1398 4047 
Q 1172 3844 1172 3481 
z
" transform="scale(0.015625)"/>
       </defs>
       <use xlink:href="#DejaVuSans-38"/>
      </g>
     </g>
    </g>
    <g id="xtick_6">
     <g id="line2d_11">
      <path d="M 306.518333 303.64 
L 306.518333 25.44 
" clip-path="url(#p36d34eb204)" style="fill: none; stroke: #b0b0b0; stroke-opacity: 0.3; stroke-width: 0.8; stroke-linecap: square"/>
     </g>
     <g id="line2d_12">
      <g>
       <use xlink:href="#maf02eb3def" x="306.518333" y="303.64" style="stroke: #000000; stroke-width: 0.8"/>
      </g>
     </g>
     <g id="text_6">
      <!-- 10 -->
      <g transform="translate(300.155833 318.238437) scale(0.1 -0.1)">
       <defs>
        <path id="DejaVuSans-31" d="M 794 531 
L 1825 531 
L 1825 4091 
L 703 3866 
L 703 4441 
L 1819 4666 
L 2450 4666 
L 2450 531 
L 3481 531 
L 3481 0 
L 794 0 
L 794 531 
z
" transform="scale(0.015625)"/>
       </defs>
       <use xlink:href="#DejaVuSans-31"/>
       <use xlink:href="#DejaVuSans-30" transform="translate(63.623047 0)"/>
      </g>
     </g>
    </g>
    <g id="xtick_7">
     <g id="line2d_13">
      <path d="M 356.425 303.64 
L 356.425 25.44 
" clip-path="url(#p36d34eb204)" style="fill: none; stroke: #b0b0b0; stroke-opacity: 0.3; stroke-width: 0.8; stroke-linecap: square"/>
     </g>
     <g id="line2d_14">
      <g>
       <use xlink:href="#maf02eb3def" x="356.425" y="303.64" style="stroke: #000000; stroke-width: 0.8"/>
      </g>
     </g>
     <g id="text_7">
      <!-- 12 -->
      <g transform="translate(350.0625 318.238437) scale(0.1 -0.1)">
       <use xlink:href="#DejaVuSans-31"/>
       <use xlink:href="#DejaVuSans-32" transform="translate(63.623047 0)"/>
      </g>
     </g>
    </g>
    <g id="xtick_8">
     <g id="line2d_15">
      <path d="M 406.331667 303.64 
L 406.331667 25.44 
" clip-path="url(#p36d34eb204)" style="fill: none; stroke: #b0b0b0; stroke-opacity: 0.3; stroke-width: 0.8; stroke-linecap: square"/>
     </g>
     <g id="line2d_16">
      <g>
       <use xlink:href="#maf02eb3def" x="406.331667" y="303.64" style="stroke: #000000; stroke-width: 0.8"/>
      </g>
     </g>
     <g id="text_8">
      <!-- 14 -->
      <g transform="translate(399.969167 318.238437) scale(0.1 -0.1)">
       <use xlink:href="#DejaVuSans-31"/>
       <use xlink:href="#DejaVuSans-34" transform="translate(63.623047 0)"/>
      </g>
     </g>
    </g>
    <g id="text_9">
     <!-- Time (minutes) -->
     <g transform="translate(206.1725 331.916562) scale(0.1 -0.1)">
      <defs>
       <path id="DejaVuSans-54" d="M -19 4666 
L 3928 4666 
L 3928 4134 
L 2272 4134 
L 2272 0 
L 1638 0 
L 1638 4134 
L -19 4134 
L -19 4666 
z
" transform="scale(0.015625)"/>
       <path id="DejaVuSans-69" d="M 603 3500 
L 1178 3500 
L 1178 0 
L 603 0 
L 603 3500 
z
M 603 4863 
L 1178 4863 
L 1178 4134 
L 603 4134 
L 603 4863 
z
" transform="scale(0.015625)"/>
       <path id="DejaVuSans-6d" d="M 3328 2828 
Q 3544 3216 3844 3400 
Q 4144 3584 4550 3584 
Q 5097 3584 5394 3201 
Q 5691 2819 5691 2113 
L 5691 0 
L 5113 0 
L 5113 2094 
Q 5113 2597 4934 2840 
Q 4756 3084 4391 3084 
Q 3944 3084 3684 2787 
Q 3425 2491 3425 1978 
L 3425 0 
L 2847 0 
L 2847 2094 
Q 2847 2600 2669 2842 
Q 2491 3084 2119 3084 
Q 1678 3084 1418 2786 
Q 1159 2488 1159 1978 
L 1159 0 
L 581 0 
L 581 3500 
L 1159 3500 
L 1159 2956 
Q 1356 3278 1631 3431 
Q 1906 3584 2284 3584 
Q 2666 3584 2933 3390 
Q 3200 3197 3328 2828 
z
" transform="scale(0.015625)"/>
       <path id="DejaVuSans-65" d="M 3597 1894 
L 3597 1613 
L 953 1613 
Q 991 1019 1311 708 
Q 1631 397 2203 397 
Q 2534 397 2845 478 
Q 3156 559 3463 722 
L 3463 178 
Q 3153 47 2828 -22 
Q 2503 -91 2169 -91 
Q 1331 -91 842 396 
Q 353 884 353 1716 
Q 353 2575 817 3079 
Q 1281 3584 2069 3584 
Q 2775 3584 3186 3129 
Q 3597 2675 3597 1894 
z
M 3022 2063 
Q 3016 2534 2758 2815 
Q 2500 3097 2075 3097 
Q 1594 3097 1305 2825 
Q 1016 2553 972 2059 
L 3022 2063 
z
" transform="scale(0.015625)"/>
       <path id="DejaVuSans-20" transform="scale(0.015625)"/>
       <path id="DejaVuSans-28" d="M 1984 4856 
Q 1566 4138 1362 3434 
Q 1159 2731 1159 2009 
Q 1159 1288 1364 580 
Q 1569 -128 1984 -844 
L 1484 -844 
Q 1016 -109 783 600 
Q 550 1309 550 2009 
Q 550 2706 781 3412 
Q 1013 4119 1484 4856 
L 1984 4856 
z
" transform="scale(0.015625)"/>
       <path id="DejaVuSans-6e" d="M 3513 2113 
L 3513 0 
L 2938 0 
L 2938 2094 
Q 2938 2591 2744 2837 
Q 2550 3084 2163 3084 
Q 1697 3084 1428 2787 
Q 1159 2491 1159 1978 
L 1159 0 
L 581 0 
L 581 3500 
L 1159 3500 
L 1159 2956 
Q 1366 3272 1645 3428 
Q 1925 3584 2291 3584 
Q 2894 3584 3203 3211 
Q 3513 2838 3513 2113 
z
" transform="scale(0.015625)"/>
       <path id="DejaVuSans-75" d="M 544 1381 
L 544 3500 
L 1119 3500 
L 1119 1403 
Q 1119 906 1312 657 
Q 1506 409 1894 409 
Q 2359 409 2629 706 
Q 2900 1003 2900 1516 
L 2900 3500 
L 3475 3500 
L 3475 0 
L 2900 0 
L 2900 538 
Q 2691 219 2414 64 
Q 2138 -91 1772 -91 
Q 1169 -91 856 284 
Q 544 659 544 1381 
z
M 1991 3584 
L 1991 3584 
z
" transform="scale(0.015625)"/>
       <path id="DejaVuSans-74" d="M 1172 4494 
L 1172 3500 
L 2356 3500 
L 2356 3053 
L 1172 3053 
L 1172 1153 
Q 1172 725 1289 603 
Q 1406 481 1766 481 
L 2356 481 
L 2356 0 
L 1766 0 
Q 1100 0 847 248 
Q 594 497 594 1153 
L 594 3053 
L 172 3053 
L 172 3500 
L 594 3500 
L 594 4494 
L 1172 4494 
z
" transform="scale(0.015625)"/>
       <path id="DejaVuSans-73" d="M 2834 3397 
L 2834 2853 
Q 2591 2978 2328 3040 
Q 2066 3103 1784 3103 
Q 1356 3103 1142 2972 
Q 928 2841 928 2578 
Q 928 2378 1081 2264 
Q 1234 2150 1697 2047 
L 1894 2003 
Q 2506 1872 2764 1633 
Q 3022 1394 3022 966 
Q 3022 478 2636 193 
Q 2250 -91 1575 -91 
Q 1294 -91 989 -36 
Q 684 19 347 128 
L 347 722 
Q 666 556 975 473 
Q 1284 391 1588 391 
Q 1994 391 2212 530 
Q 2431 669 2431 922 
Q 2431 1156 2273 1281 
Q 2116 1406 1581 1522 
L 1381 1569 
Q 847 1681 609 1914 
Q 372 2147 372 2553 
Q 372 3047 722 3315 
Q 1072 3584 1716 3584 
Q 2034 3584 2315 3537 
Q 2597 3491 2834 3397 
z
" transform="scale(0.015625)"/>
       <path id="DejaVuSans-29" d="M 513 4856 
L 1013 4856 
Q 1481 4119 1714 3412 
Q 1947 2706 1947 2009 
Q 1947 1309 1714 600 
Q 1481 -109 1013 -844 
L 513 -844 
Q 928 -128 1133 580 
Q 1338 1288 1338 2009 
Q 1338 2731 1133 3434 
Q 928 4138 513 4856 
z
" transform="scale(0.015625)"/>
      </defs>
      <use xlink:href="#DejaVuSans-54"/>
      <use xlink:href="#DejaVuSans-69" transform="translate(57.958984 0)"/>
      <use xlink:href="#DejaVuSans-6d" transform="translate(85.742188 0)"/>
      <use xlink:href="#DejaVuSans-65" transform="translate(183.154297 0)"/>
      <use xlink:href="#DejaVuSans-20" transform="translate(244.677734 0)"/>
      <use xlink:href="#DejaVuSans-28" transform="translate(276.464844 0)"/>
      <use xlink:href="#DejaVuSans-6d" transform="translate(315.478516 0)"/>
      <use xlink:href="#DejaVuSans-69" transform="translate(412.890625 0)"/>
      <use xlink:href="#DejaVuSans-6e" transform="translate(440.673828 0)"/>
      <use xlink:href="#DejaVuSans-75" transform="translate(504.052734 0)"/>
      <use xlink:href="#DejaVuSans-74" transform="translate(567.431641 0)"/>
      <use xlink:href="#DejaVuSans-65" transform="translate(606.640625 0)"/>
      <use xlink:href="#DejaVuSans-73" transform="translate(668.164062 0)"/>
      <use xlink:href="#DejaVuSans-29" transform="translate(720.263672 0)"/>
     </g>
    </g>
   </g>
   <g id="matplotlib.axis_2">
    <g id="ytick_1">
     <g id="line2d_17">
      <path d="M 38.27 287.431565 
L 450 287.431565 
" clip-path="url(#p36d34eb204)" style="fill: none; stroke: #b0b0b0; stroke-opacity: 0.3; stroke-width: 0.8; stroke-linecap: square"/>
     </g>
     <g id="line2d_18">
      <defs>
       <path id="m7d39dd0bfe" d="M 0 0 
L -3.5 0 
" style="stroke: #000000; stroke-width: 0.8"/>
      </defs>
      <g>
       <use xlink:href="#m7d39dd0bfe" x="38.27" y="287.431565" style="stroke: #000000; stroke-width: 0.8"/>
      </g>
     </g>
     <g id="text_10">
      <!-- 0 -->
      <g transform="translate(24.9075 291.230784) scale(0.1 -0.1)">
       <use xlink:href="#DejaVuSans-30"/>
      </g>
     </g>
    </g>
    <g id="ytick_2">
     <g id="line2d_19">
      <path d="M 38.27 237.93807 
L 450 237.93807 
" clip-path="url(#p36d34eb204)" style="fill: none; stroke: #b0b0b0; stroke-opacity: 0.3; stroke-width: 0.8; stroke-linecap: square"/>
     </g>
     <g id="line2d_20">
      <g>
       <use xlink:href="#m7d39dd0bfe" x="38.27" y="237.93807" style="stroke: #000000; stroke-width: 0.8"/>
      </g>
     </g>
     <g id="text_11">
      <!-- 1 -->
      <g transform="translate(24.9075 241.737289) scale(0.1 -0.1)">
       <use xlink:href="#DejaVuSans-31"/>
      </g>
     </g>
    </g>
    <g id="ytick_3">
     <g id="line2d_21">
      <path d="M 38.27 188.444574 
L 450 188.444574 
" clip-path="url(#p36d34eb204)" style="fill: none; stroke: #b0b0b0; stroke-opacity: 0.3; stroke-width: 0.8; stroke-linecap: square"/>
     </g>
     <g id="line2d_22">
      <g>
       <use xlink:href="#m7d39dd0bfe" x="38.27" y="188.444574" style="stroke: #000000; stroke-width: 0.8"/>
      </g>
     </g>
     <g id="text_12">
      <!-- 2 -->
      <g transform="translate(24.9075 192.243793) scale(0.1 -0.1)">
       <use xlink:href="#DejaVuSans-32"/>
      </g>
     </g>
    </g>
    <g id="ytick_4">
     <g id="line2d_23">
      <path d="M 38.27 138.951079 
L 450 138.951079 
" clip-path="url(#p36d34eb204)" style="fill: none; stroke: #b0b0b0; stroke-opacity: 0.3; stroke-width: 0.8; stroke-linecap: square"/>
     </g>
     <g id="line2d_24">
      <g>
       <use xlink:href="#m7d39dd0bfe" x="38.27" y="138.951079" style="stroke: #000000; stroke-width: 0.8"/>
      </g>
     </g>
     <g id="text_13">
      <!-- 3 -->
      <g transform="translate(24.9075 142.750298) scale(0.1 -0.1)">
       <defs>
        <path id="DejaVuSans-33" d="M 2597 2516 
Q 3050 2419 3304 2112 
Q 3559 1806 3559 1356 
Q 3559 666 3084 287 
Q 2609 -91 1734 -91 
Q 1441 -91 1130 -33 
Q 819 25 488 141 
L 488 750 
Q 750 597 1062 519 
Q 1375 441 1716 441 
Q 2309 441 2620 675 
Q 2931 909 2931 1356 
Q 2931 1769 2642 2001 
Q 2353 2234 1838 2234 
L 1294 2234 
L 1294 2753 
L 1863 2753 
Q 2328 2753 2575 2939 
Q 2822 3125 2822 3475 
Q 2822 3834 2567 4026 
Q 2313 4219 1838 4219 
Q 1578 4219 1281 4162 
Q 984 4106 628 3988 
L 628 4550 
Q 988 4650 1302 4700 
Q 1616 4750 1894 4750 
Q 2613 4750 3031 4423 
Q 3450 4097 3450 3541 
Q 3450 3153 3228 2886 
Q 3006 2619 2597 2516 
z
" transform="scale(0.015625)"/>
       </defs>
       <use xlink:href="#DejaVuSans-33"/>
      </g>
     </g>
    </g>
    <g id="ytick_5">
     <g id="line2d_25">
      <path d="M 38.27 89.457584 
L 450 89.457584 
" clip-path="url(#p36d34eb204)" style="fill: none; stroke: #b0b0b0; stroke-opacity: 0.3; stroke-width: 0.8; stroke-linecap: square"/>
     </g>
     <g id="line2d_26">
      <g>
       <use xlink:href="#m7d39dd0bfe" x="38.27" y="89.457584" style="stroke: #000000; stroke-width: 0.8"/>
      </g>
     </g>
     <g id="text_14">
      <!-- 4 -->
      <g transform="translate(24.9075 93.256802) scale(0.1 -0.1)">
       <use xlink:href="#DejaVuSans-34"/>
      </g>
     </g>
    </g>
    <g id="ytick_6">
     <g id="line2d_27">
      <path d="M 38.27 39.964088 
L 450 39.964088 
" clip-path="url(#p36d34eb204)" style="fill: none; stroke: #b0b0b0; stroke-opacity: 0.3; stroke-width: 0.8; stroke-linecap: square"/>
     </g>
     <g id="line2d_28">
      <g>
       <use xlink:href="#m7d39dd0bfe" x="38.27" y="39.964088" style="stroke: #000000; stroke-width: 0.8"/>
      </g>
     </g>
     <g id="text_15">
      <!-- 5 -->
      <g transform="translate(24.9075 43.763307) scale(0.1 -0.1)">
       <defs>
        <path id="DejaVuSans-35" d="M 691 4666 
L 3169 4666 
L 3169 4134 
L 1269 4134 
L 1269 2991 
Q 1406 3038 1543 3061 
Q 1681 3084 1819 3084 
Q 2600 3084 3056 2656 
Q 3513 2228 3513 1497 
Q 3513 744 3044 326 
Q 2575 -91 1722 -91 
Q 1428 -91 1123 -41 
Q 819 9 494 109 
L 494 744 
Q 775 591 1075 516 
Q 1375 441 1709 441 
Q 2250 441 2565 725 
Q 2881 1009 2881 1497 
Q 2881 1984 2565 2268 
Q 2250 2553 1709 2553 
Q 1456 2553 1204 2497 
Q 953 2441 691 2322 
L 691 4666 
z
" transform="scale(0.015625)"/>
       </defs>
       <use xlink:href="#DejaVuSans-35"/>
      </g>
     </g>
    </g>
    <g id="text_16">
     <!-- Gaussian filtered EDA (μS) -->
     <g transform="translate(18.827813 230.613437) rotate(-90) scale(0.1 -0.1)">
      <defs>
       <path id="DejaVuSans-47" d="M 3809 666 
L 3809 1919 
L 2778 1919 
L 2778 2438 
L 4434 2438 
L 4434 434 
Q 4069 175 3628 42 
Q 3188 -91 2688 -91 
Q 1594 -91 976 548 
Q 359 1188 359 2328 
Q 359 3472 976 4111 
Q 1594 4750 2688 4750 
Q 3144 4750 3555 4637 
Q 3966 4525 4313 4306 
L 4313 3634 
Q 3963 3931 3569 4081 
Q 3175 4231 2741 4231 
Q 1884 4231 1454 3753 
Q 1025 3275 1025 2328 
Q 1025 1384 1454 906 
Q 1884 428 2741 428 
Q 3075 428 3337 486 
Q 3600 544 3809 666 
z
" transform="scale(0.015625)"/>
       <path id="DejaVuSans-61" d="M 2194 1759 
Q 1497 1759 1228 1600 
Q 959 1441 959 1056 
Q 959 750 1161 570 
Q 1363 391 1709 391 
Q 2188 391 2477 730 
Q 2766 1069 2766 1631 
L 2766 1759 
L 2194 1759 
z
M 3341 1997 
L 3341 0 
L 2766 0 
L 2766 531 
Q 2569 213 2275 61 
Q 1981 -91 1556 -91 
Q 1019 -91 701 211 
Q 384 513 384 1019 
Q 384 1609 779 1909 
Q 1175 2209 1959 2209 
L 2766 2209 
L 2766 2266 
Q 2766 2663 2505 2880 
Q 2244 3097 1772 3097 
Q 1472 3097 1187 3025 
Q 903 2953 641 2809 
L 641 3341 
Q 956 3463 1253 3523 
Q 1550 3584 1831 3584 
Q 2591 3584 2966 3190 
Q 3341 2797 3341 1997 
z
" transform="scale(0.015625)"/>
       <path id="DejaVuSans-66" d="M 2375 4863 
L 2375 4384 
L 1825 4384 
Q 1516 4384 1395 4259 
Q 1275 4134 1275 3809 
L 1275 3500 
L 2222 3500 
L 2222 3053 
L 1275 3053 
L 1275 0 
L 697 0 
L 697 3053 
L 147 3053 
L 147 3500 
L 697 3500 
L 697 3744 
Q 697 4328 969 4595 
Q 1241 4863 1831 4863 
L 2375 4863 
z
" transform="scale(0.015625)"/>
       <path id="DejaVuSans-6c" d="M 603 4863 
L 1178 4863 
L 1178 0 
L 603 0 
L 603 4863 
z
" transform="scale(0.015625)"/>
       <path id="DejaVuSans-72" d="M 2631 2963 
Q 2534 3019 2420 3045 
Q 2306 3072 2169 3072 
Q 1681 3072 1420 2755 
Q 1159 2438 1159 1844 
L 1159 0 
L 581 0 
L 581 3500 
L 1159 3500 
L 1159 2956 
Q 1341 3275 1631 3429 
Q 1922 3584 2338 3584 
Q 2397 3584 2469 3576 
Q 2541 3569 2628 3553 
L 2631 2963 
z
" transform="scale(0.015625)"/>
       <path id="DejaVuSans-64" d="M 2906 2969 
L 2906 4863 
L 3481 4863 
L 3481 0 
L 2906 0 
L 2906 525 
Q 2725 213 2448 61 
Q 2172 -91 1784 -91 
Q 1150 -91 751 415 
Q 353 922 353 1747 
Q 353 2572 751 3078 
Q 1150 3584 1784 3584 
Q 2172 3584 2448 3432 
Q 2725 3281 2906 2969 
z
M 947 1747 
Q 947 1113 1208 752 
Q 1469 391 1925 391 
Q 2381 391 2643 752 
Q 2906 1113 2906 1747 
Q 2906 2381 2643 2742 
Q 2381 3103 1925 3103 
Q 1469 3103 1208 2742 
Q 947 2381 947 1747 
z
" transform="scale(0.015625)"/>
       <path id="DejaVuSans-45" d="M 628 4666 
L 3578 4666 
L 3578 4134 
L 1259 4134 
L 1259 2753 
L 3481 2753 
L 3481 2222 
L 1259 2222 
L 1259 531 
L 3634 531 
L 3634 0 
L 628 0 
L 628 4666 
z
" transform="scale(0.015625)"/>
       <path id="DejaVuSans-44" d="M 1259 4147 
L 1259 519 
L 2022 519 
Q 2988 519 3436 956 
Q 3884 1394 3884 2338 
Q 3884 3275 3436 3711 
Q 2988 4147 2022 4147 
L 1259 4147 
z
M 628 4666 
L 1925 4666 
Q 3281 4666 3915 4102 
Q 4550 3538 4550 2338 
Q 4550 1131 3912 565 
Q 3275 0 1925 0 
L 628 0 
L 628 4666 
z
" transform="scale(0.015625)"/>
       <path id="DejaVuSans-41" d="M 2188 4044 
L 1331 1722 
L 3047 1722 
L 2188 4044 
z
M 1831 4666 
L 2547 4666 
L 4325 0 
L 3669 0 
L 3244 1197 
L 1141 1197 
L 716 0 
L 50 0 
L 1831 4666 
z
" transform="scale(0.015625)"/>
       <path id="DejaVuSans-3bc" d="M 544 -1331 
L 544 3500 
L 1119 3500 
L 1119 1325 
Q 1119 872 1334 640 
Q 1550 409 1972 409 
Q 2434 409 2667 671 
Q 2900 934 2900 1459 
L 2900 3500 
L 3475 3500 
L 3475 806 
Q 3475 619 3529 530 
Q 3584 441 3700 441 
Q 3728 441 3778 458 
Q 3828 475 3916 513 
L 3916 50 
Q 3788 -22 3673 -56 
Q 3559 -91 3450 -91 
Q 3234 -91 3106 31 
Q 2978 153 2931 403 
Q 2775 156 2548 32 
Q 2322 -91 2016 -91 
Q 1697 -91 1473 31 
Q 1250 153 1119 397 
L 1119 -1331 
L 544 -1331 
z
" transform="scale(0.015625)"/>
       <path id="DejaVuSans-53" d="M 3425 4513 
L 3425 3897 
Q 3066 4069 2747 4153 
Q 2428 4238 2131 4238 
Q 1616 4238 1336 4038 
Q 1056 3838 1056 3469 
Q 1056 3159 1242 3001 
Q 1428 2844 1947 2747 
L 2328 2669 
Q 3034 2534 3370 2195 
Q 3706 1856 3706 1288 
Q 3706 609 3251 259 
Q 2797 -91 1919 -91 
Q 1588 -91 1214 -16 
Q 841 59 441 206 
L 441 856 
Q 825 641 1194 531 
Q 1563 422 1919 422 
Q 2459 422 2753 634 
Q 3047 847 3047 1241 
Q 3047 1584 2836 1778 
Q 2625 1972 2144 2069 
L 1759 2144 
Q 1053 2284 737 2584 
Q 422 2884 422 3419 
Q 422 4038 858 4394 
Q 1294 4750 2059 4750 
Q 2388 4750 2728 4690 
Q 3069 4631 3425 4513 
z
" transform="scale(0.015625)"/>
      </defs>
      <use xlink:href="#DejaVuSans-47"/>
      <use xlink:href="#DejaVuSans-61" transform="translate(77.490234 0)"/>
      <use xlink:href="#DejaVuSans-75" transform="translate(138.769531 0)"/>
      <use xlink:href="#DejaVuSans-73" transform="translate(202.148438 0)"/>
      <use xlink:href="#DejaVuSans-73" transform="translate(254.248047 0)"/>
      <use xlink:href="#DejaVuSans-69" transform="translate(306.347656 0)"/>
      <use xlink:href="#DejaVuSans-61" transform="translate(334.130859 0)"/>
      <use xlink:href="#DejaVuSans-6e" transform="translate(395.410156 0)"/>
      <use xlink:href="#DejaVuSans-20" transform="translate(458.789062 0)"/>
      <use xlink:href="#DejaVuSans-66" transform="translate(490.576172 0)"/>
      <use xlink:href="#DejaVuSans-69" transform="translate(525.78125 0)"/>
      <use xlink:href="#DejaVuSans-6c" transform="translate(553.564453 0)"/>
      <use xlink:href="#DejaVuSans-74" transform="translate(581.347656 0)"/>
      <use xlink:href="#DejaVuSans-65" transform="translate(620.556641 0)"/>
      <use xlink:href="#DejaVuSans-72" transform="translate(682.080078 0)"/>
      <use xlink:href="#DejaVuSans-65" transform="translate(720.943359 0)"/>
      <use xlink:href="#DejaVuSans-64" transform="translate(782.466797 0)"/>
      <use xlink:href="#DejaVuSans-20" transform="translate(845.943359 0)"/>
      <use xlink:href="#DejaVuSans-45" transform="translate(877.730469 0)"/>
      <use xlink:href="#DejaVuSans-44" transform="translate(940.914062 0)"/>
      <use xlink:href="#DejaVuSans-41" transform="translate(1016.166016 0)"/>
      <use xlink:href="#DejaVuSans-20" transform="translate(1084.574219 0)"/>
      <use xlink:href="#DejaVuSans-28" transform="translate(1116.361328 0)"/>
      <use xlink:href="#DejaVuSans-3bc" transform="translate(1155.375 0)"/>
      <use xlink:href="#DejaVuSans-53" transform="translate(1218.998047 0)"/>
      <use xlink:href="#DejaVuSans-29" transform="translate(1282.474609 0)"/>
     </g>
    </g>
   </g>
   <g id="line2d_29">
    <path d="M 56.985 104.975012 
L 57.40112 104.331103 
L 57.81724 103.198562 
L 58.33739 100.999763 
L 59.16963 96.243536 
L 61.146201 83.509675 
L 61.770381 80.179046 
L 62.186501 78.976213 
L 62.498591 78.645188 
L 62.810681 78.706227 
L 63.226801 79.167508 
L 64.475161 80.796152 
L 64.995311 81.089766 
L 66.555762 81.615863 
L 67.075912 82.292968 
L 67.908152 83.907264 
L 68.636362 85.210033 
L 69.052482 85.609475 
L 69.364572 85.672185 
L 69.676662 85.530905 
L 70.196812 84.982481 
L 70.716962 84.477909 
L 71.029052 84.468483 
L 71.237112 84.666316 
L 71.549202 85.334441 
L 71.965322 86.965811 
L 72.485472 90.111233 
L 73.213683 96.126347 
L 75.710403 118.579574 
L 76.334583 121.486042 
L 76.958763 123.379352 
L 77.999063 126.349602 
L 78.623243 129.106352 
L 79.351454 133.469228 
L 80.703844 141.800897 
L 81.432054 144.729731 
L 82.888474 149.909245 
L 84.865044 158.178262 
L 85.697285 160.72705 
L 86.113405 161.545265 
L 86.425495 161.794916 
L 86.633555 161.743521 
L 86.945645 161.310586 
L 87.361765 160.117767 
L 88.610125 155.879137 
L 88.922215 155.664601 
L 89.130275 155.799458 
L 89.442365 156.36519 
L 89.962515 157.952133 
L 91.002815 161.23471 
L 91.418936 161.874507 
L 91.731026 161.960888 
L 92.043116 161.72331 
L 92.563266 160.864389 
L 93.083416 160.048323 
L 93.395506 159.861053 
L 93.707596 159.977355 
L 94.123716 160.514251 
L 94.747896 161.388733 
L 94.955956 161.445674 
L 95.164016 161.26943 
L 95.372076 160.791024 
L 95.684166 159.366503 
L 96.100286 155.882779 
L 96.620436 148.827242 
L 98.076857 125.753883 
L 98.388947 123.956288 
L 98.597007 123.752375 
L 98.805067 124.293442 
L 99.117157 126.281798 
L 99.637307 131.611349 
L 100.885667 144.930038 
L 101.613877 149.971454 
L 102.342087 153.417718 
L 103.070297 155.820555 
L 103.694477 157.185794 
L 105.671048 160.742709 
L 107.751648 166.024049 
L 108.271798 166.558489 
L 108.687918 166.693406 
L 109.208068 166.582356 
L 110.872549 165.940825 
L 111.704789 166.063652 
L 113.369269 166.566331 
L 115.449869 167.493876 
L 116.49017 168.234672 
L 123.148091 173.847064 
L 124.604511 174.671398 
L 127.309291 175.98658 
L 128.245561 176.764965 
L 130.950342 179.293377 
L 131.678552 179.540061 
L 133.239002 179.840724 
L 133.967212 180.325273 
L 134.799452 181.179243 
L 135.839753 182.645958 
L 137.088113 184.325733 
L 139.168713 186.615995 
L 142.289614 189.58077 
L 143.642004 190.487837 
L 144.890364 191.419909 
L 146.034694 192.536612 
L 146.970964 193.75368 
L 148.323355 195.537751 
L 149.051565 196.072439 
L 150.820075 197.155913 
L 151.964405 198.308947 
L 152.900675 199.161987 
L 153.940976 199.763684 
L 155.397396 200.642718 
L 164.239947 206.435327 
L 166.320548 207.657763 
L 169.337418 209.545557 
L 179.11624 215.008409 
L 180.15654 215.245831 
L 182.02908 215.638666 
L 185.254011 216.528786 
L 187.334611 217.387279 
L 190.871631 218.687178 
L 195.448952 220.800311 
L 198.153733 222.298637 
L 202.002843 224.668724 
L 208.348674 227.835352 
L 211.573605 229.25815 
L 213.550175 230.137847 
L 216.463016 231.375428 
L 217.815406 232.273693 
L 219.375856 233.289706 
L 220.624216 233.762741 
L 222.496757 234.488788 
L 226.553927 236.195687 
L 229.778858 237.347676 
L 235.500509 239.238195 
L 236.852899 239.302298 
L 238.413349 239.304803 
L 239.141559 239.595795 
L 240.806039 240.660449 
L 242.88664 242.056407 
L 243.92694 242.67202 
L 244.75918 242.896131 
L 246.83978 243.331243 
L 249.440531 244.071164 
L 254.433972 244.974596 
L 257.450842 245.561088 
L 260.155623 246.115577 
L 260.779803 246.003752 
L 261.299953 245.661201 
L 261.924133 244.92167 
L 263.068463 243.492815 
L 263.588613 243.236269 
L 264.108763 243.246954 
L 265.045033 243.574155 
L 267.749814 244.572482 
L 268.790114 244.749284 
L 269.726384 244.670388 
L 271.911014 244.324813 
L 273.055345 244.586102 
L 274.303705 244.773613 
L 276.072215 245.01106 
L 280.961626 245.992391 
L 283.146256 246.258497 
L 283.874466 246.086352 
L 284.602676 245.666325 
L 286.371187 244.422945 
L 286.891337 244.534686 
L 288.035667 245.202767 
L 289.179997 245.681639 
L 292.508958 246.678413 
L 293.653288 246.830512 
L 294.485528 246.741215 
L 295.733888 246.338145 
L 297.086278 245.951597 
L 297.814489 245.963277 
L 298.750759 246.238785 
L 300.935389 246.954269 
L 303.84823 247.615816 
L 305.61674 247.622182 
L 306.8651 247.486474 
L 308.84167 246.99614 
L 309.46585 246.585006 
L 311.338391 244.993895 
L 311.858541 245.010612 
L 313.523021 245.361944 
L 314.043171 245.104232 
L 314.875411 244.330262 
L 315.707651 243.647214 
L 316.331832 243.399602 
L 317.268102 243.308788 
L 318.516462 243.177184 
L 319.348702 242.808984 
L 320.180942 242.226089 
L 320.701092 241.616741 
L 321.117212 240.795694 
L 321.637362 239.158031 
L 322.261543 236.319185 
L 325.486473 220.151139 
L 326.734833 215.552478 
L 327.254983 212.427491 
L 327.775133 207.829841 
L 328.399314 200.195449 
L 329.439614 183.900463 
L 330.583944 166.627734 
L 331.208124 160.172252 
L 332.976634 144.852011 
L 333.704844 138.219737 
L 334.016934 136.792186 
L 334.224994 136.475644 
L 334.329024 136.506353 
L 334.537084 136.917421 
L 334.849175 138.264967 
L 335.577385 143.088952 
L 336.201565 146.652423 
L 336.513655 147.566267 
L 336.721715 147.709356 
L 336.929775 147.410043 
L 337.137835 146.615641 
L 337.449925 144.416273 
L 337.866045 139.592752 
L 338.490225 129.208797 
L 339.634555 109.607389 
L 340.154705 104.390521 
L 340.570825 102.455484 
L 340.986946 101.722602 
L 341.299036 101.094652 
L 341.611126 99.65872 
L 341.923216 96.957591 
L 342.339336 91.307359 
L 343.899786 67.420245 
L 344.627996 61.073128 
L 345.356206 56.349324 
L 345.876356 54.34775 
L 346.292476 53.662083 
L 346.604566 53.549697 
L 346.916656 53.683634 
L 347.332777 54.166559 
L 348.581137 56.006818 
L 348.997257 56.051383 
L 349.517407 56.024942 
L 349.829497 56.242314 
L 350.141587 56.731516 
L 350.661737 58.062134 
L 351.806067 61.196359 
L 352.222187 61.778558 
L 353.262487 62.8157 
L 353.574578 63.645222 
L 353.990698 65.538694 
L 354.510848 69.211071 
L 355.863238 79.662967 
L 356.591448 82.811269 
L 357.319658 86.193818 
L 358.047868 89.618075 
L 358.359958 90.281734 
L 358.568018 90.318917 
L 358.776078 90.052422 
L 359.192198 88.926224 
L 359.712349 87.587254 
L 360.024439 87.36909 
L 360.232499 87.505601 
L 361.168769 88.599234 
L 361.376829 88.418984 
L 361.688919 87.76154 
L 362.417129 85.926285 
L 362.625189 85.786469 
L 362.833249 85.941847 
L 363.145339 86.734881 
L 363.561459 88.613213 
L 364.497729 93.120766 
L 364.809819 93.731774 
L 365.017879 93.754515 
L 365.225939 93.479199 
L 365.538029 92.607094 
L 367.09848 87.338856 
L 367.93072 85.486465 
L 368.34684 83.715827 
L 368.86699 80.241704 
L 369.80326 73.618792 
L 370.11535 72.550692 
L 370.42744 72.162879 
L 371.05162 71.984011 
L 371.25968 71.628102 
L 371.57177 70.529055 
L 371.98789 68.042886 
L 372.924161 61.823558 
L 373.236251 61.155239 
L 373.340281 61.212374 
L 373.548341 61.776614 
L 373.860431 63.690795 
L 374.484611 69.834684 
L 375.004761 74.319671 
L 375.316851 75.727638 
L 375.524911 76.087133 
L 375.732971 76.072626 
L 376.045061 75.62315 
L 376.669241 74.676104 
L 376.981331 74.624917 
L 377.293421 74.866334 
L 377.709541 75.52766 
L 378.125661 76.630992 
L 378.541782 78.513409 
L 378.957902 81.524481 
L 379.582082 88.07776 
L 381.038502 104.502484 
L 381.558652 108.334556 
L 381.870742 109.557215 
L 382.078802 109.748828 
L 382.286862 109.354292 
L 382.494922 108.331058 
L 382.807012 105.629584 
L 383.327162 98.599698 
L 385.823883 60.201389 
L 386.760153 49.925367 
L 387.280303 45.8948 
L 387.696423 44.185577 
L 387.904483 43.954281 
L 388.112543 44.158518 
L 388.424633 45.237971 
L 388.840753 47.794553 
L 389.672993 53.105316 
L 389.881053 53.638973 
L 389.985083 53.711765 
L 390.089113 53.648072 
L 390.297173 53.111264 
L 390.609263 51.371571 
L 391.233444 45.834121 
L 391.961654 39.871757 
L 392.273744 38.512309 
L 392.481804 38.124586 
L 392.689864 38.14438 
L 392.897924 38.530123 
L 393.314044 40.113875 
L 394.770464 47.623403 
L 395.394644 52.012417 
L 396.955094 64.886114 
L 397.267185 65.839818 
L 397.475245 66.029703 
L 397.683305 65.918401 
L 397.995395 65.367516 
L 398.619575 64.167984 
L 398.827635 64.091521 
L 399.035695 64.280115 
L 399.347785 65.084695 
L 399.763905 66.969019 
L 400.908235 72.640362 
L 401.220325 73.346635 
L 401.532415 73.554444 
L 401.740475 73.43866 
L 402.052565 72.942261 
L 402.572715 71.511646 
L 403.300926 69.442677 
L 403.613016 69.123399 
L 403.821076 69.258172 
L 404.029136 69.717643 
L 404.341226 71.036925 
L 404.861376 74.663758 
L 406.005706 83.521372 
L 406.421826 85.087771 
L 406.733916 85.525737 
L 407.046006 85.542379 
L 407.670186 85.345976 
L 407.982276 85.488314 
L 409.126606 86.397671 
L 409.438696 86.077987 
L 409.854817 85.119276 
L 410.791087 82.712727 
L 410.999147 82.559318 
L 411.207207 82.625458 
L 411.519297 83.121196 
L 411.935417 84.35319 
L 413.079747 88.865528 
L 413.807957 92.525955 
L 414.640197 98.283731 
L 415.264377 102.163075 
L 415.576467 103.252396 
L 415.784528 103.556025 
L 415.992588 103.523625 
L 416.200648 103.195283 
L 416.616768 101.949234 
L 417.240948 100.015696 
L 417.553038 99.601059 
L 417.761098 99.622595 
L 417.969158 99.88369 
L 418.281248 100.671601 
L 418.905428 103.13345 
L 419.737668 106.369595 
L 420.257818 107.654964 
L 420.881998 108.604255 
L 421.714238 109.851067 
L 422.338419 111.25857 
L 424.419019 116.637329 
L 424.835139 116.997458 
L 425.147229 116.982415 
L 425.459319 116.698283 
L 425.875439 115.879456 
L 426.395589 114.207942 
L 427.539919 110.208486 
L 427.852009 109.793809 
L 428.060069 109.779421 
L 428.26813 109.968355 
L 428.58022 110.574007 
L 430.14067 114.363107 
L 430.45276 114.469709 
L 430.76485 114.310688 
L 431.285 113.658837 
L 431.285 113.658837 
" clip-path="url(#p36d34eb204)" style="fill: none; stroke-dasharray: 1.85,0.8; stroke-dashoffset: 0; stroke: #1f77b4; stroke-width: 0.5"/>
   </g>
   <g id="line2d_30">
    <path d="M 56.985 106.47953 
L 57.50515 101.703811 
L 58.0253 98.888522 
L 58.44142 97.764686 
L 58.75351 97.438481 
L 59.0656 97.454027 
L 59.37769 97.720323 
L 60.00187 98.641158 
L 60.626051 99.472979 
L 60.938141 99.628007 
L 61.146201 99.572945 
L 61.458291 99.205657 
L 61.874411 98.242243 
L 62.394561 96.430886 
L 63.226801 92.634563 
L 64.891281 84.905844 
L 65.515461 83.089281 
L 65.931581 82.423752 
L 66.347702 82.156162 
L 66.659792 82.190181 
L 67.075912 82.513238 
L 67.596062 83.301562 
L 68.220242 84.698188 
L 69.156512 87.405883 
L 70.925022 93.339253 
L 72.173382 98.356237 
L 73.213683 103.432947 
L 74.358013 110.236442 
L 77.895033 132.596902 
L 78.831304 136.654274 
L 79.975634 140.591088 
L 82.160264 147.799768 
L 85.385195 159.965505 
L 86.009375 161.246381 
L 86.425495 161.71023 
L 86.841615 161.88487 
L 87.257735 161.834718 
L 87.881915 161.478916 
L 89.338335 160.466665 
L 89.754455 160.420514 
L 90.170575 160.600489 
L 90.586695 161.061452 
L 91.210875 162.175797 
L 92.979386 165.656699 
L 93.395506 166.02271 
L 93.707596 166.067842 
L 94.019686 165.874893 
L 94.331776 165.40654 
L 94.747896 164.302056 
L 95.372076 161.764254 
L 96.308346 156.763399 
L 97.764767 149.005722 
L 98.388947 146.758448 
L 98.805067 145.911469 
L 99.117157 145.649442 
L 99.429247 145.675549 
L 99.741337 145.959492 
L 100.157457 146.686795 
L 100.781637 148.379111 
L 101.717907 151.790936 
L 103.590447 158.853103 
L 104.630748 161.85974 
L 105.567018 163.939117 
L 106.399258 165.286729 
L 107.127468 166.077903 
L 107.855678 166.532624 
L 108.583888 166.724238 
L 109.520158 166.70947 
L 112.432999 166.432953 
L 113.577329 166.653113 
L 114.721659 167.107056 
L 115.865989 167.806239 
L 117.32241 168.981366 
L 122.31585 173.260548 
L 124.084361 174.378639 
L 127.829441 176.558772 
L 129.389892 177.886663 
L 132.198702 180.320993 
L 136.255873 183.350988 
L 137.608263 184.902476 
L 140.209013 187.92849 
L 141.457374 188.960837 
L 144.890364 191.560841 
L 146.450814 193.279967 
L 149.051565 196.166444 
L 150.612015 197.513893 
L 152.588585 198.910737 
L 164.552037 206.604154 
L 170.273688 210.053411 
L 174.226829 212.357113 
L 177.243699 214.194425 
L 178.70012 214.794495 
L 180.57266 215.296248 
L 184.00565 216.186224 
L 187.334611 217.332121 
L 192.536112 219.389572 
L 195.240892 220.670903 
L 198.153733 222.328507 
L 203.771354 225.590776 
L 210.325245 228.752843 
L 213.342115 229.982477 
L 215.526745 230.990071 
L 218.543616 232.744104 
L 220.520186 233.746734 
L 223.537057 234.968299 
L 231.651398 238.043509 
L 235.084389 239.13192 
L 236.956929 239.472787 
L 239.141559 239.881691 
L 240.285889 240.329602 
L 241.63828 241.145773 
L 244.34306 242.854778 
L 245.59142 243.309713 
L 247.255901 243.643892 
L 250.792921 244.296663 
L 254.225912 244.921889 
L 257.034722 245.462592 
L 259.427412 245.986916 
L 260.467713 245.970223 
L 261.299953 245.75278 
L 262.444283 245.202247 
L 264.524883 244.172533 
L 265.357123 244.012315 
L 266.293394 244.083351 
L 267.645784 244.453219 
L 269.414294 244.911984 
L 270.662654 244.955386 
L 275.344005 244.83889 
L 277.008485 245.188021 
L 281.585806 246.343994 
L 282.626106 246.233162 
L 284.394616 245.766335 
L 285.955067 245.42495 
L 287.203427 245.401672 
L 288.659847 245.617284 
L 290.844477 246.202512 
L 292.925078 246.696665 
L 294.173438 246.773733 
L 295.421798 246.614545 
L 298.022549 246.214749 
L 299.062849 246.324076 
L 300.415239 246.719222 
L 303.015989 247.526865 
L 304.36838 247.662684 
L 305.92883 247.582734 
L 307.80137 247.241567 
L 309.777941 246.652165 
L 312.170631 245.68668 
L 313.835111 245.109971 
L 314.979441 244.945626 
L 316.435862 245.03673 
L 317.476162 244.996669 
L 318.204372 244.750649 
L 318.828552 244.316245 
L 319.452732 243.615956 
L 320.180942 242.45897 
L 321.117212 240.544965 
L 322.573633 236.965149 
L 324.446173 231.845225 
L 325.174383 229.137045 
L 325.902593 225.449924 
L 326.630803 220.394129 
L 327.359013 213.579925 
L 328.191253 203.347804 
L 329.855734 179.054436 
L 331.000064 163.877596 
L 331.728274 156.715469 
L 332.352454 152.683111 
L 332.872604 150.602606 
L 333.392754 149.444167 
L 333.808874 149.029232 
L 334.224994 148.943726 
L 334.745145 149.123592 
L 335.785445 149.579225 
L 336.201565 149.486053 
L 336.617685 149.118883 
L 337.033805 148.42464 
L 337.553955 147.016035 
L 338.074105 144.90979 
L 338.698285 141.315456 
L 339.322465 136.388121 
L 340.050675 128.715827 
L 340.986946 115.918945 
L 344.003816 71.767506 
L 344.732026 65.038891 
L 345.356206 61.064022 
L 345.980386 58.457982 
L 346.500536 57.136578 
L 347.020686 56.421036 
L 347.436807 56.179528 
L 347.956957 56.159683 
L 348.685167 56.393999 
L 349.413377 56.854167 
L 350.037557 57.523907 
L 350.661737 58.536151 
L 351.285917 59.97462 
L 352.014127 62.303229 
L 352.742337 65.45332 
L 353.782638 71.159577 
L 356.175328 84.69054 
L 356.903538 87.526055 
L 357.527718 89.201697 
L 358.151898 90.329205 
L 358.880108 91.1568 
L 359.816379 91.824415 
L 360.752649 92.526106 
L 361.584889 93.483978 
L 363.041309 95.223342 
L 363.665489 95.634294 
L 364.081609 95.694176 
L 364.497729 95.534912 
L 364.913849 95.115466 
L 365.433999 94.188793 
L 366.05818 92.571754 
L 366.99445 89.410358 
L 370.01132 78.489332 
L 370.84356 76.438448 
L 371.57177 75.149045 
L 372.195951 74.452348 
L 372.716101 74.179927 
L 373.132221 74.174664 
L 373.548341 74.368059 
L 373.964461 74.780707 
L 374.484611 75.645083 
L 375.004761 76.944904 
L 375.628941 79.152113 
L 376.357151 82.732522 
L 377.085361 87.530413 
L 377.917601 94.619244 
L 379.894172 112.34102 
L 380.518352 115.788113 
L 380.934472 116.946504 
L 381.142532 117.113469 
L 381.350592 116.974356 
L 381.558652 116.505724 
L 381.870742 115.159797 
L 382.286862 112.298246 
L 382.911042 106.188607 
L 383.951342 93.084142 
L 385.511793 73.570738 
L 386.240003 67.375217 
L 386.864183 63.887459 
L 387.488363 61.635488 
L 388.112543 60.191936 
L 389.881053 56.752867 
L 390.505233 54.584234 
L 392.689864 46.325935 
L 393.105984 45.607108 
L 393.418074 45.431735 
L 393.626134 45.516251 
L 393.938224 45.982801 
L 394.250314 46.897946 
L 394.770464 49.338961 
L 395.498674 54.174496 
L 398.099425 73.086445 
L 398.619575 74.993962 
L 399.035695 75.84437 
L 399.451815 76.216337 
L 399.763905 76.249133 
L 400.180025 76.055019 
L 400.908235 75.377648 
L 401.636445 74.788243 
L 402.052565 74.723387 
L 402.364655 74.890825 
L 402.780775 75.462581 
L 403.300926 76.651557 
L 404.133166 79.284888 
L 406.005706 85.502841 
L 406.525856 86.565744 
L 406.941976 87.031977 
L 407.358096 87.206557 
L 407.878246 87.133856 
L 408.814516 86.650578 
L 409.438696 86.44347 
L 409.854817 86.511418 
L 410.270937 86.835475 
L 410.687057 87.493892 
L 411.207207 88.856578 
L 411.935417 91.546509 
L 414.744227 102.925006 
L 415.264377 103.916374 
L 415.784528 104.405944 
L 416.304678 104.541143 
L 417.032888 104.41578 
L 417.865128 104.294783 
L 418.281248 104.422467 
L 418.697368 104.776247 
L 419.113488 105.431608 
L 419.633638 106.706907 
L 420.465878 109.477702 
L 422.442449 116.400073 
L 423.066629 117.702792 
L 423.482749 118.115359 
L 423.898869 118.186686 
L 424.314989 118.001177 
L 424.939169 117.425986 
L 426.083499 116.309216 
L 426.499619 116.160099 
L 426.811709 116.221291 
L 427.123799 116.47036 
L 427.539919 117.153783 
L 428.060069 118.562755 
L 428.78828 121.319296 
L 430.14067 127.621274 
L 431.285 132.588408 
L 431.285 132.588408 
" clip-path="url(#p36d34eb204)" style="fill: none; stroke: #ff7f0e; stroke-width: 0.5; stroke-linecap: square"/>
   </g>
   <g id="line2d_31">
    <path d="M 56.985 287.431565 
L 57.08903 287.431565 
L 57.19306 286.868392 
L 57.40112 290.047842 
L 57.60918 290.952343 
L 57.71321 290.994545 
L 57.92127 290.707901 
L 58.75351 288.749268 
L 59.27366 285.46404 
L 61.562321 269.562528 
L 61.874411 269.012914 
L 62.082471 269.065468 
L 62.290531 269.43926 
L 62.602621 270.528727 
L 63.122771 273.343013 
L 64.787251 283.183936 
L 65.307401 285.056614 
L 65.827551 286.144352 
L 66.347702 286.740301 
L 66.971882 287.104882 
L 67.804122 287.311439 
L 68.220242 287.29693 
L 68.636362 286.837757 
L 69.052482 285.989952 
L 69.572632 284.328606 
L 70.404872 280.70696 
L 71.133082 277.894985 
L 71.549202 277.070318 
L 71.861292 276.933823 
L 72.069352 277.065594 
L 72.381442 277.559572 
L 72.797563 278.666572 
L 73.525773 281.388349 
L 74.253983 284.538844 
L 74.774133 285.851353 
L 75.294283 286.58096 
L 75.606373 286.811617 
L 75.814433 286.610013 
L 76.126523 286.023076 
L 76.646673 284.500474 
L 77.686973 281.23459 
L 78.103093 280.613942 
L 78.415183 280.56384 
L 78.727273 280.873891 
L 79.143394 281.764129 
L 79.455484 282.726781 
L 80.183694 285.196918 
L 80.703844 286.212166 
L 81.223994 286.77538 
L 81.640114 286.977615 
L 82.784444 286.621608 
L 83.408624 286.820953 
L 84.448924 287.155792 
L 85.593255 287.357256 
L 86.633555 287.370715 
L 86.945645 286.883069 
L 87.465795 285.451666 
L 88.402065 282.695945 
L 88.714155 282.395631 
L 88.922215 282.456717 
L 89.234305 282.842746 
L 90.586695 286.266322 
L 91.106845 286.803524 
L 91.314906 286.855612 
L 91.626996 286.363884 
L 92.043116 285.199161 
L 93.187446 281.538019 
L 93.499536 281.261311 
L 93.811626 281.448555 
L 94.019686 281.90012 
L 95.164016 285.696996 
L 95.684166 286.493678 
L 95.788196 286.478333 
L 95.996256 285.873235 
L 96.308346 284.105507 
L 96.724466 280.183771 
L 98.076857 265.461819 
L 98.284917 264.758736 
L 98.388947 264.659822 
L 98.492977 264.726881 
L 98.701037 265.32862 
L 99.013127 267.242387 
L 99.637307 273.185996 
L 100.573577 281.884815 
L 101.093727 284.418232 
L 101.613877 285.812246 
L 102.134027 286.546623 
L 102.446117 286.572052 
L 102.862237 286.375882 
L 103.382387 285.872777 
L 105.046868 283.911831 
L 105.358958 283.901909 
L 105.775078 284.162891 
L 106.295228 284.809692 
L 107.335528 286.522895 
L 107.959708 286.99682 
L 108.687918 287.249871 
L 109.312098 287.268049 
L 110.352399 286.910274 
L 110.976579 286.937197 
L 114.201509 287.415141 
L 119.29898 287.408587 
L 120.13122 287.383639 
L 124.084361 287.43099 
L 126.060931 287.322447 
L 127.517351 287.292069 
L 129.389892 287.414764 
L 131.158402 287.365156 
L 132.198702 286.733153 
L 133.030942 286.320589 
L 133.655122 286.248413 
L 134.487362 286.401772 
L 135.007513 286.721138 
L 135.735723 287.111823 
L 136.671993 287.326266 
L 138.232443 287.409279 
L 140.625133 287.22541 
L 142.081554 287.391693 
L 144.370214 287.391526 
L 146.242754 287.246568 
L 147.907235 287.402966 
L 149.051565 287.36964 
L 150.195895 286.967572 
L 150.924105 286.9669 
L 152.380525 287.332768 
L 154.149036 287.418126 
L 175.579219 287.378065 
L 177.035639 287.355073 
L 179.53236 287.427365 
L 183.4855 287.347405 
L 184.31774 287.335943 
L 186.710431 287.425342 
L 202.939113 287.429381 
L 207.932554 287.431216 
L 216.046895 287.331027 
L 216.879136 287.35496 
L 219.375856 287.427345 
L 236.228719 287.400009 
L 238.933499 287.172861 
L 240.181859 287.368714 
L 242.57455 287.427963 
L 244.65515 287.347469 
L 246.00754 287.14789 
L 246.63172 287.208139 
L 248.088141 287.387607 
L 251.209041 287.430418 
L 261.299953 287.373083 
L 262.028163 286.813347 
L 262.860403 286.174258 
L 263.380553 286.080219 
L 263.900703 286.245221 
L 264.420853 286.623165 
L 265.149063 287.068835 
L 265.981304 287.296339 
L 267.437724 287.408032 
L 269.102204 287.348748 
L 271.494894 286.87066 
L 271.911014 286.94735 
L 273.159375 287.303503 
L 274.615795 287.409113 
L 278.256845 287.39243 
L 280.753566 287.128044 
L 284.498646 287.426499 
L 284.810737 287.307826 
L 286.267157 286.500104 
L 286.787307 286.561972 
L 287.411487 286.897269 
L 288.243727 287.222705 
L 289.388057 287.378263 
L 291.988808 287.429176 
L 295.213738 287.334534 
L 297.086278 287.110023 
L 299.791059 287.414493 
L 306.34495 287.43146 
L 309.36182 287.338723 
L 310.090031 286.87152 
L 310.818241 286.445801 
L 311.338391 286.411721 
L 312.794811 287.2038 
L 313.835111 287.365882 
L 314.355261 287.307631 
L 316.123772 285.908245 
L 316.851982 285.736416 
L 317.580192 285.788991 
L 318.724522 286.125316 
L 320.493032 287.22305 
L 321.533332 287.371394 
L 321.741392 287.132588 
L 322.261543 286.010926 
L 323.405873 282.717795 
L 324.342143 280.299019 
L 324.758263 279.708675 
L 325.070353 279.58898 
L 325.382443 279.779953 
L 325.694533 280.279341 
L 326.214683 281.622035 
L 326.838863 284.025744 
L 327.359013 285.531092 
L 327.879163 286.402151 
L 328.399314 286.878855 
L 328.815434 287.03683 
L 329.335584 286.341691 
L 330.167824 285.16824 
L 330.479914 285.031965 
L 330.792004 285.438176 
L 331.520214 286.488697 
L 331.936334 286.850042 
L 332.040364 286.834874 
L 332.248424 286.356295 
L 332.560514 284.950508 
L 333.080664 281.168005 
L 333.808874 276.053806 
L 334.120964 275.091447 
L 334.329024 275.00885 
L 334.537084 275.355846 
L 334.849175 276.534532 
L 335.161265 278.29729 
L 335.889475 283.063695 
L 336.409625 285.045873 
L 336.929775 286.147313 
L 337.033805 286.144011 
L 337.345895 285.096409 
L 337.762015 282.190698 
L 338.386195 275.30396 
L 339.218435 266.052513 
L 339.634555 263.702428 
L 339.842615 263.46121 
L 339.946645 263.595743 
L 340.154705 264.409601 
L 340.466795 266.776894 
L 340.778885 270.641682 
L 341.507096 279.589869 
L 342.027246 283.16281 
L 342.235306 283.965596 
L 342.339336 284.002792 
L 342.547396 283.765387 
L 343.483666 281.797755 
L 343.691726 281.791195 
L 344.003816 282.067109 
L 344.627996 282.681708 
L 345.044116 282.755224 
L 345.564266 282.792104 
L 345.876356 283.000848 
L 346.396506 283.705271 
L 347.332777 285.519334 
L 347.852927 286.361736 
L 348.373077 286.851618 
L 348.789197 287.063785 
L 349.101287 286.871786 
L 349.725467 286.42945 
L 350.141587 286.64826 
L 350.973827 287.108796 
L 351.598007 287.276877 
L 351.806067 287.101219 
L 352.222187 286.126502 
L 352.846367 283.749025 
L 353.574578 281.164265 
L 353.886668 280.659188 
L 354.094728 280.604288 
L 354.302788 280.773327 
L 354.614878 281.377489 
L 355.655178 283.795467 
L 355.967268 283.947397 
L 356.383388 283.863165 
L 356.695478 283.792961 
L 357.007568 284.427522 
L 357.735778 286.015731 
L 358.255928 286.65982 
L 358.568018 286.870565 
L 358.672048 286.748916 
L 359.192198 284.982626 
L 359.712349 283.291634 
L 360.024439 282.871618 
L 360.232499 282.866241 
L 361.064739 283.212983 
L 361.272799 282.905792 
L 361.584889 282.000673 
L 362.625189 278.455181 
L 362.833249 278.386492 
L 363.041309 278.639563 
L 363.457429 279.96791 
L 364.393699 284.527387 
L 364.913849 285.853904 
L 365.225939 286.310592 
L 365.433999 286.219227 
L 365.95415 285.555811 
L 366.37027 285.134814 
L 366.57833 285.177745 
L 367.09848 285.93991 
L 367.72266 286.682211 
L 368.24281 287.025306 
L 368.34684 287.004553 
L 368.65893 286.269261 
L 369.17908 284.130462 
L 369.69923 282.201961 
L 370.01132 281.794599 
L 370.21938 281.897429 
L 370.53147 282.456957 
L 371.05162 283.426119 
L 371.25968 283.448993 
L 371.46774 283.133827 
L 371.77983 282.000594 
L 372.299981 278.818735 
L 372.924161 275.134709 
L 373.236251 274.408063 
L 373.444311 274.573444 
L 373.548341 274.743507 
L 373.756401 275.830341 
L 374.796701 283.37277 
L 375.212821 284.942733 
L 375.316851 285.171607 
L 375.420881 285.121316 
L 375.732971 283.942657 
L 376.253121 280.542881 
L 378.125661 267.503133 
L 378.645812 265.000703 
L 378.957902 264.409906 
L 379.165962 264.456075 
L 379.374022 264.839699 
L 379.686112 265.955552 
L 380.206262 268.82574 
L 381.038502 274.78565 
L 381.974772 282.535712 
L 382.494922 284.77302 
L 382.911042 285.709583 
L 383.119102 285.387079 
L 383.535222 284.0989 
L 384.679553 280.244916 
L 385.927913 276.678866 
L 387.488363 270.668987 
L 387.696423 270.56157 
L 387.904483 270.806187 
L 388.216573 271.878653 
L 388.632693 274.473567 
L 389.568963 282.369251 
L 390.089113 284.680689 
L 390.297173 285.188982 
L 390.401203 285.130712 
L 390.609263 284.666747 
L 391.025384 282.856828 
L 391.857624 279.006286 
L 392.169714 278.490851 
L 392.377774 278.565127 
L 392.585834 278.968195 
L 393.001954 280.548168 
L 393.938224 284.749298 
L 394.250314 285.443258 
L 394.562404 285.701117 
L 395.082554 285.880968 
L 396.122854 286.898149 
L 396.643004 287.142735 
L 396.747034 287.116369 
L 396.955094 286.5979 
L 397.267185 285.238862 
L 397.787335 281.787452 
L 398.515545 277.060051 
L 398.827635 276.068051 
L 399.035695 275.89864 
L 399.243755 276.129483 
L 399.555845 277.145995 
L 399.867935 278.759685 
L 400.700175 283.72852 
L 401.220325 285.416863 
L 401.636445 286.170992 
L 401.844505 286.051091 
L 402.156595 285.410799 
L 402.572715 283.844496 
L 403.821076 278.497846 
L 404.029136 278.257166 
L 404.237196 278.328257 
L 404.445256 278.703524 
L 404.861376 280.21217 
L 405.693616 284.313993 
L 406.213766 285.733398 
L 406.525856 286.201828 
L 406.837946 286.084085 
L 407.566156 285.58189 
L 407.982276 286.046252 
L 408.710486 286.798056 
L 409.334666 287.127708 
L 409.438696 287.091709 
L 409.750787 286.394804 
L 410.374967 284.07223 
L 411.103177 281.486691 
L 411.519297 280.665279 
L 411.935417 280.268745 
L 413.079747 279.67042 
L 413.391837 279.686423 
L 413.703927 279.996692 
L 414.120047 280.93692 
L 415.160347 285.142494 
L 415.680497 286.19061 
L 415.992588 286.486971 
L 416.304678 285.864257 
L 417.449008 282.829017 
L 417.657068 282.752413 
L 417.969158 282.970038 
L 418.385278 284.127177 
L 419.009458 285.735495 
L 419.529608 286.508191 
L 419.841698 286.780748 
L 420.049758 286.665689 
L 420.465878 286.003204 
L 422.026329 282.781249 
L 422.338419 282.603902 
L 422.650509 282.667073 
L 422.962599 282.970862 
L 423.378719 283.676939 
L 424.314989 285.977561 
L 424.835139 286.641987 
L 425.459319 287.057036 
L 425.667379 287.12919 
L 425.875439 286.880948 
L 426.291559 285.846317 
L 426.915739 283.343597 
L 427.956039 278.98485 
L 428.47619 277.750843 
L 429.72455 275.593973 
L 430.2447 273.779874 
L 430.97291 270.275863 
L 431.18097 268.866048 
L 431.285 269.212034 
L 431.285 269.212034 
" clip-path="url(#p36d34eb204)" style="fill: none; stroke: #2ca02c; stroke-width: 0.5; stroke-linecap: square"/>
   </g>
   <g id="patch_3">
    <path d="M 38.27 303.64 
L 38.27 25.44 
" style="fill: none; stroke: #000000; stroke-width: 0.8; stroke-linejoin: miter; stroke-linecap: square"/>
   </g>
   <g id="patch_4">
    <path d="M 450 303.64 
L 450 25.44 
" style="fill: none; stroke: #000000; stroke-width: 0.8; stroke-linejoin: miter; stroke-linecap: square"/>
   </g>
   <g id="patch_5">
    <path d="M 38.27 303.64 
L 450 303.64 
" style="fill: none; stroke: #000000; stroke-width: 0.8; stroke-linejoin: miter; stroke-linecap: square"/>
   </g>
   <g id="patch_6">
    <path d="M 38.27 25.44 
L 450 25.44 
" style="fill: none; stroke: #000000; stroke-width: 0.8; stroke-linejoin: miter; stroke-linecap: square"/>
   </g>
   <g id="text_17">
    <!-- data_6_E4 Separated EDA plot -->
    <g transform="translate(152.579688 19.44) scale(0.12 -0.12)">
     <defs>
      <path id="DejaVuSans-5f" d="M 3263 -1063 
L 3263 -1509 
L -63 -1509 
L -63 -1063 
L 3263 -1063 
z
" transform="scale(0.015625)"/>
      <path id="DejaVuSans-70" d="M 1159 525 
L 1159 -1331 
L 581 -1331 
L 581 3500 
L 1159 3500 
L 1159 2969 
Q 1341 3281 1617 3432 
Q 1894 3584 2278 3584 
Q 2916 3584 3314 3078 
Q 3713 2572 3713 1747 
Q 3713 922 3314 415 
Q 2916 -91 2278 -91 
Q 1894 -91 1617 61 
Q 1341 213 1159 525 
z
M 3116 1747 
Q 3116 2381 2855 2742 
Q 2594 3103 2138 3103 
Q 1681 3103 1420 2742 
Q 1159 2381 1159 1747 
Q 1159 1113 1420 752 
Q 1681 391 2138 391 
Q 2594 391 2855 752 
Q 3116 1113 3116 1747 
z
" transform="scale(0.015625)"/>
      <path id="DejaVuSans-6f" d="M 1959 3097 
Q 1497 3097 1228 2736 
Q 959 2375 959 1747 
Q 959 1119 1226 758 
Q 1494 397 1959 397 
Q 2419 397 2687 759 
Q 2956 1122 2956 1747 
Q 2956 2369 2687 2733 
Q 2419 3097 1959 3097 
z
M 1959 3584 
Q 2709 3584 3137 3096 
Q 3566 2609 3566 1747 
Q 3566 888 3137 398 
Q 2709 -91 1959 -91 
Q 1206 -91 779 398 
Q 353 888 353 1747 
Q 353 2609 779 3096 
Q 1206 3584 1959 3584 
z
" transform="scale(0.015625)"/>
     </defs>
     <use xlink:href="#DejaVuSans-64"/>
     <use xlink:href="#DejaVuSans-61" transform="translate(63.476562 0)"/>
     <use xlink:href="#DejaVuSans-74" transform="translate(124.755859 0)"/>
     <use xlink:href="#DejaVuSans-61" transform="translate(163.964844 0)"/>
     <use xlink:href="#DejaVuSans-5f" transform="translate(225.244141 0)"/>
     <use xlink:href="#DejaVuSans-36" transform="translate(275.244141 0)"/>
     <use xlink:href="#DejaVuSans-5f" transform="translate(338.867188 0)"/>
     <use xlink:href="#DejaVuSans-45" transform="translate(388.867188 0)"/>
     <use xlink:href="#DejaVuSans-34" transform="translate(452.050781 0)"/>
     <use xlink:href="#DejaVuSans-20" transform="translate(515.673828 0)"/>
     <use xlink:href="#DejaVuSans-53" transform="translate(547.460938 0)"/>
     <use xlink:href="#DejaVuSans-65" transform="translate(610.9375 0)"/>
     <use xlink:href="#DejaVuSans-70" transform="translate(672.460938 0)"/>
     <use xlink:href="#DejaVuSans-61" transform="translate(735.9375 0)"/>
     <use xlink:href="#DejaVuSans-72" transform="translate(797.216797 0)"/>
     <use xlink:href="#DejaVuSans-61" transform="translate(838.330078 0)"/>
     <use xlink:href="#DejaVuSans-74" transform="translate(899.609375 0)"/>
     <use xlink:href="#DejaVuSans-65" transform="translate(938.818359 0)"/>
     <use xlink:href="#DejaVuSans-64" transform="translate(1000.341797 0)"/>
     <use xlink:href="#DejaVuSans-20" transform="translate(1063.818359 0)"/>
     <use xlink:href="#DejaVuSans-45" transform="translate(1095.605469 0)"/>
     <use xlink:href="#DejaVuSans-44" transform="translate(1158.789062 0)"/>
     <use xlink:href="#DejaVuSans-41" transform="translate(1234.041016 0)"/>
     <use xlink:href="#DejaVuSans-20" transform="translate(1302.449219 0)"/>
     <use xlink:href="#DejaVuSans-70" transform="translate(1334.236328 0)"/>
     <use xlink:href="#DejaVuSans-6c" transform="translate(1397.712891 0)"/>
     <use xlink:href="#DejaVuSans-6f" transform="translate(1425.496094 0)"/>
     <use xlink:href="#DejaVuSans-74" transform="translate(1486.677734 0)"/>
    </g>
   </g>
   <g id="legend_1">
    <g id="patch_7">
     <path d="M 45.27 77.474375 
L 138.17625 77.474375 
Q 140.17625 77.474375 140.17625 75.474375 
L 140.17625 32.44 
Q 140.17625 30.44 138.17625 30.44 
L 45.27 30.44 
Q 43.27 30.44 43.27 32.44 
L 43.27 75.474375 
Q 43.27 77.474375 45.27 77.474375 
z
" style="fill: #ffffff; opacity: 0.8; stroke: #cccccc; stroke-linejoin: miter"/>
    </g>
    <g id="line2d_32">
     <path d="M 47.27 38.538437 
L 57.27 38.538437 
L 67.27 38.538437 
" style="fill: none; stroke-dasharray: 1.85,0.8; stroke-dashoffset: 0; stroke: #1f77b4; stroke-width: 0.5"/>
    </g>
    <g id="text_18">
     <!-- Filtered EDA -->
     <g transform="translate(75.27 42.038437) scale(0.1 -0.1)">
      <defs>
       <path id="DejaVuSans-46" d="M 628 4666 
L 3309 4666 
L 3309 4134 
L 1259 4134 
L 1259 2759 
L 3109 2759 
L 3109 2228 
L 1259 2228 
L 1259 0 
L 628 0 
L 628 4666 
z
" transform="scale(0.015625)"/>
      </defs>
      <use xlink:href="#DejaVuSans-46"/>
      <use xlink:href="#DejaVuSans-69" transform="translate(50.269531 0)"/>
      <use xlink:href="#DejaVuSans-6c" transform="translate(78.052734 0)"/>
      <use xlink:href="#DejaVuSans-74" transform="translate(105.835938 0)"/>
      <use xlink:href="#DejaVuSans-65" transform="translate(145.044922 0)"/>
      <use xlink:href="#DejaVuSans-72" transform="translate(206.568359 0)"/>
      <use xlink:href="#DejaVuSans-65" transform="translate(245.431641 0)"/>
      <use xlink:href="#DejaVuSans-64" transform="translate(306.955078 0)"/>
      <use xlink:href="#DejaVuSans-20" transform="translate(370.431641 0)"/>
      <use xlink:href="#DejaVuSans-45" transform="translate(402.21875 0)"/>
      <use xlink:href="#DejaVuSans-44" transform="translate(465.402344 0)"/>
      <use xlink:href="#DejaVuSans-41" transform="translate(540.654297 0)"/>
     </g>
    </g>
    <g id="line2d_33">
     <path d="M 47.27 53.216562 
L 57.27 53.216562 
L 67.27 53.216562 
" style="fill: none; stroke: #ff7f0e; stroke-width: 0.5; stroke-linecap: square"/>
    </g>
    <g id="text_19">
     <!-- Tonic -->
     <g transform="translate(75.27 56.716562) scale(0.1 -0.1)">
      <defs>
       <path id="DejaVuSans-63" d="M 3122 3366 
L 3122 2828 
Q 2878 2963 2633 3030 
Q 2388 3097 2138 3097 
Q 1578 3097 1268 2742 
Q 959 2388 959 1747 
Q 959 1106 1268 751 
Q 1578 397 2138 397 
Q 2388 397 2633 464 
Q 2878 531 3122 666 
L 3122 134 
Q 2881 22 2623 -34 
Q 2366 -91 2075 -91 
Q 1284 -91 818 406 
Q 353 903 353 1747 
Q 353 2603 823 3093 
Q 1294 3584 2113 3584 
Q 2378 3584 2631 3529 
Q 2884 3475 3122 3366 
z
" transform="scale(0.015625)"/>
      </defs>
      <use xlink:href="#DejaVuSans-54"/>
      <use xlink:href="#DejaVuSans-6f" transform="translate(44.083984 0)"/>
      <use xlink:href="#DejaVuSans-6e" transform="translate(105.265625 0)"/>
      <use xlink:href="#DejaVuSans-69" transform="translate(168.644531 0)"/>
      <use xlink:href="#DejaVuSans-63" transform="translate(196.427734 0)"/>
     </g>
    </g>
    <g id="line2d_34">
     <path d="M 47.27 67.894687 
L 57.27 67.894687 
L 67.27 67.894687 
" style="fill: none; stroke: #2ca02c; stroke-width: 0.5; stroke-linecap: square"/>
    </g>
    <g id="text_20">
     <!-- Phasic -->
     <g transform="translate(75.27 71.394687) scale(0.1 -0.1)">
      <defs>
       <path id="DejaVuSans-50" d="M 1259 4147 
L 1259 2394 
L 2053 2394 
Q 2494 2394 2734 2622 
Q 2975 2850 2975 3272 
Q 2975 3691 2734 3919 
Q 2494 4147 2053 4147 
L 1259 4147 
z
M 628 4666 
L 2053 4666 
Q 2838 4666 3239 4311 
Q 3641 3956 3641 3272 
Q 3641 2581 3239 2228 
Q 2838 1875 2053 1875 
L 1259 1875 
L 1259 0 
L 628 0 
L 628 4666 
z
" transform="scale(0.015625)"/>
       <path id="DejaVuSans-68" d="M 3513 2113 
L 3513 0 
L 2938 0 
L 2938 2094 
Q 2938 2591 2744 2837 
Q 2550 3084 2163 3084 
Q 1697 3084 1428 2787 
Q 1159 2491 1159 1978 
L 1159 0 
L 581 0 
L 581 4863 
L 1159 4863 
L 1159 2956 
Q 1366 3272 1645 3428 
Q 1925 3584 2291 3584 
Q 2894 3584 3203 3211 
Q 3513 2838 3513 2113 
z
" transform="scale(0.015625)"/>
      </defs>
      <use xlink:href="#DejaVuSans-50"/>
      <use xlink:href="#DejaVuSans-68" transform="translate(60.302734 0)"/>
      <use xlink:href="#DejaVuSans-61" transform="translate(123.681641 0)"/>
      <use xlink:href="#DejaVuSans-73" transform="translate(184.960938 0)"/>
      <use xlink:href="#DejaVuSans-69" transform="translate(237.060547 0)"/>
      <use xlink:href="#DejaVuSans-63" transform="translate(264.84375 0)"/>
     </g>
    </g>
   </g>
  </g>
 </g>
 <defs>
  <clipPath id="p36d34eb204">
   <rect x="38.27" y="25.44" width="411.73" height="278.2"/>
  </clipPath>
 </defs>
</svg>
