<?xml version="1.0" encoding="utf-8" standalone="no"?>
<!DOCTYPE svg PUBLIC "-//W3C//DTD SVG 1.1//EN"
  "http://www.w3.org/Graphics/SVG/1.1/DTD/svg11.dtd">
<svg xmlns:xlink="http://www.w3.org/1999/xlink" width="864pt" height="576pt" viewBox="0 0 864 576" xmlns="http://www.w3.org/2000/svg" version="1.1">
 <metadata>
  <rdf:RDF xmlns:dc="http://purl.org/dc/elements/1.1/" xmlns:cc="http://creativecommons.org/ns#" xmlns:rdf="http://www.w3.org/1999/02/22-rdf-syntax-ns#">
   <cc:Work>
    <dc:type rdf:resource="http://purl.org/dc/dcmitype/StillImage"/>
    <dc:date>2025-10-02T19:23:00.507280</dc:date>
    <dc:format>image/svg+xml</dc:format>
    <dc:creator>
     <cc:Agent>
      <dc:title>Matplotlib v3.10.0, https://matplotlib.org/</dc:title>
     </cc:Agent>
    </dc:creator>
   </cc:Work>
  </rdf:RDF>
 </metadata>
 <defs>
  <style type="text/css">*{stroke-linejoin: round; stroke-linecap: butt}</style>
 </defs>
 <g id="figure_1">
  <g id="patch_1">
   <path d="M 0 576 
L 864 576 
L 864 0 
L 0 0 
z
" style="fill: #ffffff"/>
  </g>
  <g id="axes_1">
   <g id="patch_2">
    <path d="M 38.27 534.04 
L 853.2 534.04 
L 853.2 25.69875 
L 38.27 25.69875 
z
" style="fill: #ffffff"/>
   </g>
   <g id="line2d_1">
    <path d="M 75.312273 206.172294 
L 75.724082 202.62991 
L 75.929987 202.924276 
L 76.135892 204.68113 
L 77.78313 225.957128 
L 78.400845 230.251598 
L 79.224464 234.573308 
L 79.842178 236.787957 
L 80.871702 239.95383 
L 81.489417 241.11801 
L 81.695321 242.18567 
L 82.724845 250.137332 
L 82.93075 249.498225 
L 83.34256 246.283409 
L 83.548465 245.804662 
L 83.960274 248.10148 
L 84.166179 247.836742 
L 84.577989 240.5722 
L 84.783893 237.114496 
L 84.989798 236.470542 
L 85.195703 238.593876 
L 85.813417 247.850209 
L 86.225227 250.883988 
L 86.637036 252.264647 
L 87.254751 253.367687 
L 87.872465 253.784095 
L 88.07837 254.216298 
L 88.696084 256.800729 
L 89.313799 258.868535 
L 90.343323 260.879951 
L 90.755132 261.348549 
L 91.166942 261.385325 
L 91.578752 261.237331 
L 91.784656 261.281549 
L 92.196466 261.720503 
L 93.22599 263.362348 
L 94.049609 264.849505 
L 94.667324 265.633434 
L 96.520467 268.454366 
L 96.932276 268.822973 
L 97.138181 268.607331 
L 97.549991 267.063871 
L 98.167705 264.019966 
L 98.37361 263.450012 
L 98.579515 263.252685 
L 98.785419 263.398665 
L 99.403134 264.353264 
L 99.609039 264.361576 
L 100.020848 264.189518 
L 100.226753 264.292282 
L 100.638563 264.981773 
L 102.697611 269.275032 
L 103.315325 269.792504 
L 103.727135 270.218642 
L 104.550754 271.307792 
L 104.962563 271.404617 
L 106.197992 270.784525 
L 106.609802 270.921847 
L 107.021611 271.442152 
L 107.639326 272.393539 
L 108.051135 272.739887 
L 108.874754 273.210786 
L 109.286564 273.535229 
L 109.492469 273.571134 
L 110.110183 273.340575 
L 110.316088 273.440539 
L 110.727898 273.999563 
L 111.757422 275.739576 
L 112.169231 276.135386 
L 112.786946 277.018807 
L 112.99285 277.088604 
L 113.198755 276.811594 
L 113.610565 275.115103 
L 114.022374 272.353881 
L 114.228279 269.991445 
L 114.640089 260.389382 
L 115.463708 235.50917 
L 115.669613 233.790633 
L 115.875517 234.134067 
L 116.287327 238.341124 
L 116.905041 245.405695 
L 117.316851 248.28471 
L 117.522756 248.514878 
L 117.728661 247.829628 
L 118.14047 245.685975 
L 118.55228 244.442044 
L 118.758185 242.942483 
L 119.787709 229.856742 
L 120.405423 228.023978 
L 120.611328 228.144726 
L 121.023137 229.975436 
L 123.905804 246.917432 
L 125.553043 258.561015 
L 126.788472 262.239025 
L 126.994376 263.551839 
L 127.200281 266.464399 
L 128.0239 284.940057 
L 128.43571 289.228875 
L 129.053424 298.754469 
L 129.259329 299.679333 
L 129.465234 299.188387 
L 129.671139 297.908858 
L 129.877044 295.880142 
L 130.082948 292.229258 
L 130.288853 285.500014 
L 130.700663 260.646304 
L 131.112472 237.286563 
L 131.318377 234.367846 
L 131.524282 236.932562 
L 132.141996 250.461616 
L 132.553806 254.180707 
L 132.759711 254.577956 
L 132.965615 254.426847 
L 133.17152 254.456514 
L 133.377425 254.959776 
L 133.58333 254.927632 
L 133.789235 252.518969 
L 134.406949 235.271412 
L 134.612854 234.290676 
L 135.230568 240.896752 
L 135.436473 241.033279 
L 136.054187 239.352226 
L 136.260092 238.876345 
L 136.465997 237.63646 
L 136.671902 234.984144 
L 137.701426 214.012486 
L 137.907331 212.957063 
L 138.113235 212.950074 
L 138.31914 213.809463 
L 138.73095 217.572176 
L 139.142759 221.125621 
L 139.348664 221.687428 
L 139.554569 221.53497 
L 139.760474 221.152577 
L 139.966379 221.006107 
L 140.172283 221.346585 
L 140.584093 223.57106 
L 141.201807 227.621364 
L 141.407712 228.005347 
L 141.613617 228.657841 
L 141.819522 231.014378 
L 142.231331 243.260912 
L 142.643141 256.928622 
L 143.05495 264.234502 
L 144.084474 278.726749 
L 144.290379 279.813295 
L 144.496284 280.212892 
L 144.702189 280.189645 
L 144.908094 279.909883 
L 145.319903 278.754945 
L 145.525808 278.163434 
L 145.731713 278.392904 
L 145.937618 280.455 
L 146.555332 294.705317 
L 146.761237 295.035924 
L 146.967142 288.46941 
L 147.173046 272.909586 
L 147.996666 177.174106 
L 148.20257 172.928277 
L 148.408475 177.318098 
L 149.02619 197.015273 
L 150.055714 215.471756 
L 150.673428 223.457775 
L 151.497047 230.73468 
L 151.908857 233.964309 
L 152.114761 234.895054 
L 152.320666 234.920646 
L 152.732476 233.761487 
L 152.938381 234.048806 
L 153.35019 236.152544 
L 153.556095 236.17839 
L 153.762 234.753851 
L 154.585619 225.759669 
L 154.791524 225.488062 
L 154.997429 226.10394 
L 155.409238 229.033133 
L 156.438762 238.254582 
L 157.056477 241.310943 
L 157.674191 243.433786 
L 158.086001 244.209537 
L 158.703715 244.715472 
L 159.321429 244.963117 
L 159.527334 244.818636 
L 159.733239 244.381576 
L 160.556858 241.762518 
L 160.762763 241.817273 
L 161.174572 242.643707 
L 161.586382 243.892634 
L 162.204096 246.128316 
L 162.410001 245.315808 
L 162.615906 242.751172 
L 163.23362 228.176212 
L 163.851335 214.808385 
L 164.05724 213.966184 
L 164.469049 216.101881 
L 164.674954 212.979204 
L 164.880859 207.766499 
L 165.086764 207.968257 
L 165.292668 220.207225 
L 165.910383 282.297774 
L 166.322192 303.506239 
L 167.145812 375.90505 
L 167.351716 376.318041 
L 167.763526 370.731461 
L 168.175336 374.441145 
L 168.38124 373.93268 
L 168.79305 362.667549 
L 169.20486 353.711595 
L 169.410764 353.689268 
L 169.822574 355.949577 
L 170.234383 356.409897 
L 170.440288 357.363849 
L 170.646193 357.533635 
L 170.852098 353.926461 
L 171.469812 330.246246 
L 171.675717 337.908298 
L 172.705241 429.92414 
L 172.911146 426.298138 
L 173.117051 406.07765 
L 173.734765 323.440993 
L 173.94067 318.597809 
L 174.146575 320.141387 
L 174.352479 319.916046 
L 174.558384 315.060691 
L 175.793813 263.985726 
L 176.205623 238.083749 
L 176.411527 232.153003 
L 176.617432 232.299428 
L 176.823337 233.428792 
L 177.029242 229.598896 
L 177.441051 202.588378 
L 177.852861 174.505984 
L 178.058766 168.622795 
L 178.264671 168.745422 
L 178.470575 173.601349 
L 179.294195 204.51668 
L 179.500099 201.50249 
L 180.323718 159.193081 
L 180.529623 158.754366 
L 180.941433 169.069064 
L 182.176862 206.284745 
L 183.000481 223.752878 
L 183.618195 234.078157 
L 183.8241 233.827976 
L 184.030005 228.883288 
L 184.441814 205.635389 
L 184.853624 182.855865 
L 185.059529 178.184492 
L 185.265434 178.566847 
L 185.677243 189.66491 
L 186.089053 200.924673 
L 186.294958 202.077835 
L 186.500862 201.04697 
L 186.706767 200.653402 
L 186.912672 203.052987 
L 187.942196 228.093472 
L 188.55991 266.496256 
L 188.765815 271.606936 
L 189.177625 274.847487 
L 189.383529 275.86345 
L 189.589434 275.801017 
L 190.001244 274.285274 
L 190.207149 275.602569 
L 190.618958 283.572934 
L 191.030768 291.909476 
L 191.236673 294.134215 
L 191.442577 294.420219 
L 191.648482 292.513802 
L 192.266197 282.012996 
L 192.472101 281.197305 
L 192.678006 281.454891 
L 192.883911 281.093943 
L 193.089816 279.068992 
L 193.501625 273.057122 
L 193.70753 272.307536 
L 193.913435 274.018419 
L 194.11934 276.830607 
L 194.325245 277.933686 
L 194.531149 274.424636 
L 194.942959 251.628405 
L 195.354769 227.526333 
L 195.560673 224.371008 
L 195.766578 228.51722 
L 196.178388 241.47231 
L 196.384293 238.664135 
L 197.207912 201.561513 
L 197.413817 201.154121 
L 197.825626 202.893902 
L 198.031531 205.264999 
L 198.44334 216.92071 
L 199.26696 244.743419 
L 199.884674 256.052982 
L 200.708293 265.910164 
L 200.914198 267.032255 
L 201.120103 266.913296 
L 201.531912 263.631749 
L 201.943722 260.891541 
L 202.149627 261.077769 
L 203.385056 267.583572 
L 203.796865 270.740256 
L 204.00277 268.438051 
L 204.208675 260.179988 
L 205.238199 193.1092 
L 205.444104 192.793319 
L 205.650008 196.098355 
L 206.267723 215.44941 
L 206.885437 232.484166 
L 207.297247 238.376463 
L 208.120866 246.169729 
L 208.532675 248.21237 
L 209.15039 249.538587 
L 209.974009 251.284472 
L 210.385819 253.753186 
L 210.797628 256.561962 
L 211.003533 256.153136 
L 211.209438 253.728696 
L 211.827152 242.334396 
L 212.033057 240.425571 
L 212.238962 239.675902 
L 212.444867 240.008714 
L 212.650771 241.802499 
L 213.062581 248.603459 
L 213.268486 248.679034 
L 213.474391 241.459235 
L 213.8862 202.087313 
L 214.29801 156.983695 
L 214.503915 144.46782 
L 214.709819 140.31377 
L 214.915724 142.747075 
L 215.327534 159.145981 
L 216.357058 210.968173 
L 216.768867 220.938311 
L 217.386582 230.020313 
L 217.798391 234.177354 
L 218.416106 237.224945 
L 218.827915 239.107508 
L 219.03382 239.272951 
L 219.239725 238.901258 
L 219.44563 239.03553 
L 219.857439 241.993068 
L 220.063344 239.217908 
L 220.269249 228.483656 
L 220.681058 195.713188 
L 220.886963 188.807312 
L 221.092868 191.369114 
L 222.328297 227.309758 
L 222.534202 216.032712 
L 222.946011 177.362771 
L 223.151916 167.398276 
L 223.357821 168.32424 
L 223.76963 191.568402 
L 224.18144 219.631395 
L 224.387345 226.645832 
L 224.59325 227.754851 
L 224.799154 226.957573 
L 225.005059 229.379721 
L 225.622774 251.683108 
L 225.828678 252.446273 
L 226.034583 250.538469 
L 226.240488 250.300981 
L 226.446393 253.888069 
L 226.858202 264.133563 
L 227.064107 265.456384 
L 227.681821 262.538705 
L 228.093631 263.607215 
L 228.299536 263.518581 
L 228.505441 261.95646 
L 228.91725 253.240049 
L 229.534965 238.42339 
L 229.740869 237.552646 
L 230.358584 241.844307 
L 230.564489 240.577069 
L 230.770393 240.10307 
L 230.976298 246.147076 
L 231.594013 301.101518 
L 231.799917 301.233082 
L 232.623537 234.881983 
L 232.829441 235.740867 
L 233.653061 252.51523 
L 234.06487 258.214131 
L 234.47668 260.36027 
L 234.682585 261.191085 
L 235.094394 264.18311 
L 235.300299 264.257128 
L 235.506204 261.309289 
L 236.535728 232.085429 
L 236.741632 231.352816 
L 236.947537 234.530353 
L 237.359347 257.159003 
L 237.771156 278.422573 
L 238.182966 282.8591 
L 238.388871 289.030645 
L 239.418395 341.888647 
L 239.6243 342.044429 
L 239.830204 336.736464 
L 240.036109 335.271676 
L 240.242014 346.601245 
L 240.653824 378.245802 
L 240.859728 369.865175 
L 241.065633 350.874455 
L 241.271538 345.592201 
L 241.477443 369.767821 
L 242.095157 486.214822 
L 242.301062 491.153372 
L 242.506967 483.780012 
L 242.918776 453.642159 
L 243.536491 387.039986 
L 243.742396 384.688956 
L 244.154205 405.677542 
L 244.36011 406.617704 
L 244.566015 393.373742 
L 245.183729 328.69191 
L 245.389634 321.16232 
L 245.595539 320.314274 
L 246.007348 322.190869 
L 246.213253 321.725572 
L 246.419158 320.560931 
L 246.625063 318.493833 
L 246.830967 314.668026 
L 247.654587 290.934642 
L 247.860491 289.507334 
L 248.272301 289.026584 
L 248.684111 286.928345 
L 249.50773 282.782376 
L 249.919539 281.958741 
L 250.125444 281.996361 
L 250.537254 282.4104 
L 250.743159 282.280454 
L 250.949063 281.453657 
L 251.360873 277.234351 
L 251.772683 272.288265 
L 251.978587 270.865452 
L 252.184492 270.26879 
L 252.390397 270.227754 
L 252.596302 270.476158 
L 253.008111 271.516961 
L 254.65535 278.041402 
L 254.861254 278.918211 
L 255.067159 279.305672 
L 255.273064 279.27432 
L 255.684874 279.008511 
L 255.890778 279.104056 
L 256.096683 279.061336 
L 256.302588 278.032014 
L 256.508493 274.706522 
L 256.714398 267.833375 
L 257.332112 233.645522 
L 257.538017 231.226207 
L 257.743922 242.92996 
L 258.155731 310.58451 
L 258.567541 387.813094 
L 258.773446 409.032028 
L 258.97935 415.945641 
L 259.185255 411.14795 
L 260.008874 365.465308 
L 260.214779 373.976556 
L 260.626589 397.815979 
L 260.832494 399.635608 
L 261.450208 385.572455 
L 261.656113 385.261051 
L 262.273827 389.71861 
L 262.479732 389.821944 
L 262.891542 389.239665 
L 263.097446 389.222036 
L 263.303351 388.893585 
L 263.509256 388.07061 
L 263.715161 387.962484 
L 263.921065 391.0471 
L 264.12697 399.318569 
L 264.744685 437.68278 
L 264.950589 443.616478 
L 265.156494 444.889345 
L 265.568304 442.737475 
L 265.774209 440.958822 
L 265.980113 436.819798 
L 266.391923 417.907416 
L 266.803733 397.33936 
L 267.215542 387.349999 
L 267.833257 374.355213 
L 268.039161 372.964305 
L 268.450971 375.029596 
L 268.656876 374.791306 
L 269.27459 366.66406 
L 269.480495 367.07552 
L 270.098209 379.56048 
L 270.304114 374.2919 
L 270.921829 331.788173 
L 271.127733 328.807047 
L 271.333638 329.91997 
L 271.539543 327.802104 
L 271.951353 305.578395 
L 272.363162 285.017894 
L 272.569067 282.818619 
L 272.774972 283.427876 
L 272.980876 282.373093 
L 273.186781 276.995464 
L 273.598591 261.127583 
L 273.804496 257.762787 
L 274.0104 258.502541 
L 274.216305 260.728837 
L 274.42221 261.389367 
L 274.628115 258.807665 
L 275.657639 232.416547 
L 275.863544 231.641324 
L 276.069448 231.940901 
L 276.481258 233.964297 
L 277.304877 238.773721 
L 277.716687 239.688199 
L 277.922592 239.670694 
L 278.540306 238.254145 
L 278.746211 238.683188 
L 278.952116 240.050246 
L 279.363925 245.096809 
L 280.187544 260.486039 
L 280.393449 260.582148 
L 281.011164 255.872248 
L 281.217068 255.710751 
L 282.246592 257.294935 
L 282.452497 257.821091 
L 282.658402 258.023944 
L 282.864307 257.628102 
L 283.893831 253.046025 
L 284.099735 253.163923 
L 284.71745 255.300829 
L 284.923355 255.056085 
L 285.129259 253.550786 
L 285.952879 244.571846 
L 286.364688 242.721748 
L 286.776498 237.337881 
L 287.188307 231.306457 
L 287.394212 229.949995 
L 287.600117 230.030979 
L 287.806022 231.572301 
L 288.217831 237.102045 
L 288.423736 237.428663 
L 288.629641 232.973347 
L 289.041451 216.629464 
L 289.247355 216.797526 
L 289.45326 227.938788 
L 290.070975 277.493183 
L 291.306403 333.381078 
L 291.512308 334.866848 
L 291.718213 332.060906 
L 292.130022 318.05899 
L 292.747737 284.197887 
L 292.953642 284.916692 
L 293.159546 302.992675 
L 293.571356 384.498825 
L 293.983166 471.405767 
L 294.18907 494.812901 
L 294.394975 499.141383 
L 294.60088 488.490376 
L 295.218594 433.78475 
L 295.630404 369.667494 
L 296.042214 292.565914 
L 296.248118 269.387133 
L 296.454023 260.670359 
L 296.659928 262.014662 
L 297.071738 270.432695 
L 297.277642 271.756579 
L 297.483547 271.978358 
L 297.689452 272.494461 
L 298.101262 274.689069 
L 298.307166 274.734377 
L 298.718976 272.641642 
L 298.924881 273.59541 
L 299.130786 277.90259 
L 299.954405 305.376727 
L 300.16031 307.50412 
L 300.366214 308.160023 
L 300.572119 308.375113 
L 300.778024 308.838504 
L 301.189833 311.409361 
L 302.013453 317.641061 
L 302.219357 318.097696 
L 302.425262 316.587869 
L 302.631167 311.820193 
L 303.660691 270.669943 
L 304.072501 266.344512 
L 304.278405 265.921638 
L 304.48431 266.61473 
L 304.89612 270.883605 
L 305.102025 273.232039 
L 305.307929 274.270031 
L 305.513834 272.696891 
L 305.719739 267.719886 
L 306.543358 238.989036 
L 306.749263 237.514308 
L 306.955168 238.102443 
L 307.366977 241.852834 
L 308.602406 255.81054 
L 309.426025 261.372152 
L 309.63193 262.192157 
L 309.837835 262.542484 
L 310.455549 262.690659 
L 311.073264 263.4779 
L 311.279168 263.465994 
L 312.102788 262.831725 
L 312.926407 263.156417 
L 313.338216 262.984343 
L 313.750026 262.743245 
L 314.161836 262.859247 
L 314.36774 262.939981 
L 314.573645 262.866059 
L 315.19136 262.284965 
L 315.809074 262.779424 
L 316.014979 262.512534 
L 316.632693 261.032513 
L 317.044503 260.661812 
L 317.456312 260.554209 
L 317.662217 260.601076 
L 317.868122 260.825024 
L 318.279932 261.873199 
L 318.897646 263.338876 
L 319.103551 263.409078 
L 319.309456 262.776903 
L 319.51536 260.98791 
L 320.544884 246.500756 
L 320.750789 245.863081 
L 320.956694 245.91443 
L 321.368503 247.30626 
L 322.192123 251.088161 
L 322.603932 257.878592 
L 323.427551 275.904738 
L 323.633456 278.037096 
L 323.839361 277.697089 
L 324.045266 274.328988 
L 325.07479 243.017441 
L 325.280695 242.032212 
L 325.486599 244.411472 
L 326.310219 266.621188 
L 326.516123 265.582529 
L 327.133838 257.189307 
L 327.339743 257.247203 
L 327.545647 258.471223 
L 327.957457 263.491062 
L 328.575171 273.437367 
L 328.781076 275.030423 
L 328.986981 275.635877 
L 329.192886 275.648784 
L 329.39879 275.510723 
L 329.604695 275.597508 
L 330.22241 276.705615 
L 330.428314 275.487937 
L 330.634219 272.30411 
L 331.046029 259.880487 
L 331.457838 245.643432 
L 331.663743 241.363348 
L 331.869648 240.041673 
L 332.281458 241.899322 
L 332.487362 240.450056 
L 332.899172 227.836317 
L 333.310982 214.662657 
L 333.516886 211.736307 
L 333.722791 210.887552 
L 333.928696 211.486898 
L 334.134601 213.354158 
L 334.54641 220.37801 
L 335.164125 230.954409 
L 335.781839 236.988173 
L 336.193649 238.886264 
L 336.605458 239.588544 
L 337.429078 242.035218 
L 337.634982 241.784241 
L 337.840887 240.911652 
L 338.252697 237.889675 
L 338.870411 231.443221 
L 339.076316 229.236403 
L 339.282221 228.365463 
L 339.488125 230.000622 
L 339.899935 241.248513 
L 340.517649 258.885556 
L 340.929459 270.536727 
L 341.341269 282.619216 
L 341.547173 277.817774 
L 342.164888 232.409751 
L 342.370793 231.09488 
L 342.988507 248.354272 
L 343.400317 251.977939 
L 344.223936 263.708372 
L 344.635745 265.533673 
L 345.459365 268.877554 
L 346.077079 271.115326 
L 346.694793 272.422737 
L 347.312508 273.406699 
L 347.724317 273.852085 
L 348.547936 275.176854 
L 348.753841 275.178283 
L 348.959746 274.649583 
L 349.165651 273.278829 
L 349.783365 265.27307 
L 350.40108 257.92696 
L 350.606984 256.898103 
L 350.812889 257.325808 
L 351.430604 261.671153 
L 351.636508 261.269973 
L 352.048318 257.716608 
L 352.666032 252.311105 
L 352.871937 251.774756 
L 353.077842 252.083078 
L 353.489652 254.429854 
L 353.901461 256.719825 
L 354.313271 257.578151 
L 354.72508 258.236511 
L 355.754604 261.34426 
L 355.960509 261.392485 
L 356.578224 261.19124 
L 356.990033 261.658243 
L 357.401843 262.26423 
L 357.813652 262.463652 
L 358.637271 262.393865 
L 359.049081 262.223739 
L 359.254986 262.431502 
L 359.460891 262.820433 
L 359.666795 262.936183 
L 359.8727 262.079733 
L 360.078605 259.740468 
L 360.902224 244.881112 
L 361.108129 243.296802 
L 361.314034 242.696008 
L 361.519939 242.74882 
L 361.725843 243.295698 
L 362.137653 245.654572 
L 362.755367 249.509017 
L 363.990796 254.259436 
L 364.196701 254.090547 
L 364.402606 254.697681 
L 364.608511 256.944392 
L 365.226225 266.755634 
L 365.43213 267.26013 
L 365.638035 265.705557 
L 365.843939 262.015193 
L 366.255749 248.856406 
L 366.667558 235.288086 
L 366.873463 232.140508 
L 367.079368 232.298835 
L 367.697082 238.755855 
L 367.902987 237.744371 
L 368.314797 234.27126 
L 368.520702 234.169948 
L 369.344321 237.627334 
L 369.962035 238.42579 
L 370.57975 239.132256 
L 371.815178 241.270813 
L 372.226988 241.832645 
L 372.638798 242.657392 
L 372.844702 242.60669 
L 373.050607 241.388856 
L 373.256512 238.460904 
L 374.080131 220.76884 
L 374.286036 219.482674 
L 374.491941 219.72732 
L 374.90375 222.496701 
L 375.933274 230.822742 
L 376.345084 232.95838 
L 376.550989 233.594869 
L 376.756893 233.447234 
L 376.962798 232.18068 
L 377.580513 226.03067 
L 377.786417 225.326911 
L 377.992322 225.2775 
L 378.404132 225.474477 
L 378.815941 225.455835 
L 379.227751 225.726031 
L 380.257275 226.599404 
L 380.669085 226.627222 
L 381.698609 226.04344 
L 382.316323 225.242624 
L 382.728133 225.123576 
L 383.139942 224.58427 
L 383.345847 224.804456 
L 383.757657 227.164169 
L 383.963561 227.141516 
L 384.169466 223.959238 
L 384.581276 206.155021 
L 385.19899 174.547669 
L 385.404895 169.654251 
L 385.6108 168.207657 
L 385.816704 169.48632 
L 386.228514 176.901856 
L 387.052133 194.71315 
L 387.669848 203.540029 
L 388.081657 207.172827 
L 388.287562 207.235605 
L 388.493467 205.971657 
L 389.111181 200.847529 
L 389.317086 200.866426 
L 389.728896 203.252768 
L 390.75842 210.387808 
L 391.170229 212.030715 
L 391.787944 213.591157 
L 392.199753 214.131544 
L 392.611563 214.437751 
L 393.023372 215.098805 
L 394.464706 218.154595 
L 394.876515 218.431929 
L 395.49423 218.580197 
L 396.111944 218.456642 
L 396.523754 218.766713 
L 396.729659 218.461519 
L 396.935563 217.134591 
L 397.347373 210.80527 
L 397.759183 203.527723 
L 397.965087 201.442949 
L 398.170992 200.702006 
L 398.376897 200.989038 
L 398.994611 203.150311 
L 399.818231 204.300186 
L 401.053659 207.767326 
L 401.465469 209.161035 
L 401.671374 209.131678 
L 401.877279 208.786365 
L 402.083183 208.853601 
L 402.494993 210.481084 
L 402.700898 208.612249 
L 402.906803 201.642915 
L 403.936326 142.469093 
L 404.142231 141.086713 
L 404.348136 142.695044 
L 404.759946 151.035134 
L 405.583565 170.836225 
L 406.201279 180.217069 
L 406.613089 183.787241 
L 407.642613 189.524992 
L 407.848518 188.999354 
L 408.054422 187.090004 
L 408.878042 175.890414 
L 409.083946 174.865214 
L 409.289851 174.622446 
L 409.495756 174.900963 
L 409.907566 176.497065 
L 411.142994 183.116747 
L 411.760709 185.211333 
L 411.966614 185.641659 
L 412.172518 185.728554 
L 412.378423 185.445938 
L 412.790233 184.470109 
L 412.996138 184.273308 
L 413.202042 184.433752 
L 413.613852 184.954287 
L 413.819757 184.40644 
L 414.025661 182.831654 
L 414.437471 177.09586 
L 415.26109 164.635692 
L 415.466995 163.000481 
L 415.6729 162.472787 
L 415.878805 163.050471 
L 416.290614 166.489032 
L 416.702424 169.829457 
L 417.114233 171.222191 
L 417.320138 173.401212 
L 417.731948 185.044346 
L 418.349662 204.49342 
L 418.967377 217.26502 
L 419.790996 224.145059 
L 419.996901 224.56417 
L 420.202805 221.892123 
L 420.82052 205.67734 
L 421.026425 205.811283 
L 421.438234 216.364588 
L 422.055949 233.084718 
L 422.673663 243.691322 
L 423.085472 247.79735 
L 423.497282 250.265309 
L 424.114996 256.098996 
L 424.320901 256.414921 
L 424.526806 255.450443 
L 424.938616 252.015469 
L 425.14452 251.385217 
L 425.350425 253.250676 
L 425.55633 258.764957 
L 426.174044 286.160514 
L 426.379949 289.312702 
L 426.585854 287.455364 
L 426.997664 281.8754 
L 427.203568 283.874076 
L 427.615378 290.620265 
L 427.821283 289.854648 
L 428.233092 283.567784 
L 428.438997 282.728531 
L 428.850807 284.733585 
L 429.056712 284.500164 
L 429.468521 281.858657 
L 429.674426 281.30181 
L 429.880331 281.52934 
L 430.29214 282.398804 
L 430.498045 282.44947 
L 430.909855 282.296916 
L 431.321664 282.277728 
L 431.527569 281.740595 
L 432.557093 276.03472 
L 432.762998 273.943512 
L 433.792522 256.166248 
L 434.204331 233.317833 
L 434.616141 207.582018 
L 434.822046 200.63717 
L 435.027951 198.279369 
L 435.233855 198.915841 
L 436.469284 210.464415 
L 436.675189 210.795609 
L 437.292903 208.347281 
L 437.498808 209.832033 
L 437.910618 214.004497 
L 438.116523 210.625964 
L 438.322427 200.240819 
L 439.146047 141.85585 
L 439.351951 139.588896 
L 439.557856 142.354351 
L 439.969666 156.024827 
L 440.793285 188.489388 
L 441.410999 203.215037 
L 442.028714 213.20222 
L 442.440523 217.348878 
L 442.646428 218.462614 
L 442.852333 218.539652 
L 443.470047 215.622542 
L 443.675952 216.124421 
L 444.499571 221.046445 
L 445.32319 222.929115 
L 446.14681 225.614591 
L 446.352714 225.608555 
L 446.558619 224.85748 
L 446.764524 223.307583 
L 446.970429 220.849993 
L 447.382238 211.188084 
L 447.999953 188.156634 
L 448.205858 184.348499 
L 448.411762 183.662178 
L 448.823572 186.688989 
L 449.235382 190.899391 
L 451.088525 216.562217 
L 451.500334 219.350173 
L 452.735763 224.836746 
L 453.147573 225.87274 
L 453.559382 226.76717 
L 453.971192 227.891335 
L 454.177097 228.169561 
L 454.588906 228.255398 
L 454.794811 228.590909 
L 455.412525 230.548814 
L 455.61843 230.334183 
L 456.03024 228.927056 
L 456.236145 228.836978 
L 456.647954 229.601603 
L 456.853859 228.823628 
L 457.265669 223.024936 
L 457.883383 213.447701 
L 458.295193 210.761148 
L 458.501097 210.738432 
L 458.707002 211.723121 
L 459.736526 220.271656 
L 459.942431 220.545742 
L 460.148336 217.999894 
L 460.35424 210.879875 
L 461.383764 150.272372 
L 461.589669 149.422923 
L 461.795574 152.692727 
L 463.442812 196.163143 
L 464.060527 203.36039 
L 464.472336 206.037791 
L 465.090051 208.41339 
L 465.707765 210.690421 
L 466.119575 212.912286 
L 466.32548 213.008696 
L 466.531384 211.23111 
L 466.943194 201.688219 
L 467.355004 191.439621 
L 467.560908 188.986186 
L 467.766813 188.679243 
L 467.972718 190.07153 
L 468.796337 200.925435 
L 469.208147 205.558881 
L 469.414051 206.317329 
L 469.619956 205.162131 
L 470.031766 198.017615 
L 470.443575 191.934467 
L 470.64948 191.262416 
L 470.855385 191.850937 
L 471.267195 194.664973 
L 472.708528 205.969178 
L 473.326243 207.688301 
L 473.738052 208.868006 
L 474.767576 212.405926 
L 475.385291 214.10261 
L 475.591195 213.894479 
L 475.7971 212.704615 
L 476.620719 205.246839 
L 476.826624 204.942267 
L 477.032529 205.296814 
L 477.444339 207.138417 
L 478.267958 211.117835 
L 478.679767 212.462037 
L 479.091577 213.180508 
L 479.915196 214.152226 
L 480.53291 215.349158 
L 481.150625 216.551386 
L 481.35653 216.719974 
L 482.180149 216.718596 
L 482.386054 216.686378 
L 482.591958 216.39857 
L 483.003768 214.90697 
L 483.621482 212.268675 
L 484.033292 211.347006 
L 484.239197 211.304323 
L 484.651006 211.745611 
L 484.856911 212.262879 
L 485.474626 215.276838 
L 485.68053 213.913974 
L 485.886435 208.899573 
L 486.915959 165.162408 
L 487.121864 163.284829 
L 487.327769 163.198025 
L 487.533674 164.29646 
L 487.945483 169.532884 
L 488.975007 186.208635 
L 489.592721 193.0162 
L 490.210436 197.626334 
L 490.82815 200.289791 
L 491.445865 202.253435 
L 491.651769 202.449517 
L 492.063579 202.041922 
L 492.269484 202.240932 
L 492.681293 204.406546 
L 492.887198 204.142962 
L 493.093103 200.126606 
L 493.504913 177.607698 
L 493.916722 150.706669 
L 494.122627 143.07839 
L 494.328532 140.52363 
L 494.534437 142.063612 
L 494.946246 151.851706 
L 495.769865 173.65862 
L 496.38758 182.901978 
L 497.623008 194.941266 
L 497.828913 195.92673 
L 498.034818 196.277962 
L 498.240723 196.062675 
L 498.446628 195.310037 
L 499.270247 191.102658 
L 499.476152 191.154356 
L 499.682056 191.709251 
L 500.093866 193.801992 
L 500.71158 197.30996 
L 500.917485 197.753472 
L 501.12339 197.685377 
L 501.947009 196.147366 
L 502.152914 196.430926 
L 502.564724 197.997155 
L 503.388343 201.871988 
L 503.800152 203.011212 
L 504.211962 203.871748 
L 504.829676 205.508178 
L 505.035581 205.281024 
L 505.447391 202.81242 
L 505.8592 200.69453 
L 506.065105 200.944134 
L 506.888724 203.99185 
L 508.124153 206.963654 
L 508.741867 208.158951 
L 509.153677 208.748447 
L 509.565487 209.609154 
L 509.771391 209.81447 
L 510.389106 209.788088 
L 510.595011 210.318114 
L 511.00682 212.81288 
L 511.41863 215.548308 
L 511.624535 215.823984 
L 511.830439 214.99566 
L 512.654059 208.914689 
L 512.859963 208.606574 
L 513.271773 208.804302 
L 513.889487 209.354935 
L 514.507202 210.393959 
L 514.713107 210.481704 
L 515.330821 210.163269 
L 515.742631 210.423713 
L 515.948535 209.756322 
L 516.15444 207.901401 
L 516.978059 197.12273 
L 517.183964 196.334619 
L 517.389869 196.166099 
L 517.595774 196.30113 
L 517.801678 196.656789 
L 518.831202 199.987337 
L 519.448917 203.769484 
L 519.654822 199.979632 
L 519.860726 189.686015 
L 520.684346 124.724299 
L 520.89025 118.891804 
L 521.096155 118.283655 
L 521.30206 121.315858 
L 521.71387 133.647018 
L 522.537489 160.54225 
L 523.155203 172.327933 
L 523.978822 182.904013 
L 524.390632 186.651356 
L 524.596537 186.912202 
L 525.420156 184.904866 
L 525.626061 183.587366 
L 526.243775 176.941845 
L 526.44968 176.178912 
L 526.655585 176.745757 
L 527.273299 181.109328 
L 527.685109 182.566024 
L 528.302823 186.130539 
L 528.508728 185.0653 
L 528.920537 179.970141 
L 529.126442 178.867327 
L 529.538252 179.52269 
L 529.744157 178.182162 
L 530.567776 166.288533 
L 530.773681 167.082099 
L 532.832729 183.5057 
L 533.450443 186.341524 
L 534.068157 188.719818 
L 534.274062 188.865325 
L 534.479967 188.288503 
L 534.891776 185.322204 
L 535.715396 178.268026 
L 536.127205 170.802614 
L 536.74492 157.222708 
L 536.950824 155.510622 
L 537.156729 155.723142 
L 537.362634 157.492742 
L 538.598063 173.086957 
L 539.215777 176.658856 
L 541.06892 185.10073 
L 541.48073 186.220842 
L 541.89254 186.389117 
L 542.098444 186.703663 
L 542.716159 188.341584 
L 542.922064 188.44977 
L 543.127968 188.212341 
L 543.333873 187.480886 
L 543.539778 185.714342 
L 543.745683 182.066629 
L 544.157492 167.711457 
L 544.775207 145.35274 
L 544.981111 142.447649 
L 545.187016 142.005996 
L 545.392921 143.952775 
L 545.804731 152.43384 
L 546.010635 153.546404 
L 546.21654 146.822102 
L 546.62835 105.346055 
L 547.040159 59.534308 
L 547.246064 49.486583 
L 547.451969 48.646236 
L 547.863779 59.861565 
L 548.893303 95.243872 
L 549.922827 134.68632 
L 550.128731 130.948867 
L 550.952351 92.94047 
L 551.158255 92.419953 
L 551.36416 94.595771 
L 551.77597 103.63842 
L 553.217303 150.571341 
L 553.423208 154.205332 
L 553.629113 155.856609 
L 553.835018 153.721382 
L 554.040922 146.747006 
L 554.864542 108.733923 
L 555.070446 107.963491 
L 555.276351 110.516233 
L 555.894066 120.71827 
L 556.305875 122.961173 
L 556.51178 126.396337 
L 556.92359 146.005415 
L 557.335399 166.587339 
L 557.541304 169.500749 
L 557.953114 167.715629 
L 558.159018 168.875651 
L 558.570828 177.93492 
L 559.188542 193.736218 
L 559.806257 203.44185 
L 560.423971 208.957284 
L 560.835781 211.084942 
L 561.24759 212.298568 
L 562.07121 214.256707 
L 562.483019 215.023849 
L 562.894829 215.208372 
L 563.306638 215.518803 
L 563.512543 214.997686 
L 563.924353 211.30812 
L 564.336162 207.37542 
L 564.542067 206.710633 
L 564.747972 206.963935 
L 565.159781 209.164747 
L 565.777496 213.152609 
L 566.189305 214.197717 
L 566.601115 214.826614 
L 567.012925 215.756592 
L 567.218829 215.443905 
L 567.630639 212.449704 
L 568.042449 209.525497 
L 568.248353 209.181726 
L 568.454258 209.540018 
L 568.866068 211.463827 
L 569.483782 214.727499 
L 569.689687 214.21928 
L 569.895592 211.944857 
L 570.925116 192.235716 
L 571.131021 192.216379 
L 571.54283 195.316648 
L 572.366449 202.103372 
L 572.572354 203.17578 
L 572.778259 203.16463 
L 572.984164 201.667853 
L 573.395973 194.784968 
L 574.013688 183.200167 
L 574.219592 181.30946 
L 574.425497 180.959222 
L 574.631402 182.025957 
L 575.043212 186.689698 
L 575.866831 196.766512 
L 576.484545 201.805181 
L 577.514069 207.556595 
L 577.925879 208.301269 
L 578.543593 208.616176 
L 578.749498 208.835695 
L 579.367212 209.897033 
L 579.573117 208.93314 
L 579.984927 202.620275 
L 580.396736 196.045519 
L 580.602641 194.954189 
L 580.808546 195.046487 
L 581.220356 195.776228 
L 581.42626 196.025584 
L 581.632165 196.616049 
L 582.043975 199.258752 
L 582.661689 203.37317 
L 583.073499 204.91613 
L 583.691213 206.339291 
L 584.103023 206.898974 
L 584.308927 206.901534 
L 584.514832 206.783788 
L 584.720737 206.801532 
L 584.926642 207.227933 
L 585.132547 207.946217 
L 585.338451 208.071149 
L 585.544356 206.160716 
L 585.750261 201.171239 
L 586.367975 174.60251 
L 586.98569 150.328401 
L 587.191595 147.640582 
L 587.397499 150.380739 
L 588.015214 173.828166 
L 588.221119 174.983891 
L 588.427023 170.173371 
L 588.838833 155.10444 
L 589.456547 142.660994 
L 589.662452 129.955213 
L 590.486071 56.853058 
L 590.691976 51.536339 
L 590.897881 51.016118 
L 591.103786 53.226646 
L 591.515595 63.486156 
L 592.339214 99.298253 
L 592.751024 114.624628 
L 593.162834 123.418227 
L 593.780548 129.658706 
L 595.427786 145.882535 
L 595.633691 146.536037 
L 595.839596 146.614374 
L 596.045501 147.484235 
L 596.251406 150.617052 
L 596.663215 159.768598 
L 596.86912 160.427614 
L 597.075025 159.872555 
L 597.28093 165.215215 
L 597.898644 207.960559 
L 598.104549 190.397601 
L 598.722263 70.245407 
L 598.928168 58.327962 
L 599.134073 65.998504 
L 599.751787 110.554075 
L 600.369501 124.171882 
L 600.781311 137.866358 
L 600.987216 138.780623 
L 601.60493 128.634221 
L 601.810835 130.572524 
L 602.01674 137.643694 
L 602.840359 185.641731 
L 603.046264 182.972929 
L 603.458073 151.323907 
L 603.869883 120.947802 
L 604.075788 122.583113 
L 604.693502 160.108443 
L 604.899407 160.645971 
L 605.311217 148.988033 
L 605.517121 148.727809 
L 605.723026 156.46797 
L 606.134836 178.839892 
L 606.340741 180.60265 
L 607.16436 159.541528 
L 607.370265 161.483666 
L 607.782074 166.975019 
L 607.987979 167.369513 
L 608.193884 166.741812 
L 608.399789 168.651782 
L 608.605693 177.254754 
L 609.223408 226.381777 
L 609.429312 231.370092 
L 609.635217 228.524861 
L 610.047027 219.915875 
L 610.252932 219.959342 
L 611.076551 226.933264 
L 611.48836 237.286914 
L 611.90017 247.004846 
L 612.723789 255.909336 
L 612.929694 257.22405 
L 613.135599 257.216745 
L 613.547408 255.493373 
L 613.753313 255.885492 
L 613.959218 257.957905 
L 614.371028 264.162353 
L 614.576932 265.554095 
L 614.988742 264.944472 
L 615.194647 266.757046 
L 615.606456 279.458213 
L 616.224171 301.503201 
L 616.63598 308.329678 
L 616.841885 309.303398 
L 617.253695 309.446212 
L 617.871409 311.442488 
L 618.077314 310.990546 
L 618.489124 308.915117 
L 618.900933 308.056309 
L 619.106838 306.855131 
L 619.930457 297.073209 
L 620.136362 297.156654 
L 620.342267 298.646458 
L 620.959981 306.256594 
L 621.165886 305.195518 
L 621.577695 297.368433 
L 621.7836 298.269879 
L 622.401315 317.216542 
L 622.607219 311.110615 
L 623.019029 290.090254 
L 623.224934 287.345023 
L 623.430839 290.938529 
L 623.842648 302.956731 
L 624.048553 305.460505 
L 624.254458 304.350584 
L 624.872172 292.936127 
L 625.078077 292.181001 
L 625.283982 294.207005 
L 625.901696 305.591127 
L 626.107601 306.51759 
L 626.313506 305.890273 
L 627.548935 299.855158 
L 627.754839 299.778842 
L 628.372554 301.068524 
L 628.578458 300.926448 
L 628.990268 300.272111 
L 629.196173 300.212362 
L 630.019792 300.81716 
L 630.431602 301.479526 
L 631.255221 303.172662 
L 631.872935 304.058925 
L 632.284745 304.19332 
L 632.902459 304.038403 
L 633.314269 304.560604 
L 633.931983 305.395383 
L 634.755602 306.018024 
L 635.579222 306.273806 
L 636.608746 307.240533 
L 637.844174 307.400634 
L 638.050079 307.057793 
L 638.667793 304.891643 
L 638.873698 304.823931 
L 639.491413 306.316029 
L 639.697317 305.983842 
L 640.109127 302.978284 
L 640.315032 301.332851 
L 640.520937 300.71453 
L 640.726841 301.541847 
L 641.344556 306.383296 
L 641.550461 306.178295 
L 642.37408 302.268564 
L 642.579985 302.586607 
L 642.991794 305.052251 
L 643.609509 309.131761 
L 644.021318 310.869773 
L 644.227223 311.255833 
L 644.433128 311.10453 
L 644.844937 310.38128 
L 645.050842 310.562503 
L 645.256747 310.927851 
L 645.462652 310.935239 
L 645.668557 310.293665 
L 646.080366 308.255196 
L 646.286271 307.823972 
L 646.492176 308.020902 
L 646.903985 308.937007 
L 647.10989 308.714053 
L 647.5217 307.349001 
L 647.727604 307.674185 
L 647.933509 309.167586 
L 648.345319 314.825124 
L 648.757128 326.0956 
L 649.168938 335.712894 
L 649.374843 334.107885 
L 649.992557 319.425954 
L 650.404367 316.265502 
L 651.022081 313.201923 
L 651.227986 313.117035 
L 651.433891 313.392897 
L 651.639796 313.867908 
L 652.051605 315.799834 
L 652.463415 317.839412 
L 652.66932 317.342316 
L 653.081129 314.702229 
L 653.287034 315.05203 
L 653.698844 317.460054 
L 653.904748 316.275995 
L 654.522463 309.014308 
L 654.728368 308.667182 
L 654.934272 308.649183 
L 655.551987 308.009919 
L 655.757892 307.373827 
L 655.963796 305.283402 
L 656.375606 295.293592 
L 656.787415 284.141067 
L 656.99332 281.099911 
L 657.199225 280.116602 
L 657.40513 280.858534 
L 657.816939 285.716335 
L 658.846463 300.349064 
L 659.670083 307.435088 
L 660.081892 309.105874 
L 660.493702 309.381923 
L 660.699607 309.848646 
L 661.317321 312.393351 
L 661.523226 312.701504 
L 661.729131 312.493045 
L 662.14094 310.972103 
L 662.55275 309.326463 
L 662.758655 308.867666 
L 662.964559 308.726557 
L 663.170464 308.865218 
L 663.582274 309.634246 
L 663.994083 310.87673 
L 664.817703 314.10599 
L 665.847226 316.353081 
L 666.259036 316.735831 
L 666.670846 316.845151 
L 666.87675 316.619671 
L 667.28856 315.236316 
L 667.494465 314.533344 
L 667.70037 314.322078 
L 667.906274 314.514818 
L 668.112179 314.282993 
L 668.318084 312.484653 
L 669.141703 298.054648 
L 669.553513 298.875569 
L 669.759418 296.497394 
L 669.965322 289.079739 
L 670.994846 225.366985 
L 671.200751 222.648039 
L 671.406656 223.708045 
L 671.818466 231.959514 
L 672.230275 240.437061 
L 672.642085 244.972055 
L 673.053894 249.161311 
L 673.877514 260.805801 
L 674.701133 263.910873 
L 675.936561 274.678308 
L 676.142466 275.098224 
L 676.348371 274.628168 
L 676.760181 272.834587 
L 676.966085 272.49006 
L 677.17199 272.648762 
L 677.5838 273.403318 
L 677.789705 273.472185 
L 677.995609 273.07543 
L 678.819229 269.482888 
L 679.231038 270.579715 
L 679.436943 270.372248 
L 679.642848 268.596612 
L 680.672372 253.858658 
L 681.290086 248.73788 
L 681.495991 249.215159 
L 681.907801 252.652471 
L 682.113705 252.176145 
L 682.31961 248.937508 
L 682.937325 235.613471 
L 683.143229 234.876908 
L 683.349134 235.956638 
L 684.584563 246.841184 
L 684.996372 248.193377 
L 685.202277 248.330192 
L 685.614087 247.891939 
L 685.819992 248.588131 
L 686.025896 250.876038 
L 686.643611 260.68881 
L 687.46723 265.715652 
L 688.290849 274.164137 
L 688.702659 275.39071 
L 689.114468 275.940644 
L 691.379421 281.746944 
L 691.585326 281.853159 
L 691.791231 281.200735 
L 692.408945 276.209789 
L 692.61485 276.019632 
L 693.02666 278.714186 
L 693.438469 280.914033 
L 694.056183 282.703998 
L 694.673898 284.761916 
L 694.879803 285.054888 
L 695.291612 285.152762 
L 695.497517 285.213543 
L 695.703422 285.512448 
L 696.115231 286.902379 
L 696.732946 288.913475 
L 697.35066 291.00578 
L 697.76247 292.831856 
L 697.968375 293.218843 
L 698.174279 292.090774 
L 698.380184 288.475351 
L 699.409708 258.258376 
L 699.615613 257.516759 
L 699.821518 258.228371 
L 700.233327 261.702817 
L 701.262851 272.96894 
L 701.468756 274.002509 
L 701.674661 274.4106 
L 702.086471 274.63692 
L 702.292375 275.094627 
L 702.704185 276.86182 
L 703.939614 282.871389 
L 704.763233 283.830065 
L 705.175042 284.583196 
L 705.586852 284.963255 
L 705.998662 285.890059 
L 706.410471 286.757598 
L 707.028186 287.621229 
L 707.23409 287.907818 
L 707.439995 287.957629 
L 707.851805 287.82514 
L 708.05771 288.255477 
L 708.881329 291.435023 
L 709.293138 291.743544 
L 709.499043 291.728833 
L 709.910853 291.247316 
L 710.116758 290.998682 
L 710.322662 290.943143 
L 710.940377 291.361801 
L 711.352186 291.186647 
L 711.558091 291.074666 
L 711.763996 291.104059 
L 711.969901 291.337044 
L 712.38171 292.317781 
L 712.999425 293.827638 
L 713.205329 293.988355 
L 713.823044 294.058296 
L 714.234853 294.628465 
L 715.058473 296.024115 
L 715.470282 296.419061 
L 716.293901 296.944689 
L 716.705711 297.604471 
L 716.911616 297.725885 
L 717.117521 297.587144 
L 717.52933 296.9328 
L 717.735235 296.47912 
L 717.94114 295.734172 
L 718.147045 294.468627 
L 718.558854 289.862046 
L 718.970664 284.833754 
L 719.176569 283.801262 
L 719.588378 283.590534 
L 720.000188 282.540793 
L 720.206093 282.485905 
L 720.411997 283.329498 
L 720.823807 285.915134 
L 721.029712 285.866065 
L 721.235617 284.174396 
L 721.853331 275.31688 
L 722.059236 273.95893 
L 722.26514 273.680505 
L 722.67695 274.334633 
L 723.08876 275.39741 
L 723.706474 278.638627 
L 723.912379 278.632405 
L 724.118284 278.246039 
L 724.324188 279.209894 
L 724.530093 283.299321 
L 724.941903 297.011851 
L 725.147808 299.46832 
L 725.353712 295.802661 
L 726.383236 255.453851 
L 726.589141 251.524398 
L 726.795046 252.003704 
L 727.41276 266.780758 
L 727.618665 262.332614 
L 728.442284 221.650066 
L 728.648189 218.644177 
L 728.854094 217.553763 
L 729.059999 217.431979 
L 729.265904 218.061527 
L 729.677713 221.722359 
L 731.119047 239.429111 
L 731.942666 245.142664 
L 732.766285 250.293458 
L 733.178095 251.906992 
L 734.619428 255.126117 
L 734.825333 255.49628 
L 735.031238 255.611976 
L 735.237143 255.389281 
L 735.854857 254.032387 
L 736.060762 254.035727 
L 736.266667 254.367524 
L 736.678476 255.706682 
L 738.11981 261.775855 
L 739.561143 264.506635 
L 740.178858 265.233303 
L 740.384762 266.655113 
L 740.796572 271.859721 
L 741.002477 272.858952 
L 741.208382 271.178468 
L 741.826096 261.954519 
L 742.032001 261.633739 
L 742.237906 262.075173 
L 742.44381 262.178186 
L 742.649715 261.389082 
L 743.061525 258.773369 
L 743.26743 259.124973 
L 743.473334 261.732981 
L 743.885144 270.009296 
L 744.091049 271.762397 
L 744.296954 270.813889 
L 744.708763 267.456194 
L 744.914668 268.308292 
L 745.326478 272.407375 
L 745.532382 272.864078 
L 745.944192 271.602283 
L 746.150097 271.878854 
L 746.767811 274.566366 
L 747.797335 276.288057 
L 748.620954 277.881847 
L 748.826859 277.827235 
L 749.238669 277.246727 
L 749.444574 277.211064 
L 749.650478 277.510035 
L 750.062288 278.36855 
L 750.268193 278.219833 
L 750.474097 277.376606 
L 751.091812 273.987264 
L 751.297717 274.332721 
L 751.709526 277.822915 
L 752.121336 281.498247 
L 752.327241 282.151925 
L 752.533145 281.825002 
L 753.15086 279.145561 
L 753.356765 279.220385 
L 754.180384 281.262974 
L 754.386289 281.172783 
L 755.004003 279.673419 
L 755.209908 279.816708 
L 756.033527 282.583607 
L 756.239432 282.611177 
L 756.857146 281.868725 
L 757.063051 282.077354 
L 757.474861 282.661534 
L 757.88667 282.202757 
L 758.092575 282.625442 
L 758.504385 285.292155 
L 758.710289 285.659146 
L 758.916194 284.52729 
L 759.328004 281.159935 
L 759.533908 280.809918 
L 759.945718 281.911889 
L 760.769337 284.401974 
L 760.975242 283.816223 
L 761.181147 282.886338 
L 761.387052 282.529395 
L 761.592956 283.207103 
L 762.210671 286.590977 
L 762.62248 287.259859 
L 762.828385 287.358216 
L 763.240195 287.351285 
L 763.4461 287.778115 
L 763.857909 289.323034 
L 764.063814 289.22232 
L 764.681528 286.153481 
L 764.887433 286.222967 
L 765.711052 288.355023 
L 766.328767 288.979114 
L 766.946481 289.410594 
L 767.564196 290.299393 
L 767.976005 290.802566 
L 768.387815 291.068522 
L 768.593719 291.304291 
L 768.799624 291.154696 
L 769.005529 289.991444 
L 769.623243 283.03845 
L 769.829148 282.353146 
L 770.035053 282.662862 
L 770.446863 283.736004 
L 770.652767 283.927895 
L 770.858672 283.776885 
L 771.064577 282.977147 
L 771.270482 281.154134 
L 772.505911 264.729964 
L 772.711815 264.876648 
L 772.91772 266.707871 
L 773.535435 276.556163 
L 773.741339 277.504444 
L 774.153149 276.909334 
L 774.359054 277.460182 
L 774.976768 281.027674 
L 775.800387 282.919755 
L 776.418102 286.479092 
L 776.624007 286.671517 
L 776.829911 285.563771 
L 777.241721 282.6612 
L 777.447626 285.037549 
L 778.06534 302.442967 
L 778.271245 299.687657 
L 778.888959 275.970328 
L 779.094864 273.924944 
L 779.300769 274.749536 
L 779.712578 277.642129 
L 779.918483 278.241111 
L 780.124388 278.396018 
L 780.742102 278.317905 
L 780.948007 278.737207 
L 781.359817 280.645672 
L 781.771626 282.82373 
L 781.977531 282.845431 
L 782.183436 281.326443 
L 782.80115 273.779297 
L 783.007055 274.268474 
L 783.62477 278.908993 
L 783.830674 280.340511 
L 784.242484 287.438838 
L 784.654294 295.154631 
L 784.860198 295.589369 
L 785.066103 293.076924 
L 786.095627 270.093757 
L 786.507437 268.506286 
L 786.919246 267.267892 
L 787.536961 265.132397 
L 787.742865 264.654278 
L 787.94877 264.519903 
L 788.154675 264.885784 
L 788.566485 266.782779 
L 789.390104 270.747034 
L 790.213723 274.507654 
L 790.419628 274.380502 
L 790.625533 273.823396 
L 790.831437 273.719451 
L 791.037342 274.673143 
L 791.655057 278.997429 
L 791.860961 279.144556 
L 792.066866 279.052827 
L 792.272771 279.234833 
L 792.684581 280.671913 
L 793.09639 281.89698 
L 793.5082 282.29586 
L 793.920009 282.689756 
L 794.331819 283.134239 
L 794.537724 283.10172 
L 794.743629 282.727713 
L 795.155438 280.970025 
L 795.567248 279.022953 
L 795.773153 278.453912 
L 795.979057 278.216166 
L 796.184962 278.28079 
L 796.390867 278.628287 
L 797.008581 280.367399 
L 797.214486 280.593139 
L 797.626296 280.563377 
L 797.8322 280.703008 
L 798.038105 281.103018 
L 798.449915 282.62716 
L 798.861724 284.36606 
L 799.273534 285.172048 
L 799.685344 285.714942 
L 800.303058 287.085016 
L 800.508963 287.170154 
L 800.920772 287.196599 
L 801.126677 287.516404 
L 801.950296 289.775579 
L 802.156201 289.742465 
L 802.568011 289.023189 
L 802.773916 289.021524 
L 803.39163 290.461934 
L 803.597535 290.310363 
L 804.009344 289.385793 
L 804.421154 289.106007 
L 804.627059 288.934678 
L 805.244773 287.66581 
L 805.450678 287.66246 
L 805.862487 288.136345 
L 806.068392 287.995853 
L 806.274297 287.296949 
L 806.686107 284.177095 
L 807.509726 276.608134 
L 807.715631 276.100924 
L 807.921535 276.363984 
L 808.333345 278.317761 
L 809.362869 283.527542 
L 809.980583 285.851459 
L 810.598298 287.390161 
L 810.804203 287.594377 
L 811.010107 287.512779 
L 811.627822 286.676737 
L 811.833727 286.769736 
L 812.451441 287.51705 
L 812.863251 287.885856 
L 813.892775 290.071488 
L 814.304584 290.527549 
L 816.157727 294.004758 
L 816.157727 294.004758 
" clip-path="url(#pdc2064b7ff)" style="fill: none; stroke: #0000ff; stroke-linecap: square"/>
   </g>
   <g id="matplotlib.axis_1">
    <g id="xtick_1">
     <g id="line2d_2">
      <path d="M 75.312273 534.04 
L 75.312273 25.69875 
" clip-path="url(#pdc2064b7ff)" style="fill: none; stroke: #b0b0b0; stroke-opacity: 0.3; stroke-width: 0.8; stroke-linecap: square"/>
     </g>
     <g id="line2d_3">
      <defs>
       <path id="m942cc5c686" d="M 0 0 
L 0 3.5 
" style="stroke: #000000; stroke-width: 0.8"/>
      </defs>
      <g>
       <use xlink:href="#m942cc5c686" x="75.312273" y="534.04" style="stroke: #000000; stroke-width: 0.8"/>
      </g>
     </g>
     <g id="text_1">
      <!-- 0 -->
      <g transform="translate(72.131023 548.638438) scale(0.1 -0.1)">
       <defs>
        <path id="DejaVuSans-30" d="M 2034 4250 
Q 1547 4250 1301 3770 
Q 1056 3291 1056 2328 
Q 1056 1369 1301 889 
Q 1547 409 2034 409 
Q 2525 409 2770 889 
Q 3016 1369 3016 2328 
Q 3016 3291 2770 3770 
Q 2525 4250 2034 4250 
z
M 2034 4750 
Q 2819 4750 3233 4129 
Q 3647 3509 3647 2328 
Q 3647 1150 3233 529 
Q 2819 -91 2034 -91 
Q 1250 -91 836 529 
Q 422 1150 422 2328 
Q 422 3509 836 4129 
Q 1250 4750 2034 4750 
z
" transform="scale(0.015625)"/>
       </defs>
       <use xlink:href="#DejaVuSans-30"/>
      </g>
     </g>
    </g>
    <g id="xtick_2">
     <g id="line2d_4">
      <path d="M 174.091667 534.04 
L 174.091667 25.69875 
" clip-path="url(#pdc2064b7ff)" style="fill: none; stroke: #b0b0b0; stroke-opacity: 0.3; stroke-width: 0.8; stroke-linecap: square"/>
     </g>
     <g id="line2d_5">
      <g>
       <use xlink:href="#m942cc5c686" x="174.091667" y="534.04" style="stroke: #000000; stroke-width: 0.8"/>
      </g>
     </g>
     <g id="text_2">
      <!-- 2 -->
      <g transform="translate(170.910417 548.638438) scale(0.1 -0.1)">
       <defs>
        <path id="DejaVuSans-32" d="M 1228 531 
L 3431 531 
L 3431 0 
L 469 0 
L 469 531 
Q 828 903 1448 1529 
Q 2069 2156 2228 2338 
Q 2531 2678 2651 2914 
Q 2772 3150 2772 3378 
Q 2772 3750 2511 3984 
Q 2250 4219 1831 4219 
Q 1534 4219 1204 4116 
Q 875 4013 500 3803 
L 500 4441 
Q 881 4594 1212 4672 
Q 1544 4750 1819 4750 
Q 2544 4750 2975 4387 
Q 3406 4025 3406 3419 
Q 3406 3131 3298 2873 
Q 3191 2616 2906 2266 
Q 2828 2175 2409 1742 
Q 1991 1309 1228 531 
z
" transform="scale(0.015625)"/>
       </defs>
       <use xlink:href="#DejaVuSans-32"/>
      </g>
     </g>
    </g>
    <g id="xtick_3">
     <g id="line2d_6">
      <path d="M 272.871061 534.04 
L 272.871061 25.69875 
" clip-path="url(#pdc2064b7ff)" style="fill: none; stroke: #b0b0b0; stroke-opacity: 0.3; stroke-width: 0.8; stroke-linecap: square"/>
     </g>
     <g id="line2d_7">
      <g>
       <use xlink:href="#m942cc5c686" x="272.871061" y="534.04" style="stroke: #000000; stroke-width: 0.8"/>
      </g>
     </g>
     <g id="text_3">
      <!-- 4 -->
      <g transform="translate(269.689811 548.638438) scale(0.1 -0.1)">
       <defs>
        <path id="DejaVuSans-34" d="M 2419 4116 
L 825 1625 
L 2419 1625 
L 2419 4116 
z
M 2253 4666 
L 3047 4666 
L 3047 1625 
L 3713 1625 
L 3713 1100 
L 3047 1100 
L 3047 0 
L 2419 0 
L 2419 1100 
L 313 1100 
L 313 1709 
L 2253 4666 
z
" transform="scale(0.015625)"/>
       </defs>
       <use xlink:href="#DejaVuSans-34"/>
      </g>
     </g>
    </g>
    <g id="xtick_4">
     <g id="line2d_8">
      <path d="M 371.650455 534.04 
L 371.650455 25.69875 
" clip-path="url(#pdc2064b7ff)" style="fill: none; stroke: #b0b0b0; stroke-opacity: 0.3; stroke-width: 0.8; stroke-linecap: square"/>
     </g>
     <g id="line2d_9">
      <g>
       <use xlink:href="#m942cc5c686" x="371.650455" y="534.04" style="stroke: #000000; stroke-width: 0.8"/>
      </g>
     </g>
     <g id="text_4">
      <!-- 6 -->
      <g transform="translate(368.469205 548.638438) scale(0.1 -0.1)">
       <defs>
        <path id="DejaVuSans-36" d="M 2113 2584 
Q 1688 2584 1439 2293 
Q 1191 2003 1191 1497 
Q 1191 994 1439 701 
Q 1688 409 2113 409 
Q 2538 409 2786 701 
Q 3034 994 3034 1497 
Q 3034 2003 2786 2293 
Q 2538 2584 2113 2584 
z
M 3366 4563 
L 3366 3988 
Q 3128 4100 2886 4159 
Q 2644 4219 2406 4219 
Q 1781 4219 1451 3797 
Q 1122 3375 1075 2522 
Q 1259 2794 1537 2939 
Q 1816 3084 2150 3084 
Q 2853 3084 3261 2657 
Q 3669 2231 3669 1497 
Q 3669 778 3244 343 
Q 2819 -91 2113 -91 
Q 1303 -91 875 529 
Q 447 1150 447 2328 
Q 447 3434 972 4092 
Q 1497 4750 2381 4750 
Q 2619 4750 2861 4703 
Q 3103 4656 3366 4563 
z
" transform="scale(0.015625)"/>
       </defs>
       <use xlink:href="#DejaVuSans-36"/>
      </g>
     </g>
    </g>
    <g id="xtick_5">
     <g id="line2d_10">
      <path d="M 470.429848 534.04 
L 470.429848 25.69875 
" clip-path="url(#pdc2064b7ff)" style="fill: none; stroke: #b0b0b0; stroke-opacity: 0.3; stroke-width: 0.8; stroke-linecap: square"/>
     </g>
     <g id="line2d_11">
      <g>
       <use xlink:href="#m942cc5c686" x="470.429848" y="534.04" style="stroke: #000000; stroke-width: 0.8"/>
      </g>
     </g>
     <g id="text_5">
      <!-- 8 -->
      <g transform="translate(467.248598 548.638438) scale(0.1 -0.1)">
       <defs>
        <path id="DejaVuSans-38" d="M 2034 2216 
Q 1584 2216 1326 1975 
Q 1069 1734 1069 1313 
Q 1069 891 1326 650 
Q 1584 409 2034 409 
Q 2484 409 2743 651 
Q 3003 894 3003 1313 
Q 3003 1734 2745 1975 
Q 2488 2216 2034 2216 
z
M 1403 2484 
Q 997 2584 770 2862 
Q 544 3141 544 3541 
Q 544 4100 942 4425 
Q 1341 4750 2034 4750 
Q 2731 4750 3128 4425 
Q 3525 4100 3525 3541 
Q 3525 3141 3298 2862 
Q 3072 2584 2669 2484 
Q 3125 2378 3379 2068 
Q 3634 1759 3634 1313 
Q 3634 634 3220 271 
Q 2806 -91 2034 -91 
Q 1263 -91 848 271 
Q 434 634 434 1313 
Q 434 1759 690 2068 
Q 947 2378 1403 2484 
z
M 1172 3481 
Q 1172 3119 1398 2916 
Q 1625 2713 2034 2713 
Q 2441 2713 2670 2916 
Q 2900 3119 2900 3481 
Q 2900 3844 2670 4047 
Q 2441 4250 2034 4250 
Q 1625 4250 1398 4047 
Q 1172 3844 1172 3481 
z
" transform="scale(0.015625)"/>
       </defs>
       <use xlink:href="#DejaVuSans-38"/>
      </g>
     </g>
    </g>
    <g id="xtick_6">
     <g id="line2d_12">
      <path d="M 569.209242 534.04 
L 569.209242 25.69875 
" clip-path="url(#pdc2064b7ff)" style="fill: none; stroke: #b0b0b0; stroke-opacity: 0.3; stroke-width: 0.8; stroke-linecap: square"/>
     </g>
     <g id="line2d_13">
      <g>
       <use xlink:href="#m942cc5c686" x="569.209242" y="534.04" style="stroke: #000000; stroke-width: 0.8"/>
      </g>
     </g>
     <g id="text_6">
      <!-- 10 -->
      <g transform="translate(562.846742 548.638438) scale(0.1 -0.1)">
       <defs>
        <path id="DejaVuSans-31" d="M 794 531 
L 1825 531 
L 1825 4091 
L 703 3866 
L 703 4441 
L 1819 4666 
L 2450 4666 
L 2450 531 
L 3481 531 
L 3481 0 
L 794 0 
L 794 531 
z
" transform="scale(0.015625)"/>
       </defs>
       <use xlink:href="#DejaVuSans-31"/>
       <use xlink:href="#DejaVuSans-30" transform="translate(63.623047 0)"/>
      </g>
     </g>
    </g>
    <g id="xtick_7">
     <g id="line2d_14">
      <path d="M 667.988636 534.04 
L 667.988636 25.69875 
" clip-path="url(#pdc2064b7ff)" style="fill: none; stroke: #b0b0b0; stroke-opacity: 0.3; stroke-width: 0.8; stroke-linecap: square"/>
     </g>
     <g id="line2d_15">
      <g>
       <use xlink:href="#m942cc5c686" x="667.988636" y="534.04" style="stroke: #000000; stroke-width: 0.8"/>
      </g>
     </g>
     <g id="text_7">
      <!-- 12 -->
      <g transform="translate(661.626136 548.638438) scale(0.1 -0.1)">
       <use xlink:href="#DejaVuSans-31"/>
       <use xlink:href="#DejaVuSans-32" transform="translate(63.623047 0)"/>
      </g>
     </g>
    </g>
    <g id="xtick_8">
     <g id="line2d_16">
      <path d="M 766.76803 534.04 
L 766.76803 25.69875 
" clip-path="url(#pdc2064b7ff)" style="fill: none; stroke: #b0b0b0; stroke-opacity: 0.3; stroke-width: 0.8; stroke-linecap: square"/>
     </g>
     <g id="line2d_17">
      <g>
       <use xlink:href="#m942cc5c686" x="766.76803" y="534.04" style="stroke: #000000; stroke-width: 0.8"/>
      </g>
     </g>
     <g id="text_8">
      <!-- 14 -->
      <g transform="translate(760.40553 548.638438) scale(0.1 -0.1)">
       <use xlink:href="#DejaVuSans-31"/>
       <use xlink:href="#DejaVuSans-34" transform="translate(63.623047 0)"/>
      </g>
     </g>
    </g>
    <g id="text_9">
     <!-- Time (minutes) -->
     <g transform="translate(407.7725 562.316563) scale(0.1 -0.1)">
      <defs>
       <path id="DejaVuSans-54" d="M -19 4666 
L 3928 4666 
L 3928 4134 
L 2272 4134 
L 2272 0 
L 1638 0 
L 1638 4134 
L -19 4134 
L -19 4666 
z
" transform="scale(0.015625)"/>
       <path id="DejaVuSans-69" d="M 603 3500 
L 1178 3500 
L 1178 0 
L 603 0 
L 603 3500 
z
M 603 4863 
L 1178 4863 
L 1178 4134 
L 603 4134 
L 603 4863 
z
" transform="scale(0.015625)"/>
       <path id="DejaVuSans-6d" d="M 3328 2828 
Q 3544 3216 3844 3400 
Q 4144 3584 4550 3584 
Q 5097 3584 5394 3201 
Q 5691 2819 5691 2113 
L 5691 0 
L 5113 0 
L 5113 2094 
Q 5113 2597 4934 2840 
Q 4756 3084 4391 3084 
Q 3944 3084 3684 2787 
Q 3425 2491 3425 1978 
L 3425 0 
L 2847 0 
L 2847 2094 
Q 2847 2600 2669 2842 
Q 2491 3084 2119 3084 
Q 1678 3084 1418 2786 
Q 1159 2488 1159 1978 
L 1159 0 
L 581 0 
L 581 3500 
L 1159 3500 
L 1159 2956 
Q 1356 3278 1631 3431 
Q 1906 3584 2284 3584 
Q 2666 3584 2933 3390 
Q 3200 3197 3328 2828 
z
" transform="scale(0.015625)"/>
       <path id="DejaVuSans-65" d="M 3597 1894 
L 3597 1613 
L 953 1613 
Q 991 1019 1311 708 
Q 1631 397 2203 397 
Q 2534 397 2845 478 
Q 3156 559 3463 722 
L 3463 178 
Q 3153 47 2828 -22 
Q 2503 -91 2169 -91 
Q 1331 -91 842 396 
Q 353 884 353 1716 
Q 353 2575 817 3079 
Q 1281 3584 2069 3584 
Q 2775 3584 3186 3129 
Q 3597 2675 3597 1894 
z
M 3022 2063 
Q 3016 2534 2758 2815 
Q 2500 3097 2075 3097 
Q 1594 3097 1305 2825 
Q 1016 2553 972 2059 
L 3022 2063 
z
" transform="scale(0.015625)"/>
       <path id="DejaVuSans-20" transform="scale(0.015625)"/>
       <path id="DejaVuSans-28" d="M 1984 4856 
Q 1566 4138 1362 3434 
Q 1159 2731 1159 2009 
Q 1159 1288 1364 580 
Q 1569 -128 1984 -844 
L 1484 -844 
Q 1016 -109 783 600 
Q 550 1309 550 2009 
Q 550 2706 781 3412 
Q 1013 4119 1484 4856 
L 1984 4856 
z
" transform="scale(0.015625)"/>
       <path id="DejaVuSans-6e" d="M 3513 2113 
L 3513 0 
L 2938 0 
L 2938 2094 
Q 2938 2591 2744 2837 
Q 2550 3084 2163 3084 
Q 1697 3084 1428 2787 
Q 1159 2491 1159 1978 
L 1159 0 
L 581 0 
L 581 3500 
L 1159 3500 
L 1159 2956 
Q 1366 3272 1645 3428 
Q 1925 3584 2291 3584 
Q 2894 3584 3203 3211 
Q 3513 2838 3513 2113 
z
" transform="scale(0.015625)"/>
       <path id="DejaVuSans-75" d="M 544 1381 
L 544 3500 
L 1119 3500 
L 1119 1403 
Q 1119 906 1312 657 
Q 1506 409 1894 409 
Q 2359 409 2629 706 
Q 2900 1003 2900 1516 
L 2900 3500 
L 3475 3500 
L 3475 0 
L 2900 0 
L 2900 538 
Q 2691 219 2414 64 
Q 2138 -91 1772 -91 
Q 1169 -91 856 284 
Q 544 659 544 1381 
z
M 1991 3584 
L 1991 3584 
z
" transform="scale(0.015625)"/>
       <path id="DejaVuSans-74" d="M 1172 4494 
L 1172 3500 
L 2356 3500 
L 2356 3053 
L 1172 3053 
L 1172 1153 
Q 1172 725 1289 603 
Q 1406 481 1766 481 
L 2356 481 
L 2356 0 
L 1766 0 
Q 1100 0 847 248 
Q 594 497 594 1153 
L 594 3053 
L 172 3053 
L 172 3500 
L 594 3500 
L 594 4494 
L 1172 4494 
z
" transform="scale(0.015625)"/>
       <path id="DejaVuSans-73" d="M 2834 3397 
L 2834 2853 
Q 2591 2978 2328 3040 
Q 2066 3103 1784 3103 
Q 1356 3103 1142 2972 
Q 928 2841 928 2578 
Q 928 2378 1081 2264 
Q 1234 2150 1697 2047 
L 1894 2003 
Q 2506 1872 2764 1633 
Q 3022 1394 3022 966 
Q 3022 478 2636 193 
Q 2250 -91 1575 -91 
Q 1294 -91 989 -36 
Q 684 19 347 128 
L 347 722 
Q 666 556 975 473 
Q 1284 391 1588 391 
Q 1994 391 2212 530 
Q 2431 669 2431 922 
Q 2431 1156 2273 1281 
Q 2116 1406 1581 1522 
L 1381 1569 
Q 847 1681 609 1914 
Q 372 2147 372 2553 
Q 372 3047 722 3315 
Q 1072 3584 1716 3584 
Q 2034 3584 2315 3537 
Q 2597 3491 2834 3397 
z
" transform="scale(0.015625)"/>
       <path id="DejaVuSans-29" d="M 513 4856 
L 1013 4856 
Q 1481 4119 1714 3412 
Q 1947 2706 1947 2009 
Q 1947 1309 1714 600 
Q 1481 -109 1013 -844 
L 513 -844 
Q 928 -128 1133 580 
Q 1338 1288 1338 2009 
Q 1338 2731 1133 3434 
Q 928 4138 513 4856 
z
" transform="scale(0.015625)"/>
      </defs>
      <use xlink:href="#DejaVuSans-54"/>
      <use xlink:href="#DejaVuSans-69" transform="translate(57.958984 0)"/>
      <use xlink:href="#DejaVuSans-6d" transform="translate(85.742188 0)"/>
      <use xlink:href="#DejaVuSans-65" transform="translate(183.154297 0)"/>
      <use xlink:href="#DejaVuSans-20" transform="translate(244.677734 0)"/>
      <use xlink:href="#DejaVuSans-28" transform="translate(276.464844 0)"/>
      <use xlink:href="#DejaVuSans-6d" transform="translate(315.478516 0)"/>
      <use xlink:href="#DejaVuSans-69" transform="translate(412.890625 0)"/>
      <use xlink:href="#DejaVuSans-6e" transform="translate(440.673828 0)"/>
      <use xlink:href="#DejaVuSans-75" transform="translate(504.052734 0)"/>
      <use xlink:href="#DejaVuSans-74" transform="translate(567.431641 0)"/>
      <use xlink:href="#DejaVuSans-65" transform="translate(606.640625 0)"/>
      <use xlink:href="#DejaVuSans-73" transform="translate(668.164062 0)"/>
      <use xlink:href="#DejaVuSans-29" transform="translate(720.263672 0)"/>
     </g>
    </g>
   </g>
   <g id="matplotlib.axis_2">
    <g id="ytick_1">
     <g id="line2d_18">
      <path d="M 38.27 525.367666 
L 853.2 525.367666 
" clip-path="url(#pdc2064b7ff)" style="fill: none; stroke: #b0b0b0; stroke-opacity: 0.3; stroke-width: 0.8; stroke-linecap: square"/>
     </g>
     <g id="line2d_19">
      <defs>
       <path id="mbe5fc90e75" d="M 0 0 
L -3.5 0 
" style="stroke: #000000; stroke-width: 0.8"/>
      </defs>
      <g>
       <use xlink:href="#mbe5fc90e75" x="38.27" y="525.367666" style="stroke: #000000; stroke-width: 0.8"/>
      </g>
     </g>
     <g id="text_10">
      <!-- 1 -->
      <g transform="translate(24.9075 529.166885) scale(0.1 -0.1)">
       <use xlink:href="#DejaVuSans-31"/>
      </g>
     </g>
    </g>
    <g id="ytick_2">
     <g id="line2d_20">
      <path d="M 38.27 450.354614 
L 853.2 450.354614 
" clip-path="url(#pdc2064b7ff)" style="fill: none; stroke: #b0b0b0; stroke-opacity: 0.3; stroke-width: 0.8; stroke-linecap: square"/>
     </g>
     <g id="line2d_21">
      <g>
       <use xlink:href="#mbe5fc90e75" x="38.27" y="450.354614" style="stroke: #000000; stroke-width: 0.8"/>
      </g>
     </g>
     <g id="text_11">
      <!-- 2 -->
      <g transform="translate(24.9075 454.153833) scale(0.1 -0.1)">
       <use xlink:href="#DejaVuSans-32"/>
      </g>
     </g>
    </g>
    <g id="ytick_3">
     <g id="line2d_22">
      <path d="M 38.27 375.341562 
L 853.2 375.341562 
" clip-path="url(#pdc2064b7ff)" style="fill: none; stroke: #b0b0b0; stroke-opacity: 0.3; stroke-width: 0.8; stroke-linecap: square"/>
     </g>
     <g id="line2d_23">
      <g>
       <use xlink:href="#mbe5fc90e75" x="38.27" y="375.341562" style="stroke: #000000; stroke-width: 0.8"/>
      </g>
     </g>
     <g id="text_12">
      <!-- 3 -->
      <g transform="translate(24.9075 379.140781) scale(0.1 -0.1)">
       <defs>
        <path id="DejaVuSans-33" d="M 2597 2516 
Q 3050 2419 3304 2112 
Q 3559 1806 3559 1356 
Q 3559 666 3084 287 
Q 2609 -91 1734 -91 
Q 1441 -91 1130 -33 
Q 819 25 488 141 
L 488 750 
Q 750 597 1062 519 
Q 1375 441 1716 441 
Q 2309 441 2620 675 
Q 2931 909 2931 1356 
Q 2931 1769 2642 2001 
Q 2353 2234 1838 2234 
L 1294 2234 
L 1294 2753 
L 1863 2753 
Q 2328 2753 2575 2939 
Q 2822 3125 2822 3475 
Q 2822 3834 2567 4026 
Q 2313 4219 1838 4219 
Q 1578 4219 1281 4162 
Q 984 4106 628 3988 
L 628 4550 
Q 988 4650 1302 4700 
Q 1616 4750 1894 4750 
Q 2613 4750 3031 4423 
Q 3450 4097 3450 3541 
Q 3450 3153 3228 2886 
Q 3006 2619 2597 2516 
z
" transform="scale(0.015625)"/>
       </defs>
       <use xlink:href="#DejaVuSans-33"/>
      </g>
     </g>
    </g>
    <g id="ytick_4">
     <g id="line2d_24">
      <path d="M 38.27 300.32851 
L 853.2 300.32851 
" clip-path="url(#pdc2064b7ff)" style="fill: none; stroke: #b0b0b0; stroke-opacity: 0.3; stroke-width: 0.8; stroke-linecap: square"/>
     </g>
     <g id="line2d_25">
      <g>
       <use xlink:href="#mbe5fc90e75" x="38.27" y="300.32851" style="stroke: #000000; stroke-width: 0.8"/>
      </g>
     </g>
     <g id="text_13">
      <!-- 4 -->
      <g transform="translate(24.9075 304.127729) scale(0.1 -0.1)">
       <use xlink:href="#DejaVuSans-34"/>
      </g>
     </g>
    </g>
    <g id="ytick_5">
     <g id="line2d_26">
      <path d="M 38.27 225.315458 
L 853.2 225.315458 
" clip-path="url(#pdc2064b7ff)" style="fill: none; stroke: #b0b0b0; stroke-opacity: 0.3; stroke-width: 0.8; stroke-linecap: square"/>
     </g>
     <g id="line2d_27">
      <g>
       <use xlink:href="#mbe5fc90e75" x="38.27" y="225.315458" style="stroke: #000000; stroke-width: 0.8"/>
      </g>
     </g>
     <g id="text_14">
      <!-- 5 -->
      <g transform="translate(24.9075 229.114677) scale(0.1 -0.1)">
       <defs>
        <path id="DejaVuSans-35" d="M 691 4666 
L 3169 4666 
L 3169 4134 
L 1269 4134 
L 1269 2991 
Q 1406 3038 1543 3061 
Q 1681 3084 1819 3084 
Q 2600 3084 3056 2656 
Q 3513 2228 3513 1497 
Q 3513 744 3044 326 
Q 2575 -91 1722 -91 
Q 1428 -91 1123 -41 
Q 819 9 494 109 
L 494 744 
Q 775 591 1075 516 
Q 1375 441 1709 441 
Q 2250 441 2565 725 
Q 2881 1009 2881 1497 
Q 2881 1984 2565 2268 
Q 2250 2553 1709 2553 
Q 1456 2553 1204 2497 
Q 953 2441 691 2322 
L 691 4666 
z
" transform="scale(0.015625)"/>
       </defs>
       <use xlink:href="#DejaVuSans-35"/>
      </g>
     </g>
    </g>
    <g id="ytick_6">
     <g id="line2d_28">
      <path d="M 38.27 150.302406 
L 853.2 150.302406 
" clip-path="url(#pdc2064b7ff)" style="fill: none; stroke: #b0b0b0; stroke-opacity: 0.3; stroke-width: 0.8; stroke-linecap: square"/>
     </g>
     <g id="line2d_29">
      <g>
       <use xlink:href="#mbe5fc90e75" x="38.27" y="150.302406" style="stroke: #000000; stroke-width: 0.8"/>
      </g>
     </g>
     <g id="text_15">
      <!-- 6 -->
      <g transform="translate(24.9075 154.101624) scale(0.1 -0.1)">
       <use xlink:href="#DejaVuSans-36"/>
      </g>
     </g>
    </g>
    <g id="ytick_7">
     <g id="line2d_30">
      <path d="M 38.27 75.289354 
L 853.2 75.289354 
" clip-path="url(#pdc2064b7ff)" style="fill: none; stroke: #b0b0b0; stroke-opacity: 0.3; stroke-width: 0.8; stroke-linecap: square"/>
     </g>
     <g id="line2d_31">
      <g>
       <use xlink:href="#mbe5fc90e75" x="38.27" y="75.289354" style="stroke: #000000; stroke-width: 0.8"/>
      </g>
     </g>
     <g id="text_16">
      <!-- 7 -->
      <g transform="translate(24.9075 79.088572) scale(0.1 -0.1)">
       <defs>
        <path id="DejaVuSans-37" d="M 525 4666 
L 3525 4666 
L 3525 4397 
L 1831 0 
L 1172 0 
L 2766 4134 
L 525 4134 
L 525 4666 
z
" transform="scale(0.015625)"/>
       </defs>
       <use xlink:href="#DejaVuSans-37"/>
      </g>
     </g>
    </g>
    <g id="text_17">
     <!-- EDA (μS) -->
     <g transform="translate(18.827813 302.057656) rotate(-90) scale(0.1 -0.1)">
      <defs>
       <path id="DejaVuSans-45" d="M 628 4666 
L 3578 4666 
L 3578 4134 
L 1259 4134 
L 1259 2753 
L 3481 2753 
L 3481 2222 
L 1259 2222 
L 1259 531 
L 3634 531 
L 3634 0 
L 628 0 
L 628 4666 
z
" transform="scale(0.015625)"/>
       <path id="DejaVuSans-44" d="M 1259 4147 
L 1259 519 
L 2022 519 
Q 2988 519 3436 956 
Q 3884 1394 3884 2338 
Q 3884 3275 3436 3711 
Q 2988 4147 2022 4147 
L 1259 4147 
z
M 628 4666 
L 1925 4666 
Q 3281 4666 3915 4102 
Q 4550 3538 4550 2338 
Q 4550 1131 3912 565 
Q 3275 0 1925 0 
L 628 0 
L 628 4666 
z
" transform="scale(0.015625)"/>
       <path id="DejaVuSans-41" d="M 2188 4044 
L 1331 1722 
L 3047 1722 
L 2188 4044 
z
M 1831 4666 
L 2547 4666 
L 4325 0 
L 3669 0 
L 3244 1197 
L 1141 1197 
L 716 0 
L 50 0 
L 1831 4666 
z
" transform="scale(0.015625)"/>
       <path id="DejaVuSans-3bc" d="M 544 -1331 
L 544 3500 
L 1119 3500 
L 1119 1325 
Q 1119 872 1334 640 
Q 1550 409 1972 409 
Q 2434 409 2667 671 
Q 2900 934 2900 1459 
L 2900 3500 
L 3475 3500 
L 3475 806 
Q 3475 619 3529 530 
Q 3584 441 3700 441 
Q 3728 441 3778 458 
Q 3828 475 3916 513 
L 3916 50 
Q 3788 -22 3673 -56 
Q 3559 -91 3450 -91 
Q 3234 -91 3106 31 
Q 2978 153 2931 403 
Q 2775 156 2548 32 
Q 2322 -91 2016 -91 
Q 1697 -91 1473 31 
Q 1250 153 1119 397 
L 1119 -1331 
L 544 -1331 
z
" transform="scale(0.015625)"/>
       <path id="DejaVuSans-53" d="M 3425 4513 
L 3425 3897 
Q 3066 4069 2747 4153 
Q 2428 4238 2131 4238 
Q 1616 4238 1336 4038 
Q 1056 3838 1056 3469 
Q 1056 3159 1242 3001 
Q 1428 2844 1947 2747 
L 2328 2669 
Q 3034 2534 3370 2195 
Q 3706 1856 3706 1288 
Q 3706 609 3251 259 
Q 2797 -91 1919 -91 
Q 1588 -91 1214 -16 
Q 841 59 441 206 
L 441 856 
Q 825 641 1194 531 
Q 1563 422 1919 422 
Q 2459 422 2753 634 
Q 3047 847 3047 1241 
Q 3047 1584 2836 1778 
Q 2625 1972 2144 2069 
L 1759 2144 
Q 1053 2284 737 2584 
Q 422 2884 422 3419 
Q 422 4038 858 4394 
Q 1294 4750 2059 4750 
Q 2388 4750 2728 4690 
Q 3069 4631 3425 4513 
z
" transform="scale(0.015625)"/>
      </defs>
      <use xlink:href="#DejaVuSans-45"/>
      <use xlink:href="#DejaVuSans-44" transform="translate(63.183594 0)"/>
      <use xlink:href="#DejaVuSans-41" transform="translate(138.435547 0)"/>
      <use xlink:href="#DejaVuSans-20" transform="translate(206.84375 0)"/>
      <use xlink:href="#DejaVuSans-28" transform="translate(238.630859 0)"/>
      <use xlink:href="#DejaVuSans-3bc" transform="translate(277.644531 0)"/>
      <use xlink:href="#DejaVuSans-53" transform="translate(341.267578 0)"/>
      <use xlink:href="#DejaVuSans-29" transform="translate(404.744141 0)"/>
     </g>
    </g>
   </g>
   <g id="patch_3">
    <path d="M 38.27 534.04 
L 38.27 25.69875 
" style="fill: none; stroke: #000000; stroke-width: 0.8; stroke-linejoin: miter; stroke-linecap: square"/>
   </g>
   <g id="patch_4">
    <path d="M 853.2 534.04 
L 853.2 25.69875 
" style="fill: none; stroke: #000000; stroke-width: 0.8; stroke-linejoin: miter; stroke-linecap: square"/>
   </g>
   <g id="patch_5">
    <path d="M 38.27 534.04 
L 853.2 534.04 
" style="fill: none; stroke: #000000; stroke-width: 0.8; stroke-linejoin: miter; stroke-linecap: square"/>
   </g>
   <g id="patch_6">
    <path d="M 38.27 25.69875 
L 853.2 25.69875 
" style="fill: none; stroke: #000000; stroke-width: 0.8; stroke-linejoin: miter; stroke-linecap: square"/>
   </g>
   <g id="text_18">
    <!-- EDA filtered by temperature filter (range: 30-40℃) -->
    <g transform="translate(293.209375 19.69875) scale(0.12 -0.12)">
     <defs>
      <path id="DejaVuSans-66" d="M 2375 4863 
L 2375 4384 
L 1825 4384 
Q 1516 4384 1395 4259 
Q 1275 4134 1275 3809 
L 1275 3500 
L 2222 3500 
L 2222 3053 
L 1275 3053 
L 1275 0 
L 697 0 
L 697 3053 
L 147 3053 
L 147 3500 
L 697 3500 
L 697 3744 
Q 697 4328 969 4595 
Q 1241 4863 1831 4863 
L 2375 4863 
z
" transform="scale(0.015625)"/>
      <path id="DejaVuSans-6c" d="M 603 4863 
L 1178 4863 
L 1178 0 
L 603 0 
L 603 4863 
z
" transform="scale(0.015625)"/>
      <path id="DejaVuSans-72" d="M 2631 2963 
Q 2534 3019 2420 3045 
Q 2306 3072 2169 3072 
Q 1681 3072 1420 2755 
Q 1159 2438 1159 1844 
L 1159 0 
L 581 0 
L 581 3500 
L 1159 3500 
L 1159 2956 
Q 1341 3275 1631 3429 
Q 1922 3584 2338 3584 
Q 2397 3584 2469 3576 
Q 2541 3569 2628 3553 
L 2631 2963 
z
" transform="scale(0.015625)"/>
      <path id="DejaVuSans-64" d="M 2906 2969 
L 2906 4863 
L 3481 4863 
L 3481 0 
L 2906 0 
L 2906 525 
Q 2725 213 2448 61 
Q 2172 -91 1784 -91 
Q 1150 -91 751 415 
Q 353 922 353 1747 
Q 353 2572 751 3078 
Q 1150 3584 1784 3584 
Q 2172 3584 2448 3432 
Q 2725 3281 2906 2969 
z
M 947 1747 
Q 947 1113 1208 752 
Q 1469 391 1925 391 
Q 2381 391 2643 752 
Q 2906 1113 2906 1747 
Q 2906 2381 2643 2742 
Q 2381 3103 1925 3103 
Q 1469 3103 1208 2742 
Q 947 2381 947 1747 
z
" transform="scale(0.015625)"/>
      <path id="DejaVuSans-62" d="M 3116 1747 
Q 3116 2381 2855 2742 
Q 2594 3103 2138 3103 
Q 1681 3103 1420 2742 
Q 1159 2381 1159 1747 
Q 1159 1113 1420 752 
Q 1681 391 2138 391 
Q 2594 391 2855 752 
Q 3116 1113 3116 1747 
z
M 1159 2969 
Q 1341 3281 1617 3432 
Q 1894 3584 2278 3584 
Q 2916 3584 3314 3078 
Q 3713 2572 3713 1747 
Q 3713 922 3314 415 
Q 2916 -91 2278 -91 
Q 1894 -91 1617 61 
Q 1341 213 1159 525 
L 1159 0 
L 581 0 
L 581 4863 
L 1159 4863 
L 1159 2969 
z
" transform="scale(0.015625)"/>
      <path id="DejaVuSans-79" d="M 2059 -325 
Q 1816 -950 1584 -1140 
Q 1353 -1331 966 -1331 
L 506 -1331 
L 506 -850 
L 844 -850 
Q 1081 -850 1212 -737 
Q 1344 -625 1503 -206 
L 1606 56 
L 191 3500 
L 800 3500 
L 1894 763 
L 2988 3500 
L 3597 3500 
L 2059 -325 
z
" transform="scale(0.015625)"/>
      <path id="DejaVuSans-70" d="M 1159 525 
L 1159 -1331 
L 581 -1331 
L 581 3500 
L 1159 3500 
L 1159 2969 
Q 1341 3281 1617 3432 
Q 1894 3584 2278 3584 
Q 2916 3584 3314 3078 
Q 3713 2572 3713 1747 
Q 3713 922 3314 415 
Q 2916 -91 2278 -91 
Q 1894 -91 1617 61 
Q 1341 213 1159 525 
z
M 3116 1747 
Q 3116 2381 2855 2742 
Q 2594 3103 2138 3103 
Q 1681 3103 1420 2742 
Q 1159 2381 1159 1747 
Q 1159 1113 1420 752 
Q 1681 391 2138 391 
Q 2594 391 2855 752 
Q 3116 1113 3116 1747 
z
" transform="scale(0.015625)"/>
      <path id="DejaVuSans-61" d="M 2194 1759 
Q 1497 1759 1228 1600 
Q 959 1441 959 1056 
Q 959 750 1161 570 
Q 1363 391 1709 391 
Q 2188 391 2477 730 
Q 2766 1069 2766 1631 
L 2766 1759 
L 2194 1759 
z
M 3341 1997 
L 3341 0 
L 2766 0 
L 2766 531 
Q 2569 213 2275 61 
Q 1981 -91 1556 -91 
Q 1019 -91 701 211 
Q 384 513 384 1019 
Q 384 1609 779 1909 
Q 1175 2209 1959 2209 
L 2766 2209 
L 2766 2266 
Q 2766 2663 2505 2880 
Q 2244 3097 1772 3097 
Q 1472 3097 1187 3025 
Q 903 2953 641 2809 
L 641 3341 
Q 956 3463 1253 3523 
Q 1550 3584 1831 3584 
Q 2591 3584 2966 3190 
Q 3341 2797 3341 1997 
z
" transform="scale(0.015625)"/>
      <path id="DejaVuSans-67" d="M 2906 1791 
Q 2906 2416 2648 2759 
Q 2391 3103 1925 3103 
Q 1463 3103 1205 2759 
Q 947 2416 947 1791 
Q 947 1169 1205 825 
Q 1463 481 1925 481 
Q 2391 481 2648 825 
Q 2906 1169 2906 1791 
z
M 3481 434 
Q 3481 -459 3084 -895 
Q 2688 -1331 1869 -1331 
Q 1566 -1331 1297 -1286 
Q 1028 -1241 775 -1147 
L 775 -588 
Q 1028 -725 1275 -790 
Q 1522 -856 1778 -856 
Q 2344 -856 2625 -561 
Q 2906 -266 2906 331 
L 2906 616 
Q 2728 306 2450 153 
Q 2172 0 1784 0 
Q 1141 0 747 490 
Q 353 981 353 1791 
Q 353 2603 747 3093 
Q 1141 3584 1784 3584 
Q 2172 3584 2450 3431 
Q 2728 3278 2906 2969 
L 2906 3500 
L 3481 3500 
L 3481 434 
z
" transform="scale(0.015625)"/>
      <path id="DejaVuSans-3a" d="M 750 794 
L 1409 794 
L 1409 0 
L 750 0 
L 750 794 
z
M 750 3309 
L 1409 3309 
L 1409 2516 
L 750 2516 
L 750 3309 
z
" transform="scale(0.015625)"/>
      <path id="DejaVuSans-2d" d="M 313 2009 
L 1997 2009 
L 1997 1497 
L 313 1497 
L 313 2009 
z
" transform="scale(0.015625)"/>
      <path id="DejaVuSans-2103" d="M 1600 4347 
Q 1350 4347 1178 4173 
Q 1006 4000 1006 3750 
Q 1006 3503 1178 3333 
Q 1350 3163 1600 3163 
Q 1850 3163 2022 3333 
Q 2194 3503 2194 3750 
Q 2194 3997 2020 4172 
Q 1847 4347 1600 4347 
z
M 1600 4750 
Q 1800 4750 1984 4673 
Q 2169 4597 2303 4453 
Q 2447 4313 2519 4134 
Q 2591 3956 2591 3750 
Q 2591 3338 2302 3052 
Q 2013 2766 1594 2766 
Q 1172 2766 890 3047 
Q 609 3328 609 3750 
Q 609 4169 896 4459 
Q 1184 4750 1600 4750 
z
M 6741 4306 
L 6741 3641 
Q 6422 3938 6061 4084 
Q 5700 4231 5294 4231 
Q 4494 4231 4069 3742 
Q 3644 3253 3644 2328 
Q 3644 1406 4069 917 
Q 4494 428 5294 428 
Q 5700 428 6061 575 
Q 6422 722 6741 1019 
L 6741 359 
Q 6409 134 6039 21 
Q 5669 -91 5256 -91 
Q 4197 -91 3587 557 
Q 2978 1206 2978 2328 
Q 2978 3453 3587 4101 
Q 4197 4750 5256 4750 
Q 5675 4750 6045 4639 
Q 6416 4528 6741 4306 
z
" transform="scale(0.015625)"/>
     </defs>
     <use xlink:href="#DejaVuSans-45"/>
     <use xlink:href="#DejaVuSans-44" transform="translate(63.183594 0)"/>
     <use xlink:href="#DejaVuSans-41" transform="translate(138.435547 0)"/>
     <use xlink:href="#DejaVuSans-20" transform="translate(206.84375 0)"/>
     <use xlink:href="#DejaVuSans-66" transform="translate(238.630859 0)"/>
     <use xlink:href="#DejaVuSans-69" transform="translate(273.835938 0)"/>
     <use xlink:href="#DejaVuSans-6c" transform="translate(301.619141 0)"/>
     <use xlink:href="#DejaVuSans-74" transform="translate(329.402344 0)"/>
     <use xlink:href="#DejaVuSans-65" transform="translate(368.611328 0)"/>
     <use xlink:href="#DejaVuSans-72" transform="translate(430.134766 0)"/>
     <use xlink:href="#DejaVuSans-65" transform="translate(468.998047 0)"/>
     <use xlink:href="#DejaVuSans-64" transform="translate(530.521484 0)"/>
     <use xlink:href="#DejaVuSans-20" transform="translate(593.998047 0)"/>
     <use xlink:href="#DejaVuSans-62" transform="translate(625.785156 0)"/>
     <use xlink:href="#DejaVuSans-79" transform="translate(689.261719 0)"/>
     <use xlink:href="#DejaVuSans-20" transform="translate(748.441406 0)"/>
     <use xlink:href="#DejaVuSans-74" transform="translate(780.228516 0)"/>
     <use xlink:href="#DejaVuSans-65" transform="translate(819.4375 0)"/>
     <use xlink:href="#DejaVuSans-6d" transform="translate(880.960938 0)"/>
     <use xlink:href="#DejaVuSans-70" transform="translate(978.373047 0)"/>
     <use xlink:href="#DejaVuSans-65" transform="translate(1041.849609 0)"/>
     <use xlink:href="#DejaVuSans-72" transform="translate(1103.373047 0)"/>
     <use xlink:href="#DejaVuSans-61" transform="translate(1144.486328 0)"/>
     <use xlink:href="#DejaVuSans-74" transform="translate(1205.765625 0)"/>
     <use xlink:href="#DejaVuSans-75" transform="translate(1244.974609 0)"/>
     <use xlink:href="#DejaVuSans-72" transform="translate(1308.353516 0)"/>
     <use xlink:href="#DejaVuSans-65" transform="translate(1347.216797 0)"/>
     <use xlink:href="#DejaVuSans-20" transform="translate(1408.740234 0)"/>
     <use xlink:href="#DejaVuSans-66" transform="translate(1440.527344 0)"/>
     <use xlink:href="#DejaVuSans-69" transform="translate(1475.732422 0)"/>
     <use xlink:href="#DejaVuSans-6c" transform="translate(1503.515625 0)"/>
     <use xlink:href="#DejaVuSans-74" transform="translate(1531.298828 0)"/>
     <use xlink:href="#DejaVuSans-65" transform="translate(1570.507812 0)"/>
     <use xlink:href="#DejaVuSans-72" transform="translate(1632.03125 0)"/>
     <use xlink:href="#DejaVuSans-20" transform="translate(1673.144531 0)"/>
     <use xlink:href="#DejaVuSans-28" transform="translate(1704.931641 0)"/>
     <use xlink:href="#DejaVuSans-72" transform="translate(1743.945312 0)"/>
     <use xlink:href="#DejaVuSans-61" transform="translate(1785.058594 0)"/>
     <use xlink:href="#DejaVuSans-6e" transform="translate(1846.337891 0)"/>
     <use xlink:href="#DejaVuSans-67" transform="translate(1909.716797 0)"/>
     <use xlink:href="#DejaVuSans-65" transform="translate(1973.193359 0)"/>
     <use xlink:href="#DejaVuSans-3a" transform="translate(2034.716797 0)"/>
     <use xlink:href="#DejaVuSans-20" transform="translate(2068.408203 0)"/>
     <use xlink:href="#DejaVuSans-33" transform="translate(2100.195312 0)"/>
     <use xlink:href="#DejaVuSans-30" transform="translate(2163.818359 0)"/>
     <use xlink:href="#DejaVuSans-2d" transform="translate(2227.441406 0)"/>
     <use xlink:href="#DejaVuSans-34" transform="translate(2263.525391 0)"/>
     <use xlink:href="#DejaVuSans-30" transform="translate(2327.148438 0)"/>
     <use xlink:href="#DejaVuSans-2103" transform="translate(2390.771484 0)"/>
     <use xlink:href="#DejaVuSans-29" transform="translate(2503.076172 0)"/>
    </g>
   </g>
   <g id="legend_1">
    <g id="patch_7">
     <path d="M 791.720313 48.376875 
L 846.2 48.376875 
Q 848.2 48.376875 848.2 46.376875 
L 848.2 32.69875 
Q 848.2 30.69875 846.2 30.69875 
L 791.720313 30.69875 
Q 789.720313 30.69875 789.720313 32.69875 
L 789.720313 46.376875 
Q 789.720313 48.376875 791.720313 48.376875 
z
" style="fill: #ffffff; opacity: 0.8; stroke: #cccccc; stroke-linejoin: miter"/>
    </g>
    <g id="line2d_32">
     <path d="M 793.720313 38.797188 
L 803.720313 38.797188 
L 813.720313 38.797188 
" style="fill: none; stroke: #0000ff; stroke-linecap: square"/>
    </g>
    <g id="text_19">
     <!-- Kept -->
     <g transform="translate(821.720313 42.297188) scale(0.1 -0.1)">
      <defs>
       <path id="DejaVuSans-4b" d="M 628 4666 
L 1259 4666 
L 1259 2694 
L 3353 4666 
L 4166 4666 
L 1850 2491 
L 4331 0 
L 3500 0 
L 1259 2247 
L 1259 0 
L 628 0 
L 628 4666 
z
" transform="scale(0.015625)"/>
      </defs>
      <use xlink:href="#DejaVuSans-4b"/>
      <use xlink:href="#DejaVuSans-65" transform="translate(60.576172 0)"/>
      <use xlink:href="#DejaVuSans-70" transform="translate(122.099609 0)"/>
      <use xlink:href="#DejaVuSans-74" transform="translate(185.576172 0)"/>
     </g>
    </g>
   </g>
  </g>
 </g>
 <defs>
  <clipPath id="pdc2064b7ff">
   <rect x="38.27" y="25.69875" width="814.93" height="508.34125"/>
  </clipPath>
 </defs>
</svg>
