<?xml version="1.0" encoding="utf-8" standalone="no"?>
<!DOCTYPE svg PUBLIC "-//W3C//DTD SVG 1.1//EN"
  "http://www.w3.org/Graphics/SVG/1.1/DTD/svg11.dtd">
<svg xmlns:xlink="http://www.w3.org/1999/xlink" width="864pt" height="576pt" viewBox="0 0 864 576" xmlns="http://www.w3.org/2000/svg" version="1.1">
 <metadata>
  <rdf:RDF xmlns:dc="http://purl.org/dc/elements/1.1/" xmlns:cc="http://creativecommons.org/ns#" xmlns:rdf="http://www.w3.org/1999/02/22-rdf-syntax-ns#">
   <cc:Work>
    <dc:type rdf:resource="http://purl.org/dc/dcmitype/StillImage"/>
    <dc:date>2025-10-03T12:39:38.190980</dc:date>
    <dc:format>image/svg+xml</dc:format>
    <dc:creator>
     <cc:Agent>
      <dc:title>Matplotlib v3.10.0, https://matplotlib.org/</dc:title>
     </cc:Agent>
    </dc:creator>
   </cc:Work>
  </rdf:RDF>
 </metadata>
 <defs>
  <style type="text/css">*{stroke-linejoin: round; stroke-linecap: butt}</style>
 </defs>
 <g id="figure_1">
  <g id="patch_1">
   <path d="M 0 576 
L 864 576 
L 864 0 
L 0 0 
z
" style="fill: #ffffff"/>
  </g>
  <g id="axes_1">
   <g id="patch_2">
    <path d="M 47.81 534.04 
L 853.2 534.04 
L 853.2 25.44 
L 47.81 25.44 
z
" style="fill: #ffffff"/>
   </g>
   <g id="matplotlib.axis_1">
    <g id="xtick_1">
     <g id="line2d_1">
      <path d="M 84.418636 534.04 
L 84.418636 25.44 
" clip-path="url(#p2bb3fa98c6)" style="fill: none; stroke: #b0b0b0; stroke-opacity: 0.3; stroke-width: 0.8; stroke-linecap: square"/>
     </g>
     <g id="line2d_2">
      <defs>
       <path id="m8d54713bbf" d="M 0 0 
L 0 3.5 
" style="stroke: #000000; stroke-width: 0.8"/>
      </defs>
      <g>
       <use xlink:href="#m8d54713bbf" x="84.418636" y="534.04" style="stroke: #000000; stroke-width: 0.8"/>
      </g>
     </g>
     <g id="text_1">
      <!-- 0 -->
      <g transform="translate(81.237386 548.638438) scale(0.1 -0.1)">
       <defs>
        <path id="DejaVuSans-30" d="M 2034 4250 
Q 1547 4250 1301 3770 
Q 1056 3291 1056 2328 
Q 1056 1369 1301 889 
Q 1547 409 2034 409 
Q 2525 409 2770 889 
Q 3016 1369 3016 2328 
Q 3016 3291 2770 3770 
Q 2525 4250 2034 4250 
z
M 2034 4750 
Q 2819 4750 3233 4129 
Q 3647 3509 3647 2328 
Q 3647 1150 3233 529 
Q 2819 -91 2034 -91 
Q 1250 -91 836 529 
Q 422 1150 422 2328 
Q 422 3509 836 4129 
Q 1250 4750 2034 4750 
z
" transform="scale(0.015625)"/>
       </defs>
       <use xlink:href="#DejaVuSans-30"/>
      </g>
     </g>
    </g>
    <g id="xtick_2">
     <g id="line2d_3">
      <path d="M 182.041667 534.04 
L 182.041667 25.44 
" clip-path="url(#p2bb3fa98c6)" style="fill: none; stroke: #b0b0b0; stroke-opacity: 0.3; stroke-width: 0.8; stroke-linecap: square"/>
     </g>
     <g id="line2d_4">
      <g>
       <use xlink:href="#m8d54713bbf" x="182.041667" y="534.04" style="stroke: #000000; stroke-width: 0.8"/>
      </g>
     </g>
     <g id="text_2">
      <!-- 2 -->
      <g transform="translate(178.860417 548.638438) scale(0.1 -0.1)">
       <defs>
        <path id="DejaVuSans-32" d="M 1228 531 
L 3431 531 
L 3431 0 
L 469 0 
L 469 531 
Q 828 903 1448 1529 
Q 2069 2156 2228 2338 
Q 2531 2678 2651 2914 
Q 2772 3150 2772 3378 
Q 2772 3750 2511 3984 
Q 2250 4219 1831 4219 
Q 1534 4219 1204 4116 
Q 875 4013 500 3803 
L 500 4441 
Q 881 4594 1212 4672 
Q 1544 4750 1819 4750 
Q 2544 4750 2975 4387 
Q 3406 4025 3406 3419 
Q 3406 3131 3298 2873 
Q 3191 2616 2906 2266 
Q 2828 2175 2409 1742 
Q 1991 1309 1228 531 
z
" transform="scale(0.015625)"/>
       </defs>
       <use xlink:href="#DejaVuSans-32"/>
      </g>
     </g>
    </g>
    <g id="xtick_3">
     <g id="line2d_5">
      <path d="M 279.664697 534.04 
L 279.664697 25.44 
" clip-path="url(#p2bb3fa98c6)" style="fill: none; stroke: #b0b0b0; stroke-opacity: 0.3; stroke-width: 0.8; stroke-linecap: square"/>
     </g>
     <g id="line2d_6">
      <g>
       <use xlink:href="#m8d54713bbf" x="279.664697" y="534.04" style="stroke: #000000; stroke-width: 0.8"/>
      </g>
     </g>
     <g id="text_3">
      <!-- 4 -->
      <g transform="translate(276.483447 548.638438) scale(0.1 -0.1)">
       <defs>
        <path id="DejaVuSans-34" d="M 2419 4116 
L 825 1625 
L 2419 1625 
L 2419 4116 
z
M 2253 4666 
L 3047 4666 
L 3047 1625 
L 3713 1625 
L 3713 1100 
L 3047 1100 
L 3047 0 
L 2419 0 
L 2419 1100 
L 313 1100 
L 313 1709 
L 2253 4666 
z
" transform="scale(0.015625)"/>
       </defs>
       <use xlink:href="#DejaVuSans-34"/>
      </g>
     </g>
    </g>
    <g id="xtick_4">
     <g id="line2d_7">
      <path d="M 377.287727 534.04 
L 377.287727 25.44 
" clip-path="url(#p2bb3fa98c6)" style="fill: none; stroke: #b0b0b0; stroke-opacity: 0.3; stroke-width: 0.8; stroke-linecap: square"/>
     </g>
     <g id="line2d_8">
      <g>
       <use xlink:href="#m8d54713bbf" x="377.287727" y="534.04" style="stroke: #000000; stroke-width: 0.8"/>
      </g>
     </g>
     <g id="text_4">
      <!-- 6 -->
      <g transform="translate(374.106477 548.638438) scale(0.1 -0.1)">
       <defs>
        <path id="DejaVuSans-36" d="M 2113 2584 
Q 1688 2584 1439 2293 
Q 1191 2003 1191 1497 
Q 1191 994 1439 701 
Q 1688 409 2113 409 
Q 2538 409 2786 701 
Q 3034 994 3034 1497 
Q 3034 2003 2786 2293 
Q 2538 2584 2113 2584 
z
M 3366 4563 
L 3366 3988 
Q 3128 4100 2886 4159 
Q 2644 4219 2406 4219 
Q 1781 4219 1451 3797 
Q 1122 3375 1075 2522 
Q 1259 2794 1537 2939 
Q 1816 3084 2150 3084 
Q 2853 3084 3261 2657 
Q 3669 2231 3669 1497 
Q 3669 778 3244 343 
Q 2819 -91 2113 -91 
Q 1303 -91 875 529 
Q 447 1150 447 2328 
Q 447 3434 972 4092 
Q 1497 4750 2381 4750 
Q 2619 4750 2861 4703 
Q 3103 4656 3366 4563 
z
" transform="scale(0.015625)"/>
       </defs>
       <use xlink:href="#DejaVuSans-36"/>
      </g>
     </g>
    </g>
    <g id="xtick_5">
     <g id="line2d_9">
      <path d="M 474.910758 534.04 
L 474.910758 25.44 
" clip-path="url(#p2bb3fa98c6)" style="fill: none; stroke: #b0b0b0; stroke-opacity: 0.3; stroke-width: 0.8; stroke-linecap: square"/>
     </g>
     <g id="line2d_10">
      <g>
       <use xlink:href="#m8d54713bbf" x="474.910758" y="534.04" style="stroke: #000000; stroke-width: 0.8"/>
      </g>
     </g>
     <g id="text_5">
      <!-- 8 -->
      <g transform="translate(471.729508 548.638438) scale(0.1 -0.1)">
       <defs>
        <path id="DejaVuSans-38" d="M 2034 2216 
Q 1584 2216 1326 1975 
Q 1069 1734 1069 1313 
Q 1069 891 1326 650 
Q 1584 409 2034 409 
Q 2484 409 2743 651 
Q 3003 894 3003 1313 
Q 3003 1734 2745 1975 
Q 2488 2216 2034 2216 
z
M 1403 2484 
Q 997 2584 770 2862 
Q 544 3141 544 3541 
Q 544 4100 942 4425 
Q 1341 4750 2034 4750 
Q 2731 4750 3128 4425 
Q 3525 4100 3525 3541 
Q 3525 3141 3298 2862 
Q 3072 2584 2669 2484 
Q 3125 2378 3379 2068 
Q 3634 1759 3634 1313 
Q 3634 634 3220 271 
Q 2806 -91 2034 -91 
Q 1263 -91 848 271 
Q 434 634 434 1313 
Q 434 1759 690 2068 
Q 947 2378 1403 2484 
z
M 1172 3481 
Q 1172 3119 1398 2916 
Q 1625 2713 2034 2713 
Q 2441 2713 2670 2916 
Q 2900 3119 2900 3481 
Q 2900 3844 2670 4047 
Q 2441 4250 2034 4250 
Q 1625 4250 1398 4047 
Q 1172 3844 1172 3481 
z
" transform="scale(0.015625)"/>
       </defs>
       <use xlink:href="#DejaVuSans-38"/>
      </g>
     </g>
    </g>
    <g id="xtick_6">
     <g id="line2d_11">
      <path d="M 572.533788 534.04 
L 572.533788 25.44 
" clip-path="url(#p2bb3fa98c6)" style="fill: none; stroke: #b0b0b0; stroke-opacity: 0.3; stroke-width: 0.8; stroke-linecap: square"/>
     </g>
     <g id="line2d_12">
      <g>
       <use xlink:href="#m8d54713bbf" x="572.533788" y="534.04" style="stroke: #000000; stroke-width: 0.8"/>
      </g>
     </g>
     <g id="text_6">
      <!-- 10 -->
      <g transform="translate(566.171288 548.638438) scale(0.1 -0.1)">
       <defs>
        <path id="DejaVuSans-31" d="M 794 531 
L 1825 531 
L 1825 4091 
L 703 3866 
L 703 4441 
L 1819 4666 
L 2450 4666 
L 2450 531 
L 3481 531 
L 3481 0 
L 794 0 
L 794 531 
z
" transform="scale(0.015625)"/>
       </defs>
       <use xlink:href="#DejaVuSans-31"/>
       <use xlink:href="#DejaVuSans-30" transform="translate(63.623047 0)"/>
      </g>
     </g>
    </g>
    <g id="xtick_7">
     <g id="line2d_13">
      <path d="M 670.156818 534.04 
L 670.156818 25.44 
" clip-path="url(#p2bb3fa98c6)" style="fill: none; stroke: #b0b0b0; stroke-opacity: 0.3; stroke-width: 0.8; stroke-linecap: square"/>
     </g>
     <g id="line2d_14">
      <g>
       <use xlink:href="#m8d54713bbf" x="670.156818" y="534.04" style="stroke: #000000; stroke-width: 0.8"/>
      </g>
     </g>
     <g id="text_7">
      <!-- 12 -->
      <g transform="translate(663.794318 548.638438) scale(0.1 -0.1)">
       <use xlink:href="#DejaVuSans-31"/>
       <use xlink:href="#DejaVuSans-32" transform="translate(63.623047 0)"/>
      </g>
     </g>
    </g>
    <g id="xtick_8">
     <g id="line2d_15">
      <path d="M 767.779848 534.04 
L 767.779848 25.44 
" clip-path="url(#p2bb3fa98c6)" style="fill: none; stroke: #b0b0b0; stroke-opacity: 0.3; stroke-width: 0.8; stroke-linecap: square"/>
     </g>
     <g id="line2d_16">
      <g>
       <use xlink:href="#m8d54713bbf" x="767.779848" y="534.04" style="stroke: #000000; stroke-width: 0.8"/>
      </g>
     </g>
     <g id="text_8">
      <!-- 14 -->
      <g transform="translate(761.417348 548.638438) scale(0.1 -0.1)">
       <use xlink:href="#DejaVuSans-31"/>
       <use xlink:href="#DejaVuSans-34" transform="translate(63.623047 0)"/>
      </g>
     </g>
    </g>
    <g id="text_9">
     <!-- Time (minutes) -->
     <g transform="translate(412.5425 562.316563) scale(0.1 -0.1)">
      <defs>
       <path id="DejaVuSans-54" d="M -19 4666 
L 3928 4666 
L 3928 4134 
L 2272 4134 
L 2272 0 
L 1638 0 
L 1638 4134 
L -19 4134 
L -19 4666 
z
" transform="scale(0.015625)"/>
       <path id="DejaVuSans-69" d="M 603 3500 
L 1178 3500 
L 1178 0 
L 603 0 
L 603 3500 
z
M 603 4863 
L 1178 4863 
L 1178 4134 
L 603 4134 
L 603 4863 
z
" transform="scale(0.015625)"/>
       <path id="DejaVuSans-6d" d="M 3328 2828 
Q 3544 3216 3844 3400 
Q 4144 3584 4550 3584 
Q 5097 3584 5394 3201 
Q 5691 2819 5691 2113 
L 5691 0 
L 5113 0 
L 5113 2094 
Q 5113 2597 4934 2840 
Q 4756 3084 4391 3084 
Q 3944 3084 3684 2787 
Q 3425 2491 3425 1978 
L 3425 0 
L 2847 0 
L 2847 2094 
Q 2847 2600 2669 2842 
Q 2491 3084 2119 3084 
Q 1678 3084 1418 2786 
Q 1159 2488 1159 1978 
L 1159 0 
L 581 0 
L 581 3500 
L 1159 3500 
L 1159 2956 
Q 1356 3278 1631 3431 
Q 1906 3584 2284 3584 
Q 2666 3584 2933 3390 
Q 3200 3197 3328 2828 
z
" transform="scale(0.015625)"/>
       <path id="DejaVuSans-65" d="M 3597 1894 
L 3597 1613 
L 953 1613 
Q 991 1019 1311 708 
Q 1631 397 2203 397 
Q 2534 397 2845 478 
Q 3156 559 3463 722 
L 3463 178 
Q 3153 47 2828 -22 
Q 2503 -91 2169 -91 
Q 1331 -91 842 396 
Q 353 884 353 1716 
Q 353 2575 817 3079 
Q 1281 3584 2069 3584 
Q 2775 3584 3186 3129 
Q 3597 2675 3597 1894 
z
M 3022 2063 
Q 3016 2534 2758 2815 
Q 2500 3097 2075 3097 
Q 1594 3097 1305 2825 
Q 1016 2553 972 2059 
L 3022 2063 
z
" transform="scale(0.015625)"/>
       <path id="DejaVuSans-20" transform="scale(0.015625)"/>
       <path id="DejaVuSans-28" d="M 1984 4856 
Q 1566 4138 1362 3434 
Q 1159 2731 1159 2009 
Q 1159 1288 1364 580 
Q 1569 -128 1984 -844 
L 1484 -844 
Q 1016 -109 783 600 
Q 550 1309 550 2009 
Q 550 2706 781 3412 
Q 1013 4119 1484 4856 
L 1984 4856 
z
" transform="scale(0.015625)"/>
       <path id="DejaVuSans-6e" d="M 3513 2113 
L 3513 0 
L 2938 0 
L 2938 2094 
Q 2938 2591 2744 2837 
Q 2550 3084 2163 3084 
Q 1697 3084 1428 2787 
Q 1159 2491 1159 1978 
L 1159 0 
L 581 0 
L 581 3500 
L 1159 3500 
L 1159 2956 
Q 1366 3272 1645 3428 
Q 1925 3584 2291 3584 
Q 2894 3584 3203 3211 
Q 3513 2838 3513 2113 
z
" transform="scale(0.015625)"/>
       <path id="DejaVuSans-75" d="M 544 1381 
L 544 3500 
L 1119 3500 
L 1119 1403 
Q 1119 906 1312 657 
Q 1506 409 1894 409 
Q 2359 409 2629 706 
Q 2900 1003 2900 1516 
L 2900 3500 
L 3475 3500 
L 3475 0 
L 2900 0 
L 2900 538 
Q 2691 219 2414 64 
Q 2138 -91 1772 -91 
Q 1169 -91 856 284 
Q 544 659 544 1381 
z
M 1991 3584 
L 1991 3584 
z
" transform="scale(0.015625)"/>
       <path id="DejaVuSans-74" d="M 1172 4494 
L 1172 3500 
L 2356 3500 
L 2356 3053 
L 1172 3053 
L 1172 1153 
Q 1172 725 1289 603 
Q 1406 481 1766 481 
L 2356 481 
L 2356 0 
L 1766 0 
Q 1100 0 847 248 
Q 594 497 594 1153 
L 594 3053 
L 172 3053 
L 172 3500 
L 594 3500 
L 594 4494 
L 1172 4494 
z
" transform="scale(0.015625)"/>
       <path id="DejaVuSans-73" d="M 2834 3397 
L 2834 2853 
Q 2591 2978 2328 3040 
Q 2066 3103 1784 3103 
Q 1356 3103 1142 2972 
Q 928 2841 928 2578 
Q 928 2378 1081 2264 
Q 1234 2150 1697 2047 
L 1894 2003 
Q 2506 1872 2764 1633 
Q 3022 1394 3022 966 
Q 3022 478 2636 193 
Q 2250 -91 1575 -91 
Q 1294 -91 989 -36 
Q 684 19 347 128 
L 347 722 
Q 666 556 975 473 
Q 1284 391 1588 391 
Q 1994 391 2212 530 
Q 2431 669 2431 922 
Q 2431 1156 2273 1281 
Q 2116 1406 1581 1522 
L 1381 1569 
Q 847 1681 609 1914 
Q 372 2147 372 2553 
Q 372 3047 722 3315 
Q 1072 3584 1716 3584 
Q 2034 3584 2315 3537 
Q 2597 3491 2834 3397 
z
" transform="scale(0.015625)"/>
       <path id="DejaVuSans-29" d="M 513 4856 
L 1013 4856 
Q 1481 4119 1714 3412 
Q 1947 2706 1947 2009 
Q 1947 1309 1714 600 
Q 1481 -109 1013 -844 
L 513 -844 
Q 928 -128 1133 580 
Q 1338 1288 1338 2009 
Q 1338 2731 1133 3434 
Q 928 4138 513 4856 
z
" transform="scale(0.015625)"/>
      </defs>
      <use xlink:href="#DejaVuSans-54"/>
      <use xlink:href="#DejaVuSans-69" transform="translate(57.958984 0)"/>
      <use xlink:href="#DejaVuSans-6d" transform="translate(85.742188 0)"/>
      <use xlink:href="#DejaVuSans-65" transform="translate(183.154297 0)"/>
      <use xlink:href="#DejaVuSans-20" transform="translate(244.677734 0)"/>
      <use xlink:href="#DejaVuSans-28" transform="translate(276.464844 0)"/>
      <use xlink:href="#DejaVuSans-6d" transform="translate(315.478516 0)"/>
      <use xlink:href="#DejaVuSans-69" transform="translate(412.890625 0)"/>
      <use xlink:href="#DejaVuSans-6e" transform="translate(440.673828 0)"/>
      <use xlink:href="#DejaVuSans-75" transform="translate(504.052734 0)"/>
      <use xlink:href="#DejaVuSans-74" transform="translate(567.431641 0)"/>
      <use xlink:href="#DejaVuSans-65" transform="translate(606.640625 0)"/>
      <use xlink:href="#DejaVuSans-73" transform="translate(668.164062 0)"/>
      <use xlink:href="#DejaVuSans-29" transform="translate(720.263672 0)"/>
     </g>
    </g>
   </g>
   <g id="matplotlib.axis_2">
    <g id="ytick_1">
     <g id="line2d_17">
      <path d="M 47.81 500.787704 
L 853.2 500.787704 
" clip-path="url(#p2bb3fa98c6)" style="fill: none; stroke: #b0b0b0; stroke-opacity: 0.3; stroke-width: 0.8; stroke-linecap: square"/>
     </g>
     <g id="line2d_18">
      <defs>
       <path id="md3afad4b4c" d="M 0 0 
L -3.5 0 
" style="stroke: #000000; stroke-width: 0.8"/>
      </defs>
      <g>
       <use xlink:href="#md3afad4b4c" x="47.81" y="500.787704" style="stroke: #000000; stroke-width: 0.8"/>
      </g>
     </g>
     <g id="text_10">
      <!-- 0.1 -->
      <g transform="translate(24.906875 504.586923) scale(0.1 -0.1)">
       <defs>
        <path id="DejaVuSans-2e" d="M 684 794 
L 1344 794 
L 1344 0 
L 684 0 
L 684 794 
z
" transform="scale(0.015625)"/>
       </defs>
       <use xlink:href="#DejaVuSans-30"/>
       <use xlink:href="#DejaVuSans-2e" transform="translate(63.623047 0)"/>
       <use xlink:href="#DejaVuSans-31" transform="translate(95.410156 0)"/>
      </g>
     </g>
    </g>
    <g id="ytick_2">
     <g id="line2d_19">
      <path d="M 47.81 434.255967 
L 853.2 434.255967 
" clip-path="url(#p2bb3fa98c6)" style="fill: none; stroke: #b0b0b0; stroke-opacity: 0.3; stroke-width: 0.8; stroke-linecap: square"/>
     </g>
     <g id="line2d_20">
      <g>
       <use xlink:href="#md3afad4b4c" x="47.81" y="434.255967" style="stroke: #000000; stroke-width: 0.8"/>
      </g>
     </g>
     <g id="text_11">
      <!-- 0.2 -->
      <g transform="translate(24.906875 438.055186) scale(0.1 -0.1)">
       <use xlink:href="#DejaVuSans-30"/>
       <use xlink:href="#DejaVuSans-2e" transform="translate(63.623047 0)"/>
       <use xlink:href="#DejaVuSans-32" transform="translate(95.410156 0)"/>
      </g>
     </g>
    </g>
    <g id="ytick_3">
     <g id="line2d_21">
      <path d="M 47.81 367.72423 
L 853.2 367.72423 
" clip-path="url(#p2bb3fa98c6)" style="fill: none; stroke: #b0b0b0; stroke-opacity: 0.3; stroke-width: 0.8; stroke-linecap: square"/>
     </g>
     <g id="line2d_22">
      <g>
       <use xlink:href="#md3afad4b4c" x="47.81" y="367.72423" style="stroke: #000000; stroke-width: 0.8"/>
      </g>
     </g>
     <g id="text_12">
      <!-- 0.3 -->
      <g transform="translate(24.906875 371.523449) scale(0.1 -0.1)">
       <defs>
        <path id="DejaVuSans-33" d="M 2597 2516 
Q 3050 2419 3304 2112 
Q 3559 1806 3559 1356 
Q 3559 666 3084 287 
Q 2609 -91 1734 -91 
Q 1441 -91 1130 -33 
Q 819 25 488 141 
L 488 750 
Q 750 597 1062 519 
Q 1375 441 1716 441 
Q 2309 441 2620 675 
Q 2931 909 2931 1356 
Q 2931 1769 2642 2001 
Q 2353 2234 1838 2234 
L 1294 2234 
L 1294 2753 
L 1863 2753 
Q 2328 2753 2575 2939 
Q 2822 3125 2822 3475 
Q 2822 3834 2567 4026 
Q 2313 4219 1838 4219 
Q 1578 4219 1281 4162 
Q 984 4106 628 3988 
L 628 4550 
Q 988 4650 1302 4700 
Q 1616 4750 1894 4750 
Q 2613 4750 3031 4423 
Q 3450 4097 3450 3541 
Q 3450 3153 3228 2886 
Q 3006 2619 2597 2516 
z
" transform="scale(0.015625)"/>
       </defs>
       <use xlink:href="#DejaVuSans-30"/>
       <use xlink:href="#DejaVuSans-2e" transform="translate(63.623047 0)"/>
       <use xlink:href="#DejaVuSans-33" transform="translate(95.410156 0)"/>
      </g>
     </g>
    </g>
    <g id="ytick_4">
     <g id="line2d_23">
      <path d="M 47.81 301.192493 
L 853.2 301.192493 
" clip-path="url(#p2bb3fa98c6)" style="fill: none; stroke: #b0b0b0; stroke-opacity: 0.3; stroke-width: 0.8; stroke-linecap: square"/>
     </g>
     <g id="line2d_24">
      <g>
       <use xlink:href="#md3afad4b4c" x="47.81" y="301.192493" style="stroke: #000000; stroke-width: 0.8"/>
      </g>
     </g>
     <g id="text_13">
      <!-- 0.4 -->
      <g transform="translate(24.906875 304.991712) scale(0.1 -0.1)">
       <use xlink:href="#DejaVuSans-30"/>
       <use xlink:href="#DejaVuSans-2e" transform="translate(63.623047 0)"/>
       <use xlink:href="#DejaVuSans-34" transform="translate(95.410156 0)"/>
      </g>
     </g>
    </g>
    <g id="ytick_5">
     <g id="line2d_25">
      <path d="M 47.81 234.660756 
L 853.2 234.660756 
" clip-path="url(#p2bb3fa98c6)" style="fill: none; stroke: #b0b0b0; stroke-opacity: 0.3; stroke-width: 0.8; stroke-linecap: square"/>
     </g>
     <g id="line2d_26">
      <g>
       <use xlink:href="#md3afad4b4c" x="47.81" y="234.660756" style="stroke: #000000; stroke-width: 0.8"/>
      </g>
     </g>
     <g id="text_14">
      <!-- 0.5 -->
      <g transform="translate(24.906875 238.459975) scale(0.1 -0.1)">
       <defs>
        <path id="DejaVuSans-35" d="M 691 4666 
L 3169 4666 
L 3169 4134 
L 1269 4134 
L 1269 2991 
Q 1406 3038 1543 3061 
Q 1681 3084 1819 3084 
Q 2600 3084 3056 2656 
Q 3513 2228 3513 1497 
Q 3513 744 3044 326 
Q 2575 -91 1722 -91 
Q 1428 -91 1123 -41 
Q 819 9 494 109 
L 494 744 
Q 775 591 1075 516 
Q 1375 441 1709 441 
Q 2250 441 2565 725 
Q 2881 1009 2881 1497 
Q 2881 1984 2565 2268 
Q 2250 2553 1709 2553 
Q 1456 2553 1204 2497 
Q 953 2441 691 2322 
L 691 4666 
z
" transform="scale(0.015625)"/>
       </defs>
       <use xlink:href="#DejaVuSans-30"/>
       <use xlink:href="#DejaVuSans-2e" transform="translate(63.623047 0)"/>
       <use xlink:href="#DejaVuSans-35" transform="translate(95.410156 0)"/>
      </g>
     </g>
    </g>
    <g id="ytick_6">
     <g id="line2d_27">
      <path d="M 47.81 168.129019 
L 853.2 168.129019 
" clip-path="url(#p2bb3fa98c6)" style="fill: none; stroke: #b0b0b0; stroke-opacity: 0.3; stroke-width: 0.8; stroke-linecap: square"/>
     </g>
     <g id="line2d_28">
      <g>
       <use xlink:href="#md3afad4b4c" x="47.81" y="168.129019" style="stroke: #000000; stroke-width: 0.8"/>
      </g>
     </g>
     <g id="text_15">
      <!-- 0.6 -->
      <g transform="translate(24.906875 171.928238) scale(0.1 -0.1)">
       <use xlink:href="#DejaVuSans-30"/>
       <use xlink:href="#DejaVuSans-2e" transform="translate(63.623047 0)"/>
       <use xlink:href="#DejaVuSans-36" transform="translate(95.410156 0)"/>
      </g>
     </g>
    </g>
    <g id="ytick_7">
     <g id="line2d_29">
      <path d="M 47.81 101.597282 
L 853.2 101.597282 
" clip-path="url(#p2bb3fa98c6)" style="fill: none; stroke: #b0b0b0; stroke-opacity: 0.3; stroke-width: 0.8; stroke-linecap: square"/>
     </g>
     <g id="line2d_30">
      <g>
       <use xlink:href="#md3afad4b4c" x="47.81" y="101.597282" style="stroke: #000000; stroke-width: 0.8"/>
      </g>
     </g>
     <g id="text_16">
      <!-- 0.7 -->
      <g transform="translate(24.906875 105.396501) scale(0.1 -0.1)">
       <defs>
        <path id="DejaVuSans-37" d="M 525 4666 
L 3525 4666 
L 3525 4397 
L 1831 0 
L 1172 0 
L 2766 4134 
L 525 4134 
L 525 4666 
z
" transform="scale(0.015625)"/>
       </defs>
       <use xlink:href="#DejaVuSans-30"/>
       <use xlink:href="#DejaVuSans-2e" transform="translate(63.623047 0)"/>
       <use xlink:href="#DejaVuSans-37" transform="translate(95.410156 0)"/>
      </g>
     </g>
    </g>
    <g id="ytick_8">
     <g id="line2d_31">
      <path d="M 47.81 35.065546 
L 853.2 35.065546 
" clip-path="url(#p2bb3fa98c6)" style="fill: none; stroke: #b0b0b0; stroke-opacity: 0.3; stroke-width: 0.8; stroke-linecap: square"/>
     </g>
     <g id="line2d_32">
      <g>
       <use xlink:href="#md3afad4b4c" x="47.81" y="35.065546" style="stroke: #000000; stroke-width: 0.8"/>
      </g>
     </g>
     <g id="text_17">
      <!-- 0.8 -->
      <g transform="translate(24.906875 38.864764) scale(0.1 -0.1)">
       <use xlink:href="#DejaVuSans-30"/>
       <use xlink:href="#DejaVuSans-2e" transform="translate(63.623047 0)"/>
       <use xlink:href="#DejaVuSans-38" transform="translate(95.410156 0)"/>
      </g>
     </g>
    </g>
    <g id="text_18">
     <!-- EDA (μS) -->
     <g transform="translate(18.827187 301.928281) rotate(-90) scale(0.1 -0.1)">
      <defs>
       <path id="DejaVuSans-45" d="M 628 4666 
L 3578 4666 
L 3578 4134 
L 1259 4134 
L 1259 2753 
L 3481 2753 
L 3481 2222 
L 1259 2222 
L 1259 531 
L 3634 531 
L 3634 0 
L 628 0 
L 628 4666 
z
" transform="scale(0.015625)"/>
       <path id="DejaVuSans-44" d="M 1259 4147 
L 1259 519 
L 2022 519 
Q 2988 519 3436 956 
Q 3884 1394 3884 2338 
Q 3884 3275 3436 3711 
Q 2988 4147 2022 4147 
L 1259 4147 
z
M 628 4666 
L 1925 4666 
Q 3281 4666 3915 4102 
Q 4550 3538 4550 2338 
Q 4550 1131 3912 565 
Q 3275 0 1925 0 
L 628 0 
L 628 4666 
z
" transform="scale(0.015625)"/>
       <path id="DejaVuSans-41" d="M 2188 4044 
L 1331 1722 
L 3047 1722 
L 2188 4044 
z
M 1831 4666 
L 2547 4666 
L 4325 0 
L 3669 0 
L 3244 1197 
L 1141 1197 
L 716 0 
L 50 0 
L 1831 4666 
z
" transform="scale(0.015625)"/>
       <path id="DejaVuSans-3bc" d="M 544 -1331 
L 544 3500 
L 1119 3500 
L 1119 1325 
Q 1119 872 1334 640 
Q 1550 409 1972 409 
Q 2434 409 2667 671 
Q 2900 934 2900 1459 
L 2900 3500 
L 3475 3500 
L 3475 806 
Q 3475 619 3529 530 
Q 3584 441 3700 441 
Q 3728 441 3778 458 
Q 3828 475 3916 513 
L 3916 50 
Q 3788 -22 3673 -56 
Q 3559 -91 3450 -91 
Q 3234 -91 3106 31 
Q 2978 153 2931 403 
Q 2775 156 2548 32 
Q 2322 -91 2016 -91 
Q 1697 -91 1473 31 
Q 1250 153 1119 397 
L 1119 -1331 
L 544 -1331 
z
" transform="scale(0.015625)"/>
       <path id="DejaVuSans-53" d="M 3425 4513 
L 3425 3897 
Q 3066 4069 2747 4153 
Q 2428 4238 2131 4238 
Q 1616 4238 1336 4038 
Q 1056 3838 1056 3469 
Q 1056 3159 1242 3001 
Q 1428 2844 1947 2747 
L 2328 2669 
Q 3034 2534 3370 2195 
Q 3706 1856 3706 1288 
Q 3706 609 3251 259 
Q 2797 -91 1919 -91 
Q 1588 -91 1214 -16 
Q 841 59 441 206 
L 441 856 
Q 825 641 1194 531 
Q 1563 422 1919 422 
Q 2459 422 2753 634 
Q 3047 847 3047 1241 
Q 3047 1584 2836 1778 
Q 2625 1972 2144 2069 
L 1759 2144 
Q 1053 2284 737 2584 
Q 422 2884 422 3419 
Q 422 4038 858 4394 
Q 1294 4750 2059 4750 
Q 2388 4750 2728 4690 
Q 3069 4631 3425 4513 
z
" transform="scale(0.015625)"/>
      </defs>
      <use xlink:href="#DejaVuSans-45"/>
      <use xlink:href="#DejaVuSans-44" transform="translate(63.183594 0)"/>
      <use xlink:href="#DejaVuSans-41" transform="translate(138.435547 0)"/>
      <use xlink:href="#DejaVuSans-20" transform="translate(206.84375 0)"/>
      <use xlink:href="#DejaVuSans-28" transform="translate(238.630859 0)"/>
      <use xlink:href="#DejaVuSans-3bc" transform="translate(277.644531 0)"/>
      <use xlink:href="#DejaVuSans-53" transform="translate(341.267578 0)"/>
      <use xlink:href="#DejaVuSans-29" transform="translate(404.744141 0)"/>
     </g>
    </g>
   </g>
   <g id="line2d_33">
    <path d="M 84.418636 323.698289 
L 84.825625 342.172988 
L 85.232614 367.727339 
L 85.436108 373.416688 
L 85.639603 373.873833 
L 86.046591 371.741404 
L 86.657074 372.625446 
L 86.860569 372.469912 
L 87.064063 372.601351 
L 87.878041 374.834086 
L 88.081535 374.757083 
L 88.285029 374.442056 
L 88.692018 373.143098 
L 89.099007 371.212804 
L 91.540939 356.191379 
L 91.947928 355.869882 
L 92.151422 355.798767 
L 92.354917 355.952434 
L 92.558411 356.514941 
L 93.982872 363.405916 
L 95.000343 369.480506 
L 95.610826 370.866174 
L 96.22131 372.430913 
L 96.628298 373.050335 
L 97.035287 373.190156 
L 98.052759 373.064193 
L 99.680714 375.227441 
L 100.494691 375.977918 
L 100.698186 375.842825 
L 101.308669 374.952801 
L 101.715657 374.877017 
L 102.122646 374.969446 
L 102.529635 375.608628 
L 102.936624 376.181653 
L 103.343612 376.267569 
L 103.547107 376.476764 
L 104.15759 377.457412 
L 104.564579 377.357303 
L 104.768073 377.301 
L 104.971567 377.426003 
L 105.785545 378.688494 
L 106.396028 377.556906 
L 106.599522 377.620861 
L 107.210005 378.540887 
L 107.820488 378.529769 
L 108.634466 379.341033 
L 108.83796 379.080434 
L 109.448443 376.830458 
L 109.651938 376.821552 
L 110.262421 378.611806 
L 110.465915 378.715491 
L 110.872904 378.487637 
L 111.076398 378.541496 
L 111.686881 379.369627 
L 111.890376 379.349204 
L 112.500859 378.685534 
L 113.111342 378.858385 
L 113.314836 378.502593 
L 113.925319 377.027511 
L 114.128814 377.113546 
L 114.332308 377.323582 
L 114.535802 377.281354 
L 114.739297 376.755797 
L 115.34978 374.33762 
L 115.553274 374.374196 
L 116.163757 376.031361 
L 116.367252 376.131656 
L 116.570746 376.080926 
L 116.77424 376.180451 
L 117.384724 377.334871 
L 117.995207 377.471088 
L 119.012679 378.780287 
L 119.623162 378.537945 
L 119.826656 378.775308 
L 120.640633 380.869791 
L 120.844128 380.653258 
L 121.251117 379.952652 
L 121.454611 379.925315 
L 122.268588 380.825411 
L 122.675577 380.645223 
L 122.879071 380.833229 
L 123.28606 381.373669 
L 123.489555 380.958348 
L 123.896543 379.110716 
L 124.100038 379.292144 
L 124.303532 380.965968 
L 124.914015 387.772633 
L 125.117509 388.369421 
L 125.524498 388.526348 
L 125.727993 388.916202 
L 126.134981 390.240203 
L 126.338476 390.416954 
L 126.745464 389.444522 
L 126.948959 390.005488 
L 127.355947 393.695073 
L 127.559442 391.472452 
L 127.762936 382.788163 
L 128.373419 347.983968 
L 128.576914 347.296847 
L 128.780408 351.911732 
L 129.594386 381.118171 
L 129.79788 379.440843 
L 130.204869 359.280108 
L 130.611857 342.58688 
L 130.815352 341.2274 
L 131.22234 342.719321 
L 131.425835 342.156567 
L 131.832824 340.239764 
L 132.239812 339.685965 
L 132.850295 338.888068 
L 133.257284 338.704128 
L 133.460778 338.255624 
L 134.071262 335.866654 
L 134.274756 336.278874 
L 134.681745 338.439649 
L 134.885239 338.514246 
L 135.292228 336.431742 
L 135.495722 336.277594 
L 136.106205 339.703143 
L 136.3097 339.045061 
L 136.716688 336.742756 
L 136.920183 336.797232 
L 137.73416 339.455479 
L 138.344643 343.509551 
L 138.548138 343.645662 
L 138.751632 343.023811 
L 139.158621 340.75982 
L 139.769104 335.990346 
L 139.972598 335.412849 
L 140.176093 335.377293 
L 140.379587 335.154651 
L 140.583081 334.156768 
L 141.397059 327.772317 
L 141.804047 326.725628 
L 142.007542 325.584135 
L 142.414531 320.362078 
L 143.432002 303.530902 
L 143.838991 299.142126 
L 144.042485 299.411944 
L 144.652969 305.367698 
L 144.856463 305.248656 
L 145.059957 304.61653 
L 145.263452 304.686351 
L 145.67044 307.648784 
L 146.077429 310.755957 
L 146.484418 312.655357 
L 146.687912 313.185561 
L 147.298395 313.753267 
L 147.705384 315.09847 
L 148.112373 316.300657 
L 148.315867 316.355777 
L 148.92635 315.737565 
L 149.333339 315.743482 
L 149.536833 315.89413 
L 150.147316 317.122502 
L 150.350811 316.824019 
L 150.7578 315.167422 
L 150.961294 315.48614 
L 151.368283 318.332204 
L 151.571777 318.868643 
L 151.775271 318.740617 
L 151.978766 319.430716 
L 152.18226 322.240409 
L 152.589249 330.074712 
L 152.792743 330.006672 
L 153.403226 318.276773 
L 153.606721 318.194797 
L 154.013709 321.127258 
L 154.217204 320.995968 
L 154.827687 317.408319 
L 155.031181 315.502048 
L 155.845159 303.875634 
L 156.048653 303.873513 
L 156.252147 305.399787 
L 156.455642 308.894974 
L 157.066125 324.020572 
L 157.269619 324.172494 
L 158.083597 314.638605 
L 158.490585 313.65937 
L 159.304563 310.581248 
L 159.711552 310.23375 
L 159.915046 310.168013 
L 160.11854 310.330292 
L 160.322035 310.91319 
L 161.136012 314.855544 
L 161.339507 314.981883 
L 161.543001 314.585814 
L 161.94999 312.684286 
L 162.356978 310.660822 
L 162.560473 310.148136 
L 162.763967 310.052711 
L 163.37445 310.606024 
L 163.984933 310.705573 
L 164.595416 311.322768 
L 165.205899 311.531411 
L 165.409394 311.593007 
L 165.612888 311.438731 
L 166.019877 310.806359 
L 166.223371 310.777005 
L 166.63036 311.109295 
L 167.240843 311.313548 
L 167.647832 311.682034 
L 167.851326 311.647098 
L 168.258315 311.190822 
L 168.665304 310.13483 
L 169.072292 309.021709 
L 169.479281 308.675949 
L 170.293259 308.492125 
L 170.496753 308.441795 
L 170.700247 308.546305 
L 171.107236 309.227359 
L 171.514225 309.990868 
L 171.717719 310.092944 
L 171.921214 309.879449 
L 172.328202 309.256278 
L 172.531697 309.363964 
L 172.735191 309.665306 
L 172.938685 309.767396 
L 173.14218 309.391424 
L 173.752663 307.100897 
L 173.956157 306.91738 
L 174.159652 307.10346 
L 174.770135 307.944195 
L 175.380618 308.230413 
L 175.787606 309.094847 
L 175.991101 309.524744 
L 176.194595 309.632669 
L 176.601584 309.144009 
L 176.805078 309.151386 
L 177.008573 309.581262 
L 177.619056 311.418096 
L 177.82255 311.363226 
L 178.229539 310.873013 
L 178.433033 311.024462 
L 178.840022 311.559506 
L 179.043516 311.378651 
L 179.450505 310.512816 
L 179.653999 310.335296 
L 180.060988 310.54288 
L 180.874966 310.937521 
L 181.281954 311.487946 
L 181.485449 311.494655 
L 181.688943 311.172568 
L 182.909909 307.846884 
L 183.316898 307.903582 
L 184.130875 308.221182 
L 184.537864 308.435009 
L 184.741359 308.503179 
L 184.944853 308.802761 
L 185.555336 310.378701 
L 185.75883 310.3967 
L 186.165819 310.003104 
L 186.369314 310.01253 
L 186.979797 310.505594 
L 187.386785 310.208322 
L 187.59028 310.333191 
L 188.200763 311.195521 
L 189.218235 311.091271 
L 189.625223 311.378891 
L 190.032212 311.924685 
L 190.235706 312.009687 
L 190.84619 311.422693 
L 191.253178 311.772253 
L 191.456673 311.71334 
L 191.863661 311.151445 
L 192.067156 311.203669 
L 192.881133 312.526992 
L 193.084628 312.367233 
L 193.695111 311.149546 
L 193.898605 311.311549 
L 194.509088 312.98819 
L 194.712582 313.09781 
L 195.119571 313.149065 
L 195.730054 314.15401 
L 195.933549 314.013492 
L 196.544032 312.59145 
L 196.747526 312.769336 
L 197.154515 313.670882 
L 197.358009 313.839156 
L 198.78247 313.408794 
L 199.189459 312.904997 
L 199.596447 312.412123 
L 200.410425 311.945853 
L 200.613919 312.228694 
L 201.020908 313.101708 
L 201.224402 313.138165 
L 201.834885 312.412226 
L 202.445368 313.729929 
L 202.648863 313.616933 
L 203.055851 312.584311 
L 203.259346 312.449698 
L 203.666335 313.279709 
L 204.073323 313.979249 
L 204.480312 314.262928 
L 204.683806 314.11459 
L 205.29429 312.893392 
L 205.497784 313.041098 
L 205.904773 313.470425 
L 206.515256 313.144509 
L 206.922244 314.125398 
L 207.329233 314.995743 
L 207.939716 315.735762 
L 208.346705 316.369745 
L 208.753694 316.529324 
L 209.364177 316.548432 
L 209.97466 315.44181 
L 210.178154 315.864025 
L 210.585143 317.70536 
L 210.788637 318.012705 
L 211.39912 317.030928 
L 211.602615 317.306181 
L 212.213098 318.865228 
L 212.416592 319.080613 
L 212.620087 319.11316 
L 213.027075 318.747386 
L 213.434064 318.401415 
L 214.044547 318.738385 
L 214.65503 318.260788 
L 215.469008 319.547355 
L 215.875997 318.967915 
L 216.079491 318.857569 
L 216.48648 318.987389 
L 216.893468 319.472783 
L 217.503951 320.353905 
L 217.707446 320.454435 
L 218.521423 320.380302 
L 219.335401 321.900504 
L 219.538895 321.855539 
L 220.352873 320.967077 
L 220.759861 321.352085 
L 221.370344 321.942757 
L 221.777333 322.270234 
L 221.980827 322.28508 
L 222.794805 321.956325 
L 223.201794 322.396216 
L 223.405288 322.124659 
L 223.608782 321.383592 
L 223.812277 321.161449 
L 224.015771 323.082062 
L 224.829749 342.22577 
L 225.033243 340.718089 
L 225.643726 331.658688 
L 226.050715 328.40641 
L 227.068187 314.581452 
L 227.475175 305.901714 
L 227.882164 296.375461 
L 228.085658 294.078223 
L 228.289153 293.319993 
L 228.696142 292.975531 
L 228.899636 292.966552 
L 229.10313 293.484645 
L 229.713613 296.378758 
L 230.324096 297.587218 
L 230.93458 300.042306 
L 231.341568 300.697926 
L 232.155546 301.429679 
L 232.766029 301.188914 
L 233.376512 302.935155 
L 233.580006 302.828681 
L 233.783501 302.507165 
L 233.986995 302.505586 
L 234.190489 303.065415 
L 234.800973 305.390588 
L 235.61495 306.141672 
L 235.818444 306.243533 
L 236.021939 306.06894 
L 236.428927 305.479419 
L 236.632422 305.519619 
L 237.039411 306.360832 
L 237.446399 307.222716 
L 237.853388 307.910822 
L 238.260377 309.004393 
L 238.463871 309.203272 
L 238.667365 308.929278 
L 239.074354 308.169959 
L 239.277849 308.514032 
L 239.888332 310.902799 
L 240.091826 310.713526 
L 240.29532 310.280524 
L 240.498815 310.573008 
L 240.905803 314.804457 
L 241.109298 316.764153 
L 241.312792 317.050222 
L 241.719781 315.580162 
L 241.923275 316.328309 
L 242.330264 319.148523 
L 242.533758 319.080561 
L 242.940747 315.513559 
L 243.347736 312.519207 
L 243.55123 312.288238 
L 243.958219 312.3054 
L 244.161713 312.236986 
L 244.365208 312.466115 
L 244.975691 314.012882 
L 245.179185 313.946254 
L 245.789668 313.313668 
L 245.993163 313.387614 
L 246.196657 314.034566 
L 246.400151 315.735826 
L 247.214129 325.703887 
L 247.417623 325.702793 
L 247.621118 325.875678 
L 248.231601 329.487559 
L 248.435095 327.277046 
L 248.842084 318.711045 
L 249.045578 316.643846 
L 249.249072 317.06811 
L 249.656061 320.131659 
L 250.06305 321.422893 
L 250.673533 325.32033 
L 250.877027 324.670057 
L 251.284016 320.249683 
L 251.48751 319.531843 
L 251.691005 321.175938 
L 252.097994 327.795262 
L 252.301488 329.286231 
L 252.504982 328.716079 
L 252.911971 326.444473 
L 253.31896 326.329656 
L 253.522454 325.648845 
L 253.929443 323.616345 
L 254.132937 323.552099 
L 254.336432 324.470147 
L 254.946915 328.829857 
L 255.150409 328.901881 
L 255.557398 327.922625 
L 255.760892 328.273182 
L 256.167881 329.739686 
L 256.371375 329.287547 
L 256.981858 325.509743 
L 257.185353 325.13576 
L 257.592341 325.11322 
L 258.202825 325.239169 
L 258.406319 325.002923 
L 259.016802 323.279236 
L 259.220296 323.342064 
L 259.830779 324.813382 
L 260.034274 324.542106 
L 260.441263 323.825903 
L 260.848251 324.07457 
L 261.25524 324.140491 
L 261.458734 324.16172 
L 261.865723 324.664557 
L 262.272712 325.138948 
L 262.883195 325.061559 
L 263.290184 325.561893 
L 263.493678 325.810553 
L 263.697172 325.863198 
L 264.104161 325.688997 
L 264.307656 325.831291 
L 264.918139 326.980672 
L 265.121633 326.961642 
L 265.528622 326.546239 
L 265.732116 326.749736 
L 266.139105 327.668529 
L 266.342599 327.670015 
L 266.953082 326.650568 
L 267.156577 326.829223 
L 268.581037 329.496259 
L 269.395015 329.017947 
L 269.802003 329.341171 
L 270.412486 330.132406 
L 271.02297 329.876451 
L 271.226464 330.110533 
L 271.836947 331.529963 
L 272.243936 331.767729 
L 272.854419 331.760767 
L 273.057913 331.700127 
L 273.261408 331.76693 
L 273.668396 332.475226 
L 274.075385 333.105145 
L 274.278879 333.132534 
L 274.685868 332.978736 
L 274.889363 333.074923 
L 276.110329 334.5854 
L 276.313823 334.719838 
L 276.924306 334.617877 
L 277.127801 335.060578 
L 277.534789 336.401734 
L 277.738284 336.648056 
L 278.145272 336.553796 
L 278.95925 337.05289 
L 280.180216 335.910985 
L 280.587205 335.402286 
L 281.401182 335.17336 
L 281.604677 335.502078 
L 282.21516 337.21998 
L 282.418654 337.456478 
L 283.029137 337.648297 
L 283.436126 338.367783 
L 283.63962 338.363448 
L 283.843115 337.781711 
L 284.453598 335.261149 
L 284.657092 335.197454 
L 284.860586 335.32162 
L 285.064081 335.222468 
L 285.47107 334.194405 
L 285.674564 334.182708 
L 285.878058 335.138427 
L 286.692036 341.556922 
L 286.89553 341.97073 
L 287.099024 342.11765 
L 287.302519 342.118889 
L 287.506013 341.899466 
L 287.913002 340.632157 
L 288.726979 337.811043 
L 289.133968 333.19671 
L 289.540957 328.280007 
L 289.744451 327.356971 
L 289.947946 327.418437 
L 290.558429 328.8239 
L 290.761923 328.583957 
L 291.168912 326.579127 
L 291.575901 324.76497 
L 291.779395 324.592757 
L 292.186384 325.161854 
L 292.796867 326.105555 
L 293.000361 326.281181 
L 293.203855 326.243296 
L 293.610844 325.505974 
L 294.017833 324.922724 
L 295.035305 324.812573 
L 295.238799 325.256419 
L 295.849282 327.394314 
L 296.052777 327.462647 
L 296.256271 327.397285 
L 296.459765 327.497688 
L 297.070248 328.476878 
L 297.273743 328.558367 
L 297.680731 328.24965 
L 298.08772 327.92975 
L 299.105192 327.473556 
L 299.308686 327.573403 
L 299.919169 328.135965 
L 300.122664 327.786358 
L 300.529653 326.455203 
L 300.733147 326.282564 
L 300.936641 326.68291 
L 301.34363 327.811557 
L 301.547124 327.851234 
L 301.954113 327.376223 
L 302.157608 327.400151 
L 302.564596 328.080316 
L 302.971585 329.415825 
L 303.378574 330.831236 
L 303.582068 330.856191 
L 304.192551 329.266195 
L 304.396046 329.57226 
L 304.803034 330.50981 
L 305.006529 330.270071 
L 305.413517 329.345295 
L 305.617012 329.482384 
L 306.024 330.307896 
L 306.227495 330.298686 
L 306.634484 329.79868 
L 306.837978 329.82731 
L 307.041472 330.008906 
L 307.244967 330.041004 
L 307.85545 328.994021 
L 308.058944 329.147597 
L 309.076416 331.497963 
L 309.483405 331.916224 
L 309.890393 331.818333 
L 310.297382 331.653562 
L 310.500876 331.744692 
L 311.11136 332.517814 
L 311.314854 332.434709 
L 311.721843 332.001551 
L 311.925337 332.013878 
L 312.53582 332.548881 
L 312.942809 332.286114 
L 313.349798 332.096292 
L 313.756786 332.353358 
L 314.570764 332.994399 
L 314.977753 333.034146 
L 315.384741 333.549243 
L 315.79173 334.053022 
L 316.198719 334.212277 
L 316.809202 334.245937 
L 317.216191 334.351109 
L 317.419685 334.311387 
L 317.623179 334.483028 
L 317.826674 335.124553 
L 318.437157 337.930688 
L 318.640651 338.099781 
L 319.251134 337.893095 
L 319.454629 337.877242 
L 320.268606 337.316037 
L 321.286078 337.778484 
L 321.693067 338.737665 
L 322.100055 339.78724 
L 322.30355 339.80554 
L 322.914033 338.851138 
L 323.524516 340.590121 
L 323.72801 340.261097 
L 324.134999 339.237392 
L 324.338493 339.470936 
L 324.745482 340.331666 
L 324.948976 340.311984 
L 325.55946 339.541542 
L 325.762954 339.48604 
L 325.966448 339.597721 
L 327.187414 341.085614 
L 327.594403 341.027128 
L 328.001392 340.812905 
L 328.204886 341.04687 
L 328.815369 343.040776 
L 329.018864 342.991791 
L 329.425852 341.899171 
L 329.629347 341.853303 
L 329.832841 342.550939 
L 330.23983 344.761372 
L 330.443324 344.818214 
L 330.850313 342.470083 
L 331.053807 342.649474 
L 331.257302 345.342902 
L 331.664291 352.931611 
L 331.867785 353.135896 
L 332.478268 346.768586 
L 332.681762 347.244191 
L 332.885257 348.078376 
L 333.088751 348.268535 
L 333.699234 346.575345 
L 333.902729 346.92647 
L 334.513212 350.550717 
L 334.716706 350.026585 
L 335.123695 346.529516 
L 335.327189 347.94483 
L 335.530683 353.924043 
L 336.344661 390.394092 
L 336.75165 398.971168 
L 337.158638 404.202142 
L 337.362133 405.344022 
L 337.565627 405.369919 
L 337.972616 403.427806 
L 338.583099 399.565572 
L 338.990088 398.408808 
L 339.193582 398.265872 
L 339.600571 398.380576 
L 340.211054 398.742886 
L 341.43202 400.649475 
L 341.839009 402.203293 
L 342.245998 403.81577 
L 342.652986 404.460733 
L 343.263469 405.122031 
L 343.466964 405.07997 
L 343.873952 404.37956 
L 344.077447 404.328663 
L 344.68793 405.576473 
L 344.891424 405.368697 
L 345.501907 403.739244 
L 345.705402 403.782887 
L 346.11239 404.89311 
L 346.722874 406.722458 
L 346.926368 406.917777 
L 347.129862 406.710893 
L 347.536851 405.697952 
L 347.740345 405.795622 
L 348.147334 407.022587 
L 348.350828 405.660836 
L 348.757817 394.593668 
L 349.164806 383.830452 
L 349.3683 383.086422 
L 349.775289 385.1969 
L 349.978783 383.963958 
L 350.589267 373.464377 
L 350.792761 372.698128 
L 350.996255 373.791875 
L 351.403244 377.151303 
L 351.606738 378.012196 
L 352.420716 379.279955 
L 352.62421 379.527192 
L 352.827705 379.53294 
L 353.031199 379.216633 
L 353.234693 378.516492 
L 353.641682 375.562965 
L 354.252165 368.844267 
L 354.455659 368.024025 
L 354.659154 368.188232 
L 355.066143 369.037933 
L 355.269637 368.829845 
L 355.88012 367.271552 
L 356.083614 367.092338 
L 356.490603 367.216961 
L 356.694097 367.265085 
L 356.897592 367.085857 
L 358.729041 363.480615 
L 359.339524 361.447722 
L 359.543019 361.302153 
L 360.153502 361.902569 
L 360.356996 361.424555 
L 361.170974 358.069662 
L 361.577962 357.367911 
L 362.39194 355.103745 
L 362.595434 355.408057 
L 363.002423 356.593083 
L 363.205917 356.527836 
L 363.8164 354.200053 
L 364.019895 354.258166 
L 364.426883 355.027299 
L 364.630378 355.069998 
L 364.833872 354.834109 
L 365.037366 354.338837 
L 365.444355 352.314959 
L 365.64785 351.228102 
L 365.851344 350.756569 
L 366.054838 351.009422 
L 366.461827 351.767473 
L 366.868816 351.466604 
L 367.275804 351.663418 
L 367.479299 351.431708 
L 368.089782 348.86116 
L 368.293276 348.945932 
L 368.903759 350.70366 
L 369.107254 350.571754 
L 369.514243 350.158557 
L 369.921231 350.454549 
L 370.124726 350.583018 
L 370.32822 350.484332 
L 370.938703 349.423728 
L 371.142197 349.658482 
L 371.549186 351.436927 
L 371.752681 352.363497 
L 371.956175 352.765418 
L 372.159669 352.429228 
L 372.973647 349.07427 
L 373.380635 348.664503 
L 373.991119 348.562152 
L 374.398107 347.614619 
L 374.805096 346.747123 
L 375.00859 346.718838 
L 375.212085 347.019308 
L 376.026062 349.35135 
L 376.229557 349.419351 
L 376.636545 349.314012 
L 377.247028 349.851677 
L 377.450523 349.629491 
L 377.857511 348.530723 
L 378.061006 348.448997 
L 378.467995 349.830584 
L 378.671489 350.422312 
L 378.874983 350.462502 
L 379.485466 349.587183 
L 379.892455 349.81422 
L 380.09595 349.93676 
L 380.299444 349.923843 
L 380.502938 349.653068 
L 380.909927 348.570243 
L 381.113421 348.465643 
L 381.723904 350.068487 
L 382.130893 349.795095 
L 382.334388 350.673453 
L 382.944871 356.616436 
L 383.555354 358.157334 
L 384.369331 363.510785 
L 384.572826 363.440194 
L 384.77632 362.400391 
L 385.793792 353.78206 
L 385.997286 354.212164 
L 386.20078 355.281299 
L 386.404275 355.697307 
L 386.607769 354.014362 
L 387.218252 342.88336 
L 387.421747 343.516092 
L 388.235724 354.96698 
L 388.439219 355.10213 
L 388.846207 354.703556 
L 389.049702 354.816872 
L 389.660185 355.702865 
L 390.474162 357.183619 
L 390.677657 357.120552 
L 390.881151 356.939001 
L 391.084645 356.94831 
L 391.491634 357.923787 
L 391.695128 358.389552 
L 391.898623 358.414159 
L 392.509106 357.247284 
L 392.7126 357.439832 
L 393.323083 358.489593 
L 393.730072 358.974602 
L 394.137061 359.514667 
L 394.544049 359.562885 
L 395.154533 359.323341 
L 395.358027 359.520154 
L 395.765016 360.243126 
L 395.96851 360.125223 
L 396.375499 358.770345 
L 396.578993 358.86157 
L 396.782487 360.277243 
L 398.003454 375.089903 
L 398.206948 375.532907 
L 398.410442 374.192919 
L 398.817431 370.791255 
L 399.020926 370.991027 
L 399.22442 372.05794 
L 399.427914 372.302012 
L 399.631409 370.127199 
L 400.241892 355.397247 
L 400.445386 354.719546 
L 400.852375 361.275873 
L 401.055869 364.418596 
L 401.259364 365.741709 
L 401.462858 365.738495 
L 401.666352 365.595398 
L 401.869847 366.071257 
L 402.073341 366.940247 
L 402.276835 367.313112 
L 402.48033 366.467194 
L 403.294307 359.510222 
L 403.497802 359.428692 
L 403.90479 360.024073 
L 404.311779 360.983368 
L 404.718768 362.069189 
L 405.125756 362.497994 
L 405.73624 362.558604 
L 406.143228 362.67476 
L 407.364195 363.811784 
L 408.585161 365.182016 
L 410.213116 365.718177 
L 410.823599 365.843985 
L 411.230587 366.289661 
L 411.637576 366.950196 
L 411.841071 367.044165 
L 412.451554 366.531068 
L 412.655048 366.626922 
L 413.265531 367.500486 
L 413.469025 367.512863 
L 413.67252 367.409963 
L 413.876014 367.446877 
L 414.486497 368.610069 
L 414.689992 368.492129 
L 415.09698 367.686116 
L 415.300475 367.721606 
L 415.910958 368.8368 
L 416.317947 368.710829 
L 416.521441 368.827086 
L 417.131924 369.608693 
L 417.538913 369.731105 
L 418.35289 370.554839 
L 418.963373 370.143158 
L 419.166868 370.171052 
L 419.573856 370.589582 
L 419.980845 370.964792 
L 420.998317 371.292955 
L 421.201811 371.128369 
L 421.812294 370.251754 
L 422.015789 370.274248 
L 422.626272 370.916458 
L 423.033261 370.893335 
L 423.440249 370.83531 
L 423.847238 371.371125 
L 424.050732 371.628236 
L 424.254227 371.644986 
L 424.661216 371.38566 
L 424.86471 371.560161 
L 425.475193 372.854047 
L 425.678687 372.939795 
L 426.28917 372.753361 
L 426.899654 373.274595 
L 427.306642 373.354928 
L 427.713631 374.116708 
L 427.917125 374.531902 
L 428.12062 374.659452 
L 428.731103 374.287339 
L 429.138092 374.617892 
L 429.748575 375.226405 
L 430.359058 375.407289 
L 430.969541 375.877543 
L 431.37653 375.928438 
L 432.190507 376.423734 
L 432.597496 376.306717 
L 433.004485 376.31208 
L 433.411473 375.974031 
L 433.614968 376.007956 
L 434.021956 376.958815 
L 434.428945 377.790931 
L 434.632439 377.736438 
L 435.242923 376.654545 
L 435.446417 376.640845 
L 435.853406 377.034809 
L 436.0569 376.917719 
L 437.074372 374.948664 
L 437.277866 375.182972 
L 437.888349 376.521892 
L 438.091844 376.419912 
L 438.498832 376.040634 
L 438.702327 376.272538 
L 439.31281 377.882632 
L 439.516304 378.027572 
L 440.126787 377.819778 
L 440.533776 378.486462 
L 440.73727 378.805368 
L 440.940765 378.817543 
L 441.551248 378.004493 
L 441.754742 378.108397 
L 442.161731 378.572713 
L 442.365225 378.621809 
L 442.56872 378.459456 
L 442.975708 377.438324 
L 443.382697 376.162852 
L 443.586192 375.867178 
L 444.196675 375.642208 
L 444.603663 375.022373 
L 444.807158 374.924722 
L 445.214146 375.127326 
L 445.417641 375.065335 
L 445.621135 374.730607 
L 446.231618 373.222695 
L 446.638607 372.692168 
L 447.452585 370.577263 
L 447.859573 370.683922 
L 448.673551 369.573983 
L 449.691023 370.909453 
L 450.098011 370.741023 
L 450.505 370.54535 
L 451.115483 370.52066 
L 452.132955 370.714496 
L 452.539944 370.452093 
L 453.76091 369.244701 
L 453.964404 369.183601 
L 454.167899 369.345965 
L 454.981876 370.703995 
L 455.18537 370.657279 
L 455.795854 370.095451 
L 455.999348 370.103546 
L 456.813325 370.70812 
L 457.220314 370.971068 
L 457.627303 371.424734 
L 458.034292 371.434411 
L 458.44128 371.368216 
L 459.051763 371.416848 
L 460.069235 371.068278 
L 461.290201 371.50555 
L 461.69719 371.699323 
L 462.104179 371.527511 
L 462.511168 371.233348 
L 462.714662 371.22845 
L 463.528639 371.79997 
L 463.935628 372.306318 
L 464.342617 372.710283 
L 464.9531 372.229768 
L 465.156594 372.379354 
L 465.970572 373.698047 
L 466.174066 373.640393 
L 466.784549 373.033378 
L 467.191538 373.074587 
L 467.598527 373.232788 
L 468.005515 373.141165 
L 468.412504 373.019415 
L 468.819493 373.018692 
L 469.226482 372.918594 
L 469.836965 373.345077 
L 470.447448 372.775306 
L 471.057931 372.819202 
L 471.46492 372.616645 
L 471.668414 372.351938 
L 471.871908 371.60256 
L 472.685886 366.457145 
L 472.88938 365.767275 
L 473.092875 364.076498 
L 473.703358 354.196623 
L 473.906852 353.453855 
L 474.110346 354.629245 
L 474.517335 358.172232 
L 474.72083 359.009602 
L 475.127818 359.807653 
L 475.738301 362.267911 
L 475.941796 361.63489 
L 476.552279 356.087343 
L 476.755773 355.639153 
L 477.162762 356.09106 
L 477.366256 355.913223 
L 477.773245 355.336427 
L 477.976739 355.699662 
L 478.587222 358.20596 
L 478.790717 358.424778 
L 478.994211 358.245959 
L 479.4012 357.696416 
L 479.604694 357.736473 
L 480.418672 358.753646 
L 480.82566 358.857885 
L 481.436144 359.718646 
L 482.250121 360.847966 
L 482.453615 360.368822 
L 483.064098 357.854255 
L 483.267593 357.457347 
L 483.471087 357.475122 
L 483.674582 357.940061 
L 484.285065 360.050909 
L 484.488559 360.072831 
L 484.895548 359.584794 
L 485.099042 359.638158 
L 485.506031 360.146268 
L 485.709525 360.171816 
L 486.116514 359.52196 
L 486.320008 359.21844 
L 486.523503 359.283801 
L 487.133986 360.420237 
L 487.744469 359.202781 
L 488.354952 359.581613 
L 488.965435 358.535316 
L 489.168929 358.692725 
L 490.186401 360.610695 
L 490.389896 360.715145 
L 490.59339 360.682618 
L 491.000379 360.212731 
L 491.407367 359.69131 
L 491.610862 359.685417 
L 492.017851 360.216057 
L 493.442311 362.312441 
L 493.645805 362.431485 
L 494.256289 363.311123 
L 494.459783 363.323829 
L 494.866772 363.19735 
L 495.070266 363.386361 
L 495.477255 364.369323 
L 495.884244 365.367052 
L 496.087738 365.528306 
L 496.698221 365.442876 
L 497.715693 366.105937 
L 497.919187 366.054695 
L 498.122682 366.118163 
L 498.326176 366.522273 
L 498.936659 368.730389 
L 499.140153 368.504021 
L 499.547142 367.346293 
L 499.750636 367.527811 
L 500.36112 369.477682 
L 500.564614 369.496958 
L 500.768108 369.282573 
L 500.971603 368.89886 
L 501.175097 368.194169 
L 501.582086 365.076189 
L 501.989074 361.011393 
L 502.192569 360.147247 
L 502.396063 360.493311 
L 503.006546 363.58706 
L 503.413535 364.279981 
L 503.617029 365.483059 
L 504.431007 375.462919 
L 504.634501 373.062017 
L 505.04149 366.138006 
L 505.244984 364.837943 
L 505.651973 364.642869 
L 506.058962 362.120665 
L 506.262456 360.933269 
L 506.465951 360.546929 
L 506.669445 360.849062 
L 506.872939 361.637307 
L 507.279928 364.821645 
L 507.686917 370.176339 
L 508.704389 388.871022 
L 508.907883 389.198473 
L 509.111377 388.882754 
L 509.518366 387.266304 
L 509.72186 386.438726 
L 509.925355 386.522992 
L 510.332343 388.463965 
L 510.535838 388.259824 
L 511.146321 384.147235 
L 511.349815 383.786246 
L 511.55331 383.893295 
L 512.163793 385.08806 
L 512.367287 384.721112 
L 512.774276 383.00925 
L 512.97777 384.339626 
L 513.588253 396.421503 
L 513.791748 396.263303 
L 514.402231 389.587064 
L 514.605725 389.766139 
L 515.012714 390.615951 
L 515.623197 390.390127 
L 515.826691 389.966531 
L 516.030186 389.218724 
L 516.23368 389.023358 
L 516.437174 390.493209 
L 516.640669 393.240411 
L 516.844163 394.452691 
L 517.047658 390.867146 
L 517.454646 375.014015 
L 517.658141 374.442271 
L 518.065129 396.174153 
L 518.268624 406.920999 
L 518.472118 411.341658 
L 518.675612 410.633056 
L 519.082601 407.086039 
L 519.286096 407.155905 
L 519.693084 409.407196 
L 519.896579 410.620377 
L 520.100073 410.427622 
L 520.303567 407.261404 
L 521.117545 382.866668 
L 521.321039 382.950921 
L 521.728028 386.024507 
L 521.931522 386.320789 
L 522.542005 384.534328 
L 522.7455 384.532446 
L 523.152489 384.945247 
L 523.355983 384.980667 
L 523.559477 384.818486 
L 524.373455 383.622991 
L 524.780443 383.572311 
L 525.187432 383.647392 
L 525.390927 383.533068 
L 526.00141 382.762856 
L 526.408398 383.489527 
L 526.611893 383.01262 
L 526.815387 380.583211 
L 527.42587 369.146793 
L 528.239848 362.741928 
L 528.646836 363.372719 
L 528.850331 362.754818 
L 529.053825 362.67182 
L 529.257319 367.07045 
L 530.071297 408.300613 
L 530.478286 397.000318 
L 530.885274 389.73991 
L 531.495757 385.492182 
L 531.699252 385.247014 
L 532.309735 386.781857 
L 532.920218 386.179374 
L 533.327207 386.396367 
L 533.530701 386.298389 
L 534.141184 385.582824 
L 534.548173 386.105795 
L 534.751667 386.339585 
L 534.955162 386.304475 
L 535.565645 385.425166 
L 535.769139 385.594361 
L 536.176128 386.44977 
L 536.379622 386.622528 
L 536.583117 386.500197 
L 536.990105 385.937629 
L 537.1936 385.827028 
L 537.600588 386.064454 
L 538.007577 386.240349 
L 538.414566 386.106374 
L 539.025049 385.643365 
L 539.432038 385.353811 
L 540.042521 385.307547 
L 540.44951 384.669986 
L 540.856498 384.046928 
L 541.87397 383.697871 
L 542.280959 383.565063 
L 542.687948 383.555402 
L 542.891442 383.647661 
L 543.705419 384.556765 
L 544.112408 384.234391 
L 544.315903 384.069247 
L 544.519397 384.077967 
L 545.12988 384.687899 
L 546.554341 384.33365 
L 546.757835 384.572487 
L 547.164824 385.353578 
L 547.368318 384.919171 
L 547.571812 384.048577 
L 547.775307 384.055082 
L 547.978801 386.336455 
L 548.589284 397.830946 
L 548.792779 397.969224 
L 548.996273 397.69785 
L 549.403262 399.651692 
L 549.606756 398.401128 
L 550.013745 386.876613 
L 550.420733 377.167025 
L 550.827722 374.301585 
L 551.438205 370.699471 
L 552.048688 366.97301 
L 552.455677 366.084373 
L 552.862666 365.514743 
L 553.880138 363.562927 
L 554.490621 362.774613 
L 554.89761 362.734894 
L 555.304598 362.694385 
L 556.118576 362.183302 
L 556.525564 361.903909 
L 557.136048 361.390709 
L 557.543036 361.131477 
L 558.153519 360.362559 
L 558.967497 360.124211 
L 559.374486 359.637351 
L 559.57798 359.644967 
L 559.984969 359.995651 
L 560.188463 360.000463 
L 560.798946 359.671105 
L 561.409429 359.80957 
L 561.816418 359.433676 
L 562.426901 358.319174 
L 562.83389 358.19077 
L 563.037384 358.106724 
L 563.444373 357.642846 
L 563.647867 357.618828 
L 564.25835 358.449532 
L 564.461845 358.32489 
L 565.072328 357.135977 
L 565.275822 357.011873 
L 565.479317 357.111112 
L 566.0898 357.924713 
L 566.293294 357.867646 
L 566.700283 357.393789 
L 566.903777 357.362747 
L 567.107271 357.458266 
L 567.310766 357.429762 
L 567.51426 357.080919 
L 568.124743 355.413881 
L 568.328238 355.28402 
L 568.938721 355.325402 
L 569.345709 354.704103 
L 569.752698 354.128362 
L 569.956193 354.133402 
L 570.363181 354.6538 
L 570.77017 355.407245 
L 570.973664 355.595516 
L 571.177159 355.508454 
L 571.584148 354.55641 
L 571.787642 354.08206 
L 571.991136 354.003142 
L 572.805114 355.505085 
L 573.415597 354.99624 
L 574.229574 354.189117 
L 575.043552 353.39642 
L 575.45054 353.183737 
L 575.857529 353.308181 
L 576.671507 353.840169 
L 577.28199 354.908035 
L 577.485484 354.813804 
L 578.095967 354.111273 
L 578.299462 353.926156 
L 578.70645 353.243325 
L 578.909945 353.25921 
L 579.316933 354.589178 
L 579.520428 355.191631 
L 579.723922 355.318161 
L 580.741394 354.027478 
L 580.944888 353.202778 
L 581.351877 349.901174 
L 581.96236 343.934664 
L 582.165855 343.00415 
L 582.369349 342.761359 
L 582.572843 343.040058 
L 583.590315 345.907554 
L 584.811281 347.369158 
L 585.21827 347.711041 
L 585.625259 348.472794 
L 585.828753 348.541263 
L 586.235742 347.39236 
L 586.439236 347.524719 
L 586.642731 349.34145 
L 587.049719 355.521812 
L 587.253214 356.09436 
L 587.456708 353.401296 
L 588.067191 340.82381 
L 588.270685 340.987857 
L 588.881169 347.91654 
L 589.084663 345.446727 
L 589.491652 328.898927 
L 589.89864 313.0756 
L 590.102135 310.63509 
L 590.509124 310.412245 
L 590.712618 308.762582 
L 591.119607 303.566896 
L 591.323101 302.170272 
L 591.73009 301.336946 
L 591.933584 300.9907 
L 592.137078 301.066046 
L 592.340573 302.16634 
L 592.747562 305.754862 
L 592.951056 305.632663 
L 593.561539 299.465785 
L 593.765033 300.128812 
L 594.172022 303.070767 
L 594.375516 302.509171 
L 594.782505 299.662097 
L 594.986 301.006319 
L 595.799977 315.763364 
L 596.41046 314.322876 
L 596.613954 312.486325 
L 596.817449 306.827516 
L 597.427932 278.826499 
L 597.631426 276.281333 
L 597.834921 277.883897 
L 598.445404 285.962956 
L 598.852392 287.921349 
L 599.055887 287.442838 
L 599.462876 283.998372 
L 599.66637 283.653859 
L 599.869864 285.539933 
L 600.276853 291.154953 
L 600.480347 291.564352 
L 600.887336 288.761007 
L 601.090831 288.403602 
L 601.294325 289.574335 
L 601.701314 294.898581 
L 602.311797 303.426127 
L 602.515291 303.551642 
L 602.718785 301.653996 
L 603.329269 294.191725 
L 603.736257 292.900197 
L 603.939752 292.8903 
L 604.143246 293.711477 
L 604.753729 298.865292 
L 604.957223 297.91783 
L 605.364212 293.602846 
L 605.567707 293.295324 
L 606.17819 296.743482 
L 606.381684 296.753198 
L 606.585178 296.623583 
L 606.788673 296.932556 
L 607.399156 299.048725 
L 607.60265 298.346927 
L 608.009639 295.728942 
L 608.213133 295.923821 
L 608.823616 300.432635 
L 609.027111 299.925675 
L 609.434099 297.295396 
L 609.637594 296.821811 
L 610.044583 297.19863 
L 610.248077 296.850192 
L 611.062054 293.37361 
L 611.265549 293.442016 
L 611.672538 293.716113 
L 612.079526 293.390219 
L 612.283021 292.935792 
L 612.690009 290.613325 
L 612.893504 290.476372 
L 613.096998 293.66133 
L 613.910976 322.575185 
L 614.11447 320.929579 
L 614.521459 313.730817 
L 614.724953 313.042422 
L 615.131942 316.086035 
L 615.335436 315.587104 
L 615.53893 311.137992 
L 616.149414 288.435479 
L 616.352908 287.512791 
L 616.759897 290.624981 
L 616.963391 288.927643 
L 617.37038 282.248735 
L 617.573874 281.953771 
L 618.184357 288.445921 
L 618.387852 287.978383 
L 618.998335 283.815867 
L 619.201829 283.733283 
L 619.405323 284.342049 
L 620.219301 288.564163 
L 620.422795 286.763266 
L 620.829784 277.344391 
L 621.440267 261.479472 
L 621.643761 258.948781 
L 621.847256 258.090211 
L 622.05075 258.592128 
L 622.661233 263.402411 
L 623.271716 267.389409 
L 625.30666 277.536097 
L 625.510154 277.743734 
L 625.917143 277.496423 
L 626.120637 277.675913 
L 626.527626 278.168575 
L 626.731121 277.857645 
L 627.138109 276.492318 
L 627.341604 276.35266 
L 627.545098 276.607416 
L 627.748592 276.288994 
L 627.952087 274.353907 
L 628.359075 269.224108 
L 628.56257 271.24466 
L 628.969559 283.468609 
L 629.173053 284.856597 
L 629.376547 279.825723 
L 629.783536 264.763357 
L 629.98703 262.328934 
L 630.190525 263.402893 
L 630.394019 265.385659 
L 630.597514 266.193487 
L 630.801008 265.372586 
L 631.207997 262.784698 
L 631.411491 263.017867 
L 631.81848 264.96432 
L 632.021974 263.764607 
L 632.428963 253.724732 
L 632.835952 243.155258 
L 633.039446 241.147109 
L 633.24294 240.832381 
L 633.649929 241.457791 
L 633.853423 242.194269 
L 634.260412 246.457378 
L 634.667401 250.983516 
L 635.07439 252.364817 
L 635.277884 252.53999 
L 635.481378 251.818676 
L 635.684873 249.23285 
L 636.091861 236.810712 
L 636.905839 202.037005 
L 637.109333 198.433797 
L 637.312828 197.986546 
L 637.516322 200.043595 
L 638.533794 217.471448 
L 638.940783 222.333822 
L 640.365243 242.550503 
L 640.568737 241.723481 
L 641.179221 235.309925 
L 641.382715 235.541374 
L 642.196692 239.351496 
L 642.400187 239.617826 
L 642.603681 239.558643 
L 643.01067 238.891055 
L 643.417659 238.367798 
L 643.621153 238.683347 
L 644.028142 241.024587 
L 644.43513 243.8863 
L 644.638625 244.743538 
L 644.842119 245.051662 
L 645.045613 244.798284 
L 645.452602 243.414491 
L 645.656097 243.204205 
L 645.859591 243.76984 
L 646.063085 244.692217 
L 646.26658 244.867962 
L 646.470074 243.329128 
L 646.877063 237.808575 
L 647.080557 237.578952 
L 647.487546 244.09897 
L 647.894535 249.195711 
L 648.098029 249.411923 
L 648.505018 248.643725 
L 648.708512 248.671824 
L 649.115501 248.987873 
L 649.318995 248.616961 
L 649.52249 247.449359 
L 649.929478 241.897693 
L 650.336467 235.030357 
L 650.539961 233.125114 
L 650.743456 232.50303 
L 650.94695 232.79445 
L 651.353939 234.952334 
L 651.760928 237.560046 
L 651.964422 238.020385 
L 652.167916 237.745979 
L 652.371411 237.262931 
L 652.574905 237.347727 
L 653.185388 240.955348 
L 653.388882 240.378621 
L 653.999366 234.307286 
L 654.609849 232.566919 
L 656.034309 224.229489 
L 656.237804 224.023131 
L 656.441298 224.562355 
L 657.051781 227.579415 
L 657.45877 231.238467 
L 658.069253 238.01065 
L 658.272747 238.247826 
L 658.88323 236.589504 
L 659.290219 237.47077 
L 659.697208 238.007563 
L 659.900702 238.127094 
L 660.511185 239.223443 
L 660.71468 239.109101 
L 661.121668 238.408035 
L 661.325163 238.647935 
L 662.13914 241.642297 
L 662.342635 241.737786 
L 662.749623 241.623525 
L 662.953118 241.841274 
L 664.581073 245.566023 
L 665.191556 247.931792 
L 665.39505 247.626494 
L 666.005533 242.915499 
L 666.209027 242.824651 
L 667.226499 247.166581 
L 667.429994 247.274316 
L 667.836982 247.244349 
L 668.447466 248.437574 
L 668.65096 248.314198 
L 669.261443 246.764536 
L 669.464937 246.55728 
L 669.668432 246.540358 
L 669.871926 246.696022 
L 670.278915 247.441964 
L 670.889398 248.554471 
L 671.296387 249.09692 
L 672.924342 253.774115 
L 673.33133 254.140768 
L 673.534825 254.370459 
L 673.941813 255.381601 
L 674.145308 255.536211 
L 674.348802 255.059348 
L 675.366274 250.074821 
L 675.773263 249.717344 
L 675.976757 249.863698 
L 676.383746 250.93361 
L 676.994229 252.985061 
L 677.401218 253.771094 
L 677.808206 254.218261 
L 678.011701 254.624743 
L 678.825678 256.963205 
L 679.029173 256.854331 
L 679.436161 255.930675 
L 679.84315 254.871428 
L 680.046644 254.663078 
L 680.250139 254.716752 
L 680.657127 255.039126 
L 681.267611 255.30853 
L 682.081588 256.418387 
L 682.692071 257.875972 
L 682.895565 258.821644 
L 683.302554 261.944244 
L 683.506049 261.465996 
L 683.913037 254.537298 
L 684.116532 257.887363 
L 684.320026 274.039973 
L 684.930509 342.335671 
L 685.134003 339.563722 
L 686.151475 272.40091 
L 686.35497 270.213259 
L 686.558464 270.417635 
L 686.761958 270.85209 
L 686.965453 272.898688 
L 687.168947 281.370094 
L 687.982925 346.344096 
L 688.186419 343.550062 
L 688.593408 333.126869 
L 690.017868 318.896753 
L 690.221363 318.443116 
L 690.424857 318.410787 
L 690.628351 318.828248 
L 691.442329 322.215986 
L 691.849318 322.828118 
L 692.256306 324.275927 
L 692.663295 326.213422 
L 692.866789 327.950702 
L 693.273778 335.112192 
L 693.884261 348.160965 
L 694.494744 354.413086 
L 694.698239 355.680396 
L 694.901733 355.729527 
L 695.105227 354.292728 
L 695.512216 349.943959 
L 695.71571 349.013983 
L 696.122699 349.085903 
L 696.326194 348.003636 
L 696.529688 345.14903 
L 696.936677 332.995087 
L 697.750654 300.90556 
L 697.954149 298.159184 
L 698.157643 297.054714 
L 698.564632 296.556763 
L 698.768126 295.393507 
L 699.175115 287.874373 
L 699.378609 284.520908 
L 699.582103 285.083312 
L 700.396081 302.871305 
L 700.599575 306.427341 
L 701.006564 326.082749 
L 701.210058 335.612393 
L 701.413553 339.405809 
L 701.617047 339.042427 
L 701.820541 340.00243 
L 702.024036 346.693131 
L 702.431025 368.991828 
L 702.634519 370.049982 
L 702.838013 356.712473 
L 703.448496 281.734942 
L 703.651991 270.686676 
L 703.855485 268.103984 
L 704.058979 268.820985 
L 704.262474 268.899311 
L 704.669463 265.091252 
L 705.076451 262.282447 
L 705.48344 261.145561 
L 706.093923 258.722141 
L 706.297418 259.113474 
L 706.500912 259.835483 
L 706.704406 259.707098 
L 706.907901 257.891567 
L 707.314889 251.957341 
L 707.518384 250.56564 
L 707.721878 250.716545 
L 708.128867 252.122671 
L 708.535856 252.536621 
L 708.73935 253.163422 
L 709.146339 255.263879 
L 709.349833 255.676498 
L 709.553327 255.187217 
L 709.960316 253.211465 
L 710.16381 252.905381 
L 710.570799 253.304821 
L 710.774294 253.208947 
L 711.181282 252.673443 
L 711.384777 252.710493 
L 711.791765 253.488952 
L 712.809237 256.552666 
L 713.41972 256.374365 
L 713.623215 256.603377 
L 713.826709 256.62559 
L 714.030203 256.095742 
L 714.437192 254.125326 
L 714.640686 253.7525 
L 714.844181 254.18399 
L 716.065147 260.282499 
L 716.268641 260.024954 
L 716.472136 257.859578 
L 716.879125 247.320671 
L 717.693102 216.354973 
L 717.896596 214.021946 
L 718.100091 214.900858 
L 718.507079 218.932596 
L 718.710574 219.32105 
L 718.914068 218.882516 
L 719.117563 218.756812 
L 719.321057 219.671889 
L 719.728046 223.065102 
L 719.93154 223.825769 
L 720.135034 223.614281 
L 720.338529 223.085592 
L 720.542023 223.017067 
L 721.356001 225.212179 
L 721.559495 225.181632 
L 722.373472 225.500188 
L 722.576967 225.433331 
L 722.780461 225.74906 
L 723.390944 229.178321 
L 723.594439 228.569534 
L 724.001427 223.564006 
L 724.204922 223.472885 
L 724.61191 230.434217 
L 724.815405 229.878283 
L 725.018899 225.671107 
L 725.222394 227.95865 
L 725.425888 250.254045 
L 725.832877 338.092674 
L 726.036371 351.702449 
L 726.239865 319.418883 
L 726.646854 209.289775 
L 726.850348 203.322485 
L 727.460832 328.480074 
L 727.664326 331.765503 
L 728.274809 281.872542 
L 728.478303 276.537242 
L 728.681798 275.148144 
L 728.885292 275.304965 
L 729.088786 276.725223 
L 729.495775 284.01087 
L 731.327224 324.43988 
L 731.937708 332.931487 
L 732.548191 338.865782 
L 732.955179 340.644617 
L 733.362168 341.692754 
L 733.769157 343.674661 
L 735.193617 351.754131 
L 735.397112 352.121031 
L 735.600606 352.190704 
L 735.804101 352.636094 
L 736.007595 354.083253 
L 736.414584 358.743492 
L 736.618078 359.320036 
L 736.821572 358.165776 
L 737.025067 358.991946 
L 737.228561 368.063002 
L 737.839044 416.341204 
L 738.042539 401.500947 
L 738.449527 352.286118 
L 738.653022 351.347446 
L 739.06001 379.772222 
L 739.263505 381.868723 
L 739.873988 360.412148 
L 740.077482 363.472306 
L 740.484471 371.791353 
L 740.687965 371.536951 
L 741.094954 367.37042 
L 741.298448 366.892648 
L 741.705437 367.867951 
L 741.908931 366.941943 
L 742.31592 363.677924 
L 742.519415 363.980887 
L 742.926403 366.454094 
L 743.129898 364.948985 
L 743.536886 357.550144 
L 743.740381 356.005656 
L 743.943875 357.122343 
L 744.554358 363.312982 
L 744.961347 365.93141 
L 745.368336 368.867949 
L 745.57183 368.746853 
L 745.978819 366.469461 
L 746.182313 366.131295 
L 746.385808 366.25693 
L 746.589302 365.883011 
L 747.199785 362.03104 
L 747.403279 362.277805 
L 747.810268 364.110199 
L 748.013762 364.390261 
L 748.624246 363.614114 
L 748.82774 363.724282 
L 749.438223 364.639146 
L 749.845212 365.400712 
L 750.2522 366.763418 
L 751.066178 370.833235 
L 751.269672 370.977636 
L 751.676661 370.100107 
L 751.880155 370.238825 
L 752.08365 371.693349 
L 752.490638 378.131671 
L 753.101122 387.585751 
L 753.304616 388.413776 
L 753.50811 387.499075 
L 753.915099 384.657906 
L 754.118593 385.666973 
L 754.729077 393.709562 
L 755.33956 396.490311 
L 755.543054 397.266029 
L 755.746548 397.479456 
L 755.950043 397.26499 
L 756.153537 397.292424 
L 756.560526 398.442211 
L 756.76402 397.352355 
L 757.171009 388.913599 
L 757.577998 382.697434 
L 757.781492 382.818781 
L 758.391975 385.869781 
L 758.595469 386.068672 
L 758.798964 385.392412 
L 759.409447 381.062709 
L 759.612941 380.570033 
L 759.816436 380.596331 
L 760.01993 380.935157 
L 760.223424 381.595649 
L 761.037402 385.691206 
L 761.647885 386.317854 
L 762.665357 389.376618 
L 762.868851 389.567913 
L 763.072345 389.145781 
L 763.886323 384.698914 
L 764.089817 384.438859 
L 764.293312 384.525487 
L 764.7003 384.904642 
L 764.903795 384.736465 
L 765.310784 384.054575 
L 765.514278 384.060376 
L 765.717772 384.201345 
L 765.921267 384.165196 
L 766.124761 383.828326 
L 766.53175 382.533856 
L 767.345727 379.328105 
L 767.549222 379.21422 
L 767.752716 379.372021 
L 768.159705 380.272714 
L 768.770188 382.072547 
L 769.380671 383.061299 
L 769.991154 384.686151 
L 770.398143 385.082549 
L 770.805131 386.072712 
L 771.21212 386.897904 
L 771.415614 386.682727 
L 771.822603 385.759674 
L 772.026098 385.677519 
L 772.229592 385.79249 
L 772.433086 385.778852 
L 772.636581 385.46983 
L 773.247064 383.600531 
L 773.654053 382.692429 
L 773.857547 382.790146 
L 774.46803 383.861872 
L 775.078513 383.919714 
L 775.485502 385.117003 
L 775.892491 386.23251 
L 776.095985 386.551422 
L 776.299479 386.643002 
L 776.502974 386.282287 
L 776.909962 383.932844 
L 777.520445 379.549622 
L 777.927434 377.942867 
L 778.537917 377.252108 
L 779.1484 375.305967 
L 779.351895 375.175074 
L 779.555389 375.525969 
L 780.369367 378.429005 
L 780.776355 379.035918 
L 781.183344 380.536968 
L 781.590333 382.291566 
L 781.997321 383.009826 
L 782.200816 383.363289 
L 783.014793 385.989437 
L 783.421782 385.801815 
L 783.625276 386.736338 
L 784.23576 392.986841 
L 784.439254 392.206833 
L 784.846243 387.573949 
L 785.049737 387.610861 
L 785.456726 392.841646 
L 785.66022 392.513642 
L 786.067209 383.858292 
L 786.270703 389.012543 
L 786.474198 410.289987 
L 787.084681 504.982501 
L 787.288175 513.742684 
L 787.491669 511.906609 
L 787.898658 498.170189 
L 788.305647 467.094366 
L 788.712636 427.29812 
L 788.91613 416.043599 
L 789.119624 411.612918 
L 789.730107 409.200069 
L 790.747579 400.152947 
L 791.358062 391.452221 
L 791.561557 391.049323 
L 791.968545 393.394684 
L 792.17204 394.412131 
L 792.375534 394.653179 
L 792.579029 394.554568 
L 792.782523 394.815205 
L 792.986017 395.477585 
L 793.189512 395.741523 
L 793.393006 395.15621 
L 793.5965 395.20791 
L 793.799995 399.032745 
L 794.410478 427.775707 
L 794.613972 428.530091 
L 795.020961 423.461476 
L 795.42795 425.288716 
L 795.631444 421.700291 
L 796.038433 410.364041 
L 796.241927 409.768586 
L 796.648916 416.883716 
L 797.055905 422.831783 
L 797.259399 421.202655 
L 797.869882 398.676852 
L 798.073376 404.192325 
L 798.683859 460.953822 
L 798.887354 461.59333 
L 799.701331 416.141824 
L 799.904826 416.436658 
L 800.10832 416.942252 
L 800.311814 416.087578 
L 800.718803 414.011901 
L 801.125792 414.416209 
L 801.329286 414.155337 
L 802.143264 410.96495 
L 802.550252 411.127292 
L 802.753747 410.874262 
L 803.160736 409.913209 
L 803.36423 409.635647 
L 803.567724 409.112389 
L 803.771219 407.868025 
L 804.992185 395.779031 
L 805.195679 395.782312 
L 805.399174 398.000948 
L 806.009657 408.523371 
L 806.416645 410.057891 
L 806.823634 413.491436 
L 807.027128 413.590903 
L 807.434117 409.230105 
L 807.637612 409.157623 
L 808.0446 412.487341 
L 808.248095 409.564643 
L 808.451589 403.929114 
L 808.655083 402.765802 
L 808.858578 412.952687 
L 809.265566 445.652911 
L 809.469061 441.905595 
L 810.079544 389.717776 
L 810.283038 391.873017 
L 810.690027 404.254639 
L 810.893521 405.914637 
L 811.097016 406.628889 
L 811.707499 413.979904 
L 811.910993 412.645488 
L 812.521476 400.175358 
L 812.724971 399.443941 
L 813.335454 401.123016 
L 813.742443 401.049417 
L 814.352926 400.756294 
L 814.759914 401.633215 
L 815.166903 402.256695 
L 815.370397 402.366464 
L 815.980881 403.336825 
L 816.184375 403.215027 
L 816.591364 401.888629 
L 816.591364 401.888629 
" clip-path="url(#p2bb3fa98c6)" style="fill: none; stroke: #0000ff; stroke-width: 0.5; stroke-linecap: square"/>
   </g>
   <g id="patch_3">
    <path d="M 47.81 534.04 
L 47.81 25.44 
" style="fill: none; stroke: #000000; stroke-width: 0.8; stroke-linejoin: miter; stroke-linecap: square"/>
   </g>
   <g id="patch_4">
    <path d="M 853.2 534.04 
L 853.2 25.44 
" style="fill: none; stroke: #000000; stroke-width: 0.8; stroke-linejoin: miter; stroke-linecap: square"/>
   </g>
   <g id="patch_5">
    <path d="M 47.81 534.04 
L 853.2 534.04 
" style="fill: none; stroke: #000000; stroke-width: 0.8; stroke-linejoin: miter; stroke-linecap: square"/>
   </g>
   <g id="patch_6">
    <path d="M 47.81 25.44 
L 853.2 25.44 
" style="fill: none; stroke: #000000; stroke-width: 0.8; stroke-linejoin: miter; stroke-linecap: square"/>
   </g>
   <g id="text_19">
    <!-- EDA filtered by threshold filter (min: 0.05, max: 60) -->
    <g transform="translate(295.934688 19.44) scale(0.12 -0.12)">
     <defs>
      <path id="DejaVuSans-66" d="M 2375 4863 
L 2375 4384 
L 1825 4384 
Q 1516 4384 1395 4259 
Q 1275 4134 1275 3809 
L 1275 3500 
L 2222 3500 
L 2222 3053 
L 1275 3053 
L 1275 0 
L 697 0 
L 697 3053 
L 147 3053 
L 147 3500 
L 697 3500 
L 697 3744 
Q 697 4328 969 4595 
Q 1241 4863 1831 4863 
L 2375 4863 
z
" transform="scale(0.015625)"/>
      <path id="DejaVuSans-6c" d="M 603 4863 
L 1178 4863 
L 1178 0 
L 603 0 
L 603 4863 
z
" transform="scale(0.015625)"/>
      <path id="DejaVuSans-72" d="M 2631 2963 
Q 2534 3019 2420 3045 
Q 2306 3072 2169 3072 
Q 1681 3072 1420 2755 
Q 1159 2438 1159 1844 
L 1159 0 
L 581 0 
L 581 3500 
L 1159 3500 
L 1159 2956 
Q 1341 3275 1631 3429 
Q 1922 3584 2338 3584 
Q 2397 3584 2469 3576 
Q 2541 3569 2628 3553 
L 2631 2963 
z
" transform="scale(0.015625)"/>
      <path id="DejaVuSans-64" d="M 2906 2969 
L 2906 4863 
L 3481 4863 
L 3481 0 
L 2906 0 
L 2906 525 
Q 2725 213 2448 61 
Q 2172 -91 1784 -91 
Q 1150 -91 751 415 
Q 353 922 353 1747 
Q 353 2572 751 3078 
Q 1150 3584 1784 3584 
Q 2172 3584 2448 3432 
Q 2725 3281 2906 2969 
z
M 947 1747 
Q 947 1113 1208 752 
Q 1469 391 1925 391 
Q 2381 391 2643 752 
Q 2906 1113 2906 1747 
Q 2906 2381 2643 2742 
Q 2381 3103 1925 3103 
Q 1469 3103 1208 2742 
Q 947 2381 947 1747 
z
" transform="scale(0.015625)"/>
      <path id="DejaVuSans-62" d="M 3116 1747 
Q 3116 2381 2855 2742 
Q 2594 3103 2138 3103 
Q 1681 3103 1420 2742 
Q 1159 2381 1159 1747 
Q 1159 1113 1420 752 
Q 1681 391 2138 391 
Q 2594 391 2855 752 
Q 3116 1113 3116 1747 
z
M 1159 2969 
Q 1341 3281 1617 3432 
Q 1894 3584 2278 3584 
Q 2916 3584 3314 3078 
Q 3713 2572 3713 1747 
Q 3713 922 3314 415 
Q 2916 -91 2278 -91 
Q 1894 -91 1617 61 
Q 1341 213 1159 525 
L 1159 0 
L 581 0 
L 581 4863 
L 1159 4863 
L 1159 2969 
z
" transform="scale(0.015625)"/>
      <path id="DejaVuSans-79" d="M 2059 -325 
Q 1816 -950 1584 -1140 
Q 1353 -1331 966 -1331 
L 506 -1331 
L 506 -850 
L 844 -850 
Q 1081 -850 1212 -737 
Q 1344 -625 1503 -206 
L 1606 56 
L 191 3500 
L 800 3500 
L 1894 763 
L 2988 3500 
L 3597 3500 
L 2059 -325 
z
" transform="scale(0.015625)"/>
      <path id="DejaVuSans-68" d="M 3513 2113 
L 3513 0 
L 2938 0 
L 2938 2094 
Q 2938 2591 2744 2837 
Q 2550 3084 2163 3084 
Q 1697 3084 1428 2787 
Q 1159 2491 1159 1978 
L 1159 0 
L 581 0 
L 581 4863 
L 1159 4863 
L 1159 2956 
Q 1366 3272 1645 3428 
Q 1925 3584 2291 3584 
Q 2894 3584 3203 3211 
Q 3513 2838 3513 2113 
z
" transform="scale(0.015625)"/>
      <path id="DejaVuSans-6f" d="M 1959 3097 
Q 1497 3097 1228 2736 
Q 959 2375 959 1747 
Q 959 1119 1226 758 
Q 1494 397 1959 397 
Q 2419 397 2687 759 
Q 2956 1122 2956 1747 
Q 2956 2369 2687 2733 
Q 2419 3097 1959 3097 
z
M 1959 3584 
Q 2709 3584 3137 3096 
Q 3566 2609 3566 1747 
Q 3566 888 3137 398 
Q 2709 -91 1959 -91 
Q 1206 -91 779 398 
Q 353 888 353 1747 
Q 353 2609 779 3096 
Q 1206 3584 1959 3584 
z
" transform="scale(0.015625)"/>
      <path id="DejaVuSans-3a" d="M 750 794 
L 1409 794 
L 1409 0 
L 750 0 
L 750 794 
z
M 750 3309 
L 1409 3309 
L 1409 2516 
L 750 2516 
L 750 3309 
z
" transform="scale(0.015625)"/>
      <path id="DejaVuSans-2c" d="M 750 794 
L 1409 794 
L 1409 256 
L 897 -744 
L 494 -744 
L 750 256 
L 750 794 
z
" transform="scale(0.015625)"/>
      <path id="DejaVuSans-61" d="M 2194 1759 
Q 1497 1759 1228 1600 
Q 959 1441 959 1056 
Q 959 750 1161 570 
Q 1363 391 1709 391 
Q 2188 391 2477 730 
Q 2766 1069 2766 1631 
L 2766 1759 
L 2194 1759 
z
M 3341 1997 
L 3341 0 
L 2766 0 
L 2766 531 
Q 2569 213 2275 61 
Q 1981 -91 1556 -91 
Q 1019 -91 701 211 
Q 384 513 384 1019 
Q 384 1609 779 1909 
Q 1175 2209 1959 2209 
L 2766 2209 
L 2766 2266 
Q 2766 2663 2505 2880 
Q 2244 3097 1772 3097 
Q 1472 3097 1187 3025 
Q 903 2953 641 2809 
L 641 3341 
Q 956 3463 1253 3523 
Q 1550 3584 1831 3584 
Q 2591 3584 2966 3190 
Q 3341 2797 3341 1997 
z
" transform="scale(0.015625)"/>
      <path id="DejaVuSans-78" d="M 3513 3500 
L 2247 1797 
L 3578 0 
L 2900 0 
L 1881 1375 
L 863 0 
L 184 0 
L 1544 1831 
L 300 3500 
L 978 3500 
L 1906 2253 
L 2834 3500 
L 3513 3500 
z
" transform="scale(0.015625)"/>
     </defs>
     <use xlink:href="#DejaVuSans-45"/>
     <use xlink:href="#DejaVuSans-44" transform="translate(63.183594 0)"/>
     <use xlink:href="#DejaVuSans-41" transform="translate(138.435547 0)"/>
     <use xlink:href="#DejaVuSans-20" transform="translate(206.84375 0)"/>
     <use xlink:href="#DejaVuSans-66" transform="translate(238.630859 0)"/>
     <use xlink:href="#DejaVuSans-69" transform="translate(273.835938 0)"/>
     <use xlink:href="#DejaVuSans-6c" transform="translate(301.619141 0)"/>
     <use xlink:href="#DejaVuSans-74" transform="translate(329.402344 0)"/>
     <use xlink:href="#DejaVuSans-65" transform="translate(368.611328 0)"/>
     <use xlink:href="#DejaVuSans-72" transform="translate(430.134766 0)"/>
     <use xlink:href="#DejaVuSans-65" transform="translate(468.998047 0)"/>
     <use xlink:href="#DejaVuSans-64" transform="translate(530.521484 0)"/>
     <use xlink:href="#DejaVuSans-20" transform="translate(593.998047 0)"/>
     <use xlink:href="#DejaVuSans-62" transform="translate(625.785156 0)"/>
     <use xlink:href="#DejaVuSans-79" transform="translate(689.261719 0)"/>
     <use xlink:href="#DejaVuSans-20" transform="translate(748.441406 0)"/>
     <use xlink:href="#DejaVuSans-74" transform="translate(780.228516 0)"/>
     <use xlink:href="#DejaVuSans-68" transform="translate(819.4375 0)"/>
     <use xlink:href="#DejaVuSans-72" transform="translate(882.816406 0)"/>
     <use xlink:href="#DejaVuSans-65" transform="translate(921.679688 0)"/>
     <use xlink:href="#DejaVuSans-73" transform="translate(983.203125 0)"/>
     <use xlink:href="#DejaVuSans-68" transform="translate(1035.302734 0)"/>
     <use xlink:href="#DejaVuSans-6f" transform="translate(1098.681641 0)"/>
     <use xlink:href="#DejaVuSans-6c" transform="translate(1159.863281 0)"/>
     <use xlink:href="#DejaVuSans-64" transform="translate(1187.646484 0)"/>
     <use xlink:href="#DejaVuSans-20" transform="translate(1251.123047 0)"/>
     <use xlink:href="#DejaVuSans-66" transform="translate(1282.910156 0)"/>
     <use xlink:href="#DejaVuSans-69" transform="translate(1318.115234 0)"/>
     <use xlink:href="#DejaVuSans-6c" transform="translate(1345.898438 0)"/>
     <use xlink:href="#DejaVuSans-74" transform="translate(1373.681641 0)"/>
     <use xlink:href="#DejaVuSans-65" transform="translate(1412.890625 0)"/>
     <use xlink:href="#DejaVuSans-72" transform="translate(1474.414062 0)"/>
     <use xlink:href="#DejaVuSans-20" transform="translate(1515.527344 0)"/>
     <use xlink:href="#DejaVuSans-28" transform="translate(1547.314453 0)"/>
     <use xlink:href="#DejaVuSans-6d" transform="translate(1586.328125 0)"/>
     <use xlink:href="#DejaVuSans-69" transform="translate(1683.740234 0)"/>
     <use xlink:href="#DejaVuSans-6e" transform="translate(1711.523438 0)"/>
     <use xlink:href="#DejaVuSans-3a" transform="translate(1774.902344 0)"/>
     <use xlink:href="#DejaVuSans-20" transform="translate(1808.59375 0)"/>
     <use xlink:href="#DejaVuSans-30" transform="translate(1840.380859 0)"/>
     <use xlink:href="#DejaVuSans-2e" transform="translate(1904.003906 0)"/>
     <use xlink:href="#DejaVuSans-30" transform="translate(1935.791016 0)"/>
     <use xlink:href="#DejaVuSans-35" transform="translate(1999.414062 0)"/>
     <use xlink:href="#DejaVuSans-2c" transform="translate(2063.037109 0)"/>
     <use xlink:href="#DejaVuSans-20" transform="translate(2094.824219 0)"/>
     <use xlink:href="#DejaVuSans-6d" transform="translate(2126.611328 0)"/>
     <use xlink:href="#DejaVuSans-61" transform="translate(2224.023438 0)"/>
     <use xlink:href="#DejaVuSans-78" transform="translate(2285.302734 0)"/>
     <use xlink:href="#DejaVuSans-3a" transform="translate(2344.482422 0)"/>
     <use xlink:href="#DejaVuSans-20" transform="translate(2378.173828 0)"/>
     <use xlink:href="#DejaVuSans-36" transform="translate(2409.960938 0)"/>
     <use xlink:href="#DejaVuSans-30" transform="translate(2473.583984 0)"/>
     <use xlink:href="#DejaVuSans-29" transform="translate(2537.207031 0)"/>
    </g>
   </g>
   <g id="legend_1">
    <g id="patch_7">
     <path d="M 791.720313 48.118125 
L 846.2 48.118125 
Q 848.2 48.118125 848.2 46.118125 
L 848.2 32.44 
Q 848.2 30.44 846.2 30.44 
L 791.720313 30.44 
Q 789.720313 30.44 789.720313 32.44 
L 789.720313 46.118125 
Q 789.720313 48.118125 791.720313 48.118125 
z
" style="fill: #ffffff; opacity: 0.8; stroke: #cccccc; stroke-linejoin: miter"/>
    </g>
    <g id="line2d_34">
     <path d="M 793.720313 38.538437 
L 803.720313 38.538437 
L 813.720313 38.538437 
" style="fill: none; stroke: #0000ff; stroke-width: 0.5; stroke-linecap: square"/>
    </g>
    <g id="text_20">
     <!-- Kept -->
     <g transform="translate(821.720313 42.038437) scale(0.1 -0.1)">
      <defs>
       <path id="DejaVuSans-4b" d="M 628 4666 
L 1259 4666 
L 1259 2694 
L 3353 4666 
L 4166 4666 
L 1850 2491 
L 4331 0 
L 3500 0 
L 1259 2247 
L 1259 0 
L 628 0 
L 628 4666 
z
" transform="scale(0.015625)"/>
       <path id="DejaVuSans-70" d="M 1159 525 
L 1159 -1331 
L 581 -1331 
L 581 3500 
L 1159 3500 
L 1159 2969 
Q 1341 3281 1617 3432 
Q 1894 3584 2278 3584 
Q 2916 3584 3314 3078 
Q 3713 2572 3713 1747 
Q 3713 922 3314 415 
Q 2916 -91 2278 -91 
Q 1894 -91 1617 61 
Q 1341 213 1159 525 
z
M 3116 1747 
Q 3116 2381 2855 2742 
Q 2594 3103 2138 3103 
Q 1681 3103 1420 2742 
Q 1159 2381 1159 1747 
Q 1159 1113 1420 752 
Q 1681 391 2138 391 
Q 2594 391 2855 752 
Q 3116 1113 3116 1747 
z
" transform="scale(0.015625)"/>
      </defs>
      <use xlink:href="#DejaVuSans-4b"/>
      <use xlink:href="#DejaVuSans-65" transform="translate(60.576172 0)"/>
      <use xlink:href="#DejaVuSans-70" transform="translate(122.099609 0)"/>
      <use xlink:href="#DejaVuSans-74" transform="translate(185.576172 0)"/>
     </g>
    </g>
   </g>
  </g>
 </g>
 <defs>
  <clipPath id="p2bb3fa98c6">
   <rect x="47.81" y="25.44" width="805.39" height="508.6"/>
  </clipPath>
 </defs>
</svg>
