<?xml version="1.0" encoding="utf-8" standalone="no"?>
<!DOCTYPE svg PUBLIC "-//W3C//DTD SVG 1.1//EN"
  "http://www.w3.org/Graphics/SVG/1.1/DTD/svg11.dtd">
<svg xmlns:xlink="http://www.w3.org/1999/xlink" width="864pt" height="576pt" viewBox="0 0 864 576" xmlns="http://www.w3.org/2000/svg" version="1.1">
 <metadata>
  <rdf:RDF xmlns:dc="http://purl.org/dc/elements/1.1/" xmlns:cc="http://creativecommons.org/ns#" xmlns:rdf="http://www.w3.org/1999/02/22-rdf-syntax-ns#">
   <cc:Work>
    <dc:type rdf:resource="http://purl.org/dc/dcmitype/StillImage"/>
    <dc:date>2025-09-24T15:32:23.168371</dc:date>
    <dc:format>image/svg+xml</dc:format>
    <dc:creator>
     <cc:Agent>
      <dc:title>Matplotlib v3.10.0, https://matplotlib.org/</dc:title>
     </cc:Agent>
    </dc:creator>
   </cc:Work>
  </rdf:RDF>
 </metadata>
 <defs>
  <style type="text/css">*{stroke-linejoin: round; stroke-linecap: butt}</style>
 </defs>
 <g id="figure_1">
  <g id="patch_1">
   <path d="M 0 576 
L 864 576 
L 864 0 
L 0 0 
z
" style="fill: #ffffff"/>
  </g>
  <g id="axes_1">
   <g id="patch_2">
    <path d="M 47.81 534.04 
L 853.2 534.04 
L 853.2 25.44 
L 47.81 25.44 
z
" style="fill: #ffffff"/>
   </g>
   <g id="matplotlib.axis_1">
    <g id="xtick_1">
     <g id="line2d_1">
      <path d="M 84.418636 534.04 
L 84.418636 25.44 
" clip-path="url(#p6ac23cec53)" style="fill: none; stroke: #b0b0b0; stroke-opacity: 0.3; stroke-width: 0.8; stroke-linecap: square"/>
     </g>
     <g id="line2d_2">
      <defs>
       <path id="m812b2e0cff" d="M 0 0 
L 0 3.5 
" style="stroke: #000000; stroke-width: 0.8"/>
      </defs>
      <g>
       <use xlink:href="#m812b2e0cff" x="84.418636" y="534.04" style="stroke: #000000; stroke-width: 0.8"/>
      </g>
     </g>
     <g id="text_1">
      <!-- 0 -->
      <g transform="translate(81.237386 548.638438) scale(0.1 -0.1)">
       <defs>
        <path id="DejaVuSans-30" d="M 2034 4250 
Q 1547 4250 1301 3770 
Q 1056 3291 1056 2328 
Q 1056 1369 1301 889 
Q 1547 409 2034 409 
Q 2525 409 2770 889 
Q 3016 1369 3016 2328 
Q 3016 3291 2770 3770 
Q 2525 4250 2034 4250 
z
M 2034 4750 
Q 2819 4750 3233 4129 
Q 3647 3509 3647 2328 
Q 3647 1150 3233 529 
Q 2819 -91 2034 -91 
Q 1250 -91 836 529 
Q 422 1150 422 2328 
Q 422 3509 836 4129 
Q 1250 4750 2034 4750 
z
" transform="scale(0.015625)"/>
       </defs>
       <use xlink:href="#DejaVuSans-30"/>
      </g>
     </g>
    </g>
    <g id="xtick_2">
     <g id="line2d_3">
      <path d="M 182.041667 534.04 
L 182.041667 25.44 
" clip-path="url(#p6ac23cec53)" style="fill: none; stroke: #b0b0b0; stroke-opacity: 0.3; stroke-width: 0.8; stroke-linecap: square"/>
     </g>
     <g id="line2d_4">
      <g>
       <use xlink:href="#m812b2e0cff" x="182.041667" y="534.04" style="stroke: #000000; stroke-width: 0.8"/>
      </g>
     </g>
     <g id="text_2">
      <!-- 2 -->
      <g transform="translate(178.860417 548.638438) scale(0.1 -0.1)">
       <defs>
        <path id="DejaVuSans-32" d="M 1228 531 
L 3431 531 
L 3431 0 
L 469 0 
L 469 531 
Q 828 903 1448 1529 
Q 2069 2156 2228 2338 
Q 2531 2678 2651 2914 
Q 2772 3150 2772 3378 
Q 2772 3750 2511 3984 
Q 2250 4219 1831 4219 
Q 1534 4219 1204 4116 
Q 875 4013 500 3803 
L 500 4441 
Q 881 4594 1212 4672 
Q 1544 4750 1819 4750 
Q 2544 4750 2975 4387 
Q 3406 4025 3406 3419 
Q 3406 3131 3298 2873 
Q 3191 2616 2906 2266 
Q 2828 2175 2409 1742 
Q 1991 1309 1228 531 
z
" transform="scale(0.015625)"/>
       </defs>
       <use xlink:href="#DejaVuSans-32"/>
      </g>
     </g>
    </g>
    <g id="xtick_3">
     <g id="line2d_5">
      <path d="M 279.664697 534.04 
L 279.664697 25.44 
" clip-path="url(#p6ac23cec53)" style="fill: none; stroke: #b0b0b0; stroke-opacity: 0.3; stroke-width: 0.8; stroke-linecap: square"/>
     </g>
     <g id="line2d_6">
      <g>
       <use xlink:href="#m812b2e0cff" x="279.664697" y="534.04" style="stroke: #000000; stroke-width: 0.8"/>
      </g>
     </g>
     <g id="text_3">
      <!-- 4 -->
      <g transform="translate(276.483447 548.638438) scale(0.1 -0.1)">
       <defs>
        <path id="DejaVuSans-34" d="M 2419 4116 
L 825 1625 
L 2419 1625 
L 2419 4116 
z
M 2253 4666 
L 3047 4666 
L 3047 1625 
L 3713 1625 
L 3713 1100 
L 3047 1100 
L 3047 0 
L 2419 0 
L 2419 1100 
L 313 1100 
L 313 1709 
L 2253 4666 
z
" transform="scale(0.015625)"/>
       </defs>
       <use xlink:href="#DejaVuSans-34"/>
      </g>
     </g>
    </g>
    <g id="xtick_4">
     <g id="line2d_7">
      <path d="M 377.287727 534.04 
L 377.287727 25.44 
" clip-path="url(#p6ac23cec53)" style="fill: none; stroke: #b0b0b0; stroke-opacity: 0.3; stroke-width: 0.8; stroke-linecap: square"/>
     </g>
     <g id="line2d_8">
      <g>
       <use xlink:href="#m812b2e0cff" x="377.287727" y="534.04" style="stroke: #000000; stroke-width: 0.8"/>
      </g>
     </g>
     <g id="text_4">
      <!-- 6 -->
      <g transform="translate(374.106477 548.638438) scale(0.1 -0.1)">
       <defs>
        <path id="DejaVuSans-36" d="M 2113 2584 
Q 1688 2584 1439 2293 
Q 1191 2003 1191 1497 
Q 1191 994 1439 701 
Q 1688 409 2113 409 
Q 2538 409 2786 701 
Q 3034 994 3034 1497 
Q 3034 2003 2786 2293 
Q 2538 2584 2113 2584 
z
M 3366 4563 
L 3366 3988 
Q 3128 4100 2886 4159 
Q 2644 4219 2406 4219 
Q 1781 4219 1451 3797 
Q 1122 3375 1075 2522 
Q 1259 2794 1537 2939 
Q 1816 3084 2150 3084 
Q 2853 3084 3261 2657 
Q 3669 2231 3669 1497 
Q 3669 778 3244 343 
Q 2819 -91 2113 -91 
Q 1303 -91 875 529 
Q 447 1150 447 2328 
Q 447 3434 972 4092 
Q 1497 4750 2381 4750 
Q 2619 4750 2861 4703 
Q 3103 4656 3366 4563 
z
" transform="scale(0.015625)"/>
       </defs>
       <use xlink:href="#DejaVuSans-36"/>
      </g>
     </g>
    </g>
    <g id="xtick_5">
     <g id="line2d_9">
      <path d="M 474.910758 534.04 
L 474.910758 25.44 
" clip-path="url(#p6ac23cec53)" style="fill: none; stroke: #b0b0b0; stroke-opacity: 0.3; stroke-width: 0.8; stroke-linecap: square"/>
     </g>
     <g id="line2d_10">
      <g>
       <use xlink:href="#m812b2e0cff" x="474.910758" y="534.04" style="stroke: #000000; stroke-width: 0.8"/>
      </g>
     </g>
     <g id="text_5">
      <!-- 8 -->
      <g transform="translate(471.729508 548.638438) scale(0.1 -0.1)">
       <defs>
        <path id="DejaVuSans-38" d="M 2034 2216 
Q 1584 2216 1326 1975 
Q 1069 1734 1069 1313 
Q 1069 891 1326 650 
Q 1584 409 2034 409 
Q 2484 409 2743 651 
Q 3003 894 3003 1313 
Q 3003 1734 2745 1975 
Q 2488 2216 2034 2216 
z
M 1403 2484 
Q 997 2584 770 2862 
Q 544 3141 544 3541 
Q 544 4100 942 4425 
Q 1341 4750 2034 4750 
Q 2731 4750 3128 4425 
Q 3525 4100 3525 3541 
Q 3525 3141 3298 2862 
Q 3072 2584 2669 2484 
Q 3125 2378 3379 2068 
Q 3634 1759 3634 1313 
Q 3634 634 3220 271 
Q 2806 -91 2034 -91 
Q 1263 -91 848 271 
Q 434 634 434 1313 
Q 434 1759 690 2068 
Q 947 2378 1403 2484 
z
M 1172 3481 
Q 1172 3119 1398 2916 
Q 1625 2713 2034 2713 
Q 2441 2713 2670 2916 
Q 2900 3119 2900 3481 
Q 2900 3844 2670 4047 
Q 2441 4250 2034 4250 
Q 1625 4250 1398 4047 
Q 1172 3844 1172 3481 
z
" transform="scale(0.015625)"/>
       </defs>
       <use xlink:href="#DejaVuSans-38"/>
      </g>
     </g>
    </g>
    <g id="xtick_6">
     <g id="line2d_11">
      <path d="M 572.533788 534.04 
L 572.533788 25.44 
" clip-path="url(#p6ac23cec53)" style="fill: none; stroke: #b0b0b0; stroke-opacity: 0.3; stroke-width: 0.8; stroke-linecap: square"/>
     </g>
     <g id="line2d_12">
      <g>
       <use xlink:href="#m812b2e0cff" x="572.533788" y="534.04" style="stroke: #000000; stroke-width: 0.8"/>
      </g>
     </g>
     <g id="text_6">
      <!-- 10 -->
      <g transform="translate(566.171288 548.638438) scale(0.1 -0.1)">
       <defs>
        <path id="DejaVuSans-31" d="M 794 531 
L 1825 531 
L 1825 4091 
L 703 3866 
L 703 4441 
L 1819 4666 
L 2450 4666 
L 2450 531 
L 3481 531 
L 3481 0 
L 794 0 
L 794 531 
z
" transform="scale(0.015625)"/>
       </defs>
       <use xlink:href="#DejaVuSans-31"/>
       <use xlink:href="#DejaVuSans-30" transform="translate(63.623047 0)"/>
      </g>
     </g>
    </g>
    <g id="xtick_7">
     <g id="line2d_13">
      <path d="M 670.156818 534.04 
L 670.156818 25.44 
" clip-path="url(#p6ac23cec53)" style="fill: none; stroke: #b0b0b0; stroke-opacity: 0.3; stroke-width: 0.8; stroke-linecap: square"/>
     </g>
     <g id="line2d_14">
      <g>
       <use xlink:href="#m812b2e0cff" x="670.156818" y="534.04" style="stroke: #000000; stroke-width: 0.8"/>
      </g>
     </g>
     <g id="text_7">
      <!-- 12 -->
      <g transform="translate(663.794318 548.638438) scale(0.1 -0.1)">
       <use xlink:href="#DejaVuSans-31"/>
       <use xlink:href="#DejaVuSans-32" transform="translate(63.623047 0)"/>
      </g>
     </g>
    </g>
    <g id="xtick_8">
     <g id="line2d_15">
      <path d="M 767.779848 534.04 
L 767.779848 25.44 
" clip-path="url(#p6ac23cec53)" style="fill: none; stroke: #b0b0b0; stroke-opacity: 0.3; stroke-width: 0.8; stroke-linecap: square"/>
     </g>
     <g id="line2d_16">
      <g>
       <use xlink:href="#m812b2e0cff" x="767.779848" y="534.04" style="stroke: #000000; stroke-width: 0.8"/>
      </g>
     </g>
     <g id="text_8">
      <!-- 14 -->
      <g transform="translate(761.417348 548.638438) scale(0.1 -0.1)">
       <use xlink:href="#DejaVuSans-31"/>
       <use xlink:href="#DejaVuSans-34" transform="translate(63.623047 0)"/>
      </g>
     </g>
    </g>
    <g id="text_9">
     <!-- Time (minutes) -->
     <g transform="translate(412.5425 562.316563) scale(0.1 -0.1)">
      <defs>
       <path id="DejaVuSans-54" d="M -19 4666 
L 3928 4666 
L 3928 4134 
L 2272 4134 
L 2272 0 
L 1638 0 
L 1638 4134 
L -19 4134 
L -19 4666 
z
" transform="scale(0.015625)"/>
       <path id="DejaVuSans-69" d="M 603 3500 
L 1178 3500 
L 1178 0 
L 603 0 
L 603 3500 
z
M 603 4863 
L 1178 4863 
L 1178 4134 
L 603 4134 
L 603 4863 
z
" transform="scale(0.015625)"/>
       <path id="DejaVuSans-6d" d="M 3328 2828 
Q 3544 3216 3844 3400 
Q 4144 3584 4550 3584 
Q 5097 3584 5394 3201 
Q 5691 2819 5691 2113 
L 5691 0 
L 5113 0 
L 5113 2094 
Q 5113 2597 4934 2840 
Q 4756 3084 4391 3084 
Q 3944 3084 3684 2787 
Q 3425 2491 3425 1978 
L 3425 0 
L 2847 0 
L 2847 2094 
Q 2847 2600 2669 2842 
Q 2491 3084 2119 3084 
Q 1678 3084 1418 2786 
Q 1159 2488 1159 1978 
L 1159 0 
L 581 0 
L 581 3500 
L 1159 3500 
L 1159 2956 
Q 1356 3278 1631 3431 
Q 1906 3584 2284 3584 
Q 2666 3584 2933 3390 
Q 3200 3197 3328 2828 
z
" transform="scale(0.015625)"/>
       <path id="DejaVuSans-65" d="M 3597 1894 
L 3597 1613 
L 953 1613 
Q 991 1019 1311 708 
Q 1631 397 2203 397 
Q 2534 397 2845 478 
Q 3156 559 3463 722 
L 3463 178 
Q 3153 47 2828 -22 
Q 2503 -91 2169 -91 
Q 1331 -91 842 396 
Q 353 884 353 1716 
Q 353 2575 817 3079 
Q 1281 3584 2069 3584 
Q 2775 3584 3186 3129 
Q 3597 2675 3597 1894 
z
M 3022 2063 
Q 3016 2534 2758 2815 
Q 2500 3097 2075 3097 
Q 1594 3097 1305 2825 
Q 1016 2553 972 2059 
L 3022 2063 
z
" transform="scale(0.015625)"/>
       <path id="DejaVuSans-20" transform="scale(0.015625)"/>
       <path id="DejaVuSans-28" d="M 1984 4856 
Q 1566 4138 1362 3434 
Q 1159 2731 1159 2009 
Q 1159 1288 1364 580 
Q 1569 -128 1984 -844 
L 1484 -844 
Q 1016 -109 783 600 
Q 550 1309 550 2009 
Q 550 2706 781 3412 
Q 1013 4119 1484 4856 
L 1984 4856 
z
" transform="scale(0.015625)"/>
       <path id="DejaVuSans-6e" d="M 3513 2113 
L 3513 0 
L 2938 0 
L 2938 2094 
Q 2938 2591 2744 2837 
Q 2550 3084 2163 3084 
Q 1697 3084 1428 2787 
Q 1159 2491 1159 1978 
L 1159 0 
L 581 0 
L 581 3500 
L 1159 3500 
L 1159 2956 
Q 1366 3272 1645 3428 
Q 1925 3584 2291 3584 
Q 2894 3584 3203 3211 
Q 3513 2838 3513 2113 
z
" transform="scale(0.015625)"/>
       <path id="DejaVuSans-75" d="M 544 1381 
L 544 3500 
L 1119 3500 
L 1119 1403 
Q 1119 906 1312 657 
Q 1506 409 1894 409 
Q 2359 409 2629 706 
Q 2900 1003 2900 1516 
L 2900 3500 
L 3475 3500 
L 3475 0 
L 2900 0 
L 2900 538 
Q 2691 219 2414 64 
Q 2138 -91 1772 -91 
Q 1169 -91 856 284 
Q 544 659 544 1381 
z
M 1991 3584 
L 1991 3584 
z
" transform="scale(0.015625)"/>
       <path id="DejaVuSans-74" d="M 1172 4494 
L 1172 3500 
L 2356 3500 
L 2356 3053 
L 1172 3053 
L 1172 1153 
Q 1172 725 1289 603 
Q 1406 481 1766 481 
L 2356 481 
L 2356 0 
L 1766 0 
Q 1100 0 847 248 
Q 594 497 594 1153 
L 594 3053 
L 172 3053 
L 172 3500 
L 594 3500 
L 594 4494 
L 1172 4494 
z
" transform="scale(0.015625)"/>
       <path id="DejaVuSans-73" d="M 2834 3397 
L 2834 2853 
Q 2591 2978 2328 3040 
Q 2066 3103 1784 3103 
Q 1356 3103 1142 2972 
Q 928 2841 928 2578 
Q 928 2378 1081 2264 
Q 1234 2150 1697 2047 
L 1894 2003 
Q 2506 1872 2764 1633 
Q 3022 1394 3022 966 
Q 3022 478 2636 193 
Q 2250 -91 1575 -91 
Q 1294 -91 989 -36 
Q 684 19 347 128 
L 347 722 
Q 666 556 975 473 
Q 1284 391 1588 391 
Q 1994 391 2212 530 
Q 2431 669 2431 922 
Q 2431 1156 2273 1281 
Q 2116 1406 1581 1522 
L 1381 1569 
Q 847 1681 609 1914 
Q 372 2147 372 2553 
Q 372 3047 722 3315 
Q 1072 3584 1716 3584 
Q 2034 3584 2315 3537 
Q 2597 3491 2834 3397 
z
" transform="scale(0.015625)"/>
       <path id="DejaVuSans-29" d="M 513 4856 
L 1013 4856 
Q 1481 4119 1714 3412 
Q 1947 2706 1947 2009 
Q 1947 1309 1714 600 
Q 1481 -109 1013 -844 
L 513 -844 
Q 928 -128 1133 580 
Q 1338 1288 1338 2009 
Q 1338 2731 1133 3434 
Q 928 4138 513 4856 
z
" transform="scale(0.015625)"/>
      </defs>
      <use xlink:href="#DejaVuSans-54"/>
      <use xlink:href="#DejaVuSans-69" transform="translate(57.958984 0)"/>
      <use xlink:href="#DejaVuSans-6d" transform="translate(85.742188 0)"/>
      <use xlink:href="#DejaVuSans-65" transform="translate(183.154297 0)"/>
      <use xlink:href="#DejaVuSans-20" transform="translate(244.677734 0)"/>
      <use xlink:href="#DejaVuSans-28" transform="translate(276.464844 0)"/>
      <use xlink:href="#DejaVuSans-6d" transform="translate(315.478516 0)"/>
      <use xlink:href="#DejaVuSans-69" transform="translate(412.890625 0)"/>
      <use xlink:href="#DejaVuSans-6e" transform="translate(440.673828 0)"/>
      <use xlink:href="#DejaVuSans-75" transform="translate(504.052734 0)"/>
      <use xlink:href="#DejaVuSans-74" transform="translate(567.431641 0)"/>
      <use xlink:href="#DejaVuSans-65" transform="translate(606.640625 0)"/>
      <use xlink:href="#DejaVuSans-73" transform="translate(668.164062 0)"/>
      <use xlink:href="#DejaVuSans-29" transform="translate(720.263672 0)"/>
     </g>
    </g>
   </g>
   <g id="matplotlib.axis_2">
    <g id="ytick_1">
     <g id="line2d_17">
      <path d="M 47.81 510.662242 
L 853.2 510.662242 
" clip-path="url(#p6ac23cec53)" style="fill: none; stroke: #b0b0b0; stroke-opacity: 0.3; stroke-width: 0.8; stroke-linecap: square"/>
     </g>
     <g id="line2d_18">
      <defs>
       <path id="m9104dcc84e" d="M 0 0 
L -3.5 0 
" style="stroke: #000000; stroke-width: 0.8"/>
      </defs>
      <g>
       <use xlink:href="#m9104dcc84e" x="47.81" y="510.662242" style="stroke: #000000; stroke-width: 0.8"/>
      </g>
     </g>
     <g id="text_10">
      <!-- 0.0 -->
      <g transform="translate(24.906875 514.46146) scale(0.1 -0.1)">
       <defs>
        <path id="DejaVuSans-2e" d="M 684 794 
L 1344 794 
L 1344 0 
L 684 0 
L 684 794 
z
" transform="scale(0.015625)"/>
       </defs>
       <use xlink:href="#DejaVuSans-30"/>
       <use xlink:href="#DejaVuSans-2e" transform="translate(63.623047 0)"/>
       <use xlink:href="#DejaVuSans-30" transform="translate(95.410156 0)"/>
      </g>
     </g>
    </g>
    <g id="ytick_2">
     <g id="line2d_19">
      <path d="M 47.81 431.681994 
L 853.2 431.681994 
" clip-path="url(#p6ac23cec53)" style="fill: none; stroke: #b0b0b0; stroke-opacity: 0.3; stroke-width: 0.8; stroke-linecap: square"/>
     </g>
     <g id="line2d_20">
      <g>
       <use xlink:href="#m9104dcc84e" x="47.81" y="431.681994" style="stroke: #000000; stroke-width: 0.8"/>
      </g>
     </g>
     <g id="text_11">
      <!-- 0.1 -->
      <g transform="translate(24.906875 435.481212) scale(0.1 -0.1)">
       <use xlink:href="#DejaVuSans-30"/>
       <use xlink:href="#DejaVuSans-2e" transform="translate(63.623047 0)"/>
       <use xlink:href="#DejaVuSans-31" transform="translate(95.410156 0)"/>
      </g>
     </g>
    </g>
    <g id="ytick_3">
     <g id="line2d_21">
      <path d="M 47.81 352.701745 
L 853.2 352.701745 
" clip-path="url(#p6ac23cec53)" style="fill: none; stroke: #b0b0b0; stroke-opacity: 0.3; stroke-width: 0.8; stroke-linecap: square"/>
     </g>
     <g id="line2d_22">
      <g>
       <use xlink:href="#m9104dcc84e" x="47.81" y="352.701745" style="stroke: #000000; stroke-width: 0.8"/>
      </g>
     </g>
     <g id="text_12">
      <!-- 0.2 -->
      <g transform="translate(24.906875 356.500964) scale(0.1 -0.1)">
       <use xlink:href="#DejaVuSans-30"/>
       <use xlink:href="#DejaVuSans-2e" transform="translate(63.623047 0)"/>
       <use xlink:href="#DejaVuSans-32" transform="translate(95.410156 0)"/>
      </g>
     </g>
    </g>
    <g id="ytick_4">
     <g id="line2d_23">
      <path d="M 47.81 273.721497 
L 853.2 273.721497 
" clip-path="url(#p6ac23cec53)" style="fill: none; stroke: #b0b0b0; stroke-opacity: 0.3; stroke-width: 0.8; stroke-linecap: square"/>
     </g>
     <g id="line2d_24">
      <g>
       <use xlink:href="#m9104dcc84e" x="47.81" y="273.721497" style="stroke: #000000; stroke-width: 0.8"/>
      </g>
     </g>
     <g id="text_13">
      <!-- 0.3 -->
      <g transform="translate(24.906875 277.520716) scale(0.1 -0.1)">
       <defs>
        <path id="DejaVuSans-33" d="M 2597 2516 
Q 3050 2419 3304 2112 
Q 3559 1806 3559 1356 
Q 3559 666 3084 287 
Q 2609 -91 1734 -91 
Q 1441 -91 1130 -33 
Q 819 25 488 141 
L 488 750 
Q 750 597 1062 519 
Q 1375 441 1716 441 
Q 2309 441 2620 675 
Q 2931 909 2931 1356 
Q 2931 1769 2642 2001 
Q 2353 2234 1838 2234 
L 1294 2234 
L 1294 2753 
L 1863 2753 
Q 2328 2753 2575 2939 
Q 2822 3125 2822 3475 
Q 2822 3834 2567 4026 
Q 2313 4219 1838 4219 
Q 1578 4219 1281 4162 
Q 984 4106 628 3988 
L 628 4550 
Q 988 4650 1302 4700 
Q 1616 4750 1894 4750 
Q 2613 4750 3031 4423 
Q 3450 4097 3450 3541 
Q 3450 3153 3228 2886 
Q 3006 2619 2597 2516 
z
" transform="scale(0.015625)"/>
       </defs>
       <use xlink:href="#DejaVuSans-30"/>
       <use xlink:href="#DejaVuSans-2e" transform="translate(63.623047 0)"/>
       <use xlink:href="#DejaVuSans-33" transform="translate(95.410156 0)"/>
      </g>
     </g>
    </g>
    <g id="ytick_5">
     <g id="line2d_25">
      <path d="M 47.81 194.741249 
L 853.2 194.741249 
" clip-path="url(#p6ac23cec53)" style="fill: none; stroke: #b0b0b0; stroke-opacity: 0.3; stroke-width: 0.8; stroke-linecap: square"/>
     </g>
     <g id="line2d_26">
      <g>
       <use xlink:href="#m9104dcc84e" x="47.81" y="194.741249" style="stroke: #000000; stroke-width: 0.8"/>
      </g>
     </g>
     <g id="text_14">
      <!-- 0.4 -->
      <g transform="translate(24.906875 198.540468) scale(0.1 -0.1)">
       <use xlink:href="#DejaVuSans-30"/>
       <use xlink:href="#DejaVuSans-2e" transform="translate(63.623047 0)"/>
       <use xlink:href="#DejaVuSans-34" transform="translate(95.410156 0)"/>
      </g>
     </g>
    </g>
    <g id="ytick_6">
     <g id="line2d_27">
      <path d="M 47.81 115.761001 
L 853.2 115.761001 
" clip-path="url(#p6ac23cec53)" style="fill: none; stroke: #b0b0b0; stroke-opacity: 0.3; stroke-width: 0.8; stroke-linecap: square"/>
     </g>
     <g id="line2d_28">
      <g>
       <use xlink:href="#m9104dcc84e" x="47.81" y="115.761001" style="stroke: #000000; stroke-width: 0.8"/>
      </g>
     </g>
     <g id="text_15">
      <!-- 0.5 -->
      <g transform="translate(24.906875 119.560219) scale(0.1 -0.1)">
       <defs>
        <path id="DejaVuSans-35" d="M 691 4666 
L 3169 4666 
L 3169 4134 
L 1269 4134 
L 1269 2991 
Q 1406 3038 1543 3061 
Q 1681 3084 1819 3084 
Q 2600 3084 3056 2656 
Q 3513 2228 3513 1497 
Q 3513 744 3044 326 
Q 2575 -91 1722 -91 
Q 1428 -91 1123 -41 
Q 819 9 494 109 
L 494 744 
Q 775 591 1075 516 
Q 1375 441 1709 441 
Q 2250 441 2565 725 
Q 2881 1009 2881 1497 
Q 2881 1984 2565 2268 
Q 2250 2553 1709 2553 
Q 1456 2553 1204 2497 
Q 953 2441 691 2322 
L 691 4666 
z
" transform="scale(0.015625)"/>
       </defs>
       <use xlink:href="#DejaVuSans-30"/>
       <use xlink:href="#DejaVuSans-2e" transform="translate(63.623047 0)"/>
       <use xlink:href="#DejaVuSans-35" transform="translate(95.410156 0)"/>
      </g>
     </g>
    </g>
    <g id="ytick_7">
     <g id="line2d_29">
      <path d="M 47.81 36.780753 
L 853.2 36.780753 
" clip-path="url(#p6ac23cec53)" style="fill: none; stroke: #b0b0b0; stroke-opacity: 0.3; stroke-width: 0.8; stroke-linecap: square"/>
     </g>
     <g id="line2d_30">
      <g>
       <use xlink:href="#m9104dcc84e" x="47.81" y="36.780753" style="stroke: #000000; stroke-width: 0.8"/>
      </g>
     </g>
     <g id="text_16">
      <!-- 0.6 -->
      <g transform="translate(24.906875 40.579971) scale(0.1 -0.1)">
       <use xlink:href="#DejaVuSans-30"/>
       <use xlink:href="#DejaVuSans-2e" transform="translate(63.623047 0)"/>
       <use xlink:href="#DejaVuSans-36" transform="translate(95.410156 0)"/>
      </g>
     </g>
    </g>
    <g id="text_17">
     <!-- EDA signals (μS) -->
     <g transform="translate(18.827187 320.911875) rotate(-90) scale(0.1 -0.1)">
      <defs>
       <path id="DejaVuSans-45" d="M 628 4666 
L 3578 4666 
L 3578 4134 
L 1259 4134 
L 1259 2753 
L 3481 2753 
L 3481 2222 
L 1259 2222 
L 1259 531 
L 3634 531 
L 3634 0 
L 628 0 
L 628 4666 
z
" transform="scale(0.015625)"/>
       <path id="DejaVuSans-44" d="M 1259 4147 
L 1259 519 
L 2022 519 
Q 2988 519 3436 956 
Q 3884 1394 3884 2338 
Q 3884 3275 3436 3711 
Q 2988 4147 2022 4147 
L 1259 4147 
z
M 628 4666 
L 1925 4666 
Q 3281 4666 3915 4102 
Q 4550 3538 4550 2338 
Q 4550 1131 3912 565 
Q 3275 0 1925 0 
L 628 0 
L 628 4666 
z
" transform="scale(0.015625)"/>
       <path id="DejaVuSans-41" d="M 2188 4044 
L 1331 1722 
L 3047 1722 
L 2188 4044 
z
M 1831 4666 
L 2547 4666 
L 4325 0 
L 3669 0 
L 3244 1197 
L 1141 1197 
L 716 0 
L 50 0 
L 1831 4666 
z
" transform="scale(0.015625)"/>
       <path id="DejaVuSans-67" d="M 2906 1791 
Q 2906 2416 2648 2759 
Q 2391 3103 1925 3103 
Q 1463 3103 1205 2759 
Q 947 2416 947 1791 
Q 947 1169 1205 825 
Q 1463 481 1925 481 
Q 2391 481 2648 825 
Q 2906 1169 2906 1791 
z
M 3481 434 
Q 3481 -459 3084 -895 
Q 2688 -1331 1869 -1331 
Q 1566 -1331 1297 -1286 
Q 1028 -1241 775 -1147 
L 775 -588 
Q 1028 -725 1275 -790 
Q 1522 -856 1778 -856 
Q 2344 -856 2625 -561 
Q 2906 -266 2906 331 
L 2906 616 
Q 2728 306 2450 153 
Q 2172 0 1784 0 
Q 1141 0 747 490 
Q 353 981 353 1791 
Q 353 2603 747 3093 
Q 1141 3584 1784 3584 
Q 2172 3584 2450 3431 
Q 2728 3278 2906 2969 
L 2906 3500 
L 3481 3500 
L 3481 434 
z
" transform="scale(0.015625)"/>
       <path id="DejaVuSans-61" d="M 2194 1759 
Q 1497 1759 1228 1600 
Q 959 1441 959 1056 
Q 959 750 1161 570 
Q 1363 391 1709 391 
Q 2188 391 2477 730 
Q 2766 1069 2766 1631 
L 2766 1759 
L 2194 1759 
z
M 3341 1997 
L 3341 0 
L 2766 0 
L 2766 531 
Q 2569 213 2275 61 
Q 1981 -91 1556 -91 
Q 1019 -91 701 211 
Q 384 513 384 1019 
Q 384 1609 779 1909 
Q 1175 2209 1959 2209 
L 2766 2209 
L 2766 2266 
Q 2766 2663 2505 2880 
Q 2244 3097 1772 3097 
Q 1472 3097 1187 3025 
Q 903 2953 641 2809 
L 641 3341 
Q 956 3463 1253 3523 
Q 1550 3584 1831 3584 
Q 2591 3584 2966 3190 
Q 3341 2797 3341 1997 
z
" transform="scale(0.015625)"/>
       <path id="DejaVuSans-6c" d="M 603 4863 
L 1178 4863 
L 1178 0 
L 603 0 
L 603 4863 
z
" transform="scale(0.015625)"/>
       <path id="DejaVuSans-3bc" d="M 544 -1331 
L 544 3500 
L 1119 3500 
L 1119 1325 
Q 1119 872 1334 640 
Q 1550 409 1972 409 
Q 2434 409 2667 671 
Q 2900 934 2900 1459 
L 2900 3500 
L 3475 3500 
L 3475 806 
Q 3475 619 3529 530 
Q 3584 441 3700 441 
Q 3728 441 3778 458 
Q 3828 475 3916 513 
L 3916 50 
Q 3788 -22 3673 -56 
Q 3559 -91 3450 -91 
Q 3234 -91 3106 31 
Q 2978 153 2931 403 
Q 2775 156 2548 32 
Q 2322 -91 2016 -91 
Q 1697 -91 1473 31 
Q 1250 153 1119 397 
L 1119 -1331 
L 544 -1331 
z
" transform="scale(0.015625)"/>
       <path id="DejaVuSans-53" d="M 3425 4513 
L 3425 3897 
Q 3066 4069 2747 4153 
Q 2428 4238 2131 4238 
Q 1616 4238 1336 4038 
Q 1056 3838 1056 3469 
Q 1056 3159 1242 3001 
Q 1428 2844 1947 2747 
L 2328 2669 
Q 3034 2534 3370 2195 
Q 3706 1856 3706 1288 
Q 3706 609 3251 259 
Q 2797 -91 1919 -91 
Q 1588 -91 1214 -16 
Q 841 59 441 206 
L 441 856 
Q 825 641 1194 531 
Q 1563 422 1919 422 
Q 2459 422 2753 634 
Q 3047 847 3047 1241 
Q 3047 1584 2836 1778 
Q 2625 1972 2144 2069 
L 1759 2144 
Q 1053 2284 737 2584 
Q 422 2884 422 3419 
Q 422 4038 858 4394 
Q 1294 4750 2059 4750 
Q 2388 4750 2728 4690 
Q 3069 4631 3425 4513 
z
" transform="scale(0.015625)"/>
      </defs>
      <use xlink:href="#DejaVuSans-45"/>
      <use xlink:href="#DejaVuSans-44" transform="translate(63.183594 0)"/>
      <use xlink:href="#DejaVuSans-41" transform="translate(138.435547 0)"/>
      <use xlink:href="#DejaVuSans-20" transform="translate(206.84375 0)"/>
      <use xlink:href="#DejaVuSans-73" transform="translate(238.630859 0)"/>
      <use xlink:href="#DejaVuSans-69" transform="translate(290.730469 0)"/>
      <use xlink:href="#DejaVuSans-67" transform="translate(318.513672 0)"/>
      <use xlink:href="#DejaVuSans-6e" transform="translate(381.990234 0)"/>
      <use xlink:href="#DejaVuSans-61" transform="translate(445.369141 0)"/>
      <use xlink:href="#DejaVuSans-6c" transform="translate(506.648438 0)"/>
      <use xlink:href="#DejaVuSans-73" transform="translate(534.431641 0)"/>
      <use xlink:href="#DejaVuSans-20" transform="translate(586.53125 0)"/>
      <use xlink:href="#DejaVuSans-28" transform="translate(618.318359 0)"/>
      <use xlink:href="#DejaVuSans-3bc" transform="translate(657.332031 0)"/>
      <use xlink:href="#DejaVuSans-53" transform="translate(720.955078 0)"/>
      <use xlink:href="#DejaVuSans-29" transform="translate(784.431641 0)"/>
     </g>
    </g>
   </g>
   <g id="line2d_31">
    <path d="M 84.418636 99.503055 
L 85.029119 100.00408 
L 86.45358 100.557427 
L 88.081535 101.288779 
L 88.692018 100.937167 
L 89.505996 100.307892 
L 90.116479 99.803788 
L 90.726962 99.451402 
L 91.337445 98.632788 
L 91.744434 98.209853 
L 91.947928 98.174502 
L 92.354917 98.460633 
L 93.372388 99.887152 
L 93.575883 99.883031 
L 94.38986 99.425043 
L 95.407332 99.93535 
L 96.22131 99.508292 
L 96.628298 99.896757 
L 97.238781 100.667005 
L 97.64577 100.67005 
L 98.459748 100.291076 
L 99.070231 100.176734 
L 99.680714 99.976414 
L 100.494691 100.277734 
L 100.90168 100.031726 
L 101.512163 99.577718 
L 102.733129 99.349353 
L 103.140118 99.233484 
L 104.971567 99.144991 
L 105.58205 98.761956 
L 106.803017 97.596572 
L 107.210005 97.723957 
L 107.616994 98.025159 
L 107.820488 98.057079 
L 108.227477 97.801231 
L 108.83796 97.296623 
L 109.244949 97.289399 
L 110.66941 97.610113 
L 111.483387 97.59128 
L 112.09387 97.355317 
L 112.704353 96.976072 
L 113.111342 97.099597 
L 113.721825 97.548102 
L 113.925319 97.528033 
L 114.739297 97.013284 
L 115.146286 97.238788 
L 115.960263 97.849831 
L 116.367252 97.919897 
L 116.77424 97.759399 
L 117.384724 97.45728 
L 118.198701 97.504094 
L 119.012679 97.66153 
L 119.623162 97.874047 
L 121.047622 97.614266 
L 121.8616 96.906174 
L 122.472083 96.775278 
L 122.879071 96.853921 
L 124.100038 97.582029 
L 124.507026 97.441161 
L 125.931487 96.282575 
L 126.54197 96.488765 
L 127.152453 96.580126 
L 128.576914 96.365735 
L 128.983902 96.41829 
L 129.390891 96.260163 
L 130.408363 95.451628 
L 130.815352 95.635779 
L 131.22234 95.858007 
L 132.646801 95.892187 
L 134.274756 95.319877 
L 134.885239 95.145597 
L 135.495722 95.282154 
L 136.3097 95.579892 
L 136.716688 95.355407 
L 138.141149 94.127588 
L 138.751632 93.354053 
L 139.158621 93.121424 
L 139.565609 93.11484 
L 140.379587 93.337102 
L 141.193564 93.126718 
L 142.007542 93.566936 
L 142.618025 93.229424 
L 143.432002 92.981016 
L 144.652969 92.613826 
L 145.67044 93.181384 
L 145.873935 93.087382 
L 146.280923 92.559513 
L 146.687912 91.994183 
L 146.891407 91.900849 
L 147.298395 92.07925 
L 147.705384 92.217262 
L 148.519362 92.060179 
L 149.129845 92.169657 
L 149.536833 91.879903 
L 149.943822 91.285806 
L 150.554305 89.935164 
L 151.164788 88.560999 
L 151.571777 88.116185 
L 151.775271 88.100357 
L 152.18226 88.48351 
L 152.996238 89.691377 
L 153.606721 90.131711 
L 154.217204 90.330904 
L 154.624192 90.119524 
L 155.234676 89.68964 
L 155.641664 89.671195 
L 156.048653 89.912104 
L 157.269619 90.901653 
L 157.880102 90.95448 
L 158.490585 91.002829 
L 159.508057 91.328377 
L 160.11854 91.852032 
L 160.525529 92.184768 
L 160.932518 92.208285 
L 161.339507 91.856425 
L 161.746495 91.44217 
L 162.153484 91.368813 
L 162.967461 91.849294 
L 163.37445 91.641457 
L 163.984933 91.21309 
L 164.595416 91.211926 
L 165.816383 91.378238 
L 166.63036 91.250922 
L 167.037349 91.234589 
L 168.258315 90.758931 
L 168.868798 90.798783 
L 169.682776 90.423772 
L 170.496753 89.958827 
L 171.921214 88.819739 
L 172.328202 88.850132 
L 173.14218 88.969434 
L 173.549168 88.897927 
L 174.363146 88.258391 
L 174.770135 88.410242 
L 175.380618 88.777126 
L 175.991101 88.822947 
L 176.39809 88.674042 
L 178.636528 86.963355 
L 179.043516 87.062772 
L 180.060988 87.697751 
L 180.467977 87.58862 
L 184.130875 85.63882 
L 184.741359 85.463763 
L 185.351842 85.117037 
L 185.75883 85.164323 
L 186.776302 85.588806 
L 187.793774 85.639265 
L 188.200763 85.392403 
L 188.811246 84.871516 
L 189.218235 84.787604 
L 189.625223 84.873512 
L 190.84619 85.406505 
L 191.660167 85.338829 
L 192.881133 85.66957 
L 193.288122 85.634138 
L 193.695111 85.430722 
L 194.305594 84.964157 
L 194.712582 84.965983 
L 195.52656 85.310077 
L 195.933549 85.087148 
L 197.154515 84.020085 
L 197.561504 84.171123 
L 197.968492 84.313925 
L 198.375481 84.010164 
L 198.78247 83.600234 
L 199.392953 83.433587 
L 200.003436 83.309769 
L 200.410425 83.544562 
L 200.817413 83.779749 
L 201.224402 83.594899 
L 201.834885 83.179427 
L 202.241874 83.353434 
L 203.055851 84.037259 
L 203.46284 84.088547 
L 203.869829 83.943738 
L 205.090795 83.005176 
L 205.497784 82.676692 
L 205.904773 82.64296 
L 206.515256 82.762405 
L 207.532728 82.598397 
L 208.143211 82.641157 
L 208.550199 82.395597 
L 209.364177 81.702155 
L 209.771166 81.80907 
L 211.195626 82.838601 
L 211.806109 82.820064 
L 212.620087 82.62376 
L 213.23057 82.388148 
L 213.434064 82.452468 
L 214.248042 83.256783 
L 214.451536 83.148122 
L 215.265513 82.222076 
L 215.672502 82.140848 
L 216.48648 82.256111 
L 217.503951 81.966105 
L 218.114435 81.47459 
L 218.521423 81.144139 
L 218.928412 81.086896 
L 219.335401 81.154955 
L 219.742389 80.92015 
L 220.556367 80.020215 
L 220.963356 79.837729 
L 223.201794 79.610497 
L 223.608782 79.997779 
L 224.219266 80.605857 
L 224.829749 80.8378 
L 225.236737 80.773178 
L 226.050715 80.405162 
L 226.661198 80.314318 
L 227.271681 80.041588 
L 228.289153 80.219228 
L 229.10313 80.433017 
L 229.917108 80.710311 
L 230.324096 80.50012 
L 231.138074 79.851587 
L 231.748557 79.692578 
L 232.35904 79.701856 
L 232.969523 79.76263 
L 233.783501 79.689169 
L 234.597478 79.934997 
L 235.004467 79.804703 
L 236.021939 79.175362 
L 237.242905 79.202497 
L 238.463871 79.003611 
L 239.481343 79.328339 
L 239.888332 79.134378 
L 240.702309 78.648025 
L 241.312792 78.584863 
L 242.330264 78.019781 
L 242.737253 78.239607 
L 243.347736 78.620335 
L 243.55123 78.564272 
L 243.958219 78.110149 
L 244.365208 77.585824 
L 244.772196 77.427758 
L 245.179185 77.720604 
L 245.789668 78.303336 
L 246.196657 78.459003 
L 246.603646 78.433636 
L 247.010634 78.159463 
L 247.417623 77.820128 
L 247.621118 77.772469 
L 248.028106 77.986225 
L 248.842084 78.532646 
L 249.656061 78.946261 
L 250.06305 78.814246 
L 251.080522 78.176886 
L 251.691005 78.29511 
L 252.097994 78.320837 
L 252.504982 78.160993 
L 253.725949 77.404939 
L 254.336432 77.404385 
L 254.946915 77.263101 
L 255.353903 77.430122 
L 255.964387 78.038373 
L 256.57487 78.584095 
L 256.778364 78.58593 
L 257.185353 78.238487 
L 257.795836 77.522395 
L 258.202825 77.397153 
L 258.813308 77.328494 
L 259.220296 77.075392 
L 260.441263 76.004496 
L 260.644757 76.038391 
L 261.051746 76.417855 
L 261.662229 77.031142 
L 262.069217 77.013146 
L 263.086689 76.721549 
L 263.493678 76.751135 
L 264.307656 76.991281 
L 264.714644 76.792248 
L 265.121633 76.544252 
L 265.528622 76.614561 
L 266.139105 77.341003 
L 266.749588 78.00058 
L 267.156577 78.22827 
L 267.563565 78.255349 
L 267.970554 77.990757 
L 268.581037 77.433882 
L 269.598509 77.191121 
L 270.208992 77.183485 
L 270.615981 77.100021 
L 271.226464 76.884765 
L 272.44743 76.871081 
L 272.854419 77.062145 
L 273.464902 77.415117 
L 273.871891 77.235264 
L 274.889363 76.25629 
L 275.296351 76.124665 
L 275.70334 76.215263 
L 276.720812 76.76348 
L 277.941778 76.781869 
L 278.755755 76.587681 
L 279.569733 76.60206 
L 280.180216 76.311756 
L 280.790699 75.935373 
L 281.197688 76.001364 
L 281.808171 76.228987 
L 282.418654 76.102572 
L 282.825643 76.40225 
L 283.436126 77.043343 
L 283.843115 76.892343 
L 284.250103 76.687577 
L 285.064081 76.807889 
L 285.47107 76.330439 
L 286.081553 75.463185 
L 286.488541 75.219438 
L 286.89553 75.184863 
L 287.302519 75.363558 
L 288.319991 76.121387 
L 288.726979 76.002066 
L 289.337462 75.621501 
L 289.744451 75.709584 
L 290.354934 76.138524 
L 290.761923 76.107148 
L 291.372406 75.586052 
L 291.779395 75.330195 
L 292.186384 75.520045 
L 292.796867 75.992829 
L 293.203855 75.994771 
L 293.814339 75.824425 
L 294.221327 75.978802 
L 295.035305 76.520437 
L 295.645788 76.371818 
L 296.256271 76.383077 
L 296.66326 76.355201 
L 297.070248 76.057529 
L 298.291215 74.702907 
L 298.698203 74.924196 
L 299.105192 75.301027 
L 299.308686 75.359125 
L 299.715675 75.140805 
L 300.326158 74.646642 
L 300.733147 74.556504 
L 301.34363 74.719862 
L 303.175079 75.304893 
L 303.785562 75.117615 
L 304.59954 75.114283 
L 305.617012 74.487134 
L 307.041472 74.363109 
L 308.058944 74.57516 
L 308.465933 74.474242 
L 308.872922 74.699126 
L 309.483405 75.053573 
L 310.297382 75.380061 
L 310.704371 75.533227 
L 311.11136 75.400217 
L 311.721843 74.955068 
L 312.128831 74.951479 
L 312.53582 75.015853 
L 312.942809 74.853897 
L 313.756786 74.194221 
L 314.163775 74.144728 
L 314.977753 74.499567 
L 315.588236 74.744934 
L 315.79173 74.656573 
L 316.198719 74.015131 
L 316.605707 73.361687 
L 316.809202 73.307827 
L 317.216191 73.68199 
L 317.623179 74.03104 
L 317.826674 74.021539 
L 318.640651 73.514251 
L 319.04764 73.689498 
L 320.4721 74.612822 
L 321.489572 74.798733 
L 321.896561 74.57453 
L 322.507044 74.129827 
L 323.321022 73.722789 
L 323.72801 73.581247 
L 324.541988 73.666496 
L 325.152471 73.226552 
L 325.55946 73.118438 
L 325.966448 73.504975 
L 326.576931 74.133256 
L 326.780426 74.14401 
L 327.187414 73.813374 
L 327.594403 73.373808 
L 328.001392 73.274958 
L 328.611875 73.294677 
L 329.018864 73.186089 
L 329.425852 73.450385 
L 329.832841 73.829421 
L 330.036336 73.850054 
L 330.850313 73.472445 
L 331.460796 73.494074 
L 332.681762 73.170873 
L 333.49574 73.346584 
L 334.106223 73.281463 
L 334.9202 72.959983 
L 335.327189 73.193651 
L 335.937672 73.535873 
L 336.548155 73.521951 
L 337.972616 73.276442 
L 340.414548 74.070245 
L 340.821537 74.039558 
L 341.43202 73.633178 
L 341.839009 73.491092 
L 342.245998 73.710456 
L 342.856481 74.15131 
L 343.466964 74.215462 
L 344.077447 74.115974 
L 345.094919 73.600303 
L 346.519379 73.417169 
L 347.129862 73.108335 
L 347.94384 72.458501 
L 348.350828 72.23841 
L 348.757817 72.526561 
L 349.164806 72.959165 
L 349.571795 73.110934 
L 350.589267 73.050102 
L 350.996255 72.961356 
L 351.403244 73.102738 
L 351.810233 73.314375 
L 352.217221 73.276451 
L 353.031199 72.857888 
L 353.845176 72.323255 
L 354.252165 72.456386 
L 355.473131 73.336351 
L 355.88012 73.352077 
L 356.287109 73.128785 
L 357.304581 72.254075 
L 357.711569 72.267586 
L 358.525547 72.594148 
L 359.13603 72.638188 
L 359.950007 72.862046 
L 360.356996 72.629223 
L 360.967479 72.057098 
L 361.170974 72.035892 
L 361.577962 72.329099 
L 361.984951 72.704707 
L 362.39194 72.801171 
L 363.205917 72.699983 
L 363.8164 72.947729 
L 364.426883 73.186458 
L 365.037366 73.151467 
L 365.64785 72.870404 
L 367.479299 71.896044 
L 367.886288 72.044382 
L 368.496771 72.40795 
L 369.107254 72.532971 
L 369.717737 72.729629 
L 371.345692 72.816764 
L 371.956175 72.864075 
L 373.380635 72.588717 
L 376.026062 72.418268 
L 376.433051 72.433337 
L 376.84004 72.149344 
L 377.247028 71.760439 
L 377.654017 71.700799 
L 378.061006 71.787139 
L 378.467995 71.525799 
L 379.078478 70.946309 
L 379.485466 70.781035 
L 379.892455 70.861555 
L 380.502938 71.463284 
L 380.909927 71.737232 
L 381.316916 71.569032 
L 381.927399 71.08193 
L 382.334388 71.055196 
L 382.741376 71.105136 
L 383.148365 70.926839 
L 383.555354 70.721815 
L 383.758848 70.771632 
L 384.77632 71.558529 
L 385.183309 71.435104 
L 385.793792 71.169107 
L 386.20078 71.335496 
L 387.014758 71.894839 
L 387.421747 72.019059 
L 387.625241 71.960269 
L 388.03223 71.500116 
L 388.846207 70.311263 
L 389.253196 70.199792 
L 389.863679 70.123618 
L 390.881151 69.573668 
L 391.28814 69.947937 
L 392.102117 71.124832 
L 392.7126 71.533003 
L 393.119589 71.558682 
L 393.526578 71.281763 
L 394.340555 70.460584 
L 394.747544 70.439839 
L 396.985982 71.514794 
L 397.392971 71.546195 
L 399.427914 70.992728 
L 400.445386 70.036408 
L 401.055869 70.428019 
L 401.462858 70.579409 
L 402.073341 70.512258 
L 402.887318 70.413289 
L 403.294307 70.685203 
L 403.90479 71.709292 
L 404.311779 72.212935 
L 404.515273 72.221448 
L 404.718768 72.057371 
L 405.125756 71.308624 
L 405.939734 69.300996 
L 406.143228 69.072866 
L 406.346723 69.044483 
L 406.753711 69.457229 
L 407.567689 70.740728 
L 407.771183 70.802222 
L 407.974678 70.652122 
L 408.585161 69.744534 
L 408.788655 69.67069 
L 409.195644 69.936767 
L 409.602633 70.209028 
L 409.806127 70.197499 
L 410.620104 69.668426 
L 411.027093 70.042264 
L 411.434082 70.472344 
L 412.451554 70.913802 
L 413.265531 71.561324 
L 413.876014 71.708405 
L 414.283003 71.59449 
L 415.09698 71.224343 
L 415.503969 71.124508 
L 415.910958 70.762797 
L 416.317947 70.332198 
L 416.521441 70.265305 
L 416.92843 70.490704 
L 417.538913 71.074855 
L 417.945902 71.092761 
L 418.556385 70.705694 
L 418.963373 70.738162 
L 419.370362 70.791166 
L 419.980845 70.577507 
L 421.405306 69.900428 
L 421.812294 69.843834 
L 422.219283 70.190249 
L 422.626272 70.537453 
L 423.033261 70.475904 
L 424.050732 69.587938 
L 424.457721 69.772031 
L 425.271699 70.368673 
L 425.678687 70.30134 
L 426.28917 69.760823 
L 426.696159 69.444297 
L 427.103148 69.455869 
L 427.917125 69.938235 
L 428.324114 70.152865 
L 428.731103 70.138143 
L 429.138092 70.122105 
L 429.54508 70.425622 
L 430.155563 70.893174 
L 430.562552 70.865746 
L 431.173035 70.408948 
L 432.394001 69.506936 
L 432.597496 69.519888 
L 433.004485 70.005109 
L 433.411473 70.674891 
L 433.614968 70.808356 
L 433.818462 70.725455 
L 434.225451 70.060018 
L 434.632439 69.344377 
L 434.835934 69.182927 
L 435.039428 69.192906 
L 435.853406 69.678071 
L 436.870878 69.411748 
L 438.498832 69.606558 
L 439.923293 69.886178 
L 440.533776 70.00394 
L 441.551248 69.753501 
L 442.161731 69.455163 
L 443.789686 68.486028 
L 444.196675 68.670143 
L 444.807158 69.138685 
L 445.417641 69.200693 
L 446.028124 68.988846 
L 446.638607 68.615389 
L 446.842101 68.655403 
L 447.24909 69.078571 
L 447.859573 69.67303 
L 448.266562 69.700719 
L 449.487528 69.238379 
L 451.318977 68.649634 
L 452.132955 67.930458 
L 452.539944 67.978621 
L 453.353921 68.41916 
L 453.76091 68.322 
L 454.574887 67.817596 
L 454.981876 67.90862 
L 455.592359 68.260107 
L 455.999348 68.201846 
L 456.609831 67.981789 
L 457.01682 68.141697 
L 458.034292 69.080307 
L 458.44128 68.881457 
L 459.051763 68.48217 
L 459.662246 68.410235 
L 460.069235 68.504199 
L 460.679718 68.822978 
L 461.086707 68.730178 
L 461.900684 68.271448 
L 462.307673 68.419208 
L 462.714662 68.596133 
L 463.121651 68.501499 
L 463.935628 67.906929 
L 465.156594 66.722854 
L 465.970572 66.560347 
L 466.377561 66.820938 
L 467.191538 67.891712 
L 467.395032 67.898043 
L 468.20901 67.409853 
L 468.615999 67.553364 
L 469.226482 67.828774 
L 469.63347 67.706947 
L 470.243953 67.214746 
L 470.447448 67.183387 
L 470.854437 67.439684 
L 471.261425 67.815413 
L 471.668414 67.879433 
L 472.278897 67.72338 
L 472.685886 67.837656 
L 473.499863 68.165824 
L 473.906852 68.015319 
L 474.924324 67.402959 
L 475.534807 67.268145 
L 476.552279 67.526336 
L 477.366256 67.789191 
L 478.383728 67.413274 
L 479.197706 67.554935 
L 479.808189 67.269567 
L 480.215177 67.173965 
L 480.622166 67.118943 
L 481.029155 66.749322 
L 481.639638 66.063399 
L 482.046627 66.020656 
L 482.453615 66.362524 
L 483.064098 66.920705 
L 483.471087 66.870955 
L 484.285065 66.631956 
L 484.692053 66.808224 
L 485.506031 67.351135 
L 485.91302 67.402241 
L 487.33748 67.008292 
L 488.151458 66.40483 
L 488.761941 65.976517 
L 489.168929 65.919076 
L 491.814356 66.406457 
L 492.424839 66.172284 
L 492.831828 66.25807 
L 493.645805 66.713311 
L 494.052794 66.531529 
L 495.070266 65.655336 
L 496.087738 65.151087 
L 497.10521 65.152718 
L 497.512198 64.91968 
L 497.919187 65.016223 
L 498.326176 65.270255 
L 498.733165 65.25782 
L 499.140153 65.187989 
L 499.547142 65.410398 
L 500.36112 65.988261 
L 500.768108 65.985135 
L 501.582086 65.661822 
L 501.989074 65.779132 
L 502.599558 66.093839 
L 503.006546 65.990451 
L 503.617029 65.247042 
L 504.024018 64.799201 
L 504.431007 64.618094 
L 504.837996 64.720774 
L 505.448479 65.014431 
L 505.855467 65.034103 
L 506.262456 64.8606 
L 506.872939 64.456202 
L 507.279928 64.555193 
L 507.890411 64.887388 
L 508.2974 64.69213 
L 509.314872 63.689364 
L 509.72186 63.872815 
L 510.332343 64.239027 
L 511.349815 64.533422 
L 511.960298 65.030255 
L 512.367287 64.960379 
L 512.774276 64.715032 
L 513.588253 64.488902 
L 514.402231 63.618025 
L 515.216208 63.416071 
L 515.826691 63.14519 
L 516.23368 63.380339 
L 517.251152 64.716956 
L 517.454646 64.707508 
L 517.861635 64.279927 
L 518.268624 63.830809 
L 518.472118 63.785139 
L 518.879107 64.01062 
L 519.286096 64.230298 
L 520.91405 64.330676 
L 521.728028 63.772073 
L 522.338511 63.374868 
L 522.7455 63.390217 
L 523.355983 63.575173 
L 523.762972 63.29104 
L 524.16996 62.972384 
L 524.576949 62.989197 
L 525.390927 63.546613 
L 526.00141 63.857504 
L 526.611893 63.965969 
L 527.018881 64.312315 
L 527.42587 64.705081 
L 527.629365 64.757617 
L 528.036353 64.4905 
L 528.646836 63.92283 
L 529.257319 63.796463 
L 529.867803 63.543151 
L 530.274791 63.397307 
L 531.088769 63.530568 
L 531.699252 63.734303 
L 532.309735 63.94408 
L 533.327207 63.67573 
L 533.93769 63.968408 
L 534.344679 63.854403 
L 535.565645 63.005569 
L 535.972634 63.101317 
L 536.786611 63.664709 
L 538.007577 63.420095 
L 538.61806 63.536598 
L 539.228543 63.557101 
L 540.246015 63.89857 
L 541.87397 62.948327 
L 542.484453 62.433583 
L 542.687948 62.427513 
L 543.094936 62.717411 
L 543.501925 62.976983 
L 544.519397 63.009632 
L 545.12988 63.419836 
L 545.536869 63.409228 
L 545.943857 62.92723 
L 546.757835 61.371566 
L 546.961329 61.31172 
L 547.368318 61.651242 
L 547.978801 62.328471 
L 548.589284 62.486948 
L 548.996273 62.630397 
L 549.606756 63.076928 
L 549.81025 63.091189 
L 550.217239 62.756568 
L 550.624228 62.361613 
L 550.827722 62.322249 
L 551.6417 62.592702 
L 552.252183 62.413818 
L 552.659172 62.571602 
L 553.676643 63.449555 
L 554.083632 63.422367 
L 555.508093 62.797428 
L 556.118576 62.775924 
L 556.932553 63.085619 
L 557.543036 62.824533 
L 558.153519 62.660561 
L 558.967497 62.591457 
L 559.374486 62.296135 
L 560.188463 61.521131 
L 560.595452 61.389953 
L 561.00244 61.565917 
L 561.612924 61.916078 
L 562.019912 61.80656 
L 562.83389 61.041813 
L 563.240879 61.19834 
L 564.054856 61.732317 
L 564.461845 61.754847 
L 565.275822 61.379824 
L 566.0898 61.48438 
L 567.107271 60.769893 
L 567.51426 60.9908 
L 568.124743 61.422389 
L 568.531732 61.343811 
L 569.142215 61.079843 
L 569.752698 61.120152 
L 570.973664 61.371523 
L 571.991136 61.340605 
L 573.822586 61.778968 
L 574.229574 61.650658 
L 574.840057 61.331491 
L 576.264518 61.122669 
L 576.875001 61.044346 
L 577.485484 61.095909 
L 577.892473 60.740143 
L 578.502956 59.877084 
L 578.70645 59.771975 
L 579.113439 59.959565 
L 579.723922 60.502235 
L 580.130911 60.571363 
L 580.944888 60.427833 
L 581.351877 60.697769 
L 581.96236 61.240359 
L 582.165855 61.266716 
L 582.572843 61.013971 
L 582.979832 60.746426 
L 583.590315 60.756708 
L 584.607787 60.85459 
L 585.828753 61.165865 
L 586.235742 61.019877 
L 587.253214 60.273972 
L 587.863697 60.000895 
L 588.270685 60.170522 
L 588.677674 60.40496 
L 589.084663 60.274145 
L 589.491652 60.096876 
L 589.89864 60.202397 
L 590.509124 60.426617 
L 590.916112 60.297997 
L 591.526595 59.984176 
L 591.933584 60.149515 
L 592.340573 60.46453 
L 592.544067 60.494212 
L 592.747562 60.353619 
L 593.15455 59.631711 
L 593.561539 58.871951 
L 593.765033 58.674929 
L 593.968528 58.634923 
L 594.375516 58.903678 
L 594.986 59.383762 
L 596.206966 59.627439 
L 596.817449 59.813337 
L 597.631426 60.256715 
L 598.445404 60.291755 
L 598.852392 60.055616 
L 599.462876 59.537849 
L 599.869864 59.478515 
L 600.480347 59.410054 
L 601.294325 59.217556 
L 601.904808 59.406737 
L 602.311797 59.506187 
L 603.125774 59.336471 
L 603.736257 59.667466 
L 604.34674 59.920796 
L 605.364212 60.133206 
L 605.974695 60.238139 
L 606.992167 60.23272 
L 608.009639 60.357978 
L 608.416628 60.168873 
L 609.637594 59.24747 
L 610.655066 59.306726 
L 611.672538 58.907928 
L 612.079526 59.183009 
L 612.486515 59.605171 
L 612.690009 59.68662 
L 613.096998 59.510416 
L 613.707481 59.145214 
L 614.11447 59.280475 
L 615.131942 60.218974 
L 615.53893 60.136315 
L 615.945919 60.004299 
L 616.352908 60.107181 
L 616.963391 60.417433 
L 617.37038 60.319439 
L 617.980863 59.824616 
L 618.387852 59.547434 
L 618.591346 59.558331 
L 618.998335 59.892283 
L 619.405323 60.313502 
L 619.812312 60.397151 
L 620.422795 60.13071 
L 620.829784 60.244082 
L 621.236773 60.416162 
L 621.643761 60.315447 
L 622.457739 59.639308 
L 623.475211 58.451644 
L 624.085694 58.499704 
L 624.492683 58.726352 
L 625.103166 59.450092 
L 625.510154 59.880985 
L 625.917143 59.96733 
L 626.324132 59.726318 
L 627.748592 58.506194 
L 628.56257 58.608318 
L 628.969559 58.244578 
L 629.580042 57.571756 
L 629.783536 57.520927 
L 629.98703 57.599997 
L 631.004502 58.544332 
L 631.411491 58.214734 
L 631.81848 57.86792 
L 632.021974 57.841854 
L 632.428963 58.101255 
L 633.039446 58.560598 
L 634.260412 58.882275 
L 634.870895 58.695296 
L 635.481378 58.092958 
L 636.091861 57.524733 
L 636.702344 57.25178 
L 638.737288 57.36058 
L 639.144277 57.359641 
L 639.551266 57.043185 
L 639.958254 56.692531 
L 640.161749 56.656099 
L 640.568737 56.951204 
L 641.179221 57.523812 
L 641.586209 57.502979 
L 642.196692 57.470257 
L 642.807175 57.471006 
L 643.417659 57.299765 
L 644.638625 57.465037 
L 645.045613 57.037784 
L 645.452602 56.581663 
L 645.656097 56.520226 
L 646.063085 56.731517 
L 647.487546 57.715901 
L 647.894535 57.561277 
L 648.912006 56.6028 
L 649.52249 56.092386 
L 649.929478 56.126931 
L 650.743456 56.364005 
L 651.150444 56.506111 
L 652.371411 57.291016 
L 652.981894 57.139281 
L 654.609849 56.475846 
L 655.220332 56.115847 
L 655.62732 56.128597 
L 656.441298 56.623142 
L 656.848287 56.443142 
L 657.865759 55.599246 
L 658.272747 55.656259 
L 659.086725 56.087714 
L 659.493713 55.989359 
L 660.511185 55.300115 
L 661.528657 55.078201 
L 661.935646 55.292752 
L 662.342635 55.565803 
L 663.970589 55.80171 
L 664.377578 55.72101 
L 664.784567 56.039891 
L 665.39505 56.816168 
L 665.598544 56.876187 
L 666.005533 56.616914 
L 666.616016 56.128734 
L 667.023005 56.247718 
L 668.040477 57.074431 
L 668.447466 56.994342 
L 669.668432 56.274442 
L 670.482409 56.169316 
L 671.499881 56.461556 
L 671.90687 56.297943 
L 672.924342 55.380849 
L 673.33133 55.053055 
L 673.534825 55.012468 
L 673.941813 55.263847 
L 674.348802 55.574061 
L 674.755791 55.542147 
L 675.773263 54.929552 
L 676.383746 54.608531 
L 676.994229 54.493309 
L 677.401218 54.133139 
L 677.808206 53.685751 
L 678.011701 53.638503 
L 678.215195 53.781389 
L 678.825678 54.627905 
L 679.029173 54.710443 
L 679.436161 54.423886 
L 679.84315 54.013914 
L 680.250139 53.990442 
L 681.064116 54.355597 
L 681.674599 54.197199 
L 682.081588 53.925374 
L 682.692071 53.447993 
L 682.895565 53.513888 
L 683.913037 54.383927 
L 684.930509 54.274812 
L 685.337498 54.334253 
L 685.744487 54.09282 
L 686.35497 53.64824 
L 688.186419 53.388888 
L 688.593408 53.518824 
L 689.407385 54.108275 
L 690.017868 54.446898 
L 690.424857 54.33341 
L 691.03534 53.89918 
L 691.442329 53.978048 
L 691.849318 54.160182 
L 693.070284 54.29224 
L 693.477272 54.413718 
L 694.087756 54.135472 
L 694.698239 53.592368 
L 695.308722 52.938165 
L 695.71571 52.833673 
L 696.733182 53.007593 
L 697.954149 53.525992 
L 698.361137 53.386948 
L 698.97162 52.998861 
L 699.378609 53.059443 
L 699.989092 53.323772 
L 700.80307 53.28315 
L 701.820541 53.026897 
L 703.245002 53.249896 
L 704.058979 53.11733 
L 704.465968 53.328366 
L 704.872957 53.588872 
L 705.279946 53.578211 
L 706.093923 53.410382 
L 706.500912 53.509023 
L 707.314889 53.9259 
L 707.721878 53.739125 
L 708.73935 52.669103 
L 709.349833 52.539058 
L 709.756822 52.640856 
L 710.774294 53.168671 
L 711.181282 53.108609 
L 711.588271 52.85357 
L 711.791765 52.870706 
L 712.198754 53.363476 
L 712.605743 53.714844 
L 712.809237 53.611451 
L 713.826709 52.482886 
L 715.047675 52.301862 
L 716.065147 52.685913 
L 716.67563 52.527944 
L 717.082619 52.690973 
L 717.693102 53.067611 
L 718.100091 53.031982 
L 718.710574 52.494855 
L 719.321057 52.055642 
L 720.135034 51.841211 
L 721.152506 51.747209 
L 721.559495 51.924972 
L 722.373472 52.782849 
L 722.780461 52.615528 
L 723.18745 52.342927 
L 723.594439 52.370638 
L 724.204922 52.526365 
L 724.61191 52.404967 
L 725.425888 52.0091 
L 727.257337 51.961881 
L 727.664326 51.547914 
L 728.071315 51.100132 
L 728.274809 51.024526 
L 728.681798 51.215054 
L 729.292281 51.998313 
L 729.902764 52.879545 
L 730.106258 53.006435 
L 730.309753 52.995546 
L 730.920236 52.470496 
L 731.327224 52.273054 
L 731.937708 52.417694 
L 732.548191 52.556071 
L 733.362168 52.416324 
L 734.583134 52.028361 
L 735.397112 51.72601 
L 735.804101 51.898454 
L 736.618078 52.403945 
L 737.025067 52.404637 
L 737.63555 52.130892 
L 738.449527 51.549362 
L 739.06001 51.148517 
L 739.466999 51.076319 
L 739.873988 51.323141 
L 740.484471 52.326585 
L 740.89146 52.836501 
L 741.094954 52.849043 
L 741.501943 52.432495 
L 741.908931 52.043734 
L 742.112426 52.079403 
L 742.926403 52.932249 
L 743.129898 52.887466 
L 743.536886 52.278092 
L 744.147369 51.202522 
L 744.350864 51.150318 
L 744.757853 51.470948 
L 745.164841 51.82361 
L 745.57183 51.874899 
L 746.589302 51.631394 
L 747.199785 51.735332 
L 748.013762 52.216699 
L 748.420751 52.077609 
L 748.82774 51.943609 
L 749.641717 52.032265 
L 750.048706 51.70782 
L 750.862684 50.826263 
L 751.269672 50.918981 
L 751.880155 51.267176 
L 753.50811 51.56013 
L 753.915099 51.611913 
L 754.322088 51.432913 
L 755.33956 50.585868 
L 755.746548 50.791886 
L 756.357031 51.346833 
L 756.76402 51.315655 
L 757.577998 50.656376 
L 757.781492 50.716484 
L 759.205953 52.094914 
L 759.816436 52.171389 
L 761.647885 52.104718 
L 762.665357 52.403409 
L 763.682829 52.309362 
L 764.496806 51.932841 
L 764.903795 52.12511 
L 765.310784 52.312537 
L 765.717772 52.139987 
L 766.53175 51.622809 
L 766.938738 51.617831 
L 767.549222 51.755698 
L 767.95621 51.581859 
L 768.566693 51.155297 
L 768.973682 51.130657 
L 769.78766 51.379219 
L 770.398143 51.222984 
L 771.822603 51.30253 
L 773.043569 51.147939 
L 774.061041 51.466433 
L 774.671524 51.343535 
L 776.095985 50.704935 
L 776.909962 50.26516 
L 777.316951 50.474307 
L 778.334423 51.522918 
L 778.741412 51.397717 
L 779.555389 50.801973 
L 779.962378 50.799607 
L 781.183344 51.077718 
L 781.590333 50.949051 
L 783.014793 50.074437 
L 783.625276 50.107451 
L 784.642748 50.537075 
L 785.253231 50.730554 
L 786.270703 50.578787 
L 787.288175 51.179073 
L 788.712636 50.741253 
L 789.526613 50.383108 
L 790.137096 50.42328 
L 791.968545 50.676289 
L 792.375534 50.332732 
L 793.189512 48.984912 
L 793.393006 48.93169 
L 793.799995 49.344823 
L 794.410478 50.179016 
L 794.817467 50.389105 
L 795.224455 50.32922 
L 796.038433 49.96378 
L 796.445421 50.188797 
L 796.85241 50.433422 
L 797.259399 50.374007 
L 797.666388 50.247177 
L 798.073376 50.374662 
L 798.683859 50.699971 
L 799.090848 50.652179 
L 799.904826 50.118156 
L 800.311814 50.288392 
L 801.329286 51.121005 
L 801.532781 51.151411 
L 801.736275 51.068993 
L 802.143264 50.563711 
L 802.753747 49.746597 
L 803.160736 49.621362 
L 803.567724 49.856246 
L 803.974713 50.219346 
L 804.178207 50.277035 
L 804.585196 50.03315 
L 804.992185 49.763679 
L 806.009657 49.665584 
L 806.823634 48.865339 
L 807.230623 48.928836 
L 807.637612 48.966054 
L 808.248095 48.818402 
L 808.858578 48.89501 
L 809.469061 48.631193 
L 809.87605 48.964579 
L 810.283038 49.223017 
L 811.097016 48.886735 
L 812.114488 49.417486 
L 812.521476 49.108818 
L 813.131959 48.558182 
L 813.538948 48.668993 
L 813.945937 48.855588 
L 815.166903 48.92889 
L 815.777386 48.674752 
L 815.980881 48.774549 
L 816.387869 49.475353 
L 816.591364 49.978721 
L 816.591364 49.978721 
" clip-path="url(#p6ac23cec53)" style="fill: none; stroke-dasharray: 1.85,0.8; stroke-dashoffset: 0; stroke: #1f77b4; stroke-width: 0.5"/>
   </g>
   <g id="line2d_32">
    <path d="M 84.418636 100.059862 
L 85.436108 100.385744 
L 86.45358 100.492513 
L 87.674546 100.403098 
L 89.505996 100.007321 
L 92.151422 99.424995 
L 93.575883 99.368081 
L 95.203838 99.541689 
L 99.884208 100.191789 
L 101.105174 100.096592 
L 102.529635 99.756995 
L 104.564579 99.003494 
L 108.023983 97.678085 
L 109.448443 97.363255 
L 111.076398 97.245174 
L 113.111342 97.338019 
L 117.995207 97.668674 
L 120.437139 97.501403 
L 123.896543 97.004588 
L 136.3097 94.883933 
L 140.583081 93.803177 
L 150.350811 91.163523 
L 152.996238 90.82263 
L 155.43817 90.729662 
L 157.880102 90.858705 
L 165.002405 91.499645 
L 166.63036 91.29798 
L 168.461809 90.826344 
L 170.903742 89.944929 
L 175.787606 88.124718 
L 179.043516 87.22228 
L 183.520392 86.242738 
L 187.997268 85.468001 
L 191.660167 85.06406 
L 197.561504 84.489721 
L 200.003436 84.003563 
L 205.701278 82.750823 
L 207.736222 82.596859 
L 211.195626 82.645508 
L 213.637558 82.563451 
L 215.265513 82.301703 
L 217.300457 81.721619 
L 221.980827 80.265628 
L 223.608782 80.036322 
L 225.440232 80.019702 
L 231.952051 80.196332 
L 234.190489 79.816491 
L 240.498815 78.561074 
L 243.347736 78.365756 
L 253.522454 77.901266 
L 259.016802 77.279662 
L 262.679701 76.975969 
L 265.325127 76.977985 
L 272.854419 77.152346 
L 276.110329 76.837006 
L 282.418654 76.172175 
L 286.89553 75.990744 
L 296.459765 75.710346 
L 300.733147 75.159531 
L 304.396046 74.776703 
L 307.448461 74.712332 
L 313.756786 74.644218 
L 318.030168 74.253425 
L 324.134999 73.71301 
L 330.036336 73.452072 
L 335.327189 73.418956 
L 341.228526 73.639044 
L 344.68793 73.636671 
L 347.536851 73.405453 
L 355.269637 72.643879 
L 359.13603 72.606581 
L 370.124726 72.645872 
L 373.991119 72.2918 
L 385.997286 71.013126 
L 390.270668 70.92398 
L 401.666352 70.806543 
L 410.41661 70.496018 
L 415.300475 70.786329 
L 418.149396 70.819248 
L 420.794823 70.59653 
L 427.306642 69.90794 
L 430.562552 69.917445 
L 435.649911 69.943402 
L 439.31281 69.686804 
L 451.725966 68.614899 
L 459.662246 68.319054 
L 468.412504 67.511142 
L 473.092875 67.645027 
L 476.14529 67.602604 
L 479.4012 67.300651 
L 486.523503 66.572073 
L 497.10521 65.729081 
L 514.80922 64.068126 
L 519.48959 63.863092 
L 529.664308 63.739298 
L 537.804083 63.538369 
L 541.059993 63.224908 
L 547.571812 62.467609 
L 549.606756 62.502159 
L 556.525564 62.863321 
L 558.357014 62.590993 
L 561.409429 61.864421 
L 564.054856 61.307631 
L 565.886305 61.141711 
L 568.124743 61.176086 
L 573.822586 61.376172 
L 576.671507 61.12179 
L 581.96236 60.608929 
L 587.253214 60.51454 
L 590.102135 60.311298 
L 598.038415 59.476194 
L 600.887336 59.607377 
L 605.974695 59.891176 
L 609.230605 59.766584 
L 613.707481 59.620059 
L 617.166885 59.810799 
L 620.62629 59.929488 
L 622.661233 59.781493 
L 625.103166 59.368328 
L 631.81848 58.105333 
L 635.684873 57.771257 
L 655.830815 56.312987 
L 660.307691 55.703947 
L 662.342635 55.669476 
L 664.377578 55.886802 
L 669.057949 56.497245 
L 670.685904 56.424727 
L 672.313858 56.095021 
L 674.552296 55.379094 
L 678.011701 54.262199 
L 679.639656 53.972372 
L 681.471105 53.871787 
L 684.320026 53.977125 
L 687.77943 54.081224 
L 690.831846 53.906026 
L 698.97162 53.307979 
L 704.465968 53.239428 
L 710.367305 53.14287 
L 713.826709 52.846968 
L 720.338529 52.236016 
L 724.408416 52.171263 
L 732.548191 52.075593 
L 737.432055 52.095019 
L 742.722909 52.125507 
L 745.368336 51.909947 
L 751.880155 51.237719 
L 754.322088 51.30928 
L 758.595469 51.727211 
L 761.851379 51.945797 
L 765.107289 51.926269 
L 768.566693 51.673862 
L 777.72394 50.820222 
L 786.474198 50.610628 
L 792.17204 50.14626 
L 794.613972 50.220772 
L 799.904826 50.477208 
L 801.939769 50.29565 
L 804.585196 49.795768 
L 808.655083 49.02164 
L 810.690027 48.873522 
L 813.538948 48.914425 
L 816.591364 49.057487 
L 816.591364 49.057487 
" clip-path="url(#p6ac23cec53)" style="fill: none; stroke: #ff7f0e; stroke-width: 0.5; stroke-linecap: square"/>
   </g>
   <g id="line2d_33">
    <path d="M 84.418636 510.662242 
L 84.622131 510.662242 
L 84.825625 509.928785 
L 85.232614 510.582794 
L 85.639603 510.839181 
L 86.250086 510.921818 
L 88.895512 510.738368 
L 92.9654 510.668403 
L 125.727993 510.662229 
L 138.141149 510.571061 
L 138.751632 510.461589 
L 140.583081 510.558887 
L 144.24598 510.650832 
L 150.147316 510.661865 
L 150.350811 510.45403 
L 150.961294 508.892005 
L 151.368283 508.695876 
L 151.775271 508.84562 
L 153.810215 510.019834 
L 155.031181 510.354491 
L 156.659136 510.548706 
L 159.711552 510.644855 
L 172.328202 510.662211 
L 388.642713 510.62937 
L 389.45669 510.404626 
L 390.881151 510.497038 
L 393.730072 510.631293 
L 401.666352 510.661988 
L 405.329251 510.629263 
L 406.143228 510.40305 
L 407.567689 510.496033 
L 410.41661 510.631097 
L 418.149396 510.66196 
L 622.661233 510.595905 
L 624.085694 510.594558 
L 629.783536 510.659904 
L 714.030203 510.662227 
L 816.591364 510.66223 
L 816.591364 510.66223 
" clip-path="url(#p6ac23cec53)" style="fill: none; stroke: #2ca02c; stroke-width: 0.5; stroke-linecap: square"/>
   </g>
   <g id="patch_3">
    <path d="M 47.81 534.04 
L 47.81 25.44 
" style="fill: none; stroke: #000000; stroke-width: 0.8; stroke-linejoin: miter; stroke-linecap: square"/>
   </g>
   <g id="patch_4">
    <path d="M 853.2 534.04 
L 853.2 25.44 
" style="fill: none; stroke: #000000; stroke-width: 0.8; stroke-linejoin: miter; stroke-linecap: square"/>
   </g>
   <g id="patch_5">
    <path d="M 47.81 534.04 
L 853.2 534.04 
" style="fill: none; stroke: #000000; stroke-width: 0.8; stroke-linejoin: miter; stroke-linecap: square"/>
   </g>
   <g id="patch_6">
    <path d="M 47.81 25.44 
L 853.2 25.44 
" style="fill: none; stroke: #000000; stroke-width: 0.8; stroke-linejoin: miter; stroke-linecap: square"/>
   </g>
   <g id="text_18">
    <!-- Pattern 4: Threshold + Gaussian + cvxEDA (0.1-25μS, σ=0.6s, data_5_E4) -->
    <g transform="translate(228.056875 19.44) scale(0.12 -0.12)">
     <defs>
      <path id="DejaVuSans-50" d="M 1259 4147 
L 1259 2394 
L 2053 2394 
Q 2494 2394 2734 2622 
Q 2975 2850 2975 3272 
Q 2975 3691 2734 3919 
Q 2494 4147 2053 4147 
L 1259 4147 
z
M 628 4666 
L 2053 4666 
Q 2838 4666 3239 4311 
Q 3641 3956 3641 3272 
Q 3641 2581 3239 2228 
Q 2838 1875 2053 1875 
L 1259 1875 
L 1259 0 
L 628 0 
L 628 4666 
z
" transform="scale(0.015625)"/>
      <path id="DejaVuSans-72" d="M 2631 2963 
Q 2534 3019 2420 3045 
Q 2306 3072 2169 3072 
Q 1681 3072 1420 2755 
Q 1159 2438 1159 1844 
L 1159 0 
L 581 0 
L 581 3500 
L 1159 3500 
L 1159 2956 
Q 1341 3275 1631 3429 
Q 1922 3584 2338 3584 
Q 2397 3584 2469 3576 
Q 2541 3569 2628 3553 
L 2631 2963 
z
" transform="scale(0.015625)"/>
      <path id="DejaVuSans-3a" d="M 750 794 
L 1409 794 
L 1409 0 
L 750 0 
L 750 794 
z
M 750 3309 
L 1409 3309 
L 1409 2516 
L 750 2516 
L 750 3309 
z
" transform="scale(0.015625)"/>
      <path id="DejaVuSans-68" d="M 3513 2113 
L 3513 0 
L 2938 0 
L 2938 2094 
Q 2938 2591 2744 2837 
Q 2550 3084 2163 3084 
Q 1697 3084 1428 2787 
Q 1159 2491 1159 1978 
L 1159 0 
L 581 0 
L 581 4863 
L 1159 4863 
L 1159 2956 
Q 1366 3272 1645 3428 
Q 1925 3584 2291 3584 
Q 2894 3584 3203 3211 
Q 3513 2838 3513 2113 
z
" transform="scale(0.015625)"/>
      <path id="DejaVuSans-6f" d="M 1959 3097 
Q 1497 3097 1228 2736 
Q 959 2375 959 1747 
Q 959 1119 1226 758 
Q 1494 397 1959 397 
Q 2419 397 2687 759 
Q 2956 1122 2956 1747 
Q 2956 2369 2687 2733 
Q 2419 3097 1959 3097 
z
M 1959 3584 
Q 2709 3584 3137 3096 
Q 3566 2609 3566 1747 
Q 3566 888 3137 398 
Q 2709 -91 1959 -91 
Q 1206 -91 779 398 
Q 353 888 353 1747 
Q 353 2609 779 3096 
Q 1206 3584 1959 3584 
z
" transform="scale(0.015625)"/>
      <path id="DejaVuSans-64" d="M 2906 2969 
L 2906 4863 
L 3481 4863 
L 3481 0 
L 2906 0 
L 2906 525 
Q 2725 213 2448 61 
Q 2172 -91 1784 -91 
Q 1150 -91 751 415 
Q 353 922 353 1747 
Q 353 2572 751 3078 
Q 1150 3584 1784 3584 
Q 2172 3584 2448 3432 
Q 2725 3281 2906 2969 
z
M 947 1747 
Q 947 1113 1208 752 
Q 1469 391 1925 391 
Q 2381 391 2643 752 
Q 2906 1113 2906 1747 
Q 2906 2381 2643 2742 
Q 2381 3103 1925 3103 
Q 1469 3103 1208 2742 
Q 947 2381 947 1747 
z
" transform="scale(0.015625)"/>
      <path id="DejaVuSans-2b" d="M 2944 4013 
L 2944 2272 
L 4684 2272 
L 4684 1741 
L 2944 1741 
L 2944 0 
L 2419 0 
L 2419 1741 
L 678 1741 
L 678 2272 
L 2419 2272 
L 2419 4013 
L 2944 4013 
z
" transform="scale(0.015625)"/>
      <path id="DejaVuSans-47" d="M 3809 666 
L 3809 1919 
L 2778 1919 
L 2778 2438 
L 4434 2438 
L 4434 434 
Q 4069 175 3628 42 
Q 3188 -91 2688 -91 
Q 1594 -91 976 548 
Q 359 1188 359 2328 
Q 359 3472 976 4111 
Q 1594 4750 2688 4750 
Q 3144 4750 3555 4637 
Q 3966 4525 4313 4306 
L 4313 3634 
Q 3963 3931 3569 4081 
Q 3175 4231 2741 4231 
Q 1884 4231 1454 3753 
Q 1025 3275 1025 2328 
Q 1025 1384 1454 906 
Q 1884 428 2741 428 
Q 3075 428 3337 486 
Q 3600 544 3809 666 
z
" transform="scale(0.015625)"/>
      <path id="DejaVuSans-63" d="M 3122 3366 
L 3122 2828 
Q 2878 2963 2633 3030 
Q 2388 3097 2138 3097 
Q 1578 3097 1268 2742 
Q 959 2388 959 1747 
Q 959 1106 1268 751 
Q 1578 397 2138 397 
Q 2388 397 2633 464 
Q 2878 531 3122 666 
L 3122 134 
Q 2881 22 2623 -34 
Q 2366 -91 2075 -91 
Q 1284 -91 818 406 
Q 353 903 353 1747 
Q 353 2603 823 3093 
Q 1294 3584 2113 3584 
Q 2378 3584 2631 3529 
Q 2884 3475 3122 3366 
z
" transform="scale(0.015625)"/>
      <path id="DejaVuSans-76" d="M 191 3500 
L 800 3500 
L 1894 563 
L 2988 3500 
L 3597 3500 
L 2284 0 
L 1503 0 
L 191 3500 
z
" transform="scale(0.015625)"/>
      <path id="DejaVuSans-78" d="M 3513 3500 
L 2247 1797 
L 3578 0 
L 2900 0 
L 1881 1375 
L 863 0 
L 184 0 
L 1544 1831 
L 300 3500 
L 978 3500 
L 1906 2253 
L 2834 3500 
L 3513 3500 
z
" transform="scale(0.015625)"/>
      <path id="DejaVuSans-2d" d="M 313 2009 
L 1997 2009 
L 1997 1497 
L 313 1497 
L 313 2009 
z
" transform="scale(0.015625)"/>
      <path id="DejaVuSans-2c" d="M 750 794 
L 1409 794 
L 1409 256 
L 897 -744 
L 494 -744 
L 750 256 
L 750 794 
z
" transform="scale(0.015625)"/>
      <path id="DejaVuSans-3c3" d="M 1959 3044 
Q 1484 3044 1228 2700 
Q 959 2341 959 1747 
Q 959 1119 1226 758 
Q 1494 397 1959 397 
Q 2419 397 2687 759 
Q 2956 1122 2956 1747 
Q 2956 2319 2688 2700 
Q 2441 3044 1959 3044 
z
M 1959 3500 
L 3869 3500 
L 3869 2925 
L 3225 2925 
Q 3566 2438 3566 1747 
Q 3566 888 3138 400 
Q 2709 -91 1959 -91 
Q 1206 -91 781 400 
Q 353 888 353 1747 
Q 353 2613 781 3097 
Q 1134 3500 1959 3500 
z
" transform="scale(0.015625)"/>
      <path id="DejaVuSans-3d" d="M 678 2906 
L 4684 2906 
L 4684 2381 
L 678 2381 
L 678 2906 
z
M 678 1631 
L 4684 1631 
L 4684 1100 
L 678 1100 
L 678 1631 
z
" transform="scale(0.015625)"/>
      <path id="DejaVuSans-5f" d="M 3263 -1063 
L 3263 -1509 
L -63 -1509 
L -63 -1063 
L 3263 -1063 
z
" transform="scale(0.015625)"/>
     </defs>
     <use xlink:href="#DejaVuSans-50"/>
     <use xlink:href="#DejaVuSans-61" transform="translate(55.802734 0)"/>
     <use xlink:href="#DejaVuSans-74" transform="translate(117.082031 0)"/>
     <use xlink:href="#DejaVuSans-74" transform="translate(156.291016 0)"/>
     <use xlink:href="#DejaVuSans-65" transform="translate(195.5 0)"/>
     <use xlink:href="#DejaVuSans-72" transform="translate(257.023438 0)"/>
     <use xlink:href="#DejaVuSans-6e" transform="translate(296.386719 0)"/>
     <use xlink:href="#DejaVuSans-20" transform="translate(359.765625 0)"/>
     <use xlink:href="#DejaVuSans-34" transform="translate(391.552734 0)"/>
     <use xlink:href="#DejaVuSans-3a" transform="translate(455.175781 0)"/>
     <use xlink:href="#DejaVuSans-20" transform="translate(488.867188 0)"/>
     <use xlink:href="#DejaVuSans-54" transform="translate(520.654297 0)"/>
     <use xlink:href="#DejaVuSans-68" transform="translate(581.738281 0)"/>
     <use xlink:href="#DejaVuSans-72" transform="translate(645.117188 0)"/>
     <use xlink:href="#DejaVuSans-65" transform="translate(683.980469 0)"/>
     <use xlink:href="#DejaVuSans-73" transform="translate(745.503906 0)"/>
     <use xlink:href="#DejaVuSans-68" transform="translate(797.603516 0)"/>
     <use xlink:href="#DejaVuSans-6f" transform="translate(860.982422 0)"/>
     <use xlink:href="#DejaVuSans-6c" transform="translate(922.164062 0)"/>
     <use xlink:href="#DejaVuSans-64" transform="translate(949.947266 0)"/>
     <use xlink:href="#DejaVuSans-20" transform="translate(1013.423828 0)"/>
     <use xlink:href="#DejaVuSans-2b" transform="translate(1045.210938 0)"/>
     <use xlink:href="#DejaVuSans-20" transform="translate(1129 0)"/>
     <use xlink:href="#DejaVuSans-47" transform="translate(1160.787109 0)"/>
     <use xlink:href="#DejaVuSans-61" transform="translate(1238.277344 0)"/>
     <use xlink:href="#DejaVuSans-75" transform="translate(1299.556641 0)"/>
     <use xlink:href="#DejaVuSans-73" transform="translate(1362.935547 0)"/>
     <use xlink:href="#DejaVuSans-73" transform="translate(1415.035156 0)"/>
     <use xlink:href="#DejaVuSans-69" transform="translate(1467.134766 0)"/>
     <use xlink:href="#DejaVuSans-61" transform="translate(1494.917969 0)"/>
     <use xlink:href="#DejaVuSans-6e" transform="translate(1556.197266 0)"/>
     <use xlink:href="#DejaVuSans-20" transform="translate(1619.576172 0)"/>
     <use xlink:href="#DejaVuSans-2b" transform="translate(1651.363281 0)"/>
     <use xlink:href="#DejaVuSans-20" transform="translate(1735.152344 0)"/>
     <use xlink:href="#DejaVuSans-63" transform="translate(1766.939453 0)"/>
     <use xlink:href="#DejaVuSans-76" transform="translate(1821.919922 0)"/>
     <use xlink:href="#DejaVuSans-78" transform="translate(1881.099609 0)"/>
     <use xlink:href="#DejaVuSans-45" transform="translate(1940.279297 0)"/>
     <use xlink:href="#DejaVuSans-44" transform="translate(2003.462891 0)"/>
     <use xlink:href="#DejaVuSans-41" transform="translate(2078.714844 0)"/>
     <use xlink:href="#DejaVuSans-20" transform="translate(2147.123047 0)"/>
     <use xlink:href="#DejaVuSans-28" transform="translate(2178.910156 0)"/>
     <use xlink:href="#DejaVuSans-30" transform="translate(2217.923828 0)"/>
     <use xlink:href="#DejaVuSans-2e" transform="translate(2281.546875 0)"/>
     <use xlink:href="#DejaVuSans-31" transform="translate(2313.333984 0)"/>
     <use xlink:href="#DejaVuSans-2d" transform="translate(2376.957031 0)"/>
     <use xlink:href="#DejaVuSans-32" transform="translate(2413.041016 0)"/>
     <use xlink:href="#DejaVuSans-35" transform="translate(2476.664062 0)"/>
     <use xlink:href="#DejaVuSans-3bc" transform="translate(2540.287109 0)"/>
     <use xlink:href="#DejaVuSans-53" transform="translate(2603.910156 0)"/>
     <use xlink:href="#DejaVuSans-2c" transform="translate(2667.386719 0)"/>
     <use xlink:href="#DejaVuSans-20" transform="translate(2699.173828 0)"/>
     <use xlink:href="#DejaVuSans-3c3" transform="translate(2730.960938 0)"/>
     <use xlink:href="#DejaVuSans-3d" transform="translate(2794.339844 0)"/>
     <use xlink:href="#DejaVuSans-30" transform="translate(2878.128906 0)"/>
     <use xlink:href="#DejaVuSans-2e" transform="translate(2941.751953 0)"/>
     <use xlink:href="#DejaVuSans-36" transform="translate(2973.539062 0)"/>
     <use xlink:href="#DejaVuSans-73" transform="translate(3037.162109 0)"/>
     <use xlink:href="#DejaVuSans-2c" transform="translate(3089.261719 0)"/>
     <use xlink:href="#DejaVuSans-20" transform="translate(3121.048828 0)"/>
     <use xlink:href="#DejaVuSans-64" transform="translate(3152.835938 0)"/>
     <use xlink:href="#DejaVuSans-61" transform="translate(3216.3125 0)"/>
     <use xlink:href="#DejaVuSans-74" transform="translate(3277.591797 0)"/>
     <use xlink:href="#DejaVuSans-61" transform="translate(3316.800781 0)"/>
     <use xlink:href="#DejaVuSans-5f" transform="translate(3378.080078 0)"/>
     <use xlink:href="#DejaVuSans-35" transform="translate(3428.080078 0)"/>
     <use xlink:href="#DejaVuSans-5f" transform="translate(3491.703125 0)"/>
     <use xlink:href="#DejaVuSans-45" transform="translate(3541.703125 0)"/>
     <use xlink:href="#DejaVuSans-34" transform="translate(3604.886719 0)"/>
     <use xlink:href="#DejaVuSans-29" transform="translate(3668.509766 0)"/>
    </g>
   </g>
   <g id="legend_1">
    <g id="patch_7">
     <path d="M 632.423438 303.257187 
L 846.2 303.257187 
Q 848.2 303.257187 848.2 301.257187 
L 848.2 258.222812 
Q 848.2 256.222812 846.2 256.222812 
L 632.423438 256.222812 
Q 630.423438 256.222812 630.423438 258.222812 
L 630.423438 301.257187 
Q 630.423438 303.257187 632.423438 303.257187 
z
" style="fill: #ffffff; opacity: 0.8; stroke: #cccccc; stroke-linejoin: miter"/>
    </g>
    <g id="line2d_34">
     <path d="M 634.423438 264.32125 
L 644.423438 264.32125 
L 654.423438 264.32125 
" style="fill: none; stroke-dasharray: 1.85,0.8; stroke-dashoffset: 0; stroke: #1f77b4; stroke-width: 0.5"/>
    </g>
    <g id="text_19">
     <!-- Filtered EDA (Threshold + Gaussian) -->
     <g transform="translate(662.423438 267.82125) scale(0.1 -0.1)">
      <defs>
       <path id="DejaVuSans-46" d="M 628 4666 
L 3309 4666 
L 3309 4134 
L 1259 4134 
L 1259 2759 
L 3109 2759 
L 3109 2228 
L 1259 2228 
L 1259 0 
L 628 0 
L 628 4666 
z
" transform="scale(0.015625)"/>
      </defs>
      <use xlink:href="#DejaVuSans-46"/>
      <use xlink:href="#DejaVuSans-69" transform="translate(50.269531 0)"/>
      <use xlink:href="#DejaVuSans-6c" transform="translate(78.052734 0)"/>
      <use xlink:href="#DejaVuSans-74" transform="translate(105.835938 0)"/>
      <use xlink:href="#DejaVuSans-65" transform="translate(145.044922 0)"/>
      <use xlink:href="#DejaVuSans-72" transform="translate(206.568359 0)"/>
      <use xlink:href="#DejaVuSans-65" transform="translate(245.431641 0)"/>
      <use xlink:href="#DejaVuSans-64" transform="translate(306.955078 0)"/>
      <use xlink:href="#DejaVuSans-20" transform="translate(370.431641 0)"/>
      <use xlink:href="#DejaVuSans-45" transform="translate(402.21875 0)"/>
      <use xlink:href="#DejaVuSans-44" transform="translate(465.402344 0)"/>
      <use xlink:href="#DejaVuSans-41" transform="translate(540.654297 0)"/>
      <use xlink:href="#DejaVuSans-20" transform="translate(609.0625 0)"/>
      <use xlink:href="#DejaVuSans-28" transform="translate(640.849609 0)"/>
      <use xlink:href="#DejaVuSans-54" transform="translate(679.863281 0)"/>
      <use xlink:href="#DejaVuSans-68" transform="translate(740.947266 0)"/>
      <use xlink:href="#DejaVuSans-72" transform="translate(804.326172 0)"/>
      <use xlink:href="#DejaVuSans-65" transform="translate(843.189453 0)"/>
      <use xlink:href="#DejaVuSans-73" transform="translate(904.712891 0)"/>
      <use xlink:href="#DejaVuSans-68" transform="translate(956.8125 0)"/>
      <use xlink:href="#DejaVuSans-6f" transform="translate(1020.191406 0)"/>
      <use xlink:href="#DejaVuSans-6c" transform="translate(1081.373047 0)"/>
      <use xlink:href="#DejaVuSans-64" transform="translate(1109.15625 0)"/>
      <use xlink:href="#DejaVuSans-20" transform="translate(1172.632812 0)"/>
      <use xlink:href="#DejaVuSans-2b" transform="translate(1204.419922 0)"/>
      <use xlink:href="#DejaVuSans-20" transform="translate(1288.208984 0)"/>
      <use xlink:href="#DejaVuSans-47" transform="translate(1319.996094 0)"/>
      <use xlink:href="#DejaVuSans-61" transform="translate(1397.486328 0)"/>
      <use xlink:href="#DejaVuSans-75" transform="translate(1458.765625 0)"/>
      <use xlink:href="#DejaVuSans-73" transform="translate(1522.144531 0)"/>
      <use xlink:href="#DejaVuSans-73" transform="translate(1574.244141 0)"/>
      <use xlink:href="#DejaVuSans-69" transform="translate(1626.34375 0)"/>
      <use xlink:href="#DejaVuSans-61" transform="translate(1654.126953 0)"/>
      <use xlink:href="#DejaVuSans-6e" transform="translate(1715.40625 0)"/>
      <use xlink:href="#DejaVuSans-29" transform="translate(1778.785156 0)"/>
     </g>
    </g>
    <g id="line2d_35">
     <path d="M 634.423438 278.999375 
L 644.423438 278.999375 
L 654.423438 278.999375 
" style="fill: none; stroke: #ff7f0e; stroke-width: 0.5; stroke-linecap: square"/>
    </g>
    <g id="text_20">
     <!-- SCL (Tonic) -->
     <g transform="translate(662.423438 282.499375) scale(0.1 -0.1)">
      <defs>
       <path id="DejaVuSans-43" d="M 4122 4306 
L 4122 3641 
Q 3803 3938 3442 4084 
Q 3081 4231 2675 4231 
Q 1875 4231 1450 3742 
Q 1025 3253 1025 2328 
Q 1025 1406 1450 917 
Q 1875 428 2675 428 
Q 3081 428 3442 575 
Q 3803 722 4122 1019 
L 4122 359 
Q 3791 134 3420 21 
Q 3050 -91 2638 -91 
Q 1578 -91 968 557 
Q 359 1206 359 2328 
Q 359 3453 968 4101 
Q 1578 4750 2638 4750 
Q 3056 4750 3426 4639 
Q 3797 4528 4122 4306 
z
" transform="scale(0.015625)"/>
       <path id="DejaVuSans-4c" d="M 628 4666 
L 1259 4666 
L 1259 531 
L 3531 531 
L 3531 0 
L 628 0 
L 628 4666 
z
" transform="scale(0.015625)"/>
      </defs>
      <use xlink:href="#DejaVuSans-53"/>
      <use xlink:href="#DejaVuSans-43" transform="translate(63.476562 0)"/>
      <use xlink:href="#DejaVuSans-4c" transform="translate(133.300781 0)"/>
      <use xlink:href="#DejaVuSans-20" transform="translate(189.013672 0)"/>
      <use xlink:href="#DejaVuSans-28" transform="translate(220.800781 0)"/>
      <use xlink:href="#DejaVuSans-54" transform="translate(259.814453 0)"/>
      <use xlink:href="#DejaVuSans-6f" transform="translate(303.898438 0)"/>
      <use xlink:href="#DejaVuSans-6e" transform="translate(365.080078 0)"/>
      <use xlink:href="#DejaVuSans-69" transform="translate(428.458984 0)"/>
      <use xlink:href="#DejaVuSans-63" transform="translate(456.242188 0)"/>
      <use xlink:href="#DejaVuSans-29" transform="translate(511.222656 0)"/>
     </g>
    </g>
    <g id="line2d_36">
     <path d="M 634.423438 293.6775 
L 644.423438 293.6775 
L 654.423438 293.6775 
" style="fill: none; stroke: #2ca02c; stroke-width: 0.5; stroke-linecap: square"/>
    </g>
    <g id="text_21">
     <!-- SCR (Phasic) -->
     <g transform="translate(662.423438 297.1775) scale(0.1 -0.1)">
      <defs>
       <path id="DejaVuSans-52" d="M 2841 2188 
Q 3044 2119 3236 1894 
Q 3428 1669 3622 1275 
L 4263 0 
L 3584 0 
L 2988 1197 
Q 2756 1666 2539 1819 
Q 2322 1972 1947 1972 
L 1259 1972 
L 1259 0 
L 628 0 
L 628 4666 
L 2053 4666 
Q 2853 4666 3247 4331 
Q 3641 3997 3641 3322 
Q 3641 2881 3436 2590 
Q 3231 2300 2841 2188 
z
M 1259 4147 
L 1259 2491 
L 2053 2491 
Q 2509 2491 2742 2702 
Q 2975 2913 2975 3322 
Q 2975 3731 2742 3939 
Q 2509 4147 2053 4147 
L 1259 4147 
z
" transform="scale(0.015625)"/>
      </defs>
      <use xlink:href="#DejaVuSans-53"/>
      <use xlink:href="#DejaVuSans-43" transform="translate(63.476562 0)"/>
      <use xlink:href="#DejaVuSans-52" transform="translate(133.300781 0)"/>
      <use xlink:href="#DejaVuSans-20" transform="translate(202.783203 0)"/>
      <use xlink:href="#DejaVuSans-28" transform="translate(234.570312 0)"/>
      <use xlink:href="#DejaVuSans-50" transform="translate(273.583984 0)"/>
      <use xlink:href="#DejaVuSans-68" transform="translate(333.886719 0)"/>
      <use xlink:href="#DejaVuSans-61" transform="translate(397.265625 0)"/>
      <use xlink:href="#DejaVuSans-73" transform="translate(458.544922 0)"/>
      <use xlink:href="#DejaVuSans-69" transform="translate(510.644531 0)"/>
      <use xlink:href="#DejaVuSans-63" transform="translate(538.427734 0)"/>
      <use xlink:href="#DejaVuSans-29" transform="translate(593.408203 0)"/>
     </g>
    </g>
   </g>
  </g>
 </g>
 <defs>
  <clipPath id="p6ac23cec53">
   <rect x="47.81" y="25.44" width="805.39" height="508.6"/>
  </clipPath>
 </defs>
</svg>
