<?xml version="1.0" encoding="utf-8" standalone="no"?>
<!DOCTYPE svg PUBLIC "-//W3C//DTD SVG 1.1//EN"
  "http://www.w3.org/Graphics/SVG/1.1/DTD/svg11.dtd">
<svg xmlns:xlink="http://www.w3.org/1999/xlink" width="460.8pt" height="345.6pt" viewBox="0 0 460.8 345.6" xmlns="http://www.w3.org/2000/svg" version="1.1">
 <metadata>
  <rdf:RDF xmlns:dc="http://purl.org/dc/elements/1.1/" xmlns:cc="http://creativecommons.org/ns#" xmlns:rdf="http://www.w3.org/1999/02/22-rdf-syntax-ns#">
   <cc:Work>
    <dc:type rdf:resource="http://purl.org/dc/dcmitype/StillImage"/>
    <dc:date>2025-09-22T14:18:49.570806</dc:date>
    <dc:format>image/svg+xml</dc:format>
    <dc:creator>
     <cc:Agent>
      <dc:title>Matplotlib v3.10.0, https://matplotlib.org/</dc:title>
     </cc:Agent>
    </dc:creator>
   </cc:Work>
  </rdf:RDF>
 </metadata>
 <defs>
  <style type="text/css">*{stroke-linejoin: round; stroke-linecap: butt}</style>
 </defs>
 <g id="figure_1">
  <g id="patch_1">
   <path d="M 0 345.6 
L 460.8 345.6 
L 460.8 0 
L 0 0 
z
" style="fill: #ffffff"/>
  </g>
  <g id="axes_1">
   <g id="patch_2">
    <path d="M 38.27 303.64 
L 450 303.64 
L 450 25.44 
L 38.27 25.44 
z
" style="fill: #ffffff"/>
   </g>
   <g id="matplotlib.axis_1">
    <g id="xtick_1">
     <g id="line2d_1">
      <path d="M 56.985 303.64 
L 56.985 25.44 
" clip-path="url(#p338834bcc8)" style="fill: none; stroke: #b0b0b0; stroke-opacity: 0.3; stroke-width: 0.8; stroke-linecap: square"/>
     </g>
     <g id="line2d_2">
      <defs>
       <path id="m7bd2b9888a" d="M 0 0 
L 0 3.5 
" style="stroke: #000000; stroke-width: 0.8"/>
      </defs>
      <g>
       <use xlink:href="#m7bd2b9888a" x="56.985" y="303.64" style="stroke: #000000; stroke-width: 0.8"/>
      </g>
     </g>
     <g id="text_1">
      <!-- 0 -->
      <g transform="translate(53.80375 318.238437) scale(0.1 -0.1)">
       <defs>
        <path id="DejaVuSans-30" d="M 2034 4250 
Q 1547 4250 1301 3770 
Q 1056 3291 1056 2328 
Q 1056 1369 1301 889 
Q 1547 409 2034 409 
Q 2525 409 2770 889 
Q 3016 1369 3016 2328 
Q 3016 3291 2770 3770 
Q 2525 4250 2034 4250 
z
M 2034 4750 
Q 2819 4750 3233 4129 
Q 3647 3509 3647 2328 
Q 3647 1150 3233 529 
Q 2819 -91 2034 -91 
Q 1250 -91 836 529 
Q 422 1150 422 2328 
Q 422 3509 836 4129 
Q 1250 4750 2034 4750 
z
" transform="scale(0.015625)"/>
       </defs>
       <use xlink:href="#DejaVuSans-30"/>
      </g>
     </g>
    </g>
    <g id="xtick_2">
     <g id="line2d_3">
      <path d="M 106.891667 303.64 
L 106.891667 25.44 
" clip-path="url(#p338834bcc8)" style="fill: none; stroke: #b0b0b0; stroke-opacity: 0.3; stroke-width: 0.8; stroke-linecap: square"/>
     </g>
     <g id="line2d_4">
      <g>
       <use xlink:href="#m7bd2b9888a" x="106.891667" y="303.64" style="stroke: #000000; stroke-width: 0.8"/>
      </g>
     </g>
     <g id="text_2">
      <!-- 2 -->
      <g transform="translate(103.710417 318.238437) scale(0.1 -0.1)">
       <defs>
        <path id="DejaVuSans-32" d="M 1228 531 
L 3431 531 
L 3431 0 
L 469 0 
L 469 531 
Q 828 903 1448 1529 
Q 2069 2156 2228 2338 
Q 2531 2678 2651 2914 
Q 2772 3150 2772 3378 
Q 2772 3750 2511 3984 
Q 2250 4219 1831 4219 
Q 1534 4219 1204 4116 
Q 875 4013 500 3803 
L 500 4441 
Q 881 4594 1212 4672 
Q 1544 4750 1819 4750 
Q 2544 4750 2975 4387 
Q 3406 4025 3406 3419 
Q 3406 3131 3298 2873 
Q 3191 2616 2906 2266 
Q 2828 2175 2409 1742 
Q 1991 1309 1228 531 
z
" transform="scale(0.015625)"/>
       </defs>
       <use xlink:href="#DejaVuSans-32"/>
      </g>
     </g>
    </g>
    <g id="xtick_3">
     <g id="line2d_5">
      <path d="M 156.798333 303.64 
L 156.798333 25.44 
" clip-path="url(#p338834bcc8)" style="fill: none; stroke: #b0b0b0; stroke-opacity: 0.3; stroke-width: 0.8; stroke-linecap: square"/>
     </g>
     <g id="line2d_6">
      <g>
       <use xlink:href="#m7bd2b9888a" x="156.798333" y="303.64" style="stroke: #000000; stroke-width: 0.8"/>
      </g>
     </g>
     <g id="text_3">
      <!-- 4 -->
      <g transform="translate(153.617083 318.238437) scale(0.1 -0.1)">
       <defs>
        <path id="DejaVuSans-34" d="M 2419 4116 
L 825 1625 
L 2419 1625 
L 2419 4116 
z
M 2253 4666 
L 3047 4666 
L 3047 1625 
L 3713 1625 
L 3713 1100 
L 3047 1100 
L 3047 0 
L 2419 0 
L 2419 1100 
L 313 1100 
L 313 1709 
L 2253 4666 
z
" transform="scale(0.015625)"/>
       </defs>
       <use xlink:href="#DejaVuSans-34"/>
      </g>
     </g>
    </g>
    <g id="xtick_4">
     <g id="line2d_7">
      <path d="M 206.705 303.64 
L 206.705 25.44 
" clip-path="url(#p338834bcc8)" style="fill: none; stroke: #b0b0b0; stroke-opacity: 0.3; stroke-width: 0.8; stroke-linecap: square"/>
     </g>
     <g id="line2d_8">
      <g>
       <use xlink:href="#m7bd2b9888a" x="206.705" y="303.64" style="stroke: #000000; stroke-width: 0.8"/>
      </g>
     </g>
     <g id="text_4">
      <!-- 6 -->
      <g transform="translate(203.52375 318.238437) scale(0.1 -0.1)">
       <defs>
        <path id="DejaVuSans-36" d="M 2113 2584 
Q 1688 2584 1439 2293 
Q 1191 2003 1191 1497 
Q 1191 994 1439 701 
Q 1688 409 2113 409 
Q 2538 409 2786 701 
Q 3034 994 3034 1497 
Q 3034 2003 2786 2293 
Q 2538 2584 2113 2584 
z
M 3366 4563 
L 3366 3988 
Q 3128 4100 2886 4159 
Q 2644 4219 2406 4219 
Q 1781 4219 1451 3797 
Q 1122 3375 1075 2522 
Q 1259 2794 1537 2939 
Q 1816 3084 2150 3084 
Q 2853 3084 3261 2657 
Q 3669 2231 3669 1497 
Q 3669 778 3244 343 
Q 2819 -91 2113 -91 
Q 1303 -91 875 529 
Q 447 1150 447 2328 
Q 447 3434 972 4092 
Q 1497 4750 2381 4750 
Q 2619 4750 2861 4703 
Q 3103 4656 3366 4563 
z
" transform="scale(0.015625)"/>
       </defs>
       <use xlink:href="#DejaVuSans-36"/>
      </g>
     </g>
    </g>
    <g id="xtick_5">
     <g id="line2d_9">
      <path d="M 256.611667 303.64 
L 256.611667 25.44 
" clip-path="url(#p338834bcc8)" style="fill: none; stroke: #b0b0b0; stroke-opacity: 0.3; stroke-width: 0.8; stroke-linecap: square"/>
     </g>
     <g id="line2d_10">
      <g>
       <use xlink:href="#m7bd2b9888a" x="256.611667" y="303.64" style="stroke: #000000; stroke-width: 0.8"/>
      </g>
     </g>
     <g id="text_5">
      <!-- 8 -->
      <g transform="translate(253.430417 318.238437) scale(0.1 -0.1)">
       <defs>
        <path id="DejaVuSans-38" d="M 2034 2216 
Q 1584 2216 1326 1975 
Q 1069 1734 1069 1313 
Q 1069 891 1326 650 
Q 1584 409 2034 409 
Q 2484 409 2743 651 
Q 3003 894 3003 1313 
Q 3003 1734 2745 1975 
Q 2488 2216 2034 2216 
z
M 1403 2484 
Q 997 2584 770 2862 
Q 544 3141 544 3541 
Q 544 4100 942 4425 
Q 1341 4750 2034 4750 
Q 2731 4750 3128 4425 
Q 3525 4100 3525 3541 
Q 3525 3141 3298 2862 
Q 3072 2584 2669 2484 
Q 3125 2378 3379 2068 
Q 3634 1759 3634 1313 
Q 3634 634 3220 271 
Q 2806 -91 2034 -91 
Q 1263 -91 848 271 
Q 434 634 434 1313 
Q 434 1759 690 2068 
Q 947 2378 1403 2484 
z
M 1172 3481 
Q 1172 3119 1398 2916 
Q 1625 2713 2034 2713 
Q 2441 2713 2670 2916 
Q 2900 3119 2900 3481 
Q 2900 3844 2670 4047 
Q 2441 4250 2034 4250 
Q 1625 4250 1398 4047 
Q 1172 3844 1172 3481 
z
" transform="scale(0.015625)"/>
       </defs>
       <use xlink:href="#DejaVuSans-38"/>
      </g>
     </g>
    </g>
    <g id="xtick_6">
     <g id="line2d_11">
      <path d="M 306.518333 303.64 
L 306.518333 25.44 
" clip-path="url(#p338834bcc8)" style="fill: none; stroke: #b0b0b0; stroke-opacity: 0.3; stroke-width: 0.8; stroke-linecap: square"/>
     </g>
     <g id="line2d_12">
      <g>
       <use xlink:href="#m7bd2b9888a" x="306.518333" y="303.64" style="stroke: #000000; stroke-width: 0.8"/>
      </g>
     </g>
     <g id="text_6">
      <!-- 10 -->
      <g transform="translate(300.155833 318.238437) scale(0.1 -0.1)">
       <defs>
        <path id="DejaVuSans-31" d="M 794 531 
L 1825 531 
L 1825 4091 
L 703 3866 
L 703 4441 
L 1819 4666 
L 2450 4666 
L 2450 531 
L 3481 531 
L 3481 0 
L 794 0 
L 794 531 
z
" transform="scale(0.015625)"/>
       </defs>
       <use xlink:href="#DejaVuSans-31"/>
       <use xlink:href="#DejaVuSans-30" transform="translate(63.623047 0)"/>
      </g>
     </g>
    </g>
    <g id="xtick_7">
     <g id="line2d_13">
      <path d="M 356.425 303.64 
L 356.425 25.44 
" clip-path="url(#p338834bcc8)" style="fill: none; stroke: #b0b0b0; stroke-opacity: 0.3; stroke-width: 0.8; stroke-linecap: square"/>
     </g>
     <g id="line2d_14">
      <g>
       <use xlink:href="#m7bd2b9888a" x="356.425" y="303.64" style="stroke: #000000; stroke-width: 0.8"/>
      </g>
     </g>
     <g id="text_7">
      <!-- 12 -->
      <g transform="translate(350.0625 318.238437) scale(0.1 -0.1)">
       <use xlink:href="#DejaVuSans-31"/>
       <use xlink:href="#DejaVuSans-32" transform="translate(63.623047 0)"/>
      </g>
     </g>
    </g>
    <g id="xtick_8">
     <g id="line2d_15">
      <path d="M 406.331667 303.64 
L 406.331667 25.44 
" clip-path="url(#p338834bcc8)" style="fill: none; stroke: #b0b0b0; stroke-opacity: 0.3; stroke-width: 0.8; stroke-linecap: square"/>
     </g>
     <g id="line2d_16">
      <g>
       <use xlink:href="#m7bd2b9888a" x="406.331667" y="303.64" style="stroke: #000000; stroke-width: 0.8"/>
      </g>
     </g>
     <g id="text_8">
      <!-- 14 -->
      <g transform="translate(399.969167 318.238437) scale(0.1 -0.1)">
       <use xlink:href="#DejaVuSans-31"/>
       <use xlink:href="#DejaVuSans-34" transform="translate(63.623047 0)"/>
      </g>
     </g>
    </g>
    <g id="text_9">
     <!-- Time (minutes) -->
     <g transform="translate(206.1725 331.916562) scale(0.1 -0.1)">
      <defs>
       <path id="DejaVuSans-54" d="M -19 4666 
L 3928 4666 
L 3928 4134 
L 2272 4134 
L 2272 0 
L 1638 0 
L 1638 4134 
L -19 4134 
L -19 4666 
z
" transform="scale(0.015625)"/>
       <path id="DejaVuSans-69" d="M 603 3500 
L 1178 3500 
L 1178 0 
L 603 0 
L 603 3500 
z
M 603 4863 
L 1178 4863 
L 1178 4134 
L 603 4134 
L 603 4863 
z
" transform="scale(0.015625)"/>
       <path id="DejaVuSans-6d" d="M 3328 2828 
Q 3544 3216 3844 3400 
Q 4144 3584 4550 3584 
Q 5097 3584 5394 3201 
Q 5691 2819 5691 2113 
L 5691 0 
L 5113 0 
L 5113 2094 
Q 5113 2597 4934 2840 
Q 4756 3084 4391 3084 
Q 3944 3084 3684 2787 
Q 3425 2491 3425 1978 
L 3425 0 
L 2847 0 
L 2847 2094 
Q 2847 2600 2669 2842 
Q 2491 3084 2119 3084 
Q 1678 3084 1418 2786 
Q 1159 2488 1159 1978 
L 1159 0 
L 581 0 
L 581 3500 
L 1159 3500 
L 1159 2956 
Q 1356 3278 1631 3431 
Q 1906 3584 2284 3584 
Q 2666 3584 2933 3390 
Q 3200 3197 3328 2828 
z
" transform="scale(0.015625)"/>
       <path id="DejaVuSans-65" d="M 3597 1894 
L 3597 1613 
L 953 1613 
Q 991 1019 1311 708 
Q 1631 397 2203 397 
Q 2534 397 2845 478 
Q 3156 559 3463 722 
L 3463 178 
Q 3153 47 2828 -22 
Q 2503 -91 2169 -91 
Q 1331 -91 842 396 
Q 353 884 353 1716 
Q 353 2575 817 3079 
Q 1281 3584 2069 3584 
Q 2775 3584 3186 3129 
Q 3597 2675 3597 1894 
z
M 3022 2063 
Q 3016 2534 2758 2815 
Q 2500 3097 2075 3097 
Q 1594 3097 1305 2825 
Q 1016 2553 972 2059 
L 3022 2063 
z
" transform="scale(0.015625)"/>
       <path id="DejaVuSans-20" transform="scale(0.015625)"/>
       <path id="DejaVuSans-28" d="M 1984 4856 
Q 1566 4138 1362 3434 
Q 1159 2731 1159 2009 
Q 1159 1288 1364 580 
Q 1569 -128 1984 -844 
L 1484 -844 
Q 1016 -109 783 600 
Q 550 1309 550 2009 
Q 550 2706 781 3412 
Q 1013 4119 1484 4856 
L 1984 4856 
z
" transform="scale(0.015625)"/>
       <path id="DejaVuSans-6e" d="M 3513 2113 
L 3513 0 
L 2938 0 
L 2938 2094 
Q 2938 2591 2744 2837 
Q 2550 3084 2163 3084 
Q 1697 3084 1428 2787 
Q 1159 2491 1159 1978 
L 1159 0 
L 581 0 
L 581 3500 
L 1159 3500 
L 1159 2956 
Q 1366 3272 1645 3428 
Q 1925 3584 2291 3584 
Q 2894 3584 3203 3211 
Q 3513 2838 3513 2113 
z
" transform="scale(0.015625)"/>
       <path id="DejaVuSans-75" d="M 544 1381 
L 544 3500 
L 1119 3500 
L 1119 1403 
Q 1119 906 1312 657 
Q 1506 409 1894 409 
Q 2359 409 2629 706 
Q 2900 1003 2900 1516 
L 2900 3500 
L 3475 3500 
L 3475 0 
L 2900 0 
L 2900 538 
Q 2691 219 2414 64 
Q 2138 -91 1772 -91 
Q 1169 -91 856 284 
Q 544 659 544 1381 
z
M 1991 3584 
L 1991 3584 
z
" transform="scale(0.015625)"/>
       <path id="DejaVuSans-74" d="M 1172 4494 
L 1172 3500 
L 2356 3500 
L 2356 3053 
L 1172 3053 
L 1172 1153 
Q 1172 725 1289 603 
Q 1406 481 1766 481 
L 2356 481 
L 2356 0 
L 1766 0 
Q 1100 0 847 248 
Q 594 497 594 1153 
L 594 3053 
L 172 3053 
L 172 3500 
L 594 3500 
L 594 4494 
L 1172 4494 
z
" transform="scale(0.015625)"/>
       <path id="DejaVuSans-73" d="M 2834 3397 
L 2834 2853 
Q 2591 2978 2328 3040 
Q 2066 3103 1784 3103 
Q 1356 3103 1142 2972 
Q 928 2841 928 2578 
Q 928 2378 1081 2264 
Q 1234 2150 1697 2047 
L 1894 2003 
Q 2506 1872 2764 1633 
Q 3022 1394 3022 966 
Q 3022 478 2636 193 
Q 2250 -91 1575 -91 
Q 1294 -91 989 -36 
Q 684 19 347 128 
L 347 722 
Q 666 556 975 473 
Q 1284 391 1588 391 
Q 1994 391 2212 530 
Q 2431 669 2431 922 
Q 2431 1156 2273 1281 
Q 2116 1406 1581 1522 
L 1381 1569 
Q 847 1681 609 1914 
Q 372 2147 372 2553 
Q 372 3047 722 3315 
Q 1072 3584 1716 3584 
Q 2034 3584 2315 3537 
Q 2597 3491 2834 3397 
z
" transform="scale(0.015625)"/>
       <path id="DejaVuSans-29" d="M 513 4856 
L 1013 4856 
Q 1481 4119 1714 3412 
Q 1947 2706 1947 2009 
Q 1947 1309 1714 600 
Q 1481 -109 1013 -844 
L 513 -844 
Q 928 -128 1133 580 
Q 1338 1288 1338 2009 
Q 1338 2731 1133 3434 
Q 928 4138 513 4856 
z
" transform="scale(0.015625)"/>
      </defs>
      <use xlink:href="#DejaVuSans-54"/>
      <use xlink:href="#DejaVuSans-69" transform="translate(57.958984 0)"/>
      <use xlink:href="#DejaVuSans-6d" transform="translate(85.742188 0)"/>
      <use xlink:href="#DejaVuSans-65" transform="translate(183.154297 0)"/>
      <use xlink:href="#DejaVuSans-20" transform="translate(244.677734 0)"/>
      <use xlink:href="#DejaVuSans-28" transform="translate(276.464844 0)"/>
      <use xlink:href="#DejaVuSans-6d" transform="translate(315.478516 0)"/>
      <use xlink:href="#DejaVuSans-69" transform="translate(412.890625 0)"/>
      <use xlink:href="#DejaVuSans-6e" transform="translate(440.673828 0)"/>
      <use xlink:href="#DejaVuSans-75" transform="translate(504.052734 0)"/>
      <use xlink:href="#DejaVuSans-74" transform="translate(567.431641 0)"/>
      <use xlink:href="#DejaVuSans-65" transform="translate(606.640625 0)"/>
      <use xlink:href="#DejaVuSans-73" transform="translate(668.164062 0)"/>
      <use xlink:href="#DejaVuSans-29" transform="translate(720.263672 0)"/>
     </g>
    </g>
   </g>
   <g id="matplotlib.axis_2">
    <g id="ytick_1">
     <g id="line2d_17">
      <path d="M 38.27 290.446957 
L 450 290.446957 
" clip-path="url(#p338834bcc8)" style="fill: none; stroke: #b0b0b0; stroke-opacity: 0.3; stroke-width: 0.8; stroke-linecap: square"/>
     </g>
     <g id="line2d_18">
      <defs>
       <path id="md933f4836f" d="M 0 0 
L -3.5 0 
" style="stroke: #000000; stroke-width: 0.8"/>
      </defs>
      <g>
       <use xlink:href="#md933f4836f" x="38.27" y="290.446957" style="stroke: #000000; stroke-width: 0.8"/>
      </g>
     </g>
     <g id="text_10">
      <!-- 0 -->
      <g transform="translate(24.9075 294.246175) scale(0.1 -0.1)">
       <use xlink:href="#DejaVuSans-30"/>
      </g>
     </g>
    </g>
    <g id="ytick_2">
     <g id="line2d_19">
      <path d="M 38.27 241.667632 
L 450 241.667632 
" clip-path="url(#p338834bcc8)" style="fill: none; stroke: #b0b0b0; stroke-opacity: 0.3; stroke-width: 0.8; stroke-linecap: square"/>
     </g>
     <g id="line2d_20">
      <g>
       <use xlink:href="#md933f4836f" x="38.27" y="241.667632" style="stroke: #000000; stroke-width: 0.8"/>
      </g>
     </g>
     <g id="text_11">
      <!-- 1 -->
      <g transform="translate(24.9075 245.466851) scale(0.1 -0.1)">
       <use xlink:href="#DejaVuSans-31"/>
      </g>
     </g>
    </g>
    <g id="ytick_3">
     <g id="line2d_21">
      <path d="M 38.27 192.888308 
L 450 192.888308 
" clip-path="url(#p338834bcc8)" style="fill: none; stroke: #b0b0b0; stroke-opacity: 0.3; stroke-width: 0.8; stroke-linecap: square"/>
     </g>
     <g id="line2d_22">
      <g>
       <use xlink:href="#md933f4836f" x="38.27" y="192.888308" style="stroke: #000000; stroke-width: 0.8"/>
      </g>
     </g>
     <g id="text_12">
      <!-- 2 -->
      <g transform="translate(24.9075 196.687527) scale(0.1 -0.1)">
       <use xlink:href="#DejaVuSans-32"/>
      </g>
     </g>
    </g>
    <g id="ytick_4">
     <g id="line2d_23">
      <path d="M 38.27 144.108983 
L 450 144.108983 
" clip-path="url(#p338834bcc8)" style="fill: none; stroke: #b0b0b0; stroke-opacity: 0.3; stroke-width: 0.8; stroke-linecap: square"/>
     </g>
     <g id="line2d_24">
      <g>
       <use xlink:href="#md933f4836f" x="38.27" y="144.108983" style="stroke: #000000; stroke-width: 0.8"/>
      </g>
     </g>
     <g id="text_13">
      <!-- 3 -->
      <g transform="translate(24.9075 147.908202) scale(0.1 -0.1)">
       <defs>
        <path id="DejaVuSans-33" d="M 2597 2516 
Q 3050 2419 3304 2112 
Q 3559 1806 3559 1356 
Q 3559 666 3084 287 
Q 2609 -91 1734 -91 
Q 1441 -91 1130 -33 
Q 819 25 488 141 
L 488 750 
Q 750 597 1062 519 
Q 1375 441 1716 441 
Q 2309 441 2620 675 
Q 2931 909 2931 1356 
Q 2931 1769 2642 2001 
Q 2353 2234 1838 2234 
L 1294 2234 
L 1294 2753 
L 1863 2753 
Q 2328 2753 2575 2939 
Q 2822 3125 2822 3475 
Q 2822 3834 2567 4026 
Q 2313 4219 1838 4219 
Q 1578 4219 1281 4162 
Q 984 4106 628 3988 
L 628 4550 
Q 988 4650 1302 4700 
Q 1616 4750 1894 4750 
Q 2613 4750 3031 4423 
Q 3450 4097 3450 3541 
Q 3450 3153 3228 2886 
Q 3006 2619 2597 2516 
z
" transform="scale(0.015625)"/>
       </defs>
       <use xlink:href="#DejaVuSans-33"/>
      </g>
     </g>
    </g>
    <g id="ytick_5">
     <g id="line2d_25">
      <path d="M 38.27 95.329659 
L 450 95.329659 
" clip-path="url(#p338834bcc8)" style="fill: none; stroke: #b0b0b0; stroke-opacity: 0.3; stroke-width: 0.8; stroke-linecap: square"/>
     </g>
     <g id="line2d_26">
      <g>
       <use xlink:href="#md933f4836f" x="38.27" y="95.329659" style="stroke: #000000; stroke-width: 0.8"/>
      </g>
     </g>
     <g id="text_14">
      <!-- 4 -->
      <g transform="translate(24.9075 99.128878) scale(0.1 -0.1)">
       <use xlink:href="#DejaVuSans-34"/>
      </g>
     </g>
    </g>
    <g id="ytick_6">
     <g id="line2d_27">
      <path d="M 38.27 46.550335 
L 450 46.550335 
" clip-path="url(#p338834bcc8)" style="fill: none; stroke: #b0b0b0; stroke-opacity: 0.3; stroke-width: 0.8; stroke-linecap: square"/>
     </g>
     <g id="line2d_28">
      <g>
       <use xlink:href="#md933f4836f" x="38.27" y="46.550335" style="stroke: #000000; stroke-width: 0.8"/>
      </g>
     </g>
     <g id="text_15">
      <!-- 5 -->
      <g transform="translate(24.9075 50.349553) scale(0.1 -0.1)">
       <defs>
        <path id="DejaVuSans-35" d="M 691 4666 
L 3169 4666 
L 3169 4134 
L 1269 4134 
L 1269 2991 
Q 1406 3038 1543 3061 
Q 1681 3084 1819 3084 
Q 2600 3084 3056 2656 
Q 3513 2228 3513 1497 
Q 3513 744 3044 326 
Q 2575 -91 1722 -91 
Q 1428 -91 1123 -41 
Q 819 9 494 109 
L 494 744 
Q 775 591 1075 516 
Q 1375 441 1709 441 
Q 2250 441 2565 725 
Q 2881 1009 2881 1497 
Q 2881 1984 2565 2268 
Q 2250 2553 1709 2553 
Q 1456 2553 1204 2497 
Q 953 2441 691 2322 
L 691 4666 
z
" transform="scale(0.015625)"/>
       </defs>
       <use xlink:href="#DejaVuSans-35"/>
      </g>
     </g>
    </g>
    <g id="text_16">
     <!-- Gaussian filtered EDA (μS) -->
     <g transform="translate(18.827813 230.613437) rotate(-90) scale(0.1 -0.1)">
      <defs>
       <path id="DejaVuSans-47" d="M 3809 666 
L 3809 1919 
L 2778 1919 
L 2778 2438 
L 4434 2438 
L 4434 434 
Q 4069 175 3628 42 
Q 3188 -91 2688 -91 
Q 1594 -91 976 548 
Q 359 1188 359 2328 
Q 359 3472 976 4111 
Q 1594 4750 2688 4750 
Q 3144 4750 3555 4637 
Q 3966 4525 4313 4306 
L 4313 3634 
Q 3963 3931 3569 4081 
Q 3175 4231 2741 4231 
Q 1884 4231 1454 3753 
Q 1025 3275 1025 2328 
Q 1025 1384 1454 906 
Q 1884 428 2741 428 
Q 3075 428 3337 486 
Q 3600 544 3809 666 
z
" transform="scale(0.015625)"/>
       <path id="DejaVuSans-61" d="M 2194 1759 
Q 1497 1759 1228 1600 
Q 959 1441 959 1056 
Q 959 750 1161 570 
Q 1363 391 1709 391 
Q 2188 391 2477 730 
Q 2766 1069 2766 1631 
L 2766 1759 
L 2194 1759 
z
M 3341 1997 
L 3341 0 
L 2766 0 
L 2766 531 
Q 2569 213 2275 61 
Q 1981 -91 1556 -91 
Q 1019 -91 701 211 
Q 384 513 384 1019 
Q 384 1609 779 1909 
Q 1175 2209 1959 2209 
L 2766 2209 
L 2766 2266 
Q 2766 2663 2505 2880 
Q 2244 3097 1772 3097 
Q 1472 3097 1187 3025 
Q 903 2953 641 2809 
L 641 3341 
Q 956 3463 1253 3523 
Q 1550 3584 1831 3584 
Q 2591 3584 2966 3190 
Q 3341 2797 3341 1997 
z
" transform="scale(0.015625)"/>
       <path id="DejaVuSans-66" d="M 2375 4863 
L 2375 4384 
L 1825 4384 
Q 1516 4384 1395 4259 
Q 1275 4134 1275 3809 
L 1275 3500 
L 2222 3500 
L 2222 3053 
L 1275 3053 
L 1275 0 
L 697 0 
L 697 3053 
L 147 3053 
L 147 3500 
L 697 3500 
L 697 3744 
Q 697 4328 969 4595 
Q 1241 4863 1831 4863 
L 2375 4863 
z
" transform="scale(0.015625)"/>
       <path id="DejaVuSans-6c" d="M 603 4863 
L 1178 4863 
L 1178 0 
L 603 0 
L 603 4863 
z
" transform="scale(0.015625)"/>
       <path id="DejaVuSans-72" d="M 2631 2963 
Q 2534 3019 2420 3045 
Q 2306 3072 2169 3072 
Q 1681 3072 1420 2755 
Q 1159 2438 1159 1844 
L 1159 0 
L 581 0 
L 581 3500 
L 1159 3500 
L 1159 2956 
Q 1341 3275 1631 3429 
Q 1922 3584 2338 3584 
Q 2397 3584 2469 3576 
Q 2541 3569 2628 3553 
L 2631 2963 
z
" transform="scale(0.015625)"/>
       <path id="DejaVuSans-64" d="M 2906 2969 
L 2906 4863 
L 3481 4863 
L 3481 0 
L 2906 0 
L 2906 525 
Q 2725 213 2448 61 
Q 2172 -91 1784 -91 
Q 1150 -91 751 415 
Q 353 922 353 1747 
Q 353 2572 751 3078 
Q 1150 3584 1784 3584 
Q 2172 3584 2448 3432 
Q 2725 3281 2906 2969 
z
M 947 1747 
Q 947 1113 1208 752 
Q 1469 391 1925 391 
Q 2381 391 2643 752 
Q 2906 1113 2906 1747 
Q 2906 2381 2643 2742 
Q 2381 3103 1925 3103 
Q 1469 3103 1208 2742 
Q 947 2381 947 1747 
z
" transform="scale(0.015625)"/>
       <path id="DejaVuSans-45" d="M 628 4666 
L 3578 4666 
L 3578 4134 
L 1259 4134 
L 1259 2753 
L 3481 2753 
L 3481 2222 
L 1259 2222 
L 1259 531 
L 3634 531 
L 3634 0 
L 628 0 
L 628 4666 
z
" transform="scale(0.015625)"/>
       <path id="DejaVuSans-44" d="M 1259 4147 
L 1259 519 
L 2022 519 
Q 2988 519 3436 956 
Q 3884 1394 3884 2338 
Q 3884 3275 3436 3711 
Q 2988 4147 2022 4147 
L 1259 4147 
z
M 628 4666 
L 1925 4666 
Q 3281 4666 3915 4102 
Q 4550 3538 4550 2338 
Q 4550 1131 3912 565 
Q 3275 0 1925 0 
L 628 0 
L 628 4666 
z
" transform="scale(0.015625)"/>
       <path id="DejaVuSans-41" d="M 2188 4044 
L 1331 1722 
L 3047 1722 
L 2188 4044 
z
M 1831 4666 
L 2547 4666 
L 4325 0 
L 3669 0 
L 3244 1197 
L 1141 1197 
L 716 0 
L 50 0 
L 1831 4666 
z
" transform="scale(0.015625)"/>
       <path id="DejaVuSans-3bc" d="M 544 -1331 
L 544 3500 
L 1119 3500 
L 1119 1325 
Q 1119 872 1334 640 
Q 1550 409 1972 409 
Q 2434 409 2667 671 
Q 2900 934 2900 1459 
L 2900 3500 
L 3475 3500 
L 3475 806 
Q 3475 619 3529 530 
Q 3584 441 3700 441 
Q 3728 441 3778 458 
Q 3828 475 3916 513 
L 3916 50 
Q 3788 -22 3673 -56 
Q 3559 -91 3450 -91 
Q 3234 -91 3106 31 
Q 2978 153 2931 403 
Q 2775 156 2548 32 
Q 2322 -91 2016 -91 
Q 1697 -91 1473 31 
Q 1250 153 1119 397 
L 1119 -1331 
L 544 -1331 
z
" transform="scale(0.015625)"/>
       <path id="DejaVuSans-53" d="M 3425 4513 
L 3425 3897 
Q 3066 4069 2747 4153 
Q 2428 4238 2131 4238 
Q 1616 4238 1336 4038 
Q 1056 3838 1056 3469 
Q 1056 3159 1242 3001 
Q 1428 2844 1947 2747 
L 2328 2669 
Q 3034 2534 3370 2195 
Q 3706 1856 3706 1288 
Q 3706 609 3251 259 
Q 2797 -91 1919 -91 
Q 1588 -91 1214 -16 
Q 841 59 441 206 
L 441 856 
Q 825 641 1194 531 
Q 1563 422 1919 422 
Q 2459 422 2753 634 
Q 3047 847 3047 1241 
Q 3047 1584 2836 1778 
Q 2625 1972 2144 2069 
L 1759 2144 
Q 1053 2284 737 2584 
Q 422 2884 422 3419 
Q 422 4038 858 4394 
Q 1294 4750 2059 4750 
Q 2388 4750 2728 4690 
Q 3069 4631 3425 4513 
z
" transform="scale(0.015625)"/>
      </defs>
      <use xlink:href="#DejaVuSans-47"/>
      <use xlink:href="#DejaVuSans-61" transform="translate(77.490234 0)"/>
      <use xlink:href="#DejaVuSans-75" transform="translate(138.769531 0)"/>
      <use xlink:href="#DejaVuSans-73" transform="translate(202.148438 0)"/>
      <use xlink:href="#DejaVuSans-73" transform="translate(254.248047 0)"/>
      <use xlink:href="#DejaVuSans-69" transform="translate(306.347656 0)"/>
      <use xlink:href="#DejaVuSans-61" transform="translate(334.130859 0)"/>
      <use xlink:href="#DejaVuSans-6e" transform="translate(395.410156 0)"/>
      <use xlink:href="#DejaVuSans-20" transform="translate(458.789062 0)"/>
      <use xlink:href="#DejaVuSans-66" transform="translate(490.576172 0)"/>
      <use xlink:href="#DejaVuSans-69" transform="translate(525.78125 0)"/>
      <use xlink:href="#DejaVuSans-6c" transform="translate(553.564453 0)"/>
      <use xlink:href="#DejaVuSans-74" transform="translate(581.347656 0)"/>
      <use xlink:href="#DejaVuSans-65" transform="translate(620.556641 0)"/>
      <use xlink:href="#DejaVuSans-72" transform="translate(682.080078 0)"/>
      <use xlink:href="#DejaVuSans-65" transform="translate(720.943359 0)"/>
      <use xlink:href="#DejaVuSans-64" transform="translate(782.466797 0)"/>
      <use xlink:href="#DejaVuSans-20" transform="translate(845.943359 0)"/>
      <use xlink:href="#DejaVuSans-45" transform="translate(877.730469 0)"/>
      <use xlink:href="#DejaVuSans-44" transform="translate(940.914062 0)"/>
      <use xlink:href="#DejaVuSans-41" transform="translate(1016.166016 0)"/>
      <use xlink:href="#DejaVuSans-20" transform="translate(1084.574219 0)"/>
      <use xlink:href="#DejaVuSans-28" transform="translate(1116.361328 0)"/>
      <use xlink:href="#DejaVuSans-3bc" transform="translate(1155.375 0)"/>
      <use xlink:href="#DejaVuSans-53" transform="translate(1218.998047 0)"/>
      <use xlink:href="#DejaVuSans-29" transform="translate(1282.474609 0)"/>
     </g>
    </g>
   </g>
   <g id="line2d_29">
    <path d="M 56.985 226.211295 
L 57.71321 226.647305 
L 58.23336 226.834884 
L 59.68978 227.037414 
L 60.834111 227.594156 
L 62.186501 228.561392 
L 63.018741 228.567608 
L 63.538891 228.303672 
L 64.059041 228.055897 
L 64.995311 227.867429 
L 66.035611 227.12237 
L 66.555762 227.159652 
L 67.075912 227.415405 
L 68.324272 228.201399 
L 69.572632 228.237026 
L 70.925022 228.953637 
L 71.757262 228.984156 
L 72.277412 229.113638 
L 72.797563 229.534042 
L 73.421743 230.053694 
L 73.733833 230.0858 
L 74.358013 229.819771 
L 76.126523 229.047773 
L 76.958763 229.272403 
L 77.478913 229.583636 
L 78.519213 230.371613 
L 79.871604 230.950222 
L 80.703844 231.395162 
L 82.056234 231.776141 
L 83.928774 232.046809 
L 85.489225 232.150395 
L 89.442365 232.642047 
L 90.066545 232.482511 
L 90.586695 232.115766 
L 91.418936 231.481548 
L 92.355206 231.145041 
L 92.771326 230.378237 
L 93.291476 229.474385 
L 93.499536 229.429883 
L 93.707596 229.619597 
L 94.123716 230.463307 
L 94.747896 231.633507 
L 96.412376 233.579339 
L 96.620436 233.440585 
L 96.932526 232.765242 
L 97.868797 230.128415 
L 98.076857 229.977517 
L 98.284917 230.034033 
L 98.597007 230.429099 
L 99.429247 231.779423 
L 99.741337 231.873008 
L 100.053427 231.669408 
L 100.365517 231.155919 
L 100.781637 229.969755 
L 101.509847 227.779998 
L 101.717907 227.558698 
L 101.925967 227.605101 
L 102.134027 227.910932 
L 102.446117 228.788474 
L 102.966267 231.044133 
L 103.798508 234.952349 
L 104.006568 235.34777 
L 104.110598 235.362801 
L 104.318658 234.989905 
L 104.630748 233.528618 
L 105.983138 225.557402 
L 106.503288 224.011964 
L 106.919408 223.4508 
L 107.439558 223.181122 
L 108.479858 222.90878 
L 108.791948 223.05206 
L 109.104038 223.437973 
L 109.416128 224.200783 
L 109.832248 225.930296 
L 110.248369 227.657317 
L 110.456429 227.920442 
L 110.560459 227.815122 
L 110.768519 227.128372 
L 111.808819 221.986477 
L 112.641059 220.784876 
L 113.057179 219.219212 
L 113.889419 215.912982 
L 114.305539 215.145487 
L 114.721659 214.899311 
L 115.241809 214.695989 
L 115.553899 214.33203 
L 115.970019 213.353381 
L 116.80226 211.153724 
L 117.11435 210.887982 
L 117.84256 210.478954 
L 118.77883 209.527894 
L 119.09092 208.799234 
L 119.50704 206.987744 
L 120.85943 199.553164 
L 121.06749 199.535334 
L 121.37958 200.078111 
L 122.00376 201.312785 
L 122.31585 201.892095 
L 122.523911 202.824391 
L 122.731971 204.657742 
L 123.044061 209.647291 
L 123.876301 226.504526 
L 123.980331 226.961053 
L 124.084361 226.734453 
L 124.292421 224.254398 
L 124.708541 213.583255 
L 125.228691 200.267431 
L 125.540781 196.030263 
L 125.852871 194.298514 
L 126.060931 194.045843 
L 126.268991 194.242705 
L 126.685111 195.341856 
L 127.517351 197.61144 
L 128.141531 198.623926 
L 128.869742 199.364565 
L 129.493922 199.983301 
L 130.326162 201.010258 
L 130.534222 200.973694 
L 130.846312 200.554158 
L 132.302732 197.760463 
L 132.510792 197.822451 
L 132.718852 198.144481 
L 133.134972 199.453182 
L 134.071242 202.65528 
L 134.591392 203.689715 
L 134.799452 203.838505 
L 135.007513 203.762454 
L 135.215573 203.427802 
L 135.527663 202.446397 
L 136.671993 197.850223 
L 136.880053 197.709409 
L 137.088113 197.846535 
L 137.920353 198.870309 
L 138.856623 199.26961 
L 139.272743 199.580847 
L 139.480803 199.42099 
L 139.688863 198.865952 
L 140.000953 197.213793 
L 140.937223 191.164214 
L 141.145283 190.963814 
L 141.353344 191.340369 
L 141.769464 193.095674 
L 142.289614 195.158849 
L 142.601704 195.803926 
L 142.809764 195.961827 
L 143.017824 195.888143 
L 143.225884 195.570273 
L 143.642004 194.289136 
L 144.370214 191.821446 
L 144.682304 191.50352 
L 144.890364 191.615193 
L 145.202454 192.150631 
L 146.138724 194.069332 
L 147.074994 195.435252 
L 147.699175 197.127985 
L 148.115295 198.069847 
L 148.427385 198.380403 
L 148.947535 198.490624 
L 149.883805 198.546273 
L 151.028135 198.264753 
L 151.652315 198.159944 
L 152.068435 198.364745 
L 152.796645 199.110522 
L 153.836946 200.120806 
L 154.669186 200.65934 
L 155.293366 200.844097 
L 155.917546 200.80697 
L 156.749786 200.491541 
L 157.686056 200.184002 
L 158.414266 200.224185 
L 159.558596 200.564188 
L 160.806957 200.88487 
L 161.639197 200.82074 
L 162.367407 200.817979 
L 162.991587 201.090782 
L 164.239947 201.722897 
L 167.256818 202.267561 
L 167.776968 202.035876 
L 168.297118 201.529896 
L 168.921298 200.905263 
L 169.233388 200.813111 
L 169.649508 200.946596 
L 170.897868 201.557642 
L 173.082499 202.071922 
L 173.394589 201.860108 
L 173.706679 201.390536 
L 174.122799 200.254041 
L 174.746979 197.568853 
L 175.475189 194.431247 
L 175.891309 193.429882 
L 176.203399 193.130129 
L 176.515489 193.115612 
L 177.035639 193.40191 
L 178.179969 194.096293 
L 178.596089 194.104181 
L 178.80415 193.922958 
L 179.11624 193.222657 
L 179.42833 191.840651 
L 180.78072 184.483569 
L 180.98878 184.331699 
L 181.30087 184.477979 
L 181.71699 184.726329 
L 181.92505 184.527677 
L 182.13311 183.874252 
L 182.4452 181.732978 
L 182.96535 175.501598 
L 183.38147 170.982839 
L 183.58953 169.897212 
L 183.69356 169.71715 
L 183.79759 169.769155 
L 184.00565 170.475026 
L 184.42177 173.36387 
L 185.254011 179.202506 
L 185.774161 181.22274 
L 186.190281 182.056908 
L 186.710431 182.587026 
L 187.854761 183.335803 
L 190.767601 184.489654 
L 192.952232 185.374796 
L 194.096562 185.579993 
L 197.529553 185.712875 
L 198.361793 186.036145 
L 199.402093 186.426704 
L 200.546423 186.563152 
L 201.586723 186.769476 
L 202.522993 187.20658 
L 203.563293 187.661538 
L 205.747924 188.12864 
L 206.684194 188.374022 
L 207.516434 188.601061 
L 208.244644 188.530877 
L 208.972854 188.516711 
L 210.117185 188.869524 
L 210.949425 188.94466 
L 211.781665 189.028081 
L 212.613905 189.402932 
L 213.654205 189.80464 
L 215.006595 190.059277 
L 216.358986 190.177374 
L 217.607346 190.476321 
L 217.919436 190.280729 
L 218.231526 189.733245 
L 218.543616 188.705294 
L 219.167796 185.513551 
L 219.687946 183.22794 
L 220.000036 182.578727 
L 220.312126 182.412608 
L 220.728246 182.577181 
L 221.768546 183.141865 
L 222.080636 183.127404 
L 222.392727 182.881365 
L 222.808847 182.110523 
L 223.849147 179.734588 
L 224.265267 179.323388 
L 224.681387 179.20567 
L 225.305567 179.351261 
L 226.033777 179.471229 
L 226.866017 179.61444 
L 227.594227 179.741896 
L 228.010347 179.580248 
L 228.426467 179.18213 
L 229.050648 178.186747 
L 229.778858 177.021202 
L 230.299008 176.596385 
L 230.923188 176.077965 
L 231.651398 175.446894 
L 231.963488 175.448174 
L 232.483638 175.744552 
L 233.211848 176.109223 
L 233.836028 176.181421 
L 234.252148 176.067148 
L 234.564238 175.772708 
L 234.980359 174.954209 
L 235.812599 172.967847 
L 236.124689 172.70943 
L 236.540809 172.726508 
L 237.060959 172.731927 
L 238.101259 172.506919 
L 238.725439 172.551682 
L 239.037529 172.233332 
L 239.349619 171.481806 
L 239.765739 169.797273 
L 241.22216 162.949348 
L 241.53425 162.619494 
L 241.74231 162.662862 
L 242.26246 163.148791 
L 242.88664 163.646976 
L 243.30276 163.770753 
L 243.51082 163.666652 
L 243.71888 163.362588 
L 244.03097 162.439141 
L 244.96724 158.930077 
L 245.1753 158.870085 
L 245.38336 159.15023 
L 245.79948 160.302569 
L 246.42366 161.910831 
L 246.73575 162.222479 
L 247.359931 162.358887 
L 247.567991 162.876886 
L 247.776051 164.030759 
L 248.088141 167.133731 
L 248.816351 175.130285 
L 249.024411 175.789671 
L 249.128441 175.821764 
L 249.336501 175.525771 
L 249.752621 174.878335 
L 249.960681 175.017889 
L 250.168741 175.543952 
L 250.480831 176.989842 
L 250.896951 180.137087 
L 251.417101 186.371285 
L 252.353371 198.429872 
L 252.873521 201.664978 
L 253.497702 204.334875 
L 253.705762 204.695989 
L 253.913822 204.611818 
L 254.225912 203.792155 
L 254.954122 201.480964 
L 255.474272 200.627663 
L 256.410542 199.375915 
L 256.618602 198.545052 
L 256.930692 195.878357 
L 257.242782 190.442728 
L 257.658902 178.010225 
L 258.595172 147.461626 
L 259.011292 141.013341 
L 259.323382 138.652644 
L 259.635472 137.704705 
L 259.947563 137.476455 
L 260.155623 137.294739 
L 260.363683 136.815723 
L 260.675773 135.35715 
L 261.403983 131.41766 
L 261.612043 131.105808 
L 261.820103 131.190989 
L 262.444283 131.834552 
L 262.652343 131.660879 
L 262.964433 130.989638 
L 263.900703 128.698906 
L 264.524883 127.417065 
L 264.941003 125.896165 
L 265.877273 121.070498 
L 266.813544 116.777534 
L 267.437724 115.054279 
L 267.749814 114.086568 
L 268.061904 112.275459 
L 268.373994 108.754161 
L 268.790114 100.383156 
L 269.622354 81.053424 
L 269.830414 79.288594 
L 269.934444 79.047219 
L 270.038474 79.176998 
L 270.246534 80.265774 
L 270.870714 84.170958 
L 270.974744 84.19392 
L 271.182804 83.407763 
L 271.494894 80.425574 
L 272.119074 73.633044 
L 272.327135 72.864225 
L 272.431165 72.858079 
L 272.639225 73.473734 
L 273.263405 77.265103 
L 273.783555 79.616843 
L 274.823855 82.979875 
L 275.135945 83.469703 
L 275.448035 83.563916 
L 275.864155 83.319435 
L 276.488335 82.74147 
L 276.800425 82.137845 
L 277.216545 80.712376 
L 277.736695 78.918113 
L 277.944755 78.639907 
L 278.152815 78.685202 
L 278.464906 79.168772 
L 278.985056 80.051618 
L 279.297146 80.204586 
L 279.505206 80.050944 
L 279.713266 79.578214 
L 279.921326 78.622631 
L 280.233416 75.924229 
L 280.753566 68.353632 
L 281.273716 61.951676 
L 281.481776 61.074372 
L 281.585806 61.027982 
L 281.793866 61.573293 
L 282.314016 64.623666 
L 282.626106 65.988692 
L 282.834166 66.227433 
L 283.042226 65.811939 
L 283.354316 64.087302 
L 283.978496 60.124302 
L 284.186556 59.832998 
L 284.394616 60.138991 
L 284.810737 60.999795 
L 284.914767 60.946392 
L 285.122827 60.327068 
L 285.955067 56.441941 
L 286.163127 56.750223 
L 286.579247 57.764071 
L 286.683277 57.636155 
L 286.891337 56.41257 
L 287.203427 51.873823 
L 287.931637 38.678861 
L 288.139697 38.085455 
L 288.347757 39.625419 
L 288.659847 45.036283 
L 289.492087 61.238465 
L 289.804177 63.317611 
L 289.908207 63.437213 
L 290.116267 63.15249 
L 290.324327 62.812361 
L 290.428357 62.900517 
L 290.636417 64.096009 
L 290.844477 67.026946 
L 291.260598 77.397368 
L 291.988808 95.648384 
L 292.300898 99.487054 
L 292.612988 101.002815 
L 292.821048 101.22465 
L 293.133138 101.31434 
L 293.341198 101.63359 
L 293.757318 103.076638 
L 294.173438 104.25401 
L 294.381498 104.235126 
L 294.589558 103.754206 
L 295.005678 101.824796 
L 295.421798 99.030581 
L 295.733888 95.550309 
L 296.045978 89.553638 
L 297.190309 61.878901 
L 297.294339 61.756846 
L 297.502399 63.025484 
L 298.230609 70.074785 
L 298.334639 70.091685 
L 298.542699 69.312029 
L 299.270909 65.19415 
L 299.582999 64.747054 
L 300.207179 64.525708 
L 300.415239 64.575308 
L 300.623299 64.827434 
L 300.935389 65.6245 
L 301.455539 66.993021 
L 301.663599 66.982259 
L 301.871659 66.517103 
L 302.599869 64.286205 
L 302.703899 64.342349 
L 302.911959 64.866895 
L 303.84823 68.369565 
L 303.95226 68.316234 
L 304.16032 67.805193 
L 304.47241 66.055964 
L 304.99256 61.131101 
L 305.51271 56.860272 
L 305.61674 56.625063 
L 305.72077 56.720915 
L 305.92883 58.050592 
L 306.24092 62.96412 
L 307.48928 87.951911 
L 307.80137 89.959179 
L 308.11346 90.69598 
L 308.32152 90.681485 
L 308.63361 90.199087 
L 309.04973 89.623038 
L 309.25779 89.821998 
L 309.46585 90.495478 
L 310.090031 93.178456 
L 310.194061 93.158549 
L 310.402121 92.292856 
L 310.714211 88.912725 
L 312.170631 65.495201 
L 312.794811 56.965541 
L 313.002871 55.78259 
L 313.210931 55.620583 
L 313.418991 56.175945 
L 313.835111 57.410832 
L 313.939141 57.371197 
L 314.147201 56.548349 
L 314.459291 53.28007 
L 315.395561 40.286975 
L 315.499591 40.023556 
L 315.603621 40.132258 
L 315.811681 41.366235 
L 316.227802 46.45354 
L 316.851982 54.148993 
L 317.268102 57.095119 
L 317.684222 58.648397 
L 318.100342 59.413104 
L 318.516462 59.732521 
L 318.932582 59.73486 
L 319.348702 59.422829 
L 320.284972 58.47811 
L 320.597062 58.558985 
L 321.117212 59.056333 
L 321.637362 59.461839 
L 322.157513 59.537615 
L 322.781693 59.612477 
L 323.301843 59.973636 
L 323.926023 60.407137 
L 324.342143 60.458425 
L 324.966323 60.287998 
L 325.694533 59.870135 
L 326.734833 59.224508 
L 328.295283 58.543841 
L 328.815434 57.896632 
L 331.104094 54.522525 
L 331.416184 54.412457 
L 331.728274 54.633763 
L 332.352454 55.618588 
L 332.976634 56.40879 
L 333.600814 56.831243 
L 334.433054 57.121774 
L 334.849175 57.106012 
L 335.265295 56.842078 
L 335.681415 56.203327 
L 336.097535 55.026173 
L 336.617685 52.63004 
L 337.345895 49.01982 
L 337.657985 48.299991 
L 337.970075 48.141498 
L 339.114405 48.477968 
L 339.530525 48.816315 
L 340.258735 49.758705 
L 340.570825 50.408977 
L 340.882916 51.565716 
L 341.923216 56.303662 
L 342.131276 55.7948 
L 342.443366 53.969327 
L 343.067546 50.006538 
L 343.379636 49.121056 
L 343.587696 48.946346 
L 343.795756 49.000872 
L 344.211876 49.483437 
L 345.148146 51.116458 
L 346.500536 53.374002 
L 347.644867 54.866411 
L 349.829497 57.591863 
L 351.493977 59.501787 
L 354.094728 62.467383 
L 360.336529 70.079702 
L 361.896979 71.820746 
L 363.249369 73.024053 
L 364.081609 73.37237 
L 364.289669 73.874723 
L 364.497729 74.922893 
L 364.809819 77.893719 
L 365.329969 86.037433 
L 365.85012 93.620761 
L 366.26624 96.607054 
L 366.57833 97.504299 
L 367.41057 99.272767 
L 368.34684 101.584284 
L 368.86699 102.323429 
L 369.17908 102.46235 
L 369.38714 102.362687 
L 369.69923 101.835143 
L 370.01132 100.776274 
L 370.42744 98.515369 
L 371.57177 91.424461 
L 371.88386 90.931994 
L 372.091921 91.042608 
L 372.404011 91.694144 
L 372.924161 93.518795 
L 373.756401 96.362211 
L 374.172521 97.023053 
L 375.004761 97.865309 
L 377.189391 101.514279 
L 379.894172 105.86346 
L 382.702982 109.901924 
L 383.015072 109.910163 
L 383.951342 109.672268 
L 384.263432 109.933537 
L 385.719853 111.556623 
L 386.135973 111.637596 
L 386.448063 111.436138 
L 386.760153 110.91794 
L 387.280303 109.432125 
L 388.112543 106.996462 
L 388.528663 106.356012 
L 389.152843 105.834819 
L 389.672993 105.627005 
L 389.985083 105.74706 
L 390.401203 106.205252 
L 392.273744 108.698061 
L 393.522104 110.082526 
L 394.770464 111.138169 
L 398.203455 115.298167 
L 399.451815 116.57729 
L 400.180025 117.494417 
L 401.012265 118.882809 
L 401.116295 118.826074 
L 401.324355 118.198467 
L 401.532415 116.60227 
L 401.844505 111.845177 
L 402.364655 98.247375 
L 402.988835 82.102598 
L 403.300926 77.820287 
L 403.613016 76.181499 
L 403.821076 76.069884 
L 404.133166 76.529968 
L 404.549286 77.132659 
L 405.173466 77.693734 
L 405.485556 78.431433 
L 406.421826 81.076216 
L 406.941976 81.607657 
L 407.462126 81.945397 
L 407.670186 81.853872 
L 407.878246 81.506585 
L 408.294366 80.129037 
L 408.710486 78.910545 
L 408.918546 78.848526 
L 409.126606 79.261122 
L 409.438696 80.603244 
L 410.478997 85.736536 
L 410.895117 86.792325 
L 411.415267 87.470754 
L 412.975717 89.003672 
L 413.807957 89.802199 
L 414.224077 89.970461 
L 414.536167 89.917198 
L 414.952287 89.563792 
L 415.888558 88.495998 
L 416.304678 88.448844 
L 416.616768 88.412337 
L 416.824828 88.234839 
L 417.136918 87.565121 
L 417.657068 85.495687 
L 418.073188 84.011467 
L 418.385278 83.617359 
L 418.593338 83.729557 
L 419.009458 84.48622 
L 419.425578 85.120654 
L 419.633638 85.114725 
L 419.841698 84.840617 
L 420.257818 83.737644 
L 420.881998 82.20101 
L 421.298118 81.800353 
L 421.714238 81.793125 
L 422.234389 82.045279 
L 422.442449 82.353926 
L 422.650509 83.015595 
L 422.962599 85.026885 
L 424.210959 95.865727 
L 424.627079 96.949412 
L 425.043199 97.45125 
L 425.355289 97.503929 
L 425.667379 97.350121 
L 425.979469 96.902911 
L 426.291559 95.885584 
L 426.811709 92.883699 
L 427.331859 90.219007 
L 427.643949 89.603708 
L 427.852009 89.561964 
L 428.164099 89.802179 
L 428.78828 90.394043 
L 428.99634 90.395189 
L 429.2044 90.170337 
L 429.51649 89.281147 
L 430.55679 85.220988 
L 430.76485 85.243326 
L 431.07694 85.757534 
L 431.285 86.215213 
L 431.285 86.215213 
" clip-path="url(#p338834bcc8)" style="fill: none; stroke-dasharray: 1.85,0.8; stroke-dashoffset: 0; stroke: #1f77b4; stroke-width: 0.5"/>
   </g>
   <g id="line2d_30">
    <path d="M 56.985 226.28512 
L 57.50515 226.151808 
L 58.0253 226.232521 
L 58.75351 226.608543 
L 60.00187 227.597131 
L 61.042171 228.321538 
L 61.770381 228.562673 
L 62.602621 228.575384 
L 63.642921 228.345585 
L 65.827551 227.808146 
L 66.971882 227.832255 
L 68.220242 228.081397 
L 69.884722 228.65472 
L 73.109653 229.831469 
L 74.358013 230.022283 
L 78.415183 230.401488 
L 80.079664 231.048648 
L 82.160264 231.830407 
L 83.616684 232.101966 
L 86.113405 232.279546 
L 95.372076 233.022669 
L 96.620436 233.373211 
L 97.660737 233.88516 
L 98.597007 234.57643 
L 99.949397 235.922714 
L 101.197757 237.058014 
L 101.925967 237.446274 
L 102.550147 237.51466 
L 103.070297 237.335266 
L 103.694477 236.848934 
L 104.526718 235.866874 
L 107.751648 231.668299 
L 110.352399 229.265727 
L 111.080609 228.161026 
L 111.912849 226.449505 
L 112.953149 223.733181 
L 114.409569 219.204032 
L 116.69823 211.96526 
L 117.32241 210.774099 
L 117.73853 210.392016 
L 118.05062 210.370908 
L 118.36271 210.609734 
L 118.6748 211.137655 
L 119.09092 212.341655 
L 119.61107 214.743606 
L 120.33928 219.560635 
L 122.41988 234.431531 
L 122.940031 236.4648 
L 123.252121 237.035271 
L 123.460181 237.096441 
L 123.668241 236.875123 
L 123.980331 236.02189 
L 124.396451 234.038269 
L 125.020631 229.64322 
L 126.060931 220.145599 
L 127.413321 208.109764 
L 128.037501 204.322138 
L 128.557651 202.351939 
L 128.973772 201.434356 
L 129.389892 201.003946 
L 129.701982 200.9463 
L 130.118102 201.150263 
L 130.638252 201.729032 
L 132.510792 204.208142 
L 133.134972 204.548427 
L 133.759152 204.633913 
L 134.383332 204.503172 
L 135.111543 204.128813 
L 136.047813 203.390756 
L 137.504233 201.917304 
L 140.937223 198.302745 
L 142.081554 197.456623 
L 143.121854 196.962802 
L 143.954094 196.79465 
L 144.786334 196.856553 
L 145.722604 197.170649 
L 147.179024 197.940451 
L 148.947535 198.835152 
L 150.403955 199.280019 
L 153.524855 200.153564 
L 156.125606 201.043015 
L 157.165906 201.158643 
L 158.414266 201.047635 
L 160.702927 200.791751 
L 161.743227 200.937428 
L 163.199647 201.414133 
L 165.176217 202.0439 
L 166.320548 202.157149 
L 168.089058 202.066566 
L 170.273688 201.982368 
L 172.874439 201.939868 
L 174.018769 201.690568 
L 174.851009 201.308802 
L 175.579219 200.758942 
L 176.307429 199.945136 
L 177.035639 198.80771 
L 177.867879 197.035623 
L 178.90818 194.165171 
L 181.50893 186.648807 
L 182.34117 185.027087 
L 183.06938 184.083899 
L 183.79759 183.505815 
L 184.5258 183.215241 
L 185.358041 183.135677 
L 186.606401 183.284114 
L 188.374911 183.73323 
L 191.183722 184.724099 
L 193.680442 185.515102 
L 195.240892 185.783705 
L 199.610153 186.369663 
L 202.106873 187.153577 
L 205.123744 188.045746 
L 207.308374 188.461725 
L 211.677635 189.146788 
L 216.775106 190.451797 
L 217.607346 190.297994 
L 218.335556 189.913202 
L 219.063766 189.231755 
L 219.791976 188.204734 
L 220.832276 186.288761 
L 223.016907 182.155326 
L 223.745117 181.226967 
L 224.473327 180.640293 
L 225.305567 180.266232 
L 226.866017 179.905911 
L 227.802287 179.562353 
L 228.738558 178.963736 
L 232.067518 176.569054 
L 233.107818 176.265018 
L 235.708569 175.648599 
L 236.540809 175.163342 
L 237.477079 174.336584 
L 238.413349 173.203197 
L 239.453649 171.572797 
L 240.597979 169.322468 
L 242.67858 165.093582 
L 243.40679 164.097002 
L 243.92694 163.681503 
L 244.34306 163.569762 
L 244.75918 163.677505 
L 245.1753 164.010481 
L 245.69545 164.749877 
L 246.31963 166.122042 
L 246.94381 168.036656 
L 247.672021 170.975006 
L 248.504261 175.290053 
L 249.544561 181.965555 
L 252.561431 202.184397 
L 253.393671 205.982295 
L 253.913822 207.535592 
L 254.329942 208.217204 
L 254.642032 208.35723 
L 254.850092 208.258143 
L 255.162182 207.79994 
L 255.578302 206.567221 
L 255.994422 204.562548 
L 256.514572 200.869195 
L 257.138752 194.563297 
L 257.970992 183.595852 
L 260.779803 144.237345 
L 261.403983 138.941507 
L 262.028163 135.418165 
L 262.652343 133.211297 
L 263.276523 131.864884 
L 265.045033 128.732961 
L 265.669213 126.560629 
L 266.397424 123.120968 
L 267.437724 117.005789 
L 271.182804 93.779244 
L 272.119074 89.60524 
L 272.951315 86.845869 
L 273.575495 85.462432 
L 274.095645 84.758889 
L 274.615795 84.378506 
L 275.239975 84.22593 
L 276.176245 84.30496 
L 277.008485 84.321973 
L 277.528635 84.141023 
L 278.048785 83.723631 
L 278.672966 82.903836 
L 279.401176 81.528814 
L 280.233416 79.437885 
L 281.169686 76.470642 
L 282.314016 72.066219 
L 284.082526 65.235971 
L 284.810737 63.237647 
L 285.330887 62.346881 
L 285.747007 62.037618 
L 286.059097 62.075613 
L 286.371187 62.354124 
L 286.787307 63.094808 
L 287.307457 64.604981 
L 287.931637 67.257218 
L 288.659847 71.481638 
L 289.492087 77.756649 
L 290.428357 86.574532 
L 292.612988 108.01657 
L 293.237168 111.998958 
L 293.653288 113.61526 
L 293.965378 114.170089 
L 294.173438 114.189966 
L 294.381498 113.912052 
L 294.693588 112.975183 
L 295.109708 110.870898 
L 295.733888 106.239661 
L 296.670158 97.150462 
L 298.542699 78.609608 
L 299.270909 73.645771 
L 299.895089 70.654848 
L 300.415239 69.017826 
L 300.831359 68.248631 
L 301.143449 67.977888 
L 301.455539 67.963068 
L 301.767629 68.198324 
L 302.183749 68.890904 
L 302.703899 70.345287 
L 303.328079 72.852995 
L 304.26435 77.719456 
L 307.07316 93.283448 
L 307.80137 95.886965 
L 308.32152 97.092565 
L 308.73764 97.606073 
L 309.04973 97.702526 
L 309.36182 97.533246 
L 309.673911 97.08177 
L 310.090031 96.012372 
L 310.610181 93.869518 
L 311.234361 90.043682 
L 312.066601 83.297691 
L 314.355261 63.899765 
L 314.979441 60.651512 
L 315.395561 59.409867 
L 315.811681 58.84972 
L 316.123772 58.808513 
L 316.435862 59.038834 
L 316.851982 59.685479 
L 317.476162 61.152325 
L 319.036612 65.098556 
L 319.556762 65.758089 
L 319.972882 65.947617 
L 320.389002 65.884221 
L 320.909152 65.516249 
L 321.533332 64.764511 
L 322.989753 62.495654 
L 323.821993 61.421571 
L 324.758263 60.594497 
L 325.902593 59.920547 
L 327.983193 58.778341 
L 330.896034 56.861767 
L 331.728274 56.660086 
L 332.560514 56.722899 
L 335.161265 57.13767 
L 335.785445 56.93118 
L 336.513655 56.414863 
L 338.906345 54.401526 
L 339.426495 54.296629 
L 339.946645 54.444294 
L 340.466795 54.882679 
L 341.195006 55.869381 
L 343.691726 59.677669 
L 344.211876 59.993035 
L 344.627996 60.023285 
L 345.148146 59.831249 
L 345.876356 59.261037 
L 348.060987 57.284374 
L 348.581137 57.15928 
L 349.101287 57.254355 
L 349.725467 57.618662 
L 350.453677 58.324358 
L 351.493977 59.70328 
L 355.655178 65.709282 
L 356.591448 66.572694 
L 358.880108 68.307355 
L 359.504288 69.278067 
L 360.128469 70.715391 
L 360.752649 72.753453 
L 361.480859 75.983342 
L 362.625189 82.324312 
L 364.809819 94.724893 
L 365.642059 98.193293 
L 366.37027 100.423575 
L 367.09848 101.950863 
L 367.72266 102.735127 
L 368.24281 103.040613 
L 368.65893 103.069183 
L 369.17908 102.849129 
L 369.80326 102.256169 
L 370.6355 101.099318 
L 372.508041 98.378432 
L 373.132221 97.869752 
L 373.652371 97.739522 
L 374.172521 97.871029 
L 374.796701 98.317717 
L 375.524911 99.149341 
L 376.565211 100.707788 
L 379.894172 105.916162 
L 383.431192 110.947017 
L 384.263432 111.717827 
L 384.887613 112.024071 
L 385.407763 112.054394 
L 385.927913 111.845199 
L 386.552093 111.29514 
L 387.488363 110.090126 
L 389.048813 108.026957 
L 389.672993 107.51792 
L 390.193143 107.35514 
L 390.713293 107.437483 
L 391.337474 107.800244 
L 392.169714 108.609368 
L 396.538974 113.464703 
L 397.683305 114.850877 
L 398.619575 116.351491 
L 399.763905 118.18674 
L 400.284055 118.668835 
L 400.700175 118.764987 
L 401.012265 118.622336 
L 401.324355 118.262833 
L 401.740475 117.395195 
L 402.156595 116.019706 
L 402.676745 113.491869 
L 403.404956 108.649858 
L 404.861376 96.880867 
L 405.901676 89.196558 
L 406.525856 85.813192 
L 407.046006 84.010767 
L 407.462126 83.189329 
L 407.878246 82.83876 
L 408.190336 82.840036 
L 408.606456 83.134267 
L 409.126606 83.867453 
L 409.958847 85.542098 
L 411.311237 88.243229 
L 412.143477 89.379041 
L 412.871687 90.009251 
L 413.495867 90.273746 
L 414.120047 90.279117 
L 414.744227 90.020963 
L 415.368407 89.506354 
L 416.616768 88.089374 
L 417.553038 87.157845 
L 418.177218 86.823352 
L 418.697368 86.821126 
L 419.113488 87.050127 
L 419.633638 87.645451 
L 420.257818 88.735532 
L 421.194088 90.906018 
L 423.898869 97.577882 
L 424.627079 98.730129 
L 425.251259 99.33766 
L 425.771409 99.531339 
L 426.187529 99.457359 
L 426.603649 99.161164 
L 427.123799 98.45209 
L 427.643949 97.339065 
L 428.37216 95.188097 
L 429.51649 90.969241 
L 431.285 84.487739 
L 431.285 84.487739 
" clip-path="url(#p338834bcc8)" style="fill: none; stroke: #ff7f0e; stroke-width: 0.5; stroke-linecap: square"/>
   </g>
   <g id="line2d_31">
    <path d="M 56.985 290.446957 
L 57.19306 290.395878 
L 57.50515 290.952691 
L 57.81724 290.977436 
L 59.0656 290.509948 
L 60.00187 290.039726 
L 60.730081 289.898859 
L 62.186501 290.327621 
L 63.434861 290.41051 
L 64.163071 290.368556 
L 65.099341 290.341876 
L 66.035611 289.781656 
L 66.347702 289.813859 
L 67.804122 290.308385 
L 68.740392 290.381749 
L 69.364572 290.182845 
L 71.133082 290.296251 
L 72.069352 290.07165 
L 73.629803 290.376481 
L 74.253983 290.337737 
L 75.814433 289.47342 
L 76.334583 289.488257 
L 77.270853 289.837741 
L 78.103093 290.204695 
L 79.143394 290.376646 
L 81.328024 290.441666 
L 84.240864 290.353765 
L 85.073105 290.368614 
L 87.569825 290.44247 
L 89.962515 290.383207 
L 90.586695 289.92847 
L 91.418936 289.256451 
L 92.355206 288.883809 
L 92.771326 288.098682 
L 93.291476 287.166671 
L 93.499536 287.109545 
L 93.707596 287.273808 
L 94.123716 288.098628 
L 94.747896 289.241082 
L 95.268046 289.790342 
L 95.892226 290.135212 
L 96.620436 290.316824 
L 96.724466 290.288067 
L 96.932526 289.736225 
L 97.972827 286.41389 
L 98.284917 286.192498 
L 98.597007 286.329645 
L 99.325217 286.881833 
L 99.637307 286.753538 
L 99.949397 286.324323 
L 100.365517 285.291339 
L 100.885667 283.271473 
L 101.509847 280.998592 
L 101.821937 280.613912 
L 102.029997 280.722398 
L 102.342087 281.346308 
L 102.550147 282.03222 
L 103.694477 287.7874 
L 104.214628 289.008482 
L 104.318658 289.176185 
L 104.422688 289.120676 
L 104.838808 287.21272 
L 105.671048 283.237946 
L 106.191198 281.840375 
L 106.503288 281.466222 
L 106.815378 281.398411 
L 107.335528 281.641078 
L 108.687918 282.558814 
L 109.104038 283.24746 
L 110.456429 288.616988 
L 110.664489 289.016116 
L 110.768519 288.965909 
L 111.600759 285.830295 
L 111.808819 285.775764 
L 112.120909 286.171201 
L 112.537029 286.647153 
L 112.745089 286.616177 
L 113.057179 286.262856 
L 113.681359 285.495539 
L 113.889419 285.499608 
L 114.201509 285.80598 
L 114.617629 287.017574 
L 115.241809 288.688129 
L 115.761959 289.489515 
L 116.178079 289.783689 
L 117.32241 290.245469 
L 118.05062 290.354961 
L 118.25868 290.086216 
L 118.6748 289.024024 
L 118.98689 287.587158 
L 119.40301 284.358067 
L 119.92316 278.107026 
L 120.85943 266.46966 
L 121.37958 262.939942 
L 122.31585 258.46949 
L 122.41988 258.307998 
L 122.627941 258.514917 
L 122.731971 258.913157 
L 122.940031 261.983291 
L 123.876301 279.36693 
L 124.084361 281.466982 
L 124.188391 281.227823 
L 124.396451 278.564079 
L 125.332721 262.014356 
L 125.540781 261.413242 
L 125.644811 261.575374 
L 125.852871 262.625218 
L 126.268991 266.581642 
L 127.725411 282.43991 
L 128.349591 286.389337 
L 128.869742 288.243563 
L 129.389892 289.263008 
L 129.910042 289.812795 
L 130.326162 290.06211 
L 130.430192 290.030376 
L 130.742282 289.34247 
L 131.366462 286.979 
L 131.990642 284.82664 
L 132.302732 284.204944 
L 132.510792 284.089976 
L 132.718852 284.278118 
L 132.926912 284.668022 
L 133.447062 286.646344 
L 133.967212 288.297457 
L 134.487362 289.278103 
L 135.007513 289.81856 
L 135.215573 289.85653 
L 135.527663 289.096805 
L 136.671993 285.532997 
L 136.880053 285.6041 
L 137.192143 286.207401 
L 137.920353 287.836969 
L 139.376773 289.855441 
L 139.584833 289.982597 
L 139.688863 289.871178 
L 140.000953 288.515449 
L 140.937223 283.276134 
L 141.041253 283.115139 
L 141.145283 283.251113 
L 141.457374 284.55195 
L 142.185584 287.681062 
L 142.705734 288.94026 
L 143.017824 289.352789 
L 143.225884 289.112688 
L 143.537974 288.296873 
L 144.474244 285.319842 
L 144.682304 285.144354 
L 144.890364 285.211896 
L 145.202454 285.657959 
L 146.034694 287.078626 
L 146.450814 287.406227 
L 146.658874 287.472569 
L 146.970964 288.004724 
L 147.699175 289.299503 
L 148.219325 289.821755 
L 148.843505 290.140358 
L 149.467685 290.026644 
L 150.299925 289.694894 
L 151.860375 289.081069 
L 152.172465 289.212483 
L 153.316795 290.06286 
L 154.149036 290.303944 
L 155.501426 290.417983 
L 155.917546 290.287842 
L 157.686056 289.524931 
L 158.310236 289.600108 
L 159.038446 289.980972 
L 159.870686 290.267227 
L 161.119047 290.406479 
L 161.743227 290.345315 
L 162.471437 290.169938 
L 166.632638 290.42572 
L 167.880998 290.351216 
L 169.233388 289.303325 
L 169.649508 289.446431 
L 170.897868 290.068067 
L 171.834138 290.315567 
L 173.290559 290.423786 
L 173.498619 290.380523 
L 173.810709 289.887633 
L 174.226829 288.736955 
L 175.787279 283.533031 
L 175.995339 283.438069 
L 176.203399 283.527762 
L 176.515489 283.93664 
L 177.139669 285.29171 
L 177.451759 286.199619 
L 178.179969 288.446313 
L 178.70012 289.356522 
L 179.22027 289.860298 
L 179.3243 289.898142 
L 179.42833 289.763135 
L 179.94848 287.840603 
L 180.3646 286.526631 
L 180.57266 286.255203 
L 180.67669 286.287251 
L 180.98878 286.985133 
L 181.71699 288.807744 
L 182.02908 289.183759 
L 182.23714 288.606038 
L 182.54923 286.454717 
L 183.58953 276.736009 
L 183.69356 276.625519 
L 183.79759 276.737205 
L 184.00565 277.531917 
L 184.31774 279.765817 
L 185.045951 285.395646 
L 185.566101 287.692256 
L 186.086251 288.964885 
L 186.606401 289.652423 
L 187.126551 289.990651 
L 187.854761 290.232089 
L 188.478941 290.199148 
L 188.999091 290.210089 
L 190.767601 290.412214 
L 194.096562 290.441185 
L 197.113432 290.199087 
L 199.610153 290.430548 
L 200.754483 290.354229 
L 201.690753 290.298856 
L 203.667324 290.430615 
L 208.244644 290.41453 
L 208.868824 290.380744 
L 211.261515 290.377553 
L 212.301815 290.405297 
L 214.798535 290.419943 
L 216.046895 290.23704 
L 217.711376 290.413743 
L 218.127496 290.381731 
L 218.439586 289.747402 
L 218.855706 288.233583 
L 219.583916 285.518911 
L 219.896006 285.176895 
L 220.104066 285.284567 
L 220.520186 285.994505 
L 221.040336 287.518105 
L 221.664516 288.977846 
L 222.184666 289.650871 
L 222.808847 290.061817 
L 223.016907 289.907313 
L 223.745117 289.143809 
L 224.161237 289.016669 
L 224.577357 289.110173 
L 227.282137 290.307643 
L 228.530497 290.397495 
L 228.946618 290.047302 
L 229.674828 289.406826 
L 230.090948 289.339703 
L 230.923188 289.329089 
L 231.651398 289.153661 
L 233.315878 290.215999 
L 234.356178 290.380011 
L 234.564238 290.247272 
L 234.980359 289.525969 
L 235.812599 287.844435 
L 236.124689 287.751633 
L 236.436779 287.945911 
L 237.164989 288.499105 
L 237.373049 288.609333 
L 238.725439 289.983542 
L 239.349619 290.183958 
L 239.557679 289.812109 
L 239.973799 288.606286 
L 240.910069 285.695312 
L 241.22216 285.457628 
L 241.53425 285.734848 
L 241.95037 286.983587 
L 242.57455 288.674185 
L 243.0947 289.482353 
L 243.61485 289.928221 
L 243.71888 289.973783 
L 243.82291 289.87803 
L 244.135 288.897583 
L 244.96724 285.591111 
L 245.1753 285.336472 
L 245.38336 285.364471 
L 246.31963 286.076223 
L 246.52769 285.834738 
L 246.83978 285.041278 
L 247.567991 282.725451 
L 247.776051 283.415324 
L 248.816351 287.997231 
L 248.920381 288.144446 
L 249.024411 287.821996 
L 249.544561 283.615076 
L 250.064711 280.093549 
L 250.376801 279.04814 
L 250.584861 278.767171 
L 250.792921 278.899545 
L 250.896951 278.957127 
L 251.000981 279.18692 
L 251.313071 281.240383 
L 252.041281 286.132232 
L 252.561431 288.09684 
L 252.769491 288.352565 
L 253.601732 288.355984 
L 253.809792 287.902744 
L 254.225912 286.170714 
L 254.746062 284.144991 
L 255.058152 283.757874 
L 255.370242 283.815183 
L 255.682332 284.954801 
L 256.410542 287.853828 
L 256.930692 289.033091 
L 257.034722 289.07499 
L 257.242782 287.578436 
L 257.554872 282.713274 
L 258.491142 264.447767 
L 258.699202 263.199785 
L 258.803232 263.053695 
L 258.907262 263.190017 
L 259.115322 264.178228 
L 259.427412 267.041979 
L 260.675773 280.518267 
L 261.091893 281.781 
L 261.299953 282.534596 
L 262.340253 287.682784 
L 262.860403 288.948867 
L 262.964433 289.028267 
L 264.004733 288.221403 
L 264.524883 287.964682 
L 264.941003 287.360074 
L 265.773243 285.967359 
L 266.085334 285.777368 
L 266.501454 285.830905 
L 266.813544 286.656158 
L 267.541754 288.665792 
L 268.061904 289.476437 
L 268.165934 289.504622 
L 268.373994 288.370449 
L 268.686084 284.574295 
L 269.726384 268.418248 
L 269.830414 268.401145 
L 270.038474 269.553319 
L 270.454594 274.69956 
L 270.870714 279.262886 
L 271.078774 280.112656 
L 271.182804 280.105478 
L 271.390864 279.319 
L 272.223105 274.388282 
L 272.327135 274.516571 
L 272.535195 275.4482 
L 273.055345 279.896106 
L 273.679525 284.461723 
L 274.199675 287.082902 
L 274.719825 288.620935 
L 275.239975 289.465889 
L 275.552065 289.746714 
L 275.760125 289.6251 
L 276.488335 288.880447 
L 276.800425 288.271393 
L 277.320575 286.531443 
L 277.736695 285.390127 
L 277.944755 285.290464 
L 278.152815 285.520689 
L 278.672966 287.210568 
L 279.193116 288.616918 
L 279.609236 289.279118 
L 279.713266 289.250909 
L 279.921326 288.816542 
L 280.129386 287.759852 
L 280.441476 284.863825 
L 281.169686 276.801575 
L 281.377746 276.067906 
L 281.481776 276.037248 
L 281.689836 277.212594 
L 282.730136 285.795172 
L 283.042226 287.148339 
L 283.146256 287.201145 
L 283.354316 286.711095 
L 283.874466 285.003298 
L 284.082526 285.363818 
L 285.018797 288.323532 
L 285.122827 288.191419 
L 285.538947 286.153557 
L 285.851037 284.98737 
L 286.059097 284.92671 
L 286.579247 285.569019 
L 286.787307 284.583968 
L 286.995367 282.103584 
L 287.411487 273.051396 
L 287.931637 261.898651 
L 288.139697 260.221086 
L 288.243727 260.158575 
L 288.451787 261.418989 
L 288.867907 267.253419 
L 289.284027 272.723213 
L 289.492087 273.958297 
L 289.596117 274.077091 
L 289.700147 273.84742 
L 289.908207 272.452493 
L 290.636417 265.61717 
L 290.740447 265.66273 
L 290.948508 267.98591 
L 291.884778 281.666879 
L 292.196868 284.285935 
L 292.300898 284.561886 
L 292.508958 283.961973 
L 292.925078 281.500712 
L 293.341198 279.621991 
L 293.549258 279.442731 
L 293.757318 279.687344 
L 294.381498 280.800085 
L 294.693588 280.870106 
L 295.525828 280.603705 
L 295.733888 279.78823 
L 295.941948 277.971022 
L 296.254038 273.024664 
L 296.878218 261.388638 
L 297.086278 260.11292 
L 297.190309 260.514763 
L 297.502399 265.736877 
L 298.230609 278.801501 
L 298.438669 280.909391 
L 298.646729 281.31006 
L 299.166879 281.740601 
L 299.478969 282.786669 
L 300.311209 285.787598 
L 301.039419 288.267723 
L 301.559569 289.260308 
L 301.663599 289.322145 
L 301.871659 288.655383 
L 302.807929 284.306859 
L 303.015989 284.267068 
L 303.43211 284.489395 
L 303.64017 284.207473 
L 303.84823 283.416412 
L 304.16032 281.148786 
L 304.57644 276.182515 
L 305.72077 260.860142 
L 305.8248 260.764739 
L 305.92883 260.963405 
L 306.03286 261.459706 
L 306.24092 264.315396 
L 307.17719 280.288385 
L 307.59331 284.044969 
L 307.9054 284.631084 
L 308.11346 284.493066 
L 308.42555 283.777101 
L 309.04973 282.22492 
L 309.25779 282.871075 
L 310.298091 287.775093 
L 310.402121 287.905475 
L 310.610181 286.880881 
L 311.026301 282.903945 
L 311.650481 277.299597 
L 312.586751 271.07221 
L 312.794811 270.770193 
L 312.898841 270.996692 
L 313.106901 272.236112 
L 313.523021 276.870346 
L 313.939141 281.027966 
L 314.147201 281.728468 
L 314.251231 281.621368 
L 314.459291 280.503267 
L 314.875411 275.832242 
L 315.291531 271.741055 
L 315.499591 271.219283 
L 315.603621 271.354514 
L 315.811681 273.101002 
L 316.747952 283.648784 
L 317.268102 286.75182 
L 317.476162 287.34728 
L 317.684222 287.405026 
L 317.892282 287.281346 
L 318.308402 286.654051 
L 319.244672 284.582685 
L 319.972882 283.190198 
L 320.284972 283.033707 
L 320.493032 283.147333 
L 320.805122 283.595223 
L 324.030053 289.604006 
L 324.654233 290.046105 
L 325.382443 290.279496 
L 325.902593 290.27271 
L 326.630803 290.198666 
L 328.399314 290.408754 
L 328.711404 290.275425 
L 330.167824 289.128281 
L 331.312154 288.129696 
L 331.520214 288.233689 
L 332.976634 289.949582 
L 333.704844 290.238318 
L 334.745145 290.386663 
L 335.057235 290.338905 
L 335.473355 289.993864 
L 335.889475 289.296183 
L 336.305595 288.07606 
L 337.553955 283.524093 
L 337.762015 283.452548 
L 338.074105 283.696175 
L 338.802315 284.406902 
L 339.634555 285.088139 
L 340.154705 285.477069 
L 340.362765 285.503311 
L 340.674855 286.356568 
L 341.403066 288.51668 
L 341.923216 289.394537 
L 342.027246 289.325056 
L 342.339336 287.350157 
L 343.171576 280.997151 
L 343.483666 280.004376 
L 343.795756 279.713126 
L 344.003816 279.772985 
L 344.315906 280.103246 
L 344.836056 281.048639 
L 345.772326 283.342987 
L 347.436807 287.395542 
L 348.373077 289.087 
L 348.893227 289.696161 
L 349.517407 290.088882 
L 350.349647 290.314953 
L 351.285917 290.353006 
L 354.614878 289.182562 
L 355.655178 289.278739 
L 356.383388 289.481999 
L 357.423688 290.117861 
L 358.255928 290.324261 
L 359.296228 290.382269 
L 359.816379 289.982889 
L 360.336529 289.235263 
L 360.856679 288.016571 
L 361.480859 285.887951 
L 362.417129 281.709516 
L 363.665489 275.084627 
L 364.185639 272.552602 
L 364.393699 272.17892 
L 364.601759 272.30782 
L 364.809819 273.655963 
L 365.95415 285.174974 
L 366.37027 287.07498 
L 366.78639 286.978275 
L 367.09848 287.016419 
L 367.41057 287.344457 
L 367.82669 288.083845 
L 368.5549 289.354767 
L 369.07505 289.853225 
L 369.49117 290.08476 
L 369.69923 289.936333 
L 370.01132 289.254773 
L 370.42744 287.578242 
L 371.46774 282.470957 
L 371.6758 282.167577 
L 371.88386 282.239516 
L 372.195951 282.908458 
L 372.508041 284.119831 
L 373.236251 287.426228 
L 373.756401 288.797395 
L 374.276551 289.552789 
L 374.900731 289.869347 
L 375.732971 290.213698 
L 376.565211 290.345358 
L 377.189391 290.289312 
L 379.582082 290.432223 
L 382.598952 290.427494 
L 382.911042 290.095913 
L 383.951342 288.67815 
L 384.263432 288.66375 
L 384.575523 288.941294 
L 385.407763 289.808482 
L 386.031943 290.140164 
L 386.760153 290.305839 
L 386.968213 290.07544 
L 388.216573 288.217581 
L 388.528663 288.195044 
L 389.672993 288.544119 
L 390.089113 289.030326 
L 390.817324 289.800497 
L 391.441504 290.13704 
L 392.377774 290.345938 
L 393.314044 290.354795 
L 394.666434 289.873794 
L 397.475245 290.419114 
L 397.891365 290.353329 
L 399.659875 289.227539 
L 400.388085 289.791849 
L 401.116295 290.162364 
L 401.324355 290.22444 
L 401.428385 289.947611 
L 401.740475 286.850904 
L 402.156595 278.736808 
L 402.988835 261.007398 
L 403.300926 258.884047 
L 403.404956 258.847794 
L 403.613016 259.589845 
L 404.029136 263.07576 
L 406.213766 283.899239 
L 406.733916 286.868686 
L 407.254066 288.520603 
L 407.670186 289.276999 
L 407.774216 289.30786 
L 407.982276 288.890147 
L 408.398396 287.270824 
L 408.814516 285.884489 
L 409.022576 285.722606 
L 409.230636 286.172932 
L 410.166907 288.779194 
L 410.687057 289.540669 
L 410.999147 289.754233 
L 412.455567 289.214551 
L 412.975717 289.400613 
L 414.328107 290.185265 
L 414.744227 290.243196 
L 415.264377 290.055729 
L 417.240948 290.279948 
L 418.385278 287.306412 
L 418.593338 287.408821 
L 419.425578 288.228568 
L 419.633638 287.946228 
L 419.945728 286.947321 
L 421.506178 280.522715 
L 422.234389 278.853199 
L 422.546479 278.529434 
L 422.650509 278.522516 
L 422.858569 279.511573 
L 423.898869 286.609244 
L 424.419019 288.366859 
L 424.627079 288.71192 
L 425.043199 288.749542 
L 425.459319 288.499978 
L 425.875439 288.044986 
L 426.187529 287.322263 
L 426.603649 285.520301 
L 427.227829 282.816905 
L 427.435889 282.570992 
L 427.643949 282.742211 
L 427.956039 283.597463 
L 428.47619 285.852122 
L 429.10037 288.126014 
L 429.41246 288.788272 
L 429.51649 288.814175 
L 429.82858 288.413203 
L 430.03664 288.56182 
L 431.18097 289.854222 
L 431.285 289.922199 
L 431.285 289.922199 
" clip-path="url(#p338834bcc8)" style="fill: none; stroke: #2ca02c; stroke-width: 0.5; stroke-linecap: square"/>
   </g>
   <g id="patch_3">
    <path d="M 38.27 303.64 
L 38.27 25.44 
" style="fill: none; stroke: #000000; stroke-width: 0.8; stroke-linejoin: miter; stroke-linecap: square"/>
   </g>
   <g id="patch_4">
    <path d="M 450 303.64 
L 450 25.44 
" style="fill: none; stroke: #000000; stroke-width: 0.8; stroke-linejoin: miter; stroke-linecap: square"/>
   </g>
   <g id="patch_5">
    <path d="M 38.27 303.64 
L 450 303.64 
" style="fill: none; stroke: #000000; stroke-width: 0.8; stroke-linejoin: miter; stroke-linecap: square"/>
   </g>
   <g id="patch_6">
    <path d="M 38.27 25.44 
L 450 25.44 
" style="fill: none; stroke: #000000; stroke-width: 0.8; stroke-linejoin: miter; stroke-linecap: square"/>
   </g>
   <g id="text_17">
    <!-- data_10_E4 Separated EDA plot -->
    <g transform="translate(148.762188 19.44) scale(0.12 -0.12)">
     <defs>
      <path id="DejaVuSans-5f" d="M 3263 -1063 
L 3263 -1509 
L -63 -1509 
L -63 -1063 
L 3263 -1063 
z
" transform="scale(0.015625)"/>
      <path id="DejaVuSans-70" d="M 1159 525 
L 1159 -1331 
L 581 -1331 
L 581 3500 
L 1159 3500 
L 1159 2969 
Q 1341 3281 1617 3432 
Q 1894 3584 2278 3584 
Q 2916 3584 3314 3078 
Q 3713 2572 3713 1747 
Q 3713 922 3314 415 
Q 2916 -91 2278 -91 
Q 1894 -91 1617 61 
Q 1341 213 1159 525 
z
M 3116 1747 
Q 3116 2381 2855 2742 
Q 2594 3103 2138 3103 
Q 1681 3103 1420 2742 
Q 1159 2381 1159 1747 
Q 1159 1113 1420 752 
Q 1681 391 2138 391 
Q 2594 391 2855 752 
Q 3116 1113 3116 1747 
z
" transform="scale(0.015625)"/>
      <path id="DejaVuSans-6f" d="M 1959 3097 
Q 1497 3097 1228 2736 
Q 959 2375 959 1747 
Q 959 1119 1226 758 
Q 1494 397 1959 397 
Q 2419 397 2687 759 
Q 2956 1122 2956 1747 
Q 2956 2369 2687 2733 
Q 2419 3097 1959 3097 
z
M 1959 3584 
Q 2709 3584 3137 3096 
Q 3566 2609 3566 1747 
Q 3566 888 3137 398 
Q 2709 -91 1959 -91 
Q 1206 -91 779 398 
Q 353 888 353 1747 
Q 353 2609 779 3096 
Q 1206 3584 1959 3584 
z
" transform="scale(0.015625)"/>
     </defs>
     <use xlink:href="#DejaVuSans-64"/>
     <use xlink:href="#DejaVuSans-61" transform="translate(63.476562 0)"/>
     <use xlink:href="#DejaVuSans-74" transform="translate(124.755859 0)"/>
     <use xlink:href="#DejaVuSans-61" transform="translate(163.964844 0)"/>
     <use xlink:href="#DejaVuSans-5f" transform="translate(225.244141 0)"/>
     <use xlink:href="#DejaVuSans-31" transform="translate(275.244141 0)"/>
     <use xlink:href="#DejaVuSans-30" transform="translate(338.867188 0)"/>
     <use xlink:href="#DejaVuSans-5f" transform="translate(402.490234 0)"/>
     <use xlink:href="#DejaVuSans-45" transform="translate(452.490234 0)"/>
     <use xlink:href="#DejaVuSans-34" transform="translate(515.673828 0)"/>
     <use xlink:href="#DejaVuSans-20" transform="translate(579.296875 0)"/>
     <use xlink:href="#DejaVuSans-53" transform="translate(611.083984 0)"/>
     <use xlink:href="#DejaVuSans-65" transform="translate(674.560547 0)"/>
     <use xlink:href="#DejaVuSans-70" transform="translate(736.083984 0)"/>
     <use xlink:href="#DejaVuSans-61" transform="translate(799.560547 0)"/>
     <use xlink:href="#DejaVuSans-72" transform="translate(860.839844 0)"/>
     <use xlink:href="#DejaVuSans-61" transform="translate(901.953125 0)"/>
     <use xlink:href="#DejaVuSans-74" transform="translate(963.232422 0)"/>
     <use xlink:href="#DejaVuSans-65" transform="translate(1002.441406 0)"/>
     <use xlink:href="#DejaVuSans-64" transform="translate(1063.964844 0)"/>
     <use xlink:href="#DejaVuSans-20" transform="translate(1127.441406 0)"/>
     <use xlink:href="#DejaVuSans-45" transform="translate(1159.228516 0)"/>
     <use xlink:href="#DejaVuSans-44" transform="translate(1222.412109 0)"/>
     <use xlink:href="#DejaVuSans-41" transform="translate(1297.664062 0)"/>
     <use xlink:href="#DejaVuSans-20" transform="translate(1366.072266 0)"/>
     <use xlink:href="#DejaVuSans-70" transform="translate(1397.859375 0)"/>
     <use xlink:href="#DejaVuSans-6c" transform="translate(1461.335938 0)"/>
     <use xlink:href="#DejaVuSans-6f" transform="translate(1489.119141 0)"/>
     <use xlink:href="#DejaVuSans-74" transform="translate(1550.300781 0)"/>
    </g>
   </g>
   <g id="legend_1">
    <g id="patch_7">
     <path d="M 45.27 77.474375 
L 138.17625 77.474375 
Q 140.17625 77.474375 140.17625 75.474375 
L 140.17625 32.44 
Q 140.17625 30.44 138.17625 30.44 
L 45.27 30.44 
Q 43.27 30.44 43.27 32.44 
L 43.27 75.474375 
Q 43.27 77.474375 45.27 77.474375 
z
" style="fill: #ffffff; opacity: 0.8; stroke: #cccccc; stroke-linejoin: miter"/>
    </g>
    <g id="line2d_32">
     <path d="M 47.27 38.538437 
L 57.27 38.538437 
L 67.27 38.538437 
" style="fill: none; stroke-dasharray: 1.85,0.8; stroke-dashoffset: 0; stroke: #1f77b4; stroke-width: 0.5"/>
    </g>
    <g id="text_18">
     <!-- Filtered EDA -->
     <g transform="translate(75.27 42.038437) scale(0.1 -0.1)">
      <defs>
       <path id="DejaVuSans-46" d="M 628 4666 
L 3309 4666 
L 3309 4134 
L 1259 4134 
L 1259 2759 
L 3109 2759 
L 3109 2228 
L 1259 2228 
L 1259 0 
L 628 0 
L 628 4666 
z
" transform="scale(0.015625)"/>
      </defs>
      <use xlink:href="#DejaVuSans-46"/>
      <use xlink:href="#DejaVuSans-69" transform="translate(50.269531 0)"/>
      <use xlink:href="#DejaVuSans-6c" transform="translate(78.052734 0)"/>
      <use xlink:href="#DejaVuSans-74" transform="translate(105.835938 0)"/>
      <use xlink:href="#DejaVuSans-65" transform="translate(145.044922 0)"/>
      <use xlink:href="#DejaVuSans-72" transform="translate(206.568359 0)"/>
      <use xlink:href="#DejaVuSans-65" transform="translate(245.431641 0)"/>
      <use xlink:href="#DejaVuSans-64" transform="translate(306.955078 0)"/>
      <use xlink:href="#DejaVuSans-20" transform="translate(370.431641 0)"/>
      <use xlink:href="#DejaVuSans-45" transform="translate(402.21875 0)"/>
      <use xlink:href="#DejaVuSans-44" transform="translate(465.402344 0)"/>
      <use xlink:href="#DejaVuSans-41" transform="translate(540.654297 0)"/>
     </g>
    </g>
    <g id="line2d_33">
     <path d="M 47.27 53.216562 
L 57.27 53.216562 
L 67.27 53.216562 
" style="fill: none; stroke: #ff7f0e; stroke-width: 0.5; stroke-linecap: square"/>
    </g>
    <g id="text_19">
     <!-- Tonic -->
     <g transform="translate(75.27 56.716562) scale(0.1 -0.1)">
      <defs>
       <path id="DejaVuSans-63" d="M 3122 3366 
L 3122 2828 
Q 2878 2963 2633 3030 
Q 2388 3097 2138 3097 
Q 1578 3097 1268 2742 
Q 959 2388 959 1747 
Q 959 1106 1268 751 
Q 1578 397 2138 397 
Q 2388 397 2633 464 
Q 2878 531 3122 666 
L 3122 134 
Q 2881 22 2623 -34 
Q 2366 -91 2075 -91 
Q 1284 -91 818 406 
Q 353 903 353 1747 
Q 353 2603 823 3093 
Q 1294 3584 2113 3584 
Q 2378 3584 2631 3529 
Q 2884 3475 3122 3366 
z
" transform="scale(0.015625)"/>
      </defs>
      <use xlink:href="#DejaVuSans-54"/>
      <use xlink:href="#DejaVuSans-6f" transform="translate(44.083984 0)"/>
      <use xlink:href="#DejaVuSans-6e" transform="translate(105.265625 0)"/>
      <use xlink:href="#DejaVuSans-69" transform="translate(168.644531 0)"/>
      <use xlink:href="#DejaVuSans-63" transform="translate(196.427734 0)"/>
     </g>
    </g>
    <g id="line2d_34">
     <path d="M 47.27 67.894687 
L 57.27 67.894687 
L 67.27 67.894687 
" style="fill: none; stroke: #2ca02c; stroke-width: 0.5; stroke-linecap: square"/>
    </g>
    <g id="text_20">
     <!-- Phasic -->
     <g transform="translate(75.27 71.394687) scale(0.1 -0.1)">
      <defs>
       <path id="DejaVuSans-50" d="M 1259 4147 
L 1259 2394 
L 2053 2394 
Q 2494 2394 2734 2622 
Q 2975 2850 2975 3272 
Q 2975 3691 2734 3919 
Q 2494 4147 2053 4147 
L 1259 4147 
z
M 628 4666 
L 2053 4666 
Q 2838 4666 3239 4311 
Q 3641 3956 3641 3272 
Q 3641 2581 3239 2228 
Q 2838 1875 2053 1875 
L 1259 1875 
L 1259 0 
L 628 0 
L 628 4666 
z
" transform="scale(0.015625)"/>
       <path id="DejaVuSans-68" d="M 3513 2113 
L 3513 0 
L 2938 0 
L 2938 2094 
Q 2938 2591 2744 2837 
Q 2550 3084 2163 3084 
Q 1697 3084 1428 2787 
Q 1159 2491 1159 1978 
L 1159 0 
L 581 0 
L 581 4863 
L 1159 4863 
L 1159 2956 
Q 1366 3272 1645 3428 
Q 1925 3584 2291 3584 
Q 2894 3584 3203 3211 
Q 3513 2838 3513 2113 
z
" transform="scale(0.015625)"/>
      </defs>
      <use xlink:href="#DejaVuSans-50"/>
      <use xlink:href="#DejaVuSans-68" transform="translate(60.302734 0)"/>
      <use xlink:href="#DejaVuSans-61" transform="translate(123.681641 0)"/>
      <use xlink:href="#DejaVuSans-73" transform="translate(184.960938 0)"/>
      <use xlink:href="#DejaVuSans-69" transform="translate(237.060547 0)"/>
      <use xlink:href="#DejaVuSans-63" transform="translate(264.84375 0)"/>
     </g>
    </g>
   </g>
  </g>
 </g>
 <defs>
  <clipPath id="p338834bcc8">
   <rect x="38.27" y="25.44" width="411.73" height="278.2"/>
  </clipPath>
 </defs>
</svg>
