<?xml version="1.0" encoding="utf-8" standalone="no"?>
<!DOCTYPE svg PUBLIC "-//W3C//DTD SVG 1.1//EN"
  "http://www.w3.org/Graphics/SVG/1.1/DTD/svg11.dtd">
<svg xmlns:xlink="http://www.w3.org/1999/xlink" width="460.8pt" height="345.6pt" viewBox="0 0 460.8 345.6" xmlns="http://www.w3.org/2000/svg" version="1.1">
 <metadata>
  <rdf:RDF xmlns:dc="http://purl.org/dc/elements/1.1/" xmlns:cc="http://creativecommons.org/ns#" xmlns:rdf="http://www.w3.org/1999/02/22-rdf-syntax-ns#">
   <cc:Work>
    <dc:type rdf:resource="http://purl.org/dc/dcmitype/StillImage"/>
    <dc:date>2025-09-22T14:18:44.313700</dc:date>
    <dc:format>image/svg+xml</dc:format>
    <dc:creator>
     <cc:Agent>
      <dc:title>Matplotlib v3.10.0, https://matplotlib.org/</dc:title>
     </cc:Agent>
    </dc:creator>
   </cc:Work>
  </rdf:RDF>
 </metadata>
 <defs>
  <style type="text/css">*{stroke-linejoin: round; stroke-linecap: butt}</style>
 </defs>
 <g id="figure_1">
  <g id="patch_1">
   <path d="M 0 345.6 
L 460.8 345.6 
L 460.8 0 
L 0 0 
z
" style="fill: #ffffff"/>
  </g>
  <g id="axes_1">
   <g id="patch_2">
    <path d="M 38.27 303.64 
L 450 303.64 
L 450 25.44 
L 38.27 25.44 
z
" style="fill: #ffffff"/>
   </g>
   <g id="matplotlib.axis_1">
    <g id="xtick_1">
     <g id="line2d_1">
      <path d="M 56.985 303.64 
L 56.985 25.44 
" clip-path="url(#p54ededb483)" style="fill: none; stroke: #b0b0b0; stroke-opacity: 0.3; stroke-width: 0.8; stroke-linecap: square"/>
     </g>
     <g id="line2d_2">
      <defs>
       <path id="m36f761ef59" d="M 0 0 
L 0 3.5 
" style="stroke: #000000; stroke-width: 0.8"/>
      </defs>
      <g>
       <use xlink:href="#m36f761ef59" x="56.985" y="303.64" style="stroke: #000000; stroke-width: 0.8"/>
      </g>
     </g>
     <g id="text_1">
      <!-- 0 -->
      <g transform="translate(53.80375 318.238437) scale(0.1 -0.1)">
       <defs>
        <path id="DejaVuSans-30" d="M 2034 4250 
Q 1547 4250 1301 3770 
Q 1056 3291 1056 2328 
Q 1056 1369 1301 889 
Q 1547 409 2034 409 
Q 2525 409 2770 889 
Q 3016 1369 3016 2328 
Q 3016 3291 2770 3770 
Q 2525 4250 2034 4250 
z
M 2034 4750 
Q 2819 4750 3233 4129 
Q 3647 3509 3647 2328 
Q 3647 1150 3233 529 
Q 2819 -91 2034 -91 
Q 1250 -91 836 529 
Q 422 1150 422 2328 
Q 422 3509 836 4129 
Q 1250 4750 2034 4750 
z
" transform="scale(0.015625)"/>
       </defs>
       <use xlink:href="#DejaVuSans-30"/>
      </g>
     </g>
    </g>
    <g id="xtick_2">
     <g id="line2d_3">
      <path d="M 106.891667 303.64 
L 106.891667 25.44 
" clip-path="url(#p54ededb483)" style="fill: none; stroke: #b0b0b0; stroke-opacity: 0.3; stroke-width: 0.8; stroke-linecap: square"/>
     </g>
     <g id="line2d_4">
      <g>
       <use xlink:href="#m36f761ef59" x="106.891667" y="303.64" style="stroke: #000000; stroke-width: 0.8"/>
      </g>
     </g>
     <g id="text_2">
      <!-- 2 -->
      <g transform="translate(103.710417 318.238437) scale(0.1 -0.1)">
       <defs>
        <path id="DejaVuSans-32" d="M 1228 531 
L 3431 531 
L 3431 0 
L 469 0 
L 469 531 
Q 828 903 1448 1529 
Q 2069 2156 2228 2338 
Q 2531 2678 2651 2914 
Q 2772 3150 2772 3378 
Q 2772 3750 2511 3984 
Q 2250 4219 1831 4219 
Q 1534 4219 1204 4116 
Q 875 4013 500 3803 
L 500 4441 
Q 881 4594 1212 4672 
Q 1544 4750 1819 4750 
Q 2544 4750 2975 4387 
Q 3406 4025 3406 3419 
Q 3406 3131 3298 2873 
Q 3191 2616 2906 2266 
Q 2828 2175 2409 1742 
Q 1991 1309 1228 531 
z
" transform="scale(0.015625)"/>
       </defs>
       <use xlink:href="#DejaVuSans-32"/>
      </g>
     </g>
    </g>
    <g id="xtick_3">
     <g id="line2d_5">
      <path d="M 156.798333 303.64 
L 156.798333 25.44 
" clip-path="url(#p54ededb483)" style="fill: none; stroke: #b0b0b0; stroke-opacity: 0.3; stroke-width: 0.8; stroke-linecap: square"/>
     </g>
     <g id="line2d_6">
      <g>
       <use xlink:href="#m36f761ef59" x="156.798333" y="303.64" style="stroke: #000000; stroke-width: 0.8"/>
      </g>
     </g>
     <g id="text_3">
      <!-- 4 -->
      <g transform="translate(153.617083 318.238437) scale(0.1 -0.1)">
       <defs>
        <path id="DejaVuSans-34" d="M 2419 4116 
L 825 1625 
L 2419 1625 
L 2419 4116 
z
M 2253 4666 
L 3047 4666 
L 3047 1625 
L 3713 1625 
L 3713 1100 
L 3047 1100 
L 3047 0 
L 2419 0 
L 2419 1100 
L 313 1100 
L 313 1709 
L 2253 4666 
z
" transform="scale(0.015625)"/>
       </defs>
       <use xlink:href="#DejaVuSans-34"/>
      </g>
     </g>
    </g>
    <g id="xtick_4">
     <g id="line2d_7">
      <path d="M 206.705 303.64 
L 206.705 25.44 
" clip-path="url(#p54ededb483)" style="fill: none; stroke: #b0b0b0; stroke-opacity: 0.3; stroke-width: 0.8; stroke-linecap: square"/>
     </g>
     <g id="line2d_8">
      <g>
       <use xlink:href="#m36f761ef59" x="206.705" y="303.64" style="stroke: #000000; stroke-width: 0.8"/>
      </g>
     </g>
     <g id="text_4">
      <!-- 6 -->
      <g transform="translate(203.52375 318.238437) scale(0.1 -0.1)">
       <defs>
        <path id="DejaVuSans-36" d="M 2113 2584 
Q 1688 2584 1439 2293 
Q 1191 2003 1191 1497 
Q 1191 994 1439 701 
Q 1688 409 2113 409 
Q 2538 409 2786 701 
Q 3034 994 3034 1497 
Q 3034 2003 2786 2293 
Q 2538 2584 2113 2584 
z
M 3366 4563 
L 3366 3988 
Q 3128 4100 2886 4159 
Q 2644 4219 2406 4219 
Q 1781 4219 1451 3797 
Q 1122 3375 1075 2522 
Q 1259 2794 1537 2939 
Q 1816 3084 2150 3084 
Q 2853 3084 3261 2657 
Q 3669 2231 3669 1497 
Q 3669 778 3244 343 
Q 2819 -91 2113 -91 
Q 1303 -91 875 529 
Q 447 1150 447 2328 
Q 447 3434 972 4092 
Q 1497 4750 2381 4750 
Q 2619 4750 2861 4703 
Q 3103 4656 3366 4563 
z
" transform="scale(0.015625)"/>
       </defs>
       <use xlink:href="#DejaVuSans-36"/>
      </g>
     </g>
    </g>
    <g id="xtick_5">
     <g id="line2d_9">
      <path d="M 256.611667 303.64 
L 256.611667 25.44 
" clip-path="url(#p54ededb483)" style="fill: none; stroke: #b0b0b0; stroke-opacity: 0.3; stroke-width: 0.8; stroke-linecap: square"/>
     </g>
     <g id="line2d_10">
      <g>
       <use xlink:href="#m36f761ef59" x="256.611667" y="303.64" style="stroke: #000000; stroke-width: 0.8"/>
      </g>
     </g>
     <g id="text_5">
      <!-- 8 -->
      <g transform="translate(253.430417 318.238437) scale(0.1 -0.1)">
       <defs>
        <path id="DejaVuSans-38" d="M 2034 2216 
Q 1584 2216 1326 1975 
Q 1069 1734 1069 1313 
Q 1069 891 1326 650 
Q 1584 409 2034 409 
Q 2484 409 2743 651 
Q 3003 894 3003 1313 
Q 3003 1734 2745 1975 
Q 2488 2216 2034 2216 
z
M 1403 2484 
Q 997 2584 770 2862 
Q 544 3141 544 3541 
Q 544 4100 942 4425 
Q 1341 4750 2034 4750 
Q 2731 4750 3128 4425 
Q 3525 4100 3525 3541 
Q 3525 3141 3298 2862 
Q 3072 2584 2669 2484 
Q 3125 2378 3379 2068 
Q 3634 1759 3634 1313 
Q 3634 634 3220 271 
Q 2806 -91 2034 -91 
Q 1263 -91 848 271 
Q 434 634 434 1313 
Q 434 1759 690 2068 
Q 947 2378 1403 2484 
z
M 1172 3481 
Q 1172 3119 1398 2916 
Q 1625 2713 2034 2713 
Q 2441 2713 2670 2916 
Q 2900 3119 2900 3481 
Q 2900 3844 2670 4047 
Q 2441 4250 2034 4250 
Q 1625 4250 1398 4047 
Q 1172 3844 1172 3481 
z
" transform="scale(0.015625)"/>
       </defs>
       <use xlink:href="#DejaVuSans-38"/>
      </g>
     </g>
    </g>
    <g id="xtick_6">
     <g id="line2d_11">
      <path d="M 306.518333 303.64 
L 306.518333 25.44 
" clip-path="url(#p54ededb483)" style="fill: none; stroke: #b0b0b0; stroke-opacity: 0.3; stroke-width: 0.8; stroke-linecap: square"/>
     </g>
     <g id="line2d_12">
      <g>
       <use xlink:href="#m36f761ef59" x="306.518333" y="303.64" style="stroke: #000000; stroke-width: 0.8"/>
      </g>
     </g>
     <g id="text_6">
      <!-- 10 -->
      <g transform="translate(300.155833 318.238437) scale(0.1 -0.1)">
       <defs>
        <path id="DejaVuSans-31" d="M 794 531 
L 1825 531 
L 1825 4091 
L 703 3866 
L 703 4441 
L 1819 4666 
L 2450 4666 
L 2450 531 
L 3481 531 
L 3481 0 
L 794 0 
L 794 531 
z
" transform="scale(0.015625)"/>
       </defs>
       <use xlink:href="#DejaVuSans-31"/>
       <use xlink:href="#DejaVuSans-30" transform="translate(63.623047 0)"/>
      </g>
     </g>
    </g>
    <g id="xtick_7">
     <g id="line2d_13">
      <path d="M 356.425 303.64 
L 356.425 25.44 
" clip-path="url(#p54ededb483)" style="fill: none; stroke: #b0b0b0; stroke-opacity: 0.3; stroke-width: 0.8; stroke-linecap: square"/>
     </g>
     <g id="line2d_14">
      <g>
       <use xlink:href="#m36f761ef59" x="356.425" y="303.64" style="stroke: #000000; stroke-width: 0.8"/>
      </g>
     </g>
     <g id="text_7">
      <!-- 12 -->
      <g transform="translate(350.0625 318.238437) scale(0.1 -0.1)">
       <use xlink:href="#DejaVuSans-31"/>
       <use xlink:href="#DejaVuSans-32" transform="translate(63.623047 0)"/>
      </g>
     </g>
    </g>
    <g id="xtick_8">
     <g id="line2d_15">
      <path d="M 406.331667 303.64 
L 406.331667 25.44 
" clip-path="url(#p54ededb483)" style="fill: none; stroke: #b0b0b0; stroke-opacity: 0.3; stroke-width: 0.8; stroke-linecap: square"/>
     </g>
     <g id="line2d_16">
      <g>
       <use xlink:href="#m36f761ef59" x="406.331667" y="303.64" style="stroke: #000000; stroke-width: 0.8"/>
      </g>
     </g>
     <g id="text_8">
      <!-- 14 -->
      <g transform="translate(399.969167 318.238437) scale(0.1 -0.1)">
       <use xlink:href="#DejaVuSans-31"/>
       <use xlink:href="#DejaVuSans-34" transform="translate(63.623047 0)"/>
      </g>
     </g>
    </g>
    <g id="text_9">
     <!-- Time (minutes) -->
     <g transform="translate(206.1725 331.916562) scale(0.1 -0.1)">
      <defs>
       <path id="DejaVuSans-54" d="M -19 4666 
L 3928 4666 
L 3928 4134 
L 2272 4134 
L 2272 0 
L 1638 0 
L 1638 4134 
L -19 4134 
L -19 4666 
z
" transform="scale(0.015625)"/>
       <path id="DejaVuSans-69" d="M 603 3500 
L 1178 3500 
L 1178 0 
L 603 0 
L 603 3500 
z
M 603 4863 
L 1178 4863 
L 1178 4134 
L 603 4134 
L 603 4863 
z
" transform="scale(0.015625)"/>
       <path id="DejaVuSans-6d" d="M 3328 2828 
Q 3544 3216 3844 3400 
Q 4144 3584 4550 3584 
Q 5097 3584 5394 3201 
Q 5691 2819 5691 2113 
L 5691 0 
L 5113 0 
L 5113 2094 
Q 5113 2597 4934 2840 
Q 4756 3084 4391 3084 
Q 3944 3084 3684 2787 
Q 3425 2491 3425 1978 
L 3425 0 
L 2847 0 
L 2847 2094 
Q 2847 2600 2669 2842 
Q 2491 3084 2119 3084 
Q 1678 3084 1418 2786 
Q 1159 2488 1159 1978 
L 1159 0 
L 581 0 
L 581 3500 
L 1159 3500 
L 1159 2956 
Q 1356 3278 1631 3431 
Q 1906 3584 2284 3584 
Q 2666 3584 2933 3390 
Q 3200 3197 3328 2828 
z
" transform="scale(0.015625)"/>
       <path id="DejaVuSans-65" d="M 3597 1894 
L 3597 1613 
L 953 1613 
Q 991 1019 1311 708 
Q 1631 397 2203 397 
Q 2534 397 2845 478 
Q 3156 559 3463 722 
L 3463 178 
Q 3153 47 2828 -22 
Q 2503 -91 2169 -91 
Q 1331 -91 842 396 
Q 353 884 353 1716 
Q 353 2575 817 3079 
Q 1281 3584 2069 3584 
Q 2775 3584 3186 3129 
Q 3597 2675 3597 1894 
z
M 3022 2063 
Q 3016 2534 2758 2815 
Q 2500 3097 2075 3097 
Q 1594 3097 1305 2825 
Q 1016 2553 972 2059 
L 3022 2063 
z
" transform="scale(0.015625)"/>
       <path id="DejaVuSans-20" transform="scale(0.015625)"/>
       <path id="DejaVuSans-28" d="M 1984 4856 
Q 1566 4138 1362 3434 
Q 1159 2731 1159 2009 
Q 1159 1288 1364 580 
Q 1569 -128 1984 -844 
L 1484 -844 
Q 1016 -109 783 600 
Q 550 1309 550 2009 
Q 550 2706 781 3412 
Q 1013 4119 1484 4856 
L 1984 4856 
z
" transform="scale(0.015625)"/>
       <path id="DejaVuSans-6e" d="M 3513 2113 
L 3513 0 
L 2938 0 
L 2938 2094 
Q 2938 2591 2744 2837 
Q 2550 3084 2163 3084 
Q 1697 3084 1428 2787 
Q 1159 2491 1159 1978 
L 1159 0 
L 581 0 
L 581 3500 
L 1159 3500 
L 1159 2956 
Q 1366 3272 1645 3428 
Q 1925 3584 2291 3584 
Q 2894 3584 3203 3211 
Q 3513 2838 3513 2113 
z
" transform="scale(0.015625)"/>
       <path id="DejaVuSans-75" d="M 544 1381 
L 544 3500 
L 1119 3500 
L 1119 1403 
Q 1119 906 1312 657 
Q 1506 409 1894 409 
Q 2359 409 2629 706 
Q 2900 1003 2900 1516 
L 2900 3500 
L 3475 3500 
L 3475 0 
L 2900 0 
L 2900 538 
Q 2691 219 2414 64 
Q 2138 -91 1772 -91 
Q 1169 -91 856 284 
Q 544 659 544 1381 
z
M 1991 3584 
L 1991 3584 
z
" transform="scale(0.015625)"/>
       <path id="DejaVuSans-74" d="M 1172 4494 
L 1172 3500 
L 2356 3500 
L 2356 3053 
L 1172 3053 
L 1172 1153 
Q 1172 725 1289 603 
Q 1406 481 1766 481 
L 2356 481 
L 2356 0 
L 1766 0 
Q 1100 0 847 248 
Q 594 497 594 1153 
L 594 3053 
L 172 3053 
L 172 3500 
L 594 3500 
L 594 4494 
L 1172 4494 
z
" transform="scale(0.015625)"/>
       <path id="DejaVuSans-73" d="M 2834 3397 
L 2834 2853 
Q 2591 2978 2328 3040 
Q 2066 3103 1784 3103 
Q 1356 3103 1142 2972 
Q 928 2841 928 2578 
Q 928 2378 1081 2264 
Q 1234 2150 1697 2047 
L 1894 2003 
Q 2506 1872 2764 1633 
Q 3022 1394 3022 966 
Q 3022 478 2636 193 
Q 2250 -91 1575 -91 
Q 1294 -91 989 -36 
Q 684 19 347 128 
L 347 722 
Q 666 556 975 473 
Q 1284 391 1588 391 
Q 1994 391 2212 530 
Q 2431 669 2431 922 
Q 2431 1156 2273 1281 
Q 2116 1406 1581 1522 
L 1381 1569 
Q 847 1681 609 1914 
Q 372 2147 372 2553 
Q 372 3047 722 3315 
Q 1072 3584 1716 3584 
Q 2034 3584 2315 3537 
Q 2597 3491 2834 3397 
z
" transform="scale(0.015625)"/>
       <path id="DejaVuSans-29" d="M 513 4856 
L 1013 4856 
Q 1481 4119 1714 3412 
Q 1947 2706 1947 2009 
Q 1947 1309 1714 600 
Q 1481 -109 1013 -844 
L 513 -844 
Q 928 -128 1133 580 
Q 1338 1288 1338 2009 
Q 1338 2731 1133 3434 
Q 928 4138 513 4856 
z
" transform="scale(0.015625)"/>
      </defs>
      <use xlink:href="#DejaVuSans-54"/>
      <use xlink:href="#DejaVuSans-69" transform="translate(57.958984 0)"/>
      <use xlink:href="#DejaVuSans-6d" transform="translate(85.742188 0)"/>
      <use xlink:href="#DejaVuSans-65" transform="translate(183.154297 0)"/>
      <use xlink:href="#DejaVuSans-20" transform="translate(244.677734 0)"/>
      <use xlink:href="#DejaVuSans-28" transform="translate(276.464844 0)"/>
      <use xlink:href="#DejaVuSans-6d" transform="translate(315.478516 0)"/>
      <use xlink:href="#DejaVuSans-69" transform="translate(412.890625 0)"/>
      <use xlink:href="#DejaVuSans-6e" transform="translate(440.673828 0)"/>
      <use xlink:href="#DejaVuSans-75" transform="translate(504.052734 0)"/>
      <use xlink:href="#DejaVuSans-74" transform="translate(567.431641 0)"/>
      <use xlink:href="#DejaVuSans-65" transform="translate(606.640625 0)"/>
      <use xlink:href="#DejaVuSans-73" transform="translate(668.164062 0)"/>
      <use xlink:href="#DejaVuSans-29" transform="translate(720.263672 0)"/>
     </g>
    </g>
   </g>
   <g id="matplotlib.axis_2">
    <g id="ytick_1">
     <g id="line2d_17">
      <path d="M 38.27 289.94338 
L 450 289.94338 
" clip-path="url(#p54ededb483)" style="fill: none; stroke: #b0b0b0; stroke-opacity: 0.3; stroke-width: 0.8; stroke-linecap: square"/>
     </g>
     <g id="line2d_18">
      <defs>
       <path id="ma1105082a7" d="M 0 0 
L -3.5 0 
" style="stroke: #000000; stroke-width: 0.8"/>
      </defs>
      <g>
       <use xlink:href="#ma1105082a7" x="38.27" y="289.94338" style="stroke: #000000; stroke-width: 0.8"/>
      </g>
     </g>
     <g id="text_10">
      <!-- 0 -->
      <g transform="translate(24.9075 293.742599) scale(0.1 -0.1)">
       <use xlink:href="#DejaVuSans-30"/>
      </g>
     </g>
    </g>
    <g id="ytick_2">
     <g id="line2d_19">
      <path d="M 38.27 243.457586 
L 450 243.457586 
" clip-path="url(#p54ededb483)" style="fill: none; stroke: #b0b0b0; stroke-opacity: 0.3; stroke-width: 0.8; stroke-linecap: square"/>
     </g>
     <g id="line2d_20">
      <g>
       <use xlink:href="#ma1105082a7" x="38.27" y="243.457586" style="stroke: #000000; stroke-width: 0.8"/>
      </g>
     </g>
     <g id="text_11">
      <!-- 1 -->
      <g transform="translate(24.9075 247.256805) scale(0.1 -0.1)">
       <use xlink:href="#DejaVuSans-31"/>
      </g>
     </g>
    </g>
    <g id="ytick_3">
     <g id="line2d_21">
      <path d="M 38.27 196.971792 
L 450 196.971792 
" clip-path="url(#p54ededb483)" style="fill: none; stroke: #b0b0b0; stroke-opacity: 0.3; stroke-width: 0.8; stroke-linecap: square"/>
     </g>
     <g id="line2d_22">
      <g>
       <use xlink:href="#ma1105082a7" x="38.27" y="196.971792" style="stroke: #000000; stroke-width: 0.8"/>
      </g>
     </g>
     <g id="text_12">
      <!-- 2 -->
      <g transform="translate(24.9075 200.771011) scale(0.1 -0.1)">
       <use xlink:href="#DejaVuSans-32"/>
      </g>
     </g>
    </g>
    <g id="ytick_4">
     <g id="line2d_23">
      <path d="M 38.27 150.485998 
L 450 150.485998 
" clip-path="url(#p54ededb483)" style="fill: none; stroke: #b0b0b0; stroke-opacity: 0.3; stroke-width: 0.8; stroke-linecap: square"/>
     </g>
     <g id="line2d_24">
      <g>
       <use xlink:href="#ma1105082a7" x="38.27" y="150.485998" style="stroke: #000000; stroke-width: 0.8"/>
      </g>
     </g>
     <g id="text_13">
      <!-- 3 -->
      <g transform="translate(24.9075 154.285217) scale(0.1 -0.1)">
       <defs>
        <path id="DejaVuSans-33" d="M 2597 2516 
Q 3050 2419 3304 2112 
Q 3559 1806 3559 1356 
Q 3559 666 3084 287 
Q 2609 -91 1734 -91 
Q 1441 -91 1130 -33 
Q 819 25 488 141 
L 488 750 
Q 750 597 1062 519 
Q 1375 441 1716 441 
Q 2309 441 2620 675 
Q 2931 909 2931 1356 
Q 2931 1769 2642 2001 
Q 2353 2234 1838 2234 
L 1294 2234 
L 1294 2753 
L 1863 2753 
Q 2328 2753 2575 2939 
Q 2822 3125 2822 3475 
Q 2822 3834 2567 4026 
Q 2313 4219 1838 4219 
Q 1578 4219 1281 4162 
Q 984 4106 628 3988 
L 628 4550 
Q 988 4650 1302 4700 
Q 1616 4750 1894 4750 
Q 2613 4750 3031 4423 
Q 3450 4097 3450 3541 
Q 3450 3153 3228 2886 
Q 3006 2619 2597 2516 
z
" transform="scale(0.015625)"/>
       </defs>
       <use xlink:href="#DejaVuSans-33"/>
      </g>
     </g>
    </g>
    <g id="ytick_5">
     <g id="line2d_25">
      <path d="M 38.27 104.000204 
L 450 104.000204 
" clip-path="url(#p54ededb483)" style="fill: none; stroke: #b0b0b0; stroke-opacity: 0.3; stroke-width: 0.8; stroke-linecap: square"/>
     </g>
     <g id="line2d_26">
      <g>
       <use xlink:href="#ma1105082a7" x="38.27" y="104.000204" style="stroke: #000000; stroke-width: 0.8"/>
      </g>
     </g>
     <g id="text_14">
      <!-- 4 -->
      <g transform="translate(24.9075 107.799423) scale(0.1 -0.1)">
       <use xlink:href="#DejaVuSans-34"/>
      </g>
     </g>
    </g>
    <g id="ytick_6">
     <g id="line2d_27">
      <path d="M 38.27 57.51441 
L 450 57.51441 
" clip-path="url(#p54ededb483)" style="fill: none; stroke: #b0b0b0; stroke-opacity: 0.3; stroke-width: 0.8; stroke-linecap: square"/>
     </g>
     <g id="line2d_28">
      <g>
       <use xlink:href="#ma1105082a7" x="38.27" y="57.51441" style="stroke: #000000; stroke-width: 0.8"/>
      </g>
     </g>
     <g id="text_15">
      <!-- 5 -->
      <g transform="translate(24.9075 61.313629) scale(0.1 -0.1)">
       <defs>
        <path id="DejaVuSans-35" d="M 691 4666 
L 3169 4666 
L 3169 4134 
L 1269 4134 
L 1269 2991 
Q 1406 3038 1543 3061 
Q 1681 3084 1819 3084 
Q 2600 3084 3056 2656 
Q 3513 2228 3513 1497 
Q 3513 744 3044 326 
Q 2575 -91 1722 -91 
Q 1428 -91 1123 -41 
Q 819 9 494 109 
L 494 744 
Q 775 591 1075 516 
Q 1375 441 1709 441 
Q 2250 441 2565 725 
Q 2881 1009 2881 1497 
Q 2881 1984 2565 2268 
Q 2250 2553 1709 2553 
Q 1456 2553 1204 2497 
Q 953 2441 691 2322 
L 691 4666 
z
" transform="scale(0.015625)"/>
       </defs>
       <use xlink:href="#DejaVuSans-35"/>
      </g>
     </g>
    </g>
    <g id="text_16">
     <!-- Gaussian filtered EDA (μS) -->
     <g transform="translate(18.827813 230.613437) rotate(-90) scale(0.1 -0.1)">
      <defs>
       <path id="DejaVuSans-47" d="M 3809 666 
L 3809 1919 
L 2778 1919 
L 2778 2438 
L 4434 2438 
L 4434 434 
Q 4069 175 3628 42 
Q 3188 -91 2688 -91 
Q 1594 -91 976 548 
Q 359 1188 359 2328 
Q 359 3472 976 4111 
Q 1594 4750 2688 4750 
Q 3144 4750 3555 4637 
Q 3966 4525 4313 4306 
L 4313 3634 
Q 3963 3931 3569 4081 
Q 3175 4231 2741 4231 
Q 1884 4231 1454 3753 
Q 1025 3275 1025 2328 
Q 1025 1384 1454 906 
Q 1884 428 2741 428 
Q 3075 428 3337 486 
Q 3600 544 3809 666 
z
" transform="scale(0.015625)"/>
       <path id="DejaVuSans-61" d="M 2194 1759 
Q 1497 1759 1228 1600 
Q 959 1441 959 1056 
Q 959 750 1161 570 
Q 1363 391 1709 391 
Q 2188 391 2477 730 
Q 2766 1069 2766 1631 
L 2766 1759 
L 2194 1759 
z
M 3341 1997 
L 3341 0 
L 2766 0 
L 2766 531 
Q 2569 213 2275 61 
Q 1981 -91 1556 -91 
Q 1019 -91 701 211 
Q 384 513 384 1019 
Q 384 1609 779 1909 
Q 1175 2209 1959 2209 
L 2766 2209 
L 2766 2266 
Q 2766 2663 2505 2880 
Q 2244 3097 1772 3097 
Q 1472 3097 1187 3025 
Q 903 2953 641 2809 
L 641 3341 
Q 956 3463 1253 3523 
Q 1550 3584 1831 3584 
Q 2591 3584 2966 3190 
Q 3341 2797 3341 1997 
z
" transform="scale(0.015625)"/>
       <path id="DejaVuSans-66" d="M 2375 4863 
L 2375 4384 
L 1825 4384 
Q 1516 4384 1395 4259 
Q 1275 4134 1275 3809 
L 1275 3500 
L 2222 3500 
L 2222 3053 
L 1275 3053 
L 1275 0 
L 697 0 
L 697 3053 
L 147 3053 
L 147 3500 
L 697 3500 
L 697 3744 
Q 697 4328 969 4595 
Q 1241 4863 1831 4863 
L 2375 4863 
z
" transform="scale(0.015625)"/>
       <path id="DejaVuSans-6c" d="M 603 4863 
L 1178 4863 
L 1178 0 
L 603 0 
L 603 4863 
z
" transform="scale(0.015625)"/>
       <path id="DejaVuSans-72" d="M 2631 2963 
Q 2534 3019 2420 3045 
Q 2306 3072 2169 3072 
Q 1681 3072 1420 2755 
Q 1159 2438 1159 1844 
L 1159 0 
L 581 0 
L 581 3500 
L 1159 3500 
L 1159 2956 
Q 1341 3275 1631 3429 
Q 1922 3584 2338 3584 
Q 2397 3584 2469 3576 
Q 2541 3569 2628 3553 
L 2631 2963 
z
" transform="scale(0.015625)"/>
       <path id="DejaVuSans-64" d="M 2906 2969 
L 2906 4863 
L 3481 4863 
L 3481 0 
L 2906 0 
L 2906 525 
Q 2725 213 2448 61 
Q 2172 -91 1784 -91 
Q 1150 -91 751 415 
Q 353 922 353 1747 
Q 353 2572 751 3078 
Q 1150 3584 1784 3584 
Q 2172 3584 2448 3432 
Q 2725 3281 2906 2969 
z
M 947 1747 
Q 947 1113 1208 752 
Q 1469 391 1925 391 
Q 2381 391 2643 752 
Q 2906 1113 2906 1747 
Q 2906 2381 2643 2742 
Q 2381 3103 1925 3103 
Q 1469 3103 1208 2742 
Q 947 2381 947 1747 
z
" transform="scale(0.015625)"/>
       <path id="DejaVuSans-45" d="M 628 4666 
L 3578 4666 
L 3578 4134 
L 1259 4134 
L 1259 2753 
L 3481 2753 
L 3481 2222 
L 1259 2222 
L 1259 531 
L 3634 531 
L 3634 0 
L 628 0 
L 628 4666 
z
" transform="scale(0.015625)"/>
       <path id="DejaVuSans-44" d="M 1259 4147 
L 1259 519 
L 2022 519 
Q 2988 519 3436 956 
Q 3884 1394 3884 2338 
Q 3884 3275 3436 3711 
Q 2988 4147 2022 4147 
L 1259 4147 
z
M 628 4666 
L 1925 4666 
Q 3281 4666 3915 4102 
Q 4550 3538 4550 2338 
Q 4550 1131 3912 565 
Q 3275 0 1925 0 
L 628 0 
L 628 4666 
z
" transform="scale(0.015625)"/>
       <path id="DejaVuSans-41" d="M 2188 4044 
L 1331 1722 
L 3047 1722 
L 2188 4044 
z
M 1831 4666 
L 2547 4666 
L 4325 0 
L 3669 0 
L 3244 1197 
L 1141 1197 
L 716 0 
L 50 0 
L 1831 4666 
z
" transform="scale(0.015625)"/>
       <path id="DejaVuSans-3bc" d="M 544 -1331 
L 544 3500 
L 1119 3500 
L 1119 1325 
Q 1119 872 1334 640 
Q 1550 409 1972 409 
Q 2434 409 2667 671 
Q 2900 934 2900 1459 
L 2900 3500 
L 3475 3500 
L 3475 806 
Q 3475 619 3529 530 
Q 3584 441 3700 441 
Q 3728 441 3778 458 
Q 3828 475 3916 513 
L 3916 50 
Q 3788 -22 3673 -56 
Q 3559 -91 3450 -91 
Q 3234 -91 3106 31 
Q 2978 153 2931 403 
Q 2775 156 2548 32 
Q 2322 -91 2016 -91 
Q 1697 -91 1473 31 
Q 1250 153 1119 397 
L 1119 -1331 
L 544 -1331 
z
" transform="scale(0.015625)"/>
       <path id="DejaVuSans-53" d="M 3425 4513 
L 3425 3897 
Q 3066 4069 2747 4153 
Q 2428 4238 2131 4238 
Q 1616 4238 1336 4038 
Q 1056 3838 1056 3469 
Q 1056 3159 1242 3001 
Q 1428 2844 1947 2747 
L 2328 2669 
Q 3034 2534 3370 2195 
Q 3706 1856 3706 1288 
Q 3706 609 3251 259 
Q 2797 -91 1919 -91 
Q 1588 -91 1214 -16 
Q 841 59 441 206 
L 441 856 
Q 825 641 1194 531 
Q 1563 422 1919 422 
Q 2459 422 2753 634 
Q 3047 847 3047 1241 
Q 3047 1584 2836 1778 
Q 2625 1972 2144 2069 
L 1759 2144 
Q 1053 2284 737 2584 
Q 422 2884 422 3419 
Q 422 4038 858 4394 
Q 1294 4750 2059 4750 
Q 2388 4750 2728 4690 
Q 3069 4631 3425 4513 
z
" transform="scale(0.015625)"/>
      </defs>
      <use xlink:href="#DejaVuSans-47"/>
      <use xlink:href="#DejaVuSans-61" transform="translate(77.490234 0)"/>
      <use xlink:href="#DejaVuSans-75" transform="translate(138.769531 0)"/>
      <use xlink:href="#DejaVuSans-73" transform="translate(202.148438 0)"/>
      <use xlink:href="#DejaVuSans-73" transform="translate(254.248047 0)"/>
      <use xlink:href="#DejaVuSans-69" transform="translate(306.347656 0)"/>
      <use xlink:href="#DejaVuSans-61" transform="translate(334.130859 0)"/>
      <use xlink:href="#DejaVuSans-6e" transform="translate(395.410156 0)"/>
      <use xlink:href="#DejaVuSans-20" transform="translate(458.789062 0)"/>
      <use xlink:href="#DejaVuSans-66" transform="translate(490.576172 0)"/>
      <use xlink:href="#DejaVuSans-69" transform="translate(525.78125 0)"/>
      <use xlink:href="#DejaVuSans-6c" transform="translate(553.564453 0)"/>
      <use xlink:href="#DejaVuSans-74" transform="translate(581.347656 0)"/>
      <use xlink:href="#DejaVuSans-65" transform="translate(620.556641 0)"/>
      <use xlink:href="#DejaVuSans-72" transform="translate(682.080078 0)"/>
      <use xlink:href="#DejaVuSans-65" transform="translate(720.943359 0)"/>
      <use xlink:href="#DejaVuSans-64" transform="translate(782.466797 0)"/>
      <use xlink:href="#DejaVuSans-20" transform="translate(845.943359 0)"/>
      <use xlink:href="#DejaVuSans-45" transform="translate(877.730469 0)"/>
      <use xlink:href="#DejaVuSans-44" transform="translate(940.914062 0)"/>
      <use xlink:href="#DejaVuSans-41" transform="translate(1016.166016 0)"/>
      <use xlink:href="#DejaVuSans-20" transform="translate(1084.574219 0)"/>
      <use xlink:href="#DejaVuSans-28" transform="translate(1116.361328 0)"/>
      <use xlink:href="#DejaVuSans-3bc" transform="translate(1155.375 0)"/>
      <use xlink:href="#DejaVuSans-53" transform="translate(1218.998047 0)"/>
      <use xlink:href="#DejaVuSans-29" transform="translate(1282.474609 0)"/>
     </g>
    </g>
   </g>
   <g id="line2d_29">
    <path d="M 56.985 228.556104 
L 57.29709 228.61048 
L 57.50515 228.921562 
L 57.92127 229.65769 
L 58.12933 229.5755 
L 58.54545 229.204861 
L 58.85754 229.220175 
L 60.209931 229.759817 
L 60.522021 229.935989 
L 61.146201 229.890583 
L 61.354261 230.365457 
L 61.666351 231.432597 
L 61.770381 231.506809 
L 61.978441 231.197619 
L 62.290531 230.788591 
L 62.602621 230.756425 
L 62.810681 230.947361 
L 63.226801 231.583972 
L 63.434861 231.038087 
L 63.746951 230.136833 
L 63.955011 230.018253 
L 64.163071 230.084439 
L 64.371131 230.355148 
L 64.787251 231.234889 
L 64.891281 231.098311 
L 65.515461 229.489705 
L 65.931581 229.451463 
L 66.971882 229.667429 
L 67.388002 229.9067 
L 67.700092 230.534647 
L 68.012182 231.014699 
L 68.220242 230.827594 
L 68.532332 230.605004 
L 68.844422 230.678161 
L 69.052482 230.370946 
L 69.260542 230.026247 
L 69.364572 230.023964 
L 69.572632 230.425131 
L 69.884722 231.140212 
L 70.092782 231.191974 
L 70.404872 231.100159 
L 70.716962 231.355841 
L 71.029052 231.555935 
L 71.341142 231.423813 
L 71.757262 231.274296 
L 72.485472 231.358757 
L 72.693533 231.523563 
L 73.109653 232.375755 
L 73.421743 232.91332 
L 73.629803 232.949439 
L 73.837863 232.614099 
L 74.253983 231.921822 
L 74.462043 231.952475 
L 74.878163 232.158146 
L 75.086223 232.064752 
L 75.398313 231.605489 
L 75.814433 230.991229 
L 76.022493 231.065973 
L 76.542643 231.812012 
L 77.166823 231.44614 
L 77.478913 231.729041 
L 78.103093 232.660718 
L 78.727273 232.89049 
L 78.935334 232.84782 
L 79.351454 232.603221 
L 80.183694 233.545515 
L 82.472354 234.104038 
L 84.240864 234.264739 
L 84.761014 234.253757 
L 88.298035 234.752401 
L 89.026245 234.866672 
L 89.754455 234.936115 
L 90.066545 234.815524 
L 90.482665 234.562579 
L 90.690725 234.504852 
L 90.898785 234.183886 
L 91.314906 233.304484 
L 91.522966 233.272049 
L 91.835056 233.639338 
L 92.355206 234.422117 
L 92.563266 233.852166 
L 93.395506 230.560828 
L 93.499536 230.511244 
L 93.603566 230.614317 
L 93.811626 231.367545 
L 94.331776 234.034894 
L 94.539836 234.118528 
L 94.851926 234.013643 
L 95.164016 234.360357 
L 95.372076 234.449742 
L 95.684166 234.242679 
L 95.788196 234.407525 
L 96.100286 235.917538 
L 96.412376 236.995954 
L 96.516406 237.033297 
L 96.724466 236.719546 
L 96.932526 235.854755 
L 97.660737 231.884797 
L 97.972827 231.772005 
L 98.388947 231.817652 
L 98.597007 232.185748 
L 99.429247 234.71247 
L 99.637307 234.528152 
L 100.053427 234.023878 
L 100.573577 233.963251 
L 100.781637 233.050607 
L 101.301787 229.687443 
L 101.613877 229.11687 
L 101.821937 229.110738 
L 102.029997 229.356282 
L 102.342087 230.275765 
L 103.070297 233.648885 
L 103.694477 237.216808 
L 104.214628 240.43883 
L 104.318658 240.292669 
L 104.526718 238.185895 
L 104.942838 232.311015 
L 105.150898 231.608025 
L 105.358958 231.086701 
L 106.399258 226.209834 
L 106.711348 225.940202 
L 107.127468 225.864079 
L 107.647618 225.898972 
L 108.063738 225.597708 
L 108.583888 225.208649 
L 108.791948 225.427116 
L 109.208068 226.052917 
L 109.416128 226.04199 
L 109.624188 226.062938 
L 109.832248 226.875301 
L 110.040309 229.026443 
L 110.560459 235.152269 
L 110.664489 234.425439 
L 111.392699 223.489571 
L 111.600759 223.213004 
L 111.808819 223.508786 
L 112.016879 224.34318 
L 112.328969 225.791148 
L 112.432999 225.718994 
L 112.641059 224.562788 
L 113.057179 222.145295 
L 113.369269 220.631118 
L 113.785389 218.320995 
L 114.097479 217.794135 
L 114.409569 217.73818 
L 114.721659 217.956642 
L 115.033749 218.086589 
L 115.553899 217.856001 
L 115.761959 217.838613 
L 115.970019 217.447266 
L 116.178079 216.292573 
L 116.69823 212.912403 
L 116.80226 213.058686 
L 117.21838 214.627008 
L 117.32241 214.662297 
L 117.6345 214.30025 
L 117.94659 213.546103 
L 118.25868 212.74948 
L 118.36271 212.848287 
L 118.6748 213.673806 
L 118.77883 213.652937 
L 119.40301 212.073158 
L 119.7151 210.058358 
L 120.23525 205.04932 
L 120.65137 201.729055 
L 120.85943 201.555735 
L 121.06749 201.93921 
L 121.27555 202.595157 
L 121.48361 203.913793 
L 121.89973 207.169938 
L 122.00376 206.801694 
L 122.523911 203.241523 
L 122.627941 203.336184 
L 122.836001 204.295585 
L 123.044061 206.364572 
L 123.252121 211.205587 
L 123.564211 228.773255 
L 123.876301 241.672073 
L 123.980331 241.932463 
L 124.188391 240.904323 
L 124.292421 239.362335 
L 124.500481 229.360427 
L 124.916601 201.494684 
L 125.124661 198.2647 
L 125.228691 198.143264 
L 125.436751 198.247451 
L 125.644811 197.666247 
L 125.956901 196.453985 
L 126.060931 196.433103 
L 126.268991 197.175739 
L 126.893171 200.414806 
L 127.413321 201.464282 
L 128.349591 202.7998 
L 128.973772 203.286064 
L 129.389892 203.362015 
L 129.597952 203.374792 
L 129.806012 203.68415 
L 130.118102 205.094924 
L 130.326162 205.886636 
L 130.430192 205.972764 
L 130.638252 205.567321 
L 131.574522 202.308354 
L 131.990642 202.110107 
L 132.198702 201.523178 
L 132.614822 199.901955 
L 132.718852 200.091096 
L 132.926912 201.652582 
L 133.343032 204.862761 
L 133.655122 205.358262 
L 133.863182 205.642405 
L 134.175272 206.662266 
L 134.487362 207.604054 
L 135.111543 208.411925 
L 135.215573 208.298299 
L 135.423633 207.427951 
L 136.776023 199.412375 
L 136.880053 199.627824 
L 137.504233 203.253275 
L 137.712293 203.265377 
L 138.024383 202.90009 
L 138.440503 202.40457 
L 138.752593 202.3053 
L 138.960653 202.468851 
L 139.168713 203.246792 
L 139.584833 205.9037 
L 139.688863 205.436383 
L 141.041253 191.408986 
L 141.145283 191.749494 
L 141.457374 195.288153 
L 141.769464 198.321241 
L 142.081554 199.327953 
L 143.121854 200.751192 
L 143.329914 200.423226 
L 143.537974 199.496585 
L 144.266184 195.199907 
L 144.578274 194.760267 
L 144.786334 194.709342 
L 144.994394 195.048158 
L 145.410514 197.002821 
L 145.722604 197.961178 
L 146.034694 198.322556 
L 146.554844 198.358908 
L 146.866934 199.092349 
L 146.970964 199.04166 
L 147.179024 198.740246 
L 147.283054 198.848769 
L 147.491115 199.924689 
L 147.907235 202.51667 
L 148.115295 202.98221 
L 148.219325 203.017764 
L 148.427385 202.726378 
L 148.843505 201.48594 
L 148.947535 201.545229 
L 149.363655 203.165439 
L 149.467685 203.041845 
L 149.779775 202.134493 
L 149.987835 202.159704 
L 150.403955 202.312706 
L 150.820075 202.351185 
L 151.132165 202.06444 
L 151.548285 201.656014 
L 151.756345 201.700478 
L 152.276495 202.294521 
L 153.316795 203.471961 
L 153.940976 203.97007 
L 154.877246 204.532489 
L 155.501426 204.643589 
L 156.437696 204.411682 
L 157.477996 203.867638 
L 157.894116 203.838542 
L 159.454566 204.247534 
L 161.223077 204.675675 
L 161.535167 204.612514 
L 162.159347 204.329744 
L 162.575467 204.503084 
L 164.343977 205.53117 
L 164.864127 205.400749 
L 165.280247 205.420681 
L 166.736668 206.004143 
L 167.152788 206.025613 
L 168.193088 205.588419 
L 169.025328 204.13283 
L 169.337418 204.28407 
L 170.481748 205.231414 
L 170.897868 205.243609 
L 171.313988 205.253842 
L 173.186529 205.938583 
L 173.498619 205.843879 
L 173.810709 205.325924 
L 174.226829 204.264575 
L 174.642949 202.049859 
L 175.475189 197.764073 
L 175.787279 196.955806 
L 175.995339 196.785681 
L 176.307429 196.881895 
L 178.70012 198.448655 
L 179.11624 198.442367 
L 179.3243 198.074189 
L 179.53236 196.950479 
L 179.84445 193.548271 
L 180.26057 188.894029 
L 180.46863 187.994353 
L 180.67669 187.925365 
L 181.19684 188.575279 
L 181.50893 189.146092 
L 182.13311 190.508801 
L 182.23714 190.452093 
L 182.4452 189.692266 
L 182.65326 187.453241 
L 182.96535 180.225185 
L 183.38147 171.064506 
L 183.4855 170.453624 
L 183.58953 170.511027 
L 183.79759 171.953067 
L 184.941921 182.917346 
L 185.462071 185.519479 
L 185.878191 186.629892 
L 186.190281 186.965161 
L 187.126551 187.419235 
L 187.854761 188.028002 
L 188.166851 188.05627 
L 188.895061 187.963397 
L 189.311181 188.321313 
L 189.831331 188.702645 
L 190.351481 188.79054 
L 190.767601 188.885676 
L 192.224022 189.659706 
L 194.304622 190.043245 
L 195.240892 189.948331 
L 196.281192 190.148762 
L 197.633583 190.053143 
L 199.818213 190.885724 
L 201.274633 191.026367 
L 202.418963 191.48852 
L 203.147173 191.908208 
L 203.979414 192.105743 
L 204.811654 192.234995 
L 205.435834 192.454818 
L 206.476134 192.536197 
L 207.412404 192.985353 
L 207.828524 192.981547 
L 208.868824 192.680751 
L 209.388974 192.886531 
L 210.117185 193.20521 
L 210.949425 193.255929 
L 211.781665 193.174119 
L 213.758235 194.08029 
L 215.214655 194.34874 
L 215.838835 194.159928 
L 216.463016 194.419456 
L 218.023466 194.912744 
L 218.231526 194.786784 
L 218.439586 194.356949 
L 218.751676 192.90457 
L 219.271826 188.735008 
L 219.583916 186.760237 
L 219.791976 186.347171 
L 220.000036 186.42162 
L 220.832276 187.254961 
L 222.288696 188.039682 
L 222.496757 187.944922 
L 222.704817 187.529901 
L 223.120937 185.802394 
L 223.537057 184.432359 
L 223.849147 184.16754 
L 224.265267 183.894834 
L 224.681387 183.674263 
L 224.993477 183.85544 
L 225.513627 184.338503 
L 225.825717 184.26322 
L 226.241837 184.076367 
L 226.657957 184.17356 
L 227.802287 184.624359 
L 228.218407 184.253355 
L 228.842588 183.54782 
L 229.362738 182.238561 
L 229.778858 181.463514 
L 230.090948 181.361177 
L 230.715128 181.539236 
L 230.923188 181.213668 
L 231.547368 179.892464 
L 231.755428 179.850501 
L 232.067518 180.218497 
L 232.587668 180.853607 
L 233.003788 180.98554 
L 233.836028 181.072816 
L 234.148118 181.039479 
L 234.668268 181.188122 
L 234.876329 180.860555 
L 235.188419 179.536559 
L 235.708569 177.258449 
L 235.916629 177.083528 
L 236.124689 177.272175 
L 236.748869 178.157591 
L 236.956929 178.160599 
L 237.269019 177.76468 
L 237.685139 177.224143 
L 237.893199 177.22662 
L 238.309319 177.571282 
L 238.933499 178.111507 
L 239.141559 178.014237 
L 239.349619 177.476962 
L 239.765739 175.198689 
L 241.22216 167.210065 
L 241.43022 167.156057 
L 241.63828 167.555371 
L 242.15843 168.886832 
L 242.36649 168.967506 
L 242.78261 168.969649 
L 243.30276 169.408296 
L 243.82291 169.903453 
L 243.92694 169.795101 
L 244.135 168.915436 
L 244.55112 164.731469 
L 244.86321 162.654518 
L 244.96724 162.583975 
L 245.1753 163.165403 
L 246.11157 167.194913 
L 246.63172 168.392891 
L 246.83978 168.492061 
L 247.04784 168.276119 
L 247.359931 167.332664 
L 247.776051 165.733896 
L 247.880081 165.678549 
L 247.984111 166.058668 
L 248.192171 169.531388 
L 248.816351 187.701158 
L 249.024411 184.008487 
L 249.336501 178.090589 
L 249.440531 177.567132 
L 249.544561 177.628964 
L 250.480831 180.982899 
L 251.000981 184.396326 
L 251.313071 187.129111 
L 251.625161 192.567233 
L 252.249341 205.227774 
L 252.353371 205.283515 
L 252.769491 203.71735 
L 252.873521 203.847536 
L 253.081581 205.103616 
L 253.705762 211.600662 
L 253.809792 211.506207 
L 254.017852 209.37588 
L 254.329942 206.366281 
L 254.746062 204.116329 
L 254.850092 204.395013 
L 255.162182 205.592482 
L 255.370242 204.746154 
L 255.682332 203.407133 
L 255.890392 203.289988 
L 256.410542 204.257531 
L 256.618602 203.764081 
L 257.034722 202.483922 
L 257.138752 202.293035 
L 257.242782 201.837313 
L 257.450842 198.396219 
L 257.658902 189.041286 
L 258.283082 153.511886 
L 258.595172 149.974306 
L 259.011292 145.676886 
L 259.323382 142.815568 
L 259.531442 142.345637 
L 259.739503 143.021949 
L 260.363683 146.318064 
L 260.467713 146.022959 
L 260.675773 144.154265 
L 261.299953 135.612134 
L 261.403983 135.305201 
L 261.508013 135.448614 
L 261.716073 136.776185 
L 262.132193 139.809838 
L 262.340253 140.2633 
L 262.444283 140.245619 
L 262.652343 139.733595 
L 263.588613 135.877593 
L 263.900703 135.587743 
L 264.628913 135.210761 
L 264.836973 134.469254 
L 266.813544 123.634346 
L 267.125634 123.014947 
L 267.749814 122.639324 
L 268.061904 121.988672 
L 268.373994 120.784835 
L 268.582054 118.849474 
L 268.790114 114.438163 
L 269.102204 101.202917 
L 269.518324 82.769875 
L 269.726384 80.208398 
L 269.830414 80.765384 
L 270.142504 86.57855 
L 270.558624 94.585047 
L 270.870714 97.344708 
L 271.078774 97.961016 
L 271.182804 97.755152 
L 271.390864 95.411865 
L 271.702954 86.493081 
L 272.015044 78.344894 
L 272.223105 77.096795 
L 272.431165 78.728484 
L 273.159375 87.977792 
L 273.367435 88.538843 
L 273.783555 88.719759 
L 274.095645 89.740991 
L 275.031915 93.474575 
L 275.239975 93.535408 
L 275.448035 93.265257 
L 276.176245 91.949606 
L 276.384305 92.177861 
L 276.696395 92.606141 
L 276.800425 92.58177 
L 277.008485 92.095013 
L 277.216545 90.89062 
L 277.840725 85.845361 
L 277.944755 85.951023 
L 278.256845 87.942042 
L 278.568936 89.419224 
L 278.881026 89.902286 
L 279.297146 89.912747 
L 279.713266 89.688784 
L 280.129386 90.134383 
L 280.233416 89.774702 
L 280.441476 87.18019 
L 280.753566 77.986897 
L 281.169686 66.945559 
L 281.273716 66.279341 
L 281.377746 66.407433 
L 281.585806 68.188242 
L 282.314016 75.664938 
L 282.834166 78.990938 
L 282.938196 79.054617 
L 283.146256 78.108417 
L 283.458346 74.941502 
L 283.874466 67.343944 
L 284.082526 64.506007 
L 284.186556 64.531803 
L 284.394616 67.925793 
L 284.810737 76.603212 
L 284.914767 77.041645 
L 285.018797 76.55601 
L 285.226857 73.004931 
L 285.747007 62.678857 
L 285.851037 62.273438 
L 285.955067 62.412735 
L 286.163127 64.068932 
L 286.475217 69.572653 
L 286.787307 75.539109 
L 286.891337 75.886222 
L 286.995367 74.839352 
L 287.203427 68.950247 
L 288.035667 38.085455 
L 288.139697 38.666787 
L 288.347757 43.800526 
L 289.179997 70.107797 
L 289.596117 77.071249 
L 289.908207 79.529211 
L 290.012237 79.203454 
L 290.220297 74.968698 
L 290.636417 60.976308 
L 290.740447 61.998198 
L 290.948508 71.508767 
L 291.468658 96.86344 
L 291.884778 106.580666 
L 292.300898 111.9463 
L 292.508958 112.574227 
L 292.612988 112.211468 
L 292.925078 109.027277 
L 293.237168 106.488635 
L 293.341198 106.685287 
L 293.549258 108.999909 
L 293.965378 114.593161 
L 294.069408 114.860446 
L 294.173438 114.774396 
L 294.589558 113.500482 
L 294.797618 112.136678 
L 295.421798 106.875967 
L 295.525828 107.227476 
L 295.837918 109.289135 
L 295.941948 108.612226 
L 296.150008 103.257892 
L 296.566128 83.693845 
L 297.086278 58.911197 
L 297.190309 58.461251 
L 297.294339 59.816469 
L 297.502399 66.910573 
L 298.022549 89.218738 
L 298.126579 89.81105 
L 298.230609 88.698296 
L 299.062849 72.137053 
L 299.270909 73.426901 
L 299.582999 76.188586 
L 299.687029 76.418307 
L 299.791059 76.168179 
L 300.311209 73.714241 
L 300.519269 73.632895 
L 300.727329 73.801925 
L 300.935389 74.436935 
L 301.143449 76.078439 
L 301.559569 80.071288 
L 301.663599 80.197804 
L 301.767629 79.840976 
L 301.975689 77.878684 
L 302.495839 71.064464 
L 302.599869 70.778475 
L 302.703899 71.029565 
L 302.911959 72.698684 
L 303.64017 80.462132 
L 303.84823 79.848811 
L 304.26435 78.652151 
L 304.47241 78.194379 
L 304.68047 76.579504 
L 305.8248 61.209919 
L 305.92883 61.113822 
L 306.03286 61.766946 
L 306.24092 66.060274 
L 306.55301 80.846249 
L 306.8651 93.937189 
L 307.07316 96.716576 
L 307.80137 100.333347 
L 308.00943 101.102578 
L 308.11346 101.13982 
L 308.32152 100.653352 
L 309.15376 96.963967 
L 309.46585 95.21855 
L 309.56988 96.092733 
L 310.298091 107.873833 
L 310.402121 107.221082 
L 310.610181 103.801352 
L 311.442421 84.197463 
L 311.754511 82.140628 
L 311.962571 81.772067 
L 312.066601 80.955683 
L 312.274661 76.174566 
L 312.794811 60.862938 
L 312.898841 60.323207 
L 313.002871 60.686675 
L 313.314961 64.853145 
L 313.731081 70.304983 
L 314.043171 71.711283 
L 314.147201 71.672605 
L 314.251231 71.27725 
L 314.459291 68.778711 
L 314.771381 60.044189 
L 315.291531 45.012832 
L 315.395561 44.060768 
L 315.499591 44.078769 
L 315.707651 46.650653 
L 316.643922 64.883194 
L 317.060042 67.674523 
L 317.580192 69.303856 
L 317.996312 69.985643 
L 318.412432 70.207568 
L 319.244672 70.280823 
L 319.452732 70.068262 
L 319.764822 69.193302 
L 320.076912 68.320565 
L 320.284972 68.225777 
L 320.597062 68.650977 
L 321.429302 69.977436 
L 321.741392 70.116176 
L 322.053482 70.008545 
L 322.573633 69.66955 
L 322.885723 69.74661 
L 323.197813 70.056492 
L 323.821993 70.98305 
L 324.134083 70.965558 
L 324.966323 70.640197 
L 325.382443 70.539696 
L 325.798563 70.17385 
L 326.318713 69.641173 
L 327.150953 69.470299 
L 328.399314 69.196826 
L 328.711404 68.653901 
L 329.231554 67.56625 
L 330.687974 65.759705 
L 331.312154 64.272654 
L 331.520214 64.301217 
L 331.728274 64.701308 
L 332.456484 66.629301 
L 333.080664 67.07483 
L 333.496784 67.39007 
L 334.120964 67.475204 
L 334.745145 67.807549 
L 335.161265 67.626518 
L 335.577385 67.281187 
L 335.889475 66.697942 
L 336.513655 64.673898 
L 336.825745 62.497427 
L 337.345895 58.222331 
L 337.553955 57.847025 
L 337.762015 58.205397 
L 338.282165 59.708651 
L 338.490225 59.710901 
L 339.114405 58.807754 
L 339.426495 59.363326 
L 340.050675 60.47324 
L 340.362765 60.672754 
L 340.882916 60.69631 
L 340.986946 60.834851 
L 341.195006 61.887728 
L 341.403066 64.95135 
L 341.819186 71.548852 
L 341.923216 71.388554 
L 342.131276 69.248852 
L 342.859486 59.788187 
L 343.067546 59.027131 
L 343.275606 58.967682 
L 343.587696 59.321539 
L 344.940086 61.498521 
L 346.916656 64.640214 
L 347.644867 65.426131 
L 349.205317 67.261951 
L 350.453677 68.776753 
L 351.077857 69.445997 
L 351.598007 69.959154 
L 352.118157 70.484523 
L 353.574578 72.079205 
L 354.614878 73.299289 
L 356.383388 75.434305 
L 356.799508 75.935931 
L 357.735778 77.16114 
L 358.672048 78.10626 
L 359.088168 78.395376 
L 362.001009 81.701016 
L 363.769519 83.231787 
L 363.977579 82.952006 
L 364.497729 81.760289 
L 364.601759 81.860332 
L 364.705789 82.236905 
L 364.913849 84.469853 
L 365.225939 92.74981 
L 365.642059 103.864712 
L 365.95415 106.830869 
L 366.05818 106.955323 
L 366.26624 106.483634 
L 366.57833 105.728101 
L 366.78639 105.784522 
L 366.99445 106.194979 
L 367.41057 107.723283 
L 367.93072 109.388481 
L 368.5549 110.416464 
L 369.17908 111.292744 
L 369.38714 111.333229 
L 369.5952 111.181546 
L 369.80326 110.796289 
L 370.11535 109.525072 
L 370.73953 105.583166 
L 371.57177 98.413391 
L 371.6758 98.398586 
L 371.88386 98.828953 
L 372.820131 101.629652 
L 373.548341 104.943716 
L 374.068491 106.237942 
L 374.172521 106.294084 
L 374.276551 106.211181 
L 374.796701 105.180975 
L 375.004761 105.825451 
L 375.524911 107.764282 
L 375.941031 108.293209 
L 376.773271 109.221699 
L 377.501481 110.309533 
L 378.645812 112.362779 
L 379.374022 113.222886 
L 380.310292 114.63587 
L 380.934472 115.479799 
L 382.807012 118.412772 
L 383.015072 118.337455 
L 383.327162 117.758125 
L 383.743282 117.077276 
L 383.951342 117.126601 
L 384.263432 117.671519 
L 384.887613 118.943673 
L 385.303733 119.292892 
L 385.823883 119.5945 
L 386.240003 119.87091 
L 386.552093 119.872976 
L 386.760153 119.592124 
L 387.072243 118.302683 
L 387.488363 116.698795 
L 387.800453 115.61424 
L 388.216573 114.25483 
L 388.424633 114.194909 
L 388.944783 114.459595 
L 389.152843 114.17404 
L 389.672993 113.260599 
L 389.881053 113.395612 
L 391.857624 116.266353 
L 392.481804 116.939347 
L 393.418074 118.130229 
L 393.730164 118.337048 
L 394.458374 118.490119 
L 396.226884 120.762658 
L 396.747034 121.429427 
L 397.475245 122.576778 
L 398.723605 123.4756 
L 399.555845 124.359408 
L 400.596145 125.355446 
L 400.804205 125.907242 
L 401.116295 127.840761 
L 401.324355 129.102336 
L 401.428385 129.202961 
L 401.636445 128.108874 
L 401.844505 125.868968 
L 402.052565 121.038569 
L 403.092865 84.227845 
L 403.300926 82.875077 
L 403.404956 82.870087 
L 403.613016 83.687365 
L 404.341226 87.637026 
L 404.445256 87.742745 
L 404.549286 87.639033 
L 405.277496 85.946511 
L 405.485556 86.546498 
L 405.797646 89.339257 
L 406.109736 91.518111 
L 406.213766 91.41029 
L 406.629886 90.379183 
L 407.150036 90.777567 
L 407.358096 91.182362 
L 407.878246 92.734662 
L 408.086306 91.879877 
L 408.398396 88.621611 
L 408.710486 85.753472 
L 408.814516 85.533049 
L 408.918546 85.719262 
L 409.126606 86.998478 
L 409.958847 93.378224 
L 410.478997 95.360513 
L 410.895117 96.329051 
L 411.207207 96.530079 
L 411.727357 96.638599 
L 412.143477 97.06832 
L 413.495867 98.592912 
L 414.016017 99.011112 
L 414.432137 99.114296 
L 414.848257 98.991515 
L 415.056317 98.712956 
L 415.472437 97.549152 
L 415.784528 96.937694 
L 415.992588 96.990636 
L 417.032888 98.081893 
L 417.136918 97.970349 
L 417.344978 97.134079 
L 418.177218 91.43431 
L 418.385278 91.781554 
L 419.113488 94.014894 
L 419.529608 95.779288 
L 419.633638 95.84482 
L 419.737668 95.694489 
L 419.945728 94.734201 
L 420.465878 91.41505 
L 420.673938 91.266271 
L 420.881998 91.297516 
L 421.090058 91.06636 
L 421.506178 90.545238 
L 421.610208 90.550837 
L 421.818268 90.941635 
L 422.234389 92.178909 
L 422.338419 92.012021 
L 422.546479 90.78576 
L 422.858569 89.171834 
L 422.962599 89.709915 
L 423.170659 93.178427 
L 423.690809 106.135025 
L 423.794839 106.666457 
L 423.898869 106.311108 
L 424.314989 103.493077 
L 424.419019 103.850319 
L 424.939169 107.733797 
L 425.043199 107.600183 
L 425.563349 104.867988 
L 425.771409 105.873204 
L 425.979469 106.935721 
L 426.083499 107.073386 
L 426.187529 106.909668 
L 426.395589 105.840669 
L 426.707679 102.700382 
L 427.123799 97.948191 
L 427.331859 97.24789 
L 427.435889 97.242179 
L 427.643949 97.618509 
L 428.164099 98.988326 
L 428.37216 99.053172 
L 428.58022 99.05993 
L 428.78828 99.303178 
L 429.41246 100.42081 
L 429.62052 99.517478 
L 429.93261 96.106591 
L 430.2447 92.860665 
L 430.45276 92.215953 
L 430.55679 92.380225 
L 430.86888 94.016587 
L 431.285 95.961562 
L 431.285 95.961562 
" clip-path="url(#p54ededb483)" style="fill: none; stroke-dasharray: 1.85,0.8; stroke-dashoffset: 0; stroke: #1f77b4; stroke-width: 0.5"/>
   </g>
   <g id="line2d_30">
    <path d="M 56.985 228.721413 
L 57.50515 228.422633 
L 58.0253 228.410217 
L 58.54545 228.62479 
L 59.27366 229.193481 
L 61.770381 231.420282 
L 62.602621 231.707033 
L 63.538891 231.776136 
L 64.787251 231.608563 
L 67.804122 231.100403 
L 68.948452 231.144619 
L 69.988752 231.398378 
L 71.445172 232.020993 
L 73.421743 232.832771 
L 74.462043 233.013032 
L 76.022493 233.014638 
L 77.999063 233.043144 
L 79.351454 233.321755 
L 83.408624 234.316013 
L 85.905345 234.515566 
L 89.130275 234.813283 
L 91.002815 235.212543 
L 93.395506 235.992315 
L 97.244616 237.260291 
L 99.013127 237.591116 
L 100.885667 237.927693 
L 101.821937 238.355059 
L 102.654177 239.009912 
L 103.486417 239.98282 
L 106.607318 244.043351 
L 107.231498 244.398647 
L 107.751648 244.471397 
L 108.271798 244.33072 
L 108.791948 243.967625 
L 109.416128 243.225658 
L 110.040309 242.134921 
L 110.768519 240.400858 
L 111.600759 237.788621 
L 112.641059 233.726957 
L 114.409569 225.715558 
L 116.178079 217.964115 
L 116.80226 216.169198 
L 117.21838 215.567664 
L 117.53047 215.513709 
L 117.73853 215.694827 
L 118.05062 216.329403 
L 118.46674 217.931173 
L 118.88286 220.505874 
L 119.40301 225.274101 
L 120.02719 233.318536 
L 122.627941 270.574961 
L 123.044061 273.36844 
L 123.356151 274.273224 
L 123.460181 274.318715 
L 123.668241 273.992492 
L 123.980331 272.49076 
L 124.396451 268.84287 
L 125.020631 260.600747 
L 125.956901 244.490338 
L 127.413321 219.542003 
L 128.037501 212.230216 
L 128.557651 208.378953 
L 128.973772 206.537607 
L 129.389892 205.608354 
L 129.701982 205.404564 
L 130.014072 205.541334 
L 130.430192 206.125683 
L 131.158402 207.761846 
L 131.990642 209.547505 
L 132.510792 210.145506 
L 132.926912 210.34291 
L 133.447062 210.313392 
L 134.071242 209.990586 
L 136.255873 208.549823 
L 136.880053 208.580691 
L 137.920353 208.927888 
L 138.856623 209.158928 
L 139.376773 209.097729 
L 139.896923 208.812798 
L 140.417073 208.235687 
L 141.041253 207.163474 
L 142.081554 204.853482 
L 143.433944 201.937805 
L 144.058124 201.031302 
L 144.578274 200.648493 
L 144.994394 200.608524 
L 145.514544 200.832485 
L 146.138724 201.401913 
L 147.179024 202.736815 
L 148.323355 204.125499 
L 148.947535 204.575766 
L 149.571715 204.766762 
L 150.299925 204.748782 
L 151.444255 204.438553 
L 152.692615 204.1287 
L 153.524855 204.151776 
L 154.669186 204.422786 
L 156.749786 204.961811 
L 157.790086 204.953072 
L 161.431137 204.652171 
L 162.575467 204.994205 
L 165.280247 205.900566 
L 166.424578 205.954662 
L 168.609208 205.745695 
L 169.961598 205.740415 
L 172.770409 205.857786 
L 173.706679 205.62217 
L 174.538919 205.19284 
L 175.475189 204.443447 
L 176.411459 203.397853 
L 177.451759 201.870832 
L 178.596089 199.748851 
L 182.96535 191.130793 
L 184.00565 189.783823 
L 184.941921 188.904158 
L 185.774161 188.399229 
L 186.606401 188.160986 
L 187.438641 188.151066 
L 188.478941 188.36709 
L 190.559541 189.109367 
L 192.744172 189.757234 
L 194.720742 190.123131 
L 199.818213 190.871656 
L 203.355233 191.923567 
L 206.164044 192.627782 
L 208.660764 193.019224 
L 211.781665 193.528624 
L 214.382415 194.230409 
L 216.775106 194.868066 
L 217.607346 194.835848 
L 218.335556 194.571374 
L 218.959736 194.115679 
L 219.583916 193.40619 
L 220.416156 192.107736 
L 223.745117 186.46824 
L 224.577357 185.760051 
L 225.513627 185.291555 
L 228.738558 184.00054 
L 232.587668 181.628797 
L 234.044088 181.201888 
L 236.956929 180.440585 
L 237.789169 179.947465 
L 238.517379 179.250671 
L 239.245589 178.219489 
L 239.973799 176.771099 
L 240.910069 174.28913 
L 242.0544 171.312781 
L 242.67858 170.275079 
L 243.0947 169.990127 
L 243.40679 170.04758 
L 243.71888 170.375419 
L 244.135 171.292187 
L 244.55112 172.820182 
L 245.1753 176.149097 
L 246.00754 182.009964 
L 249.232471 206.379384 
L 250.064711 210.39348 
L 250.896951 213.412934 
L 251.729191 215.61046 
L 252.561431 217.158771 
L 253.185611 217.954462 
L 253.705762 218.272155 
L 254.017852 218.261519 
L 254.329942 218.070162 
L 254.746062 217.491783 
L 255.162182 216.491044 
L 255.682332 214.558186 
L 256.202482 211.762333 
L 256.826662 207.109318 
L 257.554872 199.882496 
L 258.699202 185.996228 
L 260.779803 160.39574 
L 261.716073 151.849328 
L 262.548313 146.101428 
L 263.484583 141.164306 
L 264.524883 136.867445 
L 268.373994 121.999029 
L 269.830414 115.088034 
L 272.327135 102.882278 
L 273.263405 99.464143 
L 273.991615 97.624142 
L 274.719825 96.419086 
L 275.448035 95.660777 
L 276.384305 95.039384 
L 277.528635 94.276895 
L 278.360875 93.394258 
L 279.401176 91.936884 
L 282.730136 87.005446 
L 283.250286 86.698255 
L 283.666406 86.706634 
L 284.082526 86.996119 
L 284.498646 87.617675 
L 284.914767 88.622267 
L 285.434917 90.49429 
L 286.059097 93.773471 
L 286.787307 98.946526 
L 288.139697 110.540192 
L 289.492087 121.503596 
L 290.220297 125.8179 
L 290.844477 128.26912 
L 291.364628 129.564971 
L 291.884778 130.315448 
L 292.404928 130.645769 
L 292.925078 130.681153 
L 293.757318 130.436842 
L 294.589558 130.248503 
L 295.421798 130.054603 
L 295.941948 129.659404 
L 296.358068 129.064789 
L 296.878218 127.843028 
L 297.398369 125.944697 
L 297.918519 123.21453 
L 298.542699 118.626118 
L 299.374939 110.553038 
L 301.247479 91.914037 
L 301.871659 87.998661 
L 302.287779 86.62058 
L 302.495839 86.377554 
L 302.703899 86.459511 
L 302.911959 86.847802 
L 303.224049 87.95004 
L 303.64017 90.259004 
L 304.26435 95.115567 
L 305.40868 106.320024 
L 306.55301 116.980009 
L 307.17719 121.150395 
L 307.80137 123.878286 
L 308.21749 124.935033 
L 308.63361 125.409983 
L 308.9457 125.398661 
L 309.25779 125.083432 
L 309.673911 124.20768 
L 310.194061 122.414387 
L 310.818241 119.298979 
L 311.650481 113.712738 
L 312.898841 103.445378 
L 314.875411 87.215781 
L 315.811681 81.455037 
L 316.643922 77.632597 
L 317.476162 74.857651 
L 318.204372 73.157259 
L 318.932582 72.018564 
L 319.556762 71.405023 
L 320.180942 71.057219 
L 320.909152 70.905096 
L 321.845422 70.960345 
L 323.717963 71.135699 
L 324.758263 70.929769 
L 326.006623 70.426706 
L 327.879163 69.380598 
L 330.063794 68.195164 
L 331.208124 67.808544 
L 332.248424 67.698672 
L 335.161265 67.605746 
L 335.889475 67.281477 
L 338.074105 66.049796 
L 338.594255 66.15425 
L 339.010375 66.467482 
L 339.426495 67.030905 
L 339.946645 68.151764 
L 340.570825 70.145248 
L 341.715156 74.820179 
L 342.859486 79.238887 
L 343.483666 80.876623 
L 343.899786 81.470086 
L 344.211876 81.590027 
L 344.523966 81.417241 
L 344.940086 80.792019 
L 345.460236 79.500994 
L 346.292476 76.667318 
L 347.956957 70.743249 
L 348.581137 69.342888 
L 349.101287 68.717066 
L 349.517407 68.525973 
L 349.933527 68.572412 
L 350.453677 68.911561 
L 351.077857 69.641252 
L 352.014127 71.151599 
L 354.406818 75.179805 
L 355.447118 76.477528 
L 356.279358 77.155633 
L 356.903538 77.403797 
L 358.359958 77.835158 
L 358.880108 78.339153 
L 359.400258 79.231348 
L 359.920409 80.639257 
L 360.440559 82.690396 
L 361.064739 86.168943 
L 361.896979 92.312822 
L 364.497729 112.876035 
L 365.121909 115.902946 
L 365.642059 117.412064 
L 366.05818 118.036609 
L 366.37027 118.210046 
L 366.68236 118.162771 
L 367.09848 117.806368 
L 367.61863 116.985735 
L 368.45087 115.121235 
L 370.32341 110.764375 
L 371.36371 108.960163 
L 372.195951 107.956048 
L 372.820131 107.503107 
L 373.340281 107.344942 
L 373.860431 107.390888 
L 374.484611 107.679544 
L 375.212821 108.275179 
L 376.253121 109.459053 
L 380.830442 115.451834 
L 384.263432 120.063514 
L 384.887613 120.441314 
L 385.407763 120.52043 
L 385.927913 120.343709 
L 386.552093 119.808234 
L 387.384333 118.735278 
L 389.256873 116.207052 
L 389.881053 115.755667 
L 390.401203 115.658292 
L 390.921354 115.790592 
L 391.545534 116.189119 
L 392.377774 116.999588 
L 394.978524 119.740548 
L 396.434944 121.106685 
L 397.267185 122.218285 
L 397.995395 123.561966 
L 398.827635 125.619825 
L 400.075995 128.748951 
L 400.596145 129.59121 
L 401.012265 129.899683 
L 401.324355 129.861309 
L 401.636445 129.551297 
L 401.948535 128.933249 
L 402.364655 127.567109 
L 402.884805 124.935781 
L 403.613016 119.916767 
L 406.525856 97.953023 
L 407.046006 95.952307 
L 407.566156 94.80725 
L 407.982276 94.407789 
L 408.294366 94.359791 
L 408.710486 94.570456 
L 409.230636 95.168617 
L 410.166907 96.735126 
L 411.103177 98.208539 
L 411.831387 98.984359 
L 412.559597 99.449058 
L 413.287807 99.630015 
L 414.016017 99.554605 
L 414.744227 99.250206 
L 415.992588 98.39899 
L 416.720798 98.034924 
L 417.240948 97.989616 
L 417.657068 98.144205 
L 418.073188 98.513195 
L 418.593338 99.338894 
L 419.113488 100.644885 
L 419.737668 102.85774 
L 420.777968 107.505972 
L 422.338419 114.451803 
L 423.066629 116.717114 
L 423.586779 117.65439 
L 424.002899 117.983564 
L 424.314989 118.006165 
L 424.731109 117.76305 
L 425.147229 117.237119 
L 425.667379 116.230973 
L 426.395589 114.28393 
L 427.435889 110.725872 
L 431.285 96.595721 
L 431.285 96.595721 
" clip-path="url(#p54ededb483)" style="fill: none; stroke: #ff7f0e; stroke-width: 0.5; stroke-linecap: square"/>
   </g>
   <g id="line2d_31">
    <path d="M 56.985 289.94338 
L 57.08903 289.94338 
L 57.19306 289.504046 
L 57.50515 290.85141 
L 57.71321 290.994545 
L 58.0253 290.864445 
L 59.0656 290.254939 
L 59.58575 289.922524 
L 60.105901 289.595515 
L 60.417991 289.536278 
L 60.834111 289.098929 
L 61.250231 289.261665 
L 61.874411 289.582961 
L 61.978441 289.544113 
L 62.290531 289.140935 
L 62.602621 289.183298 
L 63.330831 289.4846 
L 63.850981 288.31602 
L 64.163071 288.536853 
L 64.891281 289.263295 
L 64.995311 289.170736 
L 65.411431 288.062088 
L 65.723521 288.010042 
L 66.347702 288.235287 
L 67.179942 288.752557 
L 67.908152 289.40172 
L 68.324272 289.568534 
L 68.948452 289.278111 
L 69.156512 289.082205 
L 69.468602 289.153375 
L 70.404872 289.558263 
L 71.133082 289.638139 
L 71.965322 288.943738 
L 72.173382 288.870017 
L 72.589503 289.111402 
L 73.421743 289.601653 
L 73.837863 289.640544 
L 74.253983 288.906706 
L 74.462043 288.916499 
L 74.982193 289.066616 
L 75.190253 288.889919 
L 75.814433 287.959633 
L 76.126523 288.248693 
L 76.542643 288.765972 
L 76.646673 288.731694 
L 76.958763 288.420969 
L 77.270853 288.635048 
L 78.207123 289.446417 
L 78.727273 289.637507 
L 79.143394 289.493737 
L 82.264294 289.91383 
L 87.673855 289.938098 
L 89.962515 289.89736 
L 90.898785 288.971326 
L 91.314906 287.971776 
L 91.522966 287.872127 
L 91.835056 288.199245 
L 92.355206 288.76856 
L 92.563266 288.125366 
L 93.395506 284.450841 
L 93.499536 284.544493 
L 93.811626 285.510878 
L 94.435806 287.600223 
L 94.539836 287.724437 
L 94.851926 287.467596 
L 95.164016 287.560646 
L 95.372076 287.620822 
L 95.996256 288.570195 
L 96.620436 289.263584 
L 96.724466 289.341646 
L 96.828496 289.184224 
L 97.140586 287.161032 
L 97.556707 284.702153 
L 97.764767 284.3976 
L 98.284917 284.248663 
L 98.388947 284.253638 
L 98.597007 284.674698 
L 99.325217 287.024398 
L 99.533277 286.972859 
L 100.157457 286.240135 
L 100.469547 286.254197 
L 100.573577 286.096784 
L 100.781637 285.12694 
L 101.301787 281.575429 
L 101.613877 280.853021 
L 101.821937 280.727697 
L 102.029997 280.8381 
L 102.342087 281.51067 
L 102.966267 283.788683 
L 103.694477 287.0411 
L 104.214628 288.361302 
L 104.318658 288.544961 
L 104.422688 288.165606 
L 105.150898 279.20875 
L 105.358958 278.400327 
L 106.399258 272.315577 
L 106.815378 271.676094 
L 107.231498 271.454984 
L 107.855678 271.292915 
L 108.479858 270.969498 
L 108.687918 271.196961 
L 109.312098 272.723726 
L 109.520158 272.478738 
L 109.728218 274.077758 
L 110.664489 283.396535 
L 110.768519 282.535376 
L 111.184639 275.802572 
L 111.392699 274.958642 
L 111.496729 275.06843 
L 111.704789 275.862304 
L 112.016879 278.075324 
L 112.432999 281.092537 
L 112.537029 281.07832 
L 112.953149 280.154172 
L 113.265239 280.217176 
L 113.785389 279.670629 
L 113.993449 280.203004 
L 114.513599 282.506716 
L 115.449869 287.032468 
L 115.970019 288.361327 
L 116.074049 288.399283 
L 116.49017 287.101355 
L 116.69823 287.251633 
L 117.6345 288.687795 
L 117.84256 287.985112 
L 118.46674 285.173548 
L 118.6748 284.556107 
L 118.98689 281.740318 
L 119.50704 275.081085 
L 120.13122 261.333924 
L 120.7554 246.863801 
L 121.37958 238.445444 
L 122.00376 233.075833 
L 122.523911 223.616657 
L 122.731971 222.356859 
L 122.940031 221.250775 
L 123.044061 222.265113 
L 123.356151 234.194999 
L 123.980331 259.342434 
L 124.188391 259.94116 
L 124.292421 259.463743 
L 124.500481 251.680787 
L 124.916601 229.299733 
L 125.020631 228.514609 
L 125.124661 229.253432 
L 126.164961 245.999182 
L 127.309291 270.21784 
L 128.037501 280.196869 
L 128.557651 284.570207 
L 128.973772 286.641764 
L 129.493922 288.036353 
L 130.014072 288.897579 
L 130.534222 289.343121 
L 130.638252 289.066298 
L 131.574522 283.533597 
L 132.094672 282.142381 
L 132.510792 279.762377 
L 132.614822 279.803832 
L 132.822882 280.77646 
L 133.551092 284.892237 
L 133.863182 285.760205 
L 134.591392 287.968298 
L 135.111543 288.866523 
L 135.215573 288.991495 
L 135.319603 288.924289 
L 135.631693 287.277995 
L 136.776023 281.011718 
L 136.984083 281.810689 
L 137.504233 284.48808 
L 137.712293 284.383295 
L 138.024383 283.911139 
L 138.440503 283.287857 
L 138.752593 282.967764 
L 138.960653 283.555699 
L 139.688863 286.379063 
L 140.625133 277.587648 
L 140.833193 274.63229 
L 140.937223 274.426198 
L 141.145283 275.652903 
L 142.185584 284.774968 
L 142.809764 287.26501 
L 143.225884 288.272492 
L 143.329914 288.284424 
L 143.537974 287.709641 
L 144.266184 284.340385 
L 144.578274 284.092406 
L 144.786334 284.03404 
L 144.994394 284.489712 
L 145.722604 286.943635 
L 145.930664 287.056006 
L 146.138724 286.879327 
L 146.450814 286.399071 
L 146.762904 286.680983 
L 146.970964 286.278787 
L 147.074994 286.294362 
L 147.387084 286.892372 
L 148.115295 288.494976 
L 148.323355 288.743716 
L 148.427385 288.516299 
L 148.739475 287.279226 
L 148.947535 287.325229 
L 149.467685 288.109629 
L 149.883805 287.27473 
L 149.987835 287.335957 
L 150.403955 287.55459 
L 150.820075 287.691055 
L 151.132165 287.497433 
L 151.548285 287.223377 
L 151.756345 287.333473 
L 152.380525 288.241728 
L 153.004705 289.074135 
L 153.628885 289.525561 
L 154.357096 289.768566 
L 155.501426 289.89899 
L 155.917546 289.747072 
L 156.541726 289.386146 
L 157.269936 288.929139 
L 157.790086 288.846437 
L 158.622326 289.117746 
L 159.662626 289.661549 
L 160.598897 289.850632 
L 161.535167 289.896415 
L 162.367407 289.442525 
L 163.511737 289.730472 
L 164.343977 289.835018 
L 164.656067 289.654754 
L 164.968157 289.531287 
L 165.696367 289.701718 
L 166.840698 289.878479 
L 168.089058 289.894248 
L 168.297118 289.594199 
L 168.921298 288.420787 
L 169.129358 288.401562 
L 169.545478 288.743762 
L 170.273688 289.338592 
L 170.689808 289.430434 
L 171.209958 289.380825 
L 172.770409 289.83426 
L 173.706679 289.868168 
L 174.122799 289.148057 
L 174.434889 287.966853 
L 175.371159 283.61317 
L 175.683249 282.882177 
L 175.891309 282.79402 
L 176.099369 282.976815 
L 176.619519 283.961531 
L 177.867879 286.958838 
L 178.492059 288.424685 
L 179.01221 289.118032 
L 179.42833 289.440856 
L 179.53236 289.183472 
L 179.84445 286.415235 
L 180.26057 282.651002 
L 180.46863 282.193308 
L 180.67669 282.560626 
L 181.4049 285.203604 
L 182.02908 287.509926 
L 182.34117 288.061006 
L 182.54923 287.01117 
L 182.75729 284.06259 
L 183.4855 270.018701 
L 183.58953 270.202526 
L 183.79759 271.913338 
L 185.045951 284.734878 
L 185.566101 287.129364 
L 186.086251 288.433663 
L 186.398341 288.778637 
L 186.918491 289.148612 
L 187.646701 289.586725 
L 188.166851 289.737989 
L 188.999091 289.53081 
L 190.039391 289.786698 
L 190.559541 289.732487 
L 192.952232 289.927917 
L 194.512682 289.881172 
L 195.136862 289.74166 
L 196.489252 289.778843 
L 197.321492 289.622819 
L 199.506123 289.912871 
L 200.546423 289.845007 
L 201.170603 289.699791 
L 201.898813 289.7537 
L 203.459263 289.910827 
L 205.539864 289.892444 
L 206.164044 289.864967 
L 208.036584 289.912912 
L 208.764794 289.638497 
L 210.949425 289.87459 
L 211.469575 289.666799 
L 215.214655 289.830608 
L 215.838835 289.442673 
L 216.358986 289.570349 
L 217.399286 289.824521 
L 218.335556 289.904405 
L 218.439586 289.812312 
L 218.751676 288.58547 
L 219.271826 284.912269 
L 219.583916 283.325639 
L 219.791976 283.205122 
L 220.000036 283.595608 
L 221.872576 288.457558 
L 222.392727 289.137054 
L 222.808847 289.382114 
L 223.120937 288.518078 
L 223.433027 287.793696 
L 223.641087 287.683737 
L 224.473327 287.865381 
L 224.681387 287.946522 
L 225.825717 289.018138 
L 226.033777 288.96676 
L 226.553927 289.263231 
L 227.386167 289.671626 
L 228.322437 289.853762 
L 228.634528 289.773214 
L 228.946618 289.441933 
L 229.778858 288.145314 
L 229.986918 288.188015 
L 230.819158 288.817189 
L 231.131248 288.321432 
L 231.443338 287.76088 
L 231.651398 287.844057 
L 233.107818 289.468496 
L 233.836028 289.744192 
L 234.772298 289.878627 
L 234.876329 289.801725 
L 235.084389 289.061286 
L 235.708569 286.397155 
L 235.916629 286.273029 
L 236.124689 286.515405 
L 236.852899 287.675594 
L 237.060959 287.655176 
L 237.685139 287.132405 
L 237.997229 287.609344 
L 238.725439 288.839701 
L 239.245589 289.341473 
L 239.349619 289.358033 
L 239.557679 288.758021 
L 240.077829 287.037343 
L 240.389919 286.145434 
L 241.11813 283.62544 
L 241.32619 284.186585 
L 242.36649 287.936613 
L 242.88664 288.856157 
L 243.40679 289.359546 
L 243.71888 289.472602 
L 243.92694 289.006636 
L 244.135 287.595576 
L 244.55112 281.8833 
L 244.86321 278.281401 
L 245.1753 276.988444 
L 245.69545 276.050376 
L 246.11157 274.343532 
L 246.63172 271.320389 
L 247.15187 266.634164 
L 247.880081 257.699388 
L 247.984111 258.326776 
L 248.296201 264.077381 
L 248.816351 273.56481 
L 249.024411 268.700495 
L 249.336501 261.113263 
L 249.544561 259.581964 
L 250.064711 258.953734 
L 250.272771 258.828111 
L 250.480831 258.941741 
L 250.688891 259.463608 
L 251.209041 261.312462 
L 251.417101 264.009965 
L 252.249341 278.311178 
L 252.353371 278.53337 
L 252.769491 276.086895 
L 252.873521 276.173227 
L 253.081581 277.523278 
L 253.809792 283.222898 
L 254.642032 276.659687 
L 254.746062 276.652622 
L 254.954122 277.867684 
L 255.162182 279.093563 
L 255.266212 279.06454 
L 255.578302 278.561852 
L 255.682332 278.730589 
L 255.994422 280.707849 
L 256.722632 285.596553 
L 257.242782 287.5745 
L 257.346812 287.849554 
L 257.450842 287.305796 
L 257.658902 280.257066 
L 258.283082 252.210377 
L 258.387112 251.763179 
L 258.595172 252.61004 
L 258.907262 253.57017 
L 259.115322 253.884887 
L 259.323382 254.883403 
L 259.635472 258.638397 
L 260.467713 272.195969 
L 260.675773 272.634479 
L 260.987863 270.935321 
L 261.195923 269.765348 
L 261.299953 270.203679 
L 261.612043 273.847917 
L 262.340253 282.412398 
L 262.652343 284.23901 
L 262.860403 284.349687 
L 263.068463 284.284096 
L 263.380553 284.577809 
L 263.796673 286.00893 
L 264.420853 287.931297 
L 264.836973 288.66549 
L 264.941003 288.552965 
L 265.565183 286.697392 
L 265.773243 286.559317 
L 266.189364 286.486773 
L 266.501454 285.700041 
L 266.709514 285.194346 
L 266.813544 285.21004 
L 267.021604 285.660485 
L 267.957874 288.271895 
L 268.269964 288.781557 
L 268.373994 288.758229 
L 268.478024 288.454096 
L 268.686084 286.418461 
L 268.894144 281.185927 
L 269.622354 254.363887 
L 269.726384 254.730716 
L 270.038474 260.751786 
L 270.766684 276.152625 
L 271.078774 279.214872 
L 271.182804 279.547435 
L 271.286834 279.264373 
L 271.494894 276.345255 
L 272.119074 263.347545 
L 272.223105 263.722967 
L 272.535195 268.324592 
L 273.159375 278.19405 
L 273.471465 279.678984 
L 273.887585 281.073788 
L 274.927885 286.847117 
L 275.239975 287.687386 
L 275.448035 287.567954 
L 275.760125 287.068266 
L 276.072215 286.709826 
L 276.280275 286.915289 
L 276.800425 287.758567 
L 276.904455 287.660206 
L 277.112515 286.975363 
L 277.424605 284.564714 
L 277.736695 282.227045 
L 277.840725 282.339543 
L 278.152815 283.6782 
L 278.881026 286.993961 
L 279.193116 287.609915 
L 280.233416 289.037505 
L 280.337446 288.423194 
L 280.545506 284.596256 
L 281.169686 267.813664 
L 281.273716 267.317489 
L 281.377746 267.601081 
L 281.689836 271.106108 
L 282.314016 278.194317 
L 282.834166 282.040998 
L 282.938196 282.181953 
L 283.042226 281.931988 
L 283.250286 280.518431 
L 283.562376 276.672168 
L 284.082526 267.981177 
L 284.290586 269.729028 
L 284.914767 278.201558 
L 285.018797 277.692242 
L 285.330887 270.301418 
L 285.747007 260.667756 
L 285.955067 259.242281 
L 286.059097 259.221291 
L 286.267157 260.377324 
L 286.787307 266.56517 
L 286.891337 266.083324 
L 287.099397 260.932021 
L 287.515517 239.789522 
L 287.931637 220.338233 
L 288.139697 218.09811 
L 288.347757 221.408938 
L 289.075967 239.312709 
L 289.492087 244.151756 
L 289.804177 245.558459 
L 289.908207 245.282463 
L 290.012237 244.514853 
L 290.220297 239.161757 
L 290.636417 223.993041 
L 290.844477 229.688898 
L 291.780748 264.352225 
L 292.196868 270.461328 
L 292.404928 271.805854 
L 292.508958 271.871296 
L 292.612988 271.496835 
L 292.925078 268.318798 
L 293.237168 265.794674 
L 293.341198 266.074754 
L 293.653288 270.192246 
L 293.965378 274.20293 
L 294.069408 274.489586 
L 294.173438 274.438495 
L 294.589558 273.224996 
L 294.797618 271.884896 
L 295.421798 266.788251 
L 295.629858 268.048632 
L 295.837918 269.492059 
L 295.941948 268.927519 
L 296.150008 263.831485 
L 296.566128 245.002636 
L 297.086278 221.018835 
L 297.190309 221.437683 
L 297.398369 228.143885 
L 298.126579 258.002862 
L 298.230609 257.554829 
L 298.542699 251.239219 
L 298.854789 247.14423 
L 298.958819 247.386736 
L 299.166879 249.847762 
L 299.791059 260.031157 
L 300.311209 263.089094 
L 300.831359 268.669193 
L 301.663599 280.762827 
L 301.767629 281.322353 
L 301.871659 281.022821 
L 302.079719 279.234557 
L 302.495839 274.655711 
L 302.599869 274.377887 
L 302.703899 274.532887 
L 302.911959 275.844087 
L 303.43211 280.703802 
L 303.53614 280.699874 
L 303.7442 279.239301 
L 304.57644 269.588046 
L 304.99256 259.439655 
L 305.72077 242.403454 
L 306.03286 238.670431 
L 306.24092 242.981437 
L 306.96913 265.740741 
L 307.07316 266.197183 
L 307.38525 265.556444 
L 307.48928 265.581213 
L 308.00943 266.593751 
L 308.21749 266.009288 
L 309.15376 261.513089 
L 309.36182 260.269461 
L 309.56988 262.876216 
L 310.298091 275.86899 
L 310.402121 275.713463 
L 310.610181 273.331293 
L 311.338391 259.342896 
L 311.546451 258.744637 
L 311.650481 258.802601 
L 311.858541 259.847633 
L 312.066601 260.463108 
L 312.170631 259.471175 
L 312.794811 246.490318 
L 312.898841 246.849293 
L 313.106901 250.061341 
L 313.939141 266.963114 
L 314.251231 269.308323 
L 314.355261 269.221544 
L 314.563321 266.928042 
L 315.395561 249.856981 
L 315.499591 250.746846 
L 315.811681 258.005633 
L 316.539892 275.006111 
L 316.956012 280.667198 
L 317.476162 284.16286 
L 317.996312 286.376703 
L 318.516462 287.593143 
L 319.140642 288.501134 
L 319.348702 288.602612 
L 319.556762 288.413279 
L 320.180942 287.122476 
L 320.389002 287.328803 
L 321.533332 289.101282 
L 321.845422 289.119755 
L 322.157513 288.894711 
L 322.573633 288.549315 
L 322.989753 288.872151 
L 323.717963 289.448788 
L 324.446173 289.715736 
L 325.278413 289.794365 
L 325.590503 289.743702 
L 326.422743 289.380005 
L 328.191253 289.856168 
L 328.607374 289.867307 
L 328.815434 289.537479 
L 329.231554 288.935668 
L 330.479914 288.141552 
L 330.792004 287.50092 
L 331.208124 286.440723 
L 331.312154 286.40939 
L 331.520214 286.703891 
L 332.560514 288.806971 
L 333.080664 289.327365 
L 333.704844 289.651284 
L 334.641115 289.848524 
L 335.473355 289.877864 
L 335.785445 289.57366 
L 336.201565 288.665339 
L 336.513655 287.792496 
L 336.825745 285.842951 
L 337.345895 281.903616 
L 337.553955 281.632157 
L 337.762015 282.069052 
L 338.282165 283.622641 
L 338.386195 283.667916 
L 338.594255 283.355521 
L 339.114405 282.19709 
L 339.322465 282.24349 
L 339.634555 282.341761 
L 339.946645 282.137207 
L 340.154705 281.811209 
L 340.466795 280.85702 
L 340.674855 279.920817 
L 340.882916 279.032486 
L 341.090976 279.823463 
L 341.923216 285.233519 
L 342.027246 284.57464 
L 342.859486 270.522952 
L 343.171576 268.757424 
L 343.483666 268.275662 
L 343.795756 268.237126 
L 344.107846 268.458274 
L 344.419936 269.002928 
L 344.940086 270.678394 
L 345.564266 273.427713 
L 348.269047 286.145839 
L 348.893227 288.009312 
L 349.413377 288.892105 
L 349.933527 289.378343 
L 350.557707 289.676261 
L 351.181887 289.762352 
L 351.493977 289.583296 
L 352.326217 288.997543 
L 354.094728 287.909573 
L 354.718908 287.792752 
L 355.343088 287.887545 
L 355.967268 288.071735 
L 356.591448 288.388031 
L 357.423688 289.283845 
L 358.047868 289.626507 
L 358.880108 289.821392 
L 359.296228 289.616411 
L 359.608319 289.330826 
L 360.024439 288.557579 
L 360.544589 286.972842 
L 361.064739 284.582331 
L 361.792949 280.006039 
L 363.873549 264.413521 
L 364.705789 257.626097 
L 364.913849 260.306473 
L 365.85012 278.203698 
L 365.95415 279.00717 
L 366.05818 278.898249 
L 366.57833 277.499586 
L 366.68236 277.510962 
L 366.89042 277.900883 
L 367.20251 279.175718 
L 368.24281 284.255335 
L 368.97102 287.234561 
L 369.49117 288.464678 
L 369.80326 288.889264 
L 369.90729 288.827975 
L 370.21938 287.938457 
L 370.73953 285.578103 
L 371.57177 279.715877 
L 371.77983 280.129932 
L 372.924161 284.857858 
L 373.444311 287.071193 
L 373.964461 288.382186 
L 374.172521 288.712225 
L 374.276551 288.62188 
L 374.588641 287.632423 
L 374.796701 287.681118 
L 375.316851 288.448903 
L 375.941031 289.169356 
L 376.461181 289.094538 
L 377.189391 289.076852 
L 378.541782 289.72709 
L 382.807012 289.939137 
L 382.911042 289.87596 
L 383.223132 289.039285 
L 383.743282 287.490228 
L 383.951342 287.320043 
L 384.159402 287.44464 
L 385.407763 288.920179 
L 386.135973 289.484272 
L 386.760153 289.723886 
L 386.864183 289.720991 
L 387.072243 289.106822 
L 387.384333 288.212585 
L 387.696423 287.743414 
L 388.112543 286.744612 
L 388.320603 286.793898 
L 389.048813 287.897147 
L 389.256873 287.713329 
L 389.464933 287.344059 
L 389.672993 287.433167 
L 391.233444 289.43943 
L 391.961654 289.730731 
L 393.105984 289.886564 
L 393.626134 289.821024 
L 393.834194 289.66142 
L 394.146284 289.274169 
L 394.458374 289.299896 
L 395.914794 289.801941 
L 397.267185 289.915317 
L 397.579275 289.868584 
L 399.035695 287.6497 
L 400.284055 285.666625 
L 400.492115 285.912239 
L 401.532415 288.488868 
L 401.636445 288.450393 
L 401.844505 286.648917 
L 402.052565 282.353681 
L 402.988835 251.364763 
L 403.196895 250.330346 
L 403.300926 250.627116 
L 403.508986 252.444391 
L 404.653316 265.984797 
L 405.173466 268.629671 
L 405.485556 272.459699 
L 406.109736 280.705917 
L 406.317796 282.058636 
L 406.525856 282.454534 
L 407.046006 284.836368 
L 407.670186 287.345244 
L 407.982276 287.968586 
L 408.190336 286.603207 
L 408.814516 280.951016 
L 409.022576 281.689219 
L 410.062877 287.04385 
L 410.478997 288.058849 
L 410.791087 288.358033 
L 410.999147 288.341949 
L 411.935417 287.720993 
L 412.767657 288.145802 
L 413.183777 288.594863 
L 413.911987 289.326222 
L 414.536167 289.647355 
L 414.952287 289.723612 
L 415.160347 289.480664 
L 415.472437 288.68467 
L 415.680497 288.623925 
L 416.096618 288.935099 
L 416.824828 289.478808 
L 417.240948 289.576737 
L 417.449008 288.278016 
L 418.073188 282.984744 
L 418.281248 282.726166 
L 419.113488 283.341975 
L 419.425578 283.813875 
L 419.529608 283.69809 
L 419.737668 282.808873 
L 420.049758 279.791336 
L 420.569908 274.716049 
L 421.298118 270.743475 
L 421.714238 268.771615 
L 421.922298 268.510734 
L 422.026329 268.494102 
L 422.234389 268.131984 
L 422.546479 265.668975 
L 422.754539 262.773915 
L 422.858569 263.039295 
L 423.066629 265.770989 
L 423.794839 278.077063 
L 423.898869 278.5306 
L 424.210959 275.596952 
L 424.314989 275.524093 
L 424.523049 276.779179 
L 424.939169 280.198543 
L 425.043199 280.162265 
L 425.251259 279.158863 
L 425.459319 278.233585 
L 425.667379 279.072876 
L 426.187529 281.979727 
L 426.291559 281.861978 
L 426.499619 281.00792 
L 426.811709 278.340479 
L 427.123799 276.055268 
L 427.227829 275.937451 
L 427.435889 276.488264 
L 427.852009 279.106235 
L 428.26813 281.420517 
L 428.58022 282.910601 
L 429.30843 286.629757 
L 429.62052 287.337436 
L 429.82858 285.942803 
L 430.14067 283.423493 
L 430.2447 283.431 
L 430.45276 284.037132 
L 431.285 287.341021 
L 431.285 287.341021 
" clip-path="url(#p54ededb483)" style="fill: none; stroke: #2ca02c; stroke-width: 0.5; stroke-linecap: square"/>
   </g>
   <g id="patch_3">
    <path d="M 38.27 303.64 
L 38.27 25.44 
" style="fill: none; stroke: #000000; stroke-width: 0.8; stroke-linejoin: miter; stroke-linecap: square"/>
   </g>
   <g id="patch_4">
    <path d="M 450 303.64 
L 450 25.44 
" style="fill: none; stroke: #000000; stroke-width: 0.8; stroke-linejoin: miter; stroke-linecap: square"/>
   </g>
   <g id="patch_5">
    <path d="M 38.27 303.64 
L 450 303.64 
" style="fill: none; stroke: #000000; stroke-width: 0.8; stroke-linejoin: miter; stroke-linecap: square"/>
   </g>
   <g id="patch_6">
    <path d="M 38.27 25.44 
L 450 25.44 
" style="fill: none; stroke: #000000; stroke-width: 0.8; stroke-linejoin: miter; stroke-linecap: square"/>
   </g>
   <g id="text_17">
    <!-- data_10_E4 Separated EDA plot -->
    <g transform="translate(148.762188 19.44) scale(0.12 -0.12)">
     <defs>
      <path id="DejaVuSans-5f" d="M 3263 -1063 
L 3263 -1509 
L -63 -1509 
L -63 -1063 
L 3263 -1063 
z
" transform="scale(0.015625)"/>
      <path id="DejaVuSans-70" d="M 1159 525 
L 1159 -1331 
L 581 -1331 
L 581 3500 
L 1159 3500 
L 1159 2969 
Q 1341 3281 1617 3432 
Q 1894 3584 2278 3584 
Q 2916 3584 3314 3078 
Q 3713 2572 3713 1747 
Q 3713 922 3314 415 
Q 2916 -91 2278 -91 
Q 1894 -91 1617 61 
Q 1341 213 1159 525 
z
M 3116 1747 
Q 3116 2381 2855 2742 
Q 2594 3103 2138 3103 
Q 1681 3103 1420 2742 
Q 1159 2381 1159 1747 
Q 1159 1113 1420 752 
Q 1681 391 2138 391 
Q 2594 391 2855 752 
Q 3116 1113 3116 1747 
z
" transform="scale(0.015625)"/>
      <path id="DejaVuSans-6f" d="M 1959 3097 
Q 1497 3097 1228 2736 
Q 959 2375 959 1747 
Q 959 1119 1226 758 
Q 1494 397 1959 397 
Q 2419 397 2687 759 
Q 2956 1122 2956 1747 
Q 2956 2369 2687 2733 
Q 2419 3097 1959 3097 
z
M 1959 3584 
Q 2709 3584 3137 3096 
Q 3566 2609 3566 1747 
Q 3566 888 3137 398 
Q 2709 -91 1959 -91 
Q 1206 -91 779 398 
Q 353 888 353 1747 
Q 353 2609 779 3096 
Q 1206 3584 1959 3584 
z
" transform="scale(0.015625)"/>
     </defs>
     <use xlink:href="#DejaVuSans-64"/>
     <use xlink:href="#DejaVuSans-61" transform="translate(63.476562 0)"/>
     <use xlink:href="#DejaVuSans-74" transform="translate(124.755859 0)"/>
     <use xlink:href="#DejaVuSans-61" transform="translate(163.964844 0)"/>
     <use xlink:href="#DejaVuSans-5f" transform="translate(225.244141 0)"/>
     <use xlink:href="#DejaVuSans-31" transform="translate(275.244141 0)"/>
     <use xlink:href="#DejaVuSans-30" transform="translate(338.867188 0)"/>
     <use xlink:href="#DejaVuSans-5f" transform="translate(402.490234 0)"/>
     <use xlink:href="#DejaVuSans-45" transform="translate(452.490234 0)"/>
     <use xlink:href="#DejaVuSans-34" transform="translate(515.673828 0)"/>
     <use xlink:href="#DejaVuSans-20" transform="translate(579.296875 0)"/>
     <use xlink:href="#DejaVuSans-53" transform="translate(611.083984 0)"/>
     <use xlink:href="#DejaVuSans-65" transform="translate(674.560547 0)"/>
     <use xlink:href="#DejaVuSans-70" transform="translate(736.083984 0)"/>
     <use xlink:href="#DejaVuSans-61" transform="translate(799.560547 0)"/>
     <use xlink:href="#DejaVuSans-72" transform="translate(860.839844 0)"/>
     <use xlink:href="#DejaVuSans-61" transform="translate(901.953125 0)"/>
     <use xlink:href="#DejaVuSans-74" transform="translate(963.232422 0)"/>
     <use xlink:href="#DejaVuSans-65" transform="translate(1002.441406 0)"/>
     <use xlink:href="#DejaVuSans-64" transform="translate(1063.964844 0)"/>
     <use xlink:href="#DejaVuSans-20" transform="translate(1127.441406 0)"/>
     <use xlink:href="#DejaVuSans-45" transform="translate(1159.228516 0)"/>
     <use xlink:href="#DejaVuSans-44" transform="translate(1222.412109 0)"/>
     <use xlink:href="#DejaVuSans-41" transform="translate(1297.664062 0)"/>
     <use xlink:href="#DejaVuSans-20" transform="translate(1366.072266 0)"/>
     <use xlink:href="#DejaVuSans-70" transform="translate(1397.859375 0)"/>
     <use xlink:href="#DejaVuSans-6c" transform="translate(1461.335938 0)"/>
     <use xlink:href="#DejaVuSans-6f" transform="translate(1489.119141 0)"/>
     <use xlink:href="#DejaVuSans-74" transform="translate(1550.300781 0)"/>
    </g>
   </g>
   <g id="legend_1">
    <g id="patch_7">
     <path d="M 45.27 77.474375 
L 138.17625 77.474375 
Q 140.17625 77.474375 140.17625 75.474375 
L 140.17625 32.44 
Q 140.17625 30.44 138.17625 30.44 
L 45.27 30.44 
Q 43.27 30.44 43.27 32.44 
L 43.27 75.474375 
Q 43.27 77.474375 45.27 77.474375 
z
" style="fill: #ffffff; opacity: 0.8; stroke: #cccccc; stroke-linejoin: miter"/>
    </g>
    <g id="line2d_32">
     <path d="M 47.27 38.538437 
L 57.27 38.538437 
L 67.27 38.538437 
" style="fill: none; stroke-dasharray: 1.85,0.8; stroke-dashoffset: 0; stroke: #1f77b4; stroke-width: 0.5"/>
    </g>
    <g id="text_18">
     <!-- Filtered EDA -->
     <g transform="translate(75.27 42.038437) scale(0.1 -0.1)">
      <defs>
       <path id="DejaVuSans-46" d="M 628 4666 
L 3309 4666 
L 3309 4134 
L 1259 4134 
L 1259 2759 
L 3109 2759 
L 3109 2228 
L 1259 2228 
L 1259 0 
L 628 0 
L 628 4666 
z
" transform="scale(0.015625)"/>
      </defs>
      <use xlink:href="#DejaVuSans-46"/>
      <use xlink:href="#DejaVuSans-69" transform="translate(50.269531 0)"/>
      <use xlink:href="#DejaVuSans-6c" transform="translate(78.052734 0)"/>
      <use xlink:href="#DejaVuSans-74" transform="translate(105.835938 0)"/>
      <use xlink:href="#DejaVuSans-65" transform="translate(145.044922 0)"/>
      <use xlink:href="#DejaVuSans-72" transform="translate(206.568359 0)"/>
      <use xlink:href="#DejaVuSans-65" transform="translate(245.431641 0)"/>
      <use xlink:href="#DejaVuSans-64" transform="translate(306.955078 0)"/>
      <use xlink:href="#DejaVuSans-20" transform="translate(370.431641 0)"/>
      <use xlink:href="#DejaVuSans-45" transform="translate(402.21875 0)"/>
      <use xlink:href="#DejaVuSans-44" transform="translate(465.402344 0)"/>
      <use xlink:href="#DejaVuSans-41" transform="translate(540.654297 0)"/>
     </g>
    </g>
    <g id="line2d_33">
     <path d="M 47.27 53.216562 
L 57.27 53.216562 
L 67.27 53.216562 
" style="fill: none; stroke: #ff7f0e; stroke-width: 0.5; stroke-linecap: square"/>
    </g>
    <g id="text_19">
     <!-- Tonic -->
     <g transform="translate(75.27 56.716562) scale(0.1 -0.1)">
      <defs>
       <path id="DejaVuSans-63" d="M 3122 3366 
L 3122 2828 
Q 2878 2963 2633 3030 
Q 2388 3097 2138 3097 
Q 1578 3097 1268 2742 
Q 959 2388 959 1747 
Q 959 1106 1268 751 
Q 1578 397 2138 397 
Q 2388 397 2633 464 
Q 2878 531 3122 666 
L 3122 134 
Q 2881 22 2623 -34 
Q 2366 -91 2075 -91 
Q 1284 -91 818 406 
Q 353 903 353 1747 
Q 353 2603 823 3093 
Q 1294 3584 2113 3584 
Q 2378 3584 2631 3529 
Q 2884 3475 3122 3366 
z
" transform="scale(0.015625)"/>
      </defs>
      <use xlink:href="#DejaVuSans-54"/>
      <use xlink:href="#DejaVuSans-6f" transform="translate(44.083984 0)"/>
      <use xlink:href="#DejaVuSans-6e" transform="translate(105.265625 0)"/>
      <use xlink:href="#DejaVuSans-69" transform="translate(168.644531 0)"/>
      <use xlink:href="#DejaVuSans-63" transform="translate(196.427734 0)"/>
     </g>
    </g>
    <g id="line2d_34">
     <path d="M 47.27 67.894687 
L 57.27 67.894687 
L 67.27 67.894687 
" style="fill: none; stroke: #2ca02c; stroke-width: 0.5; stroke-linecap: square"/>
    </g>
    <g id="text_20">
     <!-- Phasic -->
     <g transform="translate(75.27 71.394687) scale(0.1 -0.1)">
      <defs>
       <path id="DejaVuSans-50" d="M 1259 4147 
L 1259 2394 
L 2053 2394 
Q 2494 2394 2734 2622 
Q 2975 2850 2975 3272 
Q 2975 3691 2734 3919 
Q 2494 4147 2053 4147 
L 1259 4147 
z
M 628 4666 
L 2053 4666 
Q 2838 4666 3239 4311 
Q 3641 3956 3641 3272 
Q 3641 2581 3239 2228 
Q 2838 1875 2053 1875 
L 1259 1875 
L 1259 0 
L 628 0 
L 628 4666 
z
" transform="scale(0.015625)"/>
       <path id="DejaVuSans-68" d="M 3513 2113 
L 3513 0 
L 2938 0 
L 2938 2094 
Q 2938 2591 2744 2837 
Q 2550 3084 2163 3084 
Q 1697 3084 1428 2787 
Q 1159 2491 1159 1978 
L 1159 0 
L 581 0 
L 581 4863 
L 1159 4863 
L 1159 2956 
Q 1366 3272 1645 3428 
Q 1925 3584 2291 3584 
Q 2894 3584 3203 3211 
Q 3513 2838 3513 2113 
z
" transform="scale(0.015625)"/>
      </defs>
      <use xlink:href="#DejaVuSans-50"/>
      <use xlink:href="#DejaVuSans-68" transform="translate(60.302734 0)"/>
      <use xlink:href="#DejaVuSans-61" transform="translate(123.681641 0)"/>
      <use xlink:href="#DejaVuSans-73" transform="translate(184.960938 0)"/>
      <use xlink:href="#DejaVuSans-69" transform="translate(237.060547 0)"/>
      <use xlink:href="#DejaVuSans-63" transform="translate(264.84375 0)"/>
     </g>
    </g>
   </g>
  </g>
 </g>
 <defs>
  <clipPath id="p54ededb483">
   <rect x="38.27" y="25.44" width="411.73" height="278.2"/>
  </clipPath>
 </defs>
</svg>
