<?xml version="1.0" encoding="utf-8" standalone="no"?>
<!DOCTYPE svg PUBLIC "-//W3C//DTD SVG 1.1//EN"
  "http://www.w3.org/Graphics/SVG/1.1/DTD/svg11.dtd">
<svg xmlns:xlink="http://www.w3.org/1999/xlink" width="864pt" height="576pt" viewBox="0 0 864 576" xmlns="http://www.w3.org/2000/svg" version="1.1">
 <metadata>
  <rdf:RDF xmlns:dc="http://purl.org/dc/elements/1.1/" xmlns:cc="http://creativecommons.org/ns#" xmlns:rdf="http://www.w3.org/1999/02/22-rdf-syntax-ns#">
   <cc:Work>
    <dc:type rdf:resource="http://purl.org/dc/dcmitype/StillImage"/>
    <dc:date>2025-10-09T19:22:37.521453</dc:date>
    <dc:format>image/svg+xml</dc:format>
    <dc:creator>
     <cc:Agent>
      <dc:title>Matplotlib v3.10.0, https://matplotlib.org/</dc:title>
     </cc:Agent>
    </dc:creator>
   </cc:Work>
  </rdf:RDF>
 </metadata>
 <defs>
  <style type="text/css">*{stroke-linejoin: round; stroke-linecap: butt}</style>
 </defs>
 <g id="figure_1">
  <g id="patch_1">
   <path d="M 0 576 
L 864 576 
L 864 0 
L 0 0 
z
" style="fill: #ffffff"/>
  </g>
  <g id="axes_1">
   <g id="patch_2">
    <path d="M 47.81 534.04 
L 853.2 534.04 
L 853.2 48.14925 
L 47.81 48.14925 
z
" style="fill: #ffffff"/>
   </g>
   <g id="matplotlib.axis_1">
    <g id="xtick_1">
     <g id="line2d_1">
      <path d="M 84.418636 534.04 
L 84.418636 48.14925 
" clip-path="url(#p2ae55645a5)" style="fill: none; stroke: #b0b0b0; stroke-opacity: 0.3; stroke-width: 0.8; stroke-linecap: square"/>
     </g>
     <g id="line2d_2">
      <defs>
       <path id="mbc5514cf52" d="M 0 0 
L 0 3.5 
" style="stroke: #000000; stroke-width: 0.8"/>
      </defs>
      <g>
       <use xlink:href="#mbc5514cf52" x="84.418636" y="534.04" style="stroke: #000000; stroke-width: 0.8"/>
      </g>
     </g>
     <g id="text_1">
      <!-- 0 -->
      <g transform="translate(81.237386 548.638438) scale(0.1 -0.1)">
       <defs>
        <path id="DejaVuSans-30" d="M 2034 4250 
Q 1547 4250 1301 3770 
Q 1056 3291 1056 2328 
Q 1056 1369 1301 889 
Q 1547 409 2034 409 
Q 2525 409 2770 889 
Q 3016 1369 3016 2328 
Q 3016 3291 2770 3770 
Q 2525 4250 2034 4250 
z
M 2034 4750 
Q 2819 4750 3233 4129 
Q 3647 3509 3647 2328 
Q 3647 1150 3233 529 
Q 2819 -91 2034 -91 
Q 1250 -91 836 529 
Q 422 1150 422 2328 
Q 422 3509 836 4129 
Q 1250 4750 2034 4750 
z
" transform="scale(0.015625)"/>
       </defs>
       <use xlink:href="#DejaVuSans-30"/>
      </g>
     </g>
    </g>
    <g id="xtick_2">
     <g id="line2d_3">
      <path d="M 230.853182 534.04 
L 230.853182 48.14925 
" clip-path="url(#p2ae55645a5)" style="fill: none; stroke: #b0b0b0; stroke-opacity: 0.3; stroke-width: 0.8; stroke-linecap: square"/>
     </g>
     <g id="line2d_4">
      <g>
       <use xlink:href="#mbc5514cf52" x="230.853182" y="534.04" style="stroke: #000000; stroke-width: 0.8"/>
      </g>
     </g>
     <g id="text_2">
      <!-- 1 -->
      <g transform="translate(227.671932 548.638438) scale(0.1 -0.1)">
       <defs>
        <path id="DejaVuSans-31" d="M 794 531 
L 1825 531 
L 1825 4091 
L 703 3866 
L 703 4441 
L 1819 4666 
L 2450 4666 
L 2450 531 
L 3481 531 
L 3481 0 
L 794 0 
L 794 531 
z
" transform="scale(0.015625)"/>
       </defs>
       <use xlink:href="#DejaVuSans-31"/>
      </g>
     </g>
    </g>
    <g id="xtick_3">
     <g id="line2d_5">
      <path d="M 377.287727 534.04 
L 377.287727 48.14925 
" clip-path="url(#p2ae55645a5)" style="fill: none; stroke: #b0b0b0; stroke-opacity: 0.3; stroke-width: 0.8; stroke-linecap: square"/>
     </g>
     <g id="line2d_6">
      <g>
       <use xlink:href="#mbc5514cf52" x="377.287727" y="534.04" style="stroke: #000000; stroke-width: 0.8"/>
      </g>
     </g>
     <g id="text_3">
      <!-- 2 -->
      <g transform="translate(374.106477 548.638438) scale(0.1 -0.1)">
       <defs>
        <path id="DejaVuSans-32" d="M 1228 531 
L 3431 531 
L 3431 0 
L 469 0 
L 469 531 
Q 828 903 1448 1529 
Q 2069 2156 2228 2338 
Q 2531 2678 2651 2914 
Q 2772 3150 2772 3378 
Q 2772 3750 2511 3984 
Q 2250 4219 1831 4219 
Q 1534 4219 1204 4116 
Q 875 4013 500 3803 
L 500 4441 
Q 881 4594 1212 4672 
Q 1544 4750 1819 4750 
Q 2544 4750 2975 4387 
Q 3406 4025 3406 3419 
Q 3406 3131 3298 2873 
Q 3191 2616 2906 2266 
Q 2828 2175 2409 1742 
Q 1991 1309 1228 531 
z
" transform="scale(0.015625)"/>
       </defs>
       <use xlink:href="#DejaVuSans-32"/>
      </g>
     </g>
    </g>
    <g id="xtick_4">
     <g id="line2d_7">
      <path d="M 523.722273 534.04 
L 523.722273 48.14925 
" clip-path="url(#p2ae55645a5)" style="fill: none; stroke: #b0b0b0; stroke-opacity: 0.3; stroke-width: 0.8; stroke-linecap: square"/>
     </g>
     <g id="line2d_8">
      <g>
       <use xlink:href="#mbc5514cf52" x="523.722273" y="534.04" style="stroke: #000000; stroke-width: 0.8"/>
      </g>
     </g>
     <g id="text_4">
      <!-- 3 -->
      <g transform="translate(520.541023 548.638438) scale(0.1 -0.1)">
       <defs>
        <path id="DejaVuSans-33" d="M 2597 2516 
Q 3050 2419 3304 2112 
Q 3559 1806 3559 1356 
Q 3559 666 3084 287 
Q 2609 -91 1734 -91 
Q 1441 -91 1130 -33 
Q 819 25 488 141 
L 488 750 
Q 750 597 1062 519 
Q 1375 441 1716 441 
Q 2309 441 2620 675 
Q 2931 909 2931 1356 
Q 2931 1769 2642 2001 
Q 2353 2234 1838 2234 
L 1294 2234 
L 1294 2753 
L 1863 2753 
Q 2328 2753 2575 2939 
Q 2822 3125 2822 3475 
Q 2822 3834 2567 4026 
Q 2313 4219 1838 4219 
Q 1578 4219 1281 4162 
Q 984 4106 628 3988 
L 628 4550 
Q 988 4650 1302 4700 
Q 1616 4750 1894 4750 
Q 2613 4750 3031 4423 
Q 3450 4097 3450 3541 
Q 3450 3153 3228 2886 
Q 3006 2619 2597 2516 
z
" transform="scale(0.015625)"/>
       </defs>
       <use xlink:href="#DejaVuSans-33"/>
      </g>
     </g>
    </g>
    <g id="xtick_5">
     <g id="line2d_9">
      <path d="M 670.156818 534.04 
L 670.156818 48.14925 
" clip-path="url(#p2ae55645a5)" style="fill: none; stroke: #b0b0b0; stroke-opacity: 0.3; stroke-width: 0.8; stroke-linecap: square"/>
     </g>
     <g id="line2d_10">
      <g>
       <use xlink:href="#mbc5514cf52" x="670.156818" y="534.04" style="stroke: #000000; stroke-width: 0.8"/>
      </g>
     </g>
     <g id="text_5">
      <!-- 4 -->
      <g transform="translate(666.975568 548.638438) scale(0.1 -0.1)">
       <defs>
        <path id="DejaVuSans-34" d="M 2419 4116 
L 825 1625 
L 2419 1625 
L 2419 4116 
z
M 2253 4666 
L 3047 4666 
L 3047 1625 
L 3713 1625 
L 3713 1100 
L 3047 1100 
L 3047 0 
L 2419 0 
L 2419 1100 
L 313 1100 
L 313 1709 
L 2253 4666 
z
" transform="scale(0.015625)"/>
       </defs>
       <use xlink:href="#DejaVuSans-34"/>
      </g>
     </g>
    </g>
    <g id="xtick_6">
     <g id="line2d_11">
      <path d="M 816.591364 534.04 
L 816.591364 48.14925 
" clip-path="url(#p2ae55645a5)" style="fill: none; stroke: #b0b0b0; stroke-opacity: 0.3; stroke-width: 0.8; stroke-linecap: square"/>
     </g>
     <g id="line2d_12">
      <g>
       <use xlink:href="#mbc5514cf52" x="816.591364" y="534.04" style="stroke: #000000; stroke-width: 0.8"/>
      </g>
     </g>
     <g id="text_6">
      <!-- 5 -->
      <g transform="translate(813.410114 548.638438) scale(0.1 -0.1)">
       <defs>
        <path id="DejaVuSans-35" d="M 691 4666 
L 3169 4666 
L 3169 4134 
L 1269 4134 
L 1269 2991 
Q 1406 3038 1543 3061 
Q 1681 3084 1819 3084 
Q 2600 3084 3056 2656 
Q 3513 2228 3513 1497 
Q 3513 744 3044 326 
Q 2575 -91 1722 -91 
Q 1428 -91 1123 -41 
Q 819 9 494 109 
L 494 744 
Q 775 591 1075 516 
Q 1375 441 1709 441 
Q 2250 441 2565 725 
Q 2881 1009 2881 1497 
Q 2881 1984 2565 2268 
Q 2250 2553 1709 2553 
Q 1456 2553 1204 2497 
Q 953 2441 691 2322 
L 691 4666 
z
" transform="scale(0.015625)"/>
       </defs>
       <use xlink:href="#DejaVuSans-35"/>
      </g>
     </g>
    </g>
    <g id="text_7">
     <!-- Time (minutes) -->
     <g transform="translate(412.5425 562.316563) scale(0.1 -0.1)">
      <defs>
       <path id="DejaVuSans-54" d="M -19 4666 
L 3928 4666 
L 3928 4134 
L 2272 4134 
L 2272 0 
L 1638 0 
L 1638 4134 
L -19 4134 
L -19 4666 
z
" transform="scale(0.015625)"/>
       <path id="DejaVuSans-69" d="M 603 3500 
L 1178 3500 
L 1178 0 
L 603 0 
L 603 3500 
z
M 603 4863 
L 1178 4863 
L 1178 4134 
L 603 4134 
L 603 4863 
z
" transform="scale(0.015625)"/>
       <path id="DejaVuSans-6d" d="M 3328 2828 
Q 3544 3216 3844 3400 
Q 4144 3584 4550 3584 
Q 5097 3584 5394 3201 
Q 5691 2819 5691 2113 
L 5691 0 
L 5113 0 
L 5113 2094 
Q 5113 2597 4934 2840 
Q 4756 3084 4391 3084 
Q 3944 3084 3684 2787 
Q 3425 2491 3425 1978 
L 3425 0 
L 2847 0 
L 2847 2094 
Q 2847 2600 2669 2842 
Q 2491 3084 2119 3084 
Q 1678 3084 1418 2786 
Q 1159 2488 1159 1978 
L 1159 0 
L 581 0 
L 581 3500 
L 1159 3500 
L 1159 2956 
Q 1356 3278 1631 3431 
Q 1906 3584 2284 3584 
Q 2666 3584 2933 3390 
Q 3200 3197 3328 2828 
z
" transform="scale(0.015625)"/>
       <path id="DejaVuSans-65" d="M 3597 1894 
L 3597 1613 
L 953 1613 
Q 991 1019 1311 708 
Q 1631 397 2203 397 
Q 2534 397 2845 478 
Q 3156 559 3463 722 
L 3463 178 
Q 3153 47 2828 -22 
Q 2503 -91 2169 -91 
Q 1331 -91 842 396 
Q 353 884 353 1716 
Q 353 2575 817 3079 
Q 1281 3584 2069 3584 
Q 2775 3584 3186 3129 
Q 3597 2675 3597 1894 
z
M 3022 2063 
Q 3016 2534 2758 2815 
Q 2500 3097 2075 3097 
Q 1594 3097 1305 2825 
Q 1016 2553 972 2059 
L 3022 2063 
z
" transform="scale(0.015625)"/>
       <path id="DejaVuSans-20" transform="scale(0.015625)"/>
       <path id="DejaVuSans-28" d="M 1984 4856 
Q 1566 4138 1362 3434 
Q 1159 2731 1159 2009 
Q 1159 1288 1364 580 
Q 1569 -128 1984 -844 
L 1484 -844 
Q 1016 -109 783 600 
Q 550 1309 550 2009 
Q 550 2706 781 3412 
Q 1013 4119 1484 4856 
L 1984 4856 
z
" transform="scale(0.015625)"/>
       <path id="DejaVuSans-6e" d="M 3513 2113 
L 3513 0 
L 2938 0 
L 2938 2094 
Q 2938 2591 2744 2837 
Q 2550 3084 2163 3084 
Q 1697 3084 1428 2787 
Q 1159 2491 1159 1978 
L 1159 0 
L 581 0 
L 581 3500 
L 1159 3500 
L 1159 2956 
Q 1366 3272 1645 3428 
Q 1925 3584 2291 3584 
Q 2894 3584 3203 3211 
Q 3513 2838 3513 2113 
z
" transform="scale(0.015625)"/>
       <path id="DejaVuSans-75" d="M 544 1381 
L 544 3500 
L 1119 3500 
L 1119 1403 
Q 1119 906 1312 657 
Q 1506 409 1894 409 
Q 2359 409 2629 706 
Q 2900 1003 2900 1516 
L 2900 3500 
L 3475 3500 
L 3475 0 
L 2900 0 
L 2900 538 
Q 2691 219 2414 64 
Q 2138 -91 1772 -91 
Q 1169 -91 856 284 
Q 544 659 544 1381 
z
M 1991 3584 
L 1991 3584 
z
" transform="scale(0.015625)"/>
       <path id="DejaVuSans-74" d="M 1172 4494 
L 1172 3500 
L 2356 3500 
L 2356 3053 
L 1172 3053 
L 1172 1153 
Q 1172 725 1289 603 
Q 1406 481 1766 481 
L 2356 481 
L 2356 0 
L 1766 0 
Q 1100 0 847 248 
Q 594 497 594 1153 
L 594 3053 
L 172 3053 
L 172 3500 
L 594 3500 
L 594 4494 
L 1172 4494 
z
" transform="scale(0.015625)"/>
       <path id="DejaVuSans-73" d="M 2834 3397 
L 2834 2853 
Q 2591 2978 2328 3040 
Q 2066 3103 1784 3103 
Q 1356 3103 1142 2972 
Q 928 2841 928 2578 
Q 928 2378 1081 2264 
Q 1234 2150 1697 2047 
L 1894 2003 
Q 2506 1872 2764 1633 
Q 3022 1394 3022 966 
Q 3022 478 2636 193 
Q 2250 -91 1575 -91 
Q 1294 -91 989 -36 
Q 684 19 347 128 
L 347 722 
Q 666 556 975 473 
Q 1284 391 1588 391 
Q 1994 391 2212 530 
Q 2431 669 2431 922 
Q 2431 1156 2273 1281 
Q 2116 1406 1581 1522 
L 1381 1569 
Q 847 1681 609 1914 
Q 372 2147 372 2553 
Q 372 3047 722 3315 
Q 1072 3584 1716 3584 
Q 2034 3584 2315 3537 
Q 2597 3491 2834 3397 
z
" transform="scale(0.015625)"/>
       <path id="DejaVuSans-29" d="M 513 4856 
L 1013 4856 
Q 1481 4119 1714 3412 
Q 1947 2706 1947 2009 
Q 1947 1309 1714 600 
Q 1481 -109 1013 -844 
L 513 -844 
Q 928 -128 1133 580 
Q 1338 1288 1338 2009 
Q 1338 2731 1133 3434 
Q 928 4138 513 4856 
z
" transform="scale(0.015625)"/>
      </defs>
      <use xlink:href="#DejaVuSans-54"/>
      <use xlink:href="#DejaVuSans-69" transform="translate(57.958984 0)"/>
      <use xlink:href="#DejaVuSans-6d" transform="translate(85.742188 0)"/>
      <use xlink:href="#DejaVuSans-65" transform="translate(183.154297 0)"/>
      <use xlink:href="#DejaVuSans-20" transform="translate(244.677734 0)"/>
      <use xlink:href="#DejaVuSans-28" transform="translate(276.464844 0)"/>
      <use xlink:href="#DejaVuSans-6d" transform="translate(315.478516 0)"/>
      <use xlink:href="#DejaVuSans-69" transform="translate(412.890625 0)"/>
      <use xlink:href="#DejaVuSans-6e" transform="translate(440.673828 0)"/>
      <use xlink:href="#DejaVuSans-75" transform="translate(504.052734 0)"/>
      <use xlink:href="#DejaVuSans-74" transform="translate(567.431641 0)"/>
      <use xlink:href="#DejaVuSans-65" transform="translate(606.640625 0)"/>
      <use xlink:href="#DejaVuSans-73" transform="translate(668.164062 0)"/>
      <use xlink:href="#DejaVuSans-29" transform="translate(720.263672 0)"/>
     </g>
    </g>
   </g>
   <g id="matplotlib.axis_2">
    <g id="ytick_1">
     <g id="line2d_13">
      <path d="M 47.81 465.736453 
L 853.2 465.736453 
" clip-path="url(#p2ae55645a5)" style="fill: none; stroke: #b0b0b0; stroke-opacity: 0.3; stroke-width: 0.8; stroke-linecap: square"/>
     </g>
     <g id="line2d_14">
      <defs>
       <path id="m693199072a" d="M 0 0 
L -3.5 0 
" style="stroke: #000000; stroke-width: 0.8"/>
      </defs>
      <g>
       <use xlink:href="#m693199072a" x="47.81" y="465.736453" style="stroke: #000000; stroke-width: 0.8"/>
      </g>
     </g>
     <g id="text_8">
      <!-- 2.8 -->
      <g transform="translate(24.906875 469.535672) scale(0.1 -0.1)">
       <defs>
        <path id="DejaVuSans-2e" d="M 684 794 
L 1344 794 
L 1344 0 
L 684 0 
L 684 794 
z
" transform="scale(0.015625)"/>
        <path id="DejaVuSans-38" d="M 2034 2216 
Q 1584 2216 1326 1975 
Q 1069 1734 1069 1313 
Q 1069 891 1326 650 
Q 1584 409 2034 409 
Q 2484 409 2743 651 
Q 3003 894 3003 1313 
Q 3003 1734 2745 1975 
Q 2488 2216 2034 2216 
z
M 1403 2484 
Q 997 2584 770 2862 
Q 544 3141 544 3541 
Q 544 4100 942 4425 
Q 1341 4750 2034 4750 
Q 2731 4750 3128 4425 
Q 3525 4100 3525 3541 
Q 3525 3141 3298 2862 
Q 3072 2584 2669 2484 
Q 3125 2378 3379 2068 
Q 3634 1759 3634 1313 
Q 3634 634 3220 271 
Q 2806 -91 2034 -91 
Q 1263 -91 848 271 
Q 434 634 434 1313 
Q 434 1759 690 2068 
Q 947 2378 1403 2484 
z
M 1172 3481 
Q 1172 3119 1398 2916 
Q 1625 2713 2034 2713 
Q 2441 2713 2670 2916 
Q 2900 3119 2900 3481 
Q 2900 3844 2670 4047 
Q 2441 4250 2034 4250 
Q 1625 4250 1398 4047 
Q 1172 3844 1172 3481 
z
" transform="scale(0.015625)"/>
       </defs>
       <use xlink:href="#DejaVuSans-32"/>
       <use xlink:href="#DejaVuSans-2e" transform="translate(63.623047 0)"/>
       <use xlink:href="#DejaVuSans-38" transform="translate(95.410156 0)"/>
      </g>
     </g>
    </g>
    <g id="ytick_2">
     <g id="line2d_15">
      <path d="M 47.81 394.675784 
L 853.2 394.675784 
" clip-path="url(#p2ae55645a5)" style="fill: none; stroke: #b0b0b0; stroke-opacity: 0.3; stroke-width: 0.8; stroke-linecap: square"/>
     </g>
     <g id="line2d_16">
      <g>
       <use xlink:href="#m693199072a" x="47.81" y="394.675784" style="stroke: #000000; stroke-width: 0.8"/>
      </g>
     </g>
     <g id="text_9">
      <!-- 3.0 -->
      <g transform="translate(24.906875 398.475003) scale(0.1 -0.1)">
       <use xlink:href="#DejaVuSans-33"/>
       <use xlink:href="#DejaVuSans-2e" transform="translate(63.623047 0)"/>
       <use xlink:href="#DejaVuSans-30" transform="translate(95.410156 0)"/>
      </g>
     </g>
    </g>
    <g id="ytick_3">
     <g id="line2d_17">
      <path d="M 47.81 323.615116 
L 853.2 323.615116 
" clip-path="url(#p2ae55645a5)" style="fill: none; stroke: #b0b0b0; stroke-opacity: 0.3; stroke-width: 0.8; stroke-linecap: square"/>
     </g>
     <g id="line2d_18">
      <g>
       <use xlink:href="#m693199072a" x="47.81" y="323.615116" style="stroke: #000000; stroke-width: 0.8"/>
      </g>
     </g>
     <g id="text_10">
      <!-- 3.2 -->
      <g transform="translate(24.906875 327.414335) scale(0.1 -0.1)">
       <use xlink:href="#DejaVuSans-33"/>
       <use xlink:href="#DejaVuSans-2e" transform="translate(63.623047 0)"/>
       <use xlink:href="#DejaVuSans-32" transform="translate(95.410156 0)"/>
      </g>
     </g>
    </g>
    <g id="ytick_4">
     <g id="line2d_19">
      <path d="M 47.81 252.554448 
L 853.2 252.554448 
" clip-path="url(#p2ae55645a5)" style="fill: none; stroke: #b0b0b0; stroke-opacity: 0.3; stroke-width: 0.8; stroke-linecap: square"/>
     </g>
     <g id="line2d_20">
      <g>
       <use xlink:href="#m693199072a" x="47.81" y="252.554448" style="stroke: #000000; stroke-width: 0.8"/>
      </g>
     </g>
     <g id="text_11">
      <!-- 3.4 -->
      <g transform="translate(24.906875 256.353667) scale(0.1 -0.1)">
       <use xlink:href="#DejaVuSans-33"/>
       <use xlink:href="#DejaVuSans-2e" transform="translate(63.623047 0)"/>
       <use xlink:href="#DejaVuSans-34" transform="translate(95.410156 0)"/>
      </g>
     </g>
    </g>
    <g id="ytick_5">
     <g id="line2d_21">
      <path d="M 47.81 181.49378 
L 853.2 181.49378 
" clip-path="url(#p2ae55645a5)" style="fill: none; stroke: #b0b0b0; stroke-opacity: 0.3; stroke-width: 0.8; stroke-linecap: square"/>
     </g>
     <g id="line2d_22">
      <g>
       <use xlink:href="#m693199072a" x="47.81" y="181.49378" style="stroke: #000000; stroke-width: 0.8"/>
      </g>
     </g>
     <g id="text_12">
      <!-- 3.6 -->
      <g transform="translate(24.906875 185.292998) scale(0.1 -0.1)">
       <defs>
        <path id="DejaVuSans-36" d="M 2113 2584 
Q 1688 2584 1439 2293 
Q 1191 2003 1191 1497 
Q 1191 994 1439 701 
Q 1688 409 2113 409 
Q 2538 409 2786 701 
Q 3034 994 3034 1497 
Q 3034 2003 2786 2293 
Q 2538 2584 2113 2584 
z
M 3366 4563 
L 3366 3988 
Q 3128 4100 2886 4159 
Q 2644 4219 2406 4219 
Q 1781 4219 1451 3797 
Q 1122 3375 1075 2522 
Q 1259 2794 1537 2939 
Q 1816 3084 2150 3084 
Q 2853 3084 3261 2657 
Q 3669 2231 3669 1497 
Q 3669 778 3244 343 
Q 2819 -91 2113 -91 
Q 1303 -91 875 529 
Q 447 1150 447 2328 
Q 447 3434 972 4092 
Q 1497 4750 2381 4750 
Q 2619 4750 2861 4703 
Q 3103 4656 3366 4563 
z
" transform="scale(0.015625)"/>
       </defs>
       <use xlink:href="#DejaVuSans-33"/>
       <use xlink:href="#DejaVuSans-2e" transform="translate(63.623047 0)"/>
       <use xlink:href="#DejaVuSans-36" transform="translate(95.410156 0)"/>
      </g>
     </g>
    </g>
    <g id="ytick_6">
     <g id="line2d_23">
      <path d="M 47.81 110.433111 
L 853.2 110.433111 
" clip-path="url(#p2ae55645a5)" style="fill: none; stroke: #b0b0b0; stroke-opacity: 0.3; stroke-width: 0.8; stroke-linecap: square"/>
     </g>
     <g id="line2d_24">
      <g>
       <use xlink:href="#m693199072a" x="47.81" y="110.433111" style="stroke: #000000; stroke-width: 0.8"/>
      </g>
     </g>
     <g id="text_13">
      <!-- 3.8 -->
      <g transform="translate(24.906875 114.23233) scale(0.1 -0.1)">
       <use xlink:href="#DejaVuSans-33"/>
       <use xlink:href="#DejaVuSans-2e" transform="translate(63.623047 0)"/>
       <use xlink:href="#DejaVuSans-38" transform="translate(95.410156 0)"/>
      </g>
     </g>
    </g>
    <g id="text_14">
     <!-- EDA (μS) -->
     <g transform="translate(18.827187 313.282906) rotate(-90) scale(0.1 -0.1)">
      <defs>
       <path id="DejaVuSans-45" d="M 628 4666 
L 3578 4666 
L 3578 4134 
L 1259 4134 
L 1259 2753 
L 3481 2753 
L 3481 2222 
L 1259 2222 
L 1259 531 
L 3634 531 
L 3634 0 
L 628 0 
L 628 4666 
z
" transform="scale(0.015625)"/>
       <path id="DejaVuSans-44" d="M 1259 4147 
L 1259 519 
L 2022 519 
Q 2988 519 3436 956 
Q 3884 1394 3884 2338 
Q 3884 3275 3436 3711 
Q 2988 4147 2022 4147 
L 1259 4147 
z
M 628 4666 
L 1925 4666 
Q 3281 4666 3915 4102 
Q 4550 3538 4550 2338 
Q 4550 1131 3912 565 
Q 3275 0 1925 0 
L 628 0 
L 628 4666 
z
" transform="scale(0.015625)"/>
       <path id="DejaVuSans-41" d="M 2188 4044 
L 1331 1722 
L 3047 1722 
L 2188 4044 
z
M 1831 4666 
L 2547 4666 
L 4325 0 
L 3669 0 
L 3244 1197 
L 1141 1197 
L 716 0 
L 50 0 
L 1831 4666 
z
" transform="scale(0.015625)"/>
       <path id="DejaVuSans-3bc" d="M 544 -1331 
L 544 3500 
L 1119 3500 
L 1119 1325 
Q 1119 872 1334 640 
Q 1550 409 1972 409 
Q 2434 409 2667 671 
Q 2900 934 2900 1459 
L 2900 3500 
L 3475 3500 
L 3475 806 
Q 3475 619 3529 530 
Q 3584 441 3700 441 
Q 3728 441 3778 458 
Q 3828 475 3916 513 
L 3916 50 
Q 3788 -22 3673 -56 
Q 3559 -91 3450 -91 
Q 3234 -91 3106 31 
Q 2978 153 2931 403 
Q 2775 156 2548 32 
Q 2322 -91 2016 -91 
Q 1697 -91 1473 31 
Q 1250 153 1119 397 
L 1119 -1331 
L 544 -1331 
z
" transform="scale(0.015625)"/>
       <path id="DejaVuSans-53" d="M 3425 4513 
L 3425 3897 
Q 3066 4069 2747 4153 
Q 2428 4238 2131 4238 
Q 1616 4238 1336 4038 
Q 1056 3838 1056 3469 
Q 1056 3159 1242 3001 
Q 1428 2844 1947 2747 
L 2328 2669 
Q 3034 2534 3370 2195 
Q 3706 1856 3706 1288 
Q 3706 609 3251 259 
Q 2797 -91 1919 -91 
Q 1588 -91 1214 -16 
Q 841 59 441 206 
L 441 856 
Q 825 641 1194 531 
Q 1563 422 1919 422 
Q 2459 422 2753 634 
Q 3047 847 3047 1241 
Q 3047 1584 2836 1778 
Q 2625 1972 2144 2069 
L 1759 2144 
Q 1053 2284 737 2584 
Q 422 2884 422 3419 
Q 422 4038 858 4394 
Q 1294 4750 2059 4750 
Q 2388 4750 2728 4690 
Q 3069 4631 3425 4513 
z
" transform="scale(0.015625)"/>
      </defs>
      <use xlink:href="#DejaVuSans-45"/>
      <use xlink:href="#DejaVuSans-44" transform="translate(63.183594 0)"/>
      <use xlink:href="#DejaVuSans-41" transform="translate(138.435547 0)"/>
      <use xlink:href="#DejaVuSans-20" transform="translate(206.84375 0)"/>
      <use xlink:href="#DejaVuSans-28" transform="translate(238.630859 0)"/>
      <use xlink:href="#DejaVuSans-3bc" transform="translate(277.644531 0)"/>
      <use xlink:href="#DejaVuSans-53" transform="translate(341.267578 0)"/>
      <use xlink:href="#DejaVuSans-29" transform="translate(404.744141 0)"/>
     </g>
    </g>
   </g>
   <g id="line2d_25">
    <path d="M 84.418636 375.269931 
L 85.639942 368.639612 
L 88.082553 354.033414 
L 89.303859 346.998621 
L 90.525165 338.345242 
L 92.967776 319.036832 
L 93.578429 316.114371 
L 94.189081 314.641569 
L 94.799734 314.62867 
L 95.410387 315.863167 
L 96.02104 317.970658 
L 97.852998 325.280986 
L 98.463651 327.020135 
L 99.074304 328.230013 
L 99.684957 328.988376 
L 100.906262 329.773833 
L 101.516915 330.140578 
L 102.127568 330.669196 
L 102.738221 331.425116 
L 103.959526 333.511544 
L 104.570179 334.588387 
L 105.180832 335.394888 
L 105.791485 335.646495 
L 106.402138 335.04761 
L 107.012791 333.341261 
L 107.623443 330.371186 
L 108.234096 326.153024 
L 110.676707 306.050048 
L 111.28736 304.385403 
L 111.898013 305.601121 
L 112.508666 309.66693 
L 114.340624 326.92756 
L 114.951277 328.022738 
L 115.56193 324.250746 
L 116.172583 315.54837 
L 117.393888 288.558468 
L 118.615194 261.751468 
L 119.225847 252.092168 
L 119.8365 245.508736 
L 120.447153 241.709674 
L 121.057805 240.155753 
L 121.668458 240.322733 
L 122.279111 241.856686 
L 122.889764 244.606775 
L 123.500417 248.565202 
L 124.111069 253.762016 
L 125.332375 267.58306 
L 127.774986 299.87608 
L 128.996292 312.326698 
L 130.217598 320.976081 
L 131.438903 327.151401 
L 136.324126 348.626478 
L 137.545431 352.173654 
L 139.988043 357.907124 
L 141.209348 360.482669 
L 141.820001 361.487793 
L 142.430654 362.207916 
L 143.041307 362.620964 
L 143.65196 362.763437 
L 145.483918 362.713425 
L 146.094571 363.028522 
L 146.705224 363.69107 
L 147.315876 364.693553 
L 148.537182 367.104479 
L 149.147835 367.936512 
L 149.758488 368.040436 
L 150.369141 367.095871 
L 150.979793 364.917404 
L 151.590446 361.52362 
L 152.811752 352.260752 
L 154.033057 342.858698 
L 154.64371 339.11274 
L 155.254363 336.169865 
L 156.475669 332.002979 
L 157.696974 328.166265 
L 158.307627 325.752485 
L 159.528933 319.593817 
L 161.360891 309.343908 
L 161.971544 306.755578 
L 162.582197 305.025693 
L 163.19285 304.284662 
L 163.803503 304.519368 
L 164.414155 305.571754 
L 165.635461 308.980349 
L 166.246114 310.680274 
L 166.856767 312.012862 
L 167.467419 312.830882 
L 168.078072 313.106755 
L 168.688725 312.914291 
L 169.299378 312.393299 
L 170.520684 311.040547 
L 171.131336 310.525805 
L 171.741989 310.280507 
L 172.352642 310.366628 
L 172.963295 310.785515 
L 174.1846 312.321295 
L 175.405906 313.865541 
L 176.016559 314.262541 
L 176.627212 314.267465 
L 177.237865 313.852722 
L 177.848517 313.068722 
L 179.680476 309.957875 
L 180.291129 309.257816 
L 180.901781 308.942242 
L 181.512434 309.040373 
L 182.123087 309.512918 
L 183.344393 311.208127 
L 185.176351 314.058537 
L 185.787004 314.781169 
L 186.397657 315.325833 
L 187.00831 315.689148 
L 188.229615 315.990496 
L 189.450921 316.195948 
L 190.061574 316.514382 
L 190.672226 317.10664 
L 191.282879 318.018535 
L 192.504185 320.570591 
L 193.114838 321.863541 
L 193.725491 322.826421 
L 194.336143 323.192831 
L 194.946796 322.757084 
L 195.557449 321.422272 
L 196.168102 319.227468 
L 197.389407 313.087728 
L 198.610713 307.000668 
L 199.221366 305.044175 
L 199.832019 304.327722 
L 200.442672 305.092876 
L 201.053324 307.394874 
L 201.663977 311.074746 
L 202.885283 321.01618 
L 204.106588 331.149105 
L 204.717241 335.337977 
L 205.327894 338.734005 
L 205.938547 341.336877 
L 206.5492 343.192356 
L 207.159853 344.334313 
L 207.770505 344.757972 
L 208.381158 344.423818 
L 208.991811 343.279484 
L 209.602464 341.286293 
L 210.213117 338.441742 
L 210.823769 334.79219 
L 212.045075 325.478391 
L 213.266381 314.269307 
L 215.708992 290.323887 
L 216.319645 285.567039 
L 216.930298 282.006431 
L 217.54095 279.714019 
L 218.151603 278.396197 
L 218.762256 277.426789 
L 219.372909 276.031138 
L 219.983562 273.552471 
L 220.594214 269.6904 
L 221.81552 258.886625 
L 223.036826 248.398414 
L 223.647479 244.584402 
L 224.868784 239.212355 
L 225.479437 236.515903 
L 226.09009 233.057908 
L 226.700743 228.595097 
L 229.143354 207.333807 
L 229.754007 204.087193 
L 230.36466 202.529031 
L 230.975312 202.689667 
L 231.585965 204.361088 
L 232.196618 207.148608 
L 234.028576 216.87694 
L 234.639229 218.822671 
L 235.249882 219.479205 
L 235.860535 218.703111 
L 236.471188 216.532442 
L 237.081841 213.156016 
L 238.303146 203.903632 
L 240.135105 186.859888 
L 241.967063 166.655375 
L 243.799022 145.920466 
L 245.020327 135.542752 
L 246.241633 128.298419 
L 247.462938 121.46193 
L 248.684244 112.842329 
L 249.90555 103.985612 
L 250.516203 100.824209 
L 251.126855 99.222599 
L 251.737508 99.466132 
L 252.348161 101.549499 
L 252.958814 105.190307 
L 254.180119 115.162195 
L 255.401425 125.419199 
L 256.622731 133.982722 
L 259.675995 152.357411 
L 260.8973 158.801124 
L 261.507953 161.218454 
L 262.118606 162.917729 
L 262.729259 163.851784 
L 263.339912 164.04863 
L 263.950564 163.606111 
L 264.561217 162.686059 
L 265.782523 160.337646 
L 266.393176 159.460394 
L 267.003829 159.135376 
L 267.614481 159.526906 
L 268.225134 160.624834 
L 269.44644 163.650239 
L 270.057093 164.286271 
L 270.667745 163.199931 
L 271.278398 159.574372 
L 271.889051 152.876552 
L 272.499704 143.04747 
L 273.72101 116.59039 
L 274.942315 89.621475 
L 275.552968 79.483783 
L 276.163621 72.90514 
L 276.774274 70.235193 
L 277.384926 71.29099 
L 277.995579 75.47136 
L 278.606232 81.93279 
L 281.659496 120.723276 
L 282.270149 126.172979 
L 282.880802 130.320685 
L 283.491455 133.208894 
L 284.102107 135.020603 
L 284.71276 136.057787 
L 285.934066 137.285606 
L 286.544719 138.13709 
L 287.155372 139.412035 
L 288.376677 143.176531 
L 289.597983 147.404641 
L 290.208636 149.147165 
L 290.819288 150.448415 
L 291.429941 151.284629 
L 292.040594 151.732733 
L 293.872553 152.470183 
L 294.483205 153.123522 
L 295.093858 154.165366 
L 295.704511 155.585079 
L 298.757775 164.136016 
L 299.368428 165.276359 
L 299.979081 166.115161 
L 300.589733 166.69189 
L 301.811039 167.323087 
L 303.032345 167.747341 
L 303.642998 168.048886 
L 304.25365 168.479734 
L 304.864303 169.074654 
L 305.474956 169.851383 
L 306.696262 171.928846 
L 309.749526 178.105969 
L 310.970831 179.71977 
L 311.581484 180.244302 
L 312.80279 180.900386 
L 315.245401 181.71811 
L 316.466707 181.920944 
L 317.688012 181.744238 
L 320.130624 180.96895 
L 320.741276 181.0091 
L 321.351929 181.221955 
L 321.962582 181.603604 
L 323.183888 182.74361 
L 326.237152 185.996819 
L 327.458457 187.06432 
L 328.679763 187.779125 
L 329.290416 187.920206 
L 329.901069 187.882052 
L 330.511722 187.662767 
L 331.733027 186.829562 
L 332.954333 186.003075 
L 333.564986 185.818845 
L 334.175638 185.854568 
L 335.396944 186.434101 
L 336.007597 186.749687 
L 336.61825 186.870666 
L 337.228902 186.647184 
L 337.839555 185.983942 
L 338.450208 184.869088 
L 339.671514 181.69018 
L 340.892819 178.518594 
L 341.503472 177.4289 
L 342.114125 176.832051 
L 342.724778 176.747626 
L 343.335431 177.116064 
L 343.946083 177.81916 
L 346.388695 181.232831 
L 347.61 182.301685 
L 348.831306 183.301883 
L 349.441959 183.98735 
L 350.663264 185.910026 
L 351.88457 188.117178 
L 352.495223 188.923538 
L 353.105876 189.234502 
L 353.716529 188.82947 
L 354.327181 187.541884 
L 354.937834 185.306458 
L 355.548487 182.195813 
L 357.991098 166.913362 
L 358.601751 164.239134 
L 359.212404 162.512185 
L 359.823057 161.697138 
L 360.43371 161.582056 
L 361.655015 161.998952 
L 362.265668 161.733992 
L 362.876321 160.756752 
L 363.486974 158.987826 
L 365.929585 149.399819 
L 366.540238 148.621707 
L 367.150891 149.175847 
L 367.761543 151.025907 
L 368.982849 157.161253 
L 369.593502 160.337496 
L 370.204155 162.900053 
L 370.814807 164.613331 
L 371.42546 165.566871 
L 372.646766 166.724678 
L 373.868071 168.74461 
L 374.478724 169.28417 
L 375.089377 168.058982 
L 375.70003 163.693537 
L 376.310683 155.159773 
L 376.921336 142.307657 
L 378.753294 93.671973 
L 379.363947 82.960569 
L 379.9746 78.83283 
L 380.585252 81.864644 
L 381.195905 91.18322 
L 382.417211 120.290535 
L 383.638517 148.004897 
L 384.249169 157.612775 
L 384.859822 164.023725 
L 385.470475 167.811847 
L 386.081128 169.907966 
L 387.302433 172.862186 
L 387.913086 175.100836 
L 388.523739 178.23073 
L 389.745045 186.584903 
L 390.96635 195.43825 
L 392.187656 202.462589 
L 393.408962 207.245865 
L 395.24092 212.502263 
L 397.683531 219.210652 
L 398.904837 221.904458 
L 400.126143 223.964271 
L 402.568754 227.676941 
L 403.79006 229.859179 
L 405.011365 232.45889 
L 406.232671 235.803051 
L 407.453976 240.031531 
L 409.285935 246.837983 
L 410.507241 250.474624 
L 411.728546 253.082079 
L 416.613769 261.44856 
L 417.835074 263.266814 
L 420.277686 266.331688 
L 422.720297 269.17048 
L 423.941602 270.362807 
L 425.773561 271.752838 
L 427.605519 273.100951 
L 430.048131 275.040002 
L 431.269436 275.524742 
L 432.490742 275.77068 
L 433.101395 276.006351 
L 433.712048 276.435986 
L 434.3227 277.092751 
L 435.544006 278.744302 
L 436.154659 279.299514 
L 436.765312 279.264516 
L 437.375964 278.355828 
L 437.986617 276.431645 
L 438.59727 273.587615 
L 439.818576 266.938347 
L 440.429229 264.574619 
L 441.039881 263.873234 
L 441.650534 265.341117 
L 442.261187 269.061967 
L 443.482493 281.178636 
L 444.703798 293.021618 
L 445.314451 296.580247 
L 445.925104 298.110326 
L 446.535757 297.880638 
L 447.14641 296.509024 
L 448.367715 293.295689 
L 448.978368 292.625557 
L 449.589021 292.959892 
L 450.199674 294.271253 
L 450.810326 296.349119 
L 453.252938 306.170087 
L 453.86359 307.81623 
L 454.474243 308.951272 
L 455.084896 309.615093 
L 455.695549 309.894422 
L 456.306202 309.904914 
L 457.527507 309.651402 
L 458.13816 309.656393 
L 458.748813 309.904057 
L 459.359466 310.465889 
L 459.970119 311.355946 
L 461.191424 313.83823 
L 462.41273 316.259979 
L 463.023383 317.036309 
L 463.634036 317.390729 
L 464.244688 317.327161 
L 464.855341 316.933184 
L 466.6873 315.33019 
L 467.297952 315.169204 
L 467.908605 315.365467 
L 468.519258 315.954365 
L 469.129911 316.934907 
L 469.740564 318.280415 
L 470.961869 321.869961 
L 473.404481 330.120987 
L 474.015133 331.673689 
L 474.625786 332.811478 
L 475.236439 333.526154 
L 475.847092 333.889129 
L 477.67905 334.42385 
L 478.289703 334.967032 
L 478.900356 335.845404 
L 480.121662 338.389596 
L 481.342967 340.997371 
L 481.95362 341.917415 
L 482.564273 342.452407 
L 483.174926 342.605408 
L 483.785579 342.464551 
L 485.006884 341.960679 
L 485.617537 341.970387 
L 486.22819 342.344456 
L 486.838843 343.125516 
L 488.060148 345.561724 
L 488.670801 346.813865 
L 489.281454 347.733055 
L 489.892107 348.06452 
L 490.502759 347.633293 
L 491.113412 346.391956 
L 491.724065 344.442831 
L 493.556024 337.146401 
L 494.166676 335.354286 
L 494.777329 334.30529 
L 495.387982 334.069258 
L 495.998635 334.577734 
L 496.609288 335.651956 
L 498.441246 339.866886 
L 499.051899 340.943198 
L 499.662552 341.707668 
L 500.273205 342.194922 
L 502.715816 343.43684 
L 503.937121 344.675577 
L 506.379733 347.495159 
L 508.822344 349.754118 
L 510.04365 351.357703 
L 511.264955 353.511837 
L 513.707567 358.153588 
L 514.318219 359.016147 
L 514.928872 359.678006 
L 516.150178 360.489562 
L 517.371483 361.110135 
L 517.982136 361.58635 
L 518.592789 362.26676 
L 519.814095 364.246629 
L 521.646053 367.583213 
L 522.256706 368.350655 
L 522.867359 368.823426 
L 523.478012 369.011207 
L 525.30997 368.866993 
L 525.920623 369.077459 
L 526.531276 369.631919 
L 527.141929 370.576572 
L 527.752581 371.883148 
L 530.805845 379.570561 
L 531.416498 380.479099 
L 532.027151 381.078402 
L 532.637804 381.434535 
L 535.080415 382.322089 
L 536.301721 383.155365 
L 537.523026 384.037934 
L 538.744332 384.664241 
L 540.57629 385.357859 
L 541.186943 385.726144 
L 541.797596 386.233951 
L 543.018902 387.658975 
L 544.85086 390.136779 
L 546.072166 391.358863 
L 547.293471 392.08665 
L 549.12543 392.953519 
L 550.346736 393.796832 
L 552.789347 395.668891 
L 555.842611 397.666885 
L 558.285222 399.651869 
L 559.506528 400.33816 
L 563.170445 401.920895 
L 564.39175 402.794789 
L 568.055667 405.893983 
L 571.108931 407.639389 
L 572.330237 408.742521 
L 576.604807 413.369186 
L 579.047418 415.257974 
L 583.321988 418.53198 
L 584.543293 418.964837 
L 586.985905 419.484215 
L 588.20721 420.171884 
L 590.039169 421.772728 
L 591.260474 422.76852 
L 592.48178 423.497102 
L 594.313738 424.509888 
L 597.367002 426.653904 
L 598.588308 426.989083 
L 601.030919 427.077921 
L 602.252225 427.532927 
L 605.305489 429.249541 
L 606.526795 429.566669 
L 608.358753 429.938958 
L 610.190712 430.649605 
L 611.412017 431.072127 
L 612.633323 431.237504 
L 613.854628 431.371244 
L 614.465281 431.588283 
L 615.075934 431.981701 
L 615.686587 432.568042 
L 618.739851 436.143861 
L 619.350504 436.361058 
L 619.961157 436.329034 
L 621.182462 435.785045 
L 622.403768 435.226853 
L 623.014421 435.135015 
L 623.625074 435.211105 
L 624.235726 435.446199 
L 625.457032 436.243804 
L 627.28899 437.538906 
L 628.510296 438.119415 
L 631.56356 439.279227 
L 633.395519 440.448805 
L 635.83813 442.024986 
L 637.670088 442.83194 
L 640.723352 443.971171 
L 646.219228 446.742548 
L 649.272492 448.489107 
L 651.10445 449.475273 
L 652.325756 449.799674 
L 653.547062 449.70464 
L 656.600326 448.893585 
L 657.210978 448.949879 
L 657.821631 449.136359 
L 659.042937 449.891648 
L 660.264243 451.043614 
L 662.706854 453.548141 
L 663.928159 454.401106 
L 664.538812 454.647164 
L 665.149465 454.754055 
L 665.760118 454.721147 
L 666.981424 454.330027 
L 668.202729 453.859525 
L 668.813382 453.756383 
L 669.424035 453.799809 
L 670.64534 454.285599 
L 671.866646 454.886299 
L 672.477299 455.028136 
L 673.087952 454.994434 
L 673.698605 454.785697 
L 676.141216 453.521369 
L 676.751869 453.499122 
L 677.362521 453.664878 
L 678.583827 454.366697 
L 679.805133 455.063791 
L 681.026438 455.408159 
L 682.247744 455.631192 
L 682.858397 455.865803 
L 683.46905 456.253706 
L 684.690355 457.485498 
L 686.522314 459.537796 
L 687.132966 459.966763 
L 687.743619 460.203711 
L 688.354272 460.265461 
L 689.575578 460.063237 
L 690.796883 459.835125 
L 692.018189 459.941167 
L 693.239495 460.464457 
L 696.292759 462.273026 
L 697.514064 462.507808 
L 698.73537 462.330521 
L 700.567328 461.859365 
L 701.177981 461.82727 
L 701.788634 461.913614 
L 702.399287 462.129915 
L 703.620593 462.909872 
L 706.063204 464.8403 
L 707.284509 465.399174 
L 708.505815 465.631857 
L 710.337774 465.928984 
L 711.559079 466.47066 
L 714.612343 468.388224 
L 715.222996 468.512177 
L 715.833649 468.49494 
L 717.054955 468.161425 
L 718.27626 467.788223 
L 718.886913 467.727605 
L 719.497566 467.80303 
L 720.108219 468.027311 
L 721.329524 468.863686 
L 723.772135 471.001156 
L 724.993441 471.706747 
L 726.214747 471.986326 
L 727.436052 471.901793 
L 729.878664 471.487744 
L 730.489316 471.535576 
L 731.099969 471.709756 
L 731.710622 472.027414 
L 732.931928 473.073502 
L 737.81715 478.316323 
L 739.038456 479.102279 
L 740.259762 479.499926 
L 742.09172 479.802525 
L 743.313026 480.320458 
L 746.36629 482.357672 
L 746.976943 482.51592 
L 748.198248 482.444295 
L 749.419554 482.185906 
L 750.030207 482.144786 
L 750.640859 482.220717 
L 751.862165 482.732702 
L 753.694124 483.839494 
L 754.915429 484.2466 
L 756.136735 484.259762 
L 757.35804 484.174517 
L 758.579346 484.388116 
L 759.800652 485.054361 
L 763.464569 487.73776 
L 767.128485 489.819603 
L 768.349791 490.862389 
L 770.792402 493.184386 
L 771.403055 493.530327 
L 772.013708 493.70963 
L 773.235014 493.673702 
L 774.456319 493.570939 
L 775.066972 493.680101 
L 775.677625 493.949596 
L 776.898931 494.914864 
L 778.730889 496.636209 
L 779.341542 497.052277 
L 779.952195 497.32887 
L 780.562847 497.458252 
L 781.784153 497.340268 
L 783.616112 496.838702 
L 784.837417 496.826401 
L 786.058723 497.205941 
L 787.890681 497.908559 
L 789.111987 498.030761 
L 790.943945 497.978747 
L 791.554598 498.144727 
L 792.165251 498.498301 
L 792.775904 499.054375 
L 793.997209 500.622814 
L 795.218515 502.244853 
L 795.829168 502.863599 
L 796.439821 503.302293 
L 797.661126 503.755609 
L 798.882432 504.100323 
L 800.103738 504.808299 
L 801.325043 505.925898 
L 802.546349 507.123895 
L 803.767654 507.974486 
L 804.378307 508.174948 
L 804.98896 508.211397 
L 805.599613 508.099049 
L 806.820919 507.568573 
L 808.652877 506.704273 
L 809.26353 506.586137 
L 809.874183 506.626475 
L 810.484835 506.860022 
L 811.095488 507.304076 
L 812.316794 508.744122 
L 813.5381 510.44732 
L 814.148752 511.147985 
L 814.759405 511.639171 
L 815.370058 511.896206 
L 816.591364 511.900379 
L 816.591364 511.900379 
" clip-path="url(#p2ae55645a5)" style="fill: none; stroke: #0000ff; stroke-width: 0.5; stroke-linecap: square"/>
   </g>
   <g id="patch_3">
    <path d="M 47.81 534.04 
L 47.81 48.14925 
" style="fill: none; stroke: #000000; stroke-width: 0.8; stroke-linejoin: miter; stroke-linecap: square"/>
   </g>
   <g id="patch_4">
    <path d="M 853.2 534.04 
L 853.2 48.14925 
" style="fill: none; stroke: #000000; stroke-width: 0.8; stroke-linejoin: miter; stroke-linecap: square"/>
   </g>
   <g id="patch_5">
    <path d="M 47.81 534.04 
L 853.2 534.04 
" style="fill: none; stroke: #000000; stroke-width: 0.8; stroke-linejoin: miter; stroke-linecap: square"/>
   </g>
   <g id="patch_6">
    <path d="M 47.81 48.14925 
L 853.2 48.14925 
" style="fill: none; stroke: #000000; stroke-width: 0.8; stroke-linejoin: miter; stroke-linecap: square"/>
   </g>
   <g id="text_15">
    <!-- EDA Filtering: data_9_E4 -->
    <g transform="translate(389.400313 19.4755) scale(0.1 -0.1)">
     <defs>
      <path id="DejaVuSans-46" d="M 628 4666 
L 3309 4666 
L 3309 4134 
L 1259 4134 
L 1259 2759 
L 3109 2759 
L 3109 2228 
L 1259 2228 
L 1259 0 
L 628 0 
L 628 4666 
z
" transform="scale(0.015625)"/>
      <path id="DejaVuSans-6c" d="M 603 4863 
L 1178 4863 
L 1178 0 
L 603 0 
L 603 4863 
z
" transform="scale(0.015625)"/>
      <path id="DejaVuSans-72" d="M 2631 2963 
Q 2534 3019 2420 3045 
Q 2306 3072 2169 3072 
Q 1681 3072 1420 2755 
Q 1159 2438 1159 1844 
L 1159 0 
L 581 0 
L 581 3500 
L 1159 3500 
L 1159 2956 
Q 1341 3275 1631 3429 
Q 1922 3584 2338 3584 
Q 2397 3584 2469 3576 
Q 2541 3569 2628 3553 
L 2631 2963 
z
" transform="scale(0.015625)"/>
      <path id="DejaVuSans-67" d="M 2906 1791 
Q 2906 2416 2648 2759 
Q 2391 3103 1925 3103 
Q 1463 3103 1205 2759 
Q 947 2416 947 1791 
Q 947 1169 1205 825 
Q 1463 481 1925 481 
Q 2391 481 2648 825 
Q 2906 1169 2906 1791 
z
M 3481 434 
Q 3481 -459 3084 -895 
Q 2688 -1331 1869 -1331 
Q 1566 -1331 1297 -1286 
Q 1028 -1241 775 -1147 
L 775 -588 
Q 1028 -725 1275 -790 
Q 1522 -856 1778 -856 
Q 2344 -856 2625 -561 
Q 2906 -266 2906 331 
L 2906 616 
Q 2728 306 2450 153 
Q 2172 0 1784 0 
Q 1141 0 747 490 
Q 353 981 353 1791 
Q 353 2603 747 3093 
Q 1141 3584 1784 3584 
Q 2172 3584 2450 3431 
Q 2728 3278 2906 2969 
L 2906 3500 
L 3481 3500 
L 3481 434 
z
" transform="scale(0.015625)"/>
      <path id="DejaVuSans-3a" d="M 750 794 
L 1409 794 
L 1409 0 
L 750 0 
L 750 794 
z
M 750 3309 
L 1409 3309 
L 1409 2516 
L 750 2516 
L 750 3309 
z
" transform="scale(0.015625)"/>
      <path id="DejaVuSans-64" d="M 2906 2969 
L 2906 4863 
L 3481 4863 
L 3481 0 
L 2906 0 
L 2906 525 
Q 2725 213 2448 61 
Q 2172 -91 1784 -91 
Q 1150 -91 751 415 
Q 353 922 353 1747 
Q 353 2572 751 3078 
Q 1150 3584 1784 3584 
Q 2172 3584 2448 3432 
Q 2725 3281 2906 2969 
z
M 947 1747 
Q 947 1113 1208 752 
Q 1469 391 1925 391 
Q 2381 391 2643 752 
Q 2906 1113 2906 1747 
Q 2906 2381 2643 2742 
Q 2381 3103 1925 3103 
Q 1469 3103 1208 2742 
Q 947 2381 947 1747 
z
" transform="scale(0.015625)"/>
      <path id="DejaVuSans-61" d="M 2194 1759 
Q 1497 1759 1228 1600 
Q 959 1441 959 1056 
Q 959 750 1161 570 
Q 1363 391 1709 391 
Q 2188 391 2477 730 
Q 2766 1069 2766 1631 
L 2766 1759 
L 2194 1759 
z
M 3341 1997 
L 3341 0 
L 2766 0 
L 2766 531 
Q 2569 213 2275 61 
Q 1981 -91 1556 -91 
Q 1019 -91 701 211 
Q 384 513 384 1019 
Q 384 1609 779 1909 
Q 1175 2209 1959 2209 
L 2766 2209 
L 2766 2266 
Q 2766 2663 2505 2880 
Q 2244 3097 1772 3097 
Q 1472 3097 1187 3025 
Q 903 2953 641 2809 
L 641 3341 
Q 956 3463 1253 3523 
Q 1550 3584 1831 3584 
Q 2591 3584 2966 3190 
Q 3341 2797 3341 1997 
z
" transform="scale(0.015625)"/>
      <path id="DejaVuSans-5f" d="M 3263 -1063 
L 3263 -1509 
L -63 -1509 
L -63 -1063 
L 3263 -1063 
z
" transform="scale(0.015625)"/>
      <path id="DejaVuSans-39" d="M 703 97 
L 703 672 
Q 941 559 1184 500 
Q 1428 441 1663 441 
Q 2288 441 2617 861 
Q 2947 1281 2994 2138 
Q 2813 1869 2534 1725 
Q 2256 1581 1919 1581 
Q 1219 1581 811 2004 
Q 403 2428 403 3163 
Q 403 3881 828 4315 
Q 1253 4750 1959 4750 
Q 2769 4750 3195 4129 
Q 3622 3509 3622 2328 
Q 3622 1225 3098 567 
Q 2575 -91 1691 -91 
Q 1453 -91 1209 -44 
Q 966 3 703 97 
z
M 1959 2075 
Q 2384 2075 2632 2365 
Q 2881 2656 2881 3163 
Q 2881 3666 2632 3958 
Q 2384 4250 1959 4250 
Q 1534 4250 1286 3958 
Q 1038 3666 1038 3163 
Q 1038 2656 1286 2365 
Q 1534 2075 1959 2075 
z
" transform="scale(0.015625)"/>
     </defs>
     <use xlink:href="#DejaVuSans-45"/>
     <use xlink:href="#DejaVuSans-44" transform="translate(63.183594 0)"/>
     <use xlink:href="#DejaVuSans-41" transform="translate(138.435547 0)"/>
     <use xlink:href="#DejaVuSans-20" transform="translate(206.84375 0)"/>
     <use xlink:href="#DejaVuSans-46" transform="translate(238.630859 0)"/>
     <use xlink:href="#DejaVuSans-69" transform="translate(288.900391 0)"/>
     <use xlink:href="#DejaVuSans-6c" transform="translate(316.683594 0)"/>
     <use xlink:href="#DejaVuSans-74" transform="translate(344.466797 0)"/>
     <use xlink:href="#DejaVuSans-65" transform="translate(383.675781 0)"/>
     <use xlink:href="#DejaVuSans-72" transform="translate(445.199219 0)"/>
     <use xlink:href="#DejaVuSans-69" transform="translate(486.3125 0)"/>
     <use xlink:href="#DejaVuSans-6e" transform="translate(514.095703 0)"/>
     <use xlink:href="#DejaVuSans-67" transform="translate(577.474609 0)"/>
     <use xlink:href="#DejaVuSans-3a" transform="translate(640.951172 0)"/>
     <use xlink:href="#DejaVuSans-20" transform="translate(674.642578 0)"/>
     <use xlink:href="#DejaVuSans-64" transform="translate(706.429688 0)"/>
     <use xlink:href="#DejaVuSans-61" transform="translate(769.90625 0)"/>
     <use xlink:href="#DejaVuSans-74" transform="translate(831.185547 0)"/>
     <use xlink:href="#DejaVuSans-61" transform="translate(870.394531 0)"/>
     <use xlink:href="#DejaVuSans-5f" transform="translate(931.673828 0)"/>
     <use xlink:href="#DejaVuSans-39" transform="translate(981.673828 0)"/>
     <use xlink:href="#DejaVuSans-5f" transform="translate(1045.296875 0)"/>
     <use xlink:href="#DejaVuSans-45" transform="translate(1095.296875 0)"/>
     <use xlink:href="#DejaVuSans-34" transform="translate(1158.480469 0)"/>
    </g>
    <!-- Window=1, Threshold=0.3, Sample=1200 (300.0s) -->
    <g transform="translate(322.213594 30.951437) scale(0.1 -0.1)">
     <defs>
      <path id="DejaVuSans-57" d="M 213 4666 
L 850 4666 
L 1831 722 
L 2809 4666 
L 3519 4666 
L 4500 722 
L 5478 4666 
L 6119 4666 
L 4947 0 
L 4153 0 
L 3169 4050 
L 2175 0 
L 1381 0 
L 213 4666 
z
" transform="scale(0.015625)"/>
      <path id="DejaVuSans-6f" d="M 1959 3097 
Q 1497 3097 1228 2736 
Q 959 2375 959 1747 
Q 959 1119 1226 758 
Q 1494 397 1959 397 
Q 2419 397 2687 759 
Q 2956 1122 2956 1747 
Q 2956 2369 2687 2733 
Q 2419 3097 1959 3097 
z
M 1959 3584 
Q 2709 3584 3137 3096 
Q 3566 2609 3566 1747 
Q 3566 888 3137 398 
Q 2709 -91 1959 -91 
Q 1206 -91 779 398 
Q 353 888 353 1747 
Q 353 2609 779 3096 
Q 1206 3584 1959 3584 
z
" transform="scale(0.015625)"/>
      <path id="DejaVuSans-77" d="M 269 3500 
L 844 3500 
L 1563 769 
L 2278 3500 
L 2956 3500 
L 3675 769 
L 4391 3500 
L 4966 3500 
L 4050 0 
L 3372 0 
L 2619 2869 
L 1863 0 
L 1184 0 
L 269 3500 
z
" transform="scale(0.015625)"/>
      <path id="DejaVuSans-3d" d="M 678 2906 
L 4684 2906 
L 4684 2381 
L 678 2381 
L 678 2906 
z
M 678 1631 
L 4684 1631 
L 4684 1100 
L 678 1100 
L 678 1631 
z
" transform="scale(0.015625)"/>
      <path id="DejaVuSans-2c" d="M 750 794 
L 1409 794 
L 1409 256 
L 897 -744 
L 494 -744 
L 750 256 
L 750 794 
z
" transform="scale(0.015625)"/>
      <path id="DejaVuSans-68" d="M 3513 2113 
L 3513 0 
L 2938 0 
L 2938 2094 
Q 2938 2591 2744 2837 
Q 2550 3084 2163 3084 
Q 1697 3084 1428 2787 
Q 1159 2491 1159 1978 
L 1159 0 
L 581 0 
L 581 4863 
L 1159 4863 
L 1159 2956 
Q 1366 3272 1645 3428 
Q 1925 3584 2291 3584 
Q 2894 3584 3203 3211 
Q 3513 2838 3513 2113 
z
" transform="scale(0.015625)"/>
      <path id="DejaVuSans-70" d="M 1159 525 
L 1159 -1331 
L 581 -1331 
L 581 3500 
L 1159 3500 
L 1159 2969 
Q 1341 3281 1617 3432 
Q 1894 3584 2278 3584 
Q 2916 3584 3314 3078 
Q 3713 2572 3713 1747 
Q 3713 922 3314 415 
Q 2916 -91 2278 -91 
Q 1894 -91 1617 61 
Q 1341 213 1159 525 
z
M 3116 1747 
Q 3116 2381 2855 2742 
Q 2594 3103 2138 3103 
Q 1681 3103 1420 2742 
Q 1159 2381 1159 1747 
Q 1159 1113 1420 752 
Q 1681 391 2138 391 
Q 2594 391 2855 752 
Q 3116 1113 3116 1747 
z
" transform="scale(0.015625)"/>
     </defs>
     <use xlink:href="#DejaVuSans-57"/>
     <use xlink:href="#DejaVuSans-69" transform="translate(96.626953 0)"/>
     <use xlink:href="#DejaVuSans-6e" transform="translate(124.410156 0)"/>
     <use xlink:href="#DejaVuSans-64" transform="translate(187.789062 0)"/>
     <use xlink:href="#DejaVuSans-6f" transform="translate(251.265625 0)"/>
     <use xlink:href="#DejaVuSans-77" transform="translate(312.447266 0)"/>
     <use xlink:href="#DejaVuSans-3d" transform="translate(394.234375 0)"/>
     <use xlink:href="#DejaVuSans-31" transform="translate(478.023438 0)"/>
     <use xlink:href="#DejaVuSans-2c" transform="translate(541.646484 0)"/>
     <use xlink:href="#DejaVuSans-20" transform="translate(573.433594 0)"/>
     <use xlink:href="#DejaVuSans-54" transform="translate(605.220703 0)"/>
     <use xlink:href="#DejaVuSans-68" transform="translate(666.304688 0)"/>
     <use xlink:href="#DejaVuSans-72" transform="translate(729.683594 0)"/>
     <use xlink:href="#DejaVuSans-65" transform="translate(768.546875 0)"/>
     <use xlink:href="#DejaVuSans-73" transform="translate(830.070312 0)"/>
     <use xlink:href="#DejaVuSans-68" transform="translate(882.169922 0)"/>
     <use xlink:href="#DejaVuSans-6f" transform="translate(945.548828 0)"/>
     <use xlink:href="#DejaVuSans-6c" transform="translate(1006.730469 0)"/>
     <use xlink:href="#DejaVuSans-64" transform="translate(1034.513672 0)"/>
     <use xlink:href="#DejaVuSans-3d" transform="translate(1097.990234 0)"/>
     <use xlink:href="#DejaVuSans-30" transform="translate(1181.779297 0)"/>
     <use xlink:href="#DejaVuSans-2e" transform="translate(1245.402344 0)"/>
     <use xlink:href="#DejaVuSans-33" transform="translate(1277.189453 0)"/>
     <use xlink:href="#DejaVuSans-2c" transform="translate(1340.8125 0)"/>
     <use xlink:href="#DejaVuSans-20" transform="translate(1372.599609 0)"/>
     <use xlink:href="#DejaVuSans-53" transform="translate(1404.386719 0)"/>
     <use xlink:href="#DejaVuSans-61" transform="translate(1467.863281 0)"/>
     <use xlink:href="#DejaVuSans-6d" transform="translate(1529.142578 0)"/>
     <use xlink:href="#DejaVuSans-70" transform="translate(1626.554688 0)"/>
     <use xlink:href="#DejaVuSans-6c" transform="translate(1690.03125 0)"/>
     <use xlink:href="#DejaVuSans-65" transform="translate(1717.814453 0)"/>
     <use xlink:href="#DejaVuSans-3d" transform="translate(1779.337891 0)"/>
     <use xlink:href="#DejaVuSans-31" transform="translate(1863.126953 0)"/>
     <use xlink:href="#DejaVuSans-32" transform="translate(1926.75 0)"/>
     <use xlink:href="#DejaVuSans-30" transform="translate(1990.373047 0)"/>
     <use xlink:href="#DejaVuSans-30" transform="translate(2053.996094 0)"/>
     <use xlink:href="#DejaVuSans-20" transform="translate(2117.619141 0)"/>
     <use xlink:href="#DejaVuSans-28" transform="translate(2149.40625 0)"/>
     <use xlink:href="#DejaVuSans-33" transform="translate(2188.419922 0)"/>
     <use xlink:href="#DejaVuSans-30" transform="translate(2252.042969 0)"/>
     <use xlink:href="#DejaVuSans-30" transform="translate(2315.666016 0)"/>
     <use xlink:href="#DejaVuSans-2e" transform="translate(2379.289062 0)"/>
     <use xlink:href="#DejaVuSans-30" transform="translate(2411.076172 0)"/>
     <use xlink:href="#DejaVuSans-73" transform="translate(2474.699219 0)"/>
     <use xlink:href="#DejaVuSans-29" transform="translate(2526.798828 0)"/>
    </g>
    <!-- Remove: Total=0.00%, Thr=0.00%, Med=0.00%, Vel=0.00%, Temp=0.00% -->
    <g transform="translate(262.5175 42.14925) scale(0.1 -0.1)">
     <defs>
      <path id="DejaVuSans-52" d="M 2841 2188 
Q 3044 2119 3236 1894 
Q 3428 1669 3622 1275 
L 4263 0 
L 3584 0 
L 2988 1197 
Q 2756 1666 2539 1819 
Q 2322 1972 1947 1972 
L 1259 1972 
L 1259 0 
L 628 0 
L 628 4666 
L 2053 4666 
Q 2853 4666 3247 4331 
Q 3641 3997 3641 3322 
Q 3641 2881 3436 2590 
Q 3231 2300 2841 2188 
z
M 1259 4147 
L 1259 2491 
L 2053 2491 
Q 2509 2491 2742 2702 
Q 2975 2913 2975 3322 
Q 2975 3731 2742 3939 
Q 2509 4147 2053 4147 
L 1259 4147 
z
" transform="scale(0.015625)"/>
      <path id="DejaVuSans-76" d="M 191 3500 
L 800 3500 
L 1894 563 
L 2988 3500 
L 3597 3500 
L 2284 0 
L 1503 0 
L 191 3500 
z
" transform="scale(0.015625)"/>
      <path id="DejaVuSans-25" d="M 4653 2053 
Q 4381 2053 4226 1822 
Q 4072 1591 4072 1178 
Q 4072 772 4226 539 
Q 4381 306 4653 306 
Q 4919 306 5073 539 
Q 5228 772 5228 1178 
Q 5228 1588 5073 1820 
Q 4919 2053 4653 2053 
z
M 4653 2450 
Q 5147 2450 5437 2106 
Q 5728 1763 5728 1178 
Q 5728 594 5436 251 
Q 5144 -91 4653 -91 
Q 4153 -91 3862 251 
Q 3572 594 3572 1178 
Q 3572 1766 3864 2108 
Q 4156 2450 4653 2450 
z
M 1428 4353 
Q 1159 4353 1004 4120 
Q 850 3888 850 3481 
Q 850 3069 1003 2837 
Q 1156 2606 1428 2606 
Q 1700 2606 1854 2837 
Q 2009 3069 2009 3481 
Q 2009 3884 1853 4118 
Q 1697 4353 1428 4353 
z
M 4250 4750 
L 4750 4750 
L 1831 -91 
L 1331 -91 
L 4250 4750 
z
M 1428 4750 
Q 1922 4750 2215 4408 
Q 2509 4066 2509 3481 
Q 2509 2891 2217 2550 
Q 1925 2209 1428 2209 
Q 931 2209 642 2551 
Q 353 2894 353 3481 
Q 353 4063 643 4406 
Q 934 4750 1428 4750 
z
" transform="scale(0.015625)"/>
      <path id="DejaVuSans-4d" d="M 628 4666 
L 1569 4666 
L 2759 1491 
L 3956 4666 
L 4897 4666 
L 4897 0 
L 4281 0 
L 4281 4097 
L 3078 897 
L 2444 897 
L 1241 4097 
L 1241 0 
L 628 0 
L 628 4666 
z
" transform="scale(0.015625)"/>
      <path id="DejaVuSans-56" d="M 1831 0 
L 50 4666 
L 709 4666 
L 2188 738 
L 3669 4666 
L 4325 4666 
L 2547 0 
L 1831 0 
z
" transform="scale(0.015625)"/>
     </defs>
     <use xlink:href="#DejaVuSans-52"/>
     <use xlink:href="#DejaVuSans-65" transform="translate(64.982422 0)"/>
     <use xlink:href="#DejaVuSans-6d" transform="translate(126.505859 0)"/>
     <use xlink:href="#DejaVuSans-6f" transform="translate(223.917969 0)"/>
     <use xlink:href="#DejaVuSans-76" transform="translate(285.099609 0)"/>
     <use xlink:href="#DejaVuSans-65" transform="translate(344.279297 0)"/>
     <use xlink:href="#DejaVuSans-3a" transform="translate(405.802734 0)"/>
     <use xlink:href="#DejaVuSans-20" transform="translate(439.494141 0)"/>
     <use xlink:href="#DejaVuSans-54" transform="translate(471.28125 0)"/>
     <use xlink:href="#DejaVuSans-6f" transform="translate(515.365234 0)"/>
     <use xlink:href="#DejaVuSans-74" transform="translate(576.546875 0)"/>
     <use xlink:href="#DejaVuSans-61" transform="translate(615.755859 0)"/>
     <use xlink:href="#DejaVuSans-6c" transform="translate(677.035156 0)"/>
     <use xlink:href="#DejaVuSans-3d" transform="translate(704.818359 0)"/>
     <use xlink:href="#DejaVuSans-30" transform="translate(788.607422 0)"/>
     <use xlink:href="#DejaVuSans-2e" transform="translate(852.230469 0)"/>
     <use xlink:href="#DejaVuSans-30" transform="translate(884.017578 0)"/>
     <use xlink:href="#DejaVuSans-30" transform="translate(947.640625 0)"/>
     <use xlink:href="#DejaVuSans-25" transform="translate(1011.263672 0)"/>
     <use xlink:href="#DejaVuSans-2c" transform="translate(1106.283203 0)"/>
     <use xlink:href="#DejaVuSans-20" transform="translate(1138.070312 0)"/>
     <use xlink:href="#DejaVuSans-54" transform="translate(1169.857422 0)"/>
     <use xlink:href="#DejaVuSans-68" transform="translate(1230.941406 0)"/>
     <use xlink:href="#DejaVuSans-72" transform="translate(1294.320312 0)"/>
     <use xlink:href="#DejaVuSans-3d" transform="translate(1335.433594 0)"/>
     <use xlink:href="#DejaVuSans-30" transform="translate(1419.222656 0)"/>
     <use xlink:href="#DejaVuSans-2e" transform="translate(1482.845703 0)"/>
     <use xlink:href="#DejaVuSans-30" transform="translate(1514.632812 0)"/>
     <use xlink:href="#DejaVuSans-30" transform="translate(1578.255859 0)"/>
     <use xlink:href="#DejaVuSans-25" transform="translate(1641.878906 0)"/>
     <use xlink:href="#DejaVuSans-2c" transform="translate(1736.898438 0)"/>
     <use xlink:href="#DejaVuSans-20" transform="translate(1768.685547 0)"/>
     <use xlink:href="#DejaVuSans-4d" transform="translate(1800.472656 0)"/>
     <use xlink:href="#DejaVuSans-65" transform="translate(1886.751953 0)"/>
     <use xlink:href="#DejaVuSans-64" transform="translate(1948.275391 0)"/>
     <use xlink:href="#DejaVuSans-3d" transform="translate(2011.751953 0)"/>
     <use xlink:href="#DejaVuSans-30" transform="translate(2095.541016 0)"/>
     <use xlink:href="#DejaVuSans-2e" transform="translate(2159.164062 0)"/>
     <use xlink:href="#DejaVuSans-30" transform="translate(2190.951172 0)"/>
     <use xlink:href="#DejaVuSans-30" transform="translate(2254.574219 0)"/>
     <use xlink:href="#DejaVuSans-25" transform="translate(2318.197266 0)"/>
     <use xlink:href="#DejaVuSans-2c" transform="translate(2413.216797 0)"/>
     <use xlink:href="#DejaVuSans-20" transform="translate(2445.003906 0)"/>
     <use xlink:href="#DejaVuSans-56" transform="translate(2476.791016 0)"/>
     <use xlink:href="#DejaVuSans-65" transform="translate(2537.449219 0)"/>
     <use xlink:href="#DejaVuSans-6c" transform="translate(2598.972656 0)"/>
     <use xlink:href="#DejaVuSans-3d" transform="translate(2626.755859 0)"/>
     <use xlink:href="#DejaVuSans-30" transform="translate(2710.544922 0)"/>
     <use xlink:href="#DejaVuSans-2e" transform="translate(2774.167969 0)"/>
     <use xlink:href="#DejaVuSans-30" transform="translate(2805.955078 0)"/>
     <use xlink:href="#DejaVuSans-30" transform="translate(2869.578125 0)"/>
     <use xlink:href="#DejaVuSans-25" transform="translate(2933.201172 0)"/>
     <use xlink:href="#DejaVuSans-2c" transform="translate(3028.220703 0)"/>
     <use xlink:href="#DejaVuSans-20" transform="translate(3060.007812 0)"/>
     <use xlink:href="#DejaVuSans-54" transform="translate(3091.794922 0)"/>
     <use xlink:href="#DejaVuSans-65" transform="translate(3135.878906 0)"/>
     <use xlink:href="#DejaVuSans-6d" transform="translate(3197.402344 0)"/>
     <use xlink:href="#DejaVuSans-70" transform="translate(3294.814453 0)"/>
     <use xlink:href="#DejaVuSans-3d" transform="translate(3358.291016 0)"/>
     <use xlink:href="#DejaVuSans-30" transform="translate(3442.080078 0)"/>
     <use xlink:href="#DejaVuSans-2e" transform="translate(3505.703125 0)"/>
     <use xlink:href="#DejaVuSans-30" transform="translate(3537.490234 0)"/>
     <use xlink:href="#DejaVuSans-30" transform="translate(3601.113281 0)"/>
     <use xlink:href="#DejaVuSans-25" transform="translate(3664.736328 0)"/>
    </g>
   </g>
   <g id="legend_1">
    <g id="patch_7">
     <path d="M 791.720313 70.827375 
L 846.2 70.827375 
Q 848.2 70.827375 848.2 68.827375 
L 848.2 55.14925 
Q 848.2 53.14925 846.2 53.14925 
L 791.720313 53.14925 
Q 789.720313 53.14925 789.720313 55.14925 
L 789.720313 68.827375 
Q 789.720313 70.827375 791.720313 70.827375 
z
" style="fill: #ffffff; opacity: 0.8; stroke: #cccccc; stroke-linejoin: miter"/>
    </g>
    <g id="line2d_26">
     <path d="M 793.720313 61.247687 
L 803.720313 61.247687 
L 813.720313 61.247687 
" style="fill: none; stroke: #0000ff; stroke-width: 0.5; stroke-linecap: square"/>
    </g>
    <g id="text_16">
     <!-- Kept -->
     <g transform="translate(821.720313 64.747687) scale(0.1 -0.1)">
      <defs>
       <path id="DejaVuSans-4b" d="M 628 4666 
L 1259 4666 
L 1259 2694 
L 3353 4666 
L 4166 4666 
L 1850 2491 
L 4331 0 
L 3500 0 
L 1259 2247 
L 1259 0 
L 628 0 
L 628 4666 
z
" transform="scale(0.015625)"/>
      </defs>
      <use xlink:href="#DejaVuSans-4b"/>
      <use xlink:href="#DejaVuSans-65" transform="translate(60.576172 0)"/>
      <use xlink:href="#DejaVuSans-70" transform="translate(122.099609 0)"/>
      <use xlink:href="#DejaVuSans-74" transform="translate(185.576172 0)"/>
     </g>
    </g>
   </g>
  </g>
 </g>
 <defs>
  <clipPath id="p2ae55645a5">
   <rect x="47.81" y="48.14925" width="805.39" height="485.89075"/>
  </clipPath>
 </defs>
</svg>
