<?xml version="1.0" encoding="utf-8" standalone="no"?>
<!DOCTYPE svg PUBLIC "-//W3C//DTD SVG 1.1//EN"
  "http://www.w3.org/Graphics/SVG/1.1/DTD/svg11.dtd">
<svg xmlns:xlink="http://www.w3.org/1999/xlink" width="864pt" height="576pt" viewBox="0 0 864 576" xmlns="http://www.w3.org/2000/svg" version="1.1">
 <metadata>
  <rdf:RDF xmlns:dc="http://purl.org/dc/elements/1.1/" xmlns:cc="http://creativecommons.org/ns#" xmlns:rdf="http://www.w3.org/1999/02/22-rdf-syntax-ns#">
   <cc:Work>
    <dc:type rdf:resource="http://purl.org/dc/dcmitype/StillImage"/>
    <dc:date>2025-10-09T19:22:42.200362</dc:date>
    <dc:format>image/svg+xml</dc:format>
    <dc:creator>
     <cc:Agent>
      <dc:title>Matplotlib v3.10.0, https://matplotlib.org/</dc:title>
     </cc:Agent>
    </dc:creator>
   </cc:Work>
  </rdf:RDF>
 </metadata>
 <defs>
  <style type="text/css">*{stroke-linejoin: round; stroke-linecap: butt}</style>
 </defs>
 <g id="figure_1">
  <g id="patch_1">
   <path d="M 0 576 
L 864 576 
L 864 0 
L 0 0 
z
" style="fill: #ffffff"/>
  </g>
  <g id="axes_1">
   <g id="patch_2">
    <path d="M 47.81 534.04 
L 853.2 534.04 
L 853.2 48.14925 
L 47.81 48.14925 
z
" style="fill: #ffffff"/>
   </g>
   <g id="matplotlib.axis_1">
    <g id="xtick_1">
     <g id="line2d_1">
      <path d="M 84.418636 534.04 
L 84.418636 48.14925 
" clip-path="url(#p06c75ecba8)" style="fill: none; stroke: #b0b0b0; stroke-opacity: 0.3; stroke-width: 0.8; stroke-linecap: square"/>
     </g>
     <g id="line2d_2">
      <defs>
       <path id="m40cefc8d81" d="M 0 0 
L 0 3.5 
" style="stroke: #000000; stroke-width: 0.8"/>
      </defs>
      <g>
       <use xlink:href="#m40cefc8d81" x="84.418636" y="534.04" style="stroke: #000000; stroke-width: 0.8"/>
      </g>
     </g>
     <g id="text_1">
      <!-- 0 -->
      <g transform="translate(81.237386 548.638438) scale(0.1 -0.1)">
       <defs>
        <path id="DejaVuSans-30" d="M 2034 4250 
Q 1547 4250 1301 3770 
Q 1056 3291 1056 2328 
Q 1056 1369 1301 889 
Q 1547 409 2034 409 
Q 2525 409 2770 889 
Q 3016 1369 3016 2328 
Q 3016 3291 2770 3770 
Q 2525 4250 2034 4250 
z
M 2034 4750 
Q 2819 4750 3233 4129 
Q 3647 3509 3647 2328 
Q 3647 1150 3233 529 
Q 2819 -91 2034 -91 
Q 1250 -91 836 529 
Q 422 1150 422 2328 
Q 422 3509 836 4129 
Q 1250 4750 2034 4750 
z
" transform="scale(0.015625)"/>
       </defs>
       <use xlink:href="#DejaVuSans-30"/>
      </g>
     </g>
    </g>
    <g id="xtick_2">
     <g id="line2d_3">
      <path d="M 182.068792 534.04 
L 182.068792 48.14925 
" clip-path="url(#p06c75ecba8)" style="fill: none; stroke: #b0b0b0; stroke-opacity: 0.3; stroke-width: 0.8; stroke-linecap: square"/>
     </g>
     <g id="line2d_4">
      <g>
       <use xlink:href="#m40cefc8d81" x="182.068792" y="534.04" style="stroke: #000000; stroke-width: 0.8"/>
      </g>
     </g>
     <g id="text_2">
      <!-- 2 -->
      <g transform="translate(178.887542 548.638438) scale(0.1 -0.1)">
       <defs>
        <path id="DejaVuSans-32" d="M 1228 531 
L 3431 531 
L 3431 0 
L 469 0 
L 469 531 
Q 828 903 1448 1529 
Q 2069 2156 2228 2338 
Q 2531 2678 2651 2914 
Q 2772 3150 2772 3378 
Q 2772 3750 2511 3984 
Q 2250 4219 1831 4219 
Q 1534 4219 1204 4116 
Q 875 4013 500 3803 
L 500 4441 
Q 881 4594 1212 4672 
Q 1544 4750 1819 4750 
Q 2544 4750 2975 4387 
Q 3406 4025 3406 3419 
Q 3406 3131 3298 2873 
Q 3191 2616 2906 2266 
Q 2828 2175 2409 1742 
Q 1991 1309 1228 531 
z
" transform="scale(0.015625)"/>
       </defs>
       <use xlink:href="#DejaVuSans-32"/>
      </g>
     </g>
    </g>
    <g id="xtick_3">
     <g id="line2d_5">
      <path d="M 279.718947 534.04 
L 279.718947 48.14925 
" clip-path="url(#p06c75ecba8)" style="fill: none; stroke: #b0b0b0; stroke-opacity: 0.3; stroke-width: 0.8; stroke-linecap: square"/>
     </g>
     <g id="line2d_6">
      <g>
       <use xlink:href="#m40cefc8d81" x="279.718947" y="534.04" style="stroke: #000000; stroke-width: 0.8"/>
      </g>
     </g>
     <g id="text_3">
      <!-- 4 -->
      <g transform="translate(276.537697 548.638438) scale(0.1 -0.1)">
       <defs>
        <path id="DejaVuSans-34" d="M 2419 4116 
L 825 1625 
L 2419 1625 
L 2419 4116 
z
M 2253 4666 
L 3047 4666 
L 3047 1625 
L 3713 1625 
L 3713 1100 
L 3047 1100 
L 3047 0 
L 2419 0 
L 2419 1100 
L 313 1100 
L 313 1709 
L 2253 4666 
z
" transform="scale(0.015625)"/>
       </defs>
       <use xlink:href="#DejaVuSans-34"/>
      </g>
     </g>
    </g>
    <g id="xtick_4">
     <g id="line2d_7">
      <path d="M 377.369102 534.04 
L 377.369102 48.14925 
" clip-path="url(#p06c75ecba8)" style="fill: none; stroke: #b0b0b0; stroke-opacity: 0.3; stroke-width: 0.8; stroke-linecap: square"/>
     </g>
     <g id="line2d_8">
      <g>
       <use xlink:href="#m40cefc8d81" x="377.369102" y="534.04" style="stroke: #000000; stroke-width: 0.8"/>
      </g>
     </g>
     <g id="text_4">
      <!-- 6 -->
      <g transform="translate(374.187852 548.638438) scale(0.1 -0.1)">
       <defs>
        <path id="DejaVuSans-36" d="M 2113 2584 
Q 1688 2584 1439 2293 
Q 1191 2003 1191 1497 
Q 1191 994 1439 701 
Q 1688 409 2113 409 
Q 2538 409 2786 701 
Q 3034 994 3034 1497 
Q 3034 2003 2786 2293 
Q 2538 2584 2113 2584 
z
M 3366 4563 
L 3366 3988 
Q 3128 4100 2886 4159 
Q 2644 4219 2406 4219 
Q 1781 4219 1451 3797 
Q 1122 3375 1075 2522 
Q 1259 2794 1537 2939 
Q 1816 3084 2150 3084 
Q 2853 3084 3261 2657 
Q 3669 2231 3669 1497 
Q 3669 778 3244 343 
Q 2819 -91 2113 -91 
Q 1303 -91 875 529 
Q 447 1150 447 2328 
Q 447 3434 972 4092 
Q 1497 4750 2381 4750 
Q 2619 4750 2861 4703 
Q 3103 4656 3366 4563 
z
" transform="scale(0.015625)"/>
       </defs>
       <use xlink:href="#DejaVuSans-36"/>
      </g>
     </g>
    </g>
    <g id="xtick_5">
     <g id="line2d_9">
      <path d="M 475.019258 534.04 
L 475.019258 48.14925 
" clip-path="url(#p06c75ecba8)" style="fill: none; stroke: #b0b0b0; stroke-opacity: 0.3; stroke-width: 0.8; stroke-linecap: square"/>
     </g>
     <g id="line2d_10">
      <g>
       <use xlink:href="#m40cefc8d81" x="475.019258" y="534.04" style="stroke: #000000; stroke-width: 0.8"/>
      </g>
     </g>
     <g id="text_5">
      <!-- 8 -->
      <g transform="translate(471.838008 548.638438) scale(0.1 -0.1)">
       <defs>
        <path id="DejaVuSans-38" d="M 2034 2216 
Q 1584 2216 1326 1975 
Q 1069 1734 1069 1313 
Q 1069 891 1326 650 
Q 1584 409 2034 409 
Q 2484 409 2743 651 
Q 3003 894 3003 1313 
Q 3003 1734 2745 1975 
Q 2488 2216 2034 2216 
z
M 1403 2484 
Q 997 2584 770 2862 
Q 544 3141 544 3541 
Q 544 4100 942 4425 
Q 1341 4750 2034 4750 
Q 2731 4750 3128 4425 
Q 3525 4100 3525 3541 
Q 3525 3141 3298 2862 
Q 3072 2584 2669 2484 
Q 3125 2378 3379 2068 
Q 3634 1759 3634 1313 
Q 3634 634 3220 271 
Q 2806 -91 2034 -91 
Q 1263 -91 848 271 
Q 434 634 434 1313 
Q 434 1759 690 2068 
Q 947 2378 1403 2484 
z
M 1172 3481 
Q 1172 3119 1398 2916 
Q 1625 2713 2034 2713 
Q 2441 2713 2670 2916 
Q 2900 3119 2900 3481 
Q 2900 3844 2670 4047 
Q 2441 4250 2034 4250 
Q 1625 4250 1398 4047 
Q 1172 3844 1172 3481 
z
" transform="scale(0.015625)"/>
       </defs>
       <use xlink:href="#DejaVuSans-38"/>
      </g>
     </g>
    </g>
    <g id="xtick_6">
     <g id="line2d_11">
      <path d="M 572.669413 534.04 
L 572.669413 48.14925 
" clip-path="url(#p06c75ecba8)" style="fill: none; stroke: #b0b0b0; stroke-opacity: 0.3; stroke-width: 0.8; stroke-linecap: square"/>
     </g>
     <g id="line2d_12">
      <g>
       <use xlink:href="#m40cefc8d81" x="572.669413" y="534.04" style="stroke: #000000; stroke-width: 0.8"/>
      </g>
     </g>
     <g id="text_6">
      <!-- 10 -->
      <g transform="translate(566.306913 548.638438) scale(0.1 -0.1)">
       <defs>
        <path id="DejaVuSans-31" d="M 794 531 
L 1825 531 
L 1825 4091 
L 703 3866 
L 703 4441 
L 1819 4666 
L 2450 4666 
L 2450 531 
L 3481 531 
L 3481 0 
L 794 0 
L 794 531 
z
" transform="scale(0.015625)"/>
       </defs>
       <use xlink:href="#DejaVuSans-31"/>
       <use xlink:href="#DejaVuSans-30" transform="translate(63.623047 0)"/>
      </g>
     </g>
    </g>
    <g id="xtick_7">
     <g id="line2d_13">
      <path d="M 670.319568 534.04 
L 670.319568 48.14925 
" clip-path="url(#p06c75ecba8)" style="fill: none; stroke: #b0b0b0; stroke-opacity: 0.3; stroke-width: 0.8; stroke-linecap: square"/>
     </g>
     <g id="line2d_14">
      <g>
       <use xlink:href="#m40cefc8d81" x="670.319568" y="534.04" style="stroke: #000000; stroke-width: 0.8"/>
      </g>
     </g>
     <g id="text_7">
      <!-- 12 -->
      <g transform="translate(663.957068 548.638438) scale(0.1 -0.1)">
       <use xlink:href="#DejaVuSans-31"/>
       <use xlink:href="#DejaVuSans-32" transform="translate(63.623047 0)"/>
      </g>
     </g>
    </g>
    <g id="xtick_8">
     <g id="line2d_15">
      <path d="M 767.969724 534.04 
L 767.969724 48.14925 
" clip-path="url(#p06c75ecba8)" style="fill: none; stroke: #b0b0b0; stroke-opacity: 0.3; stroke-width: 0.8; stroke-linecap: square"/>
     </g>
     <g id="line2d_16">
      <g>
       <use xlink:href="#m40cefc8d81" x="767.969724" y="534.04" style="stroke: #000000; stroke-width: 0.8"/>
      </g>
     </g>
     <g id="text_8">
      <!-- 14 -->
      <g transform="translate(761.607224 548.638438) scale(0.1 -0.1)">
       <use xlink:href="#DejaVuSans-31"/>
       <use xlink:href="#DejaVuSans-34" transform="translate(63.623047 0)"/>
      </g>
     </g>
    </g>
    <g id="text_9">
     <!-- Time (minutes) -->
     <g transform="translate(412.5425 562.316563) scale(0.1 -0.1)">
      <defs>
       <path id="DejaVuSans-54" d="M -19 4666 
L 3928 4666 
L 3928 4134 
L 2272 4134 
L 2272 0 
L 1638 0 
L 1638 4134 
L -19 4134 
L -19 4666 
z
" transform="scale(0.015625)"/>
       <path id="DejaVuSans-69" d="M 603 3500 
L 1178 3500 
L 1178 0 
L 603 0 
L 603 3500 
z
M 603 4863 
L 1178 4863 
L 1178 4134 
L 603 4134 
L 603 4863 
z
" transform="scale(0.015625)"/>
       <path id="DejaVuSans-6d" d="M 3328 2828 
Q 3544 3216 3844 3400 
Q 4144 3584 4550 3584 
Q 5097 3584 5394 3201 
Q 5691 2819 5691 2113 
L 5691 0 
L 5113 0 
L 5113 2094 
Q 5113 2597 4934 2840 
Q 4756 3084 4391 3084 
Q 3944 3084 3684 2787 
Q 3425 2491 3425 1978 
L 3425 0 
L 2847 0 
L 2847 2094 
Q 2847 2600 2669 2842 
Q 2491 3084 2119 3084 
Q 1678 3084 1418 2786 
Q 1159 2488 1159 1978 
L 1159 0 
L 581 0 
L 581 3500 
L 1159 3500 
L 1159 2956 
Q 1356 3278 1631 3431 
Q 1906 3584 2284 3584 
Q 2666 3584 2933 3390 
Q 3200 3197 3328 2828 
z
" transform="scale(0.015625)"/>
       <path id="DejaVuSans-65" d="M 3597 1894 
L 3597 1613 
L 953 1613 
Q 991 1019 1311 708 
Q 1631 397 2203 397 
Q 2534 397 2845 478 
Q 3156 559 3463 722 
L 3463 178 
Q 3153 47 2828 -22 
Q 2503 -91 2169 -91 
Q 1331 -91 842 396 
Q 353 884 353 1716 
Q 353 2575 817 3079 
Q 1281 3584 2069 3584 
Q 2775 3584 3186 3129 
Q 3597 2675 3597 1894 
z
M 3022 2063 
Q 3016 2534 2758 2815 
Q 2500 3097 2075 3097 
Q 1594 3097 1305 2825 
Q 1016 2553 972 2059 
L 3022 2063 
z
" transform="scale(0.015625)"/>
       <path id="DejaVuSans-20" transform="scale(0.015625)"/>
       <path id="DejaVuSans-28" d="M 1984 4856 
Q 1566 4138 1362 3434 
Q 1159 2731 1159 2009 
Q 1159 1288 1364 580 
Q 1569 -128 1984 -844 
L 1484 -844 
Q 1016 -109 783 600 
Q 550 1309 550 2009 
Q 550 2706 781 3412 
Q 1013 4119 1484 4856 
L 1984 4856 
z
" transform="scale(0.015625)"/>
       <path id="DejaVuSans-6e" d="M 3513 2113 
L 3513 0 
L 2938 0 
L 2938 2094 
Q 2938 2591 2744 2837 
Q 2550 3084 2163 3084 
Q 1697 3084 1428 2787 
Q 1159 2491 1159 1978 
L 1159 0 
L 581 0 
L 581 3500 
L 1159 3500 
L 1159 2956 
Q 1366 3272 1645 3428 
Q 1925 3584 2291 3584 
Q 2894 3584 3203 3211 
Q 3513 2838 3513 2113 
z
" transform="scale(0.015625)"/>
       <path id="DejaVuSans-75" d="M 544 1381 
L 544 3500 
L 1119 3500 
L 1119 1403 
Q 1119 906 1312 657 
Q 1506 409 1894 409 
Q 2359 409 2629 706 
Q 2900 1003 2900 1516 
L 2900 3500 
L 3475 3500 
L 3475 0 
L 2900 0 
L 2900 538 
Q 2691 219 2414 64 
Q 2138 -91 1772 -91 
Q 1169 -91 856 284 
Q 544 659 544 1381 
z
M 1991 3584 
L 1991 3584 
z
" transform="scale(0.015625)"/>
       <path id="DejaVuSans-74" d="M 1172 4494 
L 1172 3500 
L 2356 3500 
L 2356 3053 
L 1172 3053 
L 1172 1153 
Q 1172 725 1289 603 
Q 1406 481 1766 481 
L 2356 481 
L 2356 0 
L 1766 0 
Q 1100 0 847 248 
Q 594 497 594 1153 
L 594 3053 
L 172 3053 
L 172 3500 
L 594 3500 
L 594 4494 
L 1172 4494 
z
" transform="scale(0.015625)"/>
       <path id="DejaVuSans-73" d="M 2834 3397 
L 2834 2853 
Q 2591 2978 2328 3040 
Q 2066 3103 1784 3103 
Q 1356 3103 1142 2972 
Q 928 2841 928 2578 
Q 928 2378 1081 2264 
Q 1234 2150 1697 2047 
L 1894 2003 
Q 2506 1872 2764 1633 
Q 3022 1394 3022 966 
Q 3022 478 2636 193 
Q 2250 -91 1575 -91 
Q 1294 -91 989 -36 
Q 684 19 347 128 
L 347 722 
Q 666 556 975 473 
Q 1284 391 1588 391 
Q 1994 391 2212 530 
Q 2431 669 2431 922 
Q 2431 1156 2273 1281 
Q 2116 1406 1581 1522 
L 1381 1569 
Q 847 1681 609 1914 
Q 372 2147 372 2553 
Q 372 3047 722 3315 
Q 1072 3584 1716 3584 
Q 2034 3584 2315 3537 
Q 2597 3491 2834 3397 
z
" transform="scale(0.015625)"/>
       <path id="DejaVuSans-29" d="M 513 4856 
L 1013 4856 
Q 1481 4119 1714 3412 
Q 1947 2706 1947 2009 
Q 1947 1309 1714 600 
Q 1481 -109 1013 -844 
L 513 -844 
Q 928 -128 1133 580 
Q 1338 1288 1338 2009 
Q 1338 2731 1133 3434 
Q 928 4138 513 4856 
z
" transform="scale(0.015625)"/>
      </defs>
      <use xlink:href="#DejaVuSans-54"/>
      <use xlink:href="#DejaVuSans-69" transform="translate(57.958984 0)"/>
      <use xlink:href="#DejaVuSans-6d" transform="translate(85.742188 0)"/>
      <use xlink:href="#DejaVuSans-65" transform="translate(183.154297 0)"/>
      <use xlink:href="#DejaVuSans-20" transform="translate(244.677734 0)"/>
      <use xlink:href="#DejaVuSans-28" transform="translate(276.464844 0)"/>
      <use xlink:href="#DejaVuSans-6d" transform="translate(315.478516 0)"/>
      <use xlink:href="#DejaVuSans-69" transform="translate(412.890625 0)"/>
      <use xlink:href="#DejaVuSans-6e" transform="translate(440.673828 0)"/>
      <use xlink:href="#DejaVuSans-75" transform="translate(504.052734 0)"/>
      <use xlink:href="#DejaVuSans-74" transform="translate(567.431641 0)"/>
      <use xlink:href="#DejaVuSans-65" transform="translate(606.640625 0)"/>
      <use xlink:href="#DejaVuSans-73" transform="translate(668.164062 0)"/>
      <use xlink:href="#DejaVuSans-29" transform="translate(720.263672 0)"/>
     </g>
    </g>
   </g>
   <g id="matplotlib.axis_2">
    <g id="ytick_1">
     <g id="line2d_17">
      <path d="M 47.81 492.626887 
L 853.2 492.626887 
" clip-path="url(#p06c75ecba8)" style="fill: none; stroke: #b0b0b0; stroke-opacity: 0.3; stroke-width: 0.8; stroke-linecap: square"/>
     </g>
     <g id="line2d_18">
      <defs>
       <path id="m2424a3bbae" d="M 0 0 
L -3.5 0 
" style="stroke: #000000; stroke-width: 0.8"/>
      </defs>
      <g>
       <use xlink:href="#m2424a3bbae" x="47.81" y="492.626887" style="stroke: #000000; stroke-width: 0.8"/>
      </g>
     </g>
     <g id="text_10">
      <!-- 1.5 -->
      <g transform="translate(24.906875 496.426106) scale(0.1 -0.1)">
       <defs>
        <path id="DejaVuSans-2e" d="M 684 794 
L 1344 794 
L 1344 0 
L 684 0 
L 684 794 
z
" transform="scale(0.015625)"/>
        <path id="DejaVuSans-35" d="M 691 4666 
L 3169 4666 
L 3169 4134 
L 1269 4134 
L 1269 2991 
Q 1406 3038 1543 3061 
Q 1681 3084 1819 3084 
Q 2600 3084 3056 2656 
Q 3513 2228 3513 1497 
Q 3513 744 3044 326 
Q 2575 -91 1722 -91 
Q 1428 -91 1123 -41 
Q 819 9 494 109 
L 494 744 
Q 775 591 1075 516 
Q 1375 441 1709 441 
Q 2250 441 2565 725 
Q 2881 1009 2881 1497 
Q 2881 1984 2565 2268 
Q 2250 2553 1709 2553 
Q 1456 2553 1204 2497 
Q 953 2441 691 2322 
L 691 4666 
z
" transform="scale(0.015625)"/>
       </defs>
       <use xlink:href="#DejaVuSans-31"/>
       <use xlink:href="#DejaVuSans-2e" transform="translate(63.623047 0)"/>
       <use xlink:href="#DejaVuSans-35" transform="translate(95.410156 0)"/>
      </g>
     </g>
    </g>
    <g id="ytick_2">
     <g id="line2d_19">
      <path d="M 47.81 406.086396 
L 853.2 406.086396 
" clip-path="url(#p06c75ecba8)" style="fill: none; stroke: #b0b0b0; stroke-opacity: 0.3; stroke-width: 0.8; stroke-linecap: square"/>
     </g>
     <g id="line2d_20">
      <g>
       <use xlink:href="#m2424a3bbae" x="47.81" y="406.086396" style="stroke: #000000; stroke-width: 0.8"/>
      </g>
     </g>
     <g id="text_11">
      <!-- 2.0 -->
      <g transform="translate(24.906875 409.885615) scale(0.1 -0.1)">
       <use xlink:href="#DejaVuSans-32"/>
       <use xlink:href="#DejaVuSans-2e" transform="translate(63.623047 0)"/>
       <use xlink:href="#DejaVuSans-30" transform="translate(95.410156 0)"/>
      </g>
     </g>
    </g>
    <g id="ytick_3">
     <g id="line2d_21">
      <path d="M 47.81 319.545905 
L 853.2 319.545905 
" clip-path="url(#p06c75ecba8)" style="fill: none; stroke: #b0b0b0; stroke-opacity: 0.3; stroke-width: 0.8; stroke-linecap: square"/>
     </g>
     <g id="line2d_22">
      <g>
       <use xlink:href="#m2424a3bbae" x="47.81" y="319.545905" style="stroke: #000000; stroke-width: 0.8"/>
      </g>
     </g>
     <g id="text_12">
      <!-- 2.5 -->
      <g transform="translate(24.906875 323.345124) scale(0.1 -0.1)">
       <use xlink:href="#DejaVuSans-32"/>
       <use xlink:href="#DejaVuSans-2e" transform="translate(63.623047 0)"/>
       <use xlink:href="#DejaVuSans-35" transform="translate(95.410156 0)"/>
      </g>
     </g>
    </g>
    <g id="ytick_4">
     <g id="line2d_23">
      <path d="M 47.81 233.005414 
L 853.2 233.005414 
" clip-path="url(#p06c75ecba8)" style="fill: none; stroke: #b0b0b0; stroke-opacity: 0.3; stroke-width: 0.8; stroke-linecap: square"/>
     </g>
     <g id="line2d_24">
      <g>
       <use xlink:href="#m2424a3bbae" x="47.81" y="233.005414" style="stroke: #000000; stroke-width: 0.8"/>
      </g>
     </g>
     <g id="text_13">
      <!-- 3.0 -->
      <g transform="translate(24.906875 236.804633) scale(0.1 -0.1)">
       <defs>
        <path id="DejaVuSans-33" d="M 2597 2516 
Q 3050 2419 3304 2112 
Q 3559 1806 3559 1356 
Q 3559 666 3084 287 
Q 2609 -91 1734 -91 
Q 1441 -91 1130 -33 
Q 819 25 488 141 
L 488 750 
Q 750 597 1062 519 
Q 1375 441 1716 441 
Q 2309 441 2620 675 
Q 2931 909 2931 1356 
Q 2931 1769 2642 2001 
Q 2353 2234 1838 2234 
L 1294 2234 
L 1294 2753 
L 1863 2753 
Q 2328 2753 2575 2939 
Q 2822 3125 2822 3475 
Q 2822 3834 2567 4026 
Q 2313 4219 1838 4219 
Q 1578 4219 1281 4162 
Q 984 4106 628 3988 
L 628 4550 
Q 988 4650 1302 4700 
Q 1616 4750 1894 4750 
Q 2613 4750 3031 4423 
Q 3450 4097 3450 3541 
Q 3450 3153 3228 2886 
Q 3006 2619 2597 2516 
z
" transform="scale(0.015625)"/>
       </defs>
       <use xlink:href="#DejaVuSans-33"/>
       <use xlink:href="#DejaVuSans-2e" transform="translate(63.623047 0)"/>
       <use xlink:href="#DejaVuSans-30" transform="translate(95.410156 0)"/>
      </g>
     </g>
    </g>
    <g id="ytick_5">
     <g id="line2d_25">
      <path d="M 47.81 146.464923 
L 853.2 146.464923 
" clip-path="url(#p06c75ecba8)" style="fill: none; stroke: #b0b0b0; stroke-opacity: 0.3; stroke-width: 0.8; stroke-linecap: square"/>
     </g>
     <g id="line2d_26">
      <g>
       <use xlink:href="#m2424a3bbae" x="47.81" y="146.464923" style="stroke: #000000; stroke-width: 0.8"/>
      </g>
     </g>
     <g id="text_14">
      <!-- 3.5 -->
      <g transform="translate(24.906875 150.264142) scale(0.1 -0.1)">
       <use xlink:href="#DejaVuSans-33"/>
       <use xlink:href="#DejaVuSans-2e" transform="translate(63.623047 0)"/>
       <use xlink:href="#DejaVuSans-35" transform="translate(95.410156 0)"/>
      </g>
     </g>
    </g>
    <g id="ytick_6">
     <g id="line2d_27">
      <path d="M 47.81 59.924432 
L 853.2 59.924432 
" clip-path="url(#p06c75ecba8)" style="fill: none; stroke: #b0b0b0; stroke-opacity: 0.3; stroke-width: 0.8; stroke-linecap: square"/>
     </g>
     <g id="line2d_28">
      <g>
       <use xlink:href="#m2424a3bbae" x="47.81" y="59.924432" style="stroke: #000000; stroke-width: 0.8"/>
      </g>
     </g>
     <g id="text_15">
      <!-- 4.0 -->
      <g transform="translate(24.906875 63.723651) scale(0.1 -0.1)">
       <use xlink:href="#DejaVuSans-34"/>
       <use xlink:href="#DejaVuSans-2e" transform="translate(63.623047 0)"/>
       <use xlink:href="#DejaVuSans-30" transform="translate(95.410156 0)"/>
      </g>
     </g>
    </g>
    <g id="text_16">
     <!-- EDA (μS) -->
     <g transform="translate(18.827187 313.282906) rotate(-90) scale(0.1 -0.1)">
      <defs>
       <path id="DejaVuSans-45" d="M 628 4666 
L 3578 4666 
L 3578 4134 
L 1259 4134 
L 1259 2753 
L 3481 2753 
L 3481 2222 
L 1259 2222 
L 1259 531 
L 3634 531 
L 3634 0 
L 628 0 
L 628 4666 
z
" transform="scale(0.015625)"/>
       <path id="DejaVuSans-44" d="M 1259 4147 
L 1259 519 
L 2022 519 
Q 2988 519 3436 956 
Q 3884 1394 3884 2338 
Q 3884 3275 3436 3711 
Q 2988 4147 2022 4147 
L 1259 4147 
z
M 628 4666 
L 1925 4666 
Q 3281 4666 3915 4102 
Q 4550 3538 4550 2338 
Q 4550 1131 3912 565 
Q 3275 0 1925 0 
L 628 0 
L 628 4666 
z
" transform="scale(0.015625)"/>
       <path id="DejaVuSans-41" d="M 2188 4044 
L 1331 1722 
L 3047 1722 
L 2188 4044 
z
M 1831 4666 
L 2547 4666 
L 4325 0 
L 3669 0 
L 3244 1197 
L 1141 1197 
L 716 0 
L 50 0 
L 1831 4666 
z
" transform="scale(0.015625)"/>
       <path id="DejaVuSans-3bc" d="M 544 -1331 
L 544 3500 
L 1119 3500 
L 1119 1325 
Q 1119 872 1334 640 
Q 1550 409 1972 409 
Q 2434 409 2667 671 
Q 2900 934 2900 1459 
L 2900 3500 
L 3475 3500 
L 3475 806 
Q 3475 619 3529 530 
Q 3584 441 3700 441 
Q 3728 441 3778 458 
Q 3828 475 3916 513 
L 3916 50 
Q 3788 -22 3673 -56 
Q 3559 -91 3450 -91 
Q 3234 -91 3106 31 
Q 2978 153 2931 403 
Q 2775 156 2548 32 
Q 2322 -91 2016 -91 
Q 1697 -91 1473 31 
Q 1250 153 1119 397 
L 1119 -1331 
L 544 -1331 
z
" transform="scale(0.015625)"/>
       <path id="DejaVuSans-53" d="M 3425 4513 
L 3425 3897 
Q 3066 4069 2747 4153 
Q 2428 4238 2131 4238 
Q 1616 4238 1336 4038 
Q 1056 3838 1056 3469 
Q 1056 3159 1242 3001 
Q 1428 2844 1947 2747 
L 2328 2669 
Q 3034 2534 3370 2195 
Q 3706 1856 3706 1288 
Q 3706 609 3251 259 
Q 2797 -91 1919 -91 
Q 1588 -91 1214 -16 
Q 841 59 441 206 
L 441 856 
Q 825 641 1194 531 
Q 1563 422 1919 422 
Q 2459 422 2753 634 
Q 3047 847 3047 1241 
Q 3047 1584 2836 1778 
Q 2625 1972 2144 2069 
L 1759 2144 
Q 1053 2284 737 2584 
Q 422 2884 422 3419 
Q 422 4038 858 4394 
Q 1294 4750 2059 4750 
Q 2388 4750 2728 4690 
Q 3069 4631 3425 4513 
z
" transform="scale(0.015625)"/>
      </defs>
      <use xlink:href="#DejaVuSans-45"/>
      <use xlink:href="#DejaVuSans-44" transform="translate(63.183594 0)"/>
      <use xlink:href="#DejaVuSans-41" transform="translate(138.435547 0)"/>
      <use xlink:href="#DejaVuSans-20" transform="translate(206.84375 0)"/>
      <use xlink:href="#DejaVuSans-28" transform="translate(238.630859 0)"/>
      <use xlink:href="#DejaVuSans-3bc" transform="translate(277.644531 0)"/>
      <use xlink:href="#DejaVuSans-53" transform="translate(341.267578 0)"/>
      <use xlink:href="#DejaVuSans-29" transform="translate(404.744141 0)"/>
     </g>
    </g>
   </g>
   <g id="line2d_29">
    <path d="M 84.418636 238.439315 
L 85.232614 242.828827 
L 85.843097 244.586934 
L 86.250086 245.640633 
L 86.657074 247.481664 
L 87.267557 252.087373 
L 87.878041 256.807079 
L 88.488524 259.652923 
L 89.302501 262.716528 
L 92.151422 276.688156 
L 92.9654 279.560547 
L 93.779377 282.39316 
L 94.593355 285.175576 
L 96.22131 289.534425 
L 96.831793 291.227908 
L 97.442276 292.802162 
L 97.849264 294.933289 
L 98.256253 298.832951 
L 99.477219 313.365845 
L 99.884208 314.99637 
L 100.698186 316.302367 
L 101.105174 317.796909 
L 102.529635 324.085201 
L 103.547107 327.590086 
L 103.954095 328.188151 
L 104.15759 328.156237 
L 104.768073 327.753586 
L 104.971567 328.001101 
L 105.175062 328.618019 
L 105.58205 330.905432 
L 106.599522 337.728786 
L 107.006511 338.988658 
L 107.210005 339.236935 
L 107.616994 339.251422 
L 108.023983 339.155051 
L 108.227477 339.247294 
L 108.634466 339.885299 
L 109.244949 341.682899 
L 109.855432 343.429387 
L 111.686881 347.241699 
L 112.09387 347.789563 
L 112.297364 347.829172 
L 113.111342 347.557477 
L 113.314836 347.94505 
L 113.721825 349.787094 
L 114.535802 354.743451 
L 114.739297 355.295342 
L 114.942791 355.421136 
L 115.146286 355.19813 
L 115.756769 353.947678 
L 115.960263 353.785797 
L 116.163757 353.831504 
L 116.77424 354.41765 
L 116.977735 354.393195 
L 117.181229 354.139713 
L 117.588218 353.071577 
L 117.995207 351.943747 
L 118.198701 351.64907 
L 118.402195 351.622194 
L 118.60569 351.855863 
L 119.216173 353.376236 
L 119.826656 354.553966 
L 120.437139 355.426513 
L 120.844128 356.425246 
L 122.065094 360.100993 
L 123.693049 362.980454 
L 124.100038 363.447335 
L 124.303532 363.476639 
L 124.914015 363.239477 
L 125.117509 363.479597 
L 125.321004 364.14339 
L 125.727993 366.979478 
L 126.338476 371.755357 
L 126.54197 371.568645 
L 126.745464 369.696778 
L 127.152453 361.257389 
L 127.559442 352.932239 
L 127.762936 352.987756 
L 127.966431 358.155074 
L 128.373419 386.419842 
L 129.390891 483.90252 
L 129.594386 490.689603 
L 129.79788 492.353312 
L 130.001374 490.446709 
L 130.611857 479.974225 
L 130.815352 478.388958 
L 131.018846 478.121547 
L 131.22234 478.79684 
L 131.832824 481.989227 
L 132.239812 482.811929 
L 132.850295 483.101853 
L 133.257284 483.74904 
L 133.867767 484.75416 
L 134.071262 484.812902 
L 134.47825 484.514789 
L 134.885239 484.142951 
L 135.088733 484.109038 
L 135.292228 484.220693 
L 135.699216 484.829697 
L 139.362115 492.337484 
L 140.583081 494.583802 
L 141.397059 496.37535 
L 141.600553 496.604408 
L 141.804047 496.650325 
L 142.007542 496.490248 
L 142.414531 495.577299 
L 143.228508 492.415683 
L 143.635497 491.051543 
L 144.042485 490.392847 
L 144.24598 490.365645 
L 144.449474 490.516192 
L 144.856463 491.203424 
L 145.873935 493.335855 
L 146.280923 493.724686 
L 147.298395 494.072449 
L 147.705384 494.66456 
L 148.519362 496.58087 
L 149.333339 498.39869 
L 150.961294 501.390983 
L 151.571777 503.736545 
L 152.18226 506.269603 
L 152.589249 507.198211 
L 152.996238 507.398369 
L 153.403226 507.503348 
L 153.606721 507.830818 
L 154.013709 509.409773 
L 154.420698 511.50577 
L 154.624192 511.954057 
L 154.827687 511.379584 
L 155.031181 509.341598 
L 155.43817 500.061257 
L 156.659136 460.094089 
L 157.066125 455.432379 
L 157.269619 454.698259 
L 157.473114 454.574112 
L 157.880102 455.041311 
L 158.287091 455.48941 
L 159.101069 456.184485 
L 159.508057 456.971411 
L 160.11854 458.792384 
L 160.932518 461.281668 
L 161.339507 461.924652 
L 161.746495 462.030648 
L 162.153484 461.707938 
L 162.763967 461.105765 
L 162.967461 461.116437 
L 163.170956 461.321206 
L 163.577945 462.32683 
L 164.595416 465.614148 
L 165.002405 466.09658 
L 165.816383 466.306465 
L 166.223371 466.925935 
L 167.037349 468.928598 
L 167.240843 468.921643 
L 167.444338 468.465027 
L 168.258315 464.959961 
L 168.461809 465.662376 
L 168.665304 467.852186 
L 169.479281 480.889671 
L 169.682776 476.960591 
L 169.88627 465.604421 
L 170.293259 415.37463 
L 171.921214 130.307826 
L 172.328202 112.492547 
L 172.735191 105.194469 
L 173.956157 88.946358 
L 174.159652 88.516504 
L 174.363146 89.145694 
L 175.177123 95.082615 
L 175.380618 95.161485 
L 175.584112 94.150618 
L 176.601584 85.093012 
L 176.805078 86.322717 
L 177.212067 94.016375 
L 178.229539 120.041495 
L 178.433033 121.551662 
L 178.636528 121.395256 
L 178.840022 119.869238 
L 179.247011 114.238834 
L 180.874966 88.388534 
L 181.281954 86.030559 
L 181.485449 85.909469 
L 181.688943 86.365774 
L 182.706415 90.232091 
L 182.909909 90.254425 
L 183.520392 89.561301 
L 183.723887 89.698751 
L 183.927381 90.296882 
L 184.33437 93.17764 
L 184.741359 98.315796 
L 185.351842 110.154036 
L 186.369314 134.154888 
L 186.572808 135.620604 
L 186.776302 134.736654 
L 186.979797 131.420864 
L 187.386785 119.033705 
L 187.997268 97.873105 
L 188.404257 89.86437 
L 188.607752 88.170045 
L 188.811246 87.677248 
L 189.01474 88.024244 
L 189.421729 89.951586 
L 190.235706 94.134591 
L 191.049684 97.108274 
L 192.067156 99.481553 
L 192.474144 101.887391 
L 192.881133 106.176257 
L 193.695111 115.64669 
L 193.898605 116.821982 
L 194.102099 117.273201 
L 194.305594 117.055046 
L 194.712582 115.155556 
L 195.933549 107.226105 
L 196.137043 106.593449 
L 196.340537 106.338937 
L 196.544032 106.448146 
L 196.951021 107.406176 
L 197.358009 108.387816 
L 197.561504 108.536689 
L 197.764998 108.376172 
L 198.375481 107.260147 
L 198.578975 107.604743 
L 198.78247 108.880546 
L 199.189459 115.03009 
L 200.410425 143.636901 
L 200.613919 145.429833 
L 200.817413 145.988144 
L 201.020908 145.569707 
L 201.427897 143.170451 
L 202.03838 139.78898 
L 202.445368 138.858239 
L 202.852357 138.275813 
L 203.259346 136.916434 
L 204.276818 131.96026 
L 204.480312 131.909668 
L 205.090795 132.654527 
L 205.29429 132.349579 
L 205.497784 131.481116 
L 205.904773 128.249624 
L 206.515256 122.711754 
L 206.922244 120.860893 
L 207.125739 120.648049 
L 207.329233 120.786788 
L 208.143211 122.405351 
L 209.160682 124.37923 
L 210.585143 127.669677 
L 210.992132 127.868188 
L 211.39912 127.540542 
L 212.213098 126.561483 
L 212.620087 126.501509 
L 213.027075 126.515853 
L 213.23057 126.3315 
L 213.434064 125.85998 
L 213.841053 123.622919 
L 214.451536 117.217851 
L 214.858525 113.169337 
L 215.265513 111.24662 
L 215.469008 111.096879 
L 216.079491 111.685914 
L 216.282985 111.492758 
L 216.48648 110.840384 
L 216.893468 108.08004 
L 217.707446 100.853353 
L 217.91094 100.277755 
L 218.114435 100.811981 
L 218.317929 102.633323 
L 218.724918 109.885618 
L 219.538895 127.128564 
L 219.742389 129.156739 
L 219.945884 129.838144 
L 220.149378 129.340444 
L 220.556367 126.176425 
L 221.16685 121.153824 
L 221.573839 119.699599 
L 221.777333 119.596158 
L 221.980827 119.833391 
L 222.387816 121.00701 
L 223.201794 123.820777 
L 223.812277 125.04255 
L 224.42276 126.26161 
L 226.254209 131.033927 
L 226.661198 133.211875 
L 228.085658 142.46667 
L 228.289153 142.638885 
L 228.492647 142.331592 
L 228.899636 140.572557 
L 229.306625 138.481698 
L 229.510119 137.949547 
L 229.713613 138.113622 
L 229.917108 139.167202 
L 230.324096 144.058662 
L 231.138074 156.635943 
L 231.341568 157.544181 
L 231.545063 156.792249 
L 231.748557 154.329887 
L 232.155546 145.317865 
L 232.766029 130.149642 
L 233.173018 125.71229 
L 233.376512 125.893373 
L 233.580006 127.387992 
L 234.597478 137.889132 
L 234.800973 138.089306 
L 235.004467 137.476158 
L 235.411456 134.549758 
L 236.225433 127.661498 
L 236.632422 125.448062 
L 236.835916 124.842002 
L 237.039411 124.767359 
L 237.242905 125.452814 
L 237.446399 127.125688 
L 237.853388 133.816526 
L 238.87086 155.429676 
L 239.074354 156.63456 
L 239.277849 156.324688 
L 239.684837 152.644413 
L 240.091826 148.34281 
L 240.498815 146.337323 
L 240.702309 146.342995 
L 241.109298 147.515121 
L 241.516287 148.833075 
L 241.923275 149.420788 
L 242.533758 149.663535 
L 242.940747 150.380246 
L 244.161713 153.818749 
L 244.365208 153.840433 
L 244.568702 153.635222 
L 245.586174 151.92839 
L 245.789668 151.977161 
L 246.196657 152.511468 
L 246.603646 152.93457 
L 246.80714 152.733903 
L 247.010634 152.079432 
L 247.417623 149.317599 
L 248.028106 144.455964 
L 248.231601 144.167479 
L 248.435095 145.242669 
L 248.638589 147.929983 
L 249.045578 157.956776 
L 250.06305 189.54601 
L 250.470039 196.527652 
L 250.673533 198.023199 
L 250.877027 197.874109 
L 251.080522 195.856202 
L 251.48751 186.405186 
L 252.097994 169.667996 
L 252.301488 168.165432 
L 252.504982 170.133822 
L 252.911971 183.288648 
L 253.725949 216.544299 
L 254.132937 225.559406 
L 254.539926 230.229131 
L 254.74342 231.21749 
L 254.946915 231.050767 
L 255.150409 229.374967 
L 255.557398 220.550289 
L 256.981858 172.552145 
L 257.388847 168.333611 
L 257.592341 167.795363 
L 257.795836 167.905968 
L 258.406319 169.26876 
L 258.609813 169.410031 
L 258.813308 169.289938 
L 259.423791 168.488097 
L 259.627285 168.639437 
L 259.830779 169.214325 
L 260.237768 171.4906 
L 260.644757 173.952949 
L 260.848251 174.600699 
L 261.051746 174.662849 
L 261.662229 173.564915 
L 261.865723 174.506469 
L 262.069217 177.06293 
L 262.476206 187.648243 
L 263.086689 208.321076 
L 263.290184 212.270171 
L 263.493678 213.309135 
L 263.697172 211.283226 
L 264.104161 200.164164 
L 264.714644 180.334751 
L 265.121633 172.734134 
L 265.528622 169.313748 
L 266.139105 166.62316 
L 266.546094 165.320683 
L 266.953082 164.821171 
L 267.156577 164.700867 
L 267.360071 164.376998 
L 267.563565 163.591758 
L 267.970554 160.031984 
L 268.988026 146.809903 
L 269.395015 144.575623 
L 269.802003 143.949411 
L 270.615981 143.423357 
L 270.819475 143.637398 
L 271.02297 144.357209 
L 271.429958 147.943574 
L 272.44743 161.253664 
L 272.650925 161.643907 
L 272.854419 161.041468 
L 273.261408 159.44321 
L 273.464902 160.384797 
L 273.668396 163.79449 
L 274.075385 179.742589 
L 274.889363 223.776259 
L 275.092857 227.605817 
L 275.296351 226.171924 
L 275.499846 219.739269 
L 276.720812 160.386687 
L 276.924306 157.889424 
L 277.127801 157.543511 
L 277.331295 158.562972 
L 278.145272 164.390693 
L 278.552261 165.40119 
L 278.755755 165.529117 
L 278.95925 165.493053 
L 279.366239 165.063534 
L 280.38371 163.490322 
L 280.587205 163.408074 
L 280.790699 163.449409 
L 281.197688 163.852544 
L 282.21516 165.418661 
L 282.418654 165.495864 
L 282.622148 165.379274 
L 283.029137 164.494476 
L 283.843115 162.049521 
L 284.046609 162.075611 
L 284.250103 162.563327 
L 284.657092 164.73793 
L 285.267575 168.445416 
L 285.47107 169.022149 
L 285.674564 169.085079 
L 285.878058 168.650974 
L 286.285047 166.741467 
L 286.89553 163.770037 
L 287.099024 163.302113 
L 287.302519 163.201768 
L 287.506013 163.472572 
L 287.913002 165.019039 
L 289.133968 171.814764 
L 289.337462 172.179015 
L 289.540957 172.259861 
L 290.15144 171.992596 
L 290.354934 172.102673 
L 291.168912 173.239705 
L 291.372406 173.218447 
L 291.779395 172.573412 
L 292.389878 171.357606 
L 292.593372 171.218367 
L 292.796867 171.271611 
L 293.203855 171.919911 
L 294.017833 173.940849 
L 294.221327 174.017764 
L 294.424822 173.721538 
L 295.238799 171.450418 
L 295.442293 172.565143 
L 295.645788 175.365159 
L 296.052777 186.768254 
L 296.866754 216.849921 
L 297.070248 220.147815 
L 297.273743 220.516156 
L 297.477237 218.220132 
L 298.494709 197.548006 
L 298.698203 196.579343 
L 298.901698 196.905806 
L 299.919169 202.211139 
L 300.122664 201.720312 
L 300.529653 199.030573 
L 301.34363 192.868839 
L 301.750619 191.640865 
L 302.564596 190.822881 
L 302.971585 189.683831 
L 303.378574 187.84291 
L 303.989057 183.917285 
L 305.413517 173.49943 
L 305.820506 171.690696 
L 306.024 171.222317 
L 306.227495 171.131385 
L 306.430989 171.409264 
L 306.837978 172.395214 
L 307.041472 172.426098 
L 307.244967 171.5848 
L 307.448461 169.521052 
L 307.85545 161.347274 
L 308.872922 135.257573 
L 309.27991 131.751049 
L 309.483405 131.676684 
L 309.686899 132.375269 
L 310.093888 135.181621 
L 311.721843 148.993621 
L 312.739315 154.047385 
L 312.942809 154.641737 
L 313.146303 154.857227 
L 313.349798 154.619791 
L 313.553292 153.918057 
L 313.960281 151.35816 
L 314.774258 143.95572 
L 315.588236 134.147406 
L 316.198719 127.450488 
L 316.402213 126.399357 
L 316.605707 126.161913 
L 316.809202 126.693824 
L 317.826674 131.673049 
L 318.030168 130.952122 
L 318.437157 126.81071 
L 319.251134 115.140139 
L 319.454629 113.594655 
L 319.658123 113.153557 
L 319.861617 113.928014 
L 320.268606 118.903656 
L 321.286078 136.829974 
L 321.693067 139.774441 
L 321.896561 140.242467 
L 322.100055 140.340373 
L 322.507044 140.328857 
L 322.914033 140.81803 
L 323.321022 141.434723 
L 323.524516 141.401755 
L 323.72801 140.94302 
L 324.134999 138.596931 
L 324.948976 132.397011 
L 325.152471 131.942237 
L 325.355965 132.272686 
L 325.55946 133.383745 
L 325.966448 137.368771 
L 326.576931 144.007786 
L 326.780426 145.342311 
L 326.98392 145.818202 
L 327.187414 145.187178 
L 327.390909 143.231104 
L 327.797898 134.97577 
L 328.815369 107.674132 
L 329.018864 108.140321 
L 329.222358 112.632033 
L 329.629347 133.437136 
L 330.443324 189.301439 
L 330.646819 197.013122 
L 330.850313 200.065416 
L 331.053807 198.360906 
L 331.460796 183.361774 
L 332.274774 144.994345 
L 332.478268 140.553587 
L 332.681762 138.706671 
L 332.885257 138.775869 
L 333.292245 140.706138 
L 333.49574 140.705062 
L 333.699234 139.312957 
L 334.106223 132.732541 
L 334.716706 122.664346 
L 334.9202 121.550609 
L 335.123695 121.542604 
L 335.530683 122.262894 
L 335.734178 121.558076 
L 335.937672 119.56821 
L 336.344661 112.268158 
L 336.955144 100.528332 
L 337.362133 96.506038 
L 337.565627 95.683142 
L 337.769121 95.430722 
L 337.972616 95.599726 
L 338.379605 96.885869 
L 338.786593 99.245568 
L 339.600571 104.72238 
L 339.804065 105.396404 
L 340.00756 105.611313 
L 340.211054 105.444837 
L 340.618043 104.735498 
L 340.821537 104.611771 
L 341.43202 104.965922 
L 341.635514 104.195394 
L 341.839009 102.293964 
L 342.245998 94.927416 
L 342.856481 82.352851 
L 343.059975 80.400906 
L 343.263469 80.152172 
L 343.466964 81.466102 
L 344.077447 90.071478 
L 344.484436 94.806095 
L 344.891424 96.964634 
L 345.298413 97.605585 
L 345.908896 97.983318 
L 346.11239 97.883973 
L 346.315885 97.505192 
L 346.722874 95.707857 
L 347.536851 90.937232 
L 347.740345 90.638204 
L 347.94384 90.92995 
L 348.350828 92.771478 
L 348.757817 94.458203 
L 348.961312 94.53705 
L 349.164806 93.912227 
L 349.571795 90.85614 
L 350.385772 83.665367 
L 350.996255 78.426417 
L 351.606738 71.419835 
L 351.810233 70.235193 
L 352.013727 70.429832 
L 352.217221 72.215042 
L 352.62421 79.819172 
L 353.234693 93.286792 
L 353.641682 98.361128 
L 353.845176 99.504086 
L 354.048671 100.005317 
L 354.455659 100.176564 
L 354.659154 100.2891 
L 354.862648 100.601024 
L 355.269637 101.990421 
L 356.083614 106.179274 
L 356.287109 106.590148 
L 356.490603 106.313405 
L 356.694097 105.199658 
L 357.101086 100.481533 
L 358.118558 85.874051 
L 358.322052 84.599113 
L 358.525547 84.043526 
L 358.729041 84.088554 
L 359.13603 85.327507 
L 359.950007 88.5404 
L 360.56049 89.885958 
L 361.170974 90.552766 
L 361.577962 90.672768 
L 362.188445 90.643058 
L 362.39194 90.735432 
L 362.798928 91.327018 
L 363.205917 92.529732 
L 364.019895 95.24231 
L 364.426883 95.734659 
L 364.833872 95.688254 
L 365.240861 95.71913 
L 365.444355 95.940037 
L 365.851344 96.890929 
L 367.682793 102.750667 
L 369.717737 107.149401 
L 371.956175 111.680771 
L 374.398107 115.088781 
L 375.415579 115.886963 
L 377.043534 116.921096 
L 377.654017 117.468228 
L 378.061006 117.536223 
L 378.467995 117.236702 
L 379.078478 116.692523 
L 379.281972 116.785247 
L 379.485466 117.143569 
L 379.892455 118.740339 
L 380.909927 123.816207 
L 381.113421 124.128075 
L 381.316916 124.163869 
L 382.130893 123.71883 
L 382.334388 123.903619 
L 382.741376 124.68792 
L 383.555354 126.455929 
L 384.369331 127.554207 
L 385.386803 129.03339 
L 386.404275 130.962056 
L 387.014758 131.924293 
L 387.421747 132.09657 
L 387.828735 132.049338 
L 388.03223 132.149256 
L 388.235724 132.479845 
L 388.642713 134.148288 
L 389.863679 142.301508 
L 390.067173 142.811476 
L 390.270668 142.985549 
L 390.474162 142.893693 
L 390.881151 142.199022 
L 391.491634 140.466611 
L 392.509106 137.319536 
L 392.916095 136.871986 
L 393.119589 136.872686 
L 393.526578 137.186579 
L 394.340555 138.048266 
L 394.747544 138.149398 
L 395.561521 138.123693 
L 395.96851 138.455225 
L 397.392971 140.107274 
L 398.206948 140.99588 
L 399.020926 141.837793 
L 399.834903 142.238417 
L 400.64888 142.530135 
L 401.259364 142.493979 
L 402.073341 142.343586 
L 402.683824 142.511412 
L 403.294307 142.994725 
L 403.90479 143.824234 
L 404.718768 144.972988 
L 405.125756 145.232011 
L 406.346723 145.565989 
L 406.753711 146.045551 
L 407.364195 147.201845 
L 408.178172 149.329536 
L 409.195644 151.925005 
L 409.806127 152.959349 
L 411.027093 154.68203 
L 411.841071 156.133592 
L 412.044565 156.2975 
L 412.248059 156.300159 
L 412.655048 155.82592 
L 413.469025 154.41476 
L 413.67252 154.301634 
L 413.876014 154.324019 
L 414.283003 154.695702 
L 415.09698 156.042001 
L 415.910958 157.332987 
L 416.724935 158.216016 
L 419.370362 160.503864 
L 420.18434 161.241735 
L 421.201811 162.506894 
L 422.626272 164.315302 
L 423.033261 164.480107 
L 424.050732 164.513337 
L 424.661216 164.97383 
L 426.696159 166.864969 
L 428.324114 167.898078 
L 429.138092 169.059835 
L 429.748575 169.823507 
L 430.155563 169.926516 
L 430.562552 169.581971 
L 431.580024 168.151428 
L 431.783518 168.07993 
L 432.190507 168.281097 
L 433.207979 169.448738 
L 433.411473 169.481806 
L 433.818462 169.193159 
L 434.835934 167.871959 
L 435.039428 167.824927 
L 435.446417 168.062897 
L 436.0569 168.935593 
L 436.870878 170.064501 
L 437.684855 170.791738 
L 438.905821 171.878324 
L 440.126787 173.003211 
L 441.551248 174.043144 
L 442.365225 174.311511 
L 443.382697 174.511871 
L 443.789686 174.834933 
L 444.400169 175.763266 
L 444.807158 176.346711 
L 445.010652 176.478402 
L 445.214146 176.463075 
L 445.82463 176.122566 
L 446.028124 176.425408 
L 446.231618 177.279954 
L 446.638607 181.129453 
L 447.452585 192.216379 
L 447.656079 193.214453 
L 447.859573 192.780972 
L 448.063068 190.918199 
L 448.673551 180.260721 
L 449.080539 173.977863 
L 449.487528 171.372371 
L 449.691023 171.376607 
L 450.098011 172.771883 
L 450.505 174.302494 
L 450.911989 174.964939 
L 451.522472 175.174903 
L 451.725966 175.427451 
L 452.132955 176.465875 
L 453.557415 181.345722 
L 454.574887 183.426075 
L 455.388865 184.800943 
L 456.813325 186.697415 
L 457.627303 188.129997 
L 458.237786 188.676528 
L 459.051763 189.309282 
L 460.27273 190.726461 
L 461.900684 192.788736 
L 463.121651 193.580556 
L 465.156594 195.894749 
L 466.377561 196.875898 
L 468.005515 197.897849 
L 468.615999 198.268121 
L 469.226482 199.018014 
L 470.040459 200.164316 
L 470.854437 200.821794 
L 471.668414 201.408794 
L 471.871908 201.429404 
L 472.075403 201.314832 
L 472.482391 200.581148 
L 473.499863 197.564914 
L 473.703358 197.356917 
L 473.906852 197.407859 
L 474.110346 197.709922 
L 474.517335 198.865466 
L 475.127818 200.646503 
L 475.331313 200.857845 
L 475.534807 200.750363 
L 475.738301 200.295504 
L 476.14529 198.458389 
L 476.959268 193.928334 
L 477.366256 192.995702 
L 477.569751 193.014992 
L 477.773245 193.307284 
L 478.383728 195.071558 
L 478.994211 196.763079 
L 479.604694 197.764151 
L 481.029155 199.693245 
L 482.250121 201.378975 
L 482.65711 201.646889 
L 482.860604 201.633221 
L 483.267593 201.219802 
L 483.878076 199.805624 
L 484.488559 198.468765 
L 484.692053 198.270361 
L 484.895548 198.231154 
L 485.302537 198.544899 
L 488.558446 202.665244 
L 489.168929 203.314762 
L 491.814356 207.265122 
L 492.221345 207.676301 
L 492.628334 207.840497 
L 493.035322 207.777382 
L 493.645805 207.364905 
L 494.866772 206.148705 
L 495.27376 206.167853 
L 495.680749 206.585743 
L 496.291232 207.748604 
L 497.10521 209.22031 
L 497.919187 210.084334 
L 498.936659 211.186639 
L 501.582086 214.327801 
L 502.803052 215.591388 
L 503.413535 215.809275 
L 504.227513 216.026597 
L 506.058962 216.886285 
L 507.076434 216.762785 
L 507.483422 216.983249 
L 508.093905 217.675928 
L 508.907883 218.587023 
L 510.535838 219.824836 
L 511.349815 220.520215 
L 512.367287 221.308562 
L 514.198736 223.072689 
L 515.826691 223.944456 
L 516.23368 224.688474 
L 517.047658 226.366436 
L 517.251152 226.450571 
L 517.454646 226.286573 
L 517.861635 225.230393 
L 518.879107 221.553585 
L 519.082601 221.250108 
L 519.286096 221.173411 
L 519.48959 221.308103 
L 519.896579 222.05182 
L 521.117545 224.79642 
L 522.338511 226.646066 
L 523.152489 227.40202 
L 524.780443 228.628953 
L 525.187432 228.634328 
L 526.611893 228.316315 
L 527.222376 228.589483 
L 527.832859 229.137409 
L 528.646836 230.071212 
L 528.850331 230.160478 
L 529.053825 230.113082 
L 529.460814 229.554723 
L 530.68178 226.880814 
L 530.885274 226.805118 
L 531.292263 227.045125 
L 535.36215 232.152396 
L 535.972634 232.930638 
L 536.379622 233.107398 
L 537.397094 233.091692 
L 537.804083 233.439836 
L 540.042521 236.386793 
L 540.856498 236.976891 
L 542.484453 237.840314 
L 543.298431 238.223656 
L 545.740363 239.250348 
L 547.164824 240.403906 
L 548.792779 241.210192 
L 550.217239 242.149468 
L 550.827722 242.57168 
L 551.6417 242.774685 
L 552.048688 242.944636 
L 553.473149 243.926937 
L 554.490621 243.978232 
L 554.89761 244.304301 
L 555.915081 245.668172 
L 556.118576 245.68724 
L 556.32207 245.481042 
L 556.729059 244.272404 
L 557.950025 238.768792 
L 558.153519 238.625019 
L 558.357014 238.800528 
L 558.764002 239.814272 
L 559.374486 241.442738 
L 559.57798 241.62883 
L 559.781474 241.515513 
L 559.984969 241.050852 
L 560.391957 238.93429 
L 561.00244 233.175958 
L 561.612924 227.528704 
L 562.019912 225.433474 
L 562.426901 223.654022 
L 562.83389 220.142659 
L 564.054856 204.198261 
L 564.25835 203.975732 
L 564.461845 204.784688 
L 564.868833 208.466001 
L 565.479317 214.097185 
L 565.682811 215.006238 
L 565.886305 215.323386 
L 566.0898 215.148781 
L 566.903777 213.198154 
L 567.107271 213.166683 
L 567.310766 213.420533 
L 567.717755 214.533462 
L 568.735226 217.601184 
L 569.752698 220.277532 
L 571.584148 225.691128 
L 571.787642 225.9144 
L 571.991136 225.869367 
L 572.194631 225.483686 
L 572.601619 223.552128 
L 573.212102 218.477227 
L 574.840057 203.104417 
L 575.45054 196.158971 
L 575.857529 194.017881 
L 576.061024 194.011598 
L 576.264518 194.612965 
L 577.485484 200.637299 
L 577.892473 201.228897 
L 578.502956 201.825512 
L 578.909945 202.66937 
L 579.520428 204.127566 
L 579.723922 204.250133 
L 579.927416 203.958394 
L 580.130911 203.127171 
L 580.5379 199.625523 
L 581.351877 189.832644 
L 581.555371 189.021735 
L 581.758866 189.613955 
L 582.165855 194.55065 
L 582.572843 200.002827 
L 582.776338 200.536328 
L 582.979832 198.698856 
L 583.386821 188.356963 
L 584.200798 163.547828 
L 584.607787 158.490143 
L 584.811281 157.733173 
L 585.014776 157.814515 
L 585.21827 158.561758 
L 585.625259 161.829717 
L 586.032247 167.477847 
L 587.660202 195.202172 
L 588.270685 200.111869 
L 590.102135 211.49617 
L 591.119607 215.094083 
L 591.73009 216.838355 
L 592.137078 217.390363 
L 592.544067 217.443618 
L 592.951056 217.435404 
L 593.15455 217.588899 
L 593.561539 218.399995 
L 594.172022 219.979757 
L 594.375516 220.030382 
L 594.579011 219.57025 
L 594.782505 218.509041 
L 595.189494 214.730423 
L 596.003471 205.938665 
L 596.41046 203.395116 
L 597.224438 199.430406 
L 597.834921 194.711918 
L 598.445404 190.176333 
L 598.648898 189.333644 
L 598.852392 188.972661 
L 599.055887 189.086995 
L 599.462876 190.377881 
L 600.073359 192.737344 
L 600.276853 193.135831 
L 600.480347 193.270218 
L 600.683842 193.176462 
L 601.701314 191.893452 
L 601.904808 191.935404 
L 602.311797 192.475649 
L 602.92228 193.63985 
L 603.125774 193.833243 
L 603.329269 193.835642 
L 603.532763 193.633606 
L 603.939752 192.750203 
L 604.550235 191.395262 
L 604.753729 191.241535 
L 604.957223 191.289338 
L 605.364212 191.889426 
L 606.381684 194.085886 
L 606.788673 194.528195 
L 607.399156 194.707726 
L 607.806145 194.930196 
L 608.213133 195.662922 
L 609.027111 198.005016 
L 609.230605 198.183507 
L 609.434099 197.971239 
L 609.637594 197.321004 
L 610.044583 194.850184 
L 610.85856 189.342647 
L 611.062054 188.993637 
L 611.265549 189.366371 
L 611.469043 190.487757 
L 611.876032 194.570883 
L 612.690009 204.099843 
L 613.096998 207.022122 
L 613.503987 208.48228 
L 613.707481 208.68866 
L 613.910976 208.525881 
L 614.11447 207.968435 
L 614.521459 205.611798 
L 614.928447 201.709341 
L 615.742425 190.886934 
L 616.556402 179.854636 
L 616.963391 177.003421 
L 617.573874 175.209357 
L 617.777368 174.00191 
L 618.184357 169.646671 
L 618.998335 159.890526 
L 620.015807 152.101563 
L 621.033278 140.162885 
L 621.236773 139.403849 
L 621.440267 139.482101 
L 621.643761 140.29631 
L 622.661233 147.341064 
L 622.864728 147.660886 
L 623.068222 147.282823 
L 623.475211 144.580634 
L 624.085694 137.457835 
L 624.899671 125.381505 
L 625.917143 109.070325 
L 626.527626 103.243459 
L 627.138109 97.924415 
L 627.952087 89.859788 
L 628.155581 89.079586 
L 628.359075 89.19822 
L 628.56257 90.213103 
L 628.969559 94.286358 
L 629.98703 106.012487 
L 631.411491 118.102419 
L 631.81848 120.107765 
L 632.021974 120.562777 
L 632.225468 120.658668 
L 632.428963 120.443101 
L 633.446435 118.265245 
L 633.649929 118.455974 
L 634.056918 119.74602 
L 634.260412 120.464597 
L 634.463906 120.774431 
L 634.667401 120.245236 
L 634.870895 118.479096 
L 635.277884 110.42825 
L 636.49885 76.25941 
L 636.702344 74.958783 
L 636.905839 75.473099 
L 637.312828 80.657101 
L 638.533794 102.208081 
L 638.940783 105.635528 
L 639.347771 107.023325 
L 639.958254 108.036228 
L 640.365243 109.494186 
L 641.382715 114.033516 
L 641.789704 114.659153 
L 642.400187 115.018391 
L 642.807175 115.844176 
L 643.417659 118.272834 
L 644.028142 120.701236 
L 644.43513 121.665349 
L 644.842119 122.130464 
L 645.859591 122.817217 
L 646.26658 123.485396 
L 646.877063 125.102707 
L 647.894535 127.947765 
L 648.301523 128.548159 
L 648.912006 128.977765 
L 649.929478 129.364912 
L 650.336467 129.278832 
L 651.150444 128.901161 
L 651.557433 129.024409 
L 651.964422 129.464519 
L 653.795871 132.074088 
L 654.20286 132.287367 
L 654.609849 132.161959 
L 655.62732 131.263719 
L 656.034309 131.395231 
L 656.644792 131.776099 
L 656.848287 131.667233 
L 657.051781 131.344144 
L 657.45877 130.077594 
L 658.272747 127.176676 
L 658.476242 126.88593 
L 658.679736 126.844803 
L 658.88323 127.024283 
L 659.493713 128.25529 
L 660.104197 129.314272 
L 660.918174 130.371532 
L 661.528657 131.861073 
L 661.935646 132.776126 
L 662.13914 132.927608 
L 662.342635 132.730302 
L 662.546129 132.103073 
L 662.953118 129.49881 
L 663.970589 120.751469 
L 664.377578 119.513172 
L 664.581073 119.457111 
L 664.988061 119.660196 
L 665.191556 119.531124 
L 665.39505 119.055076 
L 665.802039 117.014609 
L 666.412522 113.522707 
L 666.616016 113.143661 
L 666.819511 113.413602 
L 667.226499 115.695741 
L 667.836982 120.099155 
L 668.243971 121.398257 
L 668.65096 121.962266 
L 669.261443 123.209087 
L 669.464937 122.612254 
L 669.668432 120.485689 
L 670.07542 110.067861 
L 670.889398 81.157769 
L 671.092892 79.146999 
L 671.296387 80.623905 
L 671.703375 91.804223 
L 672.313858 112.843191 
L 672.720847 120.646535 
L 673.127836 123.51296 
L 673.534825 124.952066 
L 673.941813 127.567277 
L 675.366274 140.650002 
L 675.976757 143.441265 
L 677.401218 148.842313 
L 678.215195 150.721427 
L 679.029173 152.717343 
L 679.639656 154.743069 
L 680.250139 157.67266 
L 681.267611 162.759865 
L 681.878094 164.546671 
L 684.116532 169.761522 
L 685.744487 172.448111 
L 687.575936 174.527414 
L 687.982925 174.871481 
L 689.000396 175.406573 
L 689.814374 176.801501 
L 690.017868 176.784452 
L 690.221363 176.341798 
L 690.628351 174.01903 
L 691.238834 169.628477 
L 691.442329 169.286807 
L 691.645823 170.001866 
L 692.052812 174.523288 
L 692.663295 183.486029 
L 692.866789 185.219565 
L 693.070284 185.964921 
L 693.273778 185.853032 
L 694.087756 183.293093 
L 694.29125 183.45596 
L 694.494744 184.094771 
L 695.105227 187.636994 
L 695.71571 190.693014 
L 696.122699 191.569305 
L 696.529688 191.710487 
L 697.140171 191.589424 
L 697.343665 191.71007 
L 697.750654 192.417337 
L 698.768126 195.184445 
L 698.97162 195.357096 
L 699.175115 195.326129 
L 699.582103 194.853135 
L 699.989092 194.353333 
L 700.192587 194.274911 
L 700.396081 194.370518 
L 700.80307 195.135048 
L 701.210058 196.601876 
L 702.634519 202.869095 
L 703.041508 203.394057 
L 703.651991 203.654539 
L 704.058979 204.347029 
L 705.279946 207.565537 
L 705.48344 207.640069 
L 706.297418 207.330727 
L 706.500912 207.51295 
L 706.907901 208.442261 
L 707.518384 210.137929 
L 707.721878 210.299398 
L 707.925372 210.089331 
L 708.332361 208.535143 
L 709.146339 204.107787 
L 709.349833 203.596784 
L 709.553327 203.481805 
L 709.756822 203.729501 
L 710.16381 204.93415 
L 710.774294 206.830347 
L 711.181282 207.440106 
L 711.99526 208.045089 
L 712.605743 209.011761 
L 713.41972 210.296391 
L 714.233698 211.478643 
L 714.844181 212.952981 
L 715.861653 215.634328 
L 716.268641 216.18757 
L 717.082619 216.886365 
L 717.489608 217.656077 
L 718.507079 220.181501 
L 718.914068 220.503279 
L 719.728046 220.535553 
L 719.93154 220.80565 
L 720.338529 221.902304 
L 721.559495 226.0897 
L 721.966484 226.555127 
L 722.983955 227.17565 
L 724.001427 228.128432 
L 724.815405 228.645723 
L 725.222394 229.211033 
L 726.44336 231.389623 
L 727.053843 231.875012 
L 727.664326 232.356534 
L 730.920236 235.76376 
L 732.344696 236.731358 
L 735.600606 240.527352 
L 736.618078 242.111639 
L 738.653022 244.45496 
L 739.263505 244.837481 
L 740.077482 245.090489 
L 740.484471 245.425477 
L 742.112426 247.197329 
L 742.926403 247.976059 
L 743.536886 248.583101 
L 743.943875 248.746379 
L 744.961347 248.876071 
L 745.57183 249.373202 
L 746.182313 249.847529 
L 748.420751 250.789795 
L 749.234729 250.986814 
L 749.641717 251.464089 
L 750.659189 253.205999 
L 751.066178 253.296203 
L 752.287144 252.75162 
L 752.694133 253.041653 
L 753.915099 254.168362 
L 755.136065 254.904742 
L 756.76402 256.350901 
L 758.595469 257.472863 
L 761.851379 259.858235 
L 762.258368 259.81194 
L 763.27584 259.416846 
L 763.682829 259.53511 
L 764.089817 259.903038 
L 764.903795 261.102787 
L 765.514278 261.918269 
L 765.921267 262.219621 
L 766.328255 262.25566 
L 767.549222 261.806844 
L 768.159705 262.203144 
L 768.566693 262.405206 
L 768.973682 262.287105 
L 769.78766 261.671206 
L 770.194648 261.741114 
L 771.415614 262.590328 
L 772.026098 262.813263 
L 772.433086 263.270673 
L 773.450558 264.810988 
L 773.857547 264.956494 
L 775.078513 264.798519 
L 775.688996 265.235627 
L 776.502974 265.934451 
L 776.909962 266.048822 
L 777.520445 265.87701 
L 778.130929 265.717308 
L 778.537917 265.864737 
L 779.1484 266.489392 
L 779.962378 267.345011 
L 780.572861 267.570658 
L 781.183344 267.715399 
L 781.590333 267.979269 
L 782.607805 268.913383 
L 783.014793 268.965368 
L 784.23576 268.628314 
L 784.642748 268.914508 
L 786.270703 270.62393 
L 786.677692 270.662985 
L 787.898658 270.446571 
L 788.305647 270.686163 
L 788.91613 271.524553 
L 790.137096 273.497623 
L 790.747579 274.132583 
L 791.358062 274.372229 
L 791.968545 274.574962 
L 792.579029 275.147137 
L 793.189512 275.718402 
L 793.5965 275.80416 
L 794.613972 275.651686 
L 795.020961 275.901092 
L 795.834938 276.565935 
L 796.241927 276.660067 
L 797.055905 276.628424 
L 797.462893 276.844553 
L 798.276871 277.729733 
L 799.090848 278.505506 
L 800.10832 279.353375 
L 800.922297 280.465367 
L 801.532781 281.161002 
L 801.939769 281.262883 
L 802.753747 281.233962 
L 803.160736 281.571882 
L 804.381702 283.011408 
L 804.78869 283.071499 
L 806.009657 282.766637 
L 806.62014 283.079974 
L 807.230623 283.344594 
L 808.248095 283.408841 
L 808.655083 283.851963 
L 809.87605 285.921277 
L 810.486533 286.214653 
L 810.893521 286.453407 
L 811.504004 287.199328 
L 812.114488 288.022382 
L 812.521476 288.294921 
L 812.928465 288.257948 
L 814.352926 287.540605 
L 814.759914 287.870688 
L 815.370397 288.994886 
L 815.980881 289.982468 
L 816.387869 290.13586 
L 816.591364 290.109712 
L 816.591364 290.109712 
" clip-path="url(#p06c75ecba8)" style="fill: none; stroke: #0000ff; stroke-width: 0.5; stroke-linecap: square"/>
   </g>
   <g id="patch_3">
    <path d="M 47.81 534.04 
L 47.81 48.14925 
" style="fill: none; stroke: #000000; stroke-width: 0.8; stroke-linejoin: miter; stroke-linecap: square"/>
   </g>
   <g id="patch_4">
    <path d="M 853.2 534.04 
L 853.2 48.14925 
" style="fill: none; stroke: #000000; stroke-width: 0.8; stroke-linejoin: miter; stroke-linecap: square"/>
   </g>
   <g id="patch_5">
    <path d="M 47.81 534.04 
L 853.2 534.04 
" style="fill: none; stroke: #000000; stroke-width: 0.8; stroke-linejoin: miter; stroke-linecap: square"/>
   </g>
   <g id="patch_6">
    <path d="M 47.81 48.14925 
L 853.2 48.14925 
" style="fill: none; stroke: #000000; stroke-width: 0.8; stroke-linejoin: miter; stroke-linecap: square"/>
   </g>
   <g id="text_17">
    <!-- EDA Filtering: data_9_E4 -->
    <g transform="translate(389.400313 19.4755) scale(0.1 -0.1)">
     <defs>
      <path id="DejaVuSans-46" d="M 628 4666 
L 3309 4666 
L 3309 4134 
L 1259 4134 
L 1259 2759 
L 3109 2759 
L 3109 2228 
L 1259 2228 
L 1259 0 
L 628 0 
L 628 4666 
z
" transform="scale(0.015625)"/>
      <path id="DejaVuSans-6c" d="M 603 4863 
L 1178 4863 
L 1178 0 
L 603 0 
L 603 4863 
z
" transform="scale(0.015625)"/>
      <path id="DejaVuSans-72" d="M 2631 2963 
Q 2534 3019 2420 3045 
Q 2306 3072 2169 3072 
Q 1681 3072 1420 2755 
Q 1159 2438 1159 1844 
L 1159 0 
L 581 0 
L 581 3500 
L 1159 3500 
L 1159 2956 
Q 1341 3275 1631 3429 
Q 1922 3584 2338 3584 
Q 2397 3584 2469 3576 
Q 2541 3569 2628 3553 
L 2631 2963 
z
" transform="scale(0.015625)"/>
      <path id="DejaVuSans-67" d="M 2906 1791 
Q 2906 2416 2648 2759 
Q 2391 3103 1925 3103 
Q 1463 3103 1205 2759 
Q 947 2416 947 1791 
Q 947 1169 1205 825 
Q 1463 481 1925 481 
Q 2391 481 2648 825 
Q 2906 1169 2906 1791 
z
M 3481 434 
Q 3481 -459 3084 -895 
Q 2688 -1331 1869 -1331 
Q 1566 -1331 1297 -1286 
Q 1028 -1241 775 -1147 
L 775 -588 
Q 1028 -725 1275 -790 
Q 1522 -856 1778 -856 
Q 2344 -856 2625 -561 
Q 2906 -266 2906 331 
L 2906 616 
Q 2728 306 2450 153 
Q 2172 0 1784 0 
Q 1141 0 747 490 
Q 353 981 353 1791 
Q 353 2603 747 3093 
Q 1141 3584 1784 3584 
Q 2172 3584 2450 3431 
Q 2728 3278 2906 2969 
L 2906 3500 
L 3481 3500 
L 3481 434 
z
" transform="scale(0.015625)"/>
      <path id="DejaVuSans-3a" d="M 750 794 
L 1409 794 
L 1409 0 
L 750 0 
L 750 794 
z
M 750 3309 
L 1409 3309 
L 1409 2516 
L 750 2516 
L 750 3309 
z
" transform="scale(0.015625)"/>
      <path id="DejaVuSans-64" d="M 2906 2969 
L 2906 4863 
L 3481 4863 
L 3481 0 
L 2906 0 
L 2906 525 
Q 2725 213 2448 61 
Q 2172 -91 1784 -91 
Q 1150 -91 751 415 
Q 353 922 353 1747 
Q 353 2572 751 3078 
Q 1150 3584 1784 3584 
Q 2172 3584 2448 3432 
Q 2725 3281 2906 2969 
z
M 947 1747 
Q 947 1113 1208 752 
Q 1469 391 1925 391 
Q 2381 391 2643 752 
Q 2906 1113 2906 1747 
Q 2906 2381 2643 2742 
Q 2381 3103 1925 3103 
Q 1469 3103 1208 2742 
Q 947 2381 947 1747 
z
" transform="scale(0.015625)"/>
      <path id="DejaVuSans-61" d="M 2194 1759 
Q 1497 1759 1228 1600 
Q 959 1441 959 1056 
Q 959 750 1161 570 
Q 1363 391 1709 391 
Q 2188 391 2477 730 
Q 2766 1069 2766 1631 
L 2766 1759 
L 2194 1759 
z
M 3341 1997 
L 3341 0 
L 2766 0 
L 2766 531 
Q 2569 213 2275 61 
Q 1981 -91 1556 -91 
Q 1019 -91 701 211 
Q 384 513 384 1019 
Q 384 1609 779 1909 
Q 1175 2209 1959 2209 
L 2766 2209 
L 2766 2266 
Q 2766 2663 2505 2880 
Q 2244 3097 1772 3097 
Q 1472 3097 1187 3025 
Q 903 2953 641 2809 
L 641 3341 
Q 956 3463 1253 3523 
Q 1550 3584 1831 3584 
Q 2591 3584 2966 3190 
Q 3341 2797 3341 1997 
z
" transform="scale(0.015625)"/>
      <path id="DejaVuSans-5f" d="M 3263 -1063 
L 3263 -1509 
L -63 -1509 
L -63 -1063 
L 3263 -1063 
z
" transform="scale(0.015625)"/>
      <path id="DejaVuSans-39" d="M 703 97 
L 703 672 
Q 941 559 1184 500 
Q 1428 441 1663 441 
Q 2288 441 2617 861 
Q 2947 1281 2994 2138 
Q 2813 1869 2534 1725 
Q 2256 1581 1919 1581 
Q 1219 1581 811 2004 
Q 403 2428 403 3163 
Q 403 3881 828 4315 
Q 1253 4750 1959 4750 
Q 2769 4750 3195 4129 
Q 3622 3509 3622 2328 
Q 3622 1225 3098 567 
Q 2575 -91 1691 -91 
Q 1453 -91 1209 -44 
Q 966 3 703 97 
z
M 1959 2075 
Q 2384 2075 2632 2365 
Q 2881 2656 2881 3163 
Q 2881 3666 2632 3958 
Q 2384 4250 1959 4250 
Q 1534 4250 1286 3958 
Q 1038 3666 1038 3163 
Q 1038 2656 1286 2365 
Q 1534 2075 1959 2075 
z
" transform="scale(0.015625)"/>
     </defs>
     <use xlink:href="#DejaVuSans-45"/>
     <use xlink:href="#DejaVuSans-44" transform="translate(63.183594 0)"/>
     <use xlink:href="#DejaVuSans-41" transform="translate(138.435547 0)"/>
     <use xlink:href="#DejaVuSans-20" transform="translate(206.84375 0)"/>
     <use xlink:href="#DejaVuSans-46" transform="translate(238.630859 0)"/>
     <use xlink:href="#DejaVuSans-69" transform="translate(288.900391 0)"/>
     <use xlink:href="#DejaVuSans-6c" transform="translate(316.683594 0)"/>
     <use xlink:href="#DejaVuSans-74" transform="translate(344.466797 0)"/>
     <use xlink:href="#DejaVuSans-65" transform="translate(383.675781 0)"/>
     <use xlink:href="#DejaVuSans-72" transform="translate(445.199219 0)"/>
     <use xlink:href="#DejaVuSans-69" transform="translate(486.3125 0)"/>
     <use xlink:href="#DejaVuSans-6e" transform="translate(514.095703 0)"/>
     <use xlink:href="#DejaVuSans-67" transform="translate(577.474609 0)"/>
     <use xlink:href="#DejaVuSans-3a" transform="translate(640.951172 0)"/>
     <use xlink:href="#DejaVuSans-20" transform="translate(674.642578 0)"/>
     <use xlink:href="#DejaVuSans-64" transform="translate(706.429688 0)"/>
     <use xlink:href="#DejaVuSans-61" transform="translate(769.90625 0)"/>
     <use xlink:href="#DejaVuSans-74" transform="translate(831.185547 0)"/>
     <use xlink:href="#DejaVuSans-61" transform="translate(870.394531 0)"/>
     <use xlink:href="#DejaVuSans-5f" transform="translate(931.673828 0)"/>
     <use xlink:href="#DejaVuSans-39" transform="translate(981.673828 0)"/>
     <use xlink:href="#DejaVuSans-5f" transform="translate(1045.296875 0)"/>
     <use xlink:href="#DejaVuSans-45" transform="translate(1095.296875 0)"/>
     <use xlink:href="#DejaVuSans-34" transform="translate(1158.480469 0)"/>
    </g>
    <!-- Window=5, Threshold=0.45, Sample=3599 (899.8s) -->
    <g transform="translate(319.032344 30.951437) scale(0.1 -0.1)">
     <defs>
      <path id="DejaVuSans-57" d="M 213 4666 
L 850 4666 
L 1831 722 
L 2809 4666 
L 3519 4666 
L 4500 722 
L 5478 4666 
L 6119 4666 
L 4947 0 
L 4153 0 
L 3169 4050 
L 2175 0 
L 1381 0 
L 213 4666 
z
" transform="scale(0.015625)"/>
      <path id="DejaVuSans-6f" d="M 1959 3097 
Q 1497 3097 1228 2736 
Q 959 2375 959 1747 
Q 959 1119 1226 758 
Q 1494 397 1959 397 
Q 2419 397 2687 759 
Q 2956 1122 2956 1747 
Q 2956 2369 2687 2733 
Q 2419 3097 1959 3097 
z
M 1959 3584 
Q 2709 3584 3137 3096 
Q 3566 2609 3566 1747 
Q 3566 888 3137 398 
Q 2709 -91 1959 -91 
Q 1206 -91 779 398 
Q 353 888 353 1747 
Q 353 2609 779 3096 
Q 1206 3584 1959 3584 
z
" transform="scale(0.015625)"/>
      <path id="DejaVuSans-77" d="M 269 3500 
L 844 3500 
L 1563 769 
L 2278 3500 
L 2956 3500 
L 3675 769 
L 4391 3500 
L 4966 3500 
L 4050 0 
L 3372 0 
L 2619 2869 
L 1863 0 
L 1184 0 
L 269 3500 
z
" transform="scale(0.015625)"/>
      <path id="DejaVuSans-3d" d="M 678 2906 
L 4684 2906 
L 4684 2381 
L 678 2381 
L 678 2906 
z
M 678 1631 
L 4684 1631 
L 4684 1100 
L 678 1100 
L 678 1631 
z
" transform="scale(0.015625)"/>
      <path id="DejaVuSans-2c" d="M 750 794 
L 1409 794 
L 1409 256 
L 897 -744 
L 494 -744 
L 750 256 
L 750 794 
z
" transform="scale(0.015625)"/>
      <path id="DejaVuSans-68" d="M 3513 2113 
L 3513 0 
L 2938 0 
L 2938 2094 
Q 2938 2591 2744 2837 
Q 2550 3084 2163 3084 
Q 1697 3084 1428 2787 
Q 1159 2491 1159 1978 
L 1159 0 
L 581 0 
L 581 4863 
L 1159 4863 
L 1159 2956 
Q 1366 3272 1645 3428 
Q 1925 3584 2291 3584 
Q 2894 3584 3203 3211 
Q 3513 2838 3513 2113 
z
" transform="scale(0.015625)"/>
      <path id="DejaVuSans-70" d="M 1159 525 
L 1159 -1331 
L 581 -1331 
L 581 3500 
L 1159 3500 
L 1159 2969 
Q 1341 3281 1617 3432 
Q 1894 3584 2278 3584 
Q 2916 3584 3314 3078 
Q 3713 2572 3713 1747 
Q 3713 922 3314 415 
Q 2916 -91 2278 -91 
Q 1894 -91 1617 61 
Q 1341 213 1159 525 
z
M 3116 1747 
Q 3116 2381 2855 2742 
Q 2594 3103 2138 3103 
Q 1681 3103 1420 2742 
Q 1159 2381 1159 1747 
Q 1159 1113 1420 752 
Q 1681 391 2138 391 
Q 2594 391 2855 752 
Q 3116 1113 3116 1747 
z
" transform="scale(0.015625)"/>
     </defs>
     <use xlink:href="#DejaVuSans-57"/>
     <use xlink:href="#DejaVuSans-69" transform="translate(96.626953 0)"/>
     <use xlink:href="#DejaVuSans-6e" transform="translate(124.410156 0)"/>
     <use xlink:href="#DejaVuSans-64" transform="translate(187.789062 0)"/>
     <use xlink:href="#DejaVuSans-6f" transform="translate(251.265625 0)"/>
     <use xlink:href="#DejaVuSans-77" transform="translate(312.447266 0)"/>
     <use xlink:href="#DejaVuSans-3d" transform="translate(394.234375 0)"/>
     <use xlink:href="#DejaVuSans-35" transform="translate(478.023438 0)"/>
     <use xlink:href="#DejaVuSans-2c" transform="translate(541.646484 0)"/>
     <use xlink:href="#DejaVuSans-20" transform="translate(573.433594 0)"/>
     <use xlink:href="#DejaVuSans-54" transform="translate(605.220703 0)"/>
     <use xlink:href="#DejaVuSans-68" transform="translate(666.304688 0)"/>
     <use xlink:href="#DejaVuSans-72" transform="translate(729.683594 0)"/>
     <use xlink:href="#DejaVuSans-65" transform="translate(768.546875 0)"/>
     <use xlink:href="#DejaVuSans-73" transform="translate(830.070312 0)"/>
     <use xlink:href="#DejaVuSans-68" transform="translate(882.169922 0)"/>
     <use xlink:href="#DejaVuSans-6f" transform="translate(945.548828 0)"/>
     <use xlink:href="#DejaVuSans-6c" transform="translate(1006.730469 0)"/>
     <use xlink:href="#DejaVuSans-64" transform="translate(1034.513672 0)"/>
     <use xlink:href="#DejaVuSans-3d" transform="translate(1097.990234 0)"/>
     <use xlink:href="#DejaVuSans-30" transform="translate(1181.779297 0)"/>
     <use xlink:href="#DejaVuSans-2e" transform="translate(1245.402344 0)"/>
     <use xlink:href="#DejaVuSans-34" transform="translate(1277.189453 0)"/>
     <use xlink:href="#DejaVuSans-35" transform="translate(1340.8125 0)"/>
     <use xlink:href="#DejaVuSans-2c" transform="translate(1404.435547 0)"/>
     <use xlink:href="#DejaVuSans-20" transform="translate(1436.222656 0)"/>
     <use xlink:href="#DejaVuSans-53" transform="translate(1468.009766 0)"/>
     <use xlink:href="#DejaVuSans-61" transform="translate(1531.486328 0)"/>
     <use xlink:href="#DejaVuSans-6d" transform="translate(1592.765625 0)"/>
     <use xlink:href="#DejaVuSans-70" transform="translate(1690.177734 0)"/>
     <use xlink:href="#DejaVuSans-6c" transform="translate(1753.654297 0)"/>
     <use xlink:href="#DejaVuSans-65" transform="translate(1781.4375 0)"/>
     <use xlink:href="#DejaVuSans-3d" transform="translate(1842.960938 0)"/>
     <use xlink:href="#DejaVuSans-33" transform="translate(1926.75 0)"/>
     <use xlink:href="#DejaVuSans-35" transform="translate(1990.373047 0)"/>
     <use xlink:href="#DejaVuSans-39" transform="translate(2053.996094 0)"/>
     <use xlink:href="#DejaVuSans-39" transform="translate(2117.619141 0)"/>
     <use xlink:href="#DejaVuSans-20" transform="translate(2181.242188 0)"/>
     <use xlink:href="#DejaVuSans-28" transform="translate(2213.029297 0)"/>
     <use xlink:href="#DejaVuSans-38" transform="translate(2252.042969 0)"/>
     <use xlink:href="#DejaVuSans-39" transform="translate(2315.666016 0)"/>
     <use xlink:href="#DejaVuSans-39" transform="translate(2379.289062 0)"/>
     <use xlink:href="#DejaVuSans-2e" transform="translate(2442.912109 0)"/>
     <use xlink:href="#DejaVuSans-38" transform="translate(2474.699219 0)"/>
     <use xlink:href="#DejaVuSans-73" transform="translate(2538.322266 0)"/>
     <use xlink:href="#DejaVuSans-29" transform="translate(2590.421875 0)"/>
    </g>
    <!-- Remove: Total=0.00%, Thr=0.00%, Med=0.00%, Vel=0.00%, Temp=0.00% -->
    <g transform="translate(262.5175 42.14925) scale(0.1 -0.1)">
     <defs>
      <path id="DejaVuSans-52" d="M 2841 2188 
Q 3044 2119 3236 1894 
Q 3428 1669 3622 1275 
L 4263 0 
L 3584 0 
L 2988 1197 
Q 2756 1666 2539 1819 
Q 2322 1972 1947 1972 
L 1259 1972 
L 1259 0 
L 628 0 
L 628 4666 
L 2053 4666 
Q 2853 4666 3247 4331 
Q 3641 3997 3641 3322 
Q 3641 2881 3436 2590 
Q 3231 2300 2841 2188 
z
M 1259 4147 
L 1259 2491 
L 2053 2491 
Q 2509 2491 2742 2702 
Q 2975 2913 2975 3322 
Q 2975 3731 2742 3939 
Q 2509 4147 2053 4147 
L 1259 4147 
z
" transform="scale(0.015625)"/>
      <path id="DejaVuSans-76" d="M 191 3500 
L 800 3500 
L 1894 563 
L 2988 3500 
L 3597 3500 
L 2284 0 
L 1503 0 
L 191 3500 
z
" transform="scale(0.015625)"/>
      <path id="DejaVuSans-25" d="M 4653 2053 
Q 4381 2053 4226 1822 
Q 4072 1591 4072 1178 
Q 4072 772 4226 539 
Q 4381 306 4653 306 
Q 4919 306 5073 539 
Q 5228 772 5228 1178 
Q 5228 1588 5073 1820 
Q 4919 2053 4653 2053 
z
M 4653 2450 
Q 5147 2450 5437 2106 
Q 5728 1763 5728 1178 
Q 5728 594 5436 251 
Q 5144 -91 4653 -91 
Q 4153 -91 3862 251 
Q 3572 594 3572 1178 
Q 3572 1766 3864 2108 
Q 4156 2450 4653 2450 
z
M 1428 4353 
Q 1159 4353 1004 4120 
Q 850 3888 850 3481 
Q 850 3069 1003 2837 
Q 1156 2606 1428 2606 
Q 1700 2606 1854 2837 
Q 2009 3069 2009 3481 
Q 2009 3884 1853 4118 
Q 1697 4353 1428 4353 
z
M 4250 4750 
L 4750 4750 
L 1831 -91 
L 1331 -91 
L 4250 4750 
z
M 1428 4750 
Q 1922 4750 2215 4408 
Q 2509 4066 2509 3481 
Q 2509 2891 2217 2550 
Q 1925 2209 1428 2209 
Q 931 2209 642 2551 
Q 353 2894 353 3481 
Q 353 4063 643 4406 
Q 934 4750 1428 4750 
z
" transform="scale(0.015625)"/>
      <path id="DejaVuSans-4d" d="M 628 4666 
L 1569 4666 
L 2759 1491 
L 3956 4666 
L 4897 4666 
L 4897 0 
L 4281 0 
L 4281 4097 
L 3078 897 
L 2444 897 
L 1241 4097 
L 1241 0 
L 628 0 
L 628 4666 
z
" transform="scale(0.015625)"/>
      <path id="DejaVuSans-56" d="M 1831 0 
L 50 4666 
L 709 4666 
L 2188 738 
L 3669 4666 
L 4325 4666 
L 2547 0 
L 1831 0 
z
" transform="scale(0.015625)"/>
     </defs>
     <use xlink:href="#DejaVuSans-52"/>
     <use xlink:href="#DejaVuSans-65" transform="translate(64.982422 0)"/>
     <use xlink:href="#DejaVuSans-6d" transform="translate(126.505859 0)"/>
     <use xlink:href="#DejaVuSans-6f" transform="translate(223.917969 0)"/>
     <use xlink:href="#DejaVuSans-76" transform="translate(285.099609 0)"/>
     <use xlink:href="#DejaVuSans-65" transform="translate(344.279297 0)"/>
     <use xlink:href="#DejaVuSans-3a" transform="translate(405.802734 0)"/>
     <use xlink:href="#DejaVuSans-20" transform="translate(439.494141 0)"/>
     <use xlink:href="#DejaVuSans-54" transform="translate(471.28125 0)"/>
     <use xlink:href="#DejaVuSans-6f" transform="translate(515.365234 0)"/>
     <use xlink:href="#DejaVuSans-74" transform="translate(576.546875 0)"/>
     <use xlink:href="#DejaVuSans-61" transform="translate(615.755859 0)"/>
     <use xlink:href="#DejaVuSans-6c" transform="translate(677.035156 0)"/>
     <use xlink:href="#DejaVuSans-3d" transform="translate(704.818359 0)"/>
     <use xlink:href="#DejaVuSans-30" transform="translate(788.607422 0)"/>
     <use xlink:href="#DejaVuSans-2e" transform="translate(852.230469 0)"/>
     <use xlink:href="#DejaVuSans-30" transform="translate(884.017578 0)"/>
     <use xlink:href="#DejaVuSans-30" transform="translate(947.640625 0)"/>
     <use xlink:href="#DejaVuSans-25" transform="translate(1011.263672 0)"/>
     <use xlink:href="#DejaVuSans-2c" transform="translate(1106.283203 0)"/>
     <use xlink:href="#DejaVuSans-20" transform="translate(1138.070312 0)"/>
     <use xlink:href="#DejaVuSans-54" transform="translate(1169.857422 0)"/>
     <use xlink:href="#DejaVuSans-68" transform="translate(1230.941406 0)"/>
     <use xlink:href="#DejaVuSans-72" transform="translate(1294.320312 0)"/>
     <use xlink:href="#DejaVuSans-3d" transform="translate(1335.433594 0)"/>
     <use xlink:href="#DejaVuSans-30" transform="translate(1419.222656 0)"/>
     <use xlink:href="#DejaVuSans-2e" transform="translate(1482.845703 0)"/>
     <use xlink:href="#DejaVuSans-30" transform="translate(1514.632812 0)"/>
     <use xlink:href="#DejaVuSans-30" transform="translate(1578.255859 0)"/>
     <use xlink:href="#DejaVuSans-25" transform="translate(1641.878906 0)"/>
     <use xlink:href="#DejaVuSans-2c" transform="translate(1736.898438 0)"/>
     <use xlink:href="#DejaVuSans-20" transform="translate(1768.685547 0)"/>
     <use xlink:href="#DejaVuSans-4d" transform="translate(1800.472656 0)"/>
     <use xlink:href="#DejaVuSans-65" transform="translate(1886.751953 0)"/>
     <use xlink:href="#DejaVuSans-64" transform="translate(1948.275391 0)"/>
     <use xlink:href="#DejaVuSans-3d" transform="translate(2011.751953 0)"/>
     <use xlink:href="#DejaVuSans-30" transform="translate(2095.541016 0)"/>
     <use xlink:href="#DejaVuSans-2e" transform="translate(2159.164062 0)"/>
     <use xlink:href="#DejaVuSans-30" transform="translate(2190.951172 0)"/>
     <use xlink:href="#DejaVuSans-30" transform="translate(2254.574219 0)"/>
     <use xlink:href="#DejaVuSans-25" transform="translate(2318.197266 0)"/>
     <use xlink:href="#DejaVuSans-2c" transform="translate(2413.216797 0)"/>
     <use xlink:href="#DejaVuSans-20" transform="translate(2445.003906 0)"/>
     <use xlink:href="#DejaVuSans-56" transform="translate(2476.791016 0)"/>
     <use xlink:href="#DejaVuSans-65" transform="translate(2537.449219 0)"/>
     <use xlink:href="#DejaVuSans-6c" transform="translate(2598.972656 0)"/>
     <use xlink:href="#DejaVuSans-3d" transform="translate(2626.755859 0)"/>
     <use xlink:href="#DejaVuSans-30" transform="translate(2710.544922 0)"/>
     <use xlink:href="#DejaVuSans-2e" transform="translate(2774.167969 0)"/>
     <use xlink:href="#DejaVuSans-30" transform="translate(2805.955078 0)"/>
     <use xlink:href="#DejaVuSans-30" transform="translate(2869.578125 0)"/>
     <use xlink:href="#DejaVuSans-25" transform="translate(2933.201172 0)"/>
     <use xlink:href="#DejaVuSans-2c" transform="translate(3028.220703 0)"/>
     <use xlink:href="#DejaVuSans-20" transform="translate(3060.007812 0)"/>
     <use xlink:href="#DejaVuSans-54" transform="translate(3091.794922 0)"/>
     <use xlink:href="#DejaVuSans-65" transform="translate(3135.878906 0)"/>
     <use xlink:href="#DejaVuSans-6d" transform="translate(3197.402344 0)"/>
     <use xlink:href="#DejaVuSans-70" transform="translate(3294.814453 0)"/>
     <use xlink:href="#DejaVuSans-3d" transform="translate(3358.291016 0)"/>
     <use xlink:href="#DejaVuSans-30" transform="translate(3442.080078 0)"/>
     <use xlink:href="#DejaVuSans-2e" transform="translate(3505.703125 0)"/>
     <use xlink:href="#DejaVuSans-30" transform="translate(3537.490234 0)"/>
     <use xlink:href="#DejaVuSans-30" transform="translate(3601.113281 0)"/>
     <use xlink:href="#DejaVuSans-25" transform="translate(3664.736328 0)"/>
    </g>
   </g>
   <g id="legend_1">
    <g id="patch_7">
     <path d="M 791.720313 70.827375 
L 846.2 70.827375 
Q 848.2 70.827375 848.2 68.827375 
L 848.2 55.14925 
Q 848.2 53.14925 846.2 53.14925 
L 791.720313 53.14925 
Q 789.720313 53.14925 789.720313 55.14925 
L 789.720313 68.827375 
Q 789.720313 70.827375 791.720313 70.827375 
z
" style="fill: #ffffff; opacity: 0.8; stroke: #cccccc; stroke-linejoin: miter"/>
    </g>
    <g id="line2d_30">
     <path d="M 793.720313 61.247687 
L 803.720313 61.247687 
L 813.720313 61.247687 
" style="fill: none; stroke: #0000ff; stroke-width: 0.5; stroke-linecap: square"/>
    </g>
    <g id="text_18">
     <!-- Kept -->
     <g transform="translate(821.720313 64.747687) scale(0.1 -0.1)">
      <defs>
       <path id="DejaVuSans-4b" d="M 628 4666 
L 1259 4666 
L 1259 2694 
L 3353 4666 
L 4166 4666 
L 1850 2491 
L 4331 0 
L 3500 0 
L 1259 2247 
L 1259 0 
L 628 0 
L 628 4666 
z
" transform="scale(0.015625)"/>
      </defs>
      <use xlink:href="#DejaVuSans-4b"/>
      <use xlink:href="#DejaVuSans-65" transform="translate(60.576172 0)"/>
      <use xlink:href="#DejaVuSans-70" transform="translate(122.099609 0)"/>
      <use xlink:href="#DejaVuSans-74" transform="translate(185.576172 0)"/>
     </g>
    </g>
   </g>
  </g>
 </g>
 <defs>
  <clipPath id="p06c75ecba8">
   <rect x="47.81" y="48.14925" width="805.39" height="485.89075"/>
  </clipPath>
 </defs>
</svg>
