<?xml version="1.0" encoding="utf-8" standalone="no"?>
<!DOCTYPE svg PUBLIC "-//W3C//DTD SVG 1.1//EN"
  "http://www.w3.org/Graphics/SVG/1.1/DTD/svg11.dtd">
<svg xmlns:xlink="http://www.w3.org/1999/xlink" width="864pt" height="576pt" viewBox="0 0 864 576" xmlns="http://www.w3.org/2000/svg" version="1.1">
 <metadata>
  <rdf:RDF xmlns:dc="http://purl.org/dc/elements/1.1/" xmlns:cc="http://creativecommons.org/ns#" xmlns:rdf="http://www.w3.org/1999/02/22-rdf-syntax-ns#">
   <cc:Work>
    <dc:type rdf:resource="http://purl.org/dc/dcmitype/StillImage"/>
    <dc:date>2025-10-09T19:20:44.065419</dc:date>
    <dc:format>image/svg+xml</dc:format>
    <dc:creator>
     <cc:Agent>
      <dc:title>Matplotlib v3.10.0, https://matplotlib.org/</dc:title>
     </cc:Agent>
    </dc:creator>
   </cc:Work>
  </rdf:RDF>
 </metadata>
 <defs>
  <style type="text/css">*{stroke-linejoin: round; stroke-linecap: butt}</style>
 </defs>
 <g id="figure_1">
  <g id="patch_1">
   <path d="M 0 576 
L 864 576 
L 864 0 
L 0 0 
z
" style="fill: #ffffff"/>
  </g>
  <g id="axes_1">
   <g id="patch_2">
    <path d="M 47.81 534.04 
L 853.2 534.04 
L 853.2 48.14925 
L 47.81 48.14925 
z
" style="fill: #ffffff"/>
   </g>
   <g id="matplotlib.axis_1">
    <g id="xtick_1">
     <g id="line2d_1">
      <path d="M 84.418636 534.04 
L 84.418636 48.14925 
" clip-path="url(#p749b1b221c)" style="fill: none; stroke: #b0b0b0; stroke-opacity: 0.3; stroke-width: 0.8; stroke-linecap: square"/>
     </g>
     <g id="line2d_2">
      <defs>
       <path id="mfec76073b2" d="M 0 0 
L 0 3.5 
" style="stroke: #000000; stroke-width: 0.8"/>
      </defs>
      <g>
       <use xlink:href="#mfec76073b2" x="84.418636" y="534.04" style="stroke: #000000; stroke-width: 0.8"/>
      </g>
     </g>
     <g id="text_1">
      <!-- 0 -->
      <g transform="translate(81.237386 548.638438) scale(0.1 -0.1)">
       <defs>
        <path id="DejaVuSans-30" d="M 2034 4250 
Q 1547 4250 1301 3770 
Q 1056 3291 1056 2328 
Q 1056 1369 1301 889 
Q 1547 409 2034 409 
Q 2525 409 2770 889 
Q 3016 1369 3016 2328 
Q 3016 3291 2770 3770 
Q 2525 4250 2034 4250 
z
M 2034 4750 
Q 2819 4750 3233 4129 
Q 3647 3509 3647 2328 
Q 3647 1150 3233 529 
Q 2819 -91 2034 -91 
Q 1250 -91 836 529 
Q 422 1150 422 2328 
Q 422 3509 836 4129 
Q 1250 4750 2034 4750 
z
" transform="scale(0.015625)"/>
       </defs>
       <use xlink:href="#DejaVuSans-30"/>
      </g>
     </g>
    </g>
    <g id="xtick_2">
     <g id="line2d_3">
      <path d="M 230.853182 534.04 
L 230.853182 48.14925 
" clip-path="url(#p749b1b221c)" style="fill: none; stroke: #b0b0b0; stroke-opacity: 0.3; stroke-width: 0.8; stroke-linecap: square"/>
     </g>
     <g id="line2d_4">
      <g>
       <use xlink:href="#mfec76073b2" x="230.853182" y="534.04" style="stroke: #000000; stroke-width: 0.8"/>
      </g>
     </g>
     <g id="text_2">
      <!-- 2 -->
      <g transform="translate(227.671932 548.638438) scale(0.1 -0.1)">
       <defs>
        <path id="DejaVuSans-32" d="M 1228 531 
L 3431 531 
L 3431 0 
L 469 0 
L 469 531 
Q 828 903 1448 1529 
Q 2069 2156 2228 2338 
Q 2531 2678 2651 2914 
Q 2772 3150 2772 3378 
Q 2772 3750 2511 3984 
Q 2250 4219 1831 4219 
Q 1534 4219 1204 4116 
Q 875 4013 500 3803 
L 500 4441 
Q 881 4594 1212 4672 
Q 1544 4750 1819 4750 
Q 2544 4750 2975 4387 
Q 3406 4025 3406 3419 
Q 3406 3131 3298 2873 
Q 3191 2616 2906 2266 
Q 2828 2175 2409 1742 
Q 1991 1309 1228 531 
z
" transform="scale(0.015625)"/>
       </defs>
       <use xlink:href="#DejaVuSans-32"/>
      </g>
     </g>
    </g>
    <g id="xtick_3">
     <g id="line2d_5">
      <path d="M 377.287727 534.04 
L 377.287727 48.14925 
" clip-path="url(#p749b1b221c)" style="fill: none; stroke: #b0b0b0; stroke-opacity: 0.3; stroke-width: 0.8; stroke-linecap: square"/>
     </g>
     <g id="line2d_6">
      <g>
       <use xlink:href="#mfec76073b2" x="377.287727" y="534.04" style="stroke: #000000; stroke-width: 0.8"/>
      </g>
     </g>
     <g id="text_3">
      <!-- 4 -->
      <g transform="translate(374.106477 548.638438) scale(0.1 -0.1)">
       <defs>
        <path id="DejaVuSans-34" d="M 2419 4116 
L 825 1625 
L 2419 1625 
L 2419 4116 
z
M 2253 4666 
L 3047 4666 
L 3047 1625 
L 3713 1625 
L 3713 1100 
L 3047 1100 
L 3047 0 
L 2419 0 
L 2419 1100 
L 313 1100 
L 313 1709 
L 2253 4666 
z
" transform="scale(0.015625)"/>
       </defs>
       <use xlink:href="#DejaVuSans-34"/>
      </g>
     </g>
    </g>
    <g id="xtick_4">
     <g id="line2d_7">
      <path d="M 523.722273 534.04 
L 523.722273 48.14925 
" clip-path="url(#p749b1b221c)" style="fill: none; stroke: #b0b0b0; stroke-opacity: 0.3; stroke-width: 0.8; stroke-linecap: square"/>
     </g>
     <g id="line2d_8">
      <g>
       <use xlink:href="#mfec76073b2" x="523.722273" y="534.04" style="stroke: #000000; stroke-width: 0.8"/>
      </g>
     </g>
     <g id="text_4">
      <!-- 6 -->
      <g transform="translate(520.541023 548.638438) scale(0.1 -0.1)">
       <defs>
        <path id="DejaVuSans-36" d="M 2113 2584 
Q 1688 2584 1439 2293 
Q 1191 2003 1191 1497 
Q 1191 994 1439 701 
Q 1688 409 2113 409 
Q 2538 409 2786 701 
Q 3034 994 3034 1497 
Q 3034 2003 2786 2293 
Q 2538 2584 2113 2584 
z
M 3366 4563 
L 3366 3988 
Q 3128 4100 2886 4159 
Q 2644 4219 2406 4219 
Q 1781 4219 1451 3797 
Q 1122 3375 1075 2522 
Q 1259 2794 1537 2939 
Q 1816 3084 2150 3084 
Q 2853 3084 3261 2657 
Q 3669 2231 3669 1497 
Q 3669 778 3244 343 
Q 2819 -91 2113 -91 
Q 1303 -91 875 529 
Q 447 1150 447 2328 
Q 447 3434 972 4092 
Q 1497 4750 2381 4750 
Q 2619 4750 2861 4703 
Q 3103 4656 3366 4563 
z
" transform="scale(0.015625)"/>
       </defs>
       <use xlink:href="#DejaVuSans-36"/>
      </g>
     </g>
    </g>
    <g id="xtick_5">
     <g id="line2d_9">
      <path d="M 670.156818 534.04 
L 670.156818 48.14925 
" clip-path="url(#p749b1b221c)" style="fill: none; stroke: #b0b0b0; stroke-opacity: 0.3; stroke-width: 0.8; stroke-linecap: square"/>
     </g>
     <g id="line2d_10">
      <g>
       <use xlink:href="#mfec76073b2" x="670.156818" y="534.04" style="stroke: #000000; stroke-width: 0.8"/>
      </g>
     </g>
     <g id="text_5">
      <!-- 8 -->
      <g transform="translate(666.975568 548.638438) scale(0.1 -0.1)">
       <defs>
        <path id="DejaVuSans-38" d="M 2034 2216 
Q 1584 2216 1326 1975 
Q 1069 1734 1069 1313 
Q 1069 891 1326 650 
Q 1584 409 2034 409 
Q 2484 409 2743 651 
Q 3003 894 3003 1313 
Q 3003 1734 2745 1975 
Q 2488 2216 2034 2216 
z
M 1403 2484 
Q 997 2584 770 2862 
Q 544 3141 544 3541 
Q 544 4100 942 4425 
Q 1341 4750 2034 4750 
Q 2731 4750 3128 4425 
Q 3525 4100 3525 3541 
Q 3525 3141 3298 2862 
Q 3072 2584 2669 2484 
Q 3125 2378 3379 2068 
Q 3634 1759 3634 1313 
Q 3634 634 3220 271 
Q 2806 -91 2034 -91 
Q 1263 -91 848 271 
Q 434 634 434 1313 
Q 434 1759 690 2068 
Q 947 2378 1403 2484 
z
M 1172 3481 
Q 1172 3119 1398 2916 
Q 1625 2713 2034 2713 
Q 2441 2713 2670 2916 
Q 2900 3119 2900 3481 
Q 2900 3844 2670 4047 
Q 2441 4250 2034 4250 
Q 1625 4250 1398 4047 
Q 1172 3844 1172 3481 
z
" transform="scale(0.015625)"/>
       </defs>
       <use xlink:href="#DejaVuSans-38"/>
      </g>
     </g>
    </g>
    <g id="xtick_6">
     <g id="line2d_11">
      <path d="M 816.591364 534.04 
L 816.591364 48.14925 
" clip-path="url(#p749b1b221c)" style="fill: none; stroke: #b0b0b0; stroke-opacity: 0.3; stroke-width: 0.8; stroke-linecap: square"/>
     </g>
     <g id="line2d_12">
      <g>
       <use xlink:href="#mfec76073b2" x="816.591364" y="534.04" style="stroke: #000000; stroke-width: 0.8"/>
      </g>
     </g>
     <g id="text_6">
      <!-- 10 -->
      <g transform="translate(810.228864 548.638438) scale(0.1 -0.1)">
       <defs>
        <path id="DejaVuSans-31" d="M 794 531 
L 1825 531 
L 1825 4091 
L 703 3866 
L 703 4441 
L 1819 4666 
L 2450 4666 
L 2450 531 
L 3481 531 
L 3481 0 
L 794 0 
L 794 531 
z
" transform="scale(0.015625)"/>
       </defs>
       <use xlink:href="#DejaVuSans-31"/>
       <use xlink:href="#DejaVuSans-30" transform="translate(63.623047 0)"/>
      </g>
     </g>
    </g>
    <g id="text_7">
     <!-- Time (minutes) -->
     <g transform="translate(412.5425 562.316563) scale(0.1 -0.1)">
      <defs>
       <path id="DejaVuSans-54" d="M -19 4666 
L 3928 4666 
L 3928 4134 
L 2272 4134 
L 2272 0 
L 1638 0 
L 1638 4134 
L -19 4134 
L -19 4666 
z
" transform="scale(0.015625)"/>
       <path id="DejaVuSans-69" d="M 603 3500 
L 1178 3500 
L 1178 0 
L 603 0 
L 603 3500 
z
M 603 4863 
L 1178 4863 
L 1178 4134 
L 603 4134 
L 603 4863 
z
" transform="scale(0.015625)"/>
       <path id="DejaVuSans-6d" d="M 3328 2828 
Q 3544 3216 3844 3400 
Q 4144 3584 4550 3584 
Q 5097 3584 5394 3201 
Q 5691 2819 5691 2113 
L 5691 0 
L 5113 0 
L 5113 2094 
Q 5113 2597 4934 2840 
Q 4756 3084 4391 3084 
Q 3944 3084 3684 2787 
Q 3425 2491 3425 1978 
L 3425 0 
L 2847 0 
L 2847 2094 
Q 2847 2600 2669 2842 
Q 2491 3084 2119 3084 
Q 1678 3084 1418 2786 
Q 1159 2488 1159 1978 
L 1159 0 
L 581 0 
L 581 3500 
L 1159 3500 
L 1159 2956 
Q 1356 3278 1631 3431 
Q 1906 3584 2284 3584 
Q 2666 3584 2933 3390 
Q 3200 3197 3328 2828 
z
" transform="scale(0.015625)"/>
       <path id="DejaVuSans-65" d="M 3597 1894 
L 3597 1613 
L 953 1613 
Q 991 1019 1311 708 
Q 1631 397 2203 397 
Q 2534 397 2845 478 
Q 3156 559 3463 722 
L 3463 178 
Q 3153 47 2828 -22 
Q 2503 -91 2169 -91 
Q 1331 -91 842 396 
Q 353 884 353 1716 
Q 353 2575 817 3079 
Q 1281 3584 2069 3584 
Q 2775 3584 3186 3129 
Q 3597 2675 3597 1894 
z
M 3022 2063 
Q 3016 2534 2758 2815 
Q 2500 3097 2075 3097 
Q 1594 3097 1305 2825 
Q 1016 2553 972 2059 
L 3022 2063 
z
" transform="scale(0.015625)"/>
       <path id="DejaVuSans-20" transform="scale(0.015625)"/>
       <path id="DejaVuSans-28" d="M 1984 4856 
Q 1566 4138 1362 3434 
Q 1159 2731 1159 2009 
Q 1159 1288 1364 580 
Q 1569 -128 1984 -844 
L 1484 -844 
Q 1016 -109 783 600 
Q 550 1309 550 2009 
Q 550 2706 781 3412 
Q 1013 4119 1484 4856 
L 1984 4856 
z
" transform="scale(0.015625)"/>
       <path id="DejaVuSans-6e" d="M 3513 2113 
L 3513 0 
L 2938 0 
L 2938 2094 
Q 2938 2591 2744 2837 
Q 2550 3084 2163 3084 
Q 1697 3084 1428 2787 
Q 1159 2491 1159 1978 
L 1159 0 
L 581 0 
L 581 3500 
L 1159 3500 
L 1159 2956 
Q 1366 3272 1645 3428 
Q 1925 3584 2291 3584 
Q 2894 3584 3203 3211 
Q 3513 2838 3513 2113 
z
" transform="scale(0.015625)"/>
       <path id="DejaVuSans-75" d="M 544 1381 
L 544 3500 
L 1119 3500 
L 1119 1403 
Q 1119 906 1312 657 
Q 1506 409 1894 409 
Q 2359 409 2629 706 
Q 2900 1003 2900 1516 
L 2900 3500 
L 3475 3500 
L 3475 0 
L 2900 0 
L 2900 538 
Q 2691 219 2414 64 
Q 2138 -91 1772 -91 
Q 1169 -91 856 284 
Q 544 659 544 1381 
z
M 1991 3584 
L 1991 3584 
z
" transform="scale(0.015625)"/>
       <path id="DejaVuSans-74" d="M 1172 4494 
L 1172 3500 
L 2356 3500 
L 2356 3053 
L 1172 3053 
L 1172 1153 
Q 1172 725 1289 603 
Q 1406 481 1766 481 
L 2356 481 
L 2356 0 
L 1766 0 
Q 1100 0 847 248 
Q 594 497 594 1153 
L 594 3053 
L 172 3053 
L 172 3500 
L 594 3500 
L 594 4494 
L 1172 4494 
z
" transform="scale(0.015625)"/>
       <path id="DejaVuSans-73" d="M 2834 3397 
L 2834 2853 
Q 2591 2978 2328 3040 
Q 2066 3103 1784 3103 
Q 1356 3103 1142 2972 
Q 928 2841 928 2578 
Q 928 2378 1081 2264 
Q 1234 2150 1697 2047 
L 1894 2003 
Q 2506 1872 2764 1633 
Q 3022 1394 3022 966 
Q 3022 478 2636 193 
Q 2250 -91 1575 -91 
Q 1294 -91 989 -36 
Q 684 19 347 128 
L 347 722 
Q 666 556 975 473 
Q 1284 391 1588 391 
Q 1994 391 2212 530 
Q 2431 669 2431 922 
Q 2431 1156 2273 1281 
Q 2116 1406 1581 1522 
L 1381 1569 
Q 847 1681 609 1914 
Q 372 2147 372 2553 
Q 372 3047 722 3315 
Q 1072 3584 1716 3584 
Q 2034 3584 2315 3537 
Q 2597 3491 2834 3397 
z
" transform="scale(0.015625)"/>
       <path id="DejaVuSans-29" d="M 513 4856 
L 1013 4856 
Q 1481 4119 1714 3412 
Q 1947 2706 1947 2009 
Q 1947 1309 1714 600 
Q 1481 -109 1013 -844 
L 513 -844 
Q 928 -128 1133 580 
Q 1338 1288 1338 2009 
Q 1338 2731 1133 3434 
Q 928 4138 513 4856 
z
" transform="scale(0.015625)"/>
      </defs>
      <use xlink:href="#DejaVuSans-54"/>
      <use xlink:href="#DejaVuSans-69" transform="translate(57.958984 0)"/>
      <use xlink:href="#DejaVuSans-6d" transform="translate(85.742188 0)"/>
      <use xlink:href="#DejaVuSans-65" transform="translate(183.154297 0)"/>
      <use xlink:href="#DejaVuSans-20" transform="translate(244.677734 0)"/>
      <use xlink:href="#DejaVuSans-28" transform="translate(276.464844 0)"/>
      <use xlink:href="#DejaVuSans-6d" transform="translate(315.478516 0)"/>
      <use xlink:href="#DejaVuSans-69" transform="translate(412.890625 0)"/>
      <use xlink:href="#DejaVuSans-6e" transform="translate(440.673828 0)"/>
      <use xlink:href="#DejaVuSans-75" transform="translate(504.052734 0)"/>
      <use xlink:href="#DejaVuSans-74" transform="translate(567.431641 0)"/>
      <use xlink:href="#DejaVuSans-65" transform="translate(606.640625 0)"/>
      <use xlink:href="#DejaVuSans-73" transform="translate(668.164062 0)"/>
      <use xlink:href="#DejaVuSans-29" transform="translate(720.263672 0)"/>
     </g>
    </g>
   </g>
   <g id="matplotlib.axis_2">
    <g id="ytick_1">
     <g id="line2d_13">
      <path d="M 47.81 506.329868 
L 853.2 506.329868 
" clip-path="url(#p749b1b221c)" style="fill: none; stroke: #b0b0b0; stroke-opacity: 0.3; stroke-width: 0.8; stroke-linecap: square"/>
     </g>
     <g id="line2d_14">
      <defs>
       <path id="m3d83c59b6b" d="M 0 0 
L -3.5 0 
" style="stroke: #000000; stroke-width: 0.8"/>
      </defs>
      <g>
       <use xlink:href="#m3d83c59b6b" x="47.81" y="506.329868" style="stroke: #000000; stroke-width: 0.8"/>
      </g>
     </g>
     <g id="text_8">
      <!-- 0.0 -->
      <g transform="translate(24.906875 510.129086) scale(0.1 -0.1)">
       <defs>
        <path id="DejaVuSans-2e" d="M 684 794 
L 1344 794 
L 1344 0 
L 684 0 
L 684 794 
z
" transform="scale(0.015625)"/>
       </defs>
       <use xlink:href="#DejaVuSans-30"/>
       <use xlink:href="#DejaVuSans-2e" transform="translate(63.623047 0)"/>
       <use xlink:href="#DejaVuSans-30" transform="translate(95.410156 0)"/>
      </g>
     </g>
    </g>
    <g id="ytick_2">
     <g id="line2d_15">
      <path d="M 47.81 452.079863 
L 853.2 452.079863 
" clip-path="url(#p749b1b221c)" style="fill: none; stroke: #b0b0b0; stroke-opacity: 0.3; stroke-width: 0.8; stroke-linecap: square"/>
     </g>
     <g id="line2d_16">
      <g>
       <use xlink:href="#m3d83c59b6b" x="47.81" y="452.079863" style="stroke: #000000; stroke-width: 0.8"/>
      </g>
     </g>
     <g id="text_9">
      <!-- 0.5 -->
      <g transform="translate(24.906875 455.879081) scale(0.1 -0.1)">
       <defs>
        <path id="DejaVuSans-35" d="M 691 4666 
L 3169 4666 
L 3169 4134 
L 1269 4134 
L 1269 2991 
Q 1406 3038 1543 3061 
Q 1681 3084 1819 3084 
Q 2600 3084 3056 2656 
Q 3513 2228 3513 1497 
Q 3513 744 3044 326 
Q 2575 -91 1722 -91 
Q 1428 -91 1123 -41 
Q 819 9 494 109 
L 494 744 
Q 775 591 1075 516 
Q 1375 441 1709 441 
Q 2250 441 2565 725 
Q 2881 1009 2881 1497 
Q 2881 1984 2565 2268 
Q 2250 2553 1709 2553 
Q 1456 2553 1204 2497 
Q 953 2441 691 2322 
L 691 4666 
z
" transform="scale(0.015625)"/>
       </defs>
       <use xlink:href="#DejaVuSans-30"/>
       <use xlink:href="#DejaVuSans-2e" transform="translate(63.623047 0)"/>
       <use xlink:href="#DejaVuSans-35" transform="translate(95.410156 0)"/>
      </g>
     </g>
    </g>
    <g id="ytick_3">
     <g id="line2d_17">
      <path d="M 47.81 397.829858 
L 853.2 397.829858 
" clip-path="url(#p749b1b221c)" style="fill: none; stroke: #b0b0b0; stroke-opacity: 0.3; stroke-width: 0.8; stroke-linecap: square"/>
     </g>
     <g id="line2d_18">
      <g>
       <use xlink:href="#m3d83c59b6b" x="47.81" y="397.829858" style="stroke: #000000; stroke-width: 0.8"/>
      </g>
     </g>
     <g id="text_10">
      <!-- 1.0 -->
      <g transform="translate(24.906875 401.629076) scale(0.1 -0.1)">
       <use xlink:href="#DejaVuSans-31"/>
       <use xlink:href="#DejaVuSans-2e" transform="translate(63.623047 0)"/>
       <use xlink:href="#DejaVuSans-30" transform="translate(95.410156 0)"/>
      </g>
     </g>
    </g>
    <g id="ytick_4">
     <g id="line2d_19">
      <path d="M 47.81 343.579852 
L 853.2 343.579852 
" clip-path="url(#p749b1b221c)" style="fill: none; stroke: #b0b0b0; stroke-opacity: 0.3; stroke-width: 0.8; stroke-linecap: square"/>
     </g>
     <g id="line2d_20">
      <g>
       <use xlink:href="#m3d83c59b6b" x="47.81" y="343.579852" style="stroke: #000000; stroke-width: 0.8"/>
      </g>
     </g>
     <g id="text_11">
      <!-- 1.5 -->
      <g transform="translate(24.906875 347.379071) scale(0.1 -0.1)">
       <use xlink:href="#DejaVuSans-31"/>
       <use xlink:href="#DejaVuSans-2e" transform="translate(63.623047 0)"/>
       <use xlink:href="#DejaVuSans-35" transform="translate(95.410156 0)"/>
      </g>
     </g>
    </g>
    <g id="ytick_5">
     <g id="line2d_21">
      <path d="M 47.81 289.329847 
L 853.2 289.329847 
" clip-path="url(#p749b1b221c)" style="fill: none; stroke: #b0b0b0; stroke-opacity: 0.3; stroke-width: 0.8; stroke-linecap: square"/>
     </g>
     <g id="line2d_22">
      <g>
       <use xlink:href="#m3d83c59b6b" x="47.81" y="289.329847" style="stroke: #000000; stroke-width: 0.8"/>
      </g>
     </g>
     <g id="text_12">
      <!-- 2.0 -->
      <g transform="translate(24.906875 293.129066) scale(0.1 -0.1)">
       <use xlink:href="#DejaVuSans-32"/>
       <use xlink:href="#DejaVuSans-2e" transform="translate(63.623047 0)"/>
       <use xlink:href="#DejaVuSans-30" transform="translate(95.410156 0)"/>
      </g>
     </g>
    </g>
    <g id="ytick_6">
     <g id="line2d_23">
      <path d="M 47.81 235.079842 
L 853.2 235.079842 
" clip-path="url(#p749b1b221c)" style="fill: none; stroke: #b0b0b0; stroke-opacity: 0.3; stroke-width: 0.8; stroke-linecap: square"/>
     </g>
     <g id="line2d_24">
      <g>
       <use xlink:href="#m3d83c59b6b" x="47.81" y="235.079842" style="stroke: #000000; stroke-width: 0.8"/>
      </g>
     </g>
     <g id="text_13">
      <!-- 2.5 -->
      <g transform="translate(24.906875 238.879061) scale(0.1 -0.1)">
       <use xlink:href="#DejaVuSans-32"/>
       <use xlink:href="#DejaVuSans-2e" transform="translate(63.623047 0)"/>
       <use xlink:href="#DejaVuSans-35" transform="translate(95.410156 0)"/>
      </g>
     </g>
    </g>
    <g id="ytick_7">
     <g id="line2d_25">
      <path d="M 47.81 180.829837 
L 853.2 180.829837 
" clip-path="url(#p749b1b221c)" style="fill: none; stroke: #b0b0b0; stroke-opacity: 0.3; stroke-width: 0.8; stroke-linecap: square"/>
     </g>
     <g id="line2d_26">
      <g>
       <use xlink:href="#m3d83c59b6b" x="47.81" y="180.829837" style="stroke: #000000; stroke-width: 0.8"/>
      </g>
     </g>
     <g id="text_14">
      <!-- 3.0 -->
      <g transform="translate(24.906875 184.629056) scale(0.1 -0.1)">
       <defs>
        <path id="DejaVuSans-33" d="M 2597 2516 
Q 3050 2419 3304 2112 
Q 3559 1806 3559 1356 
Q 3559 666 3084 287 
Q 2609 -91 1734 -91 
Q 1441 -91 1130 -33 
Q 819 25 488 141 
L 488 750 
Q 750 597 1062 519 
Q 1375 441 1716 441 
Q 2309 441 2620 675 
Q 2931 909 2931 1356 
Q 2931 1769 2642 2001 
Q 2353 2234 1838 2234 
L 1294 2234 
L 1294 2753 
L 1863 2753 
Q 2328 2753 2575 2939 
Q 2822 3125 2822 3475 
Q 2822 3834 2567 4026 
Q 2313 4219 1838 4219 
Q 1578 4219 1281 4162 
Q 984 4106 628 3988 
L 628 4550 
Q 988 4650 1302 4700 
Q 1616 4750 1894 4750 
Q 2613 4750 3031 4423 
Q 3450 4097 3450 3541 
Q 3450 3153 3228 2886 
Q 3006 2619 2597 2516 
z
" transform="scale(0.015625)"/>
       </defs>
       <use xlink:href="#DejaVuSans-33"/>
       <use xlink:href="#DejaVuSans-2e" transform="translate(63.623047 0)"/>
       <use xlink:href="#DejaVuSans-30" transform="translate(95.410156 0)"/>
      </g>
     </g>
    </g>
    <g id="ytick_8">
     <g id="line2d_27">
      <path d="M 47.81 126.579832 
L 853.2 126.579832 
" clip-path="url(#p749b1b221c)" style="fill: none; stroke: #b0b0b0; stroke-opacity: 0.3; stroke-width: 0.8; stroke-linecap: square"/>
     </g>
     <g id="line2d_28">
      <g>
       <use xlink:href="#m3d83c59b6b" x="47.81" y="126.579832" style="stroke: #000000; stroke-width: 0.8"/>
      </g>
     </g>
     <g id="text_15">
      <!-- 3.5 -->
      <g transform="translate(24.906875 130.379051) scale(0.1 -0.1)">
       <use xlink:href="#DejaVuSans-33"/>
       <use xlink:href="#DejaVuSans-2e" transform="translate(63.623047 0)"/>
       <use xlink:href="#DejaVuSans-35" transform="translate(95.410156 0)"/>
      </g>
     </g>
    </g>
    <g id="ytick_9">
     <g id="line2d_29">
      <path d="M 47.81 72.329827 
L 853.2 72.329827 
" clip-path="url(#p749b1b221c)" style="fill: none; stroke: #b0b0b0; stroke-opacity: 0.3; stroke-width: 0.8; stroke-linecap: square"/>
     </g>
     <g id="line2d_30">
      <g>
       <use xlink:href="#m3d83c59b6b" x="47.81" y="72.329827" style="stroke: #000000; stroke-width: 0.8"/>
      </g>
     </g>
     <g id="text_16">
      <!-- 4.0 -->
      <g transform="translate(24.906875 76.129046) scale(0.1 -0.1)">
       <use xlink:href="#DejaVuSans-34"/>
       <use xlink:href="#DejaVuSans-2e" transform="translate(63.623047 0)"/>
       <use xlink:href="#DejaVuSans-30" transform="translate(95.410156 0)"/>
      </g>
     </g>
    </g>
    <g id="text_17">
     <!-- EDA (μS) -->
     <g transform="translate(18.827187 313.282906) rotate(-90) scale(0.1 -0.1)">
      <defs>
       <path id="DejaVuSans-45" d="M 628 4666 
L 3578 4666 
L 3578 4134 
L 1259 4134 
L 1259 2753 
L 3481 2753 
L 3481 2222 
L 1259 2222 
L 1259 531 
L 3634 531 
L 3634 0 
L 628 0 
L 628 4666 
z
" transform="scale(0.015625)"/>
       <path id="DejaVuSans-44" d="M 1259 4147 
L 1259 519 
L 2022 519 
Q 2988 519 3436 956 
Q 3884 1394 3884 2338 
Q 3884 3275 3436 3711 
Q 2988 4147 2022 4147 
L 1259 4147 
z
M 628 4666 
L 1925 4666 
Q 3281 4666 3915 4102 
Q 4550 3538 4550 2338 
Q 4550 1131 3912 565 
Q 3275 0 1925 0 
L 628 0 
L 628 4666 
z
" transform="scale(0.015625)"/>
       <path id="DejaVuSans-41" d="M 2188 4044 
L 1331 1722 
L 3047 1722 
L 2188 4044 
z
M 1831 4666 
L 2547 4666 
L 4325 0 
L 3669 0 
L 3244 1197 
L 1141 1197 
L 716 0 
L 50 0 
L 1831 4666 
z
" transform="scale(0.015625)"/>
       <path id="DejaVuSans-3bc" d="M 544 -1331 
L 544 3500 
L 1119 3500 
L 1119 1325 
Q 1119 872 1334 640 
Q 1550 409 1972 409 
Q 2434 409 2667 671 
Q 2900 934 2900 1459 
L 2900 3500 
L 3475 3500 
L 3475 806 
Q 3475 619 3529 530 
Q 3584 441 3700 441 
Q 3728 441 3778 458 
Q 3828 475 3916 513 
L 3916 50 
Q 3788 -22 3673 -56 
Q 3559 -91 3450 -91 
Q 3234 -91 3106 31 
Q 2978 153 2931 403 
Q 2775 156 2548 32 
Q 2322 -91 2016 -91 
Q 1697 -91 1473 31 
Q 1250 153 1119 397 
L 1119 -1331 
L 544 -1331 
z
" transform="scale(0.015625)"/>
       <path id="DejaVuSans-53" d="M 3425 4513 
L 3425 3897 
Q 3066 4069 2747 4153 
Q 2428 4238 2131 4238 
Q 1616 4238 1336 4038 
Q 1056 3838 1056 3469 
Q 1056 3159 1242 3001 
Q 1428 2844 1947 2747 
L 2328 2669 
Q 3034 2534 3370 2195 
Q 3706 1856 3706 1288 
Q 3706 609 3251 259 
Q 2797 -91 1919 -91 
Q 1588 -91 1214 -16 
Q 841 59 441 206 
L 441 856 
Q 825 641 1194 531 
Q 1563 422 1919 422 
Q 2459 422 2753 634 
Q 3047 847 3047 1241 
Q 3047 1584 2836 1778 
Q 2625 1972 2144 2069 
L 1759 2144 
Q 1053 2284 737 2584 
Q 422 2884 422 3419 
Q 422 4038 858 4394 
Q 1294 4750 2059 4750 
Q 2388 4750 2728 4690 
Q 3069 4631 3425 4513 
z
" transform="scale(0.015625)"/>
      </defs>
      <use xlink:href="#DejaVuSans-45"/>
      <use xlink:href="#DejaVuSans-44" transform="translate(63.183594 0)"/>
      <use xlink:href="#DejaVuSans-41" transform="translate(138.435547 0)"/>
      <use xlink:href="#DejaVuSans-20" transform="translate(206.84375 0)"/>
      <use xlink:href="#DejaVuSans-28" transform="translate(238.630859 0)"/>
      <use xlink:href="#DejaVuSans-3bc" transform="translate(277.644531 0)"/>
      <use xlink:href="#DejaVuSans-53" transform="translate(341.267578 0)"/>
      <use xlink:href="#DejaVuSans-29" transform="translate(404.744141 0)"/>
     </g>
    </g>
   </g>
   <g id="line2d_31">
    <path d="M 84.418636 442.441878 
L 85.639433 442.391618 
L 87.470628 442.273276 
L 91.438216 442.419166 
L 93.57461 442.558825 
L 95.100606 442.671222 
L 100.288991 442.724947 
L 101.814987 442.736471 
L 106.392974 442.543363 
L 110.055364 442.832272 
L 110.970961 442.797472 
L 112.191758 442.667226 
L 114.328152 442.790545 
L 116.159347 442.064631 
L 116.769745 442.323442 
L 117.380143 442.923643 
L 118.29574 443.943843 
L 118.60094 444.100356 
L 118.906139 444.063356 
L 119.211338 443.795892 
L 119.821736 442.605426 
L 121.042533 439.568142 
L 121.652931 438.847397 
L 122.263329 438.739114 
L 124.399723 439.141141 
L 127.146515 439.074494 
L 130.808905 439.05818 
L 132.334901 438.861576 
L 135.081693 439.033931 
L 136.302489 438.88434 
L 139.049282 438.795148 
L 140.575277 438.703346 
L 147.289658 438.720145 
L 150.646849 438.688766 
L 151.562446 438.677258 
L 152.783243 438.417177 
L 153.088442 438.467004 
L 153.393641 438.629711 
L 154.004039 439.338156 
L 155.530035 441.832092 
L 156.140433 442.334151 
L 157.056031 442.629537 
L 159.497624 443.022712 
L 160.71842 443.03656 
L 161.939217 443.0209 
L 162.549615 443.235897 
L 164.075611 443.951967 
L 165.296407 444.082081 
L 168.348399 444.234553 
L 169.263996 444.261807 
L 171.40039 444.554351 
L 174.452381 444.517205 
L 175.978377 444.579283 
L 177.504373 444.491714 
L 179.335568 444.808323 
L 179.945966 444.546219 
L 180.556364 444.167982 
L 180.861563 444.080623 
L 181.166762 444.140393 
L 181.777161 444.679818 
L 182.08236 444.948291 
L 182.387559 444.934142 
L 182.692758 444.3659 
L 182.997957 443.001752 
L 183.303156 440.713922 
L 183.913555 433.85045 
L 184.523953 426.828926 
L 184.829152 424.67239 
L 185.134351 423.921454 
L 185.43955 424.579095 
L 186.049949 428.759055 
L 186.660347 433.586022 
L 187.270745 436.636808 
L 187.575944 437.435312 
L 188.186343 438.243657 
L 189.712338 439.525421 
L 190.322737 439.697462 
L 191.238334 439.516518 
L 192.76433 439.035737 
L 194.290325 438.09856 
L 194.595524 438.099357 
L 194.900724 438.235925 
L 195.511122 438.87324 
L 196.426719 440.058256 
L 196.731918 440.28808 
L 197.037118 440.369382 
L 197.342317 440.297449 
L 197.952715 439.826257 
L 198.563113 439.405545 
L 198.868312 439.438556 
L 199.173512 439.721293 
L 199.78391 440.992234 
L 200.394308 442.472811 
L 200.699507 442.834384 
L 201.004706 442.687057 
L 201.309905 441.902319 
L 201.615105 440.448002 
L 202.225503 435.974507 
L 203.1411 429.101984 
L 203.446299 427.766279 
L 203.751499 427.074762 
L 204.056698 426.939814 
L 204.361897 427.182665 
L 205.277494 428.255944 
L 206.193092 428.73724 
L 206.498291 429.221464 
L 206.80349 430.063568 
L 207.413888 432.703675 
L 208.024286 435.496226 
L 208.329486 436.442903 
L 208.634685 436.954563 
L 208.939884 437.079351 
L 209.855481 436.796811 
L 210.16068 437.048978 
L 210.46588 437.605643 
L 211.991875 441.543775 
L 212.297074 441.721547 
L 212.602273 441.611451 
L 213.212672 440.851524 
L 213.82307 440.028043 
L 214.433468 439.661453 
L 215.043867 439.777814 
L 216.264663 440.336714 
L 216.875061 440.395297 
L 219.011455 440.230987 
L 220.232252 440.56072 
L 221.453048 440.855923 
L 222.368646 440.782601 
L 223.589442 440.598669 
L 224.50504 440.726279 
L 225.420637 440.821876 
L 226.336235 440.607376 
L 227.251832 440.4606 
L 228.472629 440.517673 
L 229.998624 440.145704 
L 230.303823 440.281021 
L 230.914222 440.9229 
L 231.829819 442.032127 
L 232.135018 442.141768 
L 232.440217 442.026068 
L 232.745416 441.674115 
L 233.355815 440.422547 
L 233.966213 439.038433 
L 234.271412 438.555907 
L 234.576611 438.307127 
L 234.88181 438.305531 
L 235.18701 438.518056 
L 237.018204 440.664089 
L 237.628603 440.894176 
L 239.459797 441.150372 
L 239.764997 441.352845 
L 240.070196 441.69342 
L 240.680594 442.918496 
L 241.596191 445.867098 
L 242.20659 447.51391 
L 242.511789 447.837296 
L 242.816988 447.719347 
L 243.122187 447.18641 
L 244.648183 443.087621 
L 244.953382 442.784714 
L 245.258581 442.708229 
L 245.56378 442.807116 
L 246.174178 443.302706 
L 247.394975 444.401359 
L 248.005373 444.653797 
L 248.615772 444.585823 
L 249.531369 444.244189 
L 249.836568 444.2607 
L 250.446966 444.679098 
L 251.057365 445.161381 
L 251.362564 444.999548 
L 251.667763 444.276017 
L 251.972962 442.848893 
L 253.193759 434.526232 
L 253.498958 434.747448 
L 253.804157 437.109401 
L 254.414555 447.71351 
L 255.024953 459.60755 
L 255.024953 459.60755 
" clip-path="url(#p749b1b221c)" style="fill: none; stroke: #0000ff; stroke-width: 0.5; stroke-linecap: square"/>
   </g>
   <g id="line2d_32">
    <path d="M 255.024953 459.60755 
L 255.330153 462.609741 
" clip-path="url(#p749b1b221c)" style="fill: none; stroke: #ff0000; stroke-width: 0.5; stroke-linecap: square"/>
   </g>
   <g id="line2d_33">
    <path d="M 255.330153 462.609741 
L 255.635352 462.40435 
" clip-path="url(#p749b1b221c)" style="fill: none; stroke: #ff0000; stroke-width: 0.5; stroke-linecap: square"/>
   </g>
   <g id="line2d_34">
    <path d="M 255.635352 462.40435 
L 255.940551 458.984674 
L 256.550949 445.940668 
L 257.161347 432.819045 
L 257.466546 428.571661 
L 257.771746 426.31423 
L 258.076945 425.957457 
L 258.382144 427.245541 
L 258.687343 429.87661 
L 259.297741 437.925316 
L 260.213339 450.578724 
L 260.518538 452.765911 
L 260.823737 453.263473 
L 261.128936 452.106701 
L 261.739334 446.560669 
L 262.349733 440.781056 
L 262.654932 438.96208 
L 262.960131 438.04445 
L 263.26533 437.914597 
L 263.570529 438.338602 
L 264.486127 440.387642 
L 264.791326 440.762196 
L 265.096525 440.89841 
L 265.706923 440.693184 
L 266.317321 440.45089 
L 266.622521 440.491253 
L 267.843317 441.070277 
L 268.148516 440.76603 
L 268.453715 440.055227 
L 269.064114 437.411638 
L 269.979711 432.473993 
L 270.590109 430.602533 
L 270.895308 430.291872 
L 271.200508 430.304525 
L 271.810906 430.819935 
L 272.421304 431.310754 
L 273.031702 431.412002 
L 275.168096 430.921564 
L 278.220088 431.133924 
L 279.440884 431.511202 
L 281.272079 431.794707 
L 282.492876 432.275552 
L 282.798075 432.206975 
L 283.408473 431.649293 
L 284.62927 430.0073 
L 285.239668 429.714354 
L 285.850066 429.749155 
L 286.460464 429.901297 
L 286.765664 430.057035 
L 287.070863 430.340845 
L 287.376062 430.812857 
L 287.98646 432.372994 
L 288.596858 434.181838 
L 288.902057 434.720033 
L 289.207257 434.704358 
L 289.512456 433.937097 
L 289.817655 432.310995 
L 290.428053 426.753382 
L 291.343651 417.235137 
L 291.64885 415.297929 
L 291.954049 414.390096 
L 292.259248 414.505004 
L 292.564447 415.463637 
L 293.785244 421.246388 
L 294.090443 421.848025 
L 294.395642 421.981692 
L 295.00604 421.470081 
L 295.311239 421.201973 
L 295.616438 421.111012 
L 295.921638 421.240655 
L 296.532036 421.996922 
L 297.447633 423.261057 
L 298.058032 423.731002 
L 298.66843 423.824365 
L 299.278828 423.471885 
L 300.194426 422.691189 
L 300.499625 422.730453 
L 300.804824 423.076227 
L 301.110023 423.759001 
L 301.720421 425.926628 
L 302.636019 429.27173 
L 302.941218 429.937847 
L 303.246417 430.322216 
L 303.551616 430.476309 
L 305.382811 430.584962 
L 307.519205 431.598491 
L 308.129603 431.683801 
L 308.740001 431.572728 
L 310.571196 430.973283 
L 311.486794 431.127628 
L 314.233586 432.026669 
L 315.759581 432.010628 
L 317.590776 432.020375 
L 320.337568 432.263394 
L 322.168763 432.184308 
L 322.779162 432.414436 
L 324.915556 433.555413 
L 325.220755 433.491164 
L 325.525954 433.288849 
L 326.136352 432.465074 
L 327.051949 430.951949 
L 327.357149 430.673389 
L 327.662348 430.584158 
L 327.967547 430.67988 
L 328.577945 431.286513 
L 329.798742 432.81985 
L 330.40914 433.19855 
L 331.019538 433.184273 
L 331.629937 432.799283 
L 332.545534 432.043662 
L 333.155932 431.911958 
L 333.76633 432.234459 
L 334.987127 433.246911 
L 335.597525 433.346911 
L 336.818322 433.116331 
L 337.42872 433.398161 
L 338.954716 434.784628 
L 339.259915 434.817138 
L 339.565114 434.693221 
L 340.175512 434.023091 
L 341.396309 432.356026 
L 341.701508 432.207496 
L 342.006707 432.228874 
L 342.617105 432.693691 
L 343.837902 433.928567 
L 344.4483 434.198387 
L 345.363898 434.305615 
L 346.889893 434.280018 
L 349.331486 433.97806 
L 352.078279 434.214773 
L 352.993876 434.173573 
L 353.604274 434.333489 
L 355.13027 435.057573 
L 355.740668 434.928835 
L 357.571863 434.096119 
L 358.48746 433.62769 
L 359.403058 433.148119 
L 360.013456 433.149606 
L 362.760248 433.811652 
L 363.981045 433.991403 
L 364.896642 434.367324 
L 366.727837 435.36678 
L 367.948634 436.288883 
L 368.253833 436.366854 
L 368.559032 436.317597 
L 369.16943 435.837495 
L 370.390227 434.429023 
L 370.695426 434.272155 
L 371.000625 434.248699 
L 371.611023 434.557893 
L 372.83182 435.613024 
L 373.137019 435.718736 
L 373.442218 435.693146 
L 374.052616 435.236114 
L 375.273413 433.741392 
L 375.883811 433.444976 
L 376.49421 433.545585 
L 377.409807 433.88109 
L 378.020205 433.887333 
L 378.630603 433.65277 
L 380.156599 432.670827 
L 380.766997 432.007856 
L 382.292993 429.603055 
L 382.598192 429.562275 
L 382.903391 429.841498 
L 383.51379 431.197533 
L 384.124188 432.676381 
L 384.429387 433.011243 
L 384.734586 432.906495 
L 385.039785 432.33789 
L 385.650184 430.113885 
L 386.87098 425.006622 
L 387.481378 423.472808 
L 388.091777 422.543656 
L 389.617772 420.587177 
L 391.448967 418.057094 
L 392.669764 416.680081 
L 393.280162 416.279982 
L 393.585361 416.242643 
L 394.195759 416.499286 
L 395.111357 417.022643 
L 395.416556 417.009953 
L 396.026954 416.668331 
L 396.942552 416.060287 
L 398.163348 415.549102 
L 398.773746 414.922976 
L 399.384145 413.821489 
L 401.520539 408.847592 
L 402.130937 408.093398 
L 403.656933 406.50842 
L 404.877729 404.914909 
L 405.793327 404.186694 
L 406.403725 403.721853 
L 407.014123 402.955828 
L 408.23492 400.915043 
L 408.540119 400.641917 
L 408.845318 400.583049 
L 409.150517 400.757487 
L 409.760915 401.712475 
L 410.676513 403.549209 
L 410.981712 403.895451 
L 411.286911 404.007816 
L 411.59211 403.893098 
L 412.202508 403.218771 
L 412.812907 402.495785 
L 413.423305 402.167646 
L 414.033703 402.218889 
L 414.949301 402.322517 
L 415.559699 402.105833 
L 417.085695 401.125555 
L 417.390894 401.227344 
L 417.696093 401.623061 
L 418.001292 402.35967 
L 419.222089 406.387478 
L 419.527288 406.461498 
L 419.832487 405.850868 
L 420.442885 403.864285 
L 420.748084 403.955393 
L 421.053283 406.101464 
L 421.358483 411.239595 
L 421.663682 419.914601 
L 422.27408 446.769098 
L 422.579279 462.674806 
L 422.579279 462.674806 
" clip-path="url(#p749b1b221c)" style="fill: none; stroke: #0000ff; stroke-width: 0.5; stroke-linecap: square"/>
   </g>
   <g id="line2d_35">
    <path d="M 422.579279 462.674806 
L 422.884478 478.015664 
" clip-path="url(#p749b1b221c)" style="fill: none; stroke: #ff0000; stroke-width: 0.5; stroke-linecap: square"/>
   </g>
   <g id="line2d_36">
    <path d="M 422.884478 478.015664 
L 423.189677 491.20471 
" clip-path="url(#p749b1b221c)" style="fill: none; stroke: #ff0000; stroke-width: 0.5; stroke-linecap: square"/>
   </g>
   <g id="line2d_37"/>
   <g id="line2d_38">
    <path d="M 422.884478 478.015664 
L 423.189677 491.20471 
" clip-path="url(#p749b1b221c)" style="fill: none; stroke: #ff0000; stroke-width: 0.5; stroke-linecap: square"/>
   </g>
   <g id="line2d_39">
    <path d="M 423.189677 491.20471 
L 423.494876 501.192139 
" clip-path="url(#p749b1b221c)" style="fill: none; stroke: #ff0000; stroke-width: 0.5; stroke-linecap: square"/>
   </g>
   <g id="line2d_40"/>
   <g id="line2d_41">
    <path d="M 423.189677 491.20471 
L 423.494876 501.192139 
" clip-path="url(#p749b1b221c)" style="fill: none; stroke: #ff0000; stroke-width: 0.5; stroke-linecap: square"/>
   </g>
   <g id="line2d_42">
    <path d="M 423.494876 501.192139 
L 423.800076 507.662367 
" clip-path="url(#p749b1b221c)" style="fill: none; stroke: #ff0000; stroke-width: 0.5; stroke-linecap: square"/>
   </g>
   <g id="line2d_43"/>
   <g id="line2d_44">
    <path d="M 423.494876 501.192139 
L 423.800076 507.662367 
" clip-path="url(#p749b1b221c)" style="fill: none; stroke: #ff0000; stroke-width: 0.5; stroke-linecap: square"/>
   </g>
   <g id="line2d_45">
    <path d="M 423.800076 507.662367 
L 424.105275 510.983213 
" clip-path="url(#p749b1b221c)" style="fill: none; stroke: #ff0000; stroke-width: 0.5; stroke-linecap: square"/>
   </g>
   <g id="line2d_46"/>
   <g id="line2d_47">
    <path d="M 423.800076 507.662367 
L 424.105275 510.983213 
" clip-path="url(#p749b1b221c)" style="fill: none; stroke: #ff0000; stroke-width: 0.5; stroke-linecap: square"/>
   </g>
   <g id="line2d_48">
    <path d="M 424.105275 510.983213 
L 424.410474 511.954057 
" clip-path="url(#p749b1b221c)" style="fill: none; stroke: #ff0000; stroke-width: 0.5; stroke-linecap: square"/>
   </g>
   <g id="line2d_49"/>
   <g id="line2d_50">
    <path d="M 424.105275 510.983213 
L 424.410474 511.954057 
" clip-path="url(#p749b1b221c)" style="fill: none; stroke: #ff0000; stroke-width: 0.5; stroke-linecap: square"/>
   </g>
   <g id="line2d_51">
    <path d="M 424.410474 511.954057 
L 424.715673 511.465551 
" clip-path="url(#p749b1b221c)" style="fill: none; stroke: #ff0000; stroke-width: 0.5; stroke-linecap: square"/>
   </g>
   <g id="line2d_52"/>
   <g id="line2d_53">
    <path d="M 424.410474 511.954057 
L 424.715673 511.465551 
" clip-path="url(#p749b1b221c)" style="fill: none; stroke: #ff0000; stroke-width: 0.5; stroke-linecap: square"/>
   </g>
   <g id="line2d_54">
    <path d="M 424.715673 511.465551 
L 425.020872 510.194348 
" clip-path="url(#p749b1b221c)" style="fill: none; stroke: #ff0000; stroke-width: 0.5; stroke-linecap: square"/>
   </g>
   <g id="line2d_55"/>
   <g id="line2d_56">
    <path d="M 424.715673 511.465551 
L 425.020872 510.194348 
" clip-path="url(#p749b1b221c)" style="fill: none; stroke: #ff0000; stroke-width: 0.5; stroke-linecap: square"/>
   </g>
   <g id="line2d_57">
    <path d="M 425.020872 510.194348 
L 425.326071 508.425259 
" clip-path="url(#p749b1b221c)" style="fill: none; stroke: #ff0000; stroke-width: 0.5; stroke-linecap: square"/>
   </g>
   <g id="line2d_58"/>
   <g id="line2d_59">
    <path d="M 425.020872 510.194348 
L 425.326071 508.425259 
" clip-path="url(#p749b1b221c)" style="fill: none; stroke: #ff0000; stroke-width: 0.5; stroke-linecap: square"/>
   </g>
   <g id="line2d_60">
    <path d="M 425.326071 508.425259 
L 425.63127 506.041474 
" clip-path="url(#p749b1b221c)" style="fill: none; stroke: #ff0000; stroke-width: 0.5; stroke-linecap: square"/>
   </g>
   <g id="line2d_61"/>
   <g id="line2d_62">
    <path d="M 425.326071 508.425259 
L 425.63127 506.041474 
" clip-path="url(#p749b1b221c)" style="fill: none; stroke: #ff0000; stroke-width: 0.5; stroke-linecap: square"/>
   </g>
   <g id="line2d_63">
    <path d="M 425.63127 506.041474 
L 425.93647 502.668036 
" clip-path="url(#p749b1b221c)" style="fill: none; stroke: #ff0000; stroke-width: 0.5; stroke-linecap: square"/>
   </g>
   <g id="line2d_64"/>
   <g id="line2d_65">
    <path d="M 425.63127 506.041474 
L 425.93647 502.668036 
" clip-path="url(#p749b1b221c)" style="fill: none; stroke: #ff0000; stroke-width: 0.5; stroke-linecap: square"/>
   </g>
   <g id="line2d_66">
    <path d="M 425.93647 502.668036 
L 426.241669 497.906578 
" clip-path="url(#p749b1b221c)" style="fill: none; stroke: #ff0000; stroke-width: 0.5; stroke-linecap: square"/>
   </g>
   <g id="line2d_67"/>
   <g id="line2d_68">
    <path d="M 425.93647 502.668036 
L 426.241669 497.906578 
" clip-path="url(#p749b1b221c)" style="fill: none; stroke: #ff0000; stroke-width: 0.5; stroke-linecap: square"/>
   </g>
   <g id="line2d_69">
    <path d="M 426.241669 497.906578 
L 426.546868 491.569704 
" clip-path="url(#p749b1b221c)" style="fill: none; stroke: #ff0000; stroke-width: 0.5; stroke-linecap: square"/>
   </g>
   <g id="line2d_70"/>
   <g id="line2d_71">
    <path d="M 426.241669 497.906578 
L 426.546868 491.569704 
" clip-path="url(#p749b1b221c)" style="fill: none; stroke: #ff0000; stroke-width: 0.5; stroke-linecap: square"/>
   </g>
   <g id="line2d_72">
    <path d="M 426.546868 491.569704 
L 426.852067 483.820375 
" clip-path="url(#p749b1b221c)" style="fill: none; stroke: #ff0000; stroke-width: 0.5; stroke-linecap: square"/>
   </g>
   <g id="line2d_73"/>
   <g id="line2d_74">
    <path d="M 426.546868 491.569704 
L 426.852067 483.820375 
" clip-path="url(#p749b1b221c)" style="fill: none; stroke: #ff0000; stroke-width: 0.5; stroke-linecap: square"/>
   </g>
   <g id="line2d_75">
    <path d="M 426.852067 483.820375 
L 427.157266 475.154416 
" clip-path="url(#p749b1b221c)" style="fill: none; stroke: #ff0000; stroke-width: 0.5; stroke-linecap: square"/>
   </g>
   <g id="line2d_76">
    <path d="M 427.157266 475.154416 
L 427.462465 466.23221 
L 427.767664 457.642506 
L 428.072864 449.718292 
L 428.378063 442.491002 
L 428.683262 435.787445 
L 428.988461 429.400121 
L 429.29366 423.238821 
L 429.598859 417.403859 
L 429.904058 412.179558 
L 430.209257 407.986964 
L 430.514457 405.33199 
L 430.819656 404.753309 
L 431.124855 406.748862 
L 431.430054 411.662457 
L 431.735253 419.539711 
L 432.040452 429.998388 
L 432.345651 442.1823 
L 432.650851 454.862534 
" clip-path="url(#p749b1b221c)" style="fill: none; stroke: #0000ff; stroke-width: 0.5; stroke-linecap: square"/>
   </g>
   <g id="line2d_77">
    <path d="M 432.650851 454.862534 
L 432.95605 466.701991 
" clip-path="url(#p749b1b221c)" style="fill: none; stroke: #ff0000; stroke-width: 0.5; stroke-linecap: square"/>
   </g>
   <g id="line2d_78">
    <path d="M 432.95605 466.701991 
L 433.261249 476.613828 
" clip-path="url(#p749b1b221c)" style="fill: none; stroke: #ff0000; stroke-width: 0.5; stroke-linecap: square"/>
   </g>
   <g id="line2d_79"/>
   <g id="line2d_80">
    <path d="M 432.95605 466.701991 
L 433.261249 476.613828 
" clip-path="url(#p749b1b221c)" style="fill: none; stroke: #ff0000; stroke-width: 0.5; stroke-linecap: square"/>
   </g>
   <g id="line2d_81">
    <path d="M 433.261249 476.613828 
L 433.566448 484.064258 
" clip-path="url(#p749b1b221c)" style="fill: none; stroke: #ff0000; stroke-width: 0.5; stroke-linecap: square"/>
   </g>
   <g id="line2d_82"/>
   <g id="line2d_83">
    <path d="M 433.261249 476.613828 
L 433.566448 484.064258 
" clip-path="url(#p749b1b221c)" style="fill: none; stroke: #ff0000; stroke-width: 0.5; stroke-linecap: square"/>
   </g>
   <g id="line2d_84">
    <path d="M 433.566448 484.064258 
L 433.871647 489.166951 
" clip-path="url(#p749b1b221c)" style="fill: none; stroke: #ff0000; stroke-width: 0.5; stroke-linecap: square"/>
   </g>
   <g id="line2d_85">
    <path d="M 433.871647 489.166951 
L 434.176846 492.520937 
L 434.482045 494.890853 
" clip-path="url(#p749b1b221c)" style="fill: none; stroke: #0000ff; stroke-width: 0.5; stroke-linecap: square"/>
   </g>
   <g id="line2d_86">
    <path d="M 434.482045 494.890853 
L 434.787244 496.90413 
" clip-path="url(#p749b1b221c)" style="fill: none; stroke: #ff0000; stroke-width: 0.5; stroke-linecap: square"/>
   </g>
   <g id="line2d_87">
    <path d="M 434.787244 496.90413 
L 435.092444 498.893922 
" clip-path="url(#p749b1b221c)" style="fill: none; stroke: #ff0000; stroke-width: 0.5; stroke-linecap: square"/>
   </g>
   <g id="line2d_88"/>
   <g id="line2d_89">
    <path d="M 434.787244 496.90413 
L 435.092444 498.893922 
" clip-path="url(#p749b1b221c)" style="fill: none; stroke: #ff0000; stroke-width: 0.5; stroke-linecap: square"/>
   </g>
   <g id="line2d_90">
    <path d="M 435.092444 498.893922 
L 435.397643 500.905786 
" clip-path="url(#p749b1b221c)" style="fill: none; stroke: #ff0000; stroke-width: 0.5; stroke-linecap: square"/>
   </g>
   <g id="line2d_91"/>
   <g id="line2d_92">
    <path d="M 435.092444 498.893922 
L 435.397643 500.905786 
" clip-path="url(#p749b1b221c)" style="fill: none; stroke: #ff0000; stroke-width: 0.5; stroke-linecap: square"/>
   </g>
   <g id="line2d_93">
    <path d="M 435.397643 500.905786 
L 435.702842 502.803244 
" clip-path="url(#p749b1b221c)" style="fill: none; stroke: #ff0000; stroke-width: 0.5; stroke-linecap: square"/>
   </g>
   <g id="line2d_94"/>
   <g id="line2d_95">
    <path d="M 435.397643 500.905786 
L 435.702842 502.803244 
" clip-path="url(#p749b1b221c)" style="fill: none; stroke: #ff0000; stroke-width: 0.5; stroke-linecap: square"/>
   </g>
   <g id="line2d_96">
    <path d="M 435.702842 502.803244 
L 436.008041 504.392297 
" clip-path="url(#p749b1b221c)" style="fill: none; stroke: #ff0000; stroke-width: 0.5; stroke-linecap: square"/>
   </g>
   <g id="line2d_97"/>
   <g id="line2d_98">
    <path d="M 435.702842 502.803244 
L 436.008041 504.392297 
" clip-path="url(#p749b1b221c)" style="fill: none; stroke: #ff0000; stroke-width: 0.5; stroke-linecap: square"/>
   </g>
   <g id="line2d_99">
    <path d="M 436.008041 504.392297 
L 436.31324 505.514194 
" clip-path="url(#p749b1b221c)" style="fill: none; stroke: #ff0000; stroke-width: 0.5; stroke-linecap: square"/>
   </g>
   <g id="line2d_100"/>
   <g id="line2d_101">
    <path d="M 436.008041 504.392297 
L 436.31324 505.514194 
" clip-path="url(#p749b1b221c)" style="fill: none; stroke: #ff0000; stroke-width: 0.5; stroke-linecap: square"/>
   </g>
   <g id="line2d_102">
    <path d="M 436.31324 505.514194 
L 436.618439 506.091469 
" clip-path="url(#p749b1b221c)" style="fill: none; stroke: #ff0000; stroke-width: 0.5; stroke-linecap: square"/>
   </g>
   <g id="line2d_103"/>
   <g id="line2d_104">
    <path d="M 436.31324 505.514194 
L 436.618439 506.091469 
" clip-path="url(#p749b1b221c)" style="fill: none; stroke: #ff0000; stroke-width: 0.5; stroke-linecap: square"/>
   </g>
   <g id="line2d_105">
    <path d="M 436.618439 506.091469 
L 436.923638 506.135682 
" clip-path="url(#p749b1b221c)" style="fill: none; stroke: #ff0000; stroke-width: 0.5; stroke-linecap: square"/>
   </g>
   <g id="line2d_106"/>
   <g id="line2d_107">
    <path d="M 436.618439 506.091469 
L 436.923638 506.135682 
" clip-path="url(#p749b1b221c)" style="fill: none; stroke: #ff0000; stroke-width: 0.5; stroke-linecap: square"/>
   </g>
   <g id="line2d_108">
    <path d="M 436.923638 506.135682 
L 437.228838 505.734238 
" clip-path="url(#p749b1b221c)" style="fill: none; stroke: #ff0000; stroke-width: 0.5; stroke-linecap: square"/>
   </g>
   <g id="line2d_109"/>
   <g id="line2d_110">
    <path d="M 436.923638 506.135682 
L 437.228838 505.734238 
" clip-path="url(#p749b1b221c)" style="fill: none; stroke: #ff0000; stroke-width: 0.5; stroke-linecap: square"/>
   </g>
   <g id="line2d_111">
    <path d="M 437.228838 505.734238 
L 437.534037 505.032044 
" clip-path="url(#p749b1b221c)" style="fill: none; stroke: #ff0000; stroke-width: 0.5; stroke-linecap: square"/>
   </g>
   <g id="line2d_112"/>
   <g id="line2d_113">
    <path d="M 437.228838 505.734238 
L 437.534037 505.032044 
" clip-path="url(#p749b1b221c)" style="fill: none; stroke: #ff0000; stroke-width: 0.5; stroke-linecap: square"/>
   </g>
   <g id="line2d_114">
    <path d="M 437.534037 505.032044 
L 437.839236 504.216088 
" clip-path="url(#p749b1b221c)" style="fill: none; stroke: #ff0000; stroke-width: 0.5; stroke-linecap: square"/>
   </g>
   <g id="line2d_115"/>
   <g id="line2d_116">
    <path d="M 437.534037 505.032044 
L 437.839236 504.216088 
" clip-path="url(#p749b1b221c)" style="fill: none; stroke: #ff0000; stroke-width: 0.5; stroke-linecap: square"/>
   </g>
   <g id="line2d_117">
    <path d="M 437.839236 504.216088 
L 438.144435 503.501875 
" clip-path="url(#p749b1b221c)" style="fill: none; stroke: #ff0000; stroke-width: 0.5; stroke-linecap: square"/>
   </g>
   <g id="line2d_118"/>
   <g id="line2d_119">
    <path d="M 437.839236 504.216088 
L 438.144435 503.501875 
" clip-path="url(#p749b1b221c)" style="fill: none; stroke: #ff0000; stroke-width: 0.5; stroke-linecap: square"/>
   </g>
   <g id="line2d_120">
    <path d="M 438.144435 503.501875 
L 438.449634 503.113922 
" clip-path="url(#p749b1b221c)" style="fill: none; stroke: #ff0000; stroke-width: 0.5; stroke-linecap: square"/>
   </g>
   <g id="line2d_121"/>
   <g id="line2d_122">
    <path d="M 438.144435 503.501875 
L 438.449634 503.113922 
" clip-path="url(#p749b1b221c)" style="fill: none; stroke: #ff0000; stroke-width: 0.5; stroke-linecap: square"/>
   </g>
   <g id="line2d_123">
    <path d="M 438.449634 503.113922 
L 438.754833 503.251113 
" clip-path="url(#p749b1b221c)" style="fill: none; stroke: #ff0000; stroke-width: 0.5; stroke-linecap: square"/>
   </g>
   <g id="line2d_124"/>
   <g id="line2d_125">
    <path d="M 438.449634 503.113922 
L 438.754833 503.251113 
" clip-path="url(#p749b1b221c)" style="fill: none; stroke: #ff0000; stroke-width: 0.5; stroke-linecap: square"/>
   </g>
   <g id="line2d_126">
    <path d="M 438.754833 503.251113 
L 439.060032 504.032522 
" clip-path="url(#p749b1b221c)" style="fill: none; stroke: #ff0000; stroke-width: 0.5; stroke-linecap: square"/>
   </g>
   <g id="line2d_127"/>
   <g id="line2d_128">
    <path d="M 438.754833 503.251113 
L 439.060032 504.032522 
" clip-path="url(#p749b1b221c)" style="fill: none; stroke: #ff0000; stroke-width: 0.5; stroke-linecap: square"/>
   </g>
   <g id="line2d_129">
    <path d="M 439.060032 504.032522 
L 439.365232 505.429195 
" clip-path="url(#p749b1b221c)" style="fill: none; stroke: #ff0000; stroke-width: 0.5; stroke-linecap: square"/>
   </g>
   <g id="line2d_130"/>
   <g id="line2d_131">
    <path d="M 439.060032 504.032522 
L 439.365232 505.429195 
" clip-path="url(#p749b1b221c)" style="fill: none; stroke: #ff0000; stroke-width: 0.5; stroke-linecap: square"/>
   </g>
   <g id="line2d_132">
    <path d="M 439.365232 505.429195 
L 439.670431 507.199258 
" clip-path="url(#p749b1b221c)" style="fill: none; stroke: #ff0000; stroke-width: 0.5; stroke-linecap: square"/>
   </g>
   <g id="line2d_133"/>
   <g id="line2d_134">
    <path d="M 439.365232 505.429195 
L 439.670431 507.199258 
" clip-path="url(#p749b1b221c)" style="fill: none; stroke: #ff0000; stroke-width: 0.5; stroke-linecap: square"/>
   </g>
   <g id="line2d_135">
    <path d="M 439.670431 507.199258 
L 439.97563 508.853408 
" clip-path="url(#p749b1b221c)" style="fill: none; stroke: #ff0000; stroke-width: 0.5; stroke-linecap: square"/>
   </g>
   <g id="line2d_136"/>
   <g id="line2d_137">
    <path d="M 439.670431 507.199258 
L 439.97563 508.853408 
" clip-path="url(#p749b1b221c)" style="fill: none; stroke: #ff0000; stroke-width: 0.5; stroke-linecap: square"/>
   </g>
   <g id="line2d_138">
    <path d="M 439.97563 508.853408 
L 440.280829 509.68026 
" clip-path="url(#p749b1b221c)" style="fill: none; stroke: #ff0000; stroke-width: 0.5; stroke-linecap: square"/>
   </g>
   <g id="line2d_139"/>
   <g id="line2d_140">
    <path d="M 439.97563 508.853408 
L 440.280829 509.68026 
" clip-path="url(#p749b1b221c)" style="fill: none; stroke: #ff0000; stroke-width: 0.5; stroke-linecap: square"/>
   </g>
   <g id="line2d_141">
    <path d="M 440.280829 509.68026 
L 440.586028 508.851822 
" clip-path="url(#p749b1b221c)" style="fill: none; stroke: #ff0000; stroke-width: 0.5; stroke-linecap: square"/>
   </g>
   <g id="line2d_142"/>
   <g id="line2d_143">
    <path d="M 440.280829 509.68026 
L 440.586028 508.851822 
" clip-path="url(#p749b1b221c)" style="fill: none; stroke: #ff0000; stroke-width: 0.5; stroke-linecap: square"/>
   </g>
   <g id="line2d_144">
    <path d="M 440.586028 508.851822 
L 440.891227 505.606957 
" clip-path="url(#p749b1b221c)" style="fill: none; stroke: #ff0000; stroke-width: 0.5; stroke-linecap: square"/>
   </g>
   <g id="line2d_145"/>
   <g id="line2d_146">
    <path d="M 440.586028 508.851822 
L 440.891227 505.606957 
" clip-path="url(#p749b1b221c)" style="fill: none; stroke: #ff0000; stroke-width: 0.5; stroke-linecap: square"/>
   </g>
   <g id="line2d_147">
    <path d="M 440.891227 505.606957 
L 441.196426 499.478252 
" clip-path="url(#p749b1b221c)" style="fill: none; stroke: #ff0000; stroke-width: 0.5; stroke-linecap: square"/>
   </g>
   <g id="line2d_148"/>
   <g id="line2d_149">
    <path d="M 440.891227 505.606957 
L 441.196426 499.478252 
" clip-path="url(#p749b1b221c)" style="fill: none; stroke: #ff0000; stroke-width: 0.5; stroke-linecap: square"/>
   </g>
   <g id="line2d_150">
    <path d="M 441.196426 499.478252 
L 441.501625 490.49471 
" clip-path="url(#p749b1b221c)" style="fill: none; stroke: #ff0000; stroke-width: 0.5; stroke-linecap: square"/>
   </g>
   <g id="line2d_151"/>
   <g id="line2d_152">
    <path d="M 441.196426 499.478252 
L 441.501625 490.49471 
" clip-path="url(#p749b1b221c)" style="fill: none; stroke: #ff0000; stroke-width: 0.5; stroke-linecap: square"/>
   </g>
   <g id="line2d_153">
    <path d="M 441.501625 490.49471 
L 441.806825 479.275287 
" clip-path="url(#p749b1b221c)" style="fill: none; stroke: #ff0000; stroke-width: 0.5; stroke-linecap: square"/>
   </g>
   <g id="line2d_154"/>
   <g id="line2d_155">
    <path d="M 441.501625 490.49471 
L 441.806825 479.275287 
" clip-path="url(#p749b1b221c)" style="fill: none; stroke: #ff0000; stroke-width: 0.5; stroke-linecap: square"/>
   </g>
   <g id="line2d_156">
    <path d="M 441.806825 479.275287 
L 442.112024 466.946364 
" clip-path="url(#p749b1b221c)" style="fill: none; stroke: #ff0000; stroke-width: 0.5; stroke-linecap: square"/>
   </g>
   <g id="line2d_157">
    <path d="M 442.112024 466.946364 
L 442.722422 444.340032 
L 443.33282 430.647396 
L 443.638019 427.529419 
L 443.943219 426.232533 
L 444.248418 426.059205 
L 445.164015 426.982975 
L 445.469214 426.958385 
L 446.079613 426.439664 
L 446.690011 425.885007 
L 447.300409 425.694736 
L 447.910807 425.928845 
L 448.521206 426.569578 
L 449.131604 427.587573 
L 450.962799 431.087547 
L 451.267998 431.225749 
L 451.573197 431.121047 
L 452.183595 430.349685 
L 452.793994 429.501434 
L 453.099193 429.334225 
L 453.404392 429.429178 
L 453.709591 429.776382 
L 454.625188 431.329132 
L 454.930387 431.571466 
L 455.235587 431.532077 
L 455.540786 431.234478 
L 456.456383 429.966276 
L 456.761582 429.842876 
L 457.066781 429.961388 
L 457.67718 430.734049 
L 458.897976 432.623968 
L 459.508375 433.19211 
L 460.118773 433.464298 
L 461.339569 433.603074 
L 462.560366 433.586261 
L 463.170764 433.415074 
L 463.781162 432.952195 
L 464.391561 432.047381 
L 465.307158 429.955165 
L 466.222756 427.923412 
L 466.833154 427.193764 
L 467.138353 427.091251 
L 467.443552 427.170056 
L 468.05395 427.79288 
L 468.969548 429.048131 
L 469.274747 429.241139 
L 469.579946 429.216112 
L 469.885145 428.958445 
L 470.495543 427.925993 
L 471.105942 426.920633 
L 471.411141 426.745326 
L 471.71634 426.898192 
L 472.021539 427.380813 
L 472.631937 429.012988 
L 473.242336 430.688351 
L 473.852734 431.651911 
L 474.157933 431.829803 
L 474.768331 431.803116 
L 476.294327 431.224093 
L 477.209924 430.591625 
L 478.125522 429.9206 
L 478.430721 429.854812 
L 478.73592 429.931748 
L 479.041119 430.167625 
L 479.651517 431.055895 
L 480.567115 432.593635 
L 480.872314 432.856153 
L 481.177513 432.889934 
L 481.482712 432.682583 
L 482.093111 431.751198 
L 482.703509 430.865083 
L 483.008708 430.715337 
L 483.313907 430.818063 
L 483.924305 431.566504 
L 484.534704 432.371324 
L 484.839903 432.584634 
L 485.145102 432.633624 
L 485.7555 432.366491 
L 486.365898 432.044134 
L 486.976297 432.085789 
L 487.891894 432.709945 
L 488.502292 433.060178 
L 489.112691 433.162348 
L 490.028288 432.990165 
L 490.943886 432.81621 
L 493.690678 432.612059 
L 495.216673 432.311203 
L 498.573864 431.799433 
L 499.79466 431.702671 
L 503.762249 431.857126 
L 506.509041 431.54697 
L 507.729838 431.437335 
L 508.645435 431.630897 
L 509.255834 431.998241 
L 510.171431 432.949306 
L 511.392228 434.246673 
L 512.002626 434.541335 
L 512.613024 434.500191 
L 513.833821 434.015865 
L 514.444219 434.196655 
L 515.359816 434.804873 
L 515.665016 434.820521 
L 515.970215 434.66428 
L 516.580613 433.961462 
L 517.191011 433.307989 
L 517.49621 433.220646 
L 517.801409 433.338842 
L 518.411808 434.000733 
L 519.022206 434.602447 
L 519.327405 434.681313 
L 519.632604 434.591644 
L 520.853401 433.781821 
L 521.463799 433.861067 
L 522.684596 434.451841 
L 523.294994 434.483904 
L 525.736587 434.123346 
L 527.872981 434.416594 
L 531.230171 434.189491 
L 532.450968 434.245597 
L 533.061366 434.053159 
L 534.587362 433.249217 
L 535.19776 433.257248 
L 536.418557 433.673066 
L 537.334154 434.244146 
L 538.554951 435.4318 
L 539.775747 436.527503 
L 540.386146 436.843268 
L 540.996544 436.839222 
L 541.606942 436.471013 
L 543.132938 435.195474 
L 543.743336 435.027607 
L 544.964133 435.054311 
L 545.574531 435.246007 
L 546.184929 435.708179 
L 547.710925 437.171561 
L 548.931721 437.811408 
L 549.23692 437.890628 
L 549.54212 437.846318 
L 549.847319 437.614791 
L 550.152518 437.160078 
L 550.762916 435.688494 
L 551.678514 433.450694 
L 551.983713 433.034859 
L 552.288912 432.817971 
L 552.594111 432.764926 
L 553.204509 432.971292 
L 553.814908 433.427845 
L 554.730505 434.526203 
L 555.646102 435.757616 
L 555.951301 436.018807 
L 556.256501 436.122888 
L 556.5617 436.033702 
L 556.866899 435.73968 
L 557.477297 434.647163 
L 558.392895 432.779876 
L 558.698094 432.396759 
L 559.003293 432.204978 
L 559.308492 432.204022 
L 559.613691 432.371327 
L 560.224089 433.080145 
L 562.055284 436.024289 
L 562.360483 436.218541 
L 562.665682 436.221871 
L 562.970882 436.036151 
L 563.58128 435.254163 
L 564.191678 434.374252 
L 564.496877 434.074131 
L 564.802076 433.933147 
L 565.107276 433.967043 
L 565.717674 434.465398 
L 566.633271 435.405749 
L 566.93847 435.529661 
L 567.24367 435.506438 
L 567.854068 435.06888 
L 568.769665 434.125111 
L 569.380063 433.90573 
L 569.990462 434.184447 
L 571.516457 435.471061 
L 572.126856 435.629218 
L 573.652851 435.589466 
L 575.178847 435.589263 
L 576.094444 435.834298 
L 577.010042 436.052004 
L 577.62044 435.913933 
L 578.536038 435.287418 
L 579.146436 434.92072 
L 579.756834 434.890279 
L 580.367232 435.286916 
L 582.198427 437.257843 
L 582.503626 437.369057 
L 582.808825 437.352374 
L 583.419224 436.957964 
L 584.64002 435.864277 
L 586.166016 435.173944 
L 586.776414 434.756774 
L 587.081613 434.697972 
L 587.386812 434.844735 
L 587.692012 435.237635 
L 588.30241 436.635145 
L 588.912808 438.089294 
L 589.218007 438.46337 
L 589.523206 438.450256 
L 589.828406 438.021092 
L 590.438804 436.20062 
L 591.354401 433.225986 
L 591.9648 432.271609 
L 592.575198 432.017449 
L 593.795994 432.007824 
L 594.101193 432.144376 
L 594.711592 432.812704 
L 596.237587 435.178996 
L 596.847986 435.430109 
L 597.458384 435.314089 
L 598.373981 435.08633 
L 598.679181 435.195266 
L 598.98438 435.476996 
L 599.594778 436.524544 
L 600.205176 437.46904 
L 600.510375 437.367178 
L 600.815574 436.554424 
L 601.120774 434.868658 
L 601.731172 429.018187 
L 602.646769 418.634189 
L 603.257168 414.339536 
L 603.867566 412.030927 
L 604.783163 408.868012 
L 605.393562 406.740189 
L 606.00396 405.537061 
L 606.309159 405.340495 
L 607.224756 405.228762 
L 607.529955 404.987109 
L 608.140354 403.962855 
L 609.055951 401.635957 
L 610.887146 396.693575 
L 611.192345 396.251333 
L 611.497544 396.072127 
L 611.802743 396.159498 
L 612.413142 396.894936 
L 613.02354 397.716853 
L 613.633938 398.066375 
L 614.244336 397.95385 
L 614.854735 397.562891 
L 615.465133 396.834953 
L 616.075531 395.588417 
L 617.601527 391.826788 
L 618.517124 390.683075 
L 618.822324 389.869629 
L 619.127523 388.36286 
L 619.432722 385.877671 
L 620.04312 377.431899 
L 620.958717 358.567065 
L 621.874315 341.002954 
L 622.484713 332.889509 
L 623.400311 324.134017 
L 625.231505 309.118361 
L 626.452302 299.62558 
L 627.367899 290.234007 
L 628.893895 273.427025 
L 629.504293 268.689048 
L 631.335488 257.370486 
L 632.251085 247.960872 
L 633.471882 234.880156 
L 634.692679 225.112825 
L 635.303077 216.692728 
L 635.913475 203.573314 
L 637.439471 166.645842 
L 638.049869 157.653719 
L 638.660267 151.768132 
L 639.881064 142.521799 
L 640.186263 141.342601 
L 640.491462 141.808874 
L 640.796661 144.97898 
L 641.10186 152.043947 
L 641.40706 164.100155 
L 642.017458 205.252195 
L 643.848653 372.780459 
L 644.153852 385.540911 
L 644.459051 389.866763 
L 644.76425 384.898931 
L 645.069449 370.110391 
L 645.679847 312.513428 
L 647.205843 126.541139 
L 647.511042 107.542954 
L 647.816241 97.146794 
L 648.121441 93.748827 
L 648.42664 95.100525 
L 649.647436 108.909561 
L 649.952635 109.397372 
L 650.257835 108.394719 
L 650.563034 106.197183 
L 652.089029 91.980188 
L 652.394228 92.388017 
L 652.699428 95.223707 
L 653.004627 100.642348 
L 654.530622 138.06485 
L 654.835822 138.852092 
L 655.141021 135.913755 
L 655.751419 122.303042 
L 656.361817 107.47767 
L 656.667016 102.398365 
L 656.972216 99.351809 
L 657.277415 98.062201 
L 657.582614 97.997676 
L 657.887813 98.630806 
L 658.498211 100.909168 
L 659.108609 104.713567 
L 660.024207 112.29026 
L 660.329406 113.479488 
L 660.634605 112.948089 
L 660.939804 110.307052 
L 661.550203 99.100738 
L 662.4658 79.698954 
L 662.770999 77.059822 
L 663.076198 77.577116 
L 663.381397 81.142475 
L 663.991796 94.105265 
L 664.602194 106.612669 
L 664.907393 110.034951 
L 665.212592 111.030437 
L 665.517791 109.940467 
L 666.433389 103.732728 
L 666.738588 104.073109 
L 667.043787 106.558501 
L 667.654185 117.100551 
L 668.569783 135.789461 
L 668.874982 139.643858 
L 669.180181 141.920152 
L 669.790579 145.016584 
L 670.095778 148.736688 
L 670.400977 156.004643 
L 670.706177 167.829692 
L 671.316575 204.330992 
L 672.232172 263.32061 
L 672.537371 274.085033 
L 672.842571 277.449461 
L 673.14777 273.176567 
L 673.452969 262.152143 
L 674.063367 227.376312 
L 674.978965 174.947942 
L 675.589363 154.293342 
L 675.894562 148.496221 
L 676.199761 144.884003 
L 676.810159 141.061275 
L 677.420558 137.508208 
L 678.030956 132.0376 
L 678.946553 123.197188 
L 679.556952 119.916871 
L 679.862151 119.226984 
L 680.16735 118.970073 
L 681.082947 118.909337 
L 681.388146 118.687798 
L 681.693346 118.263459 
L 682.303744 116.767564 
L 682.914142 114.464027 
L 684.134939 108.913193 
L 684.440138 108.05847 
L 684.745337 107.808514 
L 685.050536 108.338676 
L 685.355735 109.739457 
L 685.966133 114.916136 
L 687.797328 134.197666 
L 688.407727 140.668001 
L 689.018125 151.486418 
L 689.933722 177.7204 
L 690.238921 185.785956 
L 690.54412 190.864645 
L 690.84932 191.456058 
L 691.154519 186.703551 
L 691.459718 176.694408 
L 692.985714 109.152687 
L 693.290913 106.266331 
L 693.596112 108.371571 
L 694.20651 121.188946 
L 694.816908 132.492287 
L 695.122108 134.344579 
L 695.427307 133.504395 
L 696.037705 126.988558 
L 696.648103 120.744862 
L 696.953302 119.453972 
L 697.258501 119.635009 
L 697.563701 121.130999 
L 698.174099 126.708793 
L 699.089696 135.323187 
L 699.394895 136.68162 
L 699.700095 136.738206 
L 700.005294 135.272828 
L 700.310493 132.195984 
L 700.920891 121.769151 
L 702.141688 96.270961 
L 702.752086 88.449899 
L 703.057285 86.329331 
L 703.362484 85.160381 
L 703.667683 84.616605 
L 704.278082 83.965391 
L 704.583281 83.26437 
L 704.88848 82.094996 
L 705.498878 78.474093 
L 706.414476 72.603655 
L 706.719675 71.332412 
L 707.024874 70.55509 
L 707.330073 70.235193 
L 707.635272 70.285581 
L 707.940471 70.607181 
L 708.550869 71.774134 
L 709.161268 73.439336 
L 710.076865 76.638101 
L 710.687263 79.311998 
L 711.297662 83.316709 
L 711.90806 89.540136 
L 714.044454 115.064648 
L 715.57045 129.19342 
L 716.180848 132.214173 
L 716.486047 132.749512 
L 716.791246 132.739489 
L 718.012043 131.301436 
L 718.622441 131.199518 
L 718.92764 130.940098 
L 719.232839 130.283304 
L 719.538038 129.124549 
L 720.148437 125.334394 
L 721.979631 111.235353 
L 722.284831 110.792815 
L 722.59003 111.590195 
L 722.895229 113.762049 
L 723.505627 122.091964 
L 725.031623 149.593286 
L 725.336822 151.983525 
L 725.642021 152.505228 
L 725.94722 151.322424 
L 727.168017 141.413836 
L 727.473216 141.021077 
L 727.778415 142.134144 
L 728.388813 147.469969 
L 728.999212 152.735661 
L 729.304411 154.044403 
L 729.60961 154.319197 
L 729.914809 153.820402 
L 730.525207 152.297399 
L 730.830406 152.110574 
L 731.135606 152.608523 
L 731.440805 153.778415 
L 732.051203 157.459819 
L 732.9668 163.404104 
L 733.882398 167.736461 
L 734.797995 171.780657 
L 735.713593 176.541746 
L 736.018792 177.480204 
L 736.323991 177.503453 
L 736.62919 176.274241 
L 736.934389 173.605505 
L 737.544787 164.440636 
L 738.460385 149.155941 
L 738.765584 146.202375 
L 739.070783 144.815592 
L 739.375982 144.758578 
L 739.98638 146.323632 
L 740.29158 146.61474 
L 740.596779 145.933611 
L 740.901978 144.166796 
L 742.122774 133.600964 
L 742.427974 132.663752 
L 742.733173 132.990375 
L 743.038372 134.440836 
L 744.259168 143.301739 
L 744.564368 144.355844 
L 744.869567 144.648623 
L 745.174766 144.295749 
L 745.785164 142.426422 
L 746.700761 139.245435 
L 747.31116 137.88877 
L 747.921558 137.244061 
L 748.531956 137.032556 
L 749.447554 136.764755 
L 750.057952 136.29334 
L 750.66835 135.47689 
L 751.278749 134.309261 
L 751.889147 132.803604 
L 752.499545 130.875856 
L 754.025541 125.18811 
L 754.33074 124.93653 
L 754.635939 125.463057 
L 754.941138 126.875082 
L 755.551536 131.9678 
L 756.161935 137.692894 
L 756.467134 139.489858 
L 756.772333 139.919856 
L 757.077532 138.706233 
L 757.382731 135.859057 
L 758.908727 116.591096 
L 759.213926 116.324168 
L 759.519125 117.667441 
L 760.739922 127.349593 
L 761.045121 128.2892 
L 761.35032 128.414012 
L 762.265917 127.282507 
L 762.571117 127.46896 
L 762.876316 128.101102 
L 763.486714 129.870433 
L 763.791913 130.384446 
L 764.097112 130.289337 
L 764.402311 129.482479 
L 765.01271 126.23533 
L 765.623108 122.889537 
L 765.928307 121.993434 
L 766.233506 121.829419 
L 766.538705 122.317373 
L 767.149104 123.949556 
L 767.454303 124.164574 
L 767.759502 123.433171 
L 768.064701 121.631331 
L 768.980298 113.971226 
L 769.285498 113.361472 
L 769.590697 114.993874 
L 769.895896 119.052436 
L 770.506294 132.355065 
L 771.116692 145.977799 
L 771.727091 154.471802 
L 772.947887 165.166355 
L 773.558285 173.796981 
L 774.473883 187.917284 
L 775.084281 193.766665 
L 775.38948 194.993529 
L 775.694679 195.202165 
L 775.999879 194.687492 
L 776.610277 193.118107 
L 776.915476 192.886008 
L 777.220675 193.423418 
L 777.525874 194.805073 
L 778.441472 200.860625 
L 778.746671 201.354595 
L 779.05187 199.883827 
L 779.357069 196.063112 
L 779.967467 182.24962 
L 780.883065 159.915162 
L 781.188264 156.106227 
L 781.493463 154.878413 
L 781.798662 155.969773 
L 782.40906 162.474264 
L 783.324658 172.854823 
L 784.850653 185.176715 
L 785.766251 198.354184 
L 786.376649 206.93142 
L 786.681848 209.890284 
L 786.987047 211.588392 
L 787.292247 212.026234 
L 787.597446 211.422513 
L 788.207844 208.36677 
L 789.428641 200.844402 
L 789.73384 200.025021 
L 790.039039 200.463628 
L 790.344238 202.57355 
L 790.649437 206.533446 
L 791.259835 218.901503 
L 791.870234 232.14694 
L 792.175433 236.862654 
L 792.480632 239.529416 
L 792.785831 240.058972 
L 793.09103 238.737693 
L 793.701428 232.835541 
L 794.311827 226.920921 
L 794.617026 225.235136 
L 794.922225 224.680071 
L 795.227424 225.176687 
L 795.837822 228.257392 
L 797.363818 237.597185 
L 798.279415 242.301604 
L 798.889814 244.419048 
L 799.195013 244.985864 
L 799.500212 245.229718 
L 799.805411 245.207659 
L 800.415809 244.657721 
L 801.026208 243.742052 
L 802.247004 241.556285 
L 802.552203 241.5019 
L 802.857403 242.021688 
L 803.162602 243.266171 
L 803.773 247.796933 
L 804.383398 252.956295 
L 804.688597 254.570682 
L 804.993796 255.055172 
L 805.298996 254.401043 
L 806.214593 250.091874 
L 806.519792 249.820219 
L 806.824991 250.650409 
L 807.43539 254.623828 
L 808.045788 258.196293 
L 808.350987 258.628374 
L 808.656186 257.918673 
L 809.266584 253.995386 
L 809.876983 249.974539 
L 810.182182 249.112756 
L 810.487381 249.319094 
L 810.79258 250.542221 
L 811.402978 255.015421 
L 812.013377 259.85707 
L 812.318576 261.589748 
L 812.623775 262.509118 
L 812.928974 262.413447 
L 813.234173 261.184948 
L 813.539372 258.850386 
L 814.760169 246.828994 
L 815.065368 246.87003 
L 815.370567 249.614835 
L 815.675766 255.349042 
L 816.286165 274.620356 
L 816.591364 286.497146 
L 816.591364 286.497146 
" clip-path="url(#p749b1b221c)" style="fill: none; stroke: #0000ff; stroke-width: 0.5; stroke-linecap: square"/>
   </g>
   <g id="patch_3">
    <path d="M 47.81 534.04 
L 47.81 48.14925 
" style="fill: none; stroke: #000000; stroke-width: 0.8; stroke-linejoin: miter; stroke-linecap: square"/>
   </g>
   <g id="patch_4">
    <path d="M 853.2 534.04 
L 853.2 48.14925 
" style="fill: none; stroke: #000000; stroke-width: 0.8; stroke-linejoin: miter; stroke-linecap: square"/>
   </g>
   <g id="patch_5">
    <path d="M 47.81 534.04 
L 853.2 534.04 
" style="fill: none; stroke: #000000; stroke-width: 0.8; stroke-linejoin: miter; stroke-linecap: square"/>
   </g>
   <g id="patch_6">
    <path d="M 47.81 48.14925 
L 853.2 48.14925 
" style="fill: none; stroke: #000000; stroke-width: 0.8; stroke-linejoin: miter; stroke-linecap: square"/>
   </g>
   <g id="text_18">
    <!-- EDA Filtering: data_4_E4 -->
    <g transform="translate(389.400313 19.4755) scale(0.1 -0.1)">
     <defs>
      <path id="DejaVuSans-46" d="M 628 4666 
L 3309 4666 
L 3309 4134 
L 1259 4134 
L 1259 2759 
L 3109 2759 
L 3109 2228 
L 1259 2228 
L 1259 0 
L 628 0 
L 628 4666 
z
" transform="scale(0.015625)"/>
      <path id="DejaVuSans-6c" d="M 603 4863 
L 1178 4863 
L 1178 0 
L 603 0 
L 603 4863 
z
" transform="scale(0.015625)"/>
      <path id="DejaVuSans-72" d="M 2631 2963 
Q 2534 3019 2420 3045 
Q 2306 3072 2169 3072 
Q 1681 3072 1420 2755 
Q 1159 2438 1159 1844 
L 1159 0 
L 581 0 
L 581 3500 
L 1159 3500 
L 1159 2956 
Q 1341 3275 1631 3429 
Q 1922 3584 2338 3584 
Q 2397 3584 2469 3576 
Q 2541 3569 2628 3553 
L 2631 2963 
z
" transform="scale(0.015625)"/>
      <path id="DejaVuSans-67" d="M 2906 1791 
Q 2906 2416 2648 2759 
Q 2391 3103 1925 3103 
Q 1463 3103 1205 2759 
Q 947 2416 947 1791 
Q 947 1169 1205 825 
Q 1463 481 1925 481 
Q 2391 481 2648 825 
Q 2906 1169 2906 1791 
z
M 3481 434 
Q 3481 -459 3084 -895 
Q 2688 -1331 1869 -1331 
Q 1566 -1331 1297 -1286 
Q 1028 -1241 775 -1147 
L 775 -588 
Q 1028 -725 1275 -790 
Q 1522 -856 1778 -856 
Q 2344 -856 2625 -561 
Q 2906 -266 2906 331 
L 2906 616 
Q 2728 306 2450 153 
Q 2172 0 1784 0 
Q 1141 0 747 490 
Q 353 981 353 1791 
Q 353 2603 747 3093 
Q 1141 3584 1784 3584 
Q 2172 3584 2450 3431 
Q 2728 3278 2906 2969 
L 2906 3500 
L 3481 3500 
L 3481 434 
z
" transform="scale(0.015625)"/>
      <path id="DejaVuSans-3a" d="M 750 794 
L 1409 794 
L 1409 0 
L 750 0 
L 750 794 
z
M 750 3309 
L 1409 3309 
L 1409 2516 
L 750 2516 
L 750 3309 
z
" transform="scale(0.015625)"/>
      <path id="DejaVuSans-64" d="M 2906 2969 
L 2906 4863 
L 3481 4863 
L 3481 0 
L 2906 0 
L 2906 525 
Q 2725 213 2448 61 
Q 2172 -91 1784 -91 
Q 1150 -91 751 415 
Q 353 922 353 1747 
Q 353 2572 751 3078 
Q 1150 3584 1784 3584 
Q 2172 3584 2448 3432 
Q 2725 3281 2906 2969 
z
M 947 1747 
Q 947 1113 1208 752 
Q 1469 391 1925 391 
Q 2381 391 2643 752 
Q 2906 1113 2906 1747 
Q 2906 2381 2643 2742 
Q 2381 3103 1925 3103 
Q 1469 3103 1208 2742 
Q 947 2381 947 1747 
z
" transform="scale(0.015625)"/>
      <path id="DejaVuSans-61" d="M 2194 1759 
Q 1497 1759 1228 1600 
Q 959 1441 959 1056 
Q 959 750 1161 570 
Q 1363 391 1709 391 
Q 2188 391 2477 730 
Q 2766 1069 2766 1631 
L 2766 1759 
L 2194 1759 
z
M 3341 1997 
L 3341 0 
L 2766 0 
L 2766 531 
Q 2569 213 2275 61 
Q 1981 -91 1556 -91 
Q 1019 -91 701 211 
Q 384 513 384 1019 
Q 384 1609 779 1909 
Q 1175 2209 1959 2209 
L 2766 2209 
L 2766 2266 
Q 2766 2663 2505 2880 
Q 2244 3097 1772 3097 
Q 1472 3097 1187 3025 
Q 903 2953 641 2809 
L 641 3341 
Q 956 3463 1253 3523 
Q 1550 3584 1831 3584 
Q 2591 3584 2966 3190 
Q 3341 2797 3341 1997 
z
" transform="scale(0.015625)"/>
      <path id="DejaVuSans-5f" d="M 3263 -1063 
L 3263 -1509 
L -63 -1509 
L -63 -1063 
L 3263 -1063 
z
" transform="scale(0.015625)"/>
     </defs>
     <use xlink:href="#DejaVuSans-45"/>
     <use xlink:href="#DejaVuSans-44" transform="translate(63.183594 0)"/>
     <use xlink:href="#DejaVuSans-41" transform="translate(138.435547 0)"/>
     <use xlink:href="#DejaVuSans-20" transform="translate(206.84375 0)"/>
     <use xlink:href="#DejaVuSans-46" transform="translate(238.630859 0)"/>
     <use xlink:href="#DejaVuSans-69" transform="translate(288.900391 0)"/>
     <use xlink:href="#DejaVuSans-6c" transform="translate(316.683594 0)"/>
     <use xlink:href="#DejaVuSans-74" transform="translate(344.466797 0)"/>
     <use xlink:href="#DejaVuSans-65" transform="translate(383.675781 0)"/>
     <use xlink:href="#DejaVuSans-72" transform="translate(445.199219 0)"/>
     <use xlink:href="#DejaVuSans-69" transform="translate(486.3125 0)"/>
     <use xlink:href="#DejaVuSans-6e" transform="translate(514.095703 0)"/>
     <use xlink:href="#DejaVuSans-67" transform="translate(577.474609 0)"/>
     <use xlink:href="#DejaVuSans-3a" transform="translate(640.951172 0)"/>
     <use xlink:href="#DejaVuSans-20" transform="translate(674.642578 0)"/>
     <use xlink:href="#DejaVuSans-64" transform="translate(706.429688 0)"/>
     <use xlink:href="#DejaVuSans-61" transform="translate(769.90625 0)"/>
     <use xlink:href="#DejaVuSans-74" transform="translate(831.185547 0)"/>
     <use xlink:href="#DejaVuSans-61" transform="translate(870.394531 0)"/>
     <use xlink:href="#DejaVuSans-5f" transform="translate(931.673828 0)"/>
     <use xlink:href="#DejaVuSans-34" transform="translate(981.673828 0)"/>
     <use xlink:href="#DejaVuSans-5f" transform="translate(1045.296875 0)"/>
     <use xlink:href="#DejaVuSans-45" transform="translate(1095.296875 0)"/>
     <use xlink:href="#DejaVuSans-34" transform="translate(1158.480469 0)"/>
    </g>
    <!-- Window=1, Threshold=0.05, Sample=2400 (600.0s) -->
    <g transform="translate(319.032344 30.951437) scale(0.1 -0.1)">
     <defs>
      <path id="DejaVuSans-57" d="M 213 4666 
L 850 4666 
L 1831 722 
L 2809 4666 
L 3519 4666 
L 4500 722 
L 5478 4666 
L 6119 4666 
L 4947 0 
L 4153 0 
L 3169 4050 
L 2175 0 
L 1381 0 
L 213 4666 
z
" transform="scale(0.015625)"/>
      <path id="DejaVuSans-6f" d="M 1959 3097 
Q 1497 3097 1228 2736 
Q 959 2375 959 1747 
Q 959 1119 1226 758 
Q 1494 397 1959 397 
Q 2419 397 2687 759 
Q 2956 1122 2956 1747 
Q 2956 2369 2687 2733 
Q 2419 3097 1959 3097 
z
M 1959 3584 
Q 2709 3584 3137 3096 
Q 3566 2609 3566 1747 
Q 3566 888 3137 398 
Q 2709 -91 1959 -91 
Q 1206 -91 779 398 
Q 353 888 353 1747 
Q 353 2609 779 3096 
Q 1206 3584 1959 3584 
z
" transform="scale(0.015625)"/>
      <path id="DejaVuSans-77" d="M 269 3500 
L 844 3500 
L 1563 769 
L 2278 3500 
L 2956 3500 
L 3675 769 
L 4391 3500 
L 4966 3500 
L 4050 0 
L 3372 0 
L 2619 2869 
L 1863 0 
L 1184 0 
L 269 3500 
z
" transform="scale(0.015625)"/>
      <path id="DejaVuSans-3d" d="M 678 2906 
L 4684 2906 
L 4684 2381 
L 678 2381 
L 678 2906 
z
M 678 1631 
L 4684 1631 
L 4684 1100 
L 678 1100 
L 678 1631 
z
" transform="scale(0.015625)"/>
      <path id="DejaVuSans-2c" d="M 750 794 
L 1409 794 
L 1409 256 
L 897 -744 
L 494 -744 
L 750 256 
L 750 794 
z
" transform="scale(0.015625)"/>
      <path id="DejaVuSans-68" d="M 3513 2113 
L 3513 0 
L 2938 0 
L 2938 2094 
Q 2938 2591 2744 2837 
Q 2550 3084 2163 3084 
Q 1697 3084 1428 2787 
Q 1159 2491 1159 1978 
L 1159 0 
L 581 0 
L 581 4863 
L 1159 4863 
L 1159 2956 
Q 1366 3272 1645 3428 
Q 1925 3584 2291 3584 
Q 2894 3584 3203 3211 
Q 3513 2838 3513 2113 
z
" transform="scale(0.015625)"/>
      <path id="DejaVuSans-70" d="M 1159 525 
L 1159 -1331 
L 581 -1331 
L 581 3500 
L 1159 3500 
L 1159 2969 
Q 1341 3281 1617 3432 
Q 1894 3584 2278 3584 
Q 2916 3584 3314 3078 
Q 3713 2572 3713 1747 
Q 3713 922 3314 415 
Q 2916 -91 2278 -91 
Q 1894 -91 1617 61 
Q 1341 213 1159 525 
z
M 3116 1747 
Q 3116 2381 2855 2742 
Q 2594 3103 2138 3103 
Q 1681 3103 1420 2742 
Q 1159 2381 1159 1747 
Q 1159 1113 1420 752 
Q 1681 391 2138 391 
Q 2594 391 2855 752 
Q 3116 1113 3116 1747 
z
" transform="scale(0.015625)"/>
     </defs>
     <use xlink:href="#DejaVuSans-57"/>
     <use xlink:href="#DejaVuSans-69" transform="translate(96.626953 0)"/>
     <use xlink:href="#DejaVuSans-6e" transform="translate(124.410156 0)"/>
     <use xlink:href="#DejaVuSans-64" transform="translate(187.789062 0)"/>
     <use xlink:href="#DejaVuSans-6f" transform="translate(251.265625 0)"/>
     <use xlink:href="#DejaVuSans-77" transform="translate(312.447266 0)"/>
     <use xlink:href="#DejaVuSans-3d" transform="translate(394.234375 0)"/>
     <use xlink:href="#DejaVuSans-31" transform="translate(478.023438 0)"/>
     <use xlink:href="#DejaVuSans-2c" transform="translate(541.646484 0)"/>
     <use xlink:href="#DejaVuSans-20" transform="translate(573.433594 0)"/>
     <use xlink:href="#DejaVuSans-54" transform="translate(605.220703 0)"/>
     <use xlink:href="#DejaVuSans-68" transform="translate(666.304688 0)"/>
     <use xlink:href="#DejaVuSans-72" transform="translate(729.683594 0)"/>
     <use xlink:href="#DejaVuSans-65" transform="translate(768.546875 0)"/>
     <use xlink:href="#DejaVuSans-73" transform="translate(830.070312 0)"/>
     <use xlink:href="#DejaVuSans-68" transform="translate(882.169922 0)"/>
     <use xlink:href="#DejaVuSans-6f" transform="translate(945.548828 0)"/>
     <use xlink:href="#DejaVuSans-6c" transform="translate(1006.730469 0)"/>
     <use xlink:href="#DejaVuSans-64" transform="translate(1034.513672 0)"/>
     <use xlink:href="#DejaVuSans-3d" transform="translate(1097.990234 0)"/>
     <use xlink:href="#DejaVuSans-30" transform="translate(1181.779297 0)"/>
     <use xlink:href="#DejaVuSans-2e" transform="translate(1245.402344 0)"/>
     <use xlink:href="#DejaVuSans-30" transform="translate(1277.189453 0)"/>
     <use xlink:href="#DejaVuSans-35" transform="translate(1340.8125 0)"/>
     <use xlink:href="#DejaVuSans-2c" transform="translate(1404.435547 0)"/>
     <use xlink:href="#DejaVuSans-20" transform="translate(1436.222656 0)"/>
     <use xlink:href="#DejaVuSans-53" transform="translate(1468.009766 0)"/>
     <use xlink:href="#DejaVuSans-61" transform="translate(1531.486328 0)"/>
     <use xlink:href="#DejaVuSans-6d" transform="translate(1592.765625 0)"/>
     <use xlink:href="#DejaVuSans-70" transform="translate(1690.177734 0)"/>
     <use xlink:href="#DejaVuSans-6c" transform="translate(1753.654297 0)"/>
     <use xlink:href="#DejaVuSans-65" transform="translate(1781.4375 0)"/>
     <use xlink:href="#DejaVuSans-3d" transform="translate(1842.960938 0)"/>
     <use xlink:href="#DejaVuSans-32" transform="translate(1926.75 0)"/>
     <use xlink:href="#DejaVuSans-34" transform="translate(1990.373047 0)"/>
     <use xlink:href="#DejaVuSans-30" transform="translate(2053.996094 0)"/>
     <use xlink:href="#DejaVuSans-30" transform="translate(2117.619141 0)"/>
     <use xlink:href="#DejaVuSans-20" transform="translate(2181.242188 0)"/>
     <use xlink:href="#DejaVuSans-28" transform="translate(2213.029297 0)"/>
     <use xlink:href="#DejaVuSans-36" transform="translate(2252.042969 0)"/>
     <use xlink:href="#DejaVuSans-30" transform="translate(2315.666016 0)"/>
     <use xlink:href="#DejaVuSans-30" transform="translate(2379.289062 0)"/>
     <use xlink:href="#DejaVuSans-2e" transform="translate(2442.912109 0)"/>
     <use xlink:href="#DejaVuSans-30" transform="translate(2474.699219 0)"/>
     <use xlink:href="#DejaVuSans-73" transform="translate(2538.322266 0)"/>
     <use xlink:href="#DejaVuSans-29" transform="translate(2590.421875 0)"/>
    </g>
    <!-- Remove: Total=1.75%, Thr=1.75%, Med=0.00%, Vel=0.00%, Temp=0.00% -->
    <g transform="translate(262.5175 42.14925) scale(0.1 -0.1)">
     <defs>
      <path id="DejaVuSans-52" d="M 2841 2188 
Q 3044 2119 3236 1894 
Q 3428 1669 3622 1275 
L 4263 0 
L 3584 0 
L 2988 1197 
Q 2756 1666 2539 1819 
Q 2322 1972 1947 1972 
L 1259 1972 
L 1259 0 
L 628 0 
L 628 4666 
L 2053 4666 
Q 2853 4666 3247 4331 
Q 3641 3997 3641 3322 
Q 3641 2881 3436 2590 
Q 3231 2300 2841 2188 
z
M 1259 4147 
L 1259 2491 
L 2053 2491 
Q 2509 2491 2742 2702 
Q 2975 2913 2975 3322 
Q 2975 3731 2742 3939 
Q 2509 4147 2053 4147 
L 1259 4147 
z
" transform="scale(0.015625)"/>
      <path id="DejaVuSans-76" d="M 191 3500 
L 800 3500 
L 1894 563 
L 2988 3500 
L 3597 3500 
L 2284 0 
L 1503 0 
L 191 3500 
z
" transform="scale(0.015625)"/>
      <path id="DejaVuSans-37" d="M 525 4666 
L 3525 4666 
L 3525 4397 
L 1831 0 
L 1172 0 
L 2766 4134 
L 525 4134 
L 525 4666 
z
" transform="scale(0.015625)"/>
      <path id="DejaVuSans-25" d="M 4653 2053 
Q 4381 2053 4226 1822 
Q 4072 1591 4072 1178 
Q 4072 772 4226 539 
Q 4381 306 4653 306 
Q 4919 306 5073 539 
Q 5228 772 5228 1178 
Q 5228 1588 5073 1820 
Q 4919 2053 4653 2053 
z
M 4653 2450 
Q 5147 2450 5437 2106 
Q 5728 1763 5728 1178 
Q 5728 594 5436 251 
Q 5144 -91 4653 -91 
Q 4153 -91 3862 251 
Q 3572 594 3572 1178 
Q 3572 1766 3864 2108 
Q 4156 2450 4653 2450 
z
M 1428 4353 
Q 1159 4353 1004 4120 
Q 850 3888 850 3481 
Q 850 3069 1003 2837 
Q 1156 2606 1428 2606 
Q 1700 2606 1854 2837 
Q 2009 3069 2009 3481 
Q 2009 3884 1853 4118 
Q 1697 4353 1428 4353 
z
M 4250 4750 
L 4750 4750 
L 1831 -91 
L 1331 -91 
L 4250 4750 
z
M 1428 4750 
Q 1922 4750 2215 4408 
Q 2509 4066 2509 3481 
Q 2509 2891 2217 2550 
Q 1925 2209 1428 2209 
Q 931 2209 642 2551 
Q 353 2894 353 3481 
Q 353 4063 643 4406 
Q 934 4750 1428 4750 
z
" transform="scale(0.015625)"/>
      <path id="DejaVuSans-4d" d="M 628 4666 
L 1569 4666 
L 2759 1491 
L 3956 4666 
L 4897 4666 
L 4897 0 
L 4281 0 
L 4281 4097 
L 3078 897 
L 2444 897 
L 1241 4097 
L 1241 0 
L 628 0 
L 628 4666 
z
" transform="scale(0.015625)"/>
      <path id="DejaVuSans-56" d="M 1831 0 
L 50 4666 
L 709 4666 
L 2188 738 
L 3669 4666 
L 4325 4666 
L 2547 0 
L 1831 0 
z
" transform="scale(0.015625)"/>
     </defs>
     <use xlink:href="#DejaVuSans-52"/>
     <use xlink:href="#DejaVuSans-65" transform="translate(64.982422 0)"/>
     <use xlink:href="#DejaVuSans-6d" transform="translate(126.505859 0)"/>
     <use xlink:href="#DejaVuSans-6f" transform="translate(223.917969 0)"/>
     <use xlink:href="#DejaVuSans-76" transform="translate(285.099609 0)"/>
     <use xlink:href="#DejaVuSans-65" transform="translate(344.279297 0)"/>
     <use xlink:href="#DejaVuSans-3a" transform="translate(405.802734 0)"/>
     <use xlink:href="#DejaVuSans-20" transform="translate(439.494141 0)"/>
     <use xlink:href="#DejaVuSans-54" transform="translate(471.28125 0)"/>
     <use xlink:href="#DejaVuSans-6f" transform="translate(515.365234 0)"/>
     <use xlink:href="#DejaVuSans-74" transform="translate(576.546875 0)"/>
     <use xlink:href="#DejaVuSans-61" transform="translate(615.755859 0)"/>
     <use xlink:href="#DejaVuSans-6c" transform="translate(677.035156 0)"/>
     <use xlink:href="#DejaVuSans-3d" transform="translate(704.818359 0)"/>
     <use xlink:href="#DejaVuSans-31" transform="translate(788.607422 0)"/>
     <use xlink:href="#DejaVuSans-2e" transform="translate(852.230469 0)"/>
     <use xlink:href="#DejaVuSans-37" transform="translate(884.017578 0)"/>
     <use xlink:href="#DejaVuSans-35" transform="translate(947.640625 0)"/>
     <use xlink:href="#DejaVuSans-25" transform="translate(1011.263672 0)"/>
     <use xlink:href="#DejaVuSans-2c" transform="translate(1106.283203 0)"/>
     <use xlink:href="#DejaVuSans-20" transform="translate(1138.070312 0)"/>
     <use xlink:href="#DejaVuSans-54" transform="translate(1169.857422 0)"/>
     <use xlink:href="#DejaVuSans-68" transform="translate(1230.941406 0)"/>
     <use xlink:href="#DejaVuSans-72" transform="translate(1294.320312 0)"/>
     <use xlink:href="#DejaVuSans-3d" transform="translate(1335.433594 0)"/>
     <use xlink:href="#DejaVuSans-31" transform="translate(1419.222656 0)"/>
     <use xlink:href="#DejaVuSans-2e" transform="translate(1482.845703 0)"/>
     <use xlink:href="#DejaVuSans-37" transform="translate(1514.632812 0)"/>
     <use xlink:href="#DejaVuSans-35" transform="translate(1578.255859 0)"/>
     <use xlink:href="#DejaVuSans-25" transform="translate(1641.878906 0)"/>
     <use xlink:href="#DejaVuSans-2c" transform="translate(1736.898438 0)"/>
     <use xlink:href="#DejaVuSans-20" transform="translate(1768.685547 0)"/>
     <use xlink:href="#DejaVuSans-4d" transform="translate(1800.472656 0)"/>
     <use xlink:href="#DejaVuSans-65" transform="translate(1886.751953 0)"/>
     <use xlink:href="#DejaVuSans-64" transform="translate(1948.275391 0)"/>
     <use xlink:href="#DejaVuSans-3d" transform="translate(2011.751953 0)"/>
     <use xlink:href="#DejaVuSans-30" transform="translate(2095.541016 0)"/>
     <use xlink:href="#DejaVuSans-2e" transform="translate(2159.164062 0)"/>
     <use xlink:href="#DejaVuSans-30" transform="translate(2190.951172 0)"/>
     <use xlink:href="#DejaVuSans-30" transform="translate(2254.574219 0)"/>
     <use xlink:href="#DejaVuSans-25" transform="translate(2318.197266 0)"/>
     <use xlink:href="#DejaVuSans-2c" transform="translate(2413.216797 0)"/>
     <use xlink:href="#DejaVuSans-20" transform="translate(2445.003906 0)"/>
     <use xlink:href="#DejaVuSans-56" transform="translate(2476.791016 0)"/>
     <use xlink:href="#DejaVuSans-65" transform="translate(2537.449219 0)"/>
     <use xlink:href="#DejaVuSans-6c" transform="translate(2598.972656 0)"/>
     <use xlink:href="#DejaVuSans-3d" transform="translate(2626.755859 0)"/>
     <use xlink:href="#DejaVuSans-30" transform="translate(2710.544922 0)"/>
     <use xlink:href="#DejaVuSans-2e" transform="translate(2774.167969 0)"/>
     <use xlink:href="#DejaVuSans-30" transform="translate(2805.955078 0)"/>
     <use xlink:href="#DejaVuSans-30" transform="translate(2869.578125 0)"/>
     <use xlink:href="#DejaVuSans-25" transform="translate(2933.201172 0)"/>
     <use xlink:href="#DejaVuSans-2c" transform="translate(3028.220703 0)"/>
     <use xlink:href="#DejaVuSans-20" transform="translate(3060.007812 0)"/>
     <use xlink:href="#DejaVuSans-54" transform="translate(3091.794922 0)"/>
     <use xlink:href="#DejaVuSans-65" transform="translate(3135.878906 0)"/>
     <use xlink:href="#DejaVuSans-6d" transform="translate(3197.402344 0)"/>
     <use xlink:href="#DejaVuSans-70" transform="translate(3294.814453 0)"/>
     <use xlink:href="#DejaVuSans-3d" transform="translate(3358.291016 0)"/>
     <use xlink:href="#DejaVuSans-30" transform="translate(3442.080078 0)"/>
     <use xlink:href="#DejaVuSans-2e" transform="translate(3505.703125 0)"/>
     <use xlink:href="#DejaVuSans-30" transform="translate(3537.490234 0)"/>
     <use xlink:href="#DejaVuSans-30" transform="translate(3601.113281 0)"/>
     <use xlink:href="#DejaVuSans-25" transform="translate(3664.736328 0)"/>
    </g>
   </g>
   <g id="legend_1">
    <g id="patch_7">
     <path d="M 767.26875 85.5055 
L 846.2 85.5055 
Q 848.2 85.5055 848.2 83.5055 
L 848.2 55.14925 
Q 848.2 53.14925 846.2 53.14925 
L 767.26875 53.14925 
Q 765.26875 53.14925 765.26875 55.14925 
L 765.26875 83.5055 
Q 765.26875 85.5055 767.26875 85.5055 
z
" style="fill: #ffffff; opacity: 0.8; stroke: #cccccc; stroke-linejoin: miter"/>
    </g>
    <g id="line2d_158">
     <path d="M 769.26875 61.247687 
L 779.26875 61.247687 
L 789.26875 61.247687 
" style="fill: none; stroke: #0000ff; stroke-width: 0.5; stroke-linecap: square"/>
    </g>
    <g id="text_19">
     <!-- Kept -->
     <g transform="translate(797.26875 64.747687) scale(0.1 -0.1)">
      <defs>
       <path id="DejaVuSans-4b" d="M 628 4666 
L 1259 4666 
L 1259 2694 
L 3353 4666 
L 4166 4666 
L 1850 2491 
L 4331 0 
L 3500 0 
L 1259 2247 
L 1259 0 
L 628 0 
L 628 4666 
z
" transform="scale(0.015625)"/>
      </defs>
      <use xlink:href="#DejaVuSans-4b"/>
      <use xlink:href="#DejaVuSans-65" transform="translate(60.576172 0)"/>
      <use xlink:href="#DejaVuSans-70" transform="translate(122.099609 0)"/>
      <use xlink:href="#DejaVuSans-74" transform="translate(185.576172 0)"/>
     </g>
    </g>
    <g id="line2d_159">
     <path d="M 769.26875 75.925812 
L 779.26875 75.925812 
L 789.26875 75.925812 
" style="fill: none; stroke: #ff0000; stroke-width: 0.5; stroke-linecap: square"/>
    </g>
    <g id="text_20">
     <!-- Removed -->
     <g transform="translate(797.26875 79.425812) scale(0.1 -0.1)">
      <use xlink:href="#DejaVuSans-52"/>
      <use xlink:href="#DejaVuSans-65" transform="translate(64.982422 0)"/>
      <use xlink:href="#DejaVuSans-6d" transform="translate(126.505859 0)"/>
      <use xlink:href="#DejaVuSans-6f" transform="translate(223.917969 0)"/>
      <use xlink:href="#DejaVuSans-76" transform="translate(285.099609 0)"/>
      <use xlink:href="#DejaVuSans-65" transform="translate(344.279297 0)"/>
      <use xlink:href="#DejaVuSans-64" transform="translate(405.802734 0)"/>
     </g>
    </g>
   </g>
  </g>
 </g>
 <defs>
  <clipPath id="p749b1b221c">
   <rect x="47.81" y="48.14925" width="805.39" height="485.89075"/>
  </clipPath>
 </defs>
</svg>
