<?xml version="1.0" encoding="utf-8" standalone="no"?>
<!DOCTYPE svg PUBLIC "-//W3C//DTD SVG 1.1//EN"
  "http://www.w3.org/Graphics/SVG/1.1/DTD/svg11.dtd">
<svg xmlns:xlink="http://www.w3.org/1999/xlink" width="864pt" height="576pt" viewBox="0 0 864 576" xmlns="http://www.w3.org/2000/svg" version="1.1">
 <metadata>
  <rdf:RDF xmlns:dc="http://purl.org/dc/elements/1.1/" xmlns:cc="http://creativecommons.org/ns#" xmlns:rdf="http://www.w3.org/1999/02/22-rdf-syntax-ns#">
   <cc:Work>
    <dc:type rdf:resource="http://purl.org/dc/dcmitype/StillImage"/>
    <dc:date>2025-10-09T19:21:05.873441</dc:date>
    <dc:format>image/svg+xml</dc:format>
    <dc:creator>
     <cc:Agent>
      <dc:title>Matplotlib v3.10.0, https://matplotlib.org/</dc:title>
     </cc:Agent>
    </dc:creator>
   </cc:Work>
  </rdf:RDF>
 </metadata>
 <defs>
  <style type="text/css">*{stroke-linejoin: round; stroke-linecap: butt}</style>
 </defs>
 <g id="figure_1">
  <g id="patch_1">
   <path d="M 0 576 
L 864 576 
L 864 0 
L 0 0 
z
" style="fill: #ffffff"/>
  </g>
  <g id="axes_1">
   <g id="patch_2">
    <path d="M 54.2 534.04 
L 853.2 534.04 
L 853.2 48.14925 
L 54.2 48.14925 
z
" style="fill: #ffffff"/>
   </g>
   <g id="matplotlib.axis_1">
    <g id="xtick_1">
     <g id="line2d_1">
      <path d="M 90.518182 534.04 
L 90.518182 48.14925 
" clip-path="url(#p63126a0e4b)" style="fill: none; stroke: #b0b0b0; stroke-opacity: 0.3; stroke-width: 0.8; stroke-linecap: square"/>
     </g>
     <g id="line2d_2">
      <defs>
       <path id="mb07b31a968" d="M 0 0 
L 0 3.5 
" style="stroke: #000000; stroke-width: 0.8"/>
      </defs>
      <g>
       <use xlink:href="#mb07b31a968" x="90.518182" y="534.04" style="stroke: #000000; stroke-width: 0.8"/>
      </g>
     </g>
     <g id="text_1">
      <!-- 0.00 -->
      <g transform="translate(79.385369 548.638438) scale(0.1 -0.1)">
       <defs>
        <path id="DejaVuSans-30" d="M 2034 4250 
Q 1547 4250 1301 3770 
Q 1056 3291 1056 2328 
Q 1056 1369 1301 889 
Q 1547 409 2034 409 
Q 2525 409 2770 889 
Q 3016 1369 3016 2328 
Q 3016 3291 2770 3770 
Q 2525 4250 2034 4250 
z
M 2034 4750 
Q 2819 4750 3233 4129 
Q 3647 3509 3647 2328 
Q 3647 1150 3233 529 
Q 2819 -91 2034 -91 
Q 1250 -91 836 529 
Q 422 1150 422 2328 
Q 422 3509 836 4129 
Q 1250 4750 2034 4750 
z
" transform="scale(0.015625)"/>
        <path id="DejaVuSans-2e" d="M 684 794 
L 1344 794 
L 1344 0 
L 684 0 
L 684 794 
z
" transform="scale(0.015625)"/>
       </defs>
       <use xlink:href="#DejaVuSans-30"/>
       <use xlink:href="#DejaVuSans-2e" transform="translate(63.623047 0)"/>
       <use xlink:href="#DejaVuSans-30" transform="translate(95.410156 0)"/>
       <use xlink:href="#DejaVuSans-30" transform="translate(159.033203 0)"/>
      </g>
     </g>
    </g>
    <g id="xtick_2">
     <g id="line2d_3">
      <path d="M 181.313636 534.04 
L 181.313636 48.14925 
" clip-path="url(#p63126a0e4b)" style="fill: none; stroke: #b0b0b0; stroke-opacity: 0.3; stroke-width: 0.8; stroke-linecap: square"/>
     </g>
     <g id="line2d_4">
      <g>
       <use xlink:href="#mb07b31a968" x="181.313636" y="534.04" style="stroke: #000000; stroke-width: 0.8"/>
      </g>
     </g>
     <g id="text_2">
      <!-- 0.25 -->
      <g transform="translate(170.180824 548.638438) scale(0.1 -0.1)">
       <defs>
        <path id="DejaVuSans-32" d="M 1228 531 
L 3431 531 
L 3431 0 
L 469 0 
L 469 531 
Q 828 903 1448 1529 
Q 2069 2156 2228 2338 
Q 2531 2678 2651 2914 
Q 2772 3150 2772 3378 
Q 2772 3750 2511 3984 
Q 2250 4219 1831 4219 
Q 1534 4219 1204 4116 
Q 875 4013 500 3803 
L 500 4441 
Q 881 4594 1212 4672 
Q 1544 4750 1819 4750 
Q 2544 4750 2975 4387 
Q 3406 4025 3406 3419 
Q 3406 3131 3298 2873 
Q 3191 2616 2906 2266 
Q 2828 2175 2409 1742 
Q 1991 1309 1228 531 
z
" transform="scale(0.015625)"/>
        <path id="DejaVuSans-35" d="M 691 4666 
L 3169 4666 
L 3169 4134 
L 1269 4134 
L 1269 2991 
Q 1406 3038 1543 3061 
Q 1681 3084 1819 3084 
Q 2600 3084 3056 2656 
Q 3513 2228 3513 1497 
Q 3513 744 3044 326 
Q 2575 -91 1722 -91 
Q 1428 -91 1123 -41 
Q 819 9 494 109 
L 494 744 
Q 775 591 1075 516 
Q 1375 441 1709 441 
Q 2250 441 2565 725 
Q 2881 1009 2881 1497 
Q 2881 1984 2565 2268 
Q 2250 2553 1709 2553 
Q 1456 2553 1204 2497 
Q 953 2441 691 2322 
L 691 4666 
z
" transform="scale(0.015625)"/>
       </defs>
       <use xlink:href="#DejaVuSans-30"/>
       <use xlink:href="#DejaVuSans-2e" transform="translate(63.623047 0)"/>
       <use xlink:href="#DejaVuSans-32" transform="translate(95.410156 0)"/>
       <use xlink:href="#DejaVuSans-35" transform="translate(159.033203 0)"/>
      </g>
     </g>
    </g>
    <g id="xtick_3">
     <g id="line2d_5">
      <path d="M 272.109091 534.04 
L 272.109091 48.14925 
" clip-path="url(#p63126a0e4b)" style="fill: none; stroke: #b0b0b0; stroke-opacity: 0.3; stroke-width: 0.8; stroke-linecap: square"/>
     </g>
     <g id="line2d_6">
      <g>
       <use xlink:href="#mb07b31a968" x="272.109091" y="534.04" style="stroke: #000000; stroke-width: 0.8"/>
      </g>
     </g>
     <g id="text_3">
      <!-- 0.50 -->
      <g transform="translate(260.976278 548.638438) scale(0.1 -0.1)">
       <use xlink:href="#DejaVuSans-30"/>
       <use xlink:href="#DejaVuSans-2e" transform="translate(63.623047 0)"/>
       <use xlink:href="#DejaVuSans-35" transform="translate(95.410156 0)"/>
       <use xlink:href="#DejaVuSans-30" transform="translate(159.033203 0)"/>
      </g>
     </g>
    </g>
    <g id="xtick_4">
     <g id="line2d_7">
      <path d="M 362.904545 534.04 
L 362.904545 48.14925 
" clip-path="url(#p63126a0e4b)" style="fill: none; stroke: #b0b0b0; stroke-opacity: 0.3; stroke-width: 0.8; stroke-linecap: square"/>
     </g>
     <g id="line2d_8">
      <g>
       <use xlink:href="#mb07b31a968" x="362.904545" y="534.04" style="stroke: #000000; stroke-width: 0.8"/>
      </g>
     </g>
     <g id="text_4">
      <!-- 0.75 -->
      <g transform="translate(351.771733 548.638438) scale(0.1 -0.1)">
       <defs>
        <path id="DejaVuSans-37" d="M 525 4666 
L 3525 4666 
L 3525 4397 
L 1831 0 
L 1172 0 
L 2766 4134 
L 525 4134 
L 525 4666 
z
" transform="scale(0.015625)"/>
       </defs>
       <use xlink:href="#DejaVuSans-30"/>
       <use xlink:href="#DejaVuSans-2e" transform="translate(63.623047 0)"/>
       <use xlink:href="#DejaVuSans-37" transform="translate(95.410156 0)"/>
       <use xlink:href="#DejaVuSans-35" transform="translate(159.033203 0)"/>
      </g>
     </g>
    </g>
    <g id="xtick_5">
     <g id="line2d_9">
      <path d="M 453.7 534.04 
L 453.7 48.14925 
" clip-path="url(#p63126a0e4b)" style="fill: none; stroke: #b0b0b0; stroke-opacity: 0.3; stroke-width: 0.8; stroke-linecap: square"/>
     </g>
     <g id="line2d_10">
      <g>
       <use xlink:href="#mb07b31a968" x="453.7" y="534.04" style="stroke: #000000; stroke-width: 0.8"/>
      </g>
     </g>
     <g id="text_5">
      <!-- 1.00 -->
      <g transform="translate(442.567188 548.638438) scale(0.1 -0.1)">
       <defs>
        <path id="DejaVuSans-31" d="M 794 531 
L 1825 531 
L 1825 4091 
L 703 3866 
L 703 4441 
L 1819 4666 
L 2450 4666 
L 2450 531 
L 3481 531 
L 3481 0 
L 794 0 
L 794 531 
z
" transform="scale(0.015625)"/>
       </defs>
       <use xlink:href="#DejaVuSans-31"/>
       <use xlink:href="#DejaVuSans-2e" transform="translate(63.623047 0)"/>
       <use xlink:href="#DejaVuSans-30" transform="translate(95.410156 0)"/>
       <use xlink:href="#DejaVuSans-30" transform="translate(159.033203 0)"/>
      </g>
     </g>
    </g>
    <g id="xtick_6">
     <g id="line2d_11">
      <path d="M 544.495455 534.04 
L 544.495455 48.14925 
" clip-path="url(#p63126a0e4b)" style="fill: none; stroke: #b0b0b0; stroke-opacity: 0.3; stroke-width: 0.8; stroke-linecap: square"/>
     </g>
     <g id="line2d_12">
      <g>
       <use xlink:href="#mb07b31a968" x="544.495455" y="534.04" style="stroke: #000000; stroke-width: 0.8"/>
      </g>
     </g>
     <g id="text_6">
      <!-- 1.25 -->
      <g transform="translate(533.362642 548.638438) scale(0.1 -0.1)">
       <use xlink:href="#DejaVuSans-31"/>
       <use xlink:href="#DejaVuSans-2e" transform="translate(63.623047 0)"/>
       <use xlink:href="#DejaVuSans-32" transform="translate(95.410156 0)"/>
       <use xlink:href="#DejaVuSans-35" transform="translate(159.033203 0)"/>
      </g>
     </g>
    </g>
    <g id="xtick_7">
     <g id="line2d_13">
      <path d="M 635.290909 534.04 
L 635.290909 48.14925 
" clip-path="url(#p63126a0e4b)" style="fill: none; stroke: #b0b0b0; stroke-opacity: 0.3; stroke-width: 0.8; stroke-linecap: square"/>
     </g>
     <g id="line2d_14">
      <g>
       <use xlink:href="#mb07b31a968" x="635.290909" y="534.04" style="stroke: #000000; stroke-width: 0.8"/>
      </g>
     </g>
     <g id="text_7">
      <!-- 1.50 -->
      <g transform="translate(624.158097 548.638438) scale(0.1 -0.1)">
       <use xlink:href="#DejaVuSans-31"/>
       <use xlink:href="#DejaVuSans-2e" transform="translate(63.623047 0)"/>
       <use xlink:href="#DejaVuSans-35" transform="translate(95.410156 0)"/>
       <use xlink:href="#DejaVuSans-30" transform="translate(159.033203 0)"/>
      </g>
     </g>
    </g>
    <g id="xtick_8">
     <g id="line2d_15">
      <path d="M 726.086364 534.04 
L 726.086364 48.14925 
" clip-path="url(#p63126a0e4b)" style="fill: none; stroke: #b0b0b0; stroke-opacity: 0.3; stroke-width: 0.8; stroke-linecap: square"/>
     </g>
     <g id="line2d_16">
      <g>
       <use xlink:href="#mb07b31a968" x="726.086364" y="534.04" style="stroke: #000000; stroke-width: 0.8"/>
      </g>
     </g>
     <g id="text_8">
      <!-- 1.75 -->
      <g transform="translate(714.953551 548.638438) scale(0.1 -0.1)">
       <use xlink:href="#DejaVuSans-31"/>
       <use xlink:href="#DejaVuSans-2e" transform="translate(63.623047 0)"/>
       <use xlink:href="#DejaVuSans-37" transform="translate(95.410156 0)"/>
       <use xlink:href="#DejaVuSans-35" transform="translate(159.033203 0)"/>
      </g>
     </g>
    </g>
    <g id="xtick_9">
     <g id="line2d_17">
      <path d="M 816.881818 534.04 
L 816.881818 48.14925 
" clip-path="url(#p63126a0e4b)" style="fill: none; stroke: #b0b0b0; stroke-opacity: 0.3; stroke-width: 0.8; stroke-linecap: square"/>
     </g>
     <g id="line2d_18">
      <g>
       <use xlink:href="#mb07b31a968" x="816.881818" y="534.04" style="stroke: #000000; stroke-width: 0.8"/>
      </g>
     </g>
     <g id="text_9">
      <!-- 2.00 -->
      <g transform="translate(805.749006 548.638438) scale(0.1 -0.1)">
       <use xlink:href="#DejaVuSans-32"/>
       <use xlink:href="#DejaVuSans-2e" transform="translate(63.623047 0)"/>
       <use xlink:href="#DejaVuSans-30" transform="translate(95.410156 0)"/>
       <use xlink:href="#DejaVuSans-30" transform="translate(159.033203 0)"/>
      </g>
     </g>
    </g>
    <g id="text_10">
     <!-- Time (minutes) -->
     <g transform="translate(415.7375 562.316563) scale(0.1 -0.1)">
      <defs>
       <path id="DejaVuSans-54" d="M -19 4666 
L 3928 4666 
L 3928 4134 
L 2272 4134 
L 2272 0 
L 1638 0 
L 1638 4134 
L -19 4134 
L -19 4666 
z
" transform="scale(0.015625)"/>
       <path id="DejaVuSans-69" d="M 603 3500 
L 1178 3500 
L 1178 0 
L 603 0 
L 603 3500 
z
M 603 4863 
L 1178 4863 
L 1178 4134 
L 603 4134 
L 603 4863 
z
" transform="scale(0.015625)"/>
       <path id="DejaVuSans-6d" d="M 3328 2828 
Q 3544 3216 3844 3400 
Q 4144 3584 4550 3584 
Q 5097 3584 5394 3201 
Q 5691 2819 5691 2113 
L 5691 0 
L 5113 0 
L 5113 2094 
Q 5113 2597 4934 2840 
Q 4756 3084 4391 3084 
Q 3944 3084 3684 2787 
Q 3425 2491 3425 1978 
L 3425 0 
L 2847 0 
L 2847 2094 
Q 2847 2600 2669 2842 
Q 2491 3084 2119 3084 
Q 1678 3084 1418 2786 
Q 1159 2488 1159 1978 
L 1159 0 
L 581 0 
L 581 3500 
L 1159 3500 
L 1159 2956 
Q 1356 3278 1631 3431 
Q 1906 3584 2284 3584 
Q 2666 3584 2933 3390 
Q 3200 3197 3328 2828 
z
" transform="scale(0.015625)"/>
       <path id="DejaVuSans-65" d="M 3597 1894 
L 3597 1613 
L 953 1613 
Q 991 1019 1311 708 
Q 1631 397 2203 397 
Q 2534 397 2845 478 
Q 3156 559 3463 722 
L 3463 178 
Q 3153 47 2828 -22 
Q 2503 -91 2169 -91 
Q 1331 -91 842 396 
Q 353 884 353 1716 
Q 353 2575 817 3079 
Q 1281 3584 2069 3584 
Q 2775 3584 3186 3129 
Q 3597 2675 3597 1894 
z
M 3022 2063 
Q 3016 2534 2758 2815 
Q 2500 3097 2075 3097 
Q 1594 3097 1305 2825 
Q 1016 2553 972 2059 
L 3022 2063 
z
" transform="scale(0.015625)"/>
       <path id="DejaVuSans-20" transform="scale(0.015625)"/>
       <path id="DejaVuSans-28" d="M 1984 4856 
Q 1566 4138 1362 3434 
Q 1159 2731 1159 2009 
Q 1159 1288 1364 580 
Q 1569 -128 1984 -844 
L 1484 -844 
Q 1016 -109 783 600 
Q 550 1309 550 2009 
Q 550 2706 781 3412 
Q 1013 4119 1484 4856 
L 1984 4856 
z
" transform="scale(0.015625)"/>
       <path id="DejaVuSans-6e" d="M 3513 2113 
L 3513 0 
L 2938 0 
L 2938 2094 
Q 2938 2591 2744 2837 
Q 2550 3084 2163 3084 
Q 1697 3084 1428 2787 
Q 1159 2491 1159 1978 
L 1159 0 
L 581 0 
L 581 3500 
L 1159 3500 
L 1159 2956 
Q 1366 3272 1645 3428 
Q 1925 3584 2291 3584 
Q 2894 3584 3203 3211 
Q 3513 2838 3513 2113 
z
" transform="scale(0.015625)"/>
       <path id="DejaVuSans-75" d="M 544 1381 
L 544 3500 
L 1119 3500 
L 1119 1403 
Q 1119 906 1312 657 
Q 1506 409 1894 409 
Q 2359 409 2629 706 
Q 2900 1003 2900 1516 
L 2900 3500 
L 3475 3500 
L 3475 0 
L 2900 0 
L 2900 538 
Q 2691 219 2414 64 
Q 2138 -91 1772 -91 
Q 1169 -91 856 284 
Q 544 659 544 1381 
z
M 1991 3584 
L 1991 3584 
z
" transform="scale(0.015625)"/>
       <path id="DejaVuSans-74" d="M 1172 4494 
L 1172 3500 
L 2356 3500 
L 2356 3053 
L 1172 3053 
L 1172 1153 
Q 1172 725 1289 603 
Q 1406 481 1766 481 
L 2356 481 
L 2356 0 
L 1766 0 
Q 1100 0 847 248 
Q 594 497 594 1153 
L 594 3053 
L 172 3053 
L 172 3500 
L 594 3500 
L 594 4494 
L 1172 4494 
z
" transform="scale(0.015625)"/>
       <path id="DejaVuSans-73" d="M 2834 3397 
L 2834 2853 
Q 2591 2978 2328 3040 
Q 2066 3103 1784 3103 
Q 1356 3103 1142 2972 
Q 928 2841 928 2578 
Q 928 2378 1081 2264 
Q 1234 2150 1697 2047 
L 1894 2003 
Q 2506 1872 2764 1633 
Q 3022 1394 3022 966 
Q 3022 478 2636 193 
Q 2250 -91 1575 -91 
Q 1294 -91 989 -36 
Q 684 19 347 128 
L 347 722 
Q 666 556 975 473 
Q 1284 391 1588 391 
Q 1994 391 2212 530 
Q 2431 669 2431 922 
Q 2431 1156 2273 1281 
Q 2116 1406 1581 1522 
L 1381 1569 
Q 847 1681 609 1914 
Q 372 2147 372 2553 
Q 372 3047 722 3315 
Q 1072 3584 1716 3584 
Q 2034 3584 2315 3537 
Q 2597 3491 2834 3397 
z
" transform="scale(0.015625)"/>
       <path id="DejaVuSans-29" d="M 513 4856 
L 1013 4856 
Q 1481 4119 1714 3412 
Q 1947 2706 1947 2009 
Q 1947 1309 1714 600 
Q 1481 -109 1013 -844 
L 513 -844 
Q 928 -128 1133 580 
Q 1338 1288 1338 2009 
Q 1338 2731 1133 3434 
Q 928 4138 513 4856 
z
" transform="scale(0.015625)"/>
      </defs>
      <use xlink:href="#DejaVuSans-54"/>
      <use xlink:href="#DejaVuSans-69" transform="translate(57.958984 0)"/>
      <use xlink:href="#DejaVuSans-6d" transform="translate(85.742188 0)"/>
      <use xlink:href="#DejaVuSans-65" transform="translate(183.154297 0)"/>
      <use xlink:href="#DejaVuSans-20" transform="translate(244.677734 0)"/>
      <use xlink:href="#DejaVuSans-28" transform="translate(276.464844 0)"/>
      <use xlink:href="#DejaVuSans-6d" transform="translate(315.478516 0)"/>
      <use xlink:href="#DejaVuSans-69" transform="translate(412.890625 0)"/>
      <use xlink:href="#DejaVuSans-6e" transform="translate(440.673828 0)"/>
      <use xlink:href="#DejaVuSans-75" transform="translate(504.052734 0)"/>
      <use xlink:href="#DejaVuSans-74" transform="translate(567.431641 0)"/>
      <use xlink:href="#DejaVuSans-65" transform="translate(606.640625 0)"/>
      <use xlink:href="#DejaVuSans-73" transform="translate(668.164062 0)"/>
      <use xlink:href="#DejaVuSans-29" transform="translate(720.263672 0)"/>
     </g>
    </g>
   </g>
   <g id="matplotlib.axis_2">
    <g id="ytick_1">
     <g id="line2d_19">
      <path d="M 54.2 517.7399 
L 853.2 517.7399 
" clip-path="url(#p63126a0e4b)" style="fill: none; stroke: #b0b0b0; stroke-opacity: 0.3; stroke-width: 0.8; stroke-linecap: square"/>
     </g>
     <g id="line2d_20">
      <defs>
       <path id="mb399193dbe" d="M 0 0 
L -3.5 0 
" style="stroke: #000000; stroke-width: 0.8"/>
      </defs>
      <g>
       <use xlink:href="#mb399193dbe" x="54.2" y="517.7399" style="stroke: #000000; stroke-width: 0.8"/>
      </g>
     </g>
     <g id="text_11">
      <!-- 2.00 -->
      <g transform="translate(24.934375 521.539119) scale(0.1 -0.1)">
       <use xlink:href="#DejaVuSans-32"/>
       <use xlink:href="#DejaVuSans-2e" transform="translate(63.623047 0)"/>
       <use xlink:href="#DejaVuSans-30" transform="translate(95.410156 0)"/>
       <use xlink:href="#DejaVuSans-30" transform="translate(159.033203 0)"/>
      </g>
     </g>
    </g>
    <g id="ytick_2">
     <g id="line2d_21">
      <path d="M 54.2 462.336602 
L 853.2 462.336602 
" clip-path="url(#p63126a0e4b)" style="fill: none; stroke: #b0b0b0; stroke-opacity: 0.3; stroke-width: 0.8; stroke-linecap: square"/>
     </g>
     <g id="line2d_22">
      <g>
       <use xlink:href="#mb399193dbe" x="54.2" y="462.336602" style="stroke: #000000; stroke-width: 0.8"/>
      </g>
     </g>
     <g id="text_12">
      <!-- 2.25 -->
      <g transform="translate(24.934375 466.135821) scale(0.1 -0.1)">
       <use xlink:href="#DejaVuSans-32"/>
       <use xlink:href="#DejaVuSans-2e" transform="translate(63.623047 0)"/>
       <use xlink:href="#DejaVuSans-32" transform="translate(95.410156 0)"/>
       <use xlink:href="#DejaVuSans-35" transform="translate(159.033203 0)"/>
      </g>
     </g>
    </g>
    <g id="ytick_3">
     <g id="line2d_23">
      <path d="M 54.2 406.933305 
L 853.2 406.933305 
" clip-path="url(#p63126a0e4b)" style="fill: none; stroke: #b0b0b0; stroke-opacity: 0.3; stroke-width: 0.8; stroke-linecap: square"/>
     </g>
     <g id="line2d_24">
      <g>
       <use xlink:href="#mb399193dbe" x="54.2" y="406.933305" style="stroke: #000000; stroke-width: 0.8"/>
      </g>
     </g>
     <g id="text_13">
      <!-- 2.50 -->
      <g transform="translate(24.934375 410.732524) scale(0.1 -0.1)">
       <use xlink:href="#DejaVuSans-32"/>
       <use xlink:href="#DejaVuSans-2e" transform="translate(63.623047 0)"/>
       <use xlink:href="#DejaVuSans-35" transform="translate(95.410156 0)"/>
       <use xlink:href="#DejaVuSans-30" transform="translate(159.033203 0)"/>
      </g>
     </g>
    </g>
    <g id="ytick_4">
     <g id="line2d_25">
      <path d="M 54.2 351.530007 
L 853.2 351.530007 
" clip-path="url(#p63126a0e4b)" style="fill: none; stroke: #b0b0b0; stroke-opacity: 0.3; stroke-width: 0.8; stroke-linecap: square"/>
     </g>
     <g id="line2d_26">
      <g>
       <use xlink:href="#mb399193dbe" x="54.2" y="351.530007" style="stroke: #000000; stroke-width: 0.8"/>
      </g>
     </g>
     <g id="text_14">
      <!-- 2.75 -->
      <g transform="translate(24.934375 355.329226) scale(0.1 -0.1)">
       <use xlink:href="#DejaVuSans-32"/>
       <use xlink:href="#DejaVuSans-2e" transform="translate(63.623047 0)"/>
       <use xlink:href="#DejaVuSans-37" transform="translate(95.410156 0)"/>
       <use xlink:href="#DejaVuSans-35" transform="translate(159.033203 0)"/>
      </g>
     </g>
    </g>
    <g id="ytick_5">
     <g id="line2d_27">
      <path d="M 54.2 296.12671 
L 853.2 296.12671 
" clip-path="url(#p63126a0e4b)" style="fill: none; stroke: #b0b0b0; stroke-opacity: 0.3; stroke-width: 0.8; stroke-linecap: square"/>
     </g>
     <g id="line2d_28">
      <g>
       <use xlink:href="#mb399193dbe" x="54.2" y="296.12671" style="stroke: #000000; stroke-width: 0.8"/>
      </g>
     </g>
     <g id="text_15">
      <!-- 3.00 -->
      <g transform="translate(24.934375 299.925929) scale(0.1 -0.1)">
       <defs>
        <path id="DejaVuSans-33" d="M 2597 2516 
Q 3050 2419 3304 2112 
Q 3559 1806 3559 1356 
Q 3559 666 3084 287 
Q 2609 -91 1734 -91 
Q 1441 -91 1130 -33 
Q 819 25 488 141 
L 488 750 
Q 750 597 1062 519 
Q 1375 441 1716 441 
Q 2309 441 2620 675 
Q 2931 909 2931 1356 
Q 2931 1769 2642 2001 
Q 2353 2234 1838 2234 
L 1294 2234 
L 1294 2753 
L 1863 2753 
Q 2328 2753 2575 2939 
Q 2822 3125 2822 3475 
Q 2822 3834 2567 4026 
Q 2313 4219 1838 4219 
Q 1578 4219 1281 4162 
Q 984 4106 628 3988 
L 628 4550 
Q 988 4650 1302 4700 
Q 1616 4750 1894 4750 
Q 2613 4750 3031 4423 
Q 3450 4097 3450 3541 
Q 3450 3153 3228 2886 
Q 3006 2619 2597 2516 
z
" transform="scale(0.015625)"/>
       </defs>
       <use xlink:href="#DejaVuSans-33"/>
       <use xlink:href="#DejaVuSans-2e" transform="translate(63.623047 0)"/>
       <use xlink:href="#DejaVuSans-30" transform="translate(95.410156 0)"/>
       <use xlink:href="#DejaVuSans-30" transform="translate(159.033203 0)"/>
      </g>
     </g>
    </g>
    <g id="ytick_6">
     <g id="line2d_29">
      <path d="M 54.2 240.723412 
L 853.2 240.723412 
" clip-path="url(#p63126a0e4b)" style="fill: none; stroke: #b0b0b0; stroke-opacity: 0.3; stroke-width: 0.8; stroke-linecap: square"/>
     </g>
     <g id="line2d_30">
      <g>
       <use xlink:href="#mb399193dbe" x="54.2" y="240.723412" style="stroke: #000000; stroke-width: 0.8"/>
      </g>
     </g>
     <g id="text_16">
      <!-- 3.25 -->
      <g transform="translate(24.934375 244.522631) scale(0.1 -0.1)">
       <use xlink:href="#DejaVuSans-33"/>
       <use xlink:href="#DejaVuSans-2e" transform="translate(63.623047 0)"/>
       <use xlink:href="#DejaVuSans-32" transform="translate(95.410156 0)"/>
       <use xlink:href="#DejaVuSans-35" transform="translate(159.033203 0)"/>
      </g>
     </g>
    </g>
    <g id="ytick_7">
     <g id="line2d_31">
      <path d="M 54.2 185.320115 
L 853.2 185.320115 
" clip-path="url(#p63126a0e4b)" style="fill: none; stroke: #b0b0b0; stroke-opacity: 0.3; stroke-width: 0.8; stroke-linecap: square"/>
     </g>
     <g id="line2d_32">
      <g>
       <use xlink:href="#mb399193dbe" x="54.2" y="185.320115" style="stroke: #000000; stroke-width: 0.8"/>
      </g>
     </g>
     <g id="text_17">
      <!-- 3.50 -->
      <g transform="translate(24.934375 189.119334) scale(0.1 -0.1)">
       <use xlink:href="#DejaVuSans-33"/>
       <use xlink:href="#DejaVuSans-2e" transform="translate(63.623047 0)"/>
       <use xlink:href="#DejaVuSans-35" transform="translate(95.410156 0)"/>
       <use xlink:href="#DejaVuSans-30" transform="translate(159.033203 0)"/>
      </g>
     </g>
    </g>
    <g id="ytick_8">
     <g id="line2d_33">
      <path d="M 54.2 129.916817 
L 853.2 129.916817 
" clip-path="url(#p63126a0e4b)" style="fill: none; stroke: #b0b0b0; stroke-opacity: 0.3; stroke-width: 0.8; stroke-linecap: square"/>
     </g>
     <g id="line2d_34">
      <g>
       <use xlink:href="#mb399193dbe" x="54.2" y="129.916817" style="stroke: #000000; stroke-width: 0.8"/>
      </g>
     </g>
     <g id="text_18">
      <!-- 3.75 -->
      <g transform="translate(24.934375 133.716036) scale(0.1 -0.1)">
       <use xlink:href="#DejaVuSans-33"/>
       <use xlink:href="#DejaVuSans-2e" transform="translate(63.623047 0)"/>
       <use xlink:href="#DejaVuSans-37" transform="translate(95.410156 0)"/>
       <use xlink:href="#DejaVuSans-35" transform="translate(159.033203 0)"/>
      </g>
     </g>
    </g>
    <g id="ytick_9">
     <g id="line2d_35">
      <path d="M 54.2 74.51352 
L 853.2 74.51352 
" clip-path="url(#p63126a0e4b)" style="fill: none; stroke: #b0b0b0; stroke-opacity: 0.3; stroke-width: 0.8; stroke-linecap: square"/>
     </g>
     <g id="line2d_36">
      <g>
       <use xlink:href="#mb399193dbe" x="54.2" y="74.51352" style="stroke: #000000; stroke-width: 0.8"/>
      </g>
     </g>
     <g id="text_19">
      <!-- 4.00 -->
      <g transform="translate(24.934375 78.312739) scale(0.1 -0.1)">
       <defs>
        <path id="DejaVuSans-34" d="M 2419 4116 
L 825 1625 
L 2419 1625 
L 2419 4116 
z
M 2253 4666 
L 3047 4666 
L 3047 1625 
L 3713 1625 
L 3713 1100 
L 3047 1100 
L 3047 0 
L 2419 0 
L 2419 1100 
L 313 1100 
L 313 1709 
L 2253 4666 
z
" transform="scale(0.015625)"/>
       </defs>
       <use xlink:href="#DejaVuSans-34"/>
       <use xlink:href="#DejaVuSans-2e" transform="translate(63.623047 0)"/>
       <use xlink:href="#DejaVuSans-30" transform="translate(95.410156 0)"/>
       <use xlink:href="#DejaVuSans-30" transform="translate(159.033203 0)"/>
      </g>
     </g>
    </g>
    <g id="text_20">
     <!-- EDA (μS) -->
     <g transform="translate(18.854688 313.282906) rotate(-90) scale(0.1 -0.1)">
      <defs>
       <path id="DejaVuSans-45" d="M 628 4666 
L 3578 4666 
L 3578 4134 
L 1259 4134 
L 1259 2753 
L 3481 2753 
L 3481 2222 
L 1259 2222 
L 1259 531 
L 3634 531 
L 3634 0 
L 628 0 
L 628 4666 
z
" transform="scale(0.015625)"/>
       <path id="DejaVuSans-44" d="M 1259 4147 
L 1259 519 
L 2022 519 
Q 2988 519 3436 956 
Q 3884 1394 3884 2338 
Q 3884 3275 3436 3711 
Q 2988 4147 2022 4147 
L 1259 4147 
z
M 628 4666 
L 1925 4666 
Q 3281 4666 3915 4102 
Q 4550 3538 4550 2338 
Q 4550 1131 3912 565 
Q 3275 0 1925 0 
L 628 0 
L 628 4666 
z
" transform="scale(0.015625)"/>
       <path id="DejaVuSans-41" d="M 2188 4044 
L 1331 1722 
L 3047 1722 
L 2188 4044 
z
M 1831 4666 
L 2547 4666 
L 4325 0 
L 3669 0 
L 3244 1197 
L 1141 1197 
L 716 0 
L 50 0 
L 1831 4666 
z
" transform="scale(0.015625)"/>
       <path id="DejaVuSans-3bc" d="M 544 -1331 
L 544 3500 
L 1119 3500 
L 1119 1325 
Q 1119 872 1334 640 
Q 1550 409 1972 409 
Q 2434 409 2667 671 
Q 2900 934 2900 1459 
L 2900 3500 
L 3475 3500 
L 3475 806 
Q 3475 619 3529 530 
Q 3584 441 3700 441 
Q 3728 441 3778 458 
Q 3828 475 3916 513 
L 3916 50 
Q 3788 -22 3673 -56 
Q 3559 -91 3450 -91 
Q 3234 -91 3106 31 
Q 2978 153 2931 403 
Q 2775 156 2548 32 
Q 2322 -91 2016 -91 
Q 1697 -91 1473 31 
Q 1250 153 1119 397 
L 1119 -1331 
L 544 -1331 
z
" transform="scale(0.015625)"/>
       <path id="DejaVuSans-53" d="M 3425 4513 
L 3425 3897 
Q 3066 4069 2747 4153 
Q 2428 4238 2131 4238 
Q 1616 4238 1336 4038 
Q 1056 3838 1056 3469 
Q 1056 3159 1242 3001 
Q 1428 2844 1947 2747 
L 2328 2669 
Q 3034 2534 3370 2195 
Q 3706 1856 3706 1288 
Q 3706 609 3251 259 
Q 2797 -91 1919 -91 
Q 1588 -91 1214 -16 
Q 841 59 441 206 
L 441 856 
Q 825 641 1194 531 
Q 1563 422 1919 422 
Q 2459 422 2753 634 
Q 3047 847 3047 1241 
Q 3047 1584 2836 1778 
Q 2625 1972 2144 2069 
L 1759 2144 
Q 1053 2284 737 2584 
Q 422 2884 422 3419 
Q 422 4038 858 4394 
Q 1294 4750 2059 4750 
Q 2388 4750 2728 4690 
Q 3069 4631 3425 4513 
z
" transform="scale(0.015625)"/>
      </defs>
      <use xlink:href="#DejaVuSans-45"/>
      <use xlink:href="#DejaVuSans-44" transform="translate(63.183594 0)"/>
      <use xlink:href="#DejaVuSans-41" transform="translate(138.435547 0)"/>
      <use xlink:href="#DejaVuSans-20" transform="translate(206.84375 0)"/>
      <use xlink:href="#DejaVuSans-28" transform="translate(238.630859 0)"/>
      <use xlink:href="#DejaVuSans-3bc" transform="translate(277.644531 0)"/>
      <use xlink:href="#DejaVuSans-53" transform="translate(341.267578 0)"/>
      <use xlink:href="#DejaVuSans-29" transform="translate(404.744141 0)"/>
     </g>
    </g>
   </g>
   <g id="line2d_37">
    <path d="M 90.518182 245.420813 
L 92.034599 269.573683 
L 93.551015 303.179706 
L 95.067432 344.128233 
L 96.583849 388.295425 
L 98.100266 430.307781 
" clip-path="url(#p63126a0e4b)" style="fill: none; stroke: #0000ff; stroke-width: 0.5; stroke-linecap: square"/>
   </g>
   <g id="line2d_38">
    <path d="M 98.100266 430.307781 
L 99.616682 464.615571 
" clip-path="url(#p63126a0e4b)" style="fill: none; stroke: #ff0000; stroke-width: 0.5; stroke-linecap: square"/>
   </g>
   <g id="line2d_39">
    <path d="M 99.616682 464.615571 
L 101.133099 486.602097 
" clip-path="url(#p63126a0e4b)" style="fill: none; stroke: #ff0000; stroke-width: 0.5; stroke-linecap: square"/>
   </g>
   <g id="line2d_40"/>
   <g id="line2d_41">
    <path d="M 99.616682 464.615571 
L 101.133099 486.602097 
" clip-path="url(#p63126a0e4b)" style="fill: none; stroke: #ff0000; stroke-width: 0.5; stroke-linecap: square"/>
   </g>
   <g id="line2d_42">
    <path d="M 101.133099 486.602097 
L 102.649516 493.474001 
" clip-path="url(#p63126a0e4b)" style="fill: none; stroke: #ff0000; stroke-width: 0.5; stroke-linecap: square"/>
   </g>
   <g id="line2d_43"/>
   <g id="line2d_44">
    <path d="M 101.133099 486.602097 
L 102.649516 493.474001 
" clip-path="url(#p63126a0e4b)" style="fill: none; stroke: #ff0000; stroke-width: 0.5; stroke-linecap: square"/>
   </g>
   <g id="line2d_45">
    <path d="M 102.649516 493.474001 
L 104.165933 484.746538 
" clip-path="url(#p63126a0e4b)" style="fill: none; stroke: #ff0000; stroke-width: 0.5; stroke-linecap: square"/>
   </g>
   <g id="line2d_46"/>
   <g id="line2d_47">
    <path d="M 102.649516 493.474001 
L 104.165933 484.746538 
" clip-path="url(#p63126a0e4b)" style="fill: none; stroke: #ff0000; stroke-width: 0.5; stroke-linecap: square"/>
   </g>
   <g id="line2d_48">
    <path d="M 104.165933 484.746538 
L 105.68235 462.228958 
" clip-path="url(#p63126a0e4b)" style="fill: none; stroke: #ff0000; stroke-width: 0.5; stroke-linecap: square"/>
   </g>
   <g id="line2d_49"/>
   <g id="line2d_50">
    <path d="M 104.165933 484.746538 
L 105.68235 462.228958 
" clip-path="url(#p63126a0e4b)" style="fill: none; stroke: #ff0000; stroke-width: 0.5; stroke-linecap: square"/>
   </g>
   <g id="line2d_51">
    <path d="M 105.68235 462.228958 
L 107.198766 429.525852 
" clip-path="url(#p63126a0e4b)" style="fill: none; stroke: #ff0000; stroke-width: 0.5; stroke-linecap: square"/>
   </g>
   <g id="line2d_52">
    <path d="M 107.198766 429.525852 
L 111.748017 315.265086 
L 113.264433 284.112835 
L 114.78085 259.647607 
L 116.297267 241.925449 
L 117.813684 230.084727 
L 119.330101 222.706707 
L 120.846517 218.161807 
L 123.879351 211.663068 
L 125.395768 207.641516 
L 126.912184 202.522915 
L 129.945018 189.987726 
L 131.461435 183.758745 
L 132.977852 178.411005 
L 134.494268 174.357628 
L 136.010685 171.710898 
L 137.527102 170.301792 
L 139.043519 169.777047 
L 143.592769 169.652992 
L 145.109186 169.200495 
L 146.625603 168.333776 
L 148.142019 167.025409 
L 149.658436 165.278384 
L 151.174853 163.114071 
L 152.69127 160.573369 
L 155.724103 154.726905 
L 157.24052 151.785092 
L 158.756937 149.235692 
L 160.273354 147.489904 
L 161.78977 146.979366 
L 163.306187 148.06223 
L 164.822604 150.923351 
L 166.339021 155.504735 
L 167.855437 161.496809 
L 173.921105 189.234784 
L 178.470355 206.874377 
L 179.986772 214.095449 
L 181.503188 223.581117 
L 183.019605 236.192257 
L 184.536022 252.172509 
L 187.568856 289.775629 
L 189.085272 306.24967 
L 190.601689 316.622982 
L 192.118106 317.830953 
L 193.634523 308.123874 
L 195.150939 287.680022 
L 196.667356 258.803044 
L 199.70019 193.246674 
L 201.216607 166.713324 
L 202.733023 149.724863 
L 204.24944 143.829429 
L 205.765857 148.129419 
L 207.282274 159.662297 
L 210.315107 187.932776 
L 211.831524 197.396408 
L 213.347941 201.179747 
L 214.864358 199.463657 
L 216.380774 193.740378 
L 219.413608 178.834087 
L 220.930025 173.402084 
L 222.446441 170.765419 
L 223.962858 171.13519 
L 225.479275 174.190776 
L 226.995692 179.279662 
L 231.544942 198.36274 
L 233.061359 203.178573 
L 234.577776 205.953195 
L 236.094192 206.068773 
L 237.610609 203.075712 
L 239.127026 196.791204 
L 240.643443 187.399354 
L 242.15986 175.494214 
L 246.70911 134.94211 
L 248.225527 123.41371 
L 249.741943 114.164234 
L 251.25836 107.439052 
L 252.774777 103.107753 
L 254.291194 100.720153 
L 255.807611 99.609481 
L 257.324027 99.02672 
L 258.840444 98.279365 
L 260.356861 96.847517 
L 261.873278 94.459051 
L 263.389694 91.115038 
L 266.422528 82.724402 
L 267.938945 78.583584 
L 269.455362 75.072819 
L 270.971778 72.476281 
L 272.488195 70.888589 
L 274.004612 70.235193 
L 275.521029 70.338111 
L 277.037445 70.994985 
L 278.553862 72.04138 
L 280.070279 73.378507 
L 281.586696 74.964114 
L 283.103113 76.779711 
L 286.135946 80.982747 
L 287.652363 83.313246 
L 289.16878 85.850505 
L 290.685196 88.774728 
L 292.201613 92.372807 
L 293.71803 96.95442 
L 295.234447 102.723778 
L 296.750864 109.66588 
L 299.783697 125.787666 
L 302.816531 141.748357 
L 305.849364 155.501638 
L 310.398615 174.158454 
L 313.431448 185.806009 
L 314.947865 190.658415 
L 316.464282 194.403893 
L 317.980698 196.828356 
L 319.497115 197.921795 
L 321.013532 197.901323 
L 322.529949 197.166175 
L 324.046366 196.191531 
L 325.562782 195.38731 
L 327.079199 194.964074 
L 330.112033 194.755904 
L 331.628449 194.226035 
L 333.144866 192.884521 
L 334.661283 190.517744 
L 336.1777 187.106485 
L 337.694117 182.776286 
L 339.210533 177.735278 
L 343.759784 161.361923 
L 345.2762 156.93797 
L 346.792617 153.978745 
L 348.309034 153.074854 
L 349.825451 154.703515 
L 351.341868 159.139566 
L 352.858284 166.389572 
L 354.374701 176.153565 
L 355.891118 187.814607 
L 358.923951 212.924699 
L 360.440368 223.944212 
L 361.956785 232.325502 
L 363.473202 237.207607 
L 364.989619 238.273195 
L 366.506035 235.857296 
L 368.022452 230.915819 
L 369.538869 224.859696 
L 371.055286 219.28175 
L 372.571702 215.618831 
L 374.088119 214.816613 
L 375.604536 217.090073 
L 377.120953 221.871558 
L 380.153786 234.025477 
L 381.670203 238.743859 
L 383.18662 241.416986 
L 384.703037 241.978257 
L 386.219453 240.959461 
L 387.73587 239.261794 
L 389.252287 237.8487 
L 390.768704 237.467106 
L 392.285121 238.484177 
L 393.801537 240.873702 
L 395.317954 244.323349 
L 401.383621 260.534342 
L 402.900038 263.854003 
L 404.416455 266.759353 
L 408.965705 274.634102 
L 410.482122 277.6436 
L 415.031372 287.368209 
L 416.547789 289.285025 
L 418.064206 289.332511 
L 419.580623 286.821825 
L 421.097039 281.370884 
L 422.613456 273.086893 
L 424.129873 262.651476 
L 427.162706 240.379169 
L 428.679123 231.432217 
L 430.19554 225.399505 
L 431.711957 222.566977 
L 433.228374 222.450525 
L 434.74479 223.945382 
L 436.261207 225.647175 
L 437.777624 226.241769 
L 439.294041 224.85055 
L 440.810457 221.2418 
L 442.326874 215.859961 
L 445.359708 203.896402 
L 446.876125 199.660902 
L 448.392541 197.746629 
L 449.908958 198.413763 
L 451.425375 201.376355 
L 452.941792 205.90704 
L 455.974625 215.810995 
L 457.491042 219.474905 
L 459.007459 221.627934 
L 460.523875 222.225941 
L 462.040292 221.505188 
L 463.556709 219.853931 
L 466.589543 215.361015 
L 468.105959 213.138638 
L 469.622376 211.189832 
L 471.138793 209.606739 
L 472.65521 208.41882 
L 474.171626 207.604459 
L 475.688043 207.10199 
L 477.20446 206.823277 
L 483.270127 206.123001 
L 484.786544 205.723037 
L 486.302961 205.160126 
L 487.819377 204.418524 
L 489.335794 203.492513 
L 490.852211 202.385992 
L 492.368628 201.10761 
L 493.885045 199.660674 
L 495.401461 198.03228 
L 496.917878 196.190086 
L 498.434295 194.09482 
L 499.950712 191.7314 
L 504.499962 184.159872 
L 506.016379 182.477498 
L 507.532796 181.963642 
L 509.049212 183.039081 
L 510.565629 185.923167 
L 512.082046 190.513288 
L 516.631296 208.018741 
L 518.147713 211.689071 
L 519.66413 212.56735 
L 521.180547 210.088504 
L 522.696963 204.273097 
L 524.21338 195.816967 
L 527.246214 176.582717 
L 528.76263 169.140631 
L 530.279047 164.917945 
L 531.795464 164.372739 
L 533.311881 167.116398 
L 534.828298 172.079637 
L 536.344714 177.858981 
L 537.861131 183.11383 
L 539.377548 186.892366 
L 540.893965 188.811529 
L 542.410381 189.06646 
L 543.926798 188.284597 
L 545.443215 187.275278 
L 546.959632 186.75534 
L 548.476049 187.136174 
L 549.992465 188.427336 
L 553.025299 192.041225 
L 554.541716 193.091105 
L 556.058132 192.896845 
L 557.574549 191.248823 
L 559.090966 188.318148 
L 562.1238 180.859766 
L 563.640216 177.782623 
L 565.156633 175.952316 
L 566.67305 175.617312 
L 568.189467 176.613967 
L 571.2223 179.94773 
L 572.738717 180.386907 
L 574.255134 178.893005 
L 575.771551 175.212713 
L 577.287967 169.83836 
L 578.804384 164.026677 
L 580.320801 159.566815 
L 581.837218 158.32138 
L 583.353634 161.65559 
L 584.870051 169.945275 
L 586.386468 182.369953 
L 589.419302 211.949728 
L 590.935718 224.940806 
L 592.452135 235.041656 
L 593.968552 242.289957 
L 595.484969 247.596711 
L 597.001385 252.272008 
L 598.517802 257.52667 
L 600.034219 264.133771 
L 601.550636 272.308398 
L 604.583469 291.850367 
L 606.099886 301.746762 
L 607.616303 310.602946 
L 609.13272 317.694143 
L 610.649136 322.55041 
L 612.165553 325.0563 
L 613.68197 325.482445 
L 615.198387 324.431214 
L 616.714804 322.718039 
L 618.23122 321.225719 
L 619.747637 320.751651 
L 621.264054 321.849322 
L 622.780471 324.671376 
L 624.296887 328.845652 
L 625.813304 333.436002 
L 627.329721 337.039949 
L 628.846138 338.048891 
L 630.362555 335.04482 
L 631.878971 327.240944 
L 633.395388 314.820196 
L 634.911805 299.026641 
L 637.944638 266.00157 
L 639.461055 253.408115 
L 640.977472 245.628298 
L 642.493889 243.120466 
L 644.010306 245.349589 
L 645.526722 251.051243 
L 650.075973 273.839015 
L 651.592389 279.837603 
L 653.108806 284.664374 
L 656.14164 293.19912 
L 657.658057 298.423316 
L 659.174473 305.005285 
L 660.69089 313.034503 
L 663.723724 331.920498 
L 665.24014 341.309038 
L 666.756557 349.439655 
L 668.272974 355.483187 
L 669.789391 358.951601 
L 671.305808 359.845901 
L 672.822224 358.612791 
L 674.338641 355.917375 
L 675.855058 352.371382 
L 680.404308 340.25929 
L 681.920725 337.006812 
L 683.437142 335.333212 
L 684.953559 336.229075 
L 686.469975 340.538628 
L 687.986392 348.626785 
L 689.502809 360.128311 
L 694.052059 400.9428 
L 695.568476 410.57473 
L 697.084893 416.021638 
L 698.60131 417.103265 
L 700.117726 414.404529 
L 701.634143 409.034732 
L 704.666977 395.70712 
L 706.183393 390.268564 
L 707.69981 386.825318 
L 709.216227 385.691589 
L 710.732644 386.705934 
L 712.249061 389.358769 
L 713.765477 392.99833 
L 718.314728 404.907789 
L 721.347561 412.075022 
L 724.380395 418.734002 
L 725.896812 421.683882 
L 727.413228 424.158448 
L 728.929645 426.008798 
L 730.446062 427.166529 
L 731.962479 427.664605 
L 733.478895 427.619549 
L 734.995312 427.184764 
L 736.511729 426.496291 
L 738.028146 425.63538 
L 739.544563 424.626022 
L 742.577396 422.218605 
L 744.093813 421.018659 
L 745.61023 420.161553 
L 747.126646 420.050471 
L 748.643063 421.112147 
L 750.15948 423.654027 
L 751.675897 427.706488 
L 756.225147 443.446275 
L 757.741564 446.74369 
L 759.257981 447.733269 
L 760.774397 446.3972 
L 762.290814 443.432765 
L 763.807231 440.056332 
L 765.323648 437.595645 
L 766.840065 437.040785 
L 768.356481 438.736463 
L 769.872898 442.314493 
L 772.905732 451.168008 
L 774.422148 454.149065 
L 775.938565 455.031598 
L 777.454982 453.58202 
L 778.971399 450.148695 
L 782.004232 440.944701 
L 783.520649 437.355985 
L 785.037066 435.595779 
L 786.553483 436.017227 
L 788.069899 438.515486 
L 789.586316 442.621432 
L 794.135567 457.54123 
L 795.651983 461.080257 
L 797.1684 462.958086 
L 798.684817 462.762675 
L 800.201234 460.253446 
L 801.71765 455.48506 
L 803.234067 448.946255 
L 804.750484 441.641296 
L 806.266901 435.048995 
L 807.783318 430.931156 
L 809.299734 431.014972 
L 810.816151 436.621284 
L 812.332568 448.333503 
L 813.848985 465.795308 
L 815.365401 487.695504 
L 816.881818 511.954057 
L 816.881818 511.954057 
" clip-path="url(#p63126a0e4b)" style="fill: none; stroke: #0000ff; stroke-width: 0.5; stroke-linecap: square"/>
   </g>
   <g id="patch_3">
    <path d="M 54.2 534.04 
L 54.2 48.14925 
" style="fill: none; stroke: #000000; stroke-width: 0.8; stroke-linejoin: miter; stroke-linecap: square"/>
   </g>
   <g id="patch_4">
    <path d="M 853.2 534.04 
L 853.2 48.14925 
" style="fill: none; stroke: #000000; stroke-width: 0.8; stroke-linejoin: miter; stroke-linecap: square"/>
   </g>
   <g id="patch_5">
    <path d="M 54.2 534.04 
L 853.2 534.04 
" style="fill: none; stroke: #000000; stroke-width: 0.8; stroke-linejoin: miter; stroke-linecap: square"/>
   </g>
   <g id="patch_6">
    <path d="M 54.2 48.14925 
L 853.2 48.14925 
" style="fill: none; stroke: #000000; stroke-width: 0.8; stroke-linejoin: miter; stroke-linecap: square"/>
   </g>
   <g id="text_21">
    <!-- EDA Filtering: data_4_E4 -->
    <g transform="translate(392.595312 19.4755) scale(0.1 -0.1)">
     <defs>
      <path id="DejaVuSans-46" d="M 628 4666 
L 3309 4666 
L 3309 4134 
L 1259 4134 
L 1259 2759 
L 3109 2759 
L 3109 2228 
L 1259 2228 
L 1259 0 
L 628 0 
L 628 4666 
z
" transform="scale(0.015625)"/>
      <path id="DejaVuSans-6c" d="M 603 4863 
L 1178 4863 
L 1178 0 
L 603 0 
L 603 4863 
z
" transform="scale(0.015625)"/>
      <path id="DejaVuSans-72" d="M 2631 2963 
Q 2534 3019 2420 3045 
Q 2306 3072 2169 3072 
Q 1681 3072 1420 2755 
Q 1159 2438 1159 1844 
L 1159 0 
L 581 0 
L 581 3500 
L 1159 3500 
L 1159 2956 
Q 1341 3275 1631 3429 
Q 1922 3584 2338 3584 
Q 2397 3584 2469 3576 
Q 2541 3569 2628 3553 
L 2631 2963 
z
" transform="scale(0.015625)"/>
      <path id="DejaVuSans-67" d="M 2906 1791 
Q 2906 2416 2648 2759 
Q 2391 3103 1925 3103 
Q 1463 3103 1205 2759 
Q 947 2416 947 1791 
Q 947 1169 1205 825 
Q 1463 481 1925 481 
Q 2391 481 2648 825 
Q 2906 1169 2906 1791 
z
M 3481 434 
Q 3481 -459 3084 -895 
Q 2688 -1331 1869 -1331 
Q 1566 -1331 1297 -1286 
Q 1028 -1241 775 -1147 
L 775 -588 
Q 1028 -725 1275 -790 
Q 1522 -856 1778 -856 
Q 2344 -856 2625 -561 
Q 2906 -266 2906 331 
L 2906 616 
Q 2728 306 2450 153 
Q 2172 0 1784 0 
Q 1141 0 747 490 
Q 353 981 353 1791 
Q 353 2603 747 3093 
Q 1141 3584 1784 3584 
Q 2172 3584 2450 3431 
Q 2728 3278 2906 2969 
L 2906 3500 
L 3481 3500 
L 3481 434 
z
" transform="scale(0.015625)"/>
      <path id="DejaVuSans-3a" d="M 750 794 
L 1409 794 
L 1409 0 
L 750 0 
L 750 794 
z
M 750 3309 
L 1409 3309 
L 1409 2516 
L 750 2516 
L 750 3309 
z
" transform="scale(0.015625)"/>
      <path id="DejaVuSans-64" d="M 2906 2969 
L 2906 4863 
L 3481 4863 
L 3481 0 
L 2906 0 
L 2906 525 
Q 2725 213 2448 61 
Q 2172 -91 1784 -91 
Q 1150 -91 751 415 
Q 353 922 353 1747 
Q 353 2572 751 3078 
Q 1150 3584 1784 3584 
Q 2172 3584 2448 3432 
Q 2725 3281 2906 2969 
z
M 947 1747 
Q 947 1113 1208 752 
Q 1469 391 1925 391 
Q 2381 391 2643 752 
Q 2906 1113 2906 1747 
Q 2906 2381 2643 2742 
Q 2381 3103 1925 3103 
Q 1469 3103 1208 2742 
Q 947 2381 947 1747 
z
" transform="scale(0.015625)"/>
      <path id="DejaVuSans-61" d="M 2194 1759 
Q 1497 1759 1228 1600 
Q 959 1441 959 1056 
Q 959 750 1161 570 
Q 1363 391 1709 391 
Q 2188 391 2477 730 
Q 2766 1069 2766 1631 
L 2766 1759 
L 2194 1759 
z
M 3341 1997 
L 3341 0 
L 2766 0 
L 2766 531 
Q 2569 213 2275 61 
Q 1981 -91 1556 -91 
Q 1019 -91 701 211 
Q 384 513 384 1019 
Q 384 1609 779 1909 
Q 1175 2209 1959 2209 
L 2766 2209 
L 2766 2266 
Q 2766 2663 2505 2880 
Q 2244 3097 1772 3097 
Q 1472 3097 1187 3025 
Q 903 2953 641 2809 
L 641 3341 
Q 956 3463 1253 3523 
Q 1550 3584 1831 3584 
Q 2591 3584 2966 3190 
Q 3341 2797 3341 1997 
z
" transform="scale(0.015625)"/>
      <path id="DejaVuSans-5f" d="M 3263 -1063 
L 3263 -1509 
L -63 -1509 
L -63 -1063 
L 3263 -1063 
z
" transform="scale(0.015625)"/>
     </defs>
     <use xlink:href="#DejaVuSans-45"/>
     <use xlink:href="#DejaVuSans-44" transform="translate(63.183594 0)"/>
     <use xlink:href="#DejaVuSans-41" transform="translate(138.435547 0)"/>
     <use xlink:href="#DejaVuSans-20" transform="translate(206.84375 0)"/>
     <use xlink:href="#DejaVuSans-46" transform="translate(238.630859 0)"/>
     <use xlink:href="#DejaVuSans-69" transform="translate(288.900391 0)"/>
     <use xlink:href="#DejaVuSans-6c" transform="translate(316.683594 0)"/>
     <use xlink:href="#DejaVuSans-74" transform="translate(344.466797 0)"/>
     <use xlink:href="#DejaVuSans-65" transform="translate(383.675781 0)"/>
     <use xlink:href="#DejaVuSans-72" transform="translate(445.199219 0)"/>
     <use xlink:href="#DejaVuSans-69" transform="translate(486.3125 0)"/>
     <use xlink:href="#DejaVuSans-6e" transform="translate(514.095703 0)"/>
     <use xlink:href="#DejaVuSans-67" transform="translate(577.474609 0)"/>
     <use xlink:href="#DejaVuSans-3a" transform="translate(640.951172 0)"/>
     <use xlink:href="#DejaVuSans-20" transform="translate(674.642578 0)"/>
     <use xlink:href="#DejaVuSans-64" transform="translate(706.429688 0)"/>
     <use xlink:href="#DejaVuSans-61" transform="translate(769.90625 0)"/>
     <use xlink:href="#DejaVuSans-74" transform="translate(831.185547 0)"/>
     <use xlink:href="#DejaVuSans-61" transform="translate(870.394531 0)"/>
     <use xlink:href="#DejaVuSans-5f" transform="translate(931.673828 0)"/>
     <use xlink:href="#DejaVuSans-34" transform="translate(981.673828 0)"/>
     <use xlink:href="#DejaVuSans-5f" transform="translate(1045.296875 0)"/>
     <use xlink:href="#DejaVuSans-45" transform="translate(1095.296875 0)"/>
     <use xlink:href="#DejaVuSans-34" transform="translate(1158.480469 0)"/>
    </g>
    <!-- Window=61, Threshold=0.3, Sample=480 (120.0s) -->
    <g transform="translate(325.408594 30.951437) scale(0.1 -0.1)">
     <defs>
      <path id="DejaVuSans-57" d="M 213 4666 
L 850 4666 
L 1831 722 
L 2809 4666 
L 3519 4666 
L 4500 722 
L 5478 4666 
L 6119 4666 
L 4947 0 
L 4153 0 
L 3169 4050 
L 2175 0 
L 1381 0 
L 213 4666 
z
" transform="scale(0.015625)"/>
      <path id="DejaVuSans-6f" d="M 1959 3097 
Q 1497 3097 1228 2736 
Q 959 2375 959 1747 
Q 959 1119 1226 758 
Q 1494 397 1959 397 
Q 2419 397 2687 759 
Q 2956 1122 2956 1747 
Q 2956 2369 2687 2733 
Q 2419 3097 1959 3097 
z
M 1959 3584 
Q 2709 3584 3137 3096 
Q 3566 2609 3566 1747 
Q 3566 888 3137 398 
Q 2709 -91 1959 -91 
Q 1206 -91 779 398 
Q 353 888 353 1747 
Q 353 2609 779 3096 
Q 1206 3584 1959 3584 
z
" transform="scale(0.015625)"/>
      <path id="DejaVuSans-77" d="M 269 3500 
L 844 3500 
L 1563 769 
L 2278 3500 
L 2956 3500 
L 3675 769 
L 4391 3500 
L 4966 3500 
L 4050 0 
L 3372 0 
L 2619 2869 
L 1863 0 
L 1184 0 
L 269 3500 
z
" transform="scale(0.015625)"/>
      <path id="DejaVuSans-3d" d="M 678 2906 
L 4684 2906 
L 4684 2381 
L 678 2381 
L 678 2906 
z
M 678 1631 
L 4684 1631 
L 4684 1100 
L 678 1100 
L 678 1631 
z
" transform="scale(0.015625)"/>
      <path id="DejaVuSans-36" d="M 2113 2584 
Q 1688 2584 1439 2293 
Q 1191 2003 1191 1497 
Q 1191 994 1439 701 
Q 1688 409 2113 409 
Q 2538 409 2786 701 
Q 3034 994 3034 1497 
Q 3034 2003 2786 2293 
Q 2538 2584 2113 2584 
z
M 3366 4563 
L 3366 3988 
Q 3128 4100 2886 4159 
Q 2644 4219 2406 4219 
Q 1781 4219 1451 3797 
Q 1122 3375 1075 2522 
Q 1259 2794 1537 2939 
Q 1816 3084 2150 3084 
Q 2853 3084 3261 2657 
Q 3669 2231 3669 1497 
Q 3669 778 3244 343 
Q 2819 -91 2113 -91 
Q 1303 -91 875 529 
Q 447 1150 447 2328 
Q 447 3434 972 4092 
Q 1497 4750 2381 4750 
Q 2619 4750 2861 4703 
Q 3103 4656 3366 4563 
z
" transform="scale(0.015625)"/>
      <path id="DejaVuSans-2c" d="M 750 794 
L 1409 794 
L 1409 256 
L 897 -744 
L 494 -744 
L 750 256 
L 750 794 
z
" transform="scale(0.015625)"/>
      <path id="DejaVuSans-68" d="M 3513 2113 
L 3513 0 
L 2938 0 
L 2938 2094 
Q 2938 2591 2744 2837 
Q 2550 3084 2163 3084 
Q 1697 3084 1428 2787 
Q 1159 2491 1159 1978 
L 1159 0 
L 581 0 
L 581 4863 
L 1159 4863 
L 1159 2956 
Q 1366 3272 1645 3428 
Q 1925 3584 2291 3584 
Q 2894 3584 3203 3211 
Q 3513 2838 3513 2113 
z
" transform="scale(0.015625)"/>
      <path id="DejaVuSans-70" d="M 1159 525 
L 1159 -1331 
L 581 -1331 
L 581 3500 
L 1159 3500 
L 1159 2969 
Q 1341 3281 1617 3432 
Q 1894 3584 2278 3584 
Q 2916 3584 3314 3078 
Q 3713 2572 3713 1747 
Q 3713 922 3314 415 
Q 2916 -91 2278 -91 
Q 1894 -91 1617 61 
Q 1341 213 1159 525 
z
M 3116 1747 
Q 3116 2381 2855 2742 
Q 2594 3103 2138 3103 
Q 1681 3103 1420 2742 
Q 1159 2381 1159 1747 
Q 1159 1113 1420 752 
Q 1681 391 2138 391 
Q 2594 391 2855 752 
Q 3116 1113 3116 1747 
z
" transform="scale(0.015625)"/>
      <path id="DejaVuSans-38" d="M 2034 2216 
Q 1584 2216 1326 1975 
Q 1069 1734 1069 1313 
Q 1069 891 1326 650 
Q 1584 409 2034 409 
Q 2484 409 2743 651 
Q 3003 894 3003 1313 
Q 3003 1734 2745 1975 
Q 2488 2216 2034 2216 
z
M 1403 2484 
Q 997 2584 770 2862 
Q 544 3141 544 3541 
Q 544 4100 942 4425 
Q 1341 4750 2034 4750 
Q 2731 4750 3128 4425 
Q 3525 4100 3525 3541 
Q 3525 3141 3298 2862 
Q 3072 2584 2669 2484 
Q 3125 2378 3379 2068 
Q 3634 1759 3634 1313 
Q 3634 634 3220 271 
Q 2806 -91 2034 -91 
Q 1263 -91 848 271 
Q 434 634 434 1313 
Q 434 1759 690 2068 
Q 947 2378 1403 2484 
z
M 1172 3481 
Q 1172 3119 1398 2916 
Q 1625 2713 2034 2713 
Q 2441 2713 2670 2916 
Q 2900 3119 2900 3481 
Q 2900 3844 2670 4047 
Q 2441 4250 2034 4250 
Q 1625 4250 1398 4047 
Q 1172 3844 1172 3481 
z
" transform="scale(0.015625)"/>
     </defs>
     <use xlink:href="#DejaVuSans-57"/>
     <use xlink:href="#DejaVuSans-69" transform="translate(96.626953 0)"/>
     <use xlink:href="#DejaVuSans-6e" transform="translate(124.410156 0)"/>
     <use xlink:href="#DejaVuSans-64" transform="translate(187.789062 0)"/>
     <use xlink:href="#DejaVuSans-6f" transform="translate(251.265625 0)"/>
     <use xlink:href="#DejaVuSans-77" transform="translate(312.447266 0)"/>
     <use xlink:href="#DejaVuSans-3d" transform="translate(394.234375 0)"/>
     <use xlink:href="#DejaVuSans-36" transform="translate(478.023438 0)"/>
     <use xlink:href="#DejaVuSans-31" transform="translate(541.646484 0)"/>
     <use xlink:href="#DejaVuSans-2c" transform="translate(605.269531 0)"/>
     <use xlink:href="#DejaVuSans-20" transform="translate(637.056641 0)"/>
     <use xlink:href="#DejaVuSans-54" transform="translate(668.84375 0)"/>
     <use xlink:href="#DejaVuSans-68" transform="translate(729.927734 0)"/>
     <use xlink:href="#DejaVuSans-72" transform="translate(793.306641 0)"/>
     <use xlink:href="#DejaVuSans-65" transform="translate(832.169922 0)"/>
     <use xlink:href="#DejaVuSans-73" transform="translate(893.693359 0)"/>
     <use xlink:href="#DejaVuSans-68" transform="translate(945.792969 0)"/>
     <use xlink:href="#DejaVuSans-6f" transform="translate(1009.171875 0)"/>
     <use xlink:href="#DejaVuSans-6c" transform="translate(1070.353516 0)"/>
     <use xlink:href="#DejaVuSans-64" transform="translate(1098.136719 0)"/>
     <use xlink:href="#DejaVuSans-3d" transform="translate(1161.613281 0)"/>
     <use xlink:href="#DejaVuSans-30" transform="translate(1245.402344 0)"/>
     <use xlink:href="#DejaVuSans-2e" transform="translate(1309.025391 0)"/>
     <use xlink:href="#DejaVuSans-33" transform="translate(1340.8125 0)"/>
     <use xlink:href="#DejaVuSans-2c" transform="translate(1404.435547 0)"/>
     <use xlink:href="#DejaVuSans-20" transform="translate(1436.222656 0)"/>
     <use xlink:href="#DejaVuSans-53" transform="translate(1468.009766 0)"/>
     <use xlink:href="#DejaVuSans-61" transform="translate(1531.486328 0)"/>
     <use xlink:href="#DejaVuSans-6d" transform="translate(1592.765625 0)"/>
     <use xlink:href="#DejaVuSans-70" transform="translate(1690.177734 0)"/>
     <use xlink:href="#DejaVuSans-6c" transform="translate(1753.654297 0)"/>
     <use xlink:href="#DejaVuSans-65" transform="translate(1781.4375 0)"/>
     <use xlink:href="#DejaVuSans-3d" transform="translate(1842.960938 0)"/>
     <use xlink:href="#DejaVuSans-34" transform="translate(1926.75 0)"/>
     <use xlink:href="#DejaVuSans-38" transform="translate(1990.373047 0)"/>
     <use xlink:href="#DejaVuSans-30" transform="translate(2053.996094 0)"/>
     <use xlink:href="#DejaVuSans-20" transform="translate(2117.619141 0)"/>
     <use xlink:href="#DejaVuSans-28" transform="translate(2149.40625 0)"/>
     <use xlink:href="#DejaVuSans-31" transform="translate(2188.419922 0)"/>
     <use xlink:href="#DejaVuSans-32" transform="translate(2252.042969 0)"/>
     <use xlink:href="#DejaVuSans-30" transform="translate(2315.666016 0)"/>
     <use xlink:href="#DejaVuSans-2e" transform="translate(2379.289062 0)"/>
     <use xlink:href="#DejaVuSans-30" transform="translate(2411.076172 0)"/>
     <use xlink:href="#DejaVuSans-73" transform="translate(2474.699219 0)"/>
     <use xlink:href="#DejaVuSans-29" transform="translate(2526.798828 0)"/>
    </g>
    <!-- Remove: Total=1.04%, Thr=0.00%, Med=1.04%, Vel=0.00%, Temp=0.00% -->
    <g transform="translate(265.7125 42.14925) scale(0.1 -0.1)">
     <defs>
      <path id="DejaVuSans-52" d="M 2841 2188 
Q 3044 2119 3236 1894 
Q 3428 1669 3622 1275 
L 4263 0 
L 3584 0 
L 2988 1197 
Q 2756 1666 2539 1819 
Q 2322 1972 1947 1972 
L 1259 1972 
L 1259 0 
L 628 0 
L 628 4666 
L 2053 4666 
Q 2853 4666 3247 4331 
Q 3641 3997 3641 3322 
Q 3641 2881 3436 2590 
Q 3231 2300 2841 2188 
z
M 1259 4147 
L 1259 2491 
L 2053 2491 
Q 2509 2491 2742 2702 
Q 2975 2913 2975 3322 
Q 2975 3731 2742 3939 
Q 2509 4147 2053 4147 
L 1259 4147 
z
" transform="scale(0.015625)"/>
      <path id="DejaVuSans-76" d="M 191 3500 
L 800 3500 
L 1894 563 
L 2988 3500 
L 3597 3500 
L 2284 0 
L 1503 0 
L 191 3500 
z
" transform="scale(0.015625)"/>
      <path id="DejaVuSans-25" d="M 4653 2053 
Q 4381 2053 4226 1822 
Q 4072 1591 4072 1178 
Q 4072 772 4226 539 
Q 4381 306 4653 306 
Q 4919 306 5073 539 
Q 5228 772 5228 1178 
Q 5228 1588 5073 1820 
Q 4919 2053 4653 2053 
z
M 4653 2450 
Q 5147 2450 5437 2106 
Q 5728 1763 5728 1178 
Q 5728 594 5436 251 
Q 5144 -91 4653 -91 
Q 4153 -91 3862 251 
Q 3572 594 3572 1178 
Q 3572 1766 3864 2108 
Q 4156 2450 4653 2450 
z
M 1428 4353 
Q 1159 4353 1004 4120 
Q 850 3888 850 3481 
Q 850 3069 1003 2837 
Q 1156 2606 1428 2606 
Q 1700 2606 1854 2837 
Q 2009 3069 2009 3481 
Q 2009 3884 1853 4118 
Q 1697 4353 1428 4353 
z
M 4250 4750 
L 4750 4750 
L 1831 -91 
L 1331 -91 
L 4250 4750 
z
M 1428 4750 
Q 1922 4750 2215 4408 
Q 2509 4066 2509 3481 
Q 2509 2891 2217 2550 
Q 1925 2209 1428 2209 
Q 931 2209 642 2551 
Q 353 2894 353 3481 
Q 353 4063 643 4406 
Q 934 4750 1428 4750 
z
" transform="scale(0.015625)"/>
      <path id="DejaVuSans-4d" d="M 628 4666 
L 1569 4666 
L 2759 1491 
L 3956 4666 
L 4897 4666 
L 4897 0 
L 4281 0 
L 4281 4097 
L 3078 897 
L 2444 897 
L 1241 4097 
L 1241 0 
L 628 0 
L 628 4666 
z
" transform="scale(0.015625)"/>
      <path id="DejaVuSans-56" d="M 1831 0 
L 50 4666 
L 709 4666 
L 2188 738 
L 3669 4666 
L 4325 4666 
L 2547 0 
L 1831 0 
z
" transform="scale(0.015625)"/>
     </defs>
     <use xlink:href="#DejaVuSans-52"/>
     <use xlink:href="#DejaVuSans-65" transform="translate(64.982422 0)"/>
     <use xlink:href="#DejaVuSans-6d" transform="translate(126.505859 0)"/>
     <use xlink:href="#DejaVuSans-6f" transform="translate(223.917969 0)"/>
     <use xlink:href="#DejaVuSans-76" transform="translate(285.099609 0)"/>
     <use xlink:href="#DejaVuSans-65" transform="translate(344.279297 0)"/>
     <use xlink:href="#DejaVuSans-3a" transform="translate(405.802734 0)"/>
     <use xlink:href="#DejaVuSans-20" transform="translate(439.494141 0)"/>
     <use xlink:href="#DejaVuSans-54" transform="translate(471.28125 0)"/>
     <use xlink:href="#DejaVuSans-6f" transform="translate(515.365234 0)"/>
     <use xlink:href="#DejaVuSans-74" transform="translate(576.546875 0)"/>
     <use xlink:href="#DejaVuSans-61" transform="translate(615.755859 0)"/>
     <use xlink:href="#DejaVuSans-6c" transform="translate(677.035156 0)"/>
     <use xlink:href="#DejaVuSans-3d" transform="translate(704.818359 0)"/>
     <use xlink:href="#DejaVuSans-31" transform="translate(788.607422 0)"/>
     <use xlink:href="#DejaVuSans-2e" transform="translate(852.230469 0)"/>
     <use xlink:href="#DejaVuSans-30" transform="translate(884.017578 0)"/>
     <use xlink:href="#DejaVuSans-34" transform="translate(947.640625 0)"/>
     <use xlink:href="#DejaVuSans-25" transform="translate(1011.263672 0)"/>
     <use xlink:href="#DejaVuSans-2c" transform="translate(1106.283203 0)"/>
     <use xlink:href="#DejaVuSans-20" transform="translate(1138.070312 0)"/>
     <use xlink:href="#DejaVuSans-54" transform="translate(1169.857422 0)"/>
     <use xlink:href="#DejaVuSans-68" transform="translate(1230.941406 0)"/>
     <use xlink:href="#DejaVuSans-72" transform="translate(1294.320312 0)"/>
     <use xlink:href="#DejaVuSans-3d" transform="translate(1335.433594 0)"/>
     <use xlink:href="#DejaVuSans-30" transform="translate(1419.222656 0)"/>
     <use xlink:href="#DejaVuSans-2e" transform="translate(1482.845703 0)"/>
     <use xlink:href="#DejaVuSans-30" transform="translate(1514.632812 0)"/>
     <use xlink:href="#DejaVuSans-30" transform="translate(1578.255859 0)"/>
     <use xlink:href="#DejaVuSans-25" transform="translate(1641.878906 0)"/>
     <use xlink:href="#DejaVuSans-2c" transform="translate(1736.898438 0)"/>
     <use xlink:href="#DejaVuSans-20" transform="translate(1768.685547 0)"/>
     <use xlink:href="#DejaVuSans-4d" transform="translate(1800.472656 0)"/>
     <use xlink:href="#DejaVuSans-65" transform="translate(1886.751953 0)"/>
     <use xlink:href="#DejaVuSans-64" transform="translate(1948.275391 0)"/>
     <use xlink:href="#DejaVuSans-3d" transform="translate(2011.751953 0)"/>
     <use xlink:href="#DejaVuSans-31" transform="translate(2095.541016 0)"/>
     <use xlink:href="#DejaVuSans-2e" transform="translate(2159.164062 0)"/>
     <use xlink:href="#DejaVuSans-30" transform="translate(2190.951172 0)"/>
     <use xlink:href="#DejaVuSans-34" transform="translate(2254.574219 0)"/>
     <use xlink:href="#DejaVuSans-25" transform="translate(2318.197266 0)"/>
     <use xlink:href="#DejaVuSans-2c" transform="translate(2413.216797 0)"/>
     <use xlink:href="#DejaVuSans-20" transform="translate(2445.003906 0)"/>
     <use xlink:href="#DejaVuSans-56" transform="translate(2476.791016 0)"/>
     <use xlink:href="#DejaVuSans-65" transform="translate(2537.449219 0)"/>
     <use xlink:href="#DejaVuSans-6c" transform="translate(2598.972656 0)"/>
     <use xlink:href="#DejaVuSans-3d" transform="translate(2626.755859 0)"/>
     <use xlink:href="#DejaVuSans-30" transform="translate(2710.544922 0)"/>
     <use xlink:href="#DejaVuSans-2e" transform="translate(2774.167969 0)"/>
     <use xlink:href="#DejaVuSans-30" transform="translate(2805.955078 0)"/>
     <use xlink:href="#DejaVuSans-30" transform="translate(2869.578125 0)"/>
     <use xlink:href="#DejaVuSans-25" transform="translate(2933.201172 0)"/>
     <use xlink:href="#DejaVuSans-2c" transform="translate(3028.220703 0)"/>
     <use xlink:href="#DejaVuSans-20" transform="translate(3060.007812 0)"/>
     <use xlink:href="#DejaVuSans-54" transform="translate(3091.794922 0)"/>
     <use xlink:href="#DejaVuSans-65" transform="translate(3135.878906 0)"/>
     <use xlink:href="#DejaVuSans-6d" transform="translate(3197.402344 0)"/>
     <use xlink:href="#DejaVuSans-70" transform="translate(3294.814453 0)"/>
     <use xlink:href="#DejaVuSans-3d" transform="translate(3358.291016 0)"/>
     <use xlink:href="#DejaVuSans-30" transform="translate(3442.080078 0)"/>
     <use xlink:href="#DejaVuSans-2e" transform="translate(3505.703125 0)"/>
     <use xlink:href="#DejaVuSans-30" transform="translate(3537.490234 0)"/>
     <use xlink:href="#DejaVuSans-30" transform="translate(3601.113281 0)"/>
     <use xlink:href="#DejaVuSans-25" transform="translate(3664.736328 0)"/>
    </g>
   </g>
   <g id="legend_1">
    <g id="patch_7">
     <path d="M 767.26875 85.5055 
L 846.2 85.5055 
Q 848.2 85.5055 848.2 83.5055 
L 848.2 55.14925 
Q 848.2 53.14925 846.2 53.14925 
L 767.26875 53.14925 
Q 765.26875 53.14925 765.26875 55.14925 
L 765.26875 83.5055 
Q 765.26875 85.5055 767.26875 85.5055 
z
" style="fill: #ffffff; opacity: 0.8; stroke: #cccccc; stroke-linejoin: miter"/>
    </g>
    <g id="line2d_53">
     <path d="M 769.26875 61.247687 
L 779.26875 61.247687 
L 789.26875 61.247687 
" style="fill: none; stroke: #0000ff; stroke-width: 0.5; stroke-linecap: square"/>
    </g>
    <g id="text_22">
     <!-- Kept -->
     <g transform="translate(797.26875 64.747687) scale(0.1 -0.1)">
      <defs>
       <path id="DejaVuSans-4b" d="M 628 4666 
L 1259 4666 
L 1259 2694 
L 3353 4666 
L 4166 4666 
L 1850 2491 
L 4331 0 
L 3500 0 
L 1259 2247 
L 1259 0 
L 628 0 
L 628 4666 
z
" transform="scale(0.015625)"/>
      </defs>
      <use xlink:href="#DejaVuSans-4b"/>
      <use xlink:href="#DejaVuSans-65" transform="translate(60.576172 0)"/>
      <use xlink:href="#DejaVuSans-70" transform="translate(122.099609 0)"/>
      <use xlink:href="#DejaVuSans-74" transform="translate(185.576172 0)"/>
     </g>
    </g>
    <g id="line2d_54">
     <path d="M 769.26875 75.925812 
L 779.26875 75.925812 
L 789.26875 75.925812 
" style="fill: none; stroke: #ff0000; stroke-width: 0.5; stroke-linecap: square"/>
    </g>
    <g id="text_23">
     <!-- Removed -->
     <g transform="translate(797.26875 79.425812) scale(0.1 -0.1)">
      <use xlink:href="#DejaVuSans-52"/>
      <use xlink:href="#DejaVuSans-65" transform="translate(64.982422 0)"/>
      <use xlink:href="#DejaVuSans-6d" transform="translate(126.505859 0)"/>
      <use xlink:href="#DejaVuSans-6f" transform="translate(223.917969 0)"/>
      <use xlink:href="#DejaVuSans-76" transform="translate(285.099609 0)"/>
      <use xlink:href="#DejaVuSans-65" transform="translate(344.279297 0)"/>
      <use xlink:href="#DejaVuSans-64" transform="translate(405.802734 0)"/>
     </g>
    </g>
   </g>
  </g>
 </g>
 <defs>
  <clipPath id="p63126a0e4b">
   <rect x="54.2" y="48.14925" width="799" height="485.89075"/>
  </clipPath>
 </defs>
</svg>
