<?xml version="1.0" encoding="utf-8" standalone="no"?>
<!DOCTYPE svg PUBLIC "-//W3C//DTD SVG 1.1//EN"
  "http://www.w3.org/Graphics/SVG/1.1/DTD/svg11.dtd">
<svg xmlns:xlink="http://www.w3.org/1999/xlink" width="460.8pt" height="345.6pt" viewBox="0 0 460.8 345.6" xmlns="http://www.w3.org/2000/svg" version="1.1">
 <metadata>
  <rdf:RDF xmlns:dc="http://purl.org/dc/elements/1.1/" xmlns:cc="http://creativecommons.org/ns#" xmlns:rdf="http://www.w3.org/1999/02/22-rdf-syntax-ns#">
   <cc:Work>
    <dc:type rdf:resource="http://purl.org/dc/dcmitype/StillImage"/>
    <dc:date>2025-09-22T14:19:02.938776</dc:date>
    <dc:format>image/svg+xml</dc:format>
    <dc:creator>
     <cc:Agent>
      <dc:title>Matplotlib v3.10.0, https://matplotlib.org/</dc:title>
     </cc:Agent>
    </dc:creator>
   </cc:Work>
  </rdf:RDF>
 </metadata>
 <defs>
  <style type="text/css">*{stroke-linejoin: round; stroke-linecap: butt}</style>
 </defs>
 <g id="figure_1">
  <g id="patch_1">
   <path d="M 0 345.6 
L 460.8 345.6 
L 460.8 0 
L 0 0 
z
" style="fill: #ffffff"/>
  </g>
  <g id="axes_1">
   <g id="patch_2">
    <path d="M 47.81 303.64 
L 450 303.64 
L 450 25.44 
L 47.81 25.44 
z
" style="fill: #ffffff"/>
   </g>
   <g id="matplotlib.axis_1">
    <g id="xtick_1">
     <g id="line2d_1">
      <path d="M 66.091364 303.64 
L 66.091364 25.44 
" clip-path="url(#pcd02522de6)" style="fill: none; stroke: #b0b0b0; stroke-opacity: 0.3; stroke-width: 0.8; stroke-linecap: square"/>
     </g>
     <g id="line2d_2">
      <defs>
       <path id="mdb1d63055e" d="M 0 0 
L 0 3.5 
" style="stroke: #000000; stroke-width: 0.8"/>
      </defs>
      <g>
       <use xlink:href="#mdb1d63055e" x="66.091364" y="303.64" style="stroke: #000000; stroke-width: 0.8"/>
      </g>
     </g>
     <g id="text_1">
      <!-- 0 -->
      <g transform="translate(62.910114 318.238437) scale(0.1 -0.1)">
       <defs>
        <path id="DejaVuSans-30" d="M 2034 4250 
Q 1547 4250 1301 3770 
Q 1056 3291 1056 2328 
Q 1056 1369 1301 889 
Q 1547 409 2034 409 
Q 2525 409 2770 889 
Q 3016 1369 3016 2328 
Q 3016 3291 2770 3770 
Q 2525 4250 2034 4250 
z
M 2034 4750 
Q 2819 4750 3233 4129 
Q 3647 3509 3647 2328 
Q 3647 1150 3233 529 
Q 2819 -91 2034 -91 
Q 1250 -91 836 529 
Q 422 1150 422 2328 
Q 422 3509 836 4129 
Q 1250 4750 2034 4750 
z
" transform="scale(0.015625)"/>
       </defs>
       <use xlink:href="#DejaVuSans-30"/>
      </g>
     </g>
    </g>
    <g id="xtick_2">
     <g id="line2d_3">
      <path d="M 114.841667 303.64 
L 114.841667 25.44 
" clip-path="url(#pcd02522de6)" style="fill: none; stroke: #b0b0b0; stroke-opacity: 0.3; stroke-width: 0.8; stroke-linecap: square"/>
     </g>
     <g id="line2d_4">
      <g>
       <use xlink:href="#mdb1d63055e" x="114.841667" y="303.64" style="stroke: #000000; stroke-width: 0.8"/>
      </g>
     </g>
     <g id="text_2">
      <!-- 2 -->
      <g transform="translate(111.660417 318.238437) scale(0.1 -0.1)">
       <defs>
        <path id="DejaVuSans-32" d="M 1228 531 
L 3431 531 
L 3431 0 
L 469 0 
L 469 531 
Q 828 903 1448 1529 
Q 2069 2156 2228 2338 
Q 2531 2678 2651 2914 
Q 2772 3150 2772 3378 
Q 2772 3750 2511 3984 
Q 2250 4219 1831 4219 
Q 1534 4219 1204 4116 
Q 875 4013 500 3803 
L 500 4441 
Q 881 4594 1212 4672 
Q 1544 4750 1819 4750 
Q 2544 4750 2975 4387 
Q 3406 4025 3406 3419 
Q 3406 3131 3298 2873 
Q 3191 2616 2906 2266 
Q 2828 2175 2409 1742 
Q 1991 1309 1228 531 
z
" transform="scale(0.015625)"/>
       </defs>
       <use xlink:href="#DejaVuSans-32"/>
      </g>
     </g>
    </g>
    <g id="xtick_3">
     <g id="line2d_5">
      <path d="M 163.59197 303.64 
L 163.59197 25.44 
" clip-path="url(#pcd02522de6)" style="fill: none; stroke: #b0b0b0; stroke-opacity: 0.3; stroke-width: 0.8; stroke-linecap: square"/>
     </g>
     <g id="line2d_6">
      <g>
       <use xlink:href="#mdb1d63055e" x="163.59197" y="303.64" style="stroke: #000000; stroke-width: 0.8"/>
      </g>
     </g>
     <g id="text_3">
      <!-- 4 -->
      <g transform="translate(160.41072 318.238437) scale(0.1 -0.1)">
       <defs>
        <path id="DejaVuSans-34" d="M 2419 4116 
L 825 1625 
L 2419 1625 
L 2419 4116 
z
M 2253 4666 
L 3047 4666 
L 3047 1625 
L 3713 1625 
L 3713 1100 
L 3047 1100 
L 3047 0 
L 2419 0 
L 2419 1100 
L 313 1100 
L 313 1709 
L 2253 4666 
z
" transform="scale(0.015625)"/>
       </defs>
       <use xlink:href="#DejaVuSans-34"/>
      </g>
     </g>
    </g>
    <g id="xtick_4">
     <g id="line2d_7">
      <path d="M 212.342273 303.64 
L 212.342273 25.44 
" clip-path="url(#pcd02522de6)" style="fill: none; stroke: #b0b0b0; stroke-opacity: 0.3; stroke-width: 0.8; stroke-linecap: square"/>
     </g>
     <g id="line2d_8">
      <g>
       <use xlink:href="#mdb1d63055e" x="212.342273" y="303.64" style="stroke: #000000; stroke-width: 0.8"/>
      </g>
     </g>
     <g id="text_4">
      <!-- 6 -->
      <g transform="translate(209.161023 318.238437) scale(0.1 -0.1)">
       <defs>
        <path id="DejaVuSans-36" d="M 2113 2584 
Q 1688 2584 1439 2293 
Q 1191 2003 1191 1497 
Q 1191 994 1439 701 
Q 1688 409 2113 409 
Q 2538 409 2786 701 
Q 3034 994 3034 1497 
Q 3034 2003 2786 2293 
Q 2538 2584 2113 2584 
z
M 3366 4563 
L 3366 3988 
Q 3128 4100 2886 4159 
Q 2644 4219 2406 4219 
Q 1781 4219 1451 3797 
Q 1122 3375 1075 2522 
Q 1259 2794 1537 2939 
Q 1816 3084 2150 3084 
Q 2853 3084 3261 2657 
Q 3669 2231 3669 1497 
Q 3669 778 3244 343 
Q 2819 -91 2113 -91 
Q 1303 -91 875 529 
Q 447 1150 447 2328 
Q 447 3434 972 4092 
Q 1497 4750 2381 4750 
Q 2619 4750 2861 4703 
Q 3103 4656 3366 4563 
z
" transform="scale(0.015625)"/>
       </defs>
       <use xlink:href="#DejaVuSans-36"/>
      </g>
     </g>
    </g>
    <g id="xtick_5">
     <g id="line2d_9">
      <path d="M 261.092576 303.64 
L 261.092576 25.44 
" clip-path="url(#pcd02522de6)" style="fill: none; stroke: #b0b0b0; stroke-opacity: 0.3; stroke-width: 0.8; stroke-linecap: square"/>
     </g>
     <g id="line2d_10">
      <g>
       <use xlink:href="#mdb1d63055e" x="261.092576" y="303.64" style="stroke: #000000; stroke-width: 0.8"/>
      </g>
     </g>
     <g id="text_5">
      <!-- 8 -->
      <g transform="translate(257.911326 318.238437) scale(0.1 -0.1)">
       <defs>
        <path id="DejaVuSans-38" d="M 2034 2216 
Q 1584 2216 1326 1975 
Q 1069 1734 1069 1313 
Q 1069 891 1326 650 
Q 1584 409 2034 409 
Q 2484 409 2743 651 
Q 3003 894 3003 1313 
Q 3003 1734 2745 1975 
Q 2488 2216 2034 2216 
z
M 1403 2484 
Q 997 2584 770 2862 
Q 544 3141 544 3541 
Q 544 4100 942 4425 
Q 1341 4750 2034 4750 
Q 2731 4750 3128 4425 
Q 3525 4100 3525 3541 
Q 3525 3141 3298 2862 
Q 3072 2584 2669 2484 
Q 3125 2378 3379 2068 
Q 3634 1759 3634 1313 
Q 3634 634 3220 271 
Q 2806 -91 2034 -91 
Q 1263 -91 848 271 
Q 434 634 434 1313 
Q 434 1759 690 2068 
Q 947 2378 1403 2484 
z
M 1172 3481 
Q 1172 3119 1398 2916 
Q 1625 2713 2034 2713 
Q 2441 2713 2670 2916 
Q 2900 3119 2900 3481 
Q 2900 3844 2670 4047 
Q 2441 4250 2034 4250 
Q 1625 4250 1398 4047 
Q 1172 3844 1172 3481 
z
" transform="scale(0.015625)"/>
       </defs>
       <use xlink:href="#DejaVuSans-38"/>
      </g>
     </g>
    </g>
    <g id="xtick_6">
     <g id="line2d_11">
      <path d="M 309.842879 303.64 
L 309.842879 25.44 
" clip-path="url(#pcd02522de6)" style="fill: none; stroke: #b0b0b0; stroke-opacity: 0.3; stroke-width: 0.8; stroke-linecap: square"/>
     </g>
     <g id="line2d_12">
      <g>
       <use xlink:href="#mdb1d63055e" x="309.842879" y="303.64" style="stroke: #000000; stroke-width: 0.8"/>
      </g>
     </g>
     <g id="text_6">
      <!-- 10 -->
      <g transform="translate(303.480379 318.238437) scale(0.1 -0.1)">
       <defs>
        <path id="DejaVuSans-31" d="M 794 531 
L 1825 531 
L 1825 4091 
L 703 3866 
L 703 4441 
L 1819 4666 
L 2450 4666 
L 2450 531 
L 3481 531 
L 3481 0 
L 794 0 
L 794 531 
z
" transform="scale(0.015625)"/>
       </defs>
       <use xlink:href="#DejaVuSans-31"/>
       <use xlink:href="#DejaVuSans-30" transform="translate(63.623047 0)"/>
      </g>
     </g>
    </g>
    <g id="xtick_7">
     <g id="line2d_13">
      <path d="M 358.593182 303.64 
L 358.593182 25.44 
" clip-path="url(#pcd02522de6)" style="fill: none; stroke: #b0b0b0; stroke-opacity: 0.3; stroke-width: 0.8; stroke-linecap: square"/>
     </g>
     <g id="line2d_14">
      <g>
       <use xlink:href="#mdb1d63055e" x="358.593182" y="303.64" style="stroke: #000000; stroke-width: 0.8"/>
      </g>
     </g>
     <g id="text_7">
      <!-- 12 -->
      <g transform="translate(352.230682 318.238437) scale(0.1 -0.1)">
       <use xlink:href="#DejaVuSans-31"/>
       <use xlink:href="#DejaVuSans-32" transform="translate(63.623047 0)"/>
      </g>
     </g>
    </g>
    <g id="xtick_8">
     <g id="line2d_15">
      <path d="M 407.343485 303.64 
L 407.343485 25.44 
" clip-path="url(#pcd02522de6)" style="fill: none; stroke: #b0b0b0; stroke-opacity: 0.3; stroke-width: 0.8; stroke-linecap: square"/>
     </g>
     <g id="line2d_16">
      <g>
       <use xlink:href="#mdb1d63055e" x="407.343485" y="303.64" style="stroke: #000000; stroke-width: 0.8"/>
      </g>
     </g>
     <g id="text_8">
      <!-- 14 -->
      <g transform="translate(400.980985 318.238437) scale(0.1 -0.1)">
       <use xlink:href="#DejaVuSans-31"/>
       <use xlink:href="#DejaVuSans-34" transform="translate(63.623047 0)"/>
      </g>
     </g>
    </g>
    <g id="text_9">
     <!-- Time (minutes) -->
     <g transform="translate(210.9425 331.916562) scale(0.1 -0.1)">
      <defs>
       <path id="DejaVuSans-54" d="M -19 4666 
L 3928 4666 
L 3928 4134 
L 2272 4134 
L 2272 0 
L 1638 0 
L 1638 4134 
L -19 4134 
L -19 4666 
z
" transform="scale(0.015625)"/>
       <path id="DejaVuSans-69" d="M 603 3500 
L 1178 3500 
L 1178 0 
L 603 0 
L 603 3500 
z
M 603 4863 
L 1178 4863 
L 1178 4134 
L 603 4134 
L 603 4863 
z
" transform="scale(0.015625)"/>
       <path id="DejaVuSans-6d" d="M 3328 2828 
Q 3544 3216 3844 3400 
Q 4144 3584 4550 3584 
Q 5097 3584 5394 3201 
Q 5691 2819 5691 2113 
L 5691 0 
L 5113 0 
L 5113 2094 
Q 5113 2597 4934 2840 
Q 4756 3084 4391 3084 
Q 3944 3084 3684 2787 
Q 3425 2491 3425 1978 
L 3425 0 
L 2847 0 
L 2847 2094 
Q 2847 2600 2669 2842 
Q 2491 3084 2119 3084 
Q 1678 3084 1418 2786 
Q 1159 2488 1159 1978 
L 1159 0 
L 581 0 
L 581 3500 
L 1159 3500 
L 1159 2956 
Q 1356 3278 1631 3431 
Q 1906 3584 2284 3584 
Q 2666 3584 2933 3390 
Q 3200 3197 3328 2828 
z
" transform="scale(0.015625)"/>
       <path id="DejaVuSans-65" d="M 3597 1894 
L 3597 1613 
L 953 1613 
Q 991 1019 1311 708 
Q 1631 397 2203 397 
Q 2534 397 2845 478 
Q 3156 559 3463 722 
L 3463 178 
Q 3153 47 2828 -22 
Q 2503 -91 2169 -91 
Q 1331 -91 842 396 
Q 353 884 353 1716 
Q 353 2575 817 3079 
Q 1281 3584 2069 3584 
Q 2775 3584 3186 3129 
Q 3597 2675 3597 1894 
z
M 3022 2063 
Q 3016 2534 2758 2815 
Q 2500 3097 2075 3097 
Q 1594 3097 1305 2825 
Q 1016 2553 972 2059 
L 3022 2063 
z
" transform="scale(0.015625)"/>
       <path id="DejaVuSans-20" transform="scale(0.015625)"/>
       <path id="DejaVuSans-28" d="M 1984 4856 
Q 1566 4138 1362 3434 
Q 1159 2731 1159 2009 
Q 1159 1288 1364 580 
Q 1569 -128 1984 -844 
L 1484 -844 
Q 1016 -109 783 600 
Q 550 1309 550 2009 
Q 550 2706 781 3412 
Q 1013 4119 1484 4856 
L 1984 4856 
z
" transform="scale(0.015625)"/>
       <path id="DejaVuSans-6e" d="M 3513 2113 
L 3513 0 
L 2938 0 
L 2938 2094 
Q 2938 2591 2744 2837 
Q 2550 3084 2163 3084 
Q 1697 3084 1428 2787 
Q 1159 2491 1159 1978 
L 1159 0 
L 581 0 
L 581 3500 
L 1159 3500 
L 1159 2956 
Q 1366 3272 1645 3428 
Q 1925 3584 2291 3584 
Q 2894 3584 3203 3211 
Q 3513 2838 3513 2113 
z
" transform="scale(0.015625)"/>
       <path id="DejaVuSans-75" d="M 544 1381 
L 544 3500 
L 1119 3500 
L 1119 1403 
Q 1119 906 1312 657 
Q 1506 409 1894 409 
Q 2359 409 2629 706 
Q 2900 1003 2900 1516 
L 2900 3500 
L 3475 3500 
L 3475 0 
L 2900 0 
L 2900 538 
Q 2691 219 2414 64 
Q 2138 -91 1772 -91 
Q 1169 -91 856 284 
Q 544 659 544 1381 
z
M 1991 3584 
L 1991 3584 
z
" transform="scale(0.015625)"/>
       <path id="DejaVuSans-74" d="M 1172 4494 
L 1172 3500 
L 2356 3500 
L 2356 3053 
L 1172 3053 
L 1172 1153 
Q 1172 725 1289 603 
Q 1406 481 1766 481 
L 2356 481 
L 2356 0 
L 1766 0 
Q 1100 0 847 248 
Q 594 497 594 1153 
L 594 3053 
L 172 3053 
L 172 3500 
L 594 3500 
L 594 4494 
L 1172 4494 
z
" transform="scale(0.015625)"/>
       <path id="DejaVuSans-73" d="M 2834 3397 
L 2834 2853 
Q 2591 2978 2328 3040 
Q 2066 3103 1784 3103 
Q 1356 3103 1142 2972 
Q 928 2841 928 2578 
Q 928 2378 1081 2264 
Q 1234 2150 1697 2047 
L 1894 2003 
Q 2506 1872 2764 1633 
Q 3022 1394 3022 966 
Q 3022 478 2636 193 
Q 2250 -91 1575 -91 
Q 1294 -91 989 -36 
Q 684 19 347 128 
L 347 722 
Q 666 556 975 473 
Q 1284 391 1588 391 
Q 1994 391 2212 530 
Q 2431 669 2431 922 
Q 2431 1156 2273 1281 
Q 2116 1406 1581 1522 
L 1381 1569 
Q 847 1681 609 1914 
Q 372 2147 372 2553 
Q 372 3047 722 3315 
Q 1072 3584 1716 3584 
Q 2034 3584 2315 3537 
Q 2597 3491 2834 3397 
z
" transform="scale(0.015625)"/>
       <path id="DejaVuSans-29" d="M 513 4856 
L 1013 4856 
Q 1481 4119 1714 3412 
Q 1947 2706 1947 2009 
Q 1947 1309 1714 600 
Q 1481 -109 1013 -844 
L 513 -844 
Q 928 -128 1133 580 
Q 1338 1288 1338 2009 
Q 1338 2731 1133 3434 
Q 928 4138 513 4856 
z
" transform="scale(0.015625)"/>
      </defs>
      <use xlink:href="#DejaVuSans-54"/>
      <use xlink:href="#DejaVuSans-69" transform="translate(57.958984 0)"/>
      <use xlink:href="#DejaVuSans-6d" transform="translate(85.742188 0)"/>
      <use xlink:href="#DejaVuSans-65" transform="translate(183.154297 0)"/>
      <use xlink:href="#DejaVuSans-20" transform="translate(244.677734 0)"/>
      <use xlink:href="#DejaVuSans-28" transform="translate(276.464844 0)"/>
      <use xlink:href="#DejaVuSans-6d" transform="translate(315.478516 0)"/>
      <use xlink:href="#DejaVuSans-69" transform="translate(412.890625 0)"/>
      <use xlink:href="#DejaVuSans-6e" transform="translate(440.673828 0)"/>
      <use xlink:href="#DejaVuSans-75" transform="translate(504.052734 0)"/>
      <use xlink:href="#DejaVuSans-74" transform="translate(567.431641 0)"/>
      <use xlink:href="#DejaVuSans-65" transform="translate(606.640625 0)"/>
      <use xlink:href="#DejaVuSans-73" transform="translate(668.164062 0)"/>
      <use xlink:href="#DejaVuSans-29" transform="translate(720.263672 0)"/>
     </g>
    </g>
   </g>
   <g id="matplotlib.axis_2">
    <g id="ytick_1">
     <g id="line2d_17">
      <path d="M 47.81 290.931944 
L 450 290.931944 
" clip-path="url(#pcd02522de6)" style="fill: none; stroke: #b0b0b0; stroke-opacity: 0.3; stroke-width: 0.8; stroke-linecap: square"/>
     </g>
     <g id="line2d_18">
      <defs>
       <path id="mabb0fff5ee" d="M 0 0 
L -3.5 0 
" style="stroke: #000000; stroke-width: 0.8"/>
      </defs>
      <g>
       <use xlink:href="#mabb0fff5ee" x="47.81" y="290.931944" style="stroke: #000000; stroke-width: 0.8"/>
      </g>
     </g>
     <g id="text_10">
      <!-- 0.0 -->
      <g transform="translate(24.906875 294.731162) scale(0.1 -0.1)">
       <defs>
        <path id="DejaVuSans-2e" d="M 684 794 
L 1344 794 
L 1344 0 
L 684 0 
L 684 794 
z
" transform="scale(0.015625)"/>
       </defs>
       <use xlink:href="#DejaVuSans-30"/>
       <use xlink:href="#DejaVuSans-2e" transform="translate(63.623047 0)"/>
       <use xlink:href="#DejaVuSans-30" transform="translate(95.410156 0)"/>
      </g>
     </g>
    </g>
    <g id="ytick_2">
     <g id="line2d_19">
      <path d="M 47.81 257.966137 
L 450 257.966137 
" clip-path="url(#pcd02522de6)" style="fill: none; stroke: #b0b0b0; stroke-opacity: 0.3; stroke-width: 0.8; stroke-linecap: square"/>
     </g>
     <g id="line2d_20">
      <g>
       <use xlink:href="#mabb0fff5ee" x="47.81" y="257.966137" style="stroke: #000000; stroke-width: 0.8"/>
      </g>
     </g>
     <g id="text_11">
      <!-- 0.5 -->
      <g transform="translate(24.906875 261.765355) scale(0.1 -0.1)">
       <defs>
        <path id="DejaVuSans-35" d="M 691 4666 
L 3169 4666 
L 3169 4134 
L 1269 4134 
L 1269 2991 
Q 1406 3038 1543 3061 
Q 1681 3084 1819 3084 
Q 2600 3084 3056 2656 
Q 3513 2228 3513 1497 
Q 3513 744 3044 326 
Q 2575 -91 1722 -91 
Q 1428 -91 1123 -41 
Q 819 9 494 109 
L 494 744 
Q 775 591 1075 516 
Q 1375 441 1709 441 
Q 2250 441 2565 725 
Q 2881 1009 2881 1497 
Q 2881 1984 2565 2268 
Q 2250 2553 1709 2553 
Q 1456 2553 1204 2497 
Q 953 2441 691 2322 
L 691 4666 
z
" transform="scale(0.015625)"/>
       </defs>
       <use xlink:href="#DejaVuSans-30"/>
       <use xlink:href="#DejaVuSans-2e" transform="translate(63.623047 0)"/>
       <use xlink:href="#DejaVuSans-35" transform="translate(95.410156 0)"/>
      </g>
     </g>
    </g>
    <g id="ytick_3">
     <g id="line2d_21">
      <path d="M 47.81 225.00033 
L 450 225.00033 
" clip-path="url(#pcd02522de6)" style="fill: none; stroke: #b0b0b0; stroke-opacity: 0.3; stroke-width: 0.8; stroke-linecap: square"/>
     </g>
     <g id="line2d_22">
      <g>
       <use xlink:href="#mabb0fff5ee" x="47.81" y="225.00033" style="stroke: #000000; stroke-width: 0.8"/>
      </g>
     </g>
     <g id="text_12">
      <!-- 1.0 -->
      <g transform="translate(24.906875 228.799548) scale(0.1 -0.1)">
       <use xlink:href="#DejaVuSans-31"/>
       <use xlink:href="#DejaVuSans-2e" transform="translate(63.623047 0)"/>
       <use xlink:href="#DejaVuSans-30" transform="translate(95.410156 0)"/>
      </g>
     </g>
    </g>
    <g id="ytick_4">
     <g id="line2d_23">
      <path d="M 47.81 192.034523 
L 450 192.034523 
" clip-path="url(#pcd02522de6)" style="fill: none; stroke: #b0b0b0; stroke-opacity: 0.3; stroke-width: 0.8; stroke-linecap: square"/>
     </g>
     <g id="line2d_24">
      <g>
       <use xlink:href="#mabb0fff5ee" x="47.81" y="192.034523" style="stroke: #000000; stroke-width: 0.8"/>
      </g>
     </g>
     <g id="text_13">
      <!-- 1.5 -->
      <g transform="translate(24.906875 195.833741) scale(0.1 -0.1)">
       <use xlink:href="#DejaVuSans-31"/>
       <use xlink:href="#DejaVuSans-2e" transform="translate(63.623047 0)"/>
       <use xlink:href="#DejaVuSans-35" transform="translate(95.410156 0)"/>
      </g>
     </g>
    </g>
    <g id="ytick_5">
     <g id="line2d_25">
      <path d="M 47.81 159.068716 
L 450 159.068716 
" clip-path="url(#pcd02522de6)" style="fill: none; stroke: #b0b0b0; stroke-opacity: 0.3; stroke-width: 0.8; stroke-linecap: square"/>
     </g>
     <g id="line2d_26">
      <g>
       <use xlink:href="#mabb0fff5ee" x="47.81" y="159.068716" style="stroke: #000000; stroke-width: 0.8"/>
      </g>
     </g>
     <g id="text_14">
      <!-- 2.0 -->
      <g transform="translate(24.906875 162.867934) scale(0.1 -0.1)">
       <use xlink:href="#DejaVuSans-32"/>
       <use xlink:href="#DejaVuSans-2e" transform="translate(63.623047 0)"/>
       <use xlink:href="#DejaVuSans-30" transform="translate(95.410156 0)"/>
      </g>
     </g>
    </g>
    <g id="ytick_6">
     <g id="line2d_27">
      <path d="M 47.81 126.102909 
L 450 126.102909 
" clip-path="url(#pcd02522de6)" style="fill: none; stroke: #b0b0b0; stroke-opacity: 0.3; stroke-width: 0.8; stroke-linecap: square"/>
     </g>
     <g id="line2d_28">
      <g>
       <use xlink:href="#mabb0fff5ee" x="47.81" y="126.102909" style="stroke: #000000; stroke-width: 0.8"/>
      </g>
     </g>
     <g id="text_15">
      <!-- 2.5 -->
      <g transform="translate(24.906875 129.902127) scale(0.1 -0.1)">
       <use xlink:href="#DejaVuSans-32"/>
       <use xlink:href="#DejaVuSans-2e" transform="translate(63.623047 0)"/>
       <use xlink:href="#DejaVuSans-35" transform="translate(95.410156 0)"/>
      </g>
     </g>
    </g>
    <g id="ytick_7">
     <g id="line2d_29">
      <path d="M 47.81 93.137102 
L 450 93.137102 
" clip-path="url(#pcd02522de6)" style="fill: none; stroke: #b0b0b0; stroke-opacity: 0.3; stroke-width: 0.8; stroke-linecap: square"/>
     </g>
     <g id="line2d_30">
      <g>
       <use xlink:href="#mabb0fff5ee" x="47.81" y="93.137102" style="stroke: #000000; stroke-width: 0.8"/>
      </g>
     </g>
     <g id="text_16">
      <!-- 3.0 -->
      <g transform="translate(24.906875 96.93632) scale(0.1 -0.1)">
       <defs>
        <path id="DejaVuSans-33" d="M 2597 2516 
Q 3050 2419 3304 2112 
Q 3559 1806 3559 1356 
Q 3559 666 3084 287 
Q 2609 -91 1734 -91 
Q 1441 -91 1130 -33 
Q 819 25 488 141 
L 488 750 
Q 750 597 1062 519 
Q 1375 441 1716 441 
Q 2309 441 2620 675 
Q 2931 909 2931 1356 
Q 2931 1769 2642 2001 
Q 2353 2234 1838 2234 
L 1294 2234 
L 1294 2753 
L 1863 2753 
Q 2328 2753 2575 2939 
Q 2822 3125 2822 3475 
Q 2822 3834 2567 4026 
Q 2313 4219 1838 4219 
Q 1578 4219 1281 4162 
Q 984 4106 628 3988 
L 628 4550 
Q 988 4650 1302 4700 
Q 1616 4750 1894 4750 
Q 2613 4750 3031 4423 
Q 3450 4097 3450 3541 
Q 3450 3153 3228 2886 
Q 3006 2619 2597 2516 
z
" transform="scale(0.015625)"/>
       </defs>
       <use xlink:href="#DejaVuSans-33"/>
       <use xlink:href="#DejaVuSans-2e" transform="translate(63.623047 0)"/>
       <use xlink:href="#DejaVuSans-30" transform="translate(95.410156 0)"/>
      </g>
     </g>
    </g>
    <g id="ytick_8">
     <g id="line2d_31">
      <path d="M 47.81 60.171295 
L 450 60.171295 
" clip-path="url(#pcd02522de6)" style="fill: none; stroke: #b0b0b0; stroke-opacity: 0.3; stroke-width: 0.8; stroke-linecap: square"/>
     </g>
     <g id="line2d_32">
      <g>
       <use xlink:href="#mabb0fff5ee" x="47.81" y="60.171295" style="stroke: #000000; stroke-width: 0.8"/>
      </g>
     </g>
     <g id="text_17">
      <!-- 3.5 -->
      <g transform="translate(24.906875 63.970513) scale(0.1 -0.1)">
       <use xlink:href="#DejaVuSans-33"/>
       <use xlink:href="#DejaVuSans-2e" transform="translate(63.623047 0)"/>
       <use xlink:href="#DejaVuSans-35" transform="translate(95.410156 0)"/>
      </g>
     </g>
    </g>
    <g id="ytick_9">
     <g id="line2d_33">
      <path d="M 47.81 27.205488 
L 450 27.205488 
" clip-path="url(#pcd02522de6)" style="fill: none; stroke: #b0b0b0; stroke-opacity: 0.3; stroke-width: 0.8; stroke-linecap: square"/>
     </g>
     <g id="line2d_34">
      <g>
       <use xlink:href="#mabb0fff5ee" x="47.81" y="27.205488" style="stroke: #000000; stroke-width: 0.8"/>
      </g>
     </g>
     <g id="text_18">
      <!-- 4.0 -->
      <g transform="translate(24.906875 31.004706) scale(0.1 -0.1)">
       <use xlink:href="#DejaVuSans-34"/>
       <use xlink:href="#DejaVuSans-2e" transform="translate(63.623047 0)"/>
       <use xlink:href="#DejaVuSans-30" transform="translate(95.410156 0)"/>
      </g>
     </g>
    </g>
    <g id="text_19">
     <!-- Gaussian filtered EDA (μS) -->
     <g transform="translate(18.827188 230.613437) rotate(-90) scale(0.1 -0.1)">
      <defs>
       <path id="DejaVuSans-47" d="M 3809 666 
L 3809 1919 
L 2778 1919 
L 2778 2438 
L 4434 2438 
L 4434 434 
Q 4069 175 3628 42 
Q 3188 -91 2688 -91 
Q 1594 -91 976 548 
Q 359 1188 359 2328 
Q 359 3472 976 4111 
Q 1594 4750 2688 4750 
Q 3144 4750 3555 4637 
Q 3966 4525 4313 4306 
L 4313 3634 
Q 3963 3931 3569 4081 
Q 3175 4231 2741 4231 
Q 1884 4231 1454 3753 
Q 1025 3275 1025 2328 
Q 1025 1384 1454 906 
Q 1884 428 2741 428 
Q 3075 428 3337 486 
Q 3600 544 3809 666 
z
" transform="scale(0.015625)"/>
       <path id="DejaVuSans-61" d="M 2194 1759 
Q 1497 1759 1228 1600 
Q 959 1441 959 1056 
Q 959 750 1161 570 
Q 1363 391 1709 391 
Q 2188 391 2477 730 
Q 2766 1069 2766 1631 
L 2766 1759 
L 2194 1759 
z
M 3341 1997 
L 3341 0 
L 2766 0 
L 2766 531 
Q 2569 213 2275 61 
Q 1981 -91 1556 -91 
Q 1019 -91 701 211 
Q 384 513 384 1019 
Q 384 1609 779 1909 
Q 1175 2209 1959 2209 
L 2766 2209 
L 2766 2266 
Q 2766 2663 2505 2880 
Q 2244 3097 1772 3097 
Q 1472 3097 1187 3025 
Q 903 2953 641 2809 
L 641 3341 
Q 956 3463 1253 3523 
Q 1550 3584 1831 3584 
Q 2591 3584 2966 3190 
Q 3341 2797 3341 1997 
z
" transform="scale(0.015625)"/>
       <path id="DejaVuSans-66" d="M 2375 4863 
L 2375 4384 
L 1825 4384 
Q 1516 4384 1395 4259 
Q 1275 4134 1275 3809 
L 1275 3500 
L 2222 3500 
L 2222 3053 
L 1275 3053 
L 1275 0 
L 697 0 
L 697 3053 
L 147 3053 
L 147 3500 
L 697 3500 
L 697 3744 
Q 697 4328 969 4595 
Q 1241 4863 1831 4863 
L 2375 4863 
z
" transform="scale(0.015625)"/>
       <path id="DejaVuSans-6c" d="M 603 4863 
L 1178 4863 
L 1178 0 
L 603 0 
L 603 4863 
z
" transform="scale(0.015625)"/>
       <path id="DejaVuSans-72" d="M 2631 2963 
Q 2534 3019 2420 3045 
Q 2306 3072 2169 3072 
Q 1681 3072 1420 2755 
Q 1159 2438 1159 1844 
L 1159 0 
L 581 0 
L 581 3500 
L 1159 3500 
L 1159 2956 
Q 1341 3275 1631 3429 
Q 1922 3584 2338 3584 
Q 2397 3584 2469 3576 
Q 2541 3569 2628 3553 
L 2631 2963 
z
" transform="scale(0.015625)"/>
       <path id="DejaVuSans-64" d="M 2906 2969 
L 2906 4863 
L 3481 4863 
L 3481 0 
L 2906 0 
L 2906 525 
Q 2725 213 2448 61 
Q 2172 -91 1784 -91 
Q 1150 -91 751 415 
Q 353 922 353 1747 
Q 353 2572 751 3078 
Q 1150 3584 1784 3584 
Q 2172 3584 2448 3432 
Q 2725 3281 2906 2969 
z
M 947 1747 
Q 947 1113 1208 752 
Q 1469 391 1925 391 
Q 2381 391 2643 752 
Q 2906 1113 2906 1747 
Q 2906 2381 2643 2742 
Q 2381 3103 1925 3103 
Q 1469 3103 1208 2742 
Q 947 2381 947 1747 
z
" transform="scale(0.015625)"/>
       <path id="DejaVuSans-45" d="M 628 4666 
L 3578 4666 
L 3578 4134 
L 1259 4134 
L 1259 2753 
L 3481 2753 
L 3481 2222 
L 1259 2222 
L 1259 531 
L 3634 531 
L 3634 0 
L 628 0 
L 628 4666 
z
" transform="scale(0.015625)"/>
       <path id="DejaVuSans-44" d="M 1259 4147 
L 1259 519 
L 2022 519 
Q 2988 519 3436 956 
Q 3884 1394 3884 2338 
Q 3884 3275 3436 3711 
Q 2988 4147 2022 4147 
L 1259 4147 
z
M 628 4666 
L 1925 4666 
Q 3281 4666 3915 4102 
Q 4550 3538 4550 2338 
Q 4550 1131 3912 565 
Q 3275 0 1925 0 
L 628 0 
L 628 4666 
z
" transform="scale(0.015625)"/>
       <path id="DejaVuSans-41" d="M 2188 4044 
L 1331 1722 
L 3047 1722 
L 2188 4044 
z
M 1831 4666 
L 2547 4666 
L 4325 0 
L 3669 0 
L 3244 1197 
L 1141 1197 
L 716 0 
L 50 0 
L 1831 4666 
z
" transform="scale(0.015625)"/>
       <path id="DejaVuSans-3bc" d="M 544 -1331 
L 544 3500 
L 1119 3500 
L 1119 1325 
Q 1119 872 1334 640 
Q 1550 409 1972 409 
Q 2434 409 2667 671 
Q 2900 934 2900 1459 
L 2900 3500 
L 3475 3500 
L 3475 806 
Q 3475 619 3529 530 
Q 3584 441 3700 441 
Q 3728 441 3778 458 
Q 3828 475 3916 513 
L 3916 50 
Q 3788 -22 3673 -56 
Q 3559 -91 3450 -91 
Q 3234 -91 3106 31 
Q 2978 153 2931 403 
Q 2775 156 2548 32 
Q 2322 -91 2016 -91 
Q 1697 -91 1473 31 
Q 1250 153 1119 397 
L 1119 -1331 
L 544 -1331 
z
" transform="scale(0.015625)"/>
       <path id="DejaVuSans-53" d="M 3425 4513 
L 3425 3897 
Q 3066 4069 2747 4153 
Q 2428 4238 2131 4238 
Q 1616 4238 1336 4038 
Q 1056 3838 1056 3469 
Q 1056 3159 1242 3001 
Q 1428 2844 1947 2747 
L 2328 2669 
Q 3034 2534 3370 2195 
Q 3706 1856 3706 1288 
Q 3706 609 3251 259 
Q 2797 -91 1919 -91 
Q 1588 -91 1214 -16 
Q 841 59 441 206 
L 441 856 
Q 825 641 1194 531 
Q 1563 422 1919 422 
Q 2459 422 2753 634 
Q 3047 847 3047 1241 
Q 3047 1584 2836 1778 
Q 2625 1972 2144 2069 
L 1759 2144 
Q 1053 2284 737 2584 
Q 422 2884 422 3419 
Q 422 4038 858 4394 
Q 1294 4750 2059 4750 
Q 2388 4750 2728 4690 
Q 3069 4631 3425 4513 
z
" transform="scale(0.015625)"/>
      </defs>
      <use xlink:href="#DejaVuSans-47"/>
      <use xlink:href="#DejaVuSans-61" transform="translate(77.490234 0)"/>
      <use xlink:href="#DejaVuSans-75" transform="translate(138.769531 0)"/>
      <use xlink:href="#DejaVuSans-73" transform="translate(202.148438 0)"/>
      <use xlink:href="#DejaVuSans-73" transform="translate(254.248047 0)"/>
      <use xlink:href="#DejaVuSans-69" transform="translate(306.347656 0)"/>
      <use xlink:href="#DejaVuSans-61" transform="translate(334.130859 0)"/>
      <use xlink:href="#DejaVuSans-6e" transform="translate(395.410156 0)"/>
      <use xlink:href="#DejaVuSans-20" transform="translate(458.789062 0)"/>
      <use xlink:href="#DejaVuSans-66" transform="translate(490.576172 0)"/>
      <use xlink:href="#DejaVuSans-69" transform="translate(525.78125 0)"/>
      <use xlink:href="#DejaVuSans-6c" transform="translate(553.564453 0)"/>
      <use xlink:href="#DejaVuSans-74" transform="translate(581.347656 0)"/>
      <use xlink:href="#DejaVuSans-65" transform="translate(620.556641 0)"/>
      <use xlink:href="#DejaVuSans-72" transform="translate(682.080078 0)"/>
      <use xlink:href="#DejaVuSans-65" transform="translate(720.943359 0)"/>
      <use xlink:href="#DejaVuSans-64" transform="translate(782.466797 0)"/>
      <use xlink:href="#DejaVuSans-20" transform="translate(845.943359 0)"/>
      <use xlink:href="#DejaVuSans-45" transform="translate(877.730469 0)"/>
      <use xlink:href="#DejaVuSans-44" transform="translate(940.914062 0)"/>
      <use xlink:href="#DejaVuSans-41" transform="translate(1016.166016 0)"/>
      <use xlink:href="#DejaVuSans-20" transform="translate(1084.574219 0)"/>
      <use xlink:href="#DejaVuSans-28" transform="translate(1116.361328 0)"/>
      <use xlink:href="#DejaVuSans-3bc" transform="translate(1155.375 0)"/>
      <use xlink:href="#DejaVuSans-53" transform="translate(1218.998047 0)"/>
      <use xlink:href="#DejaVuSans-29" transform="translate(1282.474609 0)"/>
     </g>
    </g>
   </g>
   <g id="line2d_35">
    <path d="M 66.091364 97.366906 
L 66.802701 98.962099 
L 67.717277 101.667932 
L 72.798256 118.665152 
L 74.932268 126.312038 
L 76.050083 129.38674 
L 77.371138 132.337459 
L 78.692192 134.761506 
L 80.013247 136.741959 
L 81.131062 138.031717 
L 82.147258 138.855444 
L 83.671552 140.040221 
L 84.382889 140.905742 
L 84.992607 141.997692 
L 85.500705 143.344389 
L 86.008803 145.342978 
L 86.516901 148.276703 
L 87.126618 153.311476 
L 87.939575 162.341682 
L 89.362249 178.631968 
L 89.971966 183.387206 
L 90.581684 186.477079 
L 91.191402 188.332059 
L 91.801119 189.480081 
L 92.715695 190.653544 
L 93.731891 191.601058 
L 94.544848 192.060153 
L 95.561044 192.329894 
L 96.57724 192.648987 
L 97.288577 193.105208 
L 99.320968 194.679109 
L 99.625827 194.616364 
L 99.930686 194.36432 
L 100.337164 193.679036 
L 100.845262 192.219991 
L 101.556599 189.232082 
L 102.979274 182.942991 
L 103.588991 181.347642 
L 104.097089 180.659431 
L 104.605187 180.399148 
L 105.519763 180.140003 
L 105.824622 179.787109 
L 106.129481 179.092825 
L 106.43434 177.886918 
L 106.840818 175.135727 
L 107.247296 170.60648 
L 107.755394 161.74536 
L 108.365112 145.876957 
L 109.178068 117.552571 
L 110.499123 71.718875 
L 111.108841 57.720805 
L 111.616938 50.348426 
L 112.125036 46.112723 
L 112.531515 44.271297 
L 112.937993 43.248749 
L 113.446091 42.556922 
L 114.055809 42.107877 
L 114.563906 41.974321 
L 114.970385 42.071846 
L 115.478483 42.468166 
L 117.002777 44.001913 
L 117.409255 44.049968 
L 117.917353 43.87389 
L 118.831929 43.512443 
L 119.238407 43.577076 
L 119.746505 43.930088 
L 120.457842 44.808911 
L 121.575658 46.619154 
L 122.388615 48.337509 
L 123.404811 51.1396 
L 124.319387 53.48526 
L 124.827485 54.270956 
L 125.233963 54.54305 
L 125.640441 54.517713 
L 126.148539 54.169732 
L 128.38417 52.144827 
L 129.501986 51.403501 
L 130.213323 50.602419 
L 131.839236 48.53087 
L 132.245715 48.350437 
L 132.652193 48.400752 
L 133.058671 48.669511 
L 133.668389 49.38147 
L 134.887824 51.272748 
L 136.412118 53.979304 
L 137.936411 56.752062 
L 138.546129 57.420627 
L 139.054227 57.6323 
L 139.460705 57.574654 
L 140.070423 57.215383 
L 140.984999 56.623756 
L 141.391477 56.570904 
L 141.797956 56.73048 
L 142.306054 57.235089 
L 143.017391 58.358108 
L 144.440065 60.70549 
L 145.354641 61.74461 
L 146.269217 62.798261 
L 146.878935 63.894573 
L 147.488653 65.562676 
L 148.19999 68.307786 
L 150.334001 77.300301 
L 150.740479 77.987916 
L 151.045338 78.123328 
L 151.350197 77.940151 
L 151.756675 77.27471 
L 152.468012 75.474218 
L 153.179349 73.855505 
L 153.687447 73.240991 
L 154.093926 73.079429 
L 155.313361 72.875283 
L 155.719839 72.3665 
L 156.227937 71.234691 
L 157.040894 68.625067 
L 157.85385 66.154173 
L 158.260329 65.406075 
L 158.565187 65.16231 
L 158.870046 65.215524 
L 159.174905 65.559265 
L 159.581383 66.404601 
L 161.308916 70.676461 
L 161.613775 70.854307 
L 161.918634 70.787984 
L 162.325112 70.388016 
L 163.138069 69.068415 
L 163.951026 67.925734 
L 164.560743 67.468857 
L 165.170461 67.324376 
L 165.881798 67.427193 
L 166.694754 67.779489 
L 167.71095 68.478588 
L 168.727146 69.433747 
L 169.540103 70.508101 
L 170.14982 71.667423 
L 170.861157 73.506072 
L 172.487071 78.002735 
L 172.893549 78.573847 
L 173.198408 78.753861 
L 173.503267 78.715244 
L 173.808125 78.466882 
L 174.214604 77.839932 
L 174.824321 76.368589 
L 175.535658 74.023267 
L 176.551854 69.841989 
L 178.076148 63.499077 
L 178.787485 61.496044 
L 179.498822 60.202581 
L 180.921497 57.902193 
L 182.750649 54.391308 
L 183.157127 54.083121 
L 183.563606 54.04712 
L 183.970084 54.24961 
L 184.579802 54.841891 
L 186.002476 56.30771 
L 187.120291 57.405945 
L 188.034868 58.778983 
L 188.644585 59.564771 
L 188.949444 59.717776 
L 189.254303 59.618353 
L 189.559161 59.219933 
L 189.96564 58.198493 
L 190.473738 56.217325 
L 191.591553 50.536676 
L 192.506129 46.452937 
L 193.217467 44.214841 
L 193.928804 42.654313 
L 194.74176 41.392457 
L 195.554717 40.524068 
L 196.672532 39.720145 
L 197.891968 38.736341 
L 198.704924 38.167066 
L 199.213022 38.095119 
L 199.6195 38.259869 
L 200.127598 38.71174 
L 201.448653 40.038156 
L 201.956751 40.163135 
L 202.464849 40.030343 
L 203.989143 39.424536 
L 204.497241 39.542558 
L 205.106958 39.960731 
L 205.818295 40.747741 
L 206.936111 42.372813 
L 209.67984 46.521013 
L 210.797655 47.742697 
L 214.659199 51.497675 
L 216.99645 54.520846 
L 218.317504 56.139472 
L 219.130461 56.786559 
L 219.943418 57.111608 
L 222.483907 57.833926 
L 225.227636 59.154587 
L 226.345452 59.947331 
L 227.564887 61.126193 
L 229.394039 62.891636 
L 230.715094 63.78106 
L 232.950725 65.269521 
L 235.694454 67.124404 
L 237.523606 68.094113 
L 238.743041 68.503429 
L 242.299727 69.39345 
L 243.824021 70.266543 
L 245.348314 71.370765 
L 246.770989 72.390437 
L 247.482326 72.598019 
L 248.396902 72.569345 
L 249.209859 72.625421 
L 249.819576 72.915794 
L 250.530913 73.53954 
L 254.494077 77.59088 
L 256.424849 79.015474 
L 257.949143 79.889811 
L 258.863719 80.189641 
L 259.676676 80.237393 
L 260.591252 80.060322 
L 262.318785 79.654336 
L 263.131742 79.741749 
L 264.351177 80.156857 
L 267.501384 81.42025 
L 270.549972 83.279365 
L 272.074266 84.111271 
L 274.005038 85.527882 
L 275.427712 86.414805 
L 281.423268 89.426246 
L 283.049181 89.812514 
L 284.166997 90.203113 
L 286.910725 91.337269 
L 288.435019 91.527308 
L 289.552835 91.760914 
L 290.569031 92.224869 
L 292.194944 93.285653 
L 294.328955 94.610566 
L 296.361347 95.562809 
L 299.511554 96.813582 
L 300.42613 96.932273 
L 301.035848 96.819874 
L 301.645565 96.477084 
L 302.255283 95.832636 
L 302.865001 94.824441 
L 303.576338 93.171021 
L 305.811969 87.445947 
L 306.320066 86.890709 
L 306.726545 86.727277 
L 307.234643 86.792936 
L 308.657317 87.238384 
L 309.063795 87.070423 
L 309.470274 86.673833 
L 309.978372 85.867396 
L 310.892948 83.886707 
L 312.010763 81.59726 
L 314.043155 77.852316 
L 315.36421 74.984916 
L 315.770688 74.602572 
L 316.075547 74.610029 
L 316.380406 74.897223 
L 316.786884 75.706389 
L 317.396601 77.650286 
L 319.022515 83.402682 
L 319.530613 84.374044 
L 319.937091 84.714412 
L 320.24195 84.715373 
L 320.546809 84.513006 
L 320.953287 83.968428 
L 321.563004 82.72986 
L 323.188918 79.224081 
L 323.798635 78.469581 
L 324.408353 78.073421 
L 325.01807 77.94137 
L 325.831027 78.01369 
L 327.050462 78.384375 
L 329.286093 79.128566 
L 329.692571 78.992555 
L 330.09905 78.602783 
L 330.505528 77.884447 
L 331.013626 76.461319 
L 331.623344 74.015481 
L 332.639539 68.793944 
L 334.97679 56.666863 
L 336.704323 48.368447 
L 337.31404 46.505795 
L 337.720519 45.818507 
L 338.126997 45.551723 
L 338.533475 45.599332 
L 339.75291 46.004828 
L 340.159389 45.780376 
L 340.667487 45.17549 
L 341.886922 43.555183 
L 342.2934 43.448188 
L 342.598259 43.591852 
L 343.004737 44.06728 
L 343.614455 45.239316 
L 345.951705 50.295359 
L 346.967901 51.78464 
L 347.882477 52.763983 
L 348.797054 53.4444 
L 349.71163 53.874849 
L 350.626206 54.068717 
L 351.540783 54.029238 
L 352.760218 53.721947 
L 353.674794 53.294041 
L 354.386131 52.723141 
L 355.199088 51.749781 
L 356.825001 49.293294 
L 357.739577 48.100332 
L 358.247675 47.757902 
L 358.552534 47.755315 
L 358.857393 47.950539 
L 359.263871 48.561024 
L 359.771969 49.895668 
L 360.483306 52.605594 
L 362.515698 60.943918 
L 363.531894 64.015125 
L 364.649709 66.697308 
L 365.564285 68.392845 
L 366.478862 69.634161 
L 367.495058 70.616109 
L 368.816112 71.883652 
L 369.629069 73.003805 
L 371.051743 75.464025 
L 372.474417 77.724159 
L 375.421385 81.742031 
L 376.335962 82.618188 
L 377.148918 83.068212 
L 379.28293 83.978657 
L 380.095886 84.703262 
L 381.315321 86.150713 
L 384.973627 90.685232 
L 386.59954 92.239743 
L 389.03841 94.216263 
L 394.729107 98.555031 
L 396.659879 99.532407 
L 402.960293 102.532896 
L 405.094305 103.438044 
L 407.126696 104.072997 
L 409.870425 104.867394 
L 417.187035 107.665369 
L 426.231179 112.145086 
L 428.36519 113.156356 
L 430.600821 114.213929 
L 431.718636 114.575476 
L 431.718636 114.575476 
" clip-path="url(#pcd02522de6)" style="fill: none; stroke-dasharray: 1.85,0.8; stroke-dashoffset: 0; stroke: #1f77b4; stroke-width: 0.5"/>
   </g>
   <g id="line2d_36">
    <path d="M 66.091364 97.046003 
L 67.10756 100.906523 
L 68.326995 104.580572 
L 70.664245 111.372721 
L 72.391778 117.579321 
L 74.42417 124.745742 
L 75.745224 128.550088 
L 77.066279 131.67289 
L 78.387334 134.244301 
L 79.708388 136.355083 
L 80.826204 137.75618 
L 81.8424 138.691162 
L 82.756976 139.244096 
L 83.569933 139.765601 
L 84.07803 140.344343 
L 84.586128 141.273326 
L 85.094226 142.682368 
L 85.602324 144.701283 
L 86.212042 148.111796 
L 86.923379 153.673732 
L 87.939575 163.77191 
L 89.768727 182.209181 
L 90.480064 187.339708 
L 91.089782 190.117754 
L 91.59788 191.435032 
L 92.004358 191.98321 
L 92.410837 192.195506 
L 92.918935 192.14826 
L 94.239989 191.805366 
L 94.646467 192.04436 
L 95.052946 192.571911 
L 95.662663 193.755768 
L 97.593435 197.82601 
L 97.999914 198.205508 
L 98.304773 198.270724 
L 98.609631 198.111471 
L 99.01611 197.52262 
L 99.524208 196.31078 
L 100.540404 193.116308 
L 101.45498 190.536362 
L 101.963078 189.704349 
L 102.267936 189.527989 
L 102.572795 189.650395 
L 102.877654 190.112105 
L 103.385752 191.465242 
L 104.503567 194.736274 
L 104.808426 195.155952 
L 105.011665 195.214462 
L 105.214904 195.057873 
L 105.519763 194.348284 
L 105.824622 192.971133 
L 106.2311 189.906112 
L 106.739198 183.732766 
L 107.348916 172.545218 
L 108.161873 152.715817 
L 111.21046 72.677276 
L 111.921797 61.551827 
L 112.633134 53.791667 
L 113.242852 49.331263 
L 113.852569 46.466114 
L 114.360667 45.004999 
L 114.868765 44.13625 
L 115.376863 43.655058 
L 115.884961 43.481938 
L 116.393059 43.56689 
L 117.002777 43.939091 
L 117.815733 44.752117 
L 122.490234 50.340389 
L 123.60805 52.150373 
L 125.233963 54.827818 
L 125.9453 55.610517 
L 126.453398 55.898379 
L 126.859876 55.922619 
L 127.266355 55.733509 
L 127.774453 55.210318 
L 128.48579 54.083709 
L 131.127899 49.361174 
L 131.635997 48.968615 
L 132.144095 48.832479 
L 132.652193 48.924958 
L 133.26191 49.298548 
L 133.973248 50.035761 
L 134.887824 51.343017 
L 136.412118 54.004888 
L 138.139651 56.907607 
L 139.054227 58.030492 
L 139.765564 58.575859 
L 140.578521 58.897459 
L 142.001195 59.135749 
L 142.915771 59.395102 
L 143.627108 59.823085 
L 144.338445 60.525917 
L 145.049782 61.527261 
L 145.862739 63.064436 
L 146.777315 65.332468 
L 147.691892 68.211251 
L 150.435621 77.466792 
L 151.045338 78.664431 
L 151.451816 79.110953 
L 151.858295 79.236402 
L 152.264773 79.072444 
L 152.772871 78.530747 
L 153.382589 77.505664 
L 154.500404 75.0576 
L 155.719839 72.5076 
L 156.532796 71.336154 
L 157.244133 70.661818 
L 157.95547 70.271535 
L 158.666807 70.12402 
L 159.479764 70.199743 
L 160.49596 70.552216 
L 162.121873 71.120352 
L 162.83321 71.128333 
L 163.442928 70.915505 
L 164.052645 70.446731 
L 165.170461 69.19095 
L 166.085037 68.283396 
L 166.593135 68.013934 
L 166.999613 67.988738 
L 167.406092 68.177478 
L 167.81257 68.621429 
L 168.320668 69.544886 
L 169.032005 71.343452 
L 171.572495 78.258478 
L 172.080593 78.927556 
L 172.487071 79.170231 
L 172.893549 79.174665 
L 173.300028 78.961801 
L 173.808125 78.422055 
L 174.417843 77.426981 
L 175.2308 75.626796 
L 176.348615 72.549777 
L 178.177768 66.746011 
L 180.819877 58.413881 
L 181.836073 55.940285 
L 182.54741 54.742179 
L 183.055508 54.23611 
L 183.461986 54.076335 
L 183.868465 54.159864 
L 184.274943 54.505053 
L 184.783041 55.251082 
L 185.595998 56.900942 
L 187.120291 60.028596 
L 187.628389 60.652287 
L 188.034868 60.868147 
L 188.339726 60.832003 
L 188.746205 60.531366 
L 189.254303 59.795135 
L 189.86402 58.466031 
L 190.676977 56.116115 
L 192.099651 51.138001 
L 193.928804 44.867199 
L 194.944999 42.115706 
L 195.656337 40.718873 
L 196.266054 39.962362 
L 196.774152 39.665652 
L 197.28225 39.616599 
L 197.891968 39.794578 
L 199.009783 40.441038 
L 199.924359 40.878984 
L 200.534077 40.929547 
L 201.245414 40.713262 
L 202.566468 39.968806 
L 203.481045 39.579645 
L 204.090762 39.547545 
L 204.59886 39.731133 
L 205.208578 40.205455 
L 206.021534 41.167018 
L 207.342589 43.173849 
L 208.968502 45.578733 
L 210.391177 47.224688 
L 215.268917 52.496636 
L 218.622363 56.308439 
L 219.841798 57.331561 
L 220.756375 57.831464 
L 221.77257 58.110343 
L 224.41468 58.656068 
L 225.227636 59.119882 
L 226.345452 60.042482 
L 230.003757 63.302416 
L 236.71065 67.806235 
L 237.828465 68.202927 
L 241.791629 69.335038 
L 243.519162 70.345906 
L 246.262891 71.955392 
L 250.327674 74.182808 
L 252.156827 75.509165 
L 253.985979 77.130377 
L 256.119991 79.009447 
L 257.237806 79.691246 
L 258.152382 79.998077 
L 259.270198 80.131965 
L 260.997731 80.067171 
L 263.131742 80.028221 
L 264.554416 80.215663 
L 265.773851 80.593507 
L 267.196526 81.285761 
L 269.635396 82.776937 
L 277.256865 87.415413 
L 279.695735 88.596218 
L 285.183192 90.951079 
L 286.605867 91.231431 
L 289.247976 91.686721 
L 290.365791 92.167076 
L 291.890085 93.115186 
L 294.125716 94.503318 
L 296.259727 95.445448 
L 297.885641 96.275457 
L 299.714793 97.308816 
L 300.42613 97.417534 
L 300.934228 97.295391 
L 301.442326 96.959859 
L 301.950424 96.369568 
L 302.661761 95.113589 
L 303.779577 92.543356 
L 305.202251 89.315347 
L 305.913588 88.180523 
L 306.523306 87.626353 
L 307.133023 87.371492 
L 308.149219 87.250671 
L 308.962176 87.072956 
L 309.571893 86.685527 
L 310.079991 86.089042 
L 310.689709 85.005323 
L 311.807524 82.432961 
L 313.026959 79.740771 
L 313.636677 78.822086 
L 314.144775 78.428785 
L 314.551253 78.397315 
L 314.957731 78.58597 
L 315.465829 79.073673 
L 316.177166 80.094167 
L 318.616036 83.955992 
L 319.327374 84.527141 
L 319.937091 84.748288 
L 320.546809 84.722835 
L 321.156526 84.451886 
L 321.766244 83.936542 
L 322.477581 83.029886 
L 323.697016 80.984046 
L 324.916451 79.055998 
L 325.627788 78.331837 
L 326.135886 78.11616 
L 326.542364 78.167095 
L 327.050462 78.460963 
L 328.981234 79.880426 
L 329.387713 79.830796 
L 329.794191 79.522598 
L 330.200669 78.894781 
L 330.708767 77.58638 
L 331.318485 75.332717 
L 332.233061 70.972608 
L 334.97679 57.127427 
L 335.891366 53.927849 
L 336.907562 51.198525 
L 337.923758 49.10058 
L 339.143193 47.092887 
L 340.057769 45.93304 
L 340.870726 45.253142 
L 341.480443 45.012262 
L 341.988541 45.015923 
L 342.496639 45.227014 
L 343.106357 45.764545 
L 343.919314 46.858584 
L 345.240368 49.119455 
L 346.663042 51.439308 
L 347.577619 52.501619 
L 348.492195 53.232172 
L 349.508391 53.744781 
L 350.727826 54.082714 
L 351.845641 54.197925 
L 352.658598 54.081671 
L 353.369935 53.776373 
L 354.081272 53.22943 
L 354.792609 52.39155 
L 355.910425 50.601263 
L 356.926621 49.08065 
L 357.536338 48.50665 
L 357.942816 48.35432 
L 358.349295 48.436294 
L 358.755773 48.795459 
L 359.263871 49.671351 
L 359.873589 51.252347 
L 360.788165 54.374787 
L 363.328655 63.602215 
L 364.243231 65.901614 
L 365.259427 67.835236 
L 366.377242 69.453054 
L 368.308014 71.749511 
L 370.137167 74.022074 
L 371.356602 75.881599 
L 374.710048 81.333122 
L 375.523005 82.128248 
L 376.437581 82.68707 
L 379.486169 84.199269 
L 380.502365 85.215313 
L 382.026658 87.106815 
L 384.363909 89.976601 
L 386.294681 91.937821 
L 388.530312 93.878976 
L 392.899954 97.292413 
L 394.932346 98.690785 
L 396.45664 99.483959 
L 402.147337 102.158287 
L 404.179728 103.091183 
L 406.415359 103.825755 
L 410.886621 105.267528 
L 415.662742 106.981261 
L 418.101612 108.232053 
L 420.337243 109.287502 
L 422.877732 110.411373 
L 423.995548 111.172723 
L 425.621461 112.638741 
L 427.044135 113.812184 
L 427.958712 114.277271 
L 428.771668 114.416892 
L 429.686245 114.339053 
L 431.312158 113.920116 
L 431.718636 113.817901 
L 431.718636 113.817901 
" clip-path="url(#pcd02522de6)" style="fill: none; stroke: #ff7f0e; stroke-width: 0.5; stroke-linecap: square"/>
   </g>
   <g id="line2d_37">
    <path d="M 66.091364 290.931944 
L 66.294603 290.994545 
L 66.599462 290.125663 
L 67.412418 289.775316 
L 67.920516 289.866964 
L 69.241571 290.667797 
L 70.156147 290.845491 
L 71.172343 290.862212 
L 72.290158 290.558953 
L 73.001496 290.584074 
L 74.42417 290.858825 
L 76.558181 290.926534 
L 84.586128 290.915108 
L 84.992607 290.614772 
L 85.907183 289.590501 
L 86.61852 288.88584 
L 87.024998 288.714384 
L 87.228238 288.719608 
L 87.634716 289.271898 
L 88.346053 290.172232 
L 88.955771 290.567599 
L 89.667108 290.779374 
L 89.870347 290.643254 
L 91.191402 288.858275 
L 91.59788 288.686711 
L 92.004358 288.748903 
L 92.207597 288.854679 
L 93.731891 290.516051 
L 94.443228 290.757742 
L 94.951326 290.765419 
L 95.662663 289.567871 
L 97.085338 286.933752 
L 97.593435 286.511163 
L 97.898294 286.48375 
L 98.203153 286.65351 
L 98.609631 287.131634 
L 99.727447 289.741502 
L 100.235545 290.288335 
L 100.845262 290.627089 
L 101.150121 290.698049 
L 101.35336 290.371391 
L 101.759839 289.268101 
L 102.369556 286.80216 
L 103.284132 281.851533 
L 104.097089 277.903445 
L 104.605187 276.457012 
L 104.910046 276.109376 
L 105.113285 276.121912 
L 105.316524 276.339434 
L 105.621383 277.051213 
L 106.129481 279.138245 
L 106.43434 281.173921 
L 107.145677 286.327133 
L 107.653775 288.42153 
L 108.161873 289.581437 
L 108.365112 289.69785 
L 108.66997 288.394317 
L 109.178068 284.667146 
L 110.295884 275.805255 
L 110.702362 274.336684 
L 110.905601 274.075145 
L 111.108841 274.114559 
L 111.31208 274.450072 
L 111.616938 275.450618 
L 112.125036 278.065878 
L 113.446091 285.310441 
L 114.055809 287.281144 
L 114.665526 288.524448 
L 115.376863 289.8115 
L 115.884961 290.322299 
L 116.494679 290.642575 
L 117.307635 290.801091 
L 117.612494 290.450038 
L 118.52707 288.939555 
L 119.136788 288.160512 
L 119.644886 287.872865 
L 120.152984 287.864296 
L 120.96594 288.147149 
L 121.880517 288.67126 
L 122.490234 289.262692 
L 123.201571 290.153194 
L 123.811289 290.55732 
L 124.624246 290.793545 
L 125.132343 290.801617 
L 125.843681 289.861716 
L 126.859876 288.457539 
L 127.266355 288.217128 
L 127.672833 288.250124 
L 128.180931 288.603862 
L 128.48579 288.982511 
L 129.298747 290.10825 
L 129.908464 290.536342 
L 130.721421 290.785851 
L 131.432758 290.796931 
L 132.347334 290.469936 
L 132.957052 290.472106 
L 134.989443 290.88118 
L 137.733172 290.930113 
L 138.647748 290.883501 
L 139.359086 290.277124 
L 141.086619 288.564792 
L 141.493097 288.502701 
L 141.899575 288.663726 
L 142.306054 289.002649 
L 143.22063 290.187287 
L 143.830347 290.574711 
L 144.643304 290.800054 
L 145.151402 290.820286 
L 145.964359 290.085046 
L 146.980555 289.182966 
L 147.488653 289.016901 
L 147.99675 289.090479 
L 148.301609 289.350155 
L 149.216186 290.331123 
L 149.927523 290.677707 
L 150.740479 290.809754 
L 151.045338 290.43117 
L 151.655056 289.238778 
L 152.569632 287.391871 
L 152.97611 286.987102 
L 153.280969 286.961669 
L 153.687447 287.261491 
L 153.992306 287.922863 
L 154.703643 289.519434 
L 155.211741 290.162441 
L 155.821459 290.566519 
L 156.126317 290.618373 
L 156.532796 289.965516 
L 157.244133 288.24765 
L 158.05709 286.460355 
L 158.463568 286.039873 
L 158.768427 286.015992 
L 159.073285 286.252159 
L 159.581383 287.143936 
L 160.39434 289.297855 
L 160.902438 290.041932 
L 161.512155 290.509357 
L 161.918634 290.65637 
L 162.121873 290.477134 
L 162.83321 289.434881 
L 163.544547 288.546788 
L 163.951026 288.356469 
L 164.357504 288.422471 
L 164.865602 288.780472 
L 165.170461 289.095759 
L 166.085037 290.231268 
L 166.694754 290.596133 
L 167.507711 290.807987 
L 168.015809 290.76866 
L 168.625527 290.039221 
L 170.14982 287.943486 
L 170.556299 287.747577 
L 170.962777 287.816289 
L 171.470875 288.210445 
L 171.877353 288.899088 
L 172.487071 289.885219 
L 173.096788 290.427942 
L 173.808125 290.720969 
L 174.621082 290.849862 
L 174.925941 290.684001 
L 175.535658 290.152914 
L 176.450235 289.0153 
L 177.56805 287.639373 
L 177.974529 287.410361 
L 178.381007 287.435374 
L 178.787485 287.730604 
L 179.295583 288.408408 
L 180.10854 289.851476 
L 180.718257 290.412246 
L 181.429594 290.714453 
L 182.44579 290.869139 
L 184.478182 290.922206 
L 184.88466 290.729539 
L 185.494378 290.140851 
L 187.018672 288.387268 
L 187.42515 288.345984 
L 187.628389 288.389382 
L 188.034868 289.031179 
L 188.644585 289.953005 
L 189.254303 290.460559 
L 189.96564 290.734573 
L 190.270499 290.719144 
L 190.981836 289.57613 
L 191.896412 288.135837 
L 192.30289 287.818194 
L 192.709369 287.760221 
L 193.115847 287.93901 
L 193.725564 288.519961 
L 195.453097 290.467718 
L 196.164435 290.737262 
L 196.977391 290.843332 
L 197.38387 290.520339 
L 198.196826 289.507026 
L 198.908163 288.696966 
L 199.314642 288.472699 
L 199.72112 288.490463 
L 200.229218 288.832715 
L 201.347033 290.272567 
L 201.956751 290.617007 
L 202.769708 290.815799 
L 203.887523 290.869937 
L 205.818295 290.821767 
L 209.67984 290.924767 
L 212.321949 290.842004 
L 213.846243 290.675524 
L 215.472156 290.762402 
L 217.098069 290.906032 
L 219.43532 290.885138 
L 220.959614 290.387065 
L 221.77257 290.398077 
L 224.41468 290.902941 
L 226.447071 290.866264 
L 227.564887 290.889764 
L 231.019953 290.931129 
L 241.48677 290.835179 
L 243.620781 290.699607 
L 244.332119 290.752092 
L 245.856412 290.901042 
L 247.685565 290.90536 
L 249.514718 290.03556 
L 250.124435 290.072912 
L 250.835772 290.347008 
L 251.648729 290.695456 
L 252.664925 290.863234 
L 254.697316 290.92138 
L 257.237806 290.843092 
L 259.270198 290.924235 
L 260.997731 290.842135 
L 262.420405 290.604054 
L 263.131742 290.72644 
L 264.452797 290.888313 
L 267.501384 290.930573 
L 271.159689 290.828961 
L 272.175885 290.832242 
L 274.309897 290.923839 
L 277.155245 290.842547 
L 278.069821 290.855402 
L 280.508691 290.927641 
L 282.337844 290.825888 
L 283.760518 290.562901 
L 284.675094 290.64707 
L 285.89453 290.859788 
L 288.028541 290.926603 
L 297.98726 290.896814 
L 300.222891 290.487759 
L 301.035848 290.587497 
L 302.153663 290.834455 
L 303.881196 290.920003 
L 304.186055 290.870272 
L 305.608729 290.148993 
L 306.320066 290.082432 
L 306.624925 290.149887 
L 307.94598 290.740286 
L 309.063795 290.883015 
L 309.571893 290.827656 
L 310.689709 290.319293 
L 310.994567 290.254602 
L 311.705905 290.55585 
L 312.620481 290.803598 
L 313.636677 290.881873 
L 313.839916 290.670317 
L 314.348014 289.713497 
L 316.177166 285.552651 
L 316.482025 285.420186 
L 316.786884 285.534472 
L 317.193362 286.035199 
L 317.80308 287.264455 
L 318.616036 289.353067 
L 319.124134 290.072181 
L 319.733852 290.523759 
L 320.445189 290.761402 
L 320.648428 290.686791 
L 321.359765 289.848393 
L 322.375961 288.603501 
L 322.884059 288.331881 
L 323.290537 288.347801 
L 323.798635 288.636153 
L 324.408353 289.284978 
L 325.11969 290.16687 
L 325.729407 290.564139 
L 326.542364 290.796082 
L 327.253701 290.812604 
L 328.574756 290.245828 
L 329.286093 290.221379 
L 329.692571 290.363124 
L 330.708767 290.746069 
L 331.928202 290.889963 
L 334.468692 290.916657 
L 334.87517 290.620709 
L 335.383268 289.957554 
L 337.110801 287.255431 
L 337.41566 287.17728 
L 337.720519 287.31113 
L 338.126997 287.743576 
L 339.244813 289.92569 
L 339.85453 290.451245 
L 340.565867 290.730936 
L 340.769106 290.689469 
L 342.2934 289.30431 
L 342.699878 289.280712 
L 343.207976 289.501741 
L 343.716074 289.903728 
L 344.427411 290.459688 
L 345.138749 290.731675 
L 346.256564 290.881026 
L 348.898673 290.929835 
L 351.439163 290.831209 
L 352.861837 290.642048 
L 353.979653 290.762498 
L 355.402327 290.900368 
L 357.333099 290.89354 
L 359.56873 289.851996 
L 359.873589 289.95251 
L 360.991404 290.628773 
L 361.90598 290.832295 
L 362.922176 290.858292 
L 363.633513 290.851456 
L 366.275623 290.928217 
L 367.291818 290.840319 
L 368.816112 290.492456 
L 369.42583 290.635031 
L 370.543645 290.850168 
L 372.271178 290.917621 
L 372.982515 290.68728 
L 373.998711 290.446016 
L 374.710048 290.486108 
L 376.031103 290.826021 
L 377.657016 290.917439 
L 385.176866 290.931751 
L 424.198787 290.841697 
L 425.316602 290.373341 
L 426.942516 289.681291 
L 427.653853 289.603756 
L 428.46681 289.763008 
L 428.873288 290.01826 
L 429.686245 290.555329 
L 430.499201 290.791274 
L 431.718636 290.900499 
L 431.718636 290.900499 
" clip-path="url(#pcd02522de6)" style="fill: none; stroke: #2ca02c; stroke-width: 0.5; stroke-linecap: square"/>
   </g>
   <g id="patch_3">
    <path d="M 47.81 303.64 
L 47.81 25.44 
" style="fill: none; stroke: #000000; stroke-width: 0.8; stroke-linejoin: miter; stroke-linecap: square"/>
   </g>
   <g id="patch_4">
    <path d="M 450 303.64 
L 450 25.44 
" style="fill: none; stroke: #000000; stroke-width: 0.8; stroke-linejoin: miter; stroke-linecap: square"/>
   </g>
   <g id="patch_5">
    <path d="M 47.81 303.64 
L 450 303.64 
" style="fill: none; stroke: #000000; stroke-width: 0.8; stroke-linejoin: miter; stroke-linecap: square"/>
   </g>
   <g id="patch_6">
    <path d="M 47.81 25.44 
L 450 25.44 
" style="fill: none; stroke: #000000; stroke-width: 0.8; stroke-linejoin: miter; stroke-linecap: square"/>
   </g>
   <g id="text_20">
    <!-- data_9_E4 Separated EDA plot -->
    <g transform="translate(157.349688 19.44) scale(0.12 -0.12)">
     <defs>
      <path id="DejaVuSans-5f" d="M 3263 -1063 
L 3263 -1509 
L -63 -1509 
L -63 -1063 
L 3263 -1063 
z
" transform="scale(0.015625)"/>
      <path id="DejaVuSans-39" d="M 703 97 
L 703 672 
Q 941 559 1184 500 
Q 1428 441 1663 441 
Q 2288 441 2617 861 
Q 2947 1281 2994 2138 
Q 2813 1869 2534 1725 
Q 2256 1581 1919 1581 
Q 1219 1581 811 2004 
Q 403 2428 403 3163 
Q 403 3881 828 4315 
Q 1253 4750 1959 4750 
Q 2769 4750 3195 4129 
Q 3622 3509 3622 2328 
Q 3622 1225 3098 567 
Q 2575 -91 1691 -91 
Q 1453 -91 1209 -44 
Q 966 3 703 97 
z
M 1959 2075 
Q 2384 2075 2632 2365 
Q 2881 2656 2881 3163 
Q 2881 3666 2632 3958 
Q 2384 4250 1959 4250 
Q 1534 4250 1286 3958 
Q 1038 3666 1038 3163 
Q 1038 2656 1286 2365 
Q 1534 2075 1959 2075 
z
" transform="scale(0.015625)"/>
      <path id="DejaVuSans-70" d="M 1159 525 
L 1159 -1331 
L 581 -1331 
L 581 3500 
L 1159 3500 
L 1159 2969 
Q 1341 3281 1617 3432 
Q 1894 3584 2278 3584 
Q 2916 3584 3314 3078 
Q 3713 2572 3713 1747 
Q 3713 922 3314 415 
Q 2916 -91 2278 -91 
Q 1894 -91 1617 61 
Q 1341 213 1159 525 
z
M 3116 1747 
Q 3116 2381 2855 2742 
Q 2594 3103 2138 3103 
Q 1681 3103 1420 2742 
Q 1159 2381 1159 1747 
Q 1159 1113 1420 752 
Q 1681 391 2138 391 
Q 2594 391 2855 752 
Q 3116 1113 3116 1747 
z
" transform="scale(0.015625)"/>
      <path id="DejaVuSans-6f" d="M 1959 3097 
Q 1497 3097 1228 2736 
Q 959 2375 959 1747 
Q 959 1119 1226 758 
Q 1494 397 1959 397 
Q 2419 397 2687 759 
Q 2956 1122 2956 1747 
Q 2956 2369 2687 2733 
Q 2419 3097 1959 3097 
z
M 1959 3584 
Q 2709 3584 3137 3096 
Q 3566 2609 3566 1747 
Q 3566 888 3137 398 
Q 2709 -91 1959 -91 
Q 1206 -91 779 398 
Q 353 888 353 1747 
Q 353 2609 779 3096 
Q 1206 3584 1959 3584 
z
" transform="scale(0.015625)"/>
     </defs>
     <use xlink:href="#DejaVuSans-64"/>
     <use xlink:href="#DejaVuSans-61" transform="translate(63.476562 0)"/>
     <use xlink:href="#DejaVuSans-74" transform="translate(124.755859 0)"/>
     <use xlink:href="#DejaVuSans-61" transform="translate(163.964844 0)"/>
     <use xlink:href="#DejaVuSans-5f" transform="translate(225.244141 0)"/>
     <use xlink:href="#DejaVuSans-39" transform="translate(275.244141 0)"/>
     <use xlink:href="#DejaVuSans-5f" transform="translate(338.867188 0)"/>
     <use xlink:href="#DejaVuSans-45" transform="translate(388.867188 0)"/>
     <use xlink:href="#DejaVuSans-34" transform="translate(452.050781 0)"/>
     <use xlink:href="#DejaVuSans-20" transform="translate(515.673828 0)"/>
     <use xlink:href="#DejaVuSans-53" transform="translate(547.460938 0)"/>
     <use xlink:href="#DejaVuSans-65" transform="translate(610.9375 0)"/>
     <use xlink:href="#DejaVuSans-70" transform="translate(672.460938 0)"/>
     <use xlink:href="#DejaVuSans-61" transform="translate(735.9375 0)"/>
     <use xlink:href="#DejaVuSans-72" transform="translate(797.216797 0)"/>
     <use xlink:href="#DejaVuSans-61" transform="translate(838.330078 0)"/>
     <use xlink:href="#DejaVuSans-74" transform="translate(899.609375 0)"/>
     <use xlink:href="#DejaVuSans-65" transform="translate(938.818359 0)"/>
     <use xlink:href="#DejaVuSans-64" transform="translate(1000.341797 0)"/>
     <use xlink:href="#DejaVuSans-20" transform="translate(1063.818359 0)"/>
     <use xlink:href="#DejaVuSans-45" transform="translate(1095.605469 0)"/>
     <use xlink:href="#DejaVuSans-44" transform="translate(1158.789062 0)"/>
     <use xlink:href="#DejaVuSans-41" transform="translate(1234.041016 0)"/>
     <use xlink:href="#DejaVuSans-20" transform="translate(1302.449219 0)"/>
     <use xlink:href="#DejaVuSans-70" transform="translate(1334.236328 0)"/>
     <use xlink:href="#DejaVuSans-6c" transform="translate(1397.712891 0)"/>
     <use xlink:href="#DejaVuSans-6f" transform="translate(1425.496094 0)"/>
     <use xlink:href="#DejaVuSans-74" transform="translate(1486.677734 0)"/>
    </g>
   </g>
   <g id="legend_1">
    <g id="patch_7">
     <path d="M 350.09375 188.057187 
L 443 188.057187 
Q 445 188.057187 445 186.057187 
L 445 143.022812 
Q 445 141.022812 443 141.022812 
L 350.09375 141.022812 
Q 348.09375 141.022812 348.09375 143.022812 
L 348.09375 186.057187 
Q 348.09375 188.057187 350.09375 188.057187 
z
" style="fill: #ffffff; opacity: 0.8; stroke: #cccccc; stroke-linejoin: miter"/>
    </g>
    <g id="line2d_38">
     <path d="M 352.09375 149.12125 
L 362.09375 149.12125 
L 372.09375 149.12125 
" style="fill: none; stroke-dasharray: 1.85,0.8; stroke-dashoffset: 0; stroke: #1f77b4; stroke-width: 0.5"/>
    </g>
    <g id="text_21">
     <!-- Filtered EDA -->
     <g transform="translate(380.09375 152.62125) scale(0.1 -0.1)">
      <defs>
       <path id="DejaVuSans-46" d="M 628 4666 
L 3309 4666 
L 3309 4134 
L 1259 4134 
L 1259 2759 
L 3109 2759 
L 3109 2228 
L 1259 2228 
L 1259 0 
L 628 0 
L 628 4666 
z
" transform="scale(0.015625)"/>
      </defs>
      <use xlink:href="#DejaVuSans-46"/>
      <use xlink:href="#DejaVuSans-69" transform="translate(50.269531 0)"/>
      <use xlink:href="#DejaVuSans-6c" transform="translate(78.052734 0)"/>
      <use xlink:href="#DejaVuSans-74" transform="translate(105.835938 0)"/>
      <use xlink:href="#DejaVuSans-65" transform="translate(145.044922 0)"/>
      <use xlink:href="#DejaVuSans-72" transform="translate(206.568359 0)"/>
      <use xlink:href="#DejaVuSans-65" transform="translate(245.431641 0)"/>
      <use xlink:href="#DejaVuSans-64" transform="translate(306.955078 0)"/>
      <use xlink:href="#DejaVuSans-20" transform="translate(370.431641 0)"/>
      <use xlink:href="#DejaVuSans-45" transform="translate(402.21875 0)"/>
      <use xlink:href="#DejaVuSans-44" transform="translate(465.402344 0)"/>
      <use xlink:href="#DejaVuSans-41" transform="translate(540.654297 0)"/>
     </g>
    </g>
    <g id="line2d_39">
     <path d="M 352.09375 163.799375 
L 362.09375 163.799375 
L 372.09375 163.799375 
" style="fill: none; stroke: #ff7f0e; stroke-width: 0.5; stroke-linecap: square"/>
    </g>
    <g id="text_22">
     <!-- Tonic -->
     <g transform="translate(380.09375 167.299375) scale(0.1 -0.1)">
      <defs>
       <path id="DejaVuSans-63" d="M 3122 3366 
L 3122 2828 
Q 2878 2963 2633 3030 
Q 2388 3097 2138 3097 
Q 1578 3097 1268 2742 
Q 959 2388 959 1747 
Q 959 1106 1268 751 
Q 1578 397 2138 397 
Q 2388 397 2633 464 
Q 2878 531 3122 666 
L 3122 134 
Q 2881 22 2623 -34 
Q 2366 -91 2075 -91 
Q 1284 -91 818 406 
Q 353 903 353 1747 
Q 353 2603 823 3093 
Q 1294 3584 2113 3584 
Q 2378 3584 2631 3529 
Q 2884 3475 3122 3366 
z
" transform="scale(0.015625)"/>
      </defs>
      <use xlink:href="#DejaVuSans-54"/>
      <use xlink:href="#DejaVuSans-6f" transform="translate(44.083984 0)"/>
      <use xlink:href="#DejaVuSans-6e" transform="translate(105.265625 0)"/>
      <use xlink:href="#DejaVuSans-69" transform="translate(168.644531 0)"/>
      <use xlink:href="#DejaVuSans-63" transform="translate(196.427734 0)"/>
     </g>
    </g>
    <g id="line2d_40">
     <path d="M 352.09375 178.4775 
L 362.09375 178.4775 
L 372.09375 178.4775 
" style="fill: none; stroke: #2ca02c; stroke-width: 0.5; stroke-linecap: square"/>
    </g>
    <g id="text_23">
     <!-- Phasic -->
     <g transform="translate(380.09375 181.9775) scale(0.1 -0.1)">
      <defs>
       <path id="DejaVuSans-50" d="M 1259 4147 
L 1259 2394 
L 2053 2394 
Q 2494 2394 2734 2622 
Q 2975 2850 2975 3272 
Q 2975 3691 2734 3919 
Q 2494 4147 2053 4147 
L 1259 4147 
z
M 628 4666 
L 2053 4666 
Q 2838 4666 3239 4311 
Q 3641 3956 3641 3272 
Q 3641 2581 3239 2228 
Q 2838 1875 2053 1875 
L 1259 1875 
L 1259 0 
L 628 0 
L 628 4666 
z
" transform="scale(0.015625)"/>
       <path id="DejaVuSans-68" d="M 3513 2113 
L 3513 0 
L 2938 0 
L 2938 2094 
Q 2938 2591 2744 2837 
Q 2550 3084 2163 3084 
Q 1697 3084 1428 2787 
Q 1159 2491 1159 1978 
L 1159 0 
L 581 0 
L 581 4863 
L 1159 4863 
L 1159 2956 
Q 1366 3272 1645 3428 
Q 1925 3584 2291 3584 
Q 2894 3584 3203 3211 
Q 3513 2838 3513 2113 
z
" transform="scale(0.015625)"/>
      </defs>
      <use xlink:href="#DejaVuSans-50"/>
      <use xlink:href="#DejaVuSans-68" transform="translate(60.302734 0)"/>
      <use xlink:href="#DejaVuSans-61" transform="translate(123.681641 0)"/>
      <use xlink:href="#DejaVuSans-73" transform="translate(184.960938 0)"/>
      <use xlink:href="#DejaVuSans-69" transform="translate(237.060547 0)"/>
      <use xlink:href="#DejaVuSans-63" transform="translate(264.84375 0)"/>
     </g>
    </g>
   </g>
  </g>
 </g>
 <defs>
  <clipPath id="pcd02522de6">
   <rect x="47.81" y="25.44" width="402.19" height="278.2"/>
  </clipPath>
 </defs>
</svg>
