<?xml version="1.0" encoding="utf-8" standalone="no"?>
<!DOCTYPE svg PUBLIC "-//W3C//DTD SVG 1.1//EN"
  "http://www.w3.org/Graphics/SVG/1.1/DTD/svg11.dtd">
<svg xmlns:xlink="http://www.w3.org/1999/xlink" width="460.8pt" height="345.6pt" viewBox="0 0 460.8 345.6" xmlns="http://www.w3.org/2000/svg" version="1.1">
 <metadata>
  <rdf:RDF xmlns:dc="http://purl.org/dc/elements/1.1/" xmlns:cc="http://creativecommons.org/ns#" xmlns:rdf="http://www.w3.org/1999/02/22-rdf-syntax-ns#">
   <cc:Work>
    <dc:type rdf:resource="http://purl.org/dc/dcmitype/StillImage"/>
    <dc:date>2025-09-22T14:19:01.524716</dc:date>
    <dc:format>image/svg+xml</dc:format>
    <dc:creator>
     <cc:Agent>
      <dc:title>Matplotlib v3.10.0, https://matplotlib.org/</dc:title>
     </cc:Agent>
    </dc:creator>
   </cc:Work>
  </rdf:RDF>
 </metadata>
 <defs>
  <style type="text/css">*{stroke-linejoin: round; stroke-linecap: butt}</style>
 </defs>
 <g id="figure_1">
  <g id="patch_1">
   <path d="M 0 345.6 
L 460.8 345.6 
L 460.8 0 
L 0 0 
z
" style="fill: #ffffff"/>
  </g>
  <g id="axes_1">
   <g id="patch_2">
    <path d="M 47.81 303.64 
L 450 303.64 
L 450 25.44 
L 47.81 25.44 
z
" style="fill: #ffffff"/>
   </g>
   <g id="matplotlib.axis_1">
    <g id="xtick_1">
     <g id="line2d_1">
      <path d="M 66.091364 303.64 
L 66.091364 25.44 
" clip-path="url(#p32d7ce4bf2)" style="fill: none; stroke: #b0b0b0; stroke-opacity: 0.3; stroke-width: 0.8; stroke-linecap: square"/>
     </g>
     <g id="line2d_2">
      <defs>
       <path id="mcede4360b0" d="M 0 0 
L 0 3.5 
" style="stroke: #000000; stroke-width: 0.8"/>
      </defs>
      <g>
       <use xlink:href="#mcede4360b0" x="66.091364" y="303.64" style="stroke: #000000; stroke-width: 0.8"/>
      </g>
     </g>
     <g id="text_1">
      <!-- 0 -->
      <g transform="translate(62.910114 318.238437) scale(0.1 -0.1)">
       <defs>
        <path id="DejaVuSans-30" d="M 2034 4250 
Q 1547 4250 1301 3770 
Q 1056 3291 1056 2328 
Q 1056 1369 1301 889 
Q 1547 409 2034 409 
Q 2525 409 2770 889 
Q 3016 1369 3016 2328 
Q 3016 3291 2770 3770 
Q 2525 4250 2034 4250 
z
M 2034 4750 
Q 2819 4750 3233 4129 
Q 3647 3509 3647 2328 
Q 3647 1150 3233 529 
Q 2819 -91 2034 -91 
Q 1250 -91 836 529 
Q 422 1150 422 2328 
Q 422 3509 836 4129 
Q 1250 4750 2034 4750 
z
" transform="scale(0.015625)"/>
       </defs>
       <use xlink:href="#DejaVuSans-30"/>
      </g>
     </g>
    </g>
    <g id="xtick_2">
     <g id="line2d_3">
      <path d="M 114.841667 303.64 
L 114.841667 25.44 
" clip-path="url(#p32d7ce4bf2)" style="fill: none; stroke: #b0b0b0; stroke-opacity: 0.3; stroke-width: 0.8; stroke-linecap: square"/>
     </g>
     <g id="line2d_4">
      <g>
       <use xlink:href="#mcede4360b0" x="114.841667" y="303.64" style="stroke: #000000; stroke-width: 0.8"/>
      </g>
     </g>
     <g id="text_2">
      <!-- 2 -->
      <g transform="translate(111.660417 318.238437) scale(0.1 -0.1)">
       <defs>
        <path id="DejaVuSans-32" d="M 1228 531 
L 3431 531 
L 3431 0 
L 469 0 
L 469 531 
Q 828 903 1448 1529 
Q 2069 2156 2228 2338 
Q 2531 2678 2651 2914 
Q 2772 3150 2772 3378 
Q 2772 3750 2511 3984 
Q 2250 4219 1831 4219 
Q 1534 4219 1204 4116 
Q 875 4013 500 3803 
L 500 4441 
Q 881 4594 1212 4672 
Q 1544 4750 1819 4750 
Q 2544 4750 2975 4387 
Q 3406 4025 3406 3419 
Q 3406 3131 3298 2873 
Q 3191 2616 2906 2266 
Q 2828 2175 2409 1742 
Q 1991 1309 1228 531 
z
" transform="scale(0.015625)"/>
       </defs>
       <use xlink:href="#DejaVuSans-32"/>
      </g>
     </g>
    </g>
    <g id="xtick_3">
     <g id="line2d_5">
      <path d="M 163.59197 303.64 
L 163.59197 25.44 
" clip-path="url(#p32d7ce4bf2)" style="fill: none; stroke: #b0b0b0; stroke-opacity: 0.3; stroke-width: 0.8; stroke-linecap: square"/>
     </g>
     <g id="line2d_6">
      <g>
       <use xlink:href="#mcede4360b0" x="163.59197" y="303.64" style="stroke: #000000; stroke-width: 0.8"/>
      </g>
     </g>
     <g id="text_3">
      <!-- 4 -->
      <g transform="translate(160.41072 318.238437) scale(0.1 -0.1)">
       <defs>
        <path id="DejaVuSans-34" d="M 2419 4116 
L 825 1625 
L 2419 1625 
L 2419 4116 
z
M 2253 4666 
L 3047 4666 
L 3047 1625 
L 3713 1625 
L 3713 1100 
L 3047 1100 
L 3047 0 
L 2419 0 
L 2419 1100 
L 313 1100 
L 313 1709 
L 2253 4666 
z
" transform="scale(0.015625)"/>
       </defs>
       <use xlink:href="#DejaVuSans-34"/>
      </g>
     </g>
    </g>
    <g id="xtick_4">
     <g id="line2d_7">
      <path d="M 212.342273 303.64 
L 212.342273 25.44 
" clip-path="url(#p32d7ce4bf2)" style="fill: none; stroke: #b0b0b0; stroke-opacity: 0.3; stroke-width: 0.8; stroke-linecap: square"/>
     </g>
     <g id="line2d_8">
      <g>
       <use xlink:href="#mcede4360b0" x="212.342273" y="303.64" style="stroke: #000000; stroke-width: 0.8"/>
      </g>
     </g>
     <g id="text_4">
      <!-- 6 -->
      <g transform="translate(209.161023 318.238437) scale(0.1 -0.1)">
       <defs>
        <path id="DejaVuSans-36" d="M 2113 2584 
Q 1688 2584 1439 2293 
Q 1191 2003 1191 1497 
Q 1191 994 1439 701 
Q 1688 409 2113 409 
Q 2538 409 2786 701 
Q 3034 994 3034 1497 
Q 3034 2003 2786 2293 
Q 2538 2584 2113 2584 
z
M 3366 4563 
L 3366 3988 
Q 3128 4100 2886 4159 
Q 2644 4219 2406 4219 
Q 1781 4219 1451 3797 
Q 1122 3375 1075 2522 
Q 1259 2794 1537 2939 
Q 1816 3084 2150 3084 
Q 2853 3084 3261 2657 
Q 3669 2231 3669 1497 
Q 3669 778 3244 343 
Q 2819 -91 2113 -91 
Q 1303 -91 875 529 
Q 447 1150 447 2328 
Q 447 3434 972 4092 
Q 1497 4750 2381 4750 
Q 2619 4750 2861 4703 
Q 3103 4656 3366 4563 
z
" transform="scale(0.015625)"/>
       </defs>
       <use xlink:href="#DejaVuSans-36"/>
      </g>
     </g>
    </g>
    <g id="xtick_5">
     <g id="line2d_9">
      <path d="M 261.092576 303.64 
L 261.092576 25.44 
" clip-path="url(#p32d7ce4bf2)" style="fill: none; stroke: #b0b0b0; stroke-opacity: 0.3; stroke-width: 0.8; stroke-linecap: square"/>
     </g>
     <g id="line2d_10">
      <g>
       <use xlink:href="#mcede4360b0" x="261.092576" y="303.64" style="stroke: #000000; stroke-width: 0.8"/>
      </g>
     </g>
     <g id="text_5">
      <!-- 8 -->
      <g transform="translate(257.911326 318.238437) scale(0.1 -0.1)">
       <defs>
        <path id="DejaVuSans-38" d="M 2034 2216 
Q 1584 2216 1326 1975 
Q 1069 1734 1069 1313 
Q 1069 891 1326 650 
Q 1584 409 2034 409 
Q 2484 409 2743 651 
Q 3003 894 3003 1313 
Q 3003 1734 2745 1975 
Q 2488 2216 2034 2216 
z
M 1403 2484 
Q 997 2584 770 2862 
Q 544 3141 544 3541 
Q 544 4100 942 4425 
Q 1341 4750 2034 4750 
Q 2731 4750 3128 4425 
Q 3525 4100 3525 3541 
Q 3525 3141 3298 2862 
Q 3072 2584 2669 2484 
Q 3125 2378 3379 2068 
Q 3634 1759 3634 1313 
Q 3634 634 3220 271 
Q 2806 -91 2034 -91 
Q 1263 -91 848 271 
Q 434 634 434 1313 
Q 434 1759 690 2068 
Q 947 2378 1403 2484 
z
M 1172 3481 
Q 1172 3119 1398 2916 
Q 1625 2713 2034 2713 
Q 2441 2713 2670 2916 
Q 2900 3119 2900 3481 
Q 2900 3844 2670 4047 
Q 2441 4250 2034 4250 
Q 1625 4250 1398 4047 
Q 1172 3844 1172 3481 
z
" transform="scale(0.015625)"/>
       </defs>
       <use xlink:href="#DejaVuSans-38"/>
      </g>
     </g>
    </g>
    <g id="xtick_6">
     <g id="line2d_11">
      <path d="M 309.842879 303.64 
L 309.842879 25.44 
" clip-path="url(#p32d7ce4bf2)" style="fill: none; stroke: #b0b0b0; stroke-opacity: 0.3; stroke-width: 0.8; stroke-linecap: square"/>
     </g>
     <g id="line2d_12">
      <g>
       <use xlink:href="#mcede4360b0" x="309.842879" y="303.64" style="stroke: #000000; stroke-width: 0.8"/>
      </g>
     </g>
     <g id="text_6">
      <!-- 10 -->
      <g transform="translate(303.480379 318.238437) scale(0.1 -0.1)">
       <defs>
        <path id="DejaVuSans-31" d="M 794 531 
L 1825 531 
L 1825 4091 
L 703 3866 
L 703 4441 
L 1819 4666 
L 2450 4666 
L 2450 531 
L 3481 531 
L 3481 0 
L 794 0 
L 794 531 
z
" transform="scale(0.015625)"/>
       </defs>
       <use xlink:href="#DejaVuSans-31"/>
       <use xlink:href="#DejaVuSans-30" transform="translate(63.623047 0)"/>
      </g>
     </g>
    </g>
    <g id="xtick_7">
     <g id="line2d_13">
      <path d="M 358.593182 303.64 
L 358.593182 25.44 
" clip-path="url(#p32d7ce4bf2)" style="fill: none; stroke: #b0b0b0; stroke-opacity: 0.3; stroke-width: 0.8; stroke-linecap: square"/>
     </g>
     <g id="line2d_14">
      <g>
       <use xlink:href="#mcede4360b0" x="358.593182" y="303.64" style="stroke: #000000; stroke-width: 0.8"/>
      </g>
     </g>
     <g id="text_7">
      <!-- 12 -->
      <g transform="translate(352.230682 318.238437) scale(0.1 -0.1)">
       <use xlink:href="#DejaVuSans-31"/>
       <use xlink:href="#DejaVuSans-32" transform="translate(63.623047 0)"/>
      </g>
     </g>
    </g>
    <g id="xtick_8">
     <g id="line2d_15">
      <path d="M 407.343485 303.64 
L 407.343485 25.44 
" clip-path="url(#p32d7ce4bf2)" style="fill: none; stroke: #b0b0b0; stroke-opacity: 0.3; stroke-width: 0.8; stroke-linecap: square"/>
     </g>
     <g id="line2d_16">
      <g>
       <use xlink:href="#mcede4360b0" x="407.343485" y="303.64" style="stroke: #000000; stroke-width: 0.8"/>
      </g>
     </g>
     <g id="text_8">
      <!-- 14 -->
      <g transform="translate(400.980985 318.238437) scale(0.1 -0.1)">
       <use xlink:href="#DejaVuSans-31"/>
       <use xlink:href="#DejaVuSans-34" transform="translate(63.623047 0)"/>
      </g>
     </g>
    </g>
    <g id="text_9">
     <!-- Time (minutes) -->
     <g transform="translate(210.9425 331.916562) scale(0.1 -0.1)">
      <defs>
       <path id="DejaVuSans-54" d="M -19 4666 
L 3928 4666 
L 3928 4134 
L 2272 4134 
L 2272 0 
L 1638 0 
L 1638 4134 
L -19 4134 
L -19 4666 
z
" transform="scale(0.015625)"/>
       <path id="DejaVuSans-69" d="M 603 3500 
L 1178 3500 
L 1178 0 
L 603 0 
L 603 3500 
z
M 603 4863 
L 1178 4863 
L 1178 4134 
L 603 4134 
L 603 4863 
z
" transform="scale(0.015625)"/>
       <path id="DejaVuSans-6d" d="M 3328 2828 
Q 3544 3216 3844 3400 
Q 4144 3584 4550 3584 
Q 5097 3584 5394 3201 
Q 5691 2819 5691 2113 
L 5691 0 
L 5113 0 
L 5113 2094 
Q 5113 2597 4934 2840 
Q 4756 3084 4391 3084 
Q 3944 3084 3684 2787 
Q 3425 2491 3425 1978 
L 3425 0 
L 2847 0 
L 2847 2094 
Q 2847 2600 2669 2842 
Q 2491 3084 2119 3084 
Q 1678 3084 1418 2786 
Q 1159 2488 1159 1978 
L 1159 0 
L 581 0 
L 581 3500 
L 1159 3500 
L 1159 2956 
Q 1356 3278 1631 3431 
Q 1906 3584 2284 3584 
Q 2666 3584 2933 3390 
Q 3200 3197 3328 2828 
z
" transform="scale(0.015625)"/>
       <path id="DejaVuSans-65" d="M 3597 1894 
L 3597 1613 
L 953 1613 
Q 991 1019 1311 708 
Q 1631 397 2203 397 
Q 2534 397 2845 478 
Q 3156 559 3463 722 
L 3463 178 
Q 3153 47 2828 -22 
Q 2503 -91 2169 -91 
Q 1331 -91 842 396 
Q 353 884 353 1716 
Q 353 2575 817 3079 
Q 1281 3584 2069 3584 
Q 2775 3584 3186 3129 
Q 3597 2675 3597 1894 
z
M 3022 2063 
Q 3016 2534 2758 2815 
Q 2500 3097 2075 3097 
Q 1594 3097 1305 2825 
Q 1016 2553 972 2059 
L 3022 2063 
z
" transform="scale(0.015625)"/>
       <path id="DejaVuSans-20" transform="scale(0.015625)"/>
       <path id="DejaVuSans-28" d="M 1984 4856 
Q 1566 4138 1362 3434 
Q 1159 2731 1159 2009 
Q 1159 1288 1364 580 
Q 1569 -128 1984 -844 
L 1484 -844 
Q 1016 -109 783 600 
Q 550 1309 550 2009 
Q 550 2706 781 3412 
Q 1013 4119 1484 4856 
L 1984 4856 
z
" transform="scale(0.015625)"/>
       <path id="DejaVuSans-6e" d="M 3513 2113 
L 3513 0 
L 2938 0 
L 2938 2094 
Q 2938 2591 2744 2837 
Q 2550 3084 2163 3084 
Q 1697 3084 1428 2787 
Q 1159 2491 1159 1978 
L 1159 0 
L 581 0 
L 581 3500 
L 1159 3500 
L 1159 2956 
Q 1366 3272 1645 3428 
Q 1925 3584 2291 3584 
Q 2894 3584 3203 3211 
Q 3513 2838 3513 2113 
z
" transform="scale(0.015625)"/>
       <path id="DejaVuSans-75" d="M 544 1381 
L 544 3500 
L 1119 3500 
L 1119 1403 
Q 1119 906 1312 657 
Q 1506 409 1894 409 
Q 2359 409 2629 706 
Q 2900 1003 2900 1516 
L 2900 3500 
L 3475 3500 
L 3475 0 
L 2900 0 
L 2900 538 
Q 2691 219 2414 64 
Q 2138 -91 1772 -91 
Q 1169 -91 856 284 
Q 544 659 544 1381 
z
M 1991 3584 
L 1991 3584 
z
" transform="scale(0.015625)"/>
       <path id="DejaVuSans-74" d="M 1172 4494 
L 1172 3500 
L 2356 3500 
L 2356 3053 
L 1172 3053 
L 1172 1153 
Q 1172 725 1289 603 
Q 1406 481 1766 481 
L 2356 481 
L 2356 0 
L 1766 0 
Q 1100 0 847 248 
Q 594 497 594 1153 
L 594 3053 
L 172 3053 
L 172 3500 
L 594 3500 
L 594 4494 
L 1172 4494 
z
" transform="scale(0.015625)"/>
       <path id="DejaVuSans-73" d="M 2834 3397 
L 2834 2853 
Q 2591 2978 2328 3040 
Q 2066 3103 1784 3103 
Q 1356 3103 1142 2972 
Q 928 2841 928 2578 
Q 928 2378 1081 2264 
Q 1234 2150 1697 2047 
L 1894 2003 
Q 2506 1872 2764 1633 
Q 3022 1394 3022 966 
Q 3022 478 2636 193 
Q 2250 -91 1575 -91 
Q 1294 -91 989 -36 
Q 684 19 347 128 
L 347 722 
Q 666 556 975 473 
Q 1284 391 1588 391 
Q 1994 391 2212 530 
Q 2431 669 2431 922 
Q 2431 1156 2273 1281 
Q 2116 1406 1581 1522 
L 1381 1569 
Q 847 1681 609 1914 
Q 372 2147 372 2553 
Q 372 3047 722 3315 
Q 1072 3584 1716 3584 
Q 2034 3584 2315 3537 
Q 2597 3491 2834 3397 
z
" transform="scale(0.015625)"/>
       <path id="DejaVuSans-29" d="M 513 4856 
L 1013 4856 
Q 1481 4119 1714 3412 
Q 1947 2706 1947 2009 
Q 1947 1309 1714 600 
Q 1481 -109 1013 -844 
L 513 -844 
Q 928 -128 1133 580 
Q 1338 1288 1338 2009 
Q 1338 2731 1133 3434 
Q 928 4138 513 4856 
z
" transform="scale(0.015625)"/>
      </defs>
      <use xlink:href="#DejaVuSans-54"/>
      <use xlink:href="#DejaVuSans-69" transform="translate(57.958984 0)"/>
      <use xlink:href="#DejaVuSans-6d" transform="translate(85.742188 0)"/>
      <use xlink:href="#DejaVuSans-65" transform="translate(183.154297 0)"/>
      <use xlink:href="#DejaVuSans-20" transform="translate(244.677734 0)"/>
      <use xlink:href="#DejaVuSans-28" transform="translate(276.464844 0)"/>
      <use xlink:href="#DejaVuSans-6d" transform="translate(315.478516 0)"/>
      <use xlink:href="#DejaVuSans-69" transform="translate(412.890625 0)"/>
      <use xlink:href="#DejaVuSans-6e" transform="translate(440.673828 0)"/>
      <use xlink:href="#DejaVuSans-75" transform="translate(504.052734 0)"/>
      <use xlink:href="#DejaVuSans-74" transform="translate(567.431641 0)"/>
      <use xlink:href="#DejaVuSans-65" transform="translate(606.640625 0)"/>
      <use xlink:href="#DejaVuSans-73" transform="translate(668.164062 0)"/>
      <use xlink:href="#DejaVuSans-29" transform="translate(720.263672 0)"/>
     </g>
    </g>
   </g>
   <g id="matplotlib.axis_2">
    <g id="ytick_1">
     <g id="line2d_17">
      <path d="M 47.81 290.951281 
L 450 290.951281 
" clip-path="url(#p32d7ce4bf2)" style="fill: none; stroke: #b0b0b0; stroke-opacity: 0.3; stroke-width: 0.8; stroke-linecap: square"/>
     </g>
     <g id="line2d_18">
      <defs>
       <path id="mc8f8ccd0c2" d="M 0 0 
L -3.5 0 
" style="stroke: #000000; stroke-width: 0.8"/>
      </defs>
      <g>
       <use xlink:href="#mc8f8ccd0c2" x="47.81" y="290.951281" style="stroke: #000000; stroke-width: 0.8"/>
      </g>
     </g>
     <g id="text_10">
      <!-- 0.0 -->
      <g transform="translate(24.906875 294.750499) scale(0.1 -0.1)">
       <defs>
        <path id="DejaVuSans-2e" d="M 684 794 
L 1344 794 
L 1344 0 
L 684 0 
L 684 794 
z
" transform="scale(0.015625)"/>
       </defs>
       <use xlink:href="#DejaVuSans-30"/>
       <use xlink:href="#DejaVuSans-2e" transform="translate(63.623047 0)"/>
       <use xlink:href="#DejaVuSans-30" transform="translate(95.410156 0)"/>
      </g>
     </g>
    </g>
    <g id="ytick_2">
     <g id="line2d_19">
      <path d="M 47.81 258.002903 
L 450 258.002903 
" clip-path="url(#p32d7ce4bf2)" style="fill: none; stroke: #b0b0b0; stroke-opacity: 0.3; stroke-width: 0.8; stroke-linecap: square"/>
     </g>
     <g id="line2d_20">
      <g>
       <use xlink:href="#mc8f8ccd0c2" x="47.81" y="258.002903" style="stroke: #000000; stroke-width: 0.8"/>
      </g>
     </g>
     <g id="text_11">
      <!-- 0.5 -->
      <g transform="translate(24.906875 261.802122) scale(0.1 -0.1)">
       <defs>
        <path id="DejaVuSans-35" d="M 691 4666 
L 3169 4666 
L 3169 4134 
L 1269 4134 
L 1269 2991 
Q 1406 3038 1543 3061 
Q 1681 3084 1819 3084 
Q 2600 3084 3056 2656 
Q 3513 2228 3513 1497 
Q 3513 744 3044 326 
Q 2575 -91 1722 -91 
Q 1428 -91 1123 -41 
Q 819 9 494 109 
L 494 744 
Q 775 591 1075 516 
Q 1375 441 1709 441 
Q 2250 441 2565 725 
Q 2881 1009 2881 1497 
Q 2881 1984 2565 2268 
Q 2250 2553 1709 2553 
Q 1456 2553 1204 2497 
Q 953 2441 691 2322 
L 691 4666 
z
" transform="scale(0.015625)"/>
       </defs>
       <use xlink:href="#DejaVuSans-30"/>
       <use xlink:href="#DejaVuSans-2e" transform="translate(63.623047 0)"/>
       <use xlink:href="#DejaVuSans-35" transform="translate(95.410156 0)"/>
      </g>
     </g>
    </g>
    <g id="ytick_3">
     <g id="line2d_21">
      <path d="M 47.81 225.054525 
L 450 225.054525 
" clip-path="url(#p32d7ce4bf2)" style="fill: none; stroke: #b0b0b0; stroke-opacity: 0.3; stroke-width: 0.8; stroke-linecap: square"/>
     </g>
     <g id="line2d_22">
      <g>
       <use xlink:href="#mc8f8ccd0c2" x="47.81" y="225.054525" style="stroke: #000000; stroke-width: 0.8"/>
      </g>
     </g>
     <g id="text_12">
      <!-- 1.0 -->
      <g transform="translate(24.906875 228.853744) scale(0.1 -0.1)">
       <use xlink:href="#DejaVuSans-31"/>
       <use xlink:href="#DejaVuSans-2e" transform="translate(63.623047 0)"/>
       <use xlink:href="#DejaVuSans-30" transform="translate(95.410156 0)"/>
      </g>
     </g>
    </g>
    <g id="ytick_4">
     <g id="line2d_23">
      <path d="M 47.81 192.106148 
L 450 192.106148 
" clip-path="url(#p32d7ce4bf2)" style="fill: none; stroke: #b0b0b0; stroke-opacity: 0.3; stroke-width: 0.8; stroke-linecap: square"/>
     </g>
     <g id="line2d_24">
      <g>
       <use xlink:href="#mc8f8ccd0c2" x="47.81" y="192.106148" style="stroke: #000000; stroke-width: 0.8"/>
      </g>
     </g>
     <g id="text_13">
      <!-- 1.5 -->
      <g transform="translate(24.906875 195.905366) scale(0.1 -0.1)">
       <use xlink:href="#DejaVuSans-31"/>
       <use xlink:href="#DejaVuSans-2e" transform="translate(63.623047 0)"/>
       <use xlink:href="#DejaVuSans-35" transform="translate(95.410156 0)"/>
      </g>
     </g>
    </g>
    <g id="ytick_5">
     <g id="line2d_25">
      <path d="M 47.81 159.15777 
L 450 159.15777 
" clip-path="url(#p32d7ce4bf2)" style="fill: none; stroke: #b0b0b0; stroke-opacity: 0.3; stroke-width: 0.8; stroke-linecap: square"/>
     </g>
     <g id="line2d_26">
      <g>
       <use xlink:href="#mc8f8ccd0c2" x="47.81" y="159.15777" style="stroke: #000000; stroke-width: 0.8"/>
      </g>
     </g>
     <g id="text_14">
      <!-- 2.0 -->
      <g transform="translate(24.906875 162.956989) scale(0.1 -0.1)">
       <use xlink:href="#DejaVuSans-32"/>
       <use xlink:href="#DejaVuSans-2e" transform="translate(63.623047 0)"/>
       <use xlink:href="#DejaVuSans-30" transform="translate(95.410156 0)"/>
      </g>
     </g>
    </g>
    <g id="ytick_6">
     <g id="line2d_27">
      <path d="M 47.81 126.209392 
L 450 126.209392 
" clip-path="url(#p32d7ce4bf2)" style="fill: none; stroke: #b0b0b0; stroke-opacity: 0.3; stroke-width: 0.8; stroke-linecap: square"/>
     </g>
     <g id="line2d_28">
      <g>
       <use xlink:href="#mc8f8ccd0c2" x="47.81" y="126.209392" style="stroke: #000000; stroke-width: 0.8"/>
      </g>
     </g>
     <g id="text_15">
      <!-- 2.5 -->
      <g transform="translate(24.906875 130.008611) scale(0.1 -0.1)">
       <use xlink:href="#DejaVuSans-32"/>
       <use xlink:href="#DejaVuSans-2e" transform="translate(63.623047 0)"/>
       <use xlink:href="#DejaVuSans-35" transform="translate(95.410156 0)"/>
      </g>
     </g>
    </g>
    <g id="ytick_7">
     <g id="line2d_29">
      <path d="M 47.81 93.261015 
L 450 93.261015 
" clip-path="url(#p32d7ce4bf2)" style="fill: none; stroke: #b0b0b0; stroke-opacity: 0.3; stroke-width: 0.8; stroke-linecap: square"/>
     </g>
     <g id="line2d_30">
      <g>
       <use xlink:href="#mc8f8ccd0c2" x="47.81" y="93.261015" style="stroke: #000000; stroke-width: 0.8"/>
      </g>
     </g>
     <g id="text_16">
      <!-- 3.0 -->
      <g transform="translate(24.906875 97.060233) scale(0.1 -0.1)">
       <defs>
        <path id="DejaVuSans-33" d="M 2597 2516 
Q 3050 2419 3304 2112 
Q 3559 1806 3559 1356 
Q 3559 666 3084 287 
Q 2609 -91 1734 -91 
Q 1441 -91 1130 -33 
Q 819 25 488 141 
L 488 750 
Q 750 597 1062 519 
Q 1375 441 1716 441 
Q 2309 441 2620 675 
Q 2931 909 2931 1356 
Q 2931 1769 2642 2001 
Q 2353 2234 1838 2234 
L 1294 2234 
L 1294 2753 
L 1863 2753 
Q 2328 2753 2575 2939 
Q 2822 3125 2822 3475 
Q 2822 3834 2567 4026 
Q 2313 4219 1838 4219 
Q 1578 4219 1281 4162 
Q 984 4106 628 3988 
L 628 4550 
Q 988 4650 1302 4700 
Q 1616 4750 1894 4750 
Q 2613 4750 3031 4423 
Q 3450 4097 3450 3541 
Q 3450 3153 3228 2886 
Q 3006 2619 2597 2516 
z
" transform="scale(0.015625)"/>
       </defs>
       <use xlink:href="#DejaVuSans-33"/>
       <use xlink:href="#DejaVuSans-2e" transform="translate(63.623047 0)"/>
       <use xlink:href="#DejaVuSans-30" transform="translate(95.410156 0)"/>
      </g>
     </g>
    </g>
    <g id="ytick_8">
     <g id="line2d_31">
      <path d="M 47.81 60.312637 
L 450 60.312637 
" clip-path="url(#p32d7ce4bf2)" style="fill: none; stroke: #b0b0b0; stroke-opacity: 0.3; stroke-width: 0.8; stroke-linecap: square"/>
     </g>
     <g id="line2d_32">
      <g>
       <use xlink:href="#mc8f8ccd0c2" x="47.81" y="60.312637" style="stroke: #000000; stroke-width: 0.8"/>
      </g>
     </g>
     <g id="text_17">
      <!-- 3.5 -->
      <g transform="translate(24.906875 64.111856) scale(0.1 -0.1)">
       <use xlink:href="#DejaVuSans-33"/>
       <use xlink:href="#DejaVuSans-2e" transform="translate(63.623047 0)"/>
       <use xlink:href="#DejaVuSans-35" transform="translate(95.410156 0)"/>
      </g>
     </g>
    </g>
    <g id="ytick_9">
     <g id="line2d_33">
      <path d="M 47.81 27.364259 
L 450 27.364259 
" clip-path="url(#p32d7ce4bf2)" style="fill: none; stroke: #b0b0b0; stroke-opacity: 0.3; stroke-width: 0.8; stroke-linecap: square"/>
     </g>
     <g id="line2d_34">
      <g>
       <use xlink:href="#mc8f8ccd0c2" x="47.81" y="27.364259" style="stroke: #000000; stroke-width: 0.8"/>
      </g>
     </g>
     <g id="text_18">
      <!-- 4.0 -->
      <g transform="translate(24.906875 31.163478) scale(0.1 -0.1)">
       <use xlink:href="#DejaVuSans-34"/>
       <use xlink:href="#DejaVuSans-2e" transform="translate(63.623047 0)"/>
       <use xlink:href="#DejaVuSans-30" transform="translate(95.410156 0)"/>
      </g>
     </g>
    </g>
    <g id="text_19">
     <!-- Gaussian filtered EDA (μS) -->
     <g transform="translate(18.827188 230.613437) rotate(-90) scale(0.1 -0.1)">
      <defs>
       <path id="DejaVuSans-47" d="M 3809 666 
L 3809 1919 
L 2778 1919 
L 2778 2438 
L 4434 2438 
L 4434 434 
Q 4069 175 3628 42 
Q 3188 -91 2688 -91 
Q 1594 -91 976 548 
Q 359 1188 359 2328 
Q 359 3472 976 4111 
Q 1594 4750 2688 4750 
Q 3144 4750 3555 4637 
Q 3966 4525 4313 4306 
L 4313 3634 
Q 3963 3931 3569 4081 
Q 3175 4231 2741 4231 
Q 1884 4231 1454 3753 
Q 1025 3275 1025 2328 
Q 1025 1384 1454 906 
Q 1884 428 2741 428 
Q 3075 428 3337 486 
Q 3600 544 3809 666 
z
" transform="scale(0.015625)"/>
       <path id="DejaVuSans-61" d="M 2194 1759 
Q 1497 1759 1228 1600 
Q 959 1441 959 1056 
Q 959 750 1161 570 
Q 1363 391 1709 391 
Q 2188 391 2477 730 
Q 2766 1069 2766 1631 
L 2766 1759 
L 2194 1759 
z
M 3341 1997 
L 3341 0 
L 2766 0 
L 2766 531 
Q 2569 213 2275 61 
Q 1981 -91 1556 -91 
Q 1019 -91 701 211 
Q 384 513 384 1019 
Q 384 1609 779 1909 
Q 1175 2209 1959 2209 
L 2766 2209 
L 2766 2266 
Q 2766 2663 2505 2880 
Q 2244 3097 1772 3097 
Q 1472 3097 1187 3025 
Q 903 2953 641 2809 
L 641 3341 
Q 956 3463 1253 3523 
Q 1550 3584 1831 3584 
Q 2591 3584 2966 3190 
Q 3341 2797 3341 1997 
z
" transform="scale(0.015625)"/>
       <path id="DejaVuSans-66" d="M 2375 4863 
L 2375 4384 
L 1825 4384 
Q 1516 4384 1395 4259 
Q 1275 4134 1275 3809 
L 1275 3500 
L 2222 3500 
L 2222 3053 
L 1275 3053 
L 1275 0 
L 697 0 
L 697 3053 
L 147 3053 
L 147 3500 
L 697 3500 
L 697 3744 
Q 697 4328 969 4595 
Q 1241 4863 1831 4863 
L 2375 4863 
z
" transform="scale(0.015625)"/>
       <path id="DejaVuSans-6c" d="M 603 4863 
L 1178 4863 
L 1178 0 
L 603 0 
L 603 4863 
z
" transform="scale(0.015625)"/>
       <path id="DejaVuSans-72" d="M 2631 2963 
Q 2534 3019 2420 3045 
Q 2306 3072 2169 3072 
Q 1681 3072 1420 2755 
Q 1159 2438 1159 1844 
L 1159 0 
L 581 0 
L 581 3500 
L 1159 3500 
L 1159 2956 
Q 1341 3275 1631 3429 
Q 1922 3584 2338 3584 
Q 2397 3584 2469 3576 
Q 2541 3569 2628 3553 
L 2631 2963 
z
" transform="scale(0.015625)"/>
       <path id="DejaVuSans-64" d="M 2906 2969 
L 2906 4863 
L 3481 4863 
L 3481 0 
L 2906 0 
L 2906 525 
Q 2725 213 2448 61 
Q 2172 -91 1784 -91 
Q 1150 -91 751 415 
Q 353 922 353 1747 
Q 353 2572 751 3078 
Q 1150 3584 1784 3584 
Q 2172 3584 2448 3432 
Q 2725 3281 2906 2969 
z
M 947 1747 
Q 947 1113 1208 752 
Q 1469 391 1925 391 
Q 2381 391 2643 752 
Q 2906 1113 2906 1747 
Q 2906 2381 2643 2742 
Q 2381 3103 1925 3103 
Q 1469 3103 1208 2742 
Q 947 2381 947 1747 
z
" transform="scale(0.015625)"/>
       <path id="DejaVuSans-45" d="M 628 4666 
L 3578 4666 
L 3578 4134 
L 1259 4134 
L 1259 2753 
L 3481 2753 
L 3481 2222 
L 1259 2222 
L 1259 531 
L 3634 531 
L 3634 0 
L 628 0 
L 628 4666 
z
" transform="scale(0.015625)"/>
       <path id="DejaVuSans-44" d="M 1259 4147 
L 1259 519 
L 2022 519 
Q 2988 519 3436 956 
Q 3884 1394 3884 2338 
Q 3884 3275 3436 3711 
Q 2988 4147 2022 4147 
L 1259 4147 
z
M 628 4666 
L 1925 4666 
Q 3281 4666 3915 4102 
Q 4550 3538 4550 2338 
Q 4550 1131 3912 565 
Q 3275 0 1925 0 
L 628 0 
L 628 4666 
z
" transform="scale(0.015625)"/>
       <path id="DejaVuSans-41" d="M 2188 4044 
L 1331 1722 
L 3047 1722 
L 2188 4044 
z
M 1831 4666 
L 2547 4666 
L 4325 0 
L 3669 0 
L 3244 1197 
L 1141 1197 
L 716 0 
L 50 0 
L 1831 4666 
z
" transform="scale(0.015625)"/>
       <path id="DejaVuSans-3bc" d="M 544 -1331 
L 544 3500 
L 1119 3500 
L 1119 1325 
Q 1119 872 1334 640 
Q 1550 409 1972 409 
Q 2434 409 2667 671 
Q 2900 934 2900 1459 
L 2900 3500 
L 3475 3500 
L 3475 806 
Q 3475 619 3529 530 
Q 3584 441 3700 441 
Q 3728 441 3778 458 
Q 3828 475 3916 513 
L 3916 50 
Q 3788 -22 3673 -56 
Q 3559 -91 3450 -91 
Q 3234 -91 3106 31 
Q 2978 153 2931 403 
Q 2775 156 2548 32 
Q 2322 -91 2016 -91 
Q 1697 -91 1473 31 
Q 1250 153 1119 397 
L 1119 -1331 
L 544 -1331 
z
" transform="scale(0.015625)"/>
       <path id="DejaVuSans-53" d="M 3425 4513 
L 3425 3897 
Q 3066 4069 2747 4153 
Q 2428 4238 2131 4238 
Q 1616 4238 1336 4038 
Q 1056 3838 1056 3469 
Q 1056 3159 1242 3001 
Q 1428 2844 1947 2747 
L 2328 2669 
Q 3034 2534 3370 2195 
Q 3706 1856 3706 1288 
Q 3706 609 3251 259 
Q 2797 -91 1919 -91 
Q 1588 -91 1214 -16 
Q 841 59 441 206 
L 441 856 
Q 825 641 1194 531 
Q 1563 422 1919 422 
Q 2459 422 2753 634 
Q 3047 847 3047 1241 
Q 3047 1584 2836 1778 
Q 2625 1972 2144 2069 
L 1759 2144 
Q 1053 2284 737 2584 
Q 422 2884 422 3419 
Q 422 4038 858 4394 
Q 1294 4750 2059 4750 
Q 2388 4750 2728 4690 
Q 3069 4631 3425 4513 
z
" transform="scale(0.015625)"/>
      </defs>
      <use xlink:href="#DejaVuSans-47"/>
      <use xlink:href="#DejaVuSans-61" transform="translate(77.490234 0)"/>
      <use xlink:href="#DejaVuSans-75" transform="translate(138.769531 0)"/>
      <use xlink:href="#DejaVuSans-73" transform="translate(202.148438 0)"/>
      <use xlink:href="#DejaVuSans-73" transform="translate(254.248047 0)"/>
      <use xlink:href="#DejaVuSans-69" transform="translate(306.347656 0)"/>
      <use xlink:href="#DejaVuSans-61" transform="translate(334.130859 0)"/>
      <use xlink:href="#DejaVuSans-6e" transform="translate(395.410156 0)"/>
      <use xlink:href="#DejaVuSans-20" transform="translate(458.789062 0)"/>
      <use xlink:href="#DejaVuSans-66" transform="translate(490.576172 0)"/>
      <use xlink:href="#DejaVuSans-69" transform="translate(525.78125 0)"/>
      <use xlink:href="#DejaVuSans-6c" transform="translate(553.564453 0)"/>
      <use xlink:href="#DejaVuSans-74" transform="translate(581.347656 0)"/>
      <use xlink:href="#DejaVuSans-65" transform="translate(620.556641 0)"/>
      <use xlink:href="#DejaVuSans-72" transform="translate(682.080078 0)"/>
      <use xlink:href="#DejaVuSans-65" transform="translate(720.943359 0)"/>
      <use xlink:href="#DejaVuSans-64" transform="translate(782.466797 0)"/>
      <use xlink:href="#DejaVuSans-20" transform="translate(845.943359 0)"/>
      <use xlink:href="#DejaVuSans-45" transform="translate(877.730469 0)"/>
      <use xlink:href="#DejaVuSans-44" transform="translate(940.914062 0)"/>
      <use xlink:href="#DejaVuSans-41" transform="translate(1016.166016 0)"/>
      <use xlink:href="#DejaVuSans-20" transform="translate(1084.574219 0)"/>
      <use xlink:href="#DejaVuSans-28" transform="translate(1116.361328 0)"/>
      <use xlink:href="#DejaVuSans-3bc" transform="translate(1155.375 0)"/>
      <use xlink:href="#DejaVuSans-53" transform="translate(1218.998047 0)"/>
      <use xlink:href="#DejaVuSans-29" transform="translate(1282.474609 0)"/>
     </g>
    </g>
   </g>
   <g id="line2d_35">
    <path d="M 66.091364 97.362842 
L 66.802701 98.972171 
L 67.717277 101.733741 
L 73.407974 121.107498 
L 74.830648 126.17957 
L 75.948464 129.288562 
L 77.269518 132.268276 
L 78.590573 134.722567 
L 80.013247 136.875043 
L 81.029443 138.075366 
L 81.944019 138.833601 
L 83.773172 140.184137 
L 84.484509 141.056612 
L 85.094226 142.137169 
L 85.602324 143.468953 
L 86.110422 145.486818 
L 86.61852 148.533464 
L 87.228238 153.888734 
L 88.041194 163.559453 
L 89.362249 179.279138 
L 89.971966 184.017154 
L 90.480064 186.558112 
L 90.988162 188.152907 
L 91.59788 189.337138 
L 92.512456 190.528773 
L 93.630272 191.645073 
L 94.443228 192.139076 
L 95.256185 192.349929 
L 96.47562 192.622672 
L 97.186957 193.044385 
L 97.999914 193.811209 
L 99.117729 194.853875 
L 99.524208 194.950576 
L 99.829066 194.816767 
L 100.133925 194.455743 
L 100.540404 193.566781 
L 101.048501 191.786443 
L 101.861458 187.841123 
L 102.877654 183.095078 
L 103.385752 181.563122 
L 103.89385 180.710823 
L 104.300328 180.432371 
L 104.808426 180.403769 
L 105.519763 180.444686 
L 105.824622 180.25977 
L 106.129481 179.778599 
L 106.43434 178.83043 
L 106.739198 177.203626 
L 107.145677 173.555069 
L 107.552155 167.673704 
L 108.060253 156.497636 
L 108.66997 137.381756 
L 110.905601 59.953543 
L 111.413699 51.375844 
L 111.921797 46.518772 
L 112.328276 44.500118 
L 112.734754 43.459621 
L 113.242852 42.803594 
L 114.055809 42.174126 
L 114.563906 41.984029 
L 114.970385 42.06444 
L 115.376863 42.392919 
L 116.0882 43.37281 
L 116.697918 44.131176 
L 117.104396 44.355503 
L 117.510874 44.309009 
L 118.120592 43.907896 
L 118.73031 43.545956 
L 119.136788 43.537577 
L 119.543266 43.768641 
L 120.051364 44.336453 
L 121.16918 46.030558 
L 122.083756 47.679373 
L 122.795093 49.454371 
L 124.522626 54.228732 
L 124.929104 54.753593 
L 125.335583 54.918923 
L 125.742061 54.769812 
L 126.250159 54.280534 
L 127.774453 52.621781 
L 128.587409 52.181563 
L 129.400366 51.713473 
L 130.010084 51.085645 
L 130.92466 49.706879 
L 131.737617 48.612738 
L 132.144095 48.348961 
L 132.550573 48.344839 
L 132.957052 48.593737 
L 133.566769 49.323863 
L 135.091063 51.739163 
L 136.412118 54.102394 
L 138.139651 57.291281 
L 138.647748 57.787718 
L 139.054227 57.92691 
L 139.460705 57.838093 
L 139.968803 57.47973 
L 141.086619 56.598635 
L 141.493097 56.56612 
L 141.899575 56.785351 
L 142.407673 57.398678 
L 143.22063 58.863994 
L 144.338445 60.780507 
L 145.151402 61.702947 
L 146.370837 62.961712 
L 146.878935 63.844414 
L 147.387033 65.161195 
L 147.99675 67.401012 
L 148.911327 71.776003 
L 150.029142 76.885585 
L 150.53724 78.265056 
L 150.842099 78.638529 
L 151.045338 78.681759 
L 151.350197 78.445993 
L 151.756675 77.648416 
L 152.569632 75.236339 
L 153.179349 73.73562 
L 153.585828 73.209871 
L 153.992306 73.070189 
L 154.500404 73.226061 
L 155.008502 73.359455 
L 155.313361 73.25609 
L 155.618219 72.938535 
L 156.024698 72.141274 
L 156.634415 70.251911 
L 157.95547 65.75917 
L 158.361948 65.05312 
L 158.666807 64.88916 
L 158.971666 65.059939 
L 159.276525 65.551526 
L 159.784623 66.940485 
L 161.004058 70.695574 
L 161.410536 71.247488 
L 161.715395 71.311417 
L 162.020253 71.103258 
L 162.426732 70.51202 
L 163.951026 67.939319 
L 164.459124 67.55289 
L 164.967221 67.405351 
L 165.576939 67.443517 
L 166.389896 67.725798 
L 167.304472 68.277239 
L 168.422287 69.221074 
L 169.336864 70.248941 
L 169.946581 71.245502 
L 170.556299 72.666904 
L 171.470875 75.515929 
L 172.385451 78.167911 
L 172.893549 78.98746 
L 173.198408 79.169454 
L 173.503267 79.115642 
L 173.808125 78.841212 
L 174.214604 78.174276 
L 174.824321 76.653581 
L 175.637278 73.890235 
L 176.653474 69.557152 
L 178.076148 63.444137 
L 178.685866 61.676891 
L 179.295583 60.562053 
L 180.921497 58.129611 
L 182.852269 54.231528 
L 183.258747 53.990901 
L 183.665225 54.054535 
L 184.071704 54.367682 
L 184.98628 55.478886 
L 185.799237 56.310552 
L 187.221911 57.584878 
L 187.933248 58.764128 
L 188.746205 60.053973 
L 189.051063 60.217266 
L 189.355922 60.075796 
L 189.660781 59.58163 
L 190.067259 58.366767 
L 190.676977 55.577522 
L 192.506129 46.389845 
L 193.217467 44.20727 
L 193.928804 42.71503 
L 194.74176 41.476184 
L 195.554717 40.621332 
L 196.469293 40.017594 
L 197.38387 39.362009 
L 198.908163 38.116605 
L 199.314642 38.113573 
L 199.72112 38.351069 
L 200.330838 39.063836 
L 201.245414 40.189728 
L 201.651892 40.422426 
L 202.058371 40.427704 
L 202.566468 40.183424 
L 203.785904 39.492647 
L 204.294001 39.517119 
L 204.802099 39.780609 
L 205.411817 40.354933 
L 206.326393 41.564695 
L 208.155546 44.494181 
L 209.57822 46.574629 
L 210.696035 47.820869 
L 212.11871 49.020311 
L 213.439764 50.227259 
L 214.862438 51.885112 
L 217.301309 55.084627 
L 218.419124 56.443472 
L 219.130461 56.993141 
L 219.841798 57.260984 
L 222.280668 57.877154 
L 225.329256 59.334021 
L 226.345452 60.059185 
L 227.463267 61.15098 
L 229.29242 62.979991 
L 230.410235 63.740091 
L 232.747486 65.258852 
L 235.694454 67.268931 
L 237.625226 68.292649 
L 238.743041 68.659446 
L 240.267335 68.880734 
L 241.48677 69.162239 
L 242.604586 69.672644 
L 244.433738 70.795129 
L 245.856412 71.92884 
L 246.872608 72.639132 
L 247.482326 72.794002 
L 248.193663 72.723039 
L 249.108239 72.659922 
L 249.616337 72.842819 
L 250.226055 73.315677 
L 251.24225 74.473388 
L 252.868164 76.293707 
L 254.494077 77.732091 
L 256.526469 79.224 
L 258.050763 80.092508 
L 258.965339 80.377434 
L 259.778296 80.395048 
L 260.692872 80.173596 
L 262.217166 79.748075 
L 262.928503 79.789703 
L 263.843079 80.091309 
L 265.570612 80.683255 
L 266.790047 81.115914 
L 267.806243 81.740047 
L 269.838635 83.076245 
L 272.480744 84.504776 
L 275.427712 86.55677 
L 281.728126 89.660105 
L 284.370236 90.408537 
L 286.504247 91.387602 
L 287.622063 91.579791 
L 289.451215 91.822496 
L 290.365791 92.213095 
L 291.686846 93.05993 
L 294.227336 94.690002 
L 296.056488 95.55422 
L 299.613174 96.987206 
L 300.52775 97.102068 
L 301.137468 96.977668 
L 301.747185 96.612724 
L 302.356903 95.932735 
L 302.96662 94.867071 
L 303.677957 93.108655 
L 305.710349 87.542351 
L 306.218447 86.90604 
L 306.624925 86.716264 
L 307.031404 86.76029 
L 307.641121 87.087822 
L 308.454078 87.495231 
L 308.860556 87.471426 
L 309.267034 87.204279 
L 309.775132 86.501885 
L 310.48647 84.979996 
L 311.807524 82.019348 
L 312.82372 80.417125 
L 313.636677 78.981254 
L 314.449633 77.008183 
L 315.36421 74.86669 
L 315.770688 74.396136 
L 316.075547 74.37095 
L 316.380406 74.661528 
L 316.786884 75.530714 
L 317.294982 77.245898 
L 319.124134 84.036242 
L 319.632232 84.909209 
L 319.937091 85.122072 
L 320.24195 85.105267 
L 320.546809 84.872987 
L 320.953287 84.272103 
L 321.563004 82.924477 
L 323.087298 79.390958 
L 323.697016 78.578994 
L 324.306733 78.162444 
L 324.916451 78.027283 
L 325.729407 78.099118 
L 326.948843 78.467648 
L 329.489332 79.365462 
L 329.895811 79.178187 
L 330.302289 78.681961 
L 330.708767 77.799676 
L 331.216865 76.113799 
L 331.928202 72.822027 
L 336.704323 48.25384 
L 337.31404 46.313448 
L 337.720519 45.647612 
L 338.025377 45.469092 
L 338.330236 45.514795 
L 338.838334 45.885099 
L 339.448052 46.317546 
L 339.85453 46.325982 
L 340.261008 46.015043 
L 340.769106 45.241925 
L 341.785302 43.567575 
L 342.191781 43.333976 
L 342.496639 43.41708 
L 342.903118 43.86233 
L 343.411216 44.838613 
L 346.053325 50.664655 
L 347.069521 52.101931 
L 347.984097 53.039694 
L 348.898673 53.681419 
L 349.914869 54.11637 
L 350.829445 54.256868 
L 351.744022 54.158652 
L 353.166696 53.739269 
L 353.979653 53.288742 
L 354.69099 52.604366 
L 355.605566 51.332723 
L 357.841197 48.024041 
L 358.349295 47.663244 
L 358.654154 47.673595 
L 358.959012 47.909744 
L 359.365491 48.622532 
L 359.873589 50.143338 
L 360.584926 53.1193 
L 362.210839 60.118056 
L 363.227035 63.375799 
L 364.34485 66.228963 
L 365.361046 68.259179 
L 366.275623 69.587593 
L 367.190199 70.508676 
L 368.917732 72.080308 
L 369.730689 73.252464 
L 373.287374 78.988987 
L 376.031103 82.560469 
L 376.74244 83.059689 
L 377.555397 83.353073 
L 378.876451 83.797924 
L 379.587788 84.299955 
L 380.502365 85.251693 
L 382.331517 87.605353 
L 384.668768 90.498814 
L 386.193062 92.012993 
L 388.327073 93.78602 
L 394.932346 98.801422 
L 396.863118 99.747107 
L 401.944097 102.144923 
L 404.382968 103.286161 
L 406.618598 104.065022 
L 410.581762 105.251215 
L 417.593514 107.985118 
L 420.845341 109.631573 
L 422.877732 110.594493 
L 425.723081 112.050418 
L 428.26357 113.214173 
L 430.499201 114.2983 
L 431.718636 114.702608 
L 431.718636 114.702608 
" clip-path="url(#p32d7ce4bf2)" style="fill: none; stroke-dasharray: 1.85,0.8; stroke-dashoffset: 0; stroke: #1f77b4; stroke-width: 0.5"/>
   </g>
   <g id="line2d_36">
    <path d="M 66.091364 97.064559 
L 67.10756 100.920902 
L 68.326995 104.628602 
L 70.562625 111.177016 
L 72.188539 117.008908 
L 74.42417 124.934739 
L 75.745224 128.71731 
L 77.066279 131.814905 
L 78.387334 134.373388 
L 79.708388 136.490137 
L 80.826204 137.894617 
L 81.8424 138.816083 
L 82.756976 139.33291 
L 83.569933 139.809379 
L 84.07803 140.363106 
L 84.586128 141.275637 
L 85.094226 142.681914 
L 85.602324 144.71688 
L 86.212042 148.178707 
L 86.923379 153.853401 
L 87.939575 164.178907 
L 89.768727 182.975196 
L 90.480064 188.142121 
L 90.988162 190.525119 
L 91.49626 191.934285 
L 91.902739 192.50642 
L 92.309217 192.705517 
L 92.715695 192.642784 
L 93.528652 192.176655 
L 94.03675 191.974675 
L 94.443228 192.039813 
L 94.849707 192.414805 
L 95.357805 193.277949 
L 96.272381 195.444472 
L 97.390196 197.970711 
L 97.898294 198.641346 
L 98.203153 198.801618 
L 98.508012 198.737402 
L 98.812871 198.416721 
L 99.219349 197.626791 
L 99.829066 195.902828 
L 101.556599 190.718568 
L 101.963078 190.124666 
L 102.267936 189.989123 
L 102.471176 190.073717 
L 102.776034 190.499569 
L 103.182513 191.580855 
L 104.808426 196.668821 
L 105.113285 196.832803 
L 105.316524 196.655214 
L 105.621383 195.873716 
L 105.926242 194.37238 
L 106.33272 191.053104 
L 106.840818 184.40523 
L 107.450535 172.604113 
L 108.263492 152.103701 
L 111.108841 75.622154 
L 111.820178 63.69959 
L 112.531515 55.273367 
L 113.141232 50.351536 
L 113.75095 47.130569 
L 114.259048 45.456716 
L 114.767146 44.454047 
L 115.275244 43.904667 
L 115.783342 43.701955 
L 116.291439 43.787974 
L 116.901157 44.190745 
L 117.714114 45.071707 
L 120.356223 48.214628 
L 122.185375 50.249894 
L 123.201571 51.759983 
L 125.742061 55.92415 
L 126.351779 56.400213 
L 126.758257 56.488137 
L 127.164735 56.355089 
L 127.672833 55.870593 
L 128.282551 54.926368 
L 129.298747 52.854959 
L 130.619801 50.217563 
L 131.229519 49.397187 
L 131.737617 49.022916 
L 132.245715 48.912326 
L 132.753812 49.035905 
L 133.36353 49.451752 
L 134.074867 50.241353 
L 134.989443 51.61366 
L 136.615357 54.544421 
L 138.139651 57.147374 
L 139.054227 58.310863 
L 139.765564 58.886661 
L 140.578521 59.237972 
L 141.797956 59.465053 
L 142.915771 59.738081 
L 143.627108 60.127001 
L 144.338445 60.773019 
L 145.049782 61.712755 
L 145.862739 63.190931 
L 146.675696 65.149907 
L 147.590272 67.992113 
L 150.740479 78.719319 
L 151.248577 79.562096 
L 151.655056 79.874049 
L 151.959914 79.891252 
L 152.366393 79.662724 
L 152.874491 79.041454 
L 153.585828 77.715769 
L 156.227937 72.221993 
L 156.939274 71.42771 
L 157.650611 70.947137 
L 158.361948 70.730469 
L 159.174905 70.742105 
L 160.089481 70.994427 
L 162.121873 71.641343 
L 162.83321 71.593151 
L 163.442928 71.323663 
L 164.052645 70.791909 
L 165.27208 69.293281 
L 166.085037 68.436811 
L 166.593135 68.141611 
L 166.999613 68.107029 
L 167.406092 68.298259 
L 167.81257 68.758347 
L 168.320668 69.721097 
L 169.032005 71.599636 
L 171.470875 78.598689 
L 171.978973 79.359695 
L 172.385451 79.654704 
L 172.79193 79.693224 
L 173.198408 79.499397 
L 173.706506 78.967149 
L 174.316223 77.965413 
L 175.12918 76.147478 
L 176.348615 72.774151 
L 178.381007 66.383987 
L 181.124736 57.808996 
L 182.039312 55.652944 
L 182.64903 54.664783 
L 183.157127 54.194523 
L 183.563606 54.088137 
L 183.970084 54.251353 
L 184.376562 54.697393 
L 184.98628 55.784067 
L 186.104095 58.42617 
L 187.120291 60.616939 
L 187.628389 61.31331 
L 188.034868 61.565369 
L 188.339726 61.540859 
L 188.746205 61.236421 
L 189.254303 60.469072 
L 189.86402 59.072522 
L 190.676977 56.599997 
L 192.099651 51.392053 
L 193.827184 45.267626 
L 194.84338 42.419466 
L 195.554717 40.972031 
L 196.164435 40.184218 
L 196.672532 39.881822 
L 197.18063 39.850129 
L 197.790348 40.071185 
L 198.806544 40.755117 
L 199.82274 41.349668 
L 200.432457 41.432308 
L 201.042175 41.24474 
L 201.855131 40.73019 
L 203.379425 39.717697 
L 203.989143 39.575365 
L 204.497241 39.680237 
L 205.005339 40.007837 
L 205.716676 40.7682 
L 206.732872 42.261437 
L 209.171742 46.013894 
L 210.492796 47.507434 
L 214.964058 52.247427 
L 219.028842 56.902773 
L 220.045037 57.701353 
L 220.959614 58.141319 
L 221.97581 58.355068 
L 224.21144 58.713221 
L 225.024397 59.111477 
L 226.040593 59.89736 
L 227.869746 61.682647 
L 229.394039 63.021717 
L 231.121572 64.181721 
L 233.560442 65.827767 
L 236.202552 67.710057 
L 237.320367 68.216747 
L 238.641422 68.54426 
L 240.978672 69.086621 
L 242.198107 69.653185 
L 244.128879 70.835686 
L 246.770989 72.402578 
L 250.835772 74.743971 
L 252.664925 76.095778 
L 254.595697 77.845524 
L 256.32323 79.304487 
L 257.339426 79.892826 
L 258.355622 80.202515 
L 259.473437 80.303209 
L 261.404209 80.205038 
L 263.436601 80.192758 
L 264.757656 80.393629 
L 265.977091 80.802949 
L 267.501384 81.58607 
L 270.854831 83.677847 
L 277.460104 87.654907 
L 280.203833 88.962891 
L 285.284812 91.152829 
L 286.605867 91.385541 
L 289.146356 91.758888 
L 290.162552 92.161004 
L 291.483607 92.957091 
L 294.227336 94.690329 
L 296.666206 95.747944 
L 297.98726 96.476039 
L 299.714793 97.512181 
L 300.42613 97.64889 
L 300.934228 97.54248 
L 301.442326 97.216923 
L 301.950424 96.628895 
L 302.560142 95.569263 
L 303.576338 93.257795 
L 305.303871 89.298784 
L 306.015208 88.236709 
L 306.624925 87.757459 
L 307.234643 87.565049 
L 309.267034 87.223928 
L 309.775132 86.79832 
L 310.28323 86.082502 
L 310.994567 84.648922 
L 313.433438 79.292898 
L 313.941535 78.753331 
L 314.348014 78.609922 
L 314.754492 78.713999 
L 315.26259 79.131407 
L 315.872308 79.950936 
L 316.990123 81.929238 
L 318.209558 83.958969 
L 318.920895 84.721194 
L 319.530613 85.085954 
L 320.14033 85.189495 
L 320.750048 85.036707 
L 321.359765 84.63248 
L 322.071102 83.849613 
L 322.884059 82.581716 
L 325.11969 78.8908 
L 325.729407 78.354821 
L 326.135886 78.220163 
L 326.542364 78.296285 
L 327.050462 78.63329 
L 328.981234 80.243861 
L 329.387713 80.221615 
L 329.794191 79.930181 
L 330.200669 79.305776 
L 330.708767 77.97967 
L 331.318485 75.677962 
L 332.233061 71.215473 
L 334.87517 57.613897 
L 335.789747 54.395193 
L 336.704323 51.941898 
L 337.720519 49.851168 
L 339.041573 47.677678 
L 340.057769 46.339335 
L 340.870726 45.608143 
L 341.480443 45.322742 
L 341.988541 45.290776 
L 342.496639 45.471743 
L 343.106357 45.984355 
L 343.817694 46.907902 
L 344.935509 48.776041 
L 346.663042 51.643737 
L 347.577619 52.700001 
L 348.492195 53.419861 
L 349.508391 53.920841 
L 350.727826 54.253952 
L 351.845641 54.37806 
L 352.658598 54.271142 
L 353.369935 53.971939 
L 354.081272 53.425955 
L 354.792609 52.580843 
L 355.808805 50.935218 
L 356.926621 49.211309 
L 357.536338 48.623671 
L 357.942816 48.466165 
L 358.349295 48.547236 
L 358.755773 48.910746 
L 359.263871 49.800226 
L 359.873589 51.406821 
L 360.788165 54.577614 
L 363.328655 63.888734 
L 364.243231 66.170618 
L 365.157807 67.900174 
L 366.275623 69.5064 
L 368.206395 71.762968 
L 370.035547 74.015535 
L 371.254982 75.870289 
L 374.811668 81.686006 
L 375.624625 82.425238 
L 376.539201 82.921808 
L 379.28293 84.124238 
L 380.197506 84.970491 
L 381.518561 86.558696 
L 384.465529 90.233944 
L 386.294681 92.072332 
L 388.631932 94.084349 
L 393.306433 97.725296 
L 395.135585 98.941625 
L 396.761499 99.744018 
L 401.029521 101.681532 
L 403.87487 103.096697 
L 405.907261 103.796413 
L 411.801197 105.689913 
L 415.357883 106.958359 
L 417.390275 107.972053 
L 420.134003 109.324867 
L 423.080971 110.639552 
L 424.198787 111.450912 
L 427.653853 114.292638 
L 428.46681 114.528407 
L 429.279766 114.532726 
L 430.397582 114.304609 
L 431.718636 113.941099 
L 431.718636 113.941099 
" clip-path="url(#p32d7ce4bf2)" style="fill: none; stroke: #ff7f0e; stroke-width: 0.5; stroke-linecap: square"/>
   </g>
   <g id="line2d_37">
    <path d="M 66.091364 290.951281 
L 66.294603 290.994545 
L 66.599462 290.136563 
L 67.310799 289.829717 
L 67.818897 289.886188 
L 69.241571 290.714602 
L 70.257767 290.882998 
L 71.070723 290.84782 
L 72.086919 290.48427 
L 72.798256 290.451178 
L 75.135507 290.912711 
L 78.387334 290.950349 
L 84.687748 290.853987 
L 85.297466 290.186838 
L 86.821759 288.150257 
L 87.228238 288.047165 
L 87.431477 288.287584 
L 88.447673 290.016212 
L 89.05739 290.503531 
L 89.667108 290.738298 
L 89.870347 290.530154 
L 91.191402 288.409748 
L 91.59788 288.210348 
L 92.004358 288.321685 
L 92.207597 288.414482 
L 92.614076 289.074341 
L 93.223793 289.988199 
L 93.833511 290.487908 
L 94.544848 290.757332 
L 94.951326 290.745894 
L 95.561044 289.674321 
L 97.186957 286.444571 
L 97.593435 286.097408 
L 97.898294 286.053145 
L 98.203153 286.221498 
L 98.609631 286.715884 
L 99.829066 289.755987 
L 100.337164 290.306138 
L 100.946882 290.645845 
L 101.150121 290.652024 
L 101.45498 289.98599 
L 101.963078 288.180356 
L 102.674415 284.573407 
L 104.198709 276.255629 
L 104.605187 275.057312 
L 104.910046 274.635324 
L 105.113285 274.611086 
L 105.316524 274.806433 
L 105.621383 275.52047 
L 106.129481 277.752781 
L 106.33272 279.031785 
L 107.247296 286.300465 
L 107.755394 288.424266 
L 108.263492 289.557324 
L 108.365112 289.42104 
L 108.77159 287.035354 
L 109.279688 282.224457 
L 110.194264 273.52126 
L 110.600743 271.588442 
L 110.803982 271.225572 
L 111.007221 271.238157 
L 111.21046 271.614099 
L 111.515319 272.789863 
L 112.023417 275.918279 
L 113.344471 284.592464 
L 113.852569 286.566842 
L 114.360667 287.808434 
L 114.868765 288.772179 
L 115.478483 289.838722 
L 115.986581 290.346224 
L 116.596298 290.664134 
L 117.206016 290.815127 
L 117.409255 290.629538 
L 118.120592 289.307218 
L 118.933549 287.855961 
L 119.340027 287.486361 
L 119.746505 287.37918 
L 120.254603 287.501835 
L 121.575658 288.18733 
L 122.388615 288.821707 
L 123.404811 290.210292 
L 124.014528 290.596655 
L 124.827485 290.820393 
L 125.030724 290.826298 
L 125.335583 290.485392 
L 126.04692 289.288004 
L 126.859876 288.041841 
L 127.266355 287.772763 
L 127.571214 287.778859 
L 127.977692 288.040981 
L 128.48579 288.671868 
L 129.298747 289.982294 
L 129.908464 290.48558 
L 130.619801 290.756407 
L 131.229519 290.835021 
L 132.448954 290.376512 
L 132.855432 290.422917 
L 134.176487 290.823707 
L 135.599161 290.928477 
L 138.647748 290.929652 
L 139.155846 290.504487 
L 139.968803 289.471579 
L 140.883379 288.374943 
L 141.289858 288.155479 
L 141.696336 288.187081 
L 142.102814 288.44107 
L 142.407673 288.816688 
L 143.22063 290.041105 
L 143.830347 290.513695 
L 144.541685 290.768161 
L 145.151402 290.82868 
L 145.862739 290.166633 
L 146.980555 289.042139 
L 147.488653 288.834864 
L 147.99675 288.910297 
L 148.19999 289.023359 
L 149.622664 290.519534 
L 150.334001 290.770204 
L 150.740479 290.811782 
L 151.045338 290.392329 
L 151.553436 289.270884 
L 152.671251 286.602844 
L 153.07773 286.215045 
L 153.382589 286.273617 
L 153.789067 286.753066 
L 155.110122 289.88698 
L 155.618219 290.377695 
L 156.024698 290.585022 
L 156.227937 290.359117 
L 156.736035 289.25399 
L 158.158709 285.564527 
L 158.565187 285.188415 
L 158.870046 285.247237 
L 159.174905 285.60702 
L 159.581383 286.449231 
L 160.49596 289.207636 
L 161.004058 290.004397 
L 161.613775 290.502109 
L 161.918634 290.58389 
L 162.426732 289.853355 
L 163.442928 288.283017 
L 163.849406 288.045044 
L 164.255884 288.101994 
L 164.662363 288.393901 
L 165.27208 289.122475 
L 165.983417 290.099555 
L 166.593135 290.541657 
L 167.304472 290.779846 
L 167.914189 290.834143 
L 168.422287 290.255547 
L 169.235244 288.89483 
L 170.048201 287.663016 
L 170.454679 287.357377 
L 170.759538 287.32472 
L 171.064397 287.467681 
L 171.572495 288.011468 
L 172.79193 290.125365 
L 173.401647 290.557663 
L 174.214604 290.806215 
L 174.722702 290.826997 
L 175.434039 290.2818 
L 176.145376 289.442243 
L 177.872909 287.149139 
L 178.279387 287.053295 
L 178.584246 287.192446 
L 178.990724 287.625021 
L 179.295583 288.143635 
L 180.10854 289.756536 
L 180.616638 290.301474 
L 181.226355 290.642887 
L 182.039312 290.837486 
L 183.665225 290.898149 
L 184.681421 290.902343 
L 185.189519 290.484547 
L 185.799237 289.624439 
L 186.917052 287.965054 
L 187.32353 287.780089 
L 187.730009 287.918987 
L 188.238107 288.952149 
L 188.847824 289.947971 
L 189.457542 290.470921 
L 190.067259 290.723634 
L 190.270499 290.63995 
L 190.981836 289.371118 
L 191.794792 287.959733 
L 192.201271 287.593981 
L 192.607749 287.521974 
L 193.014227 287.719544 
L 193.623945 288.359363 
L 195.249858 290.369925 
L 195.961195 290.70672 
L 196.875772 290.871079 
L 197.079011 290.768964 
L 197.688728 290.05076 
L 199.111403 288.109166 
L 199.517881 287.980319 
L 199.82274 288.088617 
L 200.330838 288.618832 
L 201.143794 289.949361 
L 201.753512 290.46918 
L 202.464849 290.749496 
L 203.481045 290.891419 
L 210.391177 290.949543 
L 212.321949 290.858829 
L 213.744623 290.709172 
L 215.472156 290.80434 
L 217.199689 290.931457 
L 219.43532 290.874163 
L 220.857994 290.313506 
L 221.569331 290.302356 
L 222.077429 290.427043 
L 223.093625 290.777699 
L 224.31306 290.912035 
L 226.142213 290.896176 
L 227.260028 290.87534 
L 229.800518 290.947408 
L 235.592834 290.863759 
L 236.50741 290.885135 
L 239.14952 290.948409 
L 241.58839 290.847723 
L 243.92564 290.73284 
L 247.685565 290.889982 
L 249.413098 289.874605 
L 250.022815 289.895285 
L 250.734153 290.186768 
L 251.648729 290.668084 
L 252.563305 290.858037 
L 254.290838 290.939898 
L 255.408654 290.851856 
L 256.729708 290.793183 
L 258.66048 290.933765 
L 260.794492 290.883532 
L 262.318785 290.562444 
L 262.826883 290.619659 
L 264.147938 290.875014 
L 266.18033 290.943184 
L 271.159689 290.816069 
L 272.175885 290.81091 
L 274.005038 290.934427 
L 276.748767 290.889301 
L 277.968202 290.852077 
L 280.305452 290.944752 
L 282.134605 290.875383 
L 283.760518 290.51011 
L 284.573475 290.576674 
L 285.89453 290.862934 
L 287.723682 290.941844 
L 297.784021 290.943144 
L 298.901837 290.662542 
L 300.121272 290.451653 
L 300.934228 290.510583 
L 302.153663 290.8354 
L 303.677957 290.933278 
L 304.084436 290.900453 
L 305.710349 289.908453 
L 306.320066 289.875759 
L 306.624925 289.930674 
L 308.149219 290.748404 
L 309.267034 290.899422 
L 309.571893 290.824654 
L 310.791328 290.13794 
L 311.197807 290.079718 
L 313.026959 290.829253 
L 313.738296 290.840822 
L 314.144775 290.141308 
L 314.754492 288.488595 
L 315.770688 285.592579 
L 316.177166 284.972229 
L 316.482025 284.829924 
L 316.786884 284.970374 
L 317.193362 285.550513 
L 317.80308 286.936247 
L 318.616036 289.22238 
L 319.124134 290.009803 
L 319.733852 290.504299 
L 320.445189 290.764478 
L 320.648428 290.666478 
L 321.258146 289.922944 
L 322.375961 288.445398 
L 322.884059 288.168902 
L 323.290537 288.205559 
L 323.697016 288.448799 
L 324.306733 289.108371 
L 325.01807 290.081381 
L 325.627788 290.532034 
L 326.339125 290.775727 
L 327.050462 290.860011 
L 327.761799 290.456398 
L 328.574756 290.096089 
L 329.184473 290.075119 
L 329.590952 290.251728 
L 330.505528 290.693547 
L 331.521724 290.876402 
L 333.554116 290.944976 
L 334.671931 290.914194 
L 335.180029 290.35065 
L 335.789747 289.216154 
L 336.907562 287.003389 
L 337.31404 286.680786 
L 337.618899 286.719256 
L 338.025377 287.090304 
L 338.330236 287.761815 
L 339.041573 289.447455 
L 339.549671 290.131515 
L 340.159389 290.561936 
L 340.667487 290.670115 
L 342.2934 288.95609 
L 342.699878 288.97841 
L 343.207976 289.289331 
L 343.716074 289.827805 
L 344.325792 290.382951 
L 345.037129 290.710433 
L 346.053325 290.881973 
L 348.187336 290.946064 
L 351.337543 290.868015 
L 352.760218 290.636046 
L 353.674794 290.732054 
L 354.995848 290.903351 
L 357.231479 290.929116 
L 357.841197 290.530992 
L 359.060632 289.646947 
L 359.56873 289.587542 
L 359.873589 289.734 
L 360.889784 290.531191 
L 361.702741 290.794538 
L 362.617317 290.885102 
L 363.531894 290.764789 
L 366.072383 290.940506 
L 367.291818 290.864867 
L 368.917732 290.461548 
L 369.730689 290.701513 
L 370.848504 290.885255 
L 372.271178 290.918643 
L 373.998711 290.361252 
L 374.710048 290.415962 
L 375.929483 290.807056 
L 377.250538 290.922579 
L 381.213702 290.944799 
L 398.082553 290.950836 
L 424.198787 290.87241 
L 425.214983 290.448223 
L 427.044135 289.650341 
L 427.755472 289.600845 
L 428.568429 289.794982 
L 430.397582 290.788275 
L 431.617017 290.914826 
L 431.718636 290.919105 
L 431.718636 290.919105 
" clip-path="url(#p32d7ce4bf2)" style="fill: none; stroke: #2ca02c; stroke-width: 0.5; stroke-linecap: square"/>
   </g>
   <g id="patch_3">
    <path d="M 47.81 303.64 
L 47.81 25.44 
" style="fill: none; stroke: #000000; stroke-width: 0.8; stroke-linejoin: miter; stroke-linecap: square"/>
   </g>
   <g id="patch_4">
    <path d="M 450 303.64 
L 450 25.44 
" style="fill: none; stroke: #000000; stroke-width: 0.8; stroke-linejoin: miter; stroke-linecap: square"/>
   </g>
   <g id="patch_5">
    <path d="M 47.81 303.64 
L 450 303.64 
" style="fill: none; stroke: #000000; stroke-width: 0.8; stroke-linejoin: miter; stroke-linecap: square"/>
   </g>
   <g id="patch_6">
    <path d="M 47.81 25.44 
L 450 25.44 
" style="fill: none; stroke: #000000; stroke-width: 0.8; stroke-linejoin: miter; stroke-linecap: square"/>
   </g>
   <g id="text_20">
    <!-- data_9_E4 Separated EDA plot -->
    <g transform="translate(157.349688 19.44) scale(0.12 -0.12)">
     <defs>
      <path id="DejaVuSans-5f" d="M 3263 -1063 
L 3263 -1509 
L -63 -1509 
L -63 -1063 
L 3263 -1063 
z
" transform="scale(0.015625)"/>
      <path id="DejaVuSans-39" d="M 703 97 
L 703 672 
Q 941 559 1184 500 
Q 1428 441 1663 441 
Q 2288 441 2617 861 
Q 2947 1281 2994 2138 
Q 2813 1869 2534 1725 
Q 2256 1581 1919 1581 
Q 1219 1581 811 2004 
Q 403 2428 403 3163 
Q 403 3881 828 4315 
Q 1253 4750 1959 4750 
Q 2769 4750 3195 4129 
Q 3622 3509 3622 2328 
Q 3622 1225 3098 567 
Q 2575 -91 1691 -91 
Q 1453 -91 1209 -44 
Q 966 3 703 97 
z
M 1959 2075 
Q 2384 2075 2632 2365 
Q 2881 2656 2881 3163 
Q 2881 3666 2632 3958 
Q 2384 4250 1959 4250 
Q 1534 4250 1286 3958 
Q 1038 3666 1038 3163 
Q 1038 2656 1286 2365 
Q 1534 2075 1959 2075 
z
" transform="scale(0.015625)"/>
      <path id="DejaVuSans-70" d="M 1159 525 
L 1159 -1331 
L 581 -1331 
L 581 3500 
L 1159 3500 
L 1159 2969 
Q 1341 3281 1617 3432 
Q 1894 3584 2278 3584 
Q 2916 3584 3314 3078 
Q 3713 2572 3713 1747 
Q 3713 922 3314 415 
Q 2916 -91 2278 -91 
Q 1894 -91 1617 61 
Q 1341 213 1159 525 
z
M 3116 1747 
Q 3116 2381 2855 2742 
Q 2594 3103 2138 3103 
Q 1681 3103 1420 2742 
Q 1159 2381 1159 1747 
Q 1159 1113 1420 752 
Q 1681 391 2138 391 
Q 2594 391 2855 752 
Q 3116 1113 3116 1747 
z
" transform="scale(0.015625)"/>
      <path id="DejaVuSans-6f" d="M 1959 3097 
Q 1497 3097 1228 2736 
Q 959 2375 959 1747 
Q 959 1119 1226 758 
Q 1494 397 1959 397 
Q 2419 397 2687 759 
Q 2956 1122 2956 1747 
Q 2956 2369 2687 2733 
Q 2419 3097 1959 3097 
z
M 1959 3584 
Q 2709 3584 3137 3096 
Q 3566 2609 3566 1747 
Q 3566 888 3137 398 
Q 2709 -91 1959 -91 
Q 1206 -91 779 398 
Q 353 888 353 1747 
Q 353 2609 779 3096 
Q 1206 3584 1959 3584 
z
" transform="scale(0.015625)"/>
     </defs>
     <use xlink:href="#DejaVuSans-64"/>
     <use xlink:href="#DejaVuSans-61" transform="translate(63.476562 0)"/>
     <use xlink:href="#DejaVuSans-74" transform="translate(124.755859 0)"/>
     <use xlink:href="#DejaVuSans-61" transform="translate(163.964844 0)"/>
     <use xlink:href="#DejaVuSans-5f" transform="translate(225.244141 0)"/>
     <use xlink:href="#DejaVuSans-39" transform="translate(275.244141 0)"/>
     <use xlink:href="#DejaVuSans-5f" transform="translate(338.867188 0)"/>
     <use xlink:href="#DejaVuSans-45" transform="translate(388.867188 0)"/>
     <use xlink:href="#DejaVuSans-34" transform="translate(452.050781 0)"/>
     <use xlink:href="#DejaVuSans-20" transform="translate(515.673828 0)"/>
     <use xlink:href="#DejaVuSans-53" transform="translate(547.460938 0)"/>
     <use xlink:href="#DejaVuSans-65" transform="translate(610.9375 0)"/>
     <use xlink:href="#DejaVuSans-70" transform="translate(672.460938 0)"/>
     <use xlink:href="#DejaVuSans-61" transform="translate(735.9375 0)"/>
     <use xlink:href="#DejaVuSans-72" transform="translate(797.216797 0)"/>
     <use xlink:href="#DejaVuSans-61" transform="translate(838.330078 0)"/>
     <use xlink:href="#DejaVuSans-74" transform="translate(899.609375 0)"/>
     <use xlink:href="#DejaVuSans-65" transform="translate(938.818359 0)"/>
     <use xlink:href="#DejaVuSans-64" transform="translate(1000.341797 0)"/>
     <use xlink:href="#DejaVuSans-20" transform="translate(1063.818359 0)"/>
     <use xlink:href="#DejaVuSans-45" transform="translate(1095.605469 0)"/>
     <use xlink:href="#DejaVuSans-44" transform="translate(1158.789062 0)"/>
     <use xlink:href="#DejaVuSans-41" transform="translate(1234.041016 0)"/>
     <use xlink:href="#DejaVuSans-20" transform="translate(1302.449219 0)"/>
     <use xlink:href="#DejaVuSans-70" transform="translate(1334.236328 0)"/>
     <use xlink:href="#DejaVuSans-6c" transform="translate(1397.712891 0)"/>
     <use xlink:href="#DejaVuSans-6f" transform="translate(1425.496094 0)"/>
     <use xlink:href="#DejaVuSans-74" transform="translate(1486.677734 0)"/>
    </g>
   </g>
   <g id="legend_1">
    <g id="patch_7">
     <path d="M 350.09375 188.057187 
L 443 188.057187 
Q 445 188.057187 445 186.057187 
L 445 143.022812 
Q 445 141.022812 443 141.022812 
L 350.09375 141.022812 
Q 348.09375 141.022812 348.09375 143.022812 
L 348.09375 186.057187 
Q 348.09375 188.057187 350.09375 188.057187 
z
" style="fill: #ffffff; opacity: 0.8; stroke: #cccccc; stroke-linejoin: miter"/>
    </g>
    <g id="line2d_38">
     <path d="M 352.09375 149.12125 
L 362.09375 149.12125 
L 372.09375 149.12125 
" style="fill: none; stroke-dasharray: 1.85,0.8; stroke-dashoffset: 0; stroke: #1f77b4; stroke-width: 0.5"/>
    </g>
    <g id="text_21">
     <!-- Filtered EDA -->
     <g transform="translate(380.09375 152.62125) scale(0.1 -0.1)">
      <defs>
       <path id="DejaVuSans-46" d="M 628 4666 
L 3309 4666 
L 3309 4134 
L 1259 4134 
L 1259 2759 
L 3109 2759 
L 3109 2228 
L 1259 2228 
L 1259 0 
L 628 0 
L 628 4666 
z
" transform="scale(0.015625)"/>
      </defs>
      <use xlink:href="#DejaVuSans-46"/>
      <use xlink:href="#DejaVuSans-69" transform="translate(50.269531 0)"/>
      <use xlink:href="#DejaVuSans-6c" transform="translate(78.052734 0)"/>
      <use xlink:href="#DejaVuSans-74" transform="translate(105.835938 0)"/>
      <use xlink:href="#DejaVuSans-65" transform="translate(145.044922 0)"/>
      <use xlink:href="#DejaVuSans-72" transform="translate(206.568359 0)"/>
      <use xlink:href="#DejaVuSans-65" transform="translate(245.431641 0)"/>
      <use xlink:href="#DejaVuSans-64" transform="translate(306.955078 0)"/>
      <use xlink:href="#DejaVuSans-20" transform="translate(370.431641 0)"/>
      <use xlink:href="#DejaVuSans-45" transform="translate(402.21875 0)"/>
      <use xlink:href="#DejaVuSans-44" transform="translate(465.402344 0)"/>
      <use xlink:href="#DejaVuSans-41" transform="translate(540.654297 0)"/>
     </g>
    </g>
    <g id="line2d_39">
     <path d="M 352.09375 163.799375 
L 362.09375 163.799375 
L 372.09375 163.799375 
" style="fill: none; stroke: #ff7f0e; stroke-width: 0.5; stroke-linecap: square"/>
    </g>
    <g id="text_22">
     <!-- Tonic -->
     <g transform="translate(380.09375 167.299375) scale(0.1 -0.1)">
      <defs>
       <path id="DejaVuSans-63" d="M 3122 3366 
L 3122 2828 
Q 2878 2963 2633 3030 
Q 2388 3097 2138 3097 
Q 1578 3097 1268 2742 
Q 959 2388 959 1747 
Q 959 1106 1268 751 
Q 1578 397 2138 397 
Q 2388 397 2633 464 
Q 2878 531 3122 666 
L 3122 134 
Q 2881 22 2623 -34 
Q 2366 -91 2075 -91 
Q 1284 -91 818 406 
Q 353 903 353 1747 
Q 353 2603 823 3093 
Q 1294 3584 2113 3584 
Q 2378 3584 2631 3529 
Q 2884 3475 3122 3366 
z
" transform="scale(0.015625)"/>
      </defs>
      <use xlink:href="#DejaVuSans-54"/>
      <use xlink:href="#DejaVuSans-6f" transform="translate(44.083984 0)"/>
      <use xlink:href="#DejaVuSans-6e" transform="translate(105.265625 0)"/>
      <use xlink:href="#DejaVuSans-69" transform="translate(168.644531 0)"/>
      <use xlink:href="#DejaVuSans-63" transform="translate(196.427734 0)"/>
     </g>
    </g>
    <g id="line2d_40">
     <path d="M 352.09375 178.4775 
L 362.09375 178.4775 
L 372.09375 178.4775 
" style="fill: none; stroke: #2ca02c; stroke-width: 0.5; stroke-linecap: square"/>
    </g>
    <g id="text_23">
     <!-- Phasic -->
     <g transform="translate(380.09375 181.9775) scale(0.1 -0.1)">
      <defs>
       <path id="DejaVuSans-50" d="M 1259 4147 
L 1259 2394 
L 2053 2394 
Q 2494 2394 2734 2622 
Q 2975 2850 2975 3272 
Q 2975 3691 2734 3919 
Q 2494 4147 2053 4147 
L 1259 4147 
z
M 628 4666 
L 2053 4666 
Q 2838 4666 3239 4311 
Q 3641 3956 3641 3272 
Q 3641 2581 3239 2228 
Q 2838 1875 2053 1875 
L 1259 1875 
L 1259 0 
L 628 0 
L 628 4666 
z
" transform="scale(0.015625)"/>
       <path id="DejaVuSans-68" d="M 3513 2113 
L 3513 0 
L 2938 0 
L 2938 2094 
Q 2938 2591 2744 2837 
Q 2550 3084 2163 3084 
Q 1697 3084 1428 2787 
Q 1159 2491 1159 1978 
L 1159 0 
L 581 0 
L 581 4863 
L 1159 4863 
L 1159 2956 
Q 1366 3272 1645 3428 
Q 1925 3584 2291 3584 
Q 2894 3584 3203 3211 
Q 3513 2838 3513 2113 
z
" transform="scale(0.015625)"/>
      </defs>
      <use xlink:href="#DejaVuSans-50"/>
      <use xlink:href="#DejaVuSans-68" transform="translate(60.302734 0)"/>
      <use xlink:href="#DejaVuSans-61" transform="translate(123.681641 0)"/>
      <use xlink:href="#DejaVuSans-73" transform="translate(184.960938 0)"/>
      <use xlink:href="#DejaVuSans-69" transform="translate(237.060547 0)"/>
      <use xlink:href="#DejaVuSans-63" transform="translate(264.84375 0)"/>
     </g>
    </g>
   </g>
  </g>
 </g>
 <defs>
  <clipPath id="p32d7ce4bf2">
   <rect x="47.81" y="25.44" width="402.19" height="278.2"/>
  </clipPath>
 </defs>
</svg>
