<?xml version="1.0" encoding="utf-8" standalone="no"?>
<!DOCTYPE svg PUBLIC "-//W3C//DTD SVG 1.1//EN"
  "http://www.w3.org/Graphics/SVG/1.1/DTD/svg11.dtd">
<svg xmlns:xlink="http://www.w3.org/1999/xlink" width="460.8pt" height="345.6pt" viewBox="0 0 460.8 345.6" xmlns="http://www.w3.org/2000/svg" version="1.1">
 <metadata>
  <rdf:RDF xmlns:dc="http://purl.org/dc/elements/1.1/" xmlns:cc="http://creativecommons.org/ns#" xmlns:rdf="http://www.w3.org/1999/02/22-rdf-syntax-ns#">
   <cc:Work>
    <dc:type rdf:resource="http://purl.org/dc/dcmitype/StillImage"/>
    <dc:date>2025-09-22T14:18:48.070540</dc:date>
    <dc:format>image/svg+xml</dc:format>
    <dc:creator>
     <cc:Agent>
      <dc:title>Matplotlib v3.10.0, https://matplotlib.org/</dc:title>
     </cc:Agent>
    </dc:creator>
   </cc:Work>
  </rdf:RDF>
 </metadata>
 <defs>
  <style type="text/css">*{stroke-linejoin: round; stroke-linecap: butt}</style>
 </defs>
 <g id="figure_1">
  <g id="patch_1">
   <path d="M 0 345.6 
L 460.8 345.6 
L 460.8 0 
L 0 0 
z
" style="fill: #ffffff"/>
  </g>
  <g id="axes_1">
   <g id="patch_2">
    <path d="M 47.81 303.64 
L 450 303.64 
L 450 25.44 
L 47.81 25.44 
z
" style="fill: #ffffff"/>
   </g>
   <g id="matplotlib.axis_1">
    <g id="xtick_1">
     <g id="line2d_1">
      <path d="M 66.091364 303.64 
L 66.091364 25.44 
" clip-path="url(#p5eb06c8acb)" style="fill: none; stroke: #b0b0b0; stroke-opacity: 0.3; stroke-width: 0.8; stroke-linecap: square"/>
     </g>
     <g id="line2d_2">
      <defs>
       <path id="mfc6a26b851" d="M 0 0 
L 0 3.5 
" style="stroke: #000000; stroke-width: 0.8"/>
      </defs>
      <g>
       <use xlink:href="#mfc6a26b851" x="66.091364" y="303.64" style="stroke: #000000; stroke-width: 0.8"/>
      </g>
     </g>
     <g id="text_1">
      <!-- 0 -->
      <g transform="translate(62.910114 318.238437) scale(0.1 -0.1)">
       <defs>
        <path id="DejaVuSans-30" d="M 2034 4250 
Q 1547 4250 1301 3770 
Q 1056 3291 1056 2328 
Q 1056 1369 1301 889 
Q 1547 409 2034 409 
Q 2525 409 2770 889 
Q 3016 1369 3016 2328 
Q 3016 3291 2770 3770 
Q 2525 4250 2034 4250 
z
M 2034 4750 
Q 2819 4750 3233 4129 
Q 3647 3509 3647 2328 
Q 3647 1150 3233 529 
Q 2819 -91 2034 -91 
Q 1250 -91 836 529 
Q 422 1150 422 2328 
Q 422 3509 836 4129 
Q 1250 4750 2034 4750 
z
" transform="scale(0.015625)"/>
       </defs>
       <use xlink:href="#DejaVuSans-30"/>
      </g>
     </g>
    </g>
    <g id="xtick_2">
     <g id="line2d_3">
      <path d="M 114.841667 303.64 
L 114.841667 25.44 
" clip-path="url(#p5eb06c8acb)" style="fill: none; stroke: #b0b0b0; stroke-opacity: 0.3; stroke-width: 0.8; stroke-linecap: square"/>
     </g>
     <g id="line2d_4">
      <g>
       <use xlink:href="#mfc6a26b851" x="114.841667" y="303.64" style="stroke: #000000; stroke-width: 0.8"/>
      </g>
     </g>
     <g id="text_2">
      <!-- 2 -->
      <g transform="translate(111.660417 318.238437) scale(0.1 -0.1)">
       <defs>
        <path id="DejaVuSans-32" d="M 1228 531 
L 3431 531 
L 3431 0 
L 469 0 
L 469 531 
Q 828 903 1448 1529 
Q 2069 2156 2228 2338 
Q 2531 2678 2651 2914 
Q 2772 3150 2772 3378 
Q 2772 3750 2511 3984 
Q 2250 4219 1831 4219 
Q 1534 4219 1204 4116 
Q 875 4013 500 3803 
L 500 4441 
Q 881 4594 1212 4672 
Q 1544 4750 1819 4750 
Q 2544 4750 2975 4387 
Q 3406 4025 3406 3419 
Q 3406 3131 3298 2873 
Q 3191 2616 2906 2266 
Q 2828 2175 2409 1742 
Q 1991 1309 1228 531 
z
" transform="scale(0.015625)"/>
       </defs>
       <use xlink:href="#DejaVuSans-32"/>
      </g>
     </g>
    </g>
    <g id="xtick_3">
     <g id="line2d_5">
      <path d="M 163.59197 303.64 
L 163.59197 25.44 
" clip-path="url(#p5eb06c8acb)" style="fill: none; stroke: #b0b0b0; stroke-opacity: 0.3; stroke-width: 0.8; stroke-linecap: square"/>
     </g>
     <g id="line2d_6">
      <g>
       <use xlink:href="#mfc6a26b851" x="163.59197" y="303.64" style="stroke: #000000; stroke-width: 0.8"/>
      </g>
     </g>
     <g id="text_3">
      <!-- 4 -->
      <g transform="translate(160.41072 318.238437) scale(0.1 -0.1)">
       <defs>
        <path id="DejaVuSans-34" d="M 2419 4116 
L 825 1625 
L 2419 1625 
L 2419 4116 
z
M 2253 4666 
L 3047 4666 
L 3047 1625 
L 3713 1625 
L 3713 1100 
L 3047 1100 
L 3047 0 
L 2419 0 
L 2419 1100 
L 313 1100 
L 313 1709 
L 2253 4666 
z
" transform="scale(0.015625)"/>
       </defs>
       <use xlink:href="#DejaVuSans-34"/>
      </g>
     </g>
    </g>
    <g id="xtick_4">
     <g id="line2d_7">
      <path d="M 212.342273 303.64 
L 212.342273 25.44 
" clip-path="url(#p5eb06c8acb)" style="fill: none; stroke: #b0b0b0; stroke-opacity: 0.3; stroke-width: 0.8; stroke-linecap: square"/>
     </g>
     <g id="line2d_8">
      <g>
       <use xlink:href="#mfc6a26b851" x="212.342273" y="303.64" style="stroke: #000000; stroke-width: 0.8"/>
      </g>
     </g>
     <g id="text_4">
      <!-- 6 -->
      <g transform="translate(209.161023 318.238437) scale(0.1 -0.1)">
       <defs>
        <path id="DejaVuSans-36" d="M 2113 2584 
Q 1688 2584 1439 2293 
Q 1191 2003 1191 1497 
Q 1191 994 1439 701 
Q 1688 409 2113 409 
Q 2538 409 2786 701 
Q 3034 994 3034 1497 
Q 3034 2003 2786 2293 
Q 2538 2584 2113 2584 
z
M 3366 4563 
L 3366 3988 
Q 3128 4100 2886 4159 
Q 2644 4219 2406 4219 
Q 1781 4219 1451 3797 
Q 1122 3375 1075 2522 
Q 1259 2794 1537 2939 
Q 1816 3084 2150 3084 
Q 2853 3084 3261 2657 
Q 3669 2231 3669 1497 
Q 3669 778 3244 343 
Q 2819 -91 2113 -91 
Q 1303 -91 875 529 
Q 447 1150 447 2328 
Q 447 3434 972 4092 
Q 1497 4750 2381 4750 
Q 2619 4750 2861 4703 
Q 3103 4656 3366 4563 
z
" transform="scale(0.015625)"/>
       </defs>
       <use xlink:href="#DejaVuSans-36"/>
      </g>
     </g>
    </g>
    <g id="xtick_5">
     <g id="line2d_9">
      <path d="M 261.092576 303.64 
L 261.092576 25.44 
" clip-path="url(#p5eb06c8acb)" style="fill: none; stroke: #b0b0b0; stroke-opacity: 0.3; stroke-width: 0.8; stroke-linecap: square"/>
     </g>
     <g id="line2d_10">
      <g>
       <use xlink:href="#mfc6a26b851" x="261.092576" y="303.64" style="stroke: #000000; stroke-width: 0.8"/>
      </g>
     </g>
     <g id="text_5">
      <!-- 8 -->
      <g transform="translate(257.911326 318.238437) scale(0.1 -0.1)">
       <defs>
        <path id="DejaVuSans-38" d="M 2034 2216 
Q 1584 2216 1326 1975 
Q 1069 1734 1069 1313 
Q 1069 891 1326 650 
Q 1584 409 2034 409 
Q 2484 409 2743 651 
Q 3003 894 3003 1313 
Q 3003 1734 2745 1975 
Q 2488 2216 2034 2216 
z
M 1403 2484 
Q 997 2584 770 2862 
Q 544 3141 544 3541 
Q 544 4100 942 4425 
Q 1341 4750 2034 4750 
Q 2731 4750 3128 4425 
Q 3525 4100 3525 3541 
Q 3525 3141 3298 2862 
Q 3072 2584 2669 2484 
Q 3125 2378 3379 2068 
Q 3634 1759 3634 1313 
Q 3634 634 3220 271 
Q 2806 -91 2034 -91 
Q 1263 -91 848 271 
Q 434 634 434 1313 
Q 434 1759 690 2068 
Q 947 2378 1403 2484 
z
M 1172 3481 
Q 1172 3119 1398 2916 
Q 1625 2713 2034 2713 
Q 2441 2713 2670 2916 
Q 2900 3119 2900 3481 
Q 2900 3844 2670 4047 
Q 2441 4250 2034 4250 
Q 1625 4250 1398 4047 
Q 1172 3844 1172 3481 
z
" transform="scale(0.015625)"/>
       </defs>
       <use xlink:href="#DejaVuSans-38"/>
      </g>
     </g>
    </g>
    <g id="xtick_6">
     <g id="line2d_11">
      <path d="M 309.842879 303.64 
L 309.842879 25.44 
" clip-path="url(#p5eb06c8acb)" style="fill: none; stroke: #b0b0b0; stroke-opacity: 0.3; stroke-width: 0.8; stroke-linecap: square"/>
     </g>
     <g id="line2d_12">
      <g>
       <use xlink:href="#mfc6a26b851" x="309.842879" y="303.64" style="stroke: #000000; stroke-width: 0.8"/>
      </g>
     </g>
     <g id="text_6">
      <!-- 10 -->
      <g transform="translate(303.480379 318.238437) scale(0.1 -0.1)">
       <defs>
        <path id="DejaVuSans-31" d="M 794 531 
L 1825 531 
L 1825 4091 
L 703 3866 
L 703 4441 
L 1819 4666 
L 2450 4666 
L 2450 531 
L 3481 531 
L 3481 0 
L 794 0 
L 794 531 
z
" transform="scale(0.015625)"/>
       </defs>
       <use xlink:href="#DejaVuSans-31"/>
       <use xlink:href="#DejaVuSans-30" transform="translate(63.623047 0)"/>
      </g>
     </g>
    </g>
    <g id="xtick_7">
     <g id="line2d_13">
      <path d="M 358.593182 303.64 
L 358.593182 25.44 
" clip-path="url(#p5eb06c8acb)" style="fill: none; stroke: #b0b0b0; stroke-opacity: 0.3; stroke-width: 0.8; stroke-linecap: square"/>
     </g>
     <g id="line2d_14">
      <g>
       <use xlink:href="#mfc6a26b851" x="358.593182" y="303.64" style="stroke: #000000; stroke-width: 0.8"/>
      </g>
     </g>
     <g id="text_7">
      <!-- 12 -->
      <g transform="translate(352.230682 318.238437) scale(0.1 -0.1)">
       <use xlink:href="#DejaVuSans-31"/>
       <use xlink:href="#DejaVuSans-32" transform="translate(63.623047 0)"/>
      </g>
     </g>
    </g>
    <g id="xtick_8">
     <g id="line2d_15">
      <path d="M 407.343485 303.64 
L 407.343485 25.44 
" clip-path="url(#p5eb06c8acb)" style="fill: none; stroke: #b0b0b0; stroke-opacity: 0.3; stroke-width: 0.8; stroke-linecap: square"/>
     </g>
     <g id="line2d_16">
      <g>
       <use xlink:href="#mfc6a26b851" x="407.343485" y="303.64" style="stroke: #000000; stroke-width: 0.8"/>
      </g>
     </g>
     <g id="text_8">
      <!-- 14 -->
      <g transform="translate(400.980985 318.238437) scale(0.1 -0.1)">
       <use xlink:href="#DejaVuSans-31"/>
       <use xlink:href="#DejaVuSans-34" transform="translate(63.623047 0)"/>
      </g>
     </g>
    </g>
    <g id="text_9">
     <!-- Time (minutes) -->
     <g transform="translate(210.9425 331.916562) scale(0.1 -0.1)">
      <defs>
       <path id="DejaVuSans-54" d="M -19 4666 
L 3928 4666 
L 3928 4134 
L 2272 4134 
L 2272 0 
L 1638 0 
L 1638 4134 
L -19 4134 
L -19 4666 
z
" transform="scale(0.015625)"/>
       <path id="DejaVuSans-69" d="M 603 3500 
L 1178 3500 
L 1178 0 
L 603 0 
L 603 3500 
z
M 603 4863 
L 1178 4863 
L 1178 4134 
L 603 4134 
L 603 4863 
z
" transform="scale(0.015625)"/>
       <path id="DejaVuSans-6d" d="M 3328 2828 
Q 3544 3216 3844 3400 
Q 4144 3584 4550 3584 
Q 5097 3584 5394 3201 
Q 5691 2819 5691 2113 
L 5691 0 
L 5113 0 
L 5113 2094 
Q 5113 2597 4934 2840 
Q 4756 3084 4391 3084 
Q 3944 3084 3684 2787 
Q 3425 2491 3425 1978 
L 3425 0 
L 2847 0 
L 2847 2094 
Q 2847 2600 2669 2842 
Q 2491 3084 2119 3084 
Q 1678 3084 1418 2786 
Q 1159 2488 1159 1978 
L 1159 0 
L 581 0 
L 581 3500 
L 1159 3500 
L 1159 2956 
Q 1356 3278 1631 3431 
Q 1906 3584 2284 3584 
Q 2666 3584 2933 3390 
Q 3200 3197 3328 2828 
z
" transform="scale(0.015625)"/>
       <path id="DejaVuSans-65" d="M 3597 1894 
L 3597 1613 
L 953 1613 
Q 991 1019 1311 708 
Q 1631 397 2203 397 
Q 2534 397 2845 478 
Q 3156 559 3463 722 
L 3463 178 
Q 3153 47 2828 -22 
Q 2503 -91 2169 -91 
Q 1331 -91 842 396 
Q 353 884 353 1716 
Q 353 2575 817 3079 
Q 1281 3584 2069 3584 
Q 2775 3584 3186 3129 
Q 3597 2675 3597 1894 
z
M 3022 2063 
Q 3016 2534 2758 2815 
Q 2500 3097 2075 3097 
Q 1594 3097 1305 2825 
Q 1016 2553 972 2059 
L 3022 2063 
z
" transform="scale(0.015625)"/>
       <path id="DejaVuSans-20" transform="scale(0.015625)"/>
       <path id="DejaVuSans-28" d="M 1984 4856 
Q 1566 4138 1362 3434 
Q 1159 2731 1159 2009 
Q 1159 1288 1364 580 
Q 1569 -128 1984 -844 
L 1484 -844 
Q 1016 -109 783 600 
Q 550 1309 550 2009 
Q 550 2706 781 3412 
Q 1013 4119 1484 4856 
L 1984 4856 
z
" transform="scale(0.015625)"/>
       <path id="DejaVuSans-6e" d="M 3513 2113 
L 3513 0 
L 2938 0 
L 2938 2094 
Q 2938 2591 2744 2837 
Q 2550 3084 2163 3084 
Q 1697 3084 1428 2787 
Q 1159 2491 1159 1978 
L 1159 0 
L 581 0 
L 581 3500 
L 1159 3500 
L 1159 2956 
Q 1366 3272 1645 3428 
Q 1925 3584 2291 3584 
Q 2894 3584 3203 3211 
Q 3513 2838 3513 2113 
z
" transform="scale(0.015625)"/>
       <path id="DejaVuSans-75" d="M 544 1381 
L 544 3500 
L 1119 3500 
L 1119 1403 
Q 1119 906 1312 657 
Q 1506 409 1894 409 
Q 2359 409 2629 706 
Q 2900 1003 2900 1516 
L 2900 3500 
L 3475 3500 
L 3475 0 
L 2900 0 
L 2900 538 
Q 2691 219 2414 64 
Q 2138 -91 1772 -91 
Q 1169 -91 856 284 
Q 544 659 544 1381 
z
M 1991 3584 
L 1991 3584 
z
" transform="scale(0.015625)"/>
       <path id="DejaVuSans-74" d="M 1172 4494 
L 1172 3500 
L 2356 3500 
L 2356 3053 
L 1172 3053 
L 1172 1153 
Q 1172 725 1289 603 
Q 1406 481 1766 481 
L 2356 481 
L 2356 0 
L 1766 0 
Q 1100 0 847 248 
Q 594 497 594 1153 
L 594 3053 
L 172 3053 
L 172 3500 
L 594 3500 
L 594 4494 
L 1172 4494 
z
" transform="scale(0.015625)"/>
       <path id="DejaVuSans-73" d="M 2834 3397 
L 2834 2853 
Q 2591 2978 2328 3040 
Q 2066 3103 1784 3103 
Q 1356 3103 1142 2972 
Q 928 2841 928 2578 
Q 928 2378 1081 2264 
Q 1234 2150 1697 2047 
L 1894 2003 
Q 2506 1872 2764 1633 
Q 3022 1394 3022 966 
Q 3022 478 2636 193 
Q 2250 -91 1575 -91 
Q 1294 -91 989 -36 
Q 684 19 347 128 
L 347 722 
Q 666 556 975 473 
Q 1284 391 1588 391 
Q 1994 391 2212 530 
Q 2431 669 2431 922 
Q 2431 1156 2273 1281 
Q 2116 1406 1581 1522 
L 1381 1569 
Q 847 1681 609 1914 
Q 372 2147 372 2553 
Q 372 3047 722 3315 
Q 1072 3584 1716 3584 
Q 2034 3584 2315 3537 
Q 2597 3491 2834 3397 
z
" transform="scale(0.015625)"/>
       <path id="DejaVuSans-29" d="M 513 4856 
L 1013 4856 
Q 1481 4119 1714 3412 
Q 1947 2706 1947 2009 
Q 1947 1309 1714 600 
Q 1481 -109 1013 -844 
L 513 -844 
Q 928 -128 1133 580 
Q 1338 1288 1338 2009 
Q 1338 2731 1133 3434 
Q 928 4138 513 4856 
z
" transform="scale(0.015625)"/>
      </defs>
      <use xlink:href="#DejaVuSans-54"/>
      <use xlink:href="#DejaVuSans-69" transform="translate(57.958984 0)"/>
      <use xlink:href="#DejaVuSans-6d" transform="translate(85.742188 0)"/>
      <use xlink:href="#DejaVuSans-65" transform="translate(183.154297 0)"/>
      <use xlink:href="#DejaVuSans-20" transform="translate(244.677734 0)"/>
      <use xlink:href="#DejaVuSans-28" transform="translate(276.464844 0)"/>
      <use xlink:href="#DejaVuSans-6d" transform="translate(315.478516 0)"/>
      <use xlink:href="#DejaVuSans-69" transform="translate(412.890625 0)"/>
      <use xlink:href="#DejaVuSans-6e" transform="translate(440.673828 0)"/>
      <use xlink:href="#DejaVuSans-75" transform="translate(504.052734 0)"/>
      <use xlink:href="#DejaVuSans-74" transform="translate(567.431641 0)"/>
      <use xlink:href="#DejaVuSans-65" transform="translate(606.640625 0)"/>
      <use xlink:href="#DejaVuSans-73" transform="translate(668.164062 0)"/>
      <use xlink:href="#DejaVuSans-29" transform="translate(720.263672 0)"/>
     </g>
    </g>
   </g>
   <g id="matplotlib.axis_2">
    <g id="ytick_1">
     <g id="line2d_17">
      <path d="M 47.81 290.994545 
L 450 290.994545 
" clip-path="url(#p5eb06c8acb)" style="fill: none; stroke: #b0b0b0; stroke-opacity: 0.3; stroke-width: 0.8; stroke-linecap: square"/>
     </g>
     <g id="line2d_18">
      <defs>
       <path id="mec8c36f2ea" d="M 0 0 
L -3.5 0 
" style="stroke: #000000; stroke-width: 0.8"/>
      </defs>
      <g>
       <use xlink:href="#mec8c36f2ea" x="47.81" y="290.994545" style="stroke: #000000; stroke-width: 0.8"/>
      </g>
     </g>
     <g id="text_10">
      <!-- 0.0 -->
      <g transform="translate(24.906875 294.793764) scale(0.1 -0.1)">
       <defs>
        <path id="DejaVuSans-2e" d="M 684 794 
L 1344 794 
L 1344 0 
L 684 0 
L 684 794 
z
" transform="scale(0.015625)"/>
       </defs>
       <use xlink:href="#DejaVuSans-30"/>
       <use xlink:href="#DejaVuSans-2e" transform="translate(63.623047 0)"/>
       <use xlink:href="#DejaVuSans-30" transform="translate(95.410156 0)"/>
      </g>
     </g>
    </g>
    <g id="ytick_2">
     <g id="line2d_19">
      <path d="M 47.81 258.514605 
L 450 258.514605 
" clip-path="url(#p5eb06c8acb)" style="fill: none; stroke: #b0b0b0; stroke-opacity: 0.3; stroke-width: 0.8; stroke-linecap: square"/>
     </g>
     <g id="line2d_20">
      <g>
       <use xlink:href="#mec8c36f2ea" x="47.81" y="258.514605" style="stroke: #000000; stroke-width: 0.8"/>
      </g>
     </g>
     <g id="text_11">
      <!-- 0.5 -->
      <g transform="translate(24.906875 262.313823) scale(0.1 -0.1)">
       <defs>
        <path id="DejaVuSans-35" d="M 691 4666 
L 3169 4666 
L 3169 4134 
L 1269 4134 
L 1269 2991 
Q 1406 3038 1543 3061 
Q 1681 3084 1819 3084 
Q 2600 3084 3056 2656 
Q 3513 2228 3513 1497 
Q 3513 744 3044 326 
Q 2575 -91 1722 -91 
Q 1428 -91 1123 -41 
Q 819 9 494 109 
L 494 744 
Q 775 591 1075 516 
Q 1375 441 1709 441 
Q 2250 441 2565 725 
Q 2881 1009 2881 1497 
Q 2881 1984 2565 2268 
Q 2250 2553 1709 2553 
Q 1456 2553 1204 2497 
Q 953 2441 691 2322 
L 691 4666 
z
" transform="scale(0.015625)"/>
       </defs>
       <use xlink:href="#DejaVuSans-30"/>
       <use xlink:href="#DejaVuSans-2e" transform="translate(63.623047 0)"/>
       <use xlink:href="#DejaVuSans-35" transform="translate(95.410156 0)"/>
      </g>
     </g>
    </g>
    <g id="ytick_3">
     <g id="line2d_21">
      <path d="M 47.81 226.034664 
L 450 226.034664 
" clip-path="url(#p5eb06c8acb)" style="fill: none; stroke: #b0b0b0; stroke-opacity: 0.3; stroke-width: 0.8; stroke-linecap: square"/>
     </g>
     <g id="line2d_22">
      <g>
       <use xlink:href="#mec8c36f2ea" x="47.81" y="226.034664" style="stroke: #000000; stroke-width: 0.8"/>
      </g>
     </g>
     <g id="text_12">
      <!-- 1.0 -->
      <g transform="translate(24.906875 229.833882) scale(0.1 -0.1)">
       <use xlink:href="#DejaVuSans-31"/>
       <use xlink:href="#DejaVuSans-2e" transform="translate(63.623047 0)"/>
       <use xlink:href="#DejaVuSans-30" transform="translate(95.410156 0)"/>
      </g>
     </g>
    </g>
    <g id="ytick_4">
     <g id="line2d_23">
      <path d="M 47.81 193.554723 
L 450 193.554723 
" clip-path="url(#p5eb06c8acb)" style="fill: none; stroke: #b0b0b0; stroke-opacity: 0.3; stroke-width: 0.8; stroke-linecap: square"/>
     </g>
     <g id="line2d_24">
      <g>
       <use xlink:href="#mec8c36f2ea" x="47.81" y="193.554723" style="stroke: #000000; stroke-width: 0.8"/>
      </g>
     </g>
     <g id="text_13">
      <!-- 1.5 -->
      <g transform="translate(24.906875 197.353941) scale(0.1 -0.1)">
       <use xlink:href="#DejaVuSans-31"/>
       <use xlink:href="#DejaVuSans-2e" transform="translate(63.623047 0)"/>
       <use xlink:href="#DejaVuSans-35" transform="translate(95.410156 0)"/>
      </g>
     </g>
    </g>
    <g id="ytick_5">
     <g id="line2d_25">
      <path d="M 47.81 161.074782 
L 450 161.074782 
" clip-path="url(#p5eb06c8acb)" style="fill: none; stroke: #b0b0b0; stroke-opacity: 0.3; stroke-width: 0.8; stroke-linecap: square"/>
     </g>
     <g id="line2d_26">
      <g>
       <use xlink:href="#mec8c36f2ea" x="47.81" y="161.074782" style="stroke: #000000; stroke-width: 0.8"/>
      </g>
     </g>
     <g id="text_14">
      <!-- 2.0 -->
      <g transform="translate(24.906875 164.874001) scale(0.1 -0.1)">
       <use xlink:href="#DejaVuSans-32"/>
       <use xlink:href="#DejaVuSans-2e" transform="translate(63.623047 0)"/>
       <use xlink:href="#DejaVuSans-30" transform="translate(95.410156 0)"/>
      </g>
     </g>
    </g>
    <g id="ytick_6">
     <g id="line2d_27">
      <path d="M 47.81 128.594841 
L 450 128.594841 
" clip-path="url(#p5eb06c8acb)" style="fill: none; stroke: #b0b0b0; stroke-opacity: 0.3; stroke-width: 0.8; stroke-linecap: square"/>
     </g>
     <g id="line2d_28">
      <g>
       <use xlink:href="#mec8c36f2ea" x="47.81" y="128.594841" style="stroke: #000000; stroke-width: 0.8"/>
      </g>
     </g>
     <g id="text_15">
      <!-- 2.5 -->
      <g transform="translate(24.906875 132.39406) scale(0.1 -0.1)">
       <use xlink:href="#DejaVuSans-32"/>
       <use xlink:href="#DejaVuSans-2e" transform="translate(63.623047 0)"/>
       <use xlink:href="#DejaVuSans-35" transform="translate(95.410156 0)"/>
      </g>
     </g>
    </g>
    <g id="ytick_7">
     <g id="line2d_29">
      <path d="M 47.81 96.1149 
L 450 96.1149 
" clip-path="url(#p5eb06c8acb)" style="fill: none; stroke: #b0b0b0; stroke-opacity: 0.3; stroke-width: 0.8; stroke-linecap: square"/>
     </g>
     <g id="line2d_30">
      <g>
       <use xlink:href="#mec8c36f2ea" x="47.81" y="96.1149" style="stroke: #000000; stroke-width: 0.8"/>
      </g>
     </g>
     <g id="text_16">
      <!-- 3.0 -->
      <g transform="translate(24.906875 99.914119) scale(0.1 -0.1)">
       <defs>
        <path id="DejaVuSans-33" d="M 2597 2516 
Q 3050 2419 3304 2112 
Q 3559 1806 3559 1356 
Q 3559 666 3084 287 
Q 2609 -91 1734 -91 
Q 1441 -91 1130 -33 
Q 819 25 488 141 
L 488 750 
Q 750 597 1062 519 
Q 1375 441 1716 441 
Q 2309 441 2620 675 
Q 2931 909 2931 1356 
Q 2931 1769 2642 2001 
Q 2353 2234 1838 2234 
L 1294 2234 
L 1294 2753 
L 1863 2753 
Q 2328 2753 2575 2939 
Q 2822 3125 2822 3475 
Q 2822 3834 2567 4026 
Q 2313 4219 1838 4219 
Q 1578 4219 1281 4162 
Q 984 4106 628 3988 
L 628 4550 
Q 988 4650 1302 4700 
Q 1616 4750 1894 4750 
Q 2613 4750 3031 4423 
Q 3450 4097 3450 3541 
Q 3450 3153 3228 2886 
Q 3006 2619 2597 2516 
z
" transform="scale(0.015625)"/>
       </defs>
       <use xlink:href="#DejaVuSans-33"/>
       <use xlink:href="#DejaVuSans-2e" transform="translate(63.623047 0)"/>
       <use xlink:href="#DejaVuSans-30" transform="translate(95.410156 0)"/>
      </g>
     </g>
    </g>
    <g id="ytick_8">
     <g id="line2d_31">
      <path d="M 47.81 63.634959 
L 450 63.634959 
" clip-path="url(#p5eb06c8acb)" style="fill: none; stroke: #b0b0b0; stroke-opacity: 0.3; stroke-width: 0.8; stroke-linecap: square"/>
     </g>
     <g id="line2d_32">
      <g>
       <use xlink:href="#mec8c36f2ea" x="47.81" y="63.634959" style="stroke: #000000; stroke-width: 0.8"/>
      </g>
     </g>
     <g id="text_17">
      <!-- 3.5 -->
      <g transform="translate(24.906875 67.434178) scale(0.1 -0.1)">
       <use xlink:href="#DejaVuSans-33"/>
       <use xlink:href="#DejaVuSans-2e" transform="translate(63.623047 0)"/>
       <use xlink:href="#DejaVuSans-35" transform="translate(95.410156 0)"/>
      </g>
     </g>
    </g>
    <g id="ytick_9">
     <g id="line2d_33">
      <path d="M 47.81 31.155018 
L 450 31.155018 
" clip-path="url(#p5eb06c8acb)" style="fill: none; stroke: #b0b0b0; stroke-opacity: 0.3; stroke-width: 0.8; stroke-linecap: square"/>
     </g>
     <g id="line2d_34">
      <g>
       <use xlink:href="#mec8c36f2ea" x="47.81" y="31.155018" style="stroke: #000000; stroke-width: 0.8"/>
      </g>
     </g>
     <g id="text_18">
      <!-- 4.0 -->
      <g transform="translate(24.906875 34.954237) scale(0.1 -0.1)">
       <use xlink:href="#DejaVuSans-34"/>
       <use xlink:href="#DejaVuSans-2e" transform="translate(63.623047 0)"/>
       <use xlink:href="#DejaVuSans-30" transform="translate(95.410156 0)"/>
      </g>
     </g>
    </g>
    <g id="text_19">
     <!-- Gaussian filtered EDA (μS) -->
     <g transform="translate(18.827188 230.613437) rotate(-90) scale(0.1 -0.1)">
      <defs>
       <path id="DejaVuSans-47" d="M 3809 666 
L 3809 1919 
L 2778 1919 
L 2778 2438 
L 4434 2438 
L 4434 434 
Q 4069 175 3628 42 
Q 3188 -91 2688 -91 
Q 1594 -91 976 548 
Q 359 1188 359 2328 
Q 359 3472 976 4111 
Q 1594 4750 2688 4750 
Q 3144 4750 3555 4637 
Q 3966 4525 4313 4306 
L 4313 3634 
Q 3963 3931 3569 4081 
Q 3175 4231 2741 4231 
Q 1884 4231 1454 3753 
Q 1025 3275 1025 2328 
Q 1025 1384 1454 906 
Q 1884 428 2741 428 
Q 3075 428 3337 486 
Q 3600 544 3809 666 
z
" transform="scale(0.015625)"/>
       <path id="DejaVuSans-61" d="M 2194 1759 
Q 1497 1759 1228 1600 
Q 959 1441 959 1056 
Q 959 750 1161 570 
Q 1363 391 1709 391 
Q 2188 391 2477 730 
Q 2766 1069 2766 1631 
L 2766 1759 
L 2194 1759 
z
M 3341 1997 
L 3341 0 
L 2766 0 
L 2766 531 
Q 2569 213 2275 61 
Q 1981 -91 1556 -91 
Q 1019 -91 701 211 
Q 384 513 384 1019 
Q 384 1609 779 1909 
Q 1175 2209 1959 2209 
L 2766 2209 
L 2766 2266 
Q 2766 2663 2505 2880 
Q 2244 3097 1772 3097 
Q 1472 3097 1187 3025 
Q 903 2953 641 2809 
L 641 3341 
Q 956 3463 1253 3523 
Q 1550 3584 1831 3584 
Q 2591 3584 2966 3190 
Q 3341 2797 3341 1997 
z
" transform="scale(0.015625)"/>
       <path id="DejaVuSans-66" d="M 2375 4863 
L 2375 4384 
L 1825 4384 
Q 1516 4384 1395 4259 
Q 1275 4134 1275 3809 
L 1275 3500 
L 2222 3500 
L 2222 3053 
L 1275 3053 
L 1275 0 
L 697 0 
L 697 3053 
L 147 3053 
L 147 3500 
L 697 3500 
L 697 3744 
Q 697 4328 969 4595 
Q 1241 4863 1831 4863 
L 2375 4863 
z
" transform="scale(0.015625)"/>
       <path id="DejaVuSans-6c" d="M 603 4863 
L 1178 4863 
L 1178 0 
L 603 0 
L 603 4863 
z
" transform="scale(0.015625)"/>
       <path id="DejaVuSans-72" d="M 2631 2963 
Q 2534 3019 2420 3045 
Q 2306 3072 2169 3072 
Q 1681 3072 1420 2755 
Q 1159 2438 1159 1844 
L 1159 0 
L 581 0 
L 581 3500 
L 1159 3500 
L 1159 2956 
Q 1341 3275 1631 3429 
Q 1922 3584 2338 3584 
Q 2397 3584 2469 3576 
Q 2541 3569 2628 3553 
L 2631 2963 
z
" transform="scale(0.015625)"/>
       <path id="DejaVuSans-64" d="M 2906 2969 
L 2906 4863 
L 3481 4863 
L 3481 0 
L 2906 0 
L 2906 525 
Q 2725 213 2448 61 
Q 2172 -91 1784 -91 
Q 1150 -91 751 415 
Q 353 922 353 1747 
Q 353 2572 751 3078 
Q 1150 3584 1784 3584 
Q 2172 3584 2448 3432 
Q 2725 3281 2906 2969 
z
M 947 1747 
Q 947 1113 1208 752 
Q 1469 391 1925 391 
Q 2381 391 2643 752 
Q 2906 1113 2906 1747 
Q 2906 2381 2643 2742 
Q 2381 3103 1925 3103 
Q 1469 3103 1208 2742 
Q 947 2381 947 1747 
z
" transform="scale(0.015625)"/>
       <path id="DejaVuSans-45" d="M 628 4666 
L 3578 4666 
L 3578 4134 
L 1259 4134 
L 1259 2753 
L 3481 2753 
L 3481 2222 
L 1259 2222 
L 1259 531 
L 3634 531 
L 3634 0 
L 628 0 
L 628 4666 
z
" transform="scale(0.015625)"/>
       <path id="DejaVuSans-44" d="M 1259 4147 
L 1259 519 
L 2022 519 
Q 2988 519 3436 956 
Q 3884 1394 3884 2338 
Q 3884 3275 3436 3711 
Q 2988 4147 2022 4147 
L 1259 4147 
z
M 628 4666 
L 1925 4666 
Q 3281 4666 3915 4102 
Q 4550 3538 4550 2338 
Q 4550 1131 3912 565 
Q 3275 0 1925 0 
L 628 0 
L 628 4666 
z
" transform="scale(0.015625)"/>
       <path id="DejaVuSans-41" d="M 2188 4044 
L 1331 1722 
L 3047 1722 
L 2188 4044 
z
M 1831 4666 
L 2547 4666 
L 4325 0 
L 3669 0 
L 3244 1197 
L 1141 1197 
L 716 0 
L 50 0 
L 1831 4666 
z
" transform="scale(0.015625)"/>
       <path id="DejaVuSans-3bc" d="M 544 -1331 
L 544 3500 
L 1119 3500 
L 1119 1325 
Q 1119 872 1334 640 
Q 1550 409 1972 409 
Q 2434 409 2667 671 
Q 2900 934 2900 1459 
L 2900 3500 
L 3475 3500 
L 3475 806 
Q 3475 619 3529 530 
Q 3584 441 3700 441 
Q 3728 441 3778 458 
Q 3828 475 3916 513 
L 3916 50 
Q 3788 -22 3673 -56 
Q 3559 -91 3450 -91 
Q 3234 -91 3106 31 
Q 2978 153 2931 403 
Q 2775 156 2548 32 
Q 2322 -91 2016 -91 
Q 1697 -91 1473 31 
Q 1250 153 1119 397 
L 1119 -1331 
L 544 -1331 
z
" transform="scale(0.015625)"/>
       <path id="DejaVuSans-53" d="M 3425 4513 
L 3425 3897 
Q 3066 4069 2747 4153 
Q 2428 4238 2131 4238 
Q 1616 4238 1336 4038 
Q 1056 3838 1056 3469 
Q 1056 3159 1242 3001 
Q 1428 2844 1947 2747 
L 2328 2669 
Q 3034 2534 3370 2195 
Q 3706 1856 3706 1288 
Q 3706 609 3251 259 
Q 2797 -91 1919 -91 
Q 1588 -91 1214 -16 
Q 841 59 441 206 
L 441 856 
Q 825 641 1194 531 
Q 1563 422 1919 422 
Q 2459 422 2753 634 
Q 3047 847 3047 1241 
Q 3047 1584 2836 1778 
Q 2625 1972 2144 2069 
L 1759 2144 
Q 1053 2284 737 2584 
Q 422 2884 422 3419 
Q 422 4038 858 4394 
Q 1294 4750 2059 4750 
Q 2388 4750 2728 4690 
Q 3069 4631 3425 4513 
z
" transform="scale(0.015625)"/>
      </defs>
      <use xlink:href="#DejaVuSans-47"/>
      <use xlink:href="#DejaVuSans-61" transform="translate(77.490234 0)"/>
      <use xlink:href="#DejaVuSans-75" transform="translate(138.769531 0)"/>
      <use xlink:href="#DejaVuSans-73" transform="translate(202.148438 0)"/>
      <use xlink:href="#DejaVuSans-73" transform="translate(254.248047 0)"/>
      <use xlink:href="#DejaVuSans-69" transform="translate(306.347656 0)"/>
      <use xlink:href="#DejaVuSans-61" transform="translate(334.130859 0)"/>
      <use xlink:href="#DejaVuSans-6e" transform="translate(395.410156 0)"/>
      <use xlink:href="#DejaVuSans-20" transform="translate(458.789062 0)"/>
      <use xlink:href="#DejaVuSans-66" transform="translate(490.576172 0)"/>
      <use xlink:href="#DejaVuSans-69" transform="translate(525.78125 0)"/>
      <use xlink:href="#DejaVuSans-6c" transform="translate(553.564453 0)"/>
      <use xlink:href="#DejaVuSans-74" transform="translate(581.347656 0)"/>
      <use xlink:href="#DejaVuSans-65" transform="translate(620.556641 0)"/>
      <use xlink:href="#DejaVuSans-72" transform="translate(682.080078 0)"/>
      <use xlink:href="#DejaVuSans-65" transform="translate(720.943359 0)"/>
      <use xlink:href="#DejaVuSans-64" transform="translate(782.466797 0)"/>
      <use xlink:href="#DejaVuSans-20" transform="translate(845.943359 0)"/>
      <use xlink:href="#DejaVuSans-45" transform="translate(877.730469 0)"/>
      <use xlink:href="#DejaVuSans-44" transform="translate(940.914062 0)"/>
      <use xlink:href="#DejaVuSans-41" transform="translate(1016.166016 0)"/>
      <use xlink:href="#DejaVuSans-20" transform="translate(1084.574219 0)"/>
      <use xlink:href="#DejaVuSans-28" transform="translate(1116.361328 0)"/>
      <use xlink:href="#DejaVuSans-3bc" transform="translate(1155.375 0)"/>
      <use xlink:href="#DejaVuSans-53" transform="translate(1218.998047 0)"/>
      <use xlink:href="#DejaVuSans-29" transform="translate(1282.474609 0)"/>
     </g>
    </g>
   </g>
   <g id="line2d_35">
    <path d="M 66.091364 98.86433 
L 66.599462 100.023423 
L 67.209179 102.055702 
L 69.44481 110.684523 
L 70.461006 113.807297 
L 71.477202 116.236524 
L 72.290158 118.239416 
L 72.696637 119.846937 
L 73.306354 123.425494 
L 73.916072 126.500279 
L 74.729029 129.026088 
L 75.541985 131.049655 
L 76.659801 133.280166 
L 77.472757 135.486918 
L 78.082475 136.353834 
L 78.997051 137.795334 
L 79.810008 138.90539 
L 80.521345 139.857174 
L 81.435921 141.444024 
L 81.74078 141.550717 
L 82.248878 141.440642 
L 83.061835 141.138523 
L 83.366693 141.300378 
L 83.874791 141.907601 
L 84.789368 143.488378 
L 85.602324 144.642928 
L 87.126618 146.58622 
L 87.329857 147.33498 
L 87.533096 149.086823 
L 87.837955 154.961697 
L 88.346053 172.388366 
L 88.752531 183.881148 
L 89.05739 187.775252 
L 89.362249 189.083943 
L 89.667108 189.474202 
L 91.191402 190.525944 
L 91.699499 190.857328 
L 92.309217 191.620055 
L 94.341609 194.413107 
L 94.646467 194.526601 
L 94.951326 194.369307 
L 95.459424 193.686042 
L 95.865903 193.26302 
L 96.170761 193.230136 
L 96.57724 193.487328 
L 97.898294 194.769789 
L 99.01611 196.495791 
L 100.540404 199.149918 
L 100.743643 199.087768 
L 100.946882 198.65717 
L 101.150121 197.65807 
L 101.45498 194.779182 
L 102.572795 181.214552 
L 102.877654 180.185964 
L 103.080893 180.00009 
L 103.284132 180.055945 
L 103.690611 180.546861 
L 104.503567 181.668334 
L 105.113285 182.003793 
L 105.519763 182.327822 
L 107.044057 184.006996 
L 107.552155 184.258121 
L 107.755394 184.164814 
L 107.958633 183.64867 
L 108.161873 182.155365 
L 108.365112 178.753151 
L 108.66997 167.476134 
L 109.076449 137.70095 
L 109.889405 68.514403 
L 110.295884 52.069884 
L 110.600743 46.482589 
L 110.905601 44.113177 
L 111.21046 43.356721 
L 111.515319 43.157146 
L 111.718558 43.153309 
L 111.921797 43.385793 
L 112.125036 44.05896 
L 112.429895 46.050019 
L 112.937993 49.791345 
L 113.141232 50.298087 
L 113.242852 50.234557 
L 113.446091 49.524619 
L 113.852569 46.637973 
L 114.360667 43.210204 
L 114.665526 42.295979 
L 114.868765 42.143699 
L 115.072004 42.23572 
L 115.376863 42.705218 
L 115.681722 43.703584 
L 115.986581 45.54976 
L 116.596298 51.361193 
L 116.901157 53.56618 
L 117.104396 53.897142 
L 117.307635 53.095871 
L 117.612494 50.231969 
L 118.222212 44.517955 
L 118.52707 43.624577 
L 118.73031 43.655309 
L 119.035168 44.215392 
L 119.644886 46.038004 
L 120.152984 48.249287 
L 120.762701 50.752933 
L 120.96594 51.010711 
L 121.16918 50.922038 
L 121.474038 50.362106 
L 121.982136 49.389138 
L 122.286995 49.242069 
L 122.490234 49.373095 
L 122.693473 49.719442 
L 122.998332 50.831927 
L 123.303191 52.937254 
L 124.217767 60.765152 
L 124.522626 61.429921 
L 124.725865 61.347988 
L 125.030724 60.827466 
L 126.453398 57.461767 
L 127.469594 54.797214 
L 127.672833 54.719367 
L 127.977692 54.885918 
L 128.587409 55.680959 
L 129.095507 56.227926 
L 129.501986 56.327452 
L 129.806844 56.192349 
L 130.111703 55.860965 
L 130.416562 55.234454 
L 130.82304 53.807881 
L 131.635997 50.688787 
L 132.347334 48.92633 
L 132.550573 48.776692 
L 132.753812 49.056611 
L 133.058671 50.42849 
L 133.770008 54.639136 
L 133.973248 55.01159 
L 134.176487 54.994255 
L 134.786204 54.475349 
L 134.989443 54.544064 
L 135.395922 55.051503 
L 136.310498 56.734408 
L 136.920216 58.334738 
L 137.834792 61.065176 
L 138.749368 62.599535 
L 139.257466 64.095042 
L 139.359086 64.150729 
L 139.460705 64.053789 
L 139.663944 63.378209 
L 140.578521 58.703915 
L 140.78176 58.633358 
L 141.188238 58.732 
L 141.391477 58.53073 
L 142.001195 57.534022 
L 142.102814 57.557512 
L 142.306054 57.963515 
L 142.610912 59.540748 
L 143.423869 64.62673 
L 143.627108 64.880137 
L 143.830347 64.811017 
L 144.338445 64.513017 
L 144.643304 64.626245 
L 145.151402 65.147742 
L 145.862739 65.904903 
L 146.269217 65.958159 
L 146.777315 65.711186 
L 147.488653 65.180609 
L 147.691892 65.454093 
L 147.895131 66.311349 
L 148.19999 68.960485 
L 149.012946 77.840208 
L 149.216186 78.485316 
L 149.317805 78.513243 
L 149.724283 78.016894 
L 149.825903 78.141332 
L 150.029142 79.147103 
L 150.334001 82.548641 
L 150.943718 89.820547 
L 151.146958 90.398976 
L 151.248577 90.184142 
L 151.451816 88.7645 
L 151.858295 83.080511 
L 152.468012 74.923996 
L 152.772871 73.087825 
L 153.07773 72.423452 
L 153.280969 72.357926 
L 153.484208 72.482486 
L 153.789067 72.96506 
L 154.195545 74.164299 
L 154.602024 76.333623 
L 155.5166 82.400777 
L 155.618219 82.181797 
L 155.821459 80.965543 
L 157.040894 71.070594 
L 157.85385 67.236035 
L 158.463568 64.166719 
L 158.768427 63.553195 
L 158.971666 63.588417 
L 159.174905 63.981195 
L 159.479764 65.20022 
L 159.987862 68.459653 
L 160.39434 72.343084 
L 161.308916 83.364162 
L 161.410536 83.222629 
L 161.613775 81.637136 
L 162.528351 70.994017 
L 162.83321 70.284604 
L 163.138069 70.270709 
L 163.646167 70.333518 
L 164.357504 70.310169 
L 165.068841 70.3527 
L 165.678559 70.287579 
L 165.983417 70.551468 
L 166.491515 71.091867 
L 166.796374 71.078792 
L 167.304472 70.851285 
L 167.507711 70.957463 
L 167.81257 71.429136 
L 168.625527 72.994058 
L 169.032005 73.305385 
L 169.438483 73.373869 
L 170.25144 73.342508 
L 170.657918 73.636726 
L 170.962777 74.213652 
L 171.267636 75.544317 
L 171.572495 78.108867 
L 172.385451 85.967559 
L 172.58869 86.170029 
L 172.79193 85.719463 
L 173.401647 83.967197 
L 174.112984 82.478503 
L 175.637278 77.840523 
L 177.466431 69.540314 
L 178.482626 60.877155 
L 178.685866 60.667522 
L 178.889105 61.02441 
L 179.295583 62.685714 
L 179.905301 65.081727 
L 180.210159 65.501635 
L 180.413399 65.350756 
L 180.616638 64.830911 
L 181.023116 62.859904 
L 181.937692 57.817815 
L 182.344171 56.948819 
L 182.750649 56.055488 
L 183.461986 54.088176 
L 183.563606 54.147099 
L 183.766845 54.699816 
L 184.173323 57.084004 
L 184.681421 59.976565 
L 184.98628 60.812935 
L 185.189519 61.009243 
L 185.392758 60.965878 
L 185.697617 60.563056 
L 186.205715 59.87959 
L 186.408954 59.951814 
L 187.018672 60.592328 
L 187.221911 60.209065 
L 187.52677 58.74947 
L 187.933248 56.994475 
L 188.034868 57.098851 
L 188.238107 58.434008 
L 188.542966 63.202917 
L 189.051063 72.022669 
L 189.254303 73.022111 
L 189.355922 72.785891 
L 189.559161 71.119362 
L 190.575357 59.752711 
L 192.099651 48.772719 
L 192.506129 46.560041 
L 192.709369 46.107714 
L 192.912608 46.067935 
L 193.115847 46.334657 
L 193.725564 47.450808 
L 193.928804 47.487956 
L 194.132043 47.244638 
L 194.436902 46.289127 
L 195.453097 41.974581 
L 195.656337 42.302942 
L 196.570913 44.644419 
L 196.774152 44.641829 
L 197.079011 44.30108 
L 197.790348 43.377768 
L 198.095207 43.028485 
L 198.400065 42.258243 
L 198.908163 40.006477 
L 199.314642 38.369669 
L 199.517881 38.085455 
L 199.6195 38.158915 
L 199.82274 38.786041 
L 200.229218 41.488882 
L 200.838936 45.376333 
L 201.245414 46.685348 
L 201.550273 47.102491 
L 201.753512 47.036819 
L 201.956751 46.612117 
L 202.26161 45.305427 
L 202.972947 41.891805 
L 203.277806 41.481966 
L 203.481045 41.545522 
L 203.989143 42.139315 
L 204.70048 42.814856 
L 205.208578 43.377125 
L 207.03773 46.098565 
L 208.257165 48.36746 
L 209.67984 50.500076 
L 210.696035 51.608909 
L 211.508992 52.17499 
L 212.626808 52.643168 
L 213.134906 52.874091 
L 213.541384 53.393918 
L 214.55758 55.098117 
L 216.081874 56.77291 
L 217.707787 58.84254 
L 218.215885 60.163639 
L 218.723983 61.357221 
L 219.028842 61.552093 
L 219.3337 61.361275 
L 220.248277 60.37762 
L 220.654755 60.352561 
L 221.467712 60.631506 
L 222.280668 61.17152 
L 223.398484 61.915519 
L 224.109821 62.104762 
L 225.126017 62.325356 
L 225.938973 62.880877 
L 227.158408 63.797955 
L 227.768126 64.718971 
L 228.784322 66.240701 
L 229.394039 66.835658 
L 229.800518 66.985648 
L 230.918333 67.021314 
L 231.528051 67.547676 
L 232.544247 68.384272 
L 234.475019 69.838235 
L 235.186356 70.299395 
L 236.60903 71.008728 
L 238.641422 72.166989 
L 239.14952 72.087738 
L 239.759237 71.991859 
L 240.673813 71.985294 
L 241.283531 71.940254 
L 241.791629 72.20388 
L 244.02726 73.743725 
L 245.145075 74.188511 
L 245.754793 74.53205 
L 246.161271 74.950022 
L 246.46613 75.507334 
L 246.872608 76.7703 
L 247.279087 78.052402 
L 247.482326 78.204452 
L 247.685565 77.847512 
L 248.092043 76.088319 
L 248.498522 74.568975 
L 248.80338 74.19119 
L 249.00662 74.221197 
L 249.311478 74.505004 
L 249.819576 75.346203 
L 251.039011 77.559412 
L 252.055207 78.744963 
L 253.071403 79.674046 
L 256.831328 82.535625 
L 258.457241 83.557223 
L 259.066959 83.930043 
L 259.473437 83.951134 
L 259.879915 83.708848 
L 260.489633 83.292982 
L 260.896111 83.327428 
L 261.20097 83.336578 
L 261.505829 83.102209 
L 262.522025 81.846924 
L 262.826883 82.030733 
L 264.757656 84.000429 
L 265.164134 83.96382 
L 266.281949 83.427342 
L 266.688428 83.635367 
L 267.603004 84.472688 
L 269.838635 86.452704 
L 270.245113 86.465998 
L 271.261309 86.323799 
L 271.667787 86.589239 
L 274.716375 89.30962 
L 275.529332 89.701546 
L 276.952006 90.085692 
L 277.561723 90.333462 
L 280.102213 91.966059 
L 281.931366 93.082777 
L 282.236224 93.084384 
L 282.541083 92.860875 
L 283.25242 92.237948 
L 283.557279 92.315784 
L 284.065377 92.837496 
L 284.979953 93.817533 
L 285.69129 94.25828 
L 286.301008 94.399542 
L 287.215584 94.549163 
L 287.926921 94.727401 
L 288.3334 94.573423 
L 289.146356 94.136752 
L 289.552835 94.265329 
L 290.365791 94.897435 
L 291.890085 96.093895 
L 292.703042 96.578196 
L 294.125716 97.608583 
L 295.65001 98.201837 
L 296.971064 98.759362 
L 299.613174 99.892802 
L 301.239087 100.439801 
L 301.543946 100.36892 
L 301.848805 100.067068 
L 302.763381 98.846759 
L 303.373098 98.444922 
L 303.677957 97.735553 
L 304.084436 96.0041 
L 304.999012 90.626825 
L 305.50711 87.964253 
L 305.710349 87.506402 
L 305.913588 87.474788 
L 306.218447 87.942911 
L 306.726545 88.775113 
L 307.641121 89.788217 
L 308.454078 91.380414 
L 309.063795 92.448276 
L 309.368654 92.586702 
L 309.571893 92.400187 
L 309.876752 91.60528 
L 310.28323 89.66615 
L 311.502665 83.17823 
L 311.705905 82.947323 
L 311.909144 83.019776 
L 312.315622 83.620929 
L 312.82372 84.331676 
L 313.128579 84.451992 
L 313.331818 84.312113 
L 313.636677 83.704545 
L 314.957731 79.740863 
L 315.36421 76.157753 
L 315.872308 71.685959 
L 316.075547 71.063885 
L 316.177166 71.075768 
L 316.380406 71.714002 
L 316.685264 73.913306 
L 317.904699 84.429883 
L 318.514417 87.3194 
L 319.124134 89.132719 
L 319.632232 89.993476 
L 320.14033 90.399857 
L 320.445189 90.3977 
L 320.648428 90.188217 
L 320.953287 89.403838 
L 321.461385 87.001729 
L 322.477581 82.062248 
L 322.884059 80.862403 
L 323.188918 80.551255 
L 323.493777 80.61499 
L 324.205114 80.896192 
L 325.322929 81.020646 
L 326.034266 80.87618 
L 326.440745 81.099703 
L 327.863419 82.232639 
L 328.168278 82.153899 
L 328.574756 81.620418 
L 328.879615 81.285527 
L 329.082854 81.363023 
L 329.286093 81.784641 
L 329.692571 83.437255 
L 330.200669 85.291276 
L 330.403908 85.459016 
L 330.607148 85.178479 
L 330.912006 83.929822 
L 331.420104 80.325055 
L 332.334681 73.840093 
L 334.163833 62.876155 
L 334.468692 62.578358 
L 334.87517 62.474454 
L 335.078409 62.076062 
L 335.383268 60.691068 
L 335.789747 57.477648 
L 337.110801 45.899566 
L 337.41566 44.60797 
L 337.618899 44.309744 
L 337.720519 44.355767 
L 337.923758 44.828364 
L 338.330236 46.896024 
L 339.244813 52.070492 
L 339.651291 53.121185 
L 339.95615 53.328319 
L 340.159389 53.250018 
L 340.362628 52.981719 
L 340.565867 52.428551 
L 340.870726 50.746576 
L 341.277204 46.704801 
L 341.785302 41.888289 
L 341.988541 41.290288 
L 342.090161 41.349719 
L 342.2934 42.078251 
L 342.903118 46.289366 
L 343.411216 48.851561 
L 344.020933 50.637244 
L 344.83389 52.243026 
L 346.154944 54.568581 
L 347.069521 55.845707 
L 347.780858 56.783744 
L 348.288956 57.072841 
L 349.71163 57.547568 
L 350.524587 58.07343 
L 351.032685 58.09582 
L 351.642402 57.899048 
L 352.04888 57.575837 
L 352.861837 56.807248 
L 353.166696 56.861126 
L 353.674794 57.30039 
L 354.182892 57.726812 
L 354.386131 57.73849 
L 354.58937 57.571123 
L 354.894229 56.917007 
L 356.316903 52.826641 
L 356.723381 52.376971 
L 356.926621 52.434943 
L 357.231479 52.858992 
L 357.637958 53.340167 
L 357.841197 53.154392 
L 358.044436 52.488351 
L 358.349295 50.435345 
L 358.959012 45.480448 
L 359.060632 45.278065 
L 359.162252 45.37948 
L 359.365491 46.434045 
L 359.873589 51.551845 
L 360.483306 56.732835 
L 361.194643 60.878773 
L 361.804361 63.232272 
L 362.515698 65.029972 
L 363.328655 67.003445 
L 364.751329 70.916573 
L 365.564285 72.312732 
L 366.377242 73.316852 
L 367.291818 74.100358 
L 367.901536 74.425764 
L 368.308014 74.413724 
L 369.120971 74.070122 
L 369.32421 74.424888 
L 369.730689 75.867391 
L 370.238786 77.481018 
L 371.76308 80.390673 
L 372.779276 81.471224 
L 373.998711 82.588604 
L 375.624625 85.657279 
L 376.335962 86.453727 
L 377.047299 86.880031 
L 377.352158 86.830144 
L 377.657016 86.518711 
L 378.266734 85.838748 
L 378.571593 85.886697 
L 379.07969 86.368349 
L 380.603984 88.172378 
L 382.433137 90.714815 
L 384.05905 92.893236 
L 384.668768 93.679723 
L 385.684964 94.438501 
L 386.59954 95.299584 
L 387.717355 96.208551 
L 391.5789 99.276749 
L 392.696715 100.258693 
L 395.338824 101.908326 
L 401.23276 104.4914 
L 403.468391 105.699507 
L 404.382968 106.074804 
L 405.500783 106.347796 
L 406.720218 106.977176 
L 408.041273 107.019731 
L 408.75261 107.086716 
L 409.463947 107.419051 
L 410.581762 108.032704 
L 413.427111 108.922365 
L 414.849785 109.489834 
L 415.9676 109.817893 
L 416.882177 110.186796 
L 417.593514 110.436607 
L 418.304851 111.03094 
L 419.117808 111.618116 
L 420.235623 112.091267 
L 422.166395 112.676492 
L 423.080971 113.257791 
L 424.605265 114.242312 
L 426.129559 114.833353 
L 427.247375 115.064219 
L 427.857092 115.429909 
L 429.381386 116.556416 
L 429.991103 116.724183 
L 430.70244 116.857658 
L 431.718636 117.470646 
L 431.718636 117.470646 
" clip-path="url(#p5eb06c8acb)" style="fill: none; stroke-dasharray: 1.85,0.8; stroke-dashoffset: 0; stroke: #1f77b4; stroke-width: 0.5"/>
   </g>
   <g id="line2d_36">
    <path d="M 66.091364 98.874257 
L 68.428614 107.096593 
L 70.969104 116.216009 
L 73.712833 126.239997 
L 74.932268 129.839302 
L 76.151703 132.742598 
L 77.574377 135.546112 
L 79.606769 139.035526 
L 80.724584 140.547468 
L 81.537541 141.290873 
L 82.147258 141.588189 
L 82.756976 141.638638 
L 83.468313 141.698533 
L 83.874791 141.954779 
L 84.28127 142.515356 
L 84.687748 143.494554 
L 85.195846 145.481353 
L 85.703944 148.524049 
L 86.313661 153.883366 
L 87.024998 162.779983 
L 88.244434 181.892607 
L 89.463869 200.099929 
L 90.175206 207.632308 
L 90.581684 210.259268 
L 90.886543 211.31229 
L 91.191402 211.6648 
L 91.394641 211.557132 
L 91.699499 210.951364 
L 92.105978 209.460843 
L 92.715695 206.215207 
L 94.341609 196.955017 
L 94.748087 195.705982 
L 95.052946 195.23282 
L 95.357805 195.103443 
L 95.662663 195.266494 
L 96.069142 195.850018 
L 96.678859 197.262577 
L 98.203153 201.118127 
L 98.609631 201.622145 
L 98.91449 201.722244 
L 99.219349 201.605882 
L 99.625827 201.181287 
L 100.235545 200.154408 
L 101.658219 197.552922 
L 102.064697 197.171972 
L 102.369556 197.097891 
L 102.674415 197.248455 
L 103.080893 197.82773 
L 103.690611 199.242285 
L 104.808426 201.979875 
L 105.214904 202.522279 
L 105.519763 202.620695 
L 105.723002 202.503785 
L 106.027861 202.007081 
L 106.33272 201.067701 
L 106.739198 199.015617 
L 107.247296 195.020287 
L 107.857014 188.240569 
L 108.66997 176.208998 
L 109.686166 157.126558 
L 110.905601 129.701365 
L 113.446091 70.965318 
L 114.259048 57.962316 
L 114.767146 52.621877 
L 115.173624 50.200742 
L 115.478483 49.416981 
L 115.681722 49.326478 
L 115.884961 49.544576 
L 116.18982 50.380974 
L 116.596298 52.280264 
L 117.307635 57.047989 
L 118.831929 67.783781 
L 119.340027 69.791988 
L 119.746505 70.613502 
L 120.051364 70.841551 
L 120.356223 70.786852 
L 120.661082 70.494315 
L 121.16918 69.600203 
L 121.982136 67.57388 
L 122.998332 65.15757 
L 123.50643 64.427623 
L 124.014528 64.022497 
L 124.624246 63.830405 
L 126.555018 63.520676 
L 127.063116 63.05537 
L 127.571214 62.274863 
L 128.38417 60.53289 
L 130.619801 55.379242 
L 131.229519 54.605555 
L 131.737617 54.345075 
L 132.144095 54.362572 
L 132.652193 54.62236 
L 133.26191 55.213217 
L 134.176487 56.479971 
L 136.920216 60.547704 
L 141.594717 66.580536 
L 142.306054 67.088835 
L 142.915771 67.253342 
L 143.423869 67.154578 
L 144.135206 66.702042 
L 145.151402 66.05925 
L 145.55788 66.016599 
L 145.964359 66.200949 
L 146.370837 66.681934 
L 146.777315 67.529185 
L 147.285413 69.209394 
L 147.895131 72.256112 
L 148.809707 78.33007 
L 150.63886 90.772223 
L 151.248577 93.48983 
L 151.655056 94.550247 
L 151.959914 94.923745 
L 152.264773 94.977232 
L 152.569632 94.75005 
L 152.97611 94.078542 
L 153.585828 92.470849 
L 154.703643 88.605737 
L 155.618219 85.696587 
L 156.227937 84.356849 
L 156.837655 83.511889 
L 157.345752 83.147915 
L 157.85385 83.060837 
L 158.361948 83.220336 
L 158.971666 83.694529 
L 159.683003 84.571452 
L 161.715395 87.366829 
L 162.223493 87.590569 
L 162.629971 87.487643 
L 163.036449 87.07631 
L 163.442928 86.303205 
L 163.951026 84.757598 
L 164.662363 81.725811 
L 166.491515 73.468504 
L 166.999613 72.132469 
L 167.304472 71.725241 
L 167.609331 71.675535 
L 167.81257 71.865961 
L 168.117429 72.48287 
L 168.523907 73.828105 
L 169.133624 76.66986 
L 171.369255 88.064103 
L 171.775734 89.036732 
L 172.080593 89.328554 
L 172.385451 89.268235 
L 172.69031 88.898882 
L 173.096788 88.000195 
L 173.706506 85.989251 
L 174.925941 80.845327 
L 175.840517 77.363453 
L 176.450235 75.774824 
L 177.161572 74.522831 
L 179.092344 71.590861 
L 179.702061 69.956822 
L 180.311779 67.61796 
L 182.750649 57.21538 
L 183.157127 56.560791 
L 183.461986 56.484855 
L 183.665225 56.661251 
L 183.970084 57.305579 
L 184.376562 58.906737 
L 184.98628 62.571248 
L 186.002476 70.473008 
L 187.120291 78.689204 
L 187.730009 81.606801 
L 188.136487 82.525594 
L 188.339726 82.626029 
L 188.542966 82.501689 
L 188.847824 81.928348 
L 189.254303 80.524903 
L 189.762401 77.921705 
L 190.575357 72.37768 
L 193.014227 54.700912 
L 193.827184 50.64706 
L 194.538521 48.033812 
L 195.148239 46.5004 
L 195.656337 45.728463 
L 196.062815 45.446266 
L 196.469293 45.461459 
L 196.875772 45.733629 
L 197.485489 46.49215 
L 199.72112 49.782006 
L 200.127598 49.944775 
L 200.534077 49.830451 
L 200.940555 49.458464 
L 201.550273 48.538997 
L 202.668088 46.295287 
L 203.684284 44.449897 
L 204.192382 43.878964 
L 204.59886 43.684579 
L 205.005339 43.722236 
L 205.513437 44.045624 
L 206.123154 44.754345 
L 207.03773 46.242569 
L 209.070122 49.677108 
L 210.187937 51.016722 
L 211.610612 52.354253 
L 214.252721 54.779959 
L 215.675395 56.437495 
L 216.89483 58.196763 
L 219.3337 61.873935 
L 220.146657 62.655893 
L 220.756375 62.953774 
L 221.366092 62.992896 
L 222.179049 62.7772 
L 224.109821 62.13307 
L 224.719538 62.211292 
L 225.329256 62.531618 
L 226.142213 63.251324 
L 227.564887 64.911955 
L 228.885941 66.336737 
L 229.902137 67.079773 
L 231.324812 67.808089 
L 232.950725 68.673449 
L 234.475019 69.816642 
L 236.405791 71.223602 
L 237.421987 71.691314 
L 238.641422 71.977102 
L 241.893249 72.561882 
L 243.011064 73.084314 
L 244.02726 73.807802 
L 245.043456 74.818732 
L 246.36451 76.513491 
L 247.990424 78.545994 
L 248.80338 79.260253 
L 249.514718 79.602316 
L 250.327674 79.717671 
L 253.071403 79.839054 
L 253.78274 80.253475 
L 254.798936 81.137507 
L 257.034567 83.173214 
L 257.847524 83.574483 
L 258.7621 83.764606 
L 259.879915 83.757027 
L 262.725264 83.629848 
L 264.249558 83.839452 
L 265.773851 84.274148 
L 267.399765 84.972963 
L 269.432157 86.107203 
L 274.817995 89.291311 
L 279.695735 91.721574 
L 283.760518 93.88658 
L 285.081573 94.33064 
L 286.199388 94.492622 
L 289.451215 94.76414 
L 290.365791 95.165707 
L 291.686846 96.024795 
L 293.922477 97.498462 
L 295.345151 98.080548 
L 297.479162 98.931751 
L 298.698597 99.709857 
L 299.918032 100.431473 
L 300.62937 100.613549 
L 301.239087 100.528522 
L 301.747185 100.236384 
L 302.356903 99.578379 
L 303.169859 98.29887 
L 305.608729 94.1346 
L 306.218447 93.582939 
L 306.828164 93.325851 
L 307.742741 93.235194 
L 308.758937 93.105091 
L 309.368654 92.787587 
L 309.876752 92.277731 
L 310.48647 91.292062 
L 311.401046 89.260108 
L 313.128579 85.289853 
L 313.738296 84.371835 
L 314.246394 83.981097 
L 314.652873 83.937552 
L 315.059351 84.100695 
L 315.567449 84.544706 
L 316.278786 85.498285 
L 319.225754 89.944683 
L 319.835471 90.364063 
L 320.343569 90.492907 
L 320.851667 90.394731 
L 321.359765 90.044745 
L 321.867863 89.418159 
L 322.477581 88.270799 
L 323.392157 85.956707 
L 324.814831 82.390382 
L 325.424549 81.420063 
L 325.831027 81.10975 
L 326.135886 81.096518 
L 326.440745 81.29716 
L 326.847223 81.863629 
L 327.45694 83.151758 
L 328.981234 86.632666 
L 329.489332 87.201791 
L 329.794191 87.258308 
L 330.09905 87.049786 
L 330.403908 86.534236 
L 330.810387 85.358047 
L 331.420104 82.734411 
L 332.334681 77.512659 
L 334.367072 65.504903 
L 335.078409 62.760281 
L 335.789747 60.899311 
L 336.501084 59.662161 
L 337.41566 58.570013 
L 338.533475 57.246771 
L 339.448052 55.718947 
L 341.480443 52.211064 
L 342.090161 51.566254 
L 342.598259 51.309336 
L 343.106357 51.340175 
L 343.614455 51.61597 
L 344.325792 52.31507 
L 345.341988 53.689142 
L 346.967901 55.864016 
L 347.984097 56.784143 
L 349.000293 57.413718 
L 350.321347 57.959062 
L 351.947261 58.409488 
L 352.861837 58.434228 
L 353.573174 58.246354 
L 354.284511 57.81839 
L 354.995848 57.09979 
L 357.333099 54.329423 
L 357.841197 54.164174 
L 358.247675 54.267865 
L 358.654154 54.625838 
L 359.162252 55.479532 
L 359.771969 57.025206 
L 360.686545 60.06574 
L 363.023796 68.208525 
L 363.836752 70.079704 
L 364.649709 71.423415 
L 365.564285 72.511179 
L 369.019351 76.146424 
L 370.340406 78.083071 
L 371.661461 80.435895 
L 373.897092 84.497855 
L 374.811668 85.684426 
L 375.523005 86.251003 
L 376.234342 86.54153 
L 377.250538 86.692253 
L 378.571593 86.897156 
L 379.28293 87.233053 
L 380.095886 87.907028 
L 381.112082 89.06562 
L 384.973627 93.793321 
L 386.904399 95.551053 
L 390.257845 98.238593 
L 394.525868 101.43396 
L 395.948542 102.206546 
L 397.980934 103.007088 
L 400.114945 103.915239 
L 405.094305 106.320327 
L 408.549371 107.39144 
L 415.357883 109.61903 
L 417.085416 110.51114 
L 419.727525 111.875985 
L 423.589069 113.510176 
L 424.605265 114.390299 
L 427.348994 116.946882 
L 428.060331 117.273747 
L 428.771668 117.363676 
L 429.584625 117.246775 
L 430.90568 116.789375 
L 431.718636 116.491399 
L 431.718636 116.491399 
" clip-path="url(#p5eb06c8acb)" style="fill: none; stroke: #ff7f0e; stroke-width: 0.5; stroke-linecap: square"/>
   </g>
   <g id="line2d_37">
    <path d="M 66.091364 290.994545 
L 66.192983 290.994545 
L 66.802701 290.109135 
L 67.412418 290.451686 
L 68.225375 290.782551 
L 69.34319 290.940458 
L 70.054528 290.891309 
L 70.664245 290.310755 
L 71.375582 289.289634 
L 72.290158 287.9785 
L 72.391778 287.921678 
L 72.595017 288.148935 
L 73.712833 290.10069 
L 74.32255 290.567616 
L 75.033887 290.803619 
L 75.541985 290.725474 
L 76.151703 290.452119 
L 78.082475 290.916637 
L 79.098671 290.771057 
L 80.318106 290.6846 
L 81.435921 290.907563 
L 82.147258 290.931562 
L 82.858595 290.602427 
L 84.687748 290.863665 
L 84.992607 290.287067 
L 85.399085 288.869184 
L 85.907183 285.949742 
L 86.415281 281.688788 
L 87.126618 273.351739 
L 87.533096 269.149852 
L 87.634716 269.489653 
L 87.939575 273.300605 
L 88.650912 282.671805 
L 88.955771 284.807102 
L 89.15901 283.412034 
L 90.480064 271.43964 
L 90.886543 270.125521 
L 91.089782 269.901094 
L 91.293021 269.96178 
L 91.49626 270.311606 
L 91.801119 271.351128 
L 92.309217 274.170248 
L 93.223793 280.955216 
L 93.93513 286.31594 
L 94.443228 288.448476 
L 94.951326 289.625608 
L 95.256185 289.939943 
L 96.780479 287.163289 
L 97.898294 285.288908 
L 98.304773 285.110294 
L 98.609631 285.236371 
L 99.01611 285.724137 
L 100.438784 289.803837 
L 100.946882 290.353781 
L 101.048501 290.428806 
L 101.150121 290.320248 
L 101.35336 288.951367 
L 101.759839 284.1001 
L 102.369556 276.561459 
L 102.776034 274.089387 
L 103.182513 273.011488 
L 103.690611 272.33905 
L 104.605187 271.206078 
L 105.113285 270.612879 
L 105.316524 270.581306 
L 105.519763 270.74183 
L 105.824622 271.372385 
L 106.2311 272.879138 
L 106.739198 275.520022 
L 108.161873 287.495571 
L 108.365112 288.261249 
L 108.466731 287.604028 
L 108.66997 282.291075 
L 108.974829 266.703575 
L 109.991025 203.519999 
L 110.295884 199.174624 
L 110.397503 199.135547 
L 110.600743 200.58719 
L 110.905601 205.447123 
L 111.718558 224.394538 
L 112.531515 247.626392 
L 113.141232 264.367273 
L 113.547711 270.880315 
L 114.055809 275.346552 
L 115.376863 284.068917 
L 116.0882 287.685088 
L 116.596298 289.18712 
L 117.002777 289.863139 
L 117.104396 289.470043 
L 117.409255 285.543912 
L 118.425451 269.434867 
L 118.831929 267.042288 
L 119.136788 266.379497 
L 119.340027 266.289122 
L 119.543266 266.438223 
L 119.848125 267.141791 
L 120.254603 268.956003 
L 120.864321 271.773757 
L 121.16918 272.355767 
L 121.474038 272.504291 
L 121.778897 272.621975 
L 122.083756 273.024136 
L 122.490234 274.131004 
L 122.998332 276.615406 
L 124.014528 285.947622 
L 124.522626 288.259156 
L 124.725865 288.603646 
L 125.233963 287.59653 
L 126.351779 285.137077 
L 127.266355 283.328402 
L 127.469594 283.377728 
L 127.774453 283.892441 
L 128.282551 285.464579 
L 129.197127 288.849779 
L 129.705225 289.82971 
L 130.213323 290.368588 
L 130.416562 290.494485 
L 130.518182 290.440404 
L 130.92466 289.474244 
L 132.144095 286.009961 
L 132.550573 285.147307 
L 132.753812 285.671825 
L 133.770008 289.140985 
L 134.074867 289.667663 
L 134.176487 289.58577 
L 134.786204 288.065326 
L 135.091063 287.738764 
L 135.497541 287.700701 
L 136.107259 287.915596 
L 136.615357 288.327335 
L 137.834792 290.246732 
L 138.444509 290.637943 
L 139.257466 290.863129 
L 139.460705 290.892162 
L 139.562325 290.750686 
L 139.867184 288.745664 
L 140.375281 285.043262 
L 140.68014 284.095276 
L 141.391477 283.17881 
L 142.102814 281.501467 
L 142.204434 281.537416 
L 142.407673 282.441862 
L 143.322249 287.658564 
L 143.728728 288.879277 
L 143.931967 288.914349 
L 144.135206 288.854949 
L 144.338445 289.017604 
L 145.456261 290.374906 
L 146.065978 290.683683 
L 146.269217 290.461313 
L 146.675696 289.536746 
L 147.082174 288.024026 
L 147.793511 285.056312 
L 147.99675 285.456802 
L 149.012946 288.960485 
L 149.114566 288.797319 
L 149.419425 286.651323 
L 149.825903 283.321285 
L 149.927523 283.278026 
L 150.130762 283.945569 
L 151.045338 288.216356 
L 151.146958 288.289043 
L 151.350197 286.836278 
L 151.655056 282.730646 
L 152.366393 271.993367 
L 152.671251 269.953966 
L 152.874491 269.517942 
L 153.07773 269.602689 
L 153.382589 270.360798 
L 153.789067 272.162583 
L 154.297165 275.438815 
L 155.313361 285.554084 
L 155.618219 287.221092 
L 155.719839 287.313171 
L 156.024698 285.33856 
L 156.736035 280.050881 
L 157.345752 277.689663 
L 157.85385 275.209317 
L 158.565187 271.563657 
L 158.870046 270.964082 
L 159.073285 270.975125 
L 159.276525 271.312361 
L 159.581383 272.328637 
L 160.089481 274.965363 
L 161.207297 285.947995 
L 161.410536 286.934042 
L 161.512155 286.587744 
L 162.020253 279.323602 
L 162.426732 274.999914 
L 162.731591 274.021299 
L 162.93483 274.066687 
L 163.239688 274.597284 
L 163.849406 276.217575 
L 164.357504 278.229119 
L 165.780178 285.288959 
L 166.389896 288.11626 
L 166.897994 289.43307 
L 167.406092 290.155757 
L 168.015809 290.597905 
L 168.219048 290.60336 
L 168.523907 290.072435 
L 168.930385 288.651009 
L 169.540103 285.496122 
L 170.657918 279.575059 
L 170.962777 278.770564 
L 171.166016 278.37092 
L 171.369255 279.412877 
L 172.385451 286.928197 
L 172.69031 288.075486 
L 172.79193 288.06862 
L 173.096788 287.739908 
L 173.300028 287.79888 
L 173.706506 288.437963 
L 174.621082 290.005012 
L 175.2308 290.519731 
L 175.738898 290.71863 
L 175.942137 290.483911 
L 177.059952 288.574738 
L 177.364811 287.174427 
L 177.771289 283.809522 
L 178.279387 279.782483 
L 178.482626 279.190175 
L 178.584246 279.167501 
L 178.787485 279.573943 
L 178.990724 280.505015 
L 180.10854 287.708922 
L 180.616638 289.218204 
L 180.921497 289.709312 
L 181.124736 289.512242 
L 181.734453 288.784232 
L 181.937692 288.945922 
L 182.64903 289.915549 
L 182.852269 289.753359 
L 183.055508 289.331644 
L 183.258747 288.803278 
L 183.461986 288.806956 
L 183.868465 289.372771 
L 184.478182 290.161822 
L 184.681421 290.332868 
L 184.783041 290.201555 
L 185.189519 288.003094 
L 185.697617 283.596426 
L 186.510574 276.614405 
L 187.221911 271.958174 
L 188.034868 265.245258 
L 188.238107 267.322808 
L 189.254303 282.665953 
L 189.457542 283.679033 
L 190.372118 278.589555 
L 190.676977 278.39355 
L 190.981836 278.532834 
L 191.794792 279.299739 
L 192.201271 279.244941 
L 192.40451 279.517965 
L 192.709369 280.527318 
L 194.030423 288.335635 
L 194.335282 289.045423 
L 194.538521 288.808796 
L 194.84338 287.915356 
L 195.148239 286.907196 
L 195.249858 286.933637 
L 195.554717 287.60966 
L 196.266054 289.390455 
L 196.672532 290.005027 
L 196.774152 290.026273 
L 197.079011 289.390865 
L 198.298446 285.769069 
L 198.806544 282.846275 
L 199.314642 280.01094 
L 199.517881 279.507395 
L 199.72112 279.574636 
L 199.924359 280.446862 
L 201.042175 287.690404 
L 201.550273 289.208189 
L 201.956751 289.852256 
L 202.15999 289.492826 
L 202.972947 287.250074 
L 203.176186 287.257969 
L 203.379425 287.604045 
L 204.395621 289.817531 
L 204.903719 290.356959 
L 205.513437 290.692326 
L 206.224774 290.842364 
L 207.13935 290.910159 
L 209.273361 290.987947 
L 211.610612 290.907796 
L 212.626808 290.452745 
L 212.931666 290.246897 
L 213.338145 290.385038 
L 214.354341 290.794338 
L 215.370536 290.927418 
L 216.386732 290.74778 
L 217.504548 290.50799 
L 218.622363 290.850788 
L 219.130461 290.890762 
L 219.3337 290.520539 
L 220.146657 288.806373 
L 220.553135 288.486992 
L 220.959614 288.47621 
L 221.467712 288.686516 
L 222.077429 289.22775 
L 222.992005 290.320547 
L 223.601723 290.67153 
L 224.41468 290.875324 
L 225.532495 290.931793 
L 226.142213 290.799008 
L 227.158408 290.427793 
L 228.987561 290.915925 
L 229.902137 290.939655 
L 230.715094 290.431067 
L 231.324812 290.629502 
L 232.341007 290.881811 
L 233.865301 290.977048 
L 235.287975 290.920664 
L 236.202552 290.678394 
L 236.913889 290.797818 
L 238.234943 290.952925 
L 239.657618 290.920502 
L 240.775433 290.735757 
L 241.181911 290.61732 
L 244.02726 290.967266 
L 244.535358 290.729518 
L 245.551554 289.995758 
L 245.856412 289.759209 
L 246.161271 289.937487 
L 247.075847 290.594039 
L 247.583945 290.777367 
L 247.685565 290.654947 
L 248.092043 288.469006 
L 248.498522 286.576084 
L 248.80338 285.964858 
L 249.108239 285.884066 
L 249.413098 286.107377 
L 249.819576 286.70783 
L 251.34387 289.308828 
L 252.055207 290.203666 
L 252.664925 290.613733 
L 253.477881 290.853841 
L 254.798936 290.966326 
L 255.408654 290.834048 
L 257.339426 290.492726 
L 259.066959 290.917132 
L 259.981535 290.915405 
L 260.489633 290.632512 
L 261.404209 290.625463 
L 261.709068 290.219968 
L 262.318785 289.320658 
L 262.522025 289.226444 
L 262.826883 289.486909 
L 263.63984 290.351788 
L 264.249558 290.685528 
L 265.062514 290.880299 
L 265.265753 290.853379 
L 266.18033 290.019986 
L 266.586808 290.002987 
L 267.298145 290.293169 
L 268.212721 290.735493 
L 269.228917 290.919287 
L 270.143494 290.951382 
L 270.549972 290.605076 
L 271.159689 290.124279 
L 271.566168 290.072165 
L 272.379125 290.348246 
L 274.614755 290.937834 
L 276.443908 290.973299 
L 277.561723 290.790782 
L 280.203833 290.983857 
L 282.236224 290.966492 
L 282.541083 290.589781 
L 283.25242 289.612363 
L 283.557279 289.550883 
L 283.963757 289.770124 
L 285.081573 290.613455 
L 285.89453 290.852617 
L 287.215584 290.966537 
L 288.435019 290.964543 
L 289.247976 290.465625 
L 289.654454 290.54492 
L 290.873889 290.876806 
L 291.991705 290.922052 
L 292.499803 290.892691 
L 295.65001 290.991762 
L 298.495358 290.899008 
L 300.121272 290.60964 
L 302.356903 290.955538 
L 303.881196 290.957261 
L 304.084436 290.432712 
L 304.795773 287.617231 
L 305.50711 284.740198 
L 305.710349 284.521682 
L 305.913588 284.693393 
L 306.421686 285.901997 
L 306.828164 286.584545 
L 307.742741 287.725097 
L 308.657317 289.71808 
L 309.165415 290.300929 
L 309.673513 290.621639 
L 309.775132 290.572893 
L 310.079991 289.783349 
L 310.791328 286.873541 
L 311.197807 285.484988 
L 311.502665 285.126618 
L 311.604285 285.201245 
L 311.909144 286.208189 
L 312.620481 288.73776 
L 313.128579 289.764344 
L 313.535057 290.244936 
L 313.636677 290.241891 
L 314.043155 289.367519 
L 314.856112 287.326851 
L 315.16097 285.050886 
L 315.973927 277.250939 
L 316.177166 276.766215 
L 316.278786 276.833335 
L 316.482025 277.521186 
L 316.888503 280.40471 
L 317.599841 285.746304 
L 318.107939 288.102511 
L 318.616036 289.433781 
L 319.124134 290.157484 
L 319.733852 290.599141 
L 320.445189 290.82971 
L 320.648428 290.773694 
L 320.953287 290.094714 
L 321.461385 288.093838 
L 322.172722 285.512607 
L 322.5792 284.681429 
L 322.782439 284.561654 
L 322.985679 284.697999 
L 323.290537 285.343899 
L 324.814831 289.652826 
L 325.322929 290.270096 
L 325.932647 290.651543 
L 326.542364 290.810546 
L 326.948843 290.542001 
L 327.45694 289.876585 
L 327.965038 288.861 
L 328.473136 287.17489 
L 328.981234 285.551907 
L 329.082854 285.500589 
L 329.286093 285.955883 
L 330.302289 289.226105 
L 330.810387 290.034818 
L 330.912006 290.013529 
L 332.131441 287.397603 
L 332.944398 287.120821 
L 333.757355 286.701853 
L 334.062214 287.473903 
L 334.773551 289.341602 
L 335.281649 290.060644 
L 335.383268 289.897587 
L 335.789747 287.608419 
L 337.212421 277.618633 
L 337.51728 276.970014 
L 337.618899 276.987751 
L 337.822138 277.4269 
L 338.228617 279.560344 
L 339.244813 286.95694 
L 339.75291 288.805443 
L 340.261008 289.818776 
L 340.464248 289.970725 
L 340.667487 289.560282 
L 340.870726 288.654629 
L 341.277204 285.24681 
L 341.785302 281.078201 
L 341.988541 280.591199 
L 342.090161 280.732822 
L 342.39502 282.527466 
L 343.106357 287.005305 
L 343.614455 288.820172 
L 344.122553 289.816897 
L 344.529031 290.143133 
L 345.850086 290.742798 
L 346.561423 290.833213 
L 348.085717 290.967799 
L 348.695434 290.914233 
L 349.101912 290.813534 
L 351.235924 290.83247 
L 351.845641 290.407536 
L 352.861837 289.390521 
L 353.268315 289.781164 
L 353.979653 290.437556 
L 354.69099 290.758426 
L 354.894229 290.730236 
L 356.113664 288.63572 
L 356.520142 288.41785 
L 356.723381 288.607743 
L 357.739577 290.126581 
L 357.841197 290.042233 
L 358.044436 289.334696 
L 358.349295 287.140679 
L 359.060632 280.867705 
L 359.162252 280.860654 
L 359.365491 281.785621 
L 360.280067 287.384592 
L 360.788165 289.032367 
L 361.296263 289.93981 
L 361.499502 290.128162 
L 361.90598 289.969884 
L 363.227035 289.018049 
L 363.531894 289.195752 
L 364.243231 289.987466 
L 364.852948 290.495289 
L 365.564285 290.784018 
L 366.682101 290.941198 
L 367.495058 290.913807 
L 368.003156 290.574644 
L 368.409634 290.020935 
L 369.019351 288.885426 
L 369.222591 289.036812 
L 370.340406 290.378082 
L 370.950124 290.700049 
L 371.661461 290.849166 
L 372.169559 290.467175 
L 373.185754 289.462392 
L 373.693852 288.971352 
L 373.998711 288.972407 
L 374.405189 289.318535 
L 375.726244 290.535595 
L 376.437581 290.801068 
L 377.453777 290.938935 
L 377.657016 290.840636 
L 378.165114 290.129105 
L 378.469973 290.006167 
L 378.876451 290.172861 
L 379.587788 290.499797 
L 382.128278 290.955928 
L 384.770387 290.979601 
L 388.835171 290.94727 
L 390.257845 290.874485 
L 392.188617 290.981887 
L 400.623043 290.993866 
L 407.838034 290.890948 
L 408.75261 290.667769 
L 411.19148 290.972447 
L 415.459503 290.978513 
L 417.695133 290.749747 
L 419.117808 290.945376 
L 421.861536 290.992585 
L 424.503646 290.943732 
L 426.129559 289.926804 
L 426.942516 289.340788 
L 427.450614 289.182245 
L 427.857092 289.25834 
L 428.670049 289.741885 
L 429.686245 290.562759 
L 430.397582 290.81215 
L 431.515397 290.948352 
L 431.718636 290.958569 
L 431.718636 290.958569 
" clip-path="url(#p5eb06c8acb)" style="fill: none; stroke: #2ca02c; stroke-width: 0.5; stroke-linecap: square"/>
   </g>
   <g id="patch_3">
    <path d="M 47.81 303.64 
L 47.81 25.44 
" style="fill: none; stroke: #000000; stroke-width: 0.8; stroke-linejoin: miter; stroke-linecap: square"/>
   </g>
   <g id="patch_4">
    <path d="M 450 303.64 
L 450 25.44 
" style="fill: none; stroke: #000000; stroke-width: 0.8; stroke-linejoin: miter; stroke-linecap: square"/>
   </g>
   <g id="patch_5">
    <path d="M 47.81 303.64 
L 450 303.64 
" style="fill: none; stroke: #000000; stroke-width: 0.8; stroke-linejoin: miter; stroke-linecap: square"/>
   </g>
   <g id="patch_6">
    <path d="M 47.81 25.44 
L 450 25.44 
" style="fill: none; stroke: #000000; stroke-width: 0.8; stroke-linejoin: miter; stroke-linecap: square"/>
   </g>
   <g id="text_20">
    <!-- data_9_E4 Separated EDA plot -->
    <g transform="translate(157.349688 19.44) scale(0.12 -0.12)">
     <defs>
      <path id="DejaVuSans-5f" d="M 3263 -1063 
L 3263 -1509 
L -63 -1509 
L -63 -1063 
L 3263 -1063 
z
" transform="scale(0.015625)"/>
      <path id="DejaVuSans-39" d="M 703 97 
L 703 672 
Q 941 559 1184 500 
Q 1428 441 1663 441 
Q 2288 441 2617 861 
Q 2947 1281 2994 2138 
Q 2813 1869 2534 1725 
Q 2256 1581 1919 1581 
Q 1219 1581 811 2004 
Q 403 2428 403 3163 
Q 403 3881 828 4315 
Q 1253 4750 1959 4750 
Q 2769 4750 3195 4129 
Q 3622 3509 3622 2328 
Q 3622 1225 3098 567 
Q 2575 -91 1691 -91 
Q 1453 -91 1209 -44 
Q 966 3 703 97 
z
M 1959 2075 
Q 2384 2075 2632 2365 
Q 2881 2656 2881 3163 
Q 2881 3666 2632 3958 
Q 2384 4250 1959 4250 
Q 1534 4250 1286 3958 
Q 1038 3666 1038 3163 
Q 1038 2656 1286 2365 
Q 1534 2075 1959 2075 
z
" transform="scale(0.015625)"/>
      <path id="DejaVuSans-70" d="M 1159 525 
L 1159 -1331 
L 581 -1331 
L 581 3500 
L 1159 3500 
L 1159 2969 
Q 1341 3281 1617 3432 
Q 1894 3584 2278 3584 
Q 2916 3584 3314 3078 
Q 3713 2572 3713 1747 
Q 3713 922 3314 415 
Q 2916 -91 2278 -91 
Q 1894 -91 1617 61 
Q 1341 213 1159 525 
z
M 3116 1747 
Q 3116 2381 2855 2742 
Q 2594 3103 2138 3103 
Q 1681 3103 1420 2742 
Q 1159 2381 1159 1747 
Q 1159 1113 1420 752 
Q 1681 391 2138 391 
Q 2594 391 2855 752 
Q 3116 1113 3116 1747 
z
" transform="scale(0.015625)"/>
      <path id="DejaVuSans-6f" d="M 1959 3097 
Q 1497 3097 1228 2736 
Q 959 2375 959 1747 
Q 959 1119 1226 758 
Q 1494 397 1959 397 
Q 2419 397 2687 759 
Q 2956 1122 2956 1747 
Q 2956 2369 2687 2733 
Q 2419 3097 1959 3097 
z
M 1959 3584 
Q 2709 3584 3137 3096 
Q 3566 2609 3566 1747 
Q 3566 888 3137 398 
Q 2709 -91 1959 -91 
Q 1206 -91 779 398 
Q 353 888 353 1747 
Q 353 2609 779 3096 
Q 1206 3584 1959 3584 
z
" transform="scale(0.015625)"/>
     </defs>
     <use xlink:href="#DejaVuSans-64"/>
     <use xlink:href="#DejaVuSans-61" transform="translate(63.476562 0)"/>
     <use xlink:href="#DejaVuSans-74" transform="translate(124.755859 0)"/>
     <use xlink:href="#DejaVuSans-61" transform="translate(163.964844 0)"/>
     <use xlink:href="#DejaVuSans-5f" transform="translate(225.244141 0)"/>
     <use xlink:href="#DejaVuSans-39" transform="translate(275.244141 0)"/>
     <use xlink:href="#DejaVuSans-5f" transform="translate(338.867188 0)"/>
     <use xlink:href="#DejaVuSans-45" transform="translate(388.867188 0)"/>
     <use xlink:href="#DejaVuSans-34" transform="translate(452.050781 0)"/>
     <use xlink:href="#DejaVuSans-20" transform="translate(515.673828 0)"/>
     <use xlink:href="#DejaVuSans-53" transform="translate(547.460938 0)"/>
     <use xlink:href="#DejaVuSans-65" transform="translate(610.9375 0)"/>
     <use xlink:href="#DejaVuSans-70" transform="translate(672.460938 0)"/>
     <use xlink:href="#DejaVuSans-61" transform="translate(735.9375 0)"/>
     <use xlink:href="#DejaVuSans-72" transform="translate(797.216797 0)"/>
     <use xlink:href="#DejaVuSans-61" transform="translate(838.330078 0)"/>
     <use xlink:href="#DejaVuSans-74" transform="translate(899.609375 0)"/>
     <use xlink:href="#DejaVuSans-65" transform="translate(938.818359 0)"/>
     <use xlink:href="#DejaVuSans-64" transform="translate(1000.341797 0)"/>
     <use xlink:href="#DejaVuSans-20" transform="translate(1063.818359 0)"/>
     <use xlink:href="#DejaVuSans-45" transform="translate(1095.605469 0)"/>
     <use xlink:href="#DejaVuSans-44" transform="translate(1158.789062 0)"/>
     <use xlink:href="#DejaVuSans-41" transform="translate(1234.041016 0)"/>
     <use xlink:href="#DejaVuSans-20" transform="translate(1302.449219 0)"/>
     <use xlink:href="#DejaVuSans-70" transform="translate(1334.236328 0)"/>
     <use xlink:href="#DejaVuSans-6c" transform="translate(1397.712891 0)"/>
     <use xlink:href="#DejaVuSans-6f" transform="translate(1425.496094 0)"/>
     <use xlink:href="#DejaVuSans-74" transform="translate(1486.677734 0)"/>
    </g>
   </g>
   <g id="legend_1">
    <g id="patch_7">
     <path d="M 350.09375 188.057187 
L 443 188.057187 
Q 445 188.057187 445 186.057187 
L 445 143.022812 
Q 445 141.022812 443 141.022812 
L 350.09375 141.022812 
Q 348.09375 141.022812 348.09375 143.022812 
L 348.09375 186.057187 
Q 348.09375 188.057187 350.09375 188.057187 
z
" style="fill: #ffffff; opacity: 0.8; stroke: #cccccc; stroke-linejoin: miter"/>
    </g>
    <g id="line2d_38">
     <path d="M 352.09375 149.12125 
L 362.09375 149.12125 
L 372.09375 149.12125 
" style="fill: none; stroke-dasharray: 1.85,0.8; stroke-dashoffset: 0; stroke: #1f77b4; stroke-width: 0.5"/>
    </g>
    <g id="text_21">
     <!-- Filtered EDA -->
     <g transform="translate(380.09375 152.62125) scale(0.1 -0.1)">
      <defs>
       <path id="DejaVuSans-46" d="M 628 4666 
L 3309 4666 
L 3309 4134 
L 1259 4134 
L 1259 2759 
L 3109 2759 
L 3109 2228 
L 1259 2228 
L 1259 0 
L 628 0 
L 628 4666 
z
" transform="scale(0.015625)"/>
      </defs>
      <use xlink:href="#DejaVuSans-46"/>
      <use xlink:href="#DejaVuSans-69" transform="translate(50.269531 0)"/>
      <use xlink:href="#DejaVuSans-6c" transform="translate(78.052734 0)"/>
      <use xlink:href="#DejaVuSans-74" transform="translate(105.835938 0)"/>
      <use xlink:href="#DejaVuSans-65" transform="translate(145.044922 0)"/>
      <use xlink:href="#DejaVuSans-72" transform="translate(206.568359 0)"/>
      <use xlink:href="#DejaVuSans-65" transform="translate(245.431641 0)"/>
      <use xlink:href="#DejaVuSans-64" transform="translate(306.955078 0)"/>
      <use xlink:href="#DejaVuSans-20" transform="translate(370.431641 0)"/>
      <use xlink:href="#DejaVuSans-45" transform="translate(402.21875 0)"/>
      <use xlink:href="#DejaVuSans-44" transform="translate(465.402344 0)"/>
      <use xlink:href="#DejaVuSans-41" transform="translate(540.654297 0)"/>
     </g>
    </g>
    <g id="line2d_39">
     <path d="M 352.09375 163.799375 
L 362.09375 163.799375 
L 372.09375 163.799375 
" style="fill: none; stroke: #ff7f0e; stroke-width: 0.5; stroke-linecap: square"/>
    </g>
    <g id="text_22">
     <!-- Tonic -->
     <g transform="translate(380.09375 167.299375) scale(0.1 -0.1)">
      <defs>
       <path id="DejaVuSans-63" d="M 3122 3366 
L 3122 2828 
Q 2878 2963 2633 3030 
Q 2388 3097 2138 3097 
Q 1578 3097 1268 2742 
Q 959 2388 959 1747 
Q 959 1106 1268 751 
Q 1578 397 2138 397 
Q 2388 397 2633 464 
Q 2878 531 3122 666 
L 3122 134 
Q 2881 22 2623 -34 
Q 2366 -91 2075 -91 
Q 1284 -91 818 406 
Q 353 903 353 1747 
Q 353 2603 823 3093 
Q 1294 3584 2113 3584 
Q 2378 3584 2631 3529 
Q 2884 3475 3122 3366 
z
" transform="scale(0.015625)"/>
      </defs>
      <use xlink:href="#DejaVuSans-54"/>
      <use xlink:href="#DejaVuSans-6f" transform="translate(44.083984 0)"/>
      <use xlink:href="#DejaVuSans-6e" transform="translate(105.265625 0)"/>
      <use xlink:href="#DejaVuSans-69" transform="translate(168.644531 0)"/>
      <use xlink:href="#DejaVuSans-63" transform="translate(196.427734 0)"/>
     </g>
    </g>
    <g id="line2d_40">
     <path d="M 352.09375 178.4775 
L 362.09375 178.4775 
L 372.09375 178.4775 
" style="fill: none; stroke: #2ca02c; stroke-width: 0.5; stroke-linecap: square"/>
    </g>
    <g id="text_23">
     <!-- Phasic -->
     <g transform="translate(380.09375 181.9775) scale(0.1 -0.1)">
      <defs>
       <path id="DejaVuSans-50" d="M 1259 4147 
L 1259 2394 
L 2053 2394 
Q 2494 2394 2734 2622 
Q 2975 2850 2975 3272 
Q 2975 3691 2734 3919 
Q 2494 4147 2053 4147 
L 1259 4147 
z
M 628 4666 
L 2053 4666 
Q 2838 4666 3239 4311 
Q 3641 3956 3641 3272 
Q 3641 2581 3239 2228 
Q 2838 1875 2053 1875 
L 1259 1875 
L 1259 0 
L 628 0 
L 628 4666 
z
" transform="scale(0.015625)"/>
       <path id="DejaVuSans-68" d="M 3513 2113 
L 3513 0 
L 2938 0 
L 2938 2094 
Q 2938 2591 2744 2837 
Q 2550 3084 2163 3084 
Q 1697 3084 1428 2787 
Q 1159 2491 1159 1978 
L 1159 0 
L 581 0 
L 581 4863 
L 1159 4863 
L 1159 2956 
Q 1366 3272 1645 3428 
Q 1925 3584 2291 3584 
Q 2894 3584 3203 3211 
Q 3513 2838 3513 2113 
z
" transform="scale(0.015625)"/>
      </defs>
      <use xlink:href="#DejaVuSans-50"/>
      <use xlink:href="#DejaVuSans-68" transform="translate(60.302734 0)"/>
      <use xlink:href="#DejaVuSans-61" transform="translate(123.681641 0)"/>
      <use xlink:href="#DejaVuSans-73" transform="translate(184.960938 0)"/>
      <use xlink:href="#DejaVuSans-69" transform="translate(237.060547 0)"/>
      <use xlink:href="#DejaVuSans-63" transform="translate(264.84375 0)"/>
     </g>
    </g>
   </g>
  </g>
 </g>
 <defs>
  <clipPath id="p5eb06c8acb">
   <rect x="47.81" y="25.44" width="402.19" height="278.2"/>
  </clipPath>
 </defs>
</svg>
