<?xml version="1.0" encoding="utf-8" standalone="no"?>
<!DOCTYPE svg PUBLIC "-//W3C//DTD SVG 1.1//EN"
  "http://www.w3.org/Graphics/SVG/1.1/DTD/svg11.dtd">
<svg xmlns:xlink="http://www.w3.org/1999/xlink" width="460.8pt" height="345.6pt" viewBox="0 0 460.8 345.6" xmlns="http://www.w3.org/2000/svg" version="1.1">
 <metadata>
  <rdf:RDF xmlns:dc="http://purl.org/dc/elements/1.1/" xmlns:cc="http://creativecommons.org/ns#" xmlns:rdf="http://www.w3.org/1999/02/22-rdf-syntax-ns#">
   <cc:Work>
    <dc:type rdf:resource="http://purl.org/dc/dcmitype/StillImage"/>
    <dc:date>2025-09-22T15:39:38.023311</dc:date>
    <dc:format>image/svg+xml</dc:format>
    <dc:creator>
     <cc:Agent>
      <dc:title>Matplotlib v3.10.0, https://matplotlib.org/</dc:title>
     </cc:Agent>
    </dc:creator>
   </cc:Work>
  </rdf:RDF>
 </metadata>
 <defs>
  <style type="text/css">*{stroke-linejoin: round; stroke-linecap: butt}</style>
 </defs>
 <g id="figure_1">
  <g id="patch_1">
   <path d="M 0 345.6 
L 460.8 345.6 
L 460.8 0 
L 0 0 
z
" style="fill: #ffffff"/>
  </g>
  <g id="axes_1">
   <g id="patch_2">
    <path d="M 47.81 303.64 
L 450 303.64 
L 450 25.44 
L 47.81 25.44 
z
" style="fill: #ffffff"/>
   </g>
   <g id="matplotlib.axis_1">
    <g id="xtick_1">
     <g id="line2d_1">
      <path d="M 66.091364 303.64 
L 66.091364 25.44 
" clip-path="url(#p4df287cf8a)" style="fill: none; stroke: #b0b0b0; stroke-opacity: 0.3; stroke-width: 0.8; stroke-linecap: square"/>
     </g>
     <g id="line2d_2">
      <defs>
       <path id="m2bb4ba9bcc" d="M 0 0 
L 0 3.5 
" style="stroke: #000000; stroke-width: 0.8"/>
      </defs>
      <g>
       <use xlink:href="#m2bb4ba9bcc" x="66.091364" y="303.64" style="stroke: #000000; stroke-width: 0.8"/>
      </g>
     </g>
     <g id="text_1">
      <!-- 0 -->
      <g transform="translate(62.910114 318.238437) scale(0.1 -0.1)">
       <defs>
        <path id="DejaVuSans-30" d="M 2034 4250 
Q 1547 4250 1301 3770 
Q 1056 3291 1056 2328 
Q 1056 1369 1301 889 
Q 1547 409 2034 409 
Q 2525 409 2770 889 
Q 3016 1369 3016 2328 
Q 3016 3291 2770 3770 
Q 2525 4250 2034 4250 
z
M 2034 4750 
Q 2819 4750 3233 4129 
Q 3647 3509 3647 2328 
Q 3647 1150 3233 529 
Q 2819 -91 2034 -91 
Q 1250 -91 836 529 
Q 422 1150 422 2328 
Q 422 3509 836 4129 
Q 1250 4750 2034 4750 
z
" transform="scale(0.015625)"/>
       </defs>
       <use xlink:href="#DejaVuSans-30"/>
      </g>
     </g>
    </g>
    <g id="xtick_2">
     <g id="line2d_3">
      <path d="M 114.841667 303.64 
L 114.841667 25.44 
" clip-path="url(#p4df287cf8a)" style="fill: none; stroke: #b0b0b0; stroke-opacity: 0.3; stroke-width: 0.8; stroke-linecap: square"/>
     </g>
     <g id="line2d_4">
      <g>
       <use xlink:href="#m2bb4ba9bcc" x="114.841667" y="303.64" style="stroke: #000000; stroke-width: 0.8"/>
      </g>
     </g>
     <g id="text_2">
      <!-- 2 -->
      <g transform="translate(111.660417 318.238437) scale(0.1 -0.1)">
       <defs>
        <path id="DejaVuSans-32" d="M 1228 531 
L 3431 531 
L 3431 0 
L 469 0 
L 469 531 
Q 828 903 1448 1529 
Q 2069 2156 2228 2338 
Q 2531 2678 2651 2914 
Q 2772 3150 2772 3378 
Q 2772 3750 2511 3984 
Q 2250 4219 1831 4219 
Q 1534 4219 1204 4116 
Q 875 4013 500 3803 
L 500 4441 
Q 881 4594 1212 4672 
Q 1544 4750 1819 4750 
Q 2544 4750 2975 4387 
Q 3406 4025 3406 3419 
Q 3406 3131 3298 2873 
Q 3191 2616 2906 2266 
Q 2828 2175 2409 1742 
Q 1991 1309 1228 531 
z
" transform="scale(0.015625)"/>
       </defs>
       <use xlink:href="#DejaVuSans-32"/>
      </g>
     </g>
    </g>
    <g id="xtick_3">
     <g id="line2d_5">
      <path d="M 163.59197 303.64 
L 163.59197 25.44 
" clip-path="url(#p4df287cf8a)" style="fill: none; stroke: #b0b0b0; stroke-opacity: 0.3; stroke-width: 0.8; stroke-linecap: square"/>
     </g>
     <g id="line2d_6">
      <g>
       <use xlink:href="#m2bb4ba9bcc" x="163.59197" y="303.64" style="stroke: #000000; stroke-width: 0.8"/>
      </g>
     </g>
     <g id="text_3">
      <!-- 4 -->
      <g transform="translate(160.41072 318.238437) scale(0.1 -0.1)">
       <defs>
        <path id="DejaVuSans-34" d="M 2419 4116 
L 825 1625 
L 2419 1625 
L 2419 4116 
z
M 2253 4666 
L 3047 4666 
L 3047 1625 
L 3713 1625 
L 3713 1100 
L 3047 1100 
L 3047 0 
L 2419 0 
L 2419 1100 
L 313 1100 
L 313 1709 
L 2253 4666 
z
" transform="scale(0.015625)"/>
       </defs>
       <use xlink:href="#DejaVuSans-34"/>
      </g>
     </g>
    </g>
    <g id="xtick_4">
     <g id="line2d_7">
      <path d="M 212.342273 303.64 
L 212.342273 25.44 
" clip-path="url(#p4df287cf8a)" style="fill: none; stroke: #b0b0b0; stroke-opacity: 0.3; stroke-width: 0.8; stroke-linecap: square"/>
     </g>
     <g id="line2d_8">
      <g>
       <use xlink:href="#m2bb4ba9bcc" x="212.342273" y="303.64" style="stroke: #000000; stroke-width: 0.8"/>
      </g>
     </g>
     <g id="text_4">
      <!-- 6 -->
      <g transform="translate(209.161023 318.238437) scale(0.1 -0.1)">
       <defs>
        <path id="DejaVuSans-36" d="M 2113 2584 
Q 1688 2584 1439 2293 
Q 1191 2003 1191 1497 
Q 1191 994 1439 701 
Q 1688 409 2113 409 
Q 2538 409 2786 701 
Q 3034 994 3034 1497 
Q 3034 2003 2786 2293 
Q 2538 2584 2113 2584 
z
M 3366 4563 
L 3366 3988 
Q 3128 4100 2886 4159 
Q 2644 4219 2406 4219 
Q 1781 4219 1451 3797 
Q 1122 3375 1075 2522 
Q 1259 2794 1537 2939 
Q 1816 3084 2150 3084 
Q 2853 3084 3261 2657 
Q 3669 2231 3669 1497 
Q 3669 778 3244 343 
Q 2819 -91 2113 -91 
Q 1303 -91 875 529 
Q 447 1150 447 2328 
Q 447 3434 972 4092 
Q 1497 4750 2381 4750 
Q 2619 4750 2861 4703 
Q 3103 4656 3366 4563 
z
" transform="scale(0.015625)"/>
       </defs>
       <use xlink:href="#DejaVuSans-36"/>
      </g>
     </g>
    </g>
    <g id="xtick_5">
     <g id="line2d_9">
      <path d="M 261.092576 303.64 
L 261.092576 25.44 
" clip-path="url(#p4df287cf8a)" style="fill: none; stroke: #b0b0b0; stroke-opacity: 0.3; stroke-width: 0.8; stroke-linecap: square"/>
     </g>
     <g id="line2d_10">
      <g>
       <use xlink:href="#m2bb4ba9bcc" x="261.092576" y="303.64" style="stroke: #000000; stroke-width: 0.8"/>
      </g>
     </g>
     <g id="text_5">
      <!-- 8 -->
      <g transform="translate(257.911326 318.238437) scale(0.1 -0.1)">
       <defs>
        <path id="DejaVuSans-38" d="M 2034 2216 
Q 1584 2216 1326 1975 
Q 1069 1734 1069 1313 
Q 1069 891 1326 650 
Q 1584 409 2034 409 
Q 2484 409 2743 651 
Q 3003 894 3003 1313 
Q 3003 1734 2745 1975 
Q 2488 2216 2034 2216 
z
M 1403 2484 
Q 997 2584 770 2862 
Q 544 3141 544 3541 
Q 544 4100 942 4425 
Q 1341 4750 2034 4750 
Q 2731 4750 3128 4425 
Q 3525 4100 3525 3541 
Q 3525 3141 3298 2862 
Q 3072 2584 2669 2484 
Q 3125 2378 3379 2068 
Q 3634 1759 3634 1313 
Q 3634 634 3220 271 
Q 2806 -91 2034 -91 
Q 1263 -91 848 271 
Q 434 634 434 1313 
Q 434 1759 690 2068 
Q 947 2378 1403 2484 
z
M 1172 3481 
Q 1172 3119 1398 2916 
Q 1625 2713 2034 2713 
Q 2441 2713 2670 2916 
Q 2900 3119 2900 3481 
Q 2900 3844 2670 4047 
Q 2441 4250 2034 4250 
Q 1625 4250 1398 4047 
Q 1172 3844 1172 3481 
z
" transform="scale(0.015625)"/>
       </defs>
       <use xlink:href="#DejaVuSans-38"/>
      </g>
     </g>
    </g>
    <g id="xtick_6">
     <g id="line2d_11">
      <path d="M 309.842879 303.64 
L 309.842879 25.44 
" clip-path="url(#p4df287cf8a)" style="fill: none; stroke: #b0b0b0; stroke-opacity: 0.3; stroke-width: 0.8; stroke-linecap: square"/>
     </g>
     <g id="line2d_12">
      <g>
       <use xlink:href="#m2bb4ba9bcc" x="309.842879" y="303.64" style="stroke: #000000; stroke-width: 0.8"/>
      </g>
     </g>
     <g id="text_6">
      <!-- 10 -->
      <g transform="translate(303.480379 318.238437) scale(0.1 -0.1)">
       <defs>
        <path id="DejaVuSans-31" d="M 794 531 
L 1825 531 
L 1825 4091 
L 703 3866 
L 703 4441 
L 1819 4666 
L 2450 4666 
L 2450 531 
L 3481 531 
L 3481 0 
L 794 0 
L 794 531 
z
" transform="scale(0.015625)"/>
       </defs>
       <use xlink:href="#DejaVuSans-31"/>
       <use xlink:href="#DejaVuSans-30" transform="translate(63.623047 0)"/>
      </g>
     </g>
    </g>
    <g id="xtick_7">
     <g id="line2d_13">
      <path d="M 358.593182 303.64 
L 358.593182 25.44 
" clip-path="url(#p4df287cf8a)" style="fill: none; stroke: #b0b0b0; stroke-opacity: 0.3; stroke-width: 0.8; stroke-linecap: square"/>
     </g>
     <g id="line2d_14">
      <g>
       <use xlink:href="#m2bb4ba9bcc" x="358.593182" y="303.64" style="stroke: #000000; stroke-width: 0.8"/>
      </g>
     </g>
     <g id="text_7">
      <!-- 12 -->
      <g transform="translate(352.230682 318.238437) scale(0.1 -0.1)">
       <use xlink:href="#DejaVuSans-31"/>
       <use xlink:href="#DejaVuSans-32" transform="translate(63.623047 0)"/>
      </g>
     </g>
    </g>
    <g id="xtick_8">
     <g id="line2d_15">
      <path d="M 407.343485 303.64 
L 407.343485 25.44 
" clip-path="url(#p4df287cf8a)" style="fill: none; stroke: #b0b0b0; stroke-opacity: 0.3; stroke-width: 0.8; stroke-linecap: square"/>
     </g>
     <g id="line2d_16">
      <g>
       <use xlink:href="#m2bb4ba9bcc" x="407.343485" y="303.64" style="stroke: #000000; stroke-width: 0.8"/>
      </g>
     </g>
     <g id="text_8">
      <!-- 14 -->
      <g transform="translate(400.980985 318.238437) scale(0.1 -0.1)">
       <use xlink:href="#DejaVuSans-31"/>
       <use xlink:href="#DejaVuSans-34" transform="translate(63.623047 0)"/>
      </g>
     </g>
    </g>
    <g id="text_9">
     <!-- Time (minutes) -->
     <g transform="translate(210.9425 331.916562) scale(0.1 -0.1)">
      <defs>
       <path id="DejaVuSans-54" d="M -19 4666 
L 3928 4666 
L 3928 4134 
L 2272 4134 
L 2272 0 
L 1638 0 
L 1638 4134 
L -19 4134 
L -19 4666 
z
" transform="scale(0.015625)"/>
       <path id="DejaVuSans-69" d="M 603 3500 
L 1178 3500 
L 1178 0 
L 603 0 
L 603 3500 
z
M 603 4863 
L 1178 4863 
L 1178 4134 
L 603 4134 
L 603 4863 
z
" transform="scale(0.015625)"/>
       <path id="DejaVuSans-6d" d="M 3328 2828 
Q 3544 3216 3844 3400 
Q 4144 3584 4550 3584 
Q 5097 3584 5394 3201 
Q 5691 2819 5691 2113 
L 5691 0 
L 5113 0 
L 5113 2094 
Q 5113 2597 4934 2840 
Q 4756 3084 4391 3084 
Q 3944 3084 3684 2787 
Q 3425 2491 3425 1978 
L 3425 0 
L 2847 0 
L 2847 2094 
Q 2847 2600 2669 2842 
Q 2491 3084 2119 3084 
Q 1678 3084 1418 2786 
Q 1159 2488 1159 1978 
L 1159 0 
L 581 0 
L 581 3500 
L 1159 3500 
L 1159 2956 
Q 1356 3278 1631 3431 
Q 1906 3584 2284 3584 
Q 2666 3584 2933 3390 
Q 3200 3197 3328 2828 
z
" transform="scale(0.015625)"/>
       <path id="DejaVuSans-65" d="M 3597 1894 
L 3597 1613 
L 953 1613 
Q 991 1019 1311 708 
Q 1631 397 2203 397 
Q 2534 397 2845 478 
Q 3156 559 3463 722 
L 3463 178 
Q 3153 47 2828 -22 
Q 2503 -91 2169 -91 
Q 1331 -91 842 396 
Q 353 884 353 1716 
Q 353 2575 817 3079 
Q 1281 3584 2069 3584 
Q 2775 3584 3186 3129 
Q 3597 2675 3597 1894 
z
M 3022 2063 
Q 3016 2534 2758 2815 
Q 2500 3097 2075 3097 
Q 1594 3097 1305 2825 
Q 1016 2553 972 2059 
L 3022 2063 
z
" transform="scale(0.015625)"/>
       <path id="DejaVuSans-20" transform="scale(0.015625)"/>
       <path id="DejaVuSans-28" d="M 1984 4856 
Q 1566 4138 1362 3434 
Q 1159 2731 1159 2009 
Q 1159 1288 1364 580 
Q 1569 -128 1984 -844 
L 1484 -844 
Q 1016 -109 783 600 
Q 550 1309 550 2009 
Q 550 2706 781 3412 
Q 1013 4119 1484 4856 
L 1984 4856 
z
" transform="scale(0.015625)"/>
       <path id="DejaVuSans-6e" d="M 3513 2113 
L 3513 0 
L 2938 0 
L 2938 2094 
Q 2938 2591 2744 2837 
Q 2550 3084 2163 3084 
Q 1697 3084 1428 2787 
Q 1159 2491 1159 1978 
L 1159 0 
L 581 0 
L 581 3500 
L 1159 3500 
L 1159 2956 
Q 1366 3272 1645 3428 
Q 1925 3584 2291 3584 
Q 2894 3584 3203 3211 
Q 3513 2838 3513 2113 
z
" transform="scale(0.015625)"/>
       <path id="DejaVuSans-75" d="M 544 1381 
L 544 3500 
L 1119 3500 
L 1119 1403 
Q 1119 906 1312 657 
Q 1506 409 1894 409 
Q 2359 409 2629 706 
Q 2900 1003 2900 1516 
L 2900 3500 
L 3475 3500 
L 3475 0 
L 2900 0 
L 2900 538 
Q 2691 219 2414 64 
Q 2138 -91 1772 -91 
Q 1169 -91 856 284 
Q 544 659 544 1381 
z
M 1991 3584 
L 1991 3584 
z
" transform="scale(0.015625)"/>
       <path id="DejaVuSans-74" d="M 1172 4494 
L 1172 3500 
L 2356 3500 
L 2356 3053 
L 1172 3053 
L 1172 1153 
Q 1172 725 1289 603 
Q 1406 481 1766 481 
L 2356 481 
L 2356 0 
L 1766 0 
Q 1100 0 847 248 
Q 594 497 594 1153 
L 594 3053 
L 172 3053 
L 172 3500 
L 594 3500 
L 594 4494 
L 1172 4494 
z
" transform="scale(0.015625)"/>
       <path id="DejaVuSans-73" d="M 2834 3397 
L 2834 2853 
Q 2591 2978 2328 3040 
Q 2066 3103 1784 3103 
Q 1356 3103 1142 2972 
Q 928 2841 928 2578 
Q 928 2378 1081 2264 
Q 1234 2150 1697 2047 
L 1894 2003 
Q 2506 1872 2764 1633 
Q 3022 1394 3022 966 
Q 3022 478 2636 193 
Q 2250 -91 1575 -91 
Q 1294 -91 989 -36 
Q 684 19 347 128 
L 347 722 
Q 666 556 975 473 
Q 1284 391 1588 391 
Q 1994 391 2212 530 
Q 2431 669 2431 922 
Q 2431 1156 2273 1281 
Q 2116 1406 1581 1522 
L 1381 1569 
Q 847 1681 609 1914 
Q 372 2147 372 2553 
Q 372 3047 722 3315 
Q 1072 3584 1716 3584 
Q 2034 3584 2315 3537 
Q 2597 3491 2834 3397 
z
" transform="scale(0.015625)"/>
       <path id="DejaVuSans-29" d="M 513 4856 
L 1013 4856 
Q 1481 4119 1714 3412 
Q 1947 2706 1947 2009 
Q 1947 1309 1714 600 
Q 1481 -109 1013 -844 
L 513 -844 
Q 928 -128 1133 580 
Q 1338 1288 1338 2009 
Q 1338 2731 1133 3434 
Q 928 4138 513 4856 
z
" transform="scale(0.015625)"/>
      </defs>
      <use xlink:href="#DejaVuSans-54"/>
      <use xlink:href="#DejaVuSans-69" transform="translate(57.958984 0)"/>
      <use xlink:href="#DejaVuSans-6d" transform="translate(85.742188 0)"/>
      <use xlink:href="#DejaVuSans-65" transform="translate(183.154297 0)"/>
      <use xlink:href="#DejaVuSans-20" transform="translate(244.677734 0)"/>
      <use xlink:href="#DejaVuSans-28" transform="translate(276.464844 0)"/>
      <use xlink:href="#DejaVuSans-6d" transform="translate(315.478516 0)"/>
      <use xlink:href="#DejaVuSans-69" transform="translate(412.890625 0)"/>
      <use xlink:href="#DejaVuSans-6e" transform="translate(440.673828 0)"/>
      <use xlink:href="#DejaVuSans-75" transform="translate(504.052734 0)"/>
      <use xlink:href="#DejaVuSans-74" transform="translate(567.431641 0)"/>
      <use xlink:href="#DejaVuSans-65" transform="translate(606.640625 0)"/>
      <use xlink:href="#DejaVuSans-73" transform="translate(668.164062 0)"/>
      <use xlink:href="#DejaVuSans-29" transform="translate(720.263672 0)"/>
     </g>
    </g>
   </g>
   <g id="matplotlib.axis_2">
    <g id="ytick_1">
     <g id="line2d_17">
      <path d="M 47.81 290.988385 
L 450 290.988385 
" clip-path="url(#p4df287cf8a)" style="fill: none; stroke: #b0b0b0; stroke-opacity: 0.3; stroke-width: 0.8; stroke-linecap: square"/>
     </g>
     <g id="line2d_18">
      <defs>
       <path id="m20b26180d5" d="M 0 0 
L -3.5 0 
" style="stroke: #000000; stroke-width: 0.8"/>
      </defs>
      <g>
       <use xlink:href="#m20b26180d5" x="47.81" y="290.988385" style="stroke: #000000; stroke-width: 0.8"/>
      </g>
     </g>
     <g id="text_10">
      <!-- 0.0 -->
      <g transform="translate(24.906875 294.787604) scale(0.1 -0.1)">
       <defs>
        <path id="DejaVuSans-2e" d="M 684 794 
L 1344 794 
L 1344 0 
L 684 0 
L 684 794 
z
" transform="scale(0.015625)"/>
       </defs>
       <use xlink:href="#DejaVuSans-30"/>
       <use xlink:href="#DejaVuSans-2e" transform="translate(63.623047 0)"/>
       <use xlink:href="#DejaVuSans-30" transform="translate(95.410156 0)"/>
      </g>
     </g>
    </g>
    <g id="ytick_2">
     <g id="line2d_19">
      <path d="M 47.81 258.083163 
L 450 258.083163 
" clip-path="url(#p4df287cf8a)" style="fill: none; stroke: #b0b0b0; stroke-opacity: 0.3; stroke-width: 0.8; stroke-linecap: square"/>
     </g>
     <g id="line2d_20">
      <g>
       <use xlink:href="#m20b26180d5" x="47.81" y="258.083163" style="stroke: #000000; stroke-width: 0.8"/>
      </g>
     </g>
     <g id="text_11">
      <!-- 0.5 -->
      <g transform="translate(24.906875 261.882382) scale(0.1 -0.1)">
       <defs>
        <path id="DejaVuSans-35" d="M 691 4666 
L 3169 4666 
L 3169 4134 
L 1269 4134 
L 1269 2991 
Q 1406 3038 1543 3061 
Q 1681 3084 1819 3084 
Q 2600 3084 3056 2656 
Q 3513 2228 3513 1497 
Q 3513 744 3044 326 
Q 2575 -91 1722 -91 
Q 1428 -91 1123 -41 
Q 819 9 494 109 
L 494 744 
Q 775 591 1075 516 
Q 1375 441 1709 441 
Q 2250 441 2565 725 
Q 2881 1009 2881 1497 
Q 2881 1984 2565 2268 
Q 2250 2553 1709 2553 
Q 1456 2553 1204 2497 
Q 953 2441 691 2322 
L 691 4666 
z
" transform="scale(0.015625)"/>
       </defs>
       <use xlink:href="#DejaVuSans-30"/>
       <use xlink:href="#DejaVuSans-2e" transform="translate(63.623047 0)"/>
       <use xlink:href="#DejaVuSans-35" transform="translate(95.410156 0)"/>
      </g>
     </g>
    </g>
    <g id="ytick_3">
     <g id="line2d_21">
      <path d="M 47.81 225.177942 
L 450 225.177942 
" clip-path="url(#p4df287cf8a)" style="fill: none; stroke: #b0b0b0; stroke-opacity: 0.3; stroke-width: 0.8; stroke-linecap: square"/>
     </g>
     <g id="line2d_22">
      <g>
       <use xlink:href="#m20b26180d5" x="47.81" y="225.177942" style="stroke: #000000; stroke-width: 0.8"/>
      </g>
     </g>
     <g id="text_12">
      <!-- 1.0 -->
      <g transform="translate(24.906875 228.97716) scale(0.1 -0.1)">
       <use xlink:href="#DejaVuSans-31"/>
       <use xlink:href="#DejaVuSans-2e" transform="translate(63.623047 0)"/>
       <use xlink:href="#DejaVuSans-30" transform="translate(95.410156 0)"/>
      </g>
     </g>
    </g>
    <g id="ytick_4">
     <g id="line2d_23">
      <path d="M 47.81 192.27272 
L 450 192.27272 
" clip-path="url(#p4df287cf8a)" style="fill: none; stroke: #b0b0b0; stroke-opacity: 0.3; stroke-width: 0.8; stroke-linecap: square"/>
     </g>
     <g id="line2d_24">
      <g>
       <use xlink:href="#m20b26180d5" x="47.81" y="192.27272" style="stroke: #000000; stroke-width: 0.8"/>
      </g>
     </g>
     <g id="text_13">
      <!-- 1.5 -->
      <g transform="translate(24.906875 196.071939) scale(0.1 -0.1)">
       <use xlink:href="#DejaVuSans-31"/>
       <use xlink:href="#DejaVuSans-2e" transform="translate(63.623047 0)"/>
       <use xlink:href="#DejaVuSans-35" transform="translate(95.410156 0)"/>
      </g>
     </g>
    </g>
    <g id="ytick_5">
     <g id="line2d_25">
      <path d="M 47.81 159.367498 
L 450 159.367498 
" clip-path="url(#p4df287cf8a)" style="fill: none; stroke: #b0b0b0; stroke-opacity: 0.3; stroke-width: 0.8; stroke-linecap: square"/>
     </g>
     <g id="line2d_26">
      <g>
       <use xlink:href="#m20b26180d5" x="47.81" y="159.367498" style="stroke: #000000; stroke-width: 0.8"/>
      </g>
     </g>
     <g id="text_14">
      <!-- 2.0 -->
      <g transform="translate(24.906875 163.166717) scale(0.1 -0.1)">
       <use xlink:href="#DejaVuSans-32"/>
       <use xlink:href="#DejaVuSans-2e" transform="translate(63.623047 0)"/>
       <use xlink:href="#DejaVuSans-30" transform="translate(95.410156 0)"/>
      </g>
     </g>
    </g>
    <g id="ytick_6">
     <g id="line2d_27">
      <path d="M 47.81 126.462276 
L 450 126.462276 
" clip-path="url(#p4df287cf8a)" style="fill: none; stroke: #b0b0b0; stroke-opacity: 0.3; stroke-width: 0.8; stroke-linecap: square"/>
     </g>
     <g id="line2d_28">
      <g>
       <use xlink:href="#m20b26180d5" x="47.81" y="126.462276" style="stroke: #000000; stroke-width: 0.8"/>
      </g>
     </g>
     <g id="text_15">
      <!-- 2.5 -->
      <g transform="translate(24.906875 130.261495) scale(0.1 -0.1)">
       <use xlink:href="#DejaVuSans-32"/>
       <use xlink:href="#DejaVuSans-2e" transform="translate(63.623047 0)"/>
       <use xlink:href="#DejaVuSans-35" transform="translate(95.410156 0)"/>
      </g>
     </g>
    </g>
    <g id="ytick_7">
     <g id="line2d_29">
      <path d="M 47.81 93.557054 
L 450 93.557054 
" clip-path="url(#p4df287cf8a)" style="fill: none; stroke: #b0b0b0; stroke-opacity: 0.3; stroke-width: 0.8; stroke-linecap: square"/>
     </g>
     <g id="line2d_30">
      <g>
       <use xlink:href="#m20b26180d5" x="47.81" y="93.557054" style="stroke: #000000; stroke-width: 0.8"/>
      </g>
     </g>
     <g id="text_16">
      <!-- 3.0 -->
      <g transform="translate(24.906875 97.356273) scale(0.1 -0.1)">
       <defs>
        <path id="DejaVuSans-33" d="M 2597 2516 
Q 3050 2419 3304 2112 
Q 3559 1806 3559 1356 
Q 3559 666 3084 287 
Q 2609 -91 1734 -91 
Q 1441 -91 1130 -33 
Q 819 25 488 141 
L 488 750 
Q 750 597 1062 519 
Q 1375 441 1716 441 
Q 2309 441 2620 675 
Q 2931 909 2931 1356 
Q 2931 1769 2642 2001 
Q 2353 2234 1838 2234 
L 1294 2234 
L 1294 2753 
L 1863 2753 
Q 2328 2753 2575 2939 
Q 2822 3125 2822 3475 
Q 2822 3834 2567 4026 
Q 2313 4219 1838 4219 
Q 1578 4219 1281 4162 
Q 984 4106 628 3988 
L 628 4550 
Q 988 4650 1302 4700 
Q 1616 4750 1894 4750 
Q 2613 4750 3031 4423 
Q 3450 4097 3450 3541 
Q 3450 3153 3228 2886 
Q 3006 2619 2597 2516 
z
" transform="scale(0.015625)"/>
       </defs>
       <use xlink:href="#DejaVuSans-33"/>
       <use xlink:href="#DejaVuSans-2e" transform="translate(63.623047 0)"/>
       <use xlink:href="#DejaVuSans-30" transform="translate(95.410156 0)"/>
      </g>
     </g>
    </g>
    <g id="ytick_8">
     <g id="line2d_31">
      <path d="M 47.81 60.651833 
L 450 60.651833 
" clip-path="url(#p4df287cf8a)" style="fill: none; stroke: #b0b0b0; stroke-opacity: 0.3; stroke-width: 0.8; stroke-linecap: square"/>
     </g>
     <g id="line2d_32">
      <g>
       <use xlink:href="#m20b26180d5" x="47.81" y="60.651833" style="stroke: #000000; stroke-width: 0.8"/>
      </g>
     </g>
     <g id="text_17">
      <!-- 3.5 -->
      <g transform="translate(24.906875 64.451051) scale(0.1 -0.1)">
       <use xlink:href="#DejaVuSans-33"/>
       <use xlink:href="#DejaVuSans-2e" transform="translate(63.623047 0)"/>
       <use xlink:href="#DejaVuSans-35" transform="translate(95.410156 0)"/>
      </g>
     </g>
    </g>
    <g id="ytick_9">
     <g id="line2d_33">
      <path d="M 47.81 27.746611 
L 450 27.746611 
" clip-path="url(#p4df287cf8a)" style="fill: none; stroke: #b0b0b0; stroke-opacity: 0.3; stroke-width: 0.8; stroke-linecap: square"/>
     </g>
     <g id="line2d_34">
      <g>
       <use xlink:href="#m20b26180d5" x="47.81" y="27.746611" style="stroke: #000000; stroke-width: 0.8"/>
      </g>
     </g>
     <g id="text_18">
      <!-- 4.0 -->
      <g transform="translate(24.906875 31.54583) scale(0.1 -0.1)">
       <use xlink:href="#DejaVuSans-34"/>
       <use xlink:href="#DejaVuSans-2e" transform="translate(63.623047 0)"/>
       <use xlink:href="#DejaVuSans-30" transform="translate(95.410156 0)"/>
      </g>
     </g>
    </g>
    <g id="text_19">
     <!-- EDA signals (μS) -->
     <g transform="translate(18.827188 205.711875) rotate(-90) scale(0.1 -0.1)">
      <defs>
       <path id="DejaVuSans-45" d="M 628 4666 
L 3578 4666 
L 3578 4134 
L 1259 4134 
L 1259 2753 
L 3481 2753 
L 3481 2222 
L 1259 2222 
L 1259 531 
L 3634 531 
L 3634 0 
L 628 0 
L 628 4666 
z
" transform="scale(0.015625)"/>
       <path id="DejaVuSans-44" d="M 1259 4147 
L 1259 519 
L 2022 519 
Q 2988 519 3436 956 
Q 3884 1394 3884 2338 
Q 3884 3275 3436 3711 
Q 2988 4147 2022 4147 
L 1259 4147 
z
M 628 4666 
L 1925 4666 
Q 3281 4666 3915 4102 
Q 4550 3538 4550 2338 
Q 4550 1131 3912 565 
Q 3275 0 1925 0 
L 628 0 
L 628 4666 
z
" transform="scale(0.015625)"/>
       <path id="DejaVuSans-41" d="M 2188 4044 
L 1331 1722 
L 3047 1722 
L 2188 4044 
z
M 1831 4666 
L 2547 4666 
L 4325 0 
L 3669 0 
L 3244 1197 
L 1141 1197 
L 716 0 
L 50 0 
L 1831 4666 
z
" transform="scale(0.015625)"/>
       <path id="DejaVuSans-67" d="M 2906 1791 
Q 2906 2416 2648 2759 
Q 2391 3103 1925 3103 
Q 1463 3103 1205 2759 
Q 947 2416 947 1791 
Q 947 1169 1205 825 
Q 1463 481 1925 481 
Q 2391 481 2648 825 
Q 2906 1169 2906 1791 
z
M 3481 434 
Q 3481 -459 3084 -895 
Q 2688 -1331 1869 -1331 
Q 1566 -1331 1297 -1286 
Q 1028 -1241 775 -1147 
L 775 -588 
Q 1028 -725 1275 -790 
Q 1522 -856 1778 -856 
Q 2344 -856 2625 -561 
Q 2906 -266 2906 331 
L 2906 616 
Q 2728 306 2450 153 
Q 2172 0 1784 0 
Q 1141 0 747 490 
Q 353 981 353 1791 
Q 353 2603 747 3093 
Q 1141 3584 1784 3584 
Q 2172 3584 2450 3431 
Q 2728 3278 2906 2969 
L 2906 3500 
L 3481 3500 
L 3481 434 
z
" transform="scale(0.015625)"/>
       <path id="DejaVuSans-61" d="M 2194 1759 
Q 1497 1759 1228 1600 
Q 959 1441 959 1056 
Q 959 750 1161 570 
Q 1363 391 1709 391 
Q 2188 391 2477 730 
Q 2766 1069 2766 1631 
L 2766 1759 
L 2194 1759 
z
M 3341 1997 
L 3341 0 
L 2766 0 
L 2766 531 
Q 2569 213 2275 61 
Q 1981 -91 1556 -91 
Q 1019 -91 701 211 
Q 384 513 384 1019 
Q 384 1609 779 1909 
Q 1175 2209 1959 2209 
L 2766 2209 
L 2766 2266 
Q 2766 2663 2505 2880 
Q 2244 3097 1772 3097 
Q 1472 3097 1187 3025 
Q 903 2953 641 2809 
L 641 3341 
Q 956 3463 1253 3523 
Q 1550 3584 1831 3584 
Q 2591 3584 2966 3190 
Q 3341 2797 3341 1997 
z
" transform="scale(0.015625)"/>
       <path id="DejaVuSans-6c" d="M 603 4863 
L 1178 4863 
L 1178 0 
L 603 0 
L 603 4863 
z
" transform="scale(0.015625)"/>
       <path id="DejaVuSans-3bc" d="M 544 -1331 
L 544 3500 
L 1119 3500 
L 1119 1325 
Q 1119 872 1334 640 
Q 1550 409 1972 409 
Q 2434 409 2667 671 
Q 2900 934 2900 1459 
L 2900 3500 
L 3475 3500 
L 3475 806 
Q 3475 619 3529 530 
Q 3584 441 3700 441 
Q 3728 441 3778 458 
Q 3828 475 3916 513 
L 3916 50 
Q 3788 -22 3673 -56 
Q 3559 -91 3450 -91 
Q 3234 -91 3106 31 
Q 2978 153 2931 403 
Q 2775 156 2548 32 
Q 2322 -91 2016 -91 
Q 1697 -91 1473 31 
Q 1250 153 1119 397 
L 1119 -1331 
L 544 -1331 
z
" transform="scale(0.015625)"/>
       <path id="DejaVuSans-53" d="M 3425 4513 
L 3425 3897 
Q 3066 4069 2747 4153 
Q 2428 4238 2131 4238 
Q 1616 4238 1336 4038 
Q 1056 3838 1056 3469 
Q 1056 3159 1242 3001 
Q 1428 2844 1947 2747 
L 2328 2669 
Q 3034 2534 3370 2195 
Q 3706 1856 3706 1288 
Q 3706 609 3251 259 
Q 2797 -91 1919 -91 
Q 1588 -91 1214 -16 
Q 841 59 441 206 
L 441 856 
Q 825 641 1194 531 
Q 1563 422 1919 422 
Q 2459 422 2753 634 
Q 3047 847 3047 1241 
Q 3047 1584 2836 1778 
Q 2625 1972 2144 2069 
L 1759 2144 
Q 1053 2284 737 2584 
Q 422 2884 422 3419 
Q 422 4038 858 4394 
Q 1294 4750 2059 4750 
Q 2388 4750 2728 4690 
Q 3069 4631 3425 4513 
z
" transform="scale(0.015625)"/>
      </defs>
      <use xlink:href="#DejaVuSans-45"/>
      <use xlink:href="#DejaVuSans-44" transform="translate(63.183594 0)"/>
      <use xlink:href="#DejaVuSans-41" transform="translate(138.435547 0)"/>
      <use xlink:href="#DejaVuSans-20" transform="translate(206.84375 0)"/>
      <use xlink:href="#DejaVuSans-73" transform="translate(238.630859 0)"/>
      <use xlink:href="#DejaVuSans-69" transform="translate(290.730469 0)"/>
      <use xlink:href="#DejaVuSans-67" transform="translate(318.513672 0)"/>
      <use xlink:href="#DejaVuSans-6e" transform="translate(381.990234 0)"/>
      <use xlink:href="#DejaVuSans-61" transform="translate(445.369141 0)"/>
      <use xlink:href="#DejaVuSans-6c" transform="translate(506.648438 0)"/>
      <use xlink:href="#DejaVuSans-73" transform="translate(534.431641 0)"/>
      <use xlink:href="#DejaVuSans-20" transform="translate(586.53125 0)"/>
      <use xlink:href="#DejaVuSans-28" transform="translate(618.318359 0)"/>
      <use xlink:href="#DejaVuSans-3bc" transform="translate(657.332031 0)"/>
      <use xlink:href="#DejaVuSans-53" transform="translate(720.955078 0)"/>
      <use xlink:href="#DejaVuSans-29" transform="translate(784.431641 0)"/>
     </g>
    </g>
   </g>
   <g id="line2d_35">
    <path d="M 66.091364 97.40125 
L 66.701081 98.767497 
L 67.514038 101.227263 
L 71.375582 113.927821 
L 72.493398 117.748124 
L 75.135507 127.495844 
L 76.253322 130.345124 
L 77.675997 133.385715 
L 78.895432 135.50926 
L 80.419725 137.706796 
L 81.334302 138.689668 
L 82.147258 139.239684 
L 83.468313 140.033507 
L 84.17965 140.756597 
L 84.992607 141.919242 
L 85.602324 143.18264 
L 86.110422 144.850304 
L 86.516901 146.924508 
L 87.024998 150.862512 
L 87.634716 157.811772 
L 89.565488 182.551103 
L 90.073586 185.871953 
L 90.581684 187.815145 
L 91.089782 188.922178 
L 91.801119 189.893191 
L 93.630272 191.913185 
L 94.341609 192.379557 
L 94.951326 192.530193 
L 96.678859 192.761941 
L 97.288577 193.1775 
L 98.101533 194.051868 
L 99.320968 195.430814 
L 99.727447 195.554035 
L 100.032306 195.387596 
L 100.337164 194.929019 
L 100.743643 193.790996 
L 101.251741 191.530753 
L 103.182513 181.617955 
L 103.588991 180.741792 
L 103.995469 180.35247 
L 104.401948 180.314041 
L 104.910046 180.544391 
L 105.824622 180.992029 
L 106.129481 180.882151 
L 106.43434 180.42919 
L 106.739198 179.415886 
L 107.044057 177.55464 
L 107.450535 173.157856 
L 107.857014 165.819304 
L 108.365112 151.692267 
L 109.076449 123.578496 
L 110.397503 69.309186 
L 110.905601 56.20617 
L 111.413699 48.49236 
L 111.820178 45.3511 
L 112.226656 43.948432 
L 112.531515 43.535987 
L 113.141232 43.228037 
L 113.64933 42.85846 
L 114.665526 41.980233 
L 114.970385 42.010122 
L 115.275244 42.269733 
L 115.681722 42.937481 
L 116.799537 45.01875 
L 117.104396 45.179568 
L 117.409255 45.084642 
L 117.815733 44.650009 
L 118.73031 43.557958 
L 119.035168 43.487193 
L 119.340027 43.626484 
L 119.746505 44.091232 
L 122.083756 47.788255 
L 122.591854 48.963967 
L 123.303191 51.288504 
L 124.319387 54.641189 
L 124.725865 55.415705 
L 125.030724 55.68968 
L 125.335583 55.711754 
L 125.640441 55.520559 
L 126.148539 54.880897 
L 127.469594 53.045596 
L 128.079311 52.665442 
L 129.603605 52.092128 
L 130.111703 51.492302 
L 130.82304 50.226516 
L 131.737617 48.648303 
L 132.144095 48.315907 
L 132.448954 48.290944 
L 132.753812 48.458308 
L 133.26191 49.081257 
L 136.107259 53.772624 
L 137.428313 56.577302 
L 138.24127 58.035125 
L 138.749368 58.52512 
L 139.155846 58.595335 
L 139.562325 58.377918 
L 140.172042 57.668256 
L 140.984999 56.704689 
L 141.391477 56.528917 
L 141.696336 56.606663 
L 142.102814 57.003096 
L 142.610912 57.891797 
L 144.338445 61.287715 
L 145.049782 62.030807 
L 146.675696 63.447978 
L 147.183794 64.457485 
L 147.691892 66.066447 
L 148.301609 68.796627 
L 150.435621 79.213136 
L 150.842099 79.911304 
L 151.045338 79.950906 
L 151.248577 79.776958 
L 151.553436 79.141429 
L 152.061534 77.341001 
L 152.97611 73.882617 
L 153.382589 73.074078 
L 153.687447 72.878902 
L 153.992306 72.990053 
L 154.500404 73.575557 
L 155.008502 74.118727 
L 155.313361 74.174661 
L 155.618219 73.921413 
L 155.923078 73.329015 
L 156.431176 71.668964 
L 158.260329 64.750485 
L 158.565187 64.399956 
L 158.768427 64.388113 
L 158.971666 64.560851 
L 159.276525 65.158874 
L 159.683003 66.507209 
L 161.105677 72.007186 
L 161.410536 72.397872 
L 161.613775 72.41901 
L 161.918634 72.128806 
L 162.325112 71.303292 
L 163.544547 68.498443 
L 164.052645 67.909212 
L 164.560743 67.655856 
L 165.170461 67.623829 
L 165.983417 67.824408 
L 166.897994 68.273741 
L 167.914189 69.052347 
L 169.438483 70.551165 
L 170.048201 71.482403 
L 170.556299 72.676215 
L 171.267636 75.071589 
L 172.385451 78.985873 
L 172.79193 79.781288 
L 173.096788 80.042333 
L 173.401647 80.020704 
L 173.706506 79.746643 
L 174.112984 79.059765 
L 174.722702 77.525341 
L 175.535658 74.812271 
L 176.450235 70.951034 
L 178.381007 62.320186 
L 178.889105 61.175168 
L 179.397203 60.597591 
L 180.311779 59.81621 
L 180.819877 58.939933 
L 181.531214 57.10688 
L 182.44579 54.761193 
L 182.953888 54.035184 
L 183.258747 53.892148 
L 183.563606 53.969437 
L 183.970084 54.363455 
L 184.783041 55.638266 
L 185.494378 56.553639 
L 186.104095 56.941747 
L 187.018672 57.415608 
L 187.42515 57.931072 
L 187.933248 58.990977 
L 188.949444 61.261035 
L 189.254303 61.402677 
L 189.457542 61.247091 
L 189.762401 60.608301 
L 190.168879 59.043517 
L 190.778596 55.621065 
L 192.099651 47.952509 
L 192.709369 45.607672 
L 193.319086 44.062864 
L 194.233662 42.471647 
L 195.148239 41.220824 
L 195.757956 40.714513 
L 196.774152 40.283213 
L 197.38387 39.849252 
L 198.095207 39.011584 
L 198.806544 38.229999 
L 199.213022 38.085455 
L 199.517881 38.199575 
L 199.924359 38.651872 
L 200.635696 39.941319 
L 201.245414 40.889278 
L 201.651892 41.154 
L 201.956751 41.126974 
L 202.363229 40.847404 
L 203.684284 39.661911 
L 204.090762 39.616985 
L 204.59886 39.829352 
L 205.208578 40.380288 
L 206.123154 41.569771 
L 207.545828 43.862616 
L 209.273361 46.589164 
L 210.391177 47.936748 
L 211.508992 48.906585 
L 213.236525 50.316213 
L 214.45596 51.723056 
L 217.199689 55.295225 
L 218.520744 57.02328 
L 219.130461 57.478079 
L 219.740179 57.659236 
L 221.77257 57.969023 
L 223.703343 58.88503 
L 225.735734 59.877363 
L 226.650311 60.610129 
L 227.768126 61.817257 
L 229.1908 63.3013 
L 230.105376 63.917895 
L 232.341007 65.2875 
L 235.796073 67.670032 
L 237.930085 68.785546 
L 238.946281 69.066709 
L 241.893249 69.60528 
L 243.214303 70.339062 
L 245.246695 71.69413 
L 247.177467 73.245919 
L 247.685565 73.246692 
L 248.498522 72.92086 
L 249.108239 72.80046 
L 249.616337 72.977032 
L 250.124435 73.410412 
L 251.140631 74.674426 
L 252.563305 76.343351 
L 254.087599 77.731823 
L 256.119991 79.278983 
L 257.949143 80.405905 
L 258.863719 80.748542 
L 259.575057 80.803535 
L 260.388013 80.629694 
L 262.623644 79.957071 
L 263.334981 80.154746 
L 265.367373 80.954119 
L 266.688428 81.312537 
L 267.501384 81.796359 
L 269.940254 83.471182 
L 272.175885 84.554734 
L 275.83419 87.081596 
L 278.679539 88.442445 
L 281.220029 89.861726 
L 282.134605 90.07534 
L 283.760518 90.37364 
L 284.776714 90.91743 
L 286.097769 91.604435 
L 287.113965 91.85784 
L 288.435019 91.916602 
L 289.451215 92.05353 
L 290.264172 92.403449 
L 291.585226 93.2826 
L 294.024096 94.895298 
L 295.65001 95.675672 
L 300.019652 97.428024 
L 300.832609 97.4725 
L 301.442326 97.277001 
L 302.052044 96.809486 
L 302.661761 95.991528 
L 303.271479 94.727089 
L 303.982816 92.646179 
L 305.50711 87.840714 
L 306.015208 86.989837 
L 306.421686 86.712484 
L 306.828164 86.745173 
L 307.336262 87.089581 
L 308.555697 88.096193 
L 308.962176 88.100558 
L 309.267034 87.898895 
L 309.673513 87.33026 
L 310.181611 86.1927 
L 311.807524 82.118549 
L 312.518861 81.155778 
L 313.331818 80.11601 
L 313.839916 79.102785 
L 314.551253 77.081114 
L 315.465829 74.452014 
L 315.872308 73.899983 
L 316.075547 73.869376 
L 316.278786 74.021066 
L 316.583645 74.591054 
L 316.990123 75.920503 
L 317.80308 79.695345 
L 318.717656 83.665186 
L 319.225754 85.10976 
L 319.632232 85.774067 
L 319.937091 85.97664 
L 320.24195 85.929287 
L 320.546809 85.643568 
L 320.953287 84.932144 
L 321.563004 83.353598 
L 322.884059 79.800265 
L 323.493777 78.851135 
L 324.001875 78.444024 
L 324.611592 78.268827 
L 325.424549 78.309681 
L 326.542364 78.617556 
L 328.473136 79.429276 
L 329.590952 79.954016 
L 329.99743 79.856079 
L 330.302289 79.542565 
L 330.708767 78.712006 
L 331.216865 76.958658 
L 331.928202 73.397482 
L 334.265453 60.697934 
L 335.586507 54.100307 
L 336.907562 47.202154 
L 337.41566 45.694888 
L 337.720519 45.289058 
L 338.025377 45.240592 
L 338.330236 45.483587 
L 338.939954 46.421428 
L 339.448052 47.087445 
L 339.75291 47.221166 
L 340.057769 47.084757 
L 340.362628 46.674484 
L 340.870726 45.52628 
L 341.785302 43.4165 
L 342.090161 43.120984 
L 342.39502 43.132602 
L 342.699878 43.442906 
L 343.106357 44.232471 
L 344.020933 46.717369 
L 345.037129 49.230941 
L 346.053325 51.10911 
L 347.069521 52.537365 
L 347.984097 53.466075 
L 348.898673 54.084103 
L 349.914869 54.522656 
L 350.727826 54.672056 
L 351.540783 54.588726 
L 353.471555 54.030376 
L 354.081272 53.701819 
L 354.69099 53.095875 
L 355.503946 51.879896 
L 357.942816 48.047116 
L 358.450914 47.525402 
L 358.755773 47.47951 
L 359.060632 47.725579 
L 359.365491 48.306499 
L 359.771969 49.595064 
L 360.483306 52.860675 
L 361.90598 59.546909 
L 362.820557 62.651078 
L 364.039992 65.944439 
L 365.056188 68.163685 
L 365.970764 69.643375 
L 366.783721 70.552975 
L 367.799916 71.313606 
L 368.714493 72.042281 
L 369.32421 72.806799 
L 370.137167 74.224824 
L 371.8647 77.367293 
L 373.185754 79.15153 
L 374.710048 81.322717 
L 375.827864 82.797416 
L 376.539201 83.379795 
L 377.250538 83.641397 
L 378.978071 84.054829 
L 379.689408 84.603918 
L 380.603984 85.637123 
L 385.583344 91.768919 
L 387.514116 93.448365 
L 394.119389 98.627155 
L 395.846922 99.578209 
L 405.500783 104.001519 
L 407.228316 104.51355 
L 409.362327 105.059777 
L 417.593514 108.244344 
L 420.540482 109.786481 
L 422.674493 110.739845 
L 425.8247 112.371854 
L 427.857092 113.252865 
L 430.499201 114.584911 
L 431.718636 114.999127 
L 431.718636 114.999127 
" clip-path="url(#p4df287cf8a)" style="fill: none; stroke-dasharray: 1.85,0.8; stroke-dashoffset: 0; stroke: #1f77b4; stroke-width: 0.5"/>
   </g>
   <g id="line2d_36">
    <path d="M 66.091364 97.146502 
L 67.10756 100.995272 
L 68.428614 105.079637 
L 70.562625 111.544693 
L 72.391778 118.210321 
L 74.32255 125.038474 
L 75.541985 128.563593 
L 76.86304 131.700438 
L 78.285714 134.480874 
L 79.708388 136.789105 
L 80.826204 138.202171 
L 81.74078 139.030365 
L 82.553737 139.479053 
L 83.569933 139.953803 
L 84.07803 140.467229 
L 84.586128 141.358488 
L 85.094226 142.77293 
L 85.602324 144.855904 
L 86.212042 148.442586 
L 86.821759 153.417286 
L 87.736336 162.906131 
L 89.870347 185.644521 
L 90.480064 190.010142 
L 90.988162 192.321145 
L 91.394641 193.39471 
L 91.801119 193.914334 
L 92.105978 194.015579 
L 92.512456 193.866011 
L 93.122174 193.285305 
L 93.93513 192.500831 
L 94.341609 192.384935 
L 94.646467 192.521255 
L 95.052946 193.032381 
L 95.561044 194.075779 
L 96.678859 197.091703 
L 97.491816 199.014417 
L 97.999914 199.718532 
L 98.304773 199.86329 
L 98.609631 199.751303 
L 98.91449 199.356859 
L 99.422588 198.188678 
L 100.235545 195.550857 
L 101.251741 192.314559 
L 101.759839 191.3016 
L 102.064697 191.032684 
L 102.267936 191.028207 
L 102.471176 191.182394 
L 102.776034 191.746459 
L 103.182513 193.074697 
L 105.011665 199.946025 
L 105.214904 200.084537 
L 105.418144 199.966917 
L 105.621383 199.557401 
L 105.926242 198.317586 
L 106.33272 195.309055 
L 106.739198 190.48917 
L 107.247296 181.679964 
L 107.958633 165.142321 
L 109.178068 130.364954 
L 110.702362 88.023094 
L 111.515319 71.422401 
L 112.226656 60.911735 
L 112.937993 53.549657 
L 113.547711 49.312136 
L 114.157428 46.608126 
L 114.665526 45.26658 
L 115.173624 44.535733 
L 115.580102 44.296057 
L 115.986581 44.315152 
L 116.393059 44.549456 
L 117.002777 45.209128 
L 118.018972 46.767459 
L 119.238407 48.560065 
L 120.152984 49.465777 
L 122.490234 51.540194 
L 123.201571 52.563717 
L 124.319387 54.654395 
L 125.538822 56.79501 
L 126.148539 57.487325 
L 126.656637 57.741233 
L 127.063116 57.677211 
L 127.469594 57.346715 
L 127.977692 56.614609 
L 128.689029 55.16724 
L 131.026279 50.050687 
L 131.534377 49.485483 
L 132.042475 49.226951 
L 132.550573 49.240548 
L 133.058671 49.491729 
L 133.668389 50.05812 
L 134.481345 51.16495 
L 135.70078 53.292501 
L 138.34289 58.021039 
L 139.257466 59.159309 
L 139.968803 59.723539 
L 140.78176 60.095969 
L 142.001195 60.374885 
L 143.322249 60.736969 
L 144.135206 61.214348 
L 144.846543 61.898058 
L 145.55788 62.904514 
L 146.269217 64.304807 
L 146.980555 66.170028 
L 147.793511 68.951089 
L 150.740479 79.968588 
L 151.248577 80.946646 
L 151.655056 81.329509 
L 151.959914 81.376636 
L 152.366393 81.161504 
L 152.874491 80.522668 
L 153.585828 79.128966 
L 156.126317 73.569608 
L 156.837655 72.766049 
L 157.548992 72.310426 
L 158.260329 72.133279 
L 159.073285 72.182711 
L 160.191101 72.504242 
L 161.613775 72.889366 
L 162.325112 72.874827 
L 162.93483 72.664051 
L 163.544547 72.212777 
L 164.255884 71.344341 
L 166.186656 68.721645 
L 166.694754 68.423844 
L 167.101233 68.427117 
L 167.507711 68.69616 
L 167.914189 69.276346 
L 168.422287 70.417244 
L 169.235244 72.898027 
L 171.166016 79.139701 
L 171.775734 80.343774 
L 172.182212 80.7539 
L 172.58869 80.858907 
L 172.995169 80.691501 
L 173.503267 80.148993 
L 174.112984 79.093539 
L 174.925941 77.181195 
L 176.450235 72.87356 
L 179.295583 64.224202 
L 181.836073 56.445467 
L 182.54741 55.000312 
L 183.055508 54.382435 
L 183.461986 54.193754 
L 183.766845 54.255456 
L 184.071704 54.509151 
L 184.478182 55.137789 
L 185.0879 56.551412 
L 187.52677 62.935561 
L 187.933248 63.348012 
L 188.238107 63.406314 
L 188.542966 63.246298 
L 188.949444 62.726983 
L 189.457542 61.650993 
L 190.168879 59.509307 
L 191.185075 55.613374 
L 193.522325 46.363938 
L 194.538521 43.277529 
L 195.351478 41.498519 
L 195.961195 40.659693 
L 196.469293 40.32963 
L 196.977391 40.307317 
L 197.485489 40.51674 
L 198.298446 41.141876 
L 199.6195 42.191315 
L 200.229218 42.374086 
L 200.737316 42.268594 
L 201.347033 41.892782 
L 202.464849 40.866092 
L 203.481045 40.061268 
L 204.090762 39.869255 
L 204.59886 39.975666 
L 205.106958 40.329647 
L 205.818295 41.152584 
L 206.834491 42.754776 
L 208.866883 46.074292 
L 209.984698 47.408175 
L 211.610612 48.969144 
L 213.541384 50.872829 
L 215.573776 53.23183 
L 219.3337 57.696111 
L 220.248277 58.386637 
L 221.061233 58.728867 
L 221.97581 58.862533 
L 224.31306 59.088903 
L 225.126017 59.492047 
L 226.040593 60.216958 
L 227.768126 61.950384 
L 229.1908 63.249817 
L 230.613474 64.218331 
L 233.458823 66.072083 
L 236.405791 68.215324 
L 237.421987 68.646423 
L 238.743041 68.931571 
L 241.080292 69.395383 
L 242.299727 69.9291 
L 243.92564 70.908746 
L 250.124435 74.890696 
L 252.360066 76.267175 
L 253.78274 77.423528 
L 256.628089 79.866667 
L 257.542665 80.34976 
L 258.558861 80.620932 
L 259.778296 80.687904 
L 264.351177 80.653118 
L 265.570612 80.977594 
L 266.891667 81.580177 
L 268.822439 82.741177 
L 275.122853 86.651719 
L 278.069821 88.27569 
L 284.268616 91.224505 
L 285.589671 91.619144 
L 286.910725 91.763937 
L 289.044737 91.991611 
L 290.060933 92.360427 
L 291.280368 93.092527 
L 294.328955 95.059719 
L 298.1905 96.935408 
L 299.714793 97.944765 
L 300.42613 98.135191 
L 300.934228 98.061223 
L 301.442326 97.759451 
L 301.950424 97.183274 
L 302.560142 96.120672 
L 303.474718 94.030062 
L 305.303871 89.767678 
L 305.913588 88.828607 
L 306.421686 88.373558 
L 307.031404 88.140474 
L 307.84436 88.121907 
L 308.860556 88.083334 
L 309.368654 87.863989 
L 309.876752 87.399005 
L 310.38485 86.618964 
L 311.197807 84.858941 
L 313.230198 80.179597 
L 313.839916 79.40904 
L 314.246394 79.217098 
L 314.652873 79.295034 
L 315.059351 79.601214 
L 315.669068 80.394136 
L 316.583645 82.04626 
L 318.107939 84.821263 
L 318.819276 85.630066 
L 319.428993 85.999806 
L 319.937091 86.088276 
L 320.445189 85.983916 
L 321.054907 85.613189 
L 321.664624 84.985129 
L 322.375961 83.942454 
L 323.595396 81.651525 
L 324.814831 79.521383 
L 325.424549 78.813594 
L 325.932647 78.521672 
L 326.339125 78.532622 
L 326.745603 78.766381 
L 327.355321 79.395502 
L 328.777995 80.950828 
L 329.184473 81.105965 
L 329.590952 81.005557 
L 329.99743 80.580334 
L 330.403908 79.761028 
L 330.912006 78.153352 
L 331.623344 75.038014 
L 332.741159 68.934668 
L 334.367072 60.09934 
L 335.180029 56.800143 
L 335.992986 54.312981 
L 336.907562 52.231778 
L 338.025377 50.310156 
L 339.95615 47.492978 
L 340.870726 46.5286 
L 341.582063 46.107578 
L 342.090161 46.036464 
L 342.598259 46.192679 
L 343.106357 46.585609 
L 343.817694 47.452499 
L 344.83389 49.09206 
L 346.663042 52.100687 
L 347.577619 53.138171 
L 348.492195 53.83975 
L 349.508391 54.326694 
L 350.829445 54.681317 
L 351.947261 54.804827 
L 352.760218 54.687495 
L 353.471555 54.365561 
L 354.182892 53.778828 
L 354.894229 52.870761 
L 356.113664 50.797988 
L 357.02824 49.420866 
L 357.637958 48.876728 
L 358.044436 48.770691 
L 358.450914 48.923393 
L 358.857393 49.380573 
L 359.365491 50.396786 
L 360.076828 52.483985 
L 361.093024 56.310069 
L 363.023796 63.663188 
L 363.938372 66.135482 
L 364.852948 67.955749 
L 365.869144 69.446572 
L 367.393438 71.188451 
L 369.527449 73.66692 
L 370.746884 75.41375 
L 372.067939 77.730728 
L 374.100331 81.279404 
L 375.014907 82.42262 
L 375.726244 82.982183 
L 376.539201 83.352582 
L 379.18131 84.299514 
L 379.994267 85.001926 
L 381.112082 86.304227 
L 384.973627 91.110624 
L 386.904399 92.931882 
L 389.749747 95.268135 
L 394.424248 98.812053 
L 395.948542 99.675152 
L 398.082553 100.570338 
L 400.216565 101.53023 
L 404.382968 103.588738 
L 406.720218 104.329547 
L 410.581762 105.571294 
L 415.764361 107.416599 
L 418.203231 108.69289 
L 420.235623 109.651064 
L 422.979352 110.839476 
L 424.097167 111.629013 
L 425.8247 113.23769 
L 427.145755 114.323537 
L 427.958712 114.733089 
L 428.771668 114.872463 
L 429.686245 114.784232 
L 431.312158 114.334892 
L 431.718636 114.225243 
L 431.718636 114.225243 
" clip-path="url(#p4df287cf8a)" style="fill: none; stroke: #ff7f0e; stroke-width: 0.5; stroke-linecap: square"/>
   </g>
   <g id="line2d_37">
    <path d="M 66.091364 290.988385 
L 66.294603 290.994545 
L 66.599462 290.159322 
L 67.209179 289.928389 
L 67.717277 289.983616 
L 68.936712 290.710308 
L 69.851288 290.897223 
L 70.765865 290.889681 
L 72.086919 290.219201 
L 72.696637 290.195303 
L 73.306354 290.497049 
L 74.119311 290.79604 
L 75.237126 290.939292 
L 77.980855 290.986577 
L 84.586128 290.957927 
L 84.992607 290.506739 
L 85.500705 289.581627 
L 86.923379 286.589114 
L 87.329857 286.494655 
L 87.533096 286.887488 
L 88.549292 289.556489 
L 89.05739 290.212541 
L 89.565488 290.571593 
L 89.667108 290.529552 
L 90.175206 289.353107 
L 90.988162 287.451127 
L 91.394641 287.014698 
L 91.699499 286.969444 
L 92.004358 287.160066 
L 92.512456 287.899831 
L 93.325413 289.67325 
L 93.833511 290.273066 
L 94.443228 290.648901 
L 94.849707 290.771236 
L 95.052946 290.534615 
L 95.662663 289.250612 
L 97.085338 285.901586 
L 97.593435 285.303632 
L 97.898294 285.216291 
L 98.203153 285.36141 
L 98.609631 285.867884 
L 99.01611 287.242534 
L 99.625827 289.074422 
L 100.133925 289.947358 
L 100.642023 290.428742 
L 101.048501 290.631755 
L 101.150121 290.522637 
L 101.658219 288.806897 
L 102.267936 285.603409 
L 104.503567 272.657409 
L 104.910046 271.782007 
L 105.113285 271.657965 
L 105.316524 271.770586 
L 105.519763 272.138256 
L 105.824622 273.205865 
L 106.2311 275.409382 
L 106.535959 278.241292 
L 107.247296 285.011889 
L 107.755394 287.733189 
L 108.161873 289.005572 
L 108.263492 289.023545 
L 108.466731 287.966404 
L 108.77159 285.173182 
L 109.381308 276.639079 
L 110.092645 267.093899 
L 110.499123 264.256917 
L 110.702362 263.767994 
L 110.803982 263.746907 
L 111.007221 264.115389 
L 111.31208 265.60002 
L 111.820178 269.884366 
L 113.141232 282.312376 
L 113.64933 285.122798 
L 114.157428 286.75355 
L 115.580102 289.624064 
L 116.0882 290.24424 
L 116.697918 290.634902 
L 117.104396 290.773664 
L 117.206016 290.720003 
L 117.612494 289.820196 
L 119.035168 286.206598 
L 119.340027 285.978079 
L 119.644886 285.979004 
L 120.051364 286.225988 
L 121.474038 287.325571 
L 122.286995 287.898412 
L 122.490234 288.138665 
L 123.60805 290.095057 
L 124.217767 290.561776 
L 124.929104 290.805432 
L 125.132343 290.592973 
L 125.742061 289.381699 
L 126.758257 287.207821 
L 127.164735 286.779893 
L 127.469594 286.727602 
L 127.774453 286.897887 
L 128.282551 287.553078 
L 128.689029 288.449502 
L 129.298747 289.686159 
L 129.806844 290.279527 
L 130.416562 290.651871 
L 131.026279 290.803828 
L 132.550573 290.100481 
L 134.481345 290.877441 
L 135.192683 290.890211 
L 136.005639 290.779296 
L 137.936411 290.964444 
L 138.850988 290.897862 
L 139.460705 290.137189 
L 141.289858 287.33928 
L 141.594717 287.290193 
L 141.899575 287.434397 
L 142.407673 288.029549 
L 143.423869 289.950091 
L 144.033587 290.491221 
L 144.744924 290.780548 
L 145.253022 290.79422 
L 145.964359 290.070951 
L 147.183794 288.688176 
L 147.590272 288.530027 
L 147.99675 288.627906 
L 148.301609 288.812014 
L 149.521044 290.374161 
L 150.130762 290.695601 
L 150.740479 290.836119 
L 150.943718 290.565256 
L 151.350197 289.564125 
L 152.163154 286.642946 
L 152.772871 284.858794 
L 153.07773 284.477941 
L 153.280969 284.467794 
L 153.484208 284.648575 
L 153.890686 285.481519 
L 154.906882 289.05942 
L 155.41498 289.94302 
L 155.923078 290.424551 
L 156.024698 290.394514 
L 156.431176 289.517256 
L 157.040894 287.455133 
L 157.95547 284.309872 
L 158.361948 283.493197 
L 158.666807 283.269171 
L 158.870046 283.328439 
L 159.174905 283.741076 
L 159.581383 284.770718 
L 160.597579 288.794786 
L 161.105677 289.799119 
L 161.613775 290.349614 
L 161.817014 290.406686 
L 162.325112 289.457605 
L 163.239688 287.607645 
L 163.646167 287.26688 
L 163.951026 287.269806 
L 164.357504 287.555378 
L 165.068841 288.485355 
L 166.085037 290.120492 
L 166.694754 290.573123 
L 167.406092 290.814816 
L 167.914189 290.814509 
L 168.422287 290.126972 
L 169.133624 288.67795 
L 170.048201 286.797964 
L 170.454679 286.351792 
L 170.759538 286.284807 
L 171.064397 286.465446 
L 171.470875 287.009822 
L 171.877353 288.038365 
L 172.487071 289.473532 
L 172.995169 290.163602 
L 173.604886 290.59683 
L 174.417843 290.844166 
L 174.824321 290.810593 
L 175.535658 290.329878 
L 176.145376 289.601447 
L 176.856713 288.338317 
L 177.872909 286.530543 
L 178.279387 286.261321 
L 178.584246 286.352927 
L 178.889105 286.706378 
L 179.193964 287.224856 
L 180.10854 289.519433 
L 180.616638 290.190194 
L 181.226355 290.609695 
L 181.937692 290.800167 
L 182.64903 290.580516 
L 184.783041 290.887425 
L 185.189519 290.423522 
L 185.697617 289.449882 
L 187.120291 286.337878 
L 187.42515 286.176036 
L 187.831628 286.408954 
L 188.238107 287.613509 
L 188.847824 289.259282 
L 189.355922 290.047385 
L 189.96564 290.54168 
L 190.168879 290.56817 
L 190.575357 289.846463 
L 191.794792 287.431539 
L 192.201271 287.143656 
L 192.506129 287.165575 
L 192.912608 287.478182 
L 193.522325 288.329702 
L 194.74176 290.064705 
L 195.351478 290.541432 
L 196.062815 290.801055 
L 196.977391 290.89153 
L 197.38387 290.41776 
L 197.993587 289.29106 
L 199.009783 287.381155 
L 199.416261 287.097319 
L 199.72112 287.171084 
L 200.127598 287.597095 
L 201.347033 290.026913 
L 201.956751 290.530013 
L 202.668088 290.796866 
L 203.074566 290.790964 
L 203.785904 290.747434 
L 205.513437 290.952954 
L 207.240969 290.911703 
L 208.155546 290.926266 
L 210.899275 290.985996 
L 212.423568 290.890525 
L 213.643003 290.797016 
L 219.232081 290.957173 
L 220.959614 290.068901 
L 221.569331 290.097481 
L 222.179049 290.32828 
L 223.093625 290.747813 
L 224.109821 290.918582 
L 225.735734 290.957296 
L 226.955169 290.836048 
L 229.495659 290.979752 
L 235.084736 290.926116 
L 236.50741 290.865935 
L 238.438183 290.975382 
L 241.58839 290.915789 
L 244.535358 290.908074 
L 246.974228 290.983872 
L 247.583945 290.926668 
L 249.413098 289.412323 
L 249.921196 289.463263 
L 250.632533 289.84645 
L 251.750348 290.635575 
L 252.563305 290.857082 
L 253.985979 290.965473 
L 255.307034 290.899572 
L 256.729708 290.794527 
L 258.7621 290.968604 
L 260.692872 290.90642 
L 262.420405 290.433687 
L 262.826883 290.514355 
L 263.944699 290.847933 
L 265.367373 290.963651 
L 266.383569 290.887546 
L 267.196526 290.912269 
L 269.635396 290.984137 
L 270.651592 290.8779 
L 271.769407 290.702216 
L 272.480744 290.8079 
L 273.903418 290.954523 
L 276.443908 290.951299 
L 277.764963 290.837887 
L 280.711931 290.983015 
L 282.032985 290.910309 
L 283.658899 290.393634 
L 284.471855 290.451431 
L 286.199388 290.905218 
L 288.13016 290.980556 
L 297.784021 290.974353 
L 300.730989 290.370776 
L 301.340707 290.595674 
L 302.255283 290.851732 
L 303.677957 290.964374 
L 303.982816 290.924614 
L 305.811969 289.334761 
L 306.320066 289.335682 
L 306.828164 289.574117 
L 307.84436 290.495816 
L 308.555697 290.780155 
L 309.470274 290.892239 
L 310.079991 290.354177 
L 310.892948 289.668192 
L 311.401046 289.567583 
L 313.128579 290.76168 
L 313.738296 290.847914 
L 314.043155 290.340296 
L 314.551253 288.857837 
L 315.973927 283.989985 
L 316.278786 283.591871 
L 316.482025 283.53783 
L 316.685264 283.650509 
L 316.990123 284.101735 
L 317.498221 285.420767 
L 318.006319 287.101557 
L 318.616036 288.998113 
L 319.124134 289.905375 
L 319.632232 290.406095 
L 320.24195 290.713046 
L 320.546809 290.744603 
L 321.156526 289.962556 
L 322.477581 287.994457 
L 322.884059 287.799848 
L 323.290537 287.888783 
L 323.697016 288.227697 
L 324.306733 289.061345 
L 325.01807 290.101624 
L 325.627788 290.562733 
L 326.339125 290.810332 
L 326.948843 290.858826 
L 328.777995 289.679278 
L 329.286093 289.785901 
L 330.505528 290.655858 
L 331.318485 290.8649 
L 332.131441 290.883625 
L 332.639539 290.749041 
L 334.87517 290.92359 
L 335.281649 290.336412 
L 335.789747 289.116713 
L 337.009182 285.815013 
L 337.31404 285.46568 
L 337.618899 285.455533 
L 337.822138 285.637993 
L 338.228617 286.364809 
L 339.244813 289.377453 
L 339.75291 290.115642 
L 340.362628 290.574611 
L 340.565867 290.502774 
L 341.175585 289.442466 
L 341.886922 288.274821 
L 342.191781 288.070474 
L 342.496639 288.091548 
L 342.903118 288.422073 
L 343.411216 289.142359 
L 344.122553 290.140163 
L 344.73227 290.5813 
L 345.443607 290.818074 
L 346.663042 290.949975 
L 350.016489 290.987648 
L 351.337543 290.89118 
L 352.658598 290.589931 
L 353.166696 290.639811 
L 354.487751 290.906859 
L 356.418523 290.980686 
L 357.333099 290.906683 
L 357.841197 290.425682 
L 359.162252 288.974325 
L 359.56873 288.952666 
L 359.771969 289.105901 
L 360.889784 290.39777 
L 361.601122 290.73928 
L 362.312459 290.867392 
L 363.633513 290.538266 
L 364.751329 290.828091 
L 366.072383 290.956112 
L 367.291818 290.918734 
L 368.917732 290.361562 
L 369.32421 290.471784 
L 370.340406 290.81791 
L 371.559841 290.949851 
L 372.271178 290.873379 
L 373.795472 290.1948 
L 374.506809 290.182591 
L 375.218146 290.543832 
L 376.031103 290.816916 
L 377.250538 290.94984 
L 378.876451 290.916843 
L 380.705604 290.973149 
L 387.920595 290.987391 
L 410.785002 290.979008 
L 416.678938 290.936756 
L 418.101612 290.943422 
L 421.353439 290.987407 
L 424.300407 290.902305 
L 425.316602 290.444325 
L 427.044135 289.624137 
L 427.755472 289.570851 
L 428.568429 289.784145 
L 430.397582 290.817694 
L 431.617017 290.950217 
L 431.718636 290.954698 
L 431.718636 290.954698 
" clip-path="url(#p4df287cf8a)" style="fill: none; stroke: #2ca02c; stroke-width: 0.5; stroke-linecap: square"/>
   </g>
   <g id="patch_3">
    <path d="M 47.81 303.64 
L 47.81 25.44 
" style="fill: none; stroke: #000000; stroke-width: 0.8; stroke-linejoin: miter; stroke-linecap: square"/>
   </g>
   <g id="patch_4">
    <path d="M 450 303.64 
L 450 25.44 
" style="fill: none; stroke: #000000; stroke-width: 0.8; stroke-linejoin: miter; stroke-linecap: square"/>
   </g>
   <g id="patch_5">
    <path d="M 47.81 303.64 
L 450 303.64 
" style="fill: none; stroke: #000000; stroke-width: 0.8; stroke-linejoin: miter; stroke-linecap: square"/>
   </g>
   <g id="patch_6">
    <path d="M 47.81 25.44 
L 450 25.44 
" style="fill: none; stroke: #000000; stroke-width: 0.8; stroke-linejoin: miter; stroke-linecap: square"/>
   </g>
   <g id="text_20">
    <!-- cvxEDA (σ=3.0s  data_9_E4) -->
    <g transform="translate(163.25125 19.44) scale(0.12 -0.12)">
     <defs>
      <path id="DejaVuSans-63" d="M 3122 3366 
L 3122 2828 
Q 2878 2963 2633 3030 
Q 2388 3097 2138 3097 
Q 1578 3097 1268 2742 
Q 959 2388 959 1747 
Q 959 1106 1268 751 
Q 1578 397 2138 397 
Q 2388 397 2633 464 
Q 2878 531 3122 666 
L 3122 134 
Q 2881 22 2623 -34 
Q 2366 -91 2075 -91 
Q 1284 -91 818 406 
Q 353 903 353 1747 
Q 353 2603 823 3093 
Q 1294 3584 2113 3584 
Q 2378 3584 2631 3529 
Q 2884 3475 3122 3366 
z
" transform="scale(0.015625)"/>
      <path id="DejaVuSans-76" d="M 191 3500 
L 800 3500 
L 1894 563 
L 2988 3500 
L 3597 3500 
L 2284 0 
L 1503 0 
L 191 3500 
z
" transform="scale(0.015625)"/>
      <path id="DejaVuSans-78" d="M 3513 3500 
L 2247 1797 
L 3578 0 
L 2900 0 
L 1881 1375 
L 863 0 
L 184 0 
L 1544 1831 
L 300 3500 
L 978 3500 
L 1906 2253 
L 2834 3500 
L 3513 3500 
z
" transform="scale(0.015625)"/>
      <path id="DejaVuSans-3c3" d="M 1959 3044 
Q 1484 3044 1228 2700 
Q 959 2341 959 1747 
Q 959 1119 1226 758 
Q 1494 397 1959 397 
Q 2419 397 2687 759 
Q 2956 1122 2956 1747 
Q 2956 2319 2688 2700 
Q 2441 3044 1959 3044 
z
M 1959 3500 
L 3869 3500 
L 3869 2925 
L 3225 2925 
Q 3566 2438 3566 1747 
Q 3566 888 3138 400 
Q 2709 -91 1959 -91 
Q 1206 -91 781 400 
Q 353 888 353 1747 
Q 353 2613 781 3097 
Q 1134 3500 1959 3500 
z
" transform="scale(0.015625)"/>
      <path id="DejaVuSans-3d" d="M 678 2906 
L 4684 2906 
L 4684 2381 
L 678 2381 
L 678 2906 
z
M 678 1631 
L 4684 1631 
L 4684 1100 
L 678 1100 
L 678 1631 
z
" transform="scale(0.015625)"/>
      <path id="DejaVuSans-64" d="M 2906 2969 
L 2906 4863 
L 3481 4863 
L 3481 0 
L 2906 0 
L 2906 525 
Q 2725 213 2448 61 
Q 2172 -91 1784 -91 
Q 1150 -91 751 415 
Q 353 922 353 1747 
Q 353 2572 751 3078 
Q 1150 3584 1784 3584 
Q 2172 3584 2448 3432 
Q 2725 3281 2906 2969 
z
M 947 1747 
Q 947 1113 1208 752 
Q 1469 391 1925 391 
Q 2381 391 2643 752 
Q 2906 1113 2906 1747 
Q 2906 2381 2643 2742 
Q 2381 3103 1925 3103 
Q 1469 3103 1208 2742 
Q 947 2381 947 1747 
z
" transform="scale(0.015625)"/>
      <path id="DejaVuSans-5f" d="M 3263 -1063 
L 3263 -1509 
L -63 -1509 
L -63 -1063 
L 3263 -1063 
z
" transform="scale(0.015625)"/>
      <path id="DejaVuSans-39" d="M 703 97 
L 703 672 
Q 941 559 1184 500 
Q 1428 441 1663 441 
Q 2288 441 2617 861 
Q 2947 1281 2994 2138 
Q 2813 1869 2534 1725 
Q 2256 1581 1919 1581 
Q 1219 1581 811 2004 
Q 403 2428 403 3163 
Q 403 3881 828 4315 
Q 1253 4750 1959 4750 
Q 2769 4750 3195 4129 
Q 3622 3509 3622 2328 
Q 3622 1225 3098 567 
Q 2575 -91 1691 -91 
Q 1453 -91 1209 -44 
Q 966 3 703 97 
z
M 1959 2075 
Q 2384 2075 2632 2365 
Q 2881 2656 2881 3163 
Q 2881 3666 2632 3958 
Q 2384 4250 1959 4250 
Q 1534 4250 1286 3958 
Q 1038 3666 1038 3163 
Q 1038 2656 1286 2365 
Q 1534 2075 1959 2075 
z
" transform="scale(0.015625)"/>
     </defs>
     <use xlink:href="#DejaVuSans-63"/>
     <use xlink:href="#DejaVuSans-76" transform="translate(54.980469 0)"/>
     <use xlink:href="#DejaVuSans-78" transform="translate(114.160156 0)"/>
     <use xlink:href="#DejaVuSans-45" transform="translate(173.339844 0)"/>
     <use xlink:href="#DejaVuSans-44" transform="translate(236.523438 0)"/>
     <use xlink:href="#DejaVuSans-41" transform="translate(311.775391 0)"/>
     <use xlink:href="#DejaVuSans-20" transform="translate(380.183594 0)"/>
     <use xlink:href="#DejaVuSans-28" transform="translate(411.970703 0)"/>
     <use xlink:href="#DejaVuSans-3c3" transform="translate(450.984375 0)"/>
     <use xlink:href="#DejaVuSans-3d" transform="translate(514.363281 0)"/>
     <use xlink:href="#DejaVuSans-33" transform="translate(598.152344 0)"/>
     <use xlink:href="#DejaVuSans-2e" transform="translate(661.775391 0)"/>
     <use xlink:href="#DejaVuSans-30" transform="translate(693.5625 0)"/>
     <use xlink:href="#DejaVuSans-73" transform="translate(757.185547 0)"/>
     <use xlink:href="#DejaVuSans-20" transform="translate(809.285156 0)"/>
     <use xlink:href="#DejaVuSans-20" transform="translate(841.072266 0)"/>
     <use xlink:href="#DejaVuSans-64" transform="translate(872.859375 0)"/>
     <use xlink:href="#DejaVuSans-61" transform="translate(936.335938 0)"/>
     <use xlink:href="#DejaVuSans-74" transform="translate(997.615234 0)"/>
     <use xlink:href="#DejaVuSans-61" transform="translate(1036.824219 0)"/>
     <use xlink:href="#DejaVuSans-5f" transform="translate(1098.103516 0)"/>
     <use xlink:href="#DejaVuSans-39" transform="translate(1148.103516 0)"/>
     <use xlink:href="#DejaVuSans-5f" transform="translate(1211.726562 0)"/>
     <use xlink:href="#DejaVuSans-45" transform="translate(1261.726562 0)"/>
     <use xlink:href="#DejaVuSans-34" transform="translate(1324.910156 0)"/>
     <use xlink:href="#DejaVuSans-29" transform="translate(1388.533203 0)"/>
    </g>
   </g>
   <g id="legend_1">
    <g id="patch_7">
     <path d="M 350.09375 188.057187 
L 443 188.057187 
Q 445 188.057187 445 186.057187 
L 445 143.022812 
Q 445 141.022812 443 141.022812 
L 350.09375 141.022812 
Q 348.09375 141.022812 348.09375 143.022812 
L 348.09375 186.057187 
Q 348.09375 188.057187 350.09375 188.057187 
z
" style="fill: #ffffff; opacity: 0.8; stroke: #cccccc; stroke-linejoin: miter"/>
    </g>
    <g id="line2d_38">
     <path d="M 352.09375 149.12125 
L 362.09375 149.12125 
L 372.09375 149.12125 
" style="fill: none; stroke-dasharray: 1.85,0.8; stroke-dashoffset: 0; stroke: #1f77b4; stroke-width: 0.5"/>
    </g>
    <g id="text_21">
     <!-- Filtered EDA -->
     <g transform="translate(380.09375 152.62125) scale(0.1 -0.1)">
      <defs>
       <path id="DejaVuSans-46" d="M 628 4666 
L 3309 4666 
L 3309 4134 
L 1259 4134 
L 1259 2759 
L 3109 2759 
L 3109 2228 
L 1259 2228 
L 1259 0 
L 628 0 
L 628 4666 
z
" transform="scale(0.015625)"/>
       <path id="DejaVuSans-72" d="M 2631 2963 
Q 2534 3019 2420 3045 
Q 2306 3072 2169 3072 
Q 1681 3072 1420 2755 
Q 1159 2438 1159 1844 
L 1159 0 
L 581 0 
L 581 3500 
L 1159 3500 
L 1159 2956 
Q 1341 3275 1631 3429 
Q 1922 3584 2338 3584 
Q 2397 3584 2469 3576 
Q 2541 3569 2628 3553 
L 2631 2963 
z
" transform="scale(0.015625)"/>
      </defs>
      <use xlink:href="#DejaVuSans-46"/>
      <use xlink:href="#DejaVuSans-69" transform="translate(50.269531 0)"/>
      <use xlink:href="#DejaVuSans-6c" transform="translate(78.052734 0)"/>
      <use xlink:href="#DejaVuSans-74" transform="translate(105.835938 0)"/>
      <use xlink:href="#DejaVuSans-65" transform="translate(145.044922 0)"/>
      <use xlink:href="#DejaVuSans-72" transform="translate(206.568359 0)"/>
      <use xlink:href="#DejaVuSans-65" transform="translate(245.431641 0)"/>
      <use xlink:href="#DejaVuSans-64" transform="translate(306.955078 0)"/>
      <use xlink:href="#DejaVuSans-20" transform="translate(370.431641 0)"/>
      <use xlink:href="#DejaVuSans-45" transform="translate(402.21875 0)"/>
      <use xlink:href="#DejaVuSans-44" transform="translate(465.402344 0)"/>
      <use xlink:href="#DejaVuSans-41" transform="translate(540.654297 0)"/>
     </g>
    </g>
    <g id="line2d_39">
     <path d="M 352.09375 163.799375 
L 362.09375 163.799375 
L 372.09375 163.799375 
" style="fill: none; stroke: #ff7f0e; stroke-width: 0.5; stroke-linecap: square"/>
    </g>
    <g id="text_22">
     <!-- Tonic -->
     <g transform="translate(380.09375 167.299375) scale(0.1 -0.1)">
      <defs>
       <path id="DejaVuSans-6f" d="M 1959 3097 
Q 1497 3097 1228 2736 
Q 959 2375 959 1747 
Q 959 1119 1226 758 
Q 1494 397 1959 397 
Q 2419 397 2687 759 
Q 2956 1122 2956 1747 
Q 2956 2369 2687 2733 
Q 2419 3097 1959 3097 
z
M 1959 3584 
Q 2709 3584 3137 3096 
Q 3566 2609 3566 1747 
Q 3566 888 3137 398 
Q 2709 -91 1959 -91 
Q 1206 -91 779 398 
Q 353 888 353 1747 
Q 353 2609 779 3096 
Q 1206 3584 1959 3584 
z
" transform="scale(0.015625)"/>
      </defs>
      <use xlink:href="#DejaVuSans-54"/>
      <use xlink:href="#DejaVuSans-6f" transform="translate(44.083984 0)"/>
      <use xlink:href="#DejaVuSans-6e" transform="translate(105.265625 0)"/>
      <use xlink:href="#DejaVuSans-69" transform="translate(168.644531 0)"/>
      <use xlink:href="#DejaVuSans-63" transform="translate(196.427734 0)"/>
     </g>
    </g>
    <g id="line2d_40">
     <path d="M 352.09375 178.4775 
L 362.09375 178.4775 
L 372.09375 178.4775 
" style="fill: none; stroke: #2ca02c; stroke-width: 0.5; stroke-linecap: square"/>
    </g>
    <g id="text_23">
     <!-- Phasic -->
     <g transform="translate(380.09375 181.9775) scale(0.1 -0.1)">
      <defs>
       <path id="DejaVuSans-50" d="M 1259 4147 
L 1259 2394 
L 2053 2394 
Q 2494 2394 2734 2622 
Q 2975 2850 2975 3272 
Q 2975 3691 2734 3919 
Q 2494 4147 2053 4147 
L 1259 4147 
z
M 628 4666 
L 2053 4666 
Q 2838 4666 3239 4311 
Q 3641 3956 3641 3272 
Q 3641 2581 3239 2228 
Q 2838 1875 2053 1875 
L 1259 1875 
L 1259 0 
L 628 0 
L 628 4666 
z
" transform="scale(0.015625)"/>
       <path id="DejaVuSans-68" d="M 3513 2113 
L 3513 0 
L 2938 0 
L 2938 2094 
Q 2938 2591 2744 2837 
Q 2550 3084 2163 3084 
Q 1697 3084 1428 2787 
Q 1159 2491 1159 1978 
L 1159 0 
L 581 0 
L 581 4863 
L 1159 4863 
L 1159 2956 
Q 1366 3272 1645 3428 
Q 1925 3584 2291 3584 
Q 2894 3584 3203 3211 
Q 3513 2838 3513 2113 
z
" transform="scale(0.015625)"/>
      </defs>
      <use xlink:href="#DejaVuSans-50"/>
      <use xlink:href="#DejaVuSans-68" transform="translate(60.302734 0)"/>
      <use xlink:href="#DejaVuSans-61" transform="translate(123.681641 0)"/>
      <use xlink:href="#DejaVuSans-73" transform="translate(184.960938 0)"/>
      <use xlink:href="#DejaVuSans-69" transform="translate(237.060547 0)"/>
      <use xlink:href="#DejaVuSans-63" transform="translate(264.84375 0)"/>
     </g>
    </g>
   </g>
  </g>
 </g>
 <defs>
  <clipPath id="p4df287cf8a">
   <rect x="47.81" y="25.44" width="402.19" height="278.2"/>
  </clipPath>
 </defs>
</svg>
