<?xml version="1.0" encoding="utf-8" standalone="no"?>
<!DOCTYPE svg PUBLIC "-//W3C//DTD SVG 1.1//EN"
  "http://www.w3.org/Graphics/SVG/1.1/DTD/svg11.dtd">
<svg xmlns:xlink="http://www.w3.org/1999/xlink" width="460.8pt" height="345.6pt" viewBox="0 0 460.8 345.6" xmlns="http://www.w3.org/2000/svg" version="1.1">
 <metadata>
  <rdf:RDF xmlns:dc="http://purl.org/dc/elements/1.1/" xmlns:cc="http://creativecommons.org/ns#" xmlns:rdf="http://www.w3.org/1999/02/22-rdf-syntax-ns#">
   <cc:Work>
    <dc:type rdf:resource="http://purl.org/dc/dcmitype/StillImage"/>
    <dc:date>2025-09-22T15:39:20.208532</dc:date>
    <dc:format>image/svg+xml</dc:format>
    <dc:creator>
     <cc:Agent>
      <dc:title>Matplotlib v3.10.0, https://matplotlib.org/</dc:title>
     </cc:Agent>
    </dc:creator>
   </cc:Work>
  </rdf:RDF>
 </metadata>
 <defs>
  <style type="text/css">*{stroke-linejoin: round; stroke-linecap: butt}</style>
 </defs>
 <g id="figure_1">
  <g id="patch_1">
   <path d="M 0 345.6 
L 460.8 345.6 
L 460.8 0 
L 0 0 
z
" style="fill: #ffffff"/>
  </g>
  <g id="axes_1">
   <g id="patch_2">
    <path d="M 47.81 303.64 
L 450 303.64 
L 450 25.44 
L 47.81 25.44 
z
" style="fill: #ffffff"/>
   </g>
   <g id="matplotlib.axis_1">
    <g id="xtick_1">
     <g id="line2d_1">
      <path d="M 66.091364 303.64 
L 66.091364 25.44 
" clip-path="url(#p7d1b65e895)" style="fill: none; stroke: #b0b0b0; stroke-opacity: 0.3; stroke-width: 0.8; stroke-linecap: square"/>
     </g>
     <g id="line2d_2">
      <defs>
       <path id="mc74c485ad1" d="M 0 0 
L 0 3.5 
" style="stroke: #000000; stroke-width: 0.8"/>
      </defs>
      <g>
       <use xlink:href="#mc74c485ad1" x="66.091364" y="303.64" style="stroke: #000000; stroke-width: 0.8"/>
      </g>
     </g>
     <g id="text_1">
      <!-- 0 -->
      <g transform="translate(62.910114 318.238437) scale(0.1 -0.1)">
       <defs>
        <path id="DejaVuSans-30" d="M 2034 4250 
Q 1547 4250 1301 3770 
Q 1056 3291 1056 2328 
Q 1056 1369 1301 889 
Q 1547 409 2034 409 
Q 2525 409 2770 889 
Q 3016 1369 3016 2328 
Q 3016 3291 2770 3770 
Q 2525 4250 2034 4250 
z
M 2034 4750 
Q 2819 4750 3233 4129 
Q 3647 3509 3647 2328 
Q 3647 1150 3233 529 
Q 2819 -91 2034 -91 
Q 1250 -91 836 529 
Q 422 1150 422 2328 
Q 422 3509 836 4129 
Q 1250 4750 2034 4750 
z
" transform="scale(0.015625)"/>
       </defs>
       <use xlink:href="#DejaVuSans-30"/>
      </g>
     </g>
    </g>
    <g id="xtick_2">
     <g id="line2d_3">
      <path d="M 114.841667 303.64 
L 114.841667 25.44 
" clip-path="url(#p7d1b65e895)" style="fill: none; stroke: #b0b0b0; stroke-opacity: 0.3; stroke-width: 0.8; stroke-linecap: square"/>
     </g>
     <g id="line2d_4">
      <g>
       <use xlink:href="#mc74c485ad1" x="114.841667" y="303.64" style="stroke: #000000; stroke-width: 0.8"/>
      </g>
     </g>
     <g id="text_2">
      <!-- 2 -->
      <g transform="translate(111.660417 318.238437) scale(0.1 -0.1)">
       <defs>
        <path id="DejaVuSans-32" d="M 1228 531 
L 3431 531 
L 3431 0 
L 469 0 
L 469 531 
Q 828 903 1448 1529 
Q 2069 2156 2228 2338 
Q 2531 2678 2651 2914 
Q 2772 3150 2772 3378 
Q 2772 3750 2511 3984 
Q 2250 4219 1831 4219 
Q 1534 4219 1204 4116 
Q 875 4013 500 3803 
L 500 4441 
Q 881 4594 1212 4672 
Q 1544 4750 1819 4750 
Q 2544 4750 2975 4387 
Q 3406 4025 3406 3419 
Q 3406 3131 3298 2873 
Q 3191 2616 2906 2266 
Q 2828 2175 2409 1742 
Q 1991 1309 1228 531 
z
" transform="scale(0.015625)"/>
       </defs>
       <use xlink:href="#DejaVuSans-32"/>
      </g>
     </g>
    </g>
    <g id="xtick_3">
     <g id="line2d_5">
      <path d="M 163.59197 303.64 
L 163.59197 25.44 
" clip-path="url(#p7d1b65e895)" style="fill: none; stroke: #b0b0b0; stroke-opacity: 0.3; stroke-width: 0.8; stroke-linecap: square"/>
     </g>
     <g id="line2d_6">
      <g>
       <use xlink:href="#mc74c485ad1" x="163.59197" y="303.64" style="stroke: #000000; stroke-width: 0.8"/>
      </g>
     </g>
     <g id="text_3">
      <!-- 4 -->
      <g transform="translate(160.41072 318.238437) scale(0.1 -0.1)">
       <defs>
        <path id="DejaVuSans-34" d="M 2419 4116 
L 825 1625 
L 2419 1625 
L 2419 4116 
z
M 2253 4666 
L 3047 4666 
L 3047 1625 
L 3713 1625 
L 3713 1100 
L 3047 1100 
L 3047 0 
L 2419 0 
L 2419 1100 
L 313 1100 
L 313 1709 
L 2253 4666 
z
" transform="scale(0.015625)"/>
       </defs>
       <use xlink:href="#DejaVuSans-34"/>
      </g>
     </g>
    </g>
    <g id="xtick_4">
     <g id="line2d_7">
      <path d="M 212.342273 303.64 
L 212.342273 25.44 
" clip-path="url(#p7d1b65e895)" style="fill: none; stroke: #b0b0b0; stroke-opacity: 0.3; stroke-width: 0.8; stroke-linecap: square"/>
     </g>
     <g id="line2d_8">
      <g>
       <use xlink:href="#mc74c485ad1" x="212.342273" y="303.64" style="stroke: #000000; stroke-width: 0.8"/>
      </g>
     </g>
     <g id="text_4">
      <!-- 6 -->
      <g transform="translate(209.161023 318.238437) scale(0.1 -0.1)">
       <defs>
        <path id="DejaVuSans-36" d="M 2113 2584 
Q 1688 2584 1439 2293 
Q 1191 2003 1191 1497 
Q 1191 994 1439 701 
Q 1688 409 2113 409 
Q 2538 409 2786 701 
Q 3034 994 3034 1497 
Q 3034 2003 2786 2293 
Q 2538 2584 2113 2584 
z
M 3366 4563 
L 3366 3988 
Q 3128 4100 2886 4159 
Q 2644 4219 2406 4219 
Q 1781 4219 1451 3797 
Q 1122 3375 1075 2522 
Q 1259 2794 1537 2939 
Q 1816 3084 2150 3084 
Q 2853 3084 3261 2657 
Q 3669 2231 3669 1497 
Q 3669 778 3244 343 
Q 2819 -91 2113 -91 
Q 1303 -91 875 529 
Q 447 1150 447 2328 
Q 447 3434 972 4092 
Q 1497 4750 2381 4750 
Q 2619 4750 2861 4703 
Q 3103 4656 3366 4563 
z
" transform="scale(0.015625)"/>
       </defs>
       <use xlink:href="#DejaVuSans-36"/>
      </g>
     </g>
    </g>
    <g id="xtick_5">
     <g id="line2d_9">
      <path d="M 261.092576 303.64 
L 261.092576 25.44 
" clip-path="url(#p7d1b65e895)" style="fill: none; stroke: #b0b0b0; stroke-opacity: 0.3; stroke-width: 0.8; stroke-linecap: square"/>
     </g>
     <g id="line2d_10">
      <g>
       <use xlink:href="#mc74c485ad1" x="261.092576" y="303.64" style="stroke: #000000; stroke-width: 0.8"/>
      </g>
     </g>
     <g id="text_5">
      <!-- 8 -->
      <g transform="translate(257.911326 318.238437) scale(0.1 -0.1)">
       <defs>
        <path id="DejaVuSans-38" d="M 2034 2216 
Q 1584 2216 1326 1975 
Q 1069 1734 1069 1313 
Q 1069 891 1326 650 
Q 1584 409 2034 409 
Q 2484 409 2743 651 
Q 3003 894 3003 1313 
Q 3003 1734 2745 1975 
Q 2488 2216 2034 2216 
z
M 1403 2484 
Q 997 2584 770 2862 
Q 544 3141 544 3541 
Q 544 4100 942 4425 
Q 1341 4750 2034 4750 
Q 2731 4750 3128 4425 
Q 3525 4100 3525 3541 
Q 3525 3141 3298 2862 
Q 3072 2584 2669 2484 
Q 3125 2378 3379 2068 
Q 3634 1759 3634 1313 
Q 3634 634 3220 271 
Q 2806 -91 2034 -91 
Q 1263 -91 848 271 
Q 434 634 434 1313 
Q 434 1759 690 2068 
Q 947 2378 1403 2484 
z
M 1172 3481 
Q 1172 3119 1398 2916 
Q 1625 2713 2034 2713 
Q 2441 2713 2670 2916 
Q 2900 3119 2900 3481 
Q 2900 3844 2670 4047 
Q 2441 4250 2034 4250 
Q 1625 4250 1398 4047 
Q 1172 3844 1172 3481 
z
" transform="scale(0.015625)"/>
       </defs>
       <use xlink:href="#DejaVuSans-38"/>
      </g>
     </g>
    </g>
    <g id="xtick_6">
     <g id="line2d_11">
      <path d="M 309.842879 303.64 
L 309.842879 25.44 
" clip-path="url(#p7d1b65e895)" style="fill: none; stroke: #b0b0b0; stroke-opacity: 0.3; stroke-width: 0.8; stroke-linecap: square"/>
     </g>
     <g id="line2d_12">
      <g>
       <use xlink:href="#mc74c485ad1" x="309.842879" y="303.64" style="stroke: #000000; stroke-width: 0.8"/>
      </g>
     </g>
     <g id="text_6">
      <!-- 10 -->
      <g transform="translate(303.480379 318.238437) scale(0.1 -0.1)">
       <defs>
        <path id="DejaVuSans-31" d="M 794 531 
L 1825 531 
L 1825 4091 
L 703 3866 
L 703 4441 
L 1819 4666 
L 2450 4666 
L 2450 531 
L 3481 531 
L 3481 0 
L 794 0 
L 794 531 
z
" transform="scale(0.015625)"/>
       </defs>
       <use xlink:href="#DejaVuSans-31"/>
       <use xlink:href="#DejaVuSans-30" transform="translate(63.623047 0)"/>
      </g>
     </g>
    </g>
    <g id="xtick_7">
     <g id="line2d_13">
      <path d="M 358.593182 303.64 
L 358.593182 25.44 
" clip-path="url(#p7d1b65e895)" style="fill: none; stroke: #b0b0b0; stroke-opacity: 0.3; stroke-width: 0.8; stroke-linecap: square"/>
     </g>
     <g id="line2d_14">
      <g>
       <use xlink:href="#mc74c485ad1" x="358.593182" y="303.64" style="stroke: #000000; stroke-width: 0.8"/>
      </g>
     </g>
     <g id="text_7">
      <!-- 12 -->
      <g transform="translate(352.230682 318.238437) scale(0.1 -0.1)">
       <use xlink:href="#DejaVuSans-31"/>
       <use xlink:href="#DejaVuSans-32" transform="translate(63.623047 0)"/>
      </g>
     </g>
    </g>
    <g id="xtick_8">
     <g id="line2d_15">
      <path d="M 407.343485 303.64 
L 407.343485 25.44 
" clip-path="url(#p7d1b65e895)" style="fill: none; stroke: #b0b0b0; stroke-opacity: 0.3; stroke-width: 0.8; stroke-linecap: square"/>
     </g>
     <g id="line2d_16">
      <g>
       <use xlink:href="#mc74c485ad1" x="407.343485" y="303.64" style="stroke: #000000; stroke-width: 0.8"/>
      </g>
     </g>
     <g id="text_8">
      <!-- 14 -->
      <g transform="translate(400.980985 318.238437) scale(0.1 -0.1)">
       <use xlink:href="#DejaVuSans-31"/>
       <use xlink:href="#DejaVuSans-34" transform="translate(63.623047 0)"/>
      </g>
     </g>
    </g>
    <g id="text_9">
     <!-- Time (minutes) -->
     <g transform="translate(210.9425 331.916562) scale(0.1 -0.1)">
      <defs>
       <path id="DejaVuSans-54" d="M -19 4666 
L 3928 4666 
L 3928 4134 
L 2272 4134 
L 2272 0 
L 1638 0 
L 1638 4134 
L -19 4134 
L -19 4666 
z
" transform="scale(0.015625)"/>
       <path id="DejaVuSans-69" d="M 603 3500 
L 1178 3500 
L 1178 0 
L 603 0 
L 603 3500 
z
M 603 4863 
L 1178 4863 
L 1178 4134 
L 603 4134 
L 603 4863 
z
" transform="scale(0.015625)"/>
       <path id="DejaVuSans-6d" d="M 3328 2828 
Q 3544 3216 3844 3400 
Q 4144 3584 4550 3584 
Q 5097 3584 5394 3201 
Q 5691 2819 5691 2113 
L 5691 0 
L 5113 0 
L 5113 2094 
Q 5113 2597 4934 2840 
Q 4756 3084 4391 3084 
Q 3944 3084 3684 2787 
Q 3425 2491 3425 1978 
L 3425 0 
L 2847 0 
L 2847 2094 
Q 2847 2600 2669 2842 
Q 2491 3084 2119 3084 
Q 1678 3084 1418 2786 
Q 1159 2488 1159 1978 
L 1159 0 
L 581 0 
L 581 3500 
L 1159 3500 
L 1159 2956 
Q 1356 3278 1631 3431 
Q 1906 3584 2284 3584 
Q 2666 3584 2933 3390 
Q 3200 3197 3328 2828 
z
" transform="scale(0.015625)"/>
       <path id="DejaVuSans-65" d="M 3597 1894 
L 3597 1613 
L 953 1613 
Q 991 1019 1311 708 
Q 1631 397 2203 397 
Q 2534 397 2845 478 
Q 3156 559 3463 722 
L 3463 178 
Q 3153 47 2828 -22 
Q 2503 -91 2169 -91 
Q 1331 -91 842 396 
Q 353 884 353 1716 
Q 353 2575 817 3079 
Q 1281 3584 2069 3584 
Q 2775 3584 3186 3129 
Q 3597 2675 3597 1894 
z
M 3022 2063 
Q 3016 2534 2758 2815 
Q 2500 3097 2075 3097 
Q 1594 3097 1305 2825 
Q 1016 2553 972 2059 
L 3022 2063 
z
" transform="scale(0.015625)"/>
       <path id="DejaVuSans-20" transform="scale(0.015625)"/>
       <path id="DejaVuSans-28" d="M 1984 4856 
Q 1566 4138 1362 3434 
Q 1159 2731 1159 2009 
Q 1159 1288 1364 580 
Q 1569 -128 1984 -844 
L 1484 -844 
Q 1016 -109 783 600 
Q 550 1309 550 2009 
Q 550 2706 781 3412 
Q 1013 4119 1484 4856 
L 1984 4856 
z
" transform="scale(0.015625)"/>
       <path id="DejaVuSans-6e" d="M 3513 2113 
L 3513 0 
L 2938 0 
L 2938 2094 
Q 2938 2591 2744 2837 
Q 2550 3084 2163 3084 
Q 1697 3084 1428 2787 
Q 1159 2491 1159 1978 
L 1159 0 
L 581 0 
L 581 3500 
L 1159 3500 
L 1159 2956 
Q 1366 3272 1645 3428 
Q 1925 3584 2291 3584 
Q 2894 3584 3203 3211 
Q 3513 2838 3513 2113 
z
" transform="scale(0.015625)"/>
       <path id="DejaVuSans-75" d="M 544 1381 
L 544 3500 
L 1119 3500 
L 1119 1403 
Q 1119 906 1312 657 
Q 1506 409 1894 409 
Q 2359 409 2629 706 
Q 2900 1003 2900 1516 
L 2900 3500 
L 3475 3500 
L 3475 0 
L 2900 0 
L 2900 538 
Q 2691 219 2414 64 
Q 2138 -91 1772 -91 
Q 1169 -91 856 284 
Q 544 659 544 1381 
z
M 1991 3584 
L 1991 3584 
z
" transform="scale(0.015625)"/>
       <path id="DejaVuSans-74" d="M 1172 4494 
L 1172 3500 
L 2356 3500 
L 2356 3053 
L 1172 3053 
L 1172 1153 
Q 1172 725 1289 603 
Q 1406 481 1766 481 
L 2356 481 
L 2356 0 
L 1766 0 
Q 1100 0 847 248 
Q 594 497 594 1153 
L 594 3053 
L 172 3053 
L 172 3500 
L 594 3500 
L 594 4494 
L 1172 4494 
z
" transform="scale(0.015625)"/>
       <path id="DejaVuSans-73" d="M 2834 3397 
L 2834 2853 
Q 2591 2978 2328 3040 
Q 2066 3103 1784 3103 
Q 1356 3103 1142 2972 
Q 928 2841 928 2578 
Q 928 2378 1081 2264 
Q 1234 2150 1697 2047 
L 1894 2003 
Q 2506 1872 2764 1633 
Q 3022 1394 3022 966 
Q 3022 478 2636 193 
Q 2250 -91 1575 -91 
Q 1294 -91 989 -36 
Q 684 19 347 128 
L 347 722 
Q 666 556 975 473 
Q 1284 391 1588 391 
Q 1994 391 2212 530 
Q 2431 669 2431 922 
Q 2431 1156 2273 1281 
Q 2116 1406 1581 1522 
L 1381 1569 
Q 847 1681 609 1914 
Q 372 2147 372 2553 
Q 372 3047 722 3315 
Q 1072 3584 1716 3584 
Q 2034 3584 2315 3537 
Q 2597 3491 2834 3397 
z
" transform="scale(0.015625)"/>
       <path id="DejaVuSans-29" d="M 513 4856 
L 1013 4856 
Q 1481 4119 1714 3412 
Q 1947 2706 1947 2009 
Q 1947 1309 1714 600 
Q 1481 -109 1013 -844 
L 513 -844 
Q 928 -128 1133 580 
Q 1338 1288 1338 2009 
Q 1338 2731 1133 3434 
Q 928 4138 513 4856 
z
" transform="scale(0.015625)"/>
      </defs>
      <use xlink:href="#DejaVuSans-54"/>
      <use xlink:href="#DejaVuSans-69" transform="translate(57.958984 0)"/>
      <use xlink:href="#DejaVuSans-6d" transform="translate(85.742188 0)"/>
      <use xlink:href="#DejaVuSans-65" transform="translate(183.154297 0)"/>
      <use xlink:href="#DejaVuSans-20" transform="translate(244.677734 0)"/>
      <use xlink:href="#DejaVuSans-28" transform="translate(276.464844 0)"/>
      <use xlink:href="#DejaVuSans-6d" transform="translate(315.478516 0)"/>
      <use xlink:href="#DejaVuSans-69" transform="translate(412.890625 0)"/>
      <use xlink:href="#DejaVuSans-6e" transform="translate(440.673828 0)"/>
      <use xlink:href="#DejaVuSans-75" transform="translate(504.052734 0)"/>
      <use xlink:href="#DejaVuSans-74" transform="translate(567.431641 0)"/>
      <use xlink:href="#DejaVuSans-65" transform="translate(606.640625 0)"/>
      <use xlink:href="#DejaVuSans-73" transform="translate(668.164062 0)"/>
      <use xlink:href="#DejaVuSans-29" transform="translate(720.263672 0)"/>
     </g>
    </g>
   </g>
   <g id="matplotlib.axis_2">
    <g id="ytick_1">
     <g id="line2d_17">
      <path d="M 47.81 290.994545 
L 450 290.994545 
" clip-path="url(#p7d1b65e895)" style="fill: none; stroke: #b0b0b0; stroke-opacity: 0.3; stroke-width: 0.8; stroke-linecap: square"/>
     </g>
     <g id="line2d_18">
      <defs>
       <path id="mb110961be3" d="M 0 0 
L -3.5 0 
" style="stroke: #000000; stroke-width: 0.8"/>
      </defs>
      <g>
       <use xlink:href="#mb110961be3" x="47.81" y="290.994545" style="stroke: #000000; stroke-width: 0.8"/>
      </g>
     </g>
     <g id="text_10">
      <!-- 0.0 -->
      <g transform="translate(24.906875 294.793764) scale(0.1 -0.1)">
       <defs>
        <path id="DejaVuSans-2e" d="M 684 794 
L 1344 794 
L 1344 0 
L 684 0 
L 684 794 
z
" transform="scale(0.015625)"/>
       </defs>
       <use xlink:href="#DejaVuSans-30"/>
       <use xlink:href="#DejaVuSans-2e" transform="translate(63.623047 0)"/>
       <use xlink:href="#DejaVuSans-30" transform="translate(95.410156 0)"/>
      </g>
     </g>
    </g>
    <g id="ytick_2">
     <g id="line2d_19">
      <path d="M 47.81 259.09175 
L 450 259.09175 
" clip-path="url(#p7d1b65e895)" style="fill: none; stroke: #b0b0b0; stroke-opacity: 0.3; stroke-width: 0.8; stroke-linecap: square"/>
     </g>
     <g id="line2d_20">
      <g>
       <use xlink:href="#mb110961be3" x="47.81" y="259.09175" style="stroke: #000000; stroke-width: 0.8"/>
      </g>
     </g>
     <g id="text_11">
      <!-- 0.5 -->
      <g transform="translate(24.906875 262.890969) scale(0.1 -0.1)">
       <defs>
        <path id="DejaVuSans-35" d="M 691 4666 
L 3169 4666 
L 3169 4134 
L 1269 4134 
L 1269 2991 
Q 1406 3038 1543 3061 
Q 1681 3084 1819 3084 
Q 2600 3084 3056 2656 
Q 3513 2228 3513 1497 
Q 3513 744 3044 326 
Q 2575 -91 1722 -91 
Q 1428 -91 1123 -41 
Q 819 9 494 109 
L 494 744 
Q 775 591 1075 516 
Q 1375 441 1709 441 
Q 2250 441 2565 725 
Q 2881 1009 2881 1497 
Q 2881 1984 2565 2268 
Q 2250 2553 1709 2553 
Q 1456 2553 1204 2497 
Q 953 2441 691 2322 
L 691 4666 
z
" transform="scale(0.015625)"/>
       </defs>
       <use xlink:href="#DejaVuSans-30"/>
       <use xlink:href="#DejaVuSans-2e" transform="translate(63.623047 0)"/>
       <use xlink:href="#DejaVuSans-35" transform="translate(95.410156 0)"/>
      </g>
     </g>
    </g>
    <g id="ytick_3">
     <g id="line2d_21">
      <path d="M 47.81 227.188954 
L 450 227.188954 
" clip-path="url(#p7d1b65e895)" style="fill: none; stroke: #b0b0b0; stroke-opacity: 0.3; stroke-width: 0.8; stroke-linecap: square"/>
     </g>
     <g id="line2d_22">
      <g>
       <use xlink:href="#mb110961be3" x="47.81" y="227.188954" style="stroke: #000000; stroke-width: 0.8"/>
      </g>
     </g>
     <g id="text_12">
      <!-- 1.0 -->
      <g transform="translate(24.906875 230.988173) scale(0.1 -0.1)">
       <use xlink:href="#DejaVuSans-31"/>
       <use xlink:href="#DejaVuSans-2e" transform="translate(63.623047 0)"/>
       <use xlink:href="#DejaVuSans-30" transform="translate(95.410156 0)"/>
      </g>
     </g>
    </g>
    <g id="ytick_4">
     <g id="line2d_23">
      <path d="M 47.81 195.286159 
L 450 195.286159 
" clip-path="url(#p7d1b65e895)" style="fill: none; stroke: #b0b0b0; stroke-opacity: 0.3; stroke-width: 0.8; stroke-linecap: square"/>
     </g>
     <g id="line2d_24">
      <g>
       <use xlink:href="#mb110961be3" x="47.81" y="195.286159" style="stroke: #000000; stroke-width: 0.8"/>
      </g>
     </g>
     <g id="text_13">
      <!-- 1.5 -->
      <g transform="translate(24.906875 199.085378) scale(0.1 -0.1)">
       <use xlink:href="#DejaVuSans-31"/>
       <use xlink:href="#DejaVuSans-2e" transform="translate(63.623047 0)"/>
       <use xlink:href="#DejaVuSans-35" transform="translate(95.410156 0)"/>
      </g>
     </g>
    </g>
    <g id="ytick_5">
     <g id="line2d_25">
      <path d="M 47.81 163.383363 
L 450 163.383363 
" clip-path="url(#p7d1b65e895)" style="fill: none; stroke: #b0b0b0; stroke-opacity: 0.3; stroke-width: 0.8; stroke-linecap: square"/>
     </g>
     <g id="line2d_26">
      <g>
       <use xlink:href="#mb110961be3" x="47.81" y="163.383363" style="stroke: #000000; stroke-width: 0.8"/>
      </g>
     </g>
     <g id="text_14">
      <!-- 2.0 -->
      <g transform="translate(24.906875 167.182582) scale(0.1 -0.1)">
       <use xlink:href="#DejaVuSans-32"/>
       <use xlink:href="#DejaVuSans-2e" transform="translate(63.623047 0)"/>
       <use xlink:href="#DejaVuSans-30" transform="translate(95.410156 0)"/>
      </g>
     </g>
    </g>
    <g id="ytick_6">
     <g id="line2d_27">
      <path d="M 47.81 131.480568 
L 450 131.480568 
" clip-path="url(#p7d1b65e895)" style="fill: none; stroke: #b0b0b0; stroke-opacity: 0.3; stroke-width: 0.8; stroke-linecap: square"/>
     </g>
     <g id="line2d_28">
      <g>
       <use xlink:href="#mb110961be3" x="47.81" y="131.480568" style="stroke: #000000; stroke-width: 0.8"/>
      </g>
     </g>
     <g id="text_15">
      <!-- 2.5 -->
      <g transform="translate(24.906875 135.279786) scale(0.1 -0.1)">
       <use xlink:href="#DejaVuSans-32"/>
       <use xlink:href="#DejaVuSans-2e" transform="translate(63.623047 0)"/>
       <use xlink:href="#DejaVuSans-35" transform="translate(95.410156 0)"/>
      </g>
     </g>
    </g>
    <g id="ytick_7">
     <g id="line2d_29">
      <path d="M 47.81 99.577772 
L 450 99.577772 
" clip-path="url(#p7d1b65e895)" style="fill: none; stroke: #b0b0b0; stroke-opacity: 0.3; stroke-width: 0.8; stroke-linecap: square"/>
     </g>
     <g id="line2d_30">
      <g>
       <use xlink:href="#mb110961be3" x="47.81" y="99.577772" style="stroke: #000000; stroke-width: 0.8"/>
      </g>
     </g>
     <g id="text_16">
      <!-- 3.0 -->
      <g transform="translate(24.906875 103.376991) scale(0.1 -0.1)">
       <defs>
        <path id="DejaVuSans-33" d="M 2597 2516 
Q 3050 2419 3304 2112 
Q 3559 1806 3559 1356 
Q 3559 666 3084 287 
Q 2609 -91 1734 -91 
Q 1441 -91 1130 -33 
Q 819 25 488 141 
L 488 750 
Q 750 597 1062 519 
Q 1375 441 1716 441 
Q 2309 441 2620 675 
Q 2931 909 2931 1356 
Q 2931 1769 2642 2001 
Q 2353 2234 1838 2234 
L 1294 2234 
L 1294 2753 
L 1863 2753 
Q 2328 2753 2575 2939 
Q 2822 3125 2822 3475 
Q 2822 3834 2567 4026 
Q 2313 4219 1838 4219 
Q 1578 4219 1281 4162 
Q 984 4106 628 3988 
L 628 4550 
Q 988 4650 1302 4700 
Q 1616 4750 1894 4750 
Q 2613 4750 3031 4423 
Q 3450 4097 3450 3541 
Q 3450 3153 3228 2886 
Q 3006 2619 2597 2516 
z
" transform="scale(0.015625)"/>
       </defs>
       <use xlink:href="#DejaVuSans-33"/>
       <use xlink:href="#DejaVuSans-2e" transform="translate(63.623047 0)"/>
       <use xlink:href="#DejaVuSans-30" transform="translate(95.410156 0)"/>
      </g>
     </g>
    </g>
    <g id="ytick_8">
     <g id="line2d_31">
      <path d="M 47.81 67.674977 
L 450 67.674977 
" clip-path="url(#p7d1b65e895)" style="fill: none; stroke: #b0b0b0; stroke-opacity: 0.3; stroke-width: 0.8; stroke-linecap: square"/>
     </g>
     <g id="line2d_32">
      <g>
       <use xlink:href="#mb110961be3" x="47.81" y="67.674977" style="stroke: #000000; stroke-width: 0.8"/>
      </g>
     </g>
     <g id="text_17">
      <!-- 3.5 -->
      <g transform="translate(24.906875 71.474195) scale(0.1 -0.1)">
       <use xlink:href="#DejaVuSans-33"/>
       <use xlink:href="#DejaVuSans-2e" transform="translate(63.623047 0)"/>
       <use xlink:href="#DejaVuSans-35" transform="translate(95.410156 0)"/>
      </g>
     </g>
    </g>
    <g id="ytick_9">
     <g id="line2d_33">
      <path d="M 47.81 35.772181 
L 450 35.772181 
" clip-path="url(#p7d1b65e895)" style="fill: none; stroke: #b0b0b0; stroke-opacity: 0.3; stroke-width: 0.8; stroke-linecap: square"/>
     </g>
     <g id="line2d_34">
      <g>
       <use xlink:href="#mb110961be3" x="47.81" y="35.772181" style="stroke: #000000; stroke-width: 0.8"/>
      </g>
     </g>
     <g id="text_18">
      <!-- 4.0 -->
      <g transform="translate(24.906875 39.5714) scale(0.1 -0.1)">
       <use xlink:href="#DejaVuSans-34"/>
       <use xlink:href="#DejaVuSans-2e" transform="translate(63.623047 0)"/>
       <use xlink:href="#DejaVuSans-30" transform="translate(95.410156 0)"/>
      </g>
     </g>
    </g>
    <g id="text_19">
     <!-- EDA signals (μS) -->
     <g transform="translate(18.827188 205.711875) rotate(-90) scale(0.1 -0.1)">
      <defs>
       <path id="DejaVuSans-45" d="M 628 4666 
L 3578 4666 
L 3578 4134 
L 1259 4134 
L 1259 2753 
L 3481 2753 
L 3481 2222 
L 1259 2222 
L 1259 531 
L 3634 531 
L 3634 0 
L 628 0 
L 628 4666 
z
" transform="scale(0.015625)"/>
       <path id="DejaVuSans-44" d="M 1259 4147 
L 1259 519 
L 2022 519 
Q 2988 519 3436 956 
Q 3884 1394 3884 2338 
Q 3884 3275 3436 3711 
Q 2988 4147 2022 4147 
L 1259 4147 
z
M 628 4666 
L 1925 4666 
Q 3281 4666 3915 4102 
Q 4550 3538 4550 2338 
Q 4550 1131 3912 565 
Q 3275 0 1925 0 
L 628 0 
L 628 4666 
z
" transform="scale(0.015625)"/>
       <path id="DejaVuSans-41" d="M 2188 4044 
L 1331 1722 
L 3047 1722 
L 2188 4044 
z
M 1831 4666 
L 2547 4666 
L 4325 0 
L 3669 0 
L 3244 1197 
L 1141 1197 
L 716 0 
L 50 0 
L 1831 4666 
z
" transform="scale(0.015625)"/>
       <path id="DejaVuSans-67" d="M 2906 1791 
Q 2906 2416 2648 2759 
Q 2391 3103 1925 3103 
Q 1463 3103 1205 2759 
Q 947 2416 947 1791 
Q 947 1169 1205 825 
Q 1463 481 1925 481 
Q 2391 481 2648 825 
Q 2906 1169 2906 1791 
z
M 3481 434 
Q 3481 -459 3084 -895 
Q 2688 -1331 1869 -1331 
Q 1566 -1331 1297 -1286 
Q 1028 -1241 775 -1147 
L 775 -588 
Q 1028 -725 1275 -790 
Q 1522 -856 1778 -856 
Q 2344 -856 2625 -561 
Q 2906 -266 2906 331 
L 2906 616 
Q 2728 306 2450 153 
Q 2172 0 1784 0 
Q 1141 0 747 490 
Q 353 981 353 1791 
Q 353 2603 747 3093 
Q 1141 3584 1784 3584 
Q 2172 3584 2450 3431 
Q 2728 3278 2906 2969 
L 2906 3500 
L 3481 3500 
L 3481 434 
z
" transform="scale(0.015625)"/>
       <path id="DejaVuSans-61" d="M 2194 1759 
Q 1497 1759 1228 1600 
Q 959 1441 959 1056 
Q 959 750 1161 570 
Q 1363 391 1709 391 
Q 2188 391 2477 730 
Q 2766 1069 2766 1631 
L 2766 1759 
L 2194 1759 
z
M 3341 1997 
L 3341 0 
L 2766 0 
L 2766 531 
Q 2569 213 2275 61 
Q 1981 -91 1556 -91 
Q 1019 -91 701 211 
Q 384 513 384 1019 
Q 384 1609 779 1909 
Q 1175 2209 1959 2209 
L 2766 2209 
L 2766 2266 
Q 2766 2663 2505 2880 
Q 2244 3097 1772 3097 
Q 1472 3097 1187 3025 
Q 903 2953 641 2809 
L 641 3341 
Q 956 3463 1253 3523 
Q 1550 3584 1831 3584 
Q 2591 3584 2966 3190 
Q 3341 2797 3341 1997 
z
" transform="scale(0.015625)"/>
       <path id="DejaVuSans-6c" d="M 603 4863 
L 1178 4863 
L 1178 0 
L 603 0 
L 603 4863 
z
" transform="scale(0.015625)"/>
       <path id="DejaVuSans-3bc" d="M 544 -1331 
L 544 3500 
L 1119 3500 
L 1119 1325 
Q 1119 872 1334 640 
Q 1550 409 1972 409 
Q 2434 409 2667 671 
Q 2900 934 2900 1459 
L 2900 3500 
L 3475 3500 
L 3475 806 
Q 3475 619 3529 530 
Q 3584 441 3700 441 
Q 3728 441 3778 458 
Q 3828 475 3916 513 
L 3916 50 
Q 3788 -22 3673 -56 
Q 3559 -91 3450 -91 
Q 3234 -91 3106 31 
Q 2978 153 2931 403 
Q 2775 156 2548 32 
Q 2322 -91 2016 -91 
Q 1697 -91 1473 31 
Q 1250 153 1119 397 
L 1119 -1331 
L 544 -1331 
z
" transform="scale(0.015625)"/>
       <path id="DejaVuSans-53" d="M 3425 4513 
L 3425 3897 
Q 3066 4069 2747 4153 
Q 2428 4238 2131 4238 
Q 1616 4238 1336 4038 
Q 1056 3838 1056 3469 
Q 1056 3159 1242 3001 
Q 1428 2844 1947 2747 
L 2328 2669 
Q 3034 2534 3370 2195 
Q 3706 1856 3706 1288 
Q 3706 609 3251 259 
Q 2797 -91 1919 -91 
Q 1588 -91 1214 -16 
Q 841 59 441 206 
L 441 856 
Q 825 641 1194 531 
Q 1563 422 1919 422 
Q 2459 422 2753 634 
Q 3047 847 3047 1241 
Q 3047 1584 2836 1778 
Q 2625 1972 2144 2069 
L 1759 2144 
Q 1053 2284 737 2584 
Q 422 2884 422 3419 
Q 422 4038 858 4394 
Q 1294 4750 2059 4750 
Q 2388 4750 2728 4690 
Q 3069 4631 3425 4513 
z
" transform="scale(0.015625)"/>
      </defs>
      <use xlink:href="#DejaVuSans-45"/>
      <use xlink:href="#DejaVuSans-44" transform="translate(63.183594 0)"/>
      <use xlink:href="#DejaVuSans-41" transform="translate(138.435547 0)"/>
      <use xlink:href="#DejaVuSans-20" transform="translate(206.84375 0)"/>
      <use xlink:href="#DejaVuSans-73" transform="translate(238.630859 0)"/>
      <use xlink:href="#DejaVuSans-69" transform="translate(290.730469 0)"/>
      <use xlink:href="#DejaVuSans-67" transform="translate(318.513672 0)"/>
      <use xlink:href="#DejaVuSans-6e" transform="translate(381.990234 0)"/>
      <use xlink:href="#DejaVuSans-61" transform="translate(445.369141 0)"/>
      <use xlink:href="#DejaVuSans-6c" transform="translate(506.648438 0)"/>
      <use xlink:href="#DejaVuSans-73" transform="translate(534.431641 0)"/>
      <use xlink:href="#DejaVuSans-20" transform="translate(586.53125 0)"/>
      <use xlink:href="#DejaVuSans-28" transform="translate(618.318359 0)"/>
      <use xlink:href="#DejaVuSans-3bc" transform="translate(657.332031 0)"/>
      <use xlink:href="#DejaVuSans-53" transform="translate(720.955078 0)"/>
      <use xlink:href="#DejaVuSans-29" transform="translate(784.431641 0)"/>
     </g>
    </g>
   </g>
   <g id="line2d_35">
    <path d="M 66.091364 101.713423 
L 66.396222 102.755019 
L 66.701081 103.855438 
L 67.00594 104.276925 
L 67.209179 104.713621 
L 67.412418 105.866837 
L 67.818897 108.428622 
L 68.225375 109.605368 
L 68.428614 110.023238 
L 70.257767 116.565865 
L 70.562625 117.021453 
L 71.070723 118.605007 
L 71.375582 119.235999 
L 71.680441 119.535092 
L 72.188539 120.875296 
L 72.391778 121.1503 
L 72.595017 121.861155 
L 73.103115 123.979436 
L 73.509593 129.035758 
L 73.712833 129.452753 
L 73.916072 129.623828 
L 74.220931 130.329566 
L 74.525789 131.250464 
L 75.033887 132.96547 
L 75.745224 134.533124 
L 75.948464 135.426176 
L 76.050083 135.053955 
L 76.253322 133.992279 
L 76.354942 134.100085 
L 76.558181 135.365233 
L 76.86304 136.827758 
L 77.371138 138.632547 
L 77.675997 138.83681 
L 77.980855 138.645921 
L 79.708388 141.562492 
L 80.114867 142.097435 
L 80.622965 141.850405 
L 80.724584 142.214442 
L 81.131062 144.662263 
L 81.232682 145.097524 
L 81.334302 145.033594 
L 81.537541 144.118654 
L 81.944019 143.959538 
L 82.248878 144.495565 
L 82.452117 144.41384 
L 82.960215 143.001925 
L 83.061835 143.090411 
L 83.569933 144.254366 
L 83.773172 144.317809 
L 84.382889 145.359167 
L 84.687748 146.058847 
L 85.602324 147.275433 
L 86.110422 147.758659 
L 86.415281 148.058814 
L 87.329857 149.962902 
L 87.431477 149.522722 
L 87.939575 145.12096 
L 88.041194 147.025595 
L 88.142814 156.202146 
L 88.447673 193.759689 
L 88.549292 192.617714 
L 88.650912 193.202235 
L 88.955771 190.176505 
L 89.15901 190.598965 
L 89.463869 191.805094 
L 89.667108 191.020053 
L 89.870347 191.203906 
L 90.073586 191.469059 
L 90.581684 192.275471 
L 90.886543 192.706242 
L 91.191402 191.857389 
L 91.293021 192.054768 
L 92.309217 193.382006 
L 92.614076 193.87554 
L 92.918935 194.187599 
L 93.325413 194.85965 
L 93.93513 195.767823 
L 94.13837 195.920072 
L 94.748087 197.011826 
L 94.849707 196.905073 
L 95.154565 195.893648 
L 95.256185 196.074272 
L 95.357805 195.976797 
L 95.662663 194.522192 
L 96.069142 194.590701 
L 96.780479 195.48925 
L 97.085338 195.92876 
L 97.288577 195.546534 
L 97.390196 195.598966 
L 98.508012 197.407048 
L 98.812871 197.742905 
L 99.219349 198.346778 
L 99.524208 198.895734 
L 100.032306 200.466932 
L 100.337164 200.839919 
L 100.540404 201.079611 
L 101.35336 201.59958 
L 101.45498 201.340313 
L 101.556599 200.055173 
L 102.064697 184.792407 
L 102.471176 181.922248 
L 102.674415 181.35771 
L 102.877654 181.380462 
L 103.487372 182.111883 
L 103.79223 182.532394 
L 103.89385 182.588553 
L 103.995469 182.810904 
L 104.198709 183.803527 
L 105.011665 184.054406 
L 105.316524 183.574892 
L 105.519763 183.703016 
L 106.027861 185.169999 
L 106.535959 185.61581 
L 106.840818 185.749248 
L 107.145677 186.056939 
L 107.653775 186.29527 
L 108.161873 186.60312 
L 108.365112 186.532366 
L 108.568351 186.618495 
L 108.66997 186.454105 
L 108.77159 185.601596 
L 108.87321 183.56431 
L 108.974829 176.190486 
L 109.482927 86.350326 
L 109.787786 63.985013 
L 110.194264 52.533143 
L 110.600743 47.388422 
L 110.803982 46.325904 
L 110.905601 46.808596 
L 111.007221 46.712632 
L 111.108841 46.788148 
L 111.21046 47.173675 
L 111.515319 49.355335 
L 111.616938 49.166303 
L 111.820178 46.728118 
L 112.023417 44.671683 
L 112.328276 46.515026 
L 112.429895 46.771165 
L 112.633134 53.017606 
L 112.836373 58.227765 
L 112.937993 58.791911 
L 113.039613 58.542948 
L 113.547711 54.275524 
L 113.75095 52.769919 
L 114.157428 47.415725 
L 114.360667 45.306757 
L 114.462287 45.306602 
L 114.868765 46.110164 
L 115.173624 47.333707 
L 115.275244 47.201688 
L 115.478483 46.314832 
L 115.580102 46.376372 
L 115.783342 47.632496 
L 115.986581 46.093453 
L 116.291439 53.048964 
L 116.494679 53.503791 
L 116.697918 56.666748 
L 117.002777 63.172155 
L 117.206016 63.813532 
L 117.307635 63.493219 
L 117.510874 57.942651 
L 117.815733 48.580693 
L 118.323831 46.431425 
L 118.425451 46.439548 
L 118.62869 47.120499 
L 119.035168 48.604038 
L 119.746505 50.452481 
L 120.051364 51.039091 
L 120.152984 51.358372 
L 120.356223 53.73773 
L 120.661082 56.6063 
L 120.864321 57.056006 
L 120.96594 56.847671 
L 121.16918 55.297863 
L 121.270799 55.246101 
L 121.372419 55.366477 
L 121.575658 54.655987 
L 121.880517 52.712054 
L 122.185375 53.115782 
L 122.591854 53.594254 
L 122.896713 53.826964 
L 122.998332 53.879945 
L 123.201571 53.72604 
L 123.303191 53.928004 
L 123.404811 54.962229 
L 123.912908 65.991932 
L 124.116148 67.267803 
L 124.217767 67.422171 
L 124.522626 65.662428 
L 124.725865 66.682366 
L 124.929104 64.592891 
L 125.132343 64.356425 
L 125.233963 64.355805 
L 125.437202 65.1182 
L 125.742061 62.936398 
L 125.9453 61.190035 
L 126.250159 63.006348 
L 126.351779 63.872543 
L 127.266355 57.806955 
L 127.367974 57.962216 
L 127.571214 59.048603 
L 127.774453 58.459773 
L 127.876072 58.556776 
L 128.587409 59.899914 
L 128.790649 60.10985 
L 128.993888 60.725918 
L 129.400366 60.78313 
L 129.705225 60.536211 
L 129.908464 60.224357 
L 130.111703 60.422119 
L 130.213323 60.650718 
L 130.314942 60.475113 
L 130.518182 59.281909 
L 130.619801 59.332875 
L 130.82304 59.843686 
L 130.92466 59.568036 
L 131.127899 53.786299 
L 131.229519 54.264097 
L 131.432758 55.387826 
L 131.737617 54.525209 
L 131.940856 54.97248 
L 132.042475 54.884245 
L 132.144095 54.264554 
L 132.347334 52.041972 
L 132.448954 52.389174 
L 132.550573 52.331431 
L 132.957052 50.463835 
L 133.160291 54.06699 
L 133.668389 62.29501 
L 133.770008 62.236102 
L 133.973248 59.625694 
L 134.176487 59.297365 
L 134.278106 59.178109 
L 134.481345 58.256811 
L 134.684585 57.911118 
L 134.786204 57.783643 
L 134.887824 57.860767 
L 135.395922 59.53134 
L 135.8024 59.774642 
L 136.005639 60.236747 
L 136.107259 60.149402 
L 136.615357 61.496047 
L 136.716976 61.36833 
L 136.818596 61.511339 
L 137.834792 65.975814 
L 138.038031 66.399827 
L 138.139651 66.137239 
L 138.34289 64.977342 
L 138.444509 65.111357 
L 138.647748 64.977183 
L 138.850988 65.131728 
L 138.952607 65.769391 
L 139.257466 70.812846 
L 139.460705 71.44699 
L 139.562325 71.523773 
L 139.663944 70.886012 
L 140.273662 59.907902 
L 140.375281 60.027103 
L 140.476901 60.21253 
L 140.578521 60.629426 
L 140.78176 63.221255 
L 140.883379 64.315151 
L 140.984999 64.293287 
L 141.188238 63.939944 
L 141.391477 64.250351 
L 141.493097 63.850756 
L 141.797956 60.516643 
L 142.102814 60.716097 
L 142.204434 60.700075 
L 142.509293 60.040457 
L 142.712532 62.622253 
L 143.322249 72.777498 
L 143.423869 71.901407 
L 143.728728 68.072359 
L 143.931967 68.067098 
L 144.135206 67.968043 
L 144.236826 67.99322 
L 144.541685 68.560755 
L 144.744924 68.802021 
L 144.948163 68.644829 
L 145.151402 68.786406 
L 145.456261 69.624526 
L 145.6595 69.99243 
L 145.964359 70.584622 
L 146.065978 70.494867 
L 146.370837 69.665423 
L 146.472457 69.706769 
L 146.574076 69.982797 
L 146.675696 69.943771 
L 146.878935 69.720764 
L 146.980555 69.66778 
L 147.285413 69.852538 
L 147.488653 68.94673 
L 147.691892 67.64046 
L 147.99675 67.479117 
L 148.19999 67.941536 
L 148.301609 69.83602 
L 148.606468 82.196929 
L 148.809707 82.414142 
L 149.216186 85.558853 
L 149.419425 85.269452 
L 149.521044 85.462851 
L 149.622664 85.162865 
L 149.724283 82.280307 
L 149.927523 65.73586 
L 150.435621 90.356476 
L 150.740479 94.312148 
L 151.146958 97.743049 
L 151.451816 99.152144 
L 151.553436 98.096818 
L 151.959914 82.062242 
L 152.163154 80.4122 
L 152.468012 75.537374 
L 152.569632 75.520175 
L 153.179349 76.259631 
L 153.280969 76.21482 
L 153.484208 75.611971 
L 153.789067 76.180581 
L 153.890686 76.118989 
L 153.992306 76.587953 
L 154.297165 78.853491 
L 154.398784 79.04419 
L 154.602024 78.369862 
L 154.703643 78.092756 
L 155.008502 80.053296 
L 155.41498 92.083992 
L 155.618219 94.830439 
L 156.024698 80.774731 
L 156.329557 78.187801 
L 156.634415 76.400488 
L 156.837655 75.098582 
L 157.142513 73.79368 
L 157.244133 73.616372 
L 157.345752 73.750774 
L 157.650611 74.876769 
L 158.158709 67.863862 
L 158.361948 67.505795 
L 158.463568 67.517721 
L 158.768427 66.563126 
L 158.971666 66.868634 
L 159.479764 67.6769 
L 159.581383 68.071101 
L 160.089481 73.703314 
L 160.49596 73.907655 
L 160.597579 73.970829 
L 160.699199 74.471331 
L 160.800818 76.761862 
L 161.308916 101.003235 
L 161.410536 102.54044 
L 161.918634 76.091894 
L 162.121873 73.909965 
L 162.325112 73.177372 
L 162.629971 73.471541 
L 162.83321 73.49034 
L 163.036449 74.254753 
L 163.239688 74.981688 
L 163.442928 74.7923 
L 163.646167 74.200944 
L 163.951026 73.874323 
L 165.068841 74.522216 
L 165.170461 74.455703 
L 165.27208 74.542924 
L 165.3737 74.420349 
L 165.780178 73.006544 
L 165.881798 73.178737 
L 166.288276 75.519926 
L 166.593135 76.187653 
L 166.694754 75.948342 
L 167.202852 73.785758 
L 167.507711 74.308932 
L 167.71095 74.481755 
L 168.015809 75.479841 
L 168.320668 77.456987 
L 168.930385 76.722442 
L 169.032005 76.81449 
L 169.235244 77.729074 
L 169.336864 78.315072 
L 169.438483 78.21317 
L 169.743342 76.600478 
L 170.35306 77.26015 
L 170.556299 77.14898 
L 171.572495 78.301801 
L 171.674114 78.750437 
L 171.877353 83.514053 
L 172.182212 95.200355 
L 172.385451 96.897866 
L 172.487071 95.192115 
L 172.69031 88.269302 
L 172.893549 86.840901 
L 172.995169 87.37677 
L 173.096788 87.339683 
L 173.198408 86.508784 
L 173.300028 86.884962 
L 173.401647 87.768576 
L 173.503267 87.73732 
L 173.604886 88.37241 
L 173.808125 87.838137 
L 174.621082 84.020696 
L 174.824321 84.904071 
L 175.738898 81.712961 
L 176.246996 78.269438 
L 176.348615 78.268351 
L 176.551854 77.537716 
L 176.653474 77.879019 
L 176.755093 77.789979 
L 176.958333 75.50412 
L 177.059952 75.675426 
L 177.263191 77.349105 
L 177.364811 77.461376 
L 177.56805 75.482408 
L 177.771289 71.818855 
L 178.076148 63.598236 
L 178.381007 62.488187 
L 178.584246 64.883439 
L 178.787485 61.908608 
L 178.990724 65.415188 
L 179.092344 65.680089 
L 179.193964 65.559682 
L 179.397203 68.317696 
L 179.498822 70.011239 
L 179.702061 68.150656 
L 180.00692 69.587549 
L 180.10854 70.221107 
L 180.210159 72.164005 
L 180.413399 69.817459 
L 180.616638 70.529669 
L 181.023116 66.986229 
L 181.226355 66.062366 
L 181.327975 65.745211 
L 181.531214 63.271988 
L 181.836073 60.737054 
L 182.039312 59.699366 
L 182.54741 62.07735 
L 182.64903 62.039331 
L 182.852269 62.14957 
L 183.360367 56.449677 
L 183.766845 55.644384 
L 183.868465 56.486752 
L 184.376562 64.306197 
L 184.681421 65.107411 
L 184.88466 65.357641 
L 185.0879 65.32628 
L 185.494378 65.960707 
L 185.595998 65.837358 
L 185.799237 64.82313 
L 186.205715 62.380065 
L 186.307335 62.473174 
L 186.510574 62.186963 
L 186.612193 63.028337 
L 186.815433 66.648696 
L 186.917052 66.516232 
L 187.018672 66.066096 
L 187.120291 66.118592 
L 187.32353 66.954818 
L 187.42515 66.506213 
L 188.034868 55.924222 
L 188.238107 53.164998 
L 188.339726 53.925709 
L 188.441346 56.035394 
L 188.644585 69.384525 
L 188.847824 80.496354 
L 189.254303 87.604895 
L 189.355922 85.819198 
L 189.86402 65.890744 
L 190.067259 65.026822 
L 190.270499 65.868062 
L 190.372118 65.589366 
L 190.575357 66.124025 
L 190.676977 65.442515 
L 191.185075 55.165592 
L 191.489934 61.214852 
L 191.591553 61.199744 
L 191.693173 59.644974 
L 191.998031 51.400163 
L 192.810988 48.552883 
L 192.912608 49.106526 
L 193.014227 50.543475 
L 193.217467 49.574319 
L 193.522325 52.680986 
L 193.623945 52.604701 
L 193.725564 52.356838 
L 193.928804 54.380206 
L 194.030423 53.20242 
L 194.233662 49.583967 
L 194.335282 50.033451 
L 194.640141 54.937115 
L 195.148239 42.471682 
L 195.249858 42.65642 
L 195.453097 43.903428 
L 195.961195 48.562831 
L 196.570913 49.767674 
L 196.774152 49.845869 
L 196.875772 49.770835 
L 197.079011 49.091171 
L 197.688728 46.127656 
L 197.891968 48.318674 
L 197.993587 48.527461 
L 198.196826 48.492385 
L 198.400065 48.631662 
L 198.501685 48.294362 
L 198.806544 43.262999 
L 198.908163 43.14446 
L 199.009783 43.286091 
L 199.213022 45.748532 
L 199.517881 39.759319 
L 199.82274 38.110431 
L 200.229218 47.809358 
L 200.940555 50.441944 
L 201.245414 51.459567 
L 201.550273 51.608537 
L 201.855131 52.781603 
L 202.15999 52.754296 
L 202.769708 45.475927 
L 202.972947 44.882234 
L 203.176186 45.012248 
L 203.481045 45.683225 
L 203.684284 46.46635 
L 203.785904 46.424536 
L 203.989143 46.680337 
L 204.090762 46.601182 
L 204.294001 47.34004 
L 204.395621 47.279709 
L 204.59886 46.997659 
L 204.802099 47.18704 
L 205.208578 47.456657 
L 205.919915 49.094189 
L 206.123154 48.802971 
L 206.529632 49.133224 
L 207.03773 50.503814 
L 207.240969 50.843274 
L 207.647448 51.754933 
L 209.883079 55.016367 
L 209.984698 55.006278 
L 210.391177 55.640578 
L 211.610612 56.495008 
L 212.11871 56.663736 
L 212.423568 56.908519 
L 213.033286 56.932411 
L 213.236525 56.808478 
L 213.643003 57.14681 
L 213.846243 58.331012 
L 214.049482 59.337313 
L 214.252721 59.599536 
L 214.354341 59.484818 
L 214.55758 59.078273 
L 214.659199 59.067105 
L 215.472156 60.276564 
L 215.573776 60.297269 
L 216.081874 60.88953 
L 216.183493 60.957906 
L 216.386732 61.316314 
L 216.488352 61.32208 
L 216.89483 61.897105 
L 217.098069 62.103209 
L 217.402928 62.493819 
L 218.012646 62.592617 
L 218.114265 63.035676 
L 218.419124 65.839192 
L 218.723983 66.260021 
L 219.028842 66.091818 
L 219.3337 65.738542 
L 219.638559 65.234952 
L 219.841798 64.091653 
L 220.045037 64.236934 
L 220.248277 64.392716 
L 220.451516 64.075111 
L 220.553135 64.162917 
L 220.756375 64.580231 
L 220.857994 64.563734 
L 221.061233 64.702935 
L 221.467712 64.369185 
L 221.77257 64.854822 
L 223.398484 66.013855 
L 224.41468 66.180664 
L 225.024397 66.225132 
L 225.430875 66.505655 
L 225.634115 66.548821 
L 225.837354 67.020499 
L 225.938973 67.006391 
L 226.243832 67.243619 
L 226.447071 67.156088 
L 226.650311 67.32064 
L 226.75193 67.219007 
L 227.056789 67.564073 
L 227.260028 67.8181 
L 227.361648 67.816885 
L 227.768126 68.774341 
L 228.479463 69.940192 
L 228.682702 70.18008 
L 229.089181 70.587752 
L 229.1908 70.585119 
L 229.495659 71.076237 
L 229.902137 71.537232 
L 230.003757 71.389751 
L 230.206996 70.506517 
L 230.410235 70.596159 
L 230.918333 70.827981 
L 231.121572 71.028729 
L 231.528051 71.61716 
L 231.73129 71.763837 
L 232.341007 72.176025 
L 232.645866 72.45977 
L 232.849105 72.443439 
L 233.153964 72.786571 
L 233.763682 73.198422 
L 233.966921 73.322952 
L 234.17016 73.460803 
L 234.678258 74.035773 
L 234.779877 73.997251 
L 235.287975 74.372506 
L 235.592834 74.227068 
L 235.796073 74.364615 
L 235.897693 74.388759 
L 236.202552 74.702867 
L 236.71065 74.979011 
L 236.913889 75.216733 
L 237.015508 75.144355 
L 237.523606 75.448549 
L 237.726845 75.474593 
L 238.031704 75.836616 
L 238.743041 76.402856 
L 238.946281 76.239662 
L 239.352759 75.773756 
L 239.657618 75.656802 
L 239.860857 75.831464 
L 240.267335 76.152822 
L 240.572194 76.152482 
L 240.978672 75.629155 
L 241.181911 75.566171 
L 241.791629 76.069633 
L 242.198107 76.462714 
L 242.502966 76.631598 
L 242.706205 76.835427 
L 243.011064 76.834523 
L 243.315923 77.282945 
L 243.722401 77.350159 
L 244.02726 77.669455 
L 244.738597 77.914641 
L 244.941836 77.914821 
L 245.348314 78.064645 
L 245.449934 78.015423 
L 245.856412 78.445466 
L 246.059652 78.475197 
L 246.56775 79.024616 
L 246.770989 79.229217 
L 246.974228 79.803305 
L 247.177467 81.882507 
L 247.482326 85.901641 
L 247.583945 85.487329 
L 247.888804 81.071092 
L 248.193663 77.585729 
L 248.396902 77.046982 
L 248.701761 77.582795 
L 248.905 78.066951 
L 249.413098 78.131613 
L 249.819576 79.036423 
L 250.124435 79.892006 
L 251.34387 81.876588 
L 251.648729 82.143671 
L 251.750348 82.00156 
L 251.851968 82.060116 
L 252.461686 83.118724 
L 252.969783 83.237259 
L 253.376262 83.653525 
L 253.681121 83.883499 
L 253.88436 84.124853 
L 253.985979 84.127019 
L 254.595697 84.759813 
L 255.103795 84.86066 
L 255.713512 85.573126 
L 255.916751 85.619585 
L 256.424849 86.046481 
L 257.745904 86.742456 
L 257.847524 86.637386 
L 258.152382 86.884032 
L 258.66048 87.496494 
L 259.676676 87.997666 
L 259.879915 87.654499 
L 260.489633 86.3793 
L 260.692872 86.661057 
L 261.404209 87.670994 
L 261.505829 87.622732 
L 261.709068 86.896861 
L 262.115546 85.090975 
L 262.318785 84.838687 
L 262.623644 85.187123 
L 263.334981 86.468281 
L 264.147938 87.260526 
L 264.452797 87.674949 
L 264.554416 87.643352 
L 264.859275 87.910316 
L 264.960895 87.942484 
L 265.164134 88.089173 
L 265.468993 87.539121 
L 265.672232 87.249448 
L 265.977091 86.643038 
L 266.07871 86.64986 
L 266.688428 87.351497 
L 266.891667 87.301541 
L 267.298145 87.879335 
L 267.501384 88.165089 
L 267.704624 88.315201 
L 267.907863 88.449103 
L 268.111102 88.341619 
L 268.6192 89.208455 
L 269.025678 89.437072 
L 269.838635 90.29783 
L 270.041874 90.292533 
L 270.448352 90.163049 
L 270.549972 90.169743 
L 270.95645 89.651878 
L 271.464548 89.786115 
L 271.769407 90.292691 
L 272.074266 90.718053 
L 272.887222 91.361796 
L 273.090462 91.601358 
L 273.192081 91.579676 
L 274.208277 92.563116 
L 274.309897 92.536096 
L 274.817995 93.066633 
L 276.240669 93.523204 
L 276.545528 93.697937 
L 276.748767 93.558923 
L 276.952006 93.59771 
L 277.155245 93.574708 
L 277.256865 93.611333 
L 277.460104 93.739061 
L 277.561723 93.749836 
L 278.069821 94.300754 
L 278.273061 94.385985 
L 278.37468 94.290843 
L 279.086017 94.895929 
L 279.390876 94.983812 
L 279.594115 95.251538 
L 279.797354 95.160912 
L 280.305452 95.7641 
L 280.711931 95.822362 
L 280.91517 96.004146 
L 281.016789 95.958823 
L 281.220029 96.142396 
L 281.321648 96.067547 
L 281.524887 96.329105 
L 281.626507 96.248605 
L 282.337844 97.247349 
L 282.642703 96.345034 
L 282.947562 95.580807 
L 283.35404 95.183367 
L 284.065377 96.473613 
L 284.370236 96.66403 
L 284.675094 97.264762 
L 284.979953 97.342287 
L 285.589671 97.78962 
L 285.79291 97.854662 
L 286.199388 98.012364 
L 286.504247 97.823888 
L 286.707486 97.918521 
L 286.910725 97.783144 
L 287.317204 98.141306 
L 287.418823 98.214547 
L 287.723682 98.100459 
L 287.926921 98.623869 
L 288.028541 98.621225 
L 288.23178 98.38213 
L 288.3334 98.376378 
L 288.536639 97.968164 
L 288.739878 97.424458 
L 288.943117 97.30342 
L 289.044737 97.220269 
L 289.349595 97.52423 
L 289.654454 97.784447 
L 290.060933 98.162548 
L 290.467411 98.419493 
L 290.873889 98.795769 
L 290.975509 98.824546 
L 291.381987 99.458794 
L 291.686846 99.624207 
L 291.890085 99.620735 
L 292.499803 99.653972 
L 292.703042 99.968064 
L 292.906281 100.309622 
L 293.312759 100.545233 
L 293.719238 100.909126 
L 293.922477 100.935206 
L 294.227336 101.211658 
L 294.532194 101.087071 
L 294.938673 101.479109 
L 295.040292 101.543778 
L 295.243532 101.410134 
L 295.853249 101.727872 
L 296.666206 101.978391 
L 296.869445 102.243388 
L 297.377543 102.350067 
L 297.580782 102.513013 
L 297.784021 102.403545 
L 298.08888 102.712122 
L 298.901837 103.046223 
L 299.206695 103.229602 
L 299.409935 103.118141 
L 299.714793 103.265639 
L 299.918032 103.451023 
L 300.121272 103.556725 
L 300.324511 103.666625 
L 300.62937 103.563833 
L 301.340707 104.007763 
L 301.543946 104.187668 
L 301.950424 103.912825 
L 302.153663 103.066278 
L 302.458522 101.785822 
L 302.661761 101.612613 
L 302.865001 102.030087 
L 303.373098 102.875391 
L 303.474718 102.683406 
L 303.779577 101.412221 
L 303.881196 101.777599 
L 303.982816 101.603239 
L 304.287675 97.802324 
L 304.490914 96.991251 
L 304.694153 95.645272 
L 304.795773 95.69243 
L 304.897392 96.372077 
L 304.999012 96.211814 
L 305.608729 88.828864 
L 305.710349 88.895235 
L 305.913588 90.081319 
L 306.320066 92.559657 
L 306.523306 93.186681 
L 306.828164 92.404434 
L 307.031404 92.066564 
L 309.470274 96.889329 
L 309.571893 96.926567 
L 309.876752 96.255073 
L 310.079991 95.332411 
L 310.48647 91.843513 
L 310.791328 90.756468 
L 311.096187 87.779632 
L 311.401046 85.172019 
L 311.502665 85.039758 
L 311.705905 85.549536 
L 312.214002 87.381363 
L 312.315622 87.424511 
L 312.82372 88.176309 
L 313.128579 88.523799 
L 313.433438 88.974322 
L 313.535057 88.732932 
L 314.449633 82.959583 
L 314.652873 81.817647 
L 314.754492 83.295491 
L 314.957731 93.641377 
L 315.059351 91.808057 
L 315.465829 74.815245 
L 315.567449 74.977144 
L 315.770688 74.327889 
L 316.177166 71.632411 
L 316.685264 76.515213 
L 317.091743 82.53344 
L 317.70146 87.306536 
L 318.006319 88.873209 
L 318.616036 91.696322 
L 319.428993 93.658695 
L 319.632232 93.824055 
L 320.343569 94.073074 
L 320.851667 94.594768 
L 321.054907 94.355502 
L 321.156526 93.605201 
L 321.461385 89.34752 
L 321.563004 89.555653 
L 321.664624 89.414807 
L 322.274342 86.583965 
L 322.375961 86.296826 
L 322.884059 83.299679 
L 322.985679 83.192764 
L 323.188918 83.596034 
L 323.493777 84.724568 
L 323.595396 85.101162 
L 323.900255 84.568779 
L 324.001875 84.656169 
L 324.205114 84.765566 
L 324.509972 84.340409 
L 325.01807 85.035105 
L 325.11969 85.027218 
L 325.322929 85.175807 
L 325.424549 85.110846 
L 325.831027 84.068068 
L 326.237505 84.531679 
L 326.847223 85.344746 
L 327.45694 85.798341 
L 327.66018 85.447651 
L 328.168278 86.775773 
L 328.269897 86.871031 
L 328.371517 86.599147 
L 328.676376 84.897896 
L 328.879615 84.162254 
L 329.082854 83.356313 
L 329.184473 83.41484 
L 329.387713 84.00845 
L 329.590952 86.80751 
L 329.794191 88.78297 
L 329.99743 88.977131 
L 330.200669 90.022809 
L 330.403908 90.724088 
L 330.607148 90.253652 
L 331.013626 88.139074 
L 331.420104 83.821875 
L 331.623344 83.659777 
L 331.724963 82.47998 
L 332.029822 76.837585 
L 332.334681 79.338397 
L 332.53792 78.665727 
L 332.741159 74.682423 
L 332.944398 71.465498 
L 333.046018 71.669854 
L 333.249257 72.550079 
L 333.350876 72.301101 
L 333.554116 70.218472 
L 333.858974 66.166156 
L 334.062214 65.430678 
L 334.265453 65.330438 
L 334.468692 65.991528 
L 334.97679 68.330035 
L 335.180029 67.608141 
L 335.383268 66.159056 
L 335.789747 62.278248 
L 336.094605 59.036235 
L 336.602703 52.338164 
L 336.805942 51.630685 
L 337.009182 51.232557 
L 337.212421 49.377794 
L 337.51728 46.51979 
L 337.720519 46.191029 
L 337.923758 47.794731 
L 338.533475 52.734369 
L 338.939954 55.094932 
L 339.143193 57.163195 
L 339.651291 57.988413 
L 339.85453 57.92206 
L 340.565867 57.347881 
L 340.870726 57.599102 
L 340.972345 57.466209 
L 341.073965 56.959289 
L 341.277204 52.871489 
L 341.683683 42.599113 
L 341.886922 41.152589 
L 342.090161 43.051401 
L 343.004737 52.938169 
L 343.207976 53.083699 
L 343.309596 53.050421 
L 343.512835 53.416029 
L 343.716074 53.934031 
L 344.122553 55.566143 
L 344.630651 55.994428 
L 344.73227 55.921547 
L 345.037129 56.598655 
L 345.443607 57.954146 
L 345.748466 58.453194 
L 346.663042 59.288671 
L 347.27276 60.520979 
L 347.475999 60.923954 
L 347.679238 60.996414 
L 347.882477 61.265842 
L 348.085717 61.152989 
L 348.492195 61.383619 
L 348.695434 61.388792 
L 349.101912 61.144091 
L 349.71163 61.700434 
L 350.118108 62.032748 
L 350.219728 62.10919 
L 350.422967 62.407891 
L 350.727826 62.391486 
L 350.931065 62.467407 
L 351.337543 61.988531 
L 351.642402 62.068338 
L 351.947261 62.302121 
L 352.1505 61.995843 
L 352.760218 60.462081 
L 352.963457 60.53845 
L 353.776413 61.516788 
L 354.182892 62.053184 
L 354.386131 62.517811 
L 354.487751 62.522326 
L 354.58937 62.373041 
L 354.792609 62.478353 
L 354.995848 61.700316 
L 355.503946 58.197062 
L 355.808805 57.54567 
L 355.910425 57.589702 
L 356.113664 57.973461 
L 356.215283 57.813004 
L 356.926621 55.136918 
L 357.12986 55.799483 
L 357.333099 57.82819 
L 357.536338 59.395441 
L 357.637958 59.364707 
L 358.044436 56.908938 
L 358.146056 55.92176 
L 358.247675 56.793475 
L 358.450914 60.133921 
L 358.755773 50.397342 
L 358.959012 38.085455 
L 359.060632 39.516822 
L 359.46711 52.116161 
L 359.771969 56.616944 
L 360.178447 59.20265 
L 360.381687 60.138392 
L 361.296263 65.790591 
L 362.312459 68.811324 
L 362.617317 69.099833 
L 363.531894 71.282957 
L 364.039992 73.532928 
L 364.243231 73.967453 
L 364.44647 74.160791 
L 364.954568 75.300478 
L 366.478862 77.385209 
L 366.682101 77.553932 
L 366.783721 77.54545 
L 367.393438 78.140767 
L 367.495058 78.119031 
L 367.901536 78.424943 
L 368.104775 78.308336 
L 368.511253 78.586882 
L 368.816112 78.523046 
L 369.32421 75.686707 
L 369.42583 76.064972 
L 369.629069 78.549131 
L 369.832308 83.34385 
L 370.035547 82.119057 
L 370.238786 80.980631 
L 370.340406 81.024068 
L 370.848504 82.12215 
L 371.458221 84.054848 
L 371.76308 84.393714 
L 372.372798 84.535512 
L 372.576037 84.930665 
L 372.982515 85.84615 
L 373.084135 85.756648 
L 373.287374 85.335754 
L 373.693852 85.328775 
L 373.998711 85.985235 
L 374.405189 87.027512 
L 374.710048 88.344919 
L 374.913287 88.653325 
L 375.116527 88.742136 
L 375.319766 88.673302 
L 375.421385 88.71902 
L 375.624625 89.154723 
L 375.929483 89.958752 
L 376.132722 90.210866 
L 376.335962 90.329531 
L 376.539201 90.019705 
L 376.74244 90.157063 
L 377.250538 91.109271 
L 377.453777 91.307474 
L 377.657016 90.700423 
L 378.063495 88.811462 
L 378.266734 88.644571 
L 378.469973 89.06584 
L 378.774832 89.759897 
L 379.18131 90.246241 
L 379.384549 90.118413 
L 379.486169 90.20536 
L 379.791028 90.838641 
L 380.095886 91.065438 
L 381.010463 92.37426 
L 381.315321 92.929266 
L 381.7218 93.517619 
L 381.823419 93.441733 
L 382.128278 93.705406 
L 382.331517 94.091538 
L 382.737996 94.848693 
L 382.941235 95.069538 
L 383.144474 94.991698 
L 383.347713 94.84145 
L 383.550952 95.259254 
L 384.363909 97.230709 
L 384.668768 97.102991 
L 384.872007 97.431716 
L 385.075246 97.461533 
L 385.380105 97.7692 
L 385.583344 97.850975 
L 385.684964 97.790067 
L 386.193062 98.335887 
L 386.802779 99.147162 
L 387.006018 99.020987 
L 387.209257 99.330958 
L 387.412497 99.313859 
L 387.920595 99.828684 
L 388.428692 100.153805 
L 388.631932 100.491638 
L 389.03841 100.615182 
L 389.14003 100.601405 
L 389.546508 100.912815 
L 389.749747 101.009692 
L 390.359465 101.651286 
L 390.461084 101.548078 
L 390.867563 101.911806 
L 391.37566 102.483551 
L 391.5789 102.692022 
L 392.188617 103.269037 
L 392.595096 103.645248 
L 392.899954 103.876381 
L 393.103193 103.983694 
L 393.306433 103.96523 
L 394.01777 104.446599 
L 394.221009 104.711782 
L 394.830726 104.982845 
L 395.440444 105.455732 
L 395.948542 105.413436 
L 396.151781 105.583712 
L 396.253401 105.55317 
L 396.558259 105.825172 
L 396.761499 105.84407 
L 396.964738 105.862824 
L 397.269596 105.936391 
L 397.472836 106.079237 
L 397.676075 106.272486 
L 397.980934 106.154176 
L 398.387412 106.401157 
L 398.79389 107.140135 
L 398.997129 107.021643 
L 399.505227 106.846607 
L 400.419804 107.436769 
L 400.623043 107.383075 
L 400.826282 107.576304 
L 401.029521 107.589142 
L 401.33438 107.904946 
L 401.639239 108.027743 
L 402.045717 108.269168 
L 402.248956 108.293271 
L 402.452195 108.435993 
L 402.655435 108.526629 
L 402.858674 108.742032 
L 403.061913 108.690179 
L 403.265152 108.887015 
L 403.366772 108.888983 
L 403.77325 109.202164 
L 403.976489 109.276892 
L 404.484587 109.555392 
L 405.297544 109.341919 
L 405.602403 109.539165 
L 405.805642 109.806237 
L 406.008881 110.147614 
L 406.21212 110.136667 
L 406.516979 110.377822 
L 406.821838 110.359174 
L 407.329936 110.129796 
L 407.634794 110.447753 
L 407.939653 110.415223 
L 408.447751 110.058581 
L 408.65099 110.214719 
L 408.955849 110.518882 
L 409.362327 110.541251 
L 409.667186 110.623495 
L 410.073664 111.354282 
L 411.19148 111.424735 
L 411.496339 111.55391 
L 411.801197 111.729382 
L 412.106056 111.763057 
L 412.309295 111.607188 
L 412.614154 111.67171 
L 412.817393 111.751629 
L 413.73197 112.307702 
L 413.935209 112.333558 
L 414.138448 112.470889 
L 414.341687 112.420795 
L 414.748165 112.925079 
L 415.053024 112.743815 
L 415.256263 112.795849 
L 415.459503 112.623246 
L 415.764361 112.795137 
L 416.577318 113.502358 
L 417.390275 113.376836 
L 417.593514 113.421318 
L 417.695133 113.450704 
L 418.203231 114.232455 
L 418.711329 114.651613 
L 418.914568 114.913165 
L 419.321047 114.798366 
L 419.524286 114.973078 
L 419.727525 115.094038 
L 419.829145 115.106603 
L 420.134003 115.433776 
L 420.743721 115.316842 
L 421.759917 115.704677 
L 421.963156 115.571049 
L 422.674493 116.196585 
L 422.877732 116.246516 
L 423.995548 117.121282 
L 424.300407 117.484742 
L 424.706885 117.22713 
L 424.808504 117.249406 
L 425.316602 117.854348 
L 426.129559 118.039818 
L 426.332798 117.822878 
L 426.637657 117.992256 
L 427.044135 118.196266 
L 427.755472 118.261528 
L 427.958712 118.484654 
L 428.161951 119.060062 
L 428.46681 119.120781 
L 428.771668 119.16366 
L 429.686245 119.981844 
L 429.889484 119.974793 
L 430.092723 119.754199 
L 430.295962 119.752177 
L 430.70244 119.753966 
L 431.007299 119.904442 
L 431.312158 120.546671 
L 431.617017 120.749121 
L 431.718636 120.671251 
L 431.718636 120.671251 
" clip-path="url(#p7d1b65e895)" style="fill: none; stroke-dasharray: 1.85,0.8; stroke-dashoffset: 0; stroke: #1f77b4; stroke-width: 0.5"/>
   </g>
   <g id="line2d_36">
    <path d="M 66.091364 102.166473 
L 67.00594 104.927187 
L 68.225375 109.387355 
L 71.172343 121.442059 
L 73.001496 128.289237 
L 74.42417 132.794715 
L 75.643605 135.940332 
L 76.86304 138.499532 
L 78.082475 140.576082 
L 79.403529 142.392137 
L 80.724584 143.817383 
L 81.944019 144.820496 
L 83.163454 145.798422 
L 83.569933 146.573027 
L 83.976411 147.877269 
L 84.382889 149.89723 
L 84.890987 153.712145 
L 85.399085 159.299565 
L 86.008803 168.855904 
L 86.61852 182.104996 
L 87.533096 207.896218 
L 89.260629 257.362686 
L 89.870347 269.071248 
L 90.276825 273.74669 
L 90.581684 275.23993 
L 90.683304 275.327067 
L 90.784923 275.219717 
L 90.988162 274.454026 
L 91.293021 272.049753 
L 91.699499 266.840903 
L 92.309217 255.79028 
L 94.849707 204.576639 
L 95.357805 199.730609 
L 95.764283 197.427838 
L 96.170761 196.284683 
L 96.47562 196.055302 
L 96.678859 196.149596 
L 96.983718 196.592764 
L 97.491816 197.90565 
L 98.91449 202.046896 
L 99.422588 202.686864 
L 99.829066 202.835771 
L 100.235545 202.698955 
L 100.642023 202.31057 
L 101.150121 201.523355 
L 101.861458 199.977559 
L 102.979274 196.907148 
L 105.214904 190.667046 
L 106.027861 189.036624 
L 106.637579 188.241531 
L 107.247296 187.839746 
L 107.755394 187.469752 
L 108.161873 186.869762 
L 108.568351 185.783104 
L 108.974829 184.009977 
L 109.482927 180.523836 
L 109.991025 175.26266 
L 110.600743 166.05675 
L 111.21046 153.15685 
L 112.226656 125.609972 
L 113.954189 78.328256 
L 114.665526 65.082939 
L 115.072004 60.509989 
L 115.478483 58.258059 
L 115.681722 57.896719 
L 115.884961 57.986277 
L 116.0882 58.482598 
L 116.393059 59.893207 
L 116.901157 63.652752 
L 117.714114 71.800102 
L 118.831929 82.674998 
L 119.340027 85.800647 
L 119.746505 87.272967 
L 120.152984 87.958078 
L 120.457842 88.025685 
L 120.762701 87.765653 
L 121.16918 86.994594 
L 121.778897 85.16633 
L 124.624246 75.502219 
L 127.876072 66.548565 
L 129.197127 62.708207 
L 129.908464 61.271061 
L 130.416562 60.707516 
L 130.82304 60.608458 
L 131.127899 60.771738 
L 131.534377 61.326425 
L 132.042475 62.473191 
L 132.855432 65.012933 
L 134.786204 71.337559 
L 135.294302 72.325524 
L 135.8024 72.829424 
L 136.208878 72.959701 
L 136.716976 72.896422 
L 138.24127 72.512568 
L 138.647748 72.693804 
L 139.054227 73.128717 
L 139.460705 73.884676 
L 140.070423 75.560136 
L 142.102814 81.741755 
L 142.509293 82.325541 
L 142.814152 82.47048 
L 143.11901 82.316692 
L 143.423869 81.821275 
L 143.830347 80.652989 
L 144.541685 77.787787 
L 145.55788 73.848167 
L 145.964359 72.970339 
L 146.269217 72.770272 
L 146.472457 72.904684 
L 146.777315 73.574052 
L 147.082174 74.883999 
L 147.488653 77.781207 
L 147.99675 83.265831 
L 148.809707 95.028232 
L 150.740479 124.583476 
L 151.350197 130.435803 
L 151.756675 132.51547 
L 152.061534 133.114688 
L 152.264773 133.108839 
L 152.468012 132.811128 
L 152.772871 131.878065 
L 153.179349 129.87165 
L 153.789067 125.679725 
L 155.821459 110.469599 
L 156.431176 107.9763 
L 156.939274 106.835702 
L 157.244133 106.534198 
L 157.548992 106.504463 
L 157.85385 106.733921 
L 158.260329 107.421317 
L 158.768427 108.851689 
L 159.378144 111.32893 
L 160.191101 115.683633 
L 161.512155 122.712105 
L 162.020253 124.393016 
L 162.325112 124.911898 
L 162.528351 125.010728 
L 162.731591 124.88777 
L 163.036449 124.242264 
L 163.341308 122.981464 
L 163.747786 120.222696 
L 164.255884 115.077767 
L 165.170461 102.878299 
L 166.491515 85.119591 
L 167.101233 79.569021 
L 167.507711 77.575306 
L 167.71095 77.212273 
L 167.81257 77.20698 
L 168.015809 77.531971 
L 168.320668 78.776126 
L 168.727146 81.617057 
L 169.336864 87.698328 
L 171.267636 108.769413 
L 171.674114 111.117536 
L 171.978973 111.9121 
L 172.182212 111.971789 
L 172.385451 111.690405 
L 172.69031 110.694326 
L 173.096788 108.451986 
L 173.706506 103.616075 
L 176.246996 81.315307 
L 176.755093 79.203378 
L 177.263191 77.888535 
L 177.771289 77.126069 
L 178.482626 76.520677 
L 179.193964 75.846821 
L 179.600442 75.172608 
L 180.10854 73.803764 
L 180.819877 70.995745 
L 182.039312 66.074764 
L 182.54741 64.872548 
L 182.852269 64.59969 
L 183.055508 64.648185 
L 183.258747 64.905382 
L 183.563606 65.728207 
L 183.970084 67.750813 
L 184.478182 71.870492 
L 185.189519 79.878455 
L 187.628389 109.577214 
L 188.136487 112.771321 
L 188.441346 113.747923 
L 188.746205 114.061184 
L 188.949444 113.929245 
L 189.254303 113.261779 
L 189.660781 111.582707 
L 190.168879 108.4029 
L 190.880216 102.399437 
L 192.099651 89.793503 
L 193.928804 71.233032 
L 194.944999 63.12144 
L 195.656337 59.035271 
L 196.164435 57.127474 
L 196.570913 56.272715 
L 196.977391 55.937578 
L 197.28225 55.963859 
L 197.688728 56.284588 
L 198.298446 57.163899 
L 199.517881 59.052528 
L 199.924359 59.334348 
L 200.229218 59.322163 
L 200.534077 59.080408 
L 200.940555 58.439665 
L 201.550273 56.953569 
L 202.566468 53.722197 
L 203.684284 50.33624 
L 204.294001 49.119227 
L 204.70048 48.70527 
L 205.106958 48.59294 
L 205.513437 48.737814 
L 206.021534 49.212925 
L 206.732872 50.271434 
L 209.273361 54.484516 
L 210.289557 55.506772 
L 213.134906 58.126452 
L 214.354341 59.749074 
L 216.081874 62.452777 
L 218.622363 66.439719 
L 219.536939 67.415146 
L 220.248277 67.840852 
L 220.756375 67.92196 
L 221.366092 67.782484 
L 222.179049 67.337708 
L 223.906582 66.328047 
L 224.516299 66.248688 
L 225.024397 66.392845 
L 225.634115 66.799913 
L 226.447071 67.627088 
L 229.394039 70.930972 
L 230.410235 71.549782 
L 234.17016 73.518033 
L 237.117128 75.490512 
L 238.438183 76.021937 
L 239.860857 76.35153 
L 242.909444 76.943606 
L 243.620781 77.462228 
L 244.230499 78.171283 
L 244.941836 79.390001 
L 245.754793 81.33153 
L 248.193663 87.542915 
L 248.80338 88.381159 
L 249.209859 88.62252 
L 249.616337 88.603618 
L 250.124435 88.283752 
L 250.734153 87.586913 
L 253.071403 84.535352 
L 253.579501 84.353478 
L 254.087599 84.411912 
L 254.697316 84.72852 
L 255.510273 85.426427 
L 257.542665 87.280052 
L 258.355622 87.663329 
L 259.270198 87.861872 
L 260.489633 87.882716 
L 264.046318 87.804954 
L 265.468993 88.041727 
L 266.891667 88.527884 
L 268.51758 89.337235 
L 270.651592 90.67069 
L 273.293701 92.285757 
L 275.021234 93.044007 
L 277.968202 94.290753 
L 280.203833 95.594157 
L 282.845942 97.077366 
L 284.370236 97.6894 
L 285.69129 97.992523 
L 287.418823 98.103467 
L 288.943117 98.271836 
L 289.959313 98.607302 
L 291.178748 99.295571 
L 294.125716 101.1013 
L 295.751629 101.668043 
L 297.377543 102.284972 
L 298.495358 102.960721 
L 300.222891 104.040937 
L 300.934228 104.24922 
L 301.543946 104.217973 
L 302.153663 103.936858 
L 302.865001 103.302897 
L 303.779577 102.156217 
L 306.421686 98.631508 
L 307.336262 97.871596 
L 308.250839 97.371105 
L 309.267034 97.062399 
L 310.48647 96.947687 
L 314.449633 96.834954 
L 315.872308 96.340585 
L 318.311178 95.462173 
L 320.038711 94.964149 
L 320.750048 94.495872 
L 321.359765 93.851767 
L 321.969483 92.913152 
L 322.68082 91.380747 
L 325.01807 85.837352 
L 325.526168 85.252908 
L 325.932647 85.115297 
L 326.237505 85.24182 
L 326.643984 85.739188 
L 327.152082 86.780189 
L 328.066658 89.287038 
L 329.082854 91.939363 
L 329.590952 92.783662 
L 329.99743 93.064658 
L 330.302289 92.985205 
L 330.607148 92.624051 
L 331.013626 91.73837 
L 331.521724 90.077366 
L 332.233061 86.955976 
L 333.452496 80.413356 
L 334.97679 72.516165 
L 336.094605 68.007709 
L 337.110801 64.815345 
L 338.025377 62.605519 
L 338.939954 60.957755 
L 339.75291 59.908265 
L 340.565867 59.194123 
L 341.378824 58.761991 
L 342.2934 58.546521 
L 343.309596 58.561651 
L 344.325792 58.807402 
L 345.443607 59.325823 
L 346.663042 60.164689 
L 349.508391 62.337289 
L 350.219728 62.564996 
L 350.829445 62.554024 
L 351.642402 62.280228 
L 352.963457 61.812215 
L 353.573174 61.850407 
L 354.081272 62.118021 
L 354.58937 62.668564 
L 355.097468 63.554495 
L 355.808805 65.268712 
L 357.12986 69.194987 
L 358.349295 72.60674 
L 359.060632 74.032701 
L 359.670349 74.820435 
L 360.280067 75.281549 
L 360.889784 75.494322 
L 361.702741 75.527009 
L 363.735133 75.476195 
L 364.54809 75.752323 
L 365.259427 76.223859 
L 365.970764 76.957804 
L 366.682101 77.999797 
L 367.495058 79.607875 
L 368.816112 82.827217 
L 370.442026 86.687888 
L 371.254982 88.109685 
L 371.966319 88.957525 
L 372.779276 89.565577 
L 373.592233 89.900006 
L 374.913287 90.159299 
L 376.539201 90.537145 
L 377.860255 91.070896 
L 379.07969 91.815171 
L 380.299126 92.832875 
L 382.331517 94.877843 
L 384.872007 97.368975 
L 387.310877 99.437857 
L 392.493476 103.403468 
L 394.729107 104.988244 
L 396.151781 105.72284 
L 398.285792 106.511441 
L 400.216565 107.311056 
L 406.008881 110.031435 
L 408.75261 110.852865 
L 413.833589 112.316927 
L 415.764361 113.138179 
L 420.438862 115.366821 
L 422.674493 116.134107 
L 423.690689 116.764139 
L 424.706885 117.70494 
L 427.145755 120.131127 
L 427.857092 120.529473 
L 428.568429 120.664539 
L 429.381386 120.55456 
L 430.499201 120.124395 
L 431.718636 119.572457 
L 431.718636 119.572457 
" clip-path="url(#p7d1b65e895)" style="fill: none; stroke: #ff7f0e; stroke-width: 0.5; stroke-linecap: square"/>
   </g>
   <g id="line2d_37">
    <path d="M 66.091364 290.994545 
L 66.192983 290.994545 
L 66.396222 290.696793 
L 66.802701 290.689324 
L 68.530234 290.94856 
L 69.139951 290.910687 
L 69.749669 290.377008 
L 69.952908 290.361869 
L 70.257767 289.870104 
L 70.664245 289.037139 
L 70.867484 288.973793 
L 71.477202 287.706441 
L 71.78206 287.04134 
L 72.086919 286.810727 
L 72.493398 285.800687 
L 72.696637 286.135548 
L 73.814452 289.413577 
L 73.916072 289.412163 
L 74.220931 289.132551 
L 74.42417 289.123004 
L 75.033887 289.549923 
L 75.541985 289.342671 
L 75.846844 289.579214 
L 75.948464 289.393875 
L 76.253322 288.322221 
L 76.456561 288.405101 
L 77.574377 290.089859 
L 77.777616 289.638472 
L 77.980855 289.273163 
L 78.184094 289.300051 
L 78.997051 289.748467 
L 79.20029 289.740447 
L 79.606769 289.806799 
L 79.911627 289.887588 
L 80.216486 289.766626 
L 80.622965 290.061777 
L 81.334302 290.565676 
L 81.537541 290.598543 
L 81.8424 290.324447 
L 82.147258 290.375596 
L 82.350497 290.417333 
L 82.553737 289.990732 
L 83.061835 288.522416 
L 83.265074 288.689985 
L 83.468313 288.879469 
L 83.773172 288.218866 
L 84.07803 287.299529 
L 84.586128 285.705966 
L 85.094226 282.005785 
L 85.602324 276.196476 
L 86.110422 268.005906 
L 86.923379 249.972892 
L 87.533096 232.113311 
L 87.837955 218.33801 
L 88.041194 223.89152 
L 88.549292 245.699358 
L 89.463869 221.028729 
L 89.870347 213.16184 
L 90.276825 208.903501 
L 90.480064 208.103956 
L 90.581684 208.070992 
L 90.683304 208.170102 
L 91.191402 209.882087 
L 91.699499 216.738335 
L 92.410837 230.966451 
L 94.646467 280.310871 
L 95.154565 285.210503 
L 95.662663 287.889397 
L 96.170761 289.331767 
L 96.678859 290.104624 
L 96.983718 290.31094 
L 97.085338 290.146509 
L 97.390196 289.029194 
L 97.796675 288.40304 
L 98.711251 286.976847 
L 98.91449 286.965262 
L 99.01611 287.003263 
L 99.219349 286.808325 
L 99.422588 287.106878 
L 100.540404 289.769636 
L 101.048501 290.332112 
L 101.45498 290.591766 
L 101.556599 290.070072 
L 101.759839 282.677635 
L 101.963078 276.864488 
L 102.369556 274.591072 
L 102.471176 274.589146 
L 102.572795 274.464195 
L 102.674415 274.568758 
L 103.385752 277.179253 
L 104.300328 281.85357 
L 104.808426 283.285146 
L 105.113285 283.995473 
L 105.214904 283.97278 
L 105.418144 284.455552 
L 106.2311 287.637362 
L 106.637579 288.374216 
L 108.060253 290.401534 
L 108.66997 290.71276 
L 108.77159 290.745561 
L 108.87321 290.547985 
L 108.974829 283.079244 
L 109.482927 196.681691 
L 109.787786 177.344678 
L 110.092645 172.497967 
L 110.295884 170.770751 
L 110.702362 173.23312 
L 111.21046 185.061085 
L 111.718558 199.321216 
L 111.921797 201.642221 
L 112.328276 214.557162 
L 113.242852 251.37822 
L 113.75095 260.697844 
L 114.055809 263.036281 
L 115.275244 279.138302 
L 115.376863 279.106836 
L 115.478483 279.162683 
L 115.783342 279.984238 
L 116.18982 282.942842 
L 116.799537 286.881038 
L 117.206016 288.281892 
L 117.307635 287.023956 
L 117.510874 279.312306 
L 117.815733 266.758684 
L 118.425451 258.32693 
L 118.73031 256.769487 
L 119.340027 254.607372 
L 119.543266 254.409911 
L 119.949745 254.097509 
L 120.152984 254.415152 
L 120.356223 256.705758 
L 120.661082 259.774428 
L 120.864321 260.492794 
L 120.96594 260.430364 
L 121.16918 259.323471 
L 121.474038 260.002699 
L 121.575658 259.844492 
L 121.778897 258.719006 
L 121.880517 258.92907 
L 122.896713 263.82673 
L 122.998332 263.695627 
L 123.099952 264.123658 
L 123.404811 268.889481 
L 124.116148 280.597973 
L 124.319387 281.446691 
L 124.421006 281.232193 
L 124.522626 281.337587 
L 124.725865 281.98929 
L 125.030724 280.915006 
L 125.233963 281.570849 
L 125.437202 282.573802 
L 125.538822 282.480365 
L 125.843681 280.530662 
L 125.9453 280.643486 
L 126.250159 282.419127 
L 126.453398 283.364308 
L 126.758257 281.871111 
L 126.859876 281.63046 
L 127.164735 280.506616 
L 127.266355 280.64879 
L 129.197127 288.92858 
L 129.705225 289.880338 
L 130.213323 290.395109 
L 130.314942 290.367451 
L 130.619801 289.933949 
L 130.82304 289.897712 
L 130.92466 289.126919 
L 131.229519 284.850992 
L 131.331138 284.563673 
L 131.534377 284.612434 
L 131.839236 283.79117 
L 131.940856 283.813158 
L 132.042475 283.526469 
L 132.448954 279.621226 
L 132.550573 279.110589 
L 132.753812 277.240861 
L 132.855432 277.257994 
L 133.058671 278.53776 
L 133.770008 284.294187 
L 134.278106 280.320151 
L 134.786204 277.486638 
L 134.887824 277.319959 
L 135.395922 278.08983 
L 135.599161 278.009962 
L 135.70078 277.907809 
L 135.8024 277.990554 
L 136.005639 278.319062 
L 136.107259 278.278107 
L 136.615357 279.58019 
L 136.716976 279.512091 
L 136.920216 280.140664 
L 137.225074 281.665915 
L 137.631553 283.922982 
L 137.936411 284.685503 
L 138.038031 284.907451 
L 138.139651 284.647077 
L 138.444509 283.093474 
L 138.647748 283.696895 
L 139.562325 288.085938 
L 139.663944 287.539234 
L 140.375281 274.439985 
L 140.476901 274.258288 
L 140.578521 274.475638 
L 140.883379 276.953626 
L 140.984999 276.753248 
L 141.188238 275.66765 
L 141.289858 275.589843 
L 141.391477 275.36955 
L 141.493097 274.627008 
L 141.797956 270.496697 
L 142.102814 270.086727 
L 142.407673 268.639334 
L 142.610912 270.448659 
L 143.423869 280.933951 
L 143.728728 278.083697 
L 144.033587 279.122528 
L 144.236826 279.980969 
L 144.744924 282.793128 
L 145.049782 284.253904 
L 145.76112 287.821609 
L 146.065978 288.62085 
L 146.472457 287.882848 
L 146.574076 287.909395 
L 146.777315 287.221759 
L 147.285413 284.725562 
L 147.691892 278.984677 
L 148.09837 274.5493 
L 148.301609 275.914725 
L 148.708088 279.644817 
L 149.317805 273.186327 
L 149.622664 267.287033 
L 149.927523 251.116245 
L 150.029142 250.934784 
L 150.232381 254.442211 
L 150.53724 261.43242 
L 150.740479 260.625444 
L 150.842099 260.706062 
L 151.451816 259.073473 
L 151.553436 257.472954 
L 151.959914 240.103332 
L 152.163154 238.29588 
L 152.468012 233.764381 
L 152.671251 234.438932 
L 152.97611 236.144493 
L 153.382589 238.41067 
L 153.484208 238.747321 
L 153.992306 243.556499 
L 154.398784 249.466148 
L 154.602024 249.586835 
L 154.805263 252.747106 
L 155.618219 272.743727 
L 155.821459 266.058147 
L 156.024698 261.908575 
L 156.126317 262.01458 
L 156.227937 261.740796 
L 156.532796 260.057023 
L 156.634415 260.017862 
L 156.736035 259.792131 
L 156.939274 258.7617 
L 157.244133 258.107393 
L 157.345752 258.299847 
L 157.548992 259.423048 
L 157.650611 259.350526 
L 158.260329 251.132317 
L 158.463568 250.635721 
L 158.870046 248.466801 
L 159.073285 248.051386 
L 159.479764 246.871263 
L 159.581383 246.773531 
L 159.784623 249.045007 
L 159.987862 250.193439 
L 160.191101 249.253517 
L 160.29272 248.897564 
L 160.49596 246.146927 
L 160.597579 247.121946 
L 160.902438 255.222417 
L 161.410536 268.767305 
L 161.512155 265.265494 
L 161.817014 246.030712 
L 162.121873 240.361563 
L 162.325112 239.306189 
L 162.629971 239.521877 
L 162.83321 239.782254 
L 163.036449 241.040495 
L 163.341308 242.972324 
L 163.849406 245.584921 
L 164.357504 251.315947 
L 166.085037 275.739765 
L 166.593135 282.406069 
L 166.999613 285.290428 
L 167.71095 288.310053 
L 168.219048 289.531383 
L 168.320668 289.565298 
L 168.523907 288.124294 
L 169.438483 280.397637 
L 169.844962 274.081637 
L 171.470875 258.171731 
L 171.572495 258.90934 
L 171.877353 264.861802 
L 172.385451 275.189528 
L 172.487071 274.502007 
L 172.79193 267.83498 
L 172.893549 268.13332 
L 174.112984 277.569351 
L 174.316223 278.379499 
L 175.738898 288.139961 
L 175.840517 288.323179 
L 176.145376 288.041974 
L 176.348615 288.299763 
L 176.856713 289.085324 
L 177.466431 289.849223 
L 177.56805 289.25053 
L 177.771289 285.644541 
L 178.076148 277.791368 
L 178.177768 277.079408 
L 178.279387 277.103106 
L 178.482626 278.051164 
L 178.685866 277.803495 
L 178.787485 278.054191 
L 179.092344 280.400762 
L 179.803681 285.996296 
L 180.311779 288.261002 
L 180.616638 289.10725 
L 180.718257 289.088205 
L 181.124736 287.815274 
L 181.327975 287.915145 
L 181.429594 287.460159 
L 181.734453 285.065422 
L 181.836073 285.046629 
L 182.039312 285.575289 
L 182.750649 288.297684 
L 182.852269 288.28336 
L 183.055508 285.170413 
L 183.258747 282.85451 
L 183.461986 281.790973 
L 183.665225 280.771787 
L 183.766845 280.956806 
L 184.071704 282.766121 
L 184.376562 284.429098 
L 184.681421 282.218239 
L 185.494378 273.177369 
L 185.900856 265.960611 
L 186.510574 255.789623 
L 186.612193 255.37463 
L 186.815433 256.44029 
L 187.52677 247.247604 
L 188.136487 230.879284 
L 188.238107 231.328202 
L 188.441346 237.250787 
L 189.254303 265.515164 
L 189.457542 260.430978 
L 189.86402 246.302142 
L 189.96564 246.336246 
L 190.168879 248.333256 
L 190.575357 252.04578 
L 190.676977 252.069717 
L 190.880216 249.913175 
L 191.083455 246.973597 
L 191.286694 250.198201 
L 191.591553 257.1541 
L 191.693173 256.485223 
L 191.998031 251.523351 
L 192.810988 257.511524 
L 193.623945 269.655813 
L 194.030423 273.072601 
L 194.132043 273.099144 
L 194.335282 274.770467 
L 194.640141 278.524684 
L 194.74176 278.445318 
L 195.046619 272.443238 
L 195.148239 272.43271 
L 195.351478 274.129308 
L 196.164435 282.88703 
L 196.774152 284.828686 
L 196.875772 284.818619 
L 196.977391 284.667075 
L 197.587109 281.475527 
L 197.688728 281.509484 
L 197.993587 282.774443 
L 198.095207 282.713982 
L 198.298446 282.393344 
L 198.400065 282.407271 
L 198.501685 281.802927 
L 198.806544 276.234933 
L 198.908163 276.026088 
L 199.213022 277.271251 
L 199.6195 270.820479 
L 199.82274 272.400676 
L 200.635696 281.904819 
L 200.838936 282.570486 
L 201.956751 287.874654 
L 202.15999 288.392014 
L 202.26161 287.679651 
L 202.566468 283.768419 
L 202.769708 283.459569 
L 202.871327 283.403968 
L 202.972947 283.531251 
L 203.277806 284.863861 
L 203.989143 288.112654 
L 204.395621 289.131351 
L 205.615056 290.450258 
L 206.021534 290.609907 
L 206.326393 290.387639 
L 206.732872 290.482501 
L 207.647448 290.792119 
L 208.053926 290.694415 
L 208.358785 290.642084 
L 211.407373 290.982247 
L 211.712231 290.871727 
L 212.11871 290.688338 
L 212.423568 290.611325 
L 212.931666 290.005847 
L 213.134906 289.686447 
L 213.338145 289.713988 
L 214.354341 290.47122 
L 214.862438 289.8892 
L 215.268917 289.965338 
L 217.098069 288.988786 
L 217.301309 288.973058 
L 217.606167 288.51897 
L 217.809406 288.714901 
L 218.927222 290.268607 
L 219.028842 290.221272 
L 219.536939 289.175536 
L 219.943418 287.437063 
L 220.248277 287.559644 
L 220.451516 287.266016 
L 220.654755 287.502914 
L 220.959614 287.780774 
L 221.162853 287.852582 
L 221.366092 287.73224 
L 221.569331 287.925195 
L 222.179049 288.88624 
L 222.992005 290.089077 
L 223.601723 290.558813 
L 224.31306 290.812052 
L 225.227636 290.892401 
L 226.243832 290.887708 
L 226.75193 290.315761 
L 226.955169 290.173675 
L 227.260028 290.257982 
L 228.479463 290.794764 
L 229.597279 290.943437 
L 229.902137 290.959287 
L 230.003757 290.842288 
L 230.308616 290.084679 
L 230.613474 290.009169 
L 231.019953 290.20334 
L 231.934529 290.701929 
L 232.849105 290.897729 
L 234.576638 290.982671 
L 235.389595 290.886266 
L 235.694454 290.722191 
L 236.812269 290.754242 
L 238.946281 290.970079 
L 239.14952 290.734575 
L 239.454378 290.446083 
L 239.860857 290.526371 
L 240.572194 290.695162 
L 240.978672 290.140446 
L 241.283531 290.223917 
L 242.401346 290.75815 
L 243.417542 290.925703 
L 243.92564 290.850037 
L 244.230499 290.610269 
L 244.840217 289.71577 
L 245.348314 288.787815 
L 245.653173 288.217361 
L 245.958032 287.571439 
L 246.161271 287.259376 
L 246.262891 287.122449 
L 246.56775 286.332663 
L 246.770989 286.720783 
L 247.583945 289.091097 
L 247.685565 288.753364 
L 248.295282 280.44972 
L 248.498522 280.21433 
L 248.80338 280.523549 
L 248.905 280.637074 
L 249.311478 280.420399 
L 249.514718 280.730624 
L 249.921196 282.021186 
L 250.632533 284.177904 
L 250.835772 284.69054 
L 251.44549 286.503243 
L 252.258446 288.459714 
L 252.766544 289.567954 
L 253.274642 290.219701 
L 253.88436 290.626948 
L 254.697316 290.859188 
L 255.713512 290.935426 
L 256.424849 290.727226 
L 257.034567 290.459129 
L 257.339426 290.39915 
L 258.152382 290.47994 
L 259.066959 290.807465 
L 259.778296 290.915234 
L 259.879915 290.819211 
L 260.286394 289.853539 
L 260.489633 289.862471 
L 261.607448 290.510573 
L 261.912307 289.113052 
L 262.217166 288.169691 
L 262.420405 288.162365 
L 262.725264 288.670193 
L 263.436601 289.900452 
L 264.046318 290.467161 
L 264.757656 290.773665 
L 265.265753 290.810899 
L 265.773851 289.888769 
L 265.977091 289.533356 
L 266.18033 289.563024 
L 266.688428 289.880445 
L 266.891667 289.893351 
L 268.6192 290.756478 
L 269.635396 290.924782 
L 270.143494 290.912859 
L 270.753211 290.176974 
L 271.05807 289.777669 
L 271.566168 289.727195 
L 272.277505 290.197754 
L 275.122853 290.943022 
L 276.647147 290.966049 
L 277.155245 290.763821 
L 278.37468 290.913287 
L 280.610311 290.988287 
L 282.439464 290.993499 
L 282.541083 290.826211 
L 282.947562 289.501318 
L 283.25242 289.000902 
L 283.455659 289.088919 
L 284.776714 290.451506 
L 285.488051 290.762546 
L 286.504247 290.918125 
L 288.435019 290.963377 
L 288.638258 290.512783 
L 288.841498 290.115489 
L 289.044737 290.05116 
L 289.654454 290.335055 
L 290.569031 290.684411 
L 291.585226 290.899997 
L 291.890085 290.849885 
L 292.194944 290.669429 
L 292.703042 290.730825 
L 294.024096 290.935025 
L 296.462967 290.991285 
L 298.393739 290.890842 
L 298.901837 290.857535 
L 299.206695 290.787641 
L 299.511554 290.537284 
L 300.019652 290.586452 
L 300.324511 290.541938 
L 300.62937 290.497472 
L 301.950424 290.742131 
L 302.356903 289.543227 
L 302.560142 289.551685 
L 303.169859 290.12811 
L 303.779577 290.564244 
L 303.881196 290.613529 
L 303.982816 290.265136 
L 304.389294 287.061128 
L 304.694153 286.222311 
L 304.999012 286.575509 
L 305.202251 283.681348 
L 305.50711 280.230271 
L 305.608729 280.226638 
L 305.811969 281.21269 
L 306.523306 285.673115 
L 306.624925 285.604942 
L 307.031404 285.035229 
L 307.437882 286.188472 
L 309.165415 290.073416 
L 309.673513 290.498992 
L 309.775132 290.503428 
L 309.978372 289.952738 
L 310.181611 288.29292 
L 310.48647 285.931312 
L 310.791328 284.840327 
L 311.096187 281.86609 
L 311.401046 279.220585 
L 311.502665 279.106599 
L 311.604285 279.243442 
L 312.315622 281.4461 
L 312.92534 282.289277 
L 313.128579 282.543432 
L 313.433438 283.009969 
L 313.535057 282.756974 
L 314.144775 279.216617 
L 314.348014 277.708683 
L 314.449633 277.941057 
L 314.754492 280.284485 
L 315.059351 282.847492 
L 315.16097 281.126906 
L 315.465829 269.472613 
L 315.567449 268.93906 
L 315.669068 269.170239 
L 315.770688 269.04842 
L 316.177166 266.733751 
L 316.482025 268.934548 
L 317.599841 282.309536 
L 317.904699 283.77413 
L 318.514417 286.98554 
L 319.428993 289.371586 
L 319.937091 290.10904 
L 320.546809 290.573813 
L 321.054907 290.769022 
L 321.156526 290.265237 
L 321.461385 286.969226 
L 321.664624 286.68917 
L 321.867863 286.674916 
L 322.071102 285.825193 
L 322.274342 285.28962 
L 322.375961 285.189692 
L 322.884059 283.528119 
L 323.087298 284.166649 
L 323.798635 287.311375 
L 324.205114 288.273504 
L 324.814831 289.59909 
L 325.322929 290.234923 
L 325.526168 290.335977 
L 325.831027 290.100884 
L 326.135886 290.204519 
L 326.542364 290.342595 
L 326.948843 290.122035 
L 327.253701 289.539992 
L 327.355321 289.450564 
L 327.863419 288.469461 
L 327.965038 288.522868 
L 328.168278 288.23778 
L 328.269897 288.026754 
L 328.473136 286.410488 
L 328.981234 282.651136 
L 329.082854 282.45 
L 329.184473 282.630908 
L 329.489332 284.16938 
L 330.200669 287.799484 
L 330.505528 288.687631 
L 330.607148 288.659208 
L 330.912006 288.25998 
L 331.420104 284.717997 
L 331.521724 284.907765 
L 331.623344 284.532282 
L 331.928202 281.339619 
L 332.029822 281.393064 
L 332.233061 282.32786 
L 332.53792 283.897226 
L 332.944398 279.968424 
L 333.046018 280.18789 
L 333.452496 282.280822 
L 333.858974 278.95085 
L 333.960594 278.902376 
L 334.163833 279.948136 
L 335.078409 286.64062 
L 335.180029 286.987408 
L 335.281649 286.937446 
L 335.484888 285.61009 
L 335.688127 284.457503 
L 335.891366 283.748635 
L 336.094605 282.06878 
L 336.602703 277.064726 
L 336.704323 276.918547 
L 337.009182 277.171841 
L 337.110801 276.772895 
L 337.51728 273.770508 
L 337.618899 273.666566 
L 337.720519 274.046845 
L 338.126997 278.229284 
L 338.838334 284.899245 
L 339.346432 287.66581 
L 339.75291 288.965324 
L 339.95615 289.157694 
L 340.565867 289.231484 
L 340.972345 289.575049 
L 341.073965 289.090944 
L 341.277204 285.122181 
L 341.683683 274.752096 
L 341.785302 273.828924 
L 341.886922 273.873016 
L 342.090161 275.49018 
L 343.004737 284.938698 
L 343.207976 285.60192 
L 343.411216 285.586749 
L 343.716074 286.459965 
L 344.224172 287.971992 
L 344.427411 288.139817 
L 344.630651 288.057237 
L 344.83389 288.299605 
L 345.850086 290.02014 
L 346.663042 290.286216 
L 347.475999 290.709683 
L 348.187336 290.834707 
L 348.593814 290.687104 
L 349.305152 290.075061 
L 351.134304 290.818848 
L 352.1505 290.881918 
L 352.353739 290.305385 
L 352.556978 289.841836 
L 352.760218 289.797698 
L 353.166696 290.085144 
L 353.979653 290.623778 
L 354.58937 290.774314 
L 354.792609 290.507016 
L 354.995848 289.377091 
L 355.605566 284.247167 
L 355.910425 283.07384 
L 356.113664 282.879754 
L 356.316903 281.737875 
L 356.926621 277.605472 
L 357.02824 277.483598 
L 357.12986 277.643913 
L 357.536338 280.073231 
L 357.841197 278.367181 
L 358.146056 275.665521 
L 358.247675 276.007143 
L 358.450914 277.409028 
L 358.552534 276.295016 
L 358.959012 259.189299 
L 359.060632 259.312181 
L 359.263871 262.34486 
L 359.873589 273.497738 
L 360.483306 276.492654 
L 361.194643 280.939867 
L 362.312459 284.376106 
L 362.617317 284.713828 
L 363.328655 286.401058 
L 364.243231 289.222965 
L 364.751329 290.032733 
L 365.259427 290.477706 
L 365.970764 290.778651 
L 366.275623 290.785964 
L 366.580481 290.701739 
L 367.901536 288.896339 
L 368.308014 287.98892 
L 368.714493 287.241565 
L 368.816112 286.750089 
L 369.120971 283.694904 
L 369.222591 283.644606 
L 369.42583 284.271604 
L 370.035547 286.93031 
L 370.442026 285.532829 
L 370.645265 285.469735 
L 370.746884 285.475612 
L 371.458221 286.704248 
L 371.76308 286.669881 
L 372.372798 286.268634 
L 372.576037 286.525747 
L 372.880896 287.244293 
L 372.982515 287.221034 
L 373.592233 286.455522 
L 373.795472 286.542655 
L 374.100331 287.285208 
L 374.811668 289.231726 
L 375.116527 289.567803 
L 376.234342 290.548595 
L 376.945679 290.806432 
L 377.555397 290.905409 
L 377.657016 290.706639 
L 378.165114 288.480514 
L 378.368353 288.556431 
L 379.07969 289.417642 
L 379.486169 289.205367 
L 379.892647 289.479776 
L 380.400745 289.502051 
L 380.603984 289.540008 
L 381.7218 290.247675 
L 381.925039 290.110003 
L 382.229898 290.21068 
L 382.839615 290.515817 
L 383.246094 290.37804 
L 385.380105 290.916635 
L 385.888203 290.834241 
L 388.733551 290.94445 
L 390.359465 290.854582 
L 392.086998 290.975929 
L 395.542064 290.941056 
L 395.948542 290.85163 
L 404.484587 290.993579 
L 405.399163 290.783878 
L 406.821838 290.949675 
L 408.041273 290.715666 
L 408.346131 290.395142 
L 408.65099 290.427573 
L 410.073664 290.854274 
L 411.496339 290.969494 
L 415.053024 290.986069 
L 415.9676 290.791564 
L 416.678938 290.86386 
L 417.390275 290.459506 
L 417.999992 290.647366 
L 419.016188 290.887206 
L 420.438862 290.950134 
L 421.251819 290.946539 
L 424.402026 290.976279 
L 425.113363 290.506952 
L 425.519842 290.38671 
L 426.02794 289.954373 
L 426.536037 289.374094 
L 427.755472 288.81529 
L 428.46681 289.44149 
L 428.670049 289.528333 
L 429.991103 290.626232 
L 430.80406 290.857948 
L 431.718636 290.950155 
L 431.718636 290.950155 
" clip-path="url(#p7d1b65e895)" style="fill: none; stroke: #2ca02c; stroke-width: 0.5; stroke-linecap: square"/>
   </g>
   <g id="patch_3">
    <path d="M 47.81 303.64 
L 47.81 25.44 
" style="fill: none; stroke: #000000; stroke-width: 0.8; stroke-linejoin: miter; stroke-linecap: square"/>
   </g>
   <g id="patch_4">
    <path d="M 450 303.64 
L 450 25.44 
" style="fill: none; stroke: #000000; stroke-width: 0.8; stroke-linejoin: miter; stroke-linecap: square"/>
   </g>
   <g id="patch_5">
    <path d="M 47.81 303.64 
L 450 303.64 
" style="fill: none; stroke: #000000; stroke-width: 0.8; stroke-linejoin: miter; stroke-linecap: square"/>
   </g>
   <g id="patch_6">
    <path d="M 47.81 25.44 
L 450 25.44 
" style="fill: none; stroke: #000000; stroke-width: 0.8; stroke-linejoin: miter; stroke-linecap: square"/>
   </g>
   <g id="text_20">
    <!-- cvxEDA (σ=0.2s  data_9_E4) -->
    <g transform="translate(163.25125 19.44) scale(0.12 -0.12)">
     <defs>
      <path id="DejaVuSans-63" d="M 3122 3366 
L 3122 2828 
Q 2878 2963 2633 3030 
Q 2388 3097 2138 3097 
Q 1578 3097 1268 2742 
Q 959 2388 959 1747 
Q 959 1106 1268 751 
Q 1578 397 2138 397 
Q 2388 397 2633 464 
Q 2878 531 3122 666 
L 3122 134 
Q 2881 22 2623 -34 
Q 2366 -91 2075 -91 
Q 1284 -91 818 406 
Q 353 903 353 1747 
Q 353 2603 823 3093 
Q 1294 3584 2113 3584 
Q 2378 3584 2631 3529 
Q 2884 3475 3122 3366 
z
" transform="scale(0.015625)"/>
      <path id="DejaVuSans-76" d="M 191 3500 
L 800 3500 
L 1894 563 
L 2988 3500 
L 3597 3500 
L 2284 0 
L 1503 0 
L 191 3500 
z
" transform="scale(0.015625)"/>
      <path id="DejaVuSans-78" d="M 3513 3500 
L 2247 1797 
L 3578 0 
L 2900 0 
L 1881 1375 
L 863 0 
L 184 0 
L 1544 1831 
L 300 3500 
L 978 3500 
L 1906 2253 
L 2834 3500 
L 3513 3500 
z
" transform="scale(0.015625)"/>
      <path id="DejaVuSans-3c3" d="M 1959 3044 
Q 1484 3044 1228 2700 
Q 959 2341 959 1747 
Q 959 1119 1226 758 
Q 1494 397 1959 397 
Q 2419 397 2687 759 
Q 2956 1122 2956 1747 
Q 2956 2319 2688 2700 
Q 2441 3044 1959 3044 
z
M 1959 3500 
L 3869 3500 
L 3869 2925 
L 3225 2925 
Q 3566 2438 3566 1747 
Q 3566 888 3138 400 
Q 2709 -91 1959 -91 
Q 1206 -91 781 400 
Q 353 888 353 1747 
Q 353 2613 781 3097 
Q 1134 3500 1959 3500 
z
" transform="scale(0.015625)"/>
      <path id="DejaVuSans-3d" d="M 678 2906 
L 4684 2906 
L 4684 2381 
L 678 2381 
L 678 2906 
z
M 678 1631 
L 4684 1631 
L 4684 1100 
L 678 1100 
L 678 1631 
z
" transform="scale(0.015625)"/>
      <path id="DejaVuSans-64" d="M 2906 2969 
L 2906 4863 
L 3481 4863 
L 3481 0 
L 2906 0 
L 2906 525 
Q 2725 213 2448 61 
Q 2172 -91 1784 -91 
Q 1150 -91 751 415 
Q 353 922 353 1747 
Q 353 2572 751 3078 
Q 1150 3584 1784 3584 
Q 2172 3584 2448 3432 
Q 2725 3281 2906 2969 
z
M 947 1747 
Q 947 1113 1208 752 
Q 1469 391 1925 391 
Q 2381 391 2643 752 
Q 2906 1113 2906 1747 
Q 2906 2381 2643 2742 
Q 2381 3103 1925 3103 
Q 1469 3103 1208 2742 
Q 947 2381 947 1747 
z
" transform="scale(0.015625)"/>
      <path id="DejaVuSans-5f" d="M 3263 -1063 
L 3263 -1509 
L -63 -1509 
L -63 -1063 
L 3263 -1063 
z
" transform="scale(0.015625)"/>
      <path id="DejaVuSans-39" d="M 703 97 
L 703 672 
Q 941 559 1184 500 
Q 1428 441 1663 441 
Q 2288 441 2617 861 
Q 2947 1281 2994 2138 
Q 2813 1869 2534 1725 
Q 2256 1581 1919 1581 
Q 1219 1581 811 2004 
Q 403 2428 403 3163 
Q 403 3881 828 4315 
Q 1253 4750 1959 4750 
Q 2769 4750 3195 4129 
Q 3622 3509 3622 2328 
Q 3622 1225 3098 567 
Q 2575 -91 1691 -91 
Q 1453 -91 1209 -44 
Q 966 3 703 97 
z
M 1959 2075 
Q 2384 2075 2632 2365 
Q 2881 2656 2881 3163 
Q 2881 3666 2632 3958 
Q 2384 4250 1959 4250 
Q 1534 4250 1286 3958 
Q 1038 3666 1038 3163 
Q 1038 2656 1286 2365 
Q 1534 2075 1959 2075 
z
" transform="scale(0.015625)"/>
     </defs>
     <use xlink:href="#DejaVuSans-63"/>
     <use xlink:href="#DejaVuSans-76" transform="translate(54.980469 0)"/>
     <use xlink:href="#DejaVuSans-78" transform="translate(114.160156 0)"/>
     <use xlink:href="#DejaVuSans-45" transform="translate(173.339844 0)"/>
     <use xlink:href="#DejaVuSans-44" transform="translate(236.523438 0)"/>
     <use xlink:href="#DejaVuSans-41" transform="translate(311.775391 0)"/>
     <use xlink:href="#DejaVuSans-20" transform="translate(380.183594 0)"/>
     <use xlink:href="#DejaVuSans-28" transform="translate(411.970703 0)"/>
     <use xlink:href="#DejaVuSans-3c3" transform="translate(450.984375 0)"/>
     <use xlink:href="#DejaVuSans-3d" transform="translate(514.363281 0)"/>
     <use xlink:href="#DejaVuSans-30" transform="translate(598.152344 0)"/>
     <use xlink:href="#DejaVuSans-2e" transform="translate(661.775391 0)"/>
     <use xlink:href="#DejaVuSans-32" transform="translate(693.5625 0)"/>
     <use xlink:href="#DejaVuSans-73" transform="translate(757.185547 0)"/>
     <use xlink:href="#DejaVuSans-20" transform="translate(809.285156 0)"/>
     <use xlink:href="#DejaVuSans-20" transform="translate(841.072266 0)"/>
     <use xlink:href="#DejaVuSans-64" transform="translate(872.859375 0)"/>
     <use xlink:href="#DejaVuSans-61" transform="translate(936.335938 0)"/>
     <use xlink:href="#DejaVuSans-74" transform="translate(997.615234 0)"/>
     <use xlink:href="#DejaVuSans-61" transform="translate(1036.824219 0)"/>
     <use xlink:href="#DejaVuSans-5f" transform="translate(1098.103516 0)"/>
     <use xlink:href="#DejaVuSans-39" transform="translate(1148.103516 0)"/>
     <use xlink:href="#DejaVuSans-5f" transform="translate(1211.726562 0)"/>
     <use xlink:href="#DejaVuSans-45" transform="translate(1261.726562 0)"/>
     <use xlink:href="#DejaVuSans-34" transform="translate(1324.910156 0)"/>
     <use xlink:href="#DejaVuSans-29" transform="translate(1388.533203 0)"/>
    </g>
   </g>
   <g id="legend_1">
    <g id="patch_7">
     <path d="M 350.09375 188.057187 
L 443 188.057187 
Q 445 188.057187 445 186.057187 
L 445 143.022812 
Q 445 141.022812 443 141.022812 
L 350.09375 141.022812 
Q 348.09375 141.022812 348.09375 143.022812 
L 348.09375 186.057187 
Q 348.09375 188.057187 350.09375 188.057187 
z
" style="fill: #ffffff; opacity: 0.8; stroke: #cccccc; stroke-linejoin: miter"/>
    </g>
    <g id="line2d_38">
     <path d="M 352.09375 149.12125 
L 362.09375 149.12125 
L 372.09375 149.12125 
" style="fill: none; stroke-dasharray: 1.85,0.8; stroke-dashoffset: 0; stroke: #1f77b4; stroke-width: 0.5"/>
    </g>
    <g id="text_21">
     <!-- Filtered EDA -->
     <g transform="translate(380.09375 152.62125) scale(0.1 -0.1)">
      <defs>
       <path id="DejaVuSans-46" d="M 628 4666 
L 3309 4666 
L 3309 4134 
L 1259 4134 
L 1259 2759 
L 3109 2759 
L 3109 2228 
L 1259 2228 
L 1259 0 
L 628 0 
L 628 4666 
z
" transform="scale(0.015625)"/>
       <path id="DejaVuSans-72" d="M 2631 2963 
Q 2534 3019 2420 3045 
Q 2306 3072 2169 3072 
Q 1681 3072 1420 2755 
Q 1159 2438 1159 1844 
L 1159 0 
L 581 0 
L 581 3500 
L 1159 3500 
L 1159 2956 
Q 1341 3275 1631 3429 
Q 1922 3584 2338 3584 
Q 2397 3584 2469 3576 
Q 2541 3569 2628 3553 
L 2631 2963 
z
" transform="scale(0.015625)"/>
      </defs>
      <use xlink:href="#DejaVuSans-46"/>
      <use xlink:href="#DejaVuSans-69" transform="translate(50.269531 0)"/>
      <use xlink:href="#DejaVuSans-6c" transform="translate(78.052734 0)"/>
      <use xlink:href="#DejaVuSans-74" transform="translate(105.835938 0)"/>
      <use xlink:href="#DejaVuSans-65" transform="translate(145.044922 0)"/>
      <use xlink:href="#DejaVuSans-72" transform="translate(206.568359 0)"/>
      <use xlink:href="#DejaVuSans-65" transform="translate(245.431641 0)"/>
      <use xlink:href="#DejaVuSans-64" transform="translate(306.955078 0)"/>
      <use xlink:href="#DejaVuSans-20" transform="translate(370.431641 0)"/>
      <use xlink:href="#DejaVuSans-45" transform="translate(402.21875 0)"/>
      <use xlink:href="#DejaVuSans-44" transform="translate(465.402344 0)"/>
      <use xlink:href="#DejaVuSans-41" transform="translate(540.654297 0)"/>
     </g>
    </g>
    <g id="line2d_39">
     <path d="M 352.09375 163.799375 
L 362.09375 163.799375 
L 372.09375 163.799375 
" style="fill: none; stroke: #ff7f0e; stroke-width: 0.5; stroke-linecap: square"/>
    </g>
    <g id="text_22">
     <!-- Tonic -->
     <g transform="translate(380.09375 167.299375) scale(0.1 -0.1)">
      <defs>
       <path id="DejaVuSans-6f" d="M 1959 3097 
Q 1497 3097 1228 2736 
Q 959 2375 959 1747 
Q 959 1119 1226 758 
Q 1494 397 1959 397 
Q 2419 397 2687 759 
Q 2956 1122 2956 1747 
Q 2956 2369 2687 2733 
Q 2419 3097 1959 3097 
z
M 1959 3584 
Q 2709 3584 3137 3096 
Q 3566 2609 3566 1747 
Q 3566 888 3137 398 
Q 2709 -91 1959 -91 
Q 1206 -91 779 398 
Q 353 888 353 1747 
Q 353 2609 779 3096 
Q 1206 3584 1959 3584 
z
" transform="scale(0.015625)"/>
      </defs>
      <use xlink:href="#DejaVuSans-54"/>
      <use xlink:href="#DejaVuSans-6f" transform="translate(44.083984 0)"/>
      <use xlink:href="#DejaVuSans-6e" transform="translate(105.265625 0)"/>
      <use xlink:href="#DejaVuSans-69" transform="translate(168.644531 0)"/>
      <use xlink:href="#DejaVuSans-63" transform="translate(196.427734 0)"/>
     </g>
    </g>
    <g id="line2d_40">
     <path d="M 352.09375 178.4775 
L 362.09375 178.4775 
L 372.09375 178.4775 
" style="fill: none; stroke: #2ca02c; stroke-width: 0.5; stroke-linecap: square"/>
    </g>
    <g id="text_23">
     <!-- Phasic -->
     <g transform="translate(380.09375 181.9775) scale(0.1 -0.1)">
      <defs>
       <path id="DejaVuSans-50" d="M 1259 4147 
L 1259 2394 
L 2053 2394 
Q 2494 2394 2734 2622 
Q 2975 2850 2975 3272 
Q 2975 3691 2734 3919 
Q 2494 4147 2053 4147 
L 1259 4147 
z
M 628 4666 
L 2053 4666 
Q 2838 4666 3239 4311 
Q 3641 3956 3641 3272 
Q 3641 2581 3239 2228 
Q 2838 1875 2053 1875 
L 1259 1875 
L 1259 0 
L 628 0 
L 628 4666 
z
" transform="scale(0.015625)"/>
       <path id="DejaVuSans-68" d="M 3513 2113 
L 3513 0 
L 2938 0 
L 2938 2094 
Q 2938 2591 2744 2837 
Q 2550 3084 2163 3084 
Q 1697 3084 1428 2787 
Q 1159 2491 1159 1978 
L 1159 0 
L 581 0 
L 581 4863 
L 1159 4863 
L 1159 2956 
Q 1366 3272 1645 3428 
Q 1925 3584 2291 3584 
Q 2894 3584 3203 3211 
Q 3513 2838 3513 2113 
z
" transform="scale(0.015625)"/>
      </defs>
      <use xlink:href="#DejaVuSans-50"/>
      <use xlink:href="#DejaVuSans-68" transform="translate(60.302734 0)"/>
      <use xlink:href="#DejaVuSans-61" transform="translate(123.681641 0)"/>
      <use xlink:href="#DejaVuSans-73" transform="translate(184.960938 0)"/>
      <use xlink:href="#DejaVuSans-69" transform="translate(237.060547 0)"/>
      <use xlink:href="#DejaVuSans-63" transform="translate(264.84375 0)"/>
     </g>
    </g>
   </g>
  </g>
 </g>
 <defs>
  <clipPath id="p7d1b65e895">
   <rect x="47.81" y="25.44" width="402.19" height="278.2"/>
  </clipPath>
 </defs>
</svg>
