<?xml version="1.0" encoding="utf-8" standalone="no"?>
<!DOCTYPE svg PUBLIC "-//W3C//DTD SVG 1.1//EN"
  "http://www.w3.org/Graphics/SVG/1.1/DTD/svg11.dtd">
<svg xmlns:xlink="http://www.w3.org/1999/xlink" width="864pt" height="576pt" viewBox="0 0 864 576" xmlns="http://www.w3.org/2000/svg" version="1.1">
 <metadata>
  <rdf:RDF xmlns:dc="http://purl.org/dc/elements/1.1/" xmlns:cc="http://creativecommons.org/ns#" xmlns:rdf="http://www.w3.org/1999/02/22-rdf-syntax-ns#">
   <cc:Work>
    <dc:type rdf:resource="http://purl.org/dc/dcmitype/StillImage"/>
    <dc:date>2025-10-16T13:33:31.359731</dc:date>
    <dc:format>image/svg+xml</dc:format>
    <dc:creator>
     <cc:Agent>
      <dc:title>Matplotlib v3.10.0, https://matplotlib.org/</dc:title>
     </cc:Agent>
    </dc:creator>
   </cc:Work>
  </rdf:RDF>
 </metadata>
 <defs>
  <style type="text/css">*{stroke-linejoin: round; stroke-linecap: butt}</style>
 </defs>
 <g id="figure_1">
  <g id="patch_1">
   <path d="M 0 576 
L 864 576 
L 864 0 
L 0 0 
z
" style="fill: #ffffff"/>
  </g>
  <g id="axes_1">
   <g id="patch_2">
    <path d="M 47.81 534.04 
L 853.2 534.04 
L 853.2 36.48525 
L 47.81 36.48525 
z
" style="fill: #ffffff"/>
   </g>
   <g id="matplotlib.axis_1">
    <g id="xtick_1">
     <g id="line2d_1">
      <path d="M 67.768887 534.04 
L 67.768887 36.48525 
" clip-path="url(#p2ab6f83474)" style="fill: none; stroke: #b0b0b0; stroke-opacity: 0.3; stroke-width: 0.8; stroke-linecap: square"/>
     </g>
     <g id="line2d_2">
      <defs>
       <path id="m048d7392ca" d="M 0 0 
L 0 3.5 
" style="stroke: #000000; stroke-width: 0.8"/>
      </defs>
      <g>
       <use xlink:href="#m048d7392ca" x="67.768887" y="534.04" style="stroke: #000000; stroke-width: 0.8"/>
      </g>
     </g>
     <g id="text_1">
      <!-- 0 -->
      <g transform="translate(64.587637 548.638438) scale(0.1 -0.1)">
       <defs>
        <path id="DejaVuSans-30" d="M 2034 4250 
Q 1547 4250 1301 3770 
Q 1056 3291 1056 2328 
Q 1056 1369 1301 889 
Q 1547 409 2034 409 
Q 2525 409 2770 889 
Q 3016 1369 3016 2328 
Q 3016 3291 2770 3770 
Q 2525 4250 2034 4250 
z
M 2034 4750 
Q 2819 4750 3233 4129 
Q 3647 3509 3647 2328 
Q 3647 1150 3233 529 
Q 2819 -91 2034 -91 
Q 1250 -91 836 529 
Q 422 1150 422 2328 
Q 422 3509 836 4129 
Q 1250 4750 2034 4750 
z
" transform="scale(0.015625)"/>
       </defs>
       <use xlink:href="#DejaVuSans-30"/>
      </g>
     </g>
    </g>
    <g id="xtick_2">
     <g id="line2d_3">
      <path d="M 167.639626 534.04 
L 167.639626 36.48525 
" clip-path="url(#p2ab6f83474)" style="fill: none; stroke: #b0b0b0; stroke-opacity: 0.3; stroke-width: 0.8; stroke-linecap: square"/>
     </g>
     <g id="line2d_4">
      <g>
       <use xlink:href="#m048d7392ca" x="167.639626" y="534.04" style="stroke: #000000; stroke-width: 0.8"/>
      </g>
     </g>
     <g id="text_2">
      <!-- 2 -->
      <g transform="translate(164.458376 548.638438) scale(0.1 -0.1)">
       <defs>
        <path id="DejaVuSans-32" d="M 1228 531 
L 3431 531 
L 3431 0 
L 469 0 
L 469 531 
Q 828 903 1448 1529 
Q 2069 2156 2228 2338 
Q 2531 2678 2651 2914 
Q 2772 3150 2772 3378 
Q 2772 3750 2511 3984 
Q 2250 4219 1831 4219 
Q 1534 4219 1204 4116 
Q 875 4013 500 3803 
L 500 4441 
Q 881 4594 1212 4672 
Q 1544 4750 1819 4750 
Q 2544 4750 2975 4387 
Q 3406 4025 3406 3419 
Q 3406 3131 3298 2873 
Q 3191 2616 2906 2266 
Q 2828 2175 2409 1742 
Q 1991 1309 1228 531 
z
" transform="scale(0.015625)"/>
       </defs>
       <use xlink:href="#DejaVuSans-32"/>
      </g>
     </g>
    </g>
    <g id="xtick_3">
     <g id="line2d_5">
      <path d="M 267.510365 534.04 
L 267.510365 36.48525 
" clip-path="url(#p2ab6f83474)" style="fill: none; stroke: #b0b0b0; stroke-opacity: 0.3; stroke-width: 0.8; stroke-linecap: square"/>
     </g>
     <g id="line2d_6">
      <g>
       <use xlink:href="#m048d7392ca" x="267.510365" y="534.04" style="stroke: #000000; stroke-width: 0.8"/>
      </g>
     </g>
     <g id="text_3">
      <!-- 4 -->
      <g transform="translate(264.329115 548.638438) scale(0.1 -0.1)">
       <defs>
        <path id="DejaVuSans-34" d="M 2419 4116 
L 825 1625 
L 2419 1625 
L 2419 4116 
z
M 2253 4666 
L 3047 4666 
L 3047 1625 
L 3713 1625 
L 3713 1100 
L 3047 1100 
L 3047 0 
L 2419 0 
L 2419 1100 
L 313 1100 
L 313 1709 
L 2253 4666 
z
" transform="scale(0.015625)"/>
       </defs>
       <use xlink:href="#DejaVuSans-34"/>
      </g>
     </g>
    </g>
    <g id="xtick_4">
     <g id="line2d_7">
      <path d="M 367.381103 534.04 
L 367.381103 36.48525 
" clip-path="url(#p2ab6f83474)" style="fill: none; stroke: #b0b0b0; stroke-opacity: 0.3; stroke-width: 0.8; stroke-linecap: square"/>
     </g>
     <g id="line2d_8">
      <g>
       <use xlink:href="#m048d7392ca" x="367.381103" y="534.04" style="stroke: #000000; stroke-width: 0.8"/>
      </g>
     </g>
     <g id="text_4">
      <!-- 6 -->
      <g transform="translate(364.199853 548.638438) scale(0.1 -0.1)">
       <defs>
        <path id="DejaVuSans-36" d="M 2113 2584 
Q 1688 2584 1439 2293 
Q 1191 2003 1191 1497 
Q 1191 994 1439 701 
Q 1688 409 2113 409 
Q 2538 409 2786 701 
Q 3034 994 3034 1497 
Q 3034 2003 2786 2293 
Q 2538 2584 2113 2584 
z
M 3366 4563 
L 3366 3988 
Q 3128 4100 2886 4159 
Q 2644 4219 2406 4219 
Q 1781 4219 1451 3797 
Q 1122 3375 1075 2522 
Q 1259 2794 1537 2939 
Q 1816 3084 2150 3084 
Q 2853 3084 3261 2657 
Q 3669 2231 3669 1497 
Q 3669 778 3244 343 
Q 2819 -91 2113 -91 
Q 1303 -91 875 529 
Q 447 1150 447 2328 
Q 447 3434 972 4092 
Q 1497 4750 2381 4750 
Q 2619 4750 2861 4703 
Q 3103 4656 3366 4563 
z
" transform="scale(0.015625)"/>
       </defs>
       <use xlink:href="#DejaVuSans-36"/>
      </g>
     </g>
    </g>
    <g id="xtick_5">
     <g id="line2d_9">
      <path d="M 467.251842 534.04 
L 467.251842 36.48525 
" clip-path="url(#p2ab6f83474)" style="fill: none; stroke: #b0b0b0; stroke-opacity: 0.3; stroke-width: 0.8; stroke-linecap: square"/>
     </g>
     <g id="line2d_10">
      <g>
       <use xlink:href="#m048d7392ca" x="467.251842" y="534.04" style="stroke: #000000; stroke-width: 0.8"/>
      </g>
     </g>
     <g id="text_5">
      <!-- 8 -->
      <g transform="translate(464.070592 548.638438) scale(0.1 -0.1)">
       <defs>
        <path id="DejaVuSans-38" d="M 2034 2216 
Q 1584 2216 1326 1975 
Q 1069 1734 1069 1313 
Q 1069 891 1326 650 
Q 1584 409 2034 409 
Q 2484 409 2743 651 
Q 3003 894 3003 1313 
Q 3003 1734 2745 1975 
Q 2488 2216 2034 2216 
z
M 1403 2484 
Q 997 2584 770 2862 
Q 544 3141 544 3541 
Q 544 4100 942 4425 
Q 1341 4750 2034 4750 
Q 2731 4750 3128 4425 
Q 3525 4100 3525 3541 
Q 3525 3141 3298 2862 
Q 3072 2584 2669 2484 
Q 3125 2378 3379 2068 
Q 3634 1759 3634 1313 
Q 3634 634 3220 271 
Q 2806 -91 2034 -91 
Q 1263 -91 848 271 
Q 434 634 434 1313 
Q 434 1759 690 2068 
Q 947 2378 1403 2484 
z
M 1172 3481 
Q 1172 3119 1398 2916 
Q 1625 2713 2034 2713 
Q 2441 2713 2670 2916 
Q 2900 3119 2900 3481 
Q 2900 3844 2670 4047 
Q 2441 4250 2034 4250 
Q 1625 4250 1398 4047 
Q 1172 3844 1172 3481 
z
" transform="scale(0.015625)"/>
       </defs>
       <use xlink:href="#DejaVuSans-38"/>
      </g>
     </g>
    </g>
    <g id="xtick_6">
     <g id="line2d_11">
      <path d="M 567.122581 534.04 
L 567.122581 36.48525 
" clip-path="url(#p2ab6f83474)" style="fill: none; stroke: #b0b0b0; stroke-opacity: 0.3; stroke-width: 0.8; stroke-linecap: square"/>
     </g>
     <g id="line2d_12">
      <g>
       <use xlink:href="#m048d7392ca" x="567.122581" y="534.04" style="stroke: #000000; stroke-width: 0.8"/>
      </g>
     </g>
     <g id="text_6">
      <!-- 10 -->
      <g transform="translate(560.760081 548.638438) scale(0.1 -0.1)">
       <defs>
        <path id="DejaVuSans-31" d="M 794 531 
L 1825 531 
L 1825 4091 
L 703 3866 
L 703 4441 
L 1819 4666 
L 2450 4666 
L 2450 531 
L 3481 531 
L 3481 0 
L 794 0 
L 794 531 
z
" transform="scale(0.015625)"/>
       </defs>
       <use xlink:href="#DejaVuSans-31"/>
       <use xlink:href="#DejaVuSans-30" transform="translate(63.623047 0)"/>
      </g>
     </g>
    </g>
    <g id="xtick_7">
     <g id="line2d_13">
      <path d="M 666.99332 534.04 
L 666.99332 36.48525 
" clip-path="url(#p2ab6f83474)" style="fill: none; stroke: #b0b0b0; stroke-opacity: 0.3; stroke-width: 0.8; stroke-linecap: square"/>
     </g>
     <g id="line2d_14">
      <g>
       <use xlink:href="#m048d7392ca" x="666.99332" y="534.04" style="stroke: #000000; stroke-width: 0.8"/>
      </g>
     </g>
     <g id="text_7">
      <!-- 12 -->
      <g transform="translate(660.63082 548.638438) scale(0.1 -0.1)">
       <use xlink:href="#DejaVuSans-31"/>
       <use xlink:href="#DejaVuSans-32" transform="translate(63.623047 0)"/>
      </g>
     </g>
    </g>
    <g id="xtick_8">
     <g id="line2d_15">
      <path d="M 766.864058 534.04 
L 766.864058 36.48525 
" clip-path="url(#p2ab6f83474)" style="fill: none; stroke: #b0b0b0; stroke-opacity: 0.3; stroke-width: 0.8; stroke-linecap: square"/>
     </g>
     <g id="line2d_16">
      <g>
       <use xlink:href="#m048d7392ca" x="766.864058" y="534.04" style="stroke: #000000; stroke-width: 0.8"/>
      </g>
     </g>
     <g id="text_8">
      <!-- 14 -->
      <g transform="translate(760.501558 548.638438) scale(0.1 -0.1)">
       <use xlink:href="#DejaVuSans-31"/>
       <use xlink:href="#DejaVuSans-34" transform="translate(63.623047 0)"/>
      </g>
     </g>
    </g>
    <g id="text_9">
     <!-- Time (minutes) -->
     <g transform="translate(412.5425 562.316562) scale(0.1 -0.1)">
      <defs>
       <path id="DejaVuSans-54" d="M -19 4666 
L 3928 4666 
L 3928 4134 
L 2272 4134 
L 2272 0 
L 1638 0 
L 1638 4134 
L -19 4134 
L -19 4666 
z
" transform="scale(0.015625)"/>
       <path id="DejaVuSans-69" d="M 603 3500 
L 1178 3500 
L 1178 0 
L 603 0 
L 603 3500 
z
M 603 4863 
L 1178 4863 
L 1178 4134 
L 603 4134 
L 603 4863 
z
" transform="scale(0.015625)"/>
       <path id="DejaVuSans-6d" d="M 3328 2828 
Q 3544 3216 3844 3400 
Q 4144 3584 4550 3584 
Q 5097 3584 5394 3201 
Q 5691 2819 5691 2113 
L 5691 0 
L 5113 0 
L 5113 2094 
Q 5113 2597 4934 2840 
Q 4756 3084 4391 3084 
Q 3944 3084 3684 2787 
Q 3425 2491 3425 1978 
L 3425 0 
L 2847 0 
L 2847 2094 
Q 2847 2600 2669 2842 
Q 2491 3084 2119 3084 
Q 1678 3084 1418 2786 
Q 1159 2488 1159 1978 
L 1159 0 
L 581 0 
L 581 3500 
L 1159 3500 
L 1159 2956 
Q 1356 3278 1631 3431 
Q 1906 3584 2284 3584 
Q 2666 3584 2933 3390 
Q 3200 3197 3328 2828 
z
" transform="scale(0.015625)"/>
       <path id="DejaVuSans-65" d="M 3597 1894 
L 3597 1613 
L 953 1613 
Q 991 1019 1311 708 
Q 1631 397 2203 397 
Q 2534 397 2845 478 
Q 3156 559 3463 722 
L 3463 178 
Q 3153 47 2828 -22 
Q 2503 -91 2169 -91 
Q 1331 -91 842 396 
Q 353 884 353 1716 
Q 353 2575 817 3079 
Q 1281 3584 2069 3584 
Q 2775 3584 3186 3129 
Q 3597 2675 3597 1894 
z
M 3022 2063 
Q 3016 2534 2758 2815 
Q 2500 3097 2075 3097 
Q 1594 3097 1305 2825 
Q 1016 2553 972 2059 
L 3022 2063 
z
" transform="scale(0.015625)"/>
       <path id="DejaVuSans-20" transform="scale(0.015625)"/>
       <path id="DejaVuSans-28" d="M 1984 4856 
Q 1566 4138 1362 3434 
Q 1159 2731 1159 2009 
Q 1159 1288 1364 580 
Q 1569 -128 1984 -844 
L 1484 -844 
Q 1016 -109 783 600 
Q 550 1309 550 2009 
Q 550 2706 781 3412 
Q 1013 4119 1484 4856 
L 1984 4856 
z
" transform="scale(0.015625)"/>
       <path id="DejaVuSans-6e" d="M 3513 2113 
L 3513 0 
L 2938 0 
L 2938 2094 
Q 2938 2591 2744 2837 
Q 2550 3084 2163 3084 
Q 1697 3084 1428 2787 
Q 1159 2491 1159 1978 
L 1159 0 
L 581 0 
L 581 3500 
L 1159 3500 
L 1159 2956 
Q 1366 3272 1645 3428 
Q 1925 3584 2291 3584 
Q 2894 3584 3203 3211 
Q 3513 2838 3513 2113 
z
" transform="scale(0.015625)"/>
       <path id="DejaVuSans-75" d="M 544 1381 
L 544 3500 
L 1119 3500 
L 1119 1403 
Q 1119 906 1312 657 
Q 1506 409 1894 409 
Q 2359 409 2629 706 
Q 2900 1003 2900 1516 
L 2900 3500 
L 3475 3500 
L 3475 0 
L 2900 0 
L 2900 538 
Q 2691 219 2414 64 
Q 2138 -91 1772 -91 
Q 1169 -91 856 284 
Q 544 659 544 1381 
z
M 1991 3584 
L 1991 3584 
z
" transform="scale(0.015625)"/>
       <path id="DejaVuSans-74" d="M 1172 4494 
L 1172 3500 
L 2356 3500 
L 2356 3053 
L 1172 3053 
L 1172 1153 
Q 1172 725 1289 603 
Q 1406 481 1766 481 
L 2356 481 
L 2356 0 
L 1766 0 
Q 1100 0 847 248 
Q 594 497 594 1153 
L 594 3053 
L 172 3053 
L 172 3500 
L 594 3500 
L 594 4494 
L 1172 4494 
z
" transform="scale(0.015625)"/>
       <path id="DejaVuSans-73" d="M 2834 3397 
L 2834 2853 
Q 2591 2978 2328 3040 
Q 2066 3103 1784 3103 
Q 1356 3103 1142 2972 
Q 928 2841 928 2578 
Q 928 2378 1081 2264 
Q 1234 2150 1697 2047 
L 1894 2003 
Q 2506 1872 2764 1633 
Q 3022 1394 3022 966 
Q 3022 478 2636 193 
Q 2250 -91 1575 -91 
Q 1294 -91 989 -36 
Q 684 19 347 128 
L 347 722 
Q 666 556 975 473 
Q 1284 391 1588 391 
Q 1994 391 2212 530 
Q 2431 669 2431 922 
Q 2431 1156 2273 1281 
Q 2116 1406 1581 1522 
L 1381 1569 
Q 847 1681 609 1914 
Q 372 2147 372 2553 
Q 372 3047 722 3315 
Q 1072 3584 1716 3584 
Q 2034 3584 2315 3537 
Q 2597 3491 2834 3397 
z
" transform="scale(0.015625)"/>
       <path id="DejaVuSans-29" d="M 513 4856 
L 1013 4856 
Q 1481 4119 1714 3412 
Q 1947 2706 1947 2009 
Q 1947 1309 1714 600 
Q 1481 -109 1013 -844 
L 513 -844 
Q 928 -128 1133 580 
Q 1338 1288 1338 2009 
Q 1338 2731 1133 3434 
Q 928 4138 513 4856 
z
" transform="scale(0.015625)"/>
      </defs>
      <use xlink:href="#DejaVuSans-54"/>
      <use xlink:href="#DejaVuSans-69" transform="translate(57.958984 0)"/>
      <use xlink:href="#DejaVuSans-6d" transform="translate(85.742188 0)"/>
      <use xlink:href="#DejaVuSans-65" transform="translate(183.154297 0)"/>
      <use xlink:href="#DejaVuSans-20" transform="translate(244.677734 0)"/>
      <use xlink:href="#DejaVuSans-28" transform="translate(276.464844 0)"/>
      <use xlink:href="#DejaVuSans-6d" transform="translate(315.478516 0)"/>
      <use xlink:href="#DejaVuSans-69" transform="translate(412.890625 0)"/>
      <use xlink:href="#DejaVuSans-6e" transform="translate(440.673828 0)"/>
      <use xlink:href="#DejaVuSans-75" transform="translate(504.052734 0)"/>
      <use xlink:href="#DejaVuSans-74" transform="translate(567.431641 0)"/>
      <use xlink:href="#DejaVuSans-65" transform="translate(606.640625 0)"/>
      <use xlink:href="#DejaVuSans-73" transform="translate(668.164062 0)"/>
      <use xlink:href="#DejaVuSans-29" transform="translate(720.263672 0)"/>
     </g>
    </g>
   </g>
   <g id="matplotlib.axis_2">
    <g id="ytick_1">
     <g id="line2d_17">
      <path d="M 47.81 534.04 
L 853.2 534.04 
" clip-path="url(#p2ab6f83474)" style="fill: none; stroke: #b0b0b0; stroke-opacity: 0.3; stroke-width: 0.8; stroke-linecap: square"/>
     </g>
     <g id="line2d_18">
      <defs>
       <path id="m60e3cc3add" d="M 0 0 
L -3.5 0 
" style="stroke: #000000; stroke-width: 0.8"/>
      </defs>
      <g>
       <use xlink:href="#m60e3cc3add" x="47.81" y="534.04" style="stroke: #000000; stroke-width: 0.8"/>
      </g>
     </g>
     <g id="text_10">
      <!-- 0.0 -->
      <g transform="translate(24.906875 537.839219) scale(0.1 -0.1)">
       <defs>
        <path id="DejaVuSans-2e" d="M 684 794 
L 1344 794 
L 1344 0 
L 684 0 
L 684 794 
z
" transform="scale(0.015625)"/>
       </defs>
       <use xlink:href="#DejaVuSans-30"/>
       <use xlink:href="#DejaVuSans-2e" transform="translate(63.623047 0)"/>
       <use xlink:href="#DejaVuSans-30" transform="translate(95.410156 0)"/>
      </g>
     </g>
    </g>
    <g id="ytick_2">
     <g id="line2d_19">
      <path d="M 47.81 473.23113 
L 853.2 473.23113 
" clip-path="url(#p2ab6f83474)" style="fill: none; stroke: #b0b0b0; stroke-opacity: 0.3; stroke-width: 0.8; stroke-linecap: square"/>
     </g>
     <g id="line2d_20">
      <g>
       <use xlink:href="#m60e3cc3add" x="47.81" y="473.23113" style="stroke: #000000; stroke-width: 0.8"/>
      </g>
     </g>
     <g id="text_11">
      <!-- 0.5 -->
      <g transform="translate(24.906875 477.030349) scale(0.1 -0.1)">
       <defs>
        <path id="DejaVuSans-35" d="M 691 4666 
L 3169 4666 
L 3169 4134 
L 1269 4134 
L 1269 2991 
Q 1406 3038 1543 3061 
Q 1681 3084 1819 3084 
Q 2600 3084 3056 2656 
Q 3513 2228 3513 1497 
Q 3513 744 3044 326 
Q 2575 -91 1722 -91 
Q 1428 -91 1123 -41 
Q 819 9 494 109 
L 494 744 
Q 775 591 1075 516 
Q 1375 441 1709 441 
Q 2250 441 2565 725 
Q 2881 1009 2881 1497 
Q 2881 1984 2565 2268 
Q 2250 2553 1709 2553 
Q 1456 2553 1204 2497 
Q 953 2441 691 2322 
L 691 4666 
z
" transform="scale(0.015625)"/>
       </defs>
       <use xlink:href="#DejaVuSans-30"/>
       <use xlink:href="#DejaVuSans-2e" transform="translate(63.623047 0)"/>
       <use xlink:href="#DejaVuSans-35" transform="translate(95.410156 0)"/>
      </g>
     </g>
    </g>
    <g id="ytick_3">
     <g id="line2d_21">
      <path d="M 47.81 412.42226 
L 853.2 412.42226 
" clip-path="url(#p2ab6f83474)" style="fill: none; stroke: #b0b0b0; stroke-opacity: 0.3; stroke-width: 0.8; stroke-linecap: square"/>
     </g>
     <g id="line2d_22">
      <g>
       <use xlink:href="#m60e3cc3add" x="47.81" y="412.42226" style="stroke: #000000; stroke-width: 0.8"/>
      </g>
     </g>
     <g id="text_12">
      <!-- 1.0 -->
      <g transform="translate(24.906875 416.221479) scale(0.1 -0.1)">
       <use xlink:href="#DejaVuSans-31"/>
       <use xlink:href="#DejaVuSans-2e" transform="translate(63.623047 0)"/>
       <use xlink:href="#DejaVuSans-30" transform="translate(95.410156 0)"/>
      </g>
     </g>
    </g>
    <g id="ytick_4">
     <g id="line2d_23">
      <path d="M 47.81 351.61339 
L 853.2 351.61339 
" clip-path="url(#p2ab6f83474)" style="fill: none; stroke: #b0b0b0; stroke-opacity: 0.3; stroke-width: 0.8; stroke-linecap: square"/>
     </g>
     <g id="line2d_24">
      <g>
       <use xlink:href="#m60e3cc3add" x="47.81" y="351.61339" style="stroke: #000000; stroke-width: 0.8"/>
      </g>
     </g>
     <g id="text_13">
      <!-- 1.5 -->
      <g transform="translate(24.906875 355.412609) scale(0.1 -0.1)">
       <use xlink:href="#DejaVuSans-31"/>
       <use xlink:href="#DejaVuSans-2e" transform="translate(63.623047 0)"/>
       <use xlink:href="#DejaVuSans-35" transform="translate(95.410156 0)"/>
      </g>
     </g>
    </g>
    <g id="ytick_5">
     <g id="line2d_25">
      <path d="M 47.81 290.80452 
L 853.2 290.80452 
" clip-path="url(#p2ab6f83474)" style="fill: none; stroke: #b0b0b0; stroke-opacity: 0.3; stroke-width: 0.8; stroke-linecap: square"/>
     </g>
     <g id="line2d_26">
      <g>
       <use xlink:href="#m60e3cc3add" x="47.81" y="290.80452" style="stroke: #000000; stroke-width: 0.8"/>
      </g>
     </g>
     <g id="text_14">
      <!-- 2.0 -->
      <g transform="translate(24.906875 294.603739) scale(0.1 -0.1)">
       <use xlink:href="#DejaVuSans-32"/>
       <use xlink:href="#DejaVuSans-2e" transform="translate(63.623047 0)"/>
       <use xlink:href="#DejaVuSans-30" transform="translate(95.410156 0)"/>
      </g>
     </g>
    </g>
    <g id="ytick_6">
     <g id="line2d_27">
      <path d="M 47.81 229.995651 
L 853.2 229.995651 
" clip-path="url(#p2ab6f83474)" style="fill: none; stroke: #b0b0b0; stroke-opacity: 0.3; stroke-width: 0.8; stroke-linecap: square"/>
     </g>
     <g id="line2d_28">
      <g>
       <use xlink:href="#m60e3cc3add" x="47.81" y="229.995651" style="stroke: #000000; stroke-width: 0.8"/>
      </g>
     </g>
     <g id="text_15">
      <!-- 2.5 -->
      <g transform="translate(24.906875 233.794869) scale(0.1 -0.1)">
       <use xlink:href="#DejaVuSans-32"/>
       <use xlink:href="#DejaVuSans-2e" transform="translate(63.623047 0)"/>
       <use xlink:href="#DejaVuSans-35" transform="translate(95.410156 0)"/>
      </g>
     </g>
    </g>
    <g id="ytick_7">
     <g id="line2d_29">
      <path d="M 47.81 169.186781 
L 853.2 169.186781 
" clip-path="url(#p2ab6f83474)" style="fill: none; stroke: #b0b0b0; stroke-opacity: 0.3; stroke-width: 0.8; stroke-linecap: square"/>
     </g>
     <g id="line2d_30">
      <g>
       <use xlink:href="#m60e3cc3add" x="47.81" y="169.186781" style="stroke: #000000; stroke-width: 0.8"/>
      </g>
     </g>
     <g id="text_16">
      <!-- 3.0 -->
      <g transform="translate(24.906875 172.985999) scale(0.1 -0.1)">
       <defs>
        <path id="DejaVuSans-33" d="M 2597 2516 
Q 3050 2419 3304 2112 
Q 3559 1806 3559 1356 
Q 3559 666 3084 287 
Q 2609 -91 1734 -91 
Q 1441 -91 1130 -33 
Q 819 25 488 141 
L 488 750 
Q 750 597 1062 519 
Q 1375 441 1716 441 
Q 2309 441 2620 675 
Q 2931 909 2931 1356 
Q 2931 1769 2642 2001 
Q 2353 2234 1838 2234 
L 1294 2234 
L 1294 2753 
L 1863 2753 
Q 2328 2753 2575 2939 
Q 2822 3125 2822 3475 
Q 2822 3834 2567 4026 
Q 2313 4219 1838 4219 
Q 1578 4219 1281 4162 
Q 984 4106 628 3988 
L 628 4550 
Q 988 4650 1302 4700 
Q 1616 4750 1894 4750 
Q 2613 4750 3031 4423 
Q 3450 4097 3450 3541 
Q 3450 3153 3228 2886 
Q 3006 2619 2597 2516 
z
" transform="scale(0.015625)"/>
       </defs>
       <use xlink:href="#DejaVuSans-33"/>
       <use xlink:href="#DejaVuSans-2e" transform="translate(63.623047 0)"/>
       <use xlink:href="#DejaVuSans-30" transform="translate(95.410156 0)"/>
      </g>
     </g>
    </g>
    <g id="ytick_8">
     <g id="line2d_31">
      <path d="M 47.81 108.377911 
L 853.2 108.377911 
" clip-path="url(#p2ab6f83474)" style="fill: none; stroke: #b0b0b0; stroke-opacity: 0.3; stroke-width: 0.8; stroke-linecap: square"/>
     </g>
     <g id="line2d_32">
      <g>
       <use xlink:href="#m60e3cc3add" x="47.81" y="108.377911" style="stroke: #000000; stroke-width: 0.8"/>
      </g>
     </g>
     <g id="text_17">
      <!-- 3.5 -->
      <g transform="translate(24.906875 112.177129) scale(0.1 -0.1)">
       <use xlink:href="#DejaVuSans-33"/>
       <use xlink:href="#DejaVuSans-2e" transform="translate(63.623047 0)"/>
       <use xlink:href="#DejaVuSans-35" transform="translate(95.410156 0)"/>
      </g>
     </g>
    </g>
    <g id="ytick_9">
     <g id="line2d_33">
      <path d="M 47.81 47.569041 
L 853.2 47.569041 
" clip-path="url(#p2ab6f83474)" style="fill: none; stroke: #b0b0b0; stroke-opacity: 0.3; stroke-width: 0.8; stroke-linecap: square"/>
     </g>
     <g id="line2d_34">
      <g>
       <use xlink:href="#m60e3cc3add" x="47.81" y="47.569041" style="stroke: #000000; stroke-width: 0.8"/>
      </g>
     </g>
     <g id="text_18">
      <!-- 4.0 -->
      <g transform="translate(24.906875 51.36826) scale(0.1 -0.1)">
       <use xlink:href="#DejaVuSans-34"/>
       <use xlink:href="#DejaVuSans-2e" transform="translate(63.623047 0)"/>
       <use xlink:href="#DejaVuSans-30" transform="translate(95.410156 0)"/>
      </g>
     </g>
    </g>
    <g id="text_19">
     <!-- EDA (μS) -->
     <g transform="translate(18.827187 307.450906) rotate(-90) scale(0.1 -0.1)">
      <defs>
       <path id="DejaVuSans-45" d="M 628 4666 
L 3578 4666 
L 3578 4134 
L 1259 4134 
L 1259 2753 
L 3481 2753 
L 3481 2222 
L 1259 2222 
L 1259 531 
L 3634 531 
L 3634 0 
L 628 0 
L 628 4666 
z
" transform="scale(0.015625)"/>
       <path id="DejaVuSans-44" d="M 1259 4147 
L 1259 519 
L 2022 519 
Q 2988 519 3436 956 
Q 3884 1394 3884 2338 
Q 3884 3275 3436 3711 
Q 2988 4147 2022 4147 
L 1259 4147 
z
M 628 4666 
L 1925 4666 
Q 3281 4666 3915 4102 
Q 4550 3538 4550 2338 
Q 4550 1131 3912 565 
Q 3275 0 1925 0 
L 628 0 
L 628 4666 
z
" transform="scale(0.015625)"/>
       <path id="DejaVuSans-41" d="M 2188 4044 
L 1331 1722 
L 3047 1722 
L 2188 4044 
z
M 1831 4666 
L 2547 4666 
L 4325 0 
L 3669 0 
L 3244 1197 
L 1141 1197 
L 716 0 
L 50 0 
L 1831 4666 
z
" transform="scale(0.015625)"/>
       <path id="DejaVuSans-3bc" d="M 544 -1331 
L 544 3500 
L 1119 3500 
L 1119 1325 
Q 1119 872 1334 640 
Q 1550 409 1972 409 
Q 2434 409 2667 671 
Q 2900 934 2900 1459 
L 2900 3500 
L 3475 3500 
L 3475 806 
Q 3475 619 3529 530 
Q 3584 441 3700 441 
Q 3728 441 3778 458 
Q 3828 475 3916 513 
L 3916 50 
Q 3788 -22 3673 -56 
Q 3559 -91 3450 -91 
Q 3234 -91 3106 31 
Q 2978 153 2931 403 
Q 2775 156 2548 32 
Q 2322 -91 2016 -91 
Q 1697 -91 1473 31 
Q 1250 153 1119 397 
L 1119 -1331 
L 544 -1331 
z
" transform="scale(0.015625)"/>
       <path id="DejaVuSans-53" d="M 3425 4513 
L 3425 3897 
Q 3066 4069 2747 4153 
Q 2428 4238 2131 4238 
Q 1616 4238 1336 4038 
Q 1056 3838 1056 3469 
Q 1056 3159 1242 3001 
Q 1428 2844 1947 2747 
L 2328 2669 
Q 3034 2534 3370 2195 
Q 3706 1856 3706 1288 
Q 3706 609 3251 259 
Q 2797 -91 1919 -91 
Q 1588 -91 1214 -16 
Q 841 59 441 206 
L 441 856 
Q 825 641 1194 531 
Q 1563 422 1919 422 
Q 2459 422 2753 634 
Q 3047 847 3047 1241 
Q 3047 1584 2836 1778 
Q 2625 1972 2144 2069 
L 1759 2144 
Q 1053 2284 737 2584 
Q 422 2884 422 3419 
Q 422 4038 858 4394 
Q 1294 4750 2059 4750 
Q 2388 4750 2728 4690 
Q 3069 4631 3425 4513 
z
" transform="scale(0.015625)"/>
      </defs>
      <use xlink:href="#DejaVuSans-45"/>
      <use xlink:href="#DejaVuSans-44" transform="translate(63.183594 0)"/>
      <use xlink:href="#DejaVuSans-41" transform="translate(138.435547 0)"/>
      <use xlink:href="#DejaVuSans-20" transform="translate(206.84375 0)"/>
      <use xlink:href="#DejaVuSans-28" transform="translate(238.630859 0)"/>
      <use xlink:href="#DejaVuSans-3bc" transform="translate(277.644531 0)"/>
      <use xlink:href="#DejaVuSans-53" transform="translate(341.267578 0)"/>
      <use xlink:href="#DejaVuSans-29" transform="translate(404.744141 0)"/>
     </g>
    </g>
   </g>
   <g id="line2d_35">
    <path d="M 84.418636 292.182936 
L 84.626758 284.52941 
L 85.043002 290.445991 
L 85.251124 285.307885 
L 85.459246 287.643432 
L 85.667368 259.305769 
L 86.083611 280.325449 
L 86.291733 276.121489 
L 86.499855 289.978979 
L 86.916099 251.987786 
L 87.332342 257.125893 
L 87.748586 260.862719 
L 87.956708 261.018512 
L 88.16483 259.61711 
L 88.372952 259.772903 
L 88.789196 261.641316 
L 89.205439 264.132534 
L 89.829805 271.139054 
L 90.662292 278.301365 
L 91.702902 284.840751 
L 91.911024 284.996544 
L 92.327267 286.397823 
L 92.535389 286.864957 
L 92.743511 288.110566 
L 92.951633 287.331969 
L 94.200364 292.625868 
L 94.616608 293.248672 
L 94.82473 293.093001 
L 95.657217 285.930689 
L 95.865339 284.062276 
L 96.073461 283.750813 
L 96.281583 282.505204 
L 96.489705 282.505204 
L 96.697827 283.128009 
L 98.362801 291.380259 
L 98.570923 291.380259 
L 98.779045 292.470197 
L 99.195289 291.380259 
L 99.403411 292.003063 
L 99.611533 291.224466 
L 99.819655 291.224466 
L 100.027776 291.847271 
L 100.235898 290.913125 
L 100.652142 292.781538 
L 100.860264 293.871477 
L 101.276508 294.494281 
L 101.484629 295.584219 
L 101.692751 295.584219 
L 101.900873 295.272756 
L 102.108995 295.895561 
L 102.317117 295.895561 
L 102.525239 295.584219 
L 102.733361 295.584219 
L 102.941483 295.73989 
L 103.149604 295.272756 
L 103.982092 297.452633 
L 104.190214 297.608303 
L 104.398336 298.386778 
L 104.606457 298.386778 
L 104.814579 299.165254 
L 105.022701 298.853912 
L 105.230823 300.099521 
L 105.438945 300.255192 
L 105.647067 300.722325 
L 105.855189 300.099521 
L 106.063311 301.967934 
L 106.271432 301.656471 
L 106.479554 301.656471 
L 107.10392 303.680677 
L 107.312042 303.992018 
L 107.728285 305.393298 
L 107.936407 305.704761 
L 108.144529 305.237627 
L 108.352651 305.081957 
L 108.560773 305.54909 
L 108.768895 304.614823 
L 109.185139 305.54909 
L 109.39326 306.327565 
L 109.601382 304.926286 
L 110.017626 307.106041 
L 110.225748 307.261711 
L 110.641992 307.884516 
L 111.058235 308.818783 
L 111.266357 308.663113 
L 111.474479 309.753051 
L 111.682601 310.220063 
L 111.890723 310.375855 
L 112.098845 310.220063 
L 112.306967 310.842867 
L 112.515088 312.088476 
L 112.72321 311.777135 
L 112.931332 312.088476 
L 113.139454 312.867073 
L 113.347576 313.178414 
L 113.555698 313.022744 
L 113.76382 314.579694 
L 113.971941 314.735486 
L 114.180063 315.202498 
L 114.388185 316.136766 
L 114.596307 316.292437 
L 114.804429 315.669632 
L 115.220673 315.358291 
L 115.636916 314.579694 
L 115.845038 314.735486 
L 116.05316 312.867073 
L 116.261282 312.088476 
L 116.469404 312.088476 
L 116.677526 311.465672 
L 116.885648 312.244269 
L 117.093769 312.399939 
L 117.301891 311.465672 
L 117.510013 311.932805 
L 117.718135 312.088476 
L 117.926257 311.932805 
L 118.134379 311.621464 
L 118.342501 312.244269 
L 118.550623 312.244269 
L 118.966866 313.334085 
L 119.174988 313.645548 
L 120.007476 315.825303 
L 120.215597 315.981095 
L 120.423719 317.382375 
L 120.631841 317.226704 
L 120.839963 317.849509 
L 121.048085 318.939325 
L 121.256207 319.095117 
L 121.464329 318.783654 
L 121.672451 319.56213 
L 122.088694 319.56213 
L 122.504938 319.095117 
L 122.71306 319.406459 
L 122.921182 318.939325 
L 123.129304 319.095117 
L 123.337425 319.095117 
L 123.545547 319.56213 
L 124.169913 318.783654 
L 124.378035 319.873593 
L 124.586157 320.184934 
L 124.794279 319.873593 
L 125.0024 320.963531 
L 125.210522 321.430543 
L 125.418644 322.20914 
L 125.626766 322.20914 
L 125.834888 321.897677 
L 126.04301 320.963531 
L 126.251132 318.316521 
L 126.459253 318.005179 
L 126.875497 314.891157 
L 127.083619 313.801219 
L 127.291741 313.334085 
L 127.499863 312.55561 
L 127.707985 313.022744 
L 127.916107 313.178414 
L 128.124228 313.178414 
L 128.33235 312.711281 
L 128.540472 313.022744 
L 128.748594 313.95689 
L 128.956716 314.268353 
L 129.164838 315.202498 
L 129.37296 314.579694 
L 129.581081 313.489877 
L 129.997325 308.818783 
L 130.621691 299.165254 
L 131.037935 293.404343 
L 132.286666 263.198266 
L 132.494788 262.731133 
L 132.702909 263.198266 
L 133.119153 266.779422 
L 133.743519 275.654355 
L 134.159763 278.301365 
L 134.576006 282.816667 
L 135.200372 287.954774 
L 135.408494 289.044712 
L 135.616616 289.200382 
L 135.824737 289.200382 
L 136.032859 288.421907 
L 136.240981 288.110566 
L 136.449103 286.553494 
L 136.657225 287.176298 
L 136.865347 286.864957 
L 137.073469 288.110566 
L 137.281591 288.110566 
L 137.489712 289.200382 
L 137.905956 292.003063 
L 138.738444 296.207024 
L 138.946565 296.674036 
L 139.154687 297.763974 
L 139.570931 298.542449 
L 139.779053 299.94385 
L 139.987175 299.788058 
L 140.195297 299.788058 
L 140.403419 299.94385 
L 140.61154 300.410862 
L 140.819662 300.099521 
L 141.027784 300.255192 
L 141.235906 299.632387 
L 141.444028 299.94385 
L 141.65215 299.788058 
L 141.860272 299.94385 
L 142.068393 300.566655 
L 142.276515 300.255192 
L 142.692759 301.656471 
L 142.900881 300.099521 
L 143.109003 299.476717 
L 143.525247 299.476717 
L 143.733368 299.165254 
L 143.94149 299.321046 
L 144.149612 299.632387 
L 144.357734 298.698241 
L 144.565856 296.829828 
L 145.190221 284.217947 
L 145.606465 277.989902 
L 146.022709 276.121489 
L 146.230831 276.588623 
L 146.647075 279.546974 
L 147.479562 287.176298 
L 148.936415 295.428427 
L 149.352659 297.29684 
L 149.560781 298.231108 
L 149.977024 303.213543 
L 150.185146 301.812264 
L 150.393268 299.165254 
L 150.809512 297.763974 
L 151.017634 297.763974 
L 151.641999 290.913125 
L 151.850121 290.13465 
L 152.058243 289.823187 
L 152.266365 289.044712 
L 152.682609 291.068796 
L 152.890731 290.913125 
L 153.098852 288.73337 
L 153.306974 289.823187 
L 153.93134 295.272756 
L 154.763827 299.009583 
L 154.971949 298.542449 
L 155.388193 300.566655 
L 155.804437 301.033667 
L 156.22068 303.369214 
L 156.428802 303.836348 
L 156.636924 316.6039 
L 156.845046 313.645548 
L 157.26129 300.566655 
L 157.469412 301.500801 
L 157.885655 306.327565 
L 158.093777 307.573174 
L 158.301899 308.040308 
L 158.926265 303.836348 
L 159.134387 301.812264 
L 159.342508 301.967934 
L 159.55063 300.566655 
L 159.758752 302.74641 
L 159.966874 303.680677 
L 160.174996 305.393298 
L 160.383118 305.237627 
L 160.59124 305.704761 
L 160.799361 306.638907 
L 161.007483 315.513961 
L 161.215605 315.669632 
L 161.631849 318.939325 
L 162.048093 329.215659 
L 162.256215 334.509558 
L 162.464336 333.41962 
L 162.672458 333.108157 
L 162.88058 329.994134 
L 163.088702 322.676152 
L 163.296824 322.053347 
L 163.713068 358.954602 
L 163.921189 358.667462 
L 164.129311 359.134475 
L 164.337433 360.535876 
L 164.545555 361.00301 
L 164.753677 358.823133 
L 165.169921 349.169603 
L 166.002408 322.856146 
L 166.21053 321.299074 
L 166.418652 323.946084 
L 166.626774 324.724559 
L 166.834896 327.994252 
L 167.043017 328.617057 
L 167.251139 329.862666 
L 167.459261 332.353883 
L 167.875505 333.132359 
L 168.083627 333.132359 
L 168.707992 329.551324 
L 169.124236 326.904314 
L 169.332358 325.191693 
L 169.956724 324.413096 
L 170.372967 327.682911 
L 170.789211 329.706995 
L 170.997333 330.174129 
L 171.413577 332.821017 
L 171.82982 335.156564 
L 172.246064 323.790292 
L 172.662308 322.700475 
L 172.87043 322.544683 
L 173.078552 323.790292 
L 173.286673 330.174129 
L 173.494795 332.509554 
L 173.702917 332.976688 
L 173.911039 333.910955 
L 174.119161 334.066626 
L 174.535405 335.312235 
L 174.743527 335.312235 
L 175.15977 336.557844 
L 175.367892 335.935039 
L 175.784136 337.336319 
L 175.992258 337.024978 
L 176.408501 337.803453 
L 176.616623 338.114916 
L 176.824745 338.893391 
L 177.032867 338.581928 
L 177.449111 335.467906 
L 178.073476 326.904314 
L 178.48972 323.47895 
L 178.905964 322.544683 
L 179.114086 323.167487 
L 179.946573 327.060106 
L 180.154695 326.28151 
L 180.362817 322.233342 
L 180.570939 322.856146 
L 180.779061 326.904314 
L 180.987183 326.592973 
L 181.195304 326.592973 
L 181.403426 327.371448 
L 181.611548 327.215777 
L 181.81967 326.125839 
L 182.027792 331.88675 
L 182.235914 333.910955 
L 182.444036 332.509554 
L 182.652157 332.353883 
L 182.860279 331.419738 
L 183.276523 331.731079 
L 183.484645 332.198213 
L 183.692767 332.198213 
L 184.317132 334.222297 
L 184.525254 334.845101 
L 184.733376 336.713515 
L 184.941498 336.557844 
L 185.14962 336.09071 
L 185.357742 336.557844 
L 185.565864 336.09071 
L 185.982107 334.377967 
L 186.606473 324.88023 
L 186.814595 323.946084 
L 187.230839 324.88023 
L 187.43896 325.035901 
L 187.647082 325.347364 
L 187.855204 325.347364 
L 188.063326 325.035901 
L 188.271448 324.101755 
L 188.687692 327.215777 
L 188.895813 326.592973 
L 189.103935 327.371448 
L 189.312057 326.748643 
L 189.728301 323.790292 
L 190.144545 324.568889 
L 190.560788 316.005297 
L 190.76891 323.011817 
L 190.977032 335.467906 
L 191.185154 337.336319 
L 191.185154 337.336319 
" clip-path="url(#p2ab6f83474)" style="fill: none; stroke: #008000; stroke-width: 0.5; stroke-linecap: square"/>
   </g>
   <g id="line2d_36">
    <defs>
     <path id="mec2c02ba7d" d="M 0 2 
C 0.530406 2 1.03916 1.789267 1.414214 1.414214 
C 1.789267 1.03916 2 0.530406 2 0 
C 2 -0.530406 1.789267 -1.03916 1.414214 -1.414214 
C 1.03916 -1.789267 0.530406 -2 0 -2 
C -0.530406 -2 -1.03916 -1.789267 -1.414214 -1.414214 
C -1.789267 -1.03916 -2 -0.530406 -2 0 
C -2 0.530406 -1.789267 1.03916 -1.414214 1.414214 
C -1.03916 1.789267 -0.530406 2 0 2 
z
" style="stroke: #006400"/>
    </defs>
    <g clip-path="url(#p2ab6f83474)">
     <use xlink:href="#mec2c02ba7d" x="84.418636" y="292.182936" style="fill: #006400; stroke: #006400"/>
     <use xlink:href="#mec2c02ba7d" x="191.185154" y="337.336319" style="fill: #006400; stroke: #006400"/>
    </g>
   </g>
   <g id="line2d_37">
    <path d="M 205.961807 316.75957 
L 206.169928 297.763974 
L 206.37805 295.272756 
L 206.794294 294.494281 
L 207.002416 295.584219 
L 207.210538 295.895561 
L 207.41866 295.895561 
L 207.626781 297.29684 
L 208.043025 298.386778 
L 209.083635 301.812264 
L 209.291756 302.590739 
L 209.499878 298.853912 
L 209.708 300.877996 
L 210.124244 299.632387 
L 210.332366 299.632387 
L 210.540488 298.542449 
L 211.581097 288.73337 
L 211.997341 287.799103 
L 212.413584 289.044712 
L 213.03795 294.961415 
L 213.246072 295.272756 
L 213.454194 295.272756 
L 213.870437 298.075437 
L 214.078559 298.386778 
L 214.286681 300.099521 
L 214.494803 299.94385 
L 214.702925 300.722325 
L 214.911047 300.722325 
L 215.119169 301.033667 
L 215.535412 305.54909 
L 215.951656 306.95037 
L 216.159778 306.794699 
L 216.3679 306.794699 
L 216.576022 307.106041 
L 216.784144 306.171895 
L 216.992265 304.614823 
L 218.240997 287.954774 
L 218.449119 287.643432 
L 218.65724 287.020628 
L 218.865362 287.954774 
L 219.073484 289.667516 
L 219.281606 290.13465 
L 219.489728 291.535929 
L 219.69785 294.182818 
L 220.114093 295.584219 
L 220.322215 296.829828 
L 220.530337 297.14117 
L 221.154703 299.94385 
L 221.98719 302.279276 
L 222.195312 302.590739 
L 222.611556 303.836348 
L 222.819678 304.147689 
L 223.0278 305.393298 
L 223.235921 304.770615 
L 223.444043 304.614823 
L 223.652165 305.081957 
L 223.860287 305.081957 
L 224.068409 305.54909 
L 224.276531 306.483236 
L 224.484653 306.638907 
L 224.692775 306.638907 
L 225.109018 307.261711 
L 225.31714 307.261711 
L 225.733384 306.638907 
L 225.941506 306.638907 
L 226.149628 305.704761 
L 226.357749 306.016102 
L 226.982115 308.040308 
L 227.606481 309.597258 
L 227.814603 309.441588 
L 228.022724 309.908721 
L 228.230846 311.15433 
L 228.438968 311.465672 
L 228.64709 311.465672 
L 228.855212 312.711281 
L 229.063334 312.867073 
L 229.271456 312.711281 
L 229.687699 313.645548 
L 229.895821 313.178414 
L 230.103943 314.579694 
L 230.312065 314.424023 
L 230.520187 315.358291 
L 230.728309 315.202498 
L 230.936431 315.981095 
L 231.352674 316.448107 
L 231.560796 317.226704 
L 231.97704 316.915241 
L 232.185162 318.005179 
L 232.393284 317.538046 
L 232.601405 317.382375 
L 233.017649 318.316521 
L 233.225771 318.472313 
L 233.642015 318.939325 
L 233.850137 319.717922 
L 234.058259 319.56213 
L 234.682624 320.963531 
L 234.890746 321.119201 
L 235.098868 321.586335 
L 235.30699 321.274872 
L 235.515112 321.274872 
L 235.723234 321.897677 
L 235.931355 321.742006 
L 236.347599 323.454749 
L 236.763843 323.921761 
L 236.971965 323.298956 
L 237.180087 323.76609 
L 237.388208 323.921761 
L 237.59633 324.388894 
L 237.804452 324.544565 
L 238.012574 325.011699 
L 238.220696 324.856028 
L 238.428818 325.011699 
L 238.63694 325.945966 
L 238.845062 325.634503 
L 239.053183 326.101637 
L 239.261305 325.634503 
L 239.677549 326.880112 
L 239.885671 326.880112 
L 240.093793 327.81438 
L 240.301915 327.97005 
L 240.510036 327.81438 
L 240.718158 327.81438 
L 240.92628 327.347246 
L 241.134402 326.101637 
L 241.342524 330.616939 
L 241.550646 337.779251 
L 241.758768 338.869189 
L 241.96689 336.222179 
L 242.175011 337.000776 
L 242.383133 335.443704 
L 242.799377 334.820899 
L 243.215621 329.527001 
L 243.423743 329.527001 
L 243.631864 321.742006 
L 243.839986 318.16085 
L 244.25623 315.046828 
L 244.464352 315.825303 
L 244.880596 319.095117 
L 245.296839 317.693716 
L 246.545571 303.057873 
L 246.753692 303.369214 
L 246.961814 303.369214 
L 247.169936 305.237627 
L 247.378058 305.54909 
L 247.794302 309.130125 
L 248.002424 309.597258 
L 248.418667 311.310001 
L 248.626789 311.621464 
L 249.043033 310.687197 
L 249.459277 308.040308 
L 249.667399 303.992018 
L 250.083642 282.660997 
L 250.499886 256.036076 
L 250.91613 240.465965 
L 251.332374 234.82351 
L 251.540495 234.045035 
L 251.748617 232.799426 
L 252.372983 210.067003 
L 254.037958 162.000753 
L 254.24608 163.090691 
L 254.454202 162.000753 
L 254.870445 170.564345 
L 255.702933 195.009389 
L 256.53542 213.693644 
L 257.159786 223.814186 
L 257.367908 224.43699 
L 257.57603 221.167297 
L 258.408517 199.524812 
L 258.616639 197.81207 
L 258.824761 197.033594 
L 259.449126 205.752857 
L 260.489736 225.682599 
L 261.114101 232.221985 
L 261.322223 233.623386 
L 261.530345 233.623386 
L 261.738467 234.090398 
L 261.946589 235.64747 
L 262.154711 233.110767 
L 263.403442 241.051554 
L 263.611564 241.051554 
L 264.027807 251.016426 
L 264.235929 248.058196 
L 264.444051 247.746733 
L 264.652173 246.656794 
L 265.48466 230.463879 
L 266.109026 214.893768 
L 266.317148 215.672243 
L 266.52527 224.702968 
L 266.733392 227.505527 
L 267.149635 223.768701 
L 267.774001 227.661198 
L 267.982123 230.775342 
L 268.190245 232.020951 
L 268.398367 232.020951 
L 268.606488 232.955097 
L 268.81461 233.110767 
L 269.022732 234.356376 
L 269.230854 236.380582 
L 269.438976 236.536253 
L 269.647098 237.314728 
L 270.271463 235.601985 
L 270.479585 234.200705 
L 270.687707 234.200705 
L 270.895829 235.446314 
L 271.103951 235.913448 
L 271.312073 237.003386 
L 271.728316 240.584421 
L 272.14456 243.387101 
L 272.560804 244.788381 
L 272.768926 242.608626 
L 273.18517 225.481443 
L 273.601413 206.641518 
L 274.017657 197.610914 
L 274.225779 196.520976 
L 274.642023 200.413473 
L 275.890754 221.277483 
L 276.098876 222.21175 
L 277.139485 233.110767 
L 277.347607 233.889364 
L 277.555729 231.086683 
L 277.971972 202.74902 
L 278.596338 149.233201 
L 278.80446 141.448207 
L 278.80446 141.448207 
" clip-path="url(#p2ab6f83474)" style="fill: none; stroke: #008000; stroke-width: 0.5; stroke-linecap: square"/>
   </g>
   <g id="line2d_38">
    <g clip-path="url(#p2ab6f83474)">
     <use xlink:href="#mec2c02ba7d" x="205.961807" y="316.75957" style="fill: #006400; stroke: #006400"/>
     <use xlink:href="#mec2c02ba7d" x="278.80446" y="141.448207" style="fill: #006400; stroke: #006400"/>
    </g>
   </g>
   <g id="line2d_39">
    <path d="M 279.428826 138.801196 
L 279.845069 150.790273 
L 280.261313 166.671847 
L 280.885679 179.906411 
L 281.718166 191.739696 
L 282.966897 206.375661 
L 283.383141 208.555416 
L 283.591263 211.669438 
L 284.007507 208.866879 
L 284.215628 208.866879 
L 284.631872 206.842673 
L 284.839994 207.309807 
L 285.048116 206.687003 
L 285.46436 208.866879 
L 285.672482 210.268159 
L 286.088725 215.094923 
L 286.504969 217.897483 
L 286.921213 220.077359 
L 287.129335 219.765896 
L 287.337456 213.22651 
L 287.545578 202.638835 
L 288.169944 154.059966 
L 288.586188 140.358268 
L 288.79431 141.915219 
L 289.002431 141.759548 
L 289.210553 133.818761 
L 289.834919 90.983047 
L 290.043041 82.886589 
L 290.667406 77.592691 
L 291.08365 87.24622 
L 291.499894 103.283465 
L 291.708016 105.307549 
L 292.124259 98.30103 
L 292.332381 97.833896 
L 292.748625 102.193527 
L 293.789234 123.368878 
L 294.829844 149.993799 
L 295.454209 162.450009 
L 296.494819 174.750427 
L 296.70294 175.702451 
L 297.535428 182.241959 
L 297.74355 183.331775 
L 297.951672 185.355981 
L 298.367915 186.445797 
L 299.200403 191.584025 
L 299.408525 192.518171 
L 299.616647 192.3625 
L 299.824768 191.116891 
L 300.03289 191.272562 
L 300.449134 190.026953 
L 300.865378 191.428233 
L 301.0735 191.428233 
L 301.489743 194.230914 
L 302.322231 199.057679 
L 302.530353 199.36902 
L 303.154718 203.261639 
L 303.779084 206.064198 
L 303.987206 205.752857 
L 304.195328 201.393226 
L 304.40345 187.380065 
L 305.235937 89.737438 
L 305.444059 83.04226 
L 305.652181 91.450181 
L 306.068424 97.211091 
L 306.69279 118.386443 
L 307.525278 100.013772 
L 307.941521 108.11023 
L 308.149643 110.601448 
L 308.565887 130.842653 
L 308.774009 136.603564 
L 309.398374 163.228484 
L 309.814618 176.307378 
L 310.438984 185.200188 
L 310.647106 189.404149 
L 310.855227 190.494087 
L 311.063349 193.608109 
L 311.271471 194.542377 
L 311.479593 196.566461 
L 312.103959 205.130052 
L 312.520202 208.244075 
L 312.728324 206.998466 
L 312.936446 202.327371 
L 313.144568 179.906411 
L 313.35269 176.792389 
L 313.560812 178.193669 
L 313.977055 184.888847 
L 314.185177 185.978785 
L 314.393299 185.822993 
L 314.601421 188.15854 
L 315.225787 198.434874 
L 315.433908 199.524812 
L 315.64203 199.213349 
L 316.058274 199.680483 
L 316.474518 201.393226 
L 316.68264 201.548896 
L 317.098883 199.057679 
L 317.307005 198.590545 
L 317.515127 197.81207 
L 317.723249 197.656399 
L 317.931371 198.279203 
L 318.347615 201.237433 
L 318.97198 207.465478 
L 319.180102 209.02255 
L 319.596346 209.956696 
L 319.804468 209.645354 
L 320.428833 214.78346 
L 320.636955 222.879918 
L 320.845077 223.814186 
L 321.469443 230.509364 
L 321.677564 223.969856 
L 321.885686 161.377949 
L 321.885686 161.377949 
" clip-path="url(#p2ab6f83474)" style="fill: none; stroke: #008000; stroke-width: 0.5; stroke-linecap: square"/>
   </g>
   <g id="line2d_40">
    <g clip-path="url(#p2ab6f83474)">
     <use xlink:href="#mec2c02ba7d" x="279.428826" y="138.801196" style="fill: #006400; stroke: #006400"/>
     <use xlink:href="#mec2c02ba7d" x="321.885686" y="161.377949" style="fill: #006400; stroke: #006400"/>
    </g>
   </g>
   <g id="line2d_41">
    <path d="M 323.550661 168.989395 
L 324.383149 195.632193 
L 326.256246 228.796621 
L 327.296855 239.494482 
L 327.713099 243.231431 
L 327.92122 244.47704 
L 328.129342 246.501124 
L 328.337464 247.43527 
L 328.753708 250.705084 
L 328.96183 249.615146 
L 329.378074 245.566856 
L 329.586195 245.099844 
L 330.002439 242.764297 
L 330.210561 243.075638 
L 330.418683 246.345453 
L 330.626805 246.812465 
L 330.834927 251.327889 
L 331.25117 255.531727 
L 331.667414 259.735688 
L 332.083658 261.915564 
L 332.29178 261.29276 
L 332.499902 262.071235 
L 332.916145 274.215982 
L 333.124267 275.150128 
L 333.748633 280.288356 
L 334.164876 283.402378 
L 334.372998 283.71372 
L 334.789242 279.821222 
L 334.997364 280.288356 
L 335.205486 279.665552 
L 335.413608 279.665552 
L 335.62173 279.042747 
L 335.829851 280.444027 
L 336.246095 280.755368 
L 336.454217 278.886955 
L 336.662339 275.772933 
L 337.91107 249.303804 
L 338.119192 249.303804 
L 338.327314 247.591062 
L 338.535436 247.746733 
L 338.951679 252.573497 
L 339.159801 256.777336 
L 339.576045 257.711604 
L 339.784167 259.268676 
L 339.992289 264.562453 
L 340.200411 264.406782 
L 340.824776 259.424346 
L 341.032898 262.84971 
L 341.24102 259.89148 
L 341.449142 261.915564 
L 341.657264 261.759893 
L 341.865386 264.718123 
L 342.073507 263.316844 
L 342.281629 264.873916 
L 342.489751 268.143609 
L 342.905995 269.700559 
L 343.114117 269.077754 
L 343.53036 273.593178 
L 343.738482 274.371653 
L 343.946604 272.814581 
L 344.362848 276.240066 
L 344.779092 276.7072 
L 344.987214 282.468111 
L 345.195335 273.748849 
L 345.403457 272.191777 
L 345.611579 275.150128 
L 346.027823 272.65891 
L 346.444067 268.299279 
L 347.484676 259.424346 
L 347.692798 259.112883 
L 348.109042 257.088799 
L 348.317163 258.023067 
L 348.525285 259.580017 
L 348.733407 260.047151 
L 348.941529 262.382698 
L 349.149651 269.544888 
L 349.565895 272.65891 
L 349.774016 272.65891 
L 349.982138 271.10196 
L 350.606504 272.65891 
L 350.814626 271.880435 
L 351.022748 273.281715 
L 351.23087 273.748849 
L 351.647113 277.018542 
L 351.855235 277.018542 
L 352.063357 278.419943 
L 352.271479 277.641346 
L 352.479601 278.731284 
L 352.687723 278.731284 
L 352.895844 279.976893 
L 353.103966 279.976893 
L 353.312088 280.288356 
L 353.52021 281.066831 
L 353.728332 280.132564 
L 354.144576 286.672071 
L 354.352698 286.827742 
L 354.560819 288.540485 
L 354.768941 289.163289 
L 355.185185 286.360608 
L 355.809551 284.025183 
L 356.225794 283.402378 
L 356.85016 284.336524 
L 357.058282 283.86939 
L 357.266404 284.180853 
L 358.515135 288.540485 
L 358.723257 288.540485 
L 358.931379 288.696155 
L 359.347622 287.91768 
L 359.555744 288.851826 
L 359.763866 288.384814 
L 360.18011 289.786093 
L 360.596354 290.720239 
L 360.804475 292.432982 
L 361.012597 292.432982 
L 361.220719 292.588653 
L 361.428841 293.990054 
L 361.636963 294.457066 
L 361.845085 294.457066 
L 362.053207 295.07987 
L 362.261328 294.33861 
L 362.46945 294.961415 
L 362.677572 294.805622 
L 363.093816 295.584219 
L 363.301938 295.428427 
L 363.51006 296.051231 
L 363.718182 298.386778 
L 363.926303 297.29684 
L 364.342547 299.632387 
L 364.550669 303.057873 
L 364.758791 302.435068 
L 364.966913 300.255192 
L 365.383156 298.542449 
L 365.591278 298.542449 
L 365.7994 303.057873 
L 366.007522 301.812264 
L 366.215644 303.992018 
L 366.423766 303.369214 
L 366.631888 302.279276 
L 366.84001 303.680677 
L 367.048131 303.680677 
L 367.256253 304.303481 
L 367.464375 303.524885 
L 367.672497 303.992018 
L 367.880619 303.057873 
L 368.088741 302.74641 
L 368.296863 301.189459 
L 368.921228 292.003063 
L 369.12935 290.290321 
L 369.337472 289.511845 
L 369.545594 289.200382 
L 369.753716 289.978979 
L 369.961838 290.13465 
L 370.169959 290.757454 
L 370.794325 294.027147 
L 371.210569 294.649952 
L 371.418691 295.272756 
L 371.626812 295.428427 
L 371.834934 296.362694 
L 372.043056 301.033667 
L 372.4593 304.303481 
L 372.667422 303.992018 
L 373.083666 303.992018 
L 373.291787 304.303481 
L 373.499909 304.303481 
L 373.708031 303.836348 
L 373.916153 305.081957 
L 374.332397 303.213543 
L 374.540519 303.057873 
L 374.74864 303.213543 
L 374.956762 305.704761 
L 375.164884 306.016102 
L 375.373006 305.54909 
L 375.581128 304.303481 
L 375.78925 304.770615 
L 375.997372 305.54909 
L 376.205494 305.704761 
L 376.413615 306.171895 
L 376.621737 307.573174 
L 376.829859 306.95037 
L 377.037981 306.95037 
L 377.454225 303.992018 
L 378.286712 300.722325 
L 378.494834 298.698241 
L 378.911078 290.445991 
L 379.535443 274.720209 
L 379.743565 270.983383 
L 379.951687 269.426311 
L 380.159809 269.737774 
L 380.367931 269.737774 
L 380.576053 268.803506 
L 381.824784 242.64572 
L 382.032906 242.178586 
L 382.241028 243.268524 
L 382.865393 249.808032 
L 383.281637 250.275044 
L 383.489759 249.652239 
L 383.697881 250.275044 
L 383.906003 250.430836 
L 384.114125 250.897848 
L 384.73849 255.257479 
L 385.362856 262.264121 
L 386.195343 268.803506 
L 386.819709 272.696125 
L 387.235953 273.630271 
L 387.444074 273.630271 
L 387.652196 272.228992 
L 387.860318 272.228992 
L 388.06844 271.294724 
L 388.692806 270.516249 
L 390.149659 279.079841 
L 390.357781 278.92417 
L 390.982146 281.415388 
L 391.190268 281.8824 
L 391.39839 282.972338 
L 391.606512 283.283801 
L 391.814634 283.906605 
L 392.022755 284.062276 
L 392.438999 278.92417 
L 392.855243 272.073321 
L 393.063365 269.582103 
L 393.271487 269.27064 
L 393.479609 268.180702 
L 393.68773 268.336494 
L 393.895852 268.803506 
L 394.936462 275.810148 
L 395.560827 280.169779 
L 395.768949 280.48112 
L 396.185193 282.349534 
L 396.393315 286.553494 
L 396.601437 294.027147 
L 396.809558 294.805622 
L 397.01768 284.52941 
L 397.225802 298.542449 
L 397.433924 291.068796 
L 398.266411 234.704933 
L 398.682655 220.187545 
L 399.098899 215.360901 
L 399.307021 215.049438 
L 399.515143 217.229315 
L 399.723265 218.00779 
L 400.763874 229.062599 
L 401.596361 240.42875 
L 402.636971 249.770817 
L 404.093824 258.957213 
L 404.301946 258.178737 
L 404.510067 258.023067 
L 404.718189 258.023067 
L 404.926311 257.400141 
L 405.134433 257.400141 
L 405.550677 256.154532 
L 405.758799 253.040631 
L 406.175042 234.200705 
L 406.799408 201.036278 
L 407.00753 196.365305 
L 407.215652 195.119696 
L 407.423774 196.209634 
L 407.840017 202.282008 
L 408.048139 201.347741 
L 408.256261 193.09549 
L 409.29687 131.950348 
L 409.504992 126.656571 
L 409.713114 126.189437 
L 410.129358 132.573152 
L 410.753723 177.882327 
L 410.753723 177.882327 
" clip-path="url(#p2ab6f83474)" style="fill: none; stroke: #008000; stroke-width: 0.5; stroke-linecap: square"/>
   </g>
   <g id="line2d_42">
    <g clip-path="url(#p2ab6f83474)">
     <use xlink:href="#mec2c02ba7d" x="323.550661" y="168.989395" style="fill: #006400; stroke: #006400"/>
     <use xlink:href="#mec2c02ba7d" x="410.753723" y="177.882327" style="fill: #006400; stroke: #006400"/>
    </g>
   </g>
   <g id="line2d_43">
    <path d="M 411.586211 145.807838 
L 411.794333 121.674135 
L 412.210577 101.570723 
L 412.418698 109.355839 
L 412.62682 93.007131 
L 413.043064 97.522554 
L 413.251186 96.89975 
L 413.459308 99.390968 
L 413.875551 72.298914 
L 414.083673 80.551042 
L 414.291795 81.329639 
L 414.499917 91.605851 
L 414.708039 121.189123 
L 414.916161 132.710945 
L 415.124283 125.704425 
L 415.332405 109.51151 
L 415.540526 109.822973 
L 415.95677 91.761522 
L 416.164892 63.735322 
L 416.373014 61.088434 
L 416.581136 70.741842 
L 416.789258 70.119037 
L 417.205501 57.195815 
L 417.413623 54.704597 
L 417.621745 55.794535 
L 417.829867 60.154166 
L 418.037989 67.627819 
L 418.870476 123.057537 
L 419.28672 142.364475 
L 419.494842 149.215323 
L 419.702964 151.083737 
L 419.911086 151.550871 
L 420.535451 157.467574 
L 420.743573 164.941227 
L 420.951695 162.60568 
L 421.159817 162.761351 
L 421.992304 171.947747 
L 422.200426 167.899457 
L 422.408548 167.588115 
L 422.61667 173.81616 
L 422.824792 172.570551 
L 423.449157 174.768184 
L 424.073523 175.858122 
L 424.489767 172.89977 
L 424.90601 169.474407 
L 425.114132 169.94154 
L 425.322254 171.809954 
L 425.738498 179.594948 
L 425.94662 179.283607 
L 426.154742 179.283607 
L 426.362863 172.121295 
L 426.779107 135.220162 
L 427.195351 104.079818 
L 427.403473 90.983047 
L 427.819717 82.575248 
L 428.027838 84.755003 
L 428.444082 99.546639 
L 429.27657 132.399603 
L 429.484691 135.046492 
L 429.692813 129.129911 
L 430.317179 90.671706 
L 430.525301 84.755003 
L 430.733423 83.820735 
L 430.941545 85.689148 
L 431.149666 89.737438 
L 431.774032 115.739554 
L 432.398398 137.849173 
L 432.814641 146.724106 
L 433.439007 156.688977 
L 434.687738 169.612199 
L 434.89586 171.636405 
L 435.103982 172.25921 
L 436.144591 178.660803 
L 436.560835 180.99635 
L 436.768957 183.331775 
L 436.977079 183.95458 
L 437.809566 188.002869 
L 438.433932 189.55982 
L 438.850175 190.494087 
L 439.058297 189.55982 
L 439.474541 181.930495 
L 440.098907 170.875686 
L 440.307029 170.564345 
L 440.51515 171.031357 
L 440.723272 172.432758 
L 441.139516 177.259523 
L 441.347638 177.259523 
L 441.763882 180.684887 
L 442.180125 188.625674 
L 442.388247 202.638835 
L 442.596369 204.507248 
L 443.012613 278.886955 
L 443.012613 278.886955 
" clip-path="url(#p2ab6f83474)" style="fill: none; stroke: #008000; stroke-width: 0.5; stroke-linecap: square"/>
   </g>
   <g id="line2d_44">
    <g clip-path="url(#p2ab6f83474)">
     <use xlink:href="#mec2c02ba7d" x="411.586211" y="145.807838" style="fill: #006400; stroke: #006400"/>
     <use xlink:href="#mec2c02ba7d" x="443.012613" y="278.886955" style="fill: #006400; stroke: #006400"/>
    </g>
   </g>
   <g id="line2d_45">
    <path d="M 474.022771 228.906807 
L 474.439015 240.42875 
L 474.855258 247.123928 
L 475.06338 248.525208 
L 475.687746 254.908923 
L 475.895868 255.68752 
L 477.352721 267.832146 
L 477.977086 270.634826 
L 478.185208 270.790497 
L 478.39333 272.50324 
L 478.601452 273.126044 
L 479.017696 275.461591 
L 479.225818 275.772933 
L 479.433939 277.174334 
L 479.642061 277.641346 
L 479.850183 278.419943 
L 480.058305 278.575613 
L 480.266427 279.821222 
L 480.474549 279.509759 
L 480.682671 281.066831 
L 481.098914 282.156769 
L 481.307036 282.156769 
L 481.72328 283.86939 
L 481.931402 283.558049 
L 482.139524 284.647987 
L 482.347646 285.114999 
L 482.555767 286.049267 
L 482.763889 286.204937 
L 483.180133 287.606217 
L 483.388255 288.073351 
L 484.012621 290.253227 
L 484.220742 290.253227 
L 484.428864 290.876032 
L 484.636986 291.031702 
L 485.05323 292.744445 
L 485.261352 293.211457 
L 485.469474 294.301395 
L 485.885717 294.612858 
L 486.093839 295.07987 
L 486.510083 294.805622 
L 486.926327 296.207024 
L 487.134449 295.895561 
L 487.34257 297.608303 
L 487.550692 297.452633 
L 487.758814 297.608303 
L 488.175058 299.321046 
L 488.38318 299.321046 
L 488.799423 300.099521 
L 489.007545 300.877996 
L 489.215667 301.189459 
L 489.423789 301.812264 
L 489.631911 301.656471 
L 489.840033 302.123605 
L 490.048155 300.566655 
L 490.880642 291.6916 
L 491.088764 290.13465 
L 491.296886 289.511845 
L 491.505008 291.068796 
L 491.921251 292.003063 
L 492.337495 294.961415 
L 492.545617 295.272756 
L 493.169983 299.476717 
L 493.586226 301.34513 
L 493.794348 302.123605 
L 494.210592 310.375855 
L 494.418714 310.375855 
L 494.626836 311.777135 
L 494.834958 312.399939 
L 495.043079 312.088476 
L 495.251201 310.531526 
L 496.083689 295.428427 
L 496.499933 288.73337 
L 496.708054 286.242153 
L 496.916176 285.930689 
L 497.124298 286.08636 
L 497.33242 287.020628 
L 497.748664 290.913125 
L 499.621761 303.680677 
L 499.829882 304.147689 
L 500.038004 305.237627 
L 500.246126 305.081957 
L 501.078614 308.663113 
L 501.286735 308.50732 
L 501.494857 307.728845 
L 501.702979 305.237627 
L 502.327345 302.279276 
L 503.576076 281.726729 
L 503.99232 277.834232 
L 504.200442 277.678561 
L 504.408563 280.325449 
L 504.616685 281.415388 
L 504.824807 283.128009 
L 505.032929 281.571058 
L 505.241051 284.52941 
L 505.449173 284.840751 
L 506.28166 293.093001 
L 507.32227 297.608303 
L 507.530391 299.632387 
L 507.946635 300.410862 
L 508.362879 301.812264 
L 508.571001 302.279276 
L 508.987245 303.836348 
L 509.195366 302.74641 
L 509.61161 305.237627 
L 509.819732 305.393298 
L 510.027854 307.261711 
L 510.444098 308.50732 
L 510.652219 309.908721 
L 510.860341 312.244269 
L 511.068463 312.244269 
L 511.276585 312.088476 
L 511.484707 312.244269 
L 511.692829 312.711281 
L 511.900951 312.711281 
L 512.109073 313.022744 
L 512.317194 312.55561 
L 512.525316 311.777135 
L 512.733438 312.711281 
L 512.94156 312.711281 
L 513.149682 313.178414 
L 513.357804 314.112682 
L 513.774047 314.891157 
L 513.982169 316.6039 
L 514.190291 316.6039 
L 514.606535 318.939325 
L 514.814657 318.627984 
L 515.022779 318.627984 
L 515.230901 318.939325 
L 515.439022 317.382375 
L 515.647144 317.538046 
L 516.063388 313.022744 
L 516.479632 308.663113 
L 516.687754 307.417504 
L 516.895875 307.106041 
L 517.103997 307.261711 
L 517.520241 308.040308 
L 518.352729 312.399939 
L 518.56085 313.334085 
L 518.768972 314.891157 
L 518.977094 315.202498 
L 519.185216 315.046828 
L 519.60146 317.849509 
L 519.809582 318.316521 
L 520.017703 318.16085 
L 520.225825 319.873593 
L 520.433947 319.873593 
L 520.642069 320.807738 
L 520.850191 320.496397 
L 521.058313 321.119201 
L 521.266435 322.20914 
L 521.474557 322.676152 
L 521.682678 322.36481 
L 522.098922 324.856028 
L 522.307044 322.987615 
L 522.515166 323.298956 
L 522.723288 322.520481 
L 522.93141 322.20914 
L 523.347653 322.520481 
L 523.555775 323.454749 
L 523.763897 322.676152 
L 523.972019 322.831944 
L 524.180141 322.36481 
L 524.388263 320.963531 
L 524.596385 321.119201 
L 524.804506 321.119201 
L 525.012628 321.274872 
L 525.22075 321.897677 
L 525.428872 322.987615 
L 525.636994 323.298956 
L 525.845116 322.520481 
L 526.053238 323.454749 
L 526.26136 323.298956 
L 526.469481 323.76609 
L 526.677603 323.76609 
L 526.885725 324.233224 
L 527.093847 326.412978 
L 527.301969 326.568771 
L 527.718213 327.191575 
L 527.926334 322.987615 
L 528.134456 321.430543 
L 528.342578 321.897677 
L 528.5507 320.652068 
L 528.966944 312.55561 
L 529.383188 304.926286 
L 529.591309 312.55561 
L 530.215675 306.171895 
L 530.423797 308.195979 
L 530.631919 308.818783 
L 530.840041 308.040308 
L 532.296894 315.046828 
L 532.505016 317.538046 
L 532.713137 322.20914 
L 532.921259 321.742006 
L 533.129381 322.676152 
L 533.337503 321.586335 
L 533.545625 321.430543 
L 533.753747 322.676152 
L 533.961869 321.586335 
L 534.16999 321.897677 
L 534.378112 322.831944 
L 534.586234 322.676152 
L 535.2106 324.544565 
L 535.418722 324.544565 
L 535.626844 325.16737 
L 535.834965 325.011699 
L 536.043087 325.945966 
L 536.251209 330.77261 
L 536.459331 332.796815 
L 536.667453 329.527001 
L 537.083697 332.485352 
L 537.291818 331.084073 
L 537.49994 333.108157 
L 537.708062 330.77261 
L 537.916184 329.994134 
L 538.124306 328.281513 
L 538.332428 328.125721 
L 538.54055 327.502917 
L 538.748672 327.97005 
L 538.956793 328.748526 
L 539.164915 329.059989 
L 539.373037 333.886753 
L 539.581159 331.862548 
L 539.997403 330.461268 
L 540.621768 330.928402 
L 540.82989 332.018218 
L 541.038012 329.994134 
L 541.246134 324.544565 
L 542.078621 315.981095 
L 542.286743 316.292437 
L 542.494865 314.891157 
L 542.911109 317.538046 
L 543.327353 319.406459 
L 543.535474 319.250788 
L 543.951718 319.56213 
L 544.15984 317.070912 
L 544.576084 315.046828 
L 544.784206 315.358291 
L 544.992328 315.202498 
L 545.200449 315.202498 
L 545.408571 314.891157 
L 545.616693 315.202498 
L 545.824815 316.75957 
L 546.032937 316.448107 
L 546.449181 317.226704 
L 546.657302 308.974454 
L 546.865424 308.195979 
L 547.073546 322.053347 
L 547.281668 327.347246 
L 547.48979 322.520481 
L 547.697912 322.520481 
L 547.906034 322.987615 
L 548.530399 321.742006 
L 548.738521 321.742006 
L 548.946643 321.119201 
L 549.154765 321.274872 
L 549.362887 320.807738 
L 549.571009 321.742006 
L 549.77913 322.053347 
L 549.987252 322.053347 
L 550.611618 324.077553 
L 550.81974 325.323162 
L 551.235984 329.682793 
L 551.444105 330.305597 
L 551.860349 329.37133 
L 552.068471 328.281513 
L 552.276593 328.904318 
L 552.484715 329.059989 
L 552.692837 329.059989 
L 552.900958 329.215659 
L 553.10908 329.682793 
L 553.317202 329.215659 
L 553.525324 329.838464 
L 553.733446 329.994134 
L 553.941568 329.994134 
L 554.774055 331.395414 
L 555.190299 338.869189 
L 555.398421 339.803335 
L 555.606543 339.647664 
L 555.814665 338.402055 
L 556.022786 338.869189 
L 556.230908 338.557726 
L 556.647152 339.18053 
L 556.855274 339.803335 
L 557.063396 339.647664 
L 557.271518 338.090592 
L 557.47964 338.557726 
L 557.687761 339.491993 
L 557.895883 339.647664 
L 558.104005 339.959006 
L 558.312127 337.934921 
L 558.520249 337.62358 
L 558.728371 338.246385 
L 558.936493 338.402055 
L 559.144614 338.402055 
L 559.352736 336.377971 
L 559.560858 337.156446 
L 559.76898 337.156446 
L 559.977102 338.402055 
L 560.185224 338.557726 
L 560.601468 338.557726 
L 560.809589 337.934921 
L 561.017711 338.090592 
L 561.225833 337.62358 
L 561.433955 337.62358 
L 561.642077 338.246385 
L 561.850199 338.090592 
L 562.058321 338.713397 
L 562.266442 338.713397 
L 562.474564 338.557726 
L 563.09893 339.959006 
L 563.307052 339.491993 
L 563.515174 340.114798 
L 563.723296 339.803335 
L 563.931417 339.803335 
L 564.139539 340.270469 
L 564.347661 339.491993 
L 564.555783 340.426139 
L 565.180149 339.647664 
L 565.38827 340.893273 
L 565.596392 344.007295 
L 565.804514 353.660703 
L 566.012636 354.127837 
L 566.42888 360.04454 
L 566.637002 356.643257 
L 567.261367 351.816614 
L 568.093855 341.384609 
L 568.510098 338.73772 
L 569.134464 339.671866 
L 569.550708 341.69595 
L 569.75883 341.69595 
L 569.966952 343.253022 
L 570.175073 343.408693 
L 570.591317 344.965765 
L 570.799439 345.277106 
L 571.007561 346.055581 
L 571.215683 346.367044 
L 571.423805 345.74424 
L 571.631926 347.145519 
L 571.840048 346.678386 
L 572.04817 346.989849 
L 572.256292 346.989849 
L 572.464414 346.367044 
L 573.08878 343.408693 
L 573.296901 343.253022 
L 573.505023 342.474547 
L 573.713145 342.163084 
L 573.921267 342.318755 
L 574.129389 342.630218 
L 574.753754 344.809972 
L 574.961876 344.965765 
L 575.169998 346.211374 
L 575.37812 346.055581 
L 575.586242 346.055581 
L 575.794364 345.899911 
L 576.418729 347.923995 
L 576.626851 348.235458 
L 576.834973 348.235458 
L 577.251217 349.169603 
L 577.459339 349.169603 
L 577.875582 349.481066 
L 578.083704 349.9482 
L 578.291826 350.103871 
L 578.499948 350.103871 
L 578.916192 350.882346 
L 579.540557 349.636737 
L 579.748679 349.636737 
L 579.956801 349.013933 
L 580.164923 349.169603 
L 580.373045 349.636737 
L 580.789289 348.702591 
L 581.205532 349.792408 
L 581.413654 349.792408 
L 581.621776 351.972284 
L 581.829898 352.750759 
L 582.03802 352.595089 
L 582.246142 354.463502 
L 582.454264 359.445938 
L 582.662385 357.266061 
L 582.870507 343.253022 
L 583.078629 277.702763 
L 583.078629 277.702763 
" clip-path="url(#p2ab6f83474)" style="fill: none; stroke: #008000; stroke-width: 0.5; stroke-linecap: square"/>
   </g>
   <g id="line2d_46">
    <g clip-path="url(#p2ab6f83474)">
     <use xlink:href="#mec2c02ba7d" x="474.022771" y="228.906807" style="fill: #006400; stroke: #006400"/>
     <use xlink:href="#mec2c02ba7d" x="583.078629" y="277.702763" style="fill: #006400; stroke: #006400"/>
    </g>
   </g>
   <g id="line2d_47">
    <path d="M 585.576092 254.441911 
L 585.992335 268.922084 
L 587.032945 291.965848 
L 587.449188 311.621464 
L 587.65731 314.268353 
L 588.073554 329.059989 
L 588.489798 340.270469 
L 588.69792 339.647664 
L 589.114163 332.641145 
L 589.322285 331.084073 
L 589.530407 330.461268 
L 590.154773 333.57529 
L 590.362894 333.57529 
L 590.571016 334.509558 
L 590.779138 334.665229 
L 591.195382 336.377971 
L 591.611626 353.193691 
L 591.819748 352.103753 
L 592.027869 354.906312 
L 592.235991 355.217775 
L 592.444113 353.972166 
L 592.652235 353.660703 
L 593.276601 350.546803 
L 593.484722 351.013815 
L 593.900966 352.726557 
L 594.109088 354.750642 
L 594.31721 355.217775 
L 594.733454 357.864664 
L 594.941576 355.709111 
L 595.149697 356.95472 
L 595.565941 358.044658 
L 597.230916 362.871423 
L 597.439038 362.871423 
L 597.855282 361.937155 
L 598.063404 361.781485 
L 598.271525 361.781485 
L 598.479647 361.15868 
L 598.687769 361.15868 
L 599.312135 364.739836 
L 599.520257 364.428373 
L 599.9365 365.985445 
L 600.144622 365.673982 
L 600.352744 366.296787 
L 600.560866 365.673982 
L 600.768988 366.296787 
L 601.393353 353.217893 
L 602.017719 347.768324 
L 602.225841 347.612653 
L 602.433963 347.612653 
L 602.642085 347.923995 
L 603.058328 349.636737 
L 603.26645 349.325396 
L 604.30706 353.685027 
L 605.139547 356.020452 
L 605.347669 356.176245 
L 605.763913 357.110391 
L 605.972034 357.266061 
L 606.180156 357.110391 
L 606.388278 357.421854 
L 607.012644 359.134475 
L 607.220766 358.978804 
L 607.428888 358.667462 
L 607.637009 355.55344 
L 607.845131 342.007413 
L 608.053253 341.384609 
L 608.261375 341.540279 
L 608.469497 341.540279 
L 608.677619 341.073146 
L 608.885741 340.29467 
L 609.301984 336.869185 
L 609.510106 335.935039 
L 609.92635 350.103871 
L 610.342594 345.277106 
L 610.550716 343.720156 
L 610.758837 343.564363 
L 610.966959 341.073146 
L 611.383203 326.125839 
L 612.007569 300.590857 
L 612.423812 293.093001 
L 612.631934 292.158734 
L 612.840056 293.404343 
L 613.880665 306.016102 
L 614.296909 308.50732 
L 614.505031 307.884516 
L 614.713153 306.638907 
L 615.129397 306.638907 
L 615.337518 307.417504 
L 615.54564 308.818783 
L 615.753762 310.99866 
L 616.170006 317.849509 
L 617.210615 329.838464 
L 617.626859 332.485352 
L 617.834981 333.263949 
L 618.043103 333.263949 
L 618.251225 335.288033 
L 618.667468 334.509558 
L 618.87559 326.568771 
L 619.291834 339.491993 
L 619.708078 319.095117 
L 619.9162 316.75957 
L 620.124321 312.867073 
L 620.748687 270.983383 
L 621.164931 254.634675 
L 621.373053 255.724613 
L 621.581174 252.922054 
L 621.789296 254.946138 
L 622.20554 265.689484 
L 622.413662 269.737774 
L 622.829906 272.696125 
L 623.038028 272.540333 
L 623.246149 270.049115 
L 623.662393 259.150098 
L 624.286759 247.316692 
L 624.703002 241.867245 
L 624.911124 239.687368 
L 625.119246 240.621636 
L 625.327368 243.268524 
L 625.743612 244.825474 
L 625.951734 247.472485 
L 626.159856 247.783826 
L 626.367977 246.84968 
L 626.576099 247.005351 
L 626.992343 249.340898 
L 627.200465 251.676445 
L 627.408587 256.347418 
L 627.616709 258.215831 
L 627.82483 258.994306 
L 628.032952 260.707049 
L 628.449196 261.796987 
L 629.073562 265.533813 
L 629.281684 265.845155 
L 629.489805 266.779422 
L 629.697927 266.935093 
L 630.322293 267.71369 
L 630.530415 268.492165 
L 630.738537 268.803506 
L 630.946658 268.803506 
L 631.15478 269.114969 
L 631.362902 270.049115 
L 631.571024 268.803506 
L 631.987268 270.516249 
L 632.19539 273.31893 
L 632.403512 273.31893 
L 632.611633 273.785942 
L 632.819755 273.31893 
L 633.027877 273.630271 
L 633.235999 273.163138 
L 633.652243 270.827712 
L 633.860365 270.983383 
L 634.48473 268.959299 
L 634.692852 268.959299 
L 634.900974 268.180702 
L 635.317218 264.755338 
L 635.733461 261.174182 
L 635.941583 261.018512 
L 636.149705 260.551378 
L 636.357827 258.994306 
L 636.565949 260.084244 
L 636.774071 260.395707 
L 636.982193 261.485524 
L 637.190314 264.288205 
L 637.81468 267.869361 
L 638.230924 270.67192 
L 639.063411 274.097405 
L 640.104021 278.612707 
L 640.312142 278.612707 
L 640.520264 281.259595 
L 640.936508 283.128009 
L 641.560874 278.145573 
L 641.768996 280.013986 
L 641.977117 280.325449 
L 642.185239 279.235511 
L 642.809605 270.67192 
L 643.017727 268.959299 
L 643.43397 268.180702 
L 643.850214 264.755338 
L 644.058336 265.06668 
L 645.307067 270.360578 
L 645.515189 273.474601 
L 645.723311 274.87588 
L 645.931433 275.498685 
L 646.347677 278.457036 
L 646.555798 278.768378 
L 646.76392 278.612707 
L 646.972042 278.301365 
L 647.80453 272.540333 
L 648.012652 272.228992 
L 648.637017 274.564539 
L 649.677626 280.48112 
L 649.885748 281.259595 
L 650.301992 284.217947 
L 650.718236 291.380259 
L 650.926358 292.314405 
L 651.13448 294.494281 
L 651.342601 293.560014 
L 651.550723 289.667516 
L 652.799454 248.562301 
L 653.007576 246.693888 
L 653.215698 246.538217 
L 653.42382 247.005351 
L 653.631942 247.783826 
L 653.840064 247.783826 
L 654.048186 249.029435 
L 654.256308 259.772903 
L 654.464429 292.781538 
L 654.464429 292.781538 
" clip-path="url(#p2ab6f83474)" style="fill: none; stroke: #008000; stroke-width: 0.5; stroke-linecap: square"/>
   </g>
   <g id="line2d_48">
    <g clip-path="url(#p2ab6f83474)">
     <use xlink:href="#mec2c02ba7d" x="585.576092" y="254.441911" style="fill: #006400; stroke: #006400"/>
     <use xlink:href="#mec2c02ba7d" x="654.464429" y="292.781538" style="fill: #006400; stroke: #006400"/>
    </g>
   </g>
   <g id="line2d_49">
    <path d="M 655.505039 225.01431 
L 655.713161 245.722649 
L 655.921282 253.663314 
L 656.129404 256.465995 
L 656.545648 268.299279 
L 657.170014 274.215982 
L 657.378136 278.10848 
L 657.586257 277.174334 
L 657.794379 274.994457 
L 658.002501 274.994457 
L 658.834989 287.139205 
L 659.251232 286.827742 
L 659.667476 285.893596 
L 659.875598 288.696155 
L 660.08372 287.91768 
L 660.291842 286.672071 
L 660.708085 292.744445 
L 660.916207 294.457066 
L 661.956817 308.663113 
L 662.581182 312.867073 
L 662.789304 313.645548 
L 662.997426 315.046828 
L 663.205548 314.579694 
L 663.41367 315.358291 
L 663.621792 318.472313 
L 663.829913 319.095117 
L 664.038035 317.538046 
L 664.246157 317.382375 
L 664.454279 317.849509 
L 664.870523 320.496397 
L 665.286766 321.586335 
L 665.494888 323.454749 
L 666.327376 315.046828 
L 666.535498 315.358291 
L 666.74362 313.489877 
L 667.992351 278.768378 
L 668.200473 277.522769 
L 668.408595 278.612707 
L 668.616716 279.079841 
L 669.449204 289.356175 
L 669.657326 292.003063 
L 669.865448 292.937209 
L 670.073569 296.051231 
L 670.489813 296.674036 
L 670.697935 303.369214 
L 671.322301 310.842867 
L 671.738544 305.081957 
L 671.946666 306.483236 
L 672.154788 313.178414 
L 672.36291 313.178414 
L 672.987276 310.064392 
L 673.195397 310.99866 
L 673.403519 312.711281 
L 674.027885 308.663113 
L 674.236007 307.884516 
L 674.652251 314.112682 
L 674.860372 314.735486 
L 675.068494 314.735486 
L 675.276616 313.95689 
L 675.484738 310.531526 
L 675.69286 309.753051 
L 675.900982 309.597258 
L 676.109104 307.884516 
L 676.317225 309.597258 
L 676.733469 309.597258 
L 677.149713 335.132362 
L 677.357835 301.189459 
L 677.565957 285.463556 
L 677.9822 230.189631 
L 678.606566 185.154825 
L 679.855297 140.66961 
L 680.063419 134.753028 
L 680.271541 132.573152 
L 680.479663 132.884615 
L 680.895907 140.513939 
L 681.104028 138.334184 
L 682.144638 75.724277 
L 682.35276 73.23306 
L 683.393369 82.886589 
L 683.809613 78.838421 
L 684.017735 78.682629 
L 684.225856 80.862505 
L 684.433978 86.467745 
L 685.266466 147.502581 
L 685.474588 146.412764 
L 685.682709 145.945631 
L 685.890831 140.807524 
L 686.723319 81.018176 
L 687.555806 126.015888 
L 688.180172 190.009075 
L 688.180172 190.009075 
" clip-path="url(#p2ab6f83474)" style="fill: none; stroke: #008000; stroke-width: 0.5; stroke-linecap: square"/>
   </g>
   <g id="line2d_50">
    <g clip-path="url(#p2ab6f83474)">
     <use xlink:href="#mec2c02ba7d" x="655.505039" y="225.01431" style="fill: #006400; stroke: #006400"/>
     <use xlink:href="#mec2c02ba7d" x="688.180172" y="190.009075" style="fill: #006400; stroke: #006400"/>
    </g>
   </g>
   <g id="line2d_51">
    <path d="M 701.708093 186.400434 
L 701.916215 179.860926 
L 702.124337 214.115293 
L 702.332459 172.854407 
L 702.540581 164.491971 
L 702.748703 175.858122 
L 702.956824 165.270446 
L 703.373068 135.531503 
L 703.789312 118.871454 
L 703.997434 116.84737 
L 704.205556 118.871454 
L 704.621799 127.435046 
L 705.246165 143.627961 
L 705.454287 146.897654 
L 705.662409 147.053447 
L 705.870531 146.586313 
L 706.078652 176.480926 
L 706.286774 159.353865 
L 706.703018 164.180508 
L 707.119262 173.522575 
L 707.327384 180.840557 
L 707.743627 158.886731 
L 708.159871 142.849486 
L 708.367993 139.735464 
L 708.784237 137.71138 
L 708.992359 136.309979 
L 709.20048 144.717899 
L 709.616724 178.816473 
L 710.032968 195.632193 
L 711.489821 228.640951 
L 712.322308 240.273079 
L 713.362918 249.770817 
L 713.57104 251.172218 
L 713.779161 251.63923 
L 714.195405 254.130448 
L 714.403527 254.597581 
L 714.611649 255.68752 
L 714.819771 255.68752 
L 715.236015 254.286118 
L 715.444136 253.974777 
L 715.652258 254.130448 
L 715.86038 254.130448 
L 716.068502 255.68752 
L 716.484746 257.24447 
L 716.692868 258.178737 
L 716.900989 258.334408 
L 717.317233 258.334408 
L 717.525355 258.023067 
L 717.733477 258.178737 
L 718.357843 260.202821 
L 718.565964 260.669955 
L 720.022817 266.119525 
L 720.439061 268.45495 
L 720.647183 269.544888 
L 720.855305 267.209463 
L 721.063427 261.29276 
L 722.104036 213.336696 
L 722.312158 211.156941 
L 722.52028 210.222674 
L 723.560889 140.358268 
L 723.769011 140.202598 
L 723.977133 143.783632 
L 724.185255 150.011798 
L 724.393377 149.388994 
L 725.225864 97.833896 
L 725.433986 95.031337 
L 725.642108 95.965483 
L 726.682717 124.92595 
L 727.515205 107.954559 
L 727.931448 116.051017 
L 728.347692 130.064056 
L 728.972058 153.107942 
L 729.388301 162.761351 
L 729.596423 163.228484 
L 729.804545 161.2044 
L 730.012667 157.778915 
L 730.220789 156.377635 
L 730.428911 156.688977 
L 730.845155 159.180316 
L 731.053276 159.180316 
L 731.677642 154.820563 
L 731.885764 155.59916 
L 732.093886 157.156111 
L 732.510129 163.539826 
L 732.718251 168.522261 
L 733.342617 204.351456 
L 733.550739 221.322968 
L 733.758861 220.855834 
L 733.966983 212.915047 
L 734.79947 165.114775 
L 735.007592 173.989708 
L 735.423836 181.463362 
L 736.048201 197.96774 
L 736.672567 213.849315 
L 737.296932 223.347052 
L 737.505054 224.281319 
L 739.586273 249.770817 
L 739.794395 253.040631 
L 740.210639 253.819106 
L 740.41876 253.819106 
L 740.835004 252.106364 
L 741.043126 252.106364 
L 741.875613 240.584421 
L 742.499979 226.882723 
L 742.708101 225.637114 
L 742.916223 226.415589 
L 743.124345 228.906807 
L 743.74871 243.698443 
L 744.581198 254.597581 
L 744.78932 255.84319 
L 745.205563 259.112883 
L 745.621807 261.604101 
L 745.829929 261.29276 
L 746.038051 259.735688 
L 746.246173 256.465995 
L 746.454295 255.220386 
L 747.07866 238.404666 
L 747.286782 235.757777 
L 747.703026 215.360901 
L 748.119269 193.718295 
L 748.535513 180.32806 
L 748.743635 179.082451 
L 748.951757 180.016597 
L 749.368001 187.646043 
L 750.200488 207.887126 
L 751.032976 219.409069 
L 752.073585 227.661198 
L 752.281707 228.439795 
L 752.489829 229.996745 
L 752.697951 230.463879 
L 753.114194 232.487963 
L 753.322316 232.955097 
L 753.946682 235.913448 
L 754.154804 236.380582 
L 755.195413 240.895884 
L 755.611657 241.83003 
L 755.819779 242.608626 
L 756.0279 242.919968 
L 756.236022 242.141493 
L 756.444144 239.650275 
L 756.860388 231.086683 
L 757.692875 203.060483 
L 757.900997 199.634998 
L 758.109119 199.790669 
L 758.525363 204.617434 
L 758.941607 209.288528 
L 759.149728 216.917852 
L 759.774094 225.637114 
L 759.982216 225.948577 
L 760.39846 232.176621 
L 760.606581 233.110767 
L 760.814703 235.134973 
L 761.022825 235.913448 
L 761.439069 241.518688 
L 761.647191 239.494482 
L 761.855313 241.051554 
L 762.063435 240.42875 
L 763.104044 232.643755 
L 763.312166 233.110767 
L 763.520288 232.332292 
L 763.728409 232.799426 
L 763.936531 231.398146 
L 764.144653 231.398146 
L 764.352775 230.463879 
L 764.769019 231.553817 
L 765.185263 234.200705 
L 765.809628 239.650275 
L 766.225872 242.608626 
L 767.058359 247.43527 
L 767.266481 248.681 
L 767.682725 249.770817 
L 767.890847 249.303804 
L 768.098969 249.770817 
L 768.307091 248.058196 
L 768.515212 251.950693 
L 769.139578 240.273079 
L 769.555822 221.744617 
L 769.972065 206.952981 
L 770.596431 195.275367 
L 770.804553 189.670127 
L 771.012675 189.825798 
L 771.428919 183.130619 
L 771.63704 184.064887 
L 771.845162 188.580189 
L 772.261406 201.659082 
L 773.093893 218.474924 
L 773.302015 220.187545 
L 773.926381 231.398146 
L 774.134503 229.062599 
L 774.550747 230.463879 
L 774.758868 230.152537 
L 774.96699 231.086683 
L 775.175112 230.61955 
L 775.383234 230.931013 
L 775.591356 229.373941 
L 776.0076 219.409069 
L 776.215721 217.540656 
L 776.423843 217.540656 
L 776.631965 218.163461 
L 776.840087 219.720533 
L 777.880696 230.931013 
L 778.088818 232.643755 
L 778.29694 231.709488 
L 779.129428 224.547176 
L 779.337549 225.01431 
L 779.545671 224.547176 
L 779.753793 225.325773 
L 779.961915 225.637114 
L 780.586281 231.242354 
L 780.794403 232.332292 
L 781.210646 235.290644 
L 781.418768 236.380582 
L 781.835012 237.159057 
L 782.043134 237.470398 
L 782.459377 238.8718 
L 782.667499 238.716007 
L 782.875621 234.979181 
L 783.083743 225.01431 
L 783.916231 162.934899 
L 783.916231 162.934899 
" clip-path="url(#p2ab6f83474)" style="fill: none; stroke: #008000; stroke-width: 0.5; stroke-linecap: square"/>
   </g>
   <g id="line2d_52">
    <g clip-path="url(#p2ab6f83474)">
     <use xlink:href="#mec2c02ba7d" x="701.708093" y="186.400434" style="fill: #006400; stroke: #006400"/>
     <use xlink:href="#mec2c02ba7d" x="783.916231" y="162.934899" style="fill: #006400; stroke: #006400"/>
    </g>
   </g>
   <g id="line2d_53">
    <path d="M 784.540596 156.862525 
L 785.164962 175.858122 
L 785.789327 192.985305 
L 786.205571 199.680483 
L 787.24618 208.088282 
L 787.454302 209.17822 
L 789.327399 223.814186 
L 789.535521 223.969856 
L 789.743643 224.748332 
L 789.951765 224.748332 
L 790.159887 224.125527 
L 790.368008 224.904124 
L 790.57613 225.215465 
L 790.784252 226.305403 
L 790.992374 226.772537 
L 791.200496 227.862354 
L 791.408618 228.329487 
L 791.61674 229.575096 
L 791.824861 228.952292 
L 792.032983 224.592661 
L 793.073593 176.325255 
L 793.281715 174.301171 
L 793.489836 174.456842 
L 793.90608 183.176104 
L 794.322324 192.20683 
L 794.530446 192.20683 
L 795.154811 188.937015 
L 795.362933 188.937015 
L 795.571055 189.248478 
L 795.987299 193.76378 
L 796.819786 204.818589 
L 797.027908 204.351456 
L 797.652274 195.009389 
L 797.860396 193.608109 
L 798.068517 194.230914 
L 798.484761 198.279203 
L 799.317249 210.890963 
L 799.525371 212.915047 
L 799.733492 212.603706 
L 799.941614 208.555416 
L 800.774102 176.480926 
L 800.982224 173.522575 
L 801.190345 173.989708 
L 801.606589 180.684887 
L 802.230955 195.787986 
L 802.85532 206.219869 
L 803.479686 212.603706 
L 803.687808 212.448035 
L 803.89593 208.711087 
L 804.728417 184.266043 
L 804.936539 182.241959 
L 805.144661 182.397629 
L 805.352783 184.577384 
L 806.601514 203.884443 
L 806.809636 206.531332 
L 807.017758 206.998466 
L 807.434001 211.82523 
L 807.642123 212.448035 
L 807.850245 208.244075 
L 808.266489 178.34934 
L 808.682733 148.454726 
L 809.098976 133.818761 
L 809.307098 133.195956 
L 809.51522 133.818761 
L 809.723342 135.998637 
L 810.139586 144.406436 
L 811.596439 177.726535 
L 812.012683 182.086166 
L 812.220804 182.397629 
L 813.053292 169.474407 
L 813.261414 169.630077 
L 813.677658 173.678367 
L 814.302023 180.529216 
L 815.134511 187.224394 
L 816.17512 197.500607 
L 816.383242 197.500607 
L 816.591364 195.632193 
L 816.591364 195.632193 
" clip-path="url(#p2ab6f83474)" style="fill: none; stroke: #008000; stroke-width: 0.5; stroke-linecap: square"/>
   </g>
   <g id="line2d_54">
    <g clip-path="url(#p2ab6f83474)">
     <use xlink:href="#mec2c02ba7d" x="784.540596" y="156.862525" style="fill: #006400; stroke: #006400"/>
     <use xlink:href="#mec2c02ba7d" x="816.591364" y="195.632193" style="fill: #006400; stroke: #006400"/>
    </g>
   </g>
   <g id="patch_3">
    <path d="M 47.81 534.04 
L 47.81 36.48525 
" style="fill: none; stroke: #000000; stroke-width: 0.8; stroke-linejoin: miter; stroke-linecap: square"/>
   </g>
   <g id="patch_4">
    <path d="M 853.2 534.04 
L 853.2 36.48525 
" style="fill: none; stroke: #000000; stroke-width: 0.8; stroke-linejoin: miter; stroke-linecap: square"/>
   </g>
   <g id="patch_5">
    <path d="M 47.81 534.04 
L 853.2 534.04 
" style="fill: none; stroke: #000000; stroke-width: 0.8; stroke-linejoin: miter; stroke-linecap: square"/>
   </g>
   <g id="patch_6">
    <path d="M 47.81 36.48525 
L 853.2 36.48525 
" style="fill: none; stroke: #000000; stroke-width: 0.8; stroke-linejoin: miter; stroke-linecap: square"/>
   </g>
   <g id="text_20">
    <!-- EDA Filtering: data_58_E4 -->
    <g transform="translate(386.219063 19.009312) scale(0.1 -0.1)">
     <defs>
      <path id="DejaVuSans-46" d="M 628 4666 
L 3309 4666 
L 3309 4134 
L 1259 4134 
L 1259 2759 
L 3109 2759 
L 3109 2228 
L 1259 2228 
L 1259 0 
L 628 0 
L 628 4666 
z
" transform="scale(0.015625)"/>
      <path id="DejaVuSans-6c" d="M 603 4863 
L 1178 4863 
L 1178 0 
L 603 0 
L 603 4863 
z
" transform="scale(0.015625)"/>
      <path id="DejaVuSans-72" d="M 2631 2963 
Q 2534 3019 2420 3045 
Q 2306 3072 2169 3072 
Q 1681 3072 1420 2755 
Q 1159 2438 1159 1844 
L 1159 0 
L 581 0 
L 581 3500 
L 1159 3500 
L 1159 2956 
Q 1341 3275 1631 3429 
Q 1922 3584 2338 3584 
Q 2397 3584 2469 3576 
Q 2541 3569 2628 3553 
L 2631 2963 
z
" transform="scale(0.015625)"/>
      <path id="DejaVuSans-67" d="M 2906 1791 
Q 2906 2416 2648 2759 
Q 2391 3103 1925 3103 
Q 1463 3103 1205 2759 
Q 947 2416 947 1791 
Q 947 1169 1205 825 
Q 1463 481 1925 481 
Q 2391 481 2648 825 
Q 2906 1169 2906 1791 
z
M 3481 434 
Q 3481 -459 3084 -895 
Q 2688 -1331 1869 -1331 
Q 1566 -1331 1297 -1286 
Q 1028 -1241 775 -1147 
L 775 -588 
Q 1028 -725 1275 -790 
Q 1522 -856 1778 -856 
Q 2344 -856 2625 -561 
Q 2906 -266 2906 331 
L 2906 616 
Q 2728 306 2450 153 
Q 2172 0 1784 0 
Q 1141 0 747 490 
Q 353 981 353 1791 
Q 353 2603 747 3093 
Q 1141 3584 1784 3584 
Q 2172 3584 2450 3431 
Q 2728 3278 2906 2969 
L 2906 3500 
L 3481 3500 
L 3481 434 
z
" transform="scale(0.015625)"/>
      <path id="DejaVuSans-3a" d="M 750 794 
L 1409 794 
L 1409 0 
L 750 0 
L 750 794 
z
M 750 3309 
L 1409 3309 
L 1409 2516 
L 750 2516 
L 750 3309 
z
" transform="scale(0.015625)"/>
      <path id="DejaVuSans-64" d="M 2906 2969 
L 2906 4863 
L 3481 4863 
L 3481 0 
L 2906 0 
L 2906 525 
Q 2725 213 2448 61 
Q 2172 -91 1784 -91 
Q 1150 -91 751 415 
Q 353 922 353 1747 
Q 353 2572 751 3078 
Q 1150 3584 1784 3584 
Q 2172 3584 2448 3432 
Q 2725 3281 2906 2969 
z
M 947 1747 
Q 947 1113 1208 752 
Q 1469 391 1925 391 
Q 2381 391 2643 752 
Q 2906 1113 2906 1747 
Q 2906 2381 2643 2742 
Q 2381 3103 1925 3103 
Q 1469 3103 1208 2742 
Q 947 2381 947 1747 
z
" transform="scale(0.015625)"/>
      <path id="DejaVuSans-61" d="M 2194 1759 
Q 1497 1759 1228 1600 
Q 959 1441 959 1056 
Q 959 750 1161 570 
Q 1363 391 1709 391 
Q 2188 391 2477 730 
Q 2766 1069 2766 1631 
L 2766 1759 
L 2194 1759 
z
M 3341 1997 
L 3341 0 
L 2766 0 
L 2766 531 
Q 2569 213 2275 61 
Q 1981 -91 1556 -91 
Q 1019 -91 701 211 
Q 384 513 384 1019 
Q 384 1609 779 1909 
Q 1175 2209 1959 2209 
L 2766 2209 
L 2766 2266 
Q 2766 2663 2505 2880 
Q 2244 3097 1772 3097 
Q 1472 3097 1187 3025 
Q 903 2953 641 2809 
L 641 3341 
Q 956 3463 1253 3523 
Q 1550 3584 1831 3584 
Q 2591 3584 2966 3190 
Q 3341 2797 3341 1997 
z
" transform="scale(0.015625)"/>
      <path id="DejaVuSans-5f" d="M 3263 -1063 
L 3263 -1509 
L -63 -1509 
L -63 -1063 
L 3263 -1063 
z
" transform="scale(0.015625)"/>
     </defs>
     <use xlink:href="#DejaVuSans-45"/>
     <use xlink:href="#DejaVuSans-44" transform="translate(63.183594 0)"/>
     <use xlink:href="#DejaVuSans-41" transform="translate(138.435547 0)"/>
     <use xlink:href="#DejaVuSans-20" transform="translate(206.84375 0)"/>
     <use xlink:href="#DejaVuSans-46" transform="translate(238.630859 0)"/>
     <use xlink:href="#DejaVuSans-69" transform="translate(288.900391 0)"/>
     <use xlink:href="#DejaVuSans-6c" transform="translate(316.683594 0)"/>
     <use xlink:href="#DejaVuSans-74" transform="translate(344.466797 0)"/>
     <use xlink:href="#DejaVuSans-65" transform="translate(383.675781 0)"/>
     <use xlink:href="#DejaVuSans-72" transform="translate(445.199219 0)"/>
     <use xlink:href="#DejaVuSans-69" transform="translate(486.3125 0)"/>
     <use xlink:href="#DejaVuSans-6e" transform="translate(514.095703 0)"/>
     <use xlink:href="#DejaVuSans-67" transform="translate(577.474609 0)"/>
     <use xlink:href="#DejaVuSans-3a" transform="translate(640.951172 0)"/>
     <use xlink:href="#DejaVuSans-20" transform="translate(674.642578 0)"/>
     <use xlink:href="#DejaVuSans-64" transform="translate(706.429688 0)"/>
     <use xlink:href="#DejaVuSans-61" transform="translate(769.90625 0)"/>
     <use xlink:href="#DejaVuSans-74" transform="translate(831.185547 0)"/>
     <use xlink:href="#DejaVuSans-61" transform="translate(870.394531 0)"/>
     <use xlink:href="#DejaVuSans-5f" transform="translate(931.673828 0)"/>
     <use xlink:href="#DejaVuSans-35" transform="translate(981.673828 0)"/>
     <use xlink:href="#DejaVuSans-38" transform="translate(1045.296875 0)"/>
     <use xlink:href="#DejaVuSans-5f" transform="translate(1108.919922 0)"/>
     <use xlink:href="#DejaVuSans-45" transform="translate(1158.919922 0)"/>
     <use xlink:href="#DejaVuSans-34" transform="translate(1222.103516 0)"/>
    </g>
    <!-- Window=33, Threshold=0.15 -->
    <g transform="translate(377.101875 30.48525) scale(0.1 -0.1)">
     <defs>
      <path id="DejaVuSans-57" d="M 213 4666 
L 850 4666 
L 1831 722 
L 2809 4666 
L 3519 4666 
L 4500 722 
L 5478 4666 
L 6119 4666 
L 4947 0 
L 4153 0 
L 3169 4050 
L 2175 0 
L 1381 0 
L 213 4666 
z
" transform="scale(0.015625)"/>
      <path id="DejaVuSans-6f" d="M 1959 3097 
Q 1497 3097 1228 2736 
Q 959 2375 959 1747 
Q 959 1119 1226 758 
Q 1494 397 1959 397 
Q 2419 397 2687 759 
Q 2956 1122 2956 1747 
Q 2956 2369 2687 2733 
Q 2419 3097 1959 3097 
z
M 1959 3584 
Q 2709 3584 3137 3096 
Q 3566 2609 3566 1747 
Q 3566 888 3137 398 
Q 2709 -91 1959 -91 
Q 1206 -91 779 398 
Q 353 888 353 1747 
Q 353 2609 779 3096 
Q 1206 3584 1959 3584 
z
" transform="scale(0.015625)"/>
      <path id="DejaVuSans-77" d="M 269 3500 
L 844 3500 
L 1563 769 
L 2278 3500 
L 2956 3500 
L 3675 769 
L 4391 3500 
L 4966 3500 
L 4050 0 
L 3372 0 
L 2619 2869 
L 1863 0 
L 1184 0 
L 269 3500 
z
" transform="scale(0.015625)"/>
      <path id="DejaVuSans-3d" d="M 678 2906 
L 4684 2906 
L 4684 2381 
L 678 2381 
L 678 2906 
z
M 678 1631 
L 4684 1631 
L 4684 1100 
L 678 1100 
L 678 1631 
z
" transform="scale(0.015625)"/>
      <path id="DejaVuSans-2c" d="M 750 794 
L 1409 794 
L 1409 256 
L 897 -744 
L 494 -744 
L 750 256 
L 750 794 
z
" transform="scale(0.015625)"/>
      <path id="DejaVuSans-68" d="M 3513 2113 
L 3513 0 
L 2938 0 
L 2938 2094 
Q 2938 2591 2744 2837 
Q 2550 3084 2163 3084 
Q 1697 3084 1428 2787 
Q 1159 2491 1159 1978 
L 1159 0 
L 581 0 
L 581 4863 
L 1159 4863 
L 1159 2956 
Q 1366 3272 1645 3428 
Q 1925 3584 2291 3584 
Q 2894 3584 3203 3211 
Q 3513 2838 3513 2113 
z
" transform="scale(0.015625)"/>
     </defs>
     <use xlink:href="#DejaVuSans-57"/>
     <use xlink:href="#DejaVuSans-69" transform="translate(96.626953 0)"/>
     <use xlink:href="#DejaVuSans-6e" transform="translate(124.410156 0)"/>
     <use xlink:href="#DejaVuSans-64" transform="translate(187.789062 0)"/>
     <use xlink:href="#DejaVuSans-6f" transform="translate(251.265625 0)"/>
     <use xlink:href="#DejaVuSans-77" transform="translate(312.447266 0)"/>
     <use xlink:href="#DejaVuSans-3d" transform="translate(394.234375 0)"/>
     <use xlink:href="#DejaVuSans-33" transform="translate(478.023438 0)"/>
     <use xlink:href="#DejaVuSans-33" transform="translate(541.646484 0)"/>
     <use xlink:href="#DejaVuSans-2c" transform="translate(605.269531 0)"/>
     <use xlink:href="#DejaVuSans-20" transform="translate(637.056641 0)"/>
     <use xlink:href="#DejaVuSans-54" transform="translate(668.84375 0)"/>
     <use xlink:href="#DejaVuSans-68" transform="translate(729.927734 0)"/>
     <use xlink:href="#DejaVuSans-72" transform="translate(793.306641 0)"/>
     <use xlink:href="#DejaVuSans-65" transform="translate(832.169922 0)"/>
     <use xlink:href="#DejaVuSans-73" transform="translate(893.693359 0)"/>
     <use xlink:href="#DejaVuSans-68" transform="translate(945.792969 0)"/>
     <use xlink:href="#DejaVuSans-6f" transform="translate(1009.171875 0)"/>
     <use xlink:href="#DejaVuSans-6c" transform="translate(1070.353516 0)"/>
     <use xlink:href="#DejaVuSans-64" transform="translate(1098.136719 0)"/>
     <use xlink:href="#DejaVuSans-3d" transform="translate(1161.613281 0)"/>
     <use xlink:href="#DejaVuSans-30" transform="translate(1245.402344 0)"/>
     <use xlink:href="#DejaVuSans-2e" transform="translate(1309.025391 0)"/>
     <use xlink:href="#DejaVuSans-31" transform="translate(1340.8125 0)"/>
     <use xlink:href="#DejaVuSans-35" transform="translate(1404.435547 0)"/>
    </g>
   </g>
   <g id="legend_1">
    <g id="patch_7">
     <path d="M 752.80625 73.8415 
L 846.2 73.8415 
Q 848.2 73.8415 848.2 71.8415 
L 848.2 43.48525 
Q 848.2 41.48525 846.2 41.48525 
L 752.80625 41.48525 
Q 750.80625 41.48525 750.80625 43.48525 
L 750.80625 71.8415 
Q 750.80625 73.8415 752.80625 73.8415 
z
" style="fill: #ffffff; opacity: 0.8; stroke: #cccccc; stroke-linejoin: miter"/>
    </g>
    <g id="line2d_55">
     <path d="M 754.80625 49.583687 
L 764.80625 49.583687 
L 774.80625 49.583687 
" style="fill: none; stroke: #008000; stroke-width: 0.5; stroke-linecap: square"/>
    </g>
    <g id="text_21">
     <!-- Valid (≥20s) -->
     <g transform="translate(782.80625 53.083687) scale(0.1 -0.1)">
      <defs>
       <path id="DejaVuSans-56" d="M 1831 0 
L 50 4666 
L 709 4666 
L 2188 738 
L 3669 4666 
L 4325 4666 
L 2547 0 
L 1831 0 
z
" transform="scale(0.015625)"/>
       <path id="DejaVuSans-2265" d="M 678 3175 
L 678 3725 
L 4684 2578 
L 4684 2047 
L 678 897 
L 678 1453 
L 3681 2309 
L 678 3175 
z
M 4684 531 
L 4684 0 
L 678 0 
L 678 531 
L 4684 531 
z
" transform="scale(0.015625)"/>
      </defs>
      <use xlink:href="#DejaVuSans-56"/>
      <use xlink:href="#DejaVuSans-61" transform="translate(60.658203 0)"/>
      <use xlink:href="#DejaVuSans-6c" transform="translate(121.9375 0)"/>
      <use xlink:href="#DejaVuSans-69" transform="translate(149.720703 0)"/>
      <use xlink:href="#DejaVuSans-64" transform="translate(177.503906 0)"/>
      <use xlink:href="#DejaVuSans-20" transform="translate(240.980469 0)"/>
      <use xlink:href="#DejaVuSans-28" transform="translate(272.767578 0)"/>
      <use xlink:href="#DejaVuSans-2265" transform="translate(311.78125 0)"/>
      <use xlink:href="#DejaVuSans-32" transform="translate(395.570312 0)"/>
      <use xlink:href="#DejaVuSans-30" transform="translate(459.193359 0)"/>
      <use xlink:href="#DejaVuSans-73" transform="translate(522.816406 0)"/>
      <use xlink:href="#DejaVuSans-29" transform="translate(574.916016 0)"/>
     </g>
    </g>
    <g id="line2d_56">
     <g>
      <use xlink:href="#mec2c02ba7d" x="764.80625" y="64.261813" style="fill: #006400; stroke: #006400"/>
     </g>
    </g>
    <g id="text_22">
     <!-- Endpoints -->
     <g transform="translate(782.80625 67.761813) scale(0.1 -0.1)">
      <defs>
       <path id="DejaVuSans-70" d="M 1159 525 
L 1159 -1331 
L 581 -1331 
L 581 3500 
L 1159 3500 
L 1159 2969 
Q 1341 3281 1617 3432 
Q 1894 3584 2278 3584 
Q 2916 3584 3314 3078 
Q 3713 2572 3713 1747 
Q 3713 922 3314 415 
Q 2916 -91 2278 -91 
Q 1894 -91 1617 61 
Q 1341 213 1159 525 
z
M 3116 1747 
Q 3116 2381 2855 2742 
Q 2594 3103 2138 3103 
Q 1681 3103 1420 2742 
Q 1159 2381 1159 1747 
Q 1159 1113 1420 752 
Q 1681 391 2138 391 
Q 2594 391 2855 752 
Q 3116 1113 3116 1747 
z
" transform="scale(0.015625)"/>
      </defs>
      <use xlink:href="#DejaVuSans-45"/>
      <use xlink:href="#DejaVuSans-6e" transform="translate(63.183594 0)"/>
      <use xlink:href="#DejaVuSans-64" transform="translate(126.5625 0)"/>
      <use xlink:href="#DejaVuSans-70" transform="translate(190.039062 0)"/>
      <use xlink:href="#DejaVuSans-6f" transform="translate(253.515625 0)"/>
      <use xlink:href="#DejaVuSans-69" transform="translate(314.697266 0)"/>
      <use xlink:href="#DejaVuSans-6e" transform="translate(342.480469 0)"/>
      <use xlink:href="#DejaVuSans-74" transform="translate(405.859375 0)"/>
      <use xlink:href="#DejaVuSans-73" transform="translate(445.068359 0)"/>
     </g>
    </g>
   </g>
  </g>
 </g>
 <defs>
  <clipPath id="p2ab6f83474">
   <rect x="47.81" y="36.48525" width="805.39" height="497.55475"/>
  </clipPath>
 </defs>
</svg>
