<?xml version="1.0" encoding="utf-8" standalone="no"?>
<!DOCTYPE svg PUBLIC "-//W3C//DTD SVG 1.1//EN"
  "http://www.w3.org/Graphics/SVG/1.1/DTD/svg11.dtd">
<svg xmlns:xlink="http://www.w3.org/1999/xlink" width="864pt" height="576pt" viewBox="0 0 864 576" xmlns="http://www.w3.org/2000/svg" version="1.1">
 <metadata>
  <rdf:RDF xmlns:dc="http://purl.org/dc/elements/1.1/" xmlns:cc="http://creativecommons.org/ns#" xmlns:rdf="http://www.w3.org/1999/02/22-rdf-syntax-ns#">
   <cc:Work>
    <dc:type rdf:resource="http://purl.org/dc/dcmitype/StillImage"/>
    <dc:date>2025-10-16T13:33:23.791585</dc:date>
    <dc:format>image/svg+xml</dc:format>
    <dc:creator>
     <cc:Agent>
      <dc:title>Matplotlib v3.10.0, https://matplotlib.org/</dc:title>
     </cc:Agent>
    </dc:creator>
   </cc:Work>
  </rdf:RDF>
 </metadata>
 <defs>
  <style type="text/css">*{stroke-linejoin: round; stroke-linecap: butt}</style>
 </defs>
 <g id="figure_1">
  <g id="patch_1">
   <path d="M 0 576 
L 864 576 
L 864 0 
L 0 0 
z
" style="fill: #ffffff"/>
  </g>
  <g id="axes_1">
   <g id="patch_2">
    <path d="M 38.27 534.04 
L 853.2 534.04 
L 853.2 36.48525 
L 38.27 36.48525 
z
" style="fill: #ffffff"/>
   </g>
   <g id="matplotlib.axis_1">
    <g id="xtick_1">
     <g id="line2d_1">
      <path d="M 75.312273 534.04 
L 75.312273 36.48525 
" clip-path="url(#pd6d3315ef2)" style="fill: none; stroke: #b0b0b0; stroke-opacity: 0.3; stroke-width: 0.8; stroke-linecap: square"/>
     </g>
     <g id="line2d_2">
      <defs>
       <path id="m7a8f56e791" d="M 0 0 
L 0 3.5 
" style="stroke: #000000; stroke-width: 0.8"/>
      </defs>
      <g>
       <use xlink:href="#m7a8f56e791" x="75.312273" y="534.04" style="stroke: #000000; stroke-width: 0.8"/>
      </g>
     </g>
     <g id="text_1">
      <!-- 0 -->
      <g transform="translate(72.131023 548.638438) scale(0.1 -0.1)">
       <defs>
        <path id="DejaVuSans-30" d="M 2034 4250 
Q 1547 4250 1301 3770 
Q 1056 3291 1056 2328 
Q 1056 1369 1301 889 
Q 1547 409 2034 409 
Q 2525 409 2770 889 
Q 3016 1369 3016 2328 
Q 3016 3291 2770 3770 
Q 2525 4250 2034 4250 
z
M 2034 4750 
Q 2819 4750 3233 4129 
Q 3647 3509 3647 2328 
Q 3647 1150 3233 529 
Q 2819 -91 2034 -91 
Q 1250 -91 836 529 
Q 422 1150 422 2328 
Q 422 3509 836 4129 
Q 1250 4750 2034 4750 
z
" transform="scale(0.015625)"/>
       </defs>
       <use xlink:href="#DejaVuSans-30"/>
      </g>
     </g>
    </g>
    <g id="xtick_2">
     <g id="line2d_3">
      <path d="M 174.119113 534.04 
L 174.119113 36.48525 
" clip-path="url(#pd6d3315ef2)" style="fill: none; stroke: #b0b0b0; stroke-opacity: 0.3; stroke-width: 0.8; stroke-linecap: square"/>
     </g>
     <g id="line2d_4">
      <g>
       <use xlink:href="#m7a8f56e791" x="174.119113" y="534.04" style="stroke: #000000; stroke-width: 0.8"/>
      </g>
     </g>
     <g id="text_2">
      <!-- 2 -->
      <g transform="translate(170.937863 548.638438) scale(0.1 -0.1)">
       <defs>
        <path id="DejaVuSans-32" d="M 1228 531 
L 3431 531 
L 3431 0 
L 469 0 
L 469 531 
Q 828 903 1448 1529 
Q 2069 2156 2228 2338 
Q 2531 2678 2651 2914 
Q 2772 3150 2772 3378 
Q 2772 3750 2511 3984 
Q 2250 4219 1831 4219 
Q 1534 4219 1204 4116 
Q 875 4013 500 3803 
L 500 4441 
Q 881 4594 1212 4672 
Q 1544 4750 1819 4750 
Q 2544 4750 2975 4387 
Q 3406 4025 3406 3419 
Q 3406 3131 3298 2873 
Q 3191 2616 2906 2266 
Q 2828 2175 2409 1742 
Q 1991 1309 1228 531 
z
" transform="scale(0.015625)"/>
       </defs>
       <use xlink:href="#DejaVuSans-32"/>
      </g>
     </g>
    </g>
    <g id="xtick_3">
     <g id="line2d_5">
      <path d="M 272.925953 534.04 
L 272.925953 36.48525 
" clip-path="url(#pd6d3315ef2)" style="fill: none; stroke: #b0b0b0; stroke-opacity: 0.3; stroke-width: 0.8; stroke-linecap: square"/>
     </g>
     <g id="line2d_6">
      <g>
       <use xlink:href="#m7a8f56e791" x="272.925953" y="534.04" style="stroke: #000000; stroke-width: 0.8"/>
      </g>
     </g>
     <g id="text_3">
      <!-- 4 -->
      <g transform="translate(269.744703 548.638438) scale(0.1 -0.1)">
       <defs>
        <path id="DejaVuSans-34" d="M 2419 4116 
L 825 1625 
L 2419 1625 
L 2419 4116 
z
M 2253 4666 
L 3047 4666 
L 3047 1625 
L 3713 1625 
L 3713 1100 
L 3047 1100 
L 3047 0 
L 2419 0 
L 2419 1100 
L 313 1100 
L 313 1709 
L 2253 4666 
z
" transform="scale(0.015625)"/>
       </defs>
       <use xlink:href="#DejaVuSans-34"/>
      </g>
     </g>
    </g>
    <g id="xtick_4">
     <g id="line2d_7">
      <path d="M 371.732794 534.04 
L 371.732794 36.48525 
" clip-path="url(#pd6d3315ef2)" style="fill: none; stroke: #b0b0b0; stroke-opacity: 0.3; stroke-width: 0.8; stroke-linecap: square"/>
     </g>
     <g id="line2d_8">
      <g>
       <use xlink:href="#m7a8f56e791" x="371.732794" y="534.04" style="stroke: #000000; stroke-width: 0.8"/>
      </g>
     </g>
     <g id="text_4">
      <!-- 6 -->
      <g transform="translate(368.551544 548.638438) scale(0.1 -0.1)">
       <defs>
        <path id="DejaVuSans-36" d="M 2113 2584 
Q 1688 2584 1439 2293 
Q 1191 2003 1191 1497 
Q 1191 994 1439 701 
Q 1688 409 2113 409 
Q 2538 409 2786 701 
Q 3034 994 3034 1497 
Q 3034 2003 2786 2293 
Q 2538 2584 2113 2584 
z
M 3366 4563 
L 3366 3988 
Q 3128 4100 2886 4159 
Q 2644 4219 2406 4219 
Q 1781 4219 1451 3797 
Q 1122 3375 1075 2522 
Q 1259 2794 1537 2939 
Q 1816 3084 2150 3084 
Q 2853 3084 3261 2657 
Q 3669 2231 3669 1497 
Q 3669 778 3244 343 
Q 2819 -91 2113 -91 
Q 1303 -91 875 529 
Q 447 1150 447 2328 
Q 447 3434 972 4092 
Q 1497 4750 2381 4750 
Q 2619 4750 2861 4703 
Q 3103 4656 3366 4563 
z
" transform="scale(0.015625)"/>
       </defs>
       <use xlink:href="#DejaVuSans-36"/>
      </g>
     </g>
    </g>
    <g id="xtick_5">
     <g id="line2d_9">
      <path d="M 470.539634 534.04 
L 470.539634 36.48525 
" clip-path="url(#pd6d3315ef2)" style="fill: none; stroke: #b0b0b0; stroke-opacity: 0.3; stroke-width: 0.8; stroke-linecap: square"/>
     </g>
     <g id="line2d_10">
      <g>
       <use xlink:href="#m7a8f56e791" x="470.539634" y="534.04" style="stroke: #000000; stroke-width: 0.8"/>
      </g>
     </g>
     <g id="text_5">
      <!-- 8 -->
      <g transform="translate(467.358384 548.638438) scale(0.1 -0.1)">
       <defs>
        <path id="DejaVuSans-38" d="M 2034 2216 
Q 1584 2216 1326 1975 
Q 1069 1734 1069 1313 
Q 1069 891 1326 650 
Q 1584 409 2034 409 
Q 2484 409 2743 651 
Q 3003 894 3003 1313 
Q 3003 1734 2745 1975 
Q 2488 2216 2034 2216 
z
M 1403 2484 
Q 997 2584 770 2862 
Q 544 3141 544 3541 
Q 544 4100 942 4425 
Q 1341 4750 2034 4750 
Q 2731 4750 3128 4425 
Q 3525 4100 3525 3541 
Q 3525 3141 3298 2862 
Q 3072 2584 2669 2484 
Q 3125 2378 3379 2068 
Q 3634 1759 3634 1313 
Q 3634 634 3220 271 
Q 2806 -91 2034 -91 
Q 1263 -91 848 271 
Q 434 634 434 1313 
Q 434 1759 690 2068 
Q 947 2378 1403 2484 
z
M 1172 3481 
Q 1172 3119 1398 2916 
Q 1625 2713 2034 2713 
Q 2441 2713 2670 2916 
Q 2900 3119 2900 3481 
Q 2900 3844 2670 4047 
Q 2441 4250 2034 4250 
Q 1625 4250 1398 4047 
Q 1172 3844 1172 3481 
z
" transform="scale(0.015625)"/>
       </defs>
       <use xlink:href="#DejaVuSans-38"/>
      </g>
     </g>
    </g>
    <g id="xtick_6">
     <g id="line2d_11">
      <path d="M 569.346474 534.04 
L 569.346474 36.48525 
" clip-path="url(#pd6d3315ef2)" style="fill: none; stroke: #b0b0b0; stroke-opacity: 0.3; stroke-width: 0.8; stroke-linecap: square"/>
     </g>
     <g id="line2d_12">
      <g>
       <use xlink:href="#m7a8f56e791" x="569.346474" y="534.04" style="stroke: #000000; stroke-width: 0.8"/>
      </g>
     </g>
     <g id="text_6">
      <!-- 10 -->
      <g transform="translate(562.983974 548.638438) scale(0.1 -0.1)">
       <defs>
        <path id="DejaVuSans-31" d="M 794 531 
L 1825 531 
L 1825 4091 
L 703 3866 
L 703 4441 
L 1819 4666 
L 2450 4666 
L 2450 531 
L 3481 531 
L 3481 0 
L 794 0 
L 794 531 
z
" transform="scale(0.015625)"/>
       </defs>
       <use xlink:href="#DejaVuSans-31"/>
       <use xlink:href="#DejaVuSans-30" transform="translate(63.623047 0)"/>
      </g>
     </g>
    </g>
    <g id="xtick_7">
     <g id="line2d_13">
      <path d="M 668.153314 534.04 
L 668.153314 36.48525 
" clip-path="url(#pd6d3315ef2)" style="fill: none; stroke: #b0b0b0; stroke-opacity: 0.3; stroke-width: 0.8; stroke-linecap: square"/>
     </g>
     <g id="line2d_14">
      <g>
       <use xlink:href="#m7a8f56e791" x="668.153314" y="534.04" style="stroke: #000000; stroke-width: 0.8"/>
      </g>
     </g>
     <g id="text_7">
      <!-- 12 -->
      <g transform="translate(661.790814 548.638438) scale(0.1 -0.1)">
       <use xlink:href="#DejaVuSans-31"/>
       <use xlink:href="#DejaVuSans-32" transform="translate(63.623047 0)"/>
      </g>
     </g>
    </g>
    <g id="xtick_8">
     <g id="line2d_15">
      <path d="M 766.960155 534.04 
L 766.960155 36.48525 
" clip-path="url(#pd6d3315ef2)" style="fill: none; stroke: #b0b0b0; stroke-opacity: 0.3; stroke-width: 0.8; stroke-linecap: square"/>
     </g>
     <g id="line2d_16">
      <g>
       <use xlink:href="#m7a8f56e791" x="766.960155" y="534.04" style="stroke: #000000; stroke-width: 0.8"/>
      </g>
     </g>
     <g id="text_8">
      <!-- 14 -->
      <g transform="translate(760.597655 548.638438) scale(0.1 -0.1)">
       <use xlink:href="#DejaVuSans-31"/>
       <use xlink:href="#DejaVuSans-34" transform="translate(63.623047 0)"/>
      </g>
     </g>
    </g>
    <g id="text_9">
     <!-- Time (minutes) -->
     <g transform="translate(407.7725 562.316562) scale(0.1 -0.1)">
      <defs>
       <path id="DejaVuSans-54" d="M -19 4666 
L 3928 4666 
L 3928 4134 
L 2272 4134 
L 2272 0 
L 1638 0 
L 1638 4134 
L -19 4134 
L -19 4666 
z
" transform="scale(0.015625)"/>
       <path id="DejaVuSans-69" d="M 603 3500 
L 1178 3500 
L 1178 0 
L 603 0 
L 603 3500 
z
M 603 4863 
L 1178 4863 
L 1178 4134 
L 603 4134 
L 603 4863 
z
" transform="scale(0.015625)"/>
       <path id="DejaVuSans-6d" d="M 3328 2828 
Q 3544 3216 3844 3400 
Q 4144 3584 4550 3584 
Q 5097 3584 5394 3201 
Q 5691 2819 5691 2113 
L 5691 0 
L 5113 0 
L 5113 2094 
Q 5113 2597 4934 2840 
Q 4756 3084 4391 3084 
Q 3944 3084 3684 2787 
Q 3425 2491 3425 1978 
L 3425 0 
L 2847 0 
L 2847 2094 
Q 2847 2600 2669 2842 
Q 2491 3084 2119 3084 
Q 1678 3084 1418 2786 
Q 1159 2488 1159 1978 
L 1159 0 
L 581 0 
L 581 3500 
L 1159 3500 
L 1159 2956 
Q 1356 3278 1631 3431 
Q 1906 3584 2284 3584 
Q 2666 3584 2933 3390 
Q 3200 3197 3328 2828 
z
" transform="scale(0.015625)"/>
       <path id="DejaVuSans-65" d="M 3597 1894 
L 3597 1613 
L 953 1613 
Q 991 1019 1311 708 
Q 1631 397 2203 397 
Q 2534 397 2845 478 
Q 3156 559 3463 722 
L 3463 178 
Q 3153 47 2828 -22 
Q 2503 -91 2169 -91 
Q 1331 -91 842 396 
Q 353 884 353 1716 
Q 353 2575 817 3079 
Q 1281 3584 2069 3584 
Q 2775 3584 3186 3129 
Q 3597 2675 3597 1894 
z
M 3022 2063 
Q 3016 2534 2758 2815 
Q 2500 3097 2075 3097 
Q 1594 3097 1305 2825 
Q 1016 2553 972 2059 
L 3022 2063 
z
" transform="scale(0.015625)"/>
       <path id="DejaVuSans-20" transform="scale(0.015625)"/>
       <path id="DejaVuSans-28" d="M 1984 4856 
Q 1566 4138 1362 3434 
Q 1159 2731 1159 2009 
Q 1159 1288 1364 580 
Q 1569 -128 1984 -844 
L 1484 -844 
Q 1016 -109 783 600 
Q 550 1309 550 2009 
Q 550 2706 781 3412 
Q 1013 4119 1484 4856 
L 1984 4856 
z
" transform="scale(0.015625)"/>
       <path id="DejaVuSans-6e" d="M 3513 2113 
L 3513 0 
L 2938 0 
L 2938 2094 
Q 2938 2591 2744 2837 
Q 2550 3084 2163 3084 
Q 1697 3084 1428 2787 
Q 1159 2491 1159 1978 
L 1159 0 
L 581 0 
L 581 3500 
L 1159 3500 
L 1159 2956 
Q 1366 3272 1645 3428 
Q 1925 3584 2291 3584 
Q 2894 3584 3203 3211 
Q 3513 2838 3513 2113 
z
" transform="scale(0.015625)"/>
       <path id="DejaVuSans-75" d="M 544 1381 
L 544 3500 
L 1119 3500 
L 1119 1403 
Q 1119 906 1312 657 
Q 1506 409 1894 409 
Q 2359 409 2629 706 
Q 2900 1003 2900 1516 
L 2900 3500 
L 3475 3500 
L 3475 0 
L 2900 0 
L 2900 538 
Q 2691 219 2414 64 
Q 2138 -91 1772 -91 
Q 1169 -91 856 284 
Q 544 659 544 1381 
z
M 1991 3584 
L 1991 3584 
z
" transform="scale(0.015625)"/>
       <path id="DejaVuSans-74" d="M 1172 4494 
L 1172 3500 
L 2356 3500 
L 2356 3053 
L 1172 3053 
L 1172 1153 
Q 1172 725 1289 603 
Q 1406 481 1766 481 
L 2356 481 
L 2356 0 
L 1766 0 
Q 1100 0 847 248 
Q 594 497 594 1153 
L 594 3053 
L 172 3053 
L 172 3500 
L 594 3500 
L 594 4494 
L 1172 4494 
z
" transform="scale(0.015625)"/>
       <path id="DejaVuSans-73" d="M 2834 3397 
L 2834 2853 
Q 2591 2978 2328 3040 
Q 2066 3103 1784 3103 
Q 1356 3103 1142 2972 
Q 928 2841 928 2578 
Q 928 2378 1081 2264 
Q 1234 2150 1697 2047 
L 1894 2003 
Q 2506 1872 2764 1633 
Q 3022 1394 3022 966 
Q 3022 478 2636 193 
Q 2250 -91 1575 -91 
Q 1294 -91 989 -36 
Q 684 19 347 128 
L 347 722 
Q 666 556 975 473 
Q 1284 391 1588 391 
Q 1994 391 2212 530 
Q 2431 669 2431 922 
Q 2431 1156 2273 1281 
Q 2116 1406 1581 1522 
L 1381 1569 
Q 847 1681 609 1914 
Q 372 2147 372 2553 
Q 372 3047 722 3315 
Q 1072 3584 1716 3584 
Q 2034 3584 2315 3537 
Q 2597 3491 2834 3397 
z
" transform="scale(0.015625)"/>
       <path id="DejaVuSans-29" d="M 513 4856 
L 1013 4856 
Q 1481 4119 1714 3412 
Q 1947 2706 1947 2009 
Q 1947 1309 1714 600 
Q 1481 -109 1013 -844 
L 513 -844 
Q 928 -128 1133 580 
Q 1338 1288 1338 2009 
Q 1338 2731 1133 3434 
Q 928 4138 513 4856 
z
" transform="scale(0.015625)"/>
      </defs>
      <use xlink:href="#DejaVuSans-54"/>
      <use xlink:href="#DejaVuSans-69" transform="translate(57.958984 0)"/>
      <use xlink:href="#DejaVuSans-6d" transform="translate(85.742188 0)"/>
      <use xlink:href="#DejaVuSans-65" transform="translate(183.154297 0)"/>
      <use xlink:href="#DejaVuSans-20" transform="translate(244.677734 0)"/>
      <use xlink:href="#DejaVuSans-28" transform="translate(276.464844 0)"/>
      <use xlink:href="#DejaVuSans-6d" transform="translate(315.478516 0)"/>
      <use xlink:href="#DejaVuSans-69" transform="translate(412.890625 0)"/>
      <use xlink:href="#DejaVuSans-6e" transform="translate(440.673828 0)"/>
      <use xlink:href="#DejaVuSans-75" transform="translate(504.052734 0)"/>
      <use xlink:href="#DejaVuSans-74" transform="translate(567.431641 0)"/>
      <use xlink:href="#DejaVuSans-65" transform="translate(606.640625 0)"/>
      <use xlink:href="#DejaVuSans-73" transform="translate(668.164062 0)"/>
      <use xlink:href="#DejaVuSans-29" transform="translate(720.263672 0)"/>
     </g>
    </g>
   </g>
   <g id="matplotlib.axis_2">
    <g id="ytick_1">
     <g id="line2d_17">
      <path d="M 38.27 534.04 
L 853.2 534.04 
" clip-path="url(#pd6d3315ef2)" style="fill: none; stroke: #b0b0b0; stroke-opacity: 0.3; stroke-width: 0.8; stroke-linecap: square"/>
     </g>
     <g id="line2d_18">
      <defs>
       <path id="mac58eb6d06" d="M 0 0 
L -3.5 0 
" style="stroke: #000000; stroke-width: 0.8"/>
      </defs>
      <g>
       <use xlink:href="#mac58eb6d06" x="38.27" y="534.04" style="stroke: #000000; stroke-width: 0.8"/>
      </g>
     </g>
     <g id="text_10">
      <!-- 0 -->
      <g transform="translate(24.9075 537.839219) scale(0.1 -0.1)">
       <use xlink:href="#DejaVuSans-30"/>
      </g>
     </g>
    </g>
    <g id="ytick_2">
     <g id="line2d_19">
      <path d="M 38.27 428.534575 
L 853.2 428.534575 
" clip-path="url(#pd6d3315ef2)" style="fill: none; stroke: #b0b0b0; stroke-opacity: 0.3; stroke-width: 0.8; stroke-linecap: square"/>
     </g>
     <g id="line2d_20">
      <g>
       <use xlink:href="#mac58eb6d06" x="38.27" y="428.534575" style="stroke: #000000; stroke-width: 0.8"/>
      </g>
     </g>
     <g id="text_11">
      <!-- 1 -->
      <g transform="translate(24.9075 432.333793) scale(0.1 -0.1)">
       <use xlink:href="#DejaVuSans-31"/>
      </g>
     </g>
    </g>
    <g id="ytick_3">
     <g id="line2d_21">
      <path d="M 38.27 323.029149 
L 853.2 323.029149 
" clip-path="url(#pd6d3315ef2)" style="fill: none; stroke: #b0b0b0; stroke-opacity: 0.3; stroke-width: 0.8; stroke-linecap: square"/>
     </g>
     <g id="line2d_22">
      <g>
       <use xlink:href="#mac58eb6d06" x="38.27" y="323.029149" style="stroke: #000000; stroke-width: 0.8"/>
      </g>
     </g>
     <g id="text_12">
      <!-- 2 -->
      <g transform="translate(24.9075 326.828368) scale(0.1 -0.1)">
       <use xlink:href="#DejaVuSans-32"/>
      </g>
     </g>
    </g>
    <g id="ytick_4">
     <g id="line2d_23">
      <path d="M 38.27 217.523724 
L 853.2 217.523724 
" clip-path="url(#pd6d3315ef2)" style="fill: none; stroke: #b0b0b0; stroke-opacity: 0.3; stroke-width: 0.8; stroke-linecap: square"/>
     </g>
     <g id="line2d_24">
      <g>
       <use xlink:href="#mac58eb6d06" x="38.27" y="217.523724" style="stroke: #000000; stroke-width: 0.8"/>
      </g>
     </g>
     <g id="text_13">
      <!-- 3 -->
      <g transform="translate(24.9075 221.322943) scale(0.1 -0.1)">
       <defs>
        <path id="DejaVuSans-33" d="M 2597 2516 
Q 3050 2419 3304 2112 
Q 3559 1806 3559 1356 
Q 3559 666 3084 287 
Q 2609 -91 1734 -91 
Q 1441 -91 1130 -33 
Q 819 25 488 141 
L 488 750 
Q 750 597 1062 519 
Q 1375 441 1716 441 
Q 2309 441 2620 675 
Q 2931 909 2931 1356 
Q 2931 1769 2642 2001 
Q 2353 2234 1838 2234 
L 1294 2234 
L 1294 2753 
L 1863 2753 
Q 2328 2753 2575 2939 
Q 2822 3125 2822 3475 
Q 2822 3834 2567 4026 
Q 2313 4219 1838 4219 
Q 1578 4219 1281 4162 
Q 984 4106 628 3988 
L 628 4550 
Q 988 4650 1302 4700 
Q 1616 4750 1894 4750 
Q 2613 4750 3031 4423 
Q 3450 4097 3450 3541 
Q 3450 3153 3228 2886 
Q 3006 2619 2597 2516 
z
" transform="scale(0.015625)"/>
       </defs>
       <use xlink:href="#DejaVuSans-33"/>
      </g>
     </g>
    </g>
    <g id="ytick_5">
     <g id="line2d_25">
      <path d="M 38.27 112.018298 
L 853.2 112.018298 
" clip-path="url(#pd6d3315ef2)" style="fill: none; stroke: #b0b0b0; stroke-opacity: 0.3; stroke-width: 0.8; stroke-linecap: square"/>
     </g>
     <g id="line2d_26">
      <g>
       <use xlink:href="#mac58eb6d06" x="38.27" y="112.018298" style="stroke: #000000; stroke-width: 0.8"/>
      </g>
     </g>
     <g id="text_14">
      <!-- 4 -->
      <g transform="translate(24.9075 115.817517) scale(0.1 -0.1)">
       <use xlink:href="#DejaVuSans-34"/>
      </g>
     </g>
    </g>
    <g id="text_15">
     <!-- EDA (μS) -->
     <g transform="translate(18.827813 307.450906) rotate(-90) scale(0.1 -0.1)">
      <defs>
       <path id="DejaVuSans-45" d="M 628 4666 
L 3578 4666 
L 3578 4134 
L 1259 4134 
L 1259 2753 
L 3481 2753 
L 3481 2222 
L 1259 2222 
L 1259 531 
L 3634 531 
L 3634 0 
L 628 0 
L 628 4666 
z
" transform="scale(0.015625)"/>
       <path id="DejaVuSans-44" d="M 1259 4147 
L 1259 519 
L 2022 519 
Q 2988 519 3436 956 
Q 3884 1394 3884 2338 
Q 3884 3275 3436 3711 
Q 2988 4147 2022 4147 
L 1259 4147 
z
M 628 4666 
L 1925 4666 
Q 3281 4666 3915 4102 
Q 4550 3538 4550 2338 
Q 4550 1131 3912 565 
Q 3275 0 1925 0 
L 628 0 
L 628 4666 
z
" transform="scale(0.015625)"/>
       <path id="DejaVuSans-41" d="M 2188 4044 
L 1331 1722 
L 3047 1722 
L 2188 4044 
z
M 1831 4666 
L 2547 4666 
L 4325 0 
L 3669 0 
L 3244 1197 
L 1141 1197 
L 716 0 
L 50 0 
L 1831 4666 
z
" transform="scale(0.015625)"/>
       <path id="DejaVuSans-3bc" d="M 544 -1331 
L 544 3500 
L 1119 3500 
L 1119 1325 
Q 1119 872 1334 640 
Q 1550 409 1972 409 
Q 2434 409 2667 671 
Q 2900 934 2900 1459 
L 2900 3500 
L 3475 3500 
L 3475 806 
Q 3475 619 3529 530 
Q 3584 441 3700 441 
Q 3728 441 3778 458 
Q 3828 475 3916 513 
L 3916 50 
Q 3788 -22 3673 -56 
Q 3559 -91 3450 -91 
Q 3234 -91 3106 31 
Q 2978 153 2931 403 
Q 2775 156 2548 32 
Q 2322 -91 2016 -91 
Q 1697 -91 1473 31 
Q 1250 153 1119 397 
L 1119 -1331 
L 544 -1331 
z
" transform="scale(0.015625)"/>
       <path id="DejaVuSans-53" d="M 3425 4513 
L 3425 3897 
Q 3066 4069 2747 4153 
Q 2428 4238 2131 4238 
Q 1616 4238 1336 4038 
Q 1056 3838 1056 3469 
Q 1056 3159 1242 3001 
Q 1428 2844 1947 2747 
L 2328 2669 
Q 3034 2534 3370 2195 
Q 3706 1856 3706 1288 
Q 3706 609 3251 259 
Q 2797 -91 1919 -91 
Q 1588 -91 1214 -16 
Q 841 59 441 206 
L 441 856 
Q 825 641 1194 531 
Q 1563 422 1919 422 
Q 2459 422 2753 634 
Q 3047 847 3047 1241 
Q 3047 1584 2836 1778 
Q 2625 1972 2144 2069 
L 1759 2144 
Q 1053 2284 737 2584 
Q 422 2884 422 3419 
Q 422 4038 858 4394 
Q 1294 4750 2059 4750 
Q 2388 4750 2728 4690 
Q 3069 4631 3425 4513 
z
" transform="scale(0.015625)"/>
      </defs>
      <use xlink:href="#DejaVuSans-45"/>
      <use xlink:href="#DejaVuSans-44" transform="translate(63.183594 0)"/>
      <use xlink:href="#DejaVuSans-41" transform="translate(138.435547 0)"/>
      <use xlink:href="#DejaVuSans-20" transform="translate(206.84375 0)"/>
      <use xlink:href="#DejaVuSans-28" transform="translate(238.630859 0)"/>
      <use xlink:href="#DejaVuSans-3bc" transform="translate(277.644531 0)"/>
      <use xlink:href="#DejaVuSans-53" transform="translate(341.267578 0)"/>
      <use xlink:href="#DejaVuSans-29" transform="translate(404.744141 0)"/>
     </g>
    </g>
   </g>
   <g id="line2d_27">
    <path d="M 75.312273 185.703393 
L 75.518178 186.108639 
L 75.724082 186.919238 
L 75.929987 187.054285 
L 76.135892 189.215774 
L 76.341797 185.568241 
L 76.547702 187.054285 
L 77.165416 188.270129 
L 77.371321 189.215774 
L 77.577225 188.810422 
L 77.78313 189.350821 
L 77.989035 189.215774 
L 78.19494 189.89122 
L 78.400845 190.026267 
L 78.606749 190.026267 
L 78.812654 190.83676 
L 79.224464 190.161314 
L 79.430369 190.971912 
L 80.048083 188.134977 
L 80.253988 192.863202 
L 80.459893 193.673695 
L 80.665797 195.429833 
L 80.871702 201.508844 
L 81.077607 201.103598 
L 81.489417 198.942214 
L 81.901226 187.459531 
L 82.107131 181.785766 
L 82.518941 184.352502 
L 82.724845 184.217349 
L 82.93075 184.757748 
L 83.136655 182.596364 
L 83.34256 181.920813 
L 83.548465 181.650719 
L 83.754369 180.84012 
L 84.372084 186.784085 
L 84.577989 188.405176 
L 84.783893 187.324484 
L 84.989798 192.052604 
L 85.607513 213.80202 
L 85.813417 213.126574 
L 86.019322 215.017865 
L 86.225227 218.80034 
L 86.431132 218.935492 
L 86.637036 216.503908 
L 86.842941 206.777363 
L 87.048846 206.372117 
L 87.254751 206.372117 
L 87.460656 206.101918 
L 87.66656 206.101918 
L 88.07837 205.156272 
L 88.284275 224.609257 
L 88.49018 221.382585 
L 88.696084 212.60179 
L 88.901989 213.682482 
L 89.107894 213.007037 
L 89.313799 217.059711 
L 89.519704 198.012078 
L 89.725608 189.501377 
L 89.931513 186.664548 
L 90.137418 176.667908 
L 90.343323 173.695926 
L 90.549228 172.750281 
L 91.166942 167.061006 
L 91.372847 166.385561 
L 91.578752 166.250514 
L 92.608276 163.548625 
L 92.81418 162.467933 
L 93.020085 162.467933 
L 93.22599 163.143379 
L 93.6378 163.818825 
L 93.843704 162.197734 
L 94.255514 179.624381 
L 94.461419 174.355863 
L 94.667324 166.115361 
L 95.079133 167.196053 
L 95.490943 164.224071 
L 95.902752 160.306549 
L 96.520467 158.820505 
L 96.726371 162.87318 
L 96.932276 163.008332 
L 97.138181 165.845162 
L 97.344086 162.467933 
L 97.549991 163.413578 
L 97.755895 166.115361 
L 97.9618 166.115361 
L 98.37361 164.089024 
L 98.579515 165.575068 
L 98.991324 165.980314 
L 99.197229 165.304869 
L 99.403134 163.818825 
L 99.609039 165.034669 
L 99.814943 165.439916 
L 100.020848 165.169716 
L 100.638563 166.925959 
L 100.844467 166.790807 
L 101.462182 169.49259 
L 101.668087 170.303188 
L 101.873991 170.573388 
L 102.079896 170.573388 
L 102.285801 171.113681 
L 102.697611 174.22071 
L 102.903515 172.734772 
L 103.10942 170.303188 
L 103.315325 170.843481 
L 103.727135 171.113681 
L 103.933039 171.65408 
L 104.138944 171.518927 
L 104.344849 171.924279 
L 104.550754 172.599725 
L 104.756658 172.329525 
L 104.962563 173.004971 
L 105.168468 173.140018 
L 105.374373 173.950616 
L 105.580278 175.436555 
L 105.786182 175.301508 
L 105.992087 176.3822 
L 106.197992 176.112 
L 106.403897 176.112 
L 106.609802 175.706754 
L 106.815706 175.841801 
L 107.021611 175.031308 
L 107.227516 174.761109 
L 107.433421 173.815464 
L 107.639326 173.680417 
L 108.051135 170.843481 
L 108.25704 171.38388 
L 108.462945 171.518927 
L 108.66885 170.978634 
L 108.874754 170.978634 
L 109.080659 169.762789 
L 109.286564 166.790807 
L 109.904278 152.741494 
L 110.110183 150.30991 
L 110.316088 149.634464 
L 110.727898 149.634464 
L 110.933802 150.30991 
L 111.139707 151.930895 
L 111.345612 155.578323 
L 111.757422 177.868138 
L 112.375136 202.049243 
L 112.581041 204.480827 
L 112.786946 202.859736 
L 113.198755 190.296466 
L 113.40466 188.945575 
L 113.610565 188.675375 
L 113.81647 188.134977 
L 114.022374 187.99993 
L 114.228279 188.945575 
L 114.434184 189.350821 
L 114.640089 189.215774 
L 114.845993 190.161314 
L 115.051898 190.026267 
L 115.257803 190.431513 
L 115.463708 190.566666 
L 115.669613 190.566666 
L 115.875517 190.83676 
L 116.287327 191.647358 
L 116.493232 191.512205 
L 116.699137 192.052604 
L 117.110946 191.782405 
L 117.316851 192.45785 
L 117.522756 192.187757 
L 117.728661 192.322803 
L 117.934565 192.187757 
L 118.14047 192.322803 
L 118.346375 192.72805 
L 118.964089 190.701713 
L 119.169994 190.431513 
L 119.375899 189.756067 
L 119.581804 189.485868 
L 119.787709 191.377158 
L 119.993613 198.672014 
L 120.199518 200.293105 
L 120.405423 205.156272 
L 120.817233 203.805381 
L 121.229042 200.563305 
L 121.434947 196.645677 
L 121.640852 187.324484 
L 122.052661 193.808742 
L 122.464471 192.45785 
L 122.670376 191.106959 
L 122.876281 190.566666 
L 123.082185 190.566666 
L 123.28809 190.161314 
L 123.493995 190.161314 
L 123.6999 190.296466 
L 124.111709 191.512205 
L 124.729424 192.72805 
L 125.141233 192.72805 
L 125.347138 193.133296 
L 125.553043 193.268449 
L 125.758948 193.538648 
L 125.964852 193.538648 
L 126.170757 193.943894 
L 126.376662 193.808742 
L 126.582567 192.863202 
L 126.994376 192.45785 
L 127.200281 191.377158 
L 127.612091 192.593003 
L 128.0239 192.593003 
L 128.229805 192.72805 
L 128.43571 192.322803 
L 128.641615 192.998249 
L 128.84752 192.72805 
L 129.053424 192.72805 
L 129.259329 192.593003 
L 129.465234 192.863202 
L 129.671139 192.863202 
L 129.877044 193.268449 
L 130.082948 193.403496 
L 130.288853 193.403496 
L 130.494758 192.593003 
L 130.700663 192.863202 
L 130.906568 192.593003 
L 131.112472 192.998249 
L 131.318377 194.61934 
L 131.936092 208.263407 
L 132.141996 206.777363 
L 132.347901 207.18261 
L 132.553806 206.101918 
L 132.759711 196.780724 
L 132.965615 194.484188 
L 133.17152 195.159633 
L 133.377425 195.429833 
L 133.58333 196.375478 
L 133.789235 196.105278 
L 133.995139 196.510525 
L 134.201044 196.510525 
L 134.406949 196.915877 
L 134.612854 197.591322 
L 134.818759 197.726369 
L 135.024663 198.266768 
L 135.230568 197.726369 
L 135.436473 198.131616 
L 135.642378 198.131616 
L 135.848283 198.401815 
L 136.054187 198.131616 
L 136.671902 199.887859 
L 136.877807 199.752707 
L 137.083711 200.022906 
L 137.289616 199.61766 
L 137.495521 200.157953 
L 137.907331 199.887859 
L 138.113235 200.428152 
L 138.525045 200.428152 
L 138.73095 200.698352 
L 138.936855 200.563305 
L 139.142759 200.563305 
L 139.348664 200.968551 
L 139.554569 200.563305 
L 139.760474 200.428152 
L 139.966379 200.968551 
L 140.172283 200.968551 
L 140.378188 200.698352 
L 140.584093 200.833399 
L 141.201807 201.508844 
L 141.407712 201.103598 
L 141.613617 201.779044 
L 141.819522 201.508844 
L 142.025426 201.914196 
L 142.231331 202.724689 
L 142.437236 202.589642 
L 142.643141 202.319443 
L 142.849046 202.589642 
L 143.05495 202.589642 
L 143.260855 202.454489 
L 143.46676 202.18429 
L 143.672665 202.994888 
L 143.87857 202.589642 
L 144.084474 202.859736 
L 144.290379 202.454489 
L 144.496284 202.859736 
L 144.702189 204.34578 
L 144.908094 199.482507 
L 145.113998 199.887859 
L 145.319903 199.212413 
L 145.525808 195.835079 
L 145.937618 200.022906 
L 146.143522 201.23875 
L 146.349427 199.887859 
L 147.378951 187.189331 
L 147.584856 187.054285 
L 147.790761 187.189331 
L 147.996666 188.945575 
L 148.61438 191.242111 
L 148.820285 192.052604 
L 149.232094 196.645677 
L 149.437999 197.726369 
L 150.055714 207.858055 
L 150.261618 207.317762 
L 150.467523 207.317762 
L 150.673428 205.021225 
L 150.879333 193.943894 
L 151.085238 190.83676 
L 151.702952 192.72805 
L 152.114761 193.133296 
L 152.320666 193.268449 
L 152.526571 193.268449 
L 152.732476 193.808742 
L 153.144285 194.078941 
L 153.35019 194.484188 
L 153.556095 194.349141 
L 153.762 195.294786 
L 153.967905 194.484188 
L 154.173809 195.700032 
L 154.379714 195.159633 
L 154.585619 195.159633 
L 154.997429 196.375478 
L 155.203333 196.510525 
L 155.615143 197.726369 
L 155.821048 197.726369 
L 156.232857 198.266768 
L 156.438762 198.266768 
L 156.850572 199.34746 
L 157.056477 199.077261 
L 157.262381 199.482507 
L 157.468286 199.61766 
L 157.674191 199.482507 
L 158.086001 197.861416 
L 158.49781 199.61766 
L 158.703715 198.942214 
L 158.90962 199.077261 
L 159.321429 199.61766 
L 159.527334 199.482507 
L 159.733239 198.672014 
L 160.145049 192.863202 
L 160.556858 201.103598 
L 160.762763 201.914196 
L 160.968668 201.643997 
L 161.174572 201.643997 
L 161.380477 197.591322 
L 161.586382 197.591322 
L 161.792287 196.240431 
L 161.998192 195.835079 
L 162.204096 195.700032 
L 163.027716 197.861416 
L 163.23362 197.591322 
L 163.439525 197.726369 
L 163.64543 202.589642 
L 163.851335 202.049243 
L 164.05724 209.344099 
L 164.469049 212.586281 
L 164.674954 210.830038 
L 165.086764 209.884498 
L 165.292668 210.96519 
L 165.498573 206.642316 
L 165.704478 194.754387 
L 165.910383 191.242111 
L 166.116288 190.971912 
L 166.322192 190.971912 
L 166.734002 189.621021 
L 167.351716 186.378839 
L 167.557621 186.108639 
L 167.763526 186.108639 
L 167.969431 185.703393 
L 168.175336 185.703393 
L 168.38124 186.378839 
L 168.587145 185.973592 
L 168.79305 186.243792 
L 168.998955 186.108639 
L 169.410764 187.72973 
L 169.616669 187.72973 
L 170.028479 188.810422 
L 170.234383 188.945575 
L 170.646193 187.594683 
L 170.852098 187.459531 
L 171.058003 187.459531 
L 171.263907 187.594683 
L 171.469812 187.99993 
L 171.675717 187.99993 
L 171.881622 188.134977 
L 172.087527 188.540328 
L 172.293431 188.540328 
L 172.499336 188.675375 
L 172.705241 188.405176 
L 172.911146 188.405176 
L 173.117051 188.134977 
L 173.322955 187.594683 
L 173.52886 187.594683 
L 173.734765 187.459531 
L 173.94067 187.72973 
L 174.146575 188.270129 
L 174.352479 188.405176 
L 174.558384 187.459531 
L 174.764289 194.484188 
L 175.176099 200.428152 
L 175.382003 201.23875 
L 175.587908 201.508844 
L 175.793813 199.752707 
L 175.999718 196.780724 
L 176.411527 188.540328 
L 176.617432 185.298147 
L 177.029242 182.731411 
L 177.235147 184.757748 
L 177.441051 191.106959 
L 177.646956 192.863202 
L 177.852861 193.268449 
L 178.058766 196.240431 
L 178.882385 218.260046 
L 179.08829 218.80034 
L 179.294195 220.961829 
L 179.500099 215.423111 
L 179.706004 217.8548 
L 179.911909 210.96519 
L 180.117814 199.482507 
L 180.529623 194.889539 
L 180.735528 197.996569 
L 180.941433 196.510525 
L 181.147338 196.645677 
L 181.353242 196.375478 
L 181.559147 195.294786 
L 181.765052 195.024586 
L 181.970957 194.349141 
L 182.176862 193.268449 
L 182.382766 193.133296 
L 182.588671 192.863202 
L 182.794576 193.403496 
L 183.41229 196.105278 
L 183.8241 197.050924 
L 184.030005 197.726369 
L 184.23591 198.942214 
L 184.441814 198.672014 
L 184.647719 199.752707 
L 184.853624 200.157953 
L 185.059529 200.022906 
L 185.265434 200.833399 
L 185.471338 200.293105 
L 185.677243 201.103598 
L 185.883148 201.373797 
L 186.089053 202.049243 
L 186.294958 202.319443 
L 186.500862 203.129935 
L 186.706767 203.265088 
L 186.912672 203.805381 
L 187.118577 203.940533 
L 187.324482 204.480827 
L 187.736291 204.07558 
L 187.942196 204.210627 
L 188.148101 204.210627 
L 188.55991 203.400135 
L 188.97172 204.07558 
L 189.177625 204.210627 
L 189.383529 204.07558 
L 189.589434 204.07558 
L 190.207149 205.156272 
L 190.413053 205.291425 
L 191.030768 206.507164 
L 191.236673 206.372117 
L 191.442577 205.966871 
L 191.648482 206.23707 
L 191.854387 205.966871 
L 192.060292 205.966871 
L 192.266197 206.101918 
L 192.472101 206.507164 
L 192.678006 206.507164 
L 192.883911 206.912516 
L 193.089816 206.507164 
L 193.295721 206.507164 
L 193.501625 206.642316 
L 193.913435 207.047563 
L 194.11934 206.912516 
L 194.325245 206.507164 
L 194.531149 205.831718 
L 194.737054 202.724689 
L 194.942959 203.805381 
L 195.148864 201.914196 
L 195.354769 209.749346 
L 195.560673 207.858055 
L 195.766578 204.210627 
L 195.972483 203.400135 
L 196.178388 201.643997 
L 196.384293 202.18429 
L 196.796102 201.373797 
L 197.002007 200.563305 
L 197.207912 200.428152 
L 197.413817 199.887859 
L 197.619721 200.022906 
L 198.44334 201.23875 
L 198.649245 201.103598 
L 198.85515 201.23875 
L 199.26696 208.533501 
L 199.472864 208.938853 
L 199.884674 217.314401 
L 200.090579 218.260046 
L 200.296484 217.8548 
L 200.708293 216.638955 
L 200.914198 202.18429 
L 201.120103 202.319443 
L 201.326008 203.265088 
L 201.531912 203.535182 
L 201.737817 204.615979 
L 201.943722 203.400135 
L 202.149627 204.751026 
L 202.355532 204.615979 
L 202.561436 205.156272 
L 202.767341 205.156272 
L 202.973246 205.291425 
L 203.179151 205.696671 
L 203.59096 205.966871 
L 203.796865 205.831718 
L 204.00277 206.372117 
L 204.41458 205.426472 
L 204.620484 205.831718 
L 204.826389 205.831718 
L 205.238199 206.101918 
L 205.444104 205.021225 
L 205.650008 205.021225 
L 205.855913 205.696671 
L 206.267723 205.966871 
L 206.473628 206.23707 
L 206.679532 205.966871 
L 207.914961 207.452809 
L 208.120866 207.317762 
L 208.326771 207.587961 
L 208.532675 207.18261 
L 208.73858 207.587961 
L 208.944485 207.723008 
L 209.15039 207.452809 
L 209.562199 207.858055 
L 209.768104 207.587961 
L 209.974009 208.668654 
L 210.179914 208.533501 
L 210.385819 207.993208 
L 210.591723 205.021225 
L 210.797628 206.642316 
L 211.003533 212.991527 
L 211.209438 212.316082 
L 211.415343 212.451129 
L 211.621247 210.96519 
L 211.827152 207.858055 
L 212.444867 206.507164 
L 212.650771 205.831718 
L 213.268486 205.156272 
L 213.474391 207.317762 
L 213.680295 205.966871 
L 213.8862 205.696671 
L 214.092105 205.696671 
L 214.29801 206.101918 
L 214.503915 205.966871 
L 214.709819 206.642316 
L 214.915724 206.101918 
L 215.121629 206.23707 
L 215.327534 205.966871 
L 215.533439 213.126574 
L 215.739343 229.067178 
L 215.945248 230.568731 
L 216.357058 235.702098 
L 216.768867 227.731796 
L 217.180677 233.94596 
L 217.386582 212.736837 
L 217.592486 218.545649 
L 217.798391 213.817529 
L 218.004296 205.71218 
L 218.416106 202.199905 
L 218.62201 209.900007 
L 218.827915 198.552477 
L 219.03382 195.580389 
L 219.239725 195.175143 
L 219.651534 200.308615 
L 219.857439 211.115746 
L 220.063344 215.168421 
L 220.269249 216.519312 
L 220.475154 215.168421 
L 220.681058 208.81921 
L 220.886963 207.738518 
L 221.092868 208.549116 
L 221.298773 208.684163 
L 221.504678 209.359609 
L 221.710582 204.361289 
L 221.916487 202.605151 
L 222.122392 201.929705 
L 222.328297 202.064752 
L 222.534202 201.929705 
L 222.740106 200.308615 
L 222.946011 200.308615 
L 223.151916 200.443662 
L 223.357821 200.443662 
L 223.563726 200.713861 
L 223.975535 199.227923 
L 224.18144 195.850588 
L 224.387345 194.36465 
L 224.799154 201.794553 
L 225.210964 190.447023 
L 225.416869 193.824251 
L 225.622774 193.013758 
L 225.828678 193.148805 
L 226.034583 192.068113 
L 226.240488 192.47336 
L 226.446393 191.662867 
L 226.858202 194.634849 
L 227.064107 194.634849 
L 227.270012 194.229498 
L 227.475917 194.499697 
L 227.681821 194.229498 
L 227.887726 194.229498 
L 228.093631 194.634849 
L 228.299536 193.554052 
L 228.505441 193.959404 
L 228.711345 193.959404 
L 228.91725 194.499697 
L 229.123155 195.445342 
L 229.740869 203.685843 
L 229.946774 204.631488 
L 230.152679 204.766535 
L 230.564489 204.09109 
L 230.976298 199.903368 
L 231.388108 196.526034 
L 231.594013 196.120788 
L 231.799917 199.362969 
L 232.005822 198.147125 
L 232.211727 199.498016 
L 233.035346 200.443662 
L 233.241251 202.334952 
L 233.447156 200.849013 
L 233.653061 200.98406 
L 233.858965 202.199905 
L 234.06487 202.064752 
L 234.270775 201.794553 
L 234.47668 201.929705 
L 234.682585 201.524459 
L 234.888489 200.578814 
L 235.094394 200.443662 
L 235.300299 200.713861 
L 235.506204 201.25426 
L 235.918013 200.308615 
L 236.123918 200.308615 
L 236.535728 200.713861 
L 236.741632 201.524459 
L 236.947537 201.524459 
L 237.153442 202.740198 
L 237.359347 202.740198 
L 237.771156 203.280597 
L 237.977061 202.740198 
L 238.182966 204.226242 
L 238.80068 215.033374 
L 239.006585 215.43862 
L 239.21249 214.492975 
L 239.418395 206.387626 
L 239.6243 203.956043 
L 239.830204 204.496336 
L 240.036109 204.361289 
L 240.447919 205.036735 
L 240.859728 202.875351 
L 241.065633 202.199905 
L 241.271538 204.496336 
L 241.683348 204.901688 
L 241.889252 206.387626 
L 242.301062 207.87367 
L 242.506967 207.603471 
L 243.124681 208.954362 
L 243.330586 209.629808 
L 243.536491 209.629808 
L 244.154205 208.278916 
L 244.36011 208.549116 
L 244.566015 208.413963 
L 244.977824 208.81921 
L 245.183729 208.81921 
L 245.595539 209.224562 
L 245.801443 209.359609 
L 246.007348 209.359609 
L 246.213253 208.81921 
L 246.419158 209.224562 
L 246.830967 207.87367 
L 247.036872 208.81921 
L 247.242777 211.250899 
L 247.448682 211.115746 
L 247.654587 211.250899 
L 247.860491 213.142084 
L 248.066396 218.140403 
L 248.272301 219.491295 
L 248.478206 219.626447 
L 248.684111 219.896646 
L 249.09592 209.494655 
L 249.301825 208.278916 
L 249.50773 208.684163 
L 249.713635 207.87367 
L 250.125444 207.87367 
L 250.331349 208.81921 
L 250.537254 208.278916 
L 250.743159 208.278916 
L 250.949063 208.143764 
L 251.154968 206.522673 
L 251.360873 205.847227 
L 251.566778 207.333271 
L 251.978587 210.7105 
L 252.184492 210.305254 
L 252.390397 209.224562 
L 252.596302 209.629808 
L 253.008111 209.224562 
L 253.214016 209.224562 
L 253.419921 209.764855 
L 253.625826 209.764855 
L 253.831731 209.224562 
L 254.037635 209.089409 
L 254.861254 204.09109 
L 255.067159 204.09109 
L 255.273064 203.956043 
L 255.478969 204.901688 
L 255.684874 204.766535 
L 256.096683 205.171782 
L 256.302588 205.036735 
L 256.508493 205.71218 
L 256.714398 205.306934 
L 256.920302 205.577134 
L 257.332112 211.656145 
L 257.538017 213.817529 
L 257.949826 220.301893 
L 258.155731 218.140403 
L 258.773446 208.278916 
L 258.97935 198.282277 
L 259.39116 193.689204 
L 259.597065 192.743559 
L 259.80297 193.148805 
L 260.420684 195.580389 
L 260.626589 195.580389 
L 260.832494 196.661187 
L 261.038398 196.796234 
L 261.450208 197.336632 
L 261.656113 198.282277 
L 261.862018 198.282277 
L 262.273827 199.903368 
L 262.685637 201.389307 
L 263.097446 201.119107 
L 263.509256 200.308615 
L 263.715161 199.903368 
L 263.921065 201.389307 
L 264.12697 199.633169 
L 264.332875 201.524459 
L 264.53878 201.659506 
L 264.744685 202.469999 
L 264.950589 204.226242 
L 265.362399 204.901688 
L 265.568304 205.036735 
L 266.186018 205.847227 
L 266.391923 205.577134 
L 266.597828 205.036735 
L 266.803733 200.713861 
L 267.009637 199.362969 
L 267.215542 197.20148 
L 267.421447 197.471679 
L 267.627352 195.175143 
L 267.833257 195.040096 
L 268.245066 191.527715 
L 268.656876 184.773257 
L 269.27459 174.776618 
L 269.480495 175.046818 
L 269.6864 175.722263 
L 270.715924 187.339993 
L 271.127733 189.501377 
L 271.951353 192.338313 
L 272.774972 195.850588 
L 273.186781 196.796234 
L 273.598591 197.066433 
L 273.804496 197.336632 
L 274.0104 197.876926 
L 274.216305 196.931386 
L 274.42221 200.98406 
L 274.628115 202.334952 
L 274.83402 202.605151 
L 275.245829 202.605151 
L 275.451734 202.875351 
L 275.863544 198.417324 
L 276.069448 200.173462 
L 276.481258 209.359609 
L 276.687163 206.387626 
L 277.922592 156.118722 
L 278.128496 163.548625 
L 278.334401 166.925959 
L 278.540306 168.006652 
L 278.746211 168.141699 
L 279.15802 179.759428 
L 279.56983 183.00161 
L 279.775735 183.812103 
L 279.98164 183.947255 
L 280.393449 185.973592 
L 280.599354 186.919238 
L 281.834783 195.970232 
L 282.658402 199.61766 
L 282.864307 199.887859 
L 283.276116 201.508844 
L 284.099735 203.129935 
L 284.30564 202.859736 
L 284.511545 203.400135 
L 284.71745 203.400135 
L 284.923355 203.940533 
L 285.129259 203.265088 
L 285.541069 204.34578 
L 285.746974 204.480827 
L 285.952879 204.480827 
L 286.158783 204.751026 
L 286.364688 204.751026 
L 286.570593 205.426472 
L 286.776498 205.291425 
L 286.982403 205.831718 
L 287.188307 205.966871 
L 287.600117 205.966871 
L 287.806022 206.23707 
L 288.011927 206.777363 
L 288.217831 206.777363 
L 288.629641 207.18261 
L 288.835546 207.317762 
L 289.041451 207.317762 
L 289.247355 207.047563 
L 289.45326 207.452809 
L 289.86507 207.047563 
L 290.276879 206.777363 
L 290.482784 206.507164 
L 290.688689 207.18261 
L 290.894594 205.696671 
L 291.100499 203.129935 
L 291.512308 201.643997 
L 291.718213 201.643997 
L 291.924118 201.23875 
L 292.130022 201.103598 
L 292.335927 200.293105 
L 292.747737 197.185971 
L 292.953642 194.484188 
L 293.365451 192.45785 
L 293.571356 191.512205 
L 293.777261 191.647358 
L 293.983166 191.512205 
L 294.394975 192.052604 
L 294.806785 191.242111 
L 295.01269 191.512205 
L 295.218594 191.242111 
L 295.630404 193.538648 
L 295.836309 192.863202 
L 296.042214 193.943894 
L 296.248118 193.673695 
L 296.454023 193.943894 
L 296.865833 195.294786 
L 297.071738 195.294786 
L 297.277642 196.375478 
L 297.689452 196.105278 
L 297.895357 196.915877 
L 298.101262 197.050924 
L 298.307166 197.321123 
L 298.513071 197.996569 
L 298.718976 197.726369 
L 298.924881 197.726369 
L 299.130786 195.700032 
L 299.33669 196.645677 
L 299.542595 198.266768 
L 299.7485 198.131616 
L 299.954405 200.833399 
L 300.366214 202.319443 
L 300.572119 202.18429 
L 300.983929 198.942214 
L 301.395738 192.187757 
L 301.807548 187.324484 
L 302.013453 186.513886 
L 302.219357 187.054285 
L 302.425262 184.217349 
L 302.631167 187.054285 
L 302.837072 187.594683 
L 303.042977 187.72973 
L 303.660691 190.431513 
L 303.866596 192.052604 
L 304.072501 192.593003 
L 304.278405 193.943894 
L 304.48431 193.268449 
L 304.690215 195.159633 
L 304.89612 195.294786 
L 305.307929 192.72805 
L 305.513834 194.078941 
L 305.719739 193.943894 
L 305.925644 194.214094 
L 306.131549 189.89122 
L 306.543358 195.294786 
L 306.955168 198.131616 
L 307.161073 195.835079 
L 307.366977 195.024586 
L 307.572882 195.970232 
L 307.778787 196.375478 
L 307.984692 195.835079 
L 308.190597 196.510525 
L 308.396501 199.752707 
L 308.602406 200.968551 
L 308.808311 200.563305 
L 309.014216 198.942214 
L 309.220121 201.373797 
L 309.426025 202.319443 
L 309.63193 200.833399 
L 310.04374 202.724689 
L 310.249644 202.994888 
L 310.661454 202.049243 
L 311.073264 201.643997 
L 311.485073 201.643997 
L 311.690978 201.508844 
L 311.896883 201.914196 
L 312.514597 203.670334 
L 312.720502 203.670334 
L 312.926407 203.535182 
L 313.132312 204.480827 
L 313.338216 202.319443 
L 313.544121 204.210627 
L 313.750026 204.751026 
L 313.955931 204.751026 
L 314.161836 204.480827 
L 314.36774 203.805381 
L 314.573645 204.480827 
L 314.77955 204.34578 
L 314.985455 201.23875 
L 315.19136 201.23875 
L 315.397264 197.996569 
L 315.603169 198.266768 
L 315.809074 198.807061 
L 316.014979 198.807061 
L 316.220884 198.672014 
L 316.426788 195.970232 
L 316.632693 191.782405 
L 317.456312 168.141699 
L 317.662217 167.871499 
L 317.868122 167.871499 
L 318.074027 168.411898 
L 318.279932 163.548625 
L 319.103551 126.263852 
L 319.309456 125.588406 
L 319.721265 132.207817 
L 320.133075 147.878221 
L 320.544884 163.413578 
L 320.750789 168.006652 
L 321.162599 171.113681 
L 321.368503 172.599725 
L 321.986218 206.372117 
L 322.192123 211.23539 
L 322.398027 208.263407 
L 322.603932 199.482507 
L 322.809837 202.319443 
L 323.015742 200.833399 
L 323.427551 186.649038 
L 323.633456 170.032989 
L 323.839361 171.789127 
L 324.045266 170.708434 
L 324.251171 171.518927 
L 324.66298 175.436555 
L 324.868885 178.678736 
L 325.07479 177.327845 
L 325.280695 184.352502 
L 325.486599 181.650719 
L 325.692504 184.487549 
L 325.898409 185.433194 
L 326.104314 184.217349 
L 326.310219 181.920813 
L 326.516123 177.733091 
L 326.927933 160.306549 
L 327.339743 144.771192 
L 327.545647 141.393963 
L 327.751552 140.718517 
L 328.163362 145.446637 
L 329.192886 164.629423 
L 330.22241 175.031308 
L 330.634219 177.057645 
L 330.840124 177.192692 
L 331.046029 177.057645 
L 331.251934 177.192692 
L 331.457838 178.408537 
L 331.663743 177.327845 
L 331.869648 177.057645 
L 332.075553 178.138338 
L 332.281458 178.543584 
L 332.487362 181.11032 
L 332.899172 167.871499 
L 333.105077 174.22071 
L 333.310982 161.252089 
L 333.516886 159.631103 
L 333.722791 140.718517 
L 333.928696 143.015054 
L 334.134601 148.283573 
L 334.752315 154.632784 
L 334.95822 154.092385 
L 335.164125 149.634464 
L 335.37003 139.097426 
L 335.987744 129.776233 
L 336.399554 134.099107 
L 337.017268 145.716837 
L 337.223173 152.741494 
L 337.634982 181.380519 
L 337.840887 180.975273 
L 338.046792 179.894475 
L 338.252697 185.162994 
L 338.458601 185.433194 
L 339.076316 171.518927 
L 339.282221 155.443277 
L 339.488125 162.467933 
L 339.899935 144.230793 
L 340.10584 143.960699 
L 341.135364 157.199414 
L 341.547173 153.687139 
L 342.164888 149.904558 
L 343.194412 159.360904 
L 343.400317 159.360904 
L 343.606221 159.495951 
L 343.812126 157.87486 
L 344.635745 145.987036 
L 344.84165 155.173077 
L 345.047555 155.443277 
L 345.25346 153.957338 
L 345.665269 157.739813 
L 345.871174 158.955552 
L 346.077079 156.388922 
L 346.488889 162.603086 
L 347.106603 158.820505 
L 347.724317 150.039711 
L 348.342032 127.34465 
L 348.753841 116.267213 
L 348.959746 114.655723 
L 349.57746 133.838403 
L 349.783365 133.29811 
L 350.812889 160.316045 
L 351.224699 153.831681 
L 351.430604 156.398417 
L 351.636508 154.777326 
L 351.842413 150.994851 
L 352.254223 148.157916 
L 352.460128 146.671977 
L 352.666032 146.131579 
L 353.077842 147.617623 
L 353.695556 151.535145 
L 353.901461 153.156235 
L 354.107366 157.479109 
L 354.313271 157.749309 
L 354.72508 162.882781 
L 354.930985 163.963473 
L 355.13689 164.09852 
L 356.372319 173.410217 
L 356.578224 173.27517 
L 356.784128 168.546945 
L 356.990033 158.685458 
L 357.401843 134.9096 
L 358.019557 114.511075 
L 358.225462 111.008295 
L 358.431367 110.06265 
L 358.843176 121.950579 
L 359.254986 131.947218 
L 359.666795 135.594541 
L 359.8727 138.431476 
L 360.078605 138.566629 
L 360.490415 141.808705 
L 360.696319 143.159596 
L 361.314034 155.182573 
L 361.519939 150.049206 
L 361.725843 150.589605 
L 361.931748 153.966834 
L 362.137653 153.696634 
L 362.343558 142.619303 
L 362.961272 82.369269 
L 362.961272 82.369269 
" clip-path="url(#pd6d3315ef2)" style="fill: none; stroke: #008000; stroke-width: 0.5; stroke-linecap: square"/>
   </g>
   <g id="line2d_28">
    <defs>
     <path id="m17a0dc96a4" d="M 0 2 
C 0.530406 2 1.03916 1.789267 1.414214 1.414214 
C 1.789267 1.03916 2 0.530406 2 0 
C 2 -0.530406 1.789267 -1.03916 1.414214 -1.414214 
C 1.03916 -1.789267 0.530406 -2 0 -2 
C -0.530406 -2 -1.03916 -1.789267 -1.414214 -1.414214 
C -1.789267 -1.03916 -2 -0.530406 -2 0 
C -2 0.530406 -1.789267 1.03916 -1.414214 1.414214 
C -1.03916 1.789267 -0.530406 2 0 2 
z
" style="stroke: #006400"/>
    </defs>
    <g clip-path="url(#pd6d3315ef2)">
     <use xlink:href="#m17a0dc96a4" x="75.312273" y="185.703393" style="fill: #006400; stroke: #006400"/>
     <use xlink:href="#m17a0dc96a4" x="362.961272" y="82.369269" style="fill: #006400; stroke: #006400"/>
    </g>
   </g>
   <g id="line2d_29">
    <path d="M 363.990796 92.095709 
L 364.196701 98.174721 
L 364.402606 96.418583 
L 364.814415 109.792451 
L 365.43213 130.190975 
L 365.638035 146.401778 
L 365.843939 174.770604 
L 366.049844 187.324484 
L 366.461654 193.538648 
L 367.079368 199.752707 
L 367.285273 201.103598 
L 367.491178 200.968551 
L 367.697082 200.968551 
L 367.902987 202.049243 
L 368.108892 202.049243 
L 368.314797 203.129935 
L 368.520702 201.914196 
L 368.726606 189.215774 
L 368.932511 191.647358 
L 369.138416 190.026267 
L 369.75613 198.536968 
L 370.373845 205.831718 
L 370.57975 206.912516 
L 370.991559 196.240431 
L 371.403369 198.266768 
L 371.609274 199.212413 
L 371.815178 197.996569 
L 372.021083 203.670334 
L 372.226988 200.563305 
L 372.638798 153.551986 
L 373.050607 110.863647 
L 373.256512 96.013231 
L 373.462417 89.528973 
L 373.668322 92.365908 
L 375.521465 147.347423 
L 375.727369 148.293068 
L 375.933274 148.428115 
L 376.550989 144.64564 
L 376.756893 144.64564 
L 377.168703 146.942177 
L 377.580513 150.859699 
L 378.198227 157.344062 
L 378.404132 158.154555 
L 379.227751 163.017828 
L 380.257275 168.016147 
L 380.46318 168.151194 
L 380.669085 169.637238 
L 380.874989 169.367039 
L 381.286799 167.340701 
L 381.492704 164.368719 
L 381.698609 158.424754 
L 381.904513 155.858018 
L 382.522228 153.156235 
L 382.728133 151.129898 
L 382.934037 144.105241 
L 383.757657 97.229075 
L 383.963561 92.500955 
L 384.169466 91.285111 
L 384.375371 93.7168 
L 384.581276 97.499275 
L 385.404895 120.599688 
L 385.816704 123.166318 
L 386.022609 123.436518 
L 386.640324 126.543547 
L 387.052133 129.515529 
L 387.669848 132.622664 
L 388.905276 137.485831 
L 389.522991 135.324447 
L 389.728896 134.784048 
L 389.9348 135.189295 
L 390.34661 137.891077 
L 390.552515 139.106922 
L 390.75842 138.431476 
L 390.964324 134.649001 
L 391.582039 117.357506 
L 391.787944 114.655723 
L 391.993848 114.925817 
L 392.199753 116.68206 
L 392.611563 123.976916 
L 393.229277 134.378802 
L 393.846992 140.457813 
L 394.670611 144.91584 
L 394.876515 145.591285 
L 395.08242 145.726332 
L 395.288325 145.456133 
L 395.700135 146.131579 
L 395.906039 145.321086 
L 396.317849 139.512168 
L 396.935563 129.24533 
L 397.141468 127.894438 
L 397.347373 128.434837 
L 398.376897 136.270092 
L 398.582802 138.431476 
L 399.200516 140.998212 
L 399.612326 138.971875 
L 400.024135 150.049206 
L 400.435945 141.403459 
L 400.847755 136.810385 
L 401.053659 136.13494 
L 401.259564 134.919095 
L 401.671374 135.594541 
L 402.083183 131.812066 
L 402.494993 125.327808 
L 402.700898 125.462855 
L 402.906803 126.813746 
L 403.112707 126.4085 
L 403.730422 122.355826 
L 403.936326 121.41018 
L 404.142231 121.815427 
L 404.348136 122.626025 
L 404.759946 126.003254 
L 405.78947 132.757711 
L 405.995374 133.568204 
L 406.407184 132.217312 
L 406.613089 131.13662 
L 406.818994 131.40682 
L 407.436708 133.433157 
L 407.642613 135.189295 
L 407.848518 135.86474 
L 408.466232 139.106922 
L 408.878042 140.322766 
L 409.289851 141.403459 
L 409.495756 141.268412 
L 409.907566 140.322766 
L 410.319375 141.403459 
L 410.52528 140.592966 
L 410.731185 140.728013 
L 410.93709 140.322766 
L 411.142994 140.187614 
L 411.348899 139.377121 
L 411.554804 137.891077 
L 411.760709 134.919095 
L 412.378423 118.708398 
L 412.790233 108.981852 
L 412.996138 107.22582 
L 413.202042 106.955515 
L 413.613852 109.657404 
L 414.025661 114.250371 
L 414.437471 116.546908 
L 414.643376 116.95226 
L 414.849281 117.897799 
L 415.878805 125.327808 
L 416.084709 125.868101 
L 416.290614 127.354145 
L 416.496519 127.624344 
L 416.702424 126.813746 
L 417.320138 121.950579 
L 417.526043 121.004934 
L 417.731948 120.734735 
L 417.937853 121.275134 
L 418.143757 121.41018 
L 419.173281 126.003254 
L 419.585091 127.218993 
L 420.202805 126.813746 
L 420.40871 127.083946 
L 421.232329 121.004934 
L 421.438234 120.464535 
L 421.644139 121.275134 
L 421.850044 121.139981 
L 422.055949 121.815427 
L 422.467758 124.51721 
L 422.673663 124.922456 
L 422.879568 126.543547 
L 423.497282 128.29979 
L 423.909092 130.055928 
L 424.114996 130.461174 
L 424.320901 130.326127 
L 424.526806 131.001573 
L 424.732711 131.13662 
L 425.14452 131.947218 
L 425.350425 131.947218 
L 425.762235 132.757711 
L 425.96814 132.892758 
L 426.585854 133.838403 
L 426.791759 133.703356 
L 426.997664 134.108602 
L 427.203568 132.217312 
L 427.409473 132.217312 
L 427.615378 134.649001 
L 427.821283 135.459494 
L 428.027188 134.784048 
L 428.233092 135.189295 
L 428.438997 132.487512 
L 429.468521 103.983638 
L 429.880331 100.066011 
L 430.29214 102.632747 
L 430.70395 107.901266 
L 431.11576 113.034632 
L 431.733474 117.357506 
L 432.145283 119.248796 
L 432.557093 121.950579 
L 432.968903 123.841764 
L 433.174807 122.761072 
L 433.380712 117.087307 
L 434.204331 78.046396 
L 434.410236 75.614707 
L 434.616141 76.560352 
L 434.822046 79.127088 
L 436.057475 110.467896 
L 436.263379 112.62928 
L 436.469284 118.573245 
L 437.704713 134.513849 
L 437.910618 135.594541 
L 438.116523 135.459494 
L 438.322427 134.919095 
L 438.528332 135.324447 
L 438.940142 136.675338 
L 439.146047 137.75603 
L 439.351951 138.02623 
L 439.763761 139.377121 
L 439.969666 139.782368 
L 440.175571 140.457813 
L 440.381475 141.943857 
L 440.58738 142.349104 
L 440.793285 142.484151 
L 440.99919 143.294749 
L 441.410999 143.564948 
L 441.616904 144.375441 
L 441.822809 144.375441 
L 442.028714 144.240394 
L 442.440523 145.996532 
L 442.646428 145.996532 
L 442.852333 146.131579 
L 443.264142 146.671977 
L 443.470047 148.157916 
L 443.881857 148.428115 
L 444.087762 149.779007 
L 444.499571 150.454452 
L 445.117286 152.48079 
L 445.529095 153.291388 
L 445.735 153.561482 
L 446.14681 154.912479 
L 446.352714 155.587924 
L 446.558619 155.858018 
L 446.764524 156.533464 
L 447.176334 157.20891 
L 447.382238 157.884356 
L 447.588143 157.884356 
L 447.794048 158.424754 
L 447.999953 158.559801 
L 448.411762 158.965153 
L 448.617667 158.965153 
L 448.823572 159.235353 
L 449.029477 158.830001 
L 449.235382 159.235353 
L 449.441286 159.910798 
L 449.647191 160.045845 
L 449.853096 159.910798 
L 450.059001 160.856338 
L 450.47081 160.856338 
L 450.88262 161.126537 
L 451.088525 161.126537 
L 451.294429 161.666936 
L 451.500334 161.666936 
L 451.706239 162.477429 
L 451.912144 162.342382 
L 452.118049 162.882781 
L 452.323953 162.747628 
L 452.529858 163.152874 
L 452.735763 163.288027 
L 453.147573 163.288027 
L 453.559382 163.963473 
L 453.765287 164.773965 
L 453.971192 164.368719 
L 454.383001 165.179317 
L 454.588906 164.638918 
L 454.794811 164.773965 
L 455.000716 164.503871 
L 455.412525 165.314364 
L 455.61843 165.314364 
L 456.03024 166.260009 
L 456.236145 165.854763 
L 456.647954 166.665256 
L 456.853859 166.395056 
L 457.265669 167.205654 
L 457.471573 167.070502 
L 457.677478 167.475748 
L 457.883383 167.475748 
L 458.089288 167.610901 
L 458.295193 168.016147 
L 458.501097 167.475748 
L 458.912907 168.556546 
L 459.324717 168.286346 
L 459.530621 168.556546 
L 459.736526 169.096839 
L 459.942431 168.961792 
L 460.148336 169.502085 
L 460.35424 169.502085 
L 460.76605 169.772285 
L 460.971955 170.303188 
L 461.17786 170.168036 
L 461.383764 170.438235 
L 461.589669 170.168036 
L 461.795574 170.303188 
L 462.001479 170.978634 
L 462.207384 170.573388 
L 462.413288 170.573388 
L 462.619193 171.38388 
L 462.825098 171.248833 
L 463.031003 171.789127 
L 463.236908 171.518927 
L 463.442812 170.708434 
L 463.854622 170.032989 
L 464.060527 169.627742 
L 464.266432 170.032989 
L 464.472336 169.627742 
L 464.678241 170.303188 
L 464.884146 170.303188 
L 465.090051 171.113681 
L 465.50186 170.438235 
L 465.707765 169.49259 
L 465.91367 169.49259 
L 466.119575 169.762789 
L 466.32548 168.952297 
L 466.531384 168.682097 
L 466.737289 168.817144 
L 466.943194 169.087344 
L 467.560908 170.438235 
L 467.972718 171.38388 
L 468.178623 170.978634 
L 468.384528 171.113681 
L 468.590432 171.789127 
L 468.796337 171.248833 
L 469.002242 171.113681 
L 469.208147 171.789127 
L 469.414051 171.924279 
L 469.619956 171.38388 
L 469.825861 167.601405 
L 470.031766 172.599725 
L 470.237671 170.168036 
L 470.443575 171.518927 
L 470.64948 170.303188 
L 470.855385 170.708434 
L 471.06129 169.087344 
L 471.267195 165.304869 
L 472.502623 129.91128 
L 472.708528 128.425342 
L 472.914433 128.290189 
L 473.326243 130.856925 
L 473.943957 136.935937 
L 474.355767 139.232473 
L 474.767576 140.178119 
L 475.385291 142.339608 
L 475.591195 142.474655 
L 475.7971 142.744855 
L 476.20891 144.230793 
L 477.032529 146.932681 
L 477.238434 146.662482 
L 477.444339 147.067728 
L 477.650243 147.067728 
L 477.856148 147.337928 
L 478.062053 147.067728 
L 478.267958 147.608127 
L 478.473862 147.608127 
L 478.679767 148.283573 
L 478.885672 148.41862 
L 479.297482 149.229112 
L 479.503386 148.959019 
L 479.915196 150.039711 
L 480.121101 149.769511 
L 480.327006 149.904558 
L 480.53291 148.823866 
L 480.738815 149.364265 
L 480.94472 149.364265 
L 481.150625 149.499312 
L 481.35653 149.364265 
L 481.562434 149.499312 
L 481.974244 148.823866 
L 482.180149 149.229112 
L 482.386054 149.229112 
L 482.591958 148.959019 
L 482.797863 148.959019 
L 483.003768 149.094066 
L 483.209673 149.094066 
L 483.415578 148.959019 
L 483.827387 148.959019 
L 484.033292 148.823866 
L 484.239197 148.959019 
L 484.445102 148.14842 
L 484.651006 146.797529 
L 484.856911 146.52733 
L 485.062816 147.608127 
L 485.268721 147.472975 
L 485.474626 142.339608 
L 485.68053 141.934362 
L 485.886435 143.960699 
L 487.121864 99.255413 
L 487.327769 96.688677 
L 487.533674 95.607985 
L 487.739578 91.55531 
L 487.945483 84.6657 
L 488.563197 55.813659 
L 488.769102 52.706525 
L 488.975007 51.760985 
L 489.180912 53.787322 
L 490.004531 85.938623 
L 490.416341 99.582691 
L 490.82815 106.337253 
L 491.034055 105.931902 
L 491.23996 107.012699 
L 491.445865 105.661808 
L 492.269484 109.039036 
L 492.475389 108.363591 
L 492.681293 118.225077 
L 492.887198 105.874823 
L 493.093103 101.28175 
L 493.916722 108.17136 
L 494.328532 100.201058 
L 494.740341 92.500955 
L 495.152151 90.069372 
L 495.358056 89.123727 
L 495.563961 89.934219 
L 495.769865 89.934219 
L 495.97577 89.799172 
L 496.38758 87.907882 
L 496.799389 93.4466 
L 497.828913 112.764433 
L 498.034818 114.925817 
L 498.446628 116.95226 
L 499.270247 123.706717 
L 499.887961 128.434837 
L 500.093866 128.975236 
L 500.299771 130.326127 
L 500.505676 130.866421 
L 500.71158 130.866421 
L 500.917485 130.731374 
L 501.12339 129.785729 
L 501.5352 129.380482 
L 501.947009 130.731374 
L 502.152914 130.731374 
L 504.006057 137.620984 
L 504.211962 138.296429 
L 504.417867 138.296429 
L 504.623772 138.971875 
L 504.829676 139.106922 
L 505.035581 138.836723 
L 505.447391 139.242074 
L 505.653296 138.566629 
L 506.065105 139.512168 
L 506.27101 139.512168 
L 506.476915 140.728013 
L 507.094629 141.673658 
L 507.506439 143.024549 
L 507.712343 143.024549 
L 508.330058 144.375441 
L 508.535963 144.780687 
L 508.741867 144.91584 
L 509.153677 145.591285 
L 509.359582 145.321086 
L 509.565487 145.861379 
L 509.771391 145.456133 
L 509.977296 145.861379 
L 510.183201 145.185934 
L 510.595011 142.75435 
L 510.800915 142.75435 
L 511.212725 141.808705 
L 511.41863 138.296429 
L 511.624535 128.705037 
L 511.830439 126.003254 
L 512.036344 125.057609 
L 512.242249 124.787409 
L 512.448154 122.626025 
L 512.859963 111.95394 
L 513.477678 96.55363 
L 513.889487 93.4466 
L 514.095392 93.311448 
L 514.507202 94.932539 
L 515.330821 102.902841 
L 515.742631 105.33453 
L 515.948535 106.415222 
L 516.15444 108.17136 
L 516.360345 108.441559 
L 516.56625 108.036313 
L 516.772154 111.548588 
L 516.978059 112.494233 
L 517.183964 112.224034 
L 517.595774 111.008295 
L 517.801678 111.413541 
L 518.007583 113.710078 
L 518.213488 114.655723 
L 518.625298 117.357506 
L 519.037107 118.438198 
L 519.243012 118.438198 
L 519.448917 118.167999 
L 519.860726 119.248796 
L 520.066631 119.113644 
L 520.89025 120.734735 
L 521.096155 120.599688 
L 521.507965 122.085626 
L 521.71387 123.436518 
L 521.919774 123.436518 
L 522.743394 125.327808 
L 522.949298 125.192655 
L 523.361108 125.462855 
L 523.567013 125.868101 
L 523.772918 126.003254 
L 523.978822 126.948899 
L 524.184727 127.354145 
L 524.802442 129.110283 
L 525.008346 129.380482 
L 525.626061 130.866421 
L 525.831965 132.352465 
L 526.03787 131.40682 
L 526.243775 132.757711 
L 526.44968 132.217312 
L 526.655585 132.622664 
L 526.861489 132.622664 
L 527.067394 133.29811 
L 527.273299 133.568204 
L 527.479204 133.568204 
L 527.685109 134.513849 
L 527.891013 134.243649 
L 528.096918 134.378802 
L 528.508728 135.324447 
L 528.920537 135.729693 
L 529.126442 135.86474 
L 529.538252 135.86474 
L 529.744157 136.270092 
L 529.950061 136.405139 
L 530.361871 129.650682 
L 530.567776 129.920776 
L 530.773681 134.919095 
L 531.391395 139.782368 
L 531.5973 140.457813 
L 531.803205 140.457813 
L 532.215014 139.647321 
L 532.420919 139.782368 
L 532.626824 139.377121 
L 532.832729 139.782368 
L 533.038633 139.91752 
L 533.244538 139.782368 
L 533.450443 140.457813 
L 533.656348 140.457813 
L 534.068157 141.943857 
L 534.274062 142.349104 
L 534.891776 142.75435 
L 535.097681 142.75435 
L 535.303586 143.024549 
L 535.509491 142.75435 
L 536.127205 143.429796 
L 536.33311 143.294749 
L 536.539015 143.699995 
L 536.74492 143.699995 
L 536.950824 143.970195 
L 537.156729 143.835042 
L 537.362634 143.429796 
L 537.774444 144.240394 
L 537.980348 144.105241 
L 538.186253 144.510488 
L 538.392158 144.375441 
L 538.598063 144.375441 
L 538.803968 144.64564 
L 539.009872 144.64564 
L 539.215777 144.780687 
L 539.627587 145.185934 
L 539.833492 144.91584 
L 540.039396 144.91584 
L 540.245301 145.185934 
L 540.451206 144.64564 
L 540.657111 144.780687 
L 540.863016 144.510488 
L 541.06892 145.050887 
L 541.274825 145.050887 
L 541.48073 144.91584 
L 541.686635 145.591285 
L 541.89254 145.456133 
L 542.098444 145.591285 
L 542.510254 146.266731 
L 542.716159 146.807024 
L 542.922064 146.671977 
L 543.539778 147.077224 
L 543.951587 147.077224 
L 544.363397 147.617623 
L 544.569302 147.48247 
L 544.775207 147.75267 
L 544.981111 147.617623 
L 545.392921 148.022869 
L 546.010635 148.428115 
L 546.21654 148.022869 
L 546.422445 148.563268 
L 546.834255 147.48247 
L 547.040159 148.428115 
L 547.451969 148.157916 
L 547.657874 148.563268 
L 547.863779 148.022869 
L 548.069683 148.698315 
L 548.275588 148.698315 
L 548.481493 148.968514 
L 548.687398 149.779007 
L 549.099207 150.184253 
L 549.305112 150.319406 
L 549.511017 150.319406 
L 549.716922 149.914159 
L 549.922827 150.454452 
L 550.128731 150.049206 
L 550.540541 148.698315 
L 550.746446 147.48247 
L 550.952351 147.75267 
L 551.158255 147.617623 
L 551.36416 147.75267 
L 551.570065 147.617623 
L 551.77597 148.157916 
L 551.981875 148.022869 
L 552.187779 148.293068 
L 552.393684 148.968514 
L 552.599589 148.968514 
L 552.805494 149.914159 
L 553.011399 150.049206 
L 553.217303 150.319406 
L 553.423208 151.129898 
L 553.835018 150.184253 
L 554.864542 145.321086 
L 555.070446 144.64564 
L 555.276351 145.321086 
L 555.482256 144.780687 
L 555.688161 145.321086 
L 556.09997 146.942177 
L 557.129494 149.37376 
L 557.335399 149.779007 
L 557.747209 150.049206 
L 557.953114 150.049206 
L 558.159018 149.914159 
L 558.364923 149.914159 
L 558.570828 150.454452 
L 558.776733 150.454452 
L 559.394447 151.670297 
L 559.600352 151.670297 
L 559.806257 152.345743 
L 560.012162 152.48079 
L 560.218066 152.750989 
L 560.423971 152.615942 
L 560.835781 153.696634 
L 561.041686 153.696634 
L 561.24759 154.101881 
L 561.453495 154.101881 
L 561.6594 154.642279 
L 561.865305 154.777326 
L 562.07121 155.047526 
L 562.277114 155.722971 
L 562.483019 155.452772 
L 562.688924 154.912479 
L 563.100733 153.156235 
L 563.306638 152.886036 
L 563.512543 152.345743 
L 563.718448 152.345743 
L 563.924353 152.21059 
L 564.130257 152.615942 
L 564.336162 151.805344 
L 564.542067 153.291388 
L 564.747972 153.561482 
L 565.365686 155.047526 
L 565.571591 154.777326 
L 565.983401 155.858018 
L 566.189305 155.587924 
L 566.39521 155.587924 
L 566.80702 155.047526 
L 567.218829 153.831681 
L 567.424734 154.101881 
L 567.630639 153.966834 
L 568.042449 154.507127 
L 568.248353 155.317725 
L 568.454258 155.182573 
L 568.866068 155.452772 
L 569.071973 155.722971 
L 569.277877 156.533464 
L 569.483782 156.533464 
L 569.689687 156.668617 
L 569.895592 156.26337 
L 570.101497 155.182573 
L 570.307401 153.291388 
L 570.513306 149.779007 
L 571.336925 123.301471 
L 571.95464 116.276814 
L 572.160544 116.817107 
L 573.601878 129.650682 
L 573.807783 130.326127 
L 574.013688 132.217312 
L 574.219592 133.02791 
L 574.425497 133.29811 
L 574.837307 135.86474 
L 575.043212 135.729693 
L 575.249116 137.080585 
L 575.455021 137.215632 
L 576.69045 140.322766 
L 576.896355 140.322766 
L 577.10226 140.86306 
L 577.514069 141.133259 
L 578.131784 141.808705 
L 578.337688 142.75435 
L 578.543593 142.619303 
L 579.161308 143.699995 
L 579.367212 143.835042 
L 579.573117 144.375441 
L 579.779022 144.510488 
L 580.396736 145.591285 
L 580.602641 145.591285 
L 580.808546 145.321086 
L 581.014451 146.131579 
L 581.220356 145.726332 
L 581.632165 146.807024 
L 581.83807 146.671977 
L 582.043975 147.212271 
L 582.249879 147.347423 
L 582.661689 148.157916 
L 582.867594 148.157916 
L 583.279403 148.428115 
L 583.485308 148.293068 
L 583.691213 148.022869 
L 583.897118 148.428115 
L 584.103023 148.563268 
L 584.308927 148.428115 
L 584.514832 148.428115 
L 584.720737 148.563268 
L 584.926642 148.833362 
L 585.132547 149.64396 
L 585.338451 149.238713 
L 585.544356 149.238713 
L 585.750261 148.293068 
L 586.367975 143.429796 
L 586.57388 142.75435 
L 586.779785 144.780687 
L 586.98569 140.728013 
L 588.015214 336.57478 
L 588.015214 336.57478 
" clip-path="url(#pd6d3315ef2)" style="fill: none; stroke: #008000; stroke-width: 0.5; stroke-linecap: square"/>
   </g>
   <g id="line2d_30">
    <g clip-path="url(#pd6d3315ef2)">
     <use xlink:href="#m17a0dc96a4" x="363.990796" y="92.095709" style="fill: #006400; stroke: #006400"/>
     <use xlink:href="#m17a0dc96a4" x="588.015214" y="336.57478" style="fill: #006400; stroke: #006400"/>
    </g>
   </g>
   <g id="line2d_31">
    <path d="M 641.138651 147.472975 
L 641.344556 146.392283 
L 641.550461 146.392283 
L 641.756365 146.662482 
L 641.96227 146.52733 
L 642.168175 146.52733 
L 642.37408 146.392283 
L 642.785889 145.716837 
L 642.991794 145.311591 
L 643.197699 145.176438 
L 644.227223 141.393963 
L 644.433128 141.393963 
L 644.844937 140.448318 
L 645.050842 140.178119 
L 645.256747 139.502673 
L 645.462652 139.637825 
L 645.668557 138.286828 
L 645.874461 138.421981 
L 646.080366 138.421981 
L 646.286271 138.151781 
L 646.69808 136.125444 
L 646.903985 135.585045 
L 647.10989 134.369306 
L 647.315795 134.234154 
L 647.933509 133.153462 
L 648.345319 132.883262 
L 648.551224 133.288509 
L 648.757128 133.018415 
L 648.963033 133.018415 
L 649.374843 132.342969 
L 649.992557 127.614744 
L 650.198462 127.07445 
L 650.610272 125.048113 
L 650.816176 125.858606 
L 651.022081 124.912961 
L 651.227986 124.912961 
L 651.433891 125.453359 
L 651.639796 125.453359 
L 651.8457 125.18316 
L 652.051605 125.318312 
L 652.25751 124.912961 
L 652.463415 124.777914 
L 652.66932 124.507714 
L 652.875224 125.048113 
L 653.081129 124.237515 
L 653.287034 124.912961 
L 653.698844 124.642867 
L 654.110653 124.912961 
L 654.522463 124.237515 
L 654.934272 124.507714 
L 655.140177 124.372667 
L 655.346082 123.697222 
L 655.551987 123.832268 
L 655.757892 123.562069 
L 655.963796 123.697222 
L 656.375606 123.156823 
L 656.787415 123.427022 
L 656.99332 123.021776 
L 657.199225 123.427022 
L 657.40513 123.29187 
L 657.611035 122.886623 
L 657.816939 122.751576 
L 658.022844 123.021776 
L 658.228749 122.886623 
L 658.434654 123.021776 
L 658.640559 123.021776 
L 659.052368 122.34633 
L 659.258273 121.535732 
L 659.464178 121.670884 
L 659.670083 121.535732 
L 659.875987 121.940978 
L 660.081892 121.670884 
L 660.493702 122.34633 
L 660.699607 121.535732 
L 660.905511 121.805931 
L 661.111416 121.805931 
L 661.317321 122.076131 
L 661.523226 121.400685 
L 661.729131 121.940978 
L 661.935035 121.805931 
L 662.14094 121.535732 
L 662.346845 120.590087 
L 662.55275 120.725239 
L 662.964559 120.18484 
L 663.376369 116.817107 
L 663.582274 116.546908 
L 663.788179 116.817107 
L 663.994083 116.006615 
L 664.199988 116.411861 
L 664.611798 116.411861 
L 664.817703 116.95226 
L 665.023607 116.546908 
L 665.435417 116.276814 
L 666.259036 114.79077 
L 666.670846 113.439879 
L 667.082655 112.89948 
L 667.28856 112.89948 
L 667.494465 111.95394 
L 667.70037 111.818788 
L 667.906274 111.95394 
L 668.112179 111.683741 
L 668.318084 111.683741 
L 668.523989 110.873143 
L 668.729894 111.413541 
L 668.935798 110.873143 
L 669.141703 110.873143 
L 669.347608 111.548588 
L 669.553513 111.413541 
L 669.759418 111.143342 
L 669.965322 111.683741 
L 670.377132 110.738096 
L 670.583037 110.873143 
L 670.788942 111.143342 
L 670.994846 110.873143 
L 671.200751 111.143342 
L 671.406656 111.008295 
L 671.612561 111.143342 
L 671.818466 111.008295 
L 672.02437 110.332849 
L 672.230275 110.197697 
L 672.43618 110.738096 
L 672.642085 110.603049 
L 672.84799 111.008295 
L 673.053894 110.603049 
L 673.259799 110.467896 
L 673.465704 110.467896 
L 673.671609 110.738096 
L 674.083418 110.738096 
L 674.289323 111.008295 
L 674.701133 111.008295 
L 674.907037 111.683741 
L 675.112942 111.548588 
L 675.318847 111.683741 
L 675.524752 111.548588 
L 675.730657 111.683741 
L 676.348371 111.278494 
L 676.554276 111.278494 
L 676.760181 110.873143 
L 676.966085 110.738096 
L 677.377895 111.008295 
L 677.5838 111.683741 
L 677.995609 111.278494 
L 678.201514 111.548588 
L 678.407419 111.548588 
L 678.613324 111.95394 
L 678.819229 111.818788 
L 679.025133 111.95394 
L 679.231038 111.95394 
L 679.436943 111.818788 
L 679.642848 111.008295 
L 680.054657 112.088987 
L 680.260562 111.818788 
L 680.466467 112.494233 
L 680.878277 111.278494 
L 681.084181 112.359187 
L 681.290086 112.088987 
L 681.495991 112.359187 
L 681.907801 112.359187 
L 682.113705 112.494233 
L 682.31961 112.224034 
L 682.525515 112.62928 
L 682.73142 112.62928 
L 682.937325 112.89948 
L 683.349134 112.89948 
L 683.555039 112.764433 
L 683.760944 113.439879 
L 683.966849 113.304832 
L 684.172753 113.439879 
L 684.790468 114.115324 
L 684.996372 114.115324 
L 685.202277 114.79077 
L 685.408182 114.655723 
L 685.819992 115.196016 
L 686.025896 115.060969 
L 686.231801 115.196016 
L 686.437706 115.196016 
L 686.643611 114.250371 
L 686.849516 115.601368 
L 687.05542 115.736415 
L 687.261325 115.736415 
L 687.46723 115.871462 
L 687.673135 115.196016 
L 687.87904 115.060969 
L 688.290849 115.736415 
L 688.702659 115.196016 
L 688.908564 115.196016 
L 689.114468 115.601368 
L 689.526278 115.601368 
L 689.732183 114.79077 
L 689.938088 113.304832 
L 690.555802 105.874823 
L 690.761707 104.523932 
L 691.173516 103.308193 
L 691.379421 103.308193 
L 691.585326 103.17304 
L 691.997136 103.983638 
L 692.408945 106.280069 
L 692.61485 107.090668 
L 692.820755 106.955515 
L 693.02666 107.090668 
L 693.232564 107.630961 
L 693.438469 107.090668 
L 693.644374 107.901266 
L 694.467993 108.981852 
L 694.673898 108.576712 
L 695.085707 109.657404 
L 695.291612 109.792451 
L 695.497517 109.252157 
L 695.703422 109.252157 
L 695.909327 108.306407 
L 696.321136 104.118685 
L 696.938851 100.066011 
L 697.144755 99.390565 
L 697.35066 99.120366 
L 697.556565 99.525612 
L 697.76247 99.120366 
L 698.174279 101.146703 
L 698.380184 101.28175 
L 698.586089 102.227395 
L 698.791994 102.497594 
L 698.997899 102.497594 
L 699.203803 103.17304 
L 699.409708 103.308193 
L 699.821518 103.848486 
L 700.027423 103.308193 
L 700.233327 103.44324 
L 700.645137 102.767794 
L 700.851042 103.713439 
L 701.056947 103.578286 
L 701.262851 103.578286 
L 701.468756 104.253732 
L 701.674661 104.388885 
L 702.086471 105.33453 
L 702.292375 104.794131 
L 702.49828 104.929178 
L 702.704185 103.983638 
L 702.91009 103.848486 
L 703.115994 103.44324 
L 703.321899 103.44324 
L 703.527804 102.632747 
L 703.733709 103.037993 
L 703.939614 103.037993 
L 704.351423 104.659084 
L 704.557328 104.659084 
L 704.763233 104.794131 
L 704.969138 105.739776 
L 705.175042 106.145022 
L 705.380947 106.145022 
L 705.586852 106.955515 
L 705.792757 106.685421 
L 705.998662 106.685421 
L 706.204566 107.360867 
L 706.410471 106.145022 
L 706.616376 106.145022 
L 706.822281 106.955515 
L 707.028186 106.685421 
L 707.23409 106.685421 
L 707.439995 107.360867 
L 707.851805 107.766113 
L 708.05771 107.766113 
L 708.675424 108.711758 
L 708.881329 108.576712 
L 709.087234 109.117005 
L 709.293138 109.117005 
L 709.499043 108.846805 
L 710.116758 109.792451 
L 710.322662 110.603049 
L 710.734472 111.008295 
L 710.940377 110.603049 
L 711.352186 108.036313 
L 711.969901 103.983638 
L 712.175805 103.713439 
L 712.38171 102.902841 
L 712.587615 103.037993 
L 713.205329 105.06433 
L 713.823044 106.009976 
L 714.028949 106.415222 
L 714.234853 107.090668 
L 714.440758 108.306407 
L 714.646663 108.441559 
L 715.264377 110.197697 
L 715.676187 111.008295 
L 715.882092 111.143342 
L 716.087997 111.683741 
L 716.293901 111.683741 
L 716.499806 111.818788 
L 716.705711 112.62928 
L 716.911616 112.62928 
L 717.323425 113.304832 
L 718.558854 114.925817 
L 718.764759 114.925817 
L 718.970664 115.331169 
L 719.176569 115.331169 
L 719.382473 115.060969 
L 719.588378 115.196016 
L 719.794283 115.060969 
L 720.000188 114.250371 
L 720.206093 114.385524 
L 720.411997 113.980277 
L 720.617902 113.304832 
L 720.823807 114.520571 
L 721.029712 113.980277 
L 721.235617 114.115324 
L 721.441521 114.79077 
L 721.647426 114.520571 
L 721.853331 115.466216 
L 722.059236 115.736415 
L 722.26514 116.276814 
L 722.471045 116.411861 
L 722.67695 116.817107 
L 722.882855 116.276814 
L 723.08876 116.546908 
L 723.294664 116.546908 
L 723.500569 116.411861 
L 723.706474 117.087307 
L 723.912379 116.95226 
L 724.118284 117.222354 
L 724.530093 118.438198 
L 724.735998 118.167999 
L 724.941903 118.303151 
L 725.147808 118.303151 
L 725.353712 118.438198 
L 725.559617 118.708398 
L 725.765522 118.303151 
L 725.971427 118.843444 
L 726.177332 118.167999 
L 726.383236 118.573245 
L 726.589141 118.032952 
L 727.000951 118.708398 
L 727.206856 118.708398 
L 727.41276 119.113644 
L 727.618665 118.843444 
L 727.82457 119.654043 
L 728.030475 119.51889 
L 728.23638 120.194336 
L 728.442284 120.464535 
L 728.648189 121.004934 
L 729.059999 121.275134 
L 729.265904 121.950579 
L 729.677713 122.220673 
L 729.883618 122.220673 
L 730.089523 122.490873 
L 730.295428 121.950579 
L 730.501332 122.085626 
L 730.707237 122.355826 
L 731.119047 123.436518 
L 731.324951 123.301471 
L 731.530856 123.436518 
L 731.736761 123.031271 
L 731.942666 122.220673 
L 732.354475 114.385524 
L 733.383999 88.71848 
L 733.589904 86.151744 
L 733.795809 85.476299 
L 734.619428 92.771155 
L 735.031238 95.878184 
L 736.060762 101.146703 
L 736.266667 100.606304 
L 736.884381 97.229075 
L 737.090286 96.958982 
L 737.296191 96.958982 
L 737.502095 96.283536 
L 737.708 96.418583 
L 737.913905 96.013231 
L 738.11981 96.283536 
L 738.737524 98.309873 
L 739.149334 99.930858 
L 740.178858 103.713439 
L 740.384762 103.848486 
L 740.590667 105.199377 
L 741.002477 106.145022 
L 741.208382 106.145022 
L 741.414286 106.280069 
L 741.620191 106.009976 
L 741.826096 106.009976 
L 742.032001 106.685421 
L 742.649715 107.360867 
L 742.85562 107.22582 
L 743.061525 106.955515 
L 743.26743 106.009976 
L 743.473334 106.685421 
L 743.679239 105.874823 
L 743.885144 106.280069 
L 744.091049 107.090668 
L 744.296954 107.090668 
L 744.502858 107.22582 
L 744.708763 108.306407 
L 744.914668 108.17136 
L 745.120573 108.711758 
L 745.326478 108.441559 
L 745.738287 109.117005 
L 745.944192 109.117005 
L 746.150097 109.252157 
L 746.356002 109.657404 
L 746.561906 109.792451 
L 746.767811 109.657404 
L 747.179621 114.925817 
L 747.385526 113.034632 
L 747.59143 113.845125 
L 748.209145 111.278494 
L 748.620954 143.294749 
L 748.826859 108.846805 
L 749.032764 141.403459 
L 749.238669 145.050887 
L 749.444574 145.185934 
L 750.062288 138.566629 
L 750.474097 135.189295 
L 750.680002 133.973555 
L 750.885907 133.703356 
L 751.503621 136.405139 
L 752.121336 143.024549 
L 752.327241 146.266731 
L 752.944955 151.400098 
L 753.562669 157.479109 
L 753.768574 156.668617 
L 753.974479 158.289707 
L 754.180384 158.694954 
L 754.386289 162.072182 
L 754.798098 165.044165 
L 755.209908 166.665256 
L 755.415813 169.907437 
L 755.621717 170.168036 
L 755.827622 172.869819 
L 756.239432 170.303188 
L 756.445337 172.599725 
L 756.651241 172.599725 
L 757.063051 174.761109 
L 757.268956 174.896156 
L 757.474861 176.247153 
L 757.680765 175.706754 
L 757.88667 176.922599 
L 758.29848 177.598044 
L 758.504385 178.543584 
L 758.710289 177.733091 
L 758.916194 179.489229 
L 759.122099 179.354182 
L 759.328004 180.164675 
L 759.533908 179.489229 
L 760.151623 181.515566 
L 760.357528 180.84012 
L 760.563432 182.055965 
L 760.769337 182.596364 
L 760.975242 181.11032 
L 761.181147 181.380519 
L 761.387052 179.624381 
L 761.592956 180.84012 
L 761.798861 180.164675 
L 762.004766 181.245367 
L 762.210671 183.136657 
L 762.416576 182.191012 
L 762.62248 184.352502 
L 762.828385 183.406856 
L 763.03429 185.162994 
L 763.240195 185.433194 
L 763.4461 185.433194 
L 763.652004 187.189331 
L 763.857909 186.649038 
L 764.269719 189.080622 
L 764.475624 188.810422 
L 764.681528 190.431513 
L 765.299243 192.052604 
L 765.505148 194.349141 
L 765.711052 195.159633 
L 765.916957 197.050924 
L 766.122862 197.050924 
L 766.534672 200.833399 
L 766.740576 200.833399 
L 767.564196 203.400135 
L 767.7701 203.805381 
L 767.976005 204.751026 
L 768.18191 204.751026 
L 768.799624 205.561624 
L 769.005529 202.994888 
L 769.417339 201.23875 
L 769.623243 201.914196 
L 769.829148 201.103598 
L 770.035053 202.049243 
L 770.240958 202.18429 
L 770.446863 202.049243 
L 770.652767 202.454489 
L 770.858672 202.18429 
L 771.270482 203.129935 
L 771.476387 202.454489 
L 771.682291 202.589642 
L 771.888196 200.563305 
L 772.094101 201.103598 
L 772.300006 200.698352 
L 772.505911 201.914196 
L 772.711815 202.049243 
L 772.91772 201.643997 
L 773.123625 202.589642 
L 773.32953 202.994888 
L 773.535435 205.561624 
L 773.741339 203.940533 
L 773.947244 206.23707 
L 774.153149 205.291425 
L 774.564959 204.886179 
L 774.770863 206.101918 
L 775.388578 206.777363 
L 775.594483 207.993208 
L 775.800387 206.777363 
L 776.006292 206.912516 
L 776.212197 206.642316 
L 776.624007 208.128255 
L 776.829911 208.398454 
L 777.035816 207.723008 
L 777.241721 208.128255 
L 777.447626 208.128255 
L 777.65353 208.938853 
L 777.859435 208.533501 
L 778.47715 210.424791 
L 778.683054 210.019545 
L 778.888959 210.019545 
L 779.094864 210.830038 
L 779.300769 210.559944 
L 779.506674 214.612618 
L 779.712578 227.040841 
L 780.124388 153.837695 
L 780.330293 130.316526 
L 780.536198 125.993758 
L 780.948007 122.751576 
L 781.771626 113.304832 
L 781.977531 113.710078 
L 782.389341 111.683741 
L 782.595246 110.197697 
L 783.007055 105.469577 
L 783.21296 105.06433 
L 783.418865 103.44324 
L 783.62477 98.985319 
L 783.830674 100.471257 
L 784.860198 103.983638 
L 785.066103 104.118685 
L 785.272008 104.929178 
L 785.477913 105.199377 
L 785.683818 105.874823 
L 785.889722 105.199377 
L 786.095627 106.280069 
L 786.301532 106.685421 
L 786.507437 106.685421 
L 786.713342 106.550269 
L 787.331056 107.901266 
L 787.536961 107.766113 
L 787.94877 108.036313 
L 788.154675 108.441559 
L 788.36058 107.766113 
L 788.566485 109.387204 
L 788.978294 108.17136 
L 789.184199 108.981852 
L 789.390104 108.576712 
L 789.801913 108.846805 
L 790.007818 108.306407 
L 790.213723 109.252157 
L 790.419628 109.117005 
L 790.625533 109.252157 
L 790.831437 109.117005 
L 791.037342 109.117005 
L 791.243247 108.981852 
L 791.449152 109.522251 
L 791.655057 109.657404 
L 792.066866 110.06265 
L 792.272771 110.06265 
L 792.478676 110.603049 
L 792.684581 110.603049 
L 792.890485 110.738096 
L 793.09639 110.738096 
L 793.5082 111.548588 
L 793.714105 111.143342 
L 793.920009 111.413541 
L 794.125914 111.278494 
L 794.331819 111.008295 
L 794.537724 111.683741 
L 794.743629 111.143342 
L 795.361343 112.359187 
L 795.567248 112.224034 
L 795.773153 112.764433 
L 795.979057 112.62928 
L 796.184962 111.548588 
L 796.596772 113.034632 
L 796.802676 113.034632 
L 797.008581 113.304832 
L 797.214486 113.169679 
L 797.626296 113.574926 
L 797.8322 113.710078 
L 798.038105 114.115324 
L 798.24401 113.439879 
L 798.65582 114.385524 
L 798.861724 114.385524 
L 799.067629 114.520571 
L 799.273534 115.601368 
L 799.479439 115.466216 
L 799.685344 115.736415 
L 799.891248 115.601368 
L 800.303058 116.276814 
L 800.508963 116.546908 
L 800.714868 116.546908 
L 800.920772 116.276814 
L 801.126677 116.95226 
L 801.332582 116.68206 
L 801.538487 116.141662 
L 801.744392 117.222354 
L 801.950296 116.817107 
L 802.156201 116.68206 
L 802.362106 115.196016 
L 802.97982 115.196016 
L 803.185725 115.331169 
L 803.39163 116.006615 
L 803.80344 113.710078 
L 804.832964 117.357506 
L 805.656583 119.924242 
L 805.862487 119.78909 
L 806.068392 120.194336 
L 806.274297 120.869782 
L 806.480202 120.734735 
L 807.097916 122.490873 
L 807.303821 122.761072 
L 807.509726 122.490873 
L 807.921535 123.571565 
L 808.12744 123.706717 
L 808.333345 124.111963 
L 808.745155 124.382163 
L 808.951059 125.598007 
L 809.156964 125.462855 
L 809.362869 125.462855 
L 809.774679 126.813746 
L 810.186488 127.624344 
L 810.392393 127.759391 
L 811.010107 129.380482 
L 811.216012 129.515529 
L 811.421917 130.461174 
L 811.627822 130.596221 
L 812.039631 131.947218 
L 812.245536 131.677019 
L 812.451441 132.487512 
L 812.657346 131.677019 
L 813.069155 132.487512 
L 813.27506 132.352465 
L 813.68687 133.703356 
L 813.892775 133.838403 
L 814.098679 133.838403 
L 814.304584 134.108602 
L 814.510489 133.568204 
L 815.128203 135.054248 
L 815.334108 134.784048 
L 815.540013 135.729693 
L 815.745918 135.324447 
L 815.951822 135.324447 
L 816.157727 135.594541 
L 816.157727 135.594541 
" clip-path="url(#pd6d3315ef2)" style="fill: none; stroke: #008000; stroke-width: 0.5; stroke-linecap: square"/>
   </g>
   <g id="line2d_32">
    <g clip-path="url(#pd6d3315ef2)">
     <use xlink:href="#m17a0dc96a4" x="641.138651" y="147.472975" style="fill: #006400; stroke: #006400"/>
     <use xlink:href="#m17a0dc96a4" x="816.157727" y="135.594541" style="fill: #006400; stroke: #006400"/>
    </g>
   </g>
   <g id="patch_3">
    <path d="M 38.27 534.04 
L 38.27 36.48525 
" style="fill: none; stroke: #000000; stroke-width: 0.8; stroke-linejoin: miter; stroke-linecap: square"/>
   </g>
   <g id="patch_4">
    <path d="M 853.2 534.04 
L 853.2 36.48525 
" style="fill: none; stroke: #000000; stroke-width: 0.8; stroke-linejoin: miter; stroke-linecap: square"/>
   </g>
   <g id="patch_5">
    <path d="M 38.27 534.04 
L 853.2 534.04 
" style="fill: none; stroke: #000000; stroke-width: 0.8; stroke-linejoin: miter; stroke-linecap: square"/>
   </g>
   <g id="patch_6">
    <path d="M 38.27 36.48525 
L 853.2 36.48525 
" style="fill: none; stroke: #000000; stroke-width: 0.8; stroke-linejoin: miter; stroke-linecap: square"/>
   </g>
   <g id="text_16">
    <!-- EDA Filtering: data_14_E4 -->
    <g transform="translate(381.449063 19.009312) scale(0.1 -0.1)">
     <defs>
      <path id="DejaVuSans-46" d="M 628 4666 
L 3309 4666 
L 3309 4134 
L 1259 4134 
L 1259 2759 
L 3109 2759 
L 3109 2228 
L 1259 2228 
L 1259 0 
L 628 0 
L 628 4666 
z
" transform="scale(0.015625)"/>
      <path id="DejaVuSans-6c" d="M 603 4863 
L 1178 4863 
L 1178 0 
L 603 0 
L 603 4863 
z
" transform="scale(0.015625)"/>
      <path id="DejaVuSans-72" d="M 2631 2963 
Q 2534 3019 2420 3045 
Q 2306 3072 2169 3072 
Q 1681 3072 1420 2755 
Q 1159 2438 1159 1844 
L 1159 0 
L 581 0 
L 581 3500 
L 1159 3500 
L 1159 2956 
Q 1341 3275 1631 3429 
Q 1922 3584 2338 3584 
Q 2397 3584 2469 3576 
Q 2541 3569 2628 3553 
L 2631 2963 
z
" transform="scale(0.015625)"/>
      <path id="DejaVuSans-67" d="M 2906 1791 
Q 2906 2416 2648 2759 
Q 2391 3103 1925 3103 
Q 1463 3103 1205 2759 
Q 947 2416 947 1791 
Q 947 1169 1205 825 
Q 1463 481 1925 481 
Q 2391 481 2648 825 
Q 2906 1169 2906 1791 
z
M 3481 434 
Q 3481 -459 3084 -895 
Q 2688 -1331 1869 -1331 
Q 1566 -1331 1297 -1286 
Q 1028 -1241 775 -1147 
L 775 -588 
Q 1028 -725 1275 -790 
Q 1522 -856 1778 -856 
Q 2344 -856 2625 -561 
Q 2906 -266 2906 331 
L 2906 616 
Q 2728 306 2450 153 
Q 2172 0 1784 0 
Q 1141 0 747 490 
Q 353 981 353 1791 
Q 353 2603 747 3093 
Q 1141 3584 1784 3584 
Q 2172 3584 2450 3431 
Q 2728 3278 2906 2969 
L 2906 3500 
L 3481 3500 
L 3481 434 
z
" transform="scale(0.015625)"/>
      <path id="DejaVuSans-3a" d="M 750 794 
L 1409 794 
L 1409 0 
L 750 0 
L 750 794 
z
M 750 3309 
L 1409 3309 
L 1409 2516 
L 750 2516 
L 750 3309 
z
" transform="scale(0.015625)"/>
      <path id="DejaVuSans-64" d="M 2906 2969 
L 2906 4863 
L 3481 4863 
L 3481 0 
L 2906 0 
L 2906 525 
Q 2725 213 2448 61 
Q 2172 -91 1784 -91 
Q 1150 -91 751 415 
Q 353 922 353 1747 
Q 353 2572 751 3078 
Q 1150 3584 1784 3584 
Q 2172 3584 2448 3432 
Q 2725 3281 2906 2969 
z
M 947 1747 
Q 947 1113 1208 752 
Q 1469 391 1925 391 
Q 2381 391 2643 752 
Q 2906 1113 2906 1747 
Q 2906 2381 2643 2742 
Q 2381 3103 1925 3103 
Q 1469 3103 1208 2742 
Q 947 2381 947 1747 
z
" transform="scale(0.015625)"/>
      <path id="DejaVuSans-61" d="M 2194 1759 
Q 1497 1759 1228 1600 
Q 959 1441 959 1056 
Q 959 750 1161 570 
Q 1363 391 1709 391 
Q 2188 391 2477 730 
Q 2766 1069 2766 1631 
L 2766 1759 
L 2194 1759 
z
M 3341 1997 
L 3341 0 
L 2766 0 
L 2766 531 
Q 2569 213 2275 61 
Q 1981 -91 1556 -91 
Q 1019 -91 701 211 
Q 384 513 384 1019 
Q 384 1609 779 1909 
Q 1175 2209 1959 2209 
L 2766 2209 
L 2766 2266 
Q 2766 2663 2505 2880 
Q 2244 3097 1772 3097 
Q 1472 3097 1187 3025 
Q 903 2953 641 2809 
L 641 3341 
Q 956 3463 1253 3523 
Q 1550 3584 1831 3584 
Q 2591 3584 2966 3190 
Q 3341 2797 3341 1997 
z
" transform="scale(0.015625)"/>
      <path id="DejaVuSans-5f" d="M 3263 -1063 
L 3263 -1509 
L -63 -1509 
L -63 -1063 
L 3263 -1063 
z
" transform="scale(0.015625)"/>
     </defs>
     <use xlink:href="#DejaVuSans-45"/>
     <use xlink:href="#DejaVuSans-44" transform="translate(63.183594 0)"/>
     <use xlink:href="#DejaVuSans-41" transform="translate(138.435547 0)"/>
     <use xlink:href="#DejaVuSans-20" transform="translate(206.84375 0)"/>
     <use xlink:href="#DejaVuSans-46" transform="translate(238.630859 0)"/>
     <use xlink:href="#DejaVuSans-69" transform="translate(288.900391 0)"/>
     <use xlink:href="#DejaVuSans-6c" transform="translate(316.683594 0)"/>
     <use xlink:href="#DejaVuSans-74" transform="translate(344.466797 0)"/>
     <use xlink:href="#DejaVuSans-65" transform="translate(383.675781 0)"/>
     <use xlink:href="#DejaVuSans-72" transform="translate(445.199219 0)"/>
     <use xlink:href="#DejaVuSans-69" transform="translate(486.3125 0)"/>
     <use xlink:href="#DejaVuSans-6e" transform="translate(514.095703 0)"/>
     <use xlink:href="#DejaVuSans-67" transform="translate(577.474609 0)"/>
     <use xlink:href="#DejaVuSans-3a" transform="translate(640.951172 0)"/>
     <use xlink:href="#DejaVuSans-20" transform="translate(674.642578 0)"/>
     <use xlink:href="#DejaVuSans-64" transform="translate(706.429688 0)"/>
     <use xlink:href="#DejaVuSans-61" transform="translate(769.90625 0)"/>
     <use xlink:href="#DejaVuSans-74" transform="translate(831.185547 0)"/>
     <use xlink:href="#DejaVuSans-61" transform="translate(870.394531 0)"/>
     <use xlink:href="#DejaVuSans-5f" transform="translate(931.673828 0)"/>
     <use xlink:href="#DejaVuSans-31" transform="translate(981.673828 0)"/>
     <use xlink:href="#DejaVuSans-34" transform="translate(1045.296875 0)"/>
     <use xlink:href="#DejaVuSans-5f" transform="translate(1108.919922 0)"/>
     <use xlink:href="#DejaVuSans-45" transform="translate(1158.919922 0)"/>
     <use xlink:href="#DejaVuSans-34" transform="translate(1222.103516 0)"/>
    </g>
    <!-- Window=33, Threshold=0.15 -->
    <g transform="translate(372.331875 30.48525) scale(0.1 -0.1)">
     <defs>
      <path id="DejaVuSans-57" d="M 213 4666 
L 850 4666 
L 1831 722 
L 2809 4666 
L 3519 4666 
L 4500 722 
L 5478 4666 
L 6119 4666 
L 4947 0 
L 4153 0 
L 3169 4050 
L 2175 0 
L 1381 0 
L 213 4666 
z
" transform="scale(0.015625)"/>
      <path id="DejaVuSans-6f" d="M 1959 3097 
Q 1497 3097 1228 2736 
Q 959 2375 959 1747 
Q 959 1119 1226 758 
Q 1494 397 1959 397 
Q 2419 397 2687 759 
Q 2956 1122 2956 1747 
Q 2956 2369 2687 2733 
Q 2419 3097 1959 3097 
z
M 1959 3584 
Q 2709 3584 3137 3096 
Q 3566 2609 3566 1747 
Q 3566 888 3137 398 
Q 2709 -91 1959 -91 
Q 1206 -91 779 398 
Q 353 888 353 1747 
Q 353 2609 779 3096 
Q 1206 3584 1959 3584 
z
" transform="scale(0.015625)"/>
      <path id="DejaVuSans-77" d="M 269 3500 
L 844 3500 
L 1563 769 
L 2278 3500 
L 2956 3500 
L 3675 769 
L 4391 3500 
L 4966 3500 
L 4050 0 
L 3372 0 
L 2619 2869 
L 1863 0 
L 1184 0 
L 269 3500 
z
" transform="scale(0.015625)"/>
      <path id="DejaVuSans-3d" d="M 678 2906 
L 4684 2906 
L 4684 2381 
L 678 2381 
L 678 2906 
z
M 678 1631 
L 4684 1631 
L 4684 1100 
L 678 1100 
L 678 1631 
z
" transform="scale(0.015625)"/>
      <path id="DejaVuSans-2c" d="M 750 794 
L 1409 794 
L 1409 256 
L 897 -744 
L 494 -744 
L 750 256 
L 750 794 
z
" transform="scale(0.015625)"/>
      <path id="DejaVuSans-68" d="M 3513 2113 
L 3513 0 
L 2938 0 
L 2938 2094 
Q 2938 2591 2744 2837 
Q 2550 3084 2163 3084 
Q 1697 3084 1428 2787 
Q 1159 2491 1159 1978 
L 1159 0 
L 581 0 
L 581 4863 
L 1159 4863 
L 1159 2956 
Q 1366 3272 1645 3428 
Q 1925 3584 2291 3584 
Q 2894 3584 3203 3211 
Q 3513 2838 3513 2113 
z
" transform="scale(0.015625)"/>
      <path id="DejaVuSans-2e" d="M 684 794 
L 1344 794 
L 1344 0 
L 684 0 
L 684 794 
z
" transform="scale(0.015625)"/>
      <path id="DejaVuSans-35" d="M 691 4666 
L 3169 4666 
L 3169 4134 
L 1269 4134 
L 1269 2991 
Q 1406 3038 1543 3061 
Q 1681 3084 1819 3084 
Q 2600 3084 3056 2656 
Q 3513 2228 3513 1497 
Q 3513 744 3044 326 
Q 2575 -91 1722 -91 
Q 1428 -91 1123 -41 
Q 819 9 494 109 
L 494 744 
Q 775 591 1075 516 
Q 1375 441 1709 441 
Q 2250 441 2565 725 
Q 2881 1009 2881 1497 
Q 2881 1984 2565 2268 
Q 2250 2553 1709 2553 
Q 1456 2553 1204 2497 
Q 953 2441 691 2322 
L 691 4666 
z
" transform="scale(0.015625)"/>
     </defs>
     <use xlink:href="#DejaVuSans-57"/>
     <use xlink:href="#DejaVuSans-69" transform="translate(96.626953 0)"/>
     <use xlink:href="#DejaVuSans-6e" transform="translate(124.410156 0)"/>
     <use xlink:href="#DejaVuSans-64" transform="translate(187.789062 0)"/>
     <use xlink:href="#DejaVuSans-6f" transform="translate(251.265625 0)"/>
     <use xlink:href="#DejaVuSans-77" transform="translate(312.447266 0)"/>
     <use xlink:href="#DejaVuSans-3d" transform="translate(394.234375 0)"/>
     <use xlink:href="#DejaVuSans-33" transform="translate(478.023438 0)"/>
     <use xlink:href="#DejaVuSans-33" transform="translate(541.646484 0)"/>
     <use xlink:href="#DejaVuSans-2c" transform="translate(605.269531 0)"/>
     <use xlink:href="#DejaVuSans-20" transform="translate(637.056641 0)"/>
     <use xlink:href="#DejaVuSans-54" transform="translate(668.84375 0)"/>
     <use xlink:href="#DejaVuSans-68" transform="translate(729.927734 0)"/>
     <use xlink:href="#DejaVuSans-72" transform="translate(793.306641 0)"/>
     <use xlink:href="#DejaVuSans-65" transform="translate(832.169922 0)"/>
     <use xlink:href="#DejaVuSans-73" transform="translate(893.693359 0)"/>
     <use xlink:href="#DejaVuSans-68" transform="translate(945.792969 0)"/>
     <use xlink:href="#DejaVuSans-6f" transform="translate(1009.171875 0)"/>
     <use xlink:href="#DejaVuSans-6c" transform="translate(1070.353516 0)"/>
     <use xlink:href="#DejaVuSans-64" transform="translate(1098.136719 0)"/>
     <use xlink:href="#DejaVuSans-3d" transform="translate(1161.613281 0)"/>
     <use xlink:href="#DejaVuSans-30" transform="translate(1245.402344 0)"/>
     <use xlink:href="#DejaVuSans-2e" transform="translate(1309.025391 0)"/>
     <use xlink:href="#DejaVuSans-31" transform="translate(1340.8125 0)"/>
     <use xlink:href="#DejaVuSans-35" transform="translate(1404.435547 0)"/>
    </g>
   </g>
   <g id="legend_1">
    <g id="patch_7">
     <path d="M 752.80625 73.8415 
L 846.2 73.8415 
Q 848.2 73.8415 848.2 71.8415 
L 848.2 43.48525 
Q 848.2 41.48525 846.2 41.48525 
L 752.80625 41.48525 
Q 750.80625 41.48525 750.80625 43.48525 
L 750.80625 71.8415 
Q 750.80625 73.8415 752.80625 73.8415 
z
" style="fill: #ffffff; opacity: 0.8; stroke: #cccccc; stroke-linejoin: miter"/>
    </g>
    <g id="line2d_33">
     <path d="M 754.80625 49.583687 
L 764.80625 49.583687 
L 774.80625 49.583687 
" style="fill: none; stroke: #008000; stroke-width: 0.5; stroke-linecap: square"/>
    </g>
    <g id="text_17">
     <!-- Valid (≥20s) -->
     <g transform="translate(782.80625 53.083687) scale(0.1 -0.1)">
      <defs>
       <path id="DejaVuSans-56" d="M 1831 0 
L 50 4666 
L 709 4666 
L 2188 738 
L 3669 4666 
L 4325 4666 
L 2547 0 
L 1831 0 
z
" transform="scale(0.015625)"/>
       <path id="DejaVuSans-2265" d="M 678 3175 
L 678 3725 
L 4684 2578 
L 4684 2047 
L 678 897 
L 678 1453 
L 3681 2309 
L 678 3175 
z
M 4684 531 
L 4684 0 
L 678 0 
L 678 531 
L 4684 531 
z
" transform="scale(0.015625)"/>
      </defs>
      <use xlink:href="#DejaVuSans-56"/>
      <use xlink:href="#DejaVuSans-61" transform="translate(60.658203 0)"/>
      <use xlink:href="#DejaVuSans-6c" transform="translate(121.9375 0)"/>
      <use xlink:href="#DejaVuSans-69" transform="translate(149.720703 0)"/>
      <use xlink:href="#DejaVuSans-64" transform="translate(177.503906 0)"/>
      <use xlink:href="#DejaVuSans-20" transform="translate(240.980469 0)"/>
      <use xlink:href="#DejaVuSans-28" transform="translate(272.767578 0)"/>
      <use xlink:href="#DejaVuSans-2265" transform="translate(311.78125 0)"/>
      <use xlink:href="#DejaVuSans-32" transform="translate(395.570312 0)"/>
      <use xlink:href="#DejaVuSans-30" transform="translate(459.193359 0)"/>
      <use xlink:href="#DejaVuSans-73" transform="translate(522.816406 0)"/>
      <use xlink:href="#DejaVuSans-29" transform="translate(574.916016 0)"/>
     </g>
    </g>
    <g id="line2d_34">
     <g>
      <use xlink:href="#m17a0dc96a4" x="764.80625" y="64.261813" style="fill: #006400; stroke: #006400"/>
     </g>
    </g>
    <g id="text_18">
     <!-- Endpoints -->
     <g transform="translate(782.80625 67.761813) scale(0.1 -0.1)">
      <defs>
       <path id="DejaVuSans-70" d="M 1159 525 
L 1159 -1331 
L 581 -1331 
L 581 3500 
L 1159 3500 
L 1159 2969 
Q 1341 3281 1617 3432 
Q 1894 3584 2278 3584 
Q 2916 3584 3314 3078 
Q 3713 2572 3713 1747 
Q 3713 922 3314 415 
Q 2916 -91 2278 -91 
Q 1894 -91 1617 61 
Q 1341 213 1159 525 
z
M 3116 1747 
Q 3116 2381 2855 2742 
Q 2594 3103 2138 3103 
Q 1681 3103 1420 2742 
Q 1159 2381 1159 1747 
Q 1159 1113 1420 752 
Q 1681 391 2138 391 
Q 2594 391 2855 752 
Q 3116 1113 3116 1747 
z
" transform="scale(0.015625)"/>
      </defs>
      <use xlink:href="#DejaVuSans-45"/>
      <use xlink:href="#DejaVuSans-6e" transform="translate(63.183594 0)"/>
      <use xlink:href="#DejaVuSans-64" transform="translate(126.5625 0)"/>
      <use xlink:href="#DejaVuSans-70" transform="translate(190.039062 0)"/>
      <use xlink:href="#DejaVuSans-6f" transform="translate(253.515625 0)"/>
      <use xlink:href="#DejaVuSans-69" transform="translate(314.697266 0)"/>
      <use xlink:href="#DejaVuSans-6e" transform="translate(342.480469 0)"/>
      <use xlink:href="#DejaVuSans-74" transform="translate(405.859375 0)"/>
      <use xlink:href="#DejaVuSans-73" transform="translate(445.068359 0)"/>
     </g>
    </g>
   </g>
  </g>
 </g>
 <defs>
  <clipPath id="pd6d3315ef2">
   <rect x="38.27" y="36.48525" width="814.93" height="497.55475"/>
  </clipPath>
 </defs>
</svg>
