<?xml version="1.0" encoding="utf-8" standalone="no"?>
<!DOCTYPE svg PUBLIC "-//W3C//DTD SVG 1.1//EN"
  "http://www.w3.org/Graphics/SVG/1.1/DTD/svg11.dtd">
<svg xmlns:xlink="http://www.w3.org/1999/xlink" width="864pt" height="576pt" viewBox="0 0 864 576" xmlns="http://www.w3.org/2000/svg" version="1.1">
 <metadata>
  <rdf:RDF xmlns:dc="http://purl.org/dc/elements/1.1/" xmlns:cc="http://creativecommons.org/ns#" xmlns:rdf="http://www.w3.org/1999/02/22-rdf-syntax-ns#">
   <cc:Work>
    <dc:type rdf:resource="http://purl.org/dc/dcmitype/StillImage"/>
    <dc:date>2025-10-16T13:33:27.377703</dc:date>
    <dc:format>image/svg+xml</dc:format>
    <dc:creator>
     <cc:Agent>
      <dc:title>Matplotlib v3.10.0, https://matplotlib.org/</dc:title>
     </cc:Agent>
    </dc:creator>
   </cc:Work>
  </rdf:RDF>
 </metadata>
 <defs>
  <style type="text/css">*{stroke-linejoin: round; stroke-linecap: butt}</style>
 </defs>
 <g id="figure_1">
  <g id="patch_1">
   <path d="M 0 576 
L 864 576 
L 864 0 
L 0 0 
z
" style="fill: #ffffff"/>
  </g>
  <g id="axes_1">
   <g id="patch_2">
    <path d="M 47.81 534.04 
L 853.2 534.04 
L 853.2 36.48525 
L 47.81 36.48525 
z
" style="fill: #ffffff"/>
   </g>
   <g id="matplotlib.axis_1">
    <g id="xtick_1">
     <g id="line2d_1">
      <path d="M 66.86655 534.04 
L 66.86655 36.48525 
" clip-path="url(#p8588ed639a)" style="fill: none; stroke: #b0b0b0; stroke-opacity: 0.3; stroke-width: 0.8; stroke-linecap: square"/>
     </g>
     <g id="line2d_2">
      <defs>
       <path id="ma1994840e3" d="M 0 0 
L 0 3.5 
" style="stroke: #000000; stroke-width: 0.8"/>
      </defs>
      <g>
       <use xlink:href="#ma1994840e3" x="66.86655" y="534.04" style="stroke: #000000; stroke-width: 0.8"/>
      </g>
     </g>
     <g id="text_1">
      <!-- 0 -->
      <g transform="translate(63.6853 548.638438) scale(0.1 -0.1)">
       <defs>
        <path id="DejaVuSans-30" d="M 2034 4250 
Q 1547 4250 1301 3770 
Q 1056 3291 1056 2328 
Q 1056 1369 1301 889 
Q 1547 409 2034 409 
Q 2525 409 2770 889 
Q 3016 1369 3016 2328 
Q 3016 3291 2770 3770 
Q 2525 4250 2034 4250 
z
M 2034 4750 
Q 2819 4750 3233 4129 
Q 3647 3509 3647 2328 
Q 3647 1150 3233 529 
Q 2819 -91 2034 -91 
Q 1250 -91 836 529 
Q 422 1150 422 2328 
Q 422 3509 836 4129 
Q 1250 4750 2034 4750 
z
" transform="scale(0.015625)"/>
       </defs>
       <use xlink:href="#DejaVuSans-30"/>
      </g>
     </g>
    </g>
    <g id="xtick_2">
     <g id="line2d_3">
      <path d="M 187.190269 534.04 
L 187.190269 36.48525 
" clip-path="url(#p8588ed639a)" style="fill: none; stroke: #b0b0b0; stroke-opacity: 0.3; stroke-width: 0.8; stroke-linecap: square"/>
     </g>
     <g id="line2d_4">
      <g>
       <use xlink:href="#ma1994840e3" x="187.190269" y="534.04" style="stroke: #000000; stroke-width: 0.8"/>
      </g>
     </g>
     <g id="text_2">
      <!-- 2 -->
      <g transform="translate(184.009019 548.638438) scale(0.1 -0.1)">
       <defs>
        <path id="DejaVuSans-32" d="M 1228 531 
L 3431 531 
L 3431 0 
L 469 0 
L 469 531 
Q 828 903 1448 1529 
Q 2069 2156 2228 2338 
Q 2531 2678 2651 2914 
Q 2772 3150 2772 3378 
Q 2772 3750 2511 3984 
Q 2250 4219 1831 4219 
Q 1534 4219 1204 4116 
Q 875 4013 500 3803 
L 500 4441 
Q 881 4594 1212 4672 
Q 1544 4750 1819 4750 
Q 2544 4750 2975 4387 
Q 3406 4025 3406 3419 
Q 3406 3131 3298 2873 
Q 3191 2616 2906 2266 
Q 2828 2175 2409 1742 
Q 1991 1309 1228 531 
z
" transform="scale(0.015625)"/>
       </defs>
       <use xlink:href="#DejaVuSans-32"/>
      </g>
     </g>
    </g>
    <g id="xtick_3">
     <g id="line2d_5">
      <path d="M 307.513988 534.04 
L 307.513988 36.48525 
" clip-path="url(#p8588ed639a)" style="fill: none; stroke: #b0b0b0; stroke-opacity: 0.3; stroke-width: 0.8; stroke-linecap: square"/>
     </g>
     <g id="line2d_6">
      <g>
       <use xlink:href="#ma1994840e3" x="307.513988" y="534.04" style="stroke: #000000; stroke-width: 0.8"/>
      </g>
     </g>
     <g id="text_3">
      <!-- 4 -->
      <g transform="translate(304.332738 548.638438) scale(0.1 -0.1)">
       <defs>
        <path id="DejaVuSans-34" d="M 2419 4116 
L 825 1625 
L 2419 1625 
L 2419 4116 
z
M 2253 4666 
L 3047 4666 
L 3047 1625 
L 3713 1625 
L 3713 1100 
L 3047 1100 
L 3047 0 
L 2419 0 
L 2419 1100 
L 313 1100 
L 313 1709 
L 2253 4666 
z
" transform="scale(0.015625)"/>
       </defs>
       <use xlink:href="#DejaVuSans-34"/>
      </g>
     </g>
    </g>
    <g id="xtick_4">
     <g id="line2d_7">
      <path d="M 427.837707 534.04 
L 427.837707 36.48525 
" clip-path="url(#p8588ed639a)" style="fill: none; stroke: #b0b0b0; stroke-opacity: 0.3; stroke-width: 0.8; stroke-linecap: square"/>
     </g>
     <g id="line2d_8">
      <g>
       <use xlink:href="#ma1994840e3" x="427.837707" y="534.04" style="stroke: #000000; stroke-width: 0.8"/>
      </g>
     </g>
     <g id="text_4">
      <!-- 6 -->
      <g transform="translate(424.656457 548.638438) scale(0.1 -0.1)">
       <defs>
        <path id="DejaVuSans-36" d="M 2113 2584 
Q 1688 2584 1439 2293 
Q 1191 2003 1191 1497 
Q 1191 994 1439 701 
Q 1688 409 2113 409 
Q 2538 409 2786 701 
Q 3034 994 3034 1497 
Q 3034 2003 2786 2293 
Q 2538 2584 2113 2584 
z
M 3366 4563 
L 3366 3988 
Q 3128 4100 2886 4159 
Q 2644 4219 2406 4219 
Q 1781 4219 1451 3797 
Q 1122 3375 1075 2522 
Q 1259 2794 1537 2939 
Q 1816 3084 2150 3084 
Q 2853 3084 3261 2657 
Q 3669 2231 3669 1497 
Q 3669 778 3244 343 
Q 2819 -91 2113 -91 
Q 1303 -91 875 529 
Q 447 1150 447 2328 
Q 447 3434 972 4092 
Q 1497 4750 2381 4750 
Q 2619 4750 2861 4703 
Q 3103 4656 3366 4563 
z
" transform="scale(0.015625)"/>
       </defs>
       <use xlink:href="#DejaVuSans-36"/>
      </g>
     </g>
    </g>
    <g id="xtick_5">
     <g id="line2d_9">
      <path d="M 548.161426 534.04 
L 548.161426 36.48525 
" clip-path="url(#p8588ed639a)" style="fill: none; stroke: #b0b0b0; stroke-opacity: 0.3; stroke-width: 0.8; stroke-linecap: square"/>
     </g>
     <g id="line2d_10">
      <g>
       <use xlink:href="#ma1994840e3" x="548.161426" y="534.04" style="stroke: #000000; stroke-width: 0.8"/>
      </g>
     </g>
     <g id="text_5">
      <!-- 8 -->
      <g transform="translate(544.980176 548.638438) scale(0.1 -0.1)">
       <defs>
        <path id="DejaVuSans-38" d="M 2034 2216 
Q 1584 2216 1326 1975 
Q 1069 1734 1069 1313 
Q 1069 891 1326 650 
Q 1584 409 2034 409 
Q 2484 409 2743 651 
Q 3003 894 3003 1313 
Q 3003 1734 2745 1975 
Q 2488 2216 2034 2216 
z
M 1403 2484 
Q 997 2584 770 2862 
Q 544 3141 544 3541 
Q 544 4100 942 4425 
Q 1341 4750 2034 4750 
Q 2731 4750 3128 4425 
Q 3525 4100 3525 3541 
Q 3525 3141 3298 2862 
Q 3072 2584 2669 2484 
Q 3125 2378 3379 2068 
Q 3634 1759 3634 1313 
Q 3634 634 3220 271 
Q 2806 -91 2034 -91 
Q 1263 -91 848 271 
Q 434 634 434 1313 
Q 434 1759 690 2068 
Q 947 2378 1403 2484 
z
M 1172 3481 
Q 1172 3119 1398 2916 
Q 1625 2713 2034 2713 
Q 2441 2713 2670 2916 
Q 2900 3119 2900 3481 
Q 2900 3844 2670 4047 
Q 2441 4250 2034 4250 
Q 1625 4250 1398 4047 
Q 1172 3844 1172 3481 
z
" transform="scale(0.015625)"/>
       </defs>
       <use xlink:href="#DejaVuSans-38"/>
      </g>
     </g>
    </g>
    <g id="xtick_6">
     <g id="line2d_11">
      <path d="M 668.485145 534.04 
L 668.485145 36.48525 
" clip-path="url(#p8588ed639a)" style="fill: none; stroke: #b0b0b0; stroke-opacity: 0.3; stroke-width: 0.8; stroke-linecap: square"/>
     </g>
     <g id="line2d_12">
      <g>
       <use xlink:href="#ma1994840e3" x="668.485145" y="534.04" style="stroke: #000000; stroke-width: 0.8"/>
      </g>
     </g>
     <g id="text_6">
      <!-- 10 -->
      <g transform="translate(662.122645 548.638438) scale(0.1 -0.1)">
       <defs>
        <path id="DejaVuSans-31" d="M 794 531 
L 1825 531 
L 1825 4091 
L 703 3866 
L 703 4441 
L 1819 4666 
L 2450 4666 
L 2450 531 
L 3481 531 
L 3481 0 
L 794 0 
L 794 531 
z
" transform="scale(0.015625)"/>
       </defs>
       <use xlink:href="#DejaVuSans-31"/>
       <use xlink:href="#DejaVuSans-30" transform="translate(63.623047 0)"/>
      </g>
     </g>
    </g>
    <g id="xtick_7">
     <g id="line2d_13">
      <path d="M 788.808863 534.04 
L 788.808863 36.48525 
" clip-path="url(#p8588ed639a)" style="fill: none; stroke: #b0b0b0; stroke-opacity: 0.3; stroke-width: 0.8; stroke-linecap: square"/>
     </g>
     <g id="line2d_14">
      <g>
       <use xlink:href="#ma1994840e3" x="788.808863" y="534.04" style="stroke: #000000; stroke-width: 0.8"/>
      </g>
     </g>
     <g id="text_7">
      <!-- 12 -->
      <g transform="translate(782.446363 548.638438) scale(0.1 -0.1)">
       <use xlink:href="#DejaVuSans-31"/>
       <use xlink:href="#DejaVuSans-32" transform="translate(63.623047 0)"/>
      </g>
     </g>
    </g>
    <g id="text_8">
     <!-- Time (minutes) -->
     <g transform="translate(412.5425 562.316562) scale(0.1 -0.1)">
      <defs>
       <path id="DejaVuSans-54" d="M -19 4666 
L 3928 4666 
L 3928 4134 
L 2272 4134 
L 2272 0 
L 1638 0 
L 1638 4134 
L -19 4134 
L -19 4666 
z
" transform="scale(0.015625)"/>
       <path id="DejaVuSans-69" d="M 603 3500 
L 1178 3500 
L 1178 0 
L 603 0 
L 603 3500 
z
M 603 4863 
L 1178 4863 
L 1178 4134 
L 603 4134 
L 603 4863 
z
" transform="scale(0.015625)"/>
       <path id="DejaVuSans-6d" d="M 3328 2828 
Q 3544 3216 3844 3400 
Q 4144 3584 4550 3584 
Q 5097 3584 5394 3201 
Q 5691 2819 5691 2113 
L 5691 0 
L 5113 0 
L 5113 2094 
Q 5113 2597 4934 2840 
Q 4756 3084 4391 3084 
Q 3944 3084 3684 2787 
Q 3425 2491 3425 1978 
L 3425 0 
L 2847 0 
L 2847 2094 
Q 2847 2600 2669 2842 
Q 2491 3084 2119 3084 
Q 1678 3084 1418 2786 
Q 1159 2488 1159 1978 
L 1159 0 
L 581 0 
L 581 3500 
L 1159 3500 
L 1159 2956 
Q 1356 3278 1631 3431 
Q 1906 3584 2284 3584 
Q 2666 3584 2933 3390 
Q 3200 3197 3328 2828 
z
" transform="scale(0.015625)"/>
       <path id="DejaVuSans-65" d="M 3597 1894 
L 3597 1613 
L 953 1613 
Q 991 1019 1311 708 
Q 1631 397 2203 397 
Q 2534 397 2845 478 
Q 3156 559 3463 722 
L 3463 178 
Q 3153 47 2828 -22 
Q 2503 -91 2169 -91 
Q 1331 -91 842 396 
Q 353 884 353 1716 
Q 353 2575 817 3079 
Q 1281 3584 2069 3584 
Q 2775 3584 3186 3129 
Q 3597 2675 3597 1894 
z
M 3022 2063 
Q 3016 2534 2758 2815 
Q 2500 3097 2075 3097 
Q 1594 3097 1305 2825 
Q 1016 2553 972 2059 
L 3022 2063 
z
" transform="scale(0.015625)"/>
       <path id="DejaVuSans-20" transform="scale(0.015625)"/>
       <path id="DejaVuSans-28" d="M 1984 4856 
Q 1566 4138 1362 3434 
Q 1159 2731 1159 2009 
Q 1159 1288 1364 580 
Q 1569 -128 1984 -844 
L 1484 -844 
Q 1016 -109 783 600 
Q 550 1309 550 2009 
Q 550 2706 781 3412 
Q 1013 4119 1484 4856 
L 1984 4856 
z
" transform="scale(0.015625)"/>
       <path id="DejaVuSans-6e" d="M 3513 2113 
L 3513 0 
L 2938 0 
L 2938 2094 
Q 2938 2591 2744 2837 
Q 2550 3084 2163 3084 
Q 1697 3084 1428 2787 
Q 1159 2491 1159 1978 
L 1159 0 
L 581 0 
L 581 3500 
L 1159 3500 
L 1159 2956 
Q 1366 3272 1645 3428 
Q 1925 3584 2291 3584 
Q 2894 3584 3203 3211 
Q 3513 2838 3513 2113 
z
" transform="scale(0.015625)"/>
       <path id="DejaVuSans-75" d="M 544 1381 
L 544 3500 
L 1119 3500 
L 1119 1403 
Q 1119 906 1312 657 
Q 1506 409 1894 409 
Q 2359 409 2629 706 
Q 2900 1003 2900 1516 
L 2900 3500 
L 3475 3500 
L 3475 0 
L 2900 0 
L 2900 538 
Q 2691 219 2414 64 
Q 2138 -91 1772 -91 
Q 1169 -91 856 284 
Q 544 659 544 1381 
z
M 1991 3584 
L 1991 3584 
z
" transform="scale(0.015625)"/>
       <path id="DejaVuSans-74" d="M 1172 4494 
L 1172 3500 
L 2356 3500 
L 2356 3053 
L 1172 3053 
L 1172 1153 
Q 1172 725 1289 603 
Q 1406 481 1766 481 
L 2356 481 
L 2356 0 
L 1766 0 
Q 1100 0 847 248 
Q 594 497 594 1153 
L 594 3053 
L 172 3053 
L 172 3500 
L 594 3500 
L 594 4494 
L 1172 4494 
z
" transform="scale(0.015625)"/>
       <path id="DejaVuSans-73" d="M 2834 3397 
L 2834 2853 
Q 2591 2978 2328 3040 
Q 2066 3103 1784 3103 
Q 1356 3103 1142 2972 
Q 928 2841 928 2578 
Q 928 2378 1081 2264 
Q 1234 2150 1697 2047 
L 1894 2003 
Q 2506 1872 2764 1633 
Q 3022 1394 3022 966 
Q 3022 478 2636 193 
Q 2250 -91 1575 -91 
Q 1294 -91 989 -36 
Q 684 19 347 128 
L 347 722 
Q 666 556 975 473 
Q 1284 391 1588 391 
Q 1994 391 2212 530 
Q 2431 669 2431 922 
Q 2431 1156 2273 1281 
Q 2116 1406 1581 1522 
L 1381 1569 
Q 847 1681 609 1914 
Q 372 2147 372 2553 
Q 372 3047 722 3315 
Q 1072 3584 1716 3584 
Q 2034 3584 2315 3537 
Q 2597 3491 2834 3397 
z
" transform="scale(0.015625)"/>
       <path id="DejaVuSans-29" d="M 513 4856 
L 1013 4856 
Q 1481 4119 1714 3412 
Q 1947 2706 1947 2009 
Q 1947 1309 1714 600 
Q 1481 -109 1013 -844 
L 513 -844 
Q 928 -128 1133 580 
Q 1338 1288 1338 2009 
Q 1338 2731 1133 3434 
Q 928 4138 513 4856 
z
" transform="scale(0.015625)"/>
      </defs>
      <use xlink:href="#DejaVuSans-54"/>
      <use xlink:href="#DejaVuSans-69" transform="translate(57.958984 0)"/>
      <use xlink:href="#DejaVuSans-6d" transform="translate(85.742188 0)"/>
      <use xlink:href="#DejaVuSans-65" transform="translate(183.154297 0)"/>
      <use xlink:href="#DejaVuSans-20" transform="translate(244.677734 0)"/>
      <use xlink:href="#DejaVuSans-28" transform="translate(276.464844 0)"/>
      <use xlink:href="#DejaVuSans-6d" transform="translate(315.478516 0)"/>
      <use xlink:href="#DejaVuSans-69" transform="translate(412.890625 0)"/>
      <use xlink:href="#DejaVuSans-6e" transform="translate(440.673828 0)"/>
      <use xlink:href="#DejaVuSans-75" transform="translate(504.052734 0)"/>
      <use xlink:href="#DejaVuSans-74" transform="translate(567.431641 0)"/>
      <use xlink:href="#DejaVuSans-65" transform="translate(606.640625 0)"/>
      <use xlink:href="#DejaVuSans-73" transform="translate(668.164062 0)"/>
      <use xlink:href="#DejaVuSans-29" transform="translate(720.263672 0)"/>
     </g>
    </g>
   </g>
   <g id="matplotlib.axis_2">
    <g id="ytick_1">
     <g id="line2d_15">
      <path d="M 47.81 534.04 
L 853.2 534.04 
" clip-path="url(#p8588ed639a)" style="fill: none; stroke: #b0b0b0; stroke-opacity: 0.3; stroke-width: 0.8; stroke-linecap: square"/>
     </g>
     <g id="line2d_16">
      <defs>
       <path id="m5fb12e35f3" d="M 0 0 
L -3.5 0 
" style="stroke: #000000; stroke-width: 0.8"/>
      </defs>
      <g>
       <use xlink:href="#m5fb12e35f3" x="47.81" y="534.04" style="stroke: #000000; stroke-width: 0.8"/>
      </g>
     </g>
     <g id="text_9">
      <!-- 0.0 -->
      <g transform="translate(24.906875 537.839219) scale(0.1 -0.1)">
       <defs>
        <path id="DejaVuSans-2e" d="M 684 794 
L 1344 794 
L 1344 0 
L 684 0 
L 684 794 
z
" transform="scale(0.015625)"/>
       </defs>
       <use xlink:href="#DejaVuSans-30"/>
       <use xlink:href="#DejaVuSans-2e" transform="translate(63.623047 0)"/>
       <use xlink:href="#DejaVuSans-30" transform="translate(95.410156 0)"/>
      </g>
     </g>
    </g>
    <g id="ytick_2">
     <g id="line2d_17">
      <path d="M 47.81 462.478464 
L 853.2 462.478464 
" clip-path="url(#p8588ed639a)" style="fill: none; stroke: #b0b0b0; stroke-opacity: 0.3; stroke-width: 0.8; stroke-linecap: square"/>
     </g>
     <g id="line2d_18">
      <g>
       <use xlink:href="#m5fb12e35f3" x="47.81" y="462.478464" style="stroke: #000000; stroke-width: 0.8"/>
      </g>
     </g>
     <g id="text_10">
      <!-- 0.2 -->
      <g transform="translate(24.906875 466.277682) scale(0.1 -0.1)">
       <use xlink:href="#DejaVuSans-30"/>
       <use xlink:href="#DejaVuSans-2e" transform="translate(63.623047 0)"/>
       <use xlink:href="#DejaVuSans-32" transform="translate(95.410156 0)"/>
      </g>
     </g>
    </g>
    <g id="ytick_3">
     <g id="line2d_19">
      <path d="M 47.81 390.916927 
L 853.2 390.916927 
" clip-path="url(#p8588ed639a)" style="fill: none; stroke: #b0b0b0; stroke-opacity: 0.3; stroke-width: 0.8; stroke-linecap: square"/>
     </g>
     <g id="line2d_20">
      <g>
       <use xlink:href="#m5fb12e35f3" x="47.81" y="390.916927" style="stroke: #000000; stroke-width: 0.8"/>
      </g>
     </g>
     <g id="text_11">
      <!-- 0.4 -->
      <g transform="translate(24.906875 394.716146) scale(0.1 -0.1)">
       <use xlink:href="#DejaVuSans-30"/>
       <use xlink:href="#DejaVuSans-2e" transform="translate(63.623047 0)"/>
       <use xlink:href="#DejaVuSans-34" transform="translate(95.410156 0)"/>
      </g>
     </g>
    </g>
    <g id="ytick_4">
     <g id="line2d_21">
      <path d="M 47.81 319.355391 
L 853.2 319.355391 
" clip-path="url(#p8588ed639a)" style="fill: none; stroke: #b0b0b0; stroke-opacity: 0.3; stroke-width: 0.8; stroke-linecap: square"/>
     </g>
     <g id="line2d_22">
      <g>
       <use xlink:href="#m5fb12e35f3" x="47.81" y="319.355391" style="stroke: #000000; stroke-width: 0.8"/>
      </g>
     </g>
     <g id="text_12">
      <!-- 0.6 -->
      <g transform="translate(24.906875 323.154609) scale(0.1 -0.1)">
       <use xlink:href="#DejaVuSans-30"/>
       <use xlink:href="#DejaVuSans-2e" transform="translate(63.623047 0)"/>
       <use xlink:href="#DejaVuSans-36" transform="translate(95.410156 0)"/>
      </g>
     </g>
    </g>
    <g id="ytick_5">
     <g id="line2d_23">
      <path d="M 47.81 247.793854 
L 853.2 247.793854 
" clip-path="url(#p8588ed639a)" style="fill: none; stroke: #b0b0b0; stroke-opacity: 0.3; stroke-width: 0.8; stroke-linecap: square"/>
     </g>
     <g id="line2d_24">
      <g>
       <use xlink:href="#m5fb12e35f3" x="47.81" y="247.793854" style="stroke: #000000; stroke-width: 0.8"/>
      </g>
     </g>
     <g id="text_13">
      <!-- 0.8 -->
      <g transform="translate(24.906875 251.593073) scale(0.1 -0.1)">
       <use xlink:href="#DejaVuSans-30"/>
       <use xlink:href="#DejaVuSans-2e" transform="translate(63.623047 0)"/>
       <use xlink:href="#DejaVuSans-38" transform="translate(95.410156 0)"/>
      </g>
     </g>
    </g>
    <g id="ytick_6">
     <g id="line2d_25">
      <path d="M 47.81 176.232318 
L 853.2 176.232318 
" clip-path="url(#p8588ed639a)" style="fill: none; stroke: #b0b0b0; stroke-opacity: 0.3; stroke-width: 0.8; stroke-linecap: square"/>
     </g>
     <g id="line2d_26">
      <g>
       <use xlink:href="#m5fb12e35f3" x="47.81" y="176.232318" style="stroke: #000000; stroke-width: 0.8"/>
      </g>
     </g>
     <g id="text_14">
      <!-- 1.0 -->
      <g transform="translate(24.906875 180.031537) scale(0.1 -0.1)">
       <use xlink:href="#DejaVuSans-31"/>
       <use xlink:href="#DejaVuSans-2e" transform="translate(63.623047 0)"/>
       <use xlink:href="#DejaVuSans-30" transform="translate(95.410156 0)"/>
      </g>
     </g>
    </g>
    <g id="ytick_7">
     <g id="line2d_27">
      <path d="M 47.81 104.670781 
L 853.2 104.670781 
" clip-path="url(#p8588ed639a)" style="fill: none; stroke: #b0b0b0; stroke-opacity: 0.3; stroke-width: 0.8; stroke-linecap: square"/>
     </g>
     <g id="line2d_28">
      <g>
       <use xlink:href="#m5fb12e35f3" x="47.81" y="104.670781" style="stroke: #000000; stroke-width: 0.8"/>
      </g>
     </g>
     <g id="text_15">
      <!-- 1.2 -->
      <g transform="translate(24.906875 108.47) scale(0.1 -0.1)">
       <use xlink:href="#DejaVuSans-31"/>
       <use xlink:href="#DejaVuSans-2e" transform="translate(63.623047 0)"/>
       <use xlink:href="#DejaVuSans-32" transform="translate(95.410156 0)"/>
      </g>
     </g>
    </g>
    <g id="text_16">
     <!-- EDA (μS) -->
     <g transform="translate(18.827187 307.450906) rotate(-90) scale(0.1 -0.1)">
      <defs>
       <path id="DejaVuSans-45" d="M 628 4666 
L 3578 4666 
L 3578 4134 
L 1259 4134 
L 1259 2753 
L 3481 2753 
L 3481 2222 
L 1259 2222 
L 1259 531 
L 3634 531 
L 3634 0 
L 628 0 
L 628 4666 
z
" transform="scale(0.015625)"/>
       <path id="DejaVuSans-44" d="M 1259 4147 
L 1259 519 
L 2022 519 
Q 2988 519 3436 956 
Q 3884 1394 3884 2338 
Q 3884 3275 3436 3711 
Q 2988 4147 2022 4147 
L 1259 4147 
z
M 628 4666 
L 1925 4666 
Q 3281 4666 3915 4102 
Q 4550 3538 4550 2338 
Q 4550 1131 3912 565 
Q 3275 0 1925 0 
L 628 0 
L 628 4666 
z
" transform="scale(0.015625)"/>
       <path id="DejaVuSans-41" d="M 2188 4044 
L 1331 1722 
L 3047 1722 
L 2188 4044 
z
M 1831 4666 
L 2547 4666 
L 4325 0 
L 3669 0 
L 3244 1197 
L 1141 1197 
L 716 0 
L 50 0 
L 1831 4666 
z
" transform="scale(0.015625)"/>
       <path id="DejaVuSans-3bc" d="M 544 -1331 
L 544 3500 
L 1119 3500 
L 1119 1325 
Q 1119 872 1334 640 
Q 1550 409 1972 409 
Q 2434 409 2667 671 
Q 2900 934 2900 1459 
L 2900 3500 
L 3475 3500 
L 3475 806 
Q 3475 619 3529 530 
Q 3584 441 3700 441 
Q 3728 441 3778 458 
Q 3828 475 3916 513 
L 3916 50 
Q 3788 -22 3673 -56 
Q 3559 -91 3450 -91 
Q 3234 -91 3106 31 
Q 2978 153 2931 403 
Q 2775 156 2548 32 
Q 2322 -91 2016 -91 
Q 1697 -91 1473 31 
Q 1250 153 1119 397 
L 1119 -1331 
L 544 -1331 
z
" transform="scale(0.015625)"/>
       <path id="DejaVuSans-53" d="M 3425 4513 
L 3425 3897 
Q 3066 4069 2747 4153 
Q 2428 4238 2131 4238 
Q 1616 4238 1336 4038 
Q 1056 3838 1056 3469 
Q 1056 3159 1242 3001 
Q 1428 2844 1947 2747 
L 2328 2669 
Q 3034 2534 3370 2195 
Q 3706 1856 3706 1288 
Q 3706 609 3251 259 
Q 2797 -91 1919 -91 
Q 1588 -91 1214 -16 
Q 841 59 441 206 
L 441 856 
Q 825 641 1194 531 
Q 1563 422 1919 422 
Q 2459 422 2753 634 
Q 3047 847 3047 1241 
Q 3047 1584 2836 1778 
Q 2625 1972 2144 2069 
L 1759 2144 
Q 1053 2284 737 2584 
Q 422 2884 422 3419 
Q 422 4038 858 4394 
Q 1294 4750 2059 4750 
Q 2388 4750 2728 4690 
Q 3069 4631 3425 4513 
z
" transform="scale(0.015625)"/>
      </defs>
      <use xlink:href="#DejaVuSans-45"/>
      <use xlink:href="#DejaVuSans-44" transform="translate(63.183594 0)"/>
      <use xlink:href="#DejaVuSans-41" transform="translate(138.435547 0)"/>
      <use xlink:href="#DejaVuSans-20" transform="translate(206.84375 0)"/>
      <use xlink:href="#DejaVuSans-28" transform="translate(238.630859 0)"/>
      <use xlink:href="#DejaVuSans-3bc" transform="translate(277.644531 0)"/>
      <use xlink:href="#DejaVuSans-53" transform="translate(341.267578 0)"/>
      <use xlink:href="#DejaVuSans-29" transform="translate(404.744141 0)"/>
     </g>
    </g>
   </g>
   <g id="line2d_29">
    <path d="M 84.418636 217.842131 
L 84.66938 197.686109 
L 84.920125 194.479794 
L 85.170869 188.982795 
L 85.421613 190.356776 
L 85.672357 189.440788 
L 86.675333 164.246118 
L 87.176821 159.207113 
L 87.427565 159.665464 
L 87.929054 167.452791 
L 88.93203 182.56945 
L 89.182774 183.485795 
L 89.684262 189.898782 
L 89.935006 190.356776 
L 90.18575 193.105455 
L 90.687238 194.021442 
L 90.937983 197.686109 
L 91.188727 198.602454 
L 91.439471 197.686109 
L 91.690215 200.434787 
L 91.940959 201.809127 
L 92.191703 200.434787 
L 92.693191 207.306126 
L 92.943935 201.350775 
L 93.194679 203.183466 
L 93.445423 208.222114 
L 93.946912 211.428786 
L 94.197656 199.518442 
L 94.4484 205.015799 
L 94.699144 205.931787 
L 94.949888 205.015799 
L 95.200632 197.228115 
L 95.451376 184.859777 
L 95.70212 183.027444 
L 95.952864 180.279123 
L 96.203608 180.279123 
L 96.454352 182.56945 
L 96.705097 182.111456 
L 97.206585 183.943789 
L 97.457329 183.485795 
L 97.708073 185.776122 
L 97.958817 184.859777 
L 98.209561 187.608455 
L 98.460305 188.982795 
L 98.711049 188.524443 
L 98.961793 189.440788 
L 99.212537 191.731115 
L 99.463281 192.647461 
L 99.714026 192.647461 
L 99.96477 193.105455 
L 100.215514 194.479794 
L 100.466258 194.479794 
L 100.717002 194.937788 
L 100.967746 195.853776 
L 101.21849 192.189109 
L 101.469234 194.021442 
L 101.719978 194.937788 
L 101.970722 194.021442 
L 102.221466 195.395782 
L 102.47221 195.853776 
L 102.722955 196.770121 
L 102.973699 197.228115 
L 103.224443 195.853776 
L 103.475187 197.686109 
L 103.725931 198.602454 
L 103.976675 199.976793 
L 104.478163 199.976793 
L 104.979651 202.26712 
L 105.230395 203.183466 
L 105.481139 202.26712 
L 105.731884 203.64146 
L 105.982628 203.64146 
L 106.233372 202.26712 
L 106.484116 203.64146 
L 106.73486 203.64146 
L 106.985604 203.183466 
L 107.236348 204.557447 
L 107.487092 204.099454 
L 108.490068 199.060448 
L 108.740813 198.602454 
L 108.991557 195.395782 
L 109.242301 197.686109 
L 109.493045 197.686109 
L 110.245277 205.931787 
L 110.496021 203.64146 
L 110.746765 205.015799 
L 111.248253 209.596453 
L 111.498998 208.222114 
L 111.749742 207.76412 
L 112.000486 208.680108 
L 112.25123 210.054447 
L 112.501974 208.680108 
L 112.752718 209.596453 
L 113.003462 209.138459 
L 113.254206 210.970792 
L 113.50495 210.970792 
L 113.755694 219.216113 
L 114.006438 212.803125 
L 114.257182 214.177465 
L 114.507927 209.138459 
L 114.758671 210.970792 
L 115.009415 211.428786 
L 115.260159 209.138459 
L 115.761647 210.054447 
L 116.012391 211.88678 
L 116.263135 212.803125 
L 116.513879 213.261119 
L 116.764623 212.803125 
L 117.015367 214.177465 
L 117.266111 212.803125 
L 117.516856 212.803125 
L 117.7676 213.261119 
L 118.018344 213.261119 
L 118.269088 213.719113 
L 118.519832 211.88678 
L 118.770576 211.88678 
L 119.272064 213.719113 
L 119.522808 213.261119 
L 120.024296 214.177465 
L 120.27504 215.093452 
L 120.525785 215.551446 
L 120.776529 215.551446 
L 121.027273 216.925786 
L 121.278017 214.177465 
L 121.528761 216.467792 
L 121.779505 215.551446 
L 122.030249 217.842131 
L 122.280993 218.300125 
L 122.531737 219.216113 
L 122.782481 219.674464 
L 123.033225 217.383779 
L 123.283969 219.216113 
L 123.534714 218.758119 
L 123.785458 219.216113 
L 124.036202 219.216113 
L 124.53769 216.467792 
L 124.788434 216.009798 
L 125.039178 216.009798 
L 125.289922 216.925786 
L 125.540666 216.467792 
L 126.042154 217.383779 
L 126.292899 217.383779 
L 126.543643 217.842131 
L 126.794387 217.842131 
L 127.045131 220.132458 
L 127.295875 219.674464 
L 127.546619 218.758119 
L 127.797363 219.216113 
L 128.048107 220.590452 
L 128.549595 219.674464 
L 128.800339 219.674464 
L 129.051083 220.132458 
L 129.301828 221.964791 
L 129.552572 221.048446 
L 129.803316 221.964791 
L 130.05406 221.964791 
L 130.555548 223.797124 
L 130.806292 223.797124 
L 131.057036 223.33913 
L 131.30778 223.33913 
L 131.558524 224.713112 
L 131.809268 223.797124 
L 132.060012 225.171464 
L 132.310757 225.629457 
L 132.561501 225.171464 
L 133.062989 226.087451 
L 133.313733 225.629457 
L 133.564477 226.545445 
L 133.815221 227.003797 
L 134.065965 226.545445 
L 134.316709 227.461791 
L 134.567453 226.087451 
L 134.818197 227.003797 
L 135.068941 229.294124 
L 135.319686 227.003797 
L 135.821174 227.919784 
L 136.071918 227.461791 
L 136.322662 226.087451 
L 136.82415 227.003797 
L 137.325638 227.003797 
L 137.576382 226.545445 
L 138.07787 229.294124 
L 138.328615 227.461791 
L 138.830103 229.752118 
L 139.080847 229.752118 
L 139.582335 230.668463 
L 139.833079 231.584451 
L 140.083823 230.668463 
L 140.334567 232.042445 
L 140.836055 232.042445 
L 141.0868 230.668463 
L 141.337544 230.210111 
L 141.839032 231.126457 
L 142.34052 232.95879 
L 142.591264 232.95879 
L 142.842008 232.042445 
L 143.092752 234.333129 
L 143.343496 235.249117 
L 143.59424 235.249117 
L 143.844984 235.707111 
L 144.095729 252.656461 
L 144.346473 245.785122 
L 144.597217 234.791123 
L 144.847961 235.249117 
L 145.349449 234.333129 
L 145.600193 233.416784 
L 145.850937 236.165462 
L 146.101681 236.623456 
L 146.352425 235.249117 
L 146.603169 235.249117 
L 146.853913 235.707111 
L 147.104658 235.249117 
L 147.355402 235.249117 
L 147.606146 237.08145 
L 147.85689 236.165462 
L 148.107634 237.997796 
L 148.609122 237.08145 
L 149.11061 239.830129 
L 149.361354 238.913783 
L 149.612098 240.288123 
L 149.862842 239.830129 
L 150.113587 238.913783 
L 150.364331 240.746116 
L 150.615075 240.746116 
L 150.865819 239.830129 
L 151.116563 240.746116 
L 151.367307 240.746116 
L 151.618051 241.662462 
L 151.868795 242.120456 
L 152.119539 242.120456 
L 152.370283 243.494795 
L 152.621027 243.494795 
L 152.871771 242.57845 
L 153.37326 243.494795 
L 153.624004 244.410783 
L 153.874748 243.494795 
L 154.125492 244.410783 
L 154.376236 243.494795 
L 154.62698 245.327128 
L 154.877724 245.327128 
L 155.128468 245.785122 
L 155.379212 245.327128 
L 155.629956 246.70111 
L 155.8807 245.327128 
L 156.131445 248.075449 
L 156.382189 247.617455 
L 156.632933 247.617455 
L 156.883677 246.70111 
L 157.134421 247.159461 
L 157.385165 247.159461 
L 157.635909 248.533443 
L 157.886653 246.70111 
L 158.137397 248.533443 
L 158.388141 248.991794 
L 158.638885 247.617455 
L 159.140374 249.449788 
L 159.641862 247.617455 
L 159.892606 249.907782 
L 160.14335 249.449788 
L 160.394094 250.824128 
L 160.644838 250.824128 
L 160.895582 249.907782 
L 161.146326 250.824128 
L 161.39707 249.907782 
L 161.898559 251.740115 
L 162.149303 252.198109 
L 162.400047 252.198109 
L 162.650791 253.114455 
L 162.901535 252.198109 
L 163.152279 253.114455 
L 163.403023 252.656461 
L 163.653767 252.656461 
L 164.155255 250.365776 
L 164.405999 246.70111 
L 165.158232 242.120456 
L 165.408976 243.036443 
L 165.65972 243.494795 
L 165.910464 242.120456 
L 166.161208 242.120456 
L 166.411952 242.57845 
L 166.662696 243.494795 
L 166.91344 245.327128 
L 167.164184 245.327128 
L 167.414928 246.243116 
L 167.665672 246.243116 
L 168.167161 247.159461 
L 168.417905 248.075449 
L 168.668649 248.075449 
L 168.919393 246.70111 
L 169.170137 247.159461 
L 169.420881 246.243116 
L 169.922369 245.327128 
L 170.173113 245.327128 
L 170.423857 247.159461 
L 170.925346 247.159461 
L 171.17609 248.075449 
L 171.426834 248.533443 
L 171.677578 248.533443 
L 171.928322 249.449788 
L 172.179066 249.907782 
L 172.42981 250.824128 
L 172.680554 250.824128 
L 172.931298 251.740115 
L 173.182042 251.282121 
L 173.683531 251.282121 
L 173.934275 252.198109 
L 174.185019 255.862775 
L 174.435763 257.695109 
L 174.686507 256.321127 
L 174.937251 256.321127 
L 175.438739 244.410783 
L 175.689483 246.70111 
L 175.940227 247.159461 
L 176.190971 248.075449 
L 177.444692 235.249117 
L 177.695436 235.249117 
L 177.94618 233.874778 
L 178.196924 233.874778 
L 178.447668 235.707111 
L 178.698412 236.165462 
L 178.949156 237.08145 
L 179.450644 240.288123 
L 179.701389 240.288123 
L 179.952133 241.662462 
L 180.202877 242.120456 
L 180.453621 245.327128 
L 180.704365 261.818126 
L 180.955109 252.656461 
L 181.205853 249.449788 
L 181.456597 248.991794 
L 181.707341 254.488794 
L 181.958085 254.030442 
L 182.459573 233.874778 
L 182.961062 217.383779 
L 183.46255 207.306126 
L 183.713294 207.76412 
L 184.967014 220.132458 
L 185.468502 225.171464 
L 185.969991 228.83613 
L 186.471479 230.668463 
L 186.722223 233.416784 
L 186.972967 233.874778 
L 187.725199 237.997796 
L 187.975943 237.08145 
L 188.477432 238.913783 
L 188.728176 238.455789 
L 188.97892 239.371777 
L 189.229664 239.371777 
L 189.480408 241.20411 
L 189.731152 240.746116 
L 189.981896 242.120456 
L 190.23264 241.662462 
L 190.483384 241.662462 
L 190.734128 242.120456 
L 190.984872 243.036443 
L 191.486361 243.036443 
L 191.737105 244.410783 
L 191.987849 244.410783 
L 192.238593 243.036443 
L 192.489337 243.036443 
L 192.740081 241.662462 
L 192.990825 248.991794 
L 193.241569 250.824128 
L 193.492313 240.746116 
L 193.743057 241.20411 
L 193.993801 247.617455 
L 194.244545 243.036443 
L 194.49529 242.120456 
L 194.746034 241.662462 
L 194.996778 240.746116 
L 195.247522 242.57845 
L 195.74901 240.288123 
L 195.999754 240.746116 
L 196.250498 241.662462 
L 196.501242 241.20411 
L 196.751986 242.120456 
L 197.00273 242.120456 
L 197.253474 241.20411 
L 197.504219 242.120456 
L 197.754963 242.120456 
L 198.005707 243.494795 
L 198.256451 242.57845 
L 198.507195 243.494795 
L 198.757939 243.494795 
L 199.259427 244.410783 
L 199.510171 243.494795 
L 200.011659 245.327128 
L 200.262403 244.868777 
L 200.513148 245.785122 
L 200.763892 243.952789 
L 201.014636 245.327128 
L 201.26538 245.785122 
L 201.766868 244.868777 
L 202.017612 247.159461 
L 202.268356 247.159461 
L 202.5191 248.533443 
L 202.769844 247.159461 
L 203.020588 247.159461 
L 203.271333 248.075449 
L 203.522077 247.617455 
L 204.023565 249.449788 
L 204.274309 249.449788 
L 204.525053 249.907782 
L 204.775797 248.991794 
L 205.026541 248.991794 
L 205.277285 251.282121 
L 205.778773 252.198109 
L 206.029517 251.740115 
L 206.280262 252.198109 
L 206.531006 251.740115 
L 206.78175 252.198109 
L 207.283238 252.198109 
L 207.533982 254.030442 
L 207.784726 253.114455 
L 208.03547 253.572448 
L 208.286214 254.946788 
L 208.536958 255.404782 
L 208.787702 254.488794 
L 209.038446 254.946788 
L 209.289191 254.488794 
L 209.539935 255.862775 
L 210.292167 257.237115 
L 210.542911 258.15346 
L 210.793655 256.779121 
L 211.044399 257.695109 
L 211.295143 258.15346 
L 211.545887 257.237115 
L 211.796631 259.069448 
L 212.047375 257.237115 
L 212.29812 258.15346 
L 212.548864 258.15346 
L 212.799608 259.069448 
L 213.050352 258.611454 
L 213.301096 259.069448 
L 213.55184 258.15346 
L 213.802584 258.611454 
L 214.304072 260.443787 
L 214.554816 260.443787 
L 214.80556 259.985793 
L 215.307049 260.901781 
L 215.557793 259.985793 
L 215.808537 260.901781 
L 216.059281 260.901781 
L 216.310025 259.527442 
L 216.560769 259.069448 
L 216.811513 259.527442 
L 217.062257 259.069448 
L 217.814489 260.443787 
L 218.065233 260.443787 
L 218.315978 259.985793 
L 218.566722 259.985793 
L 218.817466 260.443787 
L 219.06821 259.985793 
L 219.569698 260.901781 
L 219.820442 259.985793 
L 220.32193 259.985793 
L 220.572674 259.069448 
L 221.074163 259.069448 
L 221.324907 259.985793 
L 221.575651 259.069448 
L 221.826395 260.443787 
L 222.077139 260.901781 
L 222.327883 260.901781 
L 222.578627 261.818126 
L 222.829371 261.359775 
L 223.080115 262.27612 
L 223.330859 262.734114 
L 223.832347 262.734114 
L 224.083092 263.192108 
L 224.333836 263.192108 
L 224.58458 264.108453 
L 224.835324 262.27612 
L 225.086068 264.108453 
L 225.336812 264.108453 
L 225.587556 263.192108 
L 225.8383 265.024441 
L 226.089044 264.566447 
L 226.339788 265.482793 
L 226.590532 265.024441 
L 226.841276 265.482793 
L 227.342765 265.482793 
L 227.593509 264.566447 
L 227.844253 264.566447 
L 228.094997 265.940787 
L 228.345741 265.024441 
L 228.596485 266.856774 
L 229.348717 266.856774 
L 229.599461 267.315126 
L 229.850205 266.856774 
L 230.10095 267.77312 
L 230.602438 266.856774 
L 230.853182 267.77312 
L 231.103926 266.39878 
L 231.35467 267.77312 
L 231.605414 267.77312 
L 231.856158 268.231114 
L 232.106902 267.315126 
L 232.357646 267.77312 
L 232.859134 266.856774 
L 233.109879 267.315126 
L 233.360623 266.856774 
L 233.611367 268.689107 
L 233.862111 268.689107 
L 234.112855 267.315126 
L 234.363599 268.689107 
L 234.614343 268.689107 
L 234.865087 268.231114 
L 235.115831 269.147459 
L 235.366575 269.605453 
L 235.617319 269.147459 
L 235.868064 270.979792 
L 236.118808 269.605453 
L 236.369552 271.89578 
L 236.620296 271.437786 
L 236.87104 270.063447 
L 237.121784 271.437786 
L 237.372528 271.89578 
L 237.623272 270.521798 
L 237.874016 272.354131 
L 238.12476 270.979792 
L 238.375504 272.354131 
L 238.626248 272.354131 
L 238.876993 271.89578 
L 239.127737 272.812125 
L 239.629225 273.728113 
L 239.879969 273.270119 
L 240.130713 275.102452 
L 240.381457 273.728113 
L 240.632201 274.644458 
L 240.882945 273.728113 
L 241.133689 274.186465 
L 241.384433 275.102452 
L 241.635177 272.812125 
L 241.885922 274.644458 
L 242.136666 274.644458 
L 242.888898 276.018798 
L 243.139642 276.018798 
L 243.390386 276.934785 
L 243.64113 275.102452 
L 243.891874 274.644458 
L 244.142618 275.102452 
L 244.393362 276.018798 
L 244.644106 275.102452 
L 244.894851 276.476792 
L 245.145595 276.476792 
L 245.396339 275.102452 
L 245.647083 276.934785 
L 245.897827 277.392779 
L 246.148571 277.392779 
L 246.399315 277.851131 
L 246.650059 276.934785 
L 246.900803 278.309125 
L 247.151547 277.392779 
L 247.402291 277.392779 
L 247.90378 279.683464 
L 248.154524 278.767119 
L 248.405268 279.225112 
L 248.656012 278.767119 
L 248.906756 279.225112 
L 249.1575 280.141458 
L 249.408244 279.683464 
L 249.658988 279.683464 
L 249.909732 281.057445 
L 250.160476 280.599452 
L 250.41122 279.683464 
L 250.661965 280.599452 
L 250.912709 280.141458 
L 251.163453 280.599452 
L 251.414197 281.515797 
L 251.664941 281.973791 
L 251.915685 281.057445 
L 252.166429 281.515797 
L 252.667917 281.515797 
L 252.918661 282.431785 
L 253.169405 280.141458 
L 253.420149 282.431785 
L 253.670894 281.973791 
L 253.921638 282.889779 
L 254.172382 281.973791 
L 254.423126 283.34813 
L 254.67387 281.973791 
L 254.924614 282.889779 
L 255.426102 281.057445 
L 255.676846 282.431785 
L 255.92759 281.057445 
L 256.178334 282.431785 
L 256.429078 281.973791 
L 256.679823 282.431785 
L 256.930567 281.973791 
L 257.181311 283.34813 
L 257.432055 282.889779 
L 257.682799 283.34813 
L 257.933543 284.722112 
L 258.435031 283.806124 
L 258.685775 283.806124 
L 258.936519 284.722112 
L 259.438007 285.638457 
L 259.688752 284.722112 
L 259.939496 285.638457 
L 260.19024 286.096451 
L 260.440984 285.180463 
L 260.691728 287.012797 
L 260.942472 287.012797 
L 261.193216 286.096451 
L 261.44396 286.554445 
L 261.694704 285.180463 
L 261.945448 286.554445 
L 262.196192 285.638457 
L 262.446936 287.012797 
L 262.948425 287.928784 
L 263.199169 287.47079 
L 263.449913 288.84513 
L 263.700657 288.84513 
L 263.951401 287.928784 
L 264.202145 288.84513 
L 264.452889 288.84513 
L 264.703633 287.928784 
L 264.954377 290.219111 
L 265.205121 289.761117 
L 265.957354 289.761117 
L 266.458842 288.84513 
L 266.96033 290.677463 
L 267.211074 290.677463 
L 267.461818 289.761117 
L 267.712562 292.051444 
L 267.963306 290.677463 
L 268.21405 291.59345 
L 268.464795 290.677463 
L 268.715539 291.135457 
L 268.966283 291.135457 
L 269.217027 292.509796 
L 269.467771 291.135457 
L 269.718515 291.135457 
L 269.969259 292.509796 
L 270.220003 292.051444 
L 270.470747 292.96779 
L 270.721491 292.051444 
L 270.972235 292.509796 
L 271.473724 294.342129 
L 271.724468 292.509796 
L 271.975212 292.96779 
L 272.225956 293.883777 
L 272.4767 292.051444 
L 272.727444 295.258117 
L 272.978188 293.883777 
L 273.228932 293.425784 
L 273.479676 294.342129 
L 273.981164 294.342129 
L 274.231908 295.258117 
L 274.482653 294.342129 
L 274.733397 294.342129 
L 274.984141 295.258117 
L 275.234885 293.883777 
L 275.485629 295.716111 
L 275.736373 295.716111 
L 275.987117 294.800123 
L 276.488605 295.716111 
L 276.739349 294.342129 
L 276.990093 296.174462 
L 277.240837 295.258117 
L 277.491582 296.632456 
L 277.742326 295.716111 
L 277.99307 296.174462 
L 278.243814 295.716111 
L 278.494558 295.716111 
L 278.745302 295.258117 
L 278.996046 296.174462 
L 279.24679 295.716111 
L 279.748278 296.632456 
L 279.999022 297.548444 
L 280.249767 297.09045 
L 280.500511 297.548444 
L 280.751255 297.09045 
L 281.001999 297.548444 
L 281.252743 298.464789 
L 281.503487 298.922783 
L 281.754231 296.174462 
L 282.004975 298.922783 
L 282.255719 298.922783 
L 282.506463 299.839129 
L 282.757207 300.297122 
L 283.007951 298.922783 
L 283.50944 299.839129 
L 283.760184 299.380777 
L 284.010928 300.297122 
L 284.261672 300.755116 
L 284.512416 299.839129 
L 284.76316 301.21311 
L 285.013904 301.21311 
L 285.264648 300.755116 
L 285.515392 301.671462 
L 286.01688 301.671462 
L 286.518369 302.587449 
L 286.769113 301.671462 
L 287.019857 303.045443 
L 287.521345 303.045443 
L 287.772089 304.419782 
L 288.022833 303.503795 
L 288.273577 303.045443 
L 288.524321 303.961789 
L 288.775065 302.587449 
L 289.025809 303.961789 
L 289.527298 303.961789 
L 289.778042 303.503795 
L 290.028786 303.961789 
L 290.530274 305.794122 
L 290.781018 303.961789 
L 291.031762 305.336128 
L 291.783994 305.336128 
L 292.034738 306.252116 
L 292.285483 305.336128 
L 292.536227 306.710109 
L 293.037715 305.794122 
L 293.288459 307.168461 
L 293.539203 307.168461 
L 293.789947 306.710109 
L 294.291435 306.710109 
L 294.542179 307.626455 
L 294.792923 306.710109 
L 295.043667 306.252116 
L 295.294412 308.542443 
L 295.545156 307.626455 
L 295.7959 308.542443 
L 296.046644 309.000794 
L 296.297388 308.542443 
L 296.548132 307.626455 
L 296.798876 309.000794 
L 297.551108 309.000794 
L 297.801852 308.084449 
L 298.052597 309.916782 
L 298.303341 309.000794 
L 299.055573 310.374776 
L 299.306317 309.458788 
L 299.557061 310.374776 
L 300.058549 310.374776 
L 300.309293 311.291121 
L 300.560037 310.374776 
L 300.810781 311.749115 
L 301.061526 310.833127 
L 301.31227 311.291121 
L 301.563014 311.291121 
L 301.813758 310.833127 
L 302.315246 313.123454 
L 302.56599 312.207109 
L 302.816734 311.749115 
L 303.067478 312.665461 
L 303.318222 312.665461 
L 303.568966 313.123454 
L 303.81971 312.665461 
L 304.070455 312.665461 
L 304.321199 313.581448 
L 304.822687 312.665461 
L 305.073431 314.497794 
L 305.324175 314.039442 
L 305.574919 314.497794 
L 305.825663 315.413781 
L 306.076407 314.039442 
L 306.327151 314.955787 
L 306.828639 314.955787 
L 307.079384 314.497794 
L 307.330128 314.955787 
L 308.08236 314.955787 
L 308.333104 314.497794 
L 308.583848 315.413781 
L 308.834592 314.497794 
L 309.085336 315.413781 
L 309.33608 315.413781 
L 309.586824 315.871775 
L 309.837568 315.871775 
L 310.088313 316.788121 
L 310.339057 315.871775 
L 310.589801 315.871775 
L 310.840545 316.788121 
L 311.091289 315.413781 
L 311.342033 316.330127 
L 311.592777 316.788121 
L 312.345009 316.788121 
L 312.595753 317.246114 
L 313.097242 316.330127 
L 313.347986 316.788121 
L 313.59873 317.704108 
L 313.849474 317.246114 
L 314.100218 318.16246 
L 314.350962 318.16246 
L 314.601706 317.246114 
L 314.85245 317.704108 
L 315.103194 317.704108 
L 315.353938 317.246114 
L 315.604682 319.078448 
L 315.855427 317.704108 
L 316.106171 317.704108 
L 316.356915 319.078448 
L 316.607659 317.246114 
L 316.858403 318.620454 
L 317.109147 318.620454 
L 317.359891 319.536441 
L 317.610635 319.078448 
L 318.112123 319.078448 
L 318.362867 319.536441 
L 318.864356 318.620454 
L 319.1151 319.994793 
L 319.365844 318.620454 
L 319.867332 319.536441 
L 320.118076 319.536441 
L 320.36882 319.994793 
L 320.619564 319.536441 
L 320.870308 319.536441 
L 321.121052 320.452787 
L 321.371796 319.536441 
L 321.62254 320.910781 
L 321.873285 318.620454 
L 322.124029 319.078448 
L 322.374773 320.452787 
L 322.625517 320.910781 
L 322.876261 319.994793 
L 323.127005 320.910781 
L 323.628493 319.994793 
L 323.879237 320.910781 
L 324.129981 320.452787 
L 324.380725 321.827126 
L 324.882214 320.910781 
L 325.132958 321.827126 
L 325.383702 321.368775 
L 325.634446 322.28512 
L 325.88519 325.033441 
L 326.135934 324.575447 
L 326.386678 323.659459 
L 326.637422 325.033441 
L 326.888166 324.575447 
L 327.13891 325.949786 
L 327.389654 326.40778 
L 327.640399 324.575447 
L 327.891143 325.033441 
L 328.392631 325.033441 
L 328.643375 325.949786 
L 328.894119 325.491792 
L 329.144863 324.575447 
L 329.395607 325.949786 
L 329.897095 325.033441 
L 330.147839 325.491792 
L 330.398583 324.575447 
L 330.649328 326.40778 
L 330.900072 325.491792 
L 331.150816 325.033441 
L 331.40156 325.949786 
L 331.652304 325.491792 
L 331.903048 326.40778 
L 332.153792 325.491792 
L 332.404536 325.949786 
L 332.65528 327.324126 
L 333.156768 326.40778 
L 333.407512 327.324126 
L 333.909001 326.40778 
L 334.159745 326.865774 
L 334.410489 326.865774 
L 334.661233 328.240113 
L 334.911977 326.865774 
L 335.162721 326.865774 
L 335.413465 328.240113 
L 335.664209 327.782119 
L 335.914953 328.240113 
L 336.416441 328.240113 
L 336.667186 327.782119 
L 336.91793 328.240113 
L 337.168674 328.240113 
L 337.419418 326.865774 
L 337.670162 327.782119 
L 337.920906 326.865774 
L 338.17165 326.865774 
L 338.422394 329.156459 
L 338.673138 327.782119 
L 338.923882 327.782119 
L 339.174626 328.698107 
L 339.42537 328.240113 
L 339.676115 330.072446 
L 340.177603 329.156459 
L 340.428347 330.072446 
L 340.679091 328.698107 
L 340.929835 329.614453 
L 341.180579 330.072446 
L 341.431323 329.156459 
L 341.682067 330.072446 
L 341.932811 329.156459 
L 342.183555 330.530798 
L 342.4343 329.156459 
L 342.685044 330.072446 
L 342.935788 329.614453 
L 343.186532 330.530798 
L 343.437276 330.072446 
L 343.68802 330.072446 
L 343.938764 330.988792 
L 344.189508 330.072446 
L 344.440252 330.530798 
L 344.690996 330.530798 
L 344.94174 330.988792 
L 345.443229 330.988792 
L 345.693973 329.614453 
L 345.944717 331.446786 
L 346.195461 330.988792 
L 346.446205 331.90478 
L 346.696949 331.446786 
L 346.947693 330.530798 
L 347.449181 331.446786 
L 347.699925 332.363131 
L 347.950669 331.90478 
L 348.201413 332.363131 
L 348.452158 331.90478 
L 348.702902 332.821125 
L 348.953646 332.363131 
L 349.705878 332.363131 
L 349.956622 333.737113 
L 350.207366 333.737113 
L 350.45811 331.90478 
L 350.708854 332.363131 
L 350.959598 333.279119 
L 351.210342 333.737113 
L 351.461087 332.363131 
L 351.711831 334.195107 
L 351.962575 333.279119 
L 352.464063 334.195107 
L 352.714807 332.821125 
L 353.216295 334.653458 
L 353.467039 333.737113 
L 353.717783 335.111452 
L 353.968527 334.653458 
L 354.219271 333.279119 
L 354.470016 334.653458 
L 354.72076 334.195107 
L 354.971504 334.195107 
L 355.222248 335.569446 
L 355.472992 335.111452 
L 355.723736 335.569446 
L 355.97448 335.111452 
L 356.225224 334.195107 
L 356.726712 335.111452 
L 356.977456 336.02744 
L 357.2282 335.111452 
L 357.478945 335.569446 
L 357.729689 335.569446 
L 357.980433 335.111452 
L 358.732665 336.485791 
L 358.983409 340.150458 
L 359.234153 351.144456 
L 359.484897 352.518796 
L 359.735641 351.60245 
L 359.986385 352.518796 
L 360.23713 352.97679 
L 360.487874 352.518796 
L 360.738618 352.97679 
L 360.989362 352.060444 
L 361.240106 346.563445 
L 361.741594 343.35713 
L 361.992338 341.066445 
L 362.243082 341.982791 
L 362.74457 344.273118 
L 362.995314 345.189463 
L 363.496803 348.854129 
L 363.747547 347.937784 
L 363.998291 354.351129 
L 364.249035 356.641456 
L 364.499779 356.183462 
L 364.750523 357.557444 
L 365.001267 358.015795 
L 365.252011 358.931783 
L 365.502755 358.473789 
L 365.753499 359.389777 
L 366.004243 358.931783 
L 366.254988 358.931783 
L 366.505732 360.764116 
L 366.756476 336.51048 
L 367.00722 336.052486 
L 367.508708 336.968474 
L 367.759452 336.51048 
L 368.010196 335.594135 
L 368.26094 336.968474 
L 368.511684 336.51048 
L 368.762428 336.968474 
L 369.013172 339.258801 
L 369.263917 338.800807 
L 369.514661 337.884819 
L 369.765405 330.555487 
L 370.016149 327.806808 
L 370.266893 331.929468 
L 370.517637 329.181148 
L 370.768381 329.181148 
L 371.019125 330.097135 
L 371.269869 332.38782 
L 371.520613 331.929468 
L 371.771357 339.717153 
L 372.022101 341.091134 
L 372.272846 338.800807 
L 372.52359 353.917466 
L 373.025078 362.621138 
L 373.275822 346.13014 
L 373.526566 342.923467 
L 373.77731 344.7558 
L 374.028054 342.007479 
L 374.529542 340.175146 
L 374.780286 340.175146 
L 375.031031 341.091134 
L 375.281775 346.588133 
L 375.532519 347.962473 
L 375.783263 362.163144 
L 376.034007 366.743798 
L 376.284751 369.034483 
L 376.535495 369.492477 
L 377.036983 372.240797 
L 377.287727 372.240797 
L 378.03996 373.615137 
L 378.290704 373.615137 
L 378.541448 374.073131 
L 378.792192 373.615137 
L 379.042936 371.782804 
L 379.29368 345.672146 
L 379.795168 343.381819 
L 379.795168 343.381819 
" clip-path="url(#p8588ed639a)" style="fill: none; stroke: #008000; stroke-width: 0.5; stroke-linecap: square"/>
   </g>
   <g id="line2d_30">
    <defs>
     <path id="m056f590f03" d="M 0 2 
C 0.530406 2 1.03916 1.789267 1.414214 1.414214 
C 1.789267 1.03916 2 0.530406 2 0 
C 2 -0.530406 1.789267 -1.03916 1.414214 -1.414214 
C 1.03916 -1.789267 0.530406 -2 0 -2 
C -0.530406 -2 -1.03916 -1.789267 -1.414214 -1.414214 
C -1.789267 -1.03916 -2 -0.530406 -2 0 
C -2 0.530406 -1.789267 1.03916 -1.414214 1.414214 
C -1.03916 1.789267 -0.530406 2 0 2 
z
" style="stroke: #006400"/>
    </defs>
    <g clip-path="url(#p8588ed639a)">
     <use xlink:href="#m056f590f03" x="84.418636" y="217.842131" style="fill: #006400; stroke: #006400"/>
     <use xlink:href="#m056f590f03" x="379.795168" y="343.381819" style="fill: #006400; stroke: #006400"/>
    </g>
   </g>
   <g id="line2d_31">
    <path d="M 401.108415 75.342359 
L 401.860648 101.911369 
L 402.111392 102.827356 
L 403.615856 137.641686 
L 404.618833 152.758703 
L 404.869577 154.591036 
L 405.120321 155.507024 
L 405.371065 155.04903 
L 405.621809 156.423369 
L 405.872553 155.04903 
L 406.123297 160.088035 
L 406.374041 160.546029 
L 406.624785 162.378362 
L 406.875529 165.585035 
L 407.126273 165.127041 
L 407.377017 168.791707 
L 408.379994 174.7467 
L 408.630738 173.830355 
L 408.881482 177.953373 
L 409.132226 177.953373 
L 409.38297 178.869361 
L 409.633714 180.701694 
L 409.884458 181.618039 
L 410.135202 183.908366 
L 410.385946 183.450372 
L 410.636691 184.36636 
L 410.887435 187.115039 
L 411.388923 189.863359 
L 411.639667 181.19511 
L 412.141155 180.279123 
L 412.391899 183.943789 
L 412.642643 184.859777 
L 412.893387 186.234116 
L 413.144131 185.318128 
L 413.896364 191.273122 
L 414.147108 190.356776 
L 414.397852 193.563449 
L 414.648596 194.021442 
L 414.89934 193.563449 
L 415.150084 195.395782 
L 415.400828 194.937788 
L 415.651572 196.312127 
L 415.902316 196.770121 
L 416.15306 196.770121 
L 416.403804 199.060448 
L 416.905293 200.892781 
L 417.156037 202.26712 
L 417.406781 200.434787 
L 417.657525 199.518442 
L 417.908269 203.64146 
L 418.159013 205.015799 
L 418.409757 204.099454 
L 418.911245 207.76412 
L 419.161989 208.222114 
L 419.412733 207.76412 
L 419.914222 210.512799 
L 420.164966 210.054447 
L 420.41571 210.054447 
L 420.666454 210.970792 
L 420.917198 211.428786 
L 421.167942 212.345132 
L 421.418686 213.719113 
L 421.920174 212.803125 
L 422.421663 208.222114 
L 422.672407 207.76412 
L 422.923151 209.596453 
L 423.173895 210.512799 
L 423.424639 210.970792 
L 423.675383 210.054447 
L 423.926127 209.596453 
L 424.176871 210.970792 
L 424.427615 210.512799 
L 424.929103 213.261119 
L 425.430592 213.261119 
L 425.681336 215.093452 
L 425.93208 214.635459 
L 426.182824 217.383779 
L 426.433568 217.383779 
L 426.684312 216.925786 
L 426.935056 219.216113 
L 427.1858 218.300125 
L 427.436544 218.300125 
L 427.687288 220.132458 
L 427.938032 218.758119 
L 428.188776 220.132458 
L 428.941009 220.132458 
L 429.191753 221.048446 
L 429.442497 221.048446 
L 429.693241 221.506797 
L 429.943985 220.132458 
L 430.194729 220.590452 
L 430.445473 222.880779 
L 430.696217 222.880779 
L 430.946961 221.048446 
L 431.197705 218.300125 
L 431.44845 218.300125 
L 431.699194 217.842131 
L 431.949938 217.842131 
L 432.451426 218.758119 
L 432.70217 219.674464 
L 432.952914 219.674464 
L 433.203658 220.590452 
L 433.95589 221.964791 
L 434.206634 222.880779 
L 434.457379 223.33913 
L 434.708123 224.713112 
L 434.958867 224.255118 
L 435.209611 225.171464 
L 435.460355 226.545445 
L 435.711099 226.545445 
L 435.961843 226.087451 
L 436.212587 227.461791 
L 436.463331 227.461791 
L 436.714075 228.83613 
L 436.964819 228.377778 
L 437.215564 227.003797 
L 437.717052 227.919784 
L 438.21854 229.752118 
L 438.469284 228.83613 
L 438.720028 228.377778 
L 438.970772 230.210111 
L 439.221516 229.752118 
L 439.47226 232.042445 
L 439.723004 231.126457 
L 440.224493 232.95879 
L 440.475237 232.500796 
L 440.976725 232.500796 
L 441.227469 234.791123 
L 441.478213 235.707111 
L 441.728957 233.874778 
L 441.979701 235.707111 
L 442.230445 234.333129 
L 442.481189 235.707111 
L 442.731933 236.165462 
L 442.982677 239.830129 
L 443.233422 240.746116 
L 443.484166 243.952789 
L 443.73491 244.868777 
L 444.236398 248.075449 
L 444.487142 247.617455 
L 444.737886 247.617455 
L 444.98863 250.824128 
L 445.490118 249.907782 
L 445.740862 251.740115 
L 445.991606 251.282121 
L 446.242351 259.985793 
L 446.493095 244.410783 
L 446.743839 396.494791 
L 446.994583 419.881817 
L 447.245327 423.546483 
L 447.496071 436.372815 
L 447.746815 438.663142 
L 447.997559 447.824808 
L 448.248303 450.573486 
L 448.499047 449.657141 
L 448.749791 444.160141 
L 449.000535 442.327808 
L 449.25128 438.205148 
L 449.502024 437.288803 
L 449.752768 438.205148 
L 450.003512 438.663142 
L 450.505 441.869815 
L 450.755744 442.785802 
L 451.006488 442.785802 
L 451.257232 445.076129 
L 451.507976 445.076129 
L 451.75872 446.908462 
L 452.009465 447.824808 
L 452.260209 447.366814 
L 452.510953 447.824808 
L 452.761697 449.199147 
L 453.012441 448.740795 
L 453.263185 448.740795 
L 453.513929 449.199147 
L 453.764673 448.740795 
L 454.015417 449.657141 
L 454.266161 451.03148 
L 454.767649 448.740795 
L 455.018394 448.282802 
L 455.269138 448.282802 
L 455.519882 449.657141 
L 455.770626 450.115135 
L 456.02137 449.657141 
L 456.272114 450.115135 
L 456.522858 446.908462 
L 456.773602 448.740795 
L 457.024346 449.199147 
L 457.27509 451.489474 
L 457.525834 450.573486 
L 457.776578 447.366814 
L 458.278067 449.657141 
L 458.779555 454.696146 
L 459.782531 459.735152 
L 460.033275 460.65114 
L 460.284019 443.702148 
L 460.284019 443.702148 
" clip-path="url(#p8588ed639a)" style="fill: none; stroke: #008000; stroke-width: 0.5; stroke-linecap: square"/>
   </g>
   <g id="line2d_32">
    <g clip-path="url(#p8588ed639a)">
     <use xlink:href="#m056f590f03" x="401.108415" y="75.342359" style="fill: #006400; stroke: #006400"/>
     <use xlink:href="#m056f590f03" x="460.284019" y="443.702148" style="fill: #006400; stroke: #006400"/>
    </g>
   </g>
   <g id="line2d_33">
    <path d="M 504.916466 346.683668 
L 505.16721 275.222676 
L 505.417955 281.540486 
L 505.668699 281.082134 
L 506.170187 240.312811 
L 506.420931 237.564133 
L 506.671675 236.648145 
L 507.173163 227.028485 
L 507.423907 228.860819 
L 507.674651 227.944473 
L 508.176139 225.196152 
L 508.677628 220.615141 
L 508.928372 219.699153 
L 509.680604 213.743802 
L 509.931348 214.660147 
L 510.182092 214.660147 
L 510.432836 212.827814 
L 510.68358 213.285808 
L 510.934324 214.202154 
L 511.185068 213.285808 
L 511.435813 214.202154 
L 511.686557 214.202154 
L 511.937301 213.743802 
L 512.188045 215.576135 
L 512.438789 216.49248 
L 512.940277 217.408468 
L 513.191021 218.324814 
L 513.441765 217.408468 
L 513.692509 218.782807 
L 513.943253 218.782807 
L 514.444742 219.699153 
L 514.695486 217.86682 
L 514.94623 218.324814 
L 515.196974 217.86682 
L 515.447718 219.699153 
L 515.698462 219.240801 
L 515.949206 220.157147 
L 516.19995 219.240801 
L 516.450694 220.157147 
L 516.952182 220.157147 
L 517.202927 219.699153 
L 517.453671 217.86682 
L 517.704415 219.240801 
L 517.955159 219.240801 
L 518.205903 218.782807 
L 518.456647 218.782807 
L 518.707391 217.86682 
L 519.208879 217.86682 
L 519.459623 218.782807 
L 519.961111 217.86682 
L 520.211856 217.86682 
L 520.4626 216.034487 
L 520.713344 216.49248 
L 520.964088 216.49248 
L 521.214832 212.36982 
L 521.465576 212.36982 
L 521.71632 211.453475 
L 521.967064 211.911469 
L 522.217808 213.285808 
L 522.468552 210.537487 
L 522.719296 211.453475 
L 523.220785 214.660147 
L 523.471529 213.743802 
L 523.722273 213.743802 
L 523.973017 215.576135 
L 524.223761 215.118141 
L 524.474505 215.576135 
L 524.725249 214.660147 
L 524.975993 213.285808 
L 525.477481 213.285808 
L 525.728225 213.743802 
L 525.978969 214.660147 
L 526.229714 213.743802 
L 526.480458 213.743802 
L 527.23269 215.118141 
L 527.483434 213.285808 
L 527.734178 213.743802 
L 527.984922 214.660147 
L 528.235666 211.911469 
L 528.48641 211.453475 
L 528.737154 211.911469 
L 528.987899 211.911469 
L 529.238643 212.36982 
L 529.489387 212.36982 
L 529.740131 212.827814 
L 529.990875 212.827814 
L 530.241619 211.911469 
L 530.492363 213.285808 
L 530.743107 213.743802 
L 530.993851 212.36982 
L 531.244595 212.36982 
L 531.495339 212.827814 
L 531.746083 211.453475 
L 531.996828 210.995481 
L 532.247572 212.36982 
L 532.498316 211.453475 
L 532.999804 210.537487 
L 533.250548 209.163148 
L 533.501292 208.705154 
L 533.752036 211.911469 
L 534.00278 211.911469 
L 534.253524 212.827814 
L 534.504268 212.36982 
L 534.755012 213.285808 
L 535.005757 213.285808 
L 535.256501 214.660147 
L 535.507245 214.660147 
L 535.757989 215.576135 
L 536.008733 214.660147 
L 536.259477 216.034487 
L 536.510221 216.034487 
L 537.011709 216.950474 
L 537.262453 216.034487 
L 537.513197 216.950474 
L 537.763941 216.49248 
L 538.014686 218.782807 
L 538.26543 218.324814 
L 538.516174 218.782807 
L 538.766918 219.699153 
L 539.017662 218.782807 
L 539.268406 220.157147 
L 539.51915 219.240801 
L 539.769894 219.240801 
L 540.020638 218.324814 
L 540.271382 218.324814 
L 540.522126 216.950474 
L 540.77287 218.782807 
L 541.023615 217.408468 
L 541.274359 219.240801 
L 541.525103 218.324814 
L 542.026591 218.324814 
L 542.277335 221.531486 
L 542.528079 219.240801 
L 542.778823 220.157147 
L 543.029567 221.531486 
L 543.280311 223.821813 
L 543.531055 221.98948 
L 543.7818 222.905468 
L 544.032544 221.98948 
L 544.534032 216.950474 
L 544.784776 215.118141 
L 545.03552 211.911469 
L 545.286264 210.995481 
L 545.537008 209.163148 
L 545.787752 209.621142 
L 546.038496 210.537487 
L 546.28924 210.537487 
L 546.539984 210.079136 
L 546.790729 210.537487 
L 547.041473 211.911469 
L 547.292217 212.36982 
L 547.542961 210.995481 
L 547.793705 208.705154 
L 548.044449 208.246802 
L 548.796681 205.498482 
L 549.047425 205.040488 
L 549.548913 205.040488 
L 549.799658 204.124142 
L 550.050402 204.582136 
L 550.301146 203.666149 
L 550.55189 203.208155 
L 550.802634 202.291809 
L 551.053378 202.291809 
L 551.304122 200.459476 
L 551.554866 203.208155 
L 551.80561 204.124142 
L 552.307098 204.124142 
L 552.808587 205.040488 
L 553.059331 204.582136 
L 553.310075 205.498482 
L 553.560819 205.956475 
L 553.811563 205.498482 
L 554.062307 206.414469 
L 554.313051 206.414469 
L 554.563795 206.872821 
L 554.814539 205.956475 
L 555.065283 208.705154 
L 555.316027 208.705154 
L 555.566771 210.537487 
L 555.817516 210.995481 
L 556.319004 213.285808 
L 556.569748 211.911469 
L 556.820492 212.827814 
L 557.071236 211.911469 
L 557.32198 209.163148 
L 557.572724 209.621142 
L 557.823468 206.414469 
L 558.074212 206.414469 
L 558.324956 207.788809 
L 558.826445 207.788809 
L 559.077189 206.872821 
L 559.327933 205.498482 
L 560.080165 192.67215 
L 560.832397 186.716799 
L 561.083141 183.052132 
L 561.333885 183.052132 
L 561.58463 183.968478 
L 561.835374 187.17515 
L 562.086118 187.633144 
L 562.336862 188.549132 
L 562.587606 188.091138 
L 563.089094 191.29781 
L 563.590582 193.588137 
L 563.841326 194.046489 
L 564.593559 197.710797 
L 564.844303 197.252804 
L 565.095047 198.169149 
L 565.345791 200.459476 
L 565.596535 199.543131 
L 566.098023 199.543131 
L 566.348767 200.001482 
L 566.599511 199.543131 
L 566.850255 200.91747 
L 567.351743 194.962477 
L 567.602488 194.046489 
L 567.853232 193.588137 
L 568.103976 191.755804 
L 568.35472 191.755804 
L 568.605464 190.839817 
L 568.856208 191.29781 
L 569.106952 192.213798 
L 569.357696 192.213798 
L 569.60844 193.130143 
L 569.859184 194.504483 
L 570.109928 194.962477 
L 570.360672 195.878822 
L 570.611417 195.878822 
L 570.862161 195.42047 
L 571.112905 194.504483 
L 571.363649 195.42047 
L 571.614393 197.710797 
L 571.865137 198.627143 
L 572.366625 196.79481 
L 572.617369 197.710797 
L 572.868113 196.79481 
L 573.118857 193.588137 
L 573.369601 194.046489 
L 573.620346 193.130143 
L 573.87109 191.29781 
L 574.121834 190.839817 
L 574.372578 190.839817 
L 574.623322 189.465477 
L 574.874066 190.839817 
L 575.12481 191.29781 
L 575.375554 193.130143 
L 575.877042 194.046489 
L 576.127786 194.962477 
L 576.378531 194.046489 
L 576.880019 197.252804 
L 577.130763 196.79481 
L 577.632251 199.085137 
L 577.882995 199.543131 
L 578.133739 199.085137 
L 578.384483 201.375822 
L 578.635227 200.459476 
L 578.885971 201.375822 
L 579.136715 201.375822 
L 579.38746 200.91747 
L 579.638204 200.001482 
L 579.888948 200.459476 
L 580.139692 200.001482 
L 580.390436 200.459476 
L 580.891924 199.543131 
L 581.142668 197.710797 
L 581.393412 197.710797 
L 581.644156 190.839817 
L 581.8949 192.213798 
L 582.145644 189.923471 
L 582.396389 189.923471 
L 582.647133 188.549132 
L 583.148621 192.213798 
L 583.399365 192.213798 
L 583.650109 194.046489 
L 583.900853 194.046489 
L 584.151597 194.504483 
L 584.903829 197.252804 
L 585.405318 200.459476 
L 585.656062 200.001482 
L 586.15755 201.833815 
L 586.408294 201.375822 
L 586.659038 199.085137 
L 586.909782 194.962477 
L 587.662014 178.471478 
L 587.912758 176.181151 
L 588.163502 176.639145 
L 588.414247 178.471478 
L 588.664991 179.387466 
L 589.918711 189.923471 
L 590.169455 190.839817 
L 590.420199 192.67215 
L 590.670943 193.588137 
L 590.921687 193.130143 
L 591.172432 194.962477 
L 591.423176 195.878822 
L 591.67392 196.336816 
L 591.924664 198.169149 
L 592.175408 198.169149 
L 592.426152 196.79481 
L 592.676896 198.627143 
L 592.92764 198.627143 
L 593.429128 197.710797 
L 593.930616 197.710797 
L 594.181361 198.627143 
L 594.432105 198.169149 
L 594.933593 200.001482 
L 595.184337 200.001482 
L 595.435081 202.749803 
L 595.685825 203.666149 
L 595.936569 201.833815 
L 596.187313 204.124142 
L 596.438057 204.124142 
L 596.688801 205.498482 
L 596.939545 205.498482 
L 597.19029 205.956475 
L 597.441034 205.956475 
L 597.691778 205.498482 
L 597.942522 205.498482 
L 598.193266 206.872821 
L 598.44401 207.330815 
L 598.945498 207.330815 
L 599.196242 207.788809 
L 599.446986 207.788809 
L 599.69773 209.621142 
L 599.948474 209.163148 
L 600.199219 209.163148 
L 600.449963 209.621142 
L 600.700707 208.705154 
L 600.951451 210.079136 
L 601.202195 210.537487 
L 601.703683 210.537487 
L 601.954427 210.995481 
L 602.205171 211.911469 
L 602.455915 211.453475 
L 602.706659 209.163148 
L 602.957403 209.621142 
L 603.208148 209.621142 
L 603.458892 208.246802 
L 603.709636 210.079136 
L 603.96038 210.079136 
L 604.211124 210.537487 
L 604.461868 209.163148 
L 604.712612 208.705154 
L 604.963356 207.788809 
L 605.2141 207.330815 
L 605.464844 207.330815 
L 605.715588 208.246802 
L 605.966333 207.788809 
L 606.217077 207.788809 
L 606.467821 208.705154 
L 606.718565 208.705154 
L 606.969309 209.621142 
L 607.721541 210.995481 
L 607.972285 210.537487 
L 608.223029 210.995481 
L 608.473773 211.911469 
L 608.724517 210.537487 
L 608.975262 211.911469 
L 609.226006 212.36982 
L 609.47675 213.285808 
L 609.727494 213.285808 
L 609.978238 213.743802 
L 610.228982 213.743802 
L 610.479726 214.202154 
L 610.73047 214.202154 
L 611.231958 213.285808 
L 611.482702 213.285808 
L 611.733446 212.36982 
L 611.984191 211.911469 
L 612.234935 210.079136 
L 612.485679 209.621142 
L 612.987167 207.788809 
L 613.237911 208.705154 
L 613.488655 208.705154 
L 613.739399 209.163148 
L 614.240887 209.163148 
L 614.491631 209.621142 
L 614.742375 209.621142 
L 615.243864 211.453475 
L 615.745352 212.36982 
L 615.996096 213.285808 
L 616.999072 215.118141 
L 617.249816 215.118141 
L 617.751304 216.034487 
L 618.002049 215.576135 
L 618.252793 216.034487 
L 618.503537 216.950474 
L 619.005025 216.950474 
L 619.255769 216.034487 
L 619.506513 218.324814 
L 619.757257 217.408468 
L 620.258745 210.995481 
L 620.760233 198.627143 
L 621.261722 191.29781 
L 621.512466 189.007483 
L 621.76321 189.923471 
L 622.013954 192.67215 
L 622.264698 193.588137 
L 622.515442 198.169149 
L 622.766186 197.710797 
L 623.267674 205.040488 
L 623.518418 207.330815 
L 623.769163 207.788809 
L 624.019907 210.537487 
L 624.270651 210.995481 
L 624.521395 212.36982 
L 624.772139 212.36982 
L 625.273627 214.202154 
L 626.276603 216.034487 
L 626.527347 215.118141 
L 626.778092 216.950474 
L 627.028836 216.950474 
L 627.27958 217.408468 
L 627.530324 218.782807 
L 627.781068 218.324814 
L 628.031812 218.324814 
L 628.282556 219.240801 
L 628.5333 216.49248 
L 628.784044 216.950474 
L 629.034788 217.86682 
L 629.285532 217.408468 
L 629.536276 217.408468 
L 629.787021 218.782807 
L 630.037765 218.324814 
L 630.288509 218.782807 
L 630.539253 222.905468 
L 631.040741 221.98948 
L 631.792973 217.408468 
L 632.294461 214.202154 
L 632.545205 213.285808 
L 633.046694 209.621142 
L 633.297438 208.705154 
L 633.548182 208.705154 
L 633.798926 208.246802 
L 634.300414 215.118141 
L 634.551158 227.028485 
L 634.551158 227.028485 
" clip-path="url(#p8588ed639a)" style="fill: none; stroke: #008000; stroke-width: 0.5; stroke-linecap: square"/>
   </g>
   <g id="line2d_34">
    <g clip-path="url(#p8588ed639a)">
     <use xlink:href="#m056f590f03" x="504.916466" y="346.683668" style="fill: #006400; stroke: #006400"/>
     <use xlink:href="#m056f590f03" x="634.551158" y="227.028485" style="fill: #006400; stroke: #006400"/>
    </g>
   </g>
   <g id="line2d_35">
    <path d="M 635.804879 202.291809 
L 636.306367 191.29781 
L 636.557111 193.130143 
L 636.807855 193.130143 
L 637.058599 191.755804 
L 637.309343 197.710797 
L 637.560087 200.001482 
L 637.810831 185.342817 
L 638.061575 190.839817 
L 638.312319 187.17515 
L 638.563064 153.734802 
L 638.813808 146.838775 
L 639.064552 145.464793 
L 639.56604 134.928788 
L 639.816784 137.677109 
L 640.067528 131.722116 
L 640.318272 128.515443 
L 640.569016 132.638461 
L 640.81976 132.638461 
L 641.321248 151.87778 
L 641.571993 153.710113 
L 641.822737 143.63246 
L 642.073481 140.883781 
L 642.324225 143.174108 
L 642.574969 146.838775 
L 642.825713 155.542446 
L 643.076457 173.865778 
L 643.577945 174.782123 
L 643.828689 174.32413 
L 644.079433 176.614457 
L 644.330177 176.614457 
L 644.580922 178.44679 
L 644.831666 177.988796 
L 645.08241 179.821129 
L 645.333154 180.737117 
L 645.583898 177.988796 
L 645.834642 177.07245 
L 646.085386 178.904783 
L 646.586874 158.291125 
L 646.837618 159.665464 
L 647.088362 158.749119 
L 647.339106 156.916786 
L 647.589851 156.916786 
L 648.091339 153.710113 
L 648.342083 154.168465 
L 648.592827 155.084453 
L 648.843571 154.626459 
L 649.094315 156.916786 
L 649.595803 158.749119 
L 649.846547 159.207113 
L 650.097291 161.039446 
L 650.348035 160.581452 
L 650.59878 160.581452 
L 650.849524 158.749119 
L 651.100268 150.045447 
L 651.351012 147.297126 
L 651.601756 153.25212 
L 651.8525 128.515443 
L 652.353988 166.536445 
L 652.604732 167.452791 
L 653.10622 161.039446 
L 653.356965 155.084453 
L 653.607709 152.336132 
L 654.359941 137.219115 
L 654.610685 134.928788 
L 654.861429 134.012443 
L 655.112173 134.012443 
L 655.613661 136.761121 
L 655.864405 137.219115 
L 656.365894 142.716115 
L 656.616638 143.63246 
L 656.867382 145.922787 
L 657.118126 146.838775 
L 657.619614 149.129459 
L 657.870358 149.587453 
L 658.121102 149.587453 
L 658.62259 146.380781 
L 658.873334 142.716115 
L 659.625567 136.761121 
L 659.876311 136.303127 
L 660.127055 136.303127 
L 660.628543 139.967794 
L 660.879287 140.883781 
L 661.130031 142.716115 
L 661.380775 142.716115 
L 661.631519 145.006441 
L 662.133007 145.006441 
L 662.383752 145.922787 
L 662.634496 145.922787 
L 662.88524 145.006441 
L 663.135984 146.838775 
L 663.386728 146.838775 
L 663.637472 147.297126 
L 663.888216 148.213114 
L 664.13896 148.671466 
L 664.640448 150.503799 
L 664.891192 152.336132 
L 665.141936 151.87778 
L 665.392681 152.794126 
L 665.643425 152.794126 
L 665.894169 153.25212 
L 666.144913 153.25212 
L 666.395657 154.626459 
L 666.646401 155.084453 
L 666.897145 154.626459 
L 667.147889 155.084453 
L 667.398633 156.000798 
L 667.649377 156.458792 
L 667.900121 156.000798 
L 668.150866 156.458792 
L 668.40161 157.37478 
L 668.652354 159.207113 
L 668.903098 158.749119 
L 669.153842 158.749119 
L 669.404586 160.123458 
L 669.65533 159.665464 
L 669.906074 159.665464 
L 670.156818 161.497798 
L 670.407562 160.123458 
L 670.658306 161.039446 
L 670.90905 160.581452 
L 671.159795 162.413785 
L 671.410539 162.871779 
L 671.661283 163.788125 
L 671.912027 165.162464 
L 672.162771 165.620458 
L 672.413515 161.039446 
L 672.915003 143.174108 
L 673.416491 123.018444 
L 673.917979 114.31513 
L 674.168724 115.689111 
L 674.670212 121.644462 
L 674.920956 127.599456 
L 675.422444 133.096455 
L 675.923932 138.135461 
L 676.174676 139.509442 
L 676.42542 141.800127 
L 676.676164 141.341775 
L 676.926908 144.548448 
L 677.428397 146.838775 
L 677.679141 147.75512 
L 677.929885 148.213114 
L 678.180629 151.87778 
L 678.431373 152.794126 
L 678.682117 150.961793 
L 679.183605 151.87778 
L 679.434349 150.503799 
L 679.685093 150.503799 
L 679.935837 150.961793 
L 680.186582 151.87778 
L 680.68807 151.87778 
L 680.938814 156.458792 
L 681.189558 154.626459 
L 681.440302 154.168465 
L 681.94179 156.458792 
L 682.192534 155.542446 
L 682.443278 156.458792 
L 682.944767 155.542446 
L 683.195511 156.916786 
L 683.446255 154.626459 
L 683.696999 163.788125 
L 684.449231 104.237119 
L 684.449231 104.237119 
" clip-path="url(#p8588ed639a)" style="fill: none; stroke: #008000; stroke-width: 0.5; stroke-linecap: square"/>
   </g>
   <g id="line2d_36">
    <g clip-path="url(#p8588ed639a)">
     <use xlink:href="#m056f590f03" x="635.804879" y="202.291809" style="fill: #006400; stroke: #006400"/>
     <use xlink:href="#m056f590f03" x="684.449231" y="104.237119" style="fill: #006400; stroke: #006400"/>
    </g>
   </g>
   <g id="line2d_37">
    <path d="M 707.016199 187.608455 
L 707.266943 187.608455 
L 707.517687 185.318128 
L 707.768431 191.273122 
L 708.019175 192.189109 
L 708.269919 214.177465 
L 708.520663 224.255118 
L 708.771407 239.830129 
L 709.022151 287.47079 
L 709.523639 305.336128 
L 710.275872 313.123454 
L 711.529592 329.156459 
L 711.780336 323.659459 
L 712.03108 322.743114 
L 712.281824 326.40778 
L 712.532568 327.324126 
L 712.783313 330.530798 
L 713.034057 331.446786 
L 713.786289 336.02744 
L 714.037033 335.111452 
L 714.287777 336.943785 
L 714.538521 336.943785 
L 714.789265 337.401779 
L 715.290753 340.150458 
L 715.541498 339.692464 
L 716.042986 340.608451 
L 716.29373 342.440785 
L 716.544474 341.524797 
L 717.045962 343.815124 
L 717.296706 344.273118 
L 717.54745 344.273118 
L 717.798194 346.563445 
L 718.048938 345.647457 
L 718.299682 345.189463 
L 718.550427 344.273118 
L 718.801171 344.731112 
L 719.051915 346.563445 
L 719.302659 345.189463 
L 719.804147 347.021796 
L 720.054891 347.47979 
L 720.305635 347.021796 
L 720.556379 348.395778 
L 720.807123 348.854129 
L 721.057867 349.770117 
L 721.308611 351.60245 
L 721.8101 352.518796 
L 722.060844 351.60245 
L 722.311588 352.518796 
L 723.06382 352.518796 
L 723.314564 353.434783 
L 723.565308 352.518796 
L 723.816052 352.97679 
L 724.066796 353.892777 
L 724.31754 353.434783 
L 724.568285 354.351129 
L 724.819029 352.97679 
L 725.320517 355.267117 
L 725.571261 355.267117 
L 725.822005 354.809123 
L 726.072749 354.809123 
L 726.323493 354.351129 
L 726.574237 354.351129 
L 726.824981 355.72511 
L 727.075725 355.267117 
L 727.326469 356.183462 
L 727.577214 355.72511 
L 727.827958 356.641456 
L 728.078702 357.09945 
L 728.329446 356.183462 
L 729.081678 357.557444 
L 729.332422 357.557444 
L 729.583166 358.473789 
L 729.83391 278.767119 
L 730.084654 261.359775 
L 730.335399 203.64146 
L 730.586143 173.865778 
L 730.836887 187.608455 
L 731.087631 172.033445 
L 731.338375 179.821129 
L 731.589119 182.56945 
L 731.839863 177.530444 
L 732.090607 184.401783 
L 732.341351 182.56945 
L 732.842839 168.368778 
L 733.344328 148.671466 
L 733.595072 142.716115 
L 734.09656 138.135461 
L 734.347304 139.051448 
L 734.598048 141.341775 
L 734.848792 145.006441 
L 735.099536 145.922787 
L 736.102512 154.626459 
L 736.353257 156.000798 
L 737.105489 162.413785 
L 737.356233 163.330131 
L 737.606977 164.704112 
L 737.857721 164.704112 
L 738.359209 166.536445 
L 738.609953 166.994797 
L 738.860697 167.910785 
L 739.111441 168.368778 
L 739.863674 162.413785 
L 740.114418 156.458792 
L 740.615906 140.425788 
L 741.117394 134.012443 
L 741.368138 133.554449 
L 741.869626 134.470794 
L 742.12037 133.096455 
L 742.621859 125.309129 
L 743.123347 118.43779 
L 743.374091 117.521444 
L 743.624835 118.43779 
L 743.875579 122.56045 
L 744.126323 123.018444 
L 744.627811 131.264122 
L 744.878555 133.554449 
L 745.1293 134.470794 
L 745.380044 136.761121 
L 745.881532 138.593454 
L 746.132276 139.051448 
L 746.38302 138.135461 
L 746.633764 139.967794 
L 746.884508 140.883781 
L 747.135252 141.341775 
L 747.385996 143.63246 
L 747.63674 144.090454 
L 747.887484 145.464793 
L 748.138229 148.213114 
L 748.639717 150.045447 
L 748.890461 150.045447 
L 749.141205 150.961793 
L 749.391949 151.419786 
L 749.642693 150.961793 
L 749.893437 152.794126 
L 750.144181 151.87778 
L 750.394925 151.87778 
L 750.896413 133.554449 
L 751.397902 106.527446 
L 751.89939 95.991798 
L 752.150134 95.075453 
L 752.400878 97.36578 
L 753.403854 117.521444 
L 753.905342 126.225116 
L 754.406831 129.431789 
L 754.657575 127.599456 
L 754.908319 126.68311 
L 755.159063 123.476795 
L 755.660551 122.56045 
L 755.911295 124.392783 
L 756.162039 125.309129 
L 756.412783 127.141462 
L 756.663527 126.225116 
L 757.41576 117.521444 
L 757.666504 113.856778 
L 757.917248 112.024445 
L 758.167992 112.482797 
L 758.418736 113.398784 
L 759.9232 128.973795 
L 761.427665 134.470794 
L 761.678409 134.470794 
L 761.929153 138.135461 
L 762.179897 138.593454 
L 762.93213 142.716115 
L 763.182874 142.258121 
L 763.935106 146.380781 
L 764.436594 147.297126 
L 764.687338 148.671466 
L 764.938082 148.671466 
L 765.188826 148.213114 
L 765.43957 149.129459 
L 765.690314 149.587453 
L 765.941059 149.129459 
L 766.191803 150.503799 
L 766.442547 149.587453 
L 766.693291 149.587453 
L 766.944035 150.961793 
L 767.194779 150.961793 
L 767.947011 154.626459 
L 768.197755 155.542446 
L 768.448499 156.000798 
L 768.699243 155.542446 
L 768.949988 156.458792 
L 769.200732 156.916786 
L 769.451476 156.916786 
L 769.952964 158.749119 
L 770.454452 159.665464 
L 770.705196 160.581452 
L 771.206684 160.581452 
L 771.457428 159.665464 
L 771.708172 159.665464 
L 771.958917 160.581452 
L 772.209661 160.581452 
L 772.460405 161.497798 
L 772.711149 161.497798 
L 772.961893 163.788125 
L 773.212637 162.871779 
L 773.964869 166.536445 
L 774.215613 166.994797 
L 774.466357 166.994797 
L 774.717101 167.452791 
L 774.967846 166.536445 
L 775.21859 169.743118 
L 775.469334 170.201112 
L 775.720078 170.201112 
L 775.970822 169.285124 
L 776.221566 168.82713 
L 776.723054 169.743118 
L 776.973798 168.82713 
L 777.224542 169.285124 
L 777.475286 168.82713 
L 777.726031 168.82713 
L 778.227519 171.117457 
L 778.478263 172.033445 
L 778.729007 171.117457 
L 779.481239 173.865778 
L 779.731983 173.865778 
L 779.982727 176.156463 
L 780.233471 176.156463 
L 780.484215 175.240117 
L 780.73496 177.530444 
L 780.985704 177.530444 
L 781.236448 178.44679 
L 781.487192 178.904783 
L 781.737936 179.821129 
L 781.98868 180.279123 
L 782.239424 180.279123 
L 782.991656 181.653462 
L 783.2424 181.19511 
L 783.493144 182.111456 
L 783.743889 181.19511 
L 783.994633 181.19511 
L 784.245377 181.653462 
L 784.496121 180.737117 
L 785.248353 182.111456 
L 785.749841 183.943789 
L 786.000585 183.027444 
L 786.251329 184.859777 
L 786.502073 184.401783 
L 787.003562 185.318128 
L 787.254306 186.234116 
L 787.50505 185.318128 
L 787.755794 182.56945 
L 788.006538 181.19511 
L 788.257282 181.19511 
L 788.75877 177.988796 
L 789.009514 178.44679 
L 789.260258 177.988796 
L 789.511002 177.07245 
L 790.263235 175.698111 
L 790.513979 175.698111 
L 790.764723 176.614457 
L 791.015467 176.156463 
L 791.266211 176.614457 
L 791.767699 174.782123 
L 792.269187 168.368778 
L 792.519932 166.994797 
L 792.770676 166.536445 
L 793.02142 166.536445 
L 793.272164 165.162464 
L 793.522908 166.994797 
L 793.773652 167.452791 
L 794.024396 169.743118 
L 794.27514 170.201112 
L 794.525884 172.491796 
L 794.776628 172.94979 
L 795.027372 175.240117 
L 795.278116 174.32413 
L 795.528861 175.698111 
L 795.779605 176.156463 
L 796.030349 177.988796 
L 796.281093 176.614457 
L 796.531837 177.07245 
L 796.782581 177.07245 
L 797.033325 176.156463 
L 797.284069 178.44679 
L 797.534813 177.988796 
L 797.785557 179.362777 
L 798.036301 178.904783 
L 798.287045 179.362777 
L 798.53779 180.279123 
L 798.788534 180.279123 
L 799.039278 178.904783 
L 799.540766 177.988796 
L 799.79151 177.07245 
L 800.042254 177.07245 
L 800.292998 177.988796 
L 800.794486 180.737117 
L 801.04523 180.737117 
L 801.295974 183.027444 
L 801.797463 182.111456 
L 802.048207 183.485795 
L 802.298951 183.943789 
L 802.549695 183.485795 
L 802.800439 184.859777 
L 803.051183 183.943789 
L 803.301927 183.943789 
L 803.552671 182.111456 
L 804.054159 176.614457 
L 804.555648 174.32413 
L 804.806392 174.782123 
L 805.057136 175.698111 
L 805.30788 177.07245 
L 805.558624 179.362777 
L 805.809368 178.904783 
L 806.060112 177.988796 
L 807.063088 166.536445 
L 807.313833 166.536445 
L 807.564577 164.246118 
L 807.815321 166.536445 
L 808.316809 166.536445 
L 808.567553 166.078452 
L 808.818297 164.704112 
L 809.069041 164.246118 
L 809.570529 160.123458 
L 809.821273 160.123458 
L 810.072017 159.207113 
L 810.322762 156.458792 
L 810.573506 158.749119 
L 810.82425 158.291125 
L 811.074994 158.291125 
L 811.576482 156.458792 
L 811.827226 153.25212 
L 812.328714 221.964791 
L 812.579458 224.713112 
L 812.830202 221.964791 
L 813.080946 228.377778 
L 813.331691 239.830129 
L 813.582435 241.662462 
L 813.833179 241.662462 
L 814.083923 259.069448 
L 814.334667 257.237115 
L 814.836155 243.494795 
L 815.086899 265.940787 
L 815.337643 266.856774 
L 815.588387 268.231114 
L 816.591364 294.800123 
L 816.591364 294.800123 
" clip-path="url(#p8588ed639a)" style="fill: none; stroke: #008000; stroke-width: 0.5; stroke-linecap: square"/>
   </g>
   <g id="line2d_38">
    <g clip-path="url(#p8588ed639a)">
     <use xlink:href="#m056f590f03" x="707.016199" y="187.608455" style="fill: #006400; stroke: #006400"/>
     <use xlink:href="#m056f590f03" x="816.591364" y="294.800123" style="fill: #006400; stroke: #006400"/>
    </g>
   </g>
   <g id="patch_3">
    <path d="M 47.81 534.04 
L 47.81 36.48525 
" style="fill: none; stroke: #000000; stroke-width: 0.8; stroke-linejoin: miter; stroke-linecap: square"/>
   </g>
   <g id="patch_4">
    <path d="M 853.2 534.04 
L 853.2 36.48525 
" style="fill: none; stroke: #000000; stroke-width: 0.8; stroke-linejoin: miter; stroke-linecap: square"/>
   </g>
   <g id="patch_5">
    <path d="M 47.81 534.04 
L 853.2 534.04 
" style="fill: none; stroke: #000000; stroke-width: 0.8; stroke-linejoin: miter; stroke-linecap: square"/>
   </g>
   <g id="patch_6">
    <path d="M 47.81 36.48525 
L 853.2 36.48525 
" style="fill: none; stroke: #000000; stroke-width: 0.8; stroke-linejoin: miter; stroke-linecap: square"/>
   </g>
   <g id="text_17">
    <!-- EDA Filtering: data_40_E4 -->
    <g transform="translate(386.219063 19.009312) scale(0.1 -0.1)">
     <defs>
      <path id="DejaVuSans-46" d="M 628 4666 
L 3309 4666 
L 3309 4134 
L 1259 4134 
L 1259 2759 
L 3109 2759 
L 3109 2228 
L 1259 2228 
L 1259 0 
L 628 0 
L 628 4666 
z
" transform="scale(0.015625)"/>
      <path id="DejaVuSans-6c" d="M 603 4863 
L 1178 4863 
L 1178 0 
L 603 0 
L 603 4863 
z
" transform="scale(0.015625)"/>
      <path id="DejaVuSans-72" d="M 2631 2963 
Q 2534 3019 2420 3045 
Q 2306 3072 2169 3072 
Q 1681 3072 1420 2755 
Q 1159 2438 1159 1844 
L 1159 0 
L 581 0 
L 581 3500 
L 1159 3500 
L 1159 2956 
Q 1341 3275 1631 3429 
Q 1922 3584 2338 3584 
Q 2397 3584 2469 3576 
Q 2541 3569 2628 3553 
L 2631 2963 
z
" transform="scale(0.015625)"/>
      <path id="DejaVuSans-67" d="M 2906 1791 
Q 2906 2416 2648 2759 
Q 2391 3103 1925 3103 
Q 1463 3103 1205 2759 
Q 947 2416 947 1791 
Q 947 1169 1205 825 
Q 1463 481 1925 481 
Q 2391 481 2648 825 
Q 2906 1169 2906 1791 
z
M 3481 434 
Q 3481 -459 3084 -895 
Q 2688 -1331 1869 -1331 
Q 1566 -1331 1297 -1286 
Q 1028 -1241 775 -1147 
L 775 -588 
Q 1028 -725 1275 -790 
Q 1522 -856 1778 -856 
Q 2344 -856 2625 -561 
Q 2906 -266 2906 331 
L 2906 616 
Q 2728 306 2450 153 
Q 2172 0 1784 0 
Q 1141 0 747 490 
Q 353 981 353 1791 
Q 353 2603 747 3093 
Q 1141 3584 1784 3584 
Q 2172 3584 2450 3431 
Q 2728 3278 2906 2969 
L 2906 3500 
L 3481 3500 
L 3481 434 
z
" transform="scale(0.015625)"/>
      <path id="DejaVuSans-3a" d="M 750 794 
L 1409 794 
L 1409 0 
L 750 0 
L 750 794 
z
M 750 3309 
L 1409 3309 
L 1409 2516 
L 750 2516 
L 750 3309 
z
" transform="scale(0.015625)"/>
      <path id="DejaVuSans-64" d="M 2906 2969 
L 2906 4863 
L 3481 4863 
L 3481 0 
L 2906 0 
L 2906 525 
Q 2725 213 2448 61 
Q 2172 -91 1784 -91 
Q 1150 -91 751 415 
Q 353 922 353 1747 
Q 353 2572 751 3078 
Q 1150 3584 1784 3584 
Q 2172 3584 2448 3432 
Q 2725 3281 2906 2969 
z
M 947 1747 
Q 947 1113 1208 752 
Q 1469 391 1925 391 
Q 2381 391 2643 752 
Q 2906 1113 2906 1747 
Q 2906 2381 2643 2742 
Q 2381 3103 1925 3103 
Q 1469 3103 1208 2742 
Q 947 2381 947 1747 
z
" transform="scale(0.015625)"/>
      <path id="DejaVuSans-61" d="M 2194 1759 
Q 1497 1759 1228 1600 
Q 959 1441 959 1056 
Q 959 750 1161 570 
Q 1363 391 1709 391 
Q 2188 391 2477 730 
Q 2766 1069 2766 1631 
L 2766 1759 
L 2194 1759 
z
M 3341 1997 
L 3341 0 
L 2766 0 
L 2766 531 
Q 2569 213 2275 61 
Q 1981 -91 1556 -91 
Q 1019 -91 701 211 
Q 384 513 384 1019 
Q 384 1609 779 1909 
Q 1175 2209 1959 2209 
L 2766 2209 
L 2766 2266 
Q 2766 2663 2505 2880 
Q 2244 3097 1772 3097 
Q 1472 3097 1187 3025 
Q 903 2953 641 2809 
L 641 3341 
Q 956 3463 1253 3523 
Q 1550 3584 1831 3584 
Q 2591 3584 2966 3190 
Q 3341 2797 3341 1997 
z
" transform="scale(0.015625)"/>
      <path id="DejaVuSans-5f" d="M 3263 -1063 
L 3263 -1509 
L -63 -1509 
L -63 -1063 
L 3263 -1063 
z
" transform="scale(0.015625)"/>
     </defs>
     <use xlink:href="#DejaVuSans-45"/>
     <use xlink:href="#DejaVuSans-44" transform="translate(63.183594 0)"/>
     <use xlink:href="#DejaVuSans-41" transform="translate(138.435547 0)"/>
     <use xlink:href="#DejaVuSans-20" transform="translate(206.84375 0)"/>
     <use xlink:href="#DejaVuSans-46" transform="translate(238.630859 0)"/>
     <use xlink:href="#DejaVuSans-69" transform="translate(288.900391 0)"/>
     <use xlink:href="#DejaVuSans-6c" transform="translate(316.683594 0)"/>
     <use xlink:href="#DejaVuSans-74" transform="translate(344.466797 0)"/>
     <use xlink:href="#DejaVuSans-65" transform="translate(383.675781 0)"/>
     <use xlink:href="#DejaVuSans-72" transform="translate(445.199219 0)"/>
     <use xlink:href="#DejaVuSans-69" transform="translate(486.3125 0)"/>
     <use xlink:href="#DejaVuSans-6e" transform="translate(514.095703 0)"/>
     <use xlink:href="#DejaVuSans-67" transform="translate(577.474609 0)"/>
     <use xlink:href="#DejaVuSans-3a" transform="translate(640.951172 0)"/>
     <use xlink:href="#DejaVuSans-20" transform="translate(674.642578 0)"/>
     <use xlink:href="#DejaVuSans-64" transform="translate(706.429688 0)"/>
     <use xlink:href="#DejaVuSans-61" transform="translate(769.90625 0)"/>
     <use xlink:href="#DejaVuSans-74" transform="translate(831.185547 0)"/>
     <use xlink:href="#DejaVuSans-61" transform="translate(870.394531 0)"/>
     <use xlink:href="#DejaVuSans-5f" transform="translate(931.673828 0)"/>
     <use xlink:href="#DejaVuSans-34" transform="translate(981.673828 0)"/>
     <use xlink:href="#DejaVuSans-30" transform="translate(1045.296875 0)"/>
     <use xlink:href="#DejaVuSans-5f" transform="translate(1108.919922 0)"/>
     <use xlink:href="#DejaVuSans-45" transform="translate(1158.919922 0)"/>
     <use xlink:href="#DejaVuSans-34" transform="translate(1222.103516 0)"/>
    </g>
    <!-- Window=33, Threshold=0.15 -->
    <g transform="translate(377.101875 30.48525) scale(0.1 -0.1)">
     <defs>
      <path id="DejaVuSans-57" d="M 213 4666 
L 850 4666 
L 1831 722 
L 2809 4666 
L 3519 4666 
L 4500 722 
L 5478 4666 
L 6119 4666 
L 4947 0 
L 4153 0 
L 3169 4050 
L 2175 0 
L 1381 0 
L 213 4666 
z
" transform="scale(0.015625)"/>
      <path id="DejaVuSans-6f" d="M 1959 3097 
Q 1497 3097 1228 2736 
Q 959 2375 959 1747 
Q 959 1119 1226 758 
Q 1494 397 1959 397 
Q 2419 397 2687 759 
Q 2956 1122 2956 1747 
Q 2956 2369 2687 2733 
Q 2419 3097 1959 3097 
z
M 1959 3584 
Q 2709 3584 3137 3096 
Q 3566 2609 3566 1747 
Q 3566 888 3137 398 
Q 2709 -91 1959 -91 
Q 1206 -91 779 398 
Q 353 888 353 1747 
Q 353 2609 779 3096 
Q 1206 3584 1959 3584 
z
" transform="scale(0.015625)"/>
      <path id="DejaVuSans-77" d="M 269 3500 
L 844 3500 
L 1563 769 
L 2278 3500 
L 2956 3500 
L 3675 769 
L 4391 3500 
L 4966 3500 
L 4050 0 
L 3372 0 
L 2619 2869 
L 1863 0 
L 1184 0 
L 269 3500 
z
" transform="scale(0.015625)"/>
      <path id="DejaVuSans-3d" d="M 678 2906 
L 4684 2906 
L 4684 2381 
L 678 2381 
L 678 2906 
z
M 678 1631 
L 4684 1631 
L 4684 1100 
L 678 1100 
L 678 1631 
z
" transform="scale(0.015625)"/>
      <path id="DejaVuSans-33" d="M 2597 2516 
Q 3050 2419 3304 2112 
Q 3559 1806 3559 1356 
Q 3559 666 3084 287 
Q 2609 -91 1734 -91 
Q 1441 -91 1130 -33 
Q 819 25 488 141 
L 488 750 
Q 750 597 1062 519 
Q 1375 441 1716 441 
Q 2309 441 2620 675 
Q 2931 909 2931 1356 
Q 2931 1769 2642 2001 
Q 2353 2234 1838 2234 
L 1294 2234 
L 1294 2753 
L 1863 2753 
Q 2328 2753 2575 2939 
Q 2822 3125 2822 3475 
Q 2822 3834 2567 4026 
Q 2313 4219 1838 4219 
Q 1578 4219 1281 4162 
Q 984 4106 628 3988 
L 628 4550 
Q 988 4650 1302 4700 
Q 1616 4750 1894 4750 
Q 2613 4750 3031 4423 
Q 3450 4097 3450 3541 
Q 3450 3153 3228 2886 
Q 3006 2619 2597 2516 
z
" transform="scale(0.015625)"/>
      <path id="DejaVuSans-2c" d="M 750 794 
L 1409 794 
L 1409 256 
L 897 -744 
L 494 -744 
L 750 256 
L 750 794 
z
" transform="scale(0.015625)"/>
      <path id="DejaVuSans-68" d="M 3513 2113 
L 3513 0 
L 2938 0 
L 2938 2094 
Q 2938 2591 2744 2837 
Q 2550 3084 2163 3084 
Q 1697 3084 1428 2787 
Q 1159 2491 1159 1978 
L 1159 0 
L 581 0 
L 581 4863 
L 1159 4863 
L 1159 2956 
Q 1366 3272 1645 3428 
Q 1925 3584 2291 3584 
Q 2894 3584 3203 3211 
Q 3513 2838 3513 2113 
z
" transform="scale(0.015625)"/>
      <path id="DejaVuSans-35" d="M 691 4666 
L 3169 4666 
L 3169 4134 
L 1269 4134 
L 1269 2991 
Q 1406 3038 1543 3061 
Q 1681 3084 1819 3084 
Q 2600 3084 3056 2656 
Q 3513 2228 3513 1497 
Q 3513 744 3044 326 
Q 2575 -91 1722 -91 
Q 1428 -91 1123 -41 
Q 819 9 494 109 
L 494 744 
Q 775 591 1075 516 
Q 1375 441 1709 441 
Q 2250 441 2565 725 
Q 2881 1009 2881 1497 
Q 2881 1984 2565 2268 
Q 2250 2553 1709 2553 
Q 1456 2553 1204 2497 
Q 953 2441 691 2322 
L 691 4666 
z
" transform="scale(0.015625)"/>
     </defs>
     <use xlink:href="#DejaVuSans-57"/>
     <use xlink:href="#DejaVuSans-69" transform="translate(96.626953 0)"/>
     <use xlink:href="#DejaVuSans-6e" transform="translate(124.410156 0)"/>
     <use xlink:href="#DejaVuSans-64" transform="translate(187.789062 0)"/>
     <use xlink:href="#DejaVuSans-6f" transform="translate(251.265625 0)"/>
     <use xlink:href="#DejaVuSans-77" transform="translate(312.447266 0)"/>
     <use xlink:href="#DejaVuSans-3d" transform="translate(394.234375 0)"/>
     <use xlink:href="#DejaVuSans-33" transform="translate(478.023438 0)"/>
     <use xlink:href="#DejaVuSans-33" transform="translate(541.646484 0)"/>
     <use xlink:href="#DejaVuSans-2c" transform="translate(605.269531 0)"/>
     <use xlink:href="#DejaVuSans-20" transform="translate(637.056641 0)"/>
     <use xlink:href="#DejaVuSans-54" transform="translate(668.84375 0)"/>
     <use xlink:href="#DejaVuSans-68" transform="translate(729.927734 0)"/>
     <use xlink:href="#DejaVuSans-72" transform="translate(793.306641 0)"/>
     <use xlink:href="#DejaVuSans-65" transform="translate(832.169922 0)"/>
     <use xlink:href="#DejaVuSans-73" transform="translate(893.693359 0)"/>
     <use xlink:href="#DejaVuSans-68" transform="translate(945.792969 0)"/>
     <use xlink:href="#DejaVuSans-6f" transform="translate(1009.171875 0)"/>
     <use xlink:href="#DejaVuSans-6c" transform="translate(1070.353516 0)"/>
     <use xlink:href="#DejaVuSans-64" transform="translate(1098.136719 0)"/>
     <use xlink:href="#DejaVuSans-3d" transform="translate(1161.613281 0)"/>
     <use xlink:href="#DejaVuSans-30" transform="translate(1245.402344 0)"/>
     <use xlink:href="#DejaVuSans-2e" transform="translate(1309.025391 0)"/>
     <use xlink:href="#DejaVuSans-31" transform="translate(1340.8125 0)"/>
     <use xlink:href="#DejaVuSans-35" transform="translate(1404.435547 0)"/>
    </g>
   </g>
   <g id="legend_1">
    <g id="patch_7">
     <path d="M 752.80625 73.8415 
L 846.2 73.8415 
Q 848.2 73.8415 848.2 71.8415 
L 848.2 43.48525 
Q 848.2 41.48525 846.2 41.48525 
L 752.80625 41.48525 
Q 750.80625 41.48525 750.80625 43.48525 
L 750.80625 71.8415 
Q 750.80625 73.8415 752.80625 73.8415 
z
" style="fill: #ffffff; opacity: 0.8; stroke: #cccccc; stroke-linejoin: miter"/>
    </g>
    <g id="line2d_39">
     <path d="M 754.80625 49.583687 
L 764.80625 49.583687 
L 774.80625 49.583687 
" style="fill: none; stroke: #008000; stroke-width: 0.5; stroke-linecap: square"/>
    </g>
    <g id="text_18">
     <!-- Valid (≥20s) -->
     <g transform="translate(782.80625 53.083687) scale(0.1 -0.1)">
      <defs>
       <path id="DejaVuSans-56" d="M 1831 0 
L 50 4666 
L 709 4666 
L 2188 738 
L 3669 4666 
L 4325 4666 
L 2547 0 
L 1831 0 
z
" transform="scale(0.015625)"/>
       <path id="DejaVuSans-2265" d="M 678 3175 
L 678 3725 
L 4684 2578 
L 4684 2047 
L 678 897 
L 678 1453 
L 3681 2309 
L 678 3175 
z
M 4684 531 
L 4684 0 
L 678 0 
L 678 531 
L 4684 531 
z
" transform="scale(0.015625)"/>
      </defs>
      <use xlink:href="#DejaVuSans-56"/>
      <use xlink:href="#DejaVuSans-61" transform="translate(60.658203 0)"/>
      <use xlink:href="#DejaVuSans-6c" transform="translate(121.9375 0)"/>
      <use xlink:href="#DejaVuSans-69" transform="translate(149.720703 0)"/>
      <use xlink:href="#DejaVuSans-64" transform="translate(177.503906 0)"/>
      <use xlink:href="#DejaVuSans-20" transform="translate(240.980469 0)"/>
      <use xlink:href="#DejaVuSans-28" transform="translate(272.767578 0)"/>
      <use xlink:href="#DejaVuSans-2265" transform="translate(311.78125 0)"/>
      <use xlink:href="#DejaVuSans-32" transform="translate(395.570312 0)"/>
      <use xlink:href="#DejaVuSans-30" transform="translate(459.193359 0)"/>
      <use xlink:href="#DejaVuSans-73" transform="translate(522.816406 0)"/>
      <use xlink:href="#DejaVuSans-29" transform="translate(574.916016 0)"/>
     </g>
    </g>
    <g id="line2d_40">
     <g>
      <use xlink:href="#m056f590f03" x="764.80625" y="64.261813" style="fill: #006400; stroke: #006400"/>
     </g>
    </g>
    <g id="text_19">
     <!-- Endpoints -->
     <g transform="translate(782.80625 67.761813) scale(0.1 -0.1)">
      <defs>
       <path id="DejaVuSans-70" d="M 1159 525 
L 1159 -1331 
L 581 -1331 
L 581 3500 
L 1159 3500 
L 1159 2969 
Q 1341 3281 1617 3432 
Q 1894 3584 2278 3584 
Q 2916 3584 3314 3078 
Q 3713 2572 3713 1747 
Q 3713 922 3314 415 
Q 2916 -91 2278 -91 
Q 1894 -91 1617 61 
Q 1341 213 1159 525 
z
M 3116 1747 
Q 3116 2381 2855 2742 
Q 2594 3103 2138 3103 
Q 1681 3103 1420 2742 
Q 1159 2381 1159 1747 
Q 1159 1113 1420 752 
Q 1681 391 2138 391 
Q 2594 391 2855 752 
Q 3116 1113 3116 1747 
z
" transform="scale(0.015625)"/>
      </defs>
      <use xlink:href="#DejaVuSans-45"/>
      <use xlink:href="#DejaVuSans-6e" transform="translate(63.183594 0)"/>
      <use xlink:href="#DejaVuSans-64" transform="translate(126.5625 0)"/>
      <use xlink:href="#DejaVuSans-70" transform="translate(190.039062 0)"/>
      <use xlink:href="#DejaVuSans-6f" transform="translate(253.515625 0)"/>
      <use xlink:href="#DejaVuSans-69" transform="translate(314.697266 0)"/>
      <use xlink:href="#DejaVuSans-6e" transform="translate(342.480469 0)"/>
      <use xlink:href="#DejaVuSans-74" transform="translate(405.859375 0)"/>
      <use xlink:href="#DejaVuSans-73" transform="translate(445.068359 0)"/>
     </g>
    </g>
   </g>
  </g>
 </g>
 <defs>
  <clipPath id="p8588ed639a">
   <rect x="47.81" y="36.48525" width="805.39" height="497.55475"/>
  </clipPath>
 </defs>
</svg>
