<?xml version="1.0" encoding="utf-8" standalone="no"?>
<!DOCTYPE svg PUBLIC "-//W3C//DTD SVG 1.1//EN"
  "http://www.w3.org/Graphics/SVG/1.1/DTD/svg11.dtd">
<svg xmlns:xlink="http://www.w3.org/1999/xlink" width="864pt" height="576pt" viewBox="0 0 864 576" xmlns="http://www.w3.org/2000/svg" version="1.1">
 <metadata>
  <rdf:RDF xmlns:dc="http://purl.org/dc/elements/1.1/" xmlns:cc="http://creativecommons.org/ns#" xmlns:rdf="http://www.w3.org/1999/02/22-rdf-syntax-ns#">
   <cc:Work>
    <dc:type rdf:resource="http://purl.org/dc/dcmitype/StillImage"/>
    <dc:date>2025-10-16T13:33:35.098114</dc:date>
    <dc:format>image/svg+xml</dc:format>
    <dc:creator>
     <cc:Agent>
      <dc:title>Matplotlib v3.10.0, https://matplotlib.org/</dc:title>
     </cc:Agent>
    </dc:creator>
   </cc:Work>
  </rdf:RDF>
 </metadata>
 <defs>
  <style type="text/css">*{stroke-linejoin: round; stroke-linecap: butt}</style>
 </defs>
 <g id="figure_1">
  <g id="patch_1">
   <path d="M 0 576 
L 864 576 
L 864 0 
L 0 0 
z
" style="fill: #ffffff"/>
  </g>
  <g id="axes_1">
   <g id="patch_2">
    <path d="M 54.2 534.04 
L 853.2 534.04 
L 853.2 36.48525 
L 54.2 36.48525 
z
" style="fill: #ffffff"/>
   </g>
   <g id="matplotlib.axis_1">
    <g id="xtick_1">
     <g id="line2d_1">
      <path d="M 90.518182 534.04 
L 90.518182 36.48525 
" clip-path="url(#pfea863d3ba)" style="fill: none; stroke: #b0b0b0; stroke-opacity: 0.3; stroke-width: 0.8; stroke-linecap: square"/>
     </g>
     <g id="line2d_2">
      <defs>
       <path id="mcfe14d1c3a" d="M 0 0 
L 0 3.5 
" style="stroke: #000000; stroke-width: 0.8"/>
      </defs>
      <g>
       <use xlink:href="#mcfe14d1c3a" x="90.518182" y="534.04" style="stroke: #000000; stroke-width: 0.8"/>
      </g>
     </g>
     <g id="text_1">
      <!-- 0 -->
      <g transform="translate(87.336932 548.638438) scale(0.1 -0.1)">
       <defs>
        <path id="DejaVuSans-30" d="M 2034 4250 
Q 1547 4250 1301 3770 
Q 1056 3291 1056 2328 
Q 1056 1369 1301 889 
Q 1547 409 2034 409 
Q 2525 409 2770 889 
Q 3016 1369 3016 2328 
Q 3016 3291 2770 3770 
Q 2525 4250 2034 4250 
z
M 2034 4750 
Q 2819 4750 3233 4129 
Q 3647 3509 3647 2328 
Q 3647 1150 3233 529 
Q 2819 -91 2034 -91 
Q 1250 -91 836 529 
Q 422 1150 422 2328 
Q 422 3509 836 4129 
Q 1250 4750 2034 4750 
z
" transform="scale(0.015625)"/>
       </defs>
       <use xlink:href="#DejaVuSans-30"/>
      </g>
     </g>
    </g>
    <g id="xtick_2">
     <g id="line2d_3">
      <path d="M 189.231767 534.04 
L 189.231767 36.48525 
" clip-path="url(#pfea863d3ba)" style="fill: none; stroke: #b0b0b0; stroke-opacity: 0.3; stroke-width: 0.8; stroke-linecap: square"/>
     </g>
     <g id="line2d_4">
      <g>
       <use xlink:href="#mcfe14d1c3a" x="189.231767" y="534.04" style="stroke: #000000; stroke-width: 0.8"/>
      </g>
     </g>
     <g id="text_2">
      <!-- 2 -->
      <g transform="translate(186.050517 548.638438) scale(0.1 -0.1)">
       <defs>
        <path id="DejaVuSans-32" d="M 1228 531 
L 3431 531 
L 3431 0 
L 469 0 
L 469 531 
Q 828 903 1448 1529 
Q 2069 2156 2228 2338 
Q 2531 2678 2651 2914 
Q 2772 3150 2772 3378 
Q 2772 3750 2511 3984 
Q 2250 4219 1831 4219 
Q 1534 4219 1204 4116 
Q 875 4013 500 3803 
L 500 4441 
Q 881 4594 1212 4672 
Q 1544 4750 1819 4750 
Q 2544 4750 2975 4387 
Q 3406 4025 3406 3419 
Q 3406 3131 3298 2873 
Q 3191 2616 2906 2266 
Q 2828 2175 2409 1742 
Q 1991 1309 1228 531 
z
" transform="scale(0.015625)"/>
       </defs>
       <use xlink:href="#DejaVuSans-32"/>
      </g>
     </g>
    </g>
    <g id="xtick_3">
     <g id="line2d_5">
      <path d="M 287.945353 534.04 
L 287.945353 36.48525 
" clip-path="url(#pfea863d3ba)" style="fill: none; stroke: #b0b0b0; stroke-opacity: 0.3; stroke-width: 0.8; stroke-linecap: square"/>
     </g>
     <g id="line2d_6">
      <g>
       <use xlink:href="#mcfe14d1c3a" x="287.945353" y="534.04" style="stroke: #000000; stroke-width: 0.8"/>
      </g>
     </g>
     <g id="text_3">
      <!-- 4 -->
      <g transform="translate(284.764103 548.638438) scale(0.1 -0.1)">
       <defs>
        <path id="DejaVuSans-34" d="M 2419 4116 
L 825 1625 
L 2419 1625 
L 2419 4116 
z
M 2253 4666 
L 3047 4666 
L 3047 1625 
L 3713 1625 
L 3713 1100 
L 3047 1100 
L 3047 0 
L 2419 0 
L 2419 1100 
L 313 1100 
L 313 1709 
L 2253 4666 
z
" transform="scale(0.015625)"/>
       </defs>
       <use xlink:href="#DejaVuSans-34"/>
      </g>
     </g>
    </g>
    <g id="xtick_4">
     <g id="line2d_7">
      <path d="M 386.658938 534.04 
L 386.658938 36.48525 
" clip-path="url(#pfea863d3ba)" style="fill: none; stroke: #b0b0b0; stroke-opacity: 0.3; stroke-width: 0.8; stroke-linecap: square"/>
     </g>
     <g id="line2d_8">
      <g>
       <use xlink:href="#mcfe14d1c3a" x="386.658938" y="534.04" style="stroke: #000000; stroke-width: 0.8"/>
      </g>
     </g>
     <g id="text_4">
      <!-- 6 -->
      <g transform="translate(383.477688 548.638438) scale(0.1 -0.1)">
       <defs>
        <path id="DejaVuSans-36" d="M 2113 2584 
Q 1688 2584 1439 2293 
Q 1191 2003 1191 1497 
Q 1191 994 1439 701 
Q 1688 409 2113 409 
Q 2538 409 2786 701 
Q 3034 994 3034 1497 
Q 3034 2003 2786 2293 
Q 2538 2584 2113 2584 
z
M 3366 4563 
L 3366 3988 
Q 3128 4100 2886 4159 
Q 2644 4219 2406 4219 
Q 1781 4219 1451 3797 
Q 1122 3375 1075 2522 
Q 1259 2794 1537 2939 
Q 1816 3084 2150 3084 
Q 2853 3084 3261 2657 
Q 3669 2231 3669 1497 
Q 3669 778 3244 343 
Q 2819 -91 2113 -91 
Q 1303 -91 875 529 
Q 447 1150 447 2328 
Q 447 3434 972 4092 
Q 1497 4750 2381 4750 
Q 2619 4750 2861 4703 
Q 3103 4656 3366 4563 
z
" transform="scale(0.015625)"/>
       </defs>
       <use xlink:href="#DejaVuSans-36"/>
      </g>
     </g>
    </g>
    <g id="xtick_5">
     <g id="line2d_9">
      <path d="M 485.372523 534.04 
L 485.372523 36.48525 
" clip-path="url(#pfea863d3ba)" style="fill: none; stroke: #b0b0b0; stroke-opacity: 0.3; stroke-width: 0.8; stroke-linecap: square"/>
     </g>
     <g id="line2d_10">
      <g>
       <use xlink:href="#mcfe14d1c3a" x="485.372523" y="534.04" style="stroke: #000000; stroke-width: 0.8"/>
      </g>
     </g>
     <g id="text_5">
      <!-- 8 -->
      <g transform="translate(482.191273 548.638438) scale(0.1 -0.1)">
       <defs>
        <path id="DejaVuSans-38" d="M 2034 2216 
Q 1584 2216 1326 1975 
Q 1069 1734 1069 1313 
Q 1069 891 1326 650 
Q 1584 409 2034 409 
Q 2484 409 2743 651 
Q 3003 894 3003 1313 
Q 3003 1734 2745 1975 
Q 2488 2216 2034 2216 
z
M 1403 2484 
Q 997 2584 770 2862 
Q 544 3141 544 3541 
Q 544 4100 942 4425 
Q 1341 4750 2034 4750 
Q 2731 4750 3128 4425 
Q 3525 4100 3525 3541 
Q 3525 3141 3298 2862 
Q 3072 2584 2669 2484 
Q 3125 2378 3379 2068 
Q 3634 1759 3634 1313 
Q 3634 634 3220 271 
Q 2806 -91 2034 -91 
Q 1263 -91 848 271 
Q 434 634 434 1313 
Q 434 1759 690 2068 
Q 947 2378 1403 2484 
z
M 1172 3481 
Q 1172 3119 1398 2916 
Q 1625 2713 2034 2713 
Q 2441 2713 2670 2916 
Q 2900 3119 2900 3481 
Q 2900 3844 2670 4047 
Q 2441 4250 2034 4250 
Q 1625 4250 1398 4047 
Q 1172 3844 1172 3481 
z
" transform="scale(0.015625)"/>
       </defs>
       <use xlink:href="#DejaVuSans-38"/>
      </g>
     </g>
    </g>
    <g id="xtick_6">
     <g id="line2d_11">
      <path d="M 584.086109 534.04 
L 584.086109 36.48525 
" clip-path="url(#pfea863d3ba)" style="fill: none; stroke: #b0b0b0; stroke-opacity: 0.3; stroke-width: 0.8; stroke-linecap: square"/>
     </g>
     <g id="line2d_12">
      <g>
       <use xlink:href="#mcfe14d1c3a" x="584.086109" y="534.04" style="stroke: #000000; stroke-width: 0.8"/>
      </g>
     </g>
     <g id="text_6">
      <!-- 10 -->
      <g transform="translate(577.723609 548.638438) scale(0.1 -0.1)">
       <defs>
        <path id="DejaVuSans-31" d="M 794 531 
L 1825 531 
L 1825 4091 
L 703 3866 
L 703 4441 
L 1819 4666 
L 2450 4666 
L 2450 531 
L 3481 531 
L 3481 0 
L 794 0 
L 794 531 
z
" transform="scale(0.015625)"/>
       </defs>
       <use xlink:href="#DejaVuSans-31"/>
       <use xlink:href="#DejaVuSans-30" transform="translate(63.623047 0)"/>
      </g>
     </g>
    </g>
    <g id="xtick_7">
     <g id="line2d_13">
      <path d="M 682.799694 534.04 
L 682.799694 36.48525 
" clip-path="url(#pfea863d3ba)" style="fill: none; stroke: #b0b0b0; stroke-opacity: 0.3; stroke-width: 0.8; stroke-linecap: square"/>
     </g>
     <g id="line2d_14">
      <g>
       <use xlink:href="#mcfe14d1c3a" x="682.799694" y="534.04" style="stroke: #000000; stroke-width: 0.8"/>
      </g>
     </g>
     <g id="text_7">
      <!-- 12 -->
      <g transform="translate(676.437194 548.638438) scale(0.1 -0.1)">
       <use xlink:href="#DejaVuSans-31"/>
       <use xlink:href="#DejaVuSans-32" transform="translate(63.623047 0)"/>
      </g>
     </g>
    </g>
    <g id="xtick_8">
     <g id="line2d_15">
      <path d="M 781.51328 534.04 
L 781.51328 36.48525 
" clip-path="url(#pfea863d3ba)" style="fill: none; stroke: #b0b0b0; stroke-opacity: 0.3; stroke-width: 0.8; stroke-linecap: square"/>
     </g>
     <g id="line2d_16">
      <g>
       <use xlink:href="#mcfe14d1c3a" x="781.51328" y="534.04" style="stroke: #000000; stroke-width: 0.8"/>
      </g>
     </g>
     <g id="text_8">
      <!-- 14 -->
      <g transform="translate(775.15078 548.638438) scale(0.1 -0.1)">
       <use xlink:href="#DejaVuSans-31"/>
       <use xlink:href="#DejaVuSans-34" transform="translate(63.623047 0)"/>
      </g>
     </g>
    </g>
    <g id="text_9">
     <!-- Time (minutes) -->
     <g transform="translate(415.7375 562.316562) scale(0.1 -0.1)">
      <defs>
       <path id="DejaVuSans-54" d="M -19 4666 
L 3928 4666 
L 3928 4134 
L 2272 4134 
L 2272 0 
L 1638 0 
L 1638 4134 
L -19 4134 
L -19 4666 
z
" transform="scale(0.015625)"/>
       <path id="DejaVuSans-69" d="M 603 3500 
L 1178 3500 
L 1178 0 
L 603 0 
L 603 3500 
z
M 603 4863 
L 1178 4863 
L 1178 4134 
L 603 4134 
L 603 4863 
z
" transform="scale(0.015625)"/>
       <path id="DejaVuSans-6d" d="M 3328 2828 
Q 3544 3216 3844 3400 
Q 4144 3584 4550 3584 
Q 5097 3584 5394 3201 
Q 5691 2819 5691 2113 
L 5691 0 
L 5113 0 
L 5113 2094 
Q 5113 2597 4934 2840 
Q 4756 3084 4391 3084 
Q 3944 3084 3684 2787 
Q 3425 2491 3425 1978 
L 3425 0 
L 2847 0 
L 2847 2094 
Q 2847 2600 2669 2842 
Q 2491 3084 2119 3084 
Q 1678 3084 1418 2786 
Q 1159 2488 1159 1978 
L 1159 0 
L 581 0 
L 581 3500 
L 1159 3500 
L 1159 2956 
Q 1356 3278 1631 3431 
Q 1906 3584 2284 3584 
Q 2666 3584 2933 3390 
Q 3200 3197 3328 2828 
z
" transform="scale(0.015625)"/>
       <path id="DejaVuSans-65" d="M 3597 1894 
L 3597 1613 
L 953 1613 
Q 991 1019 1311 708 
Q 1631 397 2203 397 
Q 2534 397 2845 478 
Q 3156 559 3463 722 
L 3463 178 
Q 3153 47 2828 -22 
Q 2503 -91 2169 -91 
Q 1331 -91 842 396 
Q 353 884 353 1716 
Q 353 2575 817 3079 
Q 1281 3584 2069 3584 
Q 2775 3584 3186 3129 
Q 3597 2675 3597 1894 
z
M 3022 2063 
Q 3016 2534 2758 2815 
Q 2500 3097 2075 3097 
Q 1594 3097 1305 2825 
Q 1016 2553 972 2059 
L 3022 2063 
z
" transform="scale(0.015625)"/>
       <path id="DejaVuSans-20" transform="scale(0.015625)"/>
       <path id="DejaVuSans-28" d="M 1984 4856 
Q 1566 4138 1362 3434 
Q 1159 2731 1159 2009 
Q 1159 1288 1364 580 
Q 1569 -128 1984 -844 
L 1484 -844 
Q 1016 -109 783 600 
Q 550 1309 550 2009 
Q 550 2706 781 3412 
Q 1013 4119 1484 4856 
L 1984 4856 
z
" transform="scale(0.015625)"/>
       <path id="DejaVuSans-6e" d="M 3513 2113 
L 3513 0 
L 2938 0 
L 2938 2094 
Q 2938 2591 2744 2837 
Q 2550 3084 2163 3084 
Q 1697 3084 1428 2787 
Q 1159 2491 1159 1978 
L 1159 0 
L 581 0 
L 581 3500 
L 1159 3500 
L 1159 2956 
Q 1366 3272 1645 3428 
Q 1925 3584 2291 3584 
Q 2894 3584 3203 3211 
Q 3513 2838 3513 2113 
z
" transform="scale(0.015625)"/>
       <path id="DejaVuSans-75" d="M 544 1381 
L 544 3500 
L 1119 3500 
L 1119 1403 
Q 1119 906 1312 657 
Q 1506 409 1894 409 
Q 2359 409 2629 706 
Q 2900 1003 2900 1516 
L 2900 3500 
L 3475 3500 
L 3475 0 
L 2900 0 
L 2900 538 
Q 2691 219 2414 64 
Q 2138 -91 1772 -91 
Q 1169 -91 856 284 
Q 544 659 544 1381 
z
M 1991 3584 
L 1991 3584 
z
" transform="scale(0.015625)"/>
       <path id="DejaVuSans-74" d="M 1172 4494 
L 1172 3500 
L 2356 3500 
L 2356 3053 
L 1172 3053 
L 1172 1153 
Q 1172 725 1289 603 
Q 1406 481 1766 481 
L 2356 481 
L 2356 0 
L 1766 0 
Q 1100 0 847 248 
Q 594 497 594 1153 
L 594 3053 
L 172 3053 
L 172 3500 
L 594 3500 
L 594 4494 
L 1172 4494 
z
" transform="scale(0.015625)"/>
       <path id="DejaVuSans-73" d="M 2834 3397 
L 2834 2853 
Q 2591 2978 2328 3040 
Q 2066 3103 1784 3103 
Q 1356 3103 1142 2972 
Q 928 2841 928 2578 
Q 928 2378 1081 2264 
Q 1234 2150 1697 2047 
L 1894 2003 
Q 2506 1872 2764 1633 
Q 3022 1394 3022 966 
Q 3022 478 2636 193 
Q 2250 -91 1575 -91 
Q 1294 -91 989 -36 
Q 684 19 347 128 
L 347 722 
Q 666 556 975 473 
Q 1284 391 1588 391 
Q 1994 391 2212 530 
Q 2431 669 2431 922 
Q 2431 1156 2273 1281 
Q 2116 1406 1581 1522 
L 1381 1569 
Q 847 1681 609 1914 
Q 372 2147 372 2553 
Q 372 3047 722 3315 
Q 1072 3584 1716 3584 
Q 2034 3584 2315 3537 
Q 2597 3491 2834 3397 
z
" transform="scale(0.015625)"/>
       <path id="DejaVuSans-29" d="M 513 4856 
L 1013 4856 
Q 1481 4119 1714 3412 
Q 1947 2706 1947 2009 
Q 1947 1309 1714 600 
Q 1481 -109 1013 -844 
L 513 -844 
Q 928 -128 1133 580 
Q 1338 1288 1338 2009 
Q 1338 2731 1133 3434 
Q 928 4138 513 4856 
z
" transform="scale(0.015625)"/>
      </defs>
      <use xlink:href="#DejaVuSans-54"/>
      <use xlink:href="#DejaVuSans-69" transform="translate(57.958984 0)"/>
      <use xlink:href="#DejaVuSans-6d" transform="translate(85.742188 0)"/>
      <use xlink:href="#DejaVuSans-65" transform="translate(183.154297 0)"/>
      <use xlink:href="#DejaVuSans-20" transform="translate(244.677734 0)"/>
      <use xlink:href="#DejaVuSans-28" transform="translate(276.464844 0)"/>
      <use xlink:href="#DejaVuSans-6d" transform="translate(315.478516 0)"/>
      <use xlink:href="#DejaVuSans-69" transform="translate(412.890625 0)"/>
      <use xlink:href="#DejaVuSans-6e" transform="translate(440.673828 0)"/>
      <use xlink:href="#DejaVuSans-75" transform="translate(504.052734 0)"/>
      <use xlink:href="#DejaVuSans-74" transform="translate(567.431641 0)"/>
      <use xlink:href="#DejaVuSans-65" transform="translate(606.640625 0)"/>
      <use xlink:href="#DejaVuSans-73" transform="translate(668.164062 0)"/>
      <use xlink:href="#DejaVuSans-29" transform="translate(720.263672 0)"/>
     </g>
    </g>
   </g>
   <g id="matplotlib.axis_2">
    <g id="ytick_1">
     <g id="line2d_17">
      <path d="M 54.2 534.04 
L 853.2 534.04 
" clip-path="url(#pfea863d3ba)" style="fill: none; stroke: #b0b0b0; stroke-opacity: 0.3; stroke-width: 0.8; stroke-linecap: square"/>
     </g>
     <g id="line2d_18">
      <defs>
       <path id="mf2ab8ac206" d="M 0 0 
L -3.5 0 
" style="stroke: #000000; stroke-width: 0.8"/>
      </defs>
      <g>
       <use xlink:href="#mf2ab8ac206" x="54.2" y="534.04" style="stroke: #000000; stroke-width: 0.8"/>
      </g>
     </g>
     <g id="text_10">
      <!-- 0.00 -->
      <g transform="translate(24.934375 537.839219) scale(0.1 -0.1)">
       <defs>
        <path id="DejaVuSans-2e" d="M 684 794 
L 1344 794 
L 1344 0 
L 684 0 
L 684 794 
z
" transform="scale(0.015625)"/>
       </defs>
       <use xlink:href="#DejaVuSans-30"/>
       <use xlink:href="#DejaVuSans-2e" transform="translate(63.623047 0)"/>
       <use xlink:href="#DejaVuSans-30" transform="translate(95.410156 0)"/>
       <use xlink:href="#DejaVuSans-30" transform="translate(159.033203 0)"/>
      </g>
     </g>
    </g>
    <g id="ytick_2">
     <g id="line2d_19">
      <path d="M 54.2 477.093295 
L 853.2 477.093295 
" clip-path="url(#pfea863d3ba)" style="fill: none; stroke: #b0b0b0; stroke-opacity: 0.3; stroke-width: 0.8; stroke-linecap: square"/>
     </g>
     <g id="line2d_20">
      <g>
       <use xlink:href="#mf2ab8ac206" x="54.2" y="477.093295" style="stroke: #000000; stroke-width: 0.8"/>
      </g>
     </g>
     <g id="text_11">
      <!-- 0.05 -->
      <g transform="translate(24.934375 480.892514) scale(0.1 -0.1)">
       <defs>
        <path id="DejaVuSans-35" d="M 691 4666 
L 3169 4666 
L 3169 4134 
L 1269 4134 
L 1269 2991 
Q 1406 3038 1543 3061 
Q 1681 3084 1819 3084 
Q 2600 3084 3056 2656 
Q 3513 2228 3513 1497 
Q 3513 744 3044 326 
Q 2575 -91 1722 -91 
Q 1428 -91 1123 -41 
Q 819 9 494 109 
L 494 744 
Q 775 591 1075 516 
Q 1375 441 1709 441 
Q 2250 441 2565 725 
Q 2881 1009 2881 1497 
Q 2881 1984 2565 2268 
Q 2250 2553 1709 2553 
Q 1456 2553 1204 2497 
Q 953 2441 691 2322 
L 691 4666 
z
" transform="scale(0.015625)"/>
       </defs>
       <use xlink:href="#DejaVuSans-30"/>
       <use xlink:href="#DejaVuSans-2e" transform="translate(63.623047 0)"/>
       <use xlink:href="#DejaVuSans-30" transform="translate(95.410156 0)"/>
       <use xlink:href="#DejaVuSans-35" transform="translate(159.033203 0)"/>
      </g>
     </g>
    </g>
    <g id="ytick_3">
     <g id="line2d_21">
      <path d="M 54.2 420.14659 
L 853.2 420.14659 
" clip-path="url(#pfea863d3ba)" style="fill: none; stroke: #b0b0b0; stroke-opacity: 0.3; stroke-width: 0.8; stroke-linecap: square"/>
     </g>
     <g id="line2d_22">
      <g>
       <use xlink:href="#mf2ab8ac206" x="54.2" y="420.14659" style="stroke: #000000; stroke-width: 0.8"/>
      </g>
     </g>
     <g id="text_12">
      <!-- 0.10 -->
      <g transform="translate(24.934375 423.945809) scale(0.1 -0.1)">
       <use xlink:href="#DejaVuSans-30"/>
       <use xlink:href="#DejaVuSans-2e" transform="translate(63.623047 0)"/>
       <use xlink:href="#DejaVuSans-31" transform="translate(95.410156 0)"/>
       <use xlink:href="#DejaVuSans-30" transform="translate(159.033203 0)"/>
      </g>
     </g>
    </g>
    <g id="ytick_4">
     <g id="line2d_23">
      <path d="M 54.2 363.199885 
L 853.2 363.199885 
" clip-path="url(#pfea863d3ba)" style="fill: none; stroke: #b0b0b0; stroke-opacity: 0.3; stroke-width: 0.8; stroke-linecap: square"/>
     </g>
     <g id="line2d_24">
      <g>
       <use xlink:href="#mf2ab8ac206" x="54.2" y="363.199885" style="stroke: #000000; stroke-width: 0.8"/>
      </g>
     </g>
     <g id="text_13">
      <!-- 0.15 -->
      <g transform="translate(24.934375 366.999104) scale(0.1 -0.1)">
       <use xlink:href="#DejaVuSans-30"/>
       <use xlink:href="#DejaVuSans-2e" transform="translate(63.623047 0)"/>
       <use xlink:href="#DejaVuSans-31" transform="translate(95.410156 0)"/>
       <use xlink:href="#DejaVuSans-35" transform="translate(159.033203 0)"/>
      </g>
     </g>
    </g>
    <g id="ytick_5">
     <g id="line2d_25">
      <path d="M 54.2 306.25318 
L 853.2 306.25318 
" clip-path="url(#pfea863d3ba)" style="fill: none; stroke: #b0b0b0; stroke-opacity: 0.3; stroke-width: 0.8; stroke-linecap: square"/>
     </g>
     <g id="line2d_26">
      <g>
       <use xlink:href="#mf2ab8ac206" x="54.2" y="306.25318" style="stroke: #000000; stroke-width: 0.8"/>
      </g>
     </g>
     <g id="text_14">
      <!-- 0.20 -->
      <g transform="translate(24.934375 310.052399) scale(0.1 -0.1)">
       <use xlink:href="#DejaVuSans-30"/>
       <use xlink:href="#DejaVuSans-2e" transform="translate(63.623047 0)"/>
       <use xlink:href="#DejaVuSans-32" transform="translate(95.410156 0)"/>
       <use xlink:href="#DejaVuSans-30" transform="translate(159.033203 0)"/>
      </g>
     </g>
    </g>
    <g id="ytick_6">
     <g id="line2d_27">
      <path d="M 54.2 249.306476 
L 853.2 249.306476 
" clip-path="url(#pfea863d3ba)" style="fill: none; stroke: #b0b0b0; stroke-opacity: 0.3; stroke-width: 0.8; stroke-linecap: square"/>
     </g>
     <g id="line2d_28">
      <g>
       <use xlink:href="#mf2ab8ac206" x="54.2" y="249.306476" style="stroke: #000000; stroke-width: 0.8"/>
      </g>
     </g>
     <g id="text_15">
      <!-- 0.25 -->
      <g transform="translate(24.934375 253.105694) scale(0.1 -0.1)">
       <use xlink:href="#DejaVuSans-30"/>
       <use xlink:href="#DejaVuSans-2e" transform="translate(63.623047 0)"/>
       <use xlink:href="#DejaVuSans-32" transform="translate(95.410156 0)"/>
       <use xlink:href="#DejaVuSans-35" transform="translate(159.033203 0)"/>
      </g>
     </g>
    </g>
    <g id="ytick_7">
     <g id="line2d_29">
      <path d="M 54.2 192.359771 
L 853.2 192.359771 
" clip-path="url(#pfea863d3ba)" style="fill: none; stroke: #b0b0b0; stroke-opacity: 0.3; stroke-width: 0.8; stroke-linecap: square"/>
     </g>
     <g id="line2d_30">
      <g>
       <use xlink:href="#mf2ab8ac206" x="54.2" y="192.359771" style="stroke: #000000; stroke-width: 0.8"/>
      </g>
     </g>
     <g id="text_16">
      <!-- 0.30 -->
      <g transform="translate(24.934375 196.158989) scale(0.1 -0.1)">
       <defs>
        <path id="DejaVuSans-33" d="M 2597 2516 
Q 3050 2419 3304 2112 
Q 3559 1806 3559 1356 
Q 3559 666 3084 287 
Q 2609 -91 1734 -91 
Q 1441 -91 1130 -33 
Q 819 25 488 141 
L 488 750 
Q 750 597 1062 519 
Q 1375 441 1716 441 
Q 2309 441 2620 675 
Q 2931 909 2931 1356 
Q 2931 1769 2642 2001 
Q 2353 2234 1838 2234 
L 1294 2234 
L 1294 2753 
L 1863 2753 
Q 2328 2753 2575 2939 
Q 2822 3125 2822 3475 
Q 2822 3834 2567 4026 
Q 2313 4219 1838 4219 
Q 1578 4219 1281 4162 
Q 984 4106 628 3988 
L 628 4550 
Q 988 4650 1302 4700 
Q 1616 4750 1894 4750 
Q 2613 4750 3031 4423 
Q 3450 4097 3450 3541 
Q 3450 3153 3228 2886 
Q 3006 2619 2597 2516 
z
" transform="scale(0.015625)"/>
       </defs>
       <use xlink:href="#DejaVuSans-30"/>
       <use xlink:href="#DejaVuSans-2e" transform="translate(63.623047 0)"/>
       <use xlink:href="#DejaVuSans-33" transform="translate(95.410156 0)"/>
       <use xlink:href="#DejaVuSans-30" transform="translate(159.033203 0)"/>
      </g>
     </g>
    </g>
    <g id="ytick_8">
     <g id="line2d_31">
      <path d="M 54.2 135.413066 
L 853.2 135.413066 
" clip-path="url(#pfea863d3ba)" style="fill: none; stroke: #b0b0b0; stroke-opacity: 0.3; stroke-width: 0.8; stroke-linecap: square"/>
     </g>
     <g id="line2d_32">
      <g>
       <use xlink:href="#mf2ab8ac206" x="54.2" y="135.413066" style="stroke: #000000; stroke-width: 0.8"/>
      </g>
     </g>
     <g id="text_17">
      <!-- 0.35 -->
      <g transform="translate(24.934375 139.212284) scale(0.1 -0.1)">
       <use xlink:href="#DejaVuSans-30"/>
       <use xlink:href="#DejaVuSans-2e" transform="translate(63.623047 0)"/>
       <use xlink:href="#DejaVuSans-33" transform="translate(95.410156 0)"/>
       <use xlink:href="#DejaVuSans-35" transform="translate(159.033203 0)"/>
      </g>
     </g>
    </g>
    <g id="ytick_9">
     <g id="line2d_33">
      <path d="M 54.2 78.466361 
L 853.2 78.466361 
" clip-path="url(#pfea863d3ba)" style="fill: none; stroke: #b0b0b0; stroke-opacity: 0.3; stroke-width: 0.8; stroke-linecap: square"/>
     </g>
     <g id="line2d_34">
      <g>
       <use xlink:href="#mf2ab8ac206" x="54.2" y="78.466361" style="stroke: #000000; stroke-width: 0.8"/>
      </g>
     </g>
     <g id="text_18">
      <!-- 0.40 -->
      <g transform="translate(24.934375 82.26558) scale(0.1 -0.1)">
       <use xlink:href="#DejaVuSans-30"/>
       <use xlink:href="#DejaVuSans-2e" transform="translate(63.623047 0)"/>
       <use xlink:href="#DejaVuSans-34" transform="translate(95.410156 0)"/>
       <use xlink:href="#DejaVuSans-30" transform="translate(159.033203 0)"/>
      </g>
     </g>
    </g>
    <g id="text_19">
     <!-- EDA (μS) -->
     <g transform="translate(18.854688 307.450906) rotate(-90) scale(0.1 -0.1)">
      <defs>
       <path id="DejaVuSans-45" d="M 628 4666 
L 3578 4666 
L 3578 4134 
L 1259 4134 
L 1259 2753 
L 3481 2753 
L 3481 2222 
L 1259 2222 
L 1259 531 
L 3634 531 
L 3634 0 
L 628 0 
L 628 4666 
z
" transform="scale(0.015625)"/>
       <path id="DejaVuSans-44" d="M 1259 4147 
L 1259 519 
L 2022 519 
Q 2988 519 3436 956 
Q 3884 1394 3884 2338 
Q 3884 3275 3436 3711 
Q 2988 4147 2022 4147 
L 1259 4147 
z
M 628 4666 
L 1925 4666 
Q 3281 4666 3915 4102 
Q 4550 3538 4550 2338 
Q 4550 1131 3912 565 
Q 3275 0 1925 0 
L 628 0 
L 628 4666 
z
" transform="scale(0.015625)"/>
       <path id="DejaVuSans-41" d="M 2188 4044 
L 1331 1722 
L 3047 1722 
L 2188 4044 
z
M 1831 4666 
L 2547 4666 
L 4325 0 
L 3669 0 
L 3244 1197 
L 1141 1197 
L 716 0 
L 50 0 
L 1831 4666 
z
" transform="scale(0.015625)"/>
       <path id="DejaVuSans-3bc" d="M 544 -1331 
L 544 3500 
L 1119 3500 
L 1119 1325 
Q 1119 872 1334 640 
Q 1550 409 1972 409 
Q 2434 409 2667 671 
Q 2900 934 2900 1459 
L 2900 3500 
L 3475 3500 
L 3475 806 
Q 3475 619 3529 530 
Q 3584 441 3700 441 
Q 3728 441 3778 458 
Q 3828 475 3916 513 
L 3916 50 
Q 3788 -22 3673 -56 
Q 3559 -91 3450 -91 
Q 3234 -91 3106 31 
Q 2978 153 2931 403 
Q 2775 156 2548 32 
Q 2322 -91 2016 -91 
Q 1697 -91 1473 31 
Q 1250 153 1119 397 
L 1119 -1331 
L 544 -1331 
z
" transform="scale(0.015625)"/>
       <path id="DejaVuSans-53" d="M 3425 4513 
L 3425 3897 
Q 3066 4069 2747 4153 
Q 2428 4238 2131 4238 
Q 1616 4238 1336 4038 
Q 1056 3838 1056 3469 
Q 1056 3159 1242 3001 
Q 1428 2844 1947 2747 
L 2328 2669 
Q 3034 2534 3370 2195 
Q 3706 1856 3706 1288 
Q 3706 609 3251 259 
Q 2797 -91 1919 -91 
Q 1588 -91 1214 -16 
Q 841 59 441 206 
L 441 856 
Q 825 641 1194 531 
Q 1563 422 1919 422 
Q 2459 422 2753 634 
Q 3047 847 3047 1241 
Q 3047 1584 2836 1778 
Q 2625 1972 2144 2069 
L 1759 2144 
Q 1053 2284 737 2584 
Q 422 2884 422 3419 
Q 422 4038 858 4394 
Q 1294 4750 2059 4750 
Q 2388 4750 2728 4690 
Q 3069 4631 3425 4513 
z
" transform="scale(0.015625)"/>
      </defs>
      <use xlink:href="#DejaVuSans-45"/>
      <use xlink:href="#DejaVuSans-44" transform="translate(63.183594 0)"/>
      <use xlink:href="#DejaVuSans-41" transform="translate(138.435547 0)"/>
      <use xlink:href="#DejaVuSans-20" transform="translate(206.84375 0)"/>
      <use xlink:href="#DejaVuSans-28" transform="translate(238.630859 0)"/>
      <use xlink:href="#DejaVuSans-3bc" transform="translate(277.644531 0)"/>
      <use xlink:href="#DejaVuSans-53" transform="translate(341.267578 0)"/>
      <use xlink:href="#DejaVuSans-29" transform="translate(404.744141 0)"/>
     </g>
    </g>
   </g>
   <g id="line2d_35">
    <path d="M 90.518182 273.052113 
L 90.723892 274.509948 
L 90.929603 274.509948 
L 91.341024 271.594277 
L 91.546734 273.052113 
L 91.752445 271.594277 
L 91.958155 271.594277 
L 92.163866 292.006254 
L 92.369576 292.006254 
L 92.575286 286.173772 
L 92.780997 286.173772 
L 93.192418 283.258101 
L 93.398128 283.258101 
L 93.603839 284.715937 
L 94.01526 280.34243 
L 94.22097 281.800265 
L 94.632391 278.883455 
L 95.043812 278.883455 
L 95.249522 277.425619 
L 95.455233 278.883455 
L 95.660943 277.425619 
L 95.866654 277.425619 
L 96.072364 274.509948 
L 96.483785 274.509948 
L 96.689496 273.052113 
L 96.895206 274.509948 
L 97.100917 274.509948 
L 97.512337 271.594277 
L 98.129469 271.594277 
L 98.335179 270.135302 
L 98.54089 271.594277 
L 98.7466 271.594277 
L 98.952311 268.677467 
L 99.158021 270.135302 
L 100.186573 270.135302 
L 100.597994 267.219631 
L 100.803705 268.677467 
L 101.009415 265.761795 
L 101.215126 267.219631 
L 101.420836 267.219631 
L 101.626547 265.761795 
L 102.037968 265.761795 
L 102.243678 267.219631 
L 102.449389 265.761795 
L 102.655099 265.761795 
L 102.860809 267.219631 
L 103.27223 264.30396 
L 103.477941 265.761795 
L 103.683651 265.761795 
L 104.095072 262.844985 
L 104.300783 262.844985 
L 104.506493 265.761795 
L 104.712204 264.30396 
L 105.740756 264.30396 
L 105.946466 265.761795 
L 106.152177 265.761795 
L 106.357887 262.844985 
L 106.563598 265.761795 
L 106.769308 265.761795 
L 106.975019 264.30396 
L 107.180729 265.761795 
L 107.38644 265.761795 
L 107.59215 262.844985 
L 107.797861 264.30396 
L 108.003571 264.30396 
L 108.209281 265.761795 
L 108.414992 264.30396 
L 108.620702 264.30396 
L 108.826413 265.761795 
L 109.237834 262.844985 
L 109.443544 265.761795 
L 109.649255 264.30396 
L 109.854965 265.761795 
L 110.060676 264.30396 
L 110.266386 265.761795 
L 110.472096 264.30396 
L 110.677807 267.219631 
L 110.883517 267.219631 
L 111.089228 265.761795 
L 111.294938 268.677467 
L 111.500649 264.30396 
L 111.706359 267.219631 
L 111.91207 267.219631 
L 112.11778 265.761795 
L 112.323491 265.761795 
L 112.529201 267.219631 
L 112.734912 265.761795 
L 112.940622 265.761795 
L 113.146332 267.219631 
L 113.557753 267.219631 
L 113.763464 265.761795 
L 113.969174 267.219631 
L 114.586306 267.219631 
L 114.792016 265.761795 
L 114.997727 265.761795 
L 115.203437 267.219631 
L 115.614858 267.219631 
L 115.820568 265.761795 
L 116.026279 267.219631 
L 116.231989 267.219631 
L 116.4377 265.761795 
L 116.64341 268.677467 
L 117.054831 265.761795 
L 117.260542 267.219631 
L 117.466252 265.761795 
L 117.877673 265.761795 
L 118.083384 267.219631 
L 118.289094 267.219631 
L 118.494804 268.677467 
L 118.700515 267.219631 
L 118.906225 268.677467 
L 119.111936 267.219631 
L 119.317646 267.219631 
L 119.523357 268.677467 
L 119.729067 267.219631 
L 119.934778 268.677467 
L 120.346199 268.677467 
L 120.551909 267.219631 
L 120.75762 268.677467 
L 121.16904 268.677467 
L 121.374751 267.219631 
L 121.580461 267.219631 
L 121.786172 268.677467 
L 121.991882 267.219631 
L 122.197593 267.219631 
L 122.403303 268.677467 
L 123.226145 268.677467 
L 123.431856 267.219631 
L 124.460408 267.219631 
L 124.871829 270.135302 
L 125.077539 267.219631 
L 125.28325 268.677467 
L 125.48896 267.219631 
L 125.694671 268.677467 
L 125.900381 267.219631 
L 126.517512 267.219631 
L 126.723223 268.677467 
L 126.928933 267.219631 
L 127.134644 268.677467 
L 127.340354 267.219631 
L 127.546065 268.677467 
L 127.751775 268.677467 
L 127.957486 270.135302 
L 128.368907 267.219631 
L 128.780327 267.219631 
L 128.986038 268.677467 
L 129.603169 268.677467 
L 129.80888 270.135302 
L 130.01459 268.677467 
L 130.220301 270.135302 
L 130.426011 270.135302 
L 130.631722 271.594277 
L 130.837432 268.677467 
L 131.043143 270.135302 
L 131.248853 270.135302 
L 131.454563 268.677467 
L 131.865984 271.594277 
L 132.277405 268.677467 
L 132.483116 268.677467 
L 132.688826 270.135302 
L 132.894537 270.135302 
L 133.100247 268.677467 
L 133.305958 268.677467 
L 133.511668 270.135302 
L 133.923089 267.219631 
L 134.128799 270.135302 
L 134.33451 270.135302 
L 134.54022 268.677467 
L 134.745931 270.135302 
L 134.951641 270.135302 
L 135.157352 268.677467 
L 135.363062 270.135302 
L 135.568773 270.135302 
L 135.774483 271.594277 
L 136.597325 271.594277 
L 136.803035 270.135302 
L 137.214456 270.135302 
L 137.420167 268.677467 
L 137.625877 270.135302 
L 138.037298 270.135302 
L 138.243009 271.594277 
L 138.86014 271.594277 
L 139.065851 270.135302 
L 139.271561 271.594277 
L 139.477271 271.594277 
L 139.682982 273.052113 
L 140.094403 270.135302 
L 140.505824 273.052113 
L 140.711534 273.052113 
L 140.917245 271.594277 
L 141.122955 273.052113 
L 141.534376 273.052113 
L 141.740087 271.594277 
L 142.768639 271.594277 
L 142.974349 273.052113 
L 143.18006 271.594277 
L 143.38577 273.052113 
L 144.208612 273.052113 
L 144.414322 271.594277 
L 144.620033 271.594277 
L 144.825743 274.509948 
L 145.237164 271.594277 
L 145.442875 271.594277 
L 145.648585 273.052113 
L 145.854296 273.052113 
L 146.060006 275.967784 
L 146.471427 273.052113 
L 146.882848 273.052113 
L 147.088558 274.509948 
L 147.294269 273.052113 
L 147.9114 273.052113 
L 148.117111 271.594277 
L 148.528532 271.594277 
L 148.734242 273.052113 
L 148.939953 271.594277 
L 149.145663 274.509948 
L 149.557084 271.594277 
L 149.762794 273.052113 
L 150.174215 273.052113 
L 150.379926 270.135302 
L 150.585636 273.052113 
L 150.997057 270.135302 
L 151.202768 270.135302 
L 151.408478 273.052113 
L 151.614189 271.594277 
L 151.819899 271.594277 
L 152.02561 274.509948 
L 152.23132 271.594277 
L 152.642741 274.509948 
L 153.054162 271.594277 
L 153.259872 271.594277 
L 153.465583 273.052113 
L 153.671293 273.052113 
L 153.877004 271.594277 
L 154.288425 274.509948 
L 154.494135 271.594277 
L 154.699846 273.052113 
L 154.905556 273.052113 
L 155.111266 271.594277 
L 155.316977 273.052113 
L 155.728398 273.052113 
L 155.934108 271.594277 
L 156.139819 273.052113 
L 156.345529 273.052113 
L 156.55124 274.509948 
L 156.75695 271.594277 
L 157.168371 274.509948 
L 157.374082 274.509948 
L 157.579792 273.052113 
L 157.785502 274.509948 
L 157.991213 274.509948 
L 158.196923 271.594277 
L 158.402634 274.509948 
L 159.431186 274.509948 
L 159.842607 271.594277 
L 160.048317 273.052113 
L 160.254028 273.052113 
L 160.459738 271.594277 
L 160.665449 274.509948 
L 160.871159 274.509948 
L 161.07687 275.967784 
L 161.28258 273.052113 
L 161.488291 274.509948 
L 162.722553 274.509948 
L 162.928264 275.967784 
L 163.339685 275.967784 
L 163.545395 274.509948 
L 163.751106 275.967784 
L 163.956816 274.509948 
L 164.162527 275.967784 
L 164.368237 275.967784 
L 164.573948 274.509948 
L 164.985369 274.509948 
L 165.191079 275.967784 
L 165.396789 274.509948 
L 165.80821 274.509948 
L 166.013921 275.967784 
L 166.219631 274.509948 
L 166.425342 274.509948 
L 166.631052 275.967784 
L 166.836763 273.052113 
L 167.042473 275.967784 
L 167.248184 274.509948 
L 167.453894 275.967784 
L 167.659605 274.509948 
L 167.865315 277.425619 
L 168.276736 274.509948 
L 168.482446 274.509948 
L 168.688157 275.967784 
L 168.893867 275.967784 
L 169.099578 274.509948 
L 169.305288 275.967784 
L 169.510999 275.967784 
L 169.716709 274.509948 
L 169.92242 275.967784 
L 170.12813 274.509948 
L 170.333841 275.967784 
L 170.745261 275.967784 
L 170.950972 277.425619 
L 171.156682 277.425619 
L 171.362393 275.967784 
L 171.568103 277.425619 
L 171.773814 275.967784 
L 171.979524 271.594277 
L 172.185235 275.967784 
L 172.802366 275.967784 
L 173.008077 274.509948 
L 173.213787 275.967784 
L 173.419497 274.509948 
L 173.625208 274.509948 
L 173.830918 277.425619 
L 174.036629 275.967784 
L 174.242339 275.967784 
L 174.44805 274.509948 
L 174.65376 277.425619 
L 174.859471 274.509948 
L 175.065181 275.967784 
L 175.476602 275.967784 
L 175.682313 274.509948 
L 175.888023 274.509948 
L 176.093733 275.967784 
L 176.299444 274.509948 
L 176.505154 275.967784 
L 176.710865 274.509948 
L 176.916575 275.967784 
L 178.356548 275.967784 
L 178.562259 273.052113 
L 178.767969 274.509948 
L 178.97368 274.509948 
L 179.17939 273.052113 
L 179.385101 274.509948 
L 179.590811 274.509948 
L 179.796522 275.967784 
L 180.002232 275.967784 
L 180.207943 274.509948 
L 180.619364 274.509948 
L 180.825074 273.052113 
L 181.236495 275.967784 
L 181.442205 274.509948 
L 181.647916 274.509948 
L 181.853626 275.967784 
L 182.059337 275.967784 
L 182.265047 274.509948 
L 182.470758 274.509948 
L 182.676468 275.967784 
L 182.882179 275.967784 
L 183.087889 274.509948 
L 183.2936 278.883455 
L 183.70502 275.967784 
L 184.116441 275.967784 
L 184.322152 274.509948 
L 184.733573 274.509948 
L 184.939283 277.425619 
L 185.350704 277.425619 
L 185.556415 278.883455 
L 185.762125 278.883455 
L 185.967836 281.800265 
L 186.173546 319.708548 
L 186.379256 322.625358 
L 186.584967 321.166384 
L 186.996388 334.289182 
L 187.202098 312.418231 
L 187.407809 319.708548 
L 187.81923 315.335041 
L 188.230651 326.998865 
L 188.436361 326.998865 
L 188.847782 324.083194 
L 189.259203 326.998865 
L 189.670624 313.877205 
L 189.876334 309.502559 
L 190.082045 309.502559 
L 190.493466 302.212242 
L 190.699176 300.754407 
L 191.316308 293.464089 
L 191.727728 293.464089 
L 191.933439 290.548418 
L 192.139149 290.548418 
L 192.34486 300.754407 
L 192.55057 294.921925 
L 192.756281 264.30396 
L 193.167702 175.363457 
L 193.579123 169.530976 
L 194.196254 169.530976 
L 194.813385 173.905621 
L 195.224806 173.905621 
L 195.430517 175.363457 
L 195.636227 173.905621 
L 195.841938 176.821293 
L 196.047648 176.821293 
L 196.253359 175.363457 
L 196.87049 175.363457 
L 197.0762 173.905621 
L 197.487621 176.821293 
L 197.899042 176.821293 
L 198.104753 178.279128 
L 198.310463 176.821293 
L 198.516174 176.821293 
L 198.721884 178.279128 
L 198.927595 175.363457 
L 199.133305 175.363457 
L 199.339015 176.821293 
L 199.544726 176.821293 
L 199.750436 172.447786 
L 200.161857 176.821293 
L 200.367568 178.279128 
L 200.573278 175.363457 
L 200.778989 175.363457 
L 200.984699 173.905621 
L 201.39612 173.905621 
L 201.601831 172.447786 
L 201.807541 175.363457 
L 202.218962 175.363457 
L 202.424672 173.905621 
L 202.630383 175.363457 
L 202.836093 172.447786 
L 203.864646 172.447786 
L 204.070356 173.905621 
L 204.276067 173.905621 
L 204.481777 172.447786 
L 204.687487 173.905621 
L 204.893198 173.905621 
L 205.098908 172.447786 
L 206.333171 172.447786 
L 206.538882 170.988811 
L 206.744592 172.447786 
L 206.950303 170.988811 
L 207.567434 170.988811 
L 207.773144 172.447786 
L 207.978855 170.988811 
L 208.184565 172.447786 
L 208.390276 170.988811 
L 208.595986 172.447786 
L 209.007407 169.530976 
L 209.213118 170.988811 
L 209.418828 170.988811 
L 209.624539 169.530976 
L 209.830249 170.988811 
L 210.035959 170.988811 
L 210.24167 169.530976 
L 210.44738 169.530976 
L 210.653091 170.988811 
L 211.064512 170.988811 
L 211.270222 172.447786 
L 211.887354 168.07314 
L 212.093064 170.988811 
L 212.298774 170.988811 
L 212.504485 168.07314 
L 212.915906 170.988811 
L 213.121616 168.07314 
L 213.327327 168.07314 
L 213.533037 169.530976 
L 213.944458 169.530976 
L 214.150169 166.615304 
L 214.355879 168.07314 
L 214.7673 165.157469 
L 214.97301 169.530976 
L 215.178721 169.530976 
L 215.384431 168.07314 
L 215.590142 168.07314 
L 215.795852 169.530976 
L 216.001563 168.07314 
L 216.207273 165.157469 
L 216.412984 166.615304 
L 216.824405 166.615304 
L 217.235826 169.530976 
L 217.441536 166.615304 
L 217.647246 168.07314 
L 217.852957 166.615304 
L 218.058667 168.07314 
L 218.264378 166.615304 
L 218.675799 166.615304 
L 218.881509 168.07314 
L 219.08722 166.615304 
L 219.704351 166.615304 
L 219.910062 165.157469 
L 220.115772 166.615304 
L 220.321482 165.157469 
L 220.527193 162.240658 
L 220.938614 165.157469 
L 221.144324 165.157469 
L 221.350035 163.699633 
L 221.555745 163.699633 
L 221.761456 165.157469 
L 222.584298 165.157469 
L 222.790008 163.699633 
L 222.995718 163.699633 
L 223.201429 165.157469 
L 223.407139 163.699633 
L 223.61285 163.699633 
L 223.81856 165.157469 
L 224.229981 162.240658 
L 224.641402 165.157469 
L 224.847113 163.699633 
L 225.052823 163.699633 
L 225.258534 165.157469 
L 225.464244 162.240658 
L 225.669954 163.699633 
L 225.875665 160.782823 
L 226.081375 163.699633 
L 227.727059 163.699633 
L 227.932769 162.240658 
L 228.34419 162.240658 
L 228.549901 163.699633 
L 228.755611 162.240658 
L 228.961322 162.240658 
L 229.167032 163.699633 
L 230.195585 163.699633 
L 230.401295 162.240658 
L 230.607005 163.699633 
L 230.812716 162.240658 
L 231.018426 159.324987 
L 231.224137 162.240658 
L 231.429847 160.782823 
L 231.841268 160.782823 
L 232.046979 162.240658 
L 232.252689 162.240658 
L 232.66411 157.867151 
L 232.869821 160.782823 
L 233.075531 160.782823 
L 233.486952 163.699633 
L 233.898373 160.782823 
L 234.104083 162.240658 
L 234.515504 162.240658 
L 234.721215 163.699633 
L 235.132636 160.782823 
L 235.749767 160.782823 
L 235.955477 162.240658 
L 236.161188 162.240658 
L 236.366898 160.782823 
L 236.572609 160.782823 
L 236.778319 162.240658 
L 236.98403 160.782823 
L 237.18974 162.240658 
L 237.395451 160.782823 
L 237.601161 162.240658 
L 237.806872 160.782823 
L 238.012582 162.240658 
L 238.218293 159.324987 
L 238.424003 159.324987 
L 238.629713 160.782823 
L 238.835424 159.324987 
L 239.041134 159.324987 
L 239.452555 162.240658 
L 239.658266 159.324987 
L 240.069687 159.324987 
L 240.275397 160.782823 
L 240.481108 160.782823 
L 240.686818 159.324987 
L 240.892529 160.782823 
L 241.098239 160.782823 
L 241.303949 159.324987 
L 241.50966 159.324987 
L 241.71537 160.782823 
L 241.921081 157.867151 
L 242.126791 157.867151 
L 242.332502 159.324987 
L 242.743923 159.324987 
L 243.155344 162.240658 
L 243.361054 159.324987 
L 243.566765 159.324987 
L 243.772475 160.782823 
L 243.978185 160.782823 
L 244.183896 159.324987 
L 244.389606 160.782823 
L 244.595317 159.324987 
L 244.801027 160.782823 
L 245.006738 159.324987 
L 245.212448 159.324987 
L 245.418159 160.782823 
L 245.623869 159.324987 
L 245.82958 159.324987 
L 246.03529 157.867151 
L 246.241 159.324987 
L 246.446711 159.324987 
L 246.652421 156.409316 
L 246.858132 159.324987 
L 247.063842 159.324987 
L 247.269553 157.867151 
L 247.475263 159.324987 
L 247.886684 159.324987 
L 248.092395 157.867151 
L 248.298105 159.324987 
L 248.503816 159.324987 
L 248.709526 156.409316 
L 248.915236 157.867151 
L 249.120947 154.95148 
L 249.326657 159.324987 
L 250.149499 159.324987 
L 250.35521 156.409316 
L 250.766631 159.324987 
L 250.972341 157.867151 
L 251.178052 157.867151 
L 251.383762 160.782823 
L 251.589472 157.867151 
L 251.795183 159.324987 
L 252.000893 159.324987 
L 252.206604 160.782823 
L 252.412314 157.867151 
L 252.823735 157.867151 
L 253.029446 159.324987 
L 253.235156 157.867151 
L 253.646577 157.867151 
L 253.852288 156.409316 
L 254.263708 159.324987 
L 254.675129 159.324987 
L 255.08655 156.409316 
L 255.292261 157.867151 
L 255.497971 157.867151 
L 255.703682 156.409316 
L 255.909392 156.409316 
L 256.115103 157.867151 
L 256.320813 157.867151 
L 256.526524 156.409316 
L 256.732234 157.867151 
L 256.937944 157.867151 
L 257.143655 156.409316 
L 257.555076 156.409316 
L 257.760786 157.867151 
L 257.966497 163.699633 
L 258.172207 198.692244 
L 258.377918 213.272879 
L 258.583628 217.646385 
L 258.995049 220.562057 
L 259.20076 220.562057 
L 259.40647 219.104221 
L 259.61218 224.936703 
L 259.817891 224.936703 
L 260.023601 223.478867 
L 260.229312 227.852374 
L 260.435022 235.142691 
L 260.640733 235.142691 
L 260.846443 249.723325 
L 261.257864 242.433008 
L 261.463575 239.517337 
L 261.669285 240.975173 
L 261.874995 238.059501 
L 262.080706 239.517337 
L 262.286416 238.059501 
L 262.492127 239.517337 
L 262.697837 245.34868 
L 262.903548 242.433008 
L 263.314969 222.021031 
L 263.72639 264.30396 
L 263.9321 262.844985 
L 264.137811 257.013643 
L 264.754942 281.800265 
L 265.166363 284.715937 
L 265.372073 268.677467 
L 265.577784 261.38715 
L 265.783494 270.135302 
L 266.194915 238.059501 
L 266.606336 280.34243 
L 266.812047 284.715937 
L 267.017757 277.425619 
L 267.223467 283.258101 
L 267.429178 267.219631 
L 267.634888 265.761795 
L 267.840599 270.135302 
L 268.45773 262.844985 
L 268.663441 267.219631 
L 269.074862 261.38715 
L 269.486283 264.30396 
L 269.897703 259.929314 
L 270.103414 259.929314 
L 270.309124 261.38715 
L 270.514835 261.38715 
L 270.720545 259.929314 
L 271.131966 259.929314 
L 271.337677 258.471478 
L 271.543387 258.471478 
L 271.749098 259.929314 
L 271.954808 258.471478 
L 272.160519 259.929314 
L 272.366229 258.471478 
L 272.571939 258.471478 
L 272.77765 259.929314 
L 273.189071 264.30396 
L 273.394781 262.844985 
L 273.600492 259.929314 
L 273.806202 261.38715 
L 274.011913 259.929314 
L 274.423334 259.929314 
L 274.834755 262.844985 
L 275.040465 262.844985 
L 275.246175 261.38715 
L 275.451886 261.38715 
L 275.657596 262.844985 
L 275.863307 261.38715 
L 276.069017 262.844985 
L 276.274728 261.38715 
L 276.686149 261.38715 
L 276.891859 259.929314 
L 277.50899 259.929314 
L 277.714701 258.471478 
L 278.126122 258.471478 
L 278.331832 257.013643 
L 278.537543 259.929314 
L 278.743253 258.471478 
L 279.154674 261.38715 
L 279.566095 255.555807 
L 279.977516 259.929314 
L 280.183226 258.471478 
L 280.388937 258.471478 
L 280.388937 258.471478 
" clip-path="url(#pfea863d3ba)" style="fill: none; stroke: #008000; stroke-width: 0.5; stroke-linecap: square"/>
   </g>
   <g id="line2d_36">
    <defs>
     <path id="m2afe8e5c91" d="M 0 2 
C 0.530406 2 1.03916 1.789267 1.414214 1.414214 
C 1.789267 1.03916 2 0.530406 2 0 
C 2 -0.530406 1.789267 -1.03916 1.414214 -1.414214 
C 1.03916 -1.789267 0.530406 -2 0 -2 
C -0.530406 -2 -1.03916 -1.789267 -1.414214 -1.414214 
C -1.789267 -1.03916 -2 -0.530406 -2 0 
C -2 0.530406 -1.789267 1.03916 -1.414214 1.414214 
C -1.03916 1.789267 -0.530406 2 0 2 
z
" style="stroke: #006400"/>
    </defs>
    <g clip-path="url(#pfea863d3ba)">
     <use xlink:href="#m2afe8e5c91" x="90.518182" y="273.052113" style="fill: #006400; stroke: #006400"/>
     <use xlink:href="#m2afe8e5c91" x="280.388937" y="258.471478" style="fill: #006400; stroke: #006400"/>
    </g>
   </g>
   <g id="line2d_37">
    <path d="M 306.925586 351.785488 
L 307.131297 273.052113 
L 307.337007 252.638997 
L 307.748428 255.555807 
L 307.954139 251.181161 
L 308.159849 258.471478 
L 308.36556 257.013643 
L 308.57127 242.433008 
L 308.776981 240.975173 
L 308.982691 236.600527 
L 309.188401 238.059501 
L 309.394112 236.600527 
L 309.599822 233.684855 
L 310.011243 233.684855 
L 310.216954 235.142691 
L 311.039796 235.142691 
L 311.245506 233.684855 
L 311.451216 235.142691 
L 311.656927 235.142691 
L 311.862637 236.600527 
L 312.068348 233.684855 
L 312.274058 235.142691 
L 312.479769 235.142691 
L 312.685479 233.684855 
L 312.89119 235.142691 
L 313.302611 235.142691 
L 313.508321 233.684855 
L 313.714032 233.684855 
L 313.919742 235.142691 
L 314.125452 233.684855 
L 314.331163 233.684855 
L 314.536873 235.142691 
L 314.948294 232.22702 
L 315.565426 232.22702 
L 315.771136 229.31021 
L 315.976847 230.769184 
L 316.388268 230.769184 
L 316.593978 229.31021 
L 317.005399 232.22702 
L 317.211109 230.769184 
L 317.41682 230.769184 
L 317.828241 233.684855 
L 318.033951 232.22702 
L 318.239662 233.684855 
L 318.445372 232.22702 
L 318.651083 229.31021 
L 318.856793 232.22702 
L 319.062504 232.22702 
L 319.268214 230.769184 
L 319.473924 230.769184 
L 319.679635 233.684855 
L 319.885345 232.22702 
L 320.091056 232.22702 
L 320.296766 230.769184 
L 320.502477 232.22702 
L 320.708187 232.22702 
L 320.913898 233.684855 
L 321.119608 233.684855 
L 321.325319 232.22702 
L 321.531029 232.22702 
L 321.73674 230.769184 
L 321.94245 232.22702 
L 322.353871 232.22702 
L 322.559581 230.769184 
L 322.765292 235.142691 
L 322.971002 232.22702 
L 323.382423 235.142691 
L 323.588134 232.22702 
L 323.793844 233.684855 
L 324.205265 233.684855 
L 324.410976 232.22702 
L 324.616686 233.684855 
L 325.233817 233.684855 
L 325.439528 230.769184 
L 325.645238 233.684855 
L 325.850949 233.684855 
L 326.056659 230.769184 
L 326.26237 235.142691 
L 326.46808 233.684855 
L 326.673791 233.684855 
L 326.879501 232.22702 
L 327.290922 232.22702 
L 327.496632 230.769184 
L 327.702343 232.22702 
L 329.553737 232.22702 
L 329.759447 229.31021 
L 329.965158 232.22702 
L 331.199421 232.22702 
L 331.405131 227.852374 
L 331.610842 233.684855 
L 332.022263 230.769184 
L 332.639394 230.769184 
L 332.845104 229.31021 
L 333.050815 233.684855 
L 333.462236 230.769184 
L 334.079367 230.769184 
L 334.285078 229.31021 
L 334.696499 229.31021 
L 334.902209 230.769184 
L 335.107919 227.852374 
L 335.31363 230.769184 
L 335.51934 230.769184 
L 335.725051 229.31021 
L 336.136472 232.22702 
L 336.547893 229.31021 
L 336.753603 229.31021 
L 336.959314 230.769184 
L 337.165024 229.31021 
L 337.782155 229.31021 
L 337.987866 230.769184 
L 338.193576 227.852374 
L 338.399287 229.31021 
L 338.810708 229.31021 
L 339.016418 227.852374 
L 339.222129 229.31021 
L 339.427839 229.31021 
L 339.63355 227.852374 
L 340.044971 230.769184 
L 340.456391 227.852374 
L 340.662102 227.852374 
L 340.867812 229.31021 
L 341.073523 226.394538 
L 341.279233 227.852374 
L 341.484944 227.852374 
L 341.690654 229.31021 
L 341.896365 227.852374 
L 342.102075 229.31021 
L 342.513496 229.31021 
L 342.924917 226.394538 
L 343.130627 229.31021 
L 343.542048 226.394538 
L 343.747759 226.394538 
L 343.953469 227.852374 
L 344.570601 227.852374 
L 344.776311 226.394538 
L 344.982022 227.852374 
L 345.187732 227.852374 
L 345.393442 229.31021 
L 345.599153 229.31021 
L 346.010574 226.394538 
L 346.216284 227.852374 
L 346.421995 227.852374 
L 346.627705 226.394538 
L 346.833416 227.852374 
L 347.450547 227.852374 
L 347.861968 224.936703 
L 348.067678 227.852374 
L 348.273389 226.394538 
L 348.68481 226.394538 
L 348.89052 224.936703 
L 349.096231 224.936703 
L 349.301941 226.394538 
L 349.507652 226.394538 
L 349.713362 224.936703 
L 349.919073 226.394538 
L 350.124783 226.394538 
L 350.330494 224.936703 
L 350.536204 224.936703 
L 350.741914 226.394538 
L 350.947625 224.936703 
L 351.153335 226.394538 
L 351.770467 226.394538 
L 351.976177 224.936703 
L 352.181888 226.394538 
L 352.593309 223.478867 
L 352.799019 223.478867 
L 353.00473 224.936703 
L 353.621861 224.936703 
L 353.827571 226.394538 
L 354.033282 224.936703 
L 354.238992 224.936703 
L 354.444703 226.394538 
L 354.856124 223.478867 
L 355.061834 226.394538 
L 355.267545 224.936703 
L 355.473255 226.394538 
L 355.678966 223.478867 
L 355.884676 227.852374 
L 356.090386 224.936703 
L 356.296097 224.936703 
L 356.501807 223.478867 
L 356.707518 224.936703 
L 356.913228 224.936703 
L 357.118939 226.394538 
L 357.324649 223.478867 
L 357.53036 224.936703 
L 357.73607 223.478867 
L 358.147491 223.478867 
L 358.353202 224.936703 
L 358.558912 223.478867 
L 358.970333 223.478867 
L 359.176043 224.936703 
L 359.381754 223.478867 
L 359.587464 223.478867 
L 359.793175 224.936703 
L 359.998885 224.936703 
L 360.204596 223.478867 
L 360.410306 223.478867 
L 360.616017 224.936703 
L 360.821727 223.478867 
L 361.233148 223.478867 
L 361.438858 222.021031 
L 361.644569 222.021031 
L 362.05599 224.936703 
L 362.2617 223.478867 
L 362.467411 224.936703 
L 362.673121 223.478867 
L 362.878832 224.936703 
L 363.084542 224.936703 
L 363.290253 223.478867 
L 363.495963 223.478867 
L 363.701673 224.936703 
L 363.907384 222.021031 
L 364.113094 222.021031 
L 364.318805 220.562057 
L 364.524515 222.021031 
L 364.730226 222.021031 
L 364.935936 223.478867 
L 365.141647 223.478867 
L 365.347357 222.021031 
L 365.553068 224.936703 
L 365.758778 223.478867 
L 365.964489 223.478867 
L 366.170199 222.021031 
L 366.375909 223.478867 
L 366.58162 223.478867 
L 366.78733 220.562057 
L 367.198751 220.562057 
L 367.404462 222.021031 
L 367.610172 220.562057 
L 367.815883 222.021031 
L 368.021593 220.562057 
L 368.227304 222.021031 
L 368.844435 222.021031 
L 369.050145 219.104221 
L 369.255856 220.562057 
L 369.461566 223.478867 
L 369.667277 220.562057 
L 370.078698 220.562057 
L 370.284408 222.021031 
L 370.490119 220.562057 
L 370.695829 220.562057 
L 370.90154 222.021031 
L 371.312961 219.104221 
L 371.518671 222.021031 
L 371.724381 220.562057 
L 371.930092 222.021031 
L 372.135802 220.562057 
L 372.341513 222.021031 
L 372.547223 220.562057 
L 372.752934 220.562057 
L 372.958644 219.104221 
L 373.164355 222.021031 
L 373.987197 222.021031 
L 374.192907 220.562057 
L 374.604328 220.562057 
L 374.810038 222.021031 
L 375.015749 220.562057 
L 375.838591 220.562057 
L 376.044301 219.104221 
L 376.250012 219.104221 
L 376.455722 220.562057 
L 376.661433 217.646385 
L 376.867143 222.021031 
L 377.072853 220.562057 
L 377.689985 220.562057 
L 377.895695 219.104221 
L 379.129958 219.104221 
L 379.335668 220.562057 
L 379.747089 217.646385 
L 379.9528 217.646385 
L 380.15851 219.104221 
L 380.569931 219.104221 
L 380.775642 216.18855 
L 380.981352 219.104221 
L 381.187063 219.104221 
L 381.392773 216.18855 
L 381.598484 219.104221 
L 381.804194 217.646385 
L 382.009904 219.104221 
L 382.215615 219.104221 
L 382.421325 220.562057 
L 382.627036 220.562057 
L 382.832746 217.646385 
L 383.038457 220.562057 
L 383.655588 216.18855 
L 383.861299 219.104221 
L 384.067009 219.104221 
L 384.27272 216.18855 
L 384.68414 216.18855 
L 385.095561 219.104221 
L 385.301272 211.813904 
L 385.506982 214.730714 
L 385.712693 214.730714 
L 385.918403 216.18855 
L 386.124114 208.898233 
L 386.329824 216.18855 
L 386.535535 214.730714 
L 386.741245 216.18855 
L 387.152666 213.272879 
L 387.564087 217.646385 
L 387.975508 220.562057 
L 388.181218 219.104221 
L 388.386929 220.562057 
L 388.592639 220.562057 
L 388.79835 219.104221 
L 389.00406 219.104221 
L 389.209771 222.021031 
L 389.415481 222.021031 
L 389.415481 222.021031 
" clip-path="url(#pfea863d3ba)" style="fill: none; stroke: #008000; stroke-width: 0.5; stroke-linecap: square"/>
   </g>
   <g id="line2d_38">
    <g clip-path="url(#pfea863d3ba)">
     <use xlink:href="#m2afe8e5c91" x="306.925586" y="351.785488" style="fill: #006400; stroke: #006400"/>
     <use xlink:href="#m2afe8e5c91" x="389.415481" y="222.021031" style="fill: #006400; stroke: #006400"/>
    </g>
   </g>
   <g id="line2d_39">
    <path d="M 450.305777 356.160134 
L 450.511488 343.037335 
L 450.717198 306.586888 
L 451.128619 335.747018 
L 451.33433 334.289182 
L 451.745751 334.289182 
L 451.951461 344.495171 
L 452.362882 326.998865 
L 452.774303 316.792877 
L 452.980013 315.335041 
L 453.185724 310.960395 
L 453.391434 309.502559 
L 453.597145 309.502559 
L 454.214276 302.212242 
L 454.419987 303.670078 
L 454.625697 302.212242 
L 454.831408 302.212242 
L 455.037118 300.754407 
L 455.242828 300.754407 
L 455.448539 297.838735 
L 455.654249 299.296571 
L 455.85996 299.296571 
L 456.06567 297.838735 
L 456.271381 297.838735 
L 456.477091 296.3809 
L 456.888512 296.3809 
L 457.094223 294.921925 
L 457.299933 296.3809 
L 457.505644 296.3809 
L 457.711354 293.464089 
L 457.917064 294.921925 
L 458.122775 294.921925 
L 458.739906 290.548418 
L 458.945617 293.464089 
L 459.357038 286.173772 
L 459.562748 290.548418 
L 459.768459 290.548418 
L 460.17988 271.594277 
L 460.38559 270.135302 
L 460.797011 270.135302 
L 461.002721 267.219631 
L 461.208432 270.135302 
L 461.619853 267.219631 
L 461.825563 267.219631 
L 462.031274 268.677467 
L 462.236984 265.761795 
L 462.648405 265.761795 
L 462.854115 264.30396 
L 463.059826 261.38715 
L 463.265536 264.30396 
L 463.471247 264.30396 
L 463.676957 261.38715 
L 463.882668 261.38715 
L 464.088378 262.844985 
L 464.294089 259.929314 
L 464.70551 262.844985 
L 464.91122 261.38715 
L 465.116931 262.844985 
L 465.322641 261.38715 
L 465.528351 261.38715 
L 465.939772 258.471478 
L 466.145483 259.929314 
L 466.351193 259.929314 
L 466.556904 257.013643 
L 466.968325 259.929314 
L 467.174035 259.929314 
L 467.379746 257.013643 
L 467.585456 257.013643 
L 467.791167 255.555807 
L 468.202587 255.555807 
L 468.408298 257.013643 
L 468.614008 257.013643 
L 468.819719 255.555807 
L 469.025429 255.555807 
L 469.23114 257.013643 
L 469.642561 254.096832 
L 469.848271 257.013643 
L 470.259692 252.638997 
L 470.671113 257.013643 
L 470.876823 254.096832 
L 471.082534 255.555807 
L 471.288244 254.096832 
L 471.493955 255.555807 
L 471.699665 255.555807 
L 472.111086 252.638997 
L 472.316797 254.096832 
L 472.522507 254.096832 
L 472.728218 255.555807 
L 472.933928 254.096832 
L 473.139639 254.096832 
L 473.345349 252.638997 
L 473.75677 252.638997 
L 474.168191 249.723325 
L 474.373901 252.638997 
L 474.579612 252.638997 
L 474.785322 249.723325 
L 475.196743 252.638997 
L 475.608164 249.723325 
L 475.813875 249.723325 
L 476.019585 251.181161 
L 476.431006 248.26549 
L 476.636716 249.723325 
L 477.048137 249.723325 
L 477.253848 248.26549 
L 477.459558 249.723325 
L 477.665269 246.807654 
L 478.07669 246.807654 
L 478.2824 248.26549 
L 478.488111 248.26549 
L 478.693821 246.807654 
L 478.899531 249.723325 
L 479.310952 246.807654 
L 479.516663 243.890844 
L 479.722373 248.26549 
L 479.928084 246.807654 
L 480.133794 246.807654 
L 480.339505 245.34868 
L 480.750926 245.34868 
L 480.956636 246.807654 
L 481.162346 249.723325 
L 481.573767 245.34868 
L 481.779478 245.34868 
L 481.985188 246.807654 
L 482.396609 243.890844 
L 482.60232 246.807654 
L 482.80803 245.34868 
L 483.630872 245.34868 
L 483.836582 242.433008 
L 484.453714 242.433008 
L 484.865135 245.34868 
L 485.070845 242.433008 
L 485.276556 242.433008 
L 485.482266 240.975173 
L 485.687977 242.433008 
L 485.893687 240.975173 
L 486.305108 240.975173 
L 486.510818 242.433008 
L 486.716529 239.517337 
L 486.922239 242.433008 
L 487.33366 242.433008 
L 487.539371 243.890844 
L 487.745081 240.975173 
L 487.950792 242.433008 
L 488.156502 242.433008 
L 488.362213 240.975173 
L 488.567923 240.975173 
L 488.979344 238.059501 
L 489.390765 240.975173 
L 489.596475 240.975173 
L 489.802186 239.517337 
L 490.007896 242.433008 
L 490.213607 240.975173 
L 490.419317 238.059501 
L 490.625028 238.059501 
L 490.830738 239.517337 
L 491.036449 238.059501 
L 491.242159 238.059501 
L 491.44787 240.975173 
L 491.85929 238.059501 
L 492.065001 239.517337 
L 492.270711 238.059501 
L 492.476422 238.059501 
L 492.682132 236.600527 
L 492.887843 238.059501 
L 493.093553 236.600527 
L 493.504974 236.600527 
L 493.710685 238.059501 
L 493.916395 238.059501 
L 494.122106 236.600527 
L 494.533526 236.600527 
L 494.739237 235.142691 
L 494.944947 236.600527 
L 495.150658 236.600527 
L 495.356368 235.142691 
L 495.767789 235.142691 
L 495.9735 233.684855 
L 496.17921 235.142691 
L 497.002052 235.142691 
L 497.207762 233.684855 
L 497.413473 236.600527 
L 497.619183 233.684855 
L 497.824894 235.142691 
L 498.030604 233.684855 
L 498.236315 235.142691 
L 498.442025 235.142691 
L 498.647736 233.684855 
L 499.059157 233.684855 
L 499.264867 235.142691 
L 499.470577 233.684855 
L 499.676288 235.142691 
L 500.087709 235.142691 
L 500.293419 233.684855 
L 500.49913 235.142691 
L 500.70484 232.22702 
L 500.910551 233.684855 
L 501.116261 232.22702 
L 501.527682 232.22702 
L 501.733393 230.769184 
L 501.939103 230.769184 
L 502.144813 232.22702 
L 502.350524 230.769184 
L 502.556234 230.769184 
L 502.761945 232.22702 
L 502.967655 230.769184 
L 503.379076 230.769184 
L 503.584787 232.22702 
L 503.790497 232.22702 
L 503.996208 229.31021 
L 504.201918 232.22702 
L 504.613339 229.31021 
L 504.819049 229.31021 
L 505.02476 232.22702 
L 505.641891 227.852374 
L 505.847602 229.31021 
L 506.053312 227.852374 
L 506.259023 227.852374 
L 506.464733 229.31021 
L 507.081865 229.31021 
L 507.287575 230.769184 
L 507.493285 230.769184 
L 507.698996 229.31021 
L 508.316127 229.31021 
L 508.521838 227.852374 
L 508.727548 227.852374 
L 508.933259 229.31021 
L 509.138969 227.852374 
L 509.34468 227.852374 
L 509.55039 229.31021 
L 509.756101 227.852374 
L 509.961811 227.852374 
L 510.167521 226.394538 
L 510.373232 227.852374 
L 510.578942 227.852374 
L 510.784653 226.394538 
L 511.607495 226.394538 
L 511.813205 227.852374 
L 512.224626 227.852374 
L 512.430337 223.478867 
L 512.636047 226.394538 
L 512.841757 226.394538 
L 513.047468 224.936703 
L 513.253178 227.852374 
L 513.664599 224.936703 
L 513.87031 229.31021 
L 514.07602 226.394538 
L 515.104572 226.394538 
L 515.310283 227.852374 
L 515.721704 224.936703 
L 515.927414 226.394538 
L 516.338835 226.394538 
L 516.544546 224.936703 
L 516.750256 224.936703 
L 516.955967 226.394538 
L 517.161677 226.394538 
L 517.367388 224.936703 
L 517.573098 224.936703 
L 517.778808 226.394538 
L 517.984519 226.394538 
L 518.190229 224.936703 
L 518.39594 224.936703 
L 518.60165 222.021031 
L 519.013071 226.394538 
L 519.218782 224.936703 
L 519.424492 226.394538 
L 519.630203 224.936703 
L 519.835913 224.936703 
L 520.041624 226.394538 
L 520.247334 223.478867 
L 520.453044 223.478867 
L 520.864465 226.394538 
L 521.070176 224.936703 
L 521.275886 226.394538 
L 521.481597 226.394538 
L 521.893018 223.478867 
L 522.098728 224.936703 
L 522.304439 224.936703 
L 522.510149 222.021031 
L 522.92157 224.936703 
L 523.12728 220.562057 
L 523.538701 223.478867 
L 523.744412 222.021031 
L 523.950122 224.936703 
L 524.155833 222.021031 
L 524.361543 223.478867 
L 524.567254 223.478867 
L 524.772964 222.021031 
L 524.978675 222.021031 
L 525.184385 223.478867 
L 525.390096 223.478867 
L 525.595806 222.021031 
L 525.801516 224.936703 
L 526.007227 222.021031 
L 526.212937 223.478867 
L 526.418648 220.562057 
L 526.624358 222.021031 
L 526.830069 220.562057 
L 527.24149 220.562057 
L 527.4472 222.021031 
L 527.858621 222.021031 
L 528.270042 219.104221 
L 528.475752 220.562057 
L 528.681463 220.562057 
L 528.887173 217.646385 
L 529.298594 220.562057 
L 529.504305 219.104221 
L 529.710015 220.562057 
L 529.915726 220.562057 
L 530.121436 217.646385 
L 530.738567 222.021031 
L 531.149988 219.104221 
L 531.355699 219.104221 
L 531.561409 220.562057 
L 531.97283 217.646385 
L 532.178541 219.104221 
L 532.589962 219.104221 
L 532.795672 217.646385 
L 533.001383 219.104221 
L 533.207093 217.646385 
L 533.412803 220.562057 
L 533.618514 217.646385 
L 533.824224 219.104221 
L 534.029935 217.646385 
L 534.441356 220.562057 
L 534.647066 219.104221 
L 534.852777 219.104221 
L 535.058487 217.646385 
L 535.264198 219.104221 
L 535.469908 217.646385 
L 535.675619 219.104221 
L 536.087039 219.104221 
L 536.29275 216.18855 
L 536.49846 217.646385 
L 536.704171 217.646385 
L 536.909881 219.104221 
L 537.115592 217.646385 
L 537.321302 219.104221 
L 537.527013 219.104221 
L 537.732723 216.18855 
L 537.938434 219.104221 
L 538.144144 217.646385 
L 538.349855 219.104221 
L 538.555565 216.18855 
L 538.761275 219.104221 
L 538.966986 217.646385 
L 539.172696 217.646385 
L 539.378407 216.18855 
L 539.584117 217.646385 
L 539.789828 216.18855 
L 539.995538 216.18855 
L 540.201249 217.646385 
L 540.406959 216.18855 
L 540.61267 217.646385 
L 540.81838 216.18855 
L 541.024091 219.104221 
L 541.229801 217.646385 
L 541.435511 217.646385 
L 541.641222 214.730714 
L 541.846932 216.18855 
L 542.052643 216.18855 
L 542.258353 214.730714 
L 542.464064 217.646385 
L 542.875485 217.646385 
L 543.081195 216.18855 
L 543.698327 216.18855 
L 543.904037 217.646385 
L 544.109747 216.18855 
L 544.315458 216.18855 
L 544.521168 214.730714 
L 544.726879 216.18855 
L 544.932589 214.730714 
L 545.1383 214.730714 
L 545.34401 216.18855 
L 545.549721 216.18855 
L 545.961142 213.272879 
L 546.166852 216.18855 
L 546.372562 214.730714 
L 546.578273 211.813904 
L 546.989694 216.18855 
L 547.195404 213.272879 
L 547.401115 214.730714 
L 548.018246 214.730714 
L 548.223957 213.272879 
L 548.429667 214.730714 
L 548.841088 211.813904 
L 549.046798 213.272879 
L 549.252509 210.356068 
L 549.458219 214.730714 
L 549.66393 214.730714 
L 549.86964 216.18855 
L 550.075351 213.272879 
L 550.281061 213.272879 
L 550.486772 216.18855 
L 550.692482 213.272879 
L 551.103903 213.272879 
L 551.309614 216.18855 
L 551.515324 214.730714 
L 551.926745 214.730714 
L 552.132455 216.18855 
L 552.338166 213.272879 
L 552.749587 213.272879 
L 552.955297 211.813904 
L 553.161008 211.813904 
L 553.366718 214.730714 
L 553.778139 214.730714 
L 553.98385 211.813904 
L 554.18956 213.272879 
L 554.39527 213.272879 
L 554.600981 211.813904 
L 554.806691 211.813904 
L 555.012402 213.272879 
L 555.218112 213.272879 
L 555.423823 211.813904 
L 555.835244 211.813904 
L 556.040954 213.272879 
L 556.246665 211.813904 
L 556.452375 213.272879 
L 556.863796 210.356068 
L 557.069506 213.272879 
L 557.275217 211.813904 
L 557.480927 208.898233 
L 557.892348 211.813904 
L 558.920901 211.813904 
L 559.126611 210.356068 
L 559.332322 211.813904 
L 559.538032 211.813904 
L 559.743742 210.356068 
L 559.949453 210.356068 
L 560.155163 211.813904 
L 560.360874 210.356068 
L 561.595137 210.356068 
L 561.800847 208.898233 
L 562.006558 210.356068 
L 562.212268 210.356068 
L 562.417978 211.813904 
L 562.623689 210.356068 
L 562.829399 211.813904 
L 563.03511 207.440397 
L 563.24082 210.356068 
L 563.446531 208.898233 
L 563.652241 208.898233 
L 563.857952 211.813904 
L 564.063662 208.898233 
L 564.269373 210.356068 
L 564.475083 208.898233 
L 564.886504 208.898233 
L 565.092214 210.356068 
L 565.915056 210.356068 
L 566.120767 207.440397 
L 566.326477 208.898233 
L 566.943609 208.898233 
L 567.149319 210.356068 
L 567.355029 210.356068 
L 567.56074 208.898233 
L 567.76645 210.356068 
L 567.972161 210.356068 
L 568.177871 207.440397 
L 568.795003 207.440397 
L 569.000713 205.982561 
L 569.206424 207.440397 
L 569.412134 205.982561 
L 569.617845 207.440397 
L 569.823555 207.440397 
L 570.029265 208.898233 
L 570.234976 208.898233 
L 570.646397 205.982561 
L 571.263528 205.982561 
L 571.469239 208.898233 
L 571.674949 207.440397 
L 571.88066 204.523587 
L 572.08637 205.982561 
L 572.703501 205.982561 
L 572.909212 207.440397 
L 573.114922 205.982561 
L 573.732054 205.982561 
L 573.937764 203.065751 
L 574.143475 205.982561 
L 574.554896 205.982561 
L 574.760606 204.523587 
L 574.966317 205.982561 
L 575.172027 205.982561 
L 575.377737 207.440397 
L 575.583448 204.523587 
L 575.789158 205.982561 
L 575.789158 205.982561 
" clip-path="url(#pfea863d3ba)" style="fill: none; stroke: #008000; stroke-width: 0.5; stroke-linecap: square"/>
   </g>
   <g id="line2d_40">
    <g clip-path="url(#pfea863d3ba)">
     <use xlink:href="#m2afe8e5c91" x="450.305777" y="356.160134" style="fill: #006400; stroke: #006400"/>
     <use xlink:href="#m2afe8e5c91" x="575.789158" y="205.982561" style="fill: #006400; stroke: #006400"/>
    </g>
   </g>
   <g id="line2d_41">
    <path d="M 588.748917 153.492506 
L 588.954628 152.03467 
L 589.160338 156.409316 
L 589.98318 137.454036 
L 590.188891 128.705883 
L 590.600312 125.790212 
L 590.806022 127.248047 
L 591.423153 115.584223 
L 592.040285 108.293906 
L 592.245995 108.293906 
L 592.863127 103.91926 
L 593.068837 103.91926 
L 593.274548 102.461424 
L 593.480258 99.545753 
L 593.685968 101.003589 
L 593.891679 98.087917 
L 594.3031 98.087917 
L 594.50881 95.171107 
L 594.920231 95.171107 
L 595.125942 92.255436 
L 595.331652 92.255436 
L 595.537363 90.7976 
L 595.743073 90.7976 
L 595.948784 87.881929 
L 596.154494 90.7976 
L 596.360204 89.339765 
L 596.565915 92.255436 
L 596.771625 87.881929 
L 597.183046 87.881929 
L 597.388757 86.422954 
L 597.594467 87.881929 
L 597.800178 87.881929 
L 598.005888 86.422954 
L 598.211599 83.507283 
L 598.417309 84.965119 
L 598.623019 83.507283 
L 599.03444 83.507283 
L 599.240151 84.965119 
L 599.445861 84.965119 
L 599.651572 82.049448 
L 599.857282 84.965119 
L 600.062993 84.965119 
L 600.268703 83.507283 
L 600.680124 86.422954 
L 601.091545 83.507283 
L 601.297255 67.468813 
L 601.914387 60.178496 
L 602.120097 61.636332 
L 602.531518 58.72066 
L 602.737229 58.72066 
L 602.942939 55.804989 
L 603.14865 57.262825 
L 603.35436 57.262825 
L 603.560071 58.72066 
L 603.765781 57.262825 
L 603.971491 57.262825 
L 604.177202 58.72066 
L 604.794333 58.72066 
L 605.205754 55.804989 
L 605.411465 55.804989 
L 605.617175 57.262825 
L 605.822886 57.262825 
L 606.028596 55.804989 
L 606.440017 55.804989 
L 606.645727 52.888179 
L 606.851438 54.346015 
L 607.057148 57.262825 
L 607.468569 52.888179 
L 607.87999 55.804989 
L 608.291411 55.804989 
L 608.497122 57.262825 
L 608.702832 57.262825 
L 608.908543 55.804989 
L 609.319963 55.804989 
L 609.525674 57.262825 
L 610.348516 57.262825 
L 610.554226 58.72066 
L 610.965647 54.346015 
L 611.171358 57.262825 
L 611.788489 57.262825 
L 611.994199 55.804989 
L 612.19991 57.262825 
L 612.40562 52.888179 
L 612.611331 55.804989 
L 614.257014 55.804989 
L 614.874146 68.926649 
L 615.491277 73.301295 
L 615.696988 76.216966 
L 616.108409 76.216966 
L 616.314119 79.132637 
L 616.51983 76.216966 
L 616.93125 76.216966 
L 617.136961 80.591612 
L 617.342671 77.674802 
L 617.548382 80.591612 
L 617.754092 79.132637 
L 617.959803 80.591612 
L 618.165513 80.591612 
L 618.371224 77.674802 
L 618.576934 79.132637 
L 618.782645 77.674802 
L 618.988355 79.132637 
L 619.399776 79.132637 
L 619.605486 80.591612 
L 619.811197 80.591612 
L 620.016907 79.132637 
L 620.222618 80.591612 
L 620.634039 80.591612 
L 620.839749 84.965119 
L 621.04546 80.591612 
L 621.456881 80.591612 
L 621.662591 82.049448 
L 621.868302 80.591612 
L 622.074012 82.049448 
L 622.691143 82.049448 
L 622.896854 83.507283 
L 623.102564 83.507283 
L 623.308275 80.591612 
L 623.513985 82.049448 
L 623.719696 82.049448 
L 623.925406 83.507283 
L 624.131117 82.049448 
L 624.953958 82.049448 
L 625.365379 79.132637 
L 625.57109 80.591612 
L 625.7768 80.591612 
L 625.982511 82.049448 
L 626.188221 82.049448 
L 626.393932 80.591612 
L 626.599642 82.049448 
L 626.805353 80.591612 
L 627.216774 83.507283 
L 627.628194 83.507283 
L 627.833905 80.591612 
L 628.039615 80.591612 
L 628.451036 83.507283 
L 628.656747 83.507283 
L 628.862457 82.049448 
L 629.068168 82.049448 
L 629.273878 80.591612 
L 629.685299 83.507283 
L 629.89101 82.049448 
L 630.30243 82.049448 
L 630.508141 83.507283 
L 630.713851 82.049448 
L 630.919562 83.507283 
L 631.125272 83.507283 
L 631.330983 82.049448 
L 631.536693 83.507283 
L 631.742404 83.507283 
L 631.948114 84.965119 
L 631.948114 84.965119 
" clip-path="url(#pfea863d3ba)" style="fill: none; stroke: #008000; stroke-width: 0.5; stroke-linecap: square"/>
   </g>
   <g id="line2d_42">
    <g clip-path="url(#pfea863d3ba)">
     <use xlink:href="#m2afe8e5c91" x="588.748917" y="153.492506" style="fill: #006400; stroke: #006400"/>
     <use xlink:href="#m2afe8e5c91" x="631.948114" y="84.965119" style="fill: #006400; stroke: #006400"/>
    </g>
   </g>
   <g id="line2d_43">
    <path d="M 634.210929 74.75913 
L 634.41664 106.83607 
L 634.62235 105.378235 
L 634.828061 118.499894 
L 635.033771 146.203327 
L 635.239481 143.286517 
L 635.445192 141.828682 
L 635.650902 141.828682 
L 635.856613 140.370846 
L 636.062323 141.828682 
L 636.268034 140.370846 
L 636.473744 140.370846 
L 636.679455 138.91301 
L 636.885165 135.9962 
L 637.090876 134.538364 
L 637.296586 133.080529 
L 637.502297 133.080529 
L 637.708007 134.538364 
L 637.913717 133.080529 
L 638.119428 133.080529 
L 638.325138 133.080529 
L 638.530849 131.622693 
L 638.736559 130.164857 
L 638.94227 131.622693 
L 639.14798 128.705883 
L 639.353691 130.164857 
L 639.559401 131.622693 
L 639.765112 130.164857 
L 639.970822 130.164857 
L 640.176533 130.164857 
L 640.382243 130.164857 
L 640.587953 128.705883 
L 640.793664 128.705883 
L 640.999374 128.705883 
L 641.205085 125.790212 
L 641.410795 125.790212 
L 641.616506 125.790212 
L 641.822216 127.248047 
L 642.027927 124.332376 
L 642.233637 124.332376 
L 642.439348 127.248047 
L 642.645058 125.790212 
L 642.850769 127.248047 
L 643.056479 127.248047 
L 643.262189 125.790212 
L 643.4679 125.790212 
L 643.67361 124.332376 
L 643.879321 125.790212 
L 644.085031 125.790212 
L 644.290742 125.790212 
L 644.496452 122.87454 
L 644.702163 124.332376 
L 644.907873 122.87454 
L 645.113584 122.87454 
L 645.319294 119.95773 
L 645.525005 121.416705 
L 645.730715 121.416705 
L 645.936425 122.87454 
L 646.142136 122.87454 
L 646.347846 121.416705 
L 646.553557 122.87454 
L 646.759267 122.87454 
L 646.964978 122.87454 
L 647.170688 121.416705 
L 647.376399 121.416705 
L 647.582109 121.416705 
L 647.78782 119.95773 
L 647.99353 122.87454 
L 648.19924 119.95773 
L 648.404951 119.95773 
L 648.610661 119.95773 
L 648.816372 119.95773 
L 649.022082 119.95773 
L 649.227793 119.95773 
L 649.433503 121.416705 
L 649.639214 121.416705 
L 649.844924 119.95773 
L 650.050635 119.95773 
L 650.256345 118.499894 
L 650.462056 118.499894 
L 650.667766 117.042059 
L 650.873476 119.95773 
L 651.079187 118.499894 
L 651.284897 119.95773 
L 651.490608 118.499894 
L 651.696318 118.499894 
L 651.902029 118.499894 
L 652.107739 117.042059 
L 652.31345 119.95773 
L 652.51916 118.499894 
L 652.724871 114.126387 
L 652.930581 115.584223 
L 653.136292 117.042059 
L 653.342002 115.584223 
L 653.547712 114.126387 
L 653.753423 118.499894 
L 653.959133 115.584223 
L 654.164844 112.667413 
L 654.370554 112.667413 
L 654.576265 114.126387 
L 654.781975 112.667413 
L 654.987686 111.209577 
L 655.193396 112.667413 
L 655.399107 112.667413 
L 655.604817 112.667413 
L 655.810528 112.667413 
L 656.016238 112.667413 
L 656.221948 112.667413 
L 656.427659 111.209577 
L 656.633369 111.209577 
L 656.83908 109.751742 
L 657.04479 109.751742 
L 657.250501 108.293906 
L 657.456211 108.293906 
L 657.661922 106.83607 
L 657.867632 103.91926 
L 658.073343 115.584223 
L 658.279053 127.248047 
L 658.484764 109.751742 
L 658.690474 101.003589 
L 658.896184 134.538364 
L 659.101895 156.409316 
L 659.307605 160.782823 
" clip-path="url(#pfea863d3ba)" style="fill: none; stroke: #008000; stroke-width: 0.5; stroke-linecap: square"/>
   </g>
   <g id="line2d_44">
    <g clip-path="url(#pfea863d3ba)">
     <use xlink:href="#m2afe8e5c91" x="634.210929" y="74.75913" style="fill: #006400; stroke: #006400"/>
     <use xlink:href="#m2afe8e5c91" x="659.307605" y="160.782823" style="fill: #006400; stroke: #006400"/>
    </g>
   </g>
   <g id="line2d_45">
    <path d="M 714.438009 305.129052 
L 714.643719 299.296571 
L 714.84943 299.296571 
L 715.05514 297.838735 
L 715.260851 299.296571 
L 715.672272 293.464089 
L 715.877982 294.921925 
L 716.083692 294.921925 
L 716.495113 287.631608 
L 716.700824 289.090583 
L 716.906534 286.173772 
L 717.112245 286.173772 
L 717.317955 287.631608 
L 717.523666 287.631608 
L 717.935087 284.715937 
L 718.140797 284.715937 
L 718.346508 283.258101 
L 718.552218 280.34243 
L 718.757928 283.258101 
L 718.963639 283.258101 
L 719.37506 278.883455 
L 719.58077 277.425619 
L 719.786481 277.425619 
L 719.992191 280.34243 
L 720.197902 278.883455 
L 720.609323 274.509948 
L 720.815033 275.967784 
L 721.020744 274.509948 
L 721.226454 275.967784 
L 721.432164 274.509948 
L 721.637875 278.883455 
L 722.049296 274.509948 
L 722.460717 274.509948 
L 722.666427 275.967784 
L 722.872138 273.052113 
L 723.077848 277.425619 
L 723.489269 273.052113 
L 723.69498 271.594277 
L 724.1064 274.509948 
L 724.312111 274.509948 
L 724.517821 271.594277 
L 725.134953 271.594277 
L 725.340663 273.052113 
L 725.546374 270.135302 
L 725.752084 273.052113 
L 726.369216 268.677467 
L 726.574926 270.135302 
L 726.780636 273.052113 
L 727.192057 270.135302 
L 727.397768 271.594277 
L 727.809189 268.677467 
L 728.22061 271.594277 
L 728.42632 271.594277 
L 728.632031 268.677467 
L 728.837741 268.677467 
L 729.249162 271.594277 
L 729.660583 268.677467 
L 729.866293 268.677467 
L 730.072004 270.135302 
L 730.277714 270.135302 
L 730.483425 268.677467 
L 730.689135 270.135302 
L 731.100556 270.135302 
L 731.306267 268.677467 
L 731.511977 268.677467 
L 731.717687 270.135302 
L 732.129108 267.219631 
L 732.540529 270.135302 
L 732.74624 268.677467 
L 733.157661 268.677467 
L 733.363371 270.135302 
L 733.569082 267.219631 
L 734.186213 267.219631 
L 734.597634 281.800265 
L 735.009055 290.548418 
L 735.420476 283.258101 
L 735.831897 274.509948 
L 736.037607 277.425619 
L 736.243318 274.509948 
L 736.449028 274.509948 
L 736.654739 273.052113 
L 736.860449 274.509948 
L 737.27187 271.594277 
L 737.47758 273.052113 
L 737.889001 273.052113 
L 738.094712 274.509948 
L 738.300422 274.509948 
L 738.711843 271.594277 
L 739.328975 271.594277 
L 739.534685 270.135302 
L 739.740395 271.594277 
L 739.946106 270.135302 
L 740.151816 271.594277 
L 740.357527 270.135302 
L 740.563237 271.594277 
L 740.768948 270.135302 
L 740.974658 270.135302 
L 741.180369 268.677467 
L 741.59179 271.594277 
L 741.7975 270.135302 
L 742.003211 270.135302 
L 742.208921 271.594277 
L 742.620342 268.677467 
L 742.826052 268.677467 
L 743.031763 271.594277 
L 743.237473 268.677467 
L 743.648894 271.594277 
L 743.854605 270.135302 
L 744.060315 271.594277 
L 744.266026 270.135302 
L 744.471736 274.509948 
L 744.677447 286.173772 
L 744.883157 290.548418 
L 745.088867 318.250712 
L 745.294578 308.044724 
L 745.500288 343.037335 
L 745.500288 343.037335 
" clip-path="url(#pfea863d3ba)" style="fill: none; stroke: #008000; stroke-width: 0.5; stroke-linecap: square"/>
   </g>
   <g id="line2d_46">
    <g clip-path="url(#pfea863d3ba)">
     <use xlink:href="#m2afe8e5c91" x="714.438009" y="305.129052" style="fill: #006400; stroke: #006400"/>
     <use xlink:href="#m2afe8e5c91" x="745.500288" y="343.037335" style="fill: #006400; stroke: #006400"/>
    </g>
   </g>
   <g id="line2d_47">
    <path d="M 748.791656 366.366122 
L 749.408787 341.579499 
L 750.437339 328.456701 
L 750.64305 328.456701 
L 750.84876 329.915675 
L 751.260181 326.998865 
L 751.465892 328.456701 
L 751.671602 332.831347 
L 751.877313 328.456701 
L 752.083023 329.915675 
L 752.288734 326.998865 
L 752.494444 326.998865 
L 752.700154 324.083194 
L 752.905865 325.541029 
L 753.111575 325.541029 
L 753.522996 322.625358 
L 753.728707 324.083194 
L 753.934417 321.166384 
L 754.140128 322.625358 
L 754.551549 331.373511 
L 754.757259 348.869816 
L 755.16868 335.747018 
L 755.580101 332.831347 
L 755.785811 334.289182 
L 756.197232 331.373511 
L 756.608653 331.373511 
L 756.814364 329.915675 
L 757.225785 329.915675 
L 757.431495 331.373511 
L 757.637206 329.915675 
L 757.842916 329.915675 
L 758.048626 331.373511 
L 758.460047 328.456701 
L 758.665758 331.373511 
L 758.871468 331.373511 
L 759.077179 328.456701 
L 759.282889 331.373511 
L 759.4886 331.373511 
L 759.69431 329.915675 
L 759.900021 331.373511 
L 760.105731 331.373511 
L 760.517152 326.998865 
L 760.722862 328.456701 
L 761.134283 328.456701 
L 761.339994 326.998865 
L 761.751415 331.373511 
L 762.162836 334.289182 
L 762.368546 332.831347 
L 762.574257 340.121664 
L 762.985678 344.495171 
L 763.191388 343.037335 
L 763.397098 343.037335 
L 763.602809 341.579499 
L 763.808519 341.579499 
L 764.01423 340.121664 
L 764.21994 341.579499 
L 764.425651 340.121664 
L 764.631361 340.121664 
L 764.837072 337.204853 
L 765.042782 338.663828 
L 765.454203 335.747018 
L 765.865624 335.747018 
L 766.071334 334.289182 
L 766.277045 351.785488 
L 766.482755 354.702298 
L 766.688466 350.327652 
L 766.894176 351.785488 
L 767.099887 354.702298 
L 767.305597 354.702298 
L 767.511308 353.243323 
L 767.717018 350.327652 
L 768.128439 350.327652 
L 768.334149 347.411981 
L 768.53986 348.869816 
L 768.74557 345.953006 
L 768.951281 340.121664 
L 769.156991 340.121664 
L 769.774123 335.747018 
L 769.979833 337.204853 
L 770.185544 335.747018 
L 770.596965 331.373511 
L 770.802675 332.831347 
L 771.214096 332.831347 
L 771.419806 331.373511 
L 771.625517 332.831347 
L 771.831227 328.456701 
L 772.036938 329.915675 
L 772.448359 329.915675 
L 772.654069 328.456701 
L 773.06549 331.373511 
L 773.271201 329.915675 
L 773.682621 329.915675 
L 773.888332 331.373511 
L 774.094042 328.456701 
L 774.299753 329.915675 
L 774.505463 328.456701 
L 774.711174 328.456701 
L 774.916884 329.915675 
L 775.122595 338.663828 
L 775.328305 338.663828 
L 775.534016 335.747018 
L 775.739726 337.204853 
L 776.356857 332.831347 
L 776.562568 332.831347 
L 776.768278 331.373511 
L 776.973989 331.373511 
L 777.179699 334.289182 
L 777.38541 332.831347 
L 777.796831 341.579499 
L 778.208252 334.289182 
L 778.413962 332.831347 
L 778.619673 332.831347 
L 778.825383 331.373511 
L 779.442514 331.373511 
L 779.648225 329.915675 
L 780.059646 332.831347 
L 780.265356 329.915675 
L 780.676777 332.831347 
L 781.088198 329.915675 
L 781.499619 329.915675 
L 781.705329 328.456701 
L 781.91104 328.456701 
L 782.11675 331.373511 
L 782.528171 328.456701 
L 782.733882 329.915675 
L 782.939592 329.915675 
L 783.145303 328.456701 
L 783.351013 331.373511 
L 783.762434 328.456701 
L 783.968144 328.456701 
L 784.173855 329.915675 
L 784.379565 328.456701 
L 784.585276 328.456701 
L 784.790986 325.541029 
L 784.996697 331.373511 
L 785.408118 331.373511 
L 785.613828 335.747018 
L 785.819539 335.747018 
L 786.025249 332.831347 
L 786.23096 332.831347 
L 786.43667 334.289182 
L 786.64238 332.831347 
L 786.848091 332.831347 
L 787.053801 334.289182 
L 787.670933 334.289182 
L 787.876643 332.831347 
L 788.082354 332.831347 
L 788.288064 334.289182 
L 788.493775 332.831347 
L 788.699485 332.831347 
L 788.905196 335.747018 
L 789.110906 335.747018 
L 789.316616 334.289182 
L 789.522327 334.289182 
L 789.728037 331.373511 
L 789.933748 332.831347 
L 790.550879 332.831347 
L 790.75659 329.915675 
L 791.168011 343.037335 
L 791.579432 332.831347 
L 791.785142 331.373511 
L 791.990852 331.373511 
L 792.402273 328.456701 
L 792.813694 328.456701 
L 793.019405 326.998865 
L 793.225115 326.998865 
L 793.430826 325.541029 
L 793.842247 325.541029 
L 794.047957 326.998865 
L 794.459378 324.083194 
L 794.665088 325.541029 
L 794.870799 324.083194 
L 795.076509 324.083194 
L 795.28222 322.625358 
L 795.48793 324.083194 
L 795.693641 324.083194 
L 796.105062 331.373511 
L 796.310772 337.204853 
L 796.516483 335.747018 
L 797.339324 325.541029 
L 797.545035 324.083194 
L 797.750745 325.541029 
L 797.956456 324.083194 
L 798.162166 325.541029 
L 798.367877 324.083194 
L 798.573587 325.541029 
L 798.779298 322.625358 
L 798.985008 324.083194 
L 799.190719 324.083194 
L 799.396429 322.625358 
L 799.80785 322.625358 
L 800.01356 321.166384 
L 800.219271 321.166384 
L 800.424981 324.083194 
L 800.630692 319.708548 
L 800.836402 321.166384 
L 801.247823 321.166384 
L 801.453534 319.708548 
L 801.659244 321.166384 
L 801.864955 319.708548 
L 802.276375 319.708548 
L 802.482086 321.166384 
L 802.687796 321.166384 
L 802.893507 318.250712 
L 803.099217 319.708548 
L 803.304928 319.708548 
L 803.510638 316.792877 
L 803.922059 319.708548 
L 804.12777 316.792877 
L 804.33348 316.792877 
L 804.539191 318.250712 
L 804.744901 316.792877 
L 804.950611 316.792877 
L 805.156322 318.250712 
L 805.567743 315.335041 
L 805.979164 318.250712 
L 806.184874 316.792877 
L 806.390585 318.250712 
L 806.596295 316.792877 
L 807.624847 316.792877 
L 807.830558 315.335041 
L 808.036268 316.792877 
L 808.241979 315.335041 
L 808.6534 315.335041 
L 808.85911 316.792877 
L 809.064821 313.877205 
L 809.270531 315.335041 
L 809.887663 315.335041 
L 810.093373 316.792877 
L 810.299083 316.792877 
L 810.504794 315.335041 
L 810.710504 316.792877 
L 810.916215 316.792877 
L 811.121925 315.335041 
L 811.327636 315.335041 
L 811.533346 316.792877 
L 811.739057 316.792877 
L 811.944767 315.335041 
L 812.150478 316.792877 
L 812.356188 316.792877 
L 812.767609 313.877205 
L 812.973319 316.792877 
L 813.17903 316.792877 
L 813.38474 315.335041 
L 813.590451 315.335041 
L 813.796161 316.792877 
L 814.001872 315.335041 
L 814.824714 315.335041 
L 815.030424 316.792877 
L 815.236134 315.335041 
L 815.647555 318.250712 
L 815.853266 318.250712 
L 816.058976 319.708548 
L 816.264687 318.250712 
L 816.676108 322.625358 
L 816.881818 338.663828 
L 816.881818 338.663828 
" clip-path="url(#pfea863d3ba)" style="fill: none; stroke: #008000; stroke-width: 0.5; stroke-linecap: square"/>
   </g>
   <g id="line2d_48">
    <g clip-path="url(#pfea863d3ba)">
     <use xlink:href="#m2afe8e5c91" x="748.791656" y="366.366122" style="fill: #006400; stroke: #006400"/>
     <use xlink:href="#m2afe8e5c91" x="816.881818" y="338.663828" style="fill: #006400; stroke: #006400"/>
    </g>
   </g>
   <g id="patch_3">
    <path d="M 54.2 534.04 
L 54.2 36.48525 
" style="fill: none; stroke: #000000; stroke-width: 0.8; stroke-linejoin: miter; stroke-linecap: square"/>
   </g>
   <g id="patch_4">
    <path d="M 853.2 534.04 
L 853.2 36.48525 
" style="fill: none; stroke: #000000; stroke-width: 0.8; stroke-linejoin: miter; stroke-linecap: square"/>
   </g>
   <g id="patch_5">
    <path d="M 54.2 534.04 
L 853.2 534.04 
" style="fill: none; stroke: #000000; stroke-width: 0.8; stroke-linejoin: miter; stroke-linecap: square"/>
   </g>
   <g id="patch_6">
    <path d="M 54.2 36.48525 
L 853.2 36.48525 
" style="fill: none; stroke: #000000; stroke-width: 0.8; stroke-linejoin: miter; stroke-linecap: square"/>
   </g>
   <g id="text_20">
    <!-- EDA Filtering: data_69_E4 -->
    <g transform="translate(389.414062 19.009312) scale(0.1 -0.1)">
     <defs>
      <path id="DejaVuSans-46" d="M 628 4666 
L 3309 4666 
L 3309 4134 
L 1259 4134 
L 1259 2759 
L 3109 2759 
L 3109 2228 
L 1259 2228 
L 1259 0 
L 628 0 
L 628 4666 
z
" transform="scale(0.015625)"/>
      <path id="DejaVuSans-6c" d="M 603 4863 
L 1178 4863 
L 1178 0 
L 603 0 
L 603 4863 
z
" transform="scale(0.015625)"/>
      <path id="DejaVuSans-72" d="M 2631 2963 
Q 2534 3019 2420 3045 
Q 2306 3072 2169 3072 
Q 1681 3072 1420 2755 
Q 1159 2438 1159 1844 
L 1159 0 
L 581 0 
L 581 3500 
L 1159 3500 
L 1159 2956 
Q 1341 3275 1631 3429 
Q 1922 3584 2338 3584 
Q 2397 3584 2469 3576 
Q 2541 3569 2628 3553 
L 2631 2963 
z
" transform="scale(0.015625)"/>
      <path id="DejaVuSans-67" d="M 2906 1791 
Q 2906 2416 2648 2759 
Q 2391 3103 1925 3103 
Q 1463 3103 1205 2759 
Q 947 2416 947 1791 
Q 947 1169 1205 825 
Q 1463 481 1925 481 
Q 2391 481 2648 825 
Q 2906 1169 2906 1791 
z
M 3481 434 
Q 3481 -459 3084 -895 
Q 2688 -1331 1869 -1331 
Q 1566 -1331 1297 -1286 
Q 1028 -1241 775 -1147 
L 775 -588 
Q 1028 -725 1275 -790 
Q 1522 -856 1778 -856 
Q 2344 -856 2625 -561 
Q 2906 -266 2906 331 
L 2906 616 
Q 2728 306 2450 153 
Q 2172 0 1784 0 
Q 1141 0 747 490 
Q 353 981 353 1791 
Q 353 2603 747 3093 
Q 1141 3584 1784 3584 
Q 2172 3584 2450 3431 
Q 2728 3278 2906 2969 
L 2906 3500 
L 3481 3500 
L 3481 434 
z
" transform="scale(0.015625)"/>
      <path id="DejaVuSans-3a" d="M 750 794 
L 1409 794 
L 1409 0 
L 750 0 
L 750 794 
z
M 750 3309 
L 1409 3309 
L 1409 2516 
L 750 2516 
L 750 3309 
z
" transform="scale(0.015625)"/>
      <path id="DejaVuSans-64" d="M 2906 2969 
L 2906 4863 
L 3481 4863 
L 3481 0 
L 2906 0 
L 2906 525 
Q 2725 213 2448 61 
Q 2172 -91 1784 -91 
Q 1150 -91 751 415 
Q 353 922 353 1747 
Q 353 2572 751 3078 
Q 1150 3584 1784 3584 
Q 2172 3584 2448 3432 
Q 2725 3281 2906 2969 
z
M 947 1747 
Q 947 1113 1208 752 
Q 1469 391 1925 391 
Q 2381 391 2643 752 
Q 2906 1113 2906 1747 
Q 2906 2381 2643 2742 
Q 2381 3103 1925 3103 
Q 1469 3103 1208 2742 
Q 947 2381 947 1747 
z
" transform="scale(0.015625)"/>
      <path id="DejaVuSans-61" d="M 2194 1759 
Q 1497 1759 1228 1600 
Q 959 1441 959 1056 
Q 959 750 1161 570 
Q 1363 391 1709 391 
Q 2188 391 2477 730 
Q 2766 1069 2766 1631 
L 2766 1759 
L 2194 1759 
z
M 3341 1997 
L 3341 0 
L 2766 0 
L 2766 531 
Q 2569 213 2275 61 
Q 1981 -91 1556 -91 
Q 1019 -91 701 211 
Q 384 513 384 1019 
Q 384 1609 779 1909 
Q 1175 2209 1959 2209 
L 2766 2209 
L 2766 2266 
Q 2766 2663 2505 2880 
Q 2244 3097 1772 3097 
Q 1472 3097 1187 3025 
Q 903 2953 641 2809 
L 641 3341 
Q 956 3463 1253 3523 
Q 1550 3584 1831 3584 
Q 2591 3584 2966 3190 
Q 3341 2797 3341 1997 
z
" transform="scale(0.015625)"/>
      <path id="DejaVuSans-5f" d="M 3263 -1063 
L 3263 -1509 
L -63 -1509 
L -63 -1063 
L 3263 -1063 
z
" transform="scale(0.015625)"/>
      <path id="DejaVuSans-39" d="M 703 97 
L 703 672 
Q 941 559 1184 500 
Q 1428 441 1663 441 
Q 2288 441 2617 861 
Q 2947 1281 2994 2138 
Q 2813 1869 2534 1725 
Q 2256 1581 1919 1581 
Q 1219 1581 811 2004 
Q 403 2428 403 3163 
Q 403 3881 828 4315 
Q 1253 4750 1959 4750 
Q 2769 4750 3195 4129 
Q 3622 3509 3622 2328 
Q 3622 1225 3098 567 
Q 2575 -91 1691 -91 
Q 1453 -91 1209 -44 
Q 966 3 703 97 
z
M 1959 2075 
Q 2384 2075 2632 2365 
Q 2881 2656 2881 3163 
Q 2881 3666 2632 3958 
Q 2384 4250 1959 4250 
Q 1534 4250 1286 3958 
Q 1038 3666 1038 3163 
Q 1038 2656 1286 2365 
Q 1534 2075 1959 2075 
z
" transform="scale(0.015625)"/>
     </defs>
     <use xlink:href="#DejaVuSans-45"/>
     <use xlink:href="#DejaVuSans-44" transform="translate(63.183594 0)"/>
     <use xlink:href="#DejaVuSans-41" transform="translate(138.435547 0)"/>
     <use xlink:href="#DejaVuSans-20" transform="translate(206.84375 0)"/>
     <use xlink:href="#DejaVuSans-46" transform="translate(238.630859 0)"/>
     <use xlink:href="#DejaVuSans-69" transform="translate(288.900391 0)"/>
     <use xlink:href="#DejaVuSans-6c" transform="translate(316.683594 0)"/>
     <use xlink:href="#DejaVuSans-74" transform="translate(344.466797 0)"/>
     <use xlink:href="#DejaVuSans-65" transform="translate(383.675781 0)"/>
     <use xlink:href="#DejaVuSans-72" transform="translate(445.199219 0)"/>
     <use xlink:href="#DejaVuSans-69" transform="translate(486.3125 0)"/>
     <use xlink:href="#DejaVuSans-6e" transform="translate(514.095703 0)"/>
     <use xlink:href="#DejaVuSans-67" transform="translate(577.474609 0)"/>
     <use xlink:href="#DejaVuSans-3a" transform="translate(640.951172 0)"/>
     <use xlink:href="#DejaVuSans-20" transform="translate(674.642578 0)"/>
     <use xlink:href="#DejaVuSans-64" transform="translate(706.429688 0)"/>
     <use xlink:href="#DejaVuSans-61" transform="translate(769.90625 0)"/>
     <use xlink:href="#DejaVuSans-74" transform="translate(831.185547 0)"/>
     <use xlink:href="#DejaVuSans-61" transform="translate(870.394531 0)"/>
     <use xlink:href="#DejaVuSans-5f" transform="translate(931.673828 0)"/>
     <use xlink:href="#DejaVuSans-36" transform="translate(981.673828 0)"/>
     <use xlink:href="#DejaVuSans-39" transform="translate(1045.296875 0)"/>
     <use xlink:href="#DejaVuSans-5f" transform="translate(1108.919922 0)"/>
     <use xlink:href="#DejaVuSans-45" transform="translate(1158.919922 0)"/>
     <use xlink:href="#DejaVuSans-34" transform="translate(1222.103516 0)"/>
    </g>
    <!-- Window=33, Threshold=0.15 -->
    <g transform="translate(380.296875 30.48525) scale(0.1 -0.1)">
     <defs>
      <path id="DejaVuSans-57" d="M 213 4666 
L 850 4666 
L 1831 722 
L 2809 4666 
L 3519 4666 
L 4500 722 
L 5478 4666 
L 6119 4666 
L 4947 0 
L 4153 0 
L 3169 4050 
L 2175 0 
L 1381 0 
L 213 4666 
z
" transform="scale(0.015625)"/>
      <path id="DejaVuSans-6f" d="M 1959 3097 
Q 1497 3097 1228 2736 
Q 959 2375 959 1747 
Q 959 1119 1226 758 
Q 1494 397 1959 397 
Q 2419 397 2687 759 
Q 2956 1122 2956 1747 
Q 2956 2369 2687 2733 
Q 2419 3097 1959 3097 
z
M 1959 3584 
Q 2709 3584 3137 3096 
Q 3566 2609 3566 1747 
Q 3566 888 3137 398 
Q 2709 -91 1959 -91 
Q 1206 -91 779 398 
Q 353 888 353 1747 
Q 353 2609 779 3096 
Q 1206 3584 1959 3584 
z
" transform="scale(0.015625)"/>
      <path id="DejaVuSans-77" d="M 269 3500 
L 844 3500 
L 1563 769 
L 2278 3500 
L 2956 3500 
L 3675 769 
L 4391 3500 
L 4966 3500 
L 4050 0 
L 3372 0 
L 2619 2869 
L 1863 0 
L 1184 0 
L 269 3500 
z
" transform="scale(0.015625)"/>
      <path id="DejaVuSans-3d" d="M 678 2906 
L 4684 2906 
L 4684 2381 
L 678 2381 
L 678 2906 
z
M 678 1631 
L 4684 1631 
L 4684 1100 
L 678 1100 
L 678 1631 
z
" transform="scale(0.015625)"/>
      <path id="DejaVuSans-2c" d="M 750 794 
L 1409 794 
L 1409 256 
L 897 -744 
L 494 -744 
L 750 256 
L 750 794 
z
" transform="scale(0.015625)"/>
      <path id="DejaVuSans-68" d="M 3513 2113 
L 3513 0 
L 2938 0 
L 2938 2094 
Q 2938 2591 2744 2837 
Q 2550 3084 2163 3084 
Q 1697 3084 1428 2787 
Q 1159 2491 1159 1978 
L 1159 0 
L 581 0 
L 581 4863 
L 1159 4863 
L 1159 2956 
Q 1366 3272 1645 3428 
Q 1925 3584 2291 3584 
Q 2894 3584 3203 3211 
Q 3513 2838 3513 2113 
z
" transform="scale(0.015625)"/>
     </defs>
     <use xlink:href="#DejaVuSans-57"/>
     <use xlink:href="#DejaVuSans-69" transform="translate(96.626953 0)"/>
     <use xlink:href="#DejaVuSans-6e" transform="translate(124.410156 0)"/>
     <use xlink:href="#DejaVuSans-64" transform="translate(187.789062 0)"/>
     <use xlink:href="#DejaVuSans-6f" transform="translate(251.265625 0)"/>
     <use xlink:href="#DejaVuSans-77" transform="translate(312.447266 0)"/>
     <use xlink:href="#DejaVuSans-3d" transform="translate(394.234375 0)"/>
     <use xlink:href="#DejaVuSans-33" transform="translate(478.023438 0)"/>
     <use xlink:href="#DejaVuSans-33" transform="translate(541.646484 0)"/>
     <use xlink:href="#DejaVuSans-2c" transform="translate(605.269531 0)"/>
     <use xlink:href="#DejaVuSans-20" transform="translate(637.056641 0)"/>
     <use xlink:href="#DejaVuSans-54" transform="translate(668.84375 0)"/>
     <use xlink:href="#DejaVuSans-68" transform="translate(729.927734 0)"/>
     <use xlink:href="#DejaVuSans-72" transform="translate(793.306641 0)"/>
     <use xlink:href="#DejaVuSans-65" transform="translate(832.169922 0)"/>
     <use xlink:href="#DejaVuSans-73" transform="translate(893.693359 0)"/>
     <use xlink:href="#DejaVuSans-68" transform="translate(945.792969 0)"/>
     <use xlink:href="#DejaVuSans-6f" transform="translate(1009.171875 0)"/>
     <use xlink:href="#DejaVuSans-6c" transform="translate(1070.353516 0)"/>
     <use xlink:href="#DejaVuSans-64" transform="translate(1098.136719 0)"/>
     <use xlink:href="#DejaVuSans-3d" transform="translate(1161.613281 0)"/>
     <use xlink:href="#DejaVuSans-30" transform="translate(1245.402344 0)"/>
     <use xlink:href="#DejaVuSans-2e" transform="translate(1309.025391 0)"/>
     <use xlink:href="#DejaVuSans-31" transform="translate(1340.8125 0)"/>
     <use xlink:href="#DejaVuSans-35" transform="translate(1404.435547 0)"/>
    </g>
   </g>
   <g id="legend_1">
    <g id="patch_7">
     <path d="M 752.80625 73.8415 
L 846.2 73.8415 
Q 848.2 73.8415 848.2 71.8415 
L 848.2 43.48525 
Q 848.2 41.48525 846.2 41.48525 
L 752.80625 41.48525 
Q 750.80625 41.48525 750.80625 43.48525 
L 750.80625 71.8415 
Q 750.80625 73.8415 752.80625 73.8415 
z
" style="fill: #ffffff; opacity: 0.8; stroke: #cccccc; stroke-linejoin: miter"/>
    </g>
    <g id="line2d_49">
     <path d="M 754.80625 49.583687 
L 764.80625 49.583687 
L 774.80625 49.583687 
" style="fill: none; stroke: #008000; stroke-width: 0.5; stroke-linecap: square"/>
    </g>
    <g id="text_21">
     <!-- Valid (≥20s) -->
     <g transform="translate(782.80625 53.083687) scale(0.1 -0.1)">
      <defs>
       <path id="DejaVuSans-56" d="M 1831 0 
L 50 4666 
L 709 4666 
L 2188 738 
L 3669 4666 
L 4325 4666 
L 2547 0 
L 1831 0 
z
" transform="scale(0.015625)"/>
       <path id="DejaVuSans-2265" d="M 678 3175 
L 678 3725 
L 4684 2578 
L 4684 2047 
L 678 897 
L 678 1453 
L 3681 2309 
L 678 3175 
z
M 4684 531 
L 4684 0 
L 678 0 
L 678 531 
L 4684 531 
z
" transform="scale(0.015625)"/>
      </defs>
      <use xlink:href="#DejaVuSans-56"/>
      <use xlink:href="#DejaVuSans-61" transform="translate(60.658203 0)"/>
      <use xlink:href="#DejaVuSans-6c" transform="translate(121.9375 0)"/>
      <use xlink:href="#DejaVuSans-69" transform="translate(149.720703 0)"/>
      <use xlink:href="#DejaVuSans-64" transform="translate(177.503906 0)"/>
      <use xlink:href="#DejaVuSans-20" transform="translate(240.980469 0)"/>
      <use xlink:href="#DejaVuSans-28" transform="translate(272.767578 0)"/>
      <use xlink:href="#DejaVuSans-2265" transform="translate(311.78125 0)"/>
      <use xlink:href="#DejaVuSans-32" transform="translate(395.570312 0)"/>
      <use xlink:href="#DejaVuSans-30" transform="translate(459.193359 0)"/>
      <use xlink:href="#DejaVuSans-73" transform="translate(522.816406 0)"/>
      <use xlink:href="#DejaVuSans-29" transform="translate(574.916016 0)"/>
     </g>
    </g>
    <g id="line2d_50">
     <g>
      <use xlink:href="#m2afe8e5c91" x="764.80625" y="64.261813" style="fill: #006400; stroke: #006400"/>
     </g>
    </g>
    <g id="text_22">
     <!-- Endpoints -->
     <g transform="translate(782.80625 67.761813) scale(0.1 -0.1)">
      <defs>
       <path id="DejaVuSans-70" d="M 1159 525 
L 1159 -1331 
L 581 -1331 
L 581 3500 
L 1159 3500 
L 1159 2969 
Q 1341 3281 1617 3432 
Q 1894 3584 2278 3584 
Q 2916 3584 3314 3078 
Q 3713 2572 3713 1747 
Q 3713 922 3314 415 
Q 2916 -91 2278 -91 
Q 1894 -91 1617 61 
Q 1341 213 1159 525 
z
M 3116 1747 
Q 3116 2381 2855 2742 
Q 2594 3103 2138 3103 
Q 1681 3103 1420 2742 
Q 1159 2381 1159 1747 
Q 1159 1113 1420 752 
Q 1681 391 2138 391 
Q 2594 391 2855 752 
Q 3116 1113 3116 1747 
z
" transform="scale(0.015625)"/>
      </defs>
      <use xlink:href="#DejaVuSans-45"/>
      <use xlink:href="#DejaVuSans-6e" transform="translate(63.183594 0)"/>
      <use xlink:href="#DejaVuSans-64" transform="translate(126.5625 0)"/>
      <use xlink:href="#DejaVuSans-70" transform="translate(190.039062 0)"/>
      <use xlink:href="#DejaVuSans-6f" transform="translate(253.515625 0)"/>
      <use xlink:href="#DejaVuSans-69" transform="translate(314.697266 0)"/>
      <use xlink:href="#DejaVuSans-6e" transform="translate(342.480469 0)"/>
      <use xlink:href="#DejaVuSans-74" transform="translate(405.859375 0)"/>
      <use xlink:href="#DejaVuSans-73" transform="translate(445.068359 0)"/>
     </g>
    </g>
   </g>
  </g>
 </g>
 <defs>
  <clipPath id="pfea863d3ba">
   <rect x="54.2" y="36.48525" width="799" height="497.55475"/>
  </clipPath>
 </defs>
</svg>
