<?xml version="1.0" encoding="utf-8" standalone="no"?>
<!DOCTYPE svg PUBLIC "-//W3C//DTD SVG 1.1//EN"
  "http://www.w3.org/Graphics/SVG/1.1/DTD/svg11.dtd">
<svg xmlns:xlink="http://www.w3.org/1999/xlink" width="864pt" height="576pt" viewBox="0 0 864 576" xmlns="http://www.w3.org/2000/svg" version="1.1">
 <metadata>
  <rdf:RDF xmlns:dc="http://purl.org/dc/elements/1.1/" xmlns:cc="http://creativecommons.org/ns#" xmlns:rdf="http://www.w3.org/1999/02/22-rdf-syntax-ns#">
   <cc:Work>
    <dc:type rdf:resource="http://purl.org/dc/dcmitype/StillImage"/>
    <dc:date>2025-10-16T13:33:28.421540</dc:date>
    <dc:format>image/svg+xml</dc:format>
    <dc:creator>
     <cc:Agent>
      <dc:title>Matplotlib v3.10.0, https://matplotlib.org/</dc:title>
     </cc:Agent>
    </dc:creator>
   </cc:Work>
  </rdf:RDF>
 </metadata>
 <defs>
  <style type="text/css">*{stroke-linejoin: round; stroke-linecap: butt}</style>
 </defs>
 <g id="figure_1">
  <g id="patch_1">
   <path d="M 0 576 
L 864 576 
L 864 0 
L 0 0 
z
" style="fill: #ffffff"/>
  </g>
  <g id="axes_1">
   <g id="patch_2">
    <path d="M 47.81 534.04 
L 853.2 534.04 
L 853.2 36.48525 
L 47.81 36.48525 
z
" style="fill: #ffffff"/>
   </g>
   <g id="matplotlib.axis_1">
    <g id="xtick_1">
     <g id="line2d_1">
      <path d="M 84.418636 534.04 
L 84.418636 36.48525 
" clip-path="url(#p684e58a09b)" style="fill: none; stroke: #b0b0b0; stroke-opacity: 0.3; stroke-width: 0.8; stroke-linecap: square"/>
     </g>
     <g id="line2d_2">
      <defs>
       <path id="m8ddd3aea52" d="M 0 0 
L 0 3.5 
" style="stroke: #000000; stroke-width: 0.8"/>
      </defs>
      <g>
       <use xlink:href="#m8ddd3aea52" x="84.418636" y="534.04" style="stroke: #000000; stroke-width: 0.8"/>
      </g>
     </g>
     <g id="text_1">
      <!-- 0 -->
      <g transform="translate(81.237386 548.638438) scale(0.1 -0.1)">
       <defs>
        <path id="DejaVuSans-30" d="M 2034 4250 
Q 1547 4250 1301 3770 
Q 1056 3291 1056 2328 
Q 1056 1369 1301 889 
Q 1547 409 2034 409 
Q 2525 409 2770 889 
Q 3016 1369 3016 2328 
Q 3016 3291 2770 3770 
Q 2525 4250 2034 4250 
z
M 2034 4750 
Q 2819 4750 3233 4129 
Q 3647 3509 3647 2328 
Q 3647 1150 3233 529 
Q 2819 -91 2034 -91 
Q 1250 -91 836 529 
Q 422 1150 422 2328 
Q 422 3509 836 4129 
Q 1250 4750 2034 4750 
z
" transform="scale(0.015625)"/>
       </defs>
       <use xlink:href="#DejaVuSans-30"/>
      </g>
     </g>
    </g>
    <g id="xtick_2">
     <g id="line2d_3">
      <path d="M 185.177242 534.04 
L 185.177242 36.48525 
" clip-path="url(#p684e58a09b)" style="fill: none; stroke: #b0b0b0; stroke-opacity: 0.3; stroke-width: 0.8; stroke-linecap: square"/>
     </g>
     <g id="line2d_4">
      <g>
       <use xlink:href="#m8ddd3aea52" x="185.177242" y="534.04" style="stroke: #000000; stroke-width: 0.8"/>
      </g>
     </g>
     <g id="text_2">
      <!-- 2 -->
      <g transform="translate(181.995992 548.638438) scale(0.1 -0.1)">
       <defs>
        <path id="DejaVuSans-32" d="M 1228 531 
L 3431 531 
L 3431 0 
L 469 0 
L 469 531 
Q 828 903 1448 1529 
Q 2069 2156 2228 2338 
Q 2531 2678 2651 2914 
Q 2772 3150 2772 3378 
Q 2772 3750 2511 3984 
Q 2250 4219 1831 4219 
Q 1534 4219 1204 4116 
Q 875 4013 500 3803 
L 500 4441 
Q 881 4594 1212 4672 
Q 1544 4750 1819 4750 
Q 2544 4750 2975 4387 
Q 3406 4025 3406 3419 
Q 3406 3131 3298 2873 
Q 3191 2616 2906 2266 
Q 2828 2175 2409 1742 
Q 1991 1309 1228 531 
z
" transform="scale(0.015625)"/>
       </defs>
       <use xlink:href="#DejaVuSans-32"/>
      </g>
     </g>
    </g>
    <g id="xtick_3">
     <g id="line2d_5">
      <path d="M 285.935848 534.04 
L 285.935848 36.48525 
" clip-path="url(#p684e58a09b)" style="fill: none; stroke: #b0b0b0; stroke-opacity: 0.3; stroke-width: 0.8; stroke-linecap: square"/>
     </g>
     <g id="line2d_6">
      <g>
       <use xlink:href="#m8ddd3aea52" x="285.935848" y="534.04" style="stroke: #000000; stroke-width: 0.8"/>
      </g>
     </g>
     <g id="text_3">
      <!-- 4 -->
      <g transform="translate(282.754598 548.638438) scale(0.1 -0.1)">
       <defs>
        <path id="DejaVuSans-34" d="M 2419 4116 
L 825 1625 
L 2419 1625 
L 2419 4116 
z
M 2253 4666 
L 3047 4666 
L 3047 1625 
L 3713 1625 
L 3713 1100 
L 3047 1100 
L 3047 0 
L 2419 0 
L 2419 1100 
L 313 1100 
L 313 1709 
L 2253 4666 
z
" transform="scale(0.015625)"/>
       </defs>
       <use xlink:href="#DejaVuSans-34"/>
      </g>
     </g>
    </g>
    <g id="xtick_4">
     <g id="line2d_7">
      <path d="M 386.694454 534.04 
L 386.694454 36.48525 
" clip-path="url(#p684e58a09b)" style="fill: none; stroke: #b0b0b0; stroke-opacity: 0.3; stroke-width: 0.8; stroke-linecap: square"/>
     </g>
     <g id="line2d_8">
      <g>
       <use xlink:href="#m8ddd3aea52" x="386.694454" y="534.04" style="stroke: #000000; stroke-width: 0.8"/>
      </g>
     </g>
     <g id="text_4">
      <!-- 6 -->
      <g transform="translate(383.513204 548.638438) scale(0.1 -0.1)">
       <defs>
        <path id="DejaVuSans-36" d="M 2113 2584 
Q 1688 2584 1439 2293 
Q 1191 2003 1191 1497 
Q 1191 994 1439 701 
Q 1688 409 2113 409 
Q 2538 409 2786 701 
Q 3034 994 3034 1497 
Q 3034 2003 2786 2293 
Q 2538 2584 2113 2584 
z
M 3366 4563 
L 3366 3988 
Q 3128 4100 2886 4159 
Q 2644 4219 2406 4219 
Q 1781 4219 1451 3797 
Q 1122 3375 1075 2522 
Q 1259 2794 1537 2939 
Q 1816 3084 2150 3084 
Q 2853 3084 3261 2657 
Q 3669 2231 3669 1497 
Q 3669 778 3244 343 
Q 2819 -91 2113 -91 
Q 1303 -91 875 529 
Q 447 1150 447 2328 
Q 447 3434 972 4092 
Q 1497 4750 2381 4750 
Q 2619 4750 2861 4703 
Q 3103 4656 3366 4563 
z
" transform="scale(0.015625)"/>
       </defs>
       <use xlink:href="#DejaVuSans-36"/>
      </g>
     </g>
    </g>
    <g id="xtick_5">
     <g id="line2d_9">
      <path d="M 487.45306 534.04 
L 487.45306 36.48525 
" clip-path="url(#p684e58a09b)" style="fill: none; stroke: #b0b0b0; stroke-opacity: 0.3; stroke-width: 0.8; stroke-linecap: square"/>
     </g>
     <g id="line2d_10">
      <g>
       <use xlink:href="#m8ddd3aea52" x="487.45306" y="534.04" style="stroke: #000000; stroke-width: 0.8"/>
      </g>
     </g>
     <g id="text_5">
      <!-- 8 -->
      <g transform="translate(484.27181 548.638438) scale(0.1 -0.1)">
       <defs>
        <path id="DejaVuSans-38" d="M 2034 2216 
Q 1584 2216 1326 1975 
Q 1069 1734 1069 1313 
Q 1069 891 1326 650 
Q 1584 409 2034 409 
Q 2484 409 2743 651 
Q 3003 894 3003 1313 
Q 3003 1734 2745 1975 
Q 2488 2216 2034 2216 
z
M 1403 2484 
Q 997 2584 770 2862 
Q 544 3141 544 3541 
Q 544 4100 942 4425 
Q 1341 4750 2034 4750 
Q 2731 4750 3128 4425 
Q 3525 4100 3525 3541 
Q 3525 3141 3298 2862 
Q 3072 2584 2669 2484 
Q 3125 2378 3379 2068 
Q 3634 1759 3634 1313 
Q 3634 634 3220 271 
Q 2806 -91 2034 -91 
Q 1263 -91 848 271 
Q 434 634 434 1313 
Q 434 1759 690 2068 
Q 947 2378 1403 2484 
z
M 1172 3481 
Q 1172 3119 1398 2916 
Q 1625 2713 2034 2713 
Q 2441 2713 2670 2916 
Q 2900 3119 2900 3481 
Q 2900 3844 2670 4047 
Q 2441 4250 2034 4250 
Q 1625 4250 1398 4047 
Q 1172 3844 1172 3481 
z
" transform="scale(0.015625)"/>
       </defs>
       <use xlink:href="#DejaVuSans-38"/>
      </g>
     </g>
    </g>
    <g id="xtick_6">
     <g id="line2d_11">
      <path d="M 588.211666 534.04 
L 588.211666 36.48525 
" clip-path="url(#p684e58a09b)" style="fill: none; stroke: #b0b0b0; stroke-opacity: 0.3; stroke-width: 0.8; stroke-linecap: square"/>
     </g>
     <g id="line2d_12">
      <g>
       <use xlink:href="#m8ddd3aea52" x="588.211666" y="534.04" style="stroke: #000000; stroke-width: 0.8"/>
      </g>
     </g>
     <g id="text_6">
      <!-- 10 -->
      <g transform="translate(581.849166 548.638438) scale(0.1 -0.1)">
       <defs>
        <path id="DejaVuSans-31" d="M 794 531 
L 1825 531 
L 1825 4091 
L 703 3866 
L 703 4441 
L 1819 4666 
L 2450 4666 
L 2450 531 
L 3481 531 
L 3481 0 
L 794 0 
L 794 531 
z
" transform="scale(0.015625)"/>
       </defs>
       <use xlink:href="#DejaVuSans-31"/>
       <use xlink:href="#DejaVuSans-30" transform="translate(63.623047 0)"/>
      </g>
     </g>
    </g>
    <g id="xtick_7">
     <g id="line2d_13">
      <path d="M 688.970272 534.04 
L 688.970272 36.48525 
" clip-path="url(#p684e58a09b)" style="fill: none; stroke: #b0b0b0; stroke-opacity: 0.3; stroke-width: 0.8; stroke-linecap: square"/>
     </g>
     <g id="line2d_14">
      <g>
       <use xlink:href="#m8ddd3aea52" x="688.970272" y="534.04" style="stroke: #000000; stroke-width: 0.8"/>
      </g>
     </g>
     <g id="text_7">
      <!-- 12 -->
      <g transform="translate(682.607772 548.638438) scale(0.1 -0.1)">
       <use xlink:href="#DejaVuSans-31"/>
       <use xlink:href="#DejaVuSans-32" transform="translate(63.623047 0)"/>
      </g>
     </g>
    </g>
    <g id="xtick_8">
     <g id="line2d_15">
      <path d="M 789.728878 534.04 
L 789.728878 36.48525 
" clip-path="url(#p684e58a09b)" style="fill: none; stroke: #b0b0b0; stroke-opacity: 0.3; stroke-width: 0.8; stroke-linecap: square"/>
     </g>
     <g id="line2d_16">
      <g>
       <use xlink:href="#m8ddd3aea52" x="789.728878" y="534.04" style="stroke: #000000; stroke-width: 0.8"/>
      </g>
     </g>
     <g id="text_8">
      <!-- 14 -->
      <g transform="translate(783.366378 548.638438) scale(0.1 -0.1)">
       <use xlink:href="#DejaVuSans-31"/>
       <use xlink:href="#DejaVuSans-34" transform="translate(63.623047 0)"/>
      </g>
     </g>
    </g>
    <g id="text_9">
     <!-- Time (minutes) -->
     <g transform="translate(412.5425 562.316562) scale(0.1 -0.1)">
      <defs>
       <path id="DejaVuSans-54" d="M -19 4666 
L 3928 4666 
L 3928 4134 
L 2272 4134 
L 2272 0 
L 1638 0 
L 1638 4134 
L -19 4134 
L -19 4666 
z
" transform="scale(0.015625)"/>
       <path id="DejaVuSans-69" d="M 603 3500 
L 1178 3500 
L 1178 0 
L 603 0 
L 603 3500 
z
M 603 4863 
L 1178 4863 
L 1178 4134 
L 603 4134 
L 603 4863 
z
" transform="scale(0.015625)"/>
       <path id="DejaVuSans-6d" d="M 3328 2828 
Q 3544 3216 3844 3400 
Q 4144 3584 4550 3584 
Q 5097 3584 5394 3201 
Q 5691 2819 5691 2113 
L 5691 0 
L 5113 0 
L 5113 2094 
Q 5113 2597 4934 2840 
Q 4756 3084 4391 3084 
Q 3944 3084 3684 2787 
Q 3425 2491 3425 1978 
L 3425 0 
L 2847 0 
L 2847 2094 
Q 2847 2600 2669 2842 
Q 2491 3084 2119 3084 
Q 1678 3084 1418 2786 
Q 1159 2488 1159 1978 
L 1159 0 
L 581 0 
L 581 3500 
L 1159 3500 
L 1159 2956 
Q 1356 3278 1631 3431 
Q 1906 3584 2284 3584 
Q 2666 3584 2933 3390 
Q 3200 3197 3328 2828 
z
" transform="scale(0.015625)"/>
       <path id="DejaVuSans-65" d="M 3597 1894 
L 3597 1613 
L 953 1613 
Q 991 1019 1311 708 
Q 1631 397 2203 397 
Q 2534 397 2845 478 
Q 3156 559 3463 722 
L 3463 178 
Q 3153 47 2828 -22 
Q 2503 -91 2169 -91 
Q 1331 -91 842 396 
Q 353 884 353 1716 
Q 353 2575 817 3079 
Q 1281 3584 2069 3584 
Q 2775 3584 3186 3129 
Q 3597 2675 3597 1894 
z
M 3022 2063 
Q 3016 2534 2758 2815 
Q 2500 3097 2075 3097 
Q 1594 3097 1305 2825 
Q 1016 2553 972 2059 
L 3022 2063 
z
" transform="scale(0.015625)"/>
       <path id="DejaVuSans-20" transform="scale(0.015625)"/>
       <path id="DejaVuSans-28" d="M 1984 4856 
Q 1566 4138 1362 3434 
Q 1159 2731 1159 2009 
Q 1159 1288 1364 580 
Q 1569 -128 1984 -844 
L 1484 -844 
Q 1016 -109 783 600 
Q 550 1309 550 2009 
Q 550 2706 781 3412 
Q 1013 4119 1484 4856 
L 1984 4856 
z
" transform="scale(0.015625)"/>
       <path id="DejaVuSans-6e" d="M 3513 2113 
L 3513 0 
L 2938 0 
L 2938 2094 
Q 2938 2591 2744 2837 
Q 2550 3084 2163 3084 
Q 1697 3084 1428 2787 
Q 1159 2491 1159 1978 
L 1159 0 
L 581 0 
L 581 3500 
L 1159 3500 
L 1159 2956 
Q 1366 3272 1645 3428 
Q 1925 3584 2291 3584 
Q 2894 3584 3203 3211 
Q 3513 2838 3513 2113 
z
" transform="scale(0.015625)"/>
       <path id="DejaVuSans-75" d="M 544 1381 
L 544 3500 
L 1119 3500 
L 1119 1403 
Q 1119 906 1312 657 
Q 1506 409 1894 409 
Q 2359 409 2629 706 
Q 2900 1003 2900 1516 
L 2900 3500 
L 3475 3500 
L 3475 0 
L 2900 0 
L 2900 538 
Q 2691 219 2414 64 
Q 2138 -91 1772 -91 
Q 1169 -91 856 284 
Q 544 659 544 1381 
z
M 1991 3584 
L 1991 3584 
z
" transform="scale(0.015625)"/>
       <path id="DejaVuSans-74" d="M 1172 4494 
L 1172 3500 
L 2356 3500 
L 2356 3053 
L 1172 3053 
L 1172 1153 
Q 1172 725 1289 603 
Q 1406 481 1766 481 
L 2356 481 
L 2356 0 
L 1766 0 
Q 1100 0 847 248 
Q 594 497 594 1153 
L 594 3053 
L 172 3053 
L 172 3500 
L 594 3500 
L 594 4494 
L 1172 4494 
z
" transform="scale(0.015625)"/>
       <path id="DejaVuSans-73" d="M 2834 3397 
L 2834 2853 
Q 2591 2978 2328 3040 
Q 2066 3103 1784 3103 
Q 1356 3103 1142 2972 
Q 928 2841 928 2578 
Q 928 2378 1081 2264 
Q 1234 2150 1697 2047 
L 1894 2003 
Q 2506 1872 2764 1633 
Q 3022 1394 3022 966 
Q 3022 478 2636 193 
Q 2250 -91 1575 -91 
Q 1294 -91 989 -36 
Q 684 19 347 128 
L 347 722 
Q 666 556 975 473 
Q 1284 391 1588 391 
Q 1994 391 2212 530 
Q 2431 669 2431 922 
Q 2431 1156 2273 1281 
Q 2116 1406 1581 1522 
L 1381 1569 
Q 847 1681 609 1914 
Q 372 2147 372 2553 
Q 372 3047 722 3315 
Q 1072 3584 1716 3584 
Q 2034 3584 2315 3537 
Q 2597 3491 2834 3397 
z
" transform="scale(0.015625)"/>
       <path id="DejaVuSans-29" d="M 513 4856 
L 1013 4856 
Q 1481 4119 1714 3412 
Q 1947 2706 1947 2009 
Q 1947 1309 1714 600 
Q 1481 -109 1013 -844 
L 513 -844 
Q 928 -128 1133 580 
Q 1338 1288 1338 2009 
Q 1338 2731 1133 3434 
Q 928 4138 513 4856 
z
" transform="scale(0.015625)"/>
      </defs>
      <use xlink:href="#DejaVuSans-54"/>
      <use xlink:href="#DejaVuSans-69" transform="translate(57.958984 0)"/>
      <use xlink:href="#DejaVuSans-6d" transform="translate(85.742188 0)"/>
      <use xlink:href="#DejaVuSans-65" transform="translate(183.154297 0)"/>
      <use xlink:href="#DejaVuSans-20" transform="translate(244.677734 0)"/>
      <use xlink:href="#DejaVuSans-28" transform="translate(276.464844 0)"/>
      <use xlink:href="#DejaVuSans-6d" transform="translate(315.478516 0)"/>
      <use xlink:href="#DejaVuSans-69" transform="translate(412.890625 0)"/>
      <use xlink:href="#DejaVuSans-6e" transform="translate(440.673828 0)"/>
      <use xlink:href="#DejaVuSans-75" transform="translate(504.052734 0)"/>
      <use xlink:href="#DejaVuSans-74" transform="translate(567.431641 0)"/>
      <use xlink:href="#DejaVuSans-65" transform="translate(606.640625 0)"/>
      <use xlink:href="#DejaVuSans-73" transform="translate(668.164062 0)"/>
      <use xlink:href="#DejaVuSans-29" transform="translate(720.263672 0)"/>
     </g>
    </g>
   </g>
   <g id="matplotlib.axis_2">
    <g id="ytick_1">
     <g id="line2d_17">
      <path d="M 47.81 534.04 
L 853.2 534.04 
" clip-path="url(#p684e58a09b)" style="fill: none; stroke: #b0b0b0; stroke-opacity: 0.3; stroke-width: 0.8; stroke-linecap: square"/>
     </g>
     <g id="line2d_18">
      <defs>
       <path id="mcabf158367" d="M 0 0 
L -3.5 0 
" style="stroke: #000000; stroke-width: 0.8"/>
      </defs>
      <g>
       <use xlink:href="#mcabf158367" x="47.81" y="534.04" style="stroke: #000000; stroke-width: 0.8"/>
      </g>
     </g>
     <g id="text_10">
      <!-- 0.0 -->
      <g transform="translate(24.906875 537.839219) scale(0.1 -0.1)">
       <defs>
        <path id="DejaVuSans-2e" d="M 684 794 
L 1344 794 
L 1344 0 
L 684 0 
L 684 794 
z
" transform="scale(0.015625)"/>
       </defs>
       <use xlink:href="#DejaVuSans-30"/>
       <use xlink:href="#DejaVuSans-2e" transform="translate(63.623047 0)"/>
       <use xlink:href="#DejaVuSans-30" transform="translate(95.410156 0)"/>
      </g>
     </g>
    </g>
    <g id="ytick_2">
     <g id="line2d_19">
      <path d="M 47.81 475.374918 
L 853.2 475.374918 
" clip-path="url(#p684e58a09b)" style="fill: none; stroke: #b0b0b0; stroke-opacity: 0.3; stroke-width: 0.8; stroke-linecap: square"/>
     </g>
     <g id="line2d_20">
      <g>
       <use xlink:href="#mcabf158367" x="47.81" y="475.374918" style="stroke: #000000; stroke-width: 0.8"/>
      </g>
     </g>
     <g id="text_11">
      <!-- 0.5 -->
      <g transform="translate(24.906875 479.174137) scale(0.1 -0.1)">
       <defs>
        <path id="DejaVuSans-35" d="M 691 4666 
L 3169 4666 
L 3169 4134 
L 1269 4134 
L 1269 2991 
Q 1406 3038 1543 3061 
Q 1681 3084 1819 3084 
Q 2600 3084 3056 2656 
Q 3513 2228 3513 1497 
Q 3513 744 3044 326 
Q 2575 -91 1722 -91 
Q 1428 -91 1123 -41 
Q 819 9 494 109 
L 494 744 
Q 775 591 1075 516 
Q 1375 441 1709 441 
Q 2250 441 2565 725 
Q 2881 1009 2881 1497 
Q 2881 1984 2565 2268 
Q 2250 2553 1709 2553 
Q 1456 2553 1204 2497 
Q 953 2441 691 2322 
L 691 4666 
z
" transform="scale(0.015625)"/>
       </defs>
       <use xlink:href="#DejaVuSans-30"/>
       <use xlink:href="#DejaVuSans-2e" transform="translate(63.623047 0)"/>
       <use xlink:href="#DejaVuSans-35" transform="translate(95.410156 0)"/>
      </g>
     </g>
    </g>
    <g id="ytick_3">
     <g id="line2d_21">
      <path d="M 47.81 416.709836 
L 853.2 416.709836 
" clip-path="url(#p684e58a09b)" style="fill: none; stroke: #b0b0b0; stroke-opacity: 0.3; stroke-width: 0.8; stroke-linecap: square"/>
     </g>
     <g id="line2d_22">
      <g>
       <use xlink:href="#mcabf158367" x="47.81" y="416.709836" style="stroke: #000000; stroke-width: 0.8"/>
      </g>
     </g>
     <g id="text_12">
      <!-- 1.0 -->
      <g transform="translate(24.906875 420.509055) scale(0.1 -0.1)">
       <use xlink:href="#DejaVuSans-31"/>
       <use xlink:href="#DejaVuSans-2e" transform="translate(63.623047 0)"/>
       <use xlink:href="#DejaVuSans-30" transform="translate(95.410156 0)"/>
      </g>
     </g>
    </g>
    <g id="ytick_4">
     <g id="line2d_23">
      <path d="M 47.81 358.044755 
L 853.2 358.044755 
" clip-path="url(#p684e58a09b)" style="fill: none; stroke: #b0b0b0; stroke-opacity: 0.3; stroke-width: 0.8; stroke-linecap: square"/>
     </g>
     <g id="line2d_24">
      <g>
       <use xlink:href="#mcabf158367" x="47.81" y="358.044755" style="stroke: #000000; stroke-width: 0.8"/>
      </g>
     </g>
     <g id="text_13">
      <!-- 1.5 -->
      <g transform="translate(24.906875 361.843973) scale(0.1 -0.1)">
       <use xlink:href="#DejaVuSans-31"/>
       <use xlink:href="#DejaVuSans-2e" transform="translate(63.623047 0)"/>
       <use xlink:href="#DejaVuSans-35" transform="translate(95.410156 0)"/>
      </g>
     </g>
    </g>
    <g id="ytick_5">
     <g id="line2d_25">
      <path d="M 47.81 299.379673 
L 853.2 299.379673 
" clip-path="url(#p684e58a09b)" style="fill: none; stroke: #b0b0b0; stroke-opacity: 0.3; stroke-width: 0.8; stroke-linecap: square"/>
     </g>
     <g id="line2d_26">
      <g>
       <use xlink:href="#mcabf158367" x="47.81" y="299.379673" style="stroke: #000000; stroke-width: 0.8"/>
      </g>
     </g>
     <g id="text_14">
      <!-- 2.0 -->
      <g transform="translate(24.906875 303.178892) scale(0.1 -0.1)">
       <use xlink:href="#DejaVuSans-32"/>
       <use xlink:href="#DejaVuSans-2e" transform="translate(63.623047 0)"/>
       <use xlink:href="#DejaVuSans-30" transform="translate(95.410156 0)"/>
      </g>
     </g>
    </g>
    <g id="ytick_6">
     <g id="line2d_27">
      <path d="M 47.81 240.714591 
L 853.2 240.714591 
" clip-path="url(#p684e58a09b)" style="fill: none; stroke: #b0b0b0; stroke-opacity: 0.3; stroke-width: 0.8; stroke-linecap: square"/>
     </g>
     <g id="line2d_28">
      <g>
       <use xlink:href="#mcabf158367" x="47.81" y="240.714591" style="stroke: #000000; stroke-width: 0.8"/>
      </g>
     </g>
     <g id="text_15">
      <!-- 2.5 -->
      <g transform="translate(24.906875 244.51381) scale(0.1 -0.1)">
       <use xlink:href="#DejaVuSans-32"/>
       <use xlink:href="#DejaVuSans-2e" transform="translate(63.623047 0)"/>
       <use xlink:href="#DejaVuSans-35" transform="translate(95.410156 0)"/>
      </g>
     </g>
    </g>
    <g id="ytick_7">
     <g id="line2d_29">
      <path d="M 47.81 182.049509 
L 853.2 182.049509 
" clip-path="url(#p684e58a09b)" style="fill: none; stroke: #b0b0b0; stroke-opacity: 0.3; stroke-width: 0.8; stroke-linecap: square"/>
     </g>
     <g id="line2d_30">
      <g>
       <use xlink:href="#mcabf158367" x="47.81" y="182.049509" style="stroke: #000000; stroke-width: 0.8"/>
      </g>
     </g>
     <g id="text_16">
      <!-- 3.0 -->
      <g transform="translate(24.906875 185.848728) scale(0.1 -0.1)">
       <defs>
        <path id="DejaVuSans-33" d="M 2597 2516 
Q 3050 2419 3304 2112 
Q 3559 1806 3559 1356 
Q 3559 666 3084 287 
Q 2609 -91 1734 -91 
Q 1441 -91 1130 -33 
Q 819 25 488 141 
L 488 750 
Q 750 597 1062 519 
Q 1375 441 1716 441 
Q 2309 441 2620 675 
Q 2931 909 2931 1356 
Q 2931 1769 2642 2001 
Q 2353 2234 1838 2234 
L 1294 2234 
L 1294 2753 
L 1863 2753 
Q 2328 2753 2575 2939 
Q 2822 3125 2822 3475 
Q 2822 3834 2567 4026 
Q 2313 4219 1838 4219 
Q 1578 4219 1281 4162 
Q 984 4106 628 3988 
L 628 4550 
Q 988 4650 1302 4700 
Q 1616 4750 1894 4750 
Q 2613 4750 3031 4423 
Q 3450 4097 3450 3541 
Q 3450 3153 3228 2886 
Q 3006 2619 2597 2516 
z
" transform="scale(0.015625)"/>
       </defs>
       <use xlink:href="#DejaVuSans-33"/>
       <use xlink:href="#DejaVuSans-2e" transform="translate(63.623047 0)"/>
       <use xlink:href="#DejaVuSans-30" transform="translate(95.410156 0)"/>
      </g>
     </g>
    </g>
    <g id="ytick_8">
     <g id="line2d_31">
      <path d="M 47.81 123.384428 
L 853.2 123.384428 
" clip-path="url(#p684e58a09b)" style="fill: none; stroke: #b0b0b0; stroke-opacity: 0.3; stroke-width: 0.8; stroke-linecap: square"/>
     </g>
     <g id="line2d_32">
      <g>
       <use xlink:href="#mcabf158367" x="47.81" y="123.384428" style="stroke: #000000; stroke-width: 0.8"/>
      </g>
     </g>
     <g id="text_17">
      <!-- 3.5 -->
      <g transform="translate(24.906875 127.183646) scale(0.1 -0.1)">
       <use xlink:href="#DejaVuSans-33"/>
       <use xlink:href="#DejaVuSans-2e" transform="translate(63.623047 0)"/>
       <use xlink:href="#DejaVuSans-35" transform="translate(95.410156 0)"/>
      </g>
     </g>
    </g>
    <g id="ytick_9">
     <g id="line2d_33">
      <path d="M 47.81 64.719346 
L 853.2 64.719346 
" clip-path="url(#p684e58a09b)" style="fill: none; stroke: #b0b0b0; stroke-opacity: 0.3; stroke-width: 0.8; stroke-linecap: square"/>
     </g>
     <g id="line2d_34">
      <g>
       <use xlink:href="#mcabf158367" x="47.81" y="64.719346" style="stroke: #000000; stroke-width: 0.8"/>
      </g>
     </g>
     <g id="text_18">
      <!-- 4.0 -->
      <g transform="translate(24.906875 68.518565) scale(0.1 -0.1)">
       <use xlink:href="#DejaVuSans-34"/>
       <use xlink:href="#DejaVuSans-2e" transform="translate(63.623047 0)"/>
       <use xlink:href="#DejaVuSans-30" transform="translate(95.410156 0)"/>
      </g>
     </g>
    </g>
    <g id="text_19">
     <!-- EDA (μS) -->
     <g transform="translate(18.827187 307.450906) rotate(-90) scale(0.1 -0.1)">
      <defs>
       <path id="DejaVuSans-45" d="M 628 4666 
L 3578 4666 
L 3578 4134 
L 1259 4134 
L 1259 2753 
L 3481 2753 
L 3481 2222 
L 1259 2222 
L 1259 531 
L 3634 531 
L 3634 0 
L 628 0 
L 628 4666 
z
" transform="scale(0.015625)"/>
       <path id="DejaVuSans-44" d="M 1259 4147 
L 1259 519 
L 2022 519 
Q 2988 519 3436 956 
Q 3884 1394 3884 2338 
Q 3884 3275 3436 3711 
Q 2988 4147 2022 4147 
L 1259 4147 
z
M 628 4666 
L 1925 4666 
Q 3281 4666 3915 4102 
Q 4550 3538 4550 2338 
Q 4550 1131 3912 565 
Q 3275 0 1925 0 
L 628 0 
L 628 4666 
z
" transform="scale(0.015625)"/>
       <path id="DejaVuSans-41" d="M 2188 4044 
L 1331 1722 
L 3047 1722 
L 2188 4044 
z
M 1831 4666 
L 2547 4666 
L 4325 0 
L 3669 0 
L 3244 1197 
L 1141 1197 
L 716 0 
L 50 0 
L 1831 4666 
z
" transform="scale(0.015625)"/>
       <path id="DejaVuSans-3bc" d="M 544 -1331 
L 544 3500 
L 1119 3500 
L 1119 1325 
Q 1119 872 1334 640 
Q 1550 409 1972 409 
Q 2434 409 2667 671 
Q 2900 934 2900 1459 
L 2900 3500 
L 3475 3500 
L 3475 806 
Q 3475 619 3529 530 
Q 3584 441 3700 441 
Q 3728 441 3778 458 
Q 3828 475 3916 513 
L 3916 50 
Q 3788 -22 3673 -56 
Q 3559 -91 3450 -91 
Q 3234 -91 3106 31 
Q 2978 153 2931 403 
Q 2775 156 2548 32 
Q 2322 -91 2016 -91 
Q 1697 -91 1473 31 
Q 1250 153 1119 397 
L 1119 -1331 
L 544 -1331 
z
" transform="scale(0.015625)"/>
       <path id="DejaVuSans-53" d="M 3425 4513 
L 3425 3897 
Q 3066 4069 2747 4153 
Q 2428 4238 2131 4238 
Q 1616 4238 1336 4038 
Q 1056 3838 1056 3469 
Q 1056 3159 1242 3001 
Q 1428 2844 1947 2747 
L 2328 2669 
Q 3034 2534 3370 2195 
Q 3706 1856 3706 1288 
Q 3706 609 3251 259 
Q 2797 -91 1919 -91 
Q 1588 -91 1214 -16 
Q 841 59 441 206 
L 441 856 
Q 825 641 1194 531 
Q 1563 422 1919 422 
Q 2459 422 2753 634 
Q 3047 847 3047 1241 
Q 3047 1584 2836 1778 
Q 2625 1972 2144 2069 
L 1759 2144 
Q 1053 2284 737 2584 
Q 422 2884 422 3419 
Q 422 4038 858 4394 
Q 1294 4750 2059 4750 
Q 2388 4750 2728 4690 
Q 3069 4631 3425 4513 
z
" transform="scale(0.015625)"/>
      </defs>
      <use xlink:href="#DejaVuSans-45"/>
      <use xlink:href="#DejaVuSans-44" transform="translate(63.183594 0)"/>
      <use xlink:href="#DejaVuSans-41" transform="translate(138.435547 0)"/>
      <use xlink:href="#DejaVuSans-20" transform="translate(206.84375 0)"/>
      <use xlink:href="#DejaVuSans-28" transform="translate(238.630859 0)"/>
      <use xlink:href="#DejaVuSans-3bc" transform="translate(277.644531 0)"/>
      <use xlink:href="#DejaVuSans-53" transform="translate(341.267578 0)"/>
      <use xlink:href="#DejaVuSans-29" transform="translate(404.744141 0)"/>
     </g>
    </g>
   </g>
   <g id="line2d_35">
    <path d="M 84.418636 198.506121 
L 84.838581 198.055456 
L 85.468497 202.411573 
L 85.678469 203.463086 
L 85.888441 202.111207 
L 86.308385 196.85376 
L 86.518357 196.252912 
L 86.72833 196.553278 
L 86.938302 195.802247 
L 87.148274 194.600552 
L 87.358246 195.802247 
L 87.77819 196.85376 
L 87.988162 197.454608 
L 88.198134 197.604791 
L 88.618078 198.956669 
L 88.828051 199.257151 
L 89.247995 198.956669 
L 89.457967 199.257151 
L 89.667939 199.106969 
L 89.877911 199.257151 
L 90.087883 200.008182 
L 90.297855 200.008182 
L 90.507827 200.609029 
L 90.717799 200.609029 
L 90.927772 201.51036 
L 91.137744 201.810725 
L 91.347716 201.36006 
L 91.76766 202.26139 
L 91.977632 201.810725 
L 92.187604 203.312786 
L 92.397576 202.862238 
L 92.607548 203.763451 
L 92.817521 203.613268 
L 93.447437 204.965146 
L 93.867381 204.364299 
L 94.287325 205.265629 
L 94.497297 205.415811 
L 94.707269 204.664781 
L 94.917242 205.716177 
L 95.127214 205.866477 
L 95.337186 205.866477 
L 95.547158 206.166842 
L 95.75713 206.166842 
L 95.967102 206.617507 
L 96.177074 206.467324 
L 96.387046 206.016659 
L 96.597018 206.617507 
L 96.806991 206.76769 
L 97.226935 207.969385 
L 97.436907 207.819203 
L 97.856851 208.720533 
L 98.066823 208.570233 
L 98.276795 209.321381 
L 98.486767 209.020898 
L 98.696739 209.321381 
L 99.326656 210.823441 
L 99.536628 210.523076 
L 99.7466 210.973624 
L 99.956572 211.123924 
L 100.166544 211.424289 
L 100.586488 210.523076 
L 100.79646 209.621746 
L 101.006433 209.471563 
L 101.216405 208.42005 
L 101.426377 208.870715 
L 101.846321 208.42005 
L 102.266265 206.76769 
L 102.476237 204.664781 
L 102.686209 204.364299 
L 102.896182 203.613268 
L 103.106154 201.660542 
L 103.316126 201.810725 
L 103.526098 202.26139 
L 103.946042 203.763451 
L 104.156014 204.364299 
L 104.365986 205.716177 
L 104.78593 206.91799 
L 104.995903 206.617507 
L 105.205875 241.01613 
L 105.415847 235.308017 
L 105.625819 220.286823 
L 105.835791 219.535793 
L 106.045763 219.23531 
L 106.255735 222.239549 
L 106.465707 222.690214 
L 106.675679 221.338336 
L 107.515568 208.119685 
L 107.935512 210.973624 
L 108.145484 210.673259 
L 109.195345 219.085128 
L 109.405317 220.286823 
L 109.615289 220.437006 
L 109.825261 221.488519 
L 110.035233 221.488519 
L 110.455177 222.089366 
L 110.665149 222.990579 
L 110.875121 223.291062 
L 111.085094 227.496996 
L 111.295066 233.956139 
L 111.505038 214.278345 
L 111.71501 220.587188 
L 112.134954 204.514481 
L 112.344926 227.496996 
L 112.554898 233.956139 
L 112.76487 214.278345 
L 112.974843 220.587188 
L 113.394787 204.514481 
L 113.604759 211.274107 
L 114.024703 206.016659 
L 114.444647 197.905273 
L 114.654619 189.79377 
L 115.914452 221.788884 
L 116.124424 217.282584 
L 116.334396 226.295301 
L 116.544368 225.54427 
L 116.75434 218.334097 
L 116.964313 218.934945 
L 117.174285 218.48428 
L 117.384257 213.07665 
L 117.594229 213.377015 
L 117.804201 200.158364 
L 118.014173 200.158364 
L 118.224145 194.450369 
L 118.434117 194.600552 
L 118.644089 194.600552 
L 118.854061 192.948191 
L 119.064034 197.905273 
L 119.274006 207.819203 
L 119.483978 201.059695 
L 119.69395 204.814964 
L 119.903922 201.36006 
L 120.113894 206.016659 
L 120.533838 228.248027 
L 120.74381 228.248027 
L 120.953782 231.252265 
L 121.163755 228.398327 
L 121.373727 228.398327 
L 121.583699 232.303778 
L 121.793671 232.153596 
L 122.003643 234.406804 
L 122.213615 231.252265 
L 122.633559 220.286823 
L 122.843531 218.934945 
L 123.263476 226.595783 
L 123.68342 263.698162 
L 123.893392 258.89138 
L 124.103364 241.616977 
L 124.313336 234.406804 
L 124.73328 233.054809 
L 124.943252 231.853113 
L 125.153225 234.406804 
L 125.363197 230.9519 
L 125.573169 234.106322 
L 125.783141 233.205109 
L 126.203085 236.509713 
L 126.413057 236.059048 
L 126.623029 236.509713 
L 127.042974 232.904626 
L 127.252946 228.548509 
L 127.462918 229.149357 
L 127.67289 228.548509 
L 128.092834 223.741727 
L 128.512778 211.574472 
L 128.932722 204.664781 
L 129.142695 209.321381 
L 129.352667 221.638701 
L 129.562639 224.64294 
L 129.772611 236.35953 
L 129.772611 236.35953 
" clip-path="url(#p684e58a09b)" style="fill: none; stroke: #008000; stroke-width: 0.5; stroke-linecap: square"/>
   </g>
   <g id="line2d_36">
    <defs>
     <path id="m68b0178e99" d="M 0 2 
C 0.530406 2 1.03916 1.789267 1.414214 1.414214 
C 1.789267 1.03916 2 0.530406 2 0 
C 2 -0.530406 1.789267 -1.03916 1.414214 -1.414214 
C 1.03916 -1.789267 0.530406 -2 0 -2 
C -0.530406 -2 -1.03916 -1.789267 -1.414214 -1.414214 
C -1.789267 -1.03916 -2 -0.530406 -2 0 
C -2 0.530406 -1.789267 1.03916 -1.414214 1.414214 
C -1.03916 1.789267 -0.530406 2 0 2 
z
" style="stroke: #006400"/>
    </defs>
    <g clip-path="url(#p684e58a09b)">
     <use xlink:href="#m68b0178e99" x="84.418636" y="198.506121" style="fill: #006400; stroke: #006400"/>
     <use xlink:href="#m68b0178e99" x="129.772611" y="236.35953" style="fill: #006400; stroke: #006400"/>
    </g>
   </g>
   <g id="line2d_37">
    <path d="M 145.310547 224.64294 
L 145.520519 212.776167 
L 145.730491 213.07665 
L 146.570379 221.188036 
L 147.200296 225.994936 
L 147.410268 225.844636 
L 147.62024 226.145118 
L 148.040184 228.248027 
L 148.250156 228.248027 
L 148.6701 230.801718 
L 149.090044 232.003413 
L 149.300017 233.205109 
L 149.719961 233.805956 
L 150.349877 236.509713 
L 150.559849 236.509713 
L 150.979793 238.162073 
L 151.189765 238.312256 
L 151.399738 238.312256 
L 151.60971 238.612739 
L 151.819682 238.162073 
L 152.029654 237.411043 
L 152.239626 237.411043 
L 152.449598 237.260743 
L 152.65957 237.411043 
L 152.869542 238.011891 
L 153.079514 237.110561 
L 153.289487 238.011891 
L 153.499459 237.861591 
L 153.709431 235.6085 
L 153.919403 237.861591 
L 154.129375 243.419521 
L 154.339347 239.213586 
L 154.759291 218.48428 
L 155.179235 184.686505 
L 155.59918 145.524982 
L 156.019124 101.195182 
L 156.229096 89.929257 
L 156.439068 91.431435 
L 156.64904 98.641608 
L 156.859012 98.341126 
L 157.068984 102.997725 
L 157.488929 123.276367 
L 157.698901 129.885692 
L 157.908873 132.889931 
L 158.118845 133.791261 
L 158.538789 143.104343 
L 158.748761 144.155856 
L 159.168705 149.863968 
L 159.378678 149.863968 
L 159.798622 154.069903 
L 160.218566 155.571963 
L 160.63851 159.32735 
L 160.848482 160.979593 
L 161.058454 161.730624 
L 161.268426 162.031106 
L 161.688371 163.382984 
L 161.898343 163.382984 
L 162.108315 163.983832 
L 162.528259 162.932319 
L 163.158175 159.777898 
L 163.368148 159.627715 
L 163.57812 158.576202 
L 163.788092 159.32735 
L 163.998064 159.32735 
L 164.208036 159.92808 
L 164.62798 162.481771 
L 164.837952 162.782137 
L 165.047924 192.974825 
L 165.257896 201.704306 
L 165.467869 203.957515 
L 165.887813 197.348189 
L 166.307757 199.150733 
L 166.517729 205.609876 
L 166.727701 206.210723 
L 167.357618 204.40818 
L 167.56759 204.858845 
L 167.777562 206.210723 
L 167.987534 206.210723 
L 168.61745 210.71714 
L 168.827422 212.369384 
L 169.037394 213.120531 
L 169.457339 215.373622 
L 169.667311 216.12477 
L 170.087255 216.875801 
L 170.507199 217.927313 
L 170.717171 218.978709 
L 170.927143 218.678344 
L 171.347087 219.129009 
L 171.55706 217.476648 
L 171.977004 218.227679 
L 173.026864 219.880039 
L 173.446809 220.931552 
L 173.656781 221.231918 
L 173.866753 221.983065 
L 174.076725 221.832765 
L 174.286697 223.184761 
L 175.126585 224.987304 
L 175.336557 224.686822 
L 175.756502 226.0387 
L 175.966474 225.437852 
L 176.386418 226.339182 
L 176.59639 226.189 
L 176.806362 226.639547 
L 177.226306 225.287669 
L 177.436279 226.489365 
L 177.646251 225.738334 
L 177.856223 225.888517 
L 178.066195 226.94003 
L 178.276167 226.94003 
L 178.696111 227.841243 
L 178.906083 227.69106 
L 179.116055 227.69106 
L 179.326027 227.841243 
L 179.955944 228.742573 
L 180.375888 228.291908 
L 180.58586 228.892756 
L 180.795832 228.742573 
L 181.005804 228.742573 
L 181.215776 228.892756 
L 181.425748 229.643786 
L 181.635721 229.643786 
L 182.475609 257.839867 
L 183.105525 265.05004 
L 183.315497 265.05004 
L 183.52547 263.848345 
L 184.155386 257.539385 
L 184.365358 256.337689 
L 184.57533 256.037324 
L 184.785302 256.037324 
L 185.415218 259.041563 
L 186.045135 265.200223 
L 186.255107 266.101553 
L 186.465079 265.951253 
L 186.675051 266.401919 
L 186.885023 267.453431 
L 187.094995 267.753914 
L 187.304967 268.95561 
L 187.724912 275.11427 
L 188.144856 282.624808 
L 188.354828 283.676321 
L 188.5648 286.230012 
L 188.984744 287.431708 
L 189.194716 287.58189 
L 189.404688 287.58189 
L 189.824633 288.332921 
L 190.244577 286.68056 
L 190.664521 287.58189 
L 190.874493 287.732073 
L 191.084465 288.332921 
L 191.294437 288.332921 
L 191.504409 289.083951 
L 192.134326 290.135464 
L 192.344298 290.586129 
L 192.55427 290.135464 
L 192.764242 290.435947 
L 193.184186 291.637642 
L 193.394158 291.637642 
L 193.604131 292.23849 
L 193.814103 291.938007 
L 194.024075 292.689038 
L 194.234047 292.23849 
L 194.444019 291.036794 
L 194.653991 290.736312 
L 195.073935 289.835099 
L 195.283907 289.534616 
L 195.493879 289.534616 
L 195.703852 289.083951 
L 195.913824 289.985281 
L 196.123796 290.135464 
L 196.54374 291.186977 
L 196.963684 291.487342 
L 197.173656 290.736312 
L 197.383628 290.586129 
L 197.593601 290.135464 
L 197.803573 290.285647 
L 198.013545 290.285647 
L 198.223517 289.684799 
L 198.853433 290.736312 
L 199.063405 290.586129 
L 199.483349 291.186977 
L 199.693322 292.08819 
L 199.903294 291.637642 
L 200.113266 291.787825 
L 200.323238 292.23849 
L 200.53321 291.938007 
L 200.743182 292.388672 
L 200.953154 292.23849 
L 201.163126 291.938007 
L 201.373098 291.938007 
L 201.793043 292.839338 
L 202.003015 292.839338 
L 202.212987 302.603085 
L 202.422959 318.375309 
L 202.422959 318.375309 
" clip-path="url(#p684e58a09b)" style="fill: none; stroke: #008000; stroke-width: 0.5; stroke-linecap: square"/>
   </g>
   <g id="line2d_38">
    <g clip-path="url(#p684e58a09b)">
     <use xlink:href="#m68b0178e99" x="145.310547" y="224.64294" style="fill: #006400; stroke: #006400"/>
     <use xlink:href="#m68b0178e99" x="202.422959" y="318.375309" style="fill: #006400; stroke: #006400"/>
    </g>
   </g>
   <g id="line2d_39">
    <path d="M 203.052875 289.293385 
L 203.262847 229.485625 
L 203.472819 208.42005 
L 203.682792 207.368537 
L 203.892764 209.171081 
L 204.102736 209.171081 
L 204.312708 201.51036 
L 204.52268 185.13717 
L 204.732652 184.129539 
L 204.942624 193.442738 
L 205.152596 191.189529 
L 205.57254 189.386986 
L 205.992485 187.884808 
L 206.412429 187.884808 
L 206.622401 188.936321 
L 206.832373 189.086503 
L 207.042345 189.537168 
L 208.092206 193.142255 
L 208.302178 192.992072 
L 208.51215 192.541407 
L 208.722122 192.541407 
L 208.932094 192.391225 
L 209.142066 191.189529 
L 209.352038 191.640194 
L 209.771983 190.588681 
L 209.981955 191.489894 
L 210.191927 191.039347 
L 210.401899 191.189529 
L 210.611871 192.541407 
L 210.821843 192.541407 
L 211.241787 193.442738 
L 211.661731 194.494133 
L 211.871704 194.494133 
L 212.081676 194.043585 
L 212.291648 194.193768 
L 212.711592 192.391225 
L 212.921564 191.189529 
L 213.341508 190.738864 
L 213.761453 190.438499 
L 213.971425 190.138016 
L 214.181397 190.738864 
L 214.391369 190.438499 
L 214.601341 190.889047 
L 214.811313 191.039347 
L 215.021285 191.640194 
L 215.231257 191.489894 
L 215.441229 191.94056 
L 215.861174 193.292438 
L 216.071146 193.59292 
L 216.281118 194.193768 
L 216.49109 193.743103 
L 216.701062 194.794616 
L 216.911034 194.944798 
L 217.121006 194.794616 
L 217.54095 195.695829 
L 217.960895 195.996311 
L 218.170867 194.944798 
L 218.380839 195.245281 
L 218.590811 195.996311 
L 218.800783 196.146494 
L 219.010755 195.996311 
L 219.220727 196.146494 
L 219.430699 196.146494 
L 219.850644 195.695829 
L 220.060616 196.446976 
L 220.48056 195.695829 
L 220.900504 192.541407 
L 221.320448 189.687351 
L 221.53042 189.236803 
L 221.740392 189.386986 
L 221.950365 188.18529 
L 222.160337 188.335473 
L 222.580281 190.438499 
L 223.000225 190.889047 
L 223.210197 190.738864 
L 223.420169 192.241042 
L 223.630141 192.090742 
L 223.840114 192.391225 
L 224.050086 226.0387 
L 224.260058 217.777014 
L 224.47003 203.056302 
L 224.889974 195.245281 
L 225.309918 181.1253 
L 225.729862 166.704953 
L 226.149807 160.395993 
L 226.359779 160.095628 
L 226.779723 163.250049 
L 227.829584 173.164096 
L 228.039556 173.915127 
L 228.249528 173.915127 
L 228.669472 175.116822 
L 228.879444 175.116822 
L 229.299388 178.271243 
L 229.50936 177.970878 
L 229.929305 181.1253 
L 230.139277 180.975117 
L 230.349249 183.228208 
L 230.559221 182.477178 
L 231.609081 171.962401 
L 231.819053 172.713431 
L 232.029026 172.863614 
L 232.238998 173.314279 
L 232.44897 174.515974 
L 232.658942 173.915127 
L 232.868914 169.558892 
L 233.918775 137.263295 
L 234.128747 134.559539 
L 234.338719 135.611052 
L 234.758663 141.168865 
L 235.388579 151.833942 
L 235.598551 153.486302 
L 235.808523 153.336002 
L 236.018496 152.885455 
L 236.228468 153.486302 
L 236.648412 155.889693 
L 236.858384 157.241572 
L 237.278328 226.789847 
L 237.4883 233.248873 
L 237.698272 231.145964 
L 237.908245 230.244634 
L 238.118217 226.94003 
L 238.328189 215.824288 
L 238.538161 232.047177 
L 238.748133 211.017505 
L 239.168077 216.875801 
L 239.378049 202.605637 
L 239.797993 192.090742 
L 240.007966 191.189529 
L 240.217938 195.095098 
L 240.637882 191.640194 
L 240.847854 196.597159 
L 241.057826 197.498372 
L 241.47777 227.240395 
L 241.687742 227.69106 
L 241.897714 228.592391 
L 242.107687 225.888517 
L 242.317659 231.746812 
L 242.737603 252.025454 
L 243.367519 259.342045 
L 243.577491 261.595136 
L 243.787463 262.045802 
L 243.997436 262.796832 
L 244.207408 264.29901 
L 244.41738 242.217825 
L 244.627352 238.462439 
L 244.837324 239.814434 
L 245.047296 237.711408 
L 245.257268 241.76716 
L 245.46724 243.419521 
L 245.677212 231.102083 
L 245.887184 234.707169 
L 246.307129 210.973624 
L 246.517101 197.754973 
L 246.727073 203.162603 
L 246.937045 195.501765 
L 247.356989 236.659895 
L 247.566961 243.269338 
L 247.776933 244.471034 
L 248.196878 217.883432 
L 248.40685 216.531554 
L 248.616822 217.132402 
L 248.826794 219.685975 
L 249.036766 220.587188 
L 249.246738 218.934945 
L 249.45671 222.239549 
L 249.666682 232.003413 
L 249.876654 203.463086 
L 250.086627 206.91799 
L 250.296599 207.068172 
L 250.926515 208.720533 
L 251.136487 208.570233 
L 251.346459 207.218355 
L 252.186348 192.347343 
L 252.606292 190.094135 
L 252.816264 190.5448 
L 254.496041 203.162603 
L 254.706013 204.214116 
L 255.125957 201.36006 
L 255.755873 193.248674 
L 256.175818 191.746495 
L 256.38579 191.44613 
L 257.015706 193.398856 
L 257.43565 194.300069 
L 257.645622 195.351582 
L 257.855594 195.351582 
L 258.065567 194.600552 
L 258.275539 192.948191 
L 258.695483 189.192922 
L 258.905455 188.291591 
L 259.115427 188.441891 
L 259.325399 188.892439 
L 259.535371 189.643587 
L 259.745343 189.643587 
L 260.165288 186.939713 
L 260.37526 184.279721 
L 260.585232 183.678873 
L 260.795204 183.829056 
L 261.005176 183.378508 
L 262.894925 195.395464 
L 263.104897 195.846129 
L 263.314869 196.897524 
L 263.524841 197.047824 
L 263.944785 198.399702 
L 264.154758 198.399702 
L 264.36473 199.00055 
L 264.574702 198.850368 
L 264.784674 198.850368 
L 264.994646 199.751581 
L 265.41459 199.751581 
L 265.624562 199.150733 
L 265.834534 203.056302 
L 266.254479 225.588152 
L 266.884395 240.158681 
L 267.304339 231.145964 
L 267.724283 239.257468 
L 268.3542 186.683112 
L 268.564172 183.829056 
L 268.984116 245.416128 
L 269.40406 253.784115 
L 269.614032 256.337689 
L 269.824004 253.934298 
L 270.033976 235.157835 
L 270.453921 228.848874 
L 271.083837 173.164096 
L 271.503781 194.043585 
L 271.923725 204.708663 
L 272.133697 207.412419 
L 272.34367 207.412419 
L 272.763614 213.721379 
L 273.183558 218.678344 
L 273.39353 219.729857 
L 274.023446 224.386456 
L 274.233419 224.386456 
L 274.443391 217.626831 
L 274.653363 221.081735 
L 275.073307 259.836475 
L 275.493251 277.367478 
L 275.493251 277.367478 
" clip-path="url(#p684e58a09b)" style="fill: none; stroke: #008000; stroke-width: 0.5; stroke-linecap: square"/>
   </g>
   <g id="line2d_40">
    <g clip-path="url(#p684e58a09b)">
     <use xlink:href="#m68b0178e99" x="203.052875" y="289.293385" style="fill: #006400; stroke: #006400"/>
     <use xlink:href="#m68b0178e99" x="275.493251" y="277.367478" style="fill: #006400; stroke: #006400"/>
    </g>
   </g>
   <g id="line2d_41">
    <path d="M 398.326932 279.320204 
L 398.536904 297.64612 
L 398.746876 305.306958 
L 399.166821 310.750374 
L 399.586765 325.020538 
L 399.796737 320.514121 
L 400.006709 320.363938 
L 400.216681 313.754613 
L 400.426653 299.334266 
L 400.636625 306.544439 
L 400.846597 308.346983 
L 401.056569 312.252435 
L 401.266542 311.201039 
L 401.476514 311.801887 
L 401.686486 311.651587 
L 401.896458 312.252435 
L 402.10643 312.402734 
L 402.316402 311.801887 
L 402.526374 304.591713 
L 402.736346 282.510529 
L 402.946318 301.587475 
L 403.156291 310.449891 
L 403.366263 290.772097 
L 403.576235 291.372945 
L 403.786207 298.432936 
L 403.996179 299.334266 
L 404.416123 307.896318 
L 404.626095 301.737657 
L 404.836067 239.700037 
L 405.046039 213.97798 
L 405.256012 213.377015 
L 405.465984 214.729011 
L 405.675956 217.582949 
L 406.515844 222.840397 
L 406.725816 221.788884 
L 407.14576 224.943423 
L 407.775677 227.647179 
L 407.985649 229.449722 
L 408.405593 230.351052 
L 408.615565 231.853113 
L 408.825537 231.853113 
L 409.035509 232.003413 
L 409.455454 233.805956 
L 409.665426 234.406804 
L 409.875398 234.556987 
L 410.08537 235.308017 
L 410.295342 235.308017 
L 410.505314 236.059048 
L 410.715286 236.209348 
L 410.925258 237.411043 
L 411.345203 237.411043 
L 411.765147 239.213586 
L 412.395063 240.264982 
L 412.605035 241.166312 
L 412.815007 241.466795 
L 413.024979 242.51819 
L 413.234952 242.368008 
L 413.444924 242.368008 
L 413.654896 243.569703 
L 413.864868 243.719886 
L 414.07484 244.621216 
L 414.284812 244.771399 
L 414.494784 245.973094 
L 414.704756 246.273577 
L 414.914728 246.273577 
L 415.1247 247.17479 
L 415.334673 246.724125 
L 415.754617 247.024607 
L 415.964589 246.724125 
L 416.174561 246.874425 
L 416.384533 247.625455 
L 416.594505 247.775638 
L 416.804477 248.226303 
L 417.014449 248.977333 
L 417.224421 249.277816 
L 417.434394 249.277816 
L 417.644366 250.479511 
L 417.854338 250.629694 
L 418.274282 251.83139 
L 418.484254 251.83139 
L 418.694226 252.58242 
L 419.324143 253.33345 
L 419.534115 253.48375 
L 419.744087 254.084598 
L 419.954059 254.084598 
L 420.164031 254.535146 
L 420.374003 255.286294 
L 420.583975 255.586659 
L 421.003919 256.788354 
L 421.213891 256.788354 
L 421.633836 257.839867 
L 422.263752 258.89138 
L 422.473724 258.290532 
L 422.683696 259.041563 
L 422.893668 259.342045 
L 423.10364 259.191745 
L 423.313613 260.093076 
L 423.523585 259.191745 
L 423.943529 253.183268 
L 424.153501 254.985811 
L 424.363473 262.947132 
L 424.573445 261.745436 
L 424.783417 276.616448 
L 424.993389 257.99005 
L 425.203361 264.749558 
L 425.413334 265.350406 
L 425.833278 260.543741 
L 426.463194 249.578181 
L 426.883138 245.822912 
L 427.09311 246.42376 
L 427.303082 246.573942 
L 427.513055 251.83139 
L 427.723027 254.234781 
L 428.142971 253.633933 
L 428.352943 260.243258 
L 428.772887 285.028317 
L 429.192831 288.933768 
L 429.402804 288.633403 
L 430.03272 277.217178 
L 430.452664 269.255975 
L 430.662636 311.465618 
L 430.872608 376.843745 
L 430.872608 376.843745 
" clip-path="url(#p684e58a09b)" style="fill: none; stroke: #008000; stroke-width: 0.5; stroke-linecap: square"/>
   </g>
   <g id="line2d_42">
    <g clip-path="url(#p684e58a09b)">
     <use xlink:href="#m68b0178e99" x="398.326932" y="279.320204" style="fill: #006400; stroke: #006400"/>
     <use xlink:href="#m68b0178e99" x="430.872608" y="376.843745" style="fill: #006400; stroke: #006400"/>
    </g>
   </g>
   <g id="line2d_43">
    <path d="M 460.688647 111.860259 
L 460.898619 121.023158 
L 461.108591 122.976001 
L 461.94848 113.662802 
L 462.158452 114.413833 
L 462.368424 117.117706 
L 462.788368 130.035875 
L 463.628257 162.031106 
L 465.308033 199.300915 
L 466.147922 205.609876 
L 466.567866 208.463932 
L 466.777838 208.914597 
L 468.667587 216.575318 
L 468.877559 216.875801 
L 469.92742 221.3821 
L 470.137392 221.682583 
L 470.347364 223.184761 
L 470.557336 223.785609 
L 470.767308 223.935791 
L 471.187252 224.386456 
L 471.397224 223.935791 
L 471.607196 224.386456 
L 471.817169 224.536639 
L 472.027141 224.536639 
L 473.496945 229.493604 
L 473.706918 229.944269 
L 473.91689 228.892756 
L 474.126862 230.995664 
L 474.546806 231.896995 
L 474.756778 233.248873 
L 474.96675 233.399173 
L 475.176722 233.699538 
L 475.386694 234.901234 
L 475.596666 235.051416 
L 475.806639 235.952746 
L 476.016611 235.952746 
L 476.226583 236.703777 
L 476.436555 236.553594 
L 476.646527 238.205955 
L 476.856499 238.50632 
L 477.066471 238.205955 
L 477.486415 239.858316 
L 477.696387 240.008498 
L 477.90636 241.210194 
L 478.116332 241.510559 
L 478.326304 241.060011 
L 478.536276 242.261707 
L 478.746248 242.712255 
L 478.95622 242.562072 
L 479.166192 244.064133 
L 479.376164 243.763767 
L 479.586136 245.265828 
L 479.796109 245.115646 
L 480.006081 245.866676 
L 480.216053 245.372247 
L 480.635997 246.42376 
L 480.845969 246.573942 
L 481.265913 247.775638 
L 481.475885 248.226303 
L 481.685857 248.07612 
L 481.89583 248.827151 
L 482.105802 249.127516 
L 482.315774 250.329211 
L 482.525746 250.028846 
L 482.735718 250.179029 
L 482.94569 251.080359 
L 483.155662 250.629694 
L 483.365634 250.629694 
L 483.575606 251.83139 
L 483.785579 252.282055 
L 483.995551 251.981572 
L 484.205523 253.33345 
L 484.415495 253.183268 
L 484.625467 253.183268 
L 484.835439 254.384963 
L 485.045411 254.535146 
L 485.255383 254.384963 
L 485.465355 255.586659 
L 485.675327 256.037324 
L 485.8853 255.286294 
L 486.095272 256.487989 
L 486.305244 256.487989 
L 486.515216 257.239019 
L 486.725188 257.088837 
L 487.145132 258.590898 
L 487.355104 258.290532 
L 487.775048 259.342045 
L 487.985021 259.191745 
L 488.404965 260.243258 
L 488.614937 260.243258 
L 488.824909 260.543741 
L 489.034881 260.543741 
L 489.454825 261.745436 
L 489.664797 261.895619 
L 489.87477 262.195984 
L 490.084742 262.045802 
L 490.504686 262.947132 
L 490.714658 262.195984 
L 491.134602 263.547862 
L 491.764518 264.449193 
L 491.974491 265.200223 
L 492.184463 265.05004 
L 492.394435 265.350406 
L 492.604407 266.101553 
L 492.814379 266.251736 
L 493.234323 266.852584 
L 493.444295 266.852584 
L 493.654267 267.303249 
L 493.86424 266.852584 
L 494.284184 267.904097 
L 494.494156 267.904097 
L 494.9141 268.80531 
L 495.124072 268.95561 
L 495.334044 268.204462 
L 495.544016 266.702401 
L 495.753988 263.247497 
L 495.963961 303.05375 
L 495.963961 303.05375 
" clip-path="url(#p684e58a09b)" style="fill: none; stroke: #008000; stroke-width: 0.5; stroke-linecap: square"/>
   </g>
   <g id="line2d_44">
    <g clip-path="url(#p684e58a09b)">
     <use xlink:href="#m68b0178e99" x="460.688647" y="111.860259" style="fill: #006400; stroke: #006400"/>
     <use xlink:href="#m68b0178e99" x="495.963961" y="303.05375" style="fill: #006400; stroke: #006400"/>
    </g>
   </g>
   <g id="line2d_45">
    <path d="M 496.383905 302.038022 
L 496.593877 302.488688 
L 496.803849 278.905442 
L 497.013821 283.261559 
L 497.223793 272.746664 
L 497.433765 266.588004 
L 497.643737 261.480739 
L 497.853709 261.030192 
L 498.063682 278.304594 
L 498.273654 284.76362 
L 498.483626 284.91392 
L 498.693598 281.308833 
L 498.90357 277.102899 
L 499.113542 272.896847 
L 499.323514 271.394786 
L 499.533486 270.944121 
L 499.743458 271.394786 
L 499.953431 271.845451 
L 500.163403 273.497695 
L 500.373375 274.69939 
L 500.583347 278.454777 
L 500.793319 280.107138 
L 501.003291 282.510529 
L 501.213263 282.510529 
L 501.423235 284.162772 
L 501.633207 284.613437 
L 501.843179 285.064102 
L 502.053152 286.115615 
L 502.263124 289.570402 
L 502.473096 289.270037 
L 502.683068 287.617676 
L 502.89304 286.866646 
L 503.103012 290.32155 
L 503.312984 294.827849 
L 503.522956 295.278514 
L 503.732928 292.875123 
L 503.942901 290.471732 
L 504.152873 284.313072 
L 504.362845 283.862407 
L 504.572817 280.407503 
L 504.782789 277.102899 
L 504.992761 278.154294 
L 505.202733 276.502051 
L 505.412705 277.853929 
L 505.622677 277.853929 
L 505.832649 278.755142 
L 506.042622 281.609198 
L 506.252594 283.261559 
L 506.462566 285.064102 
L 506.672538 288.368706 
L 506.88251 289.420219 
L 507.092482 290.772097 
L 507.302454 291.523245 
L 507.512426 291.82361 
L 507.722398 292.424458 
L 507.93237 293.175606 
L 508.142343 293.325788 
L 508.352315 294.377301 
L 508.562287 295.278514 
L 508.772259 296.930875 
L 508.982231 297.531723 
L 509.192203 297.531723 
L 509.402175 296.930875 
L 509.612147 296.930875 
L 509.822119 296.630393 
L 510.032092 297.23124 
L 510.242064 298.432936 
L 510.452036 299.033784 
L 510.662008 299.784814 
L 510.87198 301.587475 
L 511.081952 302.78917 
L 511.291924 304.291231 
L 511.501896 305.492926 
L 511.711868 306.243957 
L 511.92184 306.243957 
L 512.131813 306.694622 
L 512.341785 305.793409 
L 512.551757 297.081058 
L 512.761729 297.531723 
L 512.971701 297.832088 
L 513.181673 298.132571 
L 513.391645 299.334266 
L 513.601617 299.484449 
L 513.811589 297.23124 
L 514.021562 294.677667 
L 514.231534 291.372945 
L 514.441506 288.819372 
L 514.651478 287.467493 
L 514.86145 286.115615 
L 515.071422 285.66495 
L 515.281394 285.364468 
L 515.491366 286.115615 
L 515.701338 286.716463 
L 515.91131 289.119854 
L 516.121283 290.621915 
L 516.331255 291.523245 
L 516.541227 293.025306 
L 516.751199 293.626154 
L 516.961171 294.377301 
L 517.171143 294.827849 
L 517.381115 295.128332 
L 517.591087 295.578997 
L 517.801059 294.978149 
L 518.011031 298.733418 
L 518.221004 308.1968 
L 518.430976 302.338505 
L 518.640948 300.686144 
L 518.85092 296.930875 
L 519.060892 292.574641 
L 519.270864 286.265798 
L 519.480836 273.647995 
L 519.690808 260.279044 
L 519.90078 242.554093 
L 520.110753 222.840397 
L 520.320725 206.467324 
L 520.530697 207.518837 
L 520.740669 198.806486 
L 520.950641 195.802247 
L 521.160613 199.257151 
L 521.370585 196.703578 
L 521.580557 200.308664 
L 521.790529 208.870715 
L 522.000501 226.295301 
L 522.210474 219.085128 
L 522.420446 201.660542 
L 522.630418 172.218884 
" clip-path="url(#p684e58a09b)" style="fill: none; stroke: #008000; stroke-width: 0.5; stroke-linecap: square"/>
   </g>
   <g id="line2d_46">
    <g clip-path="url(#p684e58a09b)">
     <use xlink:href="#m68b0178e99" x="496.383905" y="302.038022" style="fill: #006400; stroke: #006400"/>
     <use xlink:href="#m68b0178e99" x="522.630418" y="172.218884" style="fill: #006400; stroke: #006400"/>
    </g>
   </g>
   <g id="line2d_47">
    <path d="M 548.456987 287.58189 
L 549.086903 222.840397 
L 549.296875 232.303778 
L 549.506847 230.501235 
L 549.716819 230.501235 
L 550.136763 251.080359 
L 550.346736 243.269338 
L 550.556708 241.466795 
L 550.76668 241.01613 
L 550.976652 255.586659 
L 551.186624 252.58242 
L 551.396596 246.273577 
L 551.606568 251.981572 
L 552.026512 249.578181 
L 552.236484 252.131755 
L 552.446457 258.14035 
L 553.076373 250.629694 
L 553.286345 254.384963 
L 553.706289 247.024607 
L 554.126233 245.973094 
L 554.336206 250.179029 
L 554.546178 249.127516 
L 554.75615 247.324973 
L 554.966122 244.471034 
L 555.176094 249.728364 
L 555.386066 259.942893 
L 555.596038 262.045802 
L 555.80601 261.444954 
L 556.225954 265.801071 
L 556.435927 264.29901 
L 556.855871 269.406157 
L 557.065843 265.350406 
L 557.275815 264.14871 
L 557.485787 270.908335 
L 557.695759 271.659366 
L 557.905731 269.406157 
L 558.115703 268.95561 
L 558.325675 263.698162 
L 558.535648 261.895619 
L 558.74562 258.14035 
L 558.955592 251.530907 
L 559.165564 251.681207 
L 559.375536 248.827151 
L 559.585508 250.930059 
L 559.79548 251.380724 
L 560.005452 250.479511 
L 560.215424 251.380724 
L 560.425397 251.080359 
L 560.635369 249.277816 
L 560.845341 248.526668 
L 561.055313 248.526668 
L 561.265285 244.921582 
L 561.475257 244.170551 
L 561.895201 235.6085 
L 562.105173 232.604261 
L 562.315145 232.754444 
L 562.525118 230.05057 
L 562.73509 230.05057 
L 562.945062 230.351052 
L 563.155034 229.449722 
L 563.365006 232.604261 
L 563.994922 232.604261 
L 564.204894 239.213586 
L 564.414867 237.110561 
L 564.834811 227.346814 
L 565.044783 230.20087 
L 565.254755 229.29954 
L 565.464727 227.496996 
L 565.674699 230.351052 
L 565.884671 225.243788 
L 566.094643 225.994936 
L 566.304615 223.591544 
L 566.934532 231.402565 
L 567.144504 232.604261 
L 567.354476 235.758682 
L 567.77442 230.05057 
L 567.984392 231.552748 
L 568.194364 226.595783 
L 568.614309 226.896149 
L 568.824281 224.192392 
L 569.034253 225.243788 
L 569.244225 225.093605 
L 569.664169 225.994936 
L 569.874141 225.844636 
L 570.084113 229.29954 
L 570.294085 243.569703 
L 570.504058 249.578181 
L 570.71403 240.415282 
L 571.133974 235.908865 
L 571.343946 235.908865 
L 571.553918 239.213586 
L 571.76389 236.209348 
L 571.973862 235.908865 
L 572.393806 251.080359 
L 572.603779 251.83139 
L 573.023723 240.264982 
L 573.233695 238.011891 
L 573.443667 238.162073 
L 573.653639 236.509713 
L 573.863611 236.810195 
L 574.073583 235.157835 
L 574.283555 240.865947 
L 574.493528 241.01613 
L 574.7035 240.114799 
L 575.123444 240.865947 
L 575.333416 246.874425 
L 575.543388 245.522429 
L 575.75336 243.419521 
L 575.963332 243.419521 
L 576.173304 243.269338 
L 576.593249 247.475273 
L 576.803221 241.76716 
L 577.013193 229.900387 
L 577.223165 228.548509 
L 577.643109 229.29954 
L 577.853081 231.853113 
L 578.063053 236.659895 
L 578.273025 238.462439 
L 578.482997 236.960378 
L 578.902942 235.908865 
L 579.112914 243.419521 
L 579.532858 231.552748 
L 579.74283 233.505474 
L 579.952802 237.411043 
L 580.162774 234.406804 
L 580.372746 224.943423 
L 580.792691 231.853113 
L 581.002663 228.548509 
L 581.632579 227.196631 
L 581.842551 227.196631 
L 582.262495 229.600022 
L 582.472467 229.29954 
L 582.68244 229.600022 
L 582.892412 229.449722 
L 583.102384 229.449722 
L 583.312356 229.600022 
L 583.522328 230.05057 
L 583.7323 236.659895 
L 583.942272 229.900387 
L 584.572189 238.312256 
L 584.782161 229.900387 
L 584.992133 230.501235 
L 585.412077 237.110561 
L 585.622049 243.269338 
L 585.832021 244.320734 
L 586.041993 239.814434 
L 586.251965 239.213586 
L 586.461937 237.561226 
L 586.67191 241.466795 
L 586.881882 269.856823 
L 587.091854 273.762392 
L 587.511798 249.578181 
L 587.931742 246.42376 
L 588.141714 258.14035 
L 588.771631 247.475273 
L 588.981603 245.672729 
L 589.191575 245.372247 
L 589.611519 283.075473 
L 589.821491 287.431708 
L 590.241435 290.736312 
L 590.871352 307.710349 
L 591.081324 307.595952 
L 591.291296 299.334266 
L 591.501268 297.38154 
L 591.71124 298.282753 
L 591.921212 291.82361 
L 592.131184 292.274276 
L 592.341156 291.82361 
L 592.551128 290.772097 
L 592.761101 288.218524 
L 592.971073 290.922397 
L 593.391017 252.468023 
L 593.810961 250.214932 
L 594.020933 249.614084 
L 594.230905 250.365114 
L 594.65085 249.764267 
L 595.070794 250.81578 
L 595.280766 250.515297 
L 595.490738 250.965962 
L 595.70071 250.81578 
L 596.120654 249.313602 
L 596.330626 249.013119 
L 596.540598 258.476501 
L 596.750571 245.558332 
L 596.960543 244.320734 
L 597.380487 249.277816 
L 597.380487 249.277816 
" clip-path="url(#p684e58a09b)" style="fill: none; stroke: #008000; stroke-width: 0.5; stroke-linecap: square"/>
   </g>
   <g id="line2d_48">
    <g clip-path="url(#p684e58a09b)">
     <use xlink:href="#m68b0178e99" x="548.456987" y="287.58189" style="fill: #006400; stroke: #006400"/>
     <use xlink:href="#m68b0178e99" x="597.380487" y="249.277816" style="fill: #006400; stroke: #006400"/>
    </g>
   </g>
   <g id="line2d_49">
    <path d="M 598.220375 272.746664 
L 598.430347 252.468023 
L 599.270236 237.711408 
L 599.480208 238.913104 
L 599.69018 246.42376 
L 600.110124 203.01242 
L 600.320096 194.149887 
L 600.950013 188.742257 
L 601.159985 186.489048 
L 601.579929 150.331764 
L 601.789901 156.340241 
L 601.999873 171.962401 
L 602.209845 175.71767 
L 602.419817 174.515974 
L 602.629789 141.018682 
L 602.839762 136.662448 
L 603.049734 138.164626 
L 603.259706 142.520743 
L 603.67965 157.091389 
L 603.889622 160.095628 
L 604.309566 161.597689 
L 604.729511 157.091389 
L 605.149455 152.134307 
L 605.569399 150.331764 
L 605.989343 151.233094 
L 607.249176 164.00108 
L 608.089064 170.460223 
L 608.299036 170.31004 
L 608.509008 155.589211 
L 608.71898 202.004789 
L 608.928953 167.906649 
L 609.348897 157.241572 
L 610.188785 135.911417 
L 611.028674 109.907533 
L 611.238646 108.405355 
L 611.448618 109.456868 
L 611.65859 112.010442 
L 612.498478 127.181936 
L 612.918423 132.739748 
L 613.128395 134.091626 
L 613.548339 137.997196 
L 614.178255 140.550769 
L 614.388227 139.349074 
L 614.598199 139.499256 
L 614.808172 139.499256 
L 615.228116 140.851252 
L 616.69792 148.211608 
L 617.327837 149.713668 
L 618.167725 154.069903 
L 618.587669 155.571963 
L 618.797641 155.722263 
L 619.217586 156.473294 
L 619.427558 156.473294 
L 619.63753 156.923959 
L 619.847502 157.674989 
L 620.057474 157.224324 
L 620.267446 157.674989 
L 620.477418 157.825172 
L 620.897363 156.923959 
L 621.107335 157.674989 
L 621.317307 157.524807 
L 621.527279 158.125654 
L 621.737251 158.125654 
L 621.947223 158.42602 
L 622.157195 158.275837 
L 622.787111 151.215846 
L 623.417028 142.95416 
L 623.627 143.705191 
L 623.836972 140.851252 
L 624.256916 139.949921 
L 624.466888 140.550769 
L 625.306777 146.258764 
L 625.516749 148.061425 
L 625.726721 148.662273 
L 625.936693 148.812455 
L 626.146665 149.112821 
L 626.566609 150.164333 
L 626.986554 152.417542 
L 627.196526 152.567725 
L 627.406498 153.919603 
L 627.61647 153.919603 
L 627.826442 154.069903 
L 629.086275 157.374507 
L 629.296247 155.271598 
L 629.716191 143.104343 
L 630.136135 130.48654 
L 630.556079 124.027397 
L 630.766051 123.727032 
L 630.976024 124.928727 
L 632.445828 142.052947 
L 632.865772 144.606521 
L 633.075745 145.507734 
L 633.285717 147.310277 
L 633.705661 148.511973 
L 633.915633 149.563486 
L 634.125605 149.263121 
L 634.335577 147.760942 
L 634.545549 147.160095 
L 634.965494 143.555008 
L 635.175466 142.653795 
L 635.385438 142.503495 
L 635.805382 139.349074 
L 636.015354 138.898409 
L 636.435298 140.250404 
L 636.64527 139.649556 
L 637.275187 134.842657 
L 637.695131 133.340596 
L 637.905103 133.340596 
L 638.115075 132.589566 
L 638.325047 126.881453 
L 638.744991 99.693004 
L 639.164936 74.60758 
L 639.164936 74.60758 
" clip-path="url(#p684e58a09b)" style="fill: none; stroke: #008000; stroke-width: 0.5; stroke-linecap: square"/>
   </g>
   <g id="line2d_50">
    <g clip-path="url(#p684e58a09b)">
     <use xlink:href="#m68b0178e99" x="598.220375" y="272.746664" style="fill: #006400; stroke: #006400"/>
     <use xlink:href="#m68b0178e99" x="639.164936" y="74.60758" style="fill: #006400; stroke: #006400"/>
    </g>
   </g>
   <g id="line2d_51">
    <path d="M 664.57156 160.979593 
L 664.781532 179.005026 
L 665.201477 189.519921 
L 665.411449 191.189529 
L 665.621421 189.386986 
L 666.041365 192.69159 
L 667.301198 205.15921 
L 667.51117 206.210723 
L 667.721142 208.463932 
L 667.931114 208.614114 
L 668.56103 211.017505 
L 668.771002 211.468171 
L 668.980974 212.669866 
L 669.190947 212.519684 
L 669.400919 212.669866 
L 669.610891 214.322227 
L 669.820863 214.622592 
L 670.030835 215.373622 
L 670.240807 215.523922 
L 670.450779 216.875801 
L 670.660751 216.875801 
L 670.870723 215.674105 
L 671.290668 217.777014 
L 671.50064 218.227679 
L 671.710612 218.077496 
L 672.130556 216.725618 
L 672.340528 216.575318 
L 672.5505 216.575318 
L 672.760472 217.025983 
L 672.970444 216.725618 
L 673.180416 216.875801 
L 673.600361 214.923075 
L 674.020305 209.81581 
L 674.230277 208.013267 
L 674.440249 207.262236 
L 674.650221 206.060541 
L 675.070165 205.30951 
L 675.49011 206.060541 
L 675.700082 208.013267 
L 675.910054 208.914597 
L 676.120026 210.71714 
L 676.53997 211.768536 
L 676.749942 212.820049 
L 676.959914 212.369384 
L 677.169886 212.519684 
L 677.379859 212.970231 
L 677.589831 213.120531 
L 677.799803 213.721379 
L 678.009775 213.871562 
L 678.219747 215.22344 
L 678.429719 215.22344 
L 678.639691 214.923075 
L 679.059635 215.97447 
L 679.269608 215.523922 
L 679.689552 216.274953 
L 679.899524 215.674105 
L 680.109496 215.674105 
L 680.319468 214.772775 
L 681.159356 208.313749 
L 681.579301 208.614114 
L 681.789273 209.06478 
L 681.999245 209.81581 
L 682.419189 212.369384 
L 682.629161 213.120531 
L 682.839133 214.322227 
L 683.46905 213.871562 
L 683.679022 212.970231 
L 684.308938 207.712901 
L 684.728882 204.858845 
L 684.938854 204.708663 
L 685.148826 204.107697 
L 685.358799 204.107697 
L 685.568771 204.858845 
L 685.778743 206.511206 
L 685.988715 207.262236 
L 687.45852 215.073257 
L 687.668492 215.22344 
L 687.878464 215.97447 
L 688.088436 214.472409 
L 688.50838 210.56684 
L 688.718352 208.914597 
L 688.928324 208.163449 
L 689.138296 208.313749 
L 690.188157 213.120531 
L 690.398129 213.571079 
L 690.818073 215.22344 
L 691.028045 215.523922 
L 691.44799 216.725618 
L 691.657962 216.575318 
L 691.867934 217.025983 
L 692.077906 217.025983 
L 692.287878 218.077496 
L 692.49785 217.777014 
L 692.917794 218.828526 
L 693.337738 219.579557 
L 693.967655 221.5324 
L 694.387599 222.28343 
L 694.597571 222.133248 
L 694.807543 222.583913 
L 695.43746 222.583913 
L 695.647432 222.133248 
L 695.857404 222.884278 
L 696.48732 223.785609 
L 696.907264 224.686822 
L 697.117236 224.837004 
L 697.537181 222.133248 
L 697.957125 218.828526 
L 698.167097 217.326466 
L 698.377069 217.176166 
L 698.587041 217.176166 
L 698.797013 216.725618 
L 699.006985 217.025983 
L 699.216957 216.875801 
L 699.42693 216.875801 
L 699.636902 217.626831 
L 699.846874 217.626831 
L 700.056846 218.828526 
L 700.266818 218.978709 
L 700.47679 220.180405 
L 700.686762 220.480887 
L 700.896734 221.983065 
L 701.316678 222.884278 
L 701.526651 223.034461 
L 701.736623 223.485126 
L 701.946595 223.635309 
L 702.366539 224.837004 
L 702.576511 224.837004 
L 702.786483 226.0387 
L 702.996455 226.339182 
L 703.206427 226.339182 
L 703.416399 226.189 
L 703.626372 225.888517 
L 703.836344 226.0387 
L 704.046316 225.588152 
L 704.256288 226.339182 
L 704.46626 226.189 
L 704.676232 226.189 
L 704.886204 226.489365 
L 705.306148 228.141726 
L 705.516121 228.892756 
L 705.936065 229.343421 
L 706.146037 228.892756 
L 706.356009 230.094451 
L 706.775953 229.343421 
L 707.195897 230.545117 
L 707.405869 230.394817 
L 707.615842 230.695299 
L 707.825814 230.394817 
L 708.245758 226.189 
L 708.665702 220.480887 
L 709.085646 217.326466 
L 709.295618 217.176166 
L 710.555451 224.085974 
L 711.185367 223.184761 
L 711.815284 224.236156 
L 712.025256 224.837004 
L 712.235228 227.090213 
L 712.4452 225.137487 
L 712.655172 225.287669 
L 712.865144 213.270714 
L 713.075116 250.823758 
L 713.075116 250.823758 
" clip-path="url(#p684e58a09b)" style="fill: none; stroke: #008000; stroke-width: 0.5; stroke-linecap: square"/>
   </g>
   <g id="line2d_52">
    <g clip-path="url(#p684e58a09b)">
     <use xlink:href="#m68b0178e99" x="664.57156" y="160.979593" style="fill: #006400; stroke: #006400"/>
     <use xlink:href="#m68b0178e99" x="713.075116" y="250.823758" style="fill: #006400; stroke: #006400"/>
    </g>
   </g>
   <g id="line2d_53">
    <path d="M 727.143247 208.013267 
L 727.353219 207.112054 
L 727.773164 149.130068 
L 727.983136 146.276129 
L 728.193108 148.52922 
L 728.40308 148.979885 
L 728.613052 148.829703 
L 728.823024 148.52922 
L 729.032996 145.374799 
L 729.662913 129.001727 
L 729.872885 121.173458 
L 730.082857 121.023158 
L 730.292829 118.018919 
L 730.712773 110.057716 
L 730.922745 111.710076 
L 731.342689 119.67128 
L 731.552661 124.327879 
L 731.762634 124.628245 
L 731.972606 126.130423 
L 732.182578 119.971645 
L 732.39255 118.319402 
L 732.602522 115.164863 
L 732.812494 115.765711 
L 733.022466 115.164863 
L 733.232438 120.121945 
L 733.44241 116.066193 
L 733.652382 106.001964 
L 733.862355 113.662802 
L 734.072327 114.113467 
L 734.492271 119.070432 
L 734.702243 118.169102 
L 735.332159 105.100751 
L 735.542131 103.898938 
L 735.752104 103.44839 
L 735.962076 103.748755 
L 736.591992 106.903294 
L 737.011936 112.010442 
L 737.221908 112.160742 
L 737.43188 113.061955 
L 737.851825 116.366559 
L 738.061797 117.568254 
L 738.901685 127.482301 
L 739.321629 129.585327 
L 739.741574 132.889931 
L 740.581462 137.246048 
L 740.791434 137.095865 
L 741.001406 138.748226 
L 741.42135 139.499256 
L 741.631322 139.499256 
L 742.261239 140.250404 
L 742.471211 140.400587 
L 742.681183 141.752465 
L 742.891155 142.353313 
L 743.101127 142.503495 
L 743.311099 143.254643 
L 743.521071 148.061425 
L 743.731043 150.314516 
L 743.941016 151.215846 
L 744.150988 151.065664 
L 744.36096 145.207369 
L 745.200848 138.898409 
L 745.41082 138.898409 
L 745.830765 140.851252 
L 746.040737 139.949921 
L 746.250709 135.89417 
L 746.460681 128.533814 
L 747.510541 56.142159 
L 747.720513 54.189433 
L 748.140458 62.150519 
L 749.820235 119.381474 
L 750.240179 100.154346 
L 750.450151 99.853863 
L 750.660123 96.398959 
L 750.870095 97.14999 
L 751.080067 98.80235 
L 751.500011 96.098594 
L 751.919956 97.14999 
L 752.3399 101.356041 
L 752.549872 104.360163 
L 752.759844 109.76791 
L 753.179788 124.338439 
L 753.809704 140.550769 
L 754.229649 151.215846 
L 754.439621 154.52045 
L 754.859565 157.524807 
L 755.069537 157.524807 
L 755.279509 156.773659 
L 755.489481 156.623476 
L 755.909426 154.370268 
L 756.749314 141.3018 
L 756.959286 140.550769 
L 757.169258 141.4521 
L 757.589202 143.855491 
L 758.009147 148.511973 
L 758.639063 153.619237 
L 758.849035 154.370268 
L 759.059007 155.571963 
L 759.268979 155.571963 
L 759.478951 153.469055 
L 759.688923 152.567725 
L 760.31884 145.808217 
L 760.528812 145.357551 
L 760.738784 145.658034 
L 760.948756 146.559247 
L 761.788644 155.121298 
L 761.998617 156.172811 
L 762.208589 157.975354 
L 762.418561 157.374507 
L 762.628533 157.825172 
L 762.838505 158.726502 
L 763.048477 158.576202 
L 763.468421 160.979593 
L 764.098338 163.683467 
L 764.30831 163.533167 
L 764.518282 163.983832 
L 764.938226 163.382984 
L 765.148198 164.434497 
L 765.35817 164.434497 
L 765.568142 164.284315 
L 765.778114 162.932319 
L 765.988087 162.481771 
L 766.198059 155.571963 
L 766.827975 115.615528 
L 767.037947 106.001964 
L 767.457891 69.500433 
L 767.457891 69.500433 
" clip-path="url(#p684e58a09b)" style="fill: none; stroke: #008000; stroke-width: 0.5; stroke-linecap: square"/>
   </g>
   <g id="line2d_54">
    <g clip-path="url(#p684e58a09b)">
     <use xlink:href="#m68b0178e99" x="727.143247" y="208.013267" style="fill: #006400; stroke: #006400"/>
     <use xlink:href="#m68b0178e99" x="767.457891" y="69.500433" style="fill: #006400; stroke: #006400"/>
    </g>
   </g>
   <g id="line2d_55">
    <path d="M 789.29499 103.909615 
L 789.714934 133.351156 
L 789.924906 137.396348 
L 790.344851 149.863968 
L 790.554823 151.816694 
L 790.764795 152.417542 
L 791.184739 151.816694 
L 791.394711 152.267359 
L 791.604683 154.069903 
L 791.814655 157.674989 
L 792.024627 158.876685 
L 792.2346 160.979593 
L 792.654544 168.039584 
L 793.074488 172.546001 
L 793.28446 173.597396 
L 793.494432 172.546001 
L 793.704404 174.198244 
L 793.914376 174.048062 
L 794.334321 174.949392 
L 794.544293 174.949392 
L 794.964237 176.751935 
L 795.174209 177.0523 
L 795.384181 177.803331 
L 795.804125 180.657387 
L 796.22407 182.910595 
L 796.853986 186.065017 
L 797.063958 182.009265 
L 797.483902 161.280076 
L 797.903846 137.246048 
L 798.113818 129.284844 
L 798.323791 125.82994 
L 798.533763 126.581088 
L 798.743735 129.885692 
L 799.163679 140.250404 
L 799.373651 139.649556 
L 799.583623 134.842657 
L 800.003567 120.272128 
L 800.21354 116.216376 
L 800.423512 115.315163 
L 800.633484 117.117706 
L 801.053428 128.683996 
L 801.893316 154.069903 
L 802.313261 161.430258 
L 802.943177 168.189767 
L 803.363121 166.837888 
L 804.203009 142.052947 
L 804.412982 146.859612 
L 804.622954 174.799092 
L 805.042898 114.564015 
L 805.25287 110.658563 
L 805.462842 116.366559 
L 805.672814 118.018919 
L 806.092758 113.36232 
L 806.302731 115.01468 
L 806.512703 136.7955 
L 806.722675 130.937205 
L 806.932647 179.005026 
L 807.982507 218.978709 
L 808.192479 217.476648 
L 808.612424 205.910358 
L 808.822396 206.661389 
L 809.032368 206.360906 
L 809.24234 207.562601 
L 809.662284 214.622592 
L 810.502173 228.442091 
L 811.552033 234.000021 
L 811.971977 237.454807 
L 812.181949 238.356138 
L 812.391922 240.459163 
L 812.811866 242.261707 
L 813.021838 243.763767 
L 813.23181 246.768006 
L 813.441782 244.170551 
L 813.651754 239.513952 
L 814.28167 211.424289 
L 814.701615 206.166842 
L 815.121559 210.523076 
L 816.171419 236.960378 
L 816.381392 236.35953 
L 816.591364 256.187506 
L 816.591364 256.187506 
" clip-path="url(#p684e58a09b)" style="fill: none; stroke: #008000; stroke-width: 0.5; stroke-linecap: square"/>
   </g>
   <g id="line2d_56">
    <g clip-path="url(#p684e58a09b)">
     <use xlink:href="#m68b0178e99" x="789.29499" y="103.909615" style="fill: #006400; stroke: #006400"/>
     <use xlink:href="#m68b0178e99" x="816.591364" y="256.187506" style="fill: #006400; stroke: #006400"/>
    </g>
   </g>
   <g id="patch_3">
    <path d="M 47.81 534.04 
L 47.81 36.48525 
" style="fill: none; stroke: #000000; stroke-width: 0.8; stroke-linejoin: miter; stroke-linecap: square"/>
   </g>
   <g id="patch_4">
    <path d="M 853.2 534.04 
L 853.2 36.48525 
" style="fill: none; stroke: #000000; stroke-width: 0.8; stroke-linejoin: miter; stroke-linecap: square"/>
   </g>
   <g id="patch_5">
    <path d="M 47.81 534.04 
L 853.2 534.04 
" style="fill: none; stroke: #000000; stroke-width: 0.8; stroke-linejoin: miter; stroke-linecap: square"/>
   </g>
   <g id="patch_6">
    <path d="M 47.81 36.48525 
L 853.2 36.48525 
" style="fill: none; stroke: #000000; stroke-width: 0.8; stroke-linejoin: miter; stroke-linecap: square"/>
   </g>
   <g id="text_20">
    <!-- EDA Filtering: data_43_E4 -->
    <g transform="translate(386.219062 19.009312) scale(0.1 -0.1)">
     <defs>
      <path id="DejaVuSans-46" d="M 628 4666 
L 3309 4666 
L 3309 4134 
L 1259 4134 
L 1259 2759 
L 3109 2759 
L 3109 2228 
L 1259 2228 
L 1259 0 
L 628 0 
L 628 4666 
z
" transform="scale(0.015625)"/>
      <path id="DejaVuSans-6c" d="M 603 4863 
L 1178 4863 
L 1178 0 
L 603 0 
L 603 4863 
z
" transform="scale(0.015625)"/>
      <path id="DejaVuSans-72" d="M 2631 2963 
Q 2534 3019 2420 3045 
Q 2306 3072 2169 3072 
Q 1681 3072 1420 2755 
Q 1159 2438 1159 1844 
L 1159 0 
L 581 0 
L 581 3500 
L 1159 3500 
L 1159 2956 
Q 1341 3275 1631 3429 
Q 1922 3584 2338 3584 
Q 2397 3584 2469 3576 
Q 2541 3569 2628 3553 
L 2631 2963 
z
" transform="scale(0.015625)"/>
      <path id="DejaVuSans-67" d="M 2906 1791 
Q 2906 2416 2648 2759 
Q 2391 3103 1925 3103 
Q 1463 3103 1205 2759 
Q 947 2416 947 1791 
Q 947 1169 1205 825 
Q 1463 481 1925 481 
Q 2391 481 2648 825 
Q 2906 1169 2906 1791 
z
M 3481 434 
Q 3481 -459 3084 -895 
Q 2688 -1331 1869 -1331 
Q 1566 -1331 1297 -1286 
Q 1028 -1241 775 -1147 
L 775 -588 
Q 1028 -725 1275 -790 
Q 1522 -856 1778 -856 
Q 2344 -856 2625 -561 
Q 2906 -266 2906 331 
L 2906 616 
Q 2728 306 2450 153 
Q 2172 0 1784 0 
Q 1141 0 747 490 
Q 353 981 353 1791 
Q 353 2603 747 3093 
Q 1141 3584 1784 3584 
Q 2172 3584 2450 3431 
Q 2728 3278 2906 2969 
L 2906 3500 
L 3481 3500 
L 3481 434 
z
" transform="scale(0.015625)"/>
      <path id="DejaVuSans-3a" d="M 750 794 
L 1409 794 
L 1409 0 
L 750 0 
L 750 794 
z
M 750 3309 
L 1409 3309 
L 1409 2516 
L 750 2516 
L 750 3309 
z
" transform="scale(0.015625)"/>
      <path id="DejaVuSans-64" d="M 2906 2969 
L 2906 4863 
L 3481 4863 
L 3481 0 
L 2906 0 
L 2906 525 
Q 2725 213 2448 61 
Q 2172 -91 1784 -91 
Q 1150 -91 751 415 
Q 353 922 353 1747 
Q 353 2572 751 3078 
Q 1150 3584 1784 3584 
Q 2172 3584 2448 3432 
Q 2725 3281 2906 2969 
z
M 947 1747 
Q 947 1113 1208 752 
Q 1469 391 1925 391 
Q 2381 391 2643 752 
Q 2906 1113 2906 1747 
Q 2906 2381 2643 2742 
Q 2381 3103 1925 3103 
Q 1469 3103 1208 2742 
Q 947 2381 947 1747 
z
" transform="scale(0.015625)"/>
      <path id="DejaVuSans-61" d="M 2194 1759 
Q 1497 1759 1228 1600 
Q 959 1441 959 1056 
Q 959 750 1161 570 
Q 1363 391 1709 391 
Q 2188 391 2477 730 
Q 2766 1069 2766 1631 
L 2766 1759 
L 2194 1759 
z
M 3341 1997 
L 3341 0 
L 2766 0 
L 2766 531 
Q 2569 213 2275 61 
Q 1981 -91 1556 -91 
Q 1019 -91 701 211 
Q 384 513 384 1019 
Q 384 1609 779 1909 
Q 1175 2209 1959 2209 
L 2766 2209 
L 2766 2266 
Q 2766 2663 2505 2880 
Q 2244 3097 1772 3097 
Q 1472 3097 1187 3025 
Q 903 2953 641 2809 
L 641 3341 
Q 956 3463 1253 3523 
Q 1550 3584 1831 3584 
Q 2591 3584 2966 3190 
Q 3341 2797 3341 1997 
z
" transform="scale(0.015625)"/>
      <path id="DejaVuSans-5f" d="M 3263 -1063 
L 3263 -1509 
L -63 -1509 
L -63 -1063 
L 3263 -1063 
z
" transform="scale(0.015625)"/>
     </defs>
     <use xlink:href="#DejaVuSans-45"/>
     <use xlink:href="#DejaVuSans-44" transform="translate(63.183594 0)"/>
     <use xlink:href="#DejaVuSans-41" transform="translate(138.435547 0)"/>
     <use xlink:href="#DejaVuSans-20" transform="translate(206.84375 0)"/>
     <use xlink:href="#DejaVuSans-46" transform="translate(238.630859 0)"/>
     <use xlink:href="#DejaVuSans-69" transform="translate(288.900391 0)"/>
     <use xlink:href="#DejaVuSans-6c" transform="translate(316.683594 0)"/>
     <use xlink:href="#DejaVuSans-74" transform="translate(344.466797 0)"/>
     <use xlink:href="#DejaVuSans-65" transform="translate(383.675781 0)"/>
     <use xlink:href="#DejaVuSans-72" transform="translate(445.199219 0)"/>
     <use xlink:href="#DejaVuSans-69" transform="translate(486.3125 0)"/>
     <use xlink:href="#DejaVuSans-6e" transform="translate(514.095703 0)"/>
     <use xlink:href="#DejaVuSans-67" transform="translate(577.474609 0)"/>
     <use xlink:href="#DejaVuSans-3a" transform="translate(640.951172 0)"/>
     <use xlink:href="#DejaVuSans-20" transform="translate(674.642578 0)"/>
     <use xlink:href="#DejaVuSans-64" transform="translate(706.429688 0)"/>
     <use xlink:href="#DejaVuSans-61" transform="translate(769.90625 0)"/>
     <use xlink:href="#DejaVuSans-74" transform="translate(831.185547 0)"/>
     <use xlink:href="#DejaVuSans-61" transform="translate(870.394531 0)"/>
     <use xlink:href="#DejaVuSans-5f" transform="translate(931.673828 0)"/>
     <use xlink:href="#DejaVuSans-34" transform="translate(981.673828 0)"/>
     <use xlink:href="#DejaVuSans-33" transform="translate(1045.296875 0)"/>
     <use xlink:href="#DejaVuSans-5f" transform="translate(1108.919922 0)"/>
     <use xlink:href="#DejaVuSans-45" transform="translate(1158.919922 0)"/>
     <use xlink:href="#DejaVuSans-34" transform="translate(1222.103516 0)"/>
    </g>
    <!-- Window=33, Threshold=0.15 -->
    <g transform="translate(377.101875 30.48525) scale(0.1 -0.1)">
     <defs>
      <path id="DejaVuSans-57" d="M 213 4666 
L 850 4666 
L 1831 722 
L 2809 4666 
L 3519 4666 
L 4500 722 
L 5478 4666 
L 6119 4666 
L 4947 0 
L 4153 0 
L 3169 4050 
L 2175 0 
L 1381 0 
L 213 4666 
z
" transform="scale(0.015625)"/>
      <path id="DejaVuSans-6f" d="M 1959 3097 
Q 1497 3097 1228 2736 
Q 959 2375 959 1747 
Q 959 1119 1226 758 
Q 1494 397 1959 397 
Q 2419 397 2687 759 
Q 2956 1122 2956 1747 
Q 2956 2369 2687 2733 
Q 2419 3097 1959 3097 
z
M 1959 3584 
Q 2709 3584 3137 3096 
Q 3566 2609 3566 1747 
Q 3566 888 3137 398 
Q 2709 -91 1959 -91 
Q 1206 -91 779 398 
Q 353 888 353 1747 
Q 353 2609 779 3096 
Q 1206 3584 1959 3584 
z
" transform="scale(0.015625)"/>
      <path id="DejaVuSans-77" d="M 269 3500 
L 844 3500 
L 1563 769 
L 2278 3500 
L 2956 3500 
L 3675 769 
L 4391 3500 
L 4966 3500 
L 4050 0 
L 3372 0 
L 2619 2869 
L 1863 0 
L 1184 0 
L 269 3500 
z
" transform="scale(0.015625)"/>
      <path id="DejaVuSans-3d" d="M 678 2906 
L 4684 2906 
L 4684 2381 
L 678 2381 
L 678 2906 
z
M 678 1631 
L 4684 1631 
L 4684 1100 
L 678 1100 
L 678 1631 
z
" transform="scale(0.015625)"/>
      <path id="DejaVuSans-2c" d="M 750 794 
L 1409 794 
L 1409 256 
L 897 -744 
L 494 -744 
L 750 256 
L 750 794 
z
" transform="scale(0.015625)"/>
      <path id="DejaVuSans-68" d="M 3513 2113 
L 3513 0 
L 2938 0 
L 2938 2094 
Q 2938 2591 2744 2837 
Q 2550 3084 2163 3084 
Q 1697 3084 1428 2787 
Q 1159 2491 1159 1978 
L 1159 0 
L 581 0 
L 581 4863 
L 1159 4863 
L 1159 2956 
Q 1366 3272 1645 3428 
Q 1925 3584 2291 3584 
Q 2894 3584 3203 3211 
Q 3513 2838 3513 2113 
z
" transform="scale(0.015625)"/>
     </defs>
     <use xlink:href="#DejaVuSans-57"/>
     <use xlink:href="#DejaVuSans-69" transform="translate(96.626953 0)"/>
     <use xlink:href="#DejaVuSans-6e" transform="translate(124.410156 0)"/>
     <use xlink:href="#DejaVuSans-64" transform="translate(187.789062 0)"/>
     <use xlink:href="#DejaVuSans-6f" transform="translate(251.265625 0)"/>
     <use xlink:href="#DejaVuSans-77" transform="translate(312.447266 0)"/>
     <use xlink:href="#DejaVuSans-3d" transform="translate(394.234375 0)"/>
     <use xlink:href="#DejaVuSans-33" transform="translate(478.023438 0)"/>
     <use xlink:href="#DejaVuSans-33" transform="translate(541.646484 0)"/>
     <use xlink:href="#DejaVuSans-2c" transform="translate(605.269531 0)"/>
     <use xlink:href="#DejaVuSans-20" transform="translate(637.056641 0)"/>
     <use xlink:href="#DejaVuSans-54" transform="translate(668.84375 0)"/>
     <use xlink:href="#DejaVuSans-68" transform="translate(729.927734 0)"/>
     <use xlink:href="#DejaVuSans-72" transform="translate(793.306641 0)"/>
     <use xlink:href="#DejaVuSans-65" transform="translate(832.169922 0)"/>
     <use xlink:href="#DejaVuSans-73" transform="translate(893.693359 0)"/>
     <use xlink:href="#DejaVuSans-68" transform="translate(945.792969 0)"/>
     <use xlink:href="#DejaVuSans-6f" transform="translate(1009.171875 0)"/>
     <use xlink:href="#DejaVuSans-6c" transform="translate(1070.353516 0)"/>
     <use xlink:href="#DejaVuSans-64" transform="translate(1098.136719 0)"/>
     <use xlink:href="#DejaVuSans-3d" transform="translate(1161.613281 0)"/>
     <use xlink:href="#DejaVuSans-30" transform="translate(1245.402344 0)"/>
     <use xlink:href="#DejaVuSans-2e" transform="translate(1309.025391 0)"/>
     <use xlink:href="#DejaVuSans-31" transform="translate(1340.8125 0)"/>
     <use xlink:href="#DejaVuSans-35" transform="translate(1404.435547 0)"/>
    </g>
   </g>
   <g id="legend_1">
    <g id="patch_7">
     <path d="M 54.81 73.8415 
L 148.20375 73.8415 
Q 150.20375 73.8415 150.20375 71.8415 
L 150.20375 43.48525 
Q 150.20375 41.48525 148.20375 41.48525 
L 54.81 41.48525 
Q 52.81 41.48525 52.81 43.48525 
L 52.81 71.8415 
Q 52.81 73.8415 54.81 73.8415 
z
" style="fill: #ffffff; opacity: 0.8; stroke: #cccccc; stroke-linejoin: miter"/>
    </g>
    <g id="line2d_57">
     <path d="M 56.81 49.583687 
L 66.81 49.583687 
L 76.81 49.583687 
" style="fill: none; stroke: #008000; stroke-width: 0.5; stroke-linecap: square"/>
    </g>
    <g id="text_21">
     <!-- Valid (≥20s) -->
     <g transform="translate(84.81 53.083687) scale(0.1 -0.1)">
      <defs>
       <path id="DejaVuSans-56" d="M 1831 0 
L 50 4666 
L 709 4666 
L 2188 738 
L 3669 4666 
L 4325 4666 
L 2547 0 
L 1831 0 
z
" transform="scale(0.015625)"/>
       <path id="DejaVuSans-2265" d="M 678 3175 
L 678 3725 
L 4684 2578 
L 4684 2047 
L 678 897 
L 678 1453 
L 3681 2309 
L 678 3175 
z
M 4684 531 
L 4684 0 
L 678 0 
L 678 531 
L 4684 531 
z
" transform="scale(0.015625)"/>
      </defs>
      <use xlink:href="#DejaVuSans-56"/>
      <use xlink:href="#DejaVuSans-61" transform="translate(60.658203 0)"/>
      <use xlink:href="#DejaVuSans-6c" transform="translate(121.9375 0)"/>
      <use xlink:href="#DejaVuSans-69" transform="translate(149.720703 0)"/>
      <use xlink:href="#DejaVuSans-64" transform="translate(177.503906 0)"/>
      <use xlink:href="#DejaVuSans-20" transform="translate(240.980469 0)"/>
      <use xlink:href="#DejaVuSans-28" transform="translate(272.767578 0)"/>
      <use xlink:href="#DejaVuSans-2265" transform="translate(311.78125 0)"/>
      <use xlink:href="#DejaVuSans-32" transform="translate(395.570312 0)"/>
      <use xlink:href="#DejaVuSans-30" transform="translate(459.193359 0)"/>
      <use xlink:href="#DejaVuSans-73" transform="translate(522.816406 0)"/>
      <use xlink:href="#DejaVuSans-29" transform="translate(574.916016 0)"/>
     </g>
    </g>
    <g id="line2d_58">
     <g>
      <use xlink:href="#m68b0178e99" x="66.81" y="64.261813" style="fill: #006400; stroke: #006400"/>
     </g>
    </g>
    <g id="text_22">
     <!-- Endpoints -->
     <g transform="translate(84.81 67.761813) scale(0.1 -0.1)">
      <defs>
       <path id="DejaVuSans-70" d="M 1159 525 
L 1159 -1331 
L 581 -1331 
L 581 3500 
L 1159 3500 
L 1159 2969 
Q 1341 3281 1617 3432 
Q 1894 3584 2278 3584 
Q 2916 3584 3314 3078 
Q 3713 2572 3713 1747 
Q 3713 922 3314 415 
Q 2916 -91 2278 -91 
Q 1894 -91 1617 61 
Q 1341 213 1159 525 
z
M 3116 1747 
Q 3116 2381 2855 2742 
Q 2594 3103 2138 3103 
Q 1681 3103 1420 2742 
Q 1159 2381 1159 1747 
Q 1159 1113 1420 752 
Q 1681 391 2138 391 
Q 2594 391 2855 752 
Q 3116 1113 3116 1747 
z
" transform="scale(0.015625)"/>
      </defs>
      <use xlink:href="#DejaVuSans-45"/>
      <use xlink:href="#DejaVuSans-6e" transform="translate(63.183594 0)"/>
      <use xlink:href="#DejaVuSans-64" transform="translate(126.5625 0)"/>
      <use xlink:href="#DejaVuSans-70" transform="translate(190.039062 0)"/>
      <use xlink:href="#DejaVuSans-6f" transform="translate(253.515625 0)"/>
      <use xlink:href="#DejaVuSans-69" transform="translate(314.697266 0)"/>
      <use xlink:href="#DejaVuSans-6e" transform="translate(342.480469 0)"/>
      <use xlink:href="#DejaVuSans-74" transform="translate(405.859375 0)"/>
      <use xlink:href="#DejaVuSans-73" transform="translate(445.068359 0)"/>
     </g>
    </g>
   </g>
  </g>
 </g>
 <defs>
  <clipPath id="p684e58a09b">
   <rect x="47.81" y="36.48525" width="805.39" height="497.55475"/>
  </clipPath>
 </defs>
</svg>
