<?xml version="1.0" encoding="utf-8" standalone="no"?>
<!DOCTYPE svg PUBLIC "-//W3C//DTD SVG 1.1//EN"
  "http://www.w3.org/Graphics/SVG/1.1/DTD/svg11.dtd">
<svg xmlns:xlink="http://www.w3.org/1999/xlink" width="864pt" height="576pt" viewBox="0 0 864 576" xmlns="http://www.w3.org/2000/svg" version="1.1">
 <metadata>
  <rdf:RDF xmlns:dc="http://purl.org/dc/elements/1.1/" xmlns:cc="http://creativecommons.org/ns#" xmlns:rdf="http://www.w3.org/1999/02/22-rdf-syntax-ns#">
   <cc:Work>
    <dc:type rdf:resource="http://purl.org/dc/dcmitype/StillImage"/>
    <dc:date>2025-09-24T15:32:25.727541</dc:date>
    <dc:format>image/svg+xml</dc:format>
    <dc:creator>
     <cc:Agent>
      <dc:title>Matplotlib v3.10.0, https://matplotlib.org/</dc:title>
     </cc:Agent>
    </dc:creator>
   </cc:Work>
  </rdf:RDF>
 </metadata>
 <defs>
  <style type="text/css">*{stroke-linejoin: round; stroke-linecap: butt}</style>
 </defs>
 <g id="figure_1">
  <g id="patch_1">
   <path d="M 0 576 
L 864 576 
L 864 0 
L 0 0 
z
" style="fill: #ffffff"/>
  </g>
  <g id="axes_1">
   <g id="patch_2">
    <path d="M 47.81 534.04 
L 853.2 534.04 
L 853.2 25.44 
L 47.81 25.44 
z
" style="fill: #ffffff"/>
   </g>
   <g id="matplotlib.axis_1">
    <g id="xtick_1">
     <g id="line2d_1">
      <path d="M 84.418636 534.04 
L 84.418636 25.44 
" clip-path="url(#p7a342f944c)" style="fill: none; stroke: #b0b0b0; stroke-opacity: 0.3; stroke-width: 0.8; stroke-linecap: square"/>
     </g>
     <g id="line2d_2">
      <defs>
       <path id="m6a356eaa41" d="M 0 0 
L 0 3.5 
" style="stroke: #000000; stroke-width: 0.8"/>
      </defs>
      <g>
       <use xlink:href="#m6a356eaa41" x="84.418636" y="534.04" style="stroke: #000000; stroke-width: 0.8"/>
      </g>
     </g>
     <g id="text_1">
      <!-- 0 -->
      <g transform="translate(81.237386 548.638438) scale(0.1 -0.1)">
       <defs>
        <path id="DejaVuSans-30" d="M 2034 4250 
Q 1547 4250 1301 3770 
Q 1056 3291 1056 2328 
Q 1056 1369 1301 889 
Q 1547 409 2034 409 
Q 2525 409 2770 889 
Q 3016 1369 3016 2328 
Q 3016 3291 2770 3770 
Q 2525 4250 2034 4250 
z
M 2034 4750 
Q 2819 4750 3233 4129 
Q 3647 3509 3647 2328 
Q 3647 1150 3233 529 
Q 2819 -91 2034 -91 
Q 1250 -91 836 529 
Q 422 1150 422 2328 
Q 422 3509 836 4129 
Q 1250 4750 2034 4750 
z
" transform="scale(0.015625)"/>
       </defs>
       <use xlink:href="#DejaVuSans-30"/>
      </g>
     </g>
    </g>
    <g id="xtick_2">
     <g id="line2d_3">
      <path d="M 182.041667 534.04 
L 182.041667 25.44 
" clip-path="url(#p7a342f944c)" style="fill: none; stroke: #b0b0b0; stroke-opacity: 0.3; stroke-width: 0.8; stroke-linecap: square"/>
     </g>
     <g id="line2d_4">
      <g>
       <use xlink:href="#m6a356eaa41" x="182.041667" y="534.04" style="stroke: #000000; stroke-width: 0.8"/>
      </g>
     </g>
     <g id="text_2">
      <!-- 2 -->
      <g transform="translate(178.860417 548.638438) scale(0.1 -0.1)">
       <defs>
        <path id="DejaVuSans-32" d="M 1228 531 
L 3431 531 
L 3431 0 
L 469 0 
L 469 531 
Q 828 903 1448 1529 
Q 2069 2156 2228 2338 
Q 2531 2678 2651 2914 
Q 2772 3150 2772 3378 
Q 2772 3750 2511 3984 
Q 2250 4219 1831 4219 
Q 1534 4219 1204 4116 
Q 875 4013 500 3803 
L 500 4441 
Q 881 4594 1212 4672 
Q 1544 4750 1819 4750 
Q 2544 4750 2975 4387 
Q 3406 4025 3406 3419 
Q 3406 3131 3298 2873 
Q 3191 2616 2906 2266 
Q 2828 2175 2409 1742 
Q 1991 1309 1228 531 
z
" transform="scale(0.015625)"/>
       </defs>
       <use xlink:href="#DejaVuSans-32"/>
      </g>
     </g>
    </g>
    <g id="xtick_3">
     <g id="line2d_5">
      <path d="M 279.664697 534.04 
L 279.664697 25.44 
" clip-path="url(#p7a342f944c)" style="fill: none; stroke: #b0b0b0; stroke-opacity: 0.3; stroke-width: 0.8; stroke-linecap: square"/>
     </g>
     <g id="line2d_6">
      <g>
       <use xlink:href="#m6a356eaa41" x="279.664697" y="534.04" style="stroke: #000000; stroke-width: 0.8"/>
      </g>
     </g>
     <g id="text_3">
      <!-- 4 -->
      <g transform="translate(276.483447 548.638438) scale(0.1 -0.1)">
       <defs>
        <path id="DejaVuSans-34" d="M 2419 4116 
L 825 1625 
L 2419 1625 
L 2419 4116 
z
M 2253 4666 
L 3047 4666 
L 3047 1625 
L 3713 1625 
L 3713 1100 
L 3047 1100 
L 3047 0 
L 2419 0 
L 2419 1100 
L 313 1100 
L 313 1709 
L 2253 4666 
z
" transform="scale(0.015625)"/>
       </defs>
       <use xlink:href="#DejaVuSans-34"/>
      </g>
     </g>
    </g>
    <g id="xtick_4">
     <g id="line2d_7">
      <path d="M 377.287727 534.04 
L 377.287727 25.44 
" clip-path="url(#p7a342f944c)" style="fill: none; stroke: #b0b0b0; stroke-opacity: 0.3; stroke-width: 0.8; stroke-linecap: square"/>
     </g>
     <g id="line2d_8">
      <g>
       <use xlink:href="#m6a356eaa41" x="377.287727" y="534.04" style="stroke: #000000; stroke-width: 0.8"/>
      </g>
     </g>
     <g id="text_4">
      <!-- 6 -->
      <g transform="translate(374.106477 548.638438) scale(0.1 -0.1)">
       <defs>
        <path id="DejaVuSans-36" d="M 2113 2584 
Q 1688 2584 1439 2293 
Q 1191 2003 1191 1497 
Q 1191 994 1439 701 
Q 1688 409 2113 409 
Q 2538 409 2786 701 
Q 3034 994 3034 1497 
Q 3034 2003 2786 2293 
Q 2538 2584 2113 2584 
z
M 3366 4563 
L 3366 3988 
Q 3128 4100 2886 4159 
Q 2644 4219 2406 4219 
Q 1781 4219 1451 3797 
Q 1122 3375 1075 2522 
Q 1259 2794 1537 2939 
Q 1816 3084 2150 3084 
Q 2853 3084 3261 2657 
Q 3669 2231 3669 1497 
Q 3669 778 3244 343 
Q 2819 -91 2113 -91 
Q 1303 -91 875 529 
Q 447 1150 447 2328 
Q 447 3434 972 4092 
Q 1497 4750 2381 4750 
Q 2619 4750 2861 4703 
Q 3103 4656 3366 4563 
z
" transform="scale(0.015625)"/>
       </defs>
       <use xlink:href="#DejaVuSans-36"/>
      </g>
     </g>
    </g>
    <g id="xtick_5">
     <g id="line2d_9">
      <path d="M 474.910758 534.04 
L 474.910758 25.44 
" clip-path="url(#p7a342f944c)" style="fill: none; stroke: #b0b0b0; stroke-opacity: 0.3; stroke-width: 0.8; stroke-linecap: square"/>
     </g>
     <g id="line2d_10">
      <g>
       <use xlink:href="#m6a356eaa41" x="474.910758" y="534.04" style="stroke: #000000; stroke-width: 0.8"/>
      </g>
     </g>
     <g id="text_5">
      <!-- 8 -->
      <g transform="translate(471.729508 548.638438) scale(0.1 -0.1)">
       <defs>
        <path id="DejaVuSans-38" d="M 2034 2216 
Q 1584 2216 1326 1975 
Q 1069 1734 1069 1313 
Q 1069 891 1326 650 
Q 1584 409 2034 409 
Q 2484 409 2743 651 
Q 3003 894 3003 1313 
Q 3003 1734 2745 1975 
Q 2488 2216 2034 2216 
z
M 1403 2484 
Q 997 2584 770 2862 
Q 544 3141 544 3541 
Q 544 4100 942 4425 
Q 1341 4750 2034 4750 
Q 2731 4750 3128 4425 
Q 3525 4100 3525 3541 
Q 3525 3141 3298 2862 
Q 3072 2584 2669 2484 
Q 3125 2378 3379 2068 
Q 3634 1759 3634 1313 
Q 3634 634 3220 271 
Q 2806 -91 2034 -91 
Q 1263 -91 848 271 
Q 434 634 434 1313 
Q 434 1759 690 2068 
Q 947 2378 1403 2484 
z
M 1172 3481 
Q 1172 3119 1398 2916 
Q 1625 2713 2034 2713 
Q 2441 2713 2670 2916 
Q 2900 3119 2900 3481 
Q 2900 3844 2670 4047 
Q 2441 4250 2034 4250 
Q 1625 4250 1398 4047 
Q 1172 3844 1172 3481 
z
" transform="scale(0.015625)"/>
       </defs>
       <use xlink:href="#DejaVuSans-38"/>
      </g>
     </g>
    </g>
    <g id="xtick_6">
     <g id="line2d_11">
      <path d="M 572.533788 534.04 
L 572.533788 25.44 
" clip-path="url(#p7a342f944c)" style="fill: none; stroke: #b0b0b0; stroke-opacity: 0.3; stroke-width: 0.8; stroke-linecap: square"/>
     </g>
     <g id="line2d_12">
      <g>
       <use xlink:href="#m6a356eaa41" x="572.533788" y="534.04" style="stroke: #000000; stroke-width: 0.8"/>
      </g>
     </g>
     <g id="text_6">
      <!-- 10 -->
      <g transform="translate(566.171288 548.638438) scale(0.1 -0.1)">
       <defs>
        <path id="DejaVuSans-31" d="M 794 531 
L 1825 531 
L 1825 4091 
L 703 3866 
L 703 4441 
L 1819 4666 
L 2450 4666 
L 2450 531 
L 3481 531 
L 3481 0 
L 794 0 
L 794 531 
z
" transform="scale(0.015625)"/>
       </defs>
       <use xlink:href="#DejaVuSans-31"/>
       <use xlink:href="#DejaVuSans-30" transform="translate(63.623047 0)"/>
      </g>
     </g>
    </g>
    <g id="xtick_7">
     <g id="line2d_13">
      <path d="M 670.156818 534.04 
L 670.156818 25.44 
" clip-path="url(#p7a342f944c)" style="fill: none; stroke: #b0b0b0; stroke-opacity: 0.3; stroke-width: 0.8; stroke-linecap: square"/>
     </g>
     <g id="line2d_14">
      <g>
       <use xlink:href="#m6a356eaa41" x="670.156818" y="534.04" style="stroke: #000000; stroke-width: 0.8"/>
      </g>
     </g>
     <g id="text_7">
      <!-- 12 -->
      <g transform="translate(663.794318 548.638438) scale(0.1 -0.1)">
       <use xlink:href="#DejaVuSans-31"/>
       <use xlink:href="#DejaVuSans-32" transform="translate(63.623047 0)"/>
      </g>
     </g>
    </g>
    <g id="xtick_8">
     <g id="line2d_15">
      <path d="M 767.779848 534.04 
L 767.779848 25.44 
" clip-path="url(#p7a342f944c)" style="fill: none; stroke: #b0b0b0; stroke-opacity: 0.3; stroke-width: 0.8; stroke-linecap: square"/>
     </g>
     <g id="line2d_16">
      <g>
       <use xlink:href="#m6a356eaa41" x="767.779848" y="534.04" style="stroke: #000000; stroke-width: 0.8"/>
      </g>
     </g>
     <g id="text_8">
      <!-- 14 -->
      <g transform="translate(761.417348 548.638438) scale(0.1 -0.1)">
       <use xlink:href="#DejaVuSans-31"/>
       <use xlink:href="#DejaVuSans-34" transform="translate(63.623047 0)"/>
      </g>
     </g>
    </g>
    <g id="text_9">
     <!-- Time (minutes) -->
     <g transform="translate(412.5425 562.316563) scale(0.1 -0.1)">
      <defs>
       <path id="DejaVuSans-54" d="M -19 4666 
L 3928 4666 
L 3928 4134 
L 2272 4134 
L 2272 0 
L 1638 0 
L 1638 4134 
L -19 4134 
L -19 4666 
z
" transform="scale(0.015625)"/>
       <path id="DejaVuSans-69" d="M 603 3500 
L 1178 3500 
L 1178 0 
L 603 0 
L 603 3500 
z
M 603 4863 
L 1178 4863 
L 1178 4134 
L 603 4134 
L 603 4863 
z
" transform="scale(0.015625)"/>
       <path id="DejaVuSans-6d" d="M 3328 2828 
Q 3544 3216 3844 3400 
Q 4144 3584 4550 3584 
Q 5097 3584 5394 3201 
Q 5691 2819 5691 2113 
L 5691 0 
L 5113 0 
L 5113 2094 
Q 5113 2597 4934 2840 
Q 4756 3084 4391 3084 
Q 3944 3084 3684 2787 
Q 3425 2491 3425 1978 
L 3425 0 
L 2847 0 
L 2847 2094 
Q 2847 2600 2669 2842 
Q 2491 3084 2119 3084 
Q 1678 3084 1418 2786 
Q 1159 2488 1159 1978 
L 1159 0 
L 581 0 
L 581 3500 
L 1159 3500 
L 1159 2956 
Q 1356 3278 1631 3431 
Q 1906 3584 2284 3584 
Q 2666 3584 2933 3390 
Q 3200 3197 3328 2828 
z
" transform="scale(0.015625)"/>
       <path id="DejaVuSans-65" d="M 3597 1894 
L 3597 1613 
L 953 1613 
Q 991 1019 1311 708 
Q 1631 397 2203 397 
Q 2534 397 2845 478 
Q 3156 559 3463 722 
L 3463 178 
Q 3153 47 2828 -22 
Q 2503 -91 2169 -91 
Q 1331 -91 842 396 
Q 353 884 353 1716 
Q 353 2575 817 3079 
Q 1281 3584 2069 3584 
Q 2775 3584 3186 3129 
Q 3597 2675 3597 1894 
z
M 3022 2063 
Q 3016 2534 2758 2815 
Q 2500 3097 2075 3097 
Q 1594 3097 1305 2825 
Q 1016 2553 972 2059 
L 3022 2063 
z
" transform="scale(0.015625)"/>
       <path id="DejaVuSans-20" transform="scale(0.015625)"/>
       <path id="DejaVuSans-28" d="M 1984 4856 
Q 1566 4138 1362 3434 
Q 1159 2731 1159 2009 
Q 1159 1288 1364 580 
Q 1569 -128 1984 -844 
L 1484 -844 
Q 1016 -109 783 600 
Q 550 1309 550 2009 
Q 550 2706 781 3412 
Q 1013 4119 1484 4856 
L 1984 4856 
z
" transform="scale(0.015625)"/>
       <path id="DejaVuSans-6e" d="M 3513 2113 
L 3513 0 
L 2938 0 
L 2938 2094 
Q 2938 2591 2744 2837 
Q 2550 3084 2163 3084 
Q 1697 3084 1428 2787 
Q 1159 2491 1159 1978 
L 1159 0 
L 581 0 
L 581 3500 
L 1159 3500 
L 1159 2956 
Q 1366 3272 1645 3428 
Q 1925 3584 2291 3584 
Q 2894 3584 3203 3211 
Q 3513 2838 3513 2113 
z
" transform="scale(0.015625)"/>
       <path id="DejaVuSans-75" d="M 544 1381 
L 544 3500 
L 1119 3500 
L 1119 1403 
Q 1119 906 1312 657 
Q 1506 409 1894 409 
Q 2359 409 2629 706 
Q 2900 1003 2900 1516 
L 2900 3500 
L 3475 3500 
L 3475 0 
L 2900 0 
L 2900 538 
Q 2691 219 2414 64 
Q 2138 -91 1772 -91 
Q 1169 -91 856 284 
Q 544 659 544 1381 
z
M 1991 3584 
L 1991 3584 
z
" transform="scale(0.015625)"/>
       <path id="DejaVuSans-74" d="M 1172 4494 
L 1172 3500 
L 2356 3500 
L 2356 3053 
L 1172 3053 
L 1172 1153 
Q 1172 725 1289 603 
Q 1406 481 1766 481 
L 2356 481 
L 2356 0 
L 1766 0 
Q 1100 0 847 248 
Q 594 497 594 1153 
L 594 3053 
L 172 3053 
L 172 3500 
L 594 3500 
L 594 4494 
L 1172 4494 
z
" transform="scale(0.015625)"/>
       <path id="DejaVuSans-73" d="M 2834 3397 
L 2834 2853 
Q 2591 2978 2328 3040 
Q 2066 3103 1784 3103 
Q 1356 3103 1142 2972 
Q 928 2841 928 2578 
Q 928 2378 1081 2264 
Q 1234 2150 1697 2047 
L 1894 2003 
Q 2506 1872 2764 1633 
Q 3022 1394 3022 966 
Q 3022 478 2636 193 
Q 2250 -91 1575 -91 
Q 1294 -91 989 -36 
Q 684 19 347 128 
L 347 722 
Q 666 556 975 473 
Q 1284 391 1588 391 
Q 1994 391 2212 530 
Q 2431 669 2431 922 
Q 2431 1156 2273 1281 
Q 2116 1406 1581 1522 
L 1381 1569 
Q 847 1681 609 1914 
Q 372 2147 372 2553 
Q 372 3047 722 3315 
Q 1072 3584 1716 3584 
Q 2034 3584 2315 3537 
Q 2597 3491 2834 3397 
z
" transform="scale(0.015625)"/>
       <path id="DejaVuSans-29" d="M 513 4856 
L 1013 4856 
Q 1481 4119 1714 3412 
Q 1947 2706 1947 2009 
Q 1947 1309 1714 600 
Q 1481 -109 1013 -844 
L 513 -844 
Q 928 -128 1133 580 
Q 1338 1288 1338 2009 
Q 1338 2731 1133 3434 
Q 928 4138 513 4856 
z
" transform="scale(0.015625)"/>
      </defs>
      <use xlink:href="#DejaVuSans-54"/>
      <use xlink:href="#DejaVuSans-69" transform="translate(57.958984 0)"/>
      <use xlink:href="#DejaVuSans-6d" transform="translate(85.742188 0)"/>
      <use xlink:href="#DejaVuSans-65" transform="translate(183.154297 0)"/>
      <use xlink:href="#DejaVuSans-20" transform="translate(244.677734 0)"/>
      <use xlink:href="#DejaVuSans-28" transform="translate(276.464844 0)"/>
      <use xlink:href="#DejaVuSans-6d" transform="translate(315.478516 0)"/>
      <use xlink:href="#DejaVuSans-69" transform="translate(412.890625 0)"/>
      <use xlink:href="#DejaVuSans-6e" transform="translate(440.673828 0)"/>
      <use xlink:href="#DejaVuSans-75" transform="translate(504.052734 0)"/>
      <use xlink:href="#DejaVuSans-74" transform="translate(567.431641 0)"/>
      <use xlink:href="#DejaVuSans-65" transform="translate(606.640625 0)"/>
      <use xlink:href="#DejaVuSans-73" transform="translate(668.164062 0)"/>
      <use xlink:href="#DejaVuSans-29" transform="translate(720.263672 0)"/>
     </g>
    </g>
   </g>
   <g id="matplotlib.axis_2">
    <g id="ytick_1">
     <g id="line2d_17">
      <path d="M 47.81 498.94744 
L 853.2 498.94744 
" clip-path="url(#p7a342f944c)" style="fill: none; stroke: #b0b0b0; stroke-opacity: 0.3; stroke-width: 0.8; stroke-linecap: square"/>
     </g>
     <g id="line2d_18">
      <defs>
       <path id="m6a4b3242e5" d="M 0 0 
L -3.5 0 
" style="stroke: #000000; stroke-width: 0.8"/>
      </defs>
      <g>
       <use xlink:href="#m6a4b3242e5" x="47.81" y="498.94744" style="stroke: #000000; stroke-width: 0.8"/>
      </g>
     </g>
     <g id="text_10">
      <!-- 0.0 -->
      <g transform="translate(24.906875 502.746659) scale(0.1 -0.1)">
       <defs>
        <path id="DejaVuSans-2e" d="M 684 794 
L 1344 794 
L 1344 0 
L 684 0 
L 684 794 
z
" transform="scale(0.015625)"/>
       </defs>
       <use xlink:href="#DejaVuSans-30"/>
       <use xlink:href="#DejaVuSans-2e" transform="translate(63.623047 0)"/>
       <use xlink:href="#DejaVuSans-30" transform="translate(95.410156 0)"/>
      </g>
     </g>
    </g>
    <g id="ytick_2">
     <g id="line2d_19">
      <path d="M 47.81 413.277015 
L 853.2 413.277015 
" clip-path="url(#p7a342f944c)" style="fill: none; stroke: #b0b0b0; stroke-opacity: 0.3; stroke-width: 0.8; stroke-linecap: square"/>
     </g>
     <g id="line2d_20">
      <g>
       <use xlink:href="#m6a4b3242e5" x="47.81" y="413.277015" style="stroke: #000000; stroke-width: 0.8"/>
      </g>
     </g>
     <g id="text_11">
      <!-- 0.1 -->
      <g transform="translate(24.906875 417.076233) scale(0.1 -0.1)">
       <use xlink:href="#DejaVuSans-30"/>
       <use xlink:href="#DejaVuSans-2e" transform="translate(63.623047 0)"/>
       <use xlink:href="#DejaVuSans-31" transform="translate(95.410156 0)"/>
      </g>
     </g>
    </g>
    <g id="ytick_3">
     <g id="line2d_21">
      <path d="M 47.81 327.606589 
L 853.2 327.606589 
" clip-path="url(#p7a342f944c)" style="fill: none; stroke: #b0b0b0; stroke-opacity: 0.3; stroke-width: 0.8; stroke-linecap: square"/>
     </g>
     <g id="line2d_22">
      <g>
       <use xlink:href="#m6a4b3242e5" x="47.81" y="327.606589" style="stroke: #000000; stroke-width: 0.8"/>
      </g>
     </g>
     <g id="text_12">
      <!-- 0.2 -->
      <g transform="translate(24.906875 331.405808) scale(0.1 -0.1)">
       <use xlink:href="#DejaVuSans-30"/>
       <use xlink:href="#DejaVuSans-2e" transform="translate(63.623047 0)"/>
       <use xlink:href="#DejaVuSans-32" transform="translate(95.410156 0)"/>
      </g>
     </g>
    </g>
    <g id="ytick_4">
     <g id="line2d_23">
      <path d="M 47.81 241.936163 
L 853.2 241.936163 
" clip-path="url(#p7a342f944c)" style="fill: none; stroke: #b0b0b0; stroke-opacity: 0.3; stroke-width: 0.8; stroke-linecap: square"/>
     </g>
     <g id="line2d_24">
      <g>
       <use xlink:href="#m6a4b3242e5" x="47.81" y="241.936163" style="stroke: #000000; stroke-width: 0.8"/>
      </g>
     </g>
     <g id="text_13">
      <!-- 0.3 -->
      <g transform="translate(24.906875 245.735382) scale(0.1 -0.1)">
       <defs>
        <path id="DejaVuSans-33" d="M 2597 2516 
Q 3050 2419 3304 2112 
Q 3559 1806 3559 1356 
Q 3559 666 3084 287 
Q 2609 -91 1734 -91 
Q 1441 -91 1130 -33 
Q 819 25 488 141 
L 488 750 
Q 750 597 1062 519 
Q 1375 441 1716 441 
Q 2309 441 2620 675 
Q 2931 909 2931 1356 
Q 2931 1769 2642 2001 
Q 2353 2234 1838 2234 
L 1294 2234 
L 1294 2753 
L 1863 2753 
Q 2328 2753 2575 2939 
Q 2822 3125 2822 3475 
Q 2822 3834 2567 4026 
Q 2313 4219 1838 4219 
Q 1578 4219 1281 4162 
Q 984 4106 628 3988 
L 628 4550 
Q 988 4650 1302 4700 
Q 1616 4750 1894 4750 
Q 2613 4750 3031 4423 
Q 3450 4097 3450 3541 
Q 3450 3153 3228 2886 
Q 3006 2619 2597 2516 
z
" transform="scale(0.015625)"/>
       </defs>
       <use xlink:href="#DejaVuSans-30"/>
       <use xlink:href="#DejaVuSans-2e" transform="translate(63.623047 0)"/>
       <use xlink:href="#DejaVuSans-33" transform="translate(95.410156 0)"/>
      </g>
     </g>
    </g>
    <g id="ytick_5">
     <g id="line2d_25">
      <path d="M 47.81 156.265738 
L 853.2 156.265738 
" clip-path="url(#p7a342f944c)" style="fill: none; stroke: #b0b0b0; stroke-opacity: 0.3; stroke-width: 0.8; stroke-linecap: square"/>
     </g>
     <g id="line2d_26">
      <g>
       <use xlink:href="#m6a4b3242e5" x="47.81" y="156.265738" style="stroke: #000000; stroke-width: 0.8"/>
      </g>
     </g>
     <g id="text_14">
      <!-- 0.4 -->
      <g transform="translate(24.906875 160.064956) scale(0.1 -0.1)">
       <use xlink:href="#DejaVuSans-30"/>
       <use xlink:href="#DejaVuSans-2e" transform="translate(63.623047 0)"/>
       <use xlink:href="#DejaVuSans-34" transform="translate(95.410156 0)"/>
      </g>
     </g>
    </g>
    <g id="ytick_6">
     <g id="line2d_27">
      <path d="M 47.81 70.595312 
L 853.2 70.595312 
" clip-path="url(#p7a342f944c)" style="fill: none; stroke: #b0b0b0; stroke-opacity: 0.3; stroke-width: 0.8; stroke-linecap: square"/>
     </g>
     <g id="line2d_28">
      <g>
       <use xlink:href="#m6a4b3242e5" x="47.81" y="70.595312" style="stroke: #000000; stroke-width: 0.8"/>
      </g>
     </g>
     <g id="text_15">
      <!-- 0.5 -->
      <g transform="translate(24.906875 74.394531) scale(0.1 -0.1)">
       <defs>
        <path id="DejaVuSans-35" d="M 691 4666 
L 3169 4666 
L 3169 4134 
L 1269 4134 
L 1269 2991 
Q 1406 3038 1543 3061 
Q 1681 3084 1819 3084 
Q 2600 3084 3056 2656 
Q 3513 2228 3513 1497 
Q 3513 744 3044 326 
Q 2575 -91 1722 -91 
Q 1428 -91 1123 -41 
Q 819 9 494 109 
L 494 744 
Q 775 591 1075 516 
Q 1375 441 1709 441 
Q 2250 441 2565 725 
Q 2881 1009 2881 1497 
Q 2881 1984 2565 2268 
Q 2250 2553 1709 2553 
Q 1456 2553 1204 2497 
Q 953 2441 691 2322 
L 691 4666 
z
" transform="scale(0.015625)"/>
       </defs>
       <use xlink:href="#DejaVuSans-30"/>
       <use xlink:href="#DejaVuSans-2e" transform="translate(63.623047 0)"/>
       <use xlink:href="#DejaVuSans-35" transform="translate(95.410156 0)"/>
      </g>
     </g>
    </g>
    <g id="text_16">
     <!-- EDA signals (μS) -->
     <g transform="translate(18.827187 320.911875) rotate(-90) scale(0.1 -0.1)">
      <defs>
       <path id="DejaVuSans-45" d="M 628 4666 
L 3578 4666 
L 3578 4134 
L 1259 4134 
L 1259 2753 
L 3481 2753 
L 3481 2222 
L 1259 2222 
L 1259 531 
L 3634 531 
L 3634 0 
L 628 0 
L 628 4666 
z
" transform="scale(0.015625)"/>
       <path id="DejaVuSans-44" d="M 1259 4147 
L 1259 519 
L 2022 519 
Q 2988 519 3436 956 
Q 3884 1394 3884 2338 
Q 3884 3275 3436 3711 
Q 2988 4147 2022 4147 
L 1259 4147 
z
M 628 4666 
L 1925 4666 
Q 3281 4666 3915 4102 
Q 4550 3538 4550 2338 
Q 4550 1131 3912 565 
Q 3275 0 1925 0 
L 628 0 
L 628 4666 
z
" transform="scale(0.015625)"/>
       <path id="DejaVuSans-41" d="M 2188 4044 
L 1331 1722 
L 3047 1722 
L 2188 4044 
z
M 1831 4666 
L 2547 4666 
L 4325 0 
L 3669 0 
L 3244 1197 
L 1141 1197 
L 716 0 
L 50 0 
L 1831 4666 
z
" transform="scale(0.015625)"/>
       <path id="DejaVuSans-67" d="M 2906 1791 
Q 2906 2416 2648 2759 
Q 2391 3103 1925 3103 
Q 1463 3103 1205 2759 
Q 947 2416 947 1791 
Q 947 1169 1205 825 
Q 1463 481 1925 481 
Q 2391 481 2648 825 
Q 2906 1169 2906 1791 
z
M 3481 434 
Q 3481 -459 3084 -895 
Q 2688 -1331 1869 -1331 
Q 1566 -1331 1297 -1286 
Q 1028 -1241 775 -1147 
L 775 -588 
Q 1028 -725 1275 -790 
Q 1522 -856 1778 -856 
Q 2344 -856 2625 -561 
Q 2906 -266 2906 331 
L 2906 616 
Q 2728 306 2450 153 
Q 2172 0 1784 0 
Q 1141 0 747 490 
Q 353 981 353 1791 
Q 353 2603 747 3093 
Q 1141 3584 1784 3584 
Q 2172 3584 2450 3431 
Q 2728 3278 2906 2969 
L 2906 3500 
L 3481 3500 
L 3481 434 
z
" transform="scale(0.015625)"/>
       <path id="DejaVuSans-61" d="M 2194 1759 
Q 1497 1759 1228 1600 
Q 959 1441 959 1056 
Q 959 750 1161 570 
Q 1363 391 1709 391 
Q 2188 391 2477 730 
Q 2766 1069 2766 1631 
L 2766 1759 
L 2194 1759 
z
M 3341 1997 
L 3341 0 
L 2766 0 
L 2766 531 
Q 2569 213 2275 61 
Q 1981 -91 1556 -91 
Q 1019 -91 701 211 
Q 384 513 384 1019 
Q 384 1609 779 1909 
Q 1175 2209 1959 2209 
L 2766 2209 
L 2766 2266 
Q 2766 2663 2505 2880 
Q 2244 3097 1772 3097 
Q 1472 3097 1187 3025 
Q 903 2953 641 2809 
L 641 3341 
Q 956 3463 1253 3523 
Q 1550 3584 1831 3584 
Q 2591 3584 2966 3190 
Q 3341 2797 3341 1997 
z
" transform="scale(0.015625)"/>
       <path id="DejaVuSans-6c" d="M 603 4863 
L 1178 4863 
L 1178 0 
L 603 0 
L 603 4863 
z
" transform="scale(0.015625)"/>
       <path id="DejaVuSans-3bc" d="M 544 -1331 
L 544 3500 
L 1119 3500 
L 1119 1325 
Q 1119 872 1334 640 
Q 1550 409 1972 409 
Q 2434 409 2667 671 
Q 2900 934 2900 1459 
L 2900 3500 
L 3475 3500 
L 3475 806 
Q 3475 619 3529 530 
Q 3584 441 3700 441 
Q 3728 441 3778 458 
Q 3828 475 3916 513 
L 3916 50 
Q 3788 -22 3673 -56 
Q 3559 -91 3450 -91 
Q 3234 -91 3106 31 
Q 2978 153 2931 403 
Q 2775 156 2548 32 
Q 2322 -91 2016 -91 
Q 1697 -91 1473 31 
Q 1250 153 1119 397 
L 1119 -1331 
L 544 -1331 
z
" transform="scale(0.015625)"/>
       <path id="DejaVuSans-53" d="M 3425 4513 
L 3425 3897 
Q 3066 4069 2747 4153 
Q 2428 4238 2131 4238 
Q 1616 4238 1336 4038 
Q 1056 3838 1056 3469 
Q 1056 3159 1242 3001 
Q 1428 2844 1947 2747 
L 2328 2669 
Q 3034 2534 3370 2195 
Q 3706 1856 3706 1288 
Q 3706 609 3251 259 
Q 2797 -91 1919 -91 
Q 1588 -91 1214 -16 
Q 841 59 441 206 
L 441 856 
Q 825 641 1194 531 
Q 1563 422 1919 422 
Q 2459 422 2753 634 
Q 3047 847 3047 1241 
Q 3047 1584 2836 1778 
Q 2625 1972 2144 2069 
L 1759 2144 
Q 1053 2284 737 2584 
Q 422 2884 422 3419 
Q 422 4038 858 4394 
Q 1294 4750 2059 4750 
Q 2388 4750 2728 4690 
Q 3069 4631 3425 4513 
z
" transform="scale(0.015625)"/>
      </defs>
      <use xlink:href="#DejaVuSans-45"/>
      <use xlink:href="#DejaVuSans-44" transform="translate(63.183594 0)"/>
      <use xlink:href="#DejaVuSans-41" transform="translate(138.435547 0)"/>
      <use xlink:href="#DejaVuSans-20" transform="translate(206.84375 0)"/>
      <use xlink:href="#DejaVuSans-73" transform="translate(238.630859 0)"/>
      <use xlink:href="#DejaVuSans-69" transform="translate(290.730469 0)"/>
      <use xlink:href="#DejaVuSans-67" transform="translate(318.513672 0)"/>
      <use xlink:href="#DejaVuSans-6e" transform="translate(381.990234 0)"/>
      <use xlink:href="#DejaVuSans-61" transform="translate(445.369141 0)"/>
      <use xlink:href="#DejaVuSans-6c" transform="translate(506.648438 0)"/>
      <use xlink:href="#DejaVuSans-73" transform="translate(534.431641 0)"/>
      <use xlink:href="#DejaVuSans-20" transform="translate(586.53125 0)"/>
      <use xlink:href="#DejaVuSans-28" transform="translate(618.318359 0)"/>
      <use xlink:href="#DejaVuSans-3bc" transform="translate(657.332031 0)"/>
      <use xlink:href="#DejaVuSans-53" transform="translate(720.955078 0)"/>
      <use xlink:href="#DejaVuSans-29" transform="translate(784.431641 0)"/>
     </g>
    </g>
   </g>
   <g id="line2d_29">
    <path d="M 84.418636 207.228692 
L 86.046591 236.01542 
L 86.657074 242.608626 
L 87.064063 245.216077 
L 87.471052 246.59157 
L 87.674546 246.886488 
L 87.878041 246.954201 
L 88.081535 246.817595 
L 88.488524 246.010992 
L 88.895512 244.610814 
L 89.70949 240.599223 
L 90.930456 234.140434 
L 91.540939 232.069545 
L 91.947928 231.447807 
L 92.151422 231.388498 
L 92.354917 231.497266 
L 92.761905 232.193771 
L 93.168894 233.44875 
L 93.982872 237.062475 
L 95.407332 243.723673 
L 96.22131 246.366069 
L 96.831793 247.70192 
L 97.64577 248.91017 
L 98.866736 250.249441 
L 99.884208 251.129461 
L 100.698186 251.572468 
L 102.326141 252.318222 
L 103.343612 253.151747 
L 104.971567 254.566856 
L 105.989039 255.147369 
L 107.210005 255.554867 
L 108.227477 255.654159 
L 110.262421 255.675146 
L 111.686881 255.903571 
L 112.297364 255.757103 
L 112.907848 255.368347 
L 113.721825 254.53615 
L 114.942791 253.241859 
L 115.553274 252.939268 
L 115.960263 252.939946 
L 116.570746 253.231152 
L 117.384724 253.997619 
L 120.640633 257.519627 
L 122.879071 259.379583 
L 123.489555 260.474483 
L 124.100038 262.066641 
L 125.117509 264.966868 
L 125.524498 265.567846 
L 125.727993 265.602396 
L 125.931487 265.411774 
L 126.134981 264.966144 
L 126.54197 263.233422 
L 126.948959 260.370645 
L 127.762936 252.163726 
L 129.390891 235.135139 
L 132.036318 209.814077 
L 132.646801 206.758586 
L 133.257284 204.926655 
L 133.867767 203.91996 
L 134.47825 203.461046 
L 135.088733 203.389421 
L 135.699216 203.609647 
L 136.3097 204.064894 
L 137.73416 205.365278 
L 138.141149 205.390061 
L 138.548138 205.029106 
L 138.955126 204.187671 
L 139.362115 202.822581 
L 139.972598 199.804115 
L 140.583081 195.694524 
L 141.397059 188.623259 
L 143.635497 166.850394 
L 144.042485 164.804911 
L 144.449474 163.798768 
L 144.652969 163.665155 
L 144.856463 163.751559 
L 145.263452 164.474093 
L 145.873935 166.46569 
L 147.298395 171.70301 
L 147.908878 173.288808 
L 148.519362 174.406502 
L 150.554305 177.44712 
L 152.385754 181.52872 
L 152.589249 181.655473 
L 152.792743 181.644055 
L 152.996238 181.485802 
L 153.403226 180.726508 
L 154.013709 178.646839 
L 155.234676 173.730717 
L 155.641664 172.795725 
L 156.048653 172.444349 
L 156.455642 172.584434 
L 157.473114 173.439105 
L 157.880102 173.368691 
L 158.287091 172.960055 
L 159.915046 170.767694 
L 160.525529 170.571917 
L 161.543001 170.3804 
L 162.356978 169.856815 
L 163.37445 169.172133 
L 163.984933 169.003913 
L 165.002405 169.031993 
L 166.223371 169.063176 
L 167.037349 168.887987 
L 167.851326 168.430592 
L 170.293259 166.611381 
L 171.107236 166.533406 
L 172.124708 166.407393 
L 172.938685 166.034693 
L 173.956157 165.552235 
L 174.56664 165.529188 
L 175.177123 165.790111 
L 175.991101 166.482373 
L 177.82255 168.217756 
L 178.636528 168.5856 
L 179.450505 168.65322 
L 180.264483 168.498612 
L 181.07846 168.086033 
L 181.892437 167.366752 
L 183.113404 166.259064 
L 183.723887 166.061529 
L 184.33437 166.193302 
L 185.148347 166.72875 
L 186.979797 168.06722 
L 188.811246 169.004619 
L 190.235706 169.508076 
L 193.491616 170.401148 
L 196.340537 171.860487 
L 197.358009 171.934934 
L 198.171987 171.791842 
L 200.613919 171.111033 
L 201.631391 171.275608 
L 205.904773 172.533808 
L 206.71875 173.169902 
L 209.567671 175.930186 
L 211.39912 177.43679 
L 212.416592 178.198529 
L 213.434064 178.655514 
L 215.875997 179.5038 
L 217.096963 180.273948 
L 219.538895 182.014242 
L 221.370344 183.019911 
L 221.980827 183.727237 
L 222.387816 184.497125 
L 222.998299 186.251533 
L 224.42276 191.238809 
L 224.626254 191.495113 
L 224.829749 191.48915 
L 225.033243 191.181071 
L 225.440232 189.554837 
L 225.84722 186.543583 
L 226.457704 179.807097 
L 228.289153 157.130519 
L 228.899636 153.222784 
L 229.306625 151.992737 
L 229.510119 151.728461 
L 229.713613 151.657388 
L 229.917108 151.746226 
L 230.324096 152.273156 
L 231.138074 153.964148 
L 232.35904 156.391609 
L 235.207961 161.149269 
L 236.835916 163.313877 
L 238.056882 165.131498 
L 239.074354 167.090336 
L 239.888332 169.147382 
L 241.312792 173.003761 
L 241.719781 173.697893 
L 242.12677 174.055678 
L 242.533758 174.080263 
L 242.940747 173.847539 
L 243.958219 173.063224 
L 244.365208 173.065364 
L 244.772196 173.423884 
L 245.179185 174.197633 
L 245.789668 176.1259 
L 247.621118 183.103545 
L 248.028106 183.724438 
L 248.435095 183.895181 
L 248.842084 183.774424 
L 249.656061 183.462801 
L 250.06305 183.567174 
L 250.470039 183.910264 
L 251.080522 184.782476 
L 252.708477 187.39641 
L 253.522454 188.206037 
L 255.353903 189.628439 
L 255.760892 189.693212 
L 256.167881 189.55788 
L 256.778364 189.003675 
L 258.813308 186.538096 
L 259.423791 186.186995 
L 260.034274 186.053136 
L 260.848251 186.148443 
L 261.662229 186.486144 
L 262.883195 187.281393 
L 267.970554 191.193204 
L 270.412486 193.361609 
L 272.650925 195.561361 
L 275.906834 198.896852 
L 277.738284 200.879296 
L 278.348767 201.282533 
L 278.95925 201.447797 
L 279.773227 201.378937 
L 280.790699 201.296891 
L 281.401182 201.464048 
L 283.029137 202.110846 
L 283.843115 202.006528 
L 284.453598 201.92704 
L 284.860586 202.040913 
L 285.267575 202.362432 
L 285.878058 203.195384 
L 286.692036 204.319034 
L 287.099024 204.477976 
L 287.302519 204.383291 
L 287.709508 203.787532 
L 288.116496 202.643232 
L 288.726979 200.089482 
L 290.354934 192.432697 
L 290.965417 190.478147 
L 291.575901 189.16063 
L 292.186384 188.356464 
L 292.796867 187.917359 
L 293.40735 187.727494 
L 294.017833 187.747278 
L 294.628316 187.999269 
L 295.238799 188.487082 
L 297.070248 190.228025 
L 297.680731 190.473063 
L 298.494709 190.494375 
L 300.733147 190.259623 
L 301.34363 190.50969 
L 302.157608 191.168836 
L 303.785562 192.70351 
L 304.59954 193.083193 
L 305.617012 193.221677 
L 307.041472 193.345213 
L 307.85545 193.674316 
L 308.669427 194.275517 
L 310.297382 195.575692 
L 311.314854 196.03802 
L 313.960281 196.927478 
L 314.977753 197.614466 
L 316.198719 198.72373 
L 317.216191 199.978564 
L 319.04764 202.439526 
L 319.861617 203.114444 
L 321.896561 204.619842 
L 323.117527 205.493727 
L 324.134999 205.923931 
L 325.966448 206.578785 
L 326.98392 207.267701 
L 328.001392 208.233961 
L 329.018864 209.540284 
L 329.832841 211.003981 
L 331.053807 213.868576 
L 331.867785 215.583697 
L 333.292245 218.214933 
L 333.699234 219.807734 
L 334.106223 222.381191 
L 334.513212 226.256676 
L 335.123695 234.843241 
L 336.141167 254.54863 
L 336.955144 269.547832 
L 337.565627 277.205001 
L 337.972616 280.291322 
L 338.379605 282.027282 
L 338.786593 282.816692 
L 339.193582 283.082711 
L 340.00756 283.330907 
L 340.414548 283.667861 
L 341.025031 284.557241 
L 343.466964 288.890637 
L 344.077447 289.362577 
L 344.891424 289.705331 
L 345.705402 289.845667 
L 346.11239 289.730277 
L 346.519379 289.320783 
L 346.926368 288.433674 
L 347.333357 286.885978 
L 347.740345 284.55252 
L 348.350828 279.590651 
L 350.385772 260.305669 
L 350.996255 257.115569 
L 351.606738 255.302603 
L 353.031199 252.119094 
L 353.845176 249.161995 
L 355.066143 244.532907 
L 355.88012 242.331815 
L 357.304581 239.470142 
L 358.729041 236.329675 
L 360.763985 231.22283 
L 361.984951 228.337078 
L 363.002423 226.568606 
L 367.275804 220.451173 
L 368.089782 219.839976 
L 368.903759 219.551135 
L 369.717737 219.534298 
L 371.549186 219.672819 
L 372.159669 219.383262 
L 372.770152 218.820924 
L 374.194613 217.303471 
L 374.805096 217.037711 
L 375.415579 217.106714 
L 376.229557 217.525893 
L 377.450523 218.17705 
L 378.671489 218.53893 
L 380.09595 218.865857 
L 380.502938 219.126982 
L 380.909927 219.589837 
L 381.316916 220.325568 
L 381.927399 222.011394 
L 382.944871 225.88124 
L 383.555354 227.96461 
L 383.962342 228.836716 
L 384.369331 229.124915 
L 384.572826 229.031834 
L 384.979814 228.39371 
L 385.590297 226.565793 
L 386.607769 223.077883 
L 387.014758 222.214374 
L 387.421747 221.87439 
L 387.625241 221.905959 
L 388.03223 222.324158 
L 388.642713 223.562286 
L 390.067173 226.75943 
L 390.881151 227.967967 
L 391.695128 228.79941 
L 394.747544 231.536885 
L 395.358027 232.590828 
L 395.96851 234.265278 
L 396.782487 237.547631 
L 397.799959 241.663956 
L 398.206948 242.519262 
L 398.410442 242.68273 
L 398.613937 242.663585 
L 398.817431 242.470472 
L 399.22442 241.647505 
L 400.852375 237.381979 
L 401.462858 236.770057 
L 402.48033 236.016685 
L 403.90479 234.61034 
L 404.311779 234.491959 
L 404.718768 234.562779 
L 405.329251 234.941874 
L 406.346723 235.922507 
L 408.992149 238.601256 
L 410.41661 239.600177 
L 416.114452 243.359093 
L 418.556385 245.133225 
L 419.777351 245.67201 
L 420.794823 245.883731 
L 422.829766 246.171445 
L 423.643744 246.55456 
L 424.86471 247.437577 
L 430.155563 251.706611 
L 431.580024 252.536813 
L 433.411473 253.281864 
L 434.428945 253.512946 
L 435.242923 253.428628 
L 437.277866 252.929118 
L 437.888349 253.13854 
L 438.702327 253.721653 
L 440.126787 254.870739 
L 440.73727 255.133295 
L 441.347754 255.153709 
L 441.958237 254.900905 
L 442.56872 254.38416 
L 443.586192 253.110938 
L 445.214146 250.666826 
L 448.063068 246.118222 
L 448.673551 245.712175 
L 449.284034 245.556917 
L 452.336449 245.2315 
L 453.557415 244.932897 
L 454.371393 244.965243 
L 455.388865 245.263488 
L 458.644775 246.439513 
L 462.714662 247.059631 
L 463.935628 247.652011 
L 465.767077 248.618589 
L 466.784549 248.858268 
L 468.005515 248.859165 
L 469.022987 248.703008 
L 469.63347 248.442105 
L 470.040459 248.106855 
L 470.447448 247.562147 
L 470.854437 246.729852 
L 471.46492 244.802167 
L 472.075403 242.029426 
L 473.906852 232.915479 
L 474.517335 231.388735 
L 475.127818 230.615192 
L 477.569751 228.504659 
L 477.976739 228.466429 
L 478.587222 228.71273 
L 479.4012 229.380074 
L 481.029155 230.748128 
L 481.639638 231.011636 
L 482.250121 231.076625 
L 484.08157 231.08213 
L 486.320008 231.575601 
L 487.744469 231.436409 
L 488.761941 231.441806 
L 489.575918 231.667781 
L 491.000379 232.355037 
L 491.814356 232.929545 
L 492.628334 233.757738 
L 494.052794 235.623364 
L 496.494727 238.813482 
L 498.52967 241.098291 
L 499.140153 241.556125 
L 499.547142 241.668618 
L 499.954131 241.565195 
L 500.36112 241.22225 
L 500.971603 240.337457 
L 501.78558 239.095921 
L 502.192569 238.806071 
L 502.599558 238.876606 
L 503.006546 239.281754 
L 504.024018 240.667984 
L 504.431007 240.861915 
L 504.837996 240.739584 
L 505.651973 240.249052 
L 505.855467 240.298782 
L 506.058962 240.50192 
L 506.465951 241.501316 
L 506.872939 243.412823 
L 507.483422 247.873001 
L 509.111377 261.388671 
L 509.72186 264.056423 
L 510.128849 264.939452 
L 510.535838 265.321743 
L 511.756804 265.819423 
L 512.163793 266.352846 
L 512.774276 267.626053 
L 513.995242 270.338222 
L 514.402231 270.817317 
L 514.80922 271.021416 
L 515.419703 270.989214 
L 516.030186 271.005342 
L 516.437174 271.383835 
L 516.844163 272.305161 
L 517.251152 273.903218 
L 517.861635 277.43862 
L 518.675612 282.441467 
L 519.082601 283.913093 
L 519.286096 284.197498 
L 519.48959 284.143572 
L 519.693084 283.746841 
L 520.100073 282.001826 
L 520.710556 277.687522 
L 521.931522 268.701293 
L 522.542005 265.957406 
L 523.152489 264.351856 
L 523.966466 263.082322 
L 524.780443 261.761697 
L 525.390927 260.139274 
L 526.00141 257.632541 
L 527.629365 249.823766 
L 527.832859 249.55288 
L 528.036353 249.611376 
L 528.239848 250.024372 
L 528.646836 251.910529 
L 529.257319 256.802792 
L 530.274791 265.385576 
L 530.68178 267.363411 
L 531.088769 268.269286 
L 531.292263 268.383593 
L 531.495757 268.327035 
L 531.902746 267.881552 
L 533.123712 266.2077 
L 533.734196 265.786309 
L 534.548173 265.555748 
L 535.769139 265.514709 
L 537.397094 265.460165 
L 538.414566 265.161887 
L 539.432038 264.57818 
L 541.670476 263.097254 
L 542.484453 262.93266 
L 543.298431 263.008238 
L 544.722891 263.400403 
L 545.536869 263.840636 
L 546.147352 264.537059 
L 546.757835 265.780685 
L 547.775307 268.830984 
L 548.182295 269.827843 
L 548.38579 270.114266 
L 548.589284 270.200249 
L 548.792779 270.047995 
L 548.996273 269.628949 
L 549.403262 267.938708 
L 549.81025 265.167176 
L 550.624228 257.507917 
L 551.6417 247.907681 
L 552.252183 243.631256 
L 552.862666 240.598161 
L 553.473149 238.535591 
L 554.083632 237.13758 
L 554.89761 235.903976 
L 555.915081 234.847958 
L 558.357014 232.738733 
L 559.57798 232.010558 
L 561.409429 231.053762 
L 564.054856 229.362949 
L 566.700283 228.181779 
L 567.717755 227.262061 
L 569.142215 225.93215 
L 569.956193 225.526278 
L 570.77017 225.383687 
L 572.805114 225.191231 
L 573.822586 224.771833 
L 575.247046 224.127239 
L 576.061024 224.07464 
L 578.502956 224.322328 
L 579.113439 224.034035 
L 579.520428 223.604678 
L 579.927416 222.904731 
L 580.5379 221.277256 
L 582.572843 214.690369 
L 582.979832 214.205897 
L 583.386821 214.11146 
L 583.793809 214.329571 
L 584.404293 215.025671 
L 585.828753 216.823534 
L 586.235742 216.937777 
L 586.439236 216.838203 
L 586.846225 216.206484 
L 587.253214 214.83517 
L 587.660202 212.547719 
L 588.270685 207.147291 
L 588.881169 199.41342 
L 591.119607 167.370129 
L 591.73009 162.673159 
L 592.137078 160.7419 
L 592.544067 159.569517 
L 592.951056 158.988775 
L 593.358045 158.87768 
L 593.765033 159.148533 
L 594.375516 160.025324 
L 594.986 160.795752 
L 595.189494 160.831113 
L 595.392988 160.675566 
L 595.596483 160.287265 
L 596.003471 158.702027 
L 596.41046 156.020202 
L 597.224438 148.56096 
L 598.038415 141.817714 
L 598.445404 139.77393 
L 598.852392 138.765131 
L 599.055887 138.616135 
L 599.259381 138.673901 
L 599.66637 139.307733 
L 600.073359 140.472326 
L 600.887336 143.728998 
L 601.904808 147.827961 
L 602.515291 149.335427 
L 602.92228 149.79963 
L 603.329269 149.911868 
L 603.939752 149.732529 
L 604.753729 149.520903 
L 605.364212 149.649523 
L 605.974695 150.019148 
L 607.806145 151.402946 
L 608.416628 151.493628 
L 608.823616 151.350389 
L 609.434099 150.808591 
L 610.85856 149.128447 
L 611.062054 149.103036 
L 611.265549 149.206918 
L 611.672538 149.900813 
L 612.079526 151.355386 
L 612.690009 154.928196 
L 613.910976 162.916897 
L 614.317964 163.902421 
L 614.521459 163.838337 
L 614.724953 163.381037 
L 615.131942 161.339546 
L 615.742425 156.104557 
L 617.166885 142.627289 
L 617.777368 139.070634 
L 618.387852 136.73372 
L 619.201829 133.824548 
L 619.812312 130.533016 
L 620.62629 124.111501 
L 621.643761 115.822281 
L 622.05075 113.739021 
L 622.457739 112.745927 
L 622.661233 112.660611 
L 622.864728 112.826297 
L 623.271716 113.790016 
L 623.882199 116.263282 
L 625.103166 121.569201 
L 625.713649 123.243316 
L 626.120637 123.850325 
L 626.527626 124.074172 
L 626.934615 123.97126 
L 627.341604 123.601912 
L 627.952087 122.615421 
L 628.56257 121.044194 
L 629.173053 118.716038 
L 629.98703 114.365662 
L 631.004502 107.328633 
L 633.649929 87.391761 
L 634.463906 83.08632 
L 634.870895 80.054297 
L 635.481378 73.379925 
L 637.312828 49.882747 
L 637.516322 48.941511 
L 637.719816 48.558182 
L 637.923311 48.720836 
L 638.126805 49.392203 
L 638.533794 52.01145 
L 639.347771 60.043564 
L 640.161749 67.698846 
L 640.772232 71.578841 
L 641.382715 73.898493 
L 641.993198 75.281889 
L 645.249108 81.051488 
L 647.284051 83.093543 
L 647.894535 83.812118 
L 648.301523 83.924181 
L 648.505018 83.798241 
L 648.912006 83.116732 
L 649.318995 81.877433 
L 651.150444 74.875434 
L 651.557433 74.169693 
L 652.167916 73.628532 
L 652.778399 73.081941 
L 653.185388 72.397566 
L 653.795871 70.688941 
L 655.62732 64.211442 
L 656.034309 63.765317 
L 656.237804 63.791446 
L 656.441298 63.98561 
L 656.848287 64.840108 
L 657.45877 66.987646 
L 658.88323 72.476313 
L 659.697208 74.490103 
L 660.918174 76.601416 
L 662.13914 78.834329 
L 664.377578 83.222866 
L 664.988061 83.970804 
L 665.802039 84.606022 
L 667.023005 85.541667 
L 668.447466 86.713234 
L 669.668432 87.530817 
L 670.278915 88.237777 
L 670.889398 89.288136 
L 673.127836 93.822656 
L 673.534825 94.135577 
L 673.941813 94.179088 
L 674.348802 93.996026 
L 675.569768 93.151119 
L 675.976757 93.157492 
L 676.383746 93.413765 
L 676.994229 94.205652 
L 678.622184 96.722182 
L 679.232667 97.191528 
L 680.657127 97.936556 
L 681.064116 98.509344 
L 681.471105 99.51487 
L 681.878094 101.179954 
L 682.285082 103.784803 
L 682.692071 107.607221 
L 683.302554 115.878537 
L 684.930509 141.99406 
L 685.540992 147.179889 
L 686.35497 152.273962 
L 686.761958 156.143667 
L 687.372442 164.455272 
L 688.389913 178.994765 
L 688.796902 182.567218 
L 689.203891 184.436962 
L 689.407385 184.839047 
L 689.61088 184.982262 
L 690.017868 184.824393 
L 690.424857 184.595268 
L 690.628351 184.616167 
L 690.831846 184.790468 
L 691.238834 185.71868 
L 691.645823 187.528858 
L 692.256306 191.91782 
L 693.070284 200.125685 
L 694.087756 210.157616 
L 694.494744 212.518006 
L 694.698239 213.108015 
L 694.901733 213.244973 
L 695.105227 212.895869 
L 695.308722 212.038679 
L 695.71571 208.772691 
L 696.122699 203.526381 
L 696.733182 192.6806 
L 698.157643 165.328841 
L 698.564632 160.557556 
L 698.97162 158.282007 
L 699.175115 158.167748 
L 699.378609 158.742846 
L 699.785598 161.844037 
L 700.396081 170.260048 
L 701.210058 182.812156 
L 701.617047 186.471139 
L 701.820541 187.058989 
L 702.024036 186.666769 
L 702.22753 185.236067 
L 702.634519 179.289421 
L 703.245002 164.108144 
L 704.669463 123.892183 
L 705.279946 112.84113 
L 705.890429 105.828968 
L 706.500912 101.410686 
L 707.111395 98.488156 
L 707.721878 96.587577 
L 708.332361 95.532069 
L 708.73935 95.196306 
L 709.349833 95.024665 
L 710.16381 95.066878 
L 710.774294 95.246641 
L 711.384777 95.626331 
L 712.605743 96.80878 
L 713.216226 97.27964 
L 713.623215 97.435668 
L 714.030203 97.401838 
L 714.437192 97.074103 
L 714.844181 96.270152 
L 715.25117 94.733803 
L 715.658158 92.1946 
L 716.268641 86.174562 
L 717.082619 74.904141 
L 718.100091 61.523664 
L 718.710574 56.837388 
L 719.117563 55.327671 
L 719.524551 54.841602 
L 719.728046 54.879554 
L 720.135034 55.315942 
L 720.949012 56.811161 
L 722.169978 59.389186 
L 722.576967 60.670733 
L 722.983955 62.600729 
L 723.390944 65.582503 
L 723.797933 70.009161 
L 724.408416 79.754514 
L 726.850348 125.645453 
L 727.460832 131.691673 
L 728.478303 138.914986 
L 729.088786 143.850142 
L 729.69927 151.063021 
L 730.513247 164.601176 
L 732.141202 193.309555 
L 732.955179 203.368658 
L 733.769157 210.786971 
L 735.397112 224.43831 
L 736.414584 235.774386 
L 737.228561 244.48199 
L 737.63555 247.419408 
L 738.042539 248.983314 
L 738.246033 249.251557 
L 738.449527 249.216871 
L 738.653022 248.927419 
L 739.06001 247.812634 
L 740.687965 242.510966 
L 742.926403 237.123683 
L 743.333392 236.524576 
L 743.740381 236.282915 
L 744.147369 236.413484 
L 744.757853 237.111229 
L 745.57183 238.120913 
L 745.978819 238.344884 
L 746.385808 238.334199 
L 747.199785 237.924803 
L 747.810268 237.729522 
L 748.217257 237.827124 
L 748.624246 238.165773 
L 749.031234 238.76911 
L 749.641717 240.194283 
L 750.2522 242.275168 
L 750.862684 245.075357 
L 751.676661 250.028503 
L 752.897627 259.401867 
L 754.118593 268.400539 
L 754.729077 271.791728 
L 755.136065 273.371277 
L 755.543054 274.2583 
L 755.746548 274.413657 
L 755.950043 274.371408 
L 756.153537 274.135643 
L 756.560526 273.135532 
L 757.171009 270.671306 
L 758.391975 265.27102 
L 759.002458 263.559439 
L 759.409447 262.956579 
L 759.816436 262.782361 
L 760.223424 262.994305 
L 760.630413 263.511919 
L 762.258368 266.099489 
L 762.665357 266.286221 
L 763.072345 266.18665 
L 763.479334 265.837987 
L 764.089817 264.999185 
L 765.717772 262.172464 
L 766.735244 260.504029 
L 767.345727 259.913408 
L 767.752716 259.825065 
L 768.159705 260.011526 
L 768.566693 260.451248 
L 769.380671 261.832435 
L 770.398143 263.615479 
L 771.008626 264.273063 
L 771.415614 264.457689 
L 771.822603 264.442076 
L 772.433086 264.129636 
L 773.654053 263.307803 
L 774.264536 263.174 
L 775.485502 263.060697 
L 775.892491 262.719689 
L 776.299479 262.086412 
L 776.909962 260.587979 
L 778.537917 255.927741 
L 778.944906 255.357059 
L 779.351895 255.196852 
L 779.758883 255.449826 
L 780.165872 256.077569 
L 780.776355 257.574277 
L 781.793827 260.936326 
L 783.218288 266.475697 
L 783.828771 269.702194 
L 784.23576 272.83574 
L 784.642748 277.397071 
L 785.049737 283.983809 
L 785.66022 298.34585 
L 787.288175 342.485807 
L 787.491669 344.81197 
L 787.695164 345.85327 
L 787.898658 345.591776 
L 788.102152 344.082005 
L 788.509141 337.848422 
L 789.323119 318.187699 
L 790.137096 299.182641 
L 790.747579 289.271169 
L 791.154568 284.974784 
L 791.561557 282.407328 
L 791.765051 281.735865 
L 791.968545 281.456025 
L 792.17204 281.554969 
L 792.375534 282.018922 
L 792.782523 283.962553 
L 793.393006 288.917763 
L 794.817467 302.049147 
L 795.224455 304.255437 
L 795.631444 305.592964 
L 796.241927 306.700398 
L 796.648916 307.484673 
L 797.055905 308.714203 
L 797.666388 311.494557 
L 798.480365 315.168858 
L 798.683859 315.645664 
L 798.887354 315.835362 
L 799.090848 315.712434 
L 799.294343 315.273529 
L 799.701331 313.542268 
L 800.515309 308.086382 
L 801.532781 301.576359 
L 802.550252 296.804328 
L 803.974713 290.972722 
L 804.381702 289.872041 
L 804.78869 289.359174 
L 804.992185 289.359387 
L 805.195679 289.534361 
L 805.602668 290.366194 
L 806.213151 292.488828 
L 807.841106 298.745836 
L 808.248095 299.727678 
L 808.655083 300.199773 
L 808.858578 300.198939 
L 809.062072 300.0267 
L 809.469061 299.184155 
L 810.079544 296.998724 
L 811.30051 292.321276 
L 812.521476 288.850042 
L 813.335454 287.01143 
L 813.945937 286.20552 
L 814.352926 285.981824 
L 814.963409 285.982699 
L 816.387869 286.27497 
L 816.591364 286.271924 
L 816.591364 286.271924 
" clip-path="url(#p7a342f944c)" style="fill: none; stroke-dasharray: 1.85,0.8; stroke-dashoffset: 0; stroke: #1f77b4; stroke-width: 0.5"/>
   </g>
   <g id="line2d_30">
    <path d="M 84.418636 216.960475 
L 86.250086 227.772673 
L 87.878041 236.066741 
L 89.302501 242.122982 
L 90.523467 246.301935 
L 91.540939 248.998269 
L 92.354917 250.601258 
L 93.168894 251.688408 
L 93.779377 252.193538 
L 94.38986 252.47301 
L 95.203838 252.557237 
L 96.017815 252.390583 
L 97.238781 251.858066 
L 99.273725 250.932765 
L 100.087703 250.799906 
L 100.698186 250.869077 
L 101.512163 251.23058 
L 102.326141 251.848727 
L 103.547107 253.099301 
L 106.599522 256.443441 
L 107.4135 257.030682 
L 108.227477 257.351389 
L 108.83796 257.373595 
L 109.448443 257.18574 
L 110.262421 256.666098 
L 111.279893 255.72772 
L 113.721825 253.306851 
L 114.535802 252.804777 
L 115.146286 252.63449 
L 115.756769 252.68893 
L 116.367252 253.011225 
L 116.977735 253.644508 
L 117.588218 254.614025 
L 118.402195 256.323455 
L 119.826656 259.944671 
L 121.454611 263.97254 
L 122.268588 265.505394 
L 122.879071 266.293688 
L 123.489555 266.686042 
L 123.896543 266.689329 
L 124.303532 266.459166 
L 124.710521 265.972565 
L 125.117509 265.206535 
L 125.727993 263.50689 
L 126.54197 260.323694 
L 127.559442 255.143772 
L 128.780408 247.666688 
L 133.257284 218.750131 
L 134.274756 214.011937 
L 135.292228 210.242661 
L 136.3097 207.269936 
L 137.327171 204.921393 
L 138.548138 202.684369 
L 140.379587 199.897183 
L 142.007542 197.280869 
L 143.635497 194.189557 
L 149.129845 183.352837 
L 150.554305 181.256622 
L 151.978766 179.590221 
L 153.606721 178.065986 
L 155.845159 176.329606 
L 158.69408 174.088923 
L 164.798911 168.935931 
L 166.223371 168.098656 
L 167.647832 167.511386 
L 169.275787 167.101222 
L 171.107236 166.898528 
L 173.345674 166.898639 
L 177.008573 167.152872 
L 181.07846 167.659635 
L 185.555336 168.454886 
L 191.253178 169.715689 
L 197.764998 171.369864 
L 208.753694 174.464249 
L 209.97466 175.045474 
L 210.992132 175.753559 
L 212.009604 176.733897 
L 213.027075 178.05104 
L 214.044547 179.769544 
L 215.062019 181.951497 
L 216.48648 185.622007 
L 218.724918 191.39505 
L 219.742389 193.423684 
L 220.556367 194.544807 
L 221.16685 195.011106 
L 221.573839 195.11439 
L 221.980827 195.033423 
L 222.387816 194.752618 
L 222.794805 194.256385 
L 223.405288 193.092279 
L 224.219266 190.853786 
L 225.236737 187.188272 
L 226.661198 181.023966 
L 229.510119 168.417344 
L 230.527591 164.903116 
L 231.341568 162.823715 
L 231.952051 161.733417 
L 232.562534 161.011373 
L 233.173018 160.624797 
L 233.783501 160.540902 
L 234.393984 160.726903 
L 235.004467 161.150015 
L 235.818444 162.026336 
L 236.835916 163.514155 
L 238.260377 166.057618 
L 242.533758 173.940923 
L 245.179185 178.344383 
L 247.621118 181.983159 
L 249.656061 184.614135 
L 251.284016 186.348741 
L 252.708477 187.524608 
L 253.929443 188.233577 
L 254.946915 188.586458 
L 255.964387 188.703885 
L 257.185353 188.578755 
L 258.813308 188.147509 
L 261.25524 187.486737 
L 262.476206 187.398801 
L 263.493678 187.561033 
L 264.51115 187.990027 
L 265.528622 188.656687 
L 266.953082 189.89924 
L 268.784532 191.836232 
L 272.650925 196.014283 
L 274.685868 197.80019 
L 276.924306 199.460275 
L 279.569733 201.137864 
L 281.808171 202.35397 
L 283.232632 202.869973 
L 284.250103 203.030101 
L 285.267575 202.963771 
L 286.081553 202.71638 
L 286.89553 202.270434 
L 287.709508 201.602103 
L 288.726979 200.430329 
L 289.947946 198.632108 
L 292.593372 194.153063 
L 294.221327 191.677054 
L 295.238799 190.490163 
L 296.052777 189.831688 
L 296.866754 189.477796 
L 297.680731 189.398379 
L 298.494709 189.547141 
L 299.512181 189.983442 
L 300.936641 190.899548 
L 303.989057 192.987769 
L 305.210023 193.471025 
L 306.634484 193.764662 
L 309.890393 194.326752 
L 310.907865 194.742205 
L 311.925337 195.391645 
L 312.942809 196.338632 
L 314.163775 197.818073 
L 318.640651 203.630705 
L 319.658123 204.41672 
L 320.4721 204.747522 
L 321.286078 204.784911 
L 322.507044 204.530224 
L 323.72801 204.306465 
L 324.541988 204.398836 
L 325.152471 204.69063 
L 325.762954 205.236253 
L 326.373437 206.092498 
L 326.98392 207.316155 
L 327.594403 208.964017 
L 328.408381 211.9192 
L 329.222358 215.845277 
L 330.23983 221.996734 
L 331.460796 230.773235 
L 333.49574 247.32399 
L 336.141167 268.671561 
L 337.565627 278.288174 
L 338.786593 284.929558 
L 339.804065 289.280385 
L 340.618043 291.95963 
L 341.43202 293.905969 
L 342.042503 294.87335 
L 342.652986 295.409812 
L 343.059975 295.524104 
L 343.466964 295.440952 
L 343.873952 295.157987 
L 344.484436 294.353707 
L 345.094919 293.086519 
L 345.908896 290.707606 
L 346.926368 286.795261 
L 348.147334 281.042538 
L 349.978783 271.119155 
L 352.827705 255.603195 
L 354.252165 249.144355 
L 355.676626 243.778953 
L 357.101086 239.33796 
L 358.525547 235.652347 
L 359.950007 232.553087 
L 361.577962 229.512693 
L 363.409412 226.530884 
L 365.240861 223.974433 
L 367.07231 221.822882 
L 368.700265 220.233768 
L 370.32822 218.938106 
L 371.752681 218.081016 
L 372.973647 217.599166 
L 373.991119 217.404797 
L 375.00859 217.422133 
L 376.026062 217.67308 
L 377.043534 218.179544 
L 378.061006 218.960415 
L 379.281972 220.210653 
L 381.113421 222.468023 
L 383.962342 225.989854 
L 385.183309 227.16737 
L 386.20078 227.869031 
L 387.421747 228.403749 
L 389.253196 228.890947 
L 390.881151 229.373798 
L 391.898623 229.867152 
L 392.916095 230.613464 
L 393.933566 231.700729 
L 394.951038 233.157589 
L 396.375499 235.610541 
L 399.427914 241.017834 
L 400.445386 242.419679 
L 401.259364 243.254118 
L 402.073341 243.764644 
L 402.683824 243.916496 
L 403.497802 243.853297 
L 404.311779 243.54393 
L 405.329251 242.906533 
L 407.364195 241.261291 
L 408.788655 240.243047 
L 409.806127 239.798457 
L 410.620104 239.700264 
L 411.434082 239.83028 
L 412.451554 240.25879 
L 413.67252 241.070165 
L 415.300475 242.456475 
L 418.149396 244.910091 
L 419.573856 245.796877 
L 421.201811 246.53754 
L 426.899654 248.840342 
L 428.731103 250.034702 
L 434.021956 253.654138 
L 435.446417 254.295848 
L 436.870878 254.686383 
L 438.091844 254.807419 
L 439.31281 254.719219 
L 440.533776 254.410444 
L 441.754742 253.869758 
L 442.975708 253.086219 
L 444.400169 251.896278 
L 446.638607 249.688862 
L 449.487528 246.925499 
L 450.911989 245.833096 
L 452.132955 245.15453 
L 453.353921 244.733171 
L 454.574887 244.579504 
L 455.592359 244.663499 
L 456.609831 244.946738 
L 457.627303 245.43529 
L 458.848269 246.301106 
L 460.27273 247.658771 
L 463.121651 250.473189 
L 464.139122 251.154308 
L 464.9531 251.457057 
L 465.767077 251.4846 
L 466.377561 251.291354 
L 466.988044 250.888816 
L 467.802021 250.005745 
L 468.615999 248.779003 
L 469.836965 246.447452 
L 471.668414 242.311423 
L 474.110346 236.843337 
L 475.331313 234.660215 
L 476.348784 233.297059 
L 477.366256 232.309241 
L 478.383728 231.637678 
L 479.4012 231.223285 
L 480.622166 230.982289 
L 482.250121 230.928211 
L 487.133986 231.135674 
L 488.558446 231.463084 
L 489.779413 231.96358 
L 491.000379 232.726491 
L 492.221345 233.799308 
L 493.8493 235.590514 
L 496.901715 239.023351 
L 498.122682 240.043569 
L 499.140153 240.590961 
L 499.954131 240.777039 
L 501.175097 240.744052 
L 502.599558 240.715474 
L 503.413535 240.940374 
L 504.024018 241.317115 
L 504.634501 241.929094 
L 505.244984 242.827521 
L 505.855467 244.063601 
L 506.669445 246.325456 
L 507.483422 249.400002 
L 508.2974 253.385069 
L 509.518366 260.731917 
L 513.588253 286.711003 
L 514.402231 290.266029 
L 515.012714 292.196204 
L 515.623197 293.375703 
L 516.030186 293.691778 
L 516.437174 293.626791 
L 516.844163 293.213605 
L 517.251152 292.485085 
L 517.861635 290.87294 
L 518.675612 287.926467 
L 519.693084 283.33228 
L 523.152489 266.797407 
L 523.966466 264.196705 
L 524.576949 262.887492 
L 525.187432 262.096716 
L 525.797915 261.758323 
L 526.204904 261.751432 
L 526.815387 262.020222 
L 527.42587 262.565251 
L 528.239848 263.60749 
L 530.071297 266.507716 
L 531.088769 267.937358 
L 531.902746 268.723462 
L 532.513229 269.005687 
L 533.123712 269.0197 
L 533.734196 268.807537 
L 534.548173 268.245476 
L 535.565645 267.234343 
L 538.414566 264.166728 
L 539.228543 263.655963 
L 539.839026 263.493979 
L 540.44951 263.568207 
L 541.059993 263.885684 
L 541.87397 264.602145 
L 543.094936 266.052443 
L 544.926386 268.242374 
L 545.740363 268.90131 
L 546.350846 269.159748 
L 546.961329 269.157813 
L 547.571812 268.843045 
L 548.182295 268.162981 
L 548.792779 267.069177 
L 549.606756 265.001406 
L 550.624228 261.623815 
L 552.048688 255.879234 
L 555.915081 239.59991 
L 556.932553 236.430419 
L 557.950025 234.059256 
L 558.764002 232.658709 
L 559.57798 231.627277 
L 560.391957 230.898388 
L 561.409429 230.311315 
L 562.630395 229.910458 
L 565.072328 229.24258 
L 566.496788 228.522066 
L 568.531732 227.182361 
L 571.584148 225.176711 
L 573.008608 224.525136 
L 574.433069 224.159458 
L 576.264518 223.95282 
L 579.113439 223.660103 
L 580.5379 223.270957 
L 581.758866 222.681311 
L 582.776338 221.90404 
L 583.590315 221.018493 
L 584.404293 219.839296 
L 585.21827 218.311784 
L 586.032247 216.381292 
L 587.049719 213.318205 
L 588.067191 209.433276 
L 589.084663 204.619737 
L 590.305629 197.579929 
L 592.137078 185.340343 
L 595.189494 164.711466 
L 596.41046 157.867101 
L 597.427932 153.340457 
L 598.241909 150.636051 
L 599.055887 148.705083 
L 599.66637 147.728299 
L 600.276853 147.12746 
L 600.887336 146.877229 
L 601.497819 146.952273 
L 602.108302 147.327256 
L 602.718785 147.976845 
L 603.532763 149.226337 
L 604.550235 151.31989 
L 605.771201 154.456044 
L 609.434099 164.541741 
L 610.248077 166.091908 
L 610.85856 166.911538 
L 611.469043 167.376119 
L 611.876032 167.461455 
L 612.283021 167.348289 
L 612.690009 167.02034 
L 613.096998 166.461326 
L 613.707481 165.153946 
L 614.317964 163.286944 
L 615.131942 160.066026 
L 616.352908 154.076498 
L 620.829784 130.573888 
L 621.643761 127.787811 
L 622.254245 126.292312 
L 622.864728 125.247486 
L 623.475211 124.563104 
L 624.085694 124.148938 
L 624.899671 123.861099 
L 626.527626 123.389843 
L 627.138109 122.973317 
L 627.748592 122.285632 
L 628.359075 121.236559 
L 628.969559 119.735869 
L 629.580042 117.693333 
L 630.394019 114.001523 
L 631.411491 108.050641 
L 632.835952 98.178838 
L 635.481378 79.688581 
L 636.49885 74.118924 
L 637.312828 70.841887 
L 637.923311 69.250463 
L 638.330299 68.657519 
L 638.737288 68.418264 
L 639.144277 68.499591 
L 639.551266 68.868391 
L 640.161749 69.888182 
L 640.975726 71.945058 
L 641.993198 75.26412 
L 644.43513 83.665804 
L 645.249108 85.676118 
L 645.859591 86.649347 
L 646.26658 86.981563 
L 646.673568 87.04984 
L 647.080557 86.877007 
L 647.487546 86.485894 
L 648.098029 85.539892 
L 648.912006 83.727659 
L 649.929478 80.833834 
L 653.388882 70.396008 
L 654.20286 68.844322 
L 654.813343 68.129913 
L 655.423826 67.789478 
L 656.034309 67.789183 
L 656.644792 68.095199 
L 657.255275 68.673693 
L 658.069253 69.8104 
L 659.086725 71.705732 
L 660.511185 74.964156 
L 664.581073 84.756262 
L 666.005533 87.556596 
L 667.226499 89.538565 
L 668.243971 90.839977 
L 669.261443 91.778343 
L 670.07542 92.239508 
L 670.889398 92.422298 
L 671.90687 92.341962 
L 673.941813 92.029908 
L 674.755791 92.179791 
L 675.366274 92.506352 
L 675.976757 93.072502 
L 676.58724 93.928673 
L 677.197723 95.125294 
L 678.011701 97.337541 
L 678.825678 100.364227 
L 679.639656 104.256996 
L 680.657127 110.211113 
L 681.878094 118.700079 
L 683.506049 131.757943 
L 685.947981 153.483739 
L 689.203891 182.313777 
L 690.831846 194.839365 
L 692.052812 202.727285 
L 693.070284 208.032382 
L 693.884261 211.300706 
L 694.494744 213.114773 
L 695.105227 214.33413 
L 695.512216 214.805337 
L 695.919205 215.010692 
L 696.326194 214.957805 
L 696.733182 214.654284 
L 697.140171 214.107739 
L 697.750654 212.848895 
L 698.361137 211.086047 
L 699.175115 207.995963 
L 700.192587 203.030284 
L 701.210058 196.949933 
L 702.431025 188.349543 
L 704.058979 175.025152 
L 706.500912 152.708095 
L 709.349833 126.973322 
L 710.977788 114.272609 
L 712.198754 106.391765 
L 713.41972 100.019175 
L 714.437192 95.817505 
L 715.454664 92.586792 
L 716.268641 90.677962 
L 717.082619 89.350518 
L 717.693102 88.725768 
L 718.303585 88.410535 
L 718.914068 88.397315 
L 719.524551 88.678602 
L 720.135034 89.263936 
L 720.745517 90.190126 
L 721.356001 91.495687 
L 722.169978 93.893136 
L 722.983955 97.124784 
L 723.797933 101.281926 
L 724.61191 106.455854 
L 725.629382 114.492199 
L 726.646854 124.438227 
L 727.664326 136.472243 
L 729.088786 156.543176 
L 733.565662 223.19507 
L 734.583134 234.507345 
L 735.397112 241.417857 
L 736.007595 245.112544 
L 736.618078 247.554293 
L 737.025067 248.563696 
L 737.432055 249.132708 
L 737.839044 249.307915 
L 738.246033 249.135906 
L 738.653022 248.663268 
L 739.263505 247.492544 
L 740.077482 245.314196 
L 742.722909 237.651613 
L 743.333392 236.688464 
L 743.740381 236.388806 
L 744.147369 236.408471 
L 744.554358 236.731172 
L 744.961347 237.331639 
L 745.57183 238.697874 
L 746.385808 241.255852 
L 747.403279 245.35243 
L 749.031234 253.054123 
L 751.066178 262.487216 
L 752.08365 266.214791 
L 752.897627 268.448263 
L 753.711605 270.06553 
L 754.525582 271.140307 
L 755.136065 271.634726 
L 755.746548 271.896558 
L 756.357031 271.956903 
L 757.171009 271.77769 
L 757.984986 271.369279 
L 759.205953 270.488171 
L 762.868851 267.687677 
L 766.53175 265.2391 
L 770.194648 262.981894 
L 771.415614 262.504465 
L 772.433086 262.368255 
L 773.247064 262.485978 
L 774.061041 262.847907 
L 774.875019 263.49346 
L 775.688996 264.462054 
L 776.502974 265.793108 
L 777.316951 267.531253 
L 778.130929 269.731553 
L 779.1484 273.217306 
L 780.165872 277.622423 
L 781.183344 283.056484 
L 782.200816 289.629071 
L 783.421782 299.17332 
L 784.642748 310.704201 
L 786.270703 328.70635 
L 788.712636 355.781828 
L 789.730107 365.067878 
L 790.544085 370.932611 
L 791.154568 374.179099 
L 791.765051 376.266916 
L 792.17204 376.939004 
L 792.375534 377.041992 
L 792.579029 376.982001 
L 792.986017 376.36281 
L 793.393006 375.123666 
L 794.003489 372.222387 
L 794.817467 366.695535 
L 795.834938 357.737927 
L 797.462893 340.688225 
L 799.497837 319.39818 
L 800.515309 310.731316 
L 801.329286 305.486426 
L 802.143264 301.754586 
L 802.753747 299.811447 
L 803.36423 298.494891 
L 803.974713 297.708702 
L 804.585196 297.356662 
L 805.195679 297.342554 
L 805.806162 297.570161 
L 807.027128 298.365651 
L 808.0446 298.917807 
L 808.655083 299.001212 
L 809.265566 298.786116 
L 809.87605 298.261572 
L 810.690027 297.148588 
L 811.707499 295.223357 
L 812.928465 292.3695 
L 816.591364 283.282227 
L 816.591364 283.282227 
" clip-path="url(#p7a342f944c)" style="fill: none; stroke: #ff7f0e; stroke-width: 0.5; stroke-linecap: square"/>
   </g>
   <g id="line2d_31">
    <path d="M 84.418636 498.94744 
L 84.622131 498.94744 
L 84.825625 487.507998 
L 85.232614 504.277761 
L 85.639603 510.012943 
L 85.843097 510.838213 
L 86.046591 510.921818 
L 86.250086 510.546339 
L 86.860569 508.268722 
L 87.878041 504.4198 
L 88.692018 502.344489 
L 89.099007 501.474863 
L 89.302501 500.284307 
L 90.523467 489.26904 
L 91.337445 483.577054 
L 91.744434 481.705799 
L 92.151422 480.616158 
L 92.354917 480.36942 
L 92.558411 480.322979 
L 92.761905 480.459545 
L 93.168894 481.23571 
L 93.779377 483.349676 
L 96.424804 494.415333 
L 97.035287 495.803595 
L 97.64577 496.777435 
L 98.459748 497.628404 
L 99.273725 498.147044 
L 100.291197 498.519156 
L 101.715657 498.769069 
L 103.954095 498.902395 
L 105.785545 498.878315 
L 107.616994 497.861677 
L 108.227477 497.977378 
L 110.262421 498.613507 
L 111.890376 498.822908 
L 114.739297 498.925781 
L 117.791712 498.907745 
L 118.198701 498.550793 
L 119.012679 497.543946 
L 120.437139 495.281939 
L 122.065094 492.410395 
L 122.268588 492.425459 
L 122.675577 493.039797 
L 124.303532 496.347709 
L 125.117509 497.343265 
L 125.931487 497.968393 
L 126.948959 498.422232 
L 127.355947 498.538312 
L 127.559442 498.448544 
L 127.762936 497.786344 
L 128.373419 494.608472 
L 128.983902 492.256436 
L 130.408363 487.530053 
L 131.22234 484.64274 
L 131.629329 483.768424 
L 132.036318 483.486517 
L 132.239812 483.564944 
L 132.646801 484.111027 
L 133.460778 485.978104 
L 134.071262 488.667888 
L 135.088733 492.956486 
L 135.902711 495.235039 
L 136.513194 496.379188 
L 137.327171 497.384253 
L 138.141149 497.998406 
L 139.158621 498.439505 
L 139.769104 498.598425 
L 139.972598 498.540209 
L 140.176093 497.940132 
L 141.193564 491.384896 
L 142.414531 480.848607 
L 143.228508 474.34824 
L 143.635497 472.13458 
L 144.042485 470.912267 
L 144.24598 470.698707 
L 144.449474 470.741417 
L 144.652969 471.029361 
L 145.059957 472.241014 
L 145.67044 475.202312 
L 147.50189 485.481311 
L 148.315867 488.78707 
L 149.333339 493.002461 
L 150.147316 495.259984 
L 150.7578 496.395675 
L 151.571777 497.394013 
L 152.385754 498.004268 
L 153.403226 498.442629 
L 154.420698 498.648345 
L 154.624192 498.341869 
L 155.234676 496.293044 
L 155.43817 495.943142 
L 155.641664 495.83495 
L 156.048653 496.016025 
L 158.287091 497.956056 
L 158.69408 497.72833 
L 159.304563 497.229261 
L 159.711552 497.293104 
L 162.560473 498.5728 
L 164.188428 498.808736 
L 166.833854 498.92014 
L 172.328202 498.931403 
L 172.735191 498.658714 
L 173.14218 498.420784 
L 173.752663 498.411001 
L 177.415561 498.873465 
L 181.485449 498.941315 
L 182.095932 498.840554 
L 182.909909 497.920015 
L 183.520392 497.426972 
L 183.927381 497.409028 
L 184.741359 497.796943 
L 185.962325 498.354817 
L 187.183291 498.662061 
L 189.01474 498.854386 
L 192.474144 498.93633 
L 199.596447 498.883871 
L 200.410425 498.479617 
L 201.224402 498.311724 
L 202.648863 498.313365 
L 204.683806 498.507403 
L 206.311761 498.773697 
L 208.753694 498.908287 
L 213.637558 498.945337 
L 213.841053 498.845299 
L 214.451536 497.843735 
L 215.875997 494.984712 
L 217.707446 491.323693 
L 219.131906 488.981528 
L 219.945884 487.948635 
L 220.352873 487.566279 
L 220.556367 487.497101 
L 221.16685 486.778037 
L 221.370344 487.194886 
L 221.980827 489.544724 
L 222.998299 493.4402 
L 223.812277 495.530664 
L 224.42276 496.582808 
L 225.236737 497.507868 
L 226.050715 498.073368 
L 226.254209 498.17596 
L 226.457704 497.506044 
L 227.882164 485.221578 
L 228.289153 483.050475 
L 228.696142 481.947498 
L 228.899636 481.811272 
L 229.10313 481.909581 
L 229.510119 482.806374 
L 229.917108 484.184986 
L 230.93458 489.492051 
L 231.748557 492.959714 
L 232.35904 494.777183 
L 232.969523 496.063376 
L 233.783501 497.192362 
L 234.597478 497.881981 
L 235.411456 498.301233 
L 236.632422 498.642389 
L 238.260377 498.835334 
L 241.312792 498.930274 
L 242.737253 498.940054 
L 242.940747 498.723603 
L 244.161713 495.639653 
L 244.365208 495.623147 
L 244.772196 495.912789 
L 246.603646 497.752246 
L 247.621118 498.297565 
L 248.842084 498.639041 
L 249.249072 498.629867 
L 249.859556 498.327801 
L 250.470039 498.364863 
L 253.31896 498.820952 
L 256.167881 498.925331 
L 257.592341 498.87464 
L 258.813308 497.769722 
L 259.220296 497.728692 
L 260.034274 498.023206 
L 261.458734 498.522778 
L 262.883195 498.767424 
L 265.121633 498.901818 
L 270.819475 498.94601 
L 280.994193 498.858357 
L 282.21516 498.847914 
L 287.099024 498.94157 
L 288.726979 498.901973 
L 288.930474 498.510842 
L 289.744451 495.553709 
L 290.354934 493.936998 
L 290.965417 493.015983 
L 291.372406 492.776248 
L 291.779395 492.783657 
L 292.593372 493.191375 
L 293.203855 494.338211 
L 294.221327 496.246502 
L 295.035305 497.271539 
L 295.849282 497.922466 
L 296.866754 498.397094 
L 298.08772 498.68738 
L 299.919169 498.863074 
L 303.582068 498.938496 
L 313.756786 498.941714 
L 314.163775 498.707792 
L 315.181247 498.037379 
L 316.198719 497.546607 
L 317.012696 497.4209 
L 317.623179 497.461201 
L 318.640651 497.959035 
L 319.861617 498.450244 
L 321.286078 498.737081 
L 323.321022 498.887058 
L 327.187414 498.941501 
L 327.390909 498.770452 
L 328.204886 496.839269 
L 329.018864 494.242554 
L 330.23983 489.380547 
L 331.257302 484.592061 
L 332.274774 478.516915 
L 333.49574 471.098495 
L 333.699234 470.433976 
L 334.106223 468.320318 
L 334.309717 468.749257 
L 334.716706 471.942705 
L 336.141167 485.75232 
L 336.75165 489.721658 
L 337.362133 492.555131 
L 337.972616 494.537726 
L 338.583099 495.911901 
L 338.786593 496.267875 
L 338.990088 496.372082 
L 339.193582 495.85329 
L 339.804065 493.443074 
L 340.414548 491.783061 
L 340.821537 491.173899 
L 341.228526 490.923649 
L 341.635514 490.970865 
L 342.042503 491.225887 
L 342.449492 491.530869 
L 342.652986 491.615482 
L 343.059975 492.283184 
L 344.68793 496.004509 
L 345.501907 497.130925 
L 346.315885 497.838667 
L 347.129862 498.273549 
L 348.350828 498.628899 
L 348.554323 498.244368 
L 349.775289 492.39872 
L 350.385772 490.703005 
L 350.589267 490.754852 
L 350.996255 491.558504 
L 352.62421 495.710029 
L 353.438188 496.950556 
L 354.252165 497.728889 
L 355.066143 498.206898 
L 356.083614 498.550917 
L 357.508075 498.782258 
L 359.950007 498.910638 
L 364.426883 498.907276 
L 365.037366 498.743219 
L 365.64785 498.50616 
L 366.461827 498.559759 
L 369.107254 498.856878 
L 372.770152 498.937838 
L 378.061006 498.906611 
L 378.874983 498.315477 
L 379.485466 497.491744 
L 379.892455 497.444954 
L 380.706433 497.809984 
L 381.927399 498.359019 
L 383.148365 498.663837 
L 384.979814 498.854947 
L 385.386803 498.875349 
L 385.590297 498.551443 
L 386.811264 493.885572 
L 387.218252 493.13396 
L 387.625241 492.793226 
L 387.828735 492.961864 
L 388.439219 494.108057 
L 389.45669 496.097298 
L 390.270668 497.176793 
L 391.084645 497.864001 
L 392.102117 498.365533 
L 393.323083 498.672357 
L 395.154533 498.858191 
L 398.817431 498.938049 
L 399.427914 498.940933 
L 399.631409 498.594785 
L 400.64888 494.538317 
L 401.259364 493.146796 
L 402.073341 492.078131 
L 403.497802 490.53452 
L 403.90479 490.359644 
L 404.311779 490.423461 
L 404.718768 490.722625 
L 405.329251 491.524188 
L 405.939734 492.420493 
L 407.771183 496.344632 
L 408.585161 497.345262 
L 409.399138 497.970512 
L 410.41661 498.423582 
L 411.637576 498.700005 
L 413.469025 498.867198 
L 417.335418 498.939973 
L 420.998317 498.895573 
L 421.6088 498.708878 
L 422.626272 498.736675 
L 425.882182 498.91409 
L 433.207979 498.947034 
L 434.835934 498.919417 
L 435.649911 498.411493 
L 436.0569 497.976669 
L 436.463889 497.871975 
L 437.074372 498.023801 
L 438.905821 498.596734 
L 440.533776 498.816409 
L 443.382697 498.924641 
L 445.417641 498.884677 
L 446.842101 497.790183 
L 447.24909 497.412683 
L 447.656079 497.394873 
L 448.470056 497.786611 
L 449.691023 498.349563 
L 450.911989 498.659549 
L 452.743438 498.853575 
L 456.202842 498.93624 
L 459.662246 498.916981 
L 460.069235 498.579873 
L 461.900684 496.938078 
L 462.918156 496.310001 
L 463.732134 496.085732 
L 464.9531 496.213703 
L 466.988044 497.973109 
L 468.005515 498.418895 
L 469.226482 498.696832 
L 471.057931 498.866084 
L 472.278897 498.908989 
L 472.482391 498.785385 
L 472.88938 497.5707 
L 473.499863 495.851228 
L 473.906852 495.133531 
L 474.313841 494.825614 
L 474.72083 494.864909 
L 476.348784 495.667627 
L 476.755773 495.65815 
L 477.162762 495.588348 
L 477.569751 495.907055 
L 479.197706 497.610449 
L 480.011683 498.122489 
L 481.029155 498.502792 
L 482.453615 498.761771 
L 484.692053 498.900538 
L 490.389896 498.945978 
L 500.971603 498.923064 
L 501.175097 498.737912 
L 501.582086 498.028865 
L 501.989074 497.789619 
L 502.599558 497.896124 
L 504.431007 498.535457 
L 504.634501 498.346759 
L 505.244984 496.707032 
L 505.448479 496.554169 
L 505.855467 496.625766 
L 506.669445 497.258653 
L 507.686917 497.977761 
L 508.704389 498.417896 
L 509.925355 498.695796 
L 510.128849 498.725272 
L 510.332343 498.395029 
L 510.942827 494.580861 
L 511.960298 488.333098 
L 512.774276 484.834751 
L 513.791748 481.773419 
L 515.419703 477.394636 
L 515.623197 477.176001 
L 516.030186 475.975612 
L 516.23368 476.21808 
L 516.640669 478.543621 
L 518.065129 488.93972 
L 518.675612 491.947553 
L 519.286096 494.096507 
L 519.896579 495.60074 
L 520.507062 496.643555 
L 520.91405 497.152357 
L 521.117545 497.263302 
L 521.321039 497.061312 
L 521.728028 496.337505 
L 521.931522 496.242541 
L 522.338511 496.399014 
L 524.780443 498.225959 
L 524.983938 498.308842 
L 525.187432 498.169109 
L 525.594421 497.042599 
L 526.00141 495.363726 
L 527.018881 489.582674 
L 527.42587 486.451327 
L 527.629365 485.995899 
L 527.832859 486.177544 
L 528.239848 487.528209 
L 529.664308 493.367866 
L 530.478286 495.492978 
L 531.088769 496.558285 
L 531.902746 497.493477 
L 532.106241 497.663807 
L 532.309735 497.680858 
L 532.716724 497.121933 
L 533.123712 496.501081 
L 533.530701 496.472887 
L 534.141184 496.918021 
L 535.36215 497.875317 
L 536.379622 498.360437 
L 537.600588 498.668267 
L 539.432038 498.85673 
L 541.059993 498.899241 
L 541.263487 498.759443 
L 542.484453 497.118268 
L 543.705419 495.723676 
L 544.112408 495.383318 
L 544.722891 494.526417 
L 544.926386 494.592402 
L 545.333374 495.05694 
L 546.757835 497.048384 
L 547.571812 497.771823 
L 548.38579 498.229066 
L 549.403262 498.561862 
L 550.013745 498.682087 
L 550.217239 498.144579 
L 551.234711 491.659865 
L 551.845194 489.062993 
L 552.252183 488.109193 
L 552.659172 487.751424 
L 552.862666 487.762839 
L 553.269655 488.104548 
L 554.083632 489.538047 
L 554.89761 492.20661 
L 555.711587 494.61674 
L 556.525564 496.264665 
L 557.339542 497.307675 
L 558.153519 497.950298 
L 559.170991 498.413378 
L 560.391957 498.695286 
L 562.223407 498.865674 
L 566.0898 498.939797 
L 579.723922 498.947307 
L 579.927416 498.861933 
L 580.334405 498.021627 
L 581.148383 495.558175 
L 582.369349 491.934782 
L 582.572843 491.771963 
L 582.776338 491.927622 
L 583.183326 492.724294 
L 584.607787 495.933068 
L 585.421764 497.083133 
L 586.235742 497.80864 
L 587.049719 498.255099 
L 588.067191 498.576617 
L 588.270685 498.067307 
L 588.881169 493.23604 
L 590.712618 476.324055 
L 591.119607 474.527908 
L 591.526595 473.85656 
L 591.73009 474.007889 
L 592.340573 475.079299 
L 592.747562 477.761633 
L 593.968528 487.406529 
L 594.579011 490.846879 
L 595.189494 493.324331 
L 595.799977 495.064851 
L 596.41046 496.273566 
L 596.613954 496.537336 
L 596.817449 496.19357 
L 598.038415 489.740801 
L 598.241909 488.985808 
L 598.445404 488.876551 
L 598.648898 489.168383 
L 599.259381 491.060048 
L 600.276853 494.308084 
L 601.090831 496.066162 
L 601.904808 497.184664 
L 602.718785 497.875103 
L 603.532763 498.296539 
L 604.143246 498.490529 
L 604.34674 498.28581 
L 605.160718 496.23472 
L 606.992167 492.358301 
L 608.213133 489.475769 
L 609.230605 486.416977 
L 611.062054 480.695203 
L 611.265549 481.125527 
L 611.672538 483.182272 
L 612.893504 490.387442 
L 613.707481 493.62587 
L 614.317964 495.26222 
L 614.928447 496.40586 
L 615.742425 497.403266 
L 615.945919 497.219007 
L 616.963391 492.90426 
L 617.37038 492.280224 
L 617.573874 492.258932 
L 617.777368 492.398016 
L 618.184357 493.077699 
L 619.201829 495.075379 
L 619.405323 495.193249 
L 619.608818 495.145973 
L 619.812312 494.903948 
L 620.219301 493.862248 
L 620.829784 491.198924 
L 621.847256 486.604012 
L 622.05075 485.918916 
L 622.254245 485.945056 
L 622.661233 487.166045 
L 624.289188 493.761225 
L 624.899671 495.331373 
L 625.510154 496.445298 
L 626.324132 497.4243 
L 627.138109 498.022673 
L 628.155581 498.452479 
L 629.376547 498.689215 
L 629.580042 498.530346 
L 632.225468 494.086565 
L 632.632457 493.639705 
L 632.835952 493.568725 
L 633.24294 493.978857 
L 634.667401 496.201789 
L 634.870895 495.900347 
L 635.07439 495.348252 
L 635.481378 493.163291 
L 636.091861 487.891677 
L 637.109333 478.246907 
L 637.312828 477.978458 
L 637.516322 478.56092 
L 637.923311 481.001259 
L 639.144277 489.248937 
L 639.75476 492.147584 
L 640.365243 494.229725 
L 640.975726 495.690835 
L 641.586209 496.704968 
L 642.400187 497.58626 
L 642.807175 497.845147 
L 643.01067 497.70686 
L 643.621153 496.720653 
L 644.43513 495.726842 
L 645.859591 494.240573 
L 646.26658 494.626718 
L 648.098029 497.23603 
L 648.912006 497.894429 
L 649.318995 498.07799 
L 650.132973 498.079364 
L 652.981894 498.755695 
L 654.406354 498.866985 
L 654.609849 498.65299 
L 655.423826 496.236695 
L 655.62732 496.16432 
L 656.034309 496.349941 
L 658.272747 498.12497 
L 659.290219 498.502568 
L 660.71468 498.761446 
L 662.953118 498.899774 
L 663.563601 498.768046 
L 664.377578 498.377955 
L 664.988061 497.841616 
L 666.819511 495.910417 
L 667.633488 495.471778 
L 668.447466 495.083732 
L 668.854454 494.719467 
L 669.261443 494.99361 
L 671.499881 497.692957 
L 672.313858 498.179383 
L 673.33133 498.53485 
L 674.755791 498.775366 
L 676.994229 498.903611 
L 677.401218 498.766548 
L 677.808206 498.357991 
L 678.215195 497.685432 
L 678.622184 496.670768 
L 679.232667 494.46086 
L 680.046644 490.497754 
L 681.471105 483.280341 
L 682.081588 480.957377 
L 682.285082 481.259864 
L 682.692071 483.180091 
L 684.116532 491.267344 
L 684.727015 493.579361 
L 685.337498 495.228583 
L 685.947981 496.382131 
L 686.761958 497.38868 
L 687.575936 498.001713 
L 688.593408 498.441424 
L 689.407385 498.640671 
L 689.61088 498.442884 
L 689.814374 497.357196 
L 690.628351 490.713536 
L 691.238834 487.051341 
L 691.442329 486.594284 
L 691.645823 486.753586 
L 692.052812 488.029576 
L 693.477272 493.606154 
L 694.29125 495.640005 
L 694.901733 496.659854 
L 695.105227 496.926163 
L 695.308722 496.765402 
L 695.512216 495.421464 
L 696.122699 487.97115 
L 696.936677 473.631876 
L 697.954149 455.608668 
L 698.564632 449.075016 
L 698.768126 447.424933 
L 698.97162 447.801832 
L 699.378609 452.870947 
L 700.80307 476.268413 
L 701.413553 483.079057 
L 702.024036 487.948774 
L 702.431025 490.356621 
L 702.634519 491.05893 
L 702.838013 489.621022 
L 704.872957 451.385849 
L 705.279946 448.257343 
L 705.686934 446.983184 
L 705.890429 446.894186 
L 706.093923 447.102012 
L 706.500912 448.178638 
L 707.111395 450.949451 
L 707.925372 456.112565 
L 709.146339 465.821896 
L 711.99526 489.156574 
L 712.605743 492.144159 
L 713.216226 494.247694 
L 713.826709 495.71006 
L 714.437192 496.720505 
L 715.25117 497.59653 
L 715.861653 497.939167 
L 716.065147 497.064059 
L 716.879125 487.729958 
L 718.100091 472.516905 
L 718.710574 467.942591 
L 719.117563 466.343014 
L 719.524551 465.637485 
L 719.93154 465.491914 
L 721.152506 465.668939 
L 721.559495 465.464875 
L 722.780461 464.754941 
L 722.983955 464.227567 
L 723.18745 464.274732 
L 723.390944 465.539823 
L 724.001427 472.312106 
L 725.018899 483.375581 
L 725.629382 488.045068 
L 726.239865 491.388535 
L 726.850348 493.731299 
L 727.460832 495.356215 
L 727.664326 495.752716 
L 727.86782 495.353606 
L 729.088786 486.786704 
L 729.495775 485.09223 
L 729.69927 484.651745 
L 729.902764 484.503292 
L 730.106258 484.607773 
L 730.513247 485.442486 
L 731.734213 488.85289 
L 731.937708 489.047952 
L 732.141202 489.074949 
L 732.344696 488.927566 
L 732.751685 488.158542 
L 733.362168 486.140183 
L 734.786629 481.291894 
L 734.990123 481.795774 
L 735.397112 483.862328 
L 736.618078 490.802163 
L 737.228561 493.237275 
L 737.839044 494.985976 
L 738.449527 496.212945 
L 739.263505 497.28523 
L 740.077482 497.93879 
L 741.094954 498.407713 
L 742.31592 498.692683 
L 744.147369 498.864823 
L 745.57183 498.840201 
L 745.775324 498.503114 
L 746.385808 496.554708 
L 747.199785 492.930183 
L 748.624246 486.575875 
L 749.234729 484.597893 
L 749.845212 483.27838 
L 750.2522 482.81303 
L 750.659189 482.736708 
L 750.862684 482.51409 
L 751.066178 482.643288 
L 751.473167 484.267958 
L 752.897627 491.726345 
L 753.50811 493.895174 
L 754.118593 495.445719 
L 754.729077 496.531408 
L 755.543054 497.479214 
L 756.357031 498.056599 
L 756.967515 498.33524 
L 757.171009 498.21307 
L 757.577998 496.615515 
L 758.391975 493.642327 
L 758.798964 492.682616 
L 759.205953 492.21604 
L 759.612941 491.980695 
L 759.816436 492.184866 
L 760.426919 493.495626 
L 761.444391 495.741447 
L 762.258368 496.956446 
L 763.072345 497.729304 
L 763.479334 497.984043 
L 763.682829 497.971256 
L 764.7003 497.017644 
L 766.124761 495.468772 
L 766.53175 494.728921 
L 766.735244 494.60912 
L 766.938738 494.690083 
L 767.345727 495.160184 
L 768.770188 497.106555 
L 769.584165 497.808417 
L 770.601637 498.332782 
L 771.822603 498.656507 
L 773.654053 498.853034 
L 775.078513 498.886192 
L 775.282007 498.711893 
L 775.892491 497.439448 
L 776.502974 495.334749 
L 777.316951 491.279348 
L 779.1484 481.480916 
L 779.962378 478.531537 
L 781.183344 475.249637 
L 782.200816 472.260287 
L 783.014793 469.361981 
L 783.421782 467.857154 
L 783.625276 467.299306 
L 784.032265 464.147896 
L 784.23576 464.567666 
L 784.642748 468.13673 
L 786.067209 483.860275 
L 786.677692 488.396496 
L 787.288175 491.636202 
L 787.898658 493.903546 
L 788.102152 493.432758 
L 788.305647 489.666125 
L 789.323119 456.093708 
L 790.137096 430.46396 
L 790.747579 416.60704 
L 791.358062 407.948487 
L 791.765051 404.945259 
L 791.968545 404.250699 
L 792.17204 404.09144 
L 792.375534 404.451086 
L 792.579029 405.322413 
L 792.986017 408.496213 
L 793.5965 416.103676 
L 795.631444 445.424386 
L 796.648916 458.05537 
L 797.666388 474.593752 
L 798.276871 481.833373 
L 798.887354 487.060793 
L 799.497837 490.737828 
L 800.10832 493.292907 
L 800.718803 495.057985 
L 801.329286 496.273787 
L 801.532781 496.540713 
L 801.736275 496.591986 
L 802.346758 496.144655 
L 802.957241 495.211417 
L 803.974713 492.80604 
L 804.381702 491.497343 
L 804.585196 491.363421 
L 804.78869 491.551418 
L 805.195679 492.414095 
L 806.416645 495.404793 
L 807.230623 496.74554 
L 808.0446 497.599909 
L 808.858578 498.12761 
L 809.87605 498.50819 
L 810.079544 498.386837 
L 811.30051 495.724136 
L 812.317982 494.810802 
L 812.724971 495.198828 
L 814.352926 497.297081 
L 815.166903 497.929036 
L 816.184375 498.398504 
L 816.591364 498.51951 
L 816.591364 498.51951 
" clip-path="url(#p7a342f944c)" style="fill: none; stroke: #2ca02c; stroke-width: 0.5; stroke-linecap: square"/>
   </g>
   <g id="patch_3">
    <path d="M 47.81 534.04 
L 47.81 25.44 
" style="fill: none; stroke: #000000; stroke-width: 0.8; stroke-linejoin: miter; stroke-linecap: square"/>
   </g>
   <g id="patch_4">
    <path d="M 853.2 534.04 
L 853.2 25.44 
" style="fill: none; stroke: #000000; stroke-width: 0.8; stroke-linejoin: miter; stroke-linecap: square"/>
   </g>
   <g id="patch_5">
    <path d="M 47.81 534.04 
L 853.2 534.04 
" style="fill: none; stroke: #000000; stroke-width: 0.8; stroke-linejoin: miter; stroke-linecap: square"/>
   </g>
   <g id="patch_6">
    <path d="M 47.81 25.44 
L 853.2 25.44 
" style="fill: none; stroke: #000000; stroke-width: 0.8; stroke-linejoin: miter; stroke-linecap: square"/>
   </g>
   <g id="text_17">
    <!-- Pattern 4: Threshold + Gaussian + cvxEDA (0.1-25μS, σ=1.6s, data_2_E4) -->
    <g transform="translate(228.056875 19.44) scale(0.12 -0.12)">
     <defs>
      <path id="DejaVuSans-50" d="M 1259 4147 
L 1259 2394 
L 2053 2394 
Q 2494 2394 2734 2622 
Q 2975 2850 2975 3272 
Q 2975 3691 2734 3919 
Q 2494 4147 2053 4147 
L 1259 4147 
z
M 628 4666 
L 2053 4666 
Q 2838 4666 3239 4311 
Q 3641 3956 3641 3272 
Q 3641 2581 3239 2228 
Q 2838 1875 2053 1875 
L 1259 1875 
L 1259 0 
L 628 0 
L 628 4666 
z
" transform="scale(0.015625)"/>
      <path id="DejaVuSans-72" d="M 2631 2963 
Q 2534 3019 2420 3045 
Q 2306 3072 2169 3072 
Q 1681 3072 1420 2755 
Q 1159 2438 1159 1844 
L 1159 0 
L 581 0 
L 581 3500 
L 1159 3500 
L 1159 2956 
Q 1341 3275 1631 3429 
Q 1922 3584 2338 3584 
Q 2397 3584 2469 3576 
Q 2541 3569 2628 3553 
L 2631 2963 
z
" transform="scale(0.015625)"/>
      <path id="DejaVuSans-3a" d="M 750 794 
L 1409 794 
L 1409 0 
L 750 0 
L 750 794 
z
M 750 3309 
L 1409 3309 
L 1409 2516 
L 750 2516 
L 750 3309 
z
" transform="scale(0.015625)"/>
      <path id="DejaVuSans-68" d="M 3513 2113 
L 3513 0 
L 2938 0 
L 2938 2094 
Q 2938 2591 2744 2837 
Q 2550 3084 2163 3084 
Q 1697 3084 1428 2787 
Q 1159 2491 1159 1978 
L 1159 0 
L 581 0 
L 581 4863 
L 1159 4863 
L 1159 2956 
Q 1366 3272 1645 3428 
Q 1925 3584 2291 3584 
Q 2894 3584 3203 3211 
Q 3513 2838 3513 2113 
z
" transform="scale(0.015625)"/>
      <path id="DejaVuSans-6f" d="M 1959 3097 
Q 1497 3097 1228 2736 
Q 959 2375 959 1747 
Q 959 1119 1226 758 
Q 1494 397 1959 397 
Q 2419 397 2687 759 
Q 2956 1122 2956 1747 
Q 2956 2369 2687 2733 
Q 2419 3097 1959 3097 
z
M 1959 3584 
Q 2709 3584 3137 3096 
Q 3566 2609 3566 1747 
Q 3566 888 3137 398 
Q 2709 -91 1959 -91 
Q 1206 -91 779 398 
Q 353 888 353 1747 
Q 353 2609 779 3096 
Q 1206 3584 1959 3584 
z
" transform="scale(0.015625)"/>
      <path id="DejaVuSans-64" d="M 2906 2969 
L 2906 4863 
L 3481 4863 
L 3481 0 
L 2906 0 
L 2906 525 
Q 2725 213 2448 61 
Q 2172 -91 1784 -91 
Q 1150 -91 751 415 
Q 353 922 353 1747 
Q 353 2572 751 3078 
Q 1150 3584 1784 3584 
Q 2172 3584 2448 3432 
Q 2725 3281 2906 2969 
z
M 947 1747 
Q 947 1113 1208 752 
Q 1469 391 1925 391 
Q 2381 391 2643 752 
Q 2906 1113 2906 1747 
Q 2906 2381 2643 2742 
Q 2381 3103 1925 3103 
Q 1469 3103 1208 2742 
Q 947 2381 947 1747 
z
" transform="scale(0.015625)"/>
      <path id="DejaVuSans-2b" d="M 2944 4013 
L 2944 2272 
L 4684 2272 
L 4684 1741 
L 2944 1741 
L 2944 0 
L 2419 0 
L 2419 1741 
L 678 1741 
L 678 2272 
L 2419 2272 
L 2419 4013 
L 2944 4013 
z
" transform="scale(0.015625)"/>
      <path id="DejaVuSans-47" d="M 3809 666 
L 3809 1919 
L 2778 1919 
L 2778 2438 
L 4434 2438 
L 4434 434 
Q 4069 175 3628 42 
Q 3188 -91 2688 -91 
Q 1594 -91 976 548 
Q 359 1188 359 2328 
Q 359 3472 976 4111 
Q 1594 4750 2688 4750 
Q 3144 4750 3555 4637 
Q 3966 4525 4313 4306 
L 4313 3634 
Q 3963 3931 3569 4081 
Q 3175 4231 2741 4231 
Q 1884 4231 1454 3753 
Q 1025 3275 1025 2328 
Q 1025 1384 1454 906 
Q 1884 428 2741 428 
Q 3075 428 3337 486 
Q 3600 544 3809 666 
z
" transform="scale(0.015625)"/>
      <path id="DejaVuSans-63" d="M 3122 3366 
L 3122 2828 
Q 2878 2963 2633 3030 
Q 2388 3097 2138 3097 
Q 1578 3097 1268 2742 
Q 959 2388 959 1747 
Q 959 1106 1268 751 
Q 1578 397 2138 397 
Q 2388 397 2633 464 
Q 2878 531 3122 666 
L 3122 134 
Q 2881 22 2623 -34 
Q 2366 -91 2075 -91 
Q 1284 -91 818 406 
Q 353 903 353 1747 
Q 353 2603 823 3093 
Q 1294 3584 2113 3584 
Q 2378 3584 2631 3529 
Q 2884 3475 3122 3366 
z
" transform="scale(0.015625)"/>
      <path id="DejaVuSans-76" d="M 191 3500 
L 800 3500 
L 1894 563 
L 2988 3500 
L 3597 3500 
L 2284 0 
L 1503 0 
L 191 3500 
z
" transform="scale(0.015625)"/>
      <path id="DejaVuSans-78" d="M 3513 3500 
L 2247 1797 
L 3578 0 
L 2900 0 
L 1881 1375 
L 863 0 
L 184 0 
L 1544 1831 
L 300 3500 
L 978 3500 
L 1906 2253 
L 2834 3500 
L 3513 3500 
z
" transform="scale(0.015625)"/>
      <path id="DejaVuSans-2d" d="M 313 2009 
L 1997 2009 
L 1997 1497 
L 313 1497 
L 313 2009 
z
" transform="scale(0.015625)"/>
      <path id="DejaVuSans-2c" d="M 750 794 
L 1409 794 
L 1409 256 
L 897 -744 
L 494 -744 
L 750 256 
L 750 794 
z
" transform="scale(0.015625)"/>
      <path id="DejaVuSans-3c3" d="M 1959 3044 
Q 1484 3044 1228 2700 
Q 959 2341 959 1747 
Q 959 1119 1226 758 
Q 1494 397 1959 397 
Q 2419 397 2687 759 
Q 2956 1122 2956 1747 
Q 2956 2319 2688 2700 
Q 2441 3044 1959 3044 
z
M 1959 3500 
L 3869 3500 
L 3869 2925 
L 3225 2925 
Q 3566 2438 3566 1747 
Q 3566 888 3138 400 
Q 2709 -91 1959 -91 
Q 1206 -91 781 400 
Q 353 888 353 1747 
Q 353 2613 781 3097 
Q 1134 3500 1959 3500 
z
" transform="scale(0.015625)"/>
      <path id="DejaVuSans-3d" d="M 678 2906 
L 4684 2906 
L 4684 2381 
L 678 2381 
L 678 2906 
z
M 678 1631 
L 4684 1631 
L 4684 1100 
L 678 1100 
L 678 1631 
z
" transform="scale(0.015625)"/>
      <path id="DejaVuSans-5f" d="M 3263 -1063 
L 3263 -1509 
L -63 -1509 
L -63 -1063 
L 3263 -1063 
z
" transform="scale(0.015625)"/>
     </defs>
     <use xlink:href="#DejaVuSans-50"/>
     <use xlink:href="#DejaVuSans-61" transform="translate(55.802734 0)"/>
     <use xlink:href="#DejaVuSans-74" transform="translate(117.082031 0)"/>
     <use xlink:href="#DejaVuSans-74" transform="translate(156.291016 0)"/>
     <use xlink:href="#DejaVuSans-65" transform="translate(195.5 0)"/>
     <use xlink:href="#DejaVuSans-72" transform="translate(257.023438 0)"/>
     <use xlink:href="#DejaVuSans-6e" transform="translate(296.386719 0)"/>
     <use xlink:href="#DejaVuSans-20" transform="translate(359.765625 0)"/>
     <use xlink:href="#DejaVuSans-34" transform="translate(391.552734 0)"/>
     <use xlink:href="#DejaVuSans-3a" transform="translate(455.175781 0)"/>
     <use xlink:href="#DejaVuSans-20" transform="translate(488.867188 0)"/>
     <use xlink:href="#DejaVuSans-54" transform="translate(520.654297 0)"/>
     <use xlink:href="#DejaVuSans-68" transform="translate(581.738281 0)"/>
     <use xlink:href="#DejaVuSans-72" transform="translate(645.117188 0)"/>
     <use xlink:href="#DejaVuSans-65" transform="translate(683.980469 0)"/>
     <use xlink:href="#DejaVuSans-73" transform="translate(745.503906 0)"/>
     <use xlink:href="#DejaVuSans-68" transform="translate(797.603516 0)"/>
     <use xlink:href="#DejaVuSans-6f" transform="translate(860.982422 0)"/>
     <use xlink:href="#DejaVuSans-6c" transform="translate(922.164062 0)"/>
     <use xlink:href="#DejaVuSans-64" transform="translate(949.947266 0)"/>
     <use xlink:href="#DejaVuSans-20" transform="translate(1013.423828 0)"/>
     <use xlink:href="#DejaVuSans-2b" transform="translate(1045.210938 0)"/>
     <use xlink:href="#DejaVuSans-20" transform="translate(1129 0)"/>
     <use xlink:href="#DejaVuSans-47" transform="translate(1160.787109 0)"/>
     <use xlink:href="#DejaVuSans-61" transform="translate(1238.277344 0)"/>
     <use xlink:href="#DejaVuSans-75" transform="translate(1299.556641 0)"/>
     <use xlink:href="#DejaVuSans-73" transform="translate(1362.935547 0)"/>
     <use xlink:href="#DejaVuSans-73" transform="translate(1415.035156 0)"/>
     <use xlink:href="#DejaVuSans-69" transform="translate(1467.134766 0)"/>
     <use xlink:href="#DejaVuSans-61" transform="translate(1494.917969 0)"/>
     <use xlink:href="#DejaVuSans-6e" transform="translate(1556.197266 0)"/>
     <use xlink:href="#DejaVuSans-20" transform="translate(1619.576172 0)"/>
     <use xlink:href="#DejaVuSans-2b" transform="translate(1651.363281 0)"/>
     <use xlink:href="#DejaVuSans-20" transform="translate(1735.152344 0)"/>
     <use xlink:href="#DejaVuSans-63" transform="translate(1766.939453 0)"/>
     <use xlink:href="#DejaVuSans-76" transform="translate(1821.919922 0)"/>
     <use xlink:href="#DejaVuSans-78" transform="translate(1881.099609 0)"/>
     <use xlink:href="#DejaVuSans-45" transform="translate(1940.279297 0)"/>
     <use xlink:href="#DejaVuSans-44" transform="translate(2003.462891 0)"/>
     <use xlink:href="#DejaVuSans-41" transform="translate(2078.714844 0)"/>
     <use xlink:href="#DejaVuSans-20" transform="translate(2147.123047 0)"/>
     <use xlink:href="#DejaVuSans-28" transform="translate(2178.910156 0)"/>
     <use xlink:href="#DejaVuSans-30" transform="translate(2217.923828 0)"/>
     <use xlink:href="#DejaVuSans-2e" transform="translate(2281.546875 0)"/>
     <use xlink:href="#DejaVuSans-31" transform="translate(2313.333984 0)"/>
     <use xlink:href="#DejaVuSans-2d" transform="translate(2376.957031 0)"/>
     <use xlink:href="#DejaVuSans-32" transform="translate(2413.041016 0)"/>
     <use xlink:href="#DejaVuSans-35" transform="translate(2476.664062 0)"/>
     <use xlink:href="#DejaVuSans-3bc" transform="translate(2540.287109 0)"/>
     <use xlink:href="#DejaVuSans-53" transform="translate(2603.910156 0)"/>
     <use xlink:href="#DejaVuSans-2c" transform="translate(2667.386719 0)"/>
     <use xlink:href="#DejaVuSans-20" transform="translate(2699.173828 0)"/>
     <use xlink:href="#DejaVuSans-3c3" transform="translate(2730.960938 0)"/>
     <use xlink:href="#DejaVuSans-3d" transform="translate(2794.339844 0)"/>
     <use xlink:href="#DejaVuSans-31" transform="translate(2878.128906 0)"/>
     <use xlink:href="#DejaVuSans-2e" transform="translate(2941.751953 0)"/>
     <use xlink:href="#DejaVuSans-36" transform="translate(2973.539062 0)"/>
     <use xlink:href="#DejaVuSans-73" transform="translate(3037.162109 0)"/>
     <use xlink:href="#DejaVuSans-2c" transform="translate(3089.261719 0)"/>
     <use xlink:href="#DejaVuSans-20" transform="translate(3121.048828 0)"/>
     <use xlink:href="#DejaVuSans-64" transform="translate(3152.835938 0)"/>
     <use xlink:href="#DejaVuSans-61" transform="translate(3216.3125 0)"/>
     <use xlink:href="#DejaVuSans-74" transform="translate(3277.591797 0)"/>
     <use xlink:href="#DejaVuSans-61" transform="translate(3316.800781 0)"/>
     <use xlink:href="#DejaVuSans-5f" transform="translate(3378.080078 0)"/>
     <use xlink:href="#DejaVuSans-32" transform="translate(3428.080078 0)"/>
     <use xlink:href="#DejaVuSans-5f" transform="translate(3491.703125 0)"/>
     <use xlink:href="#DejaVuSans-45" transform="translate(3541.703125 0)"/>
     <use xlink:href="#DejaVuSans-34" transform="translate(3604.886719 0)"/>
     <use xlink:href="#DejaVuSans-29" transform="translate(3668.509766 0)"/>
    </g>
   </g>
   <g id="legend_1">
    <g id="patch_7">
     <path d="M 54.81 77.474375 
L 268.586563 77.474375 
Q 270.586563 77.474375 270.586563 75.474375 
L 270.586563 32.44 
Q 270.586563 30.44 268.586563 30.44 
L 54.81 30.44 
Q 52.81 30.44 52.81 32.44 
L 52.81 75.474375 
Q 52.81 77.474375 54.81 77.474375 
z
" style="fill: #ffffff; opacity: 0.8; stroke: #cccccc; stroke-linejoin: miter"/>
    </g>
    <g id="line2d_32">
     <path d="M 56.81 38.538437 
L 66.81 38.538437 
L 76.81 38.538437 
" style="fill: none; stroke-dasharray: 1.85,0.8; stroke-dashoffset: 0; stroke: #1f77b4; stroke-width: 0.5"/>
    </g>
    <g id="text_18">
     <!-- Filtered EDA (Threshold + Gaussian) -->
     <g transform="translate(84.81 42.038437) scale(0.1 -0.1)">
      <defs>
       <path id="DejaVuSans-46" d="M 628 4666 
L 3309 4666 
L 3309 4134 
L 1259 4134 
L 1259 2759 
L 3109 2759 
L 3109 2228 
L 1259 2228 
L 1259 0 
L 628 0 
L 628 4666 
z
" transform="scale(0.015625)"/>
      </defs>
      <use xlink:href="#DejaVuSans-46"/>
      <use xlink:href="#DejaVuSans-69" transform="translate(50.269531 0)"/>
      <use xlink:href="#DejaVuSans-6c" transform="translate(78.052734 0)"/>
      <use xlink:href="#DejaVuSans-74" transform="translate(105.835938 0)"/>
      <use xlink:href="#DejaVuSans-65" transform="translate(145.044922 0)"/>
      <use xlink:href="#DejaVuSans-72" transform="translate(206.568359 0)"/>
      <use xlink:href="#DejaVuSans-65" transform="translate(245.431641 0)"/>
      <use xlink:href="#DejaVuSans-64" transform="translate(306.955078 0)"/>
      <use xlink:href="#DejaVuSans-20" transform="translate(370.431641 0)"/>
      <use xlink:href="#DejaVuSans-45" transform="translate(402.21875 0)"/>
      <use xlink:href="#DejaVuSans-44" transform="translate(465.402344 0)"/>
      <use xlink:href="#DejaVuSans-41" transform="translate(540.654297 0)"/>
      <use xlink:href="#DejaVuSans-20" transform="translate(609.0625 0)"/>
      <use xlink:href="#DejaVuSans-28" transform="translate(640.849609 0)"/>
      <use xlink:href="#DejaVuSans-54" transform="translate(679.863281 0)"/>
      <use xlink:href="#DejaVuSans-68" transform="translate(740.947266 0)"/>
      <use xlink:href="#DejaVuSans-72" transform="translate(804.326172 0)"/>
      <use xlink:href="#DejaVuSans-65" transform="translate(843.189453 0)"/>
      <use xlink:href="#DejaVuSans-73" transform="translate(904.712891 0)"/>
      <use xlink:href="#DejaVuSans-68" transform="translate(956.8125 0)"/>
      <use xlink:href="#DejaVuSans-6f" transform="translate(1020.191406 0)"/>
      <use xlink:href="#DejaVuSans-6c" transform="translate(1081.373047 0)"/>
      <use xlink:href="#DejaVuSans-64" transform="translate(1109.15625 0)"/>
      <use xlink:href="#DejaVuSans-20" transform="translate(1172.632812 0)"/>
      <use xlink:href="#DejaVuSans-2b" transform="translate(1204.419922 0)"/>
      <use xlink:href="#DejaVuSans-20" transform="translate(1288.208984 0)"/>
      <use xlink:href="#DejaVuSans-47" transform="translate(1319.996094 0)"/>
      <use xlink:href="#DejaVuSans-61" transform="translate(1397.486328 0)"/>
      <use xlink:href="#DejaVuSans-75" transform="translate(1458.765625 0)"/>
      <use xlink:href="#DejaVuSans-73" transform="translate(1522.144531 0)"/>
      <use xlink:href="#DejaVuSans-73" transform="translate(1574.244141 0)"/>
      <use xlink:href="#DejaVuSans-69" transform="translate(1626.34375 0)"/>
      <use xlink:href="#DejaVuSans-61" transform="translate(1654.126953 0)"/>
      <use xlink:href="#DejaVuSans-6e" transform="translate(1715.40625 0)"/>
      <use xlink:href="#DejaVuSans-29" transform="translate(1778.785156 0)"/>
     </g>
    </g>
    <g id="line2d_33">
     <path d="M 56.81 53.216563 
L 66.81 53.216563 
L 76.81 53.216563 
" style="fill: none; stroke: #ff7f0e; stroke-width: 0.5; stroke-linecap: square"/>
    </g>
    <g id="text_19">
     <!-- SCL (Tonic) -->
     <g transform="translate(84.81 56.716563) scale(0.1 -0.1)">
      <defs>
       <path id="DejaVuSans-43" d="M 4122 4306 
L 4122 3641 
Q 3803 3938 3442 4084 
Q 3081 4231 2675 4231 
Q 1875 4231 1450 3742 
Q 1025 3253 1025 2328 
Q 1025 1406 1450 917 
Q 1875 428 2675 428 
Q 3081 428 3442 575 
Q 3803 722 4122 1019 
L 4122 359 
Q 3791 134 3420 21 
Q 3050 -91 2638 -91 
Q 1578 -91 968 557 
Q 359 1206 359 2328 
Q 359 3453 968 4101 
Q 1578 4750 2638 4750 
Q 3056 4750 3426 4639 
Q 3797 4528 4122 4306 
z
" transform="scale(0.015625)"/>
       <path id="DejaVuSans-4c" d="M 628 4666 
L 1259 4666 
L 1259 531 
L 3531 531 
L 3531 0 
L 628 0 
L 628 4666 
z
" transform="scale(0.015625)"/>
      </defs>
      <use xlink:href="#DejaVuSans-53"/>
      <use xlink:href="#DejaVuSans-43" transform="translate(63.476562 0)"/>
      <use xlink:href="#DejaVuSans-4c" transform="translate(133.300781 0)"/>
      <use xlink:href="#DejaVuSans-20" transform="translate(189.013672 0)"/>
      <use xlink:href="#DejaVuSans-28" transform="translate(220.800781 0)"/>
      <use xlink:href="#DejaVuSans-54" transform="translate(259.814453 0)"/>
      <use xlink:href="#DejaVuSans-6f" transform="translate(303.898438 0)"/>
      <use xlink:href="#DejaVuSans-6e" transform="translate(365.080078 0)"/>
      <use xlink:href="#DejaVuSans-69" transform="translate(428.458984 0)"/>
      <use xlink:href="#DejaVuSans-63" transform="translate(456.242188 0)"/>
      <use xlink:href="#DejaVuSans-29" transform="translate(511.222656 0)"/>
     </g>
    </g>
    <g id="line2d_34">
     <path d="M 56.81 67.894687 
L 66.81 67.894687 
L 76.81 67.894687 
" style="fill: none; stroke: #2ca02c; stroke-width: 0.5; stroke-linecap: square"/>
    </g>
    <g id="text_20">
     <!-- SCR (Phasic) -->
     <g transform="translate(84.81 71.394687) scale(0.1 -0.1)">
      <defs>
       <path id="DejaVuSans-52" d="M 2841 2188 
Q 3044 2119 3236 1894 
Q 3428 1669 3622 1275 
L 4263 0 
L 3584 0 
L 2988 1197 
Q 2756 1666 2539 1819 
Q 2322 1972 1947 1972 
L 1259 1972 
L 1259 0 
L 628 0 
L 628 4666 
L 2053 4666 
Q 2853 4666 3247 4331 
Q 3641 3997 3641 3322 
Q 3641 2881 3436 2590 
Q 3231 2300 2841 2188 
z
M 1259 4147 
L 1259 2491 
L 2053 2491 
Q 2509 2491 2742 2702 
Q 2975 2913 2975 3322 
Q 2975 3731 2742 3939 
Q 2509 4147 2053 4147 
L 1259 4147 
z
" transform="scale(0.015625)"/>
      </defs>
      <use xlink:href="#DejaVuSans-53"/>
      <use xlink:href="#DejaVuSans-43" transform="translate(63.476562 0)"/>
      <use xlink:href="#DejaVuSans-52" transform="translate(133.300781 0)"/>
      <use xlink:href="#DejaVuSans-20" transform="translate(202.783203 0)"/>
      <use xlink:href="#DejaVuSans-28" transform="translate(234.570312 0)"/>
      <use xlink:href="#DejaVuSans-50" transform="translate(273.583984 0)"/>
      <use xlink:href="#DejaVuSans-68" transform="translate(333.886719 0)"/>
      <use xlink:href="#DejaVuSans-61" transform="translate(397.265625 0)"/>
      <use xlink:href="#DejaVuSans-73" transform="translate(458.544922 0)"/>
      <use xlink:href="#DejaVuSans-69" transform="translate(510.644531 0)"/>
      <use xlink:href="#DejaVuSans-63" transform="translate(538.427734 0)"/>
      <use xlink:href="#DejaVuSans-29" transform="translate(593.408203 0)"/>
     </g>
    </g>
   </g>
  </g>
 </g>
 <defs>
  <clipPath id="p7a342f944c">
   <rect x="47.81" y="25.44" width="805.39" height="508.6"/>
  </clipPath>
 </defs>
</svg>
