<?xml version="1.0" encoding="utf-8" standalone="no"?>
<!DOCTYPE svg PUBLIC "-//W3C//DTD SVG 1.1//EN"
  "http://www.w3.org/Graphics/SVG/1.1/DTD/svg11.dtd">
<svg xmlns:xlink="http://www.w3.org/1999/xlink" width="864pt" height="576pt" viewBox="0 0 864 576" xmlns="http://www.w3.org/2000/svg" version="1.1">
 <metadata>
  <rdf:RDF xmlns:dc="http://purl.org/dc/elements/1.1/" xmlns:cc="http://creativecommons.org/ns#" xmlns:rdf="http://www.w3.org/1999/02/22-rdf-syntax-ns#">
   <cc:Work>
    <dc:type rdf:resource="http://purl.org/dc/dcmitype/StillImage"/>
    <dc:date>2025-10-09T19:20:32.134013</dc:date>
    <dc:format>image/svg+xml</dc:format>
    <dc:creator>
     <cc:Agent>
      <dc:title>Matplotlib v3.10.0, https://matplotlib.org/</dc:title>
     </cc:Agent>
    </dc:creator>
   </cc:Work>
  </rdf:RDF>
 </metadata>
 <defs>
  <style type="text/css">*{stroke-linejoin: round; stroke-linecap: butt}</style>
 </defs>
 <g id="figure_1">
  <g id="patch_1">
   <path d="M 0 576 
L 864 576 
L 864 0 
L 0 0 
z
" style="fill: #ffffff"/>
  </g>
  <g id="axes_1">
   <g id="patch_2">
    <path d="M 47.81 534.04 
L 853.2 534.04 
L 853.2 48.14925 
L 47.81 48.14925 
z
" style="fill: #ffffff"/>
   </g>
   <g id="matplotlib.axis_1">
    <g id="xtick_1">
     <g id="line2d_1">
      <path d="M 84.418636 534.04 
L 84.418636 48.14925 
" clip-path="url(#paea2accac4)" style="fill: none; stroke: #b0b0b0; stroke-opacity: 0.3; stroke-width: 0.8; stroke-linecap: square"/>
     </g>
     <g id="line2d_2">
      <defs>
       <path id="meca8ffdcd3" d="M 0 0 
L 0 3.5 
" style="stroke: #000000; stroke-width: 0.8"/>
      </defs>
      <g>
       <use xlink:href="#meca8ffdcd3" x="84.418636" y="534.04" style="stroke: #000000; stroke-width: 0.8"/>
      </g>
     </g>
     <g id="text_1">
      <!-- 0.0 -->
      <g transform="translate(76.467074 548.638438) scale(0.1 -0.1)">
       <defs>
        <path id="DejaVuSans-30" d="M 2034 4250 
Q 1547 4250 1301 3770 
Q 1056 3291 1056 2328 
Q 1056 1369 1301 889 
Q 1547 409 2034 409 
Q 2525 409 2770 889 
Q 3016 1369 3016 2328 
Q 3016 3291 2770 3770 
Q 2525 4250 2034 4250 
z
M 2034 4750 
Q 2819 4750 3233 4129 
Q 3647 3509 3647 2328 
Q 3647 1150 3233 529 
Q 2819 -91 2034 -91 
Q 1250 -91 836 529 
Q 422 1150 422 2328 
Q 422 3509 836 4129 
Q 1250 4750 2034 4750 
z
" transform="scale(0.015625)"/>
        <path id="DejaVuSans-2e" d="M 684 794 
L 1344 794 
L 1344 0 
L 684 0 
L 684 794 
z
" transform="scale(0.015625)"/>
       </defs>
       <use xlink:href="#DejaVuSans-30"/>
       <use xlink:href="#DejaVuSans-2e" transform="translate(63.623047 0)"/>
       <use xlink:href="#DejaVuSans-30" transform="translate(95.410156 0)"/>
      </g>
     </g>
    </g>
    <g id="xtick_2">
     <g id="line2d_3">
      <path d="M 206.447424 534.04 
L 206.447424 48.14925 
" clip-path="url(#paea2accac4)" style="fill: none; stroke: #b0b0b0; stroke-opacity: 0.3; stroke-width: 0.8; stroke-linecap: square"/>
     </g>
     <g id="line2d_4">
      <g>
       <use xlink:href="#meca8ffdcd3" x="206.447424" y="534.04" style="stroke: #000000; stroke-width: 0.8"/>
      </g>
     </g>
     <g id="text_2">
      <!-- 0.5 -->
      <g transform="translate(198.495862 548.638438) scale(0.1 -0.1)">
       <defs>
        <path id="DejaVuSans-35" d="M 691 4666 
L 3169 4666 
L 3169 4134 
L 1269 4134 
L 1269 2991 
Q 1406 3038 1543 3061 
Q 1681 3084 1819 3084 
Q 2600 3084 3056 2656 
Q 3513 2228 3513 1497 
Q 3513 744 3044 326 
Q 2575 -91 1722 -91 
Q 1428 -91 1123 -41 
Q 819 9 494 109 
L 494 744 
Q 775 591 1075 516 
Q 1375 441 1709 441 
Q 2250 441 2565 725 
Q 2881 1009 2881 1497 
Q 2881 1984 2565 2268 
Q 2250 2553 1709 2553 
Q 1456 2553 1204 2497 
Q 953 2441 691 2322 
L 691 4666 
z
" transform="scale(0.015625)"/>
       </defs>
       <use xlink:href="#DejaVuSans-30"/>
       <use xlink:href="#DejaVuSans-2e" transform="translate(63.623047 0)"/>
       <use xlink:href="#DejaVuSans-35" transform="translate(95.410156 0)"/>
      </g>
     </g>
    </g>
    <g id="xtick_3">
     <g id="line2d_5">
      <path d="M 328.476212 534.04 
L 328.476212 48.14925 
" clip-path="url(#paea2accac4)" style="fill: none; stroke: #b0b0b0; stroke-opacity: 0.3; stroke-width: 0.8; stroke-linecap: square"/>
     </g>
     <g id="line2d_6">
      <g>
       <use xlink:href="#meca8ffdcd3" x="328.476212" y="534.04" style="stroke: #000000; stroke-width: 0.8"/>
      </g>
     </g>
     <g id="text_3">
      <!-- 1.0 -->
      <g transform="translate(320.52465 548.638438) scale(0.1 -0.1)">
       <defs>
        <path id="DejaVuSans-31" d="M 794 531 
L 1825 531 
L 1825 4091 
L 703 3866 
L 703 4441 
L 1819 4666 
L 2450 4666 
L 2450 531 
L 3481 531 
L 3481 0 
L 794 0 
L 794 531 
z
" transform="scale(0.015625)"/>
       </defs>
       <use xlink:href="#DejaVuSans-31"/>
       <use xlink:href="#DejaVuSans-2e" transform="translate(63.623047 0)"/>
       <use xlink:href="#DejaVuSans-30" transform="translate(95.410156 0)"/>
      </g>
     </g>
    </g>
    <g id="xtick_4">
     <g id="line2d_7">
      <path d="M 450.505 534.04 
L 450.505 48.14925 
" clip-path="url(#paea2accac4)" style="fill: none; stroke: #b0b0b0; stroke-opacity: 0.3; stroke-width: 0.8; stroke-linecap: square"/>
     </g>
     <g id="line2d_8">
      <g>
       <use xlink:href="#meca8ffdcd3" x="450.505" y="534.04" style="stroke: #000000; stroke-width: 0.8"/>
      </g>
     </g>
     <g id="text_4">
      <!-- 1.5 -->
      <g transform="translate(442.553438 548.638438) scale(0.1 -0.1)">
       <use xlink:href="#DejaVuSans-31"/>
       <use xlink:href="#DejaVuSans-2e" transform="translate(63.623047 0)"/>
       <use xlink:href="#DejaVuSans-35" transform="translate(95.410156 0)"/>
      </g>
     </g>
    </g>
    <g id="xtick_5">
     <g id="line2d_9">
      <path d="M 572.533788 534.04 
L 572.533788 48.14925 
" clip-path="url(#paea2accac4)" style="fill: none; stroke: #b0b0b0; stroke-opacity: 0.3; stroke-width: 0.8; stroke-linecap: square"/>
     </g>
     <g id="line2d_10">
      <g>
       <use xlink:href="#meca8ffdcd3" x="572.533788" y="534.04" style="stroke: #000000; stroke-width: 0.8"/>
      </g>
     </g>
     <g id="text_5">
      <!-- 2.0 -->
      <g transform="translate(564.582225 548.638438) scale(0.1 -0.1)">
       <defs>
        <path id="DejaVuSans-32" d="M 1228 531 
L 3431 531 
L 3431 0 
L 469 0 
L 469 531 
Q 828 903 1448 1529 
Q 2069 2156 2228 2338 
Q 2531 2678 2651 2914 
Q 2772 3150 2772 3378 
Q 2772 3750 2511 3984 
Q 2250 4219 1831 4219 
Q 1534 4219 1204 4116 
Q 875 4013 500 3803 
L 500 4441 
Q 881 4594 1212 4672 
Q 1544 4750 1819 4750 
Q 2544 4750 2975 4387 
Q 3406 4025 3406 3419 
Q 3406 3131 3298 2873 
Q 3191 2616 2906 2266 
Q 2828 2175 2409 1742 
Q 1991 1309 1228 531 
z
" transform="scale(0.015625)"/>
       </defs>
       <use xlink:href="#DejaVuSans-32"/>
       <use xlink:href="#DejaVuSans-2e" transform="translate(63.623047 0)"/>
       <use xlink:href="#DejaVuSans-30" transform="translate(95.410156 0)"/>
      </g>
     </g>
    </g>
    <g id="xtick_6">
     <g id="line2d_11">
      <path d="M 694.562576 534.04 
L 694.562576 48.14925 
" clip-path="url(#paea2accac4)" style="fill: none; stroke: #b0b0b0; stroke-opacity: 0.3; stroke-width: 0.8; stroke-linecap: square"/>
     </g>
     <g id="line2d_12">
      <g>
       <use xlink:href="#meca8ffdcd3" x="694.562576" y="534.04" style="stroke: #000000; stroke-width: 0.8"/>
      </g>
     </g>
     <g id="text_6">
      <!-- 2.5 -->
      <g transform="translate(686.611013 548.638438) scale(0.1 -0.1)">
       <use xlink:href="#DejaVuSans-32"/>
       <use xlink:href="#DejaVuSans-2e" transform="translate(63.623047 0)"/>
       <use xlink:href="#DejaVuSans-35" transform="translate(95.410156 0)"/>
      </g>
     </g>
    </g>
    <g id="xtick_7">
     <g id="line2d_13">
      <path d="M 816.591364 534.04 
L 816.591364 48.14925 
" clip-path="url(#paea2accac4)" style="fill: none; stroke: #b0b0b0; stroke-opacity: 0.3; stroke-width: 0.8; stroke-linecap: square"/>
     </g>
     <g id="line2d_14">
      <g>
       <use xlink:href="#meca8ffdcd3" x="816.591364" y="534.04" style="stroke: #000000; stroke-width: 0.8"/>
      </g>
     </g>
     <g id="text_7">
      <!-- 3.0 -->
      <g transform="translate(808.639801 548.638438) scale(0.1 -0.1)">
       <defs>
        <path id="DejaVuSans-33" d="M 2597 2516 
Q 3050 2419 3304 2112 
Q 3559 1806 3559 1356 
Q 3559 666 3084 287 
Q 2609 -91 1734 -91 
Q 1441 -91 1130 -33 
Q 819 25 488 141 
L 488 750 
Q 750 597 1062 519 
Q 1375 441 1716 441 
Q 2309 441 2620 675 
Q 2931 909 2931 1356 
Q 2931 1769 2642 2001 
Q 2353 2234 1838 2234 
L 1294 2234 
L 1294 2753 
L 1863 2753 
Q 2328 2753 2575 2939 
Q 2822 3125 2822 3475 
Q 2822 3834 2567 4026 
Q 2313 4219 1838 4219 
Q 1578 4219 1281 4162 
Q 984 4106 628 3988 
L 628 4550 
Q 988 4650 1302 4700 
Q 1616 4750 1894 4750 
Q 2613 4750 3031 4423 
Q 3450 4097 3450 3541 
Q 3450 3153 3228 2886 
Q 3006 2619 2597 2516 
z
" transform="scale(0.015625)"/>
       </defs>
       <use xlink:href="#DejaVuSans-33"/>
       <use xlink:href="#DejaVuSans-2e" transform="translate(63.623047 0)"/>
       <use xlink:href="#DejaVuSans-30" transform="translate(95.410156 0)"/>
      </g>
     </g>
    </g>
    <g id="text_8">
     <!-- Time (minutes) -->
     <g transform="translate(412.5425 562.316563) scale(0.1 -0.1)">
      <defs>
       <path id="DejaVuSans-54" d="M -19 4666 
L 3928 4666 
L 3928 4134 
L 2272 4134 
L 2272 0 
L 1638 0 
L 1638 4134 
L -19 4134 
L -19 4666 
z
" transform="scale(0.015625)"/>
       <path id="DejaVuSans-69" d="M 603 3500 
L 1178 3500 
L 1178 0 
L 603 0 
L 603 3500 
z
M 603 4863 
L 1178 4863 
L 1178 4134 
L 603 4134 
L 603 4863 
z
" transform="scale(0.015625)"/>
       <path id="DejaVuSans-6d" d="M 3328 2828 
Q 3544 3216 3844 3400 
Q 4144 3584 4550 3584 
Q 5097 3584 5394 3201 
Q 5691 2819 5691 2113 
L 5691 0 
L 5113 0 
L 5113 2094 
Q 5113 2597 4934 2840 
Q 4756 3084 4391 3084 
Q 3944 3084 3684 2787 
Q 3425 2491 3425 1978 
L 3425 0 
L 2847 0 
L 2847 2094 
Q 2847 2600 2669 2842 
Q 2491 3084 2119 3084 
Q 1678 3084 1418 2786 
Q 1159 2488 1159 1978 
L 1159 0 
L 581 0 
L 581 3500 
L 1159 3500 
L 1159 2956 
Q 1356 3278 1631 3431 
Q 1906 3584 2284 3584 
Q 2666 3584 2933 3390 
Q 3200 3197 3328 2828 
z
" transform="scale(0.015625)"/>
       <path id="DejaVuSans-65" d="M 3597 1894 
L 3597 1613 
L 953 1613 
Q 991 1019 1311 708 
Q 1631 397 2203 397 
Q 2534 397 2845 478 
Q 3156 559 3463 722 
L 3463 178 
Q 3153 47 2828 -22 
Q 2503 -91 2169 -91 
Q 1331 -91 842 396 
Q 353 884 353 1716 
Q 353 2575 817 3079 
Q 1281 3584 2069 3584 
Q 2775 3584 3186 3129 
Q 3597 2675 3597 1894 
z
M 3022 2063 
Q 3016 2534 2758 2815 
Q 2500 3097 2075 3097 
Q 1594 3097 1305 2825 
Q 1016 2553 972 2059 
L 3022 2063 
z
" transform="scale(0.015625)"/>
       <path id="DejaVuSans-20" transform="scale(0.015625)"/>
       <path id="DejaVuSans-28" d="M 1984 4856 
Q 1566 4138 1362 3434 
Q 1159 2731 1159 2009 
Q 1159 1288 1364 580 
Q 1569 -128 1984 -844 
L 1484 -844 
Q 1016 -109 783 600 
Q 550 1309 550 2009 
Q 550 2706 781 3412 
Q 1013 4119 1484 4856 
L 1984 4856 
z
" transform="scale(0.015625)"/>
       <path id="DejaVuSans-6e" d="M 3513 2113 
L 3513 0 
L 2938 0 
L 2938 2094 
Q 2938 2591 2744 2837 
Q 2550 3084 2163 3084 
Q 1697 3084 1428 2787 
Q 1159 2491 1159 1978 
L 1159 0 
L 581 0 
L 581 3500 
L 1159 3500 
L 1159 2956 
Q 1366 3272 1645 3428 
Q 1925 3584 2291 3584 
Q 2894 3584 3203 3211 
Q 3513 2838 3513 2113 
z
" transform="scale(0.015625)"/>
       <path id="DejaVuSans-75" d="M 544 1381 
L 544 3500 
L 1119 3500 
L 1119 1403 
Q 1119 906 1312 657 
Q 1506 409 1894 409 
Q 2359 409 2629 706 
Q 2900 1003 2900 1516 
L 2900 3500 
L 3475 3500 
L 3475 0 
L 2900 0 
L 2900 538 
Q 2691 219 2414 64 
Q 2138 -91 1772 -91 
Q 1169 -91 856 284 
Q 544 659 544 1381 
z
M 1991 3584 
L 1991 3584 
z
" transform="scale(0.015625)"/>
       <path id="DejaVuSans-74" d="M 1172 4494 
L 1172 3500 
L 2356 3500 
L 2356 3053 
L 1172 3053 
L 1172 1153 
Q 1172 725 1289 603 
Q 1406 481 1766 481 
L 2356 481 
L 2356 0 
L 1766 0 
Q 1100 0 847 248 
Q 594 497 594 1153 
L 594 3053 
L 172 3053 
L 172 3500 
L 594 3500 
L 594 4494 
L 1172 4494 
z
" transform="scale(0.015625)"/>
       <path id="DejaVuSans-73" d="M 2834 3397 
L 2834 2853 
Q 2591 2978 2328 3040 
Q 2066 3103 1784 3103 
Q 1356 3103 1142 2972 
Q 928 2841 928 2578 
Q 928 2378 1081 2264 
Q 1234 2150 1697 2047 
L 1894 2003 
Q 2506 1872 2764 1633 
Q 3022 1394 3022 966 
Q 3022 478 2636 193 
Q 2250 -91 1575 -91 
Q 1294 -91 989 -36 
Q 684 19 347 128 
L 347 722 
Q 666 556 975 473 
Q 1284 391 1588 391 
Q 1994 391 2212 530 
Q 2431 669 2431 922 
Q 2431 1156 2273 1281 
Q 2116 1406 1581 1522 
L 1381 1569 
Q 847 1681 609 1914 
Q 372 2147 372 2553 
Q 372 3047 722 3315 
Q 1072 3584 1716 3584 
Q 2034 3584 2315 3537 
Q 2597 3491 2834 3397 
z
" transform="scale(0.015625)"/>
       <path id="DejaVuSans-29" d="M 513 4856 
L 1013 4856 
Q 1481 4119 1714 3412 
Q 1947 2706 1947 2009 
Q 1947 1309 1714 600 
Q 1481 -109 1013 -844 
L 513 -844 
Q 928 -128 1133 580 
Q 1338 1288 1338 2009 
Q 1338 2731 1133 3434 
Q 928 4138 513 4856 
z
" transform="scale(0.015625)"/>
      </defs>
      <use xlink:href="#DejaVuSans-54"/>
      <use xlink:href="#DejaVuSans-69" transform="translate(57.958984 0)"/>
      <use xlink:href="#DejaVuSans-6d" transform="translate(85.742188 0)"/>
      <use xlink:href="#DejaVuSans-65" transform="translate(183.154297 0)"/>
      <use xlink:href="#DejaVuSans-20" transform="translate(244.677734 0)"/>
      <use xlink:href="#DejaVuSans-28" transform="translate(276.464844 0)"/>
      <use xlink:href="#DejaVuSans-6d" transform="translate(315.478516 0)"/>
      <use xlink:href="#DejaVuSans-69" transform="translate(412.890625 0)"/>
      <use xlink:href="#DejaVuSans-6e" transform="translate(440.673828 0)"/>
      <use xlink:href="#DejaVuSans-75" transform="translate(504.052734 0)"/>
      <use xlink:href="#DejaVuSans-74" transform="translate(567.431641 0)"/>
      <use xlink:href="#DejaVuSans-65" transform="translate(606.640625 0)"/>
      <use xlink:href="#DejaVuSans-73" transform="translate(668.164062 0)"/>
      <use xlink:href="#DejaVuSans-29" transform="translate(720.263672 0)"/>
     </g>
    </g>
   </g>
   <g id="matplotlib.axis_2">
    <g id="ytick_1">
     <g id="line2d_15">
      <path d="M 47.81 463.827185 
L 853.2 463.827185 
" clip-path="url(#paea2accac4)" style="fill: none; stroke: #b0b0b0; stroke-opacity: 0.3; stroke-width: 0.8; stroke-linecap: square"/>
     </g>
     <g id="line2d_16">
      <defs>
       <path id="m8b6f3e6dbe" d="M 0 0 
L -3.5 0 
" style="stroke: #000000; stroke-width: 0.8"/>
      </defs>
      <g>
       <use xlink:href="#m8b6f3e6dbe" x="47.81" y="463.827185" style="stroke: #000000; stroke-width: 0.8"/>
      </g>
     </g>
     <g id="text_9">
      <!-- 0.8 -->
      <g transform="translate(24.906875 467.626403) scale(0.1 -0.1)">
       <defs>
        <path id="DejaVuSans-38" d="M 2034 2216 
Q 1584 2216 1326 1975 
Q 1069 1734 1069 1313 
Q 1069 891 1326 650 
Q 1584 409 2034 409 
Q 2484 409 2743 651 
Q 3003 894 3003 1313 
Q 3003 1734 2745 1975 
Q 2488 2216 2034 2216 
z
M 1403 2484 
Q 997 2584 770 2862 
Q 544 3141 544 3541 
Q 544 4100 942 4425 
Q 1341 4750 2034 4750 
Q 2731 4750 3128 4425 
Q 3525 4100 3525 3541 
Q 3525 3141 3298 2862 
Q 3072 2584 2669 2484 
Q 3125 2378 3379 2068 
Q 3634 1759 3634 1313 
Q 3634 634 3220 271 
Q 2806 -91 2034 -91 
Q 1263 -91 848 271 
Q 434 634 434 1313 
Q 434 1759 690 2068 
Q 947 2378 1403 2484 
z
M 1172 3481 
Q 1172 3119 1398 2916 
Q 1625 2713 2034 2713 
Q 2441 2713 2670 2916 
Q 2900 3119 2900 3481 
Q 2900 3844 2670 4047 
Q 2441 4250 2034 4250 
Q 1625 4250 1398 4047 
Q 1172 3844 1172 3481 
z
" transform="scale(0.015625)"/>
       </defs>
       <use xlink:href="#DejaVuSans-30"/>
       <use xlink:href="#DejaVuSans-2e" transform="translate(63.623047 0)"/>
       <use xlink:href="#DejaVuSans-38" transform="translate(95.410156 0)"/>
      </g>
     </g>
    </g>
    <g id="ytick_2">
     <g id="line2d_17">
      <path d="M 47.81 363.670028 
L 853.2 363.670028 
" clip-path="url(#paea2accac4)" style="fill: none; stroke: #b0b0b0; stroke-opacity: 0.3; stroke-width: 0.8; stroke-linecap: square"/>
     </g>
     <g id="line2d_18">
      <g>
       <use xlink:href="#m8b6f3e6dbe" x="47.81" y="363.670028" style="stroke: #000000; stroke-width: 0.8"/>
      </g>
     </g>
     <g id="text_10">
      <!-- 0.9 -->
      <g transform="translate(24.906875 367.469246) scale(0.1 -0.1)">
       <defs>
        <path id="DejaVuSans-39" d="M 703 97 
L 703 672 
Q 941 559 1184 500 
Q 1428 441 1663 441 
Q 2288 441 2617 861 
Q 2947 1281 2994 2138 
Q 2813 1869 2534 1725 
Q 2256 1581 1919 1581 
Q 1219 1581 811 2004 
Q 403 2428 403 3163 
Q 403 3881 828 4315 
Q 1253 4750 1959 4750 
Q 2769 4750 3195 4129 
Q 3622 3509 3622 2328 
Q 3622 1225 3098 567 
Q 2575 -91 1691 -91 
Q 1453 -91 1209 -44 
Q 966 3 703 97 
z
M 1959 2075 
Q 2384 2075 2632 2365 
Q 2881 2656 2881 3163 
Q 2881 3666 2632 3958 
Q 2384 4250 1959 4250 
Q 1534 4250 1286 3958 
Q 1038 3666 1038 3163 
Q 1038 2656 1286 2365 
Q 1534 2075 1959 2075 
z
" transform="scale(0.015625)"/>
       </defs>
       <use xlink:href="#DejaVuSans-30"/>
       <use xlink:href="#DejaVuSans-2e" transform="translate(63.623047 0)"/>
       <use xlink:href="#DejaVuSans-39" transform="translate(95.410156 0)"/>
      </g>
     </g>
    </g>
    <g id="ytick_3">
     <g id="line2d_19">
      <path d="M 47.81 263.512871 
L 853.2 263.512871 
" clip-path="url(#paea2accac4)" style="fill: none; stroke: #b0b0b0; stroke-opacity: 0.3; stroke-width: 0.8; stroke-linecap: square"/>
     </g>
     <g id="line2d_20">
      <g>
       <use xlink:href="#m8b6f3e6dbe" x="47.81" y="263.512871" style="stroke: #000000; stroke-width: 0.8"/>
      </g>
     </g>
     <g id="text_11">
      <!-- 1.0 -->
      <g transform="translate(24.906875 267.31209) scale(0.1 -0.1)">
       <use xlink:href="#DejaVuSans-31"/>
       <use xlink:href="#DejaVuSans-2e" transform="translate(63.623047 0)"/>
       <use xlink:href="#DejaVuSans-30" transform="translate(95.410156 0)"/>
      </g>
     </g>
    </g>
    <g id="ytick_4">
     <g id="line2d_21">
      <path d="M 47.81 163.355714 
L 853.2 163.355714 
" clip-path="url(#paea2accac4)" style="fill: none; stroke: #b0b0b0; stroke-opacity: 0.3; stroke-width: 0.8; stroke-linecap: square"/>
     </g>
     <g id="line2d_22">
      <g>
       <use xlink:href="#m8b6f3e6dbe" x="47.81" y="163.355714" style="stroke: #000000; stroke-width: 0.8"/>
      </g>
     </g>
     <g id="text_12">
      <!-- 1.1 -->
      <g transform="translate(24.906875 167.154933) scale(0.1 -0.1)">
       <use xlink:href="#DejaVuSans-31"/>
       <use xlink:href="#DejaVuSans-2e" transform="translate(63.623047 0)"/>
       <use xlink:href="#DejaVuSans-31" transform="translate(95.410156 0)"/>
      </g>
     </g>
    </g>
    <g id="ytick_5">
     <g id="line2d_23">
      <path d="M 47.81 63.198557 
L 853.2 63.198557 
" clip-path="url(#paea2accac4)" style="fill: none; stroke: #b0b0b0; stroke-opacity: 0.3; stroke-width: 0.8; stroke-linecap: square"/>
     </g>
     <g id="line2d_24">
      <g>
       <use xlink:href="#m8b6f3e6dbe" x="47.81" y="63.198557" style="stroke: #000000; stroke-width: 0.8"/>
      </g>
     </g>
     <g id="text_13">
      <!-- 1.2 -->
      <g transform="translate(24.906875 66.997776) scale(0.1 -0.1)">
       <use xlink:href="#DejaVuSans-31"/>
       <use xlink:href="#DejaVuSans-2e" transform="translate(63.623047 0)"/>
       <use xlink:href="#DejaVuSans-32" transform="translate(95.410156 0)"/>
      </g>
     </g>
    </g>
    <g id="text_14">
     <!-- EDA (μS) -->
     <g transform="translate(18.827187 313.282906) rotate(-90) scale(0.1 -0.1)">
      <defs>
       <path id="DejaVuSans-45" d="M 628 4666 
L 3578 4666 
L 3578 4134 
L 1259 4134 
L 1259 2753 
L 3481 2753 
L 3481 2222 
L 1259 2222 
L 1259 531 
L 3634 531 
L 3634 0 
L 628 0 
L 628 4666 
z
" transform="scale(0.015625)"/>
       <path id="DejaVuSans-44" d="M 1259 4147 
L 1259 519 
L 2022 519 
Q 2988 519 3436 956 
Q 3884 1394 3884 2338 
Q 3884 3275 3436 3711 
Q 2988 4147 2022 4147 
L 1259 4147 
z
M 628 4666 
L 1925 4666 
Q 3281 4666 3915 4102 
Q 4550 3538 4550 2338 
Q 4550 1131 3912 565 
Q 3275 0 1925 0 
L 628 0 
L 628 4666 
z
" transform="scale(0.015625)"/>
       <path id="DejaVuSans-41" d="M 2188 4044 
L 1331 1722 
L 3047 1722 
L 2188 4044 
z
M 1831 4666 
L 2547 4666 
L 4325 0 
L 3669 0 
L 3244 1197 
L 1141 1197 
L 716 0 
L 50 0 
L 1831 4666 
z
" transform="scale(0.015625)"/>
       <path id="DejaVuSans-3bc" d="M 544 -1331 
L 544 3500 
L 1119 3500 
L 1119 1325 
Q 1119 872 1334 640 
Q 1550 409 1972 409 
Q 2434 409 2667 671 
Q 2900 934 2900 1459 
L 2900 3500 
L 3475 3500 
L 3475 806 
Q 3475 619 3529 530 
Q 3584 441 3700 441 
Q 3728 441 3778 458 
Q 3828 475 3916 513 
L 3916 50 
Q 3788 -22 3673 -56 
Q 3559 -91 3450 -91 
Q 3234 -91 3106 31 
Q 2978 153 2931 403 
Q 2775 156 2548 32 
Q 2322 -91 2016 -91 
Q 1697 -91 1473 31 
Q 1250 153 1119 397 
L 1119 -1331 
L 544 -1331 
z
" transform="scale(0.015625)"/>
       <path id="DejaVuSans-53" d="M 3425 4513 
L 3425 3897 
Q 3066 4069 2747 4153 
Q 2428 4238 2131 4238 
Q 1616 4238 1336 4038 
Q 1056 3838 1056 3469 
Q 1056 3159 1242 3001 
Q 1428 2844 1947 2747 
L 2328 2669 
Q 3034 2534 3370 2195 
Q 3706 1856 3706 1288 
Q 3706 609 3251 259 
Q 2797 -91 1919 -91 
Q 1588 -91 1214 -16 
Q 841 59 441 206 
L 441 856 
Q 825 641 1194 531 
Q 1563 422 1919 422 
Q 2459 422 2753 634 
Q 3047 847 3047 1241 
Q 3047 1584 2836 1778 
Q 2625 1972 2144 2069 
L 1759 2144 
Q 1053 2284 737 2584 
Q 422 2884 422 3419 
Q 422 4038 858 4394 
Q 1294 4750 2059 4750 
Q 2388 4750 2728 4690 
Q 3069 4631 3425 4513 
z
" transform="scale(0.015625)"/>
      </defs>
      <use xlink:href="#DejaVuSans-45"/>
      <use xlink:href="#DejaVuSans-44" transform="translate(63.183594 0)"/>
      <use xlink:href="#DejaVuSans-41" transform="translate(138.435547 0)"/>
      <use xlink:href="#DejaVuSans-20" transform="translate(206.84375 0)"/>
      <use xlink:href="#DejaVuSans-28" transform="translate(238.630859 0)"/>
      <use xlink:href="#DejaVuSans-3bc" transform="translate(277.644531 0)"/>
      <use xlink:href="#DejaVuSans-53" transform="translate(341.267578 0)"/>
      <use xlink:href="#DejaVuSans-29" transform="translate(404.744141 0)"/>
     </g>
    </g>
   </g>
   <g id="line2d_25">
    <path d="M 84.418636 73.905143 
L 85.436957 83.015583 
L 86.455278 93.714625 
L 88.49192 118.160497 
L 90.528562 143.161882 
L 92.565204 165.222622 
L 94.601845 183.104967 
L 96.638487 197.993548 
L 99.69345 218.342645 
L 101.730092 231.003826 
L 103.766733 242.155605 
L 104.785054 246.908288 
L 105.803375 250.987729 
L 106.821696 254.339727 
L 107.840017 256.979878 
L 108.858338 259.02108 
L 111.913301 264.092644 
L 112.931622 266.488736 
L 113.949942 269.649993 
L 114.968263 273.611303 
L 118.023226 287.585405 
L 119.041547 291.241874 
L 120.059868 293.472309 
L 121.078189 293.949021 
L 122.09651 292.667323 
L 123.114831 289.997119 
L 125.151472 283.485498 
L 126.169793 281.417252 
L 127.188114 281.103244 
L 128.206435 282.840197 
L 129.224756 286.457947 
L 131.261398 296.225668 
L 132.279719 299.820718 
L 133.29804 300.532741 
L 134.31636 297.007568 
L 135.334681 288.396625 
L 136.353002 274.605828 
L 137.371323 256.388669 
L 141.444607 173.185982 
L 142.462928 158.111373 
L 143.481249 146.956757 
L 144.499569 139.43172 
L 145.51789 134.772787 
L 146.536211 131.941176 
L 147.554532 129.824301 
L 148.572853 127.415412 
L 149.591174 123.957723 
L 150.609495 119.04389 
L 151.627816 112.659554 
L 155.701099 82.609526 
L 156.71942 77.211552 
L 157.737741 73.430789 
L 158.756062 71.200269 
L 159.774383 70.255237 
L 160.792704 70.235193 
L 161.811025 70.778836 
L 165.884308 73.934045 
L 166.902629 74.465952 
L 168.939271 75.135425 
L 173.012555 76.057011 
L 175.049196 77.001073 
L 177.085838 78.297611 
L 182.177443 81.97881 
L 184.214085 83.621515 
L 186.250726 85.642017 
L 189.305689 89.154419 
L 190.32401 90.085129 
L 191.342331 90.669382 
L 192.360652 90.83688 
L 194.397294 90.449053 
L 195.415614 90.722507 
L 196.433935 92.202409 
L 197.452256 95.640024 
L 198.470577 101.600959 
L 199.488898 110.232096 
L 200.507219 121.102721 
L 202.543861 145.134629 
L 203.562182 155.443879 
L 204.580503 162.989118 
L 205.598823 167.210309 
L 206.617144 168.220983 
L 207.635465 166.71056 
L 208.653786 163.7108 
L 209.672107 160.314407 
L 210.690428 157.431478 
L 211.708749 155.639799 
L 212.72707 155.145904 
L 213.745391 155.840272 
L 214.763712 157.409126 
L 217.818674 163.588312 
L 218.836995 165.173402 
L 219.855316 166.254747 
L 220.873637 166.781471 
L 221.891958 166.76449 
L 222.910279 166.290657 
L 224.946921 164.84214 
L 225.965241 164.586096 
L 226.983562 165.242009 
L 228.001883 167.217306 
L 229.020204 170.726361 
L 230.038525 175.655098 
L 232.075167 187.297496 
L 233.093488 191.964906 
L 234.111809 194.358542 
L 235.13013 193.64912 
L 236.14845 189.528648 
L 237.166771 182.311614 
L 239.203413 162.489577 
L 240.221734 152.508172 
L 241.240055 144.154595 
L 242.258376 138.307147 
L 243.276697 135.394615 
L 244.295018 135.369278 
L 245.313339 137.761943 
L 246.33166 141.821364 
L 250.404943 160.885142 
L 253.459906 173.791661 
L 256.514869 188.309803 
L 257.533189 192.399769 
L 258.55151 195.430687 
L 259.569831 197.104262 
L 260.588152 197.290109 
L 261.606473 196.059591 
L 262.624794 193.694591 
L 265.679757 184.749915 
L 266.698078 182.779235 
L 267.716398 181.729995 
L 268.734719 181.516738 
L 269.75304 181.89676 
L 273.826324 184.749103 
L 274.844645 185.596804 
L 275.862966 186.765235 
L 276.881287 188.388102 
L 277.899607 190.477677 
L 279.936249 195.283559 
L 280.95457 197.256045 
L 281.972891 198.349731 
L 282.991212 198.20384 
L 284.009533 196.644533 
L 285.027854 193.745508 
L 286.046175 189.831245 
L 288.082816 181.082885 
L 289.101137 177.357544 
L 290.119458 174.59075 
L 291.137779 172.917671 
L 292.1561 172.278238 
L 293.174421 172.4822 
L 294.192742 173.284857 
L 296.229384 175.770383 
L 298.266025 178.362721 
L 300.302667 180.473697 
L 302.339309 182.129328 
L 304.375951 183.715384 
L 306.412593 185.687487 
L 308.449234 188.231899 
L 311.504197 192.733784 
L 315.577481 199.223517 
L 318.632443 204.069175 
L 320.669085 206.7947 
L 322.705727 208.994292 
L 325.76069 212.073929 
L 327.797332 214.504336 
L 330.852294 218.321768 
L 331.870615 219.376698 
L 332.888936 220.22662 
L 333.907257 220.851613 
L 334.925578 221.266052 
L 336.96222 221.678446 
L 338.998861 222.086377 
L 340.017182 222.500073 
L 341.035503 223.128354 
L 342.053824 223.981278 
L 344.090466 226.203753 
L 347.145429 229.823539 
L 350.200391 233.025853 
L 353.255354 236.284634 
L 355.291996 238.721984 
L 358.346959 242.793737 
L 362.420242 248.268562 
L 365.475205 251.87094 
L 370.566809 257.362014 
L 372.603451 259.120398 
L 374.640093 260.398789 
L 376.676735 261.594716 
L 377.695056 262.334367 
L 378.713377 263.223934 
L 380.750018 265.469309 
L 382.78666 268.209783 
L 385.841623 272.497128 
L 387.878265 274.828644 
L 389.914906 276.620552 
L 391.951548 278.305774 
L 393.98819 280.390289 
L 399.079795 286.534947 
L 400.098115 287.309659 
L 401.116436 287.803134 
L 404.171399 288.511048 
L 405.18972 289.177104 
L 406.208041 290.491295 
L 407.226362 292.64511 
L 408.244683 295.692821 
L 409.263004 299.51609 
L 412.317966 312.426137 
L 413.336287 315.972201 
L 414.354608 318.703161 
L 415.372929 320.554422 
L 416.39125 321.594599 
L 417.409571 322.0024 
L 420.464533 322.182344 
L 421.482854 322.814902 
L 422.501175 324.006822 
L 423.519496 325.736585 
L 424.537817 327.88369 
L 429.629422 339.721684 
L 430.647742 341.120339 
L 431.666063 341.668522 
L 432.684384 341.29979 
L 434.721026 339.223668 
L 435.739347 339.17643 
L 436.757668 341.273876 
L 437.775989 346.477641 
L 438.79431 355.198337 
L 439.812631 367.020774 
L 441.849272 394.062906 
L 442.867593 405.091237 
L 443.885914 411.883995 
L 444.904235 413.474755 
L 445.922556 410.020827 
L 446.940877 402.712874 
L 448.977519 384.032496 
L 449.99584 376.257158 
L 451.01416 371.037097 
L 452.032481 368.608007 
L 453.050802 368.590348 
L 454.069123 370.232177 
L 457.124086 377.316799 
L 458.142407 378.800193 
L 459.160728 379.639889 
L 460.179049 379.920556 
L 461.197369 379.730268 
L 462.21569 379.116282 
L 463.234011 378.108195 
L 466.288974 374.088613 
L 467.307295 373.376117 
L 468.325616 373.487949 
L 469.343937 374.525707 
L 470.362258 376.361968 
L 473.41722 383.072153 
L 474.435541 384.519015 
L 475.453862 385.304688 
L 476.472183 385.50965 
L 477.490504 385.306585 
L 480.545467 384.132782 
L 481.563787 384.055569 
L 482.582108 384.320432 
L 483.600429 385.000097 
L 484.61875 386.126198 
L 485.637071 387.673139 
L 487.673713 391.609616 
L 489.710355 395.496884 
L 490.728676 396.942489 
L 491.746996 397.878903 
L 492.765317 398.275909 
L 493.783638 398.190425 
L 494.801959 397.740122 
L 496.838601 396.275859 
L 500.911885 392.929876 
L 503.966847 390.307437 
L 504.985168 389.675818 
L 506.003489 389.364717 
L 507.02181 389.488311 
L 508.040131 390.11676 
L 509.058452 391.253674 
L 510.076773 392.825517 
L 514.150056 400.09173 
L 515.168377 401.301378 
L 516.186698 402.115631 
L 517.205019 402.604316 
L 519.241661 403.242728 
L 520.259982 403.791942 
L 521.278303 404.724565 
L 522.296623 406.121307 
L 523.314944 407.959175 
L 527.388228 416.408255 
L 528.406549 417.828957 
L 529.42487 418.792242 
L 530.443191 419.37358 
L 534.516474 420.765842 
L 536.553116 422.11496 
L 538.589758 423.48197 
L 539.608079 423.957237 
L 540.6264 424.260972 
L 544.699683 424.935649 
L 545.718004 425.291969 
L 546.736325 425.788419 
L 547.754646 426.431553 
L 548.772967 427.225386 
L 550.809609 429.248363 
L 552.84625 431.551672 
L 553.864571 432.514184 
L 554.882892 433.094924 
L 555.901213 433.087547 
L 556.919534 432.34181 
L 557.937855 430.828317 
L 558.956176 428.683319 
L 560.992818 423.819903 
L 562.011139 421.935502 
L 563.029459 420.868243 
L 564.04778 420.738238 
L 565.066101 421.456822 
L 566.084422 422.776093 
L 568.121064 425.95648 
L 569.139385 427.299869 
L 570.157706 428.308836 
L 571.176027 429.004062 
L 574.230989 430.501405 
L 575.24931 431.274881 
L 576.267631 432.308295 
L 578.304273 435.023216 
L 583.395877 442.638558 
L 584.414198 443.987454 
L 585.432519 445.140907 
L 586.45084 445.993666 
L 587.469161 446.468666 
L 588.487482 446.565039 
L 591.542445 445.911853 
L 592.560766 446.004412 
L 593.579086 446.446505 
L 594.597407 447.192132 
L 596.634049 448.921287 
L 597.65237 449.492289 
L 598.670691 449.671023 
L 599.689012 449.429493 
L 600.707333 448.83215 
L 602.743975 447.048162 
L 604.780616 445.158988 
L 606.817258 443.574151 
L 607.835579 442.994276 
L 608.8539 442.649869 
L 609.872221 442.638855 
L 610.890542 443.055947 
L 611.908863 443.954739 
L 612.927184 445.305522 
L 615.982146 450.117505 
L 617.000467 450.974236 
L 618.018788 451.048158 
L 619.037109 450.329594 
L 620.05543 449.028192 
L 621.073751 447.542376 
L 622.092072 446.375993 
L 623.110393 446.022143 
L 624.128713 446.839579 
L 625.147034 448.948564 
L 626.165355 452.173544 
L 628.201997 459.959424 
L 629.220318 463.221767 
L 630.238639 465.354154 
L 631.25696 466.167761 
L 632.275281 465.804593 
L 633.293602 464.655688 
L 635.330243 461.902513 
L 636.348564 461.002002 
L 637.366885 460.581148 
L 638.385206 460.542209 
L 640.421848 460.798565 
L 641.440169 460.713109 
L 642.45849 460.362529 
L 644.495131 459.086874 
L 645.513452 458.421015 
L 646.531773 457.915983 
L 647.550094 457.657626 
L 648.568415 457.67811 
L 649.586736 457.965112 
L 650.605057 458.47874 
L 652.641699 459.975011 
L 656.714982 463.445561 
L 657.733303 464.149392 
L 658.751624 464.695827 
L 659.769945 465.050717 
L 660.788266 465.20597 
L 662.824908 465.069582 
L 664.86155 464.905441 
L 665.87987 465.053421 
L 666.898191 465.429698 
L 667.916512 466.024194 
L 671.989796 469.018157 
L 673.008117 469.537252 
L 675.044759 470.188564 
L 680.136363 471.202105 
L 682.173005 471.878049 
L 686.246288 473.385825 
L 690.319572 474.604726 
L 691.337893 474.802107 
L 692.356214 474.79783 
L 693.374535 474.45545 
L 694.392856 473.651129 
L 695.411177 472.319597 
L 696.429497 470.495304 
L 699.48446 464.020286 
L 700.502781 462.421719 
L 701.521102 461.439441 
L 702.539423 461.10906 
L 703.557744 461.351109 
L 704.576065 462.005845 
L 707.631027 464.585357 
L 708.649348 465.208773 
L 710.68599 465.993636 
L 712.722632 466.656997 
L 715.777595 467.834168 
L 716.795915 467.937113 
L 717.814236 467.699781 
L 718.832557 467.075724 
L 719.850878 466.107616 
L 722.905841 462.669293 
L 723.924162 461.953359 
L 724.942483 461.659818 
L 725.960804 461.812981 
L 726.979124 462.383577 
L 727.997445 463.313322 
L 729.015766 464.533416 
L 731.052408 467.543309 
L 733.08905 470.72099 
L 734.107371 472.126495 
L 735.125692 473.290497 
L 736.144013 474.15205 
L 737.162333 474.683628 
L 738.180654 474.892821 
L 739.198975 474.817865 
L 740.217296 474.519548 
L 742.253938 473.553909 
L 744.29058 472.606554 
L 745.308901 472.313977 
L 746.327222 472.224308 
L 747.345542 472.386173 
L 748.363863 472.821589 
L 749.382184 473.506729 
L 752.437147 475.973919 
L 753.455468 476.396688 
L 754.473789 476.389468 
L 755.49211 475.925501 
L 756.510431 475.090353 
L 758.547072 473.117902 
L 759.565393 472.463844 
L 760.583714 472.269312 
L 761.602035 472.575422 
L 762.620356 473.305909 
L 766.69364 477.346083 
L 770.766923 480.674 
L 771.785244 481.842764 
L 773.821886 484.717719 
L 775.858528 487.708891 
L 776.876849 488.957311 
L 777.895169 489.923022 
L 778.91349 490.574999 
L 779.931811 490.934327 
L 780.950132 491.065816 
L 784.005095 491.065366 
L 785.023416 491.252705 
L 786.041737 491.642945 
L 787.060058 492.248906 
L 789.096699 493.96177 
L 792.151662 496.802323 
L 796.224946 500.359162 
L 799.279908 503.206622 
L 801.31655 504.753448 
L 806.408155 507.959783 
L 808.444796 509.02655 
L 810.481438 509.703096 
L 813.536401 510.508999 
L 815.573043 511.402854 
L 816.591364 511.954057 
L 816.591364 511.954057 
" clip-path="url(#paea2accac4)" style="fill: none; stroke: #0000ff; stroke-width: 0.5; stroke-linecap: square"/>
   </g>
   <g id="patch_3">
    <path d="M 47.81 534.04 
L 47.81 48.14925 
" style="fill: none; stroke: #000000; stroke-width: 0.8; stroke-linejoin: miter; stroke-linecap: square"/>
   </g>
   <g id="patch_4">
    <path d="M 853.2 534.04 
L 853.2 48.14925 
" style="fill: none; stroke: #000000; stroke-width: 0.8; stroke-linejoin: miter; stroke-linecap: square"/>
   </g>
   <g id="patch_5">
    <path d="M 47.81 534.04 
L 853.2 534.04 
" style="fill: none; stroke: #000000; stroke-width: 0.8; stroke-linejoin: miter; stroke-linecap: square"/>
   </g>
   <g id="patch_6">
    <path d="M 47.81 48.14925 
L 853.2 48.14925 
" style="fill: none; stroke: #000000; stroke-width: 0.8; stroke-linejoin: miter; stroke-linecap: square"/>
   </g>
   <g id="text_15">
    <!-- EDA Filtering: data_3_E4 -->
    <g transform="translate(389.400313 19.4755) scale(0.1 -0.1)">
     <defs>
      <path id="DejaVuSans-46" d="M 628 4666 
L 3309 4666 
L 3309 4134 
L 1259 4134 
L 1259 2759 
L 3109 2759 
L 3109 2228 
L 1259 2228 
L 1259 0 
L 628 0 
L 628 4666 
z
" transform="scale(0.015625)"/>
      <path id="DejaVuSans-6c" d="M 603 4863 
L 1178 4863 
L 1178 0 
L 603 0 
L 603 4863 
z
" transform="scale(0.015625)"/>
      <path id="DejaVuSans-72" d="M 2631 2963 
Q 2534 3019 2420 3045 
Q 2306 3072 2169 3072 
Q 1681 3072 1420 2755 
Q 1159 2438 1159 1844 
L 1159 0 
L 581 0 
L 581 3500 
L 1159 3500 
L 1159 2956 
Q 1341 3275 1631 3429 
Q 1922 3584 2338 3584 
Q 2397 3584 2469 3576 
Q 2541 3569 2628 3553 
L 2631 2963 
z
" transform="scale(0.015625)"/>
      <path id="DejaVuSans-67" d="M 2906 1791 
Q 2906 2416 2648 2759 
Q 2391 3103 1925 3103 
Q 1463 3103 1205 2759 
Q 947 2416 947 1791 
Q 947 1169 1205 825 
Q 1463 481 1925 481 
Q 2391 481 2648 825 
Q 2906 1169 2906 1791 
z
M 3481 434 
Q 3481 -459 3084 -895 
Q 2688 -1331 1869 -1331 
Q 1566 -1331 1297 -1286 
Q 1028 -1241 775 -1147 
L 775 -588 
Q 1028 -725 1275 -790 
Q 1522 -856 1778 -856 
Q 2344 -856 2625 -561 
Q 2906 -266 2906 331 
L 2906 616 
Q 2728 306 2450 153 
Q 2172 0 1784 0 
Q 1141 0 747 490 
Q 353 981 353 1791 
Q 353 2603 747 3093 
Q 1141 3584 1784 3584 
Q 2172 3584 2450 3431 
Q 2728 3278 2906 2969 
L 2906 3500 
L 3481 3500 
L 3481 434 
z
" transform="scale(0.015625)"/>
      <path id="DejaVuSans-3a" d="M 750 794 
L 1409 794 
L 1409 0 
L 750 0 
L 750 794 
z
M 750 3309 
L 1409 3309 
L 1409 2516 
L 750 2516 
L 750 3309 
z
" transform="scale(0.015625)"/>
      <path id="DejaVuSans-64" d="M 2906 2969 
L 2906 4863 
L 3481 4863 
L 3481 0 
L 2906 0 
L 2906 525 
Q 2725 213 2448 61 
Q 2172 -91 1784 -91 
Q 1150 -91 751 415 
Q 353 922 353 1747 
Q 353 2572 751 3078 
Q 1150 3584 1784 3584 
Q 2172 3584 2448 3432 
Q 2725 3281 2906 2969 
z
M 947 1747 
Q 947 1113 1208 752 
Q 1469 391 1925 391 
Q 2381 391 2643 752 
Q 2906 1113 2906 1747 
Q 2906 2381 2643 2742 
Q 2381 3103 1925 3103 
Q 1469 3103 1208 2742 
Q 947 2381 947 1747 
z
" transform="scale(0.015625)"/>
      <path id="DejaVuSans-61" d="M 2194 1759 
Q 1497 1759 1228 1600 
Q 959 1441 959 1056 
Q 959 750 1161 570 
Q 1363 391 1709 391 
Q 2188 391 2477 730 
Q 2766 1069 2766 1631 
L 2766 1759 
L 2194 1759 
z
M 3341 1997 
L 3341 0 
L 2766 0 
L 2766 531 
Q 2569 213 2275 61 
Q 1981 -91 1556 -91 
Q 1019 -91 701 211 
Q 384 513 384 1019 
Q 384 1609 779 1909 
Q 1175 2209 1959 2209 
L 2766 2209 
L 2766 2266 
Q 2766 2663 2505 2880 
Q 2244 3097 1772 3097 
Q 1472 3097 1187 3025 
Q 903 2953 641 2809 
L 641 3341 
Q 956 3463 1253 3523 
Q 1550 3584 1831 3584 
Q 2591 3584 2966 3190 
Q 3341 2797 3341 1997 
z
" transform="scale(0.015625)"/>
      <path id="DejaVuSans-5f" d="M 3263 -1063 
L 3263 -1509 
L -63 -1509 
L -63 -1063 
L 3263 -1063 
z
" transform="scale(0.015625)"/>
      <path id="DejaVuSans-34" d="M 2419 4116 
L 825 1625 
L 2419 1625 
L 2419 4116 
z
M 2253 4666 
L 3047 4666 
L 3047 1625 
L 3713 1625 
L 3713 1100 
L 3047 1100 
L 3047 0 
L 2419 0 
L 2419 1100 
L 313 1100 
L 313 1709 
L 2253 4666 
z
" transform="scale(0.015625)"/>
     </defs>
     <use xlink:href="#DejaVuSans-45"/>
     <use xlink:href="#DejaVuSans-44" transform="translate(63.183594 0)"/>
     <use xlink:href="#DejaVuSans-41" transform="translate(138.435547 0)"/>
     <use xlink:href="#DejaVuSans-20" transform="translate(206.84375 0)"/>
     <use xlink:href="#DejaVuSans-46" transform="translate(238.630859 0)"/>
     <use xlink:href="#DejaVuSans-69" transform="translate(288.900391 0)"/>
     <use xlink:href="#DejaVuSans-6c" transform="translate(316.683594 0)"/>
     <use xlink:href="#DejaVuSans-74" transform="translate(344.466797 0)"/>
     <use xlink:href="#DejaVuSans-65" transform="translate(383.675781 0)"/>
     <use xlink:href="#DejaVuSans-72" transform="translate(445.199219 0)"/>
     <use xlink:href="#DejaVuSans-69" transform="translate(486.3125 0)"/>
     <use xlink:href="#DejaVuSans-6e" transform="translate(514.095703 0)"/>
     <use xlink:href="#DejaVuSans-67" transform="translate(577.474609 0)"/>
     <use xlink:href="#DejaVuSans-3a" transform="translate(640.951172 0)"/>
     <use xlink:href="#DejaVuSans-20" transform="translate(674.642578 0)"/>
     <use xlink:href="#DejaVuSans-64" transform="translate(706.429688 0)"/>
     <use xlink:href="#DejaVuSans-61" transform="translate(769.90625 0)"/>
     <use xlink:href="#DejaVuSans-74" transform="translate(831.185547 0)"/>
     <use xlink:href="#DejaVuSans-61" transform="translate(870.394531 0)"/>
     <use xlink:href="#DejaVuSans-5f" transform="translate(931.673828 0)"/>
     <use xlink:href="#DejaVuSans-33" transform="translate(981.673828 0)"/>
     <use xlink:href="#DejaVuSans-5f" transform="translate(1045.296875 0)"/>
     <use xlink:href="#DejaVuSans-45" transform="translate(1095.296875 0)"/>
     <use xlink:href="#DejaVuSans-34" transform="translate(1158.480469 0)"/>
    </g>
    <!-- Window=5, Threshold=0.3, Sample=720 (180.0s) -->
    <g transform="translate(325.394844 30.951437) scale(0.1 -0.1)">
     <defs>
      <path id="DejaVuSans-57" d="M 213 4666 
L 850 4666 
L 1831 722 
L 2809 4666 
L 3519 4666 
L 4500 722 
L 5478 4666 
L 6119 4666 
L 4947 0 
L 4153 0 
L 3169 4050 
L 2175 0 
L 1381 0 
L 213 4666 
z
" transform="scale(0.015625)"/>
      <path id="DejaVuSans-6f" d="M 1959 3097 
Q 1497 3097 1228 2736 
Q 959 2375 959 1747 
Q 959 1119 1226 758 
Q 1494 397 1959 397 
Q 2419 397 2687 759 
Q 2956 1122 2956 1747 
Q 2956 2369 2687 2733 
Q 2419 3097 1959 3097 
z
M 1959 3584 
Q 2709 3584 3137 3096 
Q 3566 2609 3566 1747 
Q 3566 888 3137 398 
Q 2709 -91 1959 -91 
Q 1206 -91 779 398 
Q 353 888 353 1747 
Q 353 2609 779 3096 
Q 1206 3584 1959 3584 
z
" transform="scale(0.015625)"/>
      <path id="DejaVuSans-77" d="M 269 3500 
L 844 3500 
L 1563 769 
L 2278 3500 
L 2956 3500 
L 3675 769 
L 4391 3500 
L 4966 3500 
L 4050 0 
L 3372 0 
L 2619 2869 
L 1863 0 
L 1184 0 
L 269 3500 
z
" transform="scale(0.015625)"/>
      <path id="DejaVuSans-3d" d="M 678 2906 
L 4684 2906 
L 4684 2381 
L 678 2381 
L 678 2906 
z
M 678 1631 
L 4684 1631 
L 4684 1100 
L 678 1100 
L 678 1631 
z
" transform="scale(0.015625)"/>
      <path id="DejaVuSans-2c" d="M 750 794 
L 1409 794 
L 1409 256 
L 897 -744 
L 494 -744 
L 750 256 
L 750 794 
z
" transform="scale(0.015625)"/>
      <path id="DejaVuSans-68" d="M 3513 2113 
L 3513 0 
L 2938 0 
L 2938 2094 
Q 2938 2591 2744 2837 
Q 2550 3084 2163 3084 
Q 1697 3084 1428 2787 
Q 1159 2491 1159 1978 
L 1159 0 
L 581 0 
L 581 4863 
L 1159 4863 
L 1159 2956 
Q 1366 3272 1645 3428 
Q 1925 3584 2291 3584 
Q 2894 3584 3203 3211 
Q 3513 2838 3513 2113 
z
" transform="scale(0.015625)"/>
      <path id="DejaVuSans-70" d="M 1159 525 
L 1159 -1331 
L 581 -1331 
L 581 3500 
L 1159 3500 
L 1159 2969 
Q 1341 3281 1617 3432 
Q 1894 3584 2278 3584 
Q 2916 3584 3314 3078 
Q 3713 2572 3713 1747 
Q 3713 922 3314 415 
Q 2916 -91 2278 -91 
Q 1894 -91 1617 61 
Q 1341 213 1159 525 
z
M 3116 1747 
Q 3116 2381 2855 2742 
Q 2594 3103 2138 3103 
Q 1681 3103 1420 2742 
Q 1159 2381 1159 1747 
Q 1159 1113 1420 752 
Q 1681 391 2138 391 
Q 2594 391 2855 752 
Q 3116 1113 3116 1747 
z
" transform="scale(0.015625)"/>
      <path id="DejaVuSans-37" d="M 525 4666 
L 3525 4666 
L 3525 4397 
L 1831 0 
L 1172 0 
L 2766 4134 
L 525 4134 
L 525 4666 
z
" transform="scale(0.015625)"/>
     </defs>
     <use xlink:href="#DejaVuSans-57"/>
     <use xlink:href="#DejaVuSans-69" transform="translate(96.626953 0)"/>
     <use xlink:href="#DejaVuSans-6e" transform="translate(124.410156 0)"/>
     <use xlink:href="#DejaVuSans-64" transform="translate(187.789062 0)"/>
     <use xlink:href="#DejaVuSans-6f" transform="translate(251.265625 0)"/>
     <use xlink:href="#DejaVuSans-77" transform="translate(312.447266 0)"/>
     <use xlink:href="#DejaVuSans-3d" transform="translate(394.234375 0)"/>
     <use xlink:href="#DejaVuSans-35" transform="translate(478.023438 0)"/>
     <use xlink:href="#DejaVuSans-2c" transform="translate(541.646484 0)"/>
     <use xlink:href="#DejaVuSans-20" transform="translate(573.433594 0)"/>
     <use xlink:href="#DejaVuSans-54" transform="translate(605.220703 0)"/>
     <use xlink:href="#DejaVuSans-68" transform="translate(666.304688 0)"/>
     <use xlink:href="#DejaVuSans-72" transform="translate(729.683594 0)"/>
     <use xlink:href="#DejaVuSans-65" transform="translate(768.546875 0)"/>
     <use xlink:href="#DejaVuSans-73" transform="translate(830.070312 0)"/>
     <use xlink:href="#DejaVuSans-68" transform="translate(882.169922 0)"/>
     <use xlink:href="#DejaVuSans-6f" transform="translate(945.548828 0)"/>
     <use xlink:href="#DejaVuSans-6c" transform="translate(1006.730469 0)"/>
     <use xlink:href="#DejaVuSans-64" transform="translate(1034.513672 0)"/>
     <use xlink:href="#DejaVuSans-3d" transform="translate(1097.990234 0)"/>
     <use xlink:href="#DejaVuSans-30" transform="translate(1181.779297 0)"/>
     <use xlink:href="#DejaVuSans-2e" transform="translate(1245.402344 0)"/>
     <use xlink:href="#DejaVuSans-33" transform="translate(1277.189453 0)"/>
     <use xlink:href="#DejaVuSans-2c" transform="translate(1340.8125 0)"/>
     <use xlink:href="#DejaVuSans-20" transform="translate(1372.599609 0)"/>
     <use xlink:href="#DejaVuSans-53" transform="translate(1404.386719 0)"/>
     <use xlink:href="#DejaVuSans-61" transform="translate(1467.863281 0)"/>
     <use xlink:href="#DejaVuSans-6d" transform="translate(1529.142578 0)"/>
     <use xlink:href="#DejaVuSans-70" transform="translate(1626.554688 0)"/>
     <use xlink:href="#DejaVuSans-6c" transform="translate(1690.03125 0)"/>
     <use xlink:href="#DejaVuSans-65" transform="translate(1717.814453 0)"/>
     <use xlink:href="#DejaVuSans-3d" transform="translate(1779.337891 0)"/>
     <use xlink:href="#DejaVuSans-37" transform="translate(1863.126953 0)"/>
     <use xlink:href="#DejaVuSans-32" transform="translate(1926.75 0)"/>
     <use xlink:href="#DejaVuSans-30" transform="translate(1990.373047 0)"/>
     <use xlink:href="#DejaVuSans-20" transform="translate(2053.996094 0)"/>
     <use xlink:href="#DejaVuSans-28" transform="translate(2085.783203 0)"/>
     <use xlink:href="#DejaVuSans-31" transform="translate(2124.796875 0)"/>
     <use xlink:href="#DejaVuSans-38" transform="translate(2188.419922 0)"/>
     <use xlink:href="#DejaVuSans-30" transform="translate(2252.042969 0)"/>
     <use xlink:href="#DejaVuSans-2e" transform="translate(2315.666016 0)"/>
     <use xlink:href="#DejaVuSans-30" transform="translate(2347.453125 0)"/>
     <use xlink:href="#DejaVuSans-73" transform="translate(2411.076172 0)"/>
     <use xlink:href="#DejaVuSans-29" transform="translate(2463.175781 0)"/>
    </g>
    <!-- Remove: Total=0.00%, Thr=0.00%, Med=0.00%, Vel=0.00%, Temp=0.00% -->
    <g transform="translate(262.5175 42.14925) scale(0.1 -0.1)">
     <defs>
      <path id="DejaVuSans-52" d="M 2841 2188 
Q 3044 2119 3236 1894 
Q 3428 1669 3622 1275 
L 4263 0 
L 3584 0 
L 2988 1197 
Q 2756 1666 2539 1819 
Q 2322 1972 1947 1972 
L 1259 1972 
L 1259 0 
L 628 0 
L 628 4666 
L 2053 4666 
Q 2853 4666 3247 4331 
Q 3641 3997 3641 3322 
Q 3641 2881 3436 2590 
Q 3231 2300 2841 2188 
z
M 1259 4147 
L 1259 2491 
L 2053 2491 
Q 2509 2491 2742 2702 
Q 2975 2913 2975 3322 
Q 2975 3731 2742 3939 
Q 2509 4147 2053 4147 
L 1259 4147 
z
" transform="scale(0.015625)"/>
      <path id="DejaVuSans-76" d="M 191 3500 
L 800 3500 
L 1894 563 
L 2988 3500 
L 3597 3500 
L 2284 0 
L 1503 0 
L 191 3500 
z
" transform="scale(0.015625)"/>
      <path id="DejaVuSans-25" d="M 4653 2053 
Q 4381 2053 4226 1822 
Q 4072 1591 4072 1178 
Q 4072 772 4226 539 
Q 4381 306 4653 306 
Q 4919 306 5073 539 
Q 5228 772 5228 1178 
Q 5228 1588 5073 1820 
Q 4919 2053 4653 2053 
z
M 4653 2450 
Q 5147 2450 5437 2106 
Q 5728 1763 5728 1178 
Q 5728 594 5436 251 
Q 5144 -91 4653 -91 
Q 4153 -91 3862 251 
Q 3572 594 3572 1178 
Q 3572 1766 3864 2108 
Q 4156 2450 4653 2450 
z
M 1428 4353 
Q 1159 4353 1004 4120 
Q 850 3888 850 3481 
Q 850 3069 1003 2837 
Q 1156 2606 1428 2606 
Q 1700 2606 1854 2837 
Q 2009 3069 2009 3481 
Q 2009 3884 1853 4118 
Q 1697 4353 1428 4353 
z
M 4250 4750 
L 4750 4750 
L 1831 -91 
L 1331 -91 
L 4250 4750 
z
M 1428 4750 
Q 1922 4750 2215 4408 
Q 2509 4066 2509 3481 
Q 2509 2891 2217 2550 
Q 1925 2209 1428 2209 
Q 931 2209 642 2551 
Q 353 2894 353 3481 
Q 353 4063 643 4406 
Q 934 4750 1428 4750 
z
" transform="scale(0.015625)"/>
      <path id="DejaVuSans-4d" d="M 628 4666 
L 1569 4666 
L 2759 1491 
L 3956 4666 
L 4897 4666 
L 4897 0 
L 4281 0 
L 4281 4097 
L 3078 897 
L 2444 897 
L 1241 4097 
L 1241 0 
L 628 0 
L 628 4666 
z
" transform="scale(0.015625)"/>
      <path id="DejaVuSans-56" d="M 1831 0 
L 50 4666 
L 709 4666 
L 2188 738 
L 3669 4666 
L 4325 4666 
L 2547 0 
L 1831 0 
z
" transform="scale(0.015625)"/>
     </defs>
     <use xlink:href="#DejaVuSans-52"/>
     <use xlink:href="#DejaVuSans-65" transform="translate(64.982422 0)"/>
     <use xlink:href="#DejaVuSans-6d" transform="translate(126.505859 0)"/>
     <use xlink:href="#DejaVuSans-6f" transform="translate(223.917969 0)"/>
     <use xlink:href="#DejaVuSans-76" transform="translate(285.099609 0)"/>
     <use xlink:href="#DejaVuSans-65" transform="translate(344.279297 0)"/>
     <use xlink:href="#DejaVuSans-3a" transform="translate(405.802734 0)"/>
     <use xlink:href="#DejaVuSans-20" transform="translate(439.494141 0)"/>
     <use xlink:href="#DejaVuSans-54" transform="translate(471.28125 0)"/>
     <use xlink:href="#DejaVuSans-6f" transform="translate(515.365234 0)"/>
     <use xlink:href="#DejaVuSans-74" transform="translate(576.546875 0)"/>
     <use xlink:href="#DejaVuSans-61" transform="translate(615.755859 0)"/>
     <use xlink:href="#DejaVuSans-6c" transform="translate(677.035156 0)"/>
     <use xlink:href="#DejaVuSans-3d" transform="translate(704.818359 0)"/>
     <use xlink:href="#DejaVuSans-30" transform="translate(788.607422 0)"/>
     <use xlink:href="#DejaVuSans-2e" transform="translate(852.230469 0)"/>
     <use xlink:href="#DejaVuSans-30" transform="translate(884.017578 0)"/>
     <use xlink:href="#DejaVuSans-30" transform="translate(947.640625 0)"/>
     <use xlink:href="#DejaVuSans-25" transform="translate(1011.263672 0)"/>
     <use xlink:href="#DejaVuSans-2c" transform="translate(1106.283203 0)"/>
     <use xlink:href="#DejaVuSans-20" transform="translate(1138.070312 0)"/>
     <use xlink:href="#DejaVuSans-54" transform="translate(1169.857422 0)"/>
     <use xlink:href="#DejaVuSans-68" transform="translate(1230.941406 0)"/>
     <use xlink:href="#DejaVuSans-72" transform="translate(1294.320312 0)"/>
     <use xlink:href="#DejaVuSans-3d" transform="translate(1335.433594 0)"/>
     <use xlink:href="#DejaVuSans-30" transform="translate(1419.222656 0)"/>
     <use xlink:href="#DejaVuSans-2e" transform="translate(1482.845703 0)"/>
     <use xlink:href="#DejaVuSans-30" transform="translate(1514.632812 0)"/>
     <use xlink:href="#DejaVuSans-30" transform="translate(1578.255859 0)"/>
     <use xlink:href="#DejaVuSans-25" transform="translate(1641.878906 0)"/>
     <use xlink:href="#DejaVuSans-2c" transform="translate(1736.898438 0)"/>
     <use xlink:href="#DejaVuSans-20" transform="translate(1768.685547 0)"/>
     <use xlink:href="#DejaVuSans-4d" transform="translate(1800.472656 0)"/>
     <use xlink:href="#DejaVuSans-65" transform="translate(1886.751953 0)"/>
     <use xlink:href="#DejaVuSans-64" transform="translate(1948.275391 0)"/>
     <use xlink:href="#DejaVuSans-3d" transform="translate(2011.751953 0)"/>
     <use xlink:href="#DejaVuSans-30" transform="translate(2095.541016 0)"/>
     <use xlink:href="#DejaVuSans-2e" transform="translate(2159.164062 0)"/>
     <use xlink:href="#DejaVuSans-30" transform="translate(2190.951172 0)"/>
     <use xlink:href="#DejaVuSans-30" transform="translate(2254.574219 0)"/>
     <use xlink:href="#DejaVuSans-25" transform="translate(2318.197266 0)"/>
     <use xlink:href="#DejaVuSans-2c" transform="translate(2413.216797 0)"/>
     <use xlink:href="#DejaVuSans-20" transform="translate(2445.003906 0)"/>
     <use xlink:href="#DejaVuSans-56" transform="translate(2476.791016 0)"/>
     <use xlink:href="#DejaVuSans-65" transform="translate(2537.449219 0)"/>
     <use xlink:href="#DejaVuSans-6c" transform="translate(2598.972656 0)"/>
     <use xlink:href="#DejaVuSans-3d" transform="translate(2626.755859 0)"/>
     <use xlink:href="#DejaVuSans-30" transform="translate(2710.544922 0)"/>
     <use xlink:href="#DejaVuSans-2e" transform="translate(2774.167969 0)"/>
     <use xlink:href="#DejaVuSans-30" transform="translate(2805.955078 0)"/>
     <use xlink:href="#DejaVuSans-30" transform="translate(2869.578125 0)"/>
     <use xlink:href="#DejaVuSans-25" transform="translate(2933.201172 0)"/>
     <use xlink:href="#DejaVuSans-2c" transform="translate(3028.220703 0)"/>
     <use xlink:href="#DejaVuSans-20" transform="translate(3060.007812 0)"/>
     <use xlink:href="#DejaVuSans-54" transform="translate(3091.794922 0)"/>
     <use xlink:href="#DejaVuSans-65" transform="translate(3135.878906 0)"/>
     <use xlink:href="#DejaVuSans-6d" transform="translate(3197.402344 0)"/>
     <use xlink:href="#DejaVuSans-70" transform="translate(3294.814453 0)"/>
     <use xlink:href="#DejaVuSans-3d" transform="translate(3358.291016 0)"/>
     <use xlink:href="#DejaVuSans-30" transform="translate(3442.080078 0)"/>
     <use xlink:href="#DejaVuSans-2e" transform="translate(3505.703125 0)"/>
     <use xlink:href="#DejaVuSans-30" transform="translate(3537.490234 0)"/>
     <use xlink:href="#DejaVuSans-30" transform="translate(3601.113281 0)"/>
     <use xlink:href="#DejaVuSans-25" transform="translate(3664.736328 0)"/>
    </g>
   </g>
   <g id="legend_1">
    <g id="patch_7">
     <path d="M 791.720313 70.827375 
L 846.2 70.827375 
Q 848.2 70.827375 848.2 68.827375 
L 848.2 55.14925 
Q 848.2 53.14925 846.2 53.14925 
L 791.720313 53.14925 
Q 789.720313 53.14925 789.720313 55.14925 
L 789.720313 68.827375 
Q 789.720313 70.827375 791.720313 70.827375 
z
" style="fill: #ffffff; opacity: 0.8; stroke: #cccccc; stroke-linejoin: miter"/>
    </g>
    <g id="line2d_26">
     <path d="M 793.720313 61.247687 
L 803.720313 61.247687 
L 813.720313 61.247687 
" style="fill: none; stroke: #0000ff; stroke-width: 0.5; stroke-linecap: square"/>
    </g>
    <g id="text_16">
     <!-- Kept -->
     <g transform="translate(821.720313 64.747687) scale(0.1 -0.1)">
      <defs>
       <path id="DejaVuSans-4b" d="M 628 4666 
L 1259 4666 
L 1259 2694 
L 3353 4666 
L 4166 4666 
L 1850 2491 
L 4331 0 
L 3500 0 
L 1259 2247 
L 1259 0 
L 628 0 
L 628 4666 
z
" transform="scale(0.015625)"/>
      </defs>
      <use xlink:href="#DejaVuSans-4b"/>
      <use xlink:href="#DejaVuSans-65" transform="translate(60.576172 0)"/>
      <use xlink:href="#DejaVuSans-70" transform="translate(122.099609 0)"/>
      <use xlink:href="#DejaVuSans-74" transform="translate(185.576172 0)"/>
     </g>
    </g>
   </g>
  </g>
 </g>
 <defs>
  <clipPath id="paea2accac4">
   <rect x="47.81" y="48.14925" width="805.39" height="485.89075"/>
  </clipPath>
 </defs>
</svg>
