<?xml version="1.0" encoding="utf-8" standalone="no"?>
<!DOCTYPE svg PUBLIC "-//W3C//DTD SVG 1.1//EN"
  "http://www.w3.org/Graphics/SVG/1.1/DTD/svg11.dtd">
<svg xmlns:xlink="http://www.w3.org/1999/xlink" width="864pt" height="576pt" viewBox="0 0 864 576" xmlns="http://www.w3.org/2000/svg" version="1.1">
 <metadata>
  <rdf:RDF xmlns:dc="http://purl.org/dc/elements/1.1/" xmlns:cc="http://creativecommons.org/ns#" xmlns:rdf="http://www.w3.org/1999/02/22-rdf-syntax-ns#">
   <cc:Work>
    <dc:type rdf:resource="http://purl.org/dc/dcmitype/StillImage"/>
    <dc:date>2025-10-09T19:22:06.407065</dc:date>
    <dc:format>image/svg+xml</dc:format>
    <dc:creator>
     <cc:Agent>
      <dc:title>Matplotlib v3.10.0, https://matplotlib.org/</dc:title>
     </cc:Agent>
    </dc:creator>
   </cc:Work>
  </rdf:RDF>
 </metadata>
 <defs>
  <style type="text/css">*{stroke-linejoin: round; stroke-linecap: butt}</style>
 </defs>
 <g id="figure_1">
  <g id="patch_1">
   <path d="M 0 576 
L 864 576 
L 864 0 
L 0 0 
z
" style="fill: #ffffff"/>
  </g>
  <g id="axes_1">
   <g id="patch_2">
    <path d="M 47.81 534.04 
L 853.2 534.04 
L 853.2 48.14925 
L 47.81 48.14925 
z
" style="fill: #ffffff"/>
   </g>
   <g id="matplotlib.axis_1">
    <g id="xtick_1">
     <g id="line2d_1">
      <path d="M 84.418636 534.04 
L 84.418636 48.14925 
" clip-path="url(#p3dd6358d52)" style="fill: none; stroke: #b0b0b0; stroke-opacity: 0.3; stroke-width: 0.8; stroke-linecap: square"/>
     </g>
     <g id="line2d_2">
      <defs>
       <path id="m69977065fc" d="M 0 0 
L 0 3.5 
" style="stroke: #000000; stroke-width: 0.8"/>
      </defs>
      <g>
       <use xlink:href="#m69977065fc" x="84.418636" y="534.04" style="stroke: #000000; stroke-width: 0.8"/>
      </g>
     </g>
     <g id="text_1">
      <!-- 0 -->
      <g transform="translate(81.237386 548.638438) scale(0.1 -0.1)">
       <defs>
        <path id="DejaVuSans-30" d="M 2034 4250 
Q 1547 4250 1301 3770 
Q 1056 3291 1056 2328 
Q 1056 1369 1301 889 
Q 1547 409 2034 409 
Q 2525 409 2770 889 
Q 3016 1369 3016 2328 
Q 3016 3291 2770 3770 
Q 2525 4250 2034 4250 
z
M 2034 4750 
Q 2819 4750 3233 4129 
Q 3647 3509 3647 2328 
Q 3647 1150 3233 529 
Q 2819 -91 2034 -91 
Q 1250 -91 836 529 
Q 422 1150 422 2328 
Q 422 3509 836 4129 
Q 1250 4750 2034 4750 
z
" transform="scale(0.015625)"/>
       </defs>
       <use xlink:href="#DejaVuSans-30"/>
      </g>
     </g>
    </g>
    <g id="xtick_2">
     <g id="line2d_3">
      <path d="M 230.853182 534.04 
L 230.853182 48.14925 
" clip-path="url(#p3dd6358d52)" style="fill: none; stroke: #b0b0b0; stroke-opacity: 0.3; stroke-width: 0.8; stroke-linecap: square"/>
     </g>
     <g id="line2d_4">
      <g>
       <use xlink:href="#m69977065fc" x="230.853182" y="534.04" style="stroke: #000000; stroke-width: 0.8"/>
      </g>
     </g>
     <g id="text_2">
      <!-- 1 -->
      <g transform="translate(227.671932 548.638438) scale(0.1 -0.1)">
       <defs>
        <path id="DejaVuSans-31" d="M 794 531 
L 1825 531 
L 1825 4091 
L 703 3866 
L 703 4441 
L 1819 4666 
L 2450 4666 
L 2450 531 
L 3481 531 
L 3481 0 
L 794 0 
L 794 531 
z
" transform="scale(0.015625)"/>
       </defs>
       <use xlink:href="#DejaVuSans-31"/>
      </g>
     </g>
    </g>
    <g id="xtick_3">
     <g id="line2d_5">
      <path d="M 377.287727 534.04 
L 377.287727 48.14925 
" clip-path="url(#p3dd6358d52)" style="fill: none; stroke: #b0b0b0; stroke-opacity: 0.3; stroke-width: 0.8; stroke-linecap: square"/>
     </g>
     <g id="line2d_6">
      <g>
       <use xlink:href="#m69977065fc" x="377.287727" y="534.04" style="stroke: #000000; stroke-width: 0.8"/>
      </g>
     </g>
     <g id="text_3">
      <!-- 2 -->
      <g transform="translate(374.106477 548.638438) scale(0.1 -0.1)">
       <defs>
        <path id="DejaVuSans-32" d="M 1228 531 
L 3431 531 
L 3431 0 
L 469 0 
L 469 531 
Q 828 903 1448 1529 
Q 2069 2156 2228 2338 
Q 2531 2678 2651 2914 
Q 2772 3150 2772 3378 
Q 2772 3750 2511 3984 
Q 2250 4219 1831 4219 
Q 1534 4219 1204 4116 
Q 875 4013 500 3803 
L 500 4441 
Q 881 4594 1212 4672 
Q 1544 4750 1819 4750 
Q 2544 4750 2975 4387 
Q 3406 4025 3406 3419 
Q 3406 3131 3298 2873 
Q 3191 2616 2906 2266 
Q 2828 2175 2409 1742 
Q 1991 1309 1228 531 
z
" transform="scale(0.015625)"/>
       </defs>
       <use xlink:href="#DejaVuSans-32"/>
      </g>
     </g>
    </g>
    <g id="xtick_4">
     <g id="line2d_7">
      <path d="M 523.722273 534.04 
L 523.722273 48.14925 
" clip-path="url(#p3dd6358d52)" style="fill: none; stroke: #b0b0b0; stroke-opacity: 0.3; stroke-width: 0.8; stroke-linecap: square"/>
     </g>
     <g id="line2d_8">
      <g>
       <use xlink:href="#m69977065fc" x="523.722273" y="534.04" style="stroke: #000000; stroke-width: 0.8"/>
      </g>
     </g>
     <g id="text_4">
      <!-- 3 -->
      <g transform="translate(520.541023 548.638438) scale(0.1 -0.1)">
       <defs>
        <path id="DejaVuSans-33" d="M 2597 2516 
Q 3050 2419 3304 2112 
Q 3559 1806 3559 1356 
Q 3559 666 3084 287 
Q 2609 -91 1734 -91 
Q 1441 -91 1130 -33 
Q 819 25 488 141 
L 488 750 
Q 750 597 1062 519 
Q 1375 441 1716 441 
Q 2309 441 2620 675 
Q 2931 909 2931 1356 
Q 2931 1769 2642 2001 
Q 2353 2234 1838 2234 
L 1294 2234 
L 1294 2753 
L 1863 2753 
Q 2328 2753 2575 2939 
Q 2822 3125 2822 3475 
Q 2822 3834 2567 4026 
Q 2313 4219 1838 4219 
Q 1578 4219 1281 4162 
Q 984 4106 628 3988 
L 628 4550 
Q 988 4650 1302 4700 
Q 1616 4750 1894 4750 
Q 2613 4750 3031 4423 
Q 3450 4097 3450 3541 
Q 3450 3153 3228 2886 
Q 3006 2619 2597 2516 
z
" transform="scale(0.015625)"/>
       </defs>
       <use xlink:href="#DejaVuSans-33"/>
      </g>
     </g>
    </g>
    <g id="xtick_5">
     <g id="line2d_9">
      <path d="M 670.156818 534.04 
L 670.156818 48.14925 
" clip-path="url(#p3dd6358d52)" style="fill: none; stroke: #b0b0b0; stroke-opacity: 0.3; stroke-width: 0.8; stroke-linecap: square"/>
     </g>
     <g id="line2d_10">
      <g>
       <use xlink:href="#m69977065fc" x="670.156818" y="534.04" style="stroke: #000000; stroke-width: 0.8"/>
      </g>
     </g>
     <g id="text_5">
      <!-- 4 -->
      <g transform="translate(666.975568 548.638438) scale(0.1 -0.1)">
       <defs>
        <path id="DejaVuSans-34" d="M 2419 4116 
L 825 1625 
L 2419 1625 
L 2419 4116 
z
M 2253 4666 
L 3047 4666 
L 3047 1625 
L 3713 1625 
L 3713 1100 
L 3047 1100 
L 3047 0 
L 2419 0 
L 2419 1100 
L 313 1100 
L 313 1709 
L 2253 4666 
z
" transform="scale(0.015625)"/>
       </defs>
       <use xlink:href="#DejaVuSans-34"/>
      </g>
     </g>
    </g>
    <g id="xtick_6">
     <g id="line2d_11">
      <path d="M 816.591364 534.04 
L 816.591364 48.14925 
" clip-path="url(#p3dd6358d52)" style="fill: none; stroke: #b0b0b0; stroke-opacity: 0.3; stroke-width: 0.8; stroke-linecap: square"/>
     </g>
     <g id="line2d_12">
      <g>
       <use xlink:href="#m69977065fc" x="816.591364" y="534.04" style="stroke: #000000; stroke-width: 0.8"/>
      </g>
     </g>
     <g id="text_6">
      <!-- 5 -->
      <g transform="translate(813.410114 548.638438) scale(0.1 -0.1)">
       <defs>
        <path id="DejaVuSans-35" d="M 691 4666 
L 3169 4666 
L 3169 4134 
L 1269 4134 
L 1269 2991 
Q 1406 3038 1543 3061 
Q 1681 3084 1819 3084 
Q 2600 3084 3056 2656 
Q 3513 2228 3513 1497 
Q 3513 744 3044 326 
Q 2575 -91 1722 -91 
Q 1428 -91 1123 -41 
Q 819 9 494 109 
L 494 744 
Q 775 591 1075 516 
Q 1375 441 1709 441 
Q 2250 441 2565 725 
Q 2881 1009 2881 1497 
Q 2881 1984 2565 2268 
Q 2250 2553 1709 2553 
Q 1456 2553 1204 2497 
Q 953 2441 691 2322 
L 691 4666 
z
" transform="scale(0.015625)"/>
       </defs>
       <use xlink:href="#DejaVuSans-35"/>
      </g>
     </g>
    </g>
    <g id="text_7">
     <!-- Time (minutes) -->
     <g transform="translate(412.5425 562.316563) scale(0.1 -0.1)">
      <defs>
       <path id="DejaVuSans-54" d="M -19 4666 
L 3928 4666 
L 3928 4134 
L 2272 4134 
L 2272 0 
L 1638 0 
L 1638 4134 
L -19 4134 
L -19 4666 
z
" transform="scale(0.015625)"/>
       <path id="DejaVuSans-69" d="M 603 3500 
L 1178 3500 
L 1178 0 
L 603 0 
L 603 3500 
z
M 603 4863 
L 1178 4863 
L 1178 4134 
L 603 4134 
L 603 4863 
z
" transform="scale(0.015625)"/>
       <path id="DejaVuSans-6d" d="M 3328 2828 
Q 3544 3216 3844 3400 
Q 4144 3584 4550 3584 
Q 5097 3584 5394 3201 
Q 5691 2819 5691 2113 
L 5691 0 
L 5113 0 
L 5113 2094 
Q 5113 2597 4934 2840 
Q 4756 3084 4391 3084 
Q 3944 3084 3684 2787 
Q 3425 2491 3425 1978 
L 3425 0 
L 2847 0 
L 2847 2094 
Q 2847 2600 2669 2842 
Q 2491 3084 2119 3084 
Q 1678 3084 1418 2786 
Q 1159 2488 1159 1978 
L 1159 0 
L 581 0 
L 581 3500 
L 1159 3500 
L 1159 2956 
Q 1356 3278 1631 3431 
Q 1906 3584 2284 3584 
Q 2666 3584 2933 3390 
Q 3200 3197 3328 2828 
z
" transform="scale(0.015625)"/>
       <path id="DejaVuSans-65" d="M 3597 1894 
L 3597 1613 
L 953 1613 
Q 991 1019 1311 708 
Q 1631 397 2203 397 
Q 2534 397 2845 478 
Q 3156 559 3463 722 
L 3463 178 
Q 3153 47 2828 -22 
Q 2503 -91 2169 -91 
Q 1331 -91 842 396 
Q 353 884 353 1716 
Q 353 2575 817 3079 
Q 1281 3584 2069 3584 
Q 2775 3584 3186 3129 
Q 3597 2675 3597 1894 
z
M 3022 2063 
Q 3016 2534 2758 2815 
Q 2500 3097 2075 3097 
Q 1594 3097 1305 2825 
Q 1016 2553 972 2059 
L 3022 2063 
z
" transform="scale(0.015625)"/>
       <path id="DejaVuSans-20" transform="scale(0.015625)"/>
       <path id="DejaVuSans-28" d="M 1984 4856 
Q 1566 4138 1362 3434 
Q 1159 2731 1159 2009 
Q 1159 1288 1364 580 
Q 1569 -128 1984 -844 
L 1484 -844 
Q 1016 -109 783 600 
Q 550 1309 550 2009 
Q 550 2706 781 3412 
Q 1013 4119 1484 4856 
L 1984 4856 
z
" transform="scale(0.015625)"/>
       <path id="DejaVuSans-6e" d="M 3513 2113 
L 3513 0 
L 2938 0 
L 2938 2094 
Q 2938 2591 2744 2837 
Q 2550 3084 2163 3084 
Q 1697 3084 1428 2787 
Q 1159 2491 1159 1978 
L 1159 0 
L 581 0 
L 581 3500 
L 1159 3500 
L 1159 2956 
Q 1366 3272 1645 3428 
Q 1925 3584 2291 3584 
Q 2894 3584 3203 3211 
Q 3513 2838 3513 2113 
z
" transform="scale(0.015625)"/>
       <path id="DejaVuSans-75" d="M 544 1381 
L 544 3500 
L 1119 3500 
L 1119 1403 
Q 1119 906 1312 657 
Q 1506 409 1894 409 
Q 2359 409 2629 706 
Q 2900 1003 2900 1516 
L 2900 3500 
L 3475 3500 
L 3475 0 
L 2900 0 
L 2900 538 
Q 2691 219 2414 64 
Q 2138 -91 1772 -91 
Q 1169 -91 856 284 
Q 544 659 544 1381 
z
M 1991 3584 
L 1991 3584 
z
" transform="scale(0.015625)"/>
       <path id="DejaVuSans-74" d="M 1172 4494 
L 1172 3500 
L 2356 3500 
L 2356 3053 
L 1172 3053 
L 1172 1153 
Q 1172 725 1289 603 
Q 1406 481 1766 481 
L 2356 481 
L 2356 0 
L 1766 0 
Q 1100 0 847 248 
Q 594 497 594 1153 
L 594 3053 
L 172 3053 
L 172 3500 
L 594 3500 
L 594 4494 
L 1172 4494 
z
" transform="scale(0.015625)"/>
       <path id="DejaVuSans-73" d="M 2834 3397 
L 2834 2853 
Q 2591 2978 2328 3040 
Q 2066 3103 1784 3103 
Q 1356 3103 1142 2972 
Q 928 2841 928 2578 
Q 928 2378 1081 2264 
Q 1234 2150 1697 2047 
L 1894 2003 
Q 2506 1872 2764 1633 
Q 3022 1394 3022 966 
Q 3022 478 2636 193 
Q 2250 -91 1575 -91 
Q 1294 -91 989 -36 
Q 684 19 347 128 
L 347 722 
Q 666 556 975 473 
Q 1284 391 1588 391 
Q 1994 391 2212 530 
Q 2431 669 2431 922 
Q 2431 1156 2273 1281 
Q 2116 1406 1581 1522 
L 1381 1569 
Q 847 1681 609 1914 
Q 372 2147 372 2553 
Q 372 3047 722 3315 
Q 1072 3584 1716 3584 
Q 2034 3584 2315 3537 
Q 2597 3491 2834 3397 
z
" transform="scale(0.015625)"/>
       <path id="DejaVuSans-29" d="M 513 4856 
L 1013 4856 
Q 1481 4119 1714 3412 
Q 1947 2706 1947 2009 
Q 1947 1309 1714 600 
Q 1481 -109 1013 -844 
L 513 -844 
Q 928 -128 1133 580 
Q 1338 1288 1338 2009 
Q 1338 2731 1133 3434 
Q 928 4138 513 4856 
z
" transform="scale(0.015625)"/>
      </defs>
      <use xlink:href="#DejaVuSans-54"/>
      <use xlink:href="#DejaVuSans-69" transform="translate(57.958984 0)"/>
      <use xlink:href="#DejaVuSans-6d" transform="translate(85.742188 0)"/>
      <use xlink:href="#DejaVuSans-65" transform="translate(183.154297 0)"/>
      <use xlink:href="#DejaVuSans-20" transform="translate(244.677734 0)"/>
      <use xlink:href="#DejaVuSans-28" transform="translate(276.464844 0)"/>
      <use xlink:href="#DejaVuSans-6d" transform="translate(315.478516 0)"/>
      <use xlink:href="#DejaVuSans-69" transform="translate(412.890625 0)"/>
      <use xlink:href="#DejaVuSans-6e" transform="translate(440.673828 0)"/>
      <use xlink:href="#DejaVuSans-75" transform="translate(504.052734 0)"/>
      <use xlink:href="#DejaVuSans-74" transform="translate(567.431641 0)"/>
      <use xlink:href="#DejaVuSans-65" transform="translate(606.640625 0)"/>
      <use xlink:href="#DejaVuSans-73" transform="translate(668.164062 0)"/>
      <use xlink:href="#DejaVuSans-29" transform="translate(720.263672 0)"/>
     </g>
    </g>
   </g>
   <g id="matplotlib.axis_2">
    <g id="ytick_1">
     <g id="line2d_13">
      <path d="M 47.81 523.683827 
L 853.2 523.683827 
" clip-path="url(#p3dd6358d52)" style="fill: none; stroke: #b0b0b0; stroke-opacity: 0.3; stroke-width: 0.8; stroke-linecap: square"/>
     </g>
     <g id="line2d_14">
      <defs>
       <path id="m0117901b2d" d="M 0 0 
L -3.5 0 
" style="stroke: #000000; stroke-width: 0.8"/>
      </defs>
      <g>
       <use xlink:href="#m0117901b2d" x="47.81" y="523.683827" style="stroke: #000000; stroke-width: 0.8"/>
      </g>
     </g>
     <g id="text_8">
      <!-- 3.5 -->
      <g transform="translate(24.906875 527.483046) scale(0.1 -0.1)">
       <defs>
        <path id="DejaVuSans-2e" d="M 684 794 
L 1344 794 
L 1344 0 
L 684 0 
L 684 794 
z
" transform="scale(0.015625)"/>
       </defs>
       <use xlink:href="#DejaVuSans-33"/>
       <use xlink:href="#DejaVuSans-2e" transform="translate(63.623047 0)"/>
       <use xlink:href="#DejaVuSans-35" transform="translate(95.410156 0)"/>
      </g>
     </g>
    </g>
    <g id="ytick_2">
     <g id="line2d_15">
      <path d="M 47.81 464.347909 
L 853.2 464.347909 
" clip-path="url(#p3dd6358d52)" style="fill: none; stroke: #b0b0b0; stroke-opacity: 0.3; stroke-width: 0.8; stroke-linecap: square"/>
     </g>
     <g id="line2d_16">
      <g>
       <use xlink:href="#m0117901b2d" x="47.81" y="464.347909" style="stroke: #000000; stroke-width: 0.8"/>
      </g>
     </g>
     <g id="text_9">
      <!-- 4.0 -->
      <g transform="translate(24.906875 468.147127) scale(0.1 -0.1)">
       <use xlink:href="#DejaVuSans-34"/>
       <use xlink:href="#DejaVuSans-2e" transform="translate(63.623047 0)"/>
       <use xlink:href="#DejaVuSans-30" transform="translate(95.410156 0)"/>
      </g>
     </g>
    </g>
    <g id="ytick_3">
     <g id="line2d_17">
      <path d="M 47.81 405.01199 
L 853.2 405.01199 
" clip-path="url(#p3dd6358d52)" style="fill: none; stroke: #b0b0b0; stroke-opacity: 0.3; stroke-width: 0.8; stroke-linecap: square"/>
     </g>
     <g id="line2d_18">
      <g>
       <use xlink:href="#m0117901b2d" x="47.81" y="405.01199" style="stroke: #000000; stroke-width: 0.8"/>
      </g>
     </g>
     <g id="text_10">
      <!-- 4.5 -->
      <g transform="translate(24.906875 408.811209) scale(0.1 -0.1)">
       <use xlink:href="#DejaVuSans-34"/>
       <use xlink:href="#DejaVuSans-2e" transform="translate(63.623047 0)"/>
       <use xlink:href="#DejaVuSans-35" transform="translate(95.410156 0)"/>
      </g>
     </g>
    </g>
    <g id="ytick_4">
     <g id="line2d_19">
      <path d="M 47.81 345.676071 
L 853.2 345.676071 
" clip-path="url(#p3dd6358d52)" style="fill: none; stroke: #b0b0b0; stroke-opacity: 0.3; stroke-width: 0.8; stroke-linecap: square"/>
     </g>
     <g id="line2d_20">
      <g>
       <use xlink:href="#m0117901b2d" x="47.81" y="345.676071" style="stroke: #000000; stroke-width: 0.8"/>
      </g>
     </g>
     <g id="text_11">
      <!-- 5.0 -->
      <g transform="translate(24.906875 349.47529) scale(0.1 -0.1)">
       <use xlink:href="#DejaVuSans-35"/>
       <use xlink:href="#DejaVuSans-2e" transform="translate(63.623047 0)"/>
       <use xlink:href="#DejaVuSans-30" transform="translate(95.410156 0)"/>
      </g>
     </g>
    </g>
    <g id="ytick_5">
     <g id="line2d_21">
      <path d="M 47.81 286.340153 
L 853.2 286.340153 
" clip-path="url(#p3dd6358d52)" style="fill: none; stroke: #b0b0b0; stroke-opacity: 0.3; stroke-width: 0.8; stroke-linecap: square"/>
     </g>
     <g id="line2d_22">
      <g>
       <use xlink:href="#m0117901b2d" x="47.81" y="286.340153" style="stroke: #000000; stroke-width: 0.8"/>
      </g>
     </g>
     <g id="text_12">
      <!-- 5.5 -->
      <g transform="translate(24.906875 290.139371) scale(0.1 -0.1)">
       <use xlink:href="#DejaVuSans-35"/>
       <use xlink:href="#DejaVuSans-2e" transform="translate(63.623047 0)"/>
       <use xlink:href="#DejaVuSans-35" transform="translate(95.410156 0)"/>
      </g>
     </g>
    </g>
    <g id="ytick_6">
     <g id="line2d_23">
      <path d="M 47.81 227.004234 
L 853.2 227.004234 
" clip-path="url(#p3dd6358d52)" style="fill: none; stroke: #b0b0b0; stroke-opacity: 0.3; stroke-width: 0.8; stroke-linecap: square"/>
     </g>
     <g id="line2d_24">
      <g>
       <use xlink:href="#m0117901b2d" x="47.81" y="227.004234" style="stroke: #000000; stroke-width: 0.8"/>
      </g>
     </g>
     <g id="text_13">
      <!-- 6.0 -->
      <g transform="translate(24.906875 230.803453) scale(0.1 -0.1)">
       <defs>
        <path id="DejaVuSans-36" d="M 2113 2584 
Q 1688 2584 1439 2293 
Q 1191 2003 1191 1497 
Q 1191 994 1439 701 
Q 1688 409 2113 409 
Q 2538 409 2786 701 
Q 3034 994 3034 1497 
Q 3034 2003 2786 2293 
Q 2538 2584 2113 2584 
z
M 3366 4563 
L 3366 3988 
Q 3128 4100 2886 4159 
Q 2644 4219 2406 4219 
Q 1781 4219 1451 3797 
Q 1122 3375 1075 2522 
Q 1259 2794 1537 2939 
Q 1816 3084 2150 3084 
Q 2853 3084 3261 2657 
Q 3669 2231 3669 1497 
Q 3669 778 3244 343 
Q 2819 -91 2113 -91 
Q 1303 -91 875 529 
Q 447 1150 447 2328 
Q 447 3434 972 4092 
Q 1497 4750 2381 4750 
Q 2619 4750 2861 4703 
Q 3103 4656 3366 4563 
z
" transform="scale(0.015625)"/>
       </defs>
       <use xlink:href="#DejaVuSans-36"/>
       <use xlink:href="#DejaVuSans-2e" transform="translate(63.623047 0)"/>
       <use xlink:href="#DejaVuSans-30" transform="translate(95.410156 0)"/>
      </g>
     </g>
    </g>
    <g id="ytick_7">
     <g id="line2d_25">
      <path d="M 47.81 167.668315 
L 853.2 167.668315 
" clip-path="url(#p3dd6358d52)" style="fill: none; stroke: #b0b0b0; stroke-opacity: 0.3; stroke-width: 0.8; stroke-linecap: square"/>
     </g>
     <g id="line2d_26">
      <g>
       <use xlink:href="#m0117901b2d" x="47.81" y="167.668315" style="stroke: #000000; stroke-width: 0.8"/>
      </g>
     </g>
     <g id="text_14">
      <!-- 6.5 -->
      <g transform="translate(24.906875 171.467534) scale(0.1 -0.1)">
       <use xlink:href="#DejaVuSans-36"/>
       <use xlink:href="#DejaVuSans-2e" transform="translate(63.623047 0)"/>
       <use xlink:href="#DejaVuSans-35" transform="translate(95.410156 0)"/>
      </g>
     </g>
    </g>
    <g id="ytick_8">
     <g id="line2d_27">
      <path d="M 47.81 108.332396 
L 853.2 108.332396 
" clip-path="url(#p3dd6358d52)" style="fill: none; stroke: #b0b0b0; stroke-opacity: 0.3; stroke-width: 0.8; stroke-linecap: square"/>
     </g>
     <g id="line2d_28">
      <g>
       <use xlink:href="#m0117901b2d" x="47.81" y="108.332396" style="stroke: #000000; stroke-width: 0.8"/>
      </g>
     </g>
     <g id="text_15">
      <!-- 7.0 -->
      <g transform="translate(24.906875 112.131615) scale(0.1 -0.1)">
       <defs>
        <path id="DejaVuSans-37" d="M 525 4666 
L 3525 4666 
L 3525 4397 
L 1831 0 
L 1172 0 
L 2766 4134 
L 525 4134 
L 525 4666 
z
" transform="scale(0.015625)"/>
       </defs>
       <use xlink:href="#DejaVuSans-37"/>
       <use xlink:href="#DejaVuSans-2e" transform="translate(63.623047 0)"/>
       <use xlink:href="#DejaVuSans-30" transform="translate(95.410156 0)"/>
      </g>
     </g>
    </g>
    <g id="ytick_9">
     <g id="line2d_29">
      <path d="M 47.81 48.996478 
L 853.2 48.996478 
" clip-path="url(#p3dd6358d52)" style="fill: none; stroke: #b0b0b0; stroke-opacity: 0.3; stroke-width: 0.8; stroke-linecap: square"/>
     </g>
     <g id="line2d_30">
      <g>
       <use xlink:href="#m0117901b2d" x="47.81" y="48.996478" style="stroke: #000000; stroke-width: 0.8"/>
      </g>
     </g>
     <g id="text_16">
      <!-- 7.5 -->
      <g transform="translate(24.906875 52.795697) scale(0.1 -0.1)">
       <use xlink:href="#DejaVuSans-37"/>
       <use xlink:href="#DejaVuSans-2e" transform="translate(63.623047 0)"/>
       <use xlink:href="#DejaVuSans-35" transform="translate(95.410156 0)"/>
      </g>
     </g>
    </g>
    <g id="text_17">
     <!-- EDA (μS) -->
     <g transform="translate(18.827187 313.282906) rotate(-90) scale(0.1 -0.1)">
      <defs>
       <path id="DejaVuSans-45" d="M 628 4666 
L 3578 4666 
L 3578 4134 
L 1259 4134 
L 1259 2753 
L 3481 2753 
L 3481 2222 
L 1259 2222 
L 1259 531 
L 3634 531 
L 3634 0 
L 628 0 
L 628 4666 
z
" transform="scale(0.015625)"/>
       <path id="DejaVuSans-44" d="M 1259 4147 
L 1259 519 
L 2022 519 
Q 2988 519 3436 956 
Q 3884 1394 3884 2338 
Q 3884 3275 3436 3711 
Q 2988 4147 2022 4147 
L 1259 4147 
z
M 628 4666 
L 1925 4666 
Q 3281 4666 3915 4102 
Q 4550 3538 4550 2338 
Q 4550 1131 3912 565 
Q 3275 0 1925 0 
L 628 0 
L 628 4666 
z
" transform="scale(0.015625)"/>
       <path id="DejaVuSans-41" d="M 2188 4044 
L 1331 1722 
L 3047 1722 
L 2188 4044 
z
M 1831 4666 
L 2547 4666 
L 4325 0 
L 3669 0 
L 3244 1197 
L 1141 1197 
L 716 0 
L 50 0 
L 1831 4666 
z
" transform="scale(0.015625)"/>
       <path id="DejaVuSans-3bc" d="M 544 -1331 
L 544 3500 
L 1119 3500 
L 1119 1325 
Q 1119 872 1334 640 
Q 1550 409 1972 409 
Q 2434 409 2667 671 
Q 2900 934 2900 1459 
L 2900 3500 
L 3475 3500 
L 3475 806 
Q 3475 619 3529 530 
Q 3584 441 3700 441 
Q 3728 441 3778 458 
Q 3828 475 3916 513 
L 3916 50 
Q 3788 -22 3673 -56 
Q 3559 -91 3450 -91 
Q 3234 -91 3106 31 
Q 2978 153 2931 403 
Q 2775 156 2548 32 
Q 2322 -91 2016 -91 
Q 1697 -91 1473 31 
Q 1250 153 1119 397 
L 1119 -1331 
L 544 -1331 
z
" transform="scale(0.015625)"/>
       <path id="DejaVuSans-53" d="M 3425 4513 
L 3425 3897 
Q 3066 4069 2747 4153 
Q 2428 4238 2131 4238 
Q 1616 4238 1336 4038 
Q 1056 3838 1056 3469 
Q 1056 3159 1242 3001 
Q 1428 2844 1947 2747 
L 2328 2669 
Q 3034 2534 3370 2195 
Q 3706 1856 3706 1288 
Q 3706 609 3251 259 
Q 2797 -91 1919 -91 
Q 1588 -91 1214 -16 
Q 841 59 441 206 
L 441 856 
Q 825 641 1194 531 
Q 1563 422 1919 422 
Q 2459 422 2753 634 
Q 3047 847 3047 1241 
Q 3047 1584 2836 1778 
Q 2625 1972 2144 2069 
L 1759 2144 
Q 1053 2284 737 2584 
Q 422 2884 422 3419 
Q 422 4038 858 4394 
Q 1294 4750 2059 4750 
Q 2388 4750 2728 4690 
Q 3069 4631 3425 4513 
z
" transform="scale(0.015625)"/>
      </defs>
      <use xlink:href="#DejaVuSans-45"/>
      <use xlink:href="#DejaVuSans-44" transform="translate(63.183594 0)"/>
      <use xlink:href="#DejaVuSans-41" transform="translate(138.435547 0)"/>
      <use xlink:href="#DejaVuSans-20" transform="translate(206.84375 0)"/>
      <use xlink:href="#DejaVuSans-28" transform="translate(238.630859 0)"/>
      <use xlink:href="#DejaVuSans-3bc" transform="translate(277.644531 0)"/>
      <use xlink:href="#DejaVuSans-53" transform="translate(341.267578 0)"/>
      <use xlink:href="#DejaVuSans-29" transform="translate(404.744141 0)"/>
     </g>
    </g>
   </g>
   <g id="line2d_31">
    <path d="M 84.418636 327.65029 
L 85.029289 327.179244 
L 85.639942 325.071587 
L 86.250595 321.297608 
L 87.4719 310.28486 
L 88.693206 299.439011 
L 89.303859 295.947938 
L 89.914512 294.360713 
L 90.525165 294.737512 
L 91.135817 296.810248 
L 92.357123 303.745432 
L 92.967776 307.155585 
L 93.578429 309.578891 
L 94.189081 310.471453 
L 94.799734 309.521575 
L 95.410387 306.699546 
L 96.02104 302.267942 
L 98.463651 280.752178 
L 99.074304 277.810055 
L 99.684957 276.708816 
L 100.29561 277.449814 
L 100.906262 279.794519 
L 101.516915 283.336497 
L 104.570179 303.934989 
L 105.791485 309.274353 
L 107.012791 312.921624 
L 108.234096 315.478644 
L 109.455402 317.427377 
L 111.898013 320.797879 
L 112.508666 321.288758 
L 113.119319 321.305615 
L 113.729972 320.626602 
L 114.340624 319.086691 
L 114.951277 316.643619 
L 116.172583 309.703934 
L 117.393888 302.428324 
L 118.004541 299.67209 
L 118.615194 297.872688 
L 119.225847 297.124219 
L 119.8365 297.382946 
L 120.447153 298.503378 
L 121.057805 300.279249 
L 124.111069 311.158785 
L 124.721722 312.505467 
L 125.332375 313.399087 
L 125.943028 313.908297 
L 127.164334 314.422929 
L 127.774986 314.862436 
L 128.385639 315.682889 
L 128.996292 316.948232 
L 130.217598 320.043338 
L 130.82825 320.879948 
L 131.438903 320.254592 
L 132.049556 317.369879 
L 132.660209 311.614825 
L 133.270862 302.770123 
L 134.492167 277.665404 
L 135.713473 250.762212 
L 136.324126 240.500701 
L 136.934779 234.036397 
L 137.545431 231.878092 
L 138.156084 233.759851 
L 138.766737 238.690121 
L 139.988043 251.502756 
L 140.598696 256.119003 
L 141.209348 257.773737 
L 141.820001 255.619923 
L 142.430654 249.159309 
L 143.041307 238.166002 
L 143.65196 222.67208 
L 144.873265 180.147815 
L 146.705224 107.925687 
L 147.315876 89.407337 
L 147.926529 76.567709 
L 148.537182 70.235193 
L 149.147835 70.444996 
L 149.758488 76.516117 
L 150.369141 87.23713 
L 151.590446 116.537342 
L 152.811752 146.644715 
L 154.033057 169.770905 
L 154.64371 177.890483 
L 155.254363 183.965529 
L 155.865016 188.48407 
L 157.086322 195.189003 
L 158.307627 201.814116 
L 160.139586 212.450425 
L 160.750238 214.992184 
L 161.360891 216.541627 
L 161.971544 217.142745 
L 162.582197 217.217845 
L 163.19285 217.575256 
L 163.803503 219.297494 
L 164.414155 223.500226 
L 165.024808 230.987378 
L 165.635461 241.86945 
L 167.467419 280.361557 
L 168.078072 285.61317 
L 168.688725 281.774293 
L 169.299378 267.196287 
L 169.910031 242.464394 
L 171.741989 146.227298 
L 172.352642 124.182499 
L 172.963295 113.434552 
L 173.573948 114.352014 
L 174.1846 124.962609 
L 176.627212 190.843761 
L 177.237865 198.676258 
L 177.848517 201.636169 
L 178.45917 201.301816 
L 179.069823 199.98509 
L 179.680476 200.110884 
L 180.291129 203.564385 
L 180.901781 211.15536 
L 182.123087 235.311371 
L 182.73374 247.423169 
L 183.344393 255.937585 
L 183.955045 258.817929 
L 184.565698 255.362672 
L 185.176351 246.447495 
L 187.00831 211.678709 
L 187.618962 205.857592 
L 188.229615 204.919968 
L 188.840268 208.288779 
L 189.450921 214.65546 
L 191.893532 245.822327 
L 192.504185 251.930545 
L 193.114838 256.704193 
L 193.725491 259.750307 
L 194.336143 260.737578 
L 194.946796 259.585954 
L 195.557449 256.587369 
L 197.389407 244.397787 
L 198.00006 242.745128 
L 198.610713 243.990862 
L 199.221366 248.843132 
L 199.832019 257.598006 
L 200.442672 269.990741 
L 202.885283 330.478173 
L 203.495936 340.094196 
L 204.106588 345.551647 
L 204.717241 347.270045 
L 205.327894 346.375553 
L 206.5492 342.703182 
L 207.159853 342.563645 
L 207.770505 344.594897 
L 208.381158 348.898034 
L 208.991811 355.09135 
L 211.434422 383.605349 
L 212.045075 388.424083 
L 212.655728 391.815734 
L 213.266381 393.949012 
L 213.877034 395.137923 
L 214.487686 395.756829 
L 215.708992 396.621365 
L 216.319645 397.305138 
L 216.930298 398.284996 
L 217.54095 399.601342 
L 218.151603 401.339578 
L 218.762256 403.691117 
L 219.372909 406.959018 
L 219.983562 411.488681 
L 220.594214 417.539366 
L 221.81552 434.041079 
L 223.647479 462.024524 
L 224.258131 469.381858 
L 224.868784 474.960376 
L 225.479437 478.718209 
L 226.09009 480.881825 
L 226.700743 481.840557 
L 227.311395 482.017745 
L 227.922048 481.75969 
L 228.532701 481.271231 
L 229.143354 480.606124 
L 229.754007 479.702029 
L 230.36466 478.441675 
L 230.975312 476.722529 
L 232.196618 471.929327 
L 233.417924 466.555915 
L 234.028576 464.406487 
L 234.639229 462.977314 
L 235.249882 462.389804 
L 235.860535 462.617345 
L 236.471188 463.520899 
L 237.081841 464.9148 
L 238.303146 468.526992 
L 239.524452 472.332142 
L 240.135105 473.766106 
L 240.745757 474.401148 
L 241.35641 473.869696 
L 241.967063 472.016187 
L 243.188369 465.579403 
L 243.799022 462.375253 
L 244.409674 460.127406 
L 245.020327 459.158751 
L 245.63098 459.32977 
L 246.852286 460.939516 
L 247.462938 461.260662 
L 248.073591 460.952574 
L 249.294897 459.618918 
L 249.90555 459.59086 
L 250.516203 460.494914 
L 251.126855 462.351105 
L 252.958814 469.745094 
L 253.569467 471.147001 
L 254.180119 471.517497 
L 254.790772 470.912949 
L 255.401425 469.592749 
L 256.622731 466.289883 
L 257.233384 464.973669 
L 257.844036 464.132653 
L 258.454689 463.776657 
L 259.065342 463.802225 
L 261.507953 464.737152 
L 263.950564 464.903208 
L 264.561217 465.160583 
L 265.17187 465.578555 
L 266.393176 466.818215 
L 268.225134 468.910742 
L 269.44644 469.848134 
L 270.667745 470.250922 
L 273.110357 470.54234 
L 274.331662 471.069314 
L 277.384926 472.898209 
L 278.606232 473.285151 
L 281.048843 473.873635 
L 282.880802 474.718416 
L 284.102107 475.302273 
L 285.323413 475.588564 
L 285.934066 475.547639 
L 286.544719 475.370425 
L 287.766024 474.68729 
L 289.597983 473.535655 
L 291.429941 472.651811 
L 292.040594 472.165196 
L 293.2619 470.642761 
L 294.483205 469.006296 
L 295.093858 468.566769 
L 295.704511 468.547698 
L 296.315164 468.936197 
L 298.147122 470.755929 
L 298.757775 470.875116 
L 299.368428 470.613712 
L 300.589733 469.57851 
L 301.200386 469.315017 
L 301.811039 469.536181 
L 302.421692 470.356607 
L 303.032345 471.753521 
L 306.085609 480.530174 
L 306.696262 481.312065 
L 307.306914 481.634703 
L 307.917567 481.587128 
L 308.52822 481.28918 
L 312.192137 478.622611 
L 312.80279 478.048633 
L 314.024095 476.396153 
L 315.245401 474.604437 
L 315.856054 474.319964 
L 316.466707 474.996529 
L 317.07736 477.030036 
L 317.688012 480.647196 
L 318.298665 485.788628 
L 320.130624 504.828088 
L 320.741276 509.484978 
L 321.351929 511.954057 
L 321.962582 511.911722 
L 322.573235 509.509402 
L 323.183888 505.315259 
L 325.015846 490.220182 
L 325.626499 486.679611 
L 326.237152 484.46442 
L 326.847805 483.540737 
L 327.458457 483.694923 
L 328.06911 484.614833 
L 330.511722 489.89755 
L 331.122374 490.635842 
L 331.733027 490.992948 
L 332.34368 490.974691 
L 332.954333 490.592073 
L 333.564986 489.844917 
L 334.175638 488.728731 
L 335.396944 485.552542 
L 336.61825 482.110144 
L 337.228902 480.800662 
L 337.839555 479.908235 
L 339.060861 478.766378 
L 339.671514 477.777521 
L 340.282167 475.878045 
L 340.892819 472.676124 
L 341.503472 468.005773 
L 342.724778 455.188206 
L 343.946083 442.0482 
L 344.556736 437.346821 
L 345.167389 434.69524 
L 345.778042 434.322416 
L 346.388695 436.12219 
L 346.999348 439.708617 
L 348.220653 449.941455 
L 349.441959 460.490877 
L 350.663264 468.543554 
L 351.273917 471.403374 
L 351.88457 473.584014 
L 352.495223 475.230927 
L 353.716529 477.567699 
L 356.15914 481.410885 
L 356.769793 482.214401 
L 357.380445 482.767431 
L 357.991098 482.966809 
L 358.601751 482.758855 
L 359.212404 482.161185 
L 360.43371 480.220499 
L 361.655015 478.381649 
L 362.265668 477.889235 
L 362.876321 477.802406 
L 363.486974 478.137091 
L 364.097626 478.854771 
L 365.318932 481.101565 
L 367.150891 484.979278 
L 368.372196 487.041799 
L 369.593502 488.50773 
L 370.814807 489.522571 
L 372.036113 490.231712 
L 372.646766 490.458984 
L 373.257419 490.548454 
L 373.868071 490.427782 
L 374.478724 490.005901 
L 375.089377 489.190187 
L 375.70003 487.913176 
L 376.310683 486.16414 
L 377.531988 481.623394 
L 379.363947 474.799145 
L 379.9746 472.58951 
L 380.585252 469.697765 
L 381.195905 465.259051 
L 381.806558 458.333994 
L 382.417211 448.207262 
L 383.027864 434.690904 
L 384.249169 400.345234 
L 385.470475 366.753685 
L 386.081128 354.620781 
L 386.691781 347.106981 
L 387.302433 344.40919 
L 387.913086 345.985796 
L 388.523739 350.767126 
L 391.577003 383.491159 
L 392.798309 391.307613 
L 394.019614 396.786923 
L 397.683531 410.693994 
L 399.51549 418.571009 
L 400.126143 420.620923 
L 400.736795 422.111764 
L 401.347448 422.984615 
L 401.958101 423.278236 
L 402.568754 423.112648 
L 403.179407 422.649807 
L 405.622018 420.329411 
L 406.843324 419.522338 
L 409.285935 418.39232 
L 409.896588 417.656398 
L 410.507241 416.317711 
L 411.117893 414.169594 
L 411.728546 411.124664 
L 412.949852 402.891638 
L 414.171157 394.26148 
L 414.78181 390.882601 
L 415.392463 388.500566 
L 416.003116 387.12041 
L 416.613769 386.496254 
L 417.224421 386.174848 
L 417.835074 385.602264 
L 418.445727 384.276809 
L 419.05638 381.9072 
L 419.667033 378.521727 
L 421.498991 366.978139 
L 422.109644 364.783887 
L 422.720297 364.151117 
L 423.33095 365.085417 
L 423.941602 367.29432 
L 426.384214 378.704845 
L 426.994867 380.287913 
L 427.605519 381.271033 
L 428.826825 382.666498 
L 429.437478 383.78994 
L 430.048131 385.546905 
L 430.658783 388.010596 
L 431.880089 394.585897 
L 434.3227 408.672955 
L 435.544006 414.63756 
L 436.765312 419.672097 
L 437.986617 423.395228 
L 438.59727 424.693565 
L 439.207923 425.660024 
L 440.429229 426.9669 
L 441.650534 428.175263 
L 442.87184 429.904519 
L 444.703798 433.0866 
L 445.314451 433.830734 
L 445.925104 434.163188 
L 446.535757 433.985362 
L 447.14641 433.288125 
L 448.367715 430.844565 
L 448.978368 429.574293 
L 449.589021 428.63629 
L 450.199674 428.240498 
L 450.810326 428.4832 
L 451.420979 429.333467 
L 452.031632 430.656785 
L 454.474243 436.974665 
L 455.084896 438.135902 
L 455.695549 439.03181 
L 456.306202 439.683875 
L 456.916855 440.134685 
L 458.13816 440.655502 
L 459.359466 441.100123 
L 459.970119 441.484142 
L 460.580771 442.097812 
L 461.191424 443.037652 
L 461.802077 444.380749 
L 463.023383 448.253993 
L 464.244688 452.412115 
L 464.855341 453.552141 
L 465.465994 453.318308 
L 466.076647 451.20978 
L 466.6873 446.941355 
L 467.297952 440.563089 
L 468.519258 423.577176 
L 469.740564 407.03668 
L 470.351217 401.264138 
L 470.961869 397.92133 
L 471.572522 397.103023 
L 472.183175 398.535429 
L 472.793828 401.671874 
L 475.236439 418.028726 
L 475.847092 420.675317 
L 476.457745 422.446573 
L 477.068398 423.508809 
L 478.289703 424.600191 
L 478.900356 425.181978 
L 479.511009 426.046396 
L 480.121662 427.258948 
L 481.342967 430.500529 
L 482.564273 433.900628 
L 483.174926 435.306054 
L 483.785579 436.410872 
L 484.396231 437.213639 
L 485.006884 437.765606 
L 486.22819 438.461232 
L 487.449495 439.165817 
L 488.670801 440.227591 
L 491.113412 442.785544 
L 492.334718 443.623534 
L 494.777329 444.850729 
L 495.387982 445.416182 
L 496.609288 447.042328 
L 497.830593 448.906537 
L 498.441246 449.685956 
L 499.051899 450.256911 
L 499.662552 450.586865 
L 500.273205 450.687368 
L 500.883857 450.605971 
L 503.937121 449.628206 
L 505.158427 449.580426 
L 506.379733 449.877117 
L 507.601038 450.639029 
L 509.432997 452.433516 
L 510.654302 453.532695 
L 511.875608 454.279222 
L 513.707567 455.175499 
L 514.928872 455.990523 
L 516.760831 457.330762 
L 517.982136 457.993714 
L 520.424748 459.145724 
L 522.256706 460.245356 
L 522.867359 460.37283 
L 523.478012 460.170117 
L 524.088664 459.495661 
L 524.699317 458.233446 
L 525.30997 456.325052 
L 525.920623 453.798015 
L 528.973887 438.961515 
L 529.58454 437.399367 
L 530.195193 436.675504 
L 530.805845 436.72324 
L 531.416498 437.352747 
L 532.637804 439.123052 
L 533.248457 439.546672 
L 533.859109 439.251939 
L 534.469762 438.090572 
L 535.080415 436.101136 
L 537.523026 425.633394 
L 538.133679 423.953177 
L 538.744332 422.905953 
L 539.354985 422.403373 
L 539.965638 422.330635 
L 540.57629 422.637964 
L 541.186943 423.403899 
L 541.797596 424.840526 
L 542.408249 427.226236 
L 543.018902 430.774073 
L 544.240207 440.93308 
L 544.85086 446.373654 
L 545.461513 450.681548 
L 546.072166 452.672087 
L 546.682819 451.424067 
L 547.293471 446.601332 
L 547.904124 438.631032 
L 549.736083 409.117881 
L 550.346736 402.406762 
L 550.957388 398.621726 
L 551.568041 397.35162 
L 552.178694 397.407287 
L 552.789347 397.169977 
L 553.4 395.081648 
L 554.010652 390.121319 
L 554.621305 382.105196 
L 557.063917 340.226774 
L 557.674569 334.010283 
L 558.285222 331.026514 
L 558.895875 331.108671 
L 559.506528 333.684684 
L 560.117181 337.970622 
L 562.559792 358.202098 
L 563.781098 365.3578 
L 565.002403 370.617108 
L 567.445014 379.315981 
L 568.66632 383.157291 
L 569.887626 386.235879 
L 571.108931 388.487463 
L 572.330237 390.215012 
L 573.551543 391.667385 
L 574.162195 392.253569 
L 574.772848 392.679814 
L 575.383501 392.896436 
L 575.994154 392.881302 
L 576.604807 392.657271 
L 578.436765 391.648921 
L 579.047418 391.619967 
L 579.658071 391.923171 
L 580.268724 392.602135 
L 580.879376 393.645622 
L 582.100682 396.547319 
L 583.93264 401.296948 
L 584.543293 402.569976 
L 585.153946 403.580728 
L 585.764599 404.316446 
L 586.375252 404.803519 
L 588.817863 406.117733 
L 589.428516 406.952436 
L 590.039169 408.20542 
L 591.260474 411.779388 
L 592.48178 415.297971 
L 593.092433 416.210286 
L 593.703086 416.179985 
L 594.313738 415.11052 
L 594.924391 413.105044 
L 597.367002 402.292087 
L 597.977655 400.664504 
L 598.588308 399.959767 
L 599.198961 400.261371 
L 599.809614 401.539422 
L 600.420267 403.63733 
L 602.862878 413.866859 
L 603.473531 415.403841 
L 604.084183 416.365565 
L 604.694836 416.911097 
L 606.526795 417.912294 
L 607.7481 419.012513 
L 608.969406 420.515725 
L 612.02267 424.611001 
L 613.243976 425.941212 
L 614.465281 427.00977 
L 615.686587 427.840636 
L 617.518545 428.786412 
L 618.739851 429.105249 
L 619.350504 429.017952 
L 619.961157 428.67621 
L 620.571809 428.055317 
L 622.403768 425.444397 
L 623.014421 424.983998 
L 623.625074 425.07619 
L 624.235726 425.805015 
L 624.846379 427.107213 
L 626.678338 432.060361 
L 627.28899 433.147832 
L 627.899643 433.698715 
L 628.510296 433.760696 
L 629.120949 433.488654 
L 630.342255 432.712084 
L 630.952907 432.484977 
L 631.56356 432.419288 
L 633.395519 432.676073 
L 634.616824 432.882935 
L 635.227477 433.072838 
L 636.448783 433.806604 
L 638.280741 435.238451 
L 638.891394 435.519082 
L 639.502047 435.644564 
L 641.334005 435.649046 
L 641.944658 435.812966 
L 642.555311 436.157381 
L 643.776616 437.275999 
L 644.387269 437.856194 
L 644.997922 438.267303 
L 645.608575 438.387442 
L 646.219228 438.160681 
L 646.829881 437.626827 
L 648.051186 436.218741 
L 648.661839 435.704228 
L 649.272492 435.485412 
L 649.883145 435.581003 
L 650.493797 435.924485 
L 652.325756 437.306065 
L 654.157714 438.363047 
L 654.768367 438.886681 
L 655.989673 440.422994 
L 658.432284 444.041542 
L 659.042937 444.705383 
L 659.65359 445.189771 
L 660.264243 445.464159 
L 660.874895 445.505297 
L 661.485548 445.310398 
L 662.706854 444.398206 
L 663.928159 443.488978 
L 664.538812 443.321281 
L 665.149465 443.420797 
L 665.760118 443.766156 
L 668.813382 446.261047 
L 670.64534 447.107405 
L 671.255993 447.543932 
L 672.477299 448.816938 
L 673.698605 450.064119 
L 674.309257 450.274278 
L 674.91991 449.973105 
L 675.530563 449.051392 
L 676.141216 447.509222 
L 678.583827 439.361525 
L 679.19448 438.280215 
L 679.805133 437.865057 
L 680.415786 437.936205 
L 681.026438 438.137112 
L 681.637091 438.014618 
L 682.247744 437.128675 
L 682.858397 435.166588 
L 683.46905 432.034865 
L 684.690355 423.197244 
L 685.911661 414.480085 
L 686.522314 411.681836 
L 687.132966 410.471834 
L 687.743619 410.931571 
L 688.354272 412.853952 
L 689.575578 419.221803 
L 690.796883 425.487098 
L 691.407536 427.757193 
L 692.018189 429.411143 
L 693.239495 431.574012 
L 695.071453 434.507338 
L 696.292759 436.464353 
L 696.903412 437.161263 
L 697.514064 437.613238 
L 698.73537 438.304455 
L 699.346023 439.090056 
L 699.956676 440.582488 
L 700.567328 442.945853 
L 702.399287 452.568996 
L 703.00994 454.368735 
L 703.620593 454.234709 
L 704.231245 451.88 
L 704.841898 447.548847 
L 706.673857 430.901952 
L 707.284509 427.060852 
L 707.895162 424.8631 
L 708.505815 424.225713 
L 709.116468 424.809443 
L 709.727121 426.175374 
L 712.169732 433.01223 
L 712.780385 434.236002 
L 713.391038 435.024769 
L 714.00169 435.221621 
L 714.612343 434.687251 
L 715.222996 433.369226 
L 715.833649 431.366657 
L 717.054955 426.590584 
L 717.665607 424.780581 
L 718.27626 424.032277 
L 718.886913 424.719423 
L 719.497566 427.004566 
L 720.108219 430.788285 
L 722.55083 450.064735 
L 723.161483 452.057512 
L 723.772135 451.692256 
L 724.382788 448.915032 
L 724.993441 444.085868 
L 727.436052 419.403439 
L 728.046705 415.265651 
L 728.657358 412.44044 
L 729.268011 410.722999 
L 729.878664 409.789147 
L 730.489316 409.31197 
L 731.710622 408.882327 
L 732.321275 408.814006 
L 732.931928 408.924519 
L 733.542581 409.317953 
L 734.153233 410.070879 
L 734.763886 411.199993 
L 735.985192 414.322042 
L 737.81715 419.226104 
L 738.427803 420.461596 
L 739.649109 422.21113 
L 741.481067 424.365837 
L 742.702373 426.45847 
L 744.534331 430.009262 
L 745.755637 431.898152 
L 747.587595 434.069175 
L 749.419554 436.019334 
L 750.640859 436.95677 
L 751.251512 437.128552 
L 751.862165 437.007676 
L 752.472818 436.551533 
L 753.083471 435.763225 
L 754.304776 433.483596 
L 755.526082 431.181992 
L 756.136735 430.390627 
L 756.747388 429.962472 
L 757.35804 429.90907 
L 757.968693 430.177204 
L 759.189999 431.267673 
L 761.021957 432.960216 
L 762.243263 434.021732 
L 763.464569 435.482425 
L 765.296527 438.445622 
L 766.517833 440.300998 
L 767.739138 441.654568 
L 768.960444 442.557967 
L 770.792402 443.724336 
L 772.624361 445.287815 
L 773.845666 446.302869 
L 775.066972 446.993732 
L 776.898931 447.609094 
L 778.120236 447.911224 
L 778.730889 447.954846 
L 779.341542 447.867636 
L 779.952195 447.626945 
L 781.1735 446.764014 
L 782.394806 445.815856 
L 783.005459 445.500588 
L 783.616112 445.348723 
L 785.44807 445.293929 
L 786.058723 444.919356 
L 786.669376 444.06684 
L 787.280028 442.618408 
L 787.890681 440.559294 
L 789.111987 435.159593 
L 790.333293 429.874485 
L 790.943945 428.028767 
L 791.554598 426.991329 
L 792.165251 426.822983 
L 792.775904 427.462043 
L 793.386557 428.751288 
L 794.607862 432.434821 
L 795.829168 436.318043 
L 797.050474 439.515644 
L 798.271779 441.795042 
L 798.882432 442.591842 
L 799.493085 443.164507 
L 800.103738 443.519572 
L 800.71439 443.67451 
L 801.935696 443.543218 
L 803.157002 443.241423 
L 803.767654 443.191504 
L 804.378307 443.270067 
L 804.98896 443.494835 
L 806.210266 444.350073 
L 808.042224 446.205161 
L 810.484835 448.596364 
L 813.5381 451.538429 
L 815.980711 453.784794 
L 816.591364 454.299954 
L 816.591364 454.299954 
" clip-path="url(#p3dd6358d52)" style="fill: none; stroke: #0000ff; stroke-width: 0.5; stroke-linecap: square"/>
   </g>
   <g id="patch_3">
    <path d="M 47.81 534.04 
L 47.81 48.14925 
" style="fill: none; stroke: #000000; stroke-width: 0.8; stroke-linejoin: miter; stroke-linecap: square"/>
   </g>
   <g id="patch_4">
    <path d="M 853.2 534.04 
L 853.2 48.14925 
" style="fill: none; stroke: #000000; stroke-width: 0.8; stroke-linejoin: miter; stroke-linecap: square"/>
   </g>
   <g id="patch_5">
    <path d="M 47.81 534.04 
L 853.2 534.04 
" style="fill: none; stroke: #000000; stroke-width: 0.8; stroke-linejoin: miter; stroke-linecap: square"/>
   </g>
   <g id="patch_6">
    <path d="M 47.81 48.14925 
L 853.2 48.14925 
" style="fill: none; stroke: #000000; stroke-width: 0.8; stroke-linejoin: miter; stroke-linecap: square"/>
   </g>
   <g id="text_18">
    <!-- EDA Filtering: data_7_E4 -->
    <g transform="translate(389.400313 19.4755) scale(0.1 -0.1)">
     <defs>
      <path id="DejaVuSans-46" d="M 628 4666 
L 3309 4666 
L 3309 4134 
L 1259 4134 
L 1259 2759 
L 3109 2759 
L 3109 2228 
L 1259 2228 
L 1259 0 
L 628 0 
L 628 4666 
z
" transform="scale(0.015625)"/>
      <path id="DejaVuSans-6c" d="M 603 4863 
L 1178 4863 
L 1178 0 
L 603 0 
L 603 4863 
z
" transform="scale(0.015625)"/>
      <path id="DejaVuSans-72" d="M 2631 2963 
Q 2534 3019 2420 3045 
Q 2306 3072 2169 3072 
Q 1681 3072 1420 2755 
Q 1159 2438 1159 1844 
L 1159 0 
L 581 0 
L 581 3500 
L 1159 3500 
L 1159 2956 
Q 1341 3275 1631 3429 
Q 1922 3584 2338 3584 
Q 2397 3584 2469 3576 
Q 2541 3569 2628 3553 
L 2631 2963 
z
" transform="scale(0.015625)"/>
      <path id="DejaVuSans-67" d="M 2906 1791 
Q 2906 2416 2648 2759 
Q 2391 3103 1925 3103 
Q 1463 3103 1205 2759 
Q 947 2416 947 1791 
Q 947 1169 1205 825 
Q 1463 481 1925 481 
Q 2391 481 2648 825 
Q 2906 1169 2906 1791 
z
M 3481 434 
Q 3481 -459 3084 -895 
Q 2688 -1331 1869 -1331 
Q 1566 -1331 1297 -1286 
Q 1028 -1241 775 -1147 
L 775 -588 
Q 1028 -725 1275 -790 
Q 1522 -856 1778 -856 
Q 2344 -856 2625 -561 
Q 2906 -266 2906 331 
L 2906 616 
Q 2728 306 2450 153 
Q 2172 0 1784 0 
Q 1141 0 747 490 
Q 353 981 353 1791 
Q 353 2603 747 3093 
Q 1141 3584 1784 3584 
Q 2172 3584 2450 3431 
Q 2728 3278 2906 2969 
L 2906 3500 
L 3481 3500 
L 3481 434 
z
" transform="scale(0.015625)"/>
      <path id="DejaVuSans-3a" d="M 750 794 
L 1409 794 
L 1409 0 
L 750 0 
L 750 794 
z
M 750 3309 
L 1409 3309 
L 1409 2516 
L 750 2516 
L 750 3309 
z
" transform="scale(0.015625)"/>
      <path id="DejaVuSans-64" d="M 2906 2969 
L 2906 4863 
L 3481 4863 
L 3481 0 
L 2906 0 
L 2906 525 
Q 2725 213 2448 61 
Q 2172 -91 1784 -91 
Q 1150 -91 751 415 
Q 353 922 353 1747 
Q 353 2572 751 3078 
Q 1150 3584 1784 3584 
Q 2172 3584 2448 3432 
Q 2725 3281 2906 2969 
z
M 947 1747 
Q 947 1113 1208 752 
Q 1469 391 1925 391 
Q 2381 391 2643 752 
Q 2906 1113 2906 1747 
Q 2906 2381 2643 2742 
Q 2381 3103 1925 3103 
Q 1469 3103 1208 2742 
Q 947 2381 947 1747 
z
" transform="scale(0.015625)"/>
      <path id="DejaVuSans-61" d="M 2194 1759 
Q 1497 1759 1228 1600 
Q 959 1441 959 1056 
Q 959 750 1161 570 
Q 1363 391 1709 391 
Q 2188 391 2477 730 
Q 2766 1069 2766 1631 
L 2766 1759 
L 2194 1759 
z
M 3341 1997 
L 3341 0 
L 2766 0 
L 2766 531 
Q 2569 213 2275 61 
Q 1981 -91 1556 -91 
Q 1019 -91 701 211 
Q 384 513 384 1019 
Q 384 1609 779 1909 
Q 1175 2209 1959 2209 
L 2766 2209 
L 2766 2266 
Q 2766 2663 2505 2880 
Q 2244 3097 1772 3097 
Q 1472 3097 1187 3025 
Q 903 2953 641 2809 
L 641 3341 
Q 956 3463 1253 3523 
Q 1550 3584 1831 3584 
Q 2591 3584 2966 3190 
Q 3341 2797 3341 1997 
z
" transform="scale(0.015625)"/>
      <path id="DejaVuSans-5f" d="M 3263 -1063 
L 3263 -1509 
L -63 -1509 
L -63 -1063 
L 3263 -1063 
z
" transform="scale(0.015625)"/>
     </defs>
     <use xlink:href="#DejaVuSans-45"/>
     <use xlink:href="#DejaVuSans-44" transform="translate(63.183594 0)"/>
     <use xlink:href="#DejaVuSans-41" transform="translate(138.435547 0)"/>
     <use xlink:href="#DejaVuSans-20" transform="translate(206.84375 0)"/>
     <use xlink:href="#DejaVuSans-46" transform="translate(238.630859 0)"/>
     <use xlink:href="#DejaVuSans-69" transform="translate(288.900391 0)"/>
     <use xlink:href="#DejaVuSans-6c" transform="translate(316.683594 0)"/>
     <use xlink:href="#DejaVuSans-74" transform="translate(344.466797 0)"/>
     <use xlink:href="#DejaVuSans-65" transform="translate(383.675781 0)"/>
     <use xlink:href="#DejaVuSans-72" transform="translate(445.199219 0)"/>
     <use xlink:href="#DejaVuSans-69" transform="translate(486.3125 0)"/>
     <use xlink:href="#DejaVuSans-6e" transform="translate(514.095703 0)"/>
     <use xlink:href="#DejaVuSans-67" transform="translate(577.474609 0)"/>
     <use xlink:href="#DejaVuSans-3a" transform="translate(640.951172 0)"/>
     <use xlink:href="#DejaVuSans-20" transform="translate(674.642578 0)"/>
     <use xlink:href="#DejaVuSans-64" transform="translate(706.429688 0)"/>
     <use xlink:href="#DejaVuSans-61" transform="translate(769.90625 0)"/>
     <use xlink:href="#DejaVuSans-74" transform="translate(831.185547 0)"/>
     <use xlink:href="#DejaVuSans-61" transform="translate(870.394531 0)"/>
     <use xlink:href="#DejaVuSans-5f" transform="translate(931.673828 0)"/>
     <use xlink:href="#DejaVuSans-37" transform="translate(981.673828 0)"/>
     <use xlink:href="#DejaVuSans-5f" transform="translate(1045.296875 0)"/>
     <use xlink:href="#DejaVuSans-45" transform="translate(1095.296875 0)"/>
     <use xlink:href="#DejaVuSans-34" transform="translate(1158.480469 0)"/>
    </g>
    <!-- Window=61, Threshold=0.3, Sample=1200 (300.0s) -->
    <g transform="translate(319.032344 30.951437) scale(0.1 -0.1)">
     <defs>
      <path id="DejaVuSans-57" d="M 213 4666 
L 850 4666 
L 1831 722 
L 2809 4666 
L 3519 4666 
L 4500 722 
L 5478 4666 
L 6119 4666 
L 4947 0 
L 4153 0 
L 3169 4050 
L 2175 0 
L 1381 0 
L 213 4666 
z
" transform="scale(0.015625)"/>
      <path id="DejaVuSans-6f" d="M 1959 3097 
Q 1497 3097 1228 2736 
Q 959 2375 959 1747 
Q 959 1119 1226 758 
Q 1494 397 1959 397 
Q 2419 397 2687 759 
Q 2956 1122 2956 1747 
Q 2956 2369 2687 2733 
Q 2419 3097 1959 3097 
z
M 1959 3584 
Q 2709 3584 3137 3096 
Q 3566 2609 3566 1747 
Q 3566 888 3137 398 
Q 2709 -91 1959 -91 
Q 1206 -91 779 398 
Q 353 888 353 1747 
Q 353 2609 779 3096 
Q 1206 3584 1959 3584 
z
" transform="scale(0.015625)"/>
      <path id="DejaVuSans-77" d="M 269 3500 
L 844 3500 
L 1563 769 
L 2278 3500 
L 2956 3500 
L 3675 769 
L 4391 3500 
L 4966 3500 
L 4050 0 
L 3372 0 
L 2619 2869 
L 1863 0 
L 1184 0 
L 269 3500 
z
" transform="scale(0.015625)"/>
      <path id="DejaVuSans-3d" d="M 678 2906 
L 4684 2906 
L 4684 2381 
L 678 2381 
L 678 2906 
z
M 678 1631 
L 4684 1631 
L 4684 1100 
L 678 1100 
L 678 1631 
z
" transform="scale(0.015625)"/>
      <path id="DejaVuSans-2c" d="M 750 794 
L 1409 794 
L 1409 256 
L 897 -744 
L 494 -744 
L 750 256 
L 750 794 
z
" transform="scale(0.015625)"/>
      <path id="DejaVuSans-68" d="M 3513 2113 
L 3513 0 
L 2938 0 
L 2938 2094 
Q 2938 2591 2744 2837 
Q 2550 3084 2163 3084 
Q 1697 3084 1428 2787 
Q 1159 2491 1159 1978 
L 1159 0 
L 581 0 
L 581 4863 
L 1159 4863 
L 1159 2956 
Q 1366 3272 1645 3428 
Q 1925 3584 2291 3584 
Q 2894 3584 3203 3211 
Q 3513 2838 3513 2113 
z
" transform="scale(0.015625)"/>
      <path id="DejaVuSans-70" d="M 1159 525 
L 1159 -1331 
L 581 -1331 
L 581 3500 
L 1159 3500 
L 1159 2969 
Q 1341 3281 1617 3432 
Q 1894 3584 2278 3584 
Q 2916 3584 3314 3078 
Q 3713 2572 3713 1747 
Q 3713 922 3314 415 
Q 2916 -91 2278 -91 
Q 1894 -91 1617 61 
Q 1341 213 1159 525 
z
M 3116 1747 
Q 3116 2381 2855 2742 
Q 2594 3103 2138 3103 
Q 1681 3103 1420 2742 
Q 1159 2381 1159 1747 
Q 1159 1113 1420 752 
Q 1681 391 2138 391 
Q 2594 391 2855 752 
Q 3116 1113 3116 1747 
z
" transform="scale(0.015625)"/>
     </defs>
     <use xlink:href="#DejaVuSans-57"/>
     <use xlink:href="#DejaVuSans-69" transform="translate(96.626953 0)"/>
     <use xlink:href="#DejaVuSans-6e" transform="translate(124.410156 0)"/>
     <use xlink:href="#DejaVuSans-64" transform="translate(187.789062 0)"/>
     <use xlink:href="#DejaVuSans-6f" transform="translate(251.265625 0)"/>
     <use xlink:href="#DejaVuSans-77" transform="translate(312.447266 0)"/>
     <use xlink:href="#DejaVuSans-3d" transform="translate(394.234375 0)"/>
     <use xlink:href="#DejaVuSans-36" transform="translate(478.023438 0)"/>
     <use xlink:href="#DejaVuSans-31" transform="translate(541.646484 0)"/>
     <use xlink:href="#DejaVuSans-2c" transform="translate(605.269531 0)"/>
     <use xlink:href="#DejaVuSans-20" transform="translate(637.056641 0)"/>
     <use xlink:href="#DejaVuSans-54" transform="translate(668.84375 0)"/>
     <use xlink:href="#DejaVuSans-68" transform="translate(729.927734 0)"/>
     <use xlink:href="#DejaVuSans-72" transform="translate(793.306641 0)"/>
     <use xlink:href="#DejaVuSans-65" transform="translate(832.169922 0)"/>
     <use xlink:href="#DejaVuSans-73" transform="translate(893.693359 0)"/>
     <use xlink:href="#DejaVuSans-68" transform="translate(945.792969 0)"/>
     <use xlink:href="#DejaVuSans-6f" transform="translate(1009.171875 0)"/>
     <use xlink:href="#DejaVuSans-6c" transform="translate(1070.353516 0)"/>
     <use xlink:href="#DejaVuSans-64" transform="translate(1098.136719 0)"/>
     <use xlink:href="#DejaVuSans-3d" transform="translate(1161.613281 0)"/>
     <use xlink:href="#DejaVuSans-30" transform="translate(1245.402344 0)"/>
     <use xlink:href="#DejaVuSans-2e" transform="translate(1309.025391 0)"/>
     <use xlink:href="#DejaVuSans-33" transform="translate(1340.8125 0)"/>
     <use xlink:href="#DejaVuSans-2c" transform="translate(1404.435547 0)"/>
     <use xlink:href="#DejaVuSans-20" transform="translate(1436.222656 0)"/>
     <use xlink:href="#DejaVuSans-53" transform="translate(1468.009766 0)"/>
     <use xlink:href="#DejaVuSans-61" transform="translate(1531.486328 0)"/>
     <use xlink:href="#DejaVuSans-6d" transform="translate(1592.765625 0)"/>
     <use xlink:href="#DejaVuSans-70" transform="translate(1690.177734 0)"/>
     <use xlink:href="#DejaVuSans-6c" transform="translate(1753.654297 0)"/>
     <use xlink:href="#DejaVuSans-65" transform="translate(1781.4375 0)"/>
     <use xlink:href="#DejaVuSans-3d" transform="translate(1842.960938 0)"/>
     <use xlink:href="#DejaVuSans-31" transform="translate(1926.75 0)"/>
     <use xlink:href="#DejaVuSans-32" transform="translate(1990.373047 0)"/>
     <use xlink:href="#DejaVuSans-30" transform="translate(2053.996094 0)"/>
     <use xlink:href="#DejaVuSans-30" transform="translate(2117.619141 0)"/>
     <use xlink:href="#DejaVuSans-20" transform="translate(2181.242188 0)"/>
     <use xlink:href="#DejaVuSans-28" transform="translate(2213.029297 0)"/>
     <use xlink:href="#DejaVuSans-33" transform="translate(2252.042969 0)"/>
     <use xlink:href="#DejaVuSans-30" transform="translate(2315.666016 0)"/>
     <use xlink:href="#DejaVuSans-30" transform="translate(2379.289062 0)"/>
     <use xlink:href="#DejaVuSans-2e" transform="translate(2442.912109 0)"/>
     <use xlink:href="#DejaVuSans-30" transform="translate(2474.699219 0)"/>
     <use xlink:href="#DejaVuSans-73" transform="translate(2538.322266 0)"/>
     <use xlink:href="#DejaVuSans-29" transform="translate(2590.421875 0)"/>
    </g>
    <!-- Remove: Total=0.00%, Thr=0.00%, Med=0.00%, Vel=0.00%, Temp=0.00% -->
    <g transform="translate(262.5175 42.14925) scale(0.1 -0.1)">
     <defs>
      <path id="DejaVuSans-52" d="M 2841 2188 
Q 3044 2119 3236 1894 
Q 3428 1669 3622 1275 
L 4263 0 
L 3584 0 
L 2988 1197 
Q 2756 1666 2539 1819 
Q 2322 1972 1947 1972 
L 1259 1972 
L 1259 0 
L 628 0 
L 628 4666 
L 2053 4666 
Q 2853 4666 3247 4331 
Q 3641 3997 3641 3322 
Q 3641 2881 3436 2590 
Q 3231 2300 2841 2188 
z
M 1259 4147 
L 1259 2491 
L 2053 2491 
Q 2509 2491 2742 2702 
Q 2975 2913 2975 3322 
Q 2975 3731 2742 3939 
Q 2509 4147 2053 4147 
L 1259 4147 
z
" transform="scale(0.015625)"/>
      <path id="DejaVuSans-76" d="M 191 3500 
L 800 3500 
L 1894 563 
L 2988 3500 
L 3597 3500 
L 2284 0 
L 1503 0 
L 191 3500 
z
" transform="scale(0.015625)"/>
      <path id="DejaVuSans-25" d="M 4653 2053 
Q 4381 2053 4226 1822 
Q 4072 1591 4072 1178 
Q 4072 772 4226 539 
Q 4381 306 4653 306 
Q 4919 306 5073 539 
Q 5228 772 5228 1178 
Q 5228 1588 5073 1820 
Q 4919 2053 4653 2053 
z
M 4653 2450 
Q 5147 2450 5437 2106 
Q 5728 1763 5728 1178 
Q 5728 594 5436 251 
Q 5144 -91 4653 -91 
Q 4153 -91 3862 251 
Q 3572 594 3572 1178 
Q 3572 1766 3864 2108 
Q 4156 2450 4653 2450 
z
M 1428 4353 
Q 1159 4353 1004 4120 
Q 850 3888 850 3481 
Q 850 3069 1003 2837 
Q 1156 2606 1428 2606 
Q 1700 2606 1854 2837 
Q 2009 3069 2009 3481 
Q 2009 3884 1853 4118 
Q 1697 4353 1428 4353 
z
M 4250 4750 
L 4750 4750 
L 1831 -91 
L 1331 -91 
L 4250 4750 
z
M 1428 4750 
Q 1922 4750 2215 4408 
Q 2509 4066 2509 3481 
Q 2509 2891 2217 2550 
Q 1925 2209 1428 2209 
Q 931 2209 642 2551 
Q 353 2894 353 3481 
Q 353 4063 643 4406 
Q 934 4750 1428 4750 
z
" transform="scale(0.015625)"/>
      <path id="DejaVuSans-4d" d="M 628 4666 
L 1569 4666 
L 2759 1491 
L 3956 4666 
L 4897 4666 
L 4897 0 
L 4281 0 
L 4281 4097 
L 3078 897 
L 2444 897 
L 1241 4097 
L 1241 0 
L 628 0 
L 628 4666 
z
" transform="scale(0.015625)"/>
      <path id="DejaVuSans-56" d="M 1831 0 
L 50 4666 
L 709 4666 
L 2188 738 
L 3669 4666 
L 4325 4666 
L 2547 0 
L 1831 0 
z
" transform="scale(0.015625)"/>
     </defs>
     <use xlink:href="#DejaVuSans-52"/>
     <use xlink:href="#DejaVuSans-65" transform="translate(64.982422 0)"/>
     <use xlink:href="#DejaVuSans-6d" transform="translate(126.505859 0)"/>
     <use xlink:href="#DejaVuSans-6f" transform="translate(223.917969 0)"/>
     <use xlink:href="#DejaVuSans-76" transform="translate(285.099609 0)"/>
     <use xlink:href="#DejaVuSans-65" transform="translate(344.279297 0)"/>
     <use xlink:href="#DejaVuSans-3a" transform="translate(405.802734 0)"/>
     <use xlink:href="#DejaVuSans-20" transform="translate(439.494141 0)"/>
     <use xlink:href="#DejaVuSans-54" transform="translate(471.28125 0)"/>
     <use xlink:href="#DejaVuSans-6f" transform="translate(515.365234 0)"/>
     <use xlink:href="#DejaVuSans-74" transform="translate(576.546875 0)"/>
     <use xlink:href="#DejaVuSans-61" transform="translate(615.755859 0)"/>
     <use xlink:href="#DejaVuSans-6c" transform="translate(677.035156 0)"/>
     <use xlink:href="#DejaVuSans-3d" transform="translate(704.818359 0)"/>
     <use xlink:href="#DejaVuSans-30" transform="translate(788.607422 0)"/>
     <use xlink:href="#DejaVuSans-2e" transform="translate(852.230469 0)"/>
     <use xlink:href="#DejaVuSans-30" transform="translate(884.017578 0)"/>
     <use xlink:href="#DejaVuSans-30" transform="translate(947.640625 0)"/>
     <use xlink:href="#DejaVuSans-25" transform="translate(1011.263672 0)"/>
     <use xlink:href="#DejaVuSans-2c" transform="translate(1106.283203 0)"/>
     <use xlink:href="#DejaVuSans-20" transform="translate(1138.070312 0)"/>
     <use xlink:href="#DejaVuSans-54" transform="translate(1169.857422 0)"/>
     <use xlink:href="#DejaVuSans-68" transform="translate(1230.941406 0)"/>
     <use xlink:href="#DejaVuSans-72" transform="translate(1294.320312 0)"/>
     <use xlink:href="#DejaVuSans-3d" transform="translate(1335.433594 0)"/>
     <use xlink:href="#DejaVuSans-30" transform="translate(1419.222656 0)"/>
     <use xlink:href="#DejaVuSans-2e" transform="translate(1482.845703 0)"/>
     <use xlink:href="#DejaVuSans-30" transform="translate(1514.632812 0)"/>
     <use xlink:href="#DejaVuSans-30" transform="translate(1578.255859 0)"/>
     <use xlink:href="#DejaVuSans-25" transform="translate(1641.878906 0)"/>
     <use xlink:href="#DejaVuSans-2c" transform="translate(1736.898438 0)"/>
     <use xlink:href="#DejaVuSans-20" transform="translate(1768.685547 0)"/>
     <use xlink:href="#DejaVuSans-4d" transform="translate(1800.472656 0)"/>
     <use xlink:href="#DejaVuSans-65" transform="translate(1886.751953 0)"/>
     <use xlink:href="#DejaVuSans-64" transform="translate(1948.275391 0)"/>
     <use xlink:href="#DejaVuSans-3d" transform="translate(2011.751953 0)"/>
     <use xlink:href="#DejaVuSans-30" transform="translate(2095.541016 0)"/>
     <use xlink:href="#DejaVuSans-2e" transform="translate(2159.164062 0)"/>
     <use xlink:href="#DejaVuSans-30" transform="translate(2190.951172 0)"/>
     <use xlink:href="#DejaVuSans-30" transform="translate(2254.574219 0)"/>
     <use xlink:href="#DejaVuSans-25" transform="translate(2318.197266 0)"/>
     <use xlink:href="#DejaVuSans-2c" transform="translate(2413.216797 0)"/>
     <use xlink:href="#DejaVuSans-20" transform="translate(2445.003906 0)"/>
     <use xlink:href="#DejaVuSans-56" transform="translate(2476.791016 0)"/>
     <use xlink:href="#DejaVuSans-65" transform="translate(2537.449219 0)"/>
     <use xlink:href="#DejaVuSans-6c" transform="translate(2598.972656 0)"/>
     <use xlink:href="#DejaVuSans-3d" transform="translate(2626.755859 0)"/>
     <use xlink:href="#DejaVuSans-30" transform="translate(2710.544922 0)"/>
     <use xlink:href="#DejaVuSans-2e" transform="translate(2774.167969 0)"/>
     <use xlink:href="#DejaVuSans-30" transform="translate(2805.955078 0)"/>
     <use xlink:href="#DejaVuSans-30" transform="translate(2869.578125 0)"/>
     <use xlink:href="#DejaVuSans-25" transform="translate(2933.201172 0)"/>
     <use xlink:href="#DejaVuSans-2c" transform="translate(3028.220703 0)"/>
     <use xlink:href="#DejaVuSans-20" transform="translate(3060.007812 0)"/>
     <use xlink:href="#DejaVuSans-54" transform="translate(3091.794922 0)"/>
     <use xlink:href="#DejaVuSans-65" transform="translate(3135.878906 0)"/>
     <use xlink:href="#DejaVuSans-6d" transform="translate(3197.402344 0)"/>
     <use xlink:href="#DejaVuSans-70" transform="translate(3294.814453 0)"/>
     <use xlink:href="#DejaVuSans-3d" transform="translate(3358.291016 0)"/>
     <use xlink:href="#DejaVuSans-30" transform="translate(3442.080078 0)"/>
     <use xlink:href="#DejaVuSans-2e" transform="translate(3505.703125 0)"/>
     <use xlink:href="#DejaVuSans-30" transform="translate(3537.490234 0)"/>
     <use xlink:href="#DejaVuSans-30" transform="translate(3601.113281 0)"/>
     <use xlink:href="#DejaVuSans-25" transform="translate(3664.736328 0)"/>
    </g>
   </g>
   <g id="legend_1">
    <g id="patch_7">
     <path d="M 791.720313 70.827375 
L 846.2 70.827375 
Q 848.2 70.827375 848.2 68.827375 
L 848.2 55.14925 
Q 848.2 53.14925 846.2 53.14925 
L 791.720313 53.14925 
Q 789.720313 53.14925 789.720313 55.14925 
L 789.720313 68.827375 
Q 789.720313 70.827375 791.720313 70.827375 
z
" style="fill: #ffffff; opacity: 0.8; stroke: #cccccc; stroke-linejoin: miter"/>
    </g>
    <g id="line2d_32">
     <path d="M 793.720313 61.247687 
L 803.720313 61.247687 
L 813.720313 61.247687 
" style="fill: none; stroke: #0000ff; stroke-width: 0.5; stroke-linecap: square"/>
    </g>
    <g id="text_19">
     <!-- Kept -->
     <g transform="translate(821.720313 64.747687) scale(0.1 -0.1)">
      <defs>
       <path id="DejaVuSans-4b" d="M 628 4666 
L 1259 4666 
L 1259 2694 
L 3353 4666 
L 4166 4666 
L 1850 2491 
L 4331 0 
L 3500 0 
L 1259 2247 
L 1259 0 
L 628 0 
L 628 4666 
z
" transform="scale(0.015625)"/>
      </defs>
      <use xlink:href="#DejaVuSans-4b"/>
      <use xlink:href="#DejaVuSans-65" transform="translate(60.576172 0)"/>
      <use xlink:href="#DejaVuSans-70" transform="translate(122.099609 0)"/>
      <use xlink:href="#DejaVuSans-74" transform="translate(185.576172 0)"/>
     </g>
    </g>
   </g>
  </g>
 </g>
 <defs>
  <clipPath id="p3dd6358d52">
   <rect x="47.81" y="48.14925" width="805.39" height="485.89075"/>
  </clipPath>
 </defs>
</svg>
