<?xml version="1.0" encoding="utf-8" standalone="no"?>
<!DOCTYPE svg PUBLIC "-//W3C//DTD SVG 1.1//EN"
  "http://www.w3.org/Graphics/SVG/1.1/DTD/svg11.dtd">
<svg xmlns:xlink="http://www.w3.org/1999/xlink" width="864pt" height="576pt" viewBox="0 0 864 576" xmlns="http://www.w3.org/2000/svg" version="1.1">
 <metadata>
  <rdf:RDF xmlns:dc="http://purl.org/dc/elements/1.1/" xmlns:cc="http://creativecommons.org/ns#" xmlns:rdf="http://www.w3.org/1999/02/22-rdf-syntax-ns#">
   <cc:Work>
    <dc:type rdf:resource="http://purl.org/dc/dcmitype/StillImage"/>
    <dc:date>2025-10-09T19:21:19.685840</dc:date>
    <dc:format>image/svg+xml</dc:format>
    <dc:creator>
     <cc:Agent>
      <dc:title>Matplotlib v3.10.0, https://matplotlib.org/</dc:title>
     </cc:Agent>
    </dc:creator>
   </cc:Work>
  </rdf:RDF>
 </metadata>
 <defs>
  <style type="text/css">*{stroke-linejoin: round; stroke-linecap: butt}</style>
 </defs>
 <g id="figure_1">
  <g id="patch_1">
   <path d="M 0 576 
L 864 576 
L 864 0 
L 0 0 
z
" style="fill: #ffffff"/>
  </g>
  <g id="axes_1">
   <g id="patch_2">
    <path d="M 54.2 534.04 
L 853.2 534.04 
L 853.2 48.14925 
L 54.2 48.14925 
z
" style="fill: #ffffff"/>
   </g>
   <g id="matplotlib.axis_1">
    <g id="xtick_1">
     <g id="line2d_1">
      <path d="M 90.518182 534.04 
L 90.518182 48.14925 
" clip-path="url(#paab76d803c)" style="fill: none; stroke: #b0b0b0; stroke-opacity: 0.3; stroke-width: 0.8; stroke-linecap: square"/>
     </g>
     <g id="line2d_2">
      <defs>
       <path id="m9896e15ac1" d="M 0 0 
L 0 3.5 
" style="stroke: #000000; stroke-width: 0.8"/>
      </defs>
      <g>
       <use xlink:href="#m9896e15ac1" x="90.518182" y="534.04" style="stroke: #000000; stroke-width: 0.8"/>
      </g>
     </g>
     <g id="text_1">
      <!-- 0 -->
      <g transform="translate(87.336932 548.638438) scale(0.1 -0.1)">
       <defs>
        <path id="DejaVuSans-30" d="M 2034 4250 
Q 1547 4250 1301 3770 
Q 1056 3291 1056 2328 
Q 1056 1369 1301 889 
Q 1547 409 2034 409 
Q 2525 409 2770 889 
Q 3016 1369 3016 2328 
Q 3016 3291 2770 3770 
Q 2525 4250 2034 4250 
z
M 2034 4750 
Q 2819 4750 3233 4129 
Q 3647 3509 3647 2328 
Q 3647 1150 3233 529 
Q 2819 -91 2034 -91 
Q 1250 -91 836 529 
Q 422 1150 422 2328 
Q 422 3509 836 4129 
Q 1250 4750 2034 4750 
z
" transform="scale(0.015625)"/>
       </defs>
       <use xlink:href="#DejaVuSans-30"/>
      </g>
     </g>
    </g>
    <g id="xtick_2">
     <g id="line2d_3">
      <path d="M 187.393576 534.04 
L 187.393576 48.14925 
" clip-path="url(#paab76d803c)" style="fill: none; stroke: #b0b0b0; stroke-opacity: 0.3; stroke-width: 0.8; stroke-linecap: square"/>
     </g>
     <g id="line2d_4">
      <g>
       <use xlink:href="#m9896e15ac1" x="187.393576" y="534.04" style="stroke: #000000; stroke-width: 0.8"/>
      </g>
     </g>
     <g id="text_2">
      <!-- 2 -->
      <g transform="translate(184.212326 548.638438) scale(0.1 -0.1)">
       <defs>
        <path id="DejaVuSans-32" d="M 1228 531 
L 3431 531 
L 3431 0 
L 469 0 
L 469 531 
Q 828 903 1448 1529 
Q 2069 2156 2228 2338 
Q 2531 2678 2651 2914 
Q 2772 3150 2772 3378 
Q 2772 3750 2511 3984 
Q 2250 4219 1831 4219 
Q 1534 4219 1204 4116 
Q 875 4013 500 3803 
L 500 4441 
Q 881 4594 1212 4672 
Q 1544 4750 1819 4750 
Q 2544 4750 2975 4387 
Q 3406 4025 3406 3419 
Q 3406 3131 3298 2873 
Q 3191 2616 2906 2266 
Q 2828 2175 2409 1742 
Q 1991 1309 1228 531 
z
" transform="scale(0.015625)"/>
       </defs>
       <use xlink:href="#DejaVuSans-32"/>
      </g>
     </g>
    </g>
    <g id="xtick_3">
     <g id="line2d_5">
      <path d="M 284.268971 534.04 
L 284.268971 48.14925 
" clip-path="url(#paab76d803c)" style="fill: none; stroke: #b0b0b0; stroke-opacity: 0.3; stroke-width: 0.8; stroke-linecap: square"/>
     </g>
     <g id="line2d_6">
      <g>
       <use xlink:href="#m9896e15ac1" x="284.268971" y="534.04" style="stroke: #000000; stroke-width: 0.8"/>
      </g>
     </g>
     <g id="text_3">
      <!-- 4 -->
      <g transform="translate(281.087721 548.638438) scale(0.1 -0.1)">
       <defs>
        <path id="DejaVuSans-34" d="M 2419 4116 
L 825 1625 
L 2419 1625 
L 2419 4116 
z
M 2253 4666 
L 3047 4666 
L 3047 1625 
L 3713 1625 
L 3713 1100 
L 3047 1100 
L 3047 0 
L 2419 0 
L 2419 1100 
L 313 1100 
L 313 1709 
L 2253 4666 
z
" transform="scale(0.015625)"/>
       </defs>
       <use xlink:href="#DejaVuSans-34"/>
      </g>
     </g>
    </g>
    <g id="xtick_4">
     <g id="line2d_7">
      <path d="M 381.144366 534.04 
L 381.144366 48.14925 
" clip-path="url(#paab76d803c)" style="fill: none; stroke: #b0b0b0; stroke-opacity: 0.3; stroke-width: 0.8; stroke-linecap: square"/>
     </g>
     <g id="line2d_8">
      <g>
       <use xlink:href="#m9896e15ac1" x="381.144366" y="534.04" style="stroke: #000000; stroke-width: 0.8"/>
      </g>
     </g>
     <g id="text_4">
      <!-- 6 -->
      <g transform="translate(377.963116 548.638438) scale(0.1 -0.1)">
       <defs>
        <path id="DejaVuSans-36" d="M 2113 2584 
Q 1688 2584 1439 2293 
Q 1191 2003 1191 1497 
Q 1191 994 1439 701 
Q 1688 409 2113 409 
Q 2538 409 2786 701 
Q 3034 994 3034 1497 
Q 3034 2003 2786 2293 
Q 2538 2584 2113 2584 
z
M 3366 4563 
L 3366 3988 
Q 3128 4100 2886 4159 
Q 2644 4219 2406 4219 
Q 1781 4219 1451 3797 
Q 1122 3375 1075 2522 
Q 1259 2794 1537 2939 
Q 1816 3084 2150 3084 
Q 2853 3084 3261 2657 
Q 3669 2231 3669 1497 
Q 3669 778 3244 343 
Q 2819 -91 2113 -91 
Q 1303 -91 875 529 
Q 447 1150 447 2328 
Q 447 3434 972 4092 
Q 1497 4750 2381 4750 
Q 2619 4750 2861 4703 
Q 3103 4656 3366 4563 
z
" transform="scale(0.015625)"/>
       </defs>
       <use xlink:href="#DejaVuSans-36"/>
      </g>
     </g>
    </g>
    <g id="xtick_5">
     <g id="line2d_9">
      <path d="M 478.019761 534.04 
L 478.019761 48.14925 
" clip-path="url(#paab76d803c)" style="fill: none; stroke: #b0b0b0; stroke-opacity: 0.3; stroke-width: 0.8; stroke-linecap: square"/>
     </g>
     <g id="line2d_10">
      <g>
       <use xlink:href="#m9896e15ac1" x="478.019761" y="534.04" style="stroke: #000000; stroke-width: 0.8"/>
      </g>
     </g>
     <g id="text_5">
      <!-- 8 -->
      <g transform="translate(474.838511 548.638438) scale(0.1 -0.1)">
       <defs>
        <path id="DejaVuSans-38" d="M 2034 2216 
Q 1584 2216 1326 1975 
Q 1069 1734 1069 1313 
Q 1069 891 1326 650 
Q 1584 409 2034 409 
Q 2484 409 2743 651 
Q 3003 894 3003 1313 
Q 3003 1734 2745 1975 
Q 2488 2216 2034 2216 
z
M 1403 2484 
Q 997 2584 770 2862 
Q 544 3141 544 3541 
Q 544 4100 942 4425 
Q 1341 4750 2034 4750 
Q 2731 4750 3128 4425 
Q 3525 4100 3525 3541 
Q 3525 3141 3298 2862 
Q 3072 2584 2669 2484 
Q 3125 2378 3379 2068 
Q 3634 1759 3634 1313 
Q 3634 634 3220 271 
Q 2806 -91 2034 -91 
Q 1263 -91 848 271 
Q 434 634 434 1313 
Q 434 1759 690 2068 
Q 947 2378 1403 2484 
z
M 1172 3481 
Q 1172 3119 1398 2916 
Q 1625 2713 2034 2713 
Q 2441 2713 2670 2916 
Q 2900 3119 2900 3481 
Q 2900 3844 2670 4047 
Q 2441 4250 2034 4250 
Q 1625 4250 1398 4047 
Q 1172 3844 1172 3481 
z
" transform="scale(0.015625)"/>
       </defs>
       <use xlink:href="#DejaVuSans-38"/>
      </g>
     </g>
    </g>
    <g id="xtick_6">
     <g id="line2d_11">
      <path d="M 574.895155 534.04 
L 574.895155 48.14925 
" clip-path="url(#paab76d803c)" style="fill: none; stroke: #b0b0b0; stroke-opacity: 0.3; stroke-width: 0.8; stroke-linecap: square"/>
     </g>
     <g id="line2d_12">
      <g>
       <use xlink:href="#m9896e15ac1" x="574.895155" y="534.04" style="stroke: #000000; stroke-width: 0.8"/>
      </g>
     </g>
     <g id="text_6">
      <!-- 10 -->
      <g transform="translate(568.532655 548.638438) scale(0.1 -0.1)">
       <defs>
        <path id="DejaVuSans-31" d="M 794 531 
L 1825 531 
L 1825 4091 
L 703 3866 
L 703 4441 
L 1819 4666 
L 2450 4666 
L 2450 531 
L 3481 531 
L 3481 0 
L 794 0 
L 794 531 
z
" transform="scale(0.015625)"/>
       </defs>
       <use xlink:href="#DejaVuSans-31"/>
       <use xlink:href="#DejaVuSans-30" transform="translate(63.623047 0)"/>
      </g>
     </g>
    </g>
    <g id="xtick_7">
     <g id="line2d_13">
      <path d="M 671.77055 534.04 
L 671.77055 48.14925 
" clip-path="url(#paab76d803c)" style="fill: none; stroke: #b0b0b0; stroke-opacity: 0.3; stroke-width: 0.8; stroke-linecap: square"/>
     </g>
     <g id="line2d_14">
      <g>
       <use xlink:href="#m9896e15ac1" x="671.77055" y="534.04" style="stroke: #000000; stroke-width: 0.8"/>
      </g>
     </g>
     <g id="text_7">
      <!-- 12 -->
      <g transform="translate(665.40805 548.638438) scale(0.1 -0.1)">
       <use xlink:href="#DejaVuSans-31"/>
       <use xlink:href="#DejaVuSans-32" transform="translate(63.623047 0)"/>
      </g>
     </g>
    </g>
    <g id="xtick_8">
     <g id="line2d_15">
      <path d="M 768.645945 534.04 
L 768.645945 48.14925 
" clip-path="url(#paab76d803c)" style="fill: none; stroke: #b0b0b0; stroke-opacity: 0.3; stroke-width: 0.8; stroke-linecap: square"/>
     </g>
     <g id="line2d_16">
      <g>
       <use xlink:href="#m9896e15ac1" x="768.645945" y="534.04" style="stroke: #000000; stroke-width: 0.8"/>
      </g>
     </g>
     <g id="text_8">
      <!-- 14 -->
      <g transform="translate(762.283445 548.638438) scale(0.1 -0.1)">
       <use xlink:href="#DejaVuSans-31"/>
       <use xlink:href="#DejaVuSans-34" transform="translate(63.623047 0)"/>
      </g>
     </g>
    </g>
    <g id="text_9">
     <!-- Time (minutes) -->
     <g transform="translate(415.7375 562.316563) scale(0.1 -0.1)">
      <defs>
       <path id="DejaVuSans-54" d="M -19 4666 
L 3928 4666 
L 3928 4134 
L 2272 4134 
L 2272 0 
L 1638 0 
L 1638 4134 
L -19 4134 
L -19 4666 
z
" transform="scale(0.015625)"/>
       <path id="DejaVuSans-69" d="M 603 3500 
L 1178 3500 
L 1178 0 
L 603 0 
L 603 3500 
z
M 603 4863 
L 1178 4863 
L 1178 4134 
L 603 4134 
L 603 4863 
z
" transform="scale(0.015625)"/>
       <path id="DejaVuSans-6d" d="M 3328 2828 
Q 3544 3216 3844 3400 
Q 4144 3584 4550 3584 
Q 5097 3584 5394 3201 
Q 5691 2819 5691 2113 
L 5691 0 
L 5113 0 
L 5113 2094 
Q 5113 2597 4934 2840 
Q 4756 3084 4391 3084 
Q 3944 3084 3684 2787 
Q 3425 2491 3425 1978 
L 3425 0 
L 2847 0 
L 2847 2094 
Q 2847 2600 2669 2842 
Q 2491 3084 2119 3084 
Q 1678 3084 1418 2786 
Q 1159 2488 1159 1978 
L 1159 0 
L 581 0 
L 581 3500 
L 1159 3500 
L 1159 2956 
Q 1356 3278 1631 3431 
Q 1906 3584 2284 3584 
Q 2666 3584 2933 3390 
Q 3200 3197 3328 2828 
z
" transform="scale(0.015625)"/>
       <path id="DejaVuSans-65" d="M 3597 1894 
L 3597 1613 
L 953 1613 
Q 991 1019 1311 708 
Q 1631 397 2203 397 
Q 2534 397 2845 478 
Q 3156 559 3463 722 
L 3463 178 
Q 3153 47 2828 -22 
Q 2503 -91 2169 -91 
Q 1331 -91 842 396 
Q 353 884 353 1716 
Q 353 2575 817 3079 
Q 1281 3584 2069 3584 
Q 2775 3584 3186 3129 
Q 3597 2675 3597 1894 
z
M 3022 2063 
Q 3016 2534 2758 2815 
Q 2500 3097 2075 3097 
Q 1594 3097 1305 2825 
Q 1016 2553 972 2059 
L 3022 2063 
z
" transform="scale(0.015625)"/>
       <path id="DejaVuSans-20" transform="scale(0.015625)"/>
       <path id="DejaVuSans-28" d="M 1984 4856 
Q 1566 4138 1362 3434 
Q 1159 2731 1159 2009 
Q 1159 1288 1364 580 
Q 1569 -128 1984 -844 
L 1484 -844 
Q 1016 -109 783 600 
Q 550 1309 550 2009 
Q 550 2706 781 3412 
Q 1013 4119 1484 4856 
L 1984 4856 
z
" transform="scale(0.015625)"/>
       <path id="DejaVuSans-6e" d="M 3513 2113 
L 3513 0 
L 2938 0 
L 2938 2094 
Q 2938 2591 2744 2837 
Q 2550 3084 2163 3084 
Q 1697 3084 1428 2787 
Q 1159 2491 1159 1978 
L 1159 0 
L 581 0 
L 581 3500 
L 1159 3500 
L 1159 2956 
Q 1366 3272 1645 3428 
Q 1925 3584 2291 3584 
Q 2894 3584 3203 3211 
Q 3513 2838 3513 2113 
z
" transform="scale(0.015625)"/>
       <path id="DejaVuSans-75" d="M 544 1381 
L 544 3500 
L 1119 3500 
L 1119 1403 
Q 1119 906 1312 657 
Q 1506 409 1894 409 
Q 2359 409 2629 706 
Q 2900 1003 2900 1516 
L 2900 3500 
L 3475 3500 
L 3475 0 
L 2900 0 
L 2900 538 
Q 2691 219 2414 64 
Q 2138 -91 1772 -91 
Q 1169 -91 856 284 
Q 544 659 544 1381 
z
M 1991 3584 
L 1991 3584 
z
" transform="scale(0.015625)"/>
       <path id="DejaVuSans-74" d="M 1172 4494 
L 1172 3500 
L 2356 3500 
L 2356 3053 
L 1172 3053 
L 1172 1153 
Q 1172 725 1289 603 
Q 1406 481 1766 481 
L 2356 481 
L 2356 0 
L 1766 0 
Q 1100 0 847 248 
Q 594 497 594 1153 
L 594 3053 
L 172 3053 
L 172 3500 
L 594 3500 
L 594 4494 
L 1172 4494 
z
" transform="scale(0.015625)"/>
       <path id="DejaVuSans-73" d="M 2834 3397 
L 2834 2853 
Q 2591 2978 2328 3040 
Q 2066 3103 1784 3103 
Q 1356 3103 1142 2972 
Q 928 2841 928 2578 
Q 928 2378 1081 2264 
Q 1234 2150 1697 2047 
L 1894 2003 
Q 2506 1872 2764 1633 
Q 3022 1394 3022 966 
Q 3022 478 2636 193 
Q 2250 -91 1575 -91 
Q 1294 -91 989 -36 
Q 684 19 347 128 
L 347 722 
Q 666 556 975 473 
Q 1284 391 1588 391 
Q 1994 391 2212 530 
Q 2431 669 2431 922 
Q 2431 1156 2273 1281 
Q 2116 1406 1581 1522 
L 1381 1569 
Q 847 1681 609 1914 
Q 372 2147 372 2553 
Q 372 3047 722 3315 
Q 1072 3584 1716 3584 
Q 2034 3584 2315 3537 
Q 2597 3491 2834 3397 
z
" transform="scale(0.015625)"/>
       <path id="DejaVuSans-29" d="M 513 4856 
L 1013 4856 
Q 1481 4119 1714 3412 
Q 1947 2706 1947 2009 
Q 1947 1309 1714 600 
Q 1481 -109 1013 -844 
L 513 -844 
Q 928 -128 1133 580 
Q 1338 1288 1338 2009 
Q 1338 2731 1133 3434 
Q 928 4138 513 4856 
z
" transform="scale(0.015625)"/>
      </defs>
      <use xlink:href="#DejaVuSans-54"/>
      <use xlink:href="#DejaVuSans-69" transform="translate(57.958984 0)"/>
      <use xlink:href="#DejaVuSans-6d" transform="translate(85.742188 0)"/>
      <use xlink:href="#DejaVuSans-65" transform="translate(183.154297 0)"/>
      <use xlink:href="#DejaVuSans-20" transform="translate(244.677734 0)"/>
      <use xlink:href="#DejaVuSans-28" transform="translate(276.464844 0)"/>
      <use xlink:href="#DejaVuSans-6d" transform="translate(315.478516 0)"/>
      <use xlink:href="#DejaVuSans-69" transform="translate(412.890625 0)"/>
      <use xlink:href="#DejaVuSans-6e" transform="translate(440.673828 0)"/>
      <use xlink:href="#DejaVuSans-75" transform="translate(504.052734 0)"/>
      <use xlink:href="#DejaVuSans-74" transform="translate(567.431641 0)"/>
      <use xlink:href="#DejaVuSans-65" transform="translate(606.640625 0)"/>
      <use xlink:href="#DejaVuSans-73" transform="translate(668.164062 0)"/>
      <use xlink:href="#DejaVuSans-29" transform="translate(720.263672 0)"/>
     </g>
    </g>
   </g>
   <g id="matplotlib.axis_2">
    <g id="ytick_1">
     <g id="line2d_17">
      <path d="M 54.2 499.738399 
L 853.2 499.738399 
" clip-path="url(#paab76d803c)" style="fill: none; stroke: #b0b0b0; stroke-opacity: 0.3; stroke-width: 0.8; stroke-linecap: square"/>
     </g>
     <g id="line2d_18">
      <defs>
       <path id="m2a39cca988" d="M 0 0 
L -3.5 0 
" style="stroke: #000000; stroke-width: 0.8"/>
      </defs>
      <g>
       <use xlink:href="#m2a39cca988" x="54.2" y="499.738399" style="stroke: #000000; stroke-width: 0.8"/>
      </g>
     </g>
     <g id="text_10">
      <!-- 0.52 -->
      <g transform="translate(24.934375 503.537618) scale(0.1 -0.1)">
       <defs>
        <path id="DejaVuSans-2e" d="M 684 794 
L 1344 794 
L 1344 0 
L 684 0 
L 684 794 
z
" transform="scale(0.015625)"/>
        <path id="DejaVuSans-35" d="M 691 4666 
L 3169 4666 
L 3169 4134 
L 1269 4134 
L 1269 2991 
Q 1406 3038 1543 3061 
Q 1681 3084 1819 3084 
Q 2600 3084 3056 2656 
Q 3513 2228 3513 1497 
Q 3513 744 3044 326 
Q 2575 -91 1722 -91 
Q 1428 -91 1123 -41 
Q 819 9 494 109 
L 494 744 
Q 775 591 1075 516 
Q 1375 441 1709 441 
Q 2250 441 2565 725 
Q 2881 1009 2881 1497 
Q 2881 1984 2565 2268 
Q 2250 2553 1709 2553 
Q 1456 2553 1204 2497 
Q 953 2441 691 2322 
L 691 4666 
z
" transform="scale(0.015625)"/>
       </defs>
       <use xlink:href="#DejaVuSans-30"/>
       <use xlink:href="#DejaVuSans-2e" transform="translate(63.623047 0)"/>
       <use xlink:href="#DejaVuSans-35" transform="translate(95.410156 0)"/>
       <use xlink:href="#DejaVuSans-32" transform="translate(159.033203 0)"/>
      </g>
     </g>
    </g>
    <g id="ytick_2">
     <g id="line2d_19">
      <path d="M 54.2 434.147743 
L 853.2 434.147743 
" clip-path="url(#paab76d803c)" style="fill: none; stroke: #b0b0b0; stroke-opacity: 0.3; stroke-width: 0.8; stroke-linecap: square"/>
     </g>
     <g id="line2d_20">
      <g>
       <use xlink:href="#m2a39cca988" x="54.2" y="434.147743" style="stroke: #000000; stroke-width: 0.8"/>
      </g>
     </g>
     <g id="text_11">
      <!-- 0.53 -->
      <g transform="translate(24.934375 437.946962) scale(0.1 -0.1)">
       <defs>
        <path id="DejaVuSans-33" d="M 2597 2516 
Q 3050 2419 3304 2112 
Q 3559 1806 3559 1356 
Q 3559 666 3084 287 
Q 2609 -91 1734 -91 
Q 1441 -91 1130 -33 
Q 819 25 488 141 
L 488 750 
Q 750 597 1062 519 
Q 1375 441 1716 441 
Q 2309 441 2620 675 
Q 2931 909 2931 1356 
Q 2931 1769 2642 2001 
Q 2353 2234 1838 2234 
L 1294 2234 
L 1294 2753 
L 1863 2753 
Q 2328 2753 2575 2939 
Q 2822 3125 2822 3475 
Q 2822 3834 2567 4026 
Q 2313 4219 1838 4219 
Q 1578 4219 1281 4162 
Q 984 4106 628 3988 
L 628 4550 
Q 988 4650 1302 4700 
Q 1616 4750 1894 4750 
Q 2613 4750 3031 4423 
Q 3450 4097 3450 3541 
Q 3450 3153 3228 2886 
Q 3006 2619 2597 2516 
z
" transform="scale(0.015625)"/>
       </defs>
       <use xlink:href="#DejaVuSans-30"/>
       <use xlink:href="#DejaVuSans-2e" transform="translate(63.623047 0)"/>
       <use xlink:href="#DejaVuSans-35" transform="translate(95.410156 0)"/>
       <use xlink:href="#DejaVuSans-33" transform="translate(159.033203 0)"/>
      </g>
     </g>
    </g>
    <g id="ytick_3">
     <g id="line2d_21">
      <path d="M 54.2 368.557087 
L 853.2 368.557087 
" clip-path="url(#paab76d803c)" style="fill: none; stroke: #b0b0b0; stroke-opacity: 0.3; stroke-width: 0.8; stroke-linecap: square"/>
     </g>
     <g id="line2d_22">
      <g>
       <use xlink:href="#m2a39cca988" x="54.2" y="368.557087" style="stroke: #000000; stroke-width: 0.8"/>
      </g>
     </g>
     <g id="text_12">
      <!-- 0.54 -->
      <g transform="translate(24.934375 372.356306) scale(0.1 -0.1)">
       <use xlink:href="#DejaVuSans-30"/>
       <use xlink:href="#DejaVuSans-2e" transform="translate(63.623047 0)"/>
       <use xlink:href="#DejaVuSans-35" transform="translate(95.410156 0)"/>
       <use xlink:href="#DejaVuSans-34" transform="translate(159.033203 0)"/>
      </g>
     </g>
    </g>
    <g id="ytick_4">
     <g id="line2d_23">
      <path d="M 54.2 302.966431 
L 853.2 302.966431 
" clip-path="url(#paab76d803c)" style="fill: none; stroke: #b0b0b0; stroke-opacity: 0.3; stroke-width: 0.8; stroke-linecap: square"/>
     </g>
     <g id="line2d_24">
      <g>
       <use xlink:href="#m2a39cca988" x="54.2" y="302.966431" style="stroke: #000000; stroke-width: 0.8"/>
      </g>
     </g>
     <g id="text_13">
      <!-- 0.55 -->
      <g transform="translate(24.934375 306.76565) scale(0.1 -0.1)">
       <use xlink:href="#DejaVuSans-30"/>
       <use xlink:href="#DejaVuSans-2e" transform="translate(63.623047 0)"/>
       <use xlink:href="#DejaVuSans-35" transform="translate(95.410156 0)"/>
       <use xlink:href="#DejaVuSans-35" transform="translate(159.033203 0)"/>
      </g>
     </g>
    </g>
    <g id="ytick_5">
     <g id="line2d_25">
      <path d="M 54.2 237.375775 
L 853.2 237.375775 
" clip-path="url(#paab76d803c)" style="fill: none; stroke: #b0b0b0; stroke-opacity: 0.3; stroke-width: 0.8; stroke-linecap: square"/>
     </g>
     <g id="line2d_26">
      <g>
       <use xlink:href="#m2a39cca988" x="54.2" y="237.375775" style="stroke: #000000; stroke-width: 0.8"/>
      </g>
     </g>
     <g id="text_14">
      <!-- 0.56 -->
      <g transform="translate(24.934375 241.174994) scale(0.1 -0.1)">
       <use xlink:href="#DejaVuSans-30"/>
       <use xlink:href="#DejaVuSans-2e" transform="translate(63.623047 0)"/>
       <use xlink:href="#DejaVuSans-35" transform="translate(95.410156 0)"/>
       <use xlink:href="#DejaVuSans-36" transform="translate(159.033203 0)"/>
      </g>
     </g>
    </g>
    <g id="ytick_6">
     <g id="line2d_27">
      <path d="M 54.2 171.785119 
L 853.2 171.785119 
" clip-path="url(#paab76d803c)" style="fill: none; stroke: #b0b0b0; stroke-opacity: 0.3; stroke-width: 0.8; stroke-linecap: square"/>
     </g>
     <g id="line2d_28">
      <g>
       <use xlink:href="#m2a39cca988" x="54.2" y="171.785119" style="stroke: #000000; stroke-width: 0.8"/>
      </g>
     </g>
     <g id="text_15">
      <!-- 0.57 -->
      <g transform="translate(24.934375 175.584338) scale(0.1 -0.1)">
       <defs>
        <path id="DejaVuSans-37" d="M 525 4666 
L 3525 4666 
L 3525 4397 
L 1831 0 
L 1172 0 
L 2766 4134 
L 525 4134 
L 525 4666 
z
" transform="scale(0.015625)"/>
       </defs>
       <use xlink:href="#DejaVuSans-30"/>
       <use xlink:href="#DejaVuSans-2e" transform="translate(63.623047 0)"/>
       <use xlink:href="#DejaVuSans-35" transform="translate(95.410156 0)"/>
       <use xlink:href="#DejaVuSans-37" transform="translate(159.033203 0)"/>
      </g>
     </g>
    </g>
    <g id="ytick_7">
     <g id="line2d_29">
      <path d="M 54.2 106.194463 
L 853.2 106.194463 
" clip-path="url(#paab76d803c)" style="fill: none; stroke: #b0b0b0; stroke-opacity: 0.3; stroke-width: 0.8; stroke-linecap: square"/>
     </g>
     <g id="line2d_30">
      <g>
       <use xlink:href="#m2a39cca988" x="54.2" y="106.194463" style="stroke: #000000; stroke-width: 0.8"/>
      </g>
     </g>
     <g id="text_16">
      <!-- 0.58 -->
      <g transform="translate(24.934375 109.993682) scale(0.1 -0.1)">
       <use xlink:href="#DejaVuSans-30"/>
       <use xlink:href="#DejaVuSans-2e" transform="translate(63.623047 0)"/>
       <use xlink:href="#DejaVuSans-35" transform="translate(95.410156 0)"/>
       <use xlink:href="#DejaVuSans-38" transform="translate(159.033203 0)"/>
      </g>
     </g>
    </g>
    <g id="text_17">
     <!-- EDA (μS) -->
     <g transform="translate(18.854688 313.282906) rotate(-90) scale(0.1 -0.1)">
      <defs>
       <path id="DejaVuSans-45" d="M 628 4666 
L 3578 4666 
L 3578 4134 
L 1259 4134 
L 1259 2753 
L 3481 2753 
L 3481 2222 
L 1259 2222 
L 1259 531 
L 3634 531 
L 3634 0 
L 628 0 
L 628 4666 
z
" transform="scale(0.015625)"/>
       <path id="DejaVuSans-44" d="M 1259 4147 
L 1259 519 
L 2022 519 
Q 2988 519 3436 956 
Q 3884 1394 3884 2338 
Q 3884 3275 3436 3711 
Q 2988 4147 2022 4147 
L 1259 4147 
z
M 628 4666 
L 1925 4666 
Q 3281 4666 3915 4102 
Q 4550 3538 4550 2338 
Q 4550 1131 3912 565 
Q 3275 0 1925 0 
L 628 0 
L 628 4666 
z
" transform="scale(0.015625)"/>
       <path id="DejaVuSans-41" d="M 2188 4044 
L 1331 1722 
L 3047 1722 
L 2188 4044 
z
M 1831 4666 
L 2547 4666 
L 4325 0 
L 3669 0 
L 3244 1197 
L 1141 1197 
L 716 0 
L 50 0 
L 1831 4666 
z
" transform="scale(0.015625)"/>
       <path id="DejaVuSans-3bc" d="M 544 -1331 
L 544 3500 
L 1119 3500 
L 1119 1325 
Q 1119 872 1334 640 
Q 1550 409 1972 409 
Q 2434 409 2667 671 
Q 2900 934 2900 1459 
L 2900 3500 
L 3475 3500 
L 3475 806 
Q 3475 619 3529 530 
Q 3584 441 3700 441 
Q 3728 441 3778 458 
Q 3828 475 3916 513 
L 3916 50 
Q 3788 -22 3673 -56 
Q 3559 -91 3450 -91 
Q 3234 -91 3106 31 
Q 2978 153 2931 403 
Q 2775 156 2548 32 
Q 2322 -91 2016 -91 
Q 1697 -91 1473 31 
Q 1250 153 1119 397 
L 1119 -1331 
L 544 -1331 
z
" transform="scale(0.015625)"/>
       <path id="DejaVuSans-53" d="M 3425 4513 
L 3425 3897 
Q 3066 4069 2747 4153 
Q 2428 4238 2131 4238 
Q 1616 4238 1336 4038 
Q 1056 3838 1056 3469 
Q 1056 3159 1242 3001 
Q 1428 2844 1947 2747 
L 2328 2669 
Q 3034 2534 3370 2195 
Q 3706 1856 3706 1288 
Q 3706 609 3251 259 
Q 2797 -91 1919 -91 
Q 1588 -91 1214 -16 
Q 841 59 441 206 
L 441 856 
Q 825 641 1194 531 
Q 1563 422 1919 422 
Q 2459 422 2753 634 
Q 3047 847 3047 1241 
Q 3047 1584 2836 1778 
Q 2625 1972 2144 2069 
L 1759 2144 
Q 1053 2284 737 2584 
Q 422 2884 422 3419 
Q 422 4038 858 4394 
Q 1294 4750 2059 4750 
Q 2388 4750 2728 4690 
Q 3069 4631 3425 4513 
z
" transform="scale(0.015625)"/>
      </defs>
      <use xlink:href="#DejaVuSans-45"/>
      <use xlink:href="#DejaVuSans-44" transform="translate(63.183594 0)"/>
      <use xlink:href="#DejaVuSans-41" transform="translate(138.435547 0)"/>
      <use xlink:href="#DejaVuSans-20" transform="translate(206.84375 0)"/>
      <use xlink:href="#DejaVuSans-28" transform="translate(238.630859 0)"/>
      <use xlink:href="#DejaVuSans-3bc" transform="translate(277.644531 0)"/>
      <use xlink:href="#DejaVuSans-53" transform="translate(341.267578 0)"/>
      <use xlink:href="#DejaVuSans-29" transform="translate(404.744141 0)"/>
     </g>
    </g>
   </g>
   <g id="line2d_31">
    <path d="M 90.518182 490.83369 
L 91.123821 499.849802 
L 91.527581 502.269045 
L 91.729461 502.603063 
L 92.13322 502.832583 
L 92.3351 503.170185 
L 92.73886 504.818624 
L 93.950139 511.954057 
L 94.152019 511.86396 
L 94.353899 511.189763 
L 94.757658 508.506963 
L 95.565178 502.141359 
L 96.170817 499.475776 
L 96.574577 497.406318 
L 96.978336 493.164477 
L 97.785856 483.002017 
L 97.987736 482.637088 
L 98.189615 483.71841 
L 98.593375 489.396502 
L 99.199015 498.592589 
L 99.400894 499.725326 
L 99.602774 499.661429 
L 100.410294 496.207639 
L 100.612173 496.542487 
L 101.217813 498.54991 
L 101.419693 498.375835 
L 102.025332 496.056275 
L 102.227212 496.088489 
L 102.429092 497.062717 
L 102.832852 501.304424 
L 103.236611 505.672288 
L 103.438491 506.808656 
L 103.640371 507.019991 
L 103.842251 506.422205 
L 105.05353 499.926139 
L 105.25541 499.721621 
L 105.457289 499.906804 
L 105.861049 501.19573 
L 106.264809 502.373494 
L 106.466689 502.321664 
L 106.668568 501.702649 
L 107.677968 496.270776 
L 108.081727 495.634367 
L 108.485487 495.067162 
L 109.293006 493.492835 
L 109.494886 493.392841 
L 109.696766 493.469577 
L 110.100526 494.013161 
L 110.504285 494.580788 
L 110.706165 494.59131 
L 110.908045 494.244527 
L 111.109925 493.427225 
L 111.513684 490.18375 
L 112.523084 479.767646 
L 112.724963 479.449285 
L 112.926843 480.013857 
L 113.734363 484.136766 
L 113.936242 483.708754 
L 114.340002 480.814761 
L 114.743762 477.562362 
L 114.945642 476.638771 
L 115.147521 476.356125 
L 115.349401 476.643962 
L 115.753161 478.228519 
L 116.3588 480.694705 
L 116.76256 481.485 
L 116.96444 481.505924 
L 117.16632 481.21224 
L 117.570079 479.565696 
L 118.377599 474.884119 
L 118.579478 474.741649 
L 118.781358 475.311219 
L 119.588878 479.463056 
L 119.790757 479.213646 
L 120.194517 476.924542 
L 120.598277 474.998405 
L 120.800157 475.127996 
L 121.002036 476.115803 
L 122.011436 483.875489 
L 122.213315 483.906757 
L 122.415195 483.252267 
L 123.424594 478.016258 
L 123.626474 477.881248 
L 123.828354 478.085148 
L 124.232114 479.107681 
L 125.241513 481.978484 
L 125.645273 482.448874 
L 126.049032 482.503458 
L 126.250912 482.375772 
L 126.452792 482.038433 
L 126.654672 481.370172 
L 127.058431 478.833549 
L 127.865951 472.470986 
L 128.067831 471.696595 
L 128.26971 471.513102 
L 128.47159 471.972257 
L 128.87535 474.664244 
L 129.682869 481.410792 
L 129.884749 481.808793 
L 130.086629 481.337044 
L 130.490389 477.987168 
L 131.297908 469.128087 
L 131.499788 468.243202 
L 131.701668 468.153594 
L 131.903547 468.728623 
L 132.509187 471.620214 
L 132.711067 472.046129 
L 132.912947 471.983007 
L 133.316706 470.806169 
L 133.720466 469.682826 
L 133.922346 469.608819 
L 134.326105 470.352282 
L 134.527985 470.74035 
L 134.729865 470.765872 
L 134.931745 470.218393 
L 135.335505 467.344626 
L 135.941144 462.36932 
L 136.143024 461.802712 
L 136.344904 461.979479 
L 136.748663 463.791377 
L 137.152423 465.678907 
L 137.556183 466.452322 
L 137.758063 466.483489 
L 138.161822 466.147283 
L 138.565582 465.395634 
L 139.171221 463.683661 
L 139.776861 461.386673 
L 140.3825 459.252228 
L 140.58438 459.093344 
L 140.78626 459.347552 
L 141.19002 460.917801 
L 141.795659 463.507591 
L 141.997539 463.693573 
L 142.199419 463.40586 
L 142.603179 461.706685 
L 143.208818 457.471229 
L 143.814458 450.717137 
L 144.420097 443.834868 
L 144.823857 441.988595 
L 145.025737 442.060838 
L 145.833256 444.219541 
L 146.035136 444.16253 
L 146.640775 443.371559 
L 146.842655 443.625529 
L 147.650174 446.307988 
L 147.852054 446.335605 
L 148.053934 445.938221 
L 148.457694 444.303178 
L 149.870852 437.641235 
L 150.072732 437.881499 
L 150.274612 438.793092 
L 151.082131 444.365738 
L 151.284011 444.286652 
L 151.485891 443.130776 
L 152.49529 432.581554 
L 152.69717 432.229786 
L 152.89905 432.547061 
L 153.504689 434.352313 
L 154.514089 435.986676 
L 154.715968 436.101508 
L 154.917848 435.737839 
L 155.119728 434.662723 
L 155.523488 429.780112 
L 156.129127 416.193368 
L 156.734767 402.260206 
L 157.138526 398.211087 
L 157.340406 398.407949 
L 157.542286 399.966014 
L 157.946046 405.823558 
L 158.551685 415.367769 
L 158.955445 419.324033 
L 159.359205 421.003174 
L 159.561084 421.012977 
L 159.762964 420.456554 
L 160.166724 417.862366 
L 160.772363 413.325692 
L 160.974243 412.700528 
L 161.176123 412.817936 
L 161.378003 413.693385 
L 161.781763 417.19568 
L 162.387402 423.255439 
L 162.791162 425.475028 
L 162.993042 425.856636 
L 163.194921 425.853832 
L 163.598681 425.232818 
L 164.002441 424.62615 
L 164.204321 424.5548 
L 164.4062 424.738804 
L 164.60808 425.264053 
L 165.01184 427.631945 
L 166.021239 436.621624 
L 166.223119 436.78793 
L 166.424999 435.952397 
L 167.434398 427.748137 
L 167.636278 428.00681 
L 168.040037 430.444281 
L 168.443797 432.402694 
L 168.645677 432.300346 
L 168.847557 431.425883 
L 169.655076 426.204308 
L 169.856956 425.879154 
L 170.058836 426.082231 
L 171.068235 428.903335 
L 171.270115 428.900379 
L 171.673874 428.422976 
L 172.279514 427.313255 
L 172.683274 426.015525 
L 173.288913 423.809028 
L 173.490793 423.434977 
L 173.692673 423.304533 
L 174.298312 423.350534 
L 174.500192 423.116955 
L 174.903952 422.072127 
L 175.509591 419.529774 
L 175.913351 417.035016 
L 177.32651 406.40222 
L 177.52839 406.42254 
L 177.932149 407.832182 
L 178.335909 409.334416 
L 178.537789 409.449512 
L 178.739669 408.921552 
L 179.143428 406.125643 
L 179.547188 402.881242 
L 179.749068 402.019116 
L 179.950947 401.966673 
L 180.152827 402.697546 
L 181.162226 408.718533 
L 181.364106 408.676621 
L 181.565986 408.032755 
L 181.969746 405.342998 
L 183.584784 392.207831 
L 183.786664 391.251266 
L 183.988544 390.859688 
L 184.190424 391.141261 
L 184.594184 393.514443 
L 185.199823 397.967254 
L 185.401703 398.595988 
L 185.603583 398.589819 
L 185.805463 398.026288 
L 186.612982 393.722458 
L 187.824261 387.369626 
L 188.4299 384.148878 
L 189.03554 382.148764 
L 189.641179 380.450271 
L 190.246819 377.666432 
L 190.650579 376.12226 
L 190.852458 375.915768 
L 191.054338 376.17357 
L 191.458098 377.785859 
L 192.265617 381.617334 
L 192.467497 382.120293 
L 192.669377 382.304153 
L 192.871257 382.087687 
L 193.073137 381.398694 
L 193.476896 378.624047 
L 194.082536 373.570934 
L 194.284416 372.647546 
L 194.486295 372.380664 
L 194.688175 372.777255 
L 195.091935 375.058244 
L 195.697574 378.721635 
L 195.899454 379.174511 
L 196.101334 379.158466 
L 196.908853 377.939823 
L 197.110733 378.284741 
L 197.514493 379.942538 
L 197.918253 381.782252 
L 198.120132 382.244337 
L 198.322012 382.167405 
L 198.523892 381.477032 
L 198.927652 378.567882 
L 199.331411 375.318723 
L 199.533291 374.400441 
L 199.735171 374.261998 
L 199.937051 374.902714 
L 200.74457 379.060858 
L 200.94645 378.610294 
L 201.35021 375.129831 
L 201.955849 368.328453 
L 202.157729 367.199155 
L 202.359609 366.966365 
L 202.561489 367.495029 
L 202.965248 369.315849 
L 203.167128 369.706926 
L 203.369008 369.345076 
L 203.772768 366.513915 
L 204.378407 361.340828 
L 204.580287 360.480886 
L 204.782167 360.273293 
L 204.984047 360.717913 
L 205.387806 363.036585 
L 205.791566 365.284858 
L 205.993446 365.52497 
L 206.195326 364.954653 
L 207.002845 359.814948 
L 207.204725 359.81266 
L 207.406605 360.728407 
L 208.416004 369.275193 
L 208.617884 369.629684 
L 208.819764 369.262679 
L 209.223523 366.804595 
L 210.434802 356.620498 
L 210.636682 355.853074 
L 210.838562 355.52996 
L 211.040442 355.561854 
L 211.646081 356.157983 
L 212.4536 356.270692 
L 212.85736 356.744053 
L 213.05924 356.747989 
L 213.26112 356.315341 
L 213.664879 353.743855 
L 214.472399 346.978255 
L 214.674279 346.733422 
L 214.876158 347.363185 
L 215.279918 350.652293 
L 216.087437 358.108658 
L 216.289317 358.968272 
L 216.491197 359.291384 
L 216.693077 359.117241 
L 217.096837 357.555388 
L 217.904356 353.144812 
L 218.106236 352.999215 
L 218.308116 353.654231 
L 218.711875 357.09397 
L 219.115635 360.728213 
L 219.317515 361.323295 
L 219.519395 360.730041 
L 219.923154 356.755337 
L 220.326914 352.254515 
L 220.528794 350.904356 
L 220.730674 350.381961 
L 220.932553 350.593581 
L 221.740073 353.398577 
L 221.941953 353.401817 
L 222.143832 352.905791 
L 222.547592 350.507472 
L 223.355111 344.104258 
L 223.556991 343.378629 
L 223.758871 343.198142 
L 224.364511 343.682166 
L 224.56639 343.111235 
L 224.97015 339.980953 
L 225.57579 333.733238 
L 225.979549 331.781596 
L 226.181429 331.66378 
L 226.787069 332.338678 
L 226.988948 332.184683 
L 227.392708 330.947022 
L 227.796468 329.548298 
L 227.998348 329.439518 
L 228.200227 330.014865 
L 228.603987 333.227428 
L 229.411506 341.157877 
L 229.613386 341.974264 
L 229.815266 342.141207 
L 230.017146 341.741566 
L 230.622785 338.874859 
L 231.026545 337.260847 
L 231.834064 335.297481 
L 232.237824 334.547822 
L 232.439704 334.383992 
L 232.641584 334.37553 
L 233.045343 334.722021 
L 233.449103 335.56078 
L 233.852863 337.123474 
L 234.458502 340.082577 
L 234.660382 340.600044 
L 234.862262 340.569344 
L 235.064142 339.905309 
L 235.467901 336.995188 
L 236.073541 332.108455 
L 236.477301 330.715865 
L 236.67918 330.652004 
L 237.08294 331.203985 
L 237.4867 331.710712 
L 237.68858 331.707272 
L 238.294219 331.206084 
L 238.496099 331.330987 
L 238.899859 332.425148 
L 239.303618 333.720658 
L 239.505498 333.884262 
L 239.707378 333.511151 
L 240.111138 331.266162 
L 240.716777 327.363923 
L 240.918657 326.851428 
L 241.120537 326.830398 
L 241.726176 327.856179 
L 241.928056 327.867216 
L 242.129936 327.546635 
L 242.937455 325.178565 
L 243.139335 325.198546 
L 243.341215 325.665236 
L 244.148734 328.740309 
L 244.350614 328.703546 
L 244.552494 328.158288 
L 246.975052 317.043575 
L 247.176932 317.293578 
L 247.580691 319.916199 
L 247.984451 323.019523 
L 248.186331 323.535602 
L 248.388211 322.913315 
L 248.79197 318.550911 
L 249.39761 311.301962 
L 249.59949 310.761829 
L 249.801369 311.498855 
L 250.205129 315.810021 
L 250.810769 322.552735 
L 251.012648 323.342908 
L 251.214528 323.161499 
L 251.416408 322.099104 
L 252.425807 314.311978 
L 252.627687 314.470097 
L 252.829567 315.412264 
L 253.435206 320.819773 
L 254.040846 325.628321 
L 254.242726 326.313468 
L 254.444606 326.340674 
L 254.646485 325.69212 
L 255.050245 322.866117 
L 255.655885 318.692234 
L 255.857764 318.27671 
L 256.059644 318.447464 
L 256.867164 320.522658 
L 257.069043 320.141157 
L 257.472803 317.867886 
L 258.078443 313.619221 
L 258.482202 312.236154 
L 259.289722 310.773331 
L 259.491601 310.356198 
L 259.693481 310.225338 
L 259.895361 310.621581 
L 260.097241 311.709347 
L 260.501001 315.891004 
L 261.10664 322.90523 
L 261.30852 323.811849 
L 261.5104 323.54704 
L 261.71228 322.157403 
L 262.721679 311.932592 
L 262.923559 311.630349 
L 263.529198 312.333344 
L 263.731078 311.848146 
L 263.932958 310.601313 
L 264.336717 306.13025 
L 264.942357 299.590522 
L 265.144237 299.060299 
L 265.346117 299.701559 
L 265.749876 303.77336 
L 266.355516 310.174691 
L 266.557396 310.790748 
L 266.759275 310.510508 
L 267.163035 308.305048 
L 267.566795 306.244828 
L 267.768675 305.945849 
L 267.970554 306.241917 
L 268.778074 309.388994 
L 268.979954 309.223045 
L 269.181833 308.391756 
L 269.787473 304.46118 
L 269.989353 303.978255 
L 270.191233 304.423071 
L 270.393112 305.845594 
L 270.796872 310.884075 
L 271.402511 318.947415 
L 271.806271 321.425929 
L 272.008151 321.43855 
L 272.210031 320.678592 
L 272.61379 317.484251 
L 273.21943 312.290642 
L 273.62319 310.720534 
L 273.825069 310.492229 
L 274.026949 310.48388 
L 274.632589 310.806599 
L 274.834469 310.759003 
L 275.036348 310.522586 
L 275.440108 309.486519 
L 276.247627 306.954318 
L 276.449507 306.626605 
L 276.651387 306.581141 
L 276.853267 306.910976 
L 277.257027 308.855004 
L 277.862666 312.99175 
L 278.064546 313.563138 
L 278.266426 313.303859 
L 278.468306 312.165554 
L 278.872065 307.920301 
L 279.477705 301.442815 
L 279.679585 300.400996 
L 279.881464 300.129598 
L 280.083344 300.585453 
L 280.487104 303.036746 
L 281.092743 307.140109 
L 281.496503 308.293732 
L 281.698383 308.344946 
L 281.900263 308.134969 
L 282.304022 307.224752 
L 282.909662 305.864006 
L 283.111542 305.761753 
L 283.515301 306.117104 
L 283.717181 306.329135 
L 283.919061 306.343911 
L 284.120941 306.029125 
L 284.524701 304.29716 
L 285.13034 300.890665 
L 285.33222 300.30427 
L 285.5341 300.145952 
L 285.73598 300.327346 
L 286.341619 301.228314 
L 286.745379 301.710551 
L 286.947259 302.331755 
L 287.351018 304.775543 
L 287.754778 307.616248 
L 287.956658 308.482766 
L 288.158538 308.812969 
L 288.360417 308.731609 
L 288.764177 308.335882 
L 289.369817 308.274266 
L 289.571696 307.596351 
L 289.975456 304.027412 
L 290.782975 293.438486 
L 290.984855 291.997487 
L 291.186735 291.471194 
L 291.388615 291.87969 
L 291.792375 295.023716 
L 292.398014 301.289482 
L 292.599894 302.40153 
L 292.801774 302.62811 
L 293.003654 301.981728 
L 293.811173 297.097007 
L 294.013053 297.227298 
L 294.214933 298.173633 
L 294.820572 302.417633 
L 295.022452 302.807879 
L 295.224332 302.242141 
L 295.628091 298.878905 
L 296.031851 295.382848 
L 296.233731 294.698289 
L 296.435611 294.985433 
L 296.83937 297.68589 
L 297.24313 300.446362 
L 297.44501 300.999525 
L 297.64689 300.933151 
L 298.252529 299.609002 
L 298.454409 299.803852 
L 298.858169 301.640211 
L 299.261928 303.914268 
L 299.463808 304.596811 
L 299.665688 304.871395 
L 300.473207 304.849799 
L 300.675087 305.04223 
L 300.876967 305.066878 
L 301.078847 304.638054 
L 301.280727 303.515321 
L 301.684486 298.983708 
L 302.290126 290.606356 
L 302.492006 289.155948 
L 302.693885 288.885726 
L 302.895765 289.747618 
L 303.703285 295.946139 
L 303.905164 295.865522 
L 304.107044 294.84642 
L 304.914564 288.157281 
L 305.116443 287.481485 
L 305.318323 287.450231 
L 305.520203 287.963225 
L 306.125843 291.147965 
L 306.731482 294.260322 
L 307.135242 295.256457 
L 307.337122 295.270604 
L 307.740881 294.682453 
L 308.144641 294.178252 
L 308.548401 293.983423 
L 308.75028 293.712156 
L 309.15404 292.273875 
L 310.163439 287.186895 
L 310.567199 286.585595 
L 310.769079 286.621185 
L 311.172838 287.214602 
L 311.778478 288.595804 
L 311.980358 288.809027 
L 312.182238 288.783401 
L 312.787877 288.320674 
L 312.989757 288.594209 
L 313.393517 290.146784 
L 314.604796 296.856383 
L 314.806675 297.253192 
L 315.008555 297.135089 
L 315.210435 296.489838 
L 316.017954 292.383954 
L 316.219834 292.133331 
L 316.421714 292.276794 
L 316.825474 292.702753 
L 317.027354 292.38291 
L 317.229233 291.45855 
L 318.238633 283.787149 
L 318.440512 283.740929 
L 318.642392 284.562086 
L 319.651791 291.979147 
L 319.853671 291.361158 
L 320.257431 286.705758 
L 320.86307 278.685911 
L 321.06495 278.105428 
L 321.26683 278.818027 
L 321.87247 283.578773 
L 322.074349 284.14138 
L 322.276229 283.796634 
L 323.083749 280.027796 
L 323.285628 280.275282 
L 323.689388 282.578615 
L 324.698787 290.010552 
L 325.102547 291.382947 
L 325.304427 291.654843 
L 325.506307 291.613983 
L 325.708186 291.211627 
L 326.111946 289.292952 
L 327.121345 282.638693 
L 327.525105 281.407757 
L 327.726985 281.311163 
L 328.332624 281.864118 
L 328.534504 281.564526 
L 328.938264 279.437554 
L 329.342023 276.669371 
L 329.543903 276.050275 
L 329.745783 276.396875 
L 329.947663 277.764409 
L 330.755182 285.973717 
L 330.957062 286.320582 
L 331.158942 285.567699 
L 331.764581 279.830648 
L 332.168341 276.956704 
L 332.370221 276.335858 
L 332.572101 276.181504 
L 332.77398 276.407699 
L 333.17774 277.869958 
L 333.985259 282.39882 
L 334.187139 282.741249 
L 334.389019 282.580788 
L 334.994659 280.732701 
L 336.407817 276.825421 
L 336.609697 276.822697 
L 336.811577 277.169415 
L 337.619096 279.366095 
L 337.820976 279.255643 
L 338.022856 278.711073 
L 338.830375 275.157076 
L 339.032255 275.135031 
L 339.234135 275.749982 
L 340.243534 281.327677 
L 340.445414 281.396166 
L 340.647294 280.984552 
L 341.656693 277.301178 
L 341.858573 277.238681 
L 342.060453 277.462439 
L 342.666092 278.904213 
L 343.271732 280.939264 
L 344.281131 285.617076 
L 344.483011 285.825582 
L 344.684891 285.497917 
L 345.08865 283.313898 
L 345.69429 279.439274 
L 345.89617 279.161349 
L 346.098049 279.64554 
L 346.501809 282.368957 
L 347.107449 286.71485 
L 347.309328 287.353327 
L 347.511208 287.473896 
L 347.713088 287.111435 
L 348.116848 285.248698 
L 348.924367 280.693303 
L 349.328127 279.874455 
L 349.530007 279.867405 
L 350.337526 280.517367 
L 350.539406 280.311641 
L 350.741286 279.736883 
L 351.145045 277.265438 
L 352.154444 268.76548 
L 352.356324 268.683191 
L 352.558204 269.542937 
L 353.567603 277.871281 
L 353.769483 278.203328 
L 353.971363 277.932517 
L 354.778882 275.082014 
L 354.980762 275.063948 
L 355.182642 275.563607 
L 355.990161 279.308584 
L 356.192041 279.455853 
L 356.393921 278.990652 
L 356.797681 276.360728 
L 357.6052 269.361462 
L 357.80708 268.735688 
L 358.00896 268.92305 
L 358.210839 269.907201 
L 358.614599 273.59593 
L 359.220239 279.433464 
L 359.422118 280.469046 
L 359.623998 280.78706 
L 359.825878 280.34108 
L 360.229638 277.425734 
L 361.037157 269.627024 
L 361.239037 268.734471 
L 361.440917 268.502205 
L 361.642797 268.839682 
L 363.459715 275.327832 
L 363.661595 275.385159 
L 363.863475 274.861974 
L 364.267234 272.029381 
L 364.670994 268.504885 
L 364.872874 267.483242 
L 365.074754 267.351214 
L 365.276633 268.131408 
L 366.084153 274.103659 
L 366.286033 274.598888 
L 366.487912 274.519258 
L 367.093552 273.332347 
L 367.295432 273.457267 
L 367.497312 274.013711 
L 368.506711 278.195547 
L 368.708591 278.22287 
L 368.91047 277.875988 
L 369.31423 276.363283 
L 370.323629 270.898281 
L 370.929269 267.339556 
L 371.131149 266.591991 
L 371.333028 266.314588 
L 371.534908 266.57395 
L 371.938668 268.366662 
L 372.544307 271.487421 
L 372.948067 272.751673 
L 373.351827 273.411455 
L 373.755586 273.607602 
L 374.361226 273.809175 
L 374.966865 274.457507 
L 375.370625 274.815138 
L 375.572505 274.794388 
L 375.774385 274.583114 
L 376.985664 272.347084 
L 377.591303 271.815802 
L 378.600702 270.228863 
L 378.802582 270.219713 
L 379.004462 270.399477 
L 379.811981 271.679777 
L 380.013861 271.460796 
L 380.215741 270.786681 
L 381.22514 265.688733 
L 381.42702 265.602684 
L 381.6289 265.670811 
L 381.83078 265.547195 
L 382.03266 264.932146 
L 382.436419 261.912921 
L 383.042059 256.407904 
L 383.243939 255.711894 
L 383.445818 255.977987 
L 383.647698 257.192176 
L 384.657097 266.035067 
L 384.858977 265.865835 
L 385.262737 263.494839 
L 385.868376 259.827183 
L 386.675896 257.8373 
L 387.079655 256.91358 
L 387.281535 257.022484 
L 387.483415 257.773301 
L 388.492814 264.403188 
L 388.694694 264.132392 
L 389.098454 261.868833 
L 389.502213 259.839877 
L 389.704093 259.826207 
L 389.905973 260.677055 
L 390.309733 264.37486 
L 390.713492 268.445277 
L 390.915372 269.615421 
L 391.117252 269.770824 
L 391.319132 268.760948 
L 391.722892 263.704647 
L 392.328531 254.642276 
L 392.732291 252.108229 
L 392.93417 251.93831 
L 393.13605 252.035809 
L 393.33793 251.987568 
L 393.53981 251.493329 
L 393.94357 249.041764 
L 394.347329 246.505971 
L 394.549209 246.234265 
L 394.751089 247.006073 
L 395.154849 251.536619 
L 395.962368 263.617767 
L 396.366128 266.283672 
L 396.568007 266.30147 
L 396.769887 265.458069 
L 397.173647 261.714971 
L 397.779286 254.996149 
L 397.981166 253.683074 
L 398.183046 253.140954 
L 398.384926 253.345039 
L 398.788686 255.282148 
L 399.596205 259.922809 
L 400.403724 263.231114 
L 400.605604 263.666111 
L 400.807484 263.805999 
L 401.009364 263.655124 
L 401.816883 262.2975 
L 402.422523 262.117084 
L 402.624402 261.5744 
L 403.028162 258.73389 
L 403.835681 250.753599 
L 404.037561 250.353909 
L 404.239441 250.926601 
L 405.24884 257.076752 
L 405.45072 256.759062 
L 405.85448 254.430367 
L 406.258239 252.052375 
L 406.460119 251.865895 
L 406.661999 252.79488 
L 407.065759 258.291552 
L 407.873278 272.875311 
L 408.075158 273.566333 
L 408.277038 272.179014 
L 408.680797 263.637767 
L 409.488317 241.160966 
L 409.690197 238.981739 
L 409.892076 239.074878 
L 410.093956 241.265082 
L 411.103355 259.036073 
L 411.305235 258.980174 
L 411.507115 257.304045 
L 412.112755 249.458182 
L 412.314634 248.277159 
L 412.516514 248.275037 
L 413.324034 251.544931 
L 413.525913 251.178016 
L 414.131553 249.170167 
L 414.333433 249.430545 
L 414.737192 251.647156 
L 415.544712 256.708802 
L 416.150351 260.408769 
L 416.755991 264.347471 
L 417.15975 265.567407 
L 417.36163 265.570431 
L 417.56351 265.234165 
L 418.16915 263.327717 
L 418.572909 261.860623 
L 418.976669 259.473637 
L 419.784188 252.881737 
L 419.986068 252.531914 
L 420.187948 253.153806 
L 420.591708 256.529622 
L 420.995467 259.917653 
L 421.197347 260.625735 
L 421.399227 260.507315 
L 421.802987 258.653531 
L 422.206746 256.930153 
L 422.408626 256.650826 
L 422.610506 256.711438 
L 423.014266 257.088041 
L 423.216145 257.016991 
L 423.418025 256.602953 
L 423.821785 254.66616 
L 424.629304 249.101681 
L 424.831184 248.466633 
L 425.033064 248.583247 
L 425.234944 249.534826 
L 426.042463 256.419045 
L 426.244343 256.684208 
L 426.446223 255.805596 
L 426.849982 251.483105 
L 427.253742 247.073428 
L 427.455622 246.133445 
L 427.657502 246.37982 
L 427.859381 247.719668 
L 428.666901 255.516915 
L 428.868781 255.809468 
L 429.07066 255.017932 
L 429.47442 250.999895 
L 430.08006 245.018934 
L 430.281939 244.510073 
L 430.483819 244.921587 
L 430.887579 247.675417 
L 431.291339 250.811483 
L 431.493218 251.787321 
L 431.695098 252.204208 
L 431.896978 252.150776 
L 432.300738 251.698638 
L 432.502618 251.936677 
L 432.704497 252.758152 
L 433.310137 257.623578 
L 433.713897 259.909663 
L 433.915776 259.981602 
L 434.117656 259.226849 
L 434.521416 255.561852 
L 435.328935 245.818803 
L 435.530815 244.734855 
L 435.732695 244.855437 
L 435.934575 246.308329 
L 436.943974 258.964065 
L 437.145854 258.132958 
L 437.549613 252.200944 
L 437.953373 245.405718 
L 438.155253 243.49538 
L 438.357133 242.973406 
L 438.559013 243.640095 
L 439.164652 247.573788 
L 439.366532 248.050489 
L 439.568412 247.923658 
L 440.375931 245.890335 
L 440.577811 245.847785 
L 440.981571 246.371038 
L 441.58721 247.3937 
L 442.596609 248.293513 
L 443.000369 249.404687 
L 443.606008 251.086534 
L 443.807888 251.238159 
L 444.009768 251.11886 
L 444.413528 250.264258 
L 445.422927 247.021159 
L 445.826687 245.104436 
L 446.432326 240.699037 
L 446.836086 238.048375 
L 447.037966 237.585031 
L 447.239845 237.93343 
L 447.643605 240.725723 
L 448.249245 245.581557 
L 448.451124 246.141784 
L 448.653004 245.921054 
L 448.854884 244.959527 
L 449.662403 238.636317 
L 449.864283 238.229739 
L 450.066163 238.841529 
L 450.469923 242.684749 
L 451.075562 249.102584 
L 451.277442 249.903109 
L 451.479322 249.83271 
L 451.681202 249.043516 
L 452.690601 243.404105 
L 452.892481 243.003233 
L 453.094361 242.868201 
L 453.7 243.110936 
L 453.90188 242.893509 
L 454.10376 242.22925 
L 454.507519 239.303191 
L 455.113159 233.6844 
L 455.315039 232.796811 
L 455.516918 232.777431 
L 455.718798 233.573978 
L 456.526318 238.36794 
L 456.728197 238.211495 
L 457.131957 235.865821 
L 457.535717 233.086492 
L 457.737597 232.471816 
L 457.939476 232.60831 
L 458.343236 234.534789 
L 458.746996 236.307511 
L 458.948876 236.35634 
L 459.150755 235.790745 
L 459.756395 233.463677 
L 459.958275 233.751221 
L 460.160155 234.92068 
L 461.169554 244.180338 
L 461.371434 244.011208 
L 461.775193 241.211224 
L 462.380833 236.587824 
L 462.582713 236.190534 
L 462.784592 236.519363 
L 463.188352 238.761673 
L 463.592112 241.175152 
L 463.793992 241.654794 
L 463.995871 241.417125 
L 464.399631 239.213479 
L 464.803391 236.807673 
L 465.005271 236.335575 
L 465.20715 236.51719 
L 465.61091 238.20608 
L 466.01467 239.643186 
L 466.21655 239.633147 
L 466.418429 239.017771 
L 466.822189 236.186925 
L 468.437228 220.882258 
L 468.639108 220.271009 
L 468.840987 220.320641 
L 469.042867 221.15473 
L 469.446627 225.159734 
L 470.052266 232.587239 
L 470.254146 233.695532 
L 470.456026 233.742364 
L 470.859786 231.65357 
L 471.263545 229.784108 
L 471.465425 229.810568 
L 471.869185 231.467397 
L 472.272945 232.830333 
L 472.474824 232.577024 
L 472.878584 230.226067 
L 473.282344 227.773118 
L 473.484224 227.484377 
L 473.686103 228.016179 
L 474.493623 232.94633 
L 474.695503 233.274586 
L 474.897382 233.121625 
L 475.301142 232.463211 
L 475.503022 232.508433 
L 475.704902 232.980932 
L 476.512421 236.104085 
L 476.714301 236.016278 
L 476.916181 235.341301 
L 477.31994 232.6985 
L 477.92558 228.453225 
L 478.32934 227.17166 
L 478.531219 227.16561 
L 478.733099 227.549827 
L 479.136859 229.172866 
L 479.742498 232.072213 
L 479.944378 232.633599 
L 480.146258 232.783013 
L 480.348138 232.484901 
L 481.357537 229.372507 
L 481.559417 229.413193 
L 482.165056 229.990903 
L 482.366936 229.977675 
L 482.770696 229.623536 
L 483.174456 228.940522 
L 483.376335 228.234783 
L 483.780095 225.313204 
L 484.587614 216.855639 
L 484.789494 216.243737 
L 484.991374 216.740237 
L 485.395134 220.398402 
L 485.798893 224.732267 
L 486.000773 225.991569 
L 486.202653 226.33272 
L 486.404533 225.830578 
L 487.010172 222.606342 
L 487.212052 222.226333 
L 487.413932 222.574205 
L 487.817692 225.125363 
L 488.423331 229.448912 
L 488.625211 230.027482 
L 488.827091 230.068375 
L 489.028971 229.6851 
L 490.442129 225.073526 
L 491.047769 220.871238 
L 491.653408 217.040622 
L 491.855288 216.470821 
L 492.057168 216.299594 
L 492.259048 216.44411 
L 492.662808 217.24906 
L 493.268447 219.039865 
L 494.075966 221.835209 
L 494.277846 221.883962 
L 494.479726 221.479378 
L 495.287245 218.621856 
L 495.489125 218.838833 
L 495.892885 220.951975 
L 496.296645 223.625326 
L 496.498524 224.308699 
L 496.700404 224.229655 
L 496.902284 223.351101 
L 497.306044 219.836564 
L 497.911683 213.97219 
L 498.315443 211.661053 
L 498.517323 211.094905 
L 498.719203 210.864237 
L 498.921082 210.88398 
L 499.324842 211.135974 
L 499.526722 211.070083 
L 499.930482 210.292657 
L 500.334241 209.478439 
L 500.536121 209.441944 
L 500.939881 210.049307 
L 501.34364 210.568975 
L 501.7474 210.726363 
L 501.94928 211.073408 
L 502.15116 211.836283 
L 502.756799 216.129702 
L 503.160559 218.221923 
L 503.362439 218.319418 
L 503.564319 217.752567 
L 504.169958 214.669545 
L 504.371838 214.333608 
L 504.573718 214.713658 
L 504.977477 217.193386 
L 505.381237 219.623541 
L 505.583117 219.793952 
L 505.784997 218.937301 
L 506.188756 214.439915 
L 506.794396 206.293809 
L 506.996276 204.881399 
L 507.198156 204.488036 
L 507.400035 205.051863 
L 508.409435 210.943798 
L 508.611314 210.513347 
L 509.015074 207.820747 
L 509.418834 204.998898 
L 509.620714 204.485895 
L 509.822593 204.813531 
L 510.630113 209.127365 
L 510.831993 208.808299 
L 511.033872 207.477377 
L 512.043272 197.706927 
L 512.245151 197.755298 
L 512.648911 199.824221 
L 513.254551 203.272021 
L 514.06207 206.356577 
L 514.667709 209.308898 
L 514.869589 209.754685 
L 515.071469 209.770176 
L 515.273349 209.413362 
L 515.677108 207.973397 
L 516.080868 205.759342 
L 517.292147 197.599969 
L 518.301546 192.58059 
L 518.503426 192.571827 
L 518.705306 193.536071 
L 519.109066 198.406332 
L 519.714705 207.152301 
L 519.916585 208.275663 
L 520.118465 208.006639 
L 520.522224 204.26291 
L 520.925984 199.935042 
L 521.127864 198.835444 
L 521.329744 198.67582 
L 521.531624 199.291943 
L 522.541023 204.180499 
L 522.944782 205.044955 
L 523.146662 205.165715 
L 523.348542 204.949966 
L 523.550422 204.308457 
L 523.954182 201.75566 
L 524.559821 196.981886 
L 524.761701 196.026086 
L 524.963581 195.657559 
L 525.165461 195.854404 
L 525.7711 197.433766 
L 525.97298 197.238073 
L 526.17486 196.409763 
L 526.982379 191.791877 
L 527.184259 191.894055 
L 527.386139 192.702765 
L 528.395538 198.993713 
L 529.001177 200.537507 
L 529.404937 202.889544 
L 530.010577 207.273617 
L 530.212456 207.680571 
L 530.414336 207.224243 
L 530.818096 204.335391 
L 531.423735 199.762609 
L 531.827495 198.374325 
L 533.038774 195.707006 
L 533.240654 195.791403 
L 533.442534 196.190187 
L 533.846293 197.76658 
L 534.451933 200.23344 
L 534.653813 200.4301 
L 534.855693 200.182487 
L 535.461332 198.441646 
L 535.663212 198.387037 
L 535.865092 198.838282 
L 536.470731 201.229147 
L 536.672611 201.28636 
L 536.874491 200.594589 
L 537.278251 197.263719 
L 537.88389 192.08375 
L 538.08577 191.643299 
L 538.28765 192.080608 
L 538.691409 194.876494 
L 539.095169 197.793986 
L 539.297049 198.450951 
L 539.498929 198.44301 
L 539.902688 197.153268 
L 540.306448 195.881177 
L 540.508328 195.640501 
L 540.710208 195.662316 
L 541.113967 196.221639 
L 541.517727 197.269729 
L 542.527126 200.71453 
L 542.729006 200.679431 
L 542.930886 200.236583 
L 543.334646 198.40479 
L 543.940285 194.235551 
L 544.747804 188.475191 
L 544.949684 188.036079 
L 545.151564 188.230945 
L 546.160963 191.447655 
L 546.362843 191.482806 
L 546.564723 191.662697 
L 546.766603 192.27604 
L 547.170362 195.082421 
L 547.574122 198.233581 
L 547.776002 198.770058 
L 547.977882 198.044986 
L 548.179761 195.887176 
L 548.785401 183.796366 
L 549.189161 177.64674 
L 549.39104 176.827032 
L 549.59292 177.566654 
L 549.99668 182.008833 
L 550.602319 188.249354 
L 551.006079 189.987971 
L 552.015478 193.141042 
L 552.217358 192.89289 
L 552.621118 190.828136 
L 553.024877 188.442132 
L 553.226757 187.830267 
L 553.428637 187.681775 
L 554.034277 188.00694 
L 554.639916 187.596654 
L 554.841796 188.019163 
L 555.043676 189.028595 
L 555.649315 194.600485 
L 556.053075 197.525016 
L 556.254955 197.947085 
L 556.456835 197.593794 
L 556.860594 195.136979 
L 557.466234 190.79218 
L 557.668114 189.994132 
L 557.869993 189.671327 
L 558.071873 189.821993 
L 558.475633 191.257669 
L 558.879393 193.084949 
L 559.081272 193.592055 
L 559.283152 193.620264 
L 559.485032 193.169523 
L 560.292551 190.215595 
L 560.494431 190.096528 
L 561.100071 190.50241 
L 561.301951 190.072481 
L 561.50383 189.020796 
L 561.90759 185.164008 
L 562.51323 178.993267 
L 562.715109 178.1879 
L 562.916989 178.3351 
L 563.118869 179.355198 
L 563.724509 184.148847 
L 563.926388 184.822214 
L 564.128268 184.507695 
L 564.532028 181.228889 
L 564.935788 177.09478 
L 565.137667 175.958285 
L 565.339547 175.837352 
L 565.541427 176.686962 
L 566.348946 182.657714 
L 566.550826 183.062852 
L 566.752706 182.831618 
L 567.560225 180.407019 
L 567.963985 180.302296 
L 568.165865 180.035683 
L 568.367745 179.319044 
L 569.377144 173.962526 
L 569.579024 174.520862 
L 570.588423 180.112038 
L 570.790303 179.757906 
L 571.597822 176.259734 
L 571.799702 176.100875 
L 572.001582 176.395572 
L 573.010981 179.492666 
L 573.212861 179.478079 
L 573.61662 178.838019 
L 574.02038 178.366689 
L 574.22226 178.513317 
L 574.62602 179.695608 
L 575.433539 183.008026 
L 575.635419 183.34623 
L 575.837298 183.343008 
L 576.039178 182.997124 
L 576.442938 181.523843 
L 577.048577 179.250875 
L 577.452337 178.579625 
L 578.057977 177.656306 
L 578.461736 177.095283 
L 578.663616 177.130395 
L 579.067376 177.880487 
L 579.269256 178.237682 
L 579.471135 178.180077 
L 579.673015 177.415859 
L 580.076775 173.43839 
L 580.682414 166.004607 
L 580.884294 165.060469 
L 581.086174 165.31038 
L 581.489934 168.464684 
L 581.893693 171.969425 
L 582.095573 172.796579 
L 582.297453 172.851293 
L 582.903093 171.177508 
L 583.104972 171.303294 
L 583.306852 172.155133 
L 584.316251 178.76291 
L 584.518131 178.383668 
L 584.921891 176.05494 
L 585.325651 173.751417 
L 585.52753 173.128509 
L 585.72941 172.883745 
L 585.93129 172.939259 
L 586.33505 173.630169 
L 586.940689 175.564267 
L 587.748209 178.376186 
L 587.950088 178.483121 
L 588.151968 178.121464 
L 588.555728 175.925802 
L 589.565127 167.995269 
L 589.767007 167.533796 
L 589.968887 167.671199 
L 590.372646 169.126067 
L 590.776406 170.384996 
L 590.978286 170.457168 
L 591.583925 169.693132 
L 591.785805 169.790503 
L 592.391445 170.832445 
L 592.593325 170.72089 
L 592.997084 169.314625 
L 593.400844 167.936192 
L 593.602724 168.08101 
L 593.804604 168.967027 
L 594.410243 172.93318 
L 594.612123 172.887519 
L 594.814003 171.466409 
L 595.217762 165.05458 
L 595.823402 155.486361 
L 596.025282 154.630866 
L 596.227162 155.172202 
L 596.630921 158.960275 
L 597.034681 163.007068 
L 597.438441 164.806044 
L 597.64032 164.872693 
L 598.24596 164.19425 
L 598.44784 164.349114 
L 598.64972 164.896871 
L 599.053479 167.070583 
L 599.659119 170.845143 
L 599.860999 171.569988 
L 600.062878 171.839382 
L 600.264758 171.602817 
L 600.466638 170.86024 
L 600.870398 168.205913 
L 601.476037 164.120658 
L 601.879797 162.958334 
L 603.091076 161.569662 
L 603.292956 161.653404 
L 603.696715 162.399059 
L 604.100475 163.134673 
L 604.302355 163.175304 
L 605.109874 162.503216 
L 605.311754 162.900107 
L 605.715514 164.555626 
L 606.321153 167.178785 
L 606.926793 168.585255 
L 607.532432 169.486994 
L 607.734312 169.587117 
L 608.138072 169.413141 
L 608.541831 169.23367 
L 608.743711 169.397789 
L 609.147471 170.407817 
L 609.55123 171.678477 
L 609.75311 171.960347 
L 609.95499 171.759241 
L 610.15687 170.970391 
L 610.56063 167.803951 
L 611.166269 162.488617 
L 611.368149 161.616604 
L 611.570029 161.369906 
L 611.771909 161.612606 
L 612.175668 162.431835 
L 612.377548 162.423499 
L 612.579428 161.931212 
L 613.386947 158.520674 
L 613.588827 158.813515 
L 613.992587 161.535867 
L 614.396346 164.733278 
L 614.598226 165.376611 
L 614.800106 165.078565 
L 615.203866 162.426902 
L 615.607625 160.116863 
L 615.809505 160.174524 
L 616.011385 161.229488 
L 617.020784 169.940289 
L 617.222664 169.963161 
L 617.828304 168.30713 
L 618.030183 168.374431 
L 618.232063 169.014129 
L 618.837703 171.853237 
L 619.039583 171.899189 
L 619.241462 171.123254 
L 619.645222 167.614611 
L 620.048982 164.013202 
L 620.250862 163.261044 
L 620.452741 163.52688 
L 620.856501 166.563708 
L 621.260261 170.189373 
L 621.462141 171.172206 
L 621.66402 171.390826 
L 621.8659 171.001291 
L 622.26966 169.774014 
L 622.47154 169.581352 
L 622.67342 169.841574 
L 623.279059 171.587435 
L 623.480939 171.589797 
L 623.682819 170.968568 
L 624.086578 167.733008 
L 625.297857 153.317982 
L 625.499737 152.539564 
L 625.701617 152.493518 
L 625.903497 153.152028 
L 626.307257 156.399671 
L 627.518536 169.677428 
L 627.720415 169.692683 
L 627.922295 168.695118 
L 628.326055 164.353563 
L 628.931694 156.957264 
L 629.133574 155.63606 
L 629.335454 155.177122 
L 629.537334 155.471667 
L 629.941094 156.946862 
L 630.142973 157.209759 
L 630.344853 156.643304 
L 630.748613 152.850402 
L 631.354252 146.456418 
L 631.556132 146.210794 
L 631.758012 147.270362 
L 632.565531 155.927385 
L 632.767411 156.333307 
L 632.969291 155.55847 
L 633.77681 149.494432 
L 633.97869 149.532884 
L 634.18057 150.437793 
L 635.391849 158.950241 
L 635.795609 159.788703 
L 635.997489 159.77319 
L 636.199368 159.425783 
L 636.401248 158.694293 
L 636.805008 155.975842 
L 638.016287 145.511897 
L 638.420046 144.461965 
L 638.823806 144.329539 
L 639.429446 144.500715 
L 639.631325 144.767133 
L 640.438845 146.690457 
L 640.640725 146.491661 
L 640.842604 145.669363 
L 641.650124 139.858253 
L 641.852004 139.594605 
L 642.053883 140.270675 
L 642.457643 143.656605 
L 642.861403 147.173847 
L 643.063283 148.184703 
L 643.265162 148.591696 
L 643.467042 148.500257 
L 643.870802 147.465272 
L 644.476441 145.560091 
L 644.678321 145.218749 
L 644.880201 145.214601 
L 645.082081 145.614726 
L 645.8896 148.592268 
L 646.09148 148.317559 
L 646.29336 147.226003 
L 647.302759 137.78925 
L 647.504639 137.647209 
L 647.706519 138.441814 
L 648.110278 142.049851 
L 648.715918 148.496068 
L 649.119678 150.479886 
L 649.321557 150.278466 
L 649.523437 149.288359 
L 649.927197 145.529649 
L 650.734716 136.7362 
L 651.138476 134.656147 
L 651.340356 134.455527 
L 651.542236 134.688267 
L 651.945995 135.817789 
L 652.551635 138.132032 
L 653.157274 141.992335 
L 653.561034 144.616587 
L 653.964794 145.821855 
L 654.166673 145.778193 
L 654.570433 144.887578 
L 655.579832 141.716352 
L 655.983592 139.252237 
L 656.589231 135.149969 
L 656.791111 134.576253 
L 656.992991 134.734022 
L 657.194871 135.628811 
L 658.00239 140.751117 
L 658.20427 140.511213 
L 658.40615 139.307938 
L 659.415549 129.966429 
L 659.617429 129.947358 
L 659.819309 130.787315 
L 660.626828 136.170399 
L 660.828708 136.302394 
L 661.030588 135.656015 
L 661.434347 132.716915 
L 662.039987 128.018961 
L 662.443747 126.386771 
L 662.645626 126.095552 
L 662.847506 126.164331 
L 663.049386 126.606325 
L 663.453146 128.482052 
L 664.260665 132.764956 
L 664.462545 133.284891 
L 664.664425 133.463588 
L 664.866305 133.274149 
L 665.673824 131.332803 
L 665.875704 131.931605 
L 666.279463 135.618743 
L 666.885103 142.235381 
L 667.086983 142.753774 
L 667.288862 142.053682 
L 668.298262 134.478572 
L 668.500141 135.309599 
L 668.903901 139.432018 
L 669.307661 143.763983 
L 669.509541 144.934001 
L 669.71142 145.165424 
L 669.9133 144.495076 
L 670.31706 141.340232 
L 670.922699 136.372353 
L 671.326459 134.863051 
L 671.528339 134.746525 
L 671.730219 135.033645 
L 672.133978 136.606777 
L 672.739618 139.440457 
L 672.941498 139.744129 
L 673.143378 139.447931 
L 673.345257 138.484815 
L 673.749017 134.77469 
L 674.556536 126.248336 
L 674.758416 125.519432 
L 674.960296 125.712489 
L 675.364056 128.290631 
L 675.767815 131.325693 
L 675.969695 132.047925 
L 676.171575 131.993775 
L 676.373455 131.218803 
L 677.584734 124.139948 
L 677.988494 123.266744 
L 678.190373 122.442954 
L 678.594133 119.357345 
L 678.997893 115.791431 
L 679.199773 114.936546 
L 679.401652 115.198826 
L 679.603532 116.600229 
L 680.209172 123.062829 
L 680.411052 123.934939 
L 680.612931 123.611226 
L 681.016691 120.453712 
L 681.420451 117.591447 
L 681.622331 117.356698 
L 681.82421 117.988393 
L 682.42985 121.645659 
L 682.63173 122.083152 
L 682.83361 121.701842 
L 683.237369 118.671638 
L 683.843009 113.179928 
L 684.044889 112.731197 
L 684.246768 113.323858 
L 684.650528 116.774056 
L 685.054288 120.444699 
L 685.256168 121.506555 
L 685.458047 121.957554 
L 685.659927 121.946598 
L 686.265567 121.068944 
L 686.669326 120.225305 
L 687.073086 118.521232 
L 687.678726 115.444098 
L 688.082485 114.270151 
L 689.293764 112.077701 
L 689.495644 112.064565 
L 689.697524 112.430031 
L 690.101284 114.537462 
L 691.110683 122.26201 
L 691.312563 122.496226 
L 691.514442 122.024444 
L 692.523842 117.08398 
L 692.725721 117.125892 
L 693.533241 118.759947 
L 693.937 119.625253 
L 694.74452 122.020413 
L 694.9464 122.002275 
L 695.148279 121.459458 
L 695.552039 118.743981 
L 696.763318 107.455182 
L 696.965198 106.907886 
L 697.167078 106.83663 
L 697.368958 107.153462 
L 697.772717 108.681034 
L 698.983996 114.798616 
L 699.185876 114.637235 
L 699.387756 113.907459 
L 700.195275 109.406164 
L 700.397155 109.219401 
L 700.599035 109.637168 
L 701.406554 113.143155 
L 701.608434 113.330479 
L 701.810314 113.051145 
L 702.214073 111.497452 
L 702.617833 109.891734 
L 702.819713 109.543565 
L 703.021593 109.61309 
L 703.425352 110.701796 
L 703.829112 111.877107 
L 704.030992 112.07877 
L 704.232872 111.941838 
L 705.040391 110.491497 
L 705.242271 110.832329 
L 705.646031 112.684039 
L 706.04979 114.579121 
L 706.25167 114.906278 
L 706.45355 114.702446 
L 707.261069 112.490449 
L 707.462949 112.857496 
L 707.866709 115.200222 
L 708.270468 117.952476 
L 708.472348 118.570026 
L 708.674228 118.312004 
L 708.876108 117.110859 
L 709.279868 112.55718 
L 709.885507 105.513081 
L 710.087387 104.329818 
L 710.289267 103.942371 
L 710.491147 104.310253 
L 710.894906 106.711908 
L 711.500546 110.706484 
L 711.702426 111.138024 
L 711.904305 110.957013 
L 712.509945 108.853567 
L 712.711825 108.852734 
L 712.913705 109.680948 
L 713.721224 115.709197 
L 713.923104 115.444759 
L 714.124984 114.051196 
L 715.134383 103.351308 
L 715.336263 102.636422 
L 715.538142 102.51079 
L 715.740022 102.863408 
L 716.143782 104.500413 
L 716.547542 106.306092 
L 716.749421 106.813566 
L 716.951301 106.9048 
L 717.355061 106.156618 
L 717.556941 105.781379 
L 717.758821 105.764304 
L 717.9607 106.263335 
L 718.36446 108.587401 
L 718.76822 110.902459 
L 718.9701 111.262747 
L 719.171979 110.851665 
L 719.575739 108.01285 
L 720.181379 102.602678 
L 720.585138 100.640685 
L 721.190778 99.453664 
L 721.796417 98.292623 
L 721.998297 98.262416 
L 722.200177 98.722854 
L 722.603937 101.437702 
L 723.209576 107.003705 
L 723.411456 107.827065 
L 723.613336 107.813227 
L 724.017095 106.112108 
L 724.420855 104.611938 
L 724.622735 104.529555 
L 725.228374 105.552429 
L 725.430254 105.48164 
L 725.632134 104.96006 
L 726.641533 100.683896 
L 726.843413 100.78285 
L 727.247173 102.058631 
L 727.650932 103.472294 
L 727.852812 103.606269 
L 728.054692 103.060337 
L 728.458452 99.679563 
L 729.064091 92.449188 
L 729.265971 91.194163 
L 729.467851 91.124939 
L 729.669731 92.345511 
L 730.07349 98.053049 
L 730.67913 108.645162 
L 730.88101 110.757008 
L 731.082889 111.60439 
L 731.284769 111.179947 
L 731.688529 107.687954 
L 732.092289 103.857944 
L 732.294168 102.835227 
L 732.496048 102.598109 
L 732.697928 103.037545 
L 733.505447 106.375107 
L 733.707327 106.592758 
L 733.909207 106.482722 
L 734.312967 105.646486 
L 734.918606 103.761959 
L 735.524246 100.950181 
L 735.928005 99.03022 
L 736.129885 98.508305 
L 736.331765 98.492178 
L 736.533645 99.044362 
L 736.937405 101.507558 
L 737.543044 105.353716 
L 737.744924 105.888808 
L 737.946804 105.932973 
L 738.148684 105.530613 
L 738.552443 103.699007 
L 739.158083 99.100927 
L 739.965602 91.954109 
L 740.167482 91.233068 
L 740.369362 91.493935 
L 740.571242 92.902217 
L 740.975001 98.795851 
L 741.580641 108.26459 
L 741.782521 109.248768 
L 741.9844 108.722701 
L 742.79192 101.887781 
L 742.9938 102.324604 
L 743.397559 106.412405 
L 743.801319 109.93694 
L 744.003199 109.649963 
L 744.205079 107.666412 
L 745.012598 94.097509 
L 745.214478 93.008373 
L 745.416358 93.469039 
L 745.820117 97.299064 
L 746.223877 100.872879 
L 746.425757 101.478274 
L 746.627637 101.224794 
L 747.435156 97.567757 
L 747.637036 97.508597 
L 747.838916 98.033005 
L 748.848315 102.81651 
L 749.050195 102.865298 
L 749.655834 102.356963 
L 750.059594 102.586306 
L 750.261474 102.475487 
L 750.463353 101.864019 
L 750.867113 98.727412 
L 751.472753 92.352168 
L 751.674632 91.230491 
L 751.876512 90.977479 
L 752.078392 91.499125 
L 752.885911 95.346335 
L 753.289671 95.899741 
L 753.491551 96.10118 
L 753.693431 96.479902 
L 754.50095 99.24292 
L 754.70283 99.207071 
L 754.90471 98.43499 
L 755.308469 94.807405 
L 755.914109 89.038048 
L 756.115989 88.706902 
L 756.317869 89.49957 
L 757.125388 96.776856 
L 757.327268 97.0801 
L 757.529148 96.259797 
L 758.336667 89.588354 
L 758.538547 89.692272 
L 758.740426 90.983632 
L 759.951705 103.745995 
L 760.153585 104.17594 
L 760.355465 104.131058 
L 760.759225 103.304161 
L 761.364864 101.929773 
L 761.768624 101.444505 
L 761.970504 101.445775 
L 762.172384 101.674687 
L 762.576143 102.834228 
L 763.383663 105.617279 
L 763.585542 105.780772 
L 763.787422 105.601152 
L 764.191182 104.233961 
L 764.796821 101.364048 
L 764.998701 100.997464 
L 765.200581 101.175845 
L 765.604341 102.752962 
L 766.0081 103.966535 
L 766.20998 103.728862 
L 766.61374 101.55369 
L 767.0175 98.898805 
L 767.219379 98.132242 
L 767.421259 97.92311 
L 767.623139 98.192617 
L 768.026899 99.162113 
L 768.228779 99.266806 
L 768.430658 98.859857 
L 768.834418 96.738658 
L 769.238178 94.515254 
L 769.440058 93.998988 
L 769.641937 93.994446 
L 770.045697 94.96545 
L 770.449457 95.786509 
L 770.651337 95.845471 
L 771.256976 95.583834 
L 771.660736 95.828064 
L 772.064495 96.035597 
L 772.266375 95.901649 
L 772.670135 95.0314 
L 773.073895 93.922419 
L 773.275774 93.638476 
L 773.477654 93.693228 
L 773.679534 94.109683 
L 774.688933 97.409081 
L 774.890813 97.409387 
L 775.092693 97.120923 
L 775.496453 95.96924 
L 776.102092 93.503345 
L 776.707732 89.694466 
L 777.313371 85.809053 
L 777.515251 85.609836 
L 777.717131 86.341872 
L 778.12089 90.410854 
L 778.72653 97.794839 
L 778.92841 98.834608 
L 779.13029 98.755454 
L 779.332169 97.655709 
L 780.139689 90.538276 
L 780.341569 89.922453 
L 780.543448 90.060068 
L 780.947208 91.954307 
L 781.350968 94.245494 
L 781.552848 94.907852 
L 781.754727 95.035647 
L 781.956607 94.577624 
L 782.360367 92.131127 
L 783.167886 85.743933 
L 783.571646 84.197306 
L 783.773526 84.04075 
L 783.975406 84.281609 
L 784.379165 85.763319 
L 785.388564 90.752757 
L 785.590444 90.960818 
L 785.792324 90.748693 
L 786.397964 89.143581 
L 786.599843 89.092214 
L 786.801723 89.58002 
L 787.205483 91.899391 
L 787.609243 94.364768 
L 787.811122 95.020641 
L 788.013002 95.157927 
L 788.214882 94.832977 
L 788.618642 93.320571 
L 789.628041 88.886117 
L 790.0318 87.802317 
L 790.43556 87.346457 
L 790.63744 87.332705 
L 790.83932 87.473688 
L 791.0412 87.813673 
L 791.444959 89.289283 
L 792.050599 92.495075 
L 792.252479 92.815414 
L 792.454358 92.195015 
L 792.656238 90.43961 
L 793.059998 83.950317 
L 793.463758 76.745157 
L 793.665637 74.557118 
L 793.867517 73.975939 
L 794.069397 75.082872 
L 794.473157 80.900607 
L 794.876916 87.240183 
L 795.078796 89.158145 
L 795.280676 89.896683 
L 795.482556 89.534606 
L 796.491955 84.372101 
L 796.693835 84.841201 
L 797.299474 87.414686 
L 797.501354 87.733995 
L 797.703234 87.698099 
L 798.106994 87.494881 
L 798.308874 87.822299 
L 798.712633 89.549867 
L 799.116393 91.108036 
L 799.318273 91.068524 
L 799.520153 90.29417 
L 800.327672 84.742018 
L 800.529552 84.745384 
L 800.731432 85.792375 
L 801.135191 90.276592 
L 801.538951 95.117743 
L 801.740831 96.451368 
L 801.942711 96.574951 
L 802.14459 95.371772 
L 802.54835 89.793226 
L 803.15399 81.094001 
L 803.355869 80.063549 
L 803.557749 80.242523 
L 803.961509 83.155218 
L 804.365269 86.342018 
L 804.567148 87.012942 
L 804.769028 86.923879 
L 805.172788 85.388332 
L 805.576548 83.986907 
L 805.980307 83.086403 
L 806.384067 81.206028 
L 807.191586 75.608914 
L 807.393466 75.069998 
L 807.595346 74.99042 
L 808.402865 75.765676 
L 808.604745 75.657724 
L 809.008505 75.009375 
L 809.412264 74.279797 
L 809.614144 74.234018 
L 809.816024 74.554039 
L 810.623543 76.800647 
L 810.825423 76.695025 
L 811.229183 76.363229 
L 811.431063 76.701364 
L 811.834822 78.641595 
L 812.238582 80.317796 
L 812.440462 80.16398 
L 812.642342 79.154704 
L 813.449861 72.339931 
L 813.651741 71.963975 
L 813.853621 72.473674 
L 814.66114 77.519228 
L 814.86302 77.702238 
L 815.0649 76.978324 
L 815.468659 73.320666 
L 815.872419 70.235193 
L 816.074299 70.886528 
L 816.276179 73.8965 
L 816.679938 87.118456 
L 816.881818 96.0196 
L 816.881818 96.0196 
" clip-path="url(#paab76d803c)" style="fill: none; stroke: #0000ff; stroke-width: 0.5; stroke-linecap: square"/>
   </g>
   <g id="patch_3">
    <path d="M 54.2 534.04 
L 54.2 48.14925 
" style="fill: none; stroke: #000000; stroke-width: 0.8; stroke-linejoin: miter; stroke-linecap: square"/>
   </g>
   <g id="patch_4">
    <path d="M 853.2 534.04 
L 853.2 48.14925 
" style="fill: none; stroke: #000000; stroke-width: 0.8; stroke-linejoin: miter; stroke-linecap: square"/>
   </g>
   <g id="patch_5">
    <path d="M 54.2 534.04 
L 853.2 534.04 
" style="fill: none; stroke: #000000; stroke-width: 0.8; stroke-linejoin: miter; stroke-linecap: square"/>
   </g>
   <g id="patch_6">
    <path d="M 54.2 48.14925 
L 853.2 48.14925 
" style="fill: none; stroke: #000000; stroke-width: 0.8; stroke-linejoin: miter; stroke-linecap: square"/>
   </g>
   <g id="text_18">
    <!-- EDA Filtering: data_5_E4 -->
    <g transform="translate(392.595312 19.4755) scale(0.1 -0.1)">
     <defs>
      <path id="DejaVuSans-46" d="M 628 4666 
L 3309 4666 
L 3309 4134 
L 1259 4134 
L 1259 2759 
L 3109 2759 
L 3109 2228 
L 1259 2228 
L 1259 0 
L 628 0 
L 628 4666 
z
" transform="scale(0.015625)"/>
      <path id="DejaVuSans-6c" d="M 603 4863 
L 1178 4863 
L 1178 0 
L 603 0 
L 603 4863 
z
" transform="scale(0.015625)"/>
      <path id="DejaVuSans-72" d="M 2631 2963 
Q 2534 3019 2420 3045 
Q 2306 3072 2169 3072 
Q 1681 3072 1420 2755 
Q 1159 2438 1159 1844 
L 1159 0 
L 581 0 
L 581 3500 
L 1159 3500 
L 1159 2956 
Q 1341 3275 1631 3429 
Q 1922 3584 2338 3584 
Q 2397 3584 2469 3576 
Q 2541 3569 2628 3553 
L 2631 2963 
z
" transform="scale(0.015625)"/>
      <path id="DejaVuSans-67" d="M 2906 1791 
Q 2906 2416 2648 2759 
Q 2391 3103 1925 3103 
Q 1463 3103 1205 2759 
Q 947 2416 947 1791 
Q 947 1169 1205 825 
Q 1463 481 1925 481 
Q 2391 481 2648 825 
Q 2906 1169 2906 1791 
z
M 3481 434 
Q 3481 -459 3084 -895 
Q 2688 -1331 1869 -1331 
Q 1566 -1331 1297 -1286 
Q 1028 -1241 775 -1147 
L 775 -588 
Q 1028 -725 1275 -790 
Q 1522 -856 1778 -856 
Q 2344 -856 2625 -561 
Q 2906 -266 2906 331 
L 2906 616 
Q 2728 306 2450 153 
Q 2172 0 1784 0 
Q 1141 0 747 490 
Q 353 981 353 1791 
Q 353 2603 747 3093 
Q 1141 3584 1784 3584 
Q 2172 3584 2450 3431 
Q 2728 3278 2906 2969 
L 2906 3500 
L 3481 3500 
L 3481 434 
z
" transform="scale(0.015625)"/>
      <path id="DejaVuSans-3a" d="M 750 794 
L 1409 794 
L 1409 0 
L 750 0 
L 750 794 
z
M 750 3309 
L 1409 3309 
L 1409 2516 
L 750 2516 
L 750 3309 
z
" transform="scale(0.015625)"/>
      <path id="DejaVuSans-64" d="M 2906 2969 
L 2906 4863 
L 3481 4863 
L 3481 0 
L 2906 0 
L 2906 525 
Q 2725 213 2448 61 
Q 2172 -91 1784 -91 
Q 1150 -91 751 415 
Q 353 922 353 1747 
Q 353 2572 751 3078 
Q 1150 3584 1784 3584 
Q 2172 3584 2448 3432 
Q 2725 3281 2906 2969 
z
M 947 1747 
Q 947 1113 1208 752 
Q 1469 391 1925 391 
Q 2381 391 2643 752 
Q 2906 1113 2906 1747 
Q 2906 2381 2643 2742 
Q 2381 3103 1925 3103 
Q 1469 3103 1208 2742 
Q 947 2381 947 1747 
z
" transform="scale(0.015625)"/>
      <path id="DejaVuSans-61" d="M 2194 1759 
Q 1497 1759 1228 1600 
Q 959 1441 959 1056 
Q 959 750 1161 570 
Q 1363 391 1709 391 
Q 2188 391 2477 730 
Q 2766 1069 2766 1631 
L 2766 1759 
L 2194 1759 
z
M 3341 1997 
L 3341 0 
L 2766 0 
L 2766 531 
Q 2569 213 2275 61 
Q 1981 -91 1556 -91 
Q 1019 -91 701 211 
Q 384 513 384 1019 
Q 384 1609 779 1909 
Q 1175 2209 1959 2209 
L 2766 2209 
L 2766 2266 
Q 2766 2663 2505 2880 
Q 2244 3097 1772 3097 
Q 1472 3097 1187 3025 
Q 903 2953 641 2809 
L 641 3341 
Q 956 3463 1253 3523 
Q 1550 3584 1831 3584 
Q 2591 3584 2966 3190 
Q 3341 2797 3341 1997 
z
" transform="scale(0.015625)"/>
      <path id="DejaVuSans-5f" d="M 3263 -1063 
L 3263 -1509 
L -63 -1509 
L -63 -1063 
L 3263 -1063 
z
" transform="scale(0.015625)"/>
     </defs>
     <use xlink:href="#DejaVuSans-45"/>
     <use xlink:href="#DejaVuSans-44" transform="translate(63.183594 0)"/>
     <use xlink:href="#DejaVuSans-41" transform="translate(138.435547 0)"/>
     <use xlink:href="#DejaVuSans-20" transform="translate(206.84375 0)"/>
     <use xlink:href="#DejaVuSans-46" transform="translate(238.630859 0)"/>
     <use xlink:href="#DejaVuSans-69" transform="translate(288.900391 0)"/>
     <use xlink:href="#DejaVuSans-6c" transform="translate(316.683594 0)"/>
     <use xlink:href="#DejaVuSans-74" transform="translate(344.466797 0)"/>
     <use xlink:href="#DejaVuSans-65" transform="translate(383.675781 0)"/>
     <use xlink:href="#DejaVuSans-72" transform="translate(445.199219 0)"/>
     <use xlink:href="#DejaVuSans-69" transform="translate(486.3125 0)"/>
     <use xlink:href="#DejaVuSans-6e" transform="translate(514.095703 0)"/>
     <use xlink:href="#DejaVuSans-67" transform="translate(577.474609 0)"/>
     <use xlink:href="#DejaVuSans-3a" transform="translate(640.951172 0)"/>
     <use xlink:href="#DejaVuSans-20" transform="translate(674.642578 0)"/>
     <use xlink:href="#DejaVuSans-64" transform="translate(706.429688 0)"/>
     <use xlink:href="#DejaVuSans-61" transform="translate(769.90625 0)"/>
     <use xlink:href="#DejaVuSans-74" transform="translate(831.185547 0)"/>
     <use xlink:href="#DejaVuSans-61" transform="translate(870.394531 0)"/>
     <use xlink:href="#DejaVuSans-5f" transform="translate(931.673828 0)"/>
     <use xlink:href="#DejaVuSans-35" transform="translate(981.673828 0)"/>
     <use xlink:href="#DejaVuSans-5f" transform="translate(1045.296875 0)"/>
     <use xlink:href="#DejaVuSans-45" transform="translate(1095.296875 0)"/>
     <use xlink:href="#DejaVuSans-34" transform="translate(1158.480469 0)"/>
    </g>
    <!-- Window=33, Threshold=0.3, Sample=3599 (899.8s) -->
    <g transform="translate(322.227344 30.951437) scale(0.1 -0.1)">
     <defs>
      <path id="DejaVuSans-57" d="M 213 4666 
L 850 4666 
L 1831 722 
L 2809 4666 
L 3519 4666 
L 4500 722 
L 5478 4666 
L 6119 4666 
L 4947 0 
L 4153 0 
L 3169 4050 
L 2175 0 
L 1381 0 
L 213 4666 
z
" transform="scale(0.015625)"/>
      <path id="DejaVuSans-6f" d="M 1959 3097 
Q 1497 3097 1228 2736 
Q 959 2375 959 1747 
Q 959 1119 1226 758 
Q 1494 397 1959 397 
Q 2419 397 2687 759 
Q 2956 1122 2956 1747 
Q 2956 2369 2687 2733 
Q 2419 3097 1959 3097 
z
M 1959 3584 
Q 2709 3584 3137 3096 
Q 3566 2609 3566 1747 
Q 3566 888 3137 398 
Q 2709 -91 1959 -91 
Q 1206 -91 779 398 
Q 353 888 353 1747 
Q 353 2609 779 3096 
Q 1206 3584 1959 3584 
z
" transform="scale(0.015625)"/>
      <path id="DejaVuSans-77" d="M 269 3500 
L 844 3500 
L 1563 769 
L 2278 3500 
L 2956 3500 
L 3675 769 
L 4391 3500 
L 4966 3500 
L 4050 0 
L 3372 0 
L 2619 2869 
L 1863 0 
L 1184 0 
L 269 3500 
z
" transform="scale(0.015625)"/>
      <path id="DejaVuSans-3d" d="M 678 2906 
L 4684 2906 
L 4684 2381 
L 678 2381 
L 678 2906 
z
M 678 1631 
L 4684 1631 
L 4684 1100 
L 678 1100 
L 678 1631 
z
" transform="scale(0.015625)"/>
      <path id="DejaVuSans-2c" d="M 750 794 
L 1409 794 
L 1409 256 
L 897 -744 
L 494 -744 
L 750 256 
L 750 794 
z
" transform="scale(0.015625)"/>
      <path id="DejaVuSans-68" d="M 3513 2113 
L 3513 0 
L 2938 0 
L 2938 2094 
Q 2938 2591 2744 2837 
Q 2550 3084 2163 3084 
Q 1697 3084 1428 2787 
Q 1159 2491 1159 1978 
L 1159 0 
L 581 0 
L 581 4863 
L 1159 4863 
L 1159 2956 
Q 1366 3272 1645 3428 
Q 1925 3584 2291 3584 
Q 2894 3584 3203 3211 
Q 3513 2838 3513 2113 
z
" transform="scale(0.015625)"/>
      <path id="DejaVuSans-70" d="M 1159 525 
L 1159 -1331 
L 581 -1331 
L 581 3500 
L 1159 3500 
L 1159 2969 
Q 1341 3281 1617 3432 
Q 1894 3584 2278 3584 
Q 2916 3584 3314 3078 
Q 3713 2572 3713 1747 
Q 3713 922 3314 415 
Q 2916 -91 2278 -91 
Q 1894 -91 1617 61 
Q 1341 213 1159 525 
z
M 3116 1747 
Q 3116 2381 2855 2742 
Q 2594 3103 2138 3103 
Q 1681 3103 1420 2742 
Q 1159 2381 1159 1747 
Q 1159 1113 1420 752 
Q 1681 391 2138 391 
Q 2594 391 2855 752 
Q 3116 1113 3116 1747 
z
" transform="scale(0.015625)"/>
      <path id="DejaVuSans-39" d="M 703 97 
L 703 672 
Q 941 559 1184 500 
Q 1428 441 1663 441 
Q 2288 441 2617 861 
Q 2947 1281 2994 2138 
Q 2813 1869 2534 1725 
Q 2256 1581 1919 1581 
Q 1219 1581 811 2004 
Q 403 2428 403 3163 
Q 403 3881 828 4315 
Q 1253 4750 1959 4750 
Q 2769 4750 3195 4129 
Q 3622 3509 3622 2328 
Q 3622 1225 3098 567 
Q 2575 -91 1691 -91 
Q 1453 -91 1209 -44 
Q 966 3 703 97 
z
M 1959 2075 
Q 2384 2075 2632 2365 
Q 2881 2656 2881 3163 
Q 2881 3666 2632 3958 
Q 2384 4250 1959 4250 
Q 1534 4250 1286 3958 
Q 1038 3666 1038 3163 
Q 1038 2656 1286 2365 
Q 1534 2075 1959 2075 
z
" transform="scale(0.015625)"/>
     </defs>
     <use xlink:href="#DejaVuSans-57"/>
     <use xlink:href="#DejaVuSans-69" transform="translate(96.626953 0)"/>
     <use xlink:href="#DejaVuSans-6e" transform="translate(124.410156 0)"/>
     <use xlink:href="#DejaVuSans-64" transform="translate(187.789062 0)"/>
     <use xlink:href="#DejaVuSans-6f" transform="translate(251.265625 0)"/>
     <use xlink:href="#DejaVuSans-77" transform="translate(312.447266 0)"/>
     <use xlink:href="#DejaVuSans-3d" transform="translate(394.234375 0)"/>
     <use xlink:href="#DejaVuSans-33" transform="translate(478.023438 0)"/>
     <use xlink:href="#DejaVuSans-33" transform="translate(541.646484 0)"/>
     <use xlink:href="#DejaVuSans-2c" transform="translate(605.269531 0)"/>
     <use xlink:href="#DejaVuSans-20" transform="translate(637.056641 0)"/>
     <use xlink:href="#DejaVuSans-54" transform="translate(668.84375 0)"/>
     <use xlink:href="#DejaVuSans-68" transform="translate(729.927734 0)"/>
     <use xlink:href="#DejaVuSans-72" transform="translate(793.306641 0)"/>
     <use xlink:href="#DejaVuSans-65" transform="translate(832.169922 0)"/>
     <use xlink:href="#DejaVuSans-73" transform="translate(893.693359 0)"/>
     <use xlink:href="#DejaVuSans-68" transform="translate(945.792969 0)"/>
     <use xlink:href="#DejaVuSans-6f" transform="translate(1009.171875 0)"/>
     <use xlink:href="#DejaVuSans-6c" transform="translate(1070.353516 0)"/>
     <use xlink:href="#DejaVuSans-64" transform="translate(1098.136719 0)"/>
     <use xlink:href="#DejaVuSans-3d" transform="translate(1161.613281 0)"/>
     <use xlink:href="#DejaVuSans-30" transform="translate(1245.402344 0)"/>
     <use xlink:href="#DejaVuSans-2e" transform="translate(1309.025391 0)"/>
     <use xlink:href="#DejaVuSans-33" transform="translate(1340.8125 0)"/>
     <use xlink:href="#DejaVuSans-2c" transform="translate(1404.435547 0)"/>
     <use xlink:href="#DejaVuSans-20" transform="translate(1436.222656 0)"/>
     <use xlink:href="#DejaVuSans-53" transform="translate(1468.009766 0)"/>
     <use xlink:href="#DejaVuSans-61" transform="translate(1531.486328 0)"/>
     <use xlink:href="#DejaVuSans-6d" transform="translate(1592.765625 0)"/>
     <use xlink:href="#DejaVuSans-70" transform="translate(1690.177734 0)"/>
     <use xlink:href="#DejaVuSans-6c" transform="translate(1753.654297 0)"/>
     <use xlink:href="#DejaVuSans-65" transform="translate(1781.4375 0)"/>
     <use xlink:href="#DejaVuSans-3d" transform="translate(1842.960938 0)"/>
     <use xlink:href="#DejaVuSans-33" transform="translate(1926.75 0)"/>
     <use xlink:href="#DejaVuSans-35" transform="translate(1990.373047 0)"/>
     <use xlink:href="#DejaVuSans-39" transform="translate(2053.996094 0)"/>
     <use xlink:href="#DejaVuSans-39" transform="translate(2117.619141 0)"/>
     <use xlink:href="#DejaVuSans-20" transform="translate(2181.242188 0)"/>
     <use xlink:href="#DejaVuSans-28" transform="translate(2213.029297 0)"/>
     <use xlink:href="#DejaVuSans-38" transform="translate(2252.042969 0)"/>
     <use xlink:href="#DejaVuSans-39" transform="translate(2315.666016 0)"/>
     <use xlink:href="#DejaVuSans-39" transform="translate(2379.289062 0)"/>
     <use xlink:href="#DejaVuSans-2e" transform="translate(2442.912109 0)"/>
     <use xlink:href="#DejaVuSans-38" transform="translate(2474.699219 0)"/>
     <use xlink:href="#DejaVuSans-73" transform="translate(2538.322266 0)"/>
     <use xlink:href="#DejaVuSans-29" transform="translate(2590.421875 0)"/>
    </g>
    <!-- Remove: Total=0.00%, Thr=0.00%, Med=0.00%, Vel=0.00%, Temp=0.00% -->
    <g transform="translate(265.7125 42.14925) scale(0.1 -0.1)">
     <defs>
      <path id="DejaVuSans-52" d="M 2841 2188 
Q 3044 2119 3236 1894 
Q 3428 1669 3622 1275 
L 4263 0 
L 3584 0 
L 2988 1197 
Q 2756 1666 2539 1819 
Q 2322 1972 1947 1972 
L 1259 1972 
L 1259 0 
L 628 0 
L 628 4666 
L 2053 4666 
Q 2853 4666 3247 4331 
Q 3641 3997 3641 3322 
Q 3641 2881 3436 2590 
Q 3231 2300 2841 2188 
z
M 1259 4147 
L 1259 2491 
L 2053 2491 
Q 2509 2491 2742 2702 
Q 2975 2913 2975 3322 
Q 2975 3731 2742 3939 
Q 2509 4147 2053 4147 
L 1259 4147 
z
" transform="scale(0.015625)"/>
      <path id="DejaVuSans-76" d="M 191 3500 
L 800 3500 
L 1894 563 
L 2988 3500 
L 3597 3500 
L 2284 0 
L 1503 0 
L 191 3500 
z
" transform="scale(0.015625)"/>
      <path id="DejaVuSans-25" d="M 4653 2053 
Q 4381 2053 4226 1822 
Q 4072 1591 4072 1178 
Q 4072 772 4226 539 
Q 4381 306 4653 306 
Q 4919 306 5073 539 
Q 5228 772 5228 1178 
Q 5228 1588 5073 1820 
Q 4919 2053 4653 2053 
z
M 4653 2450 
Q 5147 2450 5437 2106 
Q 5728 1763 5728 1178 
Q 5728 594 5436 251 
Q 5144 -91 4653 -91 
Q 4153 -91 3862 251 
Q 3572 594 3572 1178 
Q 3572 1766 3864 2108 
Q 4156 2450 4653 2450 
z
M 1428 4353 
Q 1159 4353 1004 4120 
Q 850 3888 850 3481 
Q 850 3069 1003 2837 
Q 1156 2606 1428 2606 
Q 1700 2606 1854 2837 
Q 2009 3069 2009 3481 
Q 2009 3884 1853 4118 
Q 1697 4353 1428 4353 
z
M 4250 4750 
L 4750 4750 
L 1831 -91 
L 1331 -91 
L 4250 4750 
z
M 1428 4750 
Q 1922 4750 2215 4408 
Q 2509 4066 2509 3481 
Q 2509 2891 2217 2550 
Q 1925 2209 1428 2209 
Q 931 2209 642 2551 
Q 353 2894 353 3481 
Q 353 4063 643 4406 
Q 934 4750 1428 4750 
z
" transform="scale(0.015625)"/>
      <path id="DejaVuSans-4d" d="M 628 4666 
L 1569 4666 
L 2759 1491 
L 3956 4666 
L 4897 4666 
L 4897 0 
L 4281 0 
L 4281 4097 
L 3078 897 
L 2444 897 
L 1241 4097 
L 1241 0 
L 628 0 
L 628 4666 
z
" transform="scale(0.015625)"/>
      <path id="DejaVuSans-56" d="M 1831 0 
L 50 4666 
L 709 4666 
L 2188 738 
L 3669 4666 
L 4325 4666 
L 2547 0 
L 1831 0 
z
" transform="scale(0.015625)"/>
     </defs>
     <use xlink:href="#DejaVuSans-52"/>
     <use xlink:href="#DejaVuSans-65" transform="translate(64.982422 0)"/>
     <use xlink:href="#DejaVuSans-6d" transform="translate(126.505859 0)"/>
     <use xlink:href="#DejaVuSans-6f" transform="translate(223.917969 0)"/>
     <use xlink:href="#DejaVuSans-76" transform="translate(285.099609 0)"/>
     <use xlink:href="#DejaVuSans-65" transform="translate(344.279297 0)"/>
     <use xlink:href="#DejaVuSans-3a" transform="translate(405.802734 0)"/>
     <use xlink:href="#DejaVuSans-20" transform="translate(439.494141 0)"/>
     <use xlink:href="#DejaVuSans-54" transform="translate(471.28125 0)"/>
     <use xlink:href="#DejaVuSans-6f" transform="translate(515.365234 0)"/>
     <use xlink:href="#DejaVuSans-74" transform="translate(576.546875 0)"/>
     <use xlink:href="#DejaVuSans-61" transform="translate(615.755859 0)"/>
     <use xlink:href="#DejaVuSans-6c" transform="translate(677.035156 0)"/>
     <use xlink:href="#DejaVuSans-3d" transform="translate(704.818359 0)"/>
     <use xlink:href="#DejaVuSans-30" transform="translate(788.607422 0)"/>
     <use xlink:href="#DejaVuSans-2e" transform="translate(852.230469 0)"/>
     <use xlink:href="#DejaVuSans-30" transform="translate(884.017578 0)"/>
     <use xlink:href="#DejaVuSans-30" transform="translate(947.640625 0)"/>
     <use xlink:href="#DejaVuSans-25" transform="translate(1011.263672 0)"/>
     <use xlink:href="#DejaVuSans-2c" transform="translate(1106.283203 0)"/>
     <use xlink:href="#DejaVuSans-20" transform="translate(1138.070312 0)"/>
     <use xlink:href="#DejaVuSans-54" transform="translate(1169.857422 0)"/>
     <use xlink:href="#DejaVuSans-68" transform="translate(1230.941406 0)"/>
     <use xlink:href="#DejaVuSans-72" transform="translate(1294.320312 0)"/>
     <use xlink:href="#DejaVuSans-3d" transform="translate(1335.433594 0)"/>
     <use xlink:href="#DejaVuSans-30" transform="translate(1419.222656 0)"/>
     <use xlink:href="#DejaVuSans-2e" transform="translate(1482.845703 0)"/>
     <use xlink:href="#DejaVuSans-30" transform="translate(1514.632812 0)"/>
     <use xlink:href="#DejaVuSans-30" transform="translate(1578.255859 0)"/>
     <use xlink:href="#DejaVuSans-25" transform="translate(1641.878906 0)"/>
     <use xlink:href="#DejaVuSans-2c" transform="translate(1736.898438 0)"/>
     <use xlink:href="#DejaVuSans-20" transform="translate(1768.685547 0)"/>
     <use xlink:href="#DejaVuSans-4d" transform="translate(1800.472656 0)"/>
     <use xlink:href="#DejaVuSans-65" transform="translate(1886.751953 0)"/>
     <use xlink:href="#DejaVuSans-64" transform="translate(1948.275391 0)"/>
     <use xlink:href="#DejaVuSans-3d" transform="translate(2011.751953 0)"/>
     <use xlink:href="#DejaVuSans-30" transform="translate(2095.541016 0)"/>
     <use xlink:href="#DejaVuSans-2e" transform="translate(2159.164062 0)"/>
     <use xlink:href="#DejaVuSans-30" transform="translate(2190.951172 0)"/>
     <use xlink:href="#DejaVuSans-30" transform="translate(2254.574219 0)"/>
     <use xlink:href="#DejaVuSans-25" transform="translate(2318.197266 0)"/>
     <use xlink:href="#DejaVuSans-2c" transform="translate(2413.216797 0)"/>
     <use xlink:href="#DejaVuSans-20" transform="translate(2445.003906 0)"/>
     <use xlink:href="#DejaVuSans-56" transform="translate(2476.791016 0)"/>
     <use xlink:href="#DejaVuSans-65" transform="translate(2537.449219 0)"/>
     <use xlink:href="#DejaVuSans-6c" transform="translate(2598.972656 0)"/>
     <use xlink:href="#DejaVuSans-3d" transform="translate(2626.755859 0)"/>
     <use xlink:href="#DejaVuSans-30" transform="translate(2710.544922 0)"/>
     <use xlink:href="#DejaVuSans-2e" transform="translate(2774.167969 0)"/>
     <use xlink:href="#DejaVuSans-30" transform="translate(2805.955078 0)"/>
     <use xlink:href="#DejaVuSans-30" transform="translate(2869.578125 0)"/>
     <use xlink:href="#DejaVuSans-25" transform="translate(2933.201172 0)"/>
     <use xlink:href="#DejaVuSans-2c" transform="translate(3028.220703 0)"/>
     <use xlink:href="#DejaVuSans-20" transform="translate(3060.007812 0)"/>
     <use xlink:href="#DejaVuSans-54" transform="translate(3091.794922 0)"/>
     <use xlink:href="#DejaVuSans-65" transform="translate(3135.878906 0)"/>
     <use xlink:href="#DejaVuSans-6d" transform="translate(3197.402344 0)"/>
     <use xlink:href="#DejaVuSans-70" transform="translate(3294.814453 0)"/>
     <use xlink:href="#DejaVuSans-3d" transform="translate(3358.291016 0)"/>
     <use xlink:href="#DejaVuSans-30" transform="translate(3442.080078 0)"/>
     <use xlink:href="#DejaVuSans-2e" transform="translate(3505.703125 0)"/>
     <use xlink:href="#DejaVuSans-30" transform="translate(3537.490234 0)"/>
     <use xlink:href="#DejaVuSans-30" transform="translate(3601.113281 0)"/>
     <use xlink:href="#DejaVuSans-25" transform="translate(3664.736328 0)"/>
    </g>
   </g>
   <g id="legend_1">
    <g id="patch_7">
     <path d="M 61.2 70.827375 
L 115.679688 70.827375 
Q 117.679688 70.827375 117.679688 68.827375 
L 117.679688 55.14925 
Q 117.679688 53.14925 115.679688 53.14925 
L 61.2 53.14925 
Q 59.2 53.14925 59.2 55.14925 
L 59.2 68.827375 
Q 59.2 70.827375 61.2 70.827375 
z
" style="fill: #ffffff; opacity: 0.8; stroke: #cccccc; stroke-linejoin: miter"/>
    </g>
    <g id="line2d_32">
     <path d="M 63.2 61.247687 
L 73.2 61.247687 
L 83.2 61.247687 
" style="fill: none; stroke: #0000ff; stroke-width: 0.5; stroke-linecap: square"/>
    </g>
    <g id="text_19">
     <!-- Kept -->
     <g transform="translate(91.2 64.747687) scale(0.1 -0.1)">
      <defs>
       <path id="DejaVuSans-4b" d="M 628 4666 
L 1259 4666 
L 1259 2694 
L 3353 4666 
L 4166 4666 
L 1850 2491 
L 4331 0 
L 3500 0 
L 1259 2247 
L 1259 0 
L 628 0 
L 628 4666 
z
" transform="scale(0.015625)"/>
      </defs>
      <use xlink:href="#DejaVuSans-4b"/>
      <use xlink:href="#DejaVuSans-65" transform="translate(60.576172 0)"/>
      <use xlink:href="#DejaVuSans-70" transform="translate(122.099609 0)"/>
      <use xlink:href="#DejaVuSans-74" transform="translate(185.576172 0)"/>
     </g>
    </g>
   </g>
  </g>
 </g>
 <defs>
  <clipPath id="paab76d803c">
   <rect x="54.2" y="48.14925" width="799" height="485.89075"/>
  </clipPath>
 </defs>
</svg>
