<?xml version="1.0" encoding="utf-8" standalone="no"?>
<!DOCTYPE svg PUBLIC "-//W3C//DTD SVG 1.1//EN"
  "http://www.w3.org/Graphics/SVG/1.1/DTD/svg11.dtd">
<svg xmlns:xlink="http://www.w3.org/1999/xlink" width="864pt" height="576pt" viewBox="0 0 864 576" xmlns="http://www.w3.org/2000/svg" version="1.1">
 <metadata>
  <rdf:RDF xmlns:dc="http://purl.org/dc/elements/1.1/" xmlns:cc="http://creativecommons.org/ns#" xmlns:rdf="http://www.w3.org/1999/02/22-rdf-syntax-ns#">
   <cc:Work>
    <dc:type rdf:resource="http://purl.org/dc/dcmitype/StillImage"/>
    <dc:date>2025-10-09T19:21:19.368557</dc:date>
    <dc:format>image/svg+xml</dc:format>
    <dc:creator>
     <cc:Agent>
      <dc:title>Matplotlib v3.10.0, https://matplotlib.org/</dc:title>
     </cc:Agent>
    </dc:creator>
   </cc:Work>
  </rdf:RDF>
 </metadata>
 <defs>
  <style type="text/css">*{stroke-linejoin: round; stroke-linecap: butt}</style>
 </defs>
 <g id="figure_1">
  <g id="patch_1">
   <path d="M 0 576 
L 864 576 
L 864 0 
L 0 0 
z
" style="fill: #ffffff"/>
  </g>
  <g id="axes_1">
   <g id="patch_2">
    <path d="M 60.59 534.04 
L 853.2 534.04 
L 853.2 48.14925 
L 60.59 48.14925 
z
" style="fill: #ffffff"/>
   </g>
   <g id="matplotlib.axis_1">
    <g id="xtick_1">
     <g id="line2d_1">
      <path d="M 96.617727 534.04 
L 96.617727 48.14925 
" clip-path="url(#pacf3a875ad)" style="fill: none; stroke: #b0b0b0; stroke-opacity: 0.3; stroke-width: 0.8; stroke-linecap: square"/>
     </g>
     <g id="line2d_2">
      <defs>
       <path id="mc9fcd51cbc" d="M 0 0 
L 0 3.5 
" style="stroke: #000000; stroke-width: 0.8"/>
      </defs>
      <g>
       <use xlink:href="#mc9fcd51cbc" x="96.617727" y="534.04" style="stroke: #000000; stroke-width: 0.8"/>
      </g>
     </g>
     <g id="text_1">
      <!-- 0.0 -->
      <g transform="translate(88.666165 548.638438) scale(0.1 -0.1)">
       <defs>
        <path id="DejaVuSans-30" d="M 2034 4250 
Q 1547 4250 1301 3770 
Q 1056 3291 1056 2328 
Q 1056 1369 1301 889 
Q 1547 409 2034 409 
Q 2525 409 2770 889 
Q 3016 1369 3016 2328 
Q 3016 3291 2770 3770 
Q 2525 4250 2034 4250 
z
M 2034 4750 
Q 2819 4750 3233 4129 
Q 3647 3509 3647 2328 
Q 3647 1150 3233 529 
Q 2819 -91 2034 -91 
Q 1250 -91 836 529 
Q 422 1150 422 2328 
Q 422 3509 836 4129 
Q 1250 4750 2034 4750 
z
" transform="scale(0.015625)"/>
        <path id="DejaVuSans-2e" d="M 684 794 
L 1344 794 
L 1344 0 
L 684 0 
L 684 794 
z
" transform="scale(0.015625)"/>
       </defs>
       <use xlink:href="#DejaVuSans-30"/>
       <use xlink:href="#DejaVuSans-2e" transform="translate(63.623047 0)"/>
       <use xlink:href="#DejaVuSans-30" transform="translate(95.410156 0)"/>
      </g>
     </g>
    </g>
    <g id="xtick_2">
     <g id="line2d_3">
      <path d="M 216.710152 534.04 
L 216.710152 48.14925 
" clip-path="url(#pacf3a875ad)" style="fill: none; stroke: #b0b0b0; stroke-opacity: 0.3; stroke-width: 0.8; stroke-linecap: square"/>
     </g>
     <g id="line2d_4">
      <g>
       <use xlink:href="#mc9fcd51cbc" x="216.710152" y="534.04" style="stroke: #000000; stroke-width: 0.8"/>
      </g>
     </g>
     <g id="text_2">
      <!-- 0.5 -->
      <g transform="translate(208.758589 548.638438) scale(0.1 -0.1)">
       <defs>
        <path id="DejaVuSans-35" d="M 691 4666 
L 3169 4666 
L 3169 4134 
L 1269 4134 
L 1269 2991 
Q 1406 3038 1543 3061 
Q 1681 3084 1819 3084 
Q 2600 3084 3056 2656 
Q 3513 2228 3513 1497 
Q 3513 744 3044 326 
Q 2575 -91 1722 -91 
Q 1428 -91 1123 -41 
Q 819 9 494 109 
L 494 744 
Q 775 591 1075 516 
Q 1375 441 1709 441 
Q 2250 441 2565 725 
Q 2881 1009 2881 1497 
Q 2881 1984 2565 2268 
Q 2250 2553 1709 2553 
Q 1456 2553 1204 2497 
Q 953 2441 691 2322 
L 691 4666 
z
" transform="scale(0.015625)"/>
       </defs>
       <use xlink:href="#DejaVuSans-30"/>
       <use xlink:href="#DejaVuSans-2e" transform="translate(63.623047 0)"/>
       <use xlink:href="#DejaVuSans-35" transform="translate(95.410156 0)"/>
      </g>
     </g>
    </g>
    <g id="xtick_3">
     <g id="line2d_5">
      <path d="M 336.802576 534.04 
L 336.802576 48.14925 
" clip-path="url(#pacf3a875ad)" style="fill: none; stroke: #b0b0b0; stroke-opacity: 0.3; stroke-width: 0.8; stroke-linecap: square"/>
     </g>
     <g id="line2d_6">
      <g>
       <use xlink:href="#mc9fcd51cbc" x="336.802576" y="534.04" style="stroke: #000000; stroke-width: 0.8"/>
      </g>
     </g>
     <g id="text_3">
      <!-- 1.0 -->
      <g transform="translate(328.851013 548.638438) scale(0.1 -0.1)">
       <defs>
        <path id="DejaVuSans-31" d="M 794 531 
L 1825 531 
L 1825 4091 
L 703 3866 
L 703 4441 
L 1819 4666 
L 2450 4666 
L 2450 531 
L 3481 531 
L 3481 0 
L 794 0 
L 794 531 
z
" transform="scale(0.015625)"/>
       </defs>
       <use xlink:href="#DejaVuSans-31"/>
       <use xlink:href="#DejaVuSans-2e" transform="translate(63.623047 0)"/>
       <use xlink:href="#DejaVuSans-30" transform="translate(95.410156 0)"/>
      </g>
     </g>
    </g>
    <g id="xtick_4">
     <g id="line2d_7">
      <path d="M 456.895 534.04 
L 456.895 48.14925 
" clip-path="url(#pacf3a875ad)" style="fill: none; stroke: #b0b0b0; stroke-opacity: 0.3; stroke-width: 0.8; stroke-linecap: square"/>
     </g>
     <g id="line2d_8">
      <g>
       <use xlink:href="#mc9fcd51cbc" x="456.895" y="534.04" style="stroke: #000000; stroke-width: 0.8"/>
      </g>
     </g>
     <g id="text_4">
      <!-- 1.5 -->
      <g transform="translate(448.943437 548.638438) scale(0.1 -0.1)">
       <use xlink:href="#DejaVuSans-31"/>
       <use xlink:href="#DejaVuSans-2e" transform="translate(63.623047 0)"/>
       <use xlink:href="#DejaVuSans-35" transform="translate(95.410156 0)"/>
      </g>
     </g>
    </g>
    <g id="xtick_5">
     <g id="line2d_9">
      <path d="M 576.987424 534.04 
L 576.987424 48.14925 
" clip-path="url(#pacf3a875ad)" style="fill: none; stroke: #b0b0b0; stroke-opacity: 0.3; stroke-width: 0.8; stroke-linecap: square"/>
     </g>
     <g id="line2d_10">
      <g>
       <use xlink:href="#mc9fcd51cbc" x="576.987424" y="534.04" style="stroke: #000000; stroke-width: 0.8"/>
      </g>
     </g>
     <g id="text_5">
      <!-- 2.0 -->
      <g transform="translate(569.035862 548.638438) scale(0.1 -0.1)">
       <defs>
        <path id="DejaVuSans-32" d="M 1228 531 
L 3431 531 
L 3431 0 
L 469 0 
L 469 531 
Q 828 903 1448 1529 
Q 2069 2156 2228 2338 
Q 2531 2678 2651 2914 
Q 2772 3150 2772 3378 
Q 2772 3750 2511 3984 
Q 2250 4219 1831 4219 
Q 1534 4219 1204 4116 
Q 875 4013 500 3803 
L 500 4441 
Q 881 4594 1212 4672 
Q 1544 4750 1819 4750 
Q 2544 4750 2975 4387 
Q 3406 4025 3406 3419 
Q 3406 3131 3298 2873 
Q 3191 2616 2906 2266 
Q 2828 2175 2409 1742 
Q 1991 1309 1228 531 
z
" transform="scale(0.015625)"/>
       </defs>
       <use xlink:href="#DejaVuSans-32"/>
       <use xlink:href="#DejaVuSans-2e" transform="translate(63.623047 0)"/>
       <use xlink:href="#DejaVuSans-30" transform="translate(95.410156 0)"/>
      </g>
     </g>
    </g>
    <g id="xtick_6">
     <g id="line2d_11">
      <path d="M 697.079848 534.04 
L 697.079848 48.14925 
" clip-path="url(#pacf3a875ad)" style="fill: none; stroke: #b0b0b0; stroke-opacity: 0.3; stroke-width: 0.8; stroke-linecap: square"/>
     </g>
     <g id="line2d_12">
      <g>
       <use xlink:href="#mc9fcd51cbc" x="697.079848" y="534.04" style="stroke: #000000; stroke-width: 0.8"/>
      </g>
     </g>
     <g id="text_6">
      <!-- 2.5 -->
      <g transform="translate(689.128286 548.638438) scale(0.1 -0.1)">
       <use xlink:href="#DejaVuSans-32"/>
       <use xlink:href="#DejaVuSans-2e" transform="translate(63.623047 0)"/>
       <use xlink:href="#DejaVuSans-35" transform="translate(95.410156 0)"/>
      </g>
     </g>
    </g>
    <g id="xtick_7">
     <g id="line2d_13">
      <path d="M 817.172273 534.04 
L 817.172273 48.14925 
" clip-path="url(#pacf3a875ad)" style="fill: none; stroke: #b0b0b0; stroke-opacity: 0.3; stroke-width: 0.8; stroke-linecap: square"/>
     </g>
     <g id="line2d_14">
      <g>
       <use xlink:href="#mc9fcd51cbc" x="817.172273" y="534.04" style="stroke: #000000; stroke-width: 0.8"/>
      </g>
     </g>
     <g id="text_7">
      <!-- 3.0 -->
      <g transform="translate(809.22071 548.638438) scale(0.1 -0.1)">
       <defs>
        <path id="DejaVuSans-33" d="M 2597 2516 
Q 3050 2419 3304 2112 
Q 3559 1806 3559 1356 
Q 3559 666 3084 287 
Q 2609 -91 1734 -91 
Q 1441 -91 1130 -33 
Q 819 25 488 141 
L 488 750 
Q 750 597 1062 519 
Q 1375 441 1716 441 
Q 2309 441 2620 675 
Q 2931 909 2931 1356 
Q 2931 1769 2642 2001 
Q 2353 2234 1838 2234 
L 1294 2234 
L 1294 2753 
L 1863 2753 
Q 2328 2753 2575 2939 
Q 2822 3125 2822 3475 
Q 2822 3834 2567 4026 
Q 2313 4219 1838 4219 
Q 1578 4219 1281 4162 
Q 984 4106 628 3988 
L 628 4550 
Q 988 4650 1302 4700 
Q 1616 4750 1894 4750 
Q 2613 4750 3031 4423 
Q 3450 4097 3450 3541 
Q 3450 3153 3228 2886 
Q 3006 2619 2597 2516 
z
" transform="scale(0.015625)"/>
       </defs>
       <use xlink:href="#DejaVuSans-33"/>
       <use xlink:href="#DejaVuSans-2e" transform="translate(63.623047 0)"/>
       <use xlink:href="#DejaVuSans-30" transform="translate(95.410156 0)"/>
      </g>
     </g>
    </g>
    <g id="text_8">
     <!-- Time (minutes) -->
     <g transform="translate(418.9325 562.316563) scale(0.1 -0.1)">
      <defs>
       <path id="DejaVuSans-54" d="M -19 4666 
L 3928 4666 
L 3928 4134 
L 2272 4134 
L 2272 0 
L 1638 0 
L 1638 4134 
L -19 4134 
L -19 4666 
z
" transform="scale(0.015625)"/>
       <path id="DejaVuSans-69" d="M 603 3500 
L 1178 3500 
L 1178 0 
L 603 0 
L 603 3500 
z
M 603 4863 
L 1178 4863 
L 1178 4134 
L 603 4134 
L 603 4863 
z
" transform="scale(0.015625)"/>
       <path id="DejaVuSans-6d" d="M 3328 2828 
Q 3544 3216 3844 3400 
Q 4144 3584 4550 3584 
Q 5097 3584 5394 3201 
Q 5691 2819 5691 2113 
L 5691 0 
L 5113 0 
L 5113 2094 
Q 5113 2597 4934 2840 
Q 4756 3084 4391 3084 
Q 3944 3084 3684 2787 
Q 3425 2491 3425 1978 
L 3425 0 
L 2847 0 
L 2847 2094 
Q 2847 2600 2669 2842 
Q 2491 3084 2119 3084 
Q 1678 3084 1418 2786 
Q 1159 2488 1159 1978 
L 1159 0 
L 581 0 
L 581 3500 
L 1159 3500 
L 1159 2956 
Q 1356 3278 1631 3431 
Q 1906 3584 2284 3584 
Q 2666 3584 2933 3390 
Q 3200 3197 3328 2828 
z
" transform="scale(0.015625)"/>
       <path id="DejaVuSans-65" d="M 3597 1894 
L 3597 1613 
L 953 1613 
Q 991 1019 1311 708 
Q 1631 397 2203 397 
Q 2534 397 2845 478 
Q 3156 559 3463 722 
L 3463 178 
Q 3153 47 2828 -22 
Q 2503 -91 2169 -91 
Q 1331 -91 842 396 
Q 353 884 353 1716 
Q 353 2575 817 3079 
Q 1281 3584 2069 3584 
Q 2775 3584 3186 3129 
Q 3597 2675 3597 1894 
z
M 3022 2063 
Q 3016 2534 2758 2815 
Q 2500 3097 2075 3097 
Q 1594 3097 1305 2825 
Q 1016 2553 972 2059 
L 3022 2063 
z
" transform="scale(0.015625)"/>
       <path id="DejaVuSans-20" transform="scale(0.015625)"/>
       <path id="DejaVuSans-28" d="M 1984 4856 
Q 1566 4138 1362 3434 
Q 1159 2731 1159 2009 
Q 1159 1288 1364 580 
Q 1569 -128 1984 -844 
L 1484 -844 
Q 1016 -109 783 600 
Q 550 1309 550 2009 
Q 550 2706 781 3412 
Q 1013 4119 1484 4856 
L 1984 4856 
z
" transform="scale(0.015625)"/>
       <path id="DejaVuSans-6e" d="M 3513 2113 
L 3513 0 
L 2938 0 
L 2938 2094 
Q 2938 2591 2744 2837 
Q 2550 3084 2163 3084 
Q 1697 3084 1428 2787 
Q 1159 2491 1159 1978 
L 1159 0 
L 581 0 
L 581 3500 
L 1159 3500 
L 1159 2956 
Q 1366 3272 1645 3428 
Q 1925 3584 2291 3584 
Q 2894 3584 3203 3211 
Q 3513 2838 3513 2113 
z
" transform="scale(0.015625)"/>
       <path id="DejaVuSans-75" d="M 544 1381 
L 544 3500 
L 1119 3500 
L 1119 1403 
Q 1119 906 1312 657 
Q 1506 409 1894 409 
Q 2359 409 2629 706 
Q 2900 1003 2900 1516 
L 2900 3500 
L 3475 3500 
L 3475 0 
L 2900 0 
L 2900 538 
Q 2691 219 2414 64 
Q 2138 -91 1772 -91 
Q 1169 -91 856 284 
Q 544 659 544 1381 
z
M 1991 3584 
L 1991 3584 
z
" transform="scale(0.015625)"/>
       <path id="DejaVuSans-74" d="M 1172 4494 
L 1172 3500 
L 2356 3500 
L 2356 3053 
L 1172 3053 
L 1172 1153 
Q 1172 725 1289 603 
Q 1406 481 1766 481 
L 2356 481 
L 2356 0 
L 1766 0 
Q 1100 0 847 248 
Q 594 497 594 1153 
L 594 3053 
L 172 3053 
L 172 3500 
L 594 3500 
L 594 4494 
L 1172 4494 
z
" transform="scale(0.015625)"/>
       <path id="DejaVuSans-73" d="M 2834 3397 
L 2834 2853 
Q 2591 2978 2328 3040 
Q 2066 3103 1784 3103 
Q 1356 3103 1142 2972 
Q 928 2841 928 2578 
Q 928 2378 1081 2264 
Q 1234 2150 1697 2047 
L 1894 2003 
Q 2506 1872 2764 1633 
Q 3022 1394 3022 966 
Q 3022 478 2636 193 
Q 2250 -91 1575 -91 
Q 1294 -91 989 -36 
Q 684 19 347 128 
L 347 722 
Q 666 556 975 473 
Q 1284 391 1588 391 
Q 1994 391 2212 530 
Q 2431 669 2431 922 
Q 2431 1156 2273 1281 
Q 2116 1406 1581 1522 
L 1381 1569 
Q 847 1681 609 1914 
Q 372 2147 372 2553 
Q 372 3047 722 3315 
Q 1072 3584 1716 3584 
Q 2034 3584 2315 3537 
Q 2597 3491 2834 3397 
z
" transform="scale(0.015625)"/>
       <path id="DejaVuSans-29" d="M 513 4856 
L 1013 4856 
Q 1481 4119 1714 3412 
Q 1947 2706 1947 2009 
Q 1947 1309 1714 600 
Q 1481 -109 1013 -844 
L 513 -844 
Q 928 -128 1133 580 
Q 1338 1288 1338 2009 
Q 1338 2731 1133 3434 
Q 928 4138 513 4856 
z
" transform="scale(0.015625)"/>
      </defs>
      <use xlink:href="#DejaVuSans-54"/>
      <use xlink:href="#DejaVuSans-69" transform="translate(57.958984 0)"/>
      <use xlink:href="#DejaVuSans-6d" transform="translate(85.742188 0)"/>
      <use xlink:href="#DejaVuSans-65" transform="translate(183.154297 0)"/>
      <use xlink:href="#DejaVuSans-20" transform="translate(244.677734 0)"/>
      <use xlink:href="#DejaVuSans-28" transform="translate(276.464844 0)"/>
      <use xlink:href="#DejaVuSans-6d" transform="translate(315.478516 0)"/>
      <use xlink:href="#DejaVuSans-69" transform="translate(412.890625 0)"/>
      <use xlink:href="#DejaVuSans-6e" transform="translate(440.673828 0)"/>
      <use xlink:href="#DejaVuSans-75" transform="translate(504.052734 0)"/>
      <use xlink:href="#DejaVuSans-74" transform="translate(567.431641 0)"/>
      <use xlink:href="#DejaVuSans-65" transform="translate(606.640625 0)"/>
      <use xlink:href="#DejaVuSans-73" transform="translate(668.164062 0)"/>
      <use xlink:href="#DejaVuSans-29" transform="translate(720.263672 0)"/>
     </g>
    </g>
   </g>
   <g id="matplotlib.axis_2">
    <g id="ytick_1">
     <g id="line2d_15">
      <path d="M 60.59 465.478474 
L 853.2 465.478474 
" clip-path="url(#pacf3a875ad)" style="fill: none; stroke: #b0b0b0; stroke-opacity: 0.3; stroke-width: 0.8; stroke-linecap: square"/>
     </g>
     <g id="line2d_16">
      <defs>
       <path id="mf2611b11d6" d="M 0 0 
L -3.5 0 
" style="stroke: #000000; stroke-width: 0.8"/>
      </defs>
      <g>
       <use xlink:href="#mf2611b11d6" x="60.59" y="465.478474" style="stroke: #000000; stroke-width: 0.8"/>
      </g>
     </g>
     <g id="text_9">
      <!-- 0.576 -->
      <g transform="translate(24.961875 469.277692) scale(0.1 -0.1)">
       <defs>
        <path id="DejaVuSans-37" d="M 525 4666 
L 3525 4666 
L 3525 4397 
L 1831 0 
L 1172 0 
L 2766 4134 
L 525 4134 
L 525 4666 
z
" transform="scale(0.015625)"/>
        <path id="DejaVuSans-36" d="M 2113 2584 
Q 1688 2584 1439 2293 
Q 1191 2003 1191 1497 
Q 1191 994 1439 701 
Q 1688 409 2113 409 
Q 2538 409 2786 701 
Q 3034 994 3034 1497 
Q 3034 2003 2786 2293 
Q 2538 2584 2113 2584 
z
M 3366 4563 
L 3366 3988 
Q 3128 4100 2886 4159 
Q 2644 4219 2406 4219 
Q 1781 4219 1451 3797 
Q 1122 3375 1075 2522 
Q 1259 2794 1537 2939 
Q 1816 3084 2150 3084 
Q 2853 3084 3261 2657 
Q 3669 2231 3669 1497 
Q 3669 778 3244 343 
Q 2819 -91 2113 -91 
Q 1303 -91 875 529 
Q 447 1150 447 2328 
Q 447 3434 972 4092 
Q 1497 4750 2381 4750 
Q 2619 4750 2861 4703 
Q 3103 4656 3366 4563 
z
" transform="scale(0.015625)"/>
       </defs>
       <use xlink:href="#DejaVuSans-30"/>
       <use xlink:href="#DejaVuSans-2e" transform="translate(63.623047 0)"/>
       <use xlink:href="#DejaVuSans-35" transform="translate(95.410156 0)"/>
       <use xlink:href="#DejaVuSans-37" transform="translate(159.033203 0)"/>
       <use xlink:href="#DejaVuSans-36" transform="translate(222.65625 0)"/>
      </g>
     </g>
    </g>
    <g id="ytick_2">
     <g id="line2d_17">
      <path d="M 60.59 382.114717 
L 853.2 382.114717 
" clip-path="url(#pacf3a875ad)" style="fill: none; stroke: #b0b0b0; stroke-opacity: 0.3; stroke-width: 0.8; stroke-linecap: square"/>
     </g>
     <g id="line2d_18">
      <g>
       <use xlink:href="#mf2611b11d6" x="60.59" y="382.114717" style="stroke: #000000; stroke-width: 0.8"/>
      </g>
     </g>
     <g id="text_10">
      <!-- 0.578 -->
      <g transform="translate(24.961875 385.913936) scale(0.1 -0.1)">
       <defs>
        <path id="DejaVuSans-38" d="M 2034 2216 
Q 1584 2216 1326 1975 
Q 1069 1734 1069 1313 
Q 1069 891 1326 650 
Q 1584 409 2034 409 
Q 2484 409 2743 651 
Q 3003 894 3003 1313 
Q 3003 1734 2745 1975 
Q 2488 2216 2034 2216 
z
M 1403 2484 
Q 997 2584 770 2862 
Q 544 3141 544 3541 
Q 544 4100 942 4425 
Q 1341 4750 2034 4750 
Q 2731 4750 3128 4425 
Q 3525 4100 3525 3541 
Q 3525 3141 3298 2862 
Q 3072 2584 2669 2484 
Q 3125 2378 3379 2068 
Q 3634 1759 3634 1313 
Q 3634 634 3220 271 
Q 2806 -91 2034 -91 
Q 1263 -91 848 271 
Q 434 634 434 1313 
Q 434 1759 690 2068 
Q 947 2378 1403 2484 
z
M 1172 3481 
Q 1172 3119 1398 2916 
Q 1625 2713 2034 2713 
Q 2441 2713 2670 2916 
Q 2900 3119 2900 3481 
Q 2900 3844 2670 4047 
Q 2441 4250 2034 4250 
Q 1625 4250 1398 4047 
Q 1172 3844 1172 3481 
z
" transform="scale(0.015625)"/>
       </defs>
       <use xlink:href="#DejaVuSans-30"/>
       <use xlink:href="#DejaVuSans-2e" transform="translate(63.623047 0)"/>
       <use xlink:href="#DejaVuSans-35" transform="translate(95.410156 0)"/>
       <use xlink:href="#DejaVuSans-37" transform="translate(159.033203 0)"/>
       <use xlink:href="#DejaVuSans-38" transform="translate(222.65625 0)"/>
      </g>
     </g>
    </g>
    <g id="ytick_3">
     <g id="line2d_19">
      <path d="M 60.59 298.750961 
L 853.2 298.750961 
" clip-path="url(#pacf3a875ad)" style="fill: none; stroke: #b0b0b0; stroke-opacity: 0.3; stroke-width: 0.8; stroke-linecap: square"/>
     </g>
     <g id="line2d_20">
      <g>
       <use xlink:href="#mf2611b11d6" x="60.59" y="298.750961" style="stroke: #000000; stroke-width: 0.8"/>
      </g>
     </g>
     <g id="text_11">
      <!-- 0.580 -->
      <g transform="translate(24.961875 302.55018) scale(0.1 -0.1)">
       <use xlink:href="#DejaVuSans-30"/>
       <use xlink:href="#DejaVuSans-2e" transform="translate(63.623047 0)"/>
       <use xlink:href="#DejaVuSans-35" transform="translate(95.410156 0)"/>
       <use xlink:href="#DejaVuSans-38" transform="translate(159.033203 0)"/>
       <use xlink:href="#DejaVuSans-30" transform="translate(222.65625 0)"/>
      </g>
     </g>
    </g>
    <g id="ytick_4">
     <g id="line2d_21">
      <path d="M 60.59 215.387205 
L 853.2 215.387205 
" clip-path="url(#pacf3a875ad)" style="fill: none; stroke: #b0b0b0; stroke-opacity: 0.3; stroke-width: 0.8; stroke-linecap: square"/>
     </g>
     <g id="line2d_22">
      <g>
       <use xlink:href="#mf2611b11d6" x="60.59" y="215.387205" style="stroke: #000000; stroke-width: 0.8"/>
      </g>
     </g>
     <g id="text_12">
      <!-- 0.582 -->
      <g transform="translate(24.961875 219.186424) scale(0.1 -0.1)">
       <use xlink:href="#DejaVuSans-30"/>
       <use xlink:href="#DejaVuSans-2e" transform="translate(63.623047 0)"/>
       <use xlink:href="#DejaVuSans-35" transform="translate(95.410156 0)"/>
       <use xlink:href="#DejaVuSans-38" transform="translate(159.033203 0)"/>
       <use xlink:href="#DejaVuSans-32" transform="translate(222.65625 0)"/>
      </g>
     </g>
    </g>
    <g id="ytick_5">
     <g id="line2d_23">
      <path d="M 60.59 132.023449 
L 853.2 132.023449 
" clip-path="url(#pacf3a875ad)" style="fill: none; stroke: #b0b0b0; stroke-opacity: 0.3; stroke-width: 0.8; stroke-linecap: square"/>
     </g>
     <g id="line2d_24">
      <g>
       <use xlink:href="#mf2611b11d6" x="60.59" y="132.023449" style="stroke: #000000; stroke-width: 0.8"/>
      </g>
     </g>
     <g id="text_13">
      <!-- 0.584 -->
      <g transform="translate(24.961875 135.822668) scale(0.1 -0.1)">
       <defs>
        <path id="DejaVuSans-34" d="M 2419 4116 
L 825 1625 
L 2419 1625 
L 2419 4116 
z
M 2253 4666 
L 3047 4666 
L 3047 1625 
L 3713 1625 
L 3713 1100 
L 3047 1100 
L 3047 0 
L 2419 0 
L 2419 1100 
L 313 1100 
L 313 1709 
L 2253 4666 
z
" transform="scale(0.015625)"/>
       </defs>
       <use xlink:href="#DejaVuSans-30"/>
       <use xlink:href="#DejaVuSans-2e" transform="translate(63.623047 0)"/>
       <use xlink:href="#DejaVuSans-35" transform="translate(95.410156 0)"/>
       <use xlink:href="#DejaVuSans-38" transform="translate(159.033203 0)"/>
       <use xlink:href="#DejaVuSans-34" transform="translate(222.65625 0)"/>
      </g>
     </g>
    </g>
    <g id="ytick_6">
     <g id="line2d_25">
      <path d="M 60.59 48.659693 
L 853.2 48.659693 
" clip-path="url(#pacf3a875ad)" style="fill: none; stroke: #b0b0b0; stroke-opacity: 0.3; stroke-width: 0.8; stroke-linecap: square"/>
     </g>
     <g id="line2d_26">
      <g>
       <use xlink:href="#mf2611b11d6" x="60.59" y="48.659693" style="stroke: #000000; stroke-width: 0.8"/>
      </g>
     </g>
     <g id="text_14">
      <!-- 0.586 -->
      <g transform="translate(24.961875 52.458911) scale(0.1 -0.1)">
       <use xlink:href="#DejaVuSans-30"/>
       <use xlink:href="#DejaVuSans-2e" transform="translate(63.623047 0)"/>
       <use xlink:href="#DejaVuSans-35" transform="translate(95.410156 0)"/>
       <use xlink:href="#DejaVuSans-38" transform="translate(159.033203 0)"/>
       <use xlink:href="#DejaVuSans-36" transform="translate(222.65625 0)"/>
      </g>
     </g>
    </g>
    <g id="text_15">
     <!-- EDA (μS) -->
     <g transform="translate(18.882187 313.282906) rotate(-90) scale(0.1 -0.1)">
      <defs>
       <path id="DejaVuSans-45" d="M 628 4666 
L 3578 4666 
L 3578 4134 
L 1259 4134 
L 1259 2753 
L 3481 2753 
L 3481 2222 
L 1259 2222 
L 1259 531 
L 3634 531 
L 3634 0 
L 628 0 
L 628 4666 
z
" transform="scale(0.015625)"/>
       <path id="DejaVuSans-44" d="M 1259 4147 
L 1259 519 
L 2022 519 
Q 2988 519 3436 956 
Q 3884 1394 3884 2338 
Q 3884 3275 3436 3711 
Q 2988 4147 2022 4147 
L 1259 4147 
z
M 628 4666 
L 1925 4666 
Q 3281 4666 3915 4102 
Q 4550 3538 4550 2338 
Q 4550 1131 3912 565 
Q 3275 0 1925 0 
L 628 0 
L 628 4666 
z
" transform="scale(0.015625)"/>
       <path id="DejaVuSans-41" d="M 2188 4044 
L 1331 1722 
L 3047 1722 
L 2188 4044 
z
M 1831 4666 
L 2547 4666 
L 4325 0 
L 3669 0 
L 3244 1197 
L 1141 1197 
L 716 0 
L 50 0 
L 1831 4666 
z
" transform="scale(0.015625)"/>
       <path id="DejaVuSans-3bc" d="M 544 -1331 
L 544 3500 
L 1119 3500 
L 1119 1325 
Q 1119 872 1334 640 
Q 1550 409 1972 409 
Q 2434 409 2667 671 
Q 2900 934 2900 1459 
L 2900 3500 
L 3475 3500 
L 3475 806 
Q 3475 619 3529 530 
Q 3584 441 3700 441 
Q 3728 441 3778 458 
Q 3828 475 3916 513 
L 3916 50 
Q 3788 -22 3673 -56 
Q 3559 -91 3450 -91 
Q 3234 -91 3106 31 
Q 2978 153 2931 403 
Q 2775 156 2548 32 
Q 2322 -91 2016 -91 
Q 1697 -91 1473 31 
Q 1250 153 1119 397 
L 1119 -1331 
L 544 -1331 
z
" transform="scale(0.015625)"/>
       <path id="DejaVuSans-53" d="M 3425 4513 
L 3425 3897 
Q 3066 4069 2747 4153 
Q 2428 4238 2131 4238 
Q 1616 4238 1336 4038 
Q 1056 3838 1056 3469 
Q 1056 3159 1242 3001 
Q 1428 2844 1947 2747 
L 2328 2669 
Q 3034 2534 3370 2195 
Q 3706 1856 3706 1288 
Q 3706 609 3251 259 
Q 2797 -91 1919 -91 
Q 1588 -91 1214 -16 
Q 841 59 441 206 
L 441 856 
Q 825 641 1194 531 
Q 1563 422 1919 422 
Q 2459 422 2753 634 
Q 3047 847 3047 1241 
Q 3047 1584 2836 1778 
Q 2625 1972 2144 2069 
L 1759 2144 
Q 1053 2284 737 2584 
Q 422 2884 422 3419 
Q 422 4038 858 4394 
Q 1294 4750 2059 4750 
Q 2388 4750 2728 4690 
Q 3069 4631 3425 4513 
z
" transform="scale(0.015625)"/>
      </defs>
      <use xlink:href="#DejaVuSans-45"/>
      <use xlink:href="#DejaVuSans-44" transform="translate(63.183594 0)"/>
      <use xlink:href="#DejaVuSans-41" transform="translate(138.435547 0)"/>
      <use xlink:href="#DejaVuSans-20" transform="translate(206.84375 0)"/>
      <use xlink:href="#DejaVuSans-28" transform="translate(238.630859 0)"/>
      <use xlink:href="#DejaVuSans-3bc" transform="translate(277.644531 0)"/>
      <use xlink:href="#DejaVuSans-53" transform="translate(341.267578 0)"/>
      <use xlink:href="#DejaVuSans-29" transform="translate(404.744141 0)"/>
     </g>
    </g>
   </g>
   <g id="line2d_27">
    <path d="M 96.617727 482.019637 
L 97.619889 486.139763 
L 98.622051 492.016651 
L 100.626376 505.213705 
L 101.628538 510.024265 
L 102.6307 511.954057 
L 103.632862 510.071758 
L 104.635024 503.951304 
L 105.637186 493.781129 
L 106.639348 480.374014 
L 109.645834 436.055825 
L 110.647997 426.190314 
L 111.650159 421.558241 
L 112.652321 422.785088 
L 113.654483 429.270545 
L 116.660969 458.456158 
L 117.663131 463.045834 
L 118.665293 462.701719 
L 119.667455 457.776885 
L 120.669618 449.553814 
L 122.673942 430.180727 
L 123.676104 422.150743 
L 124.678266 416.402983 
L 125.680428 412.791825 
L 126.68259 410.284537 
L 127.684752 407.242744 
L 128.686914 402.007681 
L 129.689076 393.61921 
L 132.695563 359.738252 
L 133.697725 354.305588 
L 134.699887 355.972338 
L 135.702049 364.878043 
L 138.708535 405.946893 
L 139.710697 411.489021 
L 140.712859 409.431873 
L 141.715021 401.018698 
L 143.719346 378.322992 
L 144.721508 371.177083 
L 145.72367 369.685287 
L 146.725832 373.699618 
L 147.727994 381.42198 
L 148.730156 390.11057 
L 149.732318 396.940992 
L 150.73448 399.721197 
L 151.736642 397.298025 
L 152.738805 389.686477 
L 153.740967 378.041532 
L 155.745291 351.926787 
L 156.747453 343.142542 
L 157.749615 340.290923 
L 158.751777 344.057198 
L 159.753939 353.41892 
L 161.758263 378.798761 
L 162.760425 389.30907 
L 163.762588 396.057005 
L 164.76475 398.923036 
L 165.766912 398.853413 
L 166.769074 397.239825 
L 169.77556 391.071038 
L 170.777722 387.914855 
L 171.779884 383.248148 
L 172.782046 377.085725 
L 174.786371 363.288026 
L 175.788533 357.531005 
L 176.790695 353.188151 
L 177.792857 350.070748 
L 182.803667 337.835923 
L 183.805829 336.138054 
L 184.807992 336.054576 
L 185.810154 338.377058 
L 186.812316 343.61044 
L 187.814478 351.769463 
L 188.81664 362.285638 
L 190.820964 385.483429 
L 191.823126 394.927191 
L 192.825288 400.857809 
L 193.82745 402.346215 
L 194.829612 399.348115 
L 195.831775 392.8075 
L 197.836099 376.493012 
L 198.838261 370.662348 
L 199.840423 367.952206 
L 200.842585 368.21855 
L 201.844747 370.459835 
L 203.849071 376.197307 
L 205.853395 381.039197 
L 206.855558 384.101614 
L 207.85772 388.074437 
L 209.862044 396.767306 
L 210.864206 399.322501 
L 211.866368 399.207235 
L 212.86853 395.757711 
L 213.870692 388.774838 
L 214.872854 378.501261 
L 215.875016 365.623334 
L 218.881503 323.924857 
L 219.883665 313.663707 
L 220.885827 306.762638 
L 221.887989 303.284655 
L 222.890151 302.831833 
L 223.892313 304.845255 
L 224.894475 308.857904 
L 225.896637 314.552746 
L 226.898799 321.634965 
L 229.905286 345.304413 
L 230.907448 350.839241 
L 231.90961 353.429058 
L 232.911772 352.403506 
L 233.913934 347.765892 
L 234.916096 340.368 
L 236.92042 324.146516 
L 237.922583 319.160836 
L 238.924745 317.973985 
L 239.926907 320.628836 
L 240.929069 326.128115 
L 242.933393 338.875446 
L 243.935555 342.908855 
L 244.937717 344.09927 
L 245.939879 342.324143 
L 246.942041 338.097633 
L 248.946366 326.720266 
L 249.948528 322.246564 
L 250.95069 320.033999 
L 251.952852 320.475818 
L 252.955014 323.243199 
L 254.959338 331.670048 
L 255.9615 334.863309 
L 256.963662 336.144847 
L 257.965824 335.274665 
L 258.967986 332.677959 
L 259.970149 329.370789 
L 260.972311 326.720533 
L 261.974473 326.057968 
L 262.976635 328.223903 
L 263.978797 333.199281 
L 265.983121 346.887429 
L 266.985283 352.034201 
L 267.987445 354.113237 
L 268.989607 352.817915 
L 269.99177 348.936602 
L 270.993932 344.062094 
L 271.996094 340.101638 
L 272.998256 338.761006 
L 274.000418 341.093536 
L 275.00258 347.174047 
L 278.009066 373.471367 
L 279.011228 377.395805 
L 280.01339 375.756117 
L 281.015553 368.123019 
L 282.017715 355.317037 
L 285.024201 306.566375 
L 286.026363 294.420877 
L 287.028525 286.90142 
L 288.030687 284.439253 
L 289.032849 286.777088 
L 290.035011 293.081919 
L 292.039336 311.960581 
L 293.041498 320.985642 
L 294.04366 327.424175 
L 295.045822 330.166546 
L 296.047984 329.016253 
L 297.050146 324.845823 
L 298.052308 319.540495 
L 299.05447 315.649169 
L 300.056632 315.643873 
L 301.058794 320.907046 
L 302.060957 330.904657 
L 303.063119 343.086659 
L 304.065281 353.707555 
L 305.067443 359.215664 
L 306.069605 357.535204 
L 307.071767 348.679319 
L 308.073929 334.538667 
L 310.078253 302.286179 
L 311.080415 289.444119 
L 312.082577 280.683134 
L 313.08474 276.140139 
L 314.086902 275.34177 
L 315.089064 277.582604 
L 316.091226 282.090854 
L 319.097712 299.460348 
L 320.099874 302.685267 
L 321.102036 303.265045 
L 322.104198 301.475784 
L 323.10636 298.510457 
L 324.108523 296.12587 
L 325.110685 296.017361 
L 326.112847 299.188631 
L 327.115009 305.563514 
L 329.119333 322.396336 
L 330.121495 328.66957 
L 331.123657 330.959146 
L 332.125819 328.346781 
L 333.127981 321.048559 
L 334.130144 310.306536 
L 336.134468 286.026375 
L 337.13663 275.925701 
L 338.138792 268.425156 
L 339.140954 263.457534 
L 340.143116 260.338364 
L 342.14744 255.914193 
L 344.151764 250.611213 
L 345.153927 248.535949 
L 346.156089 248.343987 
L 347.158251 251.270003 
L 348.160413 258.063394 
L 349.162575 268.522454 
L 351.166899 293.938271 
L 352.169061 303.893573 
L 353.171223 309.125901 
L 354.173385 309.037964 
L 355.175547 304.662624 
L 357.179872 292.269558 
L 358.182034 288.694252 
L 359.184196 288.170719 
L 360.186358 290.059622 
L 361.18852 292.821023 
L 362.190682 294.670931 
L 363.192844 294.221077 
L 364.195006 290.906512 
L 365.197168 285.114769 
L 367.201493 271.191386 
L 368.203655 266.103089 
L 369.205817 263.73213 
L 370.207979 264.360972 
L 371.210141 267.59133 
L 373.214465 277.62678 
L 374.216627 281.451984 
L 375.218789 282.303376 
L 376.220951 278.834057 
L 377.223114 270.385004 
L 378.225276 257.349749 
L 380.2296 224.985669 
L 381.231762 211.401797 
L 382.233924 203.426301 
L 383.236086 202.986395 
L 384.238248 210.742945 
L 385.24041 226.033531 
L 386.242572 247.013495 
L 388.246897 294.466905 
L 389.249059 314.324785 
L 390.251221 327.745248 
L 391.253383 333.130234 
L 392.255545 330.432959 
L 393.257707 321.208767 
L 395.262031 294.822999 
L 396.264193 283.902728 
L 397.266355 277.403518 
L 398.268518 275.896667 
L 399.27068 278.689217 
L 400.272842 284.223141 
L 401.275004 290.621933 
L 402.277166 296.214174 
L 403.279328 299.898922 
L 404.28149 301.282067 
L 405.283652 300.582802 
L 406.285814 298.373536 
L 407.287976 295.26865 
L 409.292301 287.737864 
L 410.294463 283.292764 
L 411.296625 278.113478 
L 413.300949 265.424333 
L 414.303111 258.789836 
L 415.305273 253.223271 
L 416.307435 249.906576 
L 417.309597 249.804096 
L 418.311759 253.313141 
L 419.313921 260.064187 
L 422.320408 287.056317 
L 423.32257 293.408139 
L 424.324732 296.808569 
L 425.326894 297.089227 
L 426.329056 294.532293 
L 427.331218 289.641652 
L 428.33338 282.892708 
L 429.335542 274.575481 
L 430.337705 264.803466 
L 432.342029 241.487852 
L 434.346353 217.3252 
L 435.348515 208.255643 
L 436.350677 203.673538 
L 437.352839 205.331308 
L 438.355001 214.28073 
L 439.357163 230.334164 
L 442.36365 296.650809 
L 443.365812 311.906309 
L 444.367974 318.16061 
L 445.370136 314.817536 
L 446.372298 303.913743 
L 447.37446 289.682365 
L 448.376622 277.330204 
L 449.378784 271.382639 
L 450.380946 274.158585 
L 451.383108 284.936926 
L 453.387433 314.448144 
L 454.389595 322.533837 
L 455.391757 320.710147 
L 456.393919 308.104972 
L 457.396081 286.935014 
L 459.400405 238.482856 
L 460.402567 221.876633 
L 461.404729 214.955333 
L 462.406892 217.882801 
L 463.409054 228.281724 
L 465.413378 255.52796 
L 466.41554 264.933092 
L 467.417702 268.780289 
L 468.419864 267.16946 
L 469.422026 261.616886 
L 471.42635 247.8947 
L 472.428512 243.929538 
L 473.430675 243.553586 
L 474.432837 246.886119 
L 475.434999 253.176677 
L 477.439323 268.575081 
L 478.441485 274.311793 
L 479.443647 277.284573 
L 480.445809 277.594618 
L 482.450133 274.840271 
L 483.452295 274.364223 
L 484.454458 275.012217 
L 485.45662 275.821662 
L 486.458782 275.117426 
L 487.460944 271.231636 
L 488.463106 263.216314 
L 489.465268 251.298969 
L 491.469592 222.574709 
L 492.471754 210.785251 
L 493.473916 203.657161 
L 494.476079 202.049309 
L 495.478241 205.36429 
L 496.480403 211.826575 
L 497.482565 219.182156 
L 498.484727 225.512858 
L 499.486889 229.812732 
L 500.489051 232.132083 
L 502.493375 234.609657 
L 503.495537 237.016379 
L 504.497699 241.000017 
L 506.502024 251.268771 
L 507.504186 254.574947 
L 508.506348 254.347128 
L 509.50851 249.440671 
L 510.510672 239.745303 
L 513.517158 198.425694 
L 514.51932 189.724517 
L 515.521482 187.620135 
L 516.523645 192.657416 
L 517.525807 203.527984 
L 519.530131 230.292335 
L 520.532293 238.903481 
L 521.534455 240.830547 
L 522.536617 235.617646 
L 523.538779 224.817987 
L 524.540941 211.592677 
L 525.543103 199.86432 
L 526.545266 193.221625 
L 527.547428 193.882012 
L 528.54959 202.088407 
L 529.551752 216.199342 
L 531.556076 250.664752 
L 532.558238 265.53108 
L 533.5604 276.522943 
L 534.562562 283.191313 
L 535.564724 285.923549 
L 536.566886 285.638331 
L 537.569049 283.452392 
L 540.575535 274.185134 
L 541.577697 271.649491 
L 542.579859 269.699329 
L 543.582021 268.56569 
L 544.584183 268.573757 
L 545.586345 270.02846 
L 546.588507 273.040891 
L 547.590669 277.397167 
L 549.594994 287.725435 
L 550.597156 292.128061 
L 551.599318 295.08304 
L 552.60148 296.122015 
L 553.603642 294.980559 
L 554.605804 291.612892 
L 555.607966 286.292262 
L 557.61229 273.172569 
L 558.614453 268.054396 
L 559.616615 265.724813 
L 560.618777 266.858395 
L 561.620939 271.073166 
L 563.625263 282.096022 
L 564.627425 284.59281 
L 565.629587 283.082433 
L 566.631749 277.5618 
L 569.638236 252.388147 
L 570.640398 247.516754 
L 571.64256 246.187753 
L 572.644722 247.900425 
L 573.646884 251.181687 
L 574.649046 254.061428 
L 575.651208 254.726738 
L 576.65337 252.140635 
L 577.655532 246.395309 
L 579.659856 230.757735 
L 580.662019 224.531336 
L 581.664181 221.250545 
L 582.666343 221.221682 
L 583.668505 223.736302 
L 585.672829 230.68506 
L 586.674991 232.609974 
L 587.677153 232.984664 
L 588.679315 232.353337 
L 589.681477 231.57009 
L 590.68364 231.322003 
L 591.685802 231.839022 
L 593.690126 233.870774 
L 594.692288 234.192892 
L 595.69445 233.341669 
L 596.696612 231.134008 
L 597.698774 227.811365 
L 598.700936 224.038396 
L 599.703098 220.763963 
L 600.70526 218.959542 
L 601.707423 219.307486 
L 602.709585 221.953998 
L 603.711747 226.434123 
L 605.716071 236.951212 
L 606.718233 240.867977 
L 607.720395 242.921171 
L 608.722557 242.923121 
L 609.724719 241.089976 
L 610.726881 237.878871 
L 611.729043 233.771202 
L 613.733368 223.92515 
L 614.73553 218.100805 
L 615.737692 211.290461 
L 616.739854 203.202633 
L 619.74634 175.207454 
L 620.748502 169.204736 
L 621.750664 167.93874 
L 622.752827 172.590719 
L 623.754989 183.189739 
L 624.757151 198.44849 
L 626.761475 232.599838 
L 627.763637 245.372611 
L 628.765799 251.980188 
L 629.767961 251.477172 
L 630.770123 244.48846 
L 631.772285 233.01036 
L 633.77661 207.837759 
L 634.778772 199.258242 
L 635.780934 195.344779 
L 636.783096 196.219299 
L 637.785258 201.029184 
L 640.791744 222.817055 
L 641.793906 227.026242 
L 642.796068 227.838356 
L 643.79823 224.927691 
L 644.800393 218.527294 
L 645.802555 209.380567 
L 648.809041 177.285162 
L 649.811203 168.790906 
L 650.813365 162.591878 
L 651.815527 158.962323 
L 652.817689 157.967434 
L 653.819851 159.498058 
L 654.822014 163.28543 
L 655.824176 168.914103 
L 657.8285 183.337979 
L 658.830662 190.590318 
L 659.832824 196.645264 
L 660.834986 200.621232 
L 661.837148 201.943431 
L 662.83931 200.595408 
L 663.841472 197.268027 
L 664.843634 193.305003 
L 665.845797 190.395162 
L 666.847959 190.068734 
L 667.850121 193.168664 
L 668.852283 199.512744 
L 670.856607 216.53839 
L 671.858769 223.575024 
L 672.860931 227.742996 
L 673.863093 228.615427 
L 674.865255 226.550417 
L 675.867417 222.363592 
L 677.871742 210.97218 
L 679.876066 199.033289 
L 680.878228 193.57221 
L 681.88039 188.759018 
L 682.882552 184.812327 
L 683.884714 181.871629 
L 684.886876 179.951454 
L 685.889038 178.974709 
L 686.891201 178.887317 
L 687.893363 179.783239 
L 688.895525 181.943798 
L 689.897687 185.729363 
L 690.899849 191.321077 
L 692.904173 205.805184 
L 693.906335 211.693404 
L 694.908497 213.72911 
L 695.910659 209.78657 
L 696.912821 198.631231 
L 697.914984 180.49925 
L 700.92147 111.605036 
L 701.923632 97.700376 
L 702.925794 94.007071 
L 703.927956 101.041468 
L 704.930118 116.932457 
L 707.936605 178.299355 
L 708.938767 190.487712 
L 709.940929 195.181012 
L 710.943091 192.880067 
L 711.945253 185.508313 
L 713.949577 166.993111 
L 714.951739 161.30683 
L 715.953901 160.073121 
L 716.956063 163.054185 
L 719.96255 179.408296 
L 720.964712 181.437453 
L 721.966874 181.209343 
L 722.969036 180.107845 
L 723.971198 179.917919 
L 724.97336 181.998615 
L 725.975522 186.659481 
L 727.979846 199.097551 
L 728.982008 202.878979 
L 729.984171 202.627884 
L 730.986333 197.706985 
L 731.988495 188.854558 
L 733.992819 168.340164 
L 734.994981 162.423892 
L 735.997143 162.445279 
L 736.999305 169.098748 
L 738.001467 181.534258 
L 741.007954 228.360063 
L 742.010116 236.83505 
L 743.012278 237.620404 
L 744.01444 229.974379 
L 745.016602 214.789128 
L 748.023088 153.223134 
L 749.02525 139.241289 
L 750.027412 132.692923 
L 751.029575 133.830271 
L 752.031737 141.266109 
L 754.036061 163.784851 
L 755.038223 172.591647 
L 756.040385 176.855273 
L 757.042547 176.289291 
L 758.044709 172.147477 
L 760.049033 161.379825 
L 761.051195 157.625275 
L 763.05552 151.902703 
L 764.057682 147.182054 
L 765.059844 139.953206 
L 768.06633 111.067395 
L 769.068492 104.384381 
L 770.070654 100.959655 
L 771.072816 100.453944 
L 772.074979 101.770726 
L 773.077141 103.612567 
L 774.079303 104.982447 
L 775.081465 105.380579 
L 776.083627 104.694563 
L 777.085789 103.010085 
L 780.092275 95.938042 
L 781.094437 95.647128 
L 782.096599 97.680812 
L 783.098762 101.754237 
L 784.100924 106.572165 
L 785.103086 110.388486 
L 786.105248 111.957665 
L 787.10741 111.286456 
L 788.109572 109.700406 
L 789.111734 109.17794 
L 790.113896 111.326739 
L 791.116058 116.529793 
L 793.120382 130.439213 
L 794.122545 134.308624 
L 795.124707 133.331145 
L 796.126869 126.917344 
L 797.129031 116.096905 
L 799.133355 91.515504 
L 800.135517 83.610487 
L 801.137679 81.221344 
L 802.139841 84.460404 
L 803.142003 91.995584 
L 805.146328 110.531136 
L 806.14849 116.524142 
L 807.150652 117.687145 
L 808.152814 113.086779 
L 809.154976 103.10926 
L 811.1593 77.162679 
L 812.161462 70.235193 
L 813.163624 74.374327 
L 814.165786 93.502248 
L 815.167949 128.718789 
L 816.170111 177.525796 
L 817.172273 234.091229 
L 817.172273 234.091229 
" clip-path="url(#pacf3a875ad)" style="fill: none; stroke: #0000ff; stroke-width: 0.5; stroke-linecap: square"/>
   </g>
   <g id="patch_3">
    <path d="M 60.59 534.04 
L 60.59 48.14925 
" style="fill: none; stroke: #000000; stroke-width: 0.8; stroke-linejoin: miter; stroke-linecap: square"/>
   </g>
   <g id="patch_4">
    <path d="M 853.2 534.04 
L 853.2 48.14925 
" style="fill: none; stroke: #000000; stroke-width: 0.8; stroke-linejoin: miter; stroke-linecap: square"/>
   </g>
   <g id="patch_5">
    <path d="M 60.59 534.04 
L 853.2 534.04 
" style="fill: none; stroke: #000000; stroke-width: 0.8; stroke-linejoin: miter; stroke-linecap: square"/>
   </g>
   <g id="patch_6">
    <path d="M 60.59 48.14925 
L 853.2 48.14925 
" style="fill: none; stroke: #000000; stroke-width: 0.8; stroke-linejoin: miter; stroke-linecap: square"/>
   </g>
   <g id="text_16">
    <!-- EDA Filtering: data_5_E4 -->
    <g transform="translate(395.790312 19.4755) scale(0.1 -0.1)">
     <defs>
      <path id="DejaVuSans-46" d="M 628 4666 
L 3309 4666 
L 3309 4134 
L 1259 4134 
L 1259 2759 
L 3109 2759 
L 3109 2228 
L 1259 2228 
L 1259 0 
L 628 0 
L 628 4666 
z
" transform="scale(0.015625)"/>
      <path id="DejaVuSans-6c" d="M 603 4863 
L 1178 4863 
L 1178 0 
L 603 0 
L 603 4863 
z
" transform="scale(0.015625)"/>
      <path id="DejaVuSans-72" d="M 2631 2963 
Q 2534 3019 2420 3045 
Q 2306 3072 2169 3072 
Q 1681 3072 1420 2755 
Q 1159 2438 1159 1844 
L 1159 0 
L 581 0 
L 581 3500 
L 1159 3500 
L 1159 2956 
Q 1341 3275 1631 3429 
Q 1922 3584 2338 3584 
Q 2397 3584 2469 3576 
Q 2541 3569 2628 3553 
L 2631 2963 
z
" transform="scale(0.015625)"/>
      <path id="DejaVuSans-67" d="M 2906 1791 
Q 2906 2416 2648 2759 
Q 2391 3103 1925 3103 
Q 1463 3103 1205 2759 
Q 947 2416 947 1791 
Q 947 1169 1205 825 
Q 1463 481 1925 481 
Q 2391 481 2648 825 
Q 2906 1169 2906 1791 
z
M 3481 434 
Q 3481 -459 3084 -895 
Q 2688 -1331 1869 -1331 
Q 1566 -1331 1297 -1286 
Q 1028 -1241 775 -1147 
L 775 -588 
Q 1028 -725 1275 -790 
Q 1522 -856 1778 -856 
Q 2344 -856 2625 -561 
Q 2906 -266 2906 331 
L 2906 616 
Q 2728 306 2450 153 
Q 2172 0 1784 0 
Q 1141 0 747 490 
Q 353 981 353 1791 
Q 353 2603 747 3093 
Q 1141 3584 1784 3584 
Q 2172 3584 2450 3431 
Q 2728 3278 2906 2969 
L 2906 3500 
L 3481 3500 
L 3481 434 
z
" transform="scale(0.015625)"/>
      <path id="DejaVuSans-3a" d="M 750 794 
L 1409 794 
L 1409 0 
L 750 0 
L 750 794 
z
M 750 3309 
L 1409 3309 
L 1409 2516 
L 750 2516 
L 750 3309 
z
" transform="scale(0.015625)"/>
      <path id="DejaVuSans-64" d="M 2906 2969 
L 2906 4863 
L 3481 4863 
L 3481 0 
L 2906 0 
L 2906 525 
Q 2725 213 2448 61 
Q 2172 -91 1784 -91 
Q 1150 -91 751 415 
Q 353 922 353 1747 
Q 353 2572 751 3078 
Q 1150 3584 1784 3584 
Q 2172 3584 2448 3432 
Q 2725 3281 2906 2969 
z
M 947 1747 
Q 947 1113 1208 752 
Q 1469 391 1925 391 
Q 2381 391 2643 752 
Q 2906 1113 2906 1747 
Q 2906 2381 2643 2742 
Q 2381 3103 1925 3103 
Q 1469 3103 1208 2742 
Q 947 2381 947 1747 
z
" transform="scale(0.015625)"/>
      <path id="DejaVuSans-61" d="M 2194 1759 
Q 1497 1759 1228 1600 
Q 959 1441 959 1056 
Q 959 750 1161 570 
Q 1363 391 1709 391 
Q 2188 391 2477 730 
Q 2766 1069 2766 1631 
L 2766 1759 
L 2194 1759 
z
M 3341 1997 
L 3341 0 
L 2766 0 
L 2766 531 
Q 2569 213 2275 61 
Q 1981 -91 1556 -91 
Q 1019 -91 701 211 
Q 384 513 384 1019 
Q 384 1609 779 1909 
Q 1175 2209 1959 2209 
L 2766 2209 
L 2766 2266 
Q 2766 2663 2505 2880 
Q 2244 3097 1772 3097 
Q 1472 3097 1187 3025 
Q 903 2953 641 2809 
L 641 3341 
Q 956 3463 1253 3523 
Q 1550 3584 1831 3584 
Q 2591 3584 2966 3190 
Q 3341 2797 3341 1997 
z
" transform="scale(0.015625)"/>
      <path id="DejaVuSans-5f" d="M 3263 -1063 
L 3263 -1509 
L -63 -1509 
L -63 -1063 
L 3263 -1063 
z
" transform="scale(0.015625)"/>
     </defs>
     <use xlink:href="#DejaVuSans-45"/>
     <use xlink:href="#DejaVuSans-44" transform="translate(63.183594 0)"/>
     <use xlink:href="#DejaVuSans-41" transform="translate(138.435547 0)"/>
     <use xlink:href="#DejaVuSans-20" transform="translate(206.84375 0)"/>
     <use xlink:href="#DejaVuSans-46" transform="translate(238.630859 0)"/>
     <use xlink:href="#DejaVuSans-69" transform="translate(288.900391 0)"/>
     <use xlink:href="#DejaVuSans-6c" transform="translate(316.683594 0)"/>
     <use xlink:href="#DejaVuSans-74" transform="translate(344.466797 0)"/>
     <use xlink:href="#DejaVuSans-65" transform="translate(383.675781 0)"/>
     <use xlink:href="#DejaVuSans-72" transform="translate(445.199219 0)"/>
     <use xlink:href="#DejaVuSans-69" transform="translate(486.3125 0)"/>
     <use xlink:href="#DejaVuSans-6e" transform="translate(514.095703 0)"/>
     <use xlink:href="#DejaVuSans-67" transform="translate(577.474609 0)"/>
     <use xlink:href="#DejaVuSans-3a" transform="translate(640.951172 0)"/>
     <use xlink:href="#DejaVuSans-20" transform="translate(674.642578 0)"/>
     <use xlink:href="#DejaVuSans-64" transform="translate(706.429688 0)"/>
     <use xlink:href="#DejaVuSans-61" transform="translate(769.90625 0)"/>
     <use xlink:href="#DejaVuSans-74" transform="translate(831.185547 0)"/>
     <use xlink:href="#DejaVuSans-61" transform="translate(870.394531 0)"/>
     <use xlink:href="#DejaVuSans-5f" transform="translate(931.673828 0)"/>
     <use xlink:href="#DejaVuSans-35" transform="translate(981.673828 0)"/>
     <use xlink:href="#DejaVuSans-5f" transform="translate(1045.296875 0)"/>
     <use xlink:href="#DejaVuSans-45" transform="translate(1095.296875 0)"/>
     <use xlink:href="#DejaVuSans-34" transform="translate(1158.480469 0)"/>
    </g>
    <!-- Window=33, Threshold=0.3, Sample=720 (180.0s) -->
    <g transform="translate(328.603594 30.951437) scale(0.1 -0.1)">
     <defs>
      <path id="DejaVuSans-57" d="M 213 4666 
L 850 4666 
L 1831 722 
L 2809 4666 
L 3519 4666 
L 4500 722 
L 5478 4666 
L 6119 4666 
L 4947 0 
L 4153 0 
L 3169 4050 
L 2175 0 
L 1381 0 
L 213 4666 
z
" transform="scale(0.015625)"/>
      <path id="DejaVuSans-6f" d="M 1959 3097 
Q 1497 3097 1228 2736 
Q 959 2375 959 1747 
Q 959 1119 1226 758 
Q 1494 397 1959 397 
Q 2419 397 2687 759 
Q 2956 1122 2956 1747 
Q 2956 2369 2687 2733 
Q 2419 3097 1959 3097 
z
M 1959 3584 
Q 2709 3584 3137 3096 
Q 3566 2609 3566 1747 
Q 3566 888 3137 398 
Q 2709 -91 1959 -91 
Q 1206 -91 779 398 
Q 353 888 353 1747 
Q 353 2609 779 3096 
Q 1206 3584 1959 3584 
z
" transform="scale(0.015625)"/>
      <path id="DejaVuSans-77" d="M 269 3500 
L 844 3500 
L 1563 769 
L 2278 3500 
L 2956 3500 
L 3675 769 
L 4391 3500 
L 4966 3500 
L 4050 0 
L 3372 0 
L 2619 2869 
L 1863 0 
L 1184 0 
L 269 3500 
z
" transform="scale(0.015625)"/>
      <path id="DejaVuSans-3d" d="M 678 2906 
L 4684 2906 
L 4684 2381 
L 678 2381 
L 678 2906 
z
M 678 1631 
L 4684 1631 
L 4684 1100 
L 678 1100 
L 678 1631 
z
" transform="scale(0.015625)"/>
      <path id="DejaVuSans-2c" d="M 750 794 
L 1409 794 
L 1409 256 
L 897 -744 
L 494 -744 
L 750 256 
L 750 794 
z
" transform="scale(0.015625)"/>
      <path id="DejaVuSans-68" d="M 3513 2113 
L 3513 0 
L 2938 0 
L 2938 2094 
Q 2938 2591 2744 2837 
Q 2550 3084 2163 3084 
Q 1697 3084 1428 2787 
Q 1159 2491 1159 1978 
L 1159 0 
L 581 0 
L 581 4863 
L 1159 4863 
L 1159 2956 
Q 1366 3272 1645 3428 
Q 1925 3584 2291 3584 
Q 2894 3584 3203 3211 
Q 3513 2838 3513 2113 
z
" transform="scale(0.015625)"/>
      <path id="DejaVuSans-70" d="M 1159 525 
L 1159 -1331 
L 581 -1331 
L 581 3500 
L 1159 3500 
L 1159 2969 
Q 1341 3281 1617 3432 
Q 1894 3584 2278 3584 
Q 2916 3584 3314 3078 
Q 3713 2572 3713 1747 
Q 3713 922 3314 415 
Q 2916 -91 2278 -91 
Q 1894 -91 1617 61 
Q 1341 213 1159 525 
z
M 3116 1747 
Q 3116 2381 2855 2742 
Q 2594 3103 2138 3103 
Q 1681 3103 1420 2742 
Q 1159 2381 1159 1747 
Q 1159 1113 1420 752 
Q 1681 391 2138 391 
Q 2594 391 2855 752 
Q 3116 1113 3116 1747 
z
" transform="scale(0.015625)"/>
     </defs>
     <use xlink:href="#DejaVuSans-57"/>
     <use xlink:href="#DejaVuSans-69" transform="translate(96.626953 0)"/>
     <use xlink:href="#DejaVuSans-6e" transform="translate(124.410156 0)"/>
     <use xlink:href="#DejaVuSans-64" transform="translate(187.789062 0)"/>
     <use xlink:href="#DejaVuSans-6f" transform="translate(251.265625 0)"/>
     <use xlink:href="#DejaVuSans-77" transform="translate(312.447266 0)"/>
     <use xlink:href="#DejaVuSans-3d" transform="translate(394.234375 0)"/>
     <use xlink:href="#DejaVuSans-33" transform="translate(478.023438 0)"/>
     <use xlink:href="#DejaVuSans-33" transform="translate(541.646484 0)"/>
     <use xlink:href="#DejaVuSans-2c" transform="translate(605.269531 0)"/>
     <use xlink:href="#DejaVuSans-20" transform="translate(637.056641 0)"/>
     <use xlink:href="#DejaVuSans-54" transform="translate(668.84375 0)"/>
     <use xlink:href="#DejaVuSans-68" transform="translate(729.927734 0)"/>
     <use xlink:href="#DejaVuSans-72" transform="translate(793.306641 0)"/>
     <use xlink:href="#DejaVuSans-65" transform="translate(832.169922 0)"/>
     <use xlink:href="#DejaVuSans-73" transform="translate(893.693359 0)"/>
     <use xlink:href="#DejaVuSans-68" transform="translate(945.792969 0)"/>
     <use xlink:href="#DejaVuSans-6f" transform="translate(1009.171875 0)"/>
     <use xlink:href="#DejaVuSans-6c" transform="translate(1070.353516 0)"/>
     <use xlink:href="#DejaVuSans-64" transform="translate(1098.136719 0)"/>
     <use xlink:href="#DejaVuSans-3d" transform="translate(1161.613281 0)"/>
     <use xlink:href="#DejaVuSans-30" transform="translate(1245.402344 0)"/>
     <use xlink:href="#DejaVuSans-2e" transform="translate(1309.025391 0)"/>
     <use xlink:href="#DejaVuSans-33" transform="translate(1340.8125 0)"/>
     <use xlink:href="#DejaVuSans-2c" transform="translate(1404.435547 0)"/>
     <use xlink:href="#DejaVuSans-20" transform="translate(1436.222656 0)"/>
     <use xlink:href="#DejaVuSans-53" transform="translate(1468.009766 0)"/>
     <use xlink:href="#DejaVuSans-61" transform="translate(1531.486328 0)"/>
     <use xlink:href="#DejaVuSans-6d" transform="translate(1592.765625 0)"/>
     <use xlink:href="#DejaVuSans-70" transform="translate(1690.177734 0)"/>
     <use xlink:href="#DejaVuSans-6c" transform="translate(1753.654297 0)"/>
     <use xlink:href="#DejaVuSans-65" transform="translate(1781.4375 0)"/>
     <use xlink:href="#DejaVuSans-3d" transform="translate(1842.960938 0)"/>
     <use xlink:href="#DejaVuSans-37" transform="translate(1926.75 0)"/>
     <use xlink:href="#DejaVuSans-32" transform="translate(1990.373047 0)"/>
     <use xlink:href="#DejaVuSans-30" transform="translate(2053.996094 0)"/>
     <use xlink:href="#DejaVuSans-20" transform="translate(2117.619141 0)"/>
     <use xlink:href="#DejaVuSans-28" transform="translate(2149.40625 0)"/>
     <use xlink:href="#DejaVuSans-31" transform="translate(2188.419922 0)"/>
     <use xlink:href="#DejaVuSans-38" transform="translate(2252.042969 0)"/>
     <use xlink:href="#DejaVuSans-30" transform="translate(2315.666016 0)"/>
     <use xlink:href="#DejaVuSans-2e" transform="translate(2379.289062 0)"/>
     <use xlink:href="#DejaVuSans-30" transform="translate(2411.076172 0)"/>
     <use xlink:href="#DejaVuSans-73" transform="translate(2474.699219 0)"/>
     <use xlink:href="#DejaVuSans-29" transform="translate(2526.798828 0)"/>
    </g>
    <!-- Remove: Total=0.00%, Thr=0.00%, Med=0.00%, Vel=0.00%, Temp=0.00% -->
    <g transform="translate(268.9075 42.14925) scale(0.1 -0.1)">
     <defs>
      <path id="DejaVuSans-52" d="M 2841 2188 
Q 3044 2119 3236 1894 
Q 3428 1669 3622 1275 
L 4263 0 
L 3584 0 
L 2988 1197 
Q 2756 1666 2539 1819 
Q 2322 1972 1947 1972 
L 1259 1972 
L 1259 0 
L 628 0 
L 628 4666 
L 2053 4666 
Q 2853 4666 3247 4331 
Q 3641 3997 3641 3322 
Q 3641 2881 3436 2590 
Q 3231 2300 2841 2188 
z
M 1259 4147 
L 1259 2491 
L 2053 2491 
Q 2509 2491 2742 2702 
Q 2975 2913 2975 3322 
Q 2975 3731 2742 3939 
Q 2509 4147 2053 4147 
L 1259 4147 
z
" transform="scale(0.015625)"/>
      <path id="DejaVuSans-76" d="M 191 3500 
L 800 3500 
L 1894 563 
L 2988 3500 
L 3597 3500 
L 2284 0 
L 1503 0 
L 191 3500 
z
" transform="scale(0.015625)"/>
      <path id="DejaVuSans-25" d="M 4653 2053 
Q 4381 2053 4226 1822 
Q 4072 1591 4072 1178 
Q 4072 772 4226 539 
Q 4381 306 4653 306 
Q 4919 306 5073 539 
Q 5228 772 5228 1178 
Q 5228 1588 5073 1820 
Q 4919 2053 4653 2053 
z
M 4653 2450 
Q 5147 2450 5437 2106 
Q 5728 1763 5728 1178 
Q 5728 594 5436 251 
Q 5144 -91 4653 -91 
Q 4153 -91 3862 251 
Q 3572 594 3572 1178 
Q 3572 1766 3864 2108 
Q 4156 2450 4653 2450 
z
M 1428 4353 
Q 1159 4353 1004 4120 
Q 850 3888 850 3481 
Q 850 3069 1003 2837 
Q 1156 2606 1428 2606 
Q 1700 2606 1854 2837 
Q 2009 3069 2009 3481 
Q 2009 3884 1853 4118 
Q 1697 4353 1428 4353 
z
M 4250 4750 
L 4750 4750 
L 1831 -91 
L 1331 -91 
L 4250 4750 
z
M 1428 4750 
Q 1922 4750 2215 4408 
Q 2509 4066 2509 3481 
Q 2509 2891 2217 2550 
Q 1925 2209 1428 2209 
Q 931 2209 642 2551 
Q 353 2894 353 3481 
Q 353 4063 643 4406 
Q 934 4750 1428 4750 
z
" transform="scale(0.015625)"/>
      <path id="DejaVuSans-4d" d="M 628 4666 
L 1569 4666 
L 2759 1491 
L 3956 4666 
L 4897 4666 
L 4897 0 
L 4281 0 
L 4281 4097 
L 3078 897 
L 2444 897 
L 1241 4097 
L 1241 0 
L 628 0 
L 628 4666 
z
" transform="scale(0.015625)"/>
      <path id="DejaVuSans-56" d="M 1831 0 
L 50 4666 
L 709 4666 
L 2188 738 
L 3669 4666 
L 4325 4666 
L 2547 0 
L 1831 0 
z
" transform="scale(0.015625)"/>
     </defs>
     <use xlink:href="#DejaVuSans-52"/>
     <use xlink:href="#DejaVuSans-65" transform="translate(64.982422 0)"/>
     <use xlink:href="#DejaVuSans-6d" transform="translate(126.505859 0)"/>
     <use xlink:href="#DejaVuSans-6f" transform="translate(223.917969 0)"/>
     <use xlink:href="#DejaVuSans-76" transform="translate(285.099609 0)"/>
     <use xlink:href="#DejaVuSans-65" transform="translate(344.279297 0)"/>
     <use xlink:href="#DejaVuSans-3a" transform="translate(405.802734 0)"/>
     <use xlink:href="#DejaVuSans-20" transform="translate(439.494141 0)"/>
     <use xlink:href="#DejaVuSans-54" transform="translate(471.28125 0)"/>
     <use xlink:href="#DejaVuSans-6f" transform="translate(515.365234 0)"/>
     <use xlink:href="#DejaVuSans-74" transform="translate(576.546875 0)"/>
     <use xlink:href="#DejaVuSans-61" transform="translate(615.755859 0)"/>
     <use xlink:href="#DejaVuSans-6c" transform="translate(677.035156 0)"/>
     <use xlink:href="#DejaVuSans-3d" transform="translate(704.818359 0)"/>
     <use xlink:href="#DejaVuSans-30" transform="translate(788.607422 0)"/>
     <use xlink:href="#DejaVuSans-2e" transform="translate(852.230469 0)"/>
     <use xlink:href="#DejaVuSans-30" transform="translate(884.017578 0)"/>
     <use xlink:href="#DejaVuSans-30" transform="translate(947.640625 0)"/>
     <use xlink:href="#DejaVuSans-25" transform="translate(1011.263672 0)"/>
     <use xlink:href="#DejaVuSans-2c" transform="translate(1106.283203 0)"/>
     <use xlink:href="#DejaVuSans-20" transform="translate(1138.070312 0)"/>
     <use xlink:href="#DejaVuSans-54" transform="translate(1169.857422 0)"/>
     <use xlink:href="#DejaVuSans-68" transform="translate(1230.941406 0)"/>
     <use xlink:href="#DejaVuSans-72" transform="translate(1294.320312 0)"/>
     <use xlink:href="#DejaVuSans-3d" transform="translate(1335.433594 0)"/>
     <use xlink:href="#DejaVuSans-30" transform="translate(1419.222656 0)"/>
     <use xlink:href="#DejaVuSans-2e" transform="translate(1482.845703 0)"/>
     <use xlink:href="#DejaVuSans-30" transform="translate(1514.632812 0)"/>
     <use xlink:href="#DejaVuSans-30" transform="translate(1578.255859 0)"/>
     <use xlink:href="#DejaVuSans-25" transform="translate(1641.878906 0)"/>
     <use xlink:href="#DejaVuSans-2c" transform="translate(1736.898438 0)"/>
     <use xlink:href="#DejaVuSans-20" transform="translate(1768.685547 0)"/>
     <use xlink:href="#DejaVuSans-4d" transform="translate(1800.472656 0)"/>
     <use xlink:href="#DejaVuSans-65" transform="translate(1886.751953 0)"/>
     <use xlink:href="#DejaVuSans-64" transform="translate(1948.275391 0)"/>
     <use xlink:href="#DejaVuSans-3d" transform="translate(2011.751953 0)"/>
     <use xlink:href="#DejaVuSans-30" transform="translate(2095.541016 0)"/>
     <use xlink:href="#DejaVuSans-2e" transform="translate(2159.164062 0)"/>
     <use xlink:href="#DejaVuSans-30" transform="translate(2190.951172 0)"/>
     <use xlink:href="#DejaVuSans-30" transform="translate(2254.574219 0)"/>
     <use xlink:href="#DejaVuSans-25" transform="translate(2318.197266 0)"/>
     <use xlink:href="#DejaVuSans-2c" transform="translate(2413.216797 0)"/>
     <use xlink:href="#DejaVuSans-20" transform="translate(2445.003906 0)"/>
     <use xlink:href="#DejaVuSans-56" transform="translate(2476.791016 0)"/>
     <use xlink:href="#DejaVuSans-65" transform="translate(2537.449219 0)"/>
     <use xlink:href="#DejaVuSans-6c" transform="translate(2598.972656 0)"/>
     <use xlink:href="#DejaVuSans-3d" transform="translate(2626.755859 0)"/>
     <use xlink:href="#DejaVuSans-30" transform="translate(2710.544922 0)"/>
     <use xlink:href="#DejaVuSans-2e" transform="translate(2774.167969 0)"/>
     <use xlink:href="#DejaVuSans-30" transform="translate(2805.955078 0)"/>
     <use xlink:href="#DejaVuSans-30" transform="translate(2869.578125 0)"/>
     <use xlink:href="#DejaVuSans-25" transform="translate(2933.201172 0)"/>
     <use xlink:href="#DejaVuSans-2c" transform="translate(3028.220703 0)"/>
     <use xlink:href="#DejaVuSans-20" transform="translate(3060.007812 0)"/>
     <use xlink:href="#DejaVuSans-54" transform="translate(3091.794922 0)"/>
     <use xlink:href="#DejaVuSans-65" transform="translate(3135.878906 0)"/>
     <use xlink:href="#DejaVuSans-6d" transform="translate(3197.402344 0)"/>
     <use xlink:href="#DejaVuSans-70" transform="translate(3294.814453 0)"/>
     <use xlink:href="#DejaVuSans-3d" transform="translate(3358.291016 0)"/>
     <use xlink:href="#DejaVuSans-30" transform="translate(3442.080078 0)"/>
     <use xlink:href="#DejaVuSans-2e" transform="translate(3505.703125 0)"/>
     <use xlink:href="#DejaVuSans-30" transform="translate(3537.490234 0)"/>
     <use xlink:href="#DejaVuSans-30" transform="translate(3601.113281 0)"/>
     <use xlink:href="#DejaVuSans-25" transform="translate(3664.736328 0)"/>
    </g>
   </g>
   <g id="legend_1">
    <g id="patch_7">
     <path d="M 67.59 70.827375 
L 122.069688 70.827375 
Q 124.069688 70.827375 124.069688 68.827375 
L 124.069688 55.14925 
Q 124.069688 53.14925 122.069688 53.14925 
L 67.59 53.14925 
Q 65.59 53.14925 65.59 55.14925 
L 65.59 68.827375 
Q 65.59 70.827375 67.59 70.827375 
z
" style="fill: #ffffff; opacity: 0.8; stroke: #cccccc; stroke-linejoin: miter"/>
    </g>
    <g id="line2d_28">
     <path d="M 69.59 61.247687 
L 79.59 61.247687 
L 89.59 61.247687 
" style="fill: none; stroke: #0000ff; stroke-width: 0.5; stroke-linecap: square"/>
    </g>
    <g id="text_17">
     <!-- Kept -->
     <g transform="translate(97.59 64.747687) scale(0.1 -0.1)">
      <defs>
       <path id="DejaVuSans-4b" d="M 628 4666 
L 1259 4666 
L 1259 2694 
L 3353 4666 
L 4166 4666 
L 1850 2491 
L 4331 0 
L 3500 0 
L 1259 2247 
L 1259 0 
L 628 0 
L 628 4666 
z
" transform="scale(0.015625)"/>
      </defs>
      <use xlink:href="#DejaVuSans-4b"/>
      <use xlink:href="#DejaVuSans-65" transform="translate(60.576172 0)"/>
      <use xlink:href="#DejaVuSans-70" transform="translate(122.099609 0)"/>
      <use xlink:href="#DejaVuSans-74" transform="translate(185.576172 0)"/>
     </g>
    </g>
   </g>
  </g>
 </g>
 <defs>
  <clipPath id="pacf3a875ad">
   <rect x="60.59" y="48.14925" width="792.61" height="485.89075"/>
  </clipPath>
 </defs>
</svg>
