<?xml version="1.0" encoding="utf-8" standalone="no"?>
<!DOCTYPE svg PUBLIC "-//W3C//DTD SVG 1.1//EN"
  "http://www.w3.org/Graphics/SVG/1.1/DTD/svg11.dtd">
<svg xmlns:xlink="http://www.w3.org/1999/xlink" width="460.8pt" height="345.6pt" viewBox="0 0 460.8 345.6" xmlns="http://www.w3.org/2000/svg" version="1.1">
 <metadata>
  <rdf:RDF xmlns:dc="http://purl.org/dc/elements/1.1/" xmlns:cc="http://creativecommons.org/ns#" xmlns:rdf="http://www.w3.org/1999/02/22-rdf-syntax-ns#">
   <cc:Work>
    <dc:type rdf:resource="http://purl.org/dc/dcmitype/StillImage"/>
    <dc:date>2025-09-22T15:39:20.040004</dc:date>
    <dc:format>image/svg+xml</dc:format>
    <dc:creator>
     <cc:Agent>
      <dc:title>Matplotlib v3.10.0, https://matplotlib.org/</dc:title>
     </cc:Agent>
    </dc:creator>
   </cc:Work>
  </rdf:RDF>
 </metadata>
 <defs>
  <style type="text/css">*{stroke-linejoin: round; stroke-linecap: butt}</style>
 </defs>
 <g id="figure_1">
  <g id="patch_1">
   <path d="M 0 345.6 
L 460.8 345.6 
L 460.8 0 
L 0 0 
z
" style="fill: #ffffff"/>
  </g>
  <g id="axes_1">
   <g id="patch_2">
    <path d="M 46.64 303.64 
L 450 303.64 
L 450 25.44 
L 46.64 25.44 
z
" style="fill: #ffffff"/>
   </g>
   <g id="matplotlib.axis_1">
    <g id="xtick_1">
     <g id="line2d_1">
      <path d="M 64.974545 303.64 
L 64.974545 25.44 
" clip-path="url(#pc99b6d3fa8)" style="fill: none; stroke: #b0b0b0; stroke-opacity: 0.3; stroke-width: 0.8; stroke-linecap: square"/>
     </g>
     <g id="line2d_2">
      <defs>
       <path id="m88a31bb677" d="M 0 0 
L 0 3.5 
" style="stroke: #000000; stroke-width: 0.8"/>
      </defs>
      <g>
       <use xlink:href="#m88a31bb677" x="64.974545" y="303.64" style="stroke: #000000; stroke-width: 0.8"/>
      </g>
     </g>
     <g id="text_1">
      <!-- 0 -->
      <g transform="translate(61.793295 318.238437) scale(0.1 -0.1)">
       <defs>
        <path id="DejaVuSans-30" d="M 2034 4250 
Q 1547 4250 1301 3770 
Q 1056 3291 1056 2328 
Q 1056 1369 1301 889 
Q 1547 409 2034 409 
Q 2525 409 2770 889 
Q 3016 1369 3016 2328 
Q 3016 3291 2770 3770 
Q 2525 4250 2034 4250 
z
M 2034 4750 
Q 2819 4750 3233 4129 
Q 3647 3509 3647 2328 
Q 3647 1150 3233 529 
Q 2819 -91 2034 -91 
Q 1250 -91 836 529 
Q 422 1150 422 2328 
Q 422 3509 836 4129 
Q 1250 4750 2034 4750 
z
" transform="scale(0.015625)"/>
       </defs>
       <use xlink:href="#DejaVuSans-30"/>
      </g>
     </g>
    </g>
    <g id="xtick_2">
     <g id="line2d_3">
      <path d="M 113.866667 303.64 
L 113.866667 25.44 
" clip-path="url(#pc99b6d3fa8)" style="fill: none; stroke: #b0b0b0; stroke-opacity: 0.3; stroke-width: 0.8; stroke-linecap: square"/>
     </g>
     <g id="line2d_4">
      <g>
       <use xlink:href="#m88a31bb677" x="113.866667" y="303.64" style="stroke: #000000; stroke-width: 0.8"/>
      </g>
     </g>
     <g id="text_2">
      <!-- 2 -->
      <g transform="translate(110.685417 318.238437) scale(0.1 -0.1)">
       <defs>
        <path id="DejaVuSans-32" d="M 1228 531 
L 3431 531 
L 3431 0 
L 469 0 
L 469 531 
Q 828 903 1448 1529 
Q 2069 2156 2228 2338 
Q 2531 2678 2651 2914 
Q 2772 3150 2772 3378 
Q 2772 3750 2511 3984 
Q 2250 4219 1831 4219 
Q 1534 4219 1204 4116 
Q 875 4013 500 3803 
L 500 4441 
Q 881 4594 1212 4672 
Q 1544 4750 1819 4750 
Q 2544 4750 2975 4387 
Q 3406 4025 3406 3419 
Q 3406 3131 3298 2873 
Q 3191 2616 2906 2266 
Q 2828 2175 2409 1742 
Q 1991 1309 1228 531 
z
" transform="scale(0.015625)"/>
       </defs>
       <use xlink:href="#DejaVuSans-32"/>
      </g>
     </g>
    </g>
    <g id="xtick_3">
     <g id="line2d_5">
      <path d="M 162.758788 303.64 
L 162.758788 25.44 
" clip-path="url(#pc99b6d3fa8)" style="fill: none; stroke: #b0b0b0; stroke-opacity: 0.3; stroke-width: 0.8; stroke-linecap: square"/>
     </g>
     <g id="line2d_6">
      <g>
       <use xlink:href="#m88a31bb677" x="162.758788" y="303.64" style="stroke: #000000; stroke-width: 0.8"/>
      </g>
     </g>
     <g id="text_3">
      <!-- 4 -->
      <g transform="translate(159.577538 318.238437) scale(0.1 -0.1)">
       <defs>
        <path id="DejaVuSans-34" d="M 2419 4116 
L 825 1625 
L 2419 1625 
L 2419 4116 
z
M 2253 4666 
L 3047 4666 
L 3047 1625 
L 3713 1625 
L 3713 1100 
L 3047 1100 
L 3047 0 
L 2419 0 
L 2419 1100 
L 313 1100 
L 313 1709 
L 2253 4666 
z
" transform="scale(0.015625)"/>
       </defs>
       <use xlink:href="#DejaVuSans-34"/>
      </g>
     </g>
    </g>
    <g id="xtick_4">
     <g id="line2d_7">
      <path d="M 211.650909 303.64 
L 211.650909 25.44 
" clip-path="url(#pc99b6d3fa8)" style="fill: none; stroke: #b0b0b0; stroke-opacity: 0.3; stroke-width: 0.8; stroke-linecap: square"/>
     </g>
     <g id="line2d_8">
      <g>
       <use xlink:href="#m88a31bb677" x="211.650909" y="303.64" style="stroke: #000000; stroke-width: 0.8"/>
      </g>
     </g>
     <g id="text_4">
      <!-- 6 -->
      <g transform="translate(208.469659 318.238437) scale(0.1 -0.1)">
       <defs>
        <path id="DejaVuSans-36" d="M 2113 2584 
Q 1688 2584 1439 2293 
Q 1191 2003 1191 1497 
Q 1191 994 1439 701 
Q 1688 409 2113 409 
Q 2538 409 2786 701 
Q 3034 994 3034 1497 
Q 3034 2003 2786 2293 
Q 2538 2584 2113 2584 
z
M 3366 4563 
L 3366 3988 
Q 3128 4100 2886 4159 
Q 2644 4219 2406 4219 
Q 1781 4219 1451 3797 
Q 1122 3375 1075 2522 
Q 1259 2794 1537 2939 
Q 1816 3084 2150 3084 
Q 2853 3084 3261 2657 
Q 3669 2231 3669 1497 
Q 3669 778 3244 343 
Q 2819 -91 2113 -91 
Q 1303 -91 875 529 
Q 447 1150 447 2328 
Q 447 3434 972 4092 
Q 1497 4750 2381 4750 
Q 2619 4750 2861 4703 
Q 3103 4656 3366 4563 
z
" transform="scale(0.015625)"/>
       </defs>
       <use xlink:href="#DejaVuSans-36"/>
      </g>
     </g>
    </g>
    <g id="xtick_5">
     <g id="line2d_9">
      <path d="M 260.54303 303.64 
L 260.54303 25.44 
" clip-path="url(#pc99b6d3fa8)" style="fill: none; stroke: #b0b0b0; stroke-opacity: 0.3; stroke-width: 0.8; stroke-linecap: square"/>
     </g>
     <g id="line2d_10">
      <g>
       <use xlink:href="#m88a31bb677" x="260.54303" y="303.64" style="stroke: #000000; stroke-width: 0.8"/>
      </g>
     </g>
     <g id="text_5">
      <!-- 8 -->
      <g transform="translate(257.36178 318.238437) scale(0.1 -0.1)">
       <defs>
        <path id="DejaVuSans-38" d="M 2034 2216 
Q 1584 2216 1326 1975 
Q 1069 1734 1069 1313 
Q 1069 891 1326 650 
Q 1584 409 2034 409 
Q 2484 409 2743 651 
Q 3003 894 3003 1313 
Q 3003 1734 2745 1975 
Q 2488 2216 2034 2216 
z
M 1403 2484 
Q 997 2584 770 2862 
Q 544 3141 544 3541 
Q 544 4100 942 4425 
Q 1341 4750 2034 4750 
Q 2731 4750 3128 4425 
Q 3525 4100 3525 3541 
Q 3525 3141 3298 2862 
Q 3072 2584 2669 2484 
Q 3125 2378 3379 2068 
Q 3634 1759 3634 1313 
Q 3634 634 3220 271 
Q 2806 -91 2034 -91 
Q 1263 -91 848 271 
Q 434 634 434 1313 
Q 434 1759 690 2068 
Q 947 2378 1403 2484 
z
M 1172 3481 
Q 1172 3119 1398 2916 
Q 1625 2713 2034 2713 
Q 2441 2713 2670 2916 
Q 2900 3119 2900 3481 
Q 2900 3844 2670 4047 
Q 2441 4250 2034 4250 
Q 1625 4250 1398 4047 
Q 1172 3844 1172 3481 
z
" transform="scale(0.015625)"/>
       </defs>
       <use xlink:href="#DejaVuSans-38"/>
      </g>
     </g>
    </g>
    <g id="xtick_6">
     <g id="line2d_11">
      <path d="M 309.435152 303.64 
L 309.435152 25.44 
" clip-path="url(#pc99b6d3fa8)" style="fill: none; stroke: #b0b0b0; stroke-opacity: 0.3; stroke-width: 0.8; stroke-linecap: square"/>
     </g>
     <g id="line2d_12">
      <g>
       <use xlink:href="#m88a31bb677" x="309.435152" y="303.64" style="stroke: #000000; stroke-width: 0.8"/>
      </g>
     </g>
     <g id="text_6">
      <!-- 10 -->
      <g transform="translate(303.072652 318.238437) scale(0.1 -0.1)">
       <defs>
        <path id="DejaVuSans-31" d="M 794 531 
L 1825 531 
L 1825 4091 
L 703 3866 
L 703 4441 
L 1819 4666 
L 2450 4666 
L 2450 531 
L 3481 531 
L 3481 0 
L 794 0 
L 794 531 
z
" transform="scale(0.015625)"/>
       </defs>
       <use xlink:href="#DejaVuSans-31"/>
       <use xlink:href="#DejaVuSans-30" transform="translate(63.623047 0)"/>
      </g>
     </g>
    </g>
    <g id="xtick_7">
     <g id="line2d_13">
      <path d="M 358.327273 303.64 
L 358.327273 25.44 
" clip-path="url(#pc99b6d3fa8)" style="fill: none; stroke: #b0b0b0; stroke-opacity: 0.3; stroke-width: 0.8; stroke-linecap: square"/>
     </g>
     <g id="line2d_14">
      <g>
       <use xlink:href="#m88a31bb677" x="358.327273" y="303.64" style="stroke: #000000; stroke-width: 0.8"/>
      </g>
     </g>
     <g id="text_7">
      <!-- 12 -->
      <g transform="translate(351.964773 318.238437) scale(0.1 -0.1)">
       <use xlink:href="#DejaVuSans-31"/>
       <use xlink:href="#DejaVuSans-32" transform="translate(63.623047 0)"/>
      </g>
     </g>
    </g>
    <g id="xtick_8">
     <g id="line2d_15">
      <path d="M 407.219394 303.64 
L 407.219394 25.44 
" clip-path="url(#pc99b6d3fa8)" style="fill: none; stroke: #b0b0b0; stroke-opacity: 0.3; stroke-width: 0.8; stroke-linecap: square"/>
     </g>
     <g id="line2d_16">
      <g>
       <use xlink:href="#m88a31bb677" x="407.219394" y="303.64" style="stroke: #000000; stroke-width: 0.8"/>
      </g>
     </g>
     <g id="text_8">
      <!-- 14 -->
      <g transform="translate(400.856894 318.238437) scale(0.1 -0.1)">
       <use xlink:href="#DejaVuSans-31"/>
       <use xlink:href="#DejaVuSans-34" transform="translate(63.623047 0)"/>
      </g>
     </g>
    </g>
    <g id="text_9">
     <!-- Time (minutes) -->
     <g transform="translate(210.3575 331.916562) scale(0.1 -0.1)">
      <defs>
       <path id="DejaVuSans-54" d="M -19 4666 
L 3928 4666 
L 3928 4134 
L 2272 4134 
L 2272 0 
L 1638 0 
L 1638 4134 
L -19 4134 
L -19 4666 
z
" transform="scale(0.015625)"/>
       <path id="DejaVuSans-69" d="M 603 3500 
L 1178 3500 
L 1178 0 
L 603 0 
L 603 3500 
z
M 603 4863 
L 1178 4863 
L 1178 4134 
L 603 4134 
L 603 4863 
z
" transform="scale(0.015625)"/>
       <path id="DejaVuSans-6d" d="M 3328 2828 
Q 3544 3216 3844 3400 
Q 4144 3584 4550 3584 
Q 5097 3584 5394 3201 
Q 5691 2819 5691 2113 
L 5691 0 
L 5113 0 
L 5113 2094 
Q 5113 2597 4934 2840 
Q 4756 3084 4391 3084 
Q 3944 3084 3684 2787 
Q 3425 2491 3425 1978 
L 3425 0 
L 2847 0 
L 2847 2094 
Q 2847 2600 2669 2842 
Q 2491 3084 2119 3084 
Q 1678 3084 1418 2786 
Q 1159 2488 1159 1978 
L 1159 0 
L 581 0 
L 581 3500 
L 1159 3500 
L 1159 2956 
Q 1356 3278 1631 3431 
Q 1906 3584 2284 3584 
Q 2666 3584 2933 3390 
Q 3200 3197 3328 2828 
z
" transform="scale(0.015625)"/>
       <path id="DejaVuSans-65" d="M 3597 1894 
L 3597 1613 
L 953 1613 
Q 991 1019 1311 708 
Q 1631 397 2203 397 
Q 2534 397 2845 478 
Q 3156 559 3463 722 
L 3463 178 
Q 3153 47 2828 -22 
Q 2503 -91 2169 -91 
Q 1331 -91 842 396 
Q 353 884 353 1716 
Q 353 2575 817 3079 
Q 1281 3584 2069 3584 
Q 2775 3584 3186 3129 
Q 3597 2675 3597 1894 
z
M 3022 2063 
Q 3016 2534 2758 2815 
Q 2500 3097 2075 3097 
Q 1594 3097 1305 2825 
Q 1016 2553 972 2059 
L 3022 2063 
z
" transform="scale(0.015625)"/>
       <path id="DejaVuSans-20" transform="scale(0.015625)"/>
       <path id="DejaVuSans-28" d="M 1984 4856 
Q 1566 4138 1362 3434 
Q 1159 2731 1159 2009 
Q 1159 1288 1364 580 
Q 1569 -128 1984 -844 
L 1484 -844 
Q 1016 -109 783 600 
Q 550 1309 550 2009 
Q 550 2706 781 3412 
Q 1013 4119 1484 4856 
L 1984 4856 
z
" transform="scale(0.015625)"/>
       <path id="DejaVuSans-6e" d="M 3513 2113 
L 3513 0 
L 2938 0 
L 2938 2094 
Q 2938 2591 2744 2837 
Q 2550 3084 2163 3084 
Q 1697 3084 1428 2787 
Q 1159 2491 1159 1978 
L 1159 0 
L 581 0 
L 581 3500 
L 1159 3500 
L 1159 2956 
Q 1366 3272 1645 3428 
Q 1925 3584 2291 3584 
Q 2894 3584 3203 3211 
Q 3513 2838 3513 2113 
z
" transform="scale(0.015625)"/>
       <path id="DejaVuSans-75" d="M 544 1381 
L 544 3500 
L 1119 3500 
L 1119 1403 
Q 1119 906 1312 657 
Q 1506 409 1894 409 
Q 2359 409 2629 706 
Q 2900 1003 2900 1516 
L 2900 3500 
L 3475 3500 
L 3475 0 
L 2900 0 
L 2900 538 
Q 2691 219 2414 64 
Q 2138 -91 1772 -91 
Q 1169 -91 856 284 
Q 544 659 544 1381 
z
M 1991 3584 
L 1991 3584 
z
" transform="scale(0.015625)"/>
       <path id="DejaVuSans-74" d="M 1172 4494 
L 1172 3500 
L 2356 3500 
L 2356 3053 
L 1172 3053 
L 1172 1153 
Q 1172 725 1289 603 
Q 1406 481 1766 481 
L 2356 481 
L 2356 0 
L 1766 0 
Q 1100 0 847 248 
Q 594 497 594 1153 
L 594 3053 
L 172 3053 
L 172 3500 
L 594 3500 
L 594 4494 
L 1172 4494 
z
" transform="scale(0.015625)"/>
       <path id="DejaVuSans-73" d="M 2834 3397 
L 2834 2853 
Q 2591 2978 2328 3040 
Q 2066 3103 1784 3103 
Q 1356 3103 1142 2972 
Q 928 2841 928 2578 
Q 928 2378 1081 2264 
Q 1234 2150 1697 2047 
L 1894 2003 
Q 2506 1872 2764 1633 
Q 3022 1394 3022 966 
Q 3022 478 2636 193 
Q 2250 -91 1575 -91 
Q 1294 -91 989 -36 
Q 684 19 347 128 
L 347 722 
Q 666 556 975 473 
Q 1284 391 1588 391 
Q 1994 391 2212 530 
Q 2431 669 2431 922 
Q 2431 1156 2273 1281 
Q 2116 1406 1581 1522 
L 1381 1569 
Q 847 1681 609 1914 
Q 372 2147 372 2553 
Q 372 3047 722 3315 
Q 1072 3584 1716 3584 
Q 2034 3584 2315 3537 
Q 2597 3491 2834 3397 
z
" transform="scale(0.015625)"/>
       <path id="DejaVuSans-29" d="M 513 4856 
L 1013 4856 
Q 1481 4119 1714 3412 
Q 1947 2706 1947 2009 
Q 1947 1309 1714 600 
Q 1481 -109 1013 -844 
L 513 -844 
Q 928 -128 1133 580 
Q 1338 1288 1338 2009 
Q 1338 2731 1133 3434 
Q 928 4138 513 4856 
z
" transform="scale(0.015625)"/>
      </defs>
      <use xlink:href="#DejaVuSans-54"/>
      <use xlink:href="#DejaVuSans-69" transform="translate(57.958984 0)"/>
      <use xlink:href="#DejaVuSans-6d" transform="translate(85.742188 0)"/>
      <use xlink:href="#DejaVuSans-65" transform="translate(183.154297 0)"/>
      <use xlink:href="#DejaVuSans-20" transform="translate(244.677734 0)"/>
      <use xlink:href="#DejaVuSans-28" transform="translate(276.464844 0)"/>
      <use xlink:href="#DejaVuSans-6d" transform="translate(315.478516 0)"/>
      <use xlink:href="#DejaVuSans-69" transform="translate(412.890625 0)"/>
      <use xlink:href="#DejaVuSans-6e" transform="translate(440.673828 0)"/>
      <use xlink:href="#DejaVuSans-75" transform="translate(504.052734 0)"/>
      <use xlink:href="#DejaVuSans-74" transform="translate(567.431641 0)"/>
      <use xlink:href="#DejaVuSans-65" transform="translate(606.640625 0)"/>
      <use xlink:href="#DejaVuSans-73" transform="translate(668.164062 0)"/>
      <use xlink:href="#DejaVuSans-29" transform="translate(720.263672 0)"/>
     </g>
    </g>
   </g>
   <g id="matplotlib.axis_2">
    <g id="ytick_1">
     <g id="line2d_17">
      <path d="M 46.64 290.632144 
L 450 290.632144 
" clip-path="url(#pc99b6d3fa8)" style="fill: none; stroke: #b0b0b0; stroke-opacity: 0.3; stroke-width: 0.8; stroke-linecap: square"/>
     </g>
     <g id="line2d_18">
      <defs>
       <path id="m2dbf8b9b02" d="M 0 0 
L -3.5 0 
" style="stroke: #000000; stroke-width: 0.8"/>
      </defs>
      <g>
       <use xlink:href="#m2dbf8b9b02" x="46.64" y="290.632144" style="stroke: #000000; stroke-width: 0.8"/>
      </g>
     </g>
     <g id="text_10">
      <!-- −1 -->
      <g transform="translate(24.897813 294.431363) scale(0.1 -0.1)">
       <defs>
        <path id="DejaVuSans-2212" d="M 678 2272 
L 4684 2272 
L 4684 1741 
L 678 1741 
L 678 2272 
z
" transform="scale(0.015625)"/>
       </defs>
       <use xlink:href="#DejaVuSans-2212"/>
       <use xlink:href="#DejaVuSans-31" transform="translate(83.789062 0)"/>
      </g>
     </g>
    </g>
    <g id="ytick_2">
     <g id="line2d_19">
      <path d="M 46.64 240.233301 
L 450 240.233301 
" clip-path="url(#pc99b6d3fa8)" style="fill: none; stroke: #b0b0b0; stroke-opacity: 0.3; stroke-width: 0.8; stroke-linecap: square"/>
     </g>
     <g id="line2d_20">
      <g>
       <use xlink:href="#m2dbf8b9b02" x="46.64" y="240.233301" style="stroke: #000000; stroke-width: 0.8"/>
      </g>
     </g>
     <g id="text_11">
      <!-- 0 -->
      <g transform="translate(33.2775 244.03252) scale(0.1 -0.1)">
       <use xlink:href="#DejaVuSans-30"/>
      </g>
     </g>
    </g>
    <g id="ytick_3">
     <g id="line2d_21">
      <path d="M 46.64 189.834458 
L 450 189.834458 
" clip-path="url(#pc99b6d3fa8)" style="fill: none; stroke: #b0b0b0; stroke-opacity: 0.3; stroke-width: 0.8; stroke-linecap: square"/>
     </g>
     <g id="line2d_22">
      <g>
       <use xlink:href="#m2dbf8b9b02" x="46.64" y="189.834458" style="stroke: #000000; stroke-width: 0.8"/>
      </g>
     </g>
     <g id="text_12">
      <!-- 1 -->
      <g transform="translate(33.2775 193.633676) scale(0.1 -0.1)">
       <use xlink:href="#DejaVuSans-31"/>
      </g>
     </g>
    </g>
    <g id="ytick_4">
     <g id="line2d_23">
      <path d="M 46.64 139.435614 
L 450 139.435614 
" clip-path="url(#pc99b6d3fa8)" style="fill: none; stroke: #b0b0b0; stroke-opacity: 0.3; stroke-width: 0.8; stroke-linecap: square"/>
     </g>
     <g id="line2d_24">
      <g>
       <use xlink:href="#m2dbf8b9b02" x="46.64" y="139.435614" style="stroke: #000000; stroke-width: 0.8"/>
      </g>
     </g>
     <g id="text_13">
      <!-- 2 -->
      <g transform="translate(33.2775 143.234833) scale(0.1 -0.1)">
       <use xlink:href="#DejaVuSans-32"/>
      </g>
     </g>
    </g>
    <g id="ytick_5">
     <g id="line2d_25">
      <path d="M 46.64 89.036771 
L 450 89.036771 
" clip-path="url(#pc99b6d3fa8)" style="fill: none; stroke: #b0b0b0; stroke-opacity: 0.3; stroke-width: 0.8; stroke-linecap: square"/>
     </g>
     <g id="line2d_26">
      <g>
       <use xlink:href="#m2dbf8b9b02" x="46.64" y="89.036771" style="stroke: #000000; stroke-width: 0.8"/>
      </g>
     </g>
     <g id="text_14">
      <!-- 3 -->
      <g transform="translate(33.2775 92.83599) scale(0.1 -0.1)">
       <defs>
        <path id="DejaVuSans-33" d="M 2597 2516 
Q 3050 2419 3304 2112 
Q 3559 1806 3559 1356 
Q 3559 666 3084 287 
Q 2609 -91 1734 -91 
Q 1441 -91 1130 -33 
Q 819 25 488 141 
L 488 750 
Q 750 597 1062 519 
Q 1375 441 1716 441 
Q 2309 441 2620 675 
Q 2931 909 2931 1356 
Q 2931 1769 2642 2001 
Q 2353 2234 1838 2234 
L 1294 2234 
L 1294 2753 
L 1863 2753 
Q 2328 2753 2575 2939 
Q 2822 3125 2822 3475 
Q 2822 3834 2567 4026 
Q 2313 4219 1838 4219 
Q 1578 4219 1281 4162 
Q 984 4106 628 3988 
L 628 4550 
Q 988 4650 1302 4700 
Q 1616 4750 1894 4750 
Q 2613 4750 3031 4423 
Q 3450 4097 3450 3541 
Q 3450 3153 3228 2886 
Q 3006 2619 2597 2516 
z
" transform="scale(0.015625)"/>
       </defs>
       <use xlink:href="#DejaVuSans-33"/>
      </g>
     </g>
    </g>
    <g id="ytick_6">
     <g id="line2d_27">
      <path d="M 46.64 38.637928 
L 450 38.637928 
" clip-path="url(#pc99b6d3fa8)" style="fill: none; stroke: #b0b0b0; stroke-opacity: 0.3; stroke-width: 0.8; stroke-linecap: square"/>
     </g>
     <g id="line2d_28">
      <g>
       <use xlink:href="#m2dbf8b9b02" x="46.64" y="38.637928" style="stroke: #000000; stroke-width: 0.8"/>
      </g>
     </g>
     <g id="text_15">
      <!-- 4 -->
      <g transform="translate(33.2775 42.437146) scale(0.1 -0.1)">
       <use xlink:href="#DejaVuSans-34"/>
      </g>
     </g>
    </g>
    <g id="text_16">
     <!-- EDA signals (μS) -->
     <g transform="translate(18.818125 205.711875) rotate(-90) scale(0.1 -0.1)">
      <defs>
       <path id="DejaVuSans-45" d="M 628 4666 
L 3578 4666 
L 3578 4134 
L 1259 4134 
L 1259 2753 
L 3481 2753 
L 3481 2222 
L 1259 2222 
L 1259 531 
L 3634 531 
L 3634 0 
L 628 0 
L 628 4666 
z
" transform="scale(0.015625)"/>
       <path id="DejaVuSans-44" d="M 1259 4147 
L 1259 519 
L 2022 519 
Q 2988 519 3436 956 
Q 3884 1394 3884 2338 
Q 3884 3275 3436 3711 
Q 2988 4147 2022 4147 
L 1259 4147 
z
M 628 4666 
L 1925 4666 
Q 3281 4666 3915 4102 
Q 4550 3538 4550 2338 
Q 4550 1131 3912 565 
Q 3275 0 1925 0 
L 628 0 
L 628 4666 
z
" transform="scale(0.015625)"/>
       <path id="DejaVuSans-41" d="M 2188 4044 
L 1331 1722 
L 3047 1722 
L 2188 4044 
z
M 1831 4666 
L 2547 4666 
L 4325 0 
L 3669 0 
L 3244 1197 
L 1141 1197 
L 716 0 
L 50 0 
L 1831 4666 
z
" transform="scale(0.015625)"/>
       <path id="DejaVuSans-67" d="M 2906 1791 
Q 2906 2416 2648 2759 
Q 2391 3103 1925 3103 
Q 1463 3103 1205 2759 
Q 947 2416 947 1791 
Q 947 1169 1205 825 
Q 1463 481 1925 481 
Q 2391 481 2648 825 
Q 2906 1169 2906 1791 
z
M 3481 434 
Q 3481 -459 3084 -895 
Q 2688 -1331 1869 -1331 
Q 1566 -1331 1297 -1286 
Q 1028 -1241 775 -1147 
L 775 -588 
Q 1028 -725 1275 -790 
Q 1522 -856 1778 -856 
Q 2344 -856 2625 -561 
Q 2906 -266 2906 331 
L 2906 616 
Q 2728 306 2450 153 
Q 2172 0 1784 0 
Q 1141 0 747 490 
Q 353 981 353 1791 
Q 353 2603 747 3093 
Q 1141 3584 1784 3584 
Q 2172 3584 2450 3431 
Q 2728 3278 2906 2969 
L 2906 3500 
L 3481 3500 
L 3481 434 
z
" transform="scale(0.015625)"/>
       <path id="DejaVuSans-61" d="M 2194 1759 
Q 1497 1759 1228 1600 
Q 959 1441 959 1056 
Q 959 750 1161 570 
Q 1363 391 1709 391 
Q 2188 391 2477 730 
Q 2766 1069 2766 1631 
L 2766 1759 
L 2194 1759 
z
M 3341 1997 
L 3341 0 
L 2766 0 
L 2766 531 
Q 2569 213 2275 61 
Q 1981 -91 1556 -91 
Q 1019 -91 701 211 
Q 384 513 384 1019 
Q 384 1609 779 1909 
Q 1175 2209 1959 2209 
L 2766 2209 
L 2766 2266 
Q 2766 2663 2505 2880 
Q 2244 3097 1772 3097 
Q 1472 3097 1187 3025 
Q 903 2953 641 2809 
L 641 3341 
Q 956 3463 1253 3523 
Q 1550 3584 1831 3584 
Q 2591 3584 2966 3190 
Q 3341 2797 3341 1997 
z
" transform="scale(0.015625)"/>
       <path id="DejaVuSans-6c" d="M 603 4863 
L 1178 4863 
L 1178 0 
L 603 0 
L 603 4863 
z
" transform="scale(0.015625)"/>
       <path id="DejaVuSans-3bc" d="M 544 -1331 
L 544 3500 
L 1119 3500 
L 1119 1325 
Q 1119 872 1334 640 
Q 1550 409 1972 409 
Q 2434 409 2667 671 
Q 2900 934 2900 1459 
L 2900 3500 
L 3475 3500 
L 3475 806 
Q 3475 619 3529 530 
Q 3584 441 3700 441 
Q 3728 441 3778 458 
Q 3828 475 3916 513 
L 3916 50 
Q 3788 -22 3673 -56 
Q 3559 -91 3450 -91 
Q 3234 -91 3106 31 
Q 2978 153 2931 403 
Q 2775 156 2548 32 
Q 2322 -91 2016 -91 
Q 1697 -91 1473 31 
Q 1250 153 1119 397 
L 1119 -1331 
L 544 -1331 
z
" transform="scale(0.015625)"/>
       <path id="DejaVuSans-53" d="M 3425 4513 
L 3425 3897 
Q 3066 4069 2747 4153 
Q 2428 4238 2131 4238 
Q 1616 4238 1336 4038 
Q 1056 3838 1056 3469 
Q 1056 3159 1242 3001 
Q 1428 2844 1947 2747 
L 2328 2669 
Q 3034 2534 3370 2195 
Q 3706 1856 3706 1288 
Q 3706 609 3251 259 
Q 2797 -91 1919 -91 
Q 1588 -91 1214 -16 
Q 841 59 441 206 
L 441 856 
Q 825 641 1194 531 
Q 1563 422 1919 422 
Q 2459 422 2753 634 
Q 3047 847 3047 1241 
Q 3047 1584 2836 1778 
Q 2625 1972 2144 2069 
L 1759 2144 
Q 1053 2284 737 2584 
Q 422 2884 422 3419 
Q 422 4038 858 4394 
Q 1294 4750 2059 4750 
Q 2388 4750 2728 4690 
Q 3069 4631 3425 4513 
z
" transform="scale(0.015625)"/>
      </defs>
      <use xlink:href="#DejaVuSans-45"/>
      <use xlink:href="#DejaVuSans-44" transform="translate(63.183594 0)"/>
      <use xlink:href="#DejaVuSans-41" transform="translate(138.435547 0)"/>
      <use xlink:href="#DejaVuSans-20" transform="translate(206.84375 0)"/>
      <use xlink:href="#DejaVuSans-73" transform="translate(238.630859 0)"/>
      <use xlink:href="#DejaVuSans-69" transform="translate(290.730469 0)"/>
      <use xlink:href="#DejaVuSans-67" transform="translate(318.513672 0)"/>
      <use xlink:href="#DejaVuSans-6e" transform="translate(381.990234 0)"/>
      <use xlink:href="#DejaVuSans-61" transform="translate(445.369141 0)"/>
      <use xlink:href="#DejaVuSans-6c" transform="translate(506.648438 0)"/>
      <use xlink:href="#DejaVuSans-73" transform="translate(534.431641 0)"/>
      <use xlink:href="#DejaVuSans-20" transform="translate(586.53125 0)"/>
      <use xlink:href="#DejaVuSans-28" transform="translate(618.318359 0)"/>
      <use xlink:href="#DejaVuSans-3bc" transform="translate(657.332031 0)"/>
      <use xlink:href="#DejaVuSans-53" transform="translate(720.955078 0)"/>
      <use xlink:href="#DejaVuSans-29" transform="translate(784.431641 0)"/>
     </g>
    </g>
   </g>
   <g id="line2d_29">
    <path d="M 64.974545 203.145976 
L 65.382206 203.151045 
L 65.993698 203.14102 
L 66.809019 202.873812 
L 67.42051 202.933503 
L 68.337747 203.025995 
L 68.643493 203.315941 
L 68.847323 203.361642 
L 69.051154 203.242515 
L 69.356899 203.48557 
L 69.968391 203.374037 
L 70.376051 203.461306 
L 70.783712 203.557076 
L 71.497119 203.388477 
L 71.700949 201.636935 
L 72.006695 197.365527 
L 72.10861 197.46848 
L 72.618186 201.42128 
L 73.433508 203.178103 
L 73.841168 206.672892 
L 74.45266 202.457211 
L 74.554575 202.583961 
L 75.064151 204.667878 
L 75.267981 204.080508 
L 75.369896 204.198053 
L 75.573727 204.955644 
L 75.675642 204.569024 
L 75.981388 201.361786 
L 76.083303 201.405208 
L 76.898624 204.971655 
L 77.102455 209.857579 
L 77.408201 216.766696 
L 77.612031 214.652997 
L 78.325437 204.21021 
L 78.631183 203.917572 
L 79.242674 203.848683 
L 80.771402 204.168621 
L 81.179063 204.654725 
L 81.484809 204.380536 
L 81.586724 204.480385 
L 81.89247 205.555759 
L 81.994385 205.491494 
L 82.30013 204.552171 
L 82.503961 204.576501 
L 82.911622 204.704208 
L 83.013537 204.63811 
L 83.217367 203.947954 
L 83.421198 202.426743 
L 83.523113 200.946572 
L 83.726943 190.823289 
L 84.032689 165.418085 
L 84.134604 164.728311 
L 84.338434 173.04863 
L 84.949926 202.153945 
L 85.255671 205.597147 
L 85.561417 206.938066 
L 85.765247 207.119009 
L 86.274823 206.885864 
L 86.580569 207.122657 
L 86.784399 207.234649 
L 87.19206 207.190097 
L 87.701636 207.181666 
L 88.415043 206.809305 
L 89.128449 207.290103 
L 89.33228 207.302753 
L 89.53611 207.247002 
L 89.73994 207.6877 
L 90.249516 209.100355 
L 90.453347 209.303193 
L 90.657177 208.623372 
L 91.064838 206.848609 
L 91.166753 206.851832 
L 91.370584 207.021327 
L 91.88016 206.624016 
L 92.185905 206.794173 
L 92.389736 206.615221 
L 92.695481 206.218025 
L 92.899312 206.653243 
L 93.205057 207.364808 
L 93.408888 207.326354 
L 93.612718 207.631688 
L 93.816549 207.862255 
L 94.326125 206.663209 
L 94.63187 206.705271 
L 95.039531 206.646053 
L 95.651022 206.862211 
L 96.160598 207.164073 
L 97.383581 207.266352 
L 98.708478 207.402549 
L 98.912309 206.635566 
L 99.421885 203.18936 
L 100.542952 206.065023 
L 100.950613 206.699145 
L 101.460189 206.987247 
L 102.173595 207.231696 
L 102.581256 207.347071 
L 103.192747 207.868116 
L 103.396578 207.641711 
L 103.804239 206.718989 
L 104.008069 206.720696 
L 104.2119 207.09966 
L 104.721476 209.139357 
L 104.925306 209.333058 
L 105.536797 210.492869 
L 105.638712 210.5997 
L 105.740628 210.507148 
L 106.250204 208.565017 
L 107.16744 208.517403 
L 107.677017 209.458192 
L 108.084677 210.153208 
L 108.798084 208.511108 
L 109.103829 208.475681 
L 109.30766 208.292464 
L 109.51149 207.705119 
L 109.817236 206.6146 
L 110.021066 206.922001 
L 110.326812 207.242887 
L 111.040218 206.989658 
L 114.19959 207.26958 
L 115.116827 207.336866 
L 115.728318 207.381628 
L 121.945145 207.687635 
L 122.352806 207.590962 
L 122.556637 207.191824 
L 122.862382 206.062844 
L 122.964297 206.107187 
L 123.270043 207.082938 
L 123.575789 207.996602 
L 123.881534 208.24723 
L 124.085365 208.353311 
L 124.594941 208.870205 
L 124.798771 208.858314 
L 125.002601 208.58684 
L 125.614093 207.232723 
L 125.817923 207.28055 
L 126.633245 207.912068 
L 128.060058 208.093401 
L 129.28304 208.140521 
L 130.098362 208.257529 
L 134.3788 208.293355 
L 134.888376 208.383182 
L 135.601783 208.374159 
L 136.009444 208.451467 
L 136.51902 208.478489 
L 137.028596 208.49435 
L 139.678391 208.624197 
L 140.799458 208.695099 
L 141.512865 209.424846 
L 142.124356 209.509896 
L 143.041593 209.64347 
L 143.245423 209.587787 
L 143.449254 209.290171 
L 143.856914 208.643094 
L 144.468406 208.583749 
L 145.691388 208.562813 
L 146.71054 208.630952 
L 147.220116 208.656226 
L 149.666081 208.985434 
L 150.277572 209.017625 
L 150.889064 209.040921 
L 151.296724 209.01581 
L 151.8063 209.021856 
L 152.621622 209.102542 
L 153.94652 209.180883 
L 154.965672 209.053662 
L 155.271417 209.091759 
L 155.679078 209.270962 
L 156.188654 209.279951 
L 156.902061 209.314315 
L 157.513552 209.386935 
L 158.125043 209.415048 
L 158.83845 209.513198 
L 159.959517 209.488613 
L 161.59016 209.590485 
L 161.997821 209.56652 
L 162.405482 209.612149 
L 162.915058 209.681422 
L 163.526549 209.641972 
L 164.239956 209.628639 
L 167.705073 209.831207 
L 168.010818 209.837302 
L 168.520394 209.881526 
L 169.335716 209.81996 
L 171.272105 209.946641 
L 171.781681 210.020544 
L 172.393172 209.972646 
L 173.004663 210.015057 
L 174.12573 210.035551 
L 174.737222 210.063027 
L 175.348713 210.114646 
L 175.960204 210.10142 
L 179.731067 210.405278 
L 180.648304 210.389423 
L 181.15788 210.461058 
L 182.278947 210.426469 
L 184.215336 210.420695 
L 184.724912 210.370499 
L 186.45747 210.469555 
L 187.068962 210.553999 
L 187.680453 210.511544 
L 188.59769 210.544397 
L 189.00535 210.541336 
L 189.718757 210.56263 
L 190.330248 210.626895 
L 190.941739 210.648191 
L 192.368552 210.6767 
L 192.980043 210.69523 
L 193.387704 210.667585 
L 193.89728 210.644644 
L 194.406856 210.598977 
L 196.0375 210.743918 
L 196.547076 210.662036 
L 197.158567 210.716819 
L 197.362397 210.630665 
L 197.668143 210.347848 
L 197.871973 210.514868 
L 198.177719 210.791355 
L 198.381549 210.931258 
L 198.687295 211.298296 
L 198.78921 211.231705 
L 198.993041 210.628471 
L 199.400701 209.21698 
L 199.706447 208.964611 
L 200.114108 208.954184 
L 200.929429 208.986108 
L 210.305628 208.86261 
L 210.611374 209.670087 
L 210.91712 210.266884 
L 211.528611 210.663407 
L 211.834356 210.7702 
L 212.140102 210.794773 
L 212.853509 210.878533 
L 213.159254 210.779349 
L 213.66883 211.216755 
L 215.095643 211.417532 
L 215.605219 211.422536 
L 216.114795 211.528713 
L 217.337778 211.518916 
L 218.051184 211.516653 
L 218.662675 211.575577 
L 219.376082 211.532809 
L 219.783742 211.1045 
L 219.885658 211.020931 
L 220.089488 210.41702 
L 220.293319 209.348199 
L 220.497149 205.602024 
L 220.700979 200.807686 
L 220.802895 201.012877 
L 221.210555 206.232203 
L 221.923962 208.642239 
L 222.229707 209.243491 
L 222.433538 209.284807 
L 223.554605 208.85661 
L 223.860351 208.547022 
L 224.064181 208.62055 
L 224.879503 209.506723 
L 225.185248 209.390391 
L 225.389079 209.243676 
L 225.490994 209.290584 
L 226.102485 210.459529 
L 226.2044 210.216547 
L 226.510146 207.678411 
L 226.917807 203.59239 
L 227.019722 203.474266 
L 227.223552 203.784332 
L 227.529298 204.206881 
L 227.835044 204.260356 
L 227.936959 204.247015 
L 228.038874 204.403401 
L 228.242705 205.771867 
L 228.54845 208.300938 
L 228.650365 208.207414 
L 228.854196 207.612905 
L 229.058026 207.884172 
L 229.261857 208.266834 
L 229.771433 210.158328 
L 230.077178 209.850782 
L 230.586754 209.349453 
L 231.707822 209.534743 
L 232.115482 209.564428 
L 232.726974 209.759481 
L 233.134634 209.794778 
L 234.051871 209.784518 
L 234.357617 209.827493 
L 235.071023 209.623204 
L 235.478684 209.693968 
L 235.78443 209.441177 
L 235.98826 209.660394 
L 236.395921 210.270275 
L 236.599751 210.260622 
L 236.803582 210.007302 
L 237.313158 208.572451 
L 238.33231 209.797048 
L 238.739971 209.923086 
L 239.045716 210.169596 
L 239.147632 210.229291 
L 239.351462 210.95863 
L 239.555292 211.480305 
L 239.657208 211.565288 
L 239.962953 213.540591 
L 240.064868 213.407841 
L 240.472529 211.304012 
L 240.88019 210.887079 
L 241.185936 211.01467 
L 241.593596 211.36752 
L 241.899342 211.570722 
L 242.510833 211.544731 
L 243.122325 210.764796 
L 243.22424 210.765275 
L 243.326155 210.520084 
L 243.733816 206.992617 
L 243.835731 207.274203 
L 243.937646 209.519182 
L 244.243392 223.727548 
L 244.345307 222.165227 
L 244.752968 206.889468 
L 244.956798 205.155758 
L 245.568289 206.910303 
L 245.77212 211.003113 
L 245.97595 216.769374 
L 246.077865 216.979497 
L 246.587442 209.616906 
L 246.791272 209.204987 
L 246.995102 209.23033 
L 247.810424 209.730323 
L 248.218085 209.634719 
L 248.52383 209.647618 
L 248.625746 209.507779 
L 248.829576 208.496531 
L 249.237237 205.226608 
L 249.542982 205.272515 
L 249.746813 205.220819 
L 250.154474 205.364583 
L 250.86788 205.233606 
L 252.192778 205.463627 
L 252.498523 205.510394 
L 253.21193 205.678264 
L 253.41576 205.912013 
L 253.517675 205.829379 
L 254.129167 204.613505 
L 254.332997 204.684875 
L 254.638743 204.998615 
L 254.842573 204.987049 
L 255.046404 205.397889 
L 255.454064 206.4884 
L 255.55598 206.445059 
L 255.75981 205.787776 
L 255.96364 203.674563 
L 256.269386 198.7886 
L 256.473216 197.861343 
L 256.575132 197.752889 
L 256.778962 198.9356 
L 257.084708 200.861038 
L 257.186623 200.96761 
L 257.390453 200.666534 
L 257.594284 200.328809 
L 257.798114 200.80686 
L 258.10386 201.543318 
L 258.613436 201.656252 
L 258.919181 201.979388 
L 259.123012 201.671566 
L 259.326842 201.370763 
L 259.530673 201.845713 
L 259.836418 203.522262 
L 260.142164 204.767342 
L 260.65174 204.902444 
L 261.263231 205.281853 
L 261.772807 205.526473 
L 262.078553 205.541159 
L 262.588129 205.249147 
L 263.40345 205.513024 
L 263.709196 205.683387 
L 265.136009 205.735208 
L 266.053246 205.813897 
L 266.664737 205.812016 
L 266.970483 206.151736 
L 267.174313 206.28979 
L 267.581974 206.264651 
L 267.785804 206.357988 
L 267.989635 205.705812 
L 268.193465 205.029046 
L 268.397295 205.200457 
L 268.906871 205.811892 
L 269.110702 206.056042 
L 269.314532 206.05006 
L 269.620278 206.292695 
L 270.027939 205.751834 
L 270.333684 205.709011 
L 271.047091 206.327592 
L 271.352836 206.235995 
L 271.556667 206.231355 
L 272.168158 206.910455 
L 272.371988 206.91871 
L 272.677734 206.427096 
L 273.18731 205.773989 
L 273.391141 206.100366 
L 273.696886 206.5065 
L 274.716038 206.785816 
L 275.73519 206.661049 
L 276.754342 206.764493 
L 277.263918 206.857013 
L 277.671579 207.225485 
L 278.28307 206.671912 
L 278.588816 206.761329 
L 278.996477 206.09309 
L 279.404138 206.42874 
L 279.913714 206.484127 
L 280.42329 206.639303 
L 280.62712 206.582732 
L 280.830951 206.815266 
L 281.136696 207.114401 
L 281.442442 207.164257 
L 281.952018 207.705606 
L 282.155848 207.620448 
L 282.869255 206.823745 
L 283.786491 207.397282 
L 284.092237 206.792872 
L 284.397983 206.445627 
L 284.703728 206.476807 
L 285.009474 206.530426 
L 285.213304 206.549834 
L 285.417135 206.552041 
L 286.028626 205.861838 
L 286.436287 205.184087 
L 286.742032 204.590338 
L 286.843948 204.595291 
L 287.047778 205.078642 
L 287.353524 206.443598 
L 287.455439 206.215314 
L 288.270761 202.156937 
L 288.882252 200.770864 
L 290.207149 198.566626 
L 290.61481 198.30524 
L 290.818641 198.778361 
L 291.022471 199.037629 
L 291.328217 198.16213 
L 291.633962 198.392952 
L 292.143538 197.760678 
L 292.653114 196.280601 
L 293.060775 194.968608 
L 294.487588 192.764937 
L 294.895249 192.263982 
L 295.200994 191.486023 
L 295.404825 191.178089 
L 295.914401 191.761358 
L 296.220147 192.776717 
L 296.322062 192.772487 
L 296.831638 191.997075 
L 297.137383 191.85334 
L 297.545044 191.946075 
L 297.85079 191.515241 
L 298.360366 191.820701 
L 298.564196 191.755612 
L 298.666111 191.870153 
L 298.869942 192.639228 
L 299.379518 194.933691 
L 299.583348 195.614782 
L 299.685264 196.568892 
L 299.889094 203.432861 
L 300.39867 238.701943 
L 300.6025 239.863327 
L 301.112076 239.460424 
L 301.213992 239.204292 
L 301.315907 238.237836 
L 301.519737 230.661033 
L 301.825483 215.068981 
L 302.233144 206.254748 
L 302.538889 196.234482 
L 302.640804 195.585232 
L 302.74272 195.604404 
L 302.94655 196.491434 
L 303.150381 199.258308 
L 303.354211 207.802636 
L 303.659957 230.664883 
L 303.761872 231.547253 
L 303.965702 229.125884 
L 304.475278 239.426967 
L 304.679109 239.539152 
L 306.105921 239.493809 
L 306.207837 239.231409 
L 306.309752 238.145458 
L 306.513582 229.120703 
L 306.819328 209.330998 
L 307.023158 206.7081 
L 307.328904 204.429048 
L 307.63465 202.864127 
L 307.83848 202.839704 
L 308.348056 202.983357 
L 308.653802 202.997567 
L 308.857632 203.456107 
L 309.163378 204.223193 
L 309.367208 204.592345 
L 309.672954 205.403707 
L 309.774869 205.369276 
L 310.38636 204.409588 
L 310.590191 204.774597 
L 310.997851 205.792629 
L 311.099767 205.58821 
L 311.405512 204.23602 
L 311.507427 204.444187 
L 311.813173 205.541243 
L 312.017003 205.359804 
L 312.526579 206.299554 
L 312.832325 206.407107 
L 313.239986 206.470709 
L 313.545731 206.345176 
L 313.953392 205.936097 
L 314.259138 205.133573 
L 314.666799 203.873013 
L 315.07446 203.538981 
L 315.27829 203.675167 
L 315.584036 204.261888 
L 315.889781 204.299883 
L 315.991696 204.241064 
L 316.399357 203.166538 
L 316.501272 203.224683 
L 316.705103 203.97446 
L 317.010848 205.231761 
L 317.214679 205.406294 
L 317.82617 205.494992 
L 318.131916 205.237798 
L 318.743407 204.753562 
L 318.947237 204.902947 
L 319.762559 206.178674 
L 319.864474 206.083355 
L 320.272135 204.804119 
L 320.781711 205.834321 
L 321.087457 206.005448 
L 321.495117 205.63187 
L 321.902778 206.093093 
L 322.51427 206.191813 
L 326.081302 205.603529 
L 327.711945 205.618539 
L 328.527267 205.481657 
L 329.138758 205.812952 
L 329.750249 206.681735 
L 330.36174 206.928629 
L 330.769401 206.493367 
L 331.177062 207.123733 
L 331.380892 206.896849 
L 331.788553 206.108946 
L 331.992384 206.429925 
L 332.298129 207.097119 
L 332.400044 207.1196 
L 332.807705 206.394597 
L 332.90962 206.475503 
L 333.215366 206.753546 
L 333.724942 206.807754 
L 334.744094 206.746654 
L 335.151755 206.816189 
L 337.088144 206.680958 
L 337.59772 206.252103 
L 337.903466 206.495817 
L 338.311126 206.55912 
L 339.228363 207.740647 
L 339.636024 207.960862 
L 339.839854 207.795417 
L 340.34943 207.176034 
L 340.655176 207.153806 
L 341.062837 207.217738 
L 341.266667 207.171244 
L 341.470498 207.527392 
L 341.776243 208.181585 
L 341.980074 208.171794 
L 342.285819 208.100115 
L 342.48965 208.367108 
L 342.591565 208.517506 
L 342.69348 208.404582 
L 343.304971 206.176057 
L 343.712632 206.322463 
L 343.916463 206.223199 
L 344.426039 207.140017 
L 344.8337 207.553751 
L 345.03753 207.214556 
L 345.649021 205.846214 
L 346.260512 206.588212 
L 346.872004 207.672349 
L 347.177749 207.1469 
L 347.687325 206.605144 
L 348.298817 207.26685 
L 348.502647 207.241154 
L 348.808393 206.805457 
L 349.012223 206.638087 
L 349.317969 206.758049 
L 350.031375 207.309833 
L 350.235205 207.318719 
L 350.540951 207.421678 
L 351.152442 207.40546 
L 351.967764 207.433106 
L 352.375425 207.123434 
L 352.68117 207.108109 
L 353.700322 208.260932 
L 353.904153 207.879972 
L 354.209898 207.361077 
L 354.719474 207.409238 
L 355.127135 207.002216 
L 355.330966 207.407218 
L 355.840542 208.788977 
L 355.942457 208.608957 
L 356.553948 206.047964 
L 356.859694 205.926785 
L 357.471185 205.742596 
L 357.675015 206.261974 
L 357.980761 207.191786 
L 358.286507 207.038963 
L 358.796083 207.396128 
L 359.611404 207.512866 
L 359.71332 207.340071 
L 359.815235 206.714973 
L 360.019065 202.597057 
L 360.222896 198.238136 
L 360.324811 197.784548 
L 360.426726 197.835926 
L 360.528641 197.77972 
L 360.732472 196.777318 
L 361.140132 193.599289 
L 361.343963 193.39382 
L 361.547793 193.462889 
L 361.751624 193.537767 
L 361.955454 192.866676 
L 362.2612 191.758907 
L 362.66886 190.59151 
L 363.178437 188.850253 
L 363.280352 188.852531 
L 363.688013 190.034547 
L 364.095673 189.670535 
L 364.299504 189.612802 
L 364.605249 189.121952 
L 365.01291 187.771167 
L 365.522486 185.716164 
L 365.828232 184.358096 
L 366.032062 180.275166 
L 366.745469 161.684369 
L 367.866536 147.461803 
L 368.376112 141.369664 
L 369.191434 129.854451 
L 370.006755 121.695027 
L 371.127823 106.01774 
L 372.045059 78.730324 
L 372.656551 71.571235 
L 372.860381 74.448508 
L 373.166127 83.301894 
L 373.369957 98.914559 
L 373.981448 173.004455 
L 374.185279 174.828143 
L 374.287194 174.414414 
L 374.389109 172.489613 
L 374.491024 166.851043 
L 374.694855 135.878496 
L 375.102516 63.198424 
L 375.306346 55.913792 
L 375.612092 53.901391 
L 375.815922 53.539417 
L 376.121668 53.374369 
L 376.325498 52.687618 
L 376.835074 49.682574 
L 376.936989 49.713796 
L 377.038904 50.672867 
L 377.242735 57.538498 
L 377.54848 69.885665 
L 377.650396 70.269609 
L 377.752311 68.755514 
L 378.261887 52.008319 
L 378.363802 52.263469 
L 378.567633 53.338786 
L 378.669548 53.306723 
L 378.975293 51.539735 
L 379.077209 51.873944 
L 379.484869 57.283373 
L 379.6887 55.62276 
L 379.89253 52.345809 
L 380.300191 40.023068 
L 380.402106 40.792013 
L 381.115513 57.709283 
L 381.217428 56.578593 
L 381.421258 52.034664 
L 381.523173 52.236236 
L 382.23658 67.591813 
L 382.542326 74.845826 
L 382.746156 75.33634 
L 382.848071 77.079523 
L 383.051902 89.432792 
L 383.561478 130.693621 
L 383.663393 132.316938 
L 383.765308 130.131737 
L 384.78446 73.405433 
L 385.090206 69.914677 
L 385.395951 66.520281 
L 385.803612 61.226583 
L 386.313188 60.354918 
L 387.026595 58.008081 
L 387.638086 55.434195 
L 387.740001 55.43047 
L 387.841916 55.976799 
L 388.249577 61.823961 
L 388.657238 67.672499 
L 388.962983 74.709563 
L 389.064899 75.279285 
L 389.166814 76.504372 
L 389.67639 92.818993 
L 389.778305 91.249418 
L 389.982136 82.130099 
L 390.389796 54.252916 
L 390.491712 53.77652 
L 390.695542 60.202029 
L 391.001288 68.155706 
L 391.205118 64.974168 
L 391.408948 61.782756 
L 391.510864 61.427401 
L 391.612779 61.570463 
L 392.02044 62.97571 
L 392.4281 66.871689 
L 392.733846 67.271527 
L 392.835761 66.46909 
L 393.039592 61.481615 
L 393.447253 50.305006 
L 393.752998 45.487422 
L 394.058744 44.379967 
L 394.364489 43.128811 
L 394.670235 40.462662 
L 394.975981 38.142306 
L 395.179811 38.114474 
L 395.689387 38.51283 
L 395.791302 38.71005 
L 395.995133 40.14717 
L 396.300878 42.6874 
L 396.504709 43.41877 
L 396.708539 46.070116 
L 397.218115 55.747145 
L 397.421946 57.698368 
L 398.033437 65.838197 
L 398.237267 66.811284 
L 398.339182 66.827168 
L 398.441098 66.593926 
L 398.746843 64.977856 
L 399.052589 66.928559 
L 400.173656 57.028319 
L 400.377486 58.676777 
L 400.887063 68.940779 
L 401.192808 75.415112 
L 401.294723 75.475635 
L 401.498554 74.412377 
L 401.906215 69.622746 
L 402.00813 70.200026 
L 402.415791 76.879397 
L 402.517706 77.036303 
L 402.721536 75.904179 
L 402.925367 74.804628 
L 403.027282 75.23588 
L 403.434943 78.690491 
L 403.638773 79.691734 
L 404.250264 84.208778 
L 404.75984 86.520877 
L 404.861756 86.687815 
L 404.963671 86.475132 
L 405.167501 84.384419 
L 405.778992 71.93378 
L 406.186653 73.698471 
L 406.288568 73.316811 
L 406.492399 70.659911 
L 406.798144 66.994042 
L 406.90006 66.715975 
L 407.001975 66.927092 
L 407.205805 68.944551 
L 407.511551 71.807456 
L 407.613466 71.845341 
L 408.326873 69.944647 
L 408.632618 68.93289 
L 408.938364 68.774786 
L 409.244109 68.467438 
L 409.65177 68.015399 
L 409.957516 66.937303 
L 410.772837 63.814836 
L 410.976668 63.484327 
L 411.078583 63.933866 
L 411.690074 69.252834 
L 411.791989 69.255074 
L 411.893905 68.696218 
L 412.097735 64.798801 
L 412.403481 58.190196 
L 412.505396 58.796209 
L 412.913057 63.877326 
L 413.116887 64.785116 
L 413.320718 63.85315 
L 413.422633 63.484002 
L 413.524548 63.664856 
L 414.136039 65.954716 
L 414.33987 64.433759 
L 414.645615 62.42727 
L 414.951361 61.209488 
L 415.053276 61.316992 
L 415.359022 62.820589 
L 415.460937 62.75471 
L 415.664767 60.825271 
L 415.970513 56.457979 
L 416.072428 58.050198 
L 416.582004 76.15986 
L 416.683919 75.421463 
L 416.785835 75.508097 
L 417.09158 82.24843 
L 417.703071 93.684733 
L 417.906902 95.358597 
L 418.110732 95.009049 
L 418.314563 95.426338 
L 418.620308 95.262449 
L 418.722223 95.45778 
L 418.926054 96.649496 
L 419.129884 98.178726 
L 419.231799 97.305254 
L 419.43563 90.027207 
L 419.741376 78.634535 
L 419.843291 77.49893 
L 419.945206 77.773051 
L 421.066273 91.502566 
L 421.270104 95.239922 
L 421.372019 96.030974 
L 421.575849 100.834879 
L 421.77968 104.987454 
L 422.085425 99.75827 
L 422.18734 100.116637 
L 422.391171 101.555493 
L 422.595001 100.102774 
L 422.798832 98.707613 
L 422.900747 98.929762 
L 423.104577 102.423176 
L 423.512238 116.122464 
L 423.614153 115.913768 
L 423.817984 114.026433 
L 423.919899 114.036956 
L 424.021814 113.696718 
L 424.32756 109.150115 
L 424.429475 109.326273 
L 424.837136 112.570369 
L 425.244797 114.85408 
L 425.754373 118.710305 
L 425.958203 118.860783 
L 426.467779 118.133205 
L 426.977355 117.925029 
L 427.181186 117.94593 
L 427.283101 118.232902 
L 427.486931 120.170031 
L 427.792677 125.424221 
L 427.894592 124.852065 
L 428.200338 119.522564 
L 428.302253 120.110093 
L 428.709914 124.42269 
L 428.913744 125.255602 
L 429.015659 125.234506 
L 429.21949 122.729013 
L 429.42332 120.577048 
L 429.525235 120.690427 
L 429.830981 123.148621 
L 430.136726 125.384196 
L 430.238642 125.332704 
L 430.340557 125.444129 
L 430.544387 125.911024 
L 430.646302 125.573662 
L 430.850133 123.32474 
L 431.053963 120.731519 
L 431.155879 120.598525 
L 431.257794 121.694882 
L 431.461624 127.644199 
L 431.665455 134.846111 
L 431.665455 134.846111 
" clip-path="url(#pc99b6d3fa8)" style="fill: none; stroke-dasharray: 1.85,0.8; stroke-dashoffset: 0; stroke: #1f77b4; stroke-width: 0.5"/>
   </g>
   <g id="line2d_30">
    <path d="M 64.974545 203.631825 
L 65.484121 202.517745 
L 65.891782 202.114152 
L 66.299443 202.057858 
L 66.707104 202.269303 
L 67.318595 202.914445 
L 68.745408 204.558053 
L 69.153069 204.705197 
L 69.56073 204.616293 
L 70.172221 204.218257 
L 71.089458 203.629769 
L 71.497119 203.604208 
L 71.904779 203.851991 
L 72.31244 204.463555 
L 72.720101 205.52934 
L 73.229677 207.638093 
L 73.841168 211.304881 
L 76.185218 226.782425 
L 76.592879 228.042814 
L 76.898624 228.416083 
L 77.102455 228.350578 
L 77.306285 228.007486 
L 77.612031 226.991402 
L 78.121607 224.227464 
L 78.936929 218.131537 
L 80.159911 209.126317 
L 80.669487 206.840234 
L 80.975233 206.202611 
L 81.179063 206.150055 
L 81.382894 206.432861 
L 81.688639 207.474086 
L 82.0963 209.838612 
L 82.707791 214.933986 
L 85.051841 236.349008 
L 85.459502 237.895616 
L 85.765247 238.262974 
L 85.969078 238.162345 
L 86.274823 237.548901 
L 86.682484 235.984822 
L 87.293975 232.402506 
L 88.313127 224.623457 
L 89.434195 216.355673 
L 90.147601 212.689832 
L 90.759092 210.589878 
L 91.370584 209.262454 
L 91.88016 208.616878 
L 92.389736 208.279222 
L 93.001227 208.13421 
L 95.854853 207.803453 
L 99.727631 207.155546 
L 100.644867 207.299399 
L 101.460189 207.654626 
L 102.275511 208.268639 
L 104.109984 210.077199 
L 105.027221 210.801222 
L 105.740628 211.101079 
L 106.352119 211.111359 
L 107.065525 210.87522 
L 107.982762 210.297714 
L 111.142134 208.044769 
L 112.365116 207.589008 
L 113.690014 207.349393 
L 115.116827 207.325655 
L 121.333654 207.731498 
L 122.454721 208.061856 
L 126.021753 209.407826 
L 126.837075 209.366055 
L 127.958142 209.061549 
L 130.506023 208.27045 
L 131.729005 208.23357 
L 137.028596 208.418144 
L 138.353493 208.541294 
L 139.678391 208.912081 
L 141.920526 209.551744 
L 142.939678 209.575886 
L 144.16266 209.337872 
L 146.812455 208.731343 
L 148.035438 208.752414 
L 153.335029 209.132509 
L 155.882909 209.215567 
L 161.59016 209.581343 
L 167.603157 209.798344 
L 183.094269 210.436909 
L 189.00535 210.567179 
L 192.674298 210.660632 
L 196.0375 210.719834 
L 198.687295 210.811656 
L 199.910277 210.609253 
L 201.33709 210.115002 
L 204.394546 208.984563 
L 205.719444 208.79195 
L 206.840511 208.847751 
L 207.859663 209.102778 
L 209.184561 209.695867 
L 211.834356 210.947967 
L 213.057339 211.214073 
L 215.197558 211.388716 
L 217.032032 211.649337 
L 219.274166 211.968201 
L 220.497149 211.900381 
L 222.331623 211.505481 
L 223.962266 211.244933 
L 225.287164 211.296259 
L 227.325468 211.384925 
L 228.242705 211.204967 
L 229.363772 210.731896 
L 231.300161 209.899549 
L 232.115482 209.800168 
L 232.930804 209.949645 
L 235.478684 210.644996 
L 236.090175 210.512843 
L 236.803582 210.096789 
L 237.618903 209.645512 
L 238.026564 209.609184 
L 238.434225 209.799905 
L 238.841886 210.293307 
L 239.249547 211.165022 
L 239.759123 212.901888 
L 240.268699 215.49576 
L 240.982105 220.627277 
L 243.42807 240.150069 
L 243.937646 242.189086 
L 244.243392 242.72307 
L 244.447222 242.745741 
L 244.651053 242.497516 
L 244.956798 241.663172 
L 245.364459 239.798516 
L 245.97595 235.730824 
L 246.995102 226.962349 
L 248.421915 214.91823 
L 249.135322 210.79703 
L 249.746813 208.398165 
L 250.358304 206.855792 
L 250.86788 206.094955 
L 251.377456 205.699859 
L 251.887032 205.566393 
L 252.702354 205.637935 
L 254.536828 206.073809 
L 256.473216 206.47664 
L 257.798114 206.50181 
L 259.530673 206.283635 
L 263.19962 205.754513 
L 264.932178 205.756567 
L 266.766652 206.011449 
L 271.658582 206.813513 
L 274.002632 206.905995 
L 278.894562 206.991755 
L 281.238611 207.324382 
L 283.480746 207.645723 
L 284.499898 207.55201 
L 285.31522 207.27479 
L 286.232456 206.715722 
L 287.353524 205.734631 
L 288.780337 204.141509 
L 290.41098 201.996458 
L 291.532047 200.139689 
L 292.551199 197.969416 
L 293.468436 195.485461 
L 294.487588 192.787402 
L 294.895249 192.248444 
L 295.200994 192.205948 
L 295.404825 192.389982 
L 295.710571 193.038065 
L 296.118231 194.708957 
L 296.525892 197.458782 
L 297.035468 202.674057 
L 297.545044 210.168482 
L 298.258451 224.151771 
L 301.010161 282.556306 
L 301.519737 288.190417 
L 301.927398 290.476281 
L 302.233144 290.994545 
L 302.436974 290.82127 
L 302.74272 289.850918 
L 303.150381 287.37321 
L 303.659957 282.67819 
L 304.373363 273.881101 
L 306.004006 249.797013 
L 307.532734 229.04489 
L 308.551886 218.03742 
L 309.367208 211.58858 
L 309.978699 208.413652 
L 310.488275 206.803001 
L 310.895936 206.074377 
L 311.303597 205.751874 
L 311.711258 205.750969 
L 312.118919 205.98714 
L 312.832325 206.716677 
L 313.749562 207.61214 
L 314.259138 207.824729 
L 314.870629 207.819059 
L 315.584036 207.555173 
L 318.335746 206.214972 
L 319.252983 206.237339 
L 322.208524 206.540142 
L 323.329591 206.232554 
L 325.469811 205.594217 
L 326.285132 205.589611 
L 327.304284 205.833183 
L 330.871316 206.938354 
L 332.298129 206.918743 
L 335.457501 206.778424 
L 337.088144 206.988638 
L 338.616872 207.415805 
L 341.776243 208.424593 
L 342.795395 208.481623 
L 344.120293 208.308514 
L 347.38158 207.76049 
L 352.579255 207.555076 
L 353.394577 207.794801 
L 354.107983 208.235872 
L 354.82139 208.94753 
L 356.757779 211.120445 
L 357.267355 211.349809 
L 357.675015 211.321298 
L 358.082676 211.059247 
L 358.490337 210.522031 
L 358.999913 209.430523 
L 359.71332 207.277528 
L 360.936302 202.682587 
L 362.2612 197.921305 
L 362.974606 196.068146 
L 364.197589 193.12343 
L 364.707165 191.228064 
L 365.216741 188.528154 
L 365.726317 184.743225 
L 366.337808 178.374172 
L 366.949299 169.595486 
L 368.987603 137.150493 
L 369.395264 133.932903 
L 369.70101 133.000078 
L 369.802925 133.014271 
L 370.006755 133.578916 
L 370.312501 135.887916 
L 370.618247 140.145577 
L 371.025907 149.135119 
L 371.637399 168.329571 
L 373.879533 244.872353 
L 374.287194 250.972704 
L 374.491024 252.226753 
L 374.59294 252.348856 
L 374.694855 252.113055 
L 374.898685 250.503866 
L 375.204431 245.350549 
L 375.612092 234.13962 
L 376.223583 210.419149 
L 378.567633 110.341735 
L 378.975293 102.40153 
L 379.281039 99.90386 
L 379.382954 99.676848 
L 379.484869 99.730363 
L 379.6887 100.625593 
L 379.994445 103.738737 
L 380.402106 110.63361 
L 381.013597 125.120917 
L 382.848071 171.520518 
L 383.255732 177.025485 
L 383.663393 179.821619 
L 383.867223 180.319164 
L 383.969138 180.362981 
L 384.172969 180.069527 
L 384.478714 178.763093 
L 384.886375 175.646283 
L 385.497866 168.774237 
L 388.147662 135.563802 
L 391.205118 106.609519 
L 392.22427 92.053487 
L 393.956829 67.314423 
L 394.670235 60.181853 
L 395.179811 57.107569 
L 395.485557 56.239334 
L 395.689387 56.050251 
L 395.893217 56.146484 
L 396.198963 56.776156 
L 396.606624 58.402514 
L 397.1162 61.444646 
L 397.931522 67.8085 
L 399.562165 80.809674 
L 400.377486 85.238381 
L 401.090893 87.896223 
L 401.702384 89.392217 
L 402.21196 90.161158 
L 402.721536 90.555445 
L 403.231112 90.630987 
L 403.740688 90.438749 
L 404.250264 89.990151 
L 404.861756 89.105153 
L 405.575162 87.581812 
L 406.288568 85.514493 
L 407.10389 82.465042 
L 408.123042 77.683735 
L 409.346025 72.064536 
L 409.957516 70.140344 
L 410.365177 69.430023 
L 410.670922 69.273696 
L 410.874753 69.373734 
L 411.180498 69.86352 
L 411.486244 70.800998 
L 411.893905 72.782634 
L 412.505396 77.035101 
L 413.524548 86.155499 
L 414.951361 98.844958 
L 415.562852 102.702083 
L 416.072428 104.695089 
L 416.480089 105.599677 
L 416.88775 106.046535 
L 417.295411 106.179143 
L 418.110732 106.075538 
L 418.518393 106.126287 
L 418.926054 106.436712 
L 419.333715 107.150296 
L 419.741376 108.41052 
L 420.250952 110.821155 
L 421.066273 116.040341 
L 423.104577 129.957227 
L 423.716069 132.518567 
L 424.123729 133.433369 
L 424.429475 133.743669 
L 424.735221 133.791506 
L 425.040966 133.630567 
L 425.550542 133.0442 
L 426.87544 131.287059 
L 427.181186 131.167903 
L 427.486931 131.269463 
L 427.792677 131.645424 
L 428.200338 132.631552 
L 428.709914 134.539085 
L 429.42332 138.135462 
L 431.665455 151.080694 
L 431.665455 151.080694 
" clip-path="url(#pc99b6d3fa8)" style="fill: none; stroke: #ff7f0e; stroke-width: 0.5; stroke-linecap: square"/>
   </g>
   <g id="line2d_31">
    <path d="M 64.974545 240.233301 
L 65.076461 240.233301 
L 65.178376 239.912847 
L 65.484121 241.179352 
L 65.687952 241.301654 
L 65.993698 241.159003 
L 67.01285 240.546333 
L 67.21668 240.415265 
L 68.337747 239.08682 
L 68.541578 239.053857 
L 68.745408 239.096186 
L 69.051154 238.86426 
L 69.866475 239.295494 
L 70.681797 239.847923 
L 71.497119 240.089414 
L 71.599034 239.498627 
L 72.006695 234.545301 
L 72.10861 234.464039 
L 72.31244 234.915623 
L 72.720101 236.326736 
L 73.025847 235.818987 
L 73.331592 234.839198 
L 73.535423 235.198047 
L 73.739253 235.907158 
L 73.841168 235.629215 
L 74.554575 226.394523 
L 74.758405 225.965173 
L 74.86032 225.847894 
L 75.064151 224.72435 
L 75.369896 222.145686 
L 75.573727 221.600237 
L 75.777557 218.865507 
L 75.981388 215.746378 
L 76.185218 215.263445 
L 76.389048 215.476553 
L 76.592879 214.87648 
L 76.796709 217.103448 
L 77.510116 228.411245 
L 77.612031 228.151182 
L 78.121607 221.026057 
L 78.223522 221.169842 
L 78.529268 222.894058 
L 79.650335 231.676049 
L 80.261826 235.78331 
L 80.771402 237.804396 
L 81.179063 238.704574 
L 81.280978 238.60882 
L 81.688639 237.586532 
L 81.790554 237.541406 
L 81.89247 237.289377 
L 82.0963 235.545951 
L 82.707791 230.003086 
L 83.217367 224.207112 
L 83.523113 217.820197 
L 83.726943 206.187327 
L 84.032689 178.406528 
L 84.134604 177.736891 
L 84.338434 182.833335 
L 85.051841 207.597402 
L 85.459502 209.040705 
L 85.663332 209.132403 
L 86.070993 209.097646 
L 86.376739 209.963867 
L 86.98823 213.094275 
L 87.701636 217.995697 
L 88.618873 225.085339 
L 89.230364 229.732689 
L 90.147601 236.147093 
L 90.555262 237.722163 
L 90.657177 237.867173 
L 91.064838 237.410765 
L 92.185905 238.646746 
L 92.491651 238.489052 
L 92.797397 238.779374 
L 93.612718 239.621661 
L 93.816549 239.753052 
L 93.918464 239.667299 
L 94.224209 238.905476 
L 94.42804 238.887496 
L 94.733785 238.94421 
L 95.039531 238.96341 
L 95.549107 239.219183 
L 96.262514 239.709638 
L 97.587411 240.106545 
L 98.810394 240.204787 
L 98.912309 239.787039 
L 99.218054 236.959897 
L 99.421885 236.6665 
L 99.625715 236.96172 
L 100.644867 239.084941 
L 101.154443 239.604902 
L 101.460189 239.594181 
L 101.86785 239.483201 
L 102.785087 239.099157 
L 103.090832 239.060059 
L 103.294663 238.812452 
L 103.600408 237.728716 
L 103.804239 237.098889 
L 103.906154 237.071043 
L 104.109984 237.334779 
L 105.129136 239.216616 
L 105.638712 239.682276 
L 105.740628 239.627672 
L 106.250204 237.694285 
L 106.861695 237.856246 
L 108.084677 239.564049 
L 108.288508 239.603598 
L 108.594253 239.094005 
L 108.798084 239.11149 
L 109.30766 239.341931 
L 109.51149 238.782107 
L 109.715321 238.31449 
L 109.919151 238.356147 
L 110.632557 238.964009 
L 110.836388 239.013628 
L 111.549794 239.402583 
L 113.486183 240.088574 
L 114.811081 240.204589 
L 118.887689 240.229269 
L 121.6394 240.1441 
L 122.250891 239.941877 
L 122.352806 239.851632 
L 122.862382 238.578349 
L 123.168128 238.800628 
L 124.085365 239.686828 
L 124.696856 239.971412 
L 124.900686 239.901602 
L 125.716008 238.114908 
L 126.021753 238.345659 
L 126.53133 238.752746 
L 127.754312 239.216248 
L 130.404107 240.140848 
L 132.136666 240.222235 
L 133.767309 240.138839 
L 134.3788 240.133304 
L 136.824765 240.227448 
L 138.964985 240.152596 
L 140.595628 239.808405 
L 142.022441 240.142731 
L 143.347338 240.190004 
L 143.95883 239.488204 
L 145.895219 240.003413 
L 147.016286 240.172757 
L 149.360336 240.229869 
L 178.508084 240.233245 
L 197.056652 240.141952 
L 197.464312 240.083669 
L 198.993041 240.077754 
L 199.502617 238.640316 
L 199.808362 238.570065 
L 200.317938 238.761517 
L 202.967734 239.800395 
L 203.88497 240.079428 
L 205.209868 240.202713 
L 207.350087 240.18798 
L 207.961579 239.936412 
L 209.592222 239.158097 
L 209.897968 238.904594 
L 210.203713 239.081822 
L 211.12095 239.793812 
L 211.834356 240.043787 
L 212.445848 239.964886 
L 212.853509 239.966841 
L 214.687982 240.198422 
L 216.726286 240.180679 
L 218.866506 239.920102 
L 219.274166 239.909152 
L 219.477997 239.673212 
L 219.681827 239.436899 
L 219.885658 239.301702 
L 220.191403 238.638965 
L 220.293319 237.682814 
L 220.599064 231.808835 
L 220.700979 231.388579 
L 220.802895 231.445452 
L 221.006725 232.308771 
L 221.923962 237.151687 
L 222.229707 237.990958 
L 222.535453 238.054756 
L 223.248859 237.988958 
L 223.45269 237.944009 
L 223.962266 237.567786 
L 224.166096 237.782607 
L 224.675672 238.477484 
L 224.981418 238.50905 
L 225.287164 238.275582 
L 225.592909 238.587294 
L 226.102485 239.244566 
L 226.2044 239.100715 
L 226.510146 236.54725 
L 226.917807 232.457185 
L 227.019722 232.333168 
L 227.325468 232.847345 
L 227.529298 233.13879 
L 227.733129 232.960172 
L 227.936959 233.583415 
L 228.752281 237.09535 
L 229.975263 239.34797 
L 230.179093 239.504648 
L 230.586754 239.528283 
L 231.809737 239.981198 
L 233.134634 240.043834 
L 234.153786 239.698315 
L 234.459532 239.556763 
L 234.867193 239.247113 
L 235.580599 239.315914 
L 236.701667 239.945169 
L 236.905497 239.754981 
L 237.109327 239.539225 
L 237.415073 239.570559 
L 238.739971 240.069153 
L 238.943801 239.895302 
L 239.249547 239.659831 
L 239.962953 239.724023 
L 240.064868 239.307839 
L 240.67636 233.028794 
L 243.42807 209.43047 
L 243.631901 206.159367 
L 243.733816 206.802571 
L 244.039561 212.859817 
L 244.345307 218.460381 
L 244.854883 203.844625 
L 244.956798 203.691117 
L 245.466374 207.633027 
L 246.179781 221.486792 
L 246.383611 218.717456 
L 246.485526 218.726949 
L 246.791272 220.645037 
L 248.52383 235.545257 
L 248.727661 236.4217 
L 248.829576 236.295206 
L 249.033406 235.388438 
L 249.135322 235.322332 
L 249.339152 235.709711 
L 250.358304 238.638507 
L 250.86788 239.368716 
L 251.479371 239.823438 
L 252.192778 240.062429 
L 253.41576 240.195214 
L 253.517675 240.191978 
L 253.619591 240.059307 
L 254.027252 238.989698 
L 254.231082 238.948067 
L 254.638743 239.25956 
L 255.352149 239.786077 
L 255.657895 239.922616 
L 255.75981 239.675075 
L 255.96364 237.539667 
L 256.371301 231.863557 
L 256.473216 231.641643 
L 256.575132 231.811465 
L 256.880877 233.346395 
L 257.186623 234.753602 
L 257.390453 234.402769 
L 257.594284 234.085793 
L 257.798114 234.559454 
L 258.10386 235.325461 
L 258.613436 235.49189 
L 258.919181 235.801232 
L 259.123012 235.412533 
L 259.326842 235.72073 
L 260.549825 238.959234 
L 261.059401 239.447943 
L 261.976638 239.932753 
L 262.180468 239.847012 
L 262.486214 239.740682 
L 263.301535 239.983453 
L 264.422602 240.167359 
L 266.562822 240.218421 
L 267.785804 240.200498 
L 267.989635 239.676235 
L 268.193465 239.226721 
L 268.397295 239.171343 
L 268.804956 239.418694 
L 269.620278 239.892359 
L 269.722193 239.829075 
L 270.027939 239.370299 
L 270.333684 239.411401 
L 271.352836 239.861332 
L 272.473904 240.114966 
L 272.677734 239.768906 
L 272.881565 239.436458 
L 273.18731 239.434286 
L 274.817953 240.093147 
L 275.123699 240.052186 
L 275.53136 240.021463 
L 277.773494 240.215662 
L 278.588816 239.978566 
L 278.894562 239.502386 
L 279.200307 239.502562 
L 279.607968 239.610416 
L 280.015629 239.642107 
L 280.62712 239.849855 
L 281.544357 240.099349 
L 282.257763 240.143199 
L 282.767339 239.551272 
L 283.175 239.679021 
L 283.786491 239.939616 
L 283.888407 239.878752 
L 284.296068 239.176789 
L 284.499898 239.140073 
L 285.51905 239.504252 
L 285.824796 239.249678 
L 286.028626 239.236551 
L 286.334372 238.933564 
L 286.640117 239.102262 
L 287.557354 239.800588 
L 287.659269 239.785738 
L 287.8631 239.145535 
L 288.270761 237.67819 
L 288.678421 237.186055 
L 289.493743 236.553988 
L 289.901404 236.518486 
L 290.309065 236.516662 
L 290.512895 236.835633 
L 291.124386 238.038018 
L 291.328217 238.123705 
L 292.245454 239.081301 
L 292.856945 238.603834 
L 293.16269 238.851955 
L 293.978012 239.64643 
L 294.691418 239.984162 
L 294.997164 240.052452 
L 295.099079 239.912102 
L 295.404825 239.053269 
L 295.608655 238.880155 
L 296.220147 237.75203 
L 296.525892 235.178223 
L 297.239299 226.788503 
L 297.646959 220.035218 
L 299.583348 179.594897 
L 299.685264 179.682654 
L 299.889094 185.335788 
L 300.500585 206.191277 
L 301.010161 197.25292 
L 301.315907 192.196756 
L 301.519737 182.736583 
L 301.825483 165.243043 
L 302.233144 155.506965 
L 302.538889 145.93464 
L 302.640804 145.557484 
L 302.94655 147.09963 
L 303.048465 148.764195 
L 303.354211 165.227165 
L 303.761872 188.970561 
L 304.067617 194.602204 
L 304.577193 208.827339 
L 305.2906 219.186893 
L 306.207837 232.089861 
L 306.309752 232.750288 
L 306.411667 231.573031 
L 306.921243 210.769364 
L 307.532734 214.325694 
L 308.653802 226.143397 
L 309.469123 234.174522 
L 309.978699 236.848117 
L 310.488275 238.355818 
L 310.997851 239.218154 
L 311.405512 239.45113 
L 312.526579 239.995957 
L 312.73041 240.016113 
L 313.138071 239.676573 
L 313.647647 238.991893 
L 313.953392 238.476048 
L 314.361053 237.172593 
L 314.666799 236.28931 
L 315.07446 236.03126 
L 315.27829 236.258305 
L 315.685951 237.044912 
L 315.889781 237.197572 
L 316.297442 236.693705 
L 316.603188 237.310859 
L 317.316594 238.855903 
L 317.82617 239.449634 
L 318.131916 239.271988 
L 318.641492 238.945058 
L 319.151068 239.36295 
L 319.762559 239.793797 
L 319.864474 239.731916 
L 320.17022 239.14293 
L 320.37405 239.136598 
L 321.189372 239.528067 
L 321.393202 239.456398 
L 321.800863 239.622451 
L 322.7181 240.0083 
L 323.839167 240.175324 
L 326.285132 240.230403 
L 327.100454 240.150367 
L 327.508115 239.970471 
L 327.81386 239.834847 
L 328.527267 239.404155 
L 329.036843 239.655172 
L 329.852164 240.002248 
L 330.769401 240.128641 
L 331.278977 240.124418 
L 331.686638 239.833876 
L 332.196214 239.930303 
L 333.317281 240.130693 
L 335.04984 240.220609 
L 336.374737 240.131333 
L 337.190059 239.785504 
L 337.495805 239.41577 
L 337.80155 239.490898 
L 339.024533 240.031144 
L 339.839854 240.135571 
L 340.1456 239.637898 
L 340.553261 239.289088 
L 341.062837 239.257091 
L 342.387735 239.990424 
L 342.69348 240.043647 
L 342.795395 239.780545 
L 343.101141 238.265019 
L 343.304971 238.030723 
L 343.814547 238.288003 
L 344.935615 239.536058 
L 345.139445 239.132155 
L 345.445191 238.268532 
L 345.649021 238.311086 
L 346.260512 239.093499 
L 346.872004 239.668746 
L 347.075834 239.754449 
L 347.687325 239.317654 
L 348.502647 239.770296 
L 349.114138 239.313088 
L 350.744781 240.070014 
L 351.865849 240.168211 
L 352.27351 240.022171 
L 353.394577 240.150983 
L 353.802238 240.182524 
L 353.904153 240.064549 
L 354.209898 239.2939 
L 354.719474 238.853498 
L 355.127135 238.001984 
L 355.330966 238.172688 
L 355.840542 238.830054 
L 356.044372 237.944009 
L 356.452033 235.603117 
L 356.757779 235.077672 
L 357.471185 234.660903 
L 359.101828 238.624022 
L 359.611404 239.354478 
L 359.815235 239.543184 
L 359.91715 238.762182 
L 360.222896 233.53943 
L 360.426726 233.13402 
L 360.630556 233.712286 
L 360.732472 233.624978 
L 361.038217 232.020714 
L 361.140132 231.964438 
L 361.445878 232.940077 
L 361.853539 234.317851 
L 362.159284 234.050305 
L 362.566945 234.145375 
L 362.872691 233.825712 
L 363.076521 233.42036 
L 363.280352 233.910493 
L 363.891843 236.072874 
L 364.197589 236.756426 
L 365.114825 238.841665 
L 365.624401 239.475253 
L 365.930147 239.687693 
L 366.032062 238.892865 
L 366.541638 230.243178 
L 366.745469 229.147652 
L 367.051214 229.718209 
L 367.255045 230.190336 
L 367.56079 232.036621 
L 368.274197 236.347147 
L 368.376112 236.507074 
L 368.681858 236.076038 
L 369.497179 234.2643 
L 369.70101 232.829743 
L 370.006755 228.379704 
L 370.414416 218.944605 
L 371.127823 194.357743 
L 372.656551 104.849752 
L 372.962296 98.50121 
L 373.064211 96.084326 
L 373.166127 97.475176 
L 373.471872 121.774316 
L 373.981448 166.500833 
L 374.083363 166.37606 
L 374.287194 163.778817 
L 374.389109 160.929696 
L 374.59294 142.731643 
L 375.102516 56.047016 
L 375.204431 53.012014 
L 375.306346 53.19715 
L 375.510176 57.176565 
L 375.917837 70.634505 
L 377.038904 118.835542 
L 377.752311 169.92602 
L 377.854226 170.588947 
L 378.058056 168.998711 
L 378.159972 170.138489 
L 378.975293 189.403751 
L 379.179124 193.182004 
L 379.382954 197.51197 
L 379.484869 197.817341 
L 379.6887 195.261853 
L 379.89253 190.128072 
L 380.402106 170.4211 
L 380.707852 171.995222 
L 380.809767 171.899403 
L 380.911682 172.036392 
L 381.013597 171.837672 
L 381.115513 170.128833 
L 381.625089 152.50113 
L 381.828919 150.460676 
L 382.03275 148.227939 
L 382.134665 148.50151 
L 382.44041 150.395177 
L 382.542326 149.602781 
L 382.746156 144.757462 
L 382.949986 151.962552 
L 383.663393 192.83409 
L 383.765308 190.207258 
L 384.682545 138.742815 
L 384.886375 136.322264 
L 384.98829 136.286189 
L 385.294036 136.938433 
L 385.395951 136.728475 
L 385.599782 135.852982 
L 385.701697 135.988175 
L 385.905527 138.075461 
L 386.720849 148.087451 
L 387.33234 153.010542 
L 387.740001 156.182075 
L 388.045747 162.407411 
L 389.268729 196.055365 
L 389.67639 210.171583 
L 389.778305 210.204825 
L 389.982136 202.603732 
L 390.389796 179.616288 
L 390.491712 180.802099 
L 390.797457 191.619274 
L 391.001288 199.106263 
L 391.103203 199.594568 
L 391.307033 197.963789 
L 391.408948 198.156377 
L 391.612779 200.77727 
L 392.22427 213.474909 
L 392.631931 221.674701 
L 392.835761 223.988209 
L 392.937676 223.537402 
L 393.549168 216.063238 
L 393.651083 215.717869 
L 393.752998 215.930527 
L 394.466405 220.792804 
L 394.56832 220.808811 
L 394.874065 220.048551 
L 395.077896 220.786229 
L 395.485557 222.418756 
L 395.893217 223.336131 
L 396.198963 225.355478 
L 396.300878 225.384505 
L 396.402793 225.699296 
L 396.708539 228.373313 
L 397.421946 234.681555 
L 397.931522 237.210127 
L 398.033437 237.421051 
L 398.135352 237.226159 
L 398.339182 235.793329 
L 398.848758 230.235616 
L 398.950674 230.381961 
L 399.052589 229.999521 
L 400.173656 213.04397 
L 400.275571 212.991821 
L 400.377486 213.58479 
L 400.683232 218.500045 
L 401.192808 227.16147 
L 401.294723 227.412861 
L 401.600469 224.385452 
L 401.804299 221.039795 
L 401.906215 220.900091 
L 402.110045 222.542179 
L 402.517706 227.016663 
L 402.925367 224.583721 
L 403.129197 225.821916 
L 403.740688 230.653064 
L 404.352179 235.233645 
L 404.861756 237.502471 
L 404.963671 237.696374 
L 405.065586 237.355536 
L 405.269416 234.19421 
L 405.677077 225.416037 
L 405.778992 225.38568 
L 405.982823 226.721493 
L 406.186653 228.177905 
L 406.288568 228.053923 
L 406.492399 226.182222 
L 406.696229 223.592312 
L 406.798144 223.541652 
L 407.001975 225.027318 
L 407.715381 232.220897 
L 407.919212 232.61903 
L 408.224957 233.512081 
L 408.428788 233.58086 
L 408.632618 234.018056 
L 409.549855 237.127311 
L 409.753685 237.321137 
L 409.957516 237.057518 
L 410.467092 235.868187 
L 410.772837 234.679775 
L 410.874753 234.763788 
L 411.180498 235.730272 
L 411.690074 237.556557 
L 411.791989 237.382829 
L 411.99582 234.10452 
L 412.505396 222.134311 
L 412.811142 223.799227 
L 412.913057 223.651612 
L 413.014972 223.36781 
L 413.218802 221.47583 
L 413.524548 217.777497 
L 414.136039 214.28121 
L 415.053276 202.004661 
L 415.359022 201.535206 
L 415.562852 199.802496 
L 415.868598 193.141925 
L 415.970513 193.900865 
L 416.276259 202.142622 
L 416.582004 210.078637 
L 416.785835 210.751109 
L 417.09158 215.95349 
L 417.804987 228.806646 
L 417.906902 229.574862 
L 418.110732 229.146621 
L 418.314563 229.628478 
L 418.722223 229.457703 
L 418.926054 230.518425 
L 419.129884 231.690497 
L 419.231799 230.6586 
L 419.537545 217.87223 
L 419.843291 208.936467 
L 419.945206 208.769916 
L 420.658612 213.618117 
L 420.862443 213.188411 
L 421.473934 219.844614 
L 421.77968 223.613568 
L 422.18734 216.193342 
L 422.289256 216.370525 
L 422.391171 216.197585 
L 422.595001 213.117583 
L 422.798832 210.497068 
L 422.900747 211.16397 
L 423.206492 216.55535 
L 423.614153 223.578821 
L 424.123729 219.08215 
L 424.32756 215.78343 
L 424.429475 215.850731 
L 424.939051 219.626265 
L 425.244797 221.68346 
L 425.754373 226.23014 
L 425.958203 226.693027 
L 426.467779 226.701645 
L 426.773525 226.958518 
L 427.07927 226.73626 
L 427.283101 228.079783 
L 427.792677 232.722192 
L 427.894592 232.477418 
L 428.200338 227.830209 
L 428.302253 227.801686 
L 428.506083 228.917123 
L 428.709914 230.24535 
L 428.913744 230.00496 
L 429.015659 229.555729 
L 429.525235 222.248926 
L 429.62715 222.261188 
L 429.830981 222.912558 
L 430.034811 223.619452 
L 430.238642 222.633452 
L 430.646302 220.37017 
L 430.850133 216.644739 
L 431.053963 213.055214 
L 431.155879 213.349384 
L 431.461624 217.962616 
L 431.665455 221.812571 
L 431.665455 221.812571 
" clip-path="url(#pc99b6d3fa8)" style="fill: none; stroke: #2ca02c; stroke-width: 0.5; stroke-linecap: square"/>
   </g>
   <g id="patch_3">
    <path d="M 46.64 303.64 
L 46.64 25.44 
" style="fill: none; stroke: #000000; stroke-width: 0.8; stroke-linejoin: miter; stroke-linecap: square"/>
   </g>
   <g id="patch_4">
    <path d="M 450 303.64 
L 450 25.44 
" style="fill: none; stroke: #000000; stroke-width: 0.8; stroke-linejoin: miter; stroke-linecap: square"/>
   </g>
   <g id="patch_5">
    <path d="M 46.64 303.64 
L 450 303.64 
" style="fill: none; stroke: #000000; stroke-width: 0.8; stroke-linejoin: miter; stroke-linecap: square"/>
   </g>
   <g id="patch_6">
    <path d="M 46.64 25.44 
L 450 25.44 
" style="fill: none; stroke: #000000; stroke-width: 0.8; stroke-linejoin: miter; stroke-linecap: square"/>
   </g>
   <g id="text_17">
    <!-- cvxEDA (σ=0.4s  data_4_E4) -->
    <g transform="translate(162.66625 19.44) scale(0.12 -0.12)">
     <defs>
      <path id="DejaVuSans-63" d="M 3122 3366 
L 3122 2828 
Q 2878 2963 2633 3030 
Q 2388 3097 2138 3097 
Q 1578 3097 1268 2742 
Q 959 2388 959 1747 
Q 959 1106 1268 751 
Q 1578 397 2138 397 
Q 2388 397 2633 464 
Q 2878 531 3122 666 
L 3122 134 
Q 2881 22 2623 -34 
Q 2366 -91 2075 -91 
Q 1284 -91 818 406 
Q 353 903 353 1747 
Q 353 2603 823 3093 
Q 1294 3584 2113 3584 
Q 2378 3584 2631 3529 
Q 2884 3475 3122 3366 
z
" transform="scale(0.015625)"/>
      <path id="DejaVuSans-76" d="M 191 3500 
L 800 3500 
L 1894 563 
L 2988 3500 
L 3597 3500 
L 2284 0 
L 1503 0 
L 191 3500 
z
" transform="scale(0.015625)"/>
      <path id="DejaVuSans-78" d="M 3513 3500 
L 2247 1797 
L 3578 0 
L 2900 0 
L 1881 1375 
L 863 0 
L 184 0 
L 1544 1831 
L 300 3500 
L 978 3500 
L 1906 2253 
L 2834 3500 
L 3513 3500 
z
" transform="scale(0.015625)"/>
      <path id="DejaVuSans-3c3" d="M 1959 3044 
Q 1484 3044 1228 2700 
Q 959 2341 959 1747 
Q 959 1119 1226 758 
Q 1494 397 1959 397 
Q 2419 397 2687 759 
Q 2956 1122 2956 1747 
Q 2956 2319 2688 2700 
Q 2441 3044 1959 3044 
z
M 1959 3500 
L 3869 3500 
L 3869 2925 
L 3225 2925 
Q 3566 2438 3566 1747 
Q 3566 888 3138 400 
Q 2709 -91 1959 -91 
Q 1206 -91 781 400 
Q 353 888 353 1747 
Q 353 2613 781 3097 
Q 1134 3500 1959 3500 
z
" transform="scale(0.015625)"/>
      <path id="DejaVuSans-3d" d="M 678 2906 
L 4684 2906 
L 4684 2381 
L 678 2381 
L 678 2906 
z
M 678 1631 
L 4684 1631 
L 4684 1100 
L 678 1100 
L 678 1631 
z
" transform="scale(0.015625)"/>
      <path id="DejaVuSans-2e" d="M 684 794 
L 1344 794 
L 1344 0 
L 684 0 
L 684 794 
z
" transform="scale(0.015625)"/>
      <path id="DejaVuSans-64" d="M 2906 2969 
L 2906 4863 
L 3481 4863 
L 3481 0 
L 2906 0 
L 2906 525 
Q 2725 213 2448 61 
Q 2172 -91 1784 -91 
Q 1150 -91 751 415 
Q 353 922 353 1747 
Q 353 2572 751 3078 
Q 1150 3584 1784 3584 
Q 2172 3584 2448 3432 
Q 2725 3281 2906 2969 
z
M 947 1747 
Q 947 1113 1208 752 
Q 1469 391 1925 391 
Q 2381 391 2643 752 
Q 2906 1113 2906 1747 
Q 2906 2381 2643 2742 
Q 2381 3103 1925 3103 
Q 1469 3103 1208 2742 
Q 947 2381 947 1747 
z
" transform="scale(0.015625)"/>
      <path id="DejaVuSans-5f" d="M 3263 -1063 
L 3263 -1509 
L -63 -1509 
L -63 -1063 
L 3263 -1063 
z
" transform="scale(0.015625)"/>
     </defs>
     <use xlink:href="#DejaVuSans-63"/>
     <use xlink:href="#DejaVuSans-76" transform="translate(54.980469 0)"/>
     <use xlink:href="#DejaVuSans-78" transform="translate(114.160156 0)"/>
     <use xlink:href="#DejaVuSans-45" transform="translate(173.339844 0)"/>
     <use xlink:href="#DejaVuSans-44" transform="translate(236.523438 0)"/>
     <use xlink:href="#DejaVuSans-41" transform="translate(311.775391 0)"/>
     <use xlink:href="#DejaVuSans-20" transform="translate(380.183594 0)"/>
     <use xlink:href="#DejaVuSans-28" transform="translate(411.970703 0)"/>
     <use xlink:href="#DejaVuSans-3c3" transform="translate(450.984375 0)"/>
     <use xlink:href="#DejaVuSans-3d" transform="translate(514.363281 0)"/>
     <use xlink:href="#DejaVuSans-30" transform="translate(598.152344 0)"/>
     <use xlink:href="#DejaVuSans-2e" transform="translate(661.775391 0)"/>
     <use xlink:href="#DejaVuSans-34" transform="translate(693.5625 0)"/>
     <use xlink:href="#DejaVuSans-73" transform="translate(757.185547 0)"/>
     <use xlink:href="#DejaVuSans-20" transform="translate(809.285156 0)"/>
     <use xlink:href="#DejaVuSans-20" transform="translate(841.072266 0)"/>
     <use xlink:href="#DejaVuSans-64" transform="translate(872.859375 0)"/>
     <use xlink:href="#DejaVuSans-61" transform="translate(936.335938 0)"/>
     <use xlink:href="#DejaVuSans-74" transform="translate(997.615234 0)"/>
     <use xlink:href="#DejaVuSans-61" transform="translate(1036.824219 0)"/>
     <use xlink:href="#DejaVuSans-5f" transform="translate(1098.103516 0)"/>
     <use xlink:href="#DejaVuSans-34" transform="translate(1148.103516 0)"/>
     <use xlink:href="#DejaVuSans-5f" transform="translate(1211.726562 0)"/>
     <use xlink:href="#DejaVuSans-45" transform="translate(1261.726562 0)"/>
     <use xlink:href="#DejaVuSans-34" transform="translate(1324.910156 0)"/>
     <use xlink:href="#DejaVuSans-29" transform="translate(1388.533203 0)"/>
    </g>
   </g>
   <g id="legend_1">
    <g id="patch_7">
     <path d="M 53.64 77.474375 
L 146.54625 77.474375 
Q 148.54625 77.474375 148.54625 75.474375 
L 148.54625 32.44 
Q 148.54625 30.44 146.54625 30.44 
L 53.64 30.44 
Q 51.64 30.44 51.64 32.44 
L 51.64 75.474375 
Q 51.64 77.474375 53.64 77.474375 
z
" style="fill: #ffffff; opacity: 0.8; stroke: #cccccc; stroke-linejoin: miter"/>
    </g>
    <g id="line2d_32">
     <path d="M 55.64 38.538437 
L 65.64 38.538437 
L 75.64 38.538437 
" style="fill: none; stroke-dasharray: 1.85,0.8; stroke-dashoffset: 0; stroke: #1f77b4; stroke-width: 0.5"/>
    </g>
    <g id="text_18">
     <!-- Filtered EDA -->
     <g transform="translate(83.64 42.038437) scale(0.1 -0.1)">
      <defs>
       <path id="DejaVuSans-46" d="M 628 4666 
L 3309 4666 
L 3309 4134 
L 1259 4134 
L 1259 2759 
L 3109 2759 
L 3109 2228 
L 1259 2228 
L 1259 0 
L 628 0 
L 628 4666 
z
" transform="scale(0.015625)"/>
       <path id="DejaVuSans-72" d="M 2631 2963 
Q 2534 3019 2420 3045 
Q 2306 3072 2169 3072 
Q 1681 3072 1420 2755 
Q 1159 2438 1159 1844 
L 1159 0 
L 581 0 
L 581 3500 
L 1159 3500 
L 1159 2956 
Q 1341 3275 1631 3429 
Q 1922 3584 2338 3584 
Q 2397 3584 2469 3576 
Q 2541 3569 2628 3553 
L 2631 2963 
z
" transform="scale(0.015625)"/>
      </defs>
      <use xlink:href="#DejaVuSans-46"/>
      <use xlink:href="#DejaVuSans-69" transform="translate(50.269531 0)"/>
      <use xlink:href="#DejaVuSans-6c" transform="translate(78.052734 0)"/>
      <use xlink:href="#DejaVuSans-74" transform="translate(105.835938 0)"/>
      <use xlink:href="#DejaVuSans-65" transform="translate(145.044922 0)"/>
      <use xlink:href="#DejaVuSans-72" transform="translate(206.568359 0)"/>
      <use xlink:href="#DejaVuSans-65" transform="translate(245.431641 0)"/>
      <use xlink:href="#DejaVuSans-64" transform="translate(306.955078 0)"/>
      <use xlink:href="#DejaVuSans-20" transform="translate(370.431641 0)"/>
      <use xlink:href="#DejaVuSans-45" transform="translate(402.21875 0)"/>
      <use xlink:href="#DejaVuSans-44" transform="translate(465.402344 0)"/>
      <use xlink:href="#DejaVuSans-41" transform="translate(540.654297 0)"/>
     </g>
    </g>
    <g id="line2d_33">
     <path d="M 55.64 53.216562 
L 65.64 53.216562 
L 75.64 53.216562 
" style="fill: none; stroke: #ff7f0e; stroke-width: 0.5; stroke-linecap: square"/>
    </g>
    <g id="text_19">
     <!-- Tonic -->
     <g transform="translate(83.64 56.716562) scale(0.1 -0.1)">
      <defs>
       <path id="DejaVuSans-6f" d="M 1959 3097 
Q 1497 3097 1228 2736 
Q 959 2375 959 1747 
Q 959 1119 1226 758 
Q 1494 397 1959 397 
Q 2419 397 2687 759 
Q 2956 1122 2956 1747 
Q 2956 2369 2687 2733 
Q 2419 3097 1959 3097 
z
M 1959 3584 
Q 2709 3584 3137 3096 
Q 3566 2609 3566 1747 
Q 3566 888 3137 398 
Q 2709 -91 1959 -91 
Q 1206 -91 779 398 
Q 353 888 353 1747 
Q 353 2609 779 3096 
Q 1206 3584 1959 3584 
z
" transform="scale(0.015625)"/>
      </defs>
      <use xlink:href="#DejaVuSans-54"/>
      <use xlink:href="#DejaVuSans-6f" transform="translate(44.083984 0)"/>
      <use xlink:href="#DejaVuSans-6e" transform="translate(105.265625 0)"/>
      <use xlink:href="#DejaVuSans-69" transform="translate(168.644531 0)"/>
      <use xlink:href="#DejaVuSans-63" transform="translate(196.427734 0)"/>
     </g>
    </g>
    <g id="line2d_34">
     <path d="M 55.64 67.894687 
L 65.64 67.894687 
L 75.64 67.894687 
" style="fill: none; stroke: #2ca02c; stroke-width: 0.5; stroke-linecap: square"/>
    </g>
    <g id="text_20">
     <!-- Phasic -->
     <g transform="translate(83.64 71.394687) scale(0.1 -0.1)">
      <defs>
       <path id="DejaVuSans-50" d="M 1259 4147 
L 1259 2394 
L 2053 2394 
Q 2494 2394 2734 2622 
Q 2975 2850 2975 3272 
Q 2975 3691 2734 3919 
Q 2494 4147 2053 4147 
L 1259 4147 
z
M 628 4666 
L 2053 4666 
Q 2838 4666 3239 4311 
Q 3641 3956 3641 3272 
Q 3641 2581 3239 2228 
Q 2838 1875 2053 1875 
L 1259 1875 
L 1259 0 
L 628 0 
L 628 4666 
z
" transform="scale(0.015625)"/>
       <path id="DejaVuSans-68" d="M 3513 2113 
L 3513 0 
L 2938 0 
L 2938 2094 
Q 2938 2591 2744 2837 
Q 2550 3084 2163 3084 
Q 1697 3084 1428 2787 
Q 1159 2491 1159 1978 
L 1159 0 
L 581 0 
L 581 4863 
L 1159 4863 
L 1159 2956 
Q 1366 3272 1645 3428 
Q 1925 3584 2291 3584 
Q 2894 3584 3203 3211 
Q 3513 2838 3513 2113 
z
" transform="scale(0.015625)"/>
      </defs>
      <use xlink:href="#DejaVuSans-50"/>
      <use xlink:href="#DejaVuSans-68" transform="translate(60.302734 0)"/>
      <use xlink:href="#DejaVuSans-61" transform="translate(123.681641 0)"/>
      <use xlink:href="#DejaVuSans-73" transform="translate(184.960938 0)"/>
      <use xlink:href="#DejaVuSans-69" transform="translate(237.060547 0)"/>
      <use xlink:href="#DejaVuSans-63" transform="translate(264.84375 0)"/>
     </g>
    </g>
   </g>
  </g>
 </g>
 <defs>
  <clipPath id="pc99b6d3fa8">
   <rect x="46.64" y="25.44" width="403.36" height="278.2"/>
  </clipPath>
 </defs>
</svg>
