<?xml version="1.0" encoding="utf-8" standalone="no"?>
<!DOCTYPE svg PUBLIC "-//W3C//DTD SVG 1.1//EN"
  "http://www.w3.org/Graphics/SVG/1.1/DTD/svg11.dtd">
<svg xmlns:xlink="http://www.w3.org/1999/xlink" width="460.8pt" height="345.6pt" viewBox="0 0 460.8 345.6" xmlns="http://www.w3.org/2000/svg" version="1.1">
 <metadata>
  <rdf:RDF xmlns:dc="http://purl.org/dc/elements/1.1/" xmlns:cc="http://creativecommons.org/ns#" xmlns:rdf="http://www.w3.org/1999/02/22-rdf-syntax-ns#">
   <cc:Work>
    <dc:type rdf:resource="http://purl.org/dc/dcmitype/StillImage"/>
    <dc:date>2025-09-22T15:39:28.056228</dc:date>
    <dc:format>image/svg+xml</dc:format>
    <dc:creator>
     <cc:Agent>
      <dc:title>Matplotlib v3.10.0, https://matplotlib.org/</dc:title>
     </cc:Agent>
    </dc:creator>
   </cc:Work>
  </rdf:RDF>
 </metadata>
 <defs>
  <style type="text/css">*{stroke-linejoin: round; stroke-linecap: butt}</style>
 </defs>
 <g id="figure_1">
  <g id="patch_1">
   <path d="M 0 345.6 
L 460.8 345.6 
L 460.8 0 
L 0 0 
z
" style="fill: #ffffff"/>
  </g>
  <g id="axes_1">
   <g id="patch_2">
    <path d="M 38.27 303.64 
L 450 303.64 
L 450 25.44 
L 38.27 25.44 
z
" style="fill: #ffffff"/>
   </g>
   <g id="matplotlib.axis_1">
    <g id="xtick_1">
     <g id="line2d_1">
      <path d="M 56.985 303.64 
L 56.985 25.44 
" clip-path="url(#p462914a755)" style="fill: none; stroke: #b0b0b0; stroke-opacity: 0.3; stroke-width: 0.8; stroke-linecap: square"/>
     </g>
     <g id="line2d_2">
      <defs>
       <path id="m656c4fc876" d="M 0 0 
L 0 3.5 
" style="stroke: #000000; stroke-width: 0.8"/>
      </defs>
      <g>
       <use xlink:href="#m656c4fc876" x="56.985" y="303.64" style="stroke: #000000; stroke-width: 0.8"/>
      </g>
     </g>
     <g id="text_1">
      <!-- 0 -->
      <g transform="translate(53.80375 318.238437) scale(0.1 -0.1)">
       <defs>
        <path id="DejaVuSans-30" d="M 2034 4250 
Q 1547 4250 1301 3770 
Q 1056 3291 1056 2328 
Q 1056 1369 1301 889 
Q 1547 409 2034 409 
Q 2525 409 2770 889 
Q 3016 1369 3016 2328 
Q 3016 3291 2770 3770 
Q 2525 4250 2034 4250 
z
M 2034 4750 
Q 2819 4750 3233 4129 
Q 3647 3509 3647 2328 
Q 3647 1150 3233 529 
Q 2819 -91 2034 -91 
Q 1250 -91 836 529 
Q 422 1150 422 2328 
Q 422 3509 836 4129 
Q 1250 4750 2034 4750 
z
" transform="scale(0.015625)"/>
       </defs>
       <use xlink:href="#DejaVuSans-30"/>
      </g>
     </g>
    </g>
    <g id="xtick_2">
     <g id="line2d_3">
      <path d="M 106.891667 303.64 
L 106.891667 25.44 
" clip-path="url(#p462914a755)" style="fill: none; stroke: #b0b0b0; stroke-opacity: 0.3; stroke-width: 0.8; stroke-linecap: square"/>
     </g>
     <g id="line2d_4">
      <g>
       <use xlink:href="#m656c4fc876" x="106.891667" y="303.64" style="stroke: #000000; stroke-width: 0.8"/>
      </g>
     </g>
     <g id="text_2">
      <!-- 2 -->
      <g transform="translate(103.710417 318.238437) scale(0.1 -0.1)">
       <defs>
        <path id="DejaVuSans-32" d="M 1228 531 
L 3431 531 
L 3431 0 
L 469 0 
L 469 531 
Q 828 903 1448 1529 
Q 2069 2156 2228 2338 
Q 2531 2678 2651 2914 
Q 2772 3150 2772 3378 
Q 2772 3750 2511 3984 
Q 2250 4219 1831 4219 
Q 1534 4219 1204 4116 
Q 875 4013 500 3803 
L 500 4441 
Q 881 4594 1212 4672 
Q 1544 4750 1819 4750 
Q 2544 4750 2975 4387 
Q 3406 4025 3406 3419 
Q 3406 3131 3298 2873 
Q 3191 2616 2906 2266 
Q 2828 2175 2409 1742 
Q 1991 1309 1228 531 
z
" transform="scale(0.015625)"/>
       </defs>
       <use xlink:href="#DejaVuSans-32"/>
      </g>
     </g>
    </g>
    <g id="xtick_3">
     <g id="line2d_5">
      <path d="M 156.798333 303.64 
L 156.798333 25.44 
" clip-path="url(#p462914a755)" style="fill: none; stroke: #b0b0b0; stroke-opacity: 0.3; stroke-width: 0.8; stroke-linecap: square"/>
     </g>
     <g id="line2d_6">
      <g>
       <use xlink:href="#m656c4fc876" x="156.798333" y="303.64" style="stroke: #000000; stroke-width: 0.8"/>
      </g>
     </g>
     <g id="text_3">
      <!-- 4 -->
      <g transform="translate(153.617083 318.238437) scale(0.1 -0.1)">
       <defs>
        <path id="DejaVuSans-34" d="M 2419 4116 
L 825 1625 
L 2419 1625 
L 2419 4116 
z
M 2253 4666 
L 3047 4666 
L 3047 1625 
L 3713 1625 
L 3713 1100 
L 3047 1100 
L 3047 0 
L 2419 0 
L 2419 1100 
L 313 1100 
L 313 1709 
L 2253 4666 
z
" transform="scale(0.015625)"/>
       </defs>
       <use xlink:href="#DejaVuSans-34"/>
      </g>
     </g>
    </g>
    <g id="xtick_4">
     <g id="line2d_7">
      <path d="M 206.705 303.64 
L 206.705 25.44 
" clip-path="url(#p462914a755)" style="fill: none; stroke: #b0b0b0; stroke-opacity: 0.3; stroke-width: 0.8; stroke-linecap: square"/>
     </g>
     <g id="line2d_8">
      <g>
       <use xlink:href="#m656c4fc876" x="206.705" y="303.64" style="stroke: #000000; stroke-width: 0.8"/>
      </g>
     </g>
     <g id="text_4">
      <!-- 6 -->
      <g transform="translate(203.52375 318.238437) scale(0.1 -0.1)">
       <defs>
        <path id="DejaVuSans-36" d="M 2113 2584 
Q 1688 2584 1439 2293 
Q 1191 2003 1191 1497 
Q 1191 994 1439 701 
Q 1688 409 2113 409 
Q 2538 409 2786 701 
Q 3034 994 3034 1497 
Q 3034 2003 2786 2293 
Q 2538 2584 2113 2584 
z
M 3366 4563 
L 3366 3988 
Q 3128 4100 2886 4159 
Q 2644 4219 2406 4219 
Q 1781 4219 1451 3797 
Q 1122 3375 1075 2522 
Q 1259 2794 1537 2939 
Q 1816 3084 2150 3084 
Q 2853 3084 3261 2657 
Q 3669 2231 3669 1497 
Q 3669 778 3244 343 
Q 2819 -91 2113 -91 
Q 1303 -91 875 529 
Q 447 1150 447 2328 
Q 447 3434 972 4092 
Q 1497 4750 2381 4750 
Q 2619 4750 2861 4703 
Q 3103 4656 3366 4563 
z
" transform="scale(0.015625)"/>
       </defs>
       <use xlink:href="#DejaVuSans-36"/>
      </g>
     </g>
    </g>
    <g id="xtick_5">
     <g id="line2d_9">
      <path d="M 256.611667 303.64 
L 256.611667 25.44 
" clip-path="url(#p462914a755)" style="fill: none; stroke: #b0b0b0; stroke-opacity: 0.3; stroke-width: 0.8; stroke-linecap: square"/>
     </g>
     <g id="line2d_10">
      <g>
       <use xlink:href="#m656c4fc876" x="256.611667" y="303.64" style="stroke: #000000; stroke-width: 0.8"/>
      </g>
     </g>
     <g id="text_5">
      <!-- 8 -->
      <g transform="translate(253.430417 318.238437) scale(0.1 -0.1)">
       <defs>
        <path id="DejaVuSans-38" d="M 2034 2216 
Q 1584 2216 1326 1975 
Q 1069 1734 1069 1313 
Q 1069 891 1326 650 
Q 1584 409 2034 409 
Q 2484 409 2743 651 
Q 3003 894 3003 1313 
Q 3003 1734 2745 1975 
Q 2488 2216 2034 2216 
z
M 1403 2484 
Q 997 2584 770 2862 
Q 544 3141 544 3541 
Q 544 4100 942 4425 
Q 1341 4750 2034 4750 
Q 2731 4750 3128 4425 
Q 3525 4100 3525 3541 
Q 3525 3141 3298 2862 
Q 3072 2584 2669 2484 
Q 3125 2378 3379 2068 
Q 3634 1759 3634 1313 
Q 3634 634 3220 271 
Q 2806 -91 2034 -91 
Q 1263 -91 848 271 
Q 434 634 434 1313 
Q 434 1759 690 2068 
Q 947 2378 1403 2484 
z
M 1172 3481 
Q 1172 3119 1398 2916 
Q 1625 2713 2034 2713 
Q 2441 2713 2670 2916 
Q 2900 3119 2900 3481 
Q 2900 3844 2670 4047 
Q 2441 4250 2034 4250 
Q 1625 4250 1398 4047 
Q 1172 3844 1172 3481 
z
" transform="scale(0.015625)"/>
       </defs>
       <use xlink:href="#DejaVuSans-38"/>
      </g>
     </g>
    </g>
    <g id="xtick_6">
     <g id="line2d_11">
      <path d="M 306.518333 303.64 
L 306.518333 25.44 
" clip-path="url(#p462914a755)" style="fill: none; stroke: #b0b0b0; stroke-opacity: 0.3; stroke-width: 0.8; stroke-linecap: square"/>
     </g>
     <g id="line2d_12">
      <g>
       <use xlink:href="#m656c4fc876" x="306.518333" y="303.64" style="stroke: #000000; stroke-width: 0.8"/>
      </g>
     </g>
     <g id="text_6">
      <!-- 10 -->
      <g transform="translate(300.155833 318.238437) scale(0.1 -0.1)">
       <defs>
        <path id="DejaVuSans-31" d="M 794 531 
L 1825 531 
L 1825 4091 
L 703 3866 
L 703 4441 
L 1819 4666 
L 2450 4666 
L 2450 531 
L 3481 531 
L 3481 0 
L 794 0 
L 794 531 
z
" transform="scale(0.015625)"/>
       </defs>
       <use xlink:href="#DejaVuSans-31"/>
       <use xlink:href="#DejaVuSans-30" transform="translate(63.623047 0)"/>
      </g>
     </g>
    </g>
    <g id="xtick_7">
     <g id="line2d_13">
      <path d="M 356.425 303.64 
L 356.425 25.44 
" clip-path="url(#p462914a755)" style="fill: none; stroke: #b0b0b0; stroke-opacity: 0.3; stroke-width: 0.8; stroke-linecap: square"/>
     </g>
     <g id="line2d_14">
      <g>
       <use xlink:href="#m656c4fc876" x="356.425" y="303.64" style="stroke: #000000; stroke-width: 0.8"/>
      </g>
     </g>
     <g id="text_7">
      <!-- 12 -->
      <g transform="translate(350.0625 318.238437) scale(0.1 -0.1)">
       <use xlink:href="#DejaVuSans-31"/>
       <use xlink:href="#DejaVuSans-32" transform="translate(63.623047 0)"/>
      </g>
     </g>
    </g>
    <g id="xtick_8">
     <g id="line2d_15">
      <path d="M 406.331667 303.64 
L 406.331667 25.44 
" clip-path="url(#p462914a755)" style="fill: none; stroke: #b0b0b0; stroke-opacity: 0.3; stroke-width: 0.8; stroke-linecap: square"/>
     </g>
     <g id="line2d_16">
      <g>
       <use xlink:href="#m656c4fc876" x="406.331667" y="303.64" style="stroke: #000000; stroke-width: 0.8"/>
      </g>
     </g>
     <g id="text_8">
      <!-- 14 -->
      <g transform="translate(399.969167 318.238437) scale(0.1 -0.1)">
       <use xlink:href="#DejaVuSans-31"/>
       <use xlink:href="#DejaVuSans-34" transform="translate(63.623047 0)"/>
      </g>
     </g>
    </g>
    <g id="text_9">
     <!-- Time (minutes) -->
     <g transform="translate(206.1725 331.916562) scale(0.1 -0.1)">
      <defs>
       <path id="DejaVuSans-54" d="M -19 4666 
L 3928 4666 
L 3928 4134 
L 2272 4134 
L 2272 0 
L 1638 0 
L 1638 4134 
L -19 4134 
L -19 4666 
z
" transform="scale(0.015625)"/>
       <path id="DejaVuSans-69" d="M 603 3500 
L 1178 3500 
L 1178 0 
L 603 0 
L 603 3500 
z
M 603 4863 
L 1178 4863 
L 1178 4134 
L 603 4134 
L 603 4863 
z
" transform="scale(0.015625)"/>
       <path id="DejaVuSans-6d" d="M 3328 2828 
Q 3544 3216 3844 3400 
Q 4144 3584 4550 3584 
Q 5097 3584 5394 3201 
Q 5691 2819 5691 2113 
L 5691 0 
L 5113 0 
L 5113 2094 
Q 5113 2597 4934 2840 
Q 4756 3084 4391 3084 
Q 3944 3084 3684 2787 
Q 3425 2491 3425 1978 
L 3425 0 
L 2847 0 
L 2847 2094 
Q 2847 2600 2669 2842 
Q 2491 3084 2119 3084 
Q 1678 3084 1418 2786 
Q 1159 2488 1159 1978 
L 1159 0 
L 581 0 
L 581 3500 
L 1159 3500 
L 1159 2956 
Q 1356 3278 1631 3431 
Q 1906 3584 2284 3584 
Q 2666 3584 2933 3390 
Q 3200 3197 3328 2828 
z
" transform="scale(0.015625)"/>
       <path id="DejaVuSans-65" d="M 3597 1894 
L 3597 1613 
L 953 1613 
Q 991 1019 1311 708 
Q 1631 397 2203 397 
Q 2534 397 2845 478 
Q 3156 559 3463 722 
L 3463 178 
Q 3153 47 2828 -22 
Q 2503 -91 2169 -91 
Q 1331 -91 842 396 
Q 353 884 353 1716 
Q 353 2575 817 3079 
Q 1281 3584 2069 3584 
Q 2775 3584 3186 3129 
Q 3597 2675 3597 1894 
z
M 3022 2063 
Q 3016 2534 2758 2815 
Q 2500 3097 2075 3097 
Q 1594 3097 1305 2825 
Q 1016 2553 972 2059 
L 3022 2063 
z
" transform="scale(0.015625)"/>
       <path id="DejaVuSans-20" transform="scale(0.015625)"/>
       <path id="DejaVuSans-28" d="M 1984 4856 
Q 1566 4138 1362 3434 
Q 1159 2731 1159 2009 
Q 1159 1288 1364 580 
Q 1569 -128 1984 -844 
L 1484 -844 
Q 1016 -109 783 600 
Q 550 1309 550 2009 
Q 550 2706 781 3412 
Q 1013 4119 1484 4856 
L 1984 4856 
z
" transform="scale(0.015625)"/>
       <path id="DejaVuSans-6e" d="M 3513 2113 
L 3513 0 
L 2938 0 
L 2938 2094 
Q 2938 2591 2744 2837 
Q 2550 3084 2163 3084 
Q 1697 3084 1428 2787 
Q 1159 2491 1159 1978 
L 1159 0 
L 581 0 
L 581 3500 
L 1159 3500 
L 1159 2956 
Q 1366 3272 1645 3428 
Q 1925 3584 2291 3584 
Q 2894 3584 3203 3211 
Q 3513 2838 3513 2113 
z
" transform="scale(0.015625)"/>
       <path id="DejaVuSans-75" d="M 544 1381 
L 544 3500 
L 1119 3500 
L 1119 1403 
Q 1119 906 1312 657 
Q 1506 409 1894 409 
Q 2359 409 2629 706 
Q 2900 1003 2900 1516 
L 2900 3500 
L 3475 3500 
L 3475 0 
L 2900 0 
L 2900 538 
Q 2691 219 2414 64 
Q 2138 -91 1772 -91 
Q 1169 -91 856 284 
Q 544 659 544 1381 
z
M 1991 3584 
L 1991 3584 
z
" transform="scale(0.015625)"/>
       <path id="DejaVuSans-74" d="M 1172 4494 
L 1172 3500 
L 2356 3500 
L 2356 3053 
L 1172 3053 
L 1172 1153 
Q 1172 725 1289 603 
Q 1406 481 1766 481 
L 2356 481 
L 2356 0 
L 1766 0 
Q 1100 0 847 248 
Q 594 497 594 1153 
L 594 3053 
L 172 3053 
L 172 3500 
L 594 3500 
L 594 4494 
L 1172 4494 
z
" transform="scale(0.015625)"/>
       <path id="DejaVuSans-73" d="M 2834 3397 
L 2834 2853 
Q 2591 2978 2328 3040 
Q 2066 3103 1784 3103 
Q 1356 3103 1142 2972 
Q 928 2841 928 2578 
Q 928 2378 1081 2264 
Q 1234 2150 1697 2047 
L 1894 2003 
Q 2506 1872 2764 1633 
Q 3022 1394 3022 966 
Q 3022 478 2636 193 
Q 2250 -91 1575 -91 
Q 1294 -91 989 -36 
Q 684 19 347 128 
L 347 722 
Q 666 556 975 473 
Q 1284 391 1588 391 
Q 1994 391 2212 530 
Q 2431 669 2431 922 
Q 2431 1156 2273 1281 
Q 2116 1406 1581 1522 
L 1381 1569 
Q 847 1681 609 1914 
Q 372 2147 372 2553 
Q 372 3047 722 3315 
Q 1072 3584 1716 3584 
Q 2034 3584 2315 3537 
Q 2597 3491 2834 3397 
z
" transform="scale(0.015625)"/>
       <path id="DejaVuSans-29" d="M 513 4856 
L 1013 4856 
Q 1481 4119 1714 3412 
Q 1947 2706 1947 2009 
Q 1947 1309 1714 600 
Q 1481 -109 1013 -844 
L 513 -844 
Q 928 -128 1133 580 
Q 1338 1288 1338 2009 
Q 1338 2731 1133 3434 
Q 928 4138 513 4856 
z
" transform="scale(0.015625)"/>
      </defs>
      <use xlink:href="#DejaVuSans-54"/>
      <use xlink:href="#DejaVuSans-69" transform="translate(57.958984 0)"/>
      <use xlink:href="#DejaVuSans-6d" transform="translate(85.742188 0)"/>
      <use xlink:href="#DejaVuSans-65" transform="translate(183.154297 0)"/>
      <use xlink:href="#DejaVuSans-20" transform="translate(244.677734 0)"/>
      <use xlink:href="#DejaVuSans-28" transform="translate(276.464844 0)"/>
      <use xlink:href="#DejaVuSans-6d" transform="translate(315.478516 0)"/>
      <use xlink:href="#DejaVuSans-69" transform="translate(412.890625 0)"/>
      <use xlink:href="#DejaVuSans-6e" transform="translate(440.673828 0)"/>
      <use xlink:href="#DejaVuSans-75" transform="translate(504.052734 0)"/>
      <use xlink:href="#DejaVuSans-74" transform="translate(567.431641 0)"/>
      <use xlink:href="#DejaVuSans-65" transform="translate(606.640625 0)"/>
      <use xlink:href="#DejaVuSans-73" transform="translate(668.164062 0)"/>
      <use xlink:href="#DejaVuSans-29" transform="translate(720.263672 0)"/>
     </g>
    </g>
   </g>
   <g id="matplotlib.axis_2">
    <g id="ytick_1">
     <g id="line2d_17">
      <path d="M 38.27 281.14984 
L 450 281.14984 
" clip-path="url(#p462914a755)" style="fill: none; stroke: #b0b0b0; stroke-opacity: 0.3; stroke-width: 0.8; stroke-linecap: square"/>
     </g>
     <g id="line2d_18">
      <defs>
       <path id="m8aeee5aee3" d="M 0 0 
L -3.5 0 
" style="stroke: #000000; stroke-width: 0.8"/>
      </defs>
      <g>
       <use xlink:href="#m8aeee5aee3" x="38.27" y="281.14984" style="stroke: #000000; stroke-width: 0.8"/>
      </g>
     </g>
     <g id="text_10">
      <!-- 0 -->
      <g transform="translate(24.9075 284.949058) scale(0.1 -0.1)">
       <use xlink:href="#DejaVuSans-30"/>
      </g>
     </g>
    </g>
    <g id="ytick_2">
     <g id="line2d_19">
      <path d="M 38.27 220.015407 
L 450 220.015407 
" clip-path="url(#p462914a755)" style="fill: none; stroke: #b0b0b0; stroke-opacity: 0.3; stroke-width: 0.8; stroke-linecap: square"/>
     </g>
     <g id="line2d_20">
      <g>
       <use xlink:href="#m8aeee5aee3" x="38.27" y="220.015407" style="stroke: #000000; stroke-width: 0.8"/>
      </g>
     </g>
     <g id="text_11">
      <!-- 1 -->
      <g transform="translate(24.9075 223.814626) scale(0.1 -0.1)">
       <use xlink:href="#DejaVuSans-31"/>
      </g>
     </g>
    </g>
    <g id="ytick_3">
     <g id="line2d_21">
      <path d="M 38.27 158.880975 
L 450 158.880975 
" clip-path="url(#p462914a755)" style="fill: none; stroke: #b0b0b0; stroke-opacity: 0.3; stroke-width: 0.8; stroke-linecap: square"/>
     </g>
     <g id="line2d_22">
      <g>
       <use xlink:href="#m8aeee5aee3" x="38.27" y="158.880975" style="stroke: #000000; stroke-width: 0.8"/>
      </g>
     </g>
     <g id="text_12">
      <!-- 2 -->
      <g transform="translate(24.9075 162.680193) scale(0.1 -0.1)">
       <use xlink:href="#DejaVuSans-32"/>
      </g>
     </g>
    </g>
    <g id="ytick_4">
     <g id="line2d_23">
      <path d="M 38.27 97.746542 
L 450 97.746542 
" clip-path="url(#p462914a755)" style="fill: none; stroke: #b0b0b0; stroke-opacity: 0.3; stroke-width: 0.8; stroke-linecap: square"/>
     </g>
     <g id="line2d_24">
      <g>
       <use xlink:href="#m8aeee5aee3" x="38.27" y="97.746542" style="stroke: #000000; stroke-width: 0.8"/>
      </g>
     </g>
     <g id="text_13">
      <!-- 3 -->
      <g transform="translate(24.9075 101.545761) scale(0.1 -0.1)">
       <defs>
        <path id="DejaVuSans-33" d="M 2597 2516 
Q 3050 2419 3304 2112 
Q 3559 1806 3559 1356 
Q 3559 666 3084 287 
Q 2609 -91 1734 -91 
Q 1441 -91 1130 -33 
Q 819 25 488 141 
L 488 750 
Q 750 597 1062 519 
Q 1375 441 1716 441 
Q 2309 441 2620 675 
Q 2931 909 2931 1356 
Q 2931 1769 2642 2001 
Q 2353 2234 1838 2234 
L 1294 2234 
L 1294 2753 
L 1863 2753 
Q 2328 2753 2575 2939 
Q 2822 3125 2822 3475 
Q 2822 3834 2567 4026 
Q 2313 4219 1838 4219 
Q 1578 4219 1281 4162 
Q 984 4106 628 3988 
L 628 4550 
Q 988 4650 1302 4700 
Q 1616 4750 1894 4750 
Q 2613 4750 3031 4423 
Q 3450 4097 3450 3541 
Q 3450 3153 3228 2886 
Q 3006 2619 2597 2516 
z
" transform="scale(0.015625)"/>
       </defs>
       <use xlink:href="#DejaVuSans-33"/>
      </g>
     </g>
    </g>
    <g id="ytick_5">
     <g id="line2d_25">
      <path d="M 38.27 36.61211 
L 450 36.61211 
" clip-path="url(#p462914a755)" style="fill: none; stroke: #b0b0b0; stroke-opacity: 0.3; stroke-width: 0.8; stroke-linecap: square"/>
     </g>
     <g id="line2d_26">
      <g>
       <use xlink:href="#m8aeee5aee3" x="38.27" y="36.61211" style="stroke: #000000; stroke-width: 0.8"/>
      </g>
     </g>
     <g id="text_14">
      <!-- 4 -->
      <g transform="translate(24.9075 40.411328) scale(0.1 -0.1)">
       <use xlink:href="#DejaVuSans-34"/>
      </g>
     </g>
    </g>
    <g id="text_15">
     <!-- EDA signals (μS) -->
     <g transform="translate(18.827813 205.711875) rotate(-90) scale(0.1 -0.1)">
      <defs>
       <path id="DejaVuSans-45" d="M 628 4666 
L 3578 4666 
L 3578 4134 
L 1259 4134 
L 1259 2753 
L 3481 2753 
L 3481 2222 
L 1259 2222 
L 1259 531 
L 3634 531 
L 3634 0 
L 628 0 
L 628 4666 
z
" transform="scale(0.015625)"/>
       <path id="DejaVuSans-44" d="M 1259 4147 
L 1259 519 
L 2022 519 
Q 2988 519 3436 956 
Q 3884 1394 3884 2338 
Q 3884 3275 3436 3711 
Q 2988 4147 2022 4147 
L 1259 4147 
z
M 628 4666 
L 1925 4666 
Q 3281 4666 3915 4102 
Q 4550 3538 4550 2338 
Q 4550 1131 3912 565 
Q 3275 0 1925 0 
L 628 0 
L 628 4666 
z
" transform="scale(0.015625)"/>
       <path id="DejaVuSans-41" d="M 2188 4044 
L 1331 1722 
L 3047 1722 
L 2188 4044 
z
M 1831 4666 
L 2547 4666 
L 4325 0 
L 3669 0 
L 3244 1197 
L 1141 1197 
L 716 0 
L 50 0 
L 1831 4666 
z
" transform="scale(0.015625)"/>
       <path id="DejaVuSans-67" d="M 2906 1791 
Q 2906 2416 2648 2759 
Q 2391 3103 1925 3103 
Q 1463 3103 1205 2759 
Q 947 2416 947 1791 
Q 947 1169 1205 825 
Q 1463 481 1925 481 
Q 2391 481 2648 825 
Q 2906 1169 2906 1791 
z
M 3481 434 
Q 3481 -459 3084 -895 
Q 2688 -1331 1869 -1331 
Q 1566 -1331 1297 -1286 
Q 1028 -1241 775 -1147 
L 775 -588 
Q 1028 -725 1275 -790 
Q 1522 -856 1778 -856 
Q 2344 -856 2625 -561 
Q 2906 -266 2906 331 
L 2906 616 
Q 2728 306 2450 153 
Q 2172 0 1784 0 
Q 1141 0 747 490 
Q 353 981 353 1791 
Q 353 2603 747 3093 
Q 1141 3584 1784 3584 
Q 2172 3584 2450 3431 
Q 2728 3278 2906 2969 
L 2906 3500 
L 3481 3500 
L 3481 434 
z
" transform="scale(0.015625)"/>
       <path id="DejaVuSans-61" d="M 2194 1759 
Q 1497 1759 1228 1600 
Q 959 1441 959 1056 
Q 959 750 1161 570 
Q 1363 391 1709 391 
Q 2188 391 2477 730 
Q 2766 1069 2766 1631 
L 2766 1759 
L 2194 1759 
z
M 3341 1997 
L 3341 0 
L 2766 0 
L 2766 531 
Q 2569 213 2275 61 
Q 1981 -91 1556 -91 
Q 1019 -91 701 211 
Q 384 513 384 1019 
Q 384 1609 779 1909 
Q 1175 2209 1959 2209 
L 2766 2209 
L 2766 2266 
Q 2766 2663 2505 2880 
Q 2244 3097 1772 3097 
Q 1472 3097 1187 3025 
Q 903 2953 641 2809 
L 641 3341 
Q 956 3463 1253 3523 
Q 1550 3584 1831 3584 
Q 2591 3584 2966 3190 
Q 3341 2797 3341 1997 
z
" transform="scale(0.015625)"/>
       <path id="DejaVuSans-6c" d="M 603 4863 
L 1178 4863 
L 1178 0 
L 603 0 
L 603 4863 
z
" transform="scale(0.015625)"/>
       <path id="DejaVuSans-3bc" d="M 544 -1331 
L 544 3500 
L 1119 3500 
L 1119 1325 
Q 1119 872 1334 640 
Q 1550 409 1972 409 
Q 2434 409 2667 671 
Q 2900 934 2900 1459 
L 2900 3500 
L 3475 3500 
L 3475 806 
Q 3475 619 3529 530 
Q 3584 441 3700 441 
Q 3728 441 3778 458 
Q 3828 475 3916 513 
L 3916 50 
Q 3788 -22 3673 -56 
Q 3559 -91 3450 -91 
Q 3234 -91 3106 31 
Q 2978 153 2931 403 
Q 2775 156 2548 32 
Q 2322 -91 2016 -91 
Q 1697 -91 1473 31 
Q 1250 153 1119 397 
L 1119 -1331 
L 544 -1331 
z
" transform="scale(0.015625)"/>
       <path id="DejaVuSans-53" d="M 3425 4513 
L 3425 3897 
Q 3066 4069 2747 4153 
Q 2428 4238 2131 4238 
Q 1616 4238 1336 4038 
Q 1056 3838 1056 3469 
Q 1056 3159 1242 3001 
Q 1428 2844 1947 2747 
L 2328 2669 
Q 3034 2534 3370 2195 
Q 3706 1856 3706 1288 
Q 3706 609 3251 259 
Q 2797 -91 1919 -91 
Q 1588 -91 1214 -16 
Q 841 59 441 206 
L 441 856 
Q 825 641 1194 531 
Q 1563 422 1919 422 
Q 2459 422 2753 634 
Q 3047 847 3047 1241 
Q 3047 1584 2836 1778 
Q 2625 1972 2144 2069 
L 1759 2144 
Q 1053 2284 737 2584 
Q 422 2884 422 3419 
Q 422 4038 858 4394 
Q 1294 4750 2059 4750 
Q 2388 4750 2728 4690 
Q 3069 4631 3425 4513 
z
" transform="scale(0.015625)"/>
      </defs>
      <use xlink:href="#DejaVuSans-45"/>
      <use xlink:href="#DejaVuSans-44" transform="translate(63.183594 0)"/>
      <use xlink:href="#DejaVuSans-41" transform="translate(138.435547 0)"/>
      <use xlink:href="#DejaVuSans-20" transform="translate(206.84375 0)"/>
      <use xlink:href="#DejaVuSans-73" transform="translate(238.630859 0)"/>
      <use xlink:href="#DejaVuSans-69" transform="translate(290.730469 0)"/>
      <use xlink:href="#DejaVuSans-67" transform="translate(318.513672 0)"/>
      <use xlink:href="#DejaVuSans-6e" transform="translate(381.990234 0)"/>
      <use xlink:href="#DejaVuSans-61" transform="translate(445.369141 0)"/>
      <use xlink:href="#DejaVuSans-6c" transform="translate(506.648438 0)"/>
      <use xlink:href="#DejaVuSans-73" transform="translate(534.431641 0)"/>
      <use xlink:href="#DejaVuSans-20" transform="translate(586.53125 0)"/>
      <use xlink:href="#DejaVuSans-28" transform="translate(618.318359 0)"/>
      <use xlink:href="#DejaVuSans-3bc" transform="translate(657.332031 0)"/>
      <use xlink:href="#DejaVuSans-53" transform="translate(720.955078 0)"/>
      <use xlink:href="#DejaVuSans-29" transform="translate(784.431641 0)"/>
     </g>
    </g>
   </g>
   <g id="line2d_27">
    <path d="M 56.985 236.172673 
L 58.44142 235.987462 
L 59.48172 235.922429 
L 60.313961 236.083424 
L 61.874411 236.468565 
L 62.498591 236.443248 
L 62.810681 236.269261 
L 63.122771 235.862118 
L 63.538891 234.907314 
L 64.163071 233.499137 
L 64.371131 233.389511 
L 64.579191 233.538311 
L 64.891281 234.177887 
L 65.931581 236.862067 
L 66.243671 237.094189 
L 66.659792 237.083174 
L 67.804122 236.761094 
L 68.116212 236.788197 
L 68.324272 237.064228 
L 68.636362 238.083364 
L 69.156512 241.151137 
L 69.572632 243.204528 
L 69.780692 243.498428 
L 69.884722 243.420707 
L 70.092782 242.857855 
L 70.612932 240.18908 
L 71.133082 238.055668 
L 71.445172 237.467998 
L 71.757262 237.240399 
L 72.173382 237.21452 
L 72.797563 237.40983 
L 74.253983 238.002949 
L 74.462043 237.855836 
L 74.670103 237.493959 
L 74.878163 236.786621 
L 75.190253 234.703219 
L 75.502343 230.959405 
L 76.438613 216.861461 
L 76.542643 216.518 
L 76.646673 216.630349 
L 76.854733 218.182145 
L 77.270853 225.037418 
L 77.895033 235.570008 
L 78.311153 239.080482 
L 78.623243 240.225427 
L 78.935334 240.710655 
L 79.351454 240.931782 
L 79.975634 240.952881 
L 80.911904 240.933033 
L 81.432054 241.161188 
L 82.056234 241.712327 
L 82.680414 242.186285 
L 82.992504 242.141988 
L 83.408624 241.744117 
L 84.344894 240.696709 
L 84.761014 240.540467 
L 85.177135 240.587173 
L 86.425495 240.990566 
L 87.153705 240.702012 
L 87.673855 240.60005 
L 88.298035 240.731077 
L 89.650425 241.102075 
L 90.378635 241.100528 
L 90.794755 240.891568 
L 91.210875 240.337175 
L 92.355206 238.390443 
L 92.563266 238.434887 
L 92.875356 238.767848 
L 94.227746 240.675171 
L 94.955956 241.130211 
L 95.684166 241.357461 
L 96.620436 241.505582 
L 96.932526 241.832688 
L 97.452676 242.780409 
L 98.076857 243.790849 
L 98.388947 243.929024 
L 98.701037 243.804082 
L 99.637307 243.154972 
L 100.053427 243.247223 
L 100.781637 243.547656 
L 101.093727 243.455353 
L 101.509847 243.063987 
L 103.174327 241.057036 
L 103.798508 240.883548 
L 104.942838 240.877314 
L 107.127468 241.157313 
L 109.832248 241.40768 
L 111.704789 241.463188 
L 114.929719 241.500428 
L 116.178079 241.099291 
L 116.5942 241.429956 
L 117.53047 242.41205 
L 117.84256 242.472077 
L 118.25868 242.286604 
L 119.19495 241.725901 
L 119.7151 241.790958 
L 121.06749 242.130677 
L 124.708541 242.370367 
L 127.621381 242.446006 
L 133.551092 242.870493 
L 134.279302 243.117291 
L 135.943783 243.864665 
L 136.463933 243.811665 
L 136.984083 243.539663 
L 138.024383 242.904978 
L 138.752593 242.779503 
L 140.313043 242.818956 
L 141.873494 243.027532 
L 143.642004 243.239319 
L 147.803205 243.446961 
L 149.675745 243.525151 
L 153.212765 243.855671 
L 156.645756 244.020873 
L 173.186529 244.862627 
L 175.579219 245.006324 
L 177.971909 244.981078 
L 180.3646 245.041586 
L 187.646701 245.298849 
L 192.536112 245.285891 
L 193.160292 245.251489 
L 193.576412 244.960262 
L 194.408652 243.864457 
L 194.928802 243.422966 
L 195.448952 243.280353 
L 197.009402 243.254373 
L 204.499564 243.093722 
L 205.019714 243.364637 
L 205.539864 243.912025 
L 206.580164 245.075356 
L 207.204344 245.382878 
L 210.221215 246.177675 
L 212.613905 246.330327 
L 213.862265 246.283817 
L 214.278385 246.028841 
L 214.590475 245.545221 
L 214.902565 244.663848 
L 215.422715 242.340926 
L 215.942865 240.231108 
L 216.150926 239.893093 
L 216.358986 239.918643 
L 216.671076 240.499661 
L 217.607346 242.81229 
L 218.023466 243.180367 
L 218.439586 243.232452 
L 219.375856 243.254688 
L 220.832276 243.695385 
L 221.144366 243.356236 
L 221.456456 242.604138 
L 222.080636 240.153251 
L 222.496757 238.778703 
L 222.808847 238.363655 
L 223.016907 238.419742 
L 223.328997 238.925272 
L 223.953177 240.721223 
L 224.681387 242.669461 
L 225.201537 243.534399 
L 225.617657 243.841353 
L 226.137807 243.906209 
L 227.490197 243.988407 
L 229.258708 244.16515 
L 232.379608 243.992174 
L 233.003788 243.725179 
L 233.419908 243.804145 
L 233.940058 244.206992 
L 234.564238 245.038905 
L 235.500509 246.426175 
L 235.812599 246.527394 
L 236.228719 246.354488 
L 236.852899 246.068737 
L 238.205289 245.846212 
L 238.725439 245.548422 
L 238.933499 245.60085 
L 239.245589 245.995853 
L 239.765739 246.829791 
L 239.973799 246.76146 
L 240.181859 246.317645 
L 241.014099 243.895776 
L 241.22216 244.033778 
L 242.15843 245.50149 
L 242.47052 245.151556 
L 243.19873 244.140207 
L 243.92694 243.474261 
L 244.34306 242.620043 
L 245.69545 239.156436 
L 246.11157 238.849817 
L 246.73575 238.734332 
L 247.567991 238.79775 
L 249.024411 239.003223 
L 249.648591 238.750701 
L 250.272771 238.565694 
L 251.000981 238.481306 
L 251.313071 237.998407 
L 251.625161 236.993656 
L 252.665461 232.92148 
L 252.977551 232.679819 
L 253.289641 232.855294 
L 255.266212 235.072835 
L 255.786362 236.144385 
L 256.618602 237.906303 
L 257.138752 238.49748 
L 257.658902 238.778482 
L 258.387112 238.87916 
L 259.427412 239.008385 
L 260.883833 239.287038 
L 262.860403 239.566099 
L 263.484583 239.627907 
L 264.004733 239.463184 
L 264.732943 239.241892 
L 265.253093 239.363356 
L 266.085334 239.570206 
L 267.021604 239.770775 
L 268.478024 240.250811 
L 269.206234 240.077946 
L 269.726384 240.05822 
L 271.911014 240.467827 
L 273.159375 240.594076 
L 274.095645 240.662015 
L 274.823855 240.425857 
L 275.656095 240.173584 
L 276.280275 240.236076 
L 277.112515 240.582137 
L 278.360875 241.184599 
L 278.881026 241.130867 
L 280.961626 240.485498 
L 282.209986 239.727234 
L 284.082526 237.939905 
L 284.498646 236.886698 
L 286.059097 232.278145 
L 286.683277 231.241728 
L 287.203427 230.77186 
L 288.243727 230.050467 
L 288.659847 229.434201 
L 289.284027 228.014571 
L 290.636417 224.746516 
L 291.572688 223.132207 
L 292.092838 222.621849 
L 292.508958 222.550474 
L 293.757318 222.690019 
L 294.589558 222.558692 
L 294.901648 222.745404 
L 295.213738 223.290508 
L 295.525828 224.521167 
L 295.837918 226.997012 
L 296.150008 231.45543 
L 296.566128 241.285328 
L 297.606429 268.718331 
L 297.814489 270.030455 
L 297.918519 269.895761 
L 298.126579 268.135484 
L 298.438669 262.45229 
L 299.374939 241.763567 
L 299.582999 240.249293 
L 299.687029 240.216683 
L 299.895089 241.622001 
L 300.207179 246.959507 
L 301.455539 274.590489 
L 301.871659 278.09479 
L 302.079719 278.775648 
L 302.183749 278.876322 
L 302.287779 278.815785 
L 302.495839 278.17562 
L 302.703899 276.743371 
L 303.015989 272.828302 
L 303.43211 264.286754 
L 304.36838 243.200876 
L 304.7845 238.641117 
L 305.09659 237.142259 
L 305.40868 236.652783 
L 305.61674 236.658332 
L 305.92883 236.935415 
L 306.96913 238.110234 
L 307.59331 238.365697 
L 308.63361 238.751299 
L 309.25779 239.27091 
L 309.881971 239.766006 
L 310.298091 239.829295 
L 310.610181 239.670369 
L 311.026301 239.174934 
L 312.274661 237.343604 
L 312.690781 237.184288 
L 313.210931 237.209616 
L 313.627051 237.41137 
L 314.147201 237.942487 
L 314.771381 238.541835 
L 315.187501 238.662283 
L 316.227802 238.747489 
L 317.372132 239.122121 
L 318.412432 239.354358 
L 319.868852 239.73204 
L 320.701092 239.687807 
L 324.550203 239.168278 
L 325.902593 239.187856 
L 326.422743 239.467203 
L 327.879163 240.470861 
L 328.503344 240.519712 
L 330.375884 240.473019 
L 333.184694 240.536095 
L 334.537084 240.35483 
L 335.265295 240.288471 
L 335.785445 240.4925 
L 337.345895 241.50649 
L 337.970075 241.371748 
L 338.490225 241.30536 
L 339.010375 241.490397 
L 339.842615 241.849369 
L 340.154705 241.745157 
L 340.570825 241.34388 
L 341.299036 240.595895 
L 341.715156 240.532495 
L 342.651426 240.666704 
L 343.795756 240.370048 
L 345.252176 240.902237 
L 347.020686 240.818297 
L 347.748897 241.029624 
L 348.789197 241.305603 
L 349.829497 241.313311 
L 350.557707 241.378191 
L 351.806067 241.689564 
L 353.054427 241.46967 
L 353.678608 241.495864 
L 353.990698 241.28459 
L 354.614878 240.45002 
L 355.030998 240.036788 
L 355.343088 239.981816 
L 355.759208 240.216952 
L 356.591448 240.869225 
L 356.903538 240.815689 
L 357.111598 240.562168 
L 357.423688 239.695776 
L 357.735778 238.108087 
L 358.255928 234.073737 
L 359.088168 227.5602 
L 359.608319 225.035497 
L 360.440559 222.345915 
L 361.168769 220.518007 
L 361.584889 219.949095 
L 362.521159 218.993139 
L 362.833249 218.225369 
L 363.145339 216.960231 
L 363.561459 214.054985 
L 363.977579 209.084595 
L 364.497729 199.705172 
L 365.85012 173.401506 
L 367.72266 145.390963 
L 368.76296 129.121356 
L 369.49117 113.307973 
L 370.42744 92.420819 
L 370.6355 90.66465 
L 370.73953 90.588906 
L 370.84356 91.140836 
L 371.05162 94.35655 
L 371.36371 104.84307 
L 371.98789 139.176495 
L 372.404011 154.93309 
L 372.508041 155.874868 
L 372.612071 155.345499 
L 372.820131 149.855068 
L 373.132221 132.295963 
L 374.068491 70.804737 
L 374.484611 59.225986 
L 374.796701 56.086998 
L 375.004761 55.680922 
L 375.212821 56.196485 
L 375.628941 58.696106 
L 376.045061 60.731363 
L 376.253121 60.833362 
L 376.461181 60.256285 
L 376.981331 57.333027 
L 377.501481 55.055156 
L 378.125661 52.730323 
L 378.749842 50.210414 
L 378.957902 50.157766 
L 379.165962 50.739858 
L 379.478052 52.708667 
L 379.894172 56.89025 
L 380.310292 62.919328 
L 380.726412 71.866584 
L 381.246562 88.317121 
L 381.974772 112.783971 
L 382.182832 116.023992 
L 382.286862 116.552179 
L 382.390892 116.316892 
L 382.598952 113.664442 
L 382.911042 105.441668 
L 383.951342 74.901642 
L 384.471492 67.490662 
L 384.991643 63.574137 
L 385.511793 61.330798 
L 385.823883 60.624318 
L 386.031943 60.565866 
L 386.240003 60.975445 
L 386.448063 61.964705 
L 386.760153 64.679689 
L 387.280303 72.168429 
L 388.008513 82.675013 
L 388.216573 83.593602 
L 388.320603 83.501853 
L 388.528663 82.232331 
L 388.944783 76.662677 
L 389.464933 69.776359 
L 389.777023 67.706302 
L 390.089113 66.948668 
L 390.297173 66.857962 
L 390.921354 66.899475 
L 391.129414 66.465238 
L 391.337474 65.489614 
L 391.649564 62.76339 
L 392.169714 55.471805 
L 393.001954 44.191736 
L 393.522104 40.061883 
L 393.938224 38.357432 
L 394.146284 38.085455 
L 394.354344 38.238905 
L 394.562404 38.839201 
L 394.874494 40.601761 
L 395.290614 44.533179 
L 395.914794 53.014445 
L 396.747034 64.036985 
L 397.163155 67.147897 
L 397.475245 68.096246 
L 397.683305 68.12146 
L 397.891365 67.743297 
L 398.307485 66.250256 
L 398.723605 64.970751 
L 398.931665 64.936795 
L 399.139725 65.516597 
L 399.451815 67.555949 
L 400.700175 77.727049 
L 402.468685 85.664998 
L 403.300926 90.148819 
L 403.508986 90.549277 
L 403.613016 90.550881 
L 403.821076 90.109863 
L 404.133166 88.351844 
L 404.757346 82.496956 
L 405.381526 77.321672 
L 405.797646 75.347876 
L 406.109736 74.713487 
L 406.317796 74.622026 
L 407.150036 74.771479 
L 407.462126 74.424009 
L 408.086306 73.248628 
L 408.918546 71.25695 
L 409.646757 69.53196 
L 409.958847 69.278227 
L 410.270937 69.335915 
L 410.583027 69.384417 
L 410.791087 69.214232 
L 411.103177 68.532749 
L 411.831387 66.62657 
L 412.039447 66.523709 
L 412.247507 66.642042 
L 413.079747 67.422152 
L 413.287807 67.318246 
L 413.599897 66.867499 
L 414.432137 65.401807 
L 414.640197 65.533305 
L 414.848257 66.14774 
L 415.160347 68.282126 
L 415.576467 73.631292 
L 417.344978 101.747767 
L 417.657068 103.407775 
L 417.865128 103.691278 
L 417.969158 103.579184 
L 418.177218 102.845578 
L 418.489308 100.588079 
L 419.321548 93.48776 
L 419.529608 93.188738 
L 419.737668 93.819774 
L 420.049758 96.294095 
L 421.506178 111.327118 
L 422.234389 115.625462 
L 423.482749 125.026391 
L 424.627079 128.777318 
L 425.355289 131.928873 
L 425.771409 132.9152 
L 426.499619 134.297858 
L 427.227829 136.61265 
L 427.852009 138.189766 
L 428.26813 138.756116 
L 428.89231 139.137969 
L 429.30843 139.522128 
L 429.93261 140.509405 
L 430.2447 141.272753 
L 430.55679 142.656341 
L 430.97291 145.967237 
L 431.285 149.227262 
L 431.285 149.227262 
" clip-path="url(#p462914a755)" style="fill: none; stroke-dasharray: 1.85,0.8; stroke-dashoffset: 0; stroke: #1f77b4; stroke-width: 0.5"/>
   </g>
   <g id="line2d_28">
    <path d="M 56.985 237.228615 
L 57.50515 235.580408 
L 57.92127 234.92602 
L 58.23336 234.755676 
L 58.54545 234.812153 
L 58.96157 235.165854 
L 59.58575 236.085631 
L 60.834111 238.063171 
L 61.250231 238.388949 
L 61.666351 238.430159 
L 62.082471 238.241506 
L 62.706651 237.670073 
L 64.267101 236.063391 
L 64.683221 235.914378 
L 65.099341 236.007911 
L 65.515461 236.406981 
L 66.035611 237.321184 
L 66.763822 239.123561 
L 68.532332 243.767971 
L 69.052482 244.593842 
L 69.468602 244.898146 
L 69.780692 244.879257 
L 70.196812 244.559908 
L 70.716962 243.789951 
L 71.549202 242.035052 
L 72.901593 239.151171 
L 73.421743 238.473341 
L 73.837863 238.251269 
L 74.253983 238.330167 
L 74.670103 238.660498 
L 75.294283 239.514831 
L 76.334583 241.466665 
L 77.478913 243.53985 
L 78.103093 244.273431 
L 78.623243 244.592563 
L 79.143394 244.686109 
L 79.767574 244.557961 
L 80.495784 244.165978 
L 81.848174 243.112472 
L 83.304594 242.089549 
L 84.552954 241.460546 
L 85.697285 241.10778 
L 86.841615 240.982939 
L 88.714155 241.059754 
L 90.274605 241.038048 
L 92.043116 240.704557 
L 93.187446 240.613684 
L 94.019686 240.774488 
L 94.747896 241.152415 
L 95.684166 241.93541 
L 97.868797 243.895054 
L 98.597007 244.217888 
L 99.221187 244.246288 
L 99.949397 244.031229 
L 100.885667 243.487352 
L 103.694477 241.671241 
L 104.838808 241.317228 
L 106.191198 241.153135 
L 107.855678 241.194369 
L 116.38614 241.951238 
L 119.29898 242.577221 
L 120.65137 242.579477 
L 125.228691 242.346578 
L 129.181832 242.541075 
L 131.366462 242.638266 
L 132.718852 242.941173 
L 135.631693 243.719812 
L 136.671993 243.708995 
L 138.024383 243.427815 
L 140.313043 242.925158 
L 141.561404 242.937862 
L 143.746034 243.250792 
L 145.514544 243.404298 
L 151.028135 243.662556 
L 154.357096 243.929184 
L 169.649508 244.594843 
L 176.723549 244.986374 
L 184.5258 245.185029 
L 190.351481 245.340129 
L 192.536112 245.175774 
L 194.200592 244.839496 
L 195.969102 244.238538 
L 198.777913 243.272693 
L 200.234333 243.034949 
L 201.482693 243.046566 
L 202.731053 243.289599 
L 204.083444 243.811348 
L 208.972854 245.951945 
L 210.533305 246.265341 
L 211.989725 246.343746 
L 213.342115 246.208383 
L 214.694505 245.846001 
L 216.046895 245.243381 
L 219.167796 243.751832 
L 220.312126 243.527753 
L 221.560486 243.517685 
L 223.328997 243.752915 
L 226.761987 244.256014 
L 228.218407 244.233699 
L 231.027218 244.093382 
L 232.067518 244.311264 
L 233.211848 244.818292 
L 234.980359 245.907437 
L 237.060959 247.134222 
L 238.101259 247.511023 
L 239.037529 247.611598 
L 239.869769 247.454108 
L 240.597979 247.091114 
L 241.53425 246.350686 
L 242.78261 245.047887 
L 246.11157 241.420078 
L 247.776051 240.005639 
L 249.232471 239.048626 
L 250.584861 238.419143 
L 251.833221 238.0772 
L 252.977551 237.9785 
L 254.329942 238.098513 
L 256.306512 238.530824 
L 259.427412 239.201012 
L 261.508013 239.416268 
L 266.293394 239.725817 
L 271.182804 240.461221 
L 278.672966 241.085308 
L 279.921326 241.178364 
L 280.753566 241.029924 
L 281.481776 240.687156 
L 282.209986 240.095044 
L 283.146256 238.997798 
L 284.394616 237.124648 
L 287.515517 231.819745 
L 288.971937 228.997403 
L 290.116267 226.306201 
L 291.364628 223.31781 
L 291.884778 222.617536 
L 292.196868 222.484547 
L 292.508958 222.621936 
L 292.821048 223.0747 
L 293.237168 224.246741 
L 293.653288 226.166103 
L 294.173438 229.778715 
L 294.797618 236.006216 
L 295.733888 248.109291 
L 298.022549 279.155689 
L 298.750759 285.686536 
L 299.270909 288.712773 
L 299.687029 290.205773 
L 300.103149 290.91823 
L 300.311209 290.994545 
L 300.519269 290.891073 
L 300.831359 290.409953 
L 301.247479 289.186949 
L 301.767629 286.78118 
L 302.391809 282.713483 
L 303.224049 275.581176 
L 306.55301 244.714874 
L 307.17719 241.694573 
L 307.69734 240.182759 
L 308.11346 239.510797 
L 308.52958 239.223858 
L 308.9457 239.236326 
L 309.46585 239.542525 
L 311.130331 240.826519 
L 311.650481 240.850439 
L 312.274661 240.641204 
L 313.210931 240.030009 
L 314.771381 238.975844 
L 315.395561 238.800187 
L 316.123772 238.824459 
L 317.060042 239.090443 
L 319.140642 239.775957 
L 319.972882 239.78325 
L 321.221242 239.53971 
L 323.093783 239.169336 
L 324.030053 239.228136 
L 325.278413 239.562354 
L 328.087223 240.406401 
L 329.543644 240.515351 
L 334.537084 240.672453 
L 336.305595 241.056719 
L 339.010375 241.704766 
L 340.050675 241.700723 
L 341.195006 241.43664 
L 344.003816 240.661294 
L 344.940086 240.698933 
L 346.396506 241.027296 
L 348.165017 241.400525 
L 349.413377 241.388948 
L 350.973827 241.384622 
L 351.806067 241.602212 
L 352.534277 242.023394 
L 353.782638 243.134733 
L 354.614878 243.701717 
L 355.135028 243.803426 
L 355.551148 243.676316 
L 355.967268 243.317298 
L 356.383388 242.683365 
L 356.903538 241.445223 
L 357.631748 238.965866 
L 358.672048 234.487744 
L 360.544589 226.377911 
L 361.376829 223.794099 
L 362.417129 220.549892 
L 363.041309 217.676722 
L 363.665489 213.47527 
L 364.289669 207.427382 
L 364.913849 199.014905 
L 365.746089 183.955722 
L 367.72266 146.523701 
L 368.24281 140.319701 
L 368.65893 137.510001 
L 368.86699 136.961734 
L 368.97102 136.92382 
L 369.17908 137.351965 
L 369.49117 139.181705 
L 369.90729 143.401507 
L 370.6355 153.81405 
L 371.77983 170.416337 
L 372.299981 174.872091 
L 372.612071 175.828353 
L 372.716101 175.798542 
L 372.924161 175.153708 
L 373.236251 172.56751 
L 373.652371 165.889049 
L 374.172521 153.27391 
L 375.004761 126.895317 
L 376.565211 76.924126 
L 377.085361 65.926764 
L 377.501481 60.958524 
L 377.709541 59.935421 
L 377.813571 59.765682 
L 377.917601 59.810635 
L 378.125661 60.50506 
L 378.437752 62.90968 
L 378.853872 68.244771 
L 379.478052 79.523956 
L 381.454622 118.479336 
L 381.974772 123.759289 
L 382.390892 125.733857 
L 382.598952 126.069223 
L 382.807012 126.017435 
L 383.015072 125.614084 
L 383.327162 124.427739 
L 383.847312 121.196917 
L 384.679553 114.002181 
L 386.031943 102.232488 
L 386.864183 97.245536 
L 387.904483 92.475466 
L 389.048813 87.152336 
L 389.777023 82.694148 
L 390.609263 75.908443 
L 392.897924 55.963935 
L 393.522104 52.741607 
L 393.938224 51.659652 
L 394.146284 51.499121 
L 394.354344 51.60011 
L 394.666434 52.202839 
L 395.082554 53.754961 
L 395.602704 56.69694 
L 396.330914 62.185293 
L 399.243755 85.883877 
L 400.075995 90.121037 
L 400.804205 92.66288 
L 401.324355 93.80737 
L 401.740475 94.317888 
L 402.052565 94.463429 
L 402.364655 94.404779 
L 402.780775 94.014306 
L 403.300926 93.075271 
L 403.925106 91.390658 
L 404.757346 88.420713 
L 406.109736 82.601769 
L 407.878246 75.106989 
L 408.814516 71.976846 
L 409.542727 70.230451 
L 410.062877 69.449458 
L 410.478997 69.149221 
L 410.791087 69.132924 
L 411.103177 69.303523 
L 411.519297 69.815878 
L 412.039447 70.901083 
L 412.663627 72.831638 
L 413.391837 75.910534 
L 414.224077 80.458158 
L 415.264377 87.568732 
L 417.240948 103.347412 
L 418.489308 112.437823 
L 419.321548 117.12874 
L 420.049758 120.137376 
L 420.881998 122.611 
L 421.714238 124.397701 
L 424.523049 129.824712 
L 425.667379 132.863596 
L 426.915739 136.802835 
L 428.47619 142.541371 
L 430.34873 149.245815 
L 431.285 151.808363 
L 431.285 151.808363 
" clip-path="url(#p462914a755)" style="fill: none; stroke: #ff7f0e; stroke-width: 0.5; stroke-linecap: square"/>
   </g>
   <g id="line2d_29">
    <path d="M 56.985 281.14984 
L 57.08903 281.14984 
L 57.19306 280.312086 
L 57.50515 282.184529 
L 57.71321 282.413529 
L 58.0253 282.28275 
L 59.0656 281.540536 
L 59.37769 281.367828 
L 60.522021 279.677831 
L 61.042171 279.23989 
L 61.458291 279.155712 
L 61.874411 279.295537 
L 63.018741 279.902491 
L 63.330831 279.6754 
L 63.955011 278.693554 
L 64.163071 278.484501 
L 64.371131 278.69199 
L 65.515461 280.381196 
L 66.035611 280.734285 
L 66.139641 280.691163 
L 66.555762 279.72087 
L 67.804122 275.912838 
L 68.220242 274.940504 
L 68.324272 274.785053 
L 68.428302 274.857675 
L 68.740392 275.941744 
L 69.468602 278.691632 
L 69.884722 279.634355 
L 69.988752 279.645757 
L 70.300842 278.652668 
L 70.925022 276.524144 
L 71.133082 276.276582 
L 71.341142 276.291306 
L 71.653232 276.681301 
L 72.277412 278.099573 
L 72.901593 279.575985 
L 73.421743 280.292125 
L 74.045923 280.742533 
L 74.358013 280.763647 
L 74.670103 280.022265 
L 74.982193 278.395707 
L 75.294283 275.325842 
L 75.710403 268.504513 
L 76.334583 257.358434 
L 76.542643 255.858426 
L 76.646673 255.670702 
L 76.750703 255.873108 
L 76.958763 258.180674 
L 77.895033 272.14604 
L 78.415183 276.214051 
L 78.727273 276.993121 
L 79.039364 277.300378 
L 79.871604 277.633928 
L 80.599814 277.992293 
L 81.119964 278.427402 
L 82.680414 280.603486 
L 83.304594 280.890582 
L 83.512654 280.833347 
L 84.136834 280.403619 
L 84.656984 280.333849 
L 86.217435 280.989384 
L 86.841615 281.050136 
L 87.569825 280.78371 
L 88.298035 280.930183 
L 89.546395 281.097563 
L 90.794755 281.11706 
L 91.106845 280.80649 
L 91.626996 279.860195 
L 92.147146 279.030984 
L 92.355206 278.860337 
L 92.563266 279.016412 
L 93.811626 280.552702 
L 94.435806 280.865305 
L 95.059986 280.987423 
L 95.684166 280.609441 
L 96.724466 279.80792 
L 97.140586 280.132441 
L 97.868797 280.682433 
L 98.492977 280.90009 
L 98.909097 280.562057 
L 99.325217 280.204083 
L 99.637307 280.32264 
L 100.677607 280.868544 
L 101.613877 281.057285 
L 101.821937 281.036192 
L 102.758207 280.406087 
L 103.278357 280.334961 
L 104.110598 280.532101 
L 106.295228 281.066279 
L 108.271798 281.142031 
L 114.721659 281.116743 
L 115.345839 280.767007 
L 115.970019 280.446721 
L 117.94659 281.06273 
L 118.25868 281.054474 
L 119.19495 280.346309 
L 119.61107 280.350483 
L 123.044061 281.097552 
L 125.748841 281.147737 
L 132.510792 281.057927 
L 133.967212 280.878654 
L 135.423633 281.09443 
L 136.880053 281.118809 
L 137.920353 280.676465 
L 138.544533 280.692047 
L 139.376773 280.911794 
L 140.521103 281.086751 
L 142.913794 281.146261 
L 171.418018 281.149762 
L 193.680442 281.070588 
L 194.720742 280.059567 
L 195.136862 279.982703 
L 195.761042 280.132831 
L 198.569853 281.045335 
L 200.234333 281.135647 
L 202.418963 281.064878 
L 203.563293 280.62616 
L 204.707624 280.210595 
L 205.123744 280.406896 
L 206.060014 280.877395 
L 206.996284 281.060285 
L 208.868824 281.140326 
L 214.382415 281.126791 
L 214.590475 280.847849 
L 214.902565 280.082594 
L 215.422715 277.980143 
L 215.942865 276.123078 
L 216.150926 275.890385 
L 216.358986 276.008771 
L 216.567046 276.461836 
L 217.607346 279.512468 
L 218.127496 280.241722 
L 220.000036 281.002856 
L 221.040336 281.107543 
L 221.144366 281.041526 
L 221.456456 280.282073 
L 222.080636 277.775575 
L 222.600787 276.126672 
L 222.808847 275.885335 
L 223.016907 275.907936 
L 223.328997 276.349519 
L 223.641087 277.140495 
L 224.369297 279.23962 
L 224.889447 280.107028 
L 225.409597 280.588628 
L 226.033777 280.882574 
L 226.657957 280.842725 
L 227.178107 280.874935 
L 228.738558 281.099861 
L 231.547368 281.148076 
L 231.963488 281.080172 
L 232.483638 280.653562 
L 233.107818 280.142975 
L 233.627968 280.037291 
L 235.604539 281.01003 
L 236.124689 280.98793 
L 236.748869 280.298748 
L 237.269019 280.030292 
L 237.997229 279.676892 
L 238.725439 279.093101 
L 239.037529 279.404466 
L 239.869769 280.407838 
L 240.077829 280.43022 
L 240.493949 279.138119 
L 240.702009 278.481795 
L 240.910069 278.511896 
L 241.32619 279.206498 
L 241.95037 280.154329 
L 242.57455 280.67105 
L 242.88664 280.75546 
L 243.40679 280.834989 
L 243.92694 280.938322 
L 244.23903 280.699477 
L 244.65515 279.982488 
L 245.38336 278.69856 
L 245.69545 278.521572 
L 246.00754 278.56794 
L 246.63172 278.984072 
L 247.672021 279.979238 
L 248.296201 280.559071 
L 249.024411 280.899703 
L 250.064711 281.078028 
L 251.209041 281.12945 
L 251.313071 281.019822 
L 251.729191 279.641813 
L 252.561431 276.328364 
L 252.873521 275.910288 
L 253.081581 275.911979 
L 253.497702 276.272162 
L 254.433972 277.193432 
L 255.266212 277.931284 
L 256.514572 280.236662 
L 257.138752 280.714502 
L 257.866962 280.968084 
L 258.595172 281.019897 
L 259.323382 280.986484 
L 262.028163 281.14123 
L 264.212793 281.067015 
L 264.732943 280.909214 
L 269.102204 281.045224 
L 269.518324 280.960389 
L 273.679525 281.148011 
L 274.719825 281.048663 
L 275.760125 280.675393 
L 276.176245 280.723186 
L 277.528635 281.049359 
L 279.089086 281.119066 
L 279.921326 280.920154 
L 281.793866 280.759935 
L 283.250286 281.067923 
L 284.498646 281.098205 
L 284.914767 280.436836 
L 285.538947 279.526432 
L 286.059097 279.148702 
L 286.475217 279.099247 
L 286.891337 279.265665 
L 288.555817 280.813175 
L 289.075967 280.953677 
L 290.012237 280.84156 
L 291.260598 281.070941 
L 292.508958 281.109667 
L 292.821048 280.746382 
L 293.133138 280.021841 
L 293.549258 278.310799 
L 294.069408 274.84894 
L 294.693588 268.939916 
L 295.733888 259.067822 
L 295.941948 258.390554 
L 296.150008 258.255973 
L 296.358068 260.045806 
L 297.398369 273.703818 
L 297.710459 275.36652 
L 297.918519 273.051812 
L 298.230609 266.491663 
L 299.582999 231.531076 
L 299.687029 231.196172 
L 299.791059 231.413388 
L 299.999119 233.396976 
L 300.311209 239.563545 
L 301.663599 270.397529 
L 302.183749 275.351422 
L 302.599869 277.593562 
L 302.703899 277.727131 
L 302.911959 277.123296 
L 303.120019 275.64969 
L 303.53614 270.362747 
L 304.16032 261.847753 
L 304.47241 259.958213 
L 304.68047 259.831599 
L 304.88853 260.468483 
L 305.20062 262.440335 
L 306.13689 270.829869 
L 306.8651 276.291819 
L 307.38525 278.502314 
L 307.9054 279.725759 
L 308.42555 280.386867 
L 309.04973 280.789572 
L 309.881971 281.015258 
L 310.090031 280.905755 
L 310.610181 280.289749 
L 312.170631 277.919869 
L 312.482721 277.895907 
L 312.898841 278.098716 
L 313.418991 278.59235 
L 314.355261 280.154531 
L 314.979441 280.672067 
L 315.707651 280.95002 
L 316.851982 281.099329 
L 317.580192 281.042987 
L 318.412432 280.934768 
L 321.637362 281.143711 
L 324.342143 281.074775 
L 325.590503 280.6222 
L 325.902593 280.597656 
L 327.879163 281.081682 
L 330.063794 281.14071 
L 333.808874 281.089571 
L 334.849175 280.738509 
L 335.161265 280.692307 
L 337.657985 281.118702 
L 337.970075 281.019925 
L 338.282165 280.93087 
L 339.426495 281.065109 
L 340.362765 281.100237 
L 341.507096 280.390181 
L 342.859486 280.844702 
L 343.379636 280.902611 
L 344.836056 281.100734 
L 346.084416 281.08257 
L 347.228747 280.794501 
L 347.956957 280.935538 
L 349.205317 281.098762 
L 351.910097 281.147799 
L 352.118157 281.036672 
L 354.094728 278.969123 
L 354.926968 277.503618 
L 355.239058 277.384512 
L 355.447118 277.384626 
L 355.655178 277.713732 
L 356.695478 279.950091 
L 357.215628 280.499792 
L 357.631748 280.754426 
L 357.735778 280.720051 
L 358.047868 279.759272 
L 358.984138 276.355669 
L 359.296228 275.982996 
L 359.608319 276.020143 
L 360.128469 276.495201 
L 360.856679 277.062022 
L 361.376829 277.51649 
L 362.833249 280.33203 
L 363.457429 280.761337 
L 363.665489 280.73829 
L 363.977579 279.560334 
L 364.393699 276.790193 
L 365.017879 272.535142 
L 365.329969 271.721881 
L 365.433999 271.707624 
L 365.642059 272.020087 
L 366.05818 273.626607 
L 366.89042 277.890787 
L 367.41057 279.37406 
L 367.82669 280.009674 
L 368.03475 279.616772 
L 368.24281 278.674609 
L 368.5549 275.981689 
L 368.97102 269.359395 
L 369.38714 258.607069 
L 370.84356 215.22481 
L 370.94759 214.835861 
L 371.15565 215.921711 
L 371.36371 221.03318 
L 372.404011 259.943554 
L 372.508041 261.373851 
L 372.612071 260.715481 
L 372.820131 255.474959 
L 373.236251 233.441412 
L 373.860431 200.727558 
L 374.172521 194.820946 
L 374.276551 194.605159 
L 374.380581 195.154313 
L 374.588641 198.217481 
L 375.004761 209.976552 
L 376.669241 265.973149 
L 377.189391 272.963142 
L 377.501481 275.297983 
L 377.709541 275.632038 
L 377.813571 275.446059 
L 378.021631 274.328843 
L 378.333722 270.972961 
L 379.998202 248.817901 
L 380.310292 246.744104 
L 380.518352 246.344368 
L 380.622382 246.536448 
L 380.934472 248.516396 
L 381.350592 257.243516 
L 381.974772 268.928612 
L 382.286862 272.272217 
L 382.390892 271.814565 
L 382.598952 268.800014 
L 383.015072 257.60058 
L 383.639252 240.577359 
L 384.055372 234.636963 
L 384.367462 232.922386 
L 384.575523 232.715036 
L 384.783583 233.032043 
L 385.095673 234.138783 
L 385.719853 237.405897 
L 386.240003 241.32942 
L 386.656123 246.478458 
L 387.072243 253.925724 
L 387.800453 268.319339 
L 388.216573 273.241449 
L 388.424633 274.062231 
L 388.632693 273.081403 
L 389.568963 265.997983 
L 389.672993 265.988566 
L 389.881053 266.604248 
L 390.089113 267.676668 
L 391.441504 277.743859 
L 391.545534 277.929563 
L 391.753594 277.499953 
L 392.065684 275.878325 
L 393.001954 270.066656 
L 393.522104 268.507602 
L 393.938224 267.884881 
L 394.250314 267.777771 
L 394.458374 267.928289 
L 394.770464 268.56744 
L 395.186584 270.184156 
L 396.434944 278.042785 
L 396.851064 279.251095 
L 396.955094 279.375075 
L 397.163155 278.807974 
L 397.475245 276.942403 
L 397.995395 271.729506 
L 398.827635 262.835071 
L 399.139725 261.448956 
L 399.243755 261.353788 
L 399.347785 261.432356 
L 399.555845 262.033267 
L 400.596145 266.376469 
L 401.532415 268.00401 
L 402.052565 269.896518 
L 402.364655 271.991063 
L 403.092865 276.869187 
L 403.613016 278.819366 
L 403.925106 279.43158 
L 404.133166 278.815205 
L 404.549286 276.536072 
L 405.173466 273.256484 
L 405.485556 272.5189 
L 405.693616 272.446146 
L 405.901676 272.713712 
L 406.213766 273.692889 
L 407.566156 279.158896 
L 408.086306 280.0746 
L 408.606456 280.573036 
L 408.918546 280.695508 
L 409.438696 280.806161 
L 410.583027 281.052524 
L 410.895117 281.025684 
L 411.103177 280.411835 
L 412.247507 276.35964 
L 412.767657 275.242772 
L 413.183777 273.636137 
L 413.703927 270.355387 
L 414.744227 263.129995 
L 414.952287 262.587231 
L 415.056317 262.550566 
L 415.160347 262.673122 
L 415.368407 263.445219 
L 415.576467 264.695824 
L 416.824828 276.473541 
L 417.344978 278.625305 
L 417.449008 278.707925 
L 417.657068 278.018027 
L 417.969158 275.892039 
L 418.385278 270.90417 
L 419.425578 256.792836 
L 419.633638 256.045802 
L 419.737668 256.047955 
L 419.945728 256.72194 
L 420.257818 259.007298 
L 421.194088 267.142664 
L 421.610208 268.860773 
L 422.130359 270.839572 
L 423.170659 277.523883 
L 423.586779 278.750585 
L 423.898869 278.89699 
L 425.251259 280.583849 
L 425.771409 280.844862 
L 425.979469 280.66373 
L 426.499619 280.068062 
L 426.915739 279.958709 
L 427.331859 279.862146 
L 427.643949 279.552839 
L 428.060069 278.749152 
L 428.68425 276.880657 
L 429.41246 274.794595 
L 430.03664 273.676732 
L 430.34873 273.43517 
L 430.55679 274.145147 
L 431.285 277.675734 
L 431.285 277.675734 
" clip-path="url(#p462914a755)" style="fill: none; stroke: #2ca02c; stroke-width: 0.5; stroke-linecap: square"/>
   </g>
   <g id="patch_3">
    <path d="M 38.27 303.64 
L 38.27 25.44 
" style="fill: none; stroke: #000000; stroke-width: 0.8; stroke-linejoin: miter; stroke-linecap: square"/>
   </g>
   <g id="patch_4">
    <path d="M 450 303.64 
L 450 25.44 
" style="fill: none; stroke: #000000; stroke-width: 0.8; stroke-linejoin: miter; stroke-linecap: square"/>
   </g>
   <g id="patch_5">
    <path d="M 38.27 303.64 
L 450 303.64 
" style="fill: none; stroke: #000000; stroke-width: 0.8; stroke-linejoin: miter; stroke-linecap: square"/>
   </g>
   <g id="patch_6">
    <path d="M 38.27 25.44 
L 450 25.44 
" style="fill: none; stroke: #000000; stroke-width: 0.8; stroke-linejoin: miter; stroke-linecap: square"/>
   </g>
   <g id="text_16">
    <!-- cvxEDA (σ=1.6s  data_4_E4) -->
    <g transform="translate(158.48125 19.44) scale(0.12 -0.12)">
     <defs>
      <path id="DejaVuSans-63" d="M 3122 3366 
L 3122 2828 
Q 2878 2963 2633 3030 
Q 2388 3097 2138 3097 
Q 1578 3097 1268 2742 
Q 959 2388 959 1747 
Q 959 1106 1268 751 
Q 1578 397 2138 397 
Q 2388 397 2633 464 
Q 2878 531 3122 666 
L 3122 134 
Q 2881 22 2623 -34 
Q 2366 -91 2075 -91 
Q 1284 -91 818 406 
Q 353 903 353 1747 
Q 353 2603 823 3093 
Q 1294 3584 2113 3584 
Q 2378 3584 2631 3529 
Q 2884 3475 3122 3366 
z
" transform="scale(0.015625)"/>
      <path id="DejaVuSans-76" d="M 191 3500 
L 800 3500 
L 1894 563 
L 2988 3500 
L 3597 3500 
L 2284 0 
L 1503 0 
L 191 3500 
z
" transform="scale(0.015625)"/>
      <path id="DejaVuSans-78" d="M 3513 3500 
L 2247 1797 
L 3578 0 
L 2900 0 
L 1881 1375 
L 863 0 
L 184 0 
L 1544 1831 
L 300 3500 
L 978 3500 
L 1906 2253 
L 2834 3500 
L 3513 3500 
z
" transform="scale(0.015625)"/>
      <path id="DejaVuSans-3c3" d="M 1959 3044 
Q 1484 3044 1228 2700 
Q 959 2341 959 1747 
Q 959 1119 1226 758 
Q 1494 397 1959 397 
Q 2419 397 2687 759 
Q 2956 1122 2956 1747 
Q 2956 2319 2688 2700 
Q 2441 3044 1959 3044 
z
M 1959 3500 
L 3869 3500 
L 3869 2925 
L 3225 2925 
Q 3566 2438 3566 1747 
Q 3566 888 3138 400 
Q 2709 -91 1959 -91 
Q 1206 -91 781 400 
Q 353 888 353 1747 
Q 353 2613 781 3097 
Q 1134 3500 1959 3500 
z
" transform="scale(0.015625)"/>
      <path id="DejaVuSans-3d" d="M 678 2906 
L 4684 2906 
L 4684 2381 
L 678 2381 
L 678 2906 
z
M 678 1631 
L 4684 1631 
L 4684 1100 
L 678 1100 
L 678 1631 
z
" transform="scale(0.015625)"/>
      <path id="DejaVuSans-2e" d="M 684 794 
L 1344 794 
L 1344 0 
L 684 0 
L 684 794 
z
" transform="scale(0.015625)"/>
      <path id="DejaVuSans-64" d="M 2906 2969 
L 2906 4863 
L 3481 4863 
L 3481 0 
L 2906 0 
L 2906 525 
Q 2725 213 2448 61 
Q 2172 -91 1784 -91 
Q 1150 -91 751 415 
Q 353 922 353 1747 
Q 353 2572 751 3078 
Q 1150 3584 1784 3584 
Q 2172 3584 2448 3432 
Q 2725 3281 2906 2969 
z
M 947 1747 
Q 947 1113 1208 752 
Q 1469 391 1925 391 
Q 2381 391 2643 752 
Q 2906 1113 2906 1747 
Q 2906 2381 2643 2742 
Q 2381 3103 1925 3103 
Q 1469 3103 1208 2742 
Q 947 2381 947 1747 
z
" transform="scale(0.015625)"/>
      <path id="DejaVuSans-5f" d="M 3263 -1063 
L 3263 -1509 
L -63 -1509 
L -63 -1063 
L 3263 -1063 
z
" transform="scale(0.015625)"/>
     </defs>
     <use xlink:href="#DejaVuSans-63"/>
     <use xlink:href="#DejaVuSans-76" transform="translate(54.980469 0)"/>
     <use xlink:href="#DejaVuSans-78" transform="translate(114.160156 0)"/>
     <use xlink:href="#DejaVuSans-45" transform="translate(173.339844 0)"/>
     <use xlink:href="#DejaVuSans-44" transform="translate(236.523438 0)"/>
     <use xlink:href="#DejaVuSans-41" transform="translate(311.775391 0)"/>
     <use xlink:href="#DejaVuSans-20" transform="translate(380.183594 0)"/>
     <use xlink:href="#DejaVuSans-28" transform="translate(411.970703 0)"/>
     <use xlink:href="#DejaVuSans-3c3" transform="translate(450.984375 0)"/>
     <use xlink:href="#DejaVuSans-3d" transform="translate(514.363281 0)"/>
     <use xlink:href="#DejaVuSans-31" transform="translate(598.152344 0)"/>
     <use xlink:href="#DejaVuSans-2e" transform="translate(661.775391 0)"/>
     <use xlink:href="#DejaVuSans-36" transform="translate(693.5625 0)"/>
     <use xlink:href="#DejaVuSans-73" transform="translate(757.185547 0)"/>
     <use xlink:href="#DejaVuSans-20" transform="translate(809.285156 0)"/>
     <use xlink:href="#DejaVuSans-20" transform="translate(841.072266 0)"/>
     <use xlink:href="#DejaVuSans-64" transform="translate(872.859375 0)"/>
     <use xlink:href="#DejaVuSans-61" transform="translate(936.335938 0)"/>
     <use xlink:href="#DejaVuSans-74" transform="translate(997.615234 0)"/>
     <use xlink:href="#DejaVuSans-61" transform="translate(1036.824219 0)"/>
     <use xlink:href="#DejaVuSans-5f" transform="translate(1098.103516 0)"/>
     <use xlink:href="#DejaVuSans-34" transform="translate(1148.103516 0)"/>
     <use xlink:href="#DejaVuSans-5f" transform="translate(1211.726562 0)"/>
     <use xlink:href="#DejaVuSans-45" transform="translate(1261.726562 0)"/>
     <use xlink:href="#DejaVuSans-34" transform="translate(1324.910156 0)"/>
     <use xlink:href="#DejaVuSans-29" transform="translate(1388.533203 0)"/>
    </g>
   </g>
   <g id="legend_1">
    <g id="patch_7">
     <path d="M 45.27 77.474375 
L 138.17625 77.474375 
Q 140.17625 77.474375 140.17625 75.474375 
L 140.17625 32.44 
Q 140.17625 30.44 138.17625 30.44 
L 45.27 30.44 
Q 43.27 30.44 43.27 32.44 
L 43.27 75.474375 
Q 43.27 77.474375 45.27 77.474375 
z
" style="fill: #ffffff; opacity: 0.8; stroke: #cccccc; stroke-linejoin: miter"/>
    </g>
    <g id="line2d_30">
     <path d="M 47.27 38.538437 
L 57.27 38.538437 
L 67.27 38.538437 
" style="fill: none; stroke-dasharray: 1.85,0.8; stroke-dashoffset: 0; stroke: #1f77b4; stroke-width: 0.5"/>
    </g>
    <g id="text_17">
     <!-- Filtered EDA -->
     <g transform="translate(75.27 42.038437) scale(0.1 -0.1)">
      <defs>
       <path id="DejaVuSans-46" d="M 628 4666 
L 3309 4666 
L 3309 4134 
L 1259 4134 
L 1259 2759 
L 3109 2759 
L 3109 2228 
L 1259 2228 
L 1259 0 
L 628 0 
L 628 4666 
z
" transform="scale(0.015625)"/>
       <path id="DejaVuSans-72" d="M 2631 2963 
Q 2534 3019 2420 3045 
Q 2306 3072 2169 3072 
Q 1681 3072 1420 2755 
Q 1159 2438 1159 1844 
L 1159 0 
L 581 0 
L 581 3500 
L 1159 3500 
L 1159 2956 
Q 1341 3275 1631 3429 
Q 1922 3584 2338 3584 
Q 2397 3584 2469 3576 
Q 2541 3569 2628 3553 
L 2631 2963 
z
" transform="scale(0.015625)"/>
      </defs>
      <use xlink:href="#DejaVuSans-46"/>
      <use xlink:href="#DejaVuSans-69" transform="translate(50.269531 0)"/>
      <use xlink:href="#DejaVuSans-6c" transform="translate(78.052734 0)"/>
      <use xlink:href="#DejaVuSans-74" transform="translate(105.835938 0)"/>
      <use xlink:href="#DejaVuSans-65" transform="translate(145.044922 0)"/>
      <use xlink:href="#DejaVuSans-72" transform="translate(206.568359 0)"/>
      <use xlink:href="#DejaVuSans-65" transform="translate(245.431641 0)"/>
      <use xlink:href="#DejaVuSans-64" transform="translate(306.955078 0)"/>
      <use xlink:href="#DejaVuSans-20" transform="translate(370.431641 0)"/>
      <use xlink:href="#DejaVuSans-45" transform="translate(402.21875 0)"/>
      <use xlink:href="#DejaVuSans-44" transform="translate(465.402344 0)"/>
      <use xlink:href="#DejaVuSans-41" transform="translate(540.654297 0)"/>
     </g>
    </g>
    <g id="line2d_31">
     <path d="M 47.27 53.216562 
L 57.27 53.216562 
L 67.27 53.216562 
" style="fill: none; stroke: #ff7f0e; stroke-width: 0.5; stroke-linecap: square"/>
    </g>
    <g id="text_18">
     <!-- Tonic -->
     <g transform="translate(75.27 56.716562) scale(0.1 -0.1)">
      <defs>
       <path id="DejaVuSans-6f" d="M 1959 3097 
Q 1497 3097 1228 2736 
Q 959 2375 959 1747 
Q 959 1119 1226 758 
Q 1494 397 1959 397 
Q 2419 397 2687 759 
Q 2956 1122 2956 1747 
Q 2956 2369 2687 2733 
Q 2419 3097 1959 3097 
z
M 1959 3584 
Q 2709 3584 3137 3096 
Q 3566 2609 3566 1747 
Q 3566 888 3137 398 
Q 2709 -91 1959 -91 
Q 1206 -91 779 398 
Q 353 888 353 1747 
Q 353 2609 779 3096 
Q 1206 3584 1959 3584 
z
" transform="scale(0.015625)"/>
      </defs>
      <use xlink:href="#DejaVuSans-54"/>
      <use xlink:href="#DejaVuSans-6f" transform="translate(44.083984 0)"/>
      <use xlink:href="#DejaVuSans-6e" transform="translate(105.265625 0)"/>
      <use xlink:href="#DejaVuSans-69" transform="translate(168.644531 0)"/>
      <use xlink:href="#DejaVuSans-63" transform="translate(196.427734 0)"/>
     </g>
    </g>
    <g id="line2d_32">
     <path d="M 47.27 67.894687 
L 57.27 67.894687 
L 67.27 67.894687 
" style="fill: none; stroke: #2ca02c; stroke-width: 0.5; stroke-linecap: square"/>
    </g>
    <g id="text_19">
     <!-- Phasic -->
     <g transform="translate(75.27 71.394687) scale(0.1 -0.1)">
      <defs>
       <path id="DejaVuSans-50" d="M 1259 4147 
L 1259 2394 
L 2053 2394 
Q 2494 2394 2734 2622 
Q 2975 2850 2975 3272 
Q 2975 3691 2734 3919 
Q 2494 4147 2053 4147 
L 1259 4147 
z
M 628 4666 
L 2053 4666 
Q 2838 4666 3239 4311 
Q 3641 3956 3641 3272 
Q 3641 2581 3239 2228 
Q 2838 1875 2053 1875 
L 1259 1875 
L 1259 0 
L 628 0 
L 628 4666 
z
" transform="scale(0.015625)"/>
       <path id="DejaVuSans-68" d="M 3513 2113 
L 3513 0 
L 2938 0 
L 2938 2094 
Q 2938 2591 2744 2837 
Q 2550 3084 2163 3084 
Q 1697 3084 1428 2787 
Q 1159 2491 1159 1978 
L 1159 0 
L 581 0 
L 581 4863 
L 1159 4863 
L 1159 2956 
Q 1366 3272 1645 3428 
Q 1925 3584 2291 3584 
Q 2894 3584 3203 3211 
Q 3513 2838 3513 2113 
z
" transform="scale(0.015625)"/>
      </defs>
      <use xlink:href="#DejaVuSans-50"/>
      <use xlink:href="#DejaVuSans-68" transform="translate(60.302734 0)"/>
      <use xlink:href="#DejaVuSans-61" transform="translate(123.681641 0)"/>
      <use xlink:href="#DejaVuSans-73" transform="translate(184.960938 0)"/>
      <use xlink:href="#DejaVuSans-69" transform="translate(237.060547 0)"/>
      <use xlink:href="#DejaVuSans-63" transform="translate(264.84375 0)"/>
     </g>
    </g>
   </g>
  </g>
 </g>
 <defs>
  <clipPath id="p462914a755">
   <rect x="38.27" y="25.44" width="411.73" height="278.2"/>
  </clipPath>
 </defs>
</svg>
