<?xml version="1.0" encoding="utf-8" standalone="no"?>
<!DOCTYPE svg PUBLIC "-//W3C//DTD SVG 1.1//EN"
  "http://www.w3.org/Graphics/SVG/1.1/DTD/svg11.dtd">
<svg xmlns:xlink="http://www.w3.org/1999/xlink" width="460.8pt" height="345.6pt" viewBox="0 0 460.8 345.6" xmlns="http://www.w3.org/2000/svg" version="1.1">
 <metadata>
  <rdf:RDF xmlns:dc="http://purl.org/dc/elements/1.1/" xmlns:cc="http://creativecommons.org/ns#" xmlns:rdf="http://www.w3.org/1999/02/22-rdf-syntax-ns#">
   <cc:Work>
    <dc:type rdf:resource="http://purl.org/dc/dcmitype/StillImage"/>
    <dc:date>2025-09-22T14:19:02.212257</dc:date>
    <dc:format>image/svg+xml</dc:format>
    <dc:creator>
     <cc:Agent>
      <dc:title>Matplotlib v3.10.0, https://matplotlib.org/</dc:title>
     </cc:Agent>
    </dc:creator>
   </cc:Work>
  </rdf:RDF>
 </metadata>
 <defs>
  <style type="text/css">*{stroke-linejoin: round; stroke-linecap: butt}</style>
 </defs>
 <g id="figure_1">
  <g id="patch_1">
   <path d="M 0 345.6 
L 460.8 345.6 
L 460.8 0 
L 0 0 
z
" style="fill: #ffffff"/>
  </g>
  <g id="axes_1">
   <g id="patch_2">
    <path d="M 47.81 303.64 
L 450 303.64 
L 450 25.44 
L 47.81 25.44 
z
" style="fill: #ffffff"/>
   </g>
   <g id="matplotlib.axis_1">
    <g id="xtick_1">
     <g id="line2d_1">
      <path d="M 66.091364 303.64 
L 66.091364 25.44 
" clip-path="url(#pd6ded99e83)" style="fill: none; stroke: #b0b0b0; stroke-opacity: 0.3; stroke-width: 0.8; stroke-linecap: square"/>
     </g>
     <g id="line2d_2">
      <defs>
       <path id="mafaf18670b" d="M 0 0 
L 0 3.5 
" style="stroke: #000000; stroke-width: 0.8"/>
      </defs>
      <g>
       <use xlink:href="#mafaf18670b" x="66.091364" y="303.64" style="stroke: #000000; stroke-width: 0.8"/>
      </g>
     </g>
     <g id="text_1">
      <!-- 0 -->
      <g transform="translate(62.910114 318.238437) scale(0.1 -0.1)">
       <defs>
        <path id="DejaVuSans-30" d="M 2034 4250 
Q 1547 4250 1301 3770 
Q 1056 3291 1056 2328 
Q 1056 1369 1301 889 
Q 1547 409 2034 409 
Q 2525 409 2770 889 
Q 3016 1369 3016 2328 
Q 3016 3291 2770 3770 
Q 2525 4250 2034 4250 
z
M 2034 4750 
Q 2819 4750 3233 4129 
Q 3647 3509 3647 2328 
Q 3647 1150 3233 529 
Q 2819 -91 2034 -91 
Q 1250 -91 836 529 
Q 422 1150 422 2328 
Q 422 3509 836 4129 
Q 1250 4750 2034 4750 
z
" transform="scale(0.015625)"/>
       </defs>
       <use xlink:href="#DejaVuSans-30"/>
      </g>
     </g>
    </g>
    <g id="xtick_2">
     <g id="line2d_3">
      <path d="M 114.841667 303.64 
L 114.841667 25.44 
" clip-path="url(#pd6ded99e83)" style="fill: none; stroke: #b0b0b0; stroke-opacity: 0.3; stroke-width: 0.8; stroke-linecap: square"/>
     </g>
     <g id="line2d_4">
      <g>
       <use xlink:href="#mafaf18670b" x="114.841667" y="303.64" style="stroke: #000000; stroke-width: 0.8"/>
      </g>
     </g>
     <g id="text_2">
      <!-- 2 -->
      <g transform="translate(111.660417 318.238437) scale(0.1 -0.1)">
       <defs>
        <path id="DejaVuSans-32" d="M 1228 531 
L 3431 531 
L 3431 0 
L 469 0 
L 469 531 
Q 828 903 1448 1529 
Q 2069 2156 2228 2338 
Q 2531 2678 2651 2914 
Q 2772 3150 2772 3378 
Q 2772 3750 2511 3984 
Q 2250 4219 1831 4219 
Q 1534 4219 1204 4116 
Q 875 4013 500 3803 
L 500 4441 
Q 881 4594 1212 4672 
Q 1544 4750 1819 4750 
Q 2544 4750 2975 4387 
Q 3406 4025 3406 3419 
Q 3406 3131 3298 2873 
Q 3191 2616 2906 2266 
Q 2828 2175 2409 1742 
Q 1991 1309 1228 531 
z
" transform="scale(0.015625)"/>
       </defs>
       <use xlink:href="#DejaVuSans-32"/>
      </g>
     </g>
    </g>
    <g id="xtick_3">
     <g id="line2d_5">
      <path d="M 163.59197 303.64 
L 163.59197 25.44 
" clip-path="url(#pd6ded99e83)" style="fill: none; stroke: #b0b0b0; stroke-opacity: 0.3; stroke-width: 0.8; stroke-linecap: square"/>
     </g>
     <g id="line2d_6">
      <g>
       <use xlink:href="#mafaf18670b" x="163.59197" y="303.64" style="stroke: #000000; stroke-width: 0.8"/>
      </g>
     </g>
     <g id="text_3">
      <!-- 4 -->
      <g transform="translate(160.41072 318.238437) scale(0.1 -0.1)">
       <defs>
        <path id="DejaVuSans-34" d="M 2419 4116 
L 825 1625 
L 2419 1625 
L 2419 4116 
z
M 2253 4666 
L 3047 4666 
L 3047 1625 
L 3713 1625 
L 3713 1100 
L 3047 1100 
L 3047 0 
L 2419 0 
L 2419 1100 
L 313 1100 
L 313 1709 
L 2253 4666 
z
" transform="scale(0.015625)"/>
       </defs>
       <use xlink:href="#DejaVuSans-34"/>
      </g>
     </g>
    </g>
    <g id="xtick_4">
     <g id="line2d_7">
      <path d="M 212.342273 303.64 
L 212.342273 25.44 
" clip-path="url(#pd6ded99e83)" style="fill: none; stroke: #b0b0b0; stroke-opacity: 0.3; stroke-width: 0.8; stroke-linecap: square"/>
     </g>
     <g id="line2d_8">
      <g>
       <use xlink:href="#mafaf18670b" x="212.342273" y="303.64" style="stroke: #000000; stroke-width: 0.8"/>
      </g>
     </g>
     <g id="text_4">
      <!-- 6 -->
      <g transform="translate(209.161023 318.238437) scale(0.1 -0.1)">
       <defs>
        <path id="DejaVuSans-36" d="M 2113 2584 
Q 1688 2584 1439 2293 
Q 1191 2003 1191 1497 
Q 1191 994 1439 701 
Q 1688 409 2113 409 
Q 2538 409 2786 701 
Q 3034 994 3034 1497 
Q 3034 2003 2786 2293 
Q 2538 2584 2113 2584 
z
M 3366 4563 
L 3366 3988 
Q 3128 4100 2886 4159 
Q 2644 4219 2406 4219 
Q 1781 4219 1451 3797 
Q 1122 3375 1075 2522 
Q 1259 2794 1537 2939 
Q 1816 3084 2150 3084 
Q 2853 3084 3261 2657 
Q 3669 2231 3669 1497 
Q 3669 778 3244 343 
Q 2819 -91 2113 -91 
Q 1303 -91 875 529 
Q 447 1150 447 2328 
Q 447 3434 972 4092 
Q 1497 4750 2381 4750 
Q 2619 4750 2861 4703 
Q 3103 4656 3366 4563 
z
" transform="scale(0.015625)"/>
       </defs>
       <use xlink:href="#DejaVuSans-36"/>
      </g>
     </g>
    </g>
    <g id="xtick_5">
     <g id="line2d_9">
      <path d="M 261.092576 303.64 
L 261.092576 25.44 
" clip-path="url(#pd6ded99e83)" style="fill: none; stroke: #b0b0b0; stroke-opacity: 0.3; stroke-width: 0.8; stroke-linecap: square"/>
     </g>
     <g id="line2d_10">
      <g>
       <use xlink:href="#mafaf18670b" x="261.092576" y="303.64" style="stroke: #000000; stroke-width: 0.8"/>
      </g>
     </g>
     <g id="text_5">
      <!-- 8 -->
      <g transform="translate(257.911326 318.238437) scale(0.1 -0.1)">
       <defs>
        <path id="DejaVuSans-38" d="M 2034 2216 
Q 1584 2216 1326 1975 
Q 1069 1734 1069 1313 
Q 1069 891 1326 650 
Q 1584 409 2034 409 
Q 2484 409 2743 651 
Q 3003 894 3003 1313 
Q 3003 1734 2745 1975 
Q 2488 2216 2034 2216 
z
M 1403 2484 
Q 997 2584 770 2862 
Q 544 3141 544 3541 
Q 544 4100 942 4425 
Q 1341 4750 2034 4750 
Q 2731 4750 3128 4425 
Q 3525 4100 3525 3541 
Q 3525 3141 3298 2862 
Q 3072 2584 2669 2484 
Q 3125 2378 3379 2068 
Q 3634 1759 3634 1313 
Q 3634 634 3220 271 
Q 2806 -91 2034 -91 
Q 1263 -91 848 271 
Q 434 634 434 1313 
Q 434 1759 690 2068 
Q 947 2378 1403 2484 
z
M 1172 3481 
Q 1172 3119 1398 2916 
Q 1625 2713 2034 2713 
Q 2441 2713 2670 2916 
Q 2900 3119 2900 3481 
Q 2900 3844 2670 4047 
Q 2441 4250 2034 4250 
Q 1625 4250 1398 4047 
Q 1172 3844 1172 3481 
z
" transform="scale(0.015625)"/>
       </defs>
       <use xlink:href="#DejaVuSans-38"/>
      </g>
     </g>
    </g>
    <g id="xtick_6">
     <g id="line2d_11">
      <path d="M 309.842879 303.64 
L 309.842879 25.44 
" clip-path="url(#pd6ded99e83)" style="fill: none; stroke: #b0b0b0; stroke-opacity: 0.3; stroke-width: 0.8; stroke-linecap: square"/>
     </g>
     <g id="line2d_12">
      <g>
       <use xlink:href="#mafaf18670b" x="309.842879" y="303.64" style="stroke: #000000; stroke-width: 0.8"/>
      </g>
     </g>
     <g id="text_6">
      <!-- 10 -->
      <g transform="translate(303.480379 318.238437) scale(0.1 -0.1)">
       <defs>
        <path id="DejaVuSans-31" d="M 794 531 
L 1825 531 
L 1825 4091 
L 703 3866 
L 703 4441 
L 1819 4666 
L 2450 4666 
L 2450 531 
L 3481 531 
L 3481 0 
L 794 0 
L 794 531 
z
" transform="scale(0.015625)"/>
       </defs>
       <use xlink:href="#DejaVuSans-31"/>
       <use xlink:href="#DejaVuSans-30" transform="translate(63.623047 0)"/>
      </g>
     </g>
    </g>
    <g id="xtick_7">
     <g id="line2d_13">
      <path d="M 358.593182 303.64 
L 358.593182 25.44 
" clip-path="url(#pd6ded99e83)" style="fill: none; stroke: #b0b0b0; stroke-opacity: 0.3; stroke-width: 0.8; stroke-linecap: square"/>
     </g>
     <g id="line2d_14">
      <g>
       <use xlink:href="#mafaf18670b" x="358.593182" y="303.64" style="stroke: #000000; stroke-width: 0.8"/>
      </g>
     </g>
     <g id="text_7">
      <!-- 12 -->
      <g transform="translate(352.230682 318.238437) scale(0.1 -0.1)">
       <use xlink:href="#DejaVuSans-31"/>
       <use xlink:href="#DejaVuSans-32" transform="translate(63.623047 0)"/>
      </g>
     </g>
    </g>
    <g id="xtick_8">
     <g id="line2d_15">
      <path d="M 407.343485 303.64 
L 407.343485 25.44 
" clip-path="url(#pd6ded99e83)" style="fill: none; stroke: #b0b0b0; stroke-opacity: 0.3; stroke-width: 0.8; stroke-linecap: square"/>
     </g>
     <g id="line2d_16">
      <g>
       <use xlink:href="#mafaf18670b" x="407.343485" y="303.64" style="stroke: #000000; stroke-width: 0.8"/>
      </g>
     </g>
     <g id="text_8">
      <!-- 14 -->
      <g transform="translate(400.980985 318.238437) scale(0.1 -0.1)">
       <use xlink:href="#DejaVuSans-31"/>
       <use xlink:href="#DejaVuSans-34" transform="translate(63.623047 0)"/>
      </g>
     </g>
    </g>
    <g id="text_9">
     <!-- Time (minutes) -->
     <g transform="translate(210.9425 331.916562) scale(0.1 -0.1)">
      <defs>
       <path id="DejaVuSans-54" d="M -19 4666 
L 3928 4666 
L 3928 4134 
L 2272 4134 
L 2272 0 
L 1638 0 
L 1638 4134 
L -19 4134 
L -19 4666 
z
" transform="scale(0.015625)"/>
       <path id="DejaVuSans-69" d="M 603 3500 
L 1178 3500 
L 1178 0 
L 603 0 
L 603 3500 
z
M 603 4863 
L 1178 4863 
L 1178 4134 
L 603 4134 
L 603 4863 
z
" transform="scale(0.015625)"/>
       <path id="DejaVuSans-6d" d="M 3328 2828 
Q 3544 3216 3844 3400 
Q 4144 3584 4550 3584 
Q 5097 3584 5394 3201 
Q 5691 2819 5691 2113 
L 5691 0 
L 5113 0 
L 5113 2094 
Q 5113 2597 4934 2840 
Q 4756 3084 4391 3084 
Q 3944 3084 3684 2787 
Q 3425 2491 3425 1978 
L 3425 0 
L 2847 0 
L 2847 2094 
Q 2847 2600 2669 2842 
Q 2491 3084 2119 3084 
Q 1678 3084 1418 2786 
Q 1159 2488 1159 1978 
L 1159 0 
L 581 0 
L 581 3500 
L 1159 3500 
L 1159 2956 
Q 1356 3278 1631 3431 
Q 1906 3584 2284 3584 
Q 2666 3584 2933 3390 
Q 3200 3197 3328 2828 
z
" transform="scale(0.015625)"/>
       <path id="DejaVuSans-65" d="M 3597 1894 
L 3597 1613 
L 953 1613 
Q 991 1019 1311 708 
Q 1631 397 2203 397 
Q 2534 397 2845 478 
Q 3156 559 3463 722 
L 3463 178 
Q 3153 47 2828 -22 
Q 2503 -91 2169 -91 
Q 1331 -91 842 396 
Q 353 884 353 1716 
Q 353 2575 817 3079 
Q 1281 3584 2069 3584 
Q 2775 3584 3186 3129 
Q 3597 2675 3597 1894 
z
M 3022 2063 
Q 3016 2534 2758 2815 
Q 2500 3097 2075 3097 
Q 1594 3097 1305 2825 
Q 1016 2553 972 2059 
L 3022 2063 
z
" transform="scale(0.015625)"/>
       <path id="DejaVuSans-20" transform="scale(0.015625)"/>
       <path id="DejaVuSans-28" d="M 1984 4856 
Q 1566 4138 1362 3434 
Q 1159 2731 1159 2009 
Q 1159 1288 1364 580 
Q 1569 -128 1984 -844 
L 1484 -844 
Q 1016 -109 783 600 
Q 550 1309 550 2009 
Q 550 2706 781 3412 
Q 1013 4119 1484 4856 
L 1984 4856 
z
" transform="scale(0.015625)"/>
       <path id="DejaVuSans-6e" d="M 3513 2113 
L 3513 0 
L 2938 0 
L 2938 2094 
Q 2938 2591 2744 2837 
Q 2550 3084 2163 3084 
Q 1697 3084 1428 2787 
Q 1159 2491 1159 1978 
L 1159 0 
L 581 0 
L 581 3500 
L 1159 3500 
L 1159 2956 
Q 1366 3272 1645 3428 
Q 1925 3584 2291 3584 
Q 2894 3584 3203 3211 
Q 3513 2838 3513 2113 
z
" transform="scale(0.015625)"/>
       <path id="DejaVuSans-75" d="M 544 1381 
L 544 3500 
L 1119 3500 
L 1119 1403 
Q 1119 906 1312 657 
Q 1506 409 1894 409 
Q 2359 409 2629 706 
Q 2900 1003 2900 1516 
L 2900 3500 
L 3475 3500 
L 3475 0 
L 2900 0 
L 2900 538 
Q 2691 219 2414 64 
Q 2138 -91 1772 -91 
Q 1169 -91 856 284 
Q 544 659 544 1381 
z
M 1991 3584 
L 1991 3584 
z
" transform="scale(0.015625)"/>
       <path id="DejaVuSans-74" d="M 1172 4494 
L 1172 3500 
L 2356 3500 
L 2356 3053 
L 1172 3053 
L 1172 1153 
Q 1172 725 1289 603 
Q 1406 481 1766 481 
L 2356 481 
L 2356 0 
L 1766 0 
Q 1100 0 847 248 
Q 594 497 594 1153 
L 594 3053 
L 172 3053 
L 172 3500 
L 594 3500 
L 594 4494 
L 1172 4494 
z
" transform="scale(0.015625)"/>
       <path id="DejaVuSans-73" d="M 2834 3397 
L 2834 2853 
Q 2591 2978 2328 3040 
Q 2066 3103 1784 3103 
Q 1356 3103 1142 2972 
Q 928 2841 928 2578 
Q 928 2378 1081 2264 
Q 1234 2150 1697 2047 
L 1894 2003 
Q 2506 1872 2764 1633 
Q 3022 1394 3022 966 
Q 3022 478 2636 193 
Q 2250 -91 1575 -91 
Q 1294 -91 989 -36 
Q 684 19 347 128 
L 347 722 
Q 666 556 975 473 
Q 1284 391 1588 391 
Q 1994 391 2212 530 
Q 2431 669 2431 922 
Q 2431 1156 2273 1281 
Q 2116 1406 1581 1522 
L 1381 1569 
Q 847 1681 609 1914 
Q 372 2147 372 2553 
Q 372 3047 722 3315 
Q 1072 3584 1716 3584 
Q 2034 3584 2315 3537 
Q 2597 3491 2834 3397 
z
" transform="scale(0.015625)"/>
       <path id="DejaVuSans-29" d="M 513 4856 
L 1013 4856 
Q 1481 4119 1714 3412 
Q 1947 2706 1947 2009 
Q 1947 1309 1714 600 
Q 1481 -109 1013 -844 
L 513 -844 
Q 928 -128 1133 580 
Q 1338 1288 1338 2009 
Q 1338 2731 1133 3434 
Q 928 4138 513 4856 
z
" transform="scale(0.015625)"/>
      </defs>
      <use xlink:href="#DejaVuSans-54"/>
      <use xlink:href="#DejaVuSans-69" transform="translate(57.958984 0)"/>
      <use xlink:href="#DejaVuSans-6d" transform="translate(85.742188 0)"/>
      <use xlink:href="#DejaVuSans-65" transform="translate(183.154297 0)"/>
      <use xlink:href="#DejaVuSans-20" transform="translate(244.677734 0)"/>
      <use xlink:href="#DejaVuSans-28" transform="translate(276.464844 0)"/>
      <use xlink:href="#DejaVuSans-6d" transform="translate(315.478516 0)"/>
      <use xlink:href="#DejaVuSans-69" transform="translate(412.890625 0)"/>
      <use xlink:href="#DejaVuSans-6e" transform="translate(440.673828 0)"/>
      <use xlink:href="#DejaVuSans-75" transform="translate(504.052734 0)"/>
      <use xlink:href="#DejaVuSans-74" transform="translate(567.431641 0)"/>
      <use xlink:href="#DejaVuSans-65" transform="translate(606.640625 0)"/>
      <use xlink:href="#DejaVuSans-73" transform="translate(668.164062 0)"/>
      <use xlink:href="#DejaVuSans-29" transform="translate(720.263672 0)"/>
     </g>
    </g>
   </g>
   <g id="matplotlib.axis_2">
    <g id="ytick_1">
     <g id="line2d_17">
      <path d="M 47.81 289.678159 
L 450 289.678159 
" clip-path="url(#pd6ded99e83)" style="fill: none; stroke: #b0b0b0; stroke-opacity: 0.3; stroke-width: 0.8; stroke-linecap: square"/>
     </g>
     <g id="line2d_18">
      <defs>
       <path id="m69d802cb3a" d="M 0 0 
L -3.5 0 
" style="stroke: #000000; stroke-width: 0.8"/>
      </defs>
      <g>
       <use xlink:href="#m69d802cb3a" x="47.81" y="289.678159" style="stroke: #000000; stroke-width: 0.8"/>
      </g>
     </g>
     <g id="text_10">
      <!-- 0.0 -->
      <g transform="translate(24.906875 293.477378) scale(0.1 -0.1)">
       <defs>
        <path id="DejaVuSans-2e" d="M 684 794 
L 1344 794 
L 1344 0 
L 684 0 
L 684 794 
z
" transform="scale(0.015625)"/>
       </defs>
       <use xlink:href="#DejaVuSans-30"/>
       <use xlink:href="#DejaVuSans-2e" transform="translate(63.623047 0)"/>
       <use xlink:href="#DejaVuSans-30" transform="translate(95.410156 0)"/>
      </g>
     </g>
    </g>
    <g id="ytick_2">
     <g id="line2d_19">
      <path d="M 47.81 257.055816 
L 450 257.055816 
" clip-path="url(#pd6ded99e83)" style="fill: none; stroke: #b0b0b0; stroke-opacity: 0.3; stroke-width: 0.8; stroke-linecap: square"/>
     </g>
     <g id="line2d_20">
      <g>
       <use xlink:href="#m69d802cb3a" x="47.81" y="257.055816" style="stroke: #000000; stroke-width: 0.8"/>
      </g>
     </g>
     <g id="text_11">
      <!-- 0.5 -->
      <g transform="translate(24.906875 260.855034) scale(0.1 -0.1)">
       <defs>
        <path id="DejaVuSans-35" d="M 691 4666 
L 3169 4666 
L 3169 4134 
L 1269 4134 
L 1269 2991 
Q 1406 3038 1543 3061 
Q 1681 3084 1819 3084 
Q 2600 3084 3056 2656 
Q 3513 2228 3513 1497 
Q 3513 744 3044 326 
Q 2575 -91 1722 -91 
Q 1428 -91 1123 -41 
Q 819 9 494 109 
L 494 744 
Q 775 591 1075 516 
Q 1375 441 1709 441 
Q 2250 441 2565 725 
Q 2881 1009 2881 1497 
Q 2881 1984 2565 2268 
Q 2250 2553 1709 2553 
Q 1456 2553 1204 2497 
Q 953 2441 691 2322 
L 691 4666 
z
" transform="scale(0.015625)"/>
       </defs>
       <use xlink:href="#DejaVuSans-30"/>
       <use xlink:href="#DejaVuSans-2e" transform="translate(63.623047 0)"/>
       <use xlink:href="#DejaVuSans-35" transform="translate(95.410156 0)"/>
      </g>
     </g>
    </g>
    <g id="ytick_3">
     <g id="line2d_21">
      <path d="M 47.81 224.433473 
L 450 224.433473 
" clip-path="url(#pd6ded99e83)" style="fill: none; stroke: #b0b0b0; stroke-opacity: 0.3; stroke-width: 0.8; stroke-linecap: square"/>
     </g>
     <g id="line2d_22">
      <g>
       <use xlink:href="#m69d802cb3a" x="47.81" y="224.433473" style="stroke: #000000; stroke-width: 0.8"/>
      </g>
     </g>
     <g id="text_12">
      <!-- 1.0 -->
      <g transform="translate(24.906875 228.232691) scale(0.1 -0.1)">
       <use xlink:href="#DejaVuSans-31"/>
       <use xlink:href="#DejaVuSans-2e" transform="translate(63.623047 0)"/>
       <use xlink:href="#DejaVuSans-30" transform="translate(95.410156 0)"/>
      </g>
     </g>
    </g>
    <g id="ytick_4">
     <g id="line2d_23">
      <path d="M 47.81 191.811129 
L 450 191.811129 
" clip-path="url(#pd6ded99e83)" style="fill: none; stroke: #b0b0b0; stroke-opacity: 0.3; stroke-width: 0.8; stroke-linecap: square"/>
     </g>
     <g id="line2d_24">
      <g>
       <use xlink:href="#m69d802cb3a" x="47.81" y="191.811129" style="stroke: #000000; stroke-width: 0.8"/>
      </g>
     </g>
     <g id="text_13">
      <!-- 1.5 -->
      <g transform="translate(24.906875 195.610348) scale(0.1 -0.1)">
       <use xlink:href="#DejaVuSans-31"/>
       <use xlink:href="#DejaVuSans-2e" transform="translate(63.623047 0)"/>
       <use xlink:href="#DejaVuSans-35" transform="translate(95.410156 0)"/>
      </g>
     </g>
    </g>
    <g id="ytick_5">
     <g id="line2d_25">
      <path d="M 47.81 159.188786 
L 450 159.188786 
" clip-path="url(#pd6ded99e83)" style="fill: none; stroke: #b0b0b0; stroke-opacity: 0.3; stroke-width: 0.8; stroke-linecap: square"/>
     </g>
     <g id="line2d_26">
      <g>
       <use xlink:href="#m69d802cb3a" x="47.81" y="159.188786" style="stroke: #000000; stroke-width: 0.8"/>
      </g>
     </g>
     <g id="text_14">
      <!-- 2.0 -->
      <g transform="translate(24.906875 162.988005) scale(0.1 -0.1)">
       <use xlink:href="#DejaVuSans-32"/>
       <use xlink:href="#DejaVuSans-2e" transform="translate(63.623047 0)"/>
       <use xlink:href="#DejaVuSans-30" transform="translate(95.410156 0)"/>
      </g>
     </g>
    </g>
    <g id="ytick_6">
     <g id="line2d_27">
      <path d="M 47.81 126.566443 
L 450 126.566443 
" clip-path="url(#pd6ded99e83)" style="fill: none; stroke: #b0b0b0; stroke-opacity: 0.3; stroke-width: 0.8; stroke-linecap: square"/>
     </g>
     <g id="line2d_28">
      <g>
       <use xlink:href="#m69d802cb3a" x="47.81" y="126.566443" style="stroke: #000000; stroke-width: 0.8"/>
      </g>
     </g>
     <g id="text_15">
      <!-- 2.5 -->
      <g transform="translate(24.906875 130.365662) scale(0.1 -0.1)">
       <use xlink:href="#DejaVuSans-32"/>
       <use xlink:href="#DejaVuSans-2e" transform="translate(63.623047 0)"/>
       <use xlink:href="#DejaVuSans-35" transform="translate(95.410156 0)"/>
      </g>
     </g>
    </g>
    <g id="ytick_7">
     <g id="line2d_29">
      <path d="M 47.81 93.9441 
L 450 93.9441 
" clip-path="url(#pd6ded99e83)" style="fill: none; stroke: #b0b0b0; stroke-opacity: 0.3; stroke-width: 0.8; stroke-linecap: square"/>
     </g>
     <g id="line2d_30">
      <g>
       <use xlink:href="#m69d802cb3a" x="47.81" y="93.9441" style="stroke: #000000; stroke-width: 0.8"/>
      </g>
     </g>
     <g id="text_16">
      <!-- 3.0 -->
      <g transform="translate(24.906875 97.743319) scale(0.1 -0.1)">
       <defs>
        <path id="DejaVuSans-33" d="M 2597 2516 
Q 3050 2419 3304 2112 
Q 3559 1806 3559 1356 
Q 3559 666 3084 287 
Q 2609 -91 1734 -91 
Q 1441 -91 1130 -33 
Q 819 25 488 141 
L 488 750 
Q 750 597 1062 519 
Q 1375 441 1716 441 
Q 2309 441 2620 675 
Q 2931 909 2931 1356 
Q 2931 1769 2642 2001 
Q 2353 2234 1838 2234 
L 1294 2234 
L 1294 2753 
L 1863 2753 
Q 2328 2753 2575 2939 
Q 2822 3125 2822 3475 
Q 2822 3834 2567 4026 
Q 2313 4219 1838 4219 
Q 1578 4219 1281 4162 
Q 984 4106 628 3988 
L 628 4550 
Q 988 4650 1302 4700 
Q 1616 4750 1894 4750 
Q 2613 4750 3031 4423 
Q 3450 4097 3450 3541 
Q 3450 3153 3228 2886 
Q 3006 2619 2597 2516 
z
" transform="scale(0.015625)"/>
       </defs>
       <use xlink:href="#DejaVuSans-33"/>
       <use xlink:href="#DejaVuSans-2e" transform="translate(63.623047 0)"/>
       <use xlink:href="#DejaVuSans-30" transform="translate(95.410156 0)"/>
      </g>
     </g>
    </g>
    <g id="ytick_8">
     <g id="line2d_31">
      <path d="M 47.81 61.321757 
L 450 61.321757 
" clip-path="url(#pd6ded99e83)" style="fill: none; stroke: #b0b0b0; stroke-opacity: 0.3; stroke-width: 0.8; stroke-linecap: square"/>
     </g>
     <g id="line2d_32">
      <g>
       <use xlink:href="#m69d802cb3a" x="47.81" y="61.321757" style="stroke: #000000; stroke-width: 0.8"/>
      </g>
     </g>
     <g id="text_17">
      <!-- 3.5 -->
      <g transform="translate(24.906875 65.120975) scale(0.1 -0.1)">
       <use xlink:href="#DejaVuSans-33"/>
       <use xlink:href="#DejaVuSans-2e" transform="translate(63.623047 0)"/>
       <use xlink:href="#DejaVuSans-35" transform="translate(95.410156 0)"/>
      </g>
     </g>
    </g>
    <g id="ytick_9">
     <g id="line2d_33">
      <path d="M 47.81 28.699413 
L 450 28.699413 
" clip-path="url(#pd6ded99e83)" style="fill: none; stroke: #b0b0b0; stroke-opacity: 0.3; stroke-width: 0.8; stroke-linecap: square"/>
     </g>
     <g id="line2d_34">
      <g>
       <use xlink:href="#m69d802cb3a" x="47.81" y="28.699413" style="stroke: #000000; stroke-width: 0.8"/>
      </g>
     </g>
     <g id="text_18">
      <!-- 4.0 -->
      <g transform="translate(24.906875 32.498632) scale(0.1 -0.1)">
       <use xlink:href="#DejaVuSans-34"/>
       <use xlink:href="#DejaVuSans-2e" transform="translate(63.623047 0)"/>
       <use xlink:href="#DejaVuSans-30" transform="translate(95.410156 0)"/>
      </g>
     </g>
    </g>
    <g id="text_19">
     <!-- Gaussian filtered EDA (μS) -->
     <g transform="translate(18.827188 230.613437) rotate(-90) scale(0.1 -0.1)">
      <defs>
       <path id="DejaVuSans-47" d="M 3809 666 
L 3809 1919 
L 2778 1919 
L 2778 2438 
L 4434 2438 
L 4434 434 
Q 4069 175 3628 42 
Q 3188 -91 2688 -91 
Q 1594 -91 976 548 
Q 359 1188 359 2328 
Q 359 3472 976 4111 
Q 1594 4750 2688 4750 
Q 3144 4750 3555 4637 
Q 3966 4525 4313 4306 
L 4313 3634 
Q 3963 3931 3569 4081 
Q 3175 4231 2741 4231 
Q 1884 4231 1454 3753 
Q 1025 3275 1025 2328 
Q 1025 1384 1454 906 
Q 1884 428 2741 428 
Q 3075 428 3337 486 
Q 3600 544 3809 666 
z
" transform="scale(0.015625)"/>
       <path id="DejaVuSans-61" d="M 2194 1759 
Q 1497 1759 1228 1600 
Q 959 1441 959 1056 
Q 959 750 1161 570 
Q 1363 391 1709 391 
Q 2188 391 2477 730 
Q 2766 1069 2766 1631 
L 2766 1759 
L 2194 1759 
z
M 3341 1997 
L 3341 0 
L 2766 0 
L 2766 531 
Q 2569 213 2275 61 
Q 1981 -91 1556 -91 
Q 1019 -91 701 211 
Q 384 513 384 1019 
Q 384 1609 779 1909 
Q 1175 2209 1959 2209 
L 2766 2209 
L 2766 2266 
Q 2766 2663 2505 2880 
Q 2244 3097 1772 3097 
Q 1472 3097 1187 3025 
Q 903 2953 641 2809 
L 641 3341 
Q 956 3463 1253 3523 
Q 1550 3584 1831 3584 
Q 2591 3584 2966 3190 
Q 3341 2797 3341 1997 
z
" transform="scale(0.015625)"/>
       <path id="DejaVuSans-66" d="M 2375 4863 
L 2375 4384 
L 1825 4384 
Q 1516 4384 1395 4259 
Q 1275 4134 1275 3809 
L 1275 3500 
L 2222 3500 
L 2222 3053 
L 1275 3053 
L 1275 0 
L 697 0 
L 697 3053 
L 147 3053 
L 147 3500 
L 697 3500 
L 697 3744 
Q 697 4328 969 4595 
Q 1241 4863 1831 4863 
L 2375 4863 
z
" transform="scale(0.015625)"/>
       <path id="DejaVuSans-6c" d="M 603 4863 
L 1178 4863 
L 1178 0 
L 603 0 
L 603 4863 
z
" transform="scale(0.015625)"/>
       <path id="DejaVuSans-72" d="M 2631 2963 
Q 2534 3019 2420 3045 
Q 2306 3072 2169 3072 
Q 1681 3072 1420 2755 
Q 1159 2438 1159 1844 
L 1159 0 
L 581 0 
L 581 3500 
L 1159 3500 
L 1159 2956 
Q 1341 3275 1631 3429 
Q 1922 3584 2338 3584 
Q 2397 3584 2469 3576 
Q 2541 3569 2628 3553 
L 2631 2963 
z
" transform="scale(0.015625)"/>
       <path id="DejaVuSans-64" d="M 2906 2969 
L 2906 4863 
L 3481 4863 
L 3481 0 
L 2906 0 
L 2906 525 
Q 2725 213 2448 61 
Q 2172 -91 1784 -91 
Q 1150 -91 751 415 
Q 353 922 353 1747 
Q 353 2572 751 3078 
Q 1150 3584 1784 3584 
Q 2172 3584 2448 3432 
Q 2725 3281 2906 2969 
z
M 947 1747 
Q 947 1113 1208 752 
Q 1469 391 1925 391 
Q 2381 391 2643 752 
Q 2906 1113 2906 1747 
Q 2906 2381 2643 2742 
Q 2381 3103 1925 3103 
Q 1469 3103 1208 2742 
Q 947 2381 947 1747 
z
" transform="scale(0.015625)"/>
       <path id="DejaVuSans-45" d="M 628 4666 
L 3578 4666 
L 3578 4134 
L 1259 4134 
L 1259 2753 
L 3481 2753 
L 3481 2222 
L 1259 2222 
L 1259 531 
L 3634 531 
L 3634 0 
L 628 0 
L 628 4666 
z
" transform="scale(0.015625)"/>
       <path id="DejaVuSans-44" d="M 1259 4147 
L 1259 519 
L 2022 519 
Q 2988 519 3436 956 
Q 3884 1394 3884 2338 
Q 3884 3275 3436 3711 
Q 2988 4147 2022 4147 
L 1259 4147 
z
M 628 4666 
L 1925 4666 
Q 3281 4666 3915 4102 
Q 4550 3538 4550 2338 
Q 4550 1131 3912 565 
Q 3275 0 1925 0 
L 628 0 
L 628 4666 
z
" transform="scale(0.015625)"/>
       <path id="DejaVuSans-41" d="M 2188 4044 
L 1331 1722 
L 3047 1722 
L 2188 4044 
z
M 1831 4666 
L 2547 4666 
L 4325 0 
L 3669 0 
L 3244 1197 
L 1141 1197 
L 716 0 
L 50 0 
L 1831 4666 
z
" transform="scale(0.015625)"/>
       <path id="DejaVuSans-3bc" d="M 544 -1331 
L 544 3500 
L 1119 3500 
L 1119 1325 
Q 1119 872 1334 640 
Q 1550 409 1972 409 
Q 2434 409 2667 671 
Q 2900 934 2900 1459 
L 2900 3500 
L 3475 3500 
L 3475 806 
Q 3475 619 3529 530 
Q 3584 441 3700 441 
Q 3728 441 3778 458 
Q 3828 475 3916 513 
L 3916 50 
Q 3788 -22 3673 -56 
Q 3559 -91 3450 -91 
Q 3234 -91 3106 31 
Q 2978 153 2931 403 
Q 2775 156 2548 32 
Q 2322 -91 2016 -91 
Q 1697 -91 1473 31 
Q 1250 153 1119 397 
L 1119 -1331 
L 544 -1331 
z
" transform="scale(0.015625)"/>
       <path id="DejaVuSans-53" d="M 3425 4513 
L 3425 3897 
Q 3066 4069 2747 4153 
Q 2428 4238 2131 4238 
Q 1616 4238 1336 4038 
Q 1056 3838 1056 3469 
Q 1056 3159 1242 3001 
Q 1428 2844 1947 2747 
L 2328 2669 
Q 3034 2534 3370 2195 
Q 3706 1856 3706 1288 
Q 3706 609 3251 259 
Q 2797 -91 1919 -91 
Q 1588 -91 1214 -16 
Q 841 59 441 206 
L 441 856 
Q 825 641 1194 531 
Q 1563 422 1919 422 
Q 2459 422 2753 634 
Q 3047 847 3047 1241 
Q 3047 1584 2836 1778 
Q 2625 1972 2144 2069 
L 1759 2144 
Q 1053 2284 737 2584 
Q 422 2884 422 3419 
Q 422 4038 858 4394 
Q 1294 4750 2059 4750 
Q 2388 4750 2728 4690 
Q 3069 4631 3425 4513 
z
" transform="scale(0.015625)"/>
      </defs>
      <use xlink:href="#DejaVuSans-47"/>
      <use xlink:href="#DejaVuSans-61" transform="translate(77.490234 0)"/>
      <use xlink:href="#DejaVuSans-75" transform="translate(138.769531 0)"/>
      <use xlink:href="#DejaVuSans-73" transform="translate(202.148438 0)"/>
      <use xlink:href="#DejaVuSans-73" transform="translate(254.248047 0)"/>
      <use xlink:href="#DejaVuSans-69" transform="translate(306.347656 0)"/>
      <use xlink:href="#DejaVuSans-61" transform="translate(334.130859 0)"/>
      <use xlink:href="#DejaVuSans-6e" transform="translate(395.410156 0)"/>
      <use xlink:href="#DejaVuSans-20" transform="translate(458.789062 0)"/>
      <use xlink:href="#DejaVuSans-66" transform="translate(490.576172 0)"/>
      <use xlink:href="#DejaVuSans-69" transform="translate(525.78125 0)"/>
      <use xlink:href="#DejaVuSans-6c" transform="translate(553.564453 0)"/>
      <use xlink:href="#DejaVuSans-74" transform="translate(581.347656 0)"/>
      <use xlink:href="#DejaVuSans-65" transform="translate(620.556641 0)"/>
      <use xlink:href="#DejaVuSans-72" transform="translate(682.080078 0)"/>
      <use xlink:href="#DejaVuSans-65" transform="translate(720.943359 0)"/>
      <use xlink:href="#DejaVuSans-64" transform="translate(782.466797 0)"/>
      <use xlink:href="#DejaVuSans-20" transform="translate(845.943359 0)"/>
      <use xlink:href="#DejaVuSans-45" transform="translate(877.730469 0)"/>
      <use xlink:href="#DejaVuSans-44" transform="translate(940.914062 0)"/>
      <use xlink:href="#DejaVuSans-41" transform="translate(1016.166016 0)"/>
      <use xlink:href="#DejaVuSans-20" transform="translate(1084.574219 0)"/>
      <use xlink:href="#DejaVuSans-28" transform="translate(1116.361328 0)"/>
      <use xlink:href="#DejaVuSans-3bc" transform="translate(1155.375 0)"/>
      <use xlink:href="#DejaVuSans-53" transform="translate(1218.998047 0)"/>
      <use xlink:href="#DejaVuSans-29" transform="translate(1282.474609 0)"/>
     </g>
    </g>
   </g>
   <g id="line2d_35">
    <path d="M 66.091364 241.632839 
L 68.733473 241.579249 
L 70.461006 241.59578 
L 71.273963 241.343448 
L 73.103115 240.605963 
L 73.611213 240.704933 
L 74.220931 241.063969 
L 75.237126 241.979071 
L 76.456561 243.316142 
L 78.285714 245.519744 
L 78.692192 245.641488 
L 79.098671 245.533455 
L 79.606769 245.13022 
L 81.8424 242.664833 
L 82.350497 241.801315 
L 82.858595 240.480162 
L 83.569933 237.827549 
L 84.586128 234.045888 
L 84.890987 233.486237 
L 85.094226 233.359027 
L 85.297466 233.445406 
L 85.602324 233.97577 
L 86.008803 235.348774 
L 86.72014 238.853999 
L 87.634716 243.202289 
L 88.244434 245.104765 
L 88.752531 246.070434 
L 89.362249 246.726465 
L 90.073586 247.119884 
L 90.886543 247.305905 
L 91.699499 247.256139 
L 93.223793 246.830482 
L 94.443228 246.645659 
L 96.374 246.63285 
L 97.898294 246.568295 
L 98.711251 246.291327 
L 100.743643 245.420434 
L 101.35336 245.527878 
L 102.064697 245.905107 
L 104.503567 247.671501 
L 106.43434 249.010893 
L 107.145677 249.2308 
L 107.857014 249.244691 
L 108.66997 249.035825 
L 109.584547 248.539176 
L 111.921797 247.052797 
L 112.836373 246.855513 
L 113.954189 246.864453 
L 121.575658 247.370462 
L 123.60805 247.416124 
L 127.266355 247.892776 
L 129.197127 248.04302 
L 132.347334 248.279204 
L 138.749368 248.632311 
L 140.578521 248.909313 
L 143.322249 249.47008 
L 144.338445 249.324027 
L 146.675696 248.847626 
L 147.99675 248.878169 
L 160.597579 249.892629 
L 183.665225 251.091292 
L 188.136487 251.195729 
L 196.672532 251.393452 
L 197.993587 251.254345 
L 198.908163 250.956238 
L 200.025979 250.340871 
L 201.448653 249.588715 
L 202.464849 249.322223 
L 203.989143 249.193118 
L 208.562024 249.090323 
L 209.57822 249.268849 
L 210.492796 249.661596 
L 211.712231 250.485297 
L 213.236525 251.463766 
L 214.45596 251.957844 
L 215.878634 252.289622 
L 217.199689 252.395787 
L 218.012646 252.283061 
L 218.622363 252.006586 
L 219.232081 251.481358 
L 219.943418 250.537193 
L 221.366092 248.498193 
L 221.87419 248.144585 
L 222.382288 248.078957 
L 222.992005 248.285011 
L 224.516299 248.973351 
L 225.126017 248.957375 
L 225.634115 248.735332 
L 226.243832 248.217136 
L 227.869746 246.599101 
L 228.276224 246.516722 
L 228.682702 246.647063 
L 229.1908 247.071483 
L 230.308616 248.45335 
L 231.121572 249.278464 
L 231.832909 249.714477 
L 232.747486 249.987921 
L 234.17016 250.134706 
L 236.812269 250.135886 
L 237.828465 250.262612 
L 238.641422 250.597373 
L 239.759237 251.352497 
L 240.775433 251.951019 
L 241.58839 252.164966 
L 242.604586 252.170616 
L 244.128879 251.942439 
L 245.246695 251.535131 
L 246.872608 250.692941 
L 247.685565 250.023522 
L 248.396902 249.143725 
L 249.616337 247.170069 
L 250.632533 245.703267 
L 251.34387 245.056413 
L 252.055207 244.720224 
L 253.274642 244.474579 
L 254.087599 244.209325 
L 254.697316 243.802174 
L 255.307034 243.145297 
L 256.22161 241.752374 
L 257.237806 240.248628 
L 257.745904 239.821091 
L 258.152382 239.706414 
L 258.558861 239.795588 
L 259.066959 240.157752 
L 259.778296 240.996238 
L 261.810688 243.627674 
L 262.623644 244.229507 
L 263.53822 244.60619 
L 265.062514 244.932721 
L 267.196526 245.167987 
L 270.549972 245.402121 
L 273.903418 245.99113 
L 277.460104 246.313445 
L 280.711931 246.365911 
L 282.845942 246.694654 
L 283.760518 246.557116 
L 284.675094 246.200655 
L 285.589671 245.620864 
L 286.402627 244.869547 
L 287.215584 243.800023 
L 288.028541 242.338354 
L 289.552835 238.959381 
L 290.77227 236.570925 
L 293.414379 231.802334 
L 294.735434 229.331492 
L 295.446771 228.395957 
L 296.056488 227.927843 
L 296.564586 227.830566 
L 296.971064 228.013517 
L 297.377543 228.528889 
L 297.784021 229.515967 
L 298.1905 231.14195 
L 298.698597 234.299211 
L 299.308315 239.837229 
L 301.137468 258.413891 
L 301.543946 260.265143 
L 301.950424 261.087049 
L 302.356903 261.330625 
L 302.763381 261.592211 
L 303.06824 262.128931 
L 303.373098 263.119061 
L 303.881196 265.805572 
L 305.100631 273.269005 
L 305.40549 274.014334 
L 305.608729 274.05948 
L 305.811969 273.717494 
L 306.116827 272.481072 
L 306.523306 269.613368 
L 307.234643 262.391301 
L 308.352458 251.094487 
L 308.962176 247.162552 
L 309.470274 245.27371 
L 309.876752 244.480049 
L 310.28323 244.129601 
L 310.689709 244.060731 
L 311.299426 244.221916 
L 312.82372 244.729614 
L 313.535057 244.671426 
L 314.246394 244.367746 
L 315.973927 243.508898 
L 316.685264 243.496478 
L 317.498221 243.732717 
L 320.546809 244.823145 
L 322.477581 245.240049 
L 323.697016 245.28065 
L 325.526168 245.063566 
L 327.152082 244.952604 
L 328.269897 245.08475 
L 329.489332 245.483669 
L 331.318485 246.097815 
L 332.639539 246.250963 
L 335.586507 246.295001 
L 337.51728 246.356831 
L 338.736715 246.662569 
L 340.769106 247.214455 
L 341.886922 247.257615 
L 342.903118 247.069242 
L 345.443607 246.447842 
L 346.663042 246.477185 
L 350.422967 246.939869 
L 353.369935 247.324578 
L 354.58937 247.283968 
L 355.605566 247.034912 
L 356.926621 246.46782 
L 357.739577 245.95009 
L 358.247675 245.402882 
L 358.755773 244.514316 
L 359.263871 243.152366 
L 359.873589 240.8286 
L 360.788165 236.307052 
L 362.210839 229.377102 
L 363.328655 225.225249 
L 364.141611 221.927491 
L 364.751329 218.345712 
L 365.361046 213.145024 
L 366.072383 204.64686 
L 366.98696 190.433827 
L 371.559841 114.281333 
L 371.966319 111.39789 
L 372.271178 110.480664 
L 372.474417 110.432267 
L 372.677657 110.765536 
L 373.084135 112.168126 
L 373.592233 113.855184 
L 373.795472 114.011919 
L 373.998711 113.660823 
L 374.20195 112.697672 
L 374.506809 109.975682 
L 374.913287 103.98167 
L 375.624625 88.921291 
L 376.64082 67.513327 
L 377.250538 59.095057 
L 377.758636 54.745762 
L 378.266734 52.051705 
L 378.774832 50.340686 
L 379.28293 49.325151 
L 379.587788 49.091175 
L 379.791028 49.138027 
L 379.994267 49.382219 
L 380.299126 50.189832 
L 380.705604 52.243462 
L 381.112082 55.55668 
L 381.7218 62.829314 
L 383.449333 85.832901 
L 383.754191 87.445151 
L 383.957431 87.814793 
L 384.05905 87.785392 
L 384.262289 87.310677 
L 384.567148 85.639924 
L 385.075246 80.894808 
L 386.59954 64.987433 
L 387.006018 62.926181 
L 387.310877 62.222477 
L 387.514116 62.126827 
L 387.717355 62.295711 
L 388.022214 62.955548 
L 388.631932 65.116628 
L 389.343269 67.43022 
L 389.648127 67.910752 
L 389.851367 67.998423 
L 390.054606 67.892203 
L 390.359465 67.381151 
L 390.765943 66.117277 
L 391.37566 63.277291 
L 392.188617 58.284467 
L 393.204813 50.500962 
L 394.424248 41.233729 
L 394.932346 38.880799 
L 395.237205 38.200247 
L 395.440444 38.085455 
L 395.643683 38.246638 
L 395.948542 38.993287 
L 396.35502 40.841062 
L 396.964738 44.950832 
L 398.590651 56.577488 
L 399.301988 59.881754 
L 401.131141 67.556794 
L 403.366772 78.561803 
L 403.87487 79.942575 
L 404.281348 80.434266 
L 404.484587 80.453127 
L 404.789446 80.194255 
L 405.195924 79.349666 
L 405.704022 77.666018 
L 407.736414 70.233776 
L 408.65099 68.185476 
L 410.378523 65.012724 
L 411.597958 63.160183 
L 412.512534 62.131427 
L 413.122252 61.702974 
L 413.63035 61.604859 
L 414.036828 61.797468 
L 414.341687 62.173794 
L 414.748165 63.098665 
L 415.154644 64.640127 
L 415.662742 67.592755 
L 416.272459 72.61938 
L 418.203231 90.249087 
L 418.711329 92.730473 
L 419.219427 94.209324 
L 420.337243 96.801711 
L 420.845341 98.868929 
L 421.455058 102.4018 
L 422.572874 110.573603 
L 423.893928 119.716393 
L 424.910124 125.157414 
L 425.92632 129.340081 
L 427.044135 132.945475 
L 428.26357 136.076693 
L 429.686245 139.61129 
L 430.397582 142.089847 
L 431.210538 145.825705 
L 431.718636 148.440773 
L 431.718636 148.440773 
" clip-path="url(#pd6ded99e83)" style="fill: none; stroke-dasharray: 1.85,0.8; stroke-dashoffset: 0; stroke: #1f77b4; stroke-width: 0.5"/>
   </g>
   <g id="line2d_36">
    <path d="M 66.091364 242.766948 
L 66.599462 241.045799 
L 67.00594 240.381134 
L 67.310799 240.227228 
L 67.615657 240.318052 
L 68.022136 240.741078 
L 68.631853 241.803185 
L 69.952908 244.266485 
L 70.359386 244.631644 
L 70.765865 244.706326 
L 71.172343 244.544019 
L 71.680441 244.093268 
L 72.696637 242.781569 
L 73.611213 241.732498 
L 74.119311 241.448733 
L 74.525789 241.463844 
L 75.033887 241.767675 
L 75.643605 242.43618 
L 78.082475 245.523569 
L 78.590573 245.670256 
L 79.098671 245.536954 
L 79.708388 245.089441 
L 80.521345 244.173207 
L 82.452117 241.8733 
L 83.163454 241.427947 
L 83.773172 241.278859 
L 84.382889 241.333864 
L 85.094226 241.642525 
L 85.805563 242.199217 
L 86.61852 243.118328 
L 87.837955 244.893062 
L 89.463869 247.187531 
L 90.276825 247.945211 
L 90.886543 248.218211 
L 91.49626 248.244831 
L 92.207597 248.046012 
L 93.325413 247.459551 
L 94.646467 246.794916 
L 95.561044 246.593992 
L 96.882098 246.569878 
L 98.711251 246.544474 
L 100.337164 246.201831 
L 101.45498 246.063941 
L 102.267936 246.171874 
L 102.979274 246.489517 
L 103.89385 247.182797 
L 106.2311 249.10813 
L 106.942437 249.358225 
L 107.653775 249.340021 
L 108.466731 249.068816 
L 109.686166 248.382014 
L 111.31208 247.488419 
L 112.531515 247.11023 
L 113.852569 246.945754 
L 115.478483 246.985937 
L 121.270799 247.363817 
L 123.60805 247.460383 
L 131.127899 248.182385 
L 139.359086 248.707783 
L 143.627108 249.396121 
L 145.049782 249.219018 
L 147.691892 248.858002 
L 149.216186 248.960067 
L 153.382589 249.381759 
L 157.244133 249.597847 
L 161.817014 249.964465 
L 175.332419 250.620453 
L 185.697617 251.133512 
L 193.827184 251.489927 
L 195.757956 251.529146 
L 197.18063 251.332416 
L 199.009783 250.823386 
L 204.090762 249.26033 
L 205.818295 249.031087 
L 207.342589 249.046422 
L 208.765263 249.268977 
L 210.187937 249.710124 
L 211.610612 250.379331 
L 213.134906 251.350393 
L 214.964058 252.495247 
L 215.878634 252.800503 
L 216.589971 252.815767 
L 217.301309 252.607342 
L 218.215885 252.099215 
L 221.366092 250.128239 
L 222.890386 249.688638 
L 224.617919 249.14271 
L 226.142213 248.336216 
L 227.463267 247.742723 
L 228.276224 247.619239 
L 228.987561 247.754339 
L 229.800518 248.1821 
L 231.223192 249.263957 
L 232.442627 250.075805 
L 233.153964 250.317343 
L 233.966921 250.363954 
L 235.287975 250.176256 
L 236.60903 250.058289 
L 237.421987 250.205063 
L 238.438183 250.621456 
L 241.791629 252.185332 
L 242.807825 252.310694 
L 243.824021 252.210136 
L 244.840217 251.870442 
L 245.856412 251.290652 
L 247.380706 250.123125 
L 250.327674 247.810173 
L 252.360066 246.218349 
L 253.579501 244.971954 
L 256.119991 242.225478 
L 256.932947 241.71142 
L 257.542665 241.553167 
L 258.254002 241.608946 
L 259.066959 241.91541 
L 260.184774 242.598006 
L 262.522025 244.087568 
L 263.944699 244.708461 
L 265.265753 245.050237 
L 266.688428 245.172456 
L 270.448352 245.366138 
L 276.03743 246.228011 
L 279.594115 246.290105 
L 281.524887 246.459118 
L 283.760518 246.728804 
L 284.573475 246.553941 
L 285.284812 246.159459 
L 285.996149 245.475704 
L 286.809106 244.354206 
L 287.926921 242.394585 
L 295.446771 228.247682 
L 295.853249 227.982664 
L 296.158108 227.97419 
L 296.462967 228.157606 
L 296.869445 228.745433 
L 297.275923 229.781861 
L 297.784021 231.801791 
L 298.393739 235.360757 
L 299.206695 241.603687 
L 300.934228 257.282434 
L 302.052044 266.424647 
L 302.865001 271.415085 
L 303.576338 274.430787 
L 304.084436 275.754374 
L 304.490914 276.28686 
L 304.795773 276.366877 
L 305.100631 276.16439 
L 305.40549 275.671497 
L 305.811969 274.548908 
L 306.320066 272.39075 
L 307.031404 268.238181 
L 308.352458 258.807077 
L 309.571893 250.749611 
L 310.28323 247.493163 
L 310.892948 245.79664 
L 311.401046 245.01292 
L 311.807524 244.712386 
L 312.214002 244.635808 
L 312.7221 244.761904 
L 314.652873 245.500254 
L 315.36421 245.355184 
L 316.482025 244.850689 
L 317.80308 244.293388 
L 318.514417 244.218795 
L 319.327374 244.364756 
L 320.648428 244.876401 
L 322.071102 245.363125 
L 322.985679 245.419399 
L 324.205114 245.24001 
L 326.237505 244.914994 
L 327.253701 245.000654 
L 328.676376 245.358268 
L 331.216865 246.02406 
L 333.147637 246.231214 
L 338.635095 246.65678 
L 342.090161 247.245697 
L 343.207976 247.144312 
L 345.138749 246.674141 
L 346.561423 246.437233 
L 347.679238 246.48536 
L 349.406771 246.818094 
L 351.439163 247.159627 
L 353.674794 247.238524 
L 356.215283 247.163198 
L 356.926621 246.851783 
L 357.536338 246.335194 
L 358.146056 245.517003 
L 358.755773 244.329815 
L 359.46711 242.423322 
L 360.381687 239.270596 
L 361.601122 234.204188 
L 363.735133 224.265909 
L 364.54809 219.57271 
L 365.259427 214.261039 
L 365.970764 207.323455 
L 366.682101 198.281604 
L 367.495058 184.929698 
L 370.645265 128.722765 
L 371.254982 122.845113 
L 371.76308 119.943223 
L 372.271178 118.29689 
L 372.779276 117.359518 
L 373.592233 115.970061 
L 373.998711 114.731561 
L 374.405189 112.757403 
L 374.811668 109.767731 
L 375.319766 104.215591 
L 376.031103 93.530743 
L 378.266734 57.496668 
L 378.774832 52.970856 
L 379.07969 51.562831 
L 379.28293 51.249236 
L 379.486169 51.408855 
L 379.689408 51.998888 
L 379.994267 53.597337 
L 380.502365 57.80715 
L 381.315321 67.078003 
L 382.636376 82.468802 
L 383.144474 86.409182 
L 383.550952 88.146793 
L 383.855811 88.671767 
L 384.05905 88.695676 
L 384.262289 88.486421 
L 384.567148 87.78729 
L 384.973627 86.26062 
L 385.684964 82.487246 
L 387.209257 73.92341 
L 387.818975 71.893711 
L 388.428692 70.690479 
L 389.241649 69.703225 
L 389.952986 68.759755 
L 390.461084 67.682192 
L 390.969182 66.014554 
L 391.47728 63.537242 
L 392.188617 58.775001 
L 394.424248 42.683521 
L 394.932346 40.668392 
L 395.237205 40.046124 
L 395.440444 39.916741 
L 395.643683 40.02095 
L 395.948542 40.58075 
L 396.35502 41.997537 
L 396.863118 44.66852 
L 397.676075 50.44125 
L 400.419804 71.456925 
L 401.23276 75.590938 
L 401.944097 78.259655 
L 402.553815 79.848847 
L 403.061913 80.684638 
L 403.468391 81.035595 
L 403.87487 81.109575 
L 404.281348 80.928511 
L 404.789446 80.38271 
L 405.399163 79.325501 
L 406.21212 77.375821 
L 407.329936 74.037179 
L 409.870425 66.264299 
L 410.683382 64.4968 
L 411.293099 63.61837 
L 411.801197 63.24841 
L 412.207676 63.214644 
L 412.614154 63.419695 
L 413.020632 63.868005 
L 413.52873 64.777236 
L 414.138448 66.3914 
L 414.849785 69.014755 
L 415.662742 73.018052 
L 416.577318 78.748605 
L 418.203231 90.714239 
L 419.930764 103.013525 
L 421.150199 109.962381 
L 422.471254 116.111744 
L 424.198787 122.949419 
L 428.26357 137.836011 
L 430.194343 144.542979 
L 431.210538 147.357127 
L 431.718636 148.458177 
L 431.718636 148.458177 
" clip-path="url(#pd6ded99e83)" style="fill: none; stroke: #ff7f0e; stroke-width: 0.5; stroke-linecap: square"/>
   </g>
   <g id="line2d_37">
    <path d="M 66.091364 289.678159 
L 66.192983 289.678159 
L 66.294603 288.760256 
L 66.599462 290.747685 
L 66.802701 290.994545 
L 67.00594 290.937996 
L 68.530234 289.684427 
L 69.851288 287.230306 
L 70.359386 286.697654 
L 70.765865 286.54076 
L 71.273963 286.588767 
L 71.88368 286.891955 
L 72.696637 287.572372 
L 73.103115 288.121092 
L 73.712833 288.879366 
L 74.32255 289.29385 
L 75.135507 289.536202 
L 75.948464 289.584342 
L 76.86304 289.366753 
L 77.472757 289.460664 
L 78.793812 289.631056 
L 81.63916 289.676667 
L 82.248878 289.655139 
L 82.553737 289.261962 
L 82.960215 288.346466 
L 83.569933 286.240531 
L 84.687748 282.097595 
L 85.094226 281.435129 
L 85.297466 281.387012 
L 85.500705 281.533809 
L 85.805563 282.099677 
L 86.313661 283.652005 
L 87.329857 287.557331 
L 87.837955 288.528514 
L 88.346053 289.06076 
L 88.955771 289.386339 
L 89.260629 289.425476 
L 90.784923 288.822564 
L 91.801119 288.768636 
L 92.918935 288.939974 
L 93.528652 289.163407 
L 94.443228 289.494138 
L 95.662663 289.636654 
L 98.101533 289.646935 
L 100.845262 289.016633 
L 102.572795 289.575294 
L 104.198709 289.664017 
L 105.113285 289.571224 
L 106.535959 289.539176 
L 108.568351 289.664727 
L 111.108841 289.595883 
L 112.429895 289.492673 
L 117.409255 289.677469 
L 194.030423 289.614802 
L 195.656337 289.61769 
L 198.298446 289.675637 
L 200.025979 289.580708 
L 201.448653 289.315391 
L 202.464849 289.363123 
L 204.294001 289.635782 
L 207.342589 289.677045 
L 208.663644 289.571477 
L 209.883079 289.510638 
L 211.813851 289.659535 
L 213.846243 289.618664 
L 215.675395 289.217182 
L 216.386732 289.271255 
L 217.606167 289.572759 
L 219.232081 289.663755 
L 219.638559 289.622783 
L 220.553135 288.798196 
L 221.366092 288.088262 
L 221.87419 287.904206 
L 222.382288 287.980757 
L 222.992005 288.319106 
L 224.109821 289.257211 
L 224.922778 289.52152 
L 226.142213 289.643023 
L 226.447071 289.541927 
L 227.971365 288.642052 
L 228.581083 288.638592 
L 229.089181 288.961108 
L 229.800518 289.35546 
L 230.715094 289.57189 
L 232.137768 289.644357 
L 233.255584 289.443705 
L 233.865301 289.490865 
L 235.389595 289.645571 
L 237.726845 289.642325 
L 238.438183 289.621819 
L 241.893249 289.676697 
L 243.011064 289.543202 
L 244.433738 289.549524 
L 246.36451 289.664354 
L 248.396902 289.587497 
L 249.311478 288.847476 
L 250.429294 287.932763 
L 251.039011 287.717858 
L 251.547109 287.749053 
L 252.156827 288.013045 
L 252.664925 288.378315 
L 253.477881 289.131912 
L 254.189219 289.446564 
L 255.205414 289.611636 
L 255.916751 289.577694 
L 257.237806 288.360953 
L 257.949143 287.899109 
L 258.457241 287.808924 
L 259.066959 287.960635 
L 259.879915 288.439882 
L 261.09935 289.335585 
L 261.912307 289.550967 
L 263.334981 289.656025 
L 268.415961 289.676975 
L 283.557279 289.588003 
L 284.979953 289.380897 
L 288.028541 289.668394 
L 289.247976 289.574536 
L 290.365791 289.405674 
L 295.65001 289.677485 
L 296.158108 289.635489 
L 296.767825 289.047264 
L 297.479162 287.955865 
L 298.393739 286.598464 
L 298.800217 286.416321 
L 299.003456 286.64598 
L 300.121272 288.721931 
L 300.730989 289.221384 
L 301.035848 289.281244 
L 301.340707 288.363809 
L 301.848805 285.73957 
L 302.865001 280.030322 
L 303.169859 279.253549 
L 303.373098 279.129666 
L 303.576338 279.329973 
L 303.982816 280.502538 
L 304.592533 284.300466 
L 305.100631 286.677532 
L 305.608729 288.052864 
L 306.116827 288.789221 
L 306.218447 288.746643 
L 306.624925 287.683849 
L 307.336262 284.800742 
L 307.94598 282.673276 
L 308.352458 282.005744 
L 308.555697 281.949166 
L 308.758937 282.074681 
L 309.063795 282.570153 
L 309.571893 283.994448 
L 310.892948 288.075747 
L 311.401046 288.811241 
L 312.010763 289.267473 
L 312.7221 289.50694 
L 313.128579 289.493398 
L 315.26259 288.102395 
L 315.872308 288.099713 
L 316.583645 288.375339 
L 318.311178 289.471646 
L 319.428993 289.625789 
L 321.054907 289.630907 
L 322.375961 289.548654 
L 324.611592 289.668156 
L 327.863419 289.597302 
L 329.082854 289.587742 
L 331.318485 289.671741 
L 336.602703 289.607199 
L 337.618899 289.627912 
L 340.667487 289.67686 
L 343.004737 289.580159 
L 344.529031 289.470995 
L 346.764662 289.661109 
L 353.166696 289.676673 
L 355.300707 289.581892 
L 356.621762 289.325732 
L 358.552534 289.635939 
L 359.670349 289.626491 
L 360.483306 288.734588 
L 361.397882 287.756935 
L 361.804361 287.585543 
L 362.210839 287.648358 
L 362.515698 287.787134 
L 363.938372 289.250924 
L 364.649709 289.49897 
L 365.259427 289.575114 
L 365.462666 289.344327 
L 365.970764 288.413265 
L 366.88534 286.617156 
L 367.190199 286.379086 
L 367.495058 286.405747 
L 367.901536 286.775564 
L 368.917732 288.658049 
L 369.527449 289.189651 
L 369.933928 289.296878 
L 370.340406 288.421222 
L 370.746884 286.924669 
L 371.8647 282.130731 
L 372.067939 281.849452 
L 372.372798 281.92841 
L 372.576037 282.606601 
L 373.592233 287.209347 
L 374.100331 288.340487 
L 374.20195 288.476246 
L 374.30357 288.388689 
L 374.608429 287.038225 
L 375.116527 283.144046 
L 376.031103 275.807708 
L 376.335962 274.567637 
L 376.539201 274.275999 
L 376.64082 274.295573 
L 376.84406 274.664168 
L 377.148918 275.955804 
L 377.657016 279.530607 
L 378.368353 284.931243 
L 378.876451 287.093499 
L 379.18131 287.830402 
L 379.28293 287.804171 
L 379.587788 287.155423 
L 379.994267 285.503608 
L 381.010463 280.955785 
L 381.315321 280.335009 
L 381.518561 280.234608 
L 381.7218 280.396368 
L 381.925039 280.805086 
L 382.331517 282.21364 
L 383.246094 286.784682 
L 383.754191 288.106785 
L 384.16067 288.674287 
L 384.262289 288.563626 
L 384.567148 287.57237 
L 385.075246 284.820064 
L 386.091442 278.977215 
L 386.49792 277.835667 
L 386.701159 277.639051 
L 386.904399 277.687809 
L 387.209257 278.17471 
L 387.615736 279.439983 
L 388.225453 282.232414 
L 389.03841 286.469272 
L 389.546508 287.930638 
L 390.054606 288.73837 
L 390.562704 289.140961 
L 391.5789 288.921015 
L 393.001574 289.448195 
L 393.408052 289.264043 
L 394.01777 288.685647 
L 394.729107 288.031505 
L 395.237205 287.872074 
L 395.745303 287.982352 
L 396.964738 289.20254 
L 397.676075 289.478024 
L 397.980934 289.525416 
L 398.184173 289.250402 
L 398.590651 288.261539 
L 399.301988 285.736705 
L 400.114945 283.10902 
L 400.521423 282.356403 
L 400.826282 282.110382 
L 401.131141 282.137482 
L 401.436 282.415138 
L 401.842478 283.111861 
L 402.553815 284.890593 
L 403.976489 288.598061 
L 404.484587 289.09694 
L 405.094305 289.39424 
L 405.297544 289.250051 
L 405.907261 288.417001 
L 406.720218 287.33726 
L 407.126696 287.099655 
L 407.533175 287.124197 
L 408.041273 287.464442 
L 408.854229 288.422393 
L 409.463947 289.049453 
L 410.073664 289.37731 
L 410.988241 289.580207 
L 411.496339 289.593071 
L 412.106056 289.060057 
L 412.715774 288.169464 
L 413.52873 286.540293 
L 414.646546 284.350585 
L 415.053024 283.994369 
L 415.357883 284.007129 
L 415.662742 284.296075 
L 416.06922 285.04652 
L 416.983796 287.866706 
L 417.491894 288.693725 
L 417.999992 289.149063 
L 418.203231 289.223708 
L 418.406471 288.850716 
L 418.812949 287.528067 
L 419.727525 283.261816 
L 420.337243 281.024331 
L 420.743721 280.300948 
L 421.04858 280.209156 
L 421.353439 280.473775 
L 421.759917 281.276699 
L 422.471254 283.41306 
L 423.893928 287.749635 
L 424.402026 288.62329 
L 424.910124 289.110121 
L 425.519842 289.409472 
L 426.434418 289.590781 
L 426.739277 289.490776 
L 427.348994 289.028008 
L 428.161951 288.094163 
L 429.381386 286.610339 
L 429.787864 286.403666 
L 430.194343 286.429893 
L 430.397582 286.600403 
L 431.718636 288.902653 
L 431.718636 288.902653 
" clip-path="url(#pd6ded99e83)" style="fill: none; stroke: #2ca02c; stroke-width: 0.5; stroke-linecap: square"/>
   </g>
   <g id="patch_3">
    <path d="M 47.81 303.64 
L 47.81 25.44 
" style="fill: none; stroke: #000000; stroke-width: 0.8; stroke-linejoin: miter; stroke-linecap: square"/>
   </g>
   <g id="patch_4">
    <path d="M 450 303.64 
L 450 25.44 
" style="fill: none; stroke: #000000; stroke-width: 0.8; stroke-linejoin: miter; stroke-linecap: square"/>
   </g>
   <g id="patch_5">
    <path d="M 47.81 303.64 
L 450 303.64 
" style="fill: none; stroke: #000000; stroke-width: 0.8; stroke-linejoin: miter; stroke-linecap: square"/>
   </g>
   <g id="patch_6">
    <path d="M 47.81 25.44 
L 450 25.44 
" style="fill: none; stroke: #000000; stroke-width: 0.8; stroke-linejoin: miter; stroke-linecap: square"/>
   </g>
   <g id="text_20">
    <!-- data_4_E4 Separated EDA plot -->
    <g transform="translate(157.349688 19.44) scale(0.12 -0.12)">
     <defs>
      <path id="DejaVuSans-5f" d="M 3263 -1063 
L 3263 -1509 
L -63 -1509 
L -63 -1063 
L 3263 -1063 
z
" transform="scale(0.015625)"/>
      <path id="DejaVuSans-70" d="M 1159 525 
L 1159 -1331 
L 581 -1331 
L 581 3500 
L 1159 3500 
L 1159 2969 
Q 1341 3281 1617 3432 
Q 1894 3584 2278 3584 
Q 2916 3584 3314 3078 
Q 3713 2572 3713 1747 
Q 3713 922 3314 415 
Q 2916 -91 2278 -91 
Q 1894 -91 1617 61 
Q 1341 213 1159 525 
z
M 3116 1747 
Q 3116 2381 2855 2742 
Q 2594 3103 2138 3103 
Q 1681 3103 1420 2742 
Q 1159 2381 1159 1747 
Q 1159 1113 1420 752 
Q 1681 391 2138 391 
Q 2594 391 2855 752 
Q 3116 1113 3116 1747 
z
" transform="scale(0.015625)"/>
      <path id="DejaVuSans-6f" d="M 1959 3097 
Q 1497 3097 1228 2736 
Q 959 2375 959 1747 
Q 959 1119 1226 758 
Q 1494 397 1959 397 
Q 2419 397 2687 759 
Q 2956 1122 2956 1747 
Q 2956 2369 2687 2733 
Q 2419 3097 1959 3097 
z
M 1959 3584 
Q 2709 3584 3137 3096 
Q 3566 2609 3566 1747 
Q 3566 888 3137 398 
Q 2709 -91 1959 -91 
Q 1206 -91 779 398 
Q 353 888 353 1747 
Q 353 2609 779 3096 
Q 1206 3584 1959 3584 
z
" transform="scale(0.015625)"/>
     </defs>
     <use xlink:href="#DejaVuSans-64"/>
     <use xlink:href="#DejaVuSans-61" transform="translate(63.476562 0)"/>
     <use xlink:href="#DejaVuSans-74" transform="translate(124.755859 0)"/>
     <use xlink:href="#DejaVuSans-61" transform="translate(163.964844 0)"/>
     <use xlink:href="#DejaVuSans-5f" transform="translate(225.244141 0)"/>
     <use xlink:href="#DejaVuSans-34" transform="translate(275.244141 0)"/>
     <use xlink:href="#DejaVuSans-5f" transform="translate(338.867188 0)"/>
     <use xlink:href="#DejaVuSans-45" transform="translate(388.867188 0)"/>
     <use xlink:href="#DejaVuSans-34" transform="translate(452.050781 0)"/>
     <use xlink:href="#DejaVuSans-20" transform="translate(515.673828 0)"/>
     <use xlink:href="#DejaVuSans-53" transform="translate(547.460938 0)"/>
     <use xlink:href="#DejaVuSans-65" transform="translate(610.9375 0)"/>
     <use xlink:href="#DejaVuSans-70" transform="translate(672.460938 0)"/>
     <use xlink:href="#DejaVuSans-61" transform="translate(735.9375 0)"/>
     <use xlink:href="#DejaVuSans-72" transform="translate(797.216797 0)"/>
     <use xlink:href="#DejaVuSans-61" transform="translate(838.330078 0)"/>
     <use xlink:href="#DejaVuSans-74" transform="translate(899.609375 0)"/>
     <use xlink:href="#DejaVuSans-65" transform="translate(938.818359 0)"/>
     <use xlink:href="#DejaVuSans-64" transform="translate(1000.341797 0)"/>
     <use xlink:href="#DejaVuSans-20" transform="translate(1063.818359 0)"/>
     <use xlink:href="#DejaVuSans-45" transform="translate(1095.605469 0)"/>
     <use xlink:href="#DejaVuSans-44" transform="translate(1158.789062 0)"/>
     <use xlink:href="#DejaVuSans-41" transform="translate(1234.041016 0)"/>
     <use xlink:href="#DejaVuSans-20" transform="translate(1302.449219 0)"/>
     <use xlink:href="#DejaVuSans-70" transform="translate(1334.236328 0)"/>
     <use xlink:href="#DejaVuSans-6c" transform="translate(1397.712891 0)"/>
     <use xlink:href="#DejaVuSans-6f" transform="translate(1425.496094 0)"/>
     <use xlink:href="#DejaVuSans-74" transform="translate(1486.677734 0)"/>
    </g>
   </g>
   <g id="legend_1">
    <g id="patch_7">
     <path d="M 54.81 77.474375 
L 147.71625 77.474375 
Q 149.71625 77.474375 149.71625 75.474375 
L 149.71625 32.44 
Q 149.71625 30.44 147.71625 30.44 
L 54.81 30.44 
Q 52.81 30.44 52.81 32.44 
L 52.81 75.474375 
Q 52.81 77.474375 54.81 77.474375 
z
" style="fill: #ffffff; opacity: 0.8; stroke: #cccccc; stroke-linejoin: miter"/>
    </g>
    <g id="line2d_38">
     <path d="M 56.81 38.538437 
L 66.81 38.538437 
L 76.81 38.538437 
" style="fill: none; stroke-dasharray: 1.85,0.8; stroke-dashoffset: 0; stroke: #1f77b4; stroke-width: 0.5"/>
    </g>
    <g id="text_21">
     <!-- Filtered EDA -->
     <g transform="translate(84.81 42.038437) scale(0.1 -0.1)">
      <defs>
       <path id="DejaVuSans-46" d="M 628 4666 
L 3309 4666 
L 3309 4134 
L 1259 4134 
L 1259 2759 
L 3109 2759 
L 3109 2228 
L 1259 2228 
L 1259 0 
L 628 0 
L 628 4666 
z
" transform="scale(0.015625)"/>
      </defs>
      <use xlink:href="#DejaVuSans-46"/>
      <use xlink:href="#DejaVuSans-69" transform="translate(50.269531 0)"/>
      <use xlink:href="#DejaVuSans-6c" transform="translate(78.052734 0)"/>
      <use xlink:href="#DejaVuSans-74" transform="translate(105.835938 0)"/>
      <use xlink:href="#DejaVuSans-65" transform="translate(145.044922 0)"/>
      <use xlink:href="#DejaVuSans-72" transform="translate(206.568359 0)"/>
      <use xlink:href="#DejaVuSans-65" transform="translate(245.431641 0)"/>
      <use xlink:href="#DejaVuSans-64" transform="translate(306.955078 0)"/>
      <use xlink:href="#DejaVuSans-20" transform="translate(370.431641 0)"/>
      <use xlink:href="#DejaVuSans-45" transform="translate(402.21875 0)"/>
      <use xlink:href="#DejaVuSans-44" transform="translate(465.402344 0)"/>
      <use xlink:href="#DejaVuSans-41" transform="translate(540.654297 0)"/>
     </g>
    </g>
    <g id="line2d_39">
     <path d="M 56.81 53.216562 
L 66.81 53.216562 
L 76.81 53.216562 
" style="fill: none; stroke: #ff7f0e; stroke-width: 0.5; stroke-linecap: square"/>
    </g>
    <g id="text_22">
     <!-- Tonic -->
     <g transform="translate(84.81 56.716562) scale(0.1 -0.1)">
      <defs>
       <path id="DejaVuSans-63" d="M 3122 3366 
L 3122 2828 
Q 2878 2963 2633 3030 
Q 2388 3097 2138 3097 
Q 1578 3097 1268 2742 
Q 959 2388 959 1747 
Q 959 1106 1268 751 
Q 1578 397 2138 397 
Q 2388 397 2633 464 
Q 2878 531 3122 666 
L 3122 134 
Q 2881 22 2623 -34 
Q 2366 -91 2075 -91 
Q 1284 -91 818 406 
Q 353 903 353 1747 
Q 353 2603 823 3093 
Q 1294 3584 2113 3584 
Q 2378 3584 2631 3529 
Q 2884 3475 3122 3366 
z
" transform="scale(0.015625)"/>
      </defs>
      <use xlink:href="#DejaVuSans-54"/>
      <use xlink:href="#DejaVuSans-6f" transform="translate(44.083984 0)"/>
      <use xlink:href="#DejaVuSans-6e" transform="translate(105.265625 0)"/>
      <use xlink:href="#DejaVuSans-69" transform="translate(168.644531 0)"/>
      <use xlink:href="#DejaVuSans-63" transform="translate(196.427734 0)"/>
     </g>
    </g>
    <g id="line2d_40">
     <path d="M 56.81 67.894687 
L 66.81 67.894687 
L 76.81 67.894687 
" style="fill: none; stroke: #2ca02c; stroke-width: 0.5; stroke-linecap: square"/>
    </g>
    <g id="text_23">
     <!-- Phasic -->
     <g transform="translate(84.81 71.394687) scale(0.1 -0.1)">
      <defs>
       <path id="DejaVuSans-50" d="M 1259 4147 
L 1259 2394 
L 2053 2394 
Q 2494 2394 2734 2622 
Q 2975 2850 2975 3272 
Q 2975 3691 2734 3919 
Q 2494 4147 2053 4147 
L 1259 4147 
z
M 628 4666 
L 2053 4666 
Q 2838 4666 3239 4311 
Q 3641 3956 3641 3272 
Q 3641 2581 3239 2228 
Q 2838 1875 2053 1875 
L 1259 1875 
L 1259 0 
L 628 0 
L 628 4666 
z
" transform="scale(0.015625)"/>
       <path id="DejaVuSans-68" d="M 3513 2113 
L 3513 0 
L 2938 0 
L 2938 2094 
Q 2938 2591 2744 2837 
Q 2550 3084 2163 3084 
Q 1697 3084 1428 2787 
Q 1159 2491 1159 1978 
L 1159 0 
L 581 0 
L 581 4863 
L 1159 4863 
L 1159 2956 
Q 1366 3272 1645 3428 
Q 1925 3584 2291 3584 
Q 2894 3584 3203 3211 
Q 3513 2838 3513 2113 
z
" transform="scale(0.015625)"/>
      </defs>
      <use xlink:href="#DejaVuSans-50"/>
      <use xlink:href="#DejaVuSans-68" transform="translate(60.302734 0)"/>
      <use xlink:href="#DejaVuSans-61" transform="translate(123.681641 0)"/>
      <use xlink:href="#DejaVuSans-73" transform="translate(184.960938 0)"/>
      <use xlink:href="#DejaVuSans-69" transform="translate(237.060547 0)"/>
      <use xlink:href="#DejaVuSans-63" transform="translate(264.84375 0)"/>
     </g>
    </g>
   </g>
  </g>
 </g>
 <defs>
  <clipPath id="pd6ded99e83">
   <rect x="47.81" y="25.44" width="402.19" height="278.2"/>
  </clipPath>
 </defs>
</svg>
