<?xml version="1.0" encoding="utf-8" standalone="no"?>
<!DOCTYPE svg PUBLIC "-//W3C//DTD SVG 1.1//EN"
  "http://www.w3.org/Graphics/SVG/1.1/DTD/svg11.dtd">
<svg xmlns:xlink="http://www.w3.org/1999/xlink" width="460.8pt" height="345.6pt" viewBox="0 0 460.8 345.6" xmlns="http://www.w3.org/2000/svg" version="1.1">
 <metadata>
  <rdf:RDF xmlns:dc="http://purl.org/dc/elements/1.1/" xmlns:cc="http://creativecommons.org/ns#" xmlns:rdf="http://www.w3.org/1999/02/22-rdf-syntax-ns#">
   <cc:Work>
    <dc:type rdf:resource="http://purl.org/dc/dcmitype/StillImage"/>
    <dc:date>2025-09-22T15:39:24.139230</dc:date>
    <dc:format>image/svg+xml</dc:format>
    <dc:creator>
     <cc:Agent>
      <dc:title>Matplotlib v3.10.0, https://matplotlib.org/</dc:title>
     </cc:Agent>
    </dc:creator>
   </cc:Work>
  </rdf:RDF>
 </metadata>
 <defs>
  <style type="text/css">*{stroke-linejoin: round; stroke-linecap: butt}</style>
 </defs>
 <g id="figure_1">
  <g id="patch_1">
   <path d="M 0 345.6 
L 460.8 345.6 
L 460.8 0 
L 0 0 
z
" style="fill: #ffffff"/>
  </g>
  <g id="axes_1">
   <g id="patch_2">
    <path d="M 38.27 303.64 
L 450 303.64 
L 450 25.44 
L 38.27 25.44 
z
" style="fill: #ffffff"/>
   </g>
   <g id="matplotlib.axis_1">
    <g id="xtick_1">
     <g id="line2d_1">
      <path d="M 56.985 303.64 
L 56.985 25.44 
" clip-path="url(#p0304d03337)" style="fill: none; stroke: #b0b0b0; stroke-opacity: 0.3; stroke-width: 0.8; stroke-linecap: square"/>
     </g>
     <g id="line2d_2">
      <defs>
       <path id="m5762626a53" d="M 0 0 
L 0 3.5 
" style="stroke: #000000; stroke-width: 0.8"/>
      </defs>
      <g>
       <use xlink:href="#m5762626a53" x="56.985" y="303.64" style="stroke: #000000; stroke-width: 0.8"/>
      </g>
     </g>
     <g id="text_1">
      <!-- 0 -->
      <g transform="translate(53.80375 318.238437) scale(0.1 -0.1)">
       <defs>
        <path id="DejaVuSans-30" d="M 2034 4250 
Q 1547 4250 1301 3770 
Q 1056 3291 1056 2328 
Q 1056 1369 1301 889 
Q 1547 409 2034 409 
Q 2525 409 2770 889 
Q 3016 1369 3016 2328 
Q 3016 3291 2770 3770 
Q 2525 4250 2034 4250 
z
M 2034 4750 
Q 2819 4750 3233 4129 
Q 3647 3509 3647 2328 
Q 3647 1150 3233 529 
Q 2819 -91 2034 -91 
Q 1250 -91 836 529 
Q 422 1150 422 2328 
Q 422 3509 836 4129 
Q 1250 4750 2034 4750 
z
" transform="scale(0.015625)"/>
       </defs>
       <use xlink:href="#DejaVuSans-30"/>
      </g>
     </g>
    </g>
    <g id="xtick_2">
     <g id="line2d_3">
      <path d="M 106.891667 303.64 
L 106.891667 25.44 
" clip-path="url(#p0304d03337)" style="fill: none; stroke: #b0b0b0; stroke-opacity: 0.3; stroke-width: 0.8; stroke-linecap: square"/>
     </g>
     <g id="line2d_4">
      <g>
       <use xlink:href="#m5762626a53" x="106.891667" y="303.64" style="stroke: #000000; stroke-width: 0.8"/>
      </g>
     </g>
     <g id="text_2">
      <!-- 2 -->
      <g transform="translate(103.710417 318.238437) scale(0.1 -0.1)">
       <defs>
        <path id="DejaVuSans-32" d="M 1228 531 
L 3431 531 
L 3431 0 
L 469 0 
L 469 531 
Q 828 903 1448 1529 
Q 2069 2156 2228 2338 
Q 2531 2678 2651 2914 
Q 2772 3150 2772 3378 
Q 2772 3750 2511 3984 
Q 2250 4219 1831 4219 
Q 1534 4219 1204 4116 
Q 875 4013 500 3803 
L 500 4441 
Q 881 4594 1212 4672 
Q 1544 4750 1819 4750 
Q 2544 4750 2975 4387 
Q 3406 4025 3406 3419 
Q 3406 3131 3298 2873 
Q 3191 2616 2906 2266 
Q 2828 2175 2409 1742 
Q 1991 1309 1228 531 
z
" transform="scale(0.015625)"/>
       </defs>
       <use xlink:href="#DejaVuSans-32"/>
      </g>
     </g>
    </g>
    <g id="xtick_3">
     <g id="line2d_5">
      <path d="M 156.798333 303.64 
L 156.798333 25.44 
" clip-path="url(#p0304d03337)" style="fill: none; stroke: #b0b0b0; stroke-opacity: 0.3; stroke-width: 0.8; stroke-linecap: square"/>
     </g>
     <g id="line2d_6">
      <g>
       <use xlink:href="#m5762626a53" x="156.798333" y="303.64" style="stroke: #000000; stroke-width: 0.8"/>
      </g>
     </g>
     <g id="text_3">
      <!-- 4 -->
      <g transform="translate(153.617083 318.238437) scale(0.1 -0.1)">
       <defs>
        <path id="DejaVuSans-34" d="M 2419 4116 
L 825 1625 
L 2419 1625 
L 2419 4116 
z
M 2253 4666 
L 3047 4666 
L 3047 1625 
L 3713 1625 
L 3713 1100 
L 3047 1100 
L 3047 0 
L 2419 0 
L 2419 1100 
L 313 1100 
L 313 1709 
L 2253 4666 
z
" transform="scale(0.015625)"/>
       </defs>
       <use xlink:href="#DejaVuSans-34"/>
      </g>
     </g>
    </g>
    <g id="xtick_4">
     <g id="line2d_7">
      <path d="M 206.705 303.64 
L 206.705 25.44 
" clip-path="url(#p0304d03337)" style="fill: none; stroke: #b0b0b0; stroke-opacity: 0.3; stroke-width: 0.8; stroke-linecap: square"/>
     </g>
     <g id="line2d_8">
      <g>
       <use xlink:href="#m5762626a53" x="206.705" y="303.64" style="stroke: #000000; stroke-width: 0.8"/>
      </g>
     </g>
     <g id="text_4">
      <!-- 6 -->
      <g transform="translate(203.52375 318.238437) scale(0.1 -0.1)">
       <defs>
        <path id="DejaVuSans-36" d="M 2113 2584 
Q 1688 2584 1439 2293 
Q 1191 2003 1191 1497 
Q 1191 994 1439 701 
Q 1688 409 2113 409 
Q 2538 409 2786 701 
Q 3034 994 3034 1497 
Q 3034 2003 2786 2293 
Q 2538 2584 2113 2584 
z
M 3366 4563 
L 3366 3988 
Q 3128 4100 2886 4159 
Q 2644 4219 2406 4219 
Q 1781 4219 1451 3797 
Q 1122 3375 1075 2522 
Q 1259 2794 1537 2939 
Q 1816 3084 2150 3084 
Q 2853 3084 3261 2657 
Q 3669 2231 3669 1497 
Q 3669 778 3244 343 
Q 2819 -91 2113 -91 
Q 1303 -91 875 529 
Q 447 1150 447 2328 
Q 447 3434 972 4092 
Q 1497 4750 2381 4750 
Q 2619 4750 2861 4703 
Q 3103 4656 3366 4563 
z
" transform="scale(0.015625)"/>
       </defs>
       <use xlink:href="#DejaVuSans-36"/>
      </g>
     </g>
    </g>
    <g id="xtick_5">
     <g id="line2d_9">
      <path d="M 256.611667 303.64 
L 256.611667 25.44 
" clip-path="url(#p0304d03337)" style="fill: none; stroke: #b0b0b0; stroke-opacity: 0.3; stroke-width: 0.8; stroke-linecap: square"/>
     </g>
     <g id="line2d_10">
      <g>
       <use xlink:href="#m5762626a53" x="256.611667" y="303.64" style="stroke: #000000; stroke-width: 0.8"/>
      </g>
     </g>
     <g id="text_5">
      <!-- 8 -->
      <g transform="translate(253.430417 318.238437) scale(0.1 -0.1)">
       <defs>
        <path id="DejaVuSans-38" d="M 2034 2216 
Q 1584 2216 1326 1975 
Q 1069 1734 1069 1313 
Q 1069 891 1326 650 
Q 1584 409 2034 409 
Q 2484 409 2743 651 
Q 3003 894 3003 1313 
Q 3003 1734 2745 1975 
Q 2488 2216 2034 2216 
z
M 1403 2484 
Q 997 2584 770 2862 
Q 544 3141 544 3541 
Q 544 4100 942 4425 
Q 1341 4750 2034 4750 
Q 2731 4750 3128 4425 
Q 3525 4100 3525 3541 
Q 3525 3141 3298 2862 
Q 3072 2584 2669 2484 
Q 3125 2378 3379 2068 
Q 3634 1759 3634 1313 
Q 3634 634 3220 271 
Q 2806 -91 2034 -91 
Q 1263 -91 848 271 
Q 434 634 434 1313 
Q 434 1759 690 2068 
Q 947 2378 1403 2484 
z
M 1172 3481 
Q 1172 3119 1398 2916 
Q 1625 2713 2034 2713 
Q 2441 2713 2670 2916 
Q 2900 3119 2900 3481 
Q 2900 3844 2670 4047 
Q 2441 4250 2034 4250 
Q 1625 4250 1398 4047 
Q 1172 3844 1172 3481 
z
" transform="scale(0.015625)"/>
       </defs>
       <use xlink:href="#DejaVuSans-38"/>
      </g>
     </g>
    </g>
    <g id="xtick_6">
     <g id="line2d_11">
      <path d="M 306.518333 303.64 
L 306.518333 25.44 
" clip-path="url(#p0304d03337)" style="fill: none; stroke: #b0b0b0; stroke-opacity: 0.3; stroke-width: 0.8; stroke-linecap: square"/>
     </g>
     <g id="line2d_12">
      <g>
       <use xlink:href="#m5762626a53" x="306.518333" y="303.64" style="stroke: #000000; stroke-width: 0.8"/>
      </g>
     </g>
     <g id="text_6">
      <!-- 10 -->
      <g transform="translate(300.155833 318.238437) scale(0.1 -0.1)">
       <defs>
        <path id="DejaVuSans-31" d="M 794 531 
L 1825 531 
L 1825 4091 
L 703 3866 
L 703 4441 
L 1819 4666 
L 2450 4666 
L 2450 531 
L 3481 531 
L 3481 0 
L 794 0 
L 794 531 
z
" transform="scale(0.015625)"/>
       </defs>
       <use xlink:href="#DejaVuSans-31"/>
       <use xlink:href="#DejaVuSans-30" transform="translate(63.623047 0)"/>
      </g>
     </g>
    </g>
    <g id="xtick_7">
     <g id="line2d_13">
      <path d="M 356.425 303.64 
L 356.425 25.44 
" clip-path="url(#p0304d03337)" style="fill: none; stroke: #b0b0b0; stroke-opacity: 0.3; stroke-width: 0.8; stroke-linecap: square"/>
     </g>
     <g id="line2d_14">
      <g>
       <use xlink:href="#m5762626a53" x="356.425" y="303.64" style="stroke: #000000; stroke-width: 0.8"/>
      </g>
     </g>
     <g id="text_7">
      <!-- 12 -->
      <g transform="translate(350.0625 318.238437) scale(0.1 -0.1)">
       <use xlink:href="#DejaVuSans-31"/>
       <use xlink:href="#DejaVuSans-32" transform="translate(63.623047 0)"/>
      </g>
     </g>
    </g>
    <g id="xtick_8">
     <g id="line2d_15">
      <path d="M 406.331667 303.64 
L 406.331667 25.44 
" clip-path="url(#p0304d03337)" style="fill: none; stroke: #b0b0b0; stroke-opacity: 0.3; stroke-width: 0.8; stroke-linecap: square"/>
     </g>
     <g id="line2d_16">
      <g>
       <use xlink:href="#m5762626a53" x="406.331667" y="303.64" style="stroke: #000000; stroke-width: 0.8"/>
      </g>
     </g>
     <g id="text_8">
      <!-- 14 -->
      <g transform="translate(399.969167 318.238437) scale(0.1 -0.1)">
       <use xlink:href="#DejaVuSans-31"/>
       <use xlink:href="#DejaVuSans-34" transform="translate(63.623047 0)"/>
      </g>
     </g>
    </g>
    <g id="text_9">
     <!-- Time (minutes) -->
     <g transform="translate(206.1725 331.916562) scale(0.1 -0.1)">
      <defs>
       <path id="DejaVuSans-54" d="M -19 4666 
L 3928 4666 
L 3928 4134 
L 2272 4134 
L 2272 0 
L 1638 0 
L 1638 4134 
L -19 4134 
L -19 4666 
z
" transform="scale(0.015625)"/>
       <path id="DejaVuSans-69" d="M 603 3500 
L 1178 3500 
L 1178 0 
L 603 0 
L 603 3500 
z
M 603 4863 
L 1178 4863 
L 1178 4134 
L 603 4134 
L 603 4863 
z
" transform="scale(0.015625)"/>
       <path id="DejaVuSans-6d" d="M 3328 2828 
Q 3544 3216 3844 3400 
Q 4144 3584 4550 3584 
Q 5097 3584 5394 3201 
Q 5691 2819 5691 2113 
L 5691 0 
L 5113 0 
L 5113 2094 
Q 5113 2597 4934 2840 
Q 4756 3084 4391 3084 
Q 3944 3084 3684 2787 
Q 3425 2491 3425 1978 
L 3425 0 
L 2847 0 
L 2847 2094 
Q 2847 2600 2669 2842 
Q 2491 3084 2119 3084 
Q 1678 3084 1418 2786 
Q 1159 2488 1159 1978 
L 1159 0 
L 581 0 
L 581 3500 
L 1159 3500 
L 1159 2956 
Q 1356 3278 1631 3431 
Q 1906 3584 2284 3584 
Q 2666 3584 2933 3390 
Q 3200 3197 3328 2828 
z
" transform="scale(0.015625)"/>
       <path id="DejaVuSans-65" d="M 3597 1894 
L 3597 1613 
L 953 1613 
Q 991 1019 1311 708 
Q 1631 397 2203 397 
Q 2534 397 2845 478 
Q 3156 559 3463 722 
L 3463 178 
Q 3153 47 2828 -22 
Q 2503 -91 2169 -91 
Q 1331 -91 842 396 
Q 353 884 353 1716 
Q 353 2575 817 3079 
Q 1281 3584 2069 3584 
Q 2775 3584 3186 3129 
Q 3597 2675 3597 1894 
z
M 3022 2063 
Q 3016 2534 2758 2815 
Q 2500 3097 2075 3097 
Q 1594 3097 1305 2825 
Q 1016 2553 972 2059 
L 3022 2063 
z
" transform="scale(0.015625)"/>
       <path id="DejaVuSans-20" transform="scale(0.015625)"/>
       <path id="DejaVuSans-28" d="M 1984 4856 
Q 1566 4138 1362 3434 
Q 1159 2731 1159 2009 
Q 1159 1288 1364 580 
Q 1569 -128 1984 -844 
L 1484 -844 
Q 1016 -109 783 600 
Q 550 1309 550 2009 
Q 550 2706 781 3412 
Q 1013 4119 1484 4856 
L 1984 4856 
z
" transform="scale(0.015625)"/>
       <path id="DejaVuSans-6e" d="M 3513 2113 
L 3513 0 
L 2938 0 
L 2938 2094 
Q 2938 2591 2744 2837 
Q 2550 3084 2163 3084 
Q 1697 3084 1428 2787 
Q 1159 2491 1159 1978 
L 1159 0 
L 581 0 
L 581 3500 
L 1159 3500 
L 1159 2956 
Q 1366 3272 1645 3428 
Q 1925 3584 2291 3584 
Q 2894 3584 3203 3211 
Q 3513 2838 3513 2113 
z
" transform="scale(0.015625)"/>
       <path id="DejaVuSans-75" d="M 544 1381 
L 544 3500 
L 1119 3500 
L 1119 1403 
Q 1119 906 1312 657 
Q 1506 409 1894 409 
Q 2359 409 2629 706 
Q 2900 1003 2900 1516 
L 2900 3500 
L 3475 3500 
L 3475 0 
L 2900 0 
L 2900 538 
Q 2691 219 2414 64 
Q 2138 -91 1772 -91 
Q 1169 -91 856 284 
Q 544 659 544 1381 
z
M 1991 3584 
L 1991 3584 
z
" transform="scale(0.015625)"/>
       <path id="DejaVuSans-74" d="M 1172 4494 
L 1172 3500 
L 2356 3500 
L 2356 3053 
L 1172 3053 
L 1172 1153 
Q 1172 725 1289 603 
Q 1406 481 1766 481 
L 2356 481 
L 2356 0 
L 1766 0 
Q 1100 0 847 248 
Q 594 497 594 1153 
L 594 3053 
L 172 3053 
L 172 3500 
L 594 3500 
L 594 4494 
L 1172 4494 
z
" transform="scale(0.015625)"/>
       <path id="DejaVuSans-73" d="M 2834 3397 
L 2834 2853 
Q 2591 2978 2328 3040 
Q 2066 3103 1784 3103 
Q 1356 3103 1142 2972 
Q 928 2841 928 2578 
Q 928 2378 1081 2264 
Q 1234 2150 1697 2047 
L 1894 2003 
Q 2506 1872 2764 1633 
Q 3022 1394 3022 966 
Q 3022 478 2636 193 
Q 2250 -91 1575 -91 
Q 1294 -91 989 -36 
Q 684 19 347 128 
L 347 722 
Q 666 556 975 473 
Q 1284 391 1588 391 
Q 1994 391 2212 530 
Q 2431 669 2431 922 
Q 2431 1156 2273 1281 
Q 2116 1406 1581 1522 
L 1381 1569 
Q 847 1681 609 1914 
Q 372 2147 372 2553 
Q 372 3047 722 3315 
Q 1072 3584 1716 3584 
Q 2034 3584 2315 3537 
Q 2597 3491 2834 3397 
z
" transform="scale(0.015625)"/>
       <path id="DejaVuSans-29" d="M 513 4856 
L 1013 4856 
Q 1481 4119 1714 3412 
Q 1947 2706 1947 2009 
Q 1947 1309 1714 600 
Q 1481 -109 1013 -844 
L 513 -844 
Q 928 -128 1133 580 
Q 1338 1288 1338 2009 
Q 1338 2731 1133 3434 
Q 928 4138 513 4856 
z
" transform="scale(0.015625)"/>
      </defs>
      <use xlink:href="#DejaVuSans-54"/>
      <use xlink:href="#DejaVuSans-69" transform="translate(57.958984 0)"/>
      <use xlink:href="#DejaVuSans-6d" transform="translate(85.742188 0)"/>
      <use xlink:href="#DejaVuSans-65" transform="translate(183.154297 0)"/>
      <use xlink:href="#DejaVuSans-20" transform="translate(244.677734 0)"/>
      <use xlink:href="#DejaVuSans-28" transform="translate(276.464844 0)"/>
      <use xlink:href="#DejaVuSans-6d" transform="translate(315.478516 0)"/>
      <use xlink:href="#DejaVuSans-69" transform="translate(412.890625 0)"/>
      <use xlink:href="#DejaVuSans-6e" transform="translate(440.673828 0)"/>
      <use xlink:href="#DejaVuSans-75" transform="translate(504.052734 0)"/>
      <use xlink:href="#DejaVuSans-74" transform="translate(567.431641 0)"/>
      <use xlink:href="#DejaVuSans-65" transform="translate(606.640625 0)"/>
      <use xlink:href="#DejaVuSans-73" transform="translate(668.164062 0)"/>
      <use xlink:href="#DejaVuSans-29" transform="translate(720.263672 0)"/>
     </g>
    </g>
   </g>
   <g id="matplotlib.axis_2">
    <g id="ytick_1">
     <g id="line2d_17">
      <path d="M 38.27 269.311475 
L 450 269.311475 
" clip-path="url(#p0304d03337)" style="fill: none; stroke: #b0b0b0; stroke-opacity: 0.3; stroke-width: 0.8; stroke-linecap: square"/>
     </g>
     <g id="line2d_18">
      <defs>
       <path id="mca8bf1fccd" d="M 0 0 
L -3.5 0 
" style="stroke: #000000; stroke-width: 0.8"/>
      </defs>
      <g>
       <use xlink:href="#mca8bf1fccd" x="38.27" y="269.311475" style="stroke: #000000; stroke-width: 0.8"/>
      </g>
     </g>
     <g id="text_10">
      <!-- 0 -->
      <g transform="translate(24.9075 273.110694) scale(0.1 -0.1)">
       <use xlink:href="#DejaVuSans-30"/>
      </g>
     </g>
    </g>
    <g id="ytick_2">
     <g id="line2d_19">
      <path d="M 38.27 211.49205 
L 450 211.49205 
" clip-path="url(#p0304d03337)" style="fill: none; stroke: #b0b0b0; stroke-opacity: 0.3; stroke-width: 0.8; stroke-linecap: square"/>
     </g>
     <g id="line2d_20">
      <g>
       <use xlink:href="#mca8bf1fccd" x="38.27" y="211.49205" style="stroke: #000000; stroke-width: 0.8"/>
      </g>
     </g>
     <g id="text_11">
      <!-- 1 -->
      <g transform="translate(24.9075 215.291269) scale(0.1 -0.1)">
       <use xlink:href="#DejaVuSans-31"/>
      </g>
     </g>
    </g>
    <g id="ytick_3">
     <g id="line2d_21">
      <path d="M 38.27 153.672625 
L 450 153.672625 
" clip-path="url(#p0304d03337)" style="fill: none; stroke: #b0b0b0; stroke-opacity: 0.3; stroke-width: 0.8; stroke-linecap: square"/>
     </g>
     <g id="line2d_22">
      <g>
       <use xlink:href="#mca8bf1fccd" x="38.27" y="153.672625" style="stroke: #000000; stroke-width: 0.8"/>
      </g>
     </g>
     <g id="text_12">
      <!-- 2 -->
      <g transform="translate(24.9075 157.471844) scale(0.1 -0.1)">
       <use xlink:href="#DejaVuSans-32"/>
      </g>
     </g>
    </g>
    <g id="ytick_4">
     <g id="line2d_23">
      <path d="M 38.27 95.8532 
L 450 95.8532 
" clip-path="url(#p0304d03337)" style="fill: none; stroke: #b0b0b0; stroke-opacity: 0.3; stroke-width: 0.8; stroke-linecap: square"/>
     </g>
     <g id="line2d_24">
      <g>
       <use xlink:href="#mca8bf1fccd" x="38.27" y="95.8532" style="stroke: #000000; stroke-width: 0.8"/>
      </g>
     </g>
     <g id="text_13">
      <!-- 3 -->
      <g transform="translate(24.9075 99.652419) scale(0.1 -0.1)">
       <defs>
        <path id="DejaVuSans-33" d="M 2597 2516 
Q 3050 2419 3304 2112 
Q 3559 1806 3559 1356 
Q 3559 666 3084 287 
Q 2609 -91 1734 -91 
Q 1441 -91 1130 -33 
Q 819 25 488 141 
L 488 750 
Q 750 597 1062 519 
Q 1375 441 1716 441 
Q 2309 441 2620 675 
Q 2931 909 2931 1356 
Q 2931 1769 2642 2001 
Q 2353 2234 1838 2234 
L 1294 2234 
L 1294 2753 
L 1863 2753 
Q 2328 2753 2575 2939 
Q 2822 3125 2822 3475 
Q 2822 3834 2567 4026 
Q 2313 4219 1838 4219 
Q 1578 4219 1281 4162 
Q 984 4106 628 3988 
L 628 4550 
Q 988 4650 1302 4700 
Q 1616 4750 1894 4750 
Q 2613 4750 3031 4423 
Q 3450 4097 3450 3541 
Q 3450 3153 3228 2886 
Q 3006 2619 2597 2516 
z
" transform="scale(0.015625)"/>
       </defs>
       <use xlink:href="#DejaVuSans-33"/>
      </g>
     </g>
    </g>
    <g id="ytick_5">
     <g id="line2d_25">
      <path d="M 38.27 38.033775 
L 450 38.033775 
" clip-path="url(#p0304d03337)" style="fill: none; stroke: #b0b0b0; stroke-opacity: 0.3; stroke-width: 0.8; stroke-linecap: square"/>
     </g>
     <g id="line2d_26">
      <g>
       <use xlink:href="#mca8bf1fccd" x="38.27" y="38.033775" style="stroke: #000000; stroke-width: 0.8"/>
      </g>
     </g>
     <g id="text_14">
      <!-- 4 -->
      <g transform="translate(24.9075 41.832994) scale(0.1 -0.1)">
       <use xlink:href="#DejaVuSans-34"/>
      </g>
     </g>
    </g>
    <g id="text_15">
     <!-- EDA signals (μS) -->
     <g transform="translate(18.827813 205.711875) rotate(-90) scale(0.1 -0.1)">
      <defs>
       <path id="DejaVuSans-45" d="M 628 4666 
L 3578 4666 
L 3578 4134 
L 1259 4134 
L 1259 2753 
L 3481 2753 
L 3481 2222 
L 1259 2222 
L 1259 531 
L 3634 531 
L 3634 0 
L 628 0 
L 628 4666 
z
" transform="scale(0.015625)"/>
       <path id="DejaVuSans-44" d="M 1259 4147 
L 1259 519 
L 2022 519 
Q 2988 519 3436 956 
Q 3884 1394 3884 2338 
Q 3884 3275 3436 3711 
Q 2988 4147 2022 4147 
L 1259 4147 
z
M 628 4666 
L 1925 4666 
Q 3281 4666 3915 4102 
Q 4550 3538 4550 2338 
Q 4550 1131 3912 565 
Q 3275 0 1925 0 
L 628 0 
L 628 4666 
z
" transform="scale(0.015625)"/>
       <path id="DejaVuSans-41" d="M 2188 4044 
L 1331 1722 
L 3047 1722 
L 2188 4044 
z
M 1831 4666 
L 2547 4666 
L 4325 0 
L 3669 0 
L 3244 1197 
L 1141 1197 
L 716 0 
L 50 0 
L 1831 4666 
z
" transform="scale(0.015625)"/>
       <path id="DejaVuSans-67" d="M 2906 1791 
Q 2906 2416 2648 2759 
Q 2391 3103 1925 3103 
Q 1463 3103 1205 2759 
Q 947 2416 947 1791 
Q 947 1169 1205 825 
Q 1463 481 1925 481 
Q 2391 481 2648 825 
Q 2906 1169 2906 1791 
z
M 3481 434 
Q 3481 -459 3084 -895 
Q 2688 -1331 1869 -1331 
Q 1566 -1331 1297 -1286 
Q 1028 -1241 775 -1147 
L 775 -588 
Q 1028 -725 1275 -790 
Q 1522 -856 1778 -856 
Q 2344 -856 2625 -561 
Q 2906 -266 2906 331 
L 2906 616 
Q 2728 306 2450 153 
Q 2172 0 1784 0 
Q 1141 0 747 490 
Q 353 981 353 1791 
Q 353 2603 747 3093 
Q 1141 3584 1784 3584 
Q 2172 3584 2450 3431 
Q 2728 3278 2906 2969 
L 2906 3500 
L 3481 3500 
L 3481 434 
z
" transform="scale(0.015625)"/>
       <path id="DejaVuSans-61" d="M 2194 1759 
Q 1497 1759 1228 1600 
Q 959 1441 959 1056 
Q 959 750 1161 570 
Q 1363 391 1709 391 
Q 2188 391 2477 730 
Q 2766 1069 2766 1631 
L 2766 1759 
L 2194 1759 
z
M 3341 1997 
L 3341 0 
L 2766 0 
L 2766 531 
Q 2569 213 2275 61 
Q 1981 -91 1556 -91 
Q 1019 -91 701 211 
Q 384 513 384 1019 
Q 384 1609 779 1909 
Q 1175 2209 1959 2209 
L 2766 2209 
L 2766 2266 
Q 2766 2663 2505 2880 
Q 2244 3097 1772 3097 
Q 1472 3097 1187 3025 
Q 903 2953 641 2809 
L 641 3341 
Q 956 3463 1253 3523 
Q 1550 3584 1831 3584 
Q 2591 3584 2966 3190 
Q 3341 2797 3341 1997 
z
" transform="scale(0.015625)"/>
       <path id="DejaVuSans-6c" d="M 603 4863 
L 1178 4863 
L 1178 0 
L 603 0 
L 603 4863 
z
" transform="scale(0.015625)"/>
       <path id="DejaVuSans-3bc" d="M 544 -1331 
L 544 3500 
L 1119 3500 
L 1119 1325 
Q 1119 872 1334 640 
Q 1550 409 1972 409 
Q 2434 409 2667 671 
Q 2900 934 2900 1459 
L 2900 3500 
L 3475 3500 
L 3475 806 
Q 3475 619 3529 530 
Q 3584 441 3700 441 
Q 3728 441 3778 458 
Q 3828 475 3916 513 
L 3916 50 
Q 3788 -22 3673 -56 
Q 3559 -91 3450 -91 
Q 3234 -91 3106 31 
Q 2978 153 2931 403 
Q 2775 156 2548 32 
Q 2322 -91 2016 -91 
Q 1697 -91 1473 31 
Q 1250 153 1119 397 
L 1119 -1331 
L 544 -1331 
z
" transform="scale(0.015625)"/>
       <path id="DejaVuSans-53" d="M 3425 4513 
L 3425 3897 
Q 3066 4069 2747 4153 
Q 2428 4238 2131 4238 
Q 1616 4238 1336 4038 
Q 1056 3838 1056 3469 
Q 1056 3159 1242 3001 
Q 1428 2844 1947 2747 
L 2328 2669 
Q 3034 2534 3370 2195 
Q 3706 1856 3706 1288 
Q 3706 609 3251 259 
Q 2797 -91 1919 -91 
Q 1588 -91 1214 -16 
Q 841 59 441 206 
L 441 856 
Q 825 641 1194 531 
Q 1563 422 1919 422 
Q 2459 422 2753 634 
Q 3047 847 3047 1241 
Q 3047 1584 2836 1778 
Q 2625 1972 2144 2069 
L 1759 2144 
Q 1053 2284 737 2584 
Q 422 2884 422 3419 
Q 422 4038 858 4394 
Q 1294 4750 2059 4750 
Q 2388 4750 2728 4690 
Q 3069 4631 3425 4513 
z
" transform="scale(0.015625)"/>
      </defs>
      <use xlink:href="#DejaVuSans-45"/>
      <use xlink:href="#DejaVuSans-44" transform="translate(63.183594 0)"/>
      <use xlink:href="#DejaVuSans-41" transform="translate(138.435547 0)"/>
      <use xlink:href="#DejaVuSans-20" transform="translate(206.84375 0)"/>
      <use xlink:href="#DejaVuSans-73" transform="translate(238.630859 0)"/>
      <use xlink:href="#DejaVuSans-69" transform="translate(290.730469 0)"/>
      <use xlink:href="#DejaVuSans-67" transform="translate(318.513672 0)"/>
      <use xlink:href="#DejaVuSans-6e" transform="translate(381.990234 0)"/>
      <use xlink:href="#DejaVuSans-61" transform="translate(445.369141 0)"/>
      <use xlink:href="#DejaVuSans-6c" transform="translate(506.648438 0)"/>
      <use xlink:href="#DejaVuSans-73" transform="translate(534.431641 0)"/>
      <use xlink:href="#DejaVuSans-20" transform="translate(586.53125 0)"/>
      <use xlink:href="#DejaVuSans-28" transform="translate(618.318359 0)"/>
      <use xlink:href="#DejaVuSans-3bc" transform="translate(657.332031 0)"/>
      <use xlink:href="#DejaVuSans-53" transform="translate(720.955078 0)"/>
      <use xlink:href="#DejaVuSans-29" transform="translate(784.431641 0)"/>
     </g>
    </g>
   </g>
   <g id="line2d_27">
    <path d="M 56.985 226.774803 
L 58.23336 226.63516 
L 59.0656 226.49772 
L 60.209931 226.611065 
L 61.666351 227.051085 
L 63.122771 227.042419 
L 63.330831 226.710179 
L 63.642921 225.546106 
L 64.163071 223.074695 
L 64.371131 222.941185 
L 64.579191 223.415384 
L 66.035611 228.313177 
L 66.243671 228.074561 
L 66.659792 227.296818 
L 66.867852 227.309108 
L 67.492032 227.866688 
L 67.700092 227.645892 
L 68.428302 226.392992 
L 68.636362 226.933341 
L 68.844422 228.209656 
L 69.260542 232.874391 
L 69.572632 236.191654 
L 69.780692 236.739613 
L 69.988752 235.64421 
L 70.820992 228.419736 
L 71.133082 227.770026 
L 71.445172 227.627533 
L 72.069352 227.693592 
L 72.901593 227.925276 
L 74.462043 228.769324 
L 74.878163 228.495044 
L 75.086223 228.190431 
L 75.294283 227.4507 
L 75.502343 225.6798 
L 75.710403 222.085601 
L 76.126523 208.800721 
L 76.438613 200.031402 
L 76.542643 199.066159 
L 76.646673 199.370187 
L 76.854733 203.417528 
L 77.686973 227.08605 
L 77.999063 229.953326 
L 78.311153 230.893456 
L 78.623243 231.128864 
L 79.663544 231.389051 
L 80.183694 231.281611 
L 80.807874 231.126947 
L 81.328024 231.346596 
L 81.952204 231.769295 
L 82.368324 232.426641 
L 82.784444 232.991378 
L 82.992504 232.929623 
L 83.304594 232.364947 
L 83.824744 231.298562 
L 84.240864 230.947649 
L 84.969074 230.737105 
L 85.281165 230.807071 
L 85.697285 231.22347 
L 86.113405 231.594528 
L 86.425495 231.554735 
L 87.465795 230.839059 
L 87.985945 230.919568 
L 89.546395 231.443979 
L 90.898785 231.490819 
L 91.106845 231.352948 
L 91.314906 230.998025 
L 91.626996 229.948963 
L 92.147146 228.189169 
L 92.355206 228.103362 
L 92.563266 228.368171 
L 93.915656 230.907729 
L 94.435806 231.248827 
L 95.892226 231.845852 
L 96.204316 231.657529 
L 96.620436 231.386939 
L 96.828496 231.513043 
L 97.140586 232.152712 
L 98.076857 234.474115 
L 98.284917 234.635064 
L 98.492977 234.553659 
L 98.805067 234.043311 
L 99.325217 233.189121 
L 99.637307 233.059621 
L 99.949397 233.193764 
L 100.469547 233.844654 
L 100.781637 234.120166 
L 100.989697 234.080223 
L 101.301787 233.698887 
L 102.862237 231.352402 
L 103.278357 231.249873 
L 105.671048 231.28721 
L 108.271798 231.585826 
L 109.624188 231.709815 
L 110.768519 231.769519 
L 112.745089 231.836212 
L 115.033749 231.909036 
L 115.345839 231.740729 
L 116.178079 230.995317 
L 116.38614 231.205918 
L 117.53047 232.950761 
L 117.84256 233.052073 
L 118.15465 232.853 
L 119.09092 231.784533 
L 119.40301 231.885158 
L 120.33928 232.331887 
L 121.27555 232.434386 
L 123.668241 232.628333 
L 124.604511 232.632709 
L 126.060931 232.645701 
L 129.597952 232.845741 
L 131.262432 232.895753 
L 133.863182 233.106615 
L 134.383332 233.320375 
L 135.423633 233.98635 
L 136.359903 234.157476 
L 136.776023 234.004453 
L 138.128413 233.034897 
L 139.584833 233.019485 
L 142.185584 233.330058 
L 144.370214 233.511473 
L 149.571715 233.7281 
L 151.548285 233.925985 
L 155.189336 234.125571 
L 162.263377 234.451394 
L 164.031887 234.481388 
L 172.874439 234.956661 
L 174.851009 235.083649 
L 177.243699 235.123968 
L 180.15654 235.160664 
L 187.438641 235.417996 
L 192.848202 235.462767 
L 193.264322 235.633588 
L 193.472382 235.538004 
L 193.784472 235.049588 
L 194.512682 233.669632 
L 194.928802 233.472461 
L 196.177162 233.475845 
L 199.298063 233.404597 
L 201.898813 233.32289 
L 203.355233 233.257708 
L 204.603594 233.25069 
L 205.019714 233.373788 
L 205.331804 233.680898 
L 206.580164 235.327039 
L 207.204344 235.527222 
L 208.452704 235.803532 
L 209.284944 236.121392 
L 210.429275 236.249019 
L 213.238085 236.393777 
L 214.382415 236.336718 
L 214.694505 236.056823 
L 215.006595 235.341424 
L 215.318685 233.699435 
L 216.046895 228.569605 
L 216.150926 228.532619 
L 216.358986 229.105072 
L 217.295256 232.994998 
L 217.607346 233.485976 
L 217.919436 233.629616 
L 218.335556 233.548893 
L 219.271826 233.27031 
L 219.687946 233.560475 
L 220.208096 233.913604 
L 221.248396 234.22173 
L 221.456456 233.791378 
L 221.768546 232.230745 
L 222.392727 228.495653 
L 222.704817 227.948166 
L 222.912877 228.017634 
L 223.224967 228.563382 
L 223.641087 230.083396 
L 224.161237 231.91759 
L 225.305567 234.219292 
L 225.617657 234.239133 
L 226.345867 234.026343 
L 228.322437 234.325858 
L 229.154678 234.335111 
L 231.547368 234.399165 
L 231.963488 234.585773 
L 232.171548 234.506033 
L 232.587668 233.967914 
L 232.899758 233.636368 
L 233.107818 233.618459 
L 233.523938 233.937602 
L 234.668268 235.124338 
L 235.188419 236.39242 
L 235.500509 237.035828 
L 235.708569 237.118167 
L 235.916629 236.895789 
L 236.540809 235.953478 
L 236.852899 235.918507 
L 237.997229 236.284897 
L 238.309319 236.032528 
L 238.725439 235.317338 
L 239.037529 234.702027 
L 239.141559 234.66364 
L 239.245589 234.815193 
L 239.453649 235.863168 
L 239.973799 239.542556 
L 240.077829 239.319614 
L 240.285889 237.510695 
L 240.806039 231.876806 
L 240.910069 231.577176 
L 241.014099 231.63896 
L 241.22216 232.693244 
L 241.84634 237.227832 
L 241.95037 237.258104 
L 242.15843 236.610961 
L 242.67858 234.402513 
L 242.88664 234.115644 
L 243.19873 234.101422 
L 243.71888 234.196246 
L 244.03097 234.031972 
L 244.23903 233.694757 
L 244.55112 232.653131 
L 245.27933 229.692265 
L 245.59142 229.313901 
L 246.11157 229.227268 
L 247.567991 229.21083 
L 249.232471 229.560077 
L 249.544561 229.327723 
L 250.168741 228.781932 
L 250.480831 228.866609 
L 250.896951 229.333401 
L 251.209041 229.618302 
L 251.313071 229.578089 
L 251.521131 229.109468 
L 251.833221 227.237032 
L 252.457401 222.779788 
L 252.665461 222.493699 
L 252.873521 222.770443 
L 253.497702 223.9124 
L 254.642032 225.05034 
L 255.266212 225.356925 
L 255.578302 225.96678 
L 256.514572 228.559775 
L 257.034722 229.013823 
L 257.762932 229.36366 
L 258.283082 229.362807 
L 259.011292 229.297608 
L 261.403983 229.759856 
L 263.068463 230.064612 
L 263.588613 230.217362 
L 263.900703 230.06704 
L 264.628913 229.417733 
L 264.941003 229.539363 
L 265.669213 230.066361 
L 266.085334 230.002224 
L 266.501454 229.921924 
L 266.917574 230.093917 
L 268.269964 230.773306 
L 268.582054 230.814493 
L 268.894144 230.617855 
L 269.414294 230.219458 
L 269.726384 230.281185 
L 270.766684 230.871776 
L 271.390864 230.854451 
L 272.327135 230.829847 
L 273.679525 231.084627 
L 274.095645 231.139639 
L 274.615795 230.919335 
L 275.656095 230.448455 
L 276.384305 230.608747 
L 277.216545 230.947925 
L 278.464906 231.7093 
L 278.776996 231.576164 
L 279.401176 231.216373 
L 279.921326 231.336842 
L 280.233416 231.33226 
L 280.649536 231.030907 
L 281.169686 230.674601 
L 282.105956 230.352788 
L 282.626106 229.753245 
L 283.250286 229.054372 
L 283.458346 229.069689 
L 283.874466 229.272976 
L 284.082526 229.085554 
L 284.394616 228.176256 
L 285.434917 224.358021 
L 286.267157 222.547352 
L 286.787307 221.777233 
L 287.203427 221.532706 
L 287.931637 221.409067 
L 288.451787 220.961134 
L 288.867907 220.264324 
L 289.388057 218.821217 
L 290.116267 216.901827 
L 291.260598 214.842233 
L 292.092838 213.610147 
L 292.300898 213.543746 
L 292.612988 213.767503 
L 293.133138 214.278375 
L 293.445228 214.23003 
L 294.485528 213.746292 
L 294.901648 213.721897 
L 295.213738 213.931842 
L 295.525828 214.521159 
L 295.837918 215.721719 
L 296.150008 218.14816 
L 296.358068 221.403426 
L 296.670158 230.764797 
L 297.502399 263.663227 
L 297.710459 266.028482 
L 297.814489 266.169898 
L 297.918519 265.68137 
L 298.126579 262.90954 
L 298.438669 254.765542 
L 299.374939 226.049709 
L 299.582999 223.392982 
L 299.687029 223.074184 
L 299.791059 223.520859 
L 299.999119 226.811535 
L 300.415239 240.847105 
L 300.935389 257.777667 
L 301.351509 264.834967 
L 301.663599 267.375715 
L 301.975689 268.280589 
L 302.287779 268.445027 
L 302.495839 268.359084 
L 302.703899 267.964122 
L 302.911959 266.789984 
L 303.120019 264.092631 
L 303.43211 256.013267 
L 304.16032 232.918843 
L 304.47241 228.787916 
L 304.7845 227.153206 
L 305.09659 226.672176 
L 305.40868 226.683584 
L 305.72077 226.977707 
L 306.24092 227.958877 
L 306.65704 228.660659 
L 306.96913 228.799025 
L 307.59331 228.794646 
L 308.11346 229.044618 
L 308.73764 229.070129 
L 309.15376 229.565707 
L 309.777941 230.303481 
L 310.194061 230.473054 
L 310.506151 230.419586 
L 310.818241 230.171447 
L 311.234361 229.44102 
L 312.066601 227.687577 
L 312.378691 227.580529 
L 313.106901 227.734979 
L 313.627051 227.61047 
L 313.835111 227.83524 
L 314.771381 229.301174 
L 315.083471 229.302812 
L 316.123772 228.985828 
L 316.539892 229.38808 
L 316.956012 229.681228 
L 317.268102 229.582783 
L 317.684222 229.475124 
L 319.972882 230.198007 
L 321.325272 229.987602 
L 323.197813 229.593148 
L 326.214683 229.610561 
L 326.630803 229.972276 
L 327.463043 230.827142 
L 327.879163 230.916043 
L 329.023494 230.798234 
L 329.439614 230.702981 
L 330.271854 230.839558 
L 330.792004 230.849373 
L 331.520214 230.910868 
L 332.560514 230.925455 
L 333.496784 230.882859 
L 334.641115 230.716611 
L 335.265295 230.517648 
L 335.681415 230.644911 
L 336.097535 230.999148 
L 337.033805 231.978138 
L 337.345895 232.02167 
L 337.762015 231.780387 
L 338.282165 231.471924 
L 338.698285 231.491868 
L 339.114405 231.791186 
L 339.842615 232.432695 
L 340.154705 232.400954 
L 340.466795 232.018697 
L 341.299036 230.576047 
L 341.611126 230.610856 
L 342.027246 231.023262 
L 342.443366 231.365323 
L 342.651426 231.323917 
L 342.963516 230.964767 
L 343.483666 230.358686 
L 343.691726 230.381847 
L 344.003816 230.70096 
L 344.627996 231.451766 
L 344.940086 231.422082 
L 345.564266 231.103984 
L 346.604566 231.145509 
L 347.020686 231.024014 
L 347.436807 231.200941 
L 348.165017 231.565766 
L 349.413377 231.71199 
L 349.933527 231.616297 
L 350.453677 231.505801 
L 350.765767 231.66538 
L 351.493977 232.224399 
L 351.806067 232.157467 
L 352.846367 231.55244 
L 353.158457 231.684161 
L 353.782638 232.255354 
L 353.990698 232.070022 
L 354.406818 231.060767 
L 354.822938 230.2072 
L 355.135028 229.984581 
L 355.447118 230.093539 
L 355.863238 230.653248 
L 356.383388 231.289873 
L 356.903538 231.572263 
L 357.215628 231.563578 
L 357.423688 231.307185 
L 357.631748 230.60213 
L 357.943838 228.282346 
L 358.984138 218.438108 
L 359.400258 216.448079 
L 359.920409 215.191906 
L 360.440559 213.735382 
L 361.272799 211.329676 
L 361.584889 211.135881 
L 362.209069 211.244058 
L 362.521159 210.9611 
L 362.833249 210.348142 
L 363.249369 208.986615 
L 363.665489 206.742662 
L 363.977579 203.555749 
L 364.393699 195.737573 
L 365.433999 173.039373 
L 366.37027 159.988649 
L 369.17908 119.179879 
L 369.69923 106.299715 
L 370.53147 84.286885 
L 370.84356 81.111392 
L 370.94759 81.183989 
L 371.05162 82.017399 
L 371.25968 86.577706 
L 371.57177 102.802894 
L 372.612071 175.818308 
L 372.716101 173.209718 
L 372.924161 159.673289 
L 373.964461 62.308353 
L 374.276551 56.391316 
L 374.588641 54.52813 
L 374.900731 53.550347 
L 375.004761 53.427233 
L 375.108791 53.512139 
L 375.316851 54.618919 
L 375.628941 58.977984 
L 376.045061 64.905734 
L 376.149091 65.171017 
L 376.253121 64.783083 
L 376.565211 60.88864 
L 376.981331 55.833692 
L 377.189391 54.90033 
L 377.293421 54.776517 
L 377.397451 54.827323 
L 377.917601 55.744454 
L 378.021631 55.502725 
L 378.229691 54.054743 
L 378.853872 47.457167 
L 378.957902 47.484536 
L 379.165962 48.974861 
L 379.894172 56.490303 
L 380.206262 59.023325 
L 380.518352 63.886286 
L 381.038502 76.530819 
L 381.454622 92.015361 
L 382.182832 126.353662 
L 382.286862 127.290058 
L 382.390892 126.515341 
L 382.598952 120.425314 
L 383.639252 76.992417 
L 384.159402 68.736276 
L 384.575523 64.925979 
L 384.991643 63.01017 
L 386.240003 59.083057 
L 386.448063 59.675718 
L 386.656123 61.198433 
L 387.072243 66.781374 
L 387.696423 79.411735 
L 388.216573 89.180253 
L 388.320603 89.537546 
L 388.424633 88.950233 
L 388.632693 84.880822 
L 389.360903 65.936802 
L 389.464933 65.597612 
L 389.568963 65.714564 
L 389.881053 66.621661 
L 389.985083 66.668491 
L 390.193143 66.368043 
L 390.401203 66.068085 
L 390.505233 66.091892 
L 390.713293 66.58924 
L 391.233444 68.39871 
L 391.337474 68.262714 
L 391.545534 66.928871 
L 391.857624 62.140683 
L 392.689864 46.944094 
L 393.210014 42.606615 
L 393.834194 38.768224 
L 394.146284 38.085455 
L 394.250314 38.095242 
L 394.458374 38.447019 
L 394.770464 39.774057 
L 395.186584 43.021719 
L 395.602704 48.32138 
L 396.851064 66.668394 
L 397.163155 68.694454 
L 397.371215 69.190175 
L 397.579275 69.2061 
L 397.787335 68.873897 
L 398.099425 67.64041 
L 399.035695 62.203545 
L 399.139725 62.456595 
L 399.347785 64.002186 
L 399.763905 70.29221 
L 400.180025 76.051157 
L 400.388085 77.158811 
L 400.596145 77.282908 
L 400.804205 77.19658 
L 401.012265 77.567445 
L 402.364655 83.311175 
L 403.613016 91.160038 
L 403.717046 91.233071 
L 403.821076 91.074724 
L 404.029136 89.929934 
L 404.341226 86.203458 
L 404.965406 78.462262 
L 405.797646 73.408344 
L 406.005706 72.820665 
L 406.109736 72.822873 
L 406.317796 73.326713 
L 406.837946 74.905499 
L 407.046006 74.884512 
L 407.358096 74.266545 
L 408.086306 72.640057 
L 408.710486 71.587959 
L 409.126606 70.320397 
L 409.750787 68.194868 
L 409.958847 67.988851 
L 410.166907 68.306219 
L 410.791087 70.448144 
L 410.895117 70.326168 
L 411.103177 69.289619 
L 411.727357 64.958651 
L 411.831387 64.923524 
L 412.039447 65.434027 
L 412.559597 67.088235 
L 413.079747 67.819098 
L 413.287807 67.809953 
L 413.495867 67.420153 
L 414.536167 64.461752 
L 414.848257 63.938149 
L 414.952287 63.941817 
L 415.056317 64.194426 
L 415.264377 65.82175 
L 415.576467 71.225492 
L 416.720798 94.032974 
L 417.136918 99.952609 
L 417.449008 102.163378 
L 417.761098 103.080885 
L 417.969158 103.337307 
L 418.073188 103.327652 
L 418.177218 103.153682 
L 418.385278 102.005151 
L 418.697368 97.609006 
L 419.217518 88.654962 
L 419.425578 87.655383 
L 419.529608 87.856476 
L 419.737668 89.297249 
L 420.153788 94.354116 
L 421.194088 108.906175 
L 421.402148 109.634139 
L 421.610208 109.6159 
L 421.922298 109.400448 
L 422.026329 109.561373 
L 422.234389 110.645713 
L 422.546479 114.598345 
L 423.066629 122.12518 
L 423.274689 123.020659 
L 423.378719 122.989391 
L 423.898869 121.758044 
L 424.002899 121.831232 
L 424.210959 122.475153 
L 424.627079 125.015096 
L 425.251259 128.72095 
L 425.563349 129.381175 
L 425.771409 129.429257 
L 426.291559 129.370114 
L 426.499619 129.692777 
L 426.811709 130.960475 
L 427.331859 133.560168 
L 427.539919 133.865577 
L 427.852009 134.112128 
L 428.47619 135.320912 
L 428.68425 135.041711 
L 428.99634 134.454217 
L 429.10037 134.443264 
L 429.30843 134.843038 
L 429.93261 136.736234 
L 430.03664 136.717418 
L 430.45276 136.051282 
L 430.55679 136.133216 
L 430.76485 137.238552 
L 431.07694 141.498909 
L 431.285 145.147669 
L 431.285 145.147669 
" clip-path="url(#p0304d03337)" style="fill: none; stroke-dasharray: 1.85,0.8; stroke-dashoffset: 0; stroke: #1f77b4; stroke-width: 0.5"/>
   </g>
   <g id="line2d_28">
    <path d="M 56.985 227.555339 
L 57.50515 226.085087 
L 57.92127 225.534475 
L 58.23336 225.420699 
L 58.54545 225.516406 
L 58.96157 225.896829 
L 59.68978 226.976571 
L 60.730081 228.501722 
L 61.146201 228.799269 
L 61.562321 228.796203 
L 61.978441 228.544839 
L 62.602621 227.878441 
L 63.850981 226.50081 
L 64.267101 226.323673 
L 64.579191 226.367074 
L 64.891281 226.599309 
L 65.307401 227.261433 
L 65.827551 228.70794 
L 66.555762 231.559088 
L 68.428302 239.295858 
L 68.948452 240.521201 
L 69.260542 240.877811 
L 69.468602 240.928025 
L 69.780692 240.701782 
L 70.196812 239.913654 
L 70.716962 238.333668 
L 71.757262 234.177907 
L 72.693533 230.723749 
L 73.213683 229.503648 
L 73.525773 229.152493 
L 73.733833 229.111731 
L 74.045923 229.343209 
L 74.462043 230.121762 
L 74.982193 231.686655 
L 75.814433 235.022597 
L 77.166823 240.478412 
L 77.686973 241.879724 
L 78.103093 242.49352 
L 78.415183 242.654863 
L 78.727273 242.590971 
L 79.143394 242.203726 
L 79.663544 241.327384 
L 80.391754 239.600119 
L 82.368324 234.59856 
L 83.096534 233.421327 
L 83.824744 232.621157 
L 84.552954 232.120894 
L 85.385195 231.817422 
L 86.529525 231.665235 
L 91.418936 231.274183 
L 92.771326 231.101302 
L 93.603566 231.207659 
L 94.331776 231.521083 
L 95.059986 232.08601 
L 96.308346 233.402392 
L 97.660737 234.729459 
L 98.388947 235.145085 
L 99.013127 235.225009 
L 99.637307 235.056431 
L 100.365517 234.626032 
L 101.613877 233.570104 
L 103.070297 232.392686 
L 104.110598 231.870912 
L 105.254928 231.571413 
L 106.607318 231.476708 
L 108.687918 231.599508 
L 112.224939 231.826177 
L 114.513599 231.97085 
L 115.761959 232.270824 
L 119.40301 233.359696 
L 120.44331 233.302388 
L 122.00376 232.953068 
L 123.772271 232.604105 
L 125.124661 232.599479 
L 129.806012 232.804707 
L 131.470492 232.891838 
L 132.718852 233.187693 
L 135.735723 234.041596 
L 136.671993 234.023377 
L 137.920353 233.75241 
L 140.313043 233.171938 
L 141.457374 233.163586 
L 143.329914 233.415437 
L 145.306484 233.620819 
L 151.860375 233.945716 
L 154.669186 234.121863 
L 163.303677 234.477361 
L 178.492059 235.128674 
L 183.69356 235.272478 
L 188.478941 235.404252 
L 193.264322 235.313025 
L 194.616712 235.035581 
L 196.281192 234.440359 
L 198.881943 233.502396 
L 200.234333 233.264604 
L 201.482693 233.270389 
L 202.627023 233.497261 
L 203.875384 233.989822 
L 208.036584 235.853935 
L 209.701064 236.187005 
L 211.989725 236.394516 
L 213.654205 236.350042 
L 214.902565 236.111535 
L 216.150926 235.647894 
L 219.375856 234.328865 
L 220.520186 234.182643 
L 222.080636 234.238884 
L 226.137807 234.506217 
L 228.634528 234.389866 
L 231.131248 234.303032 
L 232.483638 234.479932 
L 233.419908 234.812218 
L 234.252148 235.341621 
L 235.084389 236.162999 
L 235.916629 237.34519 
L 236.956929 239.314727 
L 238.413349 242.065805 
L 239.141559 242.986206 
L 239.661709 243.302998 
L 240.077829 243.294866 
L 240.493949 243.024951 
L 241.014099 242.361605 
L 241.74231 240.960212 
L 242.78261 238.379255 
L 244.55112 234.001603 
L 245.48739 232.339177 
L 246.42366 231.14083 
L 247.359931 230.32175 
L 248.296201 229.797125 
L 249.336501 229.462626 
L 250.584861 229.305241 
L 252.457401 229.336171 
L 262.652343 229.914563 
L 265.877273 230.300141 
L 269.934444 230.835684 
L 277.112515 231.347294 
L 279.401176 231.540708 
L 280.441476 231.409653 
L 281.377746 231.064323 
L 282.209986 230.521964 
L 283.146256 229.649598 
L 284.290586 228.280134 
L 285.851037 226.041055 
L 287.515517 223.311263 
L 288.763877 220.8487 
L 289.908207 218.103499 
L 291.364628 214.470305 
L 291.780748 213.940922 
L 292.092838 213.838998 
L 292.404928 214.049924 
L 292.717018 214.627609 
L 293.133138 216.061542 
L 293.549258 218.371108 
L 294.069408 222.684091 
L 294.693588 230.16119 
L 295.629858 244.808958 
L 297.710459 278.658083 
L 298.334639 285.545334 
L 298.854789 289.117666 
L 299.270909 290.604855 
L 299.582999 290.993911 
L 299.791059 290.93356 
L 299.999119 290.633704 
L 300.311209 289.76536 
L 300.727329 287.89948 
L 301.351509 283.809982 
L 302.183749 276.533861 
L 303.64017 261.210174 
L 305.40868 243.103551 
L 306.24092 236.555892 
L 306.8651 233.066266 
L 307.38525 231.18672 
L 307.9054 230.094041 
L 308.32152 229.680572 
L 308.73764 229.589206 
L 309.15376 229.739282 
L 309.777941 230.240646 
L 310.922271 231.195897 
L 311.442421 231.333577 
L 312.066601 231.246323 
L 312.794811 230.902741 
L 315.187501 229.552172 
L 315.915712 229.505557 
L 316.851982 229.684006 
L 319.348702 230.297212 
L 320.284972 230.200632 
L 323.613933 229.608793 
L 324.654233 229.825248 
L 328.711404 230.959334 
L 330.375884 230.940373 
L 333.184694 230.898396 
L 334.849175 231.116468 
L 336.305595 231.521909 
L 339.114405 232.394865 
L 340.050675 232.438999 
L 341.090976 232.245269 
L 344.627996 231.351395 
L 345.876356 231.471605 
L 348.373077 231.775156 
L 351.077857 231.762342 
L 351.806067 232.078627 
L 352.430247 232.577615 
L 353.262487 233.576144 
L 354.510848 235.063384 
L 355.030998 235.397417 
L 355.447118 235.443367 
L 355.863238 235.237439 
L 356.279358 234.728688 
L 356.695478 233.866173 
L 357.319658 231.905806 
L 358.151898 228.407521 
L 360.544589 217.711329 
L 361.272799 215.70126 
L 362.417129 212.9169 
L 362.937279 210.978225 
L 363.457429 208.147116 
L 363.977579 204.086591 
L 364.601759 197.116661 
L 365.225939 187.350611 
L 366.4743 162.701822 
L 367.41057 146.259393 
L 367.93072 140.233723 
L 368.24281 138.211512 
L 368.45087 137.656426 
L 368.5549 137.64006 
L 368.76296 138.168451 
L 368.97102 139.496696 
L 369.28311 143.102626 
L 369.80326 152.825157 
L 370.6355 174.124539 
L 371.77983 203.168053 
L 372.299981 211.765568 
L 372.612071 214.471485 
L 372.820131 215.018569 
L 372.924161 214.872761 
L 373.132221 213.671962 
L 373.444311 209.417161 
L 373.860431 199.520861 
L 374.484611 177.799126 
L 375.732971 122.832938 
L 376.669241 85.739051 
L 377.189391 71.730402 
L 377.605511 65.69303 
L 377.813571 64.527535 
L 377.917601 64.368364 
L 378.021631 64.47506 
L 378.229691 65.436504 
L 378.541782 68.562976 
L 378.957902 75.35535 
L 379.582082 89.555786 
L 381.558652 137.843812 
L 382.078802 144.303222 
L 382.494922 146.864905 
L 382.807012 147.472569 
L 383.015072 147.325898 
L 383.223132 146.783686 
L 383.535222 145.314764 
L 384.055372 141.446022 
L 384.887613 132.926052 
L 386.344033 117.712845 
L 387.488363 108.452422 
L 389.881053 89.928061 
L 391.233444 76.515679 
L 392.481804 64.833372 
L 393.210014 59.826351 
L 393.730164 57.572253 
L 394.042254 56.875447 
L 394.250314 56.715229 
L 394.458374 56.788885 
L 394.770464 57.303646 
L 395.186584 58.662472 
L 395.706734 61.265692 
L 396.434944 66.160705 
L 399.555845 89.079908 
L 400.388085 92.924117 
L 401.012265 94.918784 
L 401.532415 95.954047 
L 401.948535 96.348523 
L 402.260625 96.380467 
L 402.572715 96.179455 
L 402.988835 95.569408 
L 403.508986 94.327692 
L 404.237196 91.87041 
L 405.277496 87.39365 
L 407.774216 76.271876 
L 408.710486 73.234539 
L 409.438696 71.615559 
L 409.958847 70.941932 
L 410.374967 70.731352 
L 410.687057 70.781846 
L 411.103177 71.141037 
L 411.519297 71.822149 
L 412.039447 73.100107 
L 412.663627 75.215063 
L 413.495867 78.926562 
L 414.432137 84.16272 
L 415.680497 92.533974 
L 419.009458 115.655495 
L 419.945728 120.394551 
L 420.881998 124.043479 
L 421.714238 126.46981 
L 422.546479 128.21574 
L 423.274689 129.252226 
L 424.106929 130.009883 
L 425.667379 131.267936 
L 426.291559 132.107317 
L 426.915739 133.349219 
L 427.539919 135.1324 
L 428.37216 138.34837 
L 430.14067 146.513462 
L 431.18097 150.779577 
L 431.285 151.139254 
L 431.285 151.139254 
" clip-path="url(#p0304d03337)" style="fill: none; stroke: #ff7f0e; stroke-width: 0.5; stroke-linecap: square"/>
   </g>
   <g id="line2d_29">
    <path d="M 56.985 269.311475 
L 57.08903 269.311475 
L 57.19306 268.765301 
L 57.50515 270.393479 
L 57.71321 270.568471 
L 58.0253 270.414624 
L 59.0656 269.687285 
L 59.27366 269.547701 
L 60.313961 268.021786 
L 60.834111 267.626009 
L 61.250231 267.522443 
L 61.770381 267.707946 
L 62.914711 268.81475 
L 63.330831 269.007421 
L 63.434861 268.913497 
L 63.746951 267.777499 
L 64.163071 266.066369 
L 64.371131 266.20263 
L 65.827551 268.611036 
L 65.931581 268.539704 
L 66.139641 267.749998 
L 67.075912 263.021466 
L 67.492032 261.472565 
L 68.012182 258.38414 
L 68.428302 256.301694 
L 68.532332 256.033275 
L 68.636362 256.287405 
L 68.948452 258.651297 
L 69.676662 264.312468 
L 69.884722 265.117347 
L 70.092782 263.813639 
L 70.612932 260.130477 
L 70.820992 259.805972 
L 71.029052 260.079239 
L 71.445172 261.499659 
L 73.005623 267.400301 
L 73.525773 268.278121 
L 73.941893 268.683187 
L 74.149953 268.608358 
L 74.462043 267.993508 
L 74.878163 266.509946 
L 75.190253 264.803584 
L 75.502343 261.328308 
L 75.814433 253.749689 
L 76.542643 229.836417 
L 76.646673 230.34036 
L 76.958763 237.117312 
L 77.686973 254.132945 
L 77.895033 256.413774 
L 78.207123 257.473556 
L 78.519213 257.771063 
L 78.935334 258.144693 
L 79.455484 259.000212 
L 80.599814 261.438312 
L 81.432054 263.897843 
L 82.472354 267.413472 
L 82.992504 268.282845 
L 83.304594 268.539244 
L 83.928774 267.988693 
L 84.344894 268.013831 
L 85.073105 268.289865 
L 85.905345 268.887179 
L 86.529525 269.107832 
L 86.737585 268.965667 
L 87.153705 268.630692 
L 87.673855 268.54558 
L 88.089975 268.704487 
L 89.026245 269.088612 
L 90.066545 269.246777 
L 91.210875 269.233532 
L 91.418936 268.784409 
L 92.251176 266.308098 
L 92.459236 266.569301 
L 93.499536 268.353531 
L 94.123716 268.852915 
L 94.539836 268.992052 
L 95.684166 268.466056 
L 95.996256 268.09753 
L 96.724466 266.872331 
L 96.932526 267.048664 
L 98.076857 268.599367 
L 98.388947 268.798582 
L 98.597007 268.56527 
L 99.325217 267.281787 
L 99.533277 267.35351 
L 101.093727 268.918828 
L 101.509847 269.042802 
L 102.342087 268.525302 
L 102.758207 268.185656 
L 103.070297 268.220105 
L 104.318658 268.732754 
L 105.983138 269.191676 
L 107.543588 269.292933 
L 113.681359 269.311357 
L 114.929719 269.231887 
L 115.345839 268.933372 
L 115.657929 268.438011 
L 115.865989 268.09094 
L 116.074049 268.086787 
L 116.69823 268.57084 
L 117.42644 268.985511 
L 118.05062 269.15564 
L 118.25868 268.915019 
L 118.88286 267.910261 
L 119.19495 267.800382 
L 119.61107 267.994348 
L 120.44331 268.400101 
L 122.940031 269.157565 
L 124.292421 269.280865 
L 126.893171 269.269579 
L 127.829441 269.255957 
L 131.054372 269.310143 
L 132.510792 269.220452 
L 134.175272 268.953792 
L 135.423633 269.21946 
L 136.880053 269.270478 
L 137.920353 268.664216 
L 138.752593 268.833708 
L 140.417073 269.229284 
L 142.393644 269.303785 
L 156.021576 269.311386 
L 193.680442 269.298191 
L 193.888502 268.955222 
L 194.408652 268.041922 
L 194.720742 267.869088 
L 195.136862 267.937926 
L 198.985973 269.228166 
L 200.962543 269.303691 
L 202.418963 269.229886 
L 203.459263 268.793444 
L 204.915684 268.16369 
L 206.788224 269.149897 
L 207.516434 269.201611 
L 208.036584 269.18404 
L 210.533305 269.303565 
L 214.694505 269.24828 
L 215.006595 268.609238 
L 215.318685 267.061759 
L 216.046895 262.188336 
L 216.254956 262.707322 
L 217.399286 267.234536 
L 217.919436 268.151954 
L 218.439586 268.231669 
L 219.167796 268.291676 
L 220.208096 268.965838 
L 221.040336 269.182711 
L 221.352426 269.186303 
L 221.560486 268.533256 
L 221.976606 265.916659 
L 222.392727 263.573465 
L 222.704817 262.994995 
L 222.912877 263.040524 
L 223.224967 263.511932 
L 223.745117 265.500014 
L 224.265267 267.156251 
L 224.785417 268.139595 
L 225.305567 268.681557 
L 225.825717 268.9585 
L 226.761987 268.92668 
L 227.490197 269.065152 
L 228.738558 269.252031 
L 231.235278 269.308441 
L 232.275578 269.288708 
L 232.587668 268.80546 
L 233.003788 268.317999 
L 233.315878 268.327267 
L 234.980359 269.046745 
L 235.708569 269.199683 
L 235.812599 269.157216 
L 236.020659 268.533918 
L 236.644839 266.567385 
L 237.164989 265.690197 
L 237.893199 264.498031 
L 238.413349 263.17272 
L 238.933499 261.298505 
L 239.037529 260.949154 
L 239.141559 261.024036 
L 239.453649 262.427868 
L 239.973799 265.201436 
L 240.077829 265.320223 
L 240.285889 263.644213 
L 240.806039 258.537272 
L 241.014099 259.311208 
L 242.0544 265.758299 
L 242.15843 265.953584 
L 242.67858 265.051726 
L 242.88664 265.380855 
L 244.03097 268.081357 
L 244.34306 268.34138 
L 244.65515 267.735099 
L 245.1753 266.459656 
L 245.38336 266.356391 
L 245.69545 266.584428 
L 246.73575 267.686329 
L 247.255901 268.154074 
L 247.984111 268.783605 
L 248.712321 269.087993 
L 249.544561 269.191685 
L 249.960681 268.967989 
L 250.688891 269.102443 
L 251.417101 269.219133 
L 251.521131 269.125206 
L 251.729191 268.039912 
L 252.561431 262.554084 
L 252.665461 262.494098 
L 252.873521 262.76222 
L 253.497702 263.879641 
L 254.642032 264.977945 
L 255.266212 265.256793 
L 256.514572 268.159273 
L 257.034722 268.689449 
L 257.658902 269.016989 
L 258.283082 269.118175 
L 258.803232 269.008491 
L 261.612043 269.297216 
L 264.004733 269.266095 
L 264.628913 268.694755 
L 265.253093 268.917204 
L 265.877273 269.105524 
L 266.709514 268.956436 
L 268.061904 269.229086 
L 268.894144 269.221726 
L 269.206234 268.874969 
L 269.518324 268.863599 
L 271.494894 269.256646 
L 274.095645 269.309002 
L 274.615795 269.213833 
L 275.552065 268.646353 
L 276.176245 268.644693 
L 276.592365 268.77537 
L 277.632665 269.136295 
L 278.776996 269.266682 
L 279.089086 269.137132 
L 279.505206 269.073875 
L 280.545506 269.090348 
L 281.065656 268.861015 
L 281.793866 269.051131 
L 282.209986 269.046594 
L 282.522076 268.968339 
L 284.498646 269.132595 
L 285.122827 267.476221 
L 285.538947 266.932981 
L 286.163127 266.529313 
L 286.579247 266.481208 
L 286.995367 266.712721 
L 287.619547 267.778967 
L 288.243727 268.55313 
L 288.867907 268.94941 
L 289.075967 268.949199 
L 289.700147 268.684683 
L 291.468658 269.214206 
L 291.988808 269.219193 
L 292.925078 268.242603 
L 293.237168 267.088418 
L 293.653288 264.354055 
L 294.173438 259.446187 
L 294.901648 249.93489 
L 296.045978 234.506994 
L 296.254038 232.756149 
L 296.358068 232.839893 
L 296.566128 236.274946 
L 297.502399 256.40411 
L 297.606429 257.261805 
L 297.710459 256.737146 
L 297.918519 253.804999 
L 298.230609 245.42458 
L 299.478969 202.830702 
L 299.687029 201.42877 
L 299.791059 201.931735 
L 299.999119 205.521205 
L 300.415239 220.828794 
L 301.039419 243.321081 
L 301.559569 253.875449 
L 302.079719 260.676511 
L 302.599869 264.63088 
L 303.015989 266.464133 
L 303.120019 266.512153 
L 303.328079 263.947827 
L 304.26435 246.040607 
L 304.36838 245.794592 
L 304.47241 245.874515 
L 304.68047 246.757552 
L 305.09659 250.028335 
L 306.76107 264.513057 
L 307.28122 266.706066 
L 307.80137 267.911594 
L 308.32152 268.561713 
L 308.9457 268.957477 
L 309.777941 269.181378 
L 310.194061 269.187995 
L 310.714211 268.551796 
L 311.234361 267.483692 
L 311.962571 265.878886 
L 312.170631 265.748068 
L 312.378691 265.803436 
L 313.106901 266.348139 
L 313.314961 266.322182 
L 313.627051 266.824919 
L 314.355261 268.134484 
L 314.875411 268.669529 
L 315.395561 268.932029 
L 315.811681 268.833879 
L 317.268102 269.131678 
L 317.684222 268.883152 
L 318.932582 269.068527 
L 320.180942 269.251656 
L 322.677663 269.308447 
L 324.446173 269.216882 
L 325.486473 268.743872 
L 325.902593 268.563154 
L 326.422743 268.788424 
L 327.254983 269.102289 
L 328.399314 269.257931 
L 328.919464 269.210395 
L 329.335584 269.134208 
L 333.392754 269.309161 
L 334.224994 269.171439 
L 334.849175 268.862141 
L 335.161265 268.651454 
L 335.577385 268.758642 
L 336.617685 269.128103 
L 337.553955 269.25111 
L 337.762015 269.088866 
L 338.282165 268.565236 
L 338.594255 268.572454 
L 340.154705 269.165681 
L 340.362765 269.133797 
L 340.882916 268.16446 
L 341.195006 267.733532 
L 341.403066 267.78335 
L 342.755456 268.893721 
L 342.963516 268.636372 
L 343.171576 268.366097 
L 343.483666 268.408182 
L 344.836056 269.087748 
L 345.252176 269.150196 
L 345.668296 269.030748 
L 346.396506 269.019141 
L 347.124717 268.747529 
L 348.789197 269.213068 
L 350.557707 269.299651 
L 351.910097 269.271687 
L 352.430247 268.461399 
L 353.054427 267.650869 
L 353.366518 267.549725 
L 353.678608 267.461193 
L 353.886668 267.159223 
L 354.198758 266.215697 
L 354.822938 264.258617 
L 355.135028 263.90146 
L 355.343088 263.914052 
L 355.655178 264.289561 
L 355.863238 264.682126 
L 357.007568 267.846643 
L 357.527718 268.519177 
L 357.839808 268.681246 
L 358.047868 267.649897 
L 358.672048 264.051908 
L 358.984138 263.354035 
L 359.192198 263.21699 
L 359.400258 263.349925 
L 359.816379 264.202583 
L 360.232499 264.894204 
L 360.544589 265.024048 
L 361.272799 264.976275 
L 361.480859 265.222809 
L 362.937279 268.387601 
L 363.561459 268.872549 
L 363.873549 269.009588 
L 363.977579 268.816186 
L 364.185639 267.470115 
L 365.225939 258.625044 
L 365.433999 258.812446 
L 365.642059 259.691896 
L 366.68236 265.938612 
L 367.20251 267.483355 
L 367.5146 267.919371 
L 367.72266 267.9348 
L 367.93072 267.495144 
L 368.13878 266.358927 
L 368.45087 263.017529 
L 368.86699 255.360212 
L 369.28311 243.285926 
L 369.80326 219.690566 
L 370.73953 174.035028 
L 371.05162 165.821391 
L 371.25968 164.685645 
L 371.36371 165.362518 
L 371.57177 174.35784 
L 372.508041 230.908921 
L 372.612071 230.827404 
L 372.820131 222.135178 
L 373.132221 193.080672 
L 373.652371 143.695724 
L 373.860431 136.194043 
L 373.964461 135.251686 
L 374.068491 135.782207 
L 374.276551 139.955792 
L 374.796701 158.342643 
L 375.420881 188.098818 
L 376.253121 233.303862 
L 376.669241 242.864413 
L 377.709541 259.90345 
L 377.917601 260.715768 
L 378.021631 260.380197 
L 378.229691 257.969571 
L 378.645812 248.225229 
L 379.061932 239.927044 
L 379.790142 230.194551 
L 380.414322 219.512954 
L 380.726412 217.742038 
L 380.830442 217.722549 
L 380.934472 218.053515 
L 381.038502 217.917411 
L 381.142532 218.399749 
L 381.350592 223.357409 
L 382.182832 249.160931 
L 382.286862 250.644254 
L 382.390892 249.548172 
L 382.702982 237.667785 
L 383.327162 208.745864 
L 383.639252 201.669144 
L 383.951342 198.49442 
L 384.263432 197.399136 
L 384.367462 197.401826 
L 384.575523 197.939396 
L 384.887613 199.808178 
L 386.448063 212.239937 
L 386.864183 219.676537 
L 387.488363 236.294077 
L 388.112543 252.413941 
L 388.424633 256.708246 
L 388.632693 254.156213 
L 389.256873 241.028226 
L 389.360903 240.874016 
L 389.568963 242.389081 
L 390.193143 248.691152 
L 390.401203 250.354777 
L 391.441504 262.556555 
L 391.545534 262.948259 
L 391.753594 262.056364 
L 392.065684 258.698242 
L 392.481804 254.215352 
L 392.793894 252.759485 
L 393.938224 250.71836 
L 394.146284 250.667982 
L 394.354344 250.841464 
L 394.666434 251.490151 
L 395.082554 253.139716 
L 395.290614 254.201487 
L 396.643004 265.472631 
L 396.955094 266.590465 
L 397.059125 266.526176 
L 397.371215 264.927072 
L 397.891365 260.083289 
L 398.515545 251.445124 
L 398.931665 246.235925 
L 399.139725 245.116294 
L 399.243755 245.089036 
L 399.451815 246.105142 
L 400.284055 253.594381 
L 400.388085 253.582159 
L 400.596145 252.953307 
L 400.908235 252.007772 
L 401.012265 251.995953 
L 401.220325 252.434916 
L 401.740475 253.857329 
L 401.948535 254.301542 
L 402.260625 255.457507 
L 402.676745 259.207089 
L 403.300926 264.154382 
L 403.821076 266.507122 
L 403.925106 266.818927 
L 404.029136 266.709328 
L 404.341226 264.099438 
L 404.861376 259.391924 
L 405.173466 258.599016 
L 405.901676 257.853023 
L 406.109736 258.7703 
L 407.046006 265.043947 
L 407.462126 265.859574 
L 408.086306 266.831476 
L 408.606456 267.63812 
L 408.814516 267.712121 
L 409.022576 267.5883 
L 409.334666 267.090115 
L 409.646757 266.448077 
L 409.854817 266.655881 
L 410.895117 268.368667 
L 410.999147 268.231162 
L 411.311237 265.433938 
L 411.727357 262.025932 
L 411.935417 261.643471 
L 412.455567 261.763377 
L 412.767657 261.162982 
L 413.183777 259.780695 
L 413.495867 257.84036 
L 415.056317 245.355044 
L 415.160347 245.257179 
L 415.264377 245.562057 
L 415.472437 247.412401 
L 416.928858 264.281144 
L 417.344978 266.160639 
L 417.449008 266.104933 
L 417.865128 264.20404 
L 418.177218 262.005482 
L 418.489308 257.72428 
L 419.425578 239.09802 
L 419.529608 238.77387 
L 419.633638 238.83749 
L 419.841698 239.792205 
L 420.257818 243.493556 
L 421.194088 253.211561 
L 421.298118 253.397852 
L 421.402148 253.332049 
L 421.610208 252.750837 
L 422.026329 251.413069 
L 422.130359 251.770034 
L 422.442449 254.97082 
L 423.170659 262.59119 
L 423.274689 263.078858 
L 423.378719 262.99327 
L 424.002899 261.147197 
L 424.210959 261.907721 
L 425.147229 266.415388 
L 425.563349 267.509504 
L 425.667379 267.545365 
L 426.291559 266.567354 
L 426.499619 266.776319 
L 427.435889 268.249738 
L 427.539919 268.111409 
L 427.956039 267.022702 
L 428.37216 266.283617 
L 428.68425 264.663446 
L 429.2044 261.788875 
L 429.51649 261.36317 
L 429.72455 261.135747 
L 429.93261 260.52486 
L 430.34873 257.982648 
L 430.55679 257.018941 
L 430.76485 257.943015 
L 431.285 262.126392 
L 431.285 262.126392 
" clip-path="url(#p0304d03337)" style="fill: none; stroke: #2ca02c; stroke-width: 0.5; stroke-linecap: square"/>
   </g>
   <g id="patch_3">
    <path d="M 38.27 303.64 
L 38.27 25.44 
" style="fill: none; stroke: #000000; stroke-width: 0.8; stroke-linejoin: miter; stroke-linecap: square"/>
   </g>
   <g id="patch_4">
    <path d="M 450 303.64 
L 450 25.44 
" style="fill: none; stroke: #000000; stroke-width: 0.8; stroke-linejoin: miter; stroke-linecap: square"/>
   </g>
   <g id="patch_5">
    <path d="M 38.27 303.64 
L 450 303.64 
" style="fill: none; stroke: #000000; stroke-width: 0.8; stroke-linejoin: miter; stroke-linecap: square"/>
   </g>
   <g id="patch_6">
    <path d="M 38.27 25.44 
L 450 25.44 
" style="fill: none; stroke: #000000; stroke-width: 0.8; stroke-linejoin: miter; stroke-linecap: square"/>
   </g>
   <g id="text_16">
    <!-- cvxEDA (σ=1.0s  data_4_E4) -->
    <g transform="translate(158.48125 19.44) scale(0.12 -0.12)">
     <defs>
      <path id="DejaVuSans-63" d="M 3122 3366 
L 3122 2828 
Q 2878 2963 2633 3030 
Q 2388 3097 2138 3097 
Q 1578 3097 1268 2742 
Q 959 2388 959 1747 
Q 959 1106 1268 751 
Q 1578 397 2138 397 
Q 2388 397 2633 464 
Q 2878 531 3122 666 
L 3122 134 
Q 2881 22 2623 -34 
Q 2366 -91 2075 -91 
Q 1284 -91 818 406 
Q 353 903 353 1747 
Q 353 2603 823 3093 
Q 1294 3584 2113 3584 
Q 2378 3584 2631 3529 
Q 2884 3475 3122 3366 
z
" transform="scale(0.015625)"/>
      <path id="DejaVuSans-76" d="M 191 3500 
L 800 3500 
L 1894 563 
L 2988 3500 
L 3597 3500 
L 2284 0 
L 1503 0 
L 191 3500 
z
" transform="scale(0.015625)"/>
      <path id="DejaVuSans-78" d="M 3513 3500 
L 2247 1797 
L 3578 0 
L 2900 0 
L 1881 1375 
L 863 0 
L 184 0 
L 1544 1831 
L 300 3500 
L 978 3500 
L 1906 2253 
L 2834 3500 
L 3513 3500 
z
" transform="scale(0.015625)"/>
      <path id="DejaVuSans-3c3" d="M 1959 3044 
Q 1484 3044 1228 2700 
Q 959 2341 959 1747 
Q 959 1119 1226 758 
Q 1494 397 1959 397 
Q 2419 397 2687 759 
Q 2956 1122 2956 1747 
Q 2956 2319 2688 2700 
Q 2441 3044 1959 3044 
z
M 1959 3500 
L 3869 3500 
L 3869 2925 
L 3225 2925 
Q 3566 2438 3566 1747 
Q 3566 888 3138 400 
Q 2709 -91 1959 -91 
Q 1206 -91 781 400 
Q 353 888 353 1747 
Q 353 2613 781 3097 
Q 1134 3500 1959 3500 
z
" transform="scale(0.015625)"/>
      <path id="DejaVuSans-3d" d="M 678 2906 
L 4684 2906 
L 4684 2381 
L 678 2381 
L 678 2906 
z
M 678 1631 
L 4684 1631 
L 4684 1100 
L 678 1100 
L 678 1631 
z
" transform="scale(0.015625)"/>
      <path id="DejaVuSans-2e" d="M 684 794 
L 1344 794 
L 1344 0 
L 684 0 
L 684 794 
z
" transform="scale(0.015625)"/>
      <path id="DejaVuSans-64" d="M 2906 2969 
L 2906 4863 
L 3481 4863 
L 3481 0 
L 2906 0 
L 2906 525 
Q 2725 213 2448 61 
Q 2172 -91 1784 -91 
Q 1150 -91 751 415 
Q 353 922 353 1747 
Q 353 2572 751 3078 
Q 1150 3584 1784 3584 
Q 2172 3584 2448 3432 
Q 2725 3281 2906 2969 
z
M 947 1747 
Q 947 1113 1208 752 
Q 1469 391 1925 391 
Q 2381 391 2643 752 
Q 2906 1113 2906 1747 
Q 2906 2381 2643 2742 
Q 2381 3103 1925 3103 
Q 1469 3103 1208 2742 
Q 947 2381 947 1747 
z
" transform="scale(0.015625)"/>
      <path id="DejaVuSans-5f" d="M 3263 -1063 
L 3263 -1509 
L -63 -1509 
L -63 -1063 
L 3263 -1063 
z
" transform="scale(0.015625)"/>
     </defs>
     <use xlink:href="#DejaVuSans-63"/>
     <use xlink:href="#DejaVuSans-76" transform="translate(54.980469 0)"/>
     <use xlink:href="#DejaVuSans-78" transform="translate(114.160156 0)"/>
     <use xlink:href="#DejaVuSans-45" transform="translate(173.339844 0)"/>
     <use xlink:href="#DejaVuSans-44" transform="translate(236.523438 0)"/>
     <use xlink:href="#DejaVuSans-41" transform="translate(311.775391 0)"/>
     <use xlink:href="#DejaVuSans-20" transform="translate(380.183594 0)"/>
     <use xlink:href="#DejaVuSans-28" transform="translate(411.970703 0)"/>
     <use xlink:href="#DejaVuSans-3c3" transform="translate(450.984375 0)"/>
     <use xlink:href="#DejaVuSans-3d" transform="translate(514.363281 0)"/>
     <use xlink:href="#DejaVuSans-31" transform="translate(598.152344 0)"/>
     <use xlink:href="#DejaVuSans-2e" transform="translate(661.775391 0)"/>
     <use xlink:href="#DejaVuSans-30" transform="translate(693.5625 0)"/>
     <use xlink:href="#DejaVuSans-73" transform="translate(757.185547 0)"/>
     <use xlink:href="#DejaVuSans-20" transform="translate(809.285156 0)"/>
     <use xlink:href="#DejaVuSans-20" transform="translate(841.072266 0)"/>
     <use xlink:href="#DejaVuSans-64" transform="translate(872.859375 0)"/>
     <use xlink:href="#DejaVuSans-61" transform="translate(936.335938 0)"/>
     <use xlink:href="#DejaVuSans-74" transform="translate(997.615234 0)"/>
     <use xlink:href="#DejaVuSans-61" transform="translate(1036.824219 0)"/>
     <use xlink:href="#DejaVuSans-5f" transform="translate(1098.103516 0)"/>
     <use xlink:href="#DejaVuSans-34" transform="translate(1148.103516 0)"/>
     <use xlink:href="#DejaVuSans-5f" transform="translate(1211.726562 0)"/>
     <use xlink:href="#DejaVuSans-45" transform="translate(1261.726562 0)"/>
     <use xlink:href="#DejaVuSans-34" transform="translate(1324.910156 0)"/>
     <use xlink:href="#DejaVuSans-29" transform="translate(1388.533203 0)"/>
    </g>
   </g>
   <g id="legend_1">
    <g id="patch_7">
     <path d="M 45.27 77.474375 
L 138.17625 77.474375 
Q 140.17625 77.474375 140.17625 75.474375 
L 140.17625 32.44 
Q 140.17625 30.44 138.17625 30.44 
L 45.27 30.44 
Q 43.27 30.44 43.27 32.44 
L 43.27 75.474375 
Q 43.27 77.474375 45.27 77.474375 
z
" style="fill: #ffffff; opacity: 0.8; stroke: #cccccc; stroke-linejoin: miter"/>
    </g>
    <g id="line2d_30">
     <path d="M 47.27 38.538437 
L 57.27 38.538437 
L 67.27 38.538437 
" style="fill: none; stroke-dasharray: 1.85,0.8; stroke-dashoffset: 0; stroke: #1f77b4; stroke-width: 0.5"/>
    </g>
    <g id="text_17">
     <!-- Filtered EDA -->
     <g transform="translate(75.27 42.038437) scale(0.1 -0.1)">
      <defs>
       <path id="DejaVuSans-46" d="M 628 4666 
L 3309 4666 
L 3309 4134 
L 1259 4134 
L 1259 2759 
L 3109 2759 
L 3109 2228 
L 1259 2228 
L 1259 0 
L 628 0 
L 628 4666 
z
" transform="scale(0.015625)"/>
       <path id="DejaVuSans-72" d="M 2631 2963 
Q 2534 3019 2420 3045 
Q 2306 3072 2169 3072 
Q 1681 3072 1420 2755 
Q 1159 2438 1159 1844 
L 1159 0 
L 581 0 
L 581 3500 
L 1159 3500 
L 1159 2956 
Q 1341 3275 1631 3429 
Q 1922 3584 2338 3584 
Q 2397 3584 2469 3576 
Q 2541 3569 2628 3553 
L 2631 2963 
z
" transform="scale(0.015625)"/>
      </defs>
      <use xlink:href="#DejaVuSans-46"/>
      <use xlink:href="#DejaVuSans-69" transform="translate(50.269531 0)"/>
      <use xlink:href="#DejaVuSans-6c" transform="translate(78.052734 0)"/>
      <use xlink:href="#DejaVuSans-74" transform="translate(105.835938 0)"/>
      <use xlink:href="#DejaVuSans-65" transform="translate(145.044922 0)"/>
      <use xlink:href="#DejaVuSans-72" transform="translate(206.568359 0)"/>
      <use xlink:href="#DejaVuSans-65" transform="translate(245.431641 0)"/>
      <use xlink:href="#DejaVuSans-64" transform="translate(306.955078 0)"/>
      <use xlink:href="#DejaVuSans-20" transform="translate(370.431641 0)"/>
      <use xlink:href="#DejaVuSans-45" transform="translate(402.21875 0)"/>
      <use xlink:href="#DejaVuSans-44" transform="translate(465.402344 0)"/>
      <use xlink:href="#DejaVuSans-41" transform="translate(540.654297 0)"/>
     </g>
    </g>
    <g id="line2d_31">
     <path d="M 47.27 53.216562 
L 57.27 53.216562 
L 67.27 53.216562 
" style="fill: none; stroke: #ff7f0e; stroke-width: 0.5; stroke-linecap: square"/>
    </g>
    <g id="text_18">
     <!-- Tonic -->
     <g transform="translate(75.27 56.716562) scale(0.1 -0.1)">
      <defs>
       <path id="DejaVuSans-6f" d="M 1959 3097 
Q 1497 3097 1228 2736 
Q 959 2375 959 1747 
Q 959 1119 1226 758 
Q 1494 397 1959 397 
Q 2419 397 2687 759 
Q 2956 1122 2956 1747 
Q 2956 2369 2687 2733 
Q 2419 3097 1959 3097 
z
M 1959 3584 
Q 2709 3584 3137 3096 
Q 3566 2609 3566 1747 
Q 3566 888 3137 398 
Q 2709 -91 1959 -91 
Q 1206 -91 779 398 
Q 353 888 353 1747 
Q 353 2609 779 3096 
Q 1206 3584 1959 3584 
z
" transform="scale(0.015625)"/>
      </defs>
      <use xlink:href="#DejaVuSans-54"/>
      <use xlink:href="#DejaVuSans-6f" transform="translate(44.083984 0)"/>
      <use xlink:href="#DejaVuSans-6e" transform="translate(105.265625 0)"/>
      <use xlink:href="#DejaVuSans-69" transform="translate(168.644531 0)"/>
      <use xlink:href="#DejaVuSans-63" transform="translate(196.427734 0)"/>
     </g>
    </g>
    <g id="line2d_32">
     <path d="M 47.27 67.894687 
L 57.27 67.894687 
L 67.27 67.894687 
" style="fill: none; stroke: #2ca02c; stroke-width: 0.5; stroke-linecap: square"/>
    </g>
    <g id="text_19">
     <!-- Phasic -->
     <g transform="translate(75.27 71.394687) scale(0.1 -0.1)">
      <defs>
       <path id="DejaVuSans-50" d="M 1259 4147 
L 1259 2394 
L 2053 2394 
Q 2494 2394 2734 2622 
Q 2975 2850 2975 3272 
Q 2975 3691 2734 3919 
Q 2494 4147 2053 4147 
L 1259 4147 
z
M 628 4666 
L 2053 4666 
Q 2838 4666 3239 4311 
Q 3641 3956 3641 3272 
Q 3641 2581 3239 2228 
Q 2838 1875 2053 1875 
L 1259 1875 
L 1259 0 
L 628 0 
L 628 4666 
z
" transform="scale(0.015625)"/>
       <path id="DejaVuSans-68" d="M 3513 2113 
L 3513 0 
L 2938 0 
L 2938 2094 
Q 2938 2591 2744 2837 
Q 2550 3084 2163 3084 
Q 1697 3084 1428 2787 
Q 1159 2491 1159 1978 
L 1159 0 
L 581 0 
L 581 4863 
L 1159 4863 
L 1159 2956 
Q 1366 3272 1645 3428 
Q 1925 3584 2291 3584 
Q 2894 3584 3203 3211 
Q 3513 2838 3513 2113 
z
" transform="scale(0.015625)"/>
      </defs>
      <use xlink:href="#DejaVuSans-50"/>
      <use xlink:href="#DejaVuSans-68" transform="translate(60.302734 0)"/>
      <use xlink:href="#DejaVuSans-61" transform="translate(123.681641 0)"/>
      <use xlink:href="#DejaVuSans-73" transform="translate(184.960938 0)"/>
      <use xlink:href="#DejaVuSans-69" transform="translate(237.060547 0)"/>
      <use xlink:href="#DejaVuSans-63" transform="translate(264.84375 0)"/>
     </g>
    </g>
   </g>
  </g>
 </g>
 <defs>
  <clipPath id="p0304d03337">
   <rect x="38.27" y="25.44" width="411.73" height="278.2"/>
  </clipPath>
 </defs>
</svg>
