<?xml version="1.0" encoding="utf-8" standalone="no"?>
<!DOCTYPE svg PUBLIC "-//W3C//DTD SVG 1.1//EN"
  "http://www.w3.org/Graphics/SVG/1.1/DTD/svg11.dtd">
<svg xmlns:xlink="http://www.w3.org/1999/xlink" width="460.8pt" height="345.6pt" viewBox="0 0 460.8 345.6" xmlns="http://www.w3.org/2000/svg" version="1.1">
 <metadata>
  <rdf:RDF xmlns:dc="http://purl.org/dc/elements/1.1/" xmlns:cc="http://creativecommons.org/ns#" xmlns:rdf="http://www.w3.org/1999/02/22-rdf-syntax-ns#">
   <cc:Work>
    <dc:type rdf:resource="http://purl.org/dc/dcmitype/StillImage"/>
    <dc:date>2025-09-22T14:18:51.303973</dc:date>
    <dc:format>image/svg+xml</dc:format>
    <dc:creator>
     <cc:Agent>
      <dc:title>Matplotlib v3.10.0, https://matplotlib.org/</dc:title>
     </cc:Agent>
    </dc:creator>
   </cc:Work>
  </rdf:RDF>
 </metadata>
 <defs>
  <style type="text/css">*{stroke-linejoin: round; stroke-linecap: butt}</style>
 </defs>
 <g id="figure_1">
  <g id="patch_1">
   <path d="M 0 345.6 
L 460.8 345.6 
L 460.8 0 
L 0 0 
z
" style="fill: #ffffff"/>
  </g>
  <g id="axes_1">
   <g id="patch_2">
    <path d="M 47.81 303.64 
L 450 303.64 
L 450 25.44 
L 47.81 25.44 
z
" style="fill: #ffffff"/>
   </g>
   <g id="matplotlib.axis_1">
    <g id="xtick_1">
     <g id="line2d_1">
      <path d="M 66.091364 303.64 
L 66.091364 25.44 
" clip-path="url(#pde9b5f01aa)" style="fill: none; stroke: #b0b0b0; stroke-opacity: 0.3; stroke-width: 0.8; stroke-linecap: square"/>
     </g>
     <g id="line2d_2">
      <defs>
       <path id="m31ced5cb11" d="M 0 0 
L 0 3.5 
" style="stroke: #000000; stroke-width: 0.8"/>
      </defs>
      <g>
       <use xlink:href="#m31ced5cb11" x="66.091364" y="303.64" style="stroke: #000000; stroke-width: 0.8"/>
      </g>
     </g>
     <g id="text_1">
      <!-- 0 -->
      <g transform="translate(62.910114 318.238437) scale(0.1 -0.1)">
       <defs>
        <path id="DejaVuSans-30" d="M 2034 4250 
Q 1547 4250 1301 3770 
Q 1056 3291 1056 2328 
Q 1056 1369 1301 889 
Q 1547 409 2034 409 
Q 2525 409 2770 889 
Q 3016 1369 3016 2328 
Q 3016 3291 2770 3770 
Q 2525 4250 2034 4250 
z
M 2034 4750 
Q 2819 4750 3233 4129 
Q 3647 3509 3647 2328 
Q 3647 1150 3233 529 
Q 2819 -91 2034 -91 
Q 1250 -91 836 529 
Q 422 1150 422 2328 
Q 422 3509 836 4129 
Q 1250 4750 2034 4750 
z
" transform="scale(0.015625)"/>
       </defs>
       <use xlink:href="#DejaVuSans-30"/>
      </g>
     </g>
    </g>
    <g id="xtick_2">
     <g id="line2d_3">
      <path d="M 114.841667 303.64 
L 114.841667 25.44 
" clip-path="url(#pde9b5f01aa)" style="fill: none; stroke: #b0b0b0; stroke-opacity: 0.3; stroke-width: 0.8; stroke-linecap: square"/>
     </g>
     <g id="line2d_4">
      <g>
       <use xlink:href="#m31ced5cb11" x="114.841667" y="303.64" style="stroke: #000000; stroke-width: 0.8"/>
      </g>
     </g>
     <g id="text_2">
      <!-- 2 -->
      <g transform="translate(111.660417 318.238437) scale(0.1 -0.1)">
       <defs>
        <path id="DejaVuSans-32" d="M 1228 531 
L 3431 531 
L 3431 0 
L 469 0 
L 469 531 
Q 828 903 1448 1529 
Q 2069 2156 2228 2338 
Q 2531 2678 2651 2914 
Q 2772 3150 2772 3378 
Q 2772 3750 2511 3984 
Q 2250 4219 1831 4219 
Q 1534 4219 1204 4116 
Q 875 4013 500 3803 
L 500 4441 
Q 881 4594 1212 4672 
Q 1544 4750 1819 4750 
Q 2544 4750 2975 4387 
Q 3406 4025 3406 3419 
Q 3406 3131 3298 2873 
Q 3191 2616 2906 2266 
Q 2828 2175 2409 1742 
Q 1991 1309 1228 531 
z
" transform="scale(0.015625)"/>
       </defs>
       <use xlink:href="#DejaVuSans-32"/>
      </g>
     </g>
    </g>
    <g id="xtick_3">
     <g id="line2d_5">
      <path d="M 163.59197 303.64 
L 163.59197 25.44 
" clip-path="url(#pde9b5f01aa)" style="fill: none; stroke: #b0b0b0; stroke-opacity: 0.3; stroke-width: 0.8; stroke-linecap: square"/>
     </g>
     <g id="line2d_6">
      <g>
       <use xlink:href="#m31ced5cb11" x="163.59197" y="303.64" style="stroke: #000000; stroke-width: 0.8"/>
      </g>
     </g>
     <g id="text_3">
      <!-- 4 -->
      <g transform="translate(160.41072 318.238437) scale(0.1 -0.1)">
       <defs>
        <path id="DejaVuSans-34" d="M 2419 4116 
L 825 1625 
L 2419 1625 
L 2419 4116 
z
M 2253 4666 
L 3047 4666 
L 3047 1625 
L 3713 1625 
L 3713 1100 
L 3047 1100 
L 3047 0 
L 2419 0 
L 2419 1100 
L 313 1100 
L 313 1709 
L 2253 4666 
z
" transform="scale(0.015625)"/>
       </defs>
       <use xlink:href="#DejaVuSans-34"/>
      </g>
     </g>
    </g>
    <g id="xtick_4">
     <g id="line2d_7">
      <path d="M 212.342273 303.64 
L 212.342273 25.44 
" clip-path="url(#pde9b5f01aa)" style="fill: none; stroke: #b0b0b0; stroke-opacity: 0.3; stroke-width: 0.8; stroke-linecap: square"/>
     </g>
     <g id="line2d_8">
      <g>
       <use xlink:href="#m31ced5cb11" x="212.342273" y="303.64" style="stroke: #000000; stroke-width: 0.8"/>
      </g>
     </g>
     <g id="text_4">
      <!-- 6 -->
      <g transform="translate(209.161023 318.238437) scale(0.1 -0.1)">
       <defs>
        <path id="DejaVuSans-36" d="M 2113 2584 
Q 1688 2584 1439 2293 
Q 1191 2003 1191 1497 
Q 1191 994 1439 701 
Q 1688 409 2113 409 
Q 2538 409 2786 701 
Q 3034 994 3034 1497 
Q 3034 2003 2786 2293 
Q 2538 2584 2113 2584 
z
M 3366 4563 
L 3366 3988 
Q 3128 4100 2886 4159 
Q 2644 4219 2406 4219 
Q 1781 4219 1451 3797 
Q 1122 3375 1075 2522 
Q 1259 2794 1537 2939 
Q 1816 3084 2150 3084 
Q 2853 3084 3261 2657 
Q 3669 2231 3669 1497 
Q 3669 778 3244 343 
Q 2819 -91 2113 -91 
Q 1303 -91 875 529 
Q 447 1150 447 2328 
Q 447 3434 972 4092 
Q 1497 4750 2381 4750 
Q 2619 4750 2861 4703 
Q 3103 4656 3366 4563 
z
" transform="scale(0.015625)"/>
       </defs>
       <use xlink:href="#DejaVuSans-36"/>
      </g>
     </g>
    </g>
    <g id="xtick_5">
     <g id="line2d_9">
      <path d="M 261.092576 303.64 
L 261.092576 25.44 
" clip-path="url(#pde9b5f01aa)" style="fill: none; stroke: #b0b0b0; stroke-opacity: 0.3; stroke-width: 0.8; stroke-linecap: square"/>
     </g>
     <g id="line2d_10">
      <g>
       <use xlink:href="#m31ced5cb11" x="261.092576" y="303.64" style="stroke: #000000; stroke-width: 0.8"/>
      </g>
     </g>
     <g id="text_5">
      <!-- 8 -->
      <g transform="translate(257.911326 318.238437) scale(0.1 -0.1)">
       <defs>
        <path id="DejaVuSans-38" d="M 2034 2216 
Q 1584 2216 1326 1975 
Q 1069 1734 1069 1313 
Q 1069 891 1326 650 
Q 1584 409 2034 409 
Q 2484 409 2743 651 
Q 3003 894 3003 1313 
Q 3003 1734 2745 1975 
Q 2488 2216 2034 2216 
z
M 1403 2484 
Q 997 2584 770 2862 
Q 544 3141 544 3541 
Q 544 4100 942 4425 
Q 1341 4750 2034 4750 
Q 2731 4750 3128 4425 
Q 3525 4100 3525 3541 
Q 3525 3141 3298 2862 
Q 3072 2584 2669 2484 
Q 3125 2378 3379 2068 
Q 3634 1759 3634 1313 
Q 3634 634 3220 271 
Q 2806 -91 2034 -91 
Q 1263 -91 848 271 
Q 434 634 434 1313 
Q 434 1759 690 2068 
Q 947 2378 1403 2484 
z
M 1172 3481 
Q 1172 3119 1398 2916 
Q 1625 2713 2034 2713 
Q 2441 2713 2670 2916 
Q 2900 3119 2900 3481 
Q 2900 3844 2670 4047 
Q 2441 4250 2034 4250 
Q 1625 4250 1398 4047 
Q 1172 3844 1172 3481 
z
" transform="scale(0.015625)"/>
       </defs>
       <use xlink:href="#DejaVuSans-38"/>
      </g>
     </g>
    </g>
    <g id="xtick_6">
     <g id="line2d_11">
      <path d="M 309.842879 303.64 
L 309.842879 25.44 
" clip-path="url(#pde9b5f01aa)" style="fill: none; stroke: #b0b0b0; stroke-opacity: 0.3; stroke-width: 0.8; stroke-linecap: square"/>
     </g>
     <g id="line2d_12">
      <g>
       <use xlink:href="#m31ced5cb11" x="309.842879" y="303.64" style="stroke: #000000; stroke-width: 0.8"/>
      </g>
     </g>
     <g id="text_6">
      <!-- 10 -->
      <g transform="translate(303.480379 318.238437) scale(0.1 -0.1)">
       <defs>
        <path id="DejaVuSans-31" d="M 794 531 
L 1825 531 
L 1825 4091 
L 703 3866 
L 703 4441 
L 1819 4666 
L 2450 4666 
L 2450 531 
L 3481 531 
L 3481 0 
L 794 0 
L 794 531 
z
" transform="scale(0.015625)"/>
       </defs>
       <use xlink:href="#DejaVuSans-31"/>
       <use xlink:href="#DejaVuSans-30" transform="translate(63.623047 0)"/>
      </g>
     </g>
    </g>
    <g id="xtick_7">
     <g id="line2d_13">
      <path d="M 358.593182 303.64 
L 358.593182 25.44 
" clip-path="url(#pde9b5f01aa)" style="fill: none; stroke: #b0b0b0; stroke-opacity: 0.3; stroke-width: 0.8; stroke-linecap: square"/>
     </g>
     <g id="line2d_14">
      <g>
       <use xlink:href="#m31ced5cb11" x="358.593182" y="303.64" style="stroke: #000000; stroke-width: 0.8"/>
      </g>
     </g>
     <g id="text_7">
      <!-- 12 -->
      <g transform="translate(352.230682 318.238437) scale(0.1 -0.1)">
       <use xlink:href="#DejaVuSans-31"/>
       <use xlink:href="#DejaVuSans-32" transform="translate(63.623047 0)"/>
      </g>
     </g>
    </g>
    <g id="xtick_8">
     <g id="line2d_15">
      <path d="M 407.343485 303.64 
L 407.343485 25.44 
" clip-path="url(#pde9b5f01aa)" style="fill: none; stroke: #b0b0b0; stroke-opacity: 0.3; stroke-width: 0.8; stroke-linecap: square"/>
     </g>
     <g id="line2d_16">
      <g>
       <use xlink:href="#m31ced5cb11" x="407.343485" y="303.64" style="stroke: #000000; stroke-width: 0.8"/>
      </g>
     </g>
     <g id="text_8">
      <!-- 14 -->
      <g transform="translate(400.980985 318.238437) scale(0.1 -0.1)">
       <use xlink:href="#DejaVuSans-31"/>
       <use xlink:href="#DejaVuSans-34" transform="translate(63.623047 0)"/>
      </g>
     </g>
    </g>
    <g id="text_9">
     <!-- Time (minutes) -->
     <g transform="translate(210.9425 331.916562) scale(0.1 -0.1)">
      <defs>
       <path id="DejaVuSans-54" d="M -19 4666 
L 3928 4666 
L 3928 4134 
L 2272 4134 
L 2272 0 
L 1638 0 
L 1638 4134 
L -19 4134 
L -19 4666 
z
" transform="scale(0.015625)"/>
       <path id="DejaVuSans-69" d="M 603 3500 
L 1178 3500 
L 1178 0 
L 603 0 
L 603 3500 
z
M 603 4863 
L 1178 4863 
L 1178 4134 
L 603 4134 
L 603 4863 
z
" transform="scale(0.015625)"/>
       <path id="DejaVuSans-6d" d="M 3328 2828 
Q 3544 3216 3844 3400 
Q 4144 3584 4550 3584 
Q 5097 3584 5394 3201 
Q 5691 2819 5691 2113 
L 5691 0 
L 5113 0 
L 5113 2094 
Q 5113 2597 4934 2840 
Q 4756 3084 4391 3084 
Q 3944 3084 3684 2787 
Q 3425 2491 3425 1978 
L 3425 0 
L 2847 0 
L 2847 2094 
Q 2847 2600 2669 2842 
Q 2491 3084 2119 3084 
Q 1678 3084 1418 2786 
Q 1159 2488 1159 1978 
L 1159 0 
L 581 0 
L 581 3500 
L 1159 3500 
L 1159 2956 
Q 1356 3278 1631 3431 
Q 1906 3584 2284 3584 
Q 2666 3584 2933 3390 
Q 3200 3197 3328 2828 
z
" transform="scale(0.015625)"/>
       <path id="DejaVuSans-65" d="M 3597 1894 
L 3597 1613 
L 953 1613 
Q 991 1019 1311 708 
Q 1631 397 2203 397 
Q 2534 397 2845 478 
Q 3156 559 3463 722 
L 3463 178 
Q 3153 47 2828 -22 
Q 2503 -91 2169 -91 
Q 1331 -91 842 396 
Q 353 884 353 1716 
Q 353 2575 817 3079 
Q 1281 3584 2069 3584 
Q 2775 3584 3186 3129 
Q 3597 2675 3597 1894 
z
M 3022 2063 
Q 3016 2534 2758 2815 
Q 2500 3097 2075 3097 
Q 1594 3097 1305 2825 
Q 1016 2553 972 2059 
L 3022 2063 
z
" transform="scale(0.015625)"/>
       <path id="DejaVuSans-20" transform="scale(0.015625)"/>
       <path id="DejaVuSans-28" d="M 1984 4856 
Q 1566 4138 1362 3434 
Q 1159 2731 1159 2009 
Q 1159 1288 1364 580 
Q 1569 -128 1984 -844 
L 1484 -844 
Q 1016 -109 783 600 
Q 550 1309 550 2009 
Q 550 2706 781 3412 
Q 1013 4119 1484 4856 
L 1984 4856 
z
" transform="scale(0.015625)"/>
       <path id="DejaVuSans-6e" d="M 3513 2113 
L 3513 0 
L 2938 0 
L 2938 2094 
Q 2938 2591 2744 2837 
Q 2550 3084 2163 3084 
Q 1697 3084 1428 2787 
Q 1159 2491 1159 1978 
L 1159 0 
L 581 0 
L 581 3500 
L 1159 3500 
L 1159 2956 
Q 1366 3272 1645 3428 
Q 1925 3584 2291 3584 
Q 2894 3584 3203 3211 
Q 3513 2838 3513 2113 
z
" transform="scale(0.015625)"/>
       <path id="DejaVuSans-75" d="M 544 1381 
L 544 3500 
L 1119 3500 
L 1119 1403 
Q 1119 906 1312 657 
Q 1506 409 1894 409 
Q 2359 409 2629 706 
Q 2900 1003 2900 1516 
L 2900 3500 
L 3475 3500 
L 3475 0 
L 2900 0 
L 2900 538 
Q 2691 219 2414 64 
Q 2138 -91 1772 -91 
Q 1169 -91 856 284 
Q 544 659 544 1381 
z
M 1991 3584 
L 1991 3584 
z
" transform="scale(0.015625)"/>
       <path id="DejaVuSans-74" d="M 1172 4494 
L 1172 3500 
L 2356 3500 
L 2356 3053 
L 1172 3053 
L 1172 1153 
Q 1172 725 1289 603 
Q 1406 481 1766 481 
L 2356 481 
L 2356 0 
L 1766 0 
Q 1100 0 847 248 
Q 594 497 594 1153 
L 594 3053 
L 172 3053 
L 172 3500 
L 594 3500 
L 594 4494 
L 1172 4494 
z
" transform="scale(0.015625)"/>
       <path id="DejaVuSans-73" d="M 2834 3397 
L 2834 2853 
Q 2591 2978 2328 3040 
Q 2066 3103 1784 3103 
Q 1356 3103 1142 2972 
Q 928 2841 928 2578 
Q 928 2378 1081 2264 
Q 1234 2150 1697 2047 
L 1894 2003 
Q 2506 1872 2764 1633 
Q 3022 1394 3022 966 
Q 3022 478 2636 193 
Q 2250 -91 1575 -91 
Q 1294 -91 989 -36 
Q 684 19 347 128 
L 347 722 
Q 666 556 975 473 
Q 1284 391 1588 391 
Q 1994 391 2212 530 
Q 2431 669 2431 922 
Q 2431 1156 2273 1281 
Q 2116 1406 1581 1522 
L 1381 1569 
Q 847 1681 609 1914 
Q 372 2147 372 2553 
Q 372 3047 722 3315 
Q 1072 3584 1716 3584 
Q 2034 3584 2315 3537 
Q 2597 3491 2834 3397 
z
" transform="scale(0.015625)"/>
       <path id="DejaVuSans-29" d="M 513 4856 
L 1013 4856 
Q 1481 4119 1714 3412 
Q 1947 2706 1947 2009 
Q 1947 1309 1714 600 
Q 1481 -109 1013 -844 
L 513 -844 
Q 928 -128 1133 580 
Q 1338 1288 1338 2009 
Q 1338 2731 1133 3434 
Q 928 4138 513 4856 
z
" transform="scale(0.015625)"/>
      </defs>
      <use xlink:href="#DejaVuSans-54"/>
      <use xlink:href="#DejaVuSans-69" transform="translate(57.958984 0)"/>
      <use xlink:href="#DejaVuSans-6d" transform="translate(85.742188 0)"/>
      <use xlink:href="#DejaVuSans-65" transform="translate(183.154297 0)"/>
      <use xlink:href="#DejaVuSans-20" transform="translate(244.677734 0)"/>
      <use xlink:href="#DejaVuSans-28" transform="translate(276.464844 0)"/>
      <use xlink:href="#DejaVuSans-6d" transform="translate(315.478516 0)"/>
      <use xlink:href="#DejaVuSans-69" transform="translate(412.890625 0)"/>
      <use xlink:href="#DejaVuSans-6e" transform="translate(440.673828 0)"/>
      <use xlink:href="#DejaVuSans-75" transform="translate(504.052734 0)"/>
      <use xlink:href="#DejaVuSans-74" transform="translate(567.431641 0)"/>
      <use xlink:href="#DejaVuSans-65" transform="translate(606.640625 0)"/>
      <use xlink:href="#DejaVuSans-73" transform="translate(668.164062 0)"/>
      <use xlink:href="#DejaVuSans-29" transform="translate(720.263672 0)"/>
     </g>
    </g>
   </g>
   <g id="matplotlib.axis_2">
    <g id="ytick_1">
     <g id="line2d_17">
      <path d="M 47.81 284.105117 
L 450 284.105117 
" clip-path="url(#pde9b5f01aa)" style="fill: none; stroke: #b0b0b0; stroke-opacity: 0.3; stroke-width: 0.8; stroke-linecap: square"/>
     </g>
     <g id="line2d_18">
      <defs>
       <path id="mefc5dfc5e0" d="M 0 0 
L -3.5 0 
" style="stroke: #000000; stroke-width: 0.8"/>
      </defs>
      <g>
       <use xlink:href="#mefc5dfc5e0" x="47.81" y="284.105117" style="stroke: #000000; stroke-width: 0.8"/>
      </g>
     </g>
     <g id="text_10">
      <!-- 0.0 -->
      <g transform="translate(24.906875 287.904336) scale(0.1 -0.1)">
       <defs>
        <path id="DejaVuSans-2e" d="M 684 794 
L 1344 794 
L 1344 0 
L 684 0 
L 684 794 
z
" transform="scale(0.015625)"/>
       </defs>
       <use xlink:href="#DejaVuSans-30"/>
       <use xlink:href="#DejaVuSans-2e" transform="translate(63.623047 0)"/>
       <use xlink:href="#DejaVuSans-30" transform="translate(95.410156 0)"/>
      </g>
     </g>
    </g>
    <g id="ytick_2">
     <g id="line2d_19">
      <path d="M 47.81 253.093077 
L 450 253.093077 
" clip-path="url(#pde9b5f01aa)" style="fill: none; stroke: #b0b0b0; stroke-opacity: 0.3; stroke-width: 0.8; stroke-linecap: square"/>
     </g>
     <g id="line2d_20">
      <g>
       <use xlink:href="#mefc5dfc5e0" x="47.81" y="253.093077" style="stroke: #000000; stroke-width: 0.8"/>
      </g>
     </g>
     <g id="text_11">
      <!-- 0.5 -->
      <g transform="translate(24.906875 256.892296) scale(0.1 -0.1)">
       <defs>
        <path id="DejaVuSans-35" d="M 691 4666 
L 3169 4666 
L 3169 4134 
L 1269 4134 
L 1269 2991 
Q 1406 3038 1543 3061 
Q 1681 3084 1819 3084 
Q 2600 3084 3056 2656 
Q 3513 2228 3513 1497 
Q 3513 744 3044 326 
Q 2575 -91 1722 -91 
Q 1428 -91 1123 -41 
Q 819 9 494 109 
L 494 744 
Q 775 591 1075 516 
Q 1375 441 1709 441 
Q 2250 441 2565 725 
Q 2881 1009 2881 1497 
Q 2881 1984 2565 2268 
Q 2250 2553 1709 2553 
Q 1456 2553 1204 2497 
Q 953 2441 691 2322 
L 691 4666 
z
" transform="scale(0.015625)"/>
       </defs>
       <use xlink:href="#DejaVuSans-30"/>
       <use xlink:href="#DejaVuSans-2e" transform="translate(63.623047 0)"/>
       <use xlink:href="#DejaVuSans-35" transform="translate(95.410156 0)"/>
      </g>
     </g>
    </g>
    <g id="ytick_3">
     <g id="line2d_21">
      <path d="M 47.81 222.081037 
L 450 222.081037 
" clip-path="url(#pde9b5f01aa)" style="fill: none; stroke: #b0b0b0; stroke-opacity: 0.3; stroke-width: 0.8; stroke-linecap: square"/>
     </g>
     <g id="line2d_22">
      <g>
       <use xlink:href="#mefc5dfc5e0" x="47.81" y="222.081037" style="stroke: #000000; stroke-width: 0.8"/>
      </g>
     </g>
     <g id="text_12">
      <!-- 1.0 -->
      <g transform="translate(24.906875 225.880256) scale(0.1 -0.1)">
       <use xlink:href="#DejaVuSans-31"/>
       <use xlink:href="#DejaVuSans-2e" transform="translate(63.623047 0)"/>
       <use xlink:href="#DejaVuSans-30" transform="translate(95.410156 0)"/>
      </g>
     </g>
    </g>
    <g id="ytick_4">
     <g id="line2d_23">
      <path d="M 47.81 191.068997 
L 450 191.068997 
" clip-path="url(#pde9b5f01aa)" style="fill: none; stroke: #b0b0b0; stroke-opacity: 0.3; stroke-width: 0.8; stroke-linecap: square"/>
     </g>
     <g id="line2d_24">
      <g>
       <use xlink:href="#mefc5dfc5e0" x="47.81" y="191.068997" style="stroke: #000000; stroke-width: 0.8"/>
      </g>
     </g>
     <g id="text_13">
      <!-- 1.5 -->
      <g transform="translate(24.906875 194.868216) scale(0.1 -0.1)">
       <use xlink:href="#DejaVuSans-31"/>
       <use xlink:href="#DejaVuSans-2e" transform="translate(63.623047 0)"/>
       <use xlink:href="#DejaVuSans-35" transform="translate(95.410156 0)"/>
      </g>
     </g>
    </g>
    <g id="ytick_5">
     <g id="line2d_25">
      <path d="M 47.81 160.056957 
L 450 160.056957 
" clip-path="url(#pde9b5f01aa)" style="fill: none; stroke: #b0b0b0; stroke-opacity: 0.3; stroke-width: 0.8; stroke-linecap: square"/>
     </g>
     <g id="line2d_26">
      <g>
       <use xlink:href="#mefc5dfc5e0" x="47.81" y="160.056957" style="stroke: #000000; stroke-width: 0.8"/>
      </g>
     </g>
     <g id="text_14">
      <!-- 2.0 -->
      <g transform="translate(24.906875 163.856176) scale(0.1 -0.1)">
       <use xlink:href="#DejaVuSans-32"/>
       <use xlink:href="#DejaVuSans-2e" transform="translate(63.623047 0)"/>
       <use xlink:href="#DejaVuSans-30" transform="translate(95.410156 0)"/>
      </g>
     </g>
    </g>
    <g id="ytick_6">
     <g id="line2d_27">
      <path d="M 47.81 129.044917 
L 450 129.044917 
" clip-path="url(#pde9b5f01aa)" style="fill: none; stroke: #b0b0b0; stroke-opacity: 0.3; stroke-width: 0.8; stroke-linecap: square"/>
     </g>
     <g id="line2d_28">
      <g>
       <use xlink:href="#mefc5dfc5e0" x="47.81" y="129.044917" style="stroke: #000000; stroke-width: 0.8"/>
      </g>
     </g>
     <g id="text_15">
      <!-- 2.5 -->
      <g transform="translate(24.906875 132.844136) scale(0.1 -0.1)">
       <use xlink:href="#DejaVuSans-32"/>
       <use xlink:href="#DejaVuSans-2e" transform="translate(63.623047 0)"/>
       <use xlink:href="#DejaVuSans-35" transform="translate(95.410156 0)"/>
      </g>
     </g>
    </g>
    <g id="ytick_7">
     <g id="line2d_29">
      <path d="M 47.81 98.032877 
L 450 98.032877 
" clip-path="url(#pde9b5f01aa)" style="fill: none; stroke: #b0b0b0; stroke-opacity: 0.3; stroke-width: 0.8; stroke-linecap: square"/>
     </g>
     <g id="line2d_30">
      <g>
       <use xlink:href="#mefc5dfc5e0" x="47.81" y="98.032877" style="stroke: #000000; stroke-width: 0.8"/>
      </g>
     </g>
     <g id="text_16">
      <!-- 3.0 -->
      <g transform="translate(24.906875 101.832096) scale(0.1 -0.1)">
       <defs>
        <path id="DejaVuSans-33" d="M 2597 2516 
Q 3050 2419 3304 2112 
Q 3559 1806 3559 1356 
Q 3559 666 3084 287 
Q 2609 -91 1734 -91 
Q 1441 -91 1130 -33 
Q 819 25 488 141 
L 488 750 
Q 750 597 1062 519 
Q 1375 441 1716 441 
Q 2309 441 2620 675 
Q 2931 909 2931 1356 
Q 2931 1769 2642 2001 
Q 2353 2234 1838 2234 
L 1294 2234 
L 1294 2753 
L 1863 2753 
Q 2328 2753 2575 2939 
Q 2822 3125 2822 3475 
Q 2822 3834 2567 4026 
Q 2313 4219 1838 4219 
Q 1578 4219 1281 4162 
Q 984 4106 628 3988 
L 628 4550 
Q 988 4650 1302 4700 
Q 1616 4750 1894 4750 
Q 2613 4750 3031 4423 
Q 3450 4097 3450 3541 
Q 3450 3153 3228 2886 
Q 3006 2619 2597 2516 
z
" transform="scale(0.015625)"/>
       </defs>
       <use xlink:href="#DejaVuSans-33"/>
       <use xlink:href="#DejaVuSans-2e" transform="translate(63.623047 0)"/>
       <use xlink:href="#DejaVuSans-30" transform="translate(95.410156 0)"/>
      </g>
     </g>
    </g>
    <g id="ytick_8">
     <g id="line2d_31">
      <path d="M 47.81 67.020837 
L 450 67.020837 
" clip-path="url(#pde9b5f01aa)" style="fill: none; stroke: #b0b0b0; stroke-opacity: 0.3; stroke-width: 0.8; stroke-linecap: square"/>
     </g>
     <g id="line2d_32">
      <g>
       <use xlink:href="#mefc5dfc5e0" x="47.81" y="67.020837" style="stroke: #000000; stroke-width: 0.8"/>
      </g>
     </g>
     <g id="text_17">
      <!-- 3.5 -->
      <g transform="translate(24.906875 70.820056) scale(0.1 -0.1)">
       <use xlink:href="#DejaVuSans-33"/>
       <use xlink:href="#DejaVuSans-2e" transform="translate(63.623047 0)"/>
       <use xlink:href="#DejaVuSans-35" transform="translate(95.410156 0)"/>
      </g>
     </g>
    </g>
    <g id="ytick_9">
     <g id="line2d_33">
      <path d="M 47.81 36.008797 
L 450 36.008797 
" clip-path="url(#pde9b5f01aa)" style="fill: none; stroke: #b0b0b0; stroke-opacity: 0.3; stroke-width: 0.8; stroke-linecap: square"/>
     </g>
     <g id="line2d_34">
      <g>
       <use xlink:href="#mefc5dfc5e0" x="47.81" y="36.008797" style="stroke: #000000; stroke-width: 0.8"/>
      </g>
     </g>
     <g id="text_18">
      <!-- 4.0 -->
      <g transform="translate(24.906875 39.808015) scale(0.1 -0.1)">
       <use xlink:href="#DejaVuSans-34"/>
       <use xlink:href="#DejaVuSans-2e" transform="translate(63.623047 0)"/>
       <use xlink:href="#DejaVuSans-30" transform="translate(95.410156 0)"/>
      </g>
     </g>
    </g>
    <g id="text_19">
     <!-- Gaussian filtered EDA (μS) -->
     <g transform="translate(18.827188 230.613437) rotate(-90) scale(0.1 -0.1)">
      <defs>
       <path id="DejaVuSans-47" d="M 3809 666 
L 3809 1919 
L 2778 1919 
L 2778 2438 
L 4434 2438 
L 4434 434 
Q 4069 175 3628 42 
Q 3188 -91 2688 -91 
Q 1594 -91 976 548 
Q 359 1188 359 2328 
Q 359 3472 976 4111 
Q 1594 4750 2688 4750 
Q 3144 4750 3555 4637 
Q 3966 4525 4313 4306 
L 4313 3634 
Q 3963 3931 3569 4081 
Q 3175 4231 2741 4231 
Q 1884 4231 1454 3753 
Q 1025 3275 1025 2328 
Q 1025 1384 1454 906 
Q 1884 428 2741 428 
Q 3075 428 3337 486 
Q 3600 544 3809 666 
z
" transform="scale(0.015625)"/>
       <path id="DejaVuSans-61" d="M 2194 1759 
Q 1497 1759 1228 1600 
Q 959 1441 959 1056 
Q 959 750 1161 570 
Q 1363 391 1709 391 
Q 2188 391 2477 730 
Q 2766 1069 2766 1631 
L 2766 1759 
L 2194 1759 
z
M 3341 1997 
L 3341 0 
L 2766 0 
L 2766 531 
Q 2569 213 2275 61 
Q 1981 -91 1556 -91 
Q 1019 -91 701 211 
Q 384 513 384 1019 
Q 384 1609 779 1909 
Q 1175 2209 1959 2209 
L 2766 2209 
L 2766 2266 
Q 2766 2663 2505 2880 
Q 2244 3097 1772 3097 
Q 1472 3097 1187 3025 
Q 903 2953 641 2809 
L 641 3341 
Q 956 3463 1253 3523 
Q 1550 3584 1831 3584 
Q 2591 3584 2966 3190 
Q 3341 2797 3341 1997 
z
" transform="scale(0.015625)"/>
       <path id="DejaVuSans-66" d="M 2375 4863 
L 2375 4384 
L 1825 4384 
Q 1516 4384 1395 4259 
Q 1275 4134 1275 3809 
L 1275 3500 
L 2222 3500 
L 2222 3053 
L 1275 3053 
L 1275 0 
L 697 0 
L 697 3053 
L 147 3053 
L 147 3500 
L 697 3500 
L 697 3744 
Q 697 4328 969 4595 
Q 1241 4863 1831 4863 
L 2375 4863 
z
" transform="scale(0.015625)"/>
       <path id="DejaVuSans-6c" d="M 603 4863 
L 1178 4863 
L 1178 0 
L 603 0 
L 603 4863 
z
" transform="scale(0.015625)"/>
       <path id="DejaVuSans-72" d="M 2631 2963 
Q 2534 3019 2420 3045 
Q 2306 3072 2169 3072 
Q 1681 3072 1420 2755 
Q 1159 2438 1159 1844 
L 1159 0 
L 581 0 
L 581 3500 
L 1159 3500 
L 1159 2956 
Q 1341 3275 1631 3429 
Q 1922 3584 2338 3584 
Q 2397 3584 2469 3576 
Q 2541 3569 2628 3553 
L 2631 2963 
z
" transform="scale(0.015625)"/>
       <path id="DejaVuSans-64" d="M 2906 2969 
L 2906 4863 
L 3481 4863 
L 3481 0 
L 2906 0 
L 2906 525 
Q 2725 213 2448 61 
Q 2172 -91 1784 -91 
Q 1150 -91 751 415 
Q 353 922 353 1747 
Q 353 2572 751 3078 
Q 1150 3584 1784 3584 
Q 2172 3584 2448 3432 
Q 2725 3281 2906 2969 
z
M 947 1747 
Q 947 1113 1208 752 
Q 1469 391 1925 391 
Q 2381 391 2643 752 
Q 2906 1113 2906 1747 
Q 2906 2381 2643 2742 
Q 2381 3103 1925 3103 
Q 1469 3103 1208 2742 
Q 947 2381 947 1747 
z
" transform="scale(0.015625)"/>
       <path id="DejaVuSans-45" d="M 628 4666 
L 3578 4666 
L 3578 4134 
L 1259 4134 
L 1259 2753 
L 3481 2753 
L 3481 2222 
L 1259 2222 
L 1259 531 
L 3634 531 
L 3634 0 
L 628 0 
L 628 4666 
z
" transform="scale(0.015625)"/>
       <path id="DejaVuSans-44" d="M 1259 4147 
L 1259 519 
L 2022 519 
Q 2988 519 3436 956 
Q 3884 1394 3884 2338 
Q 3884 3275 3436 3711 
Q 2988 4147 2022 4147 
L 1259 4147 
z
M 628 4666 
L 1925 4666 
Q 3281 4666 3915 4102 
Q 4550 3538 4550 2338 
Q 4550 1131 3912 565 
Q 3275 0 1925 0 
L 628 0 
L 628 4666 
z
" transform="scale(0.015625)"/>
       <path id="DejaVuSans-41" d="M 2188 4044 
L 1331 1722 
L 3047 1722 
L 2188 4044 
z
M 1831 4666 
L 2547 4666 
L 4325 0 
L 3669 0 
L 3244 1197 
L 1141 1197 
L 716 0 
L 50 0 
L 1831 4666 
z
" transform="scale(0.015625)"/>
       <path id="DejaVuSans-3bc" d="M 544 -1331 
L 544 3500 
L 1119 3500 
L 1119 1325 
Q 1119 872 1334 640 
Q 1550 409 1972 409 
Q 2434 409 2667 671 
Q 2900 934 2900 1459 
L 2900 3500 
L 3475 3500 
L 3475 806 
Q 3475 619 3529 530 
Q 3584 441 3700 441 
Q 3728 441 3778 458 
Q 3828 475 3916 513 
L 3916 50 
Q 3788 -22 3673 -56 
Q 3559 -91 3450 -91 
Q 3234 -91 3106 31 
Q 2978 153 2931 403 
Q 2775 156 2548 32 
Q 2322 -91 2016 -91 
Q 1697 -91 1473 31 
Q 1250 153 1119 397 
L 1119 -1331 
L 544 -1331 
z
" transform="scale(0.015625)"/>
       <path id="DejaVuSans-53" d="M 3425 4513 
L 3425 3897 
Q 3066 4069 2747 4153 
Q 2428 4238 2131 4238 
Q 1616 4238 1336 4038 
Q 1056 3838 1056 3469 
Q 1056 3159 1242 3001 
Q 1428 2844 1947 2747 
L 2328 2669 
Q 3034 2534 3370 2195 
Q 3706 1856 3706 1288 
Q 3706 609 3251 259 
Q 2797 -91 1919 -91 
Q 1588 -91 1214 -16 
Q 841 59 441 206 
L 441 856 
Q 825 641 1194 531 
Q 1563 422 1919 422 
Q 2459 422 2753 634 
Q 3047 847 3047 1241 
Q 3047 1584 2836 1778 
Q 2625 1972 2144 2069 
L 1759 2144 
Q 1053 2284 737 2584 
Q 422 2884 422 3419 
Q 422 4038 858 4394 
Q 1294 4750 2059 4750 
Q 2388 4750 2728 4690 
Q 3069 4631 3425 4513 
z
" transform="scale(0.015625)"/>
      </defs>
      <use xlink:href="#DejaVuSans-47"/>
      <use xlink:href="#DejaVuSans-61" transform="translate(77.490234 0)"/>
      <use xlink:href="#DejaVuSans-75" transform="translate(138.769531 0)"/>
      <use xlink:href="#DejaVuSans-73" transform="translate(202.148438 0)"/>
      <use xlink:href="#DejaVuSans-73" transform="translate(254.248047 0)"/>
      <use xlink:href="#DejaVuSans-69" transform="translate(306.347656 0)"/>
      <use xlink:href="#DejaVuSans-61" transform="translate(334.130859 0)"/>
      <use xlink:href="#DejaVuSans-6e" transform="translate(395.410156 0)"/>
      <use xlink:href="#DejaVuSans-20" transform="translate(458.789062 0)"/>
      <use xlink:href="#DejaVuSans-66" transform="translate(490.576172 0)"/>
      <use xlink:href="#DejaVuSans-69" transform="translate(525.78125 0)"/>
      <use xlink:href="#DejaVuSans-6c" transform="translate(553.564453 0)"/>
      <use xlink:href="#DejaVuSans-74" transform="translate(581.347656 0)"/>
      <use xlink:href="#DejaVuSans-65" transform="translate(620.556641 0)"/>
      <use xlink:href="#DejaVuSans-72" transform="translate(682.080078 0)"/>
      <use xlink:href="#DejaVuSans-65" transform="translate(720.943359 0)"/>
      <use xlink:href="#DejaVuSans-64" transform="translate(782.466797 0)"/>
      <use xlink:href="#DejaVuSans-20" transform="translate(845.943359 0)"/>
      <use xlink:href="#DejaVuSans-45" transform="translate(877.730469 0)"/>
      <use xlink:href="#DejaVuSans-44" transform="translate(940.914062 0)"/>
      <use xlink:href="#DejaVuSans-41" transform="translate(1016.166016 0)"/>
      <use xlink:href="#DejaVuSans-20" transform="translate(1084.574219 0)"/>
      <use xlink:href="#DejaVuSans-28" transform="translate(1116.361328 0)"/>
      <use xlink:href="#DejaVuSans-3bc" transform="translate(1155.375 0)"/>
      <use xlink:href="#DejaVuSans-53" transform="translate(1218.998047 0)"/>
      <use xlink:href="#DejaVuSans-29" transform="translate(1282.474609 0)"/>
     </g>
    </g>
   </g>
   <g id="line2d_35">
    <path d="M 66.091364 238.4693 
L 67.818897 238.25107 
L 68.733473 238.258329 
L 69.749669 238.516424 
L 70.867484 238.754887 
L 71.375582 238.704794 
L 71.78206 238.436468 
L 72.188539 237.822597 
L 73.204735 235.983067 
L 73.407974 236.004638 
L 73.712833 236.403012 
L 74.32255 237.9382 
L 74.830648 238.984149 
L 75.237126 239.323376 
L 75.643605 239.360213 
L 76.86304 239.284147 
L 77.167899 239.76654 
L 77.472757 240.787991 
L 78.488953 245.126928 
L 78.692192 245.151373 
L 78.895432 244.754564 
L 79.30191 243.128236 
L 79.911627 240.676749 
L 80.318106 239.865272 
L 80.724584 239.598118 
L 81.131062 239.61052 
L 81.8424 239.901682 
L 82.655356 240.236325 
L 82.960215 240.126823 
L 83.163454 239.852843 
L 83.468313 238.908653 
L 83.773172 236.974566 
L 84.17965 232.404105 
L 84.992607 221.522266 
L 85.195846 220.707966 
L 85.297466 220.808651 
L 85.500705 222.017281 
L 85.805563 225.862546 
L 86.72014 239.09464 
L 87.126618 241.773715 
L 87.431477 242.693229 
L 87.736336 243.104922 
L 88.142814 243.290554 
L 88.955771 243.294248 
L 89.565488 243.377486 
L 90.073586 243.652478 
L 91.293021 244.456028 
L 91.59788 244.346022 
L 92.105978 243.844351 
L 92.817315 243.13656 
L 93.325413 242.963978 
L 93.833511 243.065171 
L 94.748087 243.315449 
L 95.357805 243.163989 
L 96.069142 243.008041 
L 96.678859 243.111196 
L 98.203153 243.474049 
L 98.711251 243.409127 
L 99.117729 243.147318 
L 99.524208 242.597145 
L 100.540404 240.979841 
L 100.845262 240.957912 
L 101.150121 241.212473 
L 102.979274 243.369892 
L 103.690611 243.666763 
L 104.808426 243.996835 
L 105.214904 244.472635 
L 106.33272 246.121856 
L 106.637579 246.19408 
L 107.044057 246.013891 
L 107.755394 245.648977 
L 108.161873 245.691962 
L 108.974829 245.843723 
L 109.381308 245.610694 
L 109.889405 245.010459 
L 111.007221 243.626494 
L 111.515319 243.34812 
L 112.226656 243.236801 
L 113.446091 243.301561 
L 118.73031 243.828689 
L 122.795093 243.808397 
L 123.709669 243.526104 
L 124.116148 243.69243 
L 124.725865 244.292313 
L 125.233963 244.701316 
L 125.640441 244.751269 
L 126.148539 244.509348 
L 126.859876 244.172821 
L 127.367974 244.197859 
L 129.298747 244.561547 
L 138.24127 245.035704 
L 140.578521 245.230374 
L 141.391477 245.447616 
L 143.423869 246.236718 
L 143.931967 246.095697 
L 145.964359 245.18982 
L 147.285413 245.206597 
L 148.911327 245.407754 
L 150.842099 245.648387 
L 155.110122 245.847493 
L 156.634415 245.932725 
L 160.39434 246.275884 
L 167.71095 246.60662 
L 174.112984 246.919558 
L 178.279387 247.163646 
L 183.461986 247.42945 
L 186.510574 247.464503 
L 193.420706 247.734162 
L 199.111403 247.605799 
L 199.517881 247.31165 
L 201.143794 245.760112 
L 201.855131 245.669279 
L 210.289557 245.578489 
L 210.797655 245.917202 
L 211.610612 246.842718 
L 212.321949 247.530364 
L 213.033286 247.86658 
L 215.777015 248.620418 
L 217.911026 248.772718 
L 219.232081 248.701496 
L 219.638559 248.432237 
L 219.943418 247.973852 
L 220.349896 246.857141 
L 221.569331 242.692112 
L 221.77257 242.657806 
L 221.97581 242.872276 
L 222.382288 243.752672 
L 222.992005 245.053949 
L 223.398484 245.475976 
L 223.804962 245.602065 
L 224.922778 245.766451 
L 225.837354 246.060603 
L 226.142213 245.931648 
L 226.447071 245.526875 
L 226.85355 244.465658 
L 227.869746 241.242988 
L 228.174604 241.019363 
L 228.377843 241.148048 
L 228.682702 241.682584 
L 229.394039 243.665881 
L 230.105376 245.368448 
L 230.613474 246.03523 
L 231.019953 246.252662 
L 231.73129 246.322519 
L 233.153964 246.485881 
L 234.475019 246.573406 
L 237.421987 246.396631 
L 238.133324 246.210643 
L 238.539802 246.344644 
L 239.0479 246.796054 
L 239.759237 247.826824 
L 240.368955 248.656851 
L 240.775433 248.861099 
L 241.181911 248.781485 
L 242.096488 248.522763 
L 242.909444 248.370278 
L 243.620781 248.143166 
L 243.92564 248.303493 
L 244.636977 248.927251 
L 244.840217 248.803752 
L 245.145075 248.216679 
L 245.754793 246.832334 
L 245.958032 246.73759 
L 246.161271 246.869683 
L 246.872608 247.673418 
L 247.177467 247.574723 
L 247.685565 246.970713 
L 249.00662 245.136438 
L 249.819576 242.878957 
L 250.327674 241.783597 
L 250.734153 241.32915 
L 251.24225 241.119344 
L 251.953588 241.105501 
L 253.88436 241.250977 
L 255.611893 240.599188 
L 255.916751 240.039173 
L 256.32323 238.703258 
L 257.136187 235.715864 
L 257.441045 235.236452 
L 257.745904 235.177442 
L 258.152382 235.492508 
L 259.676676 237.277717 
L 260.286394 238.471595 
L 261.20097 240.294177 
L 261.709068 240.847246 
L 262.217166 241.111068 
L 263.030123 241.23119 
L 264.147938 241.432284 
L 265.468993 241.651401 
L 268.212721 241.838646 
L 269.127298 241.643415 
L 269.940254 241.830092 
L 271.972646 242.428819 
L 272.683983 242.568716 
L 274.309897 242.561416 
L 275.427712 242.821005 
L 278.577919 242.897318 
L 279.898974 242.56288 
L 280.508691 242.68297 
L 281.321648 243.075889 
L 282.236224 243.493104 
L 282.845942 243.486526 
L 284.370236 243.09534 
L 285.589671 242.441157 
L 286.402627 241.778724 
L 287.723682 240.476929 
L 288.13016 239.647266 
L 288.841498 237.465949 
L 289.756074 234.828372 
L 290.365791 233.688214 
L 290.975509 233.032955 
L 291.991705 232.178686 
L 292.499803 231.346989 
L 293.21114 229.63268 
L 294.430575 226.708035 
L 295.243532 225.313827 
L 295.751629 224.824719 
L 296.158108 224.714496 
L 298.292119 224.851148 
L 298.596978 225.279662 
L 298.901837 226.267182 
L 299.206695 228.230984 
L 299.511554 231.711372 
L 299.918032 239.450056 
L 301.239087 269.746874 
L 301.340707 270.144741 
L 301.442326 270.091615 
L 301.645565 268.696854 
L 301.950424 263.939481 
L 302.865001 246.34818 
L 303.06824 245.088212 
L 303.169859 245.072375 
L 303.373098 246.280603 
L 303.677957 250.83544 
L 305.100631 278.548332 
L 305.40549 280.482534 
L 305.608729 280.84498 
L 305.710349 280.749628 
L 305.913588 279.983894 
L 306.218447 277.291937 
L 306.624925 270.728371 
L 308.047599 242.862128 
L 308.454078 240.090483 
L 308.758937 239.324375 
L 308.962176 239.198846 
L 309.267034 239.339918 
L 310.791328 240.650388 
L 312.010763 241.198803 
L 313.331818 242.091563 
L 313.738296 241.987089 
L 314.144775 241.587707 
L 315.669068 239.62805 
L 316.177166 239.541714 
L 316.685264 239.726503 
L 317.294982 240.268824 
L 318.006319 240.855677 
L 318.514417 240.981835 
L 319.428993 241.146133 
L 320.750048 241.520096 
L 322.274342 241.95427 
L 323.188918 242.07358 
L 324.205114 241.932683 
L 326.440745 241.533316 
L 328.777995 241.577355 
L 329.387713 241.925261 
L 330.607148 242.761253 
L 331.216865 242.865836 
L 337.110801 242.739406 
L 337.923758 242.698834 
L 338.431856 242.903655 
L 339.95615 243.826906 
L 340.667487 243.745306 
L 341.277204 243.775616 
L 342.598259 244.08144 
L 343.004737 243.789787 
L 343.919314 243.011178 
L 344.427411 242.968428 
L 345.138749 242.979552 
L 346.256564 242.798645 
L 347.984097 243.240954 
L 349.508391 243.230472 
L 350.626206 243.562994 
L 351.540783 243.69915 
L 352.963457 243.813337 
L 353.979653 244.039505 
L 355.910425 243.775216 
L 356.316903 243.465814 
L 357.333099 242.478038 
L 357.637958 242.475097 
L 358.146056 242.774656 
L 358.654154 243.077541 
L 358.959012 243.019692 
L 359.263871 242.591118 
L 359.56873 241.630891 
L 359.975208 239.387761 
L 360.889784 232.137876 
L 361.499502 228.29051 
L 362.10922 225.791422 
L 362.922176 223.377852 
L 363.531894 222.221133 
L 364.54809 220.840562 
L 364.852948 219.950348 
L 365.259427 217.875265 
L 365.665905 214.254499 
L 366.174003 206.900627 
L 367.088579 188.401404 
L 368.104775 169.936892 
L 371.051743 120.80428 
L 372.271178 94.915586 
L 372.474417 93.855382 
L 372.576037 94.097972 
L 372.779276 96.363296 
L 373.084135 104.49264 
L 373.592233 127.623003 
L 374.100331 147.616172 
L 374.30357 149.797396 
L 374.405189 149.166108 
L 374.608429 144.398448 
L 374.913287 129.737559 
L 376.031103 66.924112 
L 376.437581 58.558246 
L 376.74244 56.657768 
L 376.84406 56.581516 
L 377.047299 56.977571 
L 377.860255 59.798111 
L 377.961875 59.783352 
L 378.165114 59.401061 
L 378.571593 57.669448 
L 379.486169 53.572958 
L 380.299126 50.606861 
L 380.502365 50.44412 
L 380.705604 50.76282 
L 381.010463 52.237772 
L 381.416941 55.997652 
L 381.823419 61.848208 
L 382.331517 73.021594 
L 383.042854 95.951878 
L 383.550952 110.219838 
L 383.855811 113.3596 
L 383.957431 113.204005 
L 384.16067 111.128061 
L 384.465529 104.411373 
L 385.684964 72.34517 
L 386.193062 66.038023 
L 386.701159 62.615259 
L 387.107638 61.157396 
L 387.310877 60.865292 
L 387.514116 60.949579 
L 387.717355 61.496254 
L 388.022214 63.342758 
L 388.428692 67.79861 
L 389.444888 81.139236 
L 389.648127 81.868526 
L 389.749747 81.802806 
L 389.952986 80.841686 
L 390.257845 77.784778 
L 391.070802 68.925638 
L 391.37566 67.481185 
L 391.680519 66.907092 
L 392.290237 66.264544 
L 392.595096 65.101241 
L 392.899954 62.80384 
L 393.408052 56.53411 
L 394.424248 43.188163 
L 394.932346 39.441412 
L 395.237205 38.327145 
L 395.440444 38.085455 
L 395.643683 38.268257 
L 395.846922 38.892494 
L 396.151781 40.671628 
L 396.558259 44.548826 
L 397.269596 54.155826 
L 397.980934 63.203687 
L 398.387412 66.283533 
L 398.692271 67.31831 
L 398.89551 67.448792 
L 399.098749 67.21795 
L 399.606847 65.883577 
L 399.911706 65.379935 
L 400.013325 65.386036 
L 400.216565 65.747252 
L 400.521423 67.218452 
L 401.029521 71.419358 
L 401.740858 76.894649 
L 402.350576 79.759583 
L 403.163533 83.515818 
L 404.382968 89.75711 
L 404.586207 90.027964 
L 404.687826 89.988488 
L 404.891065 89.531783 
L 405.195924 87.93262 
L 405.805642 82.673928 
L 406.516979 77.114294 
L 406.923457 75.417216 
L 407.228316 74.859678 
L 407.533175 74.706465 
L 408.142892 74.568988 
L 408.549371 74.104736 
L 409.159088 72.916255 
L 410.785002 69.379466 
L 411.19148 69.196661 
L 411.597958 68.959553 
L 411.902817 68.471738 
L 412.817393 66.665753 
L 413.122252 66.639748 
L 414.036828 67.029891 
L 414.341687 66.739393 
L 415.154644 65.649051 
L 415.357883 65.790215 
L 415.561122 66.337047 
L 415.865981 68.163216 
L 416.272459 72.75035 
L 416.882177 83.156902 
L 417.796753 98.202015 
L 418.203231 101.938686 
L 418.50809 103.095172 
L 418.60971 103.155423 
L 418.812949 102.800837 
L 419.117808 101.212617 
L 420.032384 94.787414 
L 420.235623 94.577479 
L 420.438862 95.129513 
L 420.743721 97.26457 
L 421.455058 105.241607 
L 422.064776 110.869927 
L 423.48745 121.592455 
L 423.995548 124.909956 
L 424.503646 126.853111 
L 425.214983 129.57766 
L 426.02794 132.824272 
L 426.637657 134.280134 
L 427.247375 135.813787 
L 428.36519 138.934587 
L 428.873288 139.650056 
L 429.991103 140.781952 
L 430.397582 141.586175 
L 430.80406 143.005836 
L 431.210538 145.554331 
L 431.718636 150.196216 
L 431.718636 150.196216 
" clip-path="url(#pde9b5f01aa)" style="fill: none; stroke-dasharray: 1.85,0.8; stroke-dashoffset: 0; stroke: #1f77b4; stroke-width: 0.5"/>
   </g>
   <g id="line2d_36">
    <path d="M 66.091364 239.544576 
L 66.599462 237.871132 
L 67.00594 237.208618 
L 67.310799 237.038259 
L 67.615657 237.099245 
L 68.022136 237.464932 
L 68.631853 238.412517 
L 69.952908 240.576591 
L 70.359386 240.853905 
L 70.765865 240.851856 
L 71.273963 240.548857 
L 71.9853 239.784571 
L 73.204735 238.449965 
L 73.712833 238.21982 
L 74.119311 238.297911 
L 74.525789 238.669298 
L 75.033887 239.501625 
L 75.846844 241.377927 
L 77.371138 245.02995 
L 77.980855 245.907009 
L 78.387334 246.133253 
L 78.692192 246.087574 
L 79.098671 245.781336 
L 79.606769 245.091661 
L 80.521345 243.358096 
L 81.63916 241.27025 
L 82.248878 240.575046 
L 82.655356 240.415054 
L 83.061835 240.498032 
L 83.569933 240.880711 
L 84.28127 241.793086 
L 86.821759 245.473554 
L 87.431477 245.826447 
L 88.041194 245.947233 
L 88.752531 245.857273 
L 89.667108 245.490755 
L 93.833511 243.481608 
L 94.951326 243.290677 
L 96.374 243.316721 
L 98.508012 243.372508 
L 99.829066 243.13877 
L 101.251741 242.935141 
L 102.064697 243.024488 
L 102.776034 243.316008 
L 103.588991 243.918178 
L 106.43434 246.306522 
L 107.044057 246.454515 
L 107.653775 246.389665 
L 108.466731 246.052938 
L 109.686166 245.245773 
L 111.31208 244.205714 
L 112.429895 243.782133 
L 113.64933 243.558028 
L 115.173624 243.527034 
L 117.612494 243.753549 
L 120.051364 243.903272 
L 122.998332 244.050962 
L 124.827485 244.430745 
L 126.961496 244.83498 
L 128.38417 244.857631 
L 132.753812 244.740223 
L 136.615357 244.929526 
L 138.749368 245.036726 
L 140.070423 245.334829 
L 142.915771 246.087791 
L 143.931967 246.076294 
L 145.253022 245.803834 
L 147.488653 245.320786 
L 148.708088 245.337516 
L 150.943718 245.664743 
L 152.671251 245.807654 
L 157.752231 246.049025 
L 161.207297 246.341493 
L 176.246996 247.026097 
L 182.750649 247.409558 
L 191.083455 247.630636 
L 196.469293 247.779251 
L 198.501685 247.576059 
L 200.229218 247.179382 
L 202.26161 246.44879 
L 204.59886 245.666023 
L 206.021534 245.436649 
L 207.342589 245.458891 
L 208.562024 245.713799 
L 209.883079 246.236347 
L 214.964058 248.521172 
L 216.386732 248.784282 
L 217.707787 248.78733 
L 219.028842 248.557214 
L 220.349896 248.105369 
L 221.97581 247.295394 
L 224.21144 246.194987 
L 225.329256 245.878732 
L 226.548691 245.765673 
L 227.971365 245.867739 
L 230.003757 246.271759 
L 232.137768 246.646102 
L 233.458823 246.643846 
L 236.202552 246.510203 
L 237.117128 246.720811 
L 238.234943 247.243162 
L 241.893249 249.206067 
L 242.909444 249.401323 
L 243.92564 249.363832 
L 244.840217 249.110004 
L 245.856412 248.571365 
L 247.075847 247.638684 
L 248.905 245.903056 
L 252.360066 242.603343 
L 253.985979 241.364796 
L 255.307034 240.624451 
L 256.424849 240.231065 
L 257.441045 240.090006 
L 258.558861 240.166187 
L 260.083155 240.522822 
L 263.944699 241.541148 
L 265.773851 241.75854 
L 270.95645 242.127724 
L 275.021234 242.793659 
L 277.764963 242.919459 
L 280.81355 243.075858 
L 282.541083 243.413953 
L 283.760518 243.570397 
L 284.573475 243.465195 
L 285.284812 243.151623 
L 285.996149 242.570914 
L 286.809106 241.590837 
L 287.926921 239.847555 
L 290.975509 234.404419 
L 292.601422 231.27454 
L 293.820857 228.428837 
L 295.040292 225.506427 
L 295.54839 224.798188 
L 295.853249 224.642255 
L 296.158108 224.739714 
L 296.462967 225.13281 
L 296.869445 226.189834 
L 297.275923 227.947674 
L 297.784021 231.283051 
L 298.393739 237.063867 
L 299.308315 248.370239 
L 301.747185 280.121962 
L 302.458522 286.033957 
L 303.06824 289.237917 
L 303.474718 290.458545 
L 303.779577 290.909629 
L 304.084436 290.973328 
L 304.389294 290.659239 
L 304.694153 289.976957 
L 305.100631 288.511086 
L 305.608729 285.816902 
L 306.218447 281.384911 
L 307.133023 272.875004 
L 309.470274 250.074974 
L 310.181611 245.511967 
L 310.689709 243.440447 
L 311.197807 242.208554 
L 311.604285 241.715223 
L 312.010763 241.566656 
L 312.417242 241.677255 
L 313.026959 242.141841 
L 314.144775 243.049115 
L 314.652873 243.154329 
L 315.26259 243.019411 
L 316.075547 242.544004 
L 318.107939 241.19935 
L 318.819276 241.098095 
L 319.632232 241.240923 
L 321.054907 241.789911 
L 322.172722 242.117845 
L 322.985679 242.128948 
L 324.205114 241.888402 
L 326.034266 241.515956 
L 326.948843 241.570694 
L 328.168278 241.8984 
L 330.912006 242.741884 
L 332.334681 242.863097 
L 337.51728 243.077127 
L 339.244813 243.471002 
L 341.480443 243.975265 
L 342.496639 243.984214 
L 343.614455 243.742389 
L 346.459803 242.974382 
L 347.374379 243.025511 
L 348.797054 243.372544 
L 350.524587 243.768376 
L 351.642402 243.777729 
L 353.471555 243.782593 
L 354.284511 244.019702 
L 354.995848 244.450148 
L 356.825001 245.736256 
L 357.333099 245.780125 
L 357.739577 245.614399 
L 358.146056 245.226205 
L 358.654154 244.366297 
L 359.162252 243.031103 
L 359.873589 240.480982 
L 361.093024 235.049698 
L 362.617317 228.36224 
L 363.531894 225.34708 
L 364.44647 222.185507 
L 365.056188 219.170124 
L 365.665905 214.848948 
L 366.275623 208.725128 
L 366.88534 200.301813 
L 367.698297 185.322994 
L 369.730689 145.918404 
L 370.340406 138.758845 
L 370.746884 136.359227 
L 370.950124 136.012815 
L 371.051743 136.073575 
L 371.254982 136.631519 
L 371.559841 138.419262 
L 372.067939 143.311093 
L 373.998711 164.515373 
L 374.30357 165.465255 
L 374.405189 165.493186 
L 374.608429 165.059909 
L 374.811668 163.912117 
L 375.116527 160.687106 
L 375.523005 153.599391 
L 376.132722 138.392639 
L 377.453777 97.223476 
L 378.368353 72.488815 
L 378.876451 63.610041 
L 379.18131 60.712218 
L 379.384549 59.898012 
L 379.486169 59.802851 
L 379.587788 59.903459 
L 379.791028 60.65541 
L 380.095886 63.023012 
L 380.502365 68.109837 
L 381.213702 80.676505 
L 382.941235 113.20402 
L 383.449333 118.504733 
L 383.855811 120.560907 
L 384.05905 120.951783 
L 384.262289 120.96367 
L 384.465529 120.630934 
L 384.770387 119.560836 
L 385.176866 117.248598 
L 385.888203 111.539 
L 387.514116 97.628748 
L 388.225453 93.656809 
L 389.14003 89.894753 
L 390.461084 84.573177 
L 391.172421 80.51049 
L 391.883758 74.94895 
L 394.424248 53.265005 
L 394.932346 50.980684 
L 395.237205 50.28011 
L 395.440444 50.13537 
L 395.643683 50.253257 
L 395.948542 50.883034 
L 396.35502 52.473486 
L 396.863118 55.465082 
L 397.676075 61.906157 
L 400.216565 83.562436 
L 401.029521 88.140358 
L 401.740858 90.982222 
L 402.350576 92.556282 
L 402.858674 93.261953 
L 403.265152 93.430705 
L 403.570011 93.326814 
L 403.976489 92.893295 
L 404.484587 91.929863 
L 405.094305 90.254184 
L 406.008881 86.947079 
L 407.736414 79.511843 
L 409.159088 73.838153 
L 410.073664 71.03505 
L 410.785002 69.55223 
L 411.293099 68.956879 
L 411.699578 68.800122 
L 412.004437 68.882463 
L 412.410915 69.259443 
L 412.919013 70.158042 
L 413.427111 71.528858 
L 414.036828 73.793174 
L 414.748165 77.282623 
L 415.561122 82.378954 
L 416.577318 90.26645 
L 419.422666 113.348316 
L 420.235623 117.836306 
L 420.94696 120.628755 
L 421.658297 122.643164 
L 422.572874 124.530827 
L 424.300407 127.864727 
L 425.316602 130.514086 
L 426.536037 134.340948 
L 428.161951 140.254825 
L 430.600821 149.201423 
L 431.515397 151.765049 
L 431.718636 152.230758 
L 431.718636 152.230758 
" clip-path="url(#pde9b5f01aa)" style="fill: none; stroke: #ff7f0e; stroke-width: 0.5; stroke-linecap: square"/>
   </g>
   <g id="line2d_37">
    <path d="M 66.091364 284.105117 
L 66.192983 284.105117 
L 66.294603 283.249318 
L 66.599462 285.149656 
L 66.802701 285.382805 
L 67.10756 285.251302 
L 68.123755 284.50053 
L 68.428614 284.323543 
L 69.648049 282.435042 
L 70.156147 282.023482 
L 70.562625 281.9784 
L 71.070723 282.197625 
L 71.78206 282.5531 
L 72.086919 282.493333 
L 72.493398 282.145745 
L 73.001496 281.58941 
L 73.204735 281.697867 
L 74.627409 283.563431 
L 75.033887 283.774952 
L 75.135507 283.729037 
L 75.643605 282.635487 
L 77.066279 279.203332 
L 77.167899 279.176514 
L 77.371138 279.603649 
L 78.387334 282.532055 
L 78.793812 283.078368 
L 78.997051 282.682715 
L 79.911627 280.258814 
L 80.114867 280.153658 
L 80.318106 280.235603 
L 80.724584 280.748452 
L 81.944019 283.154976 
L 82.553737 283.652194 
L 82.960215 283.795428 
L 83.163454 283.441399 
L 83.468313 282.268627 
L 83.773172 280.01434 
L 84.17965 274.904629 
L 85.094226 261.979802 
L 85.297466 261.515446 
L 85.500705 262.191543 
L 85.805563 265.990993 
L 86.516901 275.561821 
L 87.024998 279.447938 
L 87.431477 281.013113 
L 87.837955 281.391671 
L 88.447673 281.53466 
L 89.260629 281.773536 
L 89.768727 282.173343 
L 90.683304 283.365477 
L 91.293021 283.75056 
L 91.902739 283.928571 
L 92.207597 283.748439 
L 92.918935 283.396238 
L 93.325413 283.531944 
L 94.341609 283.917456 
L 95.357805 284.034029 
L 96.069142 283.866281 
L 98.91449 284.095203 
L 99.117729 284.007088 
L 99.524208 283.536535 
L 100.540404 282.115582 
L 100.743643 282.056821 
L 101.048501 282.385137 
L 101.861458 283.378396 
L 102.471176 283.756117 
L 103.284132 283.976149 
L 103.588991 283.862601 
L 104.300328 283.329875 
L 104.808426 283.03139 
L 105.113285 283.172511 
L 106.129481 283.789251 
L 106.739198 283.915355 
L 107.450535 283.462894 
L 107.958633 283.649492 
L 108.87321 283.943195 
L 109.889405 284.042671 
L 111.413699 283.371832 
L 112.226656 283.537831 
L 114.360667 284.033389 
L 116.494679 284.099897 
L 122.490234 284.0619 
L 123.201571 283.689666 
L 123.50643 283.523098 
L 124.014528 283.676448 
L 125.030724 283.968992 
L 126.04692 284.027174 
L 126.758257 283.526003 
L 127.266355 283.462679 
L 128.282551 283.724103 
L 129.908464 284.021672 
L 131.839236 284.097268 
L 139.562325 284.067533 
L 141.289858 283.882134 
L 142.712532 284.060794 
L 144.236826 284.039101 
L 145.151402 283.691107 
L 145.862739 283.693286 
L 148.403229 284.080255 
L 151.858295 284.071403 
L 156.126317 284.10474 
L 199.517881 284.079612 
L 200.127598 283.512137 
L 200.737316 283.086829 
L 201.245414 283.040568 
L 202.058371 283.281971 
L 204.192382 283.981648 
L 205.716676 284.086077 
L 208.053926 284.046632 
L 209.070122 283.691657 
L 210.289557 283.25956 
L 210.594416 283.334521 
L 211.813851 283.894841 
L 212.931666 284.051468 
L 215.268917 284.08758 
L 217.402928 284.093738 
L 219.740179 284.091209 
L 219.943418 283.847929 
L 220.349896 282.895767 
L 221.467712 279.390493 
L 221.670951 279.325074 
L 221.87419 279.53189 
L 222.179049 280.217352 
L 222.992005 282.422871 
L 223.500103 283.149609 
L 224.31306 283.713707 
L 225.126017 283.959056 
L 226.243832 284.068129 
L 226.447071 283.916337 
L 226.85355 282.839025 
L 227.971365 279.38654 
L 228.174604 279.263973 
L 228.377843 279.358365 
L 228.784322 280.021574 
L 229.902137 282.820565 
L 230.410235 283.410508 
L 231.019953 283.776107 
L 231.528051 283.887662 
L 232.442627 283.870311 
L 234.06854 284.067283 
L 236.812269 284.090456 
L 237.320367 283.78462 
L 238.336563 283.087753 
L 238.641422 283.057338 
L 240.470574 283.957249 
L 241.181911 283.992477 
L 241.791629 283.530702 
L 242.604586 283.247823 
L 243.620781 282.942437 
L 244.840217 283.781796 
L 244.941836 283.741334 
L 245.348314 282.881164 
L 245.551554 282.473679 
L 245.754793 282.497218 
L 246.36451 283.146126 
L 246.974228 283.629611 
L 247.685565 283.904623 
L 248.193663 283.92773 
L 248.701761 283.782966 
L 249.108239 283.332158 
L 250.429294 281.392336 
L 250.734153 281.380841 
L 251.24225 281.655253 
L 252.156827 282.47682 
L 253.071403 283.475245 
L 253.681121 283.802912 
L 254.595697 284.006688 
L 255.713512 284.080189 
L 255.916751 283.801369 
L 256.32323 282.590744 
L 257.136187 279.749737 
L 257.441045 279.289863 
L 257.745904 279.231248 
L 258.152382 279.521047 
L 259.879915 281.28959 
L 260.794492 283.013683 
L 261.30259 283.512385 
L 261.912307 283.82397 
L 262.826883 284.013756 
L 263.53822 283.975154 
L 265.062514 284.061673 
L 268.212721 284.104136 
L 268.6192 284.016675 
L 269.228917 283.934754 
L 271.871027 284.09649 
L 273.293701 284.038575 
L 273.700179 283.956279 
L 278.679539 284.073741 
L 279.797354 283.704436 
L 280.407072 283.831314 
L 281.524887 284.029649 
L 283.049181 284.07976 
L 284.471855 283.70254 
L 285.386432 283.601786 
L 286.097769 283.814385 
L 287.113965 284.016953 
L 288.3334 284.067646 
L 288.638258 283.682091 
L 289.552835 282.53449 
L 289.959313 282.325571 
L 290.365791 282.348869 
L 290.67065 282.484396 
L 291.991705 283.700685 
L 292.804661 283.954531 
L 293.10952 283.859716 
L 293.515999 283.819414 
L 295.65001 284.078213 
L 296.259727 284.037215 
L 296.666206 283.341114 
L 297.072684 281.97803 
L 297.479162 279.781851 
L 298.08888 274.93472 
L 299.206695 265.371169 
L 299.409935 264.745302 
L 299.613174 264.686246 
L 299.714793 265.00566 
L 300.019652 268.410695 
L 300.730989 276.728458 
L 301.137468 279.541375 
L 301.239087 279.493959 
L 301.543946 275.758398 
L 301.950424 266.033768 
L 302.865001 242.137652 
L 303.169859 239.600204 
L 303.271479 239.684953 
L 303.474718 241.161728 
L 303.779577 246.184725 
L 304.287675 258.46145 
L 304.897392 271.109555 
L 305.40549 277.048511 
L 305.913588 280.289048 
L 306.015208 280.482763 
L 306.218447 280.045766 
L 306.421686 278.906009 
L 306.828164 274.6372 
L 307.641121 264.982012 
L 307.94598 263.669376 
L 308.047599 263.614408 
L 308.250839 264.018073 
L 308.555697 265.652228 
L 309.165415 270.838333 
L 310.079991 278.411841 
L 310.588089 280.972596 
L 311.096187 282.415352 
L 311.604285 283.199014 
L 312.214002 283.677141 
L 312.92534 283.92684 
L 313.230198 283.885413 
L 313.738296 283.338457 
L 315.465829 280.969869 
L 315.872308 281.016924 
L 316.380406 281.37489 
L 316.685264 281.813332 
L 317.498221 283.136987 
L 318.107939 283.640197 
L 318.819276 283.910654 
L 319.937091 284.055957 
L 320.750048 283.997699 
L 321.664624 283.916952 
L 323.798635 284.088083 
L 327.152082 284.053018 
L 328.981234 283.67205 
L 330.200669 283.99234 
L 331.826583 284.089723 
L 336.297845 284.080921 
L 338.126997 283.801484 
L 339.346432 284.029374 
L 340.667487 284.048402 
L 341.785302 284.073334 
L 343.004737 284.038172 
L 343.716074 283.550408 
L 344.122553 283.528109 
L 345.646846 283.932244 
L 347.17114 284.07595 
L 348.593814 284.031151 
L 349.508391 283.803159 
L 350.219728 283.864572 
L 351.540783 284.051512 
L 354.182892 284.10298 
L 354.386131 284.05484 
L 356.012044 282.591427 
L 357.333099 280.850144 
L 357.637958 280.870132 
L 358.044436 281.697578 
L 358.654154 282.867244 
L 359.162252 283.430979 
L 359.771969 283.785039 
L 359.873589 283.713952 
L 360.280067 282.472109 
L 361.093024 279.771869 
L 361.397882 279.338779 
L 361.702741 279.267074 
L 362.10922 279.514534 
L 363.328655 280.629358 
L 363.836752 281.819413 
L 364.44647 282.958767 
L 364.954568 283.483971 
L 365.462666 283.771571 
L 365.564285 283.761564 
L 365.767525 283.215812 
L 366.174003 281.152631 
L 367.088579 275.639818 
L 367.291818 275.215778 
L 367.495058 275.214772 
L 367.698297 275.594084 
L 368.104775 277.149025 
L 368.917732 281.122362 
L 369.42583 282.481602 
L 369.730689 282.975755 
L 369.832308 282.948309 
L 370.035547 282.348086 
L 370.340406 280.398527 
L 370.645265 276.788169 
L 371.051743 268.873922 
L 371.661461 251.073685 
L 372.372798 231.303764 
L 372.677657 228.153397 
L 372.779276 228.379661 
L 372.880896 228.881324 
L 372.982515 229.975798 
L 373.287374 239.38016 
L 373.998711 263.016408 
L 374.30357 268.494676 
L 374.405189 267.814307 
L 374.608429 263.486207 
L 375.014907 245.625346 
L 375.624625 217.169017 
L 375.929483 210.574439 
L 376.132722 209.803877 
L 376.335962 211.601184 
L 376.64082 218.053971 
L 377.250538 238.357345 
L 378.063495 264.122539 
L 378.571593 273.20334 
L 378.978071 277.403131 
L 379.18131 278.237393 
L 379.28293 278.341465 
L 379.384549 278.22775 
L 379.587788 277.396274 
L 379.892647 274.750625 
L 380.502365 266.477586 
L 381.315321 256.311007 
L 381.7218 253.266401 
L 381.925039 252.627976 
L 382.026658 252.59491 
L 382.128278 252.793942 
L 382.433137 254.589952 
L 382.737996 259.924612 
L 383.449333 272.759729 
L 383.855811 276.856116 
L 383.957431 276.589425 
L 384.16067 274.272858 
L 384.567148 265.326746 
L 385.380105 246.653221 
L 385.786583 242.462433 
L 386.091442 241.467498 
L 386.193062 241.436111 
L 386.396301 241.707393 
L 386.701159 242.704512 
L 387.209257 245.326573 
L 387.717355 249.27996 
L 388.225453 255.637013 
L 388.733551 265.427161 
L 389.241649 273.547863 
L 389.749747 278.255897 
L 389.851367 278.416575 
L 390.054606 277.744077 
L 390.461084 274.786863 
L 390.867563 272.274284 
L 391.070802 271.887243 
L 391.172421 271.958032 
L 391.37566 272.472824 
L 391.680519 274.494878 
L 392.391856 279.57397 
L 392.798335 281.30637 
L 392.899954 281.462389 
L 393.103193 281.123595 
L 393.408052 279.823617 
L 394.525868 273.688605 
L 394.932346 272.60435 
L 395.338824 272.123372 
L 395.542064 272.101671 
L 395.745303 272.259736 
L 396.050161 272.904004 
L 396.45664 274.499013 
L 397.472836 280.735935 
L 397.980934 282.279148 
L 398.184173 282.58029 
L 398.387412 281.996604 
L 398.692271 280.1983 
L 399.200369 275.30464 
L 400.013325 267.333884 
L 400.318184 266.046278 
L 400.521423 265.915895 
L 400.724662 266.283888 
L 401.131141 267.865858 
L 401.740858 270.055842 
L 402.858674 272.864258 
L 403.265152 274.734831 
L 404.179728 280.486588 
L 404.687826 282.140574 
L 404.992685 282.66041 
L 405.195924 282.141003 
L 405.602403 280.197704 
L 406.31374 276.853458 
L 406.618598 276.31959 
L 406.821838 276.354378 
L 407.025077 276.685713 
L 407.431555 278.033571 
L 408.447751 281.889752 
L 408.955849 282.900792 
L 409.463947 283.457781 
L 410.073664 283.799059 
L 410.988241 284.00583 
L 411.801197 283.99676 
L 412.106056 283.203157 
L 413.122252 280.132932 
L 413.73197 278.608675 
L 414.138448 276.870781 
L 414.748165 272.94042 
L 415.459503 268.471313 
L 415.764361 267.710541 
L 415.865981 267.7184 
L 416.06922 268.159038 
L 416.374079 269.670817 
L 417.593514 280.032273 
L 418.101612 281.906864 
L 418.203231 281.942352 
L 418.50809 280.572992 
L 418.914568 276.734796 
L 420.235623 260.884881 
L 420.438862 260.543762 
L 420.540482 260.678649 
L 420.743721 261.485126 
L 421.150199 264.549957 
L 421.963156 270.911983 
L 424.097167 281.901239 
L 424.605265 282.902123 
L 425.113363 283.456302 
L 425.723081 283.798074 
L 426.434418 283.957759 
L 426.739277 283.604232 
L 427.348994 283.061006 
L 427.958712 282.647398 
L 428.36519 282.040619 
L 428.873288 280.794603 
L 430.092723 277.576939 
L 430.499201 277.155549 
L 430.70244 277.041298 
L 430.90568 277.614044 
L 431.718636 281.207463 
L 431.718636 281.207463 
" clip-path="url(#pde9b5f01aa)" style="fill: none; stroke: #2ca02c; stroke-width: 0.5; stroke-linecap: square"/>
   </g>
   <g id="patch_3">
    <path d="M 47.81 303.64 
L 47.81 25.44 
" style="fill: none; stroke: #000000; stroke-width: 0.8; stroke-linejoin: miter; stroke-linecap: square"/>
   </g>
   <g id="patch_4">
    <path d="M 450 303.64 
L 450 25.44 
" style="fill: none; stroke: #000000; stroke-width: 0.8; stroke-linejoin: miter; stroke-linecap: square"/>
   </g>
   <g id="patch_5">
    <path d="M 47.81 303.64 
L 450 303.64 
" style="fill: none; stroke: #000000; stroke-width: 0.8; stroke-linejoin: miter; stroke-linecap: square"/>
   </g>
   <g id="patch_6">
    <path d="M 47.81 25.44 
L 450 25.44 
" style="fill: none; stroke: #000000; stroke-width: 0.8; stroke-linejoin: miter; stroke-linecap: square"/>
   </g>
   <g id="text_20">
    <!-- data_4_E4 Separated EDA plot -->
    <g transform="translate(157.349688 19.44) scale(0.12 -0.12)">
     <defs>
      <path id="DejaVuSans-5f" d="M 3263 -1063 
L 3263 -1509 
L -63 -1509 
L -63 -1063 
L 3263 -1063 
z
" transform="scale(0.015625)"/>
      <path id="DejaVuSans-70" d="M 1159 525 
L 1159 -1331 
L 581 -1331 
L 581 3500 
L 1159 3500 
L 1159 2969 
Q 1341 3281 1617 3432 
Q 1894 3584 2278 3584 
Q 2916 3584 3314 3078 
Q 3713 2572 3713 1747 
Q 3713 922 3314 415 
Q 2916 -91 2278 -91 
Q 1894 -91 1617 61 
Q 1341 213 1159 525 
z
M 3116 1747 
Q 3116 2381 2855 2742 
Q 2594 3103 2138 3103 
Q 1681 3103 1420 2742 
Q 1159 2381 1159 1747 
Q 1159 1113 1420 752 
Q 1681 391 2138 391 
Q 2594 391 2855 752 
Q 3116 1113 3116 1747 
z
" transform="scale(0.015625)"/>
      <path id="DejaVuSans-6f" d="M 1959 3097 
Q 1497 3097 1228 2736 
Q 959 2375 959 1747 
Q 959 1119 1226 758 
Q 1494 397 1959 397 
Q 2419 397 2687 759 
Q 2956 1122 2956 1747 
Q 2956 2369 2687 2733 
Q 2419 3097 1959 3097 
z
M 1959 3584 
Q 2709 3584 3137 3096 
Q 3566 2609 3566 1747 
Q 3566 888 3137 398 
Q 2709 -91 1959 -91 
Q 1206 -91 779 398 
Q 353 888 353 1747 
Q 353 2609 779 3096 
Q 1206 3584 1959 3584 
z
" transform="scale(0.015625)"/>
     </defs>
     <use xlink:href="#DejaVuSans-64"/>
     <use xlink:href="#DejaVuSans-61" transform="translate(63.476562 0)"/>
     <use xlink:href="#DejaVuSans-74" transform="translate(124.755859 0)"/>
     <use xlink:href="#DejaVuSans-61" transform="translate(163.964844 0)"/>
     <use xlink:href="#DejaVuSans-5f" transform="translate(225.244141 0)"/>
     <use xlink:href="#DejaVuSans-34" transform="translate(275.244141 0)"/>
     <use xlink:href="#DejaVuSans-5f" transform="translate(338.867188 0)"/>
     <use xlink:href="#DejaVuSans-45" transform="translate(388.867188 0)"/>
     <use xlink:href="#DejaVuSans-34" transform="translate(452.050781 0)"/>
     <use xlink:href="#DejaVuSans-20" transform="translate(515.673828 0)"/>
     <use xlink:href="#DejaVuSans-53" transform="translate(547.460938 0)"/>
     <use xlink:href="#DejaVuSans-65" transform="translate(610.9375 0)"/>
     <use xlink:href="#DejaVuSans-70" transform="translate(672.460938 0)"/>
     <use xlink:href="#DejaVuSans-61" transform="translate(735.9375 0)"/>
     <use xlink:href="#DejaVuSans-72" transform="translate(797.216797 0)"/>
     <use xlink:href="#DejaVuSans-61" transform="translate(838.330078 0)"/>
     <use xlink:href="#DejaVuSans-74" transform="translate(899.609375 0)"/>
     <use xlink:href="#DejaVuSans-65" transform="translate(938.818359 0)"/>
     <use xlink:href="#DejaVuSans-64" transform="translate(1000.341797 0)"/>
     <use xlink:href="#DejaVuSans-20" transform="translate(1063.818359 0)"/>
     <use xlink:href="#DejaVuSans-45" transform="translate(1095.605469 0)"/>
     <use xlink:href="#DejaVuSans-44" transform="translate(1158.789062 0)"/>
     <use xlink:href="#DejaVuSans-41" transform="translate(1234.041016 0)"/>
     <use xlink:href="#DejaVuSans-20" transform="translate(1302.449219 0)"/>
     <use xlink:href="#DejaVuSans-70" transform="translate(1334.236328 0)"/>
     <use xlink:href="#DejaVuSans-6c" transform="translate(1397.712891 0)"/>
     <use xlink:href="#DejaVuSans-6f" transform="translate(1425.496094 0)"/>
     <use xlink:href="#DejaVuSans-74" transform="translate(1486.677734 0)"/>
    </g>
   </g>
   <g id="legend_1">
    <g id="patch_7">
     <path d="M 54.81 77.474375 
L 147.71625 77.474375 
Q 149.71625 77.474375 149.71625 75.474375 
L 149.71625 32.44 
Q 149.71625 30.44 147.71625 30.44 
L 54.81 30.44 
Q 52.81 30.44 52.81 32.44 
L 52.81 75.474375 
Q 52.81 77.474375 54.81 77.474375 
z
" style="fill: #ffffff; opacity: 0.8; stroke: #cccccc; stroke-linejoin: miter"/>
    </g>
    <g id="line2d_38">
     <path d="M 56.81 38.538437 
L 66.81 38.538437 
L 76.81 38.538437 
" style="fill: none; stroke-dasharray: 1.85,0.8; stroke-dashoffset: 0; stroke: #1f77b4; stroke-width: 0.5"/>
    </g>
    <g id="text_21">
     <!-- Filtered EDA -->
     <g transform="translate(84.81 42.038437) scale(0.1 -0.1)">
      <defs>
       <path id="DejaVuSans-46" d="M 628 4666 
L 3309 4666 
L 3309 4134 
L 1259 4134 
L 1259 2759 
L 3109 2759 
L 3109 2228 
L 1259 2228 
L 1259 0 
L 628 0 
L 628 4666 
z
" transform="scale(0.015625)"/>
      </defs>
      <use xlink:href="#DejaVuSans-46"/>
      <use xlink:href="#DejaVuSans-69" transform="translate(50.269531 0)"/>
      <use xlink:href="#DejaVuSans-6c" transform="translate(78.052734 0)"/>
      <use xlink:href="#DejaVuSans-74" transform="translate(105.835938 0)"/>
      <use xlink:href="#DejaVuSans-65" transform="translate(145.044922 0)"/>
      <use xlink:href="#DejaVuSans-72" transform="translate(206.568359 0)"/>
      <use xlink:href="#DejaVuSans-65" transform="translate(245.431641 0)"/>
      <use xlink:href="#DejaVuSans-64" transform="translate(306.955078 0)"/>
      <use xlink:href="#DejaVuSans-20" transform="translate(370.431641 0)"/>
      <use xlink:href="#DejaVuSans-45" transform="translate(402.21875 0)"/>
      <use xlink:href="#DejaVuSans-44" transform="translate(465.402344 0)"/>
      <use xlink:href="#DejaVuSans-41" transform="translate(540.654297 0)"/>
     </g>
    </g>
    <g id="line2d_39">
     <path d="M 56.81 53.216562 
L 66.81 53.216562 
L 76.81 53.216562 
" style="fill: none; stroke: #ff7f0e; stroke-width: 0.5; stroke-linecap: square"/>
    </g>
    <g id="text_22">
     <!-- Tonic -->
     <g transform="translate(84.81 56.716562) scale(0.1 -0.1)">
      <defs>
       <path id="DejaVuSans-63" d="M 3122 3366 
L 3122 2828 
Q 2878 2963 2633 3030 
Q 2388 3097 2138 3097 
Q 1578 3097 1268 2742 
Q 959 2388 959 1747 
Q 959 1106 1268 751 
Q 1578 397 2138 397 
Q 2388 397 2633 464 
Q 2878 531 3122 666 
L 3122 134 
Q 2881 22 2623 -34 
Q 2366 -91 2075 -91 
Q 1284 -91 818 406 
Q 353 903 353 1747 
Q 353 2603 823 3093 
Q 1294 3584 2113 3584 
Q 2378 3584 2631 3529 
Q 2884 3475 3122 3366 
z
" transform="scale(0.015625)"/>
      </defs>
      <use xlink:href="#DejaVuSans-54"/>
      <use xlink:href="#DejaVuSans-6f" transform="translate(44.083984 0)"/>
      <use xlink:href="#DejaVuSans-6e" transform="translate(105.265625 0)"/>
      <use xlink:href="#DejaVuSans-69" transform="translate(168.644531 0)"/>
      <use xlink:href="#DejaVuSans-63" transform="translate(196.427734 0)"/>
     </g>
    </g>
    <g id="line2d_40">
     <path d="M 56.81 67.894687 
L 66.81 67.894687 
L 76.81 67.894687 
" style="fill: none; stroke: #2ca02c; stroke-width: 0.5; stroke-linecap: square"/>
    </g>
    <g id="text_23">
     <!-- Phasic -->
     <g transform="translate(84.81 71.394687) scale(0.1 -0.1)">
      <defs>
       <path id="DejaVuSans-50" d="M 1259 4147 
L 1259 2394 
L 2053 2394 
Q 2494 2394 2734 2622 
Q 2975 2850 2975 3272 
Q 2975 3691 2734 3919 
Q 2494 4147 2053 4147 
L 1259 4147 
z
M 628 4666 
L 2053 4666 
Q 2838 4666 3239 4311 
Q 3641 3956 3641 3272 
Q 3641 2581 3239 2228 
Q 2838 1875 2053 1875 
L 1259 1875 
L 1259 0 
L 628 0 
L 628 4666 
z
" transform="scale(0.015625)"/>
       <path id="DejaVuSans-68" d="M 3513 2113 
L 3513 0 
L 2938 0 
L 2938 2094 
Q 2938 2591 2744 2837 
Q 2550 3084 2163 3084 
Q 1697 3084 1428 2787 
Q 1159 2491 1159 1978 
L 1159 0 
L 581 0 
L 581 4863 
L 1159 4863 
L 1159 2956 
Q 1366 3272 1645 3428 
Q 1925 3584 2291 3584 
Q 2894 3584 3203 3211 
Q 3513 2838 3513 2113 
z
" transform="scale(0.015625)"/>
      </defs>
      <use xlink:href="#DejaVuSans-50"/>
      <use xlink:href="#DejaVuSans-68" transform="translate(60.302734 0)"/>
      <use xlink:href="#DejaVuSans-61" transform="translate(123.681641 0)"/>
      <use xlink:href="#DejaVuSans-73" transform="translate(184.960938 0)"/>
      <use xlink:href="#DejaVuSans-69" transform="translate(237.060547 0)"/>
      <use xlink:href="#DejaVuSans-63" transform="translate(264.84375 0)"/>
     </g>
    </g>
   </g>
  </g>
 </g>
 <defs>
  <clipPath id="pde9b5f01aa">
   <rect x="47.81" y="25.44" width="402.19" height="278.2"/>
  </clipPath>
 </defs>
</svg>
