<?xml version="1.0" encoding="utf-8" standalone="no"?>
<!DOCTYPE svg PUBLIC "-//W3C//DTD SVG 1.1//EN"
  "http://www.w3.org/Graphics/SVG/1.1/DTD/svg11.dtd">
<svg xmlns:xlink="http://www.w3.org/1999/xlink" width="460.8pt" height="345.6pt" viewBox="0 0 460.8 345.6" xmlns="http://www.w3.org/2000/svg" version="1.1">
 <metadata>
  <rdf:RDF xmlns:dc="http://purl.org/dc/elements/1.1/" xmlns:cc="http://creativecommons.org/ns#" xmlns:rdf="http://www.w3.org/1999/02/22-rdf-syntax-ns#">
   <cc:Work>
    <dc:type rdf:resource="http://purl.org/dc/dcmitype/StillImage"/>
    <dc:date>2025-09-22T14:18:55.335656</dc:date>
    <dc:format>image/svg+xml</dc:format>
    <dc:creator>
     <cc:Agent>
      <dc:title>Matplotlib v3.10.0, https://matplotlib.org/</dc:title>
     </cc:Agent>
    </dc:creator>
   </cc:Work>
  </rdf:RDF>
 </metadata>
 <defs>
  <style type="text/css">*{stroke-linejoin: round; stroke-linecap: butt}</style>
 </defs>
 <g id="figure_1">
  <g id="patch_1">
   <path d="M 0 345.6 
L 460.8 345.6 
L 460.8 0 
L 0 0 
z
" style="fill: #ffffff"/>
  </g>
  <g id="axes_1">
   <g id="patch_2">
    <path d="M 47.81 303.64 
L 450 303.64 
L 450 25.44 
L 47.81 25.44 
z
" style="fill: #ffffff"/>
   </g>
   <g id="matplotlib.axis_1">
    <g id="xtick_1">
     <g id="line2d_1">
      <path d="M 66.091364 303.64 
L 66.091364 25.44 
" clip-path="url(#p7e3a259c00)" style="fill: none; stroke: #b0b0b0; stroke-opacity: 0.3; stroke-width: 0.8; stroke-linecap: square"/>
     </g>
     <g id="line2d_2">
      <defs>
       <path id="m4b8d97f8c2" d="M 0 0 
L 0 3.5 
" style="stroke: #000000; stroke-width: 0.8"/>
      </defs>
      <g>
       <use xlink:href="#m4b8d97f8c2" x="66.091364" y="303.64" style="stroke: #000000; stroke-width: 0.8"/>
      </g>
     </g>
     <g id="text_1">
      <!-- 0 -->
      <g transform="translate(62.910114 318.238437) scale(0.1 -0.1)">
       <defs>
        <path id="DejaVuSans-30" d="M 2034 4250 
Q 1547 4250 1301 3770 
Q 1056 3291 1056 2328 
Q 1056 1369 1301 889 
Q 1547 409 2034 409 
Q 2525 409 2770 889 
Q 3016 1369 3016 2328 
Q 3016 3291 2770 3770 
Q 2525 4250 2034 4250 
z
M 2034 4750 
Q 2819 4750 3233 4129 
Q 3647 3509 3647 2328 
Q 3647 1150 3233 529 
Q 2819 -91 2034 -91 
Q 1250 -91 836 529 
Q 422 1150 422 2328 
Q 422 3509 836 4129 
Q 1250 4750 2034 4750 
z
" transform="scale(0.015625)"/>
       </defs>
       <use xlink:href="#DejaVuSans-30"/>
      </g>
     </g>
    </g>
    <g id="xtick_2">
     <g id="line2d_3">
      <path d="M 114.841667 303.64 
L 114.841667 25.44 
" clip-path="url(#p7e3a259c00)" style="fill: none; stroke: #b0b0b0; stroke-opacity: 0.3; stroke-width: 0.8; stroke-linecap: square"/>
     </g>
     <g id="line2d_4">
      <g>
       <use xlink:href="#m4b8d97f8c2" x="114.841667" y="303.64" style="stroke: #000000; stroke-width: 0.8"/>
      </g>
     </g>
     <g id="text_2">
      <!-- 2 -->
      <g transform="translate(111.660417 318.238437) scale(0.1 -0.1)">
       <defs>
        <path id="DejaVuSans-32" d="M 1228 531 
L 3431 531 
L 3431 0 
L 469 0 
L 469 531 
Q 828 903 1448 1529 
Q 2069 2156 2228 2338 
Q 2531 2678 2651 2914 
Q 2772 3150 2772 3378 
Q 2772 3750 2511 3984 
Q 2250 4219 1831 4219 
Q 1534 4219 1204 4116 
Q 875 4013 500 3803 
L 500 4441 
Q 881 4594 1212 4672 
Q 1544 4750 1819 4750 
Q 2544 4750 2975 4387 
Q 3406 4025 3406 3419 
Q 3406 3131 3298 2873 
Q 3191 2616 2906 2266 
Q 2828 2175 2409 1742 
Q 1991 1309 1228 531 
z
" transform="scale(0.015625)"/>
       </defs>
       <use xlink:href="#DejaVuSans-32"/>
      </g>
     </g>
    </g>
    <g id="xtick_3">
     <g id="line2d_5">
      <path d="M 163.59197 303.64 
L 163.59197 25.44 
" clip-path="url(#p7e3a259c00)" style="fill: none; stroke: #b0b0b0; stroke-opacity: 0.3; stroke-width: 0.8; stroke-linecap: square"/>
     </g>
     <g id="line2d_6">
      <g>
       <use xlink:href="#m4b8d97f8c2" x="163.59197" y="303.64" style="stroke: #000000; stroke-width: 0.8"/>
      </g>
     </g>
     <g id="text_3">
      <!-- 4 -->
      <g transform="translate(160.41072 318.238437) scale(0.1 -0.1)">
       <defs>
        <path id="DejaVuSans-34" d="M 2419 4116 
L 825 1625 
L 2419 1625 
L 2419 4116 
z
M 2253 4666 
L 3047 4666 
L 3047 1625 
L 3713 1625 
L 3713 1100 
L 3047 1100 
L 3047 0 
L 2419 0 
L 2419 1100 
L 313 1100 
L 313 1709 
L 2253 4666 
z
" transform="scale(0.015625)"/>
       </defs>
       <use xlink:href="#DejaVuSans-34"/>
      </g>
     </g>
    </g>
    <g id="xtick_4">
     <g id="line2d_7">
      <path d="M 212.342273 303.64 
L 212.342273 25.44 
" clip-path="url(#p7e3a259c00)" style="fill: none; stroke: #b0b0b0; stroke-opacity: 0.3; stroke-width: 0.8; stroke-linecap: square"/>
     </g>
     <g id="line2d_8">
      <g>
       <use xlink:href="#m4b8d97f8c2" x="212.342273" y="303.64" style="stroke: #000000; stroke-width: 0.8"/>
      </g>
     </g>
     <g id="text_4">
      <!-- 6 -->
      <g transform="translate(209.161023 318.238437) scale(0.1 -0.1)">
       <defs>
        <path id="DejaVuSans-36" d="M 2113 2584 
Q 1688 2584 1439 2293 
Q 1191 2003 1191 1497 
Q 1191 994 1439 701 
Q 1688 409 2113 409 
Q 2538 409 2786 701 
Q 3034 994 3034 1497 
Q 3034 2003 2786 2293 
Q 2538 2584 2113 2584 
z
M 3366 4563 
L 3366 3988 
Q 3128 4100 2886 4159 
Q 2644 4219 2406 4219 
Q 1781 4219 1451 3797 
Q 1122 3375 1075 2522 
Q 1259 2794 1537 2939 
Q 1816 3084 2150 3084 
Q 2853 3084 3261 2657 
Q 3669 2231 3669 1497 
Q 3669 778 3244 343 
Q 2819 -91 2113 -91 
Q 1303 -91 875 529 
Q 447 1150 447 2328 
Q 447 3434 972 4092 
Q 1497 4750 2381 4750 
Q 2619 4750 2861 4703 
Q 3103 4656 3366 4563 
z
" transform="scale(0.015625)"/>
       </defs>
       <use xlink:href="#DejaVuSans-36"/>
      </g>
     </g>
    </g>
    <g id="xtick_5">
     <g id="line2d_9">
      <path d="M 261.092576 303.64 
L 261.092576 25.44 
" clip-path="url(#p7e3a259c00)" style="fill: none; stroke: #b0b0b0; stroke-opacity: 0.3; stroke-width: 0.8; stroke-linecap: square"/>
     </g>
     <g id="line2d_10">
      <g>
       <use xlink:href="#m4b8d97f8c2" x="261.092576" y="303.64" style="stroke: #000000; stroke-width: 0.8"/>
      </g>
     </g>
     <g id="text_5">
      <!-- 8 -->
      <g transform="translate(257.911326 318.238437) scale(0.1 -0.1)">
       <defs>
        <path id="DejaVuSans-38" d="M 2034 2216 
Q 1584 2216 1326 1975 
Q 1069 1734 1069 1313 
Q 1069 891 1326 650 
Q 1584 409 2034 409 
Q 2484 409 2743 651 
Q 3003 894 3003 1313 
Q 3003 1734 2745 1975 
Q 2488 2216 2034 2216 
z
M 1403 2484 
Q 997 2584 770 2862 
Q 544 3141 544 3541 
Q 544 4100 942 4425 
Q 1341 4750 2034 4750 
Q 2731 4750 3128 4425 
Q 3525 4100 3525 3541 
Q 3525 3141 3298 2862 
Q 3072 2584 2669 2484 
Q 3125 2378 3379 2068 
Q 3634 1759 3634 1313 
Q 3634 634 3220 271 
Q 2806 -91 2034 -91 
Q 1263 -91 848 271 
Q 434 634 434 1313 
Q 434 1759 690 2068 
Q 947 2378 1403 2484 
z
M 1172 3481 
Q 1172 3119 1398 2916 
Q 1625 2713 2034 2713 
Q 2441 2713 2670 2916 
Q 2900 3119 2900 3481 
Q 2900 3844 2670 4047 
Q 2441 4250 2034 4250 
Q 1625 4250 1398 4047 
Q 1172 3844 1172 3481 
z
" transform="scale(0.015625)"/>
       </defs>
       <use xlink:href="#DejaVuSans-38"/>
      </g>
     </g>
    </g>
    <g id="xtick_6">
     <g id="line2d_11">
      <path d="M 309.842879 303.64 
L 309.842879 25.44 
" clip-path="url(#p7e3a259c00)" style="fill: none; stroke: #b0b0b0; stroke-opacity: 0.3; stroke-width: 0.8; stroke-linecap: square"/>
     </g>
     <g id="line2d_12">
      <g>
       <use xlink:href="#m4b8d97f8c2" x="309.842879" y="303.64" style="stroke: #000000; stroke-width: 0.8"/>
      </g>
     </g>
     <g id="text_6">
      <!-- 10 -->
      <g transform="translate(303.480379 318.238437) scale(0.1 -0.1)">
       <defs>
        <path id="DejaVuSans-31" d="M 794 531 
L 1825 531 
L 1825 4091 
L 703 3866 
L 703 4441 
L 1819 4666 
L 2450 4666 
L 2450 531 
L 3481 531 
L 3481 0 
L 794 0 
L 794 531 
z
" transform="scale(0.015625)"/>
       </defs>
       <use xlink:href="#DejaVuSans-31"/>
       <use xlink:href="#DejaVuSans-30" transform="translate(63.623047 0)"/>
      </g>
     </g>
    </g>
    <g id="xtick_7">
     <g id="line2d_13">
      <path d="M 358.593182 303.64 
L 358.593182 25.44 
" clip-path="url(#p7e3a259c00)" style="fill: none; stroke: #b0b0b0; stroke-opacity: 0.3; stroke-width: 0.8; stroke-linecap: square"/>
     </g>
     <g id="line2d_14">
      <g>
       <use xlink:href="#m4b8d97f8c2" x="358.593182" y="303.64" style="stroke: #000000; stroke-width: 0.8"/>
      </g>
     </g>
     <g id="text_7">
      <!-- 12 -->
      <g transform="translate(352.230682 318.238437) scale(0.1 -0.1)">
       <use xlink:href="#DejaVuSans-31"/>
       <use xlink:href="#DejaVuSans-32" transform="translate(63.623047 0)"/>
      </g>
     </g>
    </g>
    <g id="xtick_8">
     <g id="line2d_15">
      <path d="M 407.343485 303.64 
L 407.343485 25.44 
" clip-path="url(#p7e3a259c00)" style="fill: none; stroke: #b0b0b0; stroke-opacity: 0.3; stroke-width: 0.8; stroke-linecap: square"/>
     </g>
     <g id="line2d_16">
      <g>
       <use xlink:href="#m4b8d97f8c2" x="407.343485" y="303.64" style="stroke: #000000; stroke-width: 0.8"/>
      </g>
     </g>
     <g id="text_8">
      <!-- 14 -->
      <g transform="translate(400.980985 318.238437) scale(0.1 -0.1)">
       <use xlink:href="#DejaVuSans-31"/>
       <use xlink:href="#DejaVuSans-34" transform="translate(63.623047 0)"/>
      </g>
     </g>
    </g>
    <g id="text_9">
     <!-- Time (minutes) -->
     <g transform="translate(210.9425 331.916562) scale(0.1 -0.1)">
      <defs>
       <path id="DejaVuSans-54" d="M -19 4666 
L 3928 4666 
L 3928 4134 
L 2272 4134 
L 2272 0 
L 1638 0 
L 1638 4134 
L -19 4134 
L -19 4666 
z
" transform="scale(0.015625)"/>
       <path id="DejaVuSans-69" d="M 603 3500 
L 1178 3500 
L 1178 0 
L 603 0 
L 603 3500 
z
M 603 4863 
L 1178 4863 
L 1178 4134 
L 603 4134 
L 603 4863 
z
" transform="scale(0.015625)"/>
       <path id="DejaVuSans-6d" d="M 3328 2828 
Q 3544 3216 3844 3400 
Q 4144 3584 4550 3584 
Q 5097 3584 5394 3201 
Q 5691 2819 5691 2113 
L 5691 0 
L 5113 0 
L 5113 2094 
Q 5113 2597 4934 2840 
Q 4756 3084 4391 3084 
Q 3944 3084 3684 2787 
Q 3425 2491 3425 1978 
L 3425 0 
L 2847 0 
L 2847 2094 
Q 2847 2600 2669 2842 
Q 2491 3084 2119 3084 
Q 1678 3084 1418 2786 
Q 1159 2488 1159 1978 
L 1159 0 
L 581 0 
L 581 3500 
L 1159 3500 
L 1159 2956 
Q 1356 3278 1631 3431 
Q 1906 3584 2284 3584 
Q 2666 3584 2933 3390 
Q 3200 3197 3328 2828 
z
" transform="scale(0.015625)"/>
       <path id="DejaVuSans-65" d="M 3597 1894 
L 3597 1613 
L 953 1613 
Q 991 1019 1311 708 
Q 1631 397 2203 397 
Q 2534 397 2845 478 
Q 3156 559 3463 722 
L 3463 178 
Q 3153 47 2828 -22 
Q 2503 -91 2169 -91 
Q 1331 -91 842 396 
Q 353 884 353 1716 
Q 353 2575 817 3079 
Q 1281 3584 2069 3584 
Q 2775 3584 3186 3129 
Q 3597 2675 3597 1894 
z
M 3022 2063 
Q 3016 2534 2758 2815 
Q 2500 3097 2075 3097 
Q 1594 3097 1305 2825 
Q 1016 2553 972 2059 
L 3022 2063 
z
" transform="scale(0.015625)"/>
       <path id="DejaVuSans-20" transform="scale(0.015625)"/>
       <path id="DejaVuSans-28" d="M 1984 4856 
Q 1566 4138 1362 3434 
Q 1159 2731 1159 2009 
Q 1159 1288 1364 580 
Q 1569 -128 1984 -844 
L 1484 -844 
Q 1016 -109 783 600 
Q 550 1309 550 2009 
Q 550 2706 781 3412 
Q 1013 4119 1484 4856 
L 1984 4856 
z
" transform="scale(0.015625)"/>
       <path id="DejaVuSans-6e" d="M 3513 2113 
L 3513 0 
L 2938 0 
L 2938 2094 
Q 2938 2591 2744 2837 
Q 2550 3084 2163 3084 
Q 1697 3084 1428 2787 
Q 1159 2491 1159 1978 
L 1159 0 
L 581 0 
L 581 3500 
L 1159 3500 
L 1159 2956 
Q 1366 3272 1645 3428 
Q 1925 3584 2291 3584 
Q 2894 3584 3203 3211 
Q 3513 2838 3513 2113 
z
" transform="scale(0.015625)"/>
       <path id="DejaVuSans-75" d="M 544 1381 
L 544 3500 
L 1119 3500 
L 1119 1403 
Q 1119 906 1312 657 
Q 1506 409 1894 409 
Q 2359 409 2629 706 
Q 2900 1003 2900 1516 
L 2900 3500 
L 3475 3500 
L 3475 0 
L 2900 0 
L 2900 538 
Q 2691 219 2414 64 
Q 2138 -91 1772 -91 
Q 1169 -91 856 284 
Q 544 659 544 1381 
z
M 1991 3584 
L 1991 3584 
z
" transform="scale(0.015625)"/>
       <path id="DejaVuSans-74" d="M 1172 4494 
L 1172 3500 
L 2356 3500 
L 2356 3053 
L 1172 3053 
L 1172 1153 
Q 1172 725 1289 603 
Q 1406 481 1766 481 
L 2356 481 
L 2356 0 
L 1766 0 
Q 1100 0 847 248 
Q 594 497 594 1153 
L 594 3053 
L 172 3053 
L 172 3500 
L 594 3500 
L 594 4494 
L 1172 4494 
z
" transform="scale(0.015625)"/>
       <path id="DejaVuSans-73" d="M 2834 3397 
L 2834 2853 
Q 2591 2978 2328 3040 
Q 2066 3103 1784 3103 
Q 1356 3103 1142 2972 
Q 928 2841 928 2578 
Q 928 2378 1081 2264 
Q 1234 2150 1697 2047 
L 1894 2003 
Q 2506 1872 2764 1633 
Q 3022 1394 3022 966 
Q 3022 478 2636 193 
Q 2250 -91 1575 -91 
Q 1294 -91 989 -36 
Q 684 19 347 128 
L 347 722 
Q 666 556 975 473 
Q 1284 391 1588 391 
Q 1994 391 2212 530 
Q 2431 669 2431 922 
Q 2431 1156 2273 1281 
Q 2116 1406 1581 1522 
L 1381 1569 
Q 847 1681 609 1914 
Q 372 2147 372 2553 
Q 372 3047 722 3315 
Q 1072 3584 1716 3584 
Q 2034 3584 2315 3537 
Q 2597 3491 2834 3397 
z
" transform="scale(0.015625)"/>
       <path id="DejaVuSans-29" d="M 513 4856 
L 1013 4856 
Q 1481 4119 1714 3412 
Q 1947 2706 1947 2009 
Q 1947 1309 1714 600 
Q 1481 -109 1013 -844 
L 513 -844 
Q 928 -128 1133 580 
Q 1338 1288 1338 2009 
Q 1338 2731 1133 3434 
Q 928 4138 513 4856 
z
" transform="scale(0.015625)"/>
      </defs>
      <use xlink:href="#DejaVuSans-54"/>
      <use xlink:href="#DejaVuSans-69" transform="translate(57.958984 0)"/>
      <use xlink:href="#DejaVuSans-6d" transform="translate(85.742188 0)"/>
      <use xlink:href="#DejaVuSans-65" transform="translate(183.154297 0)"/>
      <use xlink:href="#DejaVuSans-20" transform="translate(244.677734 0)"/>
      <use xlink:href="#DejaVuSans-28" transform="translate(276.464844 0)"/>
      <use xlink:href="#DejaVuSans-6d" transform="translate(315.478516 0)"/>
      <use xlink:href="#DejaVuSans-69" transform="translate(412.890625 0)"/>
      <use xlink:href="#DejaVuSans-6e" transform="translate(440.673828 0)"/>
      <use xlink:href="#DejaVuSans-75" transform="translate(504.052734 0)"/>
      <use xlink:href="#DejaVuSans-74" transform="translate(567.431641 0)"/>
      <use xlink:href="#DejaVuSans-65" transform="translate(606.640625 0)"/>
      <use xlink:href="#DejaVuSans-73" transform="translate(668.164062 0)"/>
      <use xlink:href="#DejaVuSans-29" transform="translate(720.263672 0)"/>
     </g>
    </g>
   </g>
   <g id="matplotlib.axis_2">
    <g id="ytick_1">
     <g id="line2d_17">
      <path d="M 47.81 289.692932 
L 450 289.692932 
" clip-path="url(#p7e3a259c00)" style="fill: none; stroke: #b0b0b0; stroke-opacity: 0.3; stroke-width: 0.8; stroke-linecap: square"/>
     </g>
     <g id="line2d_18">
      <defs>
       <path id="mfc459fe8c7" d="M 0 0 
L -3.5 0 
" style="stroke: #000000; stroke-width: 0.8"/>
      </defs>
      <g>
       <use xlink:href="#mfc459fe8c7" x="47.81" y="289.692932" style="stroke: #000000; stroke-width: 0.8"/>
      </g>
     </g>
     <g id="text_10">
      <!-- 0.0 -->
      <g transform="translate(24.906875 293.492151) scale(0.1 -0.1)">
       <defs>
        <path id="DejaVuSans-2e" d="M 684 794 
L 1344 794 
L 1344 0 
L 684 0 
L 684 794 
z
" transform="scale(0.015625)"/>
       </defs>
       <use xlink:href="#DejaVuSans-30"/>
       <use xlink:href="#DejaVuSans-2e" transform="translate(63.623047 0)"/>
       <use xlink:href="#DejaVuSans-30" transform="translate(95.410156 0)"/>
      </g>
     </g>
    </g>
    <g id="ytick_2">
     <g id="line2d_19">
      <path d="M 47.81 257.705094 
L 450 257.705094 
" clip-path="url(#p7e3a259c00)" style="fill: none; stroke: #b0b0b0; stroke-opacity: 0.3; stroke-width: 0.8; stroke-linecap: square"/>
     </g>
     <g id="line2d_20">
      <g>
       <use xlink:href="#mfc459fe8c7" x="47.81" y="257.705094" style="stroke: #000000; stroke-width: 0.8"/>
      </g>
     </g>
     <g id="text_11">
      <!-- 0.5 -->
      <g transform="translate(24.906875 261.504313) scale(0.1 -0.1)">
       <defs>
        <path id="DejaVuSans-35" d="M 691 4666 
L 3169 4666 
L 3169 4134 
L 1269 4134 
L 1269 2991 
Q 1406 3038 1543 3061 
Q 1681 3084 1819 3084 
Q 2600 3084 3056 2656 
Q 3513 2228 3513 1497 
Q 3513 744 3044 326 
Q 2575 -91 1722 -91 
Q 1428 -91 1123 -41 
Q 819 9 494 109 
L 494 744 
Q 775 591 1075 516 
Q 1375 441 1709 441 
Q 2250 441 2565 725 
Q 2881 1009 2881 1497 
Q 2881 1984 2565 2268 
Q 2250 2553 1709 2553 
Q 1456 2553 1204 2497 
Q 953 2441 691 2322 
L 691 4666 
z
" transform="scale(0.015625)"/>
       </defs>
       <use xlink:href="#DejaVuSans-30"/>
       <use xlink:href="#DejaVuSans-2e" transform="translate(63.623047 0)"/>
       <use xlink:href="#DejaVuSans-35" transform="translate(95.410156 0)"/>
      </g>
     </g>
    </g>
    <g id="ytick_3">
     <g id="line2d_21">
      <path d="M 47.81 225.717256 
L 450 225.717256 
" clip-path="url(#p7e3a259c00)" style="fill: none; stroke: #b0b0b0; stroke-opacity: 0.3; stroke-width: 0.8; stroke-linecap: square"/>
     </g>
     <g id="line2d_22">
      <g>
       <use xlink:href="#mfc459fe8c7" x="47.81" y="225.717256" style="stroke: #000000; stroke-width: 0.8"/>
      </g>
     </g>
     <g id="text_12">
      <!-- 1.0 -->
      <g transform="translate(24.906875 229.516475) scale(0.1 -0.1)">
       <use xlink:href="#DejaVuSans-31"/>
       <use xlink:href="#DejaVuSans-2e" transform="translate(63.623047 0)"/>
       <use xlink:href="#DejaVuSans-30" transform="translate(95.410156 0)"/>
      </g>
     </g>
    </g>
    <g id="ytick_4">
     <g id="line2d_23">
      <path d="M 47.81 193.729418 
L 450 193.729418 
" clip-path="url(#p7e3a259c00)" style="fill: none; stroke: #b0b0b0; stroke-opacity: 0.3; stroke-width: 0.8; stroke-linecap: square"/>
     </g>
     <g id="line2d_24">
      <g>
       <use xlink:href="#mfc459fe8c7" x="47.81" y="193.729418" style="stroke: #000000; stroke-width: 0.8"/>
      </g>
     </g>
     <g id="text_13">
      <!-- 1.5 -->
      <g transform="translate(24.906875 197.528637) scale(0.1 -0.1)">
       <use xlink:href="#DejaVuSans-31"/>
       <use xlink:href="#DejaVuSans-2e" transform="translate(63.623047 0)"/>
       <use xlink:href="#DejaVuSans-35" transform="translate(95.410156 0)"/>
      </g>
     </g>
    </g>
    <g id="ytick_5">
     <g id="line2d_25">
      <path d="M 47.81 161.74158 
L 450 161.74158 
" clip-path="url(#p7e3a259c00)" style="fill: none; stroke: #b0b0b0; stroke-opacity: 0.3; stroke-width: 0.8; stroke-linecap: square"/>
     </g>
     <g id="line2d_26">
      <g>
       <use xlink:href="#mfc459fe8c7" x="47.81" y="161.74158" style="stroke: #000000; stroke-width: 0.8"/>
      </g>
     </g>
     <g id="text_14">
      <!-- 2.0 -->
      <g transform="translate(24.906875 165.540799) scale(0.1 -0.1)">
       <use xlink:href="#DejaVuSans-32"/>
       <use xlink:href="#DejaVuSans-2e" transform="translate(63.623047 0)"/>
       <use xlink:href="#DejaVuSans-30" transform="translate(95.410156 0)"/>
      </g>
     </g>
    </g>
    <g id="ytick_6">
     <g id="line2d_27">
      <path d="M 47.81 129.753742 
L 450 129.753742 
" clip-path="url(#p7e3a259c00)" style="fill: none; stroke: #b0b0b0; stroke-opacity: 0.3; stroke-width: 0.8; stroke-linecap: square"/>
     </g>
     <g id="line2d_28">
      <g>
       <use xlink:href="#mfc459fe8c7" x="47.81" y="129.753742" style="stroke: #000000; stroke-width: 0.8"/>
      </g>
     </g>
     <g id="text_15">
      <!-- 2.5 -->
      <g transform="translate(24.906875 133.552961) scale(0.1 -0.1)">
       <use xlink:href="#DejaVuSans-32"/>
       <use xlink:href="#DejaVuSans-2e" transform="translate(63.623047 0)"/>
       <use xlink:href="#DejaVuSans-35" transform="translate(95.410156 0)"/>
      </g>
     </g>
    </g>
    <g id="ytick_7">
     <g id="line2d_29">
      <path d="M 47.81 97.765904 
L 450 97.765904 
" clip-path="url(#p7e3a259c00)" style="fill: none; stroke: #b0b0b0; stroke-opacity: 0.3; stroke-width: 0.8; stroke-linecap: square"/>
     </g>
     <g id="line2d_30">
      <g>
       <use xlink:href="#mfc459fe8c7" x="47.81" y="97.765904" style="stroke: #000000; stroke-width: 0.8"/>
      </g>
     </g>
     <g id="text_16">
      <!-- 3.0 -->
      <g transform="translate(24.906875 101.565123) scale(0.1 -0.1)">
       <defs>
        <path id="DejaVuSans-33" d="M 2597 2516 
Q 3050 2419 3304 2112 
Q 3559 1806 3559 1356 
Q 3559 666 3084 287 
Q 2609 -91 1734 -91 
Q 1441 -91 1130 -33 
Q 819 25 488 141 
L 488 750 
Q 750 597 1062 519 
Q 1375 441 1716 441 
Q 2309 441 2620 675 
Q 2931 909 2931 1356 
Q 2931 1769 2642 2001 
Q 2353 2234 1838 2234 
L 1294 2234 
L 1294 2753 
L 1863 2753 
Q 2328 2753 2575 2939 
Q 2822 3125 2822 3475 
Q 2822 3834 2567 4026 
Q 2313 4219 1838 4219 
Q 1578 4219 1281 4162 
Q 984 4106 628 3988 
L 628 4550 
Q 988 4650 1302 4700 
Q 1616 4750 1894 4750 
Q 2613 4750 3031 4423 
Q 3450 4097 3450 3541 
Q 3450 3153 3228 2886 
Q 3006 2619 2597 2516 
z
" transform="scale(0.015625)"/>
       </defs>
       <use xlink:href="#DejaVuSans-33"/>
       <use xlink:href="#DejaVuSans-2e" transform="translate(63.623047 0)"/>
       <use xlink:href="#DejaVuSans-30" transform="translate(95.410156 0)"/>
      </g>
     </g>
    </g>
    <g id="ytick_8">
     <g id="line2d_31">
      <path d="M 47.81 65.778066 
L 450 65.778066 
" clip-path="url(#p7e3a259c00)" style="fill: none; stroke: #b0b0b0; stroke-opacity: 0.3; stroke-width: 0.8; stroke-linecap: square"/>
     </g>
     <g id="line2d_32">
      <g>
       <use xlink:href="#mfc459fe8c7" x="47.81" y="65.778066" style="stroke: #000000; stroke-width: 0.8"/>
      </g>
     </g>
     <g id="text_17">
      <!-- 3.5 -->
      <g transform="translate(24.906875 69.577285) scale(0.1 -0.1)">
       <use xlink:href="#DejaVuSans-33"/>
       <use xlink:href="#DejaVuSans-2e" transform="translate(63.623047 0)"/>
       <use xlink:href="#DejaVuSans-35" transform="translate(95.410156 0)"/>
      </g>
     </g>
    </g>
    <g id="ytick_9">
     <g id="line2d_33">
      <path d="M 47.81 33.790228 
L 450 33.790228 
" clip-path="url(#p7e3a259c00)" style="fill: none; stroke: #b0b0b0; stroke-opacity: 0.3; stroke-width: 0.8; stroke-linecap: square"/>
     </g>
     <g id="line2d_34">
      <g>
       <use xlink:href="#mfc459fe8c7" x="47.81" y="33.790228" style="stroke: #000000; stroke-width: 0.8"/>
      </g>
     </g>
     <g id="text_18">
      <!-- 4.0 -->
      <g transform="translate(24.906875 37.589447) scale(0.1 -0.1)">
       <use xlink:href="#DejaVuSans-34"/>
       <use xlink:href="#DejaVuSans-2e" transform="translate(63.623047 0)"/>
       <use xlink:href="#DejaVuSans-30" transform="translate(95.410156 0)"/>
      </g>
     </g>
    </g>
    <g id="text_19">
     <!-- Gaussian filtered EDA (μS) -->
     <g transform="translate(18.827188 230.613437) rotate(-90) scale(0.1 -0.1)">
      <defs>
       <path id="DejaVuSans-47" d="M 3809 666 
L 3809 1919 
L 2778 1919 
L 2778 2438 
L 4434 2438 
L 4434 434 
Q 4069 175 3628 42 
Q 3188 -91 2688 -91 
Q 1594 -91 976 548 
Q 359 1188 359 2328 
Q 359 3472 976 4111 
Q 1594 4750 2688 4750 
Q 3144 4750 3555 4637 
Q 3966 4525 4313 4306 
L 4313 3634 
Q 3963 3931 3569 4081 
Q 3175 4231 2741 4231 
Q 1884 4231 1454 3753 
Q 1025 3275 1025 2328 
Q 1025 1384 1454 906 
Q 1884 428 2741 428 
Q 3075 428 3337 486 
Q 3600 544 3809 666 
z
" transform="scale(0.015625)"/>
       <path id="DejaVuSans-61" d="M 2194 1759 
Q 1497 1759 1228 1600 
Q 959 1441 959 1056 
Q 959 750 1161 570 
Q 1363 391 1709 391 
Q 2188 391 2477 730 
Q 2766 1069 2766 1631 
L 2766 1759 
L 2194 1759 
z
M 3341 1997 
L 3341 0 
L 2766 0 
L 2766 531 
Q 2569 213 2275 61 
Q 1981 -91 1556 -91 
Q 1019 -91 701 211 
Q 384 513 384 1019 
Q 384 1609 779 1909 
Q 1175 2209 1959 2209 
L 2766 2209 
L 2766 2266 
Q 2766 2663 2505 2880 
Q 2244 3097 1772 3097 
Q 1472 3097 1187 3025 
Q 903 2953 641 2809 
L 641 3341 
Q 956 3463 1253 3523 
Q 1550 3584 1831 3584 
Q 2591 3584 2966 3190 
Q 3341 2797 3341 1997 
z
" transform="scale(0.015625)"/>
       <path id="DejaVuSans-66" d="M 2375 4863 
L 2375 4384 
L 1825 4384 
Q 1516 4384 1395 4259 
Q 1275 4134 1275 3809 
L 1275 3500 
L 2222 3500 
L 2222 3053 
L 1275 3053 
L 1275 0 
L 697 0 
L 697 3053 
L 147 3053 
L 147 3500 
L 697 3500 
L 697 3744 
Q 697 4328 969 4595 
Q 1241 4863 1831 4863 
L 2375 4863 
z
" transform="scale(0.015625)"/>
       <path id="DejaVuSans-6c" d="M 603 4863 
L 1178 4863 
L 1178 0 
L 603 0 
L 603 4863 
z
" transform="scale(0.015625)"/>
       <path id="DejaVuSans-72" d="M 2631 2963 
Q 2534 3019 2420 3045 
Q 2306 3072 2169 3072 
Q 1681 3072 1420 2755 
Q 1159 2438 1159 1844 
L 1159 0 
L 581 0 
L 581 3500 
L 1159 3500 
L 1159 2956 
Q 1341 3275 1631 3429 
Q 1922 3584 2338 3584 
Q 2397 3584 2469 3576 
Q 2541 3569 2628 3553 
L 2631 2963 
z
" transform="scale(0.015625)"/>
       <path id="DejaVuSans-64" d="M 2906 2969 
L 2906 4863 
L 3481 4863 
L 3481 0 
L 2906 0 
L 2906 525 
Q 2725 213 2448 61 
Q 2172 -91 1784 -91 
Q 1150 -91 751 415 
Q 353 922 353 1747 
Q 353 2572 751 3078 
Q 1150 3584 1784 3584 
Q 2172 3584 2448 3432 
Q 2725 3281 2906 2969 
z
M 947 1747 
Q 947 1113 1208 752 
Q 1469 391 1925 391 
Q 2381 391 2643 752 
Q 2906 1113 2906 1747 
Q 2906 2381 2643 2742 
Q 2381 3103 1925 3103 
Q 1469 3103 1208 2742 
Q 947 2381 947 1747 
z
" transform="scale(0.015625)"/>
       <path id="DejaVuSans-45" d="M 628 4666 
L 3578 4666 
L 3578 4134 
L 1259 4134 
L 1259 2753 
L 3481 2753 
L 3481 2222 
L 1259 2222 
L 1259 531 
L 3634 531 
L 3634 0 
L 628 0 
L 628 4666 
z
" transform="scale(0.015625)"/>
       <path id="DejaVuSans-44" d="M 1259 4147 
L 1259 519 
L 2022 519 
Q 2988 519 3436 956 
Q 3884 1394 3884 2338 
Q 3884 3275 3436 3711 
Q 2988 4147 2022 4147 
L 1259 4147 
z
M 628 4666 
L 1925 4666 
Q 3281 4666 3915 4102 
Q 4550 3538 4550 2338 
Q 4550 1131 3912 565 
Q 3275 0 1925 0 
L 628 0 
L 628 4666 
z
" transform="scale(0.015625)"/>
       <path id="DejaVuSans-41" d="M 2188 4044 
L 1331 1722 
L 3047 1722 
L 2188 4044 
z
M 1831 4666 
L 2547 4666 
L 4325 0 
L 3669 0 
L 3244 1197 
L 1141 1197 
L 716 0 
L 50 0 
L 1831 4666 
z
" transform="scale(0.015625)"/>
       <path id="DejaVuSans-3bc" d="M 544 -1331 
L 544 3500 
L 1119 3500 
L 1119 1325 
Q 1119 872 1334 640 
Q 1550 409 1972 409 
Q 2434 409 2667 671 
Q 2900 934 2900 1459 
L 2900 3500 
L 3475 3500 
L 3475 806 
Q 3475 619 3529 530 
Q 3584 441 3700 441 
Q 3728 441 3778 458 
Q 3828 475 3916 513 
L 3916 50 
Q 3788 -22 3673 -56 
Q 3559 -91 3450 -91 
Q 3234 -91 3106 31 
Q 2978 153 2931 403 
Q 2775 156 2548 32 
Q 2322 -91 2016 -91 
Q 1697 -91 1473 31 
Q 1250 153 1119 397 
L 1119 -1331 
L 544 -1331 
z
" transform="scale(0.015625)"/>
       <path id="DejaVuSans-53" d="M 3425 4513 
L 3425 3897 
Q 3066 4069 2747 4153 
Q 2428 4238 2131 4238 
Q 1616 4238 1336 4038 
Q 1056 3838 1056 3469 
Q 1056 3159 1242 3001 
Q 1428 2844 1947 2747 
L 2328 2669 
Q 3034 2534 3370 2195 
Q 3706 1856 3706 1288 
Q 3706 609 3251 259 
Q 2797 -91 1919 -91 
Q 1588 -91 1214 -16 
Q 841 59 441 206 
L 441 856 
Q 825 641 1194 531 
Q 1563 422 1919 422 
Q 2459 422 2753 634 
Q 3047 847 3047 1241 
Q 3047 1584 2836 1778 
Q 2625 1972 2144 2069 
L 1759 2144 
Q 1053 2284 737 2584 
Q 422 2884 422 3419 
Q 422 4038 858 4394 
Q 1294 4750 2059 4750 
Q 2388 4750 2728 4690 
Q 3069 4631 3425 4513 
z
" transform="scale(0.015625)"/>
      </defs>
      <use xlink:href="#DejaVuSans-47"/>
      <use xlink:href="#DejaVuSans-61" transform="translate(77.490234 0)"/>
      <use xlink:href="#DejaVuSans-75" transform="translate(138.769531 0)"/>
      <use xlink:href="#DejaVuSans-73" transform="translate(202.148438 0)"/>
      <use xlink:href="#DejaVuSans-73" transform="translate(254.248047 0)"/>
      <use xlink:href="#DejaVuSans-69" transform="translate(306.347656 0)"/>
      <use xlink:href="#DejaVuSans-61" transform="translate(334.130859 0)"/>
      <use xlink:href="#DejaVuSans-6e" transform="translate(395.410156 0)"/>
      <use xlink:href="#DejaVuSans-20" transform="translate(458.789062 0)"/>
      <use xlink:href="#DejaVuSans-66" transform="translate(490.576172 0)"/>
      <use xlink:href="#DejaVuSans-69" transform="translate(525.78125 0)"/>
      <use xlink:href="#DejaVuSans-6c" transform="translate(553.564453 0)"/>
      <use xlink:href="#DejaVuSans-74" transform="translate(581.347656 0)"/>
      <use xlink:href="#DejaVuSans-65" transform="translate(620.556641 0)"/>
      <use xlink:href="#DejaVuSans-72" transform="translate(682.080078 0)"/>
      <use xlink:href="#DejaVuSans-65" transform="translate(720.943359 0)"/>
      <use xlink:href="#DejaVuSans-64" transform="translate(782.466797 0)"/>
      <use xlink:href="#DejaVuSans-20" transform="translate(845.943359 0)"/>
      <use xlink:href="#DejaVuSans-45" transform="translate(877.730469 0)"/>
      <use xlink:href="#DejaVuSans-44" transform="translate(940.914062 0)"/>
      <use xlink:href="#DejaVuSans-41" transform="translate(1016.166016 0)"/>
      <use xlink:href="#DejaVuSans-20" transform="translate(1084.574219 0)"/>
      <use xlink:href="#DejaVuSans-28" transform="translate(1116.361328 0)"/>
      <use xlink:href="#DejaVuSans-3bc" transform="translate(1155.375 0)"/>
      <use xlink:href="#DejaVuSans-53" transform="translate(1218.998047 0)"/>
      <use xlink:href="#DejaVuSans-29" transform="translate(1282.474609 0)"/>
     </g>
    </g>
   </g>
   <g id="line2d_35">
    <path d="M 66.091364 242.60518 
L 68.936712 242.486685 
L 70.969104 242.766011 
L 71.477202 242.533077 
L 71.9853 242.0267 
L 73.001496 240.84839 
L 73.306354 240.783595 
L 73.611213 240.944414 
L 74.017691 241.455329 
L 75.135507 243.076358 
L 75.643605 243.379919 
L 76.558181 243.783283 
L 76.964659 244.343926 
L 77.472757 245.589521 
L 78.285714 247.741758 
L 78.590573 248.029894 
L 78.793812 247.975135 
L 79.098671 247.552321 
L 79.708388 246.021265 
L 80.318106 244.6645 
L 80.724584 244.184723 
L 81.131062 244.01168 
L 81.74078 244.063655 
L 82.350497 244.06492 
L 82.655356 243.829572 
L 82.960215 243.259776 
L 83.265074 242.19707 
L 83.671552 239.812439 
L 84.382889 233.567726 
L 84.890987 229.87825 
L 85.094226 229.24184 
L 85.195846 229.161309 
L 85.297466 229.246564 
L 85.500705 229.907478 
L 85.805563 231.978417 
L 87.431477 245.67957 
L 87.837955 246.829552 
L 88.244434 247.346574 
L 88.752531 247.583104 
L 89.971966 247.995716 
L 91.089782 248.48822 
L 91.59788 248.413036 
L 92.207597 248.040643 
L 93.122174 247.496434 
L 93.731891 247.422224 
L 95.561044 247.434896 
L 96.47562 247.428226 
L 98.406392 247.611204 
L 98.91449 247.346173 
L 99.524208 246.720465 
L 100.438784 245.761145 
L 100.845262 245.674296 
L 101.251741 245.86614 
L 101.861458 246.482726 
L 102.877654 247.485241 
L 103.690611 247.931023 
L 104.605187 248.403928 
L 105.214904 248.989323 
L 106.33272 250.146555 
L 106.840818 250.299699 
L 107.552155 250.207644 
L 109.279688 249.824792 
L 109.889405 249.278632 
L 111.21046 247.967409 
L 111.820178 247.681048 
L 112.633134 247.575695 
L 113.954189 247.680542 
L 118.120592 248.11609 
L 122.083756 248.23282 
L 123.811289 248.08369 
L 124.421006 248.369831 
L 125.335583 248.83892 
L 125.843681 248.867945 
L 127.774453 248.664443 
L 130.518182 249.00708 
L 133.058671 249.121337 
L 136.716976 249.307504 
L 140.78176 249.68229 
L 141.797956 250.04835 
L 143.017391 250.479699 
L 143.627108 250.462088 
L 144.338445 250.208298 
L 145.76112 249.646866 
L 146.777315 249.565437 
L 148.403229 249.70141 
L 151.655056 250.066406 
L 158.05709 250.490059 
L 160.699199 250.68853 
L 178.177768 251.587234 
L 183.157127 251.865823 
L 187.018672 251.922821 
L 194.538521 252.15229 
L 198.806544 251.993513 
L 199.416261 251.657188 
L 201.550273 250.148242 
L 202.464849 250.043866 
L 209.4766 249.861935 
L 210.187937 250.056066 
L 210.797655 250.44525 
L 213.236525 252.347625 
L 214.862438 252.884066 
L 216.285113 253.137893 
L 218.114265 253.23267 
L 218.825602 253.119093 
L 219.3337 252.79492 
L 219.740179 252.250503 
L 220.248277 251.125891 
L 221.467712 248.105563 
L 221.77257 247.883601 
L 222.077429 247.960174 
L 222.483907 248.391165 
L 223.500103 249.625539 
L 224.109821 249.95087 
L 225.227636 250.204288 
L 225.735734 250.122214 
L 226.142213 249.790628 
L 226.548691 249.141817 
L 228.072985 246.177953 
L 228.377843 246.194797 
L 228.682702 246.499704 
L 229.1908 247.455902 
L 230.308616 249.726585 
L 230.816714 250.302251 
L 231.324812 250.589907 
L 232.137768 250.756827 
L 234.576638 250.961007 
L 237.320367 250.828297 
L 238.133324 250.815137 
L 238.641422 251.04272 
L 239.251139 251.611176 
L 240.572194 252.970799 
L 241.080292 253.128132 
L 241.791629 253.065166 
L 243.519162 252.819953 
L 244.535358 252.867403 
L 244.941836 252.62345 
L 246.059652 251.730084 
L 246.669369 251.711074 
L 247.177467 251.631671 
L 247.685565 251.277219 
L 248.295282 250.523246 
L 249.00662 249.228494 
L 250.530913 246.128013 
L 251.039011 245.639584 
L 251.547109 245.438101 
L 252.258446 245.419633 
L 253.681121 245.458245 
L 254.595697 245.207222 
L 255.103795 244.896331 
L 255.510273 244.422844 
L 256.018371 243.410681 
L 257.441045 240.030886 
L 257.847524 239.772426 
L 258.152382 239.82268 
L 258.66048 240.209864 
L 259.371817 241.098751 
L 260.286394 242.666801 
L 261.30259 244.392414 
L 261.912307 245.01813 
L 262.522025 245.33284 
L 263.63984 245.576977 
L 266.993286 246.101039 
L 268.009482 246.096095 
L 269.533776 246.022379 
L 270.854831 246.313105 
L 272.785603 246.774036 
L 274.716375 246.954299 
L 276.240669 247.147423 
L 278.273061 247.200169 
L 280.203833 246.981128 
L 281.016789 247.238061 
L 282.337844 247.702489 
L 283.049181 247.705521 
L 284.065377 247.457467 
L 285.081573 246.984002 
L 286.097769 246.267984 
L 287.012345 245.389908 
L 287.622063 244.532251 
L 288.23178 243.248137 
L 290.467411 237.78389 
L 291.280368 236.776407 
L 292.093324 235.743705 
L 292.804661 234.398091 
L 295.141912 229.433138 
L 295.751629 228.810352 
L 296.259727 228.57705 
L 296.971064 228.506375 
L 297.580782 228.604752 
L 297.98726 228.921306 
L 298.292119 229.489199 
L 298.596978 230.559211 
L 298.901837 232.383187 
L 299.308315 236.418681 
L 299.816413 244.402723 
L 301.035848 266.282568 
L 301.340707 268.221231 
L 301.442326 268.34992 
L 301.543946 268.226083 
L 301.747185 267.283458 
L 302.153663 263.385173 
L 302.763381 257.077154 
L 303.06824 255.874396 
L 303.169859 255.921197 
L 303.373098 256.721295 
L 303.677957 259.563865 
L 304.186055 267.24607 
L 304.999012 279.214473 
L 305.40549 282.042139 
L 305.608729 282.366885 
L 305.710349 282.246567 
L 305.913588 281.44396 
L 306.218447 278.896493 
L 306.624925 273.362024 
L 308.250839 248.210039 
L 308.657317 245.557915 
L 309.063795 244.36419 
L 309.368654 244.091095 
L 309.673513 244.114566 
L 310.28323 244.48541 
L 311.705905 245.313903 
L 313.128579 246.055308 
L 313.535057 246.02454 
L 313.941535 245.796755 
L 314.551253 245.163871 
L 315.465829 244.200803 
L 315.973927 243.968237 
L 316.482025 244.009886 
L 317.091743 244.334017 
L 318.412797 245.115892 
L 320.14033 245.609509 
L 322.884059 246.267638 
L 323.900255 246.22437 
L 327.55856 245.760064 
L 328.574756 245.879141 
L 329.286093 246.190689 
L 330.912006 247.024021 
L 331.724963 247.11335 
L 337.009182 247.063735 
L 337.822138 247.095869 
L 338.533475 247.356886 
L 340.057769 248.036978 
L 342.090161 248.275811 
L 342.699878 248.150189 
L 343.716074 247.581367 
L 344.427411 247.328826 
L 345.748466 247.176122 
L 346.561423 247.264695 
L 348.085717 247.514691 
L 349.81325 247.648447 
L 352.04888 248.032525 
L 354.894229 248.207666 
L 355.808805 247.953875 
L 356.621762 247.432114 
L 357.333099 247.045194 
L 357.942816 247.001622 
L 358.552534 246.926866 
L 358.857393 246.653578 
L 359.162252 246.083226 
L 359.56873 244.729393 
L 360.076828 242.058191 
L 362.10922 229.952884 
L 362.820557 227.633087 
L 363.531894 226.037656 
L 364.34485 224.246398 
L 364.751329 222.728189 
L 365.157807 220.286599 
L 365.564285 216.557599 
L 366.072383 209.821445 
L 366.88534 195.289104 
L 368.612873 163.842863 
L 370.645265 128.898841 
L 371.966319 104.395252 
L 372.271178 102.380966 
L 372.372798 102.342999 
L 372.474417 102.655578 
L 372.677657 104.364366 
L 372.982515 109.506944 
L 374.100331 133.816018 
L 374.20195 134.205542 
L 374.30357 134.018275 
L 374.506809 131.847501 
L 374.811668 124.305631 
L 375.319766 103.883869 
L 376.132722 71.889525 
L 376.539201 62.90098 
L 376.945679 58.630038 
L 377.250538 57.458986 
L 377.555397 57.116945 
L 377.961875 56.867129 
L 378.266734 56.391647 
L 378.673212 55.24055 
L 379.994267 50.773753 
L 380.197506 50.555893 
L 380.400745 50.62499 
L 380.603984 51.044563 
L 380.908843 52.45862 
L 381.213702 54.96398 
L 381.62018 60.222269 
L 382.128278 70.022898 
L 383.652572 103.165527 
L 383.855811 104.197167 
L 383.957431 104.191763 
L 384.16067 103.161355 
L 384.465529 99.357506 
L 385.075246 86.953136 
L 385.888203 71.235939 
L 386.396301 65.231041 
L 386.802779 62.527372 
L 387.107638 61.594309 
L 387.310877 61.480517 
L 387.514116 61.778888 
L 387.818975 63.003456 
L 388.225453 65.969182 
L 389.444888 76.406488 
L 389.648127 76.910312 
L 389.749747 76.945067 
L 389.952986 76.596196 
L 390.257845 75.187788 
L 391.883758 65.462102 
L 392.493476 62.51791 
L 393.001574 58.513841 
L 393.814531 49.384591 
L 394.525868 41.993884 
L 395.033966 38.864799 
L 395.338824 38.128036 
L 395.542064 38.145792 
L 395.745303 38.575484 
L 396.050161 39.977186 
L 396.45664 43.136993 
L 397.167977 51.053196 
L 398.082553 60.820611 
L 398.590651 63.856531 
L 398.89551 64.723303 
L 399.200369 65.074898 
L 399.911706 65.534967 
L 400.216565 66.252253 
L 400.623043 68.012055 
L 401.33438 72.573918 
L 402.350576 78.767326 
L 403.87487 86.245868 
L 404.281348 87.368521 
L 404.484587 87.553459 
L 404.687826 87.436199 
L 404.891065 87.002861 
L 405.195924 85.790541 
L 405.704022 82.677968 
L 406.720218 76.385091 
L 407.228316 74.670232 
L 407.736414 73.791381 
L 408.854229 72.280692 
L 409.768806 70.359706 
L 410.581762 68.798379 
L 411.597958 67.470163 
L 412.919013 65.841316 
L 413.427111 65.62589 
L 414.849785 65.351627 
L 415.053024 65.593993 
L 415.357883 66.424548 
L 415.662742 68.010156 
L 416.06922 71.526101 
L 416.678938 79.536044 
L 417.898373 96.464267 
L 418.304851 99.386565 
L 418.60971 100.2742 
L 418.812949 100.296348 
L 419.016188 99.94924 
L 419.524286 98.233325 
L 419.930764 97.130111 
L 420.134003 97.011716 
L 420.337243 97.28454 
L 420.642101 98.463169 
L 421.04858 101.258357 
L 423.792309 123.474866 
L 424.605265 127.735695 
L 425.723081 132.239556 
L 426.637657 135.136896 
L 428.26357 139.407388 
L 428.974908 140.64869 
L 429.889484 142.097823 
L 430.295962 143.167118 
L 430.70244 144.79431 
L 431.210538 147.756478 
L 431.718636 151.43371 
L 431.718636 151.43371 
" clip-path="url(#p7e3a259c00)" style="fill: none; stroke-dasharray: 1.85,0.8; stroke-dashoffset: 0; stroke: #1f77b4; stroke-width: 0.5"/>
   </g>
   <g id="line2d_36">
    <path d="M 66.091364 243.717253 
L 66.599462 242.002902 
L 67.00594 241.330507 
L 67.310799 241.164092 
L 67.615657 241.23735 
L 68.022136 241.630162 
L 68.631853 242.635402 
L 69.952908 244.949836 
L 70.359386 245.268187 
L 70.765865 245.299312 
L 71.172343 245.10038 
L 71.78206 244.501369 
L 73.611213 242.422618 
L 74.017691 242.286799 
L 74.42417 242.397283 
L 74.830648 242.75667 
L 75.440366 243.64642 
L 76.558181 245.812496 
L 77.574377 247.576561 
L 78.082475 248.108235 
L 78.488953 248.269769 
L 78.895432 248.188056 
L 79.403529 247.811435 
L 80.114867 246.932135 
L 82.045639 244.302121 
L 82.553737 243.993577 
L 83.061835 243.95837 
L 83.569933 244.151692 
L 84.28127 244.712508 
L 85.399085 245.97873 
L 86.821759 247.539698 
L 87.736336 248.200342 
L 88.650912 248.593363 
L 89.565488 248.749927 
L 90.581684 248.684463 
L 91.801119 248.355341 
L 94.646467 247.49358 
L 95.865903 247.456639 
L 98.91449 247.49138 
L 101.759839 247.096579 
L 102.572795 247.310385 
L 103.284132 247.732142 
L 104.401948 248.688174 
L 105.926242 249.971981 
L 106.637579 250.327296 
L 107.247296 250.416642 
L 107.958633 250.291347 
L 108.87321 249.875237 
L 112.125036 248.137462 
L 113.344471 247.878177 
L 114.767146 247.808822 
L 116.697918 247.965285 
L 119.746505 248.219831 
L 123.60805 248.363323 
L 128.689029 249.020586 
L 133.36353 249.142926 
L 136.615357 249.275235 
L 138.749368 249.405522 
L 140.172042 249.713177 
L 142.814152 250.348939 
L 143.830347 250.356133 
L 145.151402 250.124583 
L 147.488653 249.677787 
L 148.708088 249.705611 
L 151.146958 250.055843 
L 152.97611 250.183817 
L 157.244133 250.383729 
L 161.512155 250.748672 
L 171.674114 251.236337 
L 178.482626 251.642279 
L 181.836073 251.821278 
L 192.709369 252.157487 
L 195.859576 252.280241 
L 197.587109 252.101664 
L 199.416261 251.684592 
L 201.753512 250.900455 
L 204.395621 250.060776 
L 205.919915 249.821227 
L 207.240969 249.822696 
L 208.562024 250.048968 
L 209.883079 250.505131 
L 211.610612 251.35326 
L 215.268917 253.26141 
L 216.285113 253.477517 
L 217.199689 253.433 
L 218.215885 253.152275 
L 219.740179 252.469092 
L 222.483907 251.223796 
L 226.548691 249.698856 
L 227.666506 249.500779 
L 228.581083 249.542085 
L 229.495659 249.809312 
L 231.223192 250.620589 
L 232.442627 251.075927 
L 233.357203 251.170813 
L 234.576638 251.028562 
L 236.202552 250.846874 
L 237.015508 250.963019 
L 237.930085 251.33391 
L 239.555998 252.29906 
L 240.877053 252.983797 
L 241.791629 253.225832 
L 242.807825 253.260701 
L 243.92564 253.056167 
L 245.145075 252.5976 
L 246.56775 251.824863 
L 248.396902 250.559859 
L 250.937392 248.510397 
L 253.477881 246.181721 
L 255.510273 244.368268 
L 256.526469 243.754724 
L 257.339426 243.512633 
L 258.152382 243.518106 
L 259.066959 243.751133 
L 260.489633 244.384372 
L 262.725264 245.371045 
L 264.351177 245.832611 
L 265.773851 246.019397 
L 268.111102 246.038903 
L 269.940254 246.159404 
L 272.175885 246.599284 
L 274.614755 247.02188 
L 276.850386 247.163288 
L 281.321648 247.340934 
L 284.268616 247.81665 
L 284.979953 247.593277 
L 285.589671 247.183204 
L 286.301008 246.410043 
L 287.215584 245.034739 
L 288.536639 242.58529 
L 291.686846 236.638468 
L 293.312759 233.363308 
L 295.345151 229.004173 
L 295.751629 228.62199 
L 296.056488 228.565573 
L 296.361347 228.745772 
L 296.666206 229.197943 
L 297.072684 230.28501 
L 297.479162 232.002239 
L 297.98726 235.159221 
L 298.698597 241.365867 
L 299.714793 252.588884 
L 301.848805 276.592893 
L 302.661761 282.914697 
L 303.271479 286.152763 
L 303.779577 287.842463 
L 304.186055 288.521385 
L 304.490914 288.632206 
L 304.795773 288.397364 
L 305.100631 287.813078 
L 305.50711 286.483914 
L 306.015208 283.925741 
L 306.726545 278.820332 
L 307.84436 268.665856 
L 309.368654 254.948857 
L 310.079991 250.308252 
L 310.689709 247.7742 
L 311.197807 246.544007 
L 311.604285 246.024787 
L 312.010763 245.832514 
L 312.417242 245.887503 
L 313.026959 246.259288 
L 314.144775 247.027632 
L 314.652873 247.105662 
L 315.26259 246.967091 
L 316.075547 246.523325 
L 318.006319 245.357398 
L 318.717656 245.259239 
L 319.530613 245.40443 
L 320.851667 245.92554 
L 322.071102 246.330947 
L 322.884059 246.375659 
L 324.001875 246.190785 
L 326.237505 245.765295 
L 327.253701 245.873095 
L 328.676376 246.293684 
L 330.810387 246.934827 
L 332.334681 247.110986 
L 338.533475 247.529826 
L 341.988541 248.226683 
L 343.004737 248.13638 
L 344.427411 247.741398 
L 346.154944 247.293259 
L 347.17114 247.274014 
L 348.390575 247.5026 
L 350.931065 248.049352 
L 352.861837 248.062265 
L 354.081272 248.181465 
L 354.995848 248.48187 
L 356.520142 249.060762 
L 357.12986 249.018026 
L 357.637958 248.743742 
L 358.146056 248.185943 
L 358.654154 247.282249 
L 359.263871 245.67623 
L 360.076828 242.796248 
L 361.397882 237.105114 
L 363.125415 229.838491 
L 364.34485 224.957593 
L 365.056188 220.956045 
L 365.665905 216.209899 
L 366.275623 209.800291 
L 366.98696 199.653179 
L 367.901536 182.470205 
L 369.832308 144.84635 
L 370.442026 136.712059 
L 370.950124 132.642625 
L 371.254982 131.607744 
L 371.458221 131.446947 
L 371.661461 131.6444 
L 371.966319 132.490329 
L 372.474417 134.901567 
L 373.592233 140.727873 
L 373.897092 141.514376 
L 374.100331 141.661787 
L 374.30357 141.442607 
L 374.506809 140.801081 
L 374.811668 138.924923 
L 375.218146 134.440182 
L 375.726244 125.823361 
L 376.539201 107.521258 
L 378.165114 69.915634 
L 378.774832 61.041614 
L 379.18131 58.173308 
L 379.384549 57.792665 
L 379.486169 57.847698 
L 379.689408 58.411396 
L 379.994267 60.279799 
L 380.400745 64.368902 
L 381.010463 72.962668 
L 382.941235 102.628425 
L 383.449333 106.650516 
L 383.754191 107.817708 
L 383.957431 108.137126 
L 384.16067 108.125017 
L 384.363909 107.811758 
L 384.668768 106.843665 
L 385.176866 104.154774 
L 385.989822 98.10959 
L 387.310877 88.202966 
L 387.920595 85.223437 
L 388.631932 82.862523 
L 390.562704 77.436052 
L 391.172421 74.480371 
L 391.782139 70.303493 
L 392.899954 60.698537 
L 394.01777 51.546861 
L 394.627487 47.99933 
L 395.033966 46.569298 
L 395.338824 46.107439 
L 395.542064 46.124953 
L 395.745303 46.392342 
L 396.050161 47.222864 
L 396.45664 49.038062 
L 397.066357 52.987363 
L 397.980934 60.716358 
L 399.911706 77.460541 
L 400.724662 82.540978 
L 401.436 85.850678 
L 402.045717 87.860115 
L 402.553815 88.960982 
L 403.061913 89.548248 
L 403.468391 89.653255 
L 403.77325 89.523558 
L 404.179728 89.094959 
L 404.687826 88.1955 
L 405.399163 86.374778 
L 406.31374 83.33557 
L 409.972045 70.314229 
L 410.785002 68.517717 
L 411.394719 67.688926 
L 411.801197 67.426758 
L 412.207676 67.41781 
L 412.614154 67.67322 
L 413.020632 68.20393 
L 413.52873 69.271127 
L 414.138448 71.172229 
L 414.849785 74.292351 
L 415.561122 78.439891 
L 416.475698 85.264645 
L 418.406471 102.114845 
L 419.625906 111.58658 
L 420.438862 116.295114 
L 421.251819 119.778193 
L 422.166395 122.681874 
L 423.48745 125.988615 
L 424.808504 129.512262 
L 426.332798 134.314821 
L 428.26357 141.239073 
L 430.397582 148.85059 
L 431.413778 151.679343 
L 431.718636 152.355864 
L 431.718636 152.355864 
" clip-path="url(#p7e3a259c00)" style="fill: none; stroke: #ff7f0e; stroke-width: 0.5; stroke-linecap: square"/>
   </g>
   <g id="line2d_37">
    <path d="M 66.091364 289.692932 
L 66.192983 289.692932 
L 66.294603 288.80131 
L 66.599462 290.753392 
L 66.802701 290.994545 
L 67.00594 290.93752 
L 68.530234 289.724653 
L 69.648049 287.838192 
L 70.156147 287.334079 
L 70.562625 287.21403 
L 71.172343 287.33546 
L 71.9853 287.50746 
L 73.001496 287.571143 
L 73.509593 288.280663 
L 74.119311 288.982438 
L 74.729029 289.352588 
L 75.338746 289.485859 
L 75.745224 288.946274 
L 76.659801 287.610025 
L 77.066279 287.468634 
L 77.472757 288.04388 
L 78.082475 288.846204 
L 78.692192 289.285475 
L 78.997051 289.347324 
L 80.318106 287.756022 
L 80.521345 287.73588 
L 80.826204 288.064581 
L 81.63916 289.008631 
L 82.248878 289.364503 
L 82.756976 289.460956 
L 83.061835 288.744147 
L 83.366693 287.390766 
L 83.773172 284.490718 
L 85.094226 273.361893 
L 85.297466 273.120625 
L 85.500705 273.533403 
L 85.805563 275.172666 
L 86.212042 278.964649 
L 86.821759 284.191279 
L 87.329857 286.698348 
L 87.837955 288.082755 
L 88.244434 288.63597 
L 88.955771 288.69645 
L 89.565488 288.781084 
L 90.988162 289.491826 
L 92.004358 289.625722 
L 93.325413 289.413818 
L 94.646467 289.630114 
L 96.983718 289.689302 
L 98.91449 289.58656 
L 99.524208 289.080344 
L 100.337164 288.361897 
L 100.743643 288.24066 
L 100.946882 288.318291 
L 102.369556 289.386934 
L 103.284132 289.592963 
L 103.79223 289.568895 
L 104.706807 289.227678 
L 105.214904 289.3418 
L 106.33272 289.593617 
L 107.653775 289.635285 
L 110.092645 289.671198 
L 111.31208 289.195252 
L 112.023417 289.194827 
L 113.242852 289.467509 
L 114.360667 289.633066 
L 116.799537 289.689907 
L 122.591854 289.625248 
L 123.50643 289.45732 
L 125.437202 289.665469 
L 126.453398 289.594866 
L 127.164735 289.392931 
L 127.977692 289.420727 
L 130.314942 289.672363 
L 135.8024 289.692493 
L 140.070423 289.594702 
L 141.086619 289.566594 
L 143.017391 289.679643 
L 144.440065 289.61907 
L 145.55788 289.399855 
L 146.370837 289.485832 
L 147.691892 289.648168 
L 150.63886 289.691668 
L 194.132043 289.637503 
L 195.656337 289.63351 
L 198.400065 289.69074 
L 199.6195 289.602224 
L 200.940555 288.929162 
L 201.550273 288.90641 
L 202.566468 289.152765 
L 204.395621 289.618499 
L 206.428013 289.686793 
L 208.257165 289.599287 
L 210.391177 289.170218 
L 211.813851 289.579492 
L 213.338145 289.675402 
L 214.354341 289.584699 
L 216.183493 289.37617 
L 219.536939 289.685314 
L 219.740179 289.51409 
L 220.248277 288.640711 
L 221.467712 286.187293 
L 221.77257 286.096884 
L 222.077429 286.301861 
L 222.585527 287.08018 
L 223.601723 288.702709 
L 224.21144 289.215015 
L 224.922778 289.492775 
L 226.040593 289.642302 
L 226.243832 289.60521 
L 226.650311 288.991577 
L 228.072985 286.417667 
L 228.377843 286.411546 
L 228.784322 286.762143 
L 230.105376 288.95354 
L 230.715094 289.341141 
L 231.528051 289.563308 
L 231.934529 289.540575 
L 232.950725 289.420538 
L 236.304171 289.686689 
L 237.117128 289.599572 
L 238.539802 289.01988 
L 240.978672 289.646399 
L 241.690009 289.608091 
L 242.706205 289.32788 
L 243.112684 289.347481 
L 244.636977 289.628209 
L 245.145075 289.556785 
L 245.449934 289.395863 
L 246.059652 289.478096 
L 247.380706 289.646215 
L 248.295282 289.628612 
L 249.00662 288.868445 
L 250.429294 287.059146 
L 250.835772 286.929156 
L 251.24225 287.017094 
L 251.851968 287.432623 
L 252.766544 288.380764 
L 253.376262 289.023252 
L 253.985979 289.371112 
L 254.798936 289.574106 
L 255.713512 289.596468 
L 256.22161 288.71067 
L 257.441045 286.26259 
L 257.847524 286.014658 
L 258.254002 286.073871 
L 258.863719 286.480379 
L 259.778296 287.394596 
L 261.09935 289.111692 
L 261.709068 289.416367 
L 262.623644 289.603047 
L 263.843079 289.632361 
L 265.367373 289.653034 
L 268.6192 289.688548 
L 269.940254 289.678107 
L 273.700179 289.629164 
L 276.342288 289.688431 
L 279.086017 289.606041 
L 279.898974 289.534544 
L 281.931366 289.677271 
L 283.25242 289.611154 
L 284.878334 289.190519 
L 285.589671 289.245737 
L 286.707486 289.562415 
L 288.13016 289.670033 
L 288.536639 289.600294 
L 289.756074 288.668214 
L 290.264172 288.594943 
L 290.569031 288.666214 
L 291.890085 289.437416 
L 292.906281 289.619028 
L 296.361347 289.542197 
L 296.767825 288.825972 
L 297.174304 287.596664 
L 297.682402 285.262584 
L 299.003456 278.421799 
L 299.206695 278.235278 
L 299.409935 278.274042 
L 299.613174 279.200002 
L 300.62937 286.002814 
L 301.035848 287.429577 
L 301.137468 287.531091 
L 301.340707 286.396303 
L 301.645565 282.934718 
L 302.255283 271.898779 
L 302.865001 262.058626 
L 303.169859 259.951022 
L 303.271479 259.781798 
L 303.373098 259.891184 
L 303.576338 260.876397 
L 303.881196 263.970579 
L 304.186055 268.467624 
L 304.897392 279.646008 
L 305.40549 284.213271 
L 305.811969 286.354014 
L 305.913588 286.635199 
L 306.015208 286.589843 
L 306.218447 286.004263 
L 306.523306 284.236727 
L 307.133023 278.838092 
L 307.742741 274.228853 
L 308.047599 273.238789 
L 308.250839 273.170797 
L 308.454078 273.549619 
L 308.758937 274.821941 
L 309.368654 278.872956 
L 310.28323 285.016529 
L 310.791328 287.120133 
L 311.299426 288.305129 
L 311.807524 288.948752 
L 312.417242 289.341429 
L 313.026959 289.503449 
L 313.433438 289.198769 
L 314.144775 288.32001 
L 315.059351 287.266991 
L 315.567449 287.037676 
L 315.973927 287.111229 
L 316.482025 287.469893 
L 316.888503 288.025134 
L 317.599841 288.929709 
L 318.209558 289.326918 
L 319.022515 289.55786 
L 320.343569 289.666083 
L 321.156526 289.565617 
L 322.172722 289.563649 
L 324.001875 289.677654 
L 327.152082 289.645836 
L 328.777995 289.353207 
L 330.708767 289.652122 
L 333.858974 289.692032 
L 336.602703 289.594717 
L 337.720519 289.463981 
L 339.549671 289.663429 
L 342.801498 289.668181 
L 344.122553 289.303224 
L 344.935509 289.417627 
L 346.154944 289.624798 
L 348.390575 289.688467 
L 349.101912 289.582659 
L 350.118108 289.510088 
L 352.760218 289.683592 
L 354.69099 289.611509 
L 355.605566 289.007726 
L 357.231479 287.783043 
L 357.434719 287.840992 
L 358.959012 289.319627 
L 359.670349 289.536536 
L 359.873589 289.411538 
L 360.483306 287.969991 
L 361.194643 286.291333 
L 361.601122 285.799012 
L 361.90598 285.698761 
L 362.312459 285.8599 
L 362.922176 286.464543 
L 363.125415 286.728122 
L 364.243231 288.767013 
L 364.852948 289.250855 
L 365.361046 289.455826 
L 365.462666 289.398584 
L 365.767525 288.605186 
L 366.275623 286.457491 
L 366.98696 283.394112 
L 367.291818 282.79226 
L 367.495058 282.714787 
L 367.698297 282.88471 
L 368.104775 283.827689 
L 369.120971 287.648023 
L 369.629069 288.585035 
L 369.832308 288.758994 
L 370.035547 288.292661 
L 370.340406 286.702864 
L 370.746884 282.649485 
L 371.254982 274.476675 
L 372.169559 259.149568 
L 372.474417 257.473695 
L 372.576037 257.605722 
L 372.779276 258.575463 
L 372.982515 261.476851 
L 373.897092 278.656948 
L 374.30357 282.372409 
L 374.506809 280.769641 
L 374.811668 275.119836 
L 376.031103 245.274135 
L 376.234342 244.043084 
L 376.335962 244.028226 
L 376.539201 245.114063 
L 376.84406 249.105197 
L 377.453777 261.785662 
L 378.165114 276.459691 
L 378.673212 282.473609 
L 378.978071 284.587797 
L 379.18131 284.877302 
L 379.384549 284.479019 
L 379.689408 282.824533 
L 380.197506 278.166725 
L 381.213702 268.451255 
L 381.518561 267.061906 
L 381.7218 266.814987 
L 381.925039 267.184501 
L 382.229898 268.836622 
L 382.433137 270.829319 
L 383.347713 282.334277 
L 383.855811 285.694662 
L 383.957431 285.831897 
L 384.16067 284.760425 
L 384.465529 281.543218 
L 385.989822 261.405241 
L 386.294681 260.293428 
L 386.49792 260.140921 
L 386.701159 260.385392 
L 387.006018 261.379688 
L 387.412497 263.682832 
L 387.920595 268.128912 
L 388.530312 275.764785 
L 389.14003 282.630273 
L 389.648127 285.857421 
L 389.952986 286.875462 
L 390.156225 286.592836 
L 390.461084 285.75171 
L 390.969182 284.295973 
L 391.172421 284.10416 
L 391.37566 284.148118 
L 391.5789 284.672512 
L 392.493476 287.732273 
L 392.899954 288.461677 
L 393.001574 288.463922 
L 393.306433 287.936192 
L 393.712911 286.524181 
L 394.729107 282.645384 
L 395.135585 281.89806 
L 395.440444 281.734864 
L 395.643683 281.814483 
L 395.948542 282.266281 
L 396.253401 283.002791 
L 397.371216 287.575724 
L 397.879314 288.547766 
L 398.082553 288.799618 
L 398.184173 288.761594 
L 398.489032 287.728806 
L 398.89551 285.292436 
L 400.114945 276.827061 
L 400.419804 275.952745 
L 400.623043 275.762262 
L 400.826282 275.845746 
L 401.131141 276.358089 
L 401.740858 278.039486 
L 402.858674 281.69539 
L 403.163533 283.125105 
L 403.87487 286.606792 
L 404.382968 288.011482 
L 404.891065 288.788535 
L 404.992685 288.86636 
L 405.094305 288.794098 
L 405.500783 287.695896 
L 406.516979 284.528184 
L 406.821838 284.250688 
L 407.025077 284.307962 
L 407.329936 284.707476 
L 407.838034 285.900034 
L 408.75261 288.105275 
L 409.260708 288.823067 
L 409.870425 289.279122 
L 410.581762 289.520252 
L 411.597958 289.64315 
L 411.801197 289.498492 
L 412.309295 288.749541 
L 413.223872 286.84357 
L 413.833589 285.11843 
L 414.443307 282.644786 
L 415.256263 279.273543 
L 415.561122 278.678967 
L 415.764361 278.64527 
L 415.9676 278.952704 
L 416.272459 279.868792 
L 417.491894 286.902516 
L 417.999992 288.186532 
L 418.101612 288.344289 
L 418.203231 288.265032 
L 418.50809 286.856333 
L 418.914568 283.563041 
L 420.134003 272.051205 
L 420.438862 271.013869 
L 420.642101 270.929088 
L 420.845341 271.280684 
L 421.150199 272.445533 
L 421.861536 276.508817 
L 423.182591 283.730062 
L 423.893928 286.894449 
L 424.402026 288.168461 
L 424.910124 288.873031 
L 425.519842 289.305282 
L 426.332798 289.550385 
L 426.637657 289.519498 
L 427.653853 288.694305 
L 428.26357 287.900631 
L 428.974908 286.480935 
L 429.889484 284.651451 
L 430.194343 284.385313 
L 430.499201 284.367147 
L 430.70244 284.750468 
L 431.718636 287.937081 
L 431.718636 287.937081 
" clip-path="url(#p7e3a259c00)" style="fill: none; stroke: #2ca02c; stroke-width: 0.5; stroke-linecap: square"/>
   </g>
   <g id="patch_3">
    <path d="M 47.81 303.64 
L 47.81 25.44 
" style="fill: none; stroke: #000000; stroke-width: 0.8; stroke-linejoin: miter; stroke-linecap: square"/>
   </g>
   <g id="patch_4">
    <path d="M 450 303.64 
L 450 25.44 
" style="fill: none; stroke: #000000; stroke-width: 0.8; stroke-linejoin: miter; stroke-linecap: square"/>
   </g>
   <g id="patch_5">
    <path d="M 47.81 303.64 
L 450 303.64 
" style="fill: none; stroke: #000000; stroke-width: 0.8; stroke-linejoin: miter; stroke-linecap: square"/>
   </g>
   <g id="patch_6">
    <path d="M 47.81 25.44 
L 450 25.44 
" style="fill: none; stroke: #000000; stroke-width: 0.8; stroke-linejoin: miter; stroke-linecap: square"/>
   </g>
   <g id="text_20">
    <!-- data_4_E4 Separated EDA plot -->
    <g transform="translate(157.349688 19.44) scale(0.12 -0.12)">
     <defs>
      <path id="DejaVuSans-5f" d="M 3263 -1063 
L 3263 -1509 
L -63 -1509 
L -63 -1063 
L 3263 -1063 
z
" transform="scale(0.015625)"/>
      <path id="DejaVuSans-70" d="M 1159 525 
L 1159 -1331 
L 581 -1331 
L 581 3500 
L 1159 3500 
L 1159 2969 
Q 1341 3281 1617 3432 
Q 1894 3584 2278 3584 
Q 2916 3584 3314 3078 
Q 3713 2572 3713 1747 
Q 3713 922 3314 415 
Q 2916 -91 2278 -91 
Q 1894 -91 1617 61 
Q 1341 213 1159 525 
z
M 3116 1747 
Q 3116 2381 2855 2742 
Q 2594 3103 2138 3103 
Q 1681 3103 1420 2742 
Q 1159 2381 1159 1747 
Q 1159 1113 1420 752 
Q 1681 391 2138 391 
Q 2594 391 2855 752 
Q 3116 1113 3116 1747 
z
" transform="scale(0.015625)"/>
      <path id="DejaVuSans-6f" d="M 1959 3097 
Q 1497 3097 1228 2736 
Q 959 2375 959 1747 
Q 959 1119 1226 758 
Q 1494 397 1959 397 
Q 2419 397 2687 759 
Q 2956 1122 2956 1747 
Q 2956 2369 2687 2733 
Q 2419 3097 1959 3097 
z
M 1959 3584 
Q 2709 3584 3137 3096 
Q 3566 2609 3566 1747 
Q 3566 888 3137 398 
Q 2709 -91 1959 -91 
Q 1206 -91 779 398 
Q 353 888 353 1747 
Q 353 2609 779 3096 
Q 1206 3584 1959 3584 
z
" transform="scale(0.015625)"/>
     </defs>
     <use xlink:href="#DejaVuSans-64"/>
     <use xlink:href="#DejaVuSans-61" transform="translate(63.476562 0)"/>
     <use xlink:href="#DejaVuSans-74" transform="translate(124.755859 0)"/>
     <use xlink:href="#DejaVuSans-61" transform="translate(163.964844 0)"/>
     <use xlink:href="#DejaVuSans-5f" transform="translate(225.244141 0)"/>
     <use xlink:href="#DejaVuSans-34" transform="translate(275.244141 0)"/>
     <use xlink:href="#DejaVuSans-5f" transform="translate(338.867188 0)"/>
     <use xlink:href="#DejaVuSans-45" transform="translate(388.867188 0)"/>
     <use xlink:href="#DejaVuSans-34" transform="translate(452.050781 0)"/>
     <use xlink:href="#DejaVuSans-20" transform="translate(515.673828 0)"/>
     <use xlink:href="#DejaVuSans-53" transform="translate(547.460938 0)"/>
     <use xlink:href="#DejaVuSans-65" transform="translate(610.9375 0)"/>
     <use xlink:href="#DejaVuSans-70" transform="translate(672.460938 0)"/>
     <use xlink:href="#DejaVuSans-61" transform="translate(735.9375 0)"/>
     <use xlink:href="#DejaVuSans-72" transform="translate(797.216797 0)"/>
     <use xlink:href="#DejaVuSans-61" transform="translate(838.330078 0)"/>
     <use xlink:href="#DejaVuSans-74" transform="translate(899.609375 0)"/>
     <use xlink:href="#DejaVuSans-65" transform="translate(938.818359 0)"/>
     <use xlink:href="#DejaVuSans-64" transform="translate(1000.341797 0)"/>
     <use xlink:href="#DejaVuSans-20" transform="translate(1063.818359 0)"/>
     <use xlink:href="#DejaVuSans-45" transform="translate(1095.605469 0)"/>
     <use xlink:href="#DejaVuSans-44" transform="translate(1158.789062 0)"/>
     <use xlink:href="#DejaVuSans-41" transform="translate(1234.041016 0)"/>
     <use xlink:href="#DejaVuSans-20" transform="translate(1302.449219 0)"/>
     <use xlink:href="#DejaVuSans-70" transform="translate(1334.236328 0)"/>
     <use xlink:href="#DejaVuSans-6c" transform="translate(1397.712891 0)"/>
     <use xlink:href="#DejaVuSans-6f" transform="translate(1425.496094 0)"/>
     <use xlink:href="#DejaVuSans-74" transform="translate(1486.677734 0)"/>
    </g>
   </g>
   <g id="legend_1">
    <g id="patch_7">
     <path d="M 54.81 77.474375 
L 147.71625 77.474375 
Q 149.71625 77.474375 149.71625 75.474375 
L 149.71625 32.44 
Q 149.71625 30.44 147.71625 30.44 
L 54.81 30.44 
Q 52.81 30.44 52.81 32.44 
L 52.81 75.474375 
Q 52.81 77.474375 54.81 77.474375 
z
" style="fill: #ffffff; opacity: 0.8; stroke: #cccccc; stroke-linejoin: miter"/>
    </g>
    <g id="line2d_38">
     <path d="M 56.81 38.538437 
L 66.81 38.538437 
L 76.81 38.538437 
" style="fill: none; stroke-dasharray: 1.85,0.8; stroke-dashoffset: 0; stroke: #1f77b4; stroke-width: 0.5"/>
    </g>
    <g id="text_21">
     <!-- Filtered EDA -->
     <g transform="translate(84.81 42.038437) scale(0.1 -0.1)">
      <defs>
       <path id="DejaVuSans-46" d="M 628 4666 
L 3309 4666 
L 3309 4134 
L 1259 4134 
L 1259 2759 
L 3109 2759 
L 3109 2228 
L 1259 2228 
L 1259 0 
L 628 0 
L 628 4666 
z
" transform="scale(0.015625)"/>
      </defs>
      <use xlink:href="#DejaVuSans-46"/>
      <use xlink:href="#DejaVuSans-69" transform="translate(50.269531 0)"/>
      <use xlink:href="#DejaVuSans-6c" transform="translate(78.052734 0)"/>
      <use xlink:href="#DejaVuSans-74" transform="translate(105.835938 0)"/>
      <use xlink:href="#DejaVuSans-65" transform="translate(145.044922 0)"/>
      <use xlink:href="#DejaVuSans-72" transform="translate(206.568359 0)"/>
      <use xlink:href="#DejaVuSans-65" transform="translate(245.431641 0)"/>
      <use xlink:href="#DejaVuSans-64" transform="translate(306.955078 0)"/>
      <use xlink:href="#DejaVuSans-20" transform="translate(370.431641 0)"/>
      <use xlink:href="#DejaVuSans-45" transform="translate(402.21875 0)"/>
      <use xlink:href="#DejaVuSans-44" transform="translate(465.402344 0)"/>
      <use xlink:href="#DejaVuSans-41" transform="translate(540.654297 0)"/>
     </g>
    </g>
    <g id="line2d_39">
     <path d="M 56.81 53.216562 
L 66.81 53.216562 
L 76.81 53.216562 
" style="fill: none; stroke: #ff7f0e; stroke-width: 0.5; stroke-linecap: square"/>
    </g>
    <g id="text_22">
     <!-- Tonic -->
     <g transform="translate(84.81 56.716562) scale(0.1 -0.1)">
      <defs>
       <path id="DejaVuSans-63" d="M 3122 3366 
L 3122 2828 
Q 2878 2963 2633 3030 
Q 2388 3097 2138 3097 
Q 1578 3097 1268 2742 
Q 959 2388 959 1747 
Q 959 1106 1268 751 
Q 1578 397 2138 397 
Q 2388 397 2633 464 
Q 2878 531 3122 666 
L 3122 134 
Q 2881 22 2623 -34 
Q 2366 -91 2075 -91 
Q 1284 -91 818 406 
Q 353 903 353 1747 
Q 353 2603 823 3093 
Q 1294 3584 2113 3584 
Q 2378 3584 2631 3529 
Q 2884 3475 3122 3366 
z
" transform="scale(0.015625)"/>
      </defs>
      <use xlink:href="#DejaVuSans-54"/>
      <use xlink:href="#DejaVuSans-6f" transform="translate(44.083984 0)"/>
      <use xlink:href="#DejaVuSans-6e" transform="translate(105.265625 0)"/>
      <use xlink:href="#DejaVuSans-69" transform="translate(168.644531 0)"/>
      <use xlink:href="#DejaVuSans-63" transform="translate(196.427734 0)"/>
     </g>
    </g>
    <g id="line2d_40">
     <path d="M 56.81 67.894687 
L 66.81 67.894687 
L 76.81 67.894687 
" style="fill: none; stroke: #2ca02c; stroke-width: 0.5; stroke-linecap: square"/>
    </g>
    <g id="text_23">
     <!-- Phasic -->
     <g transform="translate(84.81 71.394687) scale(0.1 -0.1)">
      <defs>
       <path id="DejaVuSans-50" d="M 1259 4147 
L 1259 2394 
L 2053 2394 
Q 2494 2394 2734 2622 
Q 2975 2850 2975 3272 
Q 2975 3691 2734 3919 
Q 2494 4147 2053 4147 
L 1259 4147 
z
M 628 4666 
L 2053 4666 
Q 2838 4666 3239 4311 
Q 3641 3956 3641 3272 
Q 3641 2581 3239 2228 
Q 2838 1875 2053 1875 
L 1259 1875 
L 1259 0 
L 628 0 
L 628 4666 
z
" transform="scale(0.015625)"/>
       <path id="DejaVuSans-68" d="M 3513 2113 
L 3513 0 
L 2938 0 
L 2938 2094 
Q 2938 2591 2744 2837 
Q 2550 3084 2163 3084 
Q 1697 3084 1428 2787 
Q 1159 2491 1159 1978 
L 1159 0 
L 581 0 
L 581 4863 
L 1159 4863 
L 1159 2956 
Q 1366 3272 1645 3428 
Q 1925 3584 2291 3584 
Q 2894 3584 3203 3211 
Q 3513 2838 3513 2113 
z
" transform="scale(0.015625)"/>
      </defs>
      <use xlink:href="#DejaVuSans-50"/>
      <use xlink:href="#DejaVuSans-68" transform="translate(60.302734 0)"/>
      <use xlink:href="#DejaVuSans-61" transform="translate(123.681641 0)"/>
      <use xlink:href="#DejaVuSans-73" transform="translate(184.960938 0)"/>
      <use xlink:href="#DejaVuSans-69" transform="translate(237.060547 0)"/>
      <use xlink:href="#DejaVuSans-63" transform="translate(264.84375 0)"/>
     </g>
    </g>
   </g>
  </g>
 </g>
 <defs>
  <clipPath id="p7e3a259c00">
   <rect x="47.81" y="25.44" width="402.19" height="278.2"/>
  </clipPath>
 </defs>
</svg>
