<?xml version="1.0" encoding="utf-8" standalone="no"?>
<!DOCTYPE svg PUBLIC "-//W3C//DTD SVG 1.1//EN"
  "http://www.w3.org/Graphics/SVG/1.1/DTD/svg11.dtd">
<svg xmlns:xlink="http://www.w3.org/1999/xlink" width="460.8pt" height="345.6pt" viewBox="0 0 460.8 345.6" xmlns="http://www.w3.org/2000/svg" version="1.1">
 <metadata>
  <rdf:RDF xmlns:dc="http://purl.org/dc/elements/1.1/" xmlns:cc="http://creativecommons.org/ns#" xmlns:rdf="http://www.w3.org/1999/02/22-rdf-syntax-ns#">
   <cc:Work>
    <dc:type rdf:resource="http://purl.org/dc/dcmitype/StillImage"/>
    <dc:date>2025-09-22T14:18:48.545605</dc:date>
    <dc:format>image/svg+xml</dc:format>
    <dc:creator>
     <cc:Agent>
      <dc:title>Matplotlib v3.10.0, https://matplotlib.org/</dc:title>
     </cc:Agent>
    </dc:creator>
   </cc:Work>
  </rdf:RDF>
 </metadata>
 <defs>
  <style type="text/css">*{stroke-linejoin: round; stroke-linecap: butt}</style>
 </defs>
 <g id="figure_1">
  <g id="patch_1">
   <path d="M 0 345.6 
L 460.8 345.6 
L 460.8 0 
L 0 0 
z
" style="fill: #ffffff"/>
  </g>
  <g id="axes_1">
   <g id="patch_2">
    <path d="M 47.81 303.64 
L 450 303.64 
L 450 25.44 
L 47.81 25.44 
z
" style="fill: #ffffff"/>
   </g>
   <g id="matplotlib.axis_1">
    <g id="xtick_1">
     <g id="line2d_1">
      <path d="M 66.091364 303.64 
L 66.091364 25.44 
" clip-path="url(#pf2cfd1a2e5)" style="fill: none; stroke: #b0b0b0; stroke-opacity: 0.3; stroke-width: 0.8; stroke-linecap: square"/>
     </g>
     <g id="line2d_2">
      <defs>
       <path id="m20ff6d83c5" d="M 0 0 
L 0 3.5 
" style="stroke: #000000; stroke-width: 0.8"/>
      </defs>
      <g>
       <use xlink:href="#m20ff6d83c5" x="66.091364" y="303.64" style="stroke: #000000; stroke-width: 0.8"/>
      </g>
     </g>
     <g id="text_1">
      <!-- 0 -->
      <g transform="translate(62.910114 318.238437) scale(0.1 -0.1)">
       <defs>
        <path id="DejaVuSans-30" d="M 2034 4250 
Q 1547 4250 1301 3770 
Q 1056 3291 1056 2328 
Q 1056 1369 1301 889 
Q 1547 409 2034 409 
Q 2525 409 2770 889 
Q 3016 1369 3016 2328 
Q 3016 3291 2770 3770 
Q 2525 4250 2034 4250 
z
M 2034 4750 
Q 2819 4750 3233 4129 
Q 3647 3509 3647 2328 
Q 3647 1150 3233 529 
Q 2819 -91 2034 -91 
Q 1250 -91 836 529 
Q 422 1150 422 2328 
Q 422 3509 836 4129 
Q 1250 4750 2034 4750 
z
" transform="scale(0.015625)"/>
       </defs>
       <use xlink:href="#DejaVuSans-30"/>
      </g>
     </g>
    </g>
    <g id="xtick_2">
     <g id="line2d_3">
      <path d="M 114.841667 303.64 
L 114.841667 25.44 
" clip-path="url(#pf2cfd1a2e5)" style="fill: none; stroke: #b0b0b0; stroke-opacity: 0.3; stroke-width: 0.8; stroke-linecap: square"/>
     </g>
     <g id="line2d_4">
      <g>
       <use xlink:href="#m20ff6d83c5" x="114.841667" y="303.64" style="stroke: #000000; stroke-width: 0.8"/>
      </g>
     </g>
     <g id="text_2">
      <!-- 2 -->
      <g transform="translate(111.660417 318.238437) scale(0.1 -0.1)">
       <defs>
        <path id="DejaVuSans-32" d="M 1228 531 
L 3431 531 
L 3431 0 
L 469 0 
L 469 531 
Q 828 903 1448 1529 
Q 2069 2156 2228 2338 
Q 2531 2678 2651 2914 
Q 2772 3150 2772 3378 
Q 2772 3750 2511 3984 
Q 2250 4219 1831 4219 
Q 1534 4219 1204 4116 
Q 875 4013 500 3803 
L 500 4441 
Q 881 4594 1212 4672 
Q 1544 4750 1819 4750 
Q 2544 4750 2975 4387 
Q 3406 4025 3406 3419 
Q 3406 3131 3298 2873 
Q 3191 2616 2906 2266 
Q 2828 2175 2409 1742 
Q 1991 1309 1228 531 
z
" transform="scale(0.015625)"/>
       </defs>
       <use xlink:href="#DejaVuSans-32"/>
      </g>
     </g>
    </g>
    <g id="xtick_3">
     <g id="line2d_5">
      <path d="M 163.59197 303.64 
L 163.59197 25.44 
" clip-path="url(#pf2cfd1a2e5)" style="fill: none; stroke: #b0b0b0; stroke-opacity: 0.3; stroke-width: 0.8; stroke-linecap: square"/>
     </g>
     <g id="line2d_6">
      <g>
       <use xlink:href="#m20ff6d83c5" x="163.59197" y="303.64" style="stroke: #000000; stroke-width: 0.8"/>
      </g>
     </g>
     <g id="text_3">
      <!-- 4 -->
      <g transform="translate(160.41072 318.238437) scale(0.1 -0.1)">
       <defs>
        <path id="DejaVuSans-34" d="M 2419 4116 
L 825 1625 
L 2419 1625 
L 2419 4116 
z
M 2253 4666 
L 3047 4666 
L 3047 1625 
L 3713 1625 
L 3713 1100 
L 3047 1100 
L 3047 0 
L 2419 0 
L 2419 1100 
L 313 1100 
L 313 1709 
L 2253 4666 
z
" transform="scale(0.015625)"/>
       </defs>
       <use xlink:href="#DejaVuSans-34"/>
      </g>
     </g>
    </g>
    <g id="xtick_4">
     <g id="line2d_7">
      <path d="M 212.342273 303.64 
L 212.342273 25.44 
" clip-path="url(#pf2cfd1a2e5)" style="fill: none; stroke: #b0b0b0; stroke-opacity: 0.3; stroke-width: 0.8; stroke-linecap: square"/>
     </g>
     <g id="line2d_8">
      <g>
       <use xlink:href="#m20ff6d83c5" x="212.342273" y="303.64" style="stroke: #000000; stroke-width: 0.8"/>
      </g>
     </g>
     <g id="text_4">
      <!-- 6 -->
      <g transform="translate(209.161023 318.238437) scale(0.1 -0.1)">
       <defs>
        <path id="DejaVuSans-36" d="M 2113 2584 
Q 1688 2584 1439 2293 
Q 1191 2003 1191 1497 
Q 1191 994 1439 701 
Q 1688 409 2113 409 
Q 2538 409 2786 701 
Q 3034 994 3034 1497 
Q 3034 2003 2786 2293 
Q 2538 2584 2113 2584 
z
M 3366 4563 
L 3366 3988 
Q 3128 4100 2886 4159 
Q 2644 4219 2406 4219 
Q 1781 4219 1451 3797 
Q 1122 3375 1075 2522 
Q 1259 2794 1537 2939 
Q 1816 3084 2150 3084 
Q 2853 3084 3261 2657 
Q 3669 2231 3669 1497 
Q 3669 778 3244 343 
Q 2819 -91 2113 -91 
Q 1303 -91 875 529 
Q 447 1150 447 2328 
Q 447 3434 972 4092 
Q 1497 4750 2381 4750 
Q 2619 4750 2861 4703 
Q 3103 4656 3366 4563 
z
" transform="scale(0.015625)"/>
       </defs>
       <use xlink:href="#DejaVuSans-36"/>
      </g>
     </g>
    </g>
    <g id="xtick_5">
     <g id="line2d_9">
      <path d="M 261.092576 303.64 
L 261.092576 25.44 
" clip-path="url(#pf2cfd1a2e5)" style="fill: none; stroke: #b0b0b0; stroke-opacity: 0.3; stroke-width: 0.8; stroke-linecap: square"/>
     </g>
     <g id="line2d_10">
      <g>
       <use xlink:href="#m20ff6d83c5" x="261.092576" y="303.64" style="stroke: #000000; stroke-width: 0.8"/>
      </g>
     </g>
     <g id="text_5">
      <!-- 8 -->
      <g transform="translate(257.911326 318.238437) scale(0.1 -0.1)">
       <defs>
        <path id="DejaVuSans-38" d="M 2034 2216 
Q 1584 2216 1326 1975 
Q 1069 1734 1069 1313 
Q 1069 891 1326 650 
Q 1584 409 2034 409 
Q 2484 409 2743 651 
Q 3003 894 3003 1313 
Q 3003 1734 2745 1975 
Q 2488 2216 2034 2216 
z
M 1403 2484 
Q 997 2584 770 2862 
Q 544 3141 544 3541 
Q 544 4100 942 4425 
Q 1341 4750 2034 4750 
Q 2731 4750 3128 4425 
Q 3525 4100 3525 3541 
Q 3525 3141 3298 2862 
Q 3072 2584 2669 2484 
Q 3125 2378 3379 2068 
Q 3634 1759 3634 1313 
Q 3634 634 3220 271 
Q 2806 -91 2034 -91 
Q 1263 -91 848 271 
Q 434 634 434 1313 
Q 434 1759 690 2068 
Q 947 2378 1403 2484 
z
M 1172 3481 
Q 1172 3119 1398 2916 
Q 1625 2713 2034 2713 
Q 2441 2713 2670 2916 
Q 2900 3119 2900 3481 
Q 2900 3844 2670 4047 
Q 2441 4250 2034 4250 
Q 1625 4250 1398 4047 
Q 1172 3844 1172 3481 
z
" transform="scale(0.015625)"/>
       </defs>
       <use xlink:href="#DejaVuSans-38"/>
      </g>
     </g>
    </g>
    <g id="xtick_6">
     <g id="line2d_11">
      <path d="M 309.842879 303.64 
L 309.842879 25.44 
" clip-path="url(#pf2cfd1a2e5)" style="fill: none; stroke: #b0b0b0; stroke-opacity: 0.3; stroke-width: 0.8; stroke-linecap: square"/>
     </g>
     <g id="line2d_12">
      <g>
       <use xlink:href="#m20ff6d83c5" x="309.842879" y="303.64" style="stroke: #000000; stroke-width: 0.8"/>
      </g>
     </g>
     <g id="text_6">
      <!-- 10 -->
      <g transform="translate(303.480379 318.238437) scale(0.1 -0.1)">
       <defs>
        <path id="DejaVuSans-31" d="M 794 531 
L 1825 531 
L 1825 4091 
L 703 3866 
L 703 4441 
L 1819 4666 
L 2450 4666 
L 2450 531 
L 3481 531 
L 3481 0 
L 794 0 
L 794 531 
z
" transform="scale(0.015625)"/>
       </defs>
       <use xlink:href="#DejaVuSans-31"/>
       <use xlink:href="#DejaVuSans-30" transform="translate(63.623047 0)"/>
      </g>
     </g>
    </g>
    <g id="xtick_7">
     <g id="line2d_13">
      <path d="M 358.593182 303.64 
L 358.593182 25.44 
" clip-path="url(#pf2cfd1a2e5)" style="fill: none; stroke: #b0b0b0; stroke-opacity: 0.3; stroke-width: 0.8; stroke-linecap: square"/>
     </g>
     <g id="line2d_14">
      <g>
       <use xlink:href="#m20ff6d83c5" x="358.593182" y="303.64" style="stroke: #000000; stroke-width: 0.8"/>
      </g>
     </g>
     <g id="text_7">
      <!-- 12 -->
      <g transform="translate(352.230682 318.238437) scale(0.1 -0.1)">
       <use xlink:href="#DejaVuSans-31"/>
       <use xlink:href="#DejaVuSans-32" transform="translate(63.623047 0)"/>
      </g>
     </g>
    </g>
    <g id="xtick_8">
     <g id="line2d_15">
      <path d="M 407.343485 303.64 
L 407.343485 25.44 
" clip-path="url(#pf2cfd1a2e5)" style="fill: none; stroke: #b0b0b0; stroke-opacity: 0.3; stroke-width: 0.8; stroke-linecap: square"/>
     </g>
     <g id="line2d_16">
      <g>
       <use xlink:href="#m20ff6d83c5" x="407.343485" y="303.64" style="stroke: #000000; stroke-width: 0.8"/>
      </g>
     </g>
     <g id="text_8">
      <!-- 14 -->
      <g transform="translate(400.980985 318.238437) scale(0.1 -0.1)">
       <use xlink:href="#DejaVuSans-31"/>
       <use xlink:href="#DejaVuSans-34" transform="translate(63.623047 0)"/>
      </g>
     </g>
    </g>
    <g id="text_9">
     <!-- Time (minutes) -->
     <g transform="translate(210.9425 331.916562) scale(0.1 -0.1)">
      <defs>
       <path id="DejaVuSans-54" d="M -19 4666 
L 3928 4666 
L 3928 4134 
L 2272 4134 
L 2272 0 
L 1638 0 
L 1638 4134 
L -19 4134 
L -19 4666 
z
" transform="scale(0.015625)"/>
       <path id="DejaVuSans-69" d="M 603 3500 
L 1178 3500 
L 1178 0 
L 603 0 
L 603 3500 
z
M 603 4863 
L 1178 4863 
L 1178 4134 
L 603 4134 
L 603 4863 
z
" transform="scale(0.015625)"/>
       <path id="DejaVuSans-6d" d="M 3328 2828 
Q 3544 3216 3844 3400 
Q 4144 3584 4550 3584 
Q 5097 3584 5394 3201 
Q 5691 2819 5691 2113 
L 5691 0 
L 5113 0 
L 5113 2094 
Q 5113 2597 4934 2840 
Q 4756 3084 4391 3084 
Q 3944 3084 3684 2787 
Q 3425 2491 3425 1978 
L 3425 0 
L 2847 0 
L 2847 2094 
Q 2847 2600 2669 2842 
Q 2491 3084 2119 3084 
Q 1678 3084 1418 2786 
Q 1159 2488 1159 1978 
L 1159 0 
L 581 0 
L 581 3500 
L 1159 3500 
L 1159 2956 
Q 1356 3278 1631 3431 
Q 1906 3584 2284 3584 
Q 2666 3584 2933 3390 
Q 3200 3197 3328 2828 
z
" transform="scale(0.015625)"/>
       <path id="DejaVuSans-65" d="M 3597 1894 
L 3597 1613 
L 953 1613 
Q 991 1019 1311 708 
Q 1631 397 2203 397 
Q 2534 397 2845 478 
Q 3156 559 3463 722 
L 3463 178 
Q 3153 47 2828 -22 
Q 2503 -91 2169 -91 
Q 1331 -91 842 396 
Q 353 884 353 1716 
Q 353 2575 817 3079 
Q 1281 3584 2069 3584 
Q 2775 3584 3186 3129 
Q 3597 2675 3597 1894 
z
M 3022 2063 
Q 3016 2534 2758 2815 
Q 2500 3097 2075 3097 
Q 1594 3097 1305 2825 
Q 1016 2553 972 2059 
L 3022 2063 
z
" transform="scale(0.015625)"/>
       <path id="DejaVuSans-20" transform="scale(0.015625)"/>
       <path id="DejaVuSans-28" d="M 1984 4856 
Q 1566 4138 1362 3434 
Q 1159 2731 1159 2009 
Q 1159 1288 1364 580 
Q 1569 -128 1984 -844 
L 1484 -844 
Q 1016 -109 783 600 
Q 550 1309 550 2009 
Q 550 2706 781 3412 
Q 1013 4119 1484 4856 
L 1984 4856 
z
" transform="scale(0.015625)"/>
       <path id="DejaVuSans-6e" d="M 3513 2113 
L 3513 0 
L 2938 0 
L 2938 2094 
Q 2938 2591 2744 2837 
Q 2550 3084 2163 3084 
Q 1697 3084 1428 2787 
Q 1159 2491 1159 1978 
L 1159 0 
L 581 0 
L 581 3500 
L 1159 3500 
L 1159 2956 
Q 1366 3272 1645 3428 
Q 1925 3584 2291 3584 
Q 2894 3584 3203 3211 
Q 3513 2838 3513 2113 
z
" transform="scale(0.015625)"/>
       <path id="DejaVuSans-75" d="M 544 1381 
L 544 3500 
L 1119 3500 
L 1119 1403 
Q 1119 906 1312 657 
Q 1506 409 1894 409 
Q 2359 409 2629 706 
Q 2900 1003 2900 1516 
L 2900 3500 
L 3475 3500 
L 3475 0 
L 2900 0 
L 2900 538 
Q 2691 219 2414 64 
Q 2138 -91 1772 -91 
Q 1169 -91 856 284 
Q 544 659 544 1381 
z
M 1991 3584 
L 1991 3584 
z
" transform="scale(0.015625)"/>
       <path id="DejaVuSans-74" d="M 1172 4494 
L 1172 3500 
L 2356 3500 
L 2356 3053 
L 1172 3053 
L 1172 1153 
Q 1172 725 1289 603 
Q 1406 481 1766 481 
L 2356 481 
L 2356 0 
L 1766 0 
Q 1100 0 847 248 
Q 594 497 594 1153 
L 594 3053 
L 172 3053 
L 172 3500 
L 594 3500 
L 594 4494 
L 1172 4494 
z
" transform="scale(0.015625)"/>
       <path id="DejaVuSans-73" d="M 2834 3397 
L 2834 2853 
Q 2591 2978 2328 3040 
Q 2066 3103 1784 3103 
Q 1356 3103 1142 2972 
Q 928 2841 928 2578 
Q 928 2378 1081 2264 
Q 1234 2150 1697 2047 
L 1894 2003 
Q 2506 1872 2764 1633 
Q 3022 1394 3022 966 
Q 3022 478 2636 193 
Q 2250 -91 1575 -91 
Q 1294 -91 989 -36 
Q 684 19 347 128 
L 347 722 
Q 666 556 975 473 
Q 1284 391 1588 391 
Q 1994 391 2212 530 
Q 2431 669 2431 922 
Q 2431 1156 2273 1281 
Q 2116 1406 1581 1522 
L 1381 1569 
Q 847 1681 609 1914 
Q 372 2147 372 2553 
Q 372 3047 722 3315 
Q 1072 3584 1716 3584 
Q 2034 3584 2315 3537 
Q 2597 3491 2834 3397 
z
" transform="scale(0.015625)"/>
       <path id="DejaVuSans-29" d="M 513 4856 
L 1013 4856 
Q 1481 4119 1714 3412 
Q 1947 2706 1947 2009 
Q 1947 1309 1714 600 
Q 1481 -109 1013 -844 
L 513 -844 
Q 928 -128 1133 580 
Q 1338 1288 1338 2009 
Q 1338 2731 1133 3434 
Q 928 4138 513 4856 
z
" transform="scale(0.015625)"/>
      </defs>
      <use xlink:href="#DejaVuSans-54"/>
      <use xlink:href="#DejaVuSans-69" transform="translate(57.958984 0)"/>
      <use xlink:href="#DejaVuSans-6d" transform="translate(85.742188 0)"/>
      <use xlink:href="#DejaVuSans-65" transform="translate(183.154297 0)"/>
      <use xlink:href="#DejaVuSans-20" transform="translate(244.677734 0)"/>
      <use xlink:href="#DejaVuSans-28" transform="translate(276.464844 0)"/>
      <use xlink:href="#DejaVuSans-6d" transform="translate(315.478516 0)"/>
      <use xlink:href="#DejaVuSans-69" transform="translate(412.890625 0)"/>
      <use xlink:href="#DejaVuSans-6e" transform="translate(440.673828 0)"/>
      <use xlink:href="#DejaVuSans-75" transform="translate(504.052734 0)"/>
      <use xlink:href="#DejaVuSans-74" transform="translate(567.431641 0)"/>
      <use xlink:href="#DejaVuSans-65" transform="translate(606.640625 0)"/>
      <use xlink:href="#DejaVuSans-73" transform="translate(668.164062 0)"/>
      <use xlink:href="#DejaVuSans-29" transform="translate(720.263672 0)"/>
     </g>
    </g>
   </g>
   <g id="matplotlib.axis_2">
    <g id="ytick_1">
     <g id="line2d_17">
      <path d="M 47.81 290.872268 
L 450 290.872268 
" clip-path="url(#pf2cfd1a2e5)" style="fill: none; stroke: #b0b0b0; stroke-opacity: 0.3; stroke-width: 0.8; stroke-linecap: square"/>
     </g>
     <g id="line2d_18">
      <defs>
       <path id="m21d80fffe2" d="M 0 0 
L -3.5 0 
" style="stroke: #000000; stroke-width: 0.8"/>
      </defs>
      <g>
       <use xlink:href="#m21d80fffe2" x="47.81" y="290.872268" style="stroke: #000000; stroke-width: 0.8"/>
      </g>
     </g>
     <g id="text_10">
      <!-- 0.0 -->
      <g transform="translate(24.906875 294.671487) scale(0.1 -0.1)">
       <defs>
        <path id="DejaVuSans-2e" d="M 684 794 
L 1344 794 
L 1344 0 
L 684 0 
L 684 794 
z
" transform="scale(0.015625)"/>
       </defs>
       <use xlink:href="#DejaVuSans-30"/>
       <use xlink:href="#DejaVuSans-2e" transform="translate(63.623047 0)"/>
       <use xlink:href="#DejaVuSans-30" transform="translate(95.410156 0)"/>
      </g>
     </g>
    </g>
    <g id="ytick_2">
     <g id="line2d_19">
      <path d="M 47.81 235.489773 
L 450 235.489773 
" clip-path="url(#pf2cfd1a2e5)" style="fill: none; stroke: #b0b0b0; stroke-opacity: 0.3; stroke-width: 0.8; stroke-linecap: square"/>
     </g>
     <g id="line2d_20">
      <g>
       <use xlink:href="#m21d80fffe2" x="47.81" y="235.489773" style="stroke: #000000; stroke-width: 0.8"/>
      </g>
     </g>
     <g id="text_11">
      <!-- 0.5 -->
      <g transform="translate(24.906875 239.288992) scale(0.1 -0.1)">
       <defs>
        <path id="DejaVuSans-35" d="M 691 4666 
L 3169 4666 
L 3169 4134 
L 1269 4134 
L 1269 2991 
Q 1406 3038 1543 3061 
Q 1681 3084 1819 3084 
Q 2600 3084 3056 2656 
Q 3513 2228 3513 1497 
Q 3513 744 3044 326 
Q 2575 -91 1722 -91 
Q 1428 -91 1123 -41 
Q 819 9 494 109 
L 494 744 
Q 775 591 1075 516 
Q 1375 441 1709 441 
Q 2250 441 2565 725 
Q 2881 1009 2881 1497 
Q 2881 1984 2565 2268 
Q 2250 2553 1709 2553 
Q 1456 2553 1204 2497 
Q 953 2441 691 2322 
L 691 4666 
z
" transform="scale(0.015625)"/>
       </defs>
       <use xlink:href="#DejaVuSans-30"/>
       <use xlink:href="#DejaVuSans-2e" transform="translate(63.623047 0)"/>
       <use xlink:href="#DejaVuSans-35" transform="translate(95.410156 0)"/>
      </g>
     </g>
    </g>
    <g id="ytick_3">
     <g id="line2d_21">
      <path d="M 47.81 180.107278 
L 450 180.107278 
" clip-path="url(#pf2cfd1a2e5)" style="fill: none; stroke: #b0b0b0; stroke-opacity: 0.3; stroke-width: 0.8; stroke-linecap: square"/>
     </g>
     <g id="line2d_22">
      <g>
       <use xlink:href="#m21d80fffe2" x="47.81" y="180.107278" style="stroke: #000000; stroke-width: 0.8"/>
      </g>
     </g>
     <g id="text_12">
      <!-- 1.0 -->
      <g transform="translate(24.906875 183.906497) scale(0.1 -0.1)">
       <use xlink:href="#DejaVuSans-31"/>
       <use xlink:href="#DejaVuSans-2e" transform="translate(63.623047 0)"/>
       <use xlink:href="#DejaVuSans-30" transform="translate(95.410156 0)"/>
      </g>
     </g>
    </g>
    <g id="ytick_4">
     <g id="line2d_23">
      <path d="M 47.81 124.724783 
L 450 124.724783 
" clip-path="url(#pf2cfd1a2e5)" style="fill: none; stroke: #b0b0b0; stroke-opacity: 0.3; stroke-width: 0.8; stroke-linecap: square"/>
     </g>
     <g id="line2d_24">
      <g>
       <use xlink:href="#m21d80fffe2" x="47.81" y="124.724783" style="stroke: #000000; stroke-width: 0.8"/>
      </g>
     </g>
     <g id="text_13">
      <!-- 1.5 -->
      <g transform="translate(24.906875 128.524002) scale(0.1 -0.1)">
       <use xlink:href="#DejaVuSans-31"/>
       <use xlink:href="#DejaVuSans-2e" transform="translate(63.623047 0)"/>
       <use xlink:href="#DejaVuSans-35" transform="translate(95.410156 0)"/>
      </g>
     </g>
    </g>
    <g id="ytick_5">
     <g id="line2d_25">
      <path d="M 47.81 69.342288 
L 450 69.342288 
" clip-path="url(#pf2cfd1a2e5)" style="fill: none; stroke: #b0b0b0; stroke-opacity: 0.3; stroke-width: 0.8; stroke-linecap: square"/>
     </g>
     <g id="line2d_26">
      <g>
       <use xlink:href="#m21d80fffe2" x="47.81" y="69.342288" style="stroke: #000000; stroke-width: 0.8"/>
      </g>
     </g>
     <g id="text_14">
      <!-- 2.0 -->
      <g transform="translate(24.906875 73.141507) scale(0.1 -0.1)">
       <use xlink:href="#DejaVuSans-32"/>
       <use xlink:href="#DejaVuSans-2e" transform="translate(63.623047 0)"/>
       <use xlink:href="#DejaVuSans-30" transform="translate(95.410156 0)"/>
      </g>
     </g>
    </g>
    <g id="text_15">
     <!-- Gaussian filtered EDA (μS) -->
     <g transform="translate(18.827188 230.613437) rotate(-90) scale(0.1 -0.1)">
      <defs>
       <path id="DejaVuSans-47" d="M 3809 666 
L 3809 1919 
L 2778 1919 
L 2778 2438 
L 4434 2438 
L 4434 434 
Q 4069 175 3628 42 
Q 3188 -91 2688 -91 
Q 1594 -91 976 548 
Q 359 1188 359 2328 
Q 359 3472 976 4111 
Q 1594 4750 2688 4750 
Q 3144 4750 3555 4637 
Q 3966 4525 4313 4306 
L 4313 3634 
Q 3963 3931 3569 4081 
Q 3175 4231 2741 4231 
Q 1884 4231 1454 3753 
Q 1025 3275 1025 2328 
Q 1025 1384 1454 906 
Q 1884 428 2741 428 
Q 3075 428 3337 486 
Q 3600 544 3809 666 
z
" transform="scale(0.015625)"/>
       <path id="DejaVuSans-61" d="M 2194 1759 
Q 1497 1759 1228 1600 
Q 959 1441 959 1056 
Q 959 750 1161 570 
Q 1363 391 1709 391 
Q 2188 391 2477 730 
Q 2766 1069 2766 1631 
L 2766 1759 
L 2194 1759 
z
M 3341 1997 
L 3341 0 
L 2766 0 
L 2766 531 
Q 2569 213 2275 61 
Q 1981 -91 1556 -91 
Q 1019 -91 701 211 
Q 384 513 384 1019 
Q 384 1609 779 1909 
Q 1175 2209 1959 2209 
L 2766 2209 
L 2766 2266 
Q 2766 2663 2505 2880 
Q 2244 3097 1772 3097 
Q 1472 3097 1187 3025 
Q 903 2953 641 2809 
L 641 3341 
Q 956 3463 1253 3523 
Q 1550 3584 1831 3584 
Q 2591 3584 2966 3190 
Q 3341 2797 3341 1997 
z
" transform="scale(0.015625)"/>
       <path id="DejaVuSans-66" d="M 2375 4863 
L 2375 4384 
L 1825 4384 
Q 1516 4384 1395 4259 
Q 1275 4134 1275 3809 
L 1275 3500 
L 2222 3500 
L 2222 3053 
L 1275 3053 
L 1275 0 
L 697 0 
L 697 3053 
L 147 3053 
L 147 3500 
L 697 3500 
L 697 3744 
Q 697 4328 969 4595 
Q 1241 4863 1831 4863 
L 2375 4863 
z
" transform="scale(0.015625)"/>
       <path id="DejaVuSans-6c" d="M 603 4863 
L 1178 4863 
L 1178 0 
L 603 0 
L 603 4863 
z
" transform="scale(0.015625)"/>
       <path id="DejaVuSans-72" d="M 2631 2963 
Q 2534 3019 2420 3045 
Q 2306 3072 2169 3072 
Q 1681 3072 1420 2755 
Q 1159 2438 1159 1844 
L 1159 0 
L 581 0 
L 581 3500 
L 1159 3500 
L 1159 2956 
Q 1341 3275 1631 3429 
Q 1922 3584 2338 3584 
Q 2397 3584 2469 3576 
Q 2541 3569 2628 3553 
L 2631 2963 
z
" transform="scale(0.015625)"/>
       <path id="DejaVuSans-64" d="M 2906 2969 
L 2906 4863 
L 3481 4863 
L 3481 0 
L 2906 0 
L 2906 525 
Q 2725 213 2448 61 
Q 2172 -91 1784 -91 
Q 1150 -91 751 415 
Q 353 922 353 1747 
Q 353 2572 751 3078 
Q 1150 3584 1784 3584 
Q 2172 3584 2448 3432 
Q 2725 3281 2906 2969 
z
M 947 1747 
Q 947 1113 1208 752 
Q 1469 391 1925 391 
Q 2381 391 2643 752 
Q 2906 1113 2906 1747 
Q 2906 2381 2643 2742 
Q 2381 3103 1925 3103 
Q 1469 3103 1208 2742 
Q 947 2381 947 1747 
z
" transform="scale(0.015625)"/>
       <path id="DejaVuSans-45" d="M 628 4666 
L 3578 4666 
L 3578 4134 
L 1259 4134 
L 1259 2753 
L 3481 2753 
L 3481 2222 
L 1259 2222 
L 1259 531 
L 3634 531 
L 3634 0 
L 628 0 
L 628 4666 
z
" transform="scale(0.015625)"/>
       <path id="DejaVuSans-44" d="M 1259 4147 
L 1259 519 
L 2022 519 
Q 2988 519 3436 956 
Q 3884 1394 3884 2338 
Q 3884 3275 3436 3711 
Q 2988 4147 2022 4147 
L 1259 4147 
z
M 628 4666 
L 1925 4666 
Q 3281 4666 3915 4102 
Q 4550 3538 4550 2338 
Q 4550 1131 3912 565 
Q 3275 0 1925 0 
L 628 0 
L 628 4666 
z
" transform="scale(0.015625)"/>
       <path id="DejaVuSans-41" d="M 2188 4044 
L 1331 1722 
L 3047 1722 
L 2188 4044 
z
M 1831 4666 
L 2547 4666 
L 4325 0 
L 3669 0 
L 3244 1197 
L 1141 1197 
L 716 0 
L 50 0 
L 1831 4666 
z
" transform="scale(0.015625)"/>
       <path id="DejaVuSans-3bc" d="M 544 -1331 
L 544 3500 
L 1119 3500 
L 1119 1325 
Q 1119 872 1334 640 
Q 1550 409 1972 409 
Q 2434 409 2667 671 
Q 2900 934 2900 1459 
L 2900 3500 
L 3475 3500 
L 3475 806 
Q 3475 619 3529 530 
Q 3584 441 3700 441 
Q 3728 441 3778 458 
Q 3828 475 3916 513 
L 3916 50 
Q 3788 -22 3673 -56 
Q 3559 -91 3450 -91 
Q 3234 -91 3106 31 
Q 2978 153 2931 403 
Q 2775 156 2548 32 
Q 2322 -91 2016 -91 
Q 1697 -91 1473 31 
Q 1250 153 1119 397 
L 1119 -1331 
L 544 -1331 
z
" transform="scale(0.015625)"/>
       <path id="DejaVuSans-53" d="M 3425 4513 
L 3425 3897 
Q 3066 4069 2747 4153 
Q 2428 4238 2131 4238 
Q 1616 4238 1336 4038 
Q 1056 3838 1056 3469 
Q 1056 3159 1242 3001 
Q 1428 2844 1947 2747 
L 2328 2669 
Q 3034 2534 3370 2195 
Q 3706 1856 3706 1288 
Q 3706 609 3251 259 
Q 2797 -91 1919 -91 
Q 1588 -91 1214 -16 
Q 841 59 441 206 
L 441 856 
Q 825 641 1194 531 
Q 1563 422 1919 422 
Q 2459 422 2753 634 
Q 3047 847 3047 1241 
Q 3047 1584 2836 1778 
Q 2625 1972 2144 2069 
L 1759 2144 
Q 1053 2284 737 2584 
Q 422 2884 422 3419 
Q 422 4038 858 4394 
Q 1294 4750 2059 4750 
Q 2388 4750 2728 4690 
Q 3069 4631 3425 4513 
z
" transform="scale(0.015625)"/>
      </defs>
      <use xlink:href="#DejaVuSans-47"/>
      <use xlink:href="#DejaVuSans-61" transform="translate(77.490234 0)"/>
      <use xlink:href="#DejaVuSans-75" transform="translate(138.769531 0)"/>
      <use xlink:href="#DejaVuSans-73" transform="translate(202.148438 0)"/>
      <use xlink:href="#DejaVuSans-73" transform="translate(254.248047 0)"/>
      <use xlink:href="#DejaVuSans-69" transform="translate(306.347656 0)"/>
      <use xlink:href="#DejaVuSans-61" transform="translate(334.130859 0)"/>
      <use xlink:href="#DejaVuSans-6e" transform="translate(395.410156 0)"/>
      <use xlink:href="#DejaVuSans-20" transform="translate(458.789062 0)"/>
      <use xlink:href="#DejaVuSans-66" transform="translate(490.576172 0)"/>
      <use xlink:href="#DejaVuSans-69" transform="translate(525.78125 0)"/>
      <use xlink:href="#DejaVuSans-6c" transform="translate(553.564453 0)"/>
      <use xlink:href="#DejaVuSans-74" transform="translate(581.347656 0)"/>
      <use xlink:href="#DejaVuSans-65" transform="translate(620.556641 0)"/>
      <use xlink:href="#DejaVuSans-72" transform="translate(682.080078 0)"/>
      <use xlink:href="#DejaVuSans-65" transform="translate(720.943359 0)"/>
      <use xlink:href="#DejaVuSans-64" transform="translate(782.466797 0)"/>
      <use xlink:href="#DejaVuSans-20" transform="translate(845.943359 0)"/>
      <use xlink:href="#DejaVuSans-45" transform="translate(877.730469 0)"/>
      <use xlink:href="#DejaVuSans-44" transform="translate(940.914062 0)"/>
      <use xlink:href="#DejaVuSans-41" transform="translate(1016.166016 0)"/>
      <use xlink:href="#DejaVuSans-20" transform="translate(1084.574219 0)"/>
      <use xlink:href="#DejaVuSans-28" transform="translate(1116.361328 0)"/>
      <use xlink:href="#DejaVuSans-3bc" transform="translate(1155.375 0)"/>
      <use xlink:href="#DejaVuSans-53" transform="translate(1218.998047 0)"/>
      <use xlink:href="#DejaVuSans-29" transform="translate(1282.474609 0)"/>
     </g>
    </g>
   </g>
   <g id="line2d_27">
    <path d="M 66.091364 238.31939 
L 67.10756 238.653496 
L 74.42417 241.685117 
L 75.135507 242.296188 
L 76.050083 243.070417 
L 77.574377 243.942242 
L 78.387334 244.052443 
L 79.810008 244.267179 
L 81.131062 244.469866 
L 81.63916 244.303427 
L 82.350497 243.914107 
L 82.553737 244.13681 
L 82.858595 245.076348 
L 83.366693 247.111313 
L 83.468313 247.228392 
L 83.569933 247.15418 
L 83.773172 246.373269 
L 84.07803 243.835152 
L 84.890987 236.218028 
L 85.297466 234.243388 
L 85.805563 232.896922 
L 86.923379 230.736381 
L 87.837955 228.093115 
L 88.142814 227.835981 
L 88.447673 227.948251 
L 89.768727 228.988769 
L 93.020554 229.715826 
L 93.325413 229.472049 
L 93.731891 228.768861 
L 94.849707 226.451116 
L 95.357805 225.890341 
L 95.865903 225.638243 
L 96.374 225.621541 
L 97.593435 225.743686 
L 97.999914 225.429216 
L 98.711251 224.444142 
L 99.320968 223.729416 
L 99.727447 223.541119 
L 100.235545 223.579622 
L 101.45498 223.82878 
L 101.759839 223.700269 
L 102.064697 223.302544 
L 102.369556 222.523819 
L 103.588991 218.573152 
L 103.89385 218.399902 
L 104.198709 218.548092 
L 104.808426 219.269386 
L 105.316524 219.723912 
L 105.621383 219.735641 
L 105.926242 219.498164 
L 107.044057 218.251522 
L 107.247296 218.365245 
L 107.552155 218.843642 
L 108.161873 220.515803 
L 108.66997 221.692101 
L 109.076449 222.109438 
L 109.381308 222.088841 
L 109.584547 221.868921 
L 109.889405 221.093027 
L 110.194264 219.602738 
L 110.600743 216.29155 
L 111.108841 209.779584 
L 111.616938 200.04417 
L 112.633134 178.320549 
L 112.937993 175.447908 
L 113.141232 174.762342 
L 113.242852 174.70433 
L 113.446091 174.962278 
L 114.055809 176.241311 
L 114.259048 176.343056 
L 114.563906 176.213767 
L 115.072004 175.968327 
L 115.376863 176.169618 
L 115.884961 177.044104 
L 116.291439 177.600314 
L 116.494679 177.654416 
L 116.697918 177.534237 
L 117.002777 177.043383 
L 117.409255 175.873302 
L 118.222212 173.315737 
L 118.52707 173.102985 
L 118.831929 173.272358 
L 119.136788 173.433287 
L 119.340027 173.365908 
L 119.644886 172.968753 
L 120.152984 172.315219 
L 120.356223 172.419887 
L 120.559462 172.840662 
L 120.96594 174.506122 
L 121.982136 179.184698 
L 122.388615 179.933435 
L 122.591854 180.009411 
L 122.795093 179.892816 
L 123.099952 179.409098 
L 123.912908 177.804323 
L 124.217767 177.641909 
L 124.522626 177.758851 
L 124.929104 178.211205 
L 125.640441 179.41998 
L 126.351779 180.934629 
L 127.469594 183.76524 
L 127.672833 183.809409 
L 128.079311 183.52959 
L 128.48579 183.391432 
L 128.892268 183.362636 
L 129.095507 183.126733 
L 129.400366 182.257212 
L 129.908464 179.643964 
L 130.619801 175.984052 
L 130.92466 175.216015 
L 131.127899 175.111838 
L 131.331138 175.3414 
L 131.635997 176.183964 
L 132.448954 178.733571 
L 133.770008 181.107224 
L 134.582965 182.287364 
L 135.90402 183.928264 
L 136.412118 184.472394 
L 136.920216 185.49877 
L 137.326694 186.165795 
L 137.529933 186.170932 
L 137.733172 185.892437 
L 138.139651 184.733031 
L 138.850988 182.733097 
L 139.460705 181.612397 
L 139.867184 181.286178 
L 140.172042 181.365236 
L 140.68014 181.892242 
L 141.696336 182.977974 
L 142.102814 183.177841 
L 142.407673 183.107099 
L 143.423869 182.49279 
L 143.931967 182.708479 
L 144.643304 183.059798 
L 144.948163 182.948776 
L 145.253022 182.538064 
L 145.862739 181.519217 
L 146.065978 181.464461 
L 146.269217 181.643248 
L 146.574076 182.281683 
L 148.301609 186.712955 
L 149.216186 188.507966 
L 149.521044 188.760573 
L 149.825903 188.755697 
L 150.232381 188.433238 
L 150.943718 187.447543 
L 151.553436 186.630993 
L 151.959914 186.451974 
L 152.264773 186.351553 
L 152.468012 186.08826 
L 152.772871 185.146739 
L 153.890686 180.524057 
L 154.093926 180.546052 
L 154.398784 181.055882 
L 154.906882 182.573816 
L 156.024698 185.988682 
L 156.837655 187.630751 
L 157.95547 189.77347 
L 158.361948 191.048036 
L 158.768427 193.167406 
L 159.276525 197.177052 
L 160.191101 204.486088 
L 160.597579 206.105701 
L 161.207297 207.3872 
L 162.426732 209.792516 
L 163.036449 210.086328 
L 164.052645 211.318174 
L 164.459124 212.030807 
L 164.967221 212.966983 
L 165.170461 212.905213 
L 165.3737 212.348871 
L 165.678559 210.519716 
L 166.491515 204.644434 
L 166.694754 204.215436 
L 166.897994 204.286043 
L 167.202852 204.989043 
L 168.117429 207.503401 
L 169.540103 210.278787 
L 170.25144 211.25102 
L 171.166016 212.130164 
L 172.080593 212.741455 
L 172.385451 212.761861 
L 172.69031 212.494016 
L 172.995169 211.79464 
L 173.503267 209.827483 
L 174.011365 208.086291 
L 174.316223 207.611271 
L 174.621082 207.535738 
L 175.027561 207.809364 
L 178.381007 211.020767 
L 179.702061 212.077175 
L 180.819877 212.989535 
L 182.64903 214.393397 
L 186.104095 217.244021 
L 187.730009 219.444917 
L 189.152683 221.205396 
L 190.981836 222.768896 
L 191.693173 223.14108 
L 192.30289 223.223308 
L 193.115847 223.281191 
L 193.623945 223.61594 
L 194.335282 224.121237 
L 194.74176 224.152721 
L 195.859576 224.00523 
L 196.672532 224.344146 
L 197.688728 224.962345 
L 199.72112 226.491195 
L 201.651892 227.430524 
L 202.972947 227.921733 
L 203.277806 227.792032 
L 203.684284 227.25015 
L 204.294001 226.29668 
L 204.59886 226.164892 
L 204.903719 226.284589 
L 206.428013 227.254913 
L 207.850687 227.740032 
L 208.765263 228.165065 
L 209.070122 228.087405 
L 209.4766 227.74966 
L 210.187937 227.140813 
L 210.594416 227.135657 
L 211.204133 227.460969 
L 212.626808 228.287725 
L 213.033286 228.321741 
L 213.338145 228.172768 
L 213.643003 227.745074 
L 213.947862 226.89581 
L 214.45596 224.529815 
L 215.268917 220.676334 
L 216.691591 215.938514 
L 216.99645 215.462363 
L 217.301309 215.345964 
L 217.707787 215.494367 
L 218.317504 215.69869 
L 218.825602 215.599316 
L 219.740179 215.159786 
L 220.045037 214.594448 
L 220.349896 213.313612 
L 220.756375 210.130593 
L 221.670951 201.980792 
L 221.97581 201.207999 
L 222.179049 201.255209 
L 222.483907 201.774692 
L 223.195245 203.098388 
L 223.500103 203.350764 
L 223.703343 203.30438 
L 223.906582 202.958897 
L 224.109821 202.168105 
L 224.41468 199.885234 
L 224.922778 193.56373 
L 225.430875 187.902548 
L 225.735734 186.492593 
L 225.938973 186.325853 
L 226.142213 186.519468 
L 226.75193 187.293683 
L 227.463267 187.721277 
L 227.768126 188.407078 
L 228.682702 191.200862 
L 228.784322 191.225172 
L 228.987561 190.856035 
L 229.1908 189.816422 
L 229.495659 186.916181 
L 230.511855 175.110133 
L 230.816714 174.156921 
L 231.019953 174.098754 
L 231.528051 174.268533 
L 231.73129 174.021854 
L 232.036149 173.171356 
L 232.747486 170.73688 
L 232.950725 170.505524 
L 233.153964 170.582006 
L 233.458823 171.108158 
L 233.763682 171.625693 
L 233.865301 171.661206 
L 233.966921 171.571864 
L 234.17016 170.87524 
L 234.373399 169.25738 
L 234.678258 164.666393 
L 235.186356 152.096033 
L 235.694454 140.476103 
L 235.999312 137.162567 
L 236.202552 136.444758 
L 236.304171 136.39943 
L 236.50741 136.683467 
L 237.421987 138.688712 
L 237.726845 138.853095 
L 238.438183 138.859519 
L 238.743041 139.444988 
L 239.454378 141.844121 
L 239.860857 142.773197 
L 240.064096 142.874755 
L 240.267335 142.683684 
L 240.572194 141.907553 
L 241.283531 139.09708 
L 242.401346 134.320615 
L 242.604586 134.202736 
L 242.807825 134.44058 
L 243.214303 135.547928 
L 244.230499 138.487273 
L 245.246695 140.718505 
L 247.075847 143.970944 
L 247.279087 144.061738 
L 247.482326 143.871685 
L 247.685565 143.312207 
L 247.990424 141.737106 
L 248.80338 136.690459 
L 249.00662 136.297027 
L 249.108239 136.289586 
L 249.311478 136.6059 
L 249.717957 138.116345 
L 250.835772 142.79325 
L 251.750348 145.394352 
L 252.258446 146.466332 
L 252.563305 146.682945 
L 252.766544 146.462457 
L 252.969783 145.820655 
L 253.274642 143.845918 
L 253.681121 139.012555 
L 254.900556 121.389959 
L 255.103795 121.137466 
L 255.307034 121.795127 
L 255.713512 124.56945 
L 256.32323 128.40109 
L 256.628089 129.040206 
L 256.729708 128.977215 
L 256.932947 128.392443 
L 257.237806 126.454494 
L 257.949143 121.189507 
L 258.152382 120.827262 
L 258.254002 120.918514 
L 258.457241 121.568826 
L 259.473437 126.371794 
L 259.575057 126.2935 
L 259.778296 125.455995 
L 259.981535 123.515155 
L 260.286394 118.234879 
L 261.404209 94.366404 
L 261.505829 94.17958 
L 261.607448 94.425208 
L 261.810688 95.912543 
L 262.420405 101.59512 
L 262.623644 102.060502 
L 262.725264 101.932634 
L 262.928503 101.081271 
L 263.843079 95.632799 
L 264.046318 95.465059 
L 264.249558 95.74831 
L 264.554416 96.801485 
L 265.062514 99.615907 
L 266.383569 107.812917 
L 267.196526 110.710411 
L 267.501384 111.423902 
L 267.603004 111.477576 
L 267.704624 111.386238 
L 267.907863 110.659342 
L 268.212721 108.065451 
L 269.025678 99.029526 
L 269.228917 98.345762 
L 269.330537 98.294556 
L 269.533776 98.54371 
L 269.737015 98.834227 
L 269.838635 98.826552 
L 270.041874 98.227049 
L 270.245113 96.660329 
L 270.753211 89.739622 
L 271.159689 85.422737 
L 271.362929 84.803946 
L 271.464548 84.881194 
L 271.667787 85.618932 
L 272.379125 89.085272 
L 272.582364 89.284491 
L 272.785603 89.166346 
L 273.090462 88.915727 
L 273.293701 89.033595 
L 273.49694 89.521649 
L 273.903418 91.438847 
L 274.716375 95.482661 
L 276.952006 103.092488 
L 277.155245 103.021903 
L 277.460104 102.288388 
L 278.069821 100.610927 
L 278.37468 100.440694 
L 278.882778 100.446722 
L 279.086017 100.07913 
L 279.289256 99.223909 
L 279.594115 96.73557 
L 280.203833 88.528825 
L 280.711931 82.999839 
L 281.016789 81.394923 
L 281.321648 80.779461 
L 281.524887 80.73416 
L 281.829746 81.027772 
L 282.236224 81.858688 
L 283.049181 83.656579 
L 283.35404 83.824214 
L 283.658899 83.62019 
L 284.166997 83.123194 
L 284.370236 83.132233 
L 284.675094 83.451829 
L 285.284812 84.3052 
L 285.488051 84.331571 
L 285.69129 84.148228 
L 285.996149 83.51686 
L 286.809106 81.464811 
L 287.113965 81.234097 
L 287.418823 81.341253 
L 287.926921 81.891142 
L 288.739878 83.128241 
L 289.959313 85.232812 
L 290.060933 85.174873 
L 290.264172 84.577894 
L 290.467411 82.987373 
L 290.77227 77.820154 
L 291.178748 65.137815 
L 291.890085 41.533102 
L 292.194944 38.147159 
L 292.296563 38.085455 
L 292.499803 39.176688 
L 292.906281 43.93794 
L 293.515999 50.858262 
L 294.024096 54.190046 
L 294.633814 56.398585 
L 295.243532 58.678454 
L 297.784021 69.778363 
L 298.292119 71.181183 
L 298.596978 71.561352 
L 298.800217 71.550765 
L 299.105076 71.186803 
L 299.613174 70.447593 
L 299.816413 70.425734 
L 300.121272 70.770937 
L 300.62937 71.417215 
L 300.832609 71.265417 
L 301.137468 70.380116 
L 301.848805 67.824414 
L 301.950424 67.868606 
L 302.153663 68.508055 
L 302.458522 70.788885 
L 303.881196 84.261408 
L 304.389294 86.255639 
L 305.608729 90.28952 
L 307.539501 98.145907 
L 309.267034 103.289664 
L 311.502665 110.576139 
L 314.043155 116.836873 
L 315.26259 121.15274 
L 315.465829 121.12829 
L 315.669068 120.715233 
L 316.075547 118.965018 
L 316.786884 115.731726 
L 317.396601 114.245047 
L 317.904699 112.720307 
L 318.412797 110.22215 
L 320.14033 100.645513 
L 320.445189 100.270751 
L 320.648428 100.345676 
L 321.156526 100.97775 
L 321.969483 102.312334 
L 324.814831 107.788879 
L 326.339125 109.293824 
L 326.847223 110.23216 
L 327.253701 111.535839 
L 327.66018 113.764799 
L 328.371517 119.649377 
L 330.505528 137.143211 
L 330.810387 137.719962 
L 331.216865 138.009409 
L 331.521724 138.824022 
L 331.928202 140.117577 
L 332.029822 140.186793 
L 332.131441 140.068325 
L 332.334681 139.184822 
L 332.639539 136.326445 
L 333.757355 123.861181 
L 334.265453 121.301336 
L 335.281649 117.23997 
L 335.586507 116.83652 
L 335.789747 116.861256 
L 336.094605 117.17416 
L 337.009182 118.63763 
L 338.736715 121.72615 
L 339.346432 122.068717 
L 339.75291 122.392273 
L 340.159389 123.030124 
L 341.073965 125.099064 
L 342.496639 128.23735 
L 343.207976 129.793795 
L 343.614455 131.326293 
L 344.73227 136.204277 
L 345.037129 136.620741 
L 345.341988 136.667267 
L 345.646846 136.369929 
L 346.967901 134.354836 
L 347.27276 134.315503 
L 347.577619 134.4669 
L 347.984097 134.927469 
L 348.898673 136.109584 
L 349.61001 136.848153 
L 350.118108 137.871592 
L 351.642402 141.237978 
L 355.503946 148.927364 
L 356.113664 150.852761 
L 357.02824 153.579644 
L 357.739577 155.610826 
L 358.247675 157.907091 
L 358.755773 161.567696 
L 360.584926 176.977481 
L 361.194643 179.628768 
L 361.90598 181.73079 
L 362.312459 182.41681 
L 362.617317 182.60512 
L 362.922176 182.494593 
L 363.125415 182.178023 
L 363.430274 181.077586 
L 363.735133 178.934433 
L 364.34485 172.210696 
L 364.954568 166.113961 
L 365.564285 162.163796 
L 366.072383 160.134832 
L 366.478862 159.401532 
L 366.783721 159.248736 
L 367.190199 159.315386 
L 367.901536 159.698134 
L 368.714493 160.377631 
L 369.222591 161.047874 
L 369.629069 162.049851 
L 370.035547 163.757507 
L 370.848504 167.565743 
L 371.254982 168.397868 
L 371.76308 168.821531 
L 372.474417 169.431605 
L 373.388994 170.334728 
L 373.592233 170.220901 
L 373.897092 169.6495 
L 374.506809 168.219977 
L 374.710048 168.124901 
L 374.913287 168.316433 
L 375.218146 169.03769 
L 376.132722 171.495271 
L 376.437581 171.704657 
L 376.84406 171.627057 
L 377.250538 171.56751 
L 377.657016 171.727759 
L 378.165114 171.960483 
L 378.469973 171.871359 
L 378.876451 171.416329 
L 379.486169 170.749412 
L 379.791028 170.713352 
L 380.197506 170.95186 
L 380.807223 171.625985 
L 381.925039 173.283948 
L 382.941235 174.643963 
L 383.754191 175.400358 
L 384.770387 176.292869 
L 385.888203 177.687579 
L 387.310877 179.451926 
L 389.03841 181.406595 
L 390.664323 183.496007 
L 391.37566 185.13989 
L 392.086998 186.586379 
L 393.204813 188.576753 
L 393.611291 189.749208 
L 394.729107 193.552772 
L 394.932346 193.555361 
L 395.338824 193.112519 
L 395.745303 192.749215 
L 396.253401 192.657047 
L 396.964738 192.786382 
L 397.676075 193.258137 
L 399.708467 194.610284 
L 400.927902 194.531319 
L 401.436 194.968157 
L 402.553815 196.366758 
L 403.366772 197.304759 
L 404.179728 197.832908 
L 405.399163 198.378884 
L 405.805642 198.32586 
L 406.618598 198.077971 
L 407.025077 198.244334 
L 407.634794 198.806294 
L 408.955849 200.156603 
L 409.565566 200.398106 
L 410.175284 200.392796 
L 411.08986 200.260152 
L 411.699578 200.478687 
L 412.410915 200.944647 
L 413.52873 201.940744 
L 414.036828 201.920972 
L 414.951405 201.814153 
L 415.561122 202.027671 
L 417.593514 202.901613 
L 418.711329 203.237935 
L 419.219427 203.172086 
L 419.727525 202.838325 
L 420.438862 202.383605 
L 420.94696 202.389864 
L 421.861536 202.465397 
L 422.674493 202.435519 
L 423.182591 202.731793 
L 423.995548 203.2408 
L 424.808504 203.360551 
L 426.434418 203.625985 
L 427.044135 204.117016 
L 428.26357 205.216178 
L 429.483005 206.110008 
L 430.70244 207.068953 
L 431.515397 207.427744 
L 431.718636 207.481423 
L 431.718636 207.481423 
" clip-path="url(#pf2cfd1a2e5)" style="fill: none; stroke-dasharray: 1.85,0.8; stroke-dashoffset: 0; stroke: #1f77b4; stroke-width: 0.5"/>
   </g>
   <g id="line2d_28">
    <path d="M 66.091364 237.362629 
L 66.599462 240.230822 
L 67.10756 241.95873 
L 67.514038 242.665075 
L 67.818897 242.873023 
L 68.123755 242.856927 
L 68.530234 242.567522 
L 69.139951 241.783689 
L 70.156147 240.465485 
L 70.664245 240.208233 
L 71.172343 240.250856 
L 71.78206 240.598575 
L 72.696637 241.472971 
L 74.017691 242.730685 
L 74.627409 243.020325 
L 75.440366 243.122757 
L 76.659801 243.255954 
L 77.269518 243.579221 
L 77.777616 244.099097 
L 78.285714 244.922435 
L 78.997051 246.620408 
L 80.927823 251.634109 
L 81.435921 252.299992 
L 81.74078 252.437849 
L 82.045639 252.339431 
L 82.350497 251.971995 
L 82.756976 251.033191 
L 83.265074 249.242234 
L 84.07803 245.363587 
L 86.516901 232.898332 
L 87.126618 231.07604 
L 87.736336 229.915491 
L 88.244434 229.35874 
L 88.752531 229.093666 
L 89.362249 229.053153 
L 90.276825 229.28546 
L 91.394641 229.533451 
L 92.410837 229.537528 
L 93.325413 229.325911 
L 94.239989 228.879738 
L 95.154565 228.177001 
L 96.678859 226.648838 
L 98.304773 225.099822 
L 99.219349 224.51277 
L 100.642023 223.92066 
L 101.963078 223.294198 
L 102.776034 222.672272 
L 103.995469 221.363532 
L 105.113285 220.27425 
L 105.723002 219.936856 
L 106.2311 219.880967 
L 106.637579 220.022455 
L 107.145677 220.45817 
L 108.66997 222.034072 
L 109.076449 222.072663 
L 109.381308 221.882237 
L 109.686166 221.4594 
L 110.092645 220.465048 
L 110.499123 218.891828 
L 111.007221 215.970906 
L 111.718558 210.217559 
L 112.937993 197.966933 
L 114.157428 186.269999 
L 114.868765 181.351035 
L 115.376863 179.191518 
L 115.783342 178.215744 
L 116.18982 177.794492 
L 116.494679 177.779277 
L 116.799537 177.972595 
L 117.307635 178.637853 
L 119.238407 181.718699 
L 119.746505 181.906138 
L 120.254603 181.82988 
L 120.96594 181.4487 
L 122.286995 180.658822 
L 122.795093 180.59229 
L 123.201571 180.726118 
L 123.709669 181.130239 
L 124.522626 182.136322 
L 126.148539 184.267803 
L 126.758257 184.678543 
L 127.164735 184.721803 
L 127.571214 184.557455 
L 128.079311 184.113488 
L 128.892268 183.03493 
L 130.721421 180.453453 
L 131.331138 180.021564 
L 131.839236 179.941021 
L 132.347334 180.081564 
L 132.957052 180.489441 
L 133.770008 181.333224 
L 135.294302 183.340845 
L 136.716976 185.040609 
L 137.631553 185.796521 
L 138.34289 186.108413 
L 138.952607 186.135595 
L 139.562325 185.905209 
L 140.273662 185.349888 
L 141.797956 183.741545 
L 142.712532 182.959591 
L 143.322249 182.698792 
L 143.830347 182.702668 
L 144.440065 182.95019 
L 145.151402 183.507537 
L 146.167598 184.647232 
L 148.911327 187.969292 
L 149.622664 188.47408 
L 150.232381 188.668434 
L 150.740479 188.623872 
L 151.248577 188.36047 
L 151.756675 187.853388 
L 152.569632 186.679186 
L 153.789067 184.920133 
L 154.297165 184.486773 
L 154.703643 184.373262 
L 155.110122 184.525509 
L 155.5166 184.997507 
L 156.024698 186.087388 
L 156.634415 188.032808 
L 157.447372 191.440042 
L 158.971666 199.071227 
L 160.39434 205.80345 
L 161.410536 209.601002 
L 162.223493 211.840038 
L 162.83321 212.97249 
L 163.341308 213.516311 
L 163.747786 213.667996 
L 164.154265 213.571159 
L 164.662363 213.169194 
L 165.3737 212.25252 
L 167.202852 209.711549 
L 167.71095 209.396314 
L 168.117429 209.375784 
L 168.625527 209.601508 
L 169.235244 210.137407 
L 171.572495 212.495339 
L 172.080593 212.577719 
L 172.58869 212.4176 
L 173.300028 211.902489 
L 175.738898 209.779082 
L 176.246996 209.691853 
L 176.856713 209.83216 
L 177.56805 210.256212 
L 178.584246 211.163578 
L 180.515018 212.941982 
L 182.039312 213.934309 
L 183.766845 215.097064 
L 184.88466 216.133639 
L 186.510574 217.99429 
L 189.457542 221.418886 
L 190.778596 222.601876 
L 191.794792 223.250914 
L 192.709369 223.597984 
L 193.928804 223.807952 
L 195.859576 224.12106 
L 196.875772 224.551483 
L 198.196826 225.393983 
L 200.737316 227.057426 
L 201.956751 227.541149 
L 203.074566 227.756836 
L 204.192382 227.748825 
L 205.818295 227.446476 
L 206.834491 227.366472 
L 207.545828 227.498206 
L 208.257165 227.867118 
L 208.968502 228.517469 
L 210.899275 230.439467 
L 211.407373 230.618101 
L 211.813851 230.563895 
L 212.220329 230.293634 
L 212.626808 229.770939 
L 213.236525 228.536426 
L 214.049482 226.292302 
L 216.589971 218.807404 
L 217.301309 217.568533 
L 218.114265 216.600668 
L 220.045037 214.529503 
L 220.756375 213.2494 
L 221.569331 211.207898 
L 222.687147 207.70634 
L 225.634115 198.158916 
L 226.85355 195.152163 
L 227.971365 192.965099 
L 228.987561 191.440183 
L 230.511855 189.281362 
L 231.223192 187.754607 
L 231.832909 185.918363 
L 232.442627 183.429384 
L 233.153964 179.510408 
L 234.17016 172.335749 
L 236.71065 153.581229 
L 237.523606 149.505304 
L 238.234943 146.968473 
L 238.946281 145.191923 
L 239.657618 143.984095 
L 240.470574 143.05438 
L 241.791629 141.9407 
L 242.807825 141.329119 
L 243.620781 141.091274 
L 244.332119 141.126066 
L 244.941836 141.373509 
L 245.653173 141.936599 
L 246.56775 142.994668 
L 248.396902 145.590987 
L 249.616337 147.124428 
L 250.327674 147.727408 
L 250.937392 147.969577 
L 251.44549 147.924529 
L 251.953588 147.612095 
L 252.461686 146.991988 
L 252.969783 146.023923 
L 253.579501 144.367901 
L 254.494077 141.122415 
L 257.034567 131.630158 
L 257.745904 129.9589 
L 258.558861 128.630587 
L 260.388013 125.907566 
L 260.997731 124.484033 
L 261.709068 122.168678 
L 262.928503 117.146819 
L 264.147938 112.407254 
L 264.757656 110.729795 
L 265.265753 109.91346 
L 265.570612 109.727745 
L 265.875471 109.742942 
L 266.281949 110.003936 
L 266.891667 110.711266 
L 267.907863 111.911809 
L 268.314341 112.112407 
L 268.6192 112.066453 
L 268.924059 111.805997 
L 269.330537 111.053253 
L 269.838635 109.391904 
L 270.549972 106.075937 
L 272.582364 95.842945 
L 273.090462 94.406731 
L 273.39532 93.978443 
L 273.700179 93.923647 
L 274.005038 94.203901 
L 274.411516 95.004971 
L 275.021234 96.861155 
L 276.952006 103.306928 
L 277.358484 103.880218 
L 277.663343 103.951698 
L 277.968202 103.712131 
L 278.37468 102.968937 
L 278.882778 101.474748 
L 279.594115 98.616227 
L 282.236224 87.09349 
L 282.947562 85.267624 
L 283.557279 84.280605 
L 284.065377 83.87122 
L 284.471855 83.817158 
L 284.878334 84.008496 
L 285.284812 84.447389 
L 285.79291 85.345828 
L 286.707486 87.614526 
L 287.622063 89.769592 
L 288.13016 90.500346 
L 288.435019 90.673077 
L 288.739878 90.595184 
L 289.044737 90.224667 
L 289.451215 89.202859 
L 289.857693 87.490632 
L 290.467411 83.730262 
L 291.483607 75.583792 
L 292.906281 64.376739 
L 293.515999 61.124537 
L 293.922477 59.863723 
L 294.227336 59.43023 
L 294.532194 59.383051 
L 294.837053 59.672308 
L 295.243532 60.495127 
L 295.853249 62.425943 
L 298.1905 70.824013 
L 298.800217 71.842338 
L 299.511554 72.562161 
L 300.730989 73.674733 
L 301.239087 74.469448 
L 301.747185 75.661916 
L 302.356903 77.769813 
L 303.169859 81.513218 
L 306.116827 96.023903 
L 306.828164 98.063866 
L 307.742741 99.991992 
L 309.063795 102.742173 
L 309.775132 104.864266 
L 310.48647 107.817846 
L 311.807524 114.654609 
L 312.92534 119.978325 
L 313.535057 122.016754 
L 313.941535 122.847682 
L 314.246394 123.134823 
L 314.551253 123.135792 
L 314.856112 122.880828 
L 315.26259 122.195023 
L 315.872308 120.570799 
L 316.786884 117.273343 
L 318.514417 110.853207 
L 319.327374 108.683984 
L 320.14033 107.111956 
L 320.851667 106.178319 
L 321.563004 105.614261 
L 322.172722 105.393932 
L 322.782439 105.406885 
L 323.290537 105.642077 
L 323.798635 106.132274 
L 324.306733 106.925295 
L 324.916451 108.343975 
L 325.526168 110.350209 
L 326.237505 113.543655 
L 327.050462 118.336213 
L 329.895811 136.139755 
L 330.505528 138.290799 
L 331.013626 139.273224 
L 331.420104 139.579822 
L 331.724963 139.559002 
L 332.131441 139.232144 
L 332.639539 138.404696 
L 333.249257 136.910742 
L 334.163833 133.954094 
L 337.009182 124.152458 
L 337.720519 122.675752 
L 338.228617 122.105387 
L 338.635095 121.997526 
L 339.041573 122.201679 
L 339.448052 122.678067 
L 340.057769 123.81332 
L 340.870726 125.896804 
L 344.020933 134.653714 
L 345.037129 136.596372 
L 345.951705 137.888293 
L 346.764662 138.660213 
L 347.577619 139.115101 
L 348.797054 139.498197 
L 350.016489 139.954397 
L 350.727826 140.447622 
L 351.439163 141.203168 
L 352.25212 142.395769 
L 353.166696 144.150683 
L 354.182892 146.60483 
L 355.300707 149.910798 
L 356.418523 153.948266 
L 357.536338 158.906078 
L 358.654154 164.97617 
L 361.397882 180.934029 
L 361.90598 182.49435 
L 362.312459 183.100622 
L 362.515698 183.15634 
L 362.718937 183.030909 
L 363.023796 182.480341 
L 363.430274 181.123571 
L 364.039992 178.053175 
L 365.056188 171.402157 
L 366.275623 163.72461 
L 366.88534 161.169539 
L 367.291818 160.242302 
L 367.596677 159.936948 
L 367.901536 159.924815 
L 368.206395 160.168889 
L 368.612873 160.828889 
L 369.222591 162.3576 
L 370.645265 166.903152 
L 371.458221 169.022979 
L 372.169559 170.290478 
L 372.880896 171.109198 
L 373.592233 171.579219 
L 374.405189 171.81779 
L 375.624625 171.886063 
L 378.571593 171.97945 
L 379.689408 172.285903 
L 380.807223 172.836599 
L 382.026658 173.70212 
L 383.347713 174.931788 
L 385.075246 176.886566 
L 387.818975 179.989838 
L 389.546508 181.912772 
L 390.461084 183.263289 
L 391.37566 185.039775 
L 392.493476 187.816976 
L 394.424248 192.63274 
L 395.237205 194.028591 
L 395.846922 194.632254 
L 396.45664 194.892753 
L 397.066357 194.906609 
L 397.980934 194.676079 
L 399.098749 194.410775 
L 399.708467 194.468531 
L 400.419804 194.777117 
L 401.33438 195.443587 
L 404.382968 197.909083 
L 405.805642 198.555399 
L 408.447751 199.697391 
L 411.699578 201.319353 
L 413.122252 201.686722 
L 416.272459 202.406198 
L 418.60971 203.125667 
L 419.524286 203.164199 
L 420.337243 202.986681 
L 422.369634 202.419369 
L 422.979352 202.496153 
L 423.589069 202.809292 
L 424.198787 203.419352 
L 425.011744 204.609368 
L 427.247375 208.096592 
L 427.857092 208.590388 
L 428.36519 208.716555 
L 428.873288 208.611723 
L 429.483005 208.249975 
L 430.397582 207.401067 
L 431.718636 206.048999 
L 431.718636 206.048999 
" clip-path="url(#pf2cfd1a2e5)" style="fill: none; stroke: #ff7f0e; stroke-width: 0.5; stroke-linecap: square"/>
   </g>
   <g id="line2d_29">
    <path d="M 66.091364 290.872268 
L 66.192983 290.872268 
L 66.294603 290.994545 
L 66.497842 289.147701 
L 66.802701 288.473656 
L 67.209179 287.446345 
L 67.514038 287.094152 
L 67.818897 287.023256 
L 68.123755 287.183299 
L 68.631853 287.747842 
L 70.156147 290.24389 
L 70.765865 290.574115 
L 71.680441 290.775435 
L 72.188539 290.739599 
L 74.017691 289.671647 
L 74.32255 289.615016 
L 74.729029 289.922752 
L 75.440366 290.436668 
L 76.253322 290.709242 
L 77.472757 290.835824 
L 77.777616 290.817571 
L 78.082475 290.416453 
L 78.692192 289.18924 
L 81.232682 283.306588 
L 81.8424 282.671164 
L 81.944019 282.613545 
L 82.147258 282.332918 
L 82.350497 283.053843 
L 83.366693 288.13308 
L 83.874791 289.387823 
L 83.976411 289.560834 
L 84.07803 289.449493 
L 84.687748 286.628075 
L 84.890987 286.288761 
L 85.094226 286.310347 
L 85.297466 286.518536 
L 85.703944 287.681634 
L 86.313661 289.240896 
L 86.821759 289.984729 
L 87.024998 290.039908 
L 87.634716 289.35723 
L 87.837955 289.215039 
L 88.142814 289.443846 
L 89.05739 290.328757 
L 89.768727 290.642249 
L 90.784923 290.806188 
L 93.020554 290.868034 
L 93.528652 290.841431 
L 93.833511 290.371696 
L 94.646467 289.113793 
L 95.052946 288.860016 
L 95.459424 288.869673 
L 95.764283 288.968636 
L 97.288577 290.489394 
L 98.101533 290.730719 
L 98.508012 290.748723 
L 99.320968 290.176912 
L 99.727447 290.310293 
L 100.743643 290.688302 
L 101.963078 290.830762 
L 102.166317 290.822104 
L 102.369556 290.447393 
L 103.487372 287.735789 
L 103.690611 287.649106 
L 103.89385 287.855054 
L 105.113285 290.023729 
L 105.723002 290.467847 
L 105.926242 290.52876 
L 106.129481 290.290824 
L 107.247296 288.674562 
L 107.552155 289.027895 
L 108.365112 290.093254 
L 108.974829 290.498171 
L 109.787786 290.734158 
L 110.092645 290.67287 
L 110.397503 289.742667 
L 110.803982 287.693887 
L 111.21046 284.548699 
L 111.718558 278.443209 
L 112.429895 269.260432 
L 112.633134 268.121377 
L 112.734754 267.952866 
L 112.836373 268.0567 
L 113.039613 269.02484 
L 113.446091 273.11406 
L 114.259048 281.780555 
L 115.072004 286.914165 
L 115.580102 288.714121 
L 116.0882 289.711248 
L 116.596298 290.250195 
L 116.799537 290.329689 
L 117.002777 289.783226 
L 117.409255 288.007403 
L 118.323831 283.610113 
L 118.62869 283.043588 
L 119.644886 282.017139 
L 120.051364 281.425198 
L 120.254603 281.444592 
L 120.559462 281.945924 
L 120.96594 284.326152 
L 121.575658 287.524491 
L 122.083756 289.051056 
L 122.591854 289.89317 
L 122.896713 290.09832 
L 123.201571 289.407131 
L 124.116148 287.008503 
L 124.522626 286.56292 
L 124.929104 286.435046 
L 125.437202 286.554781 
L 126.04692 286.940279 
L 126.250159 287.235106 
L 127.367974 289.731076 
L 127.876072 290.255246 
L 128.48579 290.580024 
L 129.400366 290.777375 
L 129.501986 290.667925 
L 129.908464 289.103861 
L 130.619801 286.364716 
L 130.92466 285.891547 
L 131.127899 285.880316 
L 131.331138 286.271913 
L 132.347334 289.249532 
L 132.855432 289.992485 
L 133.46515 290.455181 
L 134.176487 290.698369 
L 135.395922 290.833443 
L 137.733172 290.869506 
L 137.834792 290.726042 
L 138.749368 287.750011 
L 139.257466 286.816151 
L 139.663944 286.487058 
L 139.867184 286.529601 
L 140.172042 286.857056 
L 140.476901 287.415661 
L 141.289858 289.377647 
L 141.797956 290.058035 
L 142.407673 290.485659 
L 143.22063 290.729959 
L 144.541685 290.844217 
L 144.744924 290.825964 
L 144.948163 290.563354 
L 145.354641 289.581546 
L 145.964359 288.006943 
L 146.269217 287.808077 
L 146.472457 287.933975 
L 146.980555 288.663581 
L 147.793511 289.920978 
L 148.403229 290.414412 
L 149.114566 290.680651 
L 150.130762 290.798056 
L 150.435621 290.449142 
L 151.350197 289.50713 
L 151.553436 289.481452 
L 151.959914 289.816535 
L 152.468012 290.19557 
L 152.671251 289.962045 
L 152.97611 289.06366 
L 153.585828 286.916214 
L 153.890686 286.554665 
L 154.093926 286.934084 
L 155.110122 289.497954 
L 155.618219 290.127658 
L 156.227937 290.519321 
L 156.431176 290.517851 
L 157.040894 289.292014 
L 158.565187 285.78004 
L 158.768427 286.122126 
L 159.886242 289.368977 
L 160.39434 290.059157 
L 160.699199 290.243769 
L 161.613775 289.053776 
L 162.223493 288.732416 
L 163.036449 287.788981 
L 163.442928 287.848109 
L 163.747786 288.393491 
L 164.459124 289.708889 
L 164.967221 290.238518 
L 165.475319 290.531146 
L 165.576939 290.3097 
L 166.491515 285.028106 
L 166.694754 284.875856 
L 166.897994 285.198491 
L 167.304472 286.606613 
L 167.914189 288.651185 
L 168.422287 289.659566 
L 168.930385 290.219588 
L 169.540103 290.563602 
L 170.454679 290.772117 
L 172.080593 290.85872 
L 172.893549 290.789124 
L 173.300028 289.716639 
L 173.909745 287.981595 
L 174.214604 287.667889 
L 174.417843 287.702832 
L 174.824321 288.153158 
L 175.942137 290.022575 
L 176.551854 290.466567 
L 177.263191 290.70282 
L 178.482626 290.834463 
L 179.295583 290.76827 
L 180.413399 290.774053 
L 183.055508 290.867666 
L 185.392758 290.798908 
L 186.002476 290.702218 
L 188.746205 290.86462 
L 191.998031 290.80297 
L 192.810988 290.637897 
L 194.538521 290.83827 
L 198.095207 290.867201 
L 203.379425 290.844007 
L 203.684284 290.410444 
L 204.294001 289.494892 
L 204.497241 289.372888 
L 204.802099 289.575189 
L 205.716676 290.377677 
L 206.428013 290.662922 
L 207.545828 290.819226 
L 208.765263 290.808781 
L 209.273361 290.033222 
L 210.391177 287.988423 
L 210.797655 287.782053 
L 211.204133 287.826786 
L 211.712231 288.060471 
L 212.11871 288.785893 
L 212.728427 289.800669 
L 213.338145 290.356594 
L 214.049482 290.656458 
L 214.354341 290.652409 
L 215.167297 289.273697 
L 216.89483 288.267426 
L 217.098069 288.441263 
L 218.317504 290.190676 
L 218.927222 290.547469 
L 219.740179 290.752607 
L 220.146657 290.776678 
L 220.349896 290.208873 
L 220.654755 288.550964 
L 221.670951 281.998729 
L 221.77257 281.911852 
L 221.97581 282.071376 
L 222.179049 282.762314 
L 223.195245 288.011846 
L 223.703343 289.321523 
L 224.109821 289.928843 
L 224.21144 289.947171 
L 224.41468 288.994816 
L 224.821158 285.364634 
L 225.329256 280.667076 
L 225.634115 279.567859 
L 225.735734 279.54979 
L 225.938973 279.920892 
L 227.564887 285.509033 
L 228.174604 288.110656 
L 228.682702 289.367874 
L 229.089181 289.920552 
L 229.1908 289.64671 
L 229.597279 285.925156 
L 230.410235 277.237742 
L 230.613474 276.487034 
L 230.816714 276.404975 
L 231.019953 276.791639 
L 231.832909 278.817156 
L 232.137768 278.975417 
L 232.341007 279.03666 
L 232.544247 279.166588 
L 232.645866 279.22886 
L 232.849105 280.238868 
L 233.865301 287.156725 
L 234.373399 288.859016 
L 234.475019 288.905602 
L 234.678258 287.213587 
L 235.084736 280.631852 
L 235.694454 270.944063 
L 235.897693 269.89975 
L 235.999312 269.857716 
L 236.202552 270.559109 
L 236.60903 273.677228 
L 237.320367 279.10402 
L 237.828465 281.472749 
L 238.539802 283.926749 
L 239.251139 287.568302 
L 239.759237 289.068996 
L 240.267335 289.90186 
L 240.470574 290.058784 
L 240.673813 289.626102 
L 241.385151 287.33121 
L 242.401346 283.722691 
L 242.604586 283.716034 
L 242.807825 284.051861 
L 243.315923 285.664494 
L 244.128879 288.077155 
L 244.738597 289.437363 
L 245.246695 290.091057 
L 245.856412 290.501414 
L 246.669369 290.735787 
L 247.380706 290.778627 
L 247.583945 290.159787 
L 247.888804 288.429104 
L 249.00662 280.824712 
L 249.209859 280.672295 
L 249.413098 280.936435 
L 249.819576 282.197235 
L 251.44549 287.910716 
L 251.953588 289.227708 
L 252.461686 289.982737 
L 252.969783 290.394857 
L 253.071403 290.390861 
L 253.274642 289.518416 
L 253.579501 287.028876 
L 254.087599 280.355668 
L 254.595697 274.04459 
L 254.798936 272.946839 
L 254.900556 272.815557 
L 255.002175 272.975169 
L 255.205414 273.955439 
L 255.510273 277.060422 
L 256.22161 284.404756 
L 256.729708 287.316832 
L 256.831328 287.497488 
L 257.034567 287.177396 
L 257.339426 285.704513 
L 257.949143 282.267923 
L 258.050763 282.341948 
L 258.355622 283.783399 
L 259.066959 287.518682 
L 259.575057 289.043341 
L 259.778296 289.321232 
L 259.981535 287.800478 
L 260.286394 283.068695 
L 261.30259 262.389645 
L 261.404209 262.058611 
L 261.505829 262.218726 
L 261.709068 263.804655 
L 262.623644 274.551745 
L 262.826883 274.95405 
L 263.030123 274.662294 
L 263.63984 273.026106 
L 263.74146 273.009071 
L 263.944699 273.329422 
L 264.249558 274.606717 
L 264.859275 278.726673 
L 266.18033 287.796068 
L 266.688428 289.214546 
L 267.196526 289.983617 
L 267.704624 290.396611 
L 267.806243 290.233189 
L 268.111102 288.018648 
L 269.127298 278.028191 
L 269.228917 277.996966 
L 269.432157 278.538563 
L 269.940254 280.6015 
L 270.041874 280.627847 
L 270.245113 279.997284 
L 270.549972 277.604369 
L 271.05807 273.757414 
L 271.159689 273.593322 
L 271.261309 273.707998 
L 271.464548 274.725305 
L 271.871027 278.762652 
L 272.379125 283.398529 
L 272.683983 284.706817 
L 272.887222 285.007385 
L 272.988842 285.113023 
L 273.293701 286.150476 
L 274.005038 288.655854 
L 274.513136 289.664858 
L 275.021234 290.222876 
L 275.326093 290.333951 
L 275.630951 290.270033 
L 276.647147 290.636293 
L 276.952006 290.690563 
L 277.155245 290.300439 
L 277.968202 288.027976 
L 278.171441 288.277469 
L 279.187637 289.966572 
L 279.289256 290.069922 
L 279.390876 289.997491 
L 279.594115 289.056426 
L 280.000594 285.642385 
L 280.508691 281.455292 
L 280.81355 280.461596 
L 281.016789 280.47803 
L 281.220029 280.90099 
L 281.728126 282.956514 
L 282.541083 287.463963 
L 283.049181 289.016333 
L 283.557279 289.874216 
L 283.963757 290.217531 
L 285.386432 290.677536 
L 285.589671 290.262412 
L 285.89453 289.139504 
L 287.215584 283.280497 
L 287.622063 282.698766 
L 287.926921 282.564769 
L 288.23178 282.671927 
L 288.435019 282.890283 
L 288.841498 283.643829 
L 289.959313 288.582619 
L 290.467411 289.633778 
L 290.569031 289.551629 
L 290.77227 287.288675 
L 291.077128 280.760659 
L 291.890085 260.345489 
L 292.093324 259.214863 
L 292.194944 259.479924 
L 292.398183 261.415141 
L 292.804661 268.570335 
L 293.414379 279.282455 
L 293.922477 284.54712 
L 294.328955 286.988182 
L 294.837053 288.357757 
L 295.446771 289.592881 
L 295.954869 290.17698 
L 296.564586 290.542391 
L 297.377543 290.75087 
L 298.596978 290.845124 
L 298.800217 290.656341 
L 299.816413 288.56136 
L 300.019652 288.590186 
L 300.52775 288.874845 
L 300.730989 288.649553 
L 300.934228 288.040393 
L 301.340707 285.747367 
L 301.950424 282.344543 
L 302.052044 282.218489 
L 302.255283 282.891785 
L 303.271479 288.055367 
L 303.779577 289.345046 
L 304.084436 289.721178 
L 304.389294 289.15367 
L 305.202251 287.455275 
L 305.50711 287.173837 
L 305.811969 287.204471 
L 306.116827 287.51937 
L 307.742741 289.70895 
L 308.454078 290.347531 
L 309.165415 290.65054 
L 310.181611 290.808613 
L 310.48647 290.771934 
L 310.892948 290.08275 
L 311.502665 288.481847 
L 312.620481 285.483437 
L 313.230198 284.460021 
L 313.535057 284.26662 
L 313.941535 284.477956 
L 314.551253 287.119384 
L 315.059351 288.777745 
L 315.567449 289.737686 
L 315.973927 290.132306 
L 316.177166 289.797482 
L 316.380406 289.427661 
L 316.583645 289.429158 
L 317.091743 289.904767 
L 317.80308 290.44015 
L 318.107939 290.555263 
L 318.311178 290.235116 
L 318.920895 288.480302 
L 320.24195 284.426369 
L 320.445189 284.547254 
L 320.851667 285.322406 
L 322.884059 289.769118 
L 323.392157 290.276208 
L 324.001875 290.590015 
L 324.713212 290.754236 
L 324.916451 290.477411 
L 325.526168 288.981761 
L 326.237505 286.551276 
L 327.355321 282.585099 
L 327.66018 282.28485 
L 327.863419 282.397591 
L 328.269897 283.091195 
L 328.879615 284.158528 
L 329.082854 284.398192 
L 329.489332 286.080323 
L 330.09905 288.41327 
L 330.607148 289.510712 
L 331.318485 290.213753 
L 332.029822 290.590197 
L 332.334681 290.67783 
L 332.4363 290.506805 
L 332.741159 287.830411 
L 333.452496 280.926025 
L 333.757355 279.451864 
L 334.062214 278.831173 
L 334.671931 278.354615 
L 335.078409 278.190399 
L 335.281649 278.360353 
L 335.586507 279.080315 
L 336.094605 281.208971 
L 337.618899 288.154276 
L 338.126997 289.394547 
L 338.635095 290.07798 
L 339.244813 290.496468 
L 339.448052 290.393198 
L 339.95615 290.018517 
L 341.988541 288.902049 
L 343.106357 287.969484 
L 343.614455 288.950222 
L 344.224172 289.906607 
L 344.83389 290.409839 
L 345.240368 290.591107 
L 345.341988 290.532657 
L 345.748466 289.503956 
L 346.663042 286.945459 
L 347.069521 286.399288 
L 347.374379 286.261279 
L 347.679238 286.341877 
L 348.085717 286.71731 
L 348.898673 287.523502 
L 349.61001 287.992361 
L 349.914869 288.478908 
L 350.626206 289.73991 
L 351.235924 290.326371 
L 351.947261 290.643709 
L 352.963457 290.806799 
L 353.979653 290.827108 
L 354.58937 290.329304 
L 355.808805 289.120911 
L 356.418523 288.859782 
L 356.825001 288.356451 
L 358.247675 286.135427 
L 358.349295 286.122459 
L 358.552534 286.54654 
L 359.56873 289.365167 
L 360.076828 290.055792 
L 360.686545 290.485298 
L 361.093024 290.569349 
L 361.601122 290.207594 
L 361.90598 290.177667 
L 363.531894 290.706936 
L 363.735133 290.150732 
L 364.141611 288.104784 
L 364.649709 285.622033 
L 364.954568 284.952082 
L 365.157807 284.839317 
L 365.462666 285.014534 
L 365.869144 285.6344 
L 367.088579 289.386213 
L 367.596677 290.070059 
L 368.206395 290.49249 
L 368.409634 290.554807 
L 368.714493 290.273043 
L 369.42583 289.446225 
L 369.730689 289.668642 
L 370.543645 290.362187 
L 371.254982 290.655724 
L 371.458221 290.52544 
L 371.966319 289.931904 
L 372.372798 289.700149 
L 372.779276 289.717731 
L 373.287374 289.840958 
L 373.490613 289.716124 
L 373.795472 289.164657 
L 374.608429 287.127482 
L 374.811668 287.396103 
L 375.929483 289.777672 
L 376.437581 290.280347 
L 377.047299 290.591882 
L 377.961875 290.781236 
L 378.571593 290.761221 
L 379.689408 289.355629 
L 380.095886 289.349298 
L 380.705604 289.666817 
L 381.62018 290.416473 
L 382.331517 290.679492 
L 383.449333 290.823426 
L 384.363909 290.776044 
L 385.075246 290.704666 
L 387.514116 290.861616 
L 391.985378 290.848765 
L 392.595096 290.277343 
L 392.899954 289.910407 
L 393.204813 289.978901 
L 394.424248 290.625934 
L 394.932346 290.739372 
L 395.033966 290.666351 
L 395.846922 289.015571 
L 396.253401 288.759412 
L 396.761499 288.731894 
L 397.167977 288.923817 
L 397.472836 289.219628 
L 398.285792 290.169069 
L 398.89551 290.534286 
L 399.708467 290.747463 
L 400.216565 290.768761 
L 400.826282 290.381413 
L 401.23276 290.338268 
L 403.163533 290.80663 
L 405.399163 290.867913 
L 405.704022 290.783231 
L 406.720218 290.118272 
L 407.329936 290.399028 
L 408.142892 290.686638 
L 409.362327 290.830467 
L 410.073664 290.769198 
L 411.08986 290.118918 
L 411.699578 290.107709 
L 413.020632 290.685627 
L 414.138448 290.824701 
L 414.951405 290.757903 
L 419.321047 290.869671 
L 419.727525 290.643665 
L 420.235623 290.403931 
L 423.284211 290.856685 
L 424.198787 290.820325 
L 425.011744 289.716715 
L 426.637657 287.38894 
L 427.145755 287.177555 
L 427.653853 287.21305 
L 428.36519 287.505109 
L 428.974908 288.020921 
L 429.991103 289.871417 
L 430.600821 290.393045 
L 431.312158 290.671977 
L 431.718636 290.750794 
L 431.718636 290.750794 
" clip-path="url(#pf2cfd1a2e5)" style="fill: none; stroke: #2ca02c; stroke-width: 0.5; stroke-linecap: square"/>
   </g>
   <g id="patch_3">
    <path d="M 47.81 303.64 
L 47.81 25.44 
" style="fill: none; stroke: #000000; stroke-width: 0.8; stroke-linejoin: miter; stroke-linecap: square"/>
   </g>
   <g id="patch_4">
    <path d="M 450 303.64 
L 450 25.44 
" style="fill: none; stroke: #000000; stroke-width: 0.8; stroke-linejoin: miter; stroke-linecap: square"/>
   </g>
   <g id="patch_5">
    <path d="M 47.81 303.64 
L 450 303.64 
" style="fill: none; stroke: #000000; stroke-width: 0.8; stroke-linejoin: miter; stroke-linecap: square"/>
   </g>
   <g id="patch_6">
    <path d="M 47.81 25.44 
L 450 25.44 
" style="fill: none; stroke: #000000; stroke-width: 0.8; stroke-linejoin: miter; stroke-linecap: square"/>
   </g>
   <g id="text_16">
    <!-- data_3_E4 Separated EDA plot -->
    <g transform="translate(157.349688 19.44) scale(0.12 -0.12)">
     <defs>
      <path id="DejaVuSans-5f" d="M 3263 -1063 
L 3263 -1509 
L -63 -1509 
L -63 -1063 
L 3263 -1063 
z
" transform="scale(0.015625)"/>
      <path id="DejaVuSans-33" d="M 2597 2516 
Q 3050 2419 3304 2112 
Q 3559 1806 3559 1356 
Q 3559 666 3084 287 
Q 2609 -91 1734 -91 
Q 1441 -91 1130 -33 
Q 819 25 488 141 
L 488 750 
Q 750 597 1062 519 
Q 1375 441 1716 441 
Q 2309 441 2620 675 
Q 2931 909 2931 1356 
Q 2931 1769 2642 2001 
Q 2353 2234 1838 2234 
L 1294 2234 
L 1294 2753 
L 1863 2753 
Q 2328 2753 2575 2939 
Q 2822 3125 2822 3475 
Q 2822 3834 2567 4026 
Q 2313 4219 1838 4219 
Q 1578 4219 1281 4162 
Q 984 4106 628 3988 
L 628 4550 
Q 988 4650 1302 4700 
Q 1616 4750 1894 4750 
Q 2613 4750 3031 4423 
Q 3450 4097 3450 3541 
Q 3450 3153 3228 2886 
Q 3006 2619 2597 2516 
z
" transform="scale(0.015625)"/>
      <path id="DejaVuSans-70" d="M 1159 525 
L 1159 -1331 
L 581 -1331 
L 581 3500 
L 1159 3500 
L 1159 2969 
Q 1341 3281 1617 3432 
Q 1894 3584 2278 3584 
Q 2916 3584 3314 3078 
Q 3713 2572 3713 1747 
Q 3713 922 3314 415 
Q 2916 -91 2278 -91 
Q 1894 -91 1617 61 
Q 1341 213 1159 525 
z
M 3116 1747 
Q 3116 2381 2855 2742 
Q 2594 3103 2138 3103 
Q 1681 3103 1420 2742 
Q 1159 2381 1159 1747 
Q 1159 1113 1420 752 
Q 1681 391 2138 391 
Q 2594 391 2855 752 
Q 3116 1113 3116 1747 
z
" transform="scale(0.015625)"/>
      <path id="DejaVuSans-6f" d="M 1959 3097 
Q 1497 3097 1228 2736 
Q 959 2375 959 1747 
Q 959 1119 1226 758 
Q 1494 397 1959 397 
Q 2419 397 2687 759 
Q 2956 1122 2956 1747 
Q 2956 2369 2687 2733 
Q 2419 3097 1959 3097 
z
M 1959 3584 
Q 2709 3584 3137 3096 
Q 3566 2609 3566 1747 
Q 3566 888 3137 398 
Q 2709 -91 1959 -91 
Q 1206 -91 779 398 
Q 353 888 353 1747 
Q 353 2609 779 3096 
Q 1206 3584 1959 3584 
z
" transform="scale(0.015625)"/>
     </defs>
     <use xlink:href="#DejaVuSans-64"/>
     <use xlink:href="#DejaVuSans-61" transform="translate(63.476562 0)"/>
     <use xlink:href="#DejaVuSans-74" transform="translate(124.755859 0)"/>
     <use xlink:href="#DejaVuSans-61" transform="translate(163.964844 0)"/>
     <use xlink:href="#DejaVuSans-5f" transform="translate(225.244141 0)"/>
     <use xlink:href="#DejaVuSans-33" transform="translate(275.244141 0)"/>
     <use xlink:href="#DejaVuSans-5f" transform="translate(338.867188 0)"/>
     <use xlink:href="#DejaVuSans-45" transform="translate(388.867188 0)"/>
     <use xlink:href="#DejaVuSans-34" transform="translate(452.050781 0)"/>
     <use xlink:href="#DejaVuSans-20" transform="translate(515.673828 0)"/>
     <use xlink:href="#DejaVuSans-53" transform="translate(547.460938 0)"/>
     <use xlink:href="#DejaVuSans-65" transform="translate(610.9375 0)"/>
     <use xlink:href="#DejaVuSans-70" transform="translate(672.460938 0)"/>
     <use xlink:href="#DejaVuSans-61" transform="translate(735.9375 0)"/>
     <use xlink:href="#DejaVuSans-72" transform="translate(797.216797 0)"/>
     <use xlink:href="#DejaVuSans-61" transform="translate(838.330078 0)"/>
     <use xlink:href="#DejaVuSans-74" transform="translate(899.609375 0)"/>
     <use xlink:href="#DejaVuSans-65" transform="translate(938.818359 0)"/>
     <use xlink:href="#DejaVuSans-64" transform="translate(1000.341797 0)"/>
     <use xlink:href="#DejaVuSans-20" transform="translate(1063.818359 0)"/>
     <use xlink:href="#DejaVuSans-45" transform="translate(1095.605469 0)"/>
     <use xlink:href="#DejaVuSans-44" transform="translate(1158.789062 0)"/>
     <use xlink:href="#DejaVuSans-41" transform="translate(1234.041016 0)"/>
     <use xlink:href="#DejaVuSans-20" transform="translate(1302.449219 0)"/>
     <use xlink:href="#DejaVuSans-70" transform="translate(1334.236328 0)"/>
     <use xlink:href="#DejaVuSans-6c" transform="translate(1397.712891 0)"/>
     <use xlink:href="#DejaVuSans-6f" transform="translate(1425.496094 0)"/>
     <use xlink:href="#DejaVuSans-74" transform="translate(1486.677734 0)"/>
    </g>
   </g>
   <g id="legend_1">
    <g id="patch_7">
     <path d="M 350.09375 77.474375 
L 443 77.474375 
Q 445 77.474375 445 75.474375 
L 445 32.44 
Q 445 30.44 443 30.44 
L 350.09375 30.44 
Q 348.09375 30.44 348.09375 32.44 
L 348.09375 75.474375 
Q 348.09375 77.474375 350.09375 77.474375 
z
" style="fill: #ffffff; opacity: 0.8; stroke: #cccccc; stroke-linejoin: miter"/>
    </g>
    <g id="line2d_30">
     <path d="M 352.09375 38.538437 
L 362.09375 38.538437 
L 372.09375 38.538437 
" style="fill: none; stroke-dasharray: 1.85,0.8; stroke-dashoffset: 0; stroke: #1f77b4; stroke-width: 0.5"/>
    </g>
    <g id="text_17">
     <!-- Filtered EDA -->
     <g transform="translate(380.09375 42.038437) scale(0.1 -0.1)">
      <defs>
       <path id="DejaVuSans-46" d="M 628 4666 
L 3309 4666 
L 3309 4134 
L 1259 4134 
L 1259 2759 
L 3109 2759 
L 3109 2228 
L 1259 2228 
L 1259 0 
L 628 0 
L 628 4666 
z
" transform="scale(0.015625)"/>
      </defs>
      <use xlink:href="#DejaVuSans-46"/>
      <use xlink:href="#DejaVuSans-69" transform="translate(50.269531 0)"/>
      <use xlink:href="#DejaVuSans-6c" transform="translate(78.052734 0)"/>
      <use xlink:href="#DejaVuSans-74" transform="translate(105.835938 0)"/>
      <use xlink:href="#DejaVuSans-65" transform="translate(145.044922 0)"/>
      <use xlink:href="#DejaVuSans-72" transform="translate(206.568359 0)"/>
      <use xlink:href="#DejaVuSans-65" transform="translate(245.431641 0)"/>
      <use xlink:href="#DejaVuSans-64" transform="translate(306.955078 0)"/>
      <use xlink:href="#DejaVuSans-20" transform="translate(370.431641 0)"/>
      <use xlink:href="#DejaVuSans-45" transform="translate(402.21875 0)"/>
      <use xlink:href="#DejaVuSans-44" transform="translate(465.402344 0)"/>
      <use xlink:href="#DejaVuSans-41" transform="translate(540.654297 0)"/>
     </g>
    </g>
    <g id="line2d_31">
     <path d="M 352.09375 53.216562 
L 362.09375 53.216562 
L 372.09375 53.216562 
" style="fill: none; stroke: #ff7f0e; stroke-width: 0.5; stroke-linecap: square"/>
    </g>
    <g id="text_18">
     <!-- Tonic -->
     <g transform="translate(380.09375 56.716562) scale(0.1 -0.1)">
      <defs>
       <path id="DejaVuSans-63" d="M 3122 3366 
L 3122 2828 
Q 2878 2963 2633 3030 
Q 2388 3097 2138 3097 
Q 1578 3097 1268 2742 
Q 959 2388 959 1747 
Q 959 1106 1268 751 
Q 1578 397 2138 397 
Q 2388 397 2633 464 
Q 2878 531 3122 666 
L 3122 134 
Q 2881 22 2623 -34 
Q 2366 -91 2075 -91 
Q 1284 -91 818 406 
Q 353 903 353 1747 
Q 353 2603 823 3093 
Q 1294 3584 2113 3584 
Q 2378 3584 2631 3529 
Q 2884 3475 3122 3366 
z
" transform="scale(0.015625)"/>
      </defs>
      <use xlink:href="#DejaVuSans-54"/>
      <use xlink:href="#DejaVuSans-6f" transform="translate(44.083984 0)"/>
      <use xlink:href="#DejaVuSans-6e" transform="translate(105.265625 0)"/>
      <use xlink:href="#DejaVuSans-69" transform="translate(168.644531 0)"/>
      <use xlink:href="#DejaVuSans-63" transform="translate(196.427734 0)"/>
     </g>
    </g>
    <g id="line2d_32">
     <path d="M 352.09375 67.894687 
L 362.09375 67.894687 
L 372.09375 67.894687 
" style="fill: none; stroke: #2ca02c; stroke-width: 0.5; stroke-linecap: square"/>
    </g>
    <g id="text_19">
     <!-- Phasic -->
     <g transform="translate(380.09375 71.394687) scale(0.1 -0.1)">
      <defs>
       <path id="DejaVuSans-50" d="M 1259 4147 
L 1259 2394 
L 2053 2394 
Q 2494 2394 2734 2622 
Q 2975 2850 2975 3272 
Q 2975 3691 2734 3919 
Q 2494 4147 2053 4147 
L 1259 4147 
z
M 628 4666 
L 2053 4666 
Q 2838 4666 3239 4311 
Q 3641 3956 3641 3272 
Q 3641 2581 3239 2228 
Q 2838 1875 2053 1875 
L 1259 1875 
L 1259 0 
L 628 0 
L 628 4666 
z
" transform="scale(0.015625)"/>
       <path id="DejaVuSans-68" d="M 3513 2113 
L 3513 0 
L 2938 0 
L 2938 2094 
Q 2938 2591 2744 2837 
Q 2550 3084 2163 3084 
Q 1697 3084 1428 2787 
Q 1159 2491 1159 1978 
L 1159 0 
L 581 0 
L 581 4863 
L 1159 4863 
L 1159 2956 
Q 1366 3272 1645 3428 
Q 1925 3584 2291 3584 
Q 2894 3584 3203 3211 
Q 3513 2838 3513 2113 
z
" transform="scale(0.015625)"/>
      </defs>
      <use xlink:href="#DejaVuSans-50"/>
      <use xlink:href="#DejaVuSans-68" transform="translate(60.302734 0)"/>
      <use xlink:href="#DejaVuSans-61" transform="translate(123.681641 0)"/>
      <use xlink:href="#DejaVuSans-73" transform="translate(184.960938 0)"/>
      <use xlink:href="#DejaVuSans-69" transform="translate(237.060547 0)"/>
      <use xlink:href="#DejaVuSans-63" transform="translate(264.84375 0)"/>
     </g>
    </g>
   </g>
  </g>
 </g>
 <defs>
  <clipPath id="pf2cfd1a2e5">
   <rect x="47.81" y="25.44" width="402.19" height="278.2"/>
  </clipPath>
 </defs>
</svg>
