<?xml version="1.0" encoding="utf-8" standalone="no"?>
<!DOCTYPE svg PUBLIC "-//W3C//DTD SVG 1.1//EN"
  "http://www.w3.org/Graphics/SVG/1.1/DTD/svg11.dtd">
<svg xmlns:xlink="http://www.w3.org/1999/xlink" width="460.8pt" height="345.6pt" viewBox="0 0 460.8 345.6" xmlns="http://www.w3.org/2000/svg" version="1.1">
 <metadata>
  <rdf:RDF xmlns:dc="http://purl.org/dc/elements/1.1/" xmlns:cc="http://creativecommons.org/ns#" xmlns:rdf="http://www.w3.org/1999/02/22-rdf-syntax-ns#">
   <cc:Work>
    <dc:type rdf:resource="http://purl.org/dc/dcmitype/StillImage"/>
    <dc:date>2025-09-22T14:18:59.362267</dc:date>
    <dc:format>image/svg+xml</dc:format>
    <dc:creator>
     <cc:Agent>
      <dc:title>Matplotlib v3.10.0, https://matplotlib.org/</dc:title>
     </cc:Agent>
    </dc:creator>
   </cc:Work>
  </rdf:RDF>
 </metadata>
 <defs>
  <style type="text/css">*{stroke-linejoin: round; stroke-linecap: butt}</style>
 </defs>
 <g id="figure_1">
  <g id="patch_1">
   <path d="M 0 345.6 
L 460.8 345.6 
L 460.8 0 
L 0 0 
z
" style="fill: #ffffff"/>
  </g>
  <g id="axes_1">
   <g id="patch_2">
    <path d="M 47.81 303.64 
L 450 303.64 
L 450 25.44 
L 47.81 25.44 
z
" style="fill: #ffffff"/>
   </g>
   <g id="matplotlib.axis_1">
    <g id="xtick_1">
     <g id="line2d_1">
      <path d="M 66.091364 303.64 
L 66.091364 25.44 
" clip-path="url(#p09e7c1ce84)" style="fill: none; stroke: #b0b0b0; stroke-opacity: 0.3; stroke-width: 0.8; stroke-linecap: square"/>
     </g>
     <g id="line2d_2">
      <defs>
       <path id="mfcef1694f7" d="M 0 0 
L 0 3.5 
" style="stroke: #000000; stroke-width: 0.8"/>
      </defs>
      <g>
       <use xlink:href="#mfcef1694f7" x="66.091364" y="303.64" style="stroke: #000000; stroke-width: 0.8"/>
      </g>
     </g>
     <g id="text_1">
      <!-- 0 -->
      <g transform="translate(62.910114 318.238437) scale(0.1 -0.1)">
       <defs>
        <path id="DejaVuSans-30" d="M 2034 4250 
Q 1547 4250 1301 3770 
Q 1056 3291 1056 2328 
Q 1056 1369 1301 889 
Q 1547 409 2034 409 
Q 2525 409 2770 889 
Q 3016 1369 3016 2328 
Q 3016 3291 2770 3770 
Q 2525 4250 2034 4250 
z
M 2034 4750 
Q 2819 4750 3233 4129 
Q 3647 3509 3647 2328 
Q 3647 1150 3233 529 
Q 2819 -91 2034 -91 
Q 1250 -91 836 529 
Q 422 1150 422 2328 
Q 422 3509 836 4129 
Q 1250 4750 2034 4750 
z
" transform="scale(0.015625)"/>
       </defs>
       <use xlink:href="#DejaVuSans-30"/>
      </g>
     </g>
    </g>
    <g id="xtick_2">
     <g id="line2d_3">
      <path d="M 114.841667 303.64 
L 114.841667 25.44 
" clip-path="url(#p09e7c1ce84)" style="fill: none; stroke: #b0b0b0; stroke-opacity: 0.3; stroke-width: 0.8; stroke-linecap: square"/>
     </g>
     <g id="line2d_4">
      <g>
       <use xlink:href="#mfcef1694f7" x="114.841667" y="303.64" style="stroke: #000000; stroke-width: 0.8"/>
      </g>
     </g>
     <g id="text_2">
      <!-- 2 -->
      <g transform="translate(111.660417 318.238437) scale(0.1 -0.1)">
       <defs>
        <path id="DejaVuSans-32" d="M 1228 531 
L 3431 531 
L 3431 0 
L 469 0 
L 469 531 
Q 828 903 1448 1529 
Q 2069 2156 2228 2338 
Q 2531 2678 2651 2914 
Q 2772 3150 2772 3378 
Q 2772 3750 2511 3984 
Q 2250 4219 1831 4219 
Q 1534 4219 1204 4116 
Q 875 4013 500 3803 
L 500 4441 
Q 881 4594 1212 4672 
Q 1544 4750 1819 4750 
Q 2544 4750 2975 4387 
Q 3406 4025 3406 3419 
Q 3406 3131 3298 2873 
Q 3191 2616 2906 2266 
Q 2828 2175 2409 1742 
Q 1991 1309 1228 531 
z
" transform="scale(0.015625)"/>
       </defs>
       <use xlink:href="#DejaVuSans-32"/>
      </g>
     </g>
    </g>
    <g id="xtick_3">
     <g id="line2d_5">
      <path d="M 163.59197 303.64 
L 163.59197 25.44 
" clip-path="url(#p09e7c1ce84)" style="fill: none; stroke: #b0b0b0; stroke-opacity: 0.3; stroke-width: 0.8; stroke-linecap: square"/>
     </g>
     <g id="line2d_6">
      <g>
       <use xlink:href="#mfcef1694f7" x="163.59197" y="303.64" style="stroke: #000000; stroke-width: 0.8"/>
      </g>
     </g>
     <g id="text_3">
      <!-- 4 -->
      <g transform="translate(160.41072 318.238437) scale(0.1 -0.1)">
       <defs>
        <path id="DejaVuSans-34" d="M 2419 4116 
L 825 1625 
L 2419 1625 
L 2419 4116 
z
M 2253 4666 
L 3047 4666 
L 3047 1625 
L 3713 1625 
L 3713 1100 
L 3047 1100 
L 3047 0 
L 2419 0 
L 2419 1100 
L 313 1100 
L 313 1709 
L 2253 4666 
z
" transform="scale(0.015625)"/>
       </defs>
       <use xlink:href="#DejaVuSans-34"/>
      </g>
     </g>
    </g>
    <g id="xtick_4">
     <g id="line2d_7">
      <path d="M 212.342273 303.64 
L 212.342273 25.44 
" clip-path="url(#p09e7c1ce84)" style="fill: none; stroke: #b0b0b0; stroke-opacity: 0.3; stroke-width: 0.8; stroke-linecap: square"/>
     </g>
     <g id="line2d_8">
      <g>
       <use xlink:href="#mfcef1694f7" x="212.342273" y="303.64" style="stroke: #000000; stroke-width: 0.8"/>
      </g>
     </g>
     <g id="text_4">
      <!-- 6 -->
      <g transform="translate(209.161023 318.238437) scale(0.1 -0.1)">
       <defs>
        <path id="DejaVuSans-36" d="M 2113 2584 
Q 1688 2584 1439 2293 
Q 1191 2003 1191 1497 
Q 1191 994 1439 701 
Q 1688 409 2113 409 
Q 2538 409 2786 701 
Q 3034 994 3034 1497 
Q 3034 2003 2786 2293 
Q 2538 2584 2113 2584 
z
M 3366 4563 
L 3366 3988 
Q 3128 4100 2886 4159 
Q 2644 4219 2406 4219 
Q 1781 4219 1451 3797 
Q 1122 3375 1075 2522 
Q 1259 2794 1537 2939 
Q 1816 3084 2150 3084 
Q 2853 3084 3261 2657 
Q 3669 2231 3669 1497 
Q 3669 778 3244 343 
Q 2819 -91 2113 -91 
Q 1303 -91 875 529 
Q 447 1150 447 2328 
Q 447 3434 972 4092 
Q 1497 4750 2381 4750 
Q 2619 4750 2861 4703 
Q 3103 4656 3366 4563 
z
" transform="scale(0.015625)"/>
       </defs>
       <use xlink:href="#DejaVuSans-36"/>
      </g>
     </g>
    </g>
    <g id="xtick_5">
     <g id="line2d_9">
      <path d="M 261.092576 303.64 
L 261.092576 25.44 
" clip-path="url(#p09e7c1ce84)" style="fill: none; stroke: #b0b0b0; stroke-opacity: 0.3; stroke-width: 0.8; stroke-linecap: square"/>
     </g>
     <g id="line2d_10">
      <g>
       <use xlink:href="#mfcef1694f7" x="261.092576" y="303.64" style="stroke: #000000; stroke-width: 0.8"/>
      </g>
     </g>
     <g id="text_5">
      <!-- 8 -->
      <g transform="translate(257.911326 318.238437) scale(0.1 -0.1)">
       <defs>
        <path id="DejaVuSans-38" d="M 2034 2216 
Q 1584 2216 1326 1975 
Q 1069 1734 1069 1313 
Q 1069 891 1326 650 
Q 1584 409 2034 409 
Q 2484 409 2743 651 
Q 3003 894 3003 1313 
Q 3003 1734 2745 1975 
Q 2488 2216 2034 2216 
z
M 1403 2484 
Q 997 2584 770 2862 
Q 544 3141 544 3541 
Q 544 4100 942 4425 
Q 1341 4750 2034 4750 
Q 2731 4750 3128 4425 
Q 3525 4100 3525 3541 
Q 3525 3141 3298 2862 
Q 3072 2584 2669 2484 
Q 3125 2378 3379 2068 
Q 3634 1759 3634 1313 
Q 3634 634 3220 271 
Q 2806 -91 2034 -91 
Q 1263 -91 848 271 
Q 434 634 434 1313 
Q 434 1759 690 2068 
Q 947 2378 1403 2484 
z
M 1172 3481 
Q 1172 3119 1398 2916 
Q 1625 2713 2034 2713 
Q 2441 2713 2670 2916 
Q 2900 3119 2900 3481 
Q 2900 3844 2670 4047 
Q 2441 4250 2034 4250 
Q 1625 4250 1398 4047 
Q 1172 3844 1172 3481 
z
" transform="scale(0.015625)"/>
       </defs>
       <use xlink:href="#DejaVuSans-38"/>
      </g>
     </g>
    </g>
    <g id="xtick_6">
     <g id="line2d_11">
      <path d="M 309.842879 303.64 
L 309.842879 25.44 
" clip-path="url(#p09e7c1ce84)" style="fill: none; stroke: #b0b0b0; stroke-opacity: 0.3; stroke-width: 0.8; stroke-linecap: square"/>
     </g>
     <g id="line2d_12">
      <g>
       <use xlink:href="#mfcef1694f7" x="309.842879" y="303.64" style="stroke: #000000; stroke-width: 0.8"/>
      </g>
     </g>
     <g id="text_6">
      <!-- 10 -->
      <g transform="translate(303.480379 318.238437) scale(0.1 -0.1)">
       <defs>
        <path id="DejaVuSans-31" d="M 794 531 
L 1825 531 
L 1825 4091 
L 703 3866 
L 703 4441 
L 1819 4666 
L 2450 4666 
L 2450 531 
L 3481 531 
L 3481 0 
L 794 0 
L 794 531 
z
" transform="scale(0.015625)"/>
       </defs>
       <use xlink:href="#DejaVuSans-31"/>
       <use xlink:href="#DejaVuSans-30" transform="translate(63.623047 0)"/>
      </g>
     </g>
    </g>
    <g id="xtick_7">
     <g id="line2d_13">
      <path d="M 358.593182 303.64 
L 358.593182 25.44 
" clip-path="url(#p09e7c1ce84)" style="fill: none; stroke: #b0b0b0; stroke-opacity: 0.3; stroke-width: 0.8; stroke-linecap: square"/>
     </g>
     <g id="line2d_14">
      <g>
       <use xlink:href="#mfcef1694f7" x="358.593182" y="303.64" style="stroke: #000000; stroke-width: 0.8"/>
      </g>
     </g>
     <g id="text_7">
      <!-- 12 -->
      <g transform="translate(352.230682 318.238437) scale(0.1 -0.1)">
       <use xlink:href="#DejaVuSans-31"/>
       <use xlink:href="#DejaVuSans-32" transform="translate(63.623047 0)"/>
      </g>
     </g>
    </g>
    <g id="xtick_8">
     <g id="line2d_15">
      <path d="M 407.343485 303.64 
L 407.343485 25.44 
" clip-path="url(#p09e7c1ce84)" style="fill: none; stroke: #b0b0b0; stroke-opacity: 0.3; stroke-width: 0.8; stroke-linecap: square"/>
     </g>
     <g id="line2d_16">
      <g>
       <use xlink:href="#mfcef1694f7" x="407.343485" y="303.64" style="stroke: #000000; stroke-width: 0.8"/>
      </g>
     </g>
     <g id="text_8">
      <!-- 14 -->
      <g transform="translate(400.980985 318.238437) scale(0.1 -0.1)">
       <use xlink:href="#DejaVuSans-31"/>
       <use xlink:href="#DejaVuSans-34" transform="translate(63.623047 0)"/>
      </g>
     </g>
    </g>
    <g id="text_9">
     <!-- Time (minutes) -->
     <g transform="translate(210.9425 331.916562) scale(0.1 -0.1)">
      <defs>
       <path id="DejaVuSans-54" d="M -19 4666 
L 3928 4666 
L 3928 4134 
L 2272 4134 
L 2272 0 
L 1638 0 
L 1638 4134 
L -19 4134 
L -19 4666 
z
" transform="scale(0.015625)"/>
       <path id="DejaVuSans-69" d="M 603 3500 
L 1178 3500 
L 1178 0 
L 603 0 
L 603 3500 
z
M 603 4863 
L 1178 4863 
L 1178 4134 
L 603 4134 
L 603 4863 
z
" transform="scale(0.015625)"/>
       <path id="DejaVuSans-6d" d="M 3328 2828 
Q 3544 3216 3844 3400 
Q 4144 3584 4550 3584 
Q 5097 3584 5394 3201 
Q 5691 2819 5691 2113 
L 5691 0 
L 5113 0 
L 5113 2094 
Q 5113 2597 4934 2840 
Q 4756 3084 4391 3084 
Q 3944 3084 3684 2787 
Q 3425 2491 3425 1978 
L 3425 0 
L 2847 0 
L 2847 2094 
Q 2847 2600 2669 2842 
Q 2491 3084 2119 3084 
Q 1678 3084 1418 2786 
Q 1159 2488 1159 1978 
L 1159 0 
L 581 0 
L 581 3500 
L 1159 3500 
L 1159 2956 
Q 1356 3278 1631 3431 
Q 1906 3584 2284 3584 
Q 2666 3584 2933 3390 
Q 3200 3197 3328 2828 
z
" transform="scale(0.015625)"/>
       <path id="DejaVuSans-65" d="M 3597 1894 
L 3597 1613 
L 953 1613 
Q 991 1019 1311 708 
Q 1631 397 2203 397 
Q 2534 397 2845 478 
Q 3156 559 3463 722 
L 3463 178 
Q 3153 47 2828 -22 
Q 2503 -91 2169 -91 
Q 1331 -91 842 396 
Q 353 884 353 1716 
Q 353 2575 817 3079 
Q 1281 3584 2069 3584 
Q 2775 3584 3186 3129 
Q 3597 2675 3597 1894 
z
M 3022 2063 
Q 3016 2534 2758 2815 
Q 2500 3097 2075 3097 
Q 1594 3097 1305 2825 
Q 1016 2553 972 2059 
L 3022 2063 
z
" transform="scale(0.015625)"/>
       <path id="DejaVuSans-20" transform="scale(0.015625)"/>
       <path id="DejaVuSans-28" d="M 1984 4856 
Q 1566 4138 1362 3434 
Q 1159 2731 1159 2009 
Q 1159 1288 1364 580 
Q 1569 -128 1984 -844 
L 1484 -844 
Q 1016 -109 783 600 
Q 550 1309 550 2009 
Q 550 2706 781 3412 
Q 1013 4119 1484 4856 
L 1984 4856 
z
" transform="scale(0.015625)"/>
       <path id="DejaVuSans-6e" d="M 3513 2113 
L 3513 0 
L 2938 0 
L 2938 2094 
Q 2938 2591 2744 2837 
Q 2550 3084 2163 3084 
Q 1697 3084 1428 2787 
Q 1159 2491 1159 1978 
L 1159 0 
L 581 0 
L 581 3500 
L 1159 3500 
L 1159 2956 
Q 1366 3272 1645 3428 
Q 1925 3584 2291 3584 
Q 2894 3584 3203 3211 
Q 3513 2838 3513 2113 
z
" transform="scale(0.015625)"/>
       <path id="DejaVuSans-75" d="M 544 1381 
L 544 3500 
L 1119 3500 
L 1119 1403 
Q 1119 906 1312 657 
Q 1506 409 1894 409 
Q 2359 409 2629 706 
Q 2900 1003 2900 1516 
L 2900 3500 
L 3475 3500 
L 3475 0 
L 2900 0 
L 2900 538 
Q 2691 219 2414 64 
Q 2138 -91 1772 -91 
Q 1169 -91 856 284 
Q 544 659 544 1381 
z
M 1991 3584 
L 1991 3584 
z
" transform="scale(0.015625)"/>
       <path id="DejaVuSans-74" d="M 1172 4494 
L 1172 3500 
L 2356 3500 
L 2356 3053 
L 1172 3053 
L 1172 1153 
Q 1172 725 1289 603 
Q 1406 481 1766 481 
L 2356 481 
L 2356 0 
L 1766 0 
Q 1100 0 847 248 
Q 594 497 594 1153 
L 594 3053 
L 172 3053 
L 172 3500 
L 594 3500 
L 594 4494 
L 1172 4494 
z
" transform="scale(0.015625)"/>
       <path id="DejaVuSans-73" d="M 2834 3397 
L 2834 2853 
Q 2591 2978 2328 3040 
Q 2066 3103 1784 3103 
Q 1356 3103 1142 2972 
Q 928 2841 928 2578 
Q 928 2378 1081 2264 
Q 1234 2150 1697 2047 
L 1894 2003 
Q 2506 1872 2764 1633 
Q 3022 1394 3022 966 
Q 3022 478 2636 193 
Q 2250 -91 1575 -91 
Q 1294 -91 989 -36 
Q 684 19 347 128 
L 347 722 
Q 666 556 975 473 
Q 1284 391 1588 391 
Q 1994 391 2212 530 
Q 2431 669 2431 922 
Q 2431 1156 2273 1281 
Q 2116 1406 1581 1522 
L 1381 1569 
Q 847 1681 609 1914 
Q 372 2147 372 2553 
Q 372 3047 722 3315 
Q 1072 3584 1716 3584 
Q 2034 3584 2315 3537 
Q 2597 3491 2834 3397 
z
" transform="scale(0.015625)"/>
       <path id="DejaVuSans-29" d="M 513 4856 
L 1013 4856 
Q 1481 4119 1714 3412 
Q 1947 2706 1947 2009 
Q 1947 1309 1714 600 
Q 1481 -109 1013 -844 
L 513 -844 
Q 928 -128 1133 580 
Q 1338 1288 1338 2009 
Q 1338 2731 1133 3434 
Q 928 4138 513 4856 
z
" transform="scale(0.015625)"/>
      </defs>
      <use xlink:href="#DejaVuSans-54"/>
      <use xlink:href="#DejaVuSans-69" transform="translate(57.958984 0)"/>
      <use xlink:href="#DejaVuSans-6d" transform="translate(85.742188 0)"/>
      <use xlink:href="#DejaVuSans-65" transform="translate(183.154297 0)"/>
      <use xlink:href="#DejaVuSans-20" transform="translate(244.677734 0)"/>
      <use xlink:href="#DejaVuSans-28" transform="translate(276.464844 0)"/>
      <use xlink:href="#DejaVuSans-6d" transform="translate(315.478516 0)"/>
      <use xlink:href="#DejaVuSans-69" transform="translate(412.890625 0)"/>
      <use xlink:href="#DejaVuSans-6e" transform="translate(440.673828 0)"/>
      <use xlink:href="#DejaVuSans-75" transform="translate(504.052734 0)"/>
      <use xlink:href="#DejaVuSans-74" transform="translate(567.431641 0)"/>
      <use xlink:href="#DejaVuSans-65" transform="translate(606.640625 0)"/>
      <use xlink:href="#DejaVuSans-73" transform="translate(668.164062 0)"/>
      <use xlink:href="#DejaVuSans-29" transform="translate(720.263672 0)"/>
     </g>
    </g>
   </g>
   <g id="matplotlib.axis_2">
    <g id="ytick_1">
     <g id="line2d_17">
      <path d="M 47.81 290.861075 
L 450 290.861075 
" clip-path="url(#p09e7c1ce84)" style="fill: none; stroke: #b0b0b0; stroke-opacity: 0.3; stroke-width: 0.8; stroke-linecap: square"/>
     </g>
     <g id="line2d_18">
      <defs>
       <path id="m1cae9c8943" d="M 0 0 
L -3.5 0 
" style="stroke: #000000; stroke-width: 0.8"/>
      </defs>
      <g>
       <use xlink:href="#m1cae9c8943" x="47.81" y="290.861075" style="stroke: #000000; stroke-width: 0.8"/>
      </g>
     </g>
     <g id="text_10">
      <!-- 0.0 -->
      <g transform="translate(24.906875 294.660294) scale(0.1 -0.1)">
       <defs>
        <path id="DejaVuSans-2e" d="M 684 794 
L 1344 794 
L 1344 0 
L 684 0 
L 684 794 
z
" transform="scale(0.015625)"/>
       </defs>
       <use xlink:href="#DejaVuSans-30"/>
       <use xlink:href="#DejaVuSans-2e" transform="translate(63.623047 0)"/>
       <use xlink:href="#DejaVuSans-30" transform="translate(95.410156 0)"/>
      </g>
     </g>
    </g>
    <g id="ytick_2">
     <g id="line2d_19">
      <path d="M 47.81 232.777587 
L 450 232.777587 
" clip-path="url(#p09e7c1ce84)" style="fill: none; stroke: #b0b0b0; stroke-opacity: 0.3; stroke-width: 0.8; stroke-linecap: square"/>
     </g>
     <g id="line2d_20">
      <g>
       <use xlink:href="#m1cae9c8943" x="47.81" y="232.777587" style="stroke: #000000; stroke-width: 0.8"/>
      </g>
     </g>
     <g id="text_11">
      <!-- 0.5 -->
      <g transform="translate(24.906875 236.576805) scale(0.1 -0.1)">
       <defs>
        <path id="DejaVuSans-35" d="M 691 4666 
L 3169 4666 
L 3169 4134 
L 1269 4134 
L 1269 2991 
Q 1406 3038 1543 3061 
Q 1681 3084 1819 3084 
Q 2600 3084 3056 2656 
Q 3513 2228 3513 1497 
Q 3513 744 3044 326 
Q 2575 -91 1722 -91 
Q 1428 -91 1123 -41 
Q 819 9 494 109 
L 494 744 
Q 775 591 1075 516 
Q 1375 441 1709 441 
Q 2250 441 2565 725 
Q 2881 1009 2881 1497 
Q 2881 1984 2565 2268 
Q 2250 2553 1709 2553 
Q 1456 2553 1204 2497 
Q 953 2441 691 2322 
L 691 4666 
z
" transform="scale(0.015625)"/>
       </defs>
       <use xlink:href="#DejaVuSans-30"/>
       <use xlink:href="#DejaVuSans-2e" transform="translate(63.623047 0)"/>
       <use xlink:href="#DejaVuSans-35" transform="translate(95.410156 0)"/>
      </g>
     </g>
    </g>
    <g id="ytick_3">
     <g id="line2d_21">
      <path d="M 47.81 174.694098 
L 450 174.694098 
" clip-path="url(#p09e7c1ce84)" style="fill: none; stroke: #b0b0b0; stroke-opacity: 0.3; stroke-width: 0.8; stroke-linecap: square"/>
     </g>
     <g id="line2d_22">
      <g>
       <use xlink:href="#m1cae9c8943" x="47.81" y="174.694098" style="stroke: #000000; stroke-width: 0.8"/>
      </g>
     </g>
     <g id="text_12">
      <!-- 1.0 -->
      <g transform="translate(24.906875 178.493317) scale(0.1 -0.1)">
       <use xlink:href="#DejaVuSans-31"/>
       <use xlink:href="#DejaVuSans-2e" transform="translate(63.623047 0)"/>
       <use xlink:href="#DejaVuSans-30" transform="translate(95.410156 0)"/>
      </g>
     </g>
    </g>
    <g id="ytick_4">
     <g id="line2d_23">
      <path d="M 47.81 116.61061 
L 450 116.61061 
" clip-path="url(#p09e7c1ce84)" style="fill: none; stroke: #b0b0b0; stroke-opacity: 0.3; stroke-width: 0.8; stroke-linecap: square"/>
     </g>
     <g id="line2d_24">
      <g>
       <use xlink:href="#m1cae9c8943" x="47.81" y="116.61061" style="stroke: #000000; stroke-width: 0.8"/>
      </g>
     </g>
     <g id="text_13">
      <!-- 1.5 -->
      <g transform="translate(24.906875 120.409829) scale(0.1 -0.1)">
       <use xlink:href="#DejaVuSans-31"/>
       <use xlink:href="#DejaVuSans-2e" transform="translate(63.623047 0)"/>
       <use xlink:href="#DejaVuSans-35" transform="translate(95.410156 0)"/>
      </g>
     </g>
    </g>
    <g id="ytick_5">
     <g id="line2d_25">
      <path d="M 47.81 58.527121 
L 450 58.527121 
" clip-path="url(#p09e7c1ce84)" style="fill: none; stroke: #b0b0b0; stroke-opacity: 0.3; stroke-width: 0.8; stroke-linecap: square"/>
     </g>
     <g id="line2d_26">
      <g>
       <use xlink:href="#m1cae9c8943" x="47.81" y="58.527121" style="stroke: #000000; stroke-width: 0.8"/>
      </g>
     </g>
     <g id="text_14">
      <!-- 2.0 -->
      <g transform="translate(24.906875 62.32634) scale(0.1 -0.1)">
       <use xlink:href="#DejaVuSans-32"/>
       <use xlink:href="#DejaVuSans-2e" transform="translate(63.623047 0)"/>
       <use xlink:href="#DejaVuSans-30" transform="translate(95.410156 0)"/>
      </g>
     </g>
    </g>
    <g id="text_15">
     <!-- Gaussian filtered EDA (μS) -->
     <g transform="translate(18.827188 230.613437) rotate(-90) scale(0.1 -0.1)">
      <defs>
       <path id="DejaVuSans-47" d="M 3809 666 
L 3809 1919 
L 2778 1919 
L 2778 2438 
L 4434 2438 
L 4434 434 
Q 4069 175 3628 42 
Q 3188 -91 2688 -91 
Q 1594 -91 976 548 
Q 359 1188 359 2328 
Q 359 3472 976 4111 
Q 1594 4750 2688 4750 
Q 3144 4750 3555 4637 
Q 3966 4525 4313 4306 
L 4313 3634 
Q 3963 3931 3569 4081 
Q 3175 4231 2741 4231 
Q 1884 4231 1454 3753 
Q 1025 3275 1025 2328 
Q 1025 1384 1454 906 
Q 1884 428 2741 428 
Q 3075 428 3337 486 
Q 3600 544 3809 666 
z
" transform="scale(0.015625)"/>
       <path id="DejaVuSans-61" d="M 2194 1759 
Q 1497 1759 1228 1600 
Q 959 1441 959 1056 
Q 959 750 1161 570 
Q 1363 391 1709 391 
Q 2188 391 2477 730 
Q 2766 1069 2766 1631 
L 2766 1759 
L 2194 1759 
z
M 3341 1997 
L 3341 0 
L 2766 0 
L 2766 531 
Q 2569 213 2275 61 
Q 1981 -91 1556 -91 
Q 1019 -91 701 211 
Q 384 513 384 1019 
Q 384 1609 779 1909 
Q 1175 2209 1959 2209 
L 2766 2209 
L 2766 2266 
Q 2766 2663 2505 2880 
Q 2244 3097 1772 3097 
Q 1472 3097 1187 3025 
Q 903 2953 641 2809 
L 641 3341 
Q 956 3463 1253 3523 
Q 1550 3584 1831 3584 
Q 2591 3584 2966 3190 
Q 3341 2797 3341 1997 
z
" transform="scale(0.015625)"/>
       <path id="DejaVuSans-66" d="M 2375 4863 
L 2375 4384 
L 1825 4384 
Q 1516 4384 1395 4259 
Q 1275 4134 1275 3809 
L 1275 3500 
L 2222 3500 
L 2222 3053 
L 1275 3053 
L 1275 0 
L 697 0 
L 697 3053 
L 147 3053 
L 147 3500 
L 697 3500 
L 697 3744 
Q 697 4328 969 4595 
Q 1241 4863 1831 4863 
L 2375 4863 
z
" transform="scale(0.015625)"/>
       <path id="DejaVuSans-6c" d="M 603 4863 
L 1178 4863 
L 1178 0 
L 603 0 
L 603 4863 
z
" transform="scale(0.015625)"/>
       <path id="DejaVuSans-72" d="M 2631 2963 
Q 2534 3019 2420 3045 
Q 2306 3072 2169 3072 
Q 1681 3072 1420 2755 
Q 1159 2438 1159 1844 
L 1159 0 
L 581 0 
L 581 3500 
L 1159 3500 
L 1159 2956 
Q 1341 3275 1631 3429 
Q 1922 3584 2338 3584 
Q 2397 3584 2469 3576 
Q 2541 3569 2628 3553 
L 2631 2963 
z
" transform="scale(0.015625)"/>
       <path id="DejaVuSans-64" d="M 2906 2969 
L 2906 4863 
L 3481 4863 
L 3481 0 
L 2906 0 
L 2906 525 
Q 2725 213 2448 61 
Q 2172 -91 1784 -91 
Q 1150 -91 751 415 
Q 353 922 353 1747 
Q 353 2572 751 3078 
Q 1150 3584 1784 3584 
Q 2172 3584 2448 3432 
Q 2725 3281 2906 2969 
z
M 947 1747 
Q 947 1113 1208 752 
Q 1469 391 1925 391 
Q 2381 391 2643 752 
Q 2906 1113 2906 1747 
Q 2906 2381 2643 2742 
Q 2381 3103 1925 3103 
Q 1469 3103 1208 2742 
Q 947 2381 947 1747 
z
" transform="scale(0.015625)"/>
       <path id="DejaVuSans-45" d="M 628 4666 
L 3578 4666 
L 3578 4134 
L 1259 4134 
L 1259 2753 
L 3481 2753 
L 3481 2222 
L 1259 2222 
L 1259 531 
L 3634 531 
L 3634 0 
L 628 0 
L 628 4666 
z
" transform="scale(0.015625)"/>
       <path id="DejaVuSans-44" d="M 1259 4147 
L 1259 519 
L 2022 519 
Q 2988 519 3436 956 
Q 3884 1394 3884 2338 
Q 3884 3275 3436 3711 
Q 2988 4147 2022 4147 
L 1259 4147 
z
M 628 4666 
L 1925 4666 
Q 3281 4666 3915 4102 
Q 4550 3538 4550 2338 
Q 4550 1131 3912 565 
Q 3275 0 1925 0 
L 628 0 
L 628 4666 
z
" transform="scale(0.015625)"/>
       <path id="DejaVuSans-41" d="M 2188 4044 
L 1331 1722 
L 3047 1722 
L 2188 4044 
z
M 1831 4666 
L 2547 4666 
L 4325 0 
L 3669 0 
L 3244 1197 
L 1141 1197 
L 716 0 
L 50 0 
L 1831 4666 
z
" transform="scale(0.015625)"/>
       <path id="DejaVuSans-3bc" d="M 544 -1331 
L 544 3500 
L 1119 3500 
L 1119 1325 
Q 1119 872 1334 640 
Q 1550 409 1972 409 
Q 2434 409 2667 671 
Q 2900 934 2900 1459 
L 2900 3500 
L 3475 3500 
L 3475 806 
Q 3475 619 3529 530 
Q 3584 441 3700 441 
Q 3728 441 3778 458 
Q 3828 475 3916 513 
L 3916 50 
Q 3788 -22 3673 -56 
Q 3559 -91 3450 -91 
Q 3234 -91 3106 31 
Q 2978 153 2931 403 
Q 2775 156 2548 32 
Q 2322 -91 2016 -91 
Q 1697 -91 1473 31 
Q 1250 153 1119 397 
L 1119 -1331 
L 544 -1331 
z
" transform="scale(0.015625)"/>
       <path id="DejaVuSans-53" d="M 3425 4513 
L 3425 3897 
Q 3066 4069 2747 4153 
Q 2428 4238 2131 4238 
Q 1616 4238 1336 4038 
Q 1056 3838 1056 3469 
Q 1056 3159 1242 3001 
Q 1428 2844 1947 2747 
L 2328 2669 
Q 3034 2534 3370 2195 
Q 3706 1856 3706 1288 
Q 3706 609 3251 259 
Q 2797 -91 1919 -91 
Q 1588 -91 1214 -16 
Q 841 59 441 206 
L 441 856 
Q 825 641 1194 531 
Q 1563 422 1919 422 
Q 2459 422 2753 634 
Q 3047 847 3047 1241 
Q 3047 1584 2836 1778 
Q 2625 1972 2144 2069 
L 1759 2144 
Q 1053 2284 737 2584 
Q 422 2884 422 3419 
Q 422 4038 858 4394 
Q 1294 4750 2059 4750 
Q 2388 4750 2728 4690 
Q 3069 4631 3425 4513 
z
" transform="scale(0.015625)"/>
      </defs>
      <use xlink:href="#DejaVuSans-47"/>
      <use xlink:href="#DejaVuSans-61" transform="translate(77.490234 0)"/>
      <use xlink:href="#DejaVuSans-75" transform="translate(138.769531 0)"/>
      <use xlink:href="#DejaVuSans-73" transform="translate(202.148438 0)"/>
      <use xlink:href="#DejaVuSans-73" transform="translate(254.248047 0)"/>
      <use xlink:href="#DejaVuSans-69" transform="translate(306.347656 0)"/>
      <use xlink:href="#DejaVuSans-61" transform="translate(334.130859 0)"/>
      <use xlink:href="#DejaVuSans-6e" transform="translate(395.410156 0)"/>
      <use xlink:href="#DejaVuSans-20" transform="translate(458.789062 0)"/>
      <use xlink:href="#DejaVuSans-66" transform="translate(490.576172 0)"/>
      <use xlink:href="#DejaVuSans-69" transform="translate(525.78125 0)"/>
      <use xlink:href="#DejaVuSans-6c" transform="translate(553.564453 0)"/>
      <use xlink:href="#DejaVuSans-74" transform="translate(581.347656 0)"/>
      <use xlink:href="#DejaVuSans-65" transform="translate(620.556641 0)"/>
      <use xlink:href="#DejaVuSans-72" transform="translate(682.080078 0)"/>
      <use xlink:href="#DejaVuSans-65" transform="translate(720.943359 0)"/>
      <use xlink:href="#DejaVuSans-64" transform="translate(782.466797 0)"/>
      <use xlink:href="#DejaVuSans-20" transform="translate(845.943359 0)"/>
      <use xlink:href="#DejaVuSans-45" transform="translate(877.730469 0)"/>
      <use xlink:href="#DejaVuSans-44" transform="translate(940.914062 0)"/>
      <use xlink:href="#DejaVuSans-41" transform="translate(1016.166016 0)"/>
      <use xlink:href="#DejaVuSans-20" transform="translate(1084.574219 0)"/>
      <use xlink:href="#DejaVuSans-28" transform="translate(1116.361328 0)"/>
      <use xlink:href="#DejaVuSans-3bc" transform="translate(1155.375 0)"/>
      <use xlink:href="#DejaVuSans-53" transform="translate(1218.998047 0)"/>
      <use xlink:href="#DejaVuSans-29" transform="translate(1282.474609 0)"/>
     </g>
    </g>
   </g>
   <g id="line2d_27">
    <path d="M 66.091364 235.876904 
L 67.412418 236.282149 
L 70.765865 237.684362 
L 73.814452 239.072475 
L 75.237126 240.024405 
L 76.964659 241.160357 
L 78.082475 241.608548 
L 79.505149 241.911895 
L 82.147258 242.20058 
L 82.655356 242.016938 
L 83.061835 241.582202 
L 83.468313 240.780588 
L 83.976411 239.209319 
L 84.789368 235.744536 
L 86.008803 230.651574 
L 86.821759 228.26277 
L 87.533096 226.842596 
L 88.142814 226.106748 
L 88.650912 225.814624 
L 89.15901 225.755107 
L 89.971966 225.933953 
L 91.59788 226.347435 
L 92.309217 226.280373 
L 92.918935 225.984194 
L 93.630272 225.331332 
L 95.865903 222.932798 
L 96.882098 222.417244 
L 98.101533 221.752114 
L 100.133925 220.496014 
L 101.150121 219.898978 
L 101.759839 219.263039 
L 102.572795 218.036887 
L 103.588991 216.526918 
L 104.198709 215.995081 
L 104.808426 215.759538 
L 105.824622 215.66197 
L 106.637579 215.742056 
L 107.348916 216.065577 
L 108.365112 216.593525 
L 108.66997 216.515482 
L 108.974829 216.184932 
L 109.279688 215.510849 
L 109.686166 213.928233 
L 110.092645 211.414251 
L 110.600743 206.851906 
L 111.31208 198.172932 
L 112.836373 178.898138 
L 113.446091 174.338422 
L 113.954189 172.234781 
L 114.360667 171.389422 
L 114.767146 171.024612 
L 115.275244 170.918533 
L 116.18982 170.830294 
L 116.697918 170.543159 
L 117.307635 169.911773 
L 118.831929 168.154615 
L 119.340027 167.973889 
L 119.746505 168.085476 
L 120.152984 168.44757 
L 120.661082 169.231573 
L 122.591854 172.729878 
L 123.099952 173.034355 
L 123.811289 173.137898 
L 124.421006 173.27781 
L 124.929104 173.617556 
L 125.538822 174.343113 
L 127.571214 177.14555 
L 127.977692 177.236839 
L 128.38417 177.045731 
L 128.790649 176.566374 
L 129.400366 175.393933 
L 130.721421 172.616742 
L 131.127899 172.231285 
L 131.432758 172.169926 
L 131.737617 172.29577 
L 132.144095 172.707051 
L 132.855432 173.841589 
L 134.887824 177.291349 
L 136.005639 178.724265 
L 136.615357 179.230695 
L 137.123455 179.386945 
L 137.529933 179.296068 
L 138.038031 178.922934 
L 139.054227 177.746782 
L 139.765564 177.124827 
L 140.273662 176.949685 
L 140.883379 177.000338 
L 143.017391 177.460627 
L 144.440065 177.348864 
L 145.354641 177.32425 
L 145.862739 177.498399 
L 146.370837 177.913119 
L 146.980555 178.753035 
L 149.317805 182.459667 
L 149.825903 182.670734 
L 150.232381 182.621519 
L 150.740479 182.316645 
L 151.350197 181.649581 
L 152.163154 180.349514 
L 153.484208 178.094964 
L 153.890686 177.759161 
L 154.195545 177.710937 
L 154.500404 177.848309 
L 154.906882 178.300614 
L 155.5166 179.419602 
L 156.532796 181.874036 
L 157.447372 184.553261 
L 158.158709 187.299397 
L 158.971666 191.370153 
L 160.699199 200.423843 
L 161.410536 202.939094 
L 162.121873 204.66151 
L 162.83321 205.842436 
L 163.544547 206.630327 
L 164.052645 206.900884 
L 164.459124 206.862857 
L 164.865602 206.5481 
L 165.3737 205.776448 
L 166.796374 203.208686 
L 167.202852 202.983608 
L 167.507711 203.039157 
L 167.914189 203.373644 
L 168.523907 204.248179 
L 170.35306 207.089668 
L 171.064397 207.723571 
L 171.572495 207.899648 
L 171.978973 207.835243 
L 172.487071 207.48096 
L 173.096788 206.720215 
L 174.417843 204.970868 
L 174.925941 204.690771 
L 175.434039 204.701627 
L 176.043756 205.010779 
L 177.059952 205.871998 
L 180.311779 208.729507 
L 185.595998 213.269829 
L 187.018672 214.980374 
L 189.355922 217.838593 
L 190.473738 218.851339 
L 191.489934 219.499444 
L 192.810988 220.053084 
L 195.046619 220.750594 
L 196.570913 221.226029 
L 197.688728 221.856809 
L 200.940555 223.917942 
L 201.956751 224.257601 
L 202.668088 224.283463 
L 203.481045 224.079766 
L 204.802099 223.719889 
L 205.513437 223.776869 
L 206.631252 224.144078 
L 208.053926 224.579318 
L 208.968502 224.618086 
L 211.204133 224.52512 
L 212.11871 224.552045 
L 212.626808 224.338379 
L 213.033286 223.942923 
L 213.541384 223.094981 
L 214.151101 221.547499 
L 215.167297 218.146046 
L 216.285113 214.647076 
L 216.99645 213.159727 
L 217.606167 212.363398 
L 219.028842 210.796315 
L 219.536939 209.690135 
L 220.146657 207.683995 
L 221.366092 202.42194 
L 222.077429 199.885732 
L 222.992005 197.570368 
L 223.601723 195.81202 
L 224.21144 193.30194 
L 226.040593 184.783126 
L 226.548691 183.721904 
L 226.955169 183.355787 
L 227.564887 183.207165 
L 227.971365 183.042916 
L 228.276224 182.723042 
L 228.682702 181.895213 
L 229.1908 180.120489 
L 229.902137 176.554538 
L 231.121572 170.414455 
L 231.832909 167.9473 
L 233.153964 163.807723 
L 233.662062 161.145048 
L 234.17016 157.286574 
L 234.881497 150.012038 
L 236.100932 137.493822 
L 236.60903 134.287257 
L 237.015508 132.795685 
L 237.421987 132.091813 
L 237.726845 131.946925 
L 238.031704 132.026335 
L 238.539802 132.438804 
L 239.454378 133.214739 
L 239.860857 133.272845 
L 240.267335 133.041436 
L 240.673813 132.516147 
L 241.385151 131.125715 
L 242.198107 129.661328 
L 242.604586 129.311511 
L 242.909444 129.276174 
L 243.214303 129.433283 
L 243.620781 129.901765 
L 244.332119 131.186602 
L 245.754793 133.90879 
L 246.262891 134.494862 
L 246.669369 134.68403 
L 246.974228 134.635134 
L 247.380706 134.318655 
L 247.990424 133.460526 
L 248.701761 132.485334 
L 249.108239 132.268129 
L 249.413098 132.350058 
L 249.819576 132.790817 
L 250.327674 133.756043 
L 251.44549 135.975694 
L 251.750348 136.187079 
L 251.953588 136.150878 
L 252.258446 135.779132 
L 252.563305 134.982968 
L 252.969783 133.2388 
L 253.579501 129.401758 
L 254.798936 121.225927 
L 255.307034 119.216295 
L 255.713512 118.333165 
L 256.22161 117.790762 
L 257.136187 117.016927 
L 257.847524 116.027971 
L 258.457241 114.851239 
L 258.965339 113.325767 
L 259.473437 110.859262 
L 260.083155 106.399221 
L 261.709068 93.298927 
L 262.217166 91.163325 
L 262.725264 89.977587 
L 263.131742 89.485976 
L 263.53822 89.306006 
L 263.843079 89.385046 
L 264.147938 89.677834 
L 264.554416 90.437083 
L 265.062514 91.951702 
L 266.790047 97.759504 
L 267.094906 98.065489 
L 267.298145 98.058125 
L 267.603004 97.719684 
L 268.009482 96.684792 
L 268.51758 94.616833 
L 269.432157 89.671403 
L 270.854831 82.079781 
L 271.362929 80.331762 
L 271.769407 79.54278 
L 272.074266 79.315838 
L 272.379125 79.376419 
L 272.683983 79.687574 
L 273.090462 80.422878 
L 273.700179 82.041526 
L 274.716375 85.523191 
L 275.93581 89.559575 
L 276.545528 90.892119 
L 276.952006 91.366203 
L 277.256865 91.471506 
L 277.561723 91.347162 
L 277.866582 90.9809 
L 278.273061 90.093699 
L 278.781158 88.305454 
L 279.390876 85.197667 
L 281.220029 74.820779 
L 281.728126 73.407995 
L 282.134605 72.866743 
L 282.541083 72.708967 
L 283.049181 72.816117 
L 284.471855 73.28565 
L 285.081573 73.233988 
L 285.79291 72.924185 
L 287.113965 72.232197 
L 287.723682 72.215597 
L 288.435019 72.241796 
L 288.739878 72.051261 
L 289.044737 71.56991 
L 289.349595 70.656929 
L 289.756074 68.538889 
L 290.264172 64.179422 
L 290.975509 55.317938 
L 291.991705 42.624003 
L 292.398183 39.593141 
L 292.703042 38.401691 
L 292.906281 38.101096 
L 293.10952 38.151526 
L 293.312759 38.501347 
L 293.719238 39.8683 
L 294.532194 43.848006 
L 296.158108 51.727958 
L 297.275923 56.143622 
L 297.98726 58.14949 
L 298.596978 59.227707 
L 299.105076 59.703065 
L 299.613174 59.88524 
L 301.035848 60.098545 
L 301.442326 60.581932 
L 301.848805 61.505744 
L 302.356903 63.38314 
L 303.06824 67.159354 
L 304.897392 77.514385 
L 306.218447 83.278217 
L 307.84436 89.422841 
L 310.791328 99.326018 
L 312.315622 103.756052 
L 314.246394 108.736203 
L 314.754492 109.558782 
L 315.16097 109.84583 
L 315.465829 109.802782 
L 315.770688 109.530305 
L 316.177166 108.830664 
L 316.786884 107.183727 
L 317.599841 104.207507 
L 320.14033 94.103754 
L 320.648428 93.243143 
L 321.054907 93.004231 
L 321.359765 93.05814 
L 321.766244 93.381966 
L 322.375961 94.24201 
L 323.900255 97.034128 
L 326.237505 101.403271 
L 326.847223 103.422345 
L 327.45694 106.277359 
L 328.269897 111.388529 
L 330.403908 125.776945 
L 330.912006 127.611081 
L 331.216865 128.173594 
L 331.420104 128.303355 
L 331.623344 128.230385 
L 331.928202 127.739893 
L 332.334681 126.410299 
L 332.842779 123.853848 
L 334.87517 112.446038 
L 335.383268 111.019474 
L 335.789747 110.409451 
L 336.196225 110.209579 
L 336.602703 110.338419 
L 337.110801 110.821574 
L 338.025377 112.107253 
L 340.464248 115.943912 
L 341.582063 118.335675 
L 342.801498 121.532096 
L 344.630651 126.482377 
L 345.138749 127.246971 
L 345.646846 127.607592 
L 346.154944 127.664771 
L 347.475999 127.615048 
L 347.984097 127.859412 
L 348.593814 128.410172 
L 349.305152 129.355905 
L 350.219728 130.944419 
L 351.845641 134.311869 
L 355.097468 141.483974 
L 356.215283 144.620244 
L 357.12986 147.910232 
L 357.942816 151.817469 
L 358.755773 156.896236 
L 360.889784 170.90556 
L 361.499502 173.258662 
L 361.90598 174.144833 
L 362.210839 174.407532 
L 362.414078 174.377949 
L 362.718937 174.013273 
L 363.023796 173.258647 
L 363.430274 171.668887 
L 364.039992 168.257035 
L 365.869144 157.171712 
L 366.478862 155.129456 
L 366.98696 154.218163 
L 367.393438 153.922196 
L 367.799916 153.940508 
L 368.206395 154.22379 
L 368.714493 154.904611 
L 369.32421 156.143469 
L 370.340406 158.858953 
L 371.356602 161.404077 
L 372.067939 162.596708 
L 372.677657 163.179842 
L 373.287374 163.433498 
L 375.014907 163.866661 
L 375.827864 164.533375 
L 376.84406 165.352714 
L 377.555397 165.627069 
L 378.266734 165.652155 
L 379.791028 165.619737 
L 380.400745 165.903385 
L 381.112082 166.5295 
L 382.331517 168.010512 
L 384.262289 170.270697 
L 386.396301 172.819014 
L 389.851367 177.288014 
L 390.969182 179.211103 
L 392.290237 181.953011 
L 394.525868 186.790331 
L 395.135585 187.530531 
L 395.745303 187.924096 
L 400.216565 189.900101 
L 401.23276 190.491224 
L 402.248956 191.380874 
L 403.976489 192.926855 
L 404.891065 193.418533 
L 406.415359 193.890347 
L 407.329936 194.318318 
L 409.972045 195.792974 
L 412.106056 196.515268 
L 414.138448 197.418087 
L 418.60971 198.626469 
L 419.625906 198.505577 
L 421.455058 198.220504 
L 422.471254 198.330631 
L 423.893928 198.752218 
L 426.434418 199.67366 
L 427.552233 200.419536 
L 430.90568 202.877232 
L 431.718636 203.21388 
L 431.718636 203.21388 
" clip-path="url(#p09e7c1ce84)" style="fill: none; stroke-dasharray: 1.85,0.8; stroke-dashoffset: 0; stroke: #1f77b4; stroke-width: 0.5"/>
   </g>
   <g id="line2d_28">
    <path d="M 66.091364 234.803273 
L 66.701081 238.465054 
L 67.209179 240.184148 
L 67.615657 240.852185 
L 67.920516 241.017598 
L 68.225375 240.950298 
L 68.631853 240.584058 
L 69.34319 239.511873 
L 70.257767 238.206148 
L 70.765865 237.883353 
L 71.273963 237.846764 
L 71.78206 238.033943 
L 72.493398 238.553049 
L 74.627409 240.302654 
L 75.541985 240.594032 
L 77.269518 241.050065 
L 77.980855 241.503214 
L 78.692192 242.265584 
L 80.826204 244.864399 
L 81.334302 245.026715 
L 81.74078 244.897197 
L 82.147258 244.485908 
L 82.553737 243.747282 
L 83.163454 242.058471 
L 83.976411 239.044607 
L 86.415281 229.510395 
L 87.024998 228.069788 
L 87.634716 227.132606 
L 88.244434 226.594511 
L 88.854151 226.351167 
L 89.667108 226.304874 
L 91.191402 226.298266 
L 92.207597 226.038772 
L 93.427032 225.478908 
L 94.849707 224.552074 
L 96.882098 222.915456 
L 99.727447 220.651271 
L 103.690611 217.646324 
L 105.113285 216.625733 
L 106.027861 216.236869 
L 106.739198 216.16552 
L 108.365112 216.246991 
L 108.77159 215.976558 
L 109.178068 215.455604 
L 109.686166 214.349897 
L 110.194264 212.616853 
L 110.702362 210.125419 
L 111.31208 206.009011 
L 112.226656 198.130476 
L 114.462287 178.242672 
L 115.173624 174.154276 
L 115.681722 172.307484 
L 116.18982 171.206895 
L 116.596298 170.764865 
L 117.002777 170.630993 
L 117.409255 170.729982 
L 118.018972 171.150376 
L 119.238407 172.044784 
L 119.949745 172.202232 
L 122.286995 172.429548 
L 122.896713 172.889506 
L 123.50643 173.68308 
L 124.522626 175.486844 
L 125.742061 177.60111 
L 126.351779 178.292359 
L 126.859876 178.537613 
L 127.266355 178.457148 
L 127.672833 178.131825 
L 128.282551 177.297748 
L 129.400366 175.231572 
L 130.416562 173.532154 
L 130.92466 173.015293 
L 131.331138 172.854492 
L 131.737617 172.930167 
L 132.245715 173.301804 
L 132.855432 174.056791 
L 133.871628 175.734013 
L 135.192683 177.844995 
L 135.90402 178.578156 
L 136.615357 178.995428 
L 137.326694 179.150424 
L 138.139651 179.075181 
L 139.155846 178.719787 
L 142.509293 177.31048 
L 143.322249 177.320388 
L 144.033587 177.549012 
L 144.948163 178.105885 
L 146.065978 179.077065 
L 149.521044 182.343902 
L 150.232381 182.581419 
L 150.740479 182.547916 
L 151.248577 182.309902 
L 151.756675 181.840545 
L 152.569632 180.744066 
L 153.789067 179.108951 
L 154.297165 178.718228 
L 154.703643 178.630884 
L 155.110122 178.799966 
L 155.5166 179.277368 
L 156.024698 180.355581 
L 156.634415 182.260763 
L 157.447372 185.57319 
L 159.073285 193.409738 
L 160.39434 199.277265 
L 161.410536 202.818905 
L 162.223493 204.917972 
L 162.93483 206.14862 
L 163.442928 206.649053 
L 163.849406 206.807553 
L 164.255884 206.766116 
L 164.763982 206.495919 
L 165.576939 205.752001 
L 166.897994 204.500609 
L 167.507711 204.241544 
L 167.914189 204.27984 
L 168.422287 204.572761 
L 169.133624 205.308795 
L 171.369255 207.928292 
L 171.877353 208.129395 
L 172.385451 208.063928 
L 172.995169 207.711422 
L 173.909745 206.859613 
L 175.2308 205.648627 
L 175.840517 205.377978 
L 176.348615 205.390521 
L 176.958333 205.660661 
L 177.66967 206.239409 
L 178.889105 207.585286 
L 180.311779 209.078735 
L 181.531214 209.968395 
L 184.071704 211.697189 
L 185.189519 212.828756 
L 187.018672 215.048483 
L 189.152683 217.559018 
L 190.575357 218.887718 
L 191.693173 219.655024 
L 192.709369 220.101047 
L 194.132043 220.447731 
L 195.859576 220.894418 
L 196.875772 221.394467 
L 198.603305 222.564663 
L 200.229218 223.570515 
L 201.347033 223.978359 
L 202.566468 224.174343 
L 204.090762 224.182617 
L 206.936111 224.143366 
L 207.952307 224.374514 
L 208.968502 224.851618 
L 210.492796 225.589788 
L 211.102514 225.65783 
L 211.610612 225.528564 
L 212.11871 225.181686 
L 212.626808 224.5725 
L 213.338145 223.287202 
L 214.252721 221.114586 
L 216.99645 214.235207 
L 218.520744 211.500668 
L 219.740179 209.112839 
L 220.553135 207.038919 
L 221.467712 204.041977 
L 222.992005 198.122424 
L 224.719538 191.611479 
L 225.837354 188.277193 
L 227.158408 185.077124 
L 230.410235 177.678475 
L 231.223192 174.983133 
L 232.036149 171.479124 
L 232.849105 166.92363 
L 233.865301 159.740031 
L 236.304171 141.850547 
L 237.015508 138.177079 
L 237.625226 135.987738 
L 238.234943 134.550596 
L 238.743041 133.816164 
L 239.251139 133.407485 
L 239.860857 133.221236 
L 240.775433 133.242295 
L 241.994868 133.21108 
L 243.824021 133.160733 
L 244.738597 133.373391 
L 245.551554 133.803673 
L 246.669369 134.679019 
L 248.80338 136.393408 
L 249.616337 136.76376 
L 250.327674 136.860267 
L 250.937392 136.742908 
L 251.547109 136.414979 
L 252.156827 135.851963 
L 252.868164 134.865275 
L 253.579501 133.490404 
L 254.494077 131.167625 
L 255.510273 127.929509 
L 256.729708 123.255625 
L 258.355622 116.025887 
L 260.388013 107.121054 
L 261.404209 103.570994 
L 262.318785 101.194987 
L 263.131742 99.692289 
L 263.843079 98.798916 
L 264.554416 98.257067 
L 265.164134 98.042118 
L 265.875471 98.029591 
L 267.196526 98.086127 
L 267.704624 97.904446 
L 268.212721 97.491662 
L 268.720819 96.770756 
L 269.228917 95.664715 
L 269.838635 93.759791 
L 270.95645 89.317345 
L 272.074266 85.159955 
L 272.683983 83.650813 
L 273.090462 83.129936 
L 273.39532 83.05504 
L 273.700179 83.278262 
L 274.106657 83.973109 
L 274.716375 85.625925 
L 276.647147 91.443632 
L 277.053625 91.958382 
L 277.358484 92.013927 
L 277.663343 91.73415 
L 278.069821 90.862302 
L 278.577919 89.120093 
L 279.390876 85.313481 
L 281.321648 75.783512 
L 281.931366 73.974576 
L 282.439464 73.121967 
L 282.845942 72.797383 
L 283.25242 72.734758 
L 283.658899 72.882564 
L 284.268616 73.386113 
L 286.402627 75.477321 
L 286.910725 75.561199 
L 287.317204 75.413314 
L 287.723682 75.038322 
L 288.23178 74.199583 
L 288.739878 72.889148 
L 289.349595 70.60259 
L 289.959313 67.440395 
L 290.975509 60.716097 
L 292.499803 50.660182 
L 293.10952 47.815476 
L 293.617618 46.386336 
L 293.922477 46.036511 
L 294.125716 46.016389 
L 294.430575 46.270174 
L 294.837053 47.063716 
L 295.345151 48.626623 
L 296.259727 52.364374 
L 297.479162 57.24932 
L 298.08888 58.795072 
L 298.596978 59.482737 
L 299.105076 59.792224 
L 299.816413 59.906339 
L 300.52775 60.060357 
L 300.934228 60.34164 
L 301.340707 60.869761 
L 301.747185 61.729741 
L 302.255283 63.376373 
L 302.96662 66.611049 
L 304.084436 73.030113 
L 305.811969 83.03549 
L 306.624925 86.531838 
L 307.539501 89.519673 
L 310.38485 98.012419 
L 313.331818 109.189703 
L 313.839916 110.221952 
L 314.246394 110.661202 
L 314.551253 110.75621 
L 314.856112 110.670078 
L 315.26259 110.305831 
L 315.770688 109.512114 
L 316.482025 107.924575 
L 317.80308 104.253285 
L 319.124134 100.829953 
L 320.14033 98.753036 
L 321.054907 97.370481 
L 321.766244 96.652009 
L 322.375961 96.30746 
L 322.884059 96.241493 
L 323.392157 96.426838 
L 323.900255 96.912861 
L 324.408353 97.748928 
L 325.01807 99.283771 
L 325.627788 101.479068 
L 326.339125 104.988791 
L 327.253701 110.885534 
L 329.286093 124.436191 
L 329.895811 127.187017 
L 330.403908 128.568007 
L 330.708767 128.938997 
L 331.013626 128.995596 
L 331.318485 128.771817 
L 331.724963 128.096096 
L 332.233061 126.758373 
L 333.046018 123.849702 
L 334.97679 116.55677 
L 335.789747 114.444547 
L 336.501084 113.189647 
L 337.110801 112.572327 
L 337.618899 112.391681 
L 338.025377 112.471437 
L 338.431856 112.755009 
L 338.939954 113.391888 
L 339.651291 114.719956 
L 340.667487 117.213957 
L 343.207976 123.735492 
L 344.325792 125.805801 
L 345.443607 127.400502 
L 346.561423 128.627475 
L 348.085717 129.941044 
L 349.81325 131.481042 
L 350.829445 132.694068 
L 351.845641 134.282332 
L 352.861837 136.277957 
L 353.979653 138.96918 
L 355.199088 142.532393 
L 356.316903 146.472696 
L 357.434719 151.23193 
L 358.552534 156.984407 
L 361.499502 173.200613 
L 362.0076 174.584466 
L 362.414078 175.074338 
L 362.617317 175.08283 
L 362.820557 174.918804 
L 363.125415 174.338786 
L 363.531894 173.019777 
L 364.141611 170.142909 
L 365.259427 163.432642 
L 366.377242 157.217342 
L 366.98696 155.0277 
L 367.393438 154.264699 
L 367.698297 154.026458 
L 368.003156 154.038373 
L 368.308014 154.26792 
L 368.714493 154.856309 
L 369.32421 156.18728 
L 371.76308 162.102142 
L 372.474417 163.027825 
L 373.287374 163.701771 
L 374.20195 164.144088 
L 377.961875 165.622057 
L 380.299126 166.862299 
L 381.925039 167.963732 
L 383.246094 169.119992 
L 384.668768 170.674856 
L 387.412497 174.096012 
L 389.648127 177.038379 
L 390.867563 179.033419 
L 391.985378 181.294709 
L 394.627487 186.837262 
L 395.440444 187.978952 
L 396.151781 188.592377 
L 396.863118 188.926581 
L 397.879314 189.124743 
L 399.403608 189.409146 
L 400.216565 189.821888 
L 401.33438 190.662227 
L 404.281348 193.025638 
L 405.805642 193.819268 
L 413.325491 197.090175 
L 417.593514 198.443984 
L 418.914568 198.636567 
L 419.930764 198.56258 
L 422.572874 198.148583 
L 423.182591 198.342991 
L 423.792309 198.764904 
L 424.503646 199.579936 
L 425.723081 201.43089 
L 426.942516 203.185051 
L 427.653853 203.854223 
L 428.161951 204.067625 
L 428.670049 204.055267 
L 429.279766 203.803831 
L 430.092723 203.192929 
L 431.718636 201.707391 
L 431.718636 201.707391 
" clip-path="url(#p09e7c1ce84)" style="fill: none; stroke: #ff7f0e; stroke-width: 0.5; stroke-linecap: square"/>
   </g>
   <g id="line2d_29">
    <path d="M 66.091364 290.861075 
L 66.192983 290.861075 
L 66.294603 290.994545 
L 66.497842 288.952195 
L 67.00594 287.422319 
L 67.514038 286.515768 
L 67.818897 286.384875 
L 68.123755 286.505424 
L 68.530234 286.975969 
L 69.139951 288.14743 
L 69.749669 289.457364 
L 70.257767 290.0957 
L 70.867484 290.497566 
L 71.680441 290.727282 
L 72.493398 290.793395 
L 74.220931 290.1553 
L 74.525789 290.204361 
L 75.846844 290.700695 
L 77.066279 290.825032 
L 78.285714 290.817327 
L 79.098671 289.961616 
L 80.521345 288.347648 
L 81.029443 288.072604 
L 81.435921 288.075388 
L 81.944019 288.395198 
L 82.960215 289.997455 
L 83.569933 290.44762 
L 84.28127 290.688276 
L 85.500705 290.822429 
L 86.516901 290.760304 
L 87.634716 290.48909 
L 88.549292 290.342385 
L 89.362249 290.412712 
L 90.683304 290.754546 
L 92.309217 290.84657 
L 93.833511 290.791137 
L 95.052946 290.1597 
L 95.662663 290.083017 
L 96.374 290.22933 
L 97.796675 290.723334 
L 99.219349 290.836997 
L 102.064697 290.826806 
L 103.487372 289.768333 
L 103.995469 289.665194 
L 104.605187 289.797236 
L 107.247296 290.73693 
L 108.77159 290.841945 
L 109.482927 290.846562 
L 109.686166 290.509656 
L 110.092645 289.328399 
L 110.600743 287.094029 
L 112.429895 277.945103 
L 112.734754 277.510174 
L 112.937993 277.536008 
L 113.141232 277.814848 
L 113.446091 278.675862 
L 113.954189 281.03081 
L 114.360667 283.39678 
L 114.970385 286.974176 
L 115.478483 288.738954 
L 115.986581 289.718987 
L 116.494679 290.249082 
L 117.002777 290.520946 
L 117.206016 290.310439 
L 117.815733 289.195638 
L 118.831929 287.263972 
L 119.238407 286.87065 
L 119.644886 286.804007 
L 119.949745 286.959982 
L 120.457842 287.557308 
L 121.474038 289.703139 
L 121.982136 290.233542 
L 122.591854 290.563628 
L 123.201571 290.711592 
L 123.404811 290.504495 
L 125.132343 288.138981 
L 125.538822 287.977661 
L 125.9453 288.032143 
L 126.555018 288.414724 
L 127.164735 289.415086 
L 127.774453 290.14528 
L 128.38417 290.519453 
L 129.197127 290.735174 
L 130.010084 290.776845 
L 130.721421 290.364637 
L 131.331138 290.248367 
L 131.737617 290.302563 
L 133.058671 290.72695 
L 134.481345 290.837567 
L 137.936411 290.833692 
L 139.765564 289.627579 
L 140.273662 289.692024 
L 141.696336 290.599399 
L 142.610912 290.775596 
L 143.931967 290.829887 
L 144.541685 290.443447 
L 145.862739 289.548589 
L 146.370837 289.468942 
L 146.878935 289.617487 
L 147.895131 290.430684 
L 148.606468 290.679237 
L 149.724283 290.815028 
L 150.63886 290.761628 
L 152.061534 290.001453 
L 153.179349 289.587406 
L 153.687447 289.586821 
L 155.211741 290.607085 
L 156.227937 290.787956 
L 156.736035 290.726128 
L 158.05709 289.364541 
L 158.463568 289.23714 
L 158.870046 289.300256 
L 160.29272 290.510352 
L 161.105677 290.731259 
L 162.528351 290.834608 
L 165.27208 290.830859 
L 165.983417 290.140642 
L 166.593135 289.644774 
L 167.101233 289.530041 
L 167.406092 289.691311 
L 168.422287 290.462156 
L 169.235244 290.712413 
L 170.556299 290.831784 
L 171.572495 290.79294 
L 172.995169 290.086228 
L 173.909745 289.603426 
L 174.519463 289.557602 
L 174.824321 289.699108 
L 175.840517 290.461551 
L 176.653474 290.712098 
L 177.974529 290.83172 
L 179.193964 290.774856 
L 180.311779 290.584305 
L 180.921497 290.626385 
L 182.344171 290.813979 
L 185.189519 290.859626 
L 203.481045 290.812375 
L 204.59886 290.499595 
L 205.208578 290.612059 
L 206.428013 290.80033 
L 208.663644 290.855966 
L 209.070122 290.634349 
L 210.391177 289.842815 
L 211.102514 289.744435 
L 211.508992 289.996448 
L 212.321949 290.506075 
L 213.134906 290.728564 
L 214.55758 290.837929 
L 214.862438 290.653077 
L 216.081874 289.859565 
L 216.793211 289.767199 
L 217.301309 290.118664 
L 218.012646 290.528417 
L 218.825602 290.73711 
L 219.841798 290.808884 
L 220.146657 290.472965 
L 221.366092 288.954128 
L 221.77257 288.830312 
L 222.179049 289.351657 
L 222.890386 290.172826 
L 223.500103 290.531215 
L 224.21144 290.723141 
L 224.41468 290.584717 
L 225.938973 288.011133 
L 226.345452 287.937071 
L 226.548691 288.172304 
L 227.666506 290.022692 
L 228.276224 290.460826 
L 228.885941 290.671636 
L 228.987561 290.655868 
L 229.29242 290.094833 
L 230.003757 288.129322 
L 230.715094 286.41699 
L 231.121572 285.988741 
L 231.426431 285.991869 
L 231.832909 286.336519 
L 232.137768 287.132436 
L 232.849105 289.105604 
L 233.357203 289.90436 
L 233.966921 290.406761 
L 234.373399 290.506676 
L 234.678258 289.754101 
L 236.202552 285.19401 
L 236.50741 285.057596 
L 236.812269 285.261328 
L 237.218748 285.946375 
L 237.625226 286.902975 
L 238.336563 288.971643 
L 238.844661 289.829335 
L 239.352759 290.305781 
L 240.064096 290.629325 
L 240.368955 290.65053 
L 240.775433 290.034501 
L 242.401346 287.199571 
L 242.807825 287.049707 
L 243.112684 287.156329 
L 243.620781 287.672789 
L 243.92564 288.152054 
L 244.738597 289.702774 
L 245.246695 290.230798 
L 245.856412 290.561929 
L 246.770989 290.763888 
L 246.974228 290.628254 
L 247.583945 289.524606 
L 248.905 286.813091 
L 249.209859 286.594158 
L 249.514718 286.624545 
L 249.921196 286.969006 
L 250.429294 288.28948 
L 251.039011 289.569778 
L 251.547109 290.161216 
L 252.156827 290.529337 
L 252.563305 290.577102 
L 252.868164 289.815236 
L 253.376262 287.814279 
L 254.697316 282.119366 
L 255.002175 281.592374 
L 255.205414 281.494923 
L 255.408654 281.592775 
L 255.713512 282.05936 
L 256.22161 283.425453 
L 258.254002 289.600714 
L 258.7621 290.182637 
L 259.371817 290.540216 
L 259.575057 290.590979 
L 259.778296 290.128025 
L 260.286394 288.036007 
L 261.607448 281.823333 
L 262.013927 280.913927 
L 262.420405 280.551128 
L 262.826883 280.562856 
L 263.334981 280.891698 
L 263.843079 281.518369 
L 264.351177 282.555652 
L 265.062514 284.747697 
L 265.977091 288.495963 
L 266.485188 289.576846 
L 266.993286 290.171059 
L 267.603004 290.534921 
L 267.704624 290.525586 
L 268.009482 289.928034 
L 268.6192 288.113758 
L 269.737015 284.720654 
L 270.346733 283.615579 
L 270.753211 283.295073 
L 271.05807 283.317743 
L 271.362929 283.585692 
L 271.769407 284.310599 
L 272.480744 286.277596 
L 273.293701 288.892633 
L 273.801799 289.789478 
L 274.309897 290.284858 
L 274.919614 290.58866 
L 275.83419 290.772678 
L 276.240669 290.707616 
L 277.155245 290.390652 
L 279.390876 290.805264 
L 279.797354 290.469715 
L 280.711931 289.636183 
L 281.220029 289.561922 
L 282.845942 290.630017 
L 283.862138 290.794633 
L 284.268616 290.796567 
L 284.675094 290.389296 
L 285.589671 289.093586 
L 286.504247 287.903474 
L 286.910725 287.664439 
L 287.317204 287.698782 
L 287.520443 287.803135 
L 288.028541 288.834995 
L 288.638258 289.842979 
L 289.247976 290.373523 
L 289.857693 290.630125 
L 289.959313 290.538774 
L 290.365791 289.110496 
L 290.873889 286.210145 
L 291.890085 280.185374 
L 292.194944 279.406932 
L 292.398183 279.296461 
L 292.601422 279.513083 
L 292.906281 280.392229 
L 293.414379 282.793585 
L 294.430575 288.053853 
L 294.938673 289.340373 
L 295.446771 290.044583 
L 296.056488 290.475256 
L 296.666206 290.67214 
L 297.275923 290.522378 
L 297.682402 290.457582 
L 300.121272 290.833586 
L 300.62937 290.738702 
L 301.645565 290.458381 
L 303.474718 290.806409 
L 304.592533 290.803899 
L 306.015208 289.370518 
L 306.523306 289.289848 
L 307.133023 289.481731 
L 307.437882 289.693586 
L 308.352458 290.421544 
L 309.063795 290.675259 
L 310.181611 290.814008 
L 310.588089 290.798288 
L 311.197807 290.160279 
L 312.7221 288.415859 
L 313.128579 288.252607 
L 313.636677 288.351188 
L 313.839916 288.485231 
L 315.16097 290.258814 
L 315.770688 290.574496 
L 316.685264 290.767945 
L 317.193362 290.72797 
L 317.904699 289.897693 
L 318.616036 288.64209 
L 319.733852 286.652198 
L 320.14033 286.283247 
L 320.546809 286.218345 
L 320.953287 286.462143 
L 321.359765 286.970327 
L 321.969483 288.110063 
L 322.5792 289.430583 
L 323.087298 290.080291 
L 323.697016 290.490122 
L 324.509972 290.724528 
L 324.916451 290.715383 
L 325.526168 289.673128 
L 326.237505 287.915595 
L 327.355321 285.073638 
L 327.863419 284.38277 
L 328.168278 284.23928 
L 328.473136 284.303626 
L 328.879615 284.687224 
L 329.387713 285.569972 
L 329.99743 287.116688 
L 330.607148 288.916294 
L 331.115246 289.799829 
L 331.623344 290.290017 
L 332.233061 290.591031 
L 332.53792 290.642053 
L 332.842779 290.147213 
L 334.671931 286.63631 
L 335.078409 286.461481 
L 335.383268 286.540016 
L 335.789747 286.898063 
L 336.399464 287.791889 
L 337.41566 289.786684 
L 337.923758 290.278859 
L 338.533475 290.585114 
L 339.448052 290.771449 
L 339.75291 290.686381 
L 341.582063 289.549878 
L 342.191781 289.439047 
L 342.598259 289.501213 
L 343.919314 290.519557 
L 344.73227 290.734464 
L 345.748466 290.796268 
L 346.358184 290.146868 
L 347.27276 289.235086 
L 347.882477 288.951234 
L 348.390575 288.939787 
L 349.000293 289.140675 
L 349.81325 289.638824 
L 350.727826 290.396669 
L 351.439163 290.664576 
L 352.556978 290.811302 
L 354.081272 290.796706 
L 355.605566 289.87355 
L 357.02824 289.033824 
L 357.536338 288.943318 
L 358.044436 289.044284 
L 358.349295 289.323237 
L 359.162252 290.208257 
L 359.771969 290.547398 
L 360.686545 290.758871 
L 361.804361 290.796707 
L 363.328655 289.307665 
L 364.852948 287.810754 
L 365.259427 287.78811 
L 365.665905 288.011216 
L 365.970764 288.482565 
L 366.682101 289.733064 
L 367.291818 290.317082 
L 368.003156 290.633298 
L 369.019351 290.795829 
L 371.254982 290.856875 
L 372.982515 290.783578 
L 374.506809 290.301161 
L 376.437581 290.79189 
L 378.165114 290.850576 
L 378.571593 290.63042 
L 379.689408 290.016112 
L 380.299126 289.909065 
L 381.010463 290.028697 
L 382.636376 290.714092 
L 383.957431 290.83203 
L 388.123834 290.860857 
L 395.338824 290.763774 
L 396.45664 290.325649 
L 397.167977 290.337745 
L 398.387412 290.721555 
L 399.810086 290.836634 
L 404.586207 290.860982 
L 406.110501 290.755579 
L 406.923457 290.784477 
L 409.260708 290.856378 
L 423.893928 290.830478 
L 424.706885 290.077859 
L 426.840896 287.786841 
L 427.348994 287.586024 
L 427.857092 287.619514 
L 428.36519 287.907551 
L 428.974908 288.56355 
L 429.787864 289.892196 
L 430.397582 290.395892 
L 431.108919 290.666518 
L 431.718636 290.769187 
L 431.718636 290.769187 
" clip-path="url(#p09e7c1ce84)" style="fill: none; stroke: #2ca02c; stroke-width: 0.5; stroke-linecap: square"/>
   </g>
   <g id="patch_3">
    <path d="M 47.81 303.64 
L 47.81 25.44 
" style="fill: none; stroke: #000000; stroke-width: 0.8; stroke-linejoin: miter; stroke-linecap: square"/>
   </g>
   <g id="patch_4">
    <path d="M 450 303.64 
L 450 25.44 
" style="fill: none; stroke: #000000; stroke-width: 0.8; stroke-linejoin: miter; stroke-linecap: square"/>
   </g>
   <g id="patch_5">
    <path d="M 47.81 303.64 
L 450 303.64 
" style="fill: none; stroke: #000000; stroke-width: 0.8; stroke-linejoin: miter; stroke-linecap: square"/>
   </g>
   <g id="patch_6">
    <path d="M 47.81 25.44 
L 450 25.44 
" style="fill: none; stroke: #000000; stroke-width: 0.8; stroke-linejoin: miter; stroke-linecap: square"/>
   </g>
   <g id="text_16">
    <!-- data_3_E4 Separated EDA plot -->
    <g transform="translate(157.349688 19.44) scale(0.12 -0.12)">
     <defs>
      <path id="DejaVuSans-5f" d="M 3263 -1063 
L 3263 -1509 
L -63 -1509 
L -63 -1063 
L 3263 -1063 
z
" transform="scale(0.015625)"/>
      <path id="DejaVuSans-33" d="M 2597 2516 
Q 3050 2419 3304 2112 
Q 3559 1806 3559 1356 
Q 3559 666 3084 287 
Q 2609 -91 1734 -91 
Q 1441 -91 1130 -33 
Q 819 25 488 141 
L 488 750 
Q 750 597 1062 519 
Q 1375 441 1716 441 
Q 2309 441 2620 675 
Q 2931 909 2931 1356 
Q 2931 1769 2642 2001 
Q 2353 2234 1838 2234 
L 1294 2234 
L 1294 2753 
L 1863 2753 
Q 2328 2753 2575 2939 
Q 2822 3125 2822 3475 
Q 2822 3834 2567 4026 
Q 2313 4219 1838 4219 
Q 1578 4219 1281 4162 
Q 984 4106 628 3988 
L 628 4550 
Q 988 4650 1302 4700 
Q 1616 4750 1894 4750 
Q 2613 4750 3031 4423 
Q 3450 4097 3450 3541 
Q 3450 3153 3228 2886 
Q 3006 2619 2597 2516 
z
" transform="scale(0.015625)"/>
      <path id="DejaVuSans-70" d="M 1159 525 
L 1159 -1331 
L 581 -1331 
L 581 3500 
L 1159 3500 
L 1159 2969 
Q 1341 3281 1617 3432 
Q 1894 3584 2278 3584 
Q 2916 3584 3314 3078 
Q 3713 2572 3713 1747 
Q 3713 922 3314 415 
Q 2916 -91 2278 -91 
Q 1894 -91 1617 61 
Q 1341 213 1159 525 
z
M 3116 1747 
Q 3116 2381 2855 2742 
Q 2594 3103 2138 3103 
Q 1681 3103 1420 2742 
Q 1159 2381 1159 1747 
Q 1159 1113 1420 752 
Q 1681 391 2138 391 
Q 2594 391 2855 752 
Q 3116 1113 3116 1747 
z
" transform="scale(0.015625)"/>
      <path id="DejaVuSans-6f" d="M 1959 3097 
Q 1497 3097 1228 2736 
Q 959 2375 959 1747 
Q 959 1119 1226 758 
Q 1494 397 1959 397 
Q 2419 397 2687 759 
Q 2956 1122 2956 1747 
Q 2956 2369 2687 2733 
Q 2419 3097 1959 3097 
z
M 1959 3584 
Q 2709 3584 3137 3096 
Q 3566 2609 3566 1747 
Q 3566 888 3137 398 
Q 2709 -91 1959 -91 
Q 1206 -91 779 398 
Q 353 888 353 1747 
Q 353 2609 779 3096 
Q 1206 3584 1959 3584 
z
" transform="scale(0.015625)"/>
     </defs>
     <use xlink:href="#DejaVuSans-64"/>
     <use xlink:href="#DejaVuSans-61" transform="translate(63.476562 0)"/>
     <use xlink:href="#DejaVuSans-74" transform="translate(124.755859 0)"/>
     <use xlink:href="#DejaVuSans-61" transform="translate(163.964844 0)"/>
     <use xlink:href="#DejaVuSans-5f" transform="translate(225.244141 0)"/>
     <use xlink:href="#DejaVuSans-33" transform="translate(275.244141 0)"/>
     <use xlink:href="#DejaVuSans-5f" transform="translate(338.867188 0)"/>
     <use xlink:href="#DejaVuSans-45" transform="translate(388.867188 0)"/>
     <use xlink:href="#DejaVuSans-34" transform="translate(452.050781 0)"/>
     <use xlink:href="#DejaVuSans-20" transform="translate(515.673828 0)"/>
     <use xlink:href="#DejaVuSans-53" transform="translate(547.460938 0)"/>
     <use xlink:href="#DejaVuSans-65" transform="translate(610.9375 0)"/>
     <use xlink:href="#DejaVuSans-70" transform="translate(672.460938 0)"/>
     <use xlink:href="#DejaVuSans-61" transform="translate(735.9375 0)"/>
     <use xlink:href="#DejaVuSans-72" transform="translate(797.216797 0)"/>
     <use xlink:href="#DejaVuSans-61" transform="translate(838.330078 0)"/>
     <use xlink:href="#DejaVuSans-74" transform="translate(899.609375 0)"/>
     <use xlink:href="#DejaVuSans-65" transform="translate(938.818359 0)"/>
     <use xlink:href="#DejaVuSans-64" transform="translate(1000.341797 0)"/>
     <use xlink:href="#DejaVuSans-20" transform="translate(1063.818359 0)"/>
     <use xlink:href="#DejaVuSans-45" transform="translate(1095.605469 0)"/>
     <use xlink:href="#DejaVuSans-44" transform="translate(1158.789062 0)"/>
     <use xlink:href="#DejaVuSans-41" transform="translate(1234.041016 0)"/>
     <use xlink:href="#DejaVuSans-20" transform="translate(1302.449219 0)"/>
     <use xlink:href="#DejaVuSans-70" transform="translate(1334.236328 0)"/>
     <use xlink:href="#DejaVuSans-6c" transform="translate(1397.712891 0)"/>
     <use xlink:href="#DejaVuSans-6f" transform="translate(1425.496094 0)"/>
     <use xlink:href="#DejaVuSans-74" transform="translate(1486.677734 0)"/>
    </g>
   </g>
   <g id="legend_1">
    <g id="patch_7">
     <path d="M 350.09375 77.474375 
L 443 77.474375 
Q 445 77.474375 445 75.474375 
L 445 32.44 
Q 445 30.44 443 30.44 
L 350.09375 30.44 
Q 348.09375 30.44 348.09375 32.44 
L 348.09375 75.474375 
Q 348.09375 77.474375 350.09375 77.474375 
z
" style="fill: #ffffff; opacity: 0.8; stroke: #cccccc; stroke-linejoin: miter"/>
    </g>
    <g id="line2d_30">
     <path d="M 352.09375 38.538437 
L 362.09375 38.538437 
L 372.09375 38.538437 
" style="fill: none; stroke-dasharray: 1.85,0.8; stroke-dashoffset: 0; stroke: #1f77b4; stroke-width: 0.5"/>
    </g>
    <g id="text_17">
     <!-- Filtered EDA -->
     <g transform="translate(380.09375 42.038437) scale(0.1 -0.1)">
      <defs>
       <path id="DejaVuSans-46" d="M 628 4666 
L 3309 4666 
L 3309 4134 
L 1259 4134 
L 1259 2759 
L 3109 2759 
L 3109 2228 
L 1259 2228 
L 1259 0 
L 628 0 
L 628 4666 
z
" transform="scale(0.015625)"/>
      </defs>
      <use xlink:href="#DejaVuSans-46"/>
      <use xlink:href="#DejaVuSans-69" transform="translate(50.269531 0)"/>
      <use xlink:href="#DejaVuSans-6c" transform="translate(78.052734 0)"/>
      <use xlink:href="#DejaVuSans-74" transform="translate(105.835938 0)"/>
      <use xlink:href="#DejaVuSans-65" transform="translate(145.044922 0)"/>
      <use xlink:href="#DejaVuSans-72" transform="translate(206.568359 0)"/>
      <use xlink:href="#DejaVuSans-65" transform="translate(245.431641 0)"/>
      <use xlink:href="#DejaVuSans-64" transform="translate(306.955078 0)"/>
      <use xlink:href="#DejaVuSans-20" transform="translate(370.431641 0)"/>
      <use xlink:href="#DejaVuSans-45" transform="translate(402.21875 0)"/>
      <use xlink:href="#DejaVuSans-44" transform="translate(465.402344 0)"/>
      <use xlink:href="#DejaVuSans-41" transform="translate(540.654297 0)"/>
     </g>
    </g>
    <g id="line2d_31">
     <path d="M 352.09375 53.216562 
L 362.09375 53.216562 
L 372.09375 53.216562 
" style="fill: none; stroke: #ff7f0e; stroke-width: 0.5; stroke-linecap: square"/>
    </g>
    <g id="text_18">
     <!-- Tonic -->
     <g transform="translate(380.09375 56.716562) scale(0.1 -0.1)">
      <defs>
       <path id="DejaVuSans-63" d="M 3122 3366 
L 3122 2828 
Q 2878 2963 2633 3030 
Q 2388 3097 2138 3097 
Q 1578 3097 1268 2742 
Q 959 2388 959 1747 
Q 959 1106 1268 751 
Q 1578 397 2138 397 
Q 2388 397 2633 464 
Q 2878 531 3122 666 
L 3122 134 
Q 2881 22 2623 -34 
Q 2366 -91 2075 -91 
Q 1284 -91 818 406 
Q 353 903 353 1747 
Q 353 2603 823 3093 
Q 1294 3584 2113 3584 
Q 2378 3584 2631 3529 
Q 2884 3475 3122 3366 
z
" transform="scale(0.015625)"/>
      </defs>
      <use xlink:href="#DejaVuSans-54"/>
      <use xlink:href="#DejaVuSans-6f" transform="translate(44.083984 0)"/>
      <use xlink:href="#DejaVuSans-6e" transform="translate(105.265625 0)"/>
      <use xlink:href="#DejaVuSans-69" transform="translate(168.644531 0)"/>
      <use xlink:href="#DejaVuSans-63" transform="translate(196.427734 0)"/>
     </g>
    </g>
    <g id="line2d_32">
     <path d="M 352.09375 67.894687 
L 362.09375 67.894687 
L 372.09375 67.894687 
" style="fill: none; stroke: #2ca02c; stroke-width: 0.5; stroke-linecap: square"/>
    </g>
    <g id="text_19">
     <!-- Phasic -->
     <g transform="translate(380.09375 71.394687) scale(0.1 -0.1)">
      <defs>
       <path id="DejaVuSans-50" d="M 1259 4147 
L 1259 2394 
L 2053 2394 
Q 2494 2394 2734 2622 
Q 2975 2850 2975 3272 
Q 2975 3691 2734 3919 
Q 2494 4147 2053 4147 
L 1259 4147 
z
M 628 4666 
L 2053 4666 
Q 2838 4666 3239 4311 
Q 3641 3956 3641 3272 
Q 3641 2581 3239 2228 
Q 2838 1875 2053 1875 
L 1259 1875 
L 1259 0 
L 628 0 
L 628 4666 
z
" transform="scale(0.015625)"/>
       <path id="DejaVuSans-68" d="M 3513 2113 
L 3513 0 
L 2938 0 
L 2938 2094 
Q 2938 2591 2744 2837 
Q 2550 3084 2163 3084 
Q 1697 3084 1428 2787 
Q 1159 2491 1159 1978 
L 1159 0 
L 581 0 
L 581 4863 
L 1159 4863 
L 1159 2956 
Q 1366 3272 1645 3428 
Q 1925 3584 2291 3584 
Q 2894 3584 3203 3211 
Q 3513 2838 3513 2113 
z
" transform="scale(0.015625)"/>
      </defs>
      <use xlink:href="#DejaVuSans-50"/>
      <use xlink:href="#DejaVuSans-68" transform="translate(60.302734 0)"/>
      <use xlink:href="#DejaVuSans-61" transform="translate(123.681641 0)"/>
      <use xlink:href="#DejaVuSans-73" transform="translate(184.960938 0)"/>
      <use xlink:href="#DejaVuSans-69" transform="translate(237.060547 0)"/>
      <use xlink:href="#DejaVuSans-63" transform="translate(264.84375 0)"/>
     </g>
    </g>
   </g>
  </g>
 </g>
 <defs>
  <clipPath id="p09e7c1ce84">
   <rect x="47.81" y="25.44" width="402.19" height="278.2"/>
  </clipPath>
 </defs>
</svg>
