<?xml version="1.0" encoding="utf-8" standalone="no"?>
<!DOCTYPE svg PUBLIC "-//W3C//DTD SVG 1.1//EN"
  "http://www.w3.org/Graphics/SVG/1.1/DTD/svg11.dtd">
<svg xmlns:xlink="http://www.w3.org/1999/xlink" width="460.8pt" height="345.6pt" viewBox="0 0 460.8 345.6" xmlns="http://www.w3.org/2000/svg" version="1.1">
 <metadata>
  <rdf:RDF xmlns:dc="http://purl.org/dc/elements/1.1/" xmlns:cc="http://creativecommons.org/ns#" xmlns:rdf="http://www.w3.org/1999/02/22-rdf-syntax-ns#">
   <cc:Work>
    <dc:type rdf:resource="http://purl.org/dc/dcmitype/StillImage"/>
    <dc:date>2025-09-22T15:39:27.927669</dc:date>
    <dc:format>image/svg+xml</dc:format>
    <dc:creator>
     <cc:Agent>
      <dc:title>Matplotlib v3.10.0, https://matplotlib.org/</dc:title>
     </cc:Agent>
    </dc:creator>
   </cc:Work>
  </rdf:RDF>
 </metadata>
 <defs>
  <style type="text/css">*{stroke-linejoin: round; stroke-linecap: butt}</style>
 </defs>
 <g id="figure_1">
  <g id="patch_1">
   <path d="M 0 345.6 
L 460.8 345.6 
L 460.8 0 
L 0 0 
z
" style="fill: #ffffff"/>
  </g>
  <g id="axes_1">
   <g id="patch_2">
    <path d="M 47.81 303.64 
L 450 303.64 
L 450 25.44 
L 47.81 25.44 
z
" style="fill: #ffffff"/>
   </g>
   <g id="matplotlib.axis_1">
    <g id="xtick_1">
     <g id="line2d_1">
      <path d="M 66.091364 303.64 
L 66.091364 25.44 
" clip-path="url(#p3cc07449c3)" style="fill: none; stroke: #b0b0b0; stroke-opacity: 0.3; stroke-width: 0.8; stroke-linecap: square"/>
     </g>
     <g id="line2d_2">
      <defs>
       <path id="mb8437e6357" d="M 0 0 
L 0 3.5 
" style="stroke: #000000; stroke-width: 0.8"/>
      </defs>
      <g>
       <use xlink:href="#mb8437e6357" x="66.091364" y="303.64" style="stroke: #000000; stroke-width: 0.8"/>
      </g>
     </g>
     <g id="text_1">
      <!-- 0 -->
      <g transform="translate(62.910114 318.238437) scale(0.1 -0.1)">
       <defs>
        <path id="DejaVuSans-30" d="M 2034 4250 
Q 1547 4250 1301 3770 
Q 1056 3291 1056 2328 
Q 1056 1369 1301 889 
Q 1547 409 2034 409 
Q 2525 409 2770 889 
Q 3016 1369 3016 2328 
Q 3016 3291 2770 3770 
Q 2525 4250 2034 4250 
z
M 2034 4750 
Q 2819 4750 3233 4129 
Q 3647 3509 3647 2328 
Q 3647 1150 3233 529 
Q 2819 -91 2034 -91 
Q 1250 -91 836 529 
Q 422 1150 422 2328 
Q 422 3509 836 4129 
Q 1250 4750 2034 4750 
z
" transform="scale(0.015625)"/>
       </defs>
       <use xlink:href="#DejaVuSans-30"/>
      </g>
     </g>
    </g>
    <g id="xtick_2">
     <g id="line2d_3">
      <path d="M 114.841667 303.64 
L 114.841667 25.44 
" clip-path="url(#p3cc07449c3)" style="fill: none; stroke: #b0b0b0; stroke-opacity: 0.3; stroke-width: 0.8; stroke-linecap: square"/>
     </g>
     <g id="line2d_4">
      <g>
       <use xlink:href="#mb8437e6357" x="114.841667" y="303.64" style="stroke: #000000; stroke-width: 0.8"/>
      </g>
     </g>
     <g id="text_2">
      <!-- 2 -->
      <g transform="translate(111.660417 318.238437) scale(0.1 -0.1)">
       <defs>
        <path id="DejaVuSans-32" d="M 1228 531 
L 3431 531 
L 3431 0 
L 469 0 
L 469 531 
Q 828 903 1448 1529 
Q 2069 2156 2228 2338 
Q 2531 2678 2651 2914 
Q 2772 3150 2772 3378 
Q 2772 3750 2511 3984 
Q 2250 4219 1831 4219 
Q 1534 4219 1204 4116 
Q 875 4013 500 3803 
L 500 4441 
Q 881 4594 1212 4672 
Q 1544 4750 1819 4750 
Q 2544 4750 2975 4387 
Q 3406 4025 3406 3419 
Q 3406 3131 3298 2873 
Q 3191 2616 2906 2266 
Q 2828 2175 2409 1742 
Q 1991 1309 1228 531 
z
" transform="scale(0.015625)"/>
       </defs>
       <use xlink:href="#DejaVuSans-32"/>
      </g>
     </g>
    </g>
    <g id="xtick_3">
     <g id="line2d_5">
      <path d="M 163.59197 303.64 
L 163.59197 25.44 
" clip-path="url(#p3cc07449c3)" style="fill: none; stroke: #b0b0b0; stroke-opacity: 0.3; stroke-width: 0.8; stroke-linecap: square"/>
     </g>
     <g id="line2d_6">
      <g>
       <use xlink:href="#mb8437e6357" x="163.59197" y="303.64" style="stroke: #000000; stroke-width: 0.8"/>
      </g>
     </g>
     <g id="text_3">
      <!-- 4 -->
      <g transform="translate(160.41072 318.238437) scale(0.1 -0.1)">
       <defs>
        <path id="DejaVuSans-34" d="M 2419 4116 
L 825 1625 
L 2419 1625 
L 2419 4116 
z
M 2253 4666 
L 3047 4666 
L 3047 1625 
L 3713 1625 
L 3713 1100 
L 3047 1100 
L 3047 0 
L 2419 0 
L 2419 1100 
L 313 1100 
L 313 1709 
L 2253 4666 
z
" transform="scale(0.015625)"/>
       </defs>
       <use xlink:href="#DejaVuSans-34"/>
      </g>
     </g>
    </g>
    <g id="xtick_4">
     <g id="line2d_7">
      <path d="M 212.342273 303.64 
L 212.342273 25.44 
" clip-path="url(#p3cc07449c3)" style="fill: none; stroke: #b0b0b0; stroke-opacity: 0.3; stroke-width: 0.8; stroke-linecap: square"/>
     </g>
     <g id="line2d_8">
      <g>
       <use xlink:href="#mb8437e6357" x="212.342273" y="303.64" style="stroke: #000000; stroke-width: 0.8"/>
      </g>
     </g>
     <g id="text_4">
      <!-- 6 -->
      <g transform="translate(209.161023 318.238437) scale(0.1 -0.1)">
       <defs>
        <path id="DejaVuSans-36" d="M 2113 2584 
Q 1688 2584 1439 2293 
Q 1191 2003 1191 1497 
Q 1191 994 1439 701 
Q 1688 409 2113 409 
Q 2538 409 2786 701 
Q 3034 994 3034 1497 
Q 3034 2003 2786 2293 
Q 2538 2584 2113 2584 
z
M 3366 4563 
L 3366 3988 
Q 3128 4100 2886 4159 
Q 2644 4219 2406 4219 
Q 1781 4219 1451 3797 
Q 1122 3375 1075 2522 
Q 1259 2794 1537 2939 
Q 1816 3084 2150 3084 
Q 2853 3084 3261 2657 
Q 3669 2231 3669 1497 
Q 3669 778 3244 343 
Q 2819 -91 2113 -91 
Q 1303 -91 875 529 
Q 447 1150 447 2328 
Q 447 3434 972 4092 
Q 1497 4750 2381 4750 
Q 2619 4750 2861 4703 
Q 3103 4656 3366 4563 
z
" transform="scale(0.015625)"/>
       </defs>
       <use xlink:href="#DejaVuSans-36"/>
      </g>
     </g>
    </g>
    <g id="xtick_5">
     <g id="line2d_9">
      <path d="M 261.092576 303.64 
L 261.092576 25.44 
" clip-path="url(#p3cc07449c3)" style="fill: none; stroke: #b0b0b0; stroke-opacity: 0.3; stroke-width: 0.8; stroke-linecap: square"/>
     </g>
     <g id="line2d_10">
      <g>
       <use xlink:href="#mb8437e6357" x="261.092576" y="303.64" style="stroke: #000000; stroke-width: 0.8"/>
      </g>
     </g>
     <g id="text_5">
      <!-- 8 -->
      <g transform="translate(257.911326 318.238437) scale(0.1 -0.1)">
       <defs>
        <path id="DejaVuSans-38" d="M 2034 2216 
Q 1584 2216 1326 1975 
Q 1069 1734 1069 1313 
Q 1069 891 1326 650 
Q 1584 409 2034 409 
Q 2484 409 2743 651 
Q 3003 894 3003 1313 
Q 3003 1734 2745 1975 
Q 2488 2216 2034 2216 
z
M 1403 2484 
Q 997 2584 770 2862 
Q 544 3141 544 3541 
Q 544 4100 942 4425 
Q 1341 4750 2034 4750 
Q 2731 4750 3128 4425 
Q 3525 4100 3525 3541 
Q 3525 3141 3298 2862 
Q 3072 2584 2669 2484 
Q 3125 2378 3379 2068 
Q 3634 1759 3634 1313 
Q 3634 634 3220 271 
Q 2806 -91 2034 -91 
Q 1263 -91 848 271 
Q 434 634 434 1313 
Q 434 1759 690 2068 
Q 947 2378 1403 2484 
z
M 1172 3481 
Q 1172 3119 1398 2916 
Q 1625 2713 2034 2713 
Q 2441 2713 2670 2916 
Q 2900 3119 2900 3481 
Q 2900 3844 2670 4047 
Q 2441 4250 2034 4250 
Q 1625 4250 1398 4047 
Q 1172 3844 1172 3481 
z
" transform="scale(0.015625)"/>
       </defs>
       <use xlink:href="#DejaVuSans-38"/>
      </g>
     </g>
    </g>
    <g id="xtick_6">
     <g id="line2d_11">
      <path d="M 309.842879 303.64 
L 309.842879 25.44 
" clip-path="url(#p3cc07449c3)" style="fill: none; stroke: #b0b0b0; stroke-opacity: 0.3; stroke-width: 0.8; stroke-linecap: square"/>
     </g>
     <g id="line2d_12">
      <g>
       <use xlink:href="#mb8437e6357" x="309.842879" y="303.64" style="stroke: #000000; stroke-width: 0.8"/>
      </g>
     </g>
     <g id="text_6">
      <!-- 10 -->
      <g transform="translate(303.480379 318.238437) scale(0.1 -0.1)">
       <defs>
        <path id="DejaVuSans-31" d="M 794 531 
L 1825 531 
L 1825 4091 
L 703 3866 
L 703 4441 
L 1819 4666 
L 2450 4666 
L 2450 531 
L 3481 531 
L 3481 0 
L 794 0 
L 794 531 
z
" transform="scale(0.015625)"/>
       </defs>
       <use xlink:href="#DejaVuSans-31"/>
       <use xlink:href="#DejaVuSans-30" transform="translate(63.623047 0)"/>
      </g>
     </g>
    </g>
    <g id="xtick_7">
     <g id="line2d_13">
      <path d="M 358.593182 303.64 
L 358.593182 25.44 
" clip-path="url(#p3cc07449c3)" style="fill: none; stroke: #b0b0b0; stroke-opacity: 0.3; stroke-width: 0.8; stroke-linecap: square"/>
     </g>
     <g id="line2d_14">
      <g>
       <use xlink:href="#mb8437e6357" x="358.593182" y="303.64" style="stroke: #000000; stroke-width: 0.8"/>
      </g>
     </g>
     <g id="text_7">
      <!-- 12 -->
      <g transform="translate(352.230682 318.238437) scale(0.1 -0.1)">
       <use xlink:href="#DejaVuSans-31"/>
       <use xlink:href="#DejaVuSans-32" transform="translate(63.623047 0)"/>
      </g>
     </g>
    </g>
    <g id="xtick_8">
     <g id="line2d_15">
      <path d="M 407.343485 303.64 
L 407.343485 25.44 
" clip-path="url(#p3cc07449c3)" style="fill: none; stroke: #b0b0b0; stroke-opacity: 0.3; stroke-width: 0.8; stroke-linecap: square"/>
     </g>
     <g id="line2d_16">
      <g>
       <use xlink:href="#mb8437e6357" x="407.343485" y="303.64" style="stroke: #000000; stroke-width: 0.8"/>
      </g>
     </g>
     <g id="text_8">
      <!-- 14 -->
      <g transform="translate(400.980985 318.238437) scale(0.1 -0.1)">
       <use xlink:href="#DejaVuSans-31"/>
       <use xlink:href="#DejaVuSans-34" transform="translate(63.623047 0)"/>
      </g>
     </g>
    </g>
    <g id="text_9">
     <!-- Time (minutes) -->
     <g transform="translate(210.9425 331.916562) scale(0.1 -0.1)">
      <defs>
       <path id="DejaVuSans-54" d="M -19 4666 
L 3928 4666 
L 3928 4134 
L 2272 4134 
L 2272 0 
L 1638 0 
L 1638 4134 
L -19 4134 
L -19 4666 
z
" transform="scale(0.015625)"/>
       <path id="DejaVuSans-69" d="M 603 3500 
L 1178 3500 
L 1178 0 
L 603 0 
L 603 3500 
z
M 603 4863 
L 1178 4863 
L 1178 4134 
L 603 4134 
L 603 4863 
z
" transform="scale(0.015625)"/>
       <path id="DejaVuSans-6d" d="M 3328 2828 
Q 3544 3216 3844 3400 
Q 4144 3584 4550 3584 
Q 5097 3584 5394 3201 
Q 5691 2819 5691 2113 
L 5691 0 
L 5113 0 
L 5113 2094 
Q 5113 2597 4934 2840 
Q 4756 3084 4391 3084 
Q 3944 3084 3684 2787 
Q 3425 2491 3425 1978 
L 3425 0 
L 2847 0 
L 2847 2094 
Q 2847 2600 2669 2842 
Q 2491 3084 2119 3084 
Q 1678 3084 1418 2786 
Q 1159 2488 1159 1978 
L 1159 0 
L 581 0 
L 581 3500 
L 1159 3500 
L 1159 2956 
Q 1356 3278 1631 3431 
Q 1906 3584 2284 3584 
Q 2666 3584 2933 3390 
Q 3200 3197 3328 2828 
z
" transform="scale(0.015625)"/>
       <path id="DejaVuSans-65" d="M 3597 1894 
L 3597 1613 
L 953 1613 
Q 991 1019 1311 708 
Q 1631 397 2203 397 
Q 2534 397 2845 478 
Q 3156 559 3463 722 
L 3463 178 
Q 3153 47 2828 -22 
Q 2503 -91 2169 -91 
Q 1331 -91 842 396 
Q 353 884 353 1716 
Q 353 2575 817 3079 
Q 1281 3584 2069 3584 
Q 2775 3584 3186 3129 
Q 3597 2675 3597 1894 
z
M 3022 2063 
Q 3016 2534 2758 2815 
Q 2500 3097 2075 3097 
Q 1594 3097 1305 2825 
Q 1016 2553 972 2059 
L 3022 2063 
z
" transform="scale(0.015625)"/>
       <path id="DejaVuSans-20" transform="scale(0.015625)"/>
       <path id="DejaVuSans-28" d="M 1984 4856 
Q 1566 4138 1362 3434 
Q 1159 2731 1159 2009 
Q 1159 1288 1364 580 
Q 1569 -128 1984 -844 
L 1484 -844 
Q 1016 -109 783 600 
Q 550 1309 550 2009 
Q 550 2706 781 3412 
Q 1013 4119 1484 4856 
L 1984 4856 
z
" transform="scale(0.015625)"/>
       <path id="DejaVuSans-6e" d="M 3513 2113 
L 3513 0 
L 2938 0 
L 2938 2094 
Q 2938 2591 2744 2837 
Q 2550 3084 2163 3084 
Q 1697 3084 1428 2787 
Q 1159 2491 1159 1978 
L 1159 0 
L 581 0 
L 581 3500 
L 1159 3500 
L 1159 2956 
Q 1366 3272 1645 3428 
Q 1925 3584 2291 3584 
Q 2894 3584 3203 3211 
Q 3513 2838 3513 2113 
z
" transform="scale(0.015625)"/>
       <path id="DejaVuSans-75" d="M 544 1381 
L 544 3500 
L 1119 3500 
L 1119 1403 
Q 1119 906 1312 657 
Q 1506 409 1894 409 
Q 2359 409 2629 706 
Q 2900 1003 2900 1516 
L 2900 3500 
L 3475 3500 
L 3475 0 
L 2900 0 
L 2900 538 
Q 2691 219 2414 64 
Q 2138 -91 1772 -91 
Q 1169 -91 856 284 
Q 544 659 544 1381 
z
M 1991 3584 
L 1991 3584 
z
" transform="scale(0.015625)"/>
       <path id="DejaVuSans-74" d="M 1172 4494 
L 1172 3500 
L 2356 3500 
L 2356 3053 
L 1172 3053 
L 1172 1153 
Q 1172 725 1289 603 
Q 1406 481 1766 481 
L 2356 481 
L 2356 0 
L 1766 0 
Q 1100 0 847 248 
Q 594 497 594 1153 
L 594 3053 
L 172 3053 
L 172 3500 
L 594 3500 
L 594 4494 
L 1172 4494 
z
" transform="scale(0.015625)"/>
       <path id="DejaVuSans-73" d="M 2834 3397 
L 2834 2853 
Q 2591 2978 2328 3040 
Q 2066 3103 1784 3103 
Q 1356 3103 1142 2972 
Q 928 2841 928 2578 
Q 928 2378 1081 2264 
Q 1234 2150 1697 2047 
L 1894 2003 
Q 2506 1872 2764 1633 
Q 3022 1394 3022 966 
Q 3022 478 2636 193 
Q 2250 -91 1575 -91 
Q 1294 -91 989 -36 
Q 684 19 347 128 
L 347 722 
Q 666 556 975 473 
Q 1284 391 1588 391 
Q 1994 391 2212 530 
Q 2431 669 2431 922 
Q 2431 1156 2273 1281 
Q 2116 1406 1581 1522 
L 1381 1569 
Q 847 1681 609 1914 
Q 372 2147 372 2553 
Q 372 3047 722 3315 
Q 1072 3584 1716 3584 
Q 2034 3584 2315 3537 
Q 2597 3491 2834 3397 
z
" transform="scale(0.015625)"/>
       <path id="DejaVuSans-29" d="M 513 4856 
L 1013 4856 
Q 1481 4119 1714 3412 
Q 1947 2706 1947 2009 
Q 1947 1309 1714 600 
Q 1481 -109 1013 -844 
L 513 -844 
Q 928 -128 1133 580 
Q 1338 1288 1338 2009 
Q 1338 2731 1133 3434 
Q 928 4138 513 4856 
z
" transform="scale(0.015625)"/>
      </defs>
      <use xlink:href="#DejaVuSans-54"/>
      <use xlink:href="#DejaVuSans-69" transform="translate(57.958984 0)"/>
      <use xlink:href="#DejaVuSans-6d" transform="translate(85.742188 0)"/>
      <use xlink:href="#DejaVuSans-65" transform="translate(183.154297 0)"/>
      <use xlink:href="#DejaVuSans-20" transform="translate(244.677734 0)"/>
      <use xlink:href="#DejaVuSans-28" transform="translate(276.464844 0)"/>
      <use xlink:href="#DejaVuSans-6d" transform="translate(315.478516 0)"/>
      <use xlink:href="#DejaVuSans-69" transform="translate(412.890625 0)"/>
      <use xlink:href="#DejaVuSans-6e" transform="translate(440.673828 0)"/>
      <use xlink:href="#DejaVuSans-75" transform="translate(504.052734 0)"/>
      <use xlink:href="#DejaVuSans-74" transform="translate(567.431641 0)"/>
      <use xlink:href="#DejaVuSans-65" transform="translate(606.640625 0)"/>
      <use xlink:href="#DejaVuSans-73" transform="translate(668.164062 0)"/>
      <use xlink:href="#DejaVuSans-29" transform="translate(720.263672 0)"/>
     </g>
    </g>
   </g>
   <g id="matplotlib.axis_2">
    <g id="ytick_1">
     <g id="line2d_17">
      <path d="M 47.81 290.869085 
L 450 290.869085 
" clip-path="url(#p3cc07449c3)" style="fill: none; stroke: #b0b0b0; stroke-opacity: 0.3; stroke-width: 0.8; stroke-linecap: square"/>
     </g>
     <g id="line2d_18">
      <defs>
       <path id="m458c43e994" d="M 0 0 
L -3.5 0 
" style="stroke: #000000; stroke-width: 0.8"/>
      </defs>
      <g>
       <use xlink:href="#m458c43e994" x="47.81" y="290.869085" style="stroke: #000000; stroke-width: 0.8"/>
      </g>
     </g>
     <g id="text_10">
      <!-- 0.0 -->
      <g transform="translate(24.906875 294.668303) scale(0.1 -0.1)">
       <defs>
        <path id="DejaVuSans-2e" d="M 684 794 
L 1344 794 
L 1344 0 
L 684 0 
L 684 794 
z
" transform="scale(0.015625)"/>
       </defs>
       <use xlink:href="#DejaVuSans-30"/>
       <use xlink:href="#DejaVuSans-2e" transform="translate(63.623047 0)"/>
       <use xlink:href="#DejaVuSans-30" transform="translate(95.410156 0)"/>
      </g>
     </g>
    </g>
    <g id="ytick_2">
     <g id="line2d_19">
      <path d="M 47.81 235.056512 
L 450 235.056512 
" clip-path="url(#p3cc07449c3)" style="fill: none; stroke: #b0b0b0; stroke-opacity: 0.3; stroke-width: 0.8; stroke-linecap: square"/>
     </g>
     <g id="line2d_20">
      <g>
       <use xlink:href="#m458c43e994" x="47.81" y="235.056512" style="stroke: #000000; stroke-width: 0.8"/>
      </g>
     </g>
     <g id="text_11">
      <!-- 0.5 -->
      <g transform="translate(24.906875 238.85573) scale(0.1 -0.1)">
       <defs>
        <path id="DejaVuSans-35" d="M 691 4666 
L 3169 4666 
L 3169 4134 
L 1269 4134 
L 1269 2991 
Q 1406 3038 1543 3061 
Q 1681 3084 1819 3084 
Q 2600 3084 3056 2656 
Q 3513 2228 3513 1497 
Q 3513 744 3044 326 
Q 2575 -91 1722 -91 
Q 1428 -91 1123 -41 
Q 819 9 494 109 
L 494 744 
Q 775 591 1075 516 
Q 1375 441 1709 441 
Q 2250 441 2565 725 
Q 2881 1009 2881 1497 
Q 2881 1984 2565 2268 
Q 2250 2553 1709 2553 
Q 1456 2553 1204 2497 
Q 953 2441 691 2322 
L 691 4666 
z
" transform="scale(0.015625)"/>
       </defs>
       <use xlink:href="#DejaVuSans-30"/>
       <use xlink:href="#DejaVuSans-2e" transform="translate(63.623047 0)"/>
       <use xlink:href="#DejaVuSans-35" transform="translate(95.410156 0)"/>
      </g>
     </g>
    </g>
    <g id="ytick_3">
     <g id="line2d_21">
      <path d="M 47.81 179.243939 
L 450 179.243939 
" clip-path="url(#p3cc07449c3)" style="fill: none; stroke: #b0b0b0; stroke-opacity: 0.3; stroke-width: 0.8; stroke-linecap: square"/>
     </g>
     <g id="line2d_22">
      <g>
       <use xlink:href="#m458c43e994" x="47.81" y="179.243939" style="stroke: #000000; stroke-width: 0.8"/>
      </g>
     </g>
     <g id="text_12">
      <!-- 1.0 -->
      <g transform="translate(24.906875 183.043157) scale(0.1 -0.1)">
       <use xlink:href="#DejaVuSans-31"/>
       <use xlink:href="#DejaVuSans-2e" transform="translate(63.623047 0)"/>
       <use xlink:href="#DejaVuSans-30" transform="translate(95.410156 0)"/>
      </g>
     </g>
    </g>
    <g id="ytick_4">
     <g id="line2d_23">
      <path d="M 47.81 123.431366 
L 450 123.431366 
" clip-path="url(#p3cc07449c3)" style="fill: none; stroke: #b0b0b0; stroke-opacity: 0.3; stroke-width: 0.8; stroke-linecap: square"/>
     </g>
     <g id="line2d_24">
      <g>
       <use xlink:href="#m458c43e994" x="47.81" y="123.431366" style="stroke: #000000; stroke-width: 0.8"/>
      </g>
     </g>
     <g id="text_13">
      <!-- 1.5 -->
      <g transform="translate(24.906875 127.230584) scale(0.1 -0.1)">
       <use xlink:href="#DejaVuSans-31"/>
       <use xlink:href="#DejaVuSans-2e" transform="translate(63.623047 0)"/>
       <use xlink:href="#DejaVuSans-35" transform="translate(95.410156 0)"/>
      </g>
     </g>
    </g>
    <g id="ytick_5">
     <g id="line2d_25">
      <path d="M 47.81 67.618792 
L 450 67.618792 
" clip-path="url(#p3cc07449c3)" style="fill: none; stroke: #b0b0b0; stroke-opacity: 0.3; stroke-width: 0.8; stroke-linecap: square"/>
     </g>
     <g id="line2d_26">
      <g>
       <use xlink:href="#m458c43e994" x="47.81" y="67.618792" style="stroke: #000000; stroke-width: 0.8"/>
      </g>
     </g>
     <g id="text_14">
      <!-- 2.0 -->
      <g transform="translate(24.906875 71.418011) scale(0.1 -0.1)">
       <use xlink:href="#DejaVuSans-32"/>
       <use xlink:href="#DejaVuSans-2e" transform="translate(63.623047 0)"/>
       <use xlink:href="#DejaVuSans-30" transform="translate(95.410156 0)"/>
      </g>
     </g>
    </g>
    <g id="text_15">
     <!-- EDA signals (μS) -->
     <g transform="translate(18.827188 205.711875) rotate(-90) scale(0.1 -0.1)">
      <defs>
       <path id="DejaVuSans-45" d="M 628 4666 
L 3578 4666 
L 3578 4134 
L 1259 4134 
L 1259 2753 
L 3481 2753 
L 3481 2222 
L 1259 2222 
L 1259 531 
L 3634 531 
L 3634 0 
L 628 0 
L 628 4666 
z
" transform="scale(0.015625)"/>
       <path id="DejaVuSans-44" d="M 1259 4147 
L 1259 519 
L 2022 519 
Q 2988 519 3436 956 
Q 3884 1394 3884 2338 
Q 3884 3275 3436 3711 
Q 2988 4147 2022 4147 
L 1259 4147 
z
M 628 4666 
L 1925 4666 
Q 3281 4666 3915 4102 
Q 4550 3538 4550 2338 
Q 4550 1131 3912 565 
Q 3275 0 1925 0 
L 628 0 
L 628 4666 
z
" transform="scale(0.015625)"/>
       <path id="DejaVuSans-41" d="M 2188 4044 
L 1331 1722 
L 3047 1722 
L 2188 4044 
z
M 1831 4666 
L 2547 4666 
L 4325 0 
L 3669 0 
L 3244 1197 
L 1141 1197 
L 716 0 
L 50 0 
L 1831 4666 
z
" transform="scale(0.015625)"/>
       <path id="DejaVuSans-67" d="M 2906 1791 
Q 2906 2416 2648 2759 
Q 2391 3103 1925 3103 
Q 1463 3103 1205 2759 
Q 947 2416 947 1791 
Q 947 1169 1205 825 
Q 1463 481 1925 481 
Q 2391 481 2648 825 
Q 2906 1169 2906 1791 
z
M 3481 434 
Q 3481 -459 3084 -895 
Q 2688 -1331 1869 -1331 
Q 1566 -1331 1297 -1286 
Q 1028 -1241 775 -1147 
L 775 -588 
Q 1028 -725 1275 -790 
Q 1522 -856 1778 -856 
Q 2344 -856 2625 -561 
Q 2906 -266 2906 331 
L 2906 616 
Q 2728 306 2450 153 
Q 2172 0 1784 0 
Q 1141 0 747 490 
Q 353 981 353 1791 
Q 353 2603 747 3093 
Q 1141 3584 1784 3584 
Q 2172 3584 2450 3431 
Q 2728 3278 2906 2969 
L 2906 3500 
L 3481 3500 
L 3481 434 
z
" transform="scale(0.015625)"/>
       <path id="DejaVuSans-61" d="M 2194 1759 
Q 1497 1759 1228 1600 
Q 959 1441 959 1056 
Q 959 750 1161 570 
Q 1363 391 1709 391 
Q 2188 391 2477 730 
Q 2766 1069 2766 1631 
L 2766 1759 
L 2194 1759 
z
M 3341 1997 
L 3341 0 
L 2766 0 
L 2766 531 
Q 2569 213 2275 61 
Q 1981 -91 1556 -91 
Q 1019 -91 701 211 
Q 384 513 384 1019 
Q 384 1609 779 1909 
Q 1175 2209 1959 2209 
L 2766 2209 
L 2766 2266 
Q 2766 2663 2505 2880 
Q 2244 3097 1772 3097 
Q 1472 3097 1187 3025 
Q 903 2953 641 2809 
L 641 3341 
Q 956 3463 1253 3523 
Q 1550 3584 1831 3584 
Q 2591 3584 2966 3190 
Q 3341 2797 3341 1997 
z
" transform="scale(0.015625)"/>
       <path id="DejaVuSans-6c" d="M 603 4863 
L 1178 4863 
L 1178 0 
L 603 0 
L 603 4863 
z
" transform="scale(0.015625)"/>
       <path id="DejaVuSans-3bc" d="M 544 -1331 
L 544 3500 
L 1119 3500 
L 1119 1325 
Q 1119 872 1334 640 
Q 1550 409 1972 409 
Q 2434 409 2667 671 
Q 2900 934 2900 1459 
L 2900 3500 
L 3475 3500 
L 3475 806 
Q 3475 619 3529 530 
Q 3584 441 3700 441 
Q 3728 441 3778 458 
Q 3828 475 3916 513 
L 3916 50 
Q 3788 -22 3673 -56 
Q 3559 -91 3450 -91 
Q 3234 -91 3106 31 
Q 2978 153 2931 403 
Q 2775 156 2548 32 
Q 2322 -91 2016 -91 
Q 1697 -91 1473 31 
Q 1250 153 1119 397 
L 1119 -1331 
L 544 -1331 
z
" transform="scale(0.015625)"/>
       <path id="DejaVuSans-53" d="M 3425 4513 
L 3425 3897 
Q 3066 4069 2747 4153 
Q 2428 4238 2131 4238 
Q 1616 4238 1336 4038 
Q 1056 3838 1056 3469 
Q 1056 3159 1242 3001 
Q 1428 2844 1947 2747 
L 2328 2669 
Q 3034 2534 3370 2195 
Q 3706 1856 3706 1288 
Q 3706 609 3251 259 
Q 2797 -91 1919 -91 
Q 1588 -91 1214 -16 
Q 841 59 441 206 
L 441 856 
Q 825 641 1194 531 
Q 1563 422 1919 422 
Q 2459 422 2753 634 
Q 3047 847 3047 1241 
Q 3047 1584 2836 1778 
Q 2625 1972 2144 2069 
L 1759 2144 
Q 1053 2284 737 2584 
Q 422 2884 422 3419 
Q 422 4038 858 4394 
Q 1294 4750 2059 4750 
Q 2388 4750 2728 4690 
Q 3069 4631 3425 4513 
z
" transform="scale(0.015625)"/>
      </defs>
      <use xlink:href="#DejaVuSans-45"/>
      <use xlink:href="#DejaVuSans-44" transform="translate(63.183594 0)"/>
      <use xlink:href="#DejaVuSans-41" transform="translate(138.435547 0)"/>
      <use xlink:href="#DejaVuSans-20" transform="translate(206.84375 0)"/>
      <use xlink:href="#DejaVuSans-73" transform="translate(238.630859 0)"/>
      <use xlink:href="#DejaVuSans-69" transform="translate(290.730469 0)"/>
      <use xlink:href="#DejaVuSans-67" transform="translate(318.513672 0)"/>
      <use xlink:href="#DejaVuSans-6e" transform="translate(381.990234 0)"/>
      <use xlink:href="#DejaVuSans-61" transform="translate(445.369141 0)"/>
      <use xlink:href="#DejaVuSans-6c" transform="translate(506.648438 0)"/>
      <use xlink:href="#DejaVuSans-73" transform="translate(534.431641 0)"/>
      <use xlink:href="#DejaVuSans-20" transform="translate(586.53125 0)"/>
      <use xlink:href="#DejaVuSans-28" transform="translate(618.318359 0)"/>
      <use xlink:href="#DejaVuSans-3bc" transform="translate(657.332031 0)"/>
      <use xlink:href="#DejaVuSans-53" transform="translate(720.955078 0)"/>
      <use xlink:href="#DejaVuSans-29" transform="translate(784.431641 0)"/>
     </g>
    </g>
   </g>
   <g id="line2d_27">
    <path d="M 66.091364 237.922354 
L 67.10756 238.24852 
L 74.32255 241.258619 
L 75.135507 241.917683 
L 76.253322 242.824115 
L 77.472757 243.514158 
L 78.285714 243.675468 
L 80.013247 243.94778 
L 81.029443 244.078244 
L 81.537541 243.949793 
L 82.147258 243.718718 
L 82.350497 243.812017 
L 82.655356 244.315266 
L 83.366693 246.104021 
L 83.468313 246.098127 
L 83.671552 245.658936 
L 83.976411 243.911666 
L 85.297466 234.054666 
L 85.805563 232.546688 
L 87.126618 229.586291 
L 87.837955 227.813508 
L 88.142814 227.530399 
L 88.447673 227.559657 
L 88.955771 227.962835 
L 89.565488 228.396388 
L 90.480064 228.681671 
L 92.614076 229.236447 
L 93.020554 229.136841 
L 93.427032 228.735429 
L 93.93513 227.790979 
L 94.849707 226.014885 
L 95.357805 225.442355 
L 95.865903 225.173896 
L 96.374 225.139354 
L 97.491816 225.203876 
L 97.898294 224.95164 
L 98.508012 224.223585 
L 99.320968 223.275935 
L 99.829066 223.056966 
L 100.438784 223.117782 
L 101.35336 223.251221 
L 101.658219 223.121333 
L 101.963078 222.76725 
L 102.369556 221.824518 
L 103.588991 218.225476 
L 103.89385 218.00323 
L 104.198709 218.083319 
L 104.706807 218.569168 
L 105.214904 219.014655 
L 105.519763 219.079286 
L 105.824622 218.936923 
L 106.33272 218.362353 
L 106.840818 217.882946 
L 107.145677 217.908066 
L 107.450535 218.25051 
L 107.857014 219.124276 
L 108.66997 221.010634 
L 109.076449 221.409399 
L 109.279688 221.400438 
L 109.482927 221.218744 
L 109.787786 220.53272 
L 110.092645 219.20768 
L 110.499123 216.202612 
L 110.905601 211.54898 
L 111.413699 203.07967 
L 112.836373 176.404811 
L 113.141232 174.675783 
L 113.344471 174.364282 
L 113.547711 174.463535 
L 114.259048 175.278932 
L 114.665526 175.251259 
L 115.072004 175.21508 
L 115.376863 175.411369 
L 116.494679 176.572176 
L 116.799537 176.333371 
L 117.104396 175.749911 
L 117.714114 173.916186 
L 118.222212 172.652578 
L 118.52707 172.368263 
L 118.933549 172.373437 
L 119.238407 172.345035 
L 119.644886 172.015633 
L 120.051364 171.681903 
L 120.254603 171.730503 
L 120.457842 172.013483 
L 120.762701 172.900662 
L 121.474038 176.160783 
L 121.982136 178.083059 
L 122.388615 178.832834 
L 122.591854 178.921534 
L 122.795093 178.833942 
L 123.099952 178.437936 
L 124.014528 176.990355 
L 124.319387 176.905114 
L 124.624246 177.059623 
L 125.030724 177.536272 
L 125.742061 178.773473 
L 126.453398 180.416543 
L 127.367974 182.597492 
L 127.672833 182.80794 
L 128.079311 182.720718 
L 128.892268 182.317547 
L 129.197127 181.760491 
L 129.603605 180.276249 
L 130.82304 174.857939 
L 131.026279 174.601561 
L 131.229519 174.635493 
L 131.534377 175.159395 
L 133.160291 179.12123 
L 134.481345 181.30551 
L 135.8024 182.999316 
L 136.412118 183.733894 
L 137.326694 185.080899 
L 137.529933 185.055354 
L 137.834792 184.631662 
L 138.444509 182.999463 
L 139.155846 181.337881 
L 139.663944 180.670667 
L 139.968803 180.562779 
L 140.273662 180.677309 
L 140.78176 181.169539 
L 141.696336 182.080888 
L 142.102814 182.241736 
L 142.509293 182.138937 
L 143.423869 181.725698 
L 143.931967 181.880038 
L 144.643304 182.108609 
L 144.948163 181.965879 
L 145.354641 181.47328 
L 145.862739 180.882476 
L 146.065978 180.86225 
L 146.269217 181.020672 
L 146.574076 181.562362 
L 149.216186 187.590317 
L 149.622664 187.862466 
L 149.927523 187.807539 
L 150.334001 187.463458 
L 152.569632 184.716618 
L 152.97611 183.192029 
L 153.687447 180.367923 
L 153.992306 179.98737 
L 154.195545 180.077341 
L 154.500404 180.61229 
L 155.110122 182.419131 
L 156.126317 185.354593 
L 157.040894 187.190265 
L 157.85385 188.845459 
L 158.260329 190.10662 
L 158.666807 192.068 
L 159.174905 195.699662 
L 160.191101 203.472599 
L 160.699199 205.540985 
L 161.512155 207.465479 
L 162.223493 208.851445 
L 162.731591 209.292231 
L 163.341308 209.845701 
L 164.255884 211.083125 
L 164.865602 211.951769 
L 165.068841 211.907864 
L 165.27208 211.511859 
L 165.576939 210.16863 
L 166.593135 204.276981 
L 166.796374 204.006874 
L 166.999613 204.105587 
L 167.304472 204.707334 
L 168.727146 208.099457 
L 169.743342 209.930246 
L 170.556299 210.940506 
L 171.470875 211.738896 
L 172.080593 212.05071 
L 172.385451 211.998212 
L 172.69031 211.665369 
L 172.995169 210.97653 
L 174.316223 207.167627 
L 174.621082 207.023608 
L 174.925941 207.136725 
L 175.535658 207.701494 
L 177.872909 209.993147 
L 181.734453 213.058461 
L 185.900856 216.464627 
L 186.815433 217.634632 
L 189.051063 220.541011 
L 190.473738 221.827959 
L 191.388314 222.458144 
L 192.099651 222.666926 
L 193.217467 222.849024 
L 194.84338 223.58082 
L 195.859576 223.516995 
L 196.570913 223.78139 
L 197.587109 224.385166 
L 200.127598 226.203538 
L 202.26161 227.196943 
L 202.871327 227.349868 
L 203.176186 227.253712 
L 203.582664 226.848835 
L 204.395621 225.854196 
L 204.70048 225.78566 
L 205.106958 225.964059 
L 206.326393 226.706072 
L 208.968502 227.560731 
L 209.374981 227.319159 
L 210.289557 226.69549 
L 210.696035 226.723832 
L 211.305753 227.037985 
L 212.626808 227.753907 
L 213.033286 227.742967 
L 213.338145 227.531304 
L 213.643003 227.034974 
L 214.049482 225.791586 
L 214.760819 222.46024 
L 215.573776 219.082651 
L 216.589971 215.769816 
L 216.99645 215.054513 
L 217.301309 214.869419 
L 217.707787 214.916708 
L 218.419124 215.064632 
L 219.028842 214.925715 
L 219.536939 214.627643 
L 219.841798 214.178978 
L 220.146657 213.244627 
L 220.553135 210.875172 
L 221.87419 201.192533 
L 222.077429 200.898272 
L 222.280668 200.9295 
L 222.585527 201.332991 
L 223.296864 202.36793 
L 223.500103 202.420128 
L 223.703343 202.244979 
L 223.906582 201.747918 
L 224.21144 200.195555 
L 224.617919 196.481025 
L 225.532495 187.227503 
L 225.837354 186.086721 
L 226.040593 185.885153 
L 226.243832 185.951167 
L 227.361648 186.954026 
L 227.768126 187.776212 
L 228.581083 189.853595 
L 228.784322 189.829732 
L 228.987561 189.318381 
L 229.29242 187.469469 
L 229.800518 181.992914 
L 230.410235 175.624293 
L 230.715094 174.024376 
L 231.019953 173.416723 
L 231.73129 172.840626 
L 232.137768 171.789955 
L 232.747486 170.113033 
L 233.052344 169.865943 
L 233.357203 170.045338 
L 233.662062 170.268332 
L 233.865301 170.12087 
L 234.06854 169.463024 
L 234.373399 167.029354 
L 234.678258 162.466148 
L 235.389595 146.519455 
L 235.897693 138.159796 
L 236.202552 136.161703 
L 236.405791 135.810736 
L 236.60903 135.93235 
L 237.726845 137.55967 
L 238.336563 137.78817 
L 238.641422 138.232291 
L 239.14952 139.624128 
L 239.759237 141.197262 
L 240.064096 141.396604 
L 240.267335 141.226945 
L 240.572194 140.556628 
L 241.080292 138.718779 
L 242.401346 133.516933 
L 242.604586 133.372633 
L 242.807825 133.514145 
L 243.112684 134.128662 
L 245.246695 139.523946 
L 246.872608 142.428488 
L 247.177467 142.624869 
L 247.380706 142.488295 
L 247.583945 142.063393 
L 247.888804 140.844998 
L 248.905 135.782961 
L 249.108239 135.598542 
L 249.311478 135.800698 
L 249.616337 136.661527 
L 251.648729 143.954873 
L 252.156827 145.007914 
L 252.461686 145.228835 
L 252.664925 145.052691 
L 252.868164 144.509056 
L 253.173023 142.808385 
L 253.579501 138.610171 
L 254.900556 121.277823 
L 255.103795 120.842518 
L 255.205414 120.928185 
L 255.408654 121.584084 
L 255.916751 124.601109 
L 256.32323 126.619247 
L 256.526469 127.072277 
L 256.628089 127.118746 
L 256.831328 126.826695 
L 257.136187 125.486316 
L 258.050763 120.372965 
L 258.254002 120.303313 
L 258.457241 120.745769 
L 258.965339 123.023551 
L 259.270198 124.08644 
L 259.473437 124.188224 
L 259.676676 123.547494 
L 259.879915 121.975856 
L 260.184774 117.661795 
L 260.794492 104.125211 
L 261.20097 96.653912 
L 261.505829 94.484887 
L 261.607448 94.456634 
L 261.810688 95.20175 
L 262.522025 99.459153 
L 262.725264 99.558251 
L 262.928503 99.01257 
L 263.436601 96.274639 
L 263.843079 94.677188 
L 264.046318 94.464553 
L 264.249558 94.655687 
L 264.554416 95.57751 
L 265.062514 98.26185 
L 266.485188 106.678882 
L 267.094906 108.841332 
L 267.399765 109.441216 
L 267.603004 109.419149 
L 267.806243 108.886278 
L 268.111102 106.968267 
L 269.228917 97.573236 
L 269.533776 97.078632 
L 269.737015 96.833569 
L 269.940254 96.248553 
L 270.245113 94.245902 
L 271.362929 84.256191 
L 271.464548 84.189046 
L 271.667787 84.525355 
L 272.582364 87.394086 
L 272.887222 87.52742 
L 273.192081 87.693874 
L 273.49694 88.324866 
L 273.903418 89.995478 
L 274.919614 94.572398 
L 276.952006 101.218432 
L 277.155245 101.187306 
L 277.460104 100.685262 
L 278.171441 99.231796 
L 278.984398 98.363953 
L 279.289256 97.033093 
L 279.594115 94.568653 
L 281.016789 80.290796 
L 281.321648 79.493256 
L 281.524887 79.356576 
L 281.728126 79.44696 
L 282.032985 79.877592 
L 283.25242 82.010706 
L 283.557279 81.992608 
L 284.268616 81.661413 
L 284.573475 81.820993 
L 285.386432 82.519561 
L 285.589671 82.430758 
L 285.89453 81.995723 
L 287.012345 79.823598 
L 287.317204 79.775725 
L 287.622063 79.965943 
L 288.23178 80.714861 
L 289.044737 82.109391 
L 289.654454 83.120553 
L 289.857693 83.171027 
L 290.060933 82.810274 
L 290.264172 81.767855 
L 290.569031 78.260273 
L 290.873889 71.796588 
L 292.194944 38.415493 
L 292.296563 38.085455 
L 292.398183 38.136872 
L 292.601422 39.165522 
L 293.007901 43.26812 
L 293.719238 50.188662 
L 294.227336 53.030727 
L 296.361347 62.297707 
L 297.479162 66.92167 
L 298.1905 69.076292 
L 298.495358 69.547635 
L 298.800217 69.636688 
L 299.105076 69.407433 
L 299.613174 68.9343 
L 299.918032 68.961178 
L 300.62937 69.38942 
L 300.832609 69.189032 
L 301.137468 68.449991 
L 301.747185 66.8167 
L 301.848805 66.798682 
L 302.052044 67.16685 
L 302.356903 68.80422 
L 302.865001 73.637592 
L 303.677957 81.121249 
L 304.186055 83.802653 
L 304.999012 86.561831 
L 305.710349 89.241231 
L 307.437882 96.295916 
L 309.876752 103.987931 
L 311.197807 108.35988 
L 312.518861 111.594525 
L 313.941535 115.244252 
L 315.26259 119.42131 
L 315.465829 119.376128 
L 315.669068 119.01148 
L 316.075547 117.529591 
L 316.990123 113.907155 
L 318.006319 110.725024 
L 318.616036 107.578656 
L 320.038711 99.829092 
L 320.343569 99.162928 
L 320.546809 99.032652 
L 320.851667 99.171663 
L 321.359765 99.824987 
L 322.172722 101.278127 
L 324.713212 106.213883 
L 326.542364 108.294069 
L 326.948843 109.277752 
L 327.355321 110.892551 
L 327.863419 114.119439 
L 329.286093 126.01783 
L 330.403908 135.004504 
L 330.810387 136.323336 
L 331.928202 138.302239 
L 332.029822 138.22731 
L 332.233061 137.637528 
L 332.53792 135.55265 
L 333.147637 128.738099 
L 333.757355 122.955098 
L 334.367072 119.569737 
L 335.078409 116.704055 
L 335.484888 115.828303 
L 335.789747 115.696152 
L 336.094605 115.905472 
L 336.602703 116.619109 
L 337.41566 118.145869 
L 338.431856 120.00929 
L 338.939954 120.512988 
L 339.75291 121.170524 
L 340.261008 121.986787 
L 341.175585 124.053823 
L 342.699878 127.396954 
L 343.207976 128.701389 
L 343.716074 130.693961 
L 344.630651 134.509498 
L 345.037129 135.215796 
L 345.341988 135.286963 
L 345.646846 135.037737 
L 346.256564 134.044183 
L 346.764662 133.374447 
L 347.17114 133.190613 
L 347.475999 133.271924 
L 347.882477 133.631128 
L 349.81325 136.088477 
L 350.626206 137.895407 
L 351.845641 140.468608 
L 355.402327 147.65693 
L 356.113664 149.759392 
L 358.146056 156.558683 
L 358.654154 159.956071 
L 359.56873 168.321528 
L 360.381687 174.708315 
L 360.991404 177.857434 
L 361.601122 179.986885 
L 362.10922 181.145685 
L 362.515698 181.566348 
L 362.718937 181.564739 
L 362.922176 181.378646 
L 363.227035 180.622022 
L 363.531894 179.087633 
L 363.938372 175.705365 
L 365.259427 163.175349 
L 365.767525 160.426647 
L 366.174003 159.086737 
L 366.580481 158.446172 
L 366.88534 158.303465 
L 367.291818 158.364648 
L 368.003156 158.76691 
L 368.714493 159.403607 
L 369.222591 160.169247 
L 369.629069 161.24863 
L 370.137167 163.353424 
L 370.848504 166.362443 
L 371.254982 167.299923 
L 371.76308 167.865941 
L 372.880896 168.943657 
L 373.287374 169.193722 
L 373.490613 169.140189 
L 373.795472 168.775832 
L 374.608429 167.482582 
L 374.811668 167.527504 
L 375.116527 167.985614 
L 376.335962 170.588555 
L 376.74244 170.702716 
L 377.555397 170.774147 
L 378.266734 170.921782 
L 378.673212 170.676789 
L 379.587788 169.887403 
L 379.892647 169.900842 
L 380.299126 170.159804 
L 380.908843 170.856473 
L 383.652572 174.408349 
L 384.973627 175.646931 
L 386.294681 177.351337 
L 387.615736 178.902009 
L 389.343269 180.9089 
L 390.461084 182.362648 
L 391.070802 183.588029 
L 392.188617 185.924733 
L 393.204813 187.885122 
L 393.712911 189.456357 
L 394.525868 192.188325 
L 394.830726 192.560946 
L 395.135585 192.514763 
L 396.151781 191.928066 
L 396.761499 191.986142 
L 397.371216 192.286324 
L 398.79389 193.367513 
L 399.403608 193.752713 
L 399.911706 193.797479 
L 400.724662 193.764418 
L 401.131141 193.977108 
L 401.740858 194.588112 
L 403.77325 196.854991 
L 404.891065 197.462274 
L 405.500783 197.609955 
L 406.110501 197.483378 
L 406.618598 197.422258 
L 407.025077 197.575964 
L 407.634794 198.108445 
L 408.955849 199.410152 
L 409.565566 199.659461 
L 410.175284 199.667831 
L 411.19148 199.609948 
L 411.801197 199.8447 
L 412.410915 200.281346 
L 413.52873 201.180859 
L 414.036828 201.210322 
L 415.053024 201.172579 
L 415.865981 201.479126 
L 418.304851 202.452678 
L 418.914568 202.513033 
L 419.422666 202.339386 
L 420.642101 201.71233 
L 421.556678 201.771652 
L 422.877732 201.880159 
L 424.503646 202.640046 
L 426.434418 202.989166 
L 427.044135 203.457895 
L 428.46681 204.677075 
L 429.787864 205.714562 
L 430.80406 206.454834 
L 431.617017 206.789207 
L 431.718636 206.815092 
L 431.718636 206.815092 
" clip-path="url(#p3cc07449c3)" style="fill: none; stroke-dasharray: 1.85,0.8; stroke-dashoffset: 0; stroke: #1f77b4; stroke-width: 0.5"/>
   </g>
   <g id="line2d_28">
    <path d="M 66.091364 236.946783 
L 66.599462 239.864665 
L 67.10756 241.626855 
L 67.514038 242.350776 
L 67.818897 242.566781 
L 68.123755 242.554794 
L 68.530234 242.265415 
L 69.139951 241.471862 
L 70.156147 240.119323 
L 70.664245 239.840252 
L 71.172343 239.860238 
L 71.680441 240.110424 
L 72.493398 240.817673 
L 74.119311 242.343138 
L 74.729029 242.611197 
L 75.643605 242.73015 
L 76.659801 242.875895 
L 77.269518 243.1784 
L 77.777616 243.653894 
L 78.285714 244.401885 
L 78.997051 245.938581 
L 80.826204 250.22743 
L 81.334302 250.857947 
L 81.74078 251.004499 
L 82.045639 250.858399 
L 82.350497 250.459099 
L 82.756976 249.504962 
L 83.366693 247.315934 
L 84.17965 243.432503 
L 86.313661 232.74935 
L 86.923379 230.793323 
L 87.533096 229.522233 
L 88.041194 228.892022 
L 88.549292 228.571253 
L 89.05739 228.484378 
L 89.768727 228.611847 
L 91.49626 229.034971 
L 92.410837 229.005406 
L 93.325413 228.76441 
L 94.239989 228.293468 
L 95.256185 227.48854 
L 97.085338 225.64569 
L 98.406392 224.447252 
L 99.422588 223.826925 
L 102.471176 222.267396 
L 103.385752 221.361975 
L 105.113285 219.570831 
L 105.723002 219.223616 
L 106.2311 219.156148 
L 106.739198 219.34665 
L 107.348916 219.924307 
L 108.466731 221.101584 
L 108.87321 221.261823 
L 109.178068 221.196509 
L 109.482927 220.928517 
L 109.889405 220.18796 
L 110.295884 218.923991 
L 110.803982 216.466003 
L 111.413699 212.121107 
L 112.328276 203.614829 
L 114.360667 184.071031 
L 114.970385 180.161424 
L 115.478483 178.120196 
L 115.884961 177.18696 
L 116.291439 176.768619 
L 116.596298 176.733291 
L 117.002777 176.978124 
L 117.510874 177.614327 
L 119.136788 179.954912 
L 119.644886 180.197656 
L 120.152984 180.198828 
L 120.864321 179.947581 
L 122.286995 179.378729 
L 122.795093 179.418687 
L 123.303191 179.709951 
L 123.912908 180.36702 
L 125.030724 181.999438 
L 126.04692 183.346398 
L 126.656637 183.809652 
L 127.063116 183.88765 
L 127.469594 183.74537 
L 127.977692 183.304006 
L 128.689029 182.343052 
L 130.82304 179.207803 
L 131.331138 178.879602 
L 131.839236 178.829348 
L 132.347334 179.016904 
L 132.957052 179.493628 
L 133.770008 180.430871 
L 136.716976 184.132434 
L 137.529933 184.729331 
L 138.24127 185.002832 
L 138.850988 185.021386 
L 139.460705 184.81521 
L 140.172042 184.314251 
L 141.594717 182.942323 
L 142.610912 182.1192 
L 143.22063 181.865686 
L 143.728728 181.857404 
L 144.338445 182.08214 
L 145.049782 182.606164 
L 145.964359 183.574832 
L 149.216186 187.322831 
L 149.927523 187.699908 
L 150.53724 187.758765 
L 151.045338 187.582453 
L 151.553436 187.169788 
L 152.264773 186.229627 
L 153.992306 183.77934 
L 154.500404 183.463033 
L 154.906882 183.474188 
L 155.313361 183.778793 
L 155.719839 184.429331 
L 156.227937 185.726938 
L 156.939274 188.279577 
L 157.95547 192.936939 
L 160.597579 205.551119 
L 161.512155 208.755665 
L 162.325112 210.842589 
L 162.93483 211.870333 
L 163.442928 212.338606 
L 163.849406 212.441327 
L 164.255884 212.317835 
L 164.763982 211.914576 
L 165.576939 210.907288 
L 166.999613 209.074814 
L 167.609331 208.667383 
L 168.015809 208.632127 
L 168.523907 208.841157 
L 169.133624 209.362118 
L 171.572495 211.819676 
L 172.080593 211.893185 
L 172.58869 211.724985 
L 173.300028 211.200728 
L 175.738898 209.080538 
L 176.246996 209.003593 
L 176.856713 209.160312 
L 177.56805 209.606837 
L 178.584246 210.547076 
L 180.515018 212.363317 
L 182.039312 213.353051 
L 183.766845 214.504092 
L 184.88466 215.541489 
L 186.510574 217.415324 
L 189.457542 220.864284 
L 190.778596 222.051204 
L 191.794792 222.701234 
L 192.709369 223.048324 
L 194.030423 223.270432 
L 195.859576 223.581602 
L 196.774152 223.969247 
L 198.095207 224.813688 
L 200.635696 226.501246 
L 201.855131 226.98237 
L 202.972947 227.195364 
L 204.090762 227.198476 
L 205.716676 226.930485 
L 206.834491 226.856382 
L 207.647448 227.031136 
L 208.358785 227.430432 
L 209.171742 228.19375 
L 210.696035 229.668449 
L 211.305753 229.928467 
L 211.712231 229.902474 
L 212.11871 229.674621 
L 212.525188 229.208574 
L 213.033286 228.280584 
L 213.744623 226.4847 
L 215.065678 222.386252 
L 216.285113 218.865803 
L 216.99645 217.409713 
L 217.809406 216.278477 
L 220.349896 213.231815 
L 221.061233 211.666156 
L 221.97581 209.013852 
L 223.500103 203.738187 
L 225.227636 197.943909 
L 226.447071 194.630213 
L 227.564887 192.184793 
L 228.581083 190.440262 
L 230.816714 187.008803 
L 231.426431 185.455038 
L 232.036149 183.329483 
L 232.747486 179.910183 
L 233.560442 174.619024 
L 234.983117 163.392679 
L 236.405791 152.695403 
L 237.218748 148.162183 
L 237.930085 145.412027 
L 238.641422 143.576774 
L 239.251139 142.560897 
L 239.962476 141.826284 
L 240.877053 141.247542 
L 242.807825 140.265359 
L 243.722401 140.0605 
L 244.433738 140.119769 
L 245.043456 140.367848 
L 245.754793 140.904531 
L 246.669369 141.889688 
L 248.701761 144.545249 
L 249.819576 145.795991 
L 250.530913 146.292508 
L 251.039011 146.423986 
L 251.547109 146.31973 
L 252.055207 145.935841 
L 252.563305 145.228417 
L 253.071403 144.153561 
L 253.78274 142.01091 
L 254.798936 138.077896 
L 256.831328 129.998429 
L 257.542665 127.990809 
L 258.355622 126.374547 
L 259.676676 124.395571 
L 260.489633 122.995629 
L 261.20097 121.306532 
L 262.013927 118.655612 
L 264.452797 110.094921 
L 265.062514 108.881077 
L 265.468993 108.48789 
L 265.875471 108.422801 
L 266.281949 108.599583 
L 266.993286 109.224617 
L 267.806243 109.905136 
L 268.212721 110.021572 
L 268.51758 109.938338 
L 268.822439 109.667403 
L 269.228917 108.949611 
L 269.635396 107.7561 
L 270.245113 105.211534 
L 271.566168 98.34412 
L 272.480744 94.212999 
L 272.988842 92.72081 
L 273.39532 92.139696 
L 273.700179 92.123549 
L 274.005038 92.432138 
L 274.411516 93.255906 
L 275.021234 95.1165 
L 276.850386 101.187712 
L 277.256865 101.819685 
L 277.561723 101.948467 
L 277.866582 101.755036 
L 278.273061 101.053505 
L 278.781158 99.584714 
L 279.492496 96.724941 
L 282.134605 85.156773 
L 282.845942 83.413824 
L 283.455659 82.510364 
L 283.963757 82.158771 
L 284.370236 82.131932 
L 284.776714 82.324917 
L 285.284812 82.866364 
L 285.89453 83.936036 
L 287.825302 87.844166 
L 288.23178 88.14175 
L 288.536639 88.116275 
L 288.841498 87.835202 
L 289.146356 87.26032 
L 289.552835 85.970732 
L 290.060933 83.428841 
L 290.77227 78.493511 
L 293.21114 60.082051 
L 293.719238 58.041839 
L 294.125716 57.287349 
L 294.430575 57.194223 
L 294.735434 57.449719 
L 295.141912 58.244658 
L 295.65001 59.798662 
L 296.666206 63.878495 
L 297.682402 67.682264 
L 298.292119 69.109319 
L 298.800217 69.807579 
L 299.409935 70.282989 
L 300.730989 71.153858 
L 301.239087 71.867123 
L 301.747185 73.022862 
L 302.255283 74.749139 
L 302.96662 77.992912 
L 304.287675 85.350887 
L 305.608729 92.339204 
L 306.320066 95.098989 
L 307.031404 97.068339 
L 308.047599 99.173681 
L 309.063795 101.343305 
L 309.775132 103.43415 
L 310.48647 106.34036 
L 311.807524 113.067054 
L 312.92534 118.296158 
L 313.535057 120.290241 
L 313.941535 121.096601 
L 314.246394 121.368623 
L 314.551253 121.357501 
L 314.856112 121.093473 
L 315.26259 120.400287 
L 315.872308 118.775058 
L 316.786884 115.498699 
L 318.514417 109.19191 
L 319.327374 107.101999 
L 320.14033 105.609861 
L 320.851667 104.735745 
L 321.563004 104.211822 
L 322.274342 103.987939 
L 322.884059 104.029008 
L 323.392157 104.286041 
L 323.900255 104.802752 
L 324.408353 105.632695 
L 325.01807 107.117498 
L 325.627788 109.223017 
L 326.339125 112.587431 
L 327.253701 118.275074 
L 329.590952 133.512198 
L 330.200669 136.114609 
L 330.708767 137.436439 
L 331.115246 137.945315 
L 331.420104 138.041123 
L 331.724963 137.916318 
L 332.131441 137.444688 
L 332.639539 136.437814 
L 333.350876 134.431348 
L 334.570312 130.113131 
L 336.297845 124.152075 
L 337.110801 122.062773 
L 337.720519 121.015787 
L 338.228617 120.57178 
L 338.635095 120.541415 
L 339.041573 120.799547 
L 339.549671 121.471578 
L 340.159389 122.692474 
L 341.073965 125.104454 
L 343.716074 132.457395 
L 344.83389 134.733303 
L 345.748466 136.141844 
L 346.561423 137.034637 
L 347.374379 137.600484 
L 348.492195 138.059928 
L 349.914869 138.635496 
L 350.727826 139.223451 
L 351.540783 140.141044 
L 352.353739 141.401969 
L 353.268315 143.228714 
L 354.284511 145.762425 
L 355.402327 149.165793 
L 356.520142 153.317143 
L 357.637958 158.38859 
L 358.755773 164.553585 
L 361.194643 178.907707 
L 361.804361 181.021257 
L 362.210839 181.764282 
L 362.515698 181.904002 
L 362.718937 181.775932 
L 363.023796 181.225924 
L 363.430274 179.87775 
L 364.039992 176.83334 
L 365.056188 170.245235 
L 366.275623 162.64017 
L 366.88534 160.10564 
L 367.291818 159.182525 
L 367.596677 158.875429 
L 367.901536 158.857906 
L 368.206395 159.093384 
L 368.612873 159.737698 
L 369.222591 161.235967 
L 370.645265 165.696589 
L 371.458221 167.772469 
L 372.169559 169.010742 
L 372.880896 169.811985 
L 373.592233 170.279248 
L 374.405189 170.536499 
L 375.929483 170.711473 
L 378.368353 171.026678 
L 379.689408 171.43379 
L 380.908843 172.044595 
L 382.128278 172.89829 
L 383.449333 174.113995 
L 385.176866 176.075976 
L 388.123834 179.445537 
L 389.648127 181.230854 
L 390.664323 182.800739 
L 391.5789 184.657898 
L 393.001574 188.221162 
L 394.424248 191.587225 
L 395.237205 192.95909 
L 395.846922 193.570012 
L 396.45664 193.85733 
L 397.167977 193.904722 
L 398.285792 193.686033 
L 399.200369 193.581237 
L 399.810086 193.706145 
L 400.521423 194.070486 
L 401.537619 194.864022 
L 404.078109 196.978856 
L 405.399163 197.647805 
L 409.260708 199.38883 
L 411.496339 200.477002 
L 412.919013 200.893543 
L 416.577318 201.814149 
L 418.50809 202.397869 
L 419.422666 202.457246 
L 420.235623 202.304777 
L 422.471254 201.723466 
L 423.080971 201.838979 
L 423.690689 202.200051 
L 424.300407 202.858165 
L 425.214983 204.250372 
L 427.044135 207.148177 
L 427.653853 207.749266 
L 428.161951 207.980653 
L 428.670049 207.964455 
L 429.279766 207.685394 
L 430.092723 207.010502 
L 431.718636 205.368298 
L 431.718636 205.368298 
" clip-path="url(#p3cc07449c3)" style="fill: none; stroke: #ff7f0e; stroke-width: 0.5; stroke-linecap: square"/>
   </g>
   <g id="line2d_29">
    <path d="M 66.091364 290.869085 
L 66.192983 290.869085 
L 66.294603 290.994545 
L 66.497842 289.112799 
L 66.90432 288.068105 
L 67.310799 287.210147 
L 67.615657 286.949137 
L 67.920516 286.950506 
L 68.225375 287.166158 
L 68.733473 287.81592 
L 69.851288 289.911311 
L 70.461006 290.411702 
L 71.172343 290.678046 
L 72.086919 290.802462 
L 72.493398 290.584843 
L 73.814452 289.79684 
L 74.32255 289.700474 
L 74.729029 289.982592 
L 75.541985 290.507968 
L 76.354942 290.734432 
L 77.777616 290.844981 
L 77.980855 290.66005 
L 78.590573 289.640999 
L 79.708388 287.068077 
L 80.724584 284.955172 
L 81.435921 284.000343 
L 82.045639 283.536884 
L 82.248878 284.138066 
L 83.265074 288.504354 
L 83.773172 289.587368 
L 84.07803 289.944308 
L 84.17965 289.769127 
L 84.687748 287.882097 
L 84.992607 287.423078 
L 85.195846 287.378316 
L 85.500705 287.939301 
L 86.212042 289.475227 
L 86.72014 290.108296 
L 87.024998 290.293628 
L 87.634716 289.77125 
L 87.939575 289.604654 
L 88.346053 289.899794 
L 89.15901 290.472633 
L 89.971966 290.721161 
L 91.293021 290.839919 
L 93.528652 290.829827 
L 94.03675 290.089063 
L 94.646467 289.270504 
L 95.052946 289.012802 
L 95.561044 289.013722 
L 95.764283 289.106877 
L 97.186957 290.474071 
L 97.999914 290.722878 
L 98.609631 290.729686 
L 99.219349 290.332433 
L 99.625827 290.410635 
L 100.743643 290.733537 
L 102.064697 290.842093 
L 102.267936 290.629 
L 103.588991 288.019472 
L 103.79223 288.018371 
L 104.097089 288.518338 
L 104.808426 289.761916 
L 105.418144 290.33571 
L 105.926242 290.576744 
L 106.129481 290.407612 
L 107.145677 289.066834 
L 107.348916 289.163748 
L 108.66997 290.440051 
L 109.381308 290.68889 
L 109.991025 290.726811 
L 110.295884 289.911911 
L 110.702362 287.991488 
L 111.108841 284.996554 
L 111.616938 279.441186 
L 112.429895 270.058846 
L 112.734754 268.88474 
L 112.836373 268.939617 
L 113.039613 269.688702 
L 113.344471 272.088658 
L 114.665526 284.405902 
L 115.173624 287.259285 
L 115.681722 288.913287 
L 116.18982 289.81893 
L 116.697918 290.306736 
L 116.799537 290.363781 
L 116.901157 290.262089 
L 117.409255 288.365897 
L 118.323831 284.514544 
L 118.73031 283.748457 
L 120.051364 282.409229 
L 120.254603 282.498537 
L 120.559462 282.976765 
L 120.96594 285.101188 
L 121.575658 287.923053 
L 122.083756 289.266837 
L 122.591854 290.007774 
L 122.896713 290.203336 
L 123.201571 289.568957 
L 124.217767 287.061376 
L 124.624246 286.616007 
L 125.030724 286.474822 
L 125.437202 286.54523 
L 125.843681 286.792785 
L 126.351779 287.450757 
L 127.266355 289.536838 
L 127.774453 290.145272 
L 128.38417 290.525718 
L 129.197127 290.742741 
L 129.400366 290.770641 
L 129.501986 290.661509 
L 130.111703 288.52954 
L 130.619801 286.919656 
L 130.92466 286.509365 
L 131.127899 286.534429 
L 131.331138 286.781399 
L 132.652193 289.833695 
L 133.160291 290.311114 
L 133.871628 290.636108 
L 134.887824 290.802358 
L 137.123455 290.864813 
L 137.733172 290.855771 
L 137.936411 290.425235 
L 138.952607 287.671382 
L 139.359086 287.079191 
L 139.663944 286.911098 
L 139.968803 287.020624 
L 140.375281 287.508964 
L 141.493097 289.811196 
L 142.001195 290.29702 
L 142.610912 290.598122 
L 143.525489 290.781131 
L 144.541685 290.832423 
L 144.846543 290.543349 
L 145.253022 289.758464 
L 145.964359 288.213574 
L 146.269217 288.012519 
L 146.574076 288.171458 
L 147.082174 288.859103 
L 147.793511 289.932409 
L 148.403229 290.418595 
L 149.114566 290.680589 
L 150.130762 290.812701 
L 150.334001 290.633753 
L 151.146958 289.780342 
L 151.451816 289.666156 
L 151.756675 289.753174 
L 152.366393 290.040814 
L 152.569632 289.898837 
L 152.874491 289.30249 
L 153.789067 287.049574 
L 153.890686 286.997199 
L 154.093926 287.302314 
L 155.211741 289.754856 
L 155.719839 290.266764 
L 156.329557 290.583785 
L 156.532796 290.448001 
L 157.142513 289.18088 
L 158.260329 286.582971 
L 158.666807 286.384304 
L 159.073285 287.54849 
L 159.683003 289.164919 
L 160.191101 289.941352 
L 160.699199 290.370195 
L 160.902438 290.316729 
L 161.410536 289.727715 
L 163.239688 288.379927 
L 163.442928 288.58603 
L 164.459124 290.067725 
L 165.068841 290.48538 
L 165.475319 290.549127 
L 165.678559 289.712048 
L 166.491515 285.862037 
L 166.694754 285.629338 
L 166.897994 285.777287 
L 167.202852 286.487599 
L 168.219048 289.341232 
L 168.727146 290.04131 
L 169.336864 290.476758 
L 170.14982 290.724762 
L 171.470875 290.840701 
L 172.79193 290.807702 
L 173.096788 290.234159 
L 174.112984 288.005343 
L 174.417843 287.944801 
L 174.824321 288.297871 
L 175.942137 290.059602 
L 176.551854 290.482448 
L 177.364811 290.726564 
L 178.685866 290.840988 
L 179.295583 290.758601 
L 180.311779 290.716215 
L 183.563606 290.865287 
L 185.494378 290.788914 
L 186.002476 290.732415 
L 189.152683 290.865318 
L 191.998031 290.794486 
L 192.506129 290.655202 
L 196.977391 290.866536 
L 203.379425 290.818591 
L 204.497241 289.556311 
L 204.70048 289.610072 
L 206.224774 290.618045 
L 207.240969 290.796815 
L 208.663644 290.836858 
L 208.968502 290.516453 
L 209.57822 289.452076 
L 210.289557 288.284409 
L 210.696035 287.992664 
L 211.102514 287.977924 
L 211.610612 288.161953 
L 211.91547 288.621994 
L 212.626808 289.806718 
L 213.236525 290.356997 
L 213.947862 290.654691 
L 214.354341 290.706762 
L 214.659199 290.207768 
L 215.268917 289.41318 
L 216.589971 288.528521 
L 216.99645 288.530408 
L 217.301309 288.930274 
L 218.012646 289.953107 
L 218.622363 290.427604 
L 219.3337 290.684256 
L 220.045037 290.770131 
L 220.248277 290.302437 
L 220.553135 288.972851 
L 221.670951 282.873772 
L 221.87419 282.787785 
L 221.97581 282.824065 
L 222.179049 283.427875 
L 223.296864 288.534644 
L 223.804962 289.606918 
L 224.109821 289.999896 
L 224.21144 289.907024 
L 224.516299 288.309193 
L 225.532495 281.113657 
L 225.735734 280.795855 
L 225.938973 280.951085 
L 226.243832 281.754436 
L 227.564887 286.456696 
L 228.174604 288.653811 
L 228.682702 289.668488 
L 228.987561 290.04187 
L 229.089181 290.012152 
L 229.29242 288.93988 
L 229.698898 285.25179 
L 230.410235 278.754438 
L 230.715094 277.738817 
L 230.918333 277.694614 
L 231.223192 278.206411 
L 231.934529 279.592422 
L 232.544247 280.288912 
L 232.747486 281.115712 
L 233.763682 287.427717 
L 234.27178 289.003348 
L 234.373399 289.220762 
L 234.475019 289.146768 
L 234.678258 287.517725 
L 235.084736 281.985122 
L 235.694454 273.939442 
L 235.897693 272.865657 
L 235.999312 272.702685 
L 236.100932 272.772952 
L 236.304171 273.482277 
L 236.71065 276.218944 
L 237.421987 281.013865 
L 237.930085 283.143864 
L 238.641422 285.888794 
L 239.251139 288.336067 
L 239.759237 289.49264 
L 240.267335 290.129345 
L 240.470574 290.242136 
L 240.673813 289.816005 
L 241.283531 287.767767 
L 242.299727 284.162442 
L 242.502966 283.958821 
L 242.706205 284.045002 
L 243.011064 284.623781 
L 244.941836 289.62811 
L 245.449934 290.19655 
L 246.059652 290.550307 
L 246.872608 290.751818 
L 247.279087 290.794941 
L 247.380706 290.662109 
L 247.787185 288.919139 
L 248.396902 284.667433 
L 248.905 281.921324 
L 249.209859 281.43045 
L 249.413098 281.573298 
L 249.717957 282.283998 
L 250.937392 286.458485 
L 251.547109 288.563342 
L 252.055207 289.609253 
L 252.563305 290.190906 
L 252.969783 290.457253 
L 253.071403 290.311436 
L 253.376262 288.613559 
L 253.78274 284.662138 
L 254.595697 275.616346 
L 254.798936 274.690768 
L 254.900556 274.557439 
L 255.002175 274.661962 
L 255.307034 276.065366 
L 256.628089 287.126777 
L 256.831328 287.79551 
L 257.034567 287.612472 
L 257.237806 287.013921 
L 257.949143 284.263692 
L 258.152382 284.757022 
L 259.270198 288.950843 
L 259.676676 289.695132 
L 259.778296 289.569701 
L 259.981535 287.812275 
L 260.286394 283.283211 
L 261.30259 265.488424 
L 261.505829 265.029512 
L 261.709068 265.927187 
L 262.115546 269.992116 
L 262.522025 273.642319 
L 262.826883 274.710868 
L 263.030123 274.688005 
L 263.74146 273.656968 
L 263.944699 273.903496 
L 264.249558 274.955937 
L 264.757656 278.054402 
L 266.18033 287.662069 
L 266.688428 289.138338 
L 267.196526 289.940876 
L 267.603004 290.306024 
L 267.704624 290.277364 
L 267.907863 289.372178 
L 268.314341 285.971371 
L 268.924059 280.488096 
L 269.228917 279.560988 
L 269.330537 279.574722 
L 269.533776 279.917977 
L 269.940254 280.60884 
L 270.041874 280.541717 
L 270.245113 279.972141 
L 270.651592 277.531056 
L 271.05807 275.532852 
L 271.159689 275.419766 
L 271.261309 275.505106 
L 271.464548 276.25526 
L 271.871027 279.377621 
L 272.480744 283.994062 
L 272.887222 285.411889 
L 273.192081 286.361106 
L 273.903418 288.743759 
L 274.411516 289.710573 
L 274.919614 290.245888 
L 275.529332 290.574393 
L 276.443908 290.773453 
L 276.952006 290.767288 
L 277.256865 290.195442 
L 277.866582 288.8671 
L 278.069821 288.982826 
L 279.289256 290.301539 
L 279.390876 290.130867 
L 279.695735 288.650305 
L 280.711931 282.10674 
L 280.91517 281.783534 
L 281.118409 281.884422 
L 281.423268 282.60256 
L 281.626507 283.359448 
L 282.642703 288.250347 
L 283.150801 289.450308 
L 283.658899 290.107287 
L 284.166997 290.455333 
L 285.081573 290.693256 
L 285.284812 290.573658 
L 285.589671 290.021417 
L 285.996149 288.571253 
L 287.113965 284.047352 
L 287.520443 283.397867 
L 287.825302 283.271616 
L 288.13016 283.405219 
L 288.536639 283.871207 
L 288.739878 284.503015 
L 289.756074 288.653709 
L 290.264172 289.668984 
L 290.467411 289.802651 
L 290.67065 288.100907 
L 290.975509 283.042088 
L 291.991705 262.827682 
L 292.093324 262.441754 
L 292.194944 262.495171 
L 292.398183 263.77527 
L 292.804661 269.506425 
L 293.515999 280.761756 
L 294.024096 285.356829 
L 294.532194 287.882814 
L 295.040292 289.118382 
L 295.54839 289.904562 
L 296.158108 290.409435 
L 296.869445 290.677195 
L 297.98726 290.820611 
L 298.800217 290.783709 
L 299.714793 289.398022 
L 300.019652 289.358227 
L 300.42613 289.432717 
L 300.62937 289.276878 
L 300.934228 288.537665 
L 301.340707 286.663775 
L 301.848805 284.396622 
L 302.052044 283.944454 
L 302.255283 284.479607 
L 303.271479 288.612459 
L 303.779577 289.645586 
L 304.084436 290.025873 
L 304.186055 290.007055 
L 305.50711 287.464863 
L 305.811969 287.398219 
L 306.116827 287.597858 
L 306.726545 288.401974 
L 307.437882 289.229557 
L 308.555697 290.3571 
L 309.267034 290.653226 
L 310.28323 290.807143 
L 310.48647 290.768411 
L 310.892948 290.111532 
L 311.502665 288.614927 
L 312.7221 285.546855 
L 313.230198 284.80764 
L 313.535057 284.687929 
L 313.839916 284.754147 
L 314.144775 285.789572 
L 314.856112 288.466648 
L 315.36421 289.558927 
L 315.872308 290.164212 
L 316.075547 290.273746 
L 316.482025 290.021946 
L 316.888503 290.208135 
L 317.80308 290.627975 
L 318.107939 290.685523 
L 318.311178 290.382109 
L 318.819276 288.992396 
L 320.14033 284.867222 
L 320.343569 284.779322 
L 320.546809 284.906062 
L 320.953287 285.572381 
L 322.172722 288.325955 
L 322.782439 289.588681 
L 323.290537 290.174749 
L 323.900255 290.539906 
L 324.713212 290.747936 
L 324.916451 290.540329 
L 325.424549 289.384841 
L 326.135886 287.074594 
L 327.355321 282.862635 
L 327.66018 282.52532 
L 327.863419 282.548511 
L 328.168278 282.859702 
L 328.879615 284.057204 
L 329.387713 285.450421 
L 330.200669 288.555548 
L 330.708767 289.610387 
L 331.216865 290.192383 
L 331.826583 290.549185 
L 332.334681 290.697903 
L 332.4363 290.462272 
L 332.842779 287.343078 
L 333.554116 281.735351 
L 333.960594 280.233347 
L 334.367072 279.643155 
L 334.87517 279.35792 
L 335.180029 279.47031 
L 335.484888 279.969655 
L 335.891366 281.252905 
L 336.907562 285.624111 
L 337.51728 288.16438 
L 338.025377 289.395257 
L 338.533475 290.076353 
L 339.143193 290.494256 
L 339.346432 290.552835 
L 341.480443 289.411943 
L 342.39502 288.683132 
L 342.903118 288.240227 
L 343.106357 288.407807 
L 344.325792 290.176816 
L 344.935509 290.539165 
L 345.341988 290.624337 
L 345.646846 289.967902 
L 346.866282 286.953998 
L 347.27276 286.59101 
L 347.577619 286.572279 
L 347.984097 286.813501 
L 349.914869 288.596116 
L 350.727826 289.905908 
L 351.337543 290.406374 
L 352.04888 290.675529 
L 353.166696 290.820173 
L 353.979653 290.814711 
L 354.69099 290.195335 
L 355.707186 289.205114 
L 356.520142 288.670395 
L 357.02824 287.945281 
L 357.942816 286.525856 
L 358.349295 286.396192 
L 358.552534 286.790606 
L 359.56873 289.446312 
L 360.076828 290.098238 
L 360.686545 290.50374 
L 361.194643 290.662135 
L 362.10922 290.519841 
L 363.328655 290.779074 
L 363.430274 290.746706 
L 363.633513 290.331387 
L 364.039992 288.775625 
L 364.751329 285.841842 
L 365.056188 285.319731 
L 365.259427 285.252037 
L 365.462666 285.365195 
L 365.869144 285.968834 
L 367.088579 289.492469 
L 367.596677 290.126205 
L 368.206395 290.517449 
L 368.511253 290.583204 
L 369.019351 290.0653 
L 369.32421 289.760524 
L 369.629069 289.897852 
L 370.645265 290.538483 
L 371.356602 290.729516 
L 371.559841 290.647788 
L 372.169559 290.140764 
L 372.576037 290.043908 
L 373.287374 290.018053 
L 373.592233 289.714574 
L 374.100331 288.656669 
L 374.608429 287.747699 
L 374.811668 287.954925 
L 376.031103 290.051824 
L 376.64082 290.47964 
L 377.453777 290.725608 
L 378.368353 290.797017 
L 378.774832 290.388018 
L 379.587788 289.431687 
L 379.994267 289.317035 
L 380.502365 289.454984 
L 380.908843 289.799835 
L 381.62018 290.378321 
L 382.331517 290.66109 
L 383.449333 290.816375 
L 384.567148 290.783328 
L 385.176866 290.77689 
L 387.717355 290.864285 
L 392.086998 290.812669 
L 393.001574 290.207952 
L 394.830726 290.776749 
L 395.033966 290.775646 
L 395.237205 290.423373 
L 395.745303 289.504309 
L 396.151781 289.117727 
L 396.558259 288.996833 
L 397.066357 289.118726 
L 397.371216 289.337798 
L 398.285792 290.278772 
L 398.997129 290.618982 
L 400.013325 290.797245 
L 400.318184 290.733651 
L 400.927902 290.420601 
L 401.23276 290.387556 
L 403.570011 290.832004 
L 405.602403 290.812469 
L 406.821838 290.220176 
L 408.549371 290.767692 
L 409.972045 290.842144 
L 410.480143 290.527366 
L 411.19148 290.197948 
L 411.496339 290.135226 
L 412.207676 290.462922 
L 413.020632 290.712404 
L 414.341687 290.837986 
L 419.422666 290.82407 
L 420.235623 290.471702 
L 423.182591 290.85422 
L 424.198787 290.802898 
L 425.011744 289.725397 
L 426.536037 287.539144 
L 427.044135 287.247487 
L 427.552233 287.216853 
L 428.161951 287.420012 
L 428.873288 287.918368 
L 429.483005 289.131245 
L 430.092723 290.009395 
L 430.70244 290.458853 
L 431.413778 290.697777 
L 431.718636 290.751362 
L 431.718636 290.751362 
" clip-path="url(#p3cc07449c3)" style="fill: none; stroke: #2ca02c; stroke-width: 0.5; stroke-linecap: square"/>
   </g>
   <g id="patch_3">
    <path d="M 47.81 303.64 
L 47.81 25.44 
" style="fill: none; stroke: #000000; stroke-width: 0.8; stroke-linejoin: miter; stroke-linecap: square"/>
   </g>
   <g id="patch_4">
    <path d="M 450 303.64 
L 450 25.44 
" style="fill: none; stroke: #000000; stroke-width: 0.8; stroke-linejoin: miter; stroke-linecap: square"/>
   </g>
   <g id="patch_5">
    <path d="M 47.81 303.64 
L 450 303.64 
" style="fill: none; stroke: #000000; stroke-width: 0.8; stroke-linejoin: miter; stroke-linecap: square"/>
   </g>
   <g id="patch_6">
    <path d="M 47.81 25.44 
L 450 25.44 
" style="fill: none; stroke: #000000; stroke-width: 0.8; stroke-linejoin: miter; stroke-linecap: square"/>
   </g>
   <g id="text_16">
    <!-- cvxEDA (σ=1.6s  data_3_E4) -->
    <g transform="translate(163.25125 19.44) scale(0.12 -0.12)">
     <defs>
      <path id="DejaVuSans-63" d="M 3122 3366 
L 3122 2828 
Q 2878 2963 2633 3030 
Q 2388 3097 2138 3097 
Q 1578 3097 1268 2742 
Q 959 2388 959 1747 
Q 959 1106 1268 751 
Q 1578 397 2138 397 
Q 2388 397 2633 464 
Q 2878 531 3122 666 
L 3122 134 
Q 2881 22 2623 -34 
Q 2366 -91 2075 -91 
Q 1284 -91 818 406 
Q 353 903 353 1747 
Q 353 2603 823 3093 
Q 1294 3584 2113 3584 
Q 2378 3584 2631 3529 
Q 2884 3475 3122 3366 
z
" transform="scale(0.015625)"/>
      <path id="DejaVuSans-76" d="M 191 3500 
L 800 3500 
L 1894 563 
L 2988 3500 
L 3597 3500 
L 2284 0 
L 1503 0 
L 191 3500 
z
" transform="scale(0.015625)"/>
      <path id="DejaVuSans-78" d="M 3513 3500 
L 2247 1797 
L 3578 0 
L 2900 0 
L 1881 1375 
L 863 0 
L 184 0 
L 1544 1831 
L 300 3500 
L 978 3500 
L 1906 2253 
L 2834 3500 
L 3513 3500 
z
" transform="scale(0.015625)"/>
      <path id="DejaVuSans-3c3" d="M 1959 3044 
Q 1484 3044 1228 2700 
Q 959 2341 959 1747 
Q 959 1119 1226 758 
Q 1494 397 1959 397 
Q 2419 397 2687 759 
Q 2956 1122 2956 1747 
Q 2956 2319 2688 2700 
Q 2441 3044 1959 3044 
z
M 1959 3500 
L 3869 3500 
L 3869 2925 
L 3225 2925 
Q 3566 2438 3566 1747 
Q 3566 888 3138 400 
Q 2709 -91 1959 -91 
Q 1206 -91 781 400 
Q 353 888 353 1747 
Q 353 2613 781 3097 
Q 1134 3500 1959 3500 
z
" transform="scale(0.015625)"/>
      <path id="DejaVuSans-3d" d="M 678 2906 
L 4684 2906 
L 4684 2381 
L 678 2381 
L 678 2906 
z
M 678 1631 
L 4684 1631 
L 4684 1100 
L 678 1100 
L 678 1631 
z
" transform="scale(0.015625)"/>
      <path id="DejaVuSans-64" d="M 2906 2969 
L 2906 4863 
L 3481 4863 
L 3481 0 
L 2906 0 
L 2906 525 
Q 2725 213 2448 61 
Q 2172 -91 1784 -91 
Q 1150 -91 751 415 
Q 353 922 353 1747 
Q 353 2572 751 3078 
Q 1150 3584 1784 3584 
Q 2172 3584 2448 3432 
Q 2725 3281 2906 2969 
z
M 947 1747 
Q 947 1113 1208 752 
Q 1469 391 1925 391 
Q 2381 391 2643 752 
Q 2906 1113 2906 1747 
Q 2906 2381 2643 2742 
Q 2381 3103 1925 3103 
Q 1469 3103 1208 2742 
Q 947 2381 947 1747 
z
" transform="scale(0.015625)"/>
      <path id="DejaVuSans-5f" d="M 3263 -1063 
L 3263 -1509 
L -63 -1509 
L -63 -1063 
L 3263 -1063 
z
" transform="scale(0.015625)"/>
      <path id="DejaVuSans-33" d="M 2597 2516 
Q 3050 2419 3304 2112 
Q 3559 1806 3559 1356 
Q 3559 666 3084 287 
Q 2609 -91 1734 -91 
Q 1441 -91 1130 -33 
Q 819 25 488 141 
L 488 750 
Q 750 597 1062 519 
Q 1375 441 1716 441 
Q 2309 441 2620 675 
Q 2931 909 2931 1356 
Q 2931 1769 2642 2001 
Q 2353 2234 1838 2234 
L 1294 2234 
L 1294 2753 
L 1863 2753 
Q 2328 2753 2575 2939 
Q 2822 3125 2822 3475 
Q 2822 3834 2567 4026 
Q 2313 4219 1838 4219 
Q 1578 4219 1281 4162 
Q 984 4106 628 3988 
L 628 4550 
Q 988 4650 1302 4700 
Q 1616 4750 1894 4750 
Q 2613 4750 3031 4423 
Q 3450 4097 3450 3541 
Q 3450 3153 3228 2886 
Q 3006 2619 2597 2516 
z
" transform="scale(0.015625)"/>
     </defs>
     <use xlink:href="#DejaVuSans-63"/>
     <use xlink:href="#DejaVuSans-76" transform="translate(54.980469 0)"/>
     <use xlink:href="#DejaVuSans-78" transform="translate(114.160156 0)"/>
     <use xlink:href="#DejaVuSans-45" transform="translate(173.339844 0)"/>
     <use xlink:href="#DejaVuSans-44" transform="translate(236.523438 0)"/>
     <use xlink:href="#DejaVuSans-41" transform="translate(311.775391 0)"/>
     <use xlink:href="#DejaVuSans-20" transform="translate(380.183594 0)"/>
     <use xlink:href="#DejaVuSans-28" transform="translate(411.970703 0)"/>
     <use xlink:href="#DejaVuSans-3c3" transform="translate(450.984375 0)"/>
     <use xlink:href="#DejaVuSans-3d" transform="translate(514.363281 0)"/>
     <use xlink:href="#DejaVuSans-31" transform="translate(598.152344 0)"/>
     <use xlink:href="#DejaVuSans-2e" transform="translate(661.775391 0)"/>
     <use xlink:href="#DejaVuSans-36" transform="translate(693.5625 0)"/>
     <use xlink:href="#DejaVuSans-73" transform="translate(757.185547 0)"/>
     <use xlink:href="#DejaVuSans-20" transform="translate(809.285156 0)"/>
     <use xlink:href="#DejaVuSans-20" transform="translate(841.072266 0)"/>
     <use xlink:href="#DejaVuSans-64" transform="translate(872.859375 0)"/>
     <use xlink:href="#DejaVuSans-61" transform="translate(936.335938 0)"/>
     <use xlink:href="#DejaVuSans-74" transform="translate(997.615234 0)"/>
     <use xlink:href="#DejaVuSans-61" transform="translate(1036.824219 0)"/>
     <use xlink:href="#DejaVuSans-5f" transform="translate(1098.103516 0)"/>
     <use xlink:href="#DejaVuSans-33" transform="translate(1148.103516 0)"/>
     <use xlink:href="#DejaVuSans-5f" transform="translate(1211.726562 0)"/>
     <use xlink:href="#DejaVuSans-45" transform="translate(1261.726562 0)"/>
     <use xlink:href="#DejaVuSans-34" transform="translate(1324.910156 0)"/>
     <use xlink:href="#DejaVuSans-29" transform="translate(1388.533203 0)"/>
    </g>
   </g>
   <g id="legend_1">
    <g id="patch_7">
     <path d="M 350.09375 77.474375 
L 443 77.474375 
Q 445 77.474375 445 75.474375 
L 445 32.44 
Q 445 30.44 443 30.44 
L 350.09375 30.44 
Q 348.09375 30.44 348.09375 32.44 
L 348.09375 75.474375 
Q 348.09375 77.474375 350.09375 77.474375 
z
" style="fill: #ffffff; opacity: 0.8; stroke: #cccccc; stroke-linejoin: miter"/>
    </g>
    <g id="line2d_30">
     <path d="M 352.09375 38.538437 
L 362.09375 38.538437 
L 372.09375 38.538437 
" style="fill: none; stroke-dasharray: 1.85,0.8; stroke-dashoffset: 0; stroke: #1f77b4; stroke-width: 0.5"/>
    </g>
    <g id="text_17">
     <!-- Filtered EDA -->
     <g transform="translate(380.09375 42.038437) scale(0.1 -0.1)">
      <defs>
       <path id="DejaVuSans-46" d="M 628 4666 
L 3309 4666 
L 3309 4134 
L 1259 4134 
L 1259 2759 
L 3109 2759 
L 3109 2228 
L 1259 2228 
L 1259 0 
L 628 0 
L 628 4666 
z
" transform="scale(0.015625)"/>
       <path id="DejaVuSans-72" d="M 2631 2963 
Q 2534 3019 2420 3045 
Q 2306 3072 2169 3072 
Q 1681 3072 1420 2755 
Q 1159 2438 1159 1844 
L 1159 0 
L 581 0 
L 581 3500 
L 1159 3500 
L 1159 2956 
Q 1341 3275 1631 3429 
Q 1922 3584 2338 3584 
Q 2397 3584 2469 3576 
Q 2541 3569 2628 3553 
L 2631 2963 
z
" transform="scale(0.015625)"/>
      </defs>
      <use xlink:href="#DejaVuSans-46"/>
      <use xlink:href="#DejaVuSans-69" transform="translate(50.269531 0)"/>
      <use xlink:href="#DejaVuSans-6c" transform="translate(78.052734 0)"/>
      <use xlink:href="#DejaVuSans-74" transform="translate(105.835938 0)"/>
      <use xlink:href="#DejaVuSans-65" transform="translate(145.044922 0)"/>
      <use xlink:href="#DejaVuSans-72" transform="translate(206.568359 0)"/>
      <use xlink:href="#DejaVuSans-65" transform="translate(245.431641 0)"/>
      <use xlink:href="#DejaVuSans-64" transform="translate(306.955078 0)"/>
      <use xlink:href="#DejaVuSans-20" transform="translate(370.431641 0)"/>
      <use xlink:href="#DejaVuSans-45" transform="translate(402.21875 0)"/>
      <use xlink:href="#DejaVuSans-44" transform="translate(465.402344 0)"/>
      <use xlink:href="#DejaVuSans-41" transform="translate(540.654297 0)"/>
     </g>
    </g>
    <g id="line2d_31">
     <path d="M 352.09375 53.216562 
L 362.09375 53.216562 
L 372.09375 53.216562 
" style="fill: none; stroke: #ff7f0e; stroke-width: 0.5; stroke-linecap: square"/>
    </g>
    <g id="text_18">
     <!-- Tonic -->
     <g transform="translate(380.09375 56.716562) scale(0.1 -0.1)">
      <defs>
       <path id="DejaVuSans-6f" d="M 1959 3097 
Q 1497 3097 1228 2736 
Q 959 2375 959 1747 
Q 959 1119 1226 758 
Q 1494 397 1959 397 
Q 2419 397 2687 759 
Q 2956 1122 2956 1747 
Q 2956 2369 2687 2733 
Q 2419 3097 1959 3097 
z
M 1959 3584 
Q 2709 3584 3137 3096 
Q 3566 2609 3566 1747 
Q 3566 888 3137 398 
Q 2709 -91 1959 -91 
Q 1206 -91 779 398 
Q 353 888 353 1747 
Q 353 2609 779 3096 
Q 1206 3584 1959 3584 
z
" transform="scale(0.015625)"/>
      </defs>
      <use xlink:href="#DejaVuSans-54"/>
      <use xlink:href="#DejaVuSans-6f" transform="translate(44.083984 0)"/>
      <use xlink:href="#DejaVuSans-6e" transform="translate(105.265625 0)"/>
      <use xlink:href="#DejaVuSans-69" transform="translate(168.644531 0)"/>
      <use xlink:href="#DejaVuSans-63" transform="translate(196.427734 0)"/>
     </g>
    </g>
    <g id="line2d_32">
     <path d="M 352.09375 67.894687 
L 362.09375 67.894687 
L 372.09375 67.894687 
" style="fill: none; stroke: #2ca02c; stroke-width: 0.5; stroke-linecap: square"/>
    </g>
    <g id="text_19">
     <!-- Phasic -->
     <g transform="translate(380.09375 71.394687) scale(0.1 -0.1)">
      <defs>
       <path id="DejaVuSans-50" d="M 1259 4147 
L 1259 2394 
L 2053 2394 
Q 2494 2394 2734 2622 
Q 2975 2850 2975 3272 
Q 2975 3691 2734 3919 
Q 2494 4147 2053 4147 
L 1259 4147 
z
M 628 4666 
L 2053 4666 
Q 2838 4666 3239 4311 
Q 3641 3956 3641 3272 
Q 3641 2581 3239 2228 
Q 2838 1875 2053 1875 
L 1259 1875 
L 1259 0 
L 628 0 
L 628 4666 
z
" transform="scale(0.015625)"/>
       <path id="DejaVuSans-68" d="M 3513 2113 
L 3513 0 
L 2938 0 
L 2938 2094 
Q 2938 2591 2744 2837 
Q 2550 3084 2163 3084 
Q 1697 3084 1428 2787 
Q 1159 2491 1159 1978 
L 1159 0 
L 581 0 
L 581 4863 
L 1159 4863 
L 1159 2956 
Q 1366 3272 1645 3428 
Q 1925 3584 2291 3584 
Q 2894 3584 3203 3211 
Q 3513 2838 3513 2113 
z
" transform="scale(0.015625)"/>
      </defs>
      <use xlink:href="#DejaVuSans-50"/>
      <use xlink:href="#DejaVuSans-68" transform="translate(60.302734 0)"/>
      <use xlink:href="#DejaVuSans-61" transform="translate(123.681641 0)"/>
      <use xlink:href="#DejaVuSans-73" transform="translate(184.960938 0)"/>
      <use xlink:href="#DejaVuSans-69" transform="translate(237.060547 0)"/>
      <use xlink:href="#DejaVuSans-63" transform="translate(264.84375 0)"/>
     </g>
    </g>
   </g>
  </g>
 </g>
 <defs>
  <clipPath id="p3cc07449c3">
   <rect x="47.81" y="25.44" width="402.19" height="278.2"/>
  </clipPath>
 </defs>
</svg>
