<?xml version="1.0" encoding="utf-8" standalone="no"?>
<!DOCTYPE svg PUBLIC "-//W3C//DTD SVG 1.1//EN"
  "http://www.w3.org/Graphics/SVG/1.1/DTD/svg11.dtd">
<svg xmlns:xlink="http://www.w3.org/1999/xlink" width="460.8pt" height="345.6pt" viewBox="0 0 460.8 345.6" xmlns="http://www.w3.org/2000/svg" version="1.1">
 <metadata>
  <rdf:RDF xmlns:dc="http://purl.org/dc/elements/1.1/" xmlns:cc="http://creativecommons.org/ns#" xmlns:rdf="http://www.w3.org/1999/02/22-rdf-syntax-ns#">
   <cc:Work>
    <dc:type rdf:resource="http://purl.org/dc/dcmitype/StillImage"/>
    <dc:date>2025-09-22T15:39:33.235951</dc:date>
    <dc:format>image/svg+xml</dc:format>
    <dc:creator>
     <cc:Agent>
      <dc:title>Matplotlib v3.10.0, https://matplotlib.org/</dc:title>
     </cc:Agent>
    </dc:creator>
   </cc:Work>
  </rdf:RDF>
 </metadata>
 <defs>
  <style type="text/css">*{stroke-linejoin: round; stroke-linecap: butt}</style>
 </defs>
 <g id="figure_1">
  <g id="patch_1">
   <path d="M 0 345.6 
L 460.8 345.6 
L 460.8 0 
L 0 0 
z
" style="fill: #ffffff"/>
  </g>
  <g id="axes_1">
   <g id="patch_2">
    <path d="M 47.81 303.64 
L 450 303.64 
L 450 25.44 
L 47.81 25.44 
z
" style="fill: #ffffff"/>
   </g>
   <g id="matplotlib.axis_1">
    <g id="xtick_1">
     <g id="line2d_1">
      <path d="M 66.091364 303.64 
L 66.091364 25.44 
" clip-path="url(#p94cf24aa9d)" style="fill: none; stroke: #b0b0b0; stroke-opacity: 0.3; stroke-width: 0.8; stroke-linecap: square"/>
     </g>
     <g id="line2d_2">
      <defs>
       <path id="md8141ea7a5" d="M 0 0 
L 0 3.5 
" style="stroke: #000000; stroke-width: 0.8"/>
      </defs>
      <g>
       <use xlink:href="#md8141ea7a5" x="66.091364" y="303.64" style="stroke: #000000; stroke-width: 0.8"/>
      </g>
     </g>
     <g id="text_1">
      <!-- 0 -->
      <g transform="translate(62.910114 318.238437) scale(0.1 -0.1)">
       <defs>
        <path id="DejaVuSans-30" d="M 2034 4250 
Q 1547 4250 1301 3770 
Q 1056 3291 1056 2328 
Q 1056 1369 1301 889 
Q 1547 409 2034 409 
Q 2525 409 2770 889 
Q 3016 1369 3016 2328 
Q 3016 3291 2770 3770 
Q 2525 4250 2034 4250 
z
M 2034 4750 
Q 2819 4750 3233 4129 
Q 3647 3509 3647 2328 
Q 3647 1150 3233 529 
Q 2819 -91 2034 -91 
Q 1250 -91 836 529 
Q 422 1150 422 2328 
Q 422 3509 836 4129 
Q 1250 4750 2034 4750 
z
" transform="scale(0.015625)"/>
       </defs>
       <use xlink:href="#DejaVuSans-30"/>
      </g>
     </g>
    </g>
    <g id="xtick_2">
     <g id="line2d_3">
      <path d="M 114.841667 303.64 
L 114.841667 25.44 
" clip-path="url(#p94cf24aa9d)" style="fill: none; stroke: #b0b0b0; stroke-opacity: 0.3; stroke-width: 0.8; stroke-linecap: square"/>
     </g>
     <g id="line2d_4">
      <g>
       <use xlink:href="#md8141ea7a5" x="114.841667" y="303.64" style="stroke: #000000; stroke-width: 0.8"/>
      </g>
     </g>
     <g id="text_2">
      <!-- 2 -->
      <g transform="translate(111.660417 318.238437) scale(0.1 -0.1)">
       <defs>
        <path id="DejaVuSans-32" d="M 1228 531 
L 3431 531 
L 3431 0 
L 469 0 
L 469 531 
Q 828 903 1448 1529 
Q 2069 2156 2228 2338 
Q 2531 2678 2651 2914 
Q 2772 3150 2772 3378 
Q 2772 3750 2511 3984 
Q 2250 4219 1831 4219 
Q 1534 4219 1204 4116 
Q 875 4013 500 3803 
L 500 4441 
Q 881 4594 1212 4672 
Q 1544 4750 1819 4750 
Q 2544 4750 2975 4387 
Q 3406 4025 3406 3419 
Q 3406 3131 3298 2873 
Q 3191 2616 2906 2266 
Q 2828 2175 2409 1742 
Q 1991 1309 1228 531 
z
" transform="scale(0.015625)"/>
       </defs>
       <use xlink:href="#DejaVuSans-32"/>
      </g>
     </g>
    </g>
    <g id="xtick_3">
     <g id="line2d_5">
      <path d="M 163.59197 303.64 
L 163.59197 25.44 
" clip-path="url(#p94cf24aa9d)" style="fill: none; stroke: #b0b0b0; stroke-opacity: 0.3; stroke-width: 0.8; stroke-linecap: square"/>
     </g>
     <g id="line2d_6">
      <g>
       <use xlink:href="#md8141ea7a5" x="163.59197" y="303.64" style="stroke: #000000; stroke-width: 0.8"/>
      </g>
     </g>
     <g id="text_3">
      <!-- 4 -->
      <g transform="translate(160.41072 318.238437) scale(0.1 -0.1)">
       <defs>
        <path id="DejaVuSans-34" d="M 2419 4116 
L 825 1625 
L 2419 1625 
L 2419 4116 
z
M 2253 4666 
L 3047 4666 
L 3047 1625 
L 3713 1625 
L 3713 1100 
L 3047 1100 
L 3047 0 
L 2419 0 
L 2419 1100 
L 313 1100 
L 313 1709 
L 2253 4666 
z
" transform="scale(0.015625)"/>
       </defs>
       <use xlink:href="#DejaVuSans-34"/>
      </g>
     </g>
    </g>
    <g id="xtick_4">
     <g id="line2d_7">
      <path d="M 212.342273 303.64 
L 212.342273 25.44 
" clip-path="url(#p94cf24aa9d)" style="fill: none; stroke: #b0b0b0; stroke-opacity: 0.3; stroke-width: 0.8; stroke-linecap: square"/>
     </g>
     <g id="line2d_8">
      <g>
       <use xlink:href="#md8141ea7a5" x="212.342273" y="303.64" style="stroke: #000000; stroke-width: 0.8"/>
      </g>
     </g>
     <g id="text_4">
      <!-- 6 -->
      <g transform="translate(209.161023 318.238437) scale(0.1 -0.1)">
       <defs>
        <path id="DejaVuSans-36" d="M 2113 2584 
Q 1688 2584 1439 2293 
Q 1191 2003 1191 1497 
Q 1191 994 1439 701 
Q 1688 409 2113 409 
Q 2538 409 2786 701 
Q 3034 994 3034 1497 
Q 3034 2003 2786 2293 
Q 2538 2584 2113 2584 
z
M 3366 4563 
L 3366 3988 
Q 3128 4100 2886 4159 
Q 2644 4219 2406 4219 
Q 1781 4219 1451 3797 
Q 1122 3375 1075 2522 
Q 1259 2794 1537 2939 
Q 1816 3084 2150 3084 
Q 2853 3084 3261 2657 
Q 3669 2231 3669 1497 
Q 3669 778 3244 343 
Q 2819 -91 2113 -91 
Q 1303 -91 875 529 
Q 447 1150 447 2328 
Q 447 3434 972 4092 
Q 1497 4750 2381 4750 
Q 2619 4750 2861 4703 
Q 3103 4656 3366 4563 
z
" transform="scale(0.015625)"/>
       </defs>
       <use xlink:href="#DejaVuSans-36"/>
      </g>
     </g>
    </g>
    <g id="xtick_5">
     <g id="line2d_9">
      <path d="M 261.092576 303.64 
L 261.092576 25.44 
" clip-path="url(#p94cf24aa9d)" style="fill: none; stroke: #b0b0b0; stroke-opacity: 0.3; stroke-width: 0.8; stroke-linecap: square"/>
     </g>
     <g id="line2d_10">
      <g>
       <use xlink:href="#md8141ea7a5" x="261.092576" y="303.64" style="stroke: #000000; stroke-width: 0.8"/>
      </g>
     </g>
     <g id="text_5">
      <!-- 8 -->
      <g transform="translate(257.911326 318.238437) scale(0.1 -0.1)">
       <defs>
        <path id="DejaVuSans-38" d="M 2034 2216 
Q 1584 2216 1326 1975 
Q 1069 1734 1069 1313 
Q 1069 891 1326 650 
Q 1584 409 2034 409 
Q 2484 409 2743 651 
Q 3003 894 3003 1313 
Q 3003 1734 2745 1975 
Q 2488 2216 2034 2216 
z
M 1403 2484 
Q 997 2584 770 2862 
Q 544 3141 544 3541 
Q 544 4100 942 4425 
Q 1341 4750 2034 4750 
Q 2731 4750 3128 4425 
Q 3525 4100 3525 3541 
Q 3525 3141 3298 2862 
Q 3072 2584 2669 2484 
Q 3125 2378 3379 2068 
Q 3634 1759 3634 1313 
Q 3634 634 3220 271 
Q 2806 -91 2034 -91 
Q 1263 -91 848 271 
Q 434 634 434 1313 
Q 434 1759 690 2068 
Q 947 2378 1403 2484 
z
M 1172 3481 
Q 1172 3119 1398 2916 
Q 1625 2713 2034 2713 
Q 2441 2713 2670 2916 
Q 2900 3119 2900 3481 
Q 2900 3844 2670 4047 
Q 2441 4250 2034 4250 
Q 1625 4250 1398 4047 
Q 1172 3844 1172 3481 
z
" transform="scale(0.015625)"/>
       </defs>
       <use xlink:href="#DejaVuSans-38"/>
      </g>
     </g>
    </g>
    <g id="xtick_6">
     <g id="line2d_11">
      <path d="M 309.842879 303.64 
L 309.842879 25.44 
" clip-path="url(#p94cf24aa9d)" style="fill: none; stroke: #b0b0b0; stroke-opacity: 0.3; stroke-width: 0.8; stroke-linecap: square"/>
     </g>
     <g id="line2d_12">
      <g>
       <use xlink:href="#md8141ea7a5" x="309.842879" y="303.64" style="stroke: #000000; stroke-width: 0.8"/>
      </g>
     </g>
     <g id="text_6">
      <!-- 10 -->
      <g transform="translate(303.480379 318.238437) scale(0.1 -0.1)">
       <defs>
        <path id="DejaVuSans-31" d="M 794 531 
L 1825 531 
L 1825 4091 
L 703 3866 
L 703 4441 
L 1819 4666 
L 2450 4666 
L 2450 531 
L 3481 531 
L 3481 0 
L 794 0 
L 794 531 
z
" transform="scale(0.015625)"/>
       </defs>
       <use xlink:href="#DejaVuSans-31"/>
       <use xlink:href="#DejaVuSans-30" transform="translate(63.623047 0)"/>
      </g>
     </g>
    </g>
    <g id="xtick_7">
     <g id="line2d_13">
      <path d="M 358.593182 303.64 
L 358.593182 25.44 
" clip-path="url(#p94cf24aa9d)" style="fill: none; stroke: #b0b0b0; stroke-opacity: 0.3; stroke-width: 0.8; stroke-linecap: square"/>
     </g>
     <g id="line2d_14">
      <g>
       <use xlink:href="#md8141ea7a5" x="358.593182" y="303.64" style="stroke: #000000; stroke-width: 0.8"/>
      </g>
     </g>
     <g id="text_7">
      <!-- 12 -->
      <g transform="translate(352.230682 318.238437) scale(0.1 -0.1)">
       <use xlink:href="#DejaVuSans-31"/>
       <use xlink:href="#DejaVuSans-32" transform="translate(63.623047 0)"/>
      </g>
     </g>
    </g>
    <g id="xtick_8">
     <g id="line2d_15">
      <path d="M 407.343485 303.64 
L 407.343485 25.44 
" clip-path="url(#p94cf24aa9d)" style="fill: none; stroke: #b0b0b0; stroke-opacity: 0.3; stroke-width: 0.8; stroke-linecap: square"/>
     </g>
     <g id="line2d_16">
      <g>
       <use xlink:href="#md8141ea7a5" x="407.343485" y="303.64" style="stroke: #000000; stroke-width: 0.8"/>
      </g>
     </g>
     <g id="text_8">
      <!-- 14 -->
      <g transform="translate(400.980985 318.238437) scale(0.1 -0.1)">
       <use xlink:href="#DejaVuSans-31"/>
       <use xlink:href="#DejaVuSans-34" transform="translate(63.623047 0)"/>
      </g>
     </g>
    </g>
    <g id="text_9">
     <!-- Time (minutes) -->
     <g transform="translate(210.9425 331.916562) scale(0.1 -0.1)">
      <defs>
       <path id="DejaVuSans-54" d="M -19 4666 
L 3928 4666 
L 3928 4134 
L 2272 4134 
L 2272 0 
L 1638 0 
L 1638 4134 
L -19 4134 
L -19 4666 
z
" transform="scale(0.015625)"/>
       <path id="DejaVuSans-69" d="M 603 3500 
L 1178 3500 
L 1178 0 
L 603 0 
L 603 3500 
z
M 603 4863 
L 1178 4863 
L 1178 4134 
L 603 4134 
L 603 4863 
z
" transform="scale(0.015625)"/>
       <path id="DejaVuSans-6d" d="M 3328 2828 
Q 3544 3216 3844 3400 
Q 4144 3584 4550 3584 
Q 5097 3584 5394 3201 
Q 5691 2819 5691 2113 
L 5691 0 
L 5113 0 
L 5113 2094 
Q 5113 2597 4934 2840 
Q 4756 3084 4391 3084 
Q 3944 3084 3684 2787 
Q 3425 2491 3425 1978 
L 3425 0 
L 2847 0 
L 2847 2094 
Q 2847 2600 2669 2842 
Q 2491 3084 2119 3084 
Q 1678 3084 1418 2786 
Q 1159 2488 1159 1978 
L 1159 0 
L 581 0 
L 581 3500 
L 1159 3500 
L 1159 2956 
Q 1356 3278 1631 3431 
Q 1906 3584 2284 3584 
Q 2666 3584 2933 3390 
Q 3200 3197 3328 2828 
z
" transform="scale(0.015625)"/>
       <path id="DejaVuSans-65" d="M 3597 1894 
L 3597 1613 
L 953 1613 
Q 991 1019 1311 708 
Q 1631 397 2203 397 
Q 2534 397 2845 478 
Q 3156 559 3463 722 
L 3463 178 
Q 3153 47 2828 -22 
Q 2503 -91 2169 -91 
Q 1331 -91 842 396 
Q 353 884 353 1716 
Q 353 2575 817 3079 
Q 1281 3584 2069 3584 
Q 2775 3584 3186 3129 
Q 3597 2675 3597 1894 
z
M 3022 2063 
Q 3016 2534 2758 2815 
Q 2500 3097 2075 3097 
Q 1594 3097 1305 2825 
Q 1016 2553 972 2059 
L 3022 2063 
z
" transform="scale(0.015625)"/>
       <path id="DejaVuSans-20" transform="scale(0.015625)"/>
       <path id="DejaVuSans-28" d="M 1984 4856 
Q 1566 4138 1362 3434 
Q 1159 2731 1159 2009 
Q 1159 1288 1364 580 
Q 1569 -128 1984 -844 
L 1484 -844 
Q 1016 -109 783 600 
Q 550 1309 550 2009 
Q 550 2706 781 3412 
Q 1013 4119 1484 4856 
L 1984 4856 
z
" transform="scale(0.015625)"/>
       <path id="DejaVuSans-6e" d="M 3513 2113 
L 3513 0 
L 2938 0 
L 2938 2094 
Q 2938 2591 2744 2837 
Q 2550 3084 2163 3084 
Q 1697 3084 1428 2787 
Q 1159 2491 1159 1978 
L 1159 0 
L 581 0 
L 581 3500 
L 1159 3500 
L 1159 2956 
Q 1366 3272 1645 3428 
Q 1925 3584 2291 3584 
Q 2894 3584 3203 3211 
Q 3513 2838 3513 2113 
z
" transform="scale(0.015625)"/>
       <path id="DejaVuSans-75" d="M 544 1381 
L 544 3500 
L 1119 3500 
L 1119 1403 
Q 1119 906 1312 657 
Q 1506 409 1894 409 
Q 2359 409 2629 706 
Q 2900 1003 2900 1516 
L 2900 3500 
L 3475 3500 
L 3475 0 
L 2900 0 
L 2900 538 
Q 2691 219 2414 64 
Q 2138 -91 1772 -91 
Q 1169 -91 856 284 
Q 544 659 544 1381 
z
M 1991 3584 
L 1991 3584 
z
" transform="scale(0.015625)"/>
       <path id="DejaVuSans-74" d="M 1172 4494 
L 1172 3500 
L 2356 3500 
L 2356 3053 
L 1172 3053 
L 1172 1153 
Q 1172 725 1289 603 
Q 1406 481 1766 481 
L 2356 481 
L 2356 0 
L 1766 0 
Q 1100 0 847 248 
Q 594 497 594 1153 
L 594 3053 
L 172 3053 
L 172 3500 
L 594 3500 
L 594 4494 
L 1172 4494 
z
" transform="scale(0.015625)"/>
       <path id="DejaVuSans-73" d="M 2834 3397 
L 2834 2853 
Q 2591 2978 2328 3040 
Q 2066 3103 1784 3103 
Q 1356 3103 1142 2972 
Q 928 2841 928 2578 
Q 928 2378 1081 2264 
Q 1234 2150 1697 2047 
L 1894 2003 
Q 2506 1872 2764 1633 
Q 3022 1394 3022 966 
Q 3022 478 2636 193 
Q 2250 -91 1575 -91 
Q 1294 -91 989 -36 
Q 684 19 347 128 
L 347 722 
Q 666 556 975 473 
Q 1284 391 1588 391 
Q 1994 391 2212 530 
Q 2431 669 2431 922 
Q 2431 1156 2273 1281 
Q 2116 1406 1581 1522 
L 1381 1569 
Q 847 1681 609 1914 
Q 372 2147 372 2553 
Q 372 3047 722 3315 
Q 1072 3584 1716 3584 
Q 2034 3584 2315 3537 
Q 2597 3491 2834 3397 
z
" transform="scale(0.015625)"/>
       <path id="DejaVuSans-29" d="M 513 4856 
L 1013 4856 
Q 1481 4119 1714 3412 
Q 1947 2706 1947 2009 
Q 1947 1309 1714 600 
Q 1481 -109 1013 -844 
L 513 -844 
Q 928 -128 1133 580 
Q 1338 1288 1338 2009 
Q 1338 2731 1133 3434 
Q 928 4138 513 4856 
z
" transform="scale(0.015625)"/>
      </defs>
      <use xlink:href="#DejaVuSans-54"/>
      <use xlink:href="#DejaVuSans-69" transform="translate(57.958984 0)"/>
      <use xlink:href="#DejaVuSans-6d" transform="translate(85.742188 0)"/>
      <use xlink:href="#DejaVuSans-65" transform="translate(183.154297 0)"/>
      <use xlink:href="#DejaVuSans-20" transform="translate(244.677734 0)"/>
      <use xlink:href="#DejaVuSans-28" transform="translate(276.464844 0)"/>
      <use xlink:href="#DejaVuSans-6d" transform="translate(315.478516 0)"/>
      <use xlink:href="#DejaVuSans-69" transform="translate(412.890625 0)"/>
      <use xlink:href="#DejaVuSans-6e" transform="translate(440.673828 0)"/>
      <use xlink:href="#DejaVuSans-75" transform="translate(504.052734 0)"/>
      <use xlink:href="#DejaVuSans-74" transform="translate(567.431641 0)"/>
      <use xlink:href="#DejaVuSans-65" transform="translate(606.640625 0)"/>
      <use xlink:href="#DejaVuSans-73" transform="translate(668.164062 0)"/>
      <use xlink:href="#DejaVuSans-29" transform="translate(720.263672 0)"/>
     </g>
    </g>
   </g>
   <g id="matplotlib.axis_2">
    <g id="ytick_1">
     <g id="line2d_17">
      <path d="M 47.81 290.865368 
L 450 290.865368 
" clip-path="url(#p94cf24aa9d)" style="fill: none; stroke: #b0b0b0; stroke-opacity: 0.3; stroke-width: 0.8; stroke-linecap: square"/>
     </g>
     <g id="line2d_18">
      <defs>
       <path id="me73e175b74" d="M 0 0 
L -3.5 0 
" style="stroke: #000000; stroke-width: 0.8"/>
      </defs>
      <g>
       <use xlink:href="#me73e175b74" x="47.81" y="290.865368" style="stroke: #000000; stroke-width: 0.8"/>
      </g>
     </g>
     <g id="text_10">
      <!-- 0.0 -->
      <g transform="translate(24.906875 294.664586) scale(0.1 -0.1)">
       <defs>
        <path id="DejaVuSans-2e" d="M 684 794 
L 1344 794 
L 1344 0 
L 684 0 
L 684 794 
z
" transform="scale(0.015625)"/>
       </defs>
       <use xlink:href="#DejaVuSans-30"/>
       <use xlink:href="#DejaVuSans-2e" transform="translate(63.623047 0)"/>
       <use xlink:href="#DejaVuSans-30" transform="translate(95.410156 0)"/>
      </g>
     </g>
    </g>
    <g id="ytick_2">
     <g id="line2d_19">
      <path d="M 47.81 233.701622 
L 450 233.701622 
" clip-path="url(#p94cf24aa9d)" style="fill: none; stroke: #b0b0b0; stroke-opacity: 0.3; stroke-width: 0.8; stroke-linecap: square"/>
     </g>
     <g id="line2d_20">
      <g>
       <use xlink:href="#me73e175b74" x="47.81" y="233.701622" style="stroke: #000000; stroke-width: 0.8"/>
      </g>
     </g>
     <g id="text_11">
      <!-- 0.5 -->
      <g transform="translate(24.906875 237.500841) scale(0.1 -0.1)">
       <defs>
        <path id="DejaVuSans-35" d="M 691 4666 
L 3169 4666 
L 3169 4134 
L 1269 4134 
L 1269 2991 
Q 1406 3038 1543 3061 
Q 1681 3084 1819 3084 
Q 2600 3084 3056 2656 
Q 3513 2228 3513 1497 
Q 3513 744 3044 326 
Q 2575 -91 1722 -91 
Q 1428 -91 1123 -41 
Q 819 9 494 109 
L 494 744 
Q 775 591 1075 516 
Q 1375 441 1709 441 
Q 2250 441 2565 725 
Q 2881 1009 2881 1497 
Q 2881 1984 2565 2268 
Q 2250 2553 1709 2553 
Q 1456 2553 1204 2497 
Q 953 2441 691 2322 
L 691 4666 
z
" transform="scale(0.015625)"/>
       </defs>
       <use xlink:href="#DejaVuSans-30"/>
       <use xlink:href="#DejaVuSans-2e" transform="translate(63.623047 0)"/>
       <use xlink:href="#DejaVuSans-35" transform="translate(95.410156 0)"/>
      </g>
     </g>
    </g>
    <g id="ytick_3">
     <g id="line2d_21">
      <path d="M 47.81 176.537877 
L 450 176.537877 
" clip-path="url(#p94cf24aa9d)" style="fill: none; stroke: #b0b0b0; stroke-opacity: 0.3; stroke-width: 0.8; stroke-linecap: square"/>
     </g>
     <g id="line2d_22">
      <g>
       <use xlink:href="#me73e175b74" x="47.81" y="176.537877" style="stroke: #000000; stroke-width: 0.8"/>
      </g>
     </g>
     <g id="text_12">
      <!-- 1.0 -->
      <g transform="translate(24.906875 180.337096) scale(0.1 -0.1)">
       <use xlink:href="#DejaVuSans-31"/>
       <use xlink:href="#DejaVuSans-2e" transform="translate(63.623047 0)"/>
       <use xlink:href="#DejaVuSans-30" transform="translate(95.410156 0)"/>
      </g>
     </g>
    </g>
    <g id="ytick_4">
     <g id="line2d_23">
      <path d="M 47.81 119.374132 
L 450 119.374132 
" clip-path="url(#p94cf24aa9d)" style="fill: none; stroke: #b0b0b0; stroke-opacity: 0.3; stroke-width: 0.8; stroke-linecap: square"/>
     </g>
     <g id="line2d_24">
      <g>
       <use xlink:href="#me73e175b74" x="47.81" y="119.374132" style="stroke: #000000; stroke-width: 0.8"/>
      </g>
     </g>
     <g id="text_13">
      <!-- 1.5 -->
      <g transform="translate(24.906875 123.17335) scale(0.1 -0.1)">
       <use xlink:href="#DejaVuSans-31"/>
       <use xlink:href="#DejaVuSans-2e" transform="translate(63.623047 0)"/>
       <use xlink:href="#DejaVuSans-35" transform="translate(95.410156 0)"/>
      </g>
     </g>
    </g>
    <g id="ytick_5">
     <g id="line2d_25">
      <path d="M 47.81 62.210386 
L 450 62.210386 
" clip-path="url(#p94cf24aa9d)" style="fill: none; stroke: #b0b0b0; stroke-opacity: 0.3; stroke-width: 0.8; stroke-linecap: square"/>
     </g>
     <g id="line2d_26">
      <g>
       <use xlink:href="#me73e175b74" x="47.81" y="62.210386" style="stroke: #000000; stroke-width: 0.8"/>
      </g>
     </g>
     <g id="text_14">
      <!-- 2.0 -->
      <g transform="translate(24.906875 66.009605) scale(0.1 -0.1)">
       <use xlink:href="#DejaVuSans-32"/>
       <use xlink:href="#DejaVuSans-2e" transform="translate(63.623047 0)"/>
       <use xlink:href="#DejaVuSans-30" transform="translate(95.410156 0)"/>
      </g>
     </g>
    </g>
    <g id="text_15">
     <!-- EDA signals (μS) -->
     <g transform="translate(18.827188 205.711875) rotate(-90) scale(0.1 -0.1)">
      <defs>
       <path id="DejaVuSans-45" d="M 628 4666 
L 3578 4666 
L 3578 4134 
L 1259 4134 
L 1259 2753 
L 3481 2753 
L 3481 2222 
L 1259 2222 
L 1259 531 
L 3634 531 
L 3634 0 
L 628 0 
L 628 4666 
z
" transform="scale(0.015625)"/>
       <path id="DejaVuSans-44" d="M 1259 4147 
L 1259 519 
L 2022 519 
Q 2988 519 3436 956 
Q 3884 1394 3884 2338 
Q 3884 3275 3436 3711 
Q 2988 4147 2022 4147 
L 1259 4147 
z
M 628 4666 
L 1925 4666 
Q 3281 4666 3915 4102 
Q 4550 3538 4550 2338 
Q 4550 1131 3912 565 
Q 3275 0 1925 0 
L 628 0 
L 628 4666 
z
" transform="scale(0.015625)"/>
       <path id="DejaVuSans-41" d="M 2188 4044 
L 1331 1722 
L 3047 1722 
L 2188 4044 
z
M 1831 4666 
L 2547 4666 
L 4325 0 
L 3669 0 
L 3244 1197 
L 1141 1197 
L 716 0 
L 50 0 
L 1831 4666 
z
" transform="scale(0.015625)"/>
       <path id="DejaVuSans-67" d="M 2906 1791 
Q 2906 2416 2648 2759 
Q 2391 3103 1925 3103 
Q 1463 3103 1205 2759 
Q 947 2416 947 1791 
Q 947 1169 1205 825 
Q 1463 481 1925 481 
Q 2391 481 2648 825 
Q 2906 1169 2906 1791 
z
M 3481 434 
Q 3481 -459 3084 -895 
Q 2688 -1331 1869 -1331 
Q 1566 -1331 1297 -1286 
Q 1028 -1241 775 -1147 
L 775 -588 
Q 1028 -725 1275 -790 
Q 1522 -856 1778 -856 
Q 2344 -856 2625 -561 
Q 2906 -266 2906 331 
L 2906 616 
Q 2728 306 2450 153 
Q 2172 0 1784 0 
Q 1141 0 747 490 
Q 353 981 353 1791 
Q 353 2603 747 3093 
Q 1141 3584 1784 3584 
Q 2172 3584 2450 3431 
Q 2728 3278 2906 2969 
L 2906 3500 
L 3481 3500 
L 3481 434 
z
" transform="scale(0.015625)"/>
       <path id="DejaVuSans-61" d="M 2194 1759 
Q 1497 1759 1228 1600 
Q 959 1441 959 1056 
Q 959 750 1161 570 
Q 1363 391 1709 391 
Q 2188 391 2477 730 
Q 2766 1069 2766 1631 
L 2766 1759 
L 2194 1759 
z
M 3341 1997 
L 3341 0 
L 2766 0 
L 2766 531 
Q 2569 213 2275 61 
Q 1981 -91 1556 -91 
Q 1019 -91 701 211 
Q 384 513 384 1019 
Q 384 1609 779 1909 
Q 1175 2209 1959 2209 
L 2766 2209 
L 2766 2266 
Q 2766 2663 2505 2880 
Q 2244 3097 1772 3097 
Q 1472 3097 1187 3025 
Q 903 2953 641 2809 
L 641 3341 
Q 956 3463 1253 3523 
Q 1550 3584 1831 3584 
Q 2591 3584 2966 3190 
Q 3341 2797 3341 1997 
z
" transform="scale(0.015625)"/>
       <path id="DejaVuSans-6c" d="M 603 4863 
L 1178 4863 
L 1178 0 
L 603 0 
L 603 4863 
z
" transform="scale(0.015625)"/>
       <path id="DejaVuSans-3bc" d="M 544 -1331 
L 544 3500 
L 1119 3500 
L 1119 1325 
Q 1119 872 1334 640 
Q 1550 409 1972 409 
Q 2434 409 2667 671 
Q 2900 934 2900 1459 
L 2900 3500 
L 3475 3500 
L 3475 806 
Q 3475 619 3529 530 
Q 3584 441 3700 441 
Q 3728 441 3778 458 
Q 3828 475 3916 513 
L 3916 50 
Q 3788 -22 3673 -56 
Q 3559 -91 3450 -91 
Q 3234 -91 3106 31 
Q 2978 153 2931 403 
Q 2775 156 2548 32 
Q 2322 -91 2016 -91 
Q 1697 -91 1473 31 
Q 1250 153 1119 397 
L 1119 -1331 
L 544 -1331 
z
" transform="scale(0.015625)"/>
       <path id="DejaVuSans-53" d="M 3425 4513 
L 3425 3897 
Q 3066 4069 2747 4153 
Q 2428 4238 2131 4238 
Q 1616 4238 1336 4038 
Q 1056 3838 1056 3469 
Q 1056 3159 1242 3001 
Q 1428 2844 1947 2747 
L 2328 2669 
Q 3034 2534 3370 2195 
Q 3706 1856 3706 1288 
Q 3706 609 3251 259 
Q 2797 -91 1919 -91 
Q 1588 -91 1214 -16 
Q 841 59 441 206 
L 441 856 
Q 825 641 1194 531 
Q 1563 422 1919 422 
Q 2459 422 2753 634 
Q 3047 847 3047 1241 
Q 3047 1584 2836 1778 
Q 2625 1972 2144 2069 
L 1759 2144 
Q 1053 2284 737 2584 
Q 422 2884 422 3419 
Q 422 4038 858 4394 
Q 1294 4750 2059 4750 
Q 2388 4750 2728 4690 
Q 3069 4631 3425 4513 
z
" transform="scale(0.015625)"/>
      </defs>
      <use xlink:href="#DejaVuSans-45"/>
      <use xlink:href="#DejaVuSans-44" transform="translate(63.183594 0)"/>
      <use xlink:href="#DejaVuSans-41" transform="translate(138.435547 0)"/>
      <use xlink:href="#DejaVuSans-20" transform="translate(206.84375 0)"/>
      <use xlink:href="#DejaVuSans-73" transform="translate(238.630859 0)"/>
      <use xlink:href="#DejaVuSans-69" transform="translate(290.730469 0)"/>
      <use xlink:href="#DejaVuSans-67" transform="translate(318.513672 0)"/>
      <use xlink:href="#DejaVuSans-6e" transform="translate(381.990234 0)"/>
      <use xlink:href="#DejaVuSans-61" transform="translate(445.369141 0)"/>
      <use xlink:href="#DejaVuSans-6c" transform="translate(506.648438 0)"/>
      <use xlink:href="#DejaVuSans-73" transform="translate(534.431641 0)"/>
      <use xlink:href="#DejaVuSans-20" transform="translate(586.53125 0)"/>
      <use xlink:href="#DejaVuSans-28" transform="translate(618.318359 0)"/>
      <use xlink:href="#DejaVuSans-3bc" transform="translate(657.332031 0)"/>
      <use xlink:href="#DejaVuSans-53" transform="translate(720.955078 0)"/>
      <use xlink:href="#DejaVuSans-29" transform="translate(784.431641 0)"/>
     </g>
    </g>
   </g>
   <g id="line2d_27">
    <path d="M 66.091364 236.694028 
L 67.310799 237.07953 
L 73.611213 239.725055 
L 74.627409 240.352168 
L 77.269518 242.187078 
L 78.285714 242.498502 
L 80.521345 242.841085 
L 82.045639 243.017957 
L 82.960215 243.419829 
L 83.265074 243.216228 
L 83.569933 242.608177 
L 83.976411 241.078386 
L 84.687748 237.080236 
L 85.500705 232.861189 
L 86.110422 230.746455 
L 87.024998 228.428792 
L 87.736336 227.076299 
L 88.244434 226.573003 
L 88.650912 226.474542 
L 89.15901 226.604212 
L 91.394641 227.447251 
L 92.207597 227.558963 
L 92.715695 227.442097 
L 93.223793 227.076665 
L 93.833511 226.291373 
L 95.256185 224.239863 
L 95.865903 223.802197 
L 96.57724 223.606288 
L 97.491816 223.36407 
L 98.101533 222.955092 
L 99.727447 221.667638 
L 100.438784 221.509955 
L 101.150121 221.34231 
L 101.556599 221.045477 
L 102.064697 220.32772 
L 102.776034 218.788359 
L 103.487372 217.362656 
L 103.89385 216.918238 
L 104.300328 216.775261 
L 104.910046 216.883161 
L 105.519763 216.954212 
L 106.129481 216.789848 
L 106.739198 216.648716 
L 107.145677 216.782634 
L 107.552155 217.169783 
L 108.87321 218.734079 
L 109.076449 218.687268 
L 109.381308 218.292564 
L 109.686166 217.408077 
L 110.092645 215.274758 
L 110.499123 211.844137 
L 111.007221 205.584856 
L 111.921797 190.469513 
L 112.633134 179.842343 
L 113.141232 175.190731 
L 113.547711 173.31443 
L 113.852569 172.683105 
L 114.157428 172.452928 
L 114.563906 172.458244 
L 115.275244 172.774002 
L 116.0882 173.146144 
L 116.494679 173.077374 
L 116.901157 172.707791 
L 117.409255 171.874205 
L 118.425451 170.105111 
L 118.933549 169.612418 
L 119.441647 169.394619 
L 119.848125 169.454223 
L 120.152984 169.703016 
L 120.559462 170.383258 
L 121.06756 171.752775 
L 122.083756 174.652437 
L 122.490234 175.229309 
L 122.795093 175.367793 
L 123.201571 175.251166 
L 124.217767 174.693789 
L 124.624246 174.786844 
L 125.030724 175.139772 
L 125.538822 175.892416 
L 126.453398 177.752622 
L 127.266355 179.22641 
L 127.672833 179.623986 
L 128.079311 179.720803 
L 128.38417 179.582727 
L 128.790649 179.090844 
L 129.197127 178.217345 
L 129.806844 176.299328 
L 130.619801 173.772773 
L 131.026279 173.153511 
L 131.331138 173.086312 
L 131.635997 173.326295 
L 132.144095 174.186758 
L 134.074867 177.949957 
L 135.395922 179.868673 
L 136.716976 181.459873 
L 137.123455 181.69784 
L 137.428313 181.683096 
L 137.733172 181.474271 
L 138.139651 180.92374 
L 139.562325 178.619631 
L 139.968803 178.393503 
L 140.375281 178.415513 
L 140.984999 178.749756 
L 141.899575 179.272062 
L 142.509293 179.347191 
L 144.846543 179.098214 
L 145.76112 178.837496 
L 146.167598 179.004242 
L 146.574076 179.472487 
L 147.183794 180.647606 
L 148.809707 184.095143 
L 149.317805 184.684325 
L 149.724283 184.865153 
L 150.130762 184.790759 
L 150.63886 184.420627 
L 151.451816 183.497594 
L 152.163154 182.371294 
L 152.874491 180.691594 
L 153.585828 179.022407 
L 153.992306 178.576246 
L 154.297165 178.604018 
L 154.602024 178.930278 
L 155.110122 179.961325 
L 157.85385 187.002017 
L 158.463568 189.587204 
L 159.174905 193.824869 
L 160.39434 201.320409 
L 161.004058 203.774424 
L 161.613775 205.415126 
L 162.325112 206.699948 
L 163.341308 207.971464 
L 164.255884 208.880927 
L 164.560743 208.95832 
L 164.865602 208.782315 
L 165.170461 208.288568 
L 165.576939 207.150984 
L 166.694754 203.693302 
L 166.999613 203.386176 
L 167.304472 203.441455 
L 167.609331 203.783512 
L 168.219048 204.925929 
L 169.540103 207.484827 
L 170.454679 208.761365 
L 171.166016 209.432517 
L 171.674114 209.675399 
L 172.080593 209.638569 
L 172.487071 209.318646 
L 172.995169 208.496001 
L 174.417843 205.783319 
L 174.824321 205.560209 
L 175.2308 205.623462 
L 175.738898 205.961829 
L 177.161572 207.33059 
L 178.990724 208.932672 
L 183.665225 212.708851 
L 185.392758 214.216115 
L 186.510574 215.489654 
L 189.660781 219.382687 
L 190.880216 220.387126 
L 191.794792 220.852779 
L 195.046619 221.883517 
L 196.266054 222.111221 
L 197.18063 222.559867 
L 198.501685 223.519945 
L 200.025979 224.550725 
L 201.651892 225.351646 
L 202.464849 225.55229 
L 202.972947 225.47894 
L 203.582664 225.150258 
L 204.497241 224.615467 
L 205.005339 224.573245 
L 205.615056 224.762993 
L 208.155546 225.772868 
L 208.866883 225.809014 
L 209.67984 225.558352 
L 210.492796 225.37301 
L 211.102514 225.479967 
L 212.525188 225.907506 
L 212.931666 225.739421 
L 213.338145 225.264831 
L 213.744623 224.411351 
L 214.354341 222.448162 
L 216.386732 215.037055 
L 216.89483 213.998052 
L 217.402928 213.429394 
L 217.911026 213.197813 
L 218.825602 212.894658 
L 219.232081 212.488887 
L 219.638559 211.691974 
L 220.045037 210.343039 
L 220.553135 207.825948 
L 221.77257 201.217528 
L 222.179049 200.120985 
L 222.585527 199.652049 
L 223.296864 199.165633 
L 223.601723 198.57087 
L 224.008201 197.057408 
L 224.516299 193.979777 
L 225.735734 185.988777 
L 226.142213 184.733447 
L 226.447071 184.331466 
L 226.75193 184.28051 
L 227.056789 184.474565 
L 227.666506 185.226961 
L 228.174604 185.701845 
L 228.377843 185.682805 
L 228.581083 185.468057 
L 228.885941 184.693024 
L 229.29242 182.749573 
L 230.003757 177.681516 
L 230.715094 173.083323 
L 231.223192 171.038162 
L 231.832909 169.490121 
L 232.849105 167.576216 
L 233.357203 166.4852 
L 233.662062 165.380872 
L 234.06854 162.843389 
L 234.475019 158.706744 
L 235.186356 148.436818 
L 235.897693 138.883803 
L 236.304171 135.584193 
L 236.71065 133.955927 
L 237.015508 133.530336 
L 237.320367 133.508102 
L 237.726845 133.79013 
L 238.336563 134.51982 
L 239.860857 136.622646 
L 240.165716 136.5479 
L 240.470574 136.167288 
L 240.877053 135.226312 
L 242.401346 131.021857 
L 242.706205 130.836542 
L 243.011064 130.973821 
L 243.417542 131.564046 
L 244.128879 133.178691 
L 245.449934 136.161304 
L 246.262891 137.552411 
L 246.669369 137.942776 
L 246.974228 137.982995 
L 247.279087 137.739429 
L 247.685565 136.949517 
L 249.00662 133.647447 
L 249.209859 133.580401 
L 249.413098 133.699747 
L 249.717957 134.195858 
L 250.226055 135.617988 
L 251.547109 139.608142 
L 251.953588 140.179511 
L 252.156827 140.219692 
L 252.360066 140.044595 
L 252.664925 139.291694 
L 252.969783 137.857537 
L 253.376262 134.847258 
L 255.002175 120.621035 
L 255.307034 119.907875 
L 255.510273 119.844243 
L 255.815132 120.152344 
L 256.424849 120.964778 
L 256.628089 120.994307 
L 256.831328 120.8403 
L 257.136187 120.299217 
L 258.152382 118.102551 
L 258.558861 117.895954 
L 258.965339 117.721787 
L 259.168578 117.394824 
L 259.473437 116.29807 
L 259.778296 114.244944 
L 260.286394 108.691037 
L 261.30259 96.343196 
L 261.709068 93.930012 
L 262.013927 93.199696 
L 262.318785 92.998134 
L 262.826883 92.814452 
L 263.233362 92.335672 
L 263.843079 91.58012 
L 264.046318 91.555326 
L 264.249558 91.718902 
L 264.554416 92.347101 
L 264.960895 93.837494 
L 265.773851 98.026198 
L 266.586808 101.768065 
L 266.993286 102.804469 
L 267.196526 103.001908 
L 267.399765 102.948823 
L 267.603004 102.629607 
L 267.907863 101.659667 
L 268.415961 99.019765 
L 271.261309 82.391238 
L 271.566168 81.624745 
L 271.871027 81.389337 
L 272.175885 81.558502 
L 272.582364 82.150161 
L 273.192081 83.442685 
L 273.801799 85.256718 
L 274.919614 89.597104 
L 276.03743 93.61881 
L 276.647147 95.087361 
L 277.053625 95.514968 
L 277.358484 95.524528 
L 277.663343 95.307092 
L 278.069821 94.733202 
L 278.4763 93.820432 
L 278.882778 92.392367 
L 279.390876 89.554343 
L 280.102213 83.863399 
L 280.91517 77.894052 
L 281.321648 76.213582 
L 281.626507 75.591207 
L 281.931366 75.409143 
L 282.236224 75.528266 
L 283.963757 76.772567 
L 285.081573 76.95305 
L 285.488051 76.822044 
L 285.996149 76.379275 
L 287.012345 75.327234 
L 287.418823 75.242228 
L 287.825302 75.426977 
L 288.435019 76.058799 
L 289.044737 76.619796 
L 289.247976 76.60442 
L 289.451215 76.376009 
L 289.654454 75.84601 
L 289.959313 74.276386 
L 290.264172 71.522951 
L 290.67065 65.795962 
L 292.296563 39.108261 
L 292.601422 38.085455 
L 292.703042 38.092078 
L 292.906281 38.531513 
L 293.21114 39.970307 
L 295.141912 51.012893 
L 297.275923 60.383032 
L 297.98726 62.526881 
L 298.495358 63.409374 
L 298.901837 63.728117 
L 299.409935 63.805552 
L 300.121272 63.662 
L 300.730989 63.334874 
L 301.340707 63.049955 
L 301.543946 63.134694 
L 301.848805 63.605115 
L 302.153663 64.596142 
L 302.560142 66.753297 
L 303.474718 73.426298 
L 304.287675 78.465496 
L 305.202251 82.476391 
L 307.84436 92.722465 
L 312.112383 106.223586 
L 313.941535 111.181053 
L 314.754492 113.302446 
L 315.16097 113.804075 
L 315.36421 113.830677 
L 315.669068 113.57165 
L 316.075547 112.734265 
L 316.786884 110.485785 
L 317.904699 106.241551 
L 318.819276 101.80195 
L 319.835471 97.073859 
L 320.343569 95.723522 
L 320.648428 95.351749 
L 320.953287 95.277195 
L 321.258146 95.442968 
L 321.766244 96.084383 
L 322.5792 97.585261 
L 324.509972 101.26235 
L 326.440745 104.232426 
L 326.948843 105.814224 
L 327.45694 108.181189 
L 328.066658 112.106336 
L 329.184473 121.1263 
L 330.200669 128.654221 
L 330.810387 131.535785 
L 331.216865 132.575631 
L 331.521724 132.838036 
L 331.724963 132.728827 
L 331.928202 132.364464 
L 332.233061 131.305038 
L 332.639539 128.970925 
L 333.554116 121.711119 
L 334.265453 116.827864 
L 334.87517 114.061184 
L 335.383268 112.748101 
L 335.789747 112.303322 
L 336.094605 112.279413 
L 336.399464 112.469852 
L 336.907562 113.116769 
L 339.346432 116.78483 
L 340.159389 117.965627 
L 340.972345 119.584115 
L 342.598259 123.433062 
L 343.411216 125.915091 
L 344.630651 129.807657 
L 345.037129 130.503855 
L 345.341988 130.728466 
L 345.646846 130.729663 
L 346.053325 130.494926 
L 346.967901 129.858383 
L 347.374379 129.824933 
L 347.780858 129.99573 
L 348.390575 130.54014 
L 349.305152 131.727427 
L 350.118108 133.147268 
L 352.1505 137.444522 
L 355.402327 144.438008 
L 356.520142 147.646924 
L 357.434719 150.829339 
L 358.044436 153.732776 
L 358.755773 158.431984 
L 360.788165 173.353308 
L 361.397882 175.979163 
L 361.90598 177.325202 
L 362.210839 177.728211 
L 362.414078 177.800231 
L 362.617317 177.693057 
L 362.922176 177.153289 
L 363.227035 176.112527 
L 363.633513 173.930138 
L 364.34485 168.473538 
L 365.361046 160.64249 
L 365.970764 157.613729 
L 366.478862 156.197191 
L 366.88534 155.649402 
L 367.291818 155.476342 
L 367.698297 155.560675 
L 368.206395 155.925434 
L 368.714493 156.57131 
L 369.222591 157.580993 
L 369.832308 159.331922 
L 371.254982 163.715776 
L 371.8647 164.785438 
L 372.474417 165.42982 
L 372.982515 165.69507 
L 373.388994 165.698463 
L 373.998711 165.438211 
L 374.506809 165.288525 
L 374.913287 165.435254 
L 375.319766 165.852909 
L 376.64082 167.476556 
L 377.250538 167.762661 
L 377.961875 167.814061 
L 378.673212 167.611498 
L 379.587788 167.310204 
L 380.095886 167.408275 
L 380.603984 167.771108 
L 381.315321 168.605721 
L 383.550952 171.442339 
L 385.583344 173.665135 
L 390.562704 180.109586 
L 391.782139 182.523957 
L 393.103193 185.454892 
L 394.627487 189.121494 
L 395.033966 189.560209 
L 395.440444 189.717293 
L 397.371216 189.994719 
L 398.590651 190.788601 
L 399.505227 191.258631 
L 401.23276 191.918911 
L 401.944097 192.583685 
L 403.87487 194.544067 
L 404.687826 195.00762 
L 405.500783 195.220486 
L 406.923457 195.482428 
L 407.634794 195.955275 
L 409.260708 197.183947 
L 409.972045 197.380321 
L 411.597958 197.674028 
L 412.410915 198.14639 
L 413.52873 198.805568 
L 414.341687 198.992779 
L 415.662742 199.264566 
L 418.711329 200.220583 
L 419.422666 200.081931 
L 421.150199 199.617766 
L 422.166395 199.6594 
L 423.080971 199.913235 
L 424.910124 200.531839 
L 426.231179 200.904553 
L 427.044135 201.41366 
L 431.210538 204.518791 
L 431.718636 204.698797 
L 431.718636 204.698797 
" clip-path="url(#p94cf24aa9d)" style="fill: none; stroke-dasharray: 1.85,0.8; stroke-dashoffset: 0; stroke: #1f77b4; stroke-width: 0.5"/>
   </g>
   <g id="line2d_28">
    <path d="M 66.091364 235.662334 
L 66.701081 239.196995 
L 67.209179 240.8484 
L 67.615657 241.484055 
L 67.920516 241.636356 
L 68.225375 241.564434 
L 68.631853 241.203545 
L 69.34319 240.165872 
L 70.156147 239.029397 
L 70.664245 238.68857 
L 71.172343 238.647196 
L 71.680441 238.839964 
L 72.391778 239.378846 
L 74.525789 241.192554 
L 75.338746 241.432285 
L 77.066279 241.818285 
L 77.675997 242.206161 
L 78.285714 242.86771 
L 78.997051 244.029016 
L 80.622965 246.845596 
L 81.131062 247.322445 
L 81.537541 247.428006 
L 81.8424 247.307686 
L 82.248878 246.834172 
L 82.655356 245.957378 
L 83.265074 243.971889 
L 84.17965 239.98708 
L 86.212042 230.777082 
L 86.821759 228.968797 
L 87.431477 227.805335 
L 87.939575 227.23906 
L 88.447673 226.961852 
L 89.05739 226.908404 
L 89.870347 227.104655 
L 91.089782 227.38848 
L 92.004358 227.345611 
L 92.918935 227.086877 
L 93.93513 226.564718 
L 95.052946 225.730922 
L 96.983718 223.928064 
L 98.609631 222.52523 
L 99.930686 221.70605 
L 102.064697 220.409752 
L 103.080893 219.48617 
L 105.316524 217.275551 
L 105.926242 216.988933 
L 106.43434 216.958221 
L 106.942437 217.161165 
L 107.857014 217.896378 
L 108.466731 218.264341 
L 108.87321 218.28859 
L 109.279688 218.037692 
L 109.686166 217.427391 
L 110.092645 216.373431 
L 110.600743 214.303723 
L 111.108841 211.258273 
L 111.820178 205.550934 
L 113.242852 191.74963 
L 114.360667 181.762252 
L 115.072004 177.210981 
L 115.681722 174.808702 
L 116.18982 173.694881 
L 116.596298 173.27079 
L 117.002777 173.17371 
L 117.409255 173.322346 
L 118.018972 173.828184 
L 119.136788 174.807594 
L 119.746505 175.017155 
L 120.559462 175.039512 
L 121.880517 175.042755 
L 122.490234 175.278268 
L 122.998332 175.693714 
L 123.60805 176.504533 
L 124.725865 178.48212 
L 125.843681 180.3153 
L 126.453398 180.92562 
L 126.859876 181.083031 
L 127.266355 180.990811 
L 127.672833 180.65302 
L 128.282551 179.797519 
L 129.298747 177.877539 
L 130.416562 175.901982 
L 131.026279 175.259899 
L 131.432758 175.11163 
L 131.839236 175.187174 
L 132.347334 175.543162 
L 132.957052 176.26397 
L 133.973248 177.871696 
L 135.395922 180.060228 
L 136.208878 180.867978 
L 136.920216 181.289861 
L 137.631553 181.474299 
L 138.34289 181.448459 
L 139.155846 181.196295 
L 140.172042 180.623865 
L 142.306054 179.359182 
L 143.017391 179.196302 
L 143.627108 179.256909 
L 144.338445 179.57049 
L 145.151402 180.183328 
L 146.269217 181.322136 
L 149.012946 184.240249 
L 149.724283 184.655345 
L 150.334001 184.775028 
L 150.842099 184.66839 
L 151.350197 184.341911 
L 151.959914 183.639083 
L 154.297165 180.524852 
L 154.703643 180.415551 
L 155.110122 180.573599 
L 155.5166 181.052903 
L 156.024698 182.153332 
L 156.634415 184.109086 
L 157.447372 187.515572 
L 159.174905 196.057184 
L 160.39434 201.517948 
L 161.410536 205.071182 
L 162.223493 207.151537 
L 162.83321 208.217749 
L 163.341308 208.757154 
L 163.747786 208.946937 
L 164.154265 208.927696 
L 164.662363 208.669111 
L 165.3737 208.016158 
L 167.101233 206.310194 
L 167.609331 206.124602 
L 168.015809 206.176878 
L 168.523907 206.474536 
L 169.235244 207.191874 
L 171.267636 209.463528 
L 171.775734 209.686928 
L 172.283832 209.646361 
L 172.893549 209.311621 
L 173.706506 208.564917 
L 175.2308 207.109585 
L 175.840517 206.825021 
L 176.348615 206.825246 
L 176.958333 207.079622 
L 177.66967 207.638762 
L 178.889105 208.948463 
L 180.311779 210.396661 
L 181.531214 211.247301 
L 183.970084 212.82681 
L 185.0879 213.920758 
L 186.713813 215.868881 
L 189.254303 218.89382 
L 190.575357 220.126808 
L 191.693173 220.88631 
L 192.709369 221.304212 
L 194.030423 221.571388 
L 195.859576 221.960242 
L 196.875772 222.441076 
L 198.298446 223.405797 
L 200.229218 224.693137 
L 201.347033 225.156026 
L 202.566468 225.402574 
L 203.887523 225.432698 
L 207.342589 225.331593 
L 208.155546 225.636447 
L 208.968502 226.187386 
L 210.594416 227.367511 
L 211.204133 227.530923 
L 211.712231 227.435879 
L 212.220329 227.068724 
L 212.728427 226.375646 
L 213.338145 225.143853 
L 214.252721 222.741402 
L 216.589971 216.334885 
L 217.402928 214.861222 
L 218.825602 212.868002 
L 219.740179 211.423592 
L 220.451516 209.920456 
L 221.264472 207.600669 
L 222.382288 203.613274 
L 225.126017 193.494956 
L 226.243832 190.410994 
L 227.463267 187.685435 
L 229.089181 184.660946 
L 230.206996 182.458681 
L 231.019953 180.303739 
L 231.73129 177.760551 
L 232.442627 174.38609 
L 233.255584 169.282908 
L 234.475019 159.84427 
L 236.202552 146.653501 
L 237.015508 142.086565 
L 237.625226 139.73747 
L 238.234943 138.177306 
L 238.844661 137.245118 
L 239.352759 136.831875 
L 239.962476 136.632936 
L 241.283531 136.585951 
L 244.332119 136.418033 
L 245.145075 136.689131 
L 246.059652 137.270345 
L 247.279087 138.349231 
L 249.921196 140.770686 
L 250.632533 141.081357 
L 251.140631 141.084531 
L 251.648729 140.851847 
L 252.156827 140.336028 
L 252.664925 139.489797 
L 253.274642 137.972709 
L 253.985979 135.535614 
L 255.103795 130.795436 
L 257.034567 122.51214 
L 257.949143 119.6246 
L 258.965339 117.209154 
L 262.013927 110.615527 
L 264.147938 105.254945 
L 264.859275 104.036658 
L 265.367373 103.500297 
L 265.875471 103.261083 
L 266.586808 103.22682 
L 267.603004 103.203828 
L 268.111102 102.946804 
L 268.51758 102.516804 
L 269.025678 101.600709 
L 269.533776 100.15744 
L 270.245113 97.31971 
L 272.379125 88.081598 
L 272.887222 86.847899 
L 273.293701 86.411906 
L 273.49694 86.412214 
L 273.801799 86.68521 
L 274.208277 87.473777 
L 274.817995 89.305956 
L 276.647147 95.438285 
L 277.053625 96.107707 
L 277.358484 96.269002 
L 277.561723 96.184206 
L 277.866582 95.765173 
L 278.273061 94.731785 
L 278.882778 92.381477 
L 279.797354 87.768899 
L 281.220029 80.597954 
L 281.829746 78.484864 
L 282.337844 77.373119 
L 282.845942 76.772196 
L 283.25242 76.604852 
L 283.658899 76.671182 
L 284.166997 77.019558 
L 284.878334 77.857756 
L 287.012345 80.655168 
L 287.418823 80.832131 
L 287.825302 80.769727 
L 288.23178 80.415795 
L 288.638258 79.718172 
L 289.146356 78.283365 
L 289.654454 76.12816 
L 290.365791 71.866237 
L 291.788466 61.299568 
L 292.804661 54.607859 
L 293.414379 51.912046 
L 293.820857 50.935855 
L 294.125716 50.688358 
L 294.328955 50.731762 
L 294.633814 51.072202 
L 295.040292 51.961817 
L 295.65001 53.987623 
L 297.885641 62.391822 
L 298.393739 63.245146 
L 298.901837 63.652305 
L 299.511554 63.791827 
L 300.52775 63.941361 
L 300.934228 64.226532 
L 301.340707 64.771316 
L 301.747185 65.66294 
L 302.255283 67.372238 
L 302.96662 70.722244 
L 304.084436 77.314181 
L 305.710349 86.805662 
L 306.523306 90.213401 
L 307.336262 92.664948 
L 308.860556 96.296843 
L 309.673513 98.582369 
L 310.38485 101.237354 
L 311.705905 107.340023 
L 312.82372 112.172141 
L 313.535057 114.355236 
L 314.043155 115.230701 
L 314.348014 115.423063 
L 314.652873 115.378052 
L 314.957731 115.120929 
L 315.36421 114.491813 
L 315.973927 113.056304 
L 316.888503 110.196406 
L 318.616036 104.66642 
L 319.530613 102.533605 
L 320.343569 101.13684 
L 321.156526 100.174459 
L 321.867863 99.662049 
L 322.5792 99.439009 
L 323.087298 99.497282 
L 323.595396 99.803813 
L 324.103494 100.418816 
L 324.611592 101.402505 
L 325.22131 103.154376 
L 325.831027 105.627909 
L 326.542364 109.556036 
L 327.55856 116.685478 
L 329.184473 128.080121 
L 329.895811 131.589158 
L 330.403908 133.080274 
L 330.708767 133.498563 
L 331.013626 133.588658 
L 331.318485 133.385202 
L 331.724963 132.717173 
L 332.233061 131.359977 
L 333.046018 128.359783 
L 335.180029 119.960669 
L 335.992986 117.769703 
L 336.704323 116.448376 
L 337.31404 115.786641 
L 337.822138 115.584272 
L 338.228617 115.660181 
L 338.635095 115.954088 
L 339.143193 116.608888 
L 339.85453 117.961477 
L 340.870726 120.492189 
L 343.512835 127.390673 
L 344.630651 129.568314 
L 345.646846 131.110359 
L 346.561423 132.148834 
L 347.577619 132.95667 
L 350.422967 134.942596 
L 351.235924 135.909304 
L 352.1505 137.35593 
L 353.166696 139.406733 
L 354.284511 142.197987 
L 355.503946 145.891782 
L 356.621762 150.018885 
L 357.739577 155.078627 
L 358.857393 161.289591 
L 361.194643 175.125635 
L 361.804361 177.308965 
L 362.210839 178.106107 
L 362.515698 178.289929 
L 362.718937 178.192778 
L 363.023796 177.691191 
L 363.430274 176.410221 
L 364.039992 173.467812 
L 365.056188 167.034591 
L 366.275623 159.548148 
L 366.88534 157.028122 
L 367.291818 156.093721 
L 367.596677 155.767853 
L 367.901536 155.723723 
L 368.206395 155.925661 
L 368.612873 156.516033 
L 369.222591 157.917969 
L 370.543645 161.830395 
L 371.356602 163.850893 
L 372.067939 165.051747 
L 372.779276 165.828882 
L 373.490613 166.295941 
L 374.405189 166.623708 
L 376.64082 167.323908 
L 379.07969 168.400752 
L 381.315321 169.569881 
L 382.636376 170.516095 
L 383.855811 171.679883 
L 385.481724 173.586605 
L 390.461084 179.93032 
L 391.47728 181.841284 
L 392.899954 185.126426 
L 394.424248 188.484794 
L 395.237205 189.794344 
L 395.846922 190.423095 
L 396.45664 190.778138 
L 397.167977 190.947836 
L 398.489032 190.960882 
L 399.403608 191.076653 
L 400.114945 191.38803 
L 401.131141 192.113986 
L 404.586207 194.874211 
L 406.110501 195.590833 
L 409.463947 197.09589 
L 412.004437 198.224263 
L 414.341687 198.944385 
L 419.016188 200.188977 
L 419.930764 200.106927 
L 422.674493 199.587612 
L 423.284211 199.79946 
L 423.893928 200.263908 
L 424.605265 201.143293 
L 425.92632 203.254903 
L 427.044135 204.877728 
L 427.653853 205.456633 
L 428.161951 205.681231 
L 428.670049 205.669265 
L 429.279766 205.406857 
L 430.092723 204.767706 
L 431.718636 203.210347 
L 431.718636 203.210347 
" clip-path="url(#p94cf24aa9d)" style="fill: none; stroke: #ff7f0e; stroke-width: 0.5; stroke-linecap: square"/>
   </g>
   <g id="line2d_29">
    <path d="M 66.091364 290.865368 
L 66.192983 290.865368 
L 66.294603 290.994545 
L 66.497842 289.016856 
L 66.90432 287.884183 
L 67.310799 286.954831 
L 67.615657 286.657036 
L 67.920516 286.634235 
L 68.225375 286.841071 
L 68.733473 287.495346 
L 69.241571 288.646167 
L 69.851288 289.751973 
L 70.359386 290.262034 
L 70.969104 290.579401 
L 71.88368 290.772536 
L 72.391778 290.755245 
L 73.916072 290.008854 
L 74.42417 289.983615 
L 76.050083 290.709029 
L 77.371138 290.834477 
L 78.082475 290.789225 
L 78.793812 289.860627 
L 80.927823 286.616894 
L 81.334302 286.389716 
L 81.537541 286.389484 
L 81.944019 286.602987 
L 83.265074 289.782915 
L 83.773172 290.282009 
L 84.382889 290.589361 
L 84.586128 290.600136 
L 85.195846 290.113051 
L 85.602324 290.269754 
L 86.516901 290.646871 
L 87.329857 290.760473 
L 88.244434 290.464682 
L 88.752531 290.527643 
L 89.971966 290.778047 
L 91.801119 290.856104 
L 93.630272 290.783642 
L 94.951326 289.703407 
L 95.459424 289.623856 
L 95.865903 289.736511 
L 96.983718 290.515313 
L 97.796675 290.73511 
L 99.219349 290.842687 
L 102.064697 290.839974 
L 102.471176 290.351721 
L 103.284132 289.367748 
L 103.690611 289.206718 
L 103.89385 289.219815 
L 104.300328 289.631672 
L 105.011665 290.300975 
L 105.723002 290.626299 
L 106.33272 290.714467 
L 107.044057 290.517237 
L 108.66997 290.806442 
L 109.686166 290.847735 
L 109.787786 290.740769 
L 110.194264 289.447661 
L 110.600743 287.39832 
L 111.21046 282.922362 
L 112.328276 274.062225 
L 112.633134 272.976595 
L 112.836373 272.804072 
L 113.039613 273.08011 
L 113.344471 274.252137 
L 113.852569 277.62 
L 115.072004 286.595687 
L 115.580102 288.545594 
L 116.0882 289.618733 
L 116.596298 290.197651 
L 116.901157 290.404413 
L 117.002777 290.359068 
L 117.612494 288.953469 
L 118.73031 286.190108 
L 119.238407 285.525831 
L 119.644886 285.33002 
L 119.949745 285.409746 
L 120.356223 285.805605 
L 120.559462 286.239976 
L 121.575658 289.247476 
L 122.083756 289.988671 
L 122.693473 290.449835 
L 122.998332 290.550519 
L 123.201571 290.255451 
L 124.929104 287.111054 
L 125.335583 286.932405 
L 125.742061 287.025078 
L 126.148539 287.369016 
L 126.758257 288.30903 
L 127.469594 289.677319 
L 127.977692 290.219096 
L 128.587409 290.558662 
L 129.400366 290.752486 
L 129.603605 290.664601 
L 130.721421 288.973347 
L 131.026279 288.828061 
L 131.432758 288.926725 
L 131.940856 289.577357 
L 132.550573 290.217683 
L 133.160291 290.555144 
L 134.074867 290.764346 
L 135.70078 290.841989 
L 137.834792 290.8134 
L 138.444509 289.883936 
L 139.155846 288.847312 
L 139.562325 288.561244 
L 139.867184 288.542817 
L 140.273662 288.724425 
L 141.797956 290.433972 
L 142.509293 290.684689 
L 143.627108 290.819683 
L 144.033587 290.777775 
L 144.643304 290.326546 
L 145.55788 289.217659 
L 146.065978 288.773425 
L 146.472457 288.712236 
L 146.980555 289.00106 
L 147.99675 290.221743 
L 148.606468 290.557517 
L 149.521044 290.765188 
L 150.435621 290.770564 
L 151.248577 290.263005 
L 152.671251 289.597164 
L 153.789067 288.630364 
L 153.992306 288.766839 
L 155.211741 290.273388 
L 155.821459 290.583214 
L 156.532796 290.726842 
L 156.736035 290.474672 
L 158.361948 288.046642 
L 158.768427 288.126053 
L 160.191101 290.248321 
L 160.800818 290.572235 
L 161.512155 290.73273 
L 161.918634 290.511259 
L 162.83321 290.071753 
L 163.442928 290.372909 
L 164.255884 290.672637 
L 165.27208 290.807111 
L 165.475319 290.508174 
L 166.694754 288.015023 
L 166.999613 287.946279 
L 167.406092 288.262411 
L 168.625527 290.135151 
L 169.235244 290.517398 
L 170.048201 290.737181 
L 171.470875 290.843116 
L 172.283832 290.808684 
L 172.79193 290.4273 
L 174.316223 288.897507 
L 174.722702 288.949017 
L 175.12918 289.426632 
L 175.840517 290.206828 
L 176.450235 290.549551 
L 177.263191 290.748828 
L 178.787485 290.847227 
L 179.498822 290.672458 
L 180.515018 290.579093 
L 183.868465 290.858853 
L 191.998031 290.809846 
L 193.725564 290.852053 
L 201.855131 290.865354 
L 203.379425 290.773708 
L 204.395621 290.195013 
L 204.802099 290.136412 
L 206.834491 290.7848 
L 208.562024 290.85393 
L 208.866883 290.633073 
L 209.57822 289.849872 
L 210.391177 289.051099 
L 210.899275 288.876275 
L 211.407373 288.954602 
L 211.813851 289.442396 
L 212.525188 290.216053 
L 213.134906 290.554132 
L 214.049482 290.764024 
L 214.55758 290.757585 
L 215.675395 289.571248 
L 216.285113 289.216943 
L 216.89483 289.16451 
L 217.098069 289.27191 
L 218.317504 290.416865 
L 219.028842 290.676637 
L 219.841798 290.768328 
L 220.045037 290.443639 
L 220.553135 289.09431 
L 221.467712 286.531706 
L 221.77257 286.249118 
L 221.87419 286.193509 
L 222.077429 286.491193 
L 223.296864 289.635041 
L 223.804962 290.201404 
L 224.109821 290.408305 
L 224.21144 290.342588 
L 224.617919 289.046901 
L 225.634115 285.370989 
L 225.938973 284.997323 
L 226.142213 285.006117 
L 226.447071 285.345568 
L 226.650311 285.66329 
L 228.072985 289.686789 
L 228.581083 290.231114 
L 228.885941 290.429039 
L 228.987561 290.386038 
L 229.29242 289.394033 
L 229.902137 286.263455 
L 230.511855 283.410386 
L 230.918333 282.46972 
L 231.223192 282.324417 
L 231.528051 282.56312 
L 231.934529 283.333666 
L 232.239388 284.030768 
L 233.560442 289.140888 
L 234.06854 289.936162 
L 234.373399 290.124171 
L 234.576638 289.33309 
L 234.983117 286.778993 
L 235.796073 281.464258 
L 236.100932 280.61377 
L 236.304171 280.521247 
L 236.50741 280.768007 
L 236.812269 281.617403 
L 237.930085 286.055374 
L 238.641422 288.627432 
L 239.14952 289.647786 
L 239.657618 290.210772 
L 240.267335 290.555904 
L 240.470574 290.525273 
L 241.080292 288.952771 
L 242.198107 285.787858 
L 242.502966 285.423703 
L 242.807825 285.386195 
L 243.112684 285.649984 
L 243.620781 286.564358 
L 245.145075 289.834673 
L 245.653173 290.309079 
L 246.36451 290.632979 
L 247.075847 290.710645 
L 247.380706 290.079846 
L 247.888804 288.376175 
L 248.905 284.743191 
L 249.209859 284.296061 
L 249.413098 284.24064 
L 249.616337 284.369761 
L 249.921196 284.863074 
L 250.429294 286.202844 
L 251.140631 288.641831 
L 251.648729 289.651354 
L 252.156827 290.212 
L 252.664925 290.515242 
L 252.766544 290.509201 
L 252.969783 289.984646 
L 253.376262 288.119636 
L 254.697316 280.540126 
L 254.900556 280.279839 
L 255.103795 280.430229 
L 255.408654 281.361066 
L 255.916751 284.154054 
L 256.526469 287.402566 
L 256.932947 288.714678 
L 257.441045 289.406014 
L 258.152382 290.195894 
L 258.7621 290.544194 
L 259.473437 290.731057 
L 259.575057 290.637759 
L 259.778296 289.588085 
L 260.184774 286.115252 
L 261.30259 274.861329 
L 261.607448 273.627203 
L 261.810688 273.389885 
L 262.013927 273.519939 
L 262.420405 274.383733 
L 263.030123 275.644726 
L 264.046318 277.025584 
L 264.452797 278.345078 
L 265.062514 281.329477 
L 266.18033 287.843346 
L 266.688428 289.230717 
L 267.196526 289.988087 
L 267.603004 290.299524 
L 267.806243 289.845011 
L 268.314341 287.79156 
L 269.228917 283.914782 
L 269.838635 282.467076 
L 270.854831 280.700043 
L 271.05807 280.628404 
L 271.261309 280.761646 
L 271.566168 281.377525 
L 271.972646 282.848666 
L 273.39532 288.643016 
L 273.903418 289.659249 
L 274.411516 290.217416 
L 275.021234 290.559134 
L 275.93581 290.766021 
L 276.342288 290.731057 
L 277.155245 290.258221 
L 277.460104 290.177863 
L 279.289256 290.717031 
L 279.594115 290.15815 
L 280.305452 288.058117 
L 280.711931 287.111542 
L 281.016789 286.832469 
L 281.321648 286.878152 
L 281.524887 287.250783 
L 282.439464 289.451951 
L 282.947562 290.097263 
L 283.557279 290.50096 
L 284.166997 290.693085 
L 284.370236 290.580969 
L 285.081573 289.743913 
L 285.69129 288.558108 
L 287.012345 285.607959 
L 287.317204 285.365472 
L 287.622063 285.401226 
L 288.028541 285.797069 
L 288.435019 287.141102 
L 289.044737 288.959325 
L 289.552835 289.828315 
L 290.060933 290.307809 
L 290.162552 290.274 
L 290.365791 289.372293 
L 290.67065 287.013064 
L 291.280368 279.83025 
L 291.890085 273.57019 
L 292.194944 272.377779 
L 292.296563 272.340256 
L 292.499803 272.788495 
L 292.804661 274.572214 
L 293.414379 280.334096 
L 294.024096 285.502618 
L 294.532194 287.950533 
L 295.040292 289.298756 
L 295.54839 290.026235 
L 296.158108 290.469158 
L 296.971064 290.719679 
L 298.292119 290.836709 
L 300.019652 290.815114 
L 300.52775 290.461213 
L 301.035848 289.73789 
L 301.848805 288.510311 
L 302.052044 288.504763 
L 302.458522 289.110786 
L 303.06824 289.963636 
L 303.677957 290.431381 
L 304.287675 290.659575 
L 304.490914 290.563173 
L 305.608729 288.767035 
L 306.015208 288.522378 
L 306.421686 288.585862 
L 307.031404 289.012903 
L 307.84436 289.832029 
L 308.454078 290.351169 
L 309.165415 290.64839 
L 310.181611 290.803115 
L 310.48647 290.792861 
L 310.892948 290.279931 
L 311.604285 288.968303 
L 312.7221 286.922175 
L 313.128579 286.556979 
L 313.433438 286.515613 
L 313.839916 286.763817 
L 314.144775 287.485479 
L 314.856112 289.274134 
L 315.36421 289.998163 
L 315.973927 290.453561 
L 316.685264 290.693611 
L 317.396601 290.765473 
L 317.904699 290.41244 
L 318.311178 289.796324 
L 318.920895 288.322693 
L 319.835471 286.05284 
L 320.24195 285.568905 
L 320.546809 285.519283 
L 320.851667 285.721055 
L 321.258146 286.295348 
L 321.969483 287.78538 
L 322.68082 289.436947 
L 323.188918 290.088576 
L 323.798635 290.496757 
L 324.611592 290.729721 
L 324.814831 290.712849 
L 325.22131 290.005916 
L 325.831027 288.358548 
L 327.55856 283.00731 
L 327.965038 282.593516 
L 328.269897 282.596638 
L 328.574756 282.847788 
L 328.981234 283.521291 
L 329.692571 285.318159 
L 330.09905 286.802163 
L 330.708767 288.788291 
L 331.216865 289.735525 
L 331.724963 290.257978 
L 332.334681 290.578216 
L 332.4363 290.504978 
L 332.842779 289.244431 
L 334.062214 284.924538 
L 334.468692 284.259117 
L 334.773551 284.053325 
L 335.078409 284.082999 
L 335.383268 284.336604 
L 335.789747 284.986457 
L 336.501084 286.697832 
L 337.31404 289.075581 
L 337.822138 289.89103 
L 338.330236 290.34145 
L 339.041573 290.646785 
L 339.448052 290.709263 
L 340.362628 290.106102 
L 341.785302 289.3366 
L 342.598259 289.074415 
L 342.801498 289.183953 
L 344.122553 290.445733 
L 344.83389 290.689166 
L 345.545227 290.723792 
L 347.27276 288.005768 
L 347.679238 287.847484 
L 348.187336 287.925783 
L 348.898673 288.323592 
L 349.81325 289.07949 
L 350.829445 290.243016 
L 351.439163 290.567511 
L 352.353739 290.768424 
L 353.878033 290.844245 
L 354.284511 290.624493 
L 356.520142 288.974206 
L 357.739577 288.023165 
L 358.146056 288.036179 
L 358.349295 288.133627 
L 358.857393 289.05985 
L 359.46711 289.958672 
L 360.076828 290.431225 
L 360.788165 290.683917 
L 361.702741 290.790573 
L 362.820557 290.248776 
L 363.328655 289.796564 
L 363.836752 288.909715 
L 364.954568 286.692729 
L 365.259427 286.551592 
L 365.564285 286.710932 
L 365.767525 286.898005 
L 366.174003 287.959153 
L 366.783721 289.379694 
L 367.291818 290.057218 
L 367.901536 290.481841 
L 368.714493 290.724196 
L 369.019351 290.652796 
L 369.32421 290.583224 
L 372.677657 290.764013 
L 373.287374 290.463542 
L 374.710048 289.55537 
L 376.335962 290.632036 
L 377.352158 290.798275 
L 378.063495 290.810009 
L 378.876451 290.154661 
L 379.689408 289.553109 
L 380.197506 289.452012 
L 380.807223 289.615969 
L 382.534756 290.667489 
L 383.652572 290.815206 
L 386.396301 290.863628 
L 395.237205 290.821267 
L 396.151781 290.004491 
L 396.659879 289.819778 
L 397.167977 289.879039 
L 398.387412 290.591998 
L 399.301988 290.77578 
L 400.521423 290.830911 
L 401.33438 290.662917 
L 403.87487 290.853664 
L 405.602403 290.793729 
L 406.720218 290.507805 
L 408.75261 290.826844 
L 410.378523 290.821395 
L 411.293099 290.534514 
L 412.106056 290.689588 
L 413.427111 290.829002 
L 416.882177 290.864824 
L 419.625906 290.7837 
L 420.134003 290.723397 
L 423.182591 290.860948 
L 424.097167 290.776185 
L 424.808504 290.003081 
L 426.637657 287.714879 
L 427.247375 287.405652 
L 427.755472 287.406661 
L 428.26357 287.654199 
L 428.873288 288.166234 
L 429.991103 290.016054 
L 430.600821 290.459723 
L 431.312158 290.695938 
L 431.718636 290.762622 
L 431.718636 290.762622 
" clip-path="url(#p94cf24aa9d)" style="fill: none; stroke: #2ca02c; stroke-width: 0.5; stroke-linecap: square"/>
   </g>
   <g id="patch_3">
    <path d="M 47.81 303.64 
L 47.81 25.44 
" style="fill: none; stroke: #000000; stroke-width: 0.8; stroke-linejoin: miter; stroke-linecap: square"/>
   </g>
   <g id="patch_4">
    <path d="M 450 303.64 
L 450 25.44 
" style="fill: none; stroke: #000000; stroke-width: 0.8; stroke-linejoin: miter; stroke-linecap: square"/>
   </g>
   <g id="patch_5">
    <path d="M 47.81 303.64 
L 450 303.64 
" style="fill: none; stroke: #000000; stroke-width: 0.8; stroke-linejoin: miter; stroke-linecap: square"/>
   </g>
   <g id="patch_6">
    <path d="M 47.81 25.44 
L 450 25.44 
" style="fill: none; stroke: #000000; stroke-width: 0.8; stroke-linejoin: miter; stroke-linecap: square"/>
   </g>
   <g id="text_16">
    <!-- cvxEDA (σ=2.4s  data_3_E4) -->
    <g transform="translate(163.25125 19.44) scale(0.12 -0.12)">
     <defs>
      <path id="DejaVuSans-63" d="M 3122 3366 
L 3122 2828 
Q 2878 2963 2633 3030 
Q 2388 3097 2138 3097 
Q 1578 3097 1268 2742 
Q 959 2388 959 1747 
Q 959 1106 1268 751 
Q 1578 397 2138 397 
Q 2388 397 2633 464 
Q 2878 531 3122 666 
L 3122 134 
Q 2881 22 2623 -34 
Q 2366 -91 2075 -91 
Q 1284 -91 818 406 
Q 353 903 353 1747 
Q 353 2603 823 3093 
Q 1294 3584 2113 3584 
Q 2378 3584 2631 3529 
Q 2884 3475 3122 3366 
z
" transform="scale(0.015625)"/>
      <path id="DejaVuSans-76" d="M 191 3500 
L 800 3500 
L 1894 563 
L 2988 3500 
L 3597 3500 
L 2284 0 
L 1503 0 
L 191 3500 
z
" transform="scale(0.015625)"/>
      <path id="DejaVuSans-78" d="M 3513 3500 
L 2247 1797 
L 3578 0 
L 2900 0 
L 1881 1375 
L 863 0 
L 184 0 
L 1544 1831 
L 300 3500 
L 978 3500 
L 1906 2253 
L 2834 3500 
L 3513 3500 
z
" transform="scale(0.015625)"/>
      <path id="DejaVuSans-3c3" d="M 1959 3044 
Q 1484 3044 1228 2700 
Q 959 2341 959 1747 
Q 959 1119 1226 758 
Q 1494 397 1959 397 
Q 2419 397 2687 759 
Q 2956 1122 2956 1747 
Q 2956 2319 2688 2700 
Q 2441 3044 1959 3044 
z
M 1959 3500 
L 3869 3500 
L 3869 2925 
L 3225 2925 
Q 3566 2438 3566 1747 
Q 3566 888 3138 400 
Q 2709 -91 1959 -91 
Q 1206 -91 781 400 
Q 353 888 353 1747 
Q 353 2613 781 3097 
Q 1134 3500 1959 3500 
z
" transform="scale(0.015625)"/>
      <path id="DejaVuSans-3d" d="M 678 2906 
L 4684 2906 
L 4684 2381 
L 678 2381 
L 678 2906 
z
M 678 1631 
L 4684 1631 
L 4684 1100 
L 678 1100 
L 678 1631 
z
" transform="scale(0.015625)"/>
      <path id="DejaVuSans-64" d="M 2906 2969 
L 2906 4863 
L 3481 4863 
L 3481 0 
L 2906 0 
L 2906 525 
Q 2725 213 2448 61 
Q 2172 -91 1784 -91 
Q 1150 -91 751 415 
Q 353 922 353 1747 
Q 353 2572 751 3078 
Q 1150 3584 1784 3584 
Q 2172 3584 2448 3432 
Q 2725 3281 2906 2969 
z
M 947 1747 
Q 947 1113 1208 752 
Q 1469 391 1925 391 
Q 2381 391 2643 752 
Q 2906 1113 2906 1747 
Q 2906 2381 2643 2742 
Q 2381 3103 1925 3103 
Q 1469 3103 1208 2742 
Q 947 2381 947 1747 
z
" transform="scale(0.015625)"/>
      <path id="DejaVuSans-5f" d="M 3263 -1063 
L 3263 -1509 
L -63 -1509 
L -63 -1063 
L 3263 -1063 
z
" transform="scale(0.015625)"/>
      <path id="DejaVuSans-33" d="M 2597 2516 
Q 3050 2419 3304 2112 
Q 3559 1806 3559 1356 
Q 3559 666 3084 287 
Q 2609 -91 1734 -91 
Q 1441 -91 1130 -33 
Q 819 25 488 141 
L 488 750 
Q 750 597 1062 519 
Q 1375 441 1716 441 
Q 2309 441 2620 675 
Q 2931 909 2931 1356 
Q 2931 1769 2642 2001 
Q 2353 2234 1838 2234 
L 1294 2234 
L 1294 2753 
L 1863 2753 
Q 2328 2753 2575 2939 
Q 2822 3125 2822 3475 
Q 2822 3834 2567 4026 
Q 2313 4219 1838 4219 
Q 1578 4219 1281 4162 
Q 984 4106 628 3988 
L 628 4550 
Q 988 4650 1302 4700 
Q 1616 4750 1894 4750 
Q 2613 4750 3031 4423 
Q 3450 4097 3450 3541 
Q 3450 3153 3228 2886 
Q 3006 2619 2597 2516 
z
" transform="scale(0.015625)"/>
     </defs>
     <use xlink:href="#DejaVuSans-63"/>
     <use xlink:href="#DejaVuSans-76" transform="translate(54.980469 0)"/>
     <use xlink:href="#DejaVuSans-78" transform="translate(114.160156 0)"/>
     <use xlink:href="#DejaVuSans-45" transform="translate(173.339844 0)"/>
     <use xlink:href="#DejaVuSans-44" transform="translate(236.523438 0)"/>
     <use xlink:href="#DejaVuSans-41" transform="translate(311.775391 0)"/>
     <use xlink:href="#DejaVuSans-20" transform="translate(380.183594 0)"/>
     <use xlink:href="#DejaVuSans-28" transform="translate(411.970703 0)"/>
     <use xlink:href="#DejaVuSans-3c3" transform="translate(450.984375 0)"/>
     <use xlink:href="#DejaVuSans-3d" transform="translate(514.363281 0)"/>
     <use xlink:href="#DejaVuSans-32" transform="translate(598.152344 0)"/>
     <use xlink:href="#DejaVuSans-2e" transform="translate(661.775391 0)"/>
     <use xlink:href="#DejaVuSans-34" transform="translate(693.5625 0)"/>
     <use xlink:href="#DejaVuSans-73" transform="translate(757.185547 0)"/>
     <use xlink:href="#DejaVuSans-20" transform="translate(809.285156 0)"/>
     <use xlink:href="#DejaVuSans-20" transform="translate(841.072266 0)"/>
     <use xlink:href="#DejaVuSans-64" transform="translate(872.859375 0)"/>
     <use xlink:href="#DejaVuSans-61" transform="translate(936.335938 0)"/>
     <use xlink:href="#DejaVuSans-74" transform="translate(997.615234 0)"/>
     <use xlink:href="#DejaVuSans-61" transform="translate(1036.824219 0)"/>
     <use xlink:href="#DejaVuSans-5f" transform="translate(1098.103516 0)"/>
     <use xlink:href="#DejaVuSans-33" transform="translate(1148.103516 0)"/>
     <use xlink:href="#DejaVuSans-5f" transform="translate(1211.726562 0)"/>
     <use xlink:href="#DejaVuSans-45" transform="translate(1261.726562 0)"/>
     <use xlink:href="#DejaVuSans-34" transform="translate(1324.910156 0)"/>
     <use xlink:href="#DejaVuSans-29" transform="translate(1388.533203 0)"/>
    </g>
   </g>
   <g id="legend_1">
    <g id="patch_7">
     <path d="M 350.09375 77.474375 
L 443 77.474375 
Q 445 77.474375 445 75.474375 
L 445 32.44 
Q 445 30.44 443 30.44 
L 350.09375 30.44 
Q 348.09375 30.44 348.09375 32.44 
L 348.09375 75.474375 
Q 348.09375 77.474375 350.09375 77.474375 
z
" style="fill: #ffffff; opacity: 0.8; stroke: #cccccc; stroke-linejoin: miter"/>
    </g>
    <g id="line2d_30">
     <path d="M 352.09375 38.538437 
L 362.09375 38.538437 
L 372.09375 38.538437 
" style="fill: none; stroke-dasharray: 1.85,0.8; stroke-dashoffset: 0; stroke: #1f77b4; stroke-width: 0.5"/>
    </g>
    <g id="text_17">
     <!-- Filtered EDA -->
     <g transform="translate(380.09375 42.038437) scale(0.1 -0.1)">
      <defs>
       <path id="DejaVuSans-46" d="M 628 4666 
L 3309 4666 
L 3309 4134 
L 1259 4134 
L 1259 2759 
L 3109 2759 
L 3109 2228 
L 1259 2228 
L 1259 0 
L 628 0 
L 628 4666 
z
" transform="scale(0.015625)"/>
       <path id="DejaVuSans-72" d="M 2631 2963 
Q 2534 3019 2420 3045 
Q 2306 3072 2169 3072 
Q 1681 3072 1420 2755 
Q 1159 2438 1159 1844 
L 1159 0 
L 581 0 
L 581 3500 
L 1159 3500 
L 1159 2956 
Q 1341 3275 1631 3429 
Q 1922 3584 2338 3584 
Q 2397 3584 2469 3576 
Q 2541 3569 2628 3553 
L 2631 2963 
z
" transform="scale(0.015625)"/>
      </defs>
      <use xlink:href="#DejaVuSans-46"/>
      <use xlink:href="#DejaVuSans-69" transform="translate(50.269531 0)"/>
      <use xlink:href="#DejaVuSans-6c" transform="translate(78.052734 0)"/>
      <use xlink:href="#DejaVuSans-74" transform="translate(105.835938 0)"/>
      <use xlink:href="#DejaVuSans-65" transform="translate(145.044922 0)"/>
      <use xlink:href="#DejaVuSans-72" transform="translate(206.568359 0)"/>
      <use xlink:href="#DejaVuSans-65" transform="translate(245.431641 0)"/>
      <use xlink:href="#DejaVuSans-64" transform="translate(306.955078 0)"/>
      <use xlink:href="#DejaVuSans-20" transform="translate(370.431641 0)"/>
      <use xlink:href="#DejaVuSans-45" transform="translate(402.21875 0)"/>
      <use xlink:href="#DejaVuSans-44" transform="translate(465.402344 0)"/>
      <use xlink:href="#DejaVuSans-41" transform="translate(540.654297 0)"/>
     </g>
    </g>
    <g id="line2d_31">
     <path d="M 352.09375 53.216562 
L 362.09375 53.216562 
L 372.09375 53.216562 
" style="fill: none; stroke: #ff7f0e; stroke-width: 0.5; stroke-linecap: square"/>
    </g>
    <g id="text_18">
     <!-- Tonic -->
     <g transform="translate(380.09375 56.716562) scale(0.1 -0.1)">
      <defs>
       <path id="DejaVuSans-6f" d="M 1959 3097 
Q 1497 3097 1228 2736 
Q 959 2375 959 1747 
Q 959 1119 1226 758 
Q 1494 397 1959 397 
Q 2419 397 2687 759 
Q 2956 1122 2956 1747 
Q 2956 2369 2687 2733 
Q 2419 3097 1959 3097 
z
M 1959 3584 
Q 2709 3584 3137 3096 
Q 3566 2609 3566 1747 
Q 3566 888 3137 398 
Q 2709 -91 1959 -91 
Q 1206 -91 779 398 
Q 353 888 353 1747 
Q 353 2609 779 3096 
Q 1206 3584 1959 3584 
z
" transform="scale(0.015625)"/>
      </defs>
      <use xlink:href="#DejaVuSans-54"/>
      <use xlink:href="#DejaVuSans-6f" transform="translate(44.083984 0)"/>
      <use xlink:href="#DejaVuSans-6e" transform="translate(105.265625 0)"/>
      <use xlink:href="#DejaVuSans-69" transform="translate(168.644531 0)"/>
      <use xlink:href="#DejaVuSans-63" transform="translate(196.427734 0)"/>
     </g>
    </g>
    <g id="line2d_32">
     <path d="M 352.09375 67.894687 
L 362.09375 67.894687 
L 372.09375 67.894687 
" style="fill: none; stroke: #2ca02c; stroke-width: 0.5; stroke-linecap: square"/>
    </g>
    <g id="text_19">
     <!-- Phasic -->
     <g transform="translate(380.09375 71.394687) scale(0.1 -0.1)">
      <defs>
       <path id="DejaVuSans-50" d="M 1259 4147 
L 1259 2394 
L 2053 2394 
Q 2494 2394 2734 2622 
Q 2975 2850 2975 3272 
Q 2975 3691 2734 3919 
Q 2494 4147 2053 4147 
L 1259 4147 
z
M 628 4666 
L 2053 4666 
Q 2838 4666 3239 4311 
Q 3641 3956 3641 3272 
Q 3641 2581 3239 2228 
Q 2838 1875 2053 1875 
L 1259 1875 
L 1259 0 
L 628 0 
L 628 4666 
z
" transform="scale(0.015625)"/>
       <path id="DejaVuSans-68" d="M 3513 2113 
L 3513 0 
L 2938 0 
L 2938 2094 
Q 2938 2591 2744 2837 
Q 2550 3084 2163 3084 
Q 1697 3084 1428 2787 
Q 1159 2491 1159 1978 
L 1159 0 
L 581 0 
L 581 4863 
L 1159 4863 
L 1159 2956 
Q 1366 3272 1645 3428 
Q 1925 3584 2291 3584 
Q 2894 3584 3203 3211 
Q 3513 2838 3513 2113 
z
" transform="scale(0.015625)"/>
      </defs>
      <use xlink:href="#DejaVuSans-50"/>
      <use xlink:href="#DejaVuSans-68" transform="translate(60.302734 0)"/>
      <use xlink:href="#DejaVuSans-61" transform="translate(123.681641 0)"/>
      <use xlink:href="#DejaVuSans-73" transform="translate(184.960938 0)"/>
      <use xlink:href="#DejaVuSans-69" transform="translate(237.060547 0)"/>
      <use xlink:href="#DejaVuSans-63" transform="translate(264.84375 0)"/>
     </g>
    </g>
   </g>
  </g>
 </g>
 <defs>
  <clipPath id="p94cf24aa9d">
   <rect x="47.81" y="25.44" width="402.19" height="278.2"/>
  </clipPath>
 </defs>
</svg>
