<?xml version="1.0" encoding="utf-8" standalone="no"?>
<!DOCTYPE svg PUBLIC "-//W3C//DTD SVG 1.1//EN"
  "http://www.w3.org/Graphics/SVG/1.1/DTD/svg11.dtd">
<svg xmlns:xlink="http://www.w3.org/1999/xlink" width="460.8pt" height="345.6pt" viewBox="0 0 460.8 345.6" xmlns="http://www.w3.org/2000/svg" version="1.1">
 <metadata>
  <rdf:RDF xmlns:dc="http://purl.org/dc/elements/1.1/" xmlns:cc="http://creativecommons.org/ns#" xmlns:rdf="http://www.w3.org/1999/02/22-rdf-syntax-ns#">
   <cc:Work>
    <dc:type rdf:resource="http://purl.org/dc/dcmitype/StillImage"/>
    <dc:date>2025-09-22T14:18:52.471994</dc:date>
    <dc:format>image/svg+xml</dc:format>
    <dc:creator>
     <cc:Agent>
      <dc:title>Matplotlib v3.10.0, https://matplotlib.org/</dc:title>
     </cc:Agent>
    </dc:creator>
   </cc:Work>
  </rdf:RDF>
 </metadata>
 <defs>
  <style type="text/css">*{stroke-linejoin: round; stroke-linecap: butt}</style>
 </defs>
 <g id="figure_1">
  <g id="patch_1">
   <path d="M 0 345.6 
L 460.8 345.6 
L 460.8 0 
L 0 0 
z
" style="fill: #ffffff"/>
  </g>
  <g id="axes_1">
   <g id="patch_2">
    <path d="M 47.81 303.64 
L 450 303.64 
L 450 25.44 
L 47.81 25.44 
z
" style="fill: #ffffff"/>
   </g>
   <g id="matplotlib.axis_1">
    <g id="xtick_1">
     <g id="line2d_1">
      <path d="M 66.091364 303.64 
L 66.091364 25.44 
" clip-path="url(#pa0b1a2a107)" style="fill: none; stroke: #b0b0b0; stroke-opacity: 0.3; stroke-width: 0.8; stroke-linecap: square"/>
     </g>
     <g id="line2d_2">
      <defs>
       <path id="m2549b9e58c" d="M 0 0 
L 0 3.5 
" style="stroke: #000000; stroke-width: 0.8"/>
      </defs>
      <g>
       <use xlink:href="#m2549b9e58c" x="66.091364" y="303.64" style="stroke: #000000; stroke-width: 0.8"/>
      </g>
     </g>
     <g id="text_1">
      <!-- 0 -->
      <g transform="translate(62.910114 318.238437) scale(0.1 -0.1)">
       <defs>
        <path id="DejaVuSans-30" d="M 2034 4250 
Q 1547 4250 1301 3770 
Q 1056 3291 1056 2328 
Q 1056 1369 1301 889 
Q 1547 409 2034 409 
Q 2525 409 2770 889 
Q 3016 1369 3016 2328 
Q 3016 3291 2770 3770 
Q 2525 4250 2034 4250 
z
M 2034 4750 
Q 2819 4750 3233 4129 
Q 3647 3509 3647 2328 
Q 3647 1150 3233 529 
Q 2819 -91 2034 -91 
Q 1250 -91 836 529 
Q 422 1150 422 2328 
Q 422 3509 836 4129 
Q 1250 4750 2034 4750 
z
" transform="scale(0.015625)"/>
       </defs>
       <use xlink:href="#DejaVuSans-30"/>
      </g>
     </g>
    </g>
    <g id="xtick_2">
     <g id="line2d_3">
      <path d="M 114.841667 303.64 
L 114.841667 25.44 
" clip-path="url(#pa0b1a2a107)" style="fill: none; stroke: #b0b0b0; stroke-opacity: 0.3; stroke-width: 0.8; stroke-linecap: square"/>
     </g>
     <g id="line2d_4">
      <g>
       <use xlink:href="#m2549b9e58c" x="114.841667" y="303.64" style="stroke: #000000; stroke-width: 0.8"/>
      </g>
     </g>
     <g id="text_2">
      <!-- 2 -->
      <g transform="translate(111.660417 318.238437) scale(0.1 -0.1)">
       <defs>
        <path id="DejaVuSans-32" d="M 1228 531 
L 3431 531 
L 3431 0 
L 469 0 
L 469 531 
Q 828 903 1448 1529 
Q 2069 2156 2228 2338 
Q 2531 2678 2651 2914 
Q 2772 3150 2772 3378 
Q 2772 3750 2511 3984 
Q 2250 4219 1831 4219 
Q 1534 4219 1204 4116 
Q 875 4013 500 3803 
L 500 4441 
Q 881 4594 1212 4672 
Q 1544 4750 1819 4750 
Q 2544 4750 2975 4387 
Q 3406 4025 3406 3419 
Q 3406 3131 3298 2873 
Q 3191 2616 2906 2266 
Q 2828 2175 2409 1742 
Q 1991 1309 1228 531 
z
" transform="scale(0.015625)"/>
       </defs>
       <use xlink:href="#DejaVuSans-32"/>
      </g>
     </g>
    </g>
    <g id="xtick_3">
     <g id="line2d_5">
      <path d="M 163.59197 303.64 
L 163.59197 25.44 
" clip-path="url(#pa0b1a2a107)" style="fill: none; stroke: #b0b0b0; stroke-opacity: 0.3; stroke-width: 0.8; stroke-linecap: square"/>
     </g>
     <g id="line2d_6">
      <g>
       <use xlink:href="#m2549b9e58c" x="163.59197" y="303.64" style="stroke: #000000; stroke-width: 0.8"/>
      </g>
     </g>
     <g id="text_3">
      <!-- 4 -->
      <g transform="translate(160.41072 318.238437) scale(0.1 -0.1)">
       <defs>
        <path id="DejaVuSans-34" d="M 2419 4116 
L 825 1625 
L 2419 1625 
L 2419 4116 
z
M 2253 4666 
L 3047 4666 
L 3047 1625 
L 3713 1625 
L 3713 1100 
L 3047 1100 
L 3047 0 
L 2419 0 
L 2419 1100 
L 313 1100 
L 313 1709 
L 2253 4666 
z
" transform="scale(0.015625)"/>
       </defs>
       <use xlink:href="#DejaVuSans-34"/>
      </g>
     </g>
    </g>
    <g id="xtick_4">
     <g id="line2d_7">
      <path d="M 212.342273 303.64 
L 212.342273 25.44 
" clip-path="url(#pa0b1a2a107)" style="fill: none; stroke: #b0b0b0; stroke-opacity: 0.3; stroke-width: 0.8; stroke-linecap: square"/>
     </g>
     <g id="line2d_8">
      <g>
       <use xlink:href="#m2549b9e58c" x="212.342273" y="303.64" style="stroke: #000000; stroke-width: 0.8"/>
      </g>
     </g>
     <g id="text_4">
      <!-- 6 -->
      <g transform="translate(209.161023 318.238437) scale(0.1 -0.1)">
       <defs>
        <path id="DejaVuSans-36" d="M 2113 2584 
Q 1688 2584 1439 2293 
Q 1191 2003 1191 1497 
Q 1191 994 1439 701 
Q 1688 409 2113 409 
Q 2538 409 2786 701 
Q 3034 994 3034 1497 
Q 3034 2003 2786 2293 
Q 2538 2584 2113 2584 
z
M 3366 4563 
L 3366 3988 
Q 3128 4100 2886 4159 
Q 2644 4219 2406 4219 
Q 1781 4219 1451 3797 
Q 1122 3375 1075 2522 
Q 1259 2794 1537 2939 
Q 1816 3084 2150 3084 
Q 2853 3084 3261 2657 
Q 3669 2231 3669 1497 
Q 3669 778 3244 343 
Q 2819 -91 2113 -91 
Q 1303 -91 875 529 
Q 447 1150 447 2328 
Q 447 3434 972 4092 
Q 1497 4750 2381 4750 
Q 2619 4750 2861 4703 
Q 3103 4656 3366 4563 
z
" transform="scale(0.015625)"/>
       </defs>
       <use xlink:href="#DejaVuSans-36"/>
      </g>
     </g>
    </g>
    <g id="xtick_5">
     <g id="line2d_9">
      <path d="M 261.092576 303.64 
L 261.092576 25.44 
" clip-path="url(#pa0b1a2a107)" style="fill: none; stroke: #b0b0b0; stroke-opacity: 0.3; stroke-width: 0.8; stroke-linecap: square"/>
     </g>
     <g id="line2d_10">
      <g>
       <use xlink:href="#m2549b9e58c" x="261.092576" y="303.64" style="stroke: #000000; stroke-width: 0.8"/>
      </g>
     </g>
     <g id="text_5">
      <!-- 8 -->
      <g transform="translate(257.911326 318.238437) scale(0.1 -0.1)">
       <defs>
        <path id="DejaVuSans-38" d="M 2034 2216 
Q 1584 2216 1326 1975 
Q 1069 1734 1069 1313 
Q 1069 891 1326 650 
Q 1584 409 2034 409 
Q 2484 409 2743 651 
Q 3003 894 3003 1313 
Q 3003 1734 2745 1975 
Q 2488 2216 2034 2216 
z
M 1403 2484 
Q 997 2584 770 2862 
Q 544 3141 544 3541 
Q 544 4100 942 4425 
Q 1341 4750 2034 4750 
Q 2731 4750 3128 4425 
Q 3525 4100 3525 3541 
Q 3525 3141 3298 2862 
Q 3072 2584 2669 2484 
Q 3125 2378 3379 2068 
Q 3634 1759 3634 1313 
Q 3634 634 3220 271 
Q 2806 -91 2034 -91 
Q 1263 -91 848 271 
Q 434 634 434 1313 
Q 434 1759 690 2068 
Q 947 2378 1403 2484 
z
M 1172 3481 
Q 1172 3119 1398 2916 
Q 1625 2713 2034 2713 
Q 2441 2713 2670 2916 
Q 2900 3119 2900 3481 
Q 2900 3844 2670 4047 
Q 2441 4250 2034 4250 
Q 1625 4250 1398 4047 
Q 1172 3844 1172 3481 
z
" transform="scale(0.015625)"/>
       </defs>
       <use xlink:href="#DejaVuSans-38"/>
      </g>
     </g>
    </g>
    <g id="xtick_6">
     <g id="line2d_11">
      <path d="M 309.842879 303.64 
L 309.842879 25.44 
" clip-path="url(#pa0b1a2a107)" style="fill: none; stroke: #b0b0b0; stroke-opacity: 0.3; stroke-width: 0.8; stroke-linecap: square"/>
     </g>
     <g id="line2d_12">
      <g>
       <use xlink:href="#m2549b9e58c" x="309.842879" y="303.64" style="stroke: #000000; stroke-width: 0.8"/>
      </g>
     </g>
     <g id="text_6">
      <!-- 10 -->
      <g transform="translate(303.480379 318.238437) scale(0.1 -0.1)">
       <defs>
        <path id="DejaVuSans-31" d="M 794 531 
L 1825 531 
L 1825 4091 
L 703 3866 
L 703 4441 
L 1819 4666 
L 2450 4666 
L 2450 531 
L 3481 531 
L 3481 0 
L 794 0 
L 794 531 
z
" transform="scale(0.015625)"/>
       </defs>
       <use xlink:href="#DejaVuSans-31"/>
       <use xlink:href="#DejaVuSans-30" transform="translate(63.623047 0)"/>
      </g>
     </g>
    </g>
    <g id="xtick_7">
     <g id="line2d_13">
      <path d="M 358.593182 303.64 
L 358.593182 25.44 
" clip-path="url(#pa0b1a2a107)" style="fill: none; stroke: #b0b0b0; stroke-opacity: 0.3; stroke-width: 0.8; stroke-linecap: square"/>
     </g>
     <g id="line2d_14">
      <g>
       <use xlink:href="#m2549b9e58c" x="358.593182" y="303.64" style="stroke: #000000; stroke-width: 0.8"/>
      </g>
     </g>
     <g id="text_7">
      <!-- 12 -->
      <g transform="translate(352.230682 318.238437) scale(0.1 -0.1)">
       <use xlink:href="#DejaVuSans-31"/>
       <use xlink:href="#DejaVuSans-32" transform="translate(63.623047 0)"/>
      </g>
     </g>
    </g>
    <g id="xtick_8">
     <g id="line2d_15">
      <path d="M 407.343485 303.64 
L 407.343485 25.44 
" clip-path="url(#pa0b1a2a107)" style="fill: none; stroke: #b0b0b0; stroke-opacity: 0.3; stroke-width: 0.8; stroke-linecap: square"/>
     </g>
     <g id="line2d_16">
      <g>
       <use xlink:href="#m2549b9e58c" x="407.343485" y="303.64" style="stroke: #000000; stroke-width: 0.8"/>
      </g>
     </g>
     <g id="text_8">
      <!-- 14 -->
      <g transform="translate(400.980985 318.238437) scale(0.1 -0.1)">
       <use xlink:href="#DejaVuSans-31"/>
       <use xlink:href="#DejaVuSans-34" transform="translate(63.623047 0)"/>
      </g>
     </g>
    </g>
    <g id="text_9">
     <!-- Time (minutes) -->
     <g transform="translate(210.9425 331.916562) scale(0.1 -0.1)">
      <defs>
       <path id="DejaVuSans-54" d="M -19 4666 
L 3928 4666 
L 3928 4134 
L 2272 4134 
L 2272 0 
L 1638 0 
L 1638 4134 
L -19 4134 
L -19 4666 
z
" transform="scale(0.015625)"/>
       <path id="DejaVuSans-69" d="M 603 3500 
L 1178 3500 
L 1178 0 
L 603 0 
L 603 3500 
z
M 603 4863 
L 1178 4863 
L 1178 4134 
L 603 4134 
L 603 4863 
z
" transform="scale(0.015625)"/>
       <path id="DejaVuSans-6d" d="M 3328 2828 
Q 3544 3216 3844 3400 
Q 4144 3584 4550 3584 
Q 5097 3584 5394 3201 
Q 5691 2819 5691 2113 
L 5691 0 
L 5113 0 
L 5113 2094 
Q 5113 2597 4934 2840 
Q 4756 3084 4391 3084 
Q 3944 3084 3684 2787 
Q 3425 2491 3425 1978 
L 3425 0 
L 2847 0 
L 2847 2094 
Q 2847 2600 2669 2842 
Q 2491 3084 2119 3084 
Q 1678 3084 1418 2786 
Q 1159 2488 1159 1978 
L 1159 0 
L 581 0 
L 581 3500 
L 1159 3500 
L 1159 2956 
Q 1356 3278 1631 3431 
Q 1906 3584 2284 3584 
Q 2666 3584 2933 3390 
Q 3200 3197 3328 2828 
z
" transform="scale(0.015625)"/>
       <path id="DejaVuSans-65" d="M 3597 1894 
L 3597 1613 
L 953 1613 
Q 991 1019 1311 708 
Q 1631 397 2203 397 
Q 2534 397 2845 478 
Q 3156 559 3463 722 
L 3463 178 
Q 3153 47 2828 -22 
Q 2503 -91 2169 -91 
Q 1331 -91 842 396 
Q 353 884 353 1716 
Q 353 2575 817 3079 
Q 1281 3584 2069 3584 
Q 2775 3584 3186 3129 
Q 3597 2675 3597 1894 
z
M 3022 2063 
Q 3016 2534 2758 2815 
Q 2500 3097 2075 3097 
Q 1594 3097 1305 2825 
Q 1016 2553 972 2059 
L 3022 2063 
z
" transform="scale(0.015625)"/>
       <path id="DejaVuSans-20" transform="scale(0.015625)"/>
       <path id="DejaVuSans-28" d="M 1984 4856 
Q 1566 4138 1362 3434 
Q 1159 2731 1159 2009 
Q 1159 1288 1364 580 
Q 1569 -128 1984 -844 
L 1484 -844 
Q 1016 -109 783 600 
Q 550 1309 550 2009 
Q 550 2706 781 3412 
Q 1013 4119 1484 4856 
L 1984 4856 
z
" transform="scale(0.015625)"/>
       <path id="DejaVuSans-6e" d="M 3513 2113 
L 3513 0 
L 2938 0 
L 2938 2094 
Q 2938 2591 2744 2837 
Q 2550 3084 2163 3084 
Q 1697 3084 1428 2787 
Q 1159 2491 1159 1978 
L 1159 0 
L 581 0 
L 581 3500 
L 1159 3500 
L 1159 2956 
Q 1366 3272 1645 3428 
Q 1925 3584 2291 3584 
Q 2894 3584 3203 3211 
Q 3513 2838 3513 2113 
z
" transform="scale(0.015625)"/>
       <path id="DejaVuSans-75" d="M 544 1381 
L 544 3500 
L 1119 3500 
L 1119 1403 
Q 1119 906 1312 657 
Q 1506 409 1894 409 
Q 2359 409 2629 706 
Q 2900 1003 2900 1516 
L 2900 3500 
L 3475 3500 
L 3475 0 
L 2900 0 
L 2900 538 
Q 2691 219 2414 64 
Q 2138 -91 1772 -91 
Q 1169 -91 856 284 
Q 544 659 544 1381 
z
M 1991 3584 
L 1991 3584 
z
" transform="scale(0.015625)"/>
       <path id="DejaVuSans-74" d="M 1172 4494 
L 1172 3500 
L 2356 3500 
L 2356 3053 
L 1172 3053 
L 1172 1153 
Q 1172 725 1289 603 
Q 1406 481 1766 481 
L 2356 481 
L 2356 0 
L 1766 0 
Q 1100 0 847 248 
Q 594 497 594 1153 
L 594 3053 
L 172 3053 
L 172 3500 
L 594 3500 
L 594 4494 
L 1172 4494 
z
" transform="scale(0.015625)"/>
       <path id="DejaVuSans-73" d="M 2834 3397 
L 2834 2853 
Q 2591 2978 2328 3040 
Q 2066 3103 1784 3103 
Q 1356 3103 1142 2972 
Q 928 2841 928 2578 
Q 928 2378 1081 2264 
Q 1234 2150 1697 2047 
L 1894 2003 
Q 2506 1872 2764 1633 
Q 3022 1394 3022 966 
Q 3022 478 2636 193 
Q 2250 -91 1575 -91 
Q 1294 -91 989 -36 
Q 684 19 347 128 
L 347 722 
Q 666 556 975 473 
Q 1284 391 1588 391 
Q 1994 391 2212 530 
Q 2431 669 2431 922 
Q 2431 1156 2273 1281 
Q 2116 1406 1581 1522 
L 1381 1569 
Q 847 1681 609 1914 
Q 372 2147 372 2553 
Q 372 3047 722 3315 
Q 1072 3584 1716 3584 
Q 2034 3584 2315 3537 
Q 2597 3491 2834 3397 
z
" transform="scale(0.015625)"/>
       <path id="DejaVuSans-29" d="M 513 4856 
L 1013 4856 
Q 1481 4119 1714 3412 
Q 1947 2706 1947 2009 
Q 1947 1309 1714 600 
Q 1481 -109 1013 -844 
L 513 -844 
Q 928 -128 1133 580 
Q 1338 1288 1338 2009 
Q 1338 2731 1133 3434 
Q 928 4138 513 4856 
z
" transform="scale(0.015625)"/>
      </defs>
      <use xlink:href="#DejaVuSans-54"/>
      <use xlink:href="#DejaVuSans-69" transform="translate(57.958984 0)"/>
      <use xlink:href="#DejaVuSans-6d" transform="translate(85.742188 0)"/>
      <use xlink:href="#DejaVuSans-65" transform="translate(183.154297 0)"/>
      <use xlink:href="#DejaVuSans-20" transform="translate(244.677734 0)"/>
      <use xlink:href="#DejaVuSans-28" transform="translate(276.464844 0)"/>
      <use xlink:href="#DejaVuSans-6d" transform="translate(315.478516 0)"/>
      <use xlink:href="#DejaVuSans-69" transform="translate(412.890625 0)"/>
      <use xlink:href="#DejaVuSans-6e" transform="translate(440.673828 0)"/>
      <use xlink:href="#DejaVuSans-75" transform="translate(504.052734 0)"/>
      <use xlink:href="#DejaVuSans-74" transform="translate(567.431641 0)"/>
      <use xlink:href="#DejaVuSans-65" transform="translate(606.640625 0)"/>
      <use xlink:href="#DejaVuSans-73" transform="translate(668.164062 0)"/>
      <use xlink:href="#DejaVuSans-29" transform="translate(720.263672 0)"/>
     </g>
    </g>
   </g>
   <g id="matplotlib.axis_2">
    <g id="ytick_1">
     <g id="line2d_17">
      <path d="M 47.81 290.866243 
L 450 290.866243 
" clip-path="url(#pa0b1a2a107)" style="fill: none; stroke: #b0b0b0; stroke-opacity: 0.3; stroke-width: 0.8; stroke-linecap: square"/>
     </g>
     <g id="line2d_18">
      <defs>
       <path id="ma6b0d3483a" d="M 0 0 
L -3.5 0 
" style="stroke: #000000; stroke-width: 0.8"/>
      </defs>
      <g>
       <use xlink:href="#ma6b0d3483a" x="47.81" y="290.866243" style="stroke: #000000; stroke-width: 0.8"/>
      </g>
     </g>
     <g id="text_10">
      <!-- 0.0 -->
      <g transform="translate(24.906875 294.665462) scale(0.1 -0.1)">
       <defs>
        <path id="DejaVuSans-2e" d="M 684 794 
L 1344 794 
L 1344 0 
L 684 0 
L 684 794 
z
" transform="scale(0.015625)"/>
       </defs>
       <use xlink:href="#DejaVuSans-30"/>
       <use xlink:href="#DejaVuSans-2e" transform="translate(63.623047 0)"/>
       <use xlink:href="#DejaVuSans-30" transform="translate(95.410156 0)"/>
      </g>
     </g>
    </g>
    <g id="ytick_2">
     <g id="line2d_19">
      <path d="M 47.81 234.312642 
L 450 234.312642 
" clip-path="url(#pa0b1a2a107)" style="fill: none; stroke: #b0b0b0; stroke-opacity: 0.3; stroke-width: 0.8; stroke-linecap: square"/>
     </g>
     <g id="line2d_20">
      <g>
       <use xlink:href="#ma6b0d3483a" x="47.81" y="234.312642" style="stroke: #000000; stroke-width: 0.8"/>
      </g>
     </g>
     <g id="text_11">
      <!-- 0.5 -->
      <g transform="translate(24.906875 238.111861) scale(0.1 -0.1)">
       <defs>
        <path id="DejaVuSans-35" d="M 691 4666 
L 3169 4666 
L 3169 4134 
L 1269 4134 
L 1269 2991 
Q 1406 3038 1543 3061 
Q 1681 3084 1819 3084 
Q 2600 3084 3056 2656 
Q 3513 2228 3513 1497 
Q 3513 744 3044 326 
Q 2575 -91 1722 -91 
Q 1428 -91 1123 -41 
Q 819 9 494 109 
L 494 744 
Q 775 591 1075 516 
Q 1375 441 1709 441 
Q 2250 441 2565 725 
Q 2881 1009 2881 1497 
Q 2881 1984 2565 2268 
Q 2250 2553 1709 2553 
Q 1456 2553 1204 2497 
Q 953 2441 691 2322 
L 691 4666 
z
" transform="scale(0.015625)"/>
       </defs>
       <use xlink:href="#DejaVuSans-30"/>
       <use xlink:href="#DejaVuSans-2e" transform="translate(63.623047 0)"/>
       <use xlink:href="#DejaVuSans-35" transform="translate(95.410156 0)"/>
      </g>
     </g>
    </g>
    <g id="ytick_3">
     <g id="line2d_21">
      <path d="M 47.81 177.759041 
L 450 177.759041 
" clip-path="url(#pa0b1a2a107)" style="fill: none; stroke: #b0b0b0; stroke-opacity: 0.3; stroke-width: 0.8; stroke-linecap: square"/>
     </g>
     <g id="line2d_22">
      <g>
       <use xlink:href="#ma6b0d3483a" x="47.81" y="177.759041" style="stroke: #000000; stroke-width: 0.8"/>
      </g>
     </g>
     <g id="text_12">
      <!-- 1.0 -->
      <g transform="translate(24.906875 181.55826) scale(0.1 -0.1)">
       <use xlink:href="#DejaVuSans-31"/>
       <use xlink:href="#DejaVuSans-2e" transform="translate(63.623047 0)"/>
       <use xlink:href="#DejaVuSans-30" transform="translate(95.410156 0)"/>
      </g>
     </g>
    </g>
    <g id="ytick_4">
     <g id="line2d_23">
      <path d="M 47.81 121.20544 
L 450 121.20544 
" clip-path="url(#pa0b1a2a107)" style="fill: none; stroke: #b0b0b0; stroke-opacity: 0.3; stroke-width: 0.8; stroke-linecap: square"/>
     </g>
     <g id="line2d_24">
      <g>
       <use xlink:href="#ma6b0d3483a" x="47.81" y="121.20544" style="stroke: #000000; stroke-width: 0.8"/>
      </g>
     </g>
     <g id="text_13">
      <!-- 1.5 -->
      <g transform="translate(24.906875 125.004659) scale(0.1 -0.1)">
       <use xlink:href="#DejaVuSans-31"/>
       <use xlink:href="#DejaVuSans-2e" transform="translate(63.623047 0)"/>
       <use xlink:href="#DejaVuSans-35" transform="translate(95.410156 0)"/>
      </g>
     </g>
    </g>
    <g id="ytick_5">
     <g id="line2d_25">
      <path d="M 47.81 64.651839 
L 450 64.651839 
" clip-path="url(#pa0b1a2a107)" style="fill: none; stroke: #b0b0b0; stroke-opacity: 0.3; stroke-width: 0.8; stroke-linecap: square"/>
     </g>
     <g id="line2d_26">
      <g>
       <use xlink:href="#ma6b0d3483a" x="47.81" y="64.651839" style="stroke: #000000; stroke-width: 0.8"/>
      </g>
     </g>
     <g id="text_14">
      <!-- 2.0 -->
      <g transform="translate(24.906875 68.451058) scale(0.1 -0.1)">
       <use xlink:href="#DejaVuSans-32"/>
       <use xlink:href="#DejaVuSans-2e" transform="translate(63.623047 0)"/>
       <use xlink:href="#DejaVuSans-30" transform="translate(95.410156 0)"/>
      </g>
     </g>
    </g>
    <g id="text_15">
     <!-- Gaussian filtered EDA (μS) -->
     <g transform="translate(18.827188 230.613437) rotate(-90) scale(0.1 -0.1)">
      <defs>
       <path id="DejaVuSans-47" d="M 3809 666 
L 3809 1919 
L 2778 1919 
L 2778 2438 
L 4434 2438 
L 4434 434 
Q 4069 175 3628 42 
Q 3188 -91 2688 -91 
Q 1594 -91 976 548 
Q 359 1188 359 2328 
Q 359 3472 976 4111 
Q 1594 4750 2688 4750 
Q 3144 4750 3555 4637 
Q 3966 4525 4313 4306 
L 4313 3634 
Q 3963 3931 3569 4081 
Q 3175 4231 2741 4231 
Q 1884 4231 1454 3753 
Q 1025 3275 1025 2328 
Q 1025 1384 1454 906 
Q 1884 428 2741 428 
Q 3075 428 3337 486 
Q 3600 544 3809 666 
z
" transform="scale(0.015625)"/>
       <path id="DejaVuSans-61" d="M 2194 1759 
Q 1497 1759 1228 1600 
Q 959 1441 959 1056 
Q 959 750 1161 570 
Q 1363 391 1709 391 
Q 2188 391 2477 730 
Q 2766 1069 2766 1631 
L 2766 1759 
L 2194 1759 
z
M 3341 1997 
L 3341 0 
L 2766 0 
L 2766 531 
Q 2569 213 2275 61 
Q 1981 -91 1556 -91 
Q 1019 -91 701 211 
Q 384 513 384 1019 
Q 384 1609 779 1909 
Q 1175 2209 1959 2209 
L 2766 2209 
L 2766 2266 
Q 2766 2663 2505 2880 
Q 2244 3097 1772 3097 
Q 1472 3097 1187 3025 
Q 903 2953 641 2809 
L 641 3341 
Q 956 3463 1253 3523 
Q 1550 3584 1831 3584 
Q 2591 3584 2966 3190 
Q 3341 2797 3341 1997 
z
" transform="scale(0.015625)"/>
       <path id="DejaVuSans-66" d="M 2375 4863 
L 2375 4384 
L 1825 4384 
Q 1516 4384 1395 4259 
Q 1275 4134 1275 3809 
L 1275 3500 
L 2222 3500 
L 2222 3053 
L 1275 3053 
L 1275 0 
L 697 0 
L 697 3053 
L 147 3053 
L 147 3500 
L 697 3500 
L 697 3744 
Q 697 4328 969 4595 
Q 1241 4863 1831 4863 
L 2375 4863 
z
" transform="scale(0.015625)"/>
       <path id="DejaVuSans-6c" d="M 603 4863 
L 1178 4863 
L 1178 0 
L 603 0 
L 603 4863 
z
" transform="scale(0.015625)"/>
       <path id="DejaVuSans-72" d="M 2631 2963 
Q 2534 3019 2420 3045 
Q 2306 3072 2169 3072 
Q 1681 3072 1420 2755 
Q 1159 2438 1159 1844 
L 1159 0 
L 581 0 
L 581 3500 
L 1159 3500 
L 1159 2956 
Q 1341 3275 1631 3429 
Q 1922 3584 2338 3584 
Q 2397 3584 2469 3576 
Q 2541 3569 2628 3553 
L 2631 2963 
z
" transform="scale(0.015625)"/>
       <path id="DejaVuSans-64" d="M 2906 2969 
L 2906 4863 
L 3481 4863 
L 3481 0 
L 2906 0 
L 2906 525 
Q 2725 213 2448 61 
Q 2172 -91 1784 -91 
Q 1150 -91 751 415 
Q 353 922 353 1747 
Q 353 2572 751 3078 
Q 1150 3584 1784 3584 
Q 2172 3584 2448 3432 
Q 2725 3281 2906 2969 
z
M 947 1747 
Q 947 1113 1208 752 
Q 1469 391 1925 391 
Q 2381 391 2643 752 
Q 2906 1113 2906 1747 
Q 2906 2381 2643 2742 
Q 2381 3103 1925 3103 
Q 1469 3103 1208 2742 
Q 947 2381 947 1747 
z
" transform="scale(0.015625)"/>
       <path id="DejaVuSans-45" d="M 628 4666 
L 3578 4666 
L 3578 4134 
L 1259 4134 
L 1259 2753 
L 3481 2753 
L 3481 2222 
L 1259 2222 
L 1259 531 
L 3634 531 
L 3634 0 
L 628 0 
L 628 4666 
z
" transform="scale(0.015625)"/>
       <path id="DejaVuSans-44" d="M 1259 4147 
L 1259 519 
L 2022 519 
Q 2988 519 3436 956 
Q 3884 1394 3884 2338 
Q 3884 3275 3436 3711 
Q 2988 4147 2022 4147 
L 1259 4147 
z
M 628 4666 
L 1925 4666 
Q 3281 4666 3915 4102 
Q 4550 3538 4550 2338 
Q 4550 1131 3912 565 
Q 3275 0 1925 0 
L 628 0 
L 628 4666 
z
" transform="scale(0.015625)"/>
       <path id="DejaVuSans-41" d="M 2188 4044 
L 1331 1722 
L 3047 1722 
L 2188 4044 
z
M 1831 4666 
L 2547 4666 
L 4325 0 
L 3669 0 
L 3244 1197 
L 1141 1197 
L 716 0 
L 50 0 
L 1831 4666 
z
" transform="scale(0.015625)"/>
       <path id="DejaVuSans-3bc" d="M 544 -1331 
L 544 3500 
L 1119 3500 
L 1119 1325 
Q 1119 872 1334 640 
Q 1550 409 1972 409 
Q 2434 409 2667 671 
Q 2900 934 2900 1459 
L 2900 3500 
L 3475 3500 
L 3475 806 
Q 3475 619 3529 530 
Q 3584 441 3700 441 
Q 3728 441 3778 458 
Q 3828 475 3916 513 
L 3916 50 
Q 3788 -22 3673 -56 
Q 3559 -91 3450 -91 
Q 3234 -91 3106 31 
Q 2978 153 2931 403 
Q 2775 156 2548 32 
Q 2322 -91 2016 -91 
Q 1697 -91 1473 31 
Q 1250 153 1119 397 
L 1119 -1331 
L 544 -1331 
z
" transform="scale(0.015625)"/>
       <path id="DejaVuSans-53" d="M 3425 4513 
L 3425 3897 
Q 3066 4069 2747 4153 
Q 2428 4238 2131 4238 
Q 1616 4238 1336 4038 
Q 1056 3838 1056 3469 
Q 1056 3159 1242 3001 
Q 1428 2844 1947 2747 
L 2328 2669 
Q 3034 2534 3370 2195 
Q 3706 1856 3706 1288 
Q 3706 609 3251 259 
Q 2797 -91 1919 -91 
Q 1588 -91 1214 -16 
Q 841 59 441 206 
L 441 856 
Q 825 641 1194 531 
Q 1563 422 1919 422 
Q 2459 422 2753 634 
Q 3047 847 3047 1241 
Q 3047 1584 2836 1778 
Q 2625 1972 2144 2069 
L 1759 2144 
Q 1053 2284 737 2584 
Q 422 2884 422 3419 
Q 422 4038 858 4394 
Q 1294 4750 2059 4750 
Q 2388 4750 2728 4690 
Q 3069 4631 3425 4513 
z
" transform="scale(0.015625)"/>
      </defs>
      <use xlink:href="#DejaVuSans-47"/>
      <use xlink:href="#DejaVuSans-61" transform="translate(77.490234 0)"/>
      <use xlink:href="#DejaVuSans-75" transform="translate(138.769531 0)"/>
      <use xlink:href="#DejaVuSans-73" transform="translate(202.148438 0)"/>
      <use xlink:href="#DejaVuSans-73" transform="translate(254.248047 0)"/>
      <use xlink:href="#DejaVuSans-69" transform="translate(306.347656 0)"/>
      <use xlink:href="#DejaVuSans-61" transform="translate(334.130859 0)"/>
      <use xlink:href="#DejaVuSans-6e" transform="translate(395.410156 0)"/>
      <use xlink:href="#DejaVuSans-20" transform="translate(458.789062 0)"/>
      <use xlink:href="#DejaVuSans-66" transform="translate(490.576172 0)"/>
      <use xlink:href="#DejaVuSans-69" transform="translate(525.78125 0)"/>
      <use xlink:href="#DejaVuSans-6c" transform="translate(553.564453 0)"/>
      <use xlink:href="#DejaVuSans-74" transform="translate(581.347656 0)"/>
      <use xlink:href="#DejaVuSans-65" transform="translate(620.556641 0)"/>
      <use xlink:href="#DejaVuSans-72" transform="translate(682.080078 0)"/>
      <use xlink:href="#DejaVuSans-65" transform="translate(720.943359 0)"/>
      <use xlink:href="#DejaVuSans-64" transform="translate(782.466797 0)"/>
      <use xlink:href="#DejaVuSans-20" transform="translate(845.943359 0)"/>
      <use xlink:href="#DejaVuSans-45" transform="translate(877.730469 0)"/>
      <use xlink:href="#DejaVuSans-44" transform="translate(940.914062 0)"/>
      <use xlink:href="#DejaVuSans-41" transform="translate(1016.166016 0)"/>
      <use xlink:href="#DejaVuSans-20" transform="translate(1084.574219 0)"/>
      <use xlink:href="#DejaVuSans-28" transform="translate(1116.361328 0)"/>
      <use xlink:href="#DejaVuSans-3bc" transform="translate(1155.375 0)"/>
      <use xlink:href="#DejaVuSans-53" transform="translate(1218.998047 0)"/>
      <use xlink:href="#DejaVuSans-29" transform="translate(1282.474609 0)"/>
     </g>
    </g>
   </g>
   <g id="line2d_27">
    <path d="M 66.091364 237.244828 
L 67.209179 237.599968 
L 74.119311 240.513768 
L 75.033887 241.185311 
L 76.659801 242.428778 
L 77.574377 242.869236 
L 78.590573 243.078038 
L 81.334302 243.349963 
L 81.944019 243.320207 
L 82.350497 243.56684 
L 83.265074 244.485269 
L 83.468313 244.277177 
L 83.773172 243.35897 
L 84.17965 241.068301 
L 85.297466 233.874234 
L 85.805563 232.025858 
L 86.72014 229.787962 
L 87.837955 227.332429 
L 88.244434 226.981198 
L 88.549292 226.96153 
L 89.05739 227.199646 
L 90.073586 227.721262 
L 92.004358 228.291763 
L 92.614076 228.300011 
L 93.020554 228.117298 
L 93.427032 227.704432 
L 94.03675 226.702592 
L 95.052946 225.024985 
L 95.561044 224.556236 
L 96.069142 224.348877 
L 96.882098 224.314109 
L 97.491816 224.197617 
L 97.999914 223.858174 
L 99.829066 222.266033 
L 100.438784 222.237862 
L 101.251741 222.21439 
L 101.658219 221.946016 
L 102.064697 221.341634 
L 102.572795 220.105376 
L 103.487372 217.818165 
L 103.89385 217.386914 
L 104.198709 217.345193 
L 104.706807 217.597027 
L 105.316524 217.895144 
L 105.723002 217.847074 
L 106.33272 217.444531 
L 106.840818 217.20434 
L 107.145677 217.287618 
L 107.450535 217.591525 
L 107.958633 218.485819 
L 108.66997 219.773026 
L 108.974829 220.021778 
L 109.178068 220.010092 
L 109.381308 219.820881 
L 109.686166 219.130071 
L 109.991025 217.840352 
L 110.397503 214.971175 
L 110.905601 209.194137 
L 111.515319 199.022907 
L 112.633134 179.241086 
L 113.039613 175.39851 
L 113.344471 173.999308 
L 113.64933 173.493187 
L 113.954189 173.457751 
L 115.275244 173.972516 
L 116.393059 174.689192 
L 116.697918 174.529098 
L 117.104396 173.918929 
L 118.62869 170.979319 
L 119.238407 170.653696 
L 119.848125 170.463786 
L 120.152984 170.587337 
L 120.457842 171.016189 
L 120.864321 172.12168 
L 122.286995 176.714061 
L 122.591854 176.970942 
L 122.896713 176.913072 
L 123.303191 176.510966 
L 124.014528 175.757289 
L 124.319387 175.670976 
L 124.624246 175.775868 
L 125.030724 176.176397 
L 125.640441 177.176413 
L 126.555018 179.231579 
L 127.266355 180.679289 
L 127.672833 181.088817 
L 128.079311 181.16733 
L 128.48579 180.981763 
L 128.892268 180.482904 
L 129.298747 179.515317 
L 129.806844 177.617073 
L 130.619801 174.477712 
L 130.92466 173.874211 
L 131.127899 173.73422 
L 131.331138 173.798153 
L 131.635997 174.210789 
L 132.245715 175.61507 
L 133.160291 177.60662 
L 134.379726 179.672477 
L 135.70078 181.449731 
L 137.225074 183.214061 
L 137.529933 183.171663 
L 137.834792 182.846313 
L 138.34289 181.832138 
L 139.257466 179.926336 
L 139.663944 179.472933 
L 140.070423 179.348199 
L 140.476901 179.508753 
L 141.391477 180.295339 
L 141.899575 180.591597 
L 142.407673 180.625377 
L 143.830347 180.429805 
L 144.643304 180.470852 
L 145.151402 180.188758 
L 145.862739 179.771693 
L 146.167598 179.870825 
L 146.472457 180.220934 
L 146.980555 181.251785 
L 148.809707 185.422878 
L 149.317805 186.069839 
L 149.724283 186.246574 
L 150.130762 186.115431 
L 150.63886 185.63935 
L 152.264773 183.578276 
L 152.772871 182.278748 
L 153.789067 179.378321 
L 154.093926 179.169781 
L 154.297165 179.271963 
L 154.602024 179.732745 
L 155.110122 181.018998 
L 156.431176 184.544995 
L 157.95547 188.0918 
L 158.463568 190.189065 
L 159.073285 193.948995 
L 160.39434 202.758486 
L 161.004058 205.011216 
L 161.715395 206.709738 
L 162.426732 207.846763 
L 164.560743 210.250411 
L 164.865602 210.254158 
L 165.068841 210.020283 
L 165.3737 209.238347 
L 165.881798 206.99167 
L 166.491515 204.365337 
L 166.796374 203.748796 
L 166.999613 203.655338 
L 167.202852 203.779484 
L 167.609331 204.462799 
L 169.540103 208.455635 
L 170.35306 209.59499 
L 171.166016 210.397469 
L 171.775734 210.753691 
L 172.182212 210.743538 
L 172.487071 210.51209 
L 172.893549 209.833129 
L 173.604886 207.933211 
L 174.214604 206.586827 
L 174.621082 206.223555 
L 174.925941 206.21953 
L 175.332419 206.45131 
L 176.348615 207.429169 
L 178.279387 209.230005 
L 185.799237 215.413624 
L 186.815433 216.669301 
L 189.152683 219.673379 
L 190.473738 220.883767 
L 191.388314 221.487668 
L 192.201271 221.744602 
L 193.319086 222.059947 
L 194.640141 222.614719 
L 196.570913 222.919094 
L 197.485489 223.45725 
L 200.635696 225.597798 
L 202.26161 226.305653 
L 202.769708 226.361784 
L 203.176186 226.2223 
L 203.785904 225.703088 
L 204.395621 225.205355 
L 204.802099 225.118879 
L 205.310197 225.283341 
L 207.03773 226.079937 
L 208.765263 226.621062 
L 209.273361 226.463716 
L 210.391177 225.965048 
L 210.899275 226.033353 
L 211.712231 226.440872 
L 212.525188 226.771305 
L 212.931666 226.711178 
L 213.236525 226.466356 
L 213.643003 225.760398 
L 214.049482 224.55926 
L 214.760819 221.61462 
L 215.878634 217.135818 
L 216.589971 215.079715 
L 217.098069 214.261165 
L 217.504548 214.01109 
L 218.114265 213.982152 
L 218.825602 213.898 
L 219.232081 213.648785 
L 219.536939 213.254863 
L 219.841798 212.554706 
L 220.248277 210.933536 
L 220.756375 207.740257 
L 221.670951 201.758928 
L 222.077429 200.54493 
L 222.382288 200.303293 
L 222.687147 200.417609 
L 223.195245 200.712347 
L 223.398484 200.652343 
L 223.601723 200.387398 
L 223.906582 199.477724 
L 224.31306 197.146396 
L 225.024397 190.944681 
L 225.634115 186.584147 
L 226.040593 185.263091 
L 226.345452 184.96886 
L 226.650311 185.026661 
L 227.056789 185.388482 
L 227.564887 186.166871 
L 228.377843 187.540009 
L 228.581083 187.542491 
L 228.784322 187.241099 
L 229.089181 186.091808 
L 229.495659 183.261282 
L 230.715094 173.532152 
L 231.121572 172.157441 
L 232.341007 169.683347 
L 232.849105 168.804652 
L 233.662062 167.798422 
L 233.966921 166.574541 
L 234.27178 164.187871 
L 234.678258 158.837425 
L 236.100932 136.743473 
L 236.405791 135.159508 
L 236.71065 134.641127 
L 236.913889 134.654421 
L 237.320367 135.016643 
L 238.641422 136.509139 
L 239.860857 138.769451 
L 240.064096 138.80073 
L 240.267335 138.652887 
L 240.572194 138.103443 
L 241.080292 136.495248 
L 242.198107 132.489107 
L 242.502966 132.02437 
L 242.706205 131.964732 
L 242.909444 132.094683 
L 243.214303 132.577473 
L 243.92564 134.3544 
L 245.043456 137.04352 
L 246.262891 139.36072 
L 246.770989 140.0158 
L 247.075847 140.101204 
L 247.279087 139.952779 
L 247.583945 139.361216 
L 247.990424 137.937844 
L 248.80338 134.872391 
L 249.108239 134.479142 
L 249.311478 134.552309 
L 249.616337 135.106884 
L 250.124435 136.783459 
L 251.34387 141.025685 
L 251.953588 142.357651 
L 252.258446 142.588009 
L 252.461686 142.470706 
L 252.664925 142.064254 
L 252.969783 140.780977 
L 253.376262 137.621488 
L 253.985979 130.325075 
L 254.697316 122.389231 
L 255.002175 120.751887 
L 255.205414 120.388726 
L 255.408654 120.528641 
L 255.713512 121.385324 
L 256.424849 123.598539 
L 256.628089 123.710437 
L 256.831328 123.486465 
L 257.136187 122.594578 
L 258.050763 119.325017 
L 258.254002 119.183296 
L 258.457241 119.324287 
L 259.270198 120.418141 
L 259.473437 119.981798 
L 259.676676 118.936635 
L 259.981535 116.056499 
L 260.489633 108.236675 
L 261.20097 97.179371 
L 261.505829 94.850148 
L 261.709068 94.281904 
L 261.810688 94.239508 
L 262.013927 94.489533 
L 262.623644 95.641309 
L 262.826883 95.576252 
L 263.131742 94.957606 
L 263.944699 92.906072 
L 264.147938 92.886019 
L 264.351177 93.157222 
L 264.656036 94.070922 
L 265.164134 96.584948 
L 266.586808 104.318335 
L 267.094906 105.801169 
L 267.298145 106.009996 
L 267.501384 105.914061 
L 267.704624 105.464554 
L 268.009482 104.101692 
L 268.6192 99.740819 
L 269.228917 95.865771 
L 270.245113 90.564137 
L 271.261309 83.481117 
L 271.566168 82.834281 
L 271.769407 82.862698 
L 272.074266 83.327685 
L 273.700179 86.81625 
L 274.513136 90.173389 
L 275.732571 94.842277 
L 276.545528 97.439957 
L 276.952006 98.04485 
L 277.155245 98.089422 
L 277.460104 97.879936 
L 278.069821 96.994048 
L 278.679539 95.87154 
L 278.984398 94.871303 
L 279.390876 92.565912 
L 279.898974 88.053023 
L 280.81355 79.738567 
L 281.220029 77.833022 
L 281.524887 77.235855 
L 281.728126 77.149818 
L 282.032985 77.348387 
L 282.642703 78.262951 
L 283.150801 78.872916 
L 283.557279 79.04738 
L 284.675094 79.229307 
L 285.284812 79.419494 
L 285.589671 79.291195 
L 285.996149 78.806827 
L 287.012345 77.353791 
L 287.317204 77.257759 
L 287.622063 77.363374 
L 288.028541 77.747236 
L 288.739878 78.794464 
L 289.349595 79.583141 
L 289.552835 79.595159 
L 289.756074 79.314819 
L 289.959313 78.595157 
L 290.264172 76.336474 
L 290.569031 72.261599 
L 291.077128 61.431623 
L 291.890085 42.753398 
L 292.194944 39.139419 
L 292.398183 38.173092 
L 292.499803 38.085455 
L 292.601422 38.228134 
L 292.804661 39.079096 
L 293.312759 42.986882 
L 294.024096 48.311134 
L 294.735434 51.815975 
L 296.666206 60.544913 
L 297.580782 64.127051 
L 298.1905 65.749754 
L 298.596978 66.27696 
L 298.901837 66.380294 
L 299.409935 66.25385 
L 300.019652 66.168807 
L 300.52775 66.074005 
L 300.832609 65.797632 
L 301.645565 64.86822 
L 301.848805 65.043576 
L 302.052044 65.557076 
L 302.356903 67.019387 
L 302.865001 70.92498 
L 303.881196 78.986727 
L 304.490914 81.984931 
L 307.84436 94.884669 
L 309.673513 100.794381 
L 311.197807 105.839476 
L 312.417242 108.96163 
L 313.738296 112.420703 
L 315.059351 116.220146 
L 315.36421 116.38186 
L 315.567449 116.214781 
L 315.872308 115.582954 
L 316.482025 113.508093 
L 318.412797 106.073192 
L 320.038711 97.928966 
L 320.445189 97.092129 
L 320.750048 96.927311 
L 321.054907 97.06579 
L 321.461385 97.550494 
L 322.172722 98.800645 
L 324.814831 103.789292 
L 326.339125 105.710519 
L 326.745603 106.661227 
L 327.152082 108.10483 
L 327.66018 110.8153 
L 328.371517 116.083645 
L 330.403908 132.145496 
L 330.912006 134.138721 
L 331.318485 135.046248 
L 331.623344 135.344072 
L 331.826583 135.268969 
L 332.029822 134.887945 
L 332.334681 133.619716 
L 332.741159 130.653536 
L 334.163833 118.714523 
L 334.773551 115.825586 
L 335.281649 114.340948 
L 335.688127 113.81843 
L 335.992986 113.796047 
L 336.297845 114.019557 
L 336.805942 114.735386 
L 338.939954 118.19135 
L 339.95615 119.352515 
L 340.667487 120.68974 
L 342.801498 125.614386 
L 343.411216 127.525391 
L 344.83389 132.389319 
L 345.138749 132.761568 
L 345.443607 132.816814 
L 345.748466 132.623631 
L 347.17114 131.319781 
L 347.577619 131.423707 
L 348.085717 131.854794 
L 349.305152 133.342804 
L 350.016489 134.547891 
L 352.861837 140.545416 
L 355.707186 146.711288 
L 357.231479 151.354783 
L 357.841197 153.7115 
L 358.349295 156.526032 
L 359.060632 162.020908 
L 360.381687 172.720827 
L 360.991404 176.01932 
L 361.601122 178.234894 
L 362.10922 179.336283 
L 362.414078 179.616065 
L 362.617317 179.600604 
L 362.820557 179.388082 
L 363.125415 178.624868 
L 363.531894 176.64035 
L 364.039992 172.683407 
L 365.361046 161.404356 
L 365.869144 158.819636 
L 366.377242 157.358712 
L 366.783721 156.839195 
L 367.190199 156.712746 
L 367.698297 156.873986 
L 368.308014 157.330395 
L 368.816112 157.950533 
L 369.32421 158.973122 
L 369.832308 160.558032 
L 371.153363 165.132709 
L 371.661461 166.019983 
L 372.474417 166.875603 
L 373.084135 167.257257 
L 373.388994 167.242643 
L 373.795472 166.956271 
L 374.506809 166.331694 
L 374.811668 166.372723 
L 375.116527 166.690333 
L 375.726244 167.810161 
L 376.335962 168.723938 
L 376.84406 169.037264 
L 377.758636 169.209907 
L 378.266734 169.16786 
L 378.774832 168.911966 
L 379.587788 168.472164 
L 379.994267 168.511591 
L 380.400745 168.770041 
L 381.010463 169.453482 
L 383.652572 172.8388 
L 385.176866 174.39122 
L 390.359465 180.85661 
L 391.172421 182.418462 
L 393.509672 187.578585 
L 394.525868 190.399775 
L 394.932346 190.887739 
L 395.237205 190.962521 
L 395.846922 190.785036 
L 396.45664 190.695899 
L 397.066357 190.859243 
L 397.879314 191.352929 
L 399.403608 192.357974 
L 400.114945 192.479443 
L 400.826282 192.627464 
L 401.33438 192.957635 
L 402.045717 193.711988 
L 403.570011 195.396942 
L 404.484587 195.991889 
L 405.297544 196.271192 
L 406.110501 196.267399 
L 406.720218 196.319775 
L 407.228316 196.578112 
L 408.041273 197.322073 
L 408.955849 198.10959 
L 409.565566 198.370453 
L 410.276904 198.423688 
L 411.293099 198.489928 
L 411.902817 198.756187 
L 412.817393 199.445463 
L 413.52873 199.874251 
L 414.138448 199.977998 
L 415.357883 200.111872 
L 416.678938 200.639284 
L 418.304851 201.228272 
L 418.914568 201.248436 
L 419.524286 201.052012 
L 420.743721 200.586245 
L 421.759917 200.572781 
L 422.674493 200.691883 
L 423.589069 201.11008 
L 424.503646 201.437355 
L 426.536037 201.958754 
L 427.348994 202.595052 
L 429.178147 204.075054 
L 430.90568 205.343814 
L 431.718636 205.660349 
L 431.718636 205.660349 
" clip-path="url(#pa0b1a2a107)" style="fill: none; stroke-dasharray: 1.85,0.8; stroke-dashoffset: 0; stroke: #1f77b4; stroke-width: 0.5"/>
   </g>
   <g id="line2d_28">
    <path d="M 66.091364 236.237926 
L 66.599462 239.240441 
L 67.10756 241.059721 
L 67.514038 241.811922 
L 67.818897 242.040213 
L 68.123755 242.033733 
L 68.530234 241.742509 
L 69.139951 240.930278 
L 70.156147 239.519673 
L 70.664245 239.206324 
L 71.172343 239.192005 
L 71.680441 239.409953 
L 72.391778 239.978173 
L 74.32255 241.704533 
L 75.033887 241.956871 
L 77.269518 242.4918 
L 77.879236 243.016222 
L 78.488953 243.887302 
L 79.403529 245.743956 
L 80.622965 248.14599 
L 81.131062 248.751383 
L 81.537541 248.941415 
L 81.8424 248.870008 
L 82.147258 248.585043 
L 82.553737 247.828181 
L 83.061835 246.303395 
L 83.773172 243.362984 
L 86.72014 230.071437 
L 87.329857 228.723272 
L 87.837955 228.040572 
L 88.346053 227.678923 
L 88.854151 227.563653 
L 89.565488 227.674015 
L 91.394641 228.14125 
L 92.309217 228.084572 
L 93.223793 227.811257 
L 94.239989 227.254243 
L 95.357805 226.346092 
L 99.117729 222.982318 
L 100.743643 222.165937 
L 102.064697 221.395331 
L 102.979274 220.590554 
L 105.418144 218.144973 
L 106.027861 217.913229 
L 106.535959 217.962179 
L 107.044057 218.276434 
L 108.77159 219.698406 
L 109.178068 219.606169 
L 109.482927 219.313154 
L 109.889405 218.552433 
L 110.295884 217.28701 
L 110.803982 214.859534 
L 111.413699 210.602274 
L 112.328276 202.284206 
L 114.462287 182.211866 
L 115.072004 178.450704 
L 115.580102 176.441753 
L 116.0882 175.299609 
L 116.494679 174.894449 
L 116.901157 174.84597 
L 117.307635 175.066138 
L 117.917353 175.707529 
L 119.035168 176.952848 
L 119.644886 177.239271 
L 120.254603 177.275145 
L 122.490234 177.138283 
L 122.998332 177.447227 
L 123.60805 178.137024 
L 124.522626 179.582874 
L 125.843681 181.650676 
L 126.453398 182.241387 
L 126.859876 182.405154 
L 127.266355 182.33642 
L 127.672833 182.037764 
L 128.282551 181.260842 
L 129.298747 179.488114 
L 130.416562 177.626493 
L 131.026279 176.993747 
L 131.432758 176.821981 
L 131.839236 176.852105 
L 132.347334 177.129006 
L 132.957052 177.736594 
L 133.871628 179.004964 
L 135.70078 181.611334 
L 136.615357 182.467106 
L 137.428313 182.923331 
L 138.139651 183.082973 
L 138.850988 183.015188 
L 139.562325 182.717525 
L 140.578521 181.992098 
L 142.407673 180.647876 
L 143.11901 180.411926 
L 143.728728 180.451107 
L 144.338445 180.713625 
L 145.151402 181.33859 
L 146.269217 182.540149 
L 148.911327 185.517669 
L 149.622664 185.982935 
L 150.232381 186.149192 
L 150.740479 186.084791 
L 151.248577 185.804396 
L 151.756675 185.282802 
L 152.671251 183.927935 
L 153.789067 182.316323 
L 154.297165 181.881378 
L 154.703643 181.768679 
L 155.110122 181.923645 
L 155.5166 182.400321 
L 156.024698 183.498349 
L 156.634415 185.453111 
L 157.447372 188.862822 
L 159.073285 196.932621 
L 160.39434 202.947724 
L 161.410536 206.548759 
L 162.223493 208.658486 
L 162.83321 209.735514 
L 163.341308 210.273461 
L 163.747786 210.453605 
L 164.154265 210.416694 
L 164.662363 210.126405 
L 165.3737 209.415453 
L 167.101233 207.540678 
L 167.609331 207.308189 
L 168.015809 207.326784 
L 168.523907 207.587682 
L 169.235244 208.263118 
L 171.369255 210.534033 
L 171.877353 210.702852 
L 172.385451 210.613466 
L 172.995169 210.240648 
L 173.909745 209.368045 
L 175.2308 208.125309 
L 175.840517 207.830471 
L 176.348615 207.815203 
L 176.958333 208.044303 
L 177.66967 208.568364 
L 178.889105 209.816549 
L 180.311779 211.217148 
L 181.531214 212.059304 
L 183.970084 213.654135 
L 185.0879 214.744904 
L 186.815433 216.804765 
L 189.254303 219.693022 
L 190.575357 220.929534 
L 191.693173 221.687415 
L 192.607749 222.065751 
L 193.827184 222.309856 
L 195.859576 222.68569 
L 196.774152 223.092409 
L 198.095207 223.957423 
L 200.432457 225.523594 
L 201.550273 225.977263 
L 202.769708 226.220587 
L 203.989143 226.2377 
L 207.444209 226.087943 
L 208.155546 226.394289 
L 208.968502 227.021611 
L 210.696035 228.484942 
L 211.305753 228.674152 
L 211.813851 228.568192 
L 212.220329 228.264155 
L 212.728427 227.56025 
L 213.338145 226.279232 
L 214.252721 223.759764 
L 216.488352 217.360326 
L 217.301309 215.877033 
L 218.215885 214.689806 
L 219.740179 212.766169 
L 220.451516 211.445377 
L 221.162853 209.624381 
L 222.179049 206.306829 
L 225.735734 193.91047 
L 226.955169 190.876687 
L 228.174604 188.459936 
L 230.918333 183.502616 
L 231.62967 181.292746 
L 232.341007 178.2332 
L 233.052344 174.091224 
L 234.06854 166.524372 
L 236.405791 148.349144 
L 237.117128 144.456112 
L 237.828465 141.808848 
L 238.438183 140.353753 
L 239.0479 139.479861 
L 239.657618 139.025954 
L 240.368955 138.81213 
L 242.401346 138.368107 
L 243.722401 138.158688 
L 244.535358 138.244929 
L 245.246695 138.534099 
L 246.059652 139.117484 
L 247.177467 140.222275 
L 250.022815 143.214475 
L 250.632533 143.540745 
L 251.140631 143.600374 
L 251.648729 143.414662 
L 252.156827 142.934507 
L 252.664925 142.110807 
L 253.274642 140.600927 
L 253.985979 138.150107 
L 255.103795 133.38911 
L 256.932947 125.65157 
L 257.745904 123.189769 
L 258.558861 121.397886 
L 259.879915 119.138656 
L 260.896111 117.248871 
L 261.709068 115.227742 
L 264.757656 106.888241 
L 265.265753 106.214716 
L 265.672232 105.961518 
L 266.18033 105.921343 
L 266.993286 106.169689 
L 267.704624 106.315417 
L 268.111102 106.214554 
L 268.51758 105.891269 
L 268.924059 105.274759 
L 269.432157 103.983911 
L 270.041874 101.646505 
L 271.159689 96.197411 
L 272.277505 91.161506 
L 272.887222 89.397783 
L 273.293701 88.845447 
L 273.59856 88.832122 
L 273.903418 89.14954 
L 274.309897 89.992622 
L 274.919614 91.893331 
L 276.748767 98.087295 
L 277.155245 98.731182 
L 277.460104 98.861856 
L 277.764963 98.644157 
L 278.069821 98.106039 
L 278.577919 96.612122 
L 279.289256 93.596109 
L 281.829746 81.747125 
L 282.439464 80.270877 
L 282.947562 79.552286 
L 283.35404 79.27272 
L 283.760518 79.225164 
L 284.166997 79.38148 
L 284.675094 79.820705 
L 285.386432 80.792281 
L 287.520443 84.063799 
L 287.926921 84.215252 
L 288.23178 84.125002 
L 288.536639 83.82795 
L 288.943117 83.060279 
L 289.349595 81.805178 
L 289.857693 79.449863 
L 290.569031 74.824824 
L 293.21114 55.927499 
L 293.719238 54.156118 
L 294.024096 53.666282 
L 294.328955 53.580238 
L 294.633814 53.846372 
L 295.040292 54.659841 
L 295.54839 56.241711 
L 296.564586 60.380888 
L 297.580782 64.227658 
L 298.08888 65.457095 
L 298.596978 66.145033 
L 299.105076 66.457891 
L 299.918032 66.601829 
L 300.52775 66.782825 
L 300.934228 67.101169 
L 301.340707 67.679016 
L 301.747185 68.603245 
L 302.255283 70.351857 
L 302.96662 73.748168 
L 304.186055 80.999253 
L 305.608729 89.226526 
L 306.320066 92.253938 
L 307.031404 94.420908 
L 307.94598 96.486573 
L 309.267034 99.434778 
L 309.978372 101.687914 
L 310.791328 105.206969 
L 313.128579 116.050244 
L 313.738296 117.689473 
L 314.144775 118.228653 
L 314.449633 118.307896 
L 314.754492 118.13461 
L 315.16097 117.560828 
L 315.669068 116.389375 
L 316.380406 114.141876 
L 318.920895 105.522597 
L 319.733852 103.799713 
L 320.546809 102.608099 
L 321.258146 101.943903 
L 321.969483 101.581749 
L 322.68082 101.48532 
L 323.188918 101.626381 
L 323.697016 102.010705 
L 324.205114 102.698901 
L 324.713212 103.751576 
L 325.322929 105.581234 
L 325.932647 108.127746 
L 326.643984 112.123794 
L 327.761799 119.960637 
L 329.286093 130.355973 
L 329.99743 133.755755 
L 330.505528 135.195398 
L 330.912006 135.690124 
L 331.216865 135.719675 
L 331.521724 135.489928 
L 331.928202 134.832217 
L 332.4363 133.545587 
L 333.249257 130.741652 
L 335.586507 122.089204 
L 336.501084 119.721345 
L 337.212421 118.489834 
L 337.720519 117.99058 
L 338.126997 117.843885 
L 338.533475 117.939492 
L 338.939954 118.278617 
L 339.448052 119.000466 
L 340.159389 120.455215 
L 341.175585 123.120655 
L 343.512835 129.422129 
L 344.630651 131.731608 
L 345.646846 133.357643 
L 346.561423 134.418224 
L 347.475999 135.114064 
L 348.797054 135.784964 
L 350.016489 136.47542 
L 350.829445 137.191736 
L 351.642402 138.221665 
L 352.556978 139.768725 
L 353.573174 141.974513 
L 354.69099 144.998868 
L 355.808805 148.682348 
L 356.926621 153.16248 
L 358.044436 158.60263 
L 359.162252 165.15027 
L 360.889784 175.451029 
L 361.601122 178.367551 
L 362.10922 179.552152 
L 362.414078 179.815443 
L 362.617317 179.780073 
L 362.922176 179.381336 
L 363.328655 178.216896 
L 363.836752 175.93784 
L 364.649709 171.047599 
L 366.377242 160.328905 
L 366.98696 158.035361 
L 367.393438 157.26939 
L 367.698297 157.059659 
L 368.003156 157.122419 
L 368.308014 157.421537 
L 368.714493 158.125575 
L 369.32421 159.661683 
L 371.559841 165.884229 
L 372.271178 166.984519 
L 372.982515 167.679357 
L 373.693852 168.081509 
L 374.710048 168.371852 
L 376.945679 168.957774 
L 379.18131 169.787698 
L 381.010463 170.670421 
L 382.331517 171.550611 
L 383.550952 172.641987 
L 385.075246 174.362807 
L 390.359465 180.893055 
L 391.274041 182.566252 
L 392.391856 185.131365 
L 394.424248 189.858031 
L 395.237205 191.194417 
L 395.846922 191.815781 
L 396.45664 192.142215 
L 397.167977 192.260261 
L 398.387412 192.166721 
L 399.301988 192.18785 
L 400.013325 192.437768 
L 400.927902 193.038907 
L 402.452195 194.383988 
L 403.87487 195.536547 
L 405.094305 196.217599 
L 407.533175 197.231902 
L 409.870425 198.392049 
L 411.801197 199.252612 
L 413.52873 199.751092 
L 416.475698 200.583116 
L 418.406471 201.149718 
L 419.422666 201.213297 
L 420.337243 201.033711 
L 422.268015 200.532183 
L 422.979352 200.623905 
L 423.589069 200.946228 
L 424.198787 201.554215 
L 425.011744 202.725958 
L 427.247375 206.13907 
L 427.857092 206.623842 
L 428.36519 206.750756 
L 428.873288 206.653402 
L 429.483005 206.307469 
L 430.397582 205.491052 
L 431.718636 204.189003 
L 431.718636 204.189003 
" clip-path="url(#pa0b1a2a107)" style="fill: none; stroke: #ff7f0e; stroke-width: 0.5; stroke-linecap: square"/>
   </g>
   <g id="line2d_29">
    <path d="M 66.091364 290.866243 
L 66.192983 290.866243 
L 66.294603 290.994545 
L 66.497842 289.058759 
L 66.90432 287.96607 
L 67.310799 287.069605 
L 67.615657 286.789486 
L 67.920516 286.778002 
L 68.225375 286.990046 
L 68.733473 287.632409 
L 70.054528 290.051103 
L 70.664245 290.47843 
L 71.477202 290.723437 
L 72.290158 290.76753 
L 73.916072 289.896982 
L 74.42417 289.876541 
L 75.948464 290.668983 
L 77.066279 290.816129 
L 77.980855 290.792507 
L 78.590573 289.944849 
L 79.708388 287.787487 
L 80.724584 286.042466 
L 81.334302 285.399899 
L 81.8424 285.254314 
L 81.944019 285.291582 
L 82.248878 286.220722 
L 82.960215 288.66507 
L 83.468313 289.665535 
L 83.976411 290.22021 
L 84.28127 290.363103 
L 84.687748 289.551375 
L 85.094226 289.016079 
L 85.297466 289.071317 
L 86.821759 290.504247 
L 87.228238 290.572585 
L 88.041194 290.15898 
L 88.447673 290.292698 
L 89.463869 290.678221 
L 90.581684 290.81818 
L 93.325413 290.864563 
L 93.528652 290.827561 
L 94.341609 289.887768 
L 94.951326 289.381759 
L 95.357805 289.30144 
L 95.764283 289.396283 
L 97.085338 290.496666 
L 97.898294 290.72922 
L 98.711251 290.789067 
L 99.117729 290.626465 
L 100.032306 290.748473 
L 101.658219 290.849615 
L 102.166317 290.764351 
L 103.487372 288.719591 
L 103.79223 288.645377 
L 104.097089 289.006088 
L 104.910046 290.081462 
L 105.519763 290.489421 
L 106.129481 290.64272 
L 107.145677 289.859369 
L 107.755394 290.2519 
L 108.466731 290.595406 
L 109.381308 290.777419 
L 109.889405 290.727287 
L 110.194264 289.866844 
L 110.600743 287.952365 
L 111.108841 284.197754 
L 112.633134 270.942109 
L 112.836373 270.772075 
L 113.039613 271.215397 
L 113.344471 272.863107 
L 113.954189 278.060602 
L 114.868765 285.438057 
L 115.376863 287.891149 
L 115.884961 289.26325 
L 116.393059 290.006971 
L 116.799537 290.34506 
L 116.901157 290.344493 
L 117.206016 289.652679 
L 118.831929 285.000079 
L 119.441647 284.324492 
L 119.848125 284.123956 
L 120.152984 284.241338 
L 120.559462 284.845463 
L 121.880517 289.349444 
L 122.388615 290.048974 
L 122.896713 290.419 
L 122.998332 290.354901 
L 124.725865 286.856905 
L 125.132343 286.640097 
L 125.538822 286.680428 
L 125.9453 286.966639 
L 126.453398 287.634693 
L 127.469594 289.728653 
L 127.977692 290.249578 
L 128.587409 290.573923 
L 129.400366 290.758164 
L 129.501986 290.67855 
L 130.92466 287.739743 
L 131.229519 287.788021 
L 131.432758 287.981696 
L 132.753812 290.139783 
L 133.36353 290.520621 
L 134.176487 290.738944 
L 135.599161 290.844022 
L 137.733172 290.854986 
L 137.936411 290.556302 
L 139.359086 287.893119 
L 139.663944 287.750232 
L 139.968803 287.830164 
L 140.375281 288.19745 
L 141.391477 289.929439 
L 142.001195 290.417684 
L 142.712532 290.678763 
L 143.830347 290.818821 
L 144.236826 290.779303 
L 144.643304 290.491137 
L 145.151402 289.786055 
L 145.964359 288.527704 
L 146.269217 288.356109 
L 146.574076 288.423854 
L 146.878935 288.629457 
L 148.19999 290.302808 
L 148.911327 290.629593 
L 149.927523 290.798411 
L 150.334001 290.749531 
L 151.045338 290.145155 
L 151.553436 289.98411 
L 152.366393 289.892712 
L 152.671251 289.594573 
L 153.890686 287.895216 
L 154.093926 288.132043 
L 155.211741 290.012984 
L 155.821459 290.458875 
L 156.431176 290.673381 
L 156.634415 290.468179 
L 157.244133 289.240003 
L 158.05709 287.576418 
L 158.361948 287.307276 
L 158.565187 287.200399 
L 158.768427 287.442024 
L 159.987862 289.905424 
L 160.597579 290.40838 
L 161.105677 290.618564 
L 161.308916 290.518238 
L 162.528351 289.643171 
L 163.138069 289.4447 
L 164.662363 290.582203 
L 165.3737 290.708859 
L 165.576939 290.201092 
L 166.593135 287.045325 
L 166.796374 286.898307 
L 166.999613 286.976442 
L 167.406092 287.611581 
L 168.320668 289.611825 
L 168.828766 290.185299 
L 169.438483 290.543302 
L 170.25144 290.747425 
L 171.775734 290.848041 
L 172.58869 290.811591 
L 173.096788 290.125848 
L 174.011365 288.61543 
L 174.316223 288.442569 
L 174.722702 288.547257 
L 175.12918 289.125538 
L 175.738898 289.96845 
L 176.348615 290.433813 
L 177.059952 290.685234 
L 178.177768 290.820491 
L 179.092344 290.781492 
L 180.10854 290.642445 
L 180.819877 290.690101 
L 182.344171 290.835956 
L 185.392758 290.85548 
L 186.205715 290.795449 
L 189.355922 290.864465 
L 191.998031 290.78282 
L 192.506129 290.745085 
L 195.351478 290.861557 
L 203.277806 290.838917 
L 204.70048 289.869373 
L 205.208578 290.18071 
L 206.021534 290.593268 
L 206.936111 290.776667 
L 208.562024 290.853452 
L 208.765263 290.716106 
L 209.374981 289.942577 
L 210.391177 288.607069 
L 210.797655 288.402441 
L 211.204133 288.437875 
L 211.610612 288.632182 
L 212.830047 290.235622 
L 213.439764 290.565664 
L 214.354341 290.768473 
L 214.55758 290.619665 
L 215.472156 289.52534 
L 216.183493 289.009513 
L 216.691591 288.869818 
L 217.098069 288.961508 
L 218.520744 290.435612 
L 219.232081 290.685637 
L 219.943418 290.727915 
L 220.248277 290.00245 
L 220.756375 287.948792 
L 221.467712 285.029249 
L 221.77257 284.596584 
L 221.97581 284.514884 
L 222.179049 285.068066 
L 223.195245 288.841043 
L 223.703343 289.768927 
L 224.109821 290.186768 
L 224.21144 290.068452 
L 224.617919 288.243481 
L 225.532495 283.570842 
L 225.837354 283.071853 
L 226.040593 283.112069 
L 226.345452 283.598429 
L 226.85355 284.901125 
L 228.072985 289.190239 
L 228.581083 289.961798 
L 228.987561 290.289071 
L 229.089181 290.103549 
L 229.495659 287.855282 
L 230.613474 280.724309 
L 230.918333 280.165082 
L 231.121572 280.149286 
L 231.426431 280.472074 
L 232.036149 281.615632 
L 232.544247 282.991558 
L 233.560442 288.114206 
L 234.06854 289.375058 
L 234.373399 289.822323 
L 234.475019 289.619595 
L 234.881497 286.445552 
L 235.796073 278.104663 
L 236.100932 277.297827 
L 236.202552 277.321226 
L 236.405791 277.745757 
L 236.812269 279.595639 
L 237.828465 284.634345 
L 238.336563 286.543224 
L 238.946281 288.658549 
L 239.454378 289.66559 
L 239.962476 290.220823 
L 240.368955 290.474461 
L 240.470574 290.453039 
L 240.775433 289.734585 
L 241.48677 287.217217 
L 242.096488 285.227495 
L 242.401346 284.697549 
L 242.604586 284.586386 
L 242.807825 284.669155 
L 243.112684 285.102697 
L 243.722401 286.591332 
L 244.840217 289.330136 
L 245.348314 290.028515 
L 245.958032 290.468344 
L 246.770989 290.71979 
L 247.177467 290.736418 
L 247.380706 290.291823 
L 247.787185 288.756567 
L 249.00662 283.205776 
L 249.311478 282.898242 
L 249.514718 283.018259 
L 249.819576 283.577686 
L 250.530913 285.69221 
L 251.44549 288.867174 
L 251.953588 289.78088 
L 252.461686 290.283093 
L 252.868164 290.491 
L 252.969783 290.323218 
L 253.376262 288.261815 
L 253.88436 284.054803 
L 254.494077 279.049475 
L 254.798936 277.878495 
L 255.002175 277.839501 
L 255.205414 278.406336 
L 255.408654 279.365412 
L 256.628089 287.622421 
L 256.932947 288.543698 
L 257.136187 288.570538 
L 257.441045 288.261322 
L 257.745904 287.720332 
L 257.949143 287.980802 
L 258.965339 289.853454 
L 259.575057 290.381297 
L 259.676676 290.317036 
L 259.879915 288.980632 
L 260.286394 284.1959 
L 261.20097 271.558556 
L 261.505829 270.003462 
L 261.607448 269.904225 
L 261.709068 269.990013 
L 261.912307 270.607723 
L 262.928503 274.806933 
L 263.233362 274.957116 
L 263.74146 274.953365 
L 263.944699 275.196386 
L 264.249558 276.015518 
L 264.656036 277.939011 
L 265.367373 282.682655 
L 265.977091 286.657415 
L 266.485188 288.574027 
L 266.993286 289.633525 
L 267.501384 290.205823 
L 267.603004 290.266412 
L 267.704624 290.127581 
L 268.111102 288.198756 
L 269.127298 282.490656 
L 269.432157 281.882115 
L 270.143494 281.02453 
L 270.651592 279.512016 
L 270.95645 278.771282 
L 271.159689 278.645699 
L 271.362929 278.912897 
L 271.667787 280.024629 
L 273.293701 287.900796 
L 273.801799 289.226444 
L 274.309897 289.980385 
L 274.919614 290.446794 
L 275.630951 290.691424 
L 276.545528 290.778298 
L 276.952006 290.510385 
L 277.764963 289.789069 
L 278.37468 290.210144 
L 279.086017 290.577074 
L 279.289256 290.586547 
L 279.492496 290.120566 
L 279.898974 288.46903 
L 280.610311 285.304922 
L 280.91517 284.728405 
L 281.118409 284.705092 
L 281.423268 285.044208 
L 281.829746 286.579473 
L 282.439464 288.670687 
L 282.947562 289.671491 
L 283.455659 290.223882 
L 284.065377 290.562524 
L 284.268616 290.579761 
L 285.081573 290.003554 
L 285.488051 289.335726 
L 285.996149 287.895645 
L 287.012345 284.755482 
L 287.418823 284.223076 
L 287.723682 284.197968 
L 288.028541 284.489002 
L 288.3334 284.924832 
L 288.943117 287.37826 
L 289.451215 288.919479 
L 289.959313 289.811689 
L 290.264172 290.139688 
L 290.365791 289.920018 
L 290.67065 287.336751 
L 291.077128 281.435472 
L 291.890085 269.22009 
L 292.093324 268.070966 
L 292.194944 267.92028 
L 292.296563 268.028864 
L 292.499803 269.010227 
L 292.906281 273.074895 
L 293.820857 283.970725 
L 294.328955 287.121525 
L 294.837053 288.854118 
L 295.345151 289.788552 
L 295.853249 290.28959 
L 296.462967 290.59405 
L 297.377543 290.777977 
L 299.003456 290.854163 
L 299.409935 290.654256 
L 300.019652 290.487224 
L 300.42613 290.323388 
L 300.730989 289.934 
L 301.137468 288.941018 
L 301.950424 286.82457 
L 302.052044 286.819915 
L 302.255283 287.187457 
L 303.271479 289.586851 
L 303.779577 290.173202 
L 304.186055 290.444684 
L 304.287675 290.41438 
L 304.795773 289.359913 
L 305.40549 288.195093 
L 305.811969 287.849284 
L 306.116827 287.864201 
L 306.523306 288.153527 
L 307.84436 289.618482 
L 308.454078 290.237686 
L 309.063795 290.565064 
L 309.978372 290.76818 
L 310.48647 290.773482 
L 310.892948 290.177147 
L 311.502665 288.860857 
L 312.7221 286.115276 
L 313.128579 285.602829 
L 313.433438 285.477497 
L 313.839916 285.687626 
L 314.144775 286.566873 
L 314.856112 288.833421 
L 315.36421 289.757701 
L 315.872308 290.269853 
L 316.482025 290.584233 
L 317.396601 290.774742 
L 318.006319 290.772566 
L 318.412797 290.106348 
L 318.920895 288.699718 
L 319.937091 285.73671 
L 320.24195 285.354709 
L 320.546809 285.325093 
L 320.851667 285.597353 
L 321.359765 286.465525 
L 322.375961 288.834023 
L 322.884059 289.739981 
L 323.392157 290.25741 
L 324.001875 290.5779 
L 324.713212 290.746016 
L 324.916451 290.563207 
L 325.424549 289.450595 
L 326.034266 287.514091 
L 327.355321 283.00688 
L 327.761799 282.454268 
L 328.066658 282.40734 
L 328.371517 282.618817 
L 328.777995 283.222419 
L 329.286093 284.456393 
L 330.09905 287.290491 
L 330.607148 288.847135 
L 331.115246 289.768821 
L 331.623344 290.276425 
L 332.233061 290.587432 
L 332.334681 290.61106 
L 332.4363 290.441704 
L 332.944398 287.855586 
L 333.757355 283.624771 
L 334.163833 282.534586 
L 334.570312 282.044828 
L 334.87517 281.963859 
L 335.180029 282.121137 
L 335.484888 282.540866 
L 335.891366 283.49489 
L 336.704323 286.20055 
L 337.41566 288.691548 
L 337.923758 289.682759 
L 338.431856 290.229927 
L 339.041573 290.565417 
L 339.448052 290.645684 
L 340.565867 289.948451 
L 342.903118 288.859683 
L 344.427411 290.461557 
L 345.240368 290.716631 
L 345.443607 290.678741 
L 345.951705 289.587535 
L 346.764662 287.825266 
L 347.17114 287.340579 
L 347.577619 287.184833 
L 347.984097 287.290104 
L 348.797054 287.836368 
L 349.81325 288.7249 
L 350.931065 290.194358 
L 351.540783 290.545379 
L 352.353739 290.747972 
L 353.776413 290.845617 
L 354.081272 290.722957 
L 354.894229 290.030702 
L 356.113664 289.021454 
L 356.825001 288.291645 
L 357.841197 287.114814 
L 358.146056 287.082449 
L 358.349295 287.098989 
L 358.552534 287.420527 
L 359.56873 289.66029 
L 360.076828 290.212743 
L 360.686545 290.556496 
L 361.499502 290.752259 
L 362.10922 290.720816 
L 363.125415 290.677994 
L 363.430274 290.353454 
L 363.836752 289.426927 
L 364.954568 286.256784 
L 365.259427 286.034793 
L 365.462666 286.100149 
L 365.869144 286.630771 
L 366.88534 289.373674 
L 367.393438 290.057104 
L 368.003156 290.482675 
L 368.612873 290.662815 
L 369.019351 290.372287 
L 369.32421 290.252576 
L 369.933928 290.47943 
L 370.848504 290.731935 
L 371.8647 290.798274 
L 372.576037 290.5731 
L 373.185754 290.388645 
L 373.592233 290.031505 
L 374.608429 288.828115 
L 374.811668 288.975391 
L 375.929483 290.271184 
L 376.64082 290.615263 
L 377.657016 290.794231 
L 378.165114 290.74624 
L 378.774832 290.226721 
L 379.689408 289.389604 
L 380.095886 289.298761 
L 380.603984 289.433595 
L 380.908843 289.654254 
L 381.7218 290.351853 
L 382.433137 290.647895 
L 383.449333 290.803521 
L 385.786583 290.862612 
L 392.188617 290.809298 
L 392.595096 290.607238 
L 393.408052 290.721496 
L 394.932346 290.842761 
L 395.135585 290.818532 
L 395.643683 290.146592 
L 396.151781 289.634146 
L 396.558259 289.469762 
L 397.066357 289.498696 
L 397.472836 289.827442 
L 398.184173 290.388649 
L 398.89551 290.663773 
L 400.013325 290.814916 
L 400.419804 290.777856 
L 401.131141 290.51523 
L 401.740858 290.623651 
L 402.960293 290.807022 
L 405.297544 290.8627 
L 405.704022 290.740517 
L 406.720218 290.35591 
L 409.362327 290.83878 
L 410.276904 290.76589 
L 411.19148 290.369563 
L 411.496339 290.353391 
L 413.427111 290.803258 
L 415.764361 290.862565 
L 419.524286 290.780572 
L 420.337243 290.622192 
L 422.268015 290.837926 
L 424.097167 290.829915 
L 424.706885 290.160569 
L 426.739277 287.517028 
L 427.247375 287.302317 
L 427.755472 287.321353 
L 428.26357 287.562264 
L 428.873288 288.044267 
L 430.194343 290.154995 
L 430.80406 290.527862 
L 431.617017 290.741645 
L 431.718636 290.756294 
L 431.718636 290.756294 
" clip-path="url(#pa0b1a2a107)" style="fill: none; stroke: #2ca02c; stroke-width: 0.5; stroke-linecap: square"/>
   </g>
   <g id="patch_3">
    <path d="M 47.81 303.64 
L 47.81 25.44 
" style="fill: none; stroke: #000000; stroke-width: 0.8; stroke-linejoin: miter; stroke-linecap: square"/>
   </g>
   <g id="patch_4">
    <path d="M 450 303.64 
L 450 25.44 
" style="fill: none; stroke: #000000; stroke-width: 0.8; stroke-linejoin: miter; stroke-linecap: square"/>
   </g>
   <g id="patch_5">
    <path d="M 47.81 303.64 
L 450 303.64 
" style="fill: none; stroke: #000000; stroke-width: 0.8; stroke-linejoin: miter; stroke-linecap: square"/>
   </g>
   <g id="patch_6">
    <path d="M 47.81 25.44 
L 450 25.44 
" style="fill: none; stroke: #000000; stroke-width: 0.8; stroke-linejoin: miter; stroke-linecap: square"/>
   </g>
   <g id="text_16">
    <!-- data_3_E4 Separated EDA plot -->
    <g transform="translate(157.349688 19.44) scale(0.12 -0.12)">
     <defs>
      <path id="DejaVuSans-5f" d="M 3263 -1063 
L 3263 -1509 
L -63 -1509 
L -63 -1063 
L 3263 -1063 
z
" transform="scale(0.015625)"/>
      <path id="DejaVuSans-33" d="M 2597 2516 
Q 3050 2419 3304 2112 
Q 3559 1806 3559 1356 
Q 3559 666 3084 287 
Q 2609 -91 1734 -91 
Q 1441 -91 1130 -33 
Q 819 25 488 141 
L 488 750 
Q 750 597 1062 519 
Q 1375 441 1716 441 
Q 2309 441 2620 675 
Q 2931 909 2931 1356 
Q 2931 1769 2642 2001 
Q 2353 2234 1838 2234 
L 1294 2234 
L 1294 2753 
L 1863 2753 
Q 2328 2753 2575 2939 
Q 2822 3125 2822 3475 
Q 2822 3834 2567 4026 
Q 2313 4219 1838 4219 
Q 1578 4219 1281 4162 
Q 984 4106 628 3988 
L 628 4550 
Q 988 4650 1302 4700 
Q 1616 4750 1894 4750 
Q 2613 4750 3031 4423 
Q 3450 4097 3450 3541 
Q 3450 3153 3228 2886 
Q 3006 2619 2597 2516 
z
" transform="scale(0.015625)"/>
      <path id="DejaVuSans-70" d="M 1159 525 
L 1159 -1331 
L 581 -1331 
L 581 3500 
L 1159 3500 
L 1159 2969 
Q 1341 3281 1617 3432 
Q 1894 3584 2278 3584 
Q 2916 3584 3314 3078 
Q 3713 2572 3713 1747 
Q 3713 922 3314 415 
Q 2916 -91 2278 -91 
Q 1894 -91 1617 61 
Q 1341 213 1159 525 
z
M 3116 1747 
Q 3116 2381 2855 2742 
Q 2594 3103 2138 3103 
Q 1681 3103 1420 2742 
Q 1159 2381 1159 1747 
Q 1159 1113 1420 752 
Q 1681 391 2138 391 
Q 2594 391 2855 752 
Q 3116 1113 3116 1747 
z
" transform="scale(0.015625)"/>
      <path id="DejaVuSans-6f" d="M 1959 3097 
Q 1497 3097 1228 2736 
Q 959 2375 959 1747 
Q 959 1119 1226 758 
Q 1494 397 1959 397 
Q 2419 397 2687 759 
Q 2956 1122 2956 1747 
Q 2956 2369 2687 2733 
Q 2419 3097 1959 3097 
z
M 1959 3584 
Q 2709 3584 3137 3096 
Q 3566 2609 3566 1747 
Q 3566 888 3137 398 
Q 2709 -91 1959 -91 
Q 1206 -91 779 398 
Q 353 888 353 1747 
Q 353 2609 779 3096 
Q 1206 3584 1959 3584 
z
" transform="scale(0.015625)"/>
     </defs>
     <use xlink:href="#DejaVuSans-64"/>
     <use xlink:href="#DejaVuSans-61" transform="translate(63.476562 0)"/>
     <use xlink:href="#DejaVuSans-74" transform="translate(124.755859 0)"/>
     <use xlink:href="#DejaVuSans-61" transform="translate(163.964844 0)"/>
     <use xlink:href="#DejaVuSans-5f" transform="translate(225.244141 0)"/>
     <use xlink:href="#DejaVuSans-33" transform="translate(275.244141 0)"/>
     <use xlink:href="#DejaVuSans-5f" transform="translate(338.867188 0)"/>
     <use xlink:href="#DejaVuSans-45" transform="translate(388.867188 0)"/>
     <use xlink:href="#DejaVuSans-34" transform="translate(452.050781 0)"/>
     <use xlink:href="#DejaVuSans-20" transform="translate(515.673828 0)"/>
     <use xlink:href="#DejaVuSans-53" transform="translate(547.460938 0)"/>
     <use xlink:href="#DejaVuSans-65" transform="translate(610.9375 0)"/>
     <use xlink:href="#DejaVuSans-70" transform="translate(672.460938 0)"/>
     <use xlink:href="#DejaVuSans-61" transform="translate(735.9375 0)"/>
     <use xlink:href="#DejaVuSans-72" transform="translate(797.216797 0)"/>
     <use xlink:href="#DejaVuSans-61" transform="translate(838.330078 0)"/>
     <use xlink:href="#DejaVuSans-74" transform="translate(899.609375 0)"/>
     <use xlink:href="#DejaVuSans-65" transform="translate(938.818359 0)"/>
     <use xlink:href="#DejaVuSans-64" transform="translate(1000.341797 0)"/>
     <use xlink:href="#DejaVuSans-20" transform="translate(1063.818359 0)"/>
     <use xlink:href="#DejaVuSans-45" transform="translate(1095.605469 0)"/>
     <use xlink:href="#DejaVuSans-44" transform="translate(1158.789062 0)"/>
     <use xlink:href="#DejaVuSans-41" transform="translate(1234.041016 0)"/>
     <use xlink:href="#DejaVuSans-20" transform="translate(1302.449219 0)"/>
     <use xlink:href="#DejaVuSans-70" transform="translate(1334.236328 0)"/>
     <use xlink:href="#DejaVuSans-6c" transform="translate(1397.712891 0)"/>
     <use xlink:href="#DejaVuSans-6f" transform="translate(1425.496094 0)"/>
     <use xlink:href="#DejaVuSans-74" transform="translate(1486.677734 0)"/>
    </g>
   </g>
   <g id="legend_1">
    <g id="patch_7">
     <path d="M 350.09375 77.474375 
L 443 77.474375 
Q 445 77.474375 445 75.474375 
L 445 32.44 
Q 445 30.44 443 30.44 
L 350.09375 30.44 
Q 348.09375 30.44 348.09375 32.44 
L 348.09375 75.474375 
Q 348.09375 77.474375 350.09375 77.474375 
z
" style="fill: #ffffff; opacity: 0.8; stroke: #cccccc; stroke-linejoin: miter"/>
    </g>
    <g id="line2d_30">
     <path d="M 352.09375 38.538437 
L 362.09375 38.538437 
L 372.09375 38.538437 
" style="fill: none; stroke-dasharray: 1.85,0.8; stroke-dashoffset: 0; stroke: #1f77b4; stroke-width: 0.5"/>
    </g>
    <g id="text_17">
     <!-- Filtered EDA -->
     <g transform="translate(380.09375 42.038437) scale(0.1 -0.1)">
      <defs>
       <path id="DejaVuSans-46" d="M 628 4666 
L 3309 4666 
L 3309 4134 
L 1259 4134 
L 1259 2759 
L 3109 2759 
L 3109 2228 
L 1259 2228 
L 1259 0 
L 628 0 
L 628 4666 
z
" transform="scale(0.015625)"/>
      </defs>
      <use xlink:href="#DejaVuSans-46"/>
      <use xlink:href="#DejaVuSans-69" transform="translate(50.269531 0)"/>
      <use xlink:href="#DejaVuSans-6c" transform="translate(78.052734 0)"/>
      <use xlink:href="#DejaVuSans-74" transform="translate(105.835938 0)"/>
      <use xlink:href="#DejaVuSans-65" transform="translate(145.044922 0)"/>
      <use xlink:href="#DejaVuSans-72" transform="translate(206.568359 0)"/>
      <use xlink:href="#DejaVuSans-65" transform="translate(245.431641 0)"/>
      <use xlink:href="#DejaVuSans-64" transform="translate(306.955078 0)"/>
      <use xlink:href="#DejaVuSans-20" transform="translate(370.431641 0)"/>
      <use xlink:href="#DejaVuSans-45" transform="translate(402.21875 0)"/>
      <use xlink:href="#DejaVuSans-44" transform="translate(465.402344 0)"/>
      <use xlink:href="#DejaVuSans-41" transform="translate(540.654297 0)"/>
     </g>
    </g>
    <g id="line2d_31">
     <path d="M 352.09375 53.216562 
L 362.09375 53.216562 
L 372.09375 53.216562 
" style="fill: none; stroke: #ff7f0e; stroke-width: 0.5; stroke-linecap: square"/>
    </g>
    <g id="text_18">
     <!-- Tonic -->
     <g transform="translate(380.09375 56.716562) scale(0.1 -0.1)">
      <defs>
       <path id="DejaVuSans-63" d="M 3122 3366 
L 3122 2828 
Q 2878 2963 2633 3030 
Q 2388 3097 2138 3097 
Q 1578 3097 1268 2742 
Q 959 2388 959 1747 
Q 959 1106 1268 751 
Q 1578 397 2138 397 
Q 2388 397 2633 464 
Q 2878 531 3122 666 
L 3122 134 
Q 2881 22 2623 -34 
Q 2366 -91 2075 -91 
Q 1284 -91 818 406 
Q 353 903 353 1747 
Q 353 2603 823 3093 
Q 1294 3584 2113 3584 
Q 2378 3584 2631 3529 
Q 2884 3475 3122 3366 
z
" transform="scale(0.015625)"/>
      </defs>
      <use xlink:href="#DejaVuSans-54"/>
      <use xlink:href="#DejaVuSans-6f" transform="translate(44.083984 0)"/>
      <use xlink:href="#DejaVuSans-6e" transform="translate(105.265625 0)"/>
      <use xlink:href="#DejaVuSans-69" transform="translate(168.644531 0)"/>
      <use xlink:href="#DejaVuSans-63" transform="translate(196.427734 0)"/>
     </g>
    </g>
    <g id="line2d_32">
     <path d="M 352.09375 67.894687 
L 362.09375 67.894687 
L 372.09375 67.894687 
" style="fill: none; stroke: #2ca02c; stroke-width: 0.5; stroke-linecap: square"/>
    </g>
    <g id="text_19">
     <!-- Phasic -->
     <g transform="translate(380.09375 71.394687) scale(0.1 -0.1)">
      <defs>
       <path id="DejaVuSans-50" d="M 1259 4147 
L 1259 2394 
L 2053 2394 
Q 2494 2394 2734 2622 
Q 2975 2850 2975 3272 
Q 2975 3691 2734 3919 
Q 2494 4147 2053 4147 
L 1259 4147 
z
M 628 4666 
L 2053 4666 
Q 2838 4666 3239 4311 
Q 3641 3956 3641 3272 
Q 3641 2581 3239 2228 
Q 2838 1875 2053 1875 
L 1259 1875 
L 1259 0 
L 628 0 
L 628 4666 
z
" transform="scale(0.015625)"/>
       <path id="DejaVuSans-68" d="M 3513 2113 
L 3513 0 
L 2938 0 
L 2938 2094 
Q 2938 2591 2744 2837 
Q 2550 3084 2163 3084 
Q 1697 3084 1428 2787 
Q 1159 2491 1159 1978 
L 1159 0 
L 581 0 
L 581 4863 
L 1159 4863 
L 1159 2956 
Q 1366 3272 1645 3428 
Q 1925 3584 2291 3584 
Q 2894 3584 3203 3211 
Q 3513 2838 3513 2113 
z
" transform="scale(0.015625)"/>
      </defs>
      <use xlink:href="#DejaVuSans-50"/>
      <use xlink:href="#DejaVuSans-68" transform="translate(60.302734 0)"/>
      <use xlink:href="#DejaVuSans-61" transform="translate(123.681641 0)"/>
      <use xlink:href="#DejaVuSans-73" transform="translate(184.960938 0)"/>
      <use xlink:href="#DejaVuSans-69" transform="translate(237.060547 0)"/>
      <use xlink:href="#DejaVuSans-63" transform="translate(264.84375 0)"/>
     </g>
    </g>
   </g>
  </g>
 </g>
 <defs>
  <clipPath id="pa0b1a2a107">
   <rect x="47.81" y="25.44" width="402.19" height="278.2"/>
  </clipPath>
 </defs>
</svg>
